<?xml version="1.0" encoding="UTF-8"?>
<svg  xmlns="http://www.w3.org/2000/svg" xmlns:xlink="http://www.w3.org/1999/xlink" viewBox="12078.24557, -2855.545188, 659.2878, 631.5991" xmlns:go="http://purl.org/svgmap/profile"  xmlns:rdf="http://www.w3.org/1999/02/22-rdf-syntax-ns#" xmlns:dc="http://purl.org/dc/elements/1.1/" property="id,type,latitude,longitude,title,address,spec" >
 <globalCoordinateSystem srsName="http://purl.org/crs/84" transform="matrix(100,0,0,-100,0,0)" />
<!-- 海岸線の描画プロパティの設定 -->
<g style="stroke: #000000" fill="none" fill-rule="evenodd" stroke="blue" stroke-width="1" opacity="1" vector-effect="non-scaling-stroke" stroke-linejoin="bevel" visibleMaxZoom="500">
<!-- 実際の海岸線データ -->
  <path d="m 12455.548,-2592.186 0.03,0.01" />
  <path d="m 12455.548,-2592.186 v 0" />
  <path d="m 12368.14,-2591.8533 v 0" />
  <path d="m 12346,-2573.4068 v 0" />
  <path d="m 12354.12,-2572.48 v 0" />
  <path d="m 12355.36,-2571.9933 v 0" />
  <path d="m 12720.77,-2657.4266 v 0" />
  <path d="m 12709.9,-2638.1332 v 0" />
  <path d="m 12714.51,-2634.7799 v 0" />
  <path d="m 12675.53,-2638.6801 -2.985,4.0743" />
  <path d="m 12672.545,-2634.6058 v 0" />
  <path d="m 12688.59,-2634.4133 v 0" />
  <path d="m 12686.16,-2633.88 v 0" />
  <path d="m 12684.14,-2633.6533 v 0" />
  <path d="m 12685.14,-2633.6533 v 0" />
  <path d="m 12682.5,-2633.5133 v 0" />
  <path d="m 12672.545,-2634.6058 3.825,1.3857" />
  <path d="m 12676.37,-2633.2201 -0.84,-5.46" />
  <path d="m 12736.59,-2622.3267 v 0" />
  <path d="m 12730.37,-2621.8533 v 0" />
  <path d="m 12728.66,-2621.6 v 0" />
  <path d="m 12724.19,-2620.7666 v 0" />
  <path d="m 12731.21,-2619.7533 v 0" />
  <path d="m 12737.67,-2619.6066 v 0" />
  <path d="m 12727.51,-2618.5934 v 0" />
  <path d="m 12728.57,-2617.5266 v 0" />
  <path d="m 12724.01,-2616.2001 v 0" />
  <path d="m 12729.11,-2616.0067 v 0" />
  <path d="m 12733.69,-2615.8535 v 0" />
  <path d="m 12728.9,-2615.5466 v 0" />
  <path d="m 12727.19,-2615.5001 v 0" />
  <path d="m 12734.76,-2614.5134 v 0" />
  <path d="m 12734.09,-2613.8533 v 0" />
  <path d="m 14034.2,-2979.2601 v 0" />
  <path d="m 14210.95,-2771.5334 v 0" />
  <path d="m 14210.271,-2771.52 v 0" />
  <path d="m 14212.64,-2767.7334 v 0" />
  <path d="m 14214.61,-2766.9867 v 0" />
  <path d="m 14215.9,-2765.4467 v 0" />
  <path d="m 14218.57,-2761.8999 v 0" />
  <path d="m 14221.28,-2748.8867 v 0" />
  <path d="m 14220.67,-2748.6 v 0" />
  <path d="m 14087.669,-2724.3534 v 0" />
  <path d="m 14219.51,-2719.1933 v 0" />
  <path d="m 14218.88,-2714.4001 v 0" />
  <path d="m 14218.201,-2712.6333 v 0" />
  <path d="m 14216.38,-2711.2135 v 0" />
  <path d="m 14222,-2710.8133 v 0" />
  <path d="m 14224.68,-2708.9468 v 0" />
  <path d="m 14218.39,-2708.5333 v 0" />
  <path d="m 14217.825,-2704.4218 v 0" />
  <path d="m 14217.566,-2704.1681 v 0" />
  <path d="m 14222.07,-2703.5267 v 0" />
  <path d="m 14217.641,-2703.0666 v 0" />
  <path d="m 14212.18,-2671.4733 v 0" />
  <path d="m 14216.231,-2666.9867 h -1.811" />
  <path d="m 14214.42,-2666.9867 h 1.811" />
  <path d="m 14212.871,-2659.4267 v 0" />
  <path d="m 14214.79,-2658.1066 v 0" />
  <path d="m 14222.8,-2656.2735 v 0" />
  <path d="m 14220.19,-2655.2 v 0" />
  <path d="m 14215.63,-2654.2334 v 0" />
  <path d="m 14127.82,-2541.7732 v 0" />
  <path d="m 12469.97,-2474.6468 v 0" />
  <path d="m 12469.06,-2463.9666 v 0" />
  <path d="m 12382.29,-2446.7199 v 0" />
  <path d="m 12414.63,-2445.0533 v 0" />
  <path d="m 12299.68,-2446.7533 v 2.9199" />
  <path d="m 12299.68,-2443.8334 v -2.9199" />
  <path d="m 12371.71,-2436.4399 v 0" />
  <path d="m 12399.68,-2436.5667 v 0.5268" />
  <path d="m 12399.68,-2436.0399 v -0.5268" />
  <path d="m 12373.94,-2434.4933 v 0" />
  <path d="m 12392.94,-2434.0866 v 0" />
  <path d="m 12433.552,-2460.2715 -26.172,15.1515 7.05,11.4667" />
  <path d="m 12414.34,-2432.8333 v 0" />
  <path d="m 12414.43,-2433.6533 19.122,-26.6182" />
  <path d="m 12398.88,-2432.2933 v 0" />
  <path d="m 12408.05,-2430.9668 v 0" />
  <path d="m 12387.18,-2425.44 6.6,-10.9865 -15.71,-7.2201 -12.05,12.9398 21.16,5.2668" />
  <path d="m 12393.52,-2422.4068 v 0" />
  <path d="m 12401.07,-2421.9868 v 0" />
  <path d="m 12392.7,-2420.8733 v 0" />
  <path d="m 12355.379,-2419.1401 v 0" />
  <path d="m 12379.08,-2404.4733 v 0" />
  <path d="m 12524.651,-2491.9867 v 0" />
  <path d="m 12530.58,-2491.2533 v 0" />
  <path d="m 12515.331,-2483.12 -1.651,-0.5335" />
  <path d="m 12518.12,-2481.1268 -2.687,-2.4843" />
  <path d="m 12515.331,-2483.12 2.789,1.9932" />
  <path d="m 12518.12,-2481.1268 -2.687,-2.4843" />
  <path d="m 12513.68,-2483.6535 4.44,2.5267" />
  <path d="m 12535.26,-2478.8601 -5.63,-8.9065 -4.34,-3.2134 2.33,13.9533" />
  <path d="m 12534.9,-2472.1533 11.83,0.2667 -11.47,-6.9735" />
  <path d="m 12527.62,-2477.0267 2.12,5.3134" />
  <path d="m 12524.68,-2471.2667 v 0" />
  <path d="m 12529.74,-2471.7133 5.16,-0.44" />
  <path d="m 13606.92,-2042.3935 h -0.02" />
  <path d="m 14128.42,-2475.1467 v 0" />
  <path d="m 14145.99,-2422.3932 v 0" />
  <path d="m 15398.19,-2428.4134 v 0" />
</g>
</svg>