<?xml version="1.0" encoding="UTF-8"?>
<svg  xmlns="http://www.w3.org/2000/svg" xmlns:xlink="http://www.w3.org/1999/xlink" viewBox="12737.53337, -4118.743422, 659.2878, 631.5991" xmlns:go="http://purl.org/svgmap/profile"  xmlns:rdf="http://www.w3.org/1999/02/22-rdf-syntax-ns#" xmlns:dc="http://purl.org/dc/elements/1.1/" property="id,type,latitude,longitude,title,address,spec" >
 <globalCoordinateSystem srsName="http://purl.org/crs/84" transform="matrix(100,0,0,-100,0,0)" />
<!-- 海岸線の描画プロパティの設定 -->
<g style="stroke: #000000" fill="none" fill-rule="evenodd" stroke="red" stroke-width="1" opacity="1" vector-effect="non-scaling-stroke" stroke-linejoin="bevel" visibleMaxZoom="500">
<!-- 実際の海岸線データ -->
  <path d="m 13332.66,-3630.92 -7.01,-1.8467" />
  <path d="m 13337.32,-3627.7599 -4.66,-3.1601" />
  <path d="m 13325.65,-3632.7667 -7.52,6.7001" />
  <path d="m 13326.61,-3616.8064 10.71,-10.9535" />
  <path d="m 13326.61,-3616.8064 -8.48,-9.2602" />
  <path d="m 13312.18,-3614.6999 v 0" />
  <path d="m 13316.98,-3613.3667 v 0" />
  <path d="m 13316.56,-3610.0067 v 0" />
  <path d="m 13299.68,-3609.0668 v -2.3731" />
  <path d="m 13299.68,-3604.5933 v -4.4735" />
  <path d="m 13299.68,-3611.4399 v 7.5398" />
  <path d="m 13299.68,-3603.9001 v -0.6932" />
  <path d="m 13306.77,-3603.5133 v 0" />
  <path d="m 13301.37,-3600.3201 h 1.34" />
  <path d="m 13303.061,-3600.3201 h 0.409" />
  <path d="m 13303.76,-3600.3201 h 1.91" />
  <path d="m 13306.58,-3600.3201 h -5.84" />
  <path d="m 13300.74,-3600.3201 h 0.63" />
  <path d="m 13303.47,-3600.3201 h 0.29" />
  <path d="m 13302.71,-3600.3201 h 0.351" />
  <path d="m 13303.999,-3599.4934 v 0" />
  <path d="m 13305.67,-3600.3201 h 0.91" />
  <path d="m 13305.031,-3599.3401 v 0" />
  <path d="m 13307.71,-3599.3198 v 0" />
  <path d="m 13312.511,-3558.82 v 0" />
  <path d="m 13324.24,-3557.9201 v 0" />
  <path d="m 13305.13,-3556.48 v 0" />
  <path d="m 13312.08,-3557.8732 -9.44,2.52" />
  <path d="m 13324.409,-3554.9133 -12.329,-2.9599" />
  <path d="m 13302.64,-3555.3532 -2.96,1.1132" />
  <path d="m 13399.68,-3552.4334 -3.209,0.1335" />
  <path d="m 13360.7,-3552.2266 -6.409,0.067" />
  <path d="m 13295.129,-3551.82 4.551,-2.42" />
  <path d="m 13295.129,-3551.82 -4.879,0.6065" />
  <path d="m 13396.471,-3552.2999 -6.16,1.2665" />
  <path d="m 13366.569,-3550.7465 -5.869,-1.4801" />
  <path d="m 13385.5,-3550.5066 4.811,-0.5268" />
  <path d="m 13371.69,-3550.4131 -5.121,-0.3334" />
  <path d="m 13385.5,-3550.5066 -6.501,0.4131" />
  <path d="m 13378.999,-3550.0935 -7.309,-0.3196" />
  <path d="m 13326.15,-3550.0668 -1.741,-4.8465" />
  <path d="m 13354.291,-3552.1599 -8.501,2.3335" />
  <path d="m 13345.79,-3549.8264 -2.92,2.8263" />
  <path d="m 13337.36,-3545.6932 -11.21,-4.3736" />
  <path d="m 13339.101,-3545.3999 -1.741,-0.2933" />
  <path d="m 13339.32,-3545.3533 3.55,-1.6468" />
  <path d="m 13339.32,-3545.3533 -0.219,-0.047" />
  <path d="m 13290.25,-3551.2135 -19.7,6.9935" />
  <path d="m 13270.55,-3544.22 -3.17,6.7269" />
  <path d="m 13267.38,-3537.4931 -0.65,2.9731" />
  <path d="m 13266.73,-3534.52 -0.299,0.8667" />
  <path d="m 13266.431,-3533.6533 -1.882,3.1266" />
  <path d="m 13264.549,-3530.5267 -7.019,3.2669" />
  <path d="m 13257.53,-3527.2598 -15.941,9.56" />
  <path d="m 13239.69,-3516.9868 v 0" />
  <path d="m 13239.999,-3516.9067 v 0" />
  <path d="m 13239.76,-3516.8533 v 0" />
  <path d="m 13241.589,-3517.6998 -1.806,2.1515" />
  <path d="m 13239.76,-3515.4266 0.02,-0.1217" />
  <path d="m 13239.783,-3515.5483 -2.823,3.1551" />
  <path d="m 13236.96,-3512.3932 -5.679,5.9265" />
  <path d="m 13231.281,-3506.4667 -12.067,6.4667" />
  <path d="m 13219.214,-3500 -4.843,3.6133" />
  <path d="m 13204.48,-3490.2 v 0" />
  <path d="m 13206.081,-3489.7934 v 0" />
  <path d="m 13214.371,-3496.3867 -14.691,12.1532" />
  <path d="m 13199.68,-3484.2335 -1.799,1.8669" />
  <path d="m 13991.75,-3188.5868 v 0" />
  <path d="m 14005.17,-3143.7267 v 0" />
  <path d="m 14029.86,-3047.2334 v 0" />
  <path d="m 14034.2,-2979.2601 v 0" />
  <path d="m 14210.95,-2771.5334 v 0" />
  <path d="m 14210.271,-2771.52 v 0" />
  <path d="m 14212.64,-2767.7334 v 0" />
  <path d="m 14214.61,-2766.9867 v 0" />
  <path d="m 14215.9,-2765.4467 v 0" />
  <path d="m 14218.57,-2761.8999 v 0" />
  <path d="m 14221.28,-2748.8867 v 0" />
  <path d="m 14220.67,-2748.6 v 0" />
  <path d="m 14087.669,-2724.3534 v 0" />
  <path d="m 14219.51,-2719.1933 v 0" />
  <path d="m 14218.88,-2714.4001 v 0" />
  <path d="m 14218.201,-2712.6333 v 0" />
  <path d="m 14216.38,-2711.2135 v 0" />
  <path d="m 14222,-2710.8133 v 0" />
  <path d="m 14224.68,-2708.9468 v 0" />
  <path d="m 14218.39,-2708.5333 v 0" />
  <path d="m 14217.825,-2704.4218 v 0" />
  <path d="m 14217.566,-2704.1681 v 0" />
  <path d="m 14222.07,-2703.5267 v 0" />
  <path d="m 14217.641,-2703.0666 v 0" />
  <path d="m 14212.18,-2671.4733 v 0" />
  <path d="m 14216.231,-2666.9867 h -1.811" />
  <path d="m 14214.42,-2666.9867 h 1.811" />
  <path d="m 14212.871,-2659.4267 v 0" />
  <path d="m 14214.79,-2658.1066 v 0" />
  <path d="m 14222.8,-2656.2735 v 0" />
  <path d="m 14220.19,-2655.2 v 0" />
  <path d="m 14215.63,-2654.2334 v 0" />
  <path d="m 14127.82,-2541.7732 v 0" />
  <path d="m 13606.92,-2042.3935 h -0.02" />
  <path d="m 14128.42,-2475.1467 v 0" />
  <path d="m 14145.99,-2422.3932 v 0" />
  <path d="m 15398.19,-2428.4134 v 0" />
</g>
</svg>