<?xml version="1.0" encoding="UTF-8"?>
<svg  xmlns="http://www.w3.org/2000/svg" xmlns:xlink="http://www.w3.org/1999/xlink" viewBox="12737.53337, -3487.144305, 659.2878, 631.5991" xmlns:go="http://purl.org/svgmap/profile"  xmlns:rdf="http://www.w3.org/1999/02/22-rdf-syntax-ns#" xmlns:dc="http://purl.org/dc/elements/1.1/" property="id,type,latitude,longitude,title,address,spec" >
 <globalCoordinateSystem srsName="http://purl.org/crs/84" transform="matrix(100,0,0,-100,0,0)" />
<!-- 海岸線の描画プロパティの設定 -->
<g style="stroke: #000000" fill="none" fill-rule="evenodd" stroke="yellow" stroke-width="1" opacity="1" vector-effect="non-scaling-stroke" stroke-linejoin="bevel" visibleMaxZoom="500">
<!-- 実際の海岸線データ -->
  <path d="m 12943.291,-3470.3732 v 0" />
  <path d="m 12947.89,-3467.9935 v 0" />
  <path d="m 12940.759,-3467.6468 -0.819,0.66" />
  <path d="m 12940.179,-3466.9868 h 0.132" />
  <path d="m 12948.441,-3466.9868 -7.682,-0.66" />
  <path d="m 12939.94,-3466.9868 h 0.239" />
  <path d="m 12942.02,-3449.7398 6.421,-17.247" />
  <path d="m 12940.311,-3466.9868 -11.112,17.6467" />
  <path d="m 12929.199,-3449.3401 -0.07,4.8401" />
  <path d="m 12926.39,-3442.6933 v 0" />
  <path d="m 12936.38,-3443.4067 5.64,-6.3331" />
  <path d="m 12926.544,-3442.2222 v 0" />
  <path d="m 12926.82,-3441.7473 v 0" />
  <path d="m 12937.469,-3438.1802 -1.089,-5.2265" />
  <path d="m 12933.89,-3435.1398 v 0" />
  <path d="m 12940.63,-3435.0533 v 0" />
  <path d="m 12934.171,-3434.5264 v 0" />
  <path d="m 12933.31,-3433.9931 v 0" />
  <path d="m 12929.131,-3444.5 -6.312,8.6399 10.871,-2.2064" />
  <path d="m 12934.05,-3433.5667 v 0" />
  <path d="m 12939.661,-3433.4267 v 0" />
  <path d="m 12939.56,-3431.1733 v 0" />
  <path d="m 12933.279,-3430.4268 v 0" />
  <path d="m 12932.1,-3429.9534 v 0" />
  <path d="m 12933.69,-3438.0665 3.779,-0.1137" />
  <path d="m 12935.921,-3427.1198 v 0" />
  <path d="m 12932.48,-3422.6002 -12.959,-6.7863" />
  <path d="m 12924.2,-3409.6333 v 0" />
  <path d="m 12919.521,-3429.3865 -2.75,19.1932 15.709,-12.4069" />
  <path d="m 12969.83,-3386.4868 v 0" />
  <path d="m 12967.709,-3386.2534 v 0" />
  <path d="m 12968.851,-3386.1332 v 0" />
  <path d="m 12966.11,-3382.8667 v 0" />
  <path d="m 12972.42,-3385.0136 -4.93,5.3204" />
  <path d="m 12976.5,-3376.7067 -4.08,-8.3069" />
  <path d="m 12964.41,-3375.3201 v 0" />
  <path d="m 12986.44,-3374.0734 v 0" />
  <path d="m 12973.12,-3373.3601 3.38,-3.3466" />
  <path d="m 12963.049,-3373.2265 v 0" />
  <path d="m 12975.749,-3372.9935 v 0" />
  <path d="m 12962.75,-3372.2733 v 0" />
  <path d="m 12964.7,-3371.8132 v 0" />
  <path d="m 12967.49,-3379.6932 5.63,6.3331" />
  <path d="m 12962.399,-3369.8666 v 0" />
  <path d="m 12955.26,-3360.4 v 0" />
  <path d="m 12989.329,-3359.3201 v 0" />
  <path d="m 12986.22,-3358.7532 v 0" />
  <path d="m 12983.679,-3358.3733 v 0" />
  <path d="m 12975.7,-3356.34 v 0" />
  <path d="m 12987.41,-3354.38 v 0" />
  <path d="m 12991.13,-3354.2999 -0.12,-0.08" />
  <path d="m 12991.609,-3354.1866 -0.479,-0.1133" />
  <path d="m 12996.739,-3352.7134 v 0" />
  <path d="m 12991.01,-3354.38 -2.739,1.7467" />
  <path d="m 12988.271,-3352.6333 -2.701,1.5" />
  <path d="m 12998.86,-3347.2069 v 0" />
  <path d="m 12955.28,-3346.9334 v 0" />
  <path d="m 12972.659,-3345.1401 v 0" />
  <path d="m 12985.57,-3351.1333 -0.51,6.4201" />
  <path d="m 12999.68,-3344.6735 -8.071,-9.5131" />
  <path d="m 13000,-3344.6201 -0.32,-0.053" />
  <path d="m 12950.861,-3342.4202 v 0" />
  <path d="m 12953.36,-3342.1268 v 0" />
  <path d="m 12971.111,-3341.9868 v 0" />
  <path d="m 12968.401,-3340.5869 v 0" />
  <path d="m 12973.221,-3340.5666 v 0" />
  <path d="m 12985.629,-3340.2134 v 0" />
  <path d="m 12986.009,-3339.9467 v 0" />
  <path d="m 12977.969,-3339.3002 v 0" />
  <path d="m 12985.06,-3344.7132 1.331,5.4066" />
  <path d="m 12977.86,-3338.9801 v 0" />
  <path d="m 12960.37,-3338.0402 v 0" />
  <path d="m 12941.56,-3335.1002 v 0" />
  <path d="m 12981.219,-3334.8534 v 0" />
  <path d="m 12978.99,-3334.0332 -15.77,-2.1935" />
  <path d="m 12954.19,-3333.6533 h -10.24" />
  <path d="m 12963.22,-3336.2267 -6.109,2.5734" />
  <path d="m 12979.309,-3333.6533 -0.319,-0.3799" />
  <path d="m 12983.38,-3333.6533 h -0.61" />
  <path d="m 12986.391,-3339.3066 -2.681,5.6533" />
  <path d="m 12983.71,-3333.6533 h -0.33" />
  <path d="m 12983.53,-3331.8932 v 0" />
  <path d="m 12960.73,-3331.48 1.421,0.46" />
  <path d="m 12957.111,-3333.6533 3.619,2.1733" />
  <path d="m 12957.88,-3330.3467 v 0" />
  <path d="m 12957.25,-3328.7601 v 0" />
  <path d="m 12956.25,-3328.6934 v 0" />
  <path d="m 12982.77,-3333.6533 h -3.461" />
  <path d="m 12957.15,-3327.6665 v 0" />
  <path d="m 12956.41,-3327.0931 v 0" />
  <path d="m 12955.09,-3326.1868 v 0" />
  <path d="m 12956.461,-3326.1532 v 0" />
  <path d="m 12955.83,-3325.9197 v 0" />
  <path d="m 12955.93,-3325.3201 v 0" />
  <path d="m 12955.521,-3325.3067 v 0" />
  <path d="m 12906.49,-3325.2335 v 0" />
  <path d="m 12956.18,-3325.0401 v 0" />
  <path d="m 12933.74,-3324.8333 v 0" />
  <path d="m 12911.79,-3324.5602 v 0" />
  <path d="m 12907.01,-3324.4469 v 0" />
  <path d="m 12962.151,-3331.02 -5.481,6.7799" />
  <path d="m 12955.389,-3322.6334 v 0" />
  <path d="m 12913.12,-3322.02 v 0" />
  <path d="m 12956.01,-3321.88 h -0.14" />
  <path d="m 12956.67,-3324.2401 -0.8,2.3628" />
  <path d="m 12906.78,-3321.7667 v 0" />
  <path d="m 12956.841,-3321.2399 v 0" />
  <path d="m 12935.06,-3320.8065 v 0" />
  <path d="m 12957.59,-3320.7535 v 0" />
  <path d="m 12963.631,-3322.5067 1.249,1.7403" />
  <path d="m 12955.87,-3321.8773 6.481,1.4641" />
  <path d="m 12959.02,-3320.2068 v 0" />
  <path d="m 12959.65,-3320.1466 v 0" />
  <path d="m 12963.8,-3320.0867 -0.169,-2.42" />
  <path d="m 12963.5,-3319.9932 0.09,-0.04" />
  <path d="m 12902.15,-3319.9734 v 0" />
  <path d="m 12963.59,-3320.0333 0.21,-0.053" />
  <path d="m 12957.84,-3319.54 v 0" />
  <path d="m 12934.23,-3319.3001 v 0" />
  <path d="m 12959.779,-3319.0735 v 0" />
  <path d="m 12892.9,-3319.0399 v 0" />
  <path d="m 12961.02,-3318.9533 v 0" />
  <path d="m 12962.351,-3320.4132 1.149,0.42" />
  <path d="m 12897.9,-3318.4666 v 0" />
  <path d="m 12961.23,-3318.4265 v 0" />
  <path d="m 12904.961,-3318.3399 v 0" />
  <path d="m 12933.45,-3318.24 v 0" />
  <path d="m 12902.24,-3317.9466 v 0" />
  <path d="m 12901.14,-3317.8402 v 0" />
  <path d="m 12934.66,-3317.7734 v 0" />
  <path d="m 12905.28,-3317.7067 v 0" />
  <path d="m 12903.32,-3317.16 v 0" />
  <path d="m 12943.95,-3333.6533 -7.1,16.6668 17.34,-16.6668" />
  <path d="m 12952.361,-3316.7202 v 0" />
  <path d="m 12890.34,-3316.6466 v 0" />
  <path d="m 12902.251,-3316.4799 v 0" />
  <path d="m 12958.13,-3316.1068 v 0" />
  <path d="m 12913.15,-3315.9199 v 0" />
  <path d="m 12963.811,-3315.8333 v 0" />
  <path d="m 12967.371,-3315.7467 v 0" />
  <path d="m 12966.15,-3315.0398 v 0" />
  <path d="m 12889.79,-3314.9868 v 0" />
  <path d="m 12967.09,-3314.9734 v 0" />
  <path d="m 12965.27,-3314.0202 v 0" />
  <path d="m 12967.92,-3313.5399 v 0" />
  <path d="m 12966.341,-3313.1866 v 0" />
  <path d="m 12953.58,-3313.1599 v 0" />
  <path d="m 12913.249,-3313.1535 v 0" />
  <path d="m 12975.279,-3313.1535 v 0" />
  <path d="m 12978.41,-3306.5865 v 0" />
  <path d="m 12956.889,-3306.3267 v 0" />
  <path d="m 12964.88,-3320.7664 15.43,14.0731" />
  <path d="m 12981.63,-3304.8733 v 0" />
  <path d="m 12980.31,-3306.6933 7.28,0.2865" />
  <path d="m 12963.26,-3302.6669 v 0" />
  <path d="m 12960.87,-3302.2732 v 0" />
  <path d="m 12917.83,-3301.9867 v 0" />
  <path d="m 12943.691,-3301.6201 v 0" />
  <path d="m 12953.74,-3300.7599 v 0" />
  <path d="m 12919.08,-3300.6802 v 0" />
  <path d="m 12936.211,-3300.2666 v 0" />
  <path d="m 12900.861,-3300.1865 v 0" />
  <path d="m 12955.33,-3300.1133 v 0" />
  <path d="m 12956.16,-3300.0732 v 0" />
  <path d="m 12934.52,-3299.7532 v 0" />
  <path d="m 12974.5,-3299.6532 v 0" />
  <path d="m 12974.139,-3299.44 v 0" />
  <path d="m 12987.59,-3306.4068 7.23,7.3601" />
  <path d="m 12923.39,-3298.8934 v 0" />
  <path d="m 12964.7,-3298.8464 v 0" />
  <path d="m 12972.611,-3304.66 -7.511,6.0001" />
  <path d="m 12911.33,-3298.6198 v 0" />
  <path d="m 12908.701,-3298.4001 2.98,-10.2532 -0.29,-7.74 -3.341,12.6" />
  <path d="m 12902.42,-3297.5399 v 0" />
  <path d="m 12899.68,-3296.6599 v 0.2865" />
  <path d="m 12980.589,-3296.1868 -7.978,-8.4732" />
  <path d="m 12980.859,-3296.0266 -0.27,-0.1602" />
  <path d="m 12980.901,-3296.0266 h -0.04" />
  <path d="m 12981.371,-3295.8401 v 0" />
  <path d="m 12908.05,-3303.7933 -8.37,7.1334" />
  <path d="m 12899.68,-3296.3734 v 0.9735" />
  <path d="m 12899.68,-3295.3999 v 0.08" />
  <path d="m 12899.68,-3295.3201 v 0.3135" />
  <path d="m 12899.68,-3295.0066 v 0.1198" />
  <path d="m 12963.08,-3294.6133 v 0" />
  <path d="m 12899.68,-3294.8868 v 0.3334" />
  <path d="m 12898.261,-3294.4332 v 0" />
  <path d="m 12899.68,-3294.5534 v 0.4532" />
  <path d="m 12899.68,-3294.1002 4.02,0.4402" />
  <path d="m 12903.7,-3293.66 -0.56,0.3998" />
  <path d="m 12903.14,-3293.2602 -0.57,1.3668" />
  <path d="m 12918.719,-3291.7267 v 0" />
  <path d="m 12961.09,-3291.6199 v 0" />
  <path d="m 12904.7,-3291.5802 v 0" />
  <path d="m 12980.659,-3291.3532 v 0" />
  <path d="m 12896.159,-3290.48 v 0" />
  <path d="m 12991.8,-3290.3133 v 0" />
  <path d="m 12909.43,-3290.3069 -0.729,-8.0932" />
  <path d="m 12994.08,-3290.0269 v 0" />
  <path d="m 12899.68,-3292.7532 v 2.7466" />
  <path d="m 12899.68,-3290.0066 v 0.4066" />
  <path d="m 12894.62,-3289.5931 v 0" />
  <path d="m 12965.1,-3298.6599 1.7,9.1" />
  <path d="m 12899.68,-3289.6 v 0.28" />
  <path d="m 12983.639,-3288.9332 v 0" />
  <path d="m 12903.751,-3288.6799 v 0" />
  <path d="m 12890.97,-3288.5532 v 0" />
  <path d="m 12959.869,-3288.0066 v 0" />
  <path d="m 12899.68,-3289.32 v 0.7866" />
  <path d="m 12980.04,-3287.64 v 0" />
  <path d="m 12890.62,-3287.5801 v 0" />
  <path d="m 12954.939,-3287.4802 v 0" />
  <path d="m 12992.999,-3286.8599 v 0" />
  <path d="m 12903.47,-3286.8069 v 0" />
  <path d="m 12979.61,-3287.08 1.291,-8.9466" />
  <path d="m 12955.82,-3286.6268 v 0" />
  <path d="m 12980.76,-3286.6001 v 0" />
  <path d="m 12982.1,-3286.5002 v 0" />
  <path d="m 12904.5,-3286.3533 v 0" />
  <path d="m 12904.33,-3286.1599 v 0" />
  <path d="m 12903.261,-3286.0199 v 0" />
  <path d="m 12899.68,-3288.5334 v 1.7735" />
  <path d="m 12900.149,-3285.4401 v 0" />
  <path d="m 12994.82,-3299.0467 4.86,14.2067" />
  <path d="m 12999.68,-3284.84 0.32,0.097" />
  <path d="m 12899.68,-3286.7599 v -5.9933" />
  <path d="m 12988.95,-3287.0998 -3.8,1.0532" />
  <path d="m 12903.78,-3284.3601 v 0" />
  <path d="m 13000,-3283.7337 -0.32,0.034" />
  <path d="m 12999.68,-3283.7002 -0.56,0.1934" />
  <path d="m 12999.12,-3283.5068 -10.17,-3.593" />
  <path d="m 12985.15,-3286.0466 -5.54,-1.0334" />
  <path d="m 12966.8,-3289.5599 5.69,7.4798" />
  <path d="m 12902.57,-3291.8934 2.71,10.0132" />
  <path d="m 12905.28,-3281.8802 4.15,-8.4267" />
  <path d="m 12894.98,-3280.92 v 0" />
  <path d="m 12867.81,-3280.2334 v 0" />
  <path d="m 12894.02,-3279.9667 v 0" />
  <path d="m 12893.269,-3279.7932 v 0" />
  <path d="m 12975.501,-3278.9799 v 0" />
  <path d="m 12886.549,-3276.3535 v 0" />
  <path d="m 12896.49,-3276.1734 v 0" />
  <path d="m 12999.68,-3276.1932 0.32,0.1094" />
  <path d="m 12883.56,-3275.4539 -0.129,-0.013" />
  <path d="m 12880.75,-3275.4002 -1.889,-2.7397" />
  <path d="m 12998.68,-3275.8934 1,-0.2998" />
  <path d="m 12900.591,-3275.3201 v 0" />
  <path d="m 12999.68,-3275.2735 v -0.1465" />
  <path d="m 12999.68,-3275.42 v 0.1465" />
  <path d="m 12884.129,-3275.2666 v 0" />
  <path d="m 12880.81,-3275.1331 -0.06,-0.2671" />
  <path d="m 12899.68,-3275.0534 v -3.6865" />
  <path d="m 12883.56,-3275.4539 -2.75,0.3208" />
  <path d="m 12998.36,-3274.6201 v 0" />
  <path d="m 12899.68,-3278.7399 v 3.6865" />
  <path d="m 12887.26,-3273.8998 v 0" />
  <path d="m 12877.28,-3273.6935 v 0" />
  <path d="m 12878.861,-3278.1399 -8.941,4.2668" />
  <path d="m 12886.2,-3272.0066 v 0" />
  <path d="m 12885.44,-3271.9067 v 0" />
  <path d="m 12981.54,-3271.7667 v 0" />
  <path d="m 12859.85,-3271.1266 v 0" />
  <path d="m 12869.92,-3273.8731 -3.891,3.1597" />
  <path d="m 12889.661,-3269.4 v 0" />
  <path d="m 12977.89,-3268.9999 v 0" />
  <path d="m 12972.49,-3282.0801 9.73,12.8269" />
  <path d="m 12982.22,-3269.2532 -0.601,0.6264" />
  <path d="m 12863.339,-3266.9868 h -0.749" />
  <path d="m 12866.029,-3270.7134 1.361,3.7266" />
  <path d="m 12888.08,-3266.9868 -4.52,-8.4671" />
  <path d="m 12981.619,-3268.6268 0.04,1.64" />
  <path d="m 12989.799,-3266.9868 8.881,-8.9066" />
  <path d="m 12981.661,-3266.9868 -0.04,0.3601" />
  <path d="m 12975.369,-3264.9002 v 0" />
  <path d="m 12986.62,-3264.4333 3.179,-2.5535" />
  <path d="m 12862.59,-3266.9868 h 0.749" />
  <path d="m 12876.759,-3264.3002 11.321,-2.6866" />
  <path d="m 12981.619,-3266.6267 -2.169,3.2867" />
  <path d="m 12973.65,-3262.5801 v 0" />
  <path d="m 12877.75,-3261.9331 v 0" />
  <path d="m 12877.789,-3261.4799 v 0" />
  <path d="m 12982.069,-3260.5335 4.551,-3.8998" />
  <path d="m 12883.98,-3259.5798 v 0" />
  <path d="m 12891.989,-3259.1736 v 0" />
  <path d="m 12867.39,-3266.9868 -0.61,6.2469" />
  <path d="m 12890.331,-3258.5869 v 0" />
  <path d="m 12870.7,-3257.8869 v 0" />
  <path d="m 12866.78,-3260.7399 9.979,-3.5603" />
  <path d="m 12979.45,-3263.34 2.619,2.8065" />
  <path d="m 12890.179,-3256.0669 v 0" />
  <path d="m 12977.48,-3254.8935 v 0" />
  <path d="m 13000,-3240.778 v 0.4765" />
  <path d="m 13000,-3240.0948 -0.32,0.4815" />
  <path d="m 12999.68,-3239.6133 v 8.8733" />
  <path d="m 12999.68,-3230.74 0.32,0.1019" />
  <path d="m 13000,-3228.7434 -0.32,0.2365" />
  <path d="m 12999.68,-3228.5069 -1.89,2.2271" />
  <path d="m 12997.79,-3226.2798 1.89,0.9864" />
  <path d="m 12999.68,-3225.2934 v 1.3402" />
  <path d="m 12999.68,-3223.9532 0.32,0.4684" />
  <path d="m 13000,-3222.0276 -0.32,1.5209" />
  <path d="m 12996.97,-3220.0932 v 0" />
  <path d="m 12999.68,-3220.5067 v 0.9266" />
  <path d="m 12999.68,-3219.5801 0.32,0.5547" />
  <path d="m 12997.26,-3217.7269 v 0" />
  <path d="m 12997.38,-3214.4333 v 0" />
  <path d="m 12840.46,-3203.7132 v 0" />
  <path d="m 12837.801,-3203.0666 v 0" />
  <path d="m 12836.85,-3202.3399 v 0" />
  <path d="m 12836.119,-3200.8732 v 0" />
  <path d="m 12835.741,-3200.3201 h -1.311" />
  <path d="m 12834.43,-3200.3201 h 1.311" />
  <path d="m 12834.92,-3198.6532 v 0" />
  <path d="m 12993.069,-3186.6333 v 0" />
  <path d="m 12995.841,-3186.4468 v 0" />
  <path d="m 12997.639,-3186.06 v 0" />
  <path d="m 12984.05,-3182.04 v 0" />
  <path d="m 12989.11,-3181.18 -1.129,-4.7134" />
  <path d="m 12987.981,-3185.8934 1.129,4.7134" />
  <path d="m 12982.77,-3177.4668 v 0" />
  <path d="m 12977.56,-3172.9401 -2.72,-0.8266" />
  <path d="m 12974.84,-3173.7667 -8.341,10.3399 11.061,-9.5133" />
  <path d="m 12947.53,-3119.5133 v 0" />
  <path d="m 12943.41,-3117.5533 v 0" />
  <path d="m 12946.761,-3085.94 v 0" />
  <path d="m 12942.74,-3084.0532 v 0" />
  <path d="m 12942.77,-3083.7601 v 0" />
  <path d="m 12942.3,-3082.8466 v 0" />
  <path d="m 12992.99,-3081.18 v 0" />
  <path d="m 12991.65,-3000.3201 h -0.66" />
  <path d="m 12990.99,-3000.3201 -0.101,0.3201" />
  <path d="m 12991.757,-3000 -0.107,-0.3201" />
  <path d="m 13214.371,-3496.3867 -14.691,12.1532" />
  <path d="m 13184.081,-3483.3801 v 0" />
  <path d="m 13199.68,-3484.2335 -1.799,1.8669" />
  <path d="m 13197.881,-3482.3666 -8.541,6.12" />
  <path d="m 13113.75,-3475.8469 v 0" />
  <path d="m 13189.34,-3476.2466 -20.35,8.1466" />
  <path d="m 13168.99,-3468.1 -2.01,1.1132" />
  <path d="m 13166.98,-3466.9868 -4.72,0.4867" />
  <path d="m 13398.52,-3460.4534 v 0" />
  <path d="m 13162.26,-3466.5001 -6.55,6.1733" />
  <path d="m 13397.25,-3460.3134 5.93,-0.5867" />
  <path d="m 13396.79,-3459.9533 0.46,-0.3601" />
  <path d="m 13394.884,-3459.2865 1.906,-0.6668" />
  <path d="m 13395.52,-3458.6533 -0.636,-0.6332" />
  <path d="m 13403.349,-3457.3868 -7.829,-1.2665" />
  <path d="m 13147.929,-3457.2533 v 0" />
  <path d="m 13151.39,-3456.4198 v 0" />
  <path d="m 13369.08,-3454.0268 1.24,0.013" />
  <path d="m 13399.68,-3453.7533 3.669,-3.6335" />
  <path d="m 13399.68,-3453.7533 v 0.5333" />
  <path d="m 13399.68,-3452.8667 v -0.3533" />
  <path d="m 13399.68,-3452.8667 v 0.3398" />
  <path d="m 13138.55,-3451.26 v 0" />
  <path d="m 13399.68,-3451.7532 v -0.7737" />
  <path d="m 13396.98,-3450.3933 v 0" />
  <path d="m 13397.459,-3449.9268 v 0" />
  <path d="m 13134.48,-3449.8798 v 0" />
  <path d="m 13402.341,-3450.6866 -1.651,0.8667" />
  <path d="m 13127.679,-3449.7002 v 0" />
  <path d="m 13360.319,-3449.4999 8.761,-4.5269" />
  <path d="m 13140.73,-3448.9735 v 0" />
  <path d="m 13398.109,-3448.7732 v 0" />
  <path d="m 13155.71,-3460.3268 -9.58,11.707" />
  <path d="m 13137.63,-3448.1667 v 0" />
  <path d="m 13398.88,-3447.9465 v 0" />
  <path d="m 13400.69,-3449.8199 1.651,-0.8667" />
  <path d="m 13397.23,-3447.3999 v 0" />
  <path d="m 13399.68,-3447.06 v -0.5135" />
  <path d="m 13399.68,-3447.5735 v 0.5135" />
  <path d="m 13395.81,-3446.8399 v 0" />
  <path d="m 13357.271,-3446.5866 3.048,-2.9133" />
  <path d="m 13137.691,-3446.1735 v 0" />
  <path d="m 13371.13,-3446.0934 v 0" />
  <path d="m 13400.101,-3446.0533 v 0" />
  <path d="m 13395.86,-3445.4468 v 0" />
  <path d="m 13374.68,-3445.3999 v 0" />
  <path d="m 13387.95,-3445.66 11.73,-6.0932" />
  <path d="m 13385.31,-3444.5732 v 0" />
  <path d="m 13399.68,-3444.5866 v -1.5335" />
  <path d="m 13399.68,-3446.1201 v 1.5335" />
  <path d="m 13344.63,-3448.0202 12.641,1.4336" />
  <path d="m 13400.661,-3443.56 v 0" />
  <path d="m 13349.84,-3443.1 v 0" />
  <path d="m 13370.32,-3454.0134 17.63,8.3534" />
  <path d="m 13131.92,-3442.6201 v 0" />
  <path d="m 13381.419,-3442.4934 v 0" />
  <path d="m 13349.95,-3442.3668 v 0" />
  <path d="m 13377.01,-3441.9266 v 0" />
  <path d="m 13392.47,-3441.8732 -0.53,0.027" />
  <path d="m 13383.2,-3441.74 v 0" />
  <path d="m 13391.94,-3441.8465 0.53,-0.027" />
  <path d="m 13324.39,-3442.3466 2.85,0.9999" />
  <path d="m 13380.659,-3441.28 v 0" />
  <path d="m 13377.87,-3441.2735 v 0" />
  <path d="m 13109.621,-3441.9865 -9.941,-1.0536" />
  <path d="m 13126.81,-3441.0267 v 0" />
  <path d="m 13381.07,-3440.4266 v 0" />
  <path d="m 13377.93,-3440.1733 v 0" />
  <path d="m 13119.65,-3439.8266 v 0" />
  <path d="m 13315.37,-3439.36 9.02,-2.9866" />
  <path d="m 13392.45,-3439.2265 v 0" />
  <path d="m 13351.28,-3438.9668 v 0" />
  <path d="m 13327.24,-3441.3467 1.24,2.5467" />
  <path d="m 13383.17,-3438.7333 v 0" />
  <path d="m 13099.68,-3443.0401 v 3.0869" />
  <path d="m 13382.17,-3438.2999 v 0" />
  <path d="m 13114.27,-3438.2732 -4.649,-3.7133" />
  <path d="m 13366.589,-3438.2465 v 0" />
  <path d="m 13349.68,-3438.1931 v 0" />
  <path d="m 13321.82,-3438.0402 -1.48,-2.4265" />
  <path d="m 13146.13,-3448.6198 -16.89,10.5934" />
  <path d="m 13339.85,-3437.7602 v 0" />
  <path d="m 13358.56,-3437.7468 v 0" />
  <path d="m 13365.221,-3437.3669 v 0" />
  <path d="m 13317.081,-3437.3466 v 0" />
  <path d="m 13120.81,-3437.2665 -6.54,-1.0067" />
  <path d="m 13385.449,-3437.1265 v 0" />
  <path d="m 13324.251,-3437.1132 v 0" />
  <path d="m 13129.24,-3438.0264 -8.43,0.7599" />
  <path d="m 13099.68,-3439.9532 v 2.7797" />
  <path d="m 13376.39,-3436.9068 v 0" />
  <path d="m 13335.519,-3436.8065 9.111,-11.2137" />
  <path d="m 13354.52,-3436.66 v 0" />
  <path d="m 13328.48,-3438.8 7.039,1.9935" />
  <path d="m 13251.691,-3436.5131 0.259,0.1331" />
  <path d="m 13099.68,-3437.1735 -1.709,0.8133" />
  <path d="m 13327.02,-3436.1198 v 0" />
  <path d="m 13313.55,-3435.9798 v 0" />
  <path d="m 13309.88,-3435.9665 v 0" />
  <path d="m 13251.95,-3436.38 0.51,0.5001" />
  <path d="m 13237.61,-3436.3533 4.37,0.4333" />
  <path d="m 13096.53,-3435.8269 v 0" />
  <path d="m 13252.37,-3435.8398 -0.541,0.047" />
  <path d="m 13377.389,-3435.68 v 0" />
  <path d="m 13320.34,-3440.4667 1.48,2.4265" />
  <path d="m 13252.46,-3435.8799 -0.09,0.04" />
  <path d="m 13236.784,-3435.4301 v 0" />
  <path d="m 13346.57,-3435.4134 v 0" />
  <path d="m 13248.88,-3435.3664 -0.6,-0.014" />
  <path d="m 13248.88,-3435.3664 2.811,-1.1467" />
  <path d="m 13251.829,-3435.7933 -0.869,0.4532" />
  <path d="m 13241.98,-3435.92 1.61,0.6268" />
  <path d="m 13236.784,-3435.4301 0.826,-0.9232" />
  <path d="m 13369.94,-3435.1665 v 0" />
  <path d="m 13314.14,-3435.1532 v 0" />
  <path d="m 13234.63,-3435.6533 2.154,0.2232" />
  <path d="m 13243.59,-3435.2932 5.29,-0.073" />
  <path d="m 13357.33,-3434.7866 v 0" />
  <path d="m 13411.951,-3435.92 -19.251,-3.0399" />
  <path d="m 13352.22,-3434.3132 v 0" />
  <path d="m 13330.299,-3434.28 v 0" />
  <path d="m 13084.64,-3434.1 v 0" />
  <path d="m 13246.271,-3434.0199 v 0" />
  <path d="m 13231.909,-3433.7734 0.08,-0.066" />
  <path d="m 13231.984,-3433.8394 2.646,-1.8139" />
  <path d="m 13344.591,-3433.58 v 0" />
  <path d="m 13350.78,-3433.5068 v 0" />
  <path d="m 13364.42,-3433.3801 v 0" />
  <path d="m 13326.17,-3433.2333 v 0" />
  <path d="m 13362.18,-3433.1001 v 0" />
  <path d="m 13248.08,-3433.0933 v 0" />
  <path d="m 13301,-3432.9132 14.37,-6.4468" />
  <path d="m 13382.05,-3433.7868 0.66,1.1734" />
  <path d="m 13392.7,-3438.9599 -10.65,5.1731" />
  <path d="m 13382.71,-3432.6134 0.15,0.3201" />
  <path d="m 13311.22,-3431.76 v 0" />
  <path d="m 13230.81,-3431.6666 1.174,-2.1728" />
  <path d="m 13246.4,-3431.0799 v 0" />
  <path d="m 13382.86,-3432.2933 -2.28,1.2333" />
  <path d="m 13346.12,-3431.0001 v 0" />
  <path d="m 13294.791,-3430.9265 v 0" />
  <path d="m 13367.661,-3430.5599 v 0" />
  <path d="m 13299.339,-3430.2799 v 0" />
  <path d="m 13307.75,-3430.1601 v 0" />
  <path d="m 13362.131,-3430.1067 v 0" />
  <path d="m 13353.36,-3429.8401 v 0" />
  <path d="m 13243.269,-3429.7333 v 0" />
  <path d="m 13250.96,-3435.3401 -0.279,5.6736" />
  <path d="m 13285.39,-3429.6532 15.61,-3.26" />
  <path d="m 13299.68,-3428.9799 -0.06,0.01" />
  <path d="m 13236.279,-3428.8601 v 0" />
  <path d="m 13281.41,-3428.7132 v 0" />
  <path d="m 13317.329,-3428.6533 v 0" />
  <path d="m 13316.361,-3428.5133 v 0" />
  <path d="m 13380.58,-3431.06 -4.201,2.6401" />
  <path d="m 13293.77,-3428.3398 v 0" />
  <path d="m 13291.631,-3428.0132 v 0" />
  <path d="m 13312.3,-3427.8 2.21,-2.8534" />
  <path d="m 13278.459,-3427.6867 6.931,-1.9665" />
  <path d="m 13288.47,-3427.5665 v 0" />
  <path d="m 13319.211,-3427.5066 v 0" />
  <path d="m 13236.44,-3427.3998 v 0" />
  <path d="m 13290.57,-3427.1 v 0" />
  <path d="m 13288.77,-3426.9135 v 0" />
  <path d="m 13280.26,-3426.8532 v 0" />
  <path d="m 13368.05,-3426.7399 v 0" />
  <path d="m 13277.029,-3426.4332 v 0" />
  <path d="m 13223.82,-3426.1398 6.99,-5.5268" />
  <path d="m 13277.86,-3425.7534 v 0" />
  <path d="m 13314.51,-3430.6534 -2.21,2.8534" />
  <path d="m 13317.841,-3425.6134 v 0" />
  <path d="m 13278.42,-3425.6065 v 0" />
  <path d="m 13362.18,-3425.5932 v 0" />
  <path d="m 13287.52,-3425.5135 v 0" />
  <path d="m 13286.481,-3425.3201 v 0" />
  <path d="m 13286.121,-3425.14 v 0" />
  <path d="m 13292.81,-3424.6735 -2.73,-0.1865" />
  <path d="m 13097.971,-3436.3602 -6.312,12.1003" />
  <path d="m 13294.91,-3424.1932 v 0" />
  <path d="m 13313.271,-3424.0932 v 0" />
  <path d="m 13376.379,-3428.4199 -5.56,4.3465" />
  <path d="m 13010.44,-3423.9399 v 0" />
  <path d="m 13272.76,-3423.9399 5.699,-3.7468" />
  <path d="m 13320.55,-3423.8602 v 0" />
  <path d="m 13235.719,-3423.6134 v 0" />
  <path d="m 13370.819,-3424.0734 -0.909,0.6267" />
  <path d="m 13315.21,-3423.2864 v 0" />
  <path d="m 13227.38,-3423.14 v 0" />
  <path d="m 13325.13,-3422.9332 v 0" />
  <path d="m 13318.069,-3422.6933 v 0" />
  <path d="m 13246.091,-3422.2534 -3.911,-3.3932" />
  <path d="m 13369.91,-3423.4467 -8.03,1.5" />
  <path d="m 13269.411,-3421.7266 v 0" />
  <path d="m 13314.861,-3421.5801 v 0" />
  <path d="m 13290.08,-3424.86 -5.06,3.5999" />
  <path d="m 13224.49,-3421.0667 -0.67,-5.0731" />
  <path d="m 13267.419,-3421.4466 5.341,-2.4933" />
  <path d="m 13301.621,-3421.0464 -1.941,-7.9335" />
  <path d="m 13247.23,-3420.8134 -1.139,-1.44" />
  <path d="m 13299.68,-3420.7333 1.941,-0.3131" />
  <path d="m 13285.02,-3421.2601 7.79,-3.4134" />
  <path d="m 13293.31,-3419.8933 v 0" />
  <path d="m 13223.7,-3419.6133 0.79,-1.4534" />
  <path d="m 13362.95,-3419.5999 v 0" />
  <path d="m 13231.77,-3419.54 v 0" />
  <path d="m 13307.651,-3419.3802 v 0" />
  <path d="m 13250.681,-3429.6665 16.738,8.2199" />
  <path d="m 13247.481,-3419.5534 -0.251,-1.26" />
  <path d="m 13363.33,-3419.2265 v 0" />
  <path d="m 13251.06,-3419.2001 v 0" />
  <path d="m 13285.66,-3419.1132 v 0" />
  <path d="m 13299.62,-3428.9734 0.06,8.2401" />
  <path d="m 13311.02,-3419.1002 v 0" />
  <path d="m 13293.629,-3418.7599 v 0" />
  <path d="m 13280.92,-3418.6867 0.161,-0.8198" />
  <path d="m 13281.081,-3419.5065 -0.161,0.8198" />
  <path d="m 13289.81,-3418.5467 v 0" />
  <path d="m 13230.141,-3418.4467 v 0" />
  <path d="m 13293.289,-3418.2869 v 0" />
  <path d="m 13326.88,-3418.2602 v 0" />
  <path d="m 13308.36,-3418.1999 v 0" />
  <path d="m 13089.72,-3417.6334 v 0" />
  <path d="m 13288.11,-3417.4801 v 0" />
  <path d="m 13242.18,-3425.6466 0.63,8.3531" />
  <path d="m 13242.81,-3417.2935 1.849,-1.0933" />
  <path d="m 13089.74,-3417.0532 v 0" />
  <path d="m 13331.65,-3417.02 v 0" />
  <path d="m 13266.26,-3416.9865 v 0" />
  <path d="m 13361.88,-3421.9467 2.691,5.5267" />
  <path d="m 13336.281,-3416.2868 v 0" />
  <path d="m 13277.2,-3416.0801 v 0" />
  <path d="m 13273.77,-3415.8001 v 0" />
  <path d="m 13257.269,-3415.5735 v 0" />
  <path d="m 13282.41,-3415.3534 -1.32,-2.66" />
  <path d="m 13345.55,-3415.2668 v 0" />
  <path d="m 13266.921,-3415.1001 v 0" />
  <path d="m 13281.09,-3418.0134 1.32,2.66" />
  <path d="m 13265.14,-3415.0665 v 0" />
  <path d="m 13275.97,-3414.8201 v 0" />
  <path d="m 13300.76,-3414.7533 v 0" />
  <path d="m 13242.99,-3414.6599 v 0" />
  <path d="m 13239.799,-3414.6534 v 0" />
  <path d="m 13252.11,-3415.5201 -1.49,0.9468" />
  <path d="m 13307.451,-3414.22 -4.21,-5.1999" />
  <path d="m 13244.659,-3418.3868 2.822,-1.1666" />
  <path d="m 13353.14,-3412.4599 v 0" />
  <path d="m 13297.36,-3412.2066 v 0" />
  <path d="m 13231.27,-3412.2066 0.464,0.2185" />
  <path d="m 13231.86,-3411.8866 -0.59,-0.32" />
  <path d="m 13231.734,-3411.9881 0.126,0.1015" />
  <path d="m 13091.659,-3424.2599 -5.209,12.3867" />
  <path d="m 13315.849,-3411.8069 v 0" />
  <path d="m 13318.069,-3411.5799 v 0" />
  <path d="m 13278.619,-3411.4067 v 0" />
  <path d="m 13299.11,-3411.2469 v 0" />
  <path d="m 13303.241,-3419.4199 4.21,5.1999" />
  <path d="m 13318.77,-3410.3535 v 0" />
  <path d="m 13363.58,-3410.3333 0.991,-6.0867" />
  <path d="m 13296.75,-3411.3132 -3.931,1.6666" />
  <path d="m 13079.559,-3409.2464 v 0" />
  <path d="m 13363.58,-3410.3333 0.09,1.4931" />
  <path d="m 13299.68,-3407.9533 -2.93,-3.3599" />
  <path d="m 13250.62,-3414.5733 1.49,-0.9468" />
  <path d="m 13292.052,-3407.2208 -0.241,-0.059" />
  <path d="m 13292.052,-3407.2208 0.767,-2.4258" />
  <path d="m 13255.27,-3406.8066 v 0" />
  <path d="m 13270.219,-3406.5933 v 0" />
  <path d="m 13311.22,-3406.02 v 0" />
  <path d="m 13288.65,-3405.9334 3.402,-1.2874" />
  <path d="m 13246.46,-3405.6934 v 0" />
  <path d="m 13310.44,-3405.6732 v 0" />
  <path d="m 13239.771,-3405.4001 v 0" />
  <path d="m 13221.12,-3405.1666 2.58,-14.4467" />
  <path d="m 13253.02,-3404.6532 v 0" />
  <path d="m 13171.831,-3405.7667 6.889,0.3002" />
  <path d="m 13167.29,-3404.3865 4.541,-1.3802" />
  <path d="m 13363.67,-3408.8402 -3.88,4.48" />
  <path d="m 13248.509,-3403.5267 v 0" />
  <path d="m 13242.34,-3403.2467 v 0" />
  <path d="m 13175.189,-3403.1399 -1.838,-0.6534" />
  <path d="m 13238.361,-3402.6665 v 0" />
  <path d="m 13258.8,-3402.4666 v 0" />
  <path d="m 13136.9,-3402.8332 4.7,0.7065" />
  <path d="m 13173.351,-3403.7933 1.838,0.6534" />
  <path d="m 13141.6,-3402.1267 -0.09,0.053" />
  <path d="m 13179.52,-3401.9531 v 0" />
  <path d="m 13309.441,-3401.8932 v 0" />
  <path d="m 13288.65,-3405.9334 -7.87,4.0535" />
  <path d="m 13242.05,-3401.1265 v 0" />
  <path d="m 13072.771,-3400.8469 v 0" />
  <path d="m 13080.94,-3400.3201 h -0.1" />
  <path d="m 13086.45,-3411.8732 4.77,11.5531" />
  <path d="m 13100.501,-3400.3201 6.199,-3.5667" />
  <path d="m 13102.161,-3400.3201 h -0.02" />
  <path d="m 13106.7,-3403.8868 5.37,3.5667" />
  <path d="m 13113.29,-3400.3201 1.45,-0.086" />
  <path d="m 13114.74,-3400.4066 0.23,0.086" />
  <path d="m 13137.27,-3400.3201 -0.37,-2.5131" />
  <path d="m 13141.51,-3402.0733 -1.311,1.7532" />
  <path d="m 13140.81,-3400.3201 0.38,-0.7133" />
  <path d="m 13141.19,-3401.0334 1.82,0.7133" />
  <path d="m 13145.419,-3400.3201 2.071,-3.4534" />
  <path d="m 13147.49,-3403.7735 4.05,3.4534" />
  <path d="m 13151.739,-3400.3201 h 0.791" />
  <path d="m 13154.23,-3400.3201 h 0.419" />
  <path d="m 13155.13,-3400.3201 12.16,-4.0664" />
  <path d="m 13159.21,-3400.3201 h -2.51" />
  <path d="m 13171.06,-3400.3201 h -0.911" />
  <path d="m 13178.72,-3405.4665 0.42,5.1464" />
  <path d="m 13182.75,-3400.3201 0.94,-0.6198" />
  <path d="m 13183.69,-3400.9399 2.51,0.6198" />
  <path d="m 13233.13,-3400.3201 h -0.189" />
  <path d="m 13243.03,-3400.3201 h -0.05" />
  <path d="m 13243.46,-3400.3201 h -0.08" />
  <path d="m 13264.02,-3400.3201 h -0.749" />
  <path d="m 13299.68,-3407.9533 5.74,7.6332" />
  <path d="m 13336.89,-3400.3201 h -1.7" />
  <path d="m 13355.18,-3400.3201 h -1.1" />
  <path d="m 13359.79,-3404.3602 -4.381,4.0401" />
  <path d="m 13080.84,-3400.3201 h 0.1" />
  <path d="m 13243.381,-3400.3201 h -0.351" />
  <path d="m 13151.54,-3400.3201 h 0.199" />
  <path d="m 13102.141,-3400.3201 h 0.02" />
  <path d="m 13242.979,-3400.3201 h 0.481" />
  <path d="m 13154.649,-3400.3201 h 0.481" />
  <path d="m 13071.69,-3400.1202 v 0" />
  <path d="m 13355.409,-3400.3201 0.101,0.2266" />
  <path d="m 13355.51,-3400.0935 -0.33,-0.2266" />
  <path d="m 13099.628,-3399.9187 0.873,-0.4014" />
  <path d="m 13152.53,-3400.3201 h 1.7" />
  <path d="m 13136.24,-3399.6933 1.03,-0.6268" />
  <path d="m 13102.589,-3399.4667 v 0" />
  <path d="m 13226.759,-3399.3999 v 0" />
  <path d="m 13112.07,-3400.3201 h 1.22" />
  <path d="m 13232.941,-3400.3201 h 0.189" />
  <path d="m 13335.19,-3400.3201 h 1.7" />
  <path d="m 13156.7,-3400.3201 h 2.51" />
  <path d="m 13235.001,-3398.6134 v 0" />
  <path d="m 13082.1,-3398.56 v 0" />
  <path d="m 13140.199,-3400.3201 h 0.611" />
  <path d="m 13143.01,-3400.3201 h 2.409" />
  <path d="m 13306.621,-3398.2601 -1.201,-2.06" />
  <path d="m 13219.81,-3398.04 1.31,-7.1266" />
  <path d="m 13170.149,-3400.3201 h 0.911" />
  <path d="m 13173.621,-3397.8733 v 0" />
  <path d="m 13186.2,-3400.3201 3.149,2.2534" />
  <path d="m 13347.16,-3397.3801 -8.34,-1.1932" />
  <path d="m 13276.331,-3397.2336 v 0" />
  <path d="m 13086,-3397.0066 v 0" />
  <path d="m 13354.08,-3400.3201 -6.92,2.94" />
  <path d="m 13179.14,-3400.3201 h 3.61" />
  <path d="m 13085.58,-3396.5668 v 0" />
  <path d="m 13268.71,-3396.5134 v 0" />
  <path d="m 13249.33,-3396.4802 v 0" />
  <path d="m 13235.08,-3396.22 v 0" />
  <path d="m 13254.08,-3396.1266 v 0" />
  <path d="m 13099.68,-3396.6667 -0.728,0.7614" />
  <path d="m 13213.969,-3395.62 5.841,-2.42" />
  <path d="m 13247.36,-3395.38 v 0" />
  <path d="m 13248.85,-3395.2934 v 0" />
  <path d="m 13338.82,-3398.5733 -15.45,3.4" />
  <path d="m 13265.671,-3395.1199 v 0" />
  <path d="m 13263.271,-3400.3201 h 0.749" />
  <path d="m 13235.229,-3393.94 v 0" />
  <path d="m 13215.77,-3393.7801 v 0" />
  <path d="m 13229.21,-3393.7534 -7.64,-2.7466" />
  <path d="m 13193.069,-3393.5932 v 0" />
  <path d="m 13169.53,-3393.5402 v 0" />
  <path d="m 13093.001,-3393.1469 v 0" />
  <path d="m 13114.97,-3400.3201 4.889,6.0532" />
  <path d="m 13182.021,-3393.0668 v 0" />
  <path d="m 13082.159,-3393.0336 v 0" />
  <path d="m 13323.37,-3395.1733 -10.83,2.0333" />
  <path d="m 13252.879,-3392.5999 v 0" />
  <path d="m 13256.02,-3392.5602 v 0" />
  <path d="m 13312.54,-3393.14 -5.919,-5.1201" />
  <path d="m 13280.78,-3401.8799 -5.16,9.5265" />
  <path d="m 13119.859,-3394.2669 16.381,-5.4264" />
  <path d="m 13189.349,-3398.0667 10.331,6.2534" />
  <path d="m 13246.539,-3391.4803 v 0" />
  <path d="m 13091.22,-3400.3201 8.408,0.4014" />
  <path d="m 13099.68,-3390.6532 v -6.0135" />
  <path d="m 13232.26,-3390.6532 -3.05,-3.1002" />
  <path d="m 13202.44,-3390.1867 3.331,-2.2201" />
  <path d="m 13199.68,-3391.8133 2.76,1.6266" />
  <path d="m 13239.22,-3390.0665 v 0" />
  <path d="m 13098.952,-3395.9053 -7.532,6.3251" />
  <path d="m 13050.101,-3389.5267 v 0" />
  <path d="m 13099.68,-3389.2735 v -1.3797" />
  <path d="m 13091.42,-3389.5802 -6.41,-0.9197" />
  <path d="m 13042.619,-3388.7135 v 0" />
  <path d="m 13204.93,-3388.6734 v 0" />
  <path d="m 13264.101,-3388.6135 v 0" />
  <path d="m 13067.239,-3391.8667 -3.759,3.3268" />
  <path d="m 13085.01,-3390.4999 -4.41,2.0199" />
  <path d="m 13074.33,-3388.8199 -7.091,-3.0468" />
  <path d="m 13063.48,-3388.5399 -9.27,-0.3734" />
  <path d="m 13099.68,-3387.8399 v 0.4196" />
  <path d="m 13080.6,-3388.48 -2.451,0.6599" />
  <path d="m 13078.149,-3387.8201 -3.819,-0.9998" />
  <path d="m 13099.68,-3387.4203 v 0.067" />
  <path d="m 13099.68,-3387.3535 v -1.92" />
  <path d="m 13266.89,-3387.0533 v 0" />
  <path d="m 13224.451,-3387.4866 7.139,-1.8002" />
  <path d="m 13206.081,-3386.7001 v 0" />
  <path d="m 13099.68,-3386.5799 v -0.2468" />
  <path d="m 13099.68,-3386.8267 v -1.0132" />
  <path d="m 13231.02,-3386.2534 v 0" />
  <path d="m 13003.56,-3386.1935 v 0" />
  <path d="m 13046.88,-3385.9531 v 0" />
  <path d="m 13231.59,-3389.2868 5.57,3.0468 0.02,-4.8733 3.46,0.1198 1.5,-1.5667 1.94,-0.1865 3.03,-1.9135 -0.09,-0.3864 -14.76,4.3934" />
  <path d="m 13221.57,-3396.5 2.881,9.0134" />
  <path d="m 13202.21,-3385.2268 v 0" />
  <path d="m 13054.21,-3388.9133 -6.32,3.8467" />
  <path d="m 13236.769,-3384.7 v 0" />
  <path d="m 13253.059,-3384.4334 v 0" />
  <path d="m 13218.34,-3384.4067 v 0" />
  <path d="m 13215.199,-3384.3067 -1.23,-11.3133" />
  <path d="m 13097.659,-3384.4398 2.021,-2.1401" />
  <path d="m 13211.49,-3385.9001 3.709,1.5934" />
  <path d="m 13100.736,-3382.8442 v 0" />
  <path d="m 13097.659,-3382.8068 v 0" />
  <path d="m 13103.207,-3381.9649 v 0" />
  <path d="m 13211.839,-3381.1401 v 0" />
  <path d="m 13098.041,-3381.06 -0.382,-3.3798" />
  <path d="m 13099.68,-3381.4602 -1.639,0.4002" />
  <path d="m 13099.68,-3380.6999 v -0.227" />
  <path d="m 13099.68,-3380.9269 v -0.5333" />
  <path d="m 13225.2,-3380.64 v 0" />
  <path d="m 13275.62,-3392.3534 -6.98,11.8801" />
  <path d="m 13239.42,-3380.1666 v 0" />
  <path d="m 13099.68,-3380.08 v -0.6199" />
  <path d="m 13099.68,-3379.2202 v -0.4066" />
  <path d="m 13099.68,-3379.1134 v -0.1068" />
  <path d="m 13100.943,-3378.9906 v 0" />
  <path d="m 13193.84,-3378.7666 v 0" />
  <path d="m 13204.93,-3378.4668 v 0" />
  <path d="m 13099.68,-3379.6268 v -0.4532" />
  <path d="m 13239.27,-3377.7733 v 0" />
  <path d="m 13099.68,-3377.7065 v -1.4069" />
  <path d="m 13268.64,-3380.4733 1.14,2.8465" />
  <path d="m 13047.89,-3385.0666 -0.89,7.6797" />
  <path d="m 13099.68,-3377.3666 v -0.3399" />
  <path d="m 13205.13,-3377.2133 v 0" />
  <path d="m 13196.35,-3376.86 v 0" />
  <path d="m 13225.641,-3376.6468 v 0" />
  <path d="m 13036.34,-3375.4932 v 0" />
  <path d="m 13047,-3377.3869 -0.349,2.0134" />
  <path d="m 13100.32,-3374.9802 -0.64,-2.3864" />
  <path d="m 13202.29,-3373.5199 v 0" />
  <path d="m 13247.44,-3373.2601 v 0" />
  <path d="m 13046.651,-3375.3735 -2.021,2.8737" />
  <path d="m 13163.26,-3371.6534 v 0" />
  <path d="m 13213.38,-3371.3135 v 0" />
  <path d="m 13044.63,-3372.4998 -2.92,1.2531" />
  <path d="m 13269.78,-3377.6268 -3.68,6.8668" />
  <path d="m 13104.5,-3368.8469 -4.18,-6.1333" />
  <path d="m 13023.37,-3368.2602 v 0" />
  <path d="m 13040.511,-3365.7833 v 0" />
  <path d="m 13167.78,-3364.4733 -13.39,-3.2002" />
  <path d="m 13154.39,-3367.6735 -5.89,2.8999" />
  <path d="m 13266.1,-3370.76 -13.041,7.0134" />
  <path d="m 13108.58,-3363.4132 -4.08,-5.4337" />
  <path d="m 13116.54,-3361.6867 -7.96,-1.7265" />
  <path d="m 13118.451,-3361.6199 -1.911,-0.067" />
  <path d="m 13030.18,-3360.7002 v 0" />
  <path d="m 13148.5,-3364.7736 -4.05,4.0734" />
  <path d="m 13127.82,-3358.0734 -9.369,-3.5465" />
  <path d="m 13019.69,-3363.9801 18.826,4.5788 -9.967,-8.4587 13.161,-3.3867" />
  <path d="m 13144.45,-3360.7002 -1.93,3.3668" />
  <path d="m 13142.52,-3357.3334 -14.7,-0.74" />
  <path d="m 13005.031,-3356.4735 v 0" />
  <path d="m 13253.059,-3363.7466 -10.6,8.5998" />
  <path d="m 13019.69,-3363.9801 -3.239,8.4" />
  <path d="m 13016.451,-3355.5801 -0.821,1.1734" />
  <path d="m 13372.031,-3353.7601 0.869,-0.047" />
  <path d="m 13372.9,-3353.8067 1.509,0.1465" />
  <path d="m 13368.13,-3353.3867 3.901,-0.3734" />
  <path d="m 13360.091,-3351.9199 8.039,-1.4668" />
  <path d="m 13242.459,-3355.1468 -6.808,3.5267" />
  <path d="m 13173.151,-3351.6068 -5.371,-12.8665" />
  <path d="m 13374.409,-3353.6602 2.541,2.1069" />
  <path d="m 13376.95,-3351.5533 5.01,0.04" />
  <path d="m 13353.571,-3348.3601 6.52,-3.5598" />
  <path d="m 13173.801,-3347.62 -0.65,-3.9868" />
  <path d="m 13235.651,-3351.6201 -8.56,3.9001" />
  <path d="m 13015.63,-3354.4067 -11.76,7.4333" />
  <path d="m 13237.129,-3346.9666 1.521,1.0067" />
  <path d="m 13347.861,-3345.8267 5.71,-2.5334" />
  <path d="m 13234.73,-3345.2599 v 0" />
  <path d="m 13171.8,-3344.7933 2.001,-2.8267" />
  <path d="m 13227.98,-3344.6934 9.149,-2.2732" />
  <path d="m 13003.87,-3346.9734 -1.931,2.3468" />
  <path d="m 13001.939,-3344.6266 -1.939,0.01" />
  <path d="m 13381.96,-3351.5133 13.59,6.9134" />
  <path d="m 13236.54,-3343.7866 v 0" />
  <path d="m 13343.17,-3343.6935 4.691,-2.1332" />
  <path d="m 13395.55,-3344.5999 3.69,1.8398" />
  <path d="m 13399.24,-3342.7601 0.44,0.1202" />
  <path d="m 13399.68,-3342.6399 1.39,0.4532" />
  <path d="m 13344.24,-3341.9266 -0.859,-0.88" />
  <path d="m 13227.091,-3347.72 -10.511,6.1734" />
  <path d="m 13343.381,-3342.8066 -0.211,-0.8869" />
  <path d="m 13217.239,-3340.3332 10.741,-4.3602" />
  <path d="m 13238.65,-3345.9599 -0.849,7.4997" />
  <path d="m 13234.11,-3338.0733 v 0" />
  <path d="m 13401.07,-3342.1867 2.25,4.3533" />
  <path d="m 13161.63,-3337.1933 10.17,-7.6" />
  <path d="m 13235.82,-3336.9133 v 0" />
  <path d="m 13330.2,-3335.7399 v 0" />
  <path d="m 13331.05,-3335.5934 v 0" />
  <path d="m 13332.19,-3334.7401 v 0" />
  <path d="m 13149.57,-3334.6134 12.06,-2.5799" />
  <path d="m 13216.58,-3341.5466 -4.55,-0.4402 -10.84,7.5668 16.049,-5.9132" />
  <path d="m 13326.331,-3334.0332 17.909,-7.8934" />
  <path d="m 13149.609,-3333.6533 -0.04,-0.9601" />
  <path d="m 13237.801,-3338.4602 -0.242,4.8069" />
  <path d="m 13325.729,-3333.6533 0.602,-0.3799" />
  <path d="m 13237.559,-3333.6533 -0.219,0.7199" />
  <path d="m 13237.34,-3332.9334 12.43,1.7601" />
  <path d="m 13194.55,-3327.0535 v 0" />
  <path d="m 13151.72,-3326.5202 -2.111,-7.1331" />
  <path d="m 13174.21,-3325.7 v 0" />
  <path d="m 13174.21,-3325.7 0.47,0.027" />
  <path d="m 13249.77,-3331.1733 2.99,5.8265" />
  <path d="m 13177.87,-3324.5533 -26.15,-1.9669" />
  <path d="m 13325.551,-3323.7667 0.178,-9.8866" />
  <path d="m 13189.36,-3323.5134 v 0" />
  <path d="m 13236.4,-3322.4133 v 0" />
  <path d="m 13251.93,-3321.7602 v 0" />
  <path d="m 13247.71,-3321.3799 v 0" />
  <path d="m 13024.721,-3320.2866 1.019,0.4933" />
  <path d="m 13021.48,-3319.68 1.66,-0.1065" />
  <path d="m 13023.14,-3319.7865 1.581,-0.5001" />
  <path d="m 13226.86,-3318.8267 v 0" />
  <path d="m 13184.84,-3318.8 -6.97,-5.7533" />
  <path d="m 13236.279,-3318.7935 v 0" />
  <path d="m 13227.091,-3318.5669 v 0" />
  <path d="m 13240.12,-3318.4799 v 0" />
  <path d="m 13236.909,-3318.1 v 0" />
  <path d="m 13239.771,-3318.0401 v 0" />
  <path d="m 13183.81,-3317.5602 v 0" />
  <path d="m 13025.74,-3319.7933 1.99,2.8801" />
  <path d="m 13252.76,-3325.3468 -9.66,8.4" />
  <path d="m 13198.041,-3316.3067 v 0" />
  <path d="m 13228.909,-3316.28 v 0" />
  <path d="m 13239.529,-3316.2735 v 0" />
  <path d="m 13197.34,-3315.5334 v 0" />
  <path d="m 13232.021,-3315.1066 v 0" />
  <path d="m 13019.69,-3315.0532 1.79,-4.6268" />
  <path d="m 13231.12,-3314.8132 v 0" />
  <path d="m 13027.73,-3316.9132 7.76,2.8732" />
  <path d="m 13185.95,-3313.9198 v 0" />
  <path d="m 13316.35,-3313.5132 9.201,-10.2535" />
  <path d="m 13016.83,-3312.9868 2.86,-2.0664" />
  <path d="m 13191.02,-3312.64 -6.18,-6.16" />
  <path d="m 13012.23,-3312.3135 4.6,-0.6733" />
  <path d="m 13242.54,-3311.1801 v 0" />
  <path d="m 13035.49,-3314.04 4.12,3.2402" />
  <path d="m 13241.24,-3310.2066 v 0" />
  <path d="m 13231.79,-3310.1734 v 0" />
  <path d="m 13189.18,-3310.0468 v 0" />
  <path d="m 13200.33,-3309.7198 v 0" />
  <path d="m 13199.68,-3308.7666 v -0.5466" />
  <path d="m 13039.61,-3310.7998 1.39,2.2064" />
  <path d="m 13199.68,-3307.7934 v -0.9732" />
  <path d="m 13041,-3308.5934 0.65,1.4202" />
  <path d="m 13200.18,-3306.9801 -0.5,-0.8133" />
  <path d="m 13199.68,-3309.3132 -8.66,-3.3268" />
  <path d="m 13199.68,-3305.6133 0.5,-1.3668" />
  <path d="m 13243.1,-3316.9468 0.07,11.6509" />
  <path d="m 13016.83,-3305.1666 -4.6,-7.1469" />
  <path d="m 13309.489,-3304.4399 6.861,-9.0733" />
  <path d="m 13192.191,-3302.6733 7.489,-2.94" />
  <path d="m 13243.167,-3305.2959 -5.397,3.0292" />
  <path d="m 13237.77,-3302.2667 12.421,1.4732" />
  <path d="m 13191.11,-3300.7332 v 0" />
  <path d="m 13041.65,-3307.1732 -0.331,6.8867" />
  <path d="m 13192.41,-3298.0267 v 0" />
  <path d="m 13299.77,-3298.0133 9.719,-6.4266" />
  <path d="m 13299.68,-3296.4802 0.09,-1.5331" />
  <path d="m 13195.41,-3296.4733 v 0" />
  <path d="m 13193.31,-3296.2601 -1.119,-6.4132" />
  <path d="m 13020.27,-3295.6932 -3.44,-9.4734" />
  <path d="m 13250.191,-3300.7935 -3.182,3.8136" />
  <path d="m 13207.28,-3295.3068 v 0" />
  <path d="m 13021.73,-3295.0535 v 0" />
  <path d="m 13199.68,-3294.9135 v -0.473" />
  <path d="m 13199.68,-3294.8334 v -0.08" />
  <path d="m 13299.68,-3294.6667 v -1.8135" />
  <path d="m 13299.68,-3294.2265 v -0.4402" />
  <path d="m 13041.319,-3300.2865 2.4,6.0799" />
  <path d="m 13199.68,-3294.0132 v -0.8202" />
  <path d="m 13243.601,-3293.9869 v 0" />
  <path d="m 13199.68,-3295.3865 -6.37,-0.8736" />
  <path d="m 13199.68,-3293.7466 v -0.2666" />
  <path d="m 13240.27,-3293.3468 v 0" />
  <path d="m 13208.46,-3293.2735 -8.78,-0.4731" />
  <path d="m 13299.68,-3293.1202 v -1.1063" />
  <path d="m 13242.931,-3292.9066 v 0" />
  <path d="m 13299.68,-3292.9001 v -0.2201" />
  <path d="m 13299.68,-3292.6666 v -0.2335" />
  <path d="m 13299.68,-3292.5667 v -0.1" />
  <path d="m 13299.68,-3292.3599 v -0.2068" />
  <path d="m 13270.46,-3291.9868 v 0" />
  <path d="m 13266.37,-3291.7065 v 0" />
  <path d="m 13300.624,-3291.6107 -0.944,-0.7492" />
  <path d="m 13265.68,-3291.4265 v 0" />
  <path d="m 13204.73,-3291.42 v 0" />
  <path d="m 13253.51,-3293.9533 11.95,1.4667" />
  <path d="m 13300.821,-3291.1732 -0.197,-0.4375" />
  <path d="m 13253.76,-3291.1469 v 0" />
  <path d="m 13256.32,-3291.0465 v 0" />
  <path d="m 13269.56,-3291.0069 v 0" />
  <path d="m 13015.93,-3290.6868 4.34,-5.0064" />
  <path d="m 13199.68,-3291.0133 8.78,-2.2602" />
  <path d="m 13043.719,-3294.2066 3.83,3.7201" />
  <path d="m 13247.009,-3296.9799 6.501,3.0266" />
  <path d="m 13201.48,-3289.0335 -1.8,-0.7465" />
  <path d="m 13199.68,-3289.78 v -1.2333" />
  <path d="m 13202.21,-3288.7798 v 0" />
  <path d="m 13047.549,-3290.4865 3.621,1.8131" />
  <path d="m 13203.45,-3288.0535 -0.459,-0.04" />
  <path d="m 13010.55,-3287.9131 5.38,-2.7737" />
  <path d="m 13202.991,-3288.0932 0.459,0.04" />
  <path d="m 13199.68,-3287.7998 1.8,-1.2337" />
  <path d="m 13265.46,-3292.4866 4.95,3.6866" />
  <path d="m 13299.68,-3287.1666 1.141,-4.0066" />
  <path d="m 13031.86,-3286.66 -5.96,-0.5001" />
  <path d="m 13025.9,-3287.1601 -5.43,1.9802" />
  <path d="m 13051.17,-3288.6734 1.709,3.6133" />
  <path d="m 13012.07,-3284.5531 -1.52,-3.36" />
  <path d="m 13000,-3284.7435 0.771,0.1102" />
  <path d="m 13015.53,-3284.2735 -0.599,-0.4463" />
  <path d="m 13052.879,-3285.0601 4.19,0.2003" />
  <path d="m 13014.931,-3284.7198 -2.861,0.1667" />
  <path d="m 13015.75,-3284.0801 -0.22,-0.1934" />
  <path d="m 13020.47,-3285.1799 -4.72,1.0998" />
  <path d="m 13000.771,-3284.6333 -0.771,0.8996" />
  <path d="m 13034.959,-3282.9132 -3.099,-3.7468" />
  <path d="m 13199.68,-3282.0534 v -1.7666" />
  <path d="m 13199.68,-3283.82 v -3.9798" />
  <path d="m 13248.16,-3279.6333 v 0" />
  <path d="m 13014.3,-3279.6066 2.601,0.2067" />
  <path d="m 13012.401,-3278.7933 1.899,-0.8133" />
  <path d="m 13299.68,-3278.6465 v -8.5201" />
  <path d="m 13005.589,-3278.1067 6.812,-0.6866" />
  <path d="m 13016.901,-3279.3999 1.908,2.3865" />
  <path d="m 13191.11,-3276.9268 v 0" />
  <path d="m 13261.79,-3276.58 v 0" />
  <path d="m 13037.18,-3276.0933 v 0" />
  <path d="m 13000,-3276.0838 5.589,-2.0229" />
  <path d="m 13270.41,-3288.8 -7.609,12.4267 15.779,0.7" />
  <path d="m 13000.63,-3275.1999 v 0" />
  <path d="m 13188.51,-3274.5667 11.17,-7.4867" />
  <path d="m 13260.201,-3274.4598 v 0" />
  <path d="m 13037.221,-3273.7267 -2.262,-9.1865" />
  <path d="m 13248.3,-3273.42 v 0" />
  <path d="m 13278.58,-3275.6733 21.1,3.0865" />
  <path d="m 13299.68,-3272.5868 v -6.0597" />
  <path d="m 13057.069,-3284.8598 3.731,13.3197" />
  <path d="m 13192.461,-3271.4935 v 0" />
  <path d="m 13034.47,-3270.8534 2.751,-2.8733" />
  <path d="m 13254.26,-3270.2267 v 0" />
  <path d="m 13018.809,-3277.0134 -1.739,7.7335" />
  <path d="m 13184.441,-3268.0935 v 0" />
  <path d="m 13034.36,-3267.1932 0.11,-3.6602" />
  <path d="m 13017.07,-3269.2799 -4.111,2.2931" />
  <path d="m 13033.27,-3266.9868 1.09,-0.2064" />
  <path d="m 13060.8,-3271.5401 -6.669,4.5533" />
  <path d="m 13179.1,-3266.9868 9.41,-7.5799" />
  <path d="m 13182.091,-3266.9868 h -1.322" />
  <path d="m 13179.01,-3266.2933 0.09,-0.6935" />
  <path d="m 13180.769,-3266.9868 h 1.322" />
  <path d="m 13012.959,-3266.9868 -0.149,1.4534" />
  <path d="m 13054.131,-3266.9868 -4.271,1.6136" />
  <path d="m 13182.17,-3265.3603 v 0" />
  <path d="m 13025.89,-3265.2534 0.54,0.027" />
  <path d="m 13030.1,-3265.1535 3.17,-1.8333" />
  <path d="m 13026.43,-3265.2267 3.67,0.073" />
  <path d="m 13058.659,-3262.2803 7.251,-0.9533" />
  <path d="m 13012.81,-3265.5334 4.091,4.0065" />
  <path d="m 13065.91,-3263.2336 -0.59,1.9402" />
  <path d="m 13065.32,-3261.2934 -2.37,-0.9602" />
  <path d="m 13049.86,-3265.3732 8.799,3.0929" />
  <path d="m 13020.72,-3260.4336 5.17,-4.8198" />
  <path d="m 13062.95,-3262.2536 0.25,2.0535" />
  <path d="m 13034.05,-3259.9201 v 0" />
  <path d="m 13044.89,-3259.4002 v 0" />
  <path d="m 13047.06,-3259.2934 v 0" />
  <path d="m 13016.901,-3261.5269 3.819,1.0933" />
  <path d="m 13038.22,-3257.9666 v 0" />
  <path d="m 13048.7,-3257.6267 v 0" />
  <path d="m 13063.2,-3260.2001 -4.31,3.0933" />
  <path d="m 13045.43,-3256.6868 v 0" />
  <path d="m 13010.431,-3254.9801 v 0" />
  <path d="m 13042.23,-3254.6066 v 0" />
  <path d="m 13038.91,-3254.2934 v 0" />
  <path d="m 13019.321,-3253.9867 v 0" />
  <path d="m 13046.381,-3253.9799 v 0" />
  <path d="m 13041.75,-3253.8334 v 0" />
  <path d="m 13040.14,-3253.5732 v 0" />
  <path d="m 13043.761,-3253.1666 v 0" />
  <path d="m 13043.34,-3252.8465 v 0" />
  <path d="m 13037.32,-3252.7332 v 0" />
  <path d="m 13042.61,-3252.0802 v 0" />
  <path d="m 13019.591,-3250.6332 -7.891,-3.7136" />
  <path d="m 13172.72,-3249.6468 6.29,-16.6465" />
  <path d="m 13044,-3249.0467 -5.02,-1.0933" />
  <path d="m 13048.95,-3248.3665 v 0" />
  <path d="m 13170.27,-3247.2935 v 0" />
  <path d="m 13038.98,-3250.14 -14.259,3.2997" />
  <path d="m 13166.55,-3246.4333 v 0" />
  <path d="m 13172.94,-3246.3135 v 0" />
  <path d="m 13164.96,-3245.7333 7.76,-3.9135" />
  <path d="m 13024.721,-3246.8403 -5.13,-3.7929" />
  <path d="m 13011.7,-3254.3468 -9.98,10.44" />
  <path d="m 13041,-3241.4333 3,-7.6134" />
  <path d="m 13058.89,-3257.1068 -5.19,16.0935" />
  <path d="m 13001.72,-3243.9068 -1.72,3.1288" />
  <path d="m 13022.909,-3240.3599 v 0" />
  <path d="m 13035.33,-3240.48 -0.31,0.2533" />
  <path d="m 13000,-3240.3015 v 0.2067" />
  <path d="m 13023.18,-3239.92 v 0" />
  <path d="m 13035.02,-3240.2267 -0.39,0.42" />
  <path d="m 13029.311,-3240.0066 6.019,-0.4734" />
  <path d="m 13025.169,-3238.7535 4.142,-1.2531" />
  <path d="m 13040.63,-3238.7135 v 0" />
  <path d="m 13032.66,-3238.5799 v 0" />
  <path d="m 13019.791,-3238.94 5.378,0.1865" />
  <path d="m 13033.63,-3238.3865 v 0" />
  <path d="m 13034.63,-3239.8067 6.37,-1.6266" />
  <path d="m 13031.889,-3237.0335 v 0" />
  <path d="m 13041.901,-3236.7268 v 0" />
  <path d="m 13030.47,-3236.6802 v 0" />
  <path d="m 13022.99,-3236.5532 v 0" />
  <path d="m 13034.74,-3236.0668 v 0" />
  <path d="m 13035.8,-3235.1067 v 0" />
  <path d="m 13030.91,-3233.9134 v 0" />
  <path d="m 13021.091,-3233.6533 v 0" />
  <path d="m 13028.74,-3233.6533 v 0" />
  <path d="m 13053.7,-3241.0133 -7.29,8.3866" />
  <path d="m 13029.93,-3232.2533 v 0" />
  <path d="m 13015.311,-3232.1667 4.48,-6.7733" />
  <path d="m 13159.19,-3230.6534 5.77,-15.0799" />
  <path d="m 13000,-3230.6381 1.01,-0.5154" />
  <path d="m 13030.17,-3230.3867 v 0" />
  <path d="m 13002.49,-3228.82 -0.47,-1.2936" />
  <path d="m 13002.02,-3230.1136 -2.02,1.3702" />
  <path d="m 13004.82,-3228.9268 -1.93,0.2403" />
  <path d="m 13005.83,-3227.8934 -1.01,-1.0334" />
  <path d="m 13001.01,-3231.1535 4.82,3.2601" />
  <path d="m 13046.41,-3232.6267 -0.11,4.9736" />
  <path d="m 13002.89,-3228.6865 -0.4,-0.1335" />
  <path d="m 13011.94,-3227.4265 3.371,-4.7402" />
  <path d="m 13013.57,-3226.2135 v 0" />
  <path d="m 13018.06,-3226.1799 v 0" />
  <path d="m 13021.42,-3225.0267 v 0" />
  <path d="m 13022.701,-3224.6399 v 0" />
  <path d="m 13018.14,-3224.0135 v 0" />
  <path d="m 13157.25,-3223.7667 1.94,-6.8867" />
  <path d="m 13046.3,-3227.6531 -3.04,4.7195" />
  <path d="m 13016.901,-3222.5735 v 0" />
  <path d="m 13017.86,-3222.5266 v 0" />
  <path d="m 13021.561,-3222.3934 v 0" />
  <path d="m 13000,-3223.4848 v 1.4572" />
  <path d="m 13020.38,-3220.4266 v 0" />
  <path d="m 13036.24,-3219.4401 v 0" />
  <path d="m 13007.08,-3219.4 v 0" />
  <path d="m 13000,-3219.0254 11.94,-8.4011" />
  <path d="m 13001.289,-3218.2869 v 0" />
  <path d="m 13004.77,-3217.4065 v 0" />
  <path d="m 13043.26,-3222.9336 -7.26,6.1535" />
  <path d="m 13005.211,-3216.1999 v 0" />
  <path d="m 13154.291,-3215.7135 2.959,-8.0532" />
  <path d="m 13004.61,-3215.6666 v 0" />
  <path d="m 13004.469,-3215.3332 v 0" />
  <path d="m 13026.26,-3211.8801 -3.019,-0.8999" />
  <path d="m 13028.45,-3210.8665 -2.19,-1.0136" />
  <path d="m 13036,-3216.7801 -5.839,6.0135" />
  <path d="m 13030.161,-3210.7666 -1.711,-0.1" />
  <path d="m 13014.69,-3220.5002 0.29,10.6602" />
  <path d="m 13014.98,-3209.84 -0.29,-10.6602" />
  <path d="m 13151.939,-3208.6933 2.352,-7.0202" />
  <path d="m 13015.66,-3208.58 v 0" />
  <path d="m 13150.07,-3203.3932 1.869,-5.3001" />
  <path d="m 13016.08,-3203.22 v 0" />
  <path d="m 13016.451,-3202.1133 v 0" />
  <path d="m 13023.241,-3212.78 -5.532,12.4599" />
  <path d="m 13149.03,-3200.3201 1.04,-3.0731" />
  <path d="m 13148.3,-3198.0133 0.73,-2.3068" />
  <path d="m 13017.709,-3200.3201 4.21,7.4868" />
  <path d="m 13021.919,-3192.8333 -3.959,14.9532" />
  <path d="m 13147.25,-3173.7 v 0" />
  <path d="m 13146.741,-3172.0865 1.559,-25.9268" />
  <path d="m 13064.349,-3171.8534 2.771,-0.9133" />
  <path d="m 13067.12,-3172.7667 7.25,1.8868" />
  <path d="m 13071.32,-3169.8933 v 0" />
  <path d="m 13017.96,-3177.8801 10.369,8.4667" />
  <path d="m 13074.37,-3170.8799 5.4,2.1267" />
  <path d="m 13061.05,-3167.26 3.299,-4.5934" />
  <path d="m 13028.329,-3169.4134 3.141,3.5866" />
  <path d="m 13079.77,-3168.7532 0.24,5.5799" />
  <path d="m 13031.47,-3165.8268 1.6,4.1601" />
  <path d="m 13072.09,-3161.4267 v 0" />
  <path d="m 13068.15,-3162.4666 -7.04,5.6732" />
  <path d="m 13080.01,-3163.1733 -9.44,7.4865" />
  <path d="m 13070.57,-3155.6868 -2.42,-6.7798" />
  <path d="m 13033.07,-3161.6667 0.1,6.1466" />
  <path d="m 13138.13,-3154.5868 8.611,-17.4997" />
  <path d="m 13061.11,-3156.7934 8.63,1.2669" />
  <path d="m 13141.721,-3151.1801 v 0" />
  <path d="m 13051.759,-3150.3201 9.291,-16.9399" />
  <path d="m 13138.811,-3150.0933 v 0" />
  <path d="m 13138.24,-3149.3732 -0.11,-5.2136" />
  <path d="m 13033.17,-3155.5201 -1.96,6.4734" />
  <path d="m 13138.98,-3147.3267 v 0" />
  <path d="m 13107.39,-3145.54 8.56,-0.6199" />
  <path d="m 13137.72,-3144.8801 v 0" />
  <path d="m 13031.21,-3149.0467 -2.099,4.3066" />
  <path d="m 13106.05,-3144.5133 1.34,-1.0267" />
  <path d="m 13052.02,-3143.3933 -0.261,-6.9268" />
  <path d="m 13111.771,-3142.5266 v 0" />
  <path d="m 13069.74,-3155.5265 6.191,14.1532" />
  <path d="m 13029.111,-3144.7401 -5.622,3.7201" />
  <path d="m 13023.489,-3141.02 -2.369,0.5865" />
  <path d="m 13101.99,-3139.46 4.06,-5.0533" />
  <path d="m 13021.12,-3140.4335 -2.28,3.6736" />
  <path d="m 13103.45,-3136.7599 -0.999,0.4732" />
  <path d="m 13103.45,-3136.7599 -0.999,0.4732" />
  <path d="m 13115.95,-3146.1599 17.709,10.0866 4.581,-13.2999" />
  <path d="m 13101.469,-3135.8467 0.521,-3.6133" />
  <path d="m 13016.161,-3135.0334 v 0" />
  <path d="m 13018.84,-3136.7599 2.051,2.0732" />
  <path d="m 13020.891,-3134.6867 v 0.3134" />
  <path d="m 13020.891,-3134.3733 -0.351,0.72" />
  <path d="m 13055.91,-3133.6533 -3.89,-9.74" />
  <path d="m 13075.931,-3141.3733 4.249,7.72" />
  <path d="m 13108.119,-3133.6533 -6.65,-2.1934" />
  <path d="m 13109.11,-3133.4534 -0.991,-0.1999" />
  <path d="m 13058.321,-3130.4066 -2.411,-3.2467" />
  <path d="m 13080.18,-3133.6533 -0.959,4.1068" />
  <path d="m 13067.529,-3127.22 v 0" />
  <path d="m 13036.771,-3125.1667 4.219,-0.1133" />
  <path d="m 13020.54,-3133.6533 5.58,8.0599" />
  <path d="m 13026.12,-3125.5934 10.651,0.4267" />
  <path d="m 13079.221,-3129.5465 -2.53,7.0531" />
  <path d="m 13063.89,-3121.6 -5.569,-8.8066" />
  <path d="m 13040.99,-3125.28 9.761,3.9734" />
  <path d="m 13099.68,-3118.7067 9.43,-14.7467" />
  <path d="m 13050.751,-3121.3066 5.519,3.7466" />
  <path d="m 13056.27,-3117.56 7.62,-4.04" />
  <path d="m 13076.691,-3122.4934 -3.591,10.7468" />
  <path d="m 13090.021,-3111.2867 9.659,-7.42" />
  <path d="m 13067.21,-3099.5733 v 0" />
  <path d="m 13073.1,-3111.7466 -7.809,4.8067 0.769,7.5199 23.961,-11.8667" />
  <path d="m 13033.861,-3080.2401 v 0" />
  <path d="m 13044.2,-3080.0333 v 0" />
  <path d="m 13027.73,-3077.2266 v 0" />
  <path d="m 13085.08,-3072.5332 v 0" />
  <path d="m 13099.68,-3074.3532 -5.71,7.3665" />
  <path d="m 13105.51,-3066.9867 0.01,-16.92 -5.841,9.5535" />
  <path d="m 13093.97,-3066.9867 0.86,3.4666" />
  <path d="m 13103.2,-3058.7 2.31,-8.2867" />
  <path d="m 13099.68,-3054.4134 3.52,-4.2866" />
  <path d="m 13094.83,-3063.5201 -6.79,15.3933" />
  <path d="m 13096.24,-3045.22 3.44,-9.1934" />
  <path d="m 13020.95,-3042.1467 v 0" />
  <path d="m 13096.88,-3041.9867 v 0" />
  <path d="m 13088.04,-3048.1268 -0.909,13.6868 9.109,-10.78" />
  <path d="m 13066.971,-3037.2467 -17.291,-9.66 -9,16.58" />
  <path d="m 13040.68,-3030.3267 14.78,7.2533 11.511,-14.1733" />
  <path d="m 12990.889,-3000 h 0.868" />
  <path d="m 12954.25,-2989.2601 v 0" />
  <path d="m 12961.909,-2987.66 v 0" />
  <path d="m 12987.18,-2981.6067 v 0" />
  <path d="m 12953.529,-2967.5865 v 0" />
  <path d="m 12970.59,-2960.22 v 0" />
  <path d="m 12960.361,-2944.4532 v 0" />
  <path d="m 12934.261,-2922.44 v 0" />
  <path d="m 12932.6,-2921.7934 v 0" />
  <path d="m 12921.97,-2912.6734 v 0" />
  <path d="m 12900.04,-2882.72 v 0" />
  <path d="m 12899.68,-2879.1933 v -1.3933" />
  <path d="m 12899.68,-2880.5866 v 1.3933" />
  <path d="m 12963.271,-2840.5733 3.138,0.7999 5.381,-4.22 -3,-8.9866 -4.261,9.6401" />
  <path d="m 14127.82,-2541.7732 v 0" />
  <path d="m 13606.92,-2042.3935 h -0.02" />
  <path d="m 14128.42,-2475.1467 v 0" />
  <path d="m 14145.99,-2422.3932 v 0" />
  <path d="m 15398.19,-2428.4134 v 0" />
</g>
</svg>