<?xml version="1.0" encoding="UTF-8"?>
<svg  xmlns="http://www.w3.org/2000/svg" xmlns:xlink="http://www.w3.org/1999/xlink" viewBox="12737.53337, -2855.545188, 659.2878, 631.5991" xmlns:go="http://purl.org/svgmap/profile"  xmlns:rdf="http://www.w3.org/1999/02/22-rdf-syntax-ns#" xmlns:dc="http://purl.org/dc/elements/1.1/" property="id,type,latitude,longitude,title,address,spec" >
 <globalCoordinateSystem srsName="http://purl.org/crs/84" transform="matrix(100,0,0,-100,0,0)" />
<!-- 海岸線の描画プロパティの設定 -->
<g style="stroke: #000000" fill="none" fill-rule="evenodd" stroke="red" stroke-width="1" opacity="1" vector-effect="non-scaling-stroke" stroke-linejoin="bevel" visibleMaxZoom="500">
<!-- 実際の海岸線データ -->
  <path d="m 12964.529,-2843.3399 -10.519,-2.5667" />
  <path d="m 12963.271,-2840.5733 3.138,0.7999 5.381,-4.22 -3,-8.9866 -4.261,9.6401" />
  <path d="m 12954.01,-2845.9066 -14.63,7.46" />
  <path d="m 13000,-2836.5114 -0.32,-0.082" />
  <path d="m 12956.97,-2834.4934 6.301,-6.0799" />
  <path d="m 12939.38,-2838.4466 -13.64,6.1132" />
  <path d="m 12999.68,-2831.6534 0.32,-0.6466" />
  <path d="m 12956.97,-2834.4934 -8.33,5.54" />
  <path d="m 12920.731,-2828.2135 v 0" />
  <path d="m 12999.68,-2836.5932 v 4.9398" />
  <path d="m 12925.74,-2832.3334 -12.34,6.9201" />
  <path d="m 12942.86,-2819.2867 5.78,-9.6667" />
  <path d="m 12916.93,-2819.1067 v 0" />
  <path d="m 12914.909,-2812.7001 v 0" />
  <path d="m 12926.242,-2812.8101 -6.842,-1.6966" />
  <path d="m 12942.86,-2819.2867 -29.46,-6.1266" />
  <path d="m 12917.31,-2810.9068 v 0" />
  <path d="m 12919.4,-2814.5067 6.842,1.6966" />
  <path d="m 12927.699,-2801.9135 v 0" />
  <path d="m 12914.81,-2801.3332 v 0" />
  <path d="m 12925.69,-2800.5068 v 0" />
  <path d="m 12925.371,-2800.0732 v 0" />
  <path d="m 12823.331,-2785.9867 v 0" />
  <path d="m 12899.68,-2780.16 -8.989,-9.0333" />
  <path d="m 12890.691,-2789.1933 -0.492,13.94" />
  <path d="m 12899.699,-2769.5133 -0.02,-10.6467" />
  <path d="m 12899.68,-2768.4866 0.02,-1.0267" />
  <path d="m 12890.199,-2775.2533 9.481,6.7667" />
  <path d="m 12862.27,-2736.1465 8.96,-7.2936 -13.601,3.3867" />
  <path d="m 12857.629,-2740.0534 -3.399,6.4001" />
  <path d="m 12859.151,-2733.6533 3.119,-2.4932" />
  <path d="m 12854.23,-2733.6533 h 4.921" />
  <path d="m 12799.68,-2706.7467 v -2.0733" />
  <path d="m 12799.68,-2706.1335 v -0.6132" />
  <path d="m 12799.68,-2705.8468 v -0.2867" />
  <path d="m 12844.26,-2701.86 v 0" />
  <path d="m 12799.68,-2708.82 v 2.9732" />
  <path d="m 12792,-2698.8934 v 0" />
  <path d="m 12794.92,-2697.2668 v 0" />
  <path d="m 12793.84,-2691.0601 v 0" />
  <path d="m 12792.95,-2689.1001 v 0" />
  <path d="m 12833.389,-2674.4734 v 0" />
  <path d="m 12780.61,-2670.54 v 0" />
  <path d="m 12801.97,-2669.4334 v 0" />
  <path d="m 12799.68,-2669.0067 -7.98,-1.1267" />
  <path d="m 12799.68,-2667.7334 v -1.2733" />
  <path d="m 12791.7,-2670.1334 -2.88,3.1467" />
  <path d="m 12799.15,-2666.9867 0.53,-0.7467" />
  <path d="m 12799.68,-2667.0067 -0.33,0.02" />
  <path d="m 12802.069,-2666.9867 -2.389,-0.02" />
  <path d="m 12815.34,-2671.66 -4.959,4.6733" />
  <path d="m 12810.62,-2666.9867 h 0.7" />
  <path d="m 12826.93,-2666.9867 -0.52,-20.2199 -11.07,15.5466" />
  <path d="m 12810.381,-2666.9867 h 0.239" />
  <path d="m 12826.331,-2666.7133 0.599,-0.2734" />
  <path d="m 12810.5,-2666.6065 h -0.01" />
  <path d="m 12810.49,-2666.6065 v 0" />
  <path d="m 12799.35,-2666.9867 0.33,1.4201" />
  <path d="m 12798.73,-2664.5933 0.42,-2.3934" />
  <path d="m 12811.32,-2666.9867 -3.39,2.4802" />
  <path d="m 12799.68,-2665.5666 2.389,-1.4201" />
  <path d="m 12781.73,-2664.3734 v 0" />
  <path d="m 12799.68,-2664.2733 -0.95,-0.32" />
  <path d="m 12803.03,-2663.4933 v 0" />
  <path d="m 12786.12,-2662.8933 v 0" />
  <path d="m 12807.93,-2664.5065 -8.25,0.2332" />
  <path d="m 12788.82,-2666.9867 1.07,6.4934" />
  <path d="m 12812.74,-2659.2001 13.591,-7.5132" />
  <path d="m 12789.89,-2660.4933 2.9,7.42" />
  <path d="m 12799.62,-2650.9001 0.06,0.02" />
  <path d="m 12799.68,-2650.8801 13.06,-8.32" />
  <path d="m 12799.68,-2649.4932 -0.06,-1.4069" />
  <path d="m 12799.68,-2648.06 v -1.4332" />
  <path d="m 12794.55,-2646.4001 5.13,-1.6599" />
  <path d="m 12784.17,-2643.66 10.38,-2.7401" />
  <path d="m 12784.25,-2643.1 -0.08,-0.56" />
  <path d="m 12792.79,-2653.0733 -18.73,10.9066" />
  <path d="m 12783.98,-2640.5134 0.27,-2.5866" />
  <path d="M 12799.68,-2638.2668 V -2639.9" />
  <path d="m 12799.68,-2639.9 v 1.6332" />
  <path d="m 12774.06,-2642.1667 -0.2,5.9667" />
  <path d="m 12788.15,-2634.66 -4.17,-5.8534" />
  <path d="m 12773.86,-2636.2 0.59,2.0068" />
  <path d="m 12793.21,-2633.1133 v 0" />
  <path d="m 12783.725,-2632.9517 0.584,-0.478" />
  <path d="m 12784.309,-2633.4297 1.241,0.8035" />
  <path d="m 12785.55,-2632.6262 -1.825,-0.3255" />
  <path d="m 12792.91,-2631.2468 v 0" />
  <path d="m 12791.79,-2631.0734 -3.64,-3.5866" />
  <path d="m 12795.87,-2630.8399 v 0" />
  <path d="m 12782.77,-2630.3267 1.475,-3.1459" />
  <path d="m 12799.02,-2629.7667 v 0" />
  <path d="m 12774.45,-2634.1932 1.12,4.7533" />
  <path d="m 12791.79,-2631.0734 -7.545,-2.3992" />
  <path d="m 12781.31,-2628.94 1.46,-1.3867" />
  <path d="m 12775.57,-2629.4399 -3.16,2.4265" />
  <path d="m 12754.159,-2626.3201 v 0" />
  <path d="m 12757.87,-2626.0134 v 0" />
  <path d="m 12757.66,-2625.82 v 0" />
  <path d="m 12740.6,-2624.7267 v 0" />
  <path d="m 12767.37,-2624.5466 -0.61,-0.01" />
  <path d="m 12772.41,-2627.0134 -4.03,2.7933" />
  <path d="m 12768.38,-2624.2201 -1.01,-0.3265" />
  <path d="m 12794.17,-2624.1066 v 0" />
  <path d="m 12745.43,-2623.6935 v 0" />
  <path d="m 12778.62,-2623.1133 2.69,-5.8267" />
  <path d="m 12745.07,-2622.6267 v 0" />
  <path d="m 12776.598,-2620.8557 2.022,-2.2576" />
  <path d="m 12743.91,-2619.9667 v 0" />
  <path d="m 12776.598,-2620.8557 0.995,1.9947" />
  <path d="m 12766.76,-2624.5533 -1.64,7.0732" />
  <path d="m 12779.75,-2618.6199 -2.157,-0.2411" />
  <path d="m 12765.12,-2617.4801 1.62,2.24" />
  <path d="m 12788.35,-2615.1268 v 0" />
  <path d="m 12779.75,-2618.6199 0.55,3.8866" />
  <path d="m 12777.29,-2612.7068 v 0" />
  <path d="m 12776.08,-2612.5267 4.22,-2.2066" />
  <path d="m 12773.04,-2609.7532 3.04,-2.7735" />
  <path d="m 12766.74,-2615.2401 6.3,5.4869" />
  <path d="m 13000,-2832.3 v -4.2114" />
  <path d="m 13129.919,-2593.1067 v 0" />
  <path d="m 13122.43,-2581.5001 v 0" />
  <path d="m 14210.95,-2771.5334 v 0" />
  <path d="m 14210.271,-2771.52 v 0" />
  <path d="m 14212.64,-2767.7334 v 0" />
  <path d="m 14214.61,-2766.9867 v 0" />
  <path d="m 14215.9,-2765.4467 v 0" />
  <path d="m 14218.57,-2761.8999 v 0" />
  <path d="m 14221.28,-2748.8867 v 0" />
  <path d="m 14220.67,-2748.6 v 0" />
  <path d="m 14087.669,-2724.3534 v 0" />
  <path d="m 14219.51,-2719.1933 v 0" />
  <path d="m 14218.88,-2714.4001 v 0" />
  <path d="m 14218.201,-2712.6333 v 0" />
  <path d="m 14216.38,-2711.2135 v 0" />
  <path d="m 14222,-2710.8133 v 0" />
  <path d="m 14224.68,-2708.9468 v 0" />
  <path d="m 14218.39,-2708.5333 v 0" />
  <path d="m 14217.825,-2704.4218 v 0" />
  <path d="m 14217.566,-2704.1681 v 0" />
  <path d="m 14222.07,-2703.5267 v 0" />
  <path d="m 14217.641,-2703.0666 v 0" />
  <path d="m 14212.18,-2671.4733 v 0" />
  <path d="m 14216.231,-2666.9867 h -1.811" />
  <path d="m 14214.42,-2666.9867 h 1.811" />
  <path d="m 14212.871,-2659.4267 v 0" />
  <path d="m 14214.79,-2658.1066 v 0" />
  <path d="m 14222.8,-2656.2735 v 0" />
  <path d="m 14220.19,-2655.2 v 0" />
  <path d="m 14215.63,-2654.2334 v 0" />
  <path d="m 14127.82,-2541.7732 v 0" />
  <path d="m 12299.68,-2446.7533 v 2.9199" />
  <path d="m 12299.68,-2443.8334 v -2.9199" />
  <path d="m 13118.59,-2446.0667 v 0" />
  <path d="m 13606.92,-2042.3935 h -0.02" />
  <path d="m 14128.42,-2475.1467 v 0" />
  <path d="m 14145.99,-2422.3932 v 0" />
  <path d="m 15398.19,-2428.4134 v 0" />
</g>
</svg>