<?xml version="1.0" encoding="UTF-8"?>
<svg  xmlns="http://www.w3.org/2000/svg" xmlns:xlink="http://www.w3.org/1999/xlink" viewBox="13396.82117, -4750.342539, 659.2878, 631.5991" xmlns:go="http://purl.org/svgmap/profile"  xmlns:rdf="http://www.w3.org/1999/02/22-rdf-syntax-ns#" xmlns:dc="http://purl.org/dc/elements/1.1/" property="id,type,latitude,longitude,title,address,spec" >
 <globalCoordinateSystem srsName="http://purl.org/crs/84" transform="matrix(100,0,0,-100,0,0)" />
<!-- 海岸線の描画プロパティの設定 -->
<g style="stroke: #000000" fill="none" fill-rule="evenodd" stroke="red" stroke-width="1" opacity="1" vector-effect="non-scaling-stroke" stroke-linejoin="bevel" visibleMaxZoom="500">
<!-- 実際の海岸線データ -->
  <path d="m 14054.88,-4333.6533 h -10.221" />
  <path d="m 14060.29,-4330.7331 v 0" />
  <path d="m 14063.04,-4329.5601 -8.16,-4.0932" />
  <path d="m 14044.659,-4333.6533 -10.969,5.3868" />
  <path d="m 14033.69,-4328.2665 10.87,16.3196" />
  <path d="m 14044.56,-4311.9469 8.341,9.0668" />
  <path d="m 14052.901,-4302.8801 -0.661,3.7132" />
  <path d="m 14052.24,-4299.1669 -14.12,8.5137" />
  <path d="m 14038.12,-4290.6532 -2.23,2.8133" />
  <path d="m 14035.89,-4287.8399 -18.53,7.1133" />
  <path d="m 14017.36,-4280.7266 -17.68,11.6733" />
  <path d="m 13999.68,-4269.0533 -11.8,2.0665" />
  <path d="m 13987.88,-4266.9868 -5.54,5.6068" />
  <path d="m 14053.74,-4258.82 18.851,1.5667" />
  <path d="m 13982.34,-4261.38 1.93,18.7935" />
  <path d="m 14029.511,-4237.5401 24.229,-21.2799" />
  <path d="m 13984.27,-4242.5865 -7.531,12.0933" />
  <path d="m 14045.7,-4217.7467 -16.189,-19.7934" />
  <path d="m 13940.601,-4217.5667 v 0" />
  <path d="m 13976.739,-4230.4932 15.461,16.8866" />
  <path d="m 13992.2,-4213.6066 7.48,1.1402" />
  <path d="m 14062.84,-4211.9801 -17.14,-5.7666" />
  <path d="m 13999.68,-4212.4664 7.42,6.393" />
  <path d="m 13945.03,-4205.2132 10.88,-20.1069 -10.88,20.1069" />
  <path d="m 14007.1,-4206.0734 4.96,5.7533" />
  <path d="m 14012.06,-4200.3201 1.23,5.0068" />
  <path d="m 14013.29,-4195.3133 -0.959,12.7201" />
  <path d="m 14055.591,-4172.34 15.41,-8.5865" />
  <path d="m 14043.491,-4165.9668 12.1,-6.3732" />
  <path d="m 14012.331,-4182.5932 -12.651,18.5597" />
  <path d="m 13999.68,-4164.0335 -0.3,0.9468" />
  <path d="m 13999.38,-4163.0867 0.3,8.9333" />
  <path d="m 14040.9,-4151.7265 2.591,-14.2403" />
  <path d="m 13934.081,-4149.5731 v 0" />
  <path d="m 14020.52,-4140.5399 20.38,-11.1866" />
  <path d="m 13999.68,-4154.1534 20.84,13.6135" />
  <path d="m 13979.97,-4135.3466 v 0" />
  <path d="m 14044.91,-4118.9331 -10.669,-6.0337" />
  <path d="m 14059.419,-4121.6999 -14.509,2.7668" />
  <path d="m 14034.241,-4124.9668 -3.63,14.2536" />
  <path d="m 14063.48,-4108.1467 -4.061,-13.5532" />
  <path d="m 13606.92,-2042.3935 h -0.02" />
  <path d="m 15398.19,-2428.4134 v 0" />
</g>
</svg>