<?xml version="1.0" encoding="UTF-8"?>
<svg  xmlns="http://www.w3.org/2000/svg" xmlns:xlink="http://www.w3.org/1999/xlink" viewBox="13396.82117, -4118.743422, 659.2878, 631.5991" xmlns:go="http://purl.org/svgmap/profile"  xmlns:rdf="http://www.w3.org/1999/02/22-rdf-syntax-ns#" xmlns:dc="http://purl.org/dc/elements/1.1/" property="id,type,latitude,longitude,title,address,spec" >
 <globalCoordinateSystem srsName="http://purl.org/crs/84" transform="matrix(100,0,0,-100,0,0)" />
<!-- 海岸線の描画プロパティの設定 -->
<g style="stroke: #000000" fill="none" fill-rule="evenodd" stroke="blue" stroke-width="1" opacity="1" vector-effect="non-scaling-stroke" stroke-linejoin="bevel" visibleMaxZoom="500">
<!-- 実際の海岸線データ -->
  <path d="m 14044.91,-4118.9331 -10.669,-6.0337" />
  <path d="m 14059.419,-4121.6999 -14.509,2.7668" />
  <path d="m 14034.241,-4124.9668 -3.63,14.2536" />
  <path d="m 14063.48,-4108.1467 -4.061,-13.5532" />
  <path d="m 14030.611,-4110.7132 1.259,10.6731" />
  <path d="m 14031.87,-4100.0401 -1.65,8.3001" />
  <path d="m 14030.22,-4091.74 -5.2,11.6333" />
  <path d="m 14025.02,-4080.1067 -10.55,4.8599" />
  <path d="m 14014.47,-4075.2468 -14.79,1.6537" />
  <path d="m 13994.07,-4066.9868 h -0.32" />
  <path d="m 13999.68,-4073.5931 -4.87,6.6063" />
  <path d="m 13994.81,-4066.9868 h -0.74" />
  <path d="m 13993.75,-4066.9868 -7.15,8.0402" />
  <path d="m 13986.6,-4058.9466 7.04,16.0801" />
  <path d="m 13993.64,-4042.8665 6.04,4.7729" />
  <path d="m 13999.68,-4038.0936 2.87,5.587" />
  <path d="m 14002.55,-4032.5066 -0.991,5.9464" />
  <path d="m 13999.68,-4021.32 v 0.2602" />
  <path d="m 14001.559,-4026.5602 -1.879,5.2402" />
  <path d="m 13999.68,-4021.0598 v 0.4932" />
  <path d="m 13999.68,-4020.5666 -2.41,7.9998" />
  <path d="m 13997.27,-4012.5668 -2.71,5.2136" />
  <path d="m 13969.89,-4001.3268 v 0" />
  <path d="m 13970.621,-4000.3201 h -0.691" />
  <path d="m 13994.56,-4007.3532 -5.7,7.0331" />
  <path d="m 13988.86,-4000.3201 -0.03,0.027" />
  <path d="m 13969.93,-4000.3201 -0.213,0.3201" />
  <path d="m 13970.825,-4000 -0.204,-0.3201" />
  <path d="m 13988.831,-4000.2934 -0.348,0.2934" />
  <path d="m 13500,-3569.2566 -0.32,0.09" />
  <path d="m 13467.05,-3566.1266 v 0" />
  <path d="m 13481.59,-3566.0332 -8.349,0.1999" />
  <path d="m 13499.68,-3569.1666 -4.67,3.5668" />
  <path d="m 13495.01,-3565.5998 -8.3,-0.2068" />
  <path d="m 13486.71,-3565.8066 -5.12,-0.2266" />
  <path d="m 13473.241,-3565.8333 -21.592,-0.8266" />
  <path d="m 13451.649,-3566.6599 -14.698,5.2002" />
  <path d="m 13436.951,-3561.4597 -9.221,4.1732" />
  <path d="m 13427.73,-3557.2865 -4.711,2.6066" />
  <path d="m 13423.019,-3554.6799 -12.889,2.0001" />
  <path d="m 13401.311,-3552.9266 -1.631,0.4932" />
  <path d="m 13399.68,-3552.4334 -3.209,0.1335" />
  <path d="m 13410.13,-3552.6798 -8.819,-0.2468" />
  <path d="m 13988.483,-4000 h -17.658" />
  <path d="m 13994.228,-3989.2906 0.979,0.4455" />
  <path d="m 13995.207,-3988.8451 1.573,0.8252" />
  <path d="m 13969.717,-4000 5.813,14.2864 18.698,-3.577" />
  <path d="m 13996.78,-3988.0199 2.9,2.3201" />
  <path d="m 13999.68,-3985.6998 0.32,0.3578" />
  <path d="m 14000,-3935.0166 -0.32,0.7698" />
  <path d="m 13999.68,-3934.2468 -0.35,0.5935" />
  <path d="m 13999.33,-3933.6533 -1.28,2.3068" />
  <path d="m 13998.05,-3931.3465 -6.369,3.7132" />
  <path d="m 13991.681,-3927.6333 -1.26,4.8466" />
  <path d="m 13954.41,-3918.1931 v 0" />
  <path d="m 13990.421,-3922.7867 -3.441,10.9268" />
  <path d="m 13986.98,-3911.8599 -2.939,13.3133" />
  <path d="m 13984.041,-3898.5466 -7.871,18.4933" />
  <path d="m 13976.17,-3880.0533 -14.68,12.5801" />
  <path d="m 13961.49,-3867.4732 -0.27,0.4864" />
  <path d="m 13961.22,-3866.9868 -6.4,11.647" />
  <path d="m 13922.24,-3843.6935 v 0" />
  <path d="m 13954.82,-3855.3398 -9.73,19.3397" />
  <path d="m 13848.48,-3833.2668 v 0" />
  <path d="m 13945.09,-3836.0001 -2.5,18.4868" />
  <path d="m 13942.59,-3817.5133 -1.559,2.2465" />
  <path d="m 13823.97,-3808.3733 v 0" />
  <path d="m 13941.031,-3815.2668 -9.651,10.3203" />
  <path d="m 13931.38,-3804.9465 -2.559,1.8398" />
  <path d="m 13843.98,-3827.2999 -20.629,26.9798" />
  <path d="m 13827.44,-3800.3201 h 3.67" />
  <path d="m 13853.9,-3800.3201 -9.92,-26.9798" />
  <path d="m 13928.821,-3803.1067 -5.38,2.7866" />
  <path d="m 13923.441,-3800.3201 -0.96,1.1136" />
  <path d="m 13826.27,-3798.5668 1.17,-1.7533" />
  <path d="m 13831.11,-3800.3201 2.92,2.5002" />
  <path d="m 13922.481,-3799.2065 -8.53,2.6886" />
  <path d="m 13823.351,-3800.3201 2.919,1.7533" />
  <path d="m 13913.951,-3796.5179 -1.065,0.2384" />
  <path d="m 13850.36,-3793.8332 3.54,-6.4869" />
  <path d="m 13912.886,-3796.2795 -13.206,5.6328" />
  <path d="m 13847.031,-3789.7064 3.329,-4.1268" />
  <path d="m 13834.03,-3797.8199 -5.36,9.5665" />
  <path d="m 13899.68,-3790.6467 -10.421,5.3001" />
  <path d="m 13828.67,-3788.2534 -1.45,3.0601" />
  <path d="m 13691.38,-3784.4666 v 0" />
  <path d="m 13835.49,-3782.98 11.541,-6.7264" />
  <path d="m 13828.909,-3782.1667 6.581,-0.8133" />
  <path d="m 13827.22,-3785.1933 1.689,3.0266" />
  <path d="m 13889.259,-3785.3466 -9.259,10.1665" />
  <path d="m 13880,-3775.1801 -1.449,4.4335" />
  <path d="m 13690.19,-3760.8868 v 0" />
  <path d="m 13685.541,-3758.72 v 0" />
  <path d="m 13687.711,-3758.6735 v 0" />
  <path d="m 13878.551,-3770.7466 -5.892,12.92" />
  <path d="m 13872.659,-3757.8266 -6.649,5.4535" />
  <path d="m 13866.01,-3752.3731 -3.29,3.7998" />
  <path d="m 13708.569,-3746.6267 -8.889,4.1134" />
  <path d="m 13723.88,-3737.3531 8.87,-15.6067 -24.181,6.3331" />
  <path d="m 13699.68,-3742.5133 -21.979,5.46" />
  <path d="m 13677.701,-3737.0533 -4.001,3.4" />
  <path d="m 13726.759,-3733.6533 -2.879,-3.6998" />
  <path d="m 13846.15,-3733.6533 h -0.11" />
  <path d="m 13862.72,-3748.5733 -15.889,14.92" />
  <path d="m 13846.831,-3733.6533 h -0.681" />
  <path d="m 13846.04,-3733.6533 -4.229,2.9866" />
  <path d="m 13721.61,-3729.6799 5.149,-3.9734" />
  <path d="m 13841.811,-3730.6667 -7.041,5.7266" />
  <path d="m 13708.321,-3724.8466 13.289,-4.8333" />
  <path d="m 13673.7,-3733.6533 -4.08,11.6734" />
  <path d="m 13834.77,-3724.9401 -5.141,3.78" />
  <path d="m 13699.68,-3719.4801 8.641,-5.3665" />
  <path d="m 13688.899,-3716.9132 10.781,-2.5669" />
  <path d="m 13810.17,-3717.44 19.459,-3.7201" />
  <path d="m 13810.17,-3717.44 -3.41,2.6001" />
  <path d="m 13799.68,-3711.3068 v -0.033" />
  <path d="m 13699.68,-3711.9732 v -2.0203" />
  <path d="m 13799.68,-3711.0268 v -0.28" />
  <path d="m 13806.76,-3714.8399 -7.08,3.8131" />
  <path d="m 13689.23,-3710.2001 v 0" />
  <path d="m 13699.68,-3713.9935 v 2.0203" />
  <path d="m 13799.68,-3711.34 -5.5,3.3734" />
  <path d="m 13685.91,-3707.6466 2.989,-9.2666" />
  <path d="m 13690.581,-3707.7267 -4.671,0.08" />
  <path d="m 13669.62,-3721.9799 2.54,15.5067" />
  <path d="m 13794.18,-3707.9666 -10.96,3.8532" />
  <path d="m 13783.22,-3704.1134 -19.73,6.0803" />
  <path d="m 13672.16,-3706.4732 4.66,10.0865" />
  <path d="m 13763.49,-3698.0331 -9.23,1.913" />
  <path d="m 13705.161,-3695.9534 0.579,-14.8597 -15.159,3.0864" />
  <path d="m 13754.26,-3696.1201 -11.68,3.867" />
  <path d="m 13699.68,-3688.5201 5.481,-7.4333" />
  <path d="m 13676.82,-3696.3867 -1.049,9.7465" />
  <path d="m 13742.58,-3692.2531 -1.641,6.1333" />
  <path d="m 13675.771,-3686.6402 -0.551,1.7136" />
  <path d="m 13699.68,-3684.6066 v -3.9135" />
  <path d="m 13701.649,-3682.9601 -1.969,-1.6465" />
  <path d="m 13740.939,-3686.1198 -2.729,6.06" />
  <path d="m 13706.77,-3679.4132 -5.121,-3.5469" />
  <path d="m 13675.22,-3684.9266 -2.809,5.92" />
  <path d="m 13706.77,-3679.4132 2.849,1.9398" />
  <path d="m 13709.23,-3677.2266 0.09,-0.06" />
  <path d="m 13709.32,-3677.2865 0.299,-0.1869" />
  <path d="m 13710.319,-3676.9936 -1.089,-0.233" />
  <path d="m 13738.21,-3680.0598 -6.62,4.1733" />
  <path d="m 13717.999,-3675.7732 -7.68,-1.2204" />
  <path d="m 13731.59,-3675.8865 -13.591,0.1133" />
  <path d="m 13672.411,-3679.0066 -2.24,3.78" />
  <path d="m 13670.171,-3675.2266 -2.611,4.1267" />
  <path d="m 13667.56,-3671.0999 -0.65,0.9732" />
  <path d="m 13666.91,-3670.1267 -2.3,3.1399" />
  <path d="m 13664.61,-3666.9868 -2.679,3.1734" />
  <path d="m 13661.931,-3663.8134 -6.272,7.0202" />
  <path d="m 13655.659,-3656.7932 -5.639,5.9196" />
  <path d="m 13650.02,-3650.8736 -3.549,3.6736" />
  <path d="m 13646.471,-3647.2 -3.832,4.1733" />
  <path d="m 13642.639,-3643.0267 -5.459,4.6402" />
  <path d="m 13637.18,-3638.3865 -12.81,8.8264" />
  <path d="m 13624.37,-3629.5601 -6.09,3.7735" />
  <path d="m 13611.729,-3625.0336 v 0" />
  <path d="m 13618.28,-3625.7866 -8.299,8.4866" />
  <path d="m 13609.981,-3617.3 -8.071,11.4132" />
  <path d="m 13601.91,-3605.8868 -2.23,3.96" />
  <path d="m 13599.68,-3601.9268 -2.39,1.6067" />
  <path d="m 13597.29,-3600.3201 -0.9,0.5536" />
  <path d="m 13596.39,-3599.7665 3.29,6.2133" />
  <path d="m 13599.68,-3593.5532 v 1.6198" />
  <path d="m 13599.68,-3591.9334 v 1.3401" />
  <path d="m 13599.68,-3590.5933 v 0.5268" />
  <path d="m 13599.68,-3590.0665 v 1.3599" />
  <path d="m 13599.68,-3588.7066 1.4,1.4668" />
  <path d="m 13601.08,-3587.2398 8.71,10.6998" />
  <path d="m 13599.68,-3574.9599 -3.249,1.9397" />
  <path d="m 13523.46,-3576.8665 -16.569,5.0464" />
  <path d="m 13506.891,-3571.8201 -6.891,2.5635" />
  <path d="m 13542.31,-3567.6464 v 0" />
  <path d="m 13996.271,-3568.0733 -0.38,0.7668" />
  <path d="m 13995.891,-3567.3065 0.49,0.08" />
  <path d="m 13996.381,-3567.2264 0.779,0.1263" />
  <path d="m 13997.16,-3567.1001 -0.889,-0.9732" />
  <path d="m 13999.68,-3566.5199 0.32,-0.033" />
  <path d="m 13996.33,-3568.1534 3.35,1.6335" />
  <path d="m 13527.181,-3566.6466 -3.721,-10.2199" />
  <path d="m 14000,-3565.9618 -0.32,0.01" />
  <path d="m 13609.79,-3576.54 -3.461,10.6869 -6.649,-9.1068" />
  <path d="m 13991.83,-3565.5468 4.5,-2.6066" />
  <path d="m 13999.68,-3565.9534 0.32,0.3524" />
  <path d="m 13976.45,-3565.6067 2.501,-0.087" />
  <path d="m 13984.11,-3564.3265 0.412,0.029" />
  <path d="m 13984.522,-3564.2979 0.448,0.031" />
  <path d="m 13987.18,-3563.9332 0.109,0.08" />
  <path d="m 13984.97,-3564.2666 2.21,0.3334" />
  <path d="m 13987.289,-3563.8535 0.191,0.1267" />
  <path d="m 13985.78,-3563.5799 v 0" />
  <path d="m 13982.12,-3563.4132 v 0" />
  <path d="m 13986.7,-3563.3598 v 0" />
  <path d="m 13580.27,-3563.0402 v 0" />
  <path d="m 13976.871,-3562.6465 1.32,-0.3467" />
  <path d="m 13975.04,-3562.4866 1.41,-3.1201" />
  <path d="m 13975.94,-3562.7998 -0.591,0.3933" />
  <path d="m 13984.11,-3564.3265 -5.159,-1.3668" />
  <path d="m 13975.349,-3562.4065 0.591,-0.3933" />
  <path d="m 13977.361,-3562.0266 -0.49,-0.6199" />
  <path d="m 13987.48,-3563.7268 4.35,-1.82" />
  <path d="m 13979.491,-3561.38 v 0" />
  <path d="m 13983.549,-3561.2465 v 0" />
  <path d="m 13596.431,-3573.0202 -15.001,8.7868" />
  <path d="m 13978.191,-3562.9932 -0.83,0.9666" />
  <path d="m 13979.15,-3559.3853 v 0" />
  <path d="m 13547.819,-3559.3201 v 0" />
  <path d="m 13981.32,-3558.9535 v 0" />
  <path d="m 13974.409,-3558.9401 0.631,-3.5465" />
  <path d="m 13977.28,-3559.56 -2.33,0.6733" />
  <path d="m 13980.595,-3558.5583 v 0" />
  <path d="m 13976.672,-3557.7099 0.608,-1.8501" />
  <path d="m 13974.95,-3558.8867 1.722,1.1768" />
  <path d="m 13976.559,-3556.4865 v 0" />
  <path d="m 13581.43,-3564.2334 0.04,7.0801" />
  <path d="m 13979.46,-3553.1864 -5.051,-5.7537" />
  <path d="m 13978.979,-3552.6669 0.481,-0.5195" />
  <path d="m 13978.76,-3552.4399 0.219,-0.227" />
  <path d="m 13528.81,-3551.6266 -1.629,-15.02" />
  <path d="m 13533.89,-3549.3599 v 0" />
  <path d="m 13971.139,-3549.0601 7.621,-3.3798" />
  <path d="m 13560.611,-3549.0131 -0.391,-2.38" />
  <path d="m 13560.22,-3551.3931 -11.57,-4.4068" />
  <path d="m 13974.56,-3548.4932 v 0" />
  <path d="m 13560.451,-3548.2399 0.16,-0.7732" />
  <path d="m 13581.47,-3557.1533 -17,9.2731" />
  <path d="m 13564.47,-3547.8802 -4.019,-0.3597" />
  <path d="m 14000,-3547.5735 v 0.3907" />
  <path d="m 13972.54,-3546.9666 -1.08,-1.6201" />
  <path d="m 13967.081,-3547.8001 4.058,-1.26" />
  <path d="m 14000,-3546.6297 -0.32,-0.2834" />
  <path d="m 13963.28,-3546.6133 3.801,-1.1868" />
  <path d="m 13971.46,-3548.5867 1.08,1.6201" />
  <path d="m 13965.3,-3546.3467 v 0" />
  <path d="m 13999.68,-3546.9131 v 1.0063" />
  <path d="m 13999.68,-3545.9068 v 0.2403" />
  <path d="m 13963.271,-3545.2198 v -1.3935" />
  <path d="m 13548.65,-3555.7999 -19.84,4.1733" />
  <path d="m 13964.494,-3545.0958 v 0" />
  <path d="m 13969.56,-3544.96 v 0" />
  <path d="m 13999.68,-3545.6665 -4.821,1.4465" />
  <path d="m 13969.217,-3541.0004 0.294,0.2518" />
  <path d="m 13964.25,-3541.1533 2.565,0.8201" />
  <path d="m 13966.815,-3540.3332 -3.544,-4.8866" />
  <path d="m 13969.511,-3540.7486 v 0" />
  <path d="m 13969.217,-3541.0004 v 0" />
  <path d="m 13962.95,-3538.3801 1.3,-2.7732" />
  <path d="m 13994.859,-3544.22 -6.109,8.0666" />
  <path d="m 13988.75,-3536.1534 -3.53,1.2268" />
  <path d="m 13964.6,-3533.6533 h -0.361" />
  <path d="m 13985.22,-3534.9266 -1.4,1.2733" />
  <path d="m 13964.239,-3533.6533 h 0.361" />
  <path d="m 13963.181,-3532.5333 -0.231,-5.8468" />
  <path d="m 13963.831,-3532.6733 v 0.013" />
  <path d="m 13963.831,-3532.6599 -0.65,0.1266" />
  <path d="m 13937.39,-3531.4865 6.41,-0.4002" />
  <path d="m 13976.81,-3531.4335 v 0" />
  <path d="m 13933.009,-3531.2134 4.381,-0.2731" />
  <path d="m 13974.35,-3531.1268 v 0" />
  <path d="m 13948.86,-3530.7865 6.371,0.8465" />
  <path d="m 13943.8,-3531.8867 5.06,1.1002" />
  <path d="m 13926.93,-3529.7268 6.079,-1.4866" />
  <path d="m 13965.01,-3529.4201 v 0" />
  <path d="m 13923.41,-3528.6201 3.52,-1.1067" />
  <path d="m 13955.231,-3529.94 1.77,1.4599" />
  <path d="m 13957.001,-3528.4801 0.67,3.1867" />
  <path d="m 13966.499,-3519.2799 -2.668,-13.3934" />
  <path d="m 13957.671,-3525.2934 3.92,6.3069" />
  <path d="m 13913.73,-3517.8799 9.68,-10.7402" />
  <path d="m 13983.82,-3533.6533 -2.01,18.1668" />
  <path d="m 13911.15,-3514.1335 2.6,-0.7129" />
  <path d="m 13913.75,-3514.8464 -0.02,-3.0335" />
  <path d="m 13961.591,-3518.9865 4.908,-0.2934" />
  <path d="m 13962.95,-3512.8666 v 0" />
  <path d="m 13863.93,-3511.4933 11.32,-1.6201" />
  <path d="m 13857.37,-3511.0199 6.56,-0.4734" />
  <path d="m 13981.81,-3515.4865 1.801,5.5198" />
  <path d="m 13983.611,-3509.9667 -1.481,2.8733" />
  <path d="m 13854.15,-3506.7932 3.22,-4.2267" />
  <path d="m 13916.87,-3503.6469 v 0" />
  <path d="m 13674.91,-3503.6999 0.06,0.093" />
  <path d="m 13682.451,-3508.02 4.579,3.3932" />
  <path d="m 13674.22,-3503.389 0.69,-0.3109" />
  <path d="m 13674.969,-3503.6068 0.429,0.441" />
  <path d="m 13982.13,-3507.0934 1.18,3.8803" />
  <path d="m 13888.719,-3503.1399 v 0" />
  <path d="m 13909.85,-3503.1399 1.3,-10.9936" />
  <path d="m 13673.431,-3502.8172 0.789,-0.5718" />
  <path d="m 13999.68,-3502.5932 0.32,-0.2041" />
  <path d="m 13680.64,-3505.1533 1.811,-2.8667" />
  <path d="m 13672.128,-3502.5261 1.303,-0.2911" />
  <path d="m 13671.35,-3502.4532 0.778,-0.073" />
  <path d="m 13670.712,-3502.2865 0.638,-0.1667" />
  <path d="m 13670,-3502.1 0.712,-0.1865" />
  <path d="m 13675.398,-3503.1658 1.642,1.0258" />
  <path d="m 13677.04,-3502.14 3.6,-3.0133" />
  <path d="m 13875.25,-3513.1134 15.38,8.3267 -12.661,3.0468" />
  <path d="m 13998.151,-3501.1333 1.529,-1.4599" />
  <path d="m 13687.03,-3504.6268 -0.07,3.8002" />
  <path d="M 13667.371,-3500.6199 13670,-3502.1" />
  <path d="m 13665.901,-3500 1.47,-0.6199" />
  <path d="m 13666.533,-3500 h 0.89" />
  <path d="m 13680.595,-3500 h 0.905" />
  <path d="m 13686.96,-3500.8266 -1.737,0.8266" />
  <path d="m 13849.739,-3500 4.411,-6.7932" />
  <path d="m 13850.671,-3500 h 0.04" />
  <path d="m 13852.765,-3500 h -2.353" />
  <path d="m 13877.969,-3501.7399 -0.102,1.7399" />
  <path d="m 13908.433,-3500 1.417,-3.1399" />
  <path d="m 13983.31,-3503.2131 2.44,3.2131" />
  <path d="m 13997.479,-3500 0.672,-1.1333" />
  <path d="m 14000,-3985.342 3.42,4.8485" />
  <path d="m 14003.87,-3975.8598 v 0" />
  <path d="m 14003.42,-3980.4935 2.571,20.6802" />
  <path d="m 14005.991,-3959.8133 -1.261,8.4667" />
  <path d="m 14004.73,-3951.3466 -3.309,12.9131" />
  <path d="m 14001.421,-3938.4335 -1.421,3.4169" />
  <path d="m 14061.418,-3648.1586 -0.407,5.5095" />
  <path d="m 14061.011,-3642.6491 -1.522,9.0092" />
  <path d="m 14055.969,-3625.5798 3.52,-8.0601" />
  <path d="m 14057.201,-3618.4601 -1.232,-7.1197" />
  <path d="m 14058.62,-3614.2799 -1.419,-4.1802" />
  <path d="m 14061.23,-3608.2333 -2.61,-6.0466" />
  <path d="m 14000,-3566.5527 0.2,-0.021" />
  <path d="m 14060.651,-3566.0599 1.86,-1.1802" />
  <path d="m 14000.2,-3566.5733 -0.2,0.6115" />
  <path d="m 14000,-3565.601 1.981,0.3342" />
  <path d="m 14055.969,-3562.78 4.682,-3.2799" />
  <path d="m 14053.67,-3561.1065 2.299,-1.6735" />
  <path d="m 14052.55,-3560.2531 1.12,-0.8534" />
  <path d="m 14001.981,-3565.2668 7.879,4.6333" />
  <path d="m 14049.809,-3557.9067 2.741,-2.3464" />
  <path d="m 14009.86,-3560.6335 1.7,5.5802" />
  <path d="m 14046.98,-3554.7466 2.829,-3.1601" />
  <path d="m 14043.03,-3549.8264 3.95,-4.9202" />
  <path d="m 14041.569,-3547.1668 1.461,-2.6596" />
  <path d="m 14011.56,-3555.0533 -9.28,8.3069" />
  <path d="m 14002.28,-3546.7464 -2.28,-0.8271" />
  <path d="m 14000,-3547.1828 v 0.5531" />
  <path d="m 14039.72,-3541.8667 1.849,-5.3001" />
  <path d="m 14039.18,-3538.3133 0.54,-3.5534" />
  <path d="m 14039.5,-3533.6533 -0.32,-4.66" />
  <path d="m 14039.79,-3533.02 -0.29,-0.6333" />
  <path d="m 14040.35,-3528.1601 -0.56,-4.8599" />
  <path d="m 14038.5,-3519.22 1.85,-8.9401" />
  <path d="m 14034.68,-3517.5533 3.82,-1.6667" />
  <path d="m 14021.201,-3511.4334 13.479,-6.1199" />
  <path d="m 14013.62,-3512.1468 7.581,0.7134" />
  <path d="m 14003.81,-3505.1399 9.81,-7.0069" />
  <path d="m 14000,-3502.7973 3.81,-2.3426" />
  <path d="m 13850.412,-3500 h 0.259" />
  <path d="m 13997.38,-3499.7601 0.1,-0.2399" />
  <path d="m 13681.5,-3500 -0.309,0.3906" />
  <path d="m 13681.191,-3499.6094 -0.596,-0.3906" />
  <path d="m 13850.71,-3500 h -0.971" />
  <path d="m 13667.423,-3500 -0.854,2.7138" />
  <path d="m 13666.569,-3497.2862 -0.04,-2.7138" />
  <path d="m 13847.45,-3496.1735 5.315,-3.8265" />
  <path d="m 13698.261,-3495.9198 0.279,0.28" />
  <path d="m 13682.028,-3494.9764 v 0" />
  <path d="m 13685.223,-3500 -2.723,6.06" />
  <path d="m 13877.867,-3500 -0.287,6.1001" />
  <path d="m 13697.501,-3493.2068 0.76,-2.713" />
  <path d="m 13664.45,-3492.58 1.451,-7.42" />
  <path d="m 13993.15,-3491.2666 4.23,-8.4935" />
  <path d="m 13985.75,-3500 -3.31,8.8932" />
  <path d="m 13698.54,-3495.6398 -0.811,4.9065" />
  <path d="m 13664.21,-3490.0536 0.24,-2.5264" />
  <path d="m 13982.44,-3491.1068 10.71,-0.1598" />
  <path d="m 13834.83,-3489.8464 12.62,-6.3271" />
  <path d="m 13697.501,-3493.2068 -3.441,6.9401" />
  <path d="m 13877.58,-3493.8999 -0.88,8.0532" />
  <path d="m 13908.25,-3485.2135 0.183,-14.7865" />
  <path d="m 13680.861,-3483.9298 v 0" />
  <path d="m 13697.075,-3482.0679 0.654,-8.6654" />
  <path d="m 13876.7,-3485.8467 -1.531,3.9268" />
  <path d="m 13699.152,-3481.6013 -2.077,-0.4666" />
  <path d="m 13682.5,-3493.94 3.65,12.5401" />
  <path d="m 13694.06,-3486.2667 -2.069,4.9469" />
  <path d="m 13832.49,-3481.1932 2.34,-8.6532" />
  <path d="m 13657.01,-3480.4531 7.2,-9.6005" />
  <path d="m 13705,-3477.9736 -5.848,-3.6277" />
  <path d="m 13902.58,-3476.4069 5.67,-8.8066" />
  <path d="m 13875.169,-3481.9199 2.411,5.6733" />
  <path d="m 13606.92,-2042.3935 h -0.02" />
  <path d="m 15398.19,-2428.4134 v 0" />
</g>
</svg>