<?xml version="1.0" encoding="UTF-8"?>
<svg  xmlns="http://www.w3.org/2000/svg" xmlns:xlink="http://www.w3.org/1999/xlink" viewBox="13396.82117, -3487.144305, 659.2878, 631.5991" xmlns:go="http://purl.org/svgmap/profile"  xmlns:rdf="http://www.w3.org/1999/02/22-rdf-syntax-ns#" xmlns:dc="http://purl.org/dc/elements/1.1/" property="id,type,latitude,longitude,title,address,spec" >
 <globalCoordinateSystem srsName="http://purl.org/crs/84" transform="matrix(100,0,0,-100,0,0)" />
<!-- 海岸線の描画プロパティの設定 -->
<g style="stroke: #000000" fill="none" fill-rule="evenodd" stroke="green" stroke-width="1" opacity="1" vector-effect="non-scaling-stroke" stroke-linejoin="bevel" visibleMaxZoom="500">
<!-- 実際の海岸線データ -->
  <path d="m 12835.741,-3200.3201 h -1.311" />
  <path d="m 12834.43,-3200.3201 h 1.311" />
  <path d="m 13469.76,-3475.9869 v 0" />
  <path d="m 13457.001,-3476.0265 19.079,-0.1801" />
  <path d="m 13447.391,-3475.5199 9.61,-0.5066" />
  <path d="m 13445.03,-3475.3666 2.361,-0.1533" />
  <path d="m 13476.08,-3476.2066 4.74,2.9999" />
  <path d="m 13432.13,-3472.1802 12.9,-3.1864" />
  <path d="m 13420.911,-3471.9601 v 0" />
  <path d="m 13424.31,-3471.5267 7.82,-0.6535" />
  <path d="m 13422.76,-3471.46 1.55,-0.067" />
  <path d="m 13426.17,-3470.8267 v 0" />
  <path d="m 13480.82,-3473.2067 3.85,1.68" />
  <path d="m 13432.091,-3470.3068 v 0" />
  <path d="m 13484.67,-3471.5267 2.29,1.2199" />
  <path d="m 13486.88,-3470.1599 -0.12,0.2266" />
  <path d="m 13428.83,-3469.68 v 0" />
  <path d="m 13486.76,-3469.9333 -0.169,0.2865" />
  <path d="m 13485.3,-3469.4 v 0" />
  <path d="m 13425.751,-3469.0266 v 0" />
  <path d="m 13486.591,-3469.6468 -0.341,0.6401" />
  <path d="m 13486.25,-3469.0067 0.63,-1.1532" />
  <path d="m 13463.94,-3468.3334 v 0" />
  <path d="m 13429.601,-3468.0069 v 0" />
  <path d="m 13461.031,-3467.5732 v 0" />
  <path d="m 13426.17,-3467.4934 v 0" />
  <path d="m 13420.7,-3466.9868 2.06,-4.4732" />
  <path d="m 13421.06,-3466.9868 h -0.21" />
  <path d="m 13422.69,-3466.9868 h 0.5" />
  <path d="m 13423.36,-3466.9868 h -1.14" />
  <path d="m 13458.73,-3466.9868 h -0.31" />
  <path d="m 13486.96,-3470.3068 6.151,3.32" />
  <path d="m 13458.42,-3466.9868 h -0.223" />
  <path d="m 13458.197,-3466.9853 h -1.807" />
  <path d="m 13420.85,-3466.9868 h -0.15" />
  <path d="m 13423.19,-3466.9868 h 0.17" />
  <path d="m 13422.22,-3466.9868 h 0.47" />
  <path d="m 13454.19,-3465.8798 v 0" />
  <path d="m 13456.39,-3466.9868 h 2.34" />
  <path d="m 13443.359,-3464.7667 v 0" />
  <path d="m 13453.101,-3464.2467 v 0" />
  <path d="m 13499.68,-3464.2399 0.32,-0.024" />
  <path d="m 13493.111,-3466.9868 6.569,2.7469" />
  <path d="m 13446.77,-3464.08 v 0" />
  <path d="m 13417.31,-3463.9599 3.75,-3.0269" />
  <path d="m 13458.78,-3463.76 v 0" />
  <path d="m 13451.55,-3463.5864 v 0" />
  <path d="m 13449.68,-3462.9532 v 0" />
  <path d="m 13500,-3460.8543 -0.32,0.061" />
  <path d="m 13499.68,-3460.7933 -0.02,-0.01" />
  <path d="m 13403.18,-3460.9001 1.05,0.1335" />
  <path d="m 13420.07,-3460.7399 v 0" />
  <path d="m 13416.78,-3460.26 v 0" />
  <path d="m 13397.25,-3460.3134 5.93,-0.5867" />
  <path d="m 13415.739,-3459.7 v 0" />
  <path d="m 13419.35,-3459.5669 v 0" />
  <path d="m 13447.58,-3459.3136 v 0" />
  <path d="m 13411.169,-3458.8402 6.141,-5.1197" />
  <path d="m 13404.23,-3460.7666 6.939,1.9264" />
  <path d="m 13403.349,-3457.3868 -7.829,-1.2665" />
  <path d="m 13410.86,-3456.0867 v 0" />
  <path d="m 13409.73,-3455.9868 v 0" />
  <path d="m 13500,-3454.9435 v -0.1819" />
  <path d="m 13499.68,-3454.5399 0.32,-0.3746" />
  <path d="m 13399.68,-3453.7533 3.669,-3.6335" />
  <path d="m 13399.68,-3453.7533 v 0.5333" />
  <path d="m 13399.68,-3452.8667 v -0.3533" />
  <path d="m 13415.95,-3452.7599 v 0" />
  <path d="m 13399.68,-3452.8667 v 0.3398" />
  <path d="m 13415.581,-3451.7467 v 0" />
  <path d="m 13414.61,-3451.6335 v 0" />
  <path d="m 13499.66,-3460.8002 -12.729,9.4536" />
  <path d="m 13399.68,-3451.7532 v -0.7737" />
  <path d="m 13402.341,-3450.6866 -1.651,0.8667" />
  <path d="m 13495.41,-3448.3868 4.27,-6.1531" />
  <path d="m 13400.69,-3449.8199 1.651,-0.8667" />
  <path d="m 13411.71,-3447.2866 v 0" />
  <path d="m 13399.68,-3447.06 v -0.5135" />
  <path d="m 13399.68,-3447.5735 v 0.5135" />
  <path d="m 13418.51,-3446.7731 v 0" />
  <path d="m 13400.101,-3446.0533 v 0" />
  <path d="m 13433.2,-3456.3133 -13.29,8.0665" />
  <path d="m 13407.95,-3445.9801 v 0" />
  <path d="m 13387.95,-3445.66 11.73,-6.0932" />
  <path d="m 13432.31,-3444.5667 v 0" />
  <path d="m 13399.68,-3444.5866 v -1.5335" />
  <path d="m 13399.68,-3446.1201 v 1.5335" />
  <path d="m 13434.9,-3443.7199 v 0" />
  <path d="m 13400.661,-3443.56 v 0" />
  <path d="m 13426.71,-3446.7468 6.49,-9.5665" />
  <path d="m 13486.931,-3451.3466 -8.222,8.6266" />
  <path d="m 13405.45,-3441.6267 v 0" />
  <path d="m 13412.241,-3441.6199 v 0" />
  <path d="m 13419.91,-3448.2468 6.8,1.5" />
  <path d="m 13412.18,-3441.0065 v 0" />
  <path d="m 13413.47,-3440.9599 v 0" />
  <path d="m 13410.22,-3440.06 v 0" />
  <path d="m 13489.43,-3439.8933 5.98,-8.4935" />
  <path d="m 13417.34,-3439.0598 v 0" />
  <path d="m 13403.9,-3437.9333 v 0" />
  <path d="m 13412.221,-3436.06 -0.27,0.14" />
  <path d="m 13415.961,-3435.4332 -3.74,-0.6268" />
  <path d="m 13474.02,-3435.2402 4.689,-7.4798" />
  <path d="m 13411.951,-3435.92 -19.251,-3.0399" />
  <path d="m 13416.501,-3432.5935 -0.54,-2.8397" />
  <path d="m 13426.581,-3433.5999 -10.08,1.0064" />
  <path d="m 13500,-3428.1094 v 0.2049" />
  <path d="m 13495.66,-3427.6466 v 0" />
  <path d="m 13428.77,-3427.5536 -2.189,-6.0463" />
  <path d="m 13434.48,-3425.3201 -5.71,-2.2335" />
  <path d="m 13439.32,-3425.1202 -4.84,-0.1999" />
  <path d="m 13474.02,-3435.2402 -8.25,11.1069" />
  <path d="m 13487.05,-3423.9799 2.38,-15.9134" />
  <path d="m 13459.14,-3421.4401 v 0" />
  <path d="m 13443.97,-3420.7867 -4.65,-4.3335" />
  <path d="m 13465.77,-3424.1333 21.28,0.1534" />
  <path d="m 13462.18,-3418.5799 v 0" />
  <path d="m 13481.16,-3415.6467 v 0" />
  <path d="m 13461.42,-3414.2799 -17.45,-6.5068" />
  <path d="m 13460.158,-3410.3226 1.262,-3.9573" />
  <path d="m 13460.46,-3410.1467 -0.302,-0.1759" />
  <path d="m 13460.01,-3401.8665 0.45,-8.2802" />
  <path d="m 13459.85,-3400.3201 0.16,-1.5464" />
  <path d="m 13464.27,-3400.3201 h -1.359" />
  <path d="m 13465.131,-3398.6401 -0.861,-1.68" />
  <path d="m 13462.911,-3400.3201 h -3.061" />
  <path d="m 13469.83,-3394.0468 -4.699,-4.5933" />
  <path d="m 13467.36,-3385.96 v 0" />
  <path d="m 13465.43,-3385.4336 v 0" />
  <path d="m 13470.99,-3385.2867 v 0" />
  <path d="m 13472.92,-3384.7401 v 0" />
  <path d="m 13479.851,-3384.24 v 0" />
  <path d="m 13480.971,-3384.0336 v 0" />
  <path d="m 13480.42,-3383.9268 v 0" />
  <path d="m 13467.85,-3380.4268 1.98,-13.62" />
  <path d="m 13456.65,-3373.2735 11.2,-7.1533" />
  <path d="m 13447.191,-3368.1469 9.459,-5.1266" />
  <path d="m 13438.95,-3365.0333 8.241,-3.1136" />
  <path d="m 13444.93,-3363.7402 v 0" />
  <path d="m 13449.68,-3363.0135 v 0" />
  <path d="m 13442.31,-3362.9002 v 0" />
  <path d="m 13436.121,-3359.5798 2.829,-5.4535" />
  <path d="m 13434.37,-3358.5201 1.751,-1.0597" />
  <path d="m 13430.521,-3354.8534 3.849,-3.6667" />
  <path d="m 13432.071,-3353.9734 v 0" />
  <path d="m 13429.68,-3353.7399 v 0" />
  <path d="m 13431.21,-3353.7132 v 0" />
  <path d="m 13423.469,-3344.2066 7.052,-10.6468" />
  <path d="m 13399.24,-3342.7601 0.44,0.1202" />
  <path d="m 13399.68,-3342.6399 1.39,0.4532" />
  <path d="m 13401.07,-3342.1867 2.25,4.3533" />
  <path d="m 13403.32,-3337.8334 4.97,4.1801" />
  <path d="m 13419.83,-3333.6533 3.639,-10.5533" />
  <path d="m 13408.29,-3333.6533 h 11.54" />
  <path d="m 13697.501,-3493.2068 -3.441,6.9401" />
  <path d="m 13877.58,-3493.8999 -0.88,8.0532" />
  <path d="m 13908.25,-3485.2135 0.183,-14.7865" />
  <path d="m 13680.861,-3483.9298 v 0" />
  <path d="m 13697.075,-3482.0679 0.654,-8.6654" />
  <path d="m 13876.7,-3485.8467 -1.531,3.9268" />
  <path d="m 13699.152,-3481.6013 -2.077,-0.4666" />
  <path d="m 13682.5,-3493.94 3.65,12.5401" />
  <path d="m 13694.06,-3486.2667 -2.069,4.9469" />
  <path d="m 13832.49,-3481.1932 2.34,-8.6532" />
  <path d="m 13657.01,-3480.4531 7.2,-9.6005" />
  <path d="m 13730.55,-3480.4001 v 0" />
  <path d="m 13729.79,-3481.0467 2.63,2.0401" />
  <path d="m 13723,-3478.6533 v 0" />
  <path d="m 13732.291,-3478.8933 -1.661,0.4265" />
  <path d="m 13709.85,-3478.3733 6.97,-0.3868" />
  <path d="m 13730.63,-3478.4668 1.661,-0.4265" />
  <path d="m 13705,-3477.9736 -5.848,-3.6277" />
  <path d="m 13705,-3477.9736 4.85,-0.3997" />
  <path d="m 13654.39,-3477.2999 2.62,-3.1532" />
  <path d="m 13829.491,-3476.6666 2.999,-4.5266" />
  <path d="m 13716.82,-3478.7601 12.97,-2.2866" />
  <path d="m 13709.77,-3476.4668 v 0" />
  <path d="m 13902.58,-3476.4069 5.67,-8.8066" />
  <path d="m 13875.169,-3481.9199 2.411,5.6733" />
  <path d="m 13686.15,-3481.3999 -1.011,6.5468" />
  <path d="m 13694.2,-3474.7334 -2.209,-6.5864" />
  <path d="m 13824.58,-3474.02 4.911,-2.6466" />
  <path d="m 13731.867,-3473.2948 v 0" />
  <path d="m 13899.68,-3472.9336 2.9,-3.4733" />
  <path d="m 13822.35,-3472.2 2.23,-1.82" />
  <path d="m 13734.2,-3472.0455 v 0" />
  <path d="m 13899.249,-3471.7602 0.431,-1.1734" />
  <path d="m 13704.924,-3471.5477 v 0" />
  <path d="m 13532.436,-3472.5925 -2.124,0.6961" />
  <path d="m 13724.982,-3471.0663 v 0" />
  <path d="m 13532.997,-3471.0232 v 0" />
  <path d="m 13699.68,-3470.5666 v 0.053" />
  <path d="m 13532.12,-3470.4823 v 0" />
  <path d="m 13529.405,-3470.4655 v 0" />
  <path d="m 13534.717,-3470.29 v 0" />
  <path d="m 13699.68,-3470.5135 v -0.053" />
  <path d="m 13877.58,-3476.2466 -3.511,6.2267" />
  <path d="m 13685.139,-3474.8531 9.061,0.1197" />
  <path d="m 13537.219,-3469.3729 -4.783,-3.2196" />
  <path d="m 13943.88,-3467.86 -7.849,-12.0201 7.849,12.0201" />
  <path d="m 13732.42,-3479.0066 -1.73,11.1664" />
  <path d="m 13723.608,-3468.7775 7.082,0.9373" />
  <path d="m 13525.479,-3467.7868 v 0" />
  <path d="m 13753.22,-3467.8066 6.53,0.02" />
  <path d="m 13540.72,-3469.7205 -3.501,0.3476" />
  <path d="m 13759.75,-3467.7868 2.95,0.2068" />
  <path d="m 13748.39,-3467.3801 4.83,-0.4265" />
  <path d="m 13655.591,-3466.9868 -1.201,-10.3131" />
  <path d="m 13700.52,-3466.9868 h -0.309" />
  <path d="m 13718.73,-3466.9868 h 0.16" />
  <path d="m 13719.9,-3466.9868 3.708,-1.7907" />
  <path d="m 13745.48,-3466.9868 2.91,-0.3933" />
  <path d="m 13762.7,-3467.58 5.121,0.5932" />
  <path d="m 13819.76,-3466.9868 2.59,-5.2132" />
  <path d="m 13874.069,-3470.0199 3.641,3.0331" />
  <path d="m 13894.879,-3466.9868 h 1.21" />
  <path d="m 13897.79,-3466.9868 1.459,-4.7734" />
  <path d="m 13719.9,-3466.9868 h -1.01" />
  <path d="m 13700.211,-3466.9868 h 0.309" />
  <path d="m 13718.73,-3466.9868 -0.439,0.4268" />
  <path d="m 13791.15,-3466.7 5.839,0.1599" />
  <path d="m 13654.84,-3466.3868 0.751,-0.6" />
  <path d="m 13796.989,-3466.5401 2.691,0.3799" />
  <path d="m 13540.971,-3465.9027 v 0" />
  <path d="m 13785.71,-3465.8798 5.44,-0.8202" />
  <path d="m 13784.711,-3465.6933 0.999,-0.1865" />
  <path d="m 13799.68,-3466.1602 3.05,0.6069" />
  <path d="m 13896.089,-3466.9868 h 1.701" />
  <path d="m 13709.46,-3465.16 v 0" />
  <path d="m 13521.732,-3465.0158 v 0" />
  <path d="m 13712.7,-3464.8998 v 0" />
  <path d="m 13734.11,-3464.7598 11.37,-2.227" />
  <path d="m 13779.86,-3464.4669 4.851,-1.2264" />
  <path d="m 13767.821,-3466.9868 12.039,2.5199" />
  <path d="m 13500,-3464.2639 1.829,-0.063" />
  <path d="m 13539.209,-3464.225 v 0" />
  <path d="m 13802.73,-3465.5533 5.081,1.3333" />
  <path d="m 13654.89,-3463.4666 -0.05,-2.9202" />
  <path d="m 13522.585,-3463.1145 v 0" />
  <path d="m 13521.237,-3462.9562 v 0" />
  <path d="m 13890.48,-3462.8868 4.399,-4.1" />
  <path d="m 13530.312,-3471.8964 -28.483,7.5695" />
  <path d="m 13725.169,-3462.3665 8.941,-2.3933" />
  <path d="m 13542.217,-3462.1918 v 0" />
  <path d="m 13820.599,-3462.0533 -0.839,-4.9335" />
  <path d="m 13821.899,-3461.8401 v 0" />
  <path d="m 13807.811,-3464.22 8.229,2.9399" />
  <path d="m 13652.921,-3461.1465 1.969,-2.3201" />
  <path d="m 13541.753,-3461.0836 v 0" />
  <path d="m 13543.75,-3460.8109 -3.03,-8.9096" />
  <path d="m 13877.71,-3466.9868 12.77,4.1" />
  <path d="m 13660.35,-3460.0933 -7.429,-1.0532" />
  <path d="m 13816.04,-3461.2801 4.559,-0.7732" />
  <path d="m 13714.97,-3459.2133 10.199,-3.1532" />
  <path d="m 13718.291,-3466.56 -16.751,8.6067 13.43,-1.26" />
  <path d="m 13666,-3456.6132 -5.65,-3.4801" />
  <path d="m 13501.559,-3456.2401 -1.559,-4.6142" />
  <path d="m 13500,-3455.1254 1.559,-1.1147" />
  <path d="m 13500,-3454.9145 v -0.029" />
  <path d="m 13540.527,-3454.7295 0.687,0.3785" />
  <path d="m 13542.625,-3454.705 1.012,0.4512" />
  <path d="m 13543.745,-3454.0733 v -6.7376" />
  <path d="m 13698.23,-3454.0733 v 0" />
  <path d="m 13691.09,-3454.0401 v 0" />
  <path d="m 13541.214,-3454.351 1.411,-0.354" />
  <path d="m 13539.374,-3453.138 0.738,0.3956" />
  <path d="m 13675.169,-3452.4666 -9.169,-4.1466" />
  <path d="m 13543.637,-3454.2538 -3.11,-0.4757" />
  <path d="m 13685.269,-3451.9402 v 0" />
  <path d="m 13541.815,-3451.9382 h 0.03" />
  <path d="m 13541.841,-3451.9352 1.904,-2.1381" />
  <path d="m 13540.112,-3452.7424 -0.738,-0.3956" />
  <path d="m 13684.039,-3451.5667 v 0" />
  <path d="m 13927.53,-3451.1135 v 0" />
  <path d="m 13685.86,-3450.6001 v 0" />
  <path d="m 13537.627,-3450.8675 4.188,-1.0707" />
  <path d="m 13683.6,-3450.2132 v 0" />
  <path d="m 13537.088,-3450.0141 0.539,-0.8534" />
  <path d="m 13681.709,-3448.8731 -6.54,-3.5935" />
  <path d="m 13681.57,-3448.5134 0.139,-0.3597" />
  <path d="m 13685.651,-3448.2533 v 0" />
  <path d="m 13688.631,-3447.6601 v 0" />
  <path d="m 13929.32,-3446.9666 v 0" />
  <path d="m 13535.93,-3445.9866 1.158,-4.0275" />
  <path d="m 13689.52,-3445.5868 v 0" />
  <path d="m 13688.89,-3445.0665 v 0" />
  <path d="m 13533.411,-3444.5732 v 0" />
  <path d="m 13535.93,-3445.9866 -2.851,2.7131" />
  <path d="m 13524.1,-3443.7267 -1.1,0.7465" />
  <path d="m 13525.149,-3442.9802 -1.049,-0.7465" />
  <path d="m 13523.99,-3442.2733 1.159,-0.7069" />
  <path d="m 13523.604,-3441.8148 0.386,-0.4585" />
  <path d="m 13523.604,-3441.8148 v 0" />
  <path d="m 13523,-3442.9802 0.604,1.1654" />
  <path d="m 13528.861,-3440.3465 4.218,-2.927" />
  <path d="m 13527.94,-3439.5267 0.921,-0.8198" />
  <path d="m 13525.04,-3437.6801 2.9,-1.8466" />
  <path d="m 13686.89,-3438.8535 -5.32,-9.6599" />
  <path d="m 13922.701,-3436.7199 v 0" />
  <path d="m 13687.311,-3435.7201 v 0" />
  <path d="m 13686.56,-3435.0399 0.33,-3.8136" />
  <path d="m 13921.069,-3433.6735 v 0" />
  <path d="m 13525.04,-3437.6801 -5.67,4.0402" />
  <path d="m 13671.39,-3433.3935 v 0" />
  <path d="m 13927.251,-3432.9933 1.849,-7.84 -1.25,-2.2602 -0.599,10.1002" />
  <path d="m 13927.831,-3432.4333 v 0" />
  <path d="m 13921.339,-3431.6269 v 0" />
  <path d="m 13519.37,-3433.6399 -10.059,2.4731" />
  <path d="m 13681.5,-3430.46 v 0" />
  <path d="m 13688.77,-3430.1334 -2.21,-4.9065" />
  <path d="m 13681.95,-3429.9267 v 0" />
  <path d="m 13681.27,-3429.9068 v 0" />
  <path d="m 13682.34,-3429.6001 v 0" />
  <path d="m 13681.551,-3429.5532 v 0" />
  <path d="m 13668.021,-3429.5067 v 0" />
  <path d="m 13504.46,-3429.2202 v 0" />
  <path d="m 13671.55,-3430.2002 8.27,-0.9197" />
  <path d="m 13682.21,-3428.8067 v 0" />
  <path d="m 13679.82,-3431.1199 6.591,2.0733" />
  <path d="m 13681.191,-3428.6999 v 0" />
  <path d="m 13682.539,-3428.4733 v 0" />
  <path d="m 13500.8,-3427.6268 -0.8,-0.4826" />
  <path d="m 13500,-3427.9045 0.8,0.2777" />
  <path d="m 13686.084,-3427.4311 0.107,-0.056" />
  <path d="m 13662.84,-3427.2667 8.71,-2.9335" />
  <path d="m 13686.411,-3429.0466 -0.327,1.6155" />
  <path d="m 13684.05,-3426.7132 v 0" />
  <path d="m 13686.084,-3427.4311 -0.194,0.898" />
  <path d="m 13688.77,-3430.1334 -2.669,3.8868" />
  <path d="m 13685.89,-3426.5331 -10.831,-0.4269 11.042,0.7134" />
  <path d="m 13654.82,-3424.2199 v 0" />
  <path d="m 13643.05,-3421.9601 19.79,-5.3066" />
  <path d="m 13919.211,-3420.6532 v 0" />
  <path d="m 13637.421,-3419.7266 5.629,-2.2335" />
  <path d="m 13637.911,-3419.3401 v 0" />
  <path d="m 13640.285,-3419.1639 v 0" />
  <path d="m 13639.778,-3418.8557 v 0" />
  <path d="m 13912.9,-3418.5066 v 0" />
  <path d="m 13638.091,-3418.3468 v -0.066" />
  <path d="m 13638.091,-3418.4132 v 0.066" />
  <path d="m 13907.291,-3418.3067 v 0" />
  <path d="m 13630.46,-3416.9666 v 0" />
  <path d="m 13632.5,-3416.4402 v 0" />
  <path d="m 13630.1,-3415.6601 v 0" />
  <path d="m 13509.311,-3431.1668 9.83,15.2999" />
  <path d="m 13518.26,-3415.06 v 0" />
  <path d="m 13636.58,-3414.8335 v 0" />
  <path d="m 13628.61,-3414.8201 8.811,-4.9065" />
  <path d="m 13519.141,-3415.8669 -1.39,1.7937" />
  <path d="m 13507.93,-3410.9867 v 0" />
  <path d="m 13517.751,-3414.0732 -6.582,2.7931" />
  <path d="m 13510.181,-3410.8799 v 0" />
  <path d="m 13630.209,-3409.8667 -1.599,-4.9534" />
  <path d="m 13623.621,-3408.6666 1.779,-0.1335" />
  <path d="m 13625.4,-3408.8001 4.809,-1.0666" />
  <path d="m 13625.56,-3406.9199 v 0" />
  <path d="m 13626.17,-3405.7602 v 0" />
  <path d="m 13511.169,-3411.2801 2.681,5.6069" />
  <path d="m 13950.211,-3404.5399 v 0" />
  <path d="m 13513.85,-3405.6732 3.49,2.4864" />
  <path d="m 13512.18,-3401.54 v 0" />
  <path d="m 13509.131,-3400.3201 h -0.261" />
  <path d="m 13510.069,-3400.3201 h -0.898" />
  <path d="m 13517.34,-3403.1868 -3.349,2.8667" />
  <path d="m 13627.029,-3400.3201 -3.408,-8.3465" />
  <path d="m 13509.171,-3400.3201 h 0.898" />
  <path d="m 13508.87,-3400.3201 h 0.261" />
  <path d="m 13513.991,-3400.3201 -0.571,0.327" />
  <path d="m 13508.85,-3398.7602 v 0" />
  <path d="m 13513.42,-3399.9931 -3.18,4.573" />
  <path d="m 13507.39,-3394.7399 v 0" />
  <path d="m 13623.151,-3394.7399 3.878,-5.5802" />
  <path d="m 13881.551,-3394.6201 v 0" />
  <path d="m 13881.65,-3394.6133 v 0" />
  <path d="m 13881.69,-3394.3268 v 0" />
  <path d="m 13881.74,-3394.2669 v 0" />
  <path d="m 13510.24,-3395.4201 -4.52,7.4536" />
  <path d="m 13505.72,-3387.9665 9.47,0.4463" />
  <path d="m 13514.71,-3385.68 v 0" />
  <path d="m 13962.08,-3385.2001 v 0" />
  <path d="m 13606.57,-3384.0466 16.581,-10.6933" />
  <path d="m 13515.19,-3387.5202 4.691,6.2401" />
  <path d="m 13519.881,-3381.2801 6.689,3.0002" />
  <path d="m 13603.149,-3377.2068 3.421,-6.8398" />
  <path d="m 13531.52,-3374.9866 v 0" />
  <path d="m 13602.19,-3374.2268 0.959,-2.98" />
  <path d="m 13526.57,-3378.2799 7.021,3.74" />
  <path d="m 13601.131,-3372.3534 1.059,-1.8734" />
  <path d="m 13599.68,-3370.7802 1.451,-1.5732" />
  <path d="m 13536.36,-3369.4733 v 0" />
  <path d="m 13533.591,-3374.5399 4.638,5.4466" />
  <path d="m 13536.62,-3368.6203 v 0" />
  <path d="m 13597.211,-3367.0933 2.469,-3.6869" />
  <path d="m 13594.8,-3361.8732 v 0" />
  <path d="m 13593.581,-3361.7802 3.63,-5.3131" />
  <path d="m 13592.76,-3360.8868 0.821,-0.8934" />
  <path d="m 13592.889,-3359.9667 -0.129,-0.9201" />
  <path d="m 13538.229,-3369.0933 0.782,9.5466" />
  <path d="m 13593.961,-3357.7801 -1.072,-2.1866" />
  <path d="m 13539.011,-3359.5467 6.949,4.8466" />
  <path d="m 13589.88,-3354.5799 4.081,-3.2002" />
  <path d="m 13548.83,-3354.2599 v 0" />
  <path d="m 13556.01,-3351.1131 v 0" />
  <path d="m 13545.96,-3354.7001 17.55,4.0733" />
  <path d="m 13579.5,-3348.9265 10.38,-5.6534" />
  <path d="m 13583.18,-3344.9066 v 0" />
  <path d="m 13581.7,-3344.5866 v 0" />
  <path d="m 13563.51,-3350.6268 15.99,1.7003" />
  <path d="m 13969.94,-3311.5734 v 0" />
  <path d="m 13983.22,-3304.6066 -8.54,-10.9867 8.54,10.9867" />
  <path d="m 13976.92,-3244.2001 v 0" />
  <path d="m 13991.75,-3188.5868 v 0" />
  <path d="m 14005.17,-3143.7267 v 0" />
  <path d="m 14029.86,-3047.2334 v 0" />
  <path d="m 14034.2,-2979.2601 v 0" />
  <path d="m 14210.95,-2771.5334 v 0" />
  <path d="m 14210.271,-2771.52 v 0" />
  <path d="m 14212.64,-2767.7334 v 0" />
  <path d="m 14214.61,-2766.9867 v 0" />
  <path d="m 14215.9,-2765.4467 v 0" />
  <path d="m 14218.57,-2761.8999 v 0" />
  <path d="m 14221.28,-2748.8867 v 0" />
  <path d="m 14220.67,-2748.6 v 0" />
  <path d="m 14087.669,-2724.3534 v 0" />
  <path d="m 14219.51,-2719.1933 v 0" />
  <path d="m 14218.88,-2714.4001 v 0" />
  <path d="m 14218.201,-2712.6333 v 0" />
  <path d="m 14216.38,-2711.2135 v 0" />
  <path d="m 14222,-2710.8133 v 0" />
  <path d="m 14224.68,-2708.9468 v 0" />
  <path d="m 14218.39,-2708.5333 v 0" />
  <path d="m 14217.825,-2704.4218 v 0" />
  <path d="m 14217.566,-2704.1681 v 0" />
  <path d="m 14222.07,-2703.5267 v 0" />
  <path d="m 14217.641,-2703.0666 v 0" />
  <path d="m 14212.18,-2671.4733 v 0" />
  <path d="m 14216.231,-2666.9867 h -1.811" />
  <path d="m 14214.42,-2666.9867 h 1.811" />
  <path d="m 14212.871,-2659.4267 v 0" />
  <path d="m 14214.79,-2658.1066 v 0" />
  <path d="m 14222.8,-2656.2735 v 0" />
  <path d="m 14220.19,-2655.2 v 0" />
  <path d="m 14215.63,-2654.2334 v 0" />
  <path d="m 14127.82,-2541.7732 v 0" />
  <path d="m 13606.92,-2042.3935 h -0.02" />
  <path d="m 14128.42,-2475.1467 v 0" />
  <path d="m 14145.99,-2422.3932 v 0" />
  <path d="m 15398.19,-2428.4134 v 0" />
</g>
</svg>
