<?xml version="1.0" encoding="UTF-8"?>
<svg  xmlns="http://www.w3.org/2000/svg" xmlns:xlink="http://www.w3.org/1999/xlink" viewBox="14056.10897, -4750.342539, 659.2878, 631.5991" xmlns:go="http://purl.org/svgmap/profile"  xmlns:rdf="http://www.w3.org/1999/02/22-rdf-syntax-ns#" xmlns:dc="http://purl.org/dc/elements/1.1/" property="id,type,latitude,longitude,title,address,spec" >
 <globalCoordinateSystem srsName="http://purl.org/crs/84" transform="matrix(100,0,0,-100,0,0)" />
<!-- 海岸線の描画プロパティの設定 -->
<g style="stroke: #000000" fill="none" fill-rule="evenodd" stroke="green" stroke-width="1" opacity="1" vector-effect="non-scaling-stroke" stroke-linejoin="bevel" visibleMaxZoom="500">
<!-- 実際の海岸線データ -->
  <path d="m 14096.49,-4547.62 v 0" />
  <path d="m 14205.09,-4540.3332 -5.41,-5.88" />
  <path d="m 14099.68,-4543.7065 v 7.7064" />
  <path d="m 14099.68,-4536.0001 0.77,2.3468" />
  <path d="m 14105.22,-4533.6533 -5.54,-10.0532" />
  <path d="m 14199.68,-4546.2132 -35.109,1.1467 v 11.4132" />
  <path d="m 14217.38,-4533.6533 -12.29,-6.6799" />
  <path d="m 14100.45,-4533.6533 h 4.77" />
  <path d="m 14164.571,-4533.6533 -6.661,15.9665" />
  <path d="m 14234.56,-4517.5735 -17.18,-16.0798" />
  <path d="m 14124.67,-4510.1665 7.14,-9.6802 -16.84,-2.7001" />
  <path d="m 14114.97,-4522.5468 9.7,12.3803" />
  <path d="m 14249.98,-4505.4401 -15.42,-12.1334" />
  <path d="m 14157.91,-4517.6868 8.499,14.4535" />
  <path d="m 14166.409,-4503.2333 1.815,3.2333" />
  <path d="m 14253.822,-4500 -3.842,-5.4401" />
  <path d="m 14799.68,-4534.3067 -14.08,0.6534" />
  <path d="m 14800.459,-4533.6533 -0.779,-0.6534" />
  <path d="M 14865.511,-4533.6533 H 14866" />
  <path d="m 14868.919,-4533.6533 h 0.551" />
  <path d="m 14870.779,-4533.6533 h 4.441" />
  <path d="m 14881.661,-4533.6533 7.879,-17.6532 -11.02,-4.4266 -36.69,22.0798" />
  <path d="m 14881.661,-4533.6533 7.879,-17.6532 -11.02,-4.4266 -36.69,22.0798" />
  <path d="m 14866,-4533.6533 h 2.919" />
  <path d="m 14869.47,-4533.6533 h 1.309" />
  <path d="m 14875.22,-4533.6533 h 6.441" />
  <path d="m 14841.83,-4533.6533 h -41.371" />
  <path d="m 14799.68,-4502.4467 65.831,-31.2066" />
  <path d="M 14785.6,-4533.6533 14751.779,-4500" />
  <path d="m 14767.108,-4500 h 5.771" />
  <path d="m 14797.122,-4500 2.558,-2.4467" />
  <path d="m 14168.224,-4500 5.586,12.1067" />
  <path d="m 14173.81,-4487.8933 2.55,7.0133" />
  <path d="M 14284.28,-4468.8068 14253.822,-4500" />
  <path d="m 14176.36,-4480.88 2.79,13.8932" />
  <path d="m 14286.639,-4466.9868 -2.359,-1.82" />
  <path d="m 14179.15,-4466.9868 0.1,2.6203" />
  <path d="m 14299.68,-4455.7865 -13.041,-11.2003" />
  <path d="m 14310.12,-4449.8734 -10.44,-5.9131" />
  <path d="m 14179.25,-4464.3665 -4.52,20.9667" />
  <path d="m 14142.41,-4442.8867 v 0" />
  <path d="m 14129.48,-4441.3799 v 0" />
  <path d="m 14327.679,-4440.1669 -17.559,-9.7065" />
  <path d="m 14174.73,-4443.3998 -6.329,8.5529" />
  <path d="m 14355.971,-4425.3334 -28.292,-14.8335" />
  <path d="m 14168.401,-4434.8469 -2.73,13.847" />
  <path d="m 14377.73,-4418.4799 -21.759,-6.8535" />
  <path d="m 14399.68,-4413.5601 -21.95,-4.9198" />
  <path d="m 14400,-4413.5162 -0.32,-0.044" />
  <path d="m 14165.671,-4420.9999 0.119,20.6798" />
  <path d="m 14165.79,-4400.3201 -0.63,0.8534" />
  <path d="m 14165.16,-4399.4667 -4.32,9.0733" />
  <path d="m 14160.84,-4390.3934 -27.049,16.5668" />
  <path d="m 14133.791,-4373.8266 5.389,25.9865" />
  <path d="m 14139.18,-4347.8401 3.149,14.1868" />
  <path d="m 14060.29,-4330.7331 v 0" />
  <path d="m 14063.04,-4329.5601 -8.16,-4.0932" />
  <path d="m 14142.329,-4333.6533 -4.478,5.6408" />
  <path d="m 14137.851,-4328.0125 -0.801,0.7794" />
  <path d="m 14070.07,-4325.1469 -7.03,-4.4132" />
  <path d="m 14126.45,-4320.2465 v 0" />
  <path d="m 14099.68,-4323.9933 -15.191,3.8601" />
  <path d="m 14137.05,-4327.2331 -8.189,7.4199" />
  <path d="m 14084.489,-4320.1332 -14.419,-5.0137" />
  <path d="m 14128.861,-4319.8132 -29.181,-4.1801" />
  <path d="m 14387,-4284.2999 13,-7.4962" />
  <path d="m 14369.141,-4271.3531 17.859,-12.9468" />
  <path d="m 14363.181,-4266.9868 5.96,-4.3663" />
  <path d="m 14179.939,-4260.2932 7.811,1.5598" />
  <path d="m 14141.859,-4257.5134 38.08,-2.7798" />
  <path d="m 14352.51,-4257.3864 10.671,-9.6004" />
  <path d="m 14053.74,-4258.82 18.851,1.5667" />
  <path d="m 14187.75,-4258.7334 8.86,5.88" />
  <path d="m 14072.591,-4257.2533 4.759,5.14" />
  <path d="m 14196.61,-4252.8534 3.07,1.8669" />
  <path d="m 14199.68,-4250.9865 7.901,3.7422" />
  <path d="m 14207.46,-4247.2534 0.121,0.01" />
  <path d="m 14118.98,-4245.3201 22.879,-12.1933" />
  <path d="m 14207.581,-4247.2443 14.689,4.9111" />
  <path d="m 14338.91,-4241.5798 13.6,-15.8066" />
  <path d="m 14077.35,-4252.1133 13.499,14.0934" />
  <path d="m 14105.49,-4235.2867 13.49,-10.0334" />
  <path d="m 14090.849,-4238.0199 8.831,2.9598" />
  <path d="m 14099.68,-4235.0601 v 0.4001" />
  <path d="m 14222.27,-4242.3332 11.22,7.7801" />
  <path d="m 14099.68,-4230.1998 v -0.053" />
  <path d="m 14099.68,-4230.2532 5.81,-5.0335" />
  <path d="m 14099.68,-4230.1731 v -0.027" />
  <path d="m 14099.68,-4234.66 v 4.4869" />
  <path d="m 14233.49,-4234.5531 17.439,7.8331" />
  <path d="m 14250.929,-4226.72 14.051,5.78" />
  <path d="m 14332.471,-4216.0732 6.439,-25.5066" />
  <path d="m 14264.98,-4220.94 21.47,7.2735" />
  <path d="m 14062.84,-4211.9801 -17.14,-5.7666" />
  <path d="m 14076.75,-4209.8068 -13.91,-2.1733" />
  <path d="m 14286.45,-4213.6665 13.23,4.1401" />
  <path d="m 14299.68,-4209.5264 7.15,3.3664" />
  <path d="m 14086.501,-4201.0132 -9.751,-8.7936" />
  <path d="m 14087.99,-4200.3201 -1.489,-0.6931" />
  <path d="m 14306.83,-4206.16 8.931,5.8399" />
  <path d="m 14325.96,-4200.3201 6.511,-15.7531" />
  <path d="m 14315.761,-4200.3201 h 10.199" />
  <path d="m 14099.68,-4190.0269 -11.69,-10.2932" />
  <path d="m 14113.78,-4185.9268 -14.1,-4.1001" />
  <path d="m 14118.64,-4180.2532 -4.86,-5.6736" />
  <path d="m 14071.001,-4180.9265 18.86,6.0799" />
  <path d="m 14105.38,-4172.72 13.26,-7.5332" />
  <path d="m 14055.591,-4172.34 15.41,-8.5865" />
  <path d="m 14099.68,-4171.7133 5.7,-1.0067" />
  <path d="m 14089.861,-4174.8466 9.819,3.1333" />
  <path d="m 14091.24,-4155.2532 v 0" />
  <path d="m 14099.68,-4148.9468 -5.95,-4.0199" />
  <path d="m 14093.73,-4152.9667 -5.479,6.0932" />
  <path d="m 14111.6,-4145.62 -11.92,-3.3268" />
  <path d="m 14119.31,-4138.7733 -7.71,-6.8467" />
  <path d="m 14124.651,-4136.2202 -5.341,-2.5531" />
  <path d="m 14088.251,-4146.8735 -6.781,13.2202" />
  <path d="m 14143.601,-4133.6533 -18.95,-2.5669" />
  <path d="m 14081.47,-4133.6533 -3.61,12.5733" />
  <path d="m 14099.68,-4119.6533 7.67,-0.3533" />
  <path d="m 14059.419,-4121.6999 -14.509,2.7668" />
  <path d="m 14088.19,-4116.6664 11.49,-2.9869" />
  <path d="m 14107.35,-4120.0066 11.521,-7.9734 8.758,12.8601" />
  <path d="m 14139.639,-4113.3064 3.962,-20.3469" />
  <path d="m 14077.86,-4121.08 10.33,4.4136" />
  <path d="m 14063.48,-4108.1467 -4.061,-13.5532" />
  <path d="m 14127.629,-4115.1199 -5.499,17.9332" />
  <path d="m 14772.879,-4500 h 24.243" />
  <path d="m 14751.779,-4500 -41.37,18.1667 4.711,14.8465" />
  <path d="M 14730.15,-4466.9868 14767.108,-4500" />
  <path d="m 14697.85,-4464.9467 v 0" />
  <path d="m 14726.9,-4460.6533 v 0" />
  <path d="m 14715.12,-4466.9868 -15.44,9.1201" />
  <path d="m 14699.68,-4447.2466 30.47,-19.7402" />
  <path d="m 14699.68,-4457.8667 -13.711,12.1201 13.711,-1.5" />
  <path d="m 14599.68,-4417.3 49.4,-18.1465 8.679,-10.1334 -41.128,-6.2267 -16.951,18.5333" />
  <path d="m 14412.18,-4411.7134 -12.18,-1.8028" />
  <path d="m 14412.309,-4411.6734 -0.129,-0.04" />
  <path d="m 14424.68,-4411.3068 -12.371,-0.3666" />
  <path d="m 14425.78,-4408.6533 -1.1,-2.6535" />
  <path d="m 14533.85,-4434.1999 -34.17,26.8398" />
  <path d="m 14428.99,-4400.3201 -3.21,-8.3332" />
  <path d="m 14499.68,-4407.3601 -8.96,7.04" />
  <path d="m 14517.99,-4400.3201 15.86,-33.8798" />
  <path d="m 14599.68,-4433.2733 -34.29,32.9532" />
  <path d="m 14580.78,-4400.3201 18.9,-16.9799" />
  <path d="m 14436.391,-4395.6665 -7.401,-4.6536" />
  <path d="m 14455.49,-4392.2466 -19.099,-3.4199" />
  <path d="m 14490.72,-4400.3201 -35.23,8.0735" />
  <path d="m 14509.97,-4386.1534 8.02,-14.1667" />
  <path d="m 14685.229,-4378.9734 v 0" />
  <path d="m 14679.089,-4374.5468 v 0" />
  <path d="m 14671.44,-4373.3467 v 0" />
  <path d="m 14669.73,-4372.1401 v 0" />
  <path d="m 14664.549,-4370.2732 27.571,-13.5868 -33.49,3.0334 5.919,10.5534" />
  <path d="m 14565.39,-4400.3201 -25.439,17.4069 13.848,17.0399 26.981,-34.4468" />
  <path d="m 14635.77,-4361.8732 v 0" />
  <path d="m 14524.64,-4361.5868 -14.67,-24.5666" />
  <path d="m 14519.949,-4360.8665 4.691,-0.5803" />
  <path d="m 14524.06,-4357.0599 v 0" />
  <path d="m 14532.44,-4356.9202 v 0" />
  <path d="m 14532.84,-4356.6666 v 0" />
  <path d="m 14640.48,-4356.6334 v 0" />
  <path d="m 14524.64,-4361.4468 10.4,4.7867 -10.4,-4.9267" />
  <path d="m 14611.639,-4345.8733 9.18,-7.547 -9.18,7.547" />
  <path d="m 14589.819,-4341.6935 v 0" />
  <path d="m 14616.38,-4341.3601 v 0" />
  <path d="m 14615.23,-4340.7799 v 0" />
  <path d="m 14604.37,-4340.2668 v 0" />
  <path d="m 14589.09,-4338.1535 v 0" />
  <path d="m 14599.68,-4337.5465 v 0.98" />
  <path d="m 14599.68,-4336.5665 v -0.98" />
  <path d="m 14533.38,-4333.6533 -13.431,-27.2132" />
  <path d="m 14571.55,-4333.6533 h 0.549" />
  <path d="m 14572.279,-4333.6533 h 0.141" />
  <path d="m 14573.79,-4333.6533 h -15.9" />
  <path d="m 14572.099,-4333.6533 h 0.18" />
  <path d="m 14572.42,-4333.6533 h 1.37" />
  <path d="m 14566.98,-4329.8199 v 0" />
  <path d="m 14538.71,-4329.4933 -5.33,-4.16" />
  <path d="m 14557.89,-4333.6533 -19.18,4.16" />
  <path d="m 14560.86,-4322.4998 v 0" />
  <path d="m 14559.99,-4320.5799 v 0" />
  <path d="m 14532.68,-4317.4133 38.87,-16.24" />
  <path d="m 14512.72,-4306.8333 v 0" />
  <path d="m 14509.76,-4304.5734 v 0" />
  <path d="m 14499.62,-4299.44 0.06,0.02" />
  <path d="m 14499.68,-4299.4202 33,-17.9931" />
  <path d="m 14473.109,-4300.1598 26.511,0.7198" />
  <path d="m 14459.12,-4295.0134 4.1,-0.1332" />
  <path d="m 14486.58,-4294.7132 v 0" />
  <path d="m 14448.65,-4294.0201 10.47,-0.9933" />
  <path d="m 14422.909,-4299.8135 25.741,5.7934" />
  <path d="m 14463.22,-4295.1466 9.889,-5.0132" />
  <path d="m 14400.549,-4292.0799 22.36,-7.7336" />
  <path d="m 14400,-4291.7961 0.549,-0.2838" />
  <path d="m 13691.38,-3784.4666 v 0" />
  <path d="m 14005.17,-3143.7267 v 0" />
  <path d="m 14029.86,-3047.2334 v 0" />
  <path d="m 12368.14,-2591.8533 v 0" />
  <path d="m 12346,-2573.4068 v 0" />
  <path d="m 12354.12,-2572.48 v 0" />
  <path d="m 12355.36,-2571.9933 v 0" />
  <path d="m 14034.2,-2979.2601 v 0" />
  <path d="m 14210.95,-2771.5334 v 0" />
  <path d="m 14210.271,-2771.52 v 0" />
  <path d="m 14212.64,-2767.7334 v 0" />
  <path d="m 14214.61,-2766.9867 v 0" />
  <path d="m 14215.9,-2765.4467 v 0" />
  <path d="m 14218.57,-2761.8999 v 0" />
  <path d="m 14221.28,-2748.8867 v 0" />
  <path d="m 14220.67,-2748.6 v 0" />
  <path d="m 14087.669,-2724.3534 v 0" />
  <path d="m 14219.51,-2719.1933 v 0" />
  <path d="m 14218.88,-2714.4001 v 0" />
  <path d="m 14218.201,-2712.6333 v 0" />
  <path d="m 14216.38,-2711.2135 v 0" />
  <path d="m 14222,-2710.8133 v 0" />
  <path d="m 14224.68,-2708.9468 v 0" />
  <path d="m 14218.39,-2708.5333 v 0" />
  <path d="m 14217.825,-2704.4218 v 0" />
  <path d="m 14217.566,-2704.1681 v 0" />
  <path d="m 14222.07,-2703.5267 v 0" />
  <path d="m 14217.641,-2703.0666 v 0" />
  <path d="m 14212.18,-2671.4733 v 0" />
  <path d="m 14216.231,-2666.9867 h -1.811" />
  <path d="m 14214.42,-2666.9867 h 1.811" />
  <path d="m 14212.871,-2659.4267 v 0" />
  <path d="m 14214.79,-2658.1066 v 0" />
  <path d="m 14222.8,-2656.2735 v 0" />
  <path d="m 14220.19,-2655.2 v 0" />
  <path d="m 14215.63,-2654.2334 v 0" />
  <path d="m 14127.82,-2541.7732 v 0" />
  <path d="m 13606.92,-2042.3935 h -0.02" />
  <path d="m 14128.42,-2475.1467 v 0" />
  <path d="m 14145.99,-2422.3932 v 0" />
  <path d="m 15398.19,-2428.4134 v 0" />
</g>
</svg>
