<?xml version="1.0" encoding="UTF-8"?>
<svg  xmlns="http://www.w3.org/2000/svg" xmlns:xlink="http://www.w3.org/1999/xlink" viewBox="14056.10897, -4118.743422, 659.2878, 631.5991" xmlns:go="http://purl.org/svgmap/profile"  xmlns:rdf="http://www.w3.org/1999/02/22-rdf-syntax-ns#" xmlns:dc="http://purl.org/dc/elements/1.1/" property="id,type,latitude,longitude,title,address,spec" >
 <globalCoordinateSystem srsName="http://purl.org/crs/84" transform="matrix(100,0,0,-100,0,0)" />
<!-- 海岸線の描画プロパティの設定 -->
<g style="stroke: #000000" fill="none" fill-rule="evenodd" stroke="green" stroke-width="1" opacity="1" vector-effect="non-scaling-stroke" stroke-linejoin="bevel" visibleMaxZoom="500">
<!-- 実際の海岸線データ -->
  <path d="m 14107.35,-4120.0066 11.521,-7.9734 8.758,12.8601" />
  <path d="m 14139.639,-4113.3064 3.962,-20.3469" />
  <path d="m 14063.48,-4108.1467 -4.061,-13.5532" />
  <path d="m 14064.7,-4102.9934 -1.22,-5.1533" />
  <path d="m 14087.74,-4101.1799 v 0" />
  <path d="m 14127.629,-4115.1199 -5.499,17.9332" />
  <path d="m 14066.08,-4094.8933 -1.38,-8.1001" />
  <path d="m 14085.561,-4093.2201 v 0" />
  <path d="m 14099.68,-4093.6466 -13.761,3.2001" />
  <path d="m 14139.36,-4088.7199 0.279,-24.5865" />
  <path d="m 14108.44,-4088.6665 -8.76,-4.9801" />
  <path d="m 14122.13,-4097.1867 -13.69,8.5202" />
  <path d="m 14085.919,-4090.4465 -19.839,-4.4468" />
  <path d="m 14143.871,-4067.0868 -4.511,-21.6331" />
  <path d="m 14146.429,-4060.6533 -2.558,-6.4335" />
  <path d="m 14164.661,-4047.5266 -18.232,-13.1267" />
  <path d="m 14168.31,-4045.0867 -3.649,-2.4399" />
  <path d="m 14179.48,-4029.6131 -11.17,-15.4736" />
  <path d="m 14184.309,-4013.0936 -4.829,-16.5195" />
  <path d="m 14185.539,-4005.6068 -1.23,-7.4868" />
  <path d="m 14193.95,-4000.3201 -8.411,-5.2867" />
  <path d="m 14194.121,-4000 -0.171,-0.3201" />
  <path d="m 14194.89,-3998.9933 -0.769,-1.0067" />
  <path d="m 14196.01,-3988.7932 -1.12,-10.2001" />
  <path d="m 14197.859,-3983.1066 -1.849,-5.6866" />
  <path d="m 14199.68,-3977.8267 -1.821,-5.2799" />
  <path d="m 14199.68,-3977.2598 v -0.5669" />
  <path d="m 14199.68,-3975.14 v -2.1198" />
  <path d="m 14199.68,-3974.8932 v -0.2468" />
  <path d="m 14197.51,-3970.3331 2.17,-4.5601" />
  <path d="m 14198.84,-3966.8934 v 0" />
  <path d="m 14199.68,-3963.0798 -2.17,-7.2533" />
  <path d="m 14201.09,-3950.0332 -1.41,-13.0466" />
  <path d="m 14199.68,-3948.1735 1.41,-1.8597" />
  <path d="m 14199.68,-3945.1 v -3.0735" />
  <path d="m 14203.799,-3941.9132 v 0" />
  <path d="M 14199.68,-3940.9801 V -3945.1" />
  <path d="m 14199.68,-3939.9799 v -0.3601" />
  <path d="m 14199.68,-3940.34 v 0.3601" />
  <path d="m 14195.38,-3939.9666 4.3,-1.0135" />
  <path d="m 14199.68,-3935.1665 v 0.1796" />
  <path d="m 14191.569,-3934.6001 3.811,-5.3665" />
  <path d="m 14191.569,-3934.6001 -1.638,0.9468" />
  <path d="m 14194.85,-3933.6533 h 0.11" />
  <path d="m 14195.21,-3933.6533 4.47,-1.5132" />
  <path d="m 14198.171,-3933.6533 1.509,-1.3336" />
  <path d="m 14195.21,-3933.6533 h -0.25" />
  <path d="m 14194.85,-3933.6533 h -4.919" />
  <path d="m 14198.579,-3930.3867 v 0" />
  <path d="m 14192.261,-3918.14 5.91,-15.5133" />
  <path d="m 14177.071,-3903.4599 15.19,-14.6801" />
  <path d="m 14171.44,-3898.6866 5.631,-4.7733" />
  <path d="m 14163.22,-3897.1001 8.22,-1.5865" />
  <path d="m 14170.96,-3893.8198 v 0" />
  <path d="m 14161.33,-3888.1466 1.89,-8.9535" />
  <path d="m 14164.34,-3884.1599 v 0" />
  <path d="m 14162.52,-3883.0734 v 0" />
  <path d="m 14158.54,-3882.4932 2.79,-5.6534" />
  <path d="m 14153.07,-3874.9065 5.47,-7.5867" />
  <path d="m 14150.52,-3869.1334 2.55,-5.7731" />
  <path d="m 14144.6,-3866.9868 5.92,-2.1466" />
  <path d="m 14152.879,-3863.06 -8.279,-3.9268" />
  <path d="m 14145.999,-3857.6332 6.88,-5.4268" />
  <path d="m 14148.09,-3855.8998 -2.091,-1.7334" />
  <path d="m 14151.17,-3854.9801 v 0" />
  <path d="m 14153.92,-3850.3201 -5.83,-5.5797" />
  <path d="m 14149.64,-3848.04 4.28,-2.2801" />
  <path d="m 14150,-3847.8535 v 0" />
  <path d="m 14152.75,-3843.7668 v 0" />
  <path d="m 14159.28,-3842.2733 v 0" />
  <path d="m 14159.38,-3839.6198 v 0" />
  <path d="m 14150.65,-3839.78 -1.01,-8.26" />
  <path d="m 14120.74,-3839.1998 4.13,-1.3867" />
  <path d="m 14160.139,-3838.5601 v 0" />
  <path d="m 14142.439,-3837.6801 v 0" />
  <path d="m 14107.12,-3836.5932 v 0" />
  <path d="m 14108.65,-3836.4334 v 0" />
  <path d="m 14107.6,-3836.3201 v 0" />
  <path d="m 14116.04,-3835.3065 v 0" />
  <path d="m 14105.969,-3835.08 6.68,-2.9201" />
  <path d="m 14112.36,-3834.8866 v 0" />
  <path d="m 14112.18,-3834.8 v 0" />
  <path d="m 14111.45,-3834.6066 v 0" />
  <path d="m 14111.4,-3834.1133 v 0" />
  <path d="m 14124.87,-3840.5865 20.2,6.5464" />
  <path d="m 14103.67,-3833.9867 2.299,-1.0933" />
  <path d="m 14105.2,-3833.6533 v 0" />
  <path d="m 14105.431,-3833.5667 v 0" />
  <path d="m 14111.02,-3833.1333 v 0" />
  <path d="m 14110.671,-3832.7534 v 0" />
  <path d="m 14112.441,-3832.5733 v 0" />
  <path d="m 14106.95,-3832.4398 v 0" />
  <path d="m 14112.649,-3838.0001 8.091,-1.1997" />
  <path d="m 14116.18,-3831.7532 v 0" />
  <path d="m 14103.61,-3830.7201 0.06,-3.2666" />
  <path d="m 14140.91,-3828.5465 v 0" />
  <path d="m 14103.09,-3828.2333 -0.24,-0.027" />
  <path d="m 14103.09,-3828.2333 0.06,0.013" />
  <path d="m 14103.149,-3828.22 v 0.1133" />
  <path d="m 14104.35,-3827.7065 -0.74,-3.0136" />
  <path d="m 14103.149,-3828.1067 1.201,0.4002" />
  <path d="m 14145.07,-3834.0401 7.35,6.8466 -1.77,-12.5865" />
  <path d="m 14157.44,-3826.9268 v 0" />
  <path d="m 14150.2,-3824.6399 v 0" />
  <path d="m 14096.24,-3817.4198 6.61,-10.8402" />
  <path d="m 14094.17,-3813.1935 2.07,-4.2263" />
  <path d="m 14092.2,-3804.7134 1.97,-8.4801" />
  <path d="m 14091.55,-3800.3201 0.65,-4.3933" />
  <path d="m 14091.451,-3799.3668 0.1,-0.9533" />
  <path d="m 14093.12,-3789.6332 -1.669,-9.7336" />
  <path d="m 14095.931,-3784.1599 -2.811,-5.4733" />
  <path d="m 14099.68,-3776.3931 -3.749,-7.7668" />
  <path d="m 14099.68,-3776.3931 1.48,4.1931" />
  <path d="m 14101.16,-3772.2 0.79,5.0869" />
  <path d="m 14102.65,-3757.4734 -0.7,-9.6397" />
  <path d="m 14103.5,-3751.3931 -0.85,-6.0803" />
  <path d="m 14103.69,-3746.6599 -0.19,-4.7332" />
  <path d="m 14103.69,-3742.7132 v -3.9467" />
  <path d="m 14103.49,-3742.7067 h 0.171" />
  <path d="m 14103.661,-3742.7067 0.03,-0.01" />
  <path d="m 14103.56,-3737.3199 -0.07,-5.3868" />
  <path d="m 14102.71,-3733.6533 0.85,-3.6666" />
  <path d="m 14102.82,-3731.6601 -0.11,-1.9932" />
  <path d="m 14101.24,-3724.1001 1.58,-7.56" />
  <path d="m 14100.079,-3718.3735 1.161,-5.7266" />
  <path d="m 14099.68,-3710.7399 0.399,-7.6336" />
  <path d="m 14079.359,-3685.96 20.321,-24.7799" />
  <path d="m 14073.34,-3674.86 6.019,-11.1" />
  <path d="m 14071.69,-3669.2734 1.65,-5.5866" />
  <path d="m 14071.46,-3666.9868 0.23,-2.2866" />
  <path d="m 14071.339,-3666.0267 0.121,-0.9601" />
  <path d="m 14071.339,-3666.0267 -9.921,17.8681" />
  <path d="m 14061.418,-3648.1586 -0.407,5.5095" />
  <path d="m 14061.011,-3642.6491 -1.522,9.0092" />
  <path d="m 14055.969,-3625.5798 3.52,-8.0601" />
  <path d="m 14057.201,-3618.4601 -1.232,-7.1197" />
  <path d="m 14058.62,-3614.2799 -1.419,-4.1802" />
  <path d="m 14061.23,-3608.2333 -2.61,-6.0466" />
  <path d="m 14065.35,-3600.3201 -4.12,-7.9132" />
  <path d="m 14071.17,-3594.0666 -0.03,0.013" />
  <path d="m 14069.42,-3593.3399 -4.07,-6.9802" />
  <path d="m 14071.139,-3594.0533 0.03,-0.013" />
  <path d="m 14073.81,-3587.9333 -4.39,-5.4066" />
  <path d="m 14073.981,-3587.36 -0.171,-0.5733" />
  <path d="m 14074.409,-3586.52 -0.428,-0.84" />
  <path d="m 14084.38,-3575.0401 0.123,0.2053" />
  <path d="m 14084.503,-3574.8348 -10.094,-11.6852" />
  <path d="m 14085.19,-3574.3866 -0.54,0.06" />
  <path d="m 14084.65,-3574.3267 -0.147,-0.5081" />
  <path d="m 14086.099,-3574.2931 -0.909,-0.093" />
  <path d="m 14073.614,-3569.3485 -0.08,-0.1847" />
  <path d="m 14076.12,-3569.7933 9.979,-4.4998" />
  <path d="m 14073.614,-3569.3485 2.506,-0.4448" />
  <path d="m 14068.581,-3569.82 5.033,0.4715" />
  <path d="m 14062.511,-3567.2401 6.07,-2.5799" />
  <path d="m 14060.651,-3566.0599 1.86,-1.1802" />
  <path d="m 14055.969,-3562.78 4.682,-3.2799" />
  <path d="m 14053.67,-3561.1065 2.299,-1.6735" />
  <path d="m 14005.17,-3143.7267 v 0" />
  <path d="m 14029.86,-3047.2334 v 0" />
  <path d="m 12954.25,-2989.2601 v 0" />
  <path d="m 12961.909,-2987.66 v 0" />
  <path d="m 12987.18,-2981.6067 v 0" />
  <path d="m 12953.529,-2967.5865 v 0" />
  <path d="m 12970.59,-2960.22 v 0" />
  <path d="m 14034.2,-2979.2601 v 0" />
  <path d="m 13606.92,-2042.3935 h -0.02" />
  <path d="m 15398.19,-2428.4134 v 0" />
</g>
</svg>
