<?xml version="1.0" encoding="UTF-8"?>
<svg  xmlns="http://www.w3.org/2000/svg" xmlns:xlink="http://www.w3.org/1999/xlink" xmlns:go="http://purl.org/svgmap/profile" property="f_code,pop,ypc,nam,soc" viewBox="9000.0 -4500.0 4500.0 4500.0" go:dataArea="9000.0 -4500.0 4500.0 4500.0" >
<metadata>
 <rdf:RDF xmlns:rdf="http://www.w3.org/1999/02/22-rdf-syntax-ns#" xmlns:crs="http://opengis.org/xmldtds/transformations.dtd" xmlns:svg="http://www.w3.org/svg" >
  <rdf:Description>
   <crs:CoordinateReferenceSystem rdf:resource="http://purl.org/crs/84" svg:transform="matrix(100.0,0.0,0.0,-100.0,0.0,0.0)" />
  </rdf:Description>
 </rdf:RDF>
</metadata>
<globalCoordinateSystem srsName="http://purl.org/crs/84" transform="matrix(100.0,0.0,0.0,-100.0,0.0,0.0)" />
<defs>
 <g id="p0" >
  <circle cx="0.0" cy="0.0" r="3" stroke="green" stroke-width="2.0" vector-effect="non-scaling-stroke" />
 </g>
</defs>
<g fill="#ff0000" fill-rule="evenodd" opacity="0.5" >
<path content="AL020,-99999999,0,TOTTORI,JPN" xlink:title="AL020" d="M13425.2014,-3548.2834L13423.7885,-3548.8895L13422.5952,-3549.728L13422.2122,-3549.1268L13421.8933,-3549.7211L13421.8842,-3550.2956L13422.0169,-3550.7336L13422.5708,-3551.1524L13421.936,-3551.82L13422.2763,-3551.9997L13423.1003,-3551.4103L13423.8388,-3550.8888L13424.35,-3550.5493L13424.2783,-3549.7677L13424.7086,-3549.2203L13425.3891,-3548.7904L13425.2014,-3548.2834Z"/>
<path content="AL020,-99999999,0,MATSUE,JPN" xlink:title="AL020" d="M13303.9124,-3546.2322L13303.569,-3546.4752L13303.8467,-3547.5456L13304.7668,-3547.6784L13304.689,-3548.4348L13306.2347,-3549.1993L13306.2332,-3548.3036L13306.575,-3548.1262L13306.4636,-3547.1367L13306.5521,-3547.121L13306.1874,-3547.0882L13305.7175,-3546.8456L13305.0934,-3546.349L13304.6555,-3546.3093L13303.9124,-3546.2322Z"/>
<path content="AL020,-99999999,0,MATSUE,JPN" xlink:title="AL020" d="M13305.5359,-3544.4313L13304.3579,-3544.6339L13304.8492,-3545.647L13305.191,-3546.1502L13305.4199,-3546.4813L13305.6915,-3546.6736L13306.5582,-3546.9265L13307.3868,-3546.8655L13308.0353,-3546.5103L13308.1772,-3546.4569L13308.2062,-3546.0442L13307.225,-3546.0484L13307.2327,-3545.7958L13306.2225,-3545.8225L13306.2897,-3545.4563L13305.3925,-3545.5082L13305.5359,-3544.4313Z"/>
<path content="AL020,-99999999,0,HIMEJI,JPN" xlink:title="AL020" d="M13466.51,-3476.7933L13466.0797,-3476.9733L13466.2399,-3477.2533L13465.9195,-3477.3731L13466.1209,-3477.6932L13466.51,-3477.6867L13466.89,-3477.9533L13466.4001,-3478.4267L13466.1407,-3478.3466L13465.2206,-3477.0599L13465.0009,-3477.0535L13464.9597,-3477.4399L13465.7501,-3478.7132L13465.9592,-3479.3968L13466.4291,-3479.4697L13466.777,-3480.1838L13467.1082,-3480.2097L13468.2693,-3481.9855L13467.1478,-3482.7549L13467.2256,-3483.0078L13466.0553,-3483.4557L13466.2659,-3484.0767L13467.6331,-3483.4702L13467.9581,-3483.9088L13468.3456,-3483.8661L13468.9087,-3484.9262L13470.0439,-3484.9594L13470.3644,-3485.6503L13471.1365,-3485.8406L13471.0678,-3485.0143L13470.7367,-3484.9655L13470.6512,-3483.5663L13471.8155,-3483.5079L13471.7804,-3482.2926L13470.1721,-3482.4154L13469.7922,-3481.9305L13469.014,-3482.0839L13467.5888,-3479.7325L13468.1198,-3479.3934L13468.0969,-3479.1866L13467.4301,-3479.2953L13467.0822,-3478.5816L13467.3294,-3477.6466L13466.51,-3476.7933Z"/>
<path content="AL020,-99999999,0,HIMEJI,JPN" xlink:title="AL020" d="M13463.2904,-3476.7265L13463.2904,-3477.2533L13463.15,-3477.2533L13463.15,-3477.7466L13463.3804,-3477.9266L13464.36,-3478.0266L13464.3494,-3478.3401L13462.2101,-3478.3733L13462.2101,-3477.98L13462.6007,-3477.9533L13462.8204,-3477.7664L13462.8204,-3477.3201L13462.3596,-3477.3132L13462.3505,-3476.9402L13462.3199,-3477.1599L13462.1796,-3477.1534L13461.1099,-3476.7735L13460.82,-3477.4933L13461.2701,-3477.7935L13462.0087,-3478.8567L13462.8662,-3478.8872L13462.7396,-3479.826L13462.8891,-3480.7903L13463.4995,-3480.7503L13463.5635,-3480.2464L13465.4236,-3479.9648L13465.2664,-3479.4594L13464.3494,-3479.5883L13464.5584,-3478.7418L13464.5706,-3477.9533L13464.5004,-3476.7334L13463.2904,-3476.7265Z"/>
<path content="AL020,-99999999,0,HIMEJI,JPN" xlink:title="AL020" d="M13469.4595,-3477.0332L13468.7302,-3477.1198L13469.104,-3478.5538L13468.4891,-3478.9383L13468.6188,-3479.3751L13469.6472,-3479.155L13469.5724,-3478.7415L13471.5698,-3478.5305L13471.5744,-3478.2784L13469.693,-3478.1696L13469.4595,-3477.0332Z"/>
<path content="AL020,-99999999,0,OKAYAMA,JPN" xlink:title="AL020" d="M13392.9108,-3464.2872L13392.4194,-3465.0112L13391.452,-3464.9002L13390.4297,-3464.8109L13390.3961,-3466.0255L13390.7471,-3466.3307L13390.7608,-3466.8583L13391.0782,-3467.3691L13391.9327,-3467.5697L13391.9113,-3468.3029L13391.188,-3468.3804L13391.2888,-3468.7721L13391.8701,-3468.784L13391.8854,-3469.22L13392.6849,-3469.3733L13392.7017,-3468.8004L13393.0374,-3468.6924L13393.0908,-3467.7765L13393.1091,-3467.1116L13393.2877,-3466.7023L13393.7073,-3466.5504L13394.1177,-3466.7191L13394.4092,-3465.2573L13393.1381,-3465.0944L13393.132,-3464.3375L13392.9108,-3464.2872Z"/>
<path content="AL020,-99999999,0,AKASHI,JPN" xlink:title="AL020" d="M13500,-3464.2639L13500,-3464.2639L13499.6796,-3464.2399L13499.2493,-3464.18L13499.4904,-3464.4268L13499.3408,-3464.4402L13499.2798,-3464.4466L13498.9807,-3464.5134L13498.9807,-3464.2399L13498.1506,-3464.1399L13497.29,-3464.3665L13496.6507,-3464.7331L13496.55,-3464.6465L13496.2006,-3464.9265L13495.8466,-3465.1688L13496.1945,-3465.6574L13496.1914,-3466.1392L13496.8842,-3466.3471L13497.1634,-3465.8432L13497.554,-3465.3625L13498.3017,-3465.7085L13499.437,-3465.7196L13499.9756,-3465.654L13500,-3465.5922L13500,-3465.5922Z"/>
<path content="AL020,-99999999,0,FUKUYAMA,JPN" xlink:title="AL020" d="M13336.3663,-3446.4428L13335.8231,-3447.0055L13335.4507,-3447.4564L13335.9116,-3447.8096L13335.5438,-3448.0545L13334.7137,-3448.0377L13334.4925,-3448.9738L13335.1807,-3449.1707L13336.2762,-3449.6056L13336.7142,-3449.8436L13337.0682,-3450.0568L13337.3062,-3449.4427L13338.385,-3449.5331L13338.5666,-3449.995L13339.2838,-3450.1011L13338.9725,-3449.3839L13338.8474,-3448.8541L13338.8382,-3448.2121L13338.3728,-3448.019L13338.0859,-3448.3574L13337.3703,-3448.1598L13337.6343,-3447.6833L13337.3947,-3447.2889L13336.3663,-3446.4428Z"/>
<path content="AL020,-99999999,0,HIROSHIMA,JPN" xlink:title="AL020" d="M13244.9295,-3434.8L13244.6701,-3434.8133L13244.7205,-3435.0132L13243.7286,-3435.2589L13244.9326,-3438.3354L13244.7708,-3438.3339L13244.5007,-3438.3904L13243.3395,-3435.379L13242.8894,-3435.5331L13242.7704,-3435.5732L13242.5247,-3435.7605L13244.0018,-3438.4174L13243.837,-3438.5548L13243.6707,-3438.5548L13242.2806,-3435.9467L13242.1997,-3435.8269L13241.98,-3435.92L13241.2506,-3436.2465L13241.4215,-3436.4708L13241.6412,-3436.779L13242.485,-3437.7853L13242.8894,-3438.6005L13242.7399,-3438.6642L13242.6346,-3438.7066L13242.2958,-3438.2603L13241.6092,-3437.4233L13240.5075,-3437.1559L13239.8392,-3437.2055L13239.7827,-3437.8925L13240.4526,-3438.4857L13241.4856,-3438.9744L13242.3233,-3439.5267L13243.4113,-3440.0398L13244.2505,-3440.5231L13244.7617,-3440.9283L13244.8883,-3441.2075L13245.163,-3441.9498L13245.7901,-3441.5318L13246.1609,-3441.267L13246.4188,-3441.0679L13247.6944,-3441.0591L13247.908,-3440.583L13247.2015,-3440.0352L13247.9904,-3439.9429L13249.025,-3439.7434L13249.8469,-3438.7271L13249.9654,-3437.9806L13250.0611,-3437.6935L13250.176,-3437.636L13250.4441,-3437.6456L13250.5015,-3437.5499L13250.6068,-3437.4637L13250.8078,-3437.3871L13251.0184,-3437.4446L13251.1993,-3437.5134L13251.5594,-3437.5L13251.5121,-3437.5851L13251.6083,-3437.5687L13251.6144,-3436.7428L13250.8774,-3436.4689L13249.8337,-3436.2324L13249.3912,-3436.8622L13248.8632,-3436.9156L13248.5016,-3437.5938L13247.699,-3436.882L13247.4075,-3436.5749L13247.5494,-3435.8219L13247.5342,-3435.5671L13246.965,-3435.1967L13246.9528,-3435.1952L13246.4294,-3435.3134L13245.6894,-3435.1734L13245.8008,-3436.3667L13245.5093,-3435.5801L13244.9295,-3435.1334L13244.9295,-3434.8Z"/>
<path content="AL020,-99999999,0,TAKAMATSU,JPN" xlink:title="AL020" d="M13403.8696,-3431.7863L13403.7537,-3432.0602L13404.2206,-3432.2712L13404.425,-3433.2359L13404.3655,-3433.5564L13403.7064,-3433.1837L13403.5629,-3433.4801L13403.5782,-3434.1454L13402.8275,-3434.3449L13402.7206,-3435.4053L13403.1998,-3435.3001L13403.1998,-3434.98L13402.8702,-3434.98L13402.8702,-3434.8469L13403.7399,-3434.9335L13403.7003,-3435.0266L13403.36,-3435.0266L13403.3401,-3435.26L13403.7399,-3435.2135L13403.9505,-3435.2333L13404.0207,-3435.2135L13404.1595,-3435.2669L13404.1702,-3435.3733L13404.57,-3435.5202L13404.5395,-3435.22L13404.7104,-3435.2467L13405.2994,-3435.1734L13405.2795,-3435.3001L13405.4306,-3435.26L13405.69,-3435.1334L13405.5496,-3434.84L13405.5893,-3434.8267L13405.9006,-3435.1334L13405.9097,-3434.7801L13405.9494,-3434.7801L13406.0806,-3435.3001L13406.2408,-3435.2066L13406.3202,-3435.3535L13406.0898,-3435.3733L13406.1798,-3435.4332L13406.0104,-3435.4465L13405.5405,-3435.4599L13405.4504,-3435.6201L13406.2302,-3435.7735L13406.3599,-3435.7666L13406.2302,-3435.8734L13406.2698,-3436.24L13406.9702,-3436.2L13406.7795,-3434.7534L13406.5308,-3434.7733L13406.5201,-3434.7466L13406.8298,-3434.7065L13406.8802,-3435.1334L13407.4203,-3435.1334L13407.4402,-3436.1801L13407.6904,-3436.1599L13407.6797,-3435.9333L13407.8995,-3435.9333L13407.8995,-3434.7599L13407.8964,-3434.6989L13407.6675,-3434.7553L13407.7332,-3434.137L13407.3456,-3434.1106L13407.3807,-3433.7212L13406.3019,-3433.6426L13406.424,-3433.0017L13405.7419,-3432.3994L13405.0827,-3432.0953L13404.5837,-3432.1365L13403.8696,-3431.7863Z"/>
<path content="AL020,-99999999,0,HIROSHIMA,JPN" xlink:title="AL020" d="M13246.2708,-3434.0199L13245.8008,-3434.3533L13245.9305,-3435.1868L13245.9702,-3435.12L13246.0907,-3435.12L13246.3501,-3434.4067L13246.2708,-3434.0199Z"/>
<path content="AL020,-99999999,0,KURE,JPN" xlink:title="AL020" d="M13254.5029,-3419.6815L13254.0604,-3420.2801L13254.3503,-3420.8801L13253.1204,-3422.1333L13253.7292,-3422.8535L13253.9703,-3422.7066L13254.1702,-3422.7932L13254.6799,-3422.5666L13254.9698,-3422.6933L13254.6295,-3422.9866L13254.7699,-3422.9198L13254.95,-3423.0202L13255.22,-3422.8733L13255.2902,-3423.1533L13255.13,-3423.2735L13255.3192,-3423.4734L13255.5298,-3423.3734L13255.7205,-3423.7267L13255.5603,-3423.9933L13255.6595,-3424.2001L13255.5298,-3424.2931L13255.3406,-3424.0131L13255.1193,-3424.2466L13254.9393,-3424.0601L13254.8004,-3424.1199L13254.4495,-3424.0269L13254.1,-3424.2466L13254.2694,-3424.4202L13254.4601,-3424.3L13254.3503,-3424.4465L13254.6204,-3424.4465L13253.8895,-3424.7601L13254.0802,-3424.5068L13253.8605,-3424.2867L13253.4805,-3424.3599L13253.0792,-3424.1333L13252.89,-3424.3599L13252.3804,-3424.5731L13252.8305,-3424.8333L13252.9297,-3425.3201L13252.8,-3425.56L13252.4597,-3425.8598L13251.7899,-3425.5665L13251.4099,-3425.6866L13251.6708,-3426.2199L13252.4612,-3426.8673L13253.2089,-3426.231L13253.2776,-3424.5575L13254.0695,-3424.8558L13255.1834,-3424.7276L13255.9479,-3425.7137L13257.6874,-3425.8785L13258.0521,-3425.7973L13258.7555,-3425.5196L13259.5718,-3425.2216L13259.7946,-3424.5167L13259.9609,-3423.856L13260.1166,-3423.447L13260.6995,-3423.418L13260.8856,-3424.2958L13262.2406,-3424.3809L13262.5717,-3424.4362L13262.8983,-3425.2491L13263.205,-3425.2117L13263.2675,-3423.6759L13263.4064,-3422.9916L13263.678,-3421.7831L13263.2355,-3421.7701L13263.0859,-3422.0181L13262.558,-3422.049L13262.4176,-3421.4024L13262.0499,-3421.2799L13261.8195,-3421.0464L13261.5997,-3421.2799L13261.5707,-3422.3866L13261.3205,-3422.4335L13261.1206,-3422.3866L13261.0199,-3422.16L13260.3592,-3422.3267L13260.4996,-3422.6532L13259.5795,-3423.0732L13259.5703,-3422.8733L13259.0683,-3422.1458L13259.0378,-3422.7047L13259.0988,-3423.2571L13259.1583,-3423.8327L13259.2209,-3424.3164L13258.934,-3424.5605L13258.5129,-3424.6861L13258.1894,-3424.4473L13257.5653,-3424.1306L13256.9992,-3423.7244L13256.5582,-3423L13256.1432,-3422.2767L13255.4214,-3421.6358L13255.3207,-3421.3806L13255.3955,-3420.9236L13254.5029,-3419.6815Z"/>
<path content="AL020,-99999999,0,YAMAGUCHI,JPN" xlink:title="AL020" d="M13145.6131,-3415.6239L13144.9524,-3416.589L13145.5902,-3417.0959L13145.7764,-3416.7114L13146.5851,-3417.1558L13146.1334,-3417.8295L13147.0749,-3418.8999L13147.4579,-3418.4769L13147.9767,-3418.6111L13148.8785,-3418.8747L13149.147,-3418.5165L13148.732,-3417.9951L13147.7264,-3417.083L13147.142,-3416.6012L13145.9351,-3415.8428L13145.6131,-3415.6239Z"/>
<path content="AL020,-99999999,0,TOKUSHIMA,JPN" xlink:title="AL020" d="M13455.1117,-3404.8515L13453.9398,-3405.3226L13454.2099,-3405.7377L13454.3945,-3406.3126L13454.6036,-3407.0023L13453.9932,-3407.0885L13452.8015,-3407.0545L13451.976,-3406.7951L13451.8021,-3407.206L13450.3113,-3406.9176L13450.1938,-3407.3521L13451.5182,-3407.6164L13451.5366,-3408.1898L13452.7191,-3408.5899L13452.7512,-3408.3382L13452.3376,-3408.2657L13452.5116,-3407.7858L13453.2578,-3407.9071L13453.4943,-3408.6658L13453.9642,-3408.7158L13454.0817,-3408.3504L13453.7476,-3408.416L13453.8391,-3407.9124L13454.2847,-3407.756L13455.0034,-3407.8999L13454.9698,-3408.1978L13454.95,-3409.2979L13456.1478,-3408.942L13456.1554,-3408.4839L13456.9321,-3408.4221L13456.8604,-3407.8251L13456.7856,-3407.2971L13458.905,-3406.4911L13458.9676,-3406.1245L13458.4671,-3406.2347L13458.2565,-3405.5679L13457.6721,-3405.769L13457.251,-3406.1092L13456.7993,-3406.5178L13456.691,-3406.448L13456.9183,-3406.0829L13457.1167,-3405.8327L13457.6492,-3405.4478L13457.5974,-3405.2639L13457.0709,-3405.2818L13456.4819,-3405.6664L13455.8701,-3405.8903L13455.8502,-3405.3856L13455.1865,-3405.3795L13455.1117,-3404.8515Z"/>
<path content="AL020,-99999999,0,IMABARI,JPN" xlink:title="AL020" d="M13298.6923,-3404.1183L13298.5184,-3404.39L13298.8937,-3404.879L13298.7427,-3405.3116L13298.0255,-3405.1598L13297.5159,-3405.5622L13298.4604,-3406.4526L13298.4421,-3407.14L13299.5239,-3408.0788L13299.6002,-3408.0952L13299.6796,-3407.9533L13300.1999,-3407.2136L13300.4807,-3406.8333L13300.6195,-3406.5666L13300.7507,-3406.8268L13300.7996,-3406.9668L13301.5198,-3406.4732L13301.8005,-3406.3534L13301.8707,-3406.0867L13300.9506,-3405.6538L13301.0406,-3405.3802L13300.6607,-3405.1205L13300.3448,-3405.5271L13298.6923,-3404.1183Z"/>
<path content="AL020,-99999999,0,SHUNAN,JPN" xlink:title="AL020" d="M13182.4982,-3403.2967L13181.7245,-3403.7514L13181.5964,-3403.5919L13181.1707,-3403.8334L13181.1508,-3403.8467L13181.1401,-3403.8601L13180.7999,-3404.0333L13180.5893,-3403.8734L13180.5801,-3404.06L13180.3604,-3404.1L13180.3604,-3404.2866L13180.2002,-3404.0733L13180.22,-3404.2801L13179.6509,-3404.0333L13179.4495,-3404.7668L13179.6799,-3404.6867L13179.9698,-3404.9133L13179.7897,-3404.8801L13179.8203,-3405.1132L13179.5502,-3404.9667L13179.5197,-3405.0335L13179.361,-3404.9599L13179.2099,-3405.0667L13179.5197,-3405.4867L13179.6997,-3405.3333L13179.6005,-3405.6L13179.6906,-3406.0066L13179.2801,-3405.5401L13178.8803,-3405.3467L13178.7201,-3405.4665L13178.7399,-3405.9444L13179.3854,-3405.9891L13179.303,-3406.4926L13179.9728,-3406.9317L13180.1392,-3406.4083L13180.6519,-3406.1512L13181.1081,-3405.938L13181.4209,-3405.2822L13181.3049,-3404.8405L13182.5089,-3404.1256L13182.8094,-3403.6995L13182.4982,-3403.2967Z"/>
<path content="AL020,-99999999,0,CHOFU,JPN" xlink:title="AL020" d="M13099.5193,-3399.1001L13098.7289,-3399.5079L13098.5275,-3399.6838L13098.7213,-3400.6561L13098.9822,-3401.4015L13098.5413,-3401.9588L13099.1852,-3401.685L13100.6668,-3402.8114L13101.2009,-3402.7267L13101.7502,-3402.42L13102.0294,-3402L13101.2604,-3401.16L13100.4303,-3401.68L13100.7492,-3402.0332L13100.5905,-3402.1465L13100.2106,-3401.7399L13100.3098,-3401.4801L13100.0397,-3400.84L13100.0595,-3400.5466L13100.5005,-3400.3201L13100.2899,-3399.9268L13099.6796,-3400.1865L13099.6704,-3400.2132L13099.6796,-3400.2399L13099.7406,-3400.3201L13099.6796,-3400.3868L13099.6201,-3400.3201L13099.6796,-3400.0534L13099.7299,-3400.0267L13099.6796,-3399.6799L13099.6094,-3399.5201L13099.2294,-3399.6334L13099.3301,-3399.3599L13099.4293,-3399.3668L13099.5193,-3399.1001Z"/>
<path content="AL020,-99999999,0,SHIMONOSEKI,JPN" xlink:title="AL020" d="M13092.6514,-3392.4301L13092.3141,-3392.5468L13091.774,-3392.9237L13091.3315,-3392.7242L13090.8951,-3393.9262L13090.4404,-3394.3932L13090.6418,-3394.8032L13090.7104,-3395.0333L13091.0706,-3395.4067L13091.5695,-3395.0867L13091.4001,-3394.6335L13091.2704,-3394.1135L13091.7007,-3394.6732L13091.89,-3395.2202L13090.95,-3395.5269L13090.77,-3395.3133L13090.5197,-3395.3869L13091.2399,-3396.4001L13091.2598,-3397.0867L13091.6107,-3397.9332L13091.4658,-3398.0988L13091.4886,-3398.1197L13091.3742,-3398.204L13091.2506,-3398.3467L13091.0095,-3398.7267L13090.8798,-3399.1798L13090.7898,-3399.2466L13090.8401,-3400.0465L13091.2201,-3400.3201L13091.5131,-3401.0849L13092.3721,-3400.6542L13092.4637,-3399.9409L13092.8879,-3399.3134L13092.5705,-3398.6526L13092.865,-3398.3952L13092.2119,-3397.4182L13092.9199,-3397.2458L13093.3899,-3397.3984L13095.4758,-3396.4443L13095.4544,-3396.386L13094.5694,-3395.6734L13094.1498,-3395.5467L13093.9606,-3395.2202L13093.7103,-3394.9268L13093.3197,-3394.7533L13093.3197,-3394.9333L13093.5806,-3395.0401L13093.0603,-3394.9669L13093.0801,-3394.7201L13092.3508,-3394.7334L13092.3004,-3394.5133L13092.6407,-3394.4534L13092.6407,-3394.3333L13092.2806,-3394.3932L13092.2592,-3394.2734L13092.8299,-3394.1532L13092.7505,-3393.8267L13091.6595,-3393.8202L13091.9006,-3393.7134L13092.1509,-3393.7199L13092.3004,-3393.5799L13092.4606,-3393.1999L13092.7505,-3392.6201L13092.6514,-3392.4301Z"/>
<path content="AL020,-99999999,0,SANYOONODA,JPN" xlink:title="AL020" d="M13117.6041,-3395.7481L13116.2994,-3396.18L13116.8793,-3396.3402L13116.5695,-3396.4203L13116.5802,-3396.6068L13116.3498,-3396.5336L13115.9897,-3396.4733L13116.2201,-3397.0467L13117.2195,-3396.9067L13116.7099,-3397.1333L13117.0303,-3397.3267L13117.3096,-3397.3L13117.3798,-3397.4667L13116.9006,-3397.4869L13116.8396,-3397.7467L13116.6992,-3397.72L13116.1301,-3397.3534L13116.0492,-3397.7531L13116.6107,-3397.8268L13116.0095,-3398.5802L13116.1697,-3398.9399L13116.9098,-3399.2466L13117.8452,-3399.387L13117.7567,-3398.4875L13117.9031,-3397.8043L13118.0847,-3396.9841L13118.0496,-3396.6381L13117.5766,-3396.7808L13117.6041,-3395.7481Z"/>
<path content="AL020,-99999999,0,NIIHAMA,JPN" xlink:title="AL020" d="M13326.6113,-3394.6239L13326.1139,-3394.7746L13324.6796,-3395.4933L13324.4904,-3395.6066L13324.6796,-3395.9267L13325.4105,-3395.6333L13324.8398,-3396.0533L13325.0504,-3396.2799L13325.3204,-3396.18L13325.5005,-3396.1533L13325.5508,-3396.3467L13325.0107,-3396.4134L13324.7894,-3397.5266L13325.0198,-3397.7001L13325.5005,-3398.0598L13325.8804,-3398.0598L13326.0498,-3397.7066L13325.8698,-3397.6803L13326.0208,-3396.5599L13326.2009,-3396.3135L13326.3,-3396.9398L13326.7197,-3396.9799L13326.7105,-3396.7533L13326.8997,-3396.7533L13327.0493,-3396.8266L13326.6006,-3397.2534L13326.9394,-3397.5136L13327.0996,-3397.4266L13327.3804,-3397.5334L13327.7802,-3397.3202L13327.8702,-3397.3934L13326.7395,-3397.9733L13326.9608,-3398.3601L13327.6108,-3398.0736L13327.8107,-3398.14L13327.6108,-3398.5065L13328.1204,-3398.7L13328.5202,-3398.0068L13328.8193,-3398.0934L13328.9307,-3398.3002L13329.3793,-3398.18L13330.1163,-3398.2468L13330.4779,-3397.2958L13330.0156,-3397.1489L13330.2216,-3396.6934L13329.6509,-3396.4985L13330.1132,-3395.6352L13329.8996,-3395.4472L13329.1321,-3396.4882L13328.7231,-3396.4111L13328.8773,-3395.8172L13328.5263,-3395.6036L13328.8162,-3395.0352L13327.8946,-3394.7414L13327.0203,-3394.6548L13326.6113,-3394.6239Z"/>
<path content="AL020,-99999999,0,UBE,JPN" xlink:title="AL020" d="M13125.9003,-3392.5999L13124.8596,-3392.7402L13124.6796,-3392.9867L13124.6796,-3393.1866L13124.8108,-3393.1068L13124.7894,-3393.2335L13125.1007,-3393.3933L13125.3906,-3393.1068L13125.5203,-3393.1866L13125.1801,-3393.6802L13124.6796,-3393.4734L13123.1796,-3392.7132L13122.9599,-3393L13123.41,-3393.4132L13123.32,-3393.6401L13124.2493,-3393.8202L13124.6796,-3394.2333L13124.6796,-3394.3268L13124.6094,-3394.3066L13124.3393,-3394.1734L13124.1806,-3394.2001L13124.53,-3394.5934L13124.3103,-3394.5801L13124.2294,-3394.6667L13124.0097,-3394.6133L13124.1302,-3394.8467L13123.8403,-3395.1332L13123.6404,-3395.0401L13123.2697,-3394.7868L13123.2803,-3394.1601L13122.9202,-3393.9934L13122.5464,-3394.5946L13122.29,-3394.7685L13122.5861,-3395.3545L13122.4243,-3395.8305L13122.7707,-3397.5208L13123.4406,-3397.2713L13123.1979,-3396.7106L13123.6023,-3396.3127L13124.614,-3396.8575L13124.6735,-3395.7573L13125.441,-3395.7409L13125.824,-3393.9896L13126.3504,-3393.6169L13126.1307,-3392.7002L13125.9003,-3392.5999Z"/>
<path content="AL020,-99999999,0,SANYOONODA,JPN" xlink:title="AL020" d="M13117.9703,-3393.1332L13117.7704,-3393.1469L13116.0599,-3395.1267L13116.4612,-3395.4613L13116.9617,-3394.8376L13117.3828,-3394.6239L13118.4402,-3393.2133L13117.9703,-3393.1332Z"/>
<path content="AL020,-99999999,0,KITAKYUSHU,JPN" xlink:title="AL020" d="M13087.2299,-3383.9401L13086.8591,-3384.4746L13087.3489,-3385.4542L13087.3398,-3386.2122L13087.1277,-3386.4914L13086.4532,-3386.9164L13085.5804,-3387.0918L13084.7046,-3387.1525L13083.934,-3387.0049L13083.8654,-3386.409L13083.2855,-3386.2118L13082.9422,-3385.5972L13082.4509,-3385.6976L13082.4081,-3386.1809L13082.0526,-3386.2328L13081.4926,-3385.7368L13081.2469,-3385.741L13081.1783,-3386.3163L13080.2414,-3386.0794L13079.5303,-3386.1374L13078.1342,-3386.1839L13076.6495,-3385.9795L13075.7446,-3385.9486L13074.8123,-3385.8955L13074.6277,-3386.2202L13074.5026,-3386.7046L13075.2975,-3386.7371L13075.2762,-3386.9904L13074.8367,-3386.9518L13074.8001,-3387.4466L13077.2095,-3387.9536L13076.9897,-3387.5267L13077.15,-3387.4802L13077.4704,-3388.0669L13078.1494,-3388.2L13077.8702,-3387.7132L13078.1494,-3387.8201L13078.3997,-3388.2599L13079.4998,-3388.5136L13080.1697,-3389.1266L13080.4001,-3388.1668L13079.8798,-3387.3867L13080.0797,-3387.4134L13080.7098,-3387.7602L13080.6,-3388.48L13080.481,-3389.1468L13081.5308,-3389.7331L13081.5002,-3389.9734L13082.0099,-3390.2599L13081.8909,-3390.6868L13082.1594,-3390.3866L13082.2998,-3390.6734L13082.1503,-3390.9134L13082.3303,-3391.9868L13084.2499,-3392.7265L13085.4294,-3392.9466L13085.6201,-3392.8932L13085.6903,-3392.44L13085.8704,-3392.5068L13086.0001,-3392.3866L13084.9106,-3391.9868L13084.7397,-3391.9201L13084.8907,-3391.6267L13085.2097,-3391.7534L13084.9503,-3391.6267L13084.9701,-3391.4867L13086.38,-3391.9868L13086.6409,-3391.9868L13086.85,-3391.8133L13084.9197,-3390.9801L13084.7397,-3390.5399L13085.0098,-3390.4999L13085.051,-3390.4934L13085.17,-3390.4266L13085.6094,-3390.6601L13085.4004,-3390.8669L13086.2,-3391.2334L13086.4502,-3391.0534L13086.6501,-3391.1266L13086.5097,-3391.3334L13087.1796,-3391.5333L13087.8494,-3390.9332L13087.5198,-3390.7932L13087.6205,-3390.62L13087.9898,-3390.7467L13088.3194,-3390.5266L13087.1796,-3390.0002L13087.03,-3389.9334L13086.6196,-3390.0665L13086.3007,-3389.5535L13086.5799,-3389.7934L13087.1796,-3389.5599L13087.3795,-3389.5535L13087.2803,-3389.7133L13088.6795,-3390.2065L13089.2395,-3389.6133L13088.3194,-3389.6L13087.6907,-3389.0068L13088.0096,-3389.0133L13088.0707,-3389.1933L13089.1693,-3389.32L13088.6993,-3388.8535L13088.8397,-3388.7733L13089.1006,-3388.7733L13089.3707,-3389.1731L13089.74,-3389.22L13089.9796,-3389.4135L13090.1703,-3389.4135L13090.1001,-3389.1666L13089.8407,-3389.0667L13090.1901,-3389.1399L13090.48,-3389.4199L13091.42,-3389.5802L13091.9708,-3389.7533L13092.0197,-3389.9067L13092.9703,-3390.6933L13093.6905,-3391.9868L13094.0903,-3392.6933L13093.9499,-3392.6601L13094.4901,-3393.7801L13095.2408,-3394.1467L13095.2606,-3394.3199L13095.6497,-3394.5469L13095.7397,-3394.4668L13096.1395,-3394.7468L13096.2997,-3394.6201L13096.2402,-3394.7533L13096.1197,-3395.38L13096.2204,-3395.1935L13096.2997,-3395.3133L13096.4203,-3395.2534L13097.4136,-3395.0356L13097.5693,-3394.6423L13097.3083,-3394.0956L13096.5195,-3394.3157L13095.7748,-3394.0983L13095.1355,-3393.6958L13094.606,-3393.3601L13094.371,-3392.675L13093.9651,-3391.7629L13094.5618,-3391.5234L13094.6045,-3391.04L13093.8202,-3390.3183L13093.2907,-3389.9139L13092.6483,-3389.3963L13091.7099,-3389.0327L13090.9973,-3389.0217L13090.2771,-3388.7352L13089.7141,-3388.1016L13089.299,-3386.7764L13088.9008,-3386.1629L13088.1699,-3385.3943L13087.2299,-3383.9401Z"/>
<path content="AL020,-99999999,0,KITAKYUSHU,JPN" xlink:title="AL020" d="M13082.1594,-3393.0332L13081.3797,-3393.42L13081.1493,-3393.1267L13080.8899,-3393.2667L13079.0894,-3393.42L13078.3997,-3393.4933L13078.3798,-3394.3134L13078.45,-3394.0868L13079.1107,-3394.0468L13079.1306,-3394.5934L13079.8996,-3394.5999L13080.7907,-3394.9268L13080.9204,-3394.6934L13081.1295,-3394.7735L13081.3705,-3394.3333L13083.1604,-3394.9799L13084.4604,-3393.9266L13082.1594,-3393.0332Z"/>
<path content="AL020,-99999999,0,KITAKYUSHU,JPN" xlink:title="AL020" d="M13075.2609,-3387.8136L13075.0504,-3387.8666L13074.6796,-3388.4399L13074.5499,-3388.8401L13074.3301,-3388.8199L13073.584,-3389.5226L13073.7915,-3390.1623L13074.0372,-3390.1119L13074.025,-3389.653L13075.4959,-3389.2605L13076.2985,-3389.6374L13077.7832,-3389.8422L13079.0695,-3389.7514L13079.5975,-3390.11L13079.4464,-3390.6181L13078.7994,-3391.0652L13078.2578,-3391.304L13077.8748,-3391.3795L13078.2104,-3391.6264L13078.2791,-3392.2226L13078.3798,-3393.2175L13078.3112,-3393.3403L13080.6198,-3393.0534L13080.5695,-3392.9535L13081.16,-3392.6266L13081.4301,-3392.6933L13081.7703,-3392.2935L13081.7307,-3391.9868L13081.6498,-3391.6931L13080.9509,-3391.7866L13080.6305,-3391.6733L13080.5298,-3391.2731L13080.7404,-3391.2399L13080.9204,-3391.4665L13081.2302,-3391.4268L13081.4407,-3391.4135L13081.601,-3391.42L13081.4407,-3390.3336L13081.1203,-3390.1932L13079.6799,-3389.0865L13078.3005,-3389.0598L13078.2501,-3389.1998L13078.0396,-3389.04L13078.0502,-3389.1869L13077.98,-3389.0335L13077.8198,-3389.0133L13077.8305,-3389.18L13077.6199,-3388.9935L13077.6093,-3389.1468L13077.5696,-3388.9935L13076.9806,-3388.9L13076.2009,-3388.5799L13076.2695,-3388.4869L13076.8295,-3388.7669L13078.0899,-3388.8134L13078.27,-3388.6333L13075.2609,-3387.8136Z"/>
<path content="AL020,-99999999,0,MATSUYAMA,JPN" xlink:title="AL020" d="M13270.9595,-3385.4069L13270.7703,-3386.1134L13271.0495,-3385.8269L13271.17,-3386.1069L13271.0297,-3386.0867L13270.8893,-3386.3335L13270.6802,-3386.3468L13270.5902,-3386.6936L13270.8893,-3386.5665L13271.1197,-3386.6936L13271.3394,-3386.52L13271.3501,-3386.6066L13271.8002,-3386.4933L13272.9614,-3386.4006L13272.9935,-3385.5984L13270.9595,-3385.4069Z"/>
<path content="AL020,-99999999,0,MATSUYAMA,JPN" xlink:title="AL020" d="M13275.3525,-3382.1564L13275.2701,-3382.8426L13275.0656,-3384.5348L13274.4339,-3384.5623L13274.4156,-3384.9976L13275.7507,-3385.244L13275.5783,-3386.1111L13276.1581,-3386.0134L13276.1566,-3385.3477L13277.1515,-3385.1707L13277.4979,-3385.4332L13278.4012,-3385.4599L13278.714,-3385.194L13279.0176,-3384.4685L13278.6774,-3384.0679L13278.8269,-3383.0627L13278.3356,-3383.0025L13277.8854,-3383.2874L13277.626,-3382.2239L13276.8799,-3382.3624L13276.5411,-3382.6279L13276.062,-3382.2464L13275.3525,-3382.1564Z"/>
<path content="AL020,-99999999,0,FUKUOKA,JPN" xlink:title="AL020" d="M13043.222,-3354.0642L13042.8131,-3354.163L13043.1137,-3355.2605L13042.7658,-3355.5878L13042.6743,-3355.1758L13042.0486,-3355.4161L13041.922,-3355.8315L13041.333,-3356.3702L13040.741,-3356.8165L13040.1199,-3357.1712L13038.945,-3357.3521L13038.4598,-3357.6359L13037.7777,-3357.785L13037.3856,-3357.4474L13036.644,-3357.3681L13036.3495,-3357.6256L13034.9335,-3357.9941L13034.0286,-3357.9403L13033.4839,-3358.0875L13033.2428,-3358.3214L13032.6721,-3358.4915L13032.132,-3358.8223L13031.34,-3358.9737L13031.2805,-3359.2934L13030.9998,-3359.38L13031.0806,-3359.7069L13032.2296,-3359.8469L13032.2708,-3359.3468L13032.4707,-3359.3735L13032.6401,-3359.3533L13032.6004,-3359.6401L13032.9102,-3359.9068L13032.8598,-3359.8331L13033.7799,-3359.6203L13033.9096,-3359.6203L13034.0607,-3358.7467L13034.2499,-3358.8001L13034.5306,-3359.6066L13034.5306,-3359.4868L13035.0098,-3359.4933L13035.0296,-3359.4868L13035.1608,-3359.5001L13035.5301,-3359.7198L13035.6598,-3359.6401L13036.0001,-3359.8L13036.1404,-3359.7466L13036.3297,-3360.0067L13036.6104,-3360.1398L13036.9202,-3360.0334L13037.1796,-3360.2467L13037.2894,-3360.5L13037.6801,-3360.4599L13037.6495,-3360.3065L13037.9105,-3360.2798L13038.2202,-3359.6802L13037.8098,-3359.6935L13037.9608,-3359.3735L13038.2706,-3359.4334L13038.2507,-3359.5467L13038.4995,-3359.3868L13038.7207,-3359.4734L13038.6002,-3359.6802L13038.8,-3359.5268L13039.2395,-3359.7134L13039.0701,-3360.0067L13038.71,-3359.8667L13038.3698,-3359.9934L13038.7299,-3360.1536L13038.3896,-3360.7399L13038.9206,-3360.96L13039.3707,-3360.2268L13039.5203,-3360.2867L13039.6103,-3360.1536L13039.3097,-3360.0334L13039.4104,-3359.8667L13039.8102,-3360.0266L13039.6393,-3360.5534L13039.9307,-3360.3268L13040.0299,-3360.5934L13040.0208,-3360.68L13039.5203,-3361.0065L13039.7903,-3361.2865L13040.4999,-3360.8067L13040.7196,-3361.0733L13040.48,-3361.0668L13039.9002,-3361.5067L13040.0406,-3361.8332L13040.3809,-3361.9267L13041.3406,-3361.7065L13041.2796,-3362.0998L13041.2109,-3361.8999L13041.1606,-3362.0335L13040.2802,-3362.2799L13040.6097,-3362.9131L13040.8798,-3363.2866L13040.3397,-3363.4399L13040.6494,-3364.2265L13041.0507,-3364.1201L13041.0004,-3363.9336L13041.8503,-3363.6932L13041.98,-3363.9935L13041.0095,-3364.2601L13041.0507,-3364.3665L13041.9907,-3364.1068L13042.1097,-3364.6667L13041.9006,-3364.8266L13042.16,-3365.2134L13041.7297,-3364.8869L13041.3193,-3364.8067L13040.5396,-3364.9933L13040.4297,-3365.2065L13041.0095,-3365.4469L13041.0599,-3365.3534L13041.6397,-3365.5933L13041.5802,-3365.6868L13042.3798,-3366.0267L13043.2007,-3365.8867L13043.3212,-3366.1015L13043.3487,-3366.098L13044.5313,-3366.2849L13043.6996,-3364.7598L13043.0573,-3364.2426L13042.4103,-3363.5414L13042.3874,-3362.5999L13042.7078,-3362.2959L13043.251,-3362.08L13042.5217,-3361.3575L13043.0328,-3360.9814L13042.7689,-3360.2505L13043.0649,-3360.0159L13042.8131,-3359.8133L13043.7485,-3358.8329L13043.2495,-3358.6117L13043.6829,-3358.4206L13043.4296,-3358.1261L13043.7927,-3357.2472L13043.1305,-3357.0518L13042.9977,-3356.1352L13043.2388,-3355.8556L13044.2139,-3355.4256L13043.222,-3354.0642Z"/>
<path content="AL020,-99999999,0,KOCHI,JPN" xlink:title="AL020" d="M13348.407,-3353.957L13348.4482,-3355.3814L13349.4431,-3355.9982L13350.5356,-3356.1123L13351.8906,-3356.5983L13353.92,-3357.4654L13354.2389,-3357.7934L13354.4724,-3357.2929L13355.2094,-3357.3765L13355.2292,-3356.6422L13355.925,-3356.2428L13356.2271,-3355.4653L13356.1768,-3355.4062L13355.1804,-3355.5161L13353.952,-3355.3535L13352.9663,-3355.357L13351.8158,-3355.3799L13351.3657,-3354.8428L13350.2151,-3354.8885L13350.1968,-3354.5208L13349.3759,-3354.5277L13348.407,-3353.957Z"/>
<path content="AL020,-99999999,0,FUKUOKA,JPN" xlink:title="AL020" d="M13045.0012,-3354.8573L13045.137,-3355.0423L13046.1899,-3355.5759L13046.9574,-3354.4605L13046.4218,-3353.8261L13046.5012,-3353.7514L13046.3303,-3353.5866L13045.1294,-3354.8733L13045.0699,-3354.8801L13045.0012,-3354.8573Z"/>
<path content="AL020,-99999999,0,KASUGA,JPN" xlink:title="AL020" d="M13046.5012,-3353.7514L13047.0383,-3353.2417L13046.7026,-3352.9488L13046.1105,-3353.418L13045.4056,-3353.7285L13044.7403,-3354.4979L13045.0012,-3354.8573L13045.0699,-3354.8801L13045.1294,-3354.8733L13046.3303,-3353.5866L13046.5012,-3353.7514Z"/>
<path content="AL020,-99999999,0,KARATSU,JPN" xlink:title="AL020" d="M12998.3597,-3343.581L12997.1039,-3343.6604L12996.4279,-3344.1711L12995.7535,-3344.8196L12995.2133,-3345.2835L12994.6182,-3345.7016L12993.9148,-3346.2585L12993.428,-3346.5611L12992.8864,-3347.002L12993.8599,-3347.3331L12994.1696,-3347.4468L12994.6899,-3347.2267L12994.6899,-3347.7734L12994.9097,-3347.8333L12995.4605,-3346.9334L12995.5399,-3347.0001L12995.3003,-3347.4468L12995.5902,-3347.5933L12995.7397,-3347.0467L12995.9396,-3347.2332L12995.6894,-3347.7798L12996.0098,-3348.3269L12996.2402,-3348.3536L12997.0001,-3347.6269L12996.6995,-3347.2534L12996.6202,-3346.9666L12996.0098,-3346.8933L12996.3501,-3346.3066L12996.0495,-3346.1334L12995.8496,-3346.4535L12995.9793,-3346.0602L12996.4294,-3346.3135L12996.6492,-3346.08L12996.1197,-3345.8599L12996.7102,-3345.52L12997.7097,-3345.4399L12997.85,-3345.3468L12998.3521,-3345.1618L12997.9904,-3344.4794L12998.3414,-3344.178L12998.3597,-3343.581Z"/>
<path content="AL020,-99999999,0,KURUME,JPN" xlink:title="AL020" d="M13055.2399,-3328.6629L13054.1763,-3328.8876L13053.1174,-3329.2732L13053.1815,-3329.6165L13052.887,-3329.9431L13052.0279,-3329.5212L13051.6068,-3329.1149L13051.0864,-3329.0775L13050.6851,-3329.5208L13049.9039,-3330.0396L13049.4476,-3330.4375L13049.0219,-3330.9502L13048.8693,-3331.4812L13049.2477,-3332.0625L13050.1541,-3332.4928L13050.3967,-3332.8262L13051.0345,-3332.0381L13052.3178,-3332.4333L13052.4292,-3331.398L13054.3091,-3330.9757L13053.2578,-3330.534L13053.5965,-3329.8393L13055.3009,-3328.8918L13055.2399,-3328.6629Z"/>
<path content="AL020,-99999999,0,BEPPU,JPN" xlink:title="AL020" d="M13150.5692,-3326.511L13148.6877,-3326.8517L13148.5504,-3327.9182L13147.8516,-3328.1284L13147.8867,-3328.4973L13148.3505,-3329.0211L13148.9044,-3328.4222L13150.5188,-3328.6968L13150.7202,-3327.6001L13151.1093,-3326.8799L13151.2344,-3326.8066L13151.1383,-3326.6251L13150.5692,-3326.511Z"/>
<path content="AL020,-99999999,0,SAGA,JPN" xlink:title="AL020" d="M13028.8239,-3323.8949L13028.595,-3324.6109L13026.3901,-3324.1196L13026.3504,-3324.6944L13027.7298,-3325.1308L13027.6001,-3325.4314L13027.6505,-3326.3493L13028.096,-3326.6403L13028.8132,-3326.881L13029.3365,-3326.9871L13029.3243,-3326.482L13030.1773,-3326.6052L13030.397,-3325.499L13031.0822,-3325.5337L13031.4178,-3324.6552L13030.6473,-3324.53L13030.7693,-3323.9307L13028.8239,-3323.8949Z"/>
<path content="AL020,-99999999,0,OITA,JPN" xlink:title="AL020" d="M13158.2413,-3320.9026L13158.1696,-3321.2215L13158.8303,-3321.661L13158.9371,-3322.2164L13158.9828,-3322.8844L13159.1949,-3323.5355L13158.5327,-3324.1302L13158.5999,-3324.6201L13158.6502,-3324.7665L13158.8394,-3324.5533L13159.0897,-3324.5731L13159.2392,-3324.5934L13159.1202,-3325.0267L13159.7702,-3325.2266L13159.9503,-3324.9397L13160.7605,-3325.3201L13160.6598,-3325.3933L13160.2905,-3325.3201L13160.08,-3325.3201L13159.9106,-3325.5733L13161.4197,-3326.1665L13161.9003,-3326.1665L13161.9705,-3325.9399L13161.5906,-3324.8005L13162.0605,-3324.1982L13163.559,-3324.3484L13163.2217,-3323.003L13162.352,-3322.8771L13161.8408,-3323.225L13161.6058,-3323.0091L13161.5219,-3322.0409L13161.0886,-3321.9322L13161.0214,-3322.6646L13159.5535,-3321.9646L13159.4772,-3321.3642L13158.2413,-3320.9026Z"/>
<path content="AL020,-99999999,0,SASEBO,JPN" xlink:title="AL020" d="M12973.1003,-3312.4268L12973.0499,-3312.5465L12972.5998,-3312.6469L12972.5006,-3312.7865L12972.7005,-3312.8601L12972.6196,-3313.3331L12972.5708,-3313.62L12972.0093,-3313.6868L12972.0001,-3313.8664L12972.0001,-3314.1602L12972.6501,-3314.5599L12972.7203,-3314.9933L12972.3999,-3314.6866L12972.1802,-3314.8399L12972.1298,-3315.3999L12972.8897,-3315.6132L12972.6105,-3315.9267L12972.6196,-3315.76L12972.2794,-3315.7532L12972.4792,-3316.0534L12972.6395,-3316.1667L12972.1802,-3316.5798L12972.2504,-3316.1999L12971.8399,-3316.1133L12971.6293,-3316.5665L12971.1792,-3316.6668L12971.1197,-3316.5134L12971.1792,-3316.0866L12970.9503,-3316.0534L12971.0297,-3316.2132L12970.9,-3316.5199L12970.3293,-3316.3399L12970.4697,-3316.0332L12970.7001,-3316.1068L12970.7504,-3315.9866L12970.43,-3315.9L12970.3598,-3316.0801L12970.0699,-3316.3132L12969.8898,-3316.1068L12969.9295,-3315.9466L12970.1691,-3315.7681L12969.5251,-3315.8863L12968.187,-3315.9435L12968.9758,-3317.7967L12969.9692,-3318.454L12970.311,-3319.5305L12971.6003,-3319.9329L12971.5347,-3321.1044L12973.0423,-3321.5279L12973.0652,-3321.1601L12972.1878,-3320.8923L12972.261,-3320.3175L12972.8638,-3320.3583L12972.6089,-3319.7636L12972.8699,-3318.8202L12973.1064,-3318.0836L12973.4558,-3317.6441L12973.8083,-3317.4347L12974.1074,-3317.4091L12974.5422,-3317.1761L12974.3988,-3316.695L12976.1963,-3316.2895L12976.3016,-3315.9672L12974.9069,-3315.8184L12974.6506,-3315.1089L12974.054,-3315.3893L12972.9416,-3313.998L12973.0804,-3313.6532L12973.1094,-3313.5334L12973.1094,-3313.4335L12972.9599,-3313.2198L12973.4192,-3312.6732L12973.2697,-3312.5999L12973.1003,-3312.4268Z"/>
<path content="AL020,-99999999,0,OMUTA,JPN" xlink:title="AL020" d="M13043.0298,-3300.5066L13041.7007,-3300.3201L13041.3193,-3300.2865L13041.2994,-3300.3201L13041.2308,-3300.4398L13040.7196,-3300.3201L13039.5706,-3300.0465L13039.4608,-3300.3201L13040.8508,-3300.9201L13041.6306,-3300.7401L13041.7603,-3300.7401L13041.6397,-3301.2001L13041.9296,-3301.3065L13042.1402,-3301.2001L13042.2501,-3301.6335L13041.5802,-3301.3134L13041.33,-3301.6468L13040.8508,-3301.0532L13040.8798,-3301.2001L13040.6799,-3301.5865L13042.1097,-3302.8465L13041.9495,-3303.36L13042.7505,-3303.5465L13042.7307,-3303.6732L13041.8594,-3303.5599L13041.9907,-3304.2343L13042.4576,-3304.163L13042.7124,-3304.5261L13043.8919,-3304.5753L13043.9819,-3304.8725L13044.3939,-3304.9114L13044.3222,-3304.2236L13044.5679,-3304.2194L13044.9677,-3304.8786L13045.7901,-3304.9107L13046.3379,-3304.9015L13046.3791,-3304.3037L13047.0825,-3303.97L13047.0123,-3303.3051L13045.9488,-3303.5069L13045.7687,-3302.8896L13045.8328,-3302.1076L13046.4005,-3301.7994L13047.2473,-3301.6705L13046.9528,-3300.8484L13045.6345,-3300.7328L13043.3014,-3301.6682L13043.0298,-3300.5066Z"/>
<path content="AL020,-99999999,0,ARAO,JPN" xlink:title="AL020" d="M13043.0298,-3300.5066L13043.309,-3299.7223L13042.9001,-3299.6201L13041.6397,-3299.3732L13041.4703,-3299.7066L13041.4505,-3299.7398L13041.3193,-3300.2865L13041.7007,-3300.3201L13043.0298,-3300.5066Z"/>
<path content="AL020,-99999999,0,KUMAMOTO,JPN" xlink:title="AL020" d="M13075.9338,-3277.1877L13073.9349,-3277.4715L13073.4909,-3278.1441L13073.1201,-3278.4943L13071.9833,-3278.558L13069.1559,-3278.2124L13068.5776,-3277.877L13067.7139,-3278.0056L13067.7902,-3278.8994L13067.9459,-3279.7001L13068.1839,-3280.5454L13068.3868,-3281.0471L13067.8772,-3281.2847L13068.2495,-3282.0591L13069.1986,-3282.09L13069.5648,-3282.658L13070.3812,-3282.7599L13070.3049,-3281.8661L13070.8939,-3281.6044L13071.3623,-3281.8726L13071.8704,-3281.612L13072.493,-3281.6021L13073.5855,-3281.9294L13073.4543,-3280.9902L13073.3627,-3280.579L13073.8617,-3279.9744L13074.3225,-3279.9671L13074.3378,-3279.5078L13073.6343,-3279.5189L13073.2925,-3278.8818L13073.7991,-3278.5755L13075.0854,-3277.9587L13075.4761,-3278.4115L13075.8316,-3278.5206L13076.1703,-3277.9644L13076.0864,-3277.8969L13075.9338,-3277.1877Z"/>
<path content="AL020,-99999999,0,NAGASAKI,JPN" xlink:title="AL020" d="M12986.2808,-3272.1062L12986.0001,-3272.1802L12985.8505,-3272.2801L12985.7697,-3272.7135L12986.7905,-3273.7534L12987.0102,-3273.9334L12986.9492,-3274.4999L12986.6806,-3274.5335L12986.9797,-3274.6067L12986.9904,-3275.0534L12986.9598,-3274.9134L12986.7996,-3274.9599L12986.7401,-3274.8734L12986.5707,-3275.1202L12986.1404,-3274.5201L12985.9802,-3274.5266L12986.0199,-3274.44L12985.8002,-3274.1734L12985.5804,-3274.0932L12985.82,-3273.6935L12985.4294,-3273.5134L12985.6995,-3273.4333L12985.4004,-3272.9866L12984.8999,-3273.1266L12984.5871,-3273.3807L12984.9899,-3274.4034L12985.3729,-3274.6716L12985.7574,-3274.7314L12986.0367,-3274.9996L12986.0367,-3275.2087L12985.9314,-3275.5367L12985.408,-3275.9247L12985.4431,-3276.342L12985.8963,-3276.3718L12985.8612,-3276.9981L12985.199,-3276.9089L12985.0937,-3278.4897L12985.582,-3278.5194L12985.4782,-3278.8773L12985.3027,-3279.295L12986.2457,-3279.6528L12987.5717,-3278.9066L12987.4664,-3278.1311L12987.6419,-3276.58L12987.0834,-3276.5804L12987.0834,-3276.461L12987.3276,-3276.2821L12987.5015,-3276.1028L12987.5717,-3275.6256L12987.7106,-3275.5959L12988.2004,-3276.0429L12988.7589,-3276.9974L12989.0717,-3276.8482L12989.4211,-3275.6847L12989.8743,-3275.3567L12989.8743,-3274.9691L12989.212,-3274.8795L12988.7589,-3274.4919L12988.5132,-3274.1638L12988.7238,-3273.9849L12989.1068,-3274.2535L12989.4562,-3274.0742L12989.5615,-3273.1197L12988.7589,-3272.971L12988.0951,-3273.5374L12987.7106,-3273.2693L12988.06,-3272.7619L12987.6419,-3272.464L12987.0132,-3272.673L12986.2808,-3272.1062Z"/>
<path content="AL020,-99999999,0,NOBEOKA,JPN" xlink:title="AL020" d="M13167.0197,-3255.3932L13166.6687,-3255.4714L13166.7908,-3255.8357L13166.5665,-3256.4163L13165.9378,-3256.295L13165.4114,-3256.7684L13165.7928,-3257.5397L13165.8997,-3258.2726L13166.1652,-3258.8402L13166.4474,-3259.1312L13166.1987,-3259.7584L13166.7206,-3259.9289L13167.4057,-3260.0716L13168.0939,-3259.5478L13168.2144,-3259.1312L13168.5211,-3258.5716L13168.4479,-3258.0677L13168.2663,-3257.5439L13168.1885,-3256.9023L13167.4255,-3256.8535L13167.0197,-3255.3932Z"/>
<path content="AL020,-99999999,0,YATSUSHIRO,JPN" xlink:title="AL020" d="M13058.9355,-3249.1993L13058.9813,-3249.8356L13058.1238,-3249.913L13056.6101,-3250.3201L13057.2601,-3250.9399L13059.4315,-3251.0311L13060.5606,-3252.0531L13061.3281,-3251.9951L13062.0041,-3251.416L13062.4786,-3251.1459L13062.5244,-3250.7603L13063.4262,-3250.5672L13063.2233,-3249.9119L13060.5377,-3249.7387L13060.4935,-3249.3916L13058.9355,-3249.1993Z"/>
<path content="AL020,-99999999,0,MIYAZAKI,JPN" xlink:title="AL020" d="M13141.2689,-3188.6126L13140.7211,-3189.1159L13140.5106,-3189.9073L13141.0583,-3190.1232L13140.889,-3190.4469L13140.4266,-3190.3748L13140.2161,-3191.1301L13140.7623,-3191.49L13140.4678,-3192.1373L13139.7949,-3192.2091L13140.1733,-3193.0725L13141.2262,-3193.1448L13141.2247,-3194.1877L13142.6147,-3194.6917L13143.2465,-3194.656L13142.7826,-3193.4687L13142.6987,-3192.1738L13143.2877,-3192.4257L13143.9621,-3191.7784L13143.7943,-3191.3467L13144.8044,-3190.7354L13143.5867,-3189.7612L13143.3655,-3189.8773L13142.8223,-3190.1731L13142.1158,-3190.3818L13141.8198,-3190.3893L13142.5797,-3189.9467L13143.0496,-3189.6503L13143.2526,-3189.5193L13142.8268,-3189.1523L13141.9006,-3189.1521L13141.2689,-3188.6126Z"/>
<path content="AL020,-99999999,0,MIYAKONOJO,JPN" xlink:title="AL020" d="M13107.6279,-3171.4579L13103.9673,-3171.5874L13103.3569,-3171.7436L13103.5706,-3172.1867L13103.0212,-3172.5254L13103.1433,-3172.8121L13104.6066,-3172.4997L13105.278,-3172.526L13106.0715,-3172.7867L13106.6208,-3173.5949L13106.4682,-3173.9077L13107.2296,-3174.8201L13107.7789,-3174.5335L13107.7179,-3174.2207L13108.3893,-3174.1165L13108.9691,-3174.7684L13109.4879,-3174.56L13108.7555,-3173.0219L13107.5043,-3173.0476L13107.6279,-3171.4579Z"/>
<path content="AL020,-99999999,0,KAGOSHIMA,JPN" xlink:title="AL020" d="M13053.7598,-3152.2133L13052.8,-3152.4601L13052.7328,-3153.3897L13053.7857,-3155.7369L13052.9312,-3156.8321L13052.327,-3157.0454L13052.3621,-3157.8665L13052.8961,-3157.8665L13052.9312,-3158.5661L13052.5391,-3158.5964L13052.5391,-3159.2354L13053.0731,-3159.4177L13053.2516,-3159.8434L13052.7176,-3160.7866L13052.2552,-3161.4256L13052.8595,-3161.973L13055.0659,-3160.3298L13055.5298,-3160.8772L13056.5964,-3161.3941L13057.3685,-3160.9379L13057.1899,-3160.3132L13057.0099,-3160.3666L13056.7795,-3160.12L13056.6605,-3160.2266L13056.0699,-3159.5667L13056.1508,-3159.1667L13056.1905,-3158.6533L13056.1996,-3158.56L13056.2897,-3158.6533L13056.4194,-3158.6533L13056.4301,-3158.58L13056.5109,-3158.6533L13056.5002,-3158.82L13056.6803,-3158.6533L13056.9794,-3158.32L13056.5399,-3158.4467L13056.3995,-3157.8733L13056.9397,-3158.0734L13056.8695,-3157.3267L13056.6406,-3157.3799L13056.5506,-3157.2599L13056.7505,-3157.1533L13056.1996,-3155.7467L13056.0104,-3155.8001L13055.7907,-3154.6267L13055.2795,-3154.8065L13055.3497,-3154.6467L13055.0903,-3154.5334L13054.9393,-3154.8L13054.6707,-3154.9L13054.4403,-3154.5401L13054.7195,-3154.3867L13054.5105,-3153.7399L13054.1504,-3153.9333L13053.6301,-3153.3199L13053.9108,-3153.5734L13053.4897,-3152.8933L13053.8193,-3152.7933L13054.1306,-3153.4201L13054.3198,-3153.3466L13053.7598,-3152.2133Z"/>
</g>
</svg>
