<?xml version="1.0" encoding="UTF-8"?>
<svg  xmlns="http://www.w3.org/2000/svg" xmlns:xlink="http://www.w3.org/1999/xlink" xmlns:go="http://purl.org/svgmap/profile" property="f_code,acc,exs,soc" viewBox="13078.125 -3375.0 140.625 140.625" go:dataArea="13078.125 -3375.0 140.625 140.625" >
<metadata>
 <rdf:RDF xmlns:rdf="http://www.w3.org/1999/02/22-rdf-syntax-ns#" xmlns:crs="http://opengis.org/xmldtds/transformations.dtd" xmlns:svg="http://www.w3.org/svg" >
  <rdf:Description>
   <crs:CoordinateReferenceSystem rdf:resource="http://purl.org/crs/84" svg:transform="matrix(100.0,0.0,0.0,-100.0,0.0,0.0)" />
  </rdf:Description>
 </rdf:RDF>
</metadata>
<globalCoordinateSystem srsName="http://purl.org/crs/84" transform="matrix(100.0,0.0,0.0,-100.0,0.0,0.0)" />
<defs>
 <g id="p0" >
  <circle cx="0.0" cy="0.0" r="3" stroke="green" stroke-width="2.0" vector-effect="non-scaling-stroke" />
 </g>
</defs>
<g fill="none" fill-rule="evenodd" stroke="#000000" stroke-width="2" opacity="0.5" vector-effect="non-scaling-stroke" stroke-linejoin="bevel" >
<path content="BA010,1,1,JPN" xlink:title="BA010" d="M13172.9401,-3246.3135L13173.1903,-3246.4401L13173.0301,-3246.6L13172.9599,-3246.5866L13172.9401,-3246.3135"/>
<path content="BA010,1,1,JPN" xlink:title="BA010" d="M13166.5497,-3246.4333L13166.9495,-3246.4401L13166.9205,-3246.7068L13166.8396,-3247.0135L13166.6504,-3246.9601L13166.5695,-3246.5603L13166.5497,-3246.4333"/>
<path content="BA010,1,1,JPN" xlink:title="BA010" d="M13170.2698,-3247.2935L13170.34,-3247.3469L13170.3598,-3247.3736L13170.4193,-3247.48L13170.2805,-3247.4869L13170.2698,-3247.2935"/>
<path content="BA010,1,1,JPN" xlink:title="BA010" d="M13182.1701,-3265.3603L13182.2403,-3265.4533L13182.0999,-3265.4736L13182.0694,-3265.3999L13182.1701,-3265.3603"/>
<path content="BA010,1,1,JPN" xlink:title="BA010" d="M13182.4509,-3265.5533L13182.6294,-3265.6334L13182.3395,-3265.7665L13182.7896,-3265.7867L13182.8796,-3265.8867L13182.9697,-3266.2735L13183.2199,-3266.4402L13183.5907,-3266.6466L13183.4793,-3266.9868L13183.2001,-3267.0868L13183.1207,-3266.9868L13182.84,-3266.7801L13182.1701,-3266.8667L13182.0908,-3266.9868L13182.1198,-3267.16L13181.81,-3267.0532L13181.7398,-3267.4065L13181.4804,-3267.16L13181.3202,-3267.1932L13181.1203,-3267.0067L13180.9296,-3267.0002L13180.7693,-3266.9868L13180.9998,-3266.8667L13181.3309,-3266.88L13181.2607,-3266.6801L13181.3004,-3266.6L13180.9998,-3266.5733L13180.8304,-3266.5802L13180.6198,-3266.5867L13180.8899,-3266.3269L13181.0699,-3266.1667L13181.4804,-3266.1533L13181.3599,-3265.7803L13181.5903,-3265.6734L13181.7307,-3265.6734L13182.3105,-3265.6269L13182.4509,-3265.5533"/>
<path content="BA010,1,1,JPN" xlink:title="BA010" d="M13184.4406,-3268.0935L13184.5993,-3268.24L13184.4498,-3268.2335L13184.4803,-3268.3533L13184.4696,-3268.5066L13184.4009,-3268.6134L13184.0897,-3268.3533L13184.4406,-3268.0935"/>
<path content="BA010,1,1,JPN" xlink:title="BA010" d="M13192.4606,-3271.4935L13192.7902,-3271.5668L13192.6605,-3271.6534L13192.8696,-3271.7266L13192.9199,-3271.8735L13193.0801,-3271.9467L13192.72,-3272.2599L13192.9199,-3272.4602L13192.7597,-3272.62L13192.0303,-3272.6334L13192.5095,-3272.2733L13192.1494,-3272.0001L13192.2394,-3271.6866L13192.4606,-3271.4935"/>
<path content="BA010,1,1,JPN" xlink:title="BA010" d="M13191.1102,-3276.9268L13191.8594,-3276.9531L13192.2806,-3277.0267L13192.2607,-3277.5066L13192.0197,-3277.5002L13191.7603,-3277.6134L13191.6199,-3277.5932L13190.9195,-3277.8866L13190.9103,-3277.2934L13190.7303,-3277.2999L13190.86,-3277.0401L13191.1102,-3276.9268"/>
<path content="BA010,1,1,JPN" xlink:title="BA010" d="M13162.7396,-3234.375L13162.7396,-3234.4799L13162.7106,-3234.66L13162.6205,-3234.9602L13162.4802,-3234.9133L13162.4695,-3235.0933L13162.3306,-3235.3867L13162.1796,-3235.4668L13162.1796,-3235.8135L13162.1796,-3235.9001L13162.1796,-3236.0134L13162.4802,-3236.4468L13162.8296,-3236.8L13163.2599,-3237.0533L13163.4995,-3237.1532L13163.4003,-3237.4268L13163.3301,-3237.5465L13163.2004,-3237.5465L13163.0508,-3238.1599L13163.4705,-3239.1201L13164.1998,-3240.7001L13164.9796,-3241.0336L13165.2298,-3241.0267L13165.0497,-3241.2266L13165.2405,-3241.3334L13165.6403,-3241.2266L13166.0706,-3241.1865L13166.2796,-3241.0801L13166.7999,-3241.2334L13166.7206,-3241.3132L13166.9998,-3241.4867L13166.8701,-3241.4799L13166.8793,-3241.5535L13167.2897,-3241.6466L13167.6407,-3241.7336L13168.4998,-3241.8533L13168.1198,-3241.9868L13168.3502,-3242.1066L13168.5699,-3242.1867L13168.6295,-3242.2466L13168.6401,-3242.3599L13168.7897,-3242.26L13168.3502,-3242.6601L13167.9596,-3242.3534L13167.4698,-3242.12L13166.8701,-3242.86L13166.5298,-3242.72L13165.8707,-3242.7334L13165.4099,-3242.7067L13165.4404,-3242.8867L13165.6006,-3242.9466L13165.6708,-3242.8066L13165.8401,-3243L13166.2903,-3243.0866L13166.6901,-3243.1202L13167.7597,-3243.0069L13168.0603,-3243.4536L13168.1198,-3243.52L13168.0206,-3243.6001L13167.8497,-3243.5799L13167.8207,-3243.6535L13167.8894,-3243.84L13167.7704,-3243.8332L13167.9001,-3243.9999L13167.8101,-3243.9999L13167.7704,-3244.1067L13167.7094,-3244.3268L13167.5903,-3244.3001L13167.4698,-3244.54L13167.3004,-3244.6602L13167.3508,-3245.3869L13167.2897,-3245.3934L13167.2302,-3244.4599L13167.45,-3244.2669L13166.98,-3243.9934L13167.0593,-3243.7134L13166.6702,-3243.8866L13166.1407,-3243.6199L13166.0202,-3243.8267L13166.5497,-3244.3134L13166.2796,-3244.4935L13166.33,-3244.9001L13165.1703,-3243.9068L13165.0299,-3243.4601L13164.1403,-3243.8801L13164.3204,-3243.9934L13164.74,-3244.1799L13164.9796,-3244.1666L13165.5899,-3244.6999L13165.1703,-3245.1267L13165.3503,-3245.5933L13165.1093,-3245.5868L13164.9597,-3245.7333L13165.2893,-3246.6866L13165.7501,-3246.9067L13165.8997,-3246.8868L13165.6494,-3247.1535L13165.8295,-3247.2L13165.5106,-3247.3202L13165.8295,-3248.2601L13166.0095,-3248.3665L13166.0797,-3248.2399L13166.5009,-3248.2067L13166.6794,-3248.2735L13166.8198,-3248.2067L13166.7908,-3248.1068L13167.0502,-3247.7268L13167.3004,-3248.1266L13167.4103,-3248.0736L13167.8299,-3248.3398L13168.0298,-3248.1003L13167.6895,-3247.3335L13168.1198,-3247.2466L13168.28,-3247.1333L13168.7302,-3246.8933L13169.4107,-3246.9269L13169.8105,-3247.2466L13169.5999,-3247.4533L13169.9997,-3247.4533L13170.3506,-3247.58L13170.8298,-3247.8535L13170.9793,-3248.04L13170.8908,-3248.2334L13171.4798,-3248.1869L13171.6293,-3248.3868L13171.4996,-3248.5065L13171.2997,-3248.8602L13171.9406,-3248.6401L13172.1298,-3248.7598L13172.2595,-3248.8533L13172.1909,-3248.9067L13172.3602,-3248.9532L13172.3694,-3249.0067L13172.4503,-3249.2001L13172.7707,-3249.2599L13172.6303,-3249.5869L13172.7203,-3249.6468L13172.2305,-3250.0732L13171.3303,-3250.14L13171.1395,-3250.1133L13170.9793,-3250.2201L13170.9396,-3250.3201L13171.08,-3250.9132L13171.2006,-3251.6003L13171.3394,-3251.9669L13170.9305,-3251.6132L13170.6604,-3251.6266L13170.43,-3251.6201L13170.3705,-3251.7399L13170.1797,-3251.7933L13170.0607,-3251.7868L13169.8196,-3251.5533L13169.8105,-3251.4267L13169.8898,-3251.3733L13169.9493,-3250.5867L13169.8105,-3250.6466L13169.7693,-3250.9132L13169.4702,-3250.7L13169.5908,-3251.0933L13169.4992,-3251.0399L13169.3604,-3251.0334L13169.1605,-3251.4599L13168.8904,-3251.3733L13168.7408,-3251.2333L13169.0796,-3251.1402L13169.1406,-3250.7267L13168.6707,-3250.7534L13168.5501,-3250.84L13168.7103,-3250.8667L13168.4799,-3250.8469L13168.3304,-3251.3268L13168.2907,-3251.6399L13168.8797,-3251.96L13168.84,-3252.0668L13168.5501,-3251.9802L13168.5104,-3252.1732L13168.6707,-3252.4334L13168.4402,-3252.9068L13168.1503,-3253.3001L13168.28,-3254.4399L13169.3192,-3256.7734L13170.8099,-3258.6533L13171.6705,-3259.1L13171.9299,-3258.9333L13173.2895,-3259.0866L13173.9197,-3259.1667L13174.1806,-3259.227L13174.5392,-3259.8934L13174.6796,-3259.9869L13174.6796,-3260.0201L13174.6796,-3260.12L13175.3601,-3260.1665L13175.47,-3260.4733L13175.2899,-3260.7933L13175.3204,-3261.0466L13175.6409,-3261.0268L13175.9003,-3261.06L13176.1002,-3261.3335L13176.2207,-3261.3533L13176.2497,-3261.5932L13176.0696,-3261.94L13176.2299,-3262.3268L13176.3306,-3262.3333L13176.4801,-3262.8334L13176.8402,-3263.0066L13176.9394,-3263.3602L13177.24,-3263.3934L13177.1393,-3264.2334L13177.0401,-3264.2799L13176.3306,-3264.0598L13176.3199,-3264.1132L13176.0895,-3263.8599L13175.9705,-3264.0202L13175.8301,-3264.0533L13175.8698,-3263.5666L13175.6805,-3263.5532L13175.4395,-3264.2601L13175.2594,-3264.267L13175.0397,-3264.3867L13175.0198,-3264.5535L13175.5402,-3264.4802L13175.8804,-3264.2933L13176.3306,-3264.1869L13176.4206,-3264.547L13176.6006,-3264.5935L13176.59,-3264.6667L13176.4893,-3265.1936L13176.9196,-3265.1066L13176.8906,-3265.2866L13176.5594,-3265.2866L13176.1993,-3265.5201L13176.2695,-3265.8535L13176.7105,-3265.8802L13176.7807,-3265.6666L13176.9302,-3265.6933L13177.1301,-3265.9401L13177.2308,-3266.7133L13177.4902,-3266.9868L13177.6093,-3267.1135L13177.8107,-3267.4133L13177.9205,-3267.4133L13178.5706,-3267.3866L13178.54,-3267.1066L13178.4698,-3266.9868L13178.5797,-3266.3269L13178.8605,-3266.2266L13179.01,-3266.2933L13179.0405,-3266.787L13179.1,-3266.9868L13179.2206,-3267.1001L13179.1595,-3267.1669L13179.0894,-3267.3332L13179.2908,-3267.7734L13179.6097,-3267.9466L13179.8401,-3268.0069L13180.3406,-3268.4399L13180.4901,-3268.4132L13180.9708,-3268.6867L13181.25,-3268.6268L13181.5201,-3268.7668L13181.5796,-3268.9533L13181.7398,-3269.1132L13181.6208,-3269.4L13181.5994,-3269.4801L13181.4194,-3269.6602L13181.7001,-3269.7601L13181.6406,-3270.06L13181.7001,-3270.3732L13182.2098,-3270.4468L13182.28,-3270.3335L13182.5897,-3270.6268L13182.7698,-3270.4533L13182.7103,-3270.3869L13183.02,-3270.2599L13183.3496,-3269.8933L13183.8501,-3269.6533L13183.7997,-3269.5934L13183.67,-3269.3867L13183.6594,-3269.3066L13183.7402,-3269.26L13183.8608,-3269.2669L13183.8608,-3269.1601L13184.1797,-3269.0933L13184.5306,-3269.1399L13184.5001,-3269.22L13184.6298,-3269.3199L13184.7,-3269.4466L13184.9304,-3269.5667L13185.0403,-3269.3333L13185.3302,-3269.6869L13185.4996,-3269.8132L13185.2997,-3269.9799L13185.3699,-3270.2599L13184.7595,-3270.3667L13184.52,-3271.18L13184.6298,-3271.3066L13184.9792,-3271.8399L13184.9304,-3271.9131L13185.1501,-3272.2401L13185.4492,-3272.1268L13185.9894,-3271.8334L13186.4304,-3271.6202L13186.38,-3271.7335L13186.3403,-3272.3465L13186.1694,-3272.3732L13186.0306,-3272.3667L13185.9604,-3272.6868L13185.73,-3272.9L13185.8795,-3273.3131L13186.2503,-3273.42L13186.3708,-3273.3665L13186.4807,-3273.4001L13187.1796,-3273.5065L13187.3901,-3273.3334L13187.6099,-3273.4402L13187.6801,-3273.9468L13188.4308,-3274.5468L13188.5101,-3274.5667L13188.4094,-3274.7799L13188.3698,-3275L13187.8906,-3274.8199L13187.4207,-3274.8867L13187.1796,-3274.9866L13187.1201,-3275.2201L13187.1506,-3275.3201L13187.1796,-3275.4734L13187.6999,-3275.5798L13187.6999,-3276.0265L13187.8296,-3276.3134L13187.8693,-3276.4999L13187.4405,-3276.82L13187.1796,-3276.9001L13186.7798,-3277.42L13187.0407,-3277.6066L13187.1796,-3277.5867L13187.5107,-3277.8069L13187.5397,-3278.0602L13187.3199,-3278.5866L13187.3901,-3279.06L13187.9196,-3279.1199L13188.4399,-3277.9533L13188.8596,-3277.4868L13188.8901,-3277.1935L13189.3707,-3276.4065L13189.5401,-3276.5133L13189.4409,-3276.8665L13189.3707,-3276.9798L13189.2502,-3277.42L13189.4196,-3277.8732L13189.5294,-3277.9667L13189.1205,-3278.3333L13188.4003,-3279.0733L13188.9496,-3280.4668L13189.4699,-3280.4802L13189.4302,-3280.0602L13189.8895,-3280.1933L13189.7903,-3280.0602L13189.7797,-3279.7333L13189.5294,-3279.5734L13189.9506,-3279.3667L13189.4699,-3278.8265L13189.7202,-3278.7201L13190.21,-3278.5202L13190.3793,-3278.8734L13190.5807,-3278.9734L13190.6906,-3279.3732L13191.2308,-3279.0466L13191.1499,-3278.9536L13191.3406,-3278.8734L13191.7801,-3278.5202L13191.9495,-3278.5667L13191.8808,-3279.1534L13191.6794,-3279.66L13191.9495,-3280.0335L13192.4606,-3280.0133L13192.4698,-3279.7199L13192.6102,-3279.7466L13192.5003,-3279.6532L13192.2195,-3279.6867L13192.2607,-3279.3869L13192.6804,-3279.1935L13192.9703,-3278.5534L13193.6096,-3278.5069"/>
<path content="BA010,1,1,JPN" xlink:title="BA010" d="M13203.0792,-3287.8933L13203.4103,-3287.9536L13203.45,-3288.0535L13202.9907,-3288.0932L13203.0792,-3287.8933"/>
<path content="BA010,1,1,JPN" xlink:title="BA010" d="M13202.2095,-3288.7798L13202.4597,-3288.7932L13202.3102,-3288.8931L13202.2095,-3288.7798"/>
<path content="BA010,1,1,JPN" xlink:title="BA010" d="M13204.7302,-3291.42L13204.9194,-3291.46L13204.8706,-3291.6267L13204.4693,-3291.9533L13204.7302,-3291.42"/>
<path content="BA010,1,1,JPN" xlink:title="BA010" d="M13195.4102,-3296.4733L13195.6802,-3296.4931L13195.6894,-3296.9399L13195.6802,-3297.0669L13195.5795,-3297.0867L13195.3201,-3297.0535L13195.2393,-3297.1001L13195.3308,-3296.7934L13195.4102,-3296.4733"/>
<path content="BA010,1,1,JPN" xlink:title="BA010" d="M13207.28,-3295.3068L13207.3105,-3295.7199L13207.6294,-3295.9801L13207.7698,-3296.1334L13208.02,-3295.9934L13207.93,-3296.4066L13207.7606,-3296.8666L13207.9605,-3297.1066L13207.9102,-3297.3598L13207.9407,-3297.3801L13207.5897,-3297.5533L13207.3807,-3297.7001L13207.4799,-3297.3064L13207.3395,-3297.3133L13207.3395,-3297.0867L13207.1701,-3297.1001L13207.2693,-3296.8666L13207.2495,-3296.8201L13206.6391,-3296.4268L13206.4804,-3296.4066L13206.3293,-3296.4001L13205.9692,-3296.4066L13206.6391,-3296.2131L13206.7307,-3295.8134L13207.0206,-3295.34L13207.28,-3295.3068"/>
<path content="BA010,1,1,JPN" xlink:title="BA010" d="M13191.1102,-3300.7332L13191.04,-3301.1734L13191.1102,-3301.4668L13190.8005,-3301.1131L13191.1102,-3300.7332"/>
<path content="BA010,1,1,JPN" xlink:title="BA010" d="M13192.4103,-3298.0267L13192.7094,-3298.6069L13193.2495,-3299.0932L13193.3502,-3299.0467L13193.7805,-3299.2935L13194.1406,-3299.4465L13194.3604,-3299.6201L13193.8904,-3299.8669L13193.4799,-3299.7601L13193.4708,-3299.7868L13193.2495,-3299.8001L13192.5598,-3299.6532L13192.9398,-3300.0866L13193.2297,-3300.3201L13193.4708,-3300.6866L13193.6096,-3300.9933L13193.8095,-3301.2199L13194.0903,-3301.0399L13194.22,-3301.3134L13194.2001,-3301.5598L13193.2907,-3301.6666L13193.0099,-3301.58L13192.8207,-3301.5934L13192.4194,-3301.3199L13192.5201,-3301.0735L13192.2806,-3301.0136L13191.9601,-3301.2867L13191.9296,-3300.7534L13191.8396,-3300.6001L13191.7206,-3300.3334L13192.3996,-3300.6401L13192.3996,-3300.3201L13192.2699,-3299.8932L13191.8808,-3299.5602L13191.8198,-3299.4598L13191.5604,-3299.6067L13191.4597,-3299.4534L13191.4001,-3299.3198L13191.1499,-3299.1333L13190.9592,-3298.7598L13191.1896,-3298.6935L13191.2598,-3298.2265L13191.6199,-3298.1335L13192.0105,-3298.2868L13192.4103,-3298.0267"/>
<path content="BA010,1,1,JPN" xlink:title="BA010" d="M13189.18,-3310.0468L13189.5004,-3310.2066L13189.2609,-3310.5133L13189.2197,-3310.4332L13189.18,-3310.0468"/>
<path content="BA010,1,1,JPN" xlink:title="BA010" d="M13200.3296,-3309.7198L13201.4694,-3310.5133L13201.4496,-3310.6998L13201.0193,-3310.9798L13201.0193,-3311.1267L13200.5905,-3310.9066L13200.4105,-3310.8932L13200.4196,-3310.5202L13200.56,-3310.3401L13200.3708,-3309.8267L13200.3296,-3309.7198"/>
<path content="BA010,1,1,JPN" xlink:title="BA010" d="M13185.9497,-3313.9198L13186.2305,-3314.3131L13185.8093,-3314.3131L13185.64,-3314.0068L13185.9497,-3313.9198"/>
<path content="BA010,1,1,JPN" xlink:title="BA010" d="M13197.3404,-3315.5334L13197.9996,-3315.7002L13197.8394,-3316.0667L13197.7905,-3315.9534L13196.9299,-3315.5998L13197.3404,-3315.5334"/>
<path content="BA010,1,1,JPN" xlink:title="BA010" d="M13198.0408,-3316.3067L13198.5901,-3316.4532L13198.7,-3316.4665L13199.0402,-3316.9865L13199.0601,-3317.0799L13198.9197,-3317.0799L13198.4604,-3317.0868L13198.2498,-3316.9865L13198.0408,-3316.4467L13198.0408,-3316.3067"/>
<path content="BA010,1,1,JPN" xlink:title="BA010" d="M13183.8104,-3317.5602L13183.7097,-3317.7536L13183.4702,-3317.7868L13183.5007,-3317.7067L13183.8104,-3317.5602"/>
<path content="BA010,1,1,JPN" xlink:title="BA010" d="M13193.6096,-3278.5069L13194.5007,-3279.2469L13194.7205,-3279.7199L13194.6396,-3280.5935L13195.4407,-3280.74L13196.4096,-3280.4535L13196.5103,-3279.9267L13196.3303,-3279.38L13196.8201,-3279.24L13197.11,-3279.1733L13197.5494,-3279.5734L13197.5403,-3279.94L13197.3694,-3279.9267L13197.1207,-3280.36L13197.6105,-3280.7934L13198.3704,-3281.2801L13198.7793,-3281.7135L13199.6796,-3282.0534L13200.5096,-3282.5535L13200.7706,-3282.8468L13200.9201,-3283.4801L13200.7401,-3283.6533L13199.6796,-3283.82L13199.0509,-3284.24L13198.41,-3284.5798L13197.4304,-3284.4131L13197.9507,-3284.4334L13197.76,-3284.1331L13197.5601,-3284.0401L13197.7997,-3283.9001L13198.2407,-3283.6533L13198.3093,-3283.3733L13198.5703,-3283.2466L13198.5596,-3282.8602L13198.0194,-3282.4669L13197.6807,-3282.56L13197.5494,-3282.8732L13197.2504,-3282.8133L13197.0596,-3283.0135L13196.6599,-3283.5934L13196.6797,-3283.6533L13196.3104,-3283.8467L13196.2708,-3283.6533L13196.6309,-3283.12L13196.5195,-3282.6935L13196.5805,-3282.4867L13196.6507,-3282.1999L13196.46,-3282.2201L13196.2906,-3281.8668L13195.9106,-3282.7534L13195.7092,-3283.6201L13195.6696,-3283.6533L13195.6207,-3283.6533L13195.2393,-3283.5602L13195.2194,-3283.4801L13194.3008,-3283.4267L13194.2093,-3283.5602L13194.2596,-3283.6533L13194.9203,-3283.8001L13195.5902,-3284.1667L13195.3201,-3284.3601L13194.9203,-3285.1868L13194.9402,-3285.5267L13195.2301,-3285.6068L13195.3598,-3285.3001L13196.0098,-3284.6401L13196.7407,-3285.1868L13196.9696,-3285.3199L13197.1802,-3285.6468L13197.4808,-3285.7399L13197.4808,-3286.2801L13197.3099,-3286.3934L13197.2107,-3286.6467L13197.4304,-3286.7401L13197.8806,-3286.5799L13198.3795,-3286.2534L13198.7198,-3287.0335L13199.6201,-3287.8201L13199.6796,-3287.7998L13200.0504,-3287.8933L13200,-3288.4998L13200.8194,-3289.0133L13201.4801,-3289.0335L13201.03,-3289.2868L13200.3098,-3289.1266L13199.6994,-3289.6667L13199.6796,-3289.78L13199.44,-3289.8933L13199.4507,-3289.5065L13199.1394,-3289.04L13198.8907,-3289.1201L13198.6298,-3288.8268L13198.4894,-3289.0335L13198.4604,-3289.4402L13198.6404,-3289.8533L13198.5001,-3289.8533L13198.4299,-3290.1932L13198.2697,-3291.3532L13197.5494,-3291.9868L13197.6898,-3292.2733L13198.3704,-3292.0933L13198.5199,-3291.9868L13198.6801,-3291.9601L13198.6801,-3291.9868L13198.7595,-3292.3801L13198.9105,-3292.2001L13199.0509,-3292.0734L13199.3408,-3292.1467L13199.3607,-3291.9868L13199.3301,-3291.7667L13199.5209,-3291.5932L13199.2905,-3291.4467L13199.6796,-3291.0133L13200.4196,-3290.8867L13200.6699,-3290.5998L13200.7904,-3290.58L13200.9293,-3290.6799L13200.9796,-3291.4734L13200.8102,-3291.9868L13200.8194,-3292.4L13200.9598,-3292.5068L13201.4893,-3292.3267L13201.6998,-3292.4732L13201.5594,-3292.7601L13201.8097,-3293.0935L13202.2705,-3293.1068L13202.7206,-3293.5799L13203.6194,-3293.6199L13203.9902,-3293.28L13203.8696,-3292.72L13204.4403,-3292.6735L13204.7897,-3293.0935L13204.7699,-3293.2068L13204.7104,-3293.7534L13205.13,-3293.5932L13205.4108,-3293.9732L13205.6396,-3293.7599L13206.3202,-3293.4467L13206.7307,-3293.6668L13206.9702,-3293.5001L13207.0206,-3293.4002L13207.2205,-3293.3399L13207.5195,-3293.2068L13207.8293,-3293.14L13208.4305,-3293.1934L13208.4595,-3293.2735L13208.3603,-3293.4269L13208.0994,-3294.1334L13207.9895,-3294.3932L13207.8506,-3294.3802L13207.7194,-3294.4668L13207.4692,-3294.3867L13207.1594,-3294.7399L13206.9702,-3294.78L13206.6101,-3294.5L13206.3492,-3294.5866L13205.7205,-3294.5732L13205.1697,-3294.9402L13204.9698,-3295.3667L13205.0003,-3294.9669L13204.6997,-3294.7468L13204.5105,-3294.8002L13204.3106,-3294.7201L13203.9597,-3294.9333L13203.3295,-3295.1935L13203.2303,-3295.3732L13203.1006,-3294.8933L13203.3707,-3294.6732L13203.3096,-3293.94L13203.0197,-3293.94L13202.3895,-3293.8732L13202.1606,-3293.9869L13201.8295,-3293.8469L13201.5701,-3293.5532L13201.3901,-3293.5467L13201.12,-3293.5001L13201.0895,-3293.5669L13200.9399,-3293.2667L13200.5905,-3293.5135L13200.2899,-3293.2201L13200.1099,-3293.5001L13199.9893,-3293.7L13199.7696,-3293.6867L13199.6796,-3293.7466L13199.6002,-3293.8732L13199.6796,-3294.0132L13199.9298,-3294.4866L13199.7696,-3294.7533L13199.6796,-3294.8334L13199.6506,-3294.8799L13199.6796,-3294.9135L13200.4105,-3295.5269L13200.2396,-3295.52L13200.2594,-3295.8668L13199.7299,-3295.62L13199.6796,-3295.3865L13199.2798,-3295.3133L13198.9899,-3295.4132L13198.9105,-3295.3533L13199.1898,-3295.0802L13199.1898,-3294.9532L13199.1394,-3294.5335L13199.0005,-3294.5335L13198.7,-3294.1868L13198.41,-3294.22L13198.3398,-3293.9266L13198.1094,-3293.9266L13197.9202,-3294.0533L13197.7203,-3294.0468L13197.5204,-3294.36L13197.6105,-3294.5469L13197.2397,-3294.4935L13197.2,-3294.8868L13197.2702,-3294.9402L13197.1298,-3295.2732L13197.3602,-3295.5135L13197.3907,-3296.36L13197.2,-3296.1735L13197.02,-3295.5734L13196.6904,-3295.2801L13196.2097,-3295.9133L13195.9305,-3295.9934L13196.3303,-3294.7666L13196.2204,-3294.7533L13195.8405,-3294.5732L13195.2896,-3295.3533L13195.4498,-3295.3865L13195.2499,-3295.3732L13194.7098,-3295.9202L13194.5206,-3295.94L13194.2902,-3295.4735L13193.6798,-3295.2202L13193.4998,-3295.9736L13193.3105,-3296.2601L13193.1595,-3296.2334L13192.3004,-3296.4001L13192.5598,-3297.2267L13192.1005,-3297.4731L13192.0502,-3297.3866L13191.7206,-3297.4869L13191.4902,-3297.0135L13191.1606,-3297.2668L13191.0202,-3297.7135L13190.95,-3297.5399L13190.6494,-3297.6398L13190.77,-3297.8867L13190.48,-3297.6269L13190.3793,-3297.8199L13190.2405,-3297.7333L13190.1993,-3298.0732L13189.9597,-3298.1266L13189.5996,-3298L13189.5706,-3298.4333L13189.6606,-3298.9666L13189.2395,-3298.8335L13188.9008,-3299.1665L13189.0305,-3299.3134L13189.3097,-3299.5335L13189.3494,-3299.6067L13189.5599,-3299.4934L13189.8193,-3300.2998L13189.8102,-3300.3201L13189.8102,-3300.5867L13189.9399,-3300.3201L13189.9994,-3300.0198L13190.1596,-3299.5399L13190.1001,-3299.3134L13190.2298,-3299.1867L13190.77,-3300.0134L13190.4999,-3300.3201L13190.0696,-3301.0265L13190.8295,-3301.5934L13191.0004,-3301.6399L13191.2704,-3302.1L13192.0502,-3302.5734L13192.1906,-3302.6733L13191.9296,-3302.9533L13192.1097,-3303.4267L13192.0502,-3303.8933L13192.0502,-3304.0535L13192.0609,-3304.4468L13192.45,-3304.48L13192.6407,-3304.4735L13192.6102,-3304.8534L13192.8894,-3305.2265L13193.1107,-3305.2399L13193.5104,-3305.0468L13193.6005,-3304.8199L13194.2505,-3305.3669L13195.1202,-3304.9465L13195.8603,-3305.0999L13196.5607,-3304.7665L13197.6593,-3304.6532L13198.4894,-3304.8401L13198.8098,-3305.36L13199.1898,-3305.4134L13199.6796,-3305.6133L13200.2197,-3305.4466L13201.4999,-3305.8201L13201.7303,-3306.1268L13200.5203,-3306.1134L13200.4105,-3306.4934L13200.1801,-3306.9801L13199.9695,-3307.6401L13199.6796,-3307.7934L13199.4705,-3308.0933L13199.6597,-3308.6533L13199.6796,-3308.7666L13200.1205,-3309.6268L13199.8001,-3309.4933L13199.6796,-3309.3132L13199.4995,-3309.3067L13199.3698,-3309.38L13199.1898,-3309.0801L13198.7,-3309.0801L13198.6298,-3308.7666L13198.7503,-3308.6533L13198.6694,-3308.12L13198.4894,-3307.8201L13198.8708,-3307.1201L13198.7793,-3306.8066L13197.8897,-3306.5533L13197.5006,-3306.6666L13197.2794,-3306.1867L13196.7896,-3306.1802L13196.6904,-3306.44L13196.5195,-3306.4201L13196.73,-3306.76L13196.5698,-3306.7467L13196.6904,-3307.1266L13196.5302,-3307.2132L13196.4798,-3307.28L13195.4697,-3307.1934L13195.2698,-3306.6002L13195.1004,-3306.5933L13194.6701,-3306.6399L13194.5007,-3306.8401L13194.1803,-3307.0267L13194.2093,-3307.3269L13193.8705,-3307.6267L13194.0903,-3308.16L13193.6295,-3308.1333L13193.7103,-3308.6533L13193.6203,-3309.0866L13194.0109,-3309.4734L13194.0598,-3309.6466L13193.9102,-3309.6535L13192.8207,-3309.1534L13193.1396,-3308.9001L13193.1,-3308.6533L13193.2495,-3308.6533L13193.4097,-3308.6533L13193.2098,-3307.9266L13193.1,-3307.3868L13192.9001,-3307.3799L13192.6407,-3307.6069L13192.2897,-3307.2601L13192.7994,-3306.9866L13192.7597,-3306.6734L13192.2394,-3306.5933L13191.8701,-3306.9534L13191.8503,-3307.0599L13191.6397,-3306.8733L13191.6901,-3306.6334L13191.2903,-3306.6734L13191.1606,-3306.6399L13190.9592,-3306.8733L13191.1896,-3307.4001L13191.2003,-3307.6668L13190.95,-3307.8869L13190.9805,-3308.2134L13190.6296,-3308.0334L13190.0696,-3307.5199L13189.7202,-3307.6134L13189.5294,-3307.6L13188.4201,-3308.3599L13188.1897,-3308.2268L13188.1607,-3307.8934L13188.06,-3307.7332L13188.7604,-3307.4734L13188.4003,-3307.32L13187.7899,-3307.6401L13187.1796,-3307.7667L13186.3998,-3307.5466L13186.2595,-3307.5333L13185.8704,-3307.8335L13185.8093,-3307.7267L13185.8398,-3307.9067L13186.1801,-3308.3L13186.5799,-3308.3267L13185.5103,-3308.5464L13185.4095,-3308.6533L13185.2402,-3308.8799L13185.5103,-3308.9668L13185.4492,-3309.0668L13185.6995,-3309.0134L13185.7895,-3309.14L13186.1404,-3309.0534L13186.3297,-3308.9333L13186.6104,-3309.1534L13186.8607,-3309.0466L13186.8195,-3309.6733L13187.1796,-3309.7733L13187.4496,-3309.98L13187.97,-3310.3401L13187.8204,-3310.3401L13187.3993,-3310.3333L13187.5702,-3310.5934L13187.7701,-3310.7265L13188.0707,-3310.9066L13188.1897,-3310.8799L13188.5803,-3311.0935L13188.6993,-3310.8334L13189.4699,-3310.7265L13189.8392,-3311.0199L13189.9796,-3311.0733L13189.6698,-3311.6135L13191.0706,-3312.1799L13191.4703,-3312.4866L13191.0706,-3312.6865L13191.0202,-3312.64L13190.8707,-3312.6469L13190.4892,-3312.64L13190.2496,-3312.7865L13190.0406,-3312.7335L13189.92,-3313.1134L13190.1306,-3313.2133L13189.9597,-3313.4335L13189.7507,-3313.4998L13189.74,-3313.0669L13189.2105,-3312.4466L13188.7604,-3312.4466L13188.53,-3312.6801L13188.3194,-3312.1933L13188.1805,-3312.1933L13187.9395,-3312.1666L13187.7701,-3312.2932L13187.4496,-3312.2734L13187.5702,-3312.8399L13187.6495,-3313.0733L13187.1796,-3313.0135L13186.85,-3313.0932L13186.5204,-3312.7602L13186.5997,-3312.5401L13186.4395,-3312.5336L13186.0901,-3312.7934L13185.8795,-3312.4599L13185.8002,-3312.3669L13185.5896,-3312.08L13184.7198,-3311.7867L13184.6207,-3311.7134L13184.4406,-3311.4933L13184.0195,-3311.4868L13183.8898,-3311.6867L13183.4702,-3311.9068L13183.7402,-3312.3402L13182.9697,-3312.5534L13182.7499,-3312.2665L13182.55,-3312.0998L13182.0206,-3312.2467L13181.5598,-3312.2131L13181.4194,-3312.2734L13181.16,-3312.1067L13180.8395,-3312.0934L13181.1005,-3312.3669L13180.7404,-3312.7132L13179.9103,-3312.5L13179.7806,-3312.6999L13180.0903,-3312.9601L13180.4703,-3313.0531L13180.8792,-3313.5265L13180.9708,-3313.8733L13181.34,-3314.1132L13181.8298,-3314.5332L13182.1396,-3314.8335L13182.7606,-3315.0131L13182.6508,-3315.72L13182.6797,-3315.9199L13182.5104,-3315.5399L13182.4799,-3315.48L13182.1793,-3315.6067L13182.0496,-3315.5334L13182.1899,-3315.9466L13182.2495,-3316.3933L13182.3105,-3316.5268L13182.5897,-3316.9865L13182.6508,-3316.9865L13182.7805,-3316.9865L13183.0002,-3317.5869L13183.2397,-3317.8734L13183.3694,-3318.1999L13183.7601,-3318.3666L13184.0607,-3318.7065L13184.61,-3318.8065L13184.8404,-3318.8L13185.0906,-3319.1799"/>
<path content="BA010,1,1,JPN" xlink:title="BA010" d="M13189.36,-3323.5134L13189.4699,-3323.8335L13189.2609,-3323.8464L13188.8794,-3323.6401L13189.1998,-3323.6534L13189.36,-3323.5134"/>
<path content="BA010,1,1,JPN" xlink:title="BA010" d="M13174.2725,-3325.709L13174.2816,-3325.7159L13173.8528,-3326.0092L13173.8422,-3326.0024L13174.2725,-3325.709"/>
<path content="BA010,1,1,JPN" xlink:title="BA010" d="M13194.5496,-3327.0535L13195.0195,-3327.3869L13195.1996,-3327.3869L13195.52,-3327.4734L13195.4697,-3327.8866L13195.1401,-3327.8534L13194.9707,-3327.8667L13194.7296,-3327.8L13194.31,-3327.8065L13194.0002,-3327.7935L13193.7195,-3327.8L13193.7103,-3327.7L13194.0002,-3327.5532L13194.5496,-3327.0535"/>
<path content="BA010,1,1,JPN" xlink:title="BA010" d="M13218.75,-3344.5139L13218.3395,-3344.7399L13217.9001,-3344.8269L13217.7505,-3344.6735L13217.3508,-3344.68L13217.1097,-3344.4668L13217.4805,-3343.38L13217.5003,-3342.7399L13216.98,-3342.6601L13216.51,-3343.0199L13216.3605,-3343.0199L13215.5792,-3343.9602L13215.3198,-3343.6466L13215.1505,-3343.6535L13214.7293,-3343.3136L13216.04,-3342.58L13216.7496,-3341.9868L13216.8106,-3341.7202L13216.5802,-3341.5466L13216.4398,-3341.1068L13216.2491,-3341.1201L13216.0706,-3341.1201L13215.4099,-3340.6933L13215.1794,-3340.9401L13214.7995,-3341.1335L13214.5294,-3341.6668L13214.1296,-3341.9735L13214.0106,-3341.9868L13213.7497,-3342.0532L13213.6902,-3341.9868L13213.53,-3340.62L13213.4399,-3340.3866L13213.4705,-3340.3198L13213.2904,-3340.3L13212.8799,-3340.5201L13212.6404,-3340.7867L13212.8204,-3341.1865L13212.6602,-3341.6267L13212.3291,-3341.8999L13212.3505,-3341.9868L13212.1796,-3342.0334L13212.03,-3341.9868L13211.6791,-3341.6668L13211.5295,-3341.7469L13211.2701,-3341.4665L13211.0794,-3341.3265L13210.5896,-3340.8001L13209.9304,-3340.4999L13209.79,-3340.4736L13209.1797,-3340.0467L13208.8593,-3340.0734L13208.2993,-3339.64L13207.8003,-3338.9935L13207.7194,-3338.7535L13206.3904,-3338.1866L13205.2597,-3337.5668L13204.3198,-3336.7867L13204.1306,-3336.7802L13203.7506,-3336.4136L13203.3707,-3335.9001L13202.9495,-3335.5534L13202.4002,-3334.8534L13202.1393,-3334.8598L13201.7395,-3334.6802L13201.3596,-3334.4135L13201.1902,-3334.42L13201.4999,-3334.28L13201.6098,-3334.3067L13201.8494,-3334.4398L13201.9501,-3334.4067L13202.5101,-3334.4532L13202.98,-3334.7332L13203.9307,-3335.1601L13204.6692,-3335.6667L13205.04,-3335.7601L13205.0293,-3336.0867L13204.6799,-3336.5334L13205.0797,-3336.6798L13205.5191,-3336.7535L13205.9097,-3337.0602L13206.4697,-3337.3135L13206.7902,-3337.6068L13207.1396,-3337.4733L13207.3303,-3337.4668L13207.5104,-3337.7266L13207.6202,-3338.0001L13208.2901,-3337.9932L13208.3298,-3338.0669L13208.96,-3338.4533L13209.5398,-3338.7199L13211.1694,-3339.0202L13211.8195,-3339.1003L13211.9705,-3338.6536L13211.85,-3338.0466L13211.4899,-3338.1599L13211.1099,-3337.7266L13211.38,-3337.5401L13211.6394,-3337.2269L13211.3205,-3337.2269L13211.1694,-3337.0731L13210.9604,-3337.2734L13210.6995,-3337.2398L13210.3302,-3337.3402L13210.1105,-3336.6867L13210.2493,-3336.1866L13211.8393,-3336.4468L13212.1796,-3336.52L13212.9501,-3336.4002L13213.53,-3337.0533L13214.6606,-3337.5866L13215.2206,-3337.36L13215.3595,-3339.04L13216.6794,-3339.8602L13217.2394,-3340.3332L13218.3197,-3341.2334L13218.75,-3341.2943"/>
<path content="BA010,1,1,JPN" xlink:title="BA010" d="M13185.0906,-3319.1799L13185.7895,-3319.5866L13186.2,-3319.5534L13186.7996,-3320.2267L13186.6302,-3320.3201L13186.1908,-3320.2068L13186.0199,-3320.48L13186.5494,-3321.3001L13187.1597,-3321.6934L13187.1796,-3321.8201L13187.1796,-3321.9131L13187.1796,-3322.0734L13187.5702,-3322.3202L13187.5504,-3322.9134L13187.2803,-3322.8867L13187.1796,-3323.0865L13187.1307,-3323.6134L13187.1796,-3323.6332L13187.41,-3323.9265L13187.5305,-3324.3267L13187.6297,-3324.4202L13187.8601,-3324.5266L13187.9898,-3324.4133L13188.4796,-3324.4068L13188.9008,-3324.4133L13189.2502,-3324.8135L13189.4104,-3325.3201L13189.6301,-3325.4398L13189.9597,-3325.9731L13190.3,-3326.3535L13190.1505,-3326.8002L13189.2105,-3326.7532L13189.0503,-3326.8131L13187.8799,-3326.3L13187.1796,-3326.12L13186.6501,-3325.8266L13186.9293,-3325.3201L13186.9507,-3325.3201L13186.9904,-3325.3201L13187.1796,-3325.2201L13187.4207,-3325.0599L13187.1796,-3324.8867L13186.9293,-3324.8798L13186.6898,-3324.8867L13186.5601,-3324.86L13186.3998,-3325.1335L13186.0703,-3325.2399L13185.8398,-3325.3201L13185.5499,-3325.5531L13185.0296,-3325.3201L13184.7702,-3325.2132L13184.1095,-3325.1064L13184.0897,-3324.8669L13183.8806,-3324.8333L13183.7006,-3324.9401L13183.4,-3324.72L13182.8796,-3324.7601L13180.9402,-3324.3L13179.7806,-3324.1932L13177.8702,-3324.5533L13177.5406,-3324.3999L13177.3407,-3324.1264L13177.0508,-3324.1066L13177.8107,-3324.86L13177.8,-3325.2933L13177.4307,-3325.1732L13177.2308,-3324.4732L13176.8906,-3324.4732L13176.8906,-3324.9866L13176.5594,-3324.9931L13176.5503,-3325.2266L13175.3906,-3325.2335L13175.3799,-3324.1467L13175.8606,-3324.1264L13175.7904,-3324.0131L13174.7498,-3324.3134L13174.6796,-3324.3401L13174.6796,-3324.5068L13175.0595,-3324.6735L13175.0504,-3324.8135L13174.6796,-3324.8264L13174.35,-3325.2865L13174.1608,-3325.2132L13174.2401,-3324.8867L13173.8297,-3324.86L13173.6298,-3324.9134L13173.4894,-3324.72L13172.9599,-3325.0198L13173.3795,-3325.3201L13173.41,-3325.5932L13171.7896,-3326.6266L13171.2006,-3325.9731L13170.9,-3326.1665L13171.46,-3326.82L13170.4193,-3327.4467L13170.0195,-3326.7799L13169.0094,-3326.8002L13169.0704,-3327.9202L13167.9901,-3327.8999L13168.5699,-3326.7735L13168.3502,-3326.6335L13167.8604,-3326.8932L13167.5293,-3327.7733L13166.6107,-3327.4601L13167.1494,-3326.0132L13166.5894,-3325.8469L13165.9195,-3327.3468L13162.7197,-3326.5068L13162.6007,-3326.8333L13163.1104,-3327.1667L13163.0997,-3327.1866L13162.5702,-3326.8398L13162.6999,-3326.4935L13162.4008,-3326.3733L13162.1902,-3325.9533L13162.1796,-3325.9533L13161.9705,-3325.9399L13161.9003,-3326.1665L13161.4197,-3326.1665L13159.9106,-3325.5733L13160.08,-3325.3201L13160.2905,-3325.3201L13160.6598,-3325.3933L13160.7605,-3325.3201L13159.9503,-3324.9401L13159.7702,-3325.2266L13159.1202,-3325.0267L13159.2392,-3324.5934L13159.0897,-3324.5731L13158.8394,-3324.5533L13158.6502,-3324.7665L13158.5999,-3324.6201L13158.1406,-3324.9134L13157.7301,-3324.8798L13156.2302,-3325.3201L13155.8304,-3325.5531L13155.5603,-3325.5402L13155.0507,-3325.6802L13154.6402,-3325.5199L13153.4195,-3325.8202L13152.2598,-3326.5266L13151.7197,-3326.5202L13151.1093,-3326.8799L13150.7202,-3327.6001L13150.3296,-3329.7333L13150.4501,-3329.8466L13150.2594,-3329.7802L13150.3296,-3329.9999L13150.3403,-3330.6534L13150.1297,-3331.34L13149.9405,-3331.9199L13150.1495,-3332.28L13149.8703,-3332.3933L13149.6796,-3332.6733L13149.6796,-3332.9399L13149.6796,-3333.1066L13149.5193,-3332.9601L13149.6094,-3333.6533L13149.6399,-3333.9268L13149.4095,-3333.9401L13149.5697,-3334.6134L13149.6796,-3334.7603L13149.7406,-3335.78L13149.8398,-3335.82L13149.8795,-3336.0535L13150.3494,-3336.1534L13150.6699,-3336.1465L13151.4999,-3336.48L13152.5803,-3336.7668L13153.54,-3336.6199L13153.7704,-3336.7802L13154.0192,-3336.1134L13154.0909,-3335.9333L13154.48,-3335.3466L13155.0796,-3334.9735L13155.6503,-3335.0666L13155.5099,-3335.2402L13155.4993,-3335.3535L13155.9402,-3335.1334L13156.4102,-3335.1467L13157.7805,-3334.8133L13158.6105,-3334.6268L13158.1299,-3335.2669L13157.9895,-3335.2402L13158.2001,-3335.3867L13158.5098,-3335.1601L13159.2102,-3334.7267L13159.61,-3335.0933L13159.7,-3336.0466L13159.52,-3336.4666L13159.6207,-3337.0869L13159.7504,-3337.1136L13160.7803,-3337.0934L13161.6302,-3337.1933L13162.1796,-3337.4466L13163.4201,-3337.4001L13163.7497,-3337.5866L13163.9908,-3337.5401L13164.3509,-3337.5668L13164.6805,-3338.3331L13164.8697,-3338.4468L13164.7598,-3338.6868L13164.5599,-3338.9267L13164.4104,-3339.3467L13163.6505,-3339.8468L13163.4506,-3339.92L13163.5895,-3340.6136L13163.4003,-3340.6136L13163.0402,-3340.9401L13162.5504,-3341.0133L13163.0096,-3341.4734L13163.3896,-3341.5867L13163.3804,-3341.9601L13163.0295,-3341.8934L13162.7594,-3341.9868L13163.4598,-3342.3267L13164.4104,-3341.9868L13164.5798,-3341.8602L13164.5905,-3341.9868L13164.9796,-3341.9868L13165.2695,-3341.9868L13165.6296,-3342.3199L13165.8508,-3342.1734L13166.1407,-3342.16L13166.0904,-3341.9868L13166.2399,-3341.9868L13166.4597,-3341.9868L13167.0303,-3341.8468L13167.1204,-3341.7866L13167.2195,-3341.7202L13167.1005,-3341.5932L13166.9907,-3341.18L13166.3803,-3340.9668L13165.9607,-3340.9668L13166.8701,-3340.8669L13167.7002,-3341.0599L13168.66,-3340.6136L13168.9102,-3340.6933L13169.5404,-3340.58L13169.5404,-3340.5132L13169.9203,-3340.6136L13170.2393,-3340.7135L13170.3995,-3341.9868L13171.2601,-3344.1666L13171.4294,-3344.2467L13171.8002,-3344.7933L13172.1298,-3345.0134L13172.4899,-3346.2135L13172.8607,-3346.6267L13173.3902,-3347.0333L13173.4604,-3346.4867L13173.8007,-3346.4867L13173.8007,-3347.62L13173.7396,-3349.5201L13173.3795,-3349.3866L13173.2605,-3348.8266L13172.8699,-3349.5602L13172.9294,-3349.9935L13173.0804,-3350.0465L13172.9797,-3350.1667L13172.9996,-3350.2068L13172.9294,-3350.3201L13173.1506,-3351.6067L13174.0097,-3353.6934L13174.4202,-3354.2732L13174.2096,-3354.2732L13173.9105,-3355.2868L13173.7198,-3355.2734L13174.0707,-3355.5401L13173.9899,-3356.1134L13173.7106,-3356.5201L13173.5306,-3356.4266L13173.5703,-3356.5868L13173.5596,-3356.9267L13173.4299,-3356.6467L13173.2605,-3357.8667L13172.9401,-3358.6533L13172.7493,-3358.7601L13172.3297,-3358.9935L13171.4996,-3360.2669L13171.2799,-3360.4069L13171.0999,-3360.4202L13170.8405,-3360.3867L13170.0607,-3361.2934L13169.1299,-3364.08L13168.9499,-3364.0598L13168.7607,-3364.0999L13168.1702,-3363.9599L13167.7795,-3364.4733L13167.5507,-3364.8399L13167.1997,-3365.2668L13167.0197,-3365.7402L13166.8503,-3365.6734L13166.6199,-3366.1266L13166.5192,-3366.4135L13166.4001,-3366.6332L13166.4398,-3366.84L13166.1194,-3366.8068L13166.0599,-3366.9868L13166.0095,-3366.9868L13165.2298,-3366.42L13165.1001,-3366.0336L13164.5996,-3366.3734L13164.6606,-3366.9868L13164.9597,-3367.2333L13164.7202,-3367.4133L13164.5004,-3367.2268L13164.1602,-3367.3801L13164.0701,-3367.68L13163.8306,-3367.6666L13163.5208,-3368.2068L13163.0997,-3368.1801L13162.9593,-3368.1801L13162.9898,-3367.2001L13162.6602,-3366.9868L13162.4496,-3366.9868L13162.4298,-3366.9868L13162.2696,-3367.7334L13162.1796,-3367.8135L13161.8607,-3368.0866L13161.6592,-3367.82L13161.5295,-3367.4934L13161.2,-3367.6933L13160.5896,-3367.9733L13160.6308,-3368.6867L13160.0098,-3368.5867L13159.8801,-3368.7L13159.7504,-3368.6668L13159.5901,-3368.6668L13159.3903,-3368.6668L13158.7906,-3369.0266L13158.58,-3368.9667L13158.4595,-3369.2467L13157.9193,-3369.0533L13157.28,-3368.5799L13157.4005,-3367.7334L13157.4707,-3367.5068L13156.5201,-3367.4667L13156.4697,-3367.8669L13155.9601,-3368.6733L13155.69,-3368.5135L13155.4703,-3368.5669L13155.4108,-3368.0935L13154.9301,-3368.2133L13154.7607,-3367.8467L13154.4907,-3368.0332L13154.39,-3367.6735L13154.2297,-3367.6666L13153.8101,-3367.9535L13153.6407,-3367.9867L13153.36,-3367.6601L13152.7802,-3368.1801L13152.6306,-3368.1202L13152.1805,-3368.4067L13152.3102,-3368.1L13152.89,-3367.3466L13152.5497,-3367.2268L13152.2507,-3367.5068L13152.0996,-3367.5133L13151.9608,-3367.0933L13151.7395,-3366.9868L13151.3794,-3366.9533L13151.3794,-3366.9868L13150.6302,-3367.4866L13150.5692,-3367.0734L13150.09,-3367.1669L13149.8093,-3366.9868L13149.8993,-3366.7L13149.6796,-3366.6069L13149.6796,-3366.2868L13150.3906,-3365.6399L13150.1495,-3365.5266L13149.7894,-3365.5869L13149.6796,-3365.48L13149.5193,-3365.48L13149.3301,-3365.2134L13149.6796,-3364.9933L13149.6796,-3364.9334L13149.5499,-3364.7335L13149.6796,-3364.5802L13149.6796,-3364.5267L13149.3698,-3364.3532L13148.5596,-3364.8201L13148.5001,-3364.7736L13148.3902,-3364.3333L13147.9599,-3364.1533L13148.1003,-3363.8134L13148.2208,-3363.7798L13148.2895,-3363.5532L13147.8699,-3363.3068L13147.4106,-3362.9333L13147.4396,-3362.4935L13147.3007,-3362.0869L13146.9101,-3361.5269L13146.8506,-3361.2133L13146.1395,-3361.9133L13144.4504,-3360.7002L13142.3203,-3359.1736L13142.3096,-3358.6533L13142.6498,-3357.6801L13142.9504,-3357.6336L13143.0099,-3357.3799L13142.5201,-3357.3334L13142.1204,-3357.3334L13141.2598,-3357.3334L13140.3,-3357.2399L13140.1505,-3357.3799L13139.8895,-3357.3666L13139.7903,-3357.3933L13139.7095,-3357.5268L13139.4196,-3357.5001L13138.9801,-3357.5668L13138.7604,-3357.56L13138.1195,-3357.6L13137.9395,-3357.6L13137.4298,-3357.6599L13137.3505,-3358.0002L13137.1796,-3357.7534L13137.1796,-3357.6801L13137.1796,-3357.56L13137.1002,-3357.6534L13136.3708,-3357.6401L13136.0703,-3357.7801L13135.2509,-3357.3536L13134.1599,-3357.1602L13133.8806,-3357.1335L13133.4,-3357.7732L13133.2794,-3358.12L13132.6996,-3358.1333L13132.4005,-3358.0601L13132.2205,-3358.2935L13131.9504,-3358.26L13131.8497,-3358.0666L13131.6605,-3358.0467L13131.0303,-3358.1936L13130.1498,-3358.0532L13129.9698,-3358.0868L13129.1306,-3358.0135L13128.83,-3357.84L13128.1708,-3358.0002L13127.8198,-3358.0734L13127.2598,-3358.3534L13127.2202,-3358.5602L13127.1301,-3358.6533L13127.1194,-3358.8066L13127.0706,-3358.6533L13126.9806,-3358.6533L13126.5701,-3358.7601L13126.7197,-3359.2533L13125.5997,-3359.7801L13125.0504,-3360.3535L13125.0397,-3360.6533L13124.6796,-3360.9333L13124.4507,-3361.1069L13124.0799,-3360.6602L13123.8098,-3360.6468L13123.7,-3360.1734L13123.0194,-3360.1536L13121.8796,-3360.4401L13121.6599,-3360.4267L13121.3104,-3360.5267L13121.5698,-3360.8932L13120.8206,-3361.2469L13120.52,-3361.6001L13120.8099,-3361.4334L13120.8694,-3361.3602L13120.8405,-3361.5665L13119.8593,-3361.7401L13119.5297,-3361.5135L13119.0201,-3361.7268L13118.8095,-3361.6867L13118.8492,-3361.4933L13118.4509,-3361.6199L13118.0405,-3361.9534L13117.7994,-3361.9736L13116.98,-3361.8465L13116.89,-3361.6734L13116.5405,-3361.6867L13116.0095,-3361.6798L13114.8499,-3362.2665L13113.9694,-3362.4599L13113.8504,-3362.5866L13112.9105,-3362.7998L13112.8098,-3363.1203L13112.6404,-3363.1134L13112.8494,-3362.7266L13113.1104,-3362.3135L13112.5504,-3362.6202L13112.4893,-3362.4401L13112.1796,-3362.4535L13112.1796,-3362.6534L13112.1796,-3362.7266L13112.0102,-3363.0199L13111.4197,-3363.0333L13111.5204,-3361.8668L13111.2305,-3361.7668L13111.2595,-3362.3798L13110.7193,-3362.3798L13110.6995,-3361.6798"/>
<path content="BA010,1,1,JPN" xlink:title="BA010" d="M13163.2599,-3371.6534L13164.4302,-3372.0798L13164.5599,-3372.1268L13165.6296,-3372.2202L13166.4597,-3371.6866L13167.1799,-3372.0333L13167.3004,-3372.1931L13167.4408,-3372.4335L13168.7698,-3373.0469L13168.9407,-3373.2334L13170.0607,-3373.04L13169.4305,-3373.4467L13168.9499,-3373.2666L13168.8202,-3373.2601L13168.3502,-3373.4867L13167.9108,-3373.7999L13167.3798,-3373.7934L13166.5894,-3373.98L13165.6204,-3373.2399L13165.4099,-3373.2468L13165.2802,-3373.0068L13164.8193,-3373.0202L13164.7003,-3372.8867L13164.5996,-3373.0335L13164.2303,-3373.2136L13163.8901,-3372.4735L13163.0295,-3372.06L13163.2599,-3371.6534"/>
<path content="BA010,1,1,JPN" xlink:title="BA010" d="M13202.2903,-3373.5199L13202.9205,-3373.6465L13203.0502,-3374.0135L13202.4597,-3373.6866L13202.2903,-3373.5199"/>
<path content="BA010,1,1,JPN" xlink:title="BA010" d="M13213.3804,-3371.3135L13213.8397,-3371.6331L13214.3494,-3371.8868L13214.8697,-3372.1066L13215.1993,-3372.8931L13214.5996,-3373.7L13214.7507,-3374.3801L13215.1001,-3374.9668L13215.0549,-3375M13214.1596,-3375L13214.1098,-3374.8669L13213.9008,-3374.5468L13214.0701,-3373.8602L13214.4592,-3373.7133L13214.2899,-3372.9267L13214.1403,-3372.9401L13213.2797,-3372.6933L13212.7594,-3372.0535L13212.6694,-3371.7667L13213.3804,-3371.3135"/>
<path content="BA010,1,1,JPN" xlink:title="BA010" d="M13110.6995,-3361.6798L13109.8694,-3361.8668L13109.6405,-3362.3135L13109.4406,-3362.3333L13109.3002,-3362.3531L13109.2499,-3362.8666L13108.6395,-3363.5265L13108.58,-3363.4132L13108.4,-3363.4399L13108.2703,-3363.5933L13107.9697,-3364.7736L13107.0694,-3365.6334L13106.7505,-3365.4598L13106.5506,-3365.7734L13106.2698,-3366.9266L13106.1996,-3366.9868L13105.5695,-3367.7868L13105.4001,-3368.1267L13105.0903,-3368.6066L13104.9408,-3368.5932L13105.5298,-3368.9999L13104.8294,-3368.9068L13104.6402,-3368.9335L13104.4998,-3368.8469L13103.9307,-3369.1002L13103.3203,-3370.1534L13102.5299,-3371.4401L13101.9302,-3373.1266L13101.4404,-3373.1869L13101.3794,-3373.4402L13101.68,-3373.9735L13101.6403,-3374.1669L13101.7593,-3374.7066L13101.5557,-3375M13101.0592,-3375L13100.9705,-3374.9203L13100.9506,-3374.8402L13100.8499,-3374.7269L13101.0208,-3374.7467L13100.7401,-3374.3866L13100.3204,-3374.9802L13100.3169,-3375"/>
</g>
</svg>
