<?xml version="1.0" encoding="UTF-8"?>
<svg  xmlns="http://www.w3.org/2000/svg" xmlns:xlink="http://www.w3.org/1999/xlink" xmlns:go="http://purl.org/svgmap/profile" property="f_code,acc,exs,soc" viewBox="12937.5 -3093.75 281.25 281.25" go:dataArea="12937.5 -3093.75 281.25 281.25" >
<metadata>
 <rdf:RDF xmlns:rdf="http://www.w3.org/1999/02/22-rdf-syntax-ns#" xmlns:crs="http://opengis.org/xmldtds/transformations.dtd" xmlns:svg="http://www.w3.org/svg" >
  <rdf:Description>
   <crs:CoordinateReferenceSystem rdf:resource="http://purl.org/crs/84" svg:transform="matrix(100.0,0.0,0.0,-100.0,0.0,0.0)" />
  </rdf:Description>
 </rdf:RDF>
</metadata>
<globalCoordinateSystem srsName="http://purl.org/crs/84" transform="matrix(100.0,0.0,0.0,-100.0,0.0,0.0)" />
<defs>
 <g id="p0" >
  <circle cx="0.0" cy="0.0" r="3" stroke="green" stroke-width="2.0" vector-effect="non-scaling-stroke" />
 </g>
</defs>
<g fill="none" fill-rule="evenodd" stroke="#000000" stroke-width="2" opacity="0.5" vector-effect="non-scaling-stroke" stroke-linejoin="bevel" >
<path content="BA010,1,1,JPN" xlink:title="BA010" d="M12946.9894,-2820.8067L12946.8399,-2821.0934L12946.55,-2821.2601L12946.3501,-2821.1134L12946.2997,-2821.1866L12946.0602,-2821.1L12945.7306,-2820.8935L12945.34,-2820.4866L12945.0699,-2820.4134L12945.1401,-2820.0666L12945.1004,-2819.8267L12944.87,-2819.7468L12945.0104,-2819.4933L12944.7403,-2819.6001L12944.5908,-2819.8067L12944.2505,-2819.8067L12944.0399,-2819.5267L12943.6996,-2819.7134L12943.3502,-2819.8668L12942.8604,-2819.2867L12942.3996,-2819.1868L12942.3203,-2818.84L12942.1494,-2818.9335L12941.8503,-2818.6867L12941.42,-2818.9199L12941.2399,-2818.9335L12941.0995,-2819.0533L12940.6097,-2819.26L12940.2496,-2819.0533L12940.1596,-2818.5734L12940.5899,-2818.3067L12940.7501,-2818.2867L12940.7303,-2817.8267L12940.5197,-2816.9867L12940.2893,-2816.74L12940.2893,-2815.7467L12940.2008,-2815.56L12940.1398,-2815.6334L12940.0299,-2815.3467L12939.7202,-2815.7133L12939.36,-2815.7734L12938.7299,-2816.1335L12938.3698,-2816.0467L12938.2706,-2816.3532L12937.8006,-2816.4934L12937.5198,-2816.2468L12937.5,-2816.2553M12937.5,-2812.547L12937.5612,-2812.5"/>
<path content="BA010,1,1,JPN" xlink:title="BA010" d="M12994.4504,-2827.3867L12994.4992,-2827.54L12994.6198,-2827.52L12994.6091,-2827.5801L12994.6701,-2827.6535L12994.78,-2827.7201L12994.8593,-2827.6001L12994.96,-2827.5867L12994.8792,-2827.5333L12995.0592,-2827.5801L12995.1797,-2827.4868L12995.6696,-2827.7599L12995.7504,-2827.82L12995.8694,-2827.9068L12996.3593,-2827.9533L12996.2692,-2828.2534L12996.3791,-2828.4067L12996.5393,-2828.48L12996.4996,-2828.2801L12996.8796,-2828.1799L12997.3297,-2828.5534L12997.5098,-2828.9801L12997.67,-2828.7201L12998.3398,-2829.92L12998.3795,-2829.9934L12998.6008,-2830.2467L12998.6298,-2830.46L12999.6597,-2831.6334L12999.6796,-2831.6534L13000,-2832.3L13000.3204,-2832.9468L13000.4395,-2832.9535L13000.09,-2833.1867L13000.0504,-2833.6533L13000.1801,-2833.6533L13000.3098,-2833.3799L13000.6195,-2833.2867L13000.7492,-2833.6401L13000.7095,-2833.6533L13000.5096,-2833.8867L13000.8896,-2833.7467L13000.9094,-2833.6533L13001.1307,-2833.5199L13001.6708,-2833.6533L13002.2003,-2834.3334L13002.2598,-2834.8L13002.8397,-2834.9867L13002.9602,-2835.3933L13002.6505,-2835.6132L13003.3203,-2835.6466L13003.36,-2836.3667L13003.0502,-2836.3001L13003.3493,-2836.54L13002.9404,-2837.1401L13001.8097,-2837.7466L13000.8301,-2837.4599L13000.1999,-2836.5133L13000.1999,-2836.4601L13000,-2836.5114L12999.6796,-2836.5932L12998.8693,-2835.7599L12998.0301,-2834.9199L12997.2092,-2834.16L12996.1899,-2833.6935L12996.1792,-2833.6533L12995.9396,-2833.4135L12995.1492,-2832.9866L12994.96,-2832.5867L12994.6899,-2832.6733L12994.6304,-2832.4934L12994.4595,-2832.6733L12994.1696,-2832.6868L12993.5501,-2832.48L12993.5593,-2832.18L12993.4097,-2832.16L12992.9794,-2832.5201L12991.8793,-2831.9601L12991.4993,-2831.5001L12991.2796,-2831.04L12991.5405,-2829.5067L12991.8594,-2829.5933L12991.7099,-2829.24L12992.1097,-2828.8933L12992.4591,-2829.1401L12992.7002,-2829.0533L12992.9398,-2829.0934L12993.2205,-2828.5868L12993.4692,-2828.38L12993.5699,-2828.38L12993.4494,-2828.1799L12993.9194,-2827.56L12994.4504,-2827.3867"/>
<path content="BA010,1,1,JPN" xlink:title="BA010" d="M12946.9894,-2820.8067L12947.3801,-2820.96L12947.4594,-2820.9066L12947.4594,-2821.5134L12947.2595,-2821.6866L12947.0306,-2821.9334L12946.9803,-2822.0734L12945.7199,-2822.8333L12945.4498,-2823.2134L12945.1599,-2823.1934L12945.0394,-2823.2065L12944.9493,-2822.8933L12944.4901,-2822.8867L12943.8705,-2823.2201L12943.7103,-2823.4734L12943.5501,-2823.4533L12943.0603,-2823.8333L12942.839,-2823.6601L12942.2104,-2824.2399L12941.9205,-2824.1266L12940.9805,-2824.56L12940.6296,-2824.9134L12940.8203,-2824.9735L12941.0995,-2825.0334L12941.1606,-2824.8867L12942.7795,-2824.7934L12943.3792,-2824.74L12943.7195,-2824.44L12944.2093,-2824.6401L12944.4107,-2824.88L12944.2505,-2825.0999L12944.4107,-2825.3201L12944.87,-2826.1133L12945.3995,-2826.42L12945.7993,-2826.4868L12945.5902,-2827.38L12945.34,-2827.7599L12945.5902,-2828.8334L12945.4605,-2829.2868L12946.17,-2829.6066L12946.6705,-2829.5067L12946.8506,-2829.2465L12947.3495,-2829.4201L12948.1094,-2828.8334L12948.6404,-2828.9534L12948.9502,-2829.1201L12949.0295,-2829.2734L12949.1608,-2829.2667L12949.0997,-2829.3333L12949.4507,-2829.5668L12949.6796,-2829.6467L12949.8596,-2829.7733L12950.1602,-2829.76L12951.4297,-2830.0934L12951.9394,-2830.1067L12952.3102,-2830.4199L12952.7405,-2830.4001L12953.3005,-2830.62L12953.5202,-2830.6133L12954.2603,-2831.0133L12954.2206,-2831.5001L12954.1199,-2831.5399L12953.5904,-2831.9134L12953.5095,-2832.1001L12953.4393,-2831.9201L12953.2303,-2832.1466L12953.3096,-2832.72L12953.54,-2832.9933L12954.6097,-2832.9866L12955.0903,-2833.18L12955.2704,-2833.3467L12955.5603,-2833.2268L12955.8899,-2833.2535L12956.0593,-2833.2468L12956.4606,-2833.6533L12956.9702,-2834.4934L12957.4005,-2834.7534L12957.6996,-2835.4799L12957.8506,-2835.5267L12958.2504,-2835.8732L12958.4396,-2836.4668L12958.9691,-2836.3867L12959.1599,-2836.5868L12959.5901,-2837.7733L12960.0296,-2838.2267L12960.2402,-2838.5733L12960.7803,-2838.8933L12961.0199,-2839.5535L12961.3205,-2839.9868L12961.5692,-2839.9532L12962.1399,-2840.3534L12962.1796,-2840.3667L12963.0203,-2840.6334L12963.2706,-2840.5733L12964.1693,-2840.2534L12965.39,-2840.0534L12965.5106,-2839.74L12966.1606,-2839.7667L12966.4093,-2839.7734L12966.7694,-2840.7734L12967.3401,-2841.0534L12968.2602,-2841.1133L12968.8309,-2841.32L12969.4092,-2841.4066L12970.0897,-2841.9867L12970.7703,-2842.8467L12970.4498,-2842.2066L12970.7993,-2842.0668L12971.7895,-2843.9934L12971.5393,-2843.9934L12971.2402,-2843.7468L12971.3501,-2844.7735L12971.6492,-2845.0867L12972.11,-2845.8067L12971.8704,-2846.1L12971.6095,-2846.5265L12971.7407,-2847.46L12971.2799,-2847.3801L12970.8099,-2847.64L12970.34,-2847.64L12969.9493,-2848.1199L12969.7296,-2848.6334L12969.4199,-2849.0467L12969.0796,-2850L12968.9301,-2850.3201L12969.2291,-2850.9535L12969.0002,-2852.6867L12968.7897,-2852.98L12967.4805,-2852.56L12966.4001,-2850.8667L12966.2308,-2850.5733L12965.8905,-2850.44L12965.8203,-2850.3201L12965.6006,-2849.9466L12965.2603,-2849.9268L12964.6896,-2850.2867L12964.4897,-2849.7665L12965.5197,-2848.6532L12965.6693,-2848.0734L12966.5604,-2847.2935L12966.9998,-2846.7867L12967.0792,-2846.2601L12967.3096,-2846.1L12967.0502,-2845.5467L12966.7404,-2845.4599L12966.7206,-2844.6867L12966.8106,-2844.4668L12967.1005,-2844.0933L12966.51,-2843.8334L12965.9897,-2844.6934L12965.6906,-2845.9L12965.3595,-2846.18L12965.1398,-2846.7733L12964.9002,-2846.76L12964.74,-2846.7667L12964.9002,-2846.0135L12965.0299,-2845.4599L12964.7903,-2844.8133L12965.0604,-2844.5868L12965.1306,-2844.0599L12965.77,-2843.4799L12965.4999,-2842.66L12965.4602,-2842.3933L12965.0604,-2842.1734L12964.83,-2842.6933L12964.6896,-2842.6867L12964.5493,-2842.9867L12964.5294,-2843.3399L12964.2197,-2843.0534L12964.1495,-2842.6399L12964.0594,-2842.1801L12964.0701,-2841.9867L12963.6902,-2841.56L12962.6007,-2841.44L12962.1796,-2841.5934L12961.9095,-2841.9867L12961.8393,-2842.7799L12962.1796,-2843.0201L12962.8906,-2843.56L12962.6892,-2843.9533L12962.7197,-2844.4935L12962.7594,-2844.5601L12962.3306,-2844.7866L12962.2604,-2844.9333L12962.1796,-2844.9333L12961.94,-2845.0001L12961.7401,-2844.78L12961.5906,-2844.7933L12961.5097,-2844.5066L12961.8301,-2843.84L12961.8607,-2843.6068L12961.5295,-2843.1866L12961.1298,-2843.1534L12961.2503,-2843.5867L12961.1603,-2843.6399L12960.1807,-2843.0401L12960.1105,-2842.4067L12960.1105,-2841.9867L12960.0006,-2841.4333L12959.8999,-2841.4066L12959.5001,-2841.7999L12959.3002,-2841.6L12959.5596,-2841.3933L12959.3201,-2841.1934L12958.9005,-2841.3534L12959.1599,-2841.9867L12959.2697,-2842.3L12959.1293,-2842.5667L12959.6893,-2842.9001L12959.61,-2843.5801L12960.5301,-2843.5135L12960.5194,-2844.3867L12960.4706,-2845.3268L12960.9406,-2845.6867L12961.2198,-2846.0867L12961.5005,-2846.5067L12962.0499,-2846.74L12961.8607,-2847.2868L12962.1094,-2847.6999L12961.9797,-2847.72L12961.7096,-2847.6667L12961.4304,-2847.6866L12961.0901,-2847.5267L12961.2,-2847.6601L12959.8694,-2847.4466L12959.3704,-2847.3667L12958.58,-2846.6133L12957.8293,-2846.7133L12957.1594,-2846.2601L12956.7093,-2845.6068L12956.4697,-2845.5999L12956.1401,-2845.7733L12956.1401,-2845.08L12956.0593,-2844.8534L12955.6107,-2844.82L12954.9698,-2845.7867L12954.3106,-2846.1935L12954.0894,-2845.9734L12954.01,-2845.9066L12953.6804,-2845.3934L12953.3295,-2845.3199L12953.3997,-2844.9133L12952.8503,-2844.6133L12952.4307,-2844.52L12952.2995,-2844.68L12952.0401,-2844.3201L12951.7105,-2844.0201L12951.59,-2843.0468L12951.7792,-2842.84L12951.6495,-2842.5533L12951.5106,-2842.58L12951.3092,-2841.9867L12951.1993,-2841.4L12951.0895,-2840.7135L12951.3794,-2840.5399L12951.9501,-2840.2134L12952.1606,-2839.9935L12952.1698,-2839.9067L12951.5396,-2839.9334L12951.1597,-2839.8001L12950.7004,-2839.9799L12950.56,-2839.8533L12950.6897,-2839.6267L12950.1495,-2838.7135L12949.6796,-2837.9934L12949.4095,-2838.1268L12949.4995,-2838.3133L12949.2493,-2838.2734L12949.3698,-2838.48L12949.4705,-2838.5L12949.5697,-2840.2534L12949.3805,-2840.2468L12949.1104,-2840.86L12948.8098,-2841.1867L12948.4497,-2840.6467L12948.0301,-2840.0801L12948.0591,-2840L12947.5494,-2839.9668L12946.6293,-2840.2L12946.9894,-2840.8268L12946.3303,-2841.2334L12946.1502,-2841.26L12945.5093,-2841.0534L12945.1401,-2839.2668L12944.6304,-2838.6866L12944.9005,-2838.1466L12944.4199,-2838.0001L12944.1895,-2838.2267L12943.8492,-2838.1401L12943.6707,-2838.22L12943.3701,-2838.1201L12942.9901,-2838.3734L12942.5705,-2838.8334L12942.4103,-2838.8401L12942.1295,-2838.7135L12941.7694,-2838.5534L12941.3696,-2838.5401L12941.2308,-2838.6667L12940.6708,-2838.2734L12940.1703,-2838.2534L12939.3906,-2838.5401L12939.3799,-2838.4466L12939.3799,-2838.4333L12940.2695,-2837.7535L12940.4907,-2837.0134L12940.5304,-2836.6867L12940.7501,-2836.5467L12940.9805,-2836.3533L12940.8203,-2836.1799L12940.3992,-2836.2934L12940.3305,-2835.7735L12939.8193,-2835.5534L12939.6805,-2836.0067L12939.4592,-2836.78L12938.9008,-2837.1201L12938.62,-2837.2868L12938.2401,-2836.8933L12937.6694,-2836.5667L12937.5,-2836.578"/>
<path content="BA010,1,1,JPN" xlink:title="BA010" d="M12960.3607,-2944.4532L12960.9894,-2944.5L12961.6608,-2944.6533L12961.8805,-2945.1067L12961.6699,-2945.5732L12961.0306,-2946.5668L12960.8093,-2947.1735L12960.0601,-2947.46L12959.8801,-2947.5599L12959.7107,-2947.5401L12959.3002,-2947.6334L12959.0302,-2947.1399L12958.3496,-2946.1933L12958.6899,-2945.8532L12959.4803,-2945.5L12959.4894,-2945.3466L12959.3399,-2944.5734L12960.3607,-2944.4532"/>
<path content="BA010,1,1,JPN" xlink:title="BA010" d="M12970.5902,-2960.22L12971.1502,-2960.5867L12971.0907,-2961.2333L12971.6797,-2961.7201L12972.5998,-2962.3734L12973.2498,-2962.8334L12973.7305,-2963.7199L12973.8495,-2964.74L12973.7595,-2965.3067L12974.1806,-2966.9201L12974.1196,-2966.9867L12973.6893,-2967.1801L12972.9904,-2966.9867L12972.6898,-2966.7334L12971.9803,-2966.9666L12971.5393,-2966.84L12970.3506,-2966.42L12969.6701,-2965.7801L12969.1895,-2965.9201L12969.0796,-2965.6134L12968.7698,-2965.62L12968.6401,-2965.3467L12968.4494,-2965.3667L12968.3395,-2965.0932L12968.3792,-2965.0133L12968.7698,-2964.7266L12968.2999,-2964.1001L12968.84,-2963.6L12968.8202,-2963.1468L12968.6905,-2962.8599L12968.84,-2962.6266L12969.1299,-2961.5067L12969.6304,-2960.94L12969.6503,-2960.3065L12970.0806,-2960.2335L12970.5902,-2960.22"/>
<path content="BA010,1,1,JPN" xlink:title="BA010" d="M12953.5294,-2967.5865L12953.8101,-2968.3132L12953.7201,-2969.5L12953.3005,-2969.6266L12952.8595,-2969.4401L12952.42,-2968.5865L12952.7802,-2968.14L12953.2394,-2967.8932L12953.5294,-2967.5865"/>
<path content="BA010,1,1,JPN" xlink:title="BA010" d="M12987.1796,-2981.6067L12987.8403,-2981.6801L12988.7604,-2982.1867L12990.1596,-2982.06L12990.4099,-2981.8399L12990.86,-2982.02L12991.4795,-2982.0133L12991.6794,-2981.9468L12991.6107,-2982.44L12990.6006,-2983.3601L12990.2191,-2983.6533L12989.3997,-2984.4732L12989.3295,-2985.6199L12989.6103,-2986.0001L12989.3005,-2986.2932L12989.0106,-2986.2801L12989.0793,-2986.6199L12989.09,-2986.9667L12988.7299,-2986.9267L12988.2492,-2987.2999L12987.1796,-2987.5134L12986.7096,-2987.6867L12986.5601,-2988.2267L12986.0901,-2988.1332L12985.6705,-2988.1401L12984.9396,-2988.2601L12984.7992,-2988.1065L12984.6405,-2988.1201L12984.0591,-2987.5999L12983.8699,-2987.1134L12983.6105,-2986.6734L12983.4106,-2986.3533L12983.4106,-2985.8267L12983.4595,-2985.7134L12983.5098,-2985.4668L12983.6594,-2984.9667L12983.9905,-2984.4467L12984.3796,-2984.12L12984.6298,-2983.8333L12984.61,-2984.1534L12985.144,-2983.6584L12985.4202,-2982.9733L12986.1404,-2982.0534L12986.8896,-2981.6801L12987.1796,-2981.6067"/>
<path content="BA010,1,1,JPN" xlink:title="BA010" d="M12961.9095,-2987.66L12962.03,-2988.1201L12962.03,-2988.46L12961.7401,-2988.4733L12961.6196,-2988.06L12961.9095,-2987.66"/>
<path content="BA010,1,1,JPN" xlink:title="BA010" d="M12954.2496,-2989.2601L12954.57,-2989.4199L12954.7897,-2989.2799L12955.2597,-2989.4667L12955.2002,-2989.86L12955.2002,-2990.34L12954.6295,-2991.02L12954.4907,-2991.0334L12954.2496,-2991.2001L12953.8498,-2991.2333L12953.7796,-2991.3334L12953.5706,-2991.5066L12953.1998,-2991.4467L12953.0395,-2991.46L12953.0106,-2990.3067L12953.1204,-2989.6334L12953.3707,-2989.4733L12953.9093,-2989.4533L12954.2496,-2989.2601"/>
<path content="BA010,1,1,JPN" xlink:title="BA010" d="M12993.0801,-2994.8999L12993.7302,-2994.9734L12994.3497,-2995.2801L12994.5496,-2996.04L12994.2093,-2996.8L12993.2602,-2997.34L12992.5903,-2998.3665L12992.07,-2999.0732L12991.7572,-3000L12991.6504,-3000.3201L12991.4993,-3000.68L12991.0202,-3000.3733L12990.9897,-3000.3201L12990.8401,-3000.0732L12990.889,-3000L12991.4001,-2999.2268L12990.39,-2998.5067L12990.2603,-2997.8867L12989.9002,-2997.5401L12990.3198,-2997.2733L12990.5396,-2997.22L12990.5396,-2996.5799L12990.3992,-2996.3934L12990.6601,-2996.2467L12990.7303,-2996.1267L12991.0202,-2995.9734L12991.7496,-2995.5L12992.1997,-2995.4599L12993.0801,-2994.8999"/>
<path content="BA010,1,1,JPN" xlink:title="BA010" d="M13096.8796,-3041.9867L13096.8201,-3042.0601L13096.8307,-3041.9867L13096.8796,-3041.9867"/>
<path content="BA010,1,1,JPN" xlink:title="BA010" d="M13052.1606,-3022.6267L13052.6505,-3022.9668L13052.6901,-3022.8933L13053.0396,-3023.3734L13053.5995,-3022.9734L13053.6896,-3022.7934L13053.8101,-3022.9601L13053.9307,-3022.9401L13053.9795,-3023.14L13054.2908,-3022.9734L13054.7699,-3023.1466L13055.0705,-3023.3334L13055.3497,-3023.3067L13055.4596,-3023.0734L13055.9204,-3023.5134L13056.0898,-3023.5001L13056.2805,-3023.62L13056.3599,-3023.5666L13056.4499,-3023.6L13056.5506,-3023.6467L13056.5704,-3023.5666L13056.9305,-3023.72L13057.1594,-3023.6134L13057.6294,-3023.8199L13058.0704,-3023.9935L13058.1696,-3023.8667L13058.5693,-3024.2334L13058.9905,-3024.98L13059.2896,-3024.7868L13059.3994,-3024.8135L13059.6298,-3024.8867L13059.8801,-3024.9735L13060.2005,-3025.1066L13060.3897,-3025.3201L13060.3897,-3025.4L13060.3699,-3025.56L13060.4095,-3025.6268L13060.7803,-3026.2268L13061.3708,-3026.5934L13062.0605,-3027.1868L13062.1796,-3027.1L13063.0203,-3028.0067L13063.62,-3028.4067L13063.53,-3028.3934L13064.6103,-3029.4867L13064.9704,-3029.5467L13065.7196,-3030.6601L13065.6906,-3030.8533L13065.9195,-3031.3133L13065.6708,-3031.5933L13065.77,-3031.6668L13066.1499,-3031.7135L13066.1407,-3032.62L13066.2598,-3033.3534L13066.2308,-3033.6533L13066.51,-3034.52L13066.5192,-3034.9934L13066.7404,-3036.3134L13066.9708,-3037.2467L13066.9205,-3037.6734L13065.6998,-3038.94L13065.2496,-3039.2L13063.62,-3040.1001L13063.1607,-3040.0734L13062.1796,-3040.3133L13061.4395,-3040.56L13060.8093,-3040.6534L13059.7305,-3041.02L13059.6695,-3041.6468L13059.3399,-3041.7934L13059.0698,-3041.7934L13058.6304,-3041.9867L13058.1802,-3042.28L13057.8094,-3042.3733L13057.5699,-3042.3201L13057.2403,-3042.7067L13057.3196,-3042.9333L13057.0694,-3042.86L13056.8604,-3043.0933L13057.1594,-3043.1601L13057.3105,-3043.14L13056.8695,-3043.3201L13055.9998,-3043.6268L13055.7709,-3043.7866L13055.6198,-3043.7799L13055.2597,-3044.1067L13054.7699,-3044.2533L13054.4998,-3044.2066L13054.1794,-3044.64L13053.6301,-3044.7268L13053.2104,-3044.7268L13052.7496,-3044.8L13052.5696,-3044.38L13052.2095,-3044.6733L13051.7502,-3044.9333L13051.6602,-3045.2868L13050.9399,-3045.54L13050.6409,-3045.4134L13050.5402,-3045.4735L13049.9298,-3045.2267L13049.7299,-3045.5267L13049.9405,-3045.9667L13049.7604,-3046.4468L13049.6796,-3046.9067L13049.2203,-3046.5067L13049.5407,-3045.54L13049.0097,-3045.4L13048.8403,-3045.4134L13048.7198,-3045.3867L13048.8007,-3045.6667L13048.9197,-3045.6533L13048.7503,-3045.7735L13048.4207,-3045.8401L13048.1903,-3045.7735L13048.1094,-3045.8267L13047.9996,-3045.92L13047.7005,-3045.8134L13047.2107,-3046.0867L13047.0795,-3046.0133L13046.9101,-3046.0733L13046.73,-3045.6467L13046.5897,-3045.6467L13046.4706,-3045.6533L13046.3104,-3045.6533L13046.3303,-3045.24L13046.4798,-3044.7268L13046.2601,-3043.5801L13045.7703,-3043.1868L13045.43,-3043.1601L13045.0897,-3043.2068L13044.6198,-3042.8L13044.0994,-3042.1801L13043.7897,-3041.9867L13043.6401,-3041.3799L13042.9596,-3040.5201L13042.5507,-3040.2201L13041.6397,-3039.5401L13041.1697,-3039.64L13041.2704,-3039.6868L13040.9195,-3039.64L13039.27,-3039.7068L13038.8306,-3039.46L13038.53,-3039.2L13037.9501,-3039.2935L13037.7808,-3039.1399L13037.8799,-3038.8067L13037.6999,-3038.1866L13037.5504,-3038.2133L13037.7304,-3037.66L13037.59,-3037.2467L13037.9501,-3036.3001L13037.9608,-3036.0001L13038.2004,-3035.56L13038.0905,-3035L13038.4796,-3034.24L13038.6307,-3033.6533L13039.1602,-3032.02L13039.2899,-3031.8001L13040.2496,-3031.5134L13040.6799,-3030.3267L13040.7303,-3030.0734L13041.0599,-3029.7199L13041.2109,-3029.5868L13040.9805,-3029.2999L13041.2109,-3028.6667L13041.2109,-3027.9533L13041.2994,-3026.5068L13041.7496,-3026.7467L13041.8396,-3026.6201L13041.9006,-3026.7334L13042.07,-3026.56L13042.6804,-3025.6067L13043.0099,-3025.3534L13042.9794,-3025.3201L13043.0695,-3024.8867L13043.5501,-3024.0267L13043.6707,-3023.9201L13044.0704,-3023.7066L13044.1605,-3023.6401L13044.4397,-3023.62L13044.4504,-3023.7001L13045.6009,-3023.3932L13046.2708,-3023.4335L13046.5393,-3023.3467L13047.1893,-3023.2332L13047.5494,-3023.3801L13047.6501,-3023.2735L13048.1995,-3023.0801L13048.4695,-3022.9267L13048.8602,-3022.7667L13048.9593,-3022.74L13049.35,-3022.6933L13049.6796,-3022.9134L13049.6796,-3022.9668L13049.6796,-3023.0066L13049.7406,-3023.04L13050.1709,-3023.2067L13050.351,-3023.1199L13050.3799,-3023.06L13050.4395,-3023.1001L13050.56,-3023.0801L13050.6195,-3023.0135L13050.9094,-3023.1132L13051.4404,-3023.0467L13051.6907,-3022.92L13051.8707,-3023.02L13052.1606,-3022.6267"/>
<path content="BA010,1,1,JPN" xlink:title="BA010" d="M13020.9503,-3042.1467L13021.2997,-3042.3599L13021.8704,-3042.4868L13022.0108,-3042.3134L13022.2504,-3042.3468L13022.8607,-3042.3065L13022.9996,-3042.3866L13022.8897,-3042.6867L13023.1903,-3043.0599L13023.41,-3043.0201L13023.3505,-3043.4668L13023.5306,-3043.4534L13024.2096,-3043.6466L13024.5102,-3043.5333L13024.6796,-3043.7599L13025.4608,-3043.7735L13026.03,-3043.2867L13026.3596,-3043.5467L13026.3794,-3043.6533L13026.4099,-3044.0067L13026.3,-3044.3001L13026.4893,-3044.3399L13026.3199,-3044.7933L13026.21,-3044.7401L13025.4105,-3045.1668L13025.0702,-3045.3199L13024.6796,-3045.9267L13024.3805,-3045.92L13023.79,-3046.46L13023.3795,-3046.8866L13023.0499,-3046.7934L13022.9797,-3046.8401L13022.7097,-3046.8334L13022.2198,-3047.3L13022.0795,-3047.2801L13021.6507,-3047.3066L13021.5607,-3047.3867L13021.2601,-3047.2601L13020.3003,-3047.9401L13020.1202,-3047.9267L13019.8898,-3048.2067L13019.4305,-3047.2L13019.2307,-3047.22L13018.9499,-3047.2067L13018.4204,-3047.86L13017.9398,-3048.3868L13017.7307,-3048.3534L13017.1204,-3048.3667L13016.4703,-3048.2067L13016.7206,-3048.9468L13016.3895,-3048.9532L13015.5395,-3048.4867L13015.4099,-3048.48L13014.4104,-3049.02L13014.27,-3048.8733L13014.4394,-3048.6933L13014.3906,-3048.5401L13014.6408,-3048.4266L13014.83,-3048.02L13014.8895,-3047.86L13015.0406,-3047.7734L13015.5197,-3047.5735L13016.6702,-3046.8401L13016.4902,-3046.46L13016.4505,-3046.3867L13016.7801,-3046.36L13016.8793,-3045.94L13016.89,-3045.68L13017.2195,-3045.5868L13017.6697,-3045.5467L13018.0695,-3045.6333L13019.0903,-3046.3135L13019.4504,-3046.04L13019.3909,-3045.52L13018.8004,-3045.1799L13019.0903,-3044.3201L13019.3207,-3043.7267L13019.8608,-3043.3067L13020.1797,-3042.84L13020.9,-3042.4732L13020.9503,-3042.1467"/>
<path content="BA010,1,1,JPN" xlink:title="BA010" d="M13085.08,-3072.5332L13085.3607,-3072.5733L13085.6903,-3072.5466L13086.1496,-3072.7934L13086.47,-3073.6198L13086.6302,-3074.1533L13086.3098,-3074.7467L13086.1908,-3074.8133L13086.0901,-3075.14L13085.9604,-3075.0999L13086.0107,-3075.3199L13085.8994,-3075.6533L13085.91,-3076.2667L13085.5804,-3076.4866L13085.1898,-3076.1398L13084.9808,-3075.9266L13084.4604,-3075.3199L13084.0897,-3075.0134L13084.0805,-3074.2533L13083.7799,-3073.2933L13083.6197,-3072.6933L13084.2499,-3072.6334L13085.08,-3072.5332"/>
<path content="BA010,1,1,JPN" xlink:title="BA010" d="M13033.8608,-3080.2401L13034.1293,-3080.4132L13033.9493,-3080.4266L13033.7494,-3080.2532L13033.8608,-3080.2401"/>
<path content="BA010,1,1,JPN" xlink:title="BA010" d="M13027.7298,-3077.2266L13027.7298,-3077.4866L13027.5803,-3078.0333L13027.9099,-3077.9867L13027.9297,-3077.8999L13028.1204,-3077.8534L13029.0207,-3077.9467L13029.8904,-3078.0666L13030.5603,-3078.1467L13031.3004,-3078.0733L13031.9504,-3078.6598L13031.9702,-3079.5401L13031.1295,-3080.2666L13030.4001,-3080.5134L13030.1605,-3080.7934L13028.6194,-3079.9999L13027.8397,-3079.3533L13027.3499,-3079.1666L13027.2095,-3079.1866L13027.0508,-3079.1468L13026.7303,-3079.2799L13026.4297,-3079.08L13026.5503,-3078.7533L13026.1002,-3078.1467L13026.4694,-3077.8801L13027.2308,-3077.9467L13027.42,-3077.6733L13027.7298,-3077.2266"/>
<path content="BA010,1,1,JPN" xlink:title="BA010" d="M13044.2001,-3080.0333L13044.4504,-3081.0133L13043.5898,-3081.1399L13042.6895,-3081.6866L13042.5507,-3081.9334L13041.8198,-3081.4466L13041.5604,-3081.5399L13041.0706,-3081.7999L13040.8905,-3081.7999L13040.5807,-3081.3868L13040.5609,-3081.0266L13039.8895,-3080.9534L13039.5905,-3080.9999L13039.65,-3080.6932L13039.92,-3080.7133L13040.7501,-3080.8468L13041.1499,-3080.9334L13041.6702,-3080.78L13042.5308,-3080.4533L13043.3304,-3080.3L13044.2001,-3080.0333"/>
<path content="BA010,1,1,JPN" xlink:title="BA010" d="M12942.5098,-3083.1723L12942.6202,-3083.1415L12942.6491,-3083.0058L12942.5297,-3082.8846L12942.4284,-3082.8755L12942.3832,-3082.9063L12942.3777,-3082.9587L12942.2565,-3082.9587L12942.2565,-3082.9877L12942.4012,-3083.013L12942.5044,-3083.1343L12942.5098,-3083.1723"/>
<path content="BA010,1,1,JPN" xlink:title="BA010" d="M13088.3301,-3034.4L13088.8306,-3035.2934L13090.2802,-3036.3001L13093.7897,-3037.5267L13094.3604,-3037.4599L13094.4809,-3037.3867L13094.9997,-3037.4001L13095.1401,-3037.2868L13095.52,-3037.2734L13095.7596,-3037.0535L13095.8496,-3037.1L13096.4005,-3037.2999L13096.6904,-3037.2467L13096.2006,-3038.3135L13096.6507,-3039.4199L13097.7005,-3039.9532L13098.0194,-3039.78L13097.8104,-3040.1667L13097.8302,-3040.2401L13097.0901,-3040.8533L13096.7606,-3041.8266L13096.8094,-3041.9867L13096.7606,-3042.0601L13096.8094,-3042.4467L13097.6105,-3043.1067L13097.7203,-3043.24L13097.7295,-3043.5333L13097.8394,-3043.5534L13097.6898,-3043.8334L13097.1207,-3044.1668L13097.4106,-3044.2801L13097.2794,-3044.4L13097.4503,-3044.6068L13097.1207,-3044.7332L13096.9406,-3044.7332L13096.2402,-3045.22L13095.9595,-3045.6533L13095.7703,-3045.94L13096.2509,-3046.4268L13096.6507,-3046.38L13096.4798,-3046.24L13096.8094,-3046.32L13096.7209,-3047.0467L13096.1899,-3047.9733L13097.4899,-3049.3734L13097.7707,-3050.1266L13097.7509,-3050.3201L13097.8195,-3050.8867L13098.23,-3052.0735L13099.2493,-3052.9467L13099.4904,-3053.4134L13099.6796,-3054.4134L13100.0107,-3054.8468L13100.5508,-3055.0467L13101.2894,-3054.8401L13101.9608,-3055.2999L13102.1805,-3055.3267L13102.42,-3055.6734L13102.7496,-3055.5067L13102.7908,-3055.8933L13102.7191,-3056.2L13102.98,-3056.3999L13103.3905,-3056.6334L13103.2898,-3056.6668L13103.1296,-3056.6601L13103.2394,-3057.1934L13103.2898,-3057.3334L13103.3096,-3057.76L13103.2593,-3058.0801L13103.1693,-3058.6535L13103.1998,-3058.7L13103.6301,-3058.9399L13104.1397,-3059.3067L13104.7302,-3059.54L13105.4108,-3060.5667L13105.04,-3061.2L13105.4306,-3061.3667L13105.5206,-3061.5133L13105.2505,-3062.1668L13105.3299,-3063.0133L13105.7602,-3064.16L13105.2505,-3064.6999L13105.0903,-3064.6999L13104.8904,-3064.6868L13105.4398,-3066.7534L13105.5099,-3066.9867L13106.3004,-3067.6666L13106.1798,-3068.3867L13106.5002,-3068.6268L13106.5399,-3069.0666L13106.8207,-3069.2934L13107.0206,-3069.2266L13106.9397,-3068.98L13107.2693,-3069.1866L13107.7499,-3069.6867L13107.6294,-3070.2267L13107.3608,-3071.1666L13107.2495,-3072.0934L13107.1899,-3073.58L13107.1594,-3075.3199L13107.2906,-3076.0933L13107.0999,-3076.3599L13107.4295,-3077.3533L13108.0704,-3077.8399L13108.1497,-3078.3667L13107.9605,-3079.2933L13107.6904,-3079.4399L13107.37,-3079.5668L13107.0404,-3079.8401L13107.0999,-3081.2532L13106.5308,-3081.1399L13106.6193,-3081.5001L13106.3705,-3081.4934L13106.1996,-3082.4333L13106.2408,-3082.6401L13106.0104,-3083.5133L13105.78,-3083.6533L13105.5206,-3083.9067L13105.3406,-3083.6533L13104.8096,-3083.2001L13104.3701,-3082.4934L13104.57,-3082.5468L13104.39,-3082.3999L13104.2496,-3082.4066L13103.8101,-3082.18L13103.4698,-3082.6L13103.1403,-3082.2866L13103.0106,-3081.2532L13102.5696,-3080.9L13101.6602,-3079.8733L13101.0696,-3079.0466L13100.4501,-3078.5267L13100.2197,-3078.3667L13100.7599,-3077.1067L13100.7095,-3076.4601L13100.1907,-3075.3199L13100,-3074.7534L13099.6796,-3074.3532L13099.2996,-3074.1133L13099.0295,-3074.1068L13098.8998,-3073.6267L13099.1898,-3073.4867L13099.2493,-3073.3267L13099.0799,-3073.32L13098.8907,-3073.1001L13099.2599,-3073.1533L13099.1394,-3072.8933L13099.2203,-3072.5065L13098.8098,-3072.2799L13098.5504,-3072.34L13098.4894,-3072.4733L13098.3994,-3072.5401L13097.8806,-3072.5599L13097.3099,-3071.2267L13097.2107,-3070.7333L13095.8801,-3069.0199L13095.7199,-3069.0266L13095.7703,-3068.6867L13094.7998,-3067.9667L13093.9697,-3066.9867L13094.1101,-3066.6067L13094.4107,-3066.7133L13094.4397,-3066.6468L13094.6106,-3066.6267L13094.4397,-3066.1467L13094.1803,-3064.7068L13094.5602,-3063.9601L13094.8303,-3063.5201L13094.8807,-3062.5601L13094.8898,-3061.0933L13094.7494,-3060.3535L13094.7205,-3060.2867L13094.9097,-3060.3867L13095.1599,-3059.4467L13095.0195,-3058.6535L13092.8894,-3054.3934L13090.2802,-3050.3201L13089.3707,-3049.3134L13088.5605,-3048.7734L13088.4003,-3048.7467L13088.0905,-3048.3999L13088.1195,-3048.1533L13088.0402,-3048.1268L13087.3795,-3047.0667L13087.1796,-3046.5868L13086.5997,-3046.3135L13086.3907,-3046.3734L13086.2106,-3046.3266L13086.2198,-3046.3934L13085.9802,-3046.6066L13085.9802,-3046.7268L13085.8307,-3046.5601L13084.9197,-3046.7535L13084.8999,-3046.3266L13085.2203,-3045.0066L13085.1196,-3044.6733L13086.3205,-3041.9867L13086.5006,-3040.0667L13086.4502,-3039.3734L13086.0397,-3038.18L13085.6796,-3036.94L13086.2808,-3035.6867L13086.8896,-3034.98L13087.1307,-3034.44L13087.1796,-3034.4334L13087.6099,-3034.52L13088.3301,-3034.4"/>
<path content="BA010,1,1,JPN" xlink:title="BA010" d="M12942.698,-3083.7614L12942.66,-3083.7686L12942.6817,-3083.841L12942.5731,-3083.8953L12942.6365,-3083.9695L12942.7107,-3083.9713L12942.7722,-3083.9315L12942.9531,-3083.8935L12942.8844,-3083.8573L12942.859,-3083.7505L12942.698,-3083.7614"/>
<path content="BA010,1,1,JPN" xlink:title="BA010" d="M12942.7399,-3084.0532L12943.3105,-3084.56L12943.3792,-3084.7866L12943.28,-3084.8267L12942.7307,-3084.4334L12942.7399,-3084.0532"/>
<path content="BA010,1,1,JPN" xlink:title="BA010" d="M12992.9901,-3081.18L12993.7302,-3081.2401L12995.2301,-3081.8867L12996.2692,-3082.9067L12996.2494,-3083.5199L12995.4498,-3083.6533L12994.9005,-3084.2333L12994.0704,-3084.54L12993.7592,-3085.0599L12992.9108,-3084.8801L12992.3904,-3084.8867L12992.0395,-3084.6201L12991.6595,-3084.1267L12991.2399,-3083.8467L12990.8096,-3083.8533L12990.6693,-3083.8333L12990.3793,-3083.8533L12990.4404,-3083.6533L12990.4602,-3083.0534L12990.7806,-3083.0465L12991.0599,-3082.6134L12991.0294,-3082.3465L12991.2598,-3082.0866L12991.1301,-3081.8666L12991.5405,-3081.8666L12991.89,-3081.6534L12992.9901,-3081.18"/>
<path content="BA010,1,1,JPN" xlink:title="BA010" d="M12946.7606,-3085.94L12946.7102,-3086.1134L12946.6003,-3086.22L12946.4493,-3086.2467L12946.0709,-3085.9467L12946.7606,-3085.94"/>
</g>
</svg>
