<?xml version="1.0" encoding="UTF-8"?>
<svg  xmlns="http://www.w3.org/2000/svg" xmlns:xlink="http://www.w3.org/1999/xlink" xmlns:go="http://purl.org/svgmap/profile" property="f_code,acc,exs,soc" viewBox="13218.75 -3375.0 281.25 281.25" go:dataArea="13218.75 -3375.0 281.25 281.25" >
<metadata>
 <rdf:RDF xmlns:rdf="http://www.w3.org/1999/02/22-rdf-syntax-ns#" xmlns:crs="http://opengis.org/xmldtds/transformations.dtd" xmlns:svg="http://www.w3.org/svg" >
  <rdf:Description>
   <crs:CoordinateReferenceSystem rdf:resource="http://purl.org/crs/84" svg:transform="matrix(100.0,0.0,0.0,-100.0,0.0,0.0)" />
  </rdf:Description>
 </rdf:RDF>
</metadata>
<globalCoordinateSystem srsName="http://purl.org/crs/84" transform="matrix(100.0,0.0,0.0,-100.0,0.0,0.0)" />
<defs>
 <g id="p0" >
  <circle cx="0.0" cy="0.0" r="3" stroke="green" stroke-width="2.0" vector-effect="non-scaling-stroke" />
 </g>
</defs>
<g fill="none" fill-rule="evenodd" stroke="#000000" stroke-width="2" opacity="0.5" vector-effect="non-scaling-stroke" stroke-linejoin="bevel" >
<path content="BA010,1,1,JPN" xlink:title="BA010" d="M13248.3002,-3273.42L13248.7198,-3273.5733L13248.97,-3273.6465L13249.2996,-3274.0002L13248.8205,-3274.2802L13248.7198,-3274.0135L13248.5901,-3273.8068L13248.3002,-3273.42"/>
<path content="BA010,1,1,JPN" xlink:title="BA010" d="M13260.2005,-3274.4598L13260.3104,-3274.6265L13260.0494,-3274.8066L13259.7595,-3274.5468L13260.2005,-3274.4598"/>
<path content="BA010,1,1,JPN" xlink:title="BA010" d="M13254.2603,-3270.2267L13254.8096,-3270.5666L13255.22,-3270.7535L13257.0099,-3271.36L13257.1396,-3271.6999L13256.6101,-3272.8134L13257.0801,-3273.56L13256.4804,-3274.0734L13255.69,-3274.3267L13255.7205,-3274.8001L13255.1605,-3274.7601L13254.7699,-3275.2934L13254.7195,-3275.3201L13254.4098,-3275.4601L13254.4006,-3275.3201L13254.4296,-3274.8932L13254.5807,-3274.5468L13254.3793,-3274.1268L13254.6204,-3273.8533L13254.1702,-3273.5134L13254.1595,-3273.0934L13253.5706,-3273.0667L13253.4393,-3273.0934L13253.5904,-3272.7734L13254.0894,-3272.3667L13254.7302,-3271.92L13254.9896,-3271.4134L13254.6494,-3271.1132L13254.4403,-3271.1201L13253.9902,-3270.5067L13254.2603,-3270.2267"/>
<path content="BA010,1,1,JPN" xlink:title="BA010" d="M13261.7905,-3276.58L13262.1796,-3276.6731L13262.8204,-3276.7532L13262.6099,-3276.9669L13262.8006,-3277.3201L13262.1796,-3277.1801L13261.7203,-3276.7399L13261.7905,-3276.58"/>
<path content="BA010,1,1,JPN" xlink:title="BA010" d="M13248.1598,-3279.6333L13249.3896,-3279.7134L13249.6002,-3279.7333L13249.44,-3279.9267L13249.4095,-3280.0934L13249.6796,-3280.22L13249.8703,-3280.5069L13249.6902,-3280.5199L13249.6796,-3280.5L13249.5102,-3280.5069L13248.5703,-3280.6736L13248.4802,-3280.4867L13248.3292,-3280.2334L13248.1003,-3280.0533L13247.9401,-3279.7802L13248.1598,-3279.6333"/>
<path content="BA010,1,1,JPN" xlink:title="BA010" d="M13256.3202,-3291.0465L13255.69,-3291.2334L13255.7999,-3291.0801L13255.9692,-3291.0801L13256.3202,-3291.0465"/>
<path content="BA010,1,1,JPN" xlink:title="BA010" d="M13253.7598,-3291.1469L13253.6697,-3291.28L13253.6194,-3291.2266L13253.6804,-3291.1732L13253.7598,-3291.1469"/>
<path content="BA010,1,1,JPN" xlink:title="BA010" d="M13269.5602,-3291.0069L13270.3705,-3291.42L13270.2805,-3291.7469L13270.1797,-3291.7866L13269.9203,-3291.6935L13269.2703,-3291.8266L13269.0292,-3291.8133L13268.8995,-3291.8266L13268.6996,-3291.8266L13268.9102,-3291.2399L13269.3604,-3291.1934L13269.5602,-3291.0069"/>
<path content="BA010,1,1,JPN" xlink:title="BA010" d="M13265.6799,-3291.4265L13265.8997,-3291.6801L13265.6204,-3291.8335L13265.5899,-3291.7999L13265.4297,-3291.5733L13265.2405,-3291.46L13265.3503,-3291.4265L13265.6799,-3291.4265"/>
<path content="BA010,1,1,JPN" xlink:title="BA010" d="M13266.3696,-3291.7065L13266.5405,-3291.7934L13266.3895,-3291.9868L13266.1606,-3292.0532L13266.2598,-3291.9868L13266.3696,-3291.7065"/>
<path content="BA010,1,1,JPN" xlink:title="BA010" d="M13270.4605,-3291.9868L13270.2103,-3292.2199L13270.3094,-3291.9868L13270.4605,-3291.9868"/>
<path content="BA010,1,1,JPN" xlink:title="BA010" d="M13242.9306,-3292.9066L13243.1503,-3292.96L13243.1503,-3292.9932L13243.1,-3293.1534L13242.9306,-3292.9066"/>
<path content="BA010,1,1,JPN" xlink:title="BA010" d="M13240.2695,-3293.3468L13240.6296,-3293.56L13240.4297,-3293.94L13240.4892,-3294.0601L13240.5304,-3294.1868L13240.4495,-3294.5999L13240.3107,-3294.1334L13240.2695,-3293.3468"/>
<path content="BA010,1,1,JPN" xlink:title="BA010" d="M13249.1196,-3289.8067L13249.2203,-3290.3198L13249.6201,-3290.3934L13249.6796,-3290.4598L13250.5295,-3290.3801L13250.9705,-3290.3069L13251.6495,-3290.3999L13252.0691,-3290.8867L13251.8295,-3291.0866L13252.3102,-3291.3467L13252.6505,-3291.4799L13252.6703,-3291.9868L13252.4902,-3291.9868L13251.4099,-3291.8602L13251.2802,-3291.88L13250.9705,-3291.6L13250.8408,-3291.6L13249.9893,-3291.4532L13249.6796,-3291.7336L13249.6796,-3291.9468L13249.7498,-3291.9868L13250.7996,-3292.6334L13251.7792,-3293.2201L13252.2995,-3293.2068L13252.6505,-3293.2667L13252.42,-3293.3601L13251.6403,-3293.8L13251.4908,-3294.12L13250.9293,-3293.9667L13250.6195,-3294.1334L13250.4501,-3294.1132L13250.47,-3294.7334L13250.9903,-3294.8467L13251.3901,-3294.9867L13251.6296,-3294.8532L13251.8494,-3294.9066L13252.4597,-3294.8532L13252.5894,-3294.4935L13252.9495,-3294.6201L13253.1204,-3294.8532L13253.7292,-3294.6934L13253.5095,-3293.9533L13254.0298,-3293.8068L13253.9902,-3293.5333L13254.2801,-3293.5001L13255.0095,-3293.2934L13255.4794,-3293.3601L13256.0699,-3292.9733L13256.4499,-3293.0332L13256.7902,-3292.9401L13256.8604,-3292.9802L13256.4606,-3293.5001L13256.1905,-3293.3399L13256.1096,-3293.5932L13255.7999,-3293.5066L13255.69,-3293.7069L13255.5405,-3293.6802L13255.1498,-3293.9266L13254.8904,-3293.9266L13254.8096,-3294.5267L13255.22,-3294.6667L13255.3802,-3294.4199L13255.5893,-3294.6468L13255.7602,-3294.6602L13256.3202,-3294.3268L13256.25,-3294.6602L13256.6696,-3294.7136L13257.1701,-3294.5999L13257.2693,-3294.5999L13257.7103,-3293.8202L13257.7698,-3293.8934L13257.9407,-3294.3199L13258.7402,-3294.22L13259.0698,-3294.5L13259.8602,-3294.5133L13260.1501,-3294.68L13260.17,-3294.5335L13260.0403,-3294.5469L13260.1807,-3294.3932L13259.7595,-3294.26L13259.5993,-3294.3066L13259.4193,-3294.1467L13259.1995,-3294.1734L13258.6395,-3293.8534L13258.5602,-3293.4601L13258.7906,-3292.8532L13258.96,-3292.5667L13259.0195,-3292.4934L13259.3002,-3292.3668L13259.5795,-3292.3866L13259.8694,-3292.1001L13259.8297,-3291.9868L13259.52,-3291.5867L13259.7702,-3291.2601L13260.6094,-3291.56L13260.8109,-3291.5268L13261.3998,-3291.9201L13261.9095,-3291.9666L13261.9202,-3291.9868L13262.1796,-3292.1135L13262.6404,-3292.2802L13263.3698,-3292.4332L13264.74,-3292.7601L13264.9597,-3292.7002L13265.4602,-3292.4866L13265.8005,-3292.2535L13266.0004,-3292.3866L13266.42,-3292.2134L13266.4795,-3292.3534L13266.6901,-3292.0601L13266.5802,-3291.9868L13266.7603,-3291.9266L13266.7801,-3291.9868L13266.8503,-3291.9868L13266.9296,-3291.9334L13267.1097,-3291.8732L13267.1204,-3291.9868L13266.9495,-3292.2268L13267.2501,-3292.2401L13267.5095,-3292.2932L13267.6498,-3292.5732L13267.9306,-3292.0933L13268.1503,-3292.2134L13268.1,-3292.3069L13268.3594,-3292.1669L13268.3395,-3291.9868L13268.6203,-3291.9868L13269.0094,-3292.1066L13268.9407,-3292.2066L13268.8599,-3292.3466L13268.9804,-3292.4133L13268.7607,-3292.5335L13268.8904,-3292.6201L13269.0292,-3292.5533L13269.5602,-3292.82L13269.6106,-3292.6399L13269.3893,-3292.6399L13269.4504,-3292.0002L13269.6793,-3292.0467L13269.8898,-3291.9868L13269.9005,-3291.7534L13270.1706,-3291.9201L13270.1904,-3291.9868L13270.1797,-3292.4801L13270.7504,-3292.5869L13271.0297,-3292.1799L13271.0602,-3291.9868L13271.0602,-3291.4867L13271.3608,-3291.4402L13271.3303,-3291.3734L13271.4905,-3291.28L13271.5408,-3291.04L13271.55,-3290.8333L13271.2097,-3290.7269L13271.2402,-3290.2267L13271.0495,-3289.9868L13271.5195,-3290.0002L13271.9193,-3290.1001L13271.9604,-3290.2134L13272.02,-3289.7068L13271.8597,-3289.4066L13271.6797,-3289.4066L13271.4706,-3289.3066L13271.2006,-3289.3135L13270.4697,-3289.6866L13270.3995,-3289.4531L13271.1105,-3288.8866L13271.4706,-3288.76L13271.4203,-3288.6131L13271.1899,-3288.62L13271.9101,-3288.2465L13272.0795,-3288.0466L13271.9101,-3288.0798L13271.9498,-3287.8265L13272.0001,-3287.6331L13271.2906,-3287.5801L13271.46,-3288.1668L13271.2997,-3288.2L13270.5704,-3287.5599L13270.8099,-3288.1535L13270.5597,-3288.8199L13270.4102,-3288.8L13269.78,-3288.4666L13269.5404,-3288.6467L13268.7805,-3287.9131L13269.0506,-3287.7399L13268.7393,-3287.3268L13267.8406,-3287.0068L13267.16,-3286.4201L13266.9998,-3286.4201L13266.7007,-3286.4334L13266.9205,-3286.2064L13266.6397,-3286.1L13266.4093,-3285.9066L13266.0995,-3285.5865L13265.9897,-3285.6335L13265.6006,-3285.2798L13266.04,-3285.2467L13266.1194,-3284.8469L13266.3895,-3284.8331L13266.4093,-3284.6802L13266.7404,-3284.5135L13266.7908,-3284.2667L13267.0792,-3284.3933L13267.1005,-3284.1133L13267.2806,-3284.1202L13267.1097,-3284L13266.9601,-3283.9867L13266.5192,-3284.0534L13266.3696,-3284.0401L13266.1301,-3284.0534L13265.8798,-3283.7399L13265.9302,-3283.6533L13266.33,-3283.3L13266.1804,-3283.0868L13265.9698,-3283.16L13265.9195,-3282.9468L13265.7806,-3282.5333L13265.5502,-3282.3666L13265.2802,-3282.8602L13264.8895,-3282.2533L13264.8605,-3281.86L13264.3997,-3282L13264.5004,-3281.1802L13264.5493,-3280.9269L13264.2502,-3280.92L13263.9999,-3280.8468L13264.7903,-3280.8201L13265.5304,-3280.4867L13265.5701,-3280.0934L13264.8102,-3280.4199L13264.8193,-3280.0533L13264.5294,-3280.0533L13264.3402,-3280.0468L13263.8794,-3280.1334L13263.6703,-3279.8733L13262.9303,-3280.0934L13262.8906,-3279.8267L13262.7808,-3279.6669L13262.6099,-3279.5734L13263.0905,-3279.52L13263.5803,-3278.8799L13264.3799,-3278.6865L13264.09,-3278.2398L13263.4598,-3278.4401L13263.3499,-3278.3134L13263.7405,-3277.56L13263.8901,-3276.8269L13263.6002,-3276.8269L13263.0295,-3276.7067L13262.8006,-3276.3733L13263.0707,-3276.1734L13263.7405,-3276.6468L13263.9603,-3276.4999L13265.0208,-3276.6132L13264.8895,-3276.9001L13264.7705,-3277.5467L13265.0894,-3277.7935L13265.3397,-3277.84L13265.4602,-3278.0735L13265.6998,-3278.08L13266.3803,-3278.12L13266.8793,-3278.4065L13268.3594,-3278.12L13268.4204,-3278.4466L13269.1101,-3278.7601L13269.6793,-3278.4534L13269.7296,-3278.7735L13268.9804,-3279.0401L13268.6707,-3278.8399L13268.3197,-3279.3335L13268.3502,-3279.4533L13268.7393,-3279.1534L13269.4199,-3279.3667L13269.7296,-3279.5601L13270.6497,-3279.4933L13270.8298,-3279.7401L13271.0892,-3279.8332L13271.3196,-3279.4468L13271.6599,-3279.4266L13271.6797,-3279.7668L13272.2107,-3278.9734L13272.1603,-3278.5801L13272.5601,-3278.4866L13272.9294,-3277.7866L13273.1796,-3277.8999L13273.2697,-3277.6402L13273.9197,-3277.24L13274.2706,-3277.2667L13274.6796,-3276.7265L13275.0702,-3275.9399L13275.6393,-3275.3201L13275.7797,-3275.3201L13276.1597,-3275.4868L13276.4999,-3275.6332L13276.4893,-3275.9998L13277.0294,-3276.1665L13277.9694,-3275.3933L13278.3096,-3275.6668L13278.5797,-3275.6733L13278.7704,-3275.3201L13279.0894,-3274.7734L13279.3594,-3274.7398L13279.9103,-3274.8466L13280.2292,-3274.7131L13280.4001,-3275.2666L13280.6305,-3275.3201L13280.7999,-3275.3201L13281.0196,-3275.3201L13281.2698,-3275.3201L13281.4804,-3275.3201L13281.5002,-3275.8934L13281.4697,-3276.1532L13282.0999,-3276.0399L13282.6508,-3276.1002L13282.7301,-3276.5598L13283.0002,-3276.5202L13283.2901,-3276.6666L13283.5297,-3277.3132L13283.4503,-3277.5532L13284.05,-3278.1666L13284.3903,-3277.9736L13284.5306,-3277.7935L13284.7794,-3278.2398L13284.9304,-3278.1734L13285.0494,-3278.5267L13285.5103,-3278.6465L13285.8398,-3278.6533L13285.9299,-3278.6266L13286.1298,-3279.0268L13286.38,-3278.8467L13286.3892,-3278.6934L13286.5295,-3278.4935L13286.6806,-3278.7266L13287.0804,-3278.54L13286.9598,-3278.0869L13286.9705,-3277.6199L13286.8195,-3277.5002L13286.8301,-3277.4334L13286.7294,-3277.4265L13286.6302,-3277.3865L13286.5295,-3277.0802L13286.8301,-3277.0466L13286.8805,-3276.58L13287.1796,-3276.8131L13287.8403,-3276.96L13287.59,-3277.5867L13287.9196,-3278.3535L13287.4802,-3278.78L13287.5702,-3278.7334L13288.0402,-3278.9734L13288.3194,-3278.7666L13288.8794,-3279.0333L13289.6393,-3278.7601L13290.0101,-3278.7399L13290.3107,-3278.7533L13290.6693,-3278.7266L13291.1301,-3278.7201L13291.98,-3278.4668L13291.9601,-3277.8069L13292.45,-3278.2734L13292.8299,-3278.2001L13293.0496,-3278.26L13293.2693,-3277.9533L13293.2602,-3278.4668L13293.5699,-3278.6533L13293.9392,-3278.4668L13294.2795,-3278.2932L13294.2001,-3278.0869L13294.4901,-3277.9202L13294.7006,-3277.9736L13294.4794,-3277.7866L13294.0201,-3277.8999L13294.0201,-3277.7599L13293.9606,-3277.3666L13294.31,-3276.9402L13294.5404,-3276.4935L13295.2805,-3277.0599L13295.5795,-3277.56L13295.5704,-3277.8667L13296.0297,-3277.8801L13295.9702,-3277.8133L13295.8496,-3277.7L13296.55,-3277.5333L13296.9101,-3277.7267L13296.4996,-3277.3602L13295.7993,-3277.2202L13295.4895,-3276.72L13295.2499,-3276.4198L13295.2499,-3275.9132L13295.4498,-3275.6599L13295.6299,-3275.7465L13296.2997,-3275.7465L13296.2296,-3275.3201L13296.0907,-3275.0401L13296.3898,-3275.0267L13296.7102,-3275.1598L13297.0596,-3274.6799L13296.9101,-3274.3L13296.5103,-3273.7202L13296.4798,-3273.6401L13296.5103,-3273.2868L13296.4294,-3273.2265L13296.5302,-3273.1068L13296.6309,-3272.9134L13296.8796,-3272.9336L13296.9803,-3273.0801L13297.2595,-3273.2265L13297.4304,-3273.1266L13297.5204,-3273.1602L13297.8592,-3273.1201L13297.8897,-3273.04L13297.9507,-3273.1068L13298.2605,-3273.1335L13298.3704,-3273.0267L13298.3795,-3273.1068L13298.6099,-3273.3269L13298.88,-3272.9733L13298.9502,-3272.9134L13299.3103,-3273.0534L13299.6796,-3272.5868L13300.0198,-3272.2733L13300.0702,-3272.3331L13300.1801,-3272.3L13300.2594,-3272.1733L13300.5905,-3272.1664"/>
<path content="BA010,1,1,JPN" xlink:title="BA010" d="M13243.6005,-3293.9869L13243.9499,-3294.0266L13244.3695,-3294.08L13244.8792,-3294.3066L13245.2805,-3294.2535L13245.7397,-3294.54L13245.7092,-3295.0199L13245.3506,-3295.0867L13245.2393,-3294.9066L13244.78,-3294.7136L13244.5694,-3294.7468L13243.8904,-3294.3001L13243.7393,-3294.2932L13243.5104,-3294.2932L13243.6005,-3293.9869"/>
<path content="BA010,1,1,JPN" xlink:title="BA010" d="M13231.7902,-3310.1734L13232.5806,-3310.3134L13233.2306,-3310.4801L13233.6395,-3310.6266L13233.4595,-3310.8532L13233.3298,-3310.8334L13233.0505,-3310.8734L13232.7393,-3310.9001L13232.2601,-3310.7201L13232.1396,-3310.7735L13231.9199,-3310.7735L13231.7902,-3310.1734"/>
<path content="BA010,1,1,JPN" xlink:title="BA010" d="M13241.2399,-3310.2066L13241.2796,-3310.22L13241.51,-3310.3466L13241.7297,-3310.6533L13241.4993,-3310.8334L13241.51,-3311.1465L13241.1301,-3310.9402L13240.8203,-3310.5534L13241.2399,-3310.2066"/>
<path content="BA010,1,1,JPN" xlink:title="BA010" d="M13242.54,-3311.1801L13242.0197,-3311.3533L13241.7908,-3311.1866L13242.1204,-3311.2202L13242.54,-3311.1801"/>
<path content="BA010,1,1,JPN" xlink:title="BA010" d="M13300.5905,-3272.1664L13300.8301,-3272.3202L13301.0605,-3272.3L13301.2604,-3272.2935L13301.9806,-3272.3801L13302.1698,-3272.6334L13301.8005,-3274.3668L13301.3794,-3275.3201L13301.6006,-3275.98L13301.6708,-3276.1665L13301.1398,-3276.6201L13300.1007,-3278.2734L13300.1099,-3278.7266L13299.9603,-3278.7201L13299.8001,-3278.8334L13299.6796,-3278.6465L13299.5804,-3278.6865L13299.5499,-3278.7735L13299.35,-3279.0001L13297.8104,-3279.4601L13297.4503,-3279.7134L13296.5805,-3279.94L13296.4401,-3279.9133L13296.3501,-3280.2399L13296.4401,-3280.2135L13296.1395,-3280.46L13295.8206,-3280.46L13295.2194,-3281.2733L13295.0592,-3282.4402L13295.4498,-3282.5668L13295.9106,-3282.7335L13295.9106,-3282.9533L13295.8206,-3283.0467L13295.7306,-3283.0532L13295.6696,-3283.4L13295.3094,-3283.5201L13295.4605,-3283.6533L13295.5994,-3284.0267L13295.3293,-3284.3533L13295.2301,-3284.52L13295.4803,-3284.6466L13295.61,-3284.9731L13295.3705,-3285.2669L13294.8593,-3285.6468L13295.1706,-3286.0401L13295.52,-3286.1599L13295.3995,-3286.4532L13295.6497,-3286.1534L13295.7001,-3285.8131L13296.0403,-3286.4399L13297.3907,-3286.5002L13298.2895,-3286.4735L13298.3505,-3286.6932L13298.7,-3286.7199L13299.3103,-3286.2331L13299.6002,-3286.5532L13299.35,-3286.8465L13299.6796,-3287.1666L13299.8398,-3287.4134L13300.2899,-3287.9601L13300.5402,-3287.9532L13300.8698,-3288.1931L13300.65,-3289.6133L13300.5905,-3289.9933L13300.7095,-3291.0465L13300.8209,-3291.1732L13300.6241,-3291.6107L13300.2594,-3291.9865L13300.1007,-3292.0799L13299.6796,-3292.3599L13299.53,-3292.3935L13299.5193,-3292.4732L13299.5499,-3292.5468L13299.6796,-3292.5667L13299.7803,-3292.5869L13299.6796,-3292.6666L13299.5102,-3292.7666L13299.5499,-3292.8532L13299.6796,-3292.9001L13300.0107,-3293.0134L13299.6796,-3293.1202L13299.331,-3293.0427L13299.2615,-3293.4799L13299.4293,-3293.4334L13299.6796,-3294.2265L13299.9405,-3294.3733L13299.8108,-3294.6201L13299.6796,-3294.6667L13299.2096,-3295.1668L13299.5605,-3296.3268L13299.6796,-3296.4802L13299.9405,-3296.5466L13299.8901,-3297.0734L13300.2197,-3297.4335L13300.4196,-3297.58L13300,-3297.8199L13299.8795,-3298.0064L13299.7696,-3298.0133L13300.1099,-3298.8602L13300.4501,-3299.4133L13300.6409,-3299.5266L13300.7095,-3299.72L13300.6897,-3299.8001L13300.4898,-3299.6601L13300.56,-3300.1598L13300.6607,-3300.3201L13301.0803,-3301.4267L13301.1505,-3301.3L13301.1597,-3301.2135L13301.2695,-3301.3664L13301.1108,-3301.5064L13302.7008,-3303.0666L13303.2898,-3303.5267L13303.9597,-3303.7865L13304.071,-3303.6999L13304.6295,-3303.82L13305.2597,-3303.8067L13305.7602,-3303.8933L13305.8609,-3303.6934L13305.9006,-3303.5866L13306.7795,-3303.7399L13307.2403,-3303.6266L13307.9407,-3302.98L13308.3496,-3302.56L13308.9005,-3302.5799L13309.3704,-3302.3335L13309.6298,-3302.6134L13309.4406,-3303.0869L13309.2804,-3303.5465L13309.4894,-3304.4399L13310.0204,-3305.9467L13310.8093,-3306.2534L13310.7803,-3306.5201L13310.7498,-3306.8134L13310.4294,-3307.2468L13310.9299,-3307.5665L13310.7101,-3307.6267L13310.9497,-3307.7534L13311.2701,-3307.4001L13311.3205,-3307.6267L13311.4395,-3307.4333L13311.4594,-3307.4402L13311.1496,-3307.9399L13311.9095,-3308.6334L13311.9995,-3308.6533L13312.1796,-3308.7601L13312.8708,-3309.1L13313.0096,-3308.9867L13313.2599,-3309.1133L13313.8199,-3309.52L13314.1006,-3309.7134L13314.2303,-3309.8732L13314.5905,-3310.5064L13314.7095,-3310.5534L13314.7995,-3311.1465L13315.3,-3311.8999L13315.4205,-3312.5L13315.6799,-3312.4931"/>
<path content="BA010,1,1,JPN" xlink:title="BA010" d="M13232.0206,-3315.1066L13232.8201,-3315.3732L13233.0093,-3315.3133L13233.6197,-3315.8333L13234.4696,-3315.9401L13233.7097,-3316.0999L13232.1594,-3315.2466L13232.1594,-3315.2267L13232.0206,-3315.1066"/>
<path content="BA010,1,1,JPN" xlink:title="BA010" d="M13231.1203,-3314.8132L13231.4392,-3315.2332L13231.1508,-3315.0867L13231.0593,-3315.0665L13230.4703,-3315.3L13230.6,-3315.8466L13231.0196,-3316.3734L13230.6793,-3316.2334L13230.1605,-3315.8867L13229.9103,-3316.0267L13229.6295,-3316.0534L13229.4601,-3315.8066L13229.1794,-3315.9534L13228.8605,-3316.18L13228.6804,-3315.9466L13229.3701,-3315.3801L13229.9606,-3315.2802L13230.3406,-3314.8998L13231.1203,-3314.8132"/>
<path content="BA010,1,1,JPN" xlink:title="BA010" d="M13239.5294,-3316.2735L13239.7202,-3316.6267L13239.7003,-3316.6599L13239.5706,-3316.7801L13239.2105,-3316.3467L13239.5294,-3316.2735"/>
<path content="BA010,1,1,JPN" xlink:title="BA010" d="M13239.7705,-3318.0401L13240.1901,-3318.0599L13240.6403,-3318.2934L13240.3305,-3318.2732L13239.9902,-3318.2999L13239.7705,-3318.0401"/>
<path content="BA010,1,1,JPN" xlink:title="BA010" d="M13228.9093,-3316.28L13228.9597,-3316.6733L13229.1794,-3316.8869L13229.2404,-3316.9865L13229.3106,-3317.2134L13229.57,-3317.12L13229.3396,-3317.4267L13229.4693,-3317.9401L13228.8803,-3317.6334L13228.3997,-3317.3332L13228.0899,-3317.6533L13227.6505,-3317.1135L13227.0203,-3317.7536L13226.77,-3317.2733L13226.4999,-3317.4133L13226.5594,-3318.3468L13226.2695,-3318.4399L13226.0895,-3318.3468L13226.3397,-3318.14L13226.2802,-3317.3L13226.4496,-3316.9865L13226.6006,-3316.8068L13227.9999,-3316.9334L13228.7308,-3316.3734L13228.9093,-3316.28"/>
<path content="BA010,1,1,JPN" xlink:title="BA010" d="M13236.9095,-3318.1L13237.1796,-3318.2266L13237.41,-3318.2999L13237.1796,-3318.5867L13236.5997,-3318.6867L13236.7996,-3318.3735L13236.9095,-3318.1"/>
<path content="BA010,1,1,JPN" xlink:title="BA010" d="M13227.0905,-3318.5669L13227.15,-3318.6668L13227.1194,-3318.7L13226.9501,-3318.7935L13227.0905,-3318.5669"/>
<path content="BA010,1,1,JPN" xlink:title="BA010" d="M13226.86,-3318.8267L13226.8906,-3318.9068L13226.68,-3318.94L13226.4603,-3318.9068L13225.9705,-3319.0334L13226.0605,-3318.9068L13226.86,-3318.8267"/>
<path content="BA010,1,1,JPN" xlink:title="BA010" d="M13240.1199,-3318.4799L13240.3595,-3318.7599L13240.8707,-3318.9266L13241.4795,-3318.9335L13241.5695,-3319.0933L13241.7496,-3319.5732L13241.6306,-3319.6934L13241.4505,-3319.6934L13241.3193,-3319.7399L13240.8707,-3319.5934L13240.6296,-3319.5866L13240.7806,-3320.0401L13240.6006,-3320.06L13240.2603,-3320.0134L13240.3595,-3320.2068L13240.3595,-3320.5067L13240.4602,-3320.62L13240.0497,-3320.6268L13239.7507,-3320.5933L13239.5706,-3320.5734L13239.3799,-3320.5799L13239.2395,-3320.2999L13239.2105,-3320.0867L13238.8504,-3319.8532L13239.18,-3319.7266L13239.6301,-3319.6266L13239.7095,-3319.2734L13239.4806,-3318.6802L13240.1199,-3318.4799"/>
<path content="BA010,1,1,JPN" xlink:title="BA010" d="M13254.3198,-3321.3402L13253.9001,-3321.46L13253.7598,-3321.5935L13253.5904,-3321.4268L13253.5599,-3321.6599L13253.3493,-3321.5466L13253.2303,-3321.6801L13253.1006,-3321.5L13252.9694,-3321.4401L13252.4002,-3321.4199L13252.2491,-3321.4199L13251.68,-3321.3402L13251.4603,-3321.5336L13251.3504,-3321.2799L13251.12,-3321.3135L13250.7492,-3320.6135L13250.4807,-3320.5666L13250.3204,-3320.66L13250.2899,-3320.2534L13249.91,-3320.3533L13249.8795,-3320.2133L13250.2197,-3320.1866L13250.4593,-3319.8868L13250.4105,-3319.5934L13250.2304,-3319.54L13250.0702,-3319.3535L13249.9802,-3319.3802L13249.6796,-3319.6133L13249.4003,-3319.5999L13249.1104,-3319.5801L13248.9304,-3319.5866L13249.4995,-3319.2268L13249.6796,-3319.1601L13250.0595,-3319.0868L13250.7599,-3319.4069L13250.5905,-3319.0933L13250.4196,-3319.0933L13250.4303,-3318.7733L13250.7904,-3318.8469L13250.9094,-3318.4399L13250.8499,-3318.2667L13250.9903,-3317.5869L13251.4603,-3317.0666L13251.2497,-3316.9865L13251.1307,-3316.9865L13250.9201,-3317.2001L13250.7202,-3317.2333L13250.5005,-3316.9865L13250.3006,-3316.9865L13250.1297,-3316.9865L13250.0504,-3316.9865L13250.0595,-3317.2733L13250.3204,-3317.6067L13250.2502,-3317.7933L13250.2594,-3318.0267L13250.0595,-3318.0267L13249.8398,-3318.0267L13249.8901,-3318.3266L13249.6796,-3318.3067L13249.2294,-3318.3735L13249.5499,-3317.8467L13249.5193,-3317.6468L13249.5804,-3317.2401L13249.5407,-3317.1333L13249.2493,-3316.9865L13249.2096,-3316.8335L13249.1104,-3316.9865L13248.9304,-3317.0933L13248.97,-3316.9865L13248.9304,-3316.5932L13248.7106,-3316.5001L13248.4695,-3316.4532L13248.4695,-3316.6733L13248.5001,-3316.7534L13247.9904,-3316.7202L13247.6395,-3316.9865L13248.3795,-3317.5934L13247.7997,-3317.58L13248.2895,-3318.0401L13248.3994,-3318.2732L13248.1003,-3318.5669L13247.7798,-3318.2869L13247.6593,-3318.42L13247.29,-3317.9401L13247.1207,-3318.0134L13247.0093,-3317.6132L13246.7697,-3317.9466L13246.4508,-3317.7601L13246.4005,-3318.2133L13245.99,-3318.1999L13245.7092,-3318.6867L13245.8008,-3318.8L13245.6894,-3319.0468L13245.9396,-3319.1799L13245.6406,-3319.1868L13245.4193,-3319.2867L13245.5002,-3319.3733L13245.5399,-3319.5L13245.8694,-3319.6266L13245.6604,-3319.78L13245.8405,-3319.96L13245.8694,-3320.1199L13245.7306,-3320.2133L13245.3705,-3320.1801L13245.6299,-3320.5933L13246.0403,-3320.7466L13245.7703,-3321.0731L13245.43,-3320.8801L13245.1401,-3320.5002L13244.87,-3320.1801L13244.7495,-3320.1935L13244.6106,-3320.0466L13244.31,-3320.1733L13244.31,-3320.4666L13243.9392,-3320.3869L13243.7897,-3320.5666L13243.6096,-3320.5666L13243.4601,-3320.7066L13243.2297,-3320.9534L13242.6697,-3320.8534L13242.5995,-3321.0068L13242.4393,-3320.9934L13242.1295,-3321.2868L13241.9998,-3321.4134L13241.7801,-3321.1201L13241.6397,-3321.1334L13241.5497,-3320.8134L13240.86,-3320.6669L13240.5502,-3320.5067L13241.4307,-3320.4334L13242.1204,-3320.8534L13242.6102,-3320.4735L13243.0603,-3320.2599L13243.1305,-3319.9734L13243.5501,-3319.5534L13243.7897,-3319.1601L13243.6203,-3318.98L13243.7805,-3318.6268L13243.8995,-3318.5135L13244.6594,-3319.2665L13244.6793,-3318.4067L13245.7092,-3317.8066L13246.0403,-3317.3134L13246.4096,-3317.1135L13246.3394,-3316.9865L13245.9702,-3316.8869L13245.5994,-3316.8201L13245.5505,-3316.9865L13245.4605,-3317.1066L13245.2301,-3317.2001L13244.9493,-3317.1734L13244.8502,-3317.4732L13244.5297,-3317.0601L13244.4305,-3316.9865L13244.1605,-3316.8335L13244.0308,-3316.8335L13243.6203,-3316.9865L13243.5104,-3316.9865L13243.4204,-3316.9865L13243.1,-3316.9468L13243.4601,-3316.6466L13243.2495,-3316.0999L13243.19,-3315.3267L13242.7795,-3315.8733L13242.4103,-3315.5869L13244.2993,-3314.7133L13244.1406,-3313.9069L13244.0704,-3313.7669L13244.7098,-3313.4731L13245.1706,-3313.2133L13245.4605,-3313.6665L13245.2499,-3314.22L13245.8008,-3313.8535L13245.9793,-3313.7333L13246.1594,-3313.9133L13246.4401,-3313.8733L13246.8201,-3314.0732L13247.1405,-3314.0465L13247.4106,-3313.48L13247.7707,-3313.62L13247.7097,-3314.1335L13248.0804,-3313.9133L13248.3597,-3313.8401L13248.6099,-3313.66L13249.4003,-3313.7135L13249.6796,-3313.7798L13250,-3313.5399L13249.7101,-3313.0531L13249.7498,-3312.8334L13250.1297,-3313.0402L13249.7604,-3312.0335L13249.6796,-3312.0201L13249.3805,-3312.1399L13249.0097,-3312.0335L13248.5794,-3312.4599L13248.41,-3312.4001L13248.3093,-3312.4401L13248.1598,-3311.9534L13247.9401,-3312.1265L13247.3297,-3312.0602L13246.9406,-3311.48L13246.9101,-3311.8L13247.2198,-3312.1132L13246.8704,-3312.4401L13246.8201,-3312.6534L13246.5195,-3312.6266L13246.0007,-3312.5999L13244.9997,-3312.3001L13244.6106,-3312.4065L13244.7006,-3312.22L13245.1401,-3312.1868L13245.5902,-3312.2002L13245.7092,-3312.1067L13245.9595,-3312.2398L13246.3501,-3311.8069L13246.6507,-3311.7599L13246.5698,-3311.2L13246.8399,-3310.9402L13247.4304,-3310.6865L13247.2595,-3310.3065L13247.0001,-3309.8999L13247.6105,-3309.7198L13248.0194,-3309.8202L13247.7203,-3309.42L13246.6202,-3308.9867L13246.2006,-3309.3067L13246.2997,-3308.8264L13246.0602,-3308.6533L13246.3196,-3308.4599L13246.6599,-3308.5999L13246.9803,-3308.12L13246.7194,-3307.8732L13246.0999,-3307.5802L13246.3898,-3307.4532L13246.6507,-3307.6199L13246.9299,-3307.46L13247.2092,-3307.0332L13247.3206,-3307.3135L13247.2794,-3307.8068L13247.3999,-3307.9468L13247.1893,-3308.1932L13247.7905,-3308.4L13247.8302,-3307.7866L13248.0499,-3307.6134L13248.4695,-3307.6668L13248.0103,-3307.2399L13247.9294,-3307.0999L13248.4299,-3306.72L13248.8098,-3306.5132L13248.1995,-3306.2534L13248.2697,-3305.6133L13248.0301,-3305.6332L13247.8897,-3305.6267L13247.8104,-3306.4732L13247.3099,-3306.1001L13247.0291,-3306.0734L13246.7102,-3306.1001L13246.4798,-3306.06L13246.3196,-3306.2733L13245.8496,-3306.0402L13245.4605,-3305.6599L13244.78,-3305.5866L13244.7006,-3305.9067L13244.78,-3306.2336L13244.6106,-3306.5468L13244.3298,-3306.4533L13244.2398,-3305.6332L13243.84,-3305.5801L13243.7698,-3305.5935L13243.1909,-3305.3069L13243.1748,-3305.3083L13243.1601,-3305.3183L13243.0695,-3305.6L13242.5201,-3305.8266L13242.7094,-3306.2134L13242.4393,-3306.7135L13241.8503,-3306.4335L13241.7496,-3306.2599L13241.5802,-3306.2599L13241.4398,-3306.3534L13241.2201,-3306.3133L13241.3605,-3306.9733L13241.4001,-3307.2399L13240.7196,-3306.9668L13240.3397,-3306.8535L13240.5396,-3306.16L13239.9002,-3305.7999L13239.6698,-3305.6202L13239.6606,-3305.4001L13239.9597,-3305.1868L13240.2802,-3305.0869L13240.2802,-3304.3934L13240.0497,-3303.8666L13239.6194,-3304.0802L13239.4608,-3303.7666L13239.7507,-3303.4935L13239.4699,-3302.7466L13238.8901,-3302.5532L13238.2996,-3302.6402L13237.7701,-3302.2667L13238.2401,-3301.8135L13238.6993,-3302.0065L13239.27,-3301.9466L13239.5004,-3301.3065L13239.6301,-3301.5202L13239.5905,-3302.0668L13239.9094,-3302.4467L13240.0803,-3302.7668L13240.1993,-3302.7866L13240.4694,-3302.8465L13240.7608,-3302.6531L13241.0995,-3302.7267L13240.3397,-3303.4599L13240.6006,-3303.7132L13241.1301,-3303.8734L13240.7608,-3304.1134L13240.95,-3304.4735L13240.6799,-3304.9133L13240.6097,-3305.2265L13240.86,-3305.5866L13241.2201,-3305.5668L13241.4597,-3305.5534L13241.6794,-3305.7869L13242.2501,-3305.4665L13242.8497,-3305.2734L13242.9108,-3304.8199L13242.9901,-3304.5334L13243.2495,-3305.1266L13243.8507,-3305.0533L13243.9392,-3304.8668L13244.2795,-3304.6333L13244.1498,-3304.2999L13244.31,-3304.1199L13244.4794,-3304.1935L13244.9997,-3303.7399L13245.1294,-3303.5L13245.3506,-3303.6602L13245.3796,-3303.9532L13245.1508,-3303.9799L13244.9799,-3303.9665L13244.9203,-3304.1134L13244.9799,-3304.8332L13245.3094,-3304.7668L13245.61,-3304.8935L13245.8694,-3304.5933L13246.6309,-3304.9469L13247.0398,-3304.8801L13246.8491,-3304.0268L13247.0001,-3303.9467L13247.2504,-3304.1866L13247.3694,-3304.2534L13247.58,-3304.76L13247.85,-3304.6402L13248.1293,-3304.9133L13248.4207,-3304.3865L13248.1995,-3303.1933L13248.1003,-3302.7134L13248.2697,-3302.2667L13248.4802,-3301.0136L13248.9594,-3301.0666L13249.0997,-3301.6533L13249.4492,-3301.7799L13249.5697,-3301.5202L13249.5697,-3301.1532L13249.6796,-3301.0666L13250.1907,-3300.7935L13250.56,-3300.3201L13250.2197,-3300.0732L13250.1907,-3299.3866L13250.0397,-3299.2867L13250.7996,-3298.32L13251.0696,-3297.9935L13251.1597,-3297.6799L13251.4008,-3297.7066L13251.4297,-3297.6467L13251.3107,-3297.6665L13251.59,-3297.5266L13251.8097,-3297.6665L13251.8097,-3297.5666L13252.0096,-3297.3732L13252.0798,-3297.5201L13252.4002,-3297.7333L13252.4002,-3297.16L13252.6306,-3297.1802L13252.8,-3297.2466L13252.9907,-3297.0402L13252.98,-3297.3598L13253.1006,-3297.3469L13253.3401,-3297.1333L13253.7003,-3296.9002L13253.6301,-3297.2935L13253.6896,-3297.3534L13254.4006,-3296.5866L13255.0903,-3296.1933L13255.13,-3296.0934L13255.3406,-3296.0201L13255.1102,-3295.6799L13254.9896,-3295.6932L13253.5294,-3296.3932L13253.4103,-3296.4001L13253.2593,-3296.3734L13252.9907,-3296.5401L13252.6596,-3295.9667L13252.2797,-3296.1735L13252.2903,-3296.4733L13251.5594,-3296.0602L13251.3306,-3296.7133L13251.12,-3296.6999L13251.0498,-3296.7667L13250.7492,-3296.7602L13250.5005,-3296.5L13250.4303,-3296.2734L13249.8993,-3296.4802L13249.6796,-3296.4001L13249.4293,-3296.3932L13249.2203,-3296.5401L13249.6796,-3296.6267L13250.0397,-3296.9666L13249.8505,-3297.1668L13250.2396,-3297.2801L13249.7894,-3297.3999L13249.6796,-3297.4335L13249.5499,-3297.4266L13249.5895,-3297.62L13249.6796,-3297.7264L13249.9603,-3297.8466L13249.9496,-3297.9198L13250.4501,-3297.9465L13249.8993,-3298.18L13249.6796,-3298.3334L13249.5102,-3298.3334L13249.3896,-3298.2864L13249.4995,-3298.5401L13249.6796,-3298.5199L13249.8505,-3298.5867L13249.6796,-3298.7469L13249.0005,-3298.3135L13248.5794,-3298.0267L13248.3994,-3298.0331L13248.5901,-3297.5132L13248.41,-3297.2401L13248.23,-3297.1466L13248.1598,-3297.2069L13248.0103,-3297.1931L13247.9507,-3297.2599L13247.7295,-3297.2134L13247.2595,-3297.1066L13247.0093,-3296.9799L13247.0398,-3296.8601L13247.8195,-3296.8334L13248.23,-3296.4664L13248.1598,-3296.1201L13248.8296,-3296.0133L13249.6796,-3295.7535L13250.2304,-3295.5734L13249.7803,-3294.7933L13249.6796,-3294.7735L13249.3301,-3294.7201L13249.4492,-3294.22L13249.0005,-3293.98L13248.8098,-3294.1532L13248.6801,-3294.1399L13248.3902,-3294.4401L13248.2605,-3293.8732L13247.67,-3293.7935L13247.6105,-3294.1399L13247.1603,-3293.9602L13246.8491,-3293.94L13246.5302,-3293.9266L13246.4798,-3294.2467L13245.9793,-3293.8L13246.2601,-3293.5932L13246.9193,-3293.5467L13247.11,-3292.8867L13247.4106,-3292.26L13247.7203,-3292.0933L13247.67,-3291.9868L13247.5296,-3291.7L13247.5693,-3291.3067L13247.6593,-3290.9134L13247.2092,-3290.6666L13247.7493,-3290.4598L13248.5504,-3290.3667L13249.0204,-3289.9467L13249.1196,-3289.8067"/>
<path content="BA010,1,1,JPN" xlink:title="BA010" d="M13247.7097,-3321.3799L13248.3994,-3321.6L13248.7396,-3321.5L13248.7595,-3321.64L13249.0005,-3321.9601L13248.3994,-3321.6801L13248.2498,-3321.9334L13247.9004,-3321.6133L13247.7097,-3321.3799"/>
<path content="BA010,1,1,JPN" xlink:title="BA010" d="M13236.2793,-3318.7935L13236.3495,-3319.0334L13236.0199,-3319.4668L13236.0901,-3319.5599L13235.82,-3319.7533L13236.2,-3319.8868L13236.0596,-3320.2534L13236.3098,-3320.2934L13236.7996,-3320.3869L13237.1796,-3320.6932L13238.2202,-3320.9267L13238.0295,-3321.3535L13237.7594,-3321.9269L13237.4603,-3322.0531L13237.7106,-3321.8399L13237.3596,-3321.6064L13237.1796,-3321.5466L13236.9202,-3321.2933L13236.7401,-3321.32L13236.4502,-3321.04L13236.4593,-3320.76L13236.0901,-3320.6734L13235.4202,-3320.5067L13235.0906,-3320.76L13234.9304,-3320.76L13234.7397,-3320.7733L13234.4101,-3320.6467L13234.1599,-3320.6333L13234.0302,-3320.6333L13234.5398,-3320.5666L13235.2203,-3320.4334L13235.4599,-3320.1267L13235.3806,-3319.9532L13235.6598,-3319.9734L13235.6506,-3319.4134L13235.7101,-3319.0468L13235.8093,-3318.8999L13236.2793,-3318.7935"/>
<path content="BA010,1,1,JPN" xlink:title="BA010" d="M13236.3998,-3322.4133L13236.3098,-3322.6334L13236.2198,-3323.0267L13236.1496,-3323.18L13235.64,-3322.8867L13236.0107,-3322.5735L13236.2701,-3322.4201L13236.3998,-3322.4133"/>
<path content="BA010,1,1,JPN" xlink:title="BA010" d="M13251.9302,-3321.7602L13252.3697,-3322.1802L13252.5208,-3322.1802L13252.6093,-3322.2401L13253.0899,-3322.3667L13253.3905,-3322.6269L13252.7893,-3323.3532L13252.4704,-3323.7865L13252.2491,-3323.7465L13251.6403,-3324.0398L13251.2894,-3323.32L13250.7004,-3322.9668L13250.9705,-3322.7467L13251.1993,-3322.4731L13251.5198,-3322.2134L13251.9302,-3321.7602"/>
<path content="BA010,1,1,JPN" xlink:title="BA010" d="M13332.1899,-3334.7401L13332.3105,-3335.0067L13332.1198,-3335.0666L13331.8909,-3335.2135L13332.1899,-3334.7401"/>
<path content="BA010,1,1,JPN" xlink:title="BA010" d="M13331.0501,-3335.5934L13330.9601,-3335.7601L13330.4901,-3335.7933L13330.4504,-3335.7132L13331.0501,-3335.5934"/>
<path content="BA010,1,1,JPN" xlink:title="BA010" d="M13330.2002,-3335.7399L13330.1895,-3335.8799L13330.2597,-3336.1599L13330.3696,-3336.2534L13330.04,-3336.34L13329.7607,-3336.0535L13329.8904,-3335.8536L13330.2002,-3335.7399"/>
<path content="BA010,1,1,JPN" xlink:title="BA010" d="M13235.82,-3336.9133L13236.6104,-3337.6133L13236.6196,-3337.6934L13236.0199,-3337.6667L13235.7193,-3337.8735L13235.4294,-3337.8666L13234.4299,-3337.8265L13234.3796,-3337.8601L13234.3094,-3337.7068L13234.8907,-3337.2734L13235.3394,-3337.4001L13235.6903,-3337.0399L13235.82,-3336.9133"/>
<path content="BA010,1,1,JPN" xlink:title="BA010" d="M13234.1095,-3338.0733L13234.1797,-3338.2332L13234.05,-3338.7199L13234.5306,-3339.3868L13234.5398,-3339.3932L13234.4193,-3339.5931L13234.23,-3339.5802L13233.9005,-3339.5802L13233.4793,-3339.1068L13234.1095,-3338.0733"/>
<path content="BA010,1,1,JPN" xlink:title="BA010" d="M13236.5402,-3343.7866L13236.94,-3343.9602L13236.5997,-3343.9869L13236.4502,-3343.9869L13235.9604,-3343.9999L13235.7101,-3343.8736L13236.3602,-3343.8469L13236.5402,-3343.7866"/>
<path content="BA010,1,1,JPN" xlink:title="BA010" d="M13234.7305,-3345.2599L13235.1395,-3345.5399L13235.1303,-3345.9068L13234.6497,-3345.7867L13234.52,-3345.8336L13234.4193,-3345.7401L13234.3506,-3345.2934L13234.7305,-3345.2599"/>
<path content="BA010,1,1,JPN" xlink:title="BA010" d="M13238.6505,-3352.7733L13238.3606,-3353.0067L13238.0005,-3352.6802L13237.7106,-3352.4265L13237.1796,-3352.1267L13236.9705,-3352.14L13236.3998,-3351.8002L13235.9604,-3351.6266L13235.6506,-3351.6201L13235.1501,-3351.0132L13234.1095,-3350.6134L13233.9905,-3350.3201L13233.7296,-3350.2998L13233.7296,-3350.3201L13233.2092,-3350.3201L13232.7698,-3350.0134L13232.5104,-3349.8199L13232.0999,-3349.8466L13231.7291,-3349.3069L13231.6101,-3349.3267L13230.9906,-3349.1936L13230.7098,-3349.2466L13230.6595,-3349.0532L13230.6396,-3348.7L13230.3604,-3348.6465L13229.4693,-3348.7202L13228.8803,-3348.3536L13228.6697,-3348.0133L13228.3707,-3347.8401L13228.1006,-3348.1068L13227.6703,-3347.2866L13227.3499,-3347.5132L13227.0905,-3347.72L13226.6205,-3347.2801L13226.2695,-3347.3934L13225.7904,-3347.3534L13226.4999,-3346.6469L13226.4404,-3345.8733L13226.21,-3345.52L13226.0895,-3345.2934L13225.9399,-3344.9867L13225.8194,-3344.9734L13225.2701,-3345.24L13225.1297,-3345.6467L13224.8596,-3345.6535L13224.7299,-3345.6268L13224.6796,-3345.6669L13224.6307,-3345.6066L13224.2599,-3345.8935L13224.6796,-3346.1933L13224.6796,-3346.0869L13224.6796,-3345.9801L13224.8703,-3346.04L13224.6796,-3346.4199L13224.0692,-3346.5332L13223.9594,-3346.2868L13223.7701,-3345.94L13223.1003,-3346.1735L13222.7203,-3345.9469L13222.5006,-3345.8069L13222.3801,-3345.0134L13222.58,-3344.6266L13222.3297,-3344.4534L13221.6293,-3344.6869L13221.4401,-3344.4L13220.8496,-3344.6999L13219.8395,-3345.5601L13219.4305,-3345.2999L13219.5099,-3344.7933L13219.6701,-3344.3668L13219.2596,-3344.2333L13218.75,-3344.5139M13218.75,-3341.2943L13220.2499,-3341.5066L13221.0709,-3341.9868L13221.3303,-3342.1669L13221.8796,-3342.3801L13222.6501,-3342.5335L13223.7503,-3342.6201L13224.3607,-3343.2068L13224.6796,-3343.5001L13225.3906,-3343.8667L13225.5493,-3344.12L13226.4999,-3344.3001L13227.0706,-3344.64L13227.98,-3344.6934L13228.1998,-3345.2202L13228.36,-3345.5135L13228.4195,-3345.5868L13228.6194,-3345.8134L13228.7003,-3346.3467L13229.3198,-3346.4333L13229.5395,-3346.8666L13229.8996,-3347.4468L13230.5801,-3347.3133L13230.8594,-3346.6667L13231.0791,-3346.2532L13231.4697,-3345.66L13231.6406,-3345.1466L13231.7795,-3345.7802L13232.2495,-3346.7266L13232.2998,-3347.2599L13233.1802,-3347.3133L13233.4198,-3347.2935L13233.7799,-3347.4934L13234.9197,-3347.2466L13235.3104,-3347.4869L13234.8801,-3348.0801L13234.4894,-3348.3665L13234.1293,-3348.46L13234.8602,-3348.74L13235.2997,-3348.7999L13235.1593,-3348.3932L13236.2793,-3347.9935L13237.1094,-3347.1466L13237.1292,-3346.9666L13237.1796,-3346.8735L13237.2894,-3346.5935L13237.3596,-3346.0266L13237.8296,-3345.9934L13237.7899,-3346.4802L13237.9395,-3346.7934L13237.9105,-3346.9334L13238.4506,-3347.5132L13238.8107,-3347.4869L13239.0594,-3347.6536L13239.4104,-3347.4266L13239.6301,-3347.6536L13239.5599,-3347.3202L13240.0497,-3347.34L13239.9506,-3346.5401L13239.7507,-3346.5199L13239.3692,-3346.74L13239.2303,-3346.7335L13239.0701,-3346.88L13238.6505,-3345.9599L13239.74,-3345.7932L13240.3397,-3345.9267L13240.77,-3345.7802L13241.9296,-3346.2399L13241.7099,-3345.8069L13241.3696,-3345.8801L13241.6901,-3345.5933L13241.6107,-3345.3335L13241.5604,-3345.2667L13241.4108,-3345.2599L13241.1697,-3345.1534L13241.0202,-3345.1599L13240.86,-3344.9932L13240.6906,-3344.6468L13240.5502,-3344.6667L13240.4099,-3344.5599L13240.1901,-3344.7334L13239.9597,-3344.4935L13239.7995,-3344.5736L13239.5401,-3344.3401L13239.3097,-3344.4534L13239.1098,-3344.4668L13238.9801,-3344.3935L13238.8596,-3344.4134L13238.2294,-3344.1933L13238.9404,-3344.1132L13239.1296,-3344.1067L13239.6896,-3344.0735L13240.2405,-3344.2535L13240.8005,-3344.3668L13240.95,-3344.3203L13241.4902,-3344.3867L13241.33,-3344.0067L13240.48,-3343.2934L13240.4404,-3342.9733L13240.5106,-3342.3668L13239.8804,-3342.6666L13239.7995,-3342.9733L13239.6606,-3342.9802L13238.7695,-3342.2001L13238.5498,-3341.9868L13237.9501,-3341.6069L13238.71,-3341.7L13238.9496,-3341.5066L13239.0594,-3341.3601L13239.2395,-3341.3532L13239.18,-3340.6136L13238.9206,-3340.4133L13239.2807,-3340.1066L13239.5599,-3339.88L13239.4104,-3339.5866L13238.6993,-3339.2467L13237.8403,-3338.7333L13237.8006,-3338.4602L13238.3194,-3338.1001L13238.4201,-3337.6469L13238.6795,-3337.4134L13238.6902,-3337.2135L13238.8199,-3337.1799L13238.71,-3336.6066L13238.3194,-3336.1732L13239.8697,-3337.0934L13240.3595,-3337.1399L13240.39,-3337.3333L13240.1993,-3337.3199L13240.3793,-3337.5668L13240.95,-3338.0531L13241.0706,-3338.4335L13241.4703,-3338.2069L13241.8793,-3338.2534L13241.8594,-3337.8067L13241.4993,-3337.8735L13241.0004,-3336.5135L13240.6097,-3335.96L13241.5298,-3336.1668L13241.9296,-3335.6468L13241.6595,-3335.3733L13240.8203,-3335.2734L13241.04,-3334.3399L13240.8203,-3334.3334L13240.4205,-3334.6268L13239.9307,-3334.6935L13239.4394,-3334.5135L13239.3204,-3334.7134L13239.1495,-3334.7198L13239.09,-3334.3201L13239.0396,-3333.8802L13238.5406,-3333.7666L13238.4796,-3334.3201L13238.2004,-3333.7868L13237.8891,-3333.8066L13237.5595,-3333.6533L13237.3398,-3332.9334L13237.1796,-3332.8068L13237.0605,-3332.8266L13236.8805,-3332.2399L13237.1094,-3331.8066L13237.1796,-3331.7799L13237.8296,-3332.0999L13238.4903,-3331.9401L13238.8504,-3331.7066L13239.2303,-3331.9401L13239.8804,-3331.4732L13239.9506,-3330.9334L13240.9393,-3330.6332L13241.2994,-3330.6202L13241.7297,-3330.3333L13242.2302,-3330.4001L13242.3096,-3330.8735L13242.54,-3331.1466L13242.4896,-3331.4266L13243.1198,-3331.9801L13243.3701,-3331.7066L13243.9804,-3331.0932L13244.22,-3331.16L13245.1797,-3330.88L13246.3501,-3331.16L13246.6309,-3331.2935L13246.8903,-3331.3732L13246.4508,-3331.5201L13246.6904,-3331.8802L13247.9706,-3331.6334L13248.3505,-3331.5067L13248.0194,-3331.9L13248.79,-3331.6666L13249.0005,-3331.6002L13248.8296,-3331.9199L13248.6694,-3332.1533L13248.8693,-3332.2666L13248.8602,-3332.3399L13249.2096,-3332.5466L13249.4598,-3332.0999L13249.5407,-3331.8668L13249.6796,-3331.2267L13249.7696,-3331.1733L13250.1297,-3331.34L13250.3494,-3331.4865L13250.5692,-3331.7402L13250.6805,-3331.5601L13251.1505,-3331.8733L13251.2802,-3331.8535L13251.8097,-3331.6269L13251.9501,-3331.4934L13252.2598,-3331.4934L13252.5391,-3331.1867L13252.7206,-3330.7602L13252.5803,-3330.5466L13252.2491,-3330.4268L13252.0798,-3330.4535L13251.8997,-3330.4466L13251.68,-3330.5668L13251.1002,-3330.4802L13250.6393,-3330.5336L13250.4395,-3330.22L13250.2594,-3329.9599L13250.0504,-3330.0999L13249.8306,-3329.8332L13249.6796,-3329.8134L13248.8602,-3329.3468L13248.3505,-3328.9734L13248.2101,-3328.8933L13248.1796,-3328.5202L13248.2101,-3328.0334L13247.9996,-3328.0132L13247.9294,-3328.0601L13247.6105,-3327.4467L13247.4106,-3327.4666L13247.29,-3326.9867L13247.4503,-3326.6666L13247.02,-3326.0532L13246.8292,-3325.5199L13247.3801,-3325.5402L13247.5494,-3326.16L13247.7295,-3326.2867L13248.3093,-3326.5667L13248.1491,-3326.7532L13247.9095,-3326.6132L13247.85,-3326.7468L13247.5998,-3326.8467L13247.58,-3327.0267L13247.7097,-3327.2202L13247.7203,-3327.3201L13247.9706,-3327.1267L13248.1094,-3327.4399L13248.6694,-3327.2865L13248.9197,-3326.9199L13249.2096,-3327.0065L13249.6796,-3327.0267L13250.1907,-3326.8799L13250.3403,-3326.3134L13250.4501,-3326.0799L13250.9094,-3325.9132L13251.4801,-3326.0735L13251.2497,-3326.5202L13251.8005,-3326.4534L13251.8692,-3326.12L13252.4902,-3326.2867L13253.4393,-3326.4999L13253.7903,-3326.8066L13253.6804,-3327.2202L13253.9993,-3327.0733L13254.2099,-3327.0599L13254.1702,-3326.3199L13253.9001,-3325.7198L13252.7603,-3325.3468L13252.6093,-3325.3201L13252.1393,-3325.14L13251.9897,-3324.8135L13252.3193,-3324.4865L13253.1403,-3324.4598L13253.3203,-3323.9868L13253.1906,-3323.9933L13253.7399,-3323.6732L13253.8895,-3323.5065L13254.2908,-3323.4932L13254.57,-3323.28L13254.9805,-3323.4932L13254.9896,-3323.5268L13255.2902,-3323.6599L13255.3101,-3322.9801L13255.0705,-3323.0068L13255.04,-3322.6734L13255.4108,-3322.6334L13255.7999,-3322.5533L13255.4001,-3322.5468L13255.2002,-3322.6398L13255.0797,-3322.4865L13255.5405,-3322.1802L13255.9494,-3322.2134L13255.5695,-3321.9467L13255.2704,-3321.9398L13254.7699,-3322.2332L13254.6402,-3322.2466L13254.5502,-3322.1668L13254.0695,-3322.6665L13253.8101,-3322.5533L13253.9505,-3322.1333L13254.01,-3321.8399L13254.2297,-3321.5401L13254.3198,-3321.3402"/>
<path content="BA010,1,1,JPN" xlink:title="BA010" d="M13431.2103,-3353.7132L13431.25,-3353.8734L13430.8304,-3353.9269L13430.9708,-3353.7869L13431.2103,-3353.7132"/>
<path content="BA010,1,1,JPN" xlink:title="BA010" d="M13429.6799,-3353.7399L13429.8599,-3353.7468L13429.9805,-3353.9066L13429.6799,-3353.9932L13429.6799,-3353.7399"/>
<path content="BA010,1,1,JPN" xlink:title="BA010" d="M13432.0709,-3353.9734L13432.3502,-3354.1199L13432.1701,-3354.2801L13432.0297,-3354.5135L13431.7001,-3354.8866L13431.6101,-3354.7199L13431.72,-3354.4868L13431.5903,-3354.3732L13431.6696,-3354.1801L13432.0709,-3353.9734"/>
<path content="BA010,1,1,JPN" xlink:title="BA010" d="M13315.6799,-3312.4931L13315.7806,-3312.6202L13316.2598,-3313.4399L13316.3498,-3313.5132L13316.9998,-3315.02L13318.2999,-3316.1999L13318.7103,-3316.3601L13319.1406,-3316.7133L13320.4803,-3316.5733L13320.7703,-3316.2266L13320.6299,-3316.0866L13320.52,-3315.8798L13320.9808,-3315.2065L13320.7794,-3314.9067L13320.8893,-3314.88L13321.1807,-3314.8399L13321.5805,-3315.1199L13321.8994,-3315.2332L13322.2397,-3315.3133L13322.1603,-3315.4934L13322.0001,-3315.4865L13321.8704,-3316L13321.3898,-3316.4734L13321.8704,-3316.2132L13321.991,-3316.9266L13322.3801,-3316.9865L13322.1008,-3317.2798L13321.7606,-3317.5133L13321.6095,-3317.5068L13321.4005,-3317.9867L13321.2494,-3317.9802L13320.9702,-3318.28L13321.5698,-3319.26L13322.3999,-3319.4332L13323.3505,-3319.7735L13323.9899,-3319.6934L13323.8403,-3320.06L13323.41,-3320.3602L13323.9304,-3321.3066L13323.8403,-3321.6267L13324.4995,-3321.9933L13324.6796,-3322.1268L13325.2396,-3322.3934L13325.5798,-3322.6067L13325.2792,-3322.9935L13324.8901,-3323.2735L13325.4105,-3323.6935L13325.5508,-3323.7667L13325.0992,-3324.0868L13324.7696,-3324.1932L13324.6796,-3324.4064L13324.6796,-3324.4999L13324.6796,-3324.72L13324.6796,-3324.8199L13324.9893,-3325.0534L13325.5203,-3325.0198L13325.5508,-3325.3201L13326.2802,-3325.7599L13325.7401,-3326.2531L13325.6699,-3326.5133L13325.4898,-3327.0065L13325.9399,-3327.6398L13325.8301,-3327.9934L13325.3494,-3327.9934L13324.8901,-3327.8934L13325.1694,-3327.8065L13325.0595,-3327.7L13324.9207,-3327.8198L13324.8093,-3327.4532L13324.6796,-3327.4265L13324.1898,-3327.5799L13324.1196,-3327.9732L13324.231,-3327.9999L13324.3195,-3328.9799L13324.4598,-3329.2999L13324.1898,-3329.2801L13323.79,-3329.5868L13323.97,-3329.8798L13324.4507,-3330.0865L13324.6796,-3329.9999L13325.0397,-3330.0201L13324.8306,-3330.5466L13325.4501,-3330.7999L13326.03,-3331.0135L13325.4807,-3331.3198L13325.3098,-3331.3065L13324.7498,-3331.5201L13324.6796,-3331.5067L13324.1898,-3331.8798L13324.0707,-3331.8535L13323.5809,-3332.1999L13323.0896,-3332.3532L13323.3109,-3332.9533L13323.7808,-3332.9933L13323.8098,-3333.2733L13324.2706,-3333.2733L13324.6796,-3333.1135L13324.8703,-3332.8133L13324.9802,-3333.3935L13325.5295,-3333.26L13325.7294,-3333.6533L13325.8194,-3334.0668L13326.3306,-3334.0332L13326.3,-3334.3201L13325.9705,-3334.7401L13326.1795,-3334.9533L13326.3596,-3335.0201L13326.2207,-3335.4198L13326.3306,-3336.0931L13325.9903,-3336.0802L13325.8301,-3336.5067L13326.0406,-3336.7332L13326.1002,-3336.8L13326.5198,-3336.9534L13326.7105,-3336.8134L13326.8295,-3337.1799L13327.2598,-3337.0533L13327.1896,-3337.1735L13327.42,-3337.5134L13328.0807,-3337.6865L13327.8702,-3337.9269L13327.8107,-3338.4468L13327.7298,-3338.5132L13327.9099,-3338.5868L13327.9404,-3338.3999L13328.7094,-3338.6665L13329.39,-3338.8332L13329.39,-3338.8802L13329.5105,-3339.2933L13329.1306,-3339.7999L13328.9795,-3339.7133L13328.7506,-3340.2332L13329.01,-3340.3L13328.8605,-3340.5334L13329.4495,-3340.5132L13329.4907,-3340.1066L13330.1392,-3339.3131L13330.3894,-3339.0533L13329.9698,-3338.9336L13329.8599,-3338.6932L13329.7501,-3338.7135L13328.9108,-3338.2L13329.4205,-3338.06L13329.8996,-3337.7869L13329.9606,-3337.4401L13330.3406,-3337.5732L13330.2002,-3337.8532L13330.8197,-3337.9868L13330.9601,-3337.6202L13331.3004,-3337.6736L13331.5308,-3337.9269L13331.34,-3337.9601L13331.7001,-3338.2401L13332.0602,-3338.1935L13332.3807,-3337.7533L13332.0694,-3337.5069L13332.2006,-3337.2066L13332.2098,-3336.8668L13332.0801,-3336.8599L13331.8909,-3336.9267L13332.2693,-3336.6268L13332.2296,-3336.4468L13331.8604,-3336.3068L13331.2607,-3336.6867L13331.1295,-3336.5665L13331.3507,-3336.2801L13331.6696,-3335.8398L13331.1493,-3335.64L13331.81,-3335.5L13331.9901,-3336.0001L13332.2906,-3336.1732L13332.6996,-3336.38L13333.0399,-3336.2598L13332.6599,-3336.7802L13332.8796,-3337.1532L13333.1696,-3337.2398L13333.1604,-3337.6801L13332.9498,-3338.7268L13333.3603,-3339.1068L13334.1995,-3339.2933L13333.96,-3339.5866L13334.2606,-3339.8533L13334.6405,-3340.02L13335.4294,-3340.0467L13335.9802,-3340.2065L13336.6608,-3340.1066L13337.1796,-3340.1531L13337.6099,-3339.2933L13337.7106,-3339.2666L13337.8006,-3339.4135L13337.5595,-3339.9799L13337.9395,-3340.3465L13338.4293,-3340.2935L13338.9908,-3340.5735L13339.4592,-3340.1199L13339.83,-3340.3999L13340.1596,-3340.3732L13340.3702,-3339.8602L13340.5792,-3339.7335L13340.8707,-3339.8399L13340.77,-3340.0532L13340.8005,-3340.4999L13341.1606,-3340.6399L13341.1606,-3341.0667L13341.6199,-3341.0465L13341.8198,-3340.8333L13341.98,-3340.7001L13342.0807,-3341.2533L13342.5903,-3341.18L13342.7307,-3340.7665L13342.8604,-3340.8466L13342.9108,-3341.5199L13343.3105,-3341.4734L13343.7897,-3341.3666L13343.9804,-3341.2201L13344.2398,-3341.9266L13344.3192,-3341.9868L13344.6899,-3342.0601L13345.3705,-3341.9868L13345.7199,-3341.9868L13345.7993,-3342.7334L13346.1594,-3343.0866L13345.7001,-3343.2934L13345.3293,-3343.1267L13344.9692,-3343.3735L13344.8303,-3343.3533L13344.3695,-3343.9068L13344.2108,-3343.9133L13344.0201,-3343.5936L13344.3192,-3343.5333L13343.8904,-3343.3266L13343.7103,-3343.3201L13343.4906,-3343.3266L13343.4494,-3343.1999L13343.3807,-3342.8066L13343.2907,-3342.8402L13343.1595,-3342.6666L13342.7505,-3343.0332L13342.3004,-3342.9535L13342.1707,-3343.3666L13342.0395,-3343.3468L13341.9708,-3343.7069L13341.5894,-3343.8934L13341.2094,-3343.3601L13341.0507,-3343.3735L13341.0599,-3342.9199L13340.6906,-3342.6601L13341.0004,-3342.4133L13340.6601,-3342.4133L13340.4099,-3342.7269L13340.21,-3342.1467L13340.1993,-3341.9868L13340.2603,-3341.4467L13340.1199,-3341.4467L13339.9094,-3341.9266L13339.8895,-3341.9868L13339.6194,-3342.4599L13339.5004,-3342.3733L13339.3509,-3342.3801L13339.3295,-3342.0799L13339.18,-3342.1001L13339.2395,-3341.9868L13339.2303,-3341.6935L13339.0594,-3341.8068L13338.8,-3341.9868L13338.7497,-3342.1467L13338.3499,-3342.0269L13338.3804,-3341.9868L13338.4003,-3341.9067L13338.4109,-3341.1201L13338.0798,-3341.3933L13337.9898,-3341.5001L13337.8906,-3341.3399L13337.8494,-3341.6L13337.8601,-3341.8335L13337.6907,-3341.8335L13337.7197,-3341.9868L13337.6602,-3342.1799L13337.2406,-3342.1734L13337.1796,-3342.4999L13336.94,-3342.26L13336.8103,-3342.0601L13336.7905,-3341.9868L13336.9507,-3341.5867L13336.8301,-3341.3067L13336.8896,-3340.9801L13336.5707,-3340.7066L13336.3998,-3340.8134L13335.91,-3340.7799L13335.8704,-3340.9267L13336.4395,-3341.2067L13336.3998,-3341.2868L13336.2808,-3341.2601L13336.29,-3341.4867L13336.3297,-3341.56L13336.0001,-3341.5401L13335.8597,-3341.5802L13335.3699,-3341.5001L13335.2005,-3341.4799L13334.9808,-3341.5733L13335.0403,-3341.7599L13335.4599,-3341.9868L13336.0092,-3342.1467L13336.3205,-3342.8001L13336.7004,-3342.8001L13336.9202,-3343.0332L13337.1796,-3343L13337.6694,-3342.8936L13338.7405,-3343.1335L13338.6902,-3342.9001L13338.7299,-3342.7135L13339.0594,-3342.7067L13339.18,-3342.7799L13339.4196,-3342.8066L13339.5203,-3342.86L13339.6606,-3342.9401L13339.7202,-3343.1267L13340.0299,-3343.2533L13340.1306,-3343.2999L13340.5396,-3343.2335L13340.6403,-3343.9133L13340.4694,-3343.9133L13340.1596,-3343.9335L13340.0299,-3343.7866L13339.9002,-3344.2333L13339.7705,-3344.2333L13339.5096,-3344.2135L13339.8102,-3344.4866L13340.2206,-3344.4L13340.4999,-3344.3333L13340.39,-3344.64L13340.5899,-3344.6999L13341.1102,-3344.3134L13341.4703,-3344.3802L13341.5802,-3344.3535L13341.7603,-3344.4935L13341.8198,-3344.9135L13342.4698,-3344.8868L13342.3004,-3344.2268L13342.45,-3343.94L13343.1702,-3343.6935L13343.66,-3343.8736L13344.0201,-3344.8002L13344.3909,-3345.0199L13344.6594,-3345.0268L13344.6701,-3345.1534L13345.0806,-3345.0932L13345.2103,-3344.9333L13345.5505,-3344.82L13345.7306,-3344.5801L13346.5607,-3345.2866L13347.8607,-3345.8267L13348.8098,-3346.1399L13349.6796,-3346.5069L13350.9003,-3347.2534L13353.5706,-3348.3601L13357.3898,-3349.5667L13357.5897,-3349.8333L13357.7408,-3350.0866L13357.7194,-3350.0999L13356.6498,-3349.7932L13356.2103,-3349.6334L13355.9296,-3349.9332L13355.8502,-3349.8333L13355.6702,-3350.0267L13355.7404,-3350.0668L13355.6305,-3350.3201L13355.6595,-3350.4002L13355.9097,-3350.8331L13355.3803,-3350.9335L13354.8798,-3351.5598L13354.5898,-3351.7868L13354.8096,-3352.0332L13354.6097,-3352.2999L13355.2795,-3352.7599L13356.0593,-3353.0201L13355.9494,-3353.5934L13355.1407,-3353.7067L13355.3207,-3353.8132L13355.3299,-3353.9799L13356.0104,-3353.9066L13355.8304,-3354.9934L13356.0394,-3355.2532L13356.3095,-3355.0934L13356.3995,-3354.2202L13356.5598,-3354.3735L13356.8802,-3354.2534L13357.0801,-3353.8799L13356.8192,-3353.78L13356.9595,-3353.6335L13357.1106,-3353.6266L13356.5903,-3353.4466L13356.4896,-3351.4465L13356.6299,-3351.4999L13356.8695,-3351.6067L13356.9,-3351.58L13356.9,-3351.6666L13357.0801,-3351.6666L13357.2006,-3351.4534L13356.8802,-3351.2001L13356.4102,-3351.1734L13356.6406,-3350.8736L13356.4102,-3350.5932L13356.1996,-3350.3201L13356.4407,-3350.0801L13357.0099,-3350.2132L13357.0496,-3350.3201L13358.4503,-3351.4133L13360.0906,-3351.9199L13362.1796,-3352.3335L13368.1305,-3353.3867L13368.9896,-3353.5934L13369.3802,-3353.7201L13369.3008,-3353.3798L13369.7205,-3353.6068L13372.0306,-3353.7601L13372.3495,-3353.7601L13372.9004,-3353.8067L13374.4095,-3353.6602L13374.6796,-3353.6068L13375.56,-3353.1666L13375.5692,-3352.8999L13375.5096,-3352.8267L13375.4105,-3352.8267L13375.4593,-3351.9867L13376.21,-3351.86L13376.4694,-3351.7467L13376.86,-3351.5533L13376.9501,-3351.5533L13377.6993,-3351.6067L13381.9595,-3351.5133L13383.5999,-3351.1665L13383.7799,-3350.7465L13385.5392,-3350.4868L13386.6898,-3350.3201L13387.1796,-3350.3132L13388.7802,-3350.0866L13389.18,-3349.9401L13388.7894,-3349.9401L13390.9698,-3349.4667L13393.4296,-3348.6599L13394.4092,-3347.3068L13394.0903,-3346.3936L13395.0897,-3344.9001L13395.5505,-3344.5999L13395.6406,-3344.4801L13395.9198,-3344.22L13397.4808,-3343.7267L13398.4497,-3343.1999L13399.2401,-3342.7601L13399.6796,-3342.6399L13401.0696,-3342.1867L13401.4999,-3342.1135L13401.4709,-3342.2867L13401.8906,-3342.2001L13401.9104,-3341.9868L13401.8692,-3341.9868L13401.5793,-3342.12L13401.5305,-3341.9868L13403.0594,-3341.2201L13403.5294,-3340.0398L13403.6804,-3339.1068L13403.5995,-3338.4933L13403.3295,-3337.8601L13403.3203,-3337.8334L13403.8696,-3337.0468L13404.2801,-3337.1532L13405.3406,-3336.7668L13406.7001,-3335.6335L13407.7393,-3334.0534L13408.1696,-3333.68L13408.2901,-3333.6533L13410.2097,-3332.7L13410.6506,-3331.6067L13410.8902,-3330.2734L13410.7605,-3329.6734L13410.8597,-3329.5868L13411.2106,-3329.3533L13411.3907,-3329.4399L13411.8103,-3329.6066L13412.1796,-3329.8866L13413.8306,-3329.5799L13414.4501,-3328.7201L13414.4302,-3328.6602L13414.92,-3328.6068L13414.9094,-3328.5866L13414.65,-3328.6133L13415.2908,-3328.26L13415.181,-3328.1666L13414.5401,-3328.5599L13414.3707,-3328.4801L13414.6194,-3328.4668L13416.2704,-3326.4866L13416.2903,-3326.3466L13416.3208,-3326.6266L13416.6306,-3325.9197L13416.6702,-3325.8598L13416.9205,-3325.3201L13417.4103,-3324.3999L13417.6605,-3324.3465"/>
<path content="BA010,1,1,JPN" xlink:title="BA010" d="M13442.3096,-3362.9002L13442.5995,-3363.0798L13442.5995,-3363.3266L13442.4301,-3363.7135L13442.3508,-3363.6398L13442.3904,-3363.5666L13442.07,-3363.6398L13442.3096,-3362.9002"/>
<path content="BA010,1,1,JPN" xlink:title="BA010" d="M13444.9295,-3363.7402L13444.96,-3363.8134L13444.9905,-3363.8866L13444.8593,-3363.9L13444.6609,-3363.9L13444.4595,-3363.9198L13444.6396,-3363.8134L13444.9295,-3363.7402"/>
<path content="BA010,1,1,JPN" xlink:title="BA010" d="M13449.6796,-3363.0135L13450.1404,-3363.5334L13450.3693,-3364.0732L13449.9405,-3363.8802L13449.6796,-3363.8199L13449.0601,-3364.1869L13448.9594,-3364.1399L13448.6999,-3364.46L13448.4695,-3364.4936L13448.3505,-3364.2399L13448.3002,-3364.1132L13448.6603,-3363.7135L13448.6603,-3363.5136L13448.0804,-3363.6601L13448.4406,-3363.2732L13448.7701,-3363.2866L13449.6796,-3363.0135"/>
<path content="BA010,1,1,JPN" xlink:title="BA010" d="M13247.4396,-3373.2601L13248.0194,-3373.4531L13248.8007,-3373.56L13248.9594,-3373.4867L13249.0204,-3373.6069L13248.3292,-3373.8132L13247.5204,-3373.6534L13247.4396,-3373.2601"/>
<path content="BA010,1,1,JPN" xlink:title="BA010" d="M13417.6605,-3324.3465L13418.0603,-3325.0065L13418.1702,-3325.3201L13418.3701,-3326.0067L13418.6295,-3328.7735L13418.6996,-3329.2999L13419.0903,-3330.6133L13419.4504,-3332.0866L13419.7906,-3333.3332L13419.7296,-3333.3935L13419.8303,-3333.6533L13420.0607,-3335.1536L13420.2301,-3335.3466L13420.2606,-3335.9135L13420.4697,-3336.5269L13420.7901,-3337.22L13421.2906,-3338.3533L13421.2402,-3339.0068L13420.8405,-3339.4733L13420.9106,-3339.5401L13420.9595,-3339.4402L13421.55,-3340.8134L13422.1909,-3341.9868L13423.4695,-3343.98L13423.4695,-3344.2066L13424.0707,-3345.1935L13424.1302,-3346.3135L13424.6796,-3347.1199L13425.8102,-3348.5867L13426.7197,-3349.6334L13426.8402,-3349.6933L13427.0599,-3350.3201L13428.4698,-3351.6399L13428.7506,-3351.82L13428.8208,-3351.9936L13428.3096,-3352.1801L13428.5599,-3353.08L13429.0894,-3353.3669L13429.0405,-3353.5332L13429.2603,-3353.8002L13429.0802,-3353.9135L13429.3701,-3354.2202L13429.5502,-3354.1668L13429.7806,-3354.0668L13430.2505,-3354.1866L13430.0095,-3354.4735L13429.9301,-3354.6932L13429.7501,-3354.7668L13430.0507,-3354.76L13430.2094,-3354.9L13430.2002,-3354.5734L13430.4504,-3354.6535L13430.5206,-3354.8534L13430.7495,-3354.9999L13430.7999,-3354.6402L13431.3995,-3354.5734L13431.4102,-3354.8668L13431.4804,-3355.0667L13431.6605,-3355.4134L13431.9107,-3355.5668L13431.72,-3355.64L13431.4301,-3355.7667L13431.2302,-3355.6602L13431.1707,-3356.1466L13431.0898,-3356.0936L13430.9509,-3356.1066L13430.6396,-3356.2069L13430.8899,-3356.2801L13430.8899,-3357.2735L13431.0806,-3357.6336L13431.3004,-3357.6801L13431.9107,-3357.7667L13431.6605,-3358.1001L13432.1899,-3358.2333L13432.4203,-3358.1001L13432.8995,-3358.1936L13433.7296,-3357.8266L13435.7101,-3357.9067L13436.2198,-3358.0532L13435.0204,-3358.3401L13434.3506,-3358.3466L13433.3099,-3358.1402L13433.2001,-3358.44L13433.9706,-3358.5468L13434.3704,-3358.5201L13435.3104,-3358.6533L13436.3297,-3358.8867L13436.2595,-3359.1801L13436.0306,-3359.1866L13436.0397,-3359.4067L13436.171,-3359.2934L13436.1206,-3359.5798L13436.7905,-3360.6667L13437.1796,-3361.0065L13437.8296,-3361.2667L13438.2599,-3361.5002L13438.4201,-3361.9202L13438.6703,-3361.94L13438.8794,-3362.3268L13437.8998,-3362.4866L13437.3505,-3362.4268L13437.1796,-3362.4065L13436.5295,-3362.4535L13436.3998,-3362.4199L13436.1801,-3362.6999L13436.3205,-3362.8666L13436.6196,-3362.9131L13436.6898,-3363.0932L13436.9308,-3363.0669L13436.8896,-3363.3667L13437.1796,-3363.4068L13437.41,-3363.2267L13437.6999,-3363.3598L13437.4405,-3363.5666L13438.0295,-3363.9732L13438.4994,-3364.2334L13438.6002,-3364.4669L13438.8702,-3364.7865L13439.0305,-3364.7999L13438.9008,-3365.0333L13438.9496,-3365.0333L13439.5996,-3365.0269L13439.5508,-3365.6067L13439.8407,-3365.6666L13439.9902,-3365.6132L13440.3,-3365.9866L13440.8203,-3365.6265L13441.1194,-3365.4068L13441.7007,-3365.7467L13441.6901,-3366.0599L13441.8396,-3366.56L13442.5797,-3366.4665L13442.45,-3366.1335L13442.6498,-3366.0999L13443.0206,-3366.3933L13443.8004,-3366.3002L13444.2093,-3366.56L13444.6396,-3366.9868L13444.8395,-3367.0334L13445.0897,-3367.12L13445.1996,-3367.1001L13445.4605,-3367.3267L13446.4996,-3367.9668L13447.1909,-3368.1469L13448.1995,-3368.5932L13448.8403,-3368.8667L13448.6603,-3369.0868L13449.0906,-3369.1467L13449.1699,-3369.3199L13449.6796,-3369.3802L13449.8993,-3369.5267L13450.2304,-3369.4199L13450.47,-3369.9268L13450.7904,-3369.8269L13451.1597,-3369.9333L13451.4297,-3370.24L13451.6602,-3370.1534L13451.7303,-3370.5532L13452.0203,-3370.5135L13452.3895,-3370.7199L13453.0899,-3371.18L13453.6194,-3371.5267L13454.2694,-3371.9799L13454.2007,-3372.2401L13454.2603,-3372.44L13454.4098,-3372.48L13454.0497,-3372.8065L13454.3304,-3373.6603L13454.7409,-3373.7202L13454.8904,-3373.5802L13455.0995,-3373.5668L13455.3406,-3374.1734L13455.6305,-3374.1531L13455.7007,-3374.4999L13455.7907,-3374.4469L13455.8105,-3374.3L13455.6,-3373.8602L13455.6595,-3373.6465L13455.6595,-3373.4333L13455.9601,-3373.3799L13456.1798,-3373.3933L13456.4407,-3373.1869L13456.6498,-3373.2735L13456.5796,-3373.3734L13456.6696,-3373.7736L13456.7703,-3373.9735L13456.6895,-3374.1669L13457.0099,-3374.3534L13457.249,-3375"/>
<path content="BA010,1,1,JPN" xlink:title="BA010" d="M13268.8078,-3375L13267.9993,-3374.4736L13267.9001,-3374.5667L13267.6804,-3374.4068L13267.3508,-3373.0335L13266.2201,-3371.3066L13266.0995,-3370.76L13265.1398,-3369.6602L13264.36,-3369.1467L13263.6703,-3368.9201L13262.5,-3367.9066L13262.1796,-3367.8066L13261.6196,-3367.5468L13260.9802,-3366.9868L13259.4101,-3365.9267L13258.0902,-3365.2134L13257.2296,-3365.0002L13253.0594,-3363.7466L13250.9994,-3362.6934L13250.7202,-3363.0135L13250.0305,-3362.4802L13249.9496,-3362.5401L13249.6796,-3362.3734L13248.9899,-3361.7599L13248.3002,-3361.5135L13248.2101,-3361.5601L13248.1903,-3361.7199L13247.7402,-3361.6199L13247.6395,-3361.4334L13247.7203,-3361.1534L13247.4503,-3361.1069L13247.1603,-3360.4733L13246.1792,-3359.8598L13245.6604,-3359.3735L13245.5002,-3358.82L13245.2896,-3358.6533L13244.6793,-3358.12L13244.1193,-3357.4867L13244.0308,-3357.2201L13243.7698,-3357.2334L13243.2495,-3356.7066L13243.2892,-3356.2866L13243.2495,-3355.8868L13242.7002,-3355.5866L13242.4591,-3355.1468L13241.7206,-3354.4334L13241.5894,-3354.4334L13241.3193,-3354.4266L13240.8203,-3354.2866L13240.3793,-3354.0333L13240.1505,-3354.1935L13240.0803,-3353.8467L13239.6805,-3353.6068L13239.5004,-3353.5934L13239.0106,-3353.0869L13238.8199,-3352.8L13238.6505,-3352.7733"/>
</g>
</svg>
