<?xml version="1.0" encoding="UTF-8"?>
<svg  xmlns="http://www.w3.org/2000/svg" xmlns:xlink="http://www.w3.org/1999/xlink" xmlns:go="http://purl.org/svgmap/profile" property="f_code,acc,exs,soc" viewBox="12937.5 -3234.375 140.625 140.625" go:dataArea="12937.5 -3234.375 140.625 140.625" >
<metadata>
 <rdf:RDF xmlns:rdf="http://www.w3.org/1999/02/22-rdf-syntax-ns#" xmlns:crs="http://opengis.org/xmldtds/transformations.dtd" xmlns:svg="http://www.w3.org/svg" >
  <rdf:Description>
   <crs:CoordinateReferenceSystem rdf:resource="http://purl.org/crs/84" svg:transform="matrix(100.0,0.0,0.0,-100.0,0.0,0.0)" />
  </rdf:Description>
 </rdf:RDF>
</metadata>
<globalCoordinateSystem srsName="http://purl.org/crs/84" transform="matrix(100.0,0.0,0.0,-100.0,0.0,0.0)" />
<defs>
 <g id="p0" >
  <circle cx="0.0" cy="0.0" r="3" stroke="green" stroke-width="2.0" vector-effect="non-scaling-stroke" />
 </g>
</defs>
<g fill="none" fill-rule="evenodd" stroke="#000000" stroke-width="2" opacity="0.5" vector-effect="non-scaling-stroke" stroke-linejoin="bevel" >
<path content="BA010,1,1,JPN" xlink:title="BA010" d="M13067.2104,-3099.5733L13067.2806,-3099.7L13067.1707,-3099.7932L13067.0395,-3099.6134L13067.2104,-3099.5733"/>
<path content="BA010,1,1,JPN" xlink:title="BA010" d="M12942.3337,-3113.653L12942.3526,-3113.642L12942.3578,-3113.6113L12942.3402,-3113.6048L12942.3565,-3113.5767L12942.3754,-3113.531L12942.333,-3113.4573L12942.2534,-3113.5154L12942.2286,-3113.546L12942.258,-3113.578L12942.2286,-3113.5878L12942.1771,-3113.6491L12942.3337,-3113.653"/>
<path content="BA010,1,1,JPN" xlink:title="BA010" d="M12941.6525,-3117.2532L12941.7041,-3117.2375L12941.7086,-3117.1575L12941.6608,-3117.1411L12941.6137,-3117.1515L12941.6189,-3117.2076L12941.6525,-3117.2532"/>
<path content="BA010,1,1,JPN" xlink:title="BA010" d="M12941.7677,-3117.2756L12941.8154,-3117.3203L12941.8656,-3117.3163L12941.8922,-3117.2415L12941.9336,-3117.1627L12941.9082,-3117.1074L12941.8275,-3117.0917L12941.8125,-3117.1104L12941.7482,-3117.1067L12941.7677,-3117.2756"/>
<path content="BA010,1,1,JPN" xlink:title="BA010" d="M12943.4097,-3117.5533L12943.5394,-3117.6733L12944.1803,-3117.9934L12944.6396,-3117.7267L12944.7403,-3117.6867L12944.7601,-3117.7465L12944.7205,-3118.1534L12945.0806,-3118.2266L12944.5602,-3118.5934L12944.8807,-3119.2133L12945.0897,-3119.2732L12945.2393,-3119.6466L12945.0104,-3119.9333L12944.6503,-3119.9333L12944.5297,-3119.9667L12944.1605,-3118.5532L12943.9102,-3118.5532L12943.7897,-3118.6399L12943.7195,-3118.5934L12943.6401,-3118.3533L12943.6707,-3118.0199L12943.2602,-3117.7267L12943.4097,-3117.5533"/>
<path content="BA010,1,1,JPN" xlink:title="BA010" d="M12947.5296,-3119.5133L12947.4503,-3120.4266L12947.5098,-3120.5133L12947.11,-3121.1201L12947.1405,-3120.6865L12947.0703,-3120.62L12946.8307,-3120.4733L12947.0306,-3120.1733L12947.1802,-3120.0466L12947.4106,-3119.6133L12947.5296,-3119.5133"/>
<path content="BA010,1,1,JPN" xlink:title="BA010" d="M13067.5293,-3127.22L13068.0801,-3127.7065L13068.0801,-3127.7466L13067.5903,-3128.0132L13067.1204,-3127.64L13067.5293,-3127.22"/>
<path content="BA010,1,1,JPN" xlink:title="BA010" d="M12973.9272,-3130.6912L12973.9569,-3130.6843L12973.9988,-3130.6614L12974.0165,-3130.6381L12974.0008,-3130.6352L12973.9654,-3130.6336L12973.9235,-3130.659L12973.9171,-3130.6791L12973.9272,-3130.6912"/>
<path content="BA010,1,1,JPN" xlink:title="BA010" d="M12973.9587,-3130.9313L12973.9995,-3130.9263L12974.0601,-3130.8478L12974.0418,-3130.8103L12973.9887,-3130.8078L12973.9646,-3130.8255L12973.9527,-3130.8508L12973.9527,-3130.8886L12973.9587,-3130.9313"/>
<path content="BA010,1,1,JPN" xlink:title="BA010" d="M13016.1606,-3135.0334L13016.5802,-3135.4801L13016.6397,-3136.0666L13016.7908,-3136.1401L13016.7603,-3136.3466L13015.7501,-3135.4532L13015.8798,-3135.4801L13016.0995,-3135.26L13016.1606,-3135.0334"/>
<path content="BA010,1,1,JPN" xlink:title="BA010" d="M13022.4701,-3139.86L13022.4503,-3140.1867L13021.1197,-3140.4335L13020.1401,-3140.6868L13019.6304,-3140.7734L13019.4901,-3140.7665L13019.0994,-3140.98L13019.0598,-3141.9867L13019.0598,-3142.5734L13019.2108,-3142.8801L13019.0201,-3142.8801L13018.6005,-3142.44L13018.8599,-3142.2934L13018.9499,-3141.9867L13018.8004,-3141.2001L13018.75,-3141L13018.5699,-3141.0067L13018.3899,-3141.3601L13017.9901,-3141.9867L13017.9993,-3142.28L13017.8497,-3142.28L13017.6407,-3141.9867L13017.1005,-3141.8934L13016.9205,-3141.9867L13016.7099,-3143.0799L13016.3101,-3143.7267L13016.1697,-3143.7134L13015.77,-3143.9734L13015.2298,-3143.0733L13014.7202,-3142.9132L13014.0793,-3141.9867L13013.4293,-3141.6468L13013.3804,-3141.54L13013.53,-3141.2867L13013.2294,-3141.2867L13013.2004,-3141.7L13012.7808,-3141.9333L13012.6205,-3141.9867L13012.1796,-3142.2335L13011.9904,-3142.26L13011.7905,-3142.2268L13011.3297,-3142.3201L13010.8505,-3142.0334L13010.8795,-3141.9867L13010.5606,-3141.1867L13010.7498,-3140.9L13011.2396,-3141.4133L13012.0407,-3141.6666L13012.1796,-3141.6L13013.0508,-3141.1333L13013.2797,-3140.8001L13013.9801,-3140.5067L13014.36,-3139.7068L13014.5203,-3139.4001L13014.8605,-3139.0266L13015.3397,-3138.4001L13015.95,-3137.9868L13016.3803,-3137.4001L13016.9601,-3137.3934L13017.4194,-3136.5999L13017.8802,-3136.5467L13018.2907,-3136.54L13018.8202,-3136.7666L13018.84,-3136.7599L13018.9194,-3135.8601L13018.9301,-3135.4467L13019.1803,-3135.4935L13019.5007,-3135.7401L13019.6503,-3135.5333L13019.9402,-3135.8067L13019.8807,-3135.42L13019.96,-3135.3201L13020.05,-3135.3201L13020.3201,-3135.1601L13020.2103,-3134.8467L13020.7199,-3134.86L13020.8908,-3134.6867L13020.8908,-3134.3733L13020.4498,-3134.0467L13020.5399,-3133.6533L13020.0409,-3133.4066L13019.4107,-3132.9533L13018.9301,-3133.1734L13018.7805,-3133.1667L13018.6401,-3133.1934L13018.0298,-3132.9533L13017.9398,-3133.0198L13017.5507,-3132.8001L13017.3004,-3132.3465L13017.6209,-3132.16L13018.0298,-3132.3933L13018.3197,-3132.2266L13018.3594,-3132.1333L13018.75,-3132.1266L13019.0002,-3131.5733L13019.6899,-3131.6465L13020.3506,-3131.5533L13020.52,-3131.4066L13020.3506,-3131.8867L13020.871,-3132.1934L13021.3898,-3131.9866L13021.7102,-3131.5866L13021.7896,-3131.1533L13021.7194,-3130.9732L13022.3206,-3131.04L13022.4503,-3130.4533L13021.9498,-3129.8733L13021.5302,-3130.2599L13021.1197,-3129.9267L13020.9595,-3129.94L13020.1797,-3129.6133L13019.9005,-3129.6932L13019.8608,-3128.8866L13020.0607,-3128.4266L13020.0897,-3128.2L13020.1904,-3128.3066L13020.4498,-3128.3001L13020.7397,-3128.3066L13021.1105,-3128.7666L13021.2906,-3128.9734L13021.5698,-3128.8465L13021.5103,-3128.2133L13022.0306,-3128.2398L13022.6501,-3128.2066L13022.8699,-3128.0466L13022.6395,-3127.7533L13022.5204,-3127.7533L13022.11,-3127.3731L13021.6904,-3127.6667L13021.3806,-3127.3533L13021.4996,-3127.1L13022.0596,-3127.2667L13022.5403,-3127.1799L13022.8104,-3126.7799L13022.6395,-3126.7532L13022.5403,-3126.8332L13022.4106,-3126.6733L13022.2397,-3126.9066L13022.0505,-3126.68L13021.8201,-3126.68L13021.8903,-3126.1932L13021.7697,-3126.1999L13021.55,-3126.1333L13021.4203,-3126.1267L13021.2006,-3125.7267L13021.2006,-3125.4333L13021.3806,-3125.3466L13021.3608,-3125.3199L13021.5195,-3125.1066L13021.4203,-3124.9065L13021.5698,-3124.8466L13021.9406,-3125.2333L13022.0901,-3125.3199L13022.2504,-3125.3199L13022.3694,-3125.1934L13022.5098,-3125L13022.6303,-3125.0999L13022.7997,-3125.3199L13023.23,-3125.5867L13023.3307,-3125.5466L13023.6801,-3125.8865L13024.0006,-3125.7465L13024.0204,-3125.3199L13024.2508,-3125.1999L13024.35,-3125.3199L13024.6506,-3125.3532L13024.6796,-3125.3733L13024.7803,-3125.3199L13024.8199,-3125.3199L13025.3204,-3125.6201L13025.9003,-3125.7133L13026.0101,-3125.6001L13026.12,-3125.5934L13026.6296,-3125.3199L13027.6901,-3124.6599L13028.0807,-3125.3199L13028.1906,-3126.5865L13028.5507,-3126.7199L13028.54,-3126.2533L13029.1901,-3126.1L13028.7003,-3126.2733L13028.7201,-3126.6333L13029.0695,-3126.6132L13029.2099,-3126.7733L13028.6804,-3126.8534L13029.0802,-3126.8932L13029.6097,-3126.7399L13029.3594,-3125.9466L13030.0797,-3126.4534L13030.7098,-3126.6466L13031.5094,-3125.6933L13031.9794,-3125.6065L13032.2998,-3125.5333L13032.4509,-3125.6399L13032.6904,-3125.7198L13032.8094,-3125.4866L13033.2001,-3125.5066L13033.5007,-3125.5066L13033.5297,-3125.6001L13033.7601,-3125.4799L13034.1293,-3125.5333L13034.2606,-3125.4534L13034.5505,-3125.3199L13034.7397,-3125.1999L13034.9808,-3125.1066L13035.3104,-3125.0067L13035.9299,-3125.0933L13036.0504,-3125.3199L13036.1298,-3125.4734L13036.0992,-3125.3199L13036.3403,-3125.12L13036.6501,-3125.1066L13036.7706,-3125.1667L13037.1796,-3125.0999L13038.1302,-3125.2132L13038.2996,-3125.2733L13038.2507,-3125.3199L13038.2996,-3125.3199L13038.7802,-3125.0933L13038.9801,-3125.1865L13038.9801,-3125.3199L13038.9603,-3125.4932L13039.2303,-3125.3199L13039.3906,-3125.12L13039.4897,-3125.2933L13039.8895,-3125.0601L13039.9704,-3125.1534L13040.0803,-3125.0601L13040.2008,-3125.2066L13040.1306,-3125.3199L13040.2008,-3125.3199L13040.4404,-3125.0465L13040.4495,-3125L13040.6403,-3125.1066L13040.9409,-3125.12L13040.9897,-3125.28L13041.1194,-3125.1734L13041.0904,-3124.8199L13041.2003,-3124.9533L13041.51,-3125.0534L13041.51,-3124.8531L13041.7404,-3124.9666L13041.7999,-3124.8199L13042.0898,-3124.7334L13042.45,-3124.72L13042.4698,-3124.9065L13042.6697,-3124.7267L13042.7902,-3124.7665L13042.9504,-3124.6201L13043.0099,-3124.6332L13043.2999,-3124.6134L13043.3594,-3124.7932L13043.4494,-3125.0134L13043.5501,-3125.2998L13043.8202,-3125.0666L13043.8507,-3125.12L13044.0094,-3125.0866L13044.0094,-3124.88L13044.1803,-3125.0267L13044.5099,-3125.2533L13044.8196,-3125.1467L13045.5704,-3125.0332L13046.2296,-3124.9866L13048.14,-3123.9599L13049.6796,-3122.5866L13050.7507,-3121.3066L13051.4297,-3119.7266L13050.7004,-3119.2667L13050.8499,-3118.0265L13050.5707,-3117.7532L13051.3702,-3116.9867L13051.9699,-3116.5133L13053.0396,-3116.3733L13053.6407,-3116.5731L13054.1306,-3116.7532L13054.3808,-3116.9867L13055.1208,-3117.4599L13055.4306,-3117.8066L13056.2698,-3117.56L13057.1899,-3116.9867L13058.6395,-3115.7932L13058.6197,-3115.5867"/>
<path content="BA010,1,1,JPN" xlink:title="BA010" d="M13072.0901,-3161.4267L13072.4304,-3162.0399L13072.2595,-3162.08L13072.0505,-3161.5732L13072.0901,-3161.4267"/>
<path content="BA010,1,1,JPN" xlink:title="BA010" d="M13066.0599,-3099.42L13066.1102,-3099.5533L13066.2094,-3099.7734L13066.6397,-3099.7467L13066.6,-3100.3201L13066.8594,-3100.8667L13067.4194,-3100.84L13067.5201,-3100.6666L13067.6697,-3100.7334L13067.9794,-3100.3201L13068.1396,-3100.3201L13068.2602,-3100.6401L13068.7408,-3101.6132L13068.4006,-3102.0401L13068.2602,-3102.3733L13068.6005,-3102.5665L13068.9102,-3102.3933L13068.9896,-3102.2133L13069.6396,-3102.3199L13069.96,-3102.7666L13070.3796,-3102.8133L13070.7397,-3103.08L13070.9808,-3103.0001L13071.2204,-3102.8999L13071.6003,-3102.6533L13071.6202,-3103.0001L13071.7194,-3103.1334L13071.6095,-3103.4401L13071.4096,-3103.3934L13071.3104,-3103.7666L13071.55,-3103.7132L13071.5607,-3104.2198L13071.6904,-3104.5134L13071.991,-3104.4666L13072.1405,-3104.4666L13072.6395,-3104.6598L13073.3902,-3104.9067L13073.8907,-3105.1199L13074.2508,-3105.3133L13074.3805,-3105.9L13074.6796,-3106.0534L13075.3601,-3105.9999L13075.5005,-3105.7467L13075.9796,-3105.4934L13076.1597,-3106.1867L13076.3809,-3106.3467L13076.9104,-3106.6L13077.5406,-3106.6067L13078.125,-3106.8725"/>
<path content="BA010,1,1,JPN" xlink:title="BA010" d="M13071.3196,-3169.8933L13071.3898,-3169.9533L13071.3409,-3170.1067L13071.0999,-3170.1134L13071.3196,-3169.8933"/>
<path content="BA010,1,1,JPN" xlink:title="BA010" d="M13058.6197,-3115.5867L13058.9005,-3116.0666L13059.2194,-3116.2399L13059.4498,-3116.1467L13059.5505,-3116.2132L13059.4498,-3116.4066L13059.1003,-3116.5001L13058.8501,-3116.6599L13058.7097,-3116.9867L13059.3796,-3117.8534L13060.5896,-3118.2867L13062.1796,-3118.1334L13062.6404,-3118.1467L13063.0402,-3118.4334L13063.5406,-3118.6399L13063.9298,-3119.1267L13064.1296,-3119.5467L13064.36,-3119.9598L13064.4897,-3120.22L13064.1998,-3120.5801L13064.0106,-3120.5534L13063.53,-3120.9799L13063.5208,-3120.6266L13063.2202,-3120.0266L13062.7197,-3120.3266L13062.8906,-3120.7399L13063.0096,-3121.1466L13063.8901,-3121.6L13064.8407,-3121.66L13065.4907,-3121.7733L13065.6097,-3122.2666L13064.8407,-3123.7865L13064.9399,-3123.98L13065.0894,-3124.1199L13064.8605,-3124.1667L13065.5701,-3125.3199L13066.0507,-3126.0401L13066.6702,-3126.6733L13065.8798,-3126.6132L13065.8096,-3127.0733L13063.4598,-3127.1465L13062.1796,-3127.5532L13061.7706,-3127.9533L13061.731,-3128.1067L13060.5606,-3129.1201L13059.4894,-3129.3934L13058.8196,-3130.2732L13058.3206,-3130.4066L13057.0404,-3131.3801L13056.1508,-3132.9199L13055.9097,-3133.6533L13054.5105,-3137.66L13054.6906,-3137.8267L13054.5105,-3137.7933L13054.1107,-3138.5601L13054.6997,-3137.9534L13055.7098,-3138.5601L13054.8401,-3139.62L13053.8101,-3139.06L13053.6407,-3139.2334L13053.8605,-3139.3534L13053.6102,-3139.6732L13053.3997,-3139.4535L13052.7908,-3140.6601L13052.4506,-3141.3668L13052.2903,-3141.9867L13052.0493,-3143.0933L13052.0203,-3143.3933L13051.6495,-3144.1866L13051.6907,-3144.92L13051.3596,-3145.5L13051.4603,-3145.6734L13051.3107,-3145.6667L13051.4297,-3146.04L13051.1703,-3146.34L13051.3504,-3146.64L13051.4603,-3146.4001L13053.1204,-3146.2267L13053.1693,-3146.9801L13051.8295,-3147.1333L13051.86,-3147.3534L13051.6006,-3147.3801L13051.6205,-3147.7133L13051.2192,-3147.76L13051.3794,-3148.2332L13051.68,-3148.2067L13051.7105,-3148.3667L13051.3702,-3148.5733L13051.4206,-3148.76L13051.8799,-3148.5268L13051.8707,-3148.74L13051.2695,-3149.0534L13051.3596,-3149.3868L13051.8097,-3148.98L13051.9806,-3149.2067L13052.33,-3149.02L13052.4704,-3148.4667L13053.0304,-3148.3999L13053.2898,-3150.0933L13052.9205,-3150.0933L13052.0798,-3150.3201L13051.8799,-3150.3201L13051.7593,-3150.3201L13052.0706,-3150.9068L13053.2196,-3150.6866L13053.6102,-3151.9535L13053.3096,-3152.22L13053.1204,-3152.1868L13052.71,-3152.3268L13052.8,-3152.4601L13053.7598,-3152.2133L13054.3198,-3153.3466L13054.1306,-3153.4201L13053.8193,-3152.7933L13053.4897,-3152.8933L13053.9108,-3153.5734L13053.6301,-3153.3199L13054.1504,-3153.9333L13054.5105,-3153.7399L13054.7195,-3154.3867L13054.4403,-3154.5401L13054.6707,-3154.9L13054.9408,-3154.8L13055.0903,-3154.5334L13055.3497,-3154.6467L13055.2795,-3154.8065L13055.7907,-3154.6267L13056.0104,-3155.8001L13056.1996,-3155.7467L13056.7505,-3157.1533L13056.5506,-3157.2599L13056.6406,-3157.3801L13056.8695,-3157.3267L13056.9397,-3158.0734L13056.3995,-3157.8733L13056.5399,-3158.4467L13056.9794,-3158.32L13056.6803,-3158.6533L13056.5002,-3158.82L13056.5109,-3158.6533L13056.4301,-3158.58L13056.4194,-3158.6533L13056.2897,-3158.6533L13056.1996,-3158.56L13056.1905,-3158.6533L13056.1508,-3159.1667L13056.0699,-3159.5667L13056.6605,-3160.2266L13056.7795,-3160.12L13057.0099,-3160.3666L13057.1899,-3160.3132L13057.4493,-3161.2267L13057.6706,-3161.6934L13058.3893,-3161.9801L13059.1309,-3162.4468L13060.1395,-3163.1533L13060.3699,-3164.6534L13061.1206,-3165.5468L13061.7996,-3165.6534L13061.7996,-3165.9L13061.3907,-3166.3799L13061.1496,-3166.9867L13061.0504,-3167.26L13060.8902,-3168.2734L13061.38,-3169.3335L13061.5097,-3169.9533L13062.1796,-3170.82L13062.7396,-3171.3068L13063.3301,-3171.1067L13064.3494,-3171.8534L13065.9302,-3172.8334L13066.4795,-3172.9401L13067.1097,-3172.8001L13067.1204,-3172.7667L13067.5705,-3173.0135L13068.6096,-3173.4467L13068.6707,-3173.5001L13069.2993,-3173.1667L13069.5007,-3172.88L13070.61,-3172.5401L13071.64,-3172.7667L13071.6202,-3172.4268L13072.3099,-3171.78L13072.6105,-3171.8067L13072.8806,-3172.4667L13072.9599,-3172.2666L13072.7798,-3171.5334L13073.0194,-3170.9267L13073.7,-3170.6734L13073.79,-3171.0001L13074.3698,-3170.8799L13074.6796,-3170.8668L13075.5005,-3170.64L13076.6907,-3170.7268L13076.9196,-3170.5L13077.3499,-3170.3667L13078.0396,-3170.2734L13078.125,-3170.2914M13078.125,-3157.9958L13077.4902,-3157.1867L13076.6998,-3156.6133L13076.4206,-3156.2334L13074.8001,-3155.78L13074.6796,-3155.8268L13074.1501,-3155.8334L13073.8693,-3155.8399L13073.7,-3155.8334L13073.3994,-3155.8468L13072.5098,-3155.7066L13071.5897,-3155.7335L13071.08,-3155.7266L13070.8008,-3155.7467L13070.5704,-3155.6868L13071.8994,-3156.1666L13071.9498,-3156.5599L13071.5408,-3156.5001L13071.4096,-3156.6801L13071.0098,-3156.62L13071.3501,-3157.1133L13071.3409,-3157.3133L13071.4905,-3157.48L13071.1609,-3157.6933L13070.8603,-3157.88L13070.8801,-3158.14L13070.8206,-3158.2333L13071.2006,-3158.2067L13071.3898,-3158.42L13071.6095,-3158.6533L13071.73,-3159.16L13071.5897,-3159.3065L13071.1899,-3159.4334L13070.9503,-3159.8333L13071.0007,-3159.9333L13071.2006,-3159.8467L13071.4005,-3160.0134L13071.5698,-3160.2867L13070.9198,-3160.5L13070.6696,-3160.94L13070.7703,-3161.1668L13070.05,-3161.5267L13069.9005,-3161.8668L13069.7403,-3162.1933L13069.5999,-3162.2999L13069.5206,-3162.48L13069.2596,-3162.3333L13069.0796,-3162.4201L13068.8705,-3162.3199L13068.5303,-3162.2067L13068.4006,-3162.1201L13068.1503,-3162.4666L13067.7093,-3162.9133L13067.2806,-3162.4733L13066.7496,-3162.7199L13066.2399,-3162.6066L13065.9805,-3162.6133L13065.0406,-3162.3466L13064.1602,-3162.0399L13063.8504,-3162.0535L13063.7009,-3162.0733L13063.5101,-3162.0466L13062.6999,-3162.1L13062.1796,-3161.8067L13061.0199,-3160.7267L13060.4996,-3159.6933L13060.1196,-3159.68L13059.8297,-3159.7L13059.8602,-3159.1932L13059.6802,-3159.1867L13059.52,-3159.1932L13059.1202,-3158.9867L13059.05,-3158.6533L13059.23,-3158L13059.6008,-3157.9401L13059.7305,-3158.0133L13059.8801,-3157.5535L13060.2707,-3157.3668L13060.7605,-3157.3734L13061.1099,-3156.7934L13061.5005,-3156.2733L13061.9598,-3156.04L13062.0804,-3155.3667L13062.1796,-3155.3066L13062.41,-3155.2532L13062.7106,-3155.6601L13063.1897,-3155.2668L13063.3804,-3155.0135L13063.6093,-3154.5868L13063.9999,-3154.5601L13064.1998,-3154.6734L13064.5294,-3154.7667L13064.7507,-3154.9601L13066.3895,-3155.2601L13066.6107,-3155.2935L13066.6992,-3155.2267L13066.9403,-3155.1332L13067.1295,-3155.0467L13067.1494,-3155.0467L13067.2806,-3154.8668L13067.45,-3155.1666L13067.5507,-3155.2799L13067.6407,-3154.8468L13067.5507,-3154.78L13067.63,-3154.4867L13067.6697,-3154.5067L13067.7307,-3154.4399L13067.8604,-3154.4735L13067.9703,-3154.4201L13068.1396,-3154.5134L13068.2007,-3154.4666L13068.3807,-3154.5933L13068.4998,-3154.7733L13068.6905,-3154.8134L13068.6798,-3154.8733L13068.7302,-3155.1468L13068.4799,-3155.2868L13068.7195,-3155.2868L13068.8904,-3155.2L13069.4397,-3155.16L13069.3909,-3155.4667L13069.7403,-3155.5265L13070.5505,-3154.2601L13070.5902,-3153.8267L13070.5002,-3153.0132L13069.9295,-3152.8999L13069.7601,-3152.8667L13069.5908,-3151.4467L13069.5602,-3150.6666L13069.6106,-3150.3201L13069.5602,-3149.6933L13069.4794,-3149.7665L13069.7403,-3149.46L13069.0506,-3148.8134L13069.3802,-3148.6401L13069.7601,-3146.2868L13070.5902,-3145.8067L13072.7402,-3145.1868L13073.5001,-3144.5667L13073.7,-3144.1933L13074.6796,-3143.3067L13075.6699,-3142.1267L13075.6897,-3141.9867L13075.9308,-3141.3733L13076.2299,-3140.9735L13076.561,-3140.5001L13076.4404,-3140.5132L13076.1703,-3140.28L13076.4801,-3140.2201L13076.59,-3140.3999L13076.6602,-3140.1133L13076.9608,-3138.9067L13077.0599,-3138.7667L13077.4704,-3138.5601L13077.6001,-3138.08L13077.9495,-3137.48L13077.7802,-3137.1332L13078.125,-3136.719M13078.125,-3124.3949L13077.2095,-3123.7799L13076.6907,-3122.4934L13076.1703,-3121.76L13076.2207,-3121.4666L13076.03,-3121.46L13075.7706,-3121.6665L13075.2899,-3121.0266L13075.3708,-3119.9999L13075.5203,-3119.7599L13075.7309,-3119.5932L13076.3199,-3118.9533L13076.5503,-3117.96L13075.9308,-3116.9867L13074.6994,-3113.9801L13074.6796,-3113.9465L13074.1699,-3113.06L13073.1003,-3111.7466L13072.11,-3111.4466L13071.2997,-3111.4532L13069.6594,-3109.8866L13069.1803,-3109.6867L13069.0002,-3109.5865L13068.8705,-3109.58L13068.6493,-3109.68L13068.5196,-3109.3466L13068.2602,-3108.9066L13067.0593,-3108.6533L13066.3498,-3108.0799L13065.2908,-3106.9399L13065.8295,-3107.0734L13066.1804,-3106.9733L13066.4108,-3106.86L13066.5192,-3106.7867L13066.8594,-3106.8001L13066.9907,-3106.5933L13067.3401,-3106.5399L13067.2394,-3106.32L13067.5995,-3106.2666L13067.6102,-3106.1199L13067.5095,-3105.9732L13067.6407,-3105.9399L13067.4301,-3105.8201L13067.1906,-3105.6799L13067.3004,-3105.5933L13067.4408,-3105.64L13067.5293,-3105.3066L13067.7902,-3105.2866L13067.5293,-3104.9599L13067.4408,-3104.4132L13067.4408,-3104.2133L13067.7002,-3104.2534L13067.6498,-3104.0466L13067.5293,-3103.7466L13067.4408,-3103.2267L13067.2897,-3102.8933L13067.1005,-3102.4933L13066.7709,-3102.2467L13066.3895,-3101.5333L13066.3498,-3101.4198L13066.2003,-3101.2466L13066.4001,-3101.1333L13065.8203,-3100.7334L13065.5502,-3100.5266L13065.5701,-3100.3201L13065.5502,-3100.1467L13065.6799,-3099.7398L13065.8096,-3099.5666L13066.0599,-3099.42"/>
<path content="BA010,1,1,JPN" xlink:title="BA010" d="M12971.2906,-3162.1599L12971.5103,-3162.8933L12971.4294,-3163.0934L12971.4996,-3163.1468L12971.1395,-3163.1866L12971.1105,-3163.2L12971.1792,-3163.36L12971.64,-3163.36L12971.6797,-3163.2868L12971.6797,-3163.3667L12971.8597,-3163.8733L12971.9803,-3163.9601L12972.6105,-3164.2799L12972.6898,-3164.44L12972.6196,-3164.8733L12972.8104,-3164.8867L12973.7106,-3165.5201L12973.5107,-3165.7467L12972.5098,-3166.14L12972.4197,-3166.9867L12972.9706,-3167.6733L12973.7198,-3168.4134L12973.79,-3168.6867L12974.2401,-3168.6867L12974.2798,-3169.6733L12973.8297,-3169.78L12973.7701,-3170.4401L12974.4598,-3171.2267L12974.6796,-3171.5935L12975.09,-3171.78L12975.6104,-3171.6333L12975.7996,-3170.9734L12976.8692,-3171.3467L12977.2903,-3172.4001L12977.5604,-3172.9401L12977.6505,-3173.4333L12977.9099,-3173.6933L12977.7603,-3174.4333L12978.4393,-3174.7734L12978.8193,-3175.1467L12978.7903,-3175.3201L12978.9597,-3175.8667L12979.39,-3176.1534L12979.9896,-3176.1667L12979.95,-3176.54L12979.5105,-3176.8333L12979.5197,-3177.3268L12979.2404,-3177.7201L12979.6799,-3178.2333L12980.2307,-3178.2467L12980.3299,-3178.22L12979.8798,-3178.5467L12979.0192,-3178.4334L12978.7094,-3178.7132L12978.5507,-3179.0333L12978.1006,-3179.0733L12978.2806,-3178.7666L12978.4897,-3178.4933L12978.4897,-3178.1267L12978.3905,-3177.8465L12978.0701,-3177.4532L12978.8101,-3176.9333L12978.7201,-3176.66L12978.3798,-3176.24L12978.3295,-3175.9933L12977.9694,-3175.7933L12977.4399,-3175.8066L12977.4597,-3175.4801L12977.6306,-3175.4601L12977.8503,-3175.3201L12977.89,-3175.0067L12977.6001,-3174.6067L12977.3605,-3174.04L12977.1194,-3174.0267L12976.5305,-3174.3532L12976.3702,-3174.0467L12976.1002,-3173.7L12975.5997,-3173.76L12975.6393,-3173.6868L12975.4303,-3173.4667L12975.1999,-3173.5933L12974.9893,-3173.4533L12974.8398,-3173.7667L12974.6796,-3173.7667L12973.9792,-3173.42L12973.5504,-3173.1333L12973.3704,-3173.1333L12972.7997,-3172.9334L12972.1695,-3172.7533L12971.7194,-3172.76L12970.6406,-3172.3066L12970.4407,-3172.1001L12970.5597,-3171.9801L12970.3293,-3171.8866L12970.1599,-3171.8866L12969.9905,-3171.7535L12969.6304,-3171.5466L12970.0699,-3170.9667L12969.9799,-3170.6068L12969.5892,-3170.5732L12969.4595,-3170.5732L12969.0491,-3170.2866L12968.9102,-3170.2866L12968.75,-3170.2932L12968.9896,-3170.0068L12969.1895,-3169.1067L12968.8095,-3168.8267L12968.3502,-3167.9199L12968.1107,-3167.16L12967.9504,-3166.9867L12967.5903,-3166.6201L12968.1198,-3166.3265L12967.7002,-3166.0999L12967.5796,-3166.1467L12966.9495,-3166.0267L12966.6397,-3166.2666L12965.7104,-3165.8533L12965.86,-3165.0066L12966.5298,-3163.8599L12966.4993,-3163.4268L12967.2104,-3163.66L12967.5003,-3163.2935L12968.0801,-3163.2467L12968.3701,-3162.6867L12968.28,-3162.4134L12968.4296,-3162.2133L12968.5196,-3162.2601L12968.84,-3162.1599L12969.2398,-3162.2734L12969.6899,-3162.3667L12969.8395,-3162.64L12969.6594,-3163.1067L12969.7494,-3163.4201L12970.5704,-3163.6667L12971.0098,-3163.3467L12971.0297,-3162.4399L12971.2906,-3162.1599"/>
<path content="BA010,1,1,JPN" xlink:title="BA010" d="M12982.7698,-3177.4668L12983.0994,-3178.1933L12983.1299,-3178.3466L12982.9895,-3178.3533L12982.4493,-3178.64L12982.4905,-3178.9734L12983.0093,-3179.2467L12983.5495,-3179.7466L12984.1202,-3179.6467L12984.4803,-3180.1201L12984.3491,-3180.1733L12984.0591,-3180.04L12983.9096,-3180.2401L12983.7097,-3180.32L12983.5693,-3180.6999L12984.1904,-3181.3L12983.8104,-3181.8933L12982.4997,-3181.4266L12981.9794,-3181.2666L12981.7398,-3180.1268L12981.2393,-3179.9L12981.0303,-3179.9L12981.5201,-3179.0068L12981.4697,-3178.48L12981.7307,-3178.36L12981.6193,-3177.8734L12982.1198,-3177.8667L12982.2906,-3177.4799L12982.7698,-3177.4668"/>
<path content="BA010,1,1,JPN" xlink:title="BA010" d="M12984.05,-3182.04L12984.1797,-3182.3334L12984.4101,-3182.9067L12983.8699,-3182.6799L12983.5495,-3182.5201L12983.8699,-3182.1667L12984.05,-3182.04"/>
<path content="BA010,1,1,JPN" xlink:title="BA010" d="M12997.6395,-3186.06L12997.7295,-3186.1401L12997.6898,-3186.2333L12997.5296,-3186.22L12997.3602,-3186.2467L12997.6395,-3186.06"/>
<path content="BA010,1,1,JPN" xlink:title="BA010" d="M12995.8405,-3186.4468L12996.2692,-3186.5732L12995.99,-3186.6734L12995.7703,-3186.6867L12995.8405,-3186.4468"/>
<path content="BA010,1,1,JPN" xlink:title="BA010" d="M12993.0695,-3186.6333L12993.9301,-3186.8465L12993.7897,-3187.0001L12993.6493,-3187.0266L12993.0695,-3186.6333"/>
<path content="BA010,1,1,JPN" xlink:title="BA010" d="M12987.1292,-3180.06L12987.1796,-3180.1468L12987.9303,-3180.7667L12988.4995,-3181.1068L12989.0396,-3181.1666L12989.1098,-3181.18L12989.9399,-3181.3934L12990.1993,-3182.2001L12990.3305,-3182.48L12990.6693,-3182.0601L12990.86,-3182.0601L12991.4001,-3182.1733L12991.8594,-3181.6668L12992.6605,-3182.1333L12992.9504,-3182.6933L12993.0496,-3183.6534L12992.3904,-3183.8734L12991.9098,-3184.0334L12992.1097,-3184.7601L12992.2195,-3184.5867L12992.3203,-3184.7668L12993.0695,-3184.9934L12992.7902,-3185.6733L12992.8192,-3185.94L12992.3004,-3186.24L12992.5903,-3186.6333L12993.1,-3186.4933L12992.9108,-3186.64L12992.5903,-3186.8532L12991.8594,-3186.7468L12991.4597,-3186.7067L12990.7394,-3186.9867L12990.4404,-3186.6734L12990.8493,-3186.52L12991.0294,-3186.1799L12990.8005,-3185.84L12991.0004,-3185.4868L12991.8304,-3185.1334L12991.5802,-3184.56L12990.9393,-3184.28L12989.7705,-3184.7334L12989.3494,-3185.38L12988.8596,-3185.3933L12988.6993,-3185.3867L12987.9807,-3185.8934L12987.1796,-3186.8532L12986.0596,-3187.8601L12985.0403,-3188.2732L12983.8104,-3188.1866L12983.4503,-3188.2067L12982.4005,-3186.4201L12981.6895,-3186.1265L12981.7505,-3185.7401L12981.8207,-3185.36L12981.7993,-3184.9199L12982.0496,-3184.7868L12982.0297,-3184.3735L12982.2906,-3184.2001L12982.7393,-3184.2934L12983.1299,-3183.7866L12983.49,-3183.7866L12983.3496,-3184.8801L12983.4,-3185.3733L12983.7494,-3185.8L12983.7906,-3186.2667L12984.1904,-3186.9667L12984.3292,-3186.9133L12984.3201,-3186.4267L12984.23,-3186.0067L12984.3201,-3185.7067L12984.5703,-3185.6199L12984.6802,-3185.5333L12985.17,-3185.3867L12986.2305,-3185.9467L12986.4304,-3185.8934L12985.9802,-3185.5333L12985.6903,-3185.3132L12985.9207,-3185.2133L12985.6201,-3185.1999L12985.3699,-3185.1999L12984.8999,-3185.1067L12984.7992,-3185.1534L12984.6893,-3185.1334L12984.5596,-3185.14L12984.3796,-3185.1133L12984.0698,-3185.3132L12984.1095,-3184.9533L12984.3399,-3184.6867L12984.4299,-3184.5266L12984.7992,-3184.0935L12984.7992,-3183.6534L12984.4894,-3182.98L12985.5392,-3183.6534L12985.8994,-3183.7133L12985.9894,-3183.6534L12986.2,-3183.4333L12986.4304,-3183.3134L12986.5097,-3183.2867L12986.1298,-3183.1266L12985.8795,-3182.5068L12985.6491,-3182.1466L12986.4594,-3181.9201L12986.7996,-3182.2001L12987.1796,-3182.0667L12987.1796,-3181.5933L12987.1292,-3181.1001L12987.1796,-3181.0734L12987.2604,-3180.6601L12987.1796,-3180.6067L12987.1292,-3180.06"/>
<path content="BA010,1,1,JPN" xlink:title="BA010" d="M13016.4505,-3202.1133L13017.0502,-3202.2469L13016.9907,-3202.5932L13016.9495,-3202.5932L13016.6199,-3202.5799L13016.3696,-3202.8866L13016.2003,-3202.7267L13016.1499,-3202.5799L13016.42,-3202.5734L13016.4505,-3202.1133"/>
<path content="BA010,1,1,JPN" xlink:title="BA010" d="M13016.0797,-3203.22L13016.2003,-3203.5999L13016.1896,-3203.6667L13016.1697,-3203.7334L13016.0797,-3203.22"/>
<path content="BA010,1,1,JPN" xlink:title="BA010" d="M13015.6601,-3208.58L13015.6998,-3208.6533L13015.5594,-3208.7334L13015.6006,-3208.6533L13015.6601,-3208.58"/>
<path content="BA010,1,1,JPN" xlink:title="BA010" d="M12997.3801,-3214.4333L12997.3099,-3214.5267L12997.2504,-3214.9067L12997.11,-3214.46L12997.3801,-3214.4333"/>
<path content="BA010,1,1,JPN" xlink:title="BA010" d="M13004.4693,-3215.3332L13004.4403,-3215.4133L13004.2206,-3215.4469L13004.1397,-3215.8134L13004.0497,-3215.3866L13004.4693,-3215.3332"/>
<path content="BA010,1,1,JPN" xlink:title="BA010" d="M13005.2109,-3216.1999L13005.5496,-3216.2468L13005.3604,-3216.46L13005.1102,-3216.9468L13005.2109,-3216.1999"/>
<path content="BA010,1,1,JPN" xlink:title="BA010" d="M13004.7699,-3217.4065L13004.66,-3217.58L13004.5303,-3217.7601L13004.1397,-3217.8532L13004.7699,-3217.4065"/>
<path content="BA010,1,1,JPN" xlink:title="BA010" d="M13001.2894,-3218.2869L13001.4694,-3218.2999L13001.4908,-3218.6268L13001.3397,-3218.6268L13001.2894,-3218.2869"/>
<path content="BA010,1,1,JPN" xlink:title="BA010" d="M12997.2595,-3217.7269L12996.9193,-3218.42L12996.6492,-3218.5665L12996.3196,-3218.66L12996.4798,-3218.0935L12996.9696,-3217.86L12997.2595,-3217.7269"/>
<path content="BA010,1,1,JPN" xlink:title="BA010" d="M13004.6097,-3215.6666L13004.4098,-3216.0934L13004.3503,-3216.2735L13004.5502,-3216.4734L13004.5105,-3216.7L13004.7104,-3216.6332L13004.6295,-3216.9868L13004.4495,-3217.2333L13004.2908,-3217.2066L13003.1692,-3217.9867L13003.3295,-3218.1267L13003.5202,-3218.14L13003.7704,-3217.8799L13003.8193,-3218.3601L13003.4897,-3218.3266L13003.1204,-3218.8465L13003.0396,-3218.9533L13002.89,-3218.9533L13002.6306,-3218.9335L13002.6001,-3219.08L13002.3499,-3218.8599L13002.0905,-3218.6867L13002.0905,-3218.5799L13001.8906,-3218.6001L13002.3209,-3218.0534L13002.0706,-3217.9199L13001.7899,-3218.0069L13001.68,-3217.5266L13002.0493,-3217.2932L13001.6296,-3217.1799L13001.4801,-3217.1799L13001.4999,-3216.9868L13001.6006,-3216.6599L13001.6205,-3216.3265L13001.6403,-3216.2468L13002.0203,-3215.8932L13002.3102,-3216.9868L13002.6794,-3217.4469L13003.1296,-3217.4801L13003.5995,-3216.9868L13003.92,-3216.4265L13004.6097,-3215.6666"/>
<path content="BA010,1,1,JPN" xlink:title="BA010" d="M13036.2396,-3219.4401L13036.7996,-3220.0001L13036.6699,-3219.9669L13036.5204,-3219.96L13036.3495,-3219.9734L13036.0199,-3219.6266L13036.2396,-3219.4401"/>
<path content="BA010,1,1,JPN" xlink:title="BA010" d="M13007.0801,-3219.4L13007.4707,-3219.54L13007.8094,-3219.5469L13008.0902,-3219.8334L13007.8598,-3220.1401L13007.7301,-3220.1199L13006.9092,-3219.54L13007.0801,-3219.4"/>
<path content="BA010,1,1,JPN" xlink:title="BA010" d="M12996.9696,-3220.0932L12997.2595,-3220.3266L12997.4899,-3220.6734L12997.4396,-3220.7134L12997.1893,-3220.7333L12996.9696,-3220.0932"/>
<path content="BA010,1,1,JPN" xlink:title="BA010" d="M13021.5607,-3222.3934L13021.7896,-3222.5468L13021.8796,-3222.7535L13021.5103,-3222.4934L13021.5607,-3222.3934"/>
<path content="BA010,1,1,JPN" xlink:title="BA010" d="M13017.8604,-3222.5266L13018.1198,-3222.6734L13018.0695,-3222.76L13017.9306,-3222.7535L13017.8604,-3222.5266"/>
<path content="BA010,1,1,JPN" xlink:title="BA010" d="M13015.7806,-3208.9802L13015.95,-3209.0935L13016.3208,-3209.0935L13016.8106,-3209.4933L13016.6397,-3209.8331L13016.7801,-3210.3466L13016.7908,-3210.5331L13016.9708,-3210.5469L13017.1906,-3210.82L13017.0197,-3210.96L13017.4805,-3211.2934L13017.5797,-3211.8134L13017.6697,-3211.7733L13017.6498,-3212.3531L13017.3004,-3212.6534L13017.1494,-3212.9536L13017.1005,-3213.4068L13017.3401,-3213.6066L13017.4606,-3213.0066L13017.6605,-3212.7934L13017.8696,-3213.7135L13018.4402,-3214.0598L13019.4199,-3214.7934L13020.4498,-3214.8998L13020.8603,-3215.5602L13020.5002,-3216.2468L13020.2209,-3216.5932L13020.34,-3216.9601L13019.6198,-3216.74L13019.6701,-3216.9868L13019.4,-3217.1265L13019.3497,-3216.9868L13019.3207,-3216.4135L13018.8507,-3216.3002L13018.7897,-3216.4532L13018.4494,-3216.4333L13018.6005,-3216.7999L13018.5898,-3216.9868L13018.4708,-3217.6601L13018.1305,-3217.6399L13018.7698,-3218.8L13018.6295,-3219.0533L13019.2307,-3219.0334L13019.96,-3219.7468L13019.7006,-3219.7601L13019.1895,-3219.8734L13019.0308,-3219.8002L13018.75,-3220.3335L13018.6203,-3220.4334L13018.5501,-3220.8332L13018.4708,-3221.3734L13017.7795,-3222.0135L13017.54,-3222.1066L13017.4103,-3222.5468L13017.4194,-3222.9134L13016.7603,-3222.4201L13016.5894,-3222.48L13016.3605,-3222.0268L13016.5894,-3221.7468L13016.3696,-3221.4001L13016.2598,-3221.2269L13016.0095,-3221.3001L13015.95,-3221.4134L13015.9607,-3221.8601L13015.9393,-3221.9933L13015.6601,-3222.62L13015.4709,-3222.6131L13015.3503,-3222.8065L13015.2405,-3222.6734L13015.3793,-3222.2534L13015.4404,-3222.1268L13015.1596,-3222.1733L13015.3198,-3222.0333L13015.2206,-3221.8067L13015.4602,-3221.6202L13015.2298,-3221.36L13014.4608,-3221.6736L13014.8102,-3221.0068L13014.9506,-3220.7199L13015.5792,-3220.4136L13015.7593,-3220.3934L13015.48,-3219.9867L13015.6204,-3219.5267L13015.2695,-3219.9467L13015.0497,-3220.2732L13014.6896,-3220.5002L13014.2807,-3220.6532L13014.2502,-3220.7932L13013.7009,-3221.3531L13013.2202,-3221.5199L13012.9593,-3221.5801L13012.8296,-3221.5069L13012.4893,-3221.5733L13012.8906,-3221.0468L13012.2604,-3221.2734L13012.1796,-3221.2135L13012.0499,-3221.22L13011.6104,-3221.5L13010.8398,-3221.5668L13010.6201,-3221.46L13010.4706,-3220.9469L13010.9802,-3220.9064L13011.1008,-3220.6799L13010.9406,-3220.6867L13010.4004,-3220.4266L13011.2595,-3220.1935L13011.4594,-3220.2065L13012.1796,-3220.0733L13012.1796,-3220.0134L13011.0199,-3219.9333L13010.7407,-3219.9333L13010.6903,-3219.7399L13011.3403,-3219.3733L13010.2005,-3219.36L13009.8495,-3219.4267L13009.7305,-3219.2734L13010.73,-3219.0201L13010.8398,-3218.9869L13010.8093,-3218.7L13010.2295,-3218.8267L13010.1807,-3218.7599L13009.9899,-3218.9335L13009.3704,-3218.8L13009.61,-3218.5799L13009.0103,-3218L13009.7305,-3218.0134L13009.6695,-3217.7666L13009.8694,-3217.4599L13009.7809,-3217.2802L13010.4507,-3217.3466L13010.8597,-3216.9868L13010.7697,-3216.0534L13011.4899,-3215.6532L13011.3693,-3215.3667L13011.5601,-3214.8731L13011.2503,-3214.3665L13011.1694,-3214.2467L13011.5494,-3213.7333L13011.0703,-3212.5801L13011.7706,-3212.1132L13011.9202,-3211.7931L13012.1796,-3211.7867L13013.0402,-3211.1465L13013.1699,-3210.9135L13013.62,-3210.6201L13013.8794,-3210.54L13014.0305,-3210.82L13014.8697,-3210.2467L13014.9796,-3209.84L13014.8697,-3209.3666L13015.1306,-3209.2533L13015.3702,-3209.1732L13015.5502,-3209.0069L13015.7806,-3208.9802"/>
<path content="BA010,1,1,JPN" xlink:title="BA010" d="M13020.3796,-3220.4266L13021.0297,-3221.3066L13020.9793,-3222.0333L13020.5399,-3221.7335L13020.4605,-3221.9467L13020.871,-3222.3999L13020.4697,-3222.5533L13020.0806,-3222.9065L13020.1004,-3223.4669L13019.9097,-3224.0269L13019.3298,-3224.3935L13019.3207,-3223.8731L13019.5908,-3223.0999L13019.5404,-3222.6536L13019.4702,-3222.6131L13019.2703,-3222.6265L13019.0598,-3222.1935L13018.7607,-3222.3068L13018.7805,-3221.9601L13019.4901,-3221.6534L13019.5404,-3221.1864L13020.0699,-3220.8L13019.9997,-3221.1399L13019.6503,-3221.6866L13020.7306,-3221.1666L13020.4193,-3220.8L13020.3796,-3220.4266"/>
<path content="BA010,1,1,JPN" xlink:title="BA010" d="M13018.1396,-3224.0135L13018.2907,-3224.1268L13018.6295,-3224.4133L13018.4998,-3224.4068L13018.0298,-3224.0932L13018.1396,-3224.0135"/>
<path content="BA010,1,1,JPN" xlink:title="BA010" d="M13022.7005,-3224.6399L13022.9507,-3224.8531L13022.3694,-3225.3201L13022.1405,-3225.4066L13022.1695,-3225.3201L13022.3999,-3225.0134L13022.6105,-3224.7135L13022.7005,-3224.6399"/>
<path content="BA010,1,1,JPN" xlink:title="BA010" d="M13018.0603,-3226.1799L13018.0603,-3226.44L13017.8406,-3226.5202L13017.8696,-3226.1868L13018.0603,-3226.1799"/>
<path content="BA010,1,1,JPN" xlink:title="BA010" d="M13016.9006,-3222.5735L13016.7801,-3223L13016.7801,-3223.0598L13017.07,-3223.0469L13017.1494,-3223.1068L13017.3401,-3223.4066L13017.5598,-3224.02L13017.5705,-3224.8466L13018.1503,-3225.3201L13018.2205,-3225.3201L13018.3304,-3225.3201L13018.3807,-3225.5798L13018.5608,-3225.8736L13018.6707,-3225.7866L13018.8507,-3226.4668L13018.8004,-3226.8002L13018.4708,-3226.8066L13018.6493,-3226.3466L13018.2495,-3226.2402L13018.2907,-3225.9933L13017.7093,-3225.5268L13017.4805,-3225.4066L13017.16,-3225.7198L13017.0197,-3225.3201L13016.7603,-3224.9001L13016.6306,-3224.9401L13016.5405,-3224.5731L13016.6794,-3224.0398L13016.7404,-3223.9265L13016.4902,-3223.9399L13016.3605,-3223.9334L13015.8096,-3224.44L13016.04,-3223.4531L13016.2399,-3223.1468L13016.0706,-3223.0335L13016.1194,-3222.8931L13016.1407,-3222.7932L13016.2796,-3222.8867L13016.4795,-3223.0068L13016.5207,-3222.9534L13016.7206,-3222.9866L13016.9006,-3222.5735"/>
<path content="BA010,1,1,JPN" xlink:title="BA010" d="M13013.5696,-3226.2135L13014.5706,-3226.4999L13014.9597,-3226.9733L13014.6103,-3227.4933L13014.4104,-3227.4799L13014.0198,-3227.7332L13013.6703,-3227.52L13013.0905,-3226.7532L13013.5696,-3226.2135"/>
<path content="BA010,1,1,JPN" xlink:title="BA010" d="M13006.4606,-3229.52L13006.0303,-3229.5868L13006.34,-3229.06L13006.3797,-3228.8799L13006.6299,-3228.7601L13006.1905,-3228.4534L13006.1905,-3227.84L13006.0303,-3227.7466L13005.8395,-3227.9266L13005.8304,-3227.8934L13005.4398,-3227.9202L13005.3101,-3227.7935L13005.0995,-3227.9934L13004.9805,-3228.1868L13004.9698,-3228.3466L13004.9606,-3228.7933L13004.8401,-3228.7933L13004.8203,-3228.9268L13004.48,-3229.1599L13004.6799,-3229.38L13004.5609,-3229.3533L13004.6295,-3229.6135L13005.0903,-3230.2734L13004.8401,-3230.4066L13004.4907,-3229.8466L13004.4205,-3229.7932L13004.0695,-3230.2532L13003.8101,-3229.9469L13003.3493,-3230.2067L13003.0807,-3229.8668L13002.7802,-3229.8801L13003.0701,-3229.5868L13003.0396,-3229.0733L13002.89,-3228.6865L13003.3493,-3228.8002L13003.5507,-3228.4401L13003.1494,-3228.3333L13003.5599,-3228.1868L13003.5797,-3227.7267L13003.1601,-3227.4399L13002.98,-3227.6669L13003.1204,-3228.0201L13002.9602,-3228.5202L13002.7405,-3228.5133L13002.4902,-3228.82L13002.6901,-3229.5601L13002.3895,-3229.8733L13002.4506,-3230.1067L13002.0203,-3230.1136L13001.1703,-3229.8668L13000.5798,-3229.1466L13000.1907,-3228.8265L13000,-3228.7434L12999.8703,-3228.6865L12999.6796,-3228.5069L12999.1791,-3228.4065L12999.1699,-3228.1467L12998.7396,-3227.5867L12998.32,-3226.9333L12997.9095,-3226.54L12997.7905,-3226.2798L12997.3495,-3225.3201L12996.9803,-3224.7066L12996.7499,-3224.44L12996.7392,-3224.2668L12997.4197,-3223.9933L12998.3002,-3224.5998L12998.5703,-3224.3267L12998.5794,-3224.2001L12999.0097,-3224.6265L12999.2493,-3224.7799L12999.6002,-3225.1465L12999.5392,-3225.3201L12999.6002,-3225.3201L12999.6796,-3225.2934L12999.7208,-3225.3201L12999.8505,-3225.3201L12999.8306,-3224.9935L12999.8993,-3224.9199L12999.6796,-3224.8402L12999.3805,-3224.4999L12998.7793,-3224.0799L12998.9792,-3223.8533L12999.2798,-3223.9735L12999.3698,-3223.5931L12999.6796,-3223.9532L12999.9298,-3223.46L13000,-3223.4848L13000.4395,-3223.6401L13000.8194,-3223.9735L13001.0208,-3223.7469L13001.2604,-3223.1266L13001.2695,-3222.0333L13001.1398,-3222.0798L13000.8301,-3221.6999L13000.65,-3221.3867L13000.5005,-3221.3936L13000.3906,-3221.1067L13000.4898,-3221.6202L13000.4593,-3222.1664L13000.2594,-3222.2134L13000.2792,-3221.7998L13000,-3222.0276L12999.9603,-3222.06L12999.6796,-3221.6599L12999.5804,-3221.6667L12999.6796,-3221.4867L12999.7299,-3221.4199L12999.7009,-3220.9934L12999.7101,-3220.5334L12999.6796,-3220.5067L12999.2294,-3220.0268L12999.1104,-3220.0333L12998.999,-3219.9001L12999.0601,-3219.6201L12999.6796,-3219.5801L12999.8901,-3219.22L12999.9908,-3219.0132L13000,-3219.0254L13000.3098,-3219.4069L13000.8408,-3219.8601L13000.8606,-3220.1134L13001.1307,-3220.1401L13001.3107,-3219.7933L13001.4694,-3219.8067L13001.4694,-3219.5469L13001.2604,-3219.5934L13001.4603,-3219.2467L13001.2192,-3219.2402L13001.2192,-3218.9201L13002.2293,-3218.8599L13002.3499,-3219.0601L13002.1301,-3219.0735L13002.1408,-3219.26L13002.3102,-3219.3268L13002.3499,-3219.4267L13002.6199,-3219.3199L13002.6108,-3219.7666L13002.8702,-3219.7132L13002.9404,-3219.5068L13003.1204,-3219.6533L13003.0899,-3220.34L13002.7908,-3221.3936L13003.2806,-3221.46L13003.3005,-3221.1933L13003.8101,-3220.6135L13003.9795,-3220.76L13003.7506,-3220.8668L13003.83,-3221.0999L13004.1107,-3220.8534L13004.2404,-3220.8935L13004.2801,-3220.2469L13004.4205,-3219.9001L13004.8706,-3220.5399L13005.4596,-3220.7733L13005.7495,-3221.0999L13006.1005,-3220.9801L13006.34,-3221.0602L13006.6193,-3221.08L13007.2601,-3221.0667L13007.2998,-3221.3665L13007.7103,-3221.2399L13008.1207,-3221.8533L13008.5297,-3221.9601L13008.2901,-3221.9601L13007.9895,-3222.0932L13007.8201,-3222.1001L13007.6996,-3222.1134L13007.1198,-3222.4667L13007.3303,-3222.58L13007.5897,-3222.5468L13007.9102,-3222.9801L13008.2108,-3223.1201L13007.7393,-3223.3868L13007.9498,-3224.2802L13008.1894,-3224.3L13008.1894,-3224.3668L13008.3099,-3224.3599L13008.4808,-3224.3465L13008.9508,-3224.2599L13009.0607,-3224.3L13008.6899,-3224.0868L13008.4595,-3224.1333L13008.7708,-3223.6732L13008.4106,-3223.9468L13008.4,-3223.6935L13008.5999,-3223.3734L13008.7006,-3223.3067L13008.7906,-3223.0202L13008.9798,-3222.7333L13009.5505,-3223.0801L13009.7397,-3222.8802L13010.0998,-3223.6866L13009.9106,-3224.3599L13010.1303,-3224.6132L13010.0906,-3224.9001L13009.8099,-3224.8001L13009.6603,-3224.8135L13009.6207,-3224.5998L13009.3307,-3224.72L13009.2697,-3224.8734L13009.1507,-3225.2468L13008.9905,-3225.3201L13009.1599,-3225.5001L13010.0601,-3225.4665L13010.4904,-3225.4131L13010.6293,-3225.3735L13010.9299,-3225.8736L13011.0596,-3226.2402L13010.73,-3226.4534L13011.0504,-3226.68L13011.3907,-3226.6533L13011.94,-3227.4265L13012.1796,-3227.8069L13013.1302,-3228.4866L13013.6398,-3229.0867L13013.8107,-3228.7533L13014.4196,-3228.1265L13014.5599,-3228.3867L13014.8697,-3228.2867L13015.2603,-3228.6133L13015.9897,-3228.9665L13016.5298,-3229.6669L13016.2399,-3230.1666L13016.0599,-3230.1533L13015.1398,-3230.2002L13014.8697,-3230.1067L13014.7095,-3230.1735L13014.7705,-3229.9335L13014.4501,-3230.2734L13014.3997,-3229.8534L13014.2899,-3229.66L13014.1495,-3229.8336L13013.8901,-3229.7333"/>
<path content="BA010,1,1,JPN" xlink:title="BA010" d="M13021.4203,-3225.0267L13021.4905,-3225.3201L13021.6599,-3225.5867L13021.8994,-3225.7069L13022.5494,-3226.2001L13022.9507,-3226.2199L13022.8607,-3225.9533L13023.1796,-3225.6733L13023.9105,-3225.4665L13024.0402,-3225.3201L13024.1501,-3225.3201L13023.8403,-3225.9464L13023.4299,-3226.2333L13023.6603,-3226.3535L13024.2294,-3226.6132L13024.6796,-3226.7399L13024.6796,-3226.8532L13024.6796,-3227.1133L13025.0702,-3227.1801L13025.4303,-3227.4799L13025.7996,-3227.4067L13025.8896,-3227.4467L13025.7599,-3227.7599L13025.8102,-3227.8599L13025.7095,-3228.0334L13026.1307,-3228.0067L13026.7807,-3228.0266L13026.4801,-3229.3999L13026.5808,-3229.6135L13025.2609,-3230.1868L13025.5295,-3230.6332L13025.2899,-3230.6736L13025.2899,-3230.5466L13025.1694,-3230.4066L13024.8795,-3230.4199L13024.6796,-3230.2135L13024.5697,-3230.1266L13024.4507,-3230.1334L13024.0295,-3230.1067L13023.7396,-3230.0133L13023.2895,-3229.9732L13023.2407,-3230.04L13023.0804,-3229.7268L13022.8394,-3229.7802L13023.1506,-3229.6066L13023.4894,-3229.2336L13023.4207,-3229.0401L13022.7905,-3229.1866L13023.0103,-3229.0401L13022.7097,-3228.8734L13022.11,-3229.3266L13022.0901,-3229.1466L13021.9101,-3229.1668L13021.8399,-3228.7201L13021.3104,-3228.1933L13021.3608,-3228.0067L13021.5408,-3228.0067L13021.5195,-3227.8465L13021.6599,-3227.6066L13021.46,-3227.5333L13021.2204,-3227.56L13021.3394,-3227.3201L13021.2006,-3226.1536L13021.1197,-3225.8331L13020.9396,-3225.4131L13021.3196,-3225.3201L13021.4203,-3225.0267"/>
<path content="BA010,1,1,JPN" xlink:title="BA010" d="M13029.9301,-3232.2533L13030.2902,-3232.7335L13030.0995,-3232.7866L13029.9194,-3232.9002L13030.2505,-3233.5869L13029.5502,-3233.2935L13029.3793,-3233.2935L13029.8096,-3232.6466L13029.9301,-3232.2533"/>
<path content="BA010,1,1,JPN" xlink:title="BA010" d="M13021.1674,-3233.6481L13021.2373,-3233.6609L13021.2733,-3233.6905L13021.2839,-3233.7456L13021.2638,-3233.7657L13021.196,-3233.7721L13021.1335,-3233.7996L13021.0848,-3233.8007L13021.0466,-3233.7657L13021.0445,-3233.7308L13021.0763,-3233.6778L13021.1134,-3233.6556L13021.1674,-3233.6481"/>
<path content="BA010,1,1,JPN" xlink:title="BA010" d="M13028.7399,-3233.6533L13028.92,-3234.0801L13028.7598,-3234.0069L13028.6606,-3233.8867L13028.3997,-3233.6533L13028.7399,-3233.6533"/>
<path content="BA010,1,1,JPN" xlink:title="BA010" d="M13030.1697,-3230.3867L13030.6305,-3230.6534L13031.2302,-3230.6469L13031.7902,-3230.6068L13032.0999,-3230.74L13032.7499,-3230.5199L13032.84,-3230.4668L13033.6594,-3231.1333L13033.9203,-3231.0467L13034.05,-3231.2332L13034.4101,-3231.2733L13035.8795,-3232.6599L13036.4304,-3233.5468L13036.7401,-3233.6533L13037.1796,-3234.1801L13037.2279,-3234.375M13034.0777,-3234.375L13033.8608,-3234.1133L13033.7799,-3234.1469L13033.7204,-3233.9802L13033.6594,-3233.7399L13033.4793,-3233.7135L13033.2794,-3233.7467L13033.2596,-3233.6533L13032.93,-3233.2401L13032.9498,-3232.7068L13033.3405,-3232.84L13033.0994,-3231.4201L13032.6599,-3231.16L13032.5806,-3231.7467L13032.1594,-3231.6002L13032.0496,-3231.6868L13031.4301,-3231.0135L13031.3202,-3230.9002L13031.1295,-3231.1401L13030.6503,-3230.9002L13029.9805,-3230.4066L13030.1697,-3230.3867"/>
<path content="BA010,1,1,JPN" xlink:title="BA010" d="M13030.9097,-3233.9134L13031.5399,-3234.3132L13031.81,-3234.3334L13031.7902,-3234.0199L13032.3807,-3234.2667L13032.4286,-3234.375M13031.1671,-3234.375L13030.9097,-3233.9134"/>
<path content="BA010,1,1,JPN" xlink:title="BA010" d="M13013.8901,-3229.7333L13013.9603,-3230.4668L13014.0793,-3230.6L13013.9801,-3230.8601L13014.1006,-3231.1134L13014.1098,-3231.2199L13014.3494,-3231.0268L13014.1907,-3231.7066L13014.5905,-3231.5868L13014.6103,-3231.44L13014.74,-3231.3801L13014.8102,-3231.16L13015.6097,-3231.2069L13015.4709,-3231.34L13015.2603,-3231.6666L13015.3107,-3231.7535L13015.1703,-3232.1999L13015.3107,-3232.1667L13015.4297,-3232.1602L13015.4907,-3232.32L13015.8096,-3232.1735L13015.5502,-3233.0933L13015.77,-3233.2535L13015.7806,-3233.5732L13015.8997,-3233.4999L13016.0004,-3233.5266L13016.2094,-3232.8869L13016.6,-3233.1135L13017.16,-3233.6533L13017.5507,-3233.9268L13017.6605,-3233.6533L13017.45,-3233.4667L13017.4301,-3233.3866L13017.2104,-3233.1936L13016.9998,-3232.8667L13016.89,-3232.9002L13016.9098,-3232.6065L13016.7206,-3232.6336L13016.7801,-3232.4467L13016.6595,-3232.46L13016.7694,-3232.1934L13016.8106,-3231.5735L13017.1997,-3231.0268L13018.1107,-3231.1199L13018.5303,-3231.5201L13019.0308,-3232.0866L13019.4794,-3232.3868L13019.8898,-3232.2868L13019.9493,-3232.56L13020.3506,-3232.5535L13020.1096,-3232.7599L13020.3201,-3233.26L13020.8206,-3233.6201L13020.8206,-3233.6533L13020.7312,-3234.375M12997.8578,-3234.375L12997.9401,-3233.8268L12997.85,-3233.6533L12997.76,-3233.4335L12997.6501,-3232.9666L12998.0499,-3232.7599L12998.1094,-3232.4268L12998.6404,-3232.1869L12998.7396,-3231.6734L12999.1394,-3232.28L12999.2905,-3232.0999L12999.3103,-3231.2599L12999.3393,-3231.0467L12999.4293,-3230.6534L12999.6796,-3230.74L13000,-3230.6381L13000.1404,-3230.5935L13000.0595,-3230.8933L13000.4303,-3230.9067L13000.4105,-3231.5266L13000.4807,-3231.3534L13000.9506,-3231.06L13001.0101,-3231.1535L13001.3107,-3231.3465L13001.7105,-3231.3202L13001.7899,-3230.9734L13002.0905,-3230.92L13002.4994,-3231.0532L13002.42,-3231.5933L13002.5406,-3231.5266L13002.7695,-3231.0799L13002.6703,-3230.64L13002.89,-3230.6L13003.0701,-3230.2868L13003.6301,-3230.5668L13003.8895,-3231.3736L13004.0894,-3231.4266L13004.5898,-3231.0066L13005.4199,-3230.8533L13005.6702,-3230.3333L13006.4896,-3230.5466L13006.9901,-3229.9534L13006.4606,-3229.52"/>
<path content="BA010,1,1,JPN" xlink:title="BA010" d="M13048.1773,-3234.375L13048.0408,-3234.1202L13047.9507,-3233.6533L13047.9996,-3233.3733L13048.3704,-3233.2733L13048.0194,-3232.6801L13047.5906,-3232.7534L13047.3801,-3232.7267L13047.4197,-3233.0868L13047.2595,-3233.1135L13046.9208,-3232.6534L13046.6904,-3232.7267L13046.4096,-3232.6267L13046.8506,-3232.3933L13046.5103,-3231.9401L13047.0306,-3231.7333L13046.9299,-3231.16L13047.2305,-3230.8399L13047.1207,-3230.1136L13048.0301,-3230.0468L13048.2605,-3230.2734L13048.2605,-3230.0068L13048.1506,-3229.8599L13048.9304,-3229.9934L13048.8998,-3229.6135L13048.5901,-3229.7333L13048.3597,-3229.48L13048.1598,-3229.5002L13048.1201,-3229.1801L13047.9401,-3228.8734L13047.5601,-3228.6133L13047.2,-3228.6068L13047.0306,-3229.1599L13046.8994,-3229.1332L13046.5805,-3229.5868L13046.4203,-3229.6066L13046.4096,-3229.1599L13046.5103,-3229.1065L13046.6507,-3228.4599L13046.4401,-3227.6798L13046.2997,-3227.6531L13045.9106,-3228.2799L13045.7809,-3228.5L13045.8694,-3228.8132L13045.7306,-3228.9799L13044.9203,-3228.8399L13044.8807,-3228.6736L13045.0806,-3228.2398L13045.0302,-3227.9469L13044.78,-3227.8866L13044.6304,-3228.0132L13044.5694,-3227.84L13044.4,-3227.8465L13044.8105,-3227.5398L13044.87,-3227.1732L13044.4809,-3226.9798L13044.1101,-3226.8932L13043.7805,-3227.0267L13043.5593,-3226.7868L13043.4204,-3226.8532L13043.2693,-3226.5732L13043.1702,-3226.5999L13043.1702,-3226.3401L13042.7399,-3226.4065L13042.8406,-3226.2466L13043.1808,-3225.9464L13043.2205,-3225.6001L13043.5196,-3225.3201L13043.0008,-3225.1934L13042.5308,-3225.0332L13042.3996,-3225.0401L13042.7704,-3224.4068L13043.1503,-3224.1135L13043.4097,-3224.1135L13043.5501,-3223.7865L13043.9407,-3223.6668L13043.4708,-3223.6801L13043.1595,-3223.04L13043.2602,-3222.9336L13043.0801,-3222.9534L13043.0206,-3223.1068L13042.7002,-3223.4402L13042.45,-3223.4734L13042.2699,-3223.3932L13042.1799,-3223.7934L13041.8503,-3223.5134L13041.2796,-3223.2334L13041.0095,-3223.2933L13040.9409,-3223.0534L13040.6006,-3223.2067L13040.1596,-3223.5333L13039.6896,-3222.7932L13039.3204,-3222.6467L13039.74,-3222.2401L13039.4608,-3222.0669L13039.0503,-3222.3133L13038.5803,-3221.5401L13038.7604,-3221.4134L13038.4308,-3221.3402L13038.2202,-3221.3467L13037.7197,-3221.0934L13038.3804,-3220.7401L13037.8494,-3220.5868L13037.2208,-3220.3533L13037.1796,-3220.2667L13037.1796,-3220.0134L13037.3993,-3219.7601L13037.6907,-3219.92L13037.8006,-3219.78L13037.5702,-3219.6465L13037.8799,-3219.3867L13037.7899,-3218.8267L13037.5198,-3218.84L13037.4207,-3218.3399L13037.6907,-3218.2468L13037.6495,-3217.9401L13037.9303,-3217.8066L13037.8998,-3217.5999L13037.1796,-3217.6666L13036.8607,-3217.7734L13037.1796,-3218.0935L13037.2498,-3218.3201L13037.1796,-3218.3266L13037.0102,-3218.3266L13036.6898,-3218.1L13036.29,-3218.2201L13036.2305,-3218.2667L13035.9406,-3218.0332L13036.2106,-3217.86L13036.47,-3217.7734L13036.6608,-3217.2932L13036.2503,-3217.4267L13036.2396,-3217.1532L13036.1099,-3217.16L13036.0596,-3216.9868L13036.0001,-3216.7801L13035.7895,-3216.1865L13036.2198,-3215.1134L13035.2005,-3214.1731L13035.1395,-3213.5799L13034.79,-3213.3133L13034.4696,-3213.3598L13034.5795,-3213.0466L13034.1904,-3213.0669L13034.1599,-3212.6934L13034.0607,-3212.9334L13033.58,-3212.4199L13033.1207,-3212.3268L13032.9895,-3212.4065L13033.0002,-3212.2002L13032.84,-3212.1933L13032.9102,-3212.3199L13031.1996,-3211.4067L13030.8105,-3210.8002L13030.1605,-3210.7666L13028.45,-3210.8665L13027.0599,-3211.7401L13027.2507,-3212.5866L13026.5594,-3212.8468L13026.0696,-3212.6736L13026.5305,-3212.2868L13026.2604,-3211.8801L13025.5508,-3212.6068L13024.7696,-3212.7666L13024.6796,-3212.7464L13023.9502,-3212.7934L13023.2407,-3212.78L13022.3099,-3212.7934L13021.3303,-3212.4332L13020.9198,-3212.4401L13020.1202,-3212.0068L13019.2001,-3211.6001L13019.0308,-3211.1935L13018.8705,-3211.0733L13018.6096,-3211.2064L13017.8101,-3210.8467L13017.6804,-3210.6068L13017.4606,-3210.4534L13017.3401,-3209.2602L13017.4408,-3209.0199L13017.3096,-3209.0267L13017.0197,-3208.6533L13017.16,-3207.7667L13018.0405,-3207.1602L13018.1396,-3207.1201L13018.3197,-3207.1602L13018.0496,-3207.9533L13018.4601,-3208.1467L13018.8507,-3208.26L13019.2398,-3208.3866L13019.1193,-3207.7133L13019.5297,-3207.4867L13019.6899,-3207.6866L13020.3506,-3206.9332L13020.5795,-3205.7865L13020.3705,-3205.2334L13020.2698,-3204.0733L13019.9997,-3203.68L13019.3909,-3203.4401L13019.2703,-3203.0666L13018.8202,-3203.0533L13018.7897,-3202.9266L13019.2505,-3203.0067L13019.2795,-3202.4933L13019.1605,-3202.4132L13019.2902,-3202.4067L13019.1406,-3201.9066L13019.2596,-3201.7132L13019.0506,-3201.9066L13019.2001,-3201.5732L13019.0506,-3201.5667L13018.9102,-3201.7467L13018.7302,-3201.6132L13018.4204,-3201.5598L13018.28,-3201.5598L13018.1702,-3201.3733L13017.9306,-3201.5667L13017.9306,-3200.8266L13017.7093,-3200.3201L13017.9306,-3199.8266L13018.2007,-3199.5667L13017.9703,-3199.16L13017.3706,-3199.3267L13017.2806,-3199.1533L13017.54,-3199.16L13017.7093,-3198.98L13018.2495,-3199.2533L13018.5699,-3199.4801L13019.0598,-3198.6734L13019.1605,-3199L13019.4305,-3199.0267L13019.7205,-3199.02L13019.5999,-3198.7667L13019.9997,-3198.6067L13020.1996,-3198.2533L13019.7494,-3198.1001L13020.0195,-3197.7133L13020.4407,-3197.4533L13020.9198,-3196.9267L13021.4294,-3195.1265L13021.6705,-3193.5133L13021.9192,-3192.8333L13021.9406,-3191.9867L13021.8704,-3191.6067L13022.0795,-3191.4L13022.1298,-3191.1934L13022.3099,-3191.1467L13021.9299,-3189.4466L13021.7102,-3189.4533L13021.6705,-3189.3734L13021.5408,-3189.3801L13021.6202,-3188.8332L13021.3608,-3188.2933L13020.8206,-3187.0934L13020.2209,-3186.7933L13020.0302,-3187.0001L13019.9402,-3186.1668L13019.7494,-3185.8267L13019.1803,-3186.0067L13019.1101,-3185.8267L13019.5709,-3185.5667L13019.4595,-3185.4601L13019.78,-3185.3268L13019.3497,-3184.28L13019.0094,-3184.2867L13018.6905,-3183.6668L13018.5196,-3183.72L13018.3395,-3183.6534L13018.1107,-3183.5535L13018.4006,-3183.6534L13018.6707,-3183.6534L13018.4906,-3183.18L13018.0405,-3183.2735L13018.5806,-3183.0067L13017.7902,-3181.7801L13017.5507,-3181.7801L13017.2394,-3181.4533L13017.3401,-3181.2866L13017.3203,-3180.8535L13017.0898,-3179.9732L13016.9998,-3179.8265L13016.6,-3179.38L13016.89,-3178.8933L13017.2302,-3178.4L13017.3996,-3178.0067L13017.8497,-3178.0266L13017.9596,-3177.8801L13018.0603,-3177.38L13018.4204,-3176.96L13018.75,-3175.7933L13018.6493,-3175.3201L13018.5501,-3174.8667L13018.9606,-3174.6534L13019.4305,-3174.8135L13019.7403,-3175.3201L13019.9799,-3175.5199L13020.3598,-3175.5266L13021.2494,-3175.5266L13021.2997,-3175.3201L13021.9406,-3175L13022.7295,-3174.2466L13023.1003,-3173.8533L13023.4604,-3173.6601L13023.6099,-3173.4467L13024.6796,-3173.1533L13025.1801,-3173.0932L13025.9598,-3172.1399L13025.9399,-3171.4134L13026.0101,-3171.5868L13026.2405,-3171.4533L13026.2299,-3170.9534L13026.1902,-3170.8134L13025.9796,-3170.8467L13025.56,-3170.8601L13025.2808,-3170.92L13026.0101,-3170.7132L13026.1704,-3170.7067L13026.8295,-3170.7533L13026.7105,-3170.5667L13027.3804,-3170.5935L13028.3295,-3169.4134L13029.7897,-3167.1L13029.8203,-3166.9867L13029.7699,-3166.18L13029.8599,-3166.1467L13030.3406,-3166.2001L13031.1096,-3166.0267L13031.3202,-3165.8466L13031.4697,-3165.8268L13032.6797,-3163.3467L13033.0704,-3161.6667L13033.3801,-3158.6533L13033.1696,-3155.5201L13032.1304,-3151.1868L13031.7795,-3150.3201L13031.2103,-3149.0467L13029.0298,-3144.9533L13029.1107,-3144.7401L13028.92,-3144.5934L13028.2394,-3144.1401L13027.1606,-3142.5934L13025.9903,-3141.9867L13025.4898,-3141.7732L13025.3098,-3141.7667L13025.1999,-3141.9333L13024.9695,-3141.3933L13024.9008,-3141.7L13024.6796,-3141.56L13023.4894,-3141.02L13022.9294,-3140.5132L13022.8394,-3140.2067L13022.4701,-3139.86"/>
</g>
</svg>
