<?xml version="1.0" encoding="UTF-8"?>
<svg  xmlns="http://www.w3.org/2000/svg" xmlns:xlink="http://www.w3.org/1999/xlink" xmlns:go="http://purl.org/svgmap/profile" property="f_code,acc,exs,soc" viewBox="14625.0 -4500.0 1125.0 1125.0" go:dataArea="14625.0 -4500.0 1125.0 1125.0" >
<metadata>
 <rdf:RDF xmlns:rdf="http://www.w3.org/1999/02/22-rdf-syntax-ns#" xmlns:crs="http://opengis.org/xmldtds/transformations.dtd" xmlns:svg="http://www.w3.org/svg" >
  <rdf:Description>
   <crs:CoordinateReferenceSystem rdf:resource="http://purl.org/crs/84" svg:transform="matrix(100.0,0.0,0.0,-100.0,0.0,0.0)" />
  </rdf:Description>
 </rdf:RDF>
</metadata>
<globalCoordinateSystem srsName="http://purl.org/crs/84" transform="matrix(100.0,0.0,0.0,-100.0,0.0,0.0)" />
<defs>
 <g id="p0" >
  <circle cx="0.0" cy="0.0" r="3" stroke="green" stroke-width="2.0" vector-effect="non-scaling-stroke" />
 </g>
</defs>
<g fill="none" fill-rule="evenodd" stroke="#000000" stroke-width="2" opacity="0.5" vector-effect="non-scaling-stroke" stroke-linejoin="bevel" >
<path content="BA010,1,1,JPN" xlink:title="BA010" d="M14640.48,-4356.6334L14640.3091,-4357.1201L14640.1398,-4357.0133L14640.2496,-4356.6666L14640.48,-4356.6334"/>
<path content="BA010,1,1,JPN" xlink:title="BA010" d="M14635.7697,-4361.8732L14635.73,-4362.4733L14635.1501,-4362.8067L14635.2997,-4363.0199L14635.4202,-4363.5666L14635.2798,-4363.8866L14635.08,-4364.0732L14634.0805,-4363.8668L14633.7692,-4363.9668L14633.5602,-4363.8466L14633.2901,-4364.0202L14632.9193,-4363.9935L14633.0902,-4364.3734L14632.5394,-4364.64L14632.1594,-4364.4802L14631.5796,-4365.1199L14631.0196,-4365.1333L14630.9906,-4364.7736L14631.2103,-4364.2868L14630.8502,-4363.9133L14630.0308,-4363.4132L14629.7394,-4363.1065L14628.7994,-4362.8933L14628.3401,-4363.0199L14627.6199,-4362.8735L14627.0294,-4362.8868L14627.3605,-4362.5134L14627.9999,-4362.3199L14629.6097,-4362.3798L14630.8395,-4362.0998L14632.1594,-4362.4268L14633.0795,-4362.0934L14633.4,-4361.9133L14634.3796,-4361.9801L14635.7697,-4361.8732"/>
<path content="BA010,1,1,JPN" xlink:title="BA010" d="M14669.7296,-4372.1401L14669.9997,-4372.3865L14670.1797,-4372.5334L14670.2698,-4372.7135L14670.6497,-4372.9866L14669.8502,-4373.0202L14669.3192,-4373.46L14668.5394,-4373.1869L14668.6493,-4372.7798L14669.3893,-4372.86L14669.5206,-4372.4934L14669.7296,-4372.1401"/>
<path content="BA010,1,1,JPN" xlink:title="BA010" d="M14671.4401,-4373.3467L14671.5897,-4373.6198L14671.2006,-4373.6534L14671.17,-4373.3799L14671.4401,-4373.3467"/>
<path content="BA010,1,1,JPN" xlink:title="BA010" d="M14679.0894,-4374.5468L14679.7806,-4374.7601L14680.3894,-4375.0599L14680.5008,-4375.1469L14680.6503,-4375.3201L14680.7297,-4375.8266L14680.5496,-4375.8266L14680.3696,-4375.9201L14680.3207,-4376.0799L14679.9896,-4376.0868L14679.8798,-4375.9998L14679.5593,-4376.1269L14679.2801,-4375.7465L14679.2099,-4375.3933L14679.1092,-4375.3201L14679.5105,-4375.2266L14679.6906,-4375.1736L14678.8895,-4374.7067L14679.0894,-4374.5468"/>
<path content="BA010,1,1,JPN" xlink:title="BA010" d="M14685.2295,-4378.9734L14685.4904,-4379.2801L14685.2997,-4379.2801L14685.0204,-4379.3068L14685.2295,-4378.9734"/>
<path content="BA010,1,1,JPN" xlink:title="BA010" d="M14664.5493,-4370.2732L14665.2008,-4370.3266L14665.3595,-4370.5067L14665.6097,-4370.3999L14665.7196,-4370.6932L14665.9195,-4370.6001L14666.2003,-4370.6734L14666.3406,-4370.8866L14667.6193,-4370.8199L14667.8299,-4371.1533L14667.7399,-4371.3333L14667.9703,-4371.3535L14667.7704,-4371.5866L14668.9896,-4372.2935L14668.7302,-4372.2866L14668.5699,-4372.62L14668.3792,-4372.62L14668.2098,-4372.6398L14668.4601,-4372.7798L14668.1793,-4373.0801L14668.7393,-4373.5466L14669.1803,-4373.6198L14669.2001,-4373.7801L14669.1193,-4374.3069L14669.7403,-4374.6601L14670.639,-4374.4999L14671.1502,-4374.2268L14671.2601,-4373.8667L14672.4197,-4373.5268L14672.6303,-4373.6534L14672.6898,-4373.4669L14673.0804,-4373.6069L14673.3093,-4373.7534L14673.3795,-4374.1669L14672.9706,-4374.4999L14672.9095,-4374.6933L14673.4192,-4374.4267L14673.6694,-4374.8734L14674.35,-4375.0801L14674.5499,-4374.7799L14674.6796,-4374.7868L14675.3998,-4375.1736L14675.1801,-4375.3201L14675.0397,-4375.42L14675.1205,-4375.7465L14675.5997,-4375.5066L14675.7401,-4375.56L14675.6897,-4375.3201L14676.0696,-4374.9802L14676.3504,-4375.1667L14676.6296,-4375.3201L14677.3697,-4376.0468L14677.0294,-4376.2001L14677.1591,-4376.6869L14677.5894,-4376.4732L14677.7206,-4376.4465L14678.0304,-4375.8934L14678.3005,-4375.7732L14678.8406,-4375.9602L14678.6896,-4376.2135L14679.2206,-4376.4133L14679.4998,-4377.2202L14679.3396,-4377.2266L14679.01,-4377.2068L14679.1092,-4377.5932L14678.9398,-4377.8667L14678.8605,-4378.0869L14679.0802,-4378.3001L14679.5105,-4378.22L14679.6402,-4378.5133L14679.95,-4378.6469L14680.1804,-4378.2536L14680.7999,-4378.12L14680.7999,-4378.2932L14681.1203,-4378.4668L14680.9708,-4378.6335L14680.9204,-4378.7735L14680.9601,-4378.9536L14681.1508,-4379.1866L14681.6895,-4378.9398L14682.4097,-4379.0001L14682.7499,-4378.54L14683.0795,-4378.4267L14683.3801,-4378.4L14683.9096,-4378.3066L14684.0897,-4378.4599L14685.1395,-4378.7933L14684.9594,-4378.8868L14684.7397,-4379.0668L14684.5901,-4378.9803L14684.5596,-4379.1668L14683.8501,-4379.0936L14683.3801,-4379.4132L14683.4198,-4379.6467L14682.8705,-4379.6135L14682.6904,-4380.0865L14683.3298,-4380.5L14683.8593,-4380.6866L14684.0607,-4380.9666L14684.2606,-4380.7865L14684.3903,-4381.0001L14684.7794,-4380.8399L14684.9106,-4381.1798L14685.1501,-4381.0467L14685.2005,-4380.7266L14685.7498,-4380.6732L14685.9894,-4380.6866L14686.1191,-4380.7533L14686.4105,-4380.8067L14686.29,-4380.9666L14686.4593,-4381.0932L14687.1796,-4381.1733L14687.1796,-4381.2134L14687.1796,-4381.3133L14688.2095,-4381.5002L14688.6902,-4381.2332L14688.8199,-4381.34L14689.3997,-4381.06L14689.92,-4380.6667L14690.2802,-4381.4201L14690.7303,-4381.1733L14690.7196,-4381.62L14690.8096,-4381.9267L14690.48,-4382.0999L14690.6692,-4382.42L14690.7104,-4382.4932L14690.3,-4382.8598L14691.0095,-4383.1467L14691.1194,-4383.1066L14691.1896,-4383.2268L14691.51,-4383.1867L14691.8304,-4383.5533L14691.9205,-4383.6533L14692.1204,-4383.86L14691.9601,-4383.8734L14691.8503,-4383.8734L14691.6595,-4384.0668L14691.1499,-4384.1335L14690.9302,-4384.5135L14691.4597,-4384.84L14691.2598,-4384.8732L14690.9302,-4384.7332L14690.7898,-4384.5066L14690.6097,-4384.52L14690.4099,-4384.5135L14690.1306,-4384.52L14689.4699,-4384.84L14688.7695,-4385.4599L14688.1699,-4385.9402L14687.4893,-4386.7867L14687.1796,-4386.8935L14686.5204,-4387.3402L14686.2198,-4387.7335L14685.1105,-4387.7201L14685.2798,-4388.1535L14685.2798,-4388.4266L14684.5001,-4388.9801L14683.6792,-4388.7733L14683.2993,-4388.7066L14682.5806,-4388.9999L14682.0999,-4388.7066L14681.9992,-4388.1466L14682.1701,-4387.5069L14682.7805,-4387.3669L14682.6004,-4386.8935L14682.0297,-4386.6798L14681.8695,-4386.6734L14681.3995,-4387.0201L14681.7398,-4387.6266L14681.3995,-4387.8468L14681.0394,-4387.5935L14681.0394,-4387.2066L14680.5801,-4387.2002L14680.0003,-4387.6534L14679.4403,-4388.0199L14678.8193,-4387.8468L14679.0298,-4387.4401L14679.5197,-4386.5269L14680.1407,-4386.4265L14680.3406,-4386.0668L14680.0598,-4386.0001L14679.7394,-4386.1732L14678.9993,-4386.8732L14678.5995,-4387.4668L14677.3804,-4387.5935L14676.3504,-4386.9865L14674.8398,-4385.7666L14674.6796,-4385.6998L14672.6593,-4384.7267L14672.5296,-4384.7267L14672.2107,-4384.24L14672.2305,-4383.6533L14673.0896,-4383.4L14673.6404,-4383.44L14674.2096,-4383.3065L14674.6796,-4383.0334L14674.8306,-4382.9067L14674.8398,-4382.8133L14674.8398,-4382.7934L14674.91,-4382.5001L14675.0092,-4382.4066L14674.8703,-4381.9134L14674.6796,-4382.1468L14674.2203,-4382.6801L14673.2193,-4382.9731L14673.0804,-4382.9601L14672.7203,-4383.2401L14672.5998,-4383.1799L14672.2198,-4383.3332L14671.2296,-4383.12L14671.2494,-4382.5401L14670.8908,-4382.4734L14670.7794,-4382.98L14669.9493,-4383.1867L14668.8599,-4382.9399L14668.1107,-4383.02L14668.1107,-4382.6668L14667.0792,-4382.8201L14666.6306,-4382.9266L14665.2298,-4382.42L14664.9506,-4382.4268L14663.9694,-4382.2132L14664.0305,-4381.9801L14663.62,-4381.9866L14662.7899,-4381.8333L14662.5092,-4381.8466L14662.1796,-4381.7268L14660.9802,-4381.7467L14660.2798,-4381.3068L14659.5306,-4380.8533L14659.1293,-4380.7999L14658.6304,-4380.8266L14658.5007,-4380.2135L14659.3308,-4378.82L14659.52,-4378.7666L14659.5505,-4378.3733L14659.8404,-4378.1467L14660.2097,-4378.08L14660.5301,-4377.94L14660.7193,-4377.6798L14660.5896,-4377.3067L14660.4294,-4377.1935L14660.5499,-4376.96L14660.7895,-4376.9733L14660.4797,-4376.4465L14660.2097,-4376.4465L14659.79,-4376.5667L14659.8892,-4376.26L14659.4101,-4376.0735L14659.3002,-4375.8598L14659.1202,-4375.9068L14659.05,-4375.5669L14658.9203,-4375.3201L14658.9493,-4375.0336L14658.7402,-4375.0336L14658.6395,-4374.4267L14658.9905,-4374.4534L14659.6207,-4374.7467L14659.7595,-4374.5335L14659.3506,-4374.0868L14659.4101,-4373.7133L14659.4604,-4373.56L14659.8801,-4373.8468L14659.8999,-4373.6599L14660.1105,-4373.7469L14660.4004,-4373.8869L14660.5499,-4373.8068L14660.6598,-4373.9403L14660.6308,-4373.5733L14661.2793,-4373.5401L14661.3007,-4374.1135L14661.6196,-4374.3668L14661.2198,-4374.8001L14661.0397,-4374.7799L14660.7498,-4375.0866L14660.7697,-4375.3201L14661.38,-4375.8068L14662.1796,-4375.7336L14662.6099,-4375.7465L14662.3703,-4375.3868L14662.2696,-4375.3201L14662.1796,-4375.2468L14661.9797,-4374.9535L14662.1796,-4374.7536L14662.1796,-4374.4801L14661.9598,-4374.0868L14662.1796,-4373.6069L14662.1796,-4373.46L14662.1796,-4373.3665L14662.3291,-4373.32L14662.6297,-4372.8535L14662.8799,-4372.8401L14663.0997,-4372.1867L14663.4399,-4371.9467L14663.6505,-4371.8933L14663.7207,-4371.9799L14664.1495,-4372.1001L14663.9999,-4371.8201L14663.9099,-4371.6934L14664.6393,-4371.3799L14664.6194,-4371.5599L14665.0192,-4371.4535L14664.7705,-4371.1399L14664.1296,-4370.9068L14664.1403,-4370.5467L14664.5493,-4370.2732"/>
<path content="BA010,1,1,JPN" xlink:title="BA010" d="M14625,-4427.2138L14625.1404,-4427.2667L14626.2802,-4427.3933L14627.5803,-4427.5265L14628.3005,-4427.5665L14628.7903,-4427.7134L14629.2099,-4427.5799L14629.95,-4427.7802L14630.1697,-4428.3932L14630.6305,-4428.9867L14631.5399,-4429.1866L14632.1701,-4429.7531L14633.0292,-4429.7531L14632.8094,-4430.3131L14633.7296,-4430.9067L14634.1995,-4430.8666L14634.3094,-4431.1798L14634.3201,-4431.2599L14634.3796,-4431.4468L14634.6893,-4431.8066L14635.3104,-4432.0599L14636.7798,-4431.9332L14637.0697,-4432.2399L14636.6699,-4432.5333L14636.8805,-4433.2401L14636.8393,-4433.6533L14637.1796,-4434.2533L14638.1104,-4435.2734L14639.74,-4436.2133L14643.4494,-4437.6732L14645.0592,-4437.8334L14646.2997,-4437.3001L14646.8491,-4436.8134L14647.7997,-4436.3464L14648.3795,-4435.7601L14648.6404,-4435.6998L14648.5199,-4435.4198L14649.0799,-4435.4465L14649.5804,-4435.9333L14649.6796,-4436.2133L14649.9802,-4436.1069L14650.1602,-4436.5601L14650.4303,-4436.6467L14650.6805,-4436.6867L14651.7792,-4436.7733L14651.7593,-4437.0602L14652.0599,-4437.1532L14652.4094,-4437.3798L14653.4805,-4438.0402L14653.5095,-4438.4335L14653.6606,-4439.5199L14653.9993,-4440.0867L14654.4601,-4440.6933L14654.7104,-4440.8733L14655.1193,-4441.9868L14655.3696,-4443.0199L14656.7902,-4444.7334L14657.6797,-4445.4533L14657.7591,-4445.5799L14656.5399,-4445.1401L14655.8594,-4444.8601L14655.1498,-4444.5667L14655.0705,-4444.0334L14652.9404,-4443.1934L14649.6796,-4442.5465L14646.1899,-4442.02L14645.8801,-4442.02L14645.2805,-4442.02L14645.1202,-4442.02L14645.0195,-4441.9868L14643.2007,-4441.98L14643.1305,-4441.9868L14640.5701,-4442.2932L14637.5992,-4441.9868L14637.1796,-4441.9464L14633.3206,-4441.8865L14633.1604,-4441.9868L14632.8995,-4442.4934L14632.2403,-4442.6334L14632.1198,-4442.68L14632.0099,-4442.6666L14631.7093,-4442.6399L14631.4896,-4442.9333L14631.1005,-4442.9466L14630.7693,-4442.8665L14630.6198,-4443.1065L14628.0899,-4443.5066L14627.7893,-4443.9732L14627.9694,-4444.3401L14627.42,-4444.4866L14627.2705,-4444.4931L14627.1393,-4444.4599L14627.0203,-4444.4065L14626.8997,-4444.5198L14626.8097,-4444.4664L14626.2405,-4444.4664L14625.9201,-4444.4599L14625,-4444.6667"/>
<path content="BA010,1,1,JPN" xlink:title="BA010" d="M14726.8997,-4460.6533L14726.8707,-4460.7334L14727.0401,-4460.8067L14726.6205,-4460.82L14726.8997,-4460.6533"/>
<path content="BA010,1,1,JPN" xlink:title="BA010" d="M14697.85,-4464.9467L14697.9004,-4465.02L14698.1705,-4465.34L14697.8806,-4465.4133L14697.5693,-4465.2534L14697.85,-4464.9467"/>
<path content="BA010,1,1,JPN" xlink:title="BA010" d="M14751.7792,-4500L14751.7792,-4500L14751.8005,-4499.86L14751.21,-4499.6532L14750.3693,-4499.6601L14750.8896,-4499.3L14750.2792,-4498.9399L14749.6796,-4499.0002L14748.5306,-4499.0002L14748.2101,-4498.7133L14748.2101,-4498.3734L14747.5998,-4498.5199L14746.4493,-4497.7333L14745.7306,-4497.3L14744.8593,-4496.3264L14744.2993,-4495.94L14743.7698,-4495.4468L14742.6605,-4494.5732L14742.0395,-4493.9201L14741.1804,-4493.4265L14740.7501,-4492.9867L14739.7797,-4492.1066L14739.3707,-4491.9868L14737.6205,-4490.8867L14737.1796,-4490.6734L14733.8806,-4489.2468L14733.0597,-4488.9133L14732.6797,-4489.1468L14731.5796,-4488.6467L14730.1895,-4488.1866L14729.8401,-4488.3999L14729.4098,-4487.7602L14729.1199,-4487.7266L14728.5706,-4487.8265L14728.1906,-4487.5198L14727.9709,-4487.5198L14727.0096,-4486.9999L14727.0096,-4486.8134L14726.7105,-4486.8134L14726.3,-4486.2202L14726.5396,-4485.1868L14726.0605,-4484.6066L14725.5798,-4483.6533L14724.9191,-4482.0667L14724.6796,-4481.2733L14723.7106,-4480.6934L14720.2698,-4479.7935L14720.0897,-4479.7867L14719.4794,-4479.94L14718.7103,-4480.64L14717.7399,-4481.4667L14717.0395,-4481.9134L14716.4505,-4481.8867L14716.2796,-4481.8668L14715.9103,-4482.2601L14715.6403,-4482.5268L14714.9597,-4482.4799L14714.74,-4482.6267L14714.18,-4482.8201L14714.09,-4482.9731L14713.0798,-4483.0399L14712.1796,-4482.6931L14711.0901,-4482.3868L14710.5698,-4481.8264L14710.4095,-4481.8333L14710.1395,-4481.2931L14710.3104,-4480.6599L14710.4507,-4479.8668L14710.9406,-4478.8532L14711.2595,-4478.7399L14711.6608,-4477.9331L14712.1796,-4477.7401L14712.6404,-4477.6867L14712.8006,-4477.1732L14712.9501,-4476.9466L14713.4201,-4477.1267L14714.2395,-4476.8932L14714.92,-4477.0733L14715.7806,-4476.9936L14716.1804,-4476.9466L14716.4108,-4476.6933L14716.51,-4476.6533L14716.9205,-4476.5133L14717.4606,-4476.4267L14717.7399,-4476.3866L14718.9896,-4476.4732L14719.3298,-4476.4801L14719.9799,-4475.3201L14720.0394,-4473.9201L14719.1696,-4470.7001L14718.1702,-4468.94L14717.1295,-4468.4799L14716.9403,-4468.4799L14716.2903,-4468.0466L14715.1199,-4466.9868L14714.4608,-4466.6401L14713.5696,-4465.76L14712.5504,-4464.9467L14712.1796,-4464.78L14711.4304,-4464.5931L14709.5093,-4463.8866L14708.8394,-4464.0266L14707.8903,-4463.8L14707.5897,-4463.9801L14707.1899,-4464.6534L14706.9199,-4464.6465L14706.0303,-4464.88L14705.9601,-4465.3801L14706.0394,-4465.4266L14706.0898,-4465.6265L14705.9708,-4465.6601L14705.5496,-4465.6532L14705.3406,-4465.6933L14704.9301,-4465.4934L14704.8401,-4466.0934L14703.9795,-4465.8665L14702.8198,-4466.28L14702.2202,-4465.9733L14701.9501,-4465.9733L14700.9201,-4466.0332L14700.3906,-4465.5533L14701.7502,-4464.3799L14703.3401,-4463.8199L14703.1006,-4462.2799L14703.1693,-4461.6066L14702.5909,-4459.9133L14701.03,-4458.6533L14699.6796,-4457.8667L14698.5001,-4457.84L14697.5296,-4458.4801L14697.3602,-4458.6533L14696.5195,-4459.3533L14696.1395,-4460.0132L14695.4605,-4461.9999L14695.2499,-4463.1866L14694.9493,-4463.4335L14694.5297,-4463.0001L14693.8507,-4461.8134L14693.6005,-4461.2133L14693.4204,-4461.0199L14693.7195,-4460.5465L14693.5394,-4459.6535L14693.3395,-4458.8467L14693.3395,-4458.6533L14693.4402,-4458.0467L14694.0903,-4457.5466L14695.4697,-4455.36L14694.9799,-4454.5734L14692.5598,-4452.6134L14691.5497,-4452.2598L14691.0095,-4452.2469L14690.8295,-4452.2667L14690.2298,-4452.1667L14690.0192,-4452.1667L14689.83,-4452.0466L14689.6301,-4452.0599L14689.4302,-4451.8002L14689.1495,-4451.8002L14688.8504,-4451.4069L14687.9593,-4450.3201L14687.2299,-4449.5533L14687.1796,-4449.2332L14687.1796,-4449.1402L14687.1796,-4449.1199L14687.1796,-4448.9666L14687.1796,-4448.6534L14687.1796,-4448.6198L14687.1796,-4448.5001L14687.1796,-4448.4135L14687.1796,-4448.3799L14687.1796,-4448.3265L14687.1796,-4448.1464L14686.9095,-4447.9134L14686.5799,-4447.34L14686.0992,-4446.6667L14686.2991,-4446.1067L14686.0001,-4445.8134L14685.9695,-4445.7466L14686.2701,-4445.7401L14686.0992,-4445.4399L14686.5204,-4444.7666L14686.5005,-4444.6064L14686.7996,-4444.4801L14687.0407,-4444.2467L14687.1201,-4444.1864L14687.1796,-4444.1265L14687.2498,-4444.1265L14687.5305,-4443.9468L14687.7792,-4443.8801L14688.5391,-4443.84L14688.9893,-4443.8332L14689.09,-4443.7199L14689.3295,-4443.6733L14689.7995,-4443.6466L14689.9399,-4443.5333L14690.3793,-4443.4601L14691.4398,-4443.0668L14692.1494,-4443.1133L14692.8802,-4443.2201L14692.9398,-4443.1534L14693.6203,-4443.0199L14693.7195,-4442.9867L14695.2698,-4442.6533L14696.2601,-4443.1065L14697.1405,-4443.5131L14697.7402,-4444.0998L14697.9797,-4444.3134L14698.4207,-4444.7468L14698.88,-4445.1801L14698.9792,-4445.1935L14699.0906,-4445.3331L14699.3698,-4445.4533L14699.0906,-4445.8199L14699.3195,-4446.5801L14699.6796,-4447.2466L14700.6409,-4448.4669L14700.8209,-4449.0532L14701.8097,-4450.3201L14702.9694,-4451.9066L14704.7897,-4453.6133L14706.1508,-4454.1401L14706.0196,-4454.4735L14708.1207,-4455.9734L14710.6094,-4456.9466L14711.2106,-4456.9267L14712.1796,-4456.4934L14713.3194,-4456.1001L14714.4608,-4455.92L14715.2206,-4456.1264L14715.39,-4456.0333L14716.33,-4456.3866L14716.7999,-4456.3465L14719.0598,-4456.9866L14719.7006,-4456.9935L14720.3003,-4456.9733L14720.5795,-4456.7467L14721.1105,-4457.4398L14721.4096,-4457.6267L14722.1603,-4458.1734L14722.6105,-4458.4198L14722.7707,-4458.6533L14723.8098,-4459.5001L14724.4003,-4459.6199L14724.4507,-4460.0334L14724.6796,-4460.0864L14725.5005,-4460.1666L14725.2396,-4460.3867L14725.1999,-4460.6731L14726.0803,-4461.4399L14726.3107,-4462.6865L14726.6296,-4463.4735L14726.7197,-4463.8733L14728.7094,-4466.2334L14729.6295,-4466.74L14730.1392,-4466.7465L14730.2399,-4466.8266L14730.1498,-4466.9868L14730.8197,-4467.9268L14730.9998,-4468.4399L14731.72,-4468.66L14731.6406,-4469.22L14732.3608,-4469.9131L14732.9102,-4469.9131L14733.0505,-4470.8534L14733.2993,-4471.0934L14733.6502,-4471.5466L14734.4604,-4471.6068L14734.7198,-4471.3531L14735.1303,-4471.5935L14734.7305,-4471.6267L14734.9106,-4472.0798L14735.4401,-4472.1802L14736.3297,-4472.2866L14736.5997,-4472.4735L14736.9995,-4472.34L14737.03,-4472.5132L14736.9797,-4472.9668L14737.1796,-4473.2136L14737.8708,-4473.4066L14737.6297,-4473.7469L14738.7497,-4474.6399L14739.4394,-4474.8734L14739.9292,-4474.8734L14740.1703,-4475.1133L14740.3305,-4475.2934L14740.3107,-4475.3201L14740.5304,-4475.5733L14742.4896,-4476.58L14743.2205,-4476.5133L14743.4998,-4476.5202L14744.0903,-4477.2934L14744.9295,-4477.5333L14745.2103,-4477.3869L14745.2896,-4477.7466L14746.5698,-4478.0533L14747.4197,-4478.0334L14748.3994,-4478.1868L14748.8892,-4478.2001L14749.6796,-4478.7868L14749.7678,-4479.1132L14749.8093,-4479.4731L14749.91,-4480.0999L14751.5594,-4481.1932L14753.3905,-4481.7066L14754.2404,-4481.5399L14754.8492,-4481.6799L14755.2399,-4481.7001L14755.5206,-4482.1266L14756.1096,-4482.1865L14756.5399,-4482.9468L14757.4997,-4483.5201L14757.6401,-4483.6533L14758.6304,-4484.2468L14758.9691,-4484.7L14759.8495,-4485.4668L14760.2295,-4486.7733L14760.9497,-4487.7068L14761.3693,-4488.1065L14761.8103,-4489.0469L14762.1796,-4489.2868L14763.4201,-4490.8001L14764.3997,-4491.6134L14765.2893,-4491.9868L14765.1901,-4492.5201L14764.2502,-4492.6868L14763.9801,-4492.68L14763.15,-4493.0332L14762.8906,-4493.0199L14762.1796,-4493.42L14761.3892,-4494.0266L14761.4502,-4494.9932L14762.1796,-4496.3066L14762.59,-4497.1802L14764.6103,-4498.8399L14766.3498,-4499.7601L14767.1082,-4500L14767.1082,-4500M14772.879,-4500L14772.879,-4500L14773.0804,-4499.4133L14772.9797,-4498.04L14774.6796,-4496.5534L14776.1993,-4495.8401L14777.5101,-4495.2534L14778.5202,-4494.8334L14780.0903,-4494.9532L14782.1304,-4495.5532L14783.7402,-4496.1399L14783.9905,-4496.1399L14785.26,-4496.5668L14785.4797,-4496.5199L14787.1094,-4496.5668L14787.1796,-4496.5401L14787.4695,-4496.4199L14788.5605,-4496.3135L14789.0106,-4496.8067L14789.1998,-4496.7998L14789.27,-4496.8132L14789.7202,-4496.8735L14790.0894,-4496.7731L14789.9597,-4496.3535L14789.7797,-4496.2933L14789.9002,-4496.0464L14789.9506,-4496.1735L14790.7593,-4496.1334L14791.5497,-4496.6667L14791.7206,-4496.5599L14791.5405,-4497.2198L14791.8198,-4497.2668L14792.2501,-4497.0867L14792.4805,-4497.4533L14792.3706,-4497.8066L14793.1396,-4498.2334L14793.5898,-4498.2601L14793.9697,-4498.5466L14794.1101,-4498.7801L14794.96,-4499.1066L14795.7901,-4499.4934L14796.2494,-4499.7799L14797.1222,-4500L14797.1222,-4500"/>
</g>
</svg>
