<?xml version="1.0" encoding="UTF-8"?>
<svg  xmlns="http://www.w3.org/2000/svg" xmlns:xlink="http://www.w3.org/1999/xlink" xmlns:go="http://purl.org/svgmap/profile" property="f_code,acc,exs,soc" viewBox="12375.0 -2812.5 562.5 562.5" go:dataArea="12375.0 -2812.5 562.5 562.5" >
<metadata>
 <rdf:RDF xmlns:rdf="http://www.w3.org/1999/02/22-rdf-syntax-ns#" xmlns:crs="http://opengis.org/xmldtds/transformations.dtd" xmlns:svg="http://www.w3.org/svg" >
  <rdf:Description>
   <crs:CoordinateReferenceSystem rdf:resource="http://purl.org/crs/84" svg:transform="matrix(100.0,0.0,0.0,-100.0,0.0,0.0)" />
  </rdf:Description>
 </rdf:RDF>
</metadata>
<globalCoordinateSystem srsName="http://purl.org/crs/84" transform="matrix(100.0,0.0,0.0,-100.0,0.0,0.0)" />
<defs>
 <g id="p0" >
  <circle cx="0.0" cy="0.0" r="3" stroke="green" stroke-width="2.0" vector-effect="non-scaling-stroke" />
 </g>
</defs>
<g fill="none" fill-rule="evenodd" stroke="#000000" stroke-width="2" opacity="0.5" vector-effect="non-scaling-stroke" stroke-linejoin="bevel" >
<path content="BA010,1,1,JPN" xlink:title="BA010" d="M12379.0802,-2404.4733L12379.4296,-2404.5532L12379.7997,-2404.76L12380.3696,-2404.9L12380.7297,-2405.6267L12380.8395,-2406.2334L12380.2498,-2406.6465L12378.5301,-2407.0601L12377.24,-2406.9201L12376.5297,-2406.58L12376.4297,-2406.6465L12375.7599,-2406.2401L12375.3998,-2406.2134L12375.2502,-2405.9933L12375.2098,-2405.1001L12375.9705,-2404.74L12377.6299,-2404.6267L12378.2204,-2404.5799L12379.0802,-2404.4733"/>
<path content="BA010,1,1,JPN" xlink:title="BA010" d="M12392.7002,-2420.8733L12393.2098,-2420.8799L12393.4998,-2421.5866L12393.1999,-2422.06L12392.6399,-2421.9667L12392.3401,-2421.9868L12391.9701,-2421.5799L12392.7002,-2420.8733"/>
<path content="BA010,1,1,JPN" xlink:title="BA010" d="M12393.5204,-2422.4068L12394.0598,-2422.5401L12395.3003,-2423.7667L12394.8601,-2424.18L12394.1498,-2423.6868L12393.75,-2423.3665L12393.5204,-2422.4068"/>
<path content="BA010,1,1,JPN" xlink:title="BA010" d="M12401.0704,-2421.9868L12402.71,-2423.1934L12402.7199,-2424.3732L12402.2003,-2424.8934L12401.7799,-2424.6134L12401.3802,-2424.6134L12399.8299,-2425.2867L12399.6803,-2425.2933L12398.9502,-2424.6599L12399.1402,-2423.6799L12399.6803,-2422.9L12400.28,-2422.0133L12401.0704,-2421.9868"/>
<path content="BA010,1,1,JPN" xlink:title="BA010" d="M12414.3402,-2432.8333L12414.92,-2432.9332L12414.8705,-2433.1934L12413.99,-2433.0534L12414.3402,-2432.8333"/>
<path content="BA010,1,1,JPN" xlink:title="BA010" d="M12408.0498,-2430.9668L12408.8905,-2431.1466L12409.79,-2431.8132L12409.2804,-2432.9733L12409.1103,-2433.4L12408.9905,-2433.3267L12408.58,-2433.6533L12408.1398,-2433.8133L12407.9399,-2433.6533L12407.6103,-2432.9401L12407.3006,-2432.3267L12407.56,-2431.2666L12408.0498,-2430.9668"/>
<path content="BA010,1,1,JPN" xlink:title="BA010" d="M12392.9398,-2434.0866L12393.28,-2434.1333L12393.38,-2434.2333L12393.3205,-2434.5734L12393.1801,-2434.3067L12392.9398,-2434.0866"/>
<path content="BA010,1,1,JPN" xlink:title="BA010" d="M12398.88,-2432.2933L12399.3301,-2432.3666L12399.6803,-2432.5001L12400.1999,-2432.7133L12399.9603,-2433.2867L12399.6803,-2433.4267L12399.1196,-2433.6533L12398.7595,-2434.2667L12399.1501,-2434.4999L12397.7402,-2435.2667L12397.0001,-2435.3333L12396.2097,-2434.8932L12396.3997,-2434.5533L12396.7796,-2434.0933L12396.7201,-2433.7601L12396.3196,-2433.6533L12395.5803,-2433.4801L12395.1904,-2433.5333L12395.1202,-2433.2132L12396.08,-2433.2533L12398.6099,-2432.8733L12398.88,-2432.2933"/>
<path content="BA010,1,1,JPN" xlink:title="BA010" d="M12400.0702,-2435.9934L12400.1999,-2436.1799L12399.6803,-2436.5667L12399.4499,-2436.24L12399.6803,-2436.0399L12400.0702,-2435.9934"/>
<path content="BA010,1,1,JPN" xlink:title="BA010" d="M12387.1796,-2425.44L12387.8899,-2425.5466L12388.0096,-2426.2333L12388.0203,-2426.4999L12388.1897,-2427.0134L12388.06,-2427.4601L12387.7197,-2427.6199L12388.1096,-2427.98L12388.9603,-2427.9133L12389.2097,-2427.7201L12389.6103,-2427.5734L12389.9498,-2427.28L12390.2802,-2427.4601L12390.1703,-2428.3466L12389.8697,-2429.62L12389.8102,-2430.1399L12389.9704,-2430.4399L12390.2298,-2430.8599L12390.48,-2431.2134L12390.9897,-2431.9067L12391.0599,-2432L12390.9699,-2432.3534L12391.0194,-2432.4266L12391.3704,-2432.48L12391.5497,-2432.3732L12392.3698,-2431.6465L12392.5697,-2431.4466L12392.6003,-2431.9401L12392.2997,-2432.4133L12392.6399,-2432.6601L12392.8101,-2432.6668L12392.5102,-2433.3334L12392.63,-2433.6533L12392.6003,-2434.3401L12392.8497,-2434.66L12393.28,-2434.7401L12393.6302,-2435.3201L12393.7904,-2435.8334L12393.7798,-2436.4265L12392.0601,-2436.5932L12391.6603,-2437.2732L12391.4398,-2437.8067L12390.5602,-2438.36L12390.0497,-2438.4333L12389.6896,-2438.3266L12388.9801,-2438.6734L12388.5498,-2438.2999L12387.9097,-2439.1399L12387.9204,-2439.92L12387.1796,-2440.2866L12386.66,-2440.3267L12386.3998,-2439.5599L12385.9604,-2439.4199L12385.3096,-2439.8867L12385.1898,-2440.2065L12384.6001,-2440.2933L12384.14,-2440.18L12383.1497,-2440.6401L12382.83,-2440.3866L12382.6302,-2439.7533L12382.2601,-2439.6334L12382.0396,-2439.7266L12381.6597,-2439.7266L12382.0801,-2439.5332L12381.9199,-2439.1066L12381.7497,-2439.1066L12381.4796,-2439.0867L12380.7701,-2440.0667L12380.9395,-2439.8933L12381.3499,-2439.8333L12380.8701,-2440.0398L12381.0501,-2440.9466L12379.9103,-2441.5266L12379.8599,-2441.9867L12379.1,-2442.6065L12378.0701,-2443.6466L12377.8603,-2443.6466L12377.1996,-2443.6132L12376.9997,-2443.6066L12376.87,-2443.6066L12376.2596,-2443.0401L12376.4397,-2442.4534L12376.6701,-2442.7399L12377.14,-2442.4732L12377.1996,-2441.9867L12376.9798,-2441.6466L12376.3603,-2441.5199L12375.9499,-2441.3401L12375.5798,-2440.6666L12375,-2440.2258M12375,-2440.0351L12375.2502,-2439.4333L12375,-2439.08M12375,-2437.6062L12375.1198,-2437.4266L12375,-2437.2978M12375,-2435.8018L12375.0999,-2435.7733L12375.2899,-2435.1067L12375.75,-2434.7134L12375.3502,-2434.7067L12375,-2434.8155M12375,-2428.1615L12375.4501,-2427.8732L12377.71,-2427.4067L12378.26,-2427.54L12380.5298,-2426.9133L12381.3904,-2426.96L12383.2397,-2427.0866L12384.8297,-2426.3266L12386.29,-2425.4868L12387.1796,-2425.44"/>
<path content="BA010,1,1,JPN" xlink:title="BA010" d="M12414.6301,-2445.0533L12414.8903,-2445.4866L12414.8598,-2445.5667L12414.7102,-2445.7468L12414.4302,-2445.9534L12414.36,-2445.4866L12414.6301,-2445.0533"/>
<path content="BA010,1,1,JPN" xlink:title="BA010" d="M12382.2899,-2446.7199L12382.4303,-2447.1533L12381.9298,-2447.5866L12381.3599,-2447.6133L12381.2401,-2447.22L12381.6696,-2446.76L12382.2899,-2446.7199"/>
<path content="BA010,1,1,JPN" xlink:title="BA010" d="M12417.3004,-2432.7932L12418.1702,-2432.9933L12418.8301,-2433.2067L12419.22,-2433.6533L12419.7899,-2434.3067L12419.5404,-2434.6733L12419.5801,-2435.1334L12420.7397,-2435.3001L12421.1403,-2435.3201L12421.4203,-2435.0267L12422.5098,-2434.3266L12423.4497,-2434.3401L12424.6498,-2435.7L12424.6803,-2436.6333L12424.9802,-2437.94L12424.9405,-2439.5666L12425.4303,-2441.14L12425.1503,-2441.9867L12424.6803,-2442.7334L12424.6803,-2443.0599L12424.9802,-2443.7067L12425.2098,-2443.7933L12425.4196,-2444.4532L12424.7398,-2445.0333L12424.8901,-2446.5134L12426.1902,-2447.9401L12426.6899,-2448.0734L12426.9699,-2448.4333L12427.7702,-2448.5733L12427.8603,-2450.3201L12428.2799,-2450.7601L12428.6804,-2451.0067L12429.3198,-2451.4334L12430.3299,-2452.5867L12430.4596,-2453.0201L12430.1003,-2453.3266L12430.04,-2454.3133L12431.1699,-2455.4934L12431.4598,-2455.5866L12431.5796,-2455.62L12431.9504,-2455.8933L12432.4097,-2456.3534L12432.7904,-2456.6401L12433.3298,-2457.4734L12433.5098,-2458.2533L12433.7097,-2458.5667L12433.5899,-2458.6533L12433.3397,-2459.5667L12433.5098,-2459.9066L12433.5518,-2460.2715L12431.7398,-2460.5801L12431.1798,-2460.9667L12430.8098,-2460.6867L12430.6801,-2459.0134L12430.5603,-2458.6533L12429.7897,-2457.6267L12429.2397,-2456.6799L12428.3897,-2456.2067L12427.89,-2455.76L12428.1601,-2455.3467L12428.7697,-2454.8666L12429.0703,-2454.3533L12429.0802,-2453.8733L12428.73,-2453.7399L12428.6102,-2453.7468L12428.2104,-2453.2467L12428.0304,-2452.5066L12427.4498,-2451.1133L12427.5406,-2450.4534L12427.3499,-2450.3201L12427.1301,-2450.2399L12427.1202,-2450.3201L12426.7799,-2450.5867L12426.7303,-2450.6466L12426.1803,-2451.3466L12425.2998,-2451.7532L12424.6803,-2450.98L12424.25,-2450.3666L12424.2302,-2450.3201L12423.4802,-2449.6265L12422.6997,-2449.6201L12422.5204,-2449.7133L12422.58,-2448.9332L12422.67,-2448.4865L12422.5204,-2448.5065L12421.9498,-2447.4733L12421.7499,-2446.64L12422.2099,-2446.4132L12422.1603,-2445.5534L12421.8102,-2445.2665L12421.3303,-2445.2534L12421.1601,-2445.3533L12420.8801,-2445.3466L12420.62,-2445.2801L12420.0699,-2445.5801L12419.8998,-2445.5866L12419.5404,-2445.48L12418.8904,-2445.5067L12418.2404,-2445.1933L12417.5499,-2444.6667L12417.0898,-2444.7065L12417.07,-2444.6733L12415.3,-2445.1866L12415.11,-2445.1866L12414.9605,-2445.1866L12413.8603,-2444.2333L12413.6498,-2444.0065L12413.1004,-2444.5932L12413.5399,-2444.7733L12413.7398,-2444.9333L12413.5902,-2445.2133L12413.8397,-2445.7468L12414.0404,-2446.1733L12413.43,-2447.0533L12412.6602,-2447.4733L12412.1803,-2447.64L12411.3899,-2448L12411.2602,-2448L12410.9406,-2447.6267L12411.1603,-2447.4266L12411.5501,-2447.4199L12412.1498,-2446.9267L12412.1803,-2446.8466L12412.1803,-2446.6267L12411.8301,-2446.2933L12411.3197,-2446.0533L12411.6104,-2444.4601L12411.1099,-2444.3266L12410.92,-2444.3333L12410.45,-2444.2066L12410.2501,-2444.36L12410.1601,-2444.6266L12409.6603,-2445.0733L12409.5802,-2445.1401L12409.33,-2445.12L12408.8501,-2445.1401L12408.2405,-2445.0001L12408.0704,-2445.0132L12407.9399,-2445.0068L12407.5302,-2445.1265L12407.3799,-2445.12L12407.5302,-2444.7332L12407.6202,-2444.6266L12407.1999,-2443.8L12406.8298,-2443.4799L12406.6399,-2443.0134L12406.7802,-2442.5734L12407.56,-2442.1734L12407.65,-2441.9867L12408.1802,-2441.3933L12408.4,-2441.9867L12409.8801,-2443.0866L12410.7201,-2443.0401L12410.9406,-2442.8133L12411.2999,-2443.2266L12411.9904,-2443.0866L12412.1803,-2442.5333L12412.8601,-2441.9867L12413.1104,-2441.2998L12413.99,-2441.1133L12413.9305,-2440.32L12413.6299,-2439.7133L12413.7802,-2439.04L12413.1599,-2438.1599L12412.3299,-2437.5999L12412.1803,-2437.5933L12411.7401,-2437.6133L12411.0001,-2436.8532L12410.82,-2436.3199L12412.1498,-2435.42L12412.1803,-2435.4465L12413.4399,-2435.1267L12414.1106,-2434.84L12414.2097,-2434.5667L12414.64,-2434.14L12414.4005,-2433.7933L12414.4302,-2433.6533L12414.4501,-2433.5199L12414.9796,-2433.5733L12415.0002,-2433.44L12415.3801,-2433.56L12416.05,-2433.12L12416.0599,-2433.0334L12416.2102,-2433.0601L12417.3004,-2432.7932"/>
<path content="BA010,1,1,JPN" xlink:title="BA010" d="M12469.0598,-2463.9666L12470.33,-2464.0266L12471.3402,-2464.6933L12471.6202,-2464.5065L12471.4996,-2464.7934L12472.1596,-2465.5333L12472.02,-2466.84L12471.8399,-2466.9867L12470.6398,-2467.52L12468.8599,-2467.84L12467.5598,-2467.42L12466.9701,-2466.9867L12466.4696,-2466.1467L12466.8297,-2464.6467L12467.3996,-2464.2334L12469.0598,-2463.9666"/>
<path content="BA010,1,1,JPN" xlink:title="BA010" d="M12524.6803,-2471.2667L12525.4402,-2471.5935L12525.5104,-2472.1067L12525.1602,-2472.5401L12524.6803,-2472.8468L12523.9098,-2473.1068L12523.6702,-2471.8933L12524.3401,-2471.2933L12524.6803,-2471.2667"/>
<path content="BA010,1,1,JPN" xlink:title="BA010" d="M12469.9699,-2474.6468L12470.0203,-2474.8667L12469.8303,-2475.3201L12469.5999,-2475.6065L12469.4702,-2475.5867L12468.6302,-2476.3201L12467.5797,-2475.9201L12468.4395,-2475.3201L12469.9699,-2474.6468"/>
<path content="BA010,1,1,JPN" xlink:title="BA010" d="M12518.1198,-2481.1268L12517.2691,-2481.2742L12515.6372,-2483.1846L12515.5075,-2483.1659L12515.7021,-2482.7765L12515.3679,-2482.7673L12515.3305,-2483.12L12515.1001,-2483.0732L12514.55,-2483.2533L12514.46,-2483.3668L12514.27,-2483.6534L12514.1197,-2484.1333L12513.7703,-2484.1801L12513.7901,-2483.6534L12513.6803,-2483.6534L12513.34,-2483.44L12513.3202,-2482.7868L12513.43,-2482.7333L12513.62,-2482.6733L12513.2797,-2482.3935L12513.52,-2482.1733L12513.7001,-2482.3267L12513.7001,-2481.7801L12513.7802,-2481.3999L12513.9999,-2481.46L12513.9397,-2481.3066L12514.27,-2481.3665L12514.1899,-2481.0865L12514.3303,-2480.8866L12514.3303,-2480.7867L12514.3799,-2480.6868L12514.4798,-2480.6467L12514.7499,-2480.6467L12514.7499,-2480.5733L12515.1001,-2480.4934L12515.3702,-2480.4333L12516.1499,-2480.2134L12516.42,-2480.2532L12516.7503,-2480.34L12516.7503,-2480.4068L12516.8503,-2480.36L12517.3103,-2480.92L12517.5201,-2481.1466L12517.5804,-2481.0734L12518.1198,-2481.1268"/>
<path content="BA010,1,1,JPN" xlink:title="BA010" d="M12518.1198,-2481.1268L12518.8103,-2480.7734L12519.2505,-2480.5466L12519.8898,-2480.4399L12519.9203,-2480.2799L12519.9501,-2480.48L12520.4903,-2480.4333L12521.4897,-2480.6868L12521.9101,-2481.4068L12521.7499,-2482.7267L12521.2601,-2483.6534L12521.0403,-2484.1734L12520.7802,-2484.5934L12520.24,-2484.7933L12519.2596,-2485.2068L12517.72,-2486.1L12516.14,-2486.5L12516.0698,-2486.3466L12515.9798,-2486.3535L12515.4999,-2485.7267L12515.6601,-2484.6268L12515.6616,-2483.9958L12515.377,-2483.8429L12515.4327,-2483.6111L12515.7204,-2483.639L12515.818,-2483.461L12516.2582,-2483.231L12516.2216,-2482.7211L12516.9815,-2482.1646L12518.1198,-2481.1268"/>
<path content="BA010,1,1,JPN" xlink:title="BA010" d="M12530.6,-2471.1468L12531.5605,-2471.2801L12531.5697,-2471.3533L12531.9901,-2471.7535L12531.9298,-2471.8201L12532.0801,-2471.8L12532.2403,-2471.6734L12532.7003,-2471.9267L12533.7502,-2471.7333L12533.9897,-2471.7535L12534.0401,-2471.9133L12534.5299,-2472.0068L12534.8999,-2472.1533L12535.6606,-2472.2799L12535.6102,-2472.36L12536.0703,-2472.4268L12536.3297,-2472.5735L12536.8904,-2472.8933L12537.1803,-2472.7133L12537.5504,-2472.4934L12538.1699,-2472.5401L12539.0099,-2472.86L12539.6599,-2472.8867L12540.1802,-2472.8535L12540.5205,-2472.88L12541.7198,-2472.7068L12542.4202,-2472.6334L12543.0901,-2472.9134L12543.5905,-2472.8268L12543.9903,-2472.8268L12544.4603,-2472.4667L12544.7899,-2472.64L12544.9905,-2473.0066L12545.4498,-2472.8733L12546.5103,-2471.8599L12546.73,-2471.8866L12545.6902,-2472.7867L12545.2103,-2473.48L12544.0804,-2474.6799L12543.9003,-2475.3201L12542.9604,-2476.0799L12542.2798,-2476.0134L12541.6504,-2476.3266L12541.2201,-2476.3332L12540.9904,-2476.3266L12540.3099,-2476.6533L12540.02,-2476.6001L12538.8702,-2477.5866L12538.5399,-2478.4134L12537.5099,-2478.9133L12537.1803,-2479.0199L12536.57,-2479.1668L12536.1198,-2478.8532L12535.5202,-2478.8267L12535.26,-2478.8601L12534.3002,-2479.5732L12534.1599,-2479.5601L12533.2397,-2479.9133L12532.8804,-2481.1132L12533.0498,-2481.8001L12533.3199,-2482.18L12532.37,-2482.9201L12532.1899,-2482.9599L12531.2798,-2483.5068L12531.1104,-2483.6534L12530.4298,-2484.8467L12530.2605,-2486.5133L12529.6303,-2487.7666L12529.5403,-2487.8334L12529.3602,-2487.6667L12528.4203,-2488.0867L12528.27,-2488.52L12528.1502,-2488.48L12527.9098,-2489.36L12526.9699,-2490.3334L12526.8105,-2490.76L12526.6502,-2490.2666L12526.2398,-2490.2067L12525.4402,-2490.9599L12525.2899,-2490.98L12525.9499,-2490.2866L12526.3702,-2489.72L12526.9501,-2489.0734L12526.9402,-2488.4268L12527.0401,-2488.2801L12527.1706,-2487.9932L12527.2301,-2487.8532L12527.2903,-2487.6734L12527.6703,-2487.4666L12527.5497,-2487.38L12527.7199,-2487.22L12527.8404,-2486.9932L12528.2303,-2486.22L12528.4698,-2485.7666L12528.8002,-2485.5801L12529.4304,-2484.54L12529.2206,-2484.1801L12529.38,-2483.6534L12529.2999,-2483.5934L12529.3098,-2483.6534L12529.2702,-2483.6534L12529.1702,-2483.6065L12529.1901,-2483.6534L12529.0901,-2483.7667L12528.8704,-2483.7667L12528.3905,-2484.3401L12528.3501,-2483.88L12527.98,-2484.1133L12527.52,-2483.6534L12527.6703,-2482.9065L12527.8999,-2481.6334L12527.8603,-2481.4333L12527.9098,-2481.1399L12527.61,-2481.3L12527.4902,-2481.16L12527.7298,-2480.9799L12527.6802,-2480.76L12527.52,-2480.8266L12527.3903,-2480.7068L12527.2804,-2480.7934L12527.2804,-2480.5532L12526.7204,-2480.2L12526.5602,-2480.2799L12526.3496,-2479.8668L12526.1398,-2479.8532L12525.9705,-2479.9932L12525.6599,-2479.4933L12525.5203,-2479.4867L12525.4601,-2478.8134L12525.7904,-2478.3667L12526.1902,-2478.34L12526.6098,-2478.2534L12527.52,-2477.2734L12527.6199,-2477.0267L12528.0899,-2475.9399L12528.1105,-2475.42L12528.1799,-2475.3201L12528.1303,-2475.0935L12527.5101,-2474.9134L12527.2202,-2475.2268L12527.2804,-2474.9933L12527.2301,-2474.7267L12526.9104,-2474.9001L12526.7799,-2475.2199L12526.7097,-2475.1534L12526.5297,-2475.12L12526.4,-2475.1133L12526.31,-2475.3201L12525.8301,-2476.0666L12526.0399,-2476.7866L12525.8904,-2476.8066L12525.6104,-2476.16L12525.19,-2475.6134L12525.0702,-2475.54L12525.1602,-2475.3201L12525.8202,-2474.02L12526.0399,-2473.4467L12526.7097,-2473.1533L12527.2697,-2472.7533L12527.6604,-2472.4667L12527.8999,-2472.5332L12528.7498,-2472.1733L12529.3304,-2471.8468L12529.4205,-2472.0467L12529.7401,-2471.7133L12530.3902,-2471.2866L12530.4901,-2471.4333L12530.6,-2471.1468"/>
<path content="BA010,1,1,JPN" xlink:title="BA010" d="M12530.5801,-2491.2533L12530.6503,-2491.3134L12530.7899,-2491.6332L12530.41,-2491.8934L12530.4001,-2491.5068L12530.5801,-2491.2533"/>
<path content="BA010,1,1,JPN" xlink:title="BA010" d="M12524.6506,-2491.9867L12524.6803,-2492.2268L12524.6803,-2492.3532L12524.5003,-2492.5867L12524.6803,-2492.5533L12524.6803,-2492.5934L12524.6803,-2492.6132L12525.0298,-2492.4133L12525.3899,-2492.4534L12524.6803,-2493.4601L12524.0402,-2493.8133L12523.7297,-2493.8066L12523.5497,-2493.8133L12522.9401,-2493.4L12523.23,-2492.7866L12524.0303,-2492.2667L12524.2302,-2492.16L12524.4598,-2492.1333L12524.6002,-2491.9867L12524.6506,-2491.9867"/>
<path content="BA010,1,1,JPN" xlink:title="BA010" d="M12777.2903,-2612.7068L12777.43,-2613.1001L12776.9997,-2613.1001L12776.8501,-2612.7466L12777.2903,-2612.7068"/>
<path content="BA010,1,1,JPN" xlink:title="BA010" d="M12734.0897,-2613.8533L12734.1896,-2613.88L12734.4299,-2614.2468L12734.5398,-2614.4068L12734.2499,-2614.5267L12734.1301,-2614.36L12734.0096,-2613.94L12734.0897,-2613.8533"/>
<path content="BA010,1,1,JPN" xlink:title="BA010" d="M12728.9001,-2615.5466L12728.9696,-2615.5733L12728.8704,-2615.6799L12728.7903,-2615.56L12728.9001,-2615.5466"/>
<path content="BA010,1,1,JPN" xlink:title="BA010" d="M12727.1904,-2615.5001L12727.2903,-2615.5399L12727.3003,-2615.6134L12727.2499,-2615.6868L12727.0699,-2615.5533L12727.1904,-2615.5001"/>
<path content="BA010,1,1,JPN" xlink:title="BA010" d="M12733.6899,-2615.8535L12733.86,-2616.3067L12733.8699,-2616.3868L12733.6502,-2616.2333L12733.67,-2616.1467L12733.5999,-2615.9933L12733.6899,-2615.8535"/>
<path content="BA010,1,1,JPN" xlink:title="BA010" d="M12788.3499,-2615.1268L12790.8897,-2616.9867L12790.76,-2617.1066L12790.5899,-2616.9867L12790.1802,-2616.74L12789.9498,-2616.7534L12789.09,-2616.2933L12788.4399,-2615.8535L12788.2301,-2615.6799L12788.3202,-2615.3933L12788.4804,-2615.34L12788.3499,-2615.1268"/>
<path content="BA010,1,1,JPN" xlink:title="BA010" d="M12729.11,-2616.0067L12729.5197,-2616.9266L12729.4899,-2616.9867L12729.1801,-2617.4267L12728.8101,-2616.9867L12728.7399,-2616.9201L12728.7201,-2616.5333L12729.11,-2616.0067"/>
<path content="BA010,1,1,JPN" xlink:title="BA010" d="M12724.0097,-2616.2001L12724.0097,-2616.9867L12724.1997,-2617.5867L12723.5001,-2618.12L12723.4703,-2617.7799L12723.1995,-2617.4601L12723.2498,-2616.9867L12723.13,-2616.5867L12723.1201,-2616.3334L12723.23,-2616.2468L12723.6198,-2616.3334L12724.0097,-2616.2001"/>
<path content="BA010,1,1,JPN" xlink:title="BA010" d="M12728.5698,-2617.5266L12729.0398,-2617.5934L12729.2198,-2617.5467L12729.4395,-2617.6733L12729.39,-2617.8133L12729.0604,-2618.5667L12728.5599,-2618.66L12728.4302,-2618.6535L12728.1799,-2618.1601L12728.5698,-2617.5266"/>
<path content="BA010,1,1,JPN" xlink:title="BA010" d="M12737.6701,-2619.6066L12737.78,-2619.64L12737.7998,-2619.8601L12737.4504,-2619.8801L12737.6701,-2619.6066"/>
<path content="BA010,1,1,JPN" xlink:title="BA010" d="M12727.5101,-2618.5934L12728.0502,-2618.8932L12728.1303,-2618.8133L12728.3104,-2618.8866L12728.7796,-2619.3399L12729.0398,-2619.3333L12729.1298,-2619.4601L12728.1303,-2620.7399L12727.9999,-2620.8935L12727.9099,-2621.2334L12727.1698,-2620.76L12727.05,-2620.7666L12726.5999,-2620.0068L12726.4,-2619.6533L12726.49,-2619.6001L12726.6701,-2619.4534L12726.7097,-2619.3201L12727.0401,-2619.6335L12727.1996,-2619.5801L12727.4696,-2619.4067L12727.4002,-2618.96L12727.5101,-2618.5934"/>
<path content="BA010,1,1,JPN" xlink:title="BA010" d="M12731.2103,-2619.7533L12731.5804,-2620.3733L12730.9601,-2620.9267L12730.9097,-2621.24L12730.7297,-2621.5666L12730.9601,-2619.8133L12731.2103,-2619.7533"/>
<path content="BA010,1,1,JPN" xlink:title="BA010" d="M12728.6598,-2621.6L12728.6697,-2621.74L12728.3699,-2621.9534L12728.2196,-2621.8134L12728.6598,-2621.6"/>
<path content="BA010,1,1,JPN" xlink:title="BA010" d="M12724.1898,-2620.7666L12724.6796,-2621.2L12724.8398,-2622.18L12724.7101,-2622.2334L12724.6796,-2622.2467L12724.1898,-2622.0333L12723.9601,-2622.06L12723.8701,-2621.8866L12723.8502,-2621.0199L12724.1898,-2620.7666"/>
<path content="BA010,1,1,JPN" xlink:title="BA010" d="M12743.9102,-2619.9667L12744.2001,-2620.0399L12744.2802,-2620.0201L12744.5702,-2620.36L12744.59,-2620.4332L12744.9402,-2621.2601L12745.4399,-2621.9133L12745.4102,-2622.0333L12745.0104,-2622.4466L12744.6602,-2621.8866L12744.3901,-2621.2801L12743.7302,-2620.1265L12743.9102,-2619.9667"/>
<path content="BA010,1,1,JPN" xlink:title="BA010" d="M12734.7603,-2614.5134L12734.79,-2614.8333L12735.1997,-2615.5933L12735.6903,-2615.6L12735.8002,-2615.5268L12736.19,-2615.6265L12735.9604,-2616.9867L12735.7803,-2618.14L12736.6997,-2618.7733L12736.9499,-2618.8665L12737.03,-2618.9667L12736.9003,-2619.3266L12736.85,-2619.7666L12736.6402,-2619.7201L12736.6798,-2619.98L12737.1796,-2620.1532L12737.1796,-2620.7468L12737.0598,-2621.3266L12736.7401,-2621.9465L12735.7903,-2622.4533L12735.63,-2622.4533L12735.5003,-2622.5401L12735.2203,-2622.46L12735.2699,-2622.1399L12735.2798,-2621.5334L12734.7397,-2620.9467L12734.7702,-2620.4134L12734.4299,-2619.9533L12734.3002,-2619.0001L12734.6397,-2618.56L12734.2102,-2618.2734L12733.9203,-2618.38L12733.8402,-2618.0666L12733.9996,-2617.0334L12733.9401,-2616.9867L12733.9996,-2616.9065L12734.52,-2616.8865L12734.61,-2616.4665L12734.4002,-2615.8867L12734.4498,-2615.7133L12734.3597,-2615.0066L12734.4398,-2614.6465L12734.7603,-2614.5134"/>
<path content="BA010,1,1,JPN" xlink:title="BA010" d="M12745.0699,-2622.6267L12745.0996,-2622.9067L12744.96,-2623.3665L12744.77,-2623.0667L12745.0699,-2622.6267"/>
<path content="BA010,1,1,JPN" xlink:title="BA010" d="M12736.5898,-2622.3267L12736.7699,-2622.3734L12736.8095,-2622.4733L12737.1002,-2622.9734L12736.7096,-2623.6134L12736.5501,-2623.0667L12736.5799,-2622.48L12736.5898,-2622.3267"/>
<path content="BA010,1,1,JPN" xlink:title="BA010" d="M12745.43,-2623.6935L12745.7703,-2623.8934L12745.7603,-2623.9668L12745.5597,-2624.1266L12745.43,-2623.6935"/>
<path content="BA010,1,1,JPN" xlink:title="BA010" d="M12730.3696,-2621.8533L12730.6602,-2621.8666L12730.9196,-2622.4533L12731.4301,-2622.5599L12731.1501,-2623.1333L12731.0303,-2623.4066L12731.0402,-2623.7534L12731.8703,-2623.9265L12732.0099,-2623.3601L12732.0198,-2622.9334L12732.5699,-2623.14L12733.1802,-2622.7867L12733.0498,-2623.2201L12732.7599,-2623.18L12732.65,-2623.5733L12733.0696,-2623.9668L12732.9498,-2623.9401L12732.3502,-2624.3866L12731.7497,-2624.6332L12731.62,-2624.6532L12731.2202,-2624.5001L12730.9998,-2624.84L12730.97,-2625.0467L12730.8304,-2625.0799L12730.6602,-2624.8133L12730.5595,-2624.6201L12730.4298,-2624.6332L12730.6702,-2624.2533L12730.2803,-2623.7932L12729.9103,-2623.7734L12729.4601,-2624.1467L12729.2,-2623.7133L12729.0298,-2623.4066L12728.7598,-2623.3334L12728.2501,-2623.1867L12728.1097,-2623.2599L12728.0998,-2623.1934L12728.0601,-2622.9868L12728.2196,-2622.6934L12729.1702,-2622.5599L12729.5403,-2622.34L12729.66,-2622.5134L12729.8401,-2622.3801L12729.7501,-2622.6534L12730.04,-2622.6067L12730.2704,-2622.4667L12730.13,-2622.3L12729.9698,-2622.32L12730.3696,-2621.8533"/>
<path content="BA010,1,1,JPN" xlink:title="BA010" d="M12740.5998,-2624.7267L12740.3603,-2625.3201L12740.2496,-2625.4801L12740.1299,-2625.5667L12739.9902,-2625.5068L12740.0703,-2625.3201L12740.3397,-2624.8266L12740.5998,-2624.7267"/>
<path content="BA010,1,1,JPN" xlink:title="BA010" d="M12794.1704,-2624.1066L12794.2299,-2624.6L12794.5503,-2624.8533L12794.4901,-2625.3201L12794.6198,-2625.82L12794.2505,-2626.1601L12793.6104,-2626.1801L12793.7103,-2625.3201L12793.2701,-2624.5867L12793.6401,-2624.4267L12793.8103,-2624.2132L12794.1704,-2624.1066"/>
<path content="BA010,1,1,JPN" xlink:title="BA010" d="M12757.8697,-2626.0134L12758.3504,-2626.2533L12758.1001,-2626.2533L12757.7995,-2626.0933L12757.8697,-2626.0134"/>
<path content="BA010,1,1,JPN" xlink:title="BA010" d="M12757.6599,-2625.82L12757.7202,-2626.4267L12757.3204,-2625.8934L12757.5401,-2625.8266L12757.6599,-2625.82"/>
<path content="BA010,1,1,JPN" xlink:title="BA010" d="M12754.1595,-2626.3201L12754.5799,-2626.44L12755.32,-2626.38L12754.7401,-2626.6001L12754.2,-2626.6001L12753.9299,-2626.4868L12754.1595,-2626.3201"/>
<path content="BA010,1,1,JPN" xlink:title="BA010" d="M12799.0196,-2629.7667L12799.4499,-2630.06L12799.3401,-2630.1735L12799.0898,-2630.2999L12798.8197,-2630.2134L12798.7801,-2629.9067L12799.0196,-2629.7667"/>
<path content="BA010,1,1,JPN" xlink:title="BA010" d="M12792.91,-2631.2468L12792.3904,-2632.16L12791.79,-2632.2134L12791.6702,-2632L12791.88,-2631.6666L12792.4103,-2631.5666L12792.91,-2631.2468"/>
<path content="BA010,1,1,JPN" xlink:title="BA010" d="M12795.8702,-2630.8399L12795.89,-2631.2799L12796.1197,-2631.6666L12796.55,-2631.74L12796.6599,-2632.2001L12796.5797,-2632.1199L12795.6001,-2632.6935L12795.4803,-2632.74L12795.15,-2632.6601L12795.0401,-2632.7133L12795.0302,-2632L12795.2797,-2631.2733L12795.61,-2630.9532L12795.8702,-2630.8399"/>
<path content="BA010,1,1,JPN" xlink:title="BA010" d="M12685.1402,-2633.6533L12685.4004,-2633.8467L12685.0105,-2633.6533L12685.1402,-2633.6533"/>
<path content="BA010,1,1,JPN" xlink:title="BA010" d="M12686.1603,-2633.88L12686.3998,-2634L12686.2602,-2634.02L12685.8299,-2633.88L12686.1603,-2633.88"/>
<path content="BA010,1,1,JPN" xlink:title="BA010" d="M12682.4997,-2633.5133L12683.3504,-2633.5733L12683.2901,-2633.6533L12683.02,-2633.9468L12682.8003,-2634.1801L12682.6599,-2634.2066L12682.1396,-2633.7868L12681.9298,-2633.68L12681.8703,-2633.6533L12682.4997,-2633.5133"/>
<path content="BA010,1,1,JPN" xlink:title="BA010" d="M12684.14,-2633.6533L12683.9699,-2634.2333L12683.6502,-2634.2867L12683.5304,-2633.6533L12683.7204,-2633.6533L12684.1103,-2633.6533L12684.14,-2633.6533"/>
<path content="BA010,1,1,JPN" xlink:title="BA010" d="M12785.3508,-2632.464L12784.3842,-2632.7057L12784.169,-2632.9197L12783.9592,-2632.7578L12784.0836,-2632.6271L12784.0584,-2632.6103L12783.725,-2632.9517L12783.8463,-2633.1036L12784.1103,-2633.316L12784.3094,-2633.4297L12784.5459,-2633.5314L12784.8862,-2633.6447L12785.5431,-2634.1555L12786.1755,-2634.3596L12786.4555,-2634.067L12786.8355,-2633.5953L12786.9804,-2633.0017L12786.6425,-2632.7312L12786.1244,-2633.2457L12786.0451,-2633.2541L12786.023,-2633.2371L12785.8749,-2633.4345L12785.8437,-2633.4652L12785.4317,-2633.1451L12785.4263,-2633.1104L12785.5934,-2632.9458L12785.6186,-2632.9626L12785.5095,-2633.0952L12785.7918,-2632.8236L12785.5499,-2632.6262L12785.3508,-2632.464"/>
<path content="BA010,1,1,JPN" xlink:title="BA010" d="M12688.5902,-2634.4133L12688.9801,-2634.8534L12689.64,-2635.0065L12689.1403,-2634.98L12688.9702,-2635L12688.1805,-2634.4601L12687.9799,-2634.4801L12687.8098,-2634.4801L12687.6701,-2634.4666L12687.5504,-2634.5068L12687.2902,-2634.5068L12687.1796,-2634.4999L12687.0102,-2634.4999L12687.0499,-2634.4465L12687.1796,-2634.44L12688.5902,-2634.4133"/>
<path content="BA010,1,1,JPN" xlink:title="BA010" d="M12773.9469,-2635.592L12774.0402,-2634.96L12774.1898,-2635.0065L12774.2401,-2635.14L12774.3599,-2634.8L12774.4499,-2634.1932L12774.5201,-2633.7734L12774.3698,-2633.6533L12774.3599,-2633.3933L12774.1402,-2633.2933L12774.5796,-2632.1667L12774.6796,-2632.1199L12774.9199,-2632.0066L12775.2403,-2632.32L12775.3998,-2632.2533L12775.3899,-2632.34L12775.5898,-2632.1199L12775.4204,-2632.0467L12775.5402,-2631.7266L12775.2197,-2631.4734L12775.4402,-2631.0333L12775.8797,-2630.8599L12775.5699,-2629.4399L12774.9199,-2628.9267L12774.6796,-2628.9066L12774.0501,-2628.3466L12773.7999,-2628.3133L12773.9502,-2628.2801L12773.9998,-2628.0733L12773.7801,-2628.0466L12773.6801,-2628.2734L12773.1003,-2628.1L12772.6501,-2627.8666L12772.95,-2627.8801L12772.9103,-2627.6934L12772.7501,-2627.8133L12772.9797,-2627.3867L12772.4098,-2627.0134L12772.1901,-2627.1465L12771.8704,-2627.0067L12771.8597,-2627.3132L12771.4005,-2627.2867L12771.3799,-2627.3933L12771.0899,-2627.26L12770.9503,-2627.0533L12770.6902,-2627.3001L12769.9997,-2626.4999L12769.59,-2625.9933L12769.0697,-2625.4665L12768.4402,-2625.58L12768.4402,-2625.3201L12768.4402,-2625.1667L12768.2396,-2625.16L12768.2304,-2624.9332L12768.94,-2624.6466L12768.3998,-2624.7801L12768.38,-2624.2201L12767.9901,-2624.3334L12767.8497,-2624.3267L12767.6102,-2624.5399L12767.3698,-2624.5466L12767.3698,-2624.98L12767.63,-2624.9933L12767.2997,-2625.0134L12766.7603,-2624.5533L12766.7999,-2624.3532L12767.1303,-2624.3532L12767.1196,-2623.3999L12767.3203,-2623.3534L12767.3798,-2623.9468L12767.5804,-2623.9468L12767.6804,-2623.58L12767.8001,-2623.9401L12767.9001,-2623.02L12767.6804,-2622.9668L12767.8001,-2622.6801L12767.8001,-2622.8933L12767.9703,-2622.8933L12767.9703,-2622.5933L12768.2503,-2622.46L12768.0702,-2622.36L12767.73,-2622.5401L12767.0799,-2622.18L12766.9998,-2622.0533L12766.3101,-2621.7867L12766.1499,-2621.5334L12766.61,-2621.1599L12766.4703,-2621.18L12767.0998,-2620.8267L12767.2997,-2620.9133L12767.2699,-2620.68L12766.9899,-2620.7333L12767.0303,-2620.6934L12767.0601,-2620.4933L12766.1896,-2621.2133L12766.0797,-2621.1866L12766.1003,-2621.2732L12765.9698,-2621.2732L12765.39,-2621.4201L12765.0604,-2621.7068L12764.5401,-2621.3865L12764.3898,-2621.1L12764.0198,-2620.7001L12764.0099,-2620.2267L12763.5399,-2619.7733L12764.2502,-2618.82L12764.1899,-2617.6001L12763.8702,-2617.6266L12764.1998,-2617.28L12765.1199,-2617.4801L12765.4503,-2617.2466L12764.7896,-2617.3134L12764.74,-2616.9867L12764.7499,-2616.84L12765.1802,-2616.84L12765.3586,-2616.1485L12764.5985,-2615.6657L12764.4577,-2615.4879L12764.6689,-2615.1321L12764.9645,-2614.9797L12766.7397,-2615.2401L12766.8098,-2615.1268L12765.76,-2614.76L12764.6896,-2614.44L12765.1604,-2613.0733L12765.11,-2613.4201L12765.8997,-2613.5933L12765.9698,-2613.34L12765.7799,-2613.1201L12766.7603,-2613.2999L12766.6,-2612.8935L12766.5802,-2613.1332L12766.1499,-2612.8134L12766.2399,-2612.5401L12766.7297,-2612.4933L12766.6397,-2611.8601L12766.4101,-2611.5534L12765.77,-2610.0533L12765.7196,-2609.1267L12765.6403,-2608.84L12765.5998,-2608.6534L12765.6998,-2608.1667L12765.8401,-2608.0467L12766.2102,-2608.02L12766.9502,-2607.7868L12767.4004,-2607.5933L12767.6399,-2607.3935L12768.0595,-2607.5533L12768.84,-2608.2466L12769.7601,-2608.6534L12770.7802,-2608.9268L12771.2402,-2608.6534L12771.3402,-2608.6534L12772.4503,-2609.1135L12772.7402,-2609.6666L12773.04,-2609.7532L12773.3398,-2609.9068L12773.9998,-2610.9867L12774.6796,-2611.8401L12775.1297,-2611.9467L12775.4898,-2611.9801L12776.0597,-2612.5134L12776.0803,-2612.5267L12776.6701,-2612.6467L12776.7204,-2613.1001L12777.7199,-2613.46L12778.36,-2613.2133L12778.8498,-2613.3133L12779.3999,-2613.6801L12779.8599,-2614.2067L12780.3001,-2614.7333L12781.4003,-2615.6265L12781.8703,-2615.8133L12782.56,-2616.5867L12782.8156,-2616.617L12783.0322,-2616.8329L12783.0482,-2617.6529L12782.7621,-2617.9495L12782.3906,-2617.9411L12782.3067,-2617.9403L12782.2342,-2617.9878L12782.1167,-2618.2285L12782.1121,-2618.2894L12782.2098,-2618.6594L12782.2479,-2618.6735L12782.2609,-2618.8511L12782.1205,-2619.1376L12782.061,-2619.1467L12781.5498,-2619.1502L12781.5506,-2619.1175L12781.3446,-2619.026L12781.2218,-2619.0226L12781.0356,-2619.0134L12780.8243,-2618.9669L12780.69,-2618.8932L12779.7501,-2618.6199L12779.2702,-2618.24L12778.9696,-2617.9066L12778.8704,-2617.4868L12778.9497,-2617.54L12778.8902,-2616.9867L12778.82,-2616.9867L12777.6497,-2617.2134L12777.7496,-2617.5333L12777.5696,-2617.9132L12777.6199,-2618.1467L12777.7199,-2618.1801L12777.8282,-2618.6901L12777.5925,-2618.861L12777.4147,-2619.1233L12777.0638,-2619.2341L12776.9035,-2619.7449L12776.9501,-2619.9148L12776.9112,-2619.989L12776.8471,-2620.0365L12776.445,-2620.1941L12776.4214,-2620.1941L12775.9727,-2620.2225L12775.8972,-2620.2423L12775.7851,-2620.2799L12775.7271,-2620.3066L12775.6538,-2620.3632L12775.6386,-2620.3966L12775.6363,-2620.4973L12775.6737,-2620.6265L12775.6996,-2620.4206L12775.7774,-2620.3623L12776.0239,-2620.2806L12776.0414,-2620.3266L12776.5022,-2620.2682L12776.7647,-2620.1899L12776.9226,-2620.1433L12777.021,-2620.1349L12777.0477,-2620.1706L12777.1538,-2620.2366L12776.825,-2620.3531L12776.4771,-2620.509L12776.5076,-2620.6116L12776.5976,-2620.8557L12776.9371,-2620.7315L12776.857,-2620.9591L12776.8745,-2621.4039L12777.1957,-2621.5548L12777.4651,-2621.4724L12777.5032,-2621.4882L12777.9144,-2621.9122L12777.9999,-2622.1535L12778.3897,-2622.5201L12778.7399,-2622.6601L12778.8002,-2622.9601L12778.6201,-2623.1132L12778.7399,-2623.9866L12778.9696,-2624.9933L12779.2,-2625.3201L12779.94,-2626.8133L12780.4497,-2627.1334L12780.7152,-2627.3718L12780.9204,-2627.5293L12781.16,-2627.4067L12781.5002,-2627.68L12781.6223,-2627.7428L12781.691,-2628.3442L12781.6246,-2628.7989L12781.5201,-2628.92L12781.3904,-2628.8532L12781.3103,-2628.94L12780.9402,-2629.4132L12781.1905,-2629.4867L12781.1302,-2629.7533L12780.9799,-2629.7533L12781.5804,-2630.4466L12782.3502,-2630.2334L12782.7698,-2630.3267L12782.5203,-2630.8201L12782.8804,-2631.2534L12783.2901,-2631.2534L12783.6502,-2631.3601L12784.2903,-2631.3866L12784.6596,-2631.6L12784.4604,-2631.8733L12784.0004,-2631.9466L12783.9699,-2632.1533L12783.8898,-2632.1001L12783.8898,-2632.16L12783.5396,-2632.16L12783.2802,-2632.1199L12783.5701,-2632.9201L12783.8028,-2633.1509L12784.0088,-2633.3118L12784.2453,-2633.4726L12784.2895,-2633.5026L12784.42,-2633.5533L12784.7,-2633.6533L12785.5698,-2634.2268L12786.1,-2634.4067L12786.2358,-2634.4746L12786.4944,-2634.3863L12786.6386,-2634.1681L12786.6318,-2634.0305L12786.6386,-2633.9922L12787.1849,-2633.2148L12787.4382,-2632.9199L12788.2454,-2632.0749L12788.4666,-2631.8867L12788.7306,-2631.6099L12788.7619,-2631.5226L12788.8222,-2631.4058L12788.9717,-2631.2075L12788.9992,-2631.185L12789.0778,-2631.1476L12789.2982,-2630.99L12789.6584,-2630.6784L12789.9033,-2630.4676L12790.1276,-2630.3623L12790.2771,-2630.3539L12790.6792,-2630.2475L12791.156,-2630.0173L12791.2956,-2629.9267L12791.32,-2629.8866L12791.3353,-2629.7258L12791.5634,-2629.4291L12791.6153,-2629.41L12792.0197,-2629.5401L12792.0998,-2630.1332L12791.79,-2631.0734L12791.7297,-2631.6601L12791.1057,-2632.3771L12791.3223,-2632.7555L12791.7358,-2632.9319L12791.6153,-2633.1085L12790.9996,-2632.9119L12790.7524,-2632.8159L12790.1505,-2632.9065L12789.1899,-2633.6533L12788.5101,-2634.2001L12788.15,-2634.66"/>
<path content="BA010,1,1,JPN" xlink:title="BA010" d="M12714.5103,-2634.7799L12714.6202,-2635.1534L12715.0902,-2635.3733L12715.8997,-2635.8999L12715.9203,-2636.3266L12715.21,-2636.0533L12714.8003,-2636.3733L12714.5599,-2637.1332L12714.9498,-2637.9534L12714.7697,-2638.0533L12714.4501,-2638.1134L12714.1197,-2637.5799L12713.7901,-2636.9865L12713.62,-2636.4L12714.0404,-2635.7L12714.08,-2635.4666L12714.3799,-2635L12714.5103,-2634.7799"/>
<path content="BA010,1,1,JPN" xlink:title="BA010" d="M12793.2098,-2633.1133L12794.0399,-2633.6533L12794.68,-2633.9535L12795.6802,-2633.8533L12795.8405,-2633.8133L12797.3099,-2634.9466L12797.4701,-2635.4134L12798.1003,-2635.6333L12798.7701,-2635.8999L12799.16,-2635.9133L12799.3599,-2636.0733L12799.4202,-2636.2066L12799.3202,-2636.7065L12799.5499,-2636.68L12799.1699,-2637.2534L12798.9304,-2637.4201L12798.7801,-2637.4468L12798.4604,-2637.3667L12798.42,-2637.5799L12798.9304,-2637.9L12798.6198,-2638.3467L12797.9797,-2637.8267L12797.6303,-2637.8468L12797.1497,-2637.3133L12796.8102,-2636.5601L12796.6499,-2636.2L12796.4302,-2636.4134L12796.4302,-2636.38L12796.5904,-2636.1401L12795.2705,-2635.5734L12794.87,-2635.66L12794.3199,-2635.5867L12794.2802,-2635.6667L12794.3199,-2635.1999L12794.6899,-2634.4801L12794.4298,-2633.98L12794.0102,-2633.6533L12793.0702,-2633.1133L12793.2098,-2633.1133"/>
<path content="BA010,1,1,JPN" xlink:title="BA010" d="M12709.8999,-2638.1332L12710.3699,-2638.4333L12710.3699,-2638.4535L12710.2699,-2638.7068L12709.8801,-2638.7068L12709.8999,-2638.1332"/>
<path content="BA010,1,1,JPN" xlink:title="BA010" d="M12681.0204,-2629.08L12681.1302,-2629.4266L12680.7198,-2630.2668L12680.2605,-2630.6932L12680.5504,-2631.8399L12680.4298,-2632.5201L12681.2202,-2633.3532L12681.4705,-2633.6533L12681.34,-2633.6533L12681.4301,-2634.0668L12681.6803,-2634.2001L12681.8001,-2634.1133L12682.3196,-2634.4732L12682.1701,-2634.9133L12682.1396,-2634.96L12681.9199,-2635.0468L12681.72,-2635.0533L12681.6704,-2635.1999L12681.6002,-2635.2068L12681.5605,-2634.9934L12681.0104,-2635.4L12681.0104,-2635.4799L12681.0402,-2635.66L12680.7899,-2636.0332L12680.6602,-2636.0268L12680.9105,-2636.3466L12680.2704,-2636.9667L12679.8302,-2636.7533L12679.4601,-2637.0134L12678.8803,-2637.9534L12677.8,-2639.04L12677.2202,-2639.0533L12677.0401,-2639.06L12675.6104,-2638.74L12675.5302,-2638.6801L12675.1701,-2638.5733L12674.6803,-2638.2734L12673.1796,-2637.52L12671.6301,-2637.3667L12670.9503,-2636.9467L12670.7504,-2636.0132L12671.0297,-2636.5465L12671.18,-2636.5868L12671.3203,-2636.7733L12671.1205,-2636.4201L12671.0098,-2636.1401L12671.6301,-2635.2333L12672.5537,-2634.5995L12672.6799,-2634.5133L12672.76,-2634.6466L12672.5686,-2634.6104L12672.5496,-2634.6131L12672.5347,-2634.6253L12672.4098,-2634.8066L12674.63,-2634.4267L12674.6803,-2634.4L12674.9199,-2634.14L12674.8802,-2634.0601L12674.8802,-2634.0134L12675.0298,-2634.2001L12675.2502,-2634.0265L12675.6599,-2634.0733L12675.8797,-2634.0866L12675.4799,-2633.7534L12675.5699,-2633.6533L12675.6302,-2633.6533L12675.7599,-2633.6933L12675.8202,-2633.6533L12676.3702,-2633.2201L12676.8303,-2632.4467L12676.77,-2632.0868L12677.4506,-2631.2933L12677.7405,-2630.5666L12679.1405,-2629.9133L12680.1002,-2629.2067L12681.0204,-2629.08"/>
<path content="BA010,1,1,JPN" xlink:title="BA010" d="M12799.6399,-2638.1533L12799.6803,-2638.2668L12800.1801,-2639.8666L12799.8604,-2639.9466L12799.6803,-2639.9L12799.5399,-2639.9L12799.4003,-2639.9067L12799.0303,-2639.3467L12798.7701,-2639.1333L12798.9304,-2638.74L12798.7701,-2638.5067L12798.9403,-2638.5067L12799.1104,-2638.6L12799.1798,-2638.2534L12799.6399,-2638.1533"/>
<path content="BA010,1,1,JPN" xlink:title="BA010" d="M12683.2727,-2659.5645L12683.2158,-2659.4598L12683.0633,-2659.3791L12682.9645,-2659.3013L12682.9526,-2659.4389L12683.0034,-2659.5107L12683.1321,-2659.5346L12683.2727,-2659.5645"/>
<path content="BA010,1,1,JPN" xlink:title="BA010" d="M12720.7703,-2657.4266L12722.0596,-2657.6933L12723.0598,-2657.86L12723.32,-2657.6866L12723.1796,-2657.86L12723.4901,-2657.8268L12723.7396,-2657.5733L12723.8098,-2657.62L12724.0097,-2657.6L12724.6498,-2658.6533L12724.0997,-2659.56L12723.5596,-2660.1067L12723.1598,-2660.1133L12722.9301,-2660.1267L12722.4297,-2659.8267L12721.3799,-2659L12721.1899,-2658.6533L12720.8595,-2658.0801L12720.7703,-2657.4266"/>
<path content="BA010,1,1,JPN" xlink:title="BA010" d="M12803.0304,-2663.4933L12803.2501,-2663.6L12803.4195,-2663.9334L12803.0197,-2664.1666L12803.0304,-2663.4933"/>
<path content="BA010,1,1,JPN" xlink:title="BA010" d="M12781.7299,-2664.3734L12782.0198,-2664.5065L12781.6696,-2664.9733L12781.5903,-2664.9267L12781.1203,-2664.9532L12780.9502,-2664.6133L12781.3004,-2664.7934L12781.3904,-2664.5134L12781.1905,-2664.5201L12781.7299,-2664.3734"/>
<path content="BA010,1,1,JPN" xlink:title="BA010" d="M12786.1198,-2662.8933L12786.5799,-2663.7266L12787.0697,-2664.3133L12787.1803,-2664.6732L12787.1803,-2664.9067L12786.6402,-2665.3133L12786.3899,-2665.3133L12785.3897,-2664.8533L12785.64,-2663.9732L12785.8002,-2663.4266L12785.7903,-2662.9333L12786.1198,-2662.8933"/>
<path content="BA010,1,1,JPN" xlink:title="BA010" d="M12810.2493,-2666.4L12810.3897,-2666.6065L12810.4904,-2666.6065L12809.9304,-2666.8867L12809.6497,-2666.7334L12809.6695,-2666.6L12810.2493,-2666.4"/>
<path content="BA010,1,1,JPN" xlink:title="BA010" d="M12803.1403,-2664.48L12803.3203,-2665.2266L12803.1998,-2665.7734L12803.1693,-2665.8466L12802.4902,-2666.2933L12802.0691,-2666.9867L12801.8799,-2667.8801L12801.2802,-2667.8066L12800.8392,-2667.8267L12800.65,-2667.4667L12800.4791,-2667.4999L12800.4303,-2667.3866L12800.2106,-2667.3534L12800.1404,-2667.5068L12799.81,-2667.44L12799.6803,-2667.0067L12799.3599,-2667.02L12799.35,-2666.9867L12799.3896,-2666.58L12799.3401,-2665.9134L12799.6803,-2665.5666L12799.8001,-2665.5867L12799.8497,-2665.5132L12800.2396,-2665.5733L12800.4395,-2665.18L12800.8896,-2665.0133L12800.9491,-2665.4667L12801.4099,-2665.6601L12802.4506,-2665.0934L12803.1601,-2664.7266L12803.1403,-2664.48"/>
<path content="BA010,1,1,JPN" xlink:title="BA010" d="M12801.9699,-2669.4334L12802.3697,-2669.6733L12802.5894,-2670.1668L12802.5406,-2671.0268L12801.5701,-2671.3533L12801.4496,-2671.34L12801.1597,-2671.3266L12800.7004,-2670.7268L12801.1398,-2669.8133L12801.5106,-2669.5667L12801.6998,-2669.5601L12801.7502,-2669.4733L12801.9699,-2669.4334"/>
<path content="BA010,1,1,JPN" xlink:title="BA010" d="M12780.6099,-2670.54L12782.74,-2670.96L12782.9597,-2671.9801L12782.3105,-2672.6534L12781.9099,-2672.9933L12780.6602,-2673.8466L12779.3503,-2673.3934L12778.5599,-2673.3267L12778.0602,-2673.3L12777.6001,-2673.3934L12777.3796,-2673.3801L12776.4099,-2673.6799L12775.8301,-2673.7L12775.1099,-2673.2201L12774.8001,-2671.8599L12775.4402,-2670.9133L12776.9699,-2670.7867L12779.11,-2670.9133L12780.6099,-2670.54"/>
<path content="BA010,1,1,JPN" xlink:title="BA010" d="M12833.3893,-2674.4734L12833.3694,-2674.5667L12833.2199,-2674.6799L12832.8995,-2674.7L12833.3893,-2674.4734"/>
<path content="BA010,1,1,JPN" xlink:title="BA010" d="M12788.15,-2634.66L12787.2704,-2635.9467L12787.1803,-2636.1134L12787.1803,-2636.5667L12787.3802,-2636.8067L12787.3398,-2637.6865L12787.6801,-2637.8599L12787.1803,-2638.4733L12787.1803,-2638.5134L12787.1803,-2638.5532L12786.6898,-2638.8401L12785.8002,-2639.6L12785.73,-2639.7333L12784.7198,-2640.18L12784.1599,-2640.5399L12783.9798,-2640.5134L12783.3397,-2641.6935L12782.7797,-2641.9333L12782.7599,-2641.9867L12782.5699,-2642.3201L12782.6302,-2642.4601L12782.9002,-2642.38L12782.9002,-2642.72L12783.02,-2643.1133L12783.5503,-2642.86L12783.9104,-2642.6332L12784.2102,-2642.8467L12784.2499,-2643.1L12784.5001,-2643.4532L12784.1698,-2643.66L12784.7298,-2644.2467L12785.1501,-2645.0132L12785.8498,-2645.26L12786.8599,-2645.6865L12787.1803,-2645.5732L12787.4702,-2645.4401L12788.5002,-2645.6066L12788.6597,-2645.48L12789.0305,-2645.4L12789.8903,-2644.8732L12790.9599,-2644.7065L12791.04,-2644.66L12791.6,-2644.6001L12791.7198,-2644.4601L12792.4599,-2644.0065L12792.7704,-2643.9199L12794.1597,-2644.0733L12794.7899,-2643.7532L12794.68,-2644.1067L12794.2398,-2644.2533L12794.3703,-2645.3733L12794.78,-2645.48L12794.8898,-2645.5732L12794.5297,-2646.1466L12794.5503,-2646.4001L12794.9997,-2646.6734L12795.0195,-2647.2067L12795.4803,-2647.32L12795.4903,-2647.2401L12795.6497,-2647.1399L12795.7497,-2647.2799L12796.0999,-2647.1733L12796.45,-2646.76L12797.39,-2646.9534L12797.86,-2647.08L12798.9899,-2647.5267L12798.79,-2648.0133L12799.1699,-2648.0333L12799.4598,-2648.02L12799.6803,-2648.06L12800.1099,-2648.5001L12799.8802,-2649.4066L12799.6803,-2649.4932L12799.2401,-2649.9466L12799.0501,-2650.3201L12799.6201,-2650.9001L12799.6803,-2650.8801L12799.8802,-2651L12800.2396,-2650.4801L12800.5493,-2650.6666L12800.3906,-2651.0733L12800.8606,-2651.4267L12801.2802,-2651.2335L12802.0996,-2651.0601L12802.5101,-2651.0534L12803.1204,-2651.3L12803.0701,-2651.7134L12803.0701,-2651.9199L12803.36,-2651.86L12804.3793,-2652.0266L12805.1895,-2652.0065L12804.9805,-2652.3533L12804.8599,-2652.4666L12804.4205,-2653.2135L12804.0802,-2653.8L12803.2104,-2655.2732L12803.6407,-2655.1332L12803.8696,-2655.4001L12804.0192,-2655.6L12804.1595,-2655.88L12804.1,-2654.9L12804.4098,-2654.7466L12804.9103,-2654.7533L12804.9805,-2654.6865L12805.6503,-2655.0068L12806.3797,-2655.1268L12806.5598,-2654.9801L12806.8604,-2654.8666L12807.6004,-2654.5L12808.2794,-2653.8933L12808.7997,-2653.5868L12809.3903,-2653.4L12809.1202,-2653.8467L12809.4803,-2654.08L12810.0403,-2653.8401L12809.9396,-2654.3068L12810.9604,-2655.0333L12811.8195,-2655.2334L12812.1796,-2655.3467L12812.7396,-2655.4066L12813.5101,-2655.4132L12813.7299,-2655.2868L12813.6703,-2656.2933L12813.8092,-2656.6334L12814.6591,-2656.8068L12814.9704,-2656.7865L12814.3494,-2657.1333L12813.4598,-2658.6533L12813.0203,-2658.9466L12812.7396,-2659.2001L12812.2894,-2660.2533L12813.0798,-2660.0201L12813.8,-2660.0134L12814.4302,-2659.7334L12815.0192,-2659.7733L12815.2802,-2660.4401L12815.2603,-2661.0332L12815.0604,-2661.3268L12814.9292,-2661.3068L12814.4699,-2662.3734L12814.8697,-2662.9133L12816.04,-2662.8933L12816.5802,-2662.78L12817.8406,-2662.4201L12818.4204,-2662.36L12819.9402,-2662.4599L12820.0897,-2662.4933L12821.2692,-2662.64L12821.73,-2662.8334L12822.2504,-2662.8599L12823.0698,-2663.0867L12823.41,-2662.9866L12823.7701,-2663.2868L12824.0799,-2663.5933L12824.2996,-2663.8134L12824.4003,-2663.9801L12824.6796,-2664.2868L12824.9191,-2664.3667L12825.0397,-2664.58L12825.09,-2665.2332L12825.4501,-2665.5533L12825.6393,-2665.8268L12825.9293,-2665.7066L12826.1795,-2665.8733L12826.3306,-2666.7133L12826.9302,-2666.9867L12827.2995,-2667.0401L12827.8091,-2667.72L12827.7603,-2668.1934L12827.9892,-2669.1933L12828.1998,-2669.3933L12828.0594,-2669.64L12828.4103,-2669.6335L12828.6896,-2669.6466L12828.7994,-2669.8467L12829.2404,-2670.2066L12828.9703,-2670.6734L12829.5105,-2671.0068L12829.6799,-2670.9867L12829.6906,-2671.4933L12829.4907,-2671.4933L12829.2801,-2671.7268L12829.9194,-2672.06L12830.1895,-2672.0867L12830.4596,-2672.7533L12830.7693,-2673.0534L12831.7703,-2673.5001L12831.8405,-2673.9267L12831.7596,-2674.32L12832.28,-2674.8266L12832.5806,-2674.9334L12832.5699,-2675.3201L12832.5195,-2675.5199L12832.3303,-2675.3401L12831.8497,-2675.6001L12831.9595,-2675.6401L12832.1396,-2676.0532L12832.3898,-2676.68L12832.1106,-2677.12L12832.3898,-2677.6533L12832.37,-2678.2932L12832.0297,-2678.8067L12831.5704,-2679.22L12831.7993,-2679.3934L12832.0206,-2679.6L12831.6696,-2680.6868L12831.8893,-2681.3534L12831.7398,-2681.3066L12831.5002,-2682.0066L12831.4392,-2682.0801L12831.3004,-2682.0734L12830.7404,-2682.5468L12830.3497,-2683.1266L12830.4993,-2683.6535L12830.4703,-2684.1867L12830.3604,-2684.4534L12829.8996,-2684.4933L12829.8508,-2684.58L12829.48,-2684.38L12829.1702,-2684.1L12829.0207,-2684.1L12828.8895,-2684.2667L12828.7003,-2684.6468L12828.5004,-2684.6334L12827.9099,-2685.1534L12827.8702,-2685.56L12827.6794,-2685.5333L12826.7502,-2685.96L12826.4496,-2686.3399L12826.0498,-2686.6867L12826.3001,-2687.1067L12826.4099,-2687.2067L12825.6104,-2687.48L12825,-2687.0333L12824.8596,-2687.0399L12824.6796,-2686.8601L12824.2905,-2685.7668L12824.6796,-2685.3535L12825.1999,-2684.9335L12825.0305,-2683.86L12824.7894,-2683.6535L12824.6796,-2683.3868L12824.3195,-2683.0334L12824.0601,-2682.14L12823.2498,-2680.9868L12822.9401,-2680.1268L12823.0499,-2679.66L12822.9294,-2679.6467L12822.4899,-2679.66L12822.0795,-2678.7468L12821.9498,-2678.7468L12821.4996,-2678.2467L12820.3903,-2677.4467L12820.2606,-2676.6468L12819.9295,-2676.56L12819.78,-2676.5533L12819.6701,-2676.6535L12818.8095,-2675.8533L12818.6493,-2675.3201L12817.8802,-2674.7534L12817.6895,-2674.7467L12816.5802,-2674.3668L12815.5502,-2674.2468L12815.4404,-2674.4801L12815.2603,-2674.4667L12815.1505,-2674.5068L12815.0101,-2673.9866L12815.3992,-2673.9733L12815.9393,-2672.7734L12815.6296,-2671.9067L12815.3397,-2671.66L12814.4897,-2671.1534L12814.0503,-2670.7068L12812.1796,-2670.2267L12811.7004,-2670.2333L12810.5194,-2668.7L12810.0006,-2667.7935L12810.3806,-2667.0134L12810.3806,-2666.9867L12810.5896,-2666.7999L12810.6201,-2666.9867L12810.8093,-2667.1467L12811.2198,-2667.0668L12811.3205,-2666.9867L12812.0392,-2666.5867L12812.1796,-2666.5133L12812.1796,-2666.46L12812.0804,-2666.26L12812.1796,-2666.2001L12812.59,-2665.7467L12812.1796,-2665.9466L12811.5402,-2665.8733L12811.3403,-2666.1533L12811.0291,-2665.8733L12811.0596,-2666.0933L12811.1496,-2666.44L12810.9894,-2666.7534L12810.6094,-2666.1667L12810.1501,-2666.28L12809.7992,-2666.04L12809.52,-2666.0868L12808.5007,-2664.9334L12808.2901,-2664.8066L12807.93,-2664.5065L12807.6492,-2664.3467L12807.2495,-2664.34L12807.0602,-2664.3534L12805.0095,-2663.4132L12804.6997,-2663.3734L12803.7796,-2663.5668L12803.27,-2663.4733L12803.2501,-2663.2868L12802.6901,-2662.8134L12802.3407,-2662.6467L12801.1291,-2663.1067L12800.6104,-2662.94L12800.0504,-2663.4533L12800.2502,-2663.7133L12799.6803,-2664.2733L12798.7297,-2664.5933L12798.1598,-2664.88L12798.1895,-2665.1733L12798.4497,-2665.04L12798.9403,-2665.1533L12798.8396,-2665.5666L12799.1104,-2666.1934L12799.2905,-2666.6933L12799.1501,-2666.9867L12799.4804,-2667.68L12799.6803,-2667.7334L12800.0198,-2667.8667L12800.7095,-2668.3735L12800.2106,-2668.7935L12799.6803,-2669.0067L12797.7402,-2669.5267L12797.58,-2669.6934L12797.0299,-2669.5801L12797.0901,-2669.2533L12796.4699,-2669.7201L12796.8803,-2670.2267L12796.7003,-2670.2267L12795.24,-2670.7399L12795.1103,-2670.7468L12794.9799,-2670.7468L12794.77,-2670.76L12794.5,-2670.5267L12794.1002,-2670.5267L12793.3701,-2670.2333L12793.0397,-2670.2133L12793.0099,-2670.38L12792.44,-2670.2801L12791.7,-2670.1334L12791.5298,-2670.1267L12791.1903,-2670.22L12790.5098,-2669.8401L12790.2397,-2669.8334L12789.8201,-2670.06L12788.5399,-2670.54L12788.1302,-2670.8467L12787.8403,-2670.8534L12787.6999,-2669.8267L12787.5504,-2669.8734L12787.6602,-2669.7599L12787.2498,-2668.6867L12787.4702,-2668.3001L12788.3102,-2667.72L12788.3499,-2667.4267L12788.4804,-2667.54L12788.8199,-2666.9867L12789.0602,-2666.02L12789.3097,-2665.9267L12788.7505,-2665.8733L12788.43,-2665.88L12787.7998,-2665.3L12787.8197,-2664.6933L12787.7701,-2664.3066L12787.7602,-2664.2401L12787.7502,-2664.0333L12787.9402,-2663.7001L12788.6101,-2662.8201L12788.6597,-2662.3199L12789.3204,-2661.2066L12789.4005,-2660.56L12789.8903,-2660.4933L12791.2399,-2660.0599L12791.7297,-2660.6934L12792.1501,-2660.8868L12792.9398,-2660.6199L12793.6195,-2660.2335L12794.0002,-2660.1601L12794.4901,-2660.1334L12795.52,-2659.4467L12796.4302,-2659.1L12796.7201,-2658.9867L12797.0497,-2659.0401L12797.7402,-2658.7601L12797.8905,-2658.7934L12797.9706,-2658.6533L12798.23,-2657.9533L12798.0698,-2657.2401L12797.5304,-2655.8933L12796.5401,-2654.8L12796.2196,-2654.0466L12796.08,-2654.1201L12796.0098,-2654.0333L12795.8702,-2654.3667L12795.6299,-2654.5868L12794.9898,-2654.3467L12794.3497,-2653.5801L12793.8698,-2653.5267L12793.5501,-2653.8467L12793.3998,-2654.18L12793.0702,-2654.1866L12793.3403,-2653.8401L12792.7803,-2653.2135L12792.7902,-2653.0733L12792.4004,-2652.6533L12791.9899,-2652.7668L12791.7702,-2651.7067L12791.42,-2651.56L12790.8401,-2651.7L12790.6601,-2651.9066L12790.0902,-2651.4067L12789.4096,-2651.2133L12788.9603,-2651L12788.9099,-2650.5466L12788.7199,-2650.3201L12788.0898,-2650.2333L12787.9295,-2650.3201L12787.6602,-2650.6466L12787.1803,-2650.8801L12787.1803,-2650.9666L12787.1803,-2651.0534L12787.1201,-2651.12L12786.8698,-2650.8667L12786.7096,-2651.2066L12786.5799,-2651.2335L12786.7004,-2650.9535L12786.5295,-2650.9666L12786.4899,-2650.8867L12786.0596,-2650.4333L12785.6697,-2650.9201L12785.6102,-2650.7067L12785.7697,-2650.5001L12785.7597,-2650.3201L12785.6697,-2649.98L12785.36,-2649.88L12785.0998,-2650.3201L12784.8305,-2650.42L12784.2697,-2650.3201L12783.9302,-2649.6L12783.8097,-2649.5199L12784.42,-2648.58L12784.4299,-2648.04L12783.7601,-2647.7734L12783.4,-2647.8268L12782.8003,-2646.9267L12782.0702,-2646.6534L12781.3301,-2646.1267L12781.1501,-2646.24L12780.8502,-2645.8666L12780.8304,-2645.62L12780.4001,-2645.4201L12780.0797,-2645.08L12780.1003,-2644.8401L12780.2597,-2644.3933L12779.6799,-2643.6132L12779.0703,-2643.5667L12778.9001,-2643.5734L12778.7498,-2643.6068L12778.6697,-2643.54L12778.3501,-2643.4334L12778.0502,-2643.6466L12777.71,-2643.9266L12777.1103,-2644.3867L12776.96,-2644.4933L12776.2398,-2643.6399L12775.5402,-2643.0866L12774.6796,-2642.72L12774.16,-2642.2199L12774.0601,-2642.1667L12773.88,-2642.1667L12773.5397,-2642.16L12773.1003,-2642.8467L12772.2397,-2643.98L12771.5698,-2643.9734L12771.0701,-2644.0399L12771.17,-2643.8L12771.5797,-2643.1732L12771.2502,-2641.9867L12771.3097,-2641.1133L12771.36,-2640.9067L12771.6698,-2639.9532L12772.29,-2638.7466L12772.2,-2638.6267L12772.4503,-2638.64L12772.5899,-2638.4266L12773.7404,-2636.2333L12773.8602,-2636.2L12773.9469,-2635.592"/>
<path content="BA010,1,1,JPN" xlink:title="BA010" d="M12792.9497,-2689.1001L12793.2198,-2689.3333L12792.6003,-2689.5332L12792.6102,-2690.0333L12792.8902,-2690.1001L12792.6399,-2690.0801L12791.9899,-2690.16L12792.0998,-2689.3333L12792.9497,-2689.1001"/>
<path content="BA010,1,1,JPN" xlink:title="BA010" d="M12793.84,-2691.0601L12794.5999,-2691.2533L12795.2705,-2691.3799L12794.9799,-2691.9867L12795.05,-2692.96L12795.5803,-2693.4933L12795.3796,-2694.5333L12794.59,-2695.0201L12794.4405,-2695.0201L12793.5898,-2695.4668L12793.0901,-2695.1L12792.26,-2694.8133L12791.5199,-2694.4866L12791.5703,-2694.0468L12791.8503,-2693.8467L12791.5802,-2693.8601L12791.3704,-2693.8534L12791.1201,-2693.5667L12791.3803,-2693.38L12791.9701,-2693.5667L12791.9601,-2692.6666L12791.8404,-2692.16L12791.9701,-2691.9867L12792.2203,-2691.7334L12792.6704,-2691.5867L12792.9298,-2691.28L12793.6195,-2691.3267L12793.84,-2691.0601"/>
<path content="BA010,1,1,JPN" xlink:title="BA010" d="M12794.9203,-2697.2668L12795.8298,-2697.4335L12795.5101,-2697.5267L12795.3003,-2697.5267L12794.6503,-2697.7333L12794.6404,-2697.8132L12794.5297,-2697.6732L12794.2101,-2697.6933L12794.0704,-2697.5267L12794.4099,-2697.5468L12794.9203,-2697.2668"/>
<path content="BA010,1,1,JPN" xlink:title="BA010" d="M12791.9998,-2698.8934L12792.5598,-2699.8133L12792.3698,-2699.9201L12792.17,-2700.0534L12791.3101,-2699.5934L12791.2003,-2699.6067L12791.4101,-2699.0999L12791.9998,-2698.8934"/>
<path content="BA010,1,1,JPN" xlink:title="BA010" d="M12844.2596,-2701.86L12845.5795,-2702.2667L12845.5704,-2702.7334L12845.2301,-2704.4468L12845.34,-2704.8599L12845.0104,-2705.2601L12843.8705,-2706.5067L12842.8497,-2706.7266L12841.8198,-2706.3932L12841.3803,-2705.8533L12841.2201,-2704.7867L12840.5106,-2704.62L12840.0604,-2705.02L12840.0299,-2705.0934L12840.0192,-2705.0266L12839.8392,-2704.9934L12839.6194,-2705.0068L12839.4394,-2704.4535L12839.8193,-2703.68L12839.9094,-2703.4866L12840.1596,-2703.8601L12840.8203,-2703.3867L12841.0904,-2702.8267L12841.6,-2702.7668L12841.8503,-2702.84L12842.0502,-2702.3735L12842.4805,-2702.2068L12842.8894,-2702.2934L12843.5303,-2702.0733L12844.0903,-2702.0599L12844.2596,-2701.86"/>
<path content="BA010,1,1,JPN" xlink:title="BA010" d="M12793.3899,-2699.4267L12793.8599,-2700.3201L12794.1399,-2701.6266L12794.3298,-2701.6533L12794.59,-2701.9533L12795.5704,-2702.1267L12795.9602,-2702.1133L12796.3501,-2702.2667L12796.5401,-2702.8601L12796.3699,-2702.82L12796.2303,-2703.26L12796.6599,-2703.6867L12796.8102,-2703.64L12797.0299,-2703.9L12797.8401,-2704.04L12798.23,-2703.9534L12799.0501,-2704.4733L12799.6803,-2705.8468L12799.8497,-2705.8735L12799.8604,-2706.0801L12799.6803,-2706.1335L12799.6101,-2706.7801L12799.6803,-2706.7467L12800.4791,-2707.9535L12800.7004,-2708.0601L12801.2497,-2708.6534L12801.6998,-2708.9201L12802.0599,-2708.9733L12801.9104,-2709.4467L12800.6302,-2708.9535L12799.6803,-2708.82L12799.44,-2708.8266L12799.4003,-2708.6533L12798.2399,-2707.1001L12797.0497,-2706.3667L12795.8603,-2704.9601L12794.9303,-2704.2601L12794.1498,-2702.96L12793.1404,-2702.0267L12793.2602,-2701.0267L12793.6501,-2700.6134L12793.66,-2700.3201L12793.4402,-2699.7467L12793.2404,-2699.5333L12793.3899,-2699.4267"/>
<path content="BA010,1,1,JPN" xlink:title="BA010" d="M12856.5903,-2732.7534L12857.1396,-2732.9401L12857.5806,-2733.1335L12857.9193,-2733.16L12859.1507,-2733.6533L12860.0204,-2734.2068L12860.6308,-2734.4868L12860.8704,-2734.8801L12861.2595,-2734.9867L12861.8805,-2735.78L12862.1796,-2736.08L12862.2696,-2736.1465L12863.2004,-2736.4599L12863.4598,-2736.52L12864.27,-2737.3667L12865.0497,-2738.2868L12865.2496,-2738.5067L12865.5792,-2739.1867L12865.7791,-2739.1933L12865.8508,-2739.3801L12865.6708,-2739.2067L12865.7196,-2739.4199L12866.2094,-2739.6L12866.3895,-2739.7333L12866.4993,-2739.7133L12866.2003,-2739.9067L12866.5405,-2740.2599L12867.6498,-2741.3467L12868.7393,-2741.6599L12869.4397,-2741.9867L12870.6299,-2742.7868L12871.0999,-2743.2934L12871.2296,-2743.4401L12870.8496,-2743.8667L12869.9295,-2743.9466L12869.6198,-2743.9533L12869.4901,-2743.9466L12868.9499,-2743.9533L12868.6707,-2743.7134L12868.2495,-2743.5333L12867.9199,-2743.0401L12867.1494,-2742.7334L12865.8508,-2742.2867L12865.4602,-2742.2733L12865.0101,-2741.9867L12864.8102,-2741.7534L12864.65,-2741.7933L12864.2197,-2741.5333L12863.9999,-2741.7334L12864.1098,-2741.4333L12863.5193,-2741.0467L12862.9303,-2740.7534L12862.5793,-2740.8867L12862.1796,-2740.5333L12861.7294,-2740.46L12861.1404,-2740.8001L12860.6705,-2740.3999L12859.9594,-2740.2332L12859.6207,-2739.8466L12859.23,-2739.6534L12858.7097,-2739.9265L12858.4305,-2739.8933L12857.6294,-2740.0534L12856.8497,-2739.8001L12856.4606,-2739.7734L12855.6595,-2739.5332L12855.5298,-2739.5332L12854.2297,-2739.92L12853.8696,-2740.1066L12853.4897,-2740.46L12853.2303,-2740.4467L12852.7206,-2739.8399L12852.1805,-2738.6932L12851.9302,-2737.1532L12852.2903,-2736.1465L12852.2995,-2736.1L12852.4994,-2736.0268L12853.3295,-2734.4801L12854.2297,-2733.6533L12855.6305,-2732.88L12856.3095,-2732.8934L12856.9794,-2732.9134L12856.5094,-2732.8135L12856.5903,-2732.7534"/>
<path content="BA010,1,1,JPN" xlink:title="BA010" d="M12823.3307,-2785.9867L12823.4894,-2786.62L12823.2193,-2787.1265L12822.6303,-2787.9467L12822.3297,-2788.4466L12822.0596,-2788.4733L12821.6492,-2787.6867L12822.1695,-2786.7933L12822.6898,-2786.2734L12823.3307,-2785.9867"/>
<path content="BA010,1,1,JPN" xlink:title="BA010" d="M12893.6401,-2766.0732L12895.0302,-2766.3067L12896.0999,-2766.7334L12896.2997,-2766.9867L12896.9101,-2766.9867L12897.67,-2766.7868L12898.6008,-2766.96L12898.6099,-2766.9867L12899.6796,-2768.4866L12899.9405,-2768.8999L12899.6994,-2769.5133L12900.2197,-2769.8401L12900.351,-2770.0399L12900.2396,-2770.4201L12900.8499,-2771.1332L12901.2695,-2771.4333L12901.6495,-2771.4333L12902.0096,-2771.74L12901.86,-2772.5134L12902.1698,-2773.8268L12901.9806,-2774.1133L12902.0599,-2774.1734L12902.1606,-2774.2065L12902.5497,-2774.1533L12903.0899,-2774.74L12903.2898,-2775.3199L12903.6804,-2776.1801L12903.5004,-2777.1267L12903.0106,-2777.4666L12901.9897,-2777.7067L12901.3199,-2778.1067L12901.4404,-2778.5999L12899.6796,-2780.16L12899.5102,-2780.5067L12898.5199,-2780.3867L12897.8394,-2781.2L12897.1298,-2781.5399L12896.7606,-2781.7734L12896.6492,-2782.1934L12896.6202,-2782.8867L12897.2397,-2783.0666L12897.0703,-2783.3334L12896.9299,-2783.6533L12896.4905,-2783.9666L12896.7194,-2784.4666L12896.9696,-2784.58L12897.02,-2785.2066L12896.8491,-2785.7067L12895.5704,-2785.8665L12895.5795,-2786.2932L12895.7504,-2786.4532L12895.8694,-2786.3667L12895.8496,-2786.5932L12896.2708,-2786.9066L12896.8201,-2787.1265L12897.4701,-2787.2L12897.3007,-2787.8134L12896.7804,-2788.7266L12897.0703,-2789.1533L12896.6003,-2789.1666L12896.46,-2789.1867L12895.1004,-2788.9334L12894.8105,-2788.9267L12893.4402,-2789.08L12892.6498,-2788.8134L12892.5201,-2788.8134L12890.7104,-2789.1933L12890.6906,-2789.1933L12890.3702,-2789.3267L12889.6393,-2789.0734L12889.1205,-2788.34L12888.8702,-2788.1065L12888.8702,-2787.3066L12888.7497,-2786.4065L12889.2303,-2785.8999L12888.9099,-2785.0466L12888.6505,-2784.3866L12888.5498,-2783.88L12888.2797,-2783.9001L12888.2599,-2783.6533L12888.0905,-2783.5199L12888.1104,-2783.6533L12888.2095,-2784.5734L12888.0402,-2784.5865L12887.8998,-2783.6533L12887.8098,-2782.56L12888.0997,-2782.3067L12888.2904,-2782.3668L12888.71,-2781.9267L12889.0503,-2781.8533L12888.8107,-2781.2201L12889.2593,-2781.1068L12889.1205,-2780.9666L12888.9206,-2781.0066L12888.6597,-2780.5599L12888.7497,-2780.1065L12888.9297,-2779.6734L12888.7192,-2779.1933L12888.9206,-2778.62L12889.3997,-2778.3333L12889.5996,-2777.1198L12889.9094,-2776.8932L12889.9704,-2776.7532L12890.5899,-2776.3468L12890.2802,-2775.58L12890.3107,-2775.3199L12890.1993,-2775.2533L12889.9994,-2774.9733L12889.9994,-2774.56L12889.8804,-2773.8199L12889.6103,-2773.3667L12888.8702,-2772.7999L12888.2599,-2772.3932L12888.0295,-2772.4001L12888.1104,-2772.0133L12889.2593,-2770.7333L12889.8895,-2770.7001L12890.7608,-2770.08L12891.5604,-2769.5333L12891.7603,-2769.1267L12891.9098,-2767.8066L12892.0807,-2767.3332L12892.1692,-2766.9867L12892.54,-2766.5066L12893.6401,-2766.0732"/>
<path content="BA010,1,1,JPN" xlink:title="BA010" d="M12925.3708,-2800.0732L12925.56,-2800.0799L12925.4807,-2800.2934L12925.4501,-2800.3067L12925.2502,-2800.0866L12925.3708,-2800.0732"/>
<path content="BA010,1,1,JPN" xlink:title="BA010" d="M12927.6993,-2801.9135L12927.8107,-2802.0468L12927.7496,-2802.2333L12927.6398,-2802.2533L12927.2598,-2802.5667L12927.0798,-2802.2133L12927.1606,-2801.9867L12927.6993,-2801.9135"/>
<path content="BA010,1,1,JPN" xlink:title="BA010" d="M12925.6897,-2800.5068L12926.03,-2800.8133L12926.6907,-2801.44L12926.7593,-2801.7334L12926.5198,-2801.9466L12926.8097,-2802.5932L12926.7807,-2803.1334L12926.7395,-2803.2867L12926.7197,-2803.4065L12926.6998,-2803.4866L12926.4206,-2803.6865L12925.8606,-2803.1401L12925.4303,-2802.9467L12925.2396,-2803.22L12925.1495,-2803.6135L12925.0198,-2803.9534L12924.6902,-2803.8935L12924.6796,-2803.8868L12924.0799,-2803.2267L12923.6801,-2803.0466L12923.5306,-2803.0466L12922.9599,-2803.4267L12922.9202,-2803.8401L12921.46,-2805.4068L12921.2601,-2805.4199L12921.0098,-2804.3934L12920.4895,-2803.9801L12920.52,-2803.3068L12921.0205,-2802.6535L12921.1899,-2802.1935L12921.4401,-2801.9934L12921.8994,-2802.38L12922.76,-2802.3666L12922.8104,-2802.3001L12923.2498,-2802.3266L12924.0204,-2801.82L12924.5193,-2801.7401L12924.6796,-2801.6399L12925.3708,-2801.1665L12925.6897,-2800.5068"/>
<path content="BA010,1,1,JPN" xlink:title="BA010" d="M12914.8102,-2801.3332L12915.1993,-2801.6933L12915.95,-2801.7534L12916.4505,-2802.2133L12916.33,-2802.8534L12916.7709,-2803.4134L12916.8198,-2803.8733L12916.4505,-2804.2601L12916.6794,-2804.6135L12917.2607,-2804.7667L12917.63,-2804.7333L12917.7002,-2804.9L12917.1906,-2805.5334L12916.8701,-2806.1335L12917.1707,-2806.6134L12917.0502,-2806.7934L12916.9006,-2806.8001L12916.7999,-2806.7133L12916.6306,-2806.7266L12916.4108,-2806.34L12916.0507,-2805.9134L12915.7394,-2805.9334L12915.6998,-2805.6334L12915.6601,-2805.1933L12914.9399,-2804.8866L12914.7903,-2804.9067L12914.8499,-2804.7268L12914.9796,-2804.3533L12914.7598,-2804.1668L12914.8499,-2803.5601L12914.65,-2803.4733L12914.5096,-2803.2133L12914.5706,-2802.8666L12914.3906,-2802.6001L12914.4104,-2802.0599L12914.4501,-2801.8667L12914.5599,-2801.5734L12914.8102,-2801.3332"/>
<path content="BA010,1,1,JPN" xlink:title="BA010" d="M12917.3096,-2810.9068L12917.5507,-2811.0399L12917.3096,-2811.5334L12916.7603,-2812.0134L12916.2598,-2812.2334L12916.0904,-2812.24L12915.9195,-2811.96L12916.2308,-2811.5534L12916.7999,-2811.54L12917.1097,-2811.0933L12917.3096,-2810.9068"/>
<path content="BA010,1,1,JPN" xlink:title="BA010" d="M12931.7398,-2806.1466L12932.7805,-2807.2067L12933.1299,-2807.3133L12933.58,-2807.3467L12933.8196,-2807.5399L12934.0607,-2808.0534L12934.1995,-2808.6535L12934.52,-2809.0601L12934.7,-2809.7L12934.9304,-2809.9466L12935.0601,-2810.1801L12935.1501,-2810.1999L12935.2905,-2810.26L12935.1898,-2810.7866L12934.6207,-2810.7866L12934.3307,-2811.2801L12934.3903,-2811.5133L12934.0103,-2811.7933L12933.8501,-2811.1067L12933.3603,-2810.9335L12933.1406,-2810.96L12932.7499,-2811.1L12932.3898,-2811.2734L12932.3105,-2811.0332L12932.4799,-2810.8866L12932.2693,-2810.4134L12931.9901,-2810.0401L12931.9397,-2810.0866L12931.6498,-2810.54L12931.6605,-2810.7201L12931.4896,-2810.7L12931.34,-2811.12L12931.2698,-2811.2734L12930.9006,-2811.0468L12930.7297,-2811.06L12930.6,-2811.3266L12930.69,-2811.5067L12930.4993,-2811.5067L12930.3894,-2811.8868L12930.13,-2812.1L12929.6906,-2811.0733L12929.39,-2810.6867L12928.9398,-2810.8534L12928.6301,-2811.3934L12928.5995,-2811.6266L12928.5995,-2811.8799L12928.7201,-2812.2868L12928.5995,-2812.4468L12928.1296,-2812.1935L12927.8,-2811.7001L12927.8,-2811.4866L12927.5894,-2811.4799L12927.2598,-2811.2467L12927.0493,-2811.4933L12927.2202,-2812.3533L12926.6708,-2812.4001L12926.3107,-2811.7268L12925.9399,-2811.64L12925.9796,-2811.8267L12926.2894,-2812.1134L12926.2631,-2812.5M12925.2802,-2812.5L12925.09,-2812.2534L12924.8703,-2812.2734L12924.6796,-2812.2267L12924.4308,-2812.1599L12924.521,-2812.5M12921.2438,-2812.5L12921.5805,-2811.9667L12921.4203,-2811.2801L12921.5393,-2811.12L12922.0596,-2810.94L12922.3007,-2809.7401L12922.0093,-2809.4601L12921.9604,-2808.8066L12921.8002,-2808.6535L12921.2997,-2808.5934L12921.2601,-2808.6535L12921.17,-2808.6535L12920.9198,-2808.4667L12921.2997,-2808.2268L12921.5805,-2807.58L12922.11,-2807.76L12922.8104,-2808.5934L12922.8104,-2808.6535L12922.9202,-2808.9334L12923.4802,-2809.3401L12923.5703,-2809.5068L12924.0494,-2809.96L12924.6796,-2809.9335L12924.7803,-2810.2135L12924.6796,-2810.3466L12924.2508,-2810.4799L12924.4995,-2810.7668L12924.6796,-2810.7267L12924.7498,-2810.78L12924.6796,-2810.8067L12924.6796,-2810.8732L12925.1801,-2811.0399L12925.65,-2810.6335L12925.8896,-2810.3933L12926.0407,-2809.3935L12926.1002,-2808.9933L12926.4801,-2808.7534L12926.5106,-2808.6535L12926.4297,-2808.2468L12926.0407,-2807.9201L12926.1505,-2807.7534L12926.6006,-2807.2599L12926.9699,-2806.8333L12927.2797,-2806.8333L12927.4796,-2806.5268L12927.89,-2806.3534L12928.3905,-2806.2401L12928.7506,-2806.5201L12928.6606,-2806.6401L12928.4897,-2806.6401L12928.3707,-2807.3133L12928.6896,-2807.5666L12928.45,-2808.0467L12928.4805,-2808.4135L12929.0298,-2808.5333L12929.1306,-2808.6535L12929.0604,-2808.9867L12929.4098,-2809.0532L12929.7806,-2808.8467L12930.0598,-2808.8066L12930.2399,-2808.6535L12930.5206,-2808.6535L12931.3202,-2809.3067L12931.4804,-2809.58L12932.1106,-2809.52L12932.4493,-2808.9268L12931.9702,-2808.6535L12931.5002,-2806.9601L12931.6193,-2806.9401L12931.9794,-2806.9L12931.8604,-2806.58L12931.7398,-2806.1466"/>
<path content="BA010,1,1,JPN" xlink:title="BA010" d="M12937.5,-2811.0378L12937.1796,-2811.2333L12936.7599,-2811.0201L12936.5707,-2811.1799L12936.7294,-2811.6199L12936.1008,-2811.9534L12936.1801,-2812.3734L12935.8989,-2812.5"/>
<path content="BA010,1,1,JPN" xlink:title="BA010" d="M12455.5975,-2592.2088L12455.601,-2592.2114L12455.6085,-2592.2148L12455.6144,-2592.2186L12455.6168,-2592.2178L12455.6194,-2592.2163L12455.6231,-2592.22L12455.6308,-2592.2222L12455.6397,-2592.2297L12455.6417,-2592.2294L12455.6434,-2592.2276L12455.6462,-2592.2207L12455.6599,-2592.2226L12455.6688,-2592.2177L12455.672,-2592.2123L12455.6715,-2592.2099L12455.6635,-2592.2016L12455.6556,-2592.1964L12455.6439,-2592.193L12455.6389,-2592.1937L12455.6311,-2592.1869L12455.6294,-2592.1869L12455.6286,-2592.1885L12455.6245,-2592.1883L12455.6178,-2592.1841L12455.6138,-2592.1849L12455.6119,-2592.1882L12455.6085,-2592.1967L12455.5994,-2592.1961L12455.5961,-2592.201L12455.5975,-2592.2088"/>
<path content="BA010,1,1,JPN" xlink:title="BA010" d="M12455.8914,-2592.3549L12455.8864,-2592.3537L12455.8817,-2592.3521L12455.8715,-2592.3554L12455.8706,-2592.3586L12455.8752,-2592.3669L12455.8804,-2592.3696L12455.8854,-2592.3704L12455.8889,-2592.371L12455.8975,-2592.3781L12455.9095,-2592.3815L12455.9132,-2592.3813L12455.9213,-2592.3762L12455.9388,-2592.3738L12455.9424,-2592.37L12455.9419,-2592.3662L12455.9352,-2592.3619L12455.9279,-2592.3599L12455.9205,-2592.3556L12455.9132,-2592.3556L12455.9017,-2592.3529L12455.8914,-2592.3549"/>
<path content="BA010,1,1,JPN" xlink:title="BA010" d="M12455.9829,-2592.3881L12455.98,-2592.3854L12455.9749,-2592.3836L12455.9659,-2592.3856L12455.9581,-2592.3839L12455.9535,-2592.3865L12455.9468,-2592.3937L12455.9454,-2592.3978L12455.9472,-2592.4003L12455.9605,-2592.3982L12455.9657,-2592.4042L12455.9724,-2592.4006L12455.986,-2592.4045L12455.999,-2592.4046L12456.0064,-2592.4091L12456.0113,-2592.4095L12456.0154,-2592.406L12456.0146,-2592.401L12456.0099,-2592.3952L12456.0069,-2592.3861L12456.0044,-2592.3848L12455.9999,-2592.387L12455.9915,-2592.3835L12455.9877,-2592.3838L12455.9829,-2592.3881"/>
<path content="BA010,1,1,JPN" xlink:title="BA010" d="M12455.9087,-2592.4136L12455.9047,-2592.4051L12455.9027,-2592.4042L12455.8886,-2592.4006L12455.8817,-2592.3996L12455.8845,-2592.4044L12455.8841,-2592.4063L12455.8829,-2592.4204L12455.893,-2592.4233L12455.9085,-2592.4358L12455.9167,-2592.4364L12455.92,-2592.4346L12455.9212,-2592.4281L12455.9161,-2592.4213L12455.916,-2592.4173L12455.9135,-2592.4148L12455.9087,-2592.4136"/>
<path content="BA010,1,1,JPN" xlink:title="BA010" d="M12455.6235,-2592.1603L12455.61,-2592.1625L12455.6066,-2592.1655L12455.6084,-2592.1688L12455.6167,-2592.1746L12455.6219,-2592.177L12455.6311,-2592.1784L12455.6385,-2592.1776L12455.6409,-2592.171L12455.6402,-2592.1639L12455.6369,-2592.1598L12455.6342,-2592.1598L12455.6304,-2592.1625L12455.6281,-2592.1625L12455.6235,-2592.1603"/>
<path content="BA010,1,1,JPN" xlink:title="BA010" d="M12455.9583,-2592.3323L12455.941,-2592.3316L12455.9345,-2592.3331L12455.9283,-2592.3368L12455.9254,-2592.3407L12455.9252,-2592.3457L12455.928,-2592.3506L12455.9358,-2592.35L12455.9448,-2592.3515L12455.9574,-2592.3467L12455.9622,-2592.3467L12455.9692,-2592.3464L12455.9738,-2592.3543L12455.9786,-2592.3536L12455.9852,-2592.3488L12455.9912,-2592.3485L12455.9937,-2592.3474L12455.9963,-2592.3451L12455.9918,-2592.3384L12455.9911,-2592.3335L12455.9892,-2592.331L12455.9854,-2592.3306L12455.9762,-2592.3334L12455.97,-2592.3273L12455.9659,-2592.3248L12455.9628,-2592.3259L12455.9583,-2592.3323"/>
<path content="BA010,1,1,JPN" xlink:title="BA010" d="M12455.8531,-2592.1639L12455.841,-2592.1707L12455.8339,-2592.1708L12455.8333,-2592.1709L12455.8173,-2592.1754L12455.8126,-2592.1798L12455.8073,-2592.1907L12455.8035,-2592.1889L12455.7978,-2592.1822L12455.7913,-2592.1696L12455.7842,-2592.1685L12455.7771,-2592.1635L12455.7714,-2592.1625L12455.7609,-2592.1625L12455.7569,-2592.1532L12455.7541,-2592.1511L12455.7375,-2592.1519L12455.7326,-2592.1516L12455.7234,-2592.1582L12455.7167,-2592.1504L12455.7147,-2592.1498L12455.7121,-2592.1509L12455.7075,-2592.1547L12455.7045,-2592.1564L12455.6923,-2592.1587L12455.6865,-2592.1641L12455.6766,-2592.1592L12455.6724,-2592.1587L12455.6552,-2592.1609L12455.6478,-2592.1574L12455.6465,-2592.1597L12455.6465,-2592.1699L12455.6478,-2592.177L12455.6475,-2592.1836L12455.6506,-2592.1882L12455.6554,-2592.1912L12455.6694,-2592.1977L12455.6797,-2592.2008L12455.6898,-2592.2077L12455.7041,-2592.2122L12455.7032,-2592.2155L12455.6872,-2592.2169L12455.677,-2592.2208L12455.676,-2592.2231L12455.6888,-2592.2277L12455.6925,-2592.2359L12455.6967,-2592.2386L12455.712,-2592.2435L12455.7126,-2592.2464L12455.7111,-2592.2517L12455.7119,-2592.256L12455.7145,-2592.2588L12455.7216,-2592.2608L12455.7269,-2592.2652L12455.7332,-2592.2682L12455.7388,-2592.2688L12455.7528,-2592.2669L12455.7685,-2592.2679L12455.7953,-2592.2741L12455.8038,-2592.2763L12455.8012,-2592.2791L12455.792,-2592.2802L12455.7793,-2592.2794L12455.7581,-2592.277L12455.7501,-2592.2783L12455.7494,-2592.2806L12455.7799,-2592.2849L12455.787,-2592.2886L12455.7857,-2592.2917L12455.783,-2592.292L12455.7759,-2592.2918L12455.751,-2592.2872L12455.7457,-2592.2872L12455.745,-2592.2899L12455.7452,-2592.2938L12455.7509,-2592.2975L12455.7571,-2592.2997L12455.759,-2592.3011L12455.763,-2592.3055L12455.7671,-2592.3083L12455.7855,-2592.3101L12455.7936,-2592.3093L12455.8012,-2592.3112L12455.8088,-2592.3103L12455.8183,-2592.3147L12455.8235,-2592.3169L12455.8291,-2592.3224L12455.8333,-2592.3248L12455.8352,-2592.3258L12455.8429,-2592.3258L12455.8516,-2592.3297L12455.8554,-2592.3299L12455.8623,-2592.3292L12455.8704,-2592.3351L12455.8756,-2592.3356L12455.8802,-2592.3336L12455.8877,-2592.333L12455.8925,-2592.3326L12455.8984,-2592.33L12455.9039,-2592.3264L12455.918,-2592.3256L12455.9278,-2592.3273L12455.9349,-2592.3238L12455.9441,-2592.3223L12455.9509,-2592.318L12455.9495,-2592.3108L12455.9434,-2592.3052L12455.9298,-2592.3037L12455.9206,-2592.3004L12455.9307,-2592.2972L12455.9353,-2592.2945L12455.9373,-2592.2908L12455.9377,-2592.2865L12455.9335,-2592.2817L12455.9284,-2592.2787L12455.9339,-2592.277L12455.9436,-2592.2783L12455.957,-2592.2775L12455.9662,-2592.2797L12455.9738,-2592.2794L12455.986,-2592.2835L12455.9955,-2592.2819L12456.0104,-2592.2833L12456.0225,-2592.2808L12456.0302,-2592.2806L12456.0394,-2592.2779L12456.0505,-2592.2792L12456.06,-2592.2774L12456.0651,-2592.2778L12456.069,-2592.2767L12456.076,-2592.2719L12456.0813,-2592.2703L12456.0863,-2592.2666L12456.0893,-2592.2585L12456.0885,-2592.2544L12456.094,-2592.2451L12456.0915,-2592.2373L12456.0895,-2592.2349L12456.0825,-2592.2308L12456.0819,-2592.2301L12456.0776,-2592.2258L12456.067,-2592.222L12456.0653,-2592.2195L12456.0637,-2592.2151L12456.0594,-2592.2104L12456.051,-2592.2105L12456.0493,-2592.2091L12456.0468,-2592.203L12456.0448,-2592.2014L12456.0355,-2592.202L12456.032,-2592.2007L12456.0198,-2592.1905L12456.0112,-2592.1883L12456.0042,-2592.1848L12456.0001,-2592.1847L12455.9952,-2592.19L12455.9959,-2592.1923L12456.0082,-2592.2016L12456.0059,-2592.2024L12455.9886,-2592.1981L12455.9833,-2592.201L12455.9735,-2592.2013L12455.9669,-2592.2037L12455.9571,-2592.2025L12455.9495,-2592.2044L12455.944,-2592.2036L12455.9297,-2592.1974L12455.9258,-2592.1972L12455.9199,-2592.1994L12455.9107,-2592.1957L12455.9047,-2592.1954L12455.9029,-2592.1953L12455.8941,-2592.1931L12455.8857,-2592.1925L12455.8852,-2592.1891L12455.8885,-2592.1865L12455.8894,-2592.1835L12455.8884,-2592.1726L12455.8852,-2592.1717L12455.8762,-2592.1771L12455.8643,-2592.179L12455.8606,-2592.1758L12455.8556,-2592.1641L12455.8531,-2592.1639"/>
</g>
</svg>
