<?xml version="1.0" encoding="UTF-8"?>
<svg  xmlns="http://www.w3.org/2000/svg" xmlns:xlink="http://www.w3.org/1999/xlink" xmlns:go="http://purl.org/svgmap/profile" property="f_code,acc,exs,soc" viewBox="13500.0 -3937.5 281.25 281.25" go:dataArea="13500.0 -3937.5 281.25 281.25" >
<metadata>
 <rdf:RDF xmlns:rdf="http://www.w3.org/1999/02/22-rdf-syntax-ns#" xmlns:crs="http://opengis.org/xmldtds/transformations.dtd" xmlns:svg="http://www.w3.org/svg" >
  <rdf:Description>
   <crs:CoordinateReferenceSystem rdf:resource="http://purl.org/crs/84" svg:transform="matrix(100.0,0.0,0.0,-100.0,0.0,0.0)" />
  </rdf:Description>
 </rdf:RDF>
</metadata>
<globalCoordinateSystem srsName="http://purl.org/crs/84" transform="matrix(100.0,0.0,0.0,-100.0,0.0,0.0)" />
<defs>
 <g id="p0" >
  <circle cx="0.0" cy="0.0" r="3" stroke="green" stroke-width="2.0" vector-effect="non-scaling-stroke" />
 </g>
</defs>
<g fill="none" fill-rule="evenodd" stroke="#000000" stroke-width="2" opacity="0.5" vector-effect="non-scaling-stroke" stroke-linejoin="bevel" >
<path content="BA010,1,1,JPN" xlink:title="BA010" d="M13671.9696,-3707.0732L13672.1603,-3706.4732L13672.2595,-3705.5733L13672.6807,-3705.0598L13672.9095,-3705.1132L13672.9904,-3705.0331L13673.1003,-3704.8332L13673.3398,-3704.9198L13673.4299,-3704.4735L13673.3795,-3704.1466L13673.6603,-3704.0733L13673.7793,-3703.96L13674.2004,-3703.4199L13673.9807,-3703.4199L13673.9197,-3703.2665L13674.6094,-3703.0132L13674.2905,-3702.3468L13674.2706,-3701.6468L13674.3393,-3701.2268L13674.6399,-3701.0868L13674.6796,-3701.0468L13675.1099,-3701.0532L13675.4807,-3700.6935L13675.5798,-3700.6733L13676.6098,-3700.3201L13676.4893,-3700.2132L13676.5701,-3700.1202L13676.7395,-3700.1598L13676.9592,-3699.2332L13676.5594,-3698.6465L13677.0203,-3698.1533L13676.8204,-3696.3867L13676.2894,-3695.2999L13675.8606,-3695.1332L13675.5402,-3695.1401L13676.0193,-3694.8799L13676.0895,-3694.3531L13674.8703,-3693.0931L13675.09,-3692.5266L13675.4898,-3692.4133L13675.7706,-3692.4198L13675.7202,-3692.1665L13676.03,-3692.3466L13676.5198,-3691.9868L13676.6693,-3690.2065L13675.7706,-3686.6402L13675.2197,-3684.9266L13674.7406,-3683.6533L13674.6796,-3683.5266L13672.4106,-3679.0066L13670.2393,-3675.3201L13670.1706,-3675.2266L13667.5598,-3671.0999L13666.9098,-3670.1267L13664.6103,-3666.9868L13662.1796,-3663.9935L13661.9308,-3663.8134L13661.7096,-3663.6799L13661.3098,-3663.9133L13660.3195,-3662.8265L13660.7605,-3662.4599L13660.5795,-3662.2305L13660.3278,-3661.964L13660.1807,-3661.8401L13658.7692,-3660.4465L13658.4819,-3660.0289L13658.2199,-3659.6466L13657.4493,-3658.6533L13655.6595,-3656.7932L13655.1441,-3656.25"/>
<path content="BA010,1,1,JPN" xlink:title="BA010" d="M13689.2303,-3710.2001L13689.2395,-3710.4134L13689.1693,-3710.8932L13689.0396,-3710.8868L13689.0594,-3710.3065L13689.2303,-3710.2001"/>
<path content="BA010,1,1,JPN" xlink:title="BA010" d="M13694.6396,-3709.1465L13695.0806,-3709.7065L13695.8603,-3710.2001L13696.5195,-3710.4801L13696.8201,-3710.0132L13697.0505,-3709.8068L13697.3404,-3709.9266L13697.58,-3709.7733L13698.1201,-3710.78L13699.6796,-3711.9732L13700.09,-3711.8534L13700.0702,-3711.5467L13700.5402,-3711.2469L13700.4395,-3711.9534L13700.6897,-3712.0667L13700.8102,-3711.5932L13701.2604,-3711.7535L13701.1993,-3711.2667L13701.8097,-3711.3266L13701.9501,-3711.4468L13702.2491,-3711.1534L13702.6993,-3711.6798L13704.0192,-3711.7466L13704.9805,-3712.3402L13704.7302,-3712.5999L13704.9606,-3712.5935L13704.8798,-3713.0531L13704.4403,-3713.2069L13704.0802,-3713.9732L13704.6906,-3714.7934L13705.2795,-3714.92L13705.3894,-3714.9735L13704.9103,-3715.5266L13704.7592,-3715.8531L13704.4403,-3716.0934L13704.4296,-3716.3868L13703.92,-3716.7999L13703.5492,-3716.7999L13702.5406,-3715.8466L13702.3102,-3715.06L13702.2995,-3714.4066L13702.0203,-3714.2666L13701.5594,-3714.4066L13701.4008,-3714.3932L13701.3596,-3714.1132L13701.21,-3714.1399L13701.0406,-3714.1335L13700.8102,-3714.2532L13700.6805,-3713.6269L13700,-3713.5468L13699.9496,-3713.9332L13699.6796,-3713.9935L13699.2493,-3713.9866L13698.8495,-3714.2666L13698.6206,-3715.1199L13698.0499,-3714.8731L13697.76,-3714.7533L13697.0398,-3715.4266L13696.6995,-3715.5132L13696.73,-3715.0333L13696.7606,-3714.7533L13697.7203,-3714.1998L13697.5708,-3714.0266L13696.8506,-3714.5065L13696.2494,-3714.64L13696.2006,-3714.3131L13696.0403,-3714.3066L13695.1508,-3714.4333L13695.1004,-3714.22L13694.8502,-3713.9L13694.4092,-3714.1335L13694.3298,-3714.64L13694.0796,-3714.64L13693.8309,-3714.2868L13693.8599,-3714.0068L13693.4906,-3713.7798L13693.2205,-3714.0266L13693.1198,-3713.4735L13692.7399,-3713.2534L13692.5201,-3713.3736L13692.4194,-3713.0867L13692.2501,-3713.3533L13692.3508,-3714.1998L13692.6193,-3714.4669L13692.3004,-3714.6599L13692.1799,-3714.64L13691.5497,-3715.0734L13691.5207,-3715.34L13691.04,-3715.4934L13691.0202,-3715.1932L13690.8005,-3715.0532L13690.7593,-3715.0002L13690.6006,-3715.3L13690.6006,-3715.4064L13690.3107,-3715.1867L13690.1306,-3715.2L13690.3107,-3714.5535L13690.5304,-3714.6935L13690.48,-3714.4669L13690.3503,-3714.4733L13690.2603,-3714.0266L13690.6204,-3713.8668L13690.6906,-3713.34L13691.0797,-3713.2668L13691.4993,-3713.34L13691.8396,-3712.9467L13692.1005,-3712.4401L13693.2007,-3712.1735L13693.8004,-3711.6135L13694.0109,-3711.2999L13694.1895,-3711.0268L13694.3405,-3710.5865L13694.3207,-3710.4267L13694.6198,-3709.8999L13694.4794,-3709.3334L13694.6396,-3709.1465"/>
<path content="BA010,1,1,JPN" xlink:title="BA010" d="M13686.2595,-3707.1133L13685.8505,-3707.2731L13685.91,-3707.6466L13685.9406,-3708.1001L13686.2,-3708.3065L13686.8408,-3708.6533L13687.0895,-3708.6533L13687.1307,-3708.6533L13687.1094,-3708.8932L13686.6699,-3709.3132L13686.6196,-3709.9133L13686.5799,-3710.26L13686.2396,-3710.4401L13685.8994,-3710.6266L13686.3403,-3710.8265L13687.0209,-3711.34L13687.1796,-3711.2934L13687.3398,-3711.4265L13688.0493,-3711.0065L13688.3499,-3711.52L13689.0701,-3711.0733L13689.27,-3711.1336L13689.3799,-3711.9534L13689.7705,-3713.1065L13689.9597,-3713.7531L13689.7507,-3713.76L13689.5905,-3713.7466L13689.1998,-3714.1399L13688.9694,-3714.4066L13688.7695,-3714.36L13688.5193,-3714.3734L13688.3896,-3714.2467L13688.5406,-3713.9999L13688.1104,-3714.0266L13687.9395,-3713.5601L13687.5198,-3714.1533L13687.5107,-3714.4669L13687.2803,-3714.4669L13687.4603,-3714.6732L13687.9501,-3714.8399L13687.8693,-3715.1199L13688.5101,-3716.4932L13688.9297,-3716.6599L13688.8992,-3716.9132L13688.9496,-3716.9868L13689.2303,-3717.3134L13689.5996,-3717.7067L13690.1993,-3718.38L13690.0299,-3718.42L13690.4404,-3718.5665L13690.7303,-3719.2131L13691.1697,-3719.3401L13691.0797,-3719.6533L13690.7104,-3720.3468L13691.2201,-3720.2332L13691.5497,-3720.0466L13691.7603,-3720.4132L13692.45,-3720.5467L13692.5598,-3720.24L13692.6102,-3719.92L13692.9306,-3720.66L13692.1906,-3721.1868L13692.2501,-3721.4798L13691.9205,-3721.4931L13691.4993,-3721.3799L13691.5405,-3721.8334L13691.33,-3721.8266L13690.9607,-3721.9131L13690.6403,-3721.7934L13691.5894,-3722.7467L13691.7999,-3722.1401L13692.5598,-3722.0135L13692.7597,-3722.1867L13693.19,-3722.0734L13693.3502,-3722.3667L13692.3004,-3722.9733L13692.4896,-3723.3467L13692.8207,-3723.0202L13693.0405,-3723.1533L13693.1595,-3723.2334L13693.3701,-3723.2601L13693.2999,-3722.9801L13693.7195,-3723.0068L13693.8705,-3722.6265L13694.1299,-3722.9134L13694.3298,-3722.4667L13694.8196,-3723.1201L13694.4199,-3723.2265L13695.8603,-3723.5931L13696.0007,-3723.6732L13696.3898,-3723.5401L13696.3806,-3723.4264L13696.6309,-3723.3532L13695.5292,-3722.7798L13694.5999,-3721.6331L13695.2393,-3722.0402L13695.4498,-3721.88L13695.34,-3721.5733L13695.5994,-3721.6465L13695.8603,-3721.3001L13695.7596,-3720.8599L13696.5805,-3720.4067L13696.6904,-3720.8935L13696.8094,-3720.5933L13696.9803,-3720.6333L13697.0093,-3720.1668L13697.9599,-3720.1668L13698.1201,-3720.1466L13698.1796,-3720.5399L13698.7,-3720.0333L13698.7701,-3719.9131L13699.1104,-3719.9867L13699.6796,-3719.4801L13700.0397,-3719.0132L13700.3204,-3718.8667L13700.7004,-3718.3731L13701.0498,-3718.3468L13701.5106,-3718.6333L13701.7197,-3719.0266L13702.4994,-3718.7801L13702.7405,-3719.1601L13702.9205,-3719.5133L13703.3493,-3719.5732L13703.27,-3719.8532L13702.8305,-3719.9734L13703.1296,-3720.2599L13702.5406,-3720.4933L13703.5706,-3720.6066L13704.1397,-3720.76L13704.4205,-3720.8733L13705.2795,-3721.0865L13705.7297,-3720.8866L13706.0303,-3721.32L13706.3797,-3721.3932L13706.5399,-3721.5401L13706.8802,-3721.8067L13706.8497,-3721.9601L13706.6696,-3722.86L13707.5195,-3724.3866L13707.6797,-3724.5666L13708.3206,-3724.8466L13708.6594,-3725.1068L13708.7006,-3725.3201L13709.3994,-3725.7133L13709.1293,-3725.9602L13709.1705,-3726.1467L13709.1003,-3726.2535L13709.4101,-3726.4668L13709.6695,-3727.2667L13709.8892,-3727.9133L13710.8093,-3728.1734L13711.7599,-3728.9066L13712.1796,-3728.9333L13713.0203,-3729.1866L13713.6993,-3729.5799L13714.4302,-3729.9198L13714.5203,-3729.6867L13715.2893,-3729.5334L13714.9994,-3729.6665L13715.0604,-3729.8931L13715.2893,-3729.8534L13715.1398,-3730.4668L13715.0894,-3730.6866L13715.3,-3730.6732L13715.6403,-3730.3333L13715.8096,-3730.1601L13715.8707,-3729.9999L13716.4703,-3729.9599L13716.2598,-3730.1132L13716.3895,-3730.4798L13716.9495,-3730.1334L13717.2897,-3730.0335L13717.8894,-3730.0934L13718.1503,-3729.9866L13718.6005,-3730.0133L13719.1605,-3730.1067L13719.4595,-3729.8401L13719.8395,-3729.9133L13720.4102,-3730.1865L13720.6894,-3730.1334L13720.8893,-3730.1601L13720.7397,-3729.6265L13720.9198,-3729.5467L13721.0297,-3729.6532L13721.46,-3729.6398L13721.5393,-3729.8134L13721.6095,-3729.6799L13722.2794,-3729.6398L13722.1802,-3729.3934L13722.8104,-3729.6532L13722.9996,-3729.6932L13723.4406,-3729.8L13722.8394,-3730.0865L13723.3704,-3729.9934L13723.6099,-3730.2334L13723.3002,-3730.3932L13722.9599,-3730.4134L13722.9095,-3730.5866L13723.4497,-3730.6198L13723.1598,-3730.8201L13723.1506,-3731.1066L13723.3505,-3730.9734L13723.3795,-3731.0734L13723.5001,-3731.0398L13723.88,-3730.6801L13724.0097,-3730.3398L13724.6796,-3730.7468L13725.1999,-3731.8134L13725.9995,-3732.2868L13726.1993,-3732.5401L13726.4603,-3732.7667L13726.1597,-3732.9933L13726.7593,-3733.6533L13726.4297,-3734.1064L13725.8194,-3733.8932L13725.65,-3733.9066L13725.4303,-3733.8665L13725.2502,-3734.0668L13725.5798,-3734.4334L13726.1703,-3734.5734L13726.2192,-3734.8L13726.5396,-3735.3802L13726.7197,-3735.6133L13726.5503,-3735.7933L13725.9201,-3735.5534L13725.1999,-3735.3065L13724.6796,-3735.6602L13724.2706,-3736.6066L13724.5605,-3736.8668L13723.9502,-3737.2131L13723.88,-3737.3531L13723.7396,-3738.9465L13724.2706,-3739.64L13724.44,-3739.8266L13724.4904,-3741.1331L13724.6796,-3741.4001L13724.8199,-3741.9868L13725.6805,-3743.1801L13725.9201,-3743.3201L13726.0193,-3743.1866L13726.3992,-3743.4399L13726.4496,-3743.4467L13726.4297,-3743.5131L13726.6403,-3743.4868L13726.6006,-3743.3132L13726.6205,-3743.3067L13726.7502,-3743.7332L13728.9795,-3744.26L13730.2704,-3744.2398L13730.6,-3744.1067L13730.6,-3744.0468L13730.8502,-3743.9667L13730.9204,-3743.8801L13731.0699,-3743.6668L13731.3705,-3743.8667L13734.0393,-3744.1135L13735.2997,-3744.5866L13736.0504,-3745.1801L13735.6491,-3746.3799L13735.6293,-3746.6934L13734.4101,-3747.6799L13733.9706,-3748.6732L13734.4406,-3749.4598L13734.9503,-3749.8333L13735.0204,-3750.1801L13735.0998,-3750.3201L13734.3597,-3751.1398L13734.4894,-3751.5732L13733.8898,-3751.6666L13732.9102,-3751.9531L13732.6294,-3752.6066L13732.7499,-3752.9598L13732.5104,-3752.9667L13730.8899,-3752.7332L13730.6595,-3752.8667L13729.6005,-3752.6466L13728.8605,-3753.0132L13728.1998,-3752.7332L13727.6199,-3753.1399L13727.6794,-3753.3466L13727.4796,-3753.3466L13726.5305,-3752.8599L13726.3199,-3753.1334L13726.0696,-3753.0666L13725.6592,-3752.8599L13724.91,-3752.5002L13724.6796,-3752.5799L13724.6796,-3752.5265L13724.6796,-3752.5002L13724.6506,-3752.2999L13724.6796,-3752.2732L13724.6796,-3752.2133L13724.1806,-3751.9466L13723.7198,-3752.1332L13723.5901,-3752.1332L13723.3093,-3751.68L13723.1201,-3751.6869L13722.8394,-3751.6602L13722.6395,-3751.7601L13722.2107,-3751.4801L13721.9803,-3751.5865L13721.9605,-3751.5934L13721.8399,-3751.4198L13721.7896,-3751.0399L13720.7703,-3750.6134L13720.1996,-3750.7465L13720.1492,-3750.8202L13719.31,-3750.42L13719.0598,-3750.4269L13718.7698,-3750.3201L13718.7805,-3750.2468L13717.7505,-3750.0134L13717.1097,-3750.3132L13716.8793,-3750.3132L13714.5996,-3749.9599L13714.2197,-3749.7665L13713.3194,-3749.4801L13712.1796,-3749.1333L13711.5402,-3748.7267L13711.3205,-3748.7331L13710.8795,-3748.5065L13710.73,-3748.3265L13710.4492,-3748.0202L13709.7092,-3747.9L13709.4894,-3747.9134L13709.3597,-3747.9134L13709.4193,-3747.8664L13709.3903,-3747.7135L13709.23,-3747.7333L13709.0607,-3747.6467L13709.2392,-3747.2668L13708.7402,-3746.9002L13708.5892,-3746.6801L13708.5693,-3746.6267L13708.0994,-3746.3532L13707.4097,-3745.9133L13707.0801,-3745.48L13705.3802,-3744.9268L13704.9103,-3744.9131L13704.5792,-3745.0333L13704.5395,-3744.4931L13702.9099,-3743.2999L13702.1301,-3743.2999L13702.0691,-3743.3666L13701.9302,-3743.3132L13701.6998,-3743.3201L13699.6796,-3742.5133L13698.2101,-3741.9868L13697.4808,-3741.3864L13696.8796,-3741.2399L13696.5607,-3741.2731L13693.3105,-3739.9067L13692.4301,-3739.5332L13690.9409,-3739.5267L13690.3198,-3739.7865L13690.1596,-3740.0398L13689.8697,-3740.2199L13689.9506,-3740.3133L13689.9994,-3740.3133L13690.1901,-3740.4469L13690.2206,-3740.4667L13689.7095,-3740.6868L13689.5493,-3740.5468L13689.4394,-3740.2134L13688.9496,-3740.1867L13687.9608,-3740.5601L13687.4207,-3740.7333L13687.2101,-3740.7269L13687.1796,-3740.76L13686.9904,-3740.7066L13686.8103,-3740.7269L13686.7294,-3740.6666L13686.5906,-3740.5399L13685.7101,-3740.2599L13685.2097,-3740.2668L13685.0998,-3740.0665L13684.8206,-3740.2134L13684.4406,-3740.0398L13684.2499,-3740.0398L13683.8699,-3739.7202L13683.4305,-3739.3665L13683.2703,-3739.3665L13682.9498,-3738.9866L13682.3807,-3738.8332L13682.2205,-3738.8268L13682.0999,-3738.8332L13681.1005,-3738.6002L13680.9204,-3738.2999L13680.9097,-3738.2332L13680.5603,-3738.2401L13680.0598,-3737.5999L13679.7699,-3737.7865L13679.1901,-3737.78L13679.0497,-3737.4535L13678.3508,-3737.2131L13678.1494,-3736.8534L13677.7298,-3737.0731L13677.7008,-3737.0533L13677.5101,-3736.7134L13677.3499,-3736.7535L13677.2308,-3736.6734L13677.1606,-3736.7401L13677.0203,-3736.7401L13676.4008,-3736.5665L13675.5997,-3736.4334L13675.1495,-3735.7334L13675.3998,-3735.3867L13675.6805,-3735.2402L13675.1099,-3734.4933L13674.6796,-3734.2865L13674.5499,-3734.28L13673.9502,-3734.8064L13673.7793,-3734.8L13673.79,-3734.3399L13673.8892,-3733.9668L13673.7,-3733.6533L13672.4899,-3732.7534L13672.1603,-3732.1266L13672.3999,-3731.6067L13672.3404,-3730.7468L13672.7097,-3730.64L13672.5296,-3730.2868L13672.5693,-3730.0201L13672.4899,-3729.3865L13672.7905,-3729.4464L13672.8302,-3729.2599L13673.1796,-3729.2599L13673.4909,-3728.6201L13673.3109,-3728.0998L13672.1207,-3725.6866L13671.73,-3725.3201L13671.1197,-3724.8268L13670.9503,-3724.8199L13670.6299,-3724.8531L13670.3201,-3724.5201L13669.9997,-3724.2268L13670.0699,-3723.9201L13670.0302,-3723.7469L13670.4498,-3723.0267L13670.0394,-3722.3133L13669.7693,-3722.2733L13669.5206,-3722.3202L13669.6198,-3721.9799L13669.2596,-3721.5267L13668.9896,-3721.5267L13668.8995,-3721.5L13668.7302,-3721.1132L13668.5196,-3721.1201L13667.9993,-3720.6398L13668.0099,-3720.4201L13668.1992,-3720.1866L13667.7994,-3719.9467L13668.2098,-3719.5801L13667.9794,-3719.1399L13667.5797,-3718.8732L13667.6102,-3717.7933L13667.3508,-3716.9868L13667.6208,-3716.5466L13667.3508,-3716.1598L13667.2302,-3715.5132L13667.0105,-3714.9067L13667.16,-3714.2868L13667.6407,-3713.8401L13668.3792,-3714.0732L13668.5104,-3714.0202L13668.4494,-3713.5933L13668.7195,-3713.76L13669.3497,-3713.9801L13669.5496,-3714.0202L13669.8502,-3714.36L13669.96,-3714.3532L13669.7998,-3714.3932L13670.0607,-3714.9735L13670.99,-3714.92L13672.0993,-3714.2334L13672.7005,-3713.3934L13672.7905,-3712.78L13672.8394,-3712.5732L13672.6898,-3712.3402L13672.5296,-3711.5467L13672.8897,-3710.4599L13672.7402,-3710.2268L13672.5998,-3710.2333L13672.9401,-3709.8331L13672.6105,-3709.4868L13672.5906,-3709.2999L13672.4304,-3709.1732L13672.1909,-3708.82L13672.1207,-3708.6533L13672.2198,-3708.6533L13672.2504,-3708.6533L13672.3404,-3708.6533L13672.3602,-3708.6533L13672.7097,-3708.5598L13672.5098,-3708.4465L13672.6303,-3708.3199L13672.29,-3708.3733L13671.8002,-3707.8068L13671.9299,-3707.5199L13671.9696,-3707.0732"/>
<path content="BA010,1,1,JPN" xlink:title="BA010" d="M13685.5408,-3758.72L13685.5408,-3758.7734L13685.4797,-3758.8867L13685.35,-3758.8867L13685.5408,-3758.72"/>
<path content="BA010,1,1,JPN" xlink:title="BA010" d="M13687.7106,-3758.6735L13687.5702,-3759.0199L13687.5305,-3759.0267L13687.4695,-3758.96L13687.7106,-3758.6735"/>
<path content="BA010,1,1,JPN" xlink:title="BA010" d="M13690.1901,-3760.8868L13690.1306,-3761.1534L13689.8804,-3761.2732L13689.7797,-3761.1801L13689.5096,-3760.9798L13689.7003,-3761.0134L13690.0604,-3760.9467L13690.1901,-3760.8868"/>
<path content="BA010,1,1,JPN" xlink:title="BA010" d="M13691.3803,-3784.4666L13691.6199,-3784.7065L13691.9296,-3784.8L13691.8594,-3784.9869L13691.98,-3785.0132L13692.4393,-3785.2135L13692.3203,-3785.54L13692.2104,-3785.5202L13691.6901,-3785.3931L13691.4993,-3785.1601L13691.2308,-3784.8L13691.3803,-3784.4666"/>
<path content="BA010,1,1,JPN" xlink:title="BA010" d="M13781.25,-3703.1206L13781.0104,-3702.9999L13775.3098,-3701.2867L13774.6796,-3701.0735L13773.4299,-3700.56L13773.0804,-3700.3201L13770.1401,-3699.5731L13767.5095,-3698.8735L13765.4907,-3698.32L13765.2893,-3698.1533L13763.4903,-3698.0331L13762.1796,-3697.8466L13758.5693,-3697.4068L13758.5495,-3697.3331L13758.6304,-3697.3133L13757.2205,-3696.3932L13754.2603,-3696.1201L13753.5599,-3696.1201L13750.4791,-3695.7466L13749.6796,-3695.6131L13748.6694,-3695.1935L13747.2397,-3694.5267L13746.5302,-3694.2066L13745.1797,-3693.6199L13743.5104,-3693.0534L13742.6605,-3692.4534L13742.5797,-3692.2531L13742.2501,-3691.9868L13741.98,-3691.42L13740.95,-3689.6667L13741.4505,-3689.1533L13741.8701,-3687.6801L13741.5802,-3686.6867L13740.9393,-3686.1198L13741.0004,-3685.2066L13741.1301,-3685.4599L13741.1102,-3684.8133L13739.9704,-3683.6533L13739.2807,-3682.2132L13739.3997,-3682.0866L13739.2593,-3682.1133L13739.3204,-3681.9466L13739.2197,-3680.6599L13738.2095,-3680.0598L13737.8098,-3679.8267L13737.1796,-3679.5135L13735.6995,-3678.6999L13734.3994,-3677.7332L13734.2407,-3677.1667L13733.4793,-3676.4534L13733.0597,-3676.1932L13731.7001,-3675.8667L13731.5903,-3675.8865L13730.1392,-3675.9335L13730.2002,-3675.8068L13729.1901,-3675.7866L13726.6495,-3676.1734L13724.6796,-3676.4935L13724.53,-3676.4935L13723.9395,-3676.5068L13723.6099,-3676.5133L13723.4695,-3676.4999L13723.4497,-3676.6132L13723.0896,-3676.6335L13723.3795,-3676.5469L13723.2803,-3676.5266L13722.9095,-3676.4599L13722.7997,-3676.1665L13722.4503,-3676.2531L13720.61,-3675.9533L13720.43,-3675.9468L13719.2703,-3676.1066L13718.9194,-3675.7336L13718.6493,-3675.7267L13718.4601,-3675.7198L13717.9993,-3675.7732L13715.2603,-3676.4999L13713.8092,-3676.96L13713.0096,-3677.1999L13713.2004,-3677.66L13713.6292,-3677.5333L13713.5803,-3677.3869L13713.6505,-3677.5467L13712.1796,-3677.9667L13712.0605,-3677.7065L13711.9507,-3677.7401L13711.9293,-3677.5131L13711.7096,-3677.52L13711.8896,-3677.2865L13711.9202,-3677.2266L13711.85,-3676.9199L13712.1796,-3676.4935L13713.1897,-3676.0799L13713.4094,-3676.0067L13713.1805,-3675.7401L13713.0493,-3675.7198L13712.3398,-3675.9399L13712.1796,-3676.0666L13711.2595,-3676.5068L13711.1206,-3676.2066L13710.8994,-3676.3535L13711.1893,-3676.7868L13710.3195,-3676.9936L13709.4803,-3677.0668L13709.1995,-3677.0599L13709.23,-3677.2266L13709.3201,-3677.2865L13709.7092,-3677.1732L13709.6191,-3677.4734L13709.8495,-3677.4265L13710.4599,-3677.5932L13711.0291,-3677.4666L13711.3602,-3677.4799L13711.0397,-3677.7199L13711.3297,-3678.1601L13710.0204,-3678.5133L13709.9091,-3678.2536L13709.3399,-3678.4134L13709.6893,-3678.2932L13709.5596,-3678.2001L13709.3094,-3678.22L13709.3506,-3678.3199L13709.2804,-3678.2333L13708.9706,-3678.2867L13708.9203,-3678.22L13708.2504,-3678.5133L13707.9605,-3678.8868L13707.1793,-3679.2068L13706.7703,-3679.4132L13705.7892,-3680.2799L13705.5603,-3680.2666L13705.0995,-3680.8399L13703.9093,-3681.6666L13701.6495,-3682.9601L13700.7294,-3683.6533L13699.6796,-3684.6066L13698.9197,-3685.7468L13699.3301,-3685.96L13699.231,-3686.1801L13699.2706,-3686.0134L13699.1196,-3686.0001L13699.0509,-3686.2068L13698.9594,-3685.8868L13698.9594,-3686.1801L13698.79,-3686.1732L13698.7305,-3686.3468L13698.3704,-3687.2799L13698.7305,-3687.9932L13699.2599,-3688.0001L13699.5499,-3688.5399L13699.6796,-3688.52L13700.0504,-3688.9732L13700.3906,-3689.0934L13701.1002,-3689.9399L13701.9501,-3691.2468L13702.0798,-3691.2869L13702.5299,-3691.5001L13702.6199,-3691.9868L13703.2104,-3692.4198L13702.6596,-3693.8999L13704.2297,-3695.24L13704.9698,-3695.8935L13705.1605,-3695.9534L13705.3101,-3696.2868L13705.6503,-3696.8067L13705.0201,-3697.8134L13705.0003,-3698.2868L13704.9301,-3698.74L13705.3696,-3699.5201L13704.7104,-3700.3201L13704.6799,-3701.2001L13705.0903,-3702.1534L13704.7394,-3703.1136L13704.66,-3703.9066L13704.9606,-3705.3467L13704.9194,-3705.8468L13705.1895,-3706.6135L13705.3101,-3707.2399L13705.3101,-3707.6664L13705.04,-3708.3267L13705.0491,-3708.6533L13705.2002,-3709.5333L13704.9301,-3709.8934L13705.1895,-3710.4534L13705.6396,-3710.3931L13705.7404,-3710.8131L13705.13,-3710.68L13704.4601,-3710.68L13704.3106,-3710.6735L13704.1794,-3710.7601L13703.4195,-3710.36L13702.9907,-3710.7132L13702.6703,-3710.2798L13702.5604,-3710.2333L13702.4994,-3710.3134L13702.2705,-3710.1398L13701.7303,-3709.5333L13701.3596,-3709.0668L13701.2207,-3708.7734L13701.1703,-3708.6533L13700.9995,-3708.0334L13701.1398,-3707.3734L13701.0803,-3707.1667L13700.8698,-3707.2334L13700.47,-3706.8134L13700.3906,-3706.3866L13700.6805,-3706.2134L13700.4105,-3705.74L13699.9802,-3705.5466L13699.6796,-3705.92L13699.4598,-3705.9799L13699.1196,-3705.7999L13699.231,-3705.6465L13699.3896,-3705.6732L13699.2706,-3705.6068L13699.4598,-3705.2666L13699.3393,-3705.1666L13699.1501,-3705.2666L13698.3902,-3704.8599L13698.3002,-3704.9534L13698.0499,-3704.8401L13698.3307,-3705.0201L13697.9706,-3705.0598L13697.9996,-3705.2532L13697.8607,-3705.2666L13697.76,-3705.1067L13697.5998,-3705.3398L13697.4899,-3704.7867L13697.0901,-3704.7668L13696.2601,-3705.3265L13696.0205,-3705.1601L13696.0205,-3705.4867L13695.5505,-3705.7335L13695.6299,-3705.9799L13695.8206,-3705.8933L13696.2296,-3706.7532L13695.3201,-3706.8333L13694.6304,-3706.8199L13694.4595,-3706.8333L13694.0002,-3706.8066L13693.6005,-3707.4333L13693.6295,-3707.9266L13694.3604,-3708.3801L13694.1895,-3708.3801L13693.5501,-3708.6533L13693.0695,-3708.7399L13692.9199,-3708.6533L13692.6697,-3708.6067L13692.63,-3708.6533L13692.4606,-3708.8135L13691.5405,-3709.0866L13691.4108,-3709.0599L13691.2903,-3709.0534L13691.0995,-3709.0801L13690.6494,-3708.8333L13690.5106,-3708.6533L13690.4099,-3708.1932L13690.5808,-3707.7267L13690.3503,-3707.7332L13689.83,-3707.2067L13689.4608,-3707.2067L13688.9206,-3707.3666L13688.7695,-3706.86L13688.5498,-3706.8668L13688.1607,-3706.8531L13687.1796,-3707.1735L13686.4502,-3707.4532L13686.2595,-3707.1133"/>
</g>
</svg>
