<?xml version="1.0" encoding="UTF-8"?>
<svg  xmlns="http://www.w3.org/2000/svg" xmlns:xlink="http://www.w3.org/1999/xlink" xmlns:go="http://purl.org/svgmap/profile" property="f_code,acc,exs,soc" viewBox="14062.5 -3937.5 562.5 562.5" go:dataArea="14062.5 -3937.5 562.5 562.5" >
<metadata>
 <rdf:RDF xmlns:rdf="http://www.w3.org/1999/02/22-rdf-syntax-ns#" xmlns:crs="http://opengis.org/xmldtds/transformations.dtd" xmlns:svg="http://www.w3.org/svg" >
  <rdf:Description>
   <crs:CoordinateReferenceSystem rdf:resource="http://purl.org/crs/84" svg:transform="matrix(100.0,0.0,0.0,-100.0,0.0,0.0)" />
  </rdf:Description>
 </rdf:RDF>
</metadata>
<globalCoordinateSystem srsName="http://purl.org/crs/84" transform="matrix(100.0,0.0,0.0,-100.0,0.0,0.0)" />
<defs>
 <g id="p0" >
  <circle cx="0.0" cy="0.0" r="3" stroke="green" stroke-width="2.0" vector-effect="non-scaling-stroke" />
 </g>
</defs>
<g fill="none" fill-rule="evenodd" stroke="#000000" stroke-width="2" opacity="0.5" vector-effect="non-scaling-stroke" stroke-linejoin="bevel" >
<path content="BA010,3,1,JPN" xlink:title="BA010" d="M14086.0992,-3574.2931L14085.82,-3574.3999L14085.1898,-3574.3866L14084.8907,-3574.4198L14084.6497,-3574.3267"/>
<path content="BA010,1,1,JPN" xlink:title="BA010" d="M14062.5,-3567.2335L14062.5107,-3567.2401L14065.5396,-3568.8198L14068.5806,-3569.82L14070.7199,-3570.2065L14072.02,-3570.0531L14072.4304,-3569.5332L14072.5204,-3569.36L14073.3795,-3569.1467L14073.3902,-3569.2665L14073.6145,-3569.3485L14073.7,-3569.1601L14074.6796,-3569.3401L14075.9399,-3569.6133L14076.12,-3569.7933L14081.1005,-3571.2265L14083.0795,-3571.3467L14083.7997,-3571.0999L14084.1705,-3570.3331L14084.4299,-3570.24L14084.6695,-3569.8734L14084.5596,-3569.9467L14084.7198,-3569.7201L14084.8297,-3569.7933L14084.9197,-3569.6133L14085.0708,-3569.5801L14084.9197,-3569.7865L14085.1501,-3569.6667L14085.17,-3569.78L14085.9299,-3569.5133L14086.5494,-3569.3401L14086.3495,-3570.3133L14086.6302,-3570.6467L14086.9293,-3570.6867L14086.8607,-3570.8801L14086.6104,-3571.2467L14087.0895,-3571.8266L14086.8103,-3572.9797L14086.7493,-3573.1068L14086.9003,-3573.1335L14086.4594,-3573.4066L14086.9003,-3573.6L14086.4304,-3574.2134L14086.2198,-3574.2599L14086.1404,-3574.4667L14086.0992,-3574.2931"/>
<path content="BA010,1,1,JPN" xlink:title="BA010" d="M14071.0602,-3592.68L14071.17,-3594.0666L14071.2494,-3595.4666L14071.1395,-3594.0533L14071.0602,-3592.68"/>
<path content="BA010,1,1,JPN" xlink:title="BA010" d="M14084.6497,-3574.3267L14084.6191,-3574.6399L14084.5032,-3574.8348L14084.2804,-3574.6399L14083.9996,-3574.8734L14084.1095,-3575.0198L14083.8303,-3574.8531L14083.1802,-3575.3201L14077.4994,-3582.3265L14076.4999,-3583.6533L14074.6796,-3586.1732L14074.4095,-3586.52L14073.9807,-3587.36L14074.1699,-3587.4466L14073.8098,-3587.9333L14070.9106,-3591.9865L14070.7108,-3592.4999L14070.4803,-3592.3931L14070.4895,-3592.2134L14070.2301,-3592.2066L14070.0104,-3592.5667L14069.0994,-3591.9865L14067.7307,-3591.1999L14067.9993,-3589.9666L14069.0796,-3588.2935L14068.7195,-3588.1798L14067.7506,-3589.6667L14067.4805,-3589.6999L14067.3599,-3591.2666L14067.0807,-3591.6664L14066.8793,-3591.8331L14066.7297,-3591.9865L14066.2903,-3592.3401L14066.2903,-3592.86L14066.6992,-3592.6731L14066.5405,-3592.3801L14067.4194,-3591.9865L14067.8406,-3591.9865L14069.3802,-3592.96L14069.2703,-3593.2133L14069.4199,-3593.3399L14069.3604,-3593.4399L14070.1096,-3593.7733L14068.1,-3597.0932L14067.3599,-3596.8864L14065.7196,-3599.5934L14065.3503,-3600.3201L14064.9002,-3601.2268L14062.5,-3605.6553M14062.5,-3637.4666L14062.6801,-3638.1332L14062.5,-3638.2981M14062.5,-3643.1248L14062.6862,-3643.124L14062.7014,-3644.1441L14062.5,-3644.1472M14062.5,-3649.797L14062.5702,-3649.8466L14062.8098,-3649.5132L14062.7502,-3650L14062.8296,-3649.9668L14062.8296,-3650.1266L14062.8998,-3650.2068L14062.9593,-3650.3201L14063.2507,-3650.9998L14063.3102,-3651.4866L14064.0793,-3654.0268L14064.6606,-3654.4601L14064.4699,-3655.1132L14065.5396,-3657.6L14066.2903,-3658.1467L14066.3101,-3658.6533L14066.6595,-3659.4666L14067.1295,-3659.8202L14068.2999,-3661.6798L14068.9102,-3662.1601L14069.1895,-3663.2668L14069.4107,-3664.4135L14069.8593,-3664.8933L14069.9905,-3665.0799L14070.1202,-3665.0398L14070.05,-3665.2599L14070.5002,-3665.5468L14070.9,-3665.5601L14071.2204,-3665.8333L14071.3394,-3666.0267L14071.64,-3666.2399L14071.46,-3666.9868L14071.6904,-3669.2734L14072.6898,-3671.78L14072.9202,-3672.3202L14073.1201,-3674.2332L14073.3398,-3674.86L14073.5397,-3675.3201L14074.6796,-3678.0735L14075.6195,-3679.4601L14077.0508,-3681.9931L14077.89,-3682.5798L14078.5599,-3682.7198L14078.5599,-3682.9132L14078.7201,-3682.6733L14078.6301,-3682.9468L14078.92,-3682.8133L14078.9001,-3682.9731L14079.1,-3682.9868L14079.1595,-3682.8735L14079.1901,-3682.9933L14079.4296,-3682.7465L14079.8096,-3682.6935L14080.6198,-3683.1268L14080.3299,-3683.3267L14080.3497,-3683.5934L14080.3299,-3683.6533L14080.0995,-3683.9867L14079.7302,-3684.4334L14079.7592,-3685.4L14079.5105,-3685.7666L14079.3106,-3685.6335L14079.3594,-3685.96L14079.2404,-3685.9531L14079.1504,-3686.0199L14079.0207,-3686.0065L14079.0894,-3687.5935L14080.1407,-3689.4001L14081.7795,-3690.8733L14082.9208,-3691.2601L14083.2001,-3691.0336L14083.4702,-3691.1335L14083.6304,-3691.0667L14083.6594,-3691.1266L14083.8196,-3691.0267L14084.1003,-3690.9134L14085.4095,-3691.9868L14085.9802,-3692.0399L14086.1694,-3692.1799L14086.7004,-3692.5133L14087.1796,-3692.2668L14087.41,-3692.3801L14087.1506,-3692.5823L14087.4603,-3692.8001L14087.1796,-3692.9466L14086.9125,-3693.1633L14088.6551,-3694.0594L14088.9572,-3693.7023L14089.4897,-3693.9133L14089.6286,-3694.3325L14089.8941,-3694.3321L14090.1093,-3694.12L14090.6158,-3694.1364L14090.7806,-3694.5534L14091.0706,-3694.4466L14091.5695,-3694.0132L14091.3696,-3694.0266L14091.3788,-3693.6882L14092.07,-3693.4334L14092.5308,-3693.6466L14092.6407,-3694.08L14094.0598,-3695.4933L14095.1202,-3695.52L14095.1401,-3695.5601L14094.9997,-3695.7333L14095.05,-3696.1533L14095.3094,-3696.1735L14096.0098,-3696.7731L14096.0205,-3697.0665L14096.3104,-3697.0001L14096.7194,-3697.0867L14096.7407,-3697.2733L14096.9498,-3697.4201L14096.7194,-3697.9332L14097.3602,-3699.1467L14097.8104,-3699.2268L14098.1796,-3699.4865L14098.1995,-3699.6799L14098.0408,-3700.3201L14097.8806,-3701.0601L14097.4899,-3701.3199L14097.3099,-3703.8265L14097.9095,-3707.4867L14098.2498,-3708.6533L14099.0906,-3710.3733L14099.4904,-3710.5801L14099.6796,-3710.7399L14099.9405,-3711.0935L14099.9802,-3711.5734L14099.9191,-3711.9202L14100,-3713.9935L14100.3403,-3714.4932L14100.5295,-3714.5802L14100.2396,-3714.7266L14100.0397,-3715.0665L14100.2502,-3715.1199L14100.3494,-3715.1466L14100.0793,-3715.58L14100.1297,-3716.7534L14099.9802,-3716.9868L14100.0793,-3718.3735L14100.6302,-3721.2532L14101.2299,-3722.58L14101.2497,-3722.8935L14102.2705,-3722.8935L14102.8397,-3723.7667L14102.8198,-3723.7736L14102.2491,-3722.9134L14101.6602,-3723L14101.6693,-3723.4333L14102.1103,-3723.4932L14101.9897,-3724.0398L14101.2405,-3724.1001L14101.2894,-3725.3201L14102.42,-3729.9732L14102.5894,-3730.4798L14102.5192,-3731.1867L14102.5604,-3731.3732L14103.1799,-3731.3534L14103.6804,-3731.7467L14102.9694,-3731.4667L14102.9999,-3731.9668L14102.98,-3731.9733L14102.9205,-3731.4735L14102.8397,-3731.48L14102.8198,-3731.6601L14102.7695,-3732.2334L14103.1693,-3732.1266L14103.2303,-3732.0999L14103.6194,-3731.9L14103.6407,-3731.9199L14103.1006,-3732.1999L14102.5803,-3732.3734L14102.71,-3733.6533L14102.98,-3734.1267L14103.1494,-3734.3868L14103.2303,-3734.8064L14103.5004,-3735.7468L14103.7399,-3736.2068L14103.9093,-3736.3869L14103.5797,-3736.8267"/>
<path content="BA010,1,1,JPN" xlink:title="BA010" d="M14150.1999,-3824.6399L14149.7192,-3825.2068L14149.8199,-3825.3201L14149.8795,-3825.6401L14149.7604,-3825.7668L14149.6796,-3825.6733L14149.4904,-3825.5936L14149.2493,-3825.98L14149.0005,-3825.98L14148.9105,-3826.5999L14148.6801,-3827.1133L14148.2193,-3827.7134L14147.8104,-3827.98L14147.5998,-3828.1666L14146.9498,-3828.3466L14146.6599,-3828.0869L14146.0693,-3828.3669L14146.1197,-3828.0399L14146.2799,-3827.5665L14145.9305,-3827.4666L14145.7306,-3827.3335L14145.9503,-3827.2667L14145.7901,-3826.8269L14146.3898,-3826.8398L14146.6995,-3826.8398L14146.5591,-3826.5133L14146.8903,-3826.6468L14147.2397,-3826.2135L14147.2504,-3826.1002L14147.4197,-3825.5466L14147.5693,-3825.3201L14148.0103,-3825.0401L14148.2193,-3825.1202L14148.6298,-3825.0134L14148.8693,-3825.0465L14149.1501,-3824.9733L14149.5102,-3825.0866L14149.6506,-3824.7932L14149.6796,-3824.7932L14149.9496,-3824.6532L14150.1999,-3824.6399"/>
<path content="BA010,1,1,JPN" xlink:title="BA010" d="M14140.9103,-3828.5465L14141.2308,-3828.6598L14141.8594,-3828.8666L14142.3096,-3828.9001L14142.6895,-3829.2465L14142.9993,-3829.3266L14142.7704,-3829.4201L14142.4896,-3829.4132L14142.07,-3830.6801L14142.2501,-3830.74L14141.9495,-3831.1134L14141.629,-3831.2801L14140.9393,-3830.5401L14141.1896,-3829.7932L14140.6601,-3828.9867L14140.9103,-3828.5465"/>
<path content="BA010,1,1,JPN" xlink:title="BA010" d="M14157.4402,-3826.9268L14157.7393,-3826.9333L14157.9605,-3827.2469L14158.6395,-3827.8133L14158.2001,-3828.08L14158.3603,-3828.1799L14158.2397,-3828.3867L14158.0597,-3828.7666L14158.2993,-3829.1332L14158.4702,-3829.4334L14158.9706,-3830.0934L14158.9905,-3830.2399L14158.5602,-3830.3867L14157.8903,-3830.5866L14156.8497,-3830.9601L14157.1304,-3831.3L14156.7307,-3831.3934L14155.6793,-3830.8266L14154.8004,-3830.2734L14155.1392,-3829.4399L14155.4306,-3828.6068L14156.2302,-3828.0334L14156.9702,-3827.5002L14157.3395,-3827.1267L14157.4402,-3826.9268"/>
<path content="BA010,1,1,JPN" xlink:title="BA010" d="M14116.1804,-3831.7532L14115.9805,-3831.9668L14115.8005,-3832.0732L14115.5396,-3832.0999L14115.6799,-3831.8134L14116.1804,-3831.7532"/>
<path content="BA010,1,1,JPN" xlink:title="BA010" d="M14106.9504,-3832.4398L14107.2205,-3832.6065L14107.4402,-3832.6L14107.5607,-3832.6466L14107.4493,-3832.7999L14106.8298,-3832.6801L14106.6895,-3832.6935L14106.9504,-3832.4398"/>
<path content="BA010,1,1,JPN" xlink:title="BA010" d="M14110.6705,-3832.7534L14110.6598,-3832.8667L14110.35,-3833.3L14110.0296,-3833.4068L14109.4696,-3833.6533L14109.3796,-3833.6533L14109.0195,-3833.5934L14108.9905,-3833.6533L14108.8898,-3833.6533L14108.5999,-3833.6067L14108.6395,-3833.2932L14108.8806,-3833.1131L14109.4299,-3833.2535L14109.8404,-3833.2401L14110.6705,-3832.7534"/>
<path content="BA010,1,1,JPN" xlink:title="BA010" d="M14105.2002,-3833.6533L14105.1392,-3833.7799L14105.1392,-3833.6533L14105.2002,-3833.6533"/>
<path content="BA010,1,1,JPN" xlink:title="BA010" d="M14105.4306,-3833.5667L14105.4993,-3833.6533L14105.4703,-3833.8066L14105.2704,-3833.6533L14105.2795,-3833.5667L14105.4306,-3833.5667"/>
<path content="BA010,1,1,JPN" xlink:title="BA010" d="M14111.3998,-3834.1133L14111.6791,-3834.3067L14111.47,-3834.3533L14111.2991,-3834.3132L14111.3998,-3834.1133"/>
<path content="BA010,1,1,JPN" xlink:title="BA010" d="M14111.0199,-3833.1333L14110.9406,-3833.4934L14111.1404,-3833.4534L14111.1893,-3833.6533L14111.4105,-3833.6533L14111.4792,-3833.6533L14111.5402,-3833.6533L14111.6302,-3833.6533L14111.9202,-3834.14L14112.1002,-3834.5135L14111.4593,-3833.9268L14111.2595,-3833.9134L14111.0794,-3834.1133L14110.9894,-3833.9867L14110.7193,-3833.9199L14110.5698,-3834.1934L14110.4004,-3834.2865L14110.6903,-3833.6533L14111.0199,-3833.1333"/>
<path content="BA010,1,1,JPN" xlink:title="BA010" d="M14112.4405,-3832.5733L14112.6404,-3832.6935L14112.7701,-3832.6065L14112.8098,-3832.9067L14112.5793,-3833.1333L14113.0096,-3833.2066L14113.0493,-3833.2867L14112.8799,-3833.2798L14112.8494,-3833.4934L14112.7304,-3833.6533L14112.8006,-3833.6533L14112.8998,-3833.6533L14112.9898,-3833.6533L14113.1699,-3833.6067L14113.1699,-3833.6533L14113.0997,-3833.9931L14113.1302,-3834.2266L14112.8098,-3833.9401L14112.8799,-3834.3735L14113.0493,-3834.56L14112.97,-3834.7534L14112.8204,-3834.7599L14112.8296,-3834.4334L14112.41,-3834.2068L14112.2696,-3834.2068L14112.3398,-3833.9466L14112.1994,-3833.9733L14112.3291,-3833.6533L14112.3596,-3833.4599L14112.2101,-3833.4534L14112.1796,-3833.4732L14112.1002,-3833.6533L14111.9995,-3833.9668L14111.6592,-3833.6533L14111.7905,-3833.0799L14112.1796,-3833.02L14112.4405,-3832.5733"/>
<path content="BA010,1,1,JPN" xlink:title="BA010" d="M14112.1796,-3834.8L14112.1796,-3834.8667L14111.9202,-3835.2268L14112.0193,-3834.8732L14112.1796,-3834.8"/>
<path content="BA010,1,1,JPN" xlink:title="BA010" d="M14111.4502,-3834.6066L14111.6501,-3834.6333L14111.6302,-3834.8068L14111.6196,-3834.9468L14111.6104,-3835.1002L14111.4792,-3835.2798L14111.2793,-3834.8934L14111.4502,-3834.6066"/>
<path content="BA010,1,1,JPN" xlink:title="BA010" d="M14112.3596,-3834.8866L14112.59,-3835.2135L14112.3596,-3835.4267L14112.2192,-3835.3733L14112.1796,-3835.4267L14112.1796,-3835.2867L14112.3596,-3834.8866"/>
<path content="BA010,1,1,JPN" xlink:title="BA010" d="M14116.04,-3835.3065L14116.5497,-3835.4267L14116.33,-3835.5331L14116.2491,-3835.4198L14116.2292,-3835.3935L14116.04,-3835.3065"/>
<path content="BA010,1,1,JPN" xlink:title="BA010" d="M14107.6004,-3836.3201L14107.8705,-3836.34L14107.7805,-3836.4532L14107.6294,-3836.5334L14107.6004,-3836.3201"/>
<path content="BA010,1,1,JPN" xlink:title="BA010" d="M14108.6502,-3836.4334L14108.7799,-3836.5868L14108.5693,-3836.5398L14108.2596,-3836.5398L14108.0002,-3836.6798L14108.3801,-3836.4399L14108.6502,-3836.4334"/>
<path content="BA010,1,1,JPN" xlink:title="BA010" d="M14107.1198,-3836.5932L14107.3196,-3836.6402L14107.1899,-3836.8599L14107.0694,-3836.7802L14106.9992,-3836.8267L14107.1198,-3836.5932"/>
<path content="BA010,1,1,JPN" xlink:title="BA010" d="M14142.4393,-3837.6801L14142.6804,-3838.0531L14142.2501,-3838.0333L14142.0105,-3838.0733L14141.8503,-3837.7068L14142.1494,-3837.7266L14142.4393,-3837.6801"/>
<path content="BA010,1,1,JPN" xlink:title="BA010" d="M14160.1395,-3838.5601L14160.4797,-3838.7402L14160.5896,-3839.1933L14160.1791,-3838.9267L14160.1898,-3838.7199L14160.1395,-3838.5601"/>
<path content="BA010,1,1,JPN" xlink:title="BA010" d="M14159.3796,-3839.6198L14159.9594,-3839.8533L14159.7504,-3840.0333L14159.6298,-3840.2267L14159.4604,-3840.1402L14159.2697,-3840.0066L14159.1003,-3840.0932L14159.05,-3839.7934L14159.05,-3839.7667L14159.3796,-3839.6198"/>
<path content="BA010,1,1,JPN" xlink:title="BA010" d="M14103.5797,-3736.8267L14103.5599,-3737.3199L14103.7292,-3738.2267L14103.4607,-3738.5799L14103.5095,-3741.9399L14103.7704,-3741.9868L14104.0405,-3742.1799L14103.9993,-3742.2001L14103.7506,-3742.0132L14103.6804,-3741.9998L14103.6102,-3742.4267L14103.4897,-3742.7067L14103.6606,-3742.7067L14103.92,-3742.4732L14103.9398,-3742.4866L14103.6896,-3742.7132L14103.6697,-3743.0599L14103.54,-3743.0599L14103.7506,-3744.7201L14103.7003,-3745.7134L14103.6896,-3746.6599L14104.1901,-3748.1068L14104.3304,-3748.1201L14103.9093,-3749.1264L14103.8803,-3750.3201L14103.5004,-3751.3931L14102.9098,-3754.8199L14102.6505,-3757.4734L14102.5604,-3758.6533L14102.6794,-3760.5068L14102.2995,-3762.3932L14102.4292,-3764.6133L14101.8494,-3766.2533L14102.7603,-3766.4265L14102.7893,-3766.7068L14102.7695,-3766.7068L14102.7496,-3766.56L14102.2491,-3766.4665L14102.0004,-3766.9868L14101.9501,-3767.1131L14101.6205,-3767.1467L14101.3397,-3768.4799L14101.7502,-3768.6333L14101.2405,-3768.7199L14101.1993,-3770.8401L14101.1597,-3772.2L14101.2405,-3772.6131L14100.9995,-3774.4801L14100.7004,-3775.0267L14100.4105,-3775.3201L14100.0504,-3776.2531L14099.6796,-3776.3931L14099.0509,-3776.9402L14098.7,-3779.5799L14098.6603,-3782.4066L14098.1003,-3782.5333L14097.7798,-3782.9201L14097.5906,-3782.6267L14097.3007,-3782.8667L14097.3907,-3783.0334L14097.2107,-3783.0933L14096.8994,-3782.7999L14096.2799,-3783.2333L14096.1792,-3783.0734L14095.9702,-3783.16L14095.7596,-3783.6533L14095.5292,-3783.8734L14095.9808,-3784.0134L14095.9305,-3784.1599L14095.43,-3784.0866L14095.3598,-3784.3132L14095.52,-3784.3468L14094.9509,-3785.54L14095.6802,-3785.6998L14095.5902,-3785.9669L14094.9905,-3785.8265L14094.6793,-3785.3668L14094.4397,-3785.78L14093.9499,-3786.6066L14093.8599,-3787.3665L14093.8202,-3787.3798L14093.6401,-3787.2665L14093.1396,-3789.3665L14093.1198,-3789.6332L14093.0099,-3790.0867L14092.6498,-3790.4934L14092.3096,-3791.9865L14091.5207,-3798.14L14091.4505,-3799.3668L14091.5497,-3800.3201L14092.1799,-3803.3867L14092.1997,-3804.7134L14092.8101,-3808.6533L14094.1696,-3813.1935L14095.8496,-3816.7133L14095.9702,-3816.9868L14096.2402,-3817.4198L14096.5393,-3818.4868L14098.6298,-3821.7667L14099.5209,-3823L14099.6796,-3823.1998L14101.4297,-3825.2468L14101.5305,-3825.3201L14102.4094,-3826.5331L14104.6799,-3826.5068L14102.8992,-3826.6132L14102.7695,-3826.6132L14102.5192,-3826.7132L14102.2995,-3826.6735L14102.3193,-3826.8131L14099.8795,-3827.0134L14099.91,-3827.3266L14100.3906,-3827.2934L14100.5905,-3827.3933L14102.1606,-3827.1465L14102.1805,-3827.3266L14102.5604,-3827.2934L14102.8503,-3828.26L14103.0899,-3828.2333L14103.0701,-3828.1399L14103.1494,-3828.22L14103.1494,-3828.1067L14102.9907,-3827.5665L14104.1,-3827.2068L14104.48,-3827.4734L14104.3503,-3827.7065L14105.1392,-3827.8999L14105.2505,-3827.8133L14105.4199,-3828.0933L14105.9891,-3828.1601L14106.2897,-3828.3134L14106.3904,-3828.2467L14106.6101,-3828.9532L14107.4997,-3829.5265L14107.8995,-3829.5265L14108.5403,-3829.3331L14108.6899,-3829.5933L14108.9905,-3830.1399L14108.9005,-3830.2334L14108.5205,-3830.4733L14108.1497,-3830.6198L14107.9895,-3831.4934L14107.6599,-3831.9866L14106.5399,-3832.18L14106.2805,-3831.6666L14106.0501,-3831.6666L14105.8899,-3831.3133L14105.5695,-3831.4667L14105.2505,-3831.3866L14104.8904,-3831.3934L14105.0201,-3830.9467L14104.8904,-3830.9265L14104.57,-3831.3068L14104.0405,-3830.8468L14103.6102,-3830.7201L14104.4891,-3831.6601L14104.4891,-3831.9267L14104.2892,-3831.8935L14103.8696,-3831.7268L14103.9993,-3831.9599L14103.7994,-3831.9733L14103.4805,-3831.8935L14103.5294,-3831.9866L14102.7298,-3832.0198L14102.5101,-3832.0133L14103.45,-3832.3601L14103.7994,-3832.4001L14103.7003,-3832.2266L14103.9902,-3832.5066L14104.2496,-3832.3734L14105.2399,-3833.3401L14104.8996,-3833.6533L14104.9194,-3833.9466L14104.7607,-3833.9134L14104.6906,-3833.9401L14104.5395,-3833.6666L14104.4601,-3833.6933L14104.48,-3833.6533L14104.2801,-3833.5598L14104.2801,-3833.6533L14104.2603,-3833.7532L14104.1702,-3833.6533L14103.9597,-3833.5533L14103.9902,-3833.6533L14104.0192,-3833.8665L14103.7796,-3833.8467L14103.7201,-3833.9931L14103.6697,-3833.9867L14103.8803,-3834.4002L14103.9703,-3834.5066L14104.2892,-3834.7401L14104.2603,-3834.8999L14104.5807,-3834.8866L14104.6204,-3834.8068L14104.7897,-3834.7935L14104.9606,-3834.5467L14105.1193,-3834.6401L14105.4306,-3834.7134L14105.3101,-3834.3933L14105.5908,-3834.7401L14105.69,-3834.8068L14105.7602,-3834.7466L14105.8792,-3834.84L14105.3101,-3835.0334L14105.1605,-3835.0533L14105.8304,-3835.0933L14105.9692,-3835.08L14106.0196,-3835.3001L14106.3705,-3835.2001L14106.6391,-3835.1532L14106.4194,-3835.54L14106.2592,-3835.5267L14106.1798,-3836.1599L14106.2805,-3836.9732L14107.0404,-3837.1334L14107.6401,-3837.8666L14107.7393,-3837.8864L14108.2001,-3837.9066L14108.5403,-3838.1401L14108.9203,-3838.1199L14109.1995,-3837.8933L14109.9304,-3837.7869L14109.9106,-3837.6331L14109.7504,-3837.6266L14109.6207,-3837.6331L14109.9594,-3837.3798L14110.0494,-3837.4866L14110.3195,-3837.2799L14110.379,-3837.0335L14110.4507,-3836.9335L14110.5896,-3836.8465L14110.7803,-3837.0602L14110.8505,-3837.64L14111.2991,-3837.5465L14111.4792,-3837.5465L14111.5692,-3837.6999L14111.4304,-3837.6934L14111.3098,-3837.78L14110.8902,-3838.0066L14110.6705,-3838.6269L14111.3098,-3838.3202L14111.6699,-3838.1332L14112.0499,-3837.9665L14112.1796,-3837.9734L14112.3993,-3837.9734L14112.4405,-3837.9532L14112.6495,-3838.0001L14113.3301,-3837.7468L14113.7695,-3837.08L14113.2294,-3836.2133L14113.3606,-3836.0535L14114.3799,-3836.0065L14115.3107,-3835.6602L14115.0894,-3835.6468L14114.9597,-3835.6667L14114.7903,-3835.6468L14114.6393,-3835.68L14114.3402,-3835.4733L14114.09,-3835.4935L14114.3799,-3834.84L14114.9399,-3834.3067L14114.83,-3833.8867L14114.4806,-3834.0267L14114.2593,-3834.2068L14114.2899,-3833.9867L14114.0594,-3833.9668L14113.8901,-3833.9333L14113.7405,-3834.0134L14113.6398,-3834.0065L14113.4399,-3834.1999L14113.3698,-3834.0134L14113.2996,-3834.0599L14113.2797,-3833.7666L14113.3102,-3833.6533L14113.4003,-3833.4732L14113.3896,-3833.3668L14113.6398,-3832.9666L14113.9801,-3832.6332L14113.8702,-3832.2132L14114.1907,-3832.4467L14114.3295,-3832.3132L14114.5996,-3832.5134L14114.5203,-3832.74L14114.1998,-3832.8865L14114.1098,-3832.8735L14113.8794,-3833.0601L14114.1693,-3833.0734L14114.2899,-3833.1066L14114.2593,-3833.2668L14114.2502,-3833.3599L14114.5294,-3833.3466L14114.9796,-3833.4L14114.6194,-3833.0666L14115.1093,-3832.5066L14115.6403,-3832.2334L14115.6799,-3832.5001L14115.9698,-3832.5268L14116.1697,-3832.7801L14116.6901,-3832.7198L14116.9403,-3832.4398L14117.07,-3832.3933L14117.3599,-3832.3399L14117.5598,-3832.1667L14117.5705,-3832.1201L14117.7902,-3832.04L14117.9199,-3832.1201L14117.7704,-3832.3734L14118.2907,-3832.2201L14117.8696,-3832.46L14117.4805,-3832.5935L14117.2302,-3832.5531L14116.7496,-3833.2001L14116.8198,-3833.6334L14116.9098,-3833.6533L14116.8198,-3833.9668L14116.8701,-3833.9931L14116.8503,-3834.4398L14116.6702,-3834.2934L14116.6306,-3834.5799L14116.4291,-3834.5734L14116.6504,-3834.7134L14116.42,-3834.7L14116.8198,-3834.8866L14116.9601,-3834.8133L14116.8503,-3834.9533L14116.7496,-3835.0132L14116.5802,-3835.1734L14116.5497,-3835.0933L14116.4505,-3834.9934L14116.3895,-3835.2333L14116.069,-3835.2402L14116.1301,-3834.8999L14115.9195,-3835.0399L14116.3101,-3834.1335L14116.2491,-3834.0733L14115.8997,-3834.38L14115.77,-3834.3735L14115.6708,-3834.9735L14115.48,-3834.8133L14115.9103,-3835.5267L14116.0599,-3836.5334L14117.2394,-3837.4733L14117.45,-3837.5599L14120.7397,-3839.1998L14124.5804,-3840.4999L14124.6796,-3840.5201L14124.8703,-3840.5865L14126.329,-3840.8531L14126.6891,-3840.8134L14126.77,-3841L14126.7197,-3841.2533L14126.6602,-3841.9868L14127.3499,-3841.9868L14127.5101,-3841.6801L14127.5406,-3841.8667L14128.5706,-3841.9601L14128.6102,-3841.6401L14127.5192,-3841.46L14127.4597,-3841.2132L14127.4399,-3841.0866L14129.7699,-3841.4467L14130.9799,-3841.4135L14131.4194,-3841.4001L14131.5903,-3841.2067L14132.5195,-3841.1865L14132.55,-3840.9534L14132.9605,-3840.9801L14132.7698,-3840.9935L14132.7499,-3841.2334L14134.4406,-3841.3799L14135.8902,-3841.3799L14136.3998,-3841.1999L14136.47,-3841.0198L14136.9095,-3840.7269L14136.9095,-3840.1798L14137.03,-3840.0002L14136.6104,-3838.9801L14136.4304,-3838.9866L14137.0193,-3838.4735L14137.1796,-3838.4735L14137.41,-3838.3667L14138.2095,-3838.5468L14138.2004,-3838.4132L14138.8199,-3838.5601L14139.0594,-3838.7135L14139.4302,-3839.0736L14139.8102,-3839.2666L14140.1306,-3839.5866L14140.4007,-3840.0532L14140.9592,-3840.3999L14141.1392,-3839.6732L14141.2094,-3839.5401L14141.4108,-3839.5535L14141.6,-3839.1998L14142.0395,-3839.6935L14142.4301,-3839.5668L14143.1198,-3839.9467L14143.3502,-3839.6534L14142.7902,-3838.9866L14142.3294,-3838.5532L14142.5995,-3838.2732L14142.8802,-3838.1802L14142.8696,-3838.06L14143.2602,-3838.2133L14143.4006,-3838.3202L14143.5501,-3838.2069L14143.8599,-3838.1535L14143.6707,-3837.6865L14143.5303,-3837.6865L14143.3197,-3837.36L14143.5898,-3837.3135L14143.8004,-3837.2799L14144.2093,-3837.5668L14145.1797,-3837.6068L14145.4102,-3837.5999L14145.5597,-3837.5534L14145.8801,-3837.4268L14145.7794,-3837.2532L14145.6604,-3837.2398L14145.5002,-3837.2467L14144.3298,-3837.0132L14144.1803,-3836.7268L14143.9697,-3836.5467L14143.4601,-3836.5467L14143.1396,-3836.4601L14143.0206,-3836.5002L14142.5797,-3835.8334L14142.3004,-3835.6133L14141.7892,-3835.5465L14141.6397,-3835.4599L14141.9998,-3835.0933L14141.9998,-3834.9266L14141.7999,-3834.7332L14142.2195,-3834.8068L14142.3203,-3834.4868L14142.63,-3834.6466L14143.0405,-3834.7866L14143.2007,-3834.7599L14143.28,-3834.3666L14143.28,-3834.2133L14143.4006,-3834.2068L14143.7592,-3834.2602L14144.1101,-3834.5734L14144.1299,-3834.8068L14144.3298,-3835.0933L14144.5297,-3835.3401L14144.7006,-3835.4401L14144.8105,-3835.3733L14144.8898,-3834.9869L14144.96,-3834.2999L14145.0699,-3834.0401L14145.2103,-3834.1866L14145.4697,-3834.6401L14145.5292,-3834.7935L14145.7504,-3834.8534L14145.9106,-3835.1799L14146.2708,-3835.1467L14146.46,-3833.9066L14146.3501,-3833.6533L14146.8201,-3833.4801L14147.2504,-3833.4801L14147.4792,-3833.0799L14147.2504,-3832.8598L14146.8704,-3832.6866L14146.9299,-3832.3734L14146.5698,-3832.28L14145.9106,-3832.2735L14144.96,-3831.5731L14145.3293,-3831.5266L14145.8298,-3831.3599L14146.0907,-3831.0135L14146.5591,-3830.7201L14146.8002,-3830.64L14147.0703,-3830.8601L14146.9406,-3831.6666L14147.0795,-3832.0534L14147.2794,-3831.8733L14147.0505,-3831.5266L14147.4594,-3831.1733L14147.6196,-3830.7533L14147.9599,-3830.6L14148.1094,-3830.6801L14148.6496,-3830.8132L14148.8403,-3830.7598L14149.0707,-3830.8731L14149.6796,-3830.5466L14149.6796,-3830.3867L14149.4797,-3830.0934L14149.2599,-3829.3735L14149.6399,-3829.2267L14149.6796,-3829.2599L14150.5905,-3829.7199L14150.8301,-3829.8401L14150.9903,-3829.0531L14151.0406,-3828.36L14151.1795,-3827.6466L14151.4191,-3827.52L14152.0096,-3827.2068L14152.1393,-3827.2667L14152.42,-3827.1935"/>
<path content="BA010,1,1,JPN" xlink:title="BA010" d="M14159.2804,-3842.2733L14159.5703,-3842.3668L14159.2606,-3842.4198L14159.2697,-3842.3801L14159.2804,-3842.2733"/>
<path content="BA010,1,1,JPN" xlink:title="BA010" d="M14152.7496,-3843.7668L14153.0395,-3843.9201L14153.4393,-3844.3867L14153.3295,-3844.6735L14153.1601,-3844.82L14153.0395,-3845.2599L14153.1204,-3845.4201L14152.8107,-3845.4666L14152.6596,-3845.3598L14152.5497,-3845.5734L14152.7298,-3845.8L14152.0691,-3846.5065L14151.5991,-3846.5199L14151.6296,-3846.2467L14151.6602,-3845.7798L14151.9699,-3845.7466L14151.7502,-3845.2667L14151.6708,-3845.1267L14151.8494,-3844.6533L14152.0203,-3844.2734L14152.3605,-3843.9667L14152.5803,-3844.1666L14152.6794,-3844.0731L14152.7496,-3843.7668"/>
<path content="BA010,1,1,JPN" xlink:title="BA010" d="M14150,-3847.8535L14149.9405,-3847.9069L14149.9405,-3847.8535L14150,-3847.8535"/>
<path content="BA010,1,1,JPN" xlink:title="BA010" d="M14151.1703,-3854.9801L14151.6998,-3855.5267L14151.3794,-3855.5931L14151.21,-3855.2601L14151.1703,-3854.9801"/>
<path content="BA010,1,1,JPN" xlink:title="BA010" d="M14152.42,-3827.1935L14152.4704,-3827.3869L14152.4597,-3827.5269L14152.71,-3827.6733L14152.4506,-3827.8801L14152.5406,-3828.1265L14152.6505,-3828.9467L14152.6993,-3829.6131L14152.89,-3829.8267L14153.1006,-3830.0999L14153.7994,-3830.1533L14154.1107,-3830.6801L14154.0497,-3831.7001L14153.5294,-3831.9267L14153.36,-3831.9267L14153.1998,-3832.0267L14153.2196,-3832.1598L14152.8,-3832.2933L14152.6505,-3832.4535L14152.6306,-3832.74L14152.8702,-3832.9334L14153.1494,-3832.9998L14153.1494,-3833.3733L14153.2806,-3833.6533L14153.3798,-3834.1267L14152.4704,-3834.8534L14152.4399,-3835.3401L14152.4292,-3835.5331L14152.0004,-3836.0065L14152.1301,-3836.2865L14151.9104,-3836.2667L14151.9302,-3836.6798L14151.6296,-3836.8732L14151.4496,-3837.0998L14150.8408,-3837.0266L14150.7492,-3837.1136L14150.4196,-3837.0998L14150.2304,-3837.1334L14149.8306,-3836.8668L14149.7101,-3837.08L14149.6796,-3837.0533L14149.5407,-3837.0468L14149.4797,-3837.1532L14149.1196,-3836.7733L14148.5596,-3837.0201L14148.2498,-3837.6865L14148.6893,-3838.0531L14148.9197,-3838.0199L14148.97,-3838.2L14149.2401,-3838.0199L14149.6704,-3838.2069L14149.6796,-3838.1466L14150.2106,-3838.2599L14150.6805,-3838.3934L14150.7996,-3838.76L14150.9003,-3838.9534L14151.0101,-3839.0865L14151.3794,-3839.0736L14151.7105,-3838.9801L14151.68,-3838.6665L14152.2095,-3838.9801L14152.42,-3839.0133L14152.6901,-3838.8733L14152.7893,-3838.4201L14153.0304,-3838.2133L14153.3798,-3838.6131L14153.5294,-3838.7135L14154.0604,-3839.0331L14153.83,-3839.2334L14153.9093,-3839.4669L14154.01,-3839.6534L14153.8803,-3840.0002L14153.7704,-3840.1001L14153.3798,-3840.1936L14153.0304,-3839.7598L14152.8107,-3839.8132L14152.6505,-3839.74L14152.3499,-3839.7667L14152.0905,-3839.4333L14151.9104,-3839.4867L14151.7395,-3839.4268L14151.6708,-3839.4867L14151.4099,-3839.3066L14151.1093,-3839.9734L14150.6699,-3839.7598L14150.65,-3839.78L14150.6302,-3840.2534L14150.3403,-3840.1268L14150.1495,-3840.6265L14150.3906,-3841.0732L14150.3799,-3841.3467L14150.2594,-3841.4536L14150.1801,-3841.5798L14150.0504,-3841.4932L14149.9695,-3841.5531L14149.6796,-3841.18L14149.4598,-3841.1598L14149.3103,-3841.1999L14149.0997,-3840.6067L14148.4802,-3840.4266L14148.0804,-3839.8731L14147.5494,-3839.8869L14147.2397,-3839.4135L14146.8491,-3839.64L14146.8201,-3839.7202L14146.6705,-3839.9933L14147.1191,-3840.5399L14147.1603,-3840.7734L14147.4792,-3841.4398L14147.3404,-3841.4665L14147.1802,-3841.46L14147.2198,-3841.6733L14147.5204,-3841.9868L14147.1603,-3842.5667L14146.6705,-3842.4465L14146.5103,-3842.4465L14146.3394,-3842.4465L14146.6003,-3843.1065L14146.2402,-3843.4135L14146.3303,-3843.6401L14146.2097,-3843.42L14145.8206,-3843.6867L14145.5002,-3843.9735L14145.4895,-3844.1334L14145.3003,-3844.1601L14144.7601,-3844.1532L14144.8898,-3844.5866L14145.1401,-3844.4801L14145.43,-3844.4065L14145.3995,-3844.5599L14146.0495,-3844.6331L14146.6995,-3843.94L14146.4905,-3843.7801L14147.1802,-3844.0067L14147.5098,-3844.0201L14147.58,-3843.8732L14147.7295,-3844.0666L14148.0499,-3843.94L14148.2605,-3843.7065L14148.5794,-3843.8198L14148.8907,-3844.3134L14149.0295,-3844.1334L14149.1196,-3844.0601L14149.4705,-3843.9468L14149.3805,-3843.7534L14149.6597,-3844.0468L14149.5605,-3844.3531L14149.6796,-3844.4332L14150.2304,-3844.4L14150.3998,-3844.5068L14150.9003,-3844.5999L14150.9598,-3844.4668L14151.0498,-3844.9665L14151.2604,-3845.0798L14151.1795,-3845.2L14151.0895,-3845.2732L14150.8697,-3845.3331L14150.8697,-3844.9734L14150.1907,-3844.7533L14150.1099,-3845.0466L14149.6994,-3844.9535L14149.6796,-3845.3201L14149.4797,-3845.2934L14149.5697,-3845.6734L14149.6796,-3845.7268L14150.0504,-3845.9L14150.1495,-3846.1067L14150.0305,-3846.0865L14149.8795,-3846.18L14149.6796,-3846.0999L14149.3393,-3846.0533L14149.1501,-3846.2734L14148.5703,-3846.1201L14148.1705,-3846.3001L14147.6593,-3846.4066L14147.7097,-3846.8334L14148.5397,-3847.1134L14148.8297,-3846.92L14149.6796,-3847.6398L14149.8199,-3847.9801L14149.7803,-3848.0068L14149.7406,-3848.0202L14149.6796,-3848.0331L14149.6399,-3848.04L14149.4202,-3848.5401L14149.2905,-3848.5333L14149.1592,-3848.8533L14149.53,-3849.2535L14149.6796,-3849.4667L14149.6796,-3849.6067L14149.5605,-3849.9935L14149.4202,-3849.9935L14148.9502,-3849.9199L14148.7198,-3850.3201L14148.8495,-3850.5199L14148.5092,-3851.0334L14147.5693,-3851.7334L14147.2305,-3851.7868L14146.4798,-3851.2333L14146.5393,-3851.4599L14147.0505,-3852.1534L14147.9004,-3852.0199L14148.3994,-3851.9669L14148.8693,-3851.4732L14149.1806,-3851.2932L14149.35,-3851.0265L14149.5605,-3850.9266L14149.6796,-3850.9735L14150,-3851.1002L14150.3799,-3850.9068L14150.6805,-3851.2066L14151.3702,-3851.3199L14151.5793,-3850.8133L14151.4801,-3850.4066L14151.3992,-3850.3601L14151.5396,-3850.3201L14151.6098,-3849.4999L14151.6495,-3849.2931L14152.3499,-3849.5399L14152.5497,-3849.4335L14152.4399,-3848.9468L14152.7298,-3848.9933L14153.0304,-3848.8667L14153.27,-3848.9532L14153.5095,-3849.0002L14153.5995,-3848.8533L14153.6896,-3849.16L14153.4302,-3849.6666L14153.6804,-3849.8135L14153.8193,-3849.9466L14153.9505,-3849.8531L14154.2694,-3850.3201L14154.1107,-3850.4868L14154.0802,-3850.3201L14153.92,-3850.3201L14153.7094,-3850.6199L14153.54,-3850.8266L14153.5095,-3851.0067L14153.9703,-3851.1665L14153.9597,-3851.6666L14154.6402,-3852.2598L14154.5303,-3852.5532L14154.2404,-3852.5467L14153.83,-3853.0399L14153.9398,-3853.2333L14153.6606,-3853.2135L14153.6102,-3853.2799L14153.45,-3853.2734L14153.1601,-3853.2532L14153.1601,-3853.7399L14153.4393,-3854.2068L14153.4195,-3854.6535L14153.2196,-3854.9133L14152.6505,-3854.7001L14152.0599,-3853.9536L14151.6708,-3854.1599L14151.5701,-3854.3266L14151.5198,-3854.4735L14150.9399,-3853.6667L14151.1002,-3853.4065L14150.9506,-3853.4L14150.6195,-3853.3867L14150.2304,-3853.6598L14150.0397,-3853.4801L14149.7894,-3853.2532L14149.6796,-3853.26L14149.2004,-3853.5267L14148.5794,-3854.24L14148.5794,-3854.6001L14148.7198,-3855.4268L14148.41,-3855.4199L14148.0896,-3855.8998L14147.9507,-3855.9067L14147.7203,-3855.7667L14147.7493,-3856.0867L14147.7402,-3856.3267L14147.5906,-3856.0398L14147.3404,-3856.1935L14147.1497,-3856.1001L14146.8704,-3856.1668L14146.73,-3856.1401L14146.2204,-3856.8001L14146.0602,-3857.5798L14145.9991,-3857.6332L14146.0403,-3857.9468L14146.73,-3858.2268L14147.2397,-3858.3466L14147.7997,-3858.5068L14148.1201,-3858.2466L14148.7396,-3858.3935L14148.8907,-3858.6533L14149.0494,-3858.7399L14149.1699,-3858.8066L14149.2798,-3858.96L14149.2905,-3859.1331L14149.5804,-3859.1599L14149.6796,-3859.1068L14149.8795,-3859.2201L14150.1495,-3859.3601L14150.4395,-3859.6134L14150.1495,-3860.3535L14150.4593,-3860.2669L14150.8804,-3859.9533L14150.9399,-3859.8732L14150.9903,-3860.1799L14150.9506,-3860.4336L14151.6907,-3860.5L14151.7899,-3860.4866L14152.1301,-3860.9333L14152.5101,-3861.06L14152.7405,-3861.7466L14152.7206,-3861.9865L14152.7695,-3862.7335L14152.8,-3863.0402L14152.8793,-3863.06L14152.9099,-3863.3865L14152.9404,-3863.7402L14152.5192,-3863.7535L14152.3697,-3863.7066L14152.0203,-3863.7466L14151.8402,-3863.9599L14151.7899,-3864.0335L14151.5503,-3863.8401L14151.4801,-3863.9198L14150.9995,-3863.7001L14150.8499,-3863.94L14150.5096,-3863.7798L14150.3204,-3863.94L14150.3906,-3864.2136L14149.91,-3864.1335L14149.6796,-3864.2735L14149.6796,-3864.3867L14149.6796,-3864.5267L14149.0799,-3864.2468L14148.8602,-3864.5134L14148.4894,-3864.18L14147.5601,-3864.5401L14146.9498,-3864.5332L14146.3699,-3864.7732L14145.9991,-3864.0202L14145.7001,-3864.2067L14145.2194,-3864.4268L14144.4702,-3864.32L14144.2505,-3864.5267L14144.2993,-3864.8933L14145.0394,-3865.7932L14144.5892,-3866.5401L14144.5999,-3866.9868L14144.4794,-3867.3801L14144.8196,-3867.3534L14144.8898,-3867.2668L14144.9295,-3867.4267L14145.7397,-3867.3401L14146.1105,-3867.1265L14146.7194,-3867.4866L14146.9101,-3867.3466L14147.5403,-3868.0134L14148.1094,-3867.72L14148.23,-3867.4934L14148.5992,-3867.5934L14148.88,-3867.82L14149.1394,-3867.6666L14149.3195,-3867.5266L14149.4293,-3867.4133"/>
<path content="BA010,1,1,JPN" xlink:title="BA010" d="M14164.3402,-3884.1598L14164.27,-3884.4398L14164.1098,-3884.5402L14164.1403,-3884.3266L14164.3402,-3884.1598"/>
<path content="BA010,1,1,JPN" xlink:title="BA010" d="M14162.5198,-3883.0734L14162.6099,-3883.4801L14162.6602,-3883.6533L14162.9898,-3884.0267L14163.4995,-3883.8665L14163.5406,-3883.9733L14163.7894,-3884.1L14163.3392,-3884.6333L14163.6398,-3884.8934L14163.24,-3884.9533L14162.6404,-3884.8801L14162.2803,-3885.3268L14162.6205,-3885.54L14162.7899,-3885.6335L14162.2803,-3886.0466L14162.4496,-3886.3667L14162.9303,-3886.4334L14163.3301,-3886.6402L14163.3606,-3886.9667L14163.1805,-3887.2868L14163.4796,-3887.4866L14162.97,-3887.9333L14162.7792,-3887.9265L14162.8204,-3887.9997L14162.7197,-3888.3667L14162.5305,-3888.3598L14162.3993,-3888.5735L14162.2894,-3888.2999L14162.1796,-3888.1268L14161.4502,-3887.7998L14161.1298,-3887.8334L14160.5103,-3887.6999L14160.2798,-3887.2665L14160.8902,-3886.6932L14161.4197,-3886.4864L14160.64,-3886.38L14160.6094,-3885.9669L14160.7697,-3885.4797L14161.1694,-3885.2001L14161.38,-3884.7267L14161.2396,-3884.7332L14161.38,-3884.5467L14161.7798,-3884.0332L14161.6791,-3883.8799L14161.85,-3883.7734L14162.0804,-3883.6533L14162.1796,-3883.5934L14162.3291,-3883.4332L14162.5198,-3883.0734"/>
<path content="BA010,1,1,JPN" xlink:title="BA010" d="M14170.9595,-3893.8198L14171.2402,-3893.8866L14171.0999,-3894.0067L14170.9106,-3894.0464L14170.9595,-3893.9533L14170.9595,-3893.8198"/>
<path content="BA010,1,1,JPN" xlink:title="BA010" d="M14149.4293,-3867.4133L14149.6597,-3867.9668L14149.6796,-3867.9798L14149.6796,-3868.0801L14149.3805,-3868.4532L14149.0601,-3868.9999L14149.3393,-3869.0468L14149.5102,-3868.9934L14149.6796,-3869.0468L14149.9405,-3869.5801L14150.1907,-3869.0201L14150.5203,-3869.1334L14150.9598,-3868.7397L14151.0696,-3868.5268L14151.2192,-3868.8133L14151.3199,-3868.7866L14151.68,-3869.0865L14151.6998,-3869.1467L14151.8692,-3869.5465L14151.7303,-3869.5332L14151.8799,-3869.8334L14152.0798,-3870.0932L14152.3804,-3870.5601L14152.0996,-3870.9L14152.4399,-3871.0468L14152.6398,-3870.9599L14152.33,-3871.6L14152.5604,-3871.6732L14153.0899,-3871.74L14153.6102,-3871.0133L14153.7201,-3870.6398L14153.9093,-3870.9534L14154.2694,-3870.9064L14154.6494,-3871.18L14155.4703,-3870.8466L14155.8594,-3870.3865L14155.7892,-3870.0001L14155.4504,-3869.5599L14155.7892,-3869.2932L14156.0898,-3869.0468L14156.1096,-3869.4534L14156.1096,-3869.6266L14156.4301,-3869.8334L14156.3705,-3870.1065L14156.4804,-3870.5399L14156.5903,-3871.2334L14155.8807,-3871.5267L14155.8197,-3872.1134L14155.9494,-3872.4068L14156.34,-3872.5132L14156.6895,-3872.62L14156.5002,-3872.9069L14156.1707,-3873.1266L14156.5506,-3873.3868L14156.4194,-3874.0532L14155.9097,-3873.7667L14155.7693,-3873.7732L14155.2795,-3873.8602L14155.04,-3873.5332L14154.6097,-3873.3398L14154.6097,-3873.6L14154.6402,-3874.0265L14154.5303,-3874.0799L14154.4296,-3873.9597L14154.2694,-3873.9597L14154.0894,-3873.9532L14153.8696,-3874.2065L14153.7399,-3874.1467L14153.6606,-3874.1066L14153.7598,-3874.3866L14154.1107,-3874.4331L14153.9307,-3874.7665L14153.7094,-3874.9199L14153.5004,-3874.7334L14153.3493,-3874.9065L14153.1097,-3874.8531L14153.0701,-3874.9065L14153.0899,-3875.1064L14153.1601,-3875.1667L14152.8702,-3875.3201L14152.8305,-3875.7069L14152.8198,-3875.8202L14152.8702,-3875.9533L14152.6993,-3875.9666L14152.5696,-3875.9533L14152.3499,-3876.0132L14152.1606,-3876.0265L14151.9806,-3876.1799L14152.0905,-3876.4L14151.7105,-3876.5667L14151.6495,-3877.1801L14151.8204,-3877.94L14152.2003,-3878.9131L14152.5696,-3879.0665L14152.8793,-3879.2866L14153.2593,-3879.4533L14153.8193,-3879.7333L14154.0405,-3879.7932L14154.4205,-3879.7798L14154.7302,-3880.0533L14155.1102,-3879.9133L14155.2399,-3880.2467L14155.5801,-3880.1731L14155.7495,-3880.6999L14155.5603,-3880.64L14155.7007,-3881.0665L14156.2393,-3881.3267L14156.9107,-3881.3133L14157.1793,-3880.9132L14157.8003,-3881.2664L14157.7499,-3881.58L14157.6096,-3881.5865L14157.6294,-3882.1201L14158.3603,-3882.4932L14158.5403,-3882.4932L14159.1705,-3882.28L14159.5505,-3882.88L14160.08,-3882.9399L14160.3394,-3882.7801L14160.35,-3883.0399L14159.9396,-3883.3668L14159.3704,-3883.3733L14159.0698,-3883.58L14159.05,-3883.6533L14158.2993,-3885.22L14158.7494,-3886.8801L14159.0103,-3887.1399L14158.9096,-3887.2799L14159.0591,-3887.7201L14159.1003,-3888.6333L14159.3796,-3888.5201L14159.3994,-3889.0331L14158.5403,-3889.4199L14158.2092,-3889.9933L14157.9605,-3890.0398L14157.9697,-3890.5132L14157.5394,-3890.5865L14157.8705,-3890.7398L14157.9803,-3890.6933L14158.0597,-3890.8401L14158.2397,-3891.0133L14158.7097,-3890.9401L14158.9493,-3889.8197L14158.9005,-3889.4665L14159.79,-3889.3734L14160.2798,-3888.4731L14160.4095,-3888.5468L14160.5499,-3888.0264L14160.9497,-3888.1199L14161.0794,-3888.5735L14161.2,-3888.6467L14161.3297,-3888.1466L14161.5997,-3888.38L14161.6394,-3888.8332L14162.149,-3889.1068L14162.1796,-3889.3131L14162.41,-3889.2799L14162.9395,-3889.2532L14163.1104,-3889.1731L14162.9303,-3889.46L14162.6999,-3889.4466L14162.5305,-3889.6L14162.4802,-3890.0131L14163.0203,-3889.6198L14163.24,-3890.0665L14163.2294,-3890.1867L14163.4293,-3890.1932L14163.7695,-3890.1867L14163.4506,-3889.8731L14163.4506,-3889.6133L14163.71,-3889.3002L14163.6398,-3888.9198L14164.0305,-3889.0469L14164.1602,-3888.8931L14163.7802,-3888.5201L14164.1693,-3888.34L14164.3204,-3888.3068L14164.5294,-3888.4132L14164.5493,-3888.3068L14164.3707,-3887.9002L14164.8193,-3887.9997L14164.7598,-3887.5332L14164.9704,-3887.5534L14165.0803,-3887.2131L14165.1901,-3886.8999L14165.6799,-3886.6665L14165.8493,-3886.5398L14165.7898,-3886.2598L14166.1301,-3886.1668L14166.2796,-3886.3468L14166.5207,-3886.24L14166.7496,-3886.1732L14166.9296,-3886.1134L14167.0898,-3885.9669L14167.4301,-3885.7201L14167.4606,-3886.0535L14167.4606,-3886.6734L14167.1707,-3886.8668L14167.1204,-3886.9534L14167.0792,-3886.9999L14166.9708,-3887.0335L14166.9907,-3887.2467L14167.0395,-3887.4599L14166.7908,-3887.6865L14166.5298,-3887.8532L14166.3803,-3888.1268L14166.4795,-3888.3068L14166.42,-3888.5132L14166.3895,-3888.9866L14166.6901,-3888.9599L14166.9205,-3888.9599L14166.6397,-3889.3532L14166.3803,-3889.3066L14166.51,-3889.64L14166.2704,-3889.7331L14166.1697,-3889.6866L14165.5792,-3890.06L14165.1596,-3890.3732L14165.4099,-3890.7333L14165.2603,-3890.7333L14165.1306,-3890.9401L14164.9796,-3890.9134L14164.9002,-3891.2598L14165.1505,-3891.3265L14165.2298,-3891.8465L14165.2893,-3891.9865L14164.9704,-3892.1734L14164.7003,-3892.3199L14164.5203,-3892.3L14164.4302,-3892.6998L14164.18,-3892.8467L14163.9206,-3892.7467L14163.6398,-3892.96L14163.5406,-3893.1667L14163.9999,-3893.2598L14164.4104,-3893.3533L14164.3707,-3893.9133L14164.5203,-3894.1666L14164.8697,-3894.1601L14164.7705,-3894.3066L14163.9999,-3894.2867L14163.9297,-3894.6201L14163.8596,-3894.8334L14163.9801,-3894.8399L14163.8199,-3894.9467L14163.6795,-3894.92L14163.62,-3895.1534L14163.3698,-3895.1534L14163.24,-3895.8534L14163.9603,-3895.5868L14164.2792,-3895.4998L14164.3402,-3895.62L14163.7802,-3896.2997L14163.4705,-3896.3268L14163.2904,-3896.32L14163.4094,-3896.5534L14163.4995,-3896.8067L14163.2202,-3897.1001L14163.3698,-3897.3999L14162.6999,-3898.0667L14162.6404,-3898.7667L14162.9105,-3898.8865L14162.8494,-3899.2332L14162.4207,-3899.2134L14162.2894,-3899.4465L14162.5793,-3899.5598L14162.5092,-3900.1068L14162.8906,-3900.3201L14164.27,-3900.6866L14165.8997,-3900.5333L14165.8798,-3900.3201L14165.86,-3900.0599L14166.3101,-3900.3201L14166.7191,-3900.6001L14167.4896,-3900.3201L14168.1702,-3899.8734L14167.7994,-3899.3801L14167.5003,-3899.3801L14167.0105,-3898.9532L14166.8701,-3898.9666L14166.8503,-3898.6065L14166.7099,-3898.2933L14166.7999,-3898.1068L14166.9403,-3897.5868L14167.2592,-3897.4667L14167.3691,-3897.3133L14167.7795,-3897.1268L14167.7399,-3896.92L14168.4906,-3896.88L14168.6996,-3896.5668L14168.8904,-3896.3531L14168.7897,-3896.0667L14168.8293,-3895.7397L14168.8492,-3895.6734L14169.1406,-3895.6867L14169.2398,-3895.2133L14168.9301,-3894.8933L14169.0598,-3894.7132L14169.3497,-3894.6667L14169.7296,-3894.7067L14169.8105,-3894.4199L14169.6899,-3894.26L14169.9493,-3894.2066L14170.1797,-3894.12L14170.0195,-3893.9133L14170.5704,-3893.9201L14170.6894,-3894.1799L14170.4193,-3894.36L14170.5597,-3894.5465L14171.55,-3894.68L14171.5103,-3894.7731L14171.5698,-3894.8467L14171.2997,-3895.1L14172.1405,-3895.24L14172.3801,-3895.0932L14172.4091,-3895.1065L14172.58,-3895.1801L14172.8806,-3895.2934L14172.7097,-3895.4067L14172.6791,-3895.4666L14172.7402,-3895.5868L14172.4701,-3895.8065L14172.3495,-3896.3867L14171.8094,-3896.5935L14171.7407,-3896.7464L14171.5607,-3896.7464L14171.2402,-3896.8266L14170.7199,-3896.7201L14170.4605,-3896.5199L14169.7296,-3896.9334L14169.7998,-3897.2599L14170.0104,-3897.7001L14170.3796,-3897.7264L14170.7306,-3897.9065L14170.9595,-3897.9198L14170.8801,-3897.9801L14170.99,-3898.4734L14171.4294,-3898.3334L14171.6995,-3898.1865L14171.6003,-3898.5134L14171.4401,-3898.6866L14171.3104,-3899.2931L14171.1105,-3899.6399L14171.6904,-3899.8264L14171.8094,-3899.6864L14172.1893,-3899.6399L14172.3297,-3899.0265L14172.3801,-3898.9201L14172.7493,-3898.9998L14172.9004,-3899.1333L14172.9904,-3898.9666L14173.2605,-3899.0131L14173.3902,-3898.8667L14173.9304,-3898.8602L14174.2004,-3898.5867L14174.3896,-3899.2664L14174.2599,-3899.58L14174.4705,-3899.58L14174.2996,-3899.7398L14173.9594,-3900.0267L14173.8892,-3900.3201L14173.1796,-3901.3199L14173.2605,-3901.8398L14172.9996,-3901.4801L14172.8104,-3901.4732L14172.2,-3901.9402L14172.1298,-3901.7864L14172.0398,-3901.6335L14171.9803,-3901.6865L14171.7895,-3901.9066L14171.5607,-3901.7334L14171.64,-3902.0267L14170.99,-3902.4666L14171.73,-3903.3401L14172.5204,-3904.1199L14172.2794,-3905.6866L14172.5403,-3906.3L14172.3099,-3906.6597L14172.5693,-3906.4598L14172.8302,-3906.7665L14172.7005,-3906.8798L14172.9904,-3907.1133L14173.4497,-3906.7932L14173.8495,-3906.3L14173.9807,-3905.7465L14173.3505,-3905.3265L14173.5901,-3905.1266L14173.97,-3905.46L14174.0997,-3905.0999L14173.6099,-3904.8397L14173.3902,-3904.3468L14173.5992,-3904.2801L14173.8297,-3903.8067L14173.6603,-3903.82L14173.7396,-3903.5599L14173.1094,-3903.3932L14173.1903,-3903.2665L14173.5306,-3903.4267L14173.7198,-3903.2799L14173.79,-3903.26L14173.7396,-3903.0399L14173.4497,-3903.0464L14172.9797,-3902.8599L14172.8394,-3902.8599L14173.1598,-3902.3533L14173.3597,-3902.1065L14173.3505,-3902.0332L14173.41,-3902.0664L14173.5107,-3902.2598L14173.6694,-3902.2133L14173.8098,-3902.2865L14173.9105,-3902.2598L14174.2203,-3902.3464L14174.5392,-3902.5066L14174.6796,-3902.38L14175.1007,-3901.96L14175.3906,-3902.0866L14175.5295,-3901.9066L14175.8194,-3901.8398L14176.0605,-3901.9665L14176.3,-3902.0065L14176.3794,-3902.3464L14176.3199,-3902.52L14176.5396,-3902.7664L14176.7593,-3903.0998L14176.8906,-3903.0998L14176.9592,-3903.4931L14177.0706,-3903.4599L14177.8793,-3902.8732L14178.3401,-3902.8198L14178.3905,-3902.8934L14178.6102,-3903.2932L14178.9795,-3903.4199L14179.4907,-3904.2L14179.6295,-3904.1668L14179.7699,-3904.3266L14179.8096,-3903.8666L14179.7195,-3903.82L14179.5105,-3902.98L14179.8203,-3902.5997L14180.2002,-3902.4601L14180.4001,-3902.6402L14180.6396,-3902.6402L14181.1798,-3902.5734L14181.6895,-3902.4735L14181.8802,-3902.3602L14182.6004,-3902.7267L14183.4793,-3902.5333L14184.0607,-3902.5932L14184.5596,-3902.6466L14184.9899,-3902.8465L14185.3104,-3902.9732L14185.0906,-3903.1864L14184.9792,-3903.5133L14184.79,-3903.8666L14184.5001,-3903.9665L14184.3704,-3903.9532L14184.3796,-3904.0333L14183.8104,-3904.2267L14183.3694,-3904.3198L14181.7398,-3905.04L14181.6696,-3905.4333L14181.4301,-3905.74L14181.7001,-3905.92L14182.2708,-3905.88L14182.6294,-3905.9265L14183.2306,-3905.9532L14184.0698,-3906.0532L14184.9503,-3905.8334L14185.9497,-3906.1466L14186.1099,-3906.0131L14186.2396,-3906.0734L14186.3998,-3905.9399L14186.7706,-3906.1264L14187.0407,-3906.2866L14187.1796,-3906.2733L14187.5504,-3906.5132L14187.3795,-3906.4999L14187.2391,-3906.7265L14187.2498,-3906.8066L14187.1796,-3906.9397L14187.1796,-3907.0065L14187.1796,-3907.0198L14187.1796,-3907.0465L14187.1796,-3907.1133L14187.0499,-3907.1064L14186.8607,-3907.2399L14186.7706,-3907.1865L14186.4807,-3907.1266L14186.2793,-3907.14L14186.1908,-3907.1266L14185.9192,-3907.14L14185.73,-3907.1201"/>
<path content="BA010,1,1,JPN" xlink:title="BA010" d="M14198.5794,-3930.3867L14198.7198,-3930.5267L14198.8403,-3930.6465L14198.4207,-3930.7667L14198.1293,-3930.8933L14197.6105,-3930.7667L14198.0301,-3930.5199L14198.3002,-3930.4531L14198.5794,-3930.3867"/>
<path content="BA010,1,1,JPN" xlink:title="BA010" d="M14185.73,-3907.1201L14185.7193,-3907.1999L14185.6293,-3907.2334L14185.2097,-3907.3799L14184.8602,-3907.3734L14184.3399,-3907.6267L14184.1797,-3907.6534L14183.8898,-3907.4066L14183.6395,-3907.4066L14183.4793,-3907.4066L14183.2306,-3907.5001L14182.6401,-3907.5066L14182.1793,-3907.7267L14182.2098,-3908.3199L14182.4203,-3908.6533L14182.2998,-3908.6533L14181.9702,-3908.6266L14181.9595,-3908.6533L14181.7795,-3908.6533L14181.4804,-3908.6468L14181.4697,-3908.6533L14180.9906,-3908.9066L14181.0104,-3909.3399L14181.5704,-3909.5398L14181.0806,-3910.2066L14181.0898,-3910.3931L14181.5002,-3910.6533L14181.3599,-3910.7864L14181.1798,-3910.7533L14181.1508,-3911.2133L14181.7001,-3911.4933L14182.9803,-3910.8665L14183.5495,-3910.4401L14185.0693,-3910.4401L14185.8597,-3910.4267L14186.1404,-3910.2932L14186.3297,-3909.6664L14187.0804,-3909.6867L14187.1796,-3909.6199L14187.6907,-3909.2865L14187.8799,-3909.2068L14187.8799,-3908.6533L14188.1805,-3908.4465L14188.2401,-3908.6533L14188.3804,-3909.0134L14188.8702,-3908.9664L14189.0793,-3909.0466L14189.2303,-3909.3468L14189.4302,-3909.6733L14189.7705,-3909.7065L14190.1901,-3909.9731L14190.6097,-3910.1601L14191.3193,-3910.5L14191.5298,-3910.4801L14192.1799,-3910.5133L14191.9601,-3910.6602L14191.8198,-3910.7533L14191.4902,-3910.7468L14191.1194,-3910.96L14190.9195,-3910.9531L14190.8905,-3911.1134L14190.6006,-3911.4067L14190.4694,-3911.7931L14190.3091,-3911.7798L14190.2405,-3911.9133L14190.0192,-3911.9732L14189.8193,-3911.9732L14189.5294,-3911.8134L14189.3997,-3911.8134L14189.1403,-3911.7401L14188.9999,-3911.7134L14188.4796,-3911.6402L14188.2492,-3911.6402L14188.1104,-3911.6333L14187.5595,-3911.6333L14187.4191,-3911.6066L14187.3398,-3911.7001L14187.41,-3912.2131L14187.1796,-3912.1067L14187.1399,-3912.4931L14187.1796,-3912.5L14187.3596,-3912.9265L14187.2894,-3912.9467L14187.1796,-3913.1065L14186.5692,-3913.3133L14186.3998,-3913.3934L14186.2198,-3913.4068L14185.2798,-3913.6799L14185.0296,-3913.8733L14184.7504,-3914.1533L14183.7494,-3914.6198L14184.5398,-3915.5334L14185.2097,-3915.6666L14185.64,-3915.7333L14186.1801,-3915.5731L14186.6501,-3915.3732L14187.1796,-3915.3866L14188.0402,-3915.5731L14188.5101,-3915.5464L14188.7604,-3915.7398L14189.3295,-3915.9664L14189.5599,-3916.0534L14189.6698,-3916.1732L14189.7293,-3916.3265L14190.77,-3916.9865L14191.6901,-3917.3866L14192.1707,-3917.86L14192.2607,-3918.14L14192.2394,-3918.2934L14192.2897,-3918.4933L14191.5298,-3918.6733L14191.2994,-3918.6066L14190.7806,-3918.6066L14190.0696,-3918.4399L14189.4501,-3918.4734L14189.3906,-3918.2133L14189.09,-3918.1866L14188.8199,-3918.5066L14188.2095,-3918.6264L14188.2004,-3918.9064L14187.9593,-3919.1666L14187.3108,-3919.22L14187.1796,-3919.1532L14186.6592,-3919.2665L14186.8195,-3919.54L14187.1796,-3919.7067L14187.1796,-3919.8265L14186.94,-3920.0798L14186.6592,-3920.0001L14186.5295,-3920.3999L14186.9202,-3920.7199L14187.1796,-3920.7066L14187.3703,-3920.62L14188.4995,-3920.2133L14189.0701,-3919.7998L14189.3097,-3920.1L14189.3402,-3920.3598L14189.0594,-3920.7134L14188.8,-3920.9133L14189.6393,-3920.9064L14189.8697,-3920.6665L14190.1794,-3920.5666L14190.48,-3920.5868L14190.7898,-3920.7466L14192.0593,-3921.5332L14192.7505,-3921.5401L14192.7307,-3921.8933L14192.3706,-3922.0798L14192.5903,-3922.253L14192.8299,-3922.1664L14193.1091,-3922.1466L14193.4601,-3922.2733L14193.9102,-3922.3064L14194.5099,-3921.7464L14194.8792,-3921.8266L14195.5795,-3922.2332L14195.6497,-3922.2801L14195.5002,-3922.44L14195.1294,-3922.6398L14194.8792,-3923.7598L14194.6899,-3923.74L14194.3695,-3923.8132L14194.4794,-3924.1398L14194.7495,-3924.2535L14194.96,-3924.1867L14195.34,-3924.4667L14195.7794,-3924.4133L14196.1304,-3924.72L14196.3104,-3924.7066L14196.6995,-3924.58L14196.9498,-3924.7734L14197.1207,-3924.9065L14197.02,-3925.1331L14196.8292,-3925.1331L14196.6705,-3925.1266L14196.5195,-3925.1198L14196.1197,-3925.0866L14195.8893,-3925.0935L14195.4803,-3924.8867L14195.1202,-3924.9397L14194.5007,-3924.7467L14194.3497,-3924.7467L14194.2001,-3924.7334L14193.8293,-3924.8398L14193.8095,-3924.4198L14193.5303,-3924.4267L14193.2297,-3924.2535L14192.8497,-3924.7131L14192.3401,-3923.8598L14192.0105,-3923.8464L14191.7206,-3924.0997L14191.4703,-3923.9998L14191.4505,-3924.7532L14191.2903,-3924.8199L14190.7196,-3924.7601L14190.5106,-3925.0401L14189.9796,-3924.8264L14189.7903,-3924.8932L14189.2197,-3924.6597L14189.0396,-3924.8734L14189.6393,-3925.0065L14189.8392,-3925.1198L14189.6301,-3925.3201L14189.9307,-3925.6466L14190.3397,-3925.6866L14190.0894,-3925.8266L14190.0192,-3926.02L14189.6103,-3926.4866L14189.2899,-3926.6197L14189.4897,-3926.7864L14188.6795,-3926.9398L14188.8,-3927.2667L14189.1998,-3927.1534L14188.8702,-3927.3666L14188.9206,-3927.3933L14188.9496,-3927.42L14189.8193,-3927.2266L14190.7104,-3927.2533L14191.3498,-3926.72L14191.6504,-3927.1667L14192.0502,-3926.8665L14192.2897,-3926.6666L14192.9199,-3926.8131L14192.8497,-3927.2331L14192.3401,-3927.8797L14192.2607,-3928.0731L14192.7094,-3928.2333L14192.4698,-3928.6198L14192.0502,-3928.6999L14191.9205,-3928.6732L14191.6199,-3928.6598L14191.4398,-3928.9997L14191.2399,-3929.0134L14191.0202,-3928.9867L14190.7593,-3929.1466L14190.4694,-3929.2866L14190.9393,-3929.6066L14189.83,-3930.0201L14189.4196,-3930.0133L14189.2502,-3930.1132L14189.1006,-3930.1334L14188.8596,-3930.1197L14188.7894,-3930.3734L14189.2105,-3930.5866L14189.1403,-3930.8731L14189.5294,-3930.6732L14189.7095,-3930.6332L14189.7995,-3930.5599L14190.2206,-3930.7732L14190.7303,-3930.9731L14191.0294,-3930.5199L14191.6092,-3930.6133L14191.8396,-3930.3532L14191.9098,-3930.64L14192.0105,-3930.6931L14192.3203,-3931.0001L14192.8802,-3930.8998L14193.3197,-3931.0398L14193.7805,-3930.88L14194.1498,-3931.0867L14194.2795,-3931.3465L14194.5404,-3931.48L14194.7906,-3931.5865L14195.5505,-3931.3667L14195.8496,-3931.7066L14197.1207,-3931.3732L14197.3495,-3931.8333L14197.7905,-3931.9931L14197.5098,-3932.4467L14197.7798,-3932.9533L14197.9797,-3933.3065L14198.1705,-3933.6533L14198.5306,-3934.0733L14198.9197,-3934.3067L14199.6796,-3934.9869L14199.7604,-3935.0864L14199.7604,-3935.22L14199.6796,-3935.1665L14199.5804,-3935.1269L14198.7701,-3934.8534L14198.5092,-3934.8133L14197.8104,-3934.0733L14197.5296,-3933.8066L14197.3495,-3933.8135L14197.1298,-3933.8066L14197.0703,-3933.6601L14196.9894,-3933.6601L14196.5897,-3933.7601L14196.46,-3933.7532L14196.3593,-3933.7868L14195.8893,-3933.7601L14195.9991,-3934.1L14195.3506,-3933.9268L14195.2103,-3933.6533L14194.9707,-3933.6468L14194.96,-3933.6533L14194.9402,-3933.7265L14194.87,-3933.7265L14194.8502,-3933.6533L14194.5297,-3933.2001L14194.4595,-3932.9666L14193.9392,-3932.9597L14193.4601,-3933.1734L14192.3706,-3933.3267L14191.6901,-3932.7065L14191.5405,-3932.4532L14191.2506,-3932.4333L14191.0797,-3932.9132L14190.48,-3932.6733L14189.9506,-3933.3866L14189.9307,-3933.6533L14190.2893,-3934.0599L14190.7898,-3934.2201L14191.0202,-3934.4467L14191.5695,-3934.6001L14191.33,-3935.0533L14191.5894,-3935.4801L14191.5604,-3935.68L14191.9403,-3935.54L14192.9001,-3935.3333L14193.4692,-3935.1334L14194.0704,-3934.8999L14194.4504,-3935.1002L14195.3903,-3935.4267L14195.8206,-3935.7735L14195.7397,-3936.1L14195.7092,-3936.2469L14196.4798,-3936.9068L14196.6003,-3937.1136L14196.7832,-3937.5M14195.488,-3937.5L14195.3506,-3937.3333L14195.1904,-3937.3466L14195.2896,-3937.2131L14194.7098,-3937.1933L14194.3928,-3937.5"/>
</g>
</svg>
