<?xml version="1.0" encoding="UTF-8"?>
<svg  xmlns="http://www.w3.org/2000/svg" xmlns:xlink="http://www.w3.org/1999/xlink" xmlns:go="http://purl.org/svgmap/profile" property="f_code,acc,exs,soc" viewBox="13781.25 -3937.5 281.25 281.25" go:dataArea="13781.25 -3937.5 281.25 281.25" >
<metadata>
 <rdf:RDF xmlns:rdf="http://www.w3.org/1999/02/22-rdf-syntax-ns#" xmlns:crs="http://opengis.org/xmldtds/transformations.dtd" xmlns:svg="http://www.w3.org/svg" >
  <rdf:Description>
   <crs:CoordinateReferenceSystem rdf:resource="http://purl.org/crs/84" svg:transform="matrix(100.0,0.0,0.0,-100.0,0.0,0.0)" />
  </rdf:Description>
 </rdf:RDF>
</metadata>
<globalCoordinateSystem srsName="http://purl.org/crs/84" transform="matrix(100.0,0.0,0.0,-100.0,0.0,0.0)" />
<defs>
 <g id="p0" >
  <circle cx="0.0" cy="0.0" r="3" stroke="green" stroke-width="2.0" vector-effect="non-scaling-stroke" />
 </g>
</defs>
<g fill="none" fill-rule="evenodd" stroke="#000000" stroke-width="2" opacity="0.5" vector-effect="non-scaling-stroke" stroke-linejoin="bevel" >
<path content="BA010,1,1,JPN" xlink:title="BA010" d="M13912.886,-3796.2795L13912.1796,-3796.1864L13910.5606,-3795.8401L13910.0098,-3795.8599L13909.14,-3795.4533L13908.0994,-3795.2732L13907.37,-3795.1866L13906.9595,-3795.2332L13907.4707,-3795.0401L13907.4005,-3794.9001L13907.1899,-3794.8666L13907.1899,-3794.6133L13906.9305,-3794.8734L13906.8405,-3794.4332L13906.1707,-3794.54L13901.9608,-3791.9865L13899.6796,-3790.6467L13893.5394,-3787.4866L13892.1692,-3786.8599L13889.2593,-3785.3466L13887.1796,-3784.1L13886.5402,-3783.6533L13884.0195,-3781.4201L13882.0496,-3779.4731L13881.6498,-3778.8399L13881.2897,-3777.6466L13880.0797,-3775.3201L13880.0003,-3775.1801L13879.57,-3774.2733L13879.5792,-3773.74L13879.1397,-3772.9401L13878.7796,-3772.5868L13878.7704,-3772.16L13878.4698,-3771.6331L13878.5599,-3771.4199L13878.6499,-3770.7733L13878.5507,-3770.7466L13878.3997,-3769.68L13877.6306,-3767.6533L13877.5696,-3767.0132L13877.6093,-3766.9868L13877.2293,-3766.7801L13876.7807,-3764.7533L13876.4206,-3764.5267L13876.6205,-3764.36L13876.3992,-3764.1602L13876.3107,-3763.9732L13876.2299,-3763.8931L13876.0498,-3763.3533L13874.6796,-3760.4L13873.2697,-3759.0134L13873.1003,-3758.6533L13872.6593,-3757.8266L13871.2204,-3755.8067L13869.5694,-3754.7932L13868.6203,-3754.3266L13868.4906,-3754.4201L13868.4601,-3754.3736L13868.3304,-3754.1332L13868.0496,-3754.0798L13868.1,-3754.2999L13867.9001,-3753.9467L13866.4093,-3752.8198L13866.0095,-3752.3731L13865.4602,-3751.96L13865.3,-3751.4069L13864.7903,-3750.7133L13864.4196,-3750.3201L13863.6505,-3749.6601L13863.3499,-3749.3999L13862.8494,-3748.6465L13862.7197,-3748.5733L13862.1796,-3748.5065L13862.0499,-3748.5134L13861.7203,-3748.3665L13861.6898,-3747.2401L13859.9594,-3744.0998L13858.6792,-3741.9868L13855.4001,-3737.8265L13854.2404,-3736.9202L13854.01,-3736.7401L13853.9093,-3736.8534L13853.6697,-3736.6066L13853.4805,-3736.7065L13853.5507,-3736.5265L13853.2501,-3736.4868L13853.0807,-3736.6135L13853.1906,-3736.7599L13852.7298,-3736.6669L13852.6093,-3736.6798L13852.4506,-3736.2465L13851.9394,-3736.0401L13851.3092,-3735.6068L13851.1703,-3735.5999L13850.8896,-3735.6068L13850.4898,-3735.4L13849.7803,-3735.2402L13849.6796,-3735.3199L13849.3591,-3735.1665L13848.8693,-3735.2531L13848.7305,-3734.7267L13848.1003,-3734.5734L13846.9696,-3733.82L13846.8308,-3733.6533L13846.4798,-3733.6132L13846.1502,-3733.6533L13846.1395,-3733.6601L13846.1304,-3733.6601L13846.0403,-3733.6533L13845.9793,-3733.5068L13844.8807,-3732.6199L13844.2398,-3732.4131L13843.6295,-3732.4131L13843.4006,-3731.9866L13841.8106,-3730.6667L13837.1796,-3726.82L13835.2707,-3725.3201L13834.7702,-3724.9401L13829.6295,-3721.1601L13826.6098,-3719.3401L13826.4297,-3719.3466L13826.6296,-3719.5801L13826.4297,-3719.7868L13825.4807,-3719.2001L13825.7996,-3718.8999L13825.5707,-3718.7733L13825.2106,-3719.1132L13824.9496,-3718.7866L13825.1999,-3718.5532L13825.1099,-3718.4334L13825.4501,-3718.5001L13824.9496,-3718.2468L13824.7406,-3718.5268L13824.7406,-3718.8667L13825.2792,-3720.4998L13825.5005,-3720.7531L13825.2396,-3720.52L13824.6796,-3718.8732L13824.6796,-3718.8L13824.6704,-3718.5333L13824.6796,-3718.4067L13824.6796,-3718.1534L13824.4507,-3718.1801L13822.5998,-3717.2333L13821.6309,-3716.9868L13820.6802,-3716.8533L13820.4895,-3716.9868L13819.31,-3716.9868L13817.2501,-3716.3399L13814.9002,-3716.2132L13814.5798,-3716.3933L13814.3005,-3716.3933L13814.0793,-3716.3868L13813.9404,-3716.5466L13814.1006,-3716.6466L13813.5803,-3716.3799L13813.0295,-3716.5333L13812.3505,-3716.9868L13812.1796,-3717.0467L13810.17,-3717.44L13809.2895,-3717.1131L13809.0897,-3716.9868L13808.6899,-3716.6065L13808.6502,-3716.7068L13808.7296,-3716.3666L13807.7805,-3715.4732L13806.7596,-3714.8399L13805.9204,-3714.1666L13805.5695,-3713.6066L13805.3299,-3713.6002L13805.2094,-3713.4869L13805.0995,-3713.0268L13803.4195,-3712.1067L13801.8997,-3711.4468L13801.7197,-3711.4265L13801.21,-3711.5532L13800.56,-3711.5131L13800.0397,-3711.2L13799.8505,-3710.9798L13799.6796,-3711.0268L13799.5193,-3711.0268L13799.6796,-3711.3068L13799.6902,-3711.3266L13799.6796,-3711.34L13799.2096,-3710.7468L13798.1903,-3710.1933L13797.3801,-3709.6733L13796.8491,-3709.24L13795.8099,-3708.8268L13795.0195,-3708.6533L13794.1803,-3707.9666L13793.9697,-3707.56L13792.8802,-3707.0801L13792.7902,-3707.1468L13792.7399,-3706.9668L13790.8997,-3706.0001L13787.1796,-3705.0133L13784.1202,-3704.3331L13784.3506,-3704.2934L13784.0805,-3703.9532L13784.1492,-3703.7998L13783.9905,-3703.7533L13783.8394,-3704.0867L13783.5693,-3704.0268L13783.8501,-3704.3133L13783.2199,-3704.1134L13781.25,-3703.1206"/>
<path content="BA010,3,1,JPN" xlink:title="BA010" d="M13913.9511,-3796.5179L13912.9898,-3796.2933L13912.886,-3796.2795"/>
<path content="BA010,1,1,JPN" xlink:title="BA010" d="M13823.97,-3808.3733L13824.0799,-3808.6533L13823.9807,-3808.6666L13823.9807,-3808.6533L13823.97,-3808.3733"/>
<path content="BA010,1,1,JPN" xlink:title="BA010" d="M13824.4904,-3780.2666L13824.6796,-3780.3001L13824.8596,-3780.3799L13825.1205,-3780.5332L13825.4105,-3780.3799L13826.2009,-3780.6065L13826.2009,-3780.6465L13826.5594,-3780.8067L13827.15,-3781.2332L13827.1698,-3781.4331L13827.4704,-3781.6467L13827.6794,-3781.4266L13827.6398,-3781.1932L13827.7405,-3781.02L13828.0502,-3781.2199L13828.1906,-3781.1531L13827.9999,-3781.4934L13828.1296,-3781.4732L13828.1693,-3781.6399L13828.3798,-3781.6933L13828.92,-3782.0465L13828.9093,-3782.1667L13829.5502,-3782.1667L13829.8401,-3782.1331L13830.5603,-3782.7065L13830.7205,-3782.7332L13831.5308,-3782.8133L13832.7301,-3782.4867L13834.1507,-3782.6332L13834.5001,-3782.5668L13834.9808,-3782.9067L13835.4904,-3782.98L13836.3495,-3783.3466L13836.6302,-3783.6266L13836.9507,-3783.6533L13837.1796,-3783.8467L13837.8403,-3784.2602L13838.3102,-3784.56L13840.2893,-3786.2L13840.8096,-3786.2934L13841.0599,-3786.3468L13841.1804,-3786.7001L13841.0995,-3786.9133L13841.4093,-3786.9999L13841.2994,-3786.8935L13841.7206,-3787.2334L13842.9901,-3788.1134L13843.7897,-3788.2999L13844.2596,-3788.4464L13844.6198,-3788.8L13845.5704,-3789.3932L13846.4401,-3789.3665L13846.6202,-3789.5931L13847.0306,-3789.7064L13847.3999,-3790.3934L13848.0103,-3791.0198L13848.4802,-3791.3933L13848.6694,-3791.7866L13848.97,-3791.9865L13849.6796,-3792.0265L13850.0198,-3792.0734L13850.0305,-3792.7666L13850.3601,-3793.8332L13850.4303,-3794.64L13851.0696,-3795.4998L13851.4496,-3796.3467L13852.0905,-3797.5735L13852.2903,-3798.0534L13852.9099,-3798.6935L13853.45,-3799.5335L13853.6804,-3799.6399L13853.9001,-3800.3201L13854.6402,-3800.8335L13855.13,-3802.1866L13855.2399,-3802.6535L13855.5496,-3803.3535L13856.25,-3804.1466L13856.7505,-3805.6335L13857.3502,-3806.3465L13857.1594,-3806.5067L13857.1198,-3807.2998L13856.9794,-3807.5066L13857.2296,-3807.9201L13856.7307,-3808.4332L13856.4606,-3808.4332L13856.2805,-3808.6533L13856.2393,-3808.8066L13856.0699,-3808.6533L13855.22,-3808.1867L13855.0095,-3808.16L13854.4907,-3808.1398L13853.7292,-3808.0666L13853.5095,-3808.1932L13853.3905,-3807.6935L13853.1494,-3807.5001L13853.0396,-3807.5401L13852.3407,-3807.2601L13851.4008,-3807.1201L13851.1505,-3807.1133L13850.8301,-3807.0934L13850.5096,-3807.1999L13849.6994,-3807.0866L13849.6796,-3807L13849.4797,-3806.9599L13849.1806,-3806.9599L13848.2101,-3806.2401L13845.6406,-3806.9931L13843.9804,-3807.8735L13843.8904,-3808.0799L13843.9102,-3808.1799L13843.8904,-3808.26L13843.6707,-3808.2001L13843.7103,-3808.5533L13843.7103,-3808.6399L13843.6707,-3808.6334L13843.5104,-3808.5934L13843.4906,-3808.6533L13843.5303,-3808.8734L13843.6295,-3808.8799L13843.4097,-3809.6199L13843.7897,-3810.7132L13843.5501,-3811.6467L13844.4794,-3813.1268L13844.96,-3814.1067L13845.0195,-3814.0266L13845.05,-3814.7533L13846.0007,-3816.0934L13846.6995,-3816.9399L13846.7804,-3816.9868L13847.0398,-3817.1333L13847.3404,-3817.7399L13847.6898,-3818.0733L13848.0392,-3818.7733L13848.7396,-3820.1401L13849.2798,-3820.3999L13849.3698,-3822.3534L13849.6796,-3822.8668L13850.4196,-3824.5934L13850.6195,-3825.1667L13850.5905,-3825.3201L13850.9399,-3826.8398L13850.7797,-3827.9068L13850.8698,-3829.34L13851.03,-3830.0133L13851.3901,-3831.6799L13851.6602,-3831.9935L13851.9699,-3832.2201L13852.0599,-3832.2399L13852.1103,-3832.56L13851.8906,-3832.5199L13851.77,-3832.5066L13851.4603,-3833.2466L13850.47,-3833.1665L13849.6796,-3833.2001L13849.2996,-3833.2134L13848.6893,-3833.1131L13848.5504,-3833.1333L13848.1903,-3832.84L13847.3206,-3832.2533L13846.4905,-3832.3666L13846.3806,-3832.3532L13846.1395,-3832.3601L13845.8908,-3832.14L13846.1395,-3831.9801L13846.3699,-3831.6933L13846.2296,-3831.2733L13845.9793,-3831.2801L13845.7993,-3831.0268L13845.3506,-3830.8468L13844.8502,-3829.62L13844.2993,-3829.2L13844.0796,-3828.6598L13844.4,-3827.7733L13843.9804,-3827.2999L13843.7393,-3826.9066L13843.8995,-3826.5533L13842.7307,-3825.4334L13842.5903,-3825.4398L13842.2195,-3825.4269L13841.6595,-3825.4334L13841.6397,-3825.3201L13841.4001,-3825.0801L13841.1896,-3825.2666L13840.8798,-3824.8936L13840.5197,-3825.0069L13840.48,-3825.3201L13840.2893,-3825.4334L13840.1306,-3825.4398L13839.9902,-3825.3201L13839.7903,-3824.9599L13839.8895,-3824.5132L13839.4302,-3824.1798L13839.0396,-3823.8667L13838.9801,-3823.5401L13838.1393,-3822.9599L13837.5702,-3822.8268L13837.1994,-3822.0135L13837.1796,-3822.02L13836.0397,-3821.1933L13835.35,-3820.7932L13834.5795,-3820.1801L13834.4498,-3820.2068L13833.7402,-3819.82L13833.5892,-3819.82L13832.9498,-3819.8933L13832.6797,-3819.8799L13832.5104,-3819.8734L13832.6096,-3819.4199L13831.3705,-3817.5465L13831.1707,-3816.9868L13830.9204,-3816.9266L13830.5405,-3816.6935L13830.2994,-3816.3666L13830.2002,-3815.8199L13829.7501,-3815.72L13830.22,-3815.2466L13830.1209,-3815.2065L13829.8599,-3814.7469L13829.2099,-3814.3398L13829.1504,-3814.0865L13828.9703,-3813.4068L13828.5202,-3813.2866L13828.36,-3813.1268L13828.1693,-3813.1401L13827.7603,-3812.6469L13826.9608,-3812.0735L13827.2903,-3811.9534L13826.9897,-3811.3602L13826.4603,-3810.7334L13826.2894,-3810.5801L13826.0498,-3810.1334L13826.0101,-3809.7134L13825.5707,-3809.5867L13825.4395,-3809.4799L13825.3494,-3809.3933L13824.8901,-3809.5932L13824.8596,-3809.3468L13824.9802,-3809.3533L13824.6796,-3809.0866L13824.6796,-3809L13824.6796,-3808.9867L13824.4003,-3808.8535L13824.4995,-3808.8066L13824.4995,-3808.7265L13824.2294,-3808.7467L13824.2401,-3808.6533L13824.1608,-3808.3599L13824.0494,-3808.3332L13824.0997,-3808.0399L13824.2294,-3807.9601L13824.4598,-3807.9868L13824.6796,-3807.9666L13824.6994,-3807.5935L13824.6796,-3807.5867L13824.0295,-3806.7532L13823.6694,-3806.5201L13823.3109,-3806.1001L13823.3795,-3805.9067L13823.5901,-3805.3535L13823.4695,-3805.1601L13823.79,-3804.8L13823.5199,-3804.3934L13823.5092,-3804.2267L13823.6404,-3803.6999L13823.8693,-3803.1532L13823.9502,-3803.0266L13823.5092,-3802.5269L13822.9401,-3802.3869L13822.1497,-3802.2202L13822.3495,-3801.7933L13822.1008,-3801.44L13822.4304,-3801.2669L13822.7295,-3801.1467L13822.9004,-3800.9998L13823.3795,-3800.9335L13823.3505,-3800.3201L13823.5092,-3799.3134L13823.3002,-3799.0799L13823.3795,-3798.3868L13823.1308,-3798.3269L13822.9507,-3798.4001L13822.7997,-3798.2735L13822.6593,-3798.32L13822.8592,-3797.9534L13823.0194,-3797.8931L13823.23,-3797.6601L13823.6694,-3797.1867L13823.5504,-3797.4667L13823.8495,-3797.2801L13824.6796,-3796.92L13825.0198,-3796.5935L13825.4898,-3796.5L13825.7004,-3796.9532L13825.8408,-3797.5735L13825.9094,-3797.5933L13826.1795,-3798.46L13826.2695,-3798.5668L13827.2903,-3799.3866L13827.4399,-3800.3201L13828.6407,-3800.7198L13830.1392,-3800.7L13831.1096,-3800.3201L13832.5394,-3799.3999L13834.0302,-3797.8199L13834.3094,-3796.4466L13833.7601,-3795.7798L13833.6105,-3795.8065L13833.1192,-3795.5532L13832.9803,-3795.0401L13830.9402,-3794.22L13830.4306,-3793.7733L13829.7104,-3792.8734L13828.5492,-3792.0399L13828.4897,-3791.9865L13828.3401,-3791.4467L13828.1204,-3791.18L13828.1097,-3791.0667L13827.8992,-3790.6467L13828.1296,-3790.2534L13828.6606,-3789.9334L13828.9398,-3789.7133L13828.9093,-3788.9599L13828.8696,-3788.4201L13828.6697,-3788.2534L13828.4698,-3787.9734L13828.4698,-3787.92L13828.45,-3787.6068L13828.2303,-3786.7733L13827.2202,-3785.1933L13826.4297,-3784.4265L13826.2695,-3784.4398L13825.9003,-3784.2335L13825.3403,-3784.4334L13825.1404,-3784.38L13824.9802,-3784.24L13824.6994,-3783.8665L13824.6796,-3783.8734L13824.4995,-3783.8665L13824.3393,-3783.8665L13824.1608,-3783.8665L13823.8998,-3783.8867L13823.6298,-3784.0134L13822.8302,-3783.7334L13822.6395,-3783.7467L13822.5494,-3783.6533L13822.1207,-3783.58L13822.0398,-3783.6533L13821.6599,-3783.7666L13821.6507,-3783.6533L13821.3303,-3783.1867L13820.6894,-3782.8732L13820.5994,-3782.8068L13820.6497,-3782.4398L13820.5795,-3782.4001L13820.3903,-3782.1598L13820.6802,-3782.0534L13820.7108,-3782.0667L13820.99,-3781.6334L13821.7606,-3781.6734L13821.2799,-3781.4266L13821.5103,-3781.2267L13821.7194,-3781.0398L13822.2702,-3780.92L13822.5601,-3780.88L13822.6196,-3780.9399L13822.9004,-3780.8266L13823.0392,-3780.6599L13823.2895,-3780.7533L13823.6206,-3780.7999L13823.7198,-3780.6465L13824.2401,-3780.5534L13824.1699,-3780.3932L13824.4507,-3780.4531L13824.6796,-3780.4066L13824.4904,-3780.2666"/>
<path content="BA010,1,1,JPN" xlink:title="BA010" d="M13848.4802,-3833.2668L13848.4406,-3833.6533L13848.32,-3833.6533L13848.0804,-3833.3733L13848.2697,-3833.2867L13848.4802,-3833.2668"/>
<path content="BA010,1,1,JPN" xlink:title="BA010" d="M13922.2397,-3843.6935L13922.9797,-3843.9667L13924.0494,-3844.78L13924.6796,-3845.2534L13925.5005,-3846.4333L13925.6897,-3847.1802L13925.9705,-3847.3267L13925.8194,-3847.7135L13926.0407,-3848.3265L13926.5106,-3848.8731L13925.7095,-3849.1333L13925.5798,-3849.1402L13925.09,-3848.6267L13925.0702,-3848.46L13924.9207,-3848.4734L13924.6796,-3848.4066L13924.4308,-3848.1869L13923.8907,-3847.6135L13923.8297,-3847.4602L13923.7595,-3847.0734L13923.4894,-3846.8533L13923.1598,-3846.6331L13923.0804,-3846.3867L13922.67,-3846.3867L13922.4701,-3846.5332L13922.58,-3846.1998L13922.1802,-3845.9133L13922.5006,-3845.6467L13922.3801,-3845.4067L13922.4701,-3845.1401L13922.4197,-3844.8132L13921.7697,-3844.7132L13921.7606,-3844.5667L13921.8399,-3844.1399L13921.5103,-3843.9934L13921.5195,-3843.7866L13922.2397,-3843.6935"/>
<path content="BA010,1,1,JPN" xlink:title="BA010" d="M13924.989,-3849.5791L13925.0096,-3849.5774L13925.02,-3849.5667L13924.9997,-3849.4618L13924.9725,-3849.4622L13924.9609,-3849.4688L13924.9535,-3849.4837L13924.9436,-3849.5027L13924.9547,-3849.5113L13924.9593,-3849.5246L13924.9803,-3849.5721L13924.989,-3849.5791"/>
<path content="BA010,1,1,JPN" xlink:title="BA010" d="M13952.2198,-3918.7608L13952.3914,-3918.6048L13952.6931,-3918.1834L13952.5475,-3917.8765L13952.3602,-3917.8609L13952.3602,-3918.1262L13952.3914,-3918.4123L13952.1261,-3918.3447L13952.0273,-3918.5423L13952.0273,-3918.6776L13952.2198,-3918.7608"/>
<path content="BA010,1,1,JPN" xlink:title="BA010" d="M13954.4098,-3918.1931L13954.6906,-3918.3399L13954.9698,-3918.2533L13954.9606,-3918.4067L13954.7806,-3918.3865L13954.9805,-3919.0132L13955.7098,-3919.4733L13955.9402,-3919.5465L13956.1905,-3919.6064L13956.4102,-3919.7533L13956.34,-3920.1065L13955.8304,-3920.3732L13955.3894,-3920.6867L13954.9805,-3920.8534L13954.9393,-3920.1L13954.0604,-3919.5599L13953.9307,-3919.5801L13954.0298,-3919.4199L13954.1504,-3918.5467L13954.4098,-3918.1931"/>
<path content="BA010,1,1,JPN" xlink:title="BA010" d="M14001.0325,-3937.5L14000,-3935.0166L13999.6796,-3934.2468L13999.3301,-3933.6533L13998.0499,-3931.3465L13996.7606,-3929.6532L13996.3394,-3929.4067L13996.1899,-3929.3999L13994.5496,-3928.96L13994.3497,-3929.0066L13993.7195,-3928.9799L13993.5898,-3928.9799L13992.8207,-3928.8334L13992.7505,-3928.6133L13992.6407,-3928.6331L13992.0502,-3928.1666L13991.6809,-3927.6333L13991.1407,-3926.4133L13991.2308,-3925.6134L13991.3406,-3925.3201L13991.4795,-3924.8932L13990.4205,-3922.7867L13989.9796,-3922.1333L13989.74,-3921.8864L13989.5798,-3921.4733L13989.4196,-3921.4798L13989.4409,-3921.3264L13989.3494,-3920.8668L13989.3906,-3920.5399L13989.3097,-3920.34L13989.9002,-3920.1931L13990.4404,-3919.96L13990.5807,-3918.8797L13990.1505,-3916.9865L13989.4501,-3915.5464L13988.5193,-3914.78L13988.2507,-3913.9133L13988.4399,-3913.2999L13987.9105,-3912.6465L13987.8098,-3912.4065L13987.8204,-3912.1597L13987.3596,-3912.1468L13987.2192,-3912.1597L13987.1796,-3912.1201L13986.9797,-3911.8599L13987.0407,-3911.5265L13987.0605,-3911.1267L13987.1796,-3911.1134L13987.3703,-3910.8398L13987.4695,-3910.6335L13987.8403,-3910.4668L13987.8998,-3909.7797L13987.6205,-3908.9733L13987.3108,-3908.6533L13987.1796,-3908.2466L13987.1796,-3908.0734L13987.1796,-3907.7133L13986.8195,-3907.2933L13987.1796,-3907.0801L13987.1796,-3906.8733L13984.8709,-3900.5798L13984.7305,-3900.3201L13984.0408,-3898.5466L13983.1802,-3897.3465L13982.6004,-3897.5132L13981.9,-3896.0865L13982.6096,-3895.8668L13982.5806,-3895.76L13983.1802,-3895.8599L13983.4198,-3896.1998L13983.4793,-3896.3867L13983.7601,-3896.3066L13983.5403,-3895.6467L13983.4396,-3895.4731L13983.3801,-3895.5399L13983.3694,-3895.4067L13982.8506,-3895.4399L13982.3303,-3895.2599L13982.1304,-3894.8601L13981.4301,-3895.06L13981.1707,-3894.5133L13981.7505,-3894.2532L13981.1707,-3893.0397L13980.9998,-3892.8734L13980.7999,-3891.9865L13980.4901,-3890.6734L13977.8793,-3883.6533L13976.1704,-3880.0533L13974.6796,-3877.5532L13974.0707,-3877.2064L13973.1598,-3876.6132L13973.4406,-3876.3134L13973.2101,-3876.2733L13973.0194,-3876.3466L13972.9004,-3876.3466L13972.4503,-3876.3268L13972.2595,-3876.3332L13972.4396,-3876.0067L13971.6995,-3875.5733L13971.1395,-3875.3201L13970.7901,-3874.9535L13970.7397,-3874.5998L13970.8099,-3874.4267L13970.5505,-3874.4469L13969.9097,-3873.7331L13969.7296,-3873.4135L13969.8196,-3873.0202L13969.2795,-3872.6665L13968.7408,-3872.3068L13968.5104,-3872.3133L13968.2297,-3871.9399L13968.1,-3871.7934L13967.6697,-3871.78L13967.3096,-3871.9334L13967.1707,-3871.9334L13966.7709,-3871.6064L13966.6,-3871.4199L13966.2598,-3871.3333L13966.2903,-3870.7867L13966.0706,-3870.7867L13965.9607,-3870.4399L13965.3,-3870.2667L13964.7797,-3869.36L13964.3494,-3869.2532L13963.8992,-3868.8L13963.2797,-3868.4864L13962.7197,-3868.7801L13962.1796,-3868.0931L13962.1796,-3868.0801L13962.1796,-3868.0332L13961.4899,-3867.4732L13961.3998,-3867.0399L13961.2198,-3866.9868L13961.0504,-3866.8732L13961.0306,-3866.4269L13960.5804,-3866.0198L13960.1105,-3865.3603L13959.5505,-3864.7133L13959.6207,-3864.4066L13959.52,-3863.94L13959.1599,-3863.5399L13958.9996,-3863.3533L13958.4106,-3862.1132L13957.6706,-3861.3869L13957.5699,-3861.1069L13957.4707,-3860.9535L13957.2601,-3860.4267L13957.1198,-3860.4401L13956.9504,-3860.2333L13956.9199,-3859.9468L13956.4194,-3859.5001L13956.4606,-3859.1934L13956.2805,-3859.2133L13956.3599,-3859.1732L13956.3004,-3858.9798L13955.9799,-3858.6533L13955.9204,-3858.1268L13955.7693,-3858.1333L13955.7693,-3857.9868L13955.7907,-3857.6199L13954.8904,-3856.7001L13954.6097,-3856.2668L13954.8599,-3856.1134L13954.4907,-3855.8468L13954.3106,-3856.0135L13954.1901,-3855.9399L13954.2496,-3856.0268L13954.1794,-3856.1199L13954.0298,-3855.8399L13954.5105,-3855.7468L13954.8203,-3855.3398L13955.0003,-3854.8L13954.6402,-3853.7266L13952.4796,-3850.9132L13952.4399,-3850.8465L13952.2598,-3850.7133L13952.0706,-3850.5936L13951.8097,-3850.4799L13951.8402,-3850.3201L13952.0493,-3850.0534L13951.1108,-3848.8533L13950.9399,-3848.8602L13951.0101,-3848.7732L13950.9399,-3848.7L13951.1993,-3848.6935L13951.1307,-3848.5401L13951.0803,-3848.6134L13950.9598,-3848.4932L13950.7996,-3848.3334L13950.7202,-3847.9336L13950.6195,-3847.6868L13950.4196,-3847.5201L13950.3403,-3847.1001L13949.7406,-3845.8668L13949.6796,-3845.6799L13948.4406,-3844.5332L13948.32,-3844.5465L13948.3994,-3844.2398L13948.2208,-3843.7599L13948.14,-3843.2201L13947.5708,-3842.8066L13947.0306,-3841.9868L13946.7896,-3841.8732L13946.7606,-3841.4398L13946.4798,-3840.7269L13946.3501,-3840.7333L13946.0709,-3839.9467L13945.7397,-3839.6465L13945.6802,-3839.4733L13945.5902,-3838.8332L13945.7306,-3838.5067L13945.9991,-3838.0665L13945.3903,-3837.0468L13945.2805,-3836.4532L13945.0897,-3836.0001L13945.1004,-3835.3065L13945.1706,-3834.4334L13945.2499,-3833.6533L13944.9005,-3831.3068L13945.0607,-3830.7598L13944.7495,-3829.3934L13944.8807,-3829.0268L13944.7998,-3827.1801L13944.5694,-3826.4599L13944.5007,-3825.8068L13944.4107,-3825.3201L13944.0994,-3824.5667L13944.8196,-3824.3534L13945.0394,-3823.8934L13944.2596,-3822.3202L13942.8101,-3819.7868L13942.7597,-3819.0601L13942.3798,-3818.8133L13943.0893,-3819.1135L13943.2007,-3818.7332L13943.0405,-3818.7733L13942.7399,-3817.7265L13942.5903,-3817.5133L13942.1997,-3816.9868L13941.0309,-3815.2668L13937.1796,-3810.5999L13935.3699,-3808.6533L13931.3797,-3804.9465L13928.8208,-3803.1067L13927.7893,-3802.3533L13924.6796,-3800.5001L13924.1302,-3800.7133L13923.4406,-3800.3201L13922.76,-3799.9401L13923.0499,-3799.4598L13922.4808,-3799.2065L13921.7895,-3799.0002L13921.5302,-3799.3401L13920.4895,-3798.8602L13920.2606,-3798.3601L13915.3305,-3796.8399L13913.9511,-3796.5179"/>
</g>
</svg>
