<?xml version="1.0" encoding="UTF-8"?>
<svg  xmlns="http://www.w3.org/2000/svg" xmlns:xlink="http://www.w3.org/1999/xlink" xmlns:go="http://purl.org/svgmap/profile" property="f_code,acc,exs,soc" viewBox="14062.5 -4500.0 562.5 562.5" go:dataArea="14062.5 -4500.0 562.5 562.5" >
<metadata>
 <rdf:RDF xmlns:rdf="http://www.w3.org/1999/02/22-rdf-syntax-ns#" xmlns:crs="http://opengis.org/xmldtds/transformations.dtd" xmlns:svg="http://www.w3.org/svg" >
  <rdf:Description>
   <crs:CoordinateReferenceSystem rdf:resource="http://purl.org/crs/84" svg:transform="matrix(100.0,0.0,0.0,-100.0,0.0,0.0)" />
  </rdf:Description>
 </rdf:RDF>
</metadata>
<globalCoordinateSystem srsName="http://purl.org/crs/84" transform="matrix(100.0,0.0,0.0,-100.0,0.0,0.0)" />
<defs>
 <g id="p0" >
  <circle cx="0.0" cy="0.0" r="3" stroke="green" stroke-width="2.0" vector-effect="non-scaling-stroke" />
 </g>
</defs>
<g fill="none" fill-rule="evenodd" stroke="#000000" stroke-width="2" opacity="0.5" vector-effect="non-scaling-stroke" stroke-linejoin="bevel" >
<path content="BA010,1,1,JPN" xlink:title="BA010" d="M14199.6796,-3939.9799L14199.9908,-3940.2332L14199.9603,-3940.3599L14200,-3940.7333L14199.6796,-3940.34L14199.44,-3940.0734L14199.6796,-3939.9799"/>
<path content="BA010,1,1,JPN" xlink:title="BA010" d="M14203.7994,-3941.9132L14203.9505,-3941.9868L14203.7109,-3941.9868L14203.7994,-3941.9132"/>
<path content="BA010,1,1,JPN" xlink:title="BA010" d="M14196.7832,-3937.5L14196.7896,-3937.5134L14196.4996,-3937.9066L14195.5704,-3937.5999L14195.488,-3937.5M14194.3928,-3937.5L14194.31,-3937.5801L14194.0903,-3938.06L14193.9301,-3938.7001L14194.4,-3939.0465L14194.7006,-3939.3467L14195.1401,-3939.6667L14195.2805,-3939.7469L14195.3796,-3939.9666L14195.6604,-3940.1531L14195.9396,-3940.5933L14196.3806,-3941.14L14197.2504,-3941.8999L14197.3007,-3941.9868L14197.5998,-3942.7467L14198.2803,-3942.5999L14197.9904,-3942.4133L14198.2407,-3942.4732L14198.4695,-3941.9868L14198.5092,-3941.6733L14198.1903,-3941.4066L14198.1796,-3940.9534L14198.6801,-3940.9134L14199.6796,-3940.9801L14199.8795,-3941.2132L14200.56,-3941.1533L14200.8102,-3941.5798L14201.0895,-3941.5001L14200.9094,-3941.8865L14200.7706,-3941.9868L14200.9796,-3942.6132L14201.4496,-3942.6201L14201.4496,-3942.5468L14201.5701,-3942.54L14202.0401,-3942.1333L14202.24,-3941.9868L14202.2903,-3941.9399L14202.4307,-3941.7667L14202.9602,-3941.6134L14203.1998,-3941.7133L14203.2806,-3941.7599L14203.45,-3941.8598L14203.6697,-3941.9868L14203.7903,-3942.1734L14203.9398,-3942.5068L14204.4006,-3942.5468L14204.3808,-3942.7734L14204.2404,-3942.9066L14204.2404,-3943.3201L14204.0604,-3943.5066L14204.0497,-3943.5867L14203.891,-3943.66L14204.0298,-3943.9667L14204.01,-3944.0399L14204.2801,-3944.0067L14204.2603,-3944.2532L14203.92,-3944.3333L14203.9307,-3944.5133L14203.9398,-3944.5667L14204.0497,-3944.7399L14204.4006,-3944.92L14204.8904,-3945.1534L14204.9805,-3945.8134L14205.4703,-3946.2933L14205.8105,-3946.5065L14205.8899,-3946.6667L14205.9906,-3947.0135L14206.0699,-3947.1935L14205.8502,-3947.1867L14205.8899,-3947.3534L14205.7404,-3947.34L14205.4504,-3947.5933L14205.3406,-3947.4998L14205.1697,-3947.7867L14205.04,-3948.0999L14205.2002,-3948.3265L14205.0598,-3948.4932L14204.7195,-3948.2601L14204.1,-3948.3131L14203.9398,-3948.2334L14203.7109,-3948.3398L14202.9404,-3947.7402L14202.8503,-3947.7001L14202.6306,-3947.4068L14200.9308,-3946.4733L14200.3403,-3945.4868L14200.4303,-3944.6068L14200.3006,-3944.5866L14199.6796,-3945.1L14199.4995,-3945.2133L14198.9792,-3945.0867L14198.8296,-3944.8933L14197.9095,-3943.9533L14197.319,-3944.1467L14197.0306,-3945.0066L14196.64,-3944.82L14196.2997,-3945.2332L14196.1304,-3945.5399L14195.8099,-3945.7932L14196.2006,-3945.9267L14195.7397,-3946.1266L14195.9503,-3946.1933L14195.8099,-3946.4535L14195.7504,-3946.2868L14195.4193,-3946.7999L14195.5505,-3947.0001L14195.5597,-3947.0135L14195.5505,-3947.02L14195.7001,-3947.5666L14196.6705,-3947.7932L14197.4304,-3948.1998L14197.4701,-3948.1998L14198.0194,-3948.2334L14198.1705,-3948.0801L14198.4695,-3948.1667L14199.3195,-3948.3734L14199.6796,-3948.1735L14200.3799,-3947.9401L14200.6897,-3947.8931L14200.9598,-3947.6467L14201.2497,-3948.04L14201.0406,-3949.0269L14201.1398,-3949.0665L14200.9796,-3949.4598L14201.2405,-3949.9134L14201.0895,-3950.0332L14201.3596,-3950.1999L14201.8997,-3950.0732L14202.1194,-3950.0069L14202.1194,-3950.2468L14202.2903,-3950.3201L14202.33,-3950.3201L14202.4109,-3950.3201L14202.6505,-3950.6802L14202.71,-3950.84L14202.9297,-3950.9132L14202.8595,-3951.0201L14203.1403,-3952.0802L14202.9999,-3952.3468L14203.3798,-3952.9331L14203.9993,-3953.1132L14204.6494,-3953.0601L14205.4306,-3952.4467L14205.69,-3952.2133L14206.1798,-3952.6402L14205.9906,-3952.6333L14205.5801,-3952.9331L14205.4001,-3952.9331L14205.4001,-3953.0468L14205.5008,-3953.12L14205.2902,-3953.3401L14205.5801,-3953.2932L14205.9296,-3953.3134L14206.0699,-3953.4267L14206.4606,-3953.4668L14206.6208,-3953.4332L14206.6208,-3953.7666L14206.6803,-3953.8399"/>
<path content="BA010,1,1,JPN" xlink:title="BA010" d="M14198.8403,-3966.8934L14198.9899,-3966.9868L14198.7396,-3967.1932L14198.6099,-3966.9868L14198.8403,-3966.8934"/>
<path content="BA010,1,1,JPN" xlink:title="BA010" d="M14206.6803,-3953.8399L14206.6895,-3954.1L14207.0099,-3954.2L14206.9901,-3954.2801L14207.2601,-3954.8668L14206.9901,-3954.7466L14207.0007,-3955.18L14206.9305,-3955.3532L14206.9397,-3955.4333L14206.9305,-3955.6866L14206.9199,-3956.0867L14206.6696,-3956.2866L14206.5201,-3956.3L14205.78,-3956.1134L14205.8899,-3956.5731L14205.7404,-3956.5601L14205.7205,-3956.8733L14205.7602,-3957.0667L14205.7205,-3957.1465L14205.7999,-3957.3532L14205.6305,-3957.32L14205.6808,-3957.4932L14205.5008,-3957.5134L14205.3207,-3957.3868L14205.2399,-3957.4535L14205.1804,-3957.3868L14205.0507,-3957.3666L14204.9698,-3957.4734L14204.39,-3957.3933L14204.2603,-3957.3933L14203.9902,-3957.4131L14203.7109,-3957.3467L14203.8498,-3957.74L14203.7399,-3957.7267L14203.5095,-3957.7534L14203.4393,-3957.4535L14203.2196,-3957.4467L14202.9404,-3957.6931L14202.6901,-3957.9334L14202.9602,-3958.4335L14203.0197,-3958.6533L14203.2303,-3958.9466L14203.0197,-3959.24L14203.1906,-3959.7L14203.4103,-3959.8866L14203.0701,-3959.8598L14202.6108,-3960.54L14202.8809,-3960.9264L14203.45,-3961.0134L14203.1494,-3961.2L14203.1006,-3961.2732L14203.0808,-3961.3998L14202.8305,-3961.3998L14202.71,-3961.4067L14202.6398,-3961.3468L14202.3697,-3961.5269L14202.4399,-3961.7065L14202.4307,-3961.7733L14202.3804,-3962.4599L14202.2995,-3962.6934L14202.5406,-3962.8399L14202.3407,-3963.0135L14202.8595,-3963.1931L14202.4597,-3963.5132L14202.4597,-3963.6799L14202.9099,-3963.76L14202.7298,-3963.9198L14202.6794,-3964.04L14202.6398,-3964.1998L14202.7496,-3964.3665L14202.6199,-3964.4333L14202.7008,-3964.4932L14202.7603,-3964.8335L14202.6001,-3964.8399L14202.5406,-3965.0269L14202.5803,-3965.1733L14202.4704,-3965.2199L14202.4109,-3965.3332L14202.6794,-3965.5731L14202.5497,-3965.5869L14202.3895,-3965.6467L14202.2202,-3965.5869L14201.9897,-3965.5933L14201.8707,-3965.5602L14201.6708,-3965.5731L14201.7502,-3965.5132L14201.3596,-3965.02L14200.6805,-3964.2933L14200.56,-3964.1602L14200.3998,-3963.8733L14199.6796,-3963.0798L14198.3795,-3961.5002L14197.6593,-3961.2068L14197.7707,-3961.06L14197.3907,-3960.7201L14196.7896,-3959.9735L14196.3593,-3959.38L14195.8893,-3958.6533L14195.3293,-3958.6468L14195.2698,-3958.6533L14194.7495,-3959.1465L14194.5694,-3959.9201L14195.0302,-3960.2531L14195.4498,-3960.4134L14195.6299,-3960.3001L14195.7794,-3960.4401L14195.5994,-3960.6068L14196.4096,-3961.2133L14196.3394,-3961.6135L14196.6095,-3961.9064L14196.4096,-3962.4199L14197.0093,-3962.3531L14197.1008,-3962.6331L14196.8903,-3963.2935L14196.6003,-3963.3934L14196.6003,-3963.6066L14197.2595,-3963.4335L14197.2595,-3963.4666L14196.6095,-3963.6467L14196.6202,-3963.7333L14196.4401,-3963.8268L14196.5103,-3964.0133L14197.1298,-3963.8733L14197.3007,-3964.04L14196.8399,-3964.2735L14197.1298,-3964.7133L14197.6501,-3964.36L14197.7402,-3964.4135L14198.3292,-3964.7598L14198.0103,-3964.7533L14198.1598,-3964.9601L14198.0392,-3965.2802L14198.1705,-3965.2733L14198.1796,-3965.2866L14197.9507,-3965.3732L14197.7997,-3965.3801L14197.1298,-3965.1936L14197.2,-3965.5201L14197.4197,-3965.86L14197.2504,-3966.2399L14197.5494,-3966.56L14197.6105,-3966.9868L14198.1094,-3967.4465L14198.6191,-3968.2934L14198.5001,-3968.7466L14198.2697,-3968.7668L14198.1491,-3968.7401L14197.9004,-3968.7668L14197.5296,-3968.7199L14197.3999,-3968.8267L14196.8796,-3968.8133L14196.8597,-3969.1933L14197.29,-3969.4599L14197.319,-3969.8467L14197.3801,-3970.24L14197.5098,-3970.3331L14197.7493,-3970.7134L14198.1094,-3970.66L14198.5901,-3971.0068L14198.6603,-3971.0598L14198.5199,-3971.6068L14198.3002,-3971.8132L14198.6191,-3972.2733L14198.6801,-3972.3465L14198.4406,-3972.5735L14198.0194,-3972.7135L14197.6395,-3972.6933L14197.2107,-3973.0534L14197.5204,-3973.3734L14197.6791,-3973.5867L14197.9797,-3973.3002L14198.3704,-3973.4867L14198.4894,-3973.5332L14198.3704,-3973.7469L14198.7106,-3974.0067L14199.0799,-3974.7398L14199.6796,-3974.8932L14200.0107,-3974.9866L14200.2594,-3975.0668L14200.3906,-3975.2201L14199.9908,-3975.2132L14200.0595,-3975.3201L14199.8703,-3975.3201L14199.6796,-3975.14L14199.2599,-3975.3201L14198.8693,-3976.0132L14199.1806,-3976.9135L14199.6796,-3977.2598L14200.4608,-3977.6134L14200.0305,-3977.8667L14199.6796,-3977.8267L14199.0997,-3978.5732L14199.0707,-3978.6533L14198.9395,-3978.64L14198.6496,-3978.8532L14198.4406,-3978.9799L14198.5901,-3979.2198L14198.8296,-3979.76L14198.6694,-3979.9934L14198.4497,-3979.9866L14198.5703,-3980.1601L14198.4207,-3980.64L14198.5199,-3981.1867L14198.5306,-3981.3866L14198.79,-3981.5735L14199.0707,-3982.0934L14198.8205,-3982.6267L14198.5306,-3983.0334L14197.9507,-3982.9132L14197.8592,-3983.1066L14197.9797,-3983.16L14198.0804,-3983.12L14198.0194,-3983.6533L14198.0301,-3984.0866L14197.6593,-3984.3533L14197.7707,-3984.56L14197.4899,-3984.8469L14197.7097,-3985.3333L14197.76,-3985.4801L14197.6196,-3985.4801L14197.7203,-3985.6468L14197.5708,-3985.8868L14197.6105,-3986.0332L14197.6791,-3986.0802L14197.7493,-3986.2598L14197.8699,-3986.6665L14197.7005,-3987.0399L14197.4899,-3987.4401L14197.2107,-3988.2935L14196.9803,-3988.5601L14196.4096,-3988.5601L14196.0098,-3988.7932L14195.5292,-3989.3398L14194.7906,-3991.2533L14194.8303,-3991.3799L14194.7205,-3991.3399L14194.1101,-3991.8598L14194.0399,-3991.9865L14194.3298,-3992.5667L14194.0598,-3992.7734L14194.31,-3993.0332L14194.1101,-3993.1732L14193.8599,-3993.2934L14194.2398,-3993.6867L14194.2093,-3993.7664L14194.0994,-3993.9934L14194.3893,-3994.2265L14194.6503,-3994.6201L14195.4803,-3994.6068L14195.7397,-3994.4866L14195.9198,-3994.5866L14196.1395,-3994.5934L14195.9,-3995.1534L14196.0693,-3995.1866L14196.3593,-3995.3533L14196.2296,-3995.3598L14195.9702,-3995.3331L14195.7993,-3995.5666L14195.9,-3995.7466L14195.7794,-3995.7798L14195.8694,-3995.8332L14195.7001,-3995.8267L14195.6696,-3996.8201L14195.5505,-3997.2466L14195.5505,-3997.3202L14195.5994,-3997.8535L14195.6406,-3998.0267L14195.5292,-3998.3334L14195.4803,-3998.5733L14195.2606,-3998.56L14195.3094,-3998.7469L14195.1706,-3998.74L14194.9799,-3999.0467L14194.8898,-3998.9933L14194.5892,-3999.4202L14194.3497,-3999.9065L14194.1208,-4000L14194.0399,-4000.0332L14193.9499,-4000.3201L14193.7393,-4000.3933L14193.6401,-4000.9201L14193.19,-4001.0601L14192.9291,-4000.8667L14192.8604,-4001.0136L14192.2501,-4000.8266L14192.0807,-4000.8266L14191.2903,-4000.9869L14191.2598,-4001.0468L14190.9698,-4001.0666L14190.8295,-4000.9266L14190.4297,-4001.4267L14190.3,-4001.5133L14190.0604,-4001.7532L14190.1306,-4001.9733L14189.7995,-4002.3132L14189.7095,-4002.4734L14188.8504,-4003.1601L14188.5605,-4003.5534L14188.4598,-4003.68L14188.3194,-4004.1599L14188.0096,-4004.5334L14187.9395,-4004.6001L14187.5702,-4004.9534L14187.1796,-4004.8733L14186.8896,-4005.1998L14186.9202,-4005.3665L14186.3708,-4005.1868L14185.5392,-4005.6068L14185.4004,-4005.6133L14185.1501,-4005.6068L14184.7595,-4006.16L14183.4198,-4007.46L14183.1406,-4008.1535L14182.9498,-4008.6533L14183.0994,-4009.3868L14182.6996,-4010.08L14183.1207,-4011.6066L14183.5693,-4011.7802L14183.7097,-4011.6932L14183.5602,-4012.1601L14184.3094,-4013.0936L14185.0693,-4013.5468L14186.0199,-4013.2198L14186.6394,-4013.3331L14187.1796,-4013.5468L14187.6404,-4014.4466L14187.1796,-4014.7865L14186.9598,-4015.3L14186.8195,-4015.2802L14186.3098,-4016.0069L14186.3297,-4016.1266L14186.0703,-4016.2735L14186.0397,-4016.4536L14185.2692,-4016.9067L14184.7198,-4016.8999L14184.6802,-4016.9868L14184.5993,-4017.1066L14183.5205,-4017.7868L14183.4,-4017.8734L14183.2596,-4017.8535L14183.1604,-4017.9668L14182.8293,-4017.9535L14182.3502,-4018.0599L14181.8604,-4018.0199L14181.3995,-4018.3601L14180.6793,-4018.3468L14180.5206,-4018.3735L14180.0705,-4018.6867L14179.7195,-4019.0666L14179.4907,-4019.0601L14179.4296,-4019.5465L14179.6005,-4019.5534L14179.8096,-4019.4466L14179.8706,-4019.4466L14180.2002,-4019.4401L14180.22,-4019.7533L14180.6702,-4019.7868L14181.2302,-4019.0132L14181.2698,-4019.0266L14180.6198,-4019.9333L14180.1102,-4019.9398L14180.0003,-4019.8799L14180.0797,-4020.7535L14180.7404,-4021.6068L14181.1996,-4021.3268L14181.2897,-4021.5332L14181.0898,-4021.6133L14181.2393,-4021.7335L14181.2607,-4021.7468L14181.2698,-4021.7602L14181.4697,-4021.9135L14181.6101,-4021.8334L14181.9992,-4022.16L14182.9895,-4022.1268L14183.4106,-4022.0531L14183.2199,-4022.4133L14183.2901,-4022.48L14183.1696,-4022.9267L14183.0902,-4023.7865L14182.7301,-4024.3465L14182.3303,-4024.8268L14182.4203,-4024.8734L14182.5104,-4025.0603L14182.4097,-4025.2335L14182.3502,-4025.3201L14182.1701,-4025.4868L14182.019,-4025.9201L14182.0099,-4026.2669L14181.8893,-4026.4999L14181.8695,-4026.5667L14181.6498,-4026.6869L14181.6299,-4026.7735L14181.6696,-4027.0733L14181.1203,-4027.7332L14180.6702,-4028.4534L14180.5893,-4028.5133L14179.9606,-4029.1267L14179.48,-4029.6131L14179.4601,-4029.7001L14179.4601,-4029.9465L14178.9703,-4030.6534L14178.6301,-4031.1134L14178.4592,-4031.5933L14178.0594,-4031.7333L14177.8091,-4031.9401L14177.4994,-4032.3467L14177.1591,-4033.5335L14177.1103,-4033.6533L14177.1805,-4034.5798L14176.8799,-4034.7069L14176.4999,-4034.7069L14176.6006,-4035.2001L14176.6403,-4035.2333L14176.6296,-4035.2535L14176.2299,-4035.2333L14175.4898,-4035.6533L14175.5402,-4036.3934L14175.4196,-4036.9335L14174.6796,-4037.7201L14174.0601,-4038.0936L14173.7198,-4038.52L14173.5901,-4038.5132L14172.8699,-4039.1132L14172.58,-4039.5668L14172.0108,-4040.1802L14172.11,-4040.7333L14172.1802,-4040.8867L14172.2,-4040.9065L14172.2198,-4040.9134L14171.9894,-4041.1133L14171.4005,-4041.9868L14170.7794,-4042.2333L14170.34,-4042.5598L14170.0607,-4043.3201L14169.3802,-4043.6466L14168.9301,-4044.3466L14168.3105,-4045.0867L14168.2495,-4045.3068L14167.6605,-4045.4399L14167.5797,-4045.4933L14167.3401,-4045.48L14167.0105,-4045.7268L14166.2994,-4046.3467L14166.1499,-4046.46L14165.8997,-4046.6667L14165.7501,-4046.6534L14165.5594,-4046.8468L14164.8895,-4047.1668L14164.7598,-4047.48L14164.6606,-4047.5266L14164.4699,-4047.7535L14163.5101,-4048.3932L14163.269,-4048.9601L14163.0798,-4049.2466L14163.15,-4049.4801L14162.1796,-4050L14162.1201,-4050.3201L14162.1307,-4050.5466L14162.1796,-4050.5867L14162.1796,-4050.6065L14162.0193,-4050.6203L14161.85,-4050.5535L14161.7096,-4050.6466L14161.6501,-4050.4734L14161.1206,-4050.7732L14161.1206,-4051.2333L14160.26,-4051.6869L14160.2097,-4051.8135L14159.9396,-4051.8066L14160.0098,-4051.8803L14159.8694,-4052.0332L14159.7397,-4052.0668L14159.2102,-4051.9669L14158.4793,-4052.7199L14158.3496,-4053.36L14158.1894,-4053.4534L14158.1802,-4053.78L14158.2703,-4053.8334L14158.02,-4054.0199L14157.55,-4054.3266L14157.2098,-4054.2934L14156.4697,-4054.2934L14156.5094,-4054.1203L14156.3599,-4054.1065L14155.9204,-4053.8601L14155.8304,-4054.0268L14155.7297,-4053.7868L14155.8899,-4053.7334L14155.6396,-4053.6469L14155.2307,-4052.9469L14155.0903,-4052.9934L14155.22,-4053.4134L14154.9393,-4053.0399L14154.5807,-4053.0067L14154.57,-4053.1666L14154.3503,-4053.1532L14154.4098,-4052.8198L14153.7292,-4052.7733L14153.6102,-4053.0869L14153.4897,-4052.7668"/>
<path content="BA010,1,1,JPN" xlink:title="BA010" d="M14085.5606,-4093.2201L14085.73,-4093.4265L14085.5499,-4093.5734L14085.3195,-4093.28L14085.5606,-4093.2201"/>
<path content="BA010,1,1,JPN" xlink:title="BA010" d="M14087.7396,-4101.1799L14087.2299,-4101.7864L14087.1796,-4101.7735L14087.1796,-4101.6197L14087.1796,-4101.3802L14087.1796,-4101.3397L14087.7396,-4101.1799"/>
<path content="BA010,1,1,JPN" xlink:title="BA010" d="M14074.9496,-4083.0399L14074.6796,-4083.0734L14074.4095,-4083.0601L14073.9502,-4083.1001L14073.5901,-4083.0799L14073.8403,-4083.4534L14073.3704,-4083.2401L14073.2895,-4083.1665L14073.2803,-4083.3466L14073.3902,-4083.4267L14072.9797,-4083.6533L14072.2107,-4083.9268L14072.2107,-4084.2464L14071.55,-4084.5799L14071.3608,-4084.5734L14071.4401,-4084.7797L14071.1502,-4084.8934L14071.0007,-4084.7668L14069.8807,-4085.5331L14069.9204,-4085.6865L14069.7495,-4085.6533L14068.6707,-4086.9068L14067.7002,-4089.1602L14067.0303,-4091.9865L14066.0797,-4094.8933L14065.1596,-4100.3201L14064.7003,-4102.9934L14064.5798,-4104.6467L14064.7095,-4104.6734L14064.5599,-4104.8065L14063.9999,-4106.1401L14063.5208,-4107.7198L14063.4796,-4108.1467L14063.4506,-4108.6533L14063.2507,-4110.3664L14063.4003,-4112.3264L14063.4094,-4113.3331L14063.9908,-4115.2L14063.9694,-4115.8531L14064.2899,-4116.9865L14064.1403,-4118.0866L14063.0997,-4119.2467L14062.5,-4119.4943"/>
<path content="BA010,1,1,JPN" xlink:title="BA010" d="M14153.4897,-4052.7668L14152.7603,-4052.9331L14152.8198,-4053.0666L14152.9205,-4053.0666L14152.9205,-4053.1265L14153.4805,-4053.1799L14153.4805,-4053.2001L14152.6901,-4053.1265L14152.42,-4053.0602L14152.42,-4053.2665L14151.0895,-4054.2866L14150.3403,-4054.0867L14150.2899,-4054.3335L14151.0406,-4054.6398L14150.7904,-4054.9667L14150.1801,-4054.7066L14149.7192,-4055.3932L14150.1694,-4055.5801L14150.0504,-4055.74L14149.6796,-4055.8067L14149.3195,-4055.9467L14148.7701,-4055.7266L14148.5504,-4056.1531L14149.2599,-4056.5201L14148.9304,-4057.1735L14148.2498,-4057.0133L14147.3297,-4058.4934L14147.5098,-4058.5999L14147.4792,-4058.6533L14147.1191,-4058.9333L14146.4294,-4060.6533L14144.7906,-4064.2136L14143.9102,-4066.9868L14143.8705,-4067.0868L14143.75,-4067.7734L14143.8995,-4067.8734L14143.66,-4067.8532L14143.0801,-4068.8332L14141.5802,-4075.3201L14140.0696,-4083.6533L14139.36,-4088.7199L14139.0793,-4091.9868L14139.09,-4092.4801L14138.7497,-4092.4866L14138.6993,-4092.8867L14138.6597,-4093.0733L14138.8992,-4092.8799L14139.1205,-4092.9466L14138.7405,-4094.2265L14138.6795,-4096.6999L14138.6307,-4096.9666L14138.9694,-4096.9666L14138.9999,-4096.88L14138.9893,-4097.0333L14138.5696,-4097.1466L14138.5803,-4100.3201L14139.2105,-4107.5798L14139.4806,-4108.6533L14139.8895,-4110.1067L14139.74,-4110.1131L14139.4806,-4110.0067L14139.3402,-4110.3867L14139.4104,-4111.0733L14139.5706,-4112.5401L14139.5905,-4112.9601L14139.4897,-4113.1065L14139.6393,-4113.3064L14139.4196,-4113.2198L14139.2197,-4113.3999L14139.1006,-4114.3333L14138.9893,-4116.1598L14139.0396,-4116.9865L14139.6805,-4119.9467L14140.9592,-4125.3201L14143.6005,-4133.6533L14144.7906,-4136.8336L14144.9997,-4137.0201L14145.1706,-4137.4268L14145.6497,-4137.6266L14145.5505,-4137.8201L14145.9,-4137.9135L14145.9595,-4138.2133L14146.0495,-4138.76L14145.9793,-4139.0533L14145.3293,-4139.6801L14145.7794,-4140.2931L14146.3699,-4140.2401L14146.0907,-4141.3933L14146.4294,-4141.8331L14146.8994,-4141.9533L14146.8704,-4141.9868L14146.4294,-4142.58L14146.4294,-4143.0134L14146.1395,-4143.1667L14145.4803,-4142.4534L14145.1004,-4142.1799L14144.8105,-4141.9868L14143.8004,-4141.0801L14143.5898,-4140.9065L14143.3899,-4140.9866L14143.4692,-4140.7398L14142.45,-4140.0135L14141.0797,-4139.0598L14139.7903,-4138.0867L14137.1796,-4137.0335L14132.8995,-4135.5202L14130.5603,-4135.1467L14130.2902,-4135.1467L14129.7592,-4135.1269L14126.59,-4135.6533L14124.6796,-4136.2L14124.6506,-4136.2202L14120.99,-4137.7602L14119.31,-4138.7733L14117.6697,-4140.2332L14117.8207,-4140.4533L14117.7399,-4140.4335L14117.3294,-4140.6532L14117.4194,-4140.7932L14116.8106,-4141.1602L14116.9205,-4141.3067L14116.6702,-4141.2869L14116.4597,-4141.5001L14115.6906,-4141.7999L14115.4602,-4141.9868L14114.4699,-4143.2335L14113.9893,-4143.4933L14113.6993,-4143.4868L14112.1796,-4144.8734L14111.94,-4145.5734L14111.8393,-4145.5467L14111.5997,-4145.62L14111.1603,-4146.1666L14111.3098,-4146.36L14110.7391,-4146.5267L14110.6903,-4146.6133L14110.5499,-4146.6331L14110.4095,-4146.6534L14110.1791,-4146.6465L14109.6802,-4146.8067L14109.5001,-4146.7865L14109.1904,-4147.0402L14109.0591,-4147.0268L14108.67,-4147.2733L14108.6304,-4147.3469L14108.4198,-4147.34L14107.0602,-4147.9668L14106.8192,-4148.2468L14104.5502,-4148.3734L14103.8406,-4148.3734L14103.6606,-4148.3799L14102.8305,-4148.3734L14102.2705,-4148.3799L14102.1301,-4148.3868L14100.4593,-4148.6198L14100.3204,-4148.6198L14099.6796,-4148.9468L14098.7396,-4149.3999L14097.2305,-4150.0935L14097.0505,-4150.3201L14096.3593,-4151.2333L14096.1594,-4151.5133L14095.9808,-4151.68L14095.7901,-4151.6335L14095.1508,-4152.3201L14094.5297,-4152.4136L14094.0796,-4152.9469L14093.7302,-4152.9667L14092.3996,-4153.6068L14092.1799,-4154.2L14092.1005,-4154.2465L14091.2796,-4154.7001L14090.86,-4153.7464L14090.8005,-4153.3733L14090.6006,-4153.3867L14090.8401,-4153.0468L14090.5396,-4152.9736L14090.4404,-4153.0399L14090.2298,-4152.7599L14090.0406,-4152.5002L14089.8605,-4152.3468L14090.7104,-4151.3802L14090.95,-4150.3201L14090.7196,-4149.8333L14090.8997,-4149.5068L14090.5304,-4149.2134L14090.0192,-4148.3269L14089.7003,-4147.6002L14089.5706,-4147.5933L14089.4104,-4147.5933L14089.4196,-4147.5132L14089.0701,-4147.0867L14088.2507,-4146.8735L14088.5406,-4146.78L14087.7808,-4145.7199L14087.9898,-4145.4998L14087.2406,-4145.0932L14087.1796,-4145.1202L14086.6501,-4144.6201L14086.6501,-4144.0399L14086.5799,-4143.66L14086.2701,-4143.3533L14086.1298,-4143.3468L14085.6903,-4143.3868L14085.5896,-4143.4135L14084.9899,-4142.4133L14084.6405,-4142.1268L14083.9005,-4142.0532L14083.8104,-4141.9868L14083.7509,-4141.7599L14083.6304,-4141.5798L14083.7296,-4141.5001L14083.9005,-4141.3334L14083.6807,-4141.0934L14083.5907,-4140.6601L14083.3694,-4140.5468L14083.1802,-4139.8933L14082.7698,-4138.5403L14082.6904,-4137.0335L14082.5104,-4136.9133L14082.1198,-4135.2531L14081.9199,-4134.3933L14081.4697,-4133.6533L14080.5496,-4133.2199L14080.2399,-4132.84L14080.7404,-4132.8331L14079.9805,-4132.3067L14080.0705,-4132.0465L14080.6503,-4131.4732L14080.3894,-4131.0665L14080.0705,-4130.4333L14080.1895,-4130.3398L14079.9103,-4130.0598L14079.9194,-4129.9866L14080.1605,-4129.4067L14080.1102,-4129.2534L14079.8706,-4129.2732L14079.6402,-4128.5065L14079.4907,-4127.8801L14079.0298,-4127.4666L14079.0802,-4127.1L14078.6499,-4126.2466L14078.3707,-4125.4665L14078.0197,-4125.3201L14078.3707,-4124.2134L14078.3798,-4123.88L14078.5202,-4123.3067L14078.0106,-4121.7865L14077.8595,-4121.08L14077.8503,-4120.7733L14076.8402,-4120.0867L14076.4603,-4119.3531L14076.9104,-4117.0666L14076.8005,-4116.9865L14076.8097,-4116.8865L14076.7807,-4116.2399L14076.7395,-4115.7398L14076.7105,-4115.4064L14076.5198,-4114.5401L14076.6693,-4114.5798L14076.9897,-4114.1197L14077.4094,-4114.2132L14077.6794,-4113.9198L14077.9694,-4113.8401L14077.7802,-4113.5998L14078.5004,-4113.1802L14079.3503,-4113.3465L14080.0095,-4112.9265L14080.4703,-4112.9601L14080.8792,-4112.9467L14081.2302,-4112.8532L14081.72,-4113.4998L14082.0602,-4114.0266L14082.3502,-4114.1197L14082.6401,-4114.64L14083.1299,-4114.8666L14084.6802,-4115.6532L14085.2295,-4116.0332L14085.8398,-4116.2201L14087.1796,-4116.6332L14088.1195,-4116.6931L14088.1897,-4116.6664L14089.27,-4116.42L14090.5106,-4116.9865L14091.1392,-4117.5331L14092.1799,-4117.6266L14093.0893,-4117.4267L14093.9499,-4117.6201L14094.6304,-4117.4599L14095.7199,-4118.5066L14097.0596,-4119.5465L14098.1705,-4119.9799L14099.0295,-4119.7533L14098.9807,-4119.6598L14099.2493,-4119.7132L14099.6796,-4119.6533L14100.65,-4119.8399L14101.7105,-4119.5332L14103.4805,-4118.5532L14104.5593,-4118.4868L14105.6305,-4118.3399L14106.0501,-4118.6867L14107.3502,-4120.0066L14108.4,-4120.5601L14110.2493,-4121.4268L14111.5402,-4121.4867L14112.1796,-4121.9131L14114.3005,-4123.4402L14114.4196,-4123.5199L14115.5304,-4124.5335L14115.8997,-4125.3201L14115.8401,-4126.2733L14115.6494,-4126.2932L14115.8096,-4125.7133L14115.7394,-4125.3201L14114.5905,-4124.3732L14114.2502,-4124.1001L14113.4293,-4124.0734L14113.3896,-4124.4865L14113.9099,-4124.7734L14114.1495,-4125.3201L14115.5899,-4127.1133L14115.8203,-4127.7199L14116.4703,-4128.0132L14116.8106,-4127.8866L14116.9601,-4127.8534L14117.07,-4128.0666L14118.1198,-4127.7267L14118.5104,-4127.7733L14118.8705,-4127.98L14118.7805,-4127.7802L14120.2698,-4126.9066L14122.2992,-4125.3201L14124.6796,-4122.62L14126.7303,-4119.2398L14127.6505,-4116.9865L14127.8503,-4115.5067L14127.6291,-4115.1199L14127.2202,-4113.5265L14126.68,-4112.9002L14126.2604,-4112.6331L14125.9598,-4112.6533L14125.6302,-4112.2131L14125.2396,-4111.4132L14124.8596,-4111.0664L14124.6796,-4110.5534L14124.6796,-4110.2135L14124.6796,-4108.8001L14124.5895,-4108.6533L14124.2096,-4108.0601L14124.2004,-4104.8931L14123.2697,-4100.3201L14122.1298,-4097.1867L14119.9005,-4093.1L14119.0796,-4091.9868L14116.3101,-4089.0266L14114.5203,-4087.8067L14112.8693,-4087.2269L14112.5595,-4087.4931L14112.1796,-4087.2066L14111.6196,-4087.1864L14111.2595,-4087.4199L14111.3403,-4087.0998L14111.0001,-4087.4065L14110.5301,-4087.2868L14109.4803,-4087.7533L14108.4396,-4088.6665L14107.6996,-4089.9067L14106.7703,-4090.8531L14106.4301,-4091.4066L14105.3604,-4091.7465L14104.1901,-4091.5466L14103.1998,-4091.9868L14102.2705,-4092.6266L14102.0798,-4093.0534L14100.6393,-4093.2999L14099.8505,-4093.6932L14099.6796,-4093.6466L14098.1995,-4093.4467L14097.9401,-4093.4601L14097.4594,-4093.3998L14097.0703,-4093.7199L14097.3099,-4094.1334L14097.5601,-4094.2265L14097.8699,-4094.1132L14097.7402,-4094.1933L14097.9996,-4094.4L14098.1094,-4094.2734L14098.0606,-4094.4599L14098.1796,-4094.5267L14097.9996,-4094.5267L14097.8806,-4095.0333L14098.2101,-4095.7466L14098.3704,-4096.0865L14096.0907,-4097.5201L14095.0394,-4098.6732L14094.7998,-4099.3267L14094.5099,-4099.3L14093.9102,-4099.5602L14092.9901,-4099.3732L14092.8299,-4099.3668L14092.6895,-4099.3668L14092.3599,-4099.3599L14091.7099,-4099.5666L14091.8808,-4099.5869L14091.5894,-4099.6735L14091.5802,-4099.8333L14091.6901,-4099.8001L14091.33,-4100.1064L14091.1194,-4100.3201L14091.1102,-4100.3201L14090.9805,-4100.3067L14090.95,-4100.3201L14090.4495,-4100.7668L14089.3494,-4101.0132L14088.7909,-4101.0735L14088.0203,-4100.9731L14088.0493,-4100.3201L14087.2604,-4098.8068L14087.1796,-4098.7598L14087.0102,-4098.7732L14086.8698,-4098.7865L14086.4502,-4098.5001L14086.8698,-4098.3932L14087.1796,-4098.3532L14087.3199,-4097.9668L14087.1796,-4097.7734L14087.1002,-4097.8802L14086.7203,-4097.5735L14086.5494,-4097.4865L14086.0504,-4097.1931L14085.9894,-4096.36L14086.4304,-4096.2997L14086.1404,-4095.7531L14085.8505,-4095.7199L14085.5408,-4095.7401L14085.1593,-4095.5334L14084.8495,-4095.4533L14084.6191,-4095.4666L14083.96,-4095.3667L14083.8303,-4095.3865L14083.8806,-4095.2L14084.3796,-4095.1L14084.5001,-4094.9932L14085.1807,-4094.64L14085.7803,-4094.4534L14086.2595,-4094.7933L14086.7798,-4094.6064L14087.1597,-4094.5732L14087.1796,-4094.5065L14087.1796,-4094.2932L14086.9202,-4094.2932L14086.7401,-4093.9865L14086.7599,-4092.9333L14086.8195,-4092.3931L14086.5097,-4092.0734L14086.7706,-4091.9865L14086.9995,-4091.3868L14086.6196,-4090.4934L14086.0596,-4090.4732L14085.9192,-4090.4732L14085.9192,-4090.4465L14085.5606,-4090.34L14085.9406,-4089.8399L14086.0504,-4089.2265L14085.8994,-4088.7733L14085.0296,-4088.3732L14084.7595,-4087.5332L14084.1904,-4087.2734L14084.1904,-4087.4535L14083.7601,-4087.3135L14083.4503,-4087.1468L14083.4106,-4086.6066L14083.2794,-4086.6066L14083.1604,-4086.6135L14082.5806,-4086.1599L14082.28,-4086.1668L14082.0099,-4085.3867L14081.6895,-4085.1532L14081.5201,-4085.1933L14080.9799,-4084.5001L14080.6305,-4084.2865L14080.4398,-4084.3132L14080.5206,-4084.1866L14079.5303,-4083.6533L14079.39,-4083.6533L14079.2007,-4083.6533L14078.36,-4083.3L14077.5406,-4083.26L14077.5208,-4083.3534L14077.1896,-4083.3534L14076.4694,-4083.4866L14076.12,-4083.5468L14075.56,-4083.0933L14075.4395,-4083.2333L14075.09,-4083.0467L14074.9496,-4083.0399"/>
<path content="BA010,1,1,JPN" xlink:title="BA010" d="M14091.2399,-4155.2532L14091.4597,-4155.5134L14091.2003,-4155.6L14090.9805,-4155.6198L14091.2399,-4155.2532"/>
<path content="BA010,1,1,JPN" xlink:title="BA010" d="M14325.683,-4191.5736L14325.7706,-4191.598L14325.8047,-4191.5201L14325.7487,-4191.5103L14325.683,-4191.5736"/>
<path content="BA010,1,1,JPN" xlink:title="BA010" d="M14062.5,-4180.7365L14062.6297,-4180.9132L14064.1098,-4181.7467L14064.6393,-4181.9065L14064.8804,-4181.8733L14065.0299,-4182.0202L14066.4307,-4182.2998L14069.0002,-4182.0465L14070.2606,-4181.5998L14070.7001,-4181.06L14071.0007,-4180.9265L14071.2601,-4180.8067L14071.3898,-4180.8998L14071.7194,-4180.6732L14071.6202,-4180.5801L14071.8307,-4180.3799L14071.64,-4180.0335L14071.73,-4180.0133L14071.8201,-4179.9801L14071.9696,-4179.9667L14071.9894,-4179.4666L14072.3999,-4179.5868L14072.7493,-4178.8933L14072.4304,-4178.8933L14072.4304,-4178.7334L14072.8195,-4178.7132L14072.7402,-4178.5599L14072.2504,-4178.4134L14072.3999,-4178.2734L14072.7097,-4178.1132L14072.4808,-4177.7935L14072.4594,-4177.4532L14072.2305,-4177.2999L14072.4197,-4177.2068L14071.5195,-4176.7334L14071.4493,-4176.9466L14071.5103,-4176.9867L14071.6904,-4177.2266L14071.4996,-4177.3335L14071.2097,-4177.0599L14071.0999,-4177.1L14071.2006,-4177.4532L14070.8694,-4177.5467L14070.6406,-4177.4666L14070.7397,-4177.8667L14071.1807,-4177.9533L14071.1197,-4178.0998L14070.9,-4178.0666L14070.8694,-4178.1601L14070.52,-4178.1067L14070.4391,-4178.54L14070.2301,-4178.5198L14070.2606,-4177.6268L14070.1202,-4177.3666L14069.8395,-4177.14L14069.8196,-4177.1L14069.6503,-4176.9333L14069.2902,-4176.3668L14069.4397,-4175.4002L14069.5999,-4175.3201L14070.1904,-4174.1402L14070.6894,-4174.1268L14071.7896,-4174.5735L14072.29,-4174.5869L14071.9101,-4175.28L14071.9101,-4175.3201L14072.02,-4175.4601L14072.11,-4175.4665L14072.2504,-4175.6866L14073.3704,-4176.7265L14074.6796,-4177.1465L14077.4704,-4177.5333L14079.8096,-4177.2469L14081.4804,-4176.72L14082.0694,-4176.4935L14083.7402,-4176.0136L14084.3307,-4176.12L14085.1395,-4176.0067L14085.6903,-4176.0532L14086.94,-4175.6065L14087.1796,-4175.4734L14087.7502,-4175.3201L14087.8098,-4175.3201L14088.2294,-4175.3201L14089.8605,-4174.8466L14093.0695,-4173.7469L14094.7403,-4172.6131L14095.1309,-4171.74L14095.34,-4171.5466L14095.8298,-4171.2868L14096.7804,-4171.0934L14099.5407,-4171.7735L14099.6796,-4171.7133L14099.8505,-4171.4802L14100.7401,-4171.6732L14101.6403,-4172.2935L14102.2202,-4172.2134L14102.3697,-4171.9799L14102.5192,-4172.0333L14102.6306,-4171.9002L14103.0792,-4171.9467L14103.2104,-4172.4735L14103.7704,-4172.8268L14104.4601,-4172.7001L14104.8492,-4172.6269L14105.3802,-4172.72L14105.13,-4173.2601L14105.5191,-4173.6134L14106.0303,-4173.6866L14106.2805,-4173.8998L14106.7795,-4173.8869L14106.9595,-4174.1001L14107.4692,-4174.2668L14107.8094,-4174.7734L14107.8201,-4175.2602L14107.8506,-4175.3201L14108.3405,-4176.0399L14108.6502,-4175.9998L14109.23,-4176.3733L14109.3597,-4176.3733L14109.2102,-4176.7868L14109.5505,-4176.9402L14109.8999,-4177.5734L14111.2503,-4178.6865L14112.1796,-4178.8933L14113.3804,-4178.8532L14113.3194,-4178.6469L14113.7894,-4178.3867L14114.9399,-4178.5198L14115.7898,-4178.5801L14116.4597,-4179.3201L14117.3904,-4179.66L14117.9199,-4179.9534L14118.6401,-4180.2532L14118.6905,-4180.8132L14118.6005,-4181.1134L14118.4494,-4181.44L14118.4296,-4181.6734L14118.2495,-4181.8466L14118.0695,-4181.8466L14117.63,-4182.1468L14117.0593,-4182.0465L14116.1392,-4182.5066L14115.4602,-4182.8335L14114.7095,-4183.2199L14114.5096,-4183.6533L14114.4592,-4184.8534L14115.0497,-4185.2066L14114.8193,-4185.54L14114.1403,-4185.8067L14113.7802,-4185.9268L14113.4399,-4185.8868L14112.6694,-4186.3132L14112.3093,-4186.48L14112.1796,-4186.48L14112.03,-4186.4735L14111.7294,-4186.6402L14111.5997,-4187.0399L14110.9406,-4187.4599L14109.7,-4187.8933L14109.5505,-4187.9601L14108.2596,-4188.3266L14107.3898,-4188.8L14107.0694,-4188.8065L14106.8497,-4188.7798L14105.8701,-4189.0667L14105.6503,-4189.0598L14105.3894,-4189.2265L14105.2307,-4189.2136L14104.3701,-4189.4066L14103.1296,-4189.5332L14102.6703,-4189.3665L14102.4399,-4189.4066L14102.3697,-4189.2265L14101.7593,-4189.3799L14101.7197,-4189.4402L14101.1795,-4189.4333L14100.1495,-4189.9067L14099.6796,-4190.0269L14098.8205,-4190.4133L14098.4894,-4190.5869L14098.32,-4190.58L14095.8801,-4191.7999L14095.7092,-4191.9868L14094.96,-4193.42L14095.05,-4193.7401L14094.6503,-4193.5001L14094.5694,-4193.5799L14094.1406,-4193.5131L14093.3701,-4194.4L14093.2907,-4195.2667L14092.6193,-4196.1201L14091.89,-4196.7266L14091.4001,-4197.1199L14090.9195,-4197.9198L14090.8096,-4198.46L14089.2197,-4199.7467L14088.5193,-4200.0668L14087.9898,-4200.3201L14087.8906,-4200.5932L14087.1796,-4200.8202L14086.7996,-4200.7999L14086.5005,-4201.0132L14086.0794,-4201.1799L14084.9396,-4201.7136L14083.6502,-4202.6867L14082.6599,-4203.2265"/>
<path content="BA010,1,1,JPN" xlink:title="BA010" d="M14313.6398,-4202.66L14314.1006,-4202.1198L14314.1907,-4201.86L14314.2899,-4201.9402L14314.7003,-4201.6468L14315.2206,-4200.8533L14315.7608,-4200.3201L14316.0202,-4199.8535L14316.2003,-4199.2134L14316.4307,-4198.3135L14317.5705,-4197.6532L14318.0099,-4197.2866L14318.4097,-4196.7533L14319.0796,-4196.5668L14319.5007,-4196.3001L14319.78,-4195.7798L14320.5795,-4195.5265L14320.8298,-4195.4933L14321.1197,-4195.2465L14321.6095,-4195.1801L14321.6995,-4194.8601L14322.11,-4194.7468L14322.4304,-4194.2131L14322.9996,-4193.9201L14324.2004,-4192.6399L14324.3805,-4192.5201L14324.5804,-4192.5865L14324.6796,-4192.5999L14325.0198,-4192.5533L14324.6796,-4192.8799L14324.5407,-4193.5131L14324.1898,-4194.4599L14324.2798,-4195.2999L14324.6796,-4197.2466L14325.9598,-4200.3201L14327.5406,-4202.24L14328.1006,-4202.4666L14328.4897,-4202.4467L14328.5797,-4202.6665L14328.7598,-4202.7802L14329.0802,-4203.0464L14328.83,-4203.3798L14329.3396,-4203.9799L14329.48,-4204.3468L14329.7897,-4204.3064L14329.6799,-4204.4266L14330.04,-4204.4132L14330.0705,-4204.3934L14331.0608,-4204.8267L14330.8899,-4205.1399L14331.2408,-4205.5199L14331.1005,-4206.0268L14331.1996,-4206.0665L14331.2607,-4206.3732L14330.9006,-4207.2067L14330.8899,-4208.1066L14331.16,-4208.6533L14331.5994,-4209.6066L14331.9504,-4210.9467L14332.3196,-4211.7664L14331.7001,-4212.1799L14332.3395,-4214.9601L14332.5897,-4215.2733L14332.3303,-4215.7066L14332.4707,-4216.0732L14333.0505,-4216.9865L14333.2993,-4217.4866L14333.4503,-4217.9733L14333.5205,-4218.6733L14333.6105,-4219.0598L14333.3496,-4219.4L14333.5693,-4219.9467L14333.5693,-4220.2667L14332.1106,-4220.9934L14331.9702,-4221.64L14332.0404,-4222.5067L14331.5903,-4222.9599L14331.4804,-4223.6866L14330.8395,-4224.5731L14331.0699,-4225.3201L14331.0303,-4226.1467L14331.4301,-4226.8734L14332.2296,-4228.5732L14332.5806,-4228.8933L14332.6096,-4229.1534L14332.2403,-4228.7601L14332.1106,-4228.9532L14332.0709,-4229.0066L14332.0099,-4229.1267L14332.2098,-4229.2465L14332.1701,-4229.3198L14332.0999,-4229.6467L14332.1594,-4229.8L14332.7896,-4229.6333"/>
<path content="BA010,1,1,JPN" xlink:title="BA010" d="M14082.6599,-4203.2265L14082.0801,-4203.6266L14081.72,-4204.0932L14081.2897,-4204.7867L14081.0699,-4205.2467L14080.3894,-4205.74L14080.3299,-4207.3734L14080.1895,-4207.7534L14079.4098,-4207.5867L14078.6697,-4207.9399L14077.3895,-4208.6533L14076.7502,-4209.8068L14076.03,-4211.7065L14074.6796,-4212.0266L14073.7106,-4212.3734L14072.2504,-4213.2198L14071.3303,-4213.8L14070.6894,-4213.9065L14069.0399,-4212.6999L14068.8599,-4212.6667L14068.6996,-4212.7266L14068.4097,-4212.6133L14065.9698,-4212.9398L14064.5401,-4212.4931L14062.8403,-4211.9801L14062.5,-4211.8529M14062.5,-4258.1452L14064.27,-4258.6533L14064.7705,-4258.6933L14064.7903,-4258.6533L14065.0406,-4258.5934L14065.2695,-4258.6533L14066.4902,-4258.7799L14067.9108,-4258.7734L14069.8502,-4258.68L14069.8593,-4258.6533L14070.0302,-4258.6533L14070.0897,-4258.6533L14070.9595,-4258.3866L14071.1197,-4258.1268L14071.2204,-4257.46L14071.6599,-4257.5935L14072.4396,-4257.42L14072.5906,-4257.2533L14073.41,-4256.7734L14074.2599,-4256.06L14074.6796,-4255.7735L14075.65,-4255.3665L14077.4399,-4253.6934L14077.7008,-4253.3134L14077.5208,-4253.1334L14077.7298,-4252.8866L14077.3193,-4253.0334L14077.6001,-4252.7332L14077.2202,-4252.24L14077.3499,-4252.1133L14077.5101,-4252.0935L14077.8503,-4251.9066L14077.6306,-4251.9135L14077.6398,-4251.7864L14077.8793,-4251.7666L14078.1601,-4251.9733L14078.6499,-4251.86L14078.6102,-4251.4L14078.0502,-4251.7067L14078.1006,-4251.54L14077.9495,-4251.4133L14078.2394,-4250.3334L14078.2303,-4250.3201L14078.0807,-4250L14078.6896,-4250.2266L14080.1895,-4249.9401L14080.7693,-4249.3732L14080.8899,-4249.1734L14081.2103,-4249.0002L14081.9702,-4248.7L14083.8898,-4247.0734L14085.4202,-4246.7335L14085.8505,-4246.5534L14086.3907,-4246.5733L14087.1796,-4246.0934L14088.8504,-4243.8999L14090.0101,-4241.9865L14090.6906,-4239.2265L14090.8493,-4238.0199L14091.0095,-4237.7068L14091.5405,-4237.3199L14091.7297,-4237.22L14091.7496,-4236.9801L14092.4301,-4236.8999L14092.9092,-4236.7134L14093.0298,-4236.7268L14093.5593,-4236.5334L14093.7195,-4236.8332L14094.0399,-4236.7401L14093.9499,-4236.5334L14094.6793,-4236.3667L14095.43,-4236.0802L14097.11,-4235.8398L14097.2107,-4235.6266L14097.6807,-4235.8467L14098.0804,-4235.7864L14098.2605,-4235.92L14098.1903,-4235.7132L14098.7198,-4235.5267L14098.5504,-4235.3867L14097.6395,-4235.3268L14097.7005,-4234.94L14099.0295,-4234.9731L14099.6796,-4235.0601L14100.3708,-4235.0735L14100.8102,-4234.8267L14099.6796,-4234.66L14098.0804,-4234.3735L14098.2208,-4233.6533L14098.2895,-4233.3866L14098.7305,-4233.2932L14098.5107,-4232.9334L14098.2605,-4233.0799L14098.4695,-4232.7534L14097.9706,-4232.8667L14098.1598,-4232.4398L14097.9706,-4232.42L14097.8897,-4232.6599L14097.6593,-4232.6065L14097.6501,-4232.4268L14097.29,-4232.5066L14097.3404,-4232.7732L14097.2107,-4232.7934L14097.0795,-4232.8201L14097.1497,-4233.4667L14097.0001,-4233.5133L14096.8903,-4233.3534L14096.7407,-4233.4068L14096.8704,-4233.6533L14096.6995,-4233.72L14096.6705,-4233.6533L14096.6095,-4233.5335L14096.4996,-4233.6533L14096.4203,-4233.9401L14096.2601,-4233.6533L14096.1395,-4233.6533L14095.9396,-4234.0534L14096.17,-4234.1801L14096.0098,-4234.3201L14095.7001,-4234.0935L14095.6406,-4234.2999L14095.5704,-4234.4799L14095.2805,-4234.3933L14095.3201,-4234.4734L14095.2103,-4234.5798L14095.1202,-4234.8068L14094.22,-4234.7198L14094.2307,-4234.0866L14093.9301,-4234.1202L14093.6295,-4234.0935L14093.4906,-4234.1331L14093.5806,-4233.9401L14093.1396,-4233.8001L14093.1,-4233.6533L14094.1498,-4232.5668L14094.2307,-4232.3135L14094.3207,-4232.0999L14094.8303,-4231.7867L14095.0592,-4231.8466L14095.1904,-4231.8733L14096.2296,-4231.6265L14096.5103,-4231.5464L14096.8796,-4231.3732L14096.7896,-4231.0734L14096.9894,-4230.8132L14097.58,-4230.9132L14097.2794,-4230.6599L14097.6303,-4230.7068L14098.23,-4230.8201L14098.7,-4230.5401L14099.1196,-4230.3799L14099.6796,-4230.1731L14099.6902,-4230.1865L14099.6796,-4230.1998L14099.6506,-4230.2467L14099.6796,-4230.2532L14100.1602,-4230.1998L14100.3601,-4230.32L14100.8301,-4230.6L14100.9705,-4230.5798L14101.0406,-4231.0532L14100.7996,-4231.3133L14101.1795,-4231.8398L14101.86,-4232.8068L14102.7298,-4233.6533L14103.2806,-4233.8066L14103.3905,-4233.6533L14103.5492,-4233.6533L14103.3203,-4233.9802L14104.5197,-4235.1131L14105.4794,-4235.2665L14105.4901,-4235.2867L14105.2994,-4235.8067L14109.2896,-4239.6465L14110.3824,-4240.438L14112.1796,-4241.74L14112.5,-4241.9865L14115.9302,-4244.2265L14116.3498,-4244.2131L14116.6595,-4244.0399L14117.9176,-4244.7331L14118.9804,-4245.3201L14119.2596,-4245.2801L14120.1492,-4245.3598L14120.7993,-4245.5399L14124.6796,-4248.0465L14128.1998,-4250.3201L14131.9702,-4252.52L14132.2601,-4252.3933L14132.3898,-4252.4735L14132.2296,-4252.6066L14135.08,-4254.2999L14137.1796,-4255.36L14141.8594,-4257.5134L14144.6198,-4258.6533L14149.6796,-4260.4L14153.7292,-4261.4933L14160.2295,-4262.6934L14161.1404,-4262.7266L14161.4197,-4262.6469L14161.4395,-4262.4199L14161.7706,-4262.4332L14161.7203,-4262.8864L14161.5402,-4262.8735L14161.5295,-4262.9868L14161.8698,-4263.0066L14162.1796,-4262.7666L14162.1796,-4262.8864L14162.3093,-4262.9066L14162.1796,-4262.9532L14162.1796,-4263.06L14162.4802,-4263.1065L14162.5198,-4263.6066L14162.1796,-4264.1533L14162.1796,-4264.2334L14162.5702,-4264.4867L14163.0798,-4263.7066L14166.5405,-4264.7865L14166.3605,-4265.1001L14166.6107,-4265.1733L14166.8396,-4264.8865L14169.5999,-4265.8066L14169.8593,-4265.3133L14169.1101,-4265.0665L14168.7195,-4265.1867L14167.3996,-4264.6935L14167.3904,-4264.5199L14166.8198,-4264.3333L14166.6107,-4264.4264L14164.0793,-4263.4731L14163.8794,-4263.34L14164.1098,-4263.2732L14163.7802,-4263.2L14163.1302,-4262.8601L14167.2897,-4263.0867L14167.4194,-4262.8468L14170.4498,-4262.8799L14173.7305,-4262.4199L14174.6796,-4262.2868L14179.9606,-4261.3068L14180.0903,-4261.0733L14179.7501,-4260.3401L14179.9393,-4260.2932L14180.1498,-4260.2333L14180.7404,-4260.8467L14180.7495,-4260.8601L14180.7602,-4260.8665L14181.0806,-4261.1198L14181.5796,-4260.8799L14181.5598,-4260.8532L14181.7398,-4260.7601L14181.9702,-4260.5267L14181.7001,-4260.2135L14181.81,-4260.1601L14182.3303,-4260.6068L14187.1796,-4259.0267L14187.7502,-4258.7334L14188.0096,-4258.6533L14189.9597,-4257.7934L14191.9495,-4255.7266L14193.5196,-4255.2532L14194.0399,-4254.9999L14194.0994,-4254.7401L14195.5704,-4253.8933L14195.5994,-4253.8265L14196.6095,-4252.8534L14198.0194,-4251.7799L14198.5901,-4251.4133L14199.6796,-4250.9865L14200.9003,-4250.5466L14200.9705,-4250.5535L14200.9308,-4250.3532L14200.9308,-4250.3201L14200.8606,-4250.2266L14201.2405,-4250.14L14201.8906,-4249.5602L14202.0203,-4249.2867L14202.6505,-4248.7934L14202.9297,-4248.46L14205.5893,-4248.0598L14207.1396,-4247.8268L14207.5806,-4247.2443L14212.1796,-4246.8868L14215.3503,-4246.3799L14217.5507,-4245.6734L14219.5801,-4244.7399L14220.7306,-4243.8198L14220.8801,-4243.3132L14220.7199,-4243.24L14222.1603,-4242.5266L14222.2702,-4242.3332L14222.4899,-4241.9865L14222.7005,-4241.7267L14224.5193,-4240.7001L14224.6796,-4240.5533L14227.1606,-4238.5864L14227.7298,-4238.0001L14227.7695,-4237.7464L14227.7802,-4237.7201L14229.8096,-4236.5467L14230.3299,-4236.1866L14232.0999,-4235.4935L14233.49,-4234.5531L14235.91,-4233.6533L14236.7294,-4232.84L14237.1796,-4232.5668L14237.1796,-4232.5401L14237.1796,-4232.4932L14238.6398,-4231.9065L14240.3198,-4231.2664L14240.8096,-4230.9532L14242.8406,-4230.9067L14244.6503,-4230.4066L14245.2301,-4229.9667L14245.4803,-4229.3934L14247.3495,-4227.8866L14247.5296,-4227.7401L14247.7997,-4227.4601L14248.4604,-4227.1332L14249.6796,-4226.6201L14250.09,-4226.7864L14250.9293,-4226.72L14254.0802,-4225.3201L14255.9906,-4224.7932L14257.3593,-4224.5602L14258.5602,-4224.3534L14260.73,-4223.2201L14261.7004,-4222.5933L14262.1796,-4222.5399L14263.6002,-4221.8933L14264.18,-4221.3531L14264.9796,-4220.94L14266.1697,-4219.9867L14266.04,-4219.8265L14266.5207,-4219.6533L14267.3401,-4219.1868L14268.5699,-4219.2867L14269.5694,-4219.0067L14269.9799,-4218.6531L14272.2595,-4218.5398L14273.5992,-4217.7532L14274.6796,-4217.7265L14276.21,-4217.4667L14276.6602,-4216.9865L14276.8692,-4216.5867L14277.0996,-4216.7332L14277.1301,-4216.5401L14277.33,-4216.2201L14277.3499,-4216.1934L14278.92,-4215.6399L14280.8899,-4214.6534L14281.7795,-4214.1533L14283.0399,-4214.1068L14285.0708,-4213.9866L14286.3205,-4213.6868L14286.4502,-4213.6665L14287.0499,-4213.4464L14287.1796,-4213.4399L14287.8601,-4213.3533L14289.7507,-4213.3068L14290.5197,-4213.2801L14291.0599,-4213.2599L14291.4093,-4212.9333L14291.3193,-4212.8067L14291.8396,-4212.7666L14292.0197,-4212.4332L14291.9495,-4212.2002L14292.1799,-4212.1399L14292.2394,-4212.4466L14293.0695,-4212.6465L14294.3695,-4212.4065L14296.4905,-4211.9202L14296.7804,-4211.5398L14298.0301,-4210.2066L14299.0006,-4209.98L14299.6796,-4209.5264L14299.9298,-4209.3132L14300.2197,-4208.6933L14300.2502,-4208.6533L14301.0101,-4208.2401L14301.1307,-4208.1398L14302.0294,-4207.9998L14303.3905,-4207.6065L14306.6696,-4206.3068L14306.8298,-4206.16L14307.4799,-4205.7133L14307.8796,-4205.6866L14309.7,-4204.9801L14310.2997,-4204.4998L14310.7895,-4204.2332L14311.4197,-4203.9799L14312.1796,-4203.4466L14313.6398,-4202.66"/>
<path content="BA010,1,1,JPN" xlink:title="BA010" d="M14486.5799,-4294.7132L14487.1796,-4294.9333L14487.6907,-4295.4533L14488.0493,-4295.76L14487.5595,-4296.1601L14487.3398,-4296.4931L14487.1796,-4296.0464L14486.6699,-4295.1733L14486.5799,-4294.7132"/>
<path content="BA010,1,1,JPN" xlink:title="BA010" d="M14509.7595,-4304.5734L14510.3699,-4304.8866L14510.8002,-4304.8599L14511.6302,-4305.1334L14511.6898,-4305.3265L14511.3495,-4305.32L14510.4706,-4305.3333L14509.9899,-4305.2601L14509.79,-4305.2868L14509.6207,-4304.7199L14509.7595,-4304.5734"/>
<path content="BA010,1,1,JPN" xlink:title="BA010" d="M14512.7197,-4306.8333L14513.7207,-4306.9267L14515.1398,-4307.0866L14514.9902,-4307.3399L14515.5701,-4307.7801L14516.2796,-4307.7934L14517.3599,-4307.6801L14516.5405,-4307.9933L14516.3803,-4308.4534L14515.6708,-4308.4667L14515.48,-4308.4732L14514.3494,-4308.2001L14514.1907,-4308.2066L14513.7695,-4308.1532L14513.4796,-4308.3199L14512.97,-4308.2798L14512.7304,-4308.2932L14512.5595,-4308.0734L14512.1796,-4308.1467L14512.0499,-4308.1665L14512.0499,-4307.98L14512.1796,-4307.9533L14512.97,-4307.4398L14512.8998,-4307.0534L14512.7197,-4306.8333"/>
<path content="BA010,1,1,JPN" xlink:title="BA010" d="M14559.9899,-4320.5799L14560.2295,-4320.8599L14560.9695,-4321.1868L14560.8795,-4321.4867L14560.3592,-4321.5801L14560.4507,-4321.8666L14559.9594,-4321.8334L14559.8495,-4322.2332L14559.7595,-4322.1931L14559.6298,-4322.2069L14558.8303,-4321.4333L14559.0393,-4321.2265L14558.9005,-4320.76L14559.9899,-4320.5799"/>
<path content="BA010,1,1,JPN" xlink:title="BA010" d="M14560.8597,-4322.4998L14561.4395,-4322.6665L14560.8292,-4323.1201L14560.7803,-4323.1201L14560.4095,-4322.9198L14560.2798,-4322.8466L14560.8597,-4322.4998"/>
<path content="BA010,3,1,JPN" xlink:title="BA010" d="M14137.851,-4328.0125L14137.1796,-4327.42L14137.0499,-4327.2331"/>
<path content="BA010,1,1,JPN" xlink:title="BA010" d="M14566.98,-4329.8199L14567.4301,-4329.9667L14567.1906,-4330.0331L14566.9998,-4329.8599L14566.98,-4329.8199"/>
<path content="BA010,1,1,JPN" xlink:title="BA010" d="M14137.0499,-4327.2331L14135.3104,-4325.3201L14131.5598,-4321.9334L14130.9204,-4321.6202L14130.9296,-4321.5199L14130.5298,-4321.9398L14129.9194,-4321.5332L14130.0903,-4321.4001L14130.5008,-4321.6667L14130.7205,-4321.36L14130.1697,-4320.8599L14130.0003,-4320.9866L14129.6005,-4320.7134L14129.4296,-4320.8332L14129.6097,-4321.1067L14129.1,-4320.6001L14129.01,-4320.0066L14128.8605,-4319.8132L14128.3203,-4319.6266L14128.0701,-4319.7865L14127.4796,-4319.0468L14124.6796,-4317.6132L14123.2803,-4316.9868L14118.1793,-4315.02L14116.1697,-4314.4867L14114.7003,-4315.02L14113.8794,-4315.3267L14112.7502,-4315.5266L14112.1796,-4315.8199L14110.9604,-4316.4398L14110.0693,-4316.8068L14109.3506,-4316.9868L14108.5693,-4317.2401L14107.3807,-4317.4L14106.9199,-4317.6933L14105.4108,-4318.0466L14104.5303,-4318.0466L14103.9703,-4318.0332L14103.5202,-4318.3998L14103.3005,-4318.3933L14103.1006,-4318.4399L14103.0701,-4318.2999L14102.3605,-4318.56L14102.6596,-4318.8065L14101.9394,-4319.22L14101.3794,-4319.1135L14101.12,-4319.2398L14101.5991,-4319.4401L14101.4801,-4319.6201L14101.0498,-4319.4801L14100.7401,-4319.7468L14101.0193,-4319.9532L14100.65,-4319.9001L14100.9003,-4320.1332L14100.769,-4320.1466L14100.5295,-4320.1L14100.8102,-4320.3667L14100.2197,-4320.1866L14100.1999,-4320.4731L14100.6699,-4320.5868L14100.5096,-4320.7268L14100.2502,-4320.7535L14100.5997,-4321.1067L14101.2604,-4321.2334L14101.5106,-4321.4199L14101.4496,-4321.9067L14102.0905,-4322.4731L14102.0004,-4322.6467L14101.68,-4322.6002L14101.4893,-4323.1731L14101.3992,-4323.4001L14101.6098,-4323.7L14101.6693,-4323.9601L14101.4694,-4323.9735L14101.1093,-4323.9468L14100.8804,-4323.9868L14100.4791,-4323.9601L14099.6796,-4323.9933L14099.1699,-4323.9868L14098.2498,-4323.9933L14096.8307,-4323.6534L14096.0999,-4323.28L14094.9997,-4322.8199L14094.8395,-4322.8333L14094.1803,-4322.7932L14093.8995,-4322.8268L14093.8309,-4322.6467L14093.6203,-4322.6398L14093.2907,-4322.6467L14092.7093,-4322.7867L14092.1799,-4322.3133L14091.9495,-4322.4602L14092.0197,-4322.0268L14092.1906,-4321.5866L14091.4001,-4321.1666L14091.0507,-4321.1868L14090.1596,-4321.1597L14089.9307,-4321.1666L14089.5294,-4321.1735L14089.1998,-4320.8935L14088.6902,-4320.8935L14087.4603,-4320.6333L14087.2894,-4320.6265L14087.1796,-4320.6467L14086.7401,-4320.9534L14086.5494,-4321.6267L14086.1603,-4321.8601L14086.0596,-4321.6732L14085.4797,-4321.7201L14085.4599,-4321.6064L14085.7498,-4321.4668L14085.9695,-4321.22L14085.9695,-4321.0068L14085.3806,-4321.2734L14085.5194,-4320.8668L14085.7605,-4320.3667L14084.8709,-4319.9268L14084.4894,-4320.1332L14084.4498,-4319.8601L14081.4896,-4319.4664L14081.0593,-4319.4664L14080.8899,-4319.4733L14080.5496,-4319.4664L14079.2099,-4319.54L14078.7994,-4320.0531L14078.5706,-4319.9532L14077.6306,-4320.4067L14077.4704,-4321.0464L14077.5406,-4321.0865L14077.6199,-4321.4066L14077.8305,-4321.4001L14077.7008,-4322.58L14077.2507,-4322.8065L14077.1103,-4322.6398L14076.1597,-4322.7467L14075.8697,-4322.7135L14075.5295,-4323.0331L14075.4196,-4323.14L14075.0595,-4323.0732L14074.6796,-4323.4531L14074.6796,-4323.5065L14074.6796,-4323.6332L14074.5102,-4323.6267L14074.3698,-4323.6332L14074.0295,-4323.4402L14073.5504,-4323.74L14073.5397,-4324.3134L14073.3704,-4324.2931L14072.76,-4324.2733L14071.8399,-4325.0534L14071.3394,-4324.9065L14071.0602,-4324.8867L14070.9106,-4325.3201L14070.8694,-4325.3201L14070.0699,-4325.1469L14069.8807,-4325.2602L14069.6106,-4325.1534L14069.2001,-4325.3201L14068.6996,-4325.5798L14068.2007,-4325.5733L14066.7496,-4325.9464L14065.4205,-4326.2402L14064.1098,-4326.6998L14063.8306,-4327.2934L14063.6703,-4327.6398L14063.8794,-4327.6531L14064.5599,-4328.3333L14064.5493,-4328.5934L14064.18,-4328.7266L14063.53,-4328.6865L14063.0402,-4329.5601L14063.0096,-4329.8332L14062.5793,-4329.5601L14062.5,-4329.5852"/>
<path content="BA010,1,1,JPN" xlink:title="BA010" d="M14599.8398,-4336.2133L14600.8499,-4336.2865L14601.8692,-4337.5866L14602.2202,-4337.5866L14602.1896,-4337.9334L14601.9104,-4337.8799L14601.5503,-4337.8868L14601.6998,-4337.6934L14601.1902,-4337.4466L14600.9399,-4337.5L14600.4196,-4337.2665L14600.0595,-4337.4802L14599.9191,-4337.36L14599.6796,-4337.5465L14599.4995,-4337.5668L14598.7793,-4337.3734L14598.4802,-4336.6135L14598.9105,-4336.6467L14599.2706,-4336.7867L14599.6796,-4336.5665L14599.8398,-4336.2133"/>
<path content="BA010,1,1,JPN" xlink:title="BA010" d="M14589.09,-4338.1535L14589.3295,-4338.3202L14589.36,-4338.48L14589.18,-4338.48L14588.8504,-4338.5334L14588.9603,-4338.2198L14589.09,-4338.1535"/>
<path content="BA010,1,1,JPN" xlink:title="BA010" d="M14332.7896,-4229.6333L14332.8201,-4229.8332L14332.5302,-4229.9999L14332.6294,-4230.1933L14332.2708,-4230.4333L14332.4707,-4230.8868L14334.0698,-4230.1666L14334.1202,-4230.2601L14332.4707,-4231.0131L14332.8705,-4231.3999L14332.84,-4231.4934L14333.9706,-4233.6533L14335.2097,-4235.4866L14336.1694,-4237.36L14337.1796,-4238.9332L14338.9099,-4241.5798L14339.2105,-4241.9865L14343.28,-4247.5735L14345.7596,-4250.3201L14349.6796,-4254.3533L14352.5101,-4257.3864L14353.8193,-4258.6533L14359.7702,-4264.1533L14362.1796,-4266.1331L14363.1805,-4266.9868L14364.1907,-4267.6132L14365.9195,-4269.0399L14367.54,-4270.0668L14369.1406,-4271.3531L14374.6506,-4275.3201L14374.6796,-4275.3468L14376.3809,-4276.3866L14379.7104,-4278.9532L14380.7907,-4279.6333L14382.1106,-4280.6667L14382.0496,-4280.74L14382.2098,-4280.7266L14382.2205,-4280.5267L14382.4005,-4280.8998L14386.0596,-4283.6533L14386.9995,-4284.2999L14387.1796,-4284.4131L14391.9601,-4287.4802L14399.6796,-4291.6401L14400,-4291.7961L14400.3906,-4291.9868L14400.5493,-4292.0799L14404.8996,-4294.1601L14406.7703,-4294.7666L14407.1106,-4294.9131L14408.2397,-4295.3732L14409.1507,-4295.3201L14410.9802,-4296.0335L14412.1796,-4296.7602L14416.89,-4298.4734L14421.9696,-4299.6666L14422.9095,-4299.8135L14424.6796,-4300.0267L14427.0096,-4300.3201L14431.4194,-4300.5669L14431.8008,-4300.6332L14432.1793,-4300.4932L14432.1396,-4300.3201L14432.1198,-4300.2266L14432.4707,-4300.1534L14432.3807,-4299.7868L14432.6996,-4299.7467L14432.9697,-4300.1331L14433.1894,-4300.0999L14432.9498,-4299.7067L14433.5205,-4299.6334L14433.7692,-4300.0336L14434.0897,-4299.9866L14433.7997,-4299.5201L14434.1293,-4299.4598L14434.52,-4299.7334L14434.8602,-4299.6201L14435.1807,-4299.8264L14435.4095,-4299.7398L14435.9604,-4299.9668L14436.0794,-4299.7131L14435.7803,-4299.3999L14435.8002,-4299.3866L14436.0397,-4299.6334L14436.2396,-4299.4534L14436.4593,-4299.4267L14436.2503,-4299.1798L14436.1099,-4299.3L14436.0901,-4299.2867L14436.3495,-4299.0734L14436.2396,-4298.7934L14436.4807,-4298.74L14436.6501,-4299.0932L14436.9507,-4298.8533L14436.8195,-4298.5199L14436.9598,-4298.4936L14437.1307,-4298.6866L14437.1796,-4298.6732L14437.1796,-4298.46L14437.1796,-4298.1201L14437.1902,-4297.6398L14437.1796,-4297.6269L14436.9202,-4297.4667L14436.7706,-4297.5533L14436.5799,-4297.2267L14436.5402,-4297.1802L14436.8103,-4297.1066L14437.1201,-4296.9002L14437.1796,-4296.9067L14437.97,-4296.8399L14438.6703,-4297.0001L14439.4302,-4296.7533L14439.7507,-4296.1601L14440.9393,-4295.7867L14442.0502,-4295.4998L14442.6697,-4295.2999L14444.0796,-4295.2133L14444.5206,-4294.8666L14444.7708,-4294.6934L14444.7403,-4294.6201L14445.1508,-4294.4466L14446.5195,-4294.4931L14447.6395,-4294.2867L14448.6496,-4294.0201L14449.6796,-4294.2131L14450.4395,-4294.4599L14451.7395,-4294.9066L14452.3697,-4294.9734L14452.9907,-4295.1931L14455.3406,-4294.8067L14457.3303,-4295.0932L14458.5098,-4294.9532L14459.1202,-4295.0134L14460.5103,-4295.1L14462.1796,-4295.1668L14463.2202,-4295.1466L14464.1998,-4294.6667L14466.0995,-4294.6533L14466.7999,-4294.4199L14467.6102,-4293.9667L14470.9305,-4293.6932L14471.2601,-4293.6001L14471.7407,-4293.6401L14474.6307,-4293.42L14474.6796,-4293.4265L14475.8606,-4293.3998L14477.4704,-4293.3601L14478.6194,-4293.6733L14478.54,-4293.8999L14476.8906,-4294.7266L14476.2207,-4295.0531L14476.0696,-4295.0466L14475.5508,-4295.5532L14474.8596,-4295.6398L14474.6796,-4295.8134L14473.97,-4296.8132L14472.5693,-4297.4068L14472.2702,-4298.0133L14472.8302,-4299.7265L14473.1094,-4300.1598L14473.23,-4300.3201L14474.6796,-4302.4532L14476.9104,-4304.3201L14477.8107,-4305.0598L14478.1906,-4305.4199L14480.0095,-4305.9067L14482.2098,-4305.9601L14484.4803,-4305.36L14484.52,-4305.1998L14485.4202,-4304.9667L14485.2402,-4304.6135L14484.9197,-4304.6135L14484.7107,-4304.4468L14484.3506,-4304.5532L14484.7107,-4304.3201L14484.1904,-4303.8933L14484.3094,-4303.7666L14483.58,-4303.2333L14483.8608,-4302.2999L14483.3694,-4301.4465L14484.1599,-4301.6468L14485.26,-4301.4L14485.9695,-4300.6668L14485.5896,-4300.3201L14485.6094,-4300.1934L14487.1796,-4299.6265L14487.6007,-4299.1467L14487.6694,-4298.6801L14488.4506,-4298.5401L14489.0701,-4298.7534L14489.6103,-4298.8533L14490.6097,-4298.9868L14491.0599,-4298.6668L14492.0395,-4298.6L14492.4194,-4298.1468L14492.8207,-4299.0799L14493.0893,-4299.0131L14493.9804,-4298.7667L14494.1406,-4298.6866L14494.2596,-4298.6866L14494.4199,-4298.5268L14494.9005,-4298.4268L14495.1202,-4298.3868L14495.4208,-4298.56L14495.7596,-4298.5199L14496.1899,-4298.1201L14496.6202,-4298.2334L14496.8597,-4298.1731L14497.1695,-4298.2666L14497.3297,-4298.2265L14497.4396,-4298.2201L14497.9294,-4298.4467L14498.3307,-4298.8731L14498.5703,-4298.7999L14498.7503,-4299.0398L14498.9593,-4299.0002L14499.6201,-4299.44L14499.6796,-4299.4202L14500.2594,-4299.1798L14500.6302,-4299.4202L14500.8408,-4299.3599L14500.9399,-4299.3935L14502.4094,-4299.9733L14502.6398,-4300.3201L14502.8,-4300.7133L14503.1006,-4301.2531L14502.5894,-4301.4801L14502.5101,-4302.2202L14502.8595,-4302.3335L14503.0594,-4302.42L14503.1799,-4302.9667L14504.2603,-4303.0933L14505.1193,-4303.1399L14505.3894,-4303.5065L14506.25,-4304.0798L14507.7698,-4304.3598L14508.1894,-4304.4399L14508.7692,-4304.6799L14508.8196,-4305.18L14508.5693,-4305.5267L14508.96,-4305.9334L14508.8699,-4306.72L14509.9594,-4307.7801L14511.1008,-4308.0933L14511.8195,-4308.1333L14511.5601,-4308.6533L14511.0306,-4310.36L14511.5097,-4312.3264L14512.1796,-4313.1866L14512.9898,-4313.5132L14513.2294,-4313.4666L14514.6606,-4314.5332L14517.1494,-4315.1001L14517.2897,-4314.8731L14517.4301,-4314.9734L14517.9306,-4314.7598L14518.0405,-4314.4199L14518.4998,-4314.2735L14518.4998,-4314.0266L14520.3003,-4313.6665L14521.4294,-4313.8866L14521.8796,-4314.0331L14522.0901,-4314.22L14522.6395,-4314.32L14522.9004,-4314.6L14523.0804,-4314.6866L14523.2391,-4314.9868L14523.5199,-4315.0467L14523.9594,-4315.3198L14524.6796,-4315.8401L14528.2593,-4316.9868L14529.8004,-4317.3267L14530.1193,-4317.1467L14530.7495,-4317.1532L14531.2302,-4316.9868L14531.2897,-4316.8331L14531.9,-4316.8266L14532.0801,-4316.9868L14532.4402,-4317.1398L14532.6797,-4317.4133L14533.1802,-4317.3267L14533.4305,-4317.54L14533.8394,-4317.4667L14534.3094,-4317.9466L14535.2402,-4317.9733L14535.3302,-4317.8398L14536.0107,-4317.9798L14536.7401,-4318.24L14537.1796,-4318.2865L14540.6097,-4318.6199L14543.4097,-4318.7733L14547.02,-4318.94L14548.6893,-4318.7332L14549.6796,-4318.2533L14550.4105,-4317.3599L14550.4593,-4316.9868L14549.6796,-4316.7732L14549.4492,-4316.6664L14549.6796,-4316.5466L14549.6796,-4316.1598L14549.6796,-4315.9332L14552.1805,-4316.6134L14552.42,-4316.8465L14552.2507,-4316.9868L14552.3499,-4317.1066L14552.3193,-4317.2798L14552.42,-4317.4599L14552.15,-4317.5068L14551.7105,-4317.7868L14551.3702,-4317.8333L14550.9003,-4317.86L14550.9903,-4318.0332L14550.8499,-4318.1999L14551.0605,-4318.28L14550.6607,-4318.4334L14551.2299,-4319.0201L14551.7502,-4319.0266L14551.9806,-4318.7L14552.5406,-4318.8198L14553.0304,-4318.6867L14552.98,-4318.8L14553.36,-4318.9999L14553.5492,-4319.54L14553.4103,-4319.9131L14553.0594,-4319.8799L14552.8793,-4320.4731L14553.5599,-4321.2399L14554.8904,-4321.4401L14555.7602,-4322.0333L14555.3192,-4322.1802L14554.9606,-4322.7867L14555.5099,-4323.8869L14555.7297,-4325.3201L14556.16,-4326.4935L14556.4499,-4326.96L14556.6605,-4327.3865L14556.5094,-4327.7L14556.8802,-4327.8599L14556.6803,-4328.1532L14556.9397,-4328.26L14557.0297,-4328.4199L14557.1594,-4328.3798L14558.1299,-4328.5999L14558.1894,-4328.6533L14558.2199,-4328.68L14558.5098,-4328.5332L14558.9905,-4327.8332L14559.4894,-4328.3001L14559.8694,-4328.7731L14559.9899,-4329.1931L14559.8404,-4329.5799L14560.4294,-4329.4731L14560.7697,-4329.8L14560.9695,-4329.8332L14561.1603,-4330.2399L14560.8292,-4330.5801L14561.1404,-4331.1333L14562.1796,-4331.6601L14564.65,-4332.2334L14566.3895,-4332.0801L14567.4194,-4331.5468L14567.3904,-4331.3599L14567.9108,-4331.2599L14568.0695,-4331.6067L14567.7399,-4332.04L14568.8095,-4332.7332L14569.8898,-4332.9468L14570.2698,-4332.8934L14570.8496,-4333.5865L14571.1395,-4333.5133L14571.5302,-4333.6266L14571.55,-4333.6533L14572.0901,-4333.6933L14572.0993,-4333.6533L14572.0993,-4333.6334L14572.2702,-4333.6468L14572.2794,-4333.6533L14572.29,-4333.6868L14572.3907,-4333.6868L14572.4197,-4333.6533L14572.9202,-4333.2001L14572.9202,-4332.9334L14573.1506,-4332.9533L14573.8007,-4333.5201L14573.79,-4333.6533L14573.9105,-4333.96L14574.6796,-4333.9199L14575.0198,-4333.7265L14575.3098,-4333.8066L14575.5905,-4333.8001L14575.5203,-4333.9802L14576.1902,-4334.3334L14577.3193,-4334.7401L14577.4796,-4334.8598L14578.3401,-4335.4134L14578.6499,-4335.5736L14578.9993,-4335.9535L14579.1,-4336.1866L14579.8996,-4336.3468L14580.3802,-4336.3667L14581.3004,-4337.0335L14581.1203,-4337.1136L14580.7907,-4337.0667L14580.8594,-4337.9002L14581.2195,-4338.2267L14581.4102,-4338.3202L14581.6101,-4338.3068L14581.7398,-4338.6131L14581.5994,-4338.6131L14580.7404,-4338.8668L14580.3802,-4338.8535L14580.22,-4338.8599L14578.7598,-4338.7199L14578.5202,-4338.7066L14578.2501,-4338.9801L14578.0502,-4338.9866L14577.6001,-4338.9732L14577.4094,-4339.1933L14577.4002,-4339.3803L14576.59,-4339.1602L14576.12,-4339.4001L14576.2299,-4339.6599L14576.2894,-4339.9532L14575.7004,-4339.9735L14575.2594,-4339.7335L14575.0702,-4339.4333L14574.7696,-4339.2265L14575.1999,-4339.2399L14575.1404,-4339.04L14574.7406,-4339.0469L14574.6796,-4339.0202L14574.1104,-4339.1666L14573.6404,-4339.08L14573.5504,-4339.3932L14573.41,-4339.4199L14573.1796,-4339.1132L14573.1506,-4338.8931L14572.6608,-4338.5735L14572.4808,-4338.5735L14572.1405,-4338.3934L14569.9799,-4338.4735L14569.6503,-4338.4735L14569.0094,-4338.6665L14568.0801,-4338.9465L14567.9001,-4338.9465L14567.72,-4338.94L14567.5797,-4338.9465L14567.3996,-4338.76L14566.9205,-4339.0732L14566.98,-4339.2601L14566.8396,-4339.2467L14565.9195,-4339.2735L14565.0696,-4339.1399L14564.7598,-4338.7268L14564.5798,-4338.4869L14564.4196,-4338.5067L14564.1296,-4338.0867L14563.8992,-4337.6331L14563.7802,-4337.3135L14562.7396,-4336.8935L14562.3596,-4336.38L14562.1796,-4336.3468L14561.4899,-4336.0733L14560.8902,-4335.7601L14560.2005,-4335.5801L14560.0204,-4335.5598L14559.8099,-4335.5667L14558.6807,-4334.8068L14558.3298,-4334.6802L14558.6105,-4334.4399L14558.7204,-4334.1068L14558.2596,-4333.9466L14557.9895,-4334.0668L14557.7896,-4333.7532L14557.8903,-4333.6533L14557.46,-4333.2535L14556.7902,-4332.9334L14556.4102,-4332.6199L14555.9402,-4332.6668L14555.0903,-4332.4799L14555.4993,-4332.1201L14555.0507,-4331.72L14553.6606,-4331.1665L14553.3798,-4331.34L14553.2394,-4331.4465L14552.6505,-4330.8601L14552.3407,-4330.6866L14552.3895,-4330.5134L14552.4902,-4330.1067L14551.8204,-4329.7333L14551.68,-4329.7401L14551.2405,-4329.3133L14550.7004,-4328.64L14550.5905,-4328.2932L14550.4593,-4327.8999L14549.6796,-4327.2667L14549.2096,-4326.6933"/>
<path content="BA010,1,1,JPN" xlink:title="BA010" d="M14615.2298,-4340.7799L14615.8691,-4341.0934L14615.6204,-4341.3334L14614.9796,-4340.8333L14615.2298,-4340.7799"/>
<path content="BA010,1,1,JPN" xlink:title="BA010" d="M14616.3803,-4341.3601L14616.7206,-4341.8865L14616.8198,-4341.9868L14616.8304,-4342.4133L14616.3803,-4342.2333L14616.3193,-4341.9868L14615.4999,-4341.5932L14616.3803,-4341.3601"/>
<path content="BA010,1,1,JPN" xlink:title="BA010" d="M14604.3701,-4340.2668L14605.1392,-4340.6136L14605.2704,-4341.0732L14605.4306,-4341.14L14605.6396,-4341.4867L14606.3004,-4341.7599L14607.2403,-4341.9334L14607.6401,-4341.7866L14607.8003,-4341.6065L14607.9895,-4341.8201L14608.0795,-4341.46L14608.0795,-4341.3532L14608.7601,-4341.6668L14608.5693,-4341.9868L14608.9493,-4342.4599L14609.3307,-4342.5934L14608.9905,-4342.8734L14609.9899,-4343.2133L14610.7101,-4343.2999L14610.8902,-4343.1602L14610.8597,-4343.66L14611.0092,-4343.8732L14610.8398,-4343.8866L14610.7193,-4343.8599L14610.3394,-4344.1067L14610.1501,-4344.7132L14609.8602,-4344.96L14609.2499,-4344.5599L14609.0805,-4344.5599L14608.3801,-4344.4065L14608.5693,-4343.8732L14608.7402,-4343.6733L14608.67,-4342.7933L14608.0505,-4342.7265L14607.4905,-4342.8932L14606.9992,-4342.4599L14606.6605,-4342.5533L14606.5201,-4342.7135L14606.6101,-4343.2468L14606.8192,-4343.4399L14605.9692,-4343.4067L14605.7999,-4343.2533L14605.8502,-4342.5068L14605.8197,-4342.2401L14605.69,-4342.2401L14605.04,-4342.7067L14604.8798,-4342.9935L14604.4601,-4343.1068L14604.0405,-4342.3199L14604.0192,-4341.9868L14603.6499,-4341.7999L14603.1799,-4341.9868L14602.9404,-4341.9868L14602.6596,-4341.3601L14602.5803,-4340.9L14603.5706,-4340.72L14603.7292,-4340.3999L14603.9993,-4340.4133L14604.3701,-4340.2668"/>
<path content="BA010,1,1,JPN" xlink:title="BA010" d="M14589.8193,-4341.6935L14590.3397,-4341.7L14590.4297,-4341.9868L14590.86,-4342.5934L14591.9601,-4342.7467L14592.4698,-4342.4068L14593.0801,-4342.2867L14594.9493,-4342.3866L14595.3598,-4342.5335L14594.7403,-4342.96L14594.5694,-4343.0599L14594.2505,-4343.3201L14594.2291,-4343.5398L14593.5806,-4343.8332L14593.3197,-4343.8133L14593.4204,-4344.7334L14593.7103,-4345.0401L14594.6106,-4345.1534L14594.8502,-4345.5933L14594.5206,-4345.5467L14594.31,-4345.8065L14594.0903,-4345.7199L14593.19,-4345.76L14592.5507,-4345.5002L14592.4393,-4345.1801L14592.1707,-4344.8868L14590.0406,-4344.8734L14589.1296,-4345.1866L14589.1205,-4345.3598L14589.0396,-4345.6135L14588.8,-4346.0533L14588.6902,-4346.2334L14588.4903,-4346.2734L14588.4796,-4345.9667L14587.3703,-4345.66L14587.1796,-4345.6867L14586.8301,-4345.7798L14586.0596,-4345.6467L14586.2305,-4345.2335L14586.5601,-4345.1065L14586.9202,-4345.0535L14586.9797,-4344.9066L14587.1796,-4345.0268L14587.8006,-4345.1801L14588.2706,-4345.1267L14588.5605,-4344.7533L14588.8596,-4344.7399L14589.1602,-4344.8132L14589.6606,-4344.2535L14589.5996,-4343.5398L14589.4699,-4343.0668L14588.8702,-4342.9535L14589.0701,-4342.6868L14589.0793,-4342.3599L14589.5599,-4342.8001L14589.9704,-4342.5999L14589.9307,-4342.3L14590.1199,-4342.2401L14590.1901,-4341.9868L14589.6301,-4341.8266L14589.8193,-4341.6935"/>
<path content="BA010,1,1,JPN" xlink:title="BA010" d="M14611.6394,-4345.8733L14612.1506,-4346.1601L14612.1796,-4346.2334L14613.0203,-4346.3665L14613.8306,-4346.8334L14614.9597,-4347.2466L14616.4291,-4347.5067L14616.4291,-4347.8733L14616.8594,-4347.76L14617.6895,-4347.9267L14618.1,-4348.1133L14618.3197,-4348.32L14618.5898,-4348.3002L14618.9102,-4348.5931L14619.0002,-4348.7267L14619.4504,-4348.9399L14619.0903,-4349.0932L14619.7098,-4349.5399L14619.2505,-4349.6799L14618.7103,-4349.6403L14618.0405,-4350.2735L14618.0405,-4350.3201L14618.0405,-4350.4868L14618.6005,-4351.5865L14620.3491,-4353.0602L14620.8191,-4353.4203L14619.2398,-4353.5L14617.3798,-4353.3798L14615.77,-4353.7132L14614.36,-4354.6665L14614.1495,-4354.9133L14613.9496,-4354.8931L14613.1393,-4354.8931L14612.4893,-4354.3934L14612.1796,-4354.1866L14610.6598,-4354.0066L14608.7402,-4353.3001L14608.5007,-4353.2932L14607.9498,-4353.3066L14606.0699,-4352.3201L14607.3898,-4352.1801L14607.93,-4351.68L14608.3801,-4350.9399L14608.8104,-4350.3201L14609.1797,-4350.0069L14609.7198,-4349.9535L14610.6705,-4349.1531L14610.8795,-4347.8065L14611.5601,-4347.3801L14611.8805,-4347.0066L14611.6394,-4345.8733"/>
<path content="BA010,1,1,JPN" xlink:title="BA010" d="M14532.84,-4356.6666L14532.9895,-4356.8932L14532.8094,-4356.8932L14532.3105,-4356.8798L14531.7596,-4356.72L14532.84,-4356.6666"/>
<path content="BA010,1,1,JPN" xlink:title="BA010" d="M14532.4402,-4356.9202L14532.8796,-4357.04L14532.9498,-4357.0599L14532.9605,-4357.1735L14532.4295,-4356.9801L14532.4402,-4356.9202"/>
<path content="BA010,1,1,JPN" xlink:title="BA010" d="M14524.0601,-4357.0599L14524.6796,-4357.2399L14525.1099,-4357.42L14524.91,-4357.4268L14524.6796,-4357.3933L14524.2203,-4357.1735L14523.4299,-4357.2334L14524.0601,-4357.0599"/>
<path content="BA010,1,1,JPN" xlink:title="BA010" d="M14147.5998,-4383.4534L14147.1497,-4383.4599L14146.55,-4383.4599L14146.2799,-4383.4667L14146.0495,-4383.4534L14145.7794,-4383.6533L14145.7397,-4383.6533L14145.0897,-4383.2268L14144.3497,-4382.8735L14144.0002,-4382.88L14143.1793,-4382.5268L14142.5293,-4382.2533L14141.04,-4381.4735L14139.74,-4381.1066L14139.1205,-4380.74L14138.9206,-4380.7133L14138.7894,-4380.7201L14137.1902,-4379.1267L14137.1796,-4378.9932L14136.9904,-4378.5534L14137.1201,-4378.3535L14136.9598,-4378.3535L14137.1002,-4377.8866L14136.8103,-4377.7466L14136.6196,-4377.7733L14136.85,-4377.5333L14136.4502,-4377.0802L14136.0306,-4376.0666L14135.4401,-4375.8533L14134.9792,-4375.3201L14134.3201,-4374.3401L14134.05,-4374.1734L14133.9996,-4374.1402L14133.7906,-4373.8266L14133.7097,-4373.3799L14132.9895,-4372.5265L14132.9895,-4371.46L14133.0994,-4370.9198L14133.3298,-4370.6532L14133.5297,-4370.1401L14133.8898,-4369.2467L14133.8806,-4368.7332L14134.9304,-4366.9868L14135.2493,-4365.0734L14135.1501,-4364.4867L14136.2106,-4363.0867L14136.4197,-4362.4134L14136.5295,-4361.9331L14137.1796,-4361.4666L14138.3499,-4360.4801L14138.4598,-4359.7534L14138.62,-4358.6533L14137.5595,-4355.78L14137.1796,-4355.4802L14136.2198,-4354.0401L14136.2106,-4353.9665L14136.1801,-4353.7266L14136.1099,-4352.9533L14135.9604,-4352.7134L14135.8597,-4351.9466L14135.91,-4351.8665L14136.4792,-4351.0868L14137.1796,-4350.3265L14137.1994,-4350.3201L14137.3093,-4349.4999L14138.8397,-4348.0469L14138.9801,-4347.8466L14139.18,-4347.8401L14139.3799,-4347.2401L14139.7797,-4346.8933L14140.1001,-4346.1735L14141.0706,-4344.8868L14142.8604,-4341.9868L14143.1702,-4338.9465L14142.6102,-4337.3936L14142.6804,-4336.38L14142.8802,-4336.0001L14142.3996,-4334.9735L14142.2394,-4334.0801L14142.3294,-4333.6533L14142.3904,-4332.8865L14141.1499,-4331.4934L14140.6906,-4330.8533L14138.3499,-4328.4534L14137.851,-4328.0125"/>
<path content="BA010,1,1,JPN" xlink:title="BA010" d="M14549.2096,-4326.6933L14548.8297,-4326.6933L14548.6206,-4327.2533L14548.0896,-4327.4132L14547.7107,-4327.2484L14547.1134,-4327.3705L14546.7499,-4327.5867L14543.2999,-4328.5667L14540.8096,-4329.3266L14540.2298,-4329.3331L14538.8306,-4329.2332L14538.5605,-4329.24L14538.71,-4329.4933L14538.8596,-4329.7401L14538.9297,-4329.8401L14537.7197,-4330.8865L14537.1796,-4331.1665L14533.5297,-4333.5335L14533.3801,-4333.6533L14530.8594,-4335.9734L14529.1306,-4338.4933L14527.5299,-4340.9668L14527.0401,-4341.9868L14526.3596,-4344.1666L14525.8392,-4346.8868L14524.8993,-4349.4736L14524.7299,-4350.3201L14524.6796,-4350.7668L14524.6796,-4351.3733L14524.6796,-4352.1999L14524.1501,-4353.1933L14523.88,-4353.5198L14523.3002,-4354.7001L14522.2504,-4356.0398L14522.2595,-4356.8798L14521.6904,-4357.6668L14521.5103,-4357.7801L14521.6904,-4358.3534L14522.0703,-4358.5999L14522.0795,-4358.6533L14521.6003,-4359.0534L14521.4401,-4359.0733L14521.17,-4359.0267L14519.6594,-4360.0468L14519.7006,-4360.6201L14519.9493,-4360.8665L14520.2194,-4361.0466L14520.0699,-4361.8332L14519.9265,-4362.0176L14519.6753,-4362.5059L14520.5704,-4362.4134L14522.6196,-4362.0335L14522.6898,-4361.8332L14522.8607,-4361.7332L14523.1598,-4361.5067L14524.6399,-4361.4468L14524.6796,-4361.3998L14526.6602,-4361.0134L14526.8204,-4360.6201L14525.6592,-4359.8335L14524.6796,-4359.3933L14524.5102,-4359.3132L14524.6796,-4359.3201L14526.4008,-4360.0132L14526.4297,-4360.0868L14527.24,-4360.2001L14527.2598,-4360.0334L14526.2894,-4359.6733L14526.7792,-4359.5001L14527.0798,-4359.3601L14528.3295,-4360.08L14528.7399,-4360.2001L14528.0304,-4359.2133L14529.6997,-4359.5867L14530.3207,-4359.5932L14530.22,-4359.9133L14530.6992,-4359.9735L14530.9204,-4360.0132L14531.3293,-4359.7935L14531.3705,-4359.4734L14532.0801,-4359.2068L14532.6401,-4359.2667L14532.8506,-4358.8066L14532.9407,-4358.8734L14533.1894,-4358.9802L14533.2504,-4358.8066L14533.0704,-4358.6533L14532.9605,-4358.5533L14532.6904,-4358.6533L14532.6294,-4358.6533L14532.2205,-4358.5598L14531.4804,-4358.58L14531.3904,-4358.3134L14531.3995,-4358.1734L14531.81,-4358.1932L14531.8008,-4358.3134L14531.8893,-4358.4335L14532.0694,-4358.3267L14532.1106,-4358.2733L14532.4493,-4358.0666L14531.9702,-4357.8999L14531.9199,-4357.8865L14532.1198,-4357.6733L14532.6706,-4358.0002L14533.2993,-4358.1734L14533.4396,-4358.2401L14533.8104,-4358.0868L14533.9096,-4358.1135L14533.9798,-4357.2266L14533.11,-4356.8333L14533.0704,-4356.5266L14532.7896,-4356.3934L14531.8298,-4356.5933L14531.5704,-4356.7402L14530.4306,-4356.5468L14530.4398,-4355.9868L14529.8004,-4356.0734L14529.3503,-4356.0535L14528.1296,-4356.2733L14530.1804,-4355.4668L14530.1697,-4355.3867L14529.3503,-4355.6198L14529.2892,-4355.5134L14529.2404,-4355.4199L14529.0894,-4355.1998L14530.2399,-4355.1201L14531.1088,-4355.0636L14532.3988,-4355.0906L14533.0288,-4355.1836L14533.7088,-4355.4776L14534.52,-4355.8666L14535.0403,-4356.6601L14534.1492,-4358.6533L14532.5897,-4359.7L14529.39,-4360.6602L14524.6796,-4361.5601L14524.6399,-4361.5868L14520.2606,-4362.8334L14514.65,-4364.6465L14513.7405,-4365.3332L14513.3301,-4366.3601L14513.1699,-4366.5932L14513.4506,-4366.7198L14513.3102,-4366.7866L14513.2507,-4366.8934L14513.0905,-4366.8468L14512.97,-4366.9868L14512.9196,-4367.2867L14512.1796,-4368.6066L14509.6603,-4372.0333L14509.2697,-4372.7535L14507.4295,-4374.3267L14506.8405,-4375.3201L14506.4102,-4376.8665L14506.1798,-4378.0869L14506.0501,-4378.7468L14506.3004,-4379.2999L14506.2698,-4379.3266L14506.4499,-4379.6398L14506.2302,-4380.7533L14507.4204,-4381.5933L14508.4198,-4382.18L14509.14,-4383.6533L14509.9701,-4386.1534L14509.4498,-4387.5401L14509.7702,-4388.0402L14509.5398,-4389.2601L14510.0296,-4389.8067L14510.8597,-4390.86L14511.3907,-4391.9399L14511.4792,-4391.9868L14511.9705,-4392.4866L14512.1796,-4393.3201L14512.7106,-4393.9934L14513.0905,-4395.1134L14513.7405,-4395.94L14514.4699,-4396.9933L14515.3305,-4397.4934L14515.7303,-4398.4333L14516.4993,-4399.02L14516.7908,-4399.1199L14517.9092,-4400.1598L14517.9901,-4400.3201L14518.4097,-4401.0201L14519.1299,-4401.54L14519.6304,-4401.9867L14519.8593,-4402.0199L14519.8105,-4401.96L14519.8807,-4402.0199L14520.0806,-4402.1599L14520.0897,-4402.1L14519.9799,-4402L14519.9997,-4401.9867L14520.1492,-4402.1267L14520.1096,-4402.3335L14520.3705,-4402.6134L14520.4803,-4402.4666L14520.4193,-4402.28L14520.4391,-4402.28L14520.5002,-4402.4666L14520.5505,-4402.5066L14520.3995,-4402.7664L14520.8908,-4403.1132L14521.3806,-4403.3867L14521.7697,-4403.5801L14522.3404,-4403.8601L14523.97,-4405.8735L14524.1196,-4406.5933L14524.5804,-4406.9267L14524.2706,-4408.1467L14524.2493,-4408.6533L14524.1592,-4409.1534L14524.6796,-4410.4267L14525.1007,-4411.0332L14525.6302,-4412.5599L14526.5106,-4413.9133L14528.83,-4415.3069L14529.4296,-4415.9199L14529.9301,-4416.5466L14530.4993,-4416.7599L14530.7693,-4416.9865L14531.2393,-4417.8333L14531.8497,-4418.3933L14532.2403,-4419.0132L14533.0597,-4419.3401L14533.3298,-4419.9467L14533.5403,-4420.94L14534.61,-4422.1931L14534.8801,-4422.4533L14534.7305,-4423.0469L14535.0494,-4423.3868L14534.9197,-4424.3866L14536.1298,-4425.1469L14536.2595,-4425.3201L14536.2793,-4425.6668L14536.5402,-4425.7L14536.6806,-4425.9201L14536.7706,-4427.1069L14536.7294,-4427.1999L14536.1298,-4427.4399L14536.0596,-4427.7866L14535.73,-4428.1601L14535.4996,-4428.68L14535.4202,-4429.06L14534.9792,-4429.62L14534.9701,-4430.1399L14534.79,-4430.6934L14534.7992,-4431.2599L14535.2692,-4431.7001L14534.9792,-4432.2132L14534.2804,-4432.6065L14534.2697,-4433.5464L14534.3597,-4433.6533L14534.5795,-4433.9333L14533.8501,-4434.1999L14533.3099,-4434.5867L14533.1299,-4434.5467L14533.0002,-4434.5798L14532.6797,-4434.3067L14532.5394,-4434.3266L14532.2495,-4434.0668L14532.1503,-4433.86L14532.0404,-4433.8665L14532.0099,-4433.6533L14531.9397,-4433.5201L14531.6696,-4433.5464L14531.5002,-4433.2798L14531.3797,-4432.9998L14531.1096,-4432.5531L14530.9296,-4432.5668L14530.9204,-4432.1335L14531.0898,-4431.9065L14530.4306,-4431.1264L14529.57,-4430.8998L14529.3106,-4431.0665L14528.7598,-4430.3398L14528.9703,-4430.0133L14528.4103,-4429.6532L14528.2593,-4429.6867L14528.0899,-4429.0134L14527.1698,-4428.3466L14526.7807,-4428.3466L14526.2299,-4427.7199L14525.9598,-4427.42L14525.8499,-4427.0267L14524.6796,-4426.3268L14524.0204,-4425.9998L14523.8998,-4425.7668L14523.3994,-4425.5402L14523.0896,-4425.3201L14522.6898,-4424.8867L14522.5891,-4424.2802L14522.29,-4423.9799L14522.2107,-4423.56L14521.6797,-4422.9465L14520.7108,-4421.2868L14519.2001,-4419.5599L14517.0303,-4418.6668L14516.0995,-4418.2865L14515.95,-4418.2934L14515.4404,-4417.9268L14514.4302,-4417.3332L14513.6002,-4417.0334L14513.5605,-4416.9865L14513.0905,-4416.5001L14512.7106,-4416.5932L14512.3993,-4416.3265L14512.1796,-4416.4398L14512.1796,-4416.2731L14512.2803,-4416.04L14512.1796,-4415.9332L14511.0092,-4415.1001L14509.8297,-4414.8666L14509.0805,-4414.0266L14508.6594,-4413.8332L14508.5205,-4413.8535L14508.3206,-4413.6467L14508.02,-4413.6868L14507.7393,-4413.1599L14507.5195,-4412.9398L14507.3502,-4412.9002L14507.2205,-4412.9066L14506.9901,-4412.4599L14506.7795,-4412.4866L14506.6391,-4412.4668L14506.3904,-4412.4733L14506.1707,-4412.2932L14505.4199,-4411.8465L14505.1697,-4411.6798L14504.2999,-4411.0268L14503.9902,-4410.8002L14503.7399,-4410.8067L14503.54,-4410.8067L14503.0792,-4410.6731L14502.89,-4410.68L14502.71,-4410.54L14502.6199,-4410.4134L14502.4292,-4410.4465L14502.2903,-4410.4733L14502.0004,-4410.12L14501.9699,-4409.9998L14501.77,-4409.9865L14501.59,-4410.0399L14501.4191,-4409.7466L14501.3306,-4409.8202L14501.0498,-4409.6066L14500.9506,-4408.9001L14501.0696,-4408.6533L14500.3799,-4407.8201L14499.8093,-4407.4131L14499.6796,-4407.3601L14499.2706,-4407.6065L14499.1699,-4407.6866L14499.0601,-4407.5001L14499.3301,-4406.9801L14498.3704,-4406.7001L14497.85,-4406.9065L14497.6196,-4406.2401L14496.7499,-4405.7266L14496.6003,-4405.7331L14496.0709,-4405.4733L14495.8694,-4404.8931L14495.3598,-4404.6135L14494.4,-4403.9665L14494.0704,-4404.1466L14493.84,-4404.3865L14493.66,-4404.3865L14493.1198,-4403.5133L14492.2699,-4401.7735L14491.7404,-4401.1932L14490.8707,-4400.4066L14490.7196,-4400.3201L14489.0594,-4399.3202L14488.4598,-4398.9334L14487.8204,-4398.4467L14487.1796,-4398.1869L14486.1908,-4397.7669L14485.35,-4397.4602L14484.9808,-4397.4602L14483.5907,-4395.9999L14483.5403,-4395.2332L14480.6198,-4394.2802L14479.5303,-4393.1999L14474.6796,-4392.3866L14471.0892,-4391.9933L14470.9198,-4391.9868L14470.7108,-4391.9868L14470.7001,-4391.9868L14470.6299,-4391.9868L14466.7694,-4391.88L14466.5894,-4391.9868L14466.3895,-4391.9868L14466.0004,-4391.7934L14465.1794,-4391.7934L14464.2807,-4391.7801L14463.9603,-4391.7866L14462.8906,-4391.7732"/>
<path content="BA010,1,1,JPN" xlink:title="BA010" d="M14129.48,-4441.3799L14132.0801,-4441.7L14132.2495,-4441.9868L14133.0093,-4442.5934L14133.5907,-4443.1934L14133.0902,-4443.8065L14132.8201,-4443.9331L14132.8598,-4444.1933L14132.7393,-4444.3531L14131.4697,-4443.4933L14130.6,-4442.7933L14130.0797,-4442.4465L14129.8599,-4442.4599L14129.4403,-4442.1867L14129.2999,-4441.9868L14129.48,-4441.3799"/>
<path content="BA010,1,1,JPN" xlink:title="BA010" d="M14142.4103,-4442.8867L14142.7704,-4443.0065L14142.9001,-4443.6531L14142.7994,-4444.2333L14142.9398,-4444.3733L14142.9504,-4444.3867L14142.9398,-4444.4L14142.5903,-4444.7399L14140.9302,-4444.4466L14140.2603,-4444.1467L14140.1108,-4444.1334L14139.9399,-4444.22L14139.7903,-4444.2066L14139.6698,-4444.2532L14138.4796,-4443.7L14138.2004,-4443.3933L14138.6795,-4443.1267L14139.27,-4443.14L14141.2003,-4442.9466L14142.4103,-4442.8867"/>
<path content="BA010,1,1,JPN" xlink:title="BA010" d="M14554.48,-4365.8268L14555.3207,-4366.7336L14555.4398,-4366.9868L14555.6,-4367.7933L14555.8701,-4369.7533L14556.0898,-4371.9002L14556.9305,-4375.3201L14557.3303,-4377.7401L14557.1396,-4380.5599L14557.5897,-4383.1066L14557.6202,-4383.6533L14557.7103,-4384.5467L14558.1802,-4385.6201L14559.3307,-4387.0735L14560.1303,-4387.1666L14560.3699,-4386.8801L14560.5606,-4386.8935L14561.2106,-4387.8735L14561.9003,-4388.5468L14562.1796,-4388.5468L14562.59,-4388.4201L14562.9303,-4388.9668L14564.1098,-4390.3599L14565.3793,-4390.9534L14566.4795,-4391.0934L14567.6208,-4390.5132L14568.5104,-4390.9466L14569.87,-4390.9931L14571.0495,-4391.1335L14571.8399,-4391.2399L14573.7595,-4391.9868L14574.6796,-4392.4068L14575.7599,-4392.6533L14576.9501,-4393.2598L14578.1097,-4393.2598L14577.9694,-4393.6134L14578.3401,-4394.4267L14579.0207,-4394.8868L14578.8101,-4395.2602L14578.9703,-4395.7199L14578.9795,-4395.7733L14579.2999,-4395.9L14578.7994,-4396.2334L14579.0802,-4397.9134L14579.8096,-4398.6134L14580.0598,-4399.2466L14580.6396,-4399.3267L14580.5008,-4399.7467L14580.78,-4400.3201L14581.1401,-4401.3931L14581.4407,-4401.7265L14582.7805,-4402.94L14584.2194,-4403.2932L14585.5103,-4403.0602L14585.4797,-4402.3132L14585.5606,-4402.1667L14586.5204,-4402.1534L14586.9095,-4402.2934L14587.1796,-4402.2736L14587.8494,-4402.1332L14587.4908,-4402.3533L14587.4695,-4402.52L14587.1796,-4402.6466L14586.5402,-4403.0266L14586.3708,-4405.32L14587.1796,-4407.0732L14587.7106,-4407.6L14588.06,-4407.4665L14588.1897,-4408.0265L14588.2401,-4408.4866L14588.15,-4408.6533L14588.6108,-4408.8867L14589.0198,-4409.0065L14589.1344,-4409.3866L14589.2105,-4409.6199L14589.7705,-4409.7534L14590.3198,-4409.5734L14590.4297,-4410.1532L14589.9506,-4410.5L14590.3793,-4411.5532L14590.95,-4412.3867L14591.4795,-4412.9066L14592.45,-4413.7268L14593.4402,-4414.4066L14594.0002,-4414.9067L14594.78,-4415.3801L14595.3995,-4415.4533L14595.8206,-4415.6467L14596.6003,-4415.34L14597.0795,-4415.7333L14597.2992,-4416.2266L14597.8607,-4416.6267L14598.2895,-4416.9865L14598.9105,-4417.2798L14599.6796,-4417.3L14600.1404,-4417.3935L14600.4303,-4417.26L14601.3992,-4417.4534L14602.3697,-4417.7132L14602.8107,-4417.9333L14602.8702,-4418.3868L14603.4805,-4418.5665L14604.1901,-4418.5867L14604.5792,-4418.3933L14604.7195,-4418.66L14604.4891,-4419.0868L14604.7104,-4419.3066L14605.1697,-4419.4267L14605.4901,-4419.4801L14605.4199,-4419.7468L14605.0003,-4419.7334L14604.9194,-4420.1733L14605.2505,-4420.6398L14605.3391,-4420.8134L14605.3101,-4421.2868L14606.9305,-4423.4665L14609.4894,-4425.3201L14611.5601,-4426.5202L14612.1796,-4426.5736L14613.2507,-4426.6731L14614.2303,-4426.6201L14614.6698,-4426.5331L14615.5197,-4426.7864L14616.1194,-4426.9867L14616.8701,-4427.2331L14618.2602,-4426.9268L14619.8502,-4427.0332L14620.4803,-4427.1866L14621.0602,-4427.28L14621.4005,-4427.2068L14622.3495,-4427.2865L14623.6603,-4427.1267L14624.4995,-4427.1465L14624.6796,-4427.0931L14625,-4427.2138M14625,-4444.6667L14625,-4444.6667L14624.8993,-4445.5868L14624.6796,-4445.6665L14624.0997,-4446.0598L14623.3597,-4447.3202L14622.5998,-4448.3067L14622.3404,-4448.4402L14622.2,-4448.5733L14621.8292,-4448.5466L14620.8496,-4449.0002L14619.5999,-4449.4469L14618.9697,-4450.3201L14618.6295,-4450.6866L14617.9703,-4450.6199L14617.0395,-4451.0468L14617.2104,-4451.4267L14617.4301,-4451.58L14617.1799,-4451.68L14616.6306,-4451.8066L14615.8295,-4451.2665L14615.7104,-4451.2798L14615.3595,-4451.3599L14614.9292,-4451.1799L14614.7095,-4451.3268L14614.3005,-4451.1932L14612.8998,-4450.9068L14612.3505,-4450.3201L14612.1796,-4450.2068L14610.6201,-4448.9868L14609.3002,-4448.3467L14608.0307,-4447.2267L14607.84,-4446.7068L14606.9702,-4444.68L14605.9998,-4443.3933L14605.3604,-4442.2001L14605.2795,-4441.9868L14604.3503,-4441.1468L14602.9694,-4440.0131L14602.7893,-4439.8666L14602.3407,-4439.0465L14601.59,-4438.7066L14601.1002,-4438.3732L14600.7294,-4438.1733L14600.9201,-4437.5134L14601.1002,-4437.1468L14600.3296,-4435.08L14600.1205,-4433.8867L14600.0702,-4433.6533L14599.6796,-4433.2733L14599.2401,-4432.4734L14597.7905,-4430.9734L14596.8903,-4430.22L14596.4203,-4429.6734L14595.3003,-4429.0798L14594.4199,-4427.9133L14594.2001,-4427.8801L14593.5806,-4427.8801L14590.4495,-4426.0799L14589.36,-4425.3201L14588.4506,-4424.6265L14587.1796,-4423.2933L14586.1496,-4422.1802L14585.4202,-4420.2L14583.2001,-4417.8398L14582.1701,-4416.9865L14581.2607,-4416.3467L14579.3396,-4415.2466L14579.0405,-4415.0665L14578.83,-4414.8735L14578.6896,-4414.3799L14577.33,-4413.1065L14576.9897,-4412.9467L14576.7807,-4412.6266L14576.4099,-4412.0735L14575.7706,-4411.6798L14575.2594,-4410.8932L14574.7299,-4410.5934L14574.6796,-4410.5865L14574.3698,-4410.3802L14574.2996,-4409.1267L14574.53,-4408.6533L14574.53,-4407.9468L14574.5804,-4407.5798L14574.6796,-4407.5333L14574.7342,-4406.4653L14574.7604,-4405.9933L14574.6796,-4405.9933L14574.4598,-4406.0066L14574.35,-4405.7735L14574.2203,-4405.5733L14574.2905,-4405.3734L14573.1201,-4404.5399L14571.6904,-4403.8601L14570.8496,-4403.5801L14570.2805,-4403.3932L14569.7205,-4403.4332L14569.4504,-4403.0869L14568.1396,-4402.6466L14567.5797,-4402.7267L14567.8101,-4402.1332L14568.0496,-4401.7265L14567.4301,-4401.16L14565.4999,-4400.4665L14565.1199,-4400.5135L14565.39,-4400.3201L14565.2802,-4399.9535L14564.6103,-4399.3599L14563.7207,-4399.0601L14562.8708,-4398.7934L14562.1796,-4398.2868L14561.2198,-4397.6868L14559.7702,-4397.2733L14559.3903,-4396.7667L14559.0103,-4395.3201L14557.8308,-4394.7334L14556.1005,-4394.5335L14554.9606,-4393.5867L14553.9993,-4393.1934L14553.7399,-4393.1999L14553.4607,-4392.8665L14553.4805,-4392.3466L14553.0396,-4392.0467L14552.7206,-4391.9868L14551.3107,-4391.42L14550.9705,-4391.2201L14550.7004,-4391.1068L14550.5295,-4391.1133L14549.8093,-4390.8535L14549.6796,-4390.8333L14548.41,-4390.4335L14546.5698,-4389.0934L14545.2499,-4387.22L14545.0195,-4386.5269L14544.8303,-4386.2133L14544.7403,-4385.6201L14543.84,-4384.9934L14541.4108,-4384.4734L14540.6906,-4384.2068L14540.2802,-4383.6533L14539.9506,-4382.9132L14540.4602,-4382.3135L14541.1102,-4381.9065L14541.5405,-4380.92L14542.4194,-4378.6201L14542.6895,-4377.4132L14541.8808,-4375.3201L14542.4301,-4373.3002L14543.4906,-4371.8868L14543.8995,-4371.9002L14544.7098,-4372.5002L14547.3411,-4372.8461L14547.6196,-4372.8802L14549.6796,-4373.3734L14552.5803,-4373.5332L14554.6494,-4373.1731L14554.9805,-4372.4869L14554.0894,-4369.5534L14553.6194,-4367.5865L14553.6301,-4366.9868L14553.7994,-4365.8733L14554.48,-4365.8268"/>
<path content="BA010,1,1,JPN" xlink:title="BA010" d="M14462.8906,-4391.7732L14462.1796,-4391.7866L14458.3694,-4391.9868L14455.4901,-4392.2466L14449.6796,-4392.8932L14440.6998,-4394.5133L14437.1796,-4395.4334L14436.3907,-4395.6665L14431.9199,-4397.2935L14429.8508,-4398.4268L14429.8096,-4399.0665L14430.0003,-4399.3069L14429.2801,-4399.9668L14428.9902,-4400.3201L14428.1998,-4401.0532L14428.2196,-4401.6201L14428.6301,-4401.6533L14428.9703,-4401.5266L14429.0802,-4401.68L14428.7201,-4402.0866L14428.8803,-4402.1267L14428.7094,-4402.2533L14428.45,-4402.1198L14428.0396,-4402.3067L14428.0502,-4402.4666L14427.9007,-4402.4799L14427.3697,-4402.4601L14426.03,-4403.5L14425.5798,-4404.06L14425.9201,-4404.9999L14426.1398,-4405.1468L14426.1795,-4405.8067L14425.2502,-4406.2534L14425.5493,-4407.0267L14425.3601,-4407.4734L14425.7797,-4408.6533L14425.2899,-4410.4534L14424.8795,-4411.2L14424.6796,-4411.3068L14424.2203,-4411.4201L14423.5596,-4410.7601L14421.4294,-4410.3134L14420.9702,-4410.3134L14420.7596,-4410.3065L14420.61,-4410.3065L14419.0308,-4410.6201L14418.9896,-4410.4733L14418.2693,-4410.6132L14412.8998,-4411.5398L14412.3093,-4411.6734L14412.1796,-4411.7134L14410.7407,-4412.1933L14410.4095,-4412.5534L14410.4004,-4412.5866L14410.0098,-4412.7266L14410.1791,-4412.9799L14409.7198,-4412.7533L14408.67,-4412.7602L14407.9102,-4412.4802L14407.6996,-4412.4668L14400,-4413.5162L14399.6796,-4413.5601L14390.0406,-4415.3999L14387.1796,-4416.0534L14383.5098,-4416.9865L14378.8895,-4418.0267L14378.5294,-4418.1133L14378.2898,-4418.3464L14377.7298,-4418.4799L14374.6796,-4419.3066L14365.2206,-4422.2198L14362.7304,-4423.0732L14362.6099,-4423.2468L14362.2696,-4423.1731L14362.1796,-4423.3467L14362.0102,-4423.3467L14356.0501,-4425.3201L14355.9708,-4425.3334L14349.6796,-4427.6199L14341.6901,-4430.88L14337.1796,-4433.3267L14336.7294,-4433.6533L14336.2396,-4434.2201L14336.5799,-4434.4002L14336.2701,-4434.6802L14336.0703,-4434.6668L14336.0397,-4434.8068L14336.2,-4434.9533L14336.1099,-4435.0533L14335.9802,-4435.0067L14335.8109,-4435.4069L14336.2808,-4435.5598L14336.5799,-4435.2135L14336.6409,-4435.2333L14336.0901,-4435.8799L14335.6598,-4436.2865L14335.4004,-4436.6333L14334.8907,-4437.1532L14333.3801,-4437.5866L14327.6794,-4440.1669L14324.6796,-4441.6199L14323.9807,-4441.9868L14322.9507,-4442.7265L14322.85,-4443.1335L14323.0804,-4443.3399L14322.5494,-4444.0266L14322.3007,-4444.1799L14322.0001,-4444.0266L14316.5604,-4446.6202L14312.5702,-4448.6332L14312.1796,-4448.8533L14310.1196,-4449.8734L14309.2499,-4450.3201L14306.3004,-4452.1599L14306.2302,-4452.7134L14306.4896,-4453.0933L14306.3995,-4453.1734L14306.2897,-4453.2867L14305.7602,-4452.8667L14305.6198,-4452.8667L14305.4794,-4452.8534L14304.5303,-4453.0933L14304.1306,-4453.4733L14303.5202,-4453.6533L14299.6796,-4455.7865L14297.6105,-4457.3734L14296.4203,-4458.6533L14296.2906,-4459.0599L14296.1594,-4459.0267L14295.3903,-4460.0067L14294.9005,-4460.2001L14294.6198,-4460.1933L14294.3497,-4460.5L14294.5007,-4460.5534L14294.3802,-4460.8933L14294.3405,-4460.9264L14294.3207,-4460.9467L14293.2404,-4461.6402L14293.2693,-4462.1933L14293.2602,-4462.5134L14292.9199,-4462.8067L14292.6605,-4462.9734L14292.1295,-4462.9066L14291.4001,-4463.3533L14289.7095,-4464.7202L14289.2105,-4465.3732L14288.0402,-4465.9801L14287.1796,-4466.2998L14286.6394,-4466.9868L14286.3403,-4467.4866L14286.0901,-4467.6933L14285.2295,-4467.9531L14284.2804,-4468.8068L14283.9096,-4468.94L14283.7006,-4469.2398L14283.2092,-4469.2268L14281.5994,-4470.52L14281.8695,-4470.9934L14281.72,-4471.0068L14281.4392,-4470.76L14281.2195,-4470.76L14280.0797,-4471.3333L14278.7796,-4472.4201L14278.1799,-4472.9198L14277.6199,-4473.2136L14277.3193,-4473.88L14276.1307,-4474.5735L14275.2792,-4475.3201L14274.6796,-4475.6668L14273.1293,-4476.8932L14271.9299,-4478.6133L14271.2006,-4479.2336L14270.1706,-4479.9801L14270.2103,-4480.3333L14270.1706,-4480.8334L14269.0002,-4481.7932L14268.4204,-4482.2533L14268.0405,-4483.1135L14267.4606,-4483.6334L14267.3203,-4483.6201L14267.0593,-4483.6533L14266.0004,-4484.1732L14264.7095,-4486.6001L14264.1403,-4487.2932L14263.9206,-4487.5401L14263.5895,-4487.8532L14263.5498,-4488.4933L14263.06,-4488.9999L14262.7594,-4488.9999L14262.4298,-4489.0934L14262.1796,-4489.1731L14260.4294,-4490.4598L14258.8806,-4491.9868L14258.5602,-4492.7399L14258.6304,-4493.4467L14258.5907,-4493.5398L14259.0698,-4494.0735L14258.0795,-4494.8067L14257.9605,-4495.6066L14258.5297,-4496.1666L14258.3206,-4496.2601L14258.0307,-4496.2601L14257.1198,-4496.7602L14256.7398,-4496.9799L14256.3599,-4497.8268L14255.6107,-4498.2533L14254.4495,-4498.7999L14254.57,-4498.9601L14254.2496,-4499.1333L14253.7903,-4499.9199L14253.8223,-4500L14253.8223,-4500M14168.2236,-4500L14168.2236,-4500L14172.3404,-4491.9868L14173.8998,-4488.0798L14173.8098,-4487.8933L14174.6796,-4486.0001L14175.5203,-4483.6533L14176.3596,-4480.88L14177.8305,-4475.3201L14178.3707,-4472.3267L14179.1504,-4466.9868L14179.2496,-4464.3665L14178.7399,-4458.6533L14177.9892,-4456.6334L14177.6505,-4456.6067L14177.4994,-4456.5533L14177.4399,-4456.6265L14176.7899,-4455.4733L14176.4099,-4453.4199L14176.4404,-4450.3201L14175.7202,-4445.7466L14174.7299,-4443.3998L14174.6796,-4443.28L14173.8495,-4441.9868L14172.5296,-4440.5399L14171.0205,-4439.2265L14170.7306,-4437.8334L14170.1096,-4437.1399L14170.2805,-4436.9667L14169.9493,-4437.0335L14169.6106,-4436.8801L14169.4702,-4436.9133L14168.4906,-4435.0468L14168.4006,-4434.8469L14167.9703,-4433.6533L14167.45,-4432.7332L14166.0294,-4431.6135L14165.5701,-4431.5533L14165.39,-4431.6265L14164.8895,-4431.5067L14164.8605,-4431.4999L14164.9399,-4429.1065L14165.6601,-4425.3201L14165.7806,-4423.9468L14165.5106,-4422.0867L14165.6708,-4420.9999L14165.8295,-4416.9865L14165.8005,-4415.8333L14165.6296,-4415.6532L14165.4205,-4415.5933L14165.3992,-4415.5869L14165.5792,-4412.9066L14166.2003,-4408.6533L14166.2796,-4403.7601L14166.1301,-4402.8801L14166.1896,-4401.72L14165.7898,-4400.3201L14165.1306,-4399.7734L14165.1596,-4399.4667L14164.65,-4397.86L14164.6896,-4397.6601L14164.2395,-4397.6135L14164.2105,-4397.2069L14164.6393,-4397.1466L14164.3494,-4396.4466L14164.2303,-4396.08L14164.3005,-4395.6535L14163.8306,-4395.4067L14163.9404,-4395.0733L14164.1205,-4395.1935L14164.1296,-4394.9398L14164.0396,-4394.9135L14164.1205,-4394.82L14164.6896,-4394.7533L14164.7705,-4394.4801L14163.7894,-4394.6598L14163.5406,-4394.9532L14163.5498,-4395.2267L14163.2706,-4395.2465L14163.2706,-4395.9999L14163.2095,-4396.0133L14163.2095,-4395.3068L14163.0798,-4394.8532L14162.9196,-4394.5866L14163.4293,-4394.3066L14163.15,-4392.9867L14162.5504,-4391.9868L14162.1796,-4391.9132L14160.8398,-4390.3934L14160.0098,-4388.8466L14159.6298,-4388.4533L14158.7997,-4388.1802L14157.93,-4387.0468L14157.3502,-4386.94L14156.9504,-4386.94L14156.4301,-4386.5536L14156.1996,-4386.0134L14155.5908,-4385.9066L14154.9393,-4386.2202L14154.6005,-4386.0001L14154.3396,-4385.4801L14153.7903,-4385.2669L14153.5995,-4385.3268L14153.3096,-4385.2669L14152.9297,-4385.5267L14153.0701,-4385.8135L14152.15,-4385.9936L14150.9003,-4385.4935L14149.6796,-4383.8799L14148.9105,-4383.6933L14148.4695,-4383.6933L14148.23,-4383.6533L14147.5998,-4383.4534"/>
</g>
</svg>
