<?xml version="1.0" encoding="UTF-8"?>
<svg  xmlns="http://www.w3.org/2000/svg" xmlns:xlink="http://www.w3.org/1999/xlink" xmlns:go="http://purl.org/svgmap/profile" property="f_code,acc,exs,soc" viewBox="12937.5 -3937.5 281.25 281.25" go:dataArea="12937.5 -3937.5 281.25 281.25" >
<metadata>
 <rdf:RDF xmlns:rdf="http://www.w3.org/1999/02/22-rdf-syntax-ns#" xmlns:crs="http://opengis.org/xmldtds/transformations.dtd" xmlns:svg="http://www.w3.org/svg" >
  <rdf:Description>
   <crs:CoordinateReferenceSystem rdf:resource="http://purl.org/crs/84" svg:transform="matrix(100.0,0.0,0.0,-100.0,0.0,0.0)" />
  </rdf:Description>
 </rdf:RDF>
</metadata>
<globalCoordinateSystem srsName="http://purl.org/crs/84" transform="matrix(100.0,0.0,0.0,-100.0,0.0,0.0)" />
<defs>
 <g id="p0" >
  <circle cx="0.0" cy="0.0" r="3" stroke="green" stroke-width="2.0" vector-effect="non-scaling-stroke" />
 </g>
</defs>
<g fill="none" fill-rule="evenodd" stroke="#000000" stroke-width="2" opacity="0.5" vector-effect="non-scaling-stroke" stroke-linejoin="bevel" >
<path content="BA010,1,1,JPN" xlink:title="BA010" d="M13187.0217,-3724.2141L13187.0449,-3724.1717L13187.0809,-3724.1305L13187.0166,-3724.079L13186.9973,-3724.0314L13187.0269,-3724.0442L13187.0809,-3724.1022L13187.1092,-3724.1009L13187.1298,-3724.0738L13187.0887,-3724.061L13187.0899,-3724.0352L13187.1234,-3724.0082L13187.2006,-3724.0005L13187.2199,-3723.9824L13187.1517,-3723.9528L13187.1208,-3723.9644L13187.0603,-3723.9631L13187.0784,-3723.9438L13187.0526,-3723.9194L13187.0204,-3723.9194L13187.0243,-3723.8808L13186.9793,-3723.8769L13187.0449,-3723.8306L13187.0024,-3723.8023L13186.9548,-3723.8138L13186.8557,-3723.855L13186.7875,-3723.9245L13186.8209,-3723.9657L13186.8467,-3724.0532L13186.9085,-3724.1163L13187.0217,-3724.2141"/>
<path content="BA010,1,1,JPN" xlink:title="BA010" d="M13186.5069,-3724.4278L13186.5326,-3724.4226L13186.6407,-3724.3686L13186.6227,-3724.3351L13186.6253,-3724.2914L13186.5983,-3724.2463L13186.66,-3724.2103L13186.6446,-3724.1794L13186.6922,-3724.1845L13186.6755,-3724.1575L13186.727,-3724.1124L13186.6652,-3724.1022L13186.6459,-3724.079L13186.5828,-3724.0764L13186.597,-3724.0584L13186.4966,-3723.9876L13186.4914,-3724.0133L13186.3434,-3724.0211L13186.2945,-3724.0803L13186.3447,-3724.1253L13186.2932,-3724.2038L13186.252,-3724.2952L13186.3897,-3724.2965L13186.4309,-3724.2618L13186.5004,-3724.2811L13186.5107,-3724.3171L13186.4863,-3724.3557L13186.5069,-3724.4278"/>
<path content="BA010,1,1,JPN" xlink:title="BA010" d="M13186.3627,-3724.7792L13186.3988,-3724.7624L13186.4567,-3724.7187L13186.4528,-3724.6775L13186.4322,-3724.6569L13186.3769,-3724.6839L13186.3383,-3724.7328L13186.355,-3724.7418L13186.3473,-3724.7727L13186.3627,-3724.7792"/>
</g>
</svg>
