<?xml version="1.0" encoding="UTF-8"?>
<svg  xmlns="http://www.w3.org/2000/svg" xmlns:xlink="http://www.w3.org/1999/xlink" xmlns:go="http://purl.org/svgmap/profile" property="f_code,acc,exs,soc" viewBox="13078.125 -3234.375 140.625 140.625" go:dataArea="13078.125 -3234.375 140.625 140.625" >
<metadata>
 <rdf:RDF xmlns:rdf="http://www.w3.org/1999/02/22-rdf-syntax-ns#" xmlns:crs="http://opengis.org/xmldtds/transformations.dtd" xmlns:svg="http://www.w3.org/svg" >
  <rdf:Description>
   <crs:CoordinateReferenceSystem rdf:resource="http://purl.org/crs/84" svg:transform="matrix(100.0,0.0,0.0,-100.0,0.0,0.0)" />
  </rdf:Description>
 </rdf:RDF>
</metadata>
<globalCoordinateSystem srsName="http://purl.org/crs/84" transform="matrix(100.0,0.0,0.0,-100.0,0.0,0.0)" />
<defs>
 <g id="p0" >
  <circle cx="0.0" cy="0.0" r="3" stroke="green" stroke-width="2.0" vector-effect="non-scaling-stroke" />
 </g>
</defs>
<g fill="none" fill-rule="evenodd" stroke="#000000" stroke-width="2" opacity="0.5" vector-effect="non-scaling-stroke" stroke-linejoin="bevel" >
<path content="BA010,1,1,JPN" xlink:title="BA010" d="M13102.4506,-3136.2867L13103.4805,-3136.4201L13103.45,-3136.7599L13103.3905,-3137.4666L13103.1601,-3137.7466L13102.0996,-3137.6266L13101.9608,-3136.4332L13102.4506,-3136.2867"/>
<path content="BA010,1,1,JPN" xlink:title="BA010" d="M13111.7706,-3142.5266L13111.5906,-3143.3533L13111.3602,-3143.0267L13111.4395,-3142.8267L13111.7706,-3142.5266"/>
<path content="BA010,1,1,JPN" xlink:title="BA010" d="M13137.7197,-3144.8801L13137.7396,-3145.64L13137.1902,-3145.26L13137.1994,-3145.1933L13137.1796,-3145.2066L13137.1796,-3145.06L13137.7197,-3144.8801"/>
<path content="BA010,1,1,JPN" xlink:title="BA010" d="M13138.9801,-3147.3267L13139.1495,-3147.4001L13138.9801,-3147.9334L13138.8306,-3147.9401L13138.6505,-3147.74L13138.9801,-3147.3267"/>
<path content="BA010,1,1,JPN" xlink:title="BA010" d="M13138.8107,-3150.0933L13138.9297,-3150.3201L13138.8596,-3150.3201L13138.8107,-3150.0933"/>
<path content="BA010,1,1,JPN" xlink:title="BA010" d="M13141.7206,-3151.1801L13141.3696,-3152.26L13141.3696,-3152.9068L13141.5695,-3152.98L13141.2201,-3153.8733L13141.3605,-3154.0133L13140.8493,-3154.1401L13140.7501,-3153.64L13140.2496,-3152.9867L13141.5604,-3151.2335L13141.7206,-3151.1801"/>
<path content="BA010,1,1,JPN" xlink:title="BA010" d="M13078.125,-3106.8725L13078.1708,-3106.8933L13078.5004,-3107.2332L13079.0009,-3107.3401L13079.2007,-3107.4533L13079.2603,-3107.8266L13079.2404,-3108.0467L13079.2496,-3108.1734L13079.7897,-3108.1799L13079.8004,-3108.3067L13080.1697,-3108.3334L13080.6396,-3108.0601L13080.7297,-3108.6533L13081.2698,-3108.88L13081.5094,-3108.8066L13081.9794,-3108.84L13082.1198,-3108.7334L13082.7606,-3108.9666L13082.7698,-3109.2533L13083.3405,-3109.2733L13084.7198,-3108.8934L13085.3897,-3109.1467L13086.0397,-3109.3134L13086.8301,-3109.4999L13087.1796,-3109.4801L13089.0808,-3110.64L13089.8605,-3111.0666L13090.0208,-3111.2867L13091.2308,-3111.3001L13091.5009,-3111.3333L13091.7908,-3111.7933L13091.8304,-3112.2L13092.16,-3112.4866L13092.7994,-3112.3734L13094.0704,-3112.8067L13094.8593,-3113.2534L13095.6406,-3113.6665L13095.9808,-3113.7199L13097.2504,-3114.5931L13097.7997,-3115.2533L13097.7402,-3115.7066L13097.0596,-3116.0534L13097.3099,-3116.6866L13098.1201,-3116.88L13098.9502,-3116.86L13099.44,-3116.9466L13099.4507,-3116.9867L13098.8998,-3117.2333L13098.6496,-3117.38L13098.4299,-3117.98L13099.35,-3118.4534L13099.6796,-3118.7067L13100.2197,-3118.9266L13100.1801,-3119.0067L13100.3403,-3119.5866L13100.6699,-3120.1532L13100.8301,-3120.66L13100.7492,-3121.2467L13100.6302,-3121.5933L13101.6205,-3122.78L13102.5391,-3122.6933L13103.1296,-3122.6732L13103.5904,-3122.6067L13104.1794,-3122.7598L13104.7806,-3122.4333L13105.7602,-3122.6801L13106.5903,-3122.8067L13107.5897,-3123.9332L13107.7103,-3124.18L13108.0994,-3124.4667L13108.1299,-3124.3866L13108.2993,-3124.6201L13108.6197,-3124.9468L13109.3399,-3125.3201L13110.1501,-3125.7601L13110.8002,-3126.0267L13110.9802,-3126.2667L13111.1694,-3126.6666L13111.7706,-3127L13112.0499,-3127.0933L13112.1796,-3127.1267L13112.6602,-3127.52L13112.8998,-3127.8933L13113.0997,-3128.1401L13112.9105,-3128.4533L13112.1796,-3128.6734L13111.7996,-3128.1599L13111.5402,-3127.9533L13110.5392,-3127.54L13110.17,-3127.6934L13109.8602,-3127.6867L13109.1293,-3127.8799L13108.7494,-3127.5734L13108.3694,-3127.6066L13108.2199,-3127.3067L13108.0902,-3127.3067L13107.84,-3127.2333L13108.2703,-3127.4601L13107.4905,-3128.08L13107.2998,-3129.1466L13108.5403,-3129.6734L13109.1797,-3130.5401L13109.8602,-3130.9334L13110.3592,-3131.18L13110.5698,-3131.6267L13110.2005,-3131.8867L13110.4095,-3132.34L13110.3897,-3132.7667L13110.7498,-3133.0801L13110.2707,-3133.3601L13109.7504,-3133.2066L13109.1095,-3133.4534L13108.1192,-3133.6533L13107.5607,-3133.9535L13105.9906,-3134.1932L13104.4693,-3134.8467L13101.7105,-3135.6466L13101.4694,-3135.8467L13101.4908,-3136.3667L13101.6998,-3136.36L13101.3992,-3136.4866L13101.8494,-3139.1333L13101.9897,-3139.46L13103.5492,-3141.9867L13105.5695,-3144.1534L13106.0501,-3144.5133L13107.3898,-3145.54L13108.58,-3146.18L13109.3994,-3145.6667L13109.8297,-3145.9801L13109.6497,-3146.4666L13109.8801,-3146.8468L13110.0098,-3146.7934L13110.3195,-3146.6667L13110.4599,-3146.8L13110.2997,-3147.02L13110.4996,-3147.2466L13110.6598,-3147.0333L13110.8994,-3147.6L13111.1694,-3147.3066L13112.0605,-3147.3932L13112.1796,-3147.34L13112.8708,-3146.9999L13113.2004,-3146.8533L13113.6597,-3146.5334L13113.8702,-3146.1067L13114.09,-3146.4666L13114.3997,-3146.78L13115.1001,-3146.6667L13115.3107,-3146.6333L13115.6708,-3146.2999L13115.95,-3146.1599L13116.0294,-3145.9667L13116.5298,-3145.7399L13116.7099,-3145.8601L13116.98,-3145.2534L13117.4606,-3145.0001L13117.7399,-3145.0335L13117.7902,-3145.4866L13118.6493,-3145.6333L13118.8797,-3145.5133L13120.3506,-3145.3533L13120.9305,-3144.8067L13120.9,-3144.4134L13121.0602,-3144.2867L13122.0001,-3143.8066L13122.5494,-3143.1667L13122.7798,-3142.4L13123.2803,-3143.0067L13124.1104,-3142.6733L13124.4095,-3141.9867L13123.9105,-3141.6866L13124.0692,-3141.8867L13123.5794,-3141.3933L13123.5901,-3140.4335L13123.8892,-3139.9733L13124.2996,-3138.8533L13124.6796,-3138.5267L13125.5005,-3138.0199L13126.4801,-3137.9801L13127.7496,-3138.1468L13128.3005,-3138.2067L13128.8406,-3138.6267L13129.2404,-3138.94L13129.7195,-3138.5201L13130.2094,-3138.7533L13130.2597,-3138.7733L13130.8594,-3139.0333L13131.3309,-3138.4333L13131.7596,-3136.8467L13132.5806,-3136.4201L13133.6594,-3136.0733L13134.3796,-3136.2467L13134.8999,-3136.8668L13134.8801,-3137.1799L13134.1095,-3137.7001L13133.3206,-3138.1866L13133.2397,-3139.36L13133.3694,-3139.4667L13133.1802,-3139.5201L13133.4,-3139.8399L13134.4696,-3139.8933L13134.0393,-3140.5399L13134.3597,-3141.2399L13134.7504,-3141.4267L13135.2402,-3141.5134L13135.4492,-3141.82L13136.29,-3141.9867L13136.5799,-3142.3201L13137.0697,-3143.0733L13137.0209,-3144.3134L13136.8607,-3145.0201L13136.3007,-3145.6867L13136.1694,-3146.9868L13136.3495,-3147.1733L13137.1796,-3147.5733L13137.6694,-3147.8334L13138.4506,-3148.1133L13138.8,-3148.4667L13138.62,-3149.0267L13138.4796,-3149.0267L13138.2797,-3149.0267L13138.4399,-3149.2201L13138.5696,-3149.5335L13138.2507,-3149.3534L13138.2401,-3149.3732L13138.5101,-3149.9933L13138.2706,-3150.28L13137.9395,-3150.3201L13137.2208,-3150.68L13137.5,-3151.16L13137.1796,-3151.72L13137.1796,-3151.7466L13137.8098,-3151.86L13137.8601,-3151.4067L13138.4399,-3151.0468L13138.1302,-3151.7668L13138.4506,-3151.9667L13138.5101,-3152.2068L13138.4705,-3152.4799L13138.2004,-3152.36L13138.0707,-3152.8467L13138.0096,-3153.3268L13138.3606,-3153.2135L13138.4903,-3153.5465L13138.4903,-3153.7933L13138.7695,-3154.1067L13138.5696,-3154.1866L13138.3301,-3154.0867L13138.2797,-3154.4001L13138.6108,-3154.4333L13138.4796,-3154.5532L13138.15,-3154.4867L13138.1302,-3154.5868L13138.1104,-3155.5201L13138.2706,-3155.6667L13138.3499,-3155.6601L13138.6505,-3155.9534L13138.9206,-3155.8399L13138.8199,-3155.6999L13139.5599,-3155.7533L13139.5493,-3156.1268L13139.0305,-3156.3467L13139.6698,-3156.6732L13139.8499,-3157.2468L13139.9307,-3157.8268L13140.1993,-3157.8733L13140.0101,-3158.1533L13140.1306,-3158L13140.2908,-3158.1266L13140.3397,-3158.0667L13140.4999,-3158.16L13140.6204,-3157.9401L13140.4602,-3157.88L13140.6204,-3157.9L13140.7394,-3157.5268L13140.8401,-3157.6401L13140.7501,-3157.2401L13140.5502,-3157.16L13140.8401,-3157.0934L13141.1392,-3156.9866L13141.0995,-3157.74L13141.2796,-3157.8268L13140.8493,-3158.6533L13141.0599,-3159.24L13142.3508,-3160.8868L13143.3105,-3161.24L13144.7403,-3161.8401L13145.2194,-3162.4332L13145.61,-3162.4268L13145.8405,-3162.9667L13146.1395,-3163.2L13145.6696,-3163.62L13145.2103,-3163.8866L13145.5597,-3164.2935L13145.8496,-3164.6732L13146.5103,-3164.44L13146.8506,-3164.5134L13146.5698,-3165.2201L13146.3394,-3165.2134"/>
<path content="BA010,1,1,JPN" xlink:title="BA010" d="M13078.125,-3170.2914L13078.45,-3170.36L13079.39,-3170.1799L13079.8996,-3169.4134L13079.5593,-3168.82L13079.7699,-3168.7532L13080.3101,-3168.7599L13081.1508,-3168.1868L13081.4896,-3167.5934L13081.7795,-3166.9867L13082.1899,-3165.6L13081.8695,-3164.8001L13081.5704,-3164.3934L13080.5908,-3163.8468L13080.0095,-3163.1733L13079.4907,-3161.54L13079.2694,-3160.9867L13078.5095,-3160.1133L13078.6407,-3159.3201L13078.6407,-3158.6533L13078.125,-3157.9958M13078.125,-3136.719L13078.3295,-3136.4735L13078.5202,-3136.2267L13079.0497,-3135.7468L13079.1,-3135.2667L13079.1809,-3134.8267L13079.2206,-3134.5934L13080.0507,-3133.9001L13080.1804,-3133.6533L13080.0598,-3132.6866L13079.9103,-3132.5199L13079.7302,-3132.02L13079.39,-3131.46L13079.4205,-3131.0934L13078.9505,-3130.4533L13079.1306,-3129.5465L13079.2206,-3129.5465L13079.48,-3129.1599L13079.2297,-3128.3667L13079.1901,-3127.8133L13078.92,-3126.8866L13078.6896,-3125.6065L13078.9093,-3125.3199L13078.5294,-3124.6666L13078.125,-3124.3949"/>
<path content="BA010,1,1,JPN" xlink:title="BA010" d="M13147.2504,-3173.7L13147.2595,-3173.9668L13147.1207,-3174.0267L13146.9101,-3173.8733L13147.2504,-3173.7"/>
<path content="BA010,1,1,JPN" xlink:title="BA010" d="M13146.3394,-3165.2134L13146.08,-3165.7066L13145.8206,-3165.6868L13145.8099,-3165.9134L13146.2601,-3166.12L13146.0297,-3166.88L13145.4605,-3166.82L13145.0806,-3166.9867L13145.1904,-3167.4L13145.4498,-3167.4667L13144.9493,-3167.98L13145.3598,-3168.1932L13146.7804,-3168.6399L13146.3898,-3169.26L13146.1395,-3169.2133L13145.5505,-3169.5601L13145.7306,-3169.98L13145.9198,-3170.0268L13145.9503,-3170.3135L13146.2006,-3170.3934L13145.7504,-3170.9267L13146.0999,-3171.52L13145.9808,-3171.8401L13146.2601,-3171.8468L13146.7407,-3172.0865L13146.6202,-3172.5599L13146.5805,-3172.9467L13146.3104,-3173.1934L13146.4005,-3173.4867L13146.6095,-3173.74L13147.0596,-3174.3134L13146.73,-3175L13146.8002,-3175.3201L13147.0901,-3175.5335L13147.0505,-3175.8135L13147.2,-3175.7668L13147.2702,-3175.9001L13147.6303,-3175.7933L13147.6303,-3176.3668L13148.7396,-3178.5534L13148.6099,-3178.5868L13148.1705,-3178.5666L13147.4808,-3179.5L13147.1893,-3179.4001L13146.9299,-3179.9801L13147.0398,-3180.3066L13146.2494,-3180.5935L13145.3705,-3181.8132L13145.1797,-3183.4734L13145.2393,-3183.6534L13145.3903,-3186.9467L13145.7703,-3187.5334L13146.1395,-3187.5601L13146.0999,-3187.3068L13146.1594,-3187.5732L13145.8298,-3187.5601L13145.6696,-3187.8799L13145.7794,-3187.9267L13145.7596,-3188.7268L13146.1105,-3189.62L13146.2799,-3189.62L13146.1105,-3189.7533L13146.4203,-3189.8468L13146.4203,-3189.86L13146.2296,-3190.04L13146.1594,-3190.58L13146.4401,-3190.5533L13146.1792,-3190.6734L13146.4798,-3191.2867L13147.1802,-3191.1667L13148.1598,-3191.9867L13148.1201,-3191.9867L13147.1695,-3191.1867L13146.3196,-3191.3799L13146.4096,-3191.7667L13146.6309,-3191.7534L13146.4401,-3191.8734L13146.46,-3191.9867L13146.6599,-3192.3532L13148.3002,-3198.0133L13149.0295,-3200.3201L13149.6796,-3202.24L13150.0702,-3203.3932L13150.9201,-3205.5801L13151.9302,-3208.6533L13151.9394,-3208.6933L13153.2394,-3211.5269L13153.4805,-3212.0132L13153.7994,-3212.8799L13153.9398,-3213.2198L13154.0802,-3214.9933L13154.2908,-3215.7135L13154.7806,-3216.9868L13155.1605,-3218.0199L13156.1401,-3221.4466L13157.0206,-3223.1731L13157.2494,-3223.7667L13157.4905,-3224.6933L13157.4493,-3224.9401L13157.1808,-3225.1999L13157.1106,-3225.3201L13157.4402,-3225.7668L13158.3099,-3228.6934L13159.1904,-3230.6534L13160.4294,-3232.5932L13160.8002,-3232.8602L13161.3495,-3233.6533L13161.3693,-3233.7666L13161.0794,-3233.8467L13161.2701,-3233.9668L13161.5997,-3234L13161.8103,-3233.7868L13162.0499,-3234.0069L13162.1796,-3234.1202L13162.6099,-3234.0668L13162.7396,-3234.2934L13162.7396,-3234.375"/>
</g>
</svg>
