<?xml version="1.0" encoding="UTF-8"?>
<svg  xmlns="http://www.w3.org/2000/svg" xmlns:xlink="http://www.w3.org/1999/xlink" xmlns:go="http://purl.org/svgmap/profile" property="f_code,acc,exs,soc" viewBox="13500.0 -4500.0 562.5 562.5" go:dataArea="13500.0 -4500.0 562.5 562.5" >
<metadata>
 <rdf:RDF xmlns:rdf="http://www.w3.org/1999/02/22-rdf-syntax-ns#" xmlns:crs="http://opengis.org/xmldtds/transformations.dtd" xmlns:svg="http://www.w3.org/svg" >
  <rdf:Description>
   <crs:CoordinateReferenceSystem rdf:resource="http://purl.org/crs/84" svg:transform="matrix(100.0,0.0,0.0,-100.0,0.0,0.0)" />
  </rdf:Description>
 </rdf:RDF>
</metadata>
<globalCoordinateSystem srsName="http://purl.org/crs/84" transform="matrix(100.0,0.0,0.0,-100.0,0.0,0.0)" />
<defs>
 <g id="p0" >
  <circle cx="0.0" cy="0.0" r="3" stroke="green" stroke-width="2.0" vector-effect="non-scaling-stroke" />
 </g>
</defs>
<g fill="none" fill-rule="evenodd" stroke="#000000" stroke-width="2" opacity="0.5" vector-effect="non-scaling-stroke" stroke-linejoin="bevel" >
<path content="BA010,1,1,JPN" xlink:title="BA010" d="M14003.8696,-3975.8598L14003.8895,-3975.8732L14003.7994,-3976.0799L14003.3096,-3976.0868L14001.5701,-3977.2598L14001.5503,-3977.24L14003.3005,-3976.0666L14003.7704,-3976.0532L14003.8696,-3975.8598"/>
<path content="BA010,1,1,JPN" xlink:title="BA010" d="M13995.2072,-3988.8451L13996.7804,-3988.0199L13999.6796,-3985.6998L14000,-3985.342L14001.5106,-3983.6533L14003.4195,-3980.4935L14003.8406,-3979.1931L14003.7094,-3979.1466L14003.7796,-3978.8734L14003.6194,-3978.8399L14003.6697,-3978.6934L14004.1306,-3978.68L14004.2206,-3978.2001L14003.9093,-3978.1067L14004.0405,-3977.6798L14003.6194,-3977.6066L14003.7506,-3977.2331L14004.0894,-3977.3933L14004.0695,-3977.2598L14004.0894,-3976.8467L14003.7292,-3976.8066L14003.83,-3976.5202L14004.3701,-3976.3L14004.6097,-3976.4L14004.2999,-3977.3266L14004.9606,-3977.38L14004.9393,-3977.0065L14004.95,-3976.5732L14005.0507,-3976.0666L14004.7699,-3975.7534L14004.2297,-3975.8934L14004.2206,-3975.8533L14004.7607,-3975.6931L14004.8492,-3975.3201L14004.8492,-3975.0267L14004.6402,-3974.9931L14004.8401,-3974.1066L14005.4001,-3974.0868L14005.7098,-3973.0999L14006.3202,-3966.9868L14006.0898,-3960.8467L14005.9906,-3959.8133L14005.8594,-3958.6533L14004.7302,-3951.3466L14004.5303,-3950.3201L14002.5604,-3941.9868L14001.7303,-3939.5401L14001.6006,-3939.4733L14001.3901,-3939.1666L14001.5701,-3939.1399L14001.4206,-3938.4335L14001.0325,-3937.5"/>
<path content="BA010,3,1,JPN" xlink:title="BA010" d="M13994.2276,-3989.2906L13994.7098,-3989.1068L13995.2072,-3988.8451"/>
<path content="BA010,1,1,JPN" xlink:title="BA010" d="M13975.5295,-3985.7136L13976.03,-3986.0065L13976.3596,-3986.3132L13977.3697,-3986.4799L13977.2797,-3985.92L13977.6505,-3986.1L13978.1006,-3986.1198L13977.9404,-3986.2331L13977.9205,-3986.3335L13978.1799,-3986.6268L13978.5095,-3986.4666L13978.7506,-3986.2934L13979.0497,-3986.7733L13979.6799,-3986.7199L13981.1798,-3985.7933L13982.0709,-3985.8601L13982.3502,-3986.5532L13983.0795,-3986.94L13983.8104,-3986.7134L13983.8196,-3986.3468L13984.7107,-3986.3533L13984.79,-3986.8801L13984.9594,-3986.7466L13985.0204,-3986.3468L13986.1099,-3986.7332L13985.91,-3987.3001L13985.1608,-3987.1201L13985.0494,-3987.3867L13985.82,-3987.5732L13985.7605,-3987.7068L13984.9304,-3987.5401L13984.8404,-3987.8666L13984.8495,-3987.9536L13985.2493,-3987.9398L13985.3104,-3987.7998L13985.6506,-3988.0268L13985.4095,-3987.9734L13985.3607,-3988.1001L13984.7794,-3988.1535L13984.8206,-3988.2999L13985.4996,-3988.2401L13985.6903,-3988.3865L13985.73,-3988.3068L13985.9497,-3988.5666L13985.6995,-3988.7135L13985.4904,-3988.6601L13985.2997,-3988.7264L13985.3409,-3988.76L13985.9909,-3989.5065L13985.8902,-3989.6198L13986.6104,-3989.8132L13987.1796,-3989.8666L13989.0594,-3989.9399L13989.74,-3990.3L13992.0898,-3990.1066L13994.2276,-3989.2906"/>
<path content="BA010,1,1,JPN" xlink:title="BA010" d="M13969.8898,-4001.3268L13969.9905,-4001.3401L13969.9402,-4001.4069L13970.0699,-4001.4198L13969.7601,-4001.6602L13969.87,-4001.4L13969.8898,-4001.3268"/>
<path content="BA010,1,1,JPN" xlink:title="BA010" d="M13949.7259,-4053.4294L13949.7656,-4053.4376L13949.8161,-4053.411L13949.7943,-4053.3952L13949.7259,-4053.4294"/>
<path content="BA010,1,1,JPN" xlink:title="BA010" d="M14062.5,-4119.4943L14062.1796,-4119.6266L14061.6104,-4119.96L14060.2997,-4121.5466L14060.17,-4121.5332L14059.4193,-4121.6999L14058.8104,-4121.7934L14058.3694,-4122.0264L14057.84,-4122.2534L14057.5607,-4122.3999L14057.3196,-4122.3934L14057.0496,-4122.3732L14056.9199,-4122.4934L14056.7001,-4122.4865L14056.3599,-4122.6467L14056.1798,-4122.5067L14056.0394,-4122.4998L14055.6198,-4122.4998L14054.9805,-4122.9134L14054.9606,-4122.9668L14054.8798,-4122.8065L14054.1901,-4122.0398L14053.92,-4121.8468L14053.6896,-4122.0001L14053.5904,-4122.2L14053.4393,-4122.2L14052.9404,-4122.1931L14052.7908,-4122.2L14052.4704,-4121.8067L14052.1606,-4121.5668L14052.2797,-4121.5466L14052.0905,-4121.1067L14052.1408,-4120.8134L14050.2792,-4119.3199L14049.6796,-4118.9331L14048.1201,-4118.3998L14046.4996,-4118.2732L14046.0999,-4118.5131L14045.8298,-4118.8732L14044.9097,-4118.9331L14043.9194,-4119.4065L14043.0695,-4119.7998L14043.0496,-4120.2068L14042.4606,-4120.94L14041.5802,-4121.6267L14040.3397,-4122.2401L14039.9902,-4123.0999L14039.65,-4123.5065L14038.7497,-4124.0532L14038.5193,-4124.0131L14038.0707,-4124.3465L14037.3596,-4124.8264L14037.1796,-4124.8199L14036.5494,-4125.1064L14036.3495,-4125.1064L14036.1404,-4125.0935L14036.0107,-4125.3201L14035.2005,-4125.6535L14034.8999,-4125.8865L14034.5398,-4126.1131L14034.1904,-4126.1333L14033.9493,-4126.0468L14033.9203,-4125.5466L14034.1705,-4125.3201L14034.2407,-4124.9668L14034.1003,-4124.3668L14034.1202,-4124.2867L14034.0393,-4124.0265L14033.7509,-4123.9532L14033.5205,-4123.8598L14033.3298,-4123.9067L14033.2108,-4123.1998L14033.11,-4122.9401L14033.02,-4122.3667L14032.9498,-4122.1268L14033.0505,-4121.9734L14033.4198,-4120.9732L14033.4198,-4120.6665L14033.3405,-4120.6734L14033.3694,-4120.48L14033.1604,-4119.9268L14033.2794,-4119.6533L14033.58,-4119.1734L14033.3405,-4118.5467L14033.3603,-4118.4467L14033.2596,-4117.8932L14033.2199,-4117.5667L14033.0795,-4116.9865L14032.8995,-4116.8266L14032.7606,-4116.4932L14032.7698,-4116.42L14032.6401,-4115.5998L14032.0007,-4114.6797L14031.6101,-4114.5535L14031.0501,-4114.5599L14031.2195,-4114.1399L14031.1295,-4113.6532L14030.0598,-4113.1001L14029.8203,-4113.2133L14029.6494,-4113.1599L14029.01,-4113.5532L14028.7292,-4113.7531L14028.7201,-4113.8802L14028.5309,-4113.9L14028.5599,-4113.6665L14028.2593,-4113.8L14027.7695,-4113.9801L14027.0798,-4113.8134L14026.9592,-4113.8733L14026.8494,-4113.8065L14026.7395,-4113.8199L14026.4404,-4113.6467L14025.7996,-4114.0331L14025.6302,-4114.0331L14025.4898,-4113.8466L14025.0504,-4113.4132L14024.8993,-4113.4399L14024.9802,-4113.0398L14024.9496,-4112.4268L14025.8499,-4112.1868L14026.7303,-4112.1868L14027.7206,-4112.1933L14028.2394,-4112.2665L14028.5995,-4112.1468L14028.8696,-4111.8599L14029.1702,-4111.7401L14029.3396,-4111.5601L14029.7897,-4111.4864L14030.3894,-4110.7601L14030.6107,-4110.7132L14031.4301,-4109.6134L14031.9397,-4109.3533L14032.1899,-4108.6533L14032.3502,-4104.5799L14031.8893,-4100.3201L14031.8695,-4100.0401L14030.4199,-4092.58L14030.2597,-4091.9865L14030.22,-4091.74L14028.2593,-4085.8734L14027.2507,-4083.6533L14025.1007,-4080.1998L14025.0198,-4080.1067L14024.6796,-4079.7001L14023.1995,-4078.4534L14022.0108,-4077.9598L14021.4294,-4077.94L14021.08,-4078.0731L14020.9503,-4078.26L14020.7397,-4078.1532L14020.43,-4078.6266L14019.8898,-4078.3798L14019.4702,-4078.4134L14018.7805,-4077.9934L14018.1992,-4077.5131L14016.8198,-4076.9531L14015.6494,-4076.0201L14014.5706,-4075.3201L14014.4699,-4075.2468L14012.1796,-4074.26L14011.2106,-4074.2199L14009.3506,-4074.9199L14008.8898,-4075.3201L14009.05,-4075.6733L14008.2504,-4075.9068L14007.4097,-4076.1398L14006.4697,-4076.7666L14005.22,-4076.9264L14004.7699,-4076.58L14003.6896,-4076.2199L14003.2196,-4075.8934L14002.7603,-4075.3201L14002.5101,-4075.0534L14002.2705,-4075.0534L14001.9897,-4075.0866L14000.4593,-4074.3999L13999.9603,-4074.5201L13999.8093,-4074.2668L14000.0702,-4073.9334L13999.6796,-4073.5931L13999.4003,-4073.4066L13998.8403,-4072.2L13998.7305,-4072.1867L13998.4894,-4072.0867L13998.7595,-4071.5065L13997.7997,-4070.2866L13997.6593,-4070.2801L13997.58,-4070.3331L13997.4792,-4070.2866L13996.6995,-4069.8666L13996.9101,-4069.6533L13996.3394,-4068.2331L13995.8206,-4067.7799L13994.8105,-4066.9868L13994.1605,-4066.8736L13994.0704,-4066.9868L13993.6905,-4067.1932L13993.75,-4066.9868L13993.8797,-4066.6801L13993.7302,-4066.4799L13993.66,-4066.3067L13993.7302,-4066.1068L13993.6096,-4065.4865L13992.9092,-4065.4068L13992.7597,-4065.44L13992.9398,-4065.2065L13992.6895,-4064.6603L13992.9398,-4064.6069L13992.8497,-4064.3002L13992.4606,-4064.267L13992.3798,-4064.4733L13992.1997,-4064.4733L13991.9006,-4064.46L13991.7801,-4064.5065L13991.51,-4064.4001L13991.1102,-4064.3269L13990.6006,-4064.6069L13990.3397,-4064.6534L13989.7705,-4064.0266L13989.2395,-4063.4533L13989.36,-4063.3202L13989.2197,-4063.3202L13988.9297,-4063.1134L13987.3505,-4062.2334L13987.1796,-4062.1136L13986.2808,-4061.6867L13986.0596,-4061.4002L13986.1404,-4061.1866L13986.2808,-4060.9066L13986.1496,-4060.8933L13986.0901,-4060.4L13986.0504,-4060.3401L13986.3907,-4059.9602L13986.47,-4059.6268L13986.1603,-4059.6333L13986.5601,-4059.4067L13986.5997,-4058.9466L13986.7706,-4058.6533L13987.1796,-4058.3267L13987.7396,-4058.2733L13987.9807,-4058.3668L13988.7604,-4058.4335L13989.8605,-4058.2935L13990.6097,-4058.6533L13991.0797,-4058.6533L13991.0904,-4058.6533L13991.1102,-4058.6533L13991.1804,-4058.6533L13991.2109,-4058.6533L13991.6702,-4058.6868L13991.7603,-4058.6533L13992.7307,-4057.74L13993.3701,-4056.3667L13993.0893,-4055.92L13993.1808,-4055.8002L13992.9703,-4055.74L13993.28,-4055.6068L13993.6707,-4055.7068L13994.1696,-4054.9465L13994.8196,-4051.7933L13994.6304,-4051.58L13994.9097,-4050.6599L13994.9097,-4050.3201L13994.8898,-4049.2733L13994.7098,-4048.8335L13994.5496,-4046.9467L13994.4702,-4046.6667L13994.2001,-4045.1866L13994.0994,-4044.9066L13993.9194,-4044.6201L13993.9804,-4043.4067L13993.9194,-4043.0599L13993.6401,-4042.8665L13994.4305,-4042.2066L13994.5206,-4041.9868L13994.8196,-4041.3799L13995.6406,-4041.0866L13995.9305,-4040.8733L13996.9101,-4040.2332L13997.1008,-4040.0536L13997.3801,-4040.1268L13997.58,-4039.9735L13998.0408,-4039.6465L13998.0301,-4038.8401L13998.5001,-4038.5265L13998.6496,-4038.4666L13999.6796,-4038.0936L13999.9191,-4037.9665L13999.9802,-4037.9066L14000.4395,-4037.6202L14001.0895,-4037.5198L14001.3992,-4036.8999L14001.59,-4036.3869L14002.0401,-4036.0668L14002.2903,-4035.6998L14002.4002,-4035.5602L14002.5894,-4033.9466L14002.5696,-4033.6533L14002.5497,-4032.5066L14001.5594,-4026.5602L14001.2802,-4025.3201L14000.3494,-4022.2935L14000.0107,-4022.0268L14000.5798,-4021.9666L14000.6699,-4022.06L14001.4603,-4021.8533L14001.21,-4021.7266L14000.3204,-4021.7468L14000.4807,-4020.9202L14000.1602,-4020.7001L14000.3006,-4021.2067L14000.09,-4021.2601L13999.91,-4021.0598L13999.9802,-4021.3066L13999.8398,-4021.3268L13999.6796,-4021.32L13999.5102,-4021.3467L13999.4507,-4021.1002L13999.6796,-4021.0598L13999.8306,-4020.7466L13999.6796,-4020.5666L13999.3698,-4019.9333L13999.2798,-4020.0535L13999.0097,-4020.0199L13999.0601,-4020.1466L13998.6496,-4020.1668L13999.0005,-4020.0802L13998.4406,-4018.4002L13998.9593,-4018.42L13999.3408,-4018.1267L13998.9395,-4016.9868L13997.2702,-4012.5668L13995.3003,-4008.6533L13994.5602,-4007.3532L13991.4795,-4003.0468L13988.8596,-4000.3201L13988.8306,-4000.2933L13988.4827,-4000L13987.1796,-3998.8998L13984.2209,-3997.02L13981.3293,-3995.9198L13979.8096,-3995.7401L13979.39,-3995.8466L13978.6102,-3996.1399L13978.2593,-3996.8334L13977.0203,-3997.1867L13976.5396,-3997.5533L13975.2304,-3997.7066L13974.6796,-3997.8268L13973.8403,-3998.1068L13973.3505,-3998.3868L13973.0804,-3998.2468L13972.3602,-3998.2201L13971.5103,-3999.0002L13970.8603,-3999.9466L13970.8252,-4000L13970.6207,-4000.3201L13970.0699,-4000.7401L13969.9295,-4000.3201L13969.7174,-4000L13969.6503,-3999.9001L13969.6701,-3999.6067L13969.5206,-3999.5998L13969.31,-3999.5998L13969.6106,-3999.3935L13969.5099,-3998.9067L13969.7601,-3998.6935L13969.6899,-3998.4467L13969.5099,-3997.9801L13969.9707,-3997.6933L13970.1706,-3997.58L13970.1202,-3997.3064L13970.1706,-3997.1668L13970.1202,-3996.9868L13970.2301,-3996.6667L13970.2606,-3996.08L13970.5902,-3996.0667L13970.7703,-3995.6799L13971.3104,-3996.1067L13971.8201,-3995.9599L13972.1405,-3995.2599L13971.8308,-3994.6133L13970.9503,-3994.68L13970.5002,-3994.54L13970.34,-3994.3798L13970.2805,-3994.2398L13970.5597,-3994.0399L13970.52,-3993.6333L13970.5002,-3993.3868L13970.6802,-3993.24L13970.6299,-3992.8467L13971.1304,-3992.68L13970.9,-3992.3668L13970.9503,-3992.2867L13971.0693,-3992.2867L13971.2006,-3992.1932L13971.3303,-3991.9865L13971.3196,-3991.9132L13971.6095,-3991.6733L13971.6995,-3991.5264L13971.7392,-3991.3399L13971.7804,-3991.2464L13971.7896,-3990.9466L13971.9604,-3990.9801L13972.6105,-3990.8669L13972.9507,-3991.0332L13973.5199,-3990.44L13973.5504,-3989.4733L13973.6694,-3988.9198L13973.6206,-3988.8599L13973.7808,-3988.6467L13973.8297,-3988.4666L13973.7595,-3988.4068L13973.8602,-3987.9265L13973.97,-3987.7068L13974.1302,-3987.6202L13974.1302,-3987.1735L13974.3896,-3987.0468L13974.2706,-3986.8668L13974.6796,-3986.7199L13975.5096,-3986.3335L13975.3906,-3985.9669L13975.56,-3985.8868L13975.5295,-3985.7136"/>
<path content="BA010,1,1,JPN" xlink:title="BA010" d="M13979.9698,-4135.3466L13980.2902,-4135.5068L13980.8899,-4135.5068L13981.5796,-4135.9535L13981.6101,-4136.4601L13981.4209,-4136.4666L13981.16,-4136.3533L13980.3406,-4136.6268L13979.8096,-4136.2801L13979.4495,-4135.8334L13980.0003,-4135.8398L13979.9698,-4135.3466"/>
<path content="BA010,1,1,JPN" xlink:title="BA010" d="M13934.0805,-4149.5731L13934.4803,-4149.6265L13934.8297,-4149.6601L13935.1303,-4149.8135L13935.8994,-4150.1202L13937.1796,-4150.1999L13937.5702,-4150.3201L13938.3804,-4150.9666L13938.0295,-4151.7666L13937.41,-4152.3998L13937.1796,-4152.4467L13937.0102,-4152.4399L13935.3195,-4152.38L13934.0805,-4152.5799L13933.4793,-4151.9001L13933.7204,-4151.1799L13933.8501,-4150.3201L13934.0805,-4149.5731"/>
<path content="BA010,1,1,JPN" xlink:title="BA010" d="M14019.9493,-4139.8602L14020.52,-4140.5399L14021.6293,-4141.1331L14021.8506,-4141.9533L14021.9299,-4141.9868L14022.4594,-4143.0668L14023.5703,-4144.0998L14023.8098,-4144.4935L14023.7793,-4144.7735L14023.9594,-4144.9001L14024.1196,-4144.9131L14023.9197,-4145.0668L14024.4705,-4145.4868L14024.5193,-4145.8668L14024.6796,-4145.9068L14024.6796,-4146.1399L14024.6796,-4146.36L14025.4196,-4146.5801L14025.7904,-4147.02L14025.7401,-4147.8668L14025.8804,-4147.8733L14025.8499,-4148.0865L14025.9506,-4148.0865L14025.9308,-4148.1667L14028.8696,-4149.0932L14029.2892,-4149.1531L14030.9601,-4149.4202L14031.6101,-4149.7734L14032.8796,-4150.3201L14033.8394,-4150.7866L14034.3094,-4150.6401L14034.4101,-4150.6802L14034.7595,-4150.6001L14035.2402,-4151.0735L14035.5103,-4151.2932L14035.64,-4151.2669L14036.4593,-4151.6003L14036.9904,-4151.54L14037.1796,-4151.6335L14037.5198,-4151.6335L14037.8296,-4151.5335L14038.1805,-4151.6003L14038.9404,-4151.6533L14039.0198,-4151.7467L14039.4394,-4151.72L14040.0101,-4151.9733L14040.1901,-4151.8932L14040.5899,-4151.9798L14040.7196,-4151.8734L14040.8798,-4151.7265L14040.8997,-4151.7265L14041.1194,-4152.24L14041.7404,-4152.6134L14042.0105,-4153.0666L14042.5705,-4153.5534L14042.9596,-4153.5866L14043.1595,-4154.0932L14043.6905,-4155.0133L14043.8507,-4155.36L14043.9102,-4155.4668L14043.6996,-4155.9334L14043.1305,-4156.2733L14042.9306,-4158.6533L14043.2297,-4163.7466L14043.4906,-4165.9668L14043.6798,-4166.9868L14044.5007,-4168.5467L14045.8298,-4169.64L14046.4203,-4169.8132L14047.5601,-4169.9001L14048.0698,-4170.1466L14048.3795,-4169.8734L14049.5697,-4170.0066L14049.6796,-4170.0867L14051.1902,-4170.0668L14051.9196,-4170.2267L14052.6901,-4170.1L14053.6499,-4171.1132L14055.0598,-4172.1535L14055.4504,-4172.2466L14055.5908,-4172.34L14056.4301,-4172.9198L14057.8796,-4173.3002L14058.2397,-4173.8201L14058.7906,-4173.8998L14059.0698,-4174.2065L14059.5505,-4174.0734L14060.2097,-4174.3198L14060.2997,-4175.3201L14060.5896,-4176.0735L14060.4904,-4176.3268L14061.3403,-4177.1133L14061.5906,-4178.1734L14062.0605,-4178.8799L14061.8896,-4179.8199L14062.1796,-4180.3001L14062.5,-4180.7365"/>
<path content="BA010,1,1,JPN" xlink:title="BA010" d="M13945.0302,-4205.2132L13945.1096,-4205.7468L13945.1401,-4205.8266L13945.1599,-4206.2065L13945.2103,-4206.44L13946.2204,-4207.0534L13947.4792,-4207.18L13948.1705,-4207.3067L13948.8907,-4207.7999L13949.35,-4208.1734L13949.6704,-4208.6132L13949.6796,-4208.6533L13949.6796,-4208.7868L13950.3601,-4209.66L13950.5997,-4210.4801L13951.1307,-4211.7599L13951.7593,-4213.3999L13951.9699,-4213.9L13951.8707,-4214.4466L13952.0096,-4214.6599L13952.1103,-4215.2466L13952.2003,-4215.5399L13951.6907,-4216L13951.7593,-4216.9865L13951.7303,-4217.6998L13952.0706,-4218.2934L13952.6001,-4219.0731L13953.8696,-4220.0798L13954.5898,-4220.4468L13955.0903,-4221.1735L13954.9606,-4221.3867L13955.3406,-4222.0066L13956.0699,-4222.8867L13956.0699,-4224.5934L13955.9097,-4225.3201L13955.8701,-4225.3201L13954.9103,-4223.8602L13954.6997,-4223.84L13953.5507,-4223.3932L13953.3798,-4223.4001L13952.9099,-4223.4001L13952.6596,-4223.4135L13952.1805,-4223.1335L13951.4999,-4223.0732L13950.6302,-4222.9267L13949.9207,-4222.7135L13949.7192,-4222.72L13949.6796,-4222.7001L13947.9294,-4222.3202L13947.6105,-4222.3469L13947.2702,-4222.16L13946.7499,-4221.7602L13945.7901,-4221.6866L13945.6406,-4221.7735L13945.3094,-4221.7667L13944.8196,-4221.9467L13944.6793,-4221.7266L13943.8995,-4221.7464L13943.4601,-4221.5L13942.6804,-4220.6001L13942.3996,-4220.0867L13942.5308,-4219.7266L13942.1799,-4219.6598L13942.1005,-4219.5267L13941.6397,-4218.9533L13941.1102,-4218.3731L13940.7898,-4217.9932L13940.6998,-4218.0134L13940.6708,-4217.9466L13940.6799,-4217.8398L13941.1301,-4216.9865L13940.5899,-4216.4734L13940.8798,-4215.9801L13941.3193,-4215.5533L13941.0904,-4215.3999L13941.6,-4214.9132L13942.3203,-4213.6398L13942.0898,-4212.4802L13941.9403,-4211.9865L13941.89,-4211.4735L13941.9098,-4211.2598L13942.4301,-4210.5865L13942.4896,-4210.0201L13942.3706,-4209.4734L13942.5797,-4209.0466L13942.5095,-4208.6533L13942.2501,-4207.7534L13942.2104,-4207.18L13942.7597,-4207.1533L13943.8599,-4206.6601L13944.4397,-4206.4201L13945.0302,-4205.2132"/>
<path content="BA010,1,1,JPN" xlink:title="BA010" d="M14062.5,-4211.8529L14062.1796,-4211.7332L14060.0204,-4211.24L14059.9594,-4211.2267L14059.8892,-4211.2064L14059.7595,-4211.1935L14059.6405,-4211.24L14059.1904,-4211.0733L14058.9798,-4211.0268L14058.9294,-4211.0001L14058.8501,-4210.9333L14057.9193,-4210.8933L14056.5903,-4211.1534L14054.5898,-4211.5398L14053.3493,-4212.2467L14053.1296,-4212.2334L14051.6006,-4212.9333L14050.9705,-4213.6131L14050.9201,-4213.66L14049.6796,-4214.8998L14048.1201,-4215.6532L14047.5006,-4215.9664L14046.3104,-4216.7133L14046.1502,-4216.9865L14045.7001,-4217.7467L14045.5002,-4217.7399L14044.1696,-4218.1999L14043.4402,-4219.0464L14043.1808,-4219.0533L14043.0405,-4219.0533L14041.6,-4220.0264L14040.8401,-4220.3999L14039.8605,-4221.6465L14038.3591,-4222.4133L14037.4298,-4222.4335L14037.1796,-4222.3801L14036.8301,-4222.3801L14034.05,-4222.7467L14031.9305,-4223.5931L14030.6992,-4223.8934L14029.8706,-4224.3732L14029.2694,-4224.7536L14028.8406,-4225.2602L14028.6896,-4225.3201L14027.6505,-4228.1799L14027.6505,-4231.1199L14028.1296,-4233.6533L14029.3198,-4237.1735L14029.5105,-4237.5401L14031.5704,-4241.9865L14034.8999,-4247.3202L14037.1796,-4250.2666L14037.2299,-4250.3201L14041.1606,-4254.3533L14045.9595,-4258.1135L14046.8506,-4258.6533L14047.6898,-4258.9134L14048.6404,-4258.6533L14049.3896,-4258.4667L14049.6704,-4258.6533L14049.6796,-4258.6601L14049.9893,-4258.6533L14050.4501,-4258.4866L14051.0406,-4258.4866L14051.1597,-4258.6533L14051.7502,-4259.0134L14052.7695,-4258.8799L14052.8397,-4258.8398L14053.4897,-4258.9001L14053.7399,-4258.82L14053.9398,-4258.6533L14054.0604,-4258.5999L14055.3696,-4257.8999L14056.1203,-4257.6801L14056.5308,-4257.46L14056.8405,-4257.1133L14058.3603,-4256.76L14059.0103,-4257.0801L14059.2102,-4257.3868L14060.1303,-4257.6534L14060.2097,-4257.5798L14060.7803,-4257.5401L14061.9797,-4257.9666L14062.1796,-4258.0532L14062.5,-4258.1452"/>
<path content="BA010,1,1,JPN" xlink:title="BA010" d="M14000.3006,-4268.7332L13999.8795,-4269.0067L13999.6796,-4269.0533L13998.8907,-4269.2734L13998.3093,-4268.8934L13997.0901,-4269.1799L13995.3796,-4268.9068L13994.0506,-4268.98L13993.5898,-4268.9667L13993.28,-4268.8999L13992.5705,-4268.8999L13991.4001,-4268.38L13989.7003,-4267.9668L13988.1805,-4267.1333L13987.9898,-4267.0868L13987.97,-4267.0799L13987.8799,-4266.9868L13987.2299,-4266.6267L13987.1796,-4266.6267L13986.9095,-4266.6466L13986.5295,-4266.0332L13986.4609,-4265.9801L13986.2106,-4265.4335L13985.6506,-4264.9868L13985.5408,-4264.5866L13985.2905,-4263.9999L13984.9503,-4263.6932L13984.8404,-4263.7402L13984.7504,-4263.6002L13984.6802,-4263.4468L13984.5795,-4263.2332L13984.3597,-4263.2599L13984.1293,-4263.0333L13984.2606,-4262.8666L13984.1904,-4262.7666L13984.2102,-4262.6598L13983.8394,-4262.4599L13983.1894,-4262.2665L13982.7194,-4261.8732L13982.3395,-4261.38L13982.3593,-4260.5598L13982.6492,-4259.7332L13982.8506,-4259.6535L13982.3593,-4259.5066L13982.4905,-4259.3266L13982.7301,-4258.6533L13982.8003,-4258.1932L13982.8705,-4257.9067L13982.9498,-4257.6668L13983.2794,-4257.5401L13983.3099,-4257.0198L13983.6304,-4256.4068L13983.4595,-4256.1466L13983.7204,-4255.1334L13983.7494,-4255.0598L13983.8196,-4254.7531L13983.8608,-4254.2332L13984.6802,-4252.7401L13984.3201,-4250.98L13984.5993,-4250.3201L13984.3002,-4249.9466L13984.8999,-4249.3069L13984.7794,-4248.7L13984.7107,-4248.3398L13984.7794,-4248.0064L13985.1608,-4247.02L13985.2402,-4246.3001L13984.6802,-4245.7134L13984.4193,-4245.7333L13984.3002,-4245.3133L13984.3307,-4245.3068L13984.4498,-4245.6734L13984.7504,-4245.4533L13984.6207,-4245.4601L13984.79,-4244.7601L13984.4498,-4242.8467L13984.2697,-4242.5865L13984.1705,-4241.9865L13982.9208,-4239.3532L13982.2601,-4238.9L13981.8497,-4238.9999L13981.8298,-4238.4666L13981.5903,-4238.2065L13981.7108,-4237.92L13981.2607,-4237.4065L13980.7495,-4236.9068L13980.2597,-4236.6402L13980.0201,-4236.0535L13979.6295,-4235.8601L13979.4907,-4235.6934L13979.1702,-4235.7067L13978.7094,-4235.3668L13978.3295,-4235.36L13978.1799,-4235.3867L13977.6001,-4233.6533L13977.2705,-4232.8732L13977.4796,-4232.5264L13977.2903,-4232.3532L13977.1698,-4231.9801L13977.0508,-4231.8668L13976.9196,-4231.5601L13976.8997,-4231.2332L13976.68,-4231.1199L13976.8204,-4230.7667L13976.7105,-4230.6198L13976.8005,-4230.5L13976.7395,-4230.4932L13976.8906,-4230.3131L13977.5604,-4229.6799L13977.6398,-4229.1065L13977.9099,-4228.6934L13978.1296,-4228.36L13978.3997,-4228.2398L13978.4393,-4227.7733L13978.5706,-4227.4132L13978.2898,-4226.8269L13978.1097,-4226.8532L13977.5299,-4226.1868L13977.5101,-4226.0067L13977.8793,-4225.4868L13977.89,-4225.3201L13978.2303,-4225.1202L13978.4103,-4224.9931L13979.0009,-4224.1135L13979.4296,-4223.5535L13979.6906,-4223.1602L13980.0705,-4223.0064L13980.4504,-4222.9L13981.2607,-4222.9733L13981.4606,-4222.2534L13981.5094,-4222.1802L13981.6299,-4222.3068L13981.9901,-4222.3667L13982.84,-4222.4731L13983.2794,-4222.3267L13983.4106,-4222.3068L13983.5297,-4222.1199L13983.5403,-4222.1001L13984.3903,-4222.1535L13984.6298,-4222.0402L13985.0204,-4221.92L13985.4294,-4221.7201L13986.4197,-4221.9467L13987.1796,-4221.5267L13988.1195,-4220.76L13988.1104,-4220.2999L13988.1805,-4219.3199L13988.5895,-4219.0399L13988.8397,-4218.6665L13989.18,-4218.6932L13989.3204,-4218.38L13989.5905,-4218.4067L13989.6301,-4217.8932L13989.7202,-4217.6601L13989.7903,-4217.2867L13990.0101,-4217.26L13990.1901,-4216.9865L13990.1703,-4216.7065L13990.5304,-4216.5798L13990.7196,-4215.9733L13991.2598,-4215.2866L13991.2903,-4215.0932L13991.8396,-4214.2532L13992.0395,-4213.8535L13992.16,-4213.66L13992.1997,-4213.6066L13992.1402,-4213.4464L13992.2699,-4213.3533L13992.6895,-4213.3999L13992.7994,-4213.2668L13993.28,-4213.3999L13993.7805,-4213.1134L13996.0907,-4212.9932L13996.8796,-4213.1065L13997.3099,-4213.0264L13997.5296,-4212.8799L13999.0204,-4212.8933L13999.6796,-4212.4664L14000.1495,-4212.2532L14000.7004,-4212.08L14001.1795,-4212.1067L14002.6001,-4211.3266L14005.3894,-4208.6533L14005.6793,-4208.3401L14006.2195,-4207.46L14006.8604,-4206.7398L14006.8695,-4206.3534L14007.0999,-4206.0734L14007.3196,-4205.5L14007.4295,-4205.4932L14008.1406,-4204.8199L14008.5007,-4204.4731L14008.4396,-4204.3999L14008.6807,-4204.1866L14008.4305,-4203.8799L14008.3405,-4203.7067L14009.3094,-4203.6266L14009.61,-4203.3199L14009.5993,-4203.0266L14009.9899,-4202.8999L14010.1395,-4201.9264L14010.5606,-4201.5533L14010.4095,-4201.0868L14010.5499,-4200.7L14011.0397,-4200.7401L14011.9797,-4200.4334L14012.0605,-4200.3201L14012.1796,-4200.0668L14012.7701,-4198.0133L14013.2797,-4197.5868L14013.2202,-4196.9734L14012.7502,-4196.6599L14012.8403,-4195.9866L14013.2904,-4195.3133L14014.0503,-4192.2268L14014.0594,-4191.9868L14013.9603,-4191.0599L14013.6505,-4190.6601L14013.6292,-4190.1135L14013.9206,-4189.5065L14013.5406,-4189.04L14013.5193,-4188.9935L14013.0005,-4187.1399L14012.9196,-4187.2067L14012.6007,-4187.1067L14012.6404,-4186.9736L14012.3596,-4186.8801L14012.2299,-4186.94L14012.1796,-4186.7867L14012.0697,-4186.8599L14012.0193,-4186.7401L14011.5707,-4186.9133L14011.5005,-4187.1601L14011.3007,-4186.8332L14011.1206,-4186.3731L14011.6394,-4186.7535L14011.9705,-4186.6798L14012.1796,-4186.48L14012.6495,-4185.5865L14012.4207,-4184.9335L14012.5305,-4183.6533L14012.3306,-4182.5932L14012.1796,-4182.18L14011.2595,-4180.8266L14010.4599,-4180.4531L14009.8404,-4180.8601L14009.5306,-4181.02L14009.1293,-4180.9933L14009.0103,-4180.7934L14008.3099,-4180.9734L14007.5607,-4180.8132L14007.1808,-4180.5668L14007.0297,-4180.2933L14007.3502,-4179.8599L14007.2495,-4177.3533L14006.6101,-4175.9933L14006.1996,-4175.3201L14005.3497,-4174.2401L14005.0201,-4173.9067L14003.4607,-4172.0066L14002.7496,-4171.5199L14002.5101,-4170.8065L14002.24,-4170.6932L14001.8204,-4170.0932L14000.9003,-4169.1601L14000.7706,-4168.1801L14000.3906,-4167.12L14000.4303,-4166.9868L14000.2899,-4165.8932L14000.2197,-4165.8001L14000.1907,-4165.1402L13999.6994,-4164.9734L13999.8993,-4164.2933L13999.6796,-4164.0335L13999.2599,-4163.6269L13999.3805,-4163.0867L13998.6496,-4161.4735L13998.3902,-4160.6468L13998.3307,-4159.3266L13998.4406,-4158.8799L13998.3597,-4158.6533L13998.3307,-4158.44L13998.4497,-4157.2201L13998.6603,-4156.4331L13998.5992,-4156.0799L13998.6801,-4155.5466L13998.79,-4155.2399L13998.6099,-4155.1731L13998.6603,-4155.0999L13998.8205,-4155.1266L13999.1898,-4154.5334L13999.1501,-4154.48L13999.1196,-4154.4998L13998.9502,-4154.5334L13999.3408,-4154.2465L13999.6796,-4154.1534L14000.2304,-4152.9133L14000.4196,-4152.3266L14000.8301,-4151.6533L14000.9506,-4151.1734L14001.1002,-4150.9735L14001.3306,-4150.84L14001.3596,-4150.3201L14001.7197,-4149.86L14001.6098,-4148.98L14001.9897,-4148.6267L14002.2507,-4148.3799L14002.3102,-4148.2265L14002.3804,-4148.0534L14002.4002,-4148.0133L14002.42,-4147.9668L14002.9495,-4147.0665L14002.8503,-4146.2399L14003.7399,-4145.2667L14003.7598,-4145.1267L14004.0894,-4145.0466L14004.0894,-4144.78L14004.9103,-4144.5732L14005.8807,-4143.9331L14007.3303,-4142.8333L14007.7103,-4142.4599L14008.5495,-4142.3065L14008.6899,-4142.0601L14008.8699,-4141.9868L14008.9096,-4141.84L14009.0591,-4141.9868L14008.7692,-4142.1665L14009.1003,-4142.2333L14009.3994,-4142.54L14010.2997,-4142.68L14010.8093,-4142.7467L14011.3495,-4142.7799L14011.9797,-4143.0466L14012.1796,-4143.0199L14012.6297,-4143.0267L14013.0707,-4143.1L14013.8,-4142.7734L14014.5294,-4142.9066L14015.3198,-4142.5533L14016.2796,-4141.9868L14016.7801,-4141.6668L14018.4509,-4140.2401L14019.9493,-4139.8602"/>
<path content="BA010,1,1,JPN" xlink:title="BA010" d="M14060.2905,-4330.7331L14060.3592,-4330.8533L14060.0998,-4330.88L14060.0403,-4330.7598L14060.2905,-4330.7331"/>
<path content="BA010,1,1,JPN" xlink:title="BA010" d="M14062.5,-4329.5852L14062.1796,-4329.6867L14061.7706,-4329.76L14060.6903,-4329.6734L14060.3897,-4329.8199L14060.4507,-4329.9599L14060.2997,-4330.0533L14060.2295,-4330.1201L14060.2005,-4330.2666L14060.4202,-4330.3333L14060.0998,-4330.3867L14059.7595,-4330.2799L14059.5795,-4330.3398L14059.1995,-4330.6198L14059.05,-4330.9864L14058.6594,-4330.8601L14058.4503,-4330.9864L14058.1802,-4331.1401L14058.0505,-4331.1333L14057.37,-4331.8733L14057.2601,-4332.0332L14057.0297,-4332.3265L14056.9397,-4332.4001L14056.4102,-4332.4665L14056.2805,-4332.6733L14055.7892,-4332.98L14055.7098,-4333.0334L14054.8798,-4333.6533L14054.8203,-4333.9333L14054.6097,-4333.9066L14054.1,-4334.0332L14053.9597,-4334.4868L14053.7796,-4334.4933L14053.1601,-4334.94L14052.7206,-4335.5736L14052.8595,-4335.9001L14052.71,-4335.9867L14051.4404,-4335.7601L14050.9506,-4336.0199L14050.6805,-4336.8267L14050.1801,-4337.1201L14049.9802,-4337.0934L14049.6796,-4337.3467L14049.2493,-4337.3268L14049.1806,-4337.4065L14049.0402,-4337.4268L14048.9105,-4337.4268L14048.5306,-4337.5935L14048.4406,-4337.5267L14048.0896,-4337.6469L14047.5708,-4337.4065L14047.3907,-4337.4733L14047.1207,-4337.36L14046.9696,-4337.3936L14046.7804,-4337.3867L14046.6202,-4337.4001L14046.2799,-4337.2398L14046.1899,-4336.8801L14046.9208,-4336.6535L14047.11,-4336.5532L14046.6705,-4336.2934L14046.3196,-4335.4733L14045.9595,-4334.9869L14046.0403,-4334.6001L14045.3705,-4334.1801L14045.1996,-4333.9466L14044.6594,-4333.6533L14042.4805,-4332.9731L14041.33,-4333.3332L14041.1392,-4333.4599L14040.8493,-4333.4064L14040.6204,-4333.6132L14040.3503,-4333.3866L14040.1794,-4333.3935L14040.0192,-4333.1265L14039.8605,-4333.1467L14039.5996,-4333.1333L14039.36,-4333.3866L14039.1602,-4333.2798L14039.0793,-4333.3065L14037.9196,-4333.0467L14037.5305,-4333.3534L14037.3795,-4333.1867L14037.1796,-4333.1932L14036.6302,-4333.1467L14036.5799,-4333.2001L14036.2793,-4333.1867L14035.8505,-4333.3L14035.1807,-4333.2932L14034.6603,-4333.4465L14035.6506,-4332.5867L14036.0001,-4331.5731L14035.73,-4331.3599L14035.5698,-4330.9265L14035.3897,-4329.9332L14035.0601,-4329.4666L14034.5398,-4328.3733L14034.1705,-4328.2398L14033.9706,-4328.3333L14033.9096,-4328.2932L14033.7509,-4328.3001L14033.6899,-4328.2665L14033.7402,-4328.2001L14034.0393,-4327.9198L14034.4193,-4327.6398L14034.2102,-4327.1534L14033.9493,-4327.1599L14033.9203,-4326.8799L14034.0805,-4326.6068L14033.58,-4326.3798L14033.4,-4326.3931L14033.1894,-4326.1665L14033.0505,-4326.2264L14032.8293,-4325.9464L14033.1894,-4326.0864L14033.4503,-4325.7069L14033.6594,-4325.5199L14033.3298,-4325.3201L14033.3908,-4324.9199L14033.3298,-4324.4469L14033.0994,-4323.8869L14032.6401,-4322.9332L14032.5699,-4322.3267L14032.6004,-4322.1733L14032.9697,-4321.8201L14033.4793,-4321.2933L14033.7204,-4321.22L14033.9294,-4321.0598L14033.9706,-4320.8267L14034.1705,-4320.5532L14034.6695,-4319.9268L14034.52,-4319.8334L14034.4696,-4319.7601L14034.79,-4319.64L14034.9106,-4319.2066L14035.5408,-4318.6134L14036.0306,-4318.1465L14036.0703,-4318.0668L14036.8408,-4317.6998L14037.1796,-4317.5667L14037.1796,-4317.5266L14037.1796,-4317.4866L14037.1796,-4317.4599L14037.1796,-4317.4L14037.2803,-4317.3866L14037.4695,-4317.2665L14037.6495,-4317.0334L14037.8998,-4316.9868L14038.9404,-4316.3666L14040.3702,-4315.7932L14042.2501,-4314.5267L14042.4805,-4314.3734L14043.0206,-4314.3002L14043.0008,-4313.9465L14042.8802,-4313.7066L14043.1305,-4313.3934L14043.3395,-4313.2866L14043.5593,-4313.1199L14043.7195,-4313.1332L14043.8004,-4312.9398L14044.0598,-4312.9066L14044.1193,-4312.8132L14044.2291,-4312.7998L14044.2291,-4312.7266L14044.3695,-4312.5999L14044.2001,-4312.5599L14044.2596,-4312.3867L14044.4305,-4312.2868L14044.5404,-4311.9667L14044.5602,-4311.9469L14044.7693,-4311.4468L14045.0699,-4311.3731L14045.0104,-4310.9734L14045.6604,-4310.6869L14045.9595,-4310.5465L14046.2494,-4309.7L14046.46,-4308.8665L14046.4401,-4308.7734L14046.46,-4308.7067L14046.46,-4308.6533L14046.8399,-4308.3801L14047.11,-4308.2535L14047.7798,-4308.16L14047.9904,-4307.9666L14048.3704,-4307.7198L14048.6801,-4307.5531L14049.0906,-4306.9599L14049.5407,-4306.4201L14049.4705,-4306.1401L14049.6796,-4305.8998L14050.1297,-4305.32L14050.6805,-4304.3667L14050.8698,-4304.2999L14050.6699,-4303.7266L14050.8698,-4303.82L14051.1703,-4303.4466L14051.1993,-4303.4199L14051.7197,-4303.3066L14052.2507,-4303.2265L14052.6306,-4303.2131L14052.9007,-4302.8801L14052.9007,-4300.7065L14052.8397,-4300.3201L14052.24,-4299.1669L14051.6602,-4298.88L14051.4694,-4298.9399L14051.5396,-4298.6801L14051.2299,-4298.7801L14051.1703,-4298.6935L14051.5305,-4298.6465L14051.5198,-4298.6267L14051.3596,-4298.4665L14050.9094,-4298.6801L14050.7401,-4298.6332L14050.6805,-4298.6134L14050.1404,-4298.1266L14049.6796,-4297.9599L14048.9899,-4297.7066L14048.4497,-4297.3732L14045.2194,-4295.8401L14045.0897,-4295.8401L14044.8303,-4295.5265L14043.3197,-4294.96L14043.0405,-4294.9665L14041.5405,-4294.0998L14041.1606,-4293.3666L14040.3702,-4292.8268L14040.0604,-4292.5266L14039.9597,-4292.4267L14039.4592,-4292.3134L14039.0503,-4292.3199L14039.1495,-4291.9865L14038.1195,-4290.6532L14037.9303,-4290.4266L14037.7594,-4290.4266L14037.6999,-4290.2134L14037.6907,-4289.6133L14037.1796,-4288.9668L14036.3098,-4287.8067L14036.1298,-4287.8132L14035.9894,-4287.7869L14035.8902,-4287.8399L14035.7498,-4287.1601L14034.3994,-4285.6201L14032.8705,-4284.5734L14032.6904,-4284.5665L14032.1793,-4283.9802L14031.5399,-4283.6533L14030.8701,-4283.0933L14030.6396,-4282.9666L14030.5695,-4282.88L14030.4504,-4281.1199L14030.9402,-4279.8733L14030.9402,-4279.3934L14030.5496,-4277.8732L14028.0899,-4277.0134L14025.6104,-4276.8269L14024.6796,-4276.8799L14024.0402,-4277.7401L14023.7701,-4278.8334L14023.7595,-4279.3865L14023.3398,-4279.6001L14023.3902,-4279.62L14023.41,-4279.6333L14023.4894,-4279.7134L14022.9202,-4279.8534L14022.58,-4280.5199L14020.4895,-4281.0398L14019.7403,-4281.6868L14018.9499,-4282.6L14018.8095,-4282.5401L14018.6295,-4282.7801L14018.6493,-4282.5733L14018.5104,-4282.3666L14018.0496,-4281.72L14017.9794,-4281.7867L14017.839,-4281.3667L14017.3599,-4280.7266L14016.9495,-4280.4333L14016.4703,-4279.6398L14016.0797,-4279.4533L14014.7491,-4277.0733L14015.0696,-4276.6731L14014.5599,-4275.6668L14014.1998,-4275.3201L14013.6597,-4275.0668L14013.4506,-4275.0866L14012.9303,-4274.7334L14012.3505,-4274.7398L14012.1796,-4274.7398L14011.5707,-4274.6334L14011.3296,-4274.6334L14011.5601,-4274.3465L14011.4105,-4274.2332L14010.9695,-4274.0734L14010.73,-4274.1936L14010.5896,-4274.0269L14010.7101,-4273.7732L14009.8007,-4273.6465L14009.4299,-4273.6668L14008.4106,-4273.0865L14008.2001,-4273.1266L14007.9605,-4272.9336L14007.6401,-4272.6265L14007.4295,-4272.8199L14007.1503,-4272.62L14006.8298,-4272.0932L14006.8695,-4271.8067L14006.5094,-4271.2135L14006.4896,-4270.7001L14005.7495,-4270.2667L14004.6005,-4269.4733L14002.9495,-4268.8866L14002.6505,-4268.8732L14002.4002,-4269.0735L14002.2995,-4269.1601L14001.9897,-4269.12L14001.7807,-4269.1734L14001.6708,-4268.9465L14000.3006,-4268.7332"/>
<path content="BA010,1,1,JPN" xlink:title="BA010" d="M13940.1813,-4217.8312L13940.3648,-4217.5751L13940.4778,-4217.5085"/>
<path content="BA010,1,1,JPN" xlink:title="BA010" d="M13940.4778,-4217.5085L13940.4919,-4217.4967L13940.5988,-4217.4076L13940.7158,-4217.5791L13940.5504,-4217.7344L13940.1813,-4217.8312"/>
</g>
</svg>
