<?xml version="1.0" encoding="UTF-8"?>
<svg  xmlns="http://www.w3.org/2000/svg" xmlns:xlink="http://www.w3.org/1999/xlink" xmlns:go="http://purl.org/svgmap/profile" property="f_code,acc,exs,soc" viewBox="11250.0 -3375.0 1125.0 1125.0" go:dataArea="11250.0 -3375.0 1125.0 1125.0" >
<metadata>
 <rdf:RDF xmlns:rdf="http://www.w3.org/1999/02/22-rdf-syntax-ns#" xmlns:crs="http://opengis.org/xmldtds/transformations.dtd" xmlns:svg="http://www.w3.org/svg" >
  <rdf:Description>
   <crs:CoordinateReferenceSystem rdf:resource="http://purl.org/crs/84" svg:transform="matrix(100.0,0.0,0.0,-100.0,0.0,0.0)" />
  </rdf:Description>
 </rdf:RDF>
</metadata>
<globalCoordinateSystem srsName="http://purl.org/crs/84" transform="matrix(100.0,0.0,0.0,-100.0,0.0,0.0)" />
<defs>
 <g id="p0" >
  <circle cx="0.0" cy="0.0" r="3" stroke="green" stroke-width="2.0" vector-effect="non-scaling-stroke" />
 </g>
</defs>
<g fill="none" fill-rule="evenodd" stroke="#000000" stroke-width="2" opacity="0.5" vector-effect="non-scaling-stroke" stroke-linejoin="bevel" >
<path content="BA010,1,1,JPN" xlink:title="BA010" d="M12355.3795,-2419.1401L12356.0402,-2419.2266L12356.7703,-2419.4334L12356.6498,-2419.5267L12356.3103,-2419.4933L12356.2698,-2419.5665L12355.9502,-2419.3933L12355.3795,-2419.1401"/>
<path content="BA010,1,1,JPN" xlink:title="BA010" d="M12373.9403,-2434.4933L12374.2599,-2434.82L12374.1302,-2435.38L12373.7495,-2435.7532L12372.9897,-2436.0533L12373.1102,-2436.2598L12373.1697,-2436.3533L12372.9103,-2436.4466L12372.67,-2436.2133L12372.2504,-2436.3733L12372.3701,-2435.6733L12373.9403,-2434.4933"/>
<path content="BA010,1,1,JPN" xlink:title="BA010" d="M12371.7102,-2436.4399L12371.8201,-2436.5465L12371.92,-2436.5067L12371.8796,-2437.2L12372.2298,-2437.5866L12372.6997,-2437.5401L12372.6898,-2437.66L12372.2504,-2437.9L12371.0899,-2437.5866L12370.9999,-2436.9467L12371.7102,-2436.4399"/>
<path content="BA010,1,1,JPN" xlink:title="BA010" d="M12375,-2440.2258L12374.9397,-2440.18L12375,-2440.0351M12375,-2439.08L12375,-2439.08L12374.6796,-2439.0266L12374.4301,-2439.3L12374.16,-2439.2933L12374.1997,-2438.7268L12374.4598,-2438.7466L12374.6796,-2438.0867L12375,-2437.6062M12375,-2437.2978L12374.6796,-2436.9534L12374.1302,-2436.7332L12374.4797,-2435.8534L12374.6796,-2435.8932L12375,-2435.8018M12375,-2434.8155L12374.7498,-2434.8932L12374.6796,-2434.6733L12374.35,-2434.1066L12374.6796,-2433.8266L12374.8596,-2433.6533L12374.6796,-2433.2132L12374.5399,-2432.1466L12374.6796,-2431.9201L12374.9901,-2431.1733L12374.6796,-2431.0667L12374.1402,-2431.9532L12374.0501,-2431.8201L12373.88,-2431.9799L12373.4901,-2432.7734L12373.4596,-2433.0267L12373.13,-2433.0334L12372.7699,-2432.84L12372.7501,-2433.6533L12372.6799,-2434.1467L12372.3,-2434.2133L12372.02,-2433.7999L12371.83,-2433.6533L12371.3501,-2433.3868L12371.3402,-2432.8266L12371.2997,-2432.7801L12370.9099,-2433.1533L12370.7703,-2433.6533L12370.43,-2433.9998L12370.2896,-2434.5467L12370.34,-2434.7668L12370.1698,-2434.84L12369.8502,-2434.5467L12369.9898,-2433.6533L12370.6703,-2432.2468L12370.7596,-2431.7533L12370.9702,-2431.6134L12370.7001,-2431.2666L12370.4102,-2431.4466L12370.1302,-2431.2866L12370.1897,-2431.9933L12369.7304,-2432.5399L12368.8896,-2432.8867L12368.3197,-2433.1333L12367.8398,-2432.1066L12368.19,-2432.04L12368.3601,-2431.1399L12368.5097,-2430.9465L12368,-2430.6868L12367.6697,-2431.16L12367.2401,-2431.0934L12366.8297,-2431.2599L12366.2201,-2430.9465L12366.0202,-2430.7068L12367.9703,-2428.1933L12369.0399,-2428.1532L12369.5297,-2428.2398L12370.5597,-2427.7267L12371.7201,-2427.7468L12371.9002,-2428.78L12372.0398,-2429.8599L12373.5802,-2429.2866L12373.9197,-2428.82L12374.6796,-2428.3667L12375,-2428.1615"/>
<path content="BA010,1,1,JPN" xlink:title="BA010" d="M12301.1604,-2443.7183L12300.8209,-2443.8184L12300.4807,-2444.0052L12300.0511,-2444.0717L12299.7719,-2443.9689L12298.8847,-2444.0616L12298.3604,-2444.2916L12298.291,-2443.9784L12298.201,-2443.905L12297.7104,-2443.8652L12297.361,-2444.065L12297.3907,-2443.7252L12296.6335,-2443.7438L12295.771,-2444.1451L12295.3407,-2444.1184L12294.9608,-2444.345L12293.9982,-2444.4191L12293.3493,-2444.8164L12293.4509,-2445.0717L12293.9507,-2444.8184L12294.4305,-2445.2318L12293.879,-2445.1342L12294.1704,-2445.6785L12295.3308,-2446.1183L12295.5109,-2446.5717L12296.2509,-2447.285L12297.0505,-2446.9049L12297.451,-2446.7651L12298.2506,-2446.9049L12298.391,-2446.8984L12299.4308,-2447.2984L12299.9207,-2446.9783L12300.0511,-2446.9917L12300.4311,-2447.385L12300.7309,-2447.3783L12301.091,-2447.3783L12301.6609,-2447.0983L12301.8311,-2447.0983L12303.7003,-2446.3649L12304.2107,-2446.405L12304.3709,-2446.1517L12303.6308,-2445.7651L12303.3104,-2445.2716L12302.9502,-2445.0283L12302.2903,-2444.6718L12301.1604,-2443.7183"/>
<path content="BA010,1,1,JPN" xlink:title="BA010" d="M12355.5569,-2572.0831L12355.3273,-2572.0409L12355.0976,-2572.1014L12354.963,-2572.1212L12354.7616,-2572.2002L12354.4961,-2572.2534L12354.5071,-2572.3299L12354.4899,-2572.4127L12354.5665,-2572.4843L12354.8772,-2572.5565L12355.1038,-2572.5523L12355.247,-2572.446L12355.3051,-2572.4399L12355.462,-2572.325L12355.5027,-2572.2225L12355.5311,-2572.2052L12355.5569,-2572.0831"/>
<path content="BA010,1,1,JPN" xlink:title="BA010" d="M12354.2386,-2572.5325L12354.162,-2572.5893L12354.1609,-2572.6827L12353.9187,-2573.1513L12353.7791,-2573.1809L12354.1311,-2573.4539L12354.2003,-2573.4329L12354.1422,-2573.3662L12354.3189,-2573.0438L12354.4177,-2572.9302L12354.5597,-2572.9067L12354.4905,-2572.7252L12354.4683,-2572.6177L12354.2386,-2572.5325"/>
<path content="BA010,1,1,JPN" xlink:title="BA010" d="M12350.6521,-2573.5537L12350.6605,-2573.551L12350.6711,-2573.5439L12350.672,-2573.5302L12350.6596,-2573.5355L12350.6463,-2573.5444L12350.6521,-2573.5537"/>
<path content="BA010,1,1,JPN" xlink:title="BA010" d="M12350.5866,-2573.59L12350.5974,-2573.5846L12350.6032,-2573.5718L12350.6251,-2573.5593L12350.6184,-2573.5481L12350.5998,-2573.5532L12350.5796,-2573.5728L12350.5833,-2573.5795L12350.5866,-2573.59"/>
<path content="BA010,1,1,JPN" xlink:title="BA010" d="M12346.045,-2573.5263L12345.8647,-2573.721L12345.8076,-2573.9925L12345.9178,-2574.2256L12346.1764,-2574.535L12346.6511,-2574.8487L12347.6387,-2575.1708L12347.8675,-2575.086L12348.3351,-2574.9676L12348.5548,-2574.9676L12348.9017,-2574.7893L12349.3246,-2574.4677L12349.351,-2574.2595L12349.185,-2574.1677L12348.8339,-2574.0688L12348.0047,-2574.1076L12347.9154,-2574.1543L12347.5347,-2573.9344L12347.415,-2573.8409L12347.3249,-2573.881L12346.8954,-2573.6811L12346.4519,-2573.4966L12346.045,-2573.5263"/>
<path content="BA010,1,1,JPN" xlink:title="BA010" d="M12356.624,-2575.5264L12356.6332,-2575.5442L12356.6541,-2575.5448L12356.6756,-2575.5184L12356.7063,-2575.527L12356.756,-2575.543L12356.7996,-2575.5467L12356.7873,-2575.5246L12356.7388,-2575.492L12356.7069,-2575.4853L12356.6726,-2575.4871L12356.635,-2575.5061L12356.624,-2575.5264"/>
<path content="BA010,1,1,JPN" xlink:title="BA010" d="M12354.103,-2577.9272L12354.1494,-2577.9299L12354.184,-2577.9207L12354.1879,-2577.8998L12354.1318,-2577.8848L12354.0893,-2577.8848L12354.0612,-2577.9076L12354.103,-2577.9272"/>
<path content="BA010,1,1,JPN" xlink:title="BA010" d="M12353.9505,-2577.9519L12354.0063,-2577.9455L12354.0403,-2577.922L12354.0468,-2577.8795L12353.9952,-2577.8763L12353.9449,-2577.909L12353.9344,-2577.9344L12353.9505,-2577.9519"/>
<path content="BA010,1,1,JPN" xlink:title="BA010" d="M12354.3735,-2578.218L12354.4911,-2578.0997L12354.4081,-2578.0795L12354.3447,-2578.0298L12354.3304,-2578.037L12354.3657,-2578.0827L12354.3598,-2578.1285L12354.3474,-2578.1996L12354.3735,-2578.218"/>
<path content="BA010,1,1,JPN" xlink:title="BA010" d="M12368.3435,-2591.9192L12368.1118,-2591.9162L12367.8339,-2592.0525L12367.7423,-2592.2433L12367.6149,-2592.3176L12367.6241,-2592.3991L12367.8039,-2592.6829L12368.0163,-2592.8401L12368.1642,-2592.8658L12368.2775,-2592.8698L12368.3752,-2592.8231L12368.7638,-2592.4259L12368.8446,-2592.2199L12368.7838,-2592.0525L12368.4435,-2591.9325L12368.3435,-2591.9192"/>
</g>
</svg>
