<?xml version="1.0" encoding="UTF-8"?>
<svg  xmlns="http://www.w3.org/2000/svg" xmlns:xlink="http://www.w3.org/1999/xlink" xmlns:go="http://purl.org/svgmap/profile" property="f_code,acc,exs,soc" viewBox="12375.0 -3937.5 562.5 562.5" go:dataArea="12375.0 -3937.5 562.5 562.5" >
<metadata>
 <rdf:RDF xmlns:rdf="http://www.w3.org/1999/02/22-rdf-syntax-ns#" xmlns:crs="http://opengis.org/xmldtds/transformations.dtd" xmlns:svg="http://www.w3.org/svg" >
  <rdf:Description>
   <crs:CoordinateReferenceSystem rdf:resource="http://purl.org/crs/84" svg:transform="matrix(100.0,0.0,0.0,-100.0,0.0,0.0)" />
  </rdf:Description>
 </rdf:RDF>
</metadata>
<globalCoordinateSystem srsName="http://purl.org/crs/84" transform="matrix(100.0,0.0,0.0,-100.0,0.0,0.0)" />
<defs>
 <g id="p0" >
  <circle cx="0.0" cy="0.0" r="3" stroke="green" stroke-width="2.0" vector-effect="non-scaling-stroke" />
 </g>
</defs>
<g fill="none" fill-rule="evenodd" stroke="#000000" stroke-width="2" opacity="0.5" vector-effect="non-scaling-stroke" stroke-linejoin="bevel" >
<path content="BA010,1,1,JPN" xlink:title="BA010" d="M12924.2004,-3409.6333L12924.2996,-3409.8999L12923.8693,-3410.0201L12923.8495,-3409.7801L12924.2004,-3409.6333"/>
<path content="BA010,1,1,JPN" xlink:title="BA010" d="M12935.9207,-3427.1198L12935.3806,-3427.6531L12934.7397,-3428.4668L12934.7397,-3428.6732L12935.0601,-3428.6533L12935.1501,-3428.6068L12935.2905,-3428.6469L12935.2295,-3428.9532L12935.2798,-3429.0134L12935.1807,-3429.1332L12935.0403,-3429.4201L12935.2997,-3429.4067L12935.6094,-3429.7932L12935.9207,-3429.4601L12935.7605,-3429.9068L12936.0901,-3429.9133L12936.3693,-3429.7466L12936.2396,-3429.9599L12936.3297,-3429.9934L12936.6699,-3429.9732L12936.9003,-3430.2536L12936.9705,-3429.8599L12937.0895,-3429.7134L12937.1796,-3429.7932L12937.2406,-3429.5734L12937.5,-3429.2133L12937.4603,-3429.52L12937.4008,-3429.6532L12937.5,-3429.6378M12937.5,-3429.8106L12937.4496,-3429.9L12937.1796,-3430.0999L12937.1796,-3430.1266L12937.2803,-3430.1067L12937.2803,-3430.3135L12937.5,-3430.2756M12937.5,-3428.0896L12937.1796,-3427.8133L12936.7294,-3427.8133L12935.9207,-3427.1198"/>
<path content="BA010,1,1,JPN" xlink:title="BA010" d="M12932.0999,-3429.9534L12932.0999,-3430.0869L12931.9397,-3430.2334L12932.5394,-3430.46L12932.8094,-3430.6133L12932.7896,-3430.5401L12932.6996,-3430.32L12932.6401,-3430.4001L12932.4493,-3430.1334L12932.37,-3430.1933L12932.0999,-3429.9534"/>
<path content="BA010,1,1,JPN" xlink:title="BA010" d="M12921.3394,-3408.3866L12921.5805,-3408.6533L12921.9299,-3408.9268L12921.8506,-3409.6333L12922.3099,-3409.7401L12922.7203,-3409.4868L12922.8897,-3409.5734L12922.9706,-3410.3535L12923.0103,-3410.8269L12922.9401,-3411.1401L12922.9309,-3411.1465L12922.9401,-3411.1599L12923.2895,-3411.3998L12923.5596,-3410.9734L12923.7,-3410.4L12923.8297,-3410.2066L12924.0005,-3410.3065L12924.1196,-3410.4465L12924.4797,-3410.6335L12924.6002,-3411.2267L12924.6796,-3411.2534L12925.1099,-3411.0867L12925.3906,-3411.0065L12925.9796,-3411.4864L12926.1505,-3412.2131L12925.8102,-3412.3268L12925.3204,-3412.6133L12925.9201,-3412.8399L12926.4603,-3412.6465L12927.5208,-3412.8532L12927.4704,-3413.2599L12927.7802,-3413.1931L12928.1006,-3413.0333L12927.9907,-3413.4132L12927.8503,-3413.5399L12927.42,-3414.3734L12927.3499,-3414.5935L12927.71,-3414.5134L12927.9297,-3414.4733L12928.4103,-3414.5332L12927.9907,-3415.4202L12928.1998,-3415.7398L12928.36,-3415.7867L12928.1601,-3416.42L12928.5706,-3416.5134L12929.4495,-3416.0732L12929.4495,-3416.98L12929.3793,-3416.9865L12929.5593,-3417.3801L12929.1794,-3417.58L12928.7903,-3417.5667L12929.1504,-3417.9401L12929.5502,-3417.9665L12929.6097,-3418.6668L12929.3396,-3418.6668L12929.1199,-3419.1002L12928.8101,-3418.9865L12928.5904,-3418.7267L12928.4698,-3418.7733L12928.3096,-3418.7599L12928.8101,-3419.6934L12928.7292,-3419.9867L12928.9795,-3419.9936L12929.1901,-3419.5999L12929.6295,-3419.4935L12929.8203,-3419.4134L12929.8096,-3419.9135L12929.8004,-3420.06L12929.8599,-3420.2267L12929.9805,-3420.2133L12929.9805,-3420.6135L12930.1895,-3420.94L12930.2704,-3421.1533L12930.1392,-3421.1735L12929.8996,-3421.1735L12929.48,-3421.5733L12929.8004,-3422.2733L12929.9698,-3422.2332L12930.04,-3422.16L12930.13,-3422.3267L12930.3497,-3422.0333L12930.5206,-3421.5866L12931.2195,-3421.9399L12931.3004,-3422.1401L12931.8298,-3422.48L12931.81,-3422.6334L12932.0801,-3422.5666L12932.4799,-3422.6002L12932.3196,-3423.04L12932.0694,-3423.1667L12931.72,-3423.1468L12932.0496,-3423.4467L12932.2403,-3423.4867L12931.8802,-3423.9468L12931.7108,-3423.9067L12931.4896,-3424.3935L12931.5994,-3424.8333L12931.7596,-3425.3201L12931.9702,-3425.4467L12932.2006,-3425.5531L12932.2906,-3425.8667L12931.9702,-3425.8999L12931.5994,-3426.2268L12931.8298,-3426.3134L12932.0602,-3426.1269L12932.1701,-3426.2798L12932.28,-3426.1932L12932.5195,-3426.2199L12932.4402,-3426.5331L12932.4997,-3426.7933L12932.7194,-3427.1732L12932.8506,-3427.5932L12933.0399,-3427.4334L12933.2001,-3427.4467L12933.3801,-3427.14L12933.9294,-3427.6402L12934.4604,-3427.7935L12934.79,-3427.6798L12935.2005,-3427.7466L12934.5306,-3428.5934L12934.7504,-3428.8002L12934.8892,-3429.0867L12934.8099,-3429.2599L12934.7702,-3429.5734L12934.7198,-3429.7199L12934.5108,-3429.3602L12934.3307,-3429.1866L12934.4696,-3429.4933L12934.3094,-3429.5002L12934.2392,-3429.6734L12933.8699,-3429.9465L12933.7494,-3429.76L12933.7692,-3429.6799L12933.9294,-3429.5399L12933.8806,-3429.5002L12933.9798,-3429.2999L12933.6105,-3429.2599L12933.3405,-3428.9867L12933.1604,-3429.0668L12933.0704,-3429.1199L12933.2397,-3429.1134L12933.2901,-3429.2332L12933.4,-3429.2133L12933.371,-3429.4266L12933.5098,-3429.4865L12933.2703,-3429.76L12933.0399,-3429.8267L12932.8308,-3429.6932L12933.0597,-3429.7066L12932.9498,-3429.5532L12932.7896,-3429.5666L12932.2403,-3429.3999L12931.8802,-3429.66L12931.7398,-3429.7333L12931.7398,-3429.7066L12931.6193,-3429.7134L12931.5094,-3429.4865L12931.5994,-3429.5399L12931.8298,-3429.4334L12931.5506,-3429.2934L12931.3004,-3429.0867L12931.2408,-3428.9867L12931.4606,-3428.9867L12931.3004,-3428.7666L12931.6299,-3428.8799L12931.3507,-3428.5866L12931.5903,-3428.6732L12931.5598,-3428.6133L12931.6803,-3428.6266L12931.6498,-3428.5332L12931.7795,-3428.5465L12931.8497,-3428.3199L12931.6299,-3428.36L12931.0699,-3428.4065L12931.4606,-3428.0533L12931.3904,-3427.98L12931.6895,-3427.6867L12931.3904,-3427.8198L12930.9601,-3428.3199L12930.9601,-3428.7533L12930.7709,-3428.7601L12930.7999,-3428.8734L12930.4901,-3428.6667L12930.5603,-3428.4935L12930.5405,-3428.4L12930.6793,-3428.4065L12930.5695,-3428.36L12930.4703,-3428.2066L12930.4199,-3428.26L12930.3192,-3428.1334L12930.5206,-3428.0399L12930.4901,-3428.0201L12930.4596,-3427.7199L12930.1804,-3428.1868L12929.9606,-3428.1666L12929.8401,-3428.2398L12929.8203,-3428.4668L12930.2399,-3429.4399L12930.13,-3429.48L12930.0797,-3429.5467L12930.2094,-3429.5399L12930.4199,-3429.5067L12930.3696,-3429.6268L12929.9805,-3429.66L12930.04,-3430.0068L12930.5801,-3430.6L12930.8395,-3430.5668L12930.8594,-3430.7068L12930.8701,-3430.7667L12930.6503,-3430.8266L12930.5405,-3430.9933L12930.3406,-3430.7732L12930.2795,-3430.6332L12930.13,-3430.9265L12929.9606,-3430.4932L12929.95,-3430.3532L12929.95,-3430.2868L12929.6295,-3430.0667L12929.6906,-3430.2666L12929.4998,-3430.5332L12929.6295,-3430.5267L12929.7302,-3430.8933L12929.5502,-3431.0333L12929.2404,-3431.0265L12929.2404,-3431.3065L12929.1,-3431.4533L12929.1702,-3431.5533L12929.3701,-3431.9733L12929.1992,-3431.8466L12929.0695,-3431.7665L12928.6407,-3431.3469L12928.5492,-3431.3999L12928.8101,-3431.8733L12928.5492,-3432.0667L12928.2898,-3431.6067L12928.1692,-3431.6399L12928.1509,-3431.5735L12927.8397,-3431.7734L12928.0502,-3432.1533L12927.8503,-3432.2865L12927.6596,-3432.6199L12927.4597,-3432.4135L12927.7206,-3432.14L12927.5497,-3432.1999L12927.5803,-3432.0732L12927.2705,-3432.2468L12927.0401,-3432.3532L12927.0096,-3432.1999L12926.7105,-3432.1667L12926.6006,-3432.7866L12926.5106,-3432.0267L12926.8799,-3431.7932L12927.0294,-3431.8668L12927.2705,-3431.7532L12927.1805,-3431.6132L12927.1103,-3431.6734L12927.0798,-3431.5266L12927.33,-3431.1932L12927.3804,-3430.9799L12927.8,-3431.3732L12927.9404,-3431.3534L12927.6108,-3431.0402L12928.1204,-3430.5733L12928.3905,-3430.8533L12928.5492,-3430.6934L12928.7994,-3430.4535L12928.4897,-3430.4733L12928.3005,-3429.7733L12928.4393,-3429.8L12928.5797,-3429.5933L12928.7399,-3429.6001L12929.01,-3429.2202L12929.1107,-3429.1069L12929.01,-3429.0466L12928.9505,-3429.1L12928.4302,-3429.0001L12928.4805,-3428.9402L12928.6194,-3428.5L12929.1199,-3428.0266L12928.9703,-3427.6867L12928.7399,-3428.1399L12928.1509,-3428.4866L12928.1601,-3429.2801L12928.36,-3429.2667L12928.45,-3429.4334L12927.8198,-3429.6867L12928.1403,-3430.2601L12927.9205,-3430.5935L12926.6296,-3430.5065L12926.5701,-3430.3402L12926.4496,-3430.3066L12926.3504,-3429.9934L12926.2207,-3429.9133L12926.1398,-3429.5933L12926.1505,-3429.2667L12926.0208,-3429.0668L12925.6897,-3429.1599L12925.7797,-3429.6665L12925.9094,-3430.0266L12925.09,-3429.8668L12925.1297,-3430.2734L12925.2106,-3430.2467L12925.6302,-3430.2734L12925.47,-3430.5065L12925.7004,-3430.46L12925.8499,-3430.4867L12925.9903,-3430.7869L12925.7797,-3430.7465L12925.6195,-3430.6599L12925.5508,-3431.1333L12925.3799,-3430.8468L12925.0504,-3430.5401L12924.7696,-3430.3402L12924.6796,-3430.2933L12924.6796,-3430.1933L12924.6796,-3430.1334L12924.6796,-3430.1132L12924.6796,-3430.04L12924.5193,-3430.1334L12924.4202,-3429.9534L12924.3195,-3429.8466L12924.1196,-3429.8L12924.0204,-3429.8466L12923.6801,-3429.9999L12923.4406,-3429.7733L12923.4894,-3429.6001L12923.3597,-3429.6135L12923.2895,-3429.3068L12923.0804,-3429.1935L12922.85,-3429.34L12922.8394,-3429.7199L12922.67,-3429.7466L12922.5006,-3429.4067L12922.3495,-3429.4132L12922.1603,-3429.3533L12922.2702,-3429.6001L12922.4808,-3429.6532L12922.0703,-3429.7733L12922.2107,-3430.4333L12922.5906,-3430.8601L12922.2504,-3430.78L12922.4304,-3431.2134L12922.7402,-3431.9065L12922.67,-3432.2399L12922.3297,-3432.8468L12921.9406,-3433.1268L12921.8597,-3432.9132L12921.3699,-3432.6466L12921.0999,-3432.7534L12920.6696,-3433.0269L12920.5002,-3433.02L12920.3506,-3433.1001L12920.1294,-3432.2334L12919.7495,-3431.7467L12919.9295,-3431.3667L12919.5099,-3431.2267L12919.6808,-3430.6068L12919.6701,-3429.9599L12919.5206,-3429.3865L12919.4397,-3428.6533L12919.6304,-3428.1132L12919.3909,-3427.38L12919.9005,-3427.3533L12919.7693,-3427.1599L12919.6503,-3426.8002L12919.5297,-3426.8932L12919.1406,-3426.0864L12918.7195,-3425.3201L12918.4204,-3424.6532L12918.7302,-3424.0067L12919.0506,-3423.4734L12918.6096,-3422.9801L12918.0603,-3422.5864L12917.9398,-3421.2799L12917.8192,-3418.84L12917.9703,-3418.9465L12917.9306,-3418.5402L12917.5705,-3417.4667L12917.7994,-3416.9865L12917.5598,-3416.8133L12917.5903,-3416.9468L12917.1707,-3416.5066L12917.3508,-3415.86L12917.2195,-3415.4533L12917.3996,-3414.9601L12917.3996,-3414.88L12917.2699,-3414.8869L12916.8396,-3414.5535L12916.7404,-3413.8668L12916.8198,-3412.7934L12916.9601,-3412.0464L12916.9296,-3411.1134L12916.8198,-3410.7399L12916.6306,-3410.3199L12916.7709,-3410.1933L12917.2897,-3410.7601L12917.6697,-3411.3468L12918.1,-3411.3934L12918.1702,-3411.6333L12918.3395,-3411.6333L12918.19,-3411.8069L12918.5898,-3411.8599L12918.6493,-3411.6135L12919.6899,-3411.1599L12919.6106,-3410.5801L12920.1004,-3410.5L12920.2805,-3410.3867L12920.5902,-3410.7132L12920.7001,-3410.6266L12920.7397,-3410.7399L12920.8893,-3410.7201L12920.9595,-3410.8467L12921.0297,-3411.0401L12921.0693,-3410.9665L12921.2006,-3411.3201L12921.4798,-3411.1198L12921.1807,-3410.4401L12921.6599,-3410.0334L12921.4798,-3409.2869L12921.1594,-3408.6533L12921.3394,-3408.3866"/>
<path content="BA010,1,1,JPN" xlink:title="BA010" d="M12933.2794,-3430.4268L12933.4702,-3431.5666L12933.2397,-3431.6334L12933.0597,-3431.6467L12933.1802,-3431.48L12933.2794,-3431.5136L12933.1406,-3431.3534L12932.7499,-3431.7532L12932.7698,-3432.2067L12932.6797,-3432.1732L12932.6004,-3432.42L12932.4295,-3432.4135L12932.3395,-3432.4665L12932.7103,-3432.4867L12932.9697,-3432.7133L12932.7805,-3432.8533L12932.6202,-3432.8533L12932.7103,-3433.1268L12932.6004,-3433.1001L12932.4799,-3433.3599L12932.6904,-3433.4202L12932.4997,-3433.6067L12932.0206,-3433.3134L12932.2098,-3433.1799L12931.8802,-3433.2001L12931.8604,-3432.9533L12931.9504,-3432.9468L12931.7108,-3432.8602L12931.6498,-3432.8533L12931.6803,-3432.8266L12931.9702,-3432.7068L12931.8802,-3432.6134L12931.7398,-3432.5935L12931.1401,-3432.6801L12930.7999,-3433.0734L12930.6,-3432.9933L12930.4596,-3433.0799L12930.2795,-3433.0666L12929.9606,-3433.3199L12929.9606,-3433.6533L12929.66,-3433.6533L12929.0497,-3432.56L12929.0604,-3432.2933L12929.4495,-3432.3334L12929.8401,-3432.9666L12929.9408,-3433.0067L12930.0797,-3432.8934L12929.8798,-3432.8201L12930.1804,-3432.6534L12930.2704,-3432.6866L12930.13,-3432.42L12930.0507,-3432.1865L12930.3604,-3432.1934L12930.6396,-3432.3799L12930.6793,-3432.4532L12930.6595,-3431.9866L12930.9708,-3432.5134L12931.0303,-3432.5665L12931.1996,-3432.4932L12931.4499,-3432.4333L12931.6605,-3432.32L12931.3797,-3432.3334L12931.3797,-3432.2266L12931.1798,-3432.2666L12931.1707,-3432.1533L12931.3293,-3431.9866L12931.2607,-3431.6868L12931.4804,-3431.8535L12931.6101,-3431.76L12931.7902,-3431.8001L12931.5796,-3431.2935L12932.2403,-3431.5468L12932.5195,-3431.7734L12932.3807,-3431.4934L12932.3898,-3431.48L12932.2495,-3431.4865L12931.9397,-3431.1535L12931.9305,-3430.8132L12932.2296,-3430.9868L12932.2601,-3430.9002L12932.6096,-3431.3L12932.7698,-3431.2599L12932.6797,-3431.1802L12932.7896,-3431.1668L12932.5806,-3431.0532L12932.6202,-3430.9532L12932.5607,-3430.8666L12931.9702,-3430.6068L12932.4799,-3430.6267L12932.8094,-3431.0001L12932.9102,-3430.9265L12932.9498,-3431.02L12933.1192,-3431.0532L12932.93,-3430.7266L12932.9193,-3430.6267L12933.1192,-3430.5599L12933.2794,-3430.4268"/>
<path content="BA010,1,1,JPN" xlink:title="BA010" d="M12934.05,-3433.5667L12934.0103,-3433.6533L12933.8699,-3433.7532L12933.8699,-3433.6533L12934.05,-3433.5667"/>
<path content="BA010,1,1,JPN" xlink:title="BA010" d="M12933.3099,-3433.9931L12933.3496,-3434.4334L12933.2703,-3434.2533L12933.2306,-3434.0668L12933.3099,-3433.9931"/>
<path content="BA010,1,1,JPN" xlink:title="BA010" d="M12934.1705,-3434.5264L12934.2606,-3434.8598L12934.3994,-3434.7332L12934.4696,-3434.7801L12934.6695,-3435.12L12933.9493,-3434.8331L12934.1705,-3434.5264"/>
<path content="BA010,1,1,JPN" xlink:title="BA010" d="M12933.8898,-3435.1398L12934.2499,-3435.4866L12933.9005,-3435.3802L12933.8303,-3435.3001L12933.8898,-3435.1398"/>
<path content="BA010,1,1,JPN" xlink:title="BA010" d="M12926.8204,-3441.7473L12926.9501,-3441.954L12926.8707,-3442.0544L12926.8097,-3442.0593L12926.6998,-3442.0815L12926.6327,-3442.0452L12926.5808,-3441.954L12926.8204,-3441.7473"/>
<path content="BA010,1,1,JPN" xlink:title="BA010" d="M12926.5442,-3442.2222L12926.6205,-3442.2409L12926.6281,-3442.3435L12926.4938,-3442.347L12926.4618,-3442.2508L12926.5442,-3442.2222"/>
<path content="BA010,1,1,JPN" xlink:title="BA010" d="M12926.3901,-3442.6933L12926.4099,-3442.9451L12926.5305,-3443.0244L12926.6373,-3443.0058L12926.651,-3442.889L12926.6556,-3442.7868L12926.6006,-3442.7074L12926.3901,-3442.6933"/>
<path content="BA010,1,1,JPN" xlink:title="BA010" d="M12935.17,-3429.5799L12935.6094,-3429.9667L12936.2305,-3430.2734L12936.1206,-3430.3532L12936.2106,-3430.5866L12936.4807,-3430.6L12936.4502,-3430.8334L12936.3998,-3431.0066L12936.3693,-3431.3469L12936.6699,-3431.0799L12936.9797,-3431.1066L12936.7096,-3431.6067L12936.1008,-3431.86L12936.2106,-3432L12936.2701,-3432.0332L12936.4304,-3431.9866L12936.4395,-3431.9332L12936.5601,-3432.0065L12936.6806,-3431.8199L12936.8301,-3431.5868L12936.7798,-3431.9866L12936.7508,-3432.1068L12936.8195,-3432.1068L12936.9507,-3432.1934L12936.9705,-3432.0934L12937.1796,-3431.4201L12937.3505,-3431.6799L12937.5,-3431.6755M12937.5,-3431.6034L12937.4298,-3431.5334L12937.3306,-3431.3L12937.4298,-3431.1001L12937.5,-3431.1179M12937.5,-3431.8552L12937.1796,-3431.9534L12937.1704,-3431.9935L12937.1796,-3432.0133L12937.2498,-3432.1201L12937.4695,-3432.0667L12937.5,-3432.2468L12937.5,-3432.2468M12937.5,-3432.4334L12937.2894,-3432.4135L12937.1796,-3432.4932L12937.1796,-3432.5733L12937.4008,-3432.6401L12937.5,-3432.6671M12937.5,-3432.8167L12937.1796,-3433.1268L12936.4594,-3433.0532L12936.4304,-3433.16L12936.8607,-3433.2401L12937.0697,-3433.2535L12936.5601,-3433.5201L12936.5494,-3433.6533L12936.4594,-3433.8669L12936.8607,-3433.7799L12936.9598,-3433.8264L12936.9705,-3433.7399L12937.0193,-3433.6533L12937.0407,-3433.6468L12937.0605,-3433.6533L12937.1796,-3433.8066L12937.1796,-3433.7467L12937.1704,-3433.6533L12937.1796,-3433.6201L12937.2498,-3433.6533L12937.3596,-3433.7067L12937.3703,-3433.6533L12937.4298,-3433.6533L12937.4603,-3433.6533L12937.4802,-3433.6533L12937.5,-3433.6484M12937.5,-3434.3303L12937.1796,-3434.4131L12937.0605,-3434.3334L12936.9705,-3434.4532L12936.4395,-3434.4933L12936.5402,-3434.6867L12936.8607,-3434.6668L12937.1796,-3434.6199L12937.5,-3434.6199M12937.5,-3436.9371L12937.3596,-3436.9732L12937.1796,-3436.8332L12937.1796,-3436.9667L12937.5,-3437.1916M12937.5,-3438.1388L12937.4695,-3438.1802L12937.5,-3438.1707M12937.5,-3438.7193L12937.3596,-3438.9465L12937.5,-3438.8998M12937.5,-3439.714L12937.1796,-3439.5134L12936.4807,-3439.1399L12936.3098,-3439.1464L12936.3205,-3439.0667L12936.1496,-3439.1266L12935.91,-3438.9935L12935.7605,-3438.9999L12935.7498,-3438.8535L12935.5301,-3438.9465L12935.2707,-3438.7066L12935.0998,-3438.6665L12935.35,-3438.9732L12935.6705,-3439.3131L12935.8307,-3439.5466L12935.9299,-3439.5802L12936.1099,-3439.5802L12936.1603,-3439.8201L12936.4395,-3439.7999L12936.4807,-3439.9399L12936.3007,-3439.9399L12936.3098,-3440.02L12936.6608,-3440.0932L12936.5295,-3440.1932L12936.6394,-3440.2199L12936.8301,-3440.3465L12936.8301,-3440.6666L12937.1796,-3440.4133L12937.1796,-3440.4667L12937.1002,-3440.7265L12937.1796,-3440.7135L12937.3505,-3440.6734L12937.3306,-3440.8401L12937.5,-3440.8001L12937.5,-3440.8001M12937.5,-3441.1619L12937.3703,-3441.2735L12937.5,-3441.2682M12937.5,-3442.3585L12937.3703,-3442.5999L12937.1796,-3442.6334L12937.1796,-3442.54L12937.1902,-3442.4667L12936.7905,-3442.7799L12937.03,-3442.3L12936.6394,-3442.02L12936.6608,-3441.9865L12936.5402,-3441.7732L12936.4502,-3441.9865L12936.5997,-3442.4L12936.4807,-3442.72L12936.38,-3443.4067L12936.6302,-3443.3601L12936.8195,-3443.2335L12936.7599,-3443.6001L12936.9308,-3443.4532L12936.9308,-3443.84L12936.9904,-3443.9133L12937.1796,-3443.42L12937.2604,-3443.4799L12937.3398,-3443.6199L12937.4008,-3443.4734L12937.5,-3443.1066"/>
<path content="BA010,1,1,JPN" xlink:title="BA010" d="M12929.2801,-3443.3266L12928.8605,-3443.4666L12928.9505,-3444.0334L12928.6606,-3444.1933L12928.6102,-3444.12L12928.4195,-3444.3665L12928.2394,-3444.3733L12928.1006,-3444.3066L12927.8793,-3444.4199L12927.6703,-3444.2066L12927.6901,-3444.1269L12927.4796,-3444.22L12927.3605,-3444.0399L12927.3499,-3443.8L12927.1896,-3443.5734L12927.3895,-3443.3201L12927.9602,-3443.1999L12927.2995,-3443.0866L12927.9907,-3442.7265L12927.8,-3442.72L12927.6596,-3442.7532L12927.24,-3442.7601L12927.0004,-3442.7666L12927.0493,-3442.6201L12927.1301,-3442.5266L12927.0706,-3442.44L12927.2598,-3442.26L12927.3804,-3442.1532L12927.5208,-3442.0601L12927.2705,-3442.0666L12927.2598,-3441.9865L12927.4796,-3441.84L12927.8397,-3441.7068L12928.36,-3441.6534L12928.3707,-3441.56L12928.0396,-3441.4867L12927.8305,-3441.4932L12927.8305,-3441.3666L12927.6794,-3441.4734L12927.5803,-3441.3933L12927.4399,-3441.5333L12927.1194,-3441.5665L12927.2598,-3440.9599L12927.24,-3440.0932L12927.1103,-3439.0999L12926.8005,-3438.5334L12927.1408,-3438.3801L12927.33,-3438.2198L12927.4307,-3438.5601L12927.5803,-3438.0932L12927.4506,-3437.6865L12927.5406,-3437.2799L12927.2095,-3437.5267L12926.2207,-3436.7802L12926.1795,-3436.6669L12925.7797,-3436.8L12925.7599,-3436.6402L12925.2396,-3436.6467L12925.3601,-3436.4868L12925.0504,-3436.5067L12925.3494,-3436.1401L12925.5295,-3436.1069L12925.0107,-3435.7201L12924.9496,-3435.5L12924.6796,-3435.8799L12924.5407,-3435.9932L12924.4308,-3436.1668L12924.2905,-3436.4799L12924.0799,-3436.4735L12924.3301,-3436.8534L12924.2401,-3436.9202L12923.9395,-3436.5734L12923.8098,-3436.7134L12923.3902,-3436.5601L12923.1201,-3436.6135L12922.6807,-3436.1732L12922.8195,-3435.8601L12923.2895,-3435.4599L12923.4406,-3435.2734L12923.97,-3435.1868L12924.3393,-3435.1067L12924.4507,-3435.2467L12924.6796,-3435.22L12925.3204,-3434.9998L12925.56,-3435.2734L12926.2405,-3435.4801L12927.1194,-3435.7265L12926.9806,-3435.6068L12927.6703,-3435.3333L12927.7298,-3434.9266L12928.0792,-3434.4002L12928.27,-3434.4399L12928.2394,-3434.7599L12927.98,-3434.7267L12927.9709,-3434.8133L12928.0106,-3435.0864L12927.9495,-3435.4401L12928.1998,-3435.0601L12928.4607,-3434.8469L12928.6301,-3434.8064L12928.6804,-3434.6802L12928.7003,-3434.3933L12928.6804,-3434.3067L12928.7094,-3433.9268L12929.1107,-3434.9266L12928.9307,-3434.9865L12928.6697,-3435.36L12928.7704,-3435.5598L12929.1397,-3435.2932L12929.4403,-3435.1933L12929.2999,-3435.4198L12929.7104,-3435.4134L12929.6204,-3435.5465L12929.4098,-3435.4935L12929.0298,-3435.8467L12928.7506,-3435.7601L12928.6407,-3435.9867L12928.2806,-3435.9135L12928.2898,-3435.9867L12928.27,-3436.4532L12927.9907,-3436.4601L12927.8503,-3436.3068L12927.8107,-3436.4666L12927.9297,-3436.6467L12928.1296,-3436.7733L12928.1509,-3436.8465L12928.3997,-3436.66L12928.4897,-3436.8267L12928.6301,-3436.5932L12928.8193,-3436.6932L12928.7994,-3437.1799L12929.1702,-3437.2799L12928.5492,-3437.7335L12928.4805,-3437.7934L12928.3798,-3438.1535L12928.2196,-3438.3133L12928.36,-3438.4068L12928.7292,-3438.5799L12928.6804,-3438.7333L12928.8406,-3438.5399L12928.5797,-3438.0798L12928.9398,-3437.92L12929.0497,-3437.6266L12929.2908,-3437.7998L12929.3106,-3437.5401L12929.6097,-3437.7731L12929.8599,-3438.0333L12929.5303,-3438.3732L12929.7607,-3438.2534L12929.9606,-3438.1802L12930.22,-3438.0798L12930.3894,-3438.2935L12930.3101,-3438.6467L12930.5298,-3438.3999L12930.7495,-3438.6532L12931.0608,-3438.4266L12931.0104,-3438.8599L12931.2897,-3438.3533L12930.9097,-3438.2267L12930.7297,-3438.3133L12930.9006,-3437.9665L12930.7709,-3437.78L12930.6396,-3437.7865L12930.69,-3437.7132L12930.5603,-3437.5534L12930.3802,-3437.5935L12930.3101,-3437.5L12930.2399,-3437.4332L12930.4199,-3437.3001L12930.4001,-3437.1399L12930.0903,-3437.3135L12929.8096,-3437.0201L12929.9103,-3436.6199L12930.1697,-3436.9266L12930.2307,-3436.8599L12930.3406,-3436.8534L12930.3604,-3436.7268L12930.1208,-3436.7268L12930.2795,-3436.4532L12930.2704,-3436.0466L12930.3604,-3435.9066L12930.5496,-3435.4668L12931.1203,-3436.0401L12931.0104,-3435.6934L12930.9006,-3435.4332L12930.4993,-3435.1734L12930.2506,-3435.08L12929.9805,-3435.0933L12930.0095,-3434.6931L12930.0705,-3434.3864L12930.2399,-3434.1202L12930.5801,-3434.5001L12930.5908,-3434.3132L12930.5496,-3434.0801L12931.0303,-3434.5798L12930.8105,-3433.9401L12930.7709,-3433.6868L12931.16,-3433.9802L12931.3904,-3434.1267L12931.7307,-3435.36L12931.8604,-3434.6535L12931.8909,-3434.8732L12932.0007,-3435.68L12932.0999,-3435.3733L12932.28,-3434.94L12932.46,-3435.1868L12932.3608,-3435.78L12932.0908,-3436.0733L12932.2205,-3436.2133L12932.5195,-3435.9665L12932.7606,-3435.9066L12932.4799,-3436.2267L12932.4204,-3436.2934L12932.3105,-3436.4132L12932.2205,-3436.38L12932.3303,-3436.5265L12932.2495,-3436.5868L12932.2403,-3436.7733L12932.1899,-3436.9465L12932.7606,-3436.52L12932.8201,-3436.4532L12932.6904,-3436.8668L12932.8903,-3436.8401L12932.8598,-3437.0068L12932.8796,-3437.0934L12932.9498,-3437.1666L12933.1406,-3437.4268L12933.6899,-3438.0665L12933.7006,-3437.5465L12933.2306,-3437.0335L12933.3099,-3436.3399L12933.7799,-3436.9064L12934.0195,-3436.6264L12934.1293,-3436.7134L12934.14,-3436.8L12934.0897,-3436.9133L12934.2804,-3436.8999L12934.2697,-3436.9732L12934.2102,-3437.2066L12934.4604,-3437.1933L12934.3094,-3437.4668L12934.52,-3437.2932L12934.7504,-3437.7132L12934.9304,-3437.4199L12935.0006,-3437.4535L12935.3394,-3437.4332L12935.4202,-3437.4332L12935.4401,-3437.3066L12935.2005,-3437.3135L12934.7305,-3437.0865L12934.6695,-3436.6333L12934.7305,-3436.5601L12934.9701,-3436.3998L12935.1395,-3436.4532L12934.9396,-3436.2667L12934.8801,-3436.1465L12934.6802,-3436.2732L12934.3307,-3436.1732L12934.3597,-3436.1L12934.23,-3436.1134L12934.2102,-3436.0199L12934.2102,-3435.8868L12934.0393,-3435.8997L12934.1599,-3435.7533L12934.0195,-3435.6266L12934.3002,-3435.6667L12934.5993,-3435.5801L12934.4498,-3435.3333L12934.4193,-3435.2135L12934.9304,-3435.2665L12934.8495,-3435.0933L12934.8892,-3434.9667L12934.8297,-3434.8133L12934.6603,-3434.5798L12935.0494,-3434.8331L12935.1105,-3434.7668L12935.2295,-3434.6397L12934.7,-3434.3601L12934.7,-3434.2667L12934.79,-3434.3266L12934.8404,-3434.2335L12935.0601,-3434.4799L12935.3104,-3434.4666L12935.1395,-3434.2667L12935.0098,-3434.0733L12935.4706,-3434.1599L12935.4202,-3434.0065L12935.2707,-3433.8669L12935.7101,-3433.9001L12935.7895,-3433.8001L12935.6796,-3433.6533L12935.5896,-3433.6533L12935.2295,-3433.7399L12935.1898,-3433.6533L12935.2905,-3433.4667L12935.1105,-3433.6533L12935.0403,-3433.8001L12934.5398,-3433.7868L12934.23,-3433.6533L12934.4299,-3433.4599L12934.5993,-3433.5201L12934.8999,-3433.6533L12934.9503,-3433.6533L12934.8495,-3433.4068L12935.0296,-3433.1135L12934.6909,-3433.3134L12934.7702,-3433.02L12934.7397,-3433.0467L12934.6207,-3432.9601L12934.2606,-3432.6935L12934.4604,-3432.7332L12934.7,-3432.4734L12934.7198,-3432.3532L12934.9106,-3432.3799L12934.9701,-3432.2266L12935.1105,-3432.1133L12935.2203,-3431.9332L12934.7397,-3432.0801L12934.4193,-3432.2735L12933.8699,-3432.3734L12933.7799,-3432.2601L12933.7402,-3432.1999L12933.9005,-3432.2067L12933.9203,-3432.14L12933.7997,-3432.04L12933.9401,-3432.04L12933.7997,-3431.8867L12933.6594,-3432.0866L12933.5693,-3431.9935L12933.4702,-3432L12933.2794,-3431.8268L12933.4,-3431.8199L12933.4793,-3431.7734L12933.5602,-3431.6467L12933.5495,-3431.3999L12933.5403,-3431.3469L12933.5693,-3431.2466L12933.7494,-3431.62L12933.8196,-3431.2866L12933.7997,-3431.1466L12933.4,-3430.6133L12933.5007,-3430.4932L12933.7601,-3430.7602L12933.8593,-3430.5332L12933.9798,-3431.06L12934.1797,-3430.8735L12934.0897,-3430.4401L12934.23,-3430.5267L12934.3094,-3430.2933L12934.3903,-3429.9801L12934.6603,-3430.2933L12934.7794,-3430.6599L12934.8007,-3430.5801L12934.9503,-3430.7465L12935.0204,-3430.6934L12935.2295,-3430.8601L12935.4599,-3430.8266L12935.4996,-3430.8533L12935.4507,-3430.6068L12935.2203,-3430.6667L12934.7504,-3429.8866L12934.9396,-3430.0133L12935.0204,-3429.8668L12935.08,-3429.6135L12935.2005,-3429.6665L12935.17,-3429.5799"/>
<path content="BA010,1,1,JPN" xlink:title="BA010" d="M12937.5,-3444.0245L12937.4802,-3444.0201L12937.4603,-3444.26L12937.2604,-3444.5866L12937.1796,-3444.5801L12937.1597,-3444.6533L12937.1796,-3444.64L12937.1994,-3444.8467L12937.1796,-3444.8467L12936.94,-3445.0798L12936.8393,-3445.2999L12937.1796,-3445.6135L12937.4496,-3445.5265L12937.2101,-3445.3465L12937.5,-3445.2534M12937.5,-3464.4791L12937.2894,-3464.6732L12937.1796,-3464.5668L12936.3098,-3463.8535L12936.0901,-3464.6465L12935.5194,-3464.9467L12935.1395,-3464.9601L12934.0195,-3464.4066L12933.49,-3463.7402L12933.1909,-3463.6932L12933.4793,-3464.1998L12933.2001,-3464.9467L12933.0109,-3464.9399L12932.8598,-3465.0799L12932.28,-3464.8468L12932.0297,-3464.8731L12931.9595,-3464.3333L12931.8604,-3463.2401L12931.3293,-3462.2131L12931.0898,-3461.1935L12930.3802,-3460.1002L12930.5908,-3459.5867L12930.4504,-3459.0199L12930.4001,-3458.8734L12930.2094,-3458.8867L12930.0705,-3458.6533L12929.7195,-3458.2268L12929.2801,-3457.2201L12928.9307,-3456.9733L12928.6804,-3457.0133L12928.5706,-3456.0001L12928.8803,-3455.6133L12929.5395,-3455.6801L12930.4901,-3456.7932L12930.6305,-3456.62L12930.7404,-3456.4732L12930.78,-3456.1802L12930.7602,-3455.9532L12930.9296,-3455.6667L12931.25,-3455.9933L12931.4804,-3455.7133L12931.4499,-3455.3001L12931.3797,-3454.9L12931.8207,-3454.8134L12932.2403,-3454.9332L12932.5699,-3455.1201L12932.6797,-3454.9065L12932.6508,-3454.3869L12932.8995,-3454.38L12932.6996,-3453.8734L12932.6904,-3453.8067L12932.8598,-3453.2799L12933.1696,-3453.2467L12933.2108,-3453.3268L12933.2703,-3453.7666L12933.7494,-3453.7601L12934.3597,-3453.3333L12934.1599,-3452.8667L12934.0302,-3452.8599L12934.0698,-3453.3535L12933.9203,-3453.36L12933.6395,-3453.4134L12933.3099,-3452.8999L12932.6004,-3452.8267L12932.37,-3453.2269L12932.37,-3453.5267L12931.9199,-3453.7468L12931.7505,-3453.5534L12931.9504,-3453.5065L12931.7795,-3453.2467L12931.9794,-3452.9533L12931.7993,-3452.94L12931.4499,-3452.7866L12931.5506,-3452.5532L12931.4606,-3452.3933L12931.2195,-3451.9264L12931.4194,-3451.5465L12931.3293,-3451.4935L12931.0303,-3451.6998L12930.9906,-3451.7735L12930.9601,-3452.0866L12930.7999,-3452.5665L12930.6793,-3452.6268L12930.6503,-3452.52L12930.0598,-3451.3L12930.1804,-3451.0799L12930.1102,-3451.0067L12930.0903,-3450.9266L12929.8996,-3450.9533L12929.5395,-3450.3666L12929.57,-3450.3201L12929.5303,-3449.8665L12929.2694,-3449.5998L12929.1992,-3449.3401L12929.0802,-3448.7465L12929.1199,-3448.5733L12928.8605,-3448.6L12928.4805,-3448.3002L12928.3997,-3448.1934L12928.3203,-3448.0068L12927.9297,-3448.0801L12927.8397,-3447.5334L12927.6398,-3447.2534L12927.3407,-3446.7667L12927.3209,-3446.5733L12927.7298,-3446.3264L12927.3605,-3445.6333L12927.5604,-3445.4533L12927.7405,-3445.3335L12927.9404,-3445.3133L12928.2303,-3445.2133L12928.2593,-3445.0535L12928.1799,-3444.8132L12928.9001,-3445.0733L12929.3396,-3445.2801L12929.8401,-3445.7199L12930.1697,-3446.0335L12930.2704,-3446.1132L12930.3802,-3446.0266L12930.3497,-3446.4066L12930.69,-3446.3333L12931.2698,-3446.5466L12931.0196,-3446.1597L12930.5099,-3445.5532L12930.7205,-3445.5265L12931.0196,-3445.48L12931.0104,-3445.2667L12931.0196,-3444.9932L12930.7709,-3445.2801L12930.13,-3445.52L12929.7501,-3445.0333L12930.0201,-3444.8067L12929.8904,-3444.8467L12929.7302,-3444.8532L12929.3701,-3444.6602L12929.4998,-3444.5L12929.4601,-3444.3733L12929.1306,-3444.5L12929.2801,-3443.9732L12929.2496,-3443.7668L12929.2801,-3443.5135L12929.2801,-3443.3266"/>
</g>
</svg>
