<?xml version="1.0" encoding="UTF-8"?>
<svg  xmlns="http://www.w3.org/2000/svg" xmlns:xlink="http://www.w3.org/1999/xlink" xmlns:go="http://purl.org/svgmap/profile" property="f_code,acc,exs,soc" viewBox="12937.5 -3656.25 281.25 281.25" go:dataArea="12937.5 -3656.25 281.25 281.25" >
<metadata>
 <rdf:RDF xmlns:rdf="http://www.w3.org/1999/02/22-rdf-syntax-ns#" xmlns:crs="http://opengis.org/xmldtds/transformations.dtd" xmlns:svg="http://www.w3.org/svg" >
  <rdf:Description>
   <crs:CoordinateReferenceSystem rdf:resource="http://purl.org/crs/84" svg:transform="matrix(100.0,0.0,0.0,-100.0,0.0,0.0)" />
  </rdf:Description>
 </rdf:RDF>
</metadata>
<globalCoordinateSystem srsName="http://purl.org/crs/84" transform="matrix(100.0,0.0,0.0,-100.0,0.0,0.0)" />
<defs>
 <g id="p0" >
  <circle cx="0.0" cy="0.0" r="3" stroke="green" stroke-width="2.0" vector-effect="non-scaling-stroke" />
 </g>
</defs>
<g fill="none" fill-rule="evenodd" stroke="#000000" stroke-width="2" opacity="0.5" vector-effect="non-scaling-stroke" stroke-linejoin="bevel" >
<path content="BA010,1,1,JPN" xlink:title="BA010" d="M12964.4104,-3375.3201L12964.3692,-3375.4002L12964.3204,-3375.3201L12964.4104,-3375.3201"/>
<path content="BA010,1,1,JPN" xlink:title="BA010" d="M13215.0549,-3375L13214.7003,-3375.2602L13214.6194,-3375.3201L13214.9292,-3375.8598L13215.0208,-3376.3802L13214.9002,-3376.16L13214.3494,-3375.3532L13214.2792,-3375.3201L13214.1596,-3375"/>
<path content="BA010,1,1,JPN" xlink:title="BA010" d="M13036.3403,-3375.4932L13036.5997,-3376.0735L13037.1796,-3375.98L13037.6907,-3375.8533L13038.0096,-3375.8801L13037.8296,-3375.9666L13037.1796,-3376.4801L13036.1206,-3376.6666L13035.8505,-3376.0067L13036.3403,-3375.4932"/>
<path content="BA010,1,1,JPN" xlink:title="BA010" d="M13205.13,-3377.2133L13205.3604,-3377.66L13205.2307,-3377.9133L13205.0705,-3377.7733L13204.8996,-3377.4868L13204.66,-3377.5066L13205.13,-3377.2133"/>
<path content="BA010,1,1,JPN" xlink:title="BA010" d="M13100.943,-3378.9906L13100.6943,-3379.0154L13100.856,-3379.2774L13101.1047,-3379.3896L13101.3168,-3379.4022L13101.3046,-3379.2648L13101.1551,-3379.1027L13100.943,-3378.9906"/>
<path content="BA010,1,1,JPN" xlink:title="BA010" d="M13193.84,-3378.7666L13193.7897,-3379.24L13193.2297,-3379.4933L13193.0206,-3379.2599L13193.1305,-3378.8601L13193.84,-3378.7666"/>
<path content="BA010,1,1,JPN" xlink:title="BA010" d="M13196.3501,-3376.86L13197.6303,-3377.4334L13198.2208,-3377.5867L13199.2599,-3378.0334L13199.0204,-3378.4935L13198.8602,-3378.7334L13198.7198,-3378.7334L13197.2702,-3379.7802L13196.6492,-3379.8L13196.0693,-3379.2667L13196.0999,-3378.2467L13195.5704,-3378.0869L13194.9707,-3378.2066L13194.6701,-3377.9865L13195.1599,-3377.1267L13196.3501,-3376.86"/>
<path content="BA010,1,1,JPN" xlink:title="BA010" d="M13218.75,-3380.7533L13218.7195,-3380.7533L13218.4296,-3381.0402L13217.2501,-3380.4935L13217.3096,-3379.5067L13218.75,-3380.2622"/>
<path content="BA010,1,1,JPN" xlink:title="BA010" d="M13211.8393,-3381.1401L13212.1597,-3381.6067L13211.85,-3382.3803L13211.6699,-3381.8802L13211.9202,-3381.7669L13211.7493,-3381.2202L13211.8393,-3381.1401"/>
<path content="BA010,1,1,JPN" xlink:title="BA010" d="M13100.7172,-3382.7567L13100.6901,-3382.7763L13100.7131,-3382.8279L13100.8175,-3382.8713L13100.8643,-3382.8624L13100.8846,-3382.8245L13100.8365,-3382.7763L13100.7172,-3382.7567"/>
<path content="BA010,1,1,JPN" xlink:title="BA010" d="M13097.6593,-3382.8068L13097.67,-3382.8934L13097.5204,-3383.0135L13097.2,-3382.9136L13097.6593,-3382.8068"/>
<path content="BA010,1,1,JPN" xlink:title="BA010" d="M12966.1102,-3382.8667L12965.9592,-3383.1402L12965.9805,-3383.3069L12965.7806,-3383.3801L12965.9103,-3382.9468L12966.1102,-3382.8667"/>
<path content="BA010,1,1,JPN" xlink:title="BA010" d="M13218.3395,-3384.4067L13218.4402,-3384.84L13217.8299,-3384.9201L13217.8894,-3384.5734L13217.9596,-3384.5333L13218.3395,-3384.4067"/>
<path content="BA010,1,1,JPN" xlink:title="BA010" d="M13103.2074,-3381.9649L13104.1519,-3382.1033L13103.8513,-3383.6128L13103.511,-3385.3287L13103.54,-3385.6586L13103.4271,-3385.7712L13102.4582,-3385.6327L13102.8976,-3383.4671L13103.2074,-3381.9649"/>
<path content="BA010,1,1,JPN" xlink:title="BA010" d="M13204.9301,-3378.4668L13205.7297,-3379.0066L13205.4901,-3379.38L13205.8304,-3379.9534L13205.9799,-3380.2334L13206.3705,-3380.3066L13206.6498,-3380.3799L13207.2205,-3380.3268L13207.3898,-3380.6534L13207.4493,-3381.0535L13207.5195,-3381.4003L13208.3206,-3381.5868L13208.4503,-3381.6132L13208.5999,-3382.3933L13209.05,-3382.6199L13209.8999,-3382.5535L13210.6003,-3382.5401L13210.7895,-3382.84L13211.5097,-3382.8266L13211.7203,-3383.0601L13211.0397,-3383.2066L13210.82,-3383.6533L13210.6506,-3383.6735L13210.64,-3383.6533L13210.4202,-3383.4801L13210.35,-3383.6533L13210.1501,-3384.3601L13209.4894,-3384.3533L13209.2102,-3384.5798L13209.0302,-3384.8L13208.5892,-3384.4601L13208.4,-3384.4734L13208.2397,-3384.4601L13207.6294,-3385.0601L13207.6202,-3385.4069L13207.2296,-3385.7735L13207.0297,-3385.8067L13206.9992,-3385.3867L13206.7596,-3385.1398L13206.9504,-3384.3067L13207.2205,-3384.3399L13207.9605,-3383.6533L13207.9697,-3383.4267L13207.7606,-3383.2668L13207.7103,-3382.7202L13207.5607,-3382.74L13207.3898,-3382.46L13207.0496,-3382.2468L13206.7596,-3382.1533L13206.7902,-3382.2201L13206.6605,-3382.2334L13206.5704,-3381.8867L13206.34,-3381.8733L13205.9692,-3381.9L13205.8792,-3381.48L13205.69,-3380.7533L13205.8197,-3380.5801L13205.6503,-3380.2734L13205.4306,-3380.0201L13205.2795,-3379.8267L13205.13,-3379.8267L13204.6295,-3379.8267L13204.2603,-3379.5532L13203.5797,-3379.5532L13203.1097,-3379.5399L13202.9602,-3379.5532L13202.7405,-3379.3335L13203.3295,-3379.1668L13203.2898,-3378.8002L13203.7094,-3378.7399L13204.1504,-3379.0001L13204.5303,-3378.7067L13204.9301,-3378.4668"/>
<path content="BA010,1,1,JPN" xlink:title="BA010" d="M12978.6626,-3375L12978.7094,-3375.3201L12978.8895,-3375.6535L12979.3503,-3375.6134L12979.3304,-3375.4868L12979.5792,-3375.42L12979.66,-3375.4799L12979.5792,-3375.9266L12979.7104,-3376.2466L12979.2999,-3376.3332L12978.8498,-3376.3268L12978.5004,-3376.9531L12977.7206,-3377.2934L12977.5803,-3377.1801L12977.1698,-3377.2999L12977.0996,-3376.8135L12976.4999,-3376.7067L12975.8408,-3377.3735L12975.7202,-3377.5799L12975.8408,-3377.8198L12976.2604,-3378.3333L12976.5594,-3378.4401L12976.9501,-3378.5133L12977.2095,-3378.5336L12977.4796,-3378.4534L12977.89,-3378.5336L12978.1799,-3378.5599L12978.6591,-3378.4466L12978.6804,-3378.3535L12979.2496,-3378.3466L12979.2892,-3378.08L12979.5105,-3377.9469L12979.8294,-3378.8399L12979.6692,-3378.8399L12978.5507,-3378.7601L12977.9892,-3379.1935L12977.6505,-3379.5868L12977.4399,-3379.4533L12976.3702,-3379.9801L12976.0498,-3380.4535L12975.7401,-3380.36L12975.7294,-3380.2734L12975.3296,-3380.6267L12974.7391,-3380.7266L12974.6796,-3380.5332L12974.3805,-3380.8266L12974.6796,-3380.8933L12974.7696,-3380.8601L12975.3098,-3380.9269L12975.6607,-3381.1802L12975.6805,-3380.9601L12976.3107,-3381.1401L12976.1398,-3381.3534L12975.9903,-3381.7001L12976.0605,-3381.8867L12976.3199,-3381.9733L12976.4206,-3382.6733L12976.4999,-3382.98L12976.4404,-3383.4267L12976.7197,-3383.6533L12976.8295,-3383.8669L12977.1698,-3384.28L12976.6693,-3384.5867L12976.1093,-3384.4734L12975.4593,-3384.6802L12975.1099,-3384.6802L12974.6796,-3384.7668L12974.1898,-3384.7336L12973.1094,-3384.9335L12972.4197,-3385.0136L12971.8094,-3385.6731L12971.5805,-3385.68L12971.0602,-3385.5L12970.5597,-3385.9467L12970.8099,-3386.24L12970.2103,-3386.2801L12970.34,-3386.1198L12970.2606,-3386.0199L12970.0394,-3386.0199L12969.8196,-3386.1134L12969.6899,-3385.9734L12969.5602,-3385.7399L12970.3903,-3385.4801L12970.1202,-3385.4599L12969.5602,-3385.5068L12969.4092,-3385.3733L12969.1895,-3385.1467L12969.0399,-3385.4465L12969.1498,-3385.5598L12968.8309,-3385.5934L12968.8004,-3385.7265L12968.6707,-3385.5068L12968.4799,-3385.2669L12967.8604,-3384.6199L12968.2693,-3384.4399L12967.8604,-3384.2934L12967.8299,-3384.0668L12967.6697,-3384.4734L12967.7902,-3384.4467L12967.54,-3384.5333L12967.1097,-3383.7402L12967.1707,-3383.6533L12967.1494,-3383.2066L12966.9693,-3382.5134L12967.3004,-3382.5134L12967.5598,-3382.1999L12967.2104,-3381.9199L12967.3798,-3381.8401L12967.6804,-3381.8401L12967.9306,-3381.3335L12968.1503,-3381.1066L12968.4494,-3380.9666L12968.8995,-3380.4935L12968.7393,-3380.4935L12968.4296,-3380.6202L12968.0893,-3380.4935L12967.6498,-3380.5L12967.3798,-3380.1533L12967.3096,-3379.9L12967.5995,-3379.8L12967.4896,-3379.6932L12967.07,-3379.9934L12966.9205,-3380.4733L12966.6702,-3380.32L12966.5298,-3380.8334L12966.4993,-3381.0669L12966.3803,-3381.0535L12966.1896,-3381.06L12966.0797,-3380.92L12965.9897,-3381.3335L12965.6906,-3381.2733L12965.6906,-3381.3934L12965.5594,-3381.4133L12964.9399,-3380.6534L12966.2003,-3380.2334L12966.6306,-3379.9801L12966.2399,-3379.8866L12965.9897,-3379.9L12965.7806,-3379.8866L12965.6296,-3379.9L12965.5807,-3379.6268L12965.0497,-3380.0068L12965.0894,-3379.7935L12965.2603,-3379.6803L12965.3,-3379.6333L12965.9592,-3378.96L12966.0004,-3378.8067L12965.86,-3378.8067L12965.4999,-3378.9467L12965.5701,-3377.98L12965.9103,-3377.6867L12967.3996,-3377.6466L12967.54,-3377.8133L12967.6697,-3377.5932L12967.5507,-3377.4067L12967.3996,-3377.4132L12967.5598,-3377.1935L12967.9306,-3377.1603L12967.8497,-3377.0733L12967.6804,-3377.0935L12967.8207,-3376.9135L12967.5903,-3376.9066L12967.7505,-3376.7868L12967.7902,-3376.7067L12968.1396,-3376.8066L12967.9504,-3376.4336L12968.0603,-3376.3L12968.1992,-3376.0799L12968.4998,-3375.9602L12968.3197,-3375.9869L12968.0405,-3375.8202L12967.5995,-3376.4668L12967.4301,-3376.4999L12967.1402,-3376.7799L12966.9296,-3376.82L12966.8503,-3376.6266L12966.4597,-3376.6998L12966.2598,-3376.58L12966.2506,-3376.86L12966.1499,-3376.9867L12965.8401,-3377.1198L12965.7898,-3376.9936L12965.8203,-3376.7601L12965.39,-3376.8867L12965.4495,-3377.1866L12965.2603,-3377.1667L12965.0604,-3377.1935L12964.8895,-3377.3735L12964.3799,-3377.2469L12964.27,-3376.7532L12964.65,-3376.8135L12964.3997,-3376.5266L12964.4791,-3376.4668L12964.8193,-3376.5266L12964.5996,-3376.2733L12964.8499,-3376.2001L12965.1398,-3376.2001L12965.21,-3376.1467L12965.39,-3376.1467L12965.2893,-3376.0136L12965.1001,-3376.0067L12964.9307,-3376.0067L12964.8697,-3375.5535L12964.6591,-3375.3201L12964.6393,-3375.1865L12964.7705,-3375.0465L12964.8227,-3375M12966.3453,-3375L12966.2994,-3375.0336L12966.6,-3375.3201L12966.7206,-3375.7267L12967.2897,-3375.9335L12967.1402,-3375.3265L12967.5705,-3375.3201L12967.6193,-3375.0599L12967.7073,-3375"/>
<path content="BA010,1,1,JPN" xlink:title="BA010" d="M13046.8796,-3385.9531L13047.2702,-3385.96L13047.1405,-3386.4201L13046.9498,-3386.4132L13046.7804,-3386.4201L13046.8796,-3385.9531"/>
<path content="BA010,1,1,JPN" xlink:title="BA010" d="M12969.8303,-3386.4868L12970.2805,-3386.5601L12970.1096,-3386.8999L12969.9905,-3386.8999L12969.8303,-3386.8134L12969.3497,-3386.5868L12969.4,-3386.5536L12969.8303,-3386.4868"/>
<path content="BA010,1,1,JPN" xlink:title="BA010" d="M12967.7094,-3386.2534L12967.5903,-3386.5665L12967.63,-3386.66L12967.9794,-3386.5067L12968.0496,-3387.0201L12967.6407,-3387.0266L12967.6407,-3386.9534L12967.5201,-3386.9736L12967.4393,-3386.8599L12967.2501,-3386.8668L12967.4301,-3386.3998L12967.7094,-3386.2534"/>
<path content="BA010,1,1,JPN" xlink:title="BA010" d="M12968.8507,-3386.1332L12968.8904,-3386.3735L12968.9102,-3386.7733L12968.8797,-3387.0399L12968.5791,-3386.9865L12968.2404,-3387.0735L12968.1808,-3387.0399L12968.28,-3386.7134L12968.2999,-3386.2202L12968.8507,-3386.1332"/>
<path content="BA010,1,1,JPN" xlink:title="BA010" d="M13202.2095,-3385.2268L13202.3102,-3385.3733L13202.0798,-3386.0134L13202.2095,-3386.2267L13202.0691,-3386.2267L13201.7395,-3386.7332L13201.5701,-3387.1201L13201.3596,-3386.8134L13201.5396,-3386.4868L13201.4801,-3386.24L13201.4893,-3386.0935L13201.4694,-3385.9734L13200.7706,-3385.8734L13200.3906,-3386.1332L13200.0504,-3386.1267L13199.7101,-3386.0332L13199.6902,-3386.0001L13200.0198,-3385.6133L13200.4898,-3385.4267L13200.7401,-3385.3001L13201.6602,-3385.3466L13201.8906,-3385.2467L13202.2095,-3385.2268"/>
<path content="BA010,1,1,JPN" xlink:title="BA010" d="M12968.1297,-3387.2472L12968.2763,-3387.2681L12968.2763,-3387.194L12968.1458,-3387.1908L12968.1297,-3387.2472"/>
<path content="BA010,1,1,JPN" xlink:title="BA010" d="M13003.5599,-3386.1935L13003.7094,-3386.3132L13003.6301,-3387.1201L13003.45,-3387.4268L13003.2501,-3386.4868L13003.5599,-3386.1935"/>
<path content="BA010,1,1,JPN" xlink:title="BA010" d="M13206.0806,-3386.7001L13206.9,-3386.9133L13206.6895,-3387.4866L13206.5994,-3387.4931L13206.4804,-3388.0932L13206.4606,-3388.3732L13206.0699,-3388.38L13205.6198,-3387.6266L13206.0394,-3387.3001L13206.0806,-3386.7001"/>
<path content="BA010,1,1,JPN" xlink:title="BA010" d="M13204.9301,-3388.6734L13205.3299,-3389.0133L13205.0705,-3389.3799L13205.0507,-3389.5802L13204.6799,-3389.9666L13204.5105,-3389.9467L13204.3106,-3390.02L13204.1595,-3389.5401L13204.6997,-3389.2334L13204.7897,-3389.0934L13205.0293,-3388.9667L13204.9301,-3388.6734"/>
<path content="BA010,1,1,JPN" xlink:title="BA010" d="M13050.1007,-3389.5267L13050.3296,-3389.6465L13050.3296,-3389.5668L13050.5203,-3389.6999L13050.7599,-3389.6465L13050.3601,-3390.2L13049.7604,-3390.8268L13049.6796,-3391L13049.44,-3391.2399L13049.2905,-3391.2266L13048.9593,-3391.3136L13048.8205,-3391.3067L13048.5794,-3391.0732L13049.1104,-3390.5266L13049.44,-3390.4533L13049.5499,-3389.8266L13049.6796,-3389.88L13050.1007,-3389.5267"/>
<path content="BA010,1,1,JPN" xlink:title="BA010" d="M13042.6193,-3388.7135L13042.9596,-3388.7867L13043.28,-3389.7469L13043.4204,-3389.7266L13043.4296,-3389.9334L13043.5196,-3389.8869L13043.66,-3389.9467L13043.6996,-3389.7934L13043.66,-3390.2866L13043.8705,-3390.4202L13044.0201,-3390.48L13044.2307,-3390.4469L13044.2703,-3390.7665L13044.6701,-3391.1201L13044.5206,-3391.4665L13044.3695,-3391.4734L13044.0002,-3391.5066L13043.7103,-3391.56L13043.3807,-3391.4402L13043.1305,-3391.4803L13042.9901,-3391.2132L13042.7902,-3390.9267L13041.7603,-3391.2334L13041.6,-3391.2266L13041.3895,-3391.2399L13041.2704,-3391.1266L13040.8401,-3391.0801L13040.7104,-3391.1068L13040.6097,-3390.9332L13040.5807,-3390.7932L13040.77,-3390.4667L13040.6204,-3390.1402L13040.6494,-3389.8468L13040.5502,-3389.7331L13040.8401,-3389.4936L13040.9592,-3389.2799L13042.6193,-3388.7135"/>
<path content="BA010,1,1,JPN" xlink:title="BA010" d="M13093.0008,-3393.1469L13093.0099,-3393.3132L13092.8696,-3393.5734L13092.8604,-3393.1866L13093.0008,-3393.1469"/>
<path content="BA010,1,1,JPN" xlink:title="BA010" d="M13193.0695,-3393.5932L13192.72,-3394.2402L13192.5705,-3394.2402L13192.7704,-3393.7134L13193.0695,-3393.5932"/>
<path content="BA010,1,1,JPN" xlink:title="BA010" d="M13215.77,-3393.7801L13216.42,-3394.12L13216.7191,-3394.5667L13216.5604,-3394.7533L13215.5792,-3394.5469L13215.3595,-3394.0002L13215.77,-3393.7801"/>
<path content="BA010,1,1,JPN" xlink:title="BA010" d="M13169.5297,-3393.5402L13170.0104,-3393.9602L13169.6701,-3394.7933L13169.5602,-3394.9669L13169.4397,-3394.5732L13169.3192,-3394.2734L13169.0704,-3394.4534L13168.8705,-3394.1601L13169.2703,-3393.7466L13169.5297,-3393.5402"/>
<path content="BA010,1,1,JPN" xlink:title="BA010" d="M13082.1594,-3393.0336L13084.4604,-3393.9266L13083.1604,-3394.9799L13081.3705,-3394.3333L13081.1295,-3394.7735L13080.9204,-3394.6934L13080.7907,-3394.9268L13079.8996,-3394.5999L13079.1306,-3394.5934L13077.8046,-3394.5839L13077.7695,-3393.8725L13078.1372,-3393.8011L13078.1723,-3393.5047L13079.0894,-3393.42L13080.8899,-3393.2667L13081.1508,-3393.1267L13081.3797,-3393.42L13082.1594,-3393.0336"/>
<path content="BA010,1,1,JPN" xlink:title="BA010" d="M13218.75,-3395.4499L13218.5501,-3395.4533L13218.2693,-3395.0535L13218.75,-3393.8767M13218.75,-3393.5114L13218.7393,-3393.4601L13218.1198,-3392.9466L13217.9703,-3392.9134L13217.5095,-3392.9867L13217.2806,-3392.2466L13217.5797,-3391.9868L13217.5598,-3390.4999L13217.54,-3390.1867L13217.7094,-3389.9601L13217.8894,-3389.9403L13217.7597,-3389.4867L13217.6498,-3389.4001L13218.6005,-3389.3066L13218.75,-3388.9669"/>
<path content="BA010,1,1,JPN" xlink:title="BA010" d="M13101.5557,-3375L13101.4908,-3375.0935L13101.1703,-3375.0999L13101.0592,-3375M13100.3169,-3375L13100.2594,-3375.3201L13099.9695,-3375.7202L13101.6907,-3376.8066L13101.0605,-3377.7534L13099.8703,-3376.9066L13099.6796,-3377.1069L13100.0397,-3377.4601L13099.6796,-3377.3666L13099.1302,-3377.3399L13099.6796,-3377.7065L13100.2792,-3378.3268L13099.9405,-3379.1199L13099.8993,-3378.9799L13099.6796,-3379.1134L13099.4797,-3379.1L13099.6796,-3379.2202L13099.9207,-3379.3068L13099.6796,-3379.6268L13099.2706,-3379.4735L13098.7793,-3378.5999L13098.6008,-3378.6133L13098.1705,-3378.4401L13098.6099,-3378.7735L13098.6404,-3379.1267L13098.7,-3379.6467L13099.1501,-3379.7466L13099.6796,-3380.08L13099.9298,-3380.0468L13099.6796,-3380.6999L13099.6307,-3381.0135L13099.6796,-3380.9269L13099.7894,-3380.7133L13100.3998,-3380.64L13099.9496,-3381.5533L13099.6796,-3381.4602L13098.3902,-3380.9132L13098.2605,-3380.8601L13098.0408,-3381.06L13097.7997,-3381.16L13096.5805,-3380.9399L13095.6696,-3383.0135L13095.8908,-3383.6533L13095.9595,-3383.9001L13096.6705,-3383.6533L13097.5708,-3383.4602L13097.6196,-3383.6533L13097.7997,-3383.9333L13097.67,-3383.9134L13097.6303,-3384.3334L13097.6593,-3384.4399L13097.7402,-3384.2468L13097.9401,-3384.28L13098.0408,-3384.1202L13098.0103,-3384.3266L13098.2895,-3384.4067L13098.2605,-3384.6668L13098.6298,-3385.0334L13098.6206,-3385.4866L13098.7701,-3385.4733L13098.8907,-3385.1269L13099.2599,-3385.0933L13099.6796,-3386.5799L13099.7803,-3386.6936L13099.6796,-3386.8267L13098.7793,-3386.8732L13098.3597,-3386.4067L13098.1293,-3386.7065L13098.6008,-3387.2131L13098.5703,-3388.2L13098.7305,-3388.3068L13098.88,-3388.1866L13099.0295,-3388.5666L13099.4095,-3388.4533L13099.3301,-3388.0733L13099.3607,-3387.9269L13099.2996,-3387.8201L13099.6796,-3387.8399L13099.9405,-3387.7335L13099.8398,-3387.4065L13099.6796,-3387.4203L13099.5102,-3387.4203L13099.6796,-3387.3535L13099.8795,-3387.3535L13100.3906,-3389.1533L13100.2197,-3389.2399L13100.3006,-3388.94L13100.0702,-3389.0068L13100.1205,-3389.1933L13099.6796,-3389.2735L13099.1806,-3389.4066L13098.8098,-3389.2666L13098.7106,-3390.02L13099.4095,-3390.3934L13099.2996,-3390.5334L13099.6796,-3390.6532L13100.0198,-3390.3133L13100.5402,-3390.5132L13100.2197,-3390.7269L13100.2304,-3391.1133L13100.3204,-3391.2735L13100.5692,-3391.5134L13101.2894,-3391.6599L13101.4694,-3391.9868L13101.4099,-3391.9868L13101.3,-3391.9868L13100.9903,-3392.1867L13100.6607,-3392.2535L13100.1205,-3392.1932L13100.1099,-3392.4999L13100.7095,-3392.8268L13100.9705,-3393.1267L13100.7294,-3393.66L13100.8896,-3393.94L13101.0803,-3394.1532L13101.2894,-3394.2535L13101.3504,-3394.1467L13101.68,-3394.1933L13102.1103,-3394.2867L13101.9897,-3394.8334L13101.7197,-3394.9867L13102.2903,-3395.8866L13102.0401,-3396.0201L13101.8402,-3395.9866L13101.6495,-3396.1132L13101.9104,-3396.2933L13100.9598,-3396.5801L13100.5295,-3396.2334L13100,-3396.4333L13100.3403,-3396.5466L13100.6897,-3396.7999L13100.0107,-3396.9601L13099.6796,-3396.6667L13099.35,-3396.3066L13098.9517,-3395.9053L13099.1196,-3396.2269L13097.551,-3395.9469L13097.6593,-3395.76L13097.4808,-3395.7867L13097.29,-3395.8134L13097.2198,-3396.0068L13096.7896,-3396.1533L13096.4706,-3396.1132L13096.2097,-3396.2002L13096.08,-3395.6532L13096.3104,-3395.6135L13096.4203,-3395.2534L13096.2997,-3395.3133L13096.2204,-3395.1935L13096.1197,-3395.38L13096.2402,-3394.7533L13096.2997,-3394.6201L13096.1395,-3394.7468L13095.7397,-3394.4668L13095.6497,-3394.5469L13095.2606,-3394.3199L13095.2408,-3394.1467L13094.4901,-3393.7801L13093.9499,-3392.6601L13094.0903,-3392.6933L13093.6905,-3391.9868L13092.9703,-3390.6933L13092.0197,-3389.9067L13091.9708,-3389.7533L13091.42,-3389.5802L13090.48,-3389.4199L13090.1703,-3389.4135L13089.9796,-3389.4135L13089.74,-3389.22L13089.3707,-3389.1731L13089.1006,-3388.7733L13088.8397,-3388.7733L13088.6993,-3388.8535L13089.1693,-3389.32L13088.0707,-3389.1933L13088.0096,-3389.0133L13087.6907,-3389.0068L13088.3194,-3389.6L13089.2395,-3389.6133L13088.6795,-3390.2065L13087.2803,-3389.7133L13087.3795,-3389.5535L13087.1796,-3389.5599L13086.5799,-3389.7934L13086.3007,-3389.5535L13086.6196,-3390.0665L13087.03,-3389.9334L13087.1796,-3390.0002L13088.3194,-3390.5266L13087.9898,-3390.7467L13087.6205,-3390.62L13087.5198,-3390.7932L13087.8494,-3390.9332L13087.1796,-3391.5333L13086.5097,-3391.3334L13086.6501,-3391.1266L13086.4502,-3391.0534L13086.2,-3391.2334L13085.4004,-3390.8669L13085.6094,-3390.6601L13085.17,-3390.4266L13085.051,-3390.4934L13085.0098,-3390.4999L13084.7397,-3390.5399L13084.9197,-3390.9801L13086.85,-3391.8133L13086.6409,-3391.9868L13086.38,-3391.9868L13084.9701,-3391.4867L13084.9503,-3391.6267L13085.2097,-3391.7534L13084.8907,-3391.6267L13084.7397,-3391.9201L13084.9106,-3391.9868L13086.0001,-3392.3866L13085.8704,-3392.5068L13085.6903,-3392.44L13085.6201,-3392.8932L13085.4294,-3392.9466L13084.2499,-3392.7269L13082.3303,-3391.9868L13082.1503,-3390.9134L13082.2998,-3390.6734L13082.1594,-3390.3866L13081.8909,-3390.6868L13082.0099,-3390.2599L13081.5002,-3389.9734L13081.5308,-3389.7331L13080.481,-3389.1468L13080.6,-3388.48L13080.7098,-3387.7602L13080.0797,-3387.4134L13079.8798,-3387.3867L13080.4001,-3388.1668L13080.1697,-3389.1266L13079.4998,-3388.5136L13078.3997,-3388.2599L13078.1494,-3387.8201L13077.8702,-3387.7132L13078.1494,-3388.2L13077.4704,-3388.0669L13077.15,-3387.4802L13076.9897,-3387.5267L13077.2095,-3387.9536L13074.8001,-3387.4466L13074.6796,-3387.4866L13074.1898,-3387.3669L13074.0402,-3387.4931L13074.6704,-3387.6469L13074.6796,-3388.0268L13074.3301,-3388.8199L13074.5499,-3388.8401L13074.6796,-3388.4399L13075.0504,-3387.8666L13075.2609,-3387.8136L13078.27,-3388.6333L13078.0899,-3388.8134L13076.8295,-3388.7669L13076.2695,-3388.4869L13076.2009,-3388.5799L13076.9806,-3388.9L13077.5696,-3388.9935L13077.6093,-3389.1468L13077.6199,-3388.9935L13077.8305,-3389.18L13077.8198,-3389.0133L13077.98,-3389.0335L13078.0502,-3389.1869L13078.0396,-3389.04L13078.2501,-3389.1998L13078.3005,-3389.0598L13079.6799,-3389.0865L13081.1203,-3390.1932L13081.4407,-3390.3336L13081.601,-3391.42L13081.4407,-3391.4135L13081.2302,-3391.4268L13080.9204,-3391.4665L13080.7404,-3391.2399L13080.5298,-3391.2735L13080.6305,-3391.6733L13080.9509,-3391.7866L13081.6498,-3391.6935L13081.7307,-3391.9868L13081.7703,-3392.2935L13081.4301,-3392.6933L13081.16,-3392.6266L13080.5695,-3392.9535L13080.6198,-3393.0534L13077.6703,-3393.42L13077.3407,-3392.6868L13075.3601,-3392.0269L13075.4303,-3392.2733L13075.0702,-3392.2802L13075.1999,-3392.5735L13075.5005,-3392.4534L13075.5569,-3392.4683L13075.7874,-3392.4839L13076.9089,-3392.9024L13076.9135,-3393.38L13076.0147,-3393.3826L13076.0162,-3393.9453L13076.8921,-3394.0342L13076.9028,-3394.7178L13075.2716,-3394.5507L13075.2716,-3393.0862L13075.1694,-3392.9668L13074.7299,-3392.3267L13074.6796,-3392.3401L13074.4904,-3392.5201L13074.6307,-3393.1801L13073.8403,-3393.1801L13073.7106,-3392.6334L13072.76,-3392.9668L13072.7707,-3393.52L13072.11,-3393.4868L13071.6309,-3393.7599L13071.4996,-3393.7466L13071.1609,-3393.84L13070.3598,-3393.8202L13069.8105,-3393.8667L13069.2596,-3393.6066L13068.6096,-3393.4933L13068.1702,-3393.6932L13068.1198,-3393.6733L13068.2098,-3393.3533L13068.4601,-3393.1934L13068.0405,-3392.3401L13067.54,-3391.9868L13067.2699,-3391.9067L13067.2394,-3391.8667L13066.89,-3391.8468L13066.7297,-3391.8732L13066.6504,-3391.5001L13066.4398,-3391.4867L13066.1407,-3391.6332L13066.3498,-3391.1133L13066.2201,-3390.9L13066.0797,-3390.7536L13065.8798,-3390.9065L13065.9698,-3391.0133L13065.6509,-3390.9267L13066.1209,-3390.6265L13066.1697,-3390.1867L13066.6199,-3389.7202L13066.4505,-3389.5733L13066.0797,-3389.8869L13065.9897,-3389.9601L13065.5396,-3389.6999L13065.3305,-3389.7667L13065.2298,-3389.3333L13063.4796,-3388.5399L13062.1796,-3388.1866L13059.4101,-3387.7934L13059.23,-3387.7934L13058.6304,-3387.7869L13056.8695,-3388.0001L13056.4499,-3388.5532L13056.3705,-3389.0667L13055.5298,-3389.0266L13055.3803,-3389.04L13054.2999,-3388.8065L13054.2099,-3388.9133L13053.7094,-3388.7402L13052.4994,-3388.8668L13052.3605,-3388.9534L13052.6505,-3388.4933L13052.9007,-3388.2668L13052.6108,-3387.0468L13051.6403,-3386.0065L13049.8505,-3385.2333L13049.6796,-3385.2135L13048.3994,-3385.1601L13048.1796,-3385.3199L13047.7798,-3385.78L13047.6501,-3385.78L13047.8897,-3385.0666L13048.1293,-3384.6931L13047.9797,-3383.6533L13047.2305,-3381.8268L13046.2799,-3381.0669L13045.7596,-3381.0333L13045.2194,-3381.0734L13044.9509,-3381.2336L13044.8303,-3381.6666L13044.7205,-3381.6933L13044.3405,-3381.4602L13044.5602,-3381.1867L13044.7006,-3380.7201L13044.9509,-3380.3799L13044.9402,-3379.9L13044.4595,-3379.4468L13044.6106,-3379.06L13044.96,-3378.4866L13045.5505,-3378.7666L13045.7596,-3379.1134L13045.7703,-3378.9268L13045.7108,-3378.6335L13046.08,-3378.8002L13046.7102,-3378.3268L13047.0001,-3377.3869L13046.8201,-3376.5934L13046.6507,-3375.3735L13046.6309,-3375.3201L13046.4527,-3375"/>
<path content="BA010,1,1,JPN" xlink:title="BA010" d="M13085.5804,-3396.5668L13085.8902,-3396.5733L13085.9802,-3396.6267L13085.6506,-3396.7934L13085.4004,-3396.8601L13085.1303,-3397.1333L13085.0098,-3397.1066L13084.7397,-3396.92L13085.0296,-3396.8266L13085.3195,-3396.5801L13085.4599,-3396.6202L13085.5804,-3396.5668"/>
<path content="BA010,1,1,JPN" xlink:title="BA010" d="M13086.0001,-3397.0066L13086.6302,-3397.1134L13086.5906,-3397.6067L13086.7508,-3397.6269L13086.4899,-3398.0999L13086.3708,-3398.0865L13086.0107,-3397.8733L13086.0001,-3397.0066"/>
<path content="BA010,1,1,JPN" xlink:title="BA010" d="M13173.6206,-3397.8733L13173.7305,-3398.0335L13173.4802,-3398.1667L13173.1995,-3398.0133L13173.6206,-3397.8733"/>
<path content="BA010,1,1,JPN" xlink:title="BA010" d="M13182.0206,-3393.0668L13182.84,-3393.2201L13183.5297,-3393.4399L13184.6603,-3394.5732L13185.4401,-3394.8666L13185.7407,-3395.2667L13186.0992,-3395.0935L13186.0199,-3395.3266L13185.9406,-3396.0602L13185.7697,-3396.3734L13186.4807,-3396.8266L13187.0804,-3396.8868L13187.1796,-3396.7533L13187.6801,-3397.0467L13187.2604,-3397.0467L13187.1796,-3397.5601L13186.7706,-3398.1602L13186.6302,-3397.8134L13186.3907,-3397.9603L13185.8398,-3398.4531L13185.6796,-3398.9735L13185.5408,-3398.0267L13185.3897,-3397.9935L13185.1501,-3398.0133L13185.4797,-3397.6868L13184.8297,-3397.06L13184.5001,-3397.0001L13184.2697,-3397.0333L13184.2896,-3396.7266L13184.1705,-3396.6534L13184.8206,-3396.7133L13184.7992,-3396.3001L13184.6405,-3396.1666L13185.0098,-3396.1132L13184.7702,-3395.7867L13184.9197,-3395.4067L13184.7504,-3395.2335L13184.61,-3395.3735L13184.5108,-3395.1134L13184.0103,-3395.6467L13183.5007,-3395.5067L13183.2504,-3395.5666L13183.1696,-3394.9402L13183.0505,-3394.7666L13182.7698,-3394.8532L13182.5104,-3394.8532L13182.3303,-3394.4866L13182.1899,-3394.5L13181.9794,-3394.4801L13181.8893,-3395.1733L13181.6895,-3395.1534L13181.6803,-3395.4533L13181.9504,-3395.8332L13181.2607,-3395.4868L13181.1203,-3395.4933L13180.8502,-3395.1603L13180.6793,-3395.1801L13180.5496,-3394.36L13180.5801,-3393.9003L13180.9708,-3393.84L13181.8298,-3393.5268L13182.0206,-3393.0668"/>
<path content="BA010,1,1,JPN" xlink:title="BA010" d="M13102.5894,-3399.4667L13102.6901,-3399.6132L13102.6505,-3399.5998L13102.4597,-3399.6132L13102.5894,-3399.4667"/>
<path content="BA010,1,1,JPN" xlink:title="BA010" d="M13082.0999,-3398.56L13082.0206,-3399.1798L13081.8207,-3399.2535L13081.9199,-3399.4736L13081.6299,-3399.8135L13081.3705,-3400.0935L13081.1996,-3400.1068L13080.8701,-3399.9134L13081.0806,-3399.7334L13081.2897,-3399.6201L13081.3797,-3399.4469L13081.7108,-3398.9799L13082.0099,-3398.6465L13082.0999,-3398.56"/>
<path content="BA010,1,1,JPN" xlink:title="BA010" d="M13080.8899,-3400.2934L13080.9402,-3400.3201L13080.8899,-3400.3334L13080.8395,-3400.3201L13080.8899,-3400.2934"/>
<path content="BA010,1,1,JPN" xlink:title="BA010" d="M13101.8995,-3399.7901L13101.9367,-3399.9262L13102.1916,-3400.2704L13102.3401,-3400.4562L13102.3256,-3400.4624L13102.1783,-3400.2803L13101.9185,-3399.9311L13101.8829,-3399.7921L13101.8995,-3399.7901"/>
<path content="BA010,1,1,JPN" xlink:title="BA010" d="M13071.6904,-3400.1202L13071.3608,-3400.3201L13071.0098,-3400.5001L13070.7306,-3400.3868L13070.9106,-3400.3201L13071.6904,-3400.1202"/>
<path content="BA010,1,1,JPN" xlink:title="BA010" d="M13072.7707,-3400.8469L13073.0698,-3401.6132L13072.5998,-3401.5934L13072.4594,-3401.9135L13072.3801,-3401.8665L13072.1298,-3401.7601L13072.6303,-3400.8732L13072.7707,-3400.8469"/>
<path content="BA010,1,1,JPN" xlink:title="BA010" d="M13179.5197,-3401.9531L13179.7699,-3402.38L13179.6005,-3402.3266L13179.3106,-3402.14L13179.5197,-3401.9531"/>
<path content="BA010,1,1,JPN" xlink:title="BA010" d="M13156.6803,-3398.6668L13157.0206,-3398.9132L13158.2199,-3399.3935L13159.0897,-3399.9401L13159.2102,-3400.3201L13159.5795,-3401.16L13160.0494,-3401.4999L13158.2794,-3402.3865L13158.0307,-3401.9867L13156.6803,-3401.1532L13156.6895,-3400.7534L13156.7001,-3400.3201L13156.0806,-3399.86L13155.9494,-3399.8669L13155.5206,-3399.4133L13155.6305,-3398.9868L13156.2805,-3399.3801L13156.3904,-3398.9399L13156.6803,-3398.6668"/>
<path content="BA010,1,1,JPN" xlink:title="BA010" d="M13171.8094,-3397.9401L13172.4594,-3398.1068L13173.1995,-3398.2533L13172.8104,-3398.7469L13172.2198,-3398.9334L13171.8002,-3399.1798L13171.3196,-3399.8402L13171.0007,-3400.0935L13171.0602,-3400.3201L13171.1304,-3400.9335L13171.2997,-3401.3535L13170.9702,-3401.5934L13171.1899,-3402.0668L13170.8496,-3402.2732L13171.0602,-3402.7134L13171.4096,-3403.2001L13171.0403,-3403.3535L13170.7794,-3403.4668L13170.7901,-3403.3401L13170.5795,-3403.3401L13170.3201,-3401.8135L13170.3506,-3401.3535L13170.3201,-3400.7267L13169.6594,-3400.9464L13169.0796,-3400.7866L13169.4504,-3400.3933L13170.1492,-3400.3201L13170.6299,-3399.7734L13170.9,-3399.6735L13171.3501,-3398.9735L13171.8704,-3398.9399L13171.8094,-3397.9401"/>
<path content="BA010,1,1,JPN" xlink:title="BA010" d="M13173.1003,-3402.1L13173.9395,-3402.1069L13174.6796,-3402.4799L13175.1404,-3403.0399L13175.1892,-3403.1399L13175.3998,-3402.8534L13175.6195,-3403.1399L13175.9201,-3403.4733L13176.3901,-3403.8467L13177.9205,-3404.8801L13177.0508,-3404.9934L13176.7502,-3404.66L13176.1505,-3404.7333L13175.7202,-3404.0802L13175.1099,-3403.26L13174.6796,-3403.7201L13174.5193,-3403.7132L13174.3805,-3403.7132L13174.2401,-3403.7067L13173.8007,-3403.7468L13173.5596,-3403.7399L13173.3505,-3403.7933L13172.6807,-3403.36L13172.67,-3402.5066L13173.1003,-3402.1"/>
<path content="BA010,1,1,JPN" xlink:title="BA010" d="M13126.5808,-3392.2802L13128.8193,-3393.3266L13128.7308,-3393.4734L13127.9495,-3393.3468L13127.9694,-3393.4132L13128.3707,-3393.5268L13128.4698,-3393.6932L13128.9703,-3393.7267L13129.6494,-3394.2001L13129.9606,-3394.1002L13130.5695,-3394.9333L13130.8594,-3395.0066L13130.9402,-3395.0733L13131.1508,-3394.9333L13131.1203,-3395.1733L13131.9397,-3395.4868L13132.4997,-3395.2534L13133.0505,-3395.2801L13133.7509,-3395.6135L13134.05,-3395.9332L13134.4101,-3396.3066L13134.6893,-3396.4867L13134.9503,-3396.5599L13135.3806,-3396.5466L13135.4996,-3396.7934L13135.0296,-3396.8399L13135.2509,-3397.1931L13135.0296,-3397.16L13135.08,-3397.5933L13134.7305,-3398.1731L13135.2402,-3398.7133L13135.6506,-3398.7469L13135.9299,-3398.5935L13136.0794,-3398.9799L13136.2396,-3399.6933L13137.1307,-3400.1667L13137.1796,-3400.2201L13137.2696,-3400.3201L13137.7197,-3400.7866L13138.1805,-3402.2732L13137.1796,-3402.56L13136.9003,-3402.8332L13137.1796,-3402.8667L13137.9807,-3403.1532L13138.0096,-3403.2265L13138.2095,-3403.0602L13138.5605,-3403.2333L13138.2095,-3403.6133L13138.5406,-3404.7199L13138.4201,-3404.9267L13139.3997,-3405.0865L13139.8102,-3404.9801L13139.7095,-3404.3068L13140.3305,-3404.2469L13140.0894,-3404.0733L13139.92,-3404.0802L13139.3799,-3403.5L13139.5004,-3402.5066L13140.0299,-3402.5532L13140.1596,-3402.5867L13141.4795,-3402.1732L13141.6199,-3402.28L13141.6,-3402.1267L13141.51,-3402.0733L13141.1392,-3402.0267L13140.6693,-3401.4534L13140.6998,-3401.3332L13140.4099,-3401.3466L13140.3,-3400.6199L13140.1993,-3400.3201L13139.9597,-3399.7665L13139.5905,-3399.7398L13139.3402,-3399.7536L13139.5706,-3399.0665L13139.5294,-3398.4467L13139.8895,-3398.6198L13139.8895,-3399.3069L13140.5396,-3399.6933L13140.8096,-3399.6399L13140.7303,-3400.0465L13140.8096,-3400.3201L13140.95,-3400.5402L13141.2506,-3400.84L13141.1392,-3400.9865L13141.1896,-3401.0334L13141.3498,-3400.84L13141.7999,-3401.12L13141.6794,-3401.3466L13141.8396,-3401.5469L13142.7307,-3401.3733L13142.9398,-3401.0532L13142.9001,-3400.8732L13143.0099,-3400.8801L13143.0496,-3400.7801L13142.8299,-3400.7801L13142.8299,-3400.6733L13143.1198,-3400.6332L13143.0099,-3400.3201L13142.5507,-3399.4865L13142.3203,-3398.9201L13142.7399,-3398.8869L13143.0099,-3399.0665L13143.5303,-3398.6668L13143.6508,-3398.2601L13144.1406,-3398.3532L13144.2001,-3399.1936L13144.9493,-3399.5399L13145.4498,-3399.3401L13145.5505,-3398.7667L13146.0205,-3398.7801L13146.2097,-3399.4331L13145.6696,-3399.8932L13145.4193,-3400.3201L13145.4697,-3400.42L13145.2194,-3400.4066L13144.9493,-3400.9533L13145.6894,-3400.5001L13146.1304,-3400.3468L13147.4106,-3401.0532L13147.9294,-3401.1734L13147.7295,-3401.72L13147.0703,-3402.0267L13146.9208,-3401.86L13146.7102,-3402.5269L13146.5698,-3402.5269L13146.6995,-3403.3535L13147.4396,-3403.7666L13147.4899,-3403.7735L13148.3597,-3402.8133L13148.6404,-3402.8267L13149.6796,-3402.4933L13150.1297,-3402.3533L13150.3296,-3402.5532L13151.2802,-3401.8135L13151.3992,-3401.4L13150.9506,-3401.0265L13150.9201,-3400.3468L13151.4694,-3400.4131L13151.5396,-3400.3201L13151.6205,-3400.2399L13151.7395,-3400.3201L13152.2095,-3400.7801L13152.5101,-3400.5199L13152.5299,-3400.3201L13152.5894,-3399.9134L13153.4409,-3400.1732L13153.9001,-3399.7334L13154.4403,-3399.9001L13154.2297,-3400.3201L13153.8605,-3400.7534L13154.2603,-3400.7065L13154.6494,-3400.3201L13154.8492,-3400.1266L13155.13,-3400.3201L13156.0501,-3400.7534L13156.1493,-3401.3065L13157.8598,-3402.0267L13158.11,-3402.2598L13158.1299,-3402.4334L13158.4503,-3402.5467L13158.7006,-3403.1933L13158.8898,-3403.2536L13158.4,-3403.6732L13158.2199,-3403.8067L13159.0103,-3404.0066L13159.1202,-3403.9135L13158.9706,-3403.7868L13159.2606,-3403.4801L13159.8694,-3403.8532L13159.52,-3404.3133L13159.8892,-3404.0466L13160.0006,-3404.0535L13160.3104,-3403.6934L13160.1807,-3403.4401L13160.1593,-3402.7199L13160.9604,-3402.1198L13161.3998,-3402.5269L13162.0499,-3403.5L13162.1796,-3403.8132L13163.4995,-3404.6867L13164.2105,-3404.7401L13164.4196,-3404.6799L13164.27,-3404.5868L13164.65,-3404.0333L13164.5401,-3403.7868L13166.1499,-3404.1199L13166.9495,-3404.5135L13167.2104,-3404.3133L13167.2897,-3404.3865L13167.6804,-3404.3201L13167.6605,-3404.5868L13167.7704,-3404.6268L13167.5201,-3405.0068L13167.7307,-3405.3001L13167.9001,-3405.4535L13168.2098,-3405.3066L13168.3594,-3405.2132L13168.9697,-3405.4134L13169.1101,-3405.0266L13168.8004,-3404.7401L13169.7296,-3404.7268L13169.7998,-3405.1399L13169.9203,-3405.5466L13170.4697,-3405.5668L13170.7108,-3405.4401L13170.9305,-3405.7934L13170.8908,-3406.0467L13171.4203,-3406.0268L13171.6904,-3405.8933L13171.8307,-3405.7667L13172.9095,-3406.2801L13173.4406,-3406.0932L13173.8098,-3406.2599L13173.88,-3406.4068L13174.2203,-3406.7333L13174.1806,-3407.1068L13174.3195,-3407.0065L13174.4507,-3406.5666L13174.6796,-3406.5666L13175.2502,-3407.0599L13175.09,-3406.5601L13175.4303,-3406.4869L13175.6699,-3406.76L13175.7401,-3406.5201L13175.3296,-3406.2534L13174.8505,-3406.2599L13174.6796,-3406.0001L13174.3698,-3405.9399L13173.8297,-3405.4665L13174.2401,-3405.0732L13174.2401,-3404.8668L13174.3805,-3404.9732L13174.6796,-3404.6333L13175.7706,-3404.8866L13176.0406,-3405.3932L13175.8804,-3405.3799L13175.8804,-3405.64L13176.2802,-3405.6732L13176.3504,-3405.88L13176.5701,-3405.3333L13177.9404,-3405.4333L13178.0594,-3406.0402L13178.3401,-3406.06L13178.1601,-3405.6267L13178.1906,-3405.4333L13178.6301,-3405.4535L13178.7201,-3405.4665L13178.8803,-3405.3467L13179.2801,-3405.5401L13179.6906,-3406.0066L13179.6005,-3405.6L13179.6997,-3405.3333L13179.5197,-3405.4867L13179.2099,-3405.0667L13179.361,-3404.9599L13179.5197,-3405.0335L13179.5502,-3404.9667L13179.8203,-3405.1132L13179.7897,-3404.8801L13179.9698,-3404.9133L13179.6799,-3404.6867L13179.4495,-3404.7668L13178.5706,-3403.7132L13178.2104,-3403.0266L13178.5309,-3402.7599L13179.6402,-3403.6934L13179.6509,-3404.0333L13180.22,-3404.2801L13180.2002,-3404.0733L13180.3604,-3404.2866L13180.3604,-3404.1L13180.5801,-3404.06L13180.5893,-3403.8734L13180.7999,-3404.0333L13181.1401,-3403.8601L13181.1508,-3403.8467L13181.1707,-3403.8334L13181.7703,-3403.4935L13182.0404,-3402.9335L13182.1304,-3402.7668L13182.6706,-3402.94L13182.4997,-3402.3533L13181.8207,-3402.38L13181.3904,-3402.2732L13181.3995,-3401.8066L13181.0501,-3401.5999L13180.4199,-3401.6399L13179.7302,-3400.9666L13179.6906,-3400.9335L13179.1397,-3400.3201L13178.1998,-3399.3999L13178.6697,-3398.9601L13178.4393,-3398.5802L13177.5101,-3398.4467L13176.59,-3398.0068L13176.21,-3398.2067L13176.0193,-3398.1998L13175.8606,-3398.2933L13176.12,-3397.5136L13176.3596,-3397.5868L13176.9699,-3398.0534L13177.2797,-3397.7531L13177.7802,-3397.6933L13177.8107,-3397.3934L13178.27,-3397.5399L13178.8696,-3397.3667L13179.5593,-3397.7001L13180.1407,-3397.5136L13180.4794,-3397.0867L13180.9799,-3396.7667L13181.6498,-3397.0135L13182.0496,-3397.6467L13181.8497,-3397.7467L13181.4499,-3397.6002L13181.4804,-3398.2136L13180.6396,-3398.3398L13180.2902,-3398.0801L13179.6707,-3398.3334L13179.3503,-3398.7267L13180.4901,-3398.9468L13181.8604,-3399.3999L13182.7499,-3400.3201L13183.2306,-3400.6134L13182.9605,-3400.9068L13183.1802,-3401.0868L13183.5098,-3400.9068L13183.5907,-3400.8801L13183.6899,-3400.9399L13184.0195,-3400.9201L13184.2896,-3400.9865L13185.2295,-3400.7999L13185.3302,-3400.5001L13185.5698,-3400.7935L13185.8597,-3400.6535L13185.82,-3400.3799L13186.0596,-3400.4868L13186.3297,-3400.6599L13186.2,-3400.3201L13186.3907,-3399.9866L13186.6302,-3400.0732L13186.7798,-3399.7601L13186.5906,-3399.0402L13186.2793,-3398.84L13187.1796,-3399.02L13187.4405,-3399.0334L13187.4405,-3398.8201L13188.1897,-3398.0934L13189.0305,-3397.86L13189.3494,-3398.0667L13189.1602,-3397.8134L13189.5294,-3397.6398L13189.7995,-3397.6868L13190.0604,-3397.3667L13190.2206,-3397.2202L13190.5807,-3397.2534L13191.7007,-3396.7735L13192.3401,-3395.9866L13192.5308,-3395.94L13192.2394,-3395.5933L13192.3798,-3395.34L13192.4301,-3395.62L13192.9504,-3396.1735L13192.6697,-3395.7066L13192.9596,-3395.06L13193.5501,-3394.7266L13194.5496,-3394.6999L13194.6899,-3394.8666L13194.7403,-3394.8334L13194.7296,-3395.0001L13195.34,-3394.92L13195.52,-3394.9867L13196.2799,-3394.3802L13196.8201,-3392.9466L13196.3699,-3392.8135L13196.1792,-3392.7002L13196.2204,-3392.0666L13196.3196,-3391.9868L13196.9894,-3391.6733L13197.4594,-3391.7999L13197.5708,-3391.9868L13197.5098,-3392.1734L13197.5204,-3391.9868L13197.2595,-3391.98L13197.2504,-3391.9868L13197.2397,-3391.9868L13197.0795,-3391.9868L13196.9208,-3392.2802L13197.5296,-3392.8799L13198.1506,-3392.9134L13199.4003,-3391.9868L13199.6796,-3391.8133L13200.0198,-3391.5066L13200.4105,-3391.4532L13200.8606,-3390.9668L13202.0691,-3390.5067L13202.4399,-3390.1867L13202.6703,-3390.4068L13203.3401,-3390.8066L13204.4495,-3391.3601L13204.8004,-3391.4867L13205.22,-3391.6466L13205.1804,-3391.9868L13205.3192,-3392.1932L13205.5908,-3392.4999L13205.7709,-3392.4068L13205.9692,-3392.0601L13205.7709,-3391.9868L13205.4504,-3391.6267L13205.5405,-3391.3136L13204.4098,-3390.9134L13205.1605,-3390.8333L13205.2795,-3390.9534L13206.0699,-3390.9199L13206.7093,-3390.6399L13207.1793,-3390.4999L13207.5607,-3390.3069L13207.6904,-3389.3135L13207.9102,-3389.2265L13208.1696,-3389.0736L13208.9294,-3388.8866L13209.8999,-3388.2668L13210.9406,-3388.0466L13211.1404,-3387.7735L13211.5601,-3387.8334L13211.9293,-3387.5401L13211.85,-3386.7867L13211.2305,-3386.0001L13211.4899,-3385.9001L13211.5692,-3385.6133L13211.7004,-3385.0601L13211.6501,-3383.9867L13211.5601,-3383.6533L13211.6898,-3383.1799"/>
<path content="BA010,1,1,JPN" xlink:title="BA010" d="M13087.2299,-3409.0534L13087.1796,-3409.0534L13087.1597,-3408.8333L13087.1796,-3408.8268L13087.4496,-3408.9401L13087.9196,-3408.6533L13087.97,-3408.3134L13087.5504,-3408.1001L13087.6694,-3407.9933L13088.1409,-3407.7934L13088.2507,-3407.3799L13088.7894,-3407.0999L13088.7207,-3406.62L13089.0594,-3406.44L13089.4806,-3406.7532L13089.3295,-3406.9267L13089.5508,-3406.9935L13089.8407,-3406.9199L13090.1794,-3406.7402L13090.0696,-3406.2733L13090.3595,-3406.2332L13090.6708,-3406.3866L13091.1102,-3405.9067L13091.3406,-3404.3133L13090.3107,-3402.5066L13090.8401,-3402.5532L13091.4108,-3402.28L13091.5497,-3401.1799L13091.2201,-3400.3201L13090.8401,-3400.0465L13090.7898,-3399.2466L13090.8798,-3399.1798L13091.0095,-3398.7267L13091.2506,-3398.3467L13091.6107,-3397.9332L13091.2598,-3397.0867L13091.2399,-3396.4001L13090.5197,-3395.3869L13090.77,-3395.3133L13090.95,-3395.5269L13091.89,-3395.2202L13091.7007,-3394.6732L13091.2704,-3394.1135L13091.4001,-3394.6335L13091.5695,-3395.0867L13091.0706,-3395.4067L13090.8997,-3394.9886L13090.361,-3395.2446L13089.9002,-3394.4599L13089.3097,-3394.3333L13089.0396,-3394.6732L13088.8901,-3394.6533L13088.6307,-3394.8334L13088.1409,-3395.0867L13087.9395,-3394.8933L13087.7594,-3394.96L13087.7594,-3394.8334L13087.6907,-3394.9867L13087.7808,-3395.4601L13087.6602,-3395.4666L13087.5793,-3395.4132L13087.4908,-3395.1866L13087.3398,-3395.0466L13087.2803,-3394.8734L13087.59,-3394.6201L13087.3398,-3394.64L13087.6099,-3394.4801L13087.8906,-3394.2799L13089.0808,-3393.6932L13089.0701,-3393.9133L13089.27,-3393.9133L13089.5905,-3393.3601L13089.27,-3393.2201L13089.4394,-3392.9535L13089.74,-3393.0599L13089.8499,-3392.82L13089.8193,-3392.5999L13089.8407,-3392.1669L13090.7196,-3392.4667L13090.9409,-3392.5667L13090.77,-3392.2535L13090.5899,-3392.0399L13090.4205,-3391.9868L13089.9994,-3391.7934L13090.4007,-3391.3734L13091.1804,-3391.1335L13091.6306,-3391.2869L13091.8304,-3391.3067L13092.2607,-3391.4467L13092.4194,-3391.9868L13092.7505,-3392.6201L13092.4606,-3393.1999L13092.3004,-3393.5799L13092.1677,-3393.7031L13092.1265,-3393.8229L13092.7505,-3393.8267L13092.8299,-3394.1532L13092.4698,-3394.2932L13092.5797,-3394.6648L13093.3197,-3394.7533L13093.7103,-3394.9268L13093.9606,-3395.2202L13094.1498,-3395.5467L13094.5694,-3395.6734L13095.5704,-3396.4802L13097.8607,-3397.9069L13098.41,-3398.3135L13098.7106,-3398.5268L13099.1302,-3398.6534L13099.5209,-3399.1001L13099.9344,-3399.7421L13099.6277,-3399.9187L13100.2899,-3399.9268L13100.5005,-3400.3201L13100.0595,-3400.5466L13100.0397,-3400.84L13100.3098,-3401.4801L13100.2106,-3401.7399L13100.5905,-3402.1465L13100.7492,-3402.0332L13100.4303,-3401.68L13101.2604,-3401.16L13102.0294,-3402L13101.7502,-3402.42L13101.2009,-3402.7267L13101.4801,-3402.8999L13102.2797,-3403.6068L13102.9694,-3403.92L13103.0792,-3404.2732L13102.7405,-3404.5734L13103.2303,-3405.1132L13103.6896,-3405.6999L13104.1595,-3405.6332L13104.2603,-3405.74L13104.2603,-3405.2933L13104.5502,-3405.2334L13104.7501,-3404.7535L13104.5395,-3404.3468L13104.6692,-3404.2267L13106.0104,-3404.0401L13106.0806,-3404.0333L13106.7001,-3403.8868L13108.2504,-3403.4L13108.4106,-3403.7399L13108.6304,-3403.7201L13108.7601,-3403.54L13108.8196,-3403.6602L13109.1599,-3403.7334L13110.3699,-3402.8667L13110.9604,-3401.9199L13111.3098,-3401.44L13111.5097,-3401.3535L13112.0697,-3400.3201L13112.1796,-3400.3002L13113.1302,-3399.5934L13113.4705,-3399.1268L13113.8702,-3399.1669L13113.3102,-3400.0599L13113.2904,-3400.3201L13114.74,-3400.4066L13114.9704,-3400.3201L13114.6393,-3399.44L13115.6799,-3398.8934L13116.3406,-3399.4469L13116.6397,-3399.5735L13116.5604,-3399.6799L13116.9006,-3399.5998L13116.9098,-3399.2466L13116.1697,-3398.9399L13116.0095,-3398.5802L13116.6107,-3397.8268L13116.0507,-3397.7531L13116.1301,-3397.3534L13116.6992,-3397.72L13116.8396,-3397.7467L13116.9006,-3397.4869L13117.3798,-3397.4667L13117.3096,-3397.3L13117.0303,-3397.3267L13116.7099,-3397.1333L13117.2195,-3396.9067L13116.2201,-3397.0467L13115.9897,-3396.4733L13116.3498,-3396.5336L13116.5802,-3396.6068L13116.5695,-3396.4199L13116.8793,-3396.3402L13116.2994,-3396.18L13116.1499,-3396.18L13115.7806,-3396.1132L13115.7501,-3395.5135L13115.6998,-3395.3068L13116.0599,-3395.1267L13117.7704,-3393.1469L13117.9703,-3393.1332L13118.4402,-3393.2133L13118.4906,-3393.9133L13119.8593,-3394.2669L13120.9106,-3394.4069L13121.5302,-3393.9201L13121.4401,-3393.66L13122.1802,-3393.3666L13123.0408,-3393.7801L13122.9202,-3393.9934L13123.2803,-3394.1601L13123.2697,-3394.7868L13123.6404,-3395.0401L13123.8403,-3395.1332L13124.1302,-3394.8467L13124.0097,-3394.6133L13124.2294,-3394.6667L13124.3103,-3394.5801L13124.53,-3394.5934L13124.1806,-3394.2001L13124.3393,-3394.1734L13124.6094,-3394.3066L13124.6796,-3394.3268L13124.6796,-3394.2333L13124.2493,-3393.8202L13123.32,-3393.6401L13123.41,-3393.4132L13122.9599,-3393L13123.1796,-3392.7132L13124.6796,-3393.4734L13125.1801,-3393.6802L13125.5203,-3393.1866L13125.3906,-3393.1068L13125.1007,-3393.3933L13124.7894,-3393.2335L13124.8093,-3393.1068L13124.6796,-3393.1866L13124.6796,-3392.9867L13124.8596,-3392.7399L13125.9003,-3392.5999L13126.1292,-3392.7002L13126.1398,-3392.5602L13126.3794,-3392.5999L13126.5808,-3392.2802"/>
<path content="BA010,1,1,JPN" xlink:title="BA010" d="M13079.5593,-3409.2464L13079.9103,-3409.3399L13079.7302,-3409.7866L13079.8309,-3410.0399L13079.5593,-3410.3065L13079.2007,-3410.6068L13079.0497,-3410.5865L13078.7994,-3410.8601L13078.5904,-3410.6667L13078.2394,-3410.6667L13078.0594,-3411.3335L13077.7405,-3411.52L13077.5803,-3411.5269L13077.42,-3410.8799L13077.6901,-3410.2402L13078.0807,-3410.0533L13078.2501,-3409.7599L13078.92,-3410.0601L13079.3396,-3409.6333L13079.5593,-3409.2464"/>
<path content="BA010,1,1,JPN" xlink:title="BA010" d="M13089.74,-3417.0532L13090.4297,-3417.1135L13090.5106,-3417.2466L13089.9994,-3417.6533L13089.74,-3417.0532"/>
<path content="BA010,1,1,JPN" xlink:title="BA010" d="M13089.7202,-3417.6334L13090.1108,-3417.8665L13089.9796,-3418L13089.7308,-3417.9199L13089.7202,-3417.6334"/>
<path content="BA010,1,1,JPN" xlink:title="BA010" d="M13010.4401,-3423.9399L13011.2396,-3424.8333L13011.0397,-3424.9268L13010.4095,-3424.9199L13010.2402,-3424.9332L13010.2295,-3424.8669L13009.8007,-3424.3465L13009.9106,-3424.0932L13010.2798,-3424.0067L13010.4401,-3423.9399"/>
<path content="BA010,1,1,JPN" xlink:title="BA010" d="M12937.5,-3429.6378L12937.5702,-3429.6268L12937.5397,-3429.7401L12937.5,-3429.8106M12937.5,-3430.2756L12937.59,-3430.2601L12937.6007,-3430.36L12937.8601,-3430.3402L12938.1393,-3429.9999L12938.1805,-3430.3867L12938.3392,-3430.3532L12938.62,-3430.3734L12938.7299,-3430.0335L12938.8702,-3430.0602L12939.2395,-3430.0133L12939.1403,-3429.5933L12938.4109,-3428.78L12937.8601,-3428.4L12937.5,-3428.0896"/>
<path content="BA010,1,1,JPN" xlink:title="BA010" d="M12939.5599,-3431.1733L12940.3397,-3431.3667L12940.7104,-3431.4533L12941.2094,-3431.5868L12941.1194,-3431.9401L12940.4495,-3431.5334L12939.8193,-3431.6933L12939.5905,-3431.7066L12939.4196,-3431.72L12939.3906,-3431.7265L12939.36,-3431.9199L12939.3997,-3432.3666L12939.2197,-3432.2266L12938.6993,-3432.04L12939.27,-3431.3667L12939.5599,-3431.1733"/>
<path content="BA010,1,1,JPN" xlink:title="BA010" d="M12939.6606,-3433.4267L12939.7705,-3433.4332L12939.8499,-3433.5335L12939.8697,-3433.6533L12940.2802,-3433.6868L12940.2695,-3433.6533L12940.4205,-3433.5266L12940.5792,-3433.6533L12940.5502,-3433.9466L12940.2893,-3434.5066L12940.0208,-3434.2133L12939.8407,-3434.2133L12940.0894,-3434.6333L12940.5701,-3434.9731L12940.2206,-3435.1868L12940.0208,-3435.0601L12939.83,-3434.98L12940.0101,-3435.1334L12940.1505,-3435.4069L12939.9994,-3435.5331L12939.5798,-3435.9867L12939.5096,-3435.7666L12939.5508,-3435.4801L12939.3204,-3435.64L12939.1602,-3435.2135L12939.2593,-3435.1131L12939.1296,-3435.12L12939.0594,-3434.7668L12939.2593,-3434.4868L12938.9099,-3434.5798L12938.9801,-3434.3666L12939.0198,-3434.28L12939.0305,-3434.2335L12938.8397,-3434.1064L12939.1006,-3433.9401L12939.3204,-3433.86L12939.36,-3433.9134L12939.4501,-3433.7532L12939.5798,-3433.9134L12939.6805,-3433.9535L12939.65,-3433.7601L12939.65,-3433.7467L12939.5706,-3433.6533L12939.5706,-3433.5266L12939.7003,-3433.6533L12939.7995,-3433.7002L12939.7705,-3433.6533L12939.6606,-3433.4267"/>
<path content="BA010,1,1,JPN" xlink:title="BA010" d="M12940.6296,-3435.0533L12940.7898,-3435.3066L12940.86,-3435.1131L12941.0004,-3435.4401L12941.0202,-3435.5801L12941.0904,-3436.2999L12940.7593,-3435.9402L12940.2695,-3436.0401L12940.2695,-3435.8665L12940.3809,-3435.7132L12940.5106,-3435.7468L12940.5594,-3435.6068L12940.5106,-3435.4599L12940.6296,-3435.0533"/>
<path content="BA010,1,1,JPN" xlink:title="BA010" d="M13096.5302,-3435.8269L13097.11,-3436.1134L13097.3495,-3436.3934L13097.1603,-3436.3934L13096.9604,-3436.4201L13096.4798,-3436.1134L13096.3806,-3435.9001L13096.5302,-3435.8269"/>
<path content="BA010,1,1,JPN" xlink:title="BA010" d="M13211.6898,-3383.1799L13212.1796,-3383.4602L13212.9395,-3383.3267L13213.9297,-3383.1936L13214.3906,-3383.3466L13214.4104,-3383.6533L13214.9597,-3384.0466L13215.1993,-3384.3067L13215.7196,-3384.5333L13215.7898,-3385.5999L13215.5991,-3386.1069L13214.7095,-3386.52L13214.5996,-3387.0667L13214.6698,-3387.5134L13214.5401,-3387.5069L13213.53,-3387.9932L13213.4293,-3388.3469L13213.2202,-3388.1931L13212.9898,-3388.4468L13212.9807,-3388.6135L13212.8006,-3389.0133L13213.0707,-3389.3333L13213.15,-3389.4333L13212.6694,-3389.8067L13212.8693,-3390.3732L13213.0905,-3390.5201L13213.0295,-3391.0599L13212.6801,-3391.7801L13212.6602,-3391.9868L13212.4603,-3393.28L13212.4298,-3394.1135L13212.2604,-3394.08L13212.1796,-3394.1666L13211.7203,-3395.1134L13211.9904,-3395.3068L13212.1796,-3395.0199L13212.3795,-3394.6999L13212.8693,-3395.2866L13212.7502,-3395.6734L13213.0295,-3395.7466L13213.2401,-3395.6734L13213.4094,-3395.52L13213.4201,-3395.66L13213.9694,-3395.62L13216.0095,-3395.7268L13217.2897,-3396.1868L13217.5995,-3396.2334L13218.1992,-3396.2269L13218.4097,-3396.1266L13218.75,-3396.4884"/>
<path content="BA010,1,1,JPN" xlink:title="BA010" d="M13084.6405,-3434.1L13085.0403,-3434.5066L13085.1395,-3434.8469L13085.2005,-3434.7866L13085.8307,-3435.3199L13086.7004,-3435.2467L13087.1796,-3435.5267L13087.7502,-3435.3867L13087.9395,-3436.4799L13087.5702,-3436.7733L13087.4405,-3436.7733L13087.2406,-3436.6333L13087.1796,-3436.66L13087.1796,-3436.7664L13087.1902,-3436.8465L13086.9308,-3437.4001L13086.7905,-3437.3402L13086.5707,-3437.3535L13086.7508,-3437.0464L13086.94,-3436.4334L13086.3205,-3435.8933L13085.7101,-3435.5534L13085.0403,-3435.5L13084.3002,-3435.4134L13083.9005,-3435.5L13083.7601,-3435.1002L13083.96,-3434.5402L13084.4193,-3434.3533L13084.5795,-3434.3468L13084.6405,-3434.1"/>
<path content="BA010,1,1,JPN" xlink:title="BA010" d="M13126.8097,-3441.0267L13127.2903,-3441.2201L13127.0706,-3441.4932L13126.9394,-3441.4734L13126.6296,-3441.8465L13126.5396,-3441.4734L13126.6495,-3441.1133L13126.8097,-3441.0267"/>
<path content="BA010,1,1,JPN" xlink:title="BA010" d="M13131.9199,-3442.6201L13132.0999,-3442.8799L13131.9,-3443.2533L13131.7307,-3443.2533L13131.6498,-3442.7132L13131.9199,-3442.6201"/>
<path content="BA010,1,1,JPN" xlink:title="BA010" d="M13119.6503,-3439.8266L13120.1797,-3439.8399L13120.5399,-3439.8334L13120.7199,-3440.0734L13121.1594,-3440.1466L13121.4203,-3440.0799L13121.2906,-3440.3465L13121.1304,-3440.4865L13120.7108,-3441.1934L13120.9702,-3441.3132L13121.2906,-3441.3601L13121.1594,-3441.6866L13121.6095,-3441.9865L13122.6501,-3442.8333L13122.3999,-3442.2333L13122.4197,-3441.9865L13122.2305,-3441.6733L13122.7295,-3441.8667L13122.7707,-3441.9865L13123.2498,-3442.3332L13123.8602,-3442.3534L13123.9502,-3442.3L13124.0692,-3442.2932L13124.3393,-3442.3267L13124.6796,-3442.5667L13125.2304,-3442.3267L13125.3494,-3442.3599L13125.2594,-3442.1402L13125.0595,-3441.9865L13125.3998,-3441.7534L13126.03,-3441.7599L13125.7202,-3441.9865L13125.6897,-3442.3401L13126.0605,-3442.7601L13125.7599,-3443.1534L13125.3403,-3443.3666L13125.1694,-3443.8198L13124.8398,-3443.6066L13124.6796,-3443.7L13124.4202,-3443.8L13123.7595,-3443.5333L13123.23,-3443.1999L13122.9599,-3443.2068L13122.9095,-3443.1469L13122.7798,-3443.1599L13122.7402,-3443.1L13121.9894,-3442.8066L13121.8399,-3442.6067L13119.8807,-3442.58L13119.4,-3442.8001L13119.0704,-3442.4068L13118.9407,-3442.4202L13118.1793,-3442.4133L13117.9199,-3442.7467L13117.6804,-3442.8532L13117.45,-3442.6933L13117.1204,-3442.9466L13117.0898,-3443.1267L13116.7694,-3442.7002L13117.1295,-3442.3L13117.1707,-3441.9865L13117.2897,-3440.7467L13118.6401,-3440.16L13118.8797,-3439.8869L13119.5496,-3439.9734L13119.5602,-3440.2466L13119.7403,-3440.06L13119.6503,-3439.8266"/>
<path content="BA010,1,1,JPN" xlink:title="BA010" d="M12937.5,-3431.6755L12937.5702,-3431.6734L12937.5,-3431.6034M12937.5,-3431.1179L12937.7701,-3431.1867L12937.7808,-3431.4133L12937.6801,-3431.8001L12937.5,-3431.8552M12937.5,-3432.2468L12937.6099,-3431.9801L12937.6404,-3432.4467L12937.5,-3432.4334M12937.5,-3432.6671L12937.6205,-3432.7L12937.5,-3432.8167M12937.5,-3433.6484L12937.59,-3433.6266L12937.9395,-3433.5869L12937.9303,-3433.6533L12938.0005,-3433.7334L12938.1195,-3433.68L12938.06,-3433.6533L12938.1104,-3433.3332L12938.5895,-3433.6533L12938.62,-3433.6533L12938.4506,-3433.0132L12938.5696,-3433.1734L12938.6292,-3433.0868L12938.7894,-3433.3199L12938.9206,-3432.8999L12939.0503,-3433.5068L12939.2197,-3433.3866L12939.2593,-3433.4866L12939.3997,-3433.5133L12939.1998,-3433.6533L12938.5696,-3434.1L12938.7299,-3434.14L12938.6597,-3434.6466L12938.6002,-3434.4601L12938.5498,-3434.3334L12938.3896,-3434.3666L12938.3102,-3434.24L12938.0905,-3434.3735L12937.8906,-3434.3666L12937.6404,-3434.3735L12937.5397,-3434.3201L12937.5,-3434.3303M12937.5,-3434.6199L12937.6999,-3434.6199L12938.3606,-3434.8598L12938.4201,-3435.1067L12938.2401,-3435.22L12938.4201,-3435.3066L12938.7405,-3435.0735L12938.8596,-3435.4267L12938.9694,-3435.7601L12939.3005,-3436.1801L12938.62,-3436.4399L12938.5605,-3436.7535L12938.8,-3436.9667L12938.4399,-3437.0464L12938.3499,-3437.1532L12938.0707,-3436.7065L12937.6694,-3436.8935L12937.5,-3436.9371M12937.5,-3437.1916L12937.5595,-3437.2334L12937.7808,-3437.1132L12938.2095,-3437.2066L12937.7701,-3437.7731L12937.5,-3438.1388M12937.5,-3438.1707L12937.9196,-3438.0402L12937.5,-3438.7193M12937.5,-3438.8998L12937.6999,-3438.8332L12937.8204,-3438.6066L12938.0295,-3438.8866L12938.2599,-3438.9534L12938.2401,-3438.5265L12938.6795,-3438.2801L12939.0594,-3438.3465L12938.9404,-3438.3667L12938.6703,-3438.9198L12938.9893,-3439.1731L12939.27,-3439.3002L12939.1296,-3439.3734L12939.3295,-3439.3799L12939.1693,-3439.6534L12939.3799,-3440.16L12939.4699,-3440.7265L12939.6805,-3441.18L12939.2502,-3440.8134L12939.0594,-3440.6132L12938.9893,-3440.5468L12938.8504,-3440.1001L12938.6993,-3440.2534L12938.2996,-3440.34L12938.6002,-3440.1199L12938.5498,-3439.6999L12938.3896,-3439.8533L12938.2996,-3439.5802L12938.0508,-3439.8132L12937.6404,-3439.46L12937.6907,-3439.8334L12937.5,-3439.714M12937.5,-3440.8001L12937.5198,-3441.0534L12937.6495,-3441.0332L12937.5,-3441.1619M12937.5,-3441.2682L12937.5397,-3441.2666L12937.59,-3441.3399L12937.8601,-3441.2201L12937.6999,-3441.9865L12937.5,-3442.3585M12937.5,-3443.1066L12937.5198,-3443.0332L12937.7502,-3443.3666L12937.7899,-3442.9333L12937.8998,-3442.96L12938.0096,-3442.7265L12938.1699,-3442.7799L12938.3102,-3442.4332"/>
<path content="BA010,1,1,JPN" xlink:title="BA010" d="M13137.6907,-3446.1735L13137.9501,-3446.4134L13137.5397,-3446.7201L13137.3108,-3446.4668L13137.6907,-3446.1735"/>
<path content="BA010,1,1,JPN" xlink:title="BA010" d="M13137.6297,-3448.1667L13138.0402,-3448.3799L13138.0005,-3448.7865L13137.6602,-3448.5401L13137.6205,-3448.4734L13137.5107,-3448.3868L13137.6297,-3448.1667"/>
<path content="BA010,1,1,JPN" xlink:title="BA010" d="M13134.4803,-3449.8798L13134.4101,-3450.3132L13134.3399,-3450.3201L13134.0698,-3450.3201L13133.9401,-3450.3067L13133.9493,-3450.3201L13133.8196,-3450.3201L13133.8699,-3449.8798L13134.4803,-3449.8798"/>
<path content="BA010,1,1,JPN" xlink:title="BA010" d="M13140.7303,-3448.9735L13140.8203,-3449.0334L13141.2903,-3449.2668L13141.5894,-3449.1467L13141.7908,-3449.6468L13141.6901,-3450.3201L13141.5207,-3450.8202L13141.4505,-3451.2135L13141.1392,-3451.2932L13141.04,-3451.2531L13140.8401,-3451.2531L13140.2298,-3450.4932L13140.1703,-3450.3201L13140.0803,-3449.5266L13140.7303,-3448.9735"/>
<path content="BA010,1,1,JPN" xlink:title="BA010" d="M13127.6794,-3449.7002L13128.0594,-3450.2468L13128.4195,-3450.3201L13129.2099,-3450.6134L13129.2206,-3451.1467L13128.6896,-3451.26L13128.5309,-3451.26L13128.3005,-3451.1665L13128.1403,-3451.4732L13128.0502,-3451.5465L13127.9694,-3451.4668L13127.7695,-3451.6201L13127.6794,-3451.82L13127.5497,-3451.7265L13127.0905,-3450.6664L13127.24,-3450.3201L13127.6794,-3449.7002"/>
<path content="BA010,1,1,JPN" xlink:title="BA010" d="M13138.5498,-3451.26L13139.0503,-3451.4599L13139.0793,-3452.3132L13138.6398,-3452.3201L13138.3499,-3452.0065L13138.3499,-3451.8734L13138.5498,-3451.26"/>
<path content="BA010,1,1,JPN" xlink:title="BA010" d="M13151.3901,-3456.4198L13151.59,-3456.4865L13151.3397,-3456.6734L13151.2695,-3456.5998L13151.3901,-3456.4198"/>
<path content="BA010,1,1,JPN" xlink:title="BA010" d="M13147.9294,-3457.2533L13147.9095,-3457.5333L13147.6196,-3457.46L13147.67,-3457.3666L13147.9294,-3457.2533"/>
<path content="BA010,1,1,JPN" xlink:title="BA010" d="M13164.8804,-3464.0865L13164.7507,-3464.0934L13164.4699,-3464.0865L13164.3402,-3464.1731L13164.1495,-3464.4867L13163.9801,-3464.5535L13163.7695,-3464.6866L13163.9496,-3464.8399L13164.09,-3465.3L13164.2395,-3465.6265L13164.0701,-3465.6067L13164.0594,-3465.9935L13163.7405,-3466.1732L13163.3896,-3466.3933L13163.2004,-3466.4001L13162.9395,-3466.3933L13162.6404,-3466.5466L13162.3306,-3466.4333L13162.2604,-3466.5001L13162.1796,-3466.4333L13161.8301,-3466.42L13161.6104,-3466.4799L13161.4395,-3466.46L13161.1694,-3466.6466L13160.6003,-3466.18L13160.2905,-3466.1865L13159.8892,-3465.6334L13159.6893,-3465.1066L13159.3903,-3464.6065L13159.2392,-3464.6133L13159.0805,-3464.6L13159.0897,-3464.2799L13159.3109,-3464.1399L13159.2499,-3463.7135L13159.0698,-3463.4602L13158.9005,-3463.2599L13159.1797,-3462.8799L13159.3994,-3463.2534L13159.5093,-3463.4068L13159.79,-3463.1001L13160.17,-3463.0333L13160.2402,-3462.9665L13160.2097,-3463.3801L13160.4004,-3462.9799L13160.5103,-3462.8399L13160.3394,-3462.7468L13160.1501,-3462.7533L13159.9808,-3462.4866L13160.2798,-3462.4199L13160.0403,-3462.2868L13159.9197,-3462.3466L13159.7305,-3462.1799L13159.0103,-3462.22L13159.0195,-3461.9865L13158.7296,-3461.9801L13158.3893,-3462.2269L13158.6395,-3462.1468L13158.6105,-3462.4065L13157.7301,-3462.5L13157.9498,-3462.2002L13157.8796,-3462.0399L13157.6508,-3462.0533L13157.0007,-3462.1933L13156.8405,-3462.1933L13156.5201,-3462.1201L13155.6305,-3461.5131L13155.6702,-3461.2267L13155.4703,-3460.64L13155.7098,-3460.3268L13155.4703,-3459.7801L13155.04,-3459.2865L13155.5099,-3458.8333L13155.4199,-3458.6533L13155.4108,-3458.0601L13154.5807,-3457.1133L13154.0604,-3456.8733L13153.6896,-3456.2534L13153.1601,-3455.9666L13152.8595,-3455.9734L13152.1408,-3455.5801L13151.9394,-3455.64L13151.9394,-3455.4001L13151.8005,-3455.3932L13151.6602,-3455.3932L13151.4694,-3455.1933L13151.1902,-3454.7535L13150.56,-3453.8868L13150.3296,-3453.3867L13149.6796,-3453.1467L13149.44,-3453.1467L13149.1699,-3453.1399L13148.79,-3453.36L13148.1796,-3453.22L13147.9507,-3453.2135L13147.6105,-3453.3733L13146.9406,-3453.36L13146.6095,-3453.8532L13146.1304,-3452.9598L13145.5505,-3452.6001L13145.3796,-3452.0267L13145.1294,-3451.6602L13144.9402,-3451.6666L13145.1706,-3451.4668L13145.3903,-3451.12L13144.9493,-3450.6802L13145.2301,-3450.7133L13145.5795,-3450.8465L13145.8099,-3450.42L13145.7901,-3450.3201L13146.0297,-3450.0198L13146.6095,-3450.14L13146.64,-3449.8466L13146.3501,-3449.1932L13146.1304,-3448.6198L13145.2499,-3448.04L13144.6106,-3448.5535L13144.2505,-3448.4066L13143.9804,-3448.2468L13144.22,-3448.0534L13144.5007,-3447.8535L13144.5297,-3447.7402L13144.4794,-3447.8065L13144.4305,-3447.5601L13144.0598,-3447.1199L13143.8904,-3447.16L13143.5593,-3447.1066L13143.4204,-3447.2599L13143.1107,-3447.1466L13143.4799,-3446.7068L13142.5003,-3445.6734L13142.2897,-3445.3934L13141.6901,-3445.2068L13141.4993,-3444.8734L13141.2598,-3444.8666L13140.9592,-3445.1401L13141.1392,-3445.1599L13140.5899,-3445.3667L13139.9704,-3445.9866L13139.7003,-3445.9732L13139.6393,-3446.0335L13139.4104,-3445.62L13139.4806,-3445.2732L13139.6698,-3444.7735L13139.83,-3444.68L13140.4297,-3444.5133L13140.8401,-3444.4733L13140.8997,-3444.7266L13141.3498,-3444.6602L13141.4993,-3444.4935L13142.1707,-3444.1002L13141.9205,-3443.7466L13141.7297,-3443.7199L13141.42,-3444.0865L13141.2598,-3443.8332L13141.7206,-3443.5799L13141.3193,-3443.4467L13141.04,-3443.5467L13140.9195,-3443.1534L13141.2003,-3443.0332L13141.3498,-3443.1267L13141.4001,-3442.9268L13141.4795,-3442.6067L13141.1102,-3442.5869L13140.6799,-3442.86L13140.3702,-3442.8532L13140.1993,-3442.8734L13139.8804,-3442.54L13140.0894,-3442.2665L13140.1108,-3442.1932L13139.8102,-3442.3401L13139.7095,-3442.1532L13139.5706,-3442.2001L13139.5706,-3441.9865L13138.6795,-3441.7068L13138.4903,-3441.9067L13138.53,-3441.9865L13138.0096,-3442.3065L13137.6404,-3442.2134L13137.8006,-3441.9865L13137.4405,-3441.4867L13137.1796,-3441.3734L13136.9507,-3441.4665L13136.7706,-3441.5001L13136.5295,-3441.32L13136.3708,-3441.3132L13135.7697,-3441.1068L13135.2905,-3441.1068L13134.6893,-3441.6866L13134.3399,-3441.5134L13134.1003,-3441.6069L13133.7906,-3441.5867L13133.67,-3441.8335L13133.3694,-3441.5066L13133.2108,-3441.5268L13133.0704,-3441.2601L13132.8598,-3440.7665L13132.8201,-3440.6265L13132.6508,-3440.4732L13132.8506,-3439.9067L13132.2601,-3439.1869L13132.1304,-3439.1998L13131.8497,-3439.0865L13131.5903,-3439.0865L13131.1005,-3438.6932L13130.6107,-3438.7066L13130.5206,-3438.2866L13129.7592,-3438.2801L13129.4601,-3438.3064L13129.2404,-3438.0264L13129.01,-3438.1401L13128.9703,-3438.4933L13128.8406,-3438.4731L13128.5706,-3438.6532L13128.2501,-3438.4998L13128.0106,-3438.3598L13127.8305,-3438.6269L13127.7008,-3438.9599L13127.5696,-3438.9599L13127.3804,-3438.9599L13127.0996,-3438.9999L13126.5594,-3438.6467L13126.3596,-3438.5799L13126.0406,-3438.4266L13125.7095,-3438.7268L13125.5096,-3438.94L13125.4395,-3438.3598L13124.8993,-3438.1664L13124.7192,-3438.1599L13124.6796,-3438.1733L13124.5605,-3438.3801L13124.2798,-3438.3732L13123.8205,-3438.7333L13123.3704,-3439.1068L13122.8699,-3438.8733L13122.4304,-3439.2799L13122.3099,-3438.8332L13122.1405,-3438.6333L13122.1802,-3438.3533L13122.3602,-3437.9002L13121.4996,-3437.08L13120.8099,-3437.2665L13120.4498,-3437.5668L13120.7199,-3437.9066L13120.6894,-3438.2065L13120.0806,-3438.9668L13119.9905,-3439.2468L13119.9692,-3439.6267L13119.7205,-3439.7266L13118.9499,-3438.2465L13118.7393,-3438.0531L13118.4494,-3438.0466L13118.0191,-3437.7335L13117.7506,-3437.7602L13117.7795,-3437.6469L13117.6407,-3437.5668L13117.5903,-3437.7335L13116.8304,-3437.2868L13115.4404,-3437.2532L13115.0894,-3437.7068L13114.6301,-3438.0798L13114.5096,-3438.0798L13114.27,-3438.0333L13114.27,-3438.2732L13113.6795,-3439.1068L13113.8306,-3440.0665L13113.5193,-3440.5998L13113.0707,-3441.2399L13113.0798,-3441.7732L13112.9501,-3441.7732L13112.6907,-3441.1999L13112.3199,-3441.18L13112.1796,-3441.1068L13112.0895,-3441.1602L13111.6699,-3441.1533L13111.0901,-3440.9267L13110.6308,-3441.42L13109.79,-3441.8667L13109.7092,-3441.9865L13109.6207,-3441.9865L13109.4498,-3441.9865L13109.4299,-3441.9865L13109.3994,-3441.9865L13109.3506,-3442.0601L13109.23,-3442.0601L13109.1095,-3441.9865L13108.5602,-3441.9735L13108.5403,-3441.9865L13107.5302,-3442.3401L13107.2693,-3442.3866L13107.0801,-3442.3401L13106.7902,-3442.0734L13106.8405,-3441.9865L13106.6803,-3441.8533L13106.4697,-3441.9865L13106.1707,-3442.0799L13106.1493,-3441.9865L13105.6198,-3441.5268L13105.1804,-3441.5268L13104.66,-3441.14L13104.0695,-3441.0599L13103.5492,-3441.1999L13102.9907,-3441.04L13102.3697,-3441.1335L13102.0905,-3441.14L13101.8997,-3441.1198L13101.3901,-3441.2266L13100.6393,-3441.5268L13100.4196,-3441.5199L13100.2396,-3441.9735L13100.1999,-3441.9865L13100.2197,-3442.8135L13099.6796,-3443.0401L13098.6099,-3443.4002L13098.41,-3443.4734L13097.9401,-3443.6333L13097.3999,-3444.0735L13097.2702,-3444.1666L13097.1497,-3444.1933L13097.2305,-3443.8202L13097.11,-3442.9932L13096.5103,-3442.7666L13096.1105,-3442.7799L13095.6207,-3441.9865L13095.7809,-3441.1732L13094.5404,-3440.3336L13094.1803,-3440.3069L13093.6798,-3440.3934L13093.6905,-3440.1798L13093.4799,-3439.6465L13093.4006,-3439.2601L13093.1396,-3439.2735L13093.7897,-3439.0533L13094.6701,-3438.7268L13095.4605,-3438.9198L13095.5002,-3439.5802L13095.3903,-3439.9132L13094.9707,-3440.1134L13095.05,-3440.4934L13095.8405,-3440.72L13096.7102,-3440.5533L13097.1802,-3440.7532L13097.3297,-3440.3599L13097.9706,-3439.9868L13098.5596,-3440.02L13099.5605,-3439.9399L13099.6796,-3439.9532L13100.1801,-3439.8998L13101.0406,-3440.2267L13101.2894,-3440.48L13101.6602,-3440.3732L13101.7303,-3439.7999L13102.0706,-3439.0999L13102.4597,-3439.0465L13102.9694,-3438.7268L13103.3707,-3438.3331L13103.4103,-3437.8864L13103.5599,-3437.7865L13103.5095,-3437.2131L13103.3997,-3437.0335L13102.3499,-3437.2398L13102.1698,-3437.3066L13101.5198,-3437.3199L13101.3,-3437.3066L13101.1398,-3437.3135L13100.3799,-3437.0731L13099.9802,-3437.3932L13099.6796,-3437.1735L13099.3805,-3437.1933L13098.9899,-3436.7664L13098.7503,-3436.7599L13098.5397,-3436.7931L13098.2407,-3436.6199L13097.9706,-3436.3602L13096.64,-3435.8135L13096.4798,-3435.7601L13096.1899,-3435.8135L13095.6894,-3435.5667L13094.9005,-3435.36L13094.5908,-3435.2268L13094.5099,-3435.4069L13094.3893,-3435.3931L13094.2795,-3435.4267L13094.0704,-3435.1799L13093.7805,-3435.1601L13093.3899,-3435.1799L13093.3105,-3434.7801L13092.9794,-3434.6001L13093.0099,-3434.1999L13092.5507,-3434.1667L13092.5003,-3434.5932L13092.4194,-3434.7866L13092.3401,-3434.7401L13092.2806,-3434.9934L13092.1005,-3435.1532L13091.98,-3435.3802L13091.861,-3435.36L13091.4902,-3435.2001L13091.3101,-3435.1799L13091.2903,-3435.4069L13091.1606,-3435.4L13090.4907,-3436.2667L13090.1596,-3436.2267L13089.9994,-3436.2267L13090.0208,-3435.4465L13090.0497,-3435.3333L13089.92,-3435.3333L13089.4897,-3434.8335L13088.9893,-3434.6466L13088.9297,-3434.3468L13089.0198,-3433.7666L13088.9297,-3433.6533L13088.9297,-3433.2134L13089.2899,-3433.2333L13089.1602,-3433.1333L13089.1693,-3432.4665L13089.2197,-3432.2666L13089.7003,-3432.5466L13089.3997,-3432.0202L13089.1403,-3432.0332L13089.1693,-3431.9L13089.6698,-3431.7333L13089.2105,-3431.6868L13088.9404,-3431.7333L13089.1907,-3431.2534L13089.3005,-3431.0535L13088.9404,-3430.9666L13088.7802,-3431.1199L13088.6307,-3431.2401L13088.6108,-3431.2599L13088.4399,-3430.9799L13088.3499,-3430.5134L13088.5193,-3430.2334L13088.0203,-3429.4735L13087.1796,-3429.52L13086.9308,-3429.2332L13086.6409,-3428.7266L13087.1796,-3428.3669L13087.5702,-3428.0201L13088.5696,-3427.2266L13088.6398,-3427.1866L13088.7207,-3427.2999L13089.18,-3426.7468L13089.6393,-3426.4267L13090.0299,-3425.4002L13090.1596,-3425.3201L13091.6595,-3424.2599L13092.0898,-3423.9132L13092.1204,-3422.4667L13091.8503,-3422.2134L13091.5802,-3421.64L13091.7496,-3421.3402L13092.4896,-3421.3001L13092.5903,-3421.3268L13092.9398,-3421.0602L13092.9001,-3420.4468L13093.1107,-3419.3134L13093.1595,-3418.7534L13092.9504,-3418.2335L13092.5095,-3417.9932L13092.5095,-3417.8135L13092.7094,-3417.7269L13092.5797,-3417.1799L13092.5308,-3416.9865L13091.2399,-3415.7867L13091.1301,-3415.9199L13091.0004,-3415.8401L13090.9195,-3415.9065L13090.2298,-3415.2668L13089.6393,-3415.4068L13089.6103,-3415.2267L13089.9002,-3415.2267L13089.8804,-3414.8468L13090.3503,-3414.7736L13090.3595,-3414.6935L13090.1505,-3414.0202L13089.2609,-3413.4998L13088.8199,-3413.4731L13088.3102,-3413.7867L13088.4796,-3414.1865L13088.0402,-3414.1998L13087.8799,-3413.7932L13087.6694,-3413.6333L13087.3001,-3413.8466L13087.1796,-3413.8134L13086.9705,-3413.8401L13086.5402,-3413.5601L13086.5494,-3413.1866L13086.38,-3412.0735L13086.4502,-3411.8732L13086.3007,-3411.3068L13085.9695,-3410.9798L13086.1603,-3410.4L13086.6608,-3410.2135L13086.9202,-3410.0399L13087.1796,-3409.8598L13087.1796,-3409.8267L13087.1796,-3409.7935L13087.2299,-3409.0534"/>
<path content="BA010,1,1,JPN" xlink:title="BA010" d="M12947.8897,-3467.9935L12948.1003,-3468.3132L12947.9507,-3468.2335L12947.7295,-3468.3067L12947.8897,-3467.9935"/>
<path content="BA010,1,1,JPN" xlink:title="BA010" d="M12938.3102,-3442.4332L12938.4109,-3442.9802L12938.0997,-3443.2999L12938.06,-3443.8267L12938.2706,-3443.9201L12937.9196,-3443.9865L12937.8204,-3443.9732L12937.6297,-3444.0533L12937.5,-3444.0245M12937.5,-3445.2534L12937.7701,-3445.1668L12937.7701,-3445.3667L12938.5498,-3445.8401L12938.3102,-3446.1468L12938.7802,-3446.3264L12938.9297,-3446.46L12938.9694,-3446.74L12939.2502,-3447.1466L12939.1998,-3447.3331L12939.5905,-3447.2332L12939.6194,-3447.7402L12939.65,-3447.8931L12939.6896,-3448.0999L12939.8697,-3447.6868L12939.9796,-3447.7665L12940.6906,-3448.6332L12940.5701,-3448.7667L12940.9393,-3448.7465L12940.86,-3448.9532L12940.7593,-3449.1199L12940.9897,-3449.1199L12941.2704,-3449.0131L12941.9205,-3449.5266L12942.0197,-3449.7398L12942.2699,-3449.7131L12942.6697,-3450.0599L12943.0191,-3450.3201L12943.6203,-3450.7801L12943.6401,-3450.8533L12943.5196,-3451.2531L12943.4601,-3451.3199L12943.6996,-3451.6533L12944.1101,-3451.44L12944.3802,-3451.9531L12945.0104,-3452.3998L12944.8593,-3452.8065L12944.3893,-3452.9598L12944.5694,-3453.0666L12944.96,-3453.0468L12945.1294,-3453.0666L12945.1401,-3453.5332L12945.3903,-3453.1734L12946.0297,-3453.9932L12946.1899,-3454.4067L12946.0403,-3454.4067L12945.9198,-3454.3732L12945.8206,-3454.4468L12945.7306,-3454.4132L12945.8206,-3454.5265L12945.6802,-3455.1399L12945.6497,-3455.4401L12945.9702,-3455.22L12946.5195,-3455.4001L12946.6003,-3455.0865L12946.7697,-3455.0201L12947.0108,-3455.3932L12947.2504,-3455.6202L12946.8994,-3455.5935L12946.9803,-3456.0467L12946.8399,-3456.7665L12947.0108,-3457L12947.4808,-3457.04L12947.3694,-3457.3132L12947.2397,-3457.3799L12947.0993,-3457.6L12947.4396,-3458.5335L12947.1298,-3458.6533L12947.1497,-3458.8264L12947.8195,-3459.3666L12947.76,-3459.4933L12947.4808,-3459.4734L12947.3099,-3459.4734L12947.2305,-3459.5268L12947.2107,-3459.6931L12947.2702,-3459.6401L12947.2107,-3460.0601L12947.0306,-3460.0735L12946.9696,-3460.5331L12946.9101,-3460.7868L12946.8002,-3460.7132L12946.5103,-3460.5934L12946.2494,-3460.6201L12945.7993,-3460.5934L12946.0495,-3460.7132L12945.8603,-3460.8868L12945.5704,-3460.7265L12945.3293,-3460.2798L12945.1599,-3460.7132L12945.0394,-3460.6533L12944.8807,-3460.7933L12945.0394,-3460.8467L12944.9692,-3461.2202L12944.7296,-3461.4334L12944.5694,-3461.2999L12944.3298,-3461.4201L12944.22,-3461.3464L12944.1406,-3461.4201L12943.8095,-3460.9932L12943.2709,-3460.8601L12943.1595,-3460.8398L12943.3197,-3460.9798L12943.5806,-3461.2064L12943.6096,-3461.6398L12943.3197,-3461.6333L12943.2404,-3461.7668L12943.5303,-3461.7867L12943.4998,-3462.3001L12943.6905,-3462.3867L12943.8202,-3462.3135L12943.7302,-3461.8L12944.0598,-3461.9267L12944.3405,-3461.7466L12944.5908,-3461.8332L12945.1492,-3461.2598L12945.3506,-3461.1332L12945.52,-3461.2465L12945.6497,-3461.3731L12945.43,-3461.4868L12945.0302,-3461.8866L12945.0806,-3462.0934L12945.0607,-3462.1864L12944.5099,-3462.4134L12944.2307,-3462.4599L12944.1406,-3462.5332L12944.3893,-3462.6534L12944.5404,-3462.6266L12944.5801,-3462.78L12944.4702,-3462.9334L12944.6396,-3463.1199L12944.87,-3462.8799L12944.9799,-3462.8864L12944.9905,-3462.4268L12945.1706,-3462.5732L12945.2896,-3462.5935L12945.5399,-3461.8866L12945.7108,-3461.6135L12945.9106,-3461.5131L12946.0602,-3461.3998L12946.4203,-3461.6264L12946.6003,-3461.5932L12946.7102,-3461.7931L12947.1909,-3461.8134L12947.1405,-3461.6467L12947.4396,-3461.5799L12947.5693,-3461.6135L12947.5998,-3461.7599L12947.4197,-3461.8935L12947.8302,-3461.7668L12947.8302,-3461.9534L12947.5601,-3462.2002L12947.3099,-3462.3466L12947.0306,-3462.6865L12947.0505,-3462.7998L12947.6196,-3462.8864L12947.9294,-3462.8132L12947.9507,-3462.8334L12948.3109,-3463.0531L12948.0698,-3463.2133L12948.3002,-3463.3732L12948.2697,-3463.4464L12948.5306,-3463.4933L12948.7305,-3464.04L12949.0005,-3464.5267L12948.7793,-3464.4135L12948.4894,-3464.4531L12948.3002,-3464.5466L12948.2605,-3464.4001L12948.0103,-3464.0934L12948.0698,-3464.5401L12947.6898,-3464.46L12947.76,-3464.6866L12947.3694,-3464.4333L12947.1405,-3464.4531L12947.3602,-3464.5267L12947.3999,-3464.5866L12947.5296,-3464.8933L12947.4106,-3464.88L12947.4197,-3465.0131L12947.3404,-3465.1402L12947.0306,-3465.4068L12946.4493,-3465.3999L12946.5698,-3465.4667L12946.8796,-3465.6067L12947.11,-3465.8867L12947.1207,-3465.6601L12947.7295,-3465.5533L12947.8104,-3465.6601L12947.9401,-3465.4266L12948.0194,-3465.2668L12948.2605,-3465.6265L12948.0103,-3465.62L12948.2697,-3465.8199L12948.5306,-3465.8932L12948.2895,-3465.8867L12949.0295,-3466.3467L12949.6307,-3466.7267L12949.5499,-3466.8869L12948.9395,-3466.5001L12948.5901,-3466.6599L12948.3307,-3466.8201L12948.4406,-3466.9868L12948.4695,-3467.4732L12948.8297,-3467.5201L12948.7503,-3467.82L12949.4003,-3467.7933L12949.2599,-3467.9401L12949.1608,-3468.14L12949.2599,-3468.3468L12948.8403,-3468.3067L12948.5901,-3468.3132L12948.4894,-3467.5468L12948.2895,-3467.5468L12948.0194,-3467.5468L12947.8699,-3467.4267L12947.7493,-3467.7532L12947.4701,-3467.3599L12947.4106,-3467.2932L12947.0993,-3467.8066L12947.4701,-3468.1068L12947.3602,-3468.1469L12947.0306,-3468.1068L12947.4503,-3468.52L12947.0001,-3468.4334L12947.2702,-3468.84L12947.8699,-3468.8202L12947.9294,-3469.1933L12948.0103,-3469.3268L12947.8302,-3469.3199L12947.6395,-3469.2268L12947.3999,-3469.2333L12947.0795,-3468.9533L12947.2794,-3469.3466L12947.1603,-3469.3401L12946.8399,-3469.5202L12946.4905,-3469.54L12946.3303,-3469.5335L12946.3501,-3469.7334L12946.3608,-3469.9467L12946.2601,-3470.0932L12946.0205,-3469.6602L12945.8298,-3469.7533L12945.7199,-3469.5667L12945.6497,-3469.2467L12945.4803,-3469.6602L12945.61,-3470.0401L12945.6604,-3470.1668L12945.34,-3470.0466L12945.1797,-3469.8002L12944.9203,-3469.8067L12944.8105,-3469.6335L12944.8303,-3469.9734L12945.0104,-3470.2133L12944.8303,-3470.4266L12944.7998,-3470.66L12944.5908,-3470.4868L12944.5496,-3470.3934L12944.1605,-3470.1L12944.1895,-3470.0199L12944.1605,-3469.8799L12943.9407,-3469.7868L12944.0399,-3469.6468L12943.9606,-3469.4466L12943.8705,-3469.3466L12943.66,-3469.5133L12943.4998,-3469.3134L12943.5501,-3469.2467L12943.3594,-3469.2467L12943.0298,-3469.1601L12942.9596,-3469.22L12942.63,-3469.4401L12942.3004,-3469.3134L12942.1707,-3469.3401L12942.1707,-3469.2734L12941.9998,-3469.3001L12941.9907,-3469.3066L12942.3294,-3469.7067L12942.1402,-3469.6602L12942.1707,-3469.7868L12941.7099,-3469.4199L12941.4902,-3469.2135L12941.3803,-3468.9533L12941.7908,-3468.8866L12941.4307,-3468.1999L12941.6901,-3467.9134L12942.1707,-3468.1999L12942.45,-3468.1801L12942.8696,-3468.0866L12942.839,-3467.9199L12943.19,-3467.82L12943.28,-3467.4999L12943.28,-3467.2668L12943.1107,-3467.4202L12942.7307,-3467.3199L12942.7597,-3467.7734L12942.3401,-3467.8936L12941.7908,-3467.6067L12941.0797,-3467.7532L12940.8707,-3467.8665L12940.7593,-3467.6468L12940.5792,-3467.6735L12940.5792,-3467.3534L12940.1398,-3467.1532L12939.9399,-3466.9868L12940.0101,-3466.8133L12940.1794,-3466.9868L12940.2008,-3467.0269L12940.3305,-3467.02L12940.3107,-3466.9868L12940.1001,-3466.6134L12940.1001,-3466.4001L12939.8697,-3466.4135L12939.5004,-3466.2533L12939.4699,-3466.18L12939.4104,-3465.7799L12939.2792,-3465.7799L12939.3494,-3465.1402L12938.9008,-3465.4667L12938.6505,-3465.2802L12938.5803,-3465.0333L12938.2507,-3464.8933L12938.4003,-3464.6332L12938.6597,-3464.3799L12938.9297,-3464.1464L12939.5706,-3463.9065L12938.9893,-3463.9801L12938.8901,-3463.9L12938.7405,-3463.8866L12938.0203,-3464.3265L12937.6801,-3464.3131L12937.5,-3464.4791"/>
<path content="BA010,1,1,JPN" xlink:title="BA010" d="M12943.2907,-3470.3732L12943.5303,-3470.5467L12944.0399,-3470.6467L12943.8904,-3470.7134L12943.6401,-3470.7401L12943.5104,-3470.7134L12943.3197,-3470.7268L12943.2907,-3470.3732"/>
<path content="BA010,1,1,JPN" xlink:title="BA010" d="M12942.8729,-3471.9434L12943.0496,-3471.9733L12943.0714,-3471.8102L12942.9191,-3471.8102L12942.8729,-3471.9434"/>
<path content="BA010,1,1,JPN" xlink:title="BA010" d="M12944.3152,-3472.4496L12944.539,-3472.4546L12944.4694,-3472.3501L12944.3052,-3472.3451L12944.3152,-3472.4496"/>
<path content="BA010,1,1,JPN" xlink:title="BA010" d="M13113.7497,-3475.8469L13114.0305,-3475.8801L13114.4501,-3475.8598L13114.8499,-3475.9266L13114.9994,-3476.1269L13115.1093,-3476.0468L13115.3107,-3476.3401L13115.7593,-3476.3199L13116.0294,-3476.4069L13116.1407,-3477.6001L13116.2796,-3477.8332L13115.6708,-3477.5002L13115.3,-3477.6932L13114.4897,-3477.98L13114.4104,-3478.12L13114.3005,-3478.1467L13114.5706,-3478.3733L13114.7095,-3478.5934L13114.9704,-3478.6068L13114.7202,-3478.9402L13114.1296,-3478.82L13113.6795,-3479.1401L13113.2294,-3479.5799L13112.9791,-3479.8332L13112.6907,-3479.2469L13112.9501,-3477.5066L13113.1699,-3476.6865L13113.5101,-3475.9933L13113.7497,-3475.8469"/>
<path content="BA010,1,1,JPN" xlink:title="BA010" d="M13184.0805,-3483.3801L13183.9706,-3483.6266L13183.8196,-3483.6201L13183.7296,-3483.6533L13183.4595,-3483.7334L13183.1696,-3483.7334L13182.9102,-3483.7399L13182.8995,-3483.6533L13183.1299,-3483.5068L13184.0805,-3483.3801"/>
<path content="BA010,1,1,JPN" xlink:title="BA010" d="M13206.0806,-3489.7934L13206.1401,-3489.8335L13206.2592,-3490.1466L13206.0593,-3490.48L13205.9204,-3490.2065L13205.7892,-3490.2065L13205.8197,-3489.9399L13206.0806,-3489.7934"/>
<path content="BA010,1,1,JPN" xlink:title="BA010" d="M13204.48,-3490.2L13205.0003,-3490.3267L13205.0003,-3490.6067L13204.4403,-3490.3198L13204.48,-3490.2"/>
<path content="BA010,1,1,JPN" xlink:title="BA010" d="M13218.75,-3499.4484L13216.4093,-3498.0934L13215.3107,-3497.6933L13215.1093,-3497.6933L13214.9399,-3497.3667L13214.6393,-3496.5668L13214.3707,-3496.3867L13212.1796,-3495.2667L13211.3007,-3495.1065L13211.1893,-3495.2999L13210.8704,-3494.8067L13210.7498,-3494.8135L13210.4797,-3494.5065L13210.7895,-3493.8866L13210.2203,-3493.3266L13210.0296,-3493.2667L13209.2804,-3493.4132L13209.1507,-3493.2999L13208.96,-3493.3132L13208.9493,-3493.0801L13208.6807,-3493.1599L13208.6304,-3493.0534L13208.3893,-3493.0664L13208.3893,-3492.7868L13208.4106,-3492.5735L13208.2596,-3492.58L13208.0597,-3492.2798L13207.7606,-3492.1867L13207.7393,-3492.0334L13207.6401,-3491.9865L13207.4799,-3491.8732L13207.3105,-3491.8732L13207.2205,-3491.4734L13207.0404,-3491.3734L13207.4997,-3490.8466L13207.5394,-3491.14L13207.8796,-3491.2666L13208.0795,-3491.1533L13207.7698,-3491.1598L13207.6797,-3490.6601L13207.4295,-3490.4266L13207.0999,-3490.4469L13207.1198,-3490.2267L13207.0602,-3490.5266L13207.2006,-3490.7467L13206.6299,-3490.76L13206.4697,-3490.76L13206.3004,-3490.1531L13206.6101,-3489.6133L13206.9199,-3489.4135L13206.9504,-3489.3532L13207.0099,-3489.2334L13206.6391,-3489.0934L13206.3293,-3489.6198L13206.1996,-3489.5466L13206.4697,-3489.2399L13206.2698,-3489.1201L13206.0104,-3489.3867L13206.25,-3489.1132L13205.6595,-3488.8931L13205.8105,-3488.1065L13205.6793,-3488.1134L13205.4901,-3487.8868L13205.9006,-3487.7335L13205.3391,-3487.1735L13204.6005,-3487.1601L13203.9902,-3487.3932L13204.0192,-3487.5134L13204.1595,-3487.4332L13204.2404,-3487.5801L13204.6005,-3487.7869L13204.4098,-3487.7869L13204.2297,-3487.7933L13204.1397,-3487.7468L13203.7994,-3488.0798L13203.6606,-3488.06L13203.5706,-3488.2401L13203.2394,-3487.8399L13202.89,-3487.9665L13202.8503,-3487.8265L13202.9297,-3487.5L13202.6199,-3487.5267L13202.4002,-3487.1399L13202.0905,-3487.0602L13202.0691,-3486.8465L13202.1103,-3486.7401L13201.8402,-3486.4201L13201.9592,-3486.9736L13201.7593,-3486.7268L13201.6998,-3486.8935L13202.0493,-3487.2734L13201.6296,-3487.08L13201.4999,-3487.0934L13201.3306,-3487.0335L13200.8499,-3486.8134L13200.7004,-3486.8198L13200.65,-3486.5532L13200.7507,-3486.3335L13201.12,-3486.0332L13201.4496,-3485.9798L13200.5508,-3484.6535L13200.0198,-3484.4532L13199.6796,-3484.2335L13199.4598,-3484.2464L13199.2905,-3483.9535L13199.2996,-3483.6533L13199.2096,-3483.4801L13199.0906,-3483.2466L13198.7106,-3482.7068L13198.14,-3482.5199L13197.8806,-3482.3666L13197.3297,-3482.1335L13197.0596,-3482.32L13196.7102,-3482.04L13196.4905,-3482.04L13196.3196,-3482.0465L13196.2296,-3481.8798L13195.9702,-3481.7398L13195.7397,-3481.7066L13195.43,-3481.5735L13195.4697,-3481.1867L13195.1706,-3481.0268L13195.0394,-3481.06L13195.2103,-3480.8201L13195.1996,-3480.5664L13195.1004,-3480.4531L13194.8196,-3480.1666L13194.7205,-3480.0133L13194.7296,-3479.7401L13194.6793,-3479.5601L13194.3008,-3479.1069L13193.7698,-3478.9402L13193.5196,-3478.9402L13193.3899,-3478.9532L13193.1107,-3478.5732L13192.9901,-3478.2135L13192.4896,-3478.1334L13192.2806,-3478.6602L13192.0395,-3478.5267L13191.9296,-3478.6201L13191.6107,-3478.3401L13191.3696,-3477.4132L13191.2598,-3477.4532L13191.1301,-3477.3468L13190.77,-3477.4666L13190.2695,-3477.4933L13189.8605,-3477.4799L13189.8499,-3477.56L13189.65,-3477.5734L13189.4196,-3477.1332L13189.36,-3476.8333L13189.3402,-3476.2466L13189.0106,-3476.2333L13188.8,-3476.3199L13188.9496,-3475.8133L13188.7802,-3475.8335L13188.5193,-3475.6866L13187.7899,-3475.8732L13187.6099,-3475.8335L13187.3306,-3475.9869L13187.1796,-3475.9468L13187.1796,-3475.8934L13187.1796,-3475.8801L13187.03,-3475.8801L13186.9995,-3475.8133L13186.8301,-3475.8133L13186.7493,-3475.6401L13186.4105,-3475.4799L13186.4807,-3475.3201L13186.85,-3474.6735L13187.1796,-3474.4267L13187.3596,-3474.2268L13187.2208,-3474.2401L13187.1796,-3474.2268L13187.1796,-3474.1665L13187.1796,-3474.0398L13187.1796,-3474.0135L13187.1796,-3473.9532L13186.8195,-3473.9666L13186.8607,-3473.74L13187.0102,-3473.2399L13186.47,-3472.76L13186.1206,-3472.3202L13185.82,-3472.2935L13185.6796,-3472.3L13185.3897,-3472.1802L13185.4706,-3471.8132L13184.4101,-3470.8733L13182.0297,-3469.6934L13181.9199,-3469.6602L13181.3507,-3469.4569L13179.5105,-3468.8L13178.2303,-3468.5532L13175.3906,-3467.7868L13174.6796,-3467.5869L13173.1308,-3467.4866L13172.8104,-3467.4599L13172.6608,-3467.4335L13172.4899,-3467.4335L13172.3801,-3467.4L13172.1298,-3467.68L13172.0398,-3467.6266L13171.8796,-3467.6266L13171.3806,-3467.3199L13170.8099,-3467.5335L13170.2698,-3467.2401L13170.1202,-3467.4267L13169.9799,-3467.4133L13169.6396,-3467.5999L13169.0796,-3467.82L13168.9896,-3468.1L13168.5806,-3467.7532L13168.4402,-3467.7601L13168.3105,-3467.4732L13168.0908,-3467.5335L13167.8696,-3467.5068L13167.7795,-3467.6136L13167.5598,-3467.3534L13167.3599,-3467.3599L13167.1707,-3467.3534L13167.1097,-3467.6933L13166.6992,-3467.5266L13166.8793,-3467.0135L13166.98,-3466.9868L13167.0898,-3466.7667L13167.3904,-3466.4333L13167.0898,-3466.4402L13166.9006,-3465.9935L13166.7603,-3465.9801L13166.51,-3465.9866L13166.4001,-3465.7001L13165.95,-3465.4865L13165.7105,-3465.6467L13165.4694,-3465.72L13165.4495,-3465.4198L13165.4205,-3465.34L13165.2206,-3465.3599L13165.0299,-3465.3465L13164.5599,-3465.2401L13164.5309,-3465.2332L13164.4501,-3464.7068L13164.9292,-3464.6198L13165.0497,-3464.6133L13164.9292,-3464.4066L13164.8804,-3464.3932L13164.7995,-3464.1464L13164.8804,-3464.0865"/>
</g>
</svg>
