<?xml version="1.0" encoding="UTF-8"?>
<svg  xmlns="http://www.w3.org/2000/svg" xmlns:xlink="http://www.w3.org/1999/xlink" xmlns:go="http://purl.org/svgmap/profile" property="f_code,acc,exs,rst,med,rtt,RSU,loc,soc" viewBox="14132.8125 -4078.125 70.3125 70.3125" go:dataArea="14132.8125 -4078.125 70.3125 70.3125" >
<metadata>
 <rdf:RDF xmlns:rdf="http://www.w3.org/1999/02/22-rdf-syntax-ns#" xmlns:crs="http://opengis.org/xmldtds/transformations.dtd" xmlns:svg="http://www.w3.org/svg" >
  <rdf:Description>
   <crs:CoordinateReferenceSystem rdf:resource="http://purl.org/crs/84" svg:transform="matrix(100.0,0.0,0.0,-100.0,0.0,0.0)" />
  </rdf:Description>
 </rdf:RDF>
</metadata>
<globalCoordinateSystem srsName="http://purl.org/crs/84" transform="matrix(100.0,0.0,0.0,-100.0,0.0,0.0)" />
<defs>
 <g id="p0" >
  <circle cx="0.0" cy="0.0" r="3" stroke="green" stroke-width="2.0" vector-effect="non-scaling-stroke" />
 </g>
</defs>
<g fill="none" fill-rule="evenodd" stroke="#00ff00" stroke-width="2" opacity="0.5" vector-effect="non-scaling-stroke" stroke-linejoin="bevel" >
<path content="AP030,1,28,1,0,14,1,8,JPN" xlink:title="AP030" d="M14140.2029,-4078.125L14140.2206,-4077.9934L14140.2206,-4077.7199L14140.3305,-4077.4864L14140.4297,-4077.1667L14140.5807,-4076.6068L14140.6998,-4076.26L14140.77,-4075.8133L14140.95,-4074.6933L14141.0599,-4073.8998L14141.1102,-4073.4867L14141.1804,-4073.2533L14141.33,-4072.86L14141.4001,-4072.6601L14141.5207,-4072.48L14141.5604,-4072.1733L14141.7007,-4071.9398L14141.7892,-4071.6866L14141.8106,-4071.5401L14141.8594,-4071.4333L14141.9006,-4071.3467L14141.9006,-4071.2734L14141.8793,-4071.0934L14141.8793,-4071.04L14141.9495,-4070.9465L14141.9693,-4070.7867L14141.9907,-4070.5132L14142.0593,-4070.4067L14142.1295,-4070.3335L14142.1997,-4070.1935L14142.2394,-4069.9932L14142.3599,-4069.8997L14142.45,-4069.8334L14142.45,-4069.7598L14142.3599,-4069.6133L14142.3798,-4069.4668"/>
<path content="AP030,1,28,1,0,15,1,8,JPN" xlink:title="AP030" d="M14141.4658,-4069.1154L14142.3798,-4069.4668"/>
<path content="AP030,1,28,1,0,15,1,8,JPN" xlink:title="AP030" d="M14137.2503,-4078.125L14137.3718,-4077.9758L14137.97,-4076.474L14138.0432,-4075.9544L14137.9593,-4074.7433L14139.1693,-4073.9315L14140.3687,-4071.6202L14141.4658,-4069.1154"/>
<path content="AP030,1,28,1,0,15,1,8,JPN" xlink:title="AP030" d="M14138.3011,-4068.6256L14139.5294,-4068.9487L14140.6281,-4068.8648L14141.4658,-4069.1154"/>
<path content="AP030,1,28,1,0,15,1,8,JPN" xlink:title="AP030" d="M14138.3011,-4068.6256L14138.0859,-4069.0319"/>
<path content="AP030,1,28,1,0,15,1,8,JPN" xlink:title="AP030" d="M14136.5555,-4067.5945L14136.9736,-4068.008L14137.59,-4068.4387L14138.3011,-4068.6256"/>
<path content="AP030,1,28,1,0,15,1,8,JPN" xlink:title="AP030" d="M14132.8125,-4069.8672L14132.9498,-4069.7983L14134.0408,-4069.0765L14134.7534,-4069.0002L14135.1334,-4068.9621L14135.4645,-4068.734L14135.4645,-4068.3922L14135.6064,-4068.0126L14136.1298,-4067.7464L14136.5555,-4067.5945"/>
<path content="AP030,1,28,1,0,15,1,8,JPN" xlink:title="AP030" d="M14135.6064,-4066.8354L14136.5555,-4067.5945"/>
<path content="AP030,1,28,1,0,15,1,8,JPN" xlink:title="AP030" d="M14134.9411,-4066.494L14135.3683,-4066.6836L14135.4904,-4066.7614L14135.5804,-4066.819L14135.6064,-4066.8354"/>
<path content="AP030,1,28,1,0,15,1,8,JPN" xlink:title="AP030" d="M14132.8125,-4067.0855L14134.9411,-4066.494"/>
<path content="AP030,1,28,1,0,15,1,8,JPN" xlink:title="AP030" d="M14134.7702,-4066.2464L14134.7519,-4066.4181L14134.9411,-4066.494"/>
<path content="AP030,1,28,1,0,15,1,8,JPN" xlink:title="AP030" d="M14137.3428,-4065.8722L14138.4827,-4068.2796L14138.3011,-4068.6256"/>
<path content="AP030,1,28,1,0,15,1,8,JPN" xlink:title="AP030" d="M14135.6064,-4066.8354L14137.3428,-4065.8722"/>
<path content="AP030,1,28,1,0,15,1,8,JPN" xlink:title="AP030" d="M14133.8013,-4064.6721L14133.9447,-4064.8617L14134.1339,-4065.3553L14134.3246,-4065.8867L14134.7702,-4066.2464"/>
<path content="AP030,1,28,1,0,15,1,8,JPN" xlink:title="AP030" d="M14132.8125,-4064.7598L14133.8013,-4064.6721"/>
<path content="AP030,1,28,1,0,15,1,8,JPN" xlink:title="AP030" d="M14133.8013,-4064.6721L14134.4208,-4064.6381L14134.8846,-4064.6126"/>
<path content="AP030,1,28,1,0,16,1,8,JPN" xlink:title="AP030" d="M14134.6462,-4066.1271L14134.7531,-4065.8053L14134.7981,-4065.5655L14134.9062,-4065.3335L14135.2472,-4065.0562"/>
<path content="AP030,1,28,1,0,15,1,8,JPN" xlink:title="AP030" d="M14134.8846,-4064.6126L14135.9695,-4064.5535"/>
<path content="AP030,1,28,1,0,15,1,8,JPN" xlink:title="AP030" d="M14136.7004,-4064.5134L14137.3428,-4065.8722"/>
<path content="AP030,1,28,1,0,16,1,8,JPN" xlink:title="AP030" d="M14135.9695,-4064.5535L14136.1099,-4064.4798L14136.2396,-4064.46L14136.2778,-4064.4642L14136.7004,-4064.5134"/>
<path content="AP030,1,28,1,0,15,1,8,JPN" xlink:title="AP030" d="M14132.8125,-4064.3752L14132.84,-4064.3784L14133.4213,-4064.4444L14133.8013,-4064.6721"/>
<path content="AP030,1,28,1,0,14,1,8,JPN" xlink:title="AP030" d="M14142.3798,-4069.4668L14142.5201,-4069.0735L14142.5797,-4068.8934L14142.6498,-4068.7466L14142.6804,-4068.5665L14142.7902,-4068.4067L14142.8604,-4068.1732L14142.9703,-4067.6666L14142.9703,-4067.4667L14142.9901,-4067.3798L14143.1503,-4067.1665L14143.3105,-4066.9865L14143.3304,-4066.7465L14143.4006,-4066.6199L14143.4296,-4066.5333L14143.4296,-4066.3734L14143.4494,-4066.1533L14143.4692,-4066.0667L14143.6295,-4065.8466L14143.8599,-4065.58L14143.8797,-4065.4865L14143.8995,-4065.4331L14143.8797,-4065.3599L14143.8599,-4065.3267L14143.8293,-4065.2534L14143.8293,-4065.1264L14143.8599,-4065.0532L14144.0201,-4064.7133L14144.22,-4064.2265L14144.3802,-4063.8134"/>
<path content="AP030,1,28,1,0,15,1,8,JPN" xlink:title="AP030" d="M14137.3428,-4065.8722L14138.8336,-4064.9639L14139.3997,-4063.4533"/>
<path content="AP030,1,28,1,0,16,1,8,JPN" xlink:title="AP030" d="M14136.7004,-4064.5134L14136.8607,-4064.5332L14136.9705,-4064.5134L14137.0193,-4064.5134L14137.2406,-4064.5L14137.5793,-4064.4264L14137.97,-4064.2597L14138.0402,-4064.2467L14139.3997,-4063.4533"/>
<path content="AP030,1,28,1,0,15,1,8,JPN" xlink:title="AP030" d="M14134.8846,-4064.6126L14135.2249,-4063.9225L14135.1212,-4063.0207L14133.2413,-4061.8984L14132.9697,-4060.8601"/>
<path content="AP030,1,28,1,0,14,1,8,JPN" xlink:title="AP030" d="M14132.8125,-4060.8633L14132.9697,-4060.8601"/>
<path content="AP030,1,28,1,0,15,1,8,JPN" xlink:title="AP030" d="M14139.3997,-4063.4533L14139.1602,-4061.5791L14140.1306,-4060.5331"/>
<path content="AP030,1,28,1,0,14,1,8,JPN" xlink:title="AP030" d="M14132.9697,-4060.8601L14133.2703,-4060.82L14133.49,-4060.7468L14133.7906,-4060.5534L14133.8303,-4060.5534L14134.0393,-4060.5331L14134.1995,-4060.5133L14134.4696,-4060.4401L14134.7198,-4060.4065L14134.8999,-4060.4065L14135.08,-4060.4401L14135.7697,-4060.7132L14136.29,-4060.9264L14136.4502,-4060.9264L14137.0193,-4060.82L14137.0605,-4060.82L14137.1307,-4060.7998L14137.4298,-4060.7132L14137.5793,-4060.64L14137.7899,-4060.64L14138.06,-4060.5865L14138.1104,-4060.5865L14138.2202,-4060.5865L14139.3753,-4060.5865L14139.6103,-4060.5667L14140.1306,-4060.5331"/>
<path content="AP030,1,28,1,0,14,1,8,JPN" xlink:title="AP030" d="M14144.3802,-4063.8134L14144.3298,-4063.76L14144.0598,-4063.5399L14143.5394,-4062.8201L14143.2693,-4062.4599L14143.1107,-4062.2265L14143.0801,-4062.1933L14143.0801,-4062.1532L14143.0603,-4062.0667L14143.0603,-4061.9732L14142.9901,-4061.8668L14142.9703,-4061.8134L14142.9703,-4061.7397L14143.0206,-4061.2198L14143.1305,-4060.82L14143.1305,-4060.68L14143.0801,-4060.3867L14143.0801,-4060.08"/>
<path content="AP030,1,28,1,0,14,1,8,JPN" xlink:title="AP030" d="M14142.3996,-4060.0132L14142.5201,-4060.0266L14143.0801,-4060.08"/>
<path content="AP030,1,28,1,0,16,1,8,JPN" xlink:title="AP030" d="M14139.3997,-4063.4533L14141.0797,-4062.3333L14141.1804,-4062.2066L14141.2201,-4062.0667L14141.2903,-4061.8999L14141.4001,-4061.7931L14141.7007,-4061.6531L14141.7694,-4061.5601L14141.7892,-4061.5067L14141.7694,-4061.4132L14141.7694,-4061.3068L14141.7892,-4061.1465L14141.8793,-4060.9867L14142.1097,-4060.68L14142.2195,-4060.4797L14142.3294,-4060.1334L14142.3996,-4060.0132"/>
<path content="AP030,1,28,1,0,14,1,8,JPN" xlink:title="AP030" d="M14140.1306,-4060.5331L14140.1794,-4060.5331L14140.6494,-4060.4599L14140.9698,-4060.3867L14141.4703,-4060.2066L14141.9693,-4060.0266L14142.1097,-4059.9934L14142.2699,-4059.9934L14142.3996,-4060.0132"/>
<path content="AP030,1,28,1,0,15,1,8,JPN" xlink:title="AP030" d="M14144.3802,-4063.8134L14146.0693,-4061.0886L14146.4233,-4059.0904"/>
<path content="AP030,1,28,1,0,15,1,8,JPN" xlink:title="AP030" d="M14144.0659,-4058.1573L14145.0928,-4058.382L14145.9015,-4058.9142L14146.4233,-4059.0904"/>
<path content="AP030,1,28,1,0,14,1,8,JPN" xlink:title="AP030" d="M14143.0801,-4060.08L14143.1107,-4059.8331L14143.1107,-4059.6333L14143.1793,-4059.5066L14143.2007,-4059.4666L14143.3105,-4059.2197L14143.4006,-4059.0935L14143.4494,-4059.0534L14143.4692,-4058.9664L14143.5394,-4058.7666L14143.6996,-4058.6067L14143.8095,-4058.4801L14143.8797,-4058.4064L14144.0598,-4058.1932L14144.0659,-4058.1573"/>
<path content="AP030,1,28,1,0,16,1,8,JPN" xlink:title="AP030" d="M14142.3996,-4060.0132L14142.7002,-4059.4334L14142.9901,-4058.86L14143.0603,-4058.7868L14143.2205,-4058.6933L14143.3594,-4058.6201L14143.4906,-4058.4801L14143.5593,-4058.26L14143.6295,-4057.6668"/>
<path content="AP030,1,28,1,0,14,1,8,JPN" xlink:title="AP030" d="M14144.0659,-4058.1573L14144.0796,-4058.0666L14144.0796,-4058.0265L14144.0796,-4057.9533L14144.1101,-4057.8667L14144.1498,-4057.6668"/>
<path content="AP030,1,28,1,0,15,1,8,JPN" xlink:title="AP030" d="M14143.6295,-4057.6668L14144.1498,-4057.6668"/>
<path content="AP030,1,28,1,0,14,1,8,JPN" xlink:title="AP030" d="M14144.1498,-4057.6668L14144.1803,-4057.5798L14144.1498,-4057.5066L14144.0796,-4057.3799"/>
<path content="AP030,1,28,1,0,15,1,8,JPN" xlink:title="AP030" d="M14139.035,-4056.0345L14139.1556,-4056.0909L14140.7257,-4056.9279L14141.4597,-4057.2628L14142.3492,-4057.4299L14142.9398,-4057.539L14143.6295,-4057.6668"/>
<path content="AP030,1,28,1,0,15,1,8,JPN" xlink:title="AP030" d="M14132.9697,-4060.8601L14133.6243,-4059.7919L14135.6949,-4059.5222L14138.0875,-4056.9542L14139.035,-4056.0345"/>
<path content="AP030,1,28,1,0,15,1,8,JPN" xlink:title="AP030" d="M14144.0796,-4057.3799L14145.5307,-4056.176L14145.3186,-4055.5824L14145.7489,-4054.9168L14146.0342,-4054.6581L14146.9681,-4054.5155L14147.2,-4054.2374"/>
<path content="AP030,1,28,1,0,14,1,8,JPN" xlink:title="AP030" d="M14144.0796,-4057.3799L14144.0598,-4057.3265L14143.9896,-4057.2334L14143.9301,-4057.2334L14143.7698,-4057.2334L14143.7393,-4057.2334L14143.6996,-4057.2201L14143.6996,-4057.18L14143.6798,-4057.0534L14143.631,-4056.9149L14143.5806,-4056.7665L14143.5196,-4056.5132L14143.4906,-4056.3866L14143.5394,-4056.1333L14143.5593,-4055.9532L14143.6493,-4055.6534L14143.6798,-4055.5401L14143.7393,-4055.2868L14143.7897,-4055.1998L14144.1101,-4054.9133L14144.6503,-4054.48L14144.8105,-4054.3732L14145.5017,-4053.9066L14145.7001,-4053.7731L14145.8603,-4053.6533L14145.99,-4053.54L14146.1105,-4053.4332L14146.2006,-4053.2867L14146.4493,-4052.9999L14146.5393,-4052.9266L14146.6293,-4052.8732L14146.6797,-4052.8599"/>
<path content="AP030,1,28,1,0,15,1,8,JPN" xlink:title="AP030" d="M14132.8125,-4054.0053L14133.4991,-4054.2507L14134.5474,-4054.6272L14136.5372,-4055.0873L14138.0035,-4055.5473L14139.035,-4056.0345"/>
<path content="AP030,1,28,1,0,15,1,8,JPN" xlink:title="AP030" d="M14147.6807,-4052.4799L14147.8088,-4052.6184L14149.9146,-4054.8828L14148.7381,-4055.7152L14148.7106,-4055.7556L14148.7061,-4055.7613L14148.3459,-4056.2855L14146.4233,-4059.0904"/>
<path content="AP030,1,28,1,0,14,1,8,JPN" xlink:title="AP030" d="M14146.6797,-4052.8599L14146.8796,-4052.8L14146.9498,-4052.7866L14147.3877,-4052.6028L14147.6807,-4052.4799"/>
<path content="AP030,1,28,1,0,16,1,8,JPN" xlink:title="AP030" d="M14143.6295,-4057.6668L14143.4906,-4057.1068L14143.4814,-4057.0721L14143.1712,-4055.6567L14142.6102,-4053.4081L14141.9342,-4052.3693"/>
<path content="AP030,1,28,1,0,15,1,8,JPN" xlink:title="AP030" d="M14139.035,-4056.0345L14139.9521,-4055.1441L14140.2969,-4053.7548L14141.3269,-4052.9617L14141.9342,-4052.3693"/>
<path content="AP030,1,28,1,0,14,1,8,JPN" xlink:title="AP030" d="M14146.6797,-4052.8599L14146.6293,-4052.7134L14146.6507,-4052.5532L14146.6614,-4052.5101L14146.7117,-4052.33L14146.7117,-4052.3296L14146.7194,-4052.2999L14146.7697,-4052.1198L14146.8094,-4052.0466L14146.8994,-4051.9733"/>
<path content="AP030,1,28,1,0,15,1,8,JPN" xlink:title="AP030" d="M14141.9342,-4052.3693L14142.5598,-4051.7597"/>
<path content="AP030,1,28,1,0,14,1,8,JPN" xlink:title="AP030" d="M14141.4902,-4051.6865L14141.6107,-4051.7067L14141.6794,-4051.72L14141.9006,-4051.7399L14142.2195,-4051.7735L14142.4301,-4051.7735L14142.54,-4051.7597L14142.5598,-4051.7597"/>
<path content="AP030,1,28,1,0,16,1,8,JPN" xlink:title="AP030" d="M14141.9342,-4052.3693L14141.4902,-4051.6865"/>
<path content="AP030,1,28,1,0,15,1,8,JPN" xlink:title="AP030" d="M14149.9298,-4051.4866L14151.1322,-4051.9726L14153.6041,-4052.6653L14154.9545,-4052.7733L14155.0354,-4052.7802L14155.8609,-4052.7878"/>
<path content="AP030,1,28,1,0,14,1,8,JPN" xlink:title="AP030" d="M14147.6807,-4052.4799L14148.1094,-4052.3197L14148.3597,-4052.2465L14148.5199,-4052.2064L14149.1501,-4052.1732L14149.2203,-4052.1534L14149.3607,-4052.1332L14149.6506,-4052.1198L14149.7192,-4052.0798L14149.7406,-4052.0466L14149.7894,-4051.9398L14149.8352,-4051.7654L14149.8596,-4051.6666L14149.8596,-4051.6335L14149.8795,-4051.5598L14149.9298,-4051.4866"/>
<path content="AP030,1,28,1,0,14,1,8,JPN" xlink:title="AP030" d="M14142.5598,-4051.7597L14142.6804,-4051.7399L14142.8299,-4051.6533L14143.0206,-4051.5598L14143.1107,-4051.5266L14143.2404,-4051.5266L14143.2907,-4051.5266L14143.3594,-4051.4866L14143.4692,-4051.4133L14143.5226,-4051.3897L14143.8293,-4051.2531L14144.1498,-4051.1467L14144.2001,-4051.1265L14144.31,-4051.0735L14144.4,-4051.0399L14144.4305,-4051.0201L14144.4901,-4051.0201L14145.0806,-4051.2531L14145.2393,-4051.3065L14145.9702,-4051.6132L14146.4706,-4051.8131L14146.8796,-4051.9733L14146.8994,-4051.9733"/>
<path content="AP030,1,28,1,0,14,1,8,JPN" xlink:title="AP030" d="M14148.6496,-4050.8198L14148.97,-4050.9865L14149.1302,-4051.0532L14149.3301,-4051.1665L14149.4507,-4051.2333L14149.4904,-4051.2531L14149.9298,-4051.4866"/>
<path content="AP030,1,28,1,0,15,1,8,JPN" xlink:title="AP030" d="M14153.0807,-4050.6599L14154.5258,-4052.1927L14155.8609,-4052.7878"/>
<path content="AP030,1,28,1,0,14,1,8,JPN" xlink:title="AP030" d="M14149.9298,-4051.4866L14149.9496,-4051.4534L14150.0397,-4051.3599L14150.1495,-4051.2531L14150.1999,-4051.2333L14150.2899,-4051.1799L14150.7004,-4051.0933L14152.1301,-4050.8598L14152.4307,-4050.7999L14152.7405,-4050.7332L14153.0807,-4050.6599"/>
<path content="AP030,1,28,1,0,14,1,8,JPN" xlink:title="AP030" d="M14145.4498,-4050.2464L14145.5795,-4050.3201L14145.8298,-4050.4997L14146.1304,-4050.6199L14146.4005,-4050.8598L14146.5805,-4050.8934L14147.02,-4050.9464L14147.1497,-4050.9666L14147.3602,-4050.9464L14147.5204,-4050.9266L14147.8104,-4050.8732L14147.8607,-4050.8732L14147.8104,-4050.9865L14147.7005,-4051.1066L14147.5204,-4051.3065L14147.4503,-4051.4L14147.3602,-4051.5064L14147.2,-4051.6666L14147.11,-4051.7399L14146.8994,-4051.9733"/>
<path content="AP030,1,28,1,0,15,1,8,JPN" xlink:title="AP030" d="M14145.4498,-4050.2464L14145.6299,-4050.1202L14145.7397,-4049.9931L14145.8298,-4049.8466L14145.9,-4049.7932L14146.2906,-4049.5934L14146.4493,-4049.5266L14146.5393,-4049.4331"/>
<path content="AP030,1,28,1,0,14,1,8,JPN" xlink:title="AP030" d="M14132.8125,-4049.5934L14132.9498,-4049.5934L14133.1802,-4049.58L14133.3801,-4049.5602L14133.5602,-4049.5602L14133.8104,-4049.6132L14133.9905,-4049.6532L14134.1797,-4049.7066L14134.2407,-4049.7601L14134.3307,-4049.8466L14134.4299,-4049.9401L14134.5398,-4049.9931L14134.5795,-4050.0134L14134.6497,-4050.0267L14134.7,-4050.0668L14134.79,-4050.2602L14134.9304,-4050.5135L14134.9701,-4050.6065L14135.0204,-4050.8732L14135.0403,-4050.9464L14135.1303,-4050.9998L14135.3806,-4051.1665L14135.4507,-4051.1799L14135.5194,-4051.1997L14135.9894,-4051.2199L14136.0596,-4051.2333L14136.2198,-4051.2733L14136.3602,-4051.2867L14136.47,-4051.3065L14136.6501,-4051.3065L14136.7004,-4051.3466L14136.9003,-4051.4534L14137.0193,-4051.5266L14137.1506,-4051.5934L14137.3596,-4051.6533L14137.5198,-4051.6865L14137.9303,-4051.7399L14138.0798,-4051.7597L14138.5193,-4051.8467L14138.8596,-4051.8997L14138.8992,-4051.8997L14139.4699,-4051.9398L14139.7903,-4051.9733L14140.0604,-4051.9531L14140.2405,-4051.9398L14140.4297,-4051.9199L14140.4907,-4051.8867L14140.6998,-4051.8131L14140.8295,-4051.7933L14140.8798,-4051.7933L14140.9897,-4051.7933L14141.0797,-4051.7735L14141.2399,-4051.7399L14141.3803,-4051.6865L14141.4902,-4051.6865"/>
<path content="AP030,1,28,1,0,14,1,8,JPN" xlink:title="AP030" d="M14153.0807,-4050.6599L14153.1998,-4050.6397L14153.3295,-4050.5867L14153.4302,-4050.5531L14153.5599,-4050.4601L14153.7201,-4050.2998L14153.9307,-4050.1534L14154.0405,-4050.0134L14154.0802,-4049.9401L14154.1306,-4049.9001L14154.2206,-4049.7734L14154.3594,-4049.58L14154.4006,-4049.4865L14154.5197,-4049.2535L14154.5395,-4049.2001L14154.6997,-4048.9864L14154.8294,-4048.8602L14154.9698,-4048.7667L14155.0797,-4048.6599L14155.13,-4048.6198L14155.1804,-4048.6065L14155.4703,-4048.5332L14155.7506,-4048.5106"/>
<path content="AP030,1,28,1,0,15,1,8,JPN" xlink:title="AP030" d="M14148.6496,-4050.8198L14149.675,-4049.72L14150.9308,-4048.505L14151.3136,-4048.0759"/>
<path content="AP030,1,28,1,0,16,1,8,JPN" xlink:title="AP030" d="M14155.7506,-4048.5106L14155.72,-4048.504L14155.27,-4048.315L14154.72,-4047.989L14154.26,-4047.956L14153.82,-4048.045L14153.36,-4048.219L14152.88,-4048.308L14152.63,-4048.288L14152.09,-4048.178L14151.3136,-4048.0759"/>
<path content="AP030,1,28,1,0,16,1,8,JPN" xlink:title="AP030" d="M14141.4902,-4051.6865L14141.3147,-4050.9689L14141.5375,-4049.4015L14141.597,-4048.9754L14141.8045,-4048.3036L14141.9296,-4047.9"/>
<path content="AP030,1,28,1,0,14,1,8,JPN" xlink:title="AP030" d="M14141.9296,-4047.9L14142.1097,-4047.9198L14142.3599,-4047.8867L14142.45,-4047.9L14142.5201,-4047.9198L14142.7002,-4048.0999L14142.6804,-4048.46L14142.6804,-4048.7465L14142.7002,-4048.7667L14142.7704,-4048.7865L14142.9901,-4048.7999L14143.0603,-4048.8201L14143.1107,-4048.84L14143.2907,-4048.9864L14143.3807,-4049.1066L14143.6798,-4049.4331L14143.9896,-4049.7601L14144.0598,-4049.7932L14144.2001,-4049.8333L14144.3298,-4049.8466L14144.5602,-4049.8665L14144.7906,-4049.9535L14144.9005,-4050.0134L14145.1492,-4050.0801L14145.3094,-4050.1934L14145.4498,-4050.2464"/>
<path content="AP030,1,28,1,0,16,1,8,JPN" xlink:title="AP030" d="M14159.38,-4047.385L14158.26,-4047.941L14157.67,-4048.219L14156.99,-4048.523L14156.58,-4048.59L14156.12,-4048.59L14155.7506,-4048.5106"/>
<path content="AP030,1,28,1,0,16,1,8,JPN" xlink:title="AP030" d="M14146.08,-4046.2799L14146.2006,-4046.5332L14146.2402,-4046.6801L14146.2402,-4046.7464L14146.2402,-4046.8201L14146.0602,-4047.7734L14146.0403,-4047.9534L14146.08,-4048.0801L14146.1502,-4048.2468L14146.3593,-4048.6198L14146.4706,-4048.8602L14146.5195,-4049.0398L14146.5607,-4049.2535L14146.5393,-4049.4331"/>
<path content="AP030,1,28,1,0,16,1,8,JPN" xlink:title="AP030" d="M14141.9296,-4047.9L14142.1322,-4047.5748L14142.4098,-4047.2496L14143.1791,-4046.8372L14143.877,-4046.6706L14146.08,-4046.2799"/>
<path content="AP030,1,28,1,0,14,1,8,JPN" xlink:title="AP030" d="M14155.7506,-4048.5106L14155.8807,-4048.5001L14156.1996,-4048.4798L14156.3095,-4048.4402L14156.5399,-4048.3734L14157.1304,-4048.1201L14157.4005,-4047.9935L14157.5607,-4047.9L14157.7698,-4047.7734L14157.8598,-4047.6868L14157.9895,-4047.6131L14158.5205,-4047.4133L14158.8593,-4047.2733L14158.9905,-4047.2198L14159.0607,-4047.1466L14159.3597,-4046.9265L14159.4498,-4046.8601L14159.6298,-4046.7865L14159.7702,-4046.7335L14159.8999,-4046.6801L14160.0601,-4046.6064L14160.1501,-4046.5668L14160.8795,-4045.9202L14160.9497,-4045.9L14161.0199,-4045.8866L14161.3098,-4045.8134"/>
<path content="AP030,1,28,1,0,15,1,8,JPN" xlink:title="AP030" d="M14155.8609,-4052.7878L14156.839,-4054.0447L14156.9839,-4054.1553L14157.2754,-4054.1401L14157.5287,-4054.1267L14157.8094,-4053.6449L14157.9315,-4053.4367L14157.9697,-4053.3703L14158.1299,-4053.0952L14158.9615,-4051.9859L14159.0759,-4051.8345L14159.5337,-4051.6628L14160.7605,-4051.0201L14161.4243,-4050.4593L14161.5707,-4050.2998L14162.9715,-4048.769L14163.1714,-4048.6084L14164.4623,-4047.5658L14164.9429,-4046.9421L14164.949,-4046.9357L14165.416,-4046.7201L14166.066,-4046.4199L14165.9851,-4046.2902L14165.7791,-4045.9614L14165.0803,-4044.9867"/>
<path content="AP030,1,28,1,0,14,1,8,JPN" xlink:title="AP030" d="M14133.6807,-4044.8734L14133.9493,-4044.8933L14134.1095,-4044.8933L14134.1995,-4044.9135L14134.2194,-4044.9265L14134.3094,-4044.9867L14134.4299,-4045.1065L14134.4696,-4045.2732L14134.52,-4045.4533L14134.6497,-4045.7401L14134.7198,-4045.8466L14134.8999,-4045.9534L14135.1501,-4046.08L14135.4294,-4046.1533L14135.8093,-4046.2067L14136.0794,-4046.2067L14136.4151,-4046.1239L14136.4304,-4046.1201L14136.5601,-4046.08L14136.6302,-4046.0999L14136.8607,-4046.2265L14137.1506,-4046.3867L14137.6297,-4046.64L14138.0203,-4046.7999L14138.0798,-4046.8399L14138.1805,-4046.8601L14138.7695,-4046.8735L14138.8794,-4046.8933L14139.0594,-4047.0001L14139.2395,-4047.0734L14139.4302,-4047.1066L14139.6103,-4047.1268L14139.7202,-4047.1466L14140.7898,-4047.6334L14141.04,-4047.72L14141.0599,-4047.7272L14141.1499,-4047.76L14141.4001,-4047.76L14141.5207,-4047.7734L14141.6306,-4047.8333L14141.9296,-4047.9"/>
<path content="AP030,1,28,1,0,14,1,8,JPN" xlink:title="AP030" d="M14132.8125,-4045.1013L14132.8598,-4045.0199L14132.93,-4044.9867L14133.0597,-4044.9665L14133.1299,-4044.9665L14133.2199,-4044.9135L14133.3298,-4044.8734L14133.6807,-4044.8734"/>
<path content="AP030,1,28,1,0,14,1,8,JPN" xlink:title="AP030" d="M14161.3098,-4045.8134L14161.38,-4045.7932L14161.6806,-4045.6665L14162.1094,-4045.4132L14162.1796,-4045.38L14162.3093,-4045.3068L14162.4298,-4045.2732L14162.5595,-4045.2534L14162.9303,-4045.1801L14163.0798,-4045.1466L14163.2202,-4045.0733L14163.4506,-4044.9467L14163.7405,-4044.7666L14163.8306,-4044.7334L14163.9694,-4044.7132L14164.36,-4044.7334L14164.4501,-4044.7666L14164.5798,-4044.8601L14164.7202,-4044.9135L14165.0803,-4044.9867"/>
<path content="AP030,1,28,1,0,14,1,8,JPN" xlink:title="AP030" d="M14133.6807,-4044.8734L14133.6502,-4044.7865L14133.6304,-4044.64"/>
<path content="AP030,1,28,1,0,15,1,8,JPN" xlink:title="AP030" d="M14133.6304,-4044.64L14133.9203,-4044.5553L14134.4007,-4044.415"/>
<path content="AP030,1,28,1,0,14,1,8,JPN" xlink:title="AP030" d="M14165.0803,-4044.9867L14165.5396,-4045.0535L14165.6296,-4045.0733L14165.77,-4045.1065L14165.95,-4045.1065L14166.0797,-4045.1065L14166.2399,-4045.0733L14166.3605,-4045.0535L14166.6504,-4045.0001L14167.0807,-4044.8734L14167.1494,-4044.8601L14167.6804,-4044.64L14167.7704,-4044.5667L14167.8101,-4044.5332L14168.1503,-4044.26L14168.2007,-4044.2265L14168.2693,-4044.1334L14168.4006,-4043.9533L14168.5196,-4043.8133L14168.6295,-4043.7401L14168.7393,-4043.6867L14168.8599,-4043.6535L14168.8995,-4043.6134L14169.2398,-4043.1465L14169.5602,-4042.7868L14169.6793,-4042.6933L14169.7906,-4042.6201L14169.9707,-4042.5533L14170.0195,-4042.4999L14170.0394,-4042.4267L14170.0607,-4042.3733"/>
<path content="AP030,1,28,1,0,14,1,8,JPN" xlink:title="AP030" d="M14144.1757,-4041.7805L14144.2703,-4041.8133L14144.3604,-4041.8667L14144.5602,-4042.1734L14144.6503,-4042.3199L14144.7006,-4042.3866L14144.8303,-4042.4801L14144.9295,-4042.5533L14144.9707,-4042.6601L14145.0195,-4042.7868L14145.0806,-4042.8398L14145.2393,-4042.8734L14145.3293,-4042.9268L14145.3995,-4043L14145.43,-4043.0534L14145.4895,-4043.1267L14145.61,-4043.1667L14145.7199,-4043.2533L14145.7397,-4043.3601L14145.8603,-4043.4868L14146.0602,-4043.6665L14146.2402,-4043.8866L14146.3104,-4043.9732L14146.4005,-4044.0468L14146.8094,-4044.2467L14147.0398,-4044.4401L14147.1497,-4044.64L14147.29,-4044.8002L14147.3602,-4044.8734L14147.6303,-4044.9867L14147.8302,-4045.1065L14147.9004,-4045.1668L14147.9507,-4045.5265L14147.9706,-4045.6333L14147.9294,-4045.6867L14147.7905,-4045.8332L14147.7402,-4045.9732L14147.7707,-4046.1334L14147.9004,-4046.6202L14148.0194,-4047.0402L14147.9706,-4047.3267L14147.9706,-4047.6334L14147.9904,-4047.7734L14148.0804,-4047.9935L14148.1094,-4048.1731L14148.0392,-4048.3868L14148.0194,-4048.6065L14147.9706,-4048.9864L14147.9706,-4049.0734L14147.9904,-4049.4534L14148.1995,-4049.6864L14148.2407,-4049.8867L14148.2697,-4050.2068L14148.2895,-4050.5135L14148.2895,-4050.6065L14148.2895,-4050.7465L14148.3795,-4050.7465L14148.6496,-4050.8198"/>
<path content="AP030,1,28,1,0,16,1,8,JPN" xlink:title="AP030" d="M14144.1757,-4041.7805L14144.0399,-4041.9933L14144.0201,-4042.3534L14144.0399,-4042.5331L14144.0598,-4042.5865L14144.1803,-4042.8734L14144.5404,-4043.3601L14144.8303,-4043.8133L14144.9707,-4044.1933L14145.1096,-4044.5866L14145.1996,-4044.7666L14145.3796,-4044.9265L14145.6802,-4045.2332L14145.8801,-4045.5067L14145.9702,-4045.7066L14146.08,-4046.2799"/>
<path content="AP030,1,28,1,0,16,1,8,JPN" xlink:title="AP030" d="M14144.1757,-4041.7805L14144.4,-4041.4001L14144.4702,-4041.2201L14144.5206,-4041"/>
<path content="AP030,1,28,1,0,15,1,8,JPN" xlink:title="AP030" d="M14153.334,-4040.4621L14154.4861,-4041.09L14155.8472,-4042.0109L14156.832,-4042.6546L14158.0906,-4043.066L14159.4219,-4043.5017L14160.9951,-4043.9858L14161.5518,-4044.2036L14161.6971,-4044.4457L14161.4308,-4044.7361L14161.3098,-4045.8134"/>
<path content="AP030,1,28,1,0,15,1,8,JPN" xlink:title="AP030" d="M14151.3136,-4048.0759L14151.4542,-4047.9183L14151.8188,-4046.8712L14152.0279,-4045.9915L14152.2369,-4044.693L14152.3941,-4043.6459L14152.3926,-4042.6407L14152.3407,-4041.8449L14152.2873,-4041.4261L14152.5497,-4041.1327L14152.7588,-4040.8813L14152.8625,-4040.7558L14153.334,-4040.4621"/>
<path content="AP030,1,28,1,0,14,1,8,JPN" xlink:title="AP030" d="M14143.6096,-4040.3L14143.6798,-4040.3732L14143.6996,-4040.4064L14143.8293,-4040.6601L14143.8095,-4040.7665L14143.7393,-4041.4001L14143.7698,-4041.4867L14143.8095,-4041.5932L14143.8995,-4041.6866L14144.0598,-4041.74L14144.1757,-4041.7805"/>
<path content="AP030,1,28,1,0,15,1,8,JPN" xlink:title="AP030" d="M14134.4007,-4044.415L14135.4309,-4044.1143L14137.2101,-4043.2758L14138.3835,-4042.7193L14138.623,-4042.6052L14140.2985,-4041.5573L14141.7648,-4040.9702L14143.6096,-4040.3"/>
<path content="AP030,1,28,1,0,15,1,8,JPN" xlink:title="AP030" d="M14144.5206,-4041L14146.109,-4041.0519L14147.4182,-4041.3029L14148.5184,-4041.3021L14149.617,-4041.0503L14150.8728,-4040.3797L14151.6068,-4040.0864L14152.2873,-4040.086L14152.8107,-4040.2115L14153.334,-4040.4621"/>
<path content="AP030,1,28,1,0,14,1,8,JPN" xlink:title="AP030" d="M14132.8125,-4043.6083L14133.3298,-4044.1734L14133.4,-4044.2467L14133.4305,-4044.3733L14133.49,-4044.4401L14133.5205,-4044.4801L14133.6304,-4044.64"/>
<path content="AP030,1,28,1,0,15,1,8,JPN" xlink:title="AP030" d="M14156.2622,-4035.3092L14159.8587,-4036.9389L14159.7153,-4037.3909L14162.4786,-4038.5418L14163.4125,-4038.4617L14164.1602,-4039.5103L14166.2781,-4039.8743L14170.0607,-4042.3733"/>
<path content="AP030,1,28,1,0,15,1,8,JPN" xlink:title="AP030" d="M14153.334,-4040.4621L14154.0146,-4039.6244L14154.3793,-4038.7447L14154.7974,-4037.4462L14155.3741,-4036.6081L14156.2622,-4035.3092"/>
<path content="AP030,1,28,1,0,15,1,8,JPN" xlink:title="AP030" d="M14134.4007,-4044.415L14134.5673,-4043.697L14134.7153,-4042.2497L14135.5087,-4040.8058L14136.1359,-4039.7228L14136.8088,-4038.5574L14136.9888,-4037.1246L14137.3611,-4036.7413L14138.2355,-4036.7386L14139.4211,-4036.8778L14142.8299,-4034.4799"/>
<path content="AP030,1,28,1,0,14,1,8,JPN" xlink:title="AP030" d="M14170.0607,-4042.3733L14170.0607,-4042.2798L14170.0806,-4042.1333L14170.1492,-4041.9933L14170.2698,-4041.8133L14170.3094,-4041.7934L14170.3995,-4041.7065L14170.5795,-4041.5264L14170.7199,-4041.4532L14170.8603,-4041.4131L14170.9305,-4041.3467L14171.0403,-4041.2533L14171.1105,-4041.1465L14171.1304,-4040.9866L14171.1807,-4040.9134L14171.2006,-4040.86L14171.2906,-4040.6933L14171.3806,-4040.6067L14171.4493,-4040.5334L14171.4706,-4040.4598L14171.5195,-4040.3198L14171.5393,-4040.1333L14171.5805,-4039.9532L14171.6995,-4039.7064L14171.7194,-4039.6866L14171.7697,-4039.6133L14171.8994,-4039.4001L14172.2198,-4039.0934L14172.5601,-4038.8199L14172.9004,-4038.6066L14173.0392,-4038.4998L14173.3093,-4038.1931L14173.3994,-4038.0466L14173.4695,-4037.9532L14173.5397,-4037.8468L14173.79,-4037.5935L14173.9304,-4037.4664L14174.2004,-4037.0533L14174.4293,-4036.6932L14174.6094,-4036.4799L14174.6796,-4036.4265L14174.7406,-4036.3731L14174.9496,-4036.1534L14174.9893,-4036.0802L14175.0397,-4035.9734L14175.1099,-4035.8467L14175.1999,-4035.6865L14175.2197,-4035.5267L14175.2899,-4035.4534L14175.3799,-4035.4L14175.4898,-4035.3268L14175.5798,-4035.2867L14175.6805,-4035.2531L14175.7202,-4035.22L14175.9293,-4034.9865L14175.9705,-4034.9464L14176.5396,-4034.5665L14176.8295,-4034.4265L14176.8799,-4034.3864L14176.8799,-4034.3201"/>
<path content="AP030,1,28,1,0,16,1,8,JPN" xlink:title="AP030" d="M14144.5206,-4041L14144.4901,-4040.4999L14144.4901,-4040.2802L14144.5404,-4040.1531L14144.8807,-4039.6133L14144.9005,-4039.4867L14144.9005,-4039.2864L14144.8303,-4039.1266L14144.0598,-4038.1535L14143.9697,-4037.9532L14143.8995,-4037.7731L14143.9499,-4037.5065L14143.9896,-4037.4332L14144.0796,-4037.2868L14144.5602,-4036.8935L14144.8807,-4036.6066L14145.0607,-4036.3865L14145.1096,-4036.2465L14145.1096,-4035.92L14144.9707,-4035.4L14144.9493,-4034.9998L14144.9493,-4034.84L14145.0607,-4034.4799L14145.1797,-4034.0801L14145.2682,-4033.8963"/>
<path content="AP030,1,28,1,0,14,1,8,JPN" xlink:title="AP030" d="M14143.6096,-4040.3L14143.3594,-4040.0467L14143.3807,-4040.0265L14143.4494,-4039.9734L14143.4692,-4039.8666L14143.5806,-4039.7934L14143.6096,-4039.7202L14143.5593,-4039.6332L14143.5196,-4039.4665L14143.5593,-4039.4001L14143.6493,-4039.2532L14143.6798,-4039.1998L14143.6493,-4039.1464L14143.6798,-4039.0732L14143.7393,-4038.9668L14143.7897,-4038.8401L14143.7897,-4038.4399L14143.6798,-4038.0135L14143.6096,-4037.7399L14143.6096,-4037.5935L14143.6096,-4037.5267L14143.7195,-4037.4866L14143.7393,-4037.4332L14143.7698,-4037.4134L14143.8095,-4037.2532L14143.8995,-4037.1067L14144.2703,-4036.8198L14144.4901,-4036.6199L14144.5206,-4036.5665L14144.4504,-4036.5334L14144.4504,-4036.4799L14144.4702,-4036.4265L14144.4504,-4036.3731L14144.4,-4036.3335L14144.3298,-4036.3335L14144.2902,-4036.3201L14144.2703,-4036.2801L14144.2902,-4036.2465L14144.3298,-4036.2267L14144.4,-4036.1935L14144.4504,-4036.1332L14144.4,-4036.0664L14144.2703,-4035.9531L14144.1498,-4035.8665L14144.1101,-4035.7933L14144.1101,-4035.6865L14144.1299,-4035.5934L14144.22,-4035.4332L14144.2902,-4035.3268L14144.3298,-4035.1665L14144.31,-4035.0933L14144.2902,-4035.0399L14144.1299,-4034.9464L14144.0201,-4034.8202L14143.9499,-4034.7332L14143.9301,-4034.6199L14143.9896,-4034.5333L14144.1498,-4034.4398L14144.4901,-4034.2602L14144.5801,-4034.1534L14144.9707,-4034.0267L14145.2682,-4033.8963"/>
<path content="AP030,1,28,1,0,16,1,8,JPN" xlink:title="AP030" d="M14145.2682,-4033.8963L14145.2698,-4033.7399L14145.2255,-4033.498"/>
<path content="AP030,1,28,1,0,14,1,8,JPN" xlink:title="AP030" d="M14145.2682,-4033.8963L14145.2896,-4033.8867L14145.3995,-4033.8135L14145.5399,-4033.6334L14145.6497,-4033.5602L14145.7199,-4033.5266L14145.8298,-4033.4534"/>
<path content="AP030,1,28,1,0,14,1,8,JPN" xlink:title="AP030" d="M14145.61,-4033.2867L14145.8298,-4033.4534"/>
<path content="AP030,1,28,1,0,14,1,8,JPN" xlink:title="AP030" d="M14145.2255,-4033.498L14145.3293,-4033.4866L14145.3995,-4033.4534L14145.5399,-4033.3267L14145.61,-4033.2867"/>
<path content="AP030,1,28,1,0,14,1,8,JPN" xlink:title="AP030" d="M14142.8299,-4034.4799L14143.2404,-4034.4799L14143.4006,-4034.4799L14143.5806,-4034.3201L14143.8995,-4034.1L14144.0201,-4034.0801L14144.1803,-4034.0668L14144.2703,-4034.0267L14144.2902,-4033.9931L14144.31,-4033.9401L14144.4504,-4033.8333L14144.4702,-4033.7933L14144.4305,-4033.7734L14144.31,-4033.7933L14144.2703,-4033.7933L14144.2703,-4033.7734L14144.2398,-4033.7601L14144.2902,-4033.6666L14144.3298,-4033.5602L14144.3298,-4033.5068L14144.31,-4033.4332L14144.31,-4033.3466L14144.3604,-4033.2867L14144.4,-4033.2535L14144.4901,-4033.2535L14144.5602,-4033.3065L14144.6106,-4033.3466L14144.6304,-4033.3599L14144.6793,-4033.4133L14144.7906,-4033.4667L14145.1492,-4033.5068L14145.2255,-4033.498"/>
<path content="AP030,1,28,1,0,14,1,8,JPN" xlink:title="AP030" d="M14145.8298,-4033.4534L14145.9,-4033.4L14146.0205,-4033.2535L14146.1105,-4033.1264"/>
<path content="AP030,1,28,1,0,14,1,8,JPN" xlink:title="AP030" d="M14145.61,-4033.2867L14145.8801,-4033.1467L14146.08,-4033.1066L14146.1105,-4033.1264"/>
<path content="AP030,1,28,1,0,14,1,8,JPN" xlink:title="AP030" d="M14146.1105,-4033.1264L14146.1807,-4033.0002L14146.2006,-4032.8732L14146.2204,-4032.7866L14146.2402,-4032.7332L14146.5393,-4032.7133L14146.5607,-4032.6935L14146.5805,-4032.6199L14146.6507,-4032.5134L14146.7407,-4032.4066L14146.9299,-4032.32"/>
<path content="AP030,1,28,1,0,14,1,8,JPN" xlink:title="AP030" d="M14137.9303,-4032.2067L14138.7894,-4032.46L14139.18,-4032.5535L14139.2899,-4032.5535L14139.36,-4032.5867L14139.3997,-4032.6401L14139.36,-4032.7866L14139.3799,-4033.0734L14139.4897,-4033.3065L14139.5401,-4033.3267L14139.6103,-4033.4L14139.7903,-4033.4534L14139.9506,-4033.5068L14140.0803,-4033.6334L14140.3305,-4033.7399L14140.5396,-4033.7933L14141.5604,-4033.9199L14141.6504,-4033.9535L14141.7694,-4034.1L14141.8106,-4034.1732L14141.9495,-4034.2266L14142.2394,-4034.4067L14142.3996,-4034.4799L14142.8299,-4034.4799"/>
<path content="AP030,1,28,1,0,14,1,8,JPN" xlink:title="AP030" d="M14132.8125,-4031.2379L14132.8995,-4031.3065L14133.02,-4031.4133L14133.2901,-4031.6132L14133.4,-4031.6666L14133.5602,-4031.72L14133.7402,-4031.7734L14133.9005,-4031.7932L14133.9294,-4031.8333L14133.9905,-4031.9199L14134.0805,-4031.9935L14134.2407,-4032.0999L14134.2697,-4032.1201L14134.3307,-4032.1335L14134.3994,-4032.1201L14134.4696,-4032.1201L14134.5398,-4032.0801L14134.61,-4032.0801L14134.7397,-4032.1201L14134.8099,-4032.1201L14134.8297,-4032.0999L14134.8801,-4032.0667L14134.9304,-4032.0267L14134.9701,-4031.9935L14135.0403,-4031.9935L14135.1303,-4031.9935L14135.1807,-4031.9733L14135.2203,-4031.9401L14135.2707,-4031.8867L14135.3104,-4031.8867L14135.4507,-4031.9199L14135.5392,-4031.9199L14135.5804,-4031.9401L14135.6506,-4031.9935L14135.7697,-4032.0801L14135.9894,-4032.1533L14136.2198,-4032.1934L14136.3098,-4032.1934L14136.3998,-4032.1732L14136.5601,-4032.1335L14136.6806,-4032.1201L14136.9003,-4032.0267L14137.1796,-4031.9733L14137.4695,-4032.0133L14137.9303,-4032.2067"/>
<path content="AP030,1,28,1,0,15,1,8,JPN" xlink:title="AP030" d="M14162.9608,-4030.5317L14165.8554,-4031.8684L14167.9657,-4031.6303L14168.457,-4031.6277L14170.4361,-4033.0067L14173.3368,-4033.1768L14176.8799,-4034.3201"/>
<path content="AP030,1,28,1,0,15,1,8,JPN" xlink:title="AP030" d="M14156.2622,-4035.3092L14156.9946,-4034.639L14157.518,-4034.3876L14158.0948,-4034.1358L14158.5129,-4033.717L14159.14,-4032.8789L14160.3973,-4031.8729L14161.0764,-4031.5376L14162.0193,-4031.3278L14162.5427,-4030.9925L14162.9608,-4030.5317"/>
<path content="AP030,1,28,1,0,15,1,8,JPN" xlink:title="AP030" d="M14152.3148,-4030.3905L14152.15,-4031.7127L14154.3106,-4031.665L14155.2704,-4034.9316L14156.2622,-4035.3092"/>
<path content="AP030,1,28,1,0,14,1,8,JPN" xlink:title="AP030" d="M14146.9299,-4032.32L14147.0398,-4032.2601L14147.1497,-4032.2468L14147.3099,-4032.2601L14147.4304,-4032.2468L14147.7203,-4032.1732L14147.8302,-4032.1335L14147.9004,-4032.0999L14147.9706,-4032.0267L14148.1796,-4031.8867L14148.2697,-4031.8665L14148.5199,-4031.8466L14148.8998,-4031.8333L14148.9502,-4031.8665L14149.0402,-4031.9534L14149.1104,-4032.0465L14149.1806,-4032.0999L14149.2401,-4032.0999L14149.3607,-4032.0999L14149.4293,-4032.0801L14149.5407,-4032.0465L14149.6506,-4032.0267L14149.7894,-4032.0133L14149.9298,-4032.0267L14150.0397,-4032.0801L14150.1495,-4032.0999L14150.3601,-4032.0999L14150.4501,-4032.1732L14150.5798,-4032.2601L14150.65,-4032.28L14150.8606,-4032.28L14150.9705,-4032.28L14151.0803,-4032.2468L14151.1505,-4032.1934L14151.1795,-4032.1201L14151.1795,-4032.0133L14151.1795,-4031.7734L14151.2207,-4031.7066L14151.2894,-4031.5933L14151.6098,-4031.1798L14151.7395,-4030.9868L14151.9302,-4030.7667L14152.3148,-4030.3905"/>
<path content="AP030,1,28,1,0,16,1,8,JPN" xlink:title="AP030" d="M14140.7166,-4028.1807L14141.04,-4028.4065L14141.2704,-4028.6064L14141.5405,-4028.8734L14141.8304,-4029.1801L14142.1799,-4029.4533L14142.3096,-4029.6131L14142.3294,-4029.8134L14142.4896,-4030.4066L14142.5598,-4030.5534L14142.7399,-4030.7667L14143.2907,-4031.2733L14143.9896,-4031.72L14144.6304,-4032.0667L14144.8105,-4032.2266L14144.8807,-4032.3532L14144.9005,-4032.46L14145.0607,-4032.9468L14145.1492,-4033.2001L14145.2194,-4033.4667L14145.2255,-4033.498"/>
<path content="AP030,1,28,1,0,14,1,8,JPN" xlink:title="AP030" d="M14137.9303,-4032.2067L14138.2904,-4031.8665L14138.4003,-4031.6868L14138.3804,-4031.5266L14138.4705,-4031.3465L14138.6093,-4031.1798L14138.6795,-4031.02L14138.8596,-4030.8933L14139.1098,-4030.7865L14139.5798,-4030.6198L14139.7705,-4030.5L14139.8102,-4030.4268L14139.7705,-4030.3532L14139.7903,-4030.2265L14139.8102,-4030.1731L14139.8804,-4030.0999L14139.9902,-4029.9732L14140.1306,-4029.7066L14140.2695,-4029.5601L14140.4297,-4029.4132L14140.5396,-4029.3064L14140.5807,-4029.2L14140.5807,-4028.7464L14140.6494,-4028.64L14140.7196,-4028.5L14140.6998,-4028.2799L14140.7166,-4028.1807"/>
<path content="AP030,1,28,1,0,15,1,8,JPN" xlink:title="AP030" d="M14148.8953,-4027.8431L14149.3759,-4028.3783L14152.3148,-4030.3905"/>
<path content="AP030,1,28,1,0,15,1,8,JPN" xlink:title="AP030" d="M14146.9299,-4032.32L14148.3124,-4030.714L14148.3017,-4029.2103L14148.8953,-4027.8431"/>
<path content="AP030,1,28,1,0,15,1,8,JPN" xlink:title="AP030" d="M14162.9608,-4030.5317L14163.0661,-4029.9873L14163.0127,-4029.652L14162.9073,-4029.1002L14163.0525,-4028.6403L14163.7207,-4027.5398"/>
<path content="AP030,1,28,1,0,14,1,8,JPN" xlink:title="AP030" d="M14152.3148,-4030.3905L14152.6993,-4030.0133L14152.8107,-4029.9L14152.8793,-4029.8466L14152.8595,-4029.8332L14152.7893,-4029.8134L14152.8107,-4029.7733L14152.9495,-4029.6532L14152.9495,-4029.5933L14152.9495,-4029.4533L14152.9694,-4029.3999L14153.0807,-4029.3064L14153.1799,-4029.1801L14153.1998,-4029.1065L14153.27,-4029.0531L14153.45,-4029.0199L14153.54,-4029.0001L14153.5599,-4028.9867L14153.5797,-4028.7666L14153.6301,-4028.7666L14154.0207,-4028.7666L14154.0405,-4028.7998L14154.1504,-4028.8734L14154.2007,-4028.8734L14154.5395,-4028.8734L14154.5807,-4028.8601L14154.7195,-4028.7666L14154.8096,-4028.68L14154.9698,-4028.6201L14155.13,-4028.6201L14155.1498,-4028.6064L14155.5206,-4028.3867L14155.8304,-4028.3001L14155.9296,-4028.26L14156.0593,-4028.1532L14156.1295,-4028.12L14156.7703,-4028.0998L14156.8802,-4028.0998L14157.4493,-4028.08L14157.5394,-4028.0666L14157.7698,-4027.8667L14157.8094,-4027.8465L14157.93,-4027.8133L14158.0795,-4027.7199L14158.2001,-4027.6531L14158.2703,-4027.6333L14158.5602,-4027.5932L14158.6304,-4027.5799L14158.7006,-4027.5265L14158.7402,-4027.5265L14158.8104,-4027.6333L14158.9493,-4027.7401L14158.9905,-4027.7599L14159.4498,-4027.7599L14159.52,-4027.7401L14159.9701,-4027.4132L14160.3104,-4027.2533L14160.4004,-4027.2331L14160.7407,-4027.2202L14161.0794,-4027.2202L14161.1298,-4027.2331L14161.4899,-4027.6134L14161.5601,-4027.6531L14161.7905,-4027.7599L14161.9293,-4027.8999L14161.9705,-4027.9732L14162.0605,-4028.0266L14162.1094,-4028.0464L14162.4695,-4028.0666L14162.6297,-4028.0998L14162.7197,-4028.08L14162.7701,-4028.0666L14162.8998,-4027.8667L14162.9898,-4027.7931L14163.5605,-4027.56L14163.7207,-4027.5398"/>
<path content="AP030,1,28,1,0,14,1,8,JPN" xlink:title="AP030" d="M14140.7166,-4028.1807L14140.7394,-4028.0464L14140.77,-4027.8866L14140.86,-4027.8332L14140.9698,-4027.7599L14140.9698,-4027.6665L14140.95,-4027.3067L14140.86,-4027.1999L14140.7394,-4027.0931L14140.7394,-4026.9135L14140.7394,-4026.7132L14140.8096,-4026.5865L14140.95,-4026.3733L14141.0599,-4026.3332L14141.1499,-4026.3199L14141.1499,-4026.26L14141.1499,-4026.1002L14141.2399,-4025.9399L14141.2201,-4025.7599L14141.1301,-4025.6332L14141.1804,-4025.4131"/>
<path content="AP030,1,28,1,0,15,1,8,JPN" xlink:title="AP030" d="M14141.1804,-4025.4131L14144.397,-4025.3906L14146.0648,-4025.3464L14146.6537,-4025.3441L14148.8953,-4027.8431"/>
<path content="AP030,1,28,1,0,16,1,8,JPN" xlink:title="AP030" d="M14139.9002,-4023.8865L14140.1093,-4024.0467L14140.2405,-4024.3L14140.2893,-4024.7131L14140.2893,-4025.1999L14140.2695,-4025.6664L14140.1794,-4026.0265L14140.0192,-4026.6399L14139.9506,-4026.9264L14139.9307,-4027.2202L14139.9902,-4027.4666L14140.1505,-4027.6867L14140.3305,-4027.8999L14140.6296,-4028.12L14140.7166,-4028.1807"/>
<path content="AP030,1,28,1,0,16,1,4,JPN" xlink:title="AP030" d="M14139.2899,-4023.5268L14139.4897,-4023.6332L14139.74,-4023.74L14139.9002,-4023.8865"/>
<path content="AP030,1,28,1,0,15,1,8,JPN" xlink:title="AP030" d="M14132.8125,-4026.0776L14133.1116,-4025.7668L14134.0378,-4024.5235L14135.0174,-4023.9941L14136.9308,-4023.9506L14138.1607,-4024.548L14139.2899,-4023.5268"/>
<path content="AP030,1,28,1,0,16,1,4,JPN" xlink:title="AP030" d="M14137.5198,-4023.0934L14137.9898,-4023.18L14139.2899,-4023.5268"/>
<path content="AP030,1,28,1,0,14,1,8,JPN" xlink:title="AP030" d="M14176.8799,-4034.3201L14176.8097,-4034.1L14176.77,-4033.9535L14176.77,-4033.9401L14176.7197,-4033.8333L14176.7395,-4033.7399L14176.7899,-4033.6666L14176.8295,-4033.6132L14176.8295,-4033.4866L14176.8097,-4033.3801L14176.7395,-4033.3065L14176.4297,-4033.1665L14176.3992,-4033.1264L14176.4297,-4032.6199L14176.3992,-4032.2266L14176.3992,-4032.1335L14176.4694,-4032.0667L14176.5396,-4031.9935L14176.5793,-4031.9199L14176.6296,-4031.7932L14176.6495,-4031.76L14176.6998,-4031.72L14176.77,-4031.6532L14176.86,-4031.58L14176.9302,-4031.5399L14177.0798,-4031.3599L14177.1805,-4031.1466L14177.1805,-4031.0734L14177.0599,-4030.7133L14177.0599,-4030.6198L14177.1103,-4030.5332L14177.24,-4030.3333L14177.3605,-4030.2467L14177.5192,-4030.08L14177.6505,-4029.9732L14177.6993,-4029.9198L14177.8305,-4029.8332L14178.1097,-4029.7401L14178.3096,-4029.6867L14178.4302,-4029.6532L14178.45,-4029.6333L14178.5202,-4029.4865L14178.6102,-4029.3999L14178.6987,-4029.3228L14178.7399,-4029.2866L14178.9001,-4029.1664L14178.9505,-4029.0531L14178.9703,-4028.9467L14178.9505,-4028.8399L14178.9001,-4028.7132L14178.7903,-4028.5534L14178.7399,-4028.4599L14178.7399,-4028.4267L14178.7201,-4028.3733L14178.7201,-4028.26L14178.7399,-4028.2066L14178.9001,-4028.0666L14179.2404,-4027.8332L14179.4495,-4027.6665L14179.5593,-4027.5398L14179.6494,-4027.3998L14179.6997,-4027.2533L14179.7195,-4027.1267L14179.7195,-4027.0931L14179.7394,-4027.0535L14179.7394,-4027.0199L14179.7195,-4026.9665L14179.5807,-4026.86L14179.3793,-4026.68L14179.2892,-4026.5133L14179.2694,-4026.4267L14179.2694,-4026.26L14179.3106,-4026.0666L14179.2892,-4025.9201L14179.2694,-4025.8667L14178.7903,-4025.4131L14178.6301,-4025.2533L14178.4698,-4025.0935L14178.45,-4024.9866L14178.4698,-4024.8734L14178.5599,-4024.8001L14178.6499,-4024.7467L14178.7399,-4024.6933L14178.8101,-4024.6399L14178.83,-4024.6067L14178.83,-4024.5533L14178.83,-4024.4999L14178.7903,-4024.4267L14178.6804,-4024.3732L14178.5202,-4024.2599L14178.45,-4024.1932L14178.3997,-4024.1199L14178.3997,-4024.0467L14178.3798,-4023.9532L14178.36,-4023.8998L14178.3096,-4023.8464L14178.2898,-4023.7934L14178.2898,-4023.7202L14178.1998,-4023.6668L14178.0594,-4023.6134L14177.9694,-4023.5802L14177.9007,-4023.56L14177.8793,-4023.5065L14177.9007,-4023.4333L14178.1296,-4023.0534L14178.1799,-4023L14178.2898,-4022.9267L14178.3798,-4022.86L14178.4698,-4022.7665L14178.5202,-4022.6799L14178.4897,-4022.6067L14178.45,-4022.4998L14178.3997,-4022.4266"/>
<path content="AP030,1,28,1,0,14,1,8,JPN" xlink:title="AP030" d="M14178.36,-4022.3534L14178.3997,-4022.4266"/>
<path content="AP030,1,28,1,0,14,1,8,JPN" xlink:title="AP030" d="M14163.7207,-4027.5398L14163.8306,-4027.5799L14163.9893,-4027.6665L14164.1098,-4027.7065L14164.1495,-4027.6867L14164.3097,-4027.6665L14164.36,-4027.6665L14164.5798,-4027.6665L14164.7003,-4027.6333L14165.1093,-4027.6867L14165.6494,-4027.7199L14165.9698,-4027.8133L14166.1301,-4027.8866L14166.2003,-4027.8866L14166.2704,-4027.8999L14166.4001,-4027.8866L14166.7206,-4027.8465L14166.9296,-4027.8133L14167.1799,-4027.8465L14167.3294,-4027.8465L14167.5201,-4027.8332L14167.63,-4027.8465L14167.6804,-4027.8866L14167.8101,-4027.9202L14168.5806,-4027.9732L14168.7195,-4027.9533L14168.9697,-4027.8332L14169.0201,-4027.8133L14169.22,-4027.7931L14169.2902,-4027.7733L14169.5404,-4027.6531L14169.6503,-4027.6333L14169.7693,-4027.6531L14169.8593,-4027.6665L14170.0195,-4027.6665L14170.0806,-4027.6531L14170.1294,-4027.6333L14170.3995,-4027.4532L14170.52,-4027.38L14170.5597,-4027.3266L14170.52,-4026.4801L14170.5597,-4026.3733L14170.6299,-4026.3L14170.7001,-4026.2466L14170.8603,-4026.1734L14171.4294,-4025.9201L14171.5393,-4025.8667L14171.7697,-4025.6664L14171.9498,-4025.4665L14171.9498,-4025.4131L14171.9299,-4025.2865L14171.9299,-4025.2201L14171.9894,-4025.1801L14172.2,-4025.0732L14172.2702,-4025.0401L14172.2702,-4024.9664L14172.2198,-4024.8402L14172.2198,-4024.8001L14172.2702,-4024.7665L14172.3099,-4024.7334L14172.4503,-4024.7131L14172.58,-4024.7131L14172.6807,-4024.6933L14172.8104,-4024.6067L14172.8806,-4024.5865L14172.9507,-4024.5865L14173.1293,-4024.6201L14173.2407,-4024.6601L14173.5794,-4024.8001L14173.8098,-4024.9268L14174.0204,-4025.0198L14174.2203,-4025.0534L14174.3805,-4025.1266L14174.4507,-4025.1465L14174.5407,-4025.1667L14175.2197,-4025.1999L14175.3601,-4025.2335L14175.5203,-4025.3067L14175.6104,-4025.3067L14175.7004,-4025.2865L14175.8301,-4025.2201L14175.9003,-4025.1266L14175.9705,-4025.0534L14176.0605,-4025L14176.1993,-4024.8932L14176.2695,-4024.8001L14176.3794,-4024.5533L14176.4694,-4024.3534L14176.5198,-4024.2802L14176.6098,-4024.2268L14176.7197,-4024.2065L14176.8097,-4024.1932L14176.8799,-4024.1333L14176.9501,-4024.1199L14177.0599,-4024.1001L14177.15,-4024.0799L14177.2202,-4024.0265L14177.33,-4023.7934L14177.4002,-4023.74L14177.4704,-4023.6866L14177.4902,-4023.5802L14177.5406,-4023.5401L14177.6505,-4023.4665L14177.6794,-4023.4001L14177.6993,-4023.2735L14177.8305,-4023.04L14178.1097,-4022.6933L14178.36,-4022.3534"/>
<path content="AP030,1,28,1,0,14,1,8,JPN" xlink:title="AP030" d="M14178.36,-4022.3534L14178.36,-4022.2065L14178.421,-4022.1348"/>
<path content="AP030,1,28,1,0,16,1,8,JPN" xlink:title="AP030" d="M14132.8125,-4022.8215L14133.5205,-4022.3202L14133.6807,-4022.2267L14133.9005,-4022.1733L14134.6298,-4022.0135L14134.8602,-4022.0135L14135.08,-4022.0665L14135.5194,-4022.1733L14135.6796,-4022.2065L14135.8795,-4022.2267L14135.9695,-4022.2801L14136.2,-4022.4998L14136.3098,-4022.5666L14136.3998,-4022.5864L14136.8805,-4022.6933L14137.0193,-4022.7467L14137.0804,-4022.7867L14137.3093,-4022.9668L14137.5198,-4023.0934"/>
<path content="AP030,1,28,1,0,14,1,8,JPN" xlink:title="AP030" d="M14141.5207,-4021.6133L14141.6306,-4021.7068L14141.7206,-4021.8468L14141.9495,-4022.4266L14141.9907,-4022.5334L14142.0197,-4022.5666L14141.9006,-4023.0732L14141.9495,-4023.3467L14141.9693,-4023.8667L14141.9495,-4023.9532L14141.7694,-4024.1001L14141.33,-4024.4267L14141.2704,-4024.6201L14141.1301,-4024.9466L14141.1301,-4024.9664L14141.1102,-4025.1064L14141.1804,-4025.4131"/>
<path content="AP030,1,28,1,0,15,1,8,JPN" xlink:title="AP030" d="M14132.8125,-4022.0782L14132.9651,-4022.0219L14134.111,-4021.7709L14134.996,-4021.8124L14136.1435,-4022.0619L14137.2375,-4022.2282L14138.176,-4022.311L14139.0091,-4022.3522L14139.8422,-4022.2267L14140.8325,-4021.9345L14141.5207,-4021.6133"/>
<path content="AP030,1,28,1,0,14,1,8,JPN" xlink:title="AP030" d="M14141.5207,-4021.6133L14141.4902,-4021.5401L14141.4902,-4021.36L14141.5405,-4021.2868L14141.6306,-4021.2334L14141.7206,-4021.2002L14141.8304,-4021.18L14141.9495,-4021.18L14141.9907,-4021.1666L14142.1097,-4021.0533"/>
<path content="AP030,1,28,1,0,14,1,8,JPN" xlink:title="AP030" d="M14178.6102,-4019.8334L14178.6499,-4019.8467L14178.7903,-4019.9402L14178.8803,-4019.9932L14179.0802,-4020.0466L14179.2892,-4020.1534L14179.3793,-4020.2599L14179.6097,-4020.5002L14179.6295,-4020.5868L14179.5593,-4020.7466L14179.4296,-4020.9999L14179.3793,-4021.0934L14179.2892,-4021.18L14179.1687,-4021.2578L14179.0604,-4021.3264L14178.9703,-4021.3799L14178.9703,-4021.4867L14178.8803,-4021.5401L14178.8101,-4021.6331L14178.7003,-4021.7602L14178.45,-4022.1001L14178.421,-4022.1348"/>
<path content="AP030,1,28,1,0,16,1,8,JPN" xlink:title="AP030" d="M14178.421,-4022.1348L14178.3798,-4022.1001L14178.3295,-4021.9398L14178.45,-4021.7068L14178.3422,-4021.0632L14178.401,-4020.652L14178.5202,-4020.4067L14178.4698,-4020.2599L14178.5248,-4020.0928L14178.6102,-4019.8334"/>
<path content="AP030,1,28,1,0,14,1,8,JPN" xlink:title="AP030" d="M14178.6102,-4019.8334L14178.9902,-4018.9865L14178.9902,-4018.7332"/>
<path content="AP030,1,28,1,0,14,1,8,JPN" xlink:title="AP030" d="M14176.3306,-4019.1799L14176.6098,-4019.1467L14176.8097,-4019.1067L14176.9501,-4019.0735L14176.9699,-4019.0533L14177.1805,-4018.8599L14177.3804,-4018.6798L14177.6215,-4018.634L14178.1494,-4018.5333L14178.2394,-4018.5665L14178.3096,-4018.6066L14178.4698,-4018.7134L14178.9902,-4018.7332"/>
<path content="AP030,1,28,1,0,15,1,8,JPN" xlink:title="AP030" d="M14148.8953,-4027.8431L14149.2676,-4026.9878L14150.5722,-4024.2374L14151.7426,-4023.3299L14157.6569,-4020.7451L14161.8652,-4019.8208L14164.1998,-4017.6865"/>
<path content="AP030,1,28,1,0,14,1,8,JPN" xlink:title="AP030" d="M14164.1998,-4017.6865L14164.27,-4017.7734L14164.3097,-4017.7933L14164.3799,-4017.8131L14164.8804,-4017.8665L14164.9506,-4017.8665L14165.0406,-4017.8333L14165.0803,-4017.7734L14165.2405,-4017.5934L14165.3305,-4017.5598L14165.4907,-4017.5598L14165.5807,-4017.58L14165.6494,-4017.6132L14165.7196,-4017.6666L14165.7898,-4017.6865L14165.8798,-4017.6666L14166.0599,-4017.5934L14166.1804,-4017.58L14166.2201,-4017.5934L14166.3101,-4017.6533L14166.4001,-4017.6666L14166.4902,-4017.6334L14166.6107,-4017.6334L14166.8106,-4017.6666L14167.1097,-4017.7067L14167.8802,-4017.7734L14168.1107,-4017.8131L14168.1503,-4017.8131L14168.2007,-4017.7601L14168.2205,-4017.7067L14168.2404,-4017.7067L14168.2907,-4017.7067L14168.3304,-4017.72L14168.7195,-4017.9001L14168.9499,-4018.0267L14169.1101,-4018.0801L14169.22,-4018.0801L14169.31,-4018.0668L14169.4504,-4018.0668L14169.7205,-4018.1198L14169.7906,-4018.1934L14170.0607,-4018.3865L14170.1492,-4018.4067L14170.2698,-4018.3865L14170.3598,-4018.3735L14170.7001,-4018.2465L14170.7703,-4018.2068L14170.9702,-4018.1934L14171.7407,-4018.1934L14171.8094,-4018.2068L14171.8597,-4018.2266L14172.2702,-4018.5135L14172.3297,-4018.5333L14172.3999,-4018.5001L14172.7707,-4018.3865L14172.8302,-4018.3735L14172.9706,-4018.4601L14173.2407,-4018.6199L14173.9502,-4018.8934L14174.1302,-4018.9266L14174.7406,-4019.0201L14174.8093,-4019.0399L14175.5798,-4019.1467L14175.7401,-4019.1799L14175.8606,-4019.22L14176.0406,-4019.22L14176.2894,-4019.1799L14176.3306,-4019.1799"/>
<path content="AP030,1,28,1,0,14,1,8,JPN" xlink:title="AP030" d="M14157.1503,-4015.1066L14157.3303,-4015.3465L14157.3807,-4015.4133L14157.4295,-4015.6334L14157.5195,-4015.7734L14157.5607,-4015.8134L14157.6797,-4015.8867L14157.8094,-4015.9733L14158.1299,-4016.2468L14158.2001,-4016.2601L14158.3099,-4016.28L14158.4,-4016.2468L14158.5205,-4016.2266L14158.6502,-4016.2266L14158.7204,-4016.1934L14158.9294,-4016.1201L14159.0607,-4016.0999L14159.4299,-4016.0999L14159.5398,-4016.0999L14159.6802,-4016.1331L14159.7702,-4016.1533L14159.8602,-4016.1201L14159.9701,-4016.0999L14160.0601,-4016.1331L14160.2005,-4016.2266L14160.5194,-4016.4268L14160.7193,-4016.4799L14160.7895,-4016.5001L14160.8597,-4016.5134L14160.8597,-4016.5668L14160.8307,-4016.6401L14160.7193,-4016.7667L14160.6995,-4016.84L14160.7193,-4016.9132L14160.7407,-4016.9468L14160.8093,-4016.9868L14160.9299,-4016.9868L14161.1496,-4017.02L14161.29,-4017.0933L14161.3602,-4017.1799L14161.3998,-4017.2867L14161.4304,-4017.4L14161.47,-4017.4332L14161.7905,-4017.4866L14161.8607,-4017.4667L14162.1307,-4017.2001L14162.1994,-4017.1799L14162.97,-4017.2001L14163.06,-4017.2333L14163.4705,-4017.3466L14163.5605,-4017.3801L14163.6795,-4017.4866L14163.7405,-4017.5068L14163.8992,-4017.5068L14163.9694,-4017.5266L14164.1296,-4017.6132L14164.1998,-4017.6865"/>
<path content="AP030,1,28,1,0,15,1,8,JPN" xlink:title="AP030" d="M14142.1097,-4021.0533L14144.6869,-4019.8486L14145.4681,-4019.3481L14146.2494,-4019.2226L14147.2397,-4019.3054L14147.9172,-4019.3054L14148.6465,-4019.0548L14149.0112,-4018.9713L14149.324,-4018.9297L14149.7925,-4018.9293L14150.3662,-4018.9709L14150.679,-4018.9289L14151.0956,-4018.6371L14151.6159,-4018.0115L14152.5009,-4017.4274L14153.4393,-4017.2184L14154.1687,-4017.1764L14154.2725,-4017.26L14154.2206,-4017.4683L14153.8559,-4017.6769L14153.7521,-4017.9272L14153.804,-4018.0519L14154.5349,-4018.2182L14155.368,-4018.1347L14156.0974,-4018.0092L14156.3583,-4017.7589L14156.3049,-4017.4671L14155.9402,-4017.0506L14155.7312,-4016.5089L14155.7831,-4016.2586L14155.835,-4016.0088L14156.1996,-4015.7581L14156.4087,-4015.7581L14156.6696,-4015.8417L14156.8771,-4015.8413L14156.8771,-4015.5914L14157.1503,-4015.1066"/>
<path content="AP030,1,28,1,0,14,1,8,JPN" xlink:title="AP030" d="M14178.9902,-4018.7332L14178.9001,-4018.6199L14178.7399,-4018.4601L14178.45,-4018.28L14178.3295,-4018.2465L14178.2196,-4018.1934L14178.0807,-4018.0466L14178.0396,-4017.7399L14177.8793,-4016.9868L14177.7008,-4016.8194L14177.6794,-4016.7999L14177.3804,-4016.6801L14177.3804,-4016.5531L14177.33,-4016.5001L14177.1301,-4016.2998L14177.1103,-4016.2468L14176.8295,-4015.7932L14176.68,-4015.5399L14176.4694,-4015.3599L14176.3596,-4015.2332L14176.3107,-4015.1669L14176.3107,-4015.1066L14176.3992,-4014.7331L14176.5594,-4014.5L14176.68,-4014.4268L14176.9302,-4014.3867L14176.9867,-4014.3826L14177.1103,-4014.3734L14177.2202,-4014.32L14177.3605,-4014.1335L14177.4002,-4014.0667L14177.4506,-4013.8332L14177.4612,-4013.6745L14177.4704,-4013.5601L14177.5406,-4013.4533L14177.6794,-4013.3801L14177.8107,-4013.3469L14178.1097,-4013.2866L14178.27,-4013.2332L14178.45,-4013.1466L14178.5202,-4013.1065L14179.2404,-4012.7869L14180.7205,-4012.0468L14181.6101,-4011.6669L14181.72,-4011.6333L14181.9504,-4011.5799"/>
<path content="AP030,1,28,1,0,15,1,8,JPN" xlink:title="AP030" d="M14171.7758,-4009.2068L14173.2346,-4009.5394L14176.2054,-4010.4553L14177.1439,-4010.7883L14178.5507,-4010.9543L14179.5929,-4011.0371L14180.3741,-4011.0367L14181.9504,-4011.5799"/>
<path content="AP030,1,28,1,0,15,1,8,JPN" xlink:title="AP030" d="M14171.7758,-4009.2068L14171.5973,-4009.8293L14170.726,-4010.3874L14170.1157,-4011.6432L14170.1157,-4012.6896L14170.726,-4013.4563L14170.9885,-4013.9446L14171.3364,-4014.2933L14172.2092,-4014.6416L14173.3414,-4015.0597L14173.7778,-4015.4079L14174.0402,-4015.966L14174.5621,-4016.3841L14175.6958,-4017.4301L14176.3062,-4018.1271L14176.3306,-4019.1799"/>
<path content="AP030,1,28,1,0,14,1,8,JPN" xlink:title="AP030" d="M14157.1503,-4015.1066L14157.0801,-4015.0398L14157.0206,-4014.9467L14156.9,-4014.6935L14156.8298,-4014.6599L14156.81,-4014.64L14156.5201,-4014.5134L14156.2195,-4014.4402L14156.1295,-4014.46L14156.0593,-4014.46L14156.0196,-4014.5L14155.9692,-4014.5535L14155.9296,-4014.64L14155.9006,-4014.6801L14155.8105,-4014.7331L14155.7693,-4014.7667L14155.7007,-4014.8731L14155.6503,-4014.9265L14155.6107,-4014.9467L14155.5405,-4014.9467L14155.4901,-4014.9265L14155.4504,-4014.9132L14155.2704,-4014.7331L14155.22,-4014.6801L14155.0598,-4014.6198L14154.9896,-4014.5866L14154.8996,-4014.5332L14154.7195,-4014.46L14154.4296,-4014.2601L14154.3793,-4014.2467L14154.2404,-4014.2265L14154.1504,-4014.2265L14154.0207,-4014.2467L14153.9307,-4014.2467L14153.7704,-4014.1533L14153.7201,-4014.1201L14153.5599,-4014.1201L14153.45,-4014.0999L14153.3295,-4014.0667L14153.2394,-4013.8668L14153.1097,-4013.4533L14153.0594,-4013.3801L14152.9907,-4013.3266L14152.7695,-4013.2534L14152.6993,-4013.2198L14152.6306,-4013.1802L14152.5192,-4013.0932L14152.4307,-4013.0932L14152.2705,-4013.1668L14151.9897,-4013.2198L14151.86,-4013.2198L14151.8097,-4013.1466L14151.86,-4013.0531L14152.0798,-4013.0001L14152.1301,-4012.9467L14152.0599,-4012.7666L14151.9501,-4012.6801L14151.7197,-4012.5668L14151.5793,-4012.5534L14151.5396,-4012.5534L14151.5198,-4012.5134L14151.5396,-4012.4802L14151.5396,-4012.4268L14151.5396,-4012.2601L14151.5594,-4012.2467L14151.5793,-4012.2066L14151.7197,-4012.1735L14151.7395,-4012.1334L14151.7197,-4012.0998L14151.5793,-4012.0132L14151.5396,-4011.9934L14151.5396,-4011.9534L14151.6098,-4011.8465L14151.6296,-4011.4868L14151.68,-4011.38L14151.8097,-4011.1668L14151.8295,-4011.1069L14151.8295,-4010.9268L14151.8295,-4010.5534L14151.8295,-4010.5133L14151.7899,-4010.4599L14151.77,-4010.4267L14151.77,-4010.3733L14151.7395,-4010.3333L14151.6296,-4010.26L14151.5793,-4010.2066L14151.5594,-4010.0132L14151.5793,-4009.9731L14151.7395,-4009.8331L14151.77,-4009.8133L14151.7197,-4009.6134L14151.6998,-4009.4532L14151.6098,-4009.3601L14151.5594,-4009.3067L14151.5594,-4009.0199L14151.5396,-4008.9134L14151.4893,-4008.82L14151.2405,-4008.5533L14151.0193,-4008.26"/>
<path content="AP030,1,28,1,0,15,1,8,JPN" xlink:title="AP030" d="M14151.0193,-4008.26L14154.216,-4008.9645L14157.1869,-4009.3803L14158.5419,-4009.3796L14159.8953,-4009.3788L14160.6247,-4009.2537L14161.2503,-4009.1698L14161.6669,-4008.8779L14162.2925,-4007.8773L14162.3436,-4007.8125M14167.8643,-4007.8125L14168.0237,-4008.2497L14168.3884,-4008.7498L14169.1711,-4009.1663L14170.108,-4009.2075L14170.6818,-4009.1656L14171.7758,-4009.2068"/>
<path content="AP030,1,28,1,0,15,1,8,JPN" xlink:title="AP030" d="M14132.8125,-4016.5753L14133.4305,-4016.2689L14134.0561,-4015.852L14134.2636,-4015.3934L14134.5245,-4014.6847L14135.0967,-4013.9339L14135.9299,-4012.9749L14137.1277,-4011.9324L14138.2217,-4010.8063L14139.1586,-4009.7221L14139.7827,-4008.7631L14140.0907,-4007.8125"/>
<path content="AP030,1,28,1,0,14,1,8,JPN" xlink:title="AP030" d="M14150.9705,-4007.8125L14150.9705,-4008.0467L14150.9705,-4008.12L14151.0193,-4008.26"/>
<path content="AP030,1,28,1,0,14,1,8,JPN" xlink:title="AP030" d="M14142.1097,-4021.0533L14142.63,-4020.4266L14142.7002,-4020.3201L14142.7002,-4019.2532L14142.7704,-4019.1666L14142.9504,-4019.0735L14142.9703,-4019.0201L14142.9504,-4018.9465L14142.7902,-4018.7332L14142.3798,-4018.1L14142.3798,-4018.0267L14142.3996,-4017.9199L14142.3996,-4017.8333L14142.3798,-4017.72L14142.2897,-4017.6334L14142.2897,-4017.5598L14142.3996,-4017.3599L14142.7902,-4016.5668L14142.8604,-4016.4268L14142.9703,-4016.2067L14143.0405,-4016.0267L14143.0405,-4015.9L14142.9504,-4015.6132L14142.9504,-4015.4667L14142.9306,-4015.4331L14142.8604,-4015.2866L14142.72,-4015.1669L14142.6102,-4015.1066L14142.3996,-4015.0398L14142.3599,-4015.0002L14142.3294,-4014.9265L14142.3294,-4014.5L14142.3798,-4014.4268L14142.54,-4014.3002L14142.7002,-4014.1201L14142.7902,-4013.9732L14142.8101,-4013.7733L14142.8101,-4013.6868L14142.8299,-4013.6532L14142.9703,-4013.5265L14143.0206,-4013.4335L14143.0206,-4013.3469L14143.0603,-4013.2732L14143.2907,-4013.1065L14143.4296,-4013.0001L14143.4494,-4012.8933L14143.4692,-4012.8201L14143.5394,-4012.7666L14143.6096,-4012.7335L14143.6295,-4012.6801L14143.6096,-4012.5L14143.6096,-4012.3867L14143.6996,-4012.1735L14143.7897,-4012.0132L14143.8797,-4011.8999L14143.9896,-4011.8465L14144.0598,-4011.7931L14144.0796,-4011.7199L14144.1498,-4011.4868L14144.2398,-4011.3998L14144.4702,-4011.3068L14144.5206,-4011.2865L14144.6106,-4011.2202L14144.7403,-4011.0535L14144.8303,-4010.8734L14144.9493,-4010.68L14144.9905,-4010.3867L14145.0607,-4010.26L14145.2393,-4009.9533L14145.2896,-4009.8331L14145.2896,-4009.7069L14145.1797,-4009.5268L14145.1096,-4009.4532L14145.1294,-4009.4002L14145.1996,-4009.3468L14145.2393,-4009.2869L14145.3094,-4009.1999L14145.5399,-4008.9668L14145.8298,-4008.82L14145.8603,-4008.7868L14145.8603,-4008.7467L14145.7199,-4008.6067L14145.7199,-4008.5335L14145.7397,-4008.44L14145.6802,-4008.12L14145.6299,-4008.0269L14145.61,-4007.9735L14145.6299,-4007.8999L14145.6783,-4007.8125"/>
<path content="AP030,1,28,1,0,14,1,8,JPN" xlink:title="AP030" d="M14181.9504,-4011.5799L14182.1503,-4011.4868L14182.2006,-4011.4666L14182.3303,-4011.3068L14182.4707,-4011.1267L14182.4905,-4011.0931L14182.5195,-4010.9867L14182.5195,-4010.8734L14182.4905,-4010.82L14182.5394,-4010.7132L14182.5607,-4010.5331L14182.5394,-4010.4401L14182.4493,-4010.2467L14182.4707,-4010.1933L14182.5439,-4010.133L14182.5607,-4010.12L14182.6096,-4010.0132L14182.6294,-4009.8469L14182.6294,-4009.7401L14182.6492,-4009.7069L14182.6492,-4009.6867L14182.6996,-4009.6535L14182.8598,-4009.5268L14182.8995,-4009.4666L14182.93,-4009.4131L14182.8796,-4009.2335L14182.8293,-4009.0534L14182.7896,-4008.9466L14182.7316,-4008.8516L14182.6996,-4008.8001L14182.6797,-4008.7467L14182.6797,-4008.7132L14182.6797,-4008.6601L14182.6492,-4008.6067L14182.5806,-4008.5133L14182.5806,-4008.44L14182.5806,-4008.3866L14182.6492,-4008.2802L14182.6492,-4008.2268L14182.6492,-4008.1734L14182.5806,-4007.9533L14182.5806,-4007.8869L14182.6092,-4007.8125"/>
<path content="AP030,1,28,1,0,15,1,8,JPN" xlink:title="AP030" d="M14171.7758,-4009.2068L14172.2946,-4008.643L14172.2946,-4008.2245L14172.2946,-4007.8125"/>
<path content="AP030,1,28,1,1,16,1,8,JPN" xlink:title="AP030" d="M14132.8125,-4065.9176L14132.976,-4065.8359L14133.5862,-4065.4291L14134.1339,-4065.3553L14135.2472,-4065.0562"/>
<path content="AP030,1,28,1,0,16,1,8,JPN" xlink:title="AP030" d="M14135.2472,-4065.0562L14135.9695,-4064.5535"/>
</g>
</svg>
