<?xml version="1.0" encoding="UTF-8"?>
<svg  xmlns="http://www.w3.org/2000/svg" xmlns:xlink="http://www.w3.org/1999/xlink" xmlns:go="http://purl.org/svgmap/profile" property="f_code,acc,exs,rst,med,rtt,RSU,loc,soc" viewBox="12375.0 -3937.5 562.5 562.5" go:dataArea="12375.0 -3937.5 562.5 562.5" >
<metadata>
 <rdf:RDF xmlns:rdf="http://www.w3.org/1999/02/22-rdf-syntax-ns#" xmlns:crs="http://opengis.org/xmldtds/transformations.dtd" xmlns:svg="http://www.w3.org/svg" >
  <rdf:Description>
   <crs:CoordinateReferenceSystem rdf:resource="http://purl.org/crs/84" svg:transform="matrix(100.0,0.0,0.0,-100.0,0.0,0.0)" />
  </rdf:Description>
 </rdf:RDF>
</metadata>
<globalCoordinateSystem srsName="http://purl.org/crs/84" transform="matrix(100.0,0.0,0.0,-100.0,0.0,0.0)" />
<defs>
 <g id="p0" >
  <circle cx="0.0" cy="0.0" r="3" stroke="green" stroke-width="2.0" vector-effect="non-scaling-stroke" />
 </g>
</defs>
<g fill="none" fill-rule="evenodd" stroke="#00ff00" stroke-width="2" opacity="0.5" vector-effect="non-scaling-stroke" stroke-linejoin="bevel" >
<path content="AP030,1,28,1,0,14,1,8,JPN" xlink:title="AP030" d="M12937.5,-3462.398L12936.9705,-3462.0266L12936.9003,-3462.0132L12936.7905,-3461.8134L12936.6302,-3461.6531L12936.6104,-3461.5799L12936.6806,-3461.3998L12936.6501,-3461.2198L12936.7004,-3461.0535L12936.6501,-3460.9867L12936.5204,-3460.9665L12936.47,-3460.9264L12936.4304,-3460.9135L12936.3998,-3460.8932L12936.38,-3460.7132L12936.3297,-3460.64L12936.2701,-3460.6197L12936.1496,-3460.64L12935.8994,-3460.68L12935.8597,-3460.7334L12935.8597,-3460.9135L12935.8795,-3461.0535L12935.9299,-3461.1797L12935.8795,-3461.2534L12935.6796,-3461.3068L12935.4904,-3461.0001L12935.4004,-3460.7468L12935.4507,-3460.5133L12935.4706,-3460.3867L12935.4507,-3460.3199L12935.4004,-3460.1734L12935.4004,-3459.9731L12935.8093,-3459.6664L12935.8597,-3459.56L12935.8795,-3459.3468L12935.9497,-3459.2533L12936.0397,-3459.1999L12936.2396,-3459.0401L12936.4304,-3458.8932L12936.4502,-3458.5335L12936.38,-3458.3733L12936.2198,-3458.1333L12936.2396,-3458.0132L12936.3297,-3457.7599L12936.3297,-3457.7065L12936.2701,-3457.5066L12935.8597,-3456.9134L12935.7895,-3456.8199L12935.7697,-3456.6799L12935.8307,-3456.5334L12935.9497,-3456.3332L12935.9299,-3456.1932L12935.7697,-3455.8998L12935.6796,-3455.8468L12935.5804,-3455.8334L12935.5194,-3455.8998L12935.4706,-3456.0799L12935.5194,-3456.2267L12935.4904,-3456.2798L12935.3806,-3456.2798L12935.2905,-3456.1535L12935.2905,-3456.0265L12935.3806,-3455.8998L12935.4004,-3455.8865L12935.4004,-3455.8132L12935.3607,-3455.6866L12935.4294,-3455.5931L12935.4706,-3455.5798L12935.5392,-3455.5798L12935.6094,-3455.5401L12935.6293,-3455.4531L12935.6094,-3455.4134L12935.5194,-3455.4001L12935.5194,-3455.3265L12935.4904,-3454.7466L12935.4294,-3454.5132L12935.3806,-3454.1199L12935.2707,-3453.92L12935.2005,-3453.6533L12935.1105,-3453.4664L12935.1074,-3453.4649"/>
<path content="AP030,1,28,1,0,15,1,8,JPN" xlink:title="AP030" d="M12935.1074,-3453.4649L12936.1908,-3452.9949L12937.3108,-3453.2349L12937.5,-3453.2366"/>
<path content="AP030,1,28,1,0,14,1,8,JPN" xlink:title="AP030" d="M12935.1074,-3453.4649L12934.9304,-3453.3066L12934.8099,-3453.2333L12934.79,-3453.1666L12934.8801,-3453.0399L12935.0204,-3452.84L12935.0204,-3452.7466L12935.0204,-3452.66L12934.8602,-3452.6199L12934.5795,-3452.6398L12934.3094,-3452.66L12934.2194,-3452.5867L12934.1293,-3452.6066L12934.0195,-3452.5867L12933.9294,-3452.5333L12933.8806,-3452.3731L12933.9294,-3452.2266L12934.0393,-3452.2064L12934.1095,-3452.1198L12934.0805,-3451.9199L12934.3994,-3451.5064L12934.4498,-3451.3065L12934.3796,-3450.9865L12934.4498,-3450.7133L12934.52,-3450.6599L12934.52,-3450.5867L12934.4894,-3450.5531L12934.4696,-3450.5135L12934.2697,-3450.2998L12934.2407,-3450.28L12933.9294,-3449.8665L12933.9294,-3449.8466L12933.8593,-3449.7066L12933.8593,-3449.1665L12933.7692,-3448.9265L12933.7402,-3448.7667L12933.7906,-3448.6065L12933.8806,-3448.5134L12933.9706,-3448.3734L12933.9294,-3448.1934L12933.9493,-3447.9401L12933.9294,-3447.8867L12933.9249,-3447.8863"/>
<path content="AP030,1,28,1,0,14,1,8,JPN" xlink:title="AP030" d="M12933.9249,-3447.8863L12933.6807,-3447.8664L12933.49,-3447.8466L12933.4305,-3447.8664L12933.4152,-3447.8851L12933.3603,-3447.9534L12933.2901,-3447.9733L12933.2199,-3447.9L12933.2199,-3447.8992L12933.1299,-3447.6532L12933.0795,-3447.5399L12933.2001,-3447.3801L12933.2001,-3447.3267L12933.11,-3447.3064L12932.9895,-3447.2733L12932.8995,-3447.2L12932.8598,-3447.1802L12932.8094,-3447.2332L12932.8094,-3447.4335L12932.7698,-3447.5067L12932.5806,-3447.58L12932.3807,-3447.5933L12932.2693,-3447.58L12932.2006,-3447.4667L12932.1793,-3447.3465L12932.1304,-3447.3064L12931.9901,-3447.2866L12931.8802,-3447.2534L12931.7398,-3447.2198L12931.6498,-3447.1664L12931.6498,-3447.1466L12931.7902,-3446.9666L12931.7398,-3446.9131L12931.6803,-3446.8933L12931.5201,-3446.8601L12931.3599,-3446.8399L12931.2698,-3446.7999L12931.2393,-3446.7999L12931.1996,-3446.7865L12931.1295,-3446.7335L12931.1096,-3446.7133"/>
<path content="AP030,1,28,1,0,15,1,8,JPN" xlink:title="AP030" d="M12927.739,-3446.4157L12928.2776,-3445.9747L12929.1107,-3445.9896L12929.6051,-3446.1349L12931.1096,-3446.7133"/>
<path content="AP030,1,28,1,0,15,1,8,JPN" xlink:title="AP030" d="M12933.9249,-3447.8863L12934.6085,-3447.0161L12934.9182,-3446.2234L12935.7132,-3445.9381L12936.3113,-3445.9301"/>
<path content="AP030,1,28,1,0,15,1,8,JPN" xlink:title="AP030" d="M12937.5,-3446.4581L12937.3672,-3446.3284L12937.1185,-3445.8431L12936.3113,-3445.9301"/>
<path content="AP030,1,28,1,0,14,1,8,JPN" xlink:title="AP030" d="M12931.1096,-3446.7133L12931.1096,-3446.64L12931.1478,-3446.6206L12931.2592,-3446.6579L12931.3995,-3446.5847L12931.4194,-3446.5515L12931.4392,-3446.4783L12931.4697,-3446.4046L12931.4697,-3446.3116L12931.4392,-3446.1849L12931.4194,-3446.0979L12931.3995,-3446.0781L12931.189,-3445.9915L12930.9204,-3445.8847L12930.7602,-3445.7382L12930.719,-3445.6848L12930.719,-3445.6448L12930.69,-3445.578L12930.7404,-3445.5379L12930.8701,-3445.5379L12930.9402,-3445.5582L12931.0089,-3445.5582L12931.0593,-3445.5181L12931.0593,-3445.4849L12931.0303,-3445.2847L12931.0593,-3445.2316L12931.0989,-3445.1981L12931.1691,-3445.1782L12931.2592,-3445.158L12931.3492,-3445.0916L12931.6193,-3444.7449L12931.8497,-3444.6583L12931.9,-3444.3867L12931.7902,-3444.3333L12931.4499,-3444.1532L12931.3293,-3443.9934L12931.3095,-3443.8866L12931.3797,-3443.7199L12931.5796,-3443.5398L12931.6498,-3443.4132L12931.6101,-3443.3067L12931.5399,-3443.2331L12931.2897,-3443.0931L12931.1493,-3443.0401L12930.8807,-3442.8734L12930.7907,-3442.86L12930.4901,-3442.7334L12930.3299,-3442.6399L12930.2902,-3442.5865L12930.4306,-3442.44L12930.4901,-3442.4065L12930.8105,-3442.12L12930.9906,-3441.8865L12931.0593,-3441.6332L12931.1096,-3441.5798L12931.1295,-3441.5264L12931.1295,-3441.3265L12931.3095,-3440.86L12931.3995,-3440.6601L12931.72,-3439.8335L12931.7398,-3439.74"/>
<path content="AP030,1,28,1,0,15,1,8,JPN" xlink:title="AP030" d="M12936.3113,-3445.9301L12936.5173,-3444.4687L12936.3663,-3443.5654L12935.997,-3443.3651L12935.9848,-3441.7515L12936.6821,-3441.0286L12935.9009,-3439.8014L12935.2692,-3439.2139L12934.5566,-3438.1737"/>
<path content="AP030,1,28,1,0,14,1,8,JPN" xlink:title="AP030" d="M12931.7398,-3439.74L12931.8604,-3439.5599L12931.9305,-3439.5267L12932.1793,-3439.5267L12932.3105,-3439.5065L12932.5806,-3439.3265L12932.6996,-3439.2735L12932.7698,-3439.2532L12932.8293,-3439.22L12932.8598,-3439.1266L12932.8796,-3438.8599L12932.93,-3438.7135L12932.9895,-3438.5532L12932.9895,-3438.2599L12933.0399,-3438.1535L12933.0399,-3438.1199L12933.1497,-3438.0264L12933.2703,-3437.9932L12933.4,-3437.9932L12933.49,-3438.0264L12933.8303,-3438.2065L12934.1293,-3438.2267L12934.5566,-3438.1737"/>
<path content="AP030,1,28,1,0,15,1,8,JPN" xlink:title="AP030" d="M12923.8464,-3436.3285L12924.6506,-3435.4198L12925.5234,-3435.7021L12926.7014,-3435.7838L12927.5131,-3436.2247L12927.3315,-3436.6676L12927.7664,-3437.2368L12928.064,-3437.6606L12927.652,-3438.6078L12927.7832,-3439.0812L12928.5141,-3439.2509L12928.6209,-3439.0636L12928.7979,-3438.6532L12929.4769,-3438.6204L12930.1193,-3438.2877L12929.9606,-3439.1281L12930.5481,-3438.6253L12931.7398,-3439.74"/>
<path content="AP030,1,28,1,0,14,1,8,JPN" xlink:title="AP030" d="M12931.4697,-3426.5331L12931.6803,-3426.7666L12931.72,-3426.8932L12931.7902,-3427.0199L12931.9305,-3427.2202L12932.1106,-3427.5066L12932.1304,-3427.5265L12932.3593,-3427.7733L12932.4905,-3428.0464L12932.6492,-3428.12L12932.8094,-3428.0998L12933.02,-3427.9934L12933.0795,-3427.9934L12933.1299,-3428.0132L12933.3099,-3428.0998L12933.49,-3428.1734L12933.7906,-3428.1532L12933.9493,-3428.0998L12934.1507,-3428.08L12934.3094,-3428.0266L12934.52,-3427.94L12934.8099,-3427.8999L12934.9503,-3427.8999L12935.3806,-3427.8866L12935.4294,-3427.8332L12935.5606,-3427.6134L12935.6293,-3427.6134L12935.7193,-3427.6333L12935.8994,-3427.6665L12935.9894,-3427.7065L12936.0596,-3427.7931L12936.2,-3427.8465L12936.29,-3427.8667L12936.29,-3427.9732L12936.29,-3428.12L12936.29,-3428.2066L12936.2701,-3428.26L12936.2701,-3428.3001L12936.1298,-3428.5L12936.0794,-3428.5332L12936.0199,-3428.6064L12935.9695,-3428.6934L12935.9695,-3428.82L12935.9497,-3429.0531L12935.8795,-3429.1466L12935.6995,-3429.2732L12935.5804,-3429.3999L12935.5194,-3429.5601L12935.4904,-3429.8332L12935.5194,-3430.5534L12935.5392,-3430.6065L12935.6094,-3430.6801L12935.6293,-3430.7331L12935.6293,-3430.7865L12935.5606,-3430.8735L12935.4904,-3430.9666L12935.4904,-3431.0932L12935.5194,-3431.2L12935.5392,-3431.2534L12935.6796,-3431.4533L12935.7407,-3431.5601L12935.6995,-3431.7932L12935.6796,-3431.8665L12935.6506,-3431.9L12935.6506,-3431.9733L12935.7895,-3432.0267L12935.8093,-3432.0801L12935.8597,-3432.1533L12935.9497,-3432.1732L12936.0794,-3432.2266L12936.2,-3432.2601L12936.29,-3432.3334L12936.3297,-3432.46L12936.3098,-3432.5867L12936.2396,-3432.7133L12936.1801,-3433.1066L12936.2198,-3433.2199L12936.3297,-3433.2333L12936.3602,-3433.2733L12936.3297,-3433.3267L12936.29,-3433.4534L12936.0794,-3433.8135L12936.2198,-3434.0134L12936.2396,-3434.1732L12936.2396,-3434.2266L12936.3297,-3434.4067L12936.3297,-3434.6066L12936.4502,-3434.7466L12936.5204,-3435.0399L12936.4502,-3435.4134L12936.3098,-3435.7067L12936.3098,-3435.7933L12936.3098,-3436.1332L12936.3098,-3436.3201L12936.3098,-3436.3865L12936.3602,-3436.4399L12936.4502,-3436.5002L12936.6302,-3436.6199L12936.7905,-3436.7466L12936.8103,-3436.8198L12936.8103,-3436.8732L12936.7401,-3436.9465L12936.38,-3437.1799L12936.2701,-3437.2334L12936.1496,-3437.2734L12936.0596,-3437.2734L12935.9497,-3437.2334L12935.7895,-3437.2532L12935.4004,-3437.5401L12935.3806,-3437.5935L12935.4904,-3437.8666L12935.4507,-3437.92L12935.2203,-3437.9734L12934.9899,-3438.0264L12934.7,-3438.1199L12934.5596,-3438.1733L12934.5566,-3438.1737"/>
<path content="AP030,1,28,1,0,15,1,8,JPN" xlink:title="AP030" d="M12931.4697,-3426.5331L12930.2551,-3426.8944L12929.4617,-3427.1332L12928.4119,-3427.3823L12927.8946,-3427.1568L12926.4816,-3428.4924L12926.0056,-3428.867L12925.5447,-3429.1378L12925.4761,-3429.6223L12924.9374,-3429.8504L12924.1821,-3429.2156L12923.5001,-3429.2545L12922.6151,-3428.6423L12922.1817,-3429.0207L12921.1487,-3428.2539L12920.8359,-3427.4868L12920.1508,-3427.2446L12920.1126,-3426.9253L12919.5679,-3426.5915L12919.9356,-3425.19L12919.2566,-3424.913L12919.2551,-3424.6323L12919.8776,-3424.4125L12919.6198,-3422.95"/>
<path content="AP030,1,28,1,0,15,1,8,JPN" xlink:title="AP030" d="M12919.6198,-3422.95L12922.6303,-3422.8577L12924.1653,-3421.8502L12925.5554,-3422.4762L12926.0986,-3422.2134L12926.3443,-3422.8683L12927.8564,-3423.8216L12927.9404,-3423.2334L12927.7451,-3422.5132L12927.1835,-3422.0028L12928.6499,-3421.6866"/>
<path content="AP030,1,28,1,0,14,1,8,JPN" xlink:title="AP030" d="M12928.6499,-3421.6866L12928.7201,-3421.6866L12928.8305,-3421.6745L12928.9001,-3421.6667L12929.3106,-3421.5801L12929.4495,-3421.6133L12929.5197,-3421.6667L12929.5425,-3421.74L12929.5914,-3421.8353L12929.6097,-3421.9933L12929.6097,-3422.0135L12929.6097,-3422.0264L12929.5807,-3422.0665L12929.6097,-3422.1535L12929.6799,-3422.2267L12929.7699,-3422.2267L12929.7958,-3422.2843L12929.8798,-3422.3331L12929.8996,-3422.4266L12929.9301,-3422.6067L12930.0201,-3422.7135L12930.1498,-3422.8001L12930.2399,-3422.8733L12930.2902,-3423L12930.4504,-3423.2334L12930.9494,-3423.6668L12930.9906,-3423.7202L12931.0196,-3423.7732L12931.0806,-3423.8998L12931.1493,-3424.0665L12931.1996,-3424.1531L12931.3095,-3424.3332L12931.4499,-3424.4801L12931.5262,-3424.5743L12931.543,-3424.6281L12931.5399,-3424.7131L12931.5201,-3424.86L12931.5399,-3424.9866L12931.5399,-3425.0198L12931.2393,-3425.1667L12931.2195,-3425.2335L12931.1798,-3425.3799L12931.1493,-3425.4333L12931.1096,-3425.5264L12931.1493,-3425.5932L12931.1996,-3425.6332L12931.3095,-3425.7599L12931.3293,-3425.7935L12931.3797,-3425.9399L12931.4896,-3426.0468L12931.5201,-3426.1532L12931.5201,-3426.3332L12931.4697,-3426.5331"/>
<path content="AP030,1,28,1,0,14,1,8,JPN" xlink:title="AP030" d="M12928.7018,-3420.0092L12929.0207,-3420.0665L12929.0405,-3420.1332L12929.0802,-3420.4601L12928.8803,-3420.4601L12928.8803,-3420.5002L12928.8803,-3420.6932L12928.83,-3421.1067L12928.8101,-3421.2334L12928.6499,-3421.4664L12928.6301,-3421.5599L12928.6499,-3421.6866"/>
<path content="AP030,1,28,1,0,15,1,8,JPN" xlink:title="AP030" d="M12926.2054,-3416.0519L12926.7807,-3415.8623L12926.4114,-3416.3876L12927.803,-3417.2939L12928.4912,-3418.0969L12928.2043,-3418.9457L12928.7018,-3420.0092"/>
<path content="AP030,1,28,1,0,15,1,8,JPN" xlink:title="AP030" d="M12919.1406,-3414.1022L12920.4895,-3415.0051L12921.6568,-3415.3992L12922.377,-3415.6799L12923.1705,-3416.0374L12923.4192,-3416.0618L12924.0311,-3415.9107L12924.176,-3415.7845L12924.5132,-3415.7825L12924.8383,-3415.5685L12926.2054,-3416.0519"/>
<path content="AP030,1,28,1,0,15,1,8,JPN" xlink:title="AP030" d="M12919.6198,-3422.95L12919.1513,-3422.9744L12918.8919,-3422.4232L12919.1742,-3421.9246L12919.603,-3421.5809L12920.1111,-3421.5603L12919.9493,-3420.9133L12920.7748,-3420.1523L12921.3913,-3419.371L12921.4081,-3418.9518L12921.6095,-3418.726L12921.4478,-3418.6752L12919.6732,-3419.5889L12918.8675,-3419.6156L12918.1305,-3419.1578L12918.0939,-3418.523L12919.0994,-3418.2709L12919.3665,-3417.8761L12919.3008,-3417.4488L12918.0374,-3416.8346L12918.4219,-3416.206L12917.8604,-3415.6952L12917.6529,-3415.0787L12918.692,-3413.9885L12918.9026,-3414.2895L12919.1406,-3414.1022"/>
<path content="AP030,1,28,1,0,15,1,8,JPN" xlink:title="AP030" d="M12919.1406,-3414.1022L12918.8385,-3413.5468L12918.1732,-3412.2898L12919.9738,-3411.4838L12920.2835,-3410.7777L12921.4447,-3412.1178L12921.6019,-3411.2915L12922.493,-3410.9573L12923.1247,-3412.4565L12923.6176,-3412.8551L12925.3204,-3412.7399L12925.238,-3413.3282L12924.501,-3413.467L12924.9863,-3414.2155L12925.386,-3414.6748L12925.7355,-3414.2879L12925.975,-3414.3814L12926.3321,-3415.1524L12925.9262,-3415.6391L12926.2054,-3416.0519"/>
</g>
</svg>
