<?xml version="1.0" encoding="UTF-8"?>
<svg  xmlns="http://www.w3.org/2000/svg" xmlns:xlink="http://www.w3.org/1999/xlink" xmlns:go="http://purl.org/svgmap/profile" property="f_code,acc,exs,rst,med,rtt,RSU,loc,soc" viewBox="13921.875 -3621.09375 35.15625 35.15625" go:dataArea="13921.875 -3621.09375 35.15625 35.15625" >
<metadata>
 <rdf:RDF xmlns:rdf="http://www.w3.org/1999/02/22-rdf-syntax-ns#" xmlns:crs="http://opengis.org/xmldtds/transformations.dtd" xmlns:svg="http://www.w3.org/svg" >
  <rdf:Description>
   <crs:CoordinateReferenceSystem rdf:resource="http://purl.org/crs/84" svg:transform="matrix(100.0,0.0,0.0,-100.0,0.0,0.0)" />
  </rdf:Description>
 </rdf:RDF>
</metadata>
<globalCoordinateSystem srsName="http://purl.org/crs/84" transform="matrix(100.0,0.0,0.0,-100.0,0.0,0.0)" />
<defs>
 <g id="p0" >
  <circle cx="0.0" cy="0.0" r="3" stroke="green" stroke-width="2.0" vector-effect="non-scaling-stroke" />
 </g>
</defs>
<g fill="none" fill-rule="evenodd" stroke="#00ff00" stroke-width="2" opacity="0.5" vector-effect="non-scaling-stroke" stroke-linejoin="bevel" >
<path content="AP030,1,28,1,0,15,1,8,JPN" xlink:title="AP030" d="M13929.7224,-3621.0938L13930.0201,-3620.9133"/>
<path content="AP030,1,28,1,0,14,1,8,JPN" xlink:title="AP030" d="M13928.4141,-3621.0938L13928.54,-3621.0732L13928.6301,-3621.0533L13929.4907,-3620.9267L13930.0201,-3620.9133"/>
<path content="AP030,1,28,1,0,15,1,8,JPN" xlink:title="AP030" d="M13931.2393,-3620.8733L13931.6052,-3621.0938"/>
<path content="AP030,1,28,1,0,14,1,8,JPN" xlink:title="AP030" d="M13930.0201,-3620.9133L13931.2393,-3620.8733"/>
<path content="AP030,1,28,1,0,15,1,8,JPN" xlink:title="AP030" d="M13944.6701,-3620.8149L13945.903,-3620.8725L13946.1734,-3621.0938"/>
<path content="AP030,1,28,1,0,15,1,8,JPN" xlink:title="AP030" d="M13944.2417,-3621.0938L13944.6701,-3620.8149"/>
<path content="AP030,1,28,1,0,14,1,8,JPN" xlink:title="AP030" d="M13951.8354,-3621.0938L13951.6998,-3620.7134L13951.68,-3620.6932"/>
<path content="AP030,1,28,1,0,15,1,8,JPN" xlink:title="AP030" d="M13951.68,-3620.6932L13952.626,-3620.61L13953.0579,-3620.5719L13954.422,-3620.9591L13955.6686,-3621.0079L13955.8392,-3621.0937"/>
<path content="AP030,1,28,1,0,15,1,8,JPN" xlink:title="AP030" d="M13934.2617,-3621.0938L13934.0012,-3620.4994L13933.3298,-3620.0268"/>
<path content="AP030,1,28,1,0,14,1,8,JPN" xlink:title="AP030" d="M13932.9615,-3621.0938L13933.0399,-3620.8733L13933.3298,-3620.0268"/>
<path content="AP030,1,28,1,0,14,1,8,JPN" xlink:title="AP030" d="M13931.2393,-3620.8733L13931.8604,-3620.8599L13932.0602,-3620.8199L13932.1304,-3620.7867L13932.2403,-3620.7333L13932.4905,-3620.62L13932.9895,-3620.2999L13933.3298,-3620.0268"/>
<path content="AP030,1,28,1,0,15,1,8,JPN" xlink:title="AP030" d="M13927.6268,-3621.0938L13928.27,-3619.7399"/>
<path content="AP030,1,28,1,0,14,1,8,JPN" xlink:title="AP030" d="M13924.5601,-3621.0937L13924.5605,-3621.0934L13924.9496,-3620.6799L13925.2197,-3620.3865L13925.3601,-3620.2267L13925.8606,-3619.9001L13926.2894,-3619.6667L13927.7206,-3619.7201L13928.0807,-3619.7399L13928.27,-3619.7399"/>
<path content="AP030,1,28,1,0,15,1,8,JPN" xlink:title="AP030" d="M13946.8496,-3621.0938L13947.2,-3620.5677L13947.3175,-3619.5457"/>
<path content="AP030,1,28,1,0,15,1,8,JPN" xlink:title="AP030" d="M13944.6701,-3620.8149L13945.8984,-3620.0787L13947.3175,-3619.5457"/>
<path content="AP030,1,28,1,0,14,1,8,JPN" xlink:title="AP030" d="M13928.27,-3619.7399L13928.4897,-3619.7399L13929.0207,-3619.7399L13929.8096,-3619.3802"/>
<path content="AP030,1,28,1,0,15,1,8,JPN" xlink:title="AP030" d="M13940.1439,-3621.0938L13941.0339,-3620.3651L13942.2729,-3619.4233L13942.7124,-3619.1833"/>
<path content="AP030,1,28,1,0,15,1,8,JPN" xlink:title="AP030" d="M13937.8028,-3621.0938L13937.8143,-3620.8355L13937.738,-3619.8799L13937.8433,-3619.1509"/>
<path content="AP030,1,28,1,0,14,1,8,JPN" xlink:title="AP030" d="M13951.68,-3620.6932L13951.3794,-3619.9932L13951.3794,-3619.9532L13951.3596,-3619.8467L13950.9506,-3618.8732L13950.9293,-3618.8L13950.8606,-3618.5333L13950.8804,-3618.2598"/>
<path content="AP030,1,28,1,0,15,1,8,JPN" xlink:title="AP030" d="M13937.0482,-3618.2183L13937.8433,-3619.1509"/>
<path content="AP030,1,28,1,0,14,1,8,JPN" xlink:title="AP030" d="M13937.0096,-3621.0938L13937.0804,-3620.8L13937.1094,-3620.66L13937.1094,-3620.3335L13937.0407,-3618.5867L13937.0407,-3618.5532L13937.0482,-3618.2183"/>
<path content="AP030,1,28,1,0,16,1,8,JPN" xlink:title="AP030" d="M13957.0214,-3621.0938L13957.0312,-3621.0728"/>
<path content="AP030,1,28,1,0,15,1,8,JPN" xlink:title="AP030" d="M13956.9687,-3617.6117L13957.0312,-3617.6117"/>
<path content="AP030,1,28,1,0,15,1,8,JPN" xlink:title="AP030" d="M13947.3175,-3619.5457L13947.7585,-3619.276L13947.7707,-3617.5751"/>
<path content="AP030,1,28,1,0,15,1,8,JPN" xlink:title="AP030" d="M13942.7124,-3619.1833L13943.335,-3618.8435L13944.841,-3618.2636L13946.6995,-3617.6117L13947.7707,-3617.5751"/>
<path content="AP030,1,28,1,0,14,1,8,JPN" xlink:title="AP030" d="M13933.3298,-3620.0268L13933.5205,-3619.8868L13933.8806,-3619.5801L13934.4894,-3619.2532L13935.1303,-3618.7134L13935.4507,-3618.3865L13935.7193,-3618.1L13935.8994,-3617.9001L13936.1496,-3617.6334L13936.4899,-3617.4534L13936.6806,-3617.3466"/>
<path content="AP030,1,28,1,0,14,1,8,JPN" xlink:title="AP030" d="M13937.0482,-3618.2183L13937.0605,-3617.6666L13937.0605,-3617.2531"/>
<path content="AP030,1,28,1,0,14,1,8,JPN" xlink:title="AP030" d="M13936.6806,-3617.3466L13937.0605,-3617.2531"/>
<path content="AP030,1,28,1,0,15,1,8,JPN" xlink:title="AP030" d="M13950.8804,-3618.2598L13950.3296,-3617.2493"/>
<path content="AP030,1,28,1,0,15,1,8,JPN" xlink:title="AP030" d="M13947.7707,-3617.5751L13948.8235,-3617.5392L13950.3296,-3617.2493"/>
<path content="AP030,1,28,1,0,14,1,8,JPN" xlink:title="AP030" d="M13934.6497,-3617.1665L13934.8297,-3617.2333L13935.2905,-3617.4133L13935.5804,-3617.4667L13935.8307,-3617.4667L13936.3602,-3617.3801L13936.6806,-3617.3466"/>
<path content="AP030,1,28,1,0,14,1,8,JPN" xlink:title="AP030" d="M13929.8096,-3619.3802L13931.1493,-3618.7466L13932.1503,-3618.28L13932.3807,-3618.1934L13933.02,-3617.9001L13933.2703,-3617.7933L13933.3099,-3617.7734L13934.61,-3617.1799L13934.6497,-3617.1665"/>
<path content="AP030,1,28,1,0,15,1,8,JPN" xlink:title="AP030" d="M13926.1032,-3617.0605L13926.6174,-3617.6144L13927.5253,-3618.5921"/>
<path content="AP030,1,28,1,0,15,1,8,JPN" xlink:title="AP030" d="M13921.875,-3618.2586L13922.7798,-3618.1843L13924.1898,-3618.087L13925.3738,-3617.2779L13926.1032,-3617.0605"/>
<path content="AP030,1,28,1,0,15,1,8,JPN" xlink:title="AP030" d="M13953.5385,-3617.0139L13955.7297,-3617.5392L13956.9687,-3617.6117"/>
<path content="AP030,1,28,1,0,15,1,8,JPN" xlink:title="AP030" d="M13956.9687,-3617.6117L13957.0312,-3617.547"/>
<path content="AP030,1,28,1,0,15,1,8,JPN" xlink:title="AP030" d="M13929.8096,-3619.3802L13929.2282,-3618.7656L13928.9871,-3618.5108L13927.98,-3617.9062L13927.8931,-3617.0052L13927.861,-3616.6843"/>
<path content="AP030,1,28,1,0,15,1,8,JPN" xlink:title="AP030" d="M13926.1032,-3617.0605L13927.861,-3616.6843"/>
<path content="AP030,1,28,1,0,15,1,8,JPN" xlink:title="AP030" d="M13937.8433,-3619.1509L13938.5361,-3618.2137L13938.5605,-3617.0528L13938.2706,-3616.6199"/>
<path content="AP030,1,28,1,0,14,1,8,JPN" xlink:title="AP030" d="M13937.0605,-3617.2531L13937.0804,-3617.2531L13937.4695,-3617.2001L13937.7396,-3617.0734L13938.06,-3616.8201L13938.2706,-3616.6199"/>
<path content="AP030,1,28,1,0,14,1,8,JPN" xlink:title="AP030" d="M13938.2706,-3616.6199L13938.4003,-3616.5668L13938.4506,-3616.5668"/>
<path content="AP030,1,28,1,0,15,1,8,JPN" xlink:title="AP030" d="M13939.18,-3616.4799L13939.5187,-3616.8594L13940.2618,-3617.8753L13941.4322,-3618.2522L13942.7124,-3619.1833"/>
<path content="AP030,1,28,1,0,14,1,8,JPN" xlink:title="AP030" d="M13938.4506,-3616.5668L13939.18,-3616.4799"/>
<path content="AP030,1,28,1,0,14,1,8,JPN" xlink:title="AP030" d="M13939.18,-3616.4799L13939.2197,-3616.46"/>
<path content="AP030,1,28,1,0,15,1,8,JPN" xlink:title="AP030" d="M13948.381,-3616.3074L13949.8871,-3616.8144L13950.3296,-3617.2493"/>
<path content="AP030,1,28,1,0,15,1,8,JPN" xlink:title="AP030" d="M13947.7707,-3617.5751L13948.0133,-3617.5667L13948.381,-3616.3074"/>
<path content="AP030,1,28,1,0,15,1,8,JPN" xlink:title="AP030" d="M13953.5385,-3617.0139L13953.4592,-3616.8079L13953.0899,-3615.8661"/>
<path content="AP030,1,28,1,0,14,1,8,JPN" xlink:title="AP030" d="M13950.8804,-3618.2598L13950.9506,-3618.1332L13951.0193,-3618.0466L13951.1093,-3617.9199L13951.5396,-3617.6666L13951.86,-3617.54L13951.9241,-3617.4763L13952.1301,-3617.2733L13952.2003,-3617.1799L13952.4506,-3616.84L13952.4902,-3616.7866L13952.9907,-3615.9931L13953.0197,-3615.9733L13953.0899,-3615.8661"/>
<path content="AP030,1,28,1,0,15,1,8,JPN" xlink:title="AP030" d="M13929.8096,-3619.3802L13930.7022,-3618.3174L13931.2958,-3617.6117L13932.2693,-3615.7276"/>
<path content="AP030,1,28,1,0,14,1,8,JPN" xlink:title="AP030" d="M13937.0605,-3617.2531L13937.0605,-3616.7332L13937.0804,-3615.8134L13936.9904,-3615.7398L13936.9507,-3615.7066L13936.7905,-3615.6334"/>
<path content="AP030,1,28,1,0,14,1,8,JPN" xlink:title="AP030" d="M13934.6497,-3617.1665L13935.8795,-3616.5531L13936.6302,-3615.7734L13936.7905,-3615.6334"/>
<path content="AP030,1,28,1,0,15,1,8,JPN" xlink:title="AP030" d="M13947.3297,-3615.5933L13948.381,-3616.3074"/>
<path content="AP030,1,28,1,0,14,1,8,JPN" xlink:title="AP030" d="M13935.6796,-3615.2L13935.8795,-3615.2866L13936.557,-3615.5445L13936.7905,-3615.6334"/>
<path content="AP030,1,28,1,0,15,1,8,JPN" xlink:title="AP030" d="M13932.2693,-3615.7276L13932.6767,-3616.2018L13934.3338,-3615.8707L13935.6796,-3615.2"/>
<path content="AP030,1,28,1,0,14,1,8,JPN" xlink:title="AP030" d="M13936.7905,-3615.6334L13937.2696,-3615.2"/>
<path content="AP030,1,28,1,0,14,1,8,JPN" xlink:title="AP030" d="M13939.2197,-3616.46L13941.4902,-3615.3801L13941.7694,-3615.2332L13941.9495,-3615.1066"/>
<path content="AP030,1,28,1,0,14,1,8,JPN" xlink:title="AP030" d="M13941.9495,-3615.1066L13942.7704,-3615.1066L13943.1107,-3615.1669L13943.9896,-3615.5266L13944.31,-3615.6132L13944.5206,-3615.6532L13944.5801,-3615.6532L13946.2204,-3615.6132L13947.3297,-3615.5933"/>
<path content="AP030,1,28,1,0,15,1,8,JPN" xlink:title="AP030" d="M13930.7007,-3615.0734L13931.4758,-3615.3965L13932.2693,-3615.7276"/>
<path content="AP030,1,28,1,0,15,1,8,JPN" xlink:title="AP030" d="M13927.861,-3616.6843L13928.8879,-3616.3448L13929.3854,-3615.8012L13930.072,-3615.4568L13930.7007,-3615.0734"/>
<path content="AP030,1,28,1,0,15,1,8,JPN" xlink:title="AP030" d="M13953.0899,-3615.8661L13952.8076,-3615.1478L13952.7847,-3615.0433"/>
<path content="AP030,1,28,1,0,14,1,8,JPN" xlink:title="AP030" d="M13947.3297,-3615.5933L13947.8394,-3615.5823L13948.88,-3615.5602L13949.2905,-3615.5602L13950.7706,-3615.1669L13951.0803,-3615.0734L13951.4893,-3615.0398L13952.1805,-3615.0932L13952.2003,-3615.0932L13952.6993,-3615.0734L13952.7405,-3615.0532L13952.7847,-3615.0433"/>
<path content="AP030,1,28,1,0,15,1,8,JPN" xlink:title="AP030" d="M13927.861,-3616.6843L13928.0731,-3615.8611L13927.9495,-3614.9868"/>
<path content="AP030,1,28,1,0,15,1,8,JPN" xlink:title="AP030" d="M13932.2693,-3615.7276L13932.3929,-3615.2988L13932.4905,-3614.9666"/>
<path content="AP030,1,28,1,0,14,1,8,JPN" xlink:title="AP030" d="M13930.7007,-3615.0734L13931.5201,-3615.0398L13932.1304,-3614.9868L13932.4295,-3614.9666L13932.4905,-3614.9666"/>
<path content="AP030,1,28,1,0,14,1,8,JPN" xlink:title="AP030" d="M13934.8099,-3614.9666L13934.9503,-3614.9868L13935.3622,-3615.107L13935.6796,-3615.2"/>
<path content="AP030,1,28,1,0,14,1,8,JPN" xlink:title="AP030" d="M13932.4905,-3614.9666L13932.8796,-3614.9467L13933.2397,-3614.9467L13933.8104,-3615.02L13934.1293,-3615.0002L13934.5596,-3614.9265L13934.6298,-3614.9265L13934.8099,-3614.9666"/>
<path content="AP030,1,28,1,0,14,1,8,JPN" xlink:title="AP030" d="M13927.9495,-3614.9868L13929.2892,-3615.0002L13929.6997,-3614.8933L13929.8798,-3614.8933L13930.7007,-3615.0734"/>
<path content="AP030,1,28,1,0,14,1,8,JPN" xlink:title="AP030" d="M13953.0899,-3615.8661L13953.1494,-3615.7734L13953.3798,-3615.5399L13953.9902,-3614.8399"/>
<path content="AP030,1,28,1,0,14,1,8,JPN" xlink:title="AP030" d="M13952.7847,-3615.0433L13953.0396,-3614.9868L13953.0807,-3614.9868L13953.7003,-3614.8602L13953.9902,-3614.8399"/>
<path content="AP030,1,28,1,0,14,1,8,JPN" xlink:title="AP030" d="M13937.2696,-3615.2L13937.5595,-3614.9467L13937.9898,-3614.5668L13938.1302,-3614.5332"/>
<path content="AP030,1,28,1,0,15,1,8,JPN" xlink:title="AP030" d="M13934.6527,-3614.5081L13934.9045,-3614.5744L13936.0611,-3614.88L13937.0087,-3615.1306L13937.2696,-3615.2"/>
<path content="AP030,1,28,1,0,16,1,8,JPN" xlink:title="AP030" d="M13934.8099,-3614.9666L13934.6695,-3614.5561L13934.6527,-3614.5081"/>
<path content="AP030,1,28,1,0,14,1,8,JPN" xlink:title="AP030" d="M13947.3297,-3615.5933L13946.9498,-3615.1066L13946.9498,-3614.8006L13946.9498,-3614.5866L13946.9894,-3614.4798"/>
<path content="AP030,1,28,1,0,15,1,8,JPN" xlink:title="AP030" d="M13938.4506,-3616.5668L13938.5864,-3615.789L13938.5193,-3614.4268"/>
<path content="AP030,1,28,1,0,14,1,8,JPN" xlink:title="AP030" d="M13938.1302,-3614.5332L13938.3804,-3614.46L13938.5193,-3614.4268"/>
<path content="AP030,1,28,1,0,15,1,8,JPN" xlink:title="AP030" d="M13932.8201,-3614.4245L13933.1802,-3614.4409L13934.6527,-3614.5081"/>
<path content="AP030,1,28,1,0,15,1,8,JPN" xlink:title="AP030" d="M13932.4905,-3614.9666L13932.8201,-3614.4245"/>
<path content="AP030,1,28,1,0,16,1,8,JPN" xlink:title="AP030" d="M13921.875,-3615.0468L13921.9498,-3614.9132L13922.3312,-3614.3414"/>
<path content="AP030,1,28,1,0,15,1,8,JPN" xlink:title="AP030" d="M13953.5385,-3617.0139L13955.6412,-3615.2203L13956.9382,-3614.2918"/>
<path content="AP030,1,28,1,0,14,1,8,JPN" xlink:title="AP030" d="M13953.9902,-3614.8399L13954.0207,-3614.7999L13954.2694,-3614.5866L13954.5197,-3614.5L13955.22,-3614.3333L13955.3604,-3614.2799"/>
<path content="AP030,1,28,1,0,15,1,8,JPN" xlink:title="AP030" d="M13939.1098,-3614.2467L13939.2273,-3615.591L13939.2197,-3616.46"/>
<path content="AP030,1,28,1,0,14,1,8,JPN" xlink:title="AP030" d="M13938.5193,-3614.4268L13938.7207,-3614.3532L13938.7695,-3614.3333L13939.1098,-3614.2467"/>
<path content="AP030,1,28,1,0,14,1,8,JPN" xlink:title="AP030" d="M13955.3604,-3614.2799L13955.5801,-3614.2467L13956.3293,-3614.2601L13956.6071,-3614.3005L13956.7398,-3614.32L13956.9382,-3614.2918"/>
<path content="AP030,1,28,1,0,14,1,8,JPN" xlink:title="AP030" d="M13921.875,-3614.301L13922.3312,-3614.3414"/>
<path content="AP030,1,28,1,0,15,1,8,JPN" xlink:title="AP030" d="M13922.551,-3614.1045L13922.5815,-3614.1277L13923.9609,-3615.1749L13925.5905,-3616.5085L13926.1032,-3617.0605"/>
<path content="AP030,1,28,1,0,16,1,8,JPN" xlink:title="AP030" d="M13922.3312,-3614.3414L13922.551,-3614.1045"/>
<path content="AP030,1,28,1,0,14,1,8,JPN" xlink:title="AP030" d="M13945.9305,-3614.0266L13945.99,-3614.0469L13946.2906,-3614.1933L13946.3303,-3614.1933L13946.4005,-3614.1731L13946.6095,-3614.2265L13946.8094,-3614.32L13946.9498,-3614.46L13946.9894,-3614.4798"/>
<path content="AP030,1,28,1,0,15,1,8,JPN" xlink:title="AP030" d="M13952.7847,-3615.0433L13952.5299,-3613.8924"/>
<path content="AP030,1,28,1,0,14,1,8,JPN" xlink:title="AP030" d="M13946.9894,-3614.4798L13947.2,-3614.5134L13947.4899,-3614.7133L13947.8104,-3614.7999L13947.8806,-3614.8201L13947.9904,-3614.8399L13948.5397,-3614.8399L13948.8602,-3614.8201L13949.2706,-3614.5535L13950.1999,-3614.2799L13950.3296,-3614.1933L13950.3998,-3614.0999L13950.4303,-3614.08L13950.6104,-3613.9198L13950.8606,-3613.7932L13951.1505,-3613.7733L13951.6495,-3613.8466L13951.77,-3613.8668L13951.9302,-3613.8466L13952.2202,-3613.8866L13952.5299,-3613.8924"/>
<path content="AP030,1,28,1,0,15,1,8,JPN" xlink:title="AP030" d="M13928.2379,-3613.9248L13929.4601,-3613.5078L13931.1905,-3614.0911L13932.6889,-3614.3982L13932.8201,-3614.4245"/>
<path content="AP030,1,28,1,0,14,1,8,JPN" xlink:title="AP030" d="M13941.9495,-3615.1066L13942.1799,-3614.9467L13942.63,-3614.46L13943.2693,-3613.7066L13943.3182,-3613.6673L13943.4906,-3613.5265L13943.5196,-3613.5067"/>
<path content="AP030,1,28,1,0,14,1,8,JPN" xlink:title="AP030" d="M13943.5196,-3613.5067L13943.8095,-3613.5799L13944.0796,-3613.6333L13944.1299,-3613.6333L13944.8105,-3613.5265L13944.8807,-3613.5067L13945.0806,-3613.6333L13945.3094,-3613.8134L13945.5795,-3613.9L13945.9305,-3614.0266"/>
<path content="AP030,1,28,1,0,14,1,8,JPN" xlink:title="AP030" d="M13955.3604,-3614.2799L13955.4901,-3614.1335L13955.5801,-3614.0133L13955.6503,-3613.4666"/>
<path content="AP030,1,28,1,0,15,1,8,JPN" xlink:title="AP030" d="M13956.9382,-3614.2918L13957.0312,-3614.2246"/>
<path content="AP030,1,28,1,0,14,1,8,JPN" xlink:title="AP030" d="M13955.6503,-3613.4666L13956.5598,-3613.5399L13956.9,-3613.5601L13957.0312,-3613.5369"/>
<path content="AP030,1,28,1,0,14,1,8,JPN" xlink:title="AP030" d="M13952.5299,-3613.8924L13952.9694,-3613.9L13953.1494,-3613.8866L13953.6499,-3613.6131L13953.7903,-3613.5799L13954.4693,-3613.5799L13954.5593,-3613.5799L13954.8996,-3613.4335L13955.6503,-3613.4666"/>
<path content="AP030,1,28,1,0,14,1,8,JPN" xlink:title="AP030" d="M13940.6097,-3613.3801L13940.7898,-3613.4533L13942.9703,-3613.4533L13943.2693,-3613.4533L13943.5196,-3613.5067"/>
<path content="AP030,1,28,1,0,14,1,8,JPN" xlink:title="AP030" d="M13939.1098,-3614.2467L13939.1998,-3614.2067L13939.65,-3613.9534L13939.7705,-3613.8866L13940.2771,-3613.5807L13940.6097,-3613.3801"/>
<path content="AP030,1,28,1,0,16,1,8,JPN" xlink:title="AP030" d="M13934.6527,-3614.5081L13934.61,-3613.5601L13934.6298,-3613.3598"/>
<path content="AP030,1,28,1,0,15,1,8,JPN" xlink:title="AP030" d="M13933.5083,-3613.3366L13934.6298,-3613.3598"/>
<path content="AP030,1,28,1,0,15,1,8,JPN" xlink:title="AP030" d="M13932.8201,-3614.4245L13932.8293,-3614.4104L13933.5083,-3613.3366"/>
<path content="AP030,1,28,1,0,15,1,8,JPN" xlink:title="AP030" d="M13925.1495,-3613.0001L13927.1179,-3613.3411L13928.2379,-3613.9248"/>
<path content="AP030,1,28,1,0,14,1,8,JPN" xlink:title="AP030" d="M13927.9495,-3614.9868L13925.9903,-3614.2601L13925.6805,-3614.1201L13925.4898,-3613.9534L13925.2899,-3613.6868L13925.1999,-3613.3999L13925.1709,-3613.1649L13925.1495,-3613.0001"/>
<path content="AP030,1,28,1,0,14,1,8,JPN" xlink:title="AP030" d="M13956.9382,-3614.2918L13957.0206,-3614.2799L13957.0312,-3614.2782"/>
<path content="AP030,1,28,1,0,15,1,8,JPN" xlink:title="AP030" d="M13921.875,-3613.5893L13922.551,-3614.1045"/>
<path content="AP030,1,28,1,0,14,1,8,JPN" xlink:title="AP030" d="M13922.3312,-3614.3414L13921.875,-3614.1558"/>
<path content="AP030,1,28,1,0,15,1,8,JPN" xlink:title="AP030" d="M13928.1906,-3612.7537L13929.2068,-3612.8471L13930.3146,-3613.2168L13931.9656,-3613.1615L13933.5083,-3613.3366"/>
<path content="AP030,1,28,1,0,15,1,8,JPN" xlink:title="AP030" d="M13928.2379,-3613.9248L13928.1906,-3612.7537"/>
<path content="AP030,1,28,1,0,14,1,8,JPN" xlink:title="AP030" d="M13938.1302,-3614.5332L13938.0783,-3614.2551L13938.0615,-3614.1624L13938.0615,-3614.0953L13938.06,-3613.9534L13938.06,-3613.8466L13938.06,-3613.7199L13937.6099,-3612.7468"/>
<path content="AP030,1,28,1,0,14,1,8,JPN" xlink:title="AP030" d="M13924.7635,-3612.4931L13924.8795,-3612.5866L13925.0595,-3612.7666L13925.1495,-3612.9665L13925.1495,-3613.0001"/>
<path content="AP030,1,28,1,0,16,1,8,JPN" xlink:title="AP030" d="M13922.551,-3614.1045L13922.9706,-3613.6532L13923.2407,-3613.4335L13923.8098,-3613.0733L13924.086,-3612.9051L13924.7635,-3612.4931"/>
<path content="AP030,1,28,1,0,15,1,8,JPN" xlink:title="AP030" d="M13946.2128,-3613.0543L13946.2402,-3612.2269"/>
<path content="AP030,1,28,1,0,14,1,8,JPN" xlink:title="AP030" d="M13943.5196,-3613.5067L13944.3298,-3613.1668L13944.4504,-3613.1065L13945.0806,-3612.7998L13946.2402,-3612.2269"/>
<path content="AP030,1,28,1,0,14,1,8,JPN" xlink:title="AP030" d="M13921.875,-3612.1448L13922.02,-3612.1532L13922.1298,-3612.1532L13922.7203,-3612.08L13923.1796,-3612.0667L13923.6496,-3612.08L13924.0402,-3612.1532L13924.1501,-3612.1735L13924.3301,-3612.2601L13924.6796,-3612.4268L13924.7635,-3612.4931"/>
<path content="AP030,1,28,1,0,15,1,8,JPN" xlink:title="AP030" d="M13926.0406,-3611.7733L13927.0309,-3612.5404L13928.1906,-3612.7537"/>
<path content="AP030,1,28,1,0,16,1,8,JPN" xlink:title="AP030" d="M13924.7635,-3612.4931L13925.0793,-3612.3001L13925.5402,-3612.0132L13926.0406,-3611.7733"/>
<path content="AP030,1,28,1,0,16,1,8,JPN" xlink:title="AP030" d="M13937.6099,-3612.7468L13937.1506,-3612.4401L13937.0407,-3612.3333L13936.9507,-3612.1201L13936.8607,-3611.7599L13936.8607,-3611.5067"/>
<path content="AP030,1,28,1,0,16,1,8,JPN" xlink:title="AP030" d="M13934.6298,-3613.3598L13934.7,-3613.2732L13934.8099,-3613.2198L13935.0403,-3613.0932L13935.8093,-3612.6801L13935.9299,-3612.5668L13936.0199,-3612.3531L13936.0596,-3612.2066L13936.1496,-3612.08L13936.3602,-3611.9202L13936.8103,-3611.5799L13936.8607,-3611.5067"/>
<path content="AP030,1,28,1,0,15,1,8,JPN" xlink:title="AP030" d="M13946.2402,-3612.2269L13945.842,-3611.2423L13945.6802,-3610.8398"/>
<path content="AP030,1,28,1,0,14,1,8,JPN" xlink:title="AP030" d="M13940.6097,-3613.3801L13941.0004,-3613.1451L13941.4505,-3612.8735L13941.7892,-3612.6598L13943.0801,-3611.8465L13943.4692,-3611.6135L13943.8599,-3611.38L13944.4901,-3611.0401L13944.9493,-3611.0199L13945.3598,-3611.0001L13945.4697,-3610.9669L13945.6802,-3610.8398"/>
<path content="AP030,1,28,1,0,15,1,8,JPN" xlink:title="AP030" d="M13922.6303,-3610.82L13923.262,-3610.9997L13923.9563,-3611.1969L13925.5554,-3611.2595L13926.0406,-3611.7733"/>
<path content="AP030,1,28,1,0,14,1,8,JPN" xlink:title="AP030" d="M13921.875,-3610.82L13922.1298,-3610.82L13922.6303,-3610.82"/>
<path content="AP030,1,28,1,0,15,1,8,JPN" xlink:title="AP030" d="M13933.226,-3610.8116L13934.5444,-3611.0607L13935.5591,-3611.0607L13936.8607,-3611.5067"/>
<path content="AP030,1,28,1,0,15,1,8,JPN" xlink:title="AP030" d="M13933.5083,-3613.3366L13933.4198,-3611.6695L13933.226,-3610.8116"/>
<path content="AP030,1,28,1,0,14,1,8,JPN" xlink:title="AP030" d="M13955.6503,-3613.4666L13955.6503,-3613.4533L13955.8304,-3613.0001L13955.8594,-3612.9131L13955.7404,-3612.6068L13955.8304,-3611.7931L13955.8594,-3611.7401L13955.9494,-3611.6669L13956.2195,-3611.4334L13956.3797,-3611.2732L13956.4301,-3611.2202L13956.7398,-3610.6934L13956.9305,-3610.4069L13957.0313,-3610.299"/>
<path content="AP030,1,28,1,0,15,1,8,JPN" xlink:title="AP030" d="M13930.5878,-3609.483L13932.312,-3610.0643L13933.226,-3610.8116"/>
<path content="AP030,1,28,1,0,15,1,8,JPN" xlink:title="AP030" d="M13928.1906,-3612.7537L13928.7201,-3610.6754L13929.1672,-3610.2097L13930.5878,-3609.483"/>
<path content="AP030,1,28,1,0,15,1,8,JPN" xlink:title="AP030" d="M13952.5299,-3613.8924L13952.4536,-3613.5536L13952.5421,-3612.6842L13953.2501,-3611.5974L13953.2501,-3611.235L13952.0996,-3611.0176L13951.5686,-3610.6552L13950.8606,-3609.206"/>
<path content="AP030,1,28,1,0,15,1,8,JPN" xlink:title="AP030" d="M13945.9305,-3614.0266L13946.9086,-3613.0863L13948.674,-3612.125L13949.2706,-3611.3453L13949.5743,-3610.6407L13950.8606,-3609.206"/>
<path content="AP030,1,28,1,0,14,1,8,JPN" xlink:title="AP030" d="M13922.6303,-3610.82L13922.8302,-3610.7468L13923.0804,-3610.5865L13923.2407,-3610.4267L13923.3597,-3610.1933L13923.3795,-3610.0468L13923.3307,-3609.8866L13923.2697,-3609.7733L13923.1995,-3609.7401L13922.9904,-3609.7069L13922.7402,-3609.56L13922.7005,-3609.5268L13922.58,-3609.4131L13922.5403,-3609.3067L13922.6105,-3609.0534L13922.6105,-3608.9268"/>
<path content="AP030,1,28,1,0,14,1,8,JPN" xlink:title="AP030" d="M13945.6802,-3610.8398L13946.2692,-3610.5L13946.3104,-3610.4401L13946.4005,-3610.3333L13946.5393,-3610.0266L13946.6507,-3609.6867L13948.0194,-3608.86"/>
<path content="AP030,1,28,1,0,14,1,8,JPN" xlink:title="AP030" d="M13946.2402,-3612.2269L13946.4294,-3612.1334L13947.3602,-3611.6333L13947.7203,-3611.4532L13947.8806,-3611.3068L13947.9004,-3611.2732L13948.4299,-3610.4599L13948.6298,-3610.1734L13948.79,-3609.7935L13948.8144,-3609.5127L13948.8297,-3609.3468L13948.7701,-3608.4801L13948.7396,-3608.2268"/>
<path content="AP030,1,28,1,0,14,1,8,JPN" xlink:title="AP030" d="M13948.0194,-3608.86L13948.7396,-3608.2268"/>
<path content="AP030,1,28,1,0,15,1,8,JPN" xlink:title="AP030" d="M13929.5593,-3608.1532L13930.5878,-3609.483"/>
<path content="AP030,1,28,1,0,16,1,8,JPN" xlink:title="AP030" d="M13926.0406,-3611.7733L13926.6495,-3611.38L13927.0798,-3611.0535L13927.6505,-3610.5534L13927.9694,-3610.3333L13928.0807,-3610.1933L13928.2196,-3609.94L13928.36,-3609.5932L13928.6804,-3609.1801L13929.1794,-3608.5667L13929.5593,-3608.1532"/>
<path content="AP030,1,28,1,0,16,1,8,JPN" xlink:title="AP030" d="M13936.8607,-3611.5067L13936.9904,-3611.3468L13937.0407,-3611.1465L13936.9507,-3610.8734L13936.4502,-3609.7401L13936.3297,-3609.5066L13936.3098,-3609.4666L13936.1099,-3609.0199L13936.1099,-3608.8932L13936.1099,-3608.7334L13936.1099,-3608.5533L13935.8093,-3608.2802L13935.7895,-3608.1932L13935.8597,-3607.8999L13935.8795,-3607.8335L13935.8597,-3607.6332L13935.8093,-3607.4333"/>
<path content="AP030,1,28,1,0,15,1,8,JPN" xlink:title="AP030" d="M13933.226,-3610.8116L13933.9508,-3609.6409L13934.5703,-3608.3363L13935.8093,-3607.4333"/>
<path content="AP030,1,28,1,0,15,1,8,JPN" xlink:title="AP030" d="M13953.2501,-3607.177L13954.9332,-3607.3944L13955.9067,-3607.6843L13956.6147,-3608.6262L13957.0312,-3609.0471"/>
<path content="AP030,1,28,1,0,15,1,8,JPN" xlink:title="AP030" d="M13950.8606,-3609.206L13952.0981,-3607.9567L13952.1484,-3607.5432L13952.1561,-3607.4852L13952.2598,-3607.4562L13953.2501,-3607.177"/>
<path content="AP030,1,28,1,0,15,1,8,JPN" xlink:title="AP030" d="M13927.9495,-3606.9866L13928.7613,-3607.7389L13929.5593,-3608.1532"/>
<path content="AP030,1,28,1,0,15,1,8,JPN" xlink:title="AP030" d="M13930.5878,-3609.483L13930.9448,-3608.7002L13931.1295,-3606.7467"/>
<path content="AP030,1,28,1,0,16,1,8,JPN" xlink:title="AP030" d="M13929.5593,-3608.1532L13930.7404,-3606.8932L13930.8807,-3606.8199L13931.1295,-3606.7467"/>
<path content="AP030,1,28,1,0,15,1,8,JPN" xlink:title="AP030" d="M13950.8606,-3609.206L13950.9323,-3608.3187L13950.9491,-3608.1192L13951.1795,-3606.6933"/>
<path content="AP030,1,28,1,0,14,1,8,JPN" xlink:title="AP030" d="M13948.7396,-3608.2268L13950.1999,-3607L13950.56,-3606.9267L13950.9293,-3606.8401L13951.1795,-3606.6933"/>
<path content="AP030,1,28,1,0,14,1,8,JPN" xlink:title="AP030" d="M13922.6105,-3608.9268L13922.9507,-3608.6933L13923.2407,-3608.4801L13923.3597,-3608.4068L13923.6984,-3608.2253L13923.97,-3608.0799L13924.2004,-3607.8999L13924.6094,-3607.4333L13925.0793,-3607.0534L13925.1801,-3607L13925.4501,-3606.8401L13925.8606,-3606.6799L13926.1307,-3606.6399L13926.3107,-3606.6601L13927.0401,-3606.9466L13927.2202,-3607L13927.5406,-3607.0202L13927.5604,-3607.0202L13927.9495,-3606.9866"/>
<path content="AP030,1,28,1,0,15,1,8,JPN" xlink:title="AP030" d="M13940.8295,-3606.4999L13942.9657,-3607.5729L13944.1833,-3608.7357L13945.2896,-3610.2905L13945.6802,-3610.8398"/>
<path content="AP030,1,28,1,0,14,1,8,JPN" xlink:title="AP030" d="M13937.6099,-3612.7468L13937.6999,-3612.5866L13937.7899,-3612.4268L13937.8296,-3612.2601L13937.8998,-3611.8668L13938.06,-3611.2732L13938.0798,-3611.2L13938.1805,-3611.0199L13938.3102,-3610.82L13938.4506,-3610.6602L13938.6307,-3610.5331L13938.6795,-3610.4401L13938.7695,-3610.3001L13938.8596,-3610.1532L13939.0396,-3609.9934L13939.36,-3609.7599L13939.65,-3609.6134L13939.7202,-3609.5402L13939.9307,-3609.38L13940.1505,-3609.1469L13940.2405,-3608.9134L13940.4694,-3608.4599L13940.7394,-3608.1333L13940.86,-3608.0132L13940.8096,-3607.5802L13940.7898,-3607.4001L13940.8295,-3606.4999"/>
<path content="AP030,1,28,1,0,15,1,8,JPN" xlink:title="AP030" d="M13951.68,-3606.3732L13952.8641,-3606.979L13953.2501,-3607.177"/>
<path content="AP030,1,28,1,0,14,1,8,JPN" xlink:title="AP030" d="M13951.1795,-3606.6933L13951.68,-3606.3732"/>
<path content="AP030,1,28,1,0,14,1,8,JPN" xlink:title="AP030" d="M13940.8295,-3606.4999L13940.8798,-3606.0665"/>
<path content="AP030,1,28,1,0,16,1,8,JPN" xlink:title="AP030" d="M13931.1295,-3606.7467L13931.6498,-3606.6799L13932.1106,-3606.62L13932.2205,-3606.5533L13932.8796,-3606.0268"/>
<path content="AP030,1,28,1,0,15,1,8,JPN" xlink:title="AP030" d="M13922.6105,-3608.9268L13922.2656,-3607.8156L13922.1649,-3607.4898L13923.8907,-3606.2439L13925.0061,-3605.9948L13925.8179,-3605.7457"/>
<path content="AP030,1,28,1,0,15,1,8,JPN" xlink:title="AP030" d="M13926.7319,-3605.2475L13927.0172,-3605.6572L13927.5436,-3606.4102L13927.9495,-3606.9866"/>
<path content="AP030,1,28,1,0,15,1,8,JPN" xlink:title="AP030" d="M13926.0208,-3605.0812L13926.6647,-3605.2319L13926.7319,-3605.2475"/>
<path content="AP030,1,28,1,0,14,1,8,JPN" xlink:title="AP030" d="M13927.9495,-3606.9866L13928.2196,-3606.8932L13928.54,-3606.7467L13928.6804,-3606.5533L13928.9505,-3606.1199L13929.0405,-3605.9933L13929.4296,-3605.7598L13929.5593,-3605.6747L13930.3604,-3605.1468L13930.5603,-3605.0732L13930.6503,-3604.9866L13930.8304,-3604.7333"/>
<path content="AP030,1,28,1,0,15,1,8,JPN" xlink:title="AP030" d="M13926.7319,-3605.2475L13928.0502,-3605.2475L13929.0649,-3604.9152L13929.776,-3604.6661L13930.2826,-3604.583L13930.8304,-3604.7333"/>
<path content="AP030,1,28,1,0,14,1,8,JPN" xlink:title="AP030" d="M13930.8304,-3604.7333L13930.9494,-3604.6066L13931.0196,-3604.5532"/>
<path content="AP030,1,28,1,0,15,1,8,JPN" xlink:title="AP030" d="M13921.875,-3604.8321L13922.4701,-3604.8321L13922.9767,-3604.6661L13923.1796,-3604.2507L13923.5855,-3604.1676L13924.1943,-3604.583L13925.412,-3605.0812L13926.0208,-3605.0812"/>
<path content="AP030,1,28,1,0,15,1,8,JPN" xlink:title="AP030" d="M13932.8796,-3606.0268L13933.1589,-3604.9137L13932.872,-3604.3518L13932.7698,-3604.1534"/>
<path content="AP030,1,28,1,0,14,1,8,JPN" xlink:title="AP030" d="M13931.0196,-3604.5532L13931.3293,-3604.4601L13931.5598,-3604.3331L13931.7703,-3604.2801L13932.0404,-3604.2999L13932.2403,-3604.2999L13932.4295,-3604.3732L13932.7698,-3604.1534"/>
<path content="AP030,1,28,1,0,14,1,8,JPN" xlink:title="AP030" d="M13940.8798,-3606.0665L13940.77,-3605.9734L13940.77,-3605.4333L13940.6097,-3605.0934L13940.6097,-3605.0533L13940.5197,-3604.7466L13940.5197,-3604.5132L13940.595,-3604.1399"/>
<path content="AP030,1,28,1,0,15,1,8,JPN" xlink:title="AP030" d="M13935.8093,-3607.4333L13936.3419,-3606.525L13937.1384,-3605.7278L13938.2889,-3604.641L13940.595,-3604.1399"/>
<path content="AP030,1,28,1,0,14,1,8,JPN" xlink:title="AP030" d="M13931.0196,-3604.5532L13931.1798,-3604.4601L13931.81,-3603.92L13931.8298,-3603.92"/>
<path content="AP030,1,28,1,0,14,1,8,JPN" xlink:title="AP030" d="M13932.7698,-3604.1534L13932.8293,-3604.1L13933.1299,-3604.0268L13933.3099,-3603.9398L13933.5602,-3603.7933"/>
<path content="AP030,1,28,1,0,15,1,8,JPN" xlink:title="AP030" d="M13953.2501,-3607.177L13954.6616,-3606.5311L13955.5405,-3606.1321L13956.6589,-3605.1033L13957.0313,-3604.7422"/>
<path content="AP030,1,28,1,0,15,1,8,JPN" xlink:title="AP030" d="M13947.7173,-3603.7697L13949.2569,-3604.1676L13950.6775,-3604.9152L13951.1551,-3605.6091L13951.68,-3606.3732"/>
<path content="AP030,1,28,1,0,15,1,8,JPN" xlink:title="AP030" d="M13948.0194,-3608.86L13947.8943,-3608.3725L13947.7844,-3607.9418L13948.053,-3606.5681L13948.2635,-3605.7049L13947.2977,-3605.4958L13947.3053,-3605.1418L13947.7173,-3603.7697"/>
<path content="AP030,1,28,1,0,14,1,8,JPN" xlink:title="AP030" d="M13940.8798,-3606.0665L13940.9302,-3605.9734L13941.33,-3604.66L13941.3605,-3604.5868L13941.5207,-3604.1L13941.5405,-3604.0268L13941.5604,-3603.9734L13941.6504,-3603.7399"/>
<path content="AP030,1,28,1,0,14,1,8,JPN" xlink:title="AP030" d="M13931.8298,-3603.92L13932.1304,-3603.8467L13932.4493,-3603.7399L13932.7194,-3603.6133L13932.93,-3603.6133L13933.5602,-3603.7933"/>
<path content="AP030,1,28,1,0,15,1,8,JPN" xlink:title="AP030" d="M13941.6504,-3603.7399L13943.5745,-3603.1712L13944.4351,-3603.1712"/>
<path content="AP030,1,28,1,0,15,1,8,JPN" xlink:title="AP030" d="M13944.4351,-3603.1712L13945.401,-3603.1712L13947.7173,-3603.7697"/>
<path content="AP030,1,28,1,0,14,1,8,JPN" xlink:title="AP030" d="M13940.595,-3604.1399L13940.6097,-3604.0668L13940.6296,-3604.0134L13940.6494,-3603.8132L13940.6494,-3603.6865L13940.6296,-3603.36L13940.6296,-3602.9999"/>
<path content="AP030,1,28,1,0,16,1,8,JPN" xlink:title="AP030" d="M13932.8796,-3606.0268L13933.49,-3605.6534L13934.2194,-3605.1998L13934.5596,-3604.9667L13934.8801,-3604.66L13935.08,-3604.5132L13935.1166,-3604.4979L13935.3302,-3604.4067L13935.6293,-3604.4067L13935.9299,-3604.4266L13936.0596,-3604.4067L13936.7203,-3604.2599L13937.3093,-3604.0466L13937.3993,-3603.9932L13937.7899,-3603.4866L13938.0203,-3603.0201L13938.0554,-3602.94"/>
<path content="AP030,1,28,1,0,14,1,8,JPN" xlink:title="AP030" d="M13933.5602,-3603.7933L13933.9005,-3603.5934L13934.1995,-3603.4534L13934.3994,-3603.4L13934.8099,-3603.22L13935.1807,-3603.3066L13935.4507,-3603.3268L13936.4502,-3603.3798L13937.3993,-3602.9667L13938.0554,-3602.94"/>
<path content="AP030,1,28,1,0,14,1,8,JPN" xlink:title="AP030" d="M13940.6296,-3602.9999L13940.6097,-3602.8198L13940.5594,-3602.5867"/>
<path content="AP030,1,28,1,0,14,1,8,JPN" xlink:title="AP030" d="M13938.0554,-3602.94L13938.3804,-3602.9266L13938.4506,-3602.9133L13939.27,-3602.7866L13940.1917,-3602.6436L13940.5594,-3602.5867"/>
<path content="AP030,1,28,1,0,15,1,8,JPN" xlink:title="AP030" d="M13947.7173,-3603.7697L13947.113,-3602.5024"/>
<path content="AP030,1,28,1,0,15,1,8,JPN" xlink:title="AP030" d="M13944.4351,-3603.1712L13945.0775,-3602.5551L13946.5805,-3602.4956L13947.113,-3602.5024"/>
<path content="AP030,1,28,1,0,14,1,8,JPN" xlink:title="AP030" d="M13940.5594,-3602.5867L13940.9302,-3602.4601L13941.3605,-3602.3201"/>
<path content="AP030,1,28,1,0,14,1,8,JPN" xlink:title="AP030" d="M13940.6296,-3602.9999L13941.1301,-3602.7466L13941.8793,-3602.3201"/>
<path content="AP030,1,28,1,0,14,1,8,JPN" xlink:title="AP030" d="M13941.3605,-3602.3201L13941.5207,-3602.2999L13941.8793,-3602.3201"/>
<path content="AP030,1,28,1,0,14,1,8,JPN" xlink:title="AP030" d="M13941.6504,-3603.7399L13941.7892,-3603.3798L13942.54,-3602.1935L13942.8101,-3601.8131"/>
<path content="AP030,1,28,1,0,14,1,8,JPN" xlink:title="AP030" d="M13941.8793,-3602.3201L13942.3096,-3602.0466L13942.63,-3601.8867L13942.8101,-3601.8131"/>
<path content="AP030,1,28,1,0,16,1,8,JPN" xlink:title="AP030" d="M13938.0554,-3602.94L13938.1805,-3602.66L13938.2202,-3602.2598L13938.2904,-3601.72"/>
<path content="AP030,1,28,1,0,14,1,8,JPN" xlink:title="AP030" d="M13951.68,-3606.3732L13951.9501,-3606.1932L13952.2202,-3605.92L13952.3605,-3605.7732L13952.8305,-3605.22L13953.3798,-3604.5868L13953.7399,-3604.1L13954.3106,-3603.4L13954.3594,-3603.3466L13954.6997,-3602.9469L13954.7699,-3602.8732L13955.1102,-3602.5333L13955.4001,-3601.9932L13955.5206,-3601.8665L13955.7404,-3601.6335"/>
<path content="AP030,1,28,1,0,15,1,8,JPN" xlink:title="AP030" d="M13947.113,-3602.5024L13948.1873,-3602.1225L13951.1002,-3601.8047L13952.6474,-3601.9028L13953.5294,-3601.3626L13954.6844,-3601.5041L13955.7404,-3601.6335"/>
<path content="AP030,1,28,1,0,14,1,8,JPN" xlink:title="AP030" d="M13941.3605,-3602.3201L13941.3,-3601.821L13941.21,-3601.353"/>
<path content="AP030,1,28,1,0,14,1,8,JPN" xlink:title="AP030" d="M13942.8101,-3601.8131L13943.0801,-3601.6132L13943.5593,-3601.2531L13943.6295,-3601.2199"/>
<path content="AP030,1,28,1,0,15,1,8,JPN" xlink:title="AP030" d="M13956.2897,-3601.0399L13956.4377,-3601.8147L13957.0312,-3602.4742"/>
<path content="AP030,1,28,1,0,14,1,8,JPN" xlink:title="AP030" d="M13955.7404,-3601.6335L13956.2897,-3601.0399"/>
<path content="AP030,1,28,1,0,15,1,8,JPN" xlink:title="AP030" d="M13947.113,-3602.5024L13947.1985,-3600.6145L13947.0566,-3599.6796"/>
<path content="AP030,1,28,1,0,15,1,8,JPN" xlink:title="AP030" d="M13945.6802,-3599.5598L13947.0566,-3599.6796"/>
<path content="AP030,1,28,1,0,14,1,8,JPN" xlink:title="AP030" d="M13943.6295,-3601.2199L13944.31,-3600.7668L13945.0394,-3600.3201L13945.4697,-3599.8333L13945.6802,-3599.5598"/>
<path content="AP030,1,28,1,0,15,1,8,JPN" xlink:title="AP030" d="M13943.9545,-3599.2786L13945.6802,-3599.5598"/>
<path content="AP030,1,28,1,0,15,1,8,JPN" xlink:title="AP030" d="M13943.6295,-3601.2199L13943.9545,-3599.2786"/>
<path content="AP030,1,28,1,0,14,1,8,JPN" xlink:title="AP030" d="M13940.7394,-3600.1732L13940.4007,-3599.5068L13940.3793,-3599.4667L13940.2893,-3599.2531"/>
<path content="AP030,1,28,1,0,14,1,8,JPN" xlink:title="AP030" d="M13940.5594,-3602.5867L13940.3595,-3601.7933L13940.3595,-3601.7735L13940.3107,-3601.4534L13940.2206,-3601.2531L13939.9002,-3600.7668L13939.9902,-3600.3201L13940.0192,-3600.0668L13940.0604,-3599.7398L13940.1505,-3599.5266L13940.2893,-3599.2531"/>
<path content="AP030,1,28,1,0,15,1,8,JPN" xlink:title="AP030" d="M13933.0872,-3599.1276L13933.8867,-3600.2014L13934.4513,-3601.0357L13935.0708,-3601.5163L13936.8073,-3601.8551L13938.2904,-3601.72"/>
<path content="AP030,1,28,1,0,15,1,8,JPN" xlink:title="AP030" d="M13931.8298,-3603.92L13931.4529,-3603.0796L13930.7449,-3602.2038L13929.982,-3601.6418L13929.9438,-3601.1299L13931.3126,-3600.5981L13932.3441,-3599.9043L13933.0872,-3599.1276"/>
<path content="AP030,1,28,1,0,15,1,8,JPN" xlink:title="AP030" d="M13955.8517,-3598.6862L13956.6757,-3599.3156L13956.601,-3599.6517L13956.2897,-3601.0399"/>
<path content="AP030,1,28,1,0,15,1,8,JPN" xlink:title="AP030" d="M13933.1467,-3598.5382L13933.0872,-3599.1276"/>
<path content="AP030,1,28,1,0,14,1,8,JPN" xlink:title="AP030" d="M13945.6802,-3599.5598L13946.2906,-3598.6065L13946.4905,-3598.2597L13946.5673,-3598.1166"/>
<path content="AP030,1,28,1,0,15,1,8,JPN" xlink:title="AP030" d="M13947.0566,-3599.6796L13946.8979,-3598.6427L13946.7194,-3597.8333"/>
<path content="AP030,1,28,1,0,14,1,8,JPN" xlink:title="AP030" d="M13946.5673,-3598.1166L13946.7194,-3597.8333"/>
<path content="AP030,1,28,1,0,16,1,8,JPN" xlink:title="AP030" d="M13945.6298,-3597.7655L13945.7,-3597.797L13946.15,-3597.977L13946.5673,-3598.1166"/>
<path content="AP030,1,28,1,0,15,1,8,JPN" xlink:title="AP030" d="M13943.9545,-3599.2786L13945.372,-3598.0469L13945.6298,-3597.7655"/>
<path content="AP030,1,28,1,0,15,1,8,JPN" xlink:title="AP030" d="M13953.2135,-3598.5203L13952.301,-3598.3543L13951.3885,-3597.9389L13950.3815,-3597.7027"/>
<path content="AP030,1,28,1,0,15,1,8,JPN" xlink:title="AP030" d="M13947.0566,-3599.6796L13948.764,-3599.8077L13949.6933,-3599.308L13950.3815,-3597.7027"/>
<path content="AP030,1,28,1,0,14,1,8,JPN" xlink:title="AP030" d="M13946.7194,-3597.8333L13946.8094,-3597.6131L13946.9299,-3597.3598"/>
<path content="AP030,1,28,1,0,15,1,8,JPN" xlink:title="AP030" d="M13926.0208,-3605.0812L13926.2238,-3604.1676L13926.123,-3603.6694L13925.9201,-3603.1712L13926.123,-3602.673L13926.123,-3602.1744L13926.7319,-3601.7593L13927.3407,-3601.2611L13927.3407,-3599.9321L13927.3407,-3598.8525L13927.4414,-3598.188L13927.5436,-3597.3576"/>
<path content="AP030,1,28,1,0,14,1,8,JPN" xlink:title="AP030" d="M13956.2897,-3601.0399L13956.3095,-3601.0201L13956.72,-3600.5001L13956.8604,-3600.3201L13956.9901,-3600.1534L13957.0312,-3600.1005"/>
<path content="AP030,1,28,1,0,15,1,8,JPN" xlink:title="AP030" d="M13940.6998,-3596.9467L13942.4118,-3597.7581L13943.1717,-3598.4764L13943.9545,-3599.2786"/>
<path content="AP030,1,28,1,0,14,1,8,JPN" xlink:title="AP030" d="M13940.2893,-3599.2531L13940.3107,-3598.7667L13940.3107,-3598.4066L13940.3107,-3598.3868L13940.6998,-3596.9467"/>
<path content="AP030,1,28,1,0,15,1,8,JPN" xlink:title="AP030" d="M13946.9299,-3597.3598L13946.434,-3596.8876"/>
<path content="AP030,1,28,1,0,15,1,8,JPN" xlink:title="AP030" d="M13945.6298,-3597.7655L13946.434,-3596.8876"/>
<path content="AP030,1,28,1,0,15,1,8,JPN" xlink:title="AP030" d="M13950.3815,-3597.7027L13949.7055,-3597.5441L13950.0687,-3596.3612"/>
<path content="AP030,1,28,1,0,14,1,8,JPN" xlink:title="AP030" d="M13946.9299,-3597.3598L13946.9894,-3597.0932L13947.02,-3597.0398L13947.0596,-3596.8597L13947.2,-3596.2601"/>
<path content="AP030,1,28,1,0,15,1,8,JPN" xlink:title="AP030" d="M13946.434,-3596.8876L13947.2,-3596.2601"/>
<path content="AP030,1,28,1,0,15,1,8,JPN" xlink:title="AP030" d="M13933.1467,-3598.5382L13933.2993,-3598.0553L13934.1721,-3597.4758L13934.787,-3596.5168L13936.3663,-3596.2029"/>
<path content="AP030,1,28,1,0,16,1,8,JPN" xlink:title="AP030" d="M13938.2904,-3601.72L13938.3102,-3601.6132L13938.6307,-3600.8598L13938.6993,-3600.6599L13938.8107,-3600.3201L13938.7894,-3599.7932L13938.7207,-3599.58L13938.4705,-3599.0532L13938.1805,-3598.4264L13938.1104,-3598.2998L13938.0402,-3598.0133L13938.0203,-3597.8466L13938.06,-3596.4268L13938.1088,-3596.0339"/>
<path content="AP030,1,28,1,0,15,1,8,JPN" xlink:title="AP030" d="M13936.3663,-3596.2029L13937.7792,-3596.0583L13938.1088,-3596.0339"/>
<path content="AP030,1,28,1,0,15,1,8,JPN" xlink:title="AP030" d="M13938.8718,-3595.9339L13940.6998,-3596.9467"/>
<path content="AP030,1,28,1,0,15,1,8,JPN" xlink:title="AP030" d="M13938.1088,-3596.0339L13938.7497,-3595.9862L13938.8718,-3595.9339"/>
<path content="AP030,1,28,1,0,16,1,8,JPN" xlink:title="AP030" d="M13938.1088,-3596.0339L13938.2004,-3595.8134"/>
<path content="AP030,1,28,1,0,14,1,8,JPN" xlink:title="AP030" d="M13940.1306,-3595.7932L13940.6097,-3596.4397L13940.6296,-3596.4798L13940.7196,-3596.6198L13940.7196,-3596.7865L13940.6998,-3596.9467"/>
<path content="AP030,1,28,1,0,14,1,8,JPN" xlink:title="AP030" d="M13939.8804,-3595.5067L13939.9384,-3595.5738L13940.1306,-3595.7932"/>
<path content="AP030,1,28,1,0,15,1,8,JPN" xlink:title="AP030" d="M13938.8718,-3595.9339L13939.5035,-3595.6665L13939.8804,-3595.5067"/>
<path content="AP030,1,28,1,0,15,1,8,JPN" xlink:title="AP030" d="M13956.8924,-3595.293L13957.0312,-3595.3542"/>
<path content="AP030,1,28,1,0,15,1,8,JPN" xlink:title="AP030" d="M13955.8517,-3598.6862L13956.012,-3597.2149L13956.514,-3596.2383L13956.8924,-3595.293"/>
<path content="AP030,1,28,1,0,15,1,8,JPN" xlink:title="AP030" d="M13929.8767,-3595.2812L13929.4708,-3595.8363L13929.7928,-3596.7075L13929.7974,-3596.7201L13930.1636,-3597.7093L13930.6351,-3598.3063L13931.4529,-3598.5538L13932.5226,-3598.3326L13933.1467,-3598.5382"/>
<path content="AP030,1,28,1,0,15,1,8,JPN" xlink:title="AP030" d="M13927.5436,-3597.3576L13928.9642,-3596.5271L13929.8767,-3595.2812"/>
<path content="AP030,1,28,1,0,15,1,8,JPN" xlink:title="AP030" d="M13956.2347,-3595.0432L13956.8924,-3595.293"/>
<path content="AP030,1,28,1,0,14,1,8,JPN" xlink:title="AP030" d="M13939.8804,-3595.5067L13939.74,-3595.3266L13939.6805,-3595.0932L13939.5905,-3594.8334"/>
<path content="AP030,1,28,1,0,16,1,8,JPN" xlink:title="AP030" d="M13938.2004,-3595.8134L13938.4705,-3595.4865L13938.7665,-3595.3217L13939.3097,-3595.0199L13939.5905,-3594.8334"/>
<path content="AP030,1,28,1,0,16,1,8,JPN" xlink:title="AP030" d="M13941.7614,-3594.6498L13942.14,-3594.975L13942.51,-3595.134L13942.65,-3595.365L13942.86,-3595.589L13943.17,-3595.837L13943.47,-3595.956L13943.63,-3596.136L13943.8,-3596.459L13944.18,-3596.845L13944.69,-3597.231L13945.09,-3597.523L13945.6298,-3597.7655"/>
<path content="AP030,1,28,1,0,15,1,8,JPN" xlink:title="AP030" d="M13940.1306,-3595.7932L13941.2109,-3594.8692L13941.7614,-3594.6498"/>
<path content="AP030,1,28,1,0,15,1,8,JPN" xlink:title="AP030" d="M13953.8498,-3594.3394L13954.5731,-3594.4138L13956.2347,-3595.0432"/>
<path content="AP030,1,28,1,0,15,1,8,JPN" xlink:title="AP030" d="M13950.0687,-3596.3612L13951.0757,-3596.2048L13952.0065,-3595.9869L13952.7359,-3595.734L13953.5172,-3594.8593L13953.8498,-3594.3394"/>
<path content="AP030,1,28,1,0,15,1,8,JPN" xlink:title="AP030" d="M13930.7907,-3593.6203L13931.16,-3593.7866L13932.2769,-3594.2894L13932.8369,-3594.5412L13934.1599,-3595.2637L13935.3073,-3595.9862L13936.3663,-3596.2029"/>
<path content="AP030,1,28,1,0,15,1,8,JPN" xlink:title="AP030" d="M13929.8767,-3595.2812L13930.7907,-3593.6203"/>
<path content="AP030,1,28,1,0,16,1,8,JPN" xlink:title="AP030" d="M13940.5801,-3593.5706L13941.0953,-3594.0536L13941.4367,-3594.3709L13941.7614,-3594.6498"/>
<path content="AP030,1,28,1,0,16,1,8,JPN" xlink:title="AP030" d="M13939.5905,-3594.8334L13939.74,-3594.733L13939.9902,-3594.5332L13940.2695,-3594.2066L13940.4495,-3593.8465L13940.5801,-3593.5706"/>
<path content="AP030,1,28,1,0,15,1,8,JPN" xlink:title="AP030" d="M13950.0687,-3596.3612L13949.2569,-3595.0321L13949.2004,-3592.9131"/>
<path content="AP030,1,28,1,0,14,1,8,JPN" xlink:title="AP030" d="M13947.2,-3596.2601L13947.4304,-3595.1466L13947.4899,-3594.9467L13947.7905,-3594.4267L13947.8104,-3594.4065L13947.8607,-3594.3531L13948.1293,-3594.12L13948.3795,-3593.8667L13948.6496,-3593.5398L13948.97,-3593.1801L13949.1501,-3592.9665L13949.2004,-3592.9131"/>
<path content="AP030,1,28,1,0,15,1,8,JPN" xlink:title="AP030" d="M13956.2347,-3595.0432L13957.0312,-3594.0786"/>
<path content="AP030,1,28,1,0,15,1,8,JPN" xlink:title="AP030" d="M13949.4507,-3592.6067L13949.8016,-3593.2743L13951.0101,-3593.2892L13952.2141,-3593.5005L13952.6566,-3593.5062L13953.8498,-3594.3394"/>
<path content="AP030,1,28,1,0,14,1,8,JPN" xlink:title="AP030" d="M13949.2004,-3592.9131L13949.4507,-3592.6067"/>
<path content="AP030,1,28,1,0,15,1,8,JPN" xlink:title="AP030" d="M13941.7614,-3594.6498L13943.5043,-3593.9548L13945.4025,-3593.3891L13946.907,-3593.1725L13948.1674,-3592.9916L13948.764,-3592.0288"/>
<path content="AP030,1,28,1,0,14,1,8,JPN" xlink:title="AP030" d="M13949.4507,-3592.6067L13949.8306,-3591.9201"/>
<path content="AP030,1,28,1,0,15,1,8,JPN" xlink:title="AP030" d="M13948.764,-3592.0288L13949.8306,-3591.9201"/>
<path content="AP030,1,28,1,0,14,1,8,JPN" xlink:title="AP030" d="M13949.8306,-3591.9201L13949.8596,-3591.8865"/>
<path content="AP030,1,28,1,0,14,1,8,JPN" xlink:title="AP030" d="M13955.5405,-3591.74L13956.3797,-3592.2466L13956.6299,-3592.3332L13956.8604,-3592.3531L13957.0313,-3592.363"/>
<path content="AP030,1,28,1,0,14,1,8,JPN" xlink:title="AP030" d="M13949.8596,-3591.8865L13950.0854,-3591.5909"/>
<path content="AP030,1,28,1,0,16,1,8,JPN" xlink:title="AP030" d="M13940.5801,-3593.5706L13940.6799,-3593.3598L13940.6998,-3593.3067L13940.8798,-3592.8734L13941.1301,-3592.4801L13941.5207,-3592.12L13941.8793,-3591.8331L13942.1494,-3591.6866L13942.5201,-3591.5264L13942.7277,-3591.4658"/>
<path content="AP030,1,28,1,0,14,1,8,JPN" xlink:title="AP030" d="M13955.5405,-3591.74L13955.6107,-3591.7198L13955.7007,-3591.6531L13955.8304,-3591.56L13955.9738,-3591.518L13956.0806,-3591.4867L13956.5796,-3591.4333L13956.6299,-3591.4333"/>
<path content="AP030,1,28,1,0,14,1,8,JPN" xlink:title="AP030" d="M13949.9496,-3591.3597L13950.0854,-3591.5909"/>
<path content="AP030,1,28,1,0,14,1,8,JPN" xlink:title="AP030" d="M13949.8596,-3591.8865L13949.9496,-3591.4333L13949.9496,-3591.3597"/>
<path content="AP030,1,28,1,0,15,1,8,JPN" xlink:title="AP030" d="M13943.4296,-3591.2865L13944.3787,-3591.9563L13945.0027,-3592.0776L13945.2789,-3592.1314L13945.9534,-3591.9582L13946.3394,-3591.8591L13946.4401,-3591.8766L13946.9742,-3591.9708L13947.8409,-3592.1234L13948.764,-3592.0288"/>
<path content="AP030,1,28,1,0,15,1,8,JPN" xlink:title="AP030" d="M13942.7277,-3591.4658L13943.4296,-3591.2865"/>
<path content="AP030,1,28,1,0,16,1,8,JPN" xlink:title="AP030" d="M13942.7277,-3591.4658L13943.0206,-3591.3799L13943.4296,-3591.2865"/>
<path content="AP030,1,28,1,0,14,1,8,JPN" xlink:title="AP030" d="M13950.0854,-3591.5909L13950.1297,-3591.6664L13950.2701,-3591.9201L13950.8102,-3591.9201L13951.0193,-3591.9201L13951.4297,-3591.8465L13951.8295,-3591.74L13952.3102,-3591.5398L13952.4506,-3591.5264L13952.4902,-3591.5264L13952.6993,-3591.5066L13953.0396,-3591.4333L13953.1097,-3591.4131L13953.45,-3591.2865L13953.7201,-3591.2331L13953.8803,-3591.2197L13954.1306,-3591.2331L13955.0797,-3591.6134L13955.5405,-3591.74"/>
<path content="AP030,1,28,1,0,15,1,8,JPN" xlink:title="AP030" d="M13922.9706,-3591.053L13923.0789,-3591.8762L13924.4995,-3592.7067L13924.9054,-3593.3712L13925.8179,-3594.4508L13926.326,-3595.5303L13926.7319,-3596.5271L13926.9348,-3597.1085L13927.5436,-3597.3576"/>
<path content="AP030,1,28,1,0,15,1,8,JPN" xlink:title="AP030" d="M13932.1747,-3590.9721L13933.1161,-3591.2743L13933.4427,-3591.3795L13935.1501,-3593.0561L13935.321,-3593.1835L13937.5809,-3594.8601L13938.2004,-3595.8134"/>
<path content="AP030,1,28,1,0,15,1,8,JPN" xlink:title="AP030" d="M13930.7907,-3593.6203L13931.9061,-3591.4612L13932.1747,-3590.9721"/>
<path content="AP030,1,28,1,0,14,1,8,JPN" xlink:title="AP030" d="M13921.875,-3591.407L13921.9009,-3591.4112L13922.0398,-3591.4333L13922.1298,-3591.3467L13922.1497,-3591.1667L13922.2,-3591.0931L13922.2397,-3591L13922.3099,-3590.9466L13922.4899,-3590.9267L13922.7203,-3590.9267L13922.9706,-3591.053"/>
<path content="AP030,1,28,1,0,15,1,8,JPN" xlink:title="AP030" d="M13956.6299,-3591.4333L13957.0312,-3591.2869"/>
<path content="AP030,1,28,1,0,16,1,8,JPN" xlink:title="AP030" d="M13940.5801,-3593.5706L13940.266,-3593.3101L13939.9902,-3593.0401L13939.7705,-3592.8734L13939.5798,-3592.6933L13939.3799,-3592.4999L13939.27,-3592.4065L13938.9297,-3592.0132L13938.7695,-3591.7931L13938.6993,-3591.6332L13938.6993,-3591.56L13938.7207,-3591.3265L13938.8107,-3590.86L13938.8809,-3590.5746"/>
<path content="AP030,1,28,1,0,15,1,8,JPN" xlink:title="AP030" d="M13938.8809,-3590.5746L13940.0406,-3590.3877L13942.0868,-3591.0278L13942.7277,-3591.4658"/>
<path content="AP030,1,28,1,0,14,1,8,JPN" xlink:title="AP030" d="M13948.6496,-3590.0997L13948.6725,-3590.1173L13948.7259,-3590.16L13949.0402,-3590.4064L13949.4904,-3590.7867L13949.7696,-3591.0198L13949.8306,-3591.1266L13949.9298,-3591.2731L13949.9496,-3591.3597"/>
<path content="AP030,1,28,1,0,14,1,8,JPN" xlink:title="AP030" d="M13948.1094,-3590.0799L13948.4695,-3589.9731L13948.5397,-3589.9933L13948.6496,-3590.0997"/>
<path content="AP030,1,28,1,0,14,1,8,JPN" xlink:title="AP030" d="M13945.7352,-3589.5592L13945.8801,-3589.6332L13946.1105,-3589.74L13946.3104,-3589.8464L13946.7697,-3590.1733L13947.29,-3590.5331L13947.4075,-3590.4274L13947.6303,-3590.2267L13947.7005,-3590.1932L13948.1094,-3590.0799"/>
<path content="AP030,1,28,1,0,16,1,8,JPN" xlink:title="AP030" d="M13943.4296,-3591.2865L13943.9697,-3591.1999L13944.3298,-3591.0931L13944.6503,-3590.9267L13944.9005,-3590.7665L13945.1294,-3590.4999L13945.5399,-3589.8666L13945.7352,-3589.5592"/>
<path content="AP030,1,28,1,0,15,1,8,JPN" xlink:title="AP030" d="M13932.1747,-3590.9721L13932.8201,-3589.8003L13933.7952,-3589.6523L13934.4254,-3589.5565"/>
<path content="AP030,1,28,1,0,14,1,8,JPN" xlink:title="AP030" d="M13950.0854,-3591.5909L13950.1801,-3591.4665L13950.47,-3590.86L13950.6302,-3590.48L13950.6805,-3590.3866L13950.7706,-3590.2599L13950.8224,-3590.2L13950.8804,-3590.1333L13951.1093,-3590.0131L13951.68,-3589.6866L13951.7197,-3589.653L13952.0798,-3589.4665"/>
<path content="AP030,1,28,1,0,14,1,8,JPN" xlink:title="AP030" d="M13939.5905,-3594.8334L13939.4302,-3594.3733L13939.18,-3593.6131L13939.18,-3593.5932L13939.0793,-3593.5066L13938.7894,-3593.3468L13938.5406,-3593.2732L13938.2401,-3592.6933L13937.8998,-3591.9933L13937.8296,-3591.8465L13937.5198,-3591.1465L13937.3596,-3590.9267L13937.3093,-3590.8733L13937.2696,-3590.8199L13937.2696,-3590.6597L13937.3795,-3590.5331L13937.4496,-3590.4598L13937.5229,-3590.2859L13937.5397,-3590.2466L13937.5595,-3590.1531L13937.5595,-3590.0997L13937.5595,-3589.8666L13937.6099,-3589.74L13937.7899,-3589.4531L13937.7899,-3589.2864"/>
<path content="AP030,1,28,1,0,15,1,8,JPN" xlink:title="AP030" d="M13934.4254,-3589.5565L13937.7899,-3589.2864"/>
<path content="AP030,1,28,1,0,15,1,8,JPN" xlink:title="AP030" d="M13948.1094,-3590.0799L13947.6639,-3589.0507L13947.5204,-3588.1332"/>
<path content="AP030,1,28,1,0,16,1,8,JPN" xlink:title="AP030" d="M13945.7352,-3589.5592L13945.9167,-3589.2754L13945.9305,-3589.2532L13946.2006,-3588.9866L13946.5195,-3588.7466L13947.0596,-3588.4266L13947.5204,-3588.1332"/>
<path content="AP030,1,28,1,0,16,1,8,JPN" xlink:title="AP030" d="M13938.8809,-3590.5746L13938.9297,-3590.3732L13938.9496,-3590.1333L13938.9496,-3589.9731L13938.8306,-3589.7064L13938.7405,-3589.4665L13938.7207,-3589.2731L13938.7405,-3589.093L13938.7207,-3588.8599L13938.6993,-3588.66L13938.6795,-3588.4998L13938.6307,-3588.3865L13938.5605,-3588.2267L13938.3804,-3588.1199L13938.1805,-3588.0665L13937.8998,-3587.973L13937.8357,-3587.9372"/>
<path content="AP030,1,28,1,0,14,1,8,JPN" xlink:title="AP030" d="M13937.7899,-3589.2864L13937.8098,-3588.8599L13937.8098,-3588.66L13937.7197,-3588.3198L13937.8357,-3587.9372"/>
<path content="AP030,1,28,1,0,15,1,8,JPN" xlink:title="AP030" d="M13954.0405,-3587.413L13954.8141,-3588.0394L13956.3141,-3588.7619L13956.9321,-3589.1953L13957.0312,-3589.2184"/>
<path content="AP030,1,28,1,0,16,1,8,JPN" xlink:title="AP030" d="M13952.0798,-3589.4665L13952.4506,-3589.2864L13952.7206,-3589.1068L13952.9007,-3588.9668L13953.1494,-3588.6932L13953.1998,-3588.6398L13953.4897,-3588.2465L13953.4897,-3588.2267L13953.5599,-3588.1332L13954.0405,-3587.413"/>
<path content="AP030,1,28,1,0,15,1,8,JPN" xlink:title="AP030" d="M13931.1295,-3587.0399L13934.0317,-3589.2559L13934.4254,-3589.5565"/>
<path content="AP030,1,28,1,0,14,1,8,JPN" xlink:title="AP030" d="M13922.9706,-3591.053L13923.0804,-3591.1064L13923.1796,-3591.1064L13923.2895,-3591.0732L13923.3093,-3591.04L13923.2803,-3590.9138L13923.2697,-3590.8733L13923.3093,-3590.8199L13923.3795,-3590.7867L13923.5596,-3590.7867L13923.8602,-3590.6067L13923.8998,-3590.5666L13923.97,-3590.5865L13923.97,-3590.6536L13923.97,-3590.6933L13923.9304,-3590.8398L13924.1501,-3590.9466L13924.2706,-3590.9664L13924.3301,-3590.9267L13924.3607,-3590.86L13924.4293,-3590.7131L13924.7696,-3590.5666L13924.8306,-3590.4999L13924.8306,-3590.44L13924.6994,-3590.353L13924.6506,-3590.2599L13924.6307,-3590.0265L13924.6796,-3589.9532L13924.8993,-3589.8998L13925.1495,-3589.8998L13925.6104,-3589.9399L13925.6805,-3589.8998L13925.7202,-3589.8331L13925.7202,-3589.7064L13925.7706,-3589.653L13926.0803,-3589.5065L13926.1505,-3589.4867L13926.1993,-3589.4531L13926.2207,-3589.36L13926.2405,-3589.2532L13926.2894,-3589.233L13926.3596,-3589.2532L13926.6098,-3589.3799L13926.6998,-3589.3799L13926.9302,-3589.3265L13927.0203,-3589.2731L13927.0798,-3589.18L13927.1103,-3589.04L13927.1103,-3588.8199L13927.15,-3588.7867L13927.2705,-3588.7867L13927.4506,-3588.9133L13927.6093,-3588.9668L13927.7695,-3588.9866L13927.8793,-3588.9668L13927.9694,-3588.9133L13928.0594,-3588.6932L13928.1998,-3588.5532L13928.2898,-3588.48L13928.4698,-3588.3732L13928.5797,-3588.3533L13928.7399,-3588.3198L13928.9505,-3588.2999L13929.0802,-3588.1531L13929.1504,-3588.1199L13929.5197,-3588.0798L13929.5593,-3588.1001L13929.6799,-3588.2797L13929.8096,-3588.4068L13930.1102,-3588.4068L13930.4306,-3588.3732L13930.7007,-3588.0798L13930.7205,-3587.8666L13930.9006,-3587.2532L13930.9494,-3587.1998L13931.1096,-3587.0731L13931.1295,-3587.0399"/>
<path content="AP030,1,28,1,0,14,1,8,JPN" xlink:title="AP030" d="M13942.0807,-3587.0197L13942.4896,-3587.1799L13942.5598,-3587.2334L13943.2404,-3587.8666L13943.2693,-3587.8998L13943.7195,-3588.2599L13944.0796,-3588.5132L13944.6793,-3588.9133L13945.2194,-3589.2532L13945.4498,-3589.4131L13945.7352,-3589.5592"/>
<path content="AP030,1,28,1,0,16,1,8,JPN" xlink:title="AP030" d="M13940.4007,-3587.7598L13940.8798,-3587.6331L13941.4505,-3587.4866L13941.7694,-3587.36L13941.9495,-3587.1799L13942.0807,-3587.0197"/>
<path content="AP030,1,28,1,0,15,1,8,JPN" xlink:title="AP030" d="M13937.9898,-3586.8599L13939.1098,-3587.3798L13939.6805,-3587.7197L13939.8102,-3587.7731L13940.0192,-3587.7934L13940.3107,-3587.7731L13940.4007,-3587.7598"/>
<path content="AP030,1,28,1,0,14,1,8,JPN" xlink:title="AP030" d="M13937.8357,-3587.9372L13937.8799,-3587.7934L13937.8799,-3587.5065L13937.9303,-3587.3466L13937.9501,-3587.2868L13938.0203,-3587.1067L13937.9898,-3586.8599"/>
<path content="AP030,1,28,1,0,14,1,8,JPN" xlink:title="AP030" d="M13940.6097,-3586.0466L13940.77,-3586.3197L13940.9698,-3586.6066L13941.04,-3586.66L13941.2201,-3586.7466L13941.5604,-3586.8732L13942.0807,-3587.0197"/>
<path content="AP030,1,28,1,0,15,1,8,JPN" xlink:title="AP030" d="M13951.2253,-3586.0409L13951.7242,-3586.4498L13951.857,-3586.5723L13952.4307,-3587.1002L13954.0405,-3587.413"/>
<path content="AP030,1,28,1,0,14,1,8,JPN" xlink:title="AP030" d="M13948.6496,-3590.0997L13948.9899,-3589.6866L13949.0204,-3589.653L13949.2203,-3589.1464L13949.4904,-3588.4598L13949.6307,-3588.1199L13949.8093,-3587.7934L13949.9298,-3587.6667L13950.1495,-3587.5267L13950.2701,-3587.4001L13950.4303,-3587.0399L13950.5203,-3586.8931L13950.6805,-3586.713L13950.8102,-3586.5665L13950.9506,-3586.4265L13951.0803,-3586.2267L13951.1093,-3586.2064L13951.2253,-3586.0409"/>
<path content="AP030,1,28,1,0,15,1,8,JPN" xlink:title="AP030" d="M13934.4254,-3589.5565L13934.1797,-3588.6127L13934.1568,-3588.5204L13933.49,-3585.9531"/>
<path content="AP030,1,28,1,0,14,1,8,JPN" xlink:title="AP030" d="M13931.1295,-3587.0399L13931.1295,-3586.8401L13931.1798,-3586.7466L13931.2698,-3586.6398L13931.3095,-3586.5665L13931.3293,-3586.5334L13931.3095,-3586.4799L13931.2714,-3586.4483L13931.2195,-3586.4067L13931.1996,-3586.3331L13931.2393,-3586.2465L13931.3995,-3586.0798L13931.5201,-3585.9398L13931.521,-3585.9375"/>
<path content="AP030,1,28,1,0,14,1,8,JPN" xlink:title="AP030" d="M13937.9898,-3586.8599L13937.9303,-3586.4265L13937.8998,-3586.1732L13937.9834,-3585.9375"/>
<path content="AP030,1,28,1,0,15,1,8,JPN" xlink:title="AP030" d="M13951.0607,-3585.9375L13951.1948,-3586.0165L13951.2253,-3586.0409"/>
<path content="AP030,1,28,1,0,16,1,8,JPN" xlink:title="AP030" d="M13947.5204,-3588.1332L13947.8302,-3587.8468L13947.9904,-3587.6133L13948.2895,-3586.9667L13948.5199,-3586.5532L13948.79,-3586.2999L13949.3117,-3585.9375"/>
<path content="AP030,1,28,1,0,15,1,8,JPN" xlink:title="AP030" d="M13921.875,-3586.1278L13922.3816,-3586.3014L13923.2544,-3586.1568L13923.9105,-3587.1113L13924.9298,-3586.89L13926.2314,-3587.0663L13926.8616,-3587.0361L13927.3987,-3586.8076L13928.1204,-3586.9755L13928.8544,-3586.5528L13930.22,-3585.9821L13930.2946,-3585.9375"/>
<path content="AP030,1,28,1,0,16,1,8,JPN" xlink:title="AP030" d="M13954.0405,-3587.413L13954.3594,-3586.9133L13955.0308,-3585.9375"/>
<path content="AP030,1,28,1,0,16,1,8,JPN" xlink:title="AP030" d="M13937.8357,-3587.9372L13937.7701,-3587.8998L13937.6495,-3587.7731L13937.5595,-3587.6331L13937.5198,-3587.4664L13937.5198,-3587.2868L13937.6495,-3586.8931L13937.6999,-3586.7332L13937.7197,-3586.6798L13937.7701,-3586.4799L13937.7701,-3586.3731L13937.7197,-3586.1732L13937.4884,-3585.9375"/>
<path content="AP030,1,28,1,0,14,1,8,JPN" xlink:title="AP030" d="M13933.49,-3585.9531L13933.7402,-3585.9531L13933.838,-3585.9375"/>
<path content="AP030,1,28,1,0,14,1,8,JPN" xlink:title="AP030" d="M13940.5178,-3585.9375L13940.5197,-3585.9398L13940.6097,-3586.0466"/>
<path content="AP030,1,28,1,0,14,1,8,JPN" xlink:title="AP030" d="M13951.2253,-3586.0409L13951.2695,-3585.9531L13951.2782,-3585.9375"/>
<path content="AP030,1,28,1,0,15,1,8,JPN" xlink:title="AP030" d="M13940.6097,-3586.0466L13940.7395,-3585.9375"/>
<path content="AP030,1,28,1,0,15,1,8,JPN" xlink:title="AP030" d="M13947.5204,-3588.1332L13947.4884,-3586.4498L13947.3519,-3585.9375"/>
<path content="AP030,1,28,1,1,16,1,8,JPN" xlink:title="AP030" d="M13952.008,-3600.287L13953.1518,-3600.8716L13954.4734,-3601.1257L13956.7263,-3602.1354L13957.0312,-3602.3272"/>
<path content="AP030,1,28,1,1,14,1,8,JPN" xlink:title="AP030" d="M13952.008,-3600.287L13953.2135,-3598.5203"/>
<path content="AP030,1,28,1,1,16,1,8,JPN" xlink:title="AP030" d="M13946.5673,-3598.1166L13947.6618,-3598.5841L13949.0851,-3598.4824L13950.1272,-3598.762L13951.7285,-3599.8041L13952.008,-3600.287"/>
<path content="AP030,1,28,1,0,15,1,8,JPN" xlink:title="AP030" d="M13955.8517,-3598.6862L13953.8223,-3598.7694L13953.2135,-3598.5203"/>
</g>
</svg>
