<?xml version="1.0" encoding="UTF-8"?>
<svg  xmlns="http://www.w3.org/2000/svg" xmlns:xlink="http://www.w3.org/1999/xlink" xmlns:go="http://purl.org/svgmap/profile" property="f_code,acc,exs,rst,med,rtt,RSU,loc,soc" viewBox="13570.3125 -3656.25 70.3125 70.3125" go:dataArea="13570.3125 -3656.25 70.3125 70.3125" >
<metadata>
 <rdf:RDF xmlns:rdf="http://www.w3.org/1999/02/22-rdf-syntax-ns#" xmlns:crs="http://opengis.org/xmldtds/transformations.dtd" xmlns:svg="http://www.w3.org/svg" >
  <rdf:Description>
   <crs:CoordinateReferenceSystem rdf:resource="http://purl.org/crs/84" svg:transform="matrix(100.0,0.0,0.0,-100.0,0.0,0.0)" />
  </rdf:Description>
 </rdf:RDF>
</metadata>
<globalCoordinateSystem srsName="http://purl.org/crs/84" transform="matrix(100.0,0.0,0.0,-100.0,0.0,0.0)" />
<defs>
 <g id="p0" >
  <circle cx="0.0" cy="0.0" r="3" stroke="green" stroke-width="2.0" vector-effect="non-scaling-stroke" />
 </g>
</defs>
<g fill="none" fill-rule="evenodd" stroke="#00ff00" stroke-width="2" opacity="0.5" vector-effect="non-scaling-stroke" stroke-linejoin="bevel" >
<path content="AP030,1,28,1,0,15,1,8,JPN" xlink:title="AP030" d="M13635.7178,-3636.0733L13637.2101,-3637.1372L13640.181,-3639.5199L13640.625,-3639.7314"/>
<path content="AP030,1,28,1,0,15,1,8,JPN" xlink:title="AP030" d="M13636.174,-3635.5507L13638.2111,-3636.9606L13639.7552,-3637.6091L13640.4465,-3637.6873L13640.625,-3637.6138"/>
<path content="AP030,1,28,1,0,15,1,8,JPN" xlink:title="AP030" d="M13635.7178,-3636.0733L13636.174,-3635.5507"/>
<path content="AP030,1,28,1,0,15,1,8,JPN" xlink:title="AP030" d="M13634.1873,-3635.0605L13635.7178,-3636.0733"/>
<path content="AP030,1,28,1,0,15,1,8,JPN" xlink:title="AP030" d="M13636.174,-3635.5507L13636.0062,-3635.1856L13636.1771,-3634.8385"/>
<path content="AP030,1,28,1,0,15,1,8,JPN" xlink:title="AP030" d="M13632.1793,-3634.7866L13634.1583,-3635.0616L13634.1873,-3635.0605"/>
<path content="AP030,1,28,1,0,16,1,8,JPN" xlink:title="AP030" d="M13632.1793,-3634.7866L13632.1793,-3635.1265L13632.3303,-3635.2734L13632.5394,-3635.4332L13633.02,-3635.5598L13633.58,-3635.7601L13633.8593,-3635.92L13634.0195,-3636.0268L13634.61,-3636.2064L13634.7702,-3636.2801L13635.0403,-3636.4265L13635.4004,-3636.6798L13635.8307,-3637.0731L13635.9695,-3637.1468L13636.5799,-3637.5599L13637.2192,-3638.0466L13638.06,-3638.6799L13638.6795,-3639.1266L13639.0396,-3639.3799L13639.2899,-3639.6133L13639.4501,-3639.7598L13639.6805,-3639.92L13640.1505,-3640.2267L13640.4907,-3640.3732L13640.625,-3640.4237"/>
<path content="AP030,1,28,1,0,15,1,8,JPN" xlink:title="AP030" d="M13634.1873,-3635.0605L13634.9686,-3635.0304L13635.2585,-3634.8534L13635.7315,-3634.7458L13636.1771,-3634.8385"/>
<path content="AP030,1,28,1,0,16,1,8,JPN" xlink:title="AP030" d="M13631.3995,-3633.3267L13631.5201,-3633.4866L13631.8604,-3633.7601L13632.1304,-3633.9535L13632.2403,-3634.1732L13632.2205,-3634.4067L13632.1793,-3634.7866"/>
<path content="AP030,1,28,1,0,15,1,8,JPN" xlink:title="AP030" d="M13631.3995,-3633.3267L13631.0715,-3634.6085L13631.5079,-3634.7282L13632.1793,-3634.7866"/>
<path content="AP030,1,28,1,0,16,1,8,JPN" xlink:title="AP030" d="M13631.2897,-3633.1066L13631.3995,-3633.3267"/>
<path content="AP030,1,28,1,0,15,1,8,JPN" xlink:title="AP030" d="M13636.1771,-3634.8385L13637.6923,-3632.896"/>
<path content="AP030,1,28,1,0,15,1,8,JPN" xlink:title="AP030" d="M13635.6903,-3632.5111L13636.4059,-3632.7183L13637.6923,-3632.896"/>
<path content="AP030,1,28,1,0,15,1,8,JPN" xlink:title="AP030" d="M13638.9496,-3632.4841L13640.2161,-3633.5567L13640.274,-3633.9542L13640.3275,-3634.3292L13640.625,-3634.9573"/>
<path content="AP030,1,28,1,0,15,1,8,JPN" xlink:title="AP030" d="M13637.6923,-3632.896L13637.7014,-3632.7427L13638.063,-3632.6675L13638.9496,-3632.4841"/>
<path content="AP030,1,28,1,0,15,1,8,JPN" xlink:title="AP030" d="M13631.6589,-3632.4558L13633.2306,-3633.9512L13634.1888,-3634.3468L13634.1629,-3635.0441L13634.1873,-3635.0605"/>
<path content="AP030,1,28,1,0,14,1,8,JPN" xlink:title="AP030" d="M13631.2897,-3633.1066L13631.6589,-3632.4558"/>
<path content="AP030,1,28,1,0,14,1,8,JPN" xlink:title="AP030" d="M13640.2405,-3632.1533L13640.625,-3632.4043"/>
<path content="AP030,1,28,1,0,14,1,8,JPN" xlink:title="AP030" d="M13639.1098,-3631.6334L13639.2395,-3631.6666L13639.7202,-3631.8134L13640.0192,-3632.0133L13640.2405,-3632.1533"/>
<path content="AP030,1,28,1,0,15,1,8,JPN" xlink:title="AP030" d="M13638.9496,-3632.4841L13639.1098,-3631.6334"/>
<path content="AP030,1,28,1,0,15,1,8,JPN" xlink:title="AP030" d="M13640.2405,-3632.1533L13640.625,-3631.9214"/>
<path content="AP030,1,28,1,0,14,1,8,JPN" xlink:title="AP030" d="M13636.0779,-3630.777L13636.3602,-3630.7999L13636.8805,-3630.8201L13637.1307,-3630.8399L13637.4298,-3631.0001L13637.8799,-3631.2199L13638.3301,-3631.4335L13638.8107,-3631.58L13639.1098,-3631.6334"/>
<path content="AP030,1,28,1,0,15,1,8,JPN" xlink:title="AP030" d="M13635.6903,-3632.5111L13635.7468,-3632.2582L13636.0779,-3630.7926L13636.0779,-3630.777"/>
<path content="AP030,1,28,1,0,15,1,8,JPN" xlink:title="AP030" d="M13632.1304,-3630.5866L13632.4951,-3631.4392L13633.4503,-3631.8859L13634.7336,-3632.1156L13635.6903,-3632.5111"/>
<path content="AP030,1,28,1,0,14,1,8,JPN" xlink:title="AP030" d="M13631.6589,-3632.4558L13631.6803,-3631.5891L13631.2251,-3630.315"/>
<path content="AP030,1,28,1,0,14,1,8,JPN" xlink:title="AP030" d="M13631.2251,-3630.315L13631.2897,-3630.3001L13631.3293,-3630.3001L13631.3797,-3630.3001L13631.4499,-3630.32L13631.5598,-3630.3734L13631.6101,-3630.4268L13631.6101,-3630.5L13631.7703,-3630.5866L13631.9504,-3630.6934L13632.0404,-3630.7335L13632.0602,-3630.6801L13632.1304,-3630.5866"/>
<path content="AP030,1,28,1,0,16,1,8,JPN" xlink:title="AP030" d="M13628.7079,-3630.2917L13628.5599,-3630.4401L13628.54,-3630.7133L13628.6804,-3630.9868L13628.8803,-3631.3465L13629.1794,-3631.5067L13629.5197,-3631.6532L13629.7394,-3631.76L13629.8599,-3631.8466L13630.13,-3631.9733L13630.3802,-3632.0999L13630.5405,-3632.28L13630.5603,-3632.3532L13630.6503,-3632.5535L13630.7205,-3632.6599L13630.9006,-3632.7999L13631.0806,-3632.9666L13631.2897,-3633.1066"/>
<path content="AP030,1,28,1,0,14,1,8,JPN" xlink:title="AP030" d="M13628.7079,-3630.2917L13628.8101,-3630.3333L13628.9703,-3630.32L13629.1794,-3630.2601L13629.4693,-3630.2067L13629.5807,-3630.2601L13629.7195,-3630.3532L13630.0598,-3630.3532L13630.2704,-3630.4401L13630.4901,-3630.5L13630.6793,-3630.4798L13630.8594,-3630.4268L13631.0593,-3630.3532L13631.2251,-3630.315"/>
<path content="AP030,1,28,1,0,15,1,8,JPN" xlink:title="AP030" d="M13639.0244,-3630.1575L13640.5182,-3631.1108L13640.625,-3631.1443"/>
<path content="AP030,1,28,1,0,15,1,8,JPN" xlink:title="AP030" d="M13639.1098,-3631.6334L13639.0244,-3630.1575"/>
<path content="AP030,1,28,1,0,14,1,8,JPN" xlink:title="AP030" d="M13633.9325,-3630.0812L13634.1797,-3630.2067L13634.3597,-3630.3001L13634.61,-3630.4268L13635.08,-3630.5534L13635.5194,-3630.6934L13635.8307,-3630.7667L13635.9497,-3630.7667L13636.0779,-3630.777"/>
<path content="AP030,1,28,1,0,14,1,8,JPN" xlink:title="AP030" d="M13632.1304,-3630.5866L13632.2189,-3630.5317L13632.2693,-3630.5L13632.4295,-3630.46L13632.7194,-3630.4401L13632.8995,-3630.4798L13633.2001,-3630.6198L13633.4503,-3630.7133L13633.58,-3630.7133L13633.6807,-3630.64L13633.9294,-3630.4066L13633.9294,-3630.3001L13633.9325,-3630.0812"/>
<path content="AP030,1,28,1,0,15,1,8,JPN" xlink:title="AP030" d="M13636.0519,-3628.8799L13637.3444,-3629.6825L13639.0244,-3630.1575"/>
<path content="AP030,1,28,1,0,15,1,8,JPN" xlink:title="AP030" d="M13636.0779,-3630.777L13636.0519,-3628.8799"/>
<path content="AP030,1,28,1,0,15,1,8,JPN" xlink:title="AP030" d="M13635.5118,-3628.4069L13636.0519,-3628.8799"/>
<path content="AP030,1,28,1,0,15,1,8,JPN" xlink:title="AP030" d="M13635.0403,-3627.9934L13635.5118,-3628.4069"/>
<path content="AP030,1,28,1,0,14,1,8,JPN" xlink:title="AP030" d="M13633.9325,-3630.0812L13634.0393,-3629.9534L13634.2407,-3629.8332L13634.4299,-3629.7401L13634.5795,-3629.6333L13634.5795,-3629.5601L13634.61,-3629.4132L13634.6497,-3629.1065L13634.7,-3628.68L13634.7702,-3628.4401L13634.8099,-3628.3333L13634.9899,-3628.0266L13635.0403,-3627.9934"/>
<path content="AP030,1,28,1,0,15,1,8,JPN" xlink:title="AP030" d="M13639.0244,-3630.1575L13639.1922,-3628.3718L13639.5645,-3627.4136L13639.4897,-3626.5404"/>
<path content="AP030,1,28,1,0,15,1,8,JPN" xlink:title="AP030" d="M13635.5118,-3628.4069L13636.0931,-3627.3304L13636.7325,-3626.664L13636.3602,-3626.0799"/>
<path content="AP030,1,28,1,0,14,1,8,JPN" xlink:title="AP030" d="M13635.0403,-3627.9934L13635.2203,-3627.7931L13635.3806,-3627.56L13635.4294,-3627.2865L13635.5392,-3627.0733L13635.6094,-3626.8932L13635.7407,-3626.7132L13635.8597,-3626.5533L13635.9299,-3626.4267L13636.0596,-3626.3L13636.2396,-3626.1734L13636.3602,-3626.0799"/>
<path content="AP030,1,28,1,0,14,1,8,JPN" xlink:title="AP030" d="M13633.9325,-3630.0812L13633.7006,-3630.0667L13633.4503,-3630.1201L13633.3801,-3630.1334L13633.2199,-3630.1201L13632.7896,-3630.0133L13632.2693,-3629.8664L13631.8604,-3629.7733L13631.7902,-3629.76L13631.3995,-3629.6131L13630.9006,-3629.6333L13630.8578,-3629.6371L13630.5206,-3629.6665L13630.3101,-3629.6532L13630.13,-3629.5399L13630.04,-3629.4334L13629.9301,-3629.2732L13629.8096,-3629.1466L13629.6097,-3629.0001L13629.5807,-3628.9665L13629.4495,-3628.82L13629.3304,-3628.5866L13629.2404,-3628.3333L13629.2007,-3628.2066L13629.1107,-3627.9732L13629.0604,-3627.8133L13629.0894,-3627.6638L13629.1107,-3627.56L13629.0802,-3627.38L13629.0207,-3627.1801L13628.9902,-3626.8398L13628.9001,-3626.4999L13628.83,-3626.12L13628.5202,-3625.5066"/>
<path content="AP030,1,28,1,0,15,1,8,JPN" xlink:title="AP030" d="M13628.2928,-3625.4509L13628.5202,-3625.5066"/>
<path content="AP030,1,28,1,0,16,1,8,JPN" xlink:title="AP030" d="M13628.7079,-3630.2917L13628.7399,-3630.2601L13629.0207,-3630.1201L13629.1107,-3630.0465L13629.1794,-3629.9L13629.1794,-3629.6532L13629.0207,-3629.3598L13628.7704,-3629.1664L13628.4897,-3629.1065L13628.1799,-3629.0733L13627.8793,-3628.9265L13627.6794,-3628.68L13627.6794,-3628.4267L13627.8793,-3628.1334L13628.0396,-3627.9533L13628.0594,-3627.8332L13627.9907,-3627.6134L13627.8595,-3627.3602L13627.8107,-3627.0733L13627.9007,-3626.7467L13628.1799,-3626.4801L13628.3401,-3626.2554L13628.36,-3626.2264L13628.36,-3625.9933L13628.2394,-3625.7732L13628.2394,-3625.56L13628.2928,-3625.4509"/>
<path content="AP030,1,28,1,0,14,1,8,JPN" xlink:title="AP030" d="M13636.3602,-3626.0799L13636.5402,-3625.9533L13636.7706,-3625.8331L13636.9293,-3625.7599L13637.0193,-3625.7198L13637.1307,-3625.6332L13637.2406,-3625.4665L13637.3093,-3625.2335L13637.3093,-3625.1999L13637.3795,-3624.9866"/>
<path content="AP030,1,28,1,0,15,1,8,JPN" xlink:title="AP030" d="M13639.4897,-3626.5404L13639.0854,-3625.3471L13638.6307,-3625.0225L13637.8189,-3624.8631L13637.3795,-3624.9866"/>
<path content="AP030,1,28,1,0,14,1,8,JPN" xlink:title="AP030" d="M13617.1295,-3622.6799L13617.5201,-3622.8001L13617.7704,-3622.8401L13618.1107,-3622.8733L13618.6096,-3622.9267L13618.9301,-3622.9465L13619.2398,-3622.8931L13619.31,-3622.9465L13619.4305,-3623.04L13619.5404,-3623.0934L13619.7693,-3623.1068L13619.8303,-3623.1464L13619.9005,-3623.2334L13619.9905,-3623.3265L13620.1096,-3623.4001L13620.2194,-3623.5268L13620.2698,-3623.6866L13620.2896,-3623.8667L13620.3796,-3623.9735L13620.6497,-3624.2268L13620.8801,-3624.44L13620.9305,-3624.6067L13621.0205,-3624.6799L13621.1304,-3624.7467L13621.1304,-3624.8001L13621.1304,-3624.8734L13621.0205,-3625.0534L13621.0205,-3625.2731L13621.1105,-3625.4532L13621.2204,-3625.5798L13621.4905,-3625.7732L13621.7697,-3625.9731L13622.02,-3626.0666L13622.2198,-3626.1002L13622.5204,-3626.1932L13622.6105,-3626.3L13622.7005,-3626.3733L13622.7203,-3626.3866L13622.7905,-3626.4267L13622.9294,-3626.4999L13622.9507,-3626.5667L13622.9507,-3626.6933L13622.9904,-3626.7666L13623.0804,-3626.8002L13623.1094,-3626.8398L13623.1293,-3626.9665L13623.1995,-3626.9867L13623.3994,-3627.0401L13623.3994,-3627.0733L13623.4299,-3627.1801L13623.5199,-3627.2331L13623.6496,-3627.3266L13623.8998,-3627.4334L13623.9502,-3627.5265L13624.0204,-3627.6531L13624.1104,-3627.6867L13624.2905,-3627.7599L13624.4507,-3627.7401L13624.5407,-3627.7599L13624.5804,-3627.8332L13624.6506,-3627.9202L13624.7894,-3628.0266L13624.9695,-3628.1734L13625.0198,-3628.3001L13624.9298,-3628.3531L13624.8596,-3628.4267L13624.7696,-3628.6064L13624.6994,-3628.7132L13624.8093,-3628.7666L13624.9298,-3628.7666L13625.0793,-3628.7666L13625.1801,-3628.8601L13625.2899,-3628.9467L13625.3296,-3629.0001L13625.4501,-3629.0199L13625.5203,-3629.0199L13625.7706,-3629.0001L13626.2207,-3628.9131L13626.6495,-3628.8933L13627.0203,-3628.9665L13627.3605,-3629.0932L13627.4506,-3629.2L13627.6093,-3629.4334L13627.7893,-3629.6867L13627.9297,-3629.7932L13628.0807,-3629.8664L13628.1296,-3629.9L13628.3295,-3630.0465L13628.45,-3630.1533L13628.6804,-3630.2799L13628.7079,-3630.2917"/>
<path content="AP030,1,28,1,0,14,1,8,JPN" xlink:title="AP030" d="M13628.0441,-3622.5559L13628.2898,-3622.6799L13628.5202,-3622.8199L13628.5797,-3623.0534L13628.6301,-3623.1667L13628.6804,-3623.3265L13628.6499,-3623.6668L13628.54,-3624.0467L13628.4698,-3624.2802L13628.6499,-3624.4999L13628.7201,-3624.6933L13628.7003,-3624.8402L13628.6301,-3625.0401L13628.5599,-3625.2335L13628.4897,-3625.4131L13628.5202,-3625.5066"/>
<path content="AP030,1,28,1,0,16,1,8,JPN" xlink:title="AP030" d="M13628.2928,-3625.4509L13628.45,-3625.1266L13628.5202,-3624.7131L13628.3798,-3624.3732L13628.1494,-3624.0799L13628.0197,-3623.7934L13627.9694,-3623.56L13627.9907,-3623.3799L13628.0197,-3623.1998L13627.9694,-3622.86L13627.9694,-3622.6933L13628.0396,-3622.5666L13628.0441,-3622.5559"/>
<path content="AP030,1,28,1,0,14,1,8,JPN" xlink:title="AP030" d="M13616.0202,-3622.3331L13616.1804,-3622.4068L13616.6107,-3622.5334L13617.1295,-3622.6799"/>
<path content="AP030,1,28,1,0,15,1,8,JPN" xlink:title="AP030" d="M13616.0202,-3622.3331L13617.7872,-3622.094L13618.1686,-3622.1611L13618.7744,-3622.2675L13619.2947,-3622.3587"/>
<path content="AP030,1,28,1,0,15,1,8,JPN" xlink:title="AP030" d="M13622.8943,-3621.8002L13623.436,-3622.3473L13624.5911,-3623.0698L13625.4211,-3623.7499L13625.9079,-3624.7105L13626.6418,-3625.1808L13627.5803,-3625.2769L13627.739,-3625.3159L13628.2928,-3625.4509"/>
<path content="AP030,1,28,1,0,14,1,8,JPN" xlink:title="AP030" d="M13635.3302,-3621.5935L13635.2905,-3621.8864L13635.3104,-3621.9532L13635.4294,-3622.0135L13635.4904,-3622.0665L13635.5606,-3622.1733L13635.7697,-3622.3202L13635.9695,-3622.4602L13636.0199,-3622.4998L13636.0397,-3622.62L13635.9894,-3622.7665L13635.8994,-3622.9465L13635.9695,-3623.0732L13636.1298,-3623.2334L13636.3602,-3623.4531L13636.4899,-3623.5931L13636.6104,-3623.7598L13636.6302,-3623.7934L13636.7004,-3623.8998L13636.9293,-3624.0665L13637.0605,-3624.2065L13637.2192,-3624.4999L13637.3093,-3624.7665L13637.3795,-3624.9866"/>
<path content="AP030,1,28,1,0,14,1,8,JPN" xlink:title="AP030" d="M13616.0202,-3622.3331L13615.95,-3622.2801L13615.86,-3622.2267L13615.7196,-3622.1931L13615.7898,-3622.0467L13615.86,-3621.8132L13615.9409,-3621.5546L13615.95,-3621.5267L13615.9897,-3621.3799L13615.9698,-3621.2334"/>
<path content="AP030,1,28,1,0,15,1,8,JPN" xlink:title="AP030" d="M13622.3114,-3621.212L13622.8943,-3621.8002"/>
<path content="AP030,1,28,1,0,15,1,8,JPN" xlink:title="AP030" d="M13619.2947,-3622.3587L13621.1273,-3622.1821L13621.9894,-3621.653L13622.3114,-3621.212"/>
<path content="AP030,1,28,1,0,15,1,8,JPN" xlink:title="AP030" d="M13621.9116,-3621.1742L13622.3114,-3621.212"/>
<path content="AP030,1,28,1,0,14,1,8,JPN" xlink:title="AP030" d="M13615.4297,-3620.8733L13615.5197,-3620.9465L13615.7196,-3621.04L13615.77,-3621.0732L13615.86,-3621.1266L13615.9698,-3621.2334"/>
<path content="AP030,1,28,1,0,14,1,8,JPN" xlink:title="AP030" d="M13615.3793,-3620.8599L13615.4297,-3620.8733"/>
<path content="AP030,1,28,1,0,15,1,8,JPN" xlink:title="AP030" d="M13615.3793,-3620.8599L13614.5538,-3621.7411L13613.9084,-3622.1821L13613.5849,-3623.505L13613.3698,-3624.2104L13613.6917,-3624.5632L13614.8773,-3624.6513L13615.9546,-3624.4751L13616.6016,-3623.7698L13616.8167,-3623.3288L13617.1295,-3622.6799"/>
<path content="AP030,1,28,1,0,15,1,8,JPN" xlink:title="AP030" d="M13619.3756,-3620.4491L13620.3247,-3620.5372L13620.4971,-3620.5528L13621.2616,-3621.1132L13621.9116,-3621.1742"/>
<path content="AP030,1,28,1,0,15,1,8,JPN" xlink:title="AP030" d="M13619.2947,-3622.3587L13619.2978,-3622.2801L13619.3756,-3620.4491"/>
<path content="AP030,1,28,1,0,15,1,8,JPN" xlink:title="AP030" d="M13615.9698,-3621.2334L13617.54,-3620.8454L13619.3756,-3620.4491"/>
<path content="AP030,1,28,1,0,14,1,8,JPN" xlink:title="AP030" d="M13628.0441,-3622.5559L13627.8793,-3622.48L13627.8107,-3622.4068L13627.6505,-3622.1535L13627.4506,-3621.92L13627.3102,-3621.6331L13627.24,-3621.4535L13627.2202,-3621.1468L13627.15,-3620.8L13627.1805,-3620.6402L13627.33,-3620.3201"/>
<path content="AP030,1,28,1,0,15,1,8,JPN" xlink:title="AP030" d="M13635.3302,-3621.5935L13636.3571,-3621.2479L13637.5412,-3620.9869L13638.1302,-3620.6512L13638.7863,-3620.779L13639.9872,-3620.2366L13640.6174,-3620.2606L13640.625,-3620.2594M13640.625,-3625.879L13640.303,-3626.162L13639.4897,-3626.5404"/>
<path content="AP030,1,28,1,0,15,1,8,JPN" xlink:title="AP030" d="M13622.8943,-3621.8002L13623.5275,-3621.3924L13624.0601,-3621.0484L13624.5148,-3620.1252L13625.2533,-3619.9196L13626.3519,-3619.7571L13627.33,-3620.3201"/>
<path content="AP030,1,28,1,0,14,1,8,JPN" xlink:title="AP030" d="M13615.3793,-3620.8599L13615.1505,-3620.7333L13614.8102,-3620.6402L13614.4897,-3620.6066L13614.3799,-3620.5002L13614.36,-3620.48L13614.27,-3620.2465L13614.1098,-3619.8868L13613.9496,-3619.4134L13613.9297,-3619.2532L13613.8596,-3619.1067"/>
<path content="AP030,1,28,1,0,14,1,8,JPN" xlink:title="AP030" d="M13627.33,-3620.3201L13627.3804,-3620.1199L13627.3804,-3619.9734L13627.4002,-3619.6865L13627.4002,-3619.2867L13627.4002,-3619.22L13627.3804,-3618.5867L13627.3605,-3618.2598L13627.3102,-3617.8867"/>
<path content="AP030,1,28,1,0,16,1,8,JPN" xlink:title="AP030" d="M13628.0441,-3622.5559L13628.2394,-3622.1199L13628.2898,-3621.7731L13628.36,-3621.3264L13628.36,-3620.8733L13628.6102,-3620.1733L13628.7399,-3619.5065L13628.8605,-3619.3066L13629.2206,-3618.9133L13629.3793,-3618.6932L13629.5395,-3618.4399L13629.5807,-3618.1732L13629.6097,-3617.7933"/>
<path content="AP030,1,28,1,0,15,1,8,JPN" xlink:title="AP030" d="M13615.4297,-3620.8733L13616.2415,-3620.1164L13616.7191,-3617.6651"/>
<path content="AP030,1,28,1,0,15,1,8,JPN" xlink:title="AP030" d="M13613.8596,-3619.1067L13616.7191,-3617.6651"/>
<path content="AP030,1,28,1,0,14,1,8,JPN" xlink:title="AP030" d="M13633.2397,-3617.1265L13633.2397,-3617.1467L13633.2703,-3617.3466L13633.1802,-3617.4332L13633.1802,-3617.5064L13633.2397,-3617.5598L13633.3801,-3617.7067L13633.4305,-3617.7399L13633.4,-3617.7734L13633.3099,-3617.7601L13633.2199,-3617.72L13633.11,-3617.7067L13633.0795,-3617.7399L13633.1299,-3617.7933L13633.2703,-3617.8333L13633.3801,-3617.9001L13633.4503,-3617.9401L13633.5602,-3617.9531L13633.7402,-3617.9401L13633.7402,-3617.8867L13633.7204,-3617.7933L13633.7692,-3617.7399L13633.8593,-3617.7601L13633.9294,-3617.8467L13633.9905,-3617.8467L13634.0607,-3617.8467L13634.0805,-3617.8467L13634.1507,-3617.8467L13634.2194,-3617.9001L13634.2407,-3618.0668L13634.2697,-3618.1732L13634.2697,-3618.3334L13634.1995,-3618.5333L13634.2407,-3618.7332L13634.2697,-3618.9865L13634.3094,-3619.22L13634.3994,-3619.4134L13634.3796,-3619.54L13634.3994,-3619.6533L13634.4299,-3619.7735L13634.4299,-3619.9932L13634.4696,-3620.1332L13634.5596,-3620.2999L13634.6497,-3620.5002L13634.7702,-3620.5666L13634.79,-3620.7134L13634.8801,-3620.9267L13634.8602,-3621.04L13634.8099,-3621.0934L13634.8602,-3621.1666L13634.9899,-3621.2532L13635.1807,-3621.3066L13635.2905,-3621.4134L13635.3302,-3621.5065L13635.3302,-3621.5935"/>
<path content="AP030,1,28,1,0,15,1,8,JPN" xlink:title="AP030" d="M13629.6097,-3617.7933L13630.2032,-3617.8795L13630.8731,-3618.1999L13631.9199,-3617.6823L13633.2397,-3617.1265"/>
<path content="AP030,1,28,1,0,15,1,8,JPN" xlink:title="AP030" d="M13619.3756,-3620.4491L13619.4031,-3619.8009L13619.4031,-3618.9194L13620.0089,-3616.8819"/>
<path content="AP030,1,28,1,0,15,1,8,JPN" xlink:title="AP030" d="M13621.9116,-3621.1742L13622.1725,-3619.2669L13621.965,-3616.6996"/>
<path content="AP030,1,28,1,0,15,1,8,JPN" xlink:title="AP030" d="M13620.0089,-3616.8819L13620.2698,-3616.8575L13621.965,-3616.6996"/>
<path content="AP030,1,28,1,0,15,1,8,JPN" xlink:title="AP030" d="M13627.507,-3616.2437L13628.3249,-3616.5112L13629.6097,-3617.7933"/>
<path content="AP030,1,28,1,0,15,1,8,JPN" xlink:title="AP030" d="M13627.3102,-3617.8867L13627.507,-3616.2437"/>
<path content="AP030,1,28,1,0,14,1,8,JPN" xlink:title="AP030" d="M13610.9894,-3615.6868L13611.1801,-3615.8466L13611.3998,-3616.0465L13611.6104,-3616.28L13611.9293,-3616.6065L13612.1796,-3616.8732L13612.5198,-3617.2199L13612.7701,-3617.4667L13612.97,-3617.7601L13613.2004,-3618.0267L13613.4293,-3618.3533L13613.6307,-3618.6798L13613.8306,-3618.9999L13613.8596,-3619.1067"/>
<path content="AP030,1,28,1,0,14,1,8,JPN" xlink:title="AP030" d="M13613.8596,-3619.1067L13613.7207,-3619.1799L13613.5605,-3618.9865L13613.3301,-3618.6066L13613.0798,-3618.2266L13612.8998,-3617.9733L13612.5397,-3617.5934L13612.1796,-3617.2531L13611.8103,-3616.9666L13611.7706,-3616.9132L13611.6104,-3616.7133L13611.2701,-3616.3334L13611.0794,-3616.1201L13611.0397,-3616.0465L13610.8093,-3615.7932L13610.9894,-3615.6868"/>
<path content="AP030,1,28,1,0,15,1,8,JPN" xlink:title="AP030" d="M13620.0089,-3616.8819L13620.372,-3615.6563"/>
<path content="AP030,1,28,1,0,15,1,8,JPN" xlink:title="AP030" d="M13626.4694,-3615.5067L13627.507,-3616.2437"/>
<path content="AP030,1,28,1,0,14,1,8,JPN" xlink:title="AP030" d="M13627.3102,-3617.8867L13627.2903,-3617.7933L13627.2705,-3617.7734L13626.8997,-3617.54L13626.5396,-3617.2531L13626.3992,-3617.0734L13626.3596,-3616.8732L13626.3794,-3616.3868L13626.4496,-3615.9534L13626.4496,-3615.8867L13626.4694,-3615.5067"/>
<path content="AP030,1,28,1,0,15,1,8,JPN" xlink:title="AP030" d="M13622.3114,-3621.212L13622.85,-3621.1239L13623.1735,-3621.1239L13623.0667,-3619.8009L13623.2819,-3619.0075L13623.4787,-3618.774L13624.2508,-3617.8612L13626.4694,-3615.5067"/>
<path content="AP030,1,28,1,0,15,1,8,JPN" xlink:title="AP030" d="M13621.965,-3616.6996L13623.3902,-3616.6496L13623.5291,-3616.6447L13624.0204,-3616.3113L13624.559,-3615.8031L13626.4694,-3615.5067"/>
<path content="AP030,1,28,1,0,15,1,8,JPN" xlink:title="AP030" d="M13620.372,-3615.6563L13619.2169,-3615.4709"/>
<path content="AP030,1,28,1,0,15,1,8,JPN" xlink:title="AP030" d="M13616.7191,-3617.6651L13616.9525,-3616.8217L13619.2169,-3615.4709"/>
<path content="AP030,1,28,1,0,15,1,8,JPN" xlink:title="AP030" d="M13621.965,-3616.6996L13621.991,-3615.0829"/>
<path content="AP030,1,28,1,0,15,1,8,JPN" xlink:title="AP030" d="M13620.372,-3615.6563L13620.5688,-3615.5869L13621.991,-3615.0829"/>
<path content="AP030,1,28,1,0,14,1,8,JPN" xlink:title="AP030" d="M13626.4694,-3615.5067L13626.4893,-3615.1268L13626.4893,-3615.0002L13626.4694,-3614.6801"/>
<path content="AP030,1,28,1,0,15,1,8,JPN" xlink:title="AP030" d="M13621.991,-3615.0829L13623.2147,-3615.0734L13623.8419,-3615.0688L13624.7757,-3614.6351L13626.4694,-3614.6801"/>
<path content="AP030,1,28,1,0,14,1,8,JPN" xlink:title="AP030" d="M13609.8602,-3614.6198L13609.9503,-3614.7331L13610.1105,-3614.8399L13610.2707,-3614.9666L13610.6796,-3615.1466L13610.9497,-3615.3999L13611.1298,-3615.5602L13611.0199,-3615.6666L13610.9894,-3615.6868"/>
<path content="AP030,1,28,1,0,15,1,8,JPN" xlink:title="AP030" d="M13619.2169,-3615.4709L13618.5776,-3615.3683L13617.7795,-3615.3049L13616.9708,-3614.7766L13615.4877,-3614.6854L13615.0192,-3613.9935"/>
<path content="AP030,1,28,1,0,15,1,8,JPN" xlink:title="AP030" d="M13615.0192,-3613.9935L13614.4897,-3613.9935"/>
<path content="AP030,1,28,1,0,14,1,8,JPN" xlink:title="AP030" d="M13614.4897,-3613.9935L13614.7705,-3613.9732L13615.0192,-3613.9935"/>
<path content="AP030,1,28,1,0,15,1,8,JPN" xlink:title="AP030" d="M13620.372,-3615.6563L13620.372,-3614.8624L13620.1645,-3613.9538"/>
<path content="AP030,1,28,1,0,16,1,8,JPN" xlink:title="AP030" d="M13629.6097,-3617.7933L13629.5807,-3617.58L13629.4495,-3616.9666L13629.2892,-3616.3734L13629.2206,-3615.9931L13629.1794,-3615.5602L13629.1107,-3615.2866L13628.9307,-3614.8933L13628.7003,-3614.64L13628.6102,-3614.5668L13628.3295,-3614.3532L13628.1296,-3614.1731L13628.0197,-3614.0133L13627.9297,-3613.9"/>
<path content="AP030,1,28,1,0,15,1,8,JPN" xlink:title="AP030" d="M13626.4694,-3615.5067L13627.2263,-3614.8796L13627.9297,-3613.9"/>
<path content="AP030,1,28,1,0,14,1,8,JPN" xlink:title="AP030" d="M13626.4694,-3614.6801L13626.4297,-3614.3002L13626.4297,-3614.2799L13626.3107,-3613.8866"/>
<path content="AP030,1,28,1,0,14,1,8,JPN" xlink:title="AP030" d="M13614.1098,-3613.8466L13614.18,-3613.8668L13614.36,-3613.94L13614.4897,-3613.9935"/>
<path content="AP030,1,28,1,0,15,1,8,JPN" xlink:title="AP030" d="M13614.4897,-3613.9935L13614.1098,-3613.8466"/>
<path content="AP030,1,28,1,0,14,1,8,JPN" xlink:title="AP030" d="M13609.8602,-3614.6198L13609.9304,-3614.5535L13609.9503,-3614.5332L13610.08,-3614.5L13610.5194,-3614.4798L13610.8795,-3614.4268L13611.0199,-3614.3867L13611.2396,-3614.1933L13611.3998,-3614.0266L13611.5402,-3613.9534L13612.0407,-3613.9534L13612.3596,-3614.0266L13612.4695,-3614.0667L13612.5595,-3614.0667L13612.6999,-3613.9732L13612.9303,-3613.9534L13613.2706,-3613.9534L13613.4293,-3613.94L13613.6795,-3613.8668L13614.0198,-3613.8466L13614.1098,-3613.8466"/>
<path content="AP030,1,28,1,0,15,1,8,JPN" xlink:title="AP030" d="M13621.991,-3615.0829L13622.1313,-3613.3827"/>
<path content="AP030,1,28,1,0,15,1,8,JPN" xlink:title="AP030" d="M13620.1645,-3613.9538L13620.6299,-3613.8889L13621.492,-3613.7688L13622.1313,-3613.3827"/>
<path content="AP030,1,28,1,0,15,1,8,JPN" xlink:title="AP030" d="M13625.0397,-3612.6453L13626.3107,-3613.8866"/>
<path content="AP030,1,28,1,0,15,1,8,JPN" xlink:title="AP030" d="M13622.1313,-3613.3827L13622.7966,-3612.5854L13622.8195,-3612.5862L13625.0397,-3612.6453"/>
<path content="AP030,1,28,1,0,14,1,8,JPN" xlink:title="AP030" d="M13633.2397,-3617.1265L13633.2199,-3616.7465L13633.2199,-3616.5668L13633.2703,-3616.4398L13633.2901,-3616.2998L13633.3099,-3616.0465L13633.3603,-3615.9534L13633.4702,-3615.8867L13633.4702,-3615.8333L13633.3801,-3615.7066L13633.2703,-3615.5266L13633.2397,-3615.4533L13633.1299,-3615.2733L13633.0795,-3615.1466L13632.93,-3615.0398L13632.8995,-3614.9265L13632.8796,-3614.8399L13632.7194,-3614.64L13632.6996,-3614.5668L13632.6492,-3614.32L13632.5607,-3614.1201L13632.5195,-3613.9198L13632.5394,-3613.76L13632.6096,-3613.6131L13632.5394,-3613.3999L13632.4295,-3613.0932L13632.3303,-3612.7998L13632.1793,-3612.5534L13632.0602,-3612.4065L13631.9504,-3612.2799L13631.9,-3612.2269L13631.72,-3612.08L13631.6101,-3612.0132L13631.4499,-3611.8332L13631.4301,-3611.7199L13631.4896,-3611.6333L13631.5598,-3611.6135L13631.72,-3611.6531L13631.7703,-3611.7199L13631.7398,-3611.8668L13631.81,-3611.9202L13631.9305,-3611.8866L13632.0206,-3611.8668L13632.1793,-3611.9202L13632.2693,-3611.8999L13632.2693,-3611.8332L13632.2205,-3611.6867L13632.0602,-3611.5269L13631.9702,-3611.38L13631.8298,-3611.0733"/>
<path content="AP030,1,28,1,0,15,1,8,JPN" xlink:title="AP030" d="M13627.9297,-3613.9L13629.0527,-3612.2456L13630.0049,-3611.4887L13631.8298,-3611.0733"/>
<path content="AP030,1,28,1,0,15,1,8,JPN" xlink:title="AP030" d="M13622.1313,-3613.3827L13621.9559,-3611.4929L13621.1273,-3610.5415"/>
<path content="AP030,1,28,1,0,15,1,8,JPN" xlink:title="AP030" d="M13620.1645,-3613.9538L13620.05,-3613.4518L13620.05,-3612.2169L13620.2652,-3611.776L13620.4483,-3611.5135L13621.1273,-3610.5415"/>
<path content="AP030,1,28,1,0,14,1,8,JPN" xlink:title="AP030" d="M13631.8298,-3611.0733L13631.9504,-3610.9867L13632.1793,-3610.8601L13632.4005,-3610.82L13632.5806,-3610.7334L13632.7896,-3610.6201L13632.8598,-3610.5331L13632.8094,-3610.4069"/>
<path content="AP030,1,28,1,0,14,1,8,JPN" xlink:title="AP030" d="M13632.8094,-3610.4069L13632.7896,-3610.3199L13632.6096,-3609.94L13632.5806,-3609.8866"/>
<path content="AP030,1,28,1,0,15,1,8,JPN" xlink:title="AP030" d="M13622.905,-3609.5898L13622.3724,-3610.598L13622.5601,-3611.1053L13623.5123,-3611.5257L13624.707,-3612.1616L13625.0397,-3612.6453"/>
<path content="AP030,1,28,1,0,14,1,8,JPN" xlink:title="AP030" d="M13624.7696,-3608.5335L13625.7706,-3608.6067L13626.3107,-3608.6399L13626.857,-3608.5888"/>
<path content="AP030,1,28,1,0,14,1,8,JPN" xlink:title="AP030" d="M13626.3107,-3613.8866L13626.1093,-3613.0001L13626.0193,-3612.6202L13626.0193,-3612.5866L13625.9293,-3612.2601L13625.9293,-3612.2066L13625.7706,-3611.7065L13625.7706,-3611.5799L13625.7004,-3611.2L13625.5402,-3610.64L13625.3998,-3610.12L13625.2899,-3609.7599L13625.2701,-3609.7069L13625.1099,-3609.3468L13625.0198,-3609.1999L13624.8993,-3608.86L13624.7696,-3608.5335"/>
<path content="AP030,1,28,1,0,14,1,8,JPN" xlink:title="AP030" d="M13615.0192,-3613.9935L13615.2206,-3613.9732L13615.4907,-3613.8866L13615.6494,-3613.7733L13615.9302,-3613.5067L13616.04,-3613.3999L13616.1499,-3613.2534L13616.3803,-3612.9467L13616.6306,-3612.5866L13616.7206,-3612.4065L13616.7694,-3612.2799L13616.7892,-3612.0132L13616.8304,-3611.7065L13616.9006,-3611.4132L13617.1097,-3611.0733L13617.2195,-3610.8601L13617.2897,-3610.7666L13617.5201,-3610.5331L13617.7002,-3610.3199L13617.7704,-3610.1933L13617.8802,-3610.0132L13617.9306,-3609.8866L13617.9306,-3609.7935L13617.8299,-3609.7069L13617.7704,-3609.56L13617.7704,-3609.3468L13617.8604,-3609.2731L13618.0603,-3609.1999L13618.3304,-3609.1267L13618.4494,-3609.0935L13618.4692,-3609.0733L13618.5196,-3608.9668L13618.5394,-3608.8402L13618.6096,-3608.7666L13618.8995,-3608.5869L13619.0598,-3608.4801"/>
<path content="AP030,1,28,1,0,15,1,8,JPN" xlink:title="AP030" d="M13622.905,-3609.5898L13623.6801,-3608.4267"/>
<path content="AP030,1,28,1,0,14,1,8,JPN" xlink:title="AP030" d="M13623.6801,-3608.4267L13623.7701,-3608.4267L13624.7696,-3608.5335"/>
<path content="AP030,1,28,1,0,14,1,8,JPN" xlink:title="AP030" d="M13632.5806,-3609.8866L13632.4493,-3609.94L13632.0404,-3610.0468L13631.7398,-3610.0468L13631.4301,-3609.9934L13630.9296,-3609.8331L13630.6107,-3609.6535L13630.4901,-3609.5798L13630.5145,-3609.4372L13630.5206,-3609.4002L13630.4703,-3609.3067L13630.13,-3609.2201L13629.8294,-3609.1667L13629.6494,-3609.1267L13629.4006,-3609.0534L13629.1107,-3608.9867L13629.0207,-3608.9668L13628.6499,-3608.9466L13628.2898,-3608.9466L13628.2898,-3608.7666L13628.2898,-3608.6399L13628.2898,-3608.4267"/>
<path content="AP030,1,28,1,0,15,1,8,JPN" xlink:title="AP030" d="M13632.8094,-3610.4069L13634.3872,-3609.7187L13635.7986,-3609.7443L13638.3896,-3608.8444L13639.6606,-3608.7757L13640.625,-3608.683"/>
<path content="AP030,1,28,1,0,16,1,8,JPN" xlink:title="AP030" d="M13627.9297,-3613.9L13627.8305,-3613.6868L13627.7206,-3613.3266L13627.7206,-3613.1065L13627.7893,-3612.8601L13627.9007,-3612.5534L13628.0594,-3612.0998L13628.1799,-3611.5932L13628.2196,-3611.2534L13628.2394,-3610.8398L13628.0807,-3610.3199L13627.8793,-3609.6867L13627.8305,-3609.3266L13627.8625,-3609.0565L13627.9007,-3608.7334L13627.9007,-3608.6067L13627.8931,-3608.408"/>
<path content="AP030,1,28,1,0,14,1,8,JPN" xlink:title="AP030" d="M13626.857,-3608.5888L13626.8799,-3608.5869L13627.2202,-3608.5335L13627.6306,-3608.4599L13627.8931,-3608.408"/>
<path content="AP030,1,28,1,0,14,1,8,JPN" xlink:title="AP030" d="M13627.8931,-3608.408L13628.0807,-3608.4068L13628.2898,-3608.4267"/>
<path content="AP030,1,28,1,0,14,1,8,JPN" xlink:title="AP030" d="M13622.4899,-3608.3534L13622.6501,-3608.3733L13622.8104,-3608.3733L13623.1216,-3608.3923L13623.6801,-3608.4267"/>
<path content="AP030,1,28,1,0,15,1,8,JPN" xlink:title="AP030" d="M13622.4899,-3608.3534L13622.7524,-3609.1339L13622.905,-3609.5898"/>
<path content="AP030,1,28,1,0,14,1,8,JPN" xlink:title="AP030" d="M13621.4005,-3608.3L13622.4899,-3608.3534"/>
<path content="AP030,1,28,1,0,15,1,8,JPN" xlink:title="AP030" d="M13621.1273,-3610.5415L13621.3425,-3609.3948L13621.4005,-3608.3"/>
<path content="AP030,1,28,1,0,14,1,8,JPN" xlink:title="AP030" d="M13632.5806,-3609.8866L13632.5363,-3609.6985L13632.4905,-3609.5798L13632.4707,-3609.4532L13632.4707,-3609.3468L13632.3593,-3609.2731L13632.2403,-3609.1999L13632.1106,-3609.0401L13632.0206,-3608.9466L13631.8604,-3608.86L13631.72,-3608.82L13631.6498,-3608.7132L13631.6101,-3608.5335L13631.6498,-3608.2466"/>
<path content="AP030,1,28,1,0,14,1,8,JPN" xlink:title="AP030" d="M13631.4301,-3608.2066L13631.5598,-3608.2466L13631.6498,-3608.2466"/>
<path content="AP030,1,28,1,0,14,1,8,JPN" xlink:title="AP030" d="M13619.0598,-3608.4801L13619.5206,-3608.1932L13619.7205,-3608.1734L13620.1294,-3608.1932L13620.5399,-3608.2268L13620.6223,-3608.231L13620.9305,-3608.2466L13621.4005,-3608.3"/>
<path content="AP030,1,28,1,0,14,1,4,JPN" xlink:title="AP030" d="M13630.04,-3608.0467L13630.2704,-3608.0666L13630.9296,-3608.12L13631.3293,-3608.1932L13631.4301,-3608.2066"/>
<path content="AP030,1,28,1,0,14,1,8,JPN" xlink:title="AP030" d="M13628.2898,-3608.4267L13628.4897,-3608.4599L13628.9001,-3608.4801L13629.1107,-3608.4267L13629.3594,-3608.3L13629.4693,-3608.2268L13629.6799,-3608.0666L13629.7195,-3608.0666L13629.8294,-3608.0467L13630.04,-3608.0467"/>
<path content="AP030,1,28,1,0,14,1,8,JPN" xlink:title="AP030" d="M13638.5406,-3608.2466L13638.1104,-3608.3534L13637.3993,-3608.4999L13637.1796,-3608.5869L13636.9705,-3608.7334L13636.8607,-3608.7868L13636.4899,-3608.8932L13636.2198,-3608.9466L13636.0199,-3608.9134L13635.9299,-3608.9134L13635.7697,-3608.9134L13635.6293,-3608.9466L13635.4294,-3608.9668L13635.1501,-3608.9466L13634.6802,-3608.9867L13634.0805,-3609.0935L13633.6105,-3609.2201L13633.2397,-3609.4334L13632.93,-3609.6867L13632.6996,-3609.8331L13632.5806,-3609.8866"/>
<path content="AP030,1,28,1,0,14,1,8,JPN" xlink:title="AP030" d="M13624.7696,-3608.5335L13624.5407,-3608.12L13624.4507,-3607.9735L13624.4064,-3607.8075L13624.3805,-3607.7068L13624.3607,-3607.6332"/>
<path content="AP030,1,28,1,0,15,1,8,JPN" xlink:title="AP030" d="M13623.8297,-3607.539L13624.0845,-3607.584L13624.3607,-3607.6332"/>
<path content="AP030,1,28,1,0,15,1,8,JPN" xlink:title="AP030" d="M13623.6801,-3608.4267L13623.8297,-3607.539"/>
<path content="AP030,1,28,1,0,15,1,8,JPN" xlink:title="AP030" d="M13621.4005,-3608.3L13621.2372,-3607.489"/>
<path content="AP030,1,28,1,0,15,1,8,JPN" xlink:title="AP030" d="M13620.134,-3607.4303L13620.932,-3607.473L13621.2372,-3607.489"/>
<path content="AP030,1,28,1,0,15,1,8,JPN" xlink:title="AP030" d="M13619.0598,-3608.4801L13620.134,-3607.4303"/>
<path content="AP030,1,28,1,0,14,1,8,JPN" xlink:title="AP030" d="M13609.8602,-3614.6198L13609.6802,-3614.5668L13609.3796,-3614.5668L13609.0805,-3614.4798L13608.6105,-3614.2265L13608.2703,-3613.9935L13608.1497,-3613.8466L13608.1299,-3613.8134L13608.0597,-3613.6333L13607.93,-3613.3801L13607.8094,-3613.2866L13607.5195,-3613.1268L13607.1503,-3612.9269L13606.9305,-3612.8201L13606.5796,-3612.6934L13606.3293,-3612.64L13606.1295,-3612.6202L13606.0394,-3612.6068L13605.9692,-3612.6068L13605.7205,-3612.4268L13605.6107,-3612.3199L13605.5405,-3612.2601L13605.5206,-3612.1201L13605.4306,-3611.9934L13605.2704,-3611.8668L13605.0797,-3611.7401L13604.9896,-3611.5799L13604.9698,-3611.4132L13604.9301,-3611.2202L13604.9301,-3610.9867L13604.9301,-3610.9467L13604.8294,-3610.82L13604.5593,-3610.6602L13604.4006,-3610.5534L13604.2694,-3610.4401L13604.1306,-3610.3733L13603.9001,-3610.3199L13603.7704,-3610.2467L13603.6804,-3610.1532L13603.5202,-3609.94L13603.3997,-3609.8133L13603.3295,-3609.6535L13603.2196,-3609.6134L13603.1097,-3609.5798L13603.0807,-3609.5268L13603.1097,-3609.38L13603.1296,-3609.1667L13603.1296,-3608.9668L13603.1799,-3608.86L13603.1799,-3608.68L13603.0396,-3608.44L13602.9694,-3608.2802L13602.9297,-3608.1932L13602.8595,-3608.0666L13602.7695,-3607.9933L13602.6993,-3607.8667L13602.6794,-3607.7068L13602.5604,-3607.56L13602.5803,-3607.4333L13602.6794,-3607.3269L13602.6794,-3607.2533"/>
<path content="AP030,1,28,1,0,15,1,8,JPN" xlink:title="AP030" d="M13622.4899,-3608.3534L13621.7575,-3607.6462L13621.1533,-3607.0629L13621.8353,-3607.1842L13623.3551,-3607.4547L13623.4497,-3607.4715L13623.8297,-3607.539"/>
<path content="AP030,1,28,1,0,15,1,8,JPN" xlink:title="AP030" d="M13618.2602,-3606.8352L13618.8156,-3607.1056L13620.134,-3607.4303"/>
<path content="AP030,1,28,1,0,15,1,8,JPN" xlink:title="AP030" d="M13614.1098,-3613.8466L13614.3478,-3612.7186L13614.1312,-3611.9041L13614.3311,-3611.1378L13614.2136,-3610.5751L13613.2996,-3609.9186L13612.6099,-3609.9522L13612.0819,-3609.2491L13611.6745,-3608.427L13610.6583,-3608.1997L13609.6573,-3607.7248L13609.227,-3606.654"/>
<path content="AP030,1,28,1,0,15,1,8,JPN" xlink:title="AP030" d="M13621.2372,-3607.489L13621.048,-3606.5365"/>
<path content="AP030,1,28,1,0,15,1,8,JPN" xlink:title="AP030" d="M13620.134,-3607.4303L13621.048,-3606.5365"/>
<path content="AP030,1,28,1,0,15,1,8,JPN" xlink:title="AP030" d="M13618.2602,-3606.8352L13618.8538,-3606.4873L13619.6762,-3606.7684L13621.048,-3606.5365"/>
<path content="AP030,1,28,1,0,15,1,8,JPN" xlink:title="AP030" d="M13602.6794,-3607.2533L13604.0741,-3607.2777L13605.0446,-3607.0389L13606.3095,-3606.9366L13606.633,-3606.6399L13606.7368,-3606.2107L13607.2815,-3606.0471L13608.223,-3606.2408L13609.227,-3606.654"/>
<path content="AP030,1,28,1,0,16,1,8,JPN" xlink:title="AP030" d="M13627.8931,-3608.408L13627.8793,-3608.0666L13627.7695,-3607.5066L13627.4307,-3606.6399L13627.0401,-3605.8334"/>
<path content="AP030,1,28,1,0,15,1,8,JPN" xlink:title="AP030" d="M13626.857,-3608.5888L13626.7181,-3607.0644L13627.0401,-3605.8334"/>
<path content="AP030,1,28,1,0,14,1,8,JPN" xlink:title="AP030" d="M13631.6498,-3608.2466L13631.7398,-3607.9933L13631.9305,-3607.6534L13632.0206,-3607.3799L13632.1106,-3607.1468L13632.1793,-3607.0202L13632.5394,-3606.9134L13632.9697,-3606.7665L13633.4305,-3606.5868L13633.7402,-3606.48L13633.8806,-3606.48L13634.0591,-3606.5079L13634.2194,-3606.5334L13634.3597,-3606.5334L13634.4696,-3606.48L13634.5596,-3606.4068L13634.61,-3606.3L13634.7198,-3606.2466L13634.8099,-3606.2267L13634.8602,-3606.1199L13634.9304,-3606.0135L13635.08,-3605.9399L13635.1807,-3605.8666L13635.2203,-3605.6332L13635.2203,-3605.5599"/>
<path content="AP030,1,28,1,0,15,1,8,JPN" xlink:title="AP030" d="M13618.541,-3605.4264L13619.6182,-3605.5145L13621.0646,-3606.0205"/>
<path content="AP030,1,28,1,0,15,1,8,JPN" xlink:title="AP030" d="M13618.541,-3605.4264L13618.2602,-3606.8352"/>
<path content="AP030,1,28,1,0,14,1,8,JPN" xlink:title="AP030" d="M13602.6794,-3607.2533L13602.6093,-3607.0732L13602.5604,-3606.9866L13602.4704,-3606.9466L13602.3605,-3606.9466L13602.24,-3606.9668L13602.2003,-3606.9134L13602.15,-3606.7665L13602.1301,-3606.6601L13602.0599,-3606.5334L13602.0599,-3606.2466L13602.0798,-3606.0467L13602.0401,-3605.8666L13602.0203,-3605.6866L13601.9302,-3605.5267L13601.8295,-3605.4333L13601.77,-3605.3066"/>
<path content="AP030,1,28,1,0,14,1,8,JPN" xlink:title="AP030" d="M13624.3607,-3607.6332L13624.2905,-3607.3467L13624.2706,-3607.1667L13624.2401,-3607.0732L13624.2203,-3606.6601L13624.1806,-3606.3732L13624.1806,-3606.1733L13624.1806,-3606.1199L13624.1806,-3605.5065L13624.1806,-3605.1998"/>
<path content="AP030,1,28,1,0,15,1,8,JPN" xlink:title="AP030" d="M13610.9863,-3604.7432L13613.4964,-3606.1157L13615.0742,-3606.5205L13617.3141,-3607.3238L13618.2602,-3606.8352"/>
<path content="AP030,1,28,1,0,15,1,8,JPN" xlink:title="AP030" d="M13609.227,-3606.654L13609.7412,-3606.3652L13610.0922,-3605.6358L13610.9314,-3605.0198L13610.9863,-3604.7432"/>
<path content="AP030,1,28,1,0,15,1,8,JPN" xlink:title="AP030" d="M13618.5898,-3604.5559L13620.1004,-3604.8023L13621.1838,-3605.1868"/>
<path content="AP030,1,28,1,0,15,1,8,JPN" xlink:title="AP030" d="M13618.541,-3605.4264L13618.5898,-3604.5559"/>
<path content="AP030,1,28,1,0,16,1,8,JPN" xlink:title="AP030" d="M13633.3603,-3604.2801L13633.4305,-3604.4067L13633.4,-3604.5868L13633.4503,-3604.66L13633.5602,-3604.7668L13633.6304,-3604.7668L13633.6105,-3604.66L13633.7006,-3604.62L13633.7692,-3604.7333L13633.8806,-3604.8931L13634.5398,-3605.04L13634.6497,-3605.1468L13634.79,-3605.1998L13634.8602,-3605.3066L13634.9304,-3605.3268L13634.9701,-3605.3066L13634.9503,-3605.2532L13634.8801,-3605.1468L13634.9304,-3605.1468L13635.0403,-3605.1998L13635.1501,-3605.3268L13635.2005,-3605.4531L13635.2203,-3605.5599"/>
<path content="AP030,1,28,1,0,14,1,8,JPN" xlink:title="AP030" d="M13623.1995,-3604.1199L13623.5199,-3604.4067L13623.79,-3604.5868L13623.8098,-3604.6066L13623.9899,-3604.7867L13624.1501,-3604.9465L13624.1806,-3605.0934L13624.1806,-3605.1998"/>
<path content="AP030,1,28,1,0,15,1,8,JPN" xlink:title="AP030" d="M13621.1838,-3605.1868L13621.6309,-3605.1659L13621.8246,-3605.1567L13622.2549,-3605.1365L13622.9218,-3604.8534L13623.1995,-3604.1199"/>
<path content="AP030,1,28,1,0,14,1,8,JPN" xlink:title="AP030" d="M13623.0606,-3603.9734L13623.1995,-3604.1199"/>
<path content="AP030,1,28,1,0,15,1,8,JPN" xlink:title="AP030" d="M13627.0401,-3605.8334L13627.2156,-3604.7897L13626.7166,-3604.0642L13626.0803,-3603.8132"/>
<path content="AP030,1,28,1,0,16,1,8,JPN" xlink:title="AP030" d="M13627.0401,-3605.8334L13626.6098,-3604.8599L13626.3306,-3604.3201L13626.2695,-3604.2267L13626.0803,-3603.8132"/>
<path content="AP030,1,28,1,0,16,1,8,JPN" xlink:title="AP030" d="M13626.0803,-3603.8132L13625.8301,-3603.5599L13625.7858,-3603.5198"/>
<path content="AP030,1,28,1,0,14,1,8,JPN" xlink:title="AP030" d="M13624.1806,-3605.1998L13624.4507,-3605.0934L13624.7406,-3604.9667L13624.9695,-3604.7867L13625.0793,-3604.6398L13625.1297,-3604.4998L13625.3799,-3604.1L13625.6104,-3603.7601L13625.7004,-3603.6331L13625.7858,-3603.5198"/>
<path content="AP030,1,28,1,0,15,1,8,JPN" xlink:title="AP030" d="M13626.0803,-3603.8132L13625.8968,-3603.5902L13625.8102,-3603.4866"/>
<path content="AP030,1,28,1,0,14,1,8,JPN" xlink:title="AP030" d="M13625.7858,-3603.5198L13625.8102,-3603.4866"/>
<path content="AP030,1,28,1,0,15,1,8,JPN" xlink:title="AP030" d="M13621.1838,-3605.1868L13621.2494,-3603.4851"/>
<path content="AP030,1,28,1,0,15,1,8,JPN" xlink:title="AP030" d="M13618.5898,-3604.5559L13618.7927,-3603.7273L13619.5343,-3603.4473L13621.2494,-3603.4851"/>
<path content="AP030,1,28,1,0,14,1,8,JPN" xlink:title="AP030" d="M13623.0606,-3603.9734L13622.8806,-3603.6667L13622.7249,-3603.4603L13622.5601,-3603.1265"/>
<path content="AP030,1,28,1,0,15,1,8,JPN" xlink:title="AP030" d="M13621.2494,-3603.4851L13621.3806,-3603.4496L13621.8811,-3603.3123L13622.5601,-3603.1265"/>
<path content="AP030,1,28,1,0,15,1,8,JPN" xlink:title="AP030" d="M13601.77,-3605.3066L13603.241,-3605.0735L13603.5645,-3604.7211L13604.4266,-3603.5748L13605.3955,-3602.4281L13606.366,-3602.4281"/>
<path content="AP030,1,28,1,0,16,1,8,JPN" xlink:title="AP030" d="M13623.3795,-3602.2469L13623.7198,-3602.4601L13624.1592,-3602.6825L13624.2203,-3602.7134L13624.8596,-3602.9999L13625.2197,-3603.1799L13625.4898,-3603.3066L13625.6302,-3603.3798L13625.7858,-3603.5198"/>
<path content="AP030,1,28,1,0,15,1,8,JPN" xlink:title="AP030" d="M13623.0606,-3603.9734L13623.2758,-3603.4111L13623.3002,-3603.1364L13623.3795,-3602.2469"/>
<path content="AP030,1,28,1,0,14,1,8,JPN" xlink:title="AP030" d="M13633.3603,-3604.2801L13633.3099,-3604.1931L13633.1802,-3603.8666L13633.11,-3603.5599L13633.0795,-3603.3798L13632.8598,-3603.1799L13632.7393,-3603.0933L13632.6996,-3603.0201L13632.6797,-3602.9667L13632.5394,-3602.9469L13632.4005,-3602.8934L13632.2693,-3602.7866L13632.1503,-3602.66L13632.1304,-3602.5867L13632.1304,-3602.3869L13632.1136,-3602.3628L13632.0602,-3602.28L13631.9702,-3602.1534"/>
<path content="AP030,1,28,1,0,15,1,8,JPN" xlink:title="AP030" d="M13610.9863,-3604.7432L13610.7269,-3603.4004L13611.4059,-3602.9015L13611.6577,-3601.9871"/>
<path content="AP030,1,28,1,0,15,1,8,JPN" xlink:title="AP030" d="M13612.1841,-3601.9871L13613.2614,-3602.5162L13614.1235,-3603.3981L13614.9826,-3604.2946L13617.0319,-3604.5444L13618.0023,-3605.2502L13618.541,-3605.4264"/>
<path content="AP030,1,28,1,0,15,1,8,JPN" xlink:title="AP030" d="M13611.6577,-3601.9871L13612.1841,-3601.9871"/>
<path content="AP030,1,28,1,0,15,1,8,JPN" xlink:title="AP030" d="M13606.366,-3602.4281L13607.0129,-3602.7809L13607.7667,-3602.869L13608.4137,-3602.5162L13609.0591,-3601.9871L13609.5978,-3601.899L13610.2448,-3601.9871L13611.6577,-3601.9871"/>
<path content="AP030,1,28,1,0,14,1,8,JPN" xlink:title="AP030" d="M13631.9702,-3602.1534L13632.0801,-3601.9932L13632.1503,-3601.8665L13632.2205,-3601.8467"/>
<path content="AP030,1,28,1,0,14,1,8,JPN" xlink:title="AP030" d="M13625.8102,-3603.4866L13626.0406,-3603.3066L13626.3794,-3603.1265L13627.24,-3602.8732L13629.1534,-3602.1713"/>
<path content="AP030,1,28,1,0,15,1,8,JPN" xlink:title="AP030" d="M13632.2205,-3601.8467L13632.219,-3601.8396"/>
<path content="AP030,1,28,1,0,14,1,8,JPN" xlink:title="AP030" d="M13632.0409,-3600.9681L13632.6425,-3600.865L13633.0722,-3600.7619L13633.8628,-3600.7103L13634.602,-3600.7103"/>
<path content="AP030,1,28,1,0,14,1,8,JPN" xlink:title="AP030" d="M13631.9702,-3602.1534L13631.8298,-3602.2068L13631.1798,-3602.1935L13631.1493,-3602.1L13630.9296,-3602.0267L13630.8594,-3601.9531L13630.7907,-3601.4668L13630.719,-3601.3065"/>
<path content="AP030,1,28,1,0,14,1,8,JPN" xlink:title="AP030" d="M13629.1534,-3602.1713L13630.273,-3601.6903L13630.719,-3601.3065"/>
<path content="AP030,1,28,1,0,14,1,8,JPN" xlink:title="AP030" d="M13630.719,-3601.3065L13631.4737,-3601.1056L13632.0409,-3600.9681"/>
<path content="AP030,1,28,1,0,15,1,8,JPN" xlink:title="AP030" d="M13625.8102,-3603.4866L13625.6485,-3602.5509L13625.8957,-3602.0607L13625.9018,-3601.8742L13625.943,-3600.6508"/>
<path content="AP030,1,28,1,0,15,1,8,JPN" xlink:title="AP030" d="M13623.3795,-3602.2469L13623.4161,-3601.7269L13624.8016,-3601.5762L13624.8093,-3600.8411L13625.943,-3600.6508"/>
<path content="AP030,1,28,1,0,14,1,8,JPN" xlink:title="AP030" d="M13636.2198,-3600.1331L13636.4304,-3600.0267L13636.6302,-3599.9931L13636.8103,-3600.0134L13636.9507,-3600.0267L13637.2696,-3600.0797L13637.4496,-3600.0999L13637.6099,-3600.1331L13637.6999,-3600.2068L13637.9303,-3600.2998L13637.9898,-3600.3201L13638.0402,-3600.4066L13638.1104,-3600.4799L13638.3804,-3600.6065L13638.5605,-3600.7465L13638.8596,-3600.8732L13639.1495,-3600.9666L13639.4302,-3600.9266L13639.7003,-3600.8202L13639.9902,-3600.6931L13640.0406,-3600.6802L13640.3305,-3600.5333L13640.5594,-3600.4066L13640.625,-3600.3435"/>
<path content="AP030,1,28,1,0,15,1,8,JPN" xlink:title="AP030" d="M13609.3845,-3599.1618L13609.7885,-3599.4583L13610.5988,-3600.5447L13611.7661,-3601.3981L13612.1841,-3601.9871"/>
<path content="AP030,1,28,1,0,15,1,8,JPN" xlink:title="AP030" d="M13608.8043,-3598.7362L13609.3845,-3599.1618"/>
<path content="AP030,1,28,1,0,15,1,8,JPN" xlink:title="AP030" d="M13606.366,-3602.4281L13606.3263,-3601.7944L13607.1121,-3600.8045L13607.9025,-3600.3723L13608.2047,-3599.7959L13608.8043,-3598.7362"/>
<path content="AP030,1,28,1,0,15,1,8,JPN" xlink:title="AP030" d="M13621.2494,-3603.4851L13620.6741,-3602.285L13619.6884,-3600.2934L13618.3563,-3598.381"/>
<path content="AP030,1,28,1,0,15,1,8,JPN" xlink:title="AP030" d="M13613.8519,-3597.858L13614.5645,-3598.0419L13616.0934,-3597.9797L13616.5771,-3598.1853L13617.0364,-3598.7617L13617.5339,-3598.7507L13618.3563,-3598.381"/>
<path content="AP030,1,28,1,0,15,1,8,JPN" xlink:title="AP030" d="M13613.8519,-3597.858L13613.9847,-3598.793L13614.447,-3599.3385L13614.5554,-3600.0553L13614.8132,-3600.8404L13614.7446,-3601.9527L13615.2588,-3602.9034L13615.7944,-3603.4824L13616.6016,-3603.3913L13617.4011,-3604.0432L13618.5898,-3604.5559"/>
<path content="AP030,1,28,1,0,15,1,8,JPN" xlink:title="AP030" d="M13612.4878,-3597.7406L13613.8519,-3597.858"/>
<path content="AP030,1,28,1,0,15,1,8,JPN" xlink:title="AP030" d="M13609.3845,-3599.1618L13610.5911,-3598.8094L13610.9451,-3598.6382L13610.8261,-3598.1064L13611.1496,-3597.81L13612.0941,-3597.9416L13612.4878,-3597.7406"/>
<path content="AP030,1,28,1,0,15,1,8,JPN" xlink:title="AP030" d="M13612.4878,-3597.7406L13612.5595,-3597.3465"/>
<path content="AP030,1,28,1,0,14,1,8,JPN" xlink:title="AP030" d="M13612.5595,-3597.3465L13612.7701,-3597.3465L13612.8296,-3597.3465L13613.1104,-3597.3465"/>
<path content="AP030,1,28,1,0,15,1,8,JPN" xlink:title="AP030" d="M13618.3563,-3598.381L13617.5598,-3597.2866"/>
<path content="AP030,1,28,1,0,14,1,8,JPN" xlink:title="AP030" d="M13613.1104,-3597.3465L13613.7695,-3597.3465L13614.6301,-3597.3465L13614.6805,-3597.3465L13615.4495,-3597.3064L13615.86,-3597.3064L13616.4001,-3597.3064L13617.5598,-3597.2866"/>
<path content="AP030,1,28,1,0,15,1,8,JPN" xlink:title="AP030" d="M13605.7693,-3596.1533L13605.7877,-3597.0013L13606.1264,-3597.6658L13607.1548,-3598.2967L13607.3608,-3598.6462L13608.2016,-3598.6187L13608.8043,-3598.7362"/>
<path content="AP030,1,28,1,0,15,1,8,JPN" xlink:title="AP030" d="M13636.2198,-3600.1331L13636.1313,-3599.966L13635.7635,-3599.2706L13636.0123,-3598.7213L13636.8744,-3598.2254L13637.1506,-3597.8241L13637.0361,-3597.3198L13636.6699,-3596.7762L13636.6104,-3595.9198"/>
<path content="AP030,1,28,1,0,14,1,8,JPN" xlink:title="AP030" d="M13605.7693,-3596.1533L13606.1096,-3595.9732L13606.1493,-3595.9534L13606.7398,-3595.8668L13606.8604,-3595.8866L13607.0404,-3595.9534L13607.1304,-3596.0133L13607.3105,-3596.0464L13607.4707,-3596.0667L13607.7896,-3596.0667L13608.4702,-3595.9732L13608.6105,-3596.0133L13608.9294,-3596.1731L13609.1293,-3596.1533L13609.2697,-3596.1533L13609.5398,-3596.32L13609.9304,-3596.3531L13610.0403,-3596.4066L13610.1105,-3596.5L13610.2005,-3596.5134L13610.3302,-3596.5L13610.5392,-3596.46L13611.0794,-3596.2601L13611.2,-3596.2601L13611.2198,-3596.2601L13611.29,-3596.32L13611.3602,-3596.3867L13611.3297,-3596.6599L13611.3602,-3596.7133L13611.6806,-3596.9131L13611.8103,-3596.9467L13611.9003,-3596.9467L13612.1994,-3596.9868L13612.2696,-3597.02L13612.3306,-3597.0531L13612.3596,-3597.2332L13612.3596,-3597.2733L13612.4298,-3597.3267L13612.4893,-3597.3267L13612.5595,-3597.3465"/>
<path content="AP030,1,28,1,0,14,1,8,JPN" xlink:title="AP030" d="M13636.6104,-3595.9198L13636.7706,-3595.8668L13636.8103,-3595.8668L13636.9293,-3595.8866L13637.0407,-3595.9534L13637.0605,-3596.1933L13637.1094,-3596.2067L13637.1994,-3596.2265L13637.2696,-3596.2067L13637.3093,-3596.0667L13637.3795,-3596.0133L13637.8998,-3595.9732L13637.9303,-3596.0266L13638.0203,-3596.1533L13638.2004,-3596.2265L13638.3102,-3596.3867L13638.3804,-3596.4397L13638.6795,-3596.46L13638.8794,-3596.3734L13639.1098,-3596.3867L13639.4302,-3596.2799L13639.9704,-3596.3531L13640.0604,-3596.32L13640.1993,-3596.2265L13640.3107,-3596.2265L13640.625,-3596.2265"/>
<path content="AP030,1,28,1,0,14,1,8,JPN" xlink:title="AP030" d="M13598.1796,-3595.5601L13598.3795,-3595.7066L13598.7701,-3595.9198L13598.97,-3595.94L13599.1806,-3596.0999L13599.2401,-3596.0999L13599.3301,-3596.0133L13599.5407,-3596.0133L13599.6796,-3595.94L13599.7192,-3595.9198L13599.8993,-3595.7932L13599.9893,-3595.76L13600.1801,-3595.7397L13600.2197,-3595.7199L13600.3098,-3595.7199L13600.5203,-3595.7397L13600.7904,-3595.7932L13600.9506,-3595.7932L13601.0193,-3595.76L13601.2405,-3595.6532L13601.4893,-3595.6131L13601.6998,-3595.6665L13601.9897,-3595.76L13602.1103,-3595.7733L13602.5192,-3595.6532L13602.7206,-3595.6867L13602.9694,-3595.7733L13603.2898,-3595.94L13603.3295,-3595.9732L13603.3798,-3595.993L13603.6499,-3596.0266L13603.9001,-3596.0999L13604.8096,-3596.1201L13605.7693,-3596.1533"/>
<path content="AP030,1,28,1,0,14,1,8,JPN" xlink:title="AP030" d="M13601.77,-3605.3066L13601.68,-3605.22L13601.6495,-3605.1666L13601.7395,-3605.0732L13601.77,-3604.9667L13601.7197,-3604.8931L13601.5594,-3604.7466L13601.3992,-3604.66L13601.2894,-3604.6066L13601.2894,-3604.4601L13601.2695,-3604.2801L13601.2695,-3604.1L13601.3107,-3603.92L13601.3596,-3603.7399L13601.3596,-3603.5267L13601.1795,-3603.3066L13601.1093,-3603.22L13600.9293,-3603.0731L13600.8102,-3602.9469L13600.5203,-3602.7668L13600.3998,-3602.6798L13600.1801,-3602.3731L13599.9893,-3602.1534L13599.8795,-3602.0466L13599.8795,-3601.9199L13599.8306,-3601.8333L13599.7406,-3601.7399L13599.6796,-3601.6869L13599.1302,-3601.2531L13599.0799,-3601.2001L13599.0402,-3601.1799L13598.8998,-3601.1665L13598.4695,-3600.7668L13598.3597,-3600.7332L13598.2407,-3600.7332L13598.1796,-3600.7133L13598.1094,-3600.6401L13598.0606,-3600.5669L13597.9904,-3600.5135L13597.4503,-3600.3201L13597.3801,-3600.2266L13597.2198,-3600.0797L13596.8994,-3599.9931L13596.5195,-3599.5934L13596.5607,-3599.3999L13596.5607,-3599.3065L13596.5607,-3599.1066L13596.5195,-3599.0532L13596.3593,-3598.9132L13596.3303,-3598.8598L13596.3303,-3598.6401L13596.2006,-3598.4798L13595.99,-3598.3334L13595.99,-3598.1533L13596.1304,-3597.9198L13596.1105,-3597.6868L13596.1304,-3597.5067L13596.3303,-3597.253L13596.7697,-3596.9868L13596.8994,-3596.8597L13596.8796,-3596.693L13596.8994,-3596.6064L13597.0398,-3596.4066L13597.2397,-3596.2601L13597.3602,-3596.1201L13597.5204,-3595.94L13597.6105,-3595.8466L13597.7203,-3595.76L13598.1796,-3595.5601"/>
<path content="AP030,1,28,1,0,14,1,8,JPN" xlink:title="AP030" d="M13617.5598,-3597.2866L13617.9901,-3597.2733L13617.9901,-3597.02L13617.9901,-3596.7331L13618.0206,-3596.46L13618.0405,-3596.3333L13618.1793,-3596.2067L13618.3105,-3596.0667L13618.4006,-3595.9L13618.4296,-3595.7932L13618.4296,-3595.7199L13618.4296,-3595.6131L13618.4296,-3595.5799L13618.3594,-3595.4865L13618.3304,-3595.4132L13618.3105,-3595.3266L13618.3105,-3595.1797L13618.2007,-3595.0001L13618.0603,-3594.7865"/>
<path content="AP030,1,28,1,0,14,1,8,JPN" xlink:title="AP030" d="M13618.0603,-3594.7865L13618.0405,-3594.7468L13618.0405,-3594.733L13618.161,-3594.7266L13618.2997,-3594.7188"/>
<path content="AP030,1,28,1,0,14,1,8,JPN" xlink:title="AP030" d="M13622.5601,-3603.1265L13622.3999,-3602.9469L13622.0795,-3602.6798L13621.9284,-3602.5291L13621.7194,-3602.3201L13621.4294,-3602.1L13621.3303,-3602.0134L13621.2204,-3601.8867L13621.0602,-3601.7067L13620.9702,-3601.5068L13620.9,-3601.0933L13620.8603,-3600.8202L13620.8298,-3600.6802L13620.7901,-3600.4799L13620.7703,-3600.3201L13620.7397,-3600.1732L13620.6802,-3599.9531L13620.61,-3599.7601L13620.3995,-3599.4331L13620.3598,-3599.3465L13620.0394,-3599.1066L13619.9295,-3598.9265L13619.7906,-3598.7133L13619.31,-3597.5067L13618.7897,-3596.6064L13618.7195,-3596.1933L13618.7698,-3595.8332L13618.8599,-3595.6131L13618.9301,-3595.4865L13619.0125,-3595.3491L13619.4,-3594.9265L13619.4901,-3594.68"/>
<path content="AP030,1,28,1,0,14,1,8,JPN" xlink:title="AP030" d="M13618.2997,-3594.7188L13618.4006,-3594.7132L13618.5593,-3594.7132L13618.6096,-3594.7132L13618.9148,-3594.6915L13619.0796,-3594.68L13619.1299,-3594.68L13619.4901,-3594.68"/>
<path content="AP030,1,28,1,0,16,1,8,JPN" xlink:title="AP030" d="M13623.3795,-3602.2469L13623.0804,-3601.9733L13622.7707,-3601.6132L13622.58,-3601.2199L13622.3999,-3600.9666L13622.2198,-3600.7133L13621.9498,-3600.4398L13621.9299,-3600.4066L13621.8307,-3600.3201L13621.5195,-3600.0267L13621.4005,-3599.9001L13621.2402,-3599.7066L13621.1304,-3599.5266L13620.8603,-3599.1264L13620.6802,-3598.9132L13620.5399,-3598.5664L13620.3995,-3598.32L13620.3094,-3598.0801L13620.2698,-3597.813L13620.2698,-3597.4667L13620.3995,-3597.0531L13620.4498,-3596.8731L13620.4498,-3596.693L13620.4498,-3596.4066L13620.3598,-3596.0999L13620.2393,-3595.7397L13620.1797,-3595.6131L13620.1797,-3595.4666L13620.1492,-3595.3465L13620.1294,-3595.1797L13620.1294,-3594.7998L13620.1294,-3594.68"/>
<path content="AP030,1,28,1,0,14,1,8,JPN" xlink:title="AP030" d="M13619.4901,-3594.68L13620.1294,-3594.68"/>
<path content="AP030,1,28,1,0,14,1,8,JPN" xlink:title="AP030" d="M13620.1294,-3594.68L13620.3598,-3594.68L13620.4498,-3594.6598L13620.6299,-3594.5667"/>
<path content="AP030,1,28,1,0,15,1,8,JPN" xlink:title="AP030" d="M13618.2205,-3594.5141L13618.2997,-3594.7188"/>
<path content="AP030,1,28,1,0,15,1,8,JPN" xlink:title="AP030" d="M13624.2126,-3594.3909L13625.4456,-3594.8711L13626.149,-3594.9669L13627.2049,-3595.2072L13628.0853,-3595.639L13628.6133,-3596.0236L13628.9063,-3597.3679L13629.3762,-3598.6164L13629.9622,-3599.5766L13630.8426,-3600.201L13632.0409,-3600.9681"/>
<path content="AP030,1,28,1,0,15,1,8,JPN" xlink:title="AP030" d="M13625.943,-3600.6508L13625.6775,-3599.0517L13625.7446,-3598.5249L13625.5157,-3598.1335L13625.6607,-3597.5216L13624.9619,-3596.4939L13624.4553,-3595.2972L13624.2126,-3594.3909"/>
<path content="AP030,1,28,1,0,15,1,8,JPN" xlink:title="AP030" d="M13620.6299,-3594.5667L13621.6324,-3594.5827L13622.3953,-3594.5351L13623.0408,-3594.3909L13624.2126,-3594.3909"/>
<path content="AP030,1,28,1,0,14,1,8,JPN" xlink:title="AP030" d="M13636.6104,-3595.9198L13636.5799,-3595.9L13636.38,-3595.7066L13636.1801,-3595.5265L13636.1801,-3595.3999L13636.1099,-3595.3068L13635.9894,-3595.2534L13635.8597,-3595.2L13635.4904,-3595.2332L13635.2905,-3595.1797L13635.2203,-3595.0733L13635.2402,-3594.9265L13635.3302,-3594.7998L13635.4294,-3594.733L13635.6506,-3594.4599L13635.7193,-3594.4065L13635.8994,-3594.3867L13635.9894,-3594.3867L13635.9894,-3594.3531"/>
<path content="AP030,1,28,1,0,14,1,8,JPN" xlink:title="AP030" d="M13605.7693,-3596.1533L13605.8105,-3595.8332L13605.9494,-3595.3068L13605.9296,-3594.9665L13605.7907,-3594.1933L13605.8105,-3594.12L13605.8807,-3594.08L13605.9906,-3594.0132L13606.2698,-3593.9934"/>
<path content="AP030,1,28,1,0,15,1,8,JPN" xlink:title="AP030" d="M13613.1104,-3597.3465L13612.6083,-3596.3825L13612.1277,-3595.5265L13611.4334,-3595.0642L13611.2274,-3594.6842L13611.3556,-3593.8526"/>
<path content="AP030,1,28,1,0,15,1,8,JPN" xlink:title="AP030" d="M13611.3556,-3593.8526L13612.0758,-3593.9133L13612.4725,-3593.6504L13612.9242,-3593.7309L13613.7634,-3594.3535L13614.4699,-3594.6301L13615.5334,-3594.6732L13616.3193,-3594.9219L13618.0603,-3594.7865"/>
<path content="AP030,1,28,1,0,15,1,8,JPN" xlink:title="AP030" d="M13606.2698,-3593.9934L13606.2683,-3592.9626"/>
<path content="AP030,1,28,1,0,15,1,8,JPN" xlink:title="AP030" d="M13635.9894,-3594.3531L13637.2101,-3594.326L13637.4863,-3593.9541L13638.1729,-3593.3334L13639.093,-3593.0748L13640.2863,-3593.0618L13640.625,-3592.9343"/>
<path content="AP030,1,28,1,0,15,1,8,JPN" xlink:title="AP030" d="M13611.3556,-3593.8526L13611.171,-3593.1328L13611.3998,-3592.1932"/>
<path content="AP030,1,28,1,0,14,1,8,JPN" xlink:title="AP030" d="M13606.2698,-3593.9934L13606.3995,-3594.0468L13606.5399,-3594.1334L13606.6299,-3594.2799L13607.4295,-3594.1532L13608.3298,-3593.9934L13608.4305,-3594.0998L13608.4503,-3594.0998L13608.6502,-3593.9533L13608.9706,-3593.7599L13609.2697,-3593.4868L13609.5795,-3593.1801L13609.8602,-3592.9466L13609.9899,-3592.86L13610.1501,-3592.7998L13610.4706,-3592.6067L13610.5392,-3592.5865L13610.7193,-3592.5667L13610.8597,-3592.4999L13611.0199,-3592.4599L13611.0794,-3592.4267L13611.1099,-3592.3L13611.2,-3592.2264L13611.29,-3592.2066L13611.3998,-3592.1932"/>
<path content="AP030,1,28,1,0,15,1,8,JPN" xlink:title="AP030" d="M13624.2126,-3594.3909L13624.7559,-3592.691L13625.1801,-3591.9933"/>
<path content="AP030,1,28,1,0,14,1,8,JPN" xlink:title="AP030" d="M13625.1801,-3591.9933L13625.2701,-3591.9933"/>
<path content="AP030,1,28,1,0,14,1,8,JPN" xlink:title="AP030" d="M13598.1796,-3595.5601L13598.3307,-3595.4132L13598.5199,-3595.2866L13598.6801,-3595.0199L13598.7396,-3594.8933L13598.8098,-3594.64L13598.8602,-3594.4401L13598.8998,-3594.3733L13599.0402,-3594.3001L13599.3103,-3594.1933L13599.5804,-3593.7931L13599.6307,-3593.7065L13599.6796,-3593.6867L13599.7406,-3593.6531L13599.8093,-3593.5799L13599.8306,-3593.5265L13599.8596,-3593.4532L13599.8993,-3593.3266L13599.9298,-3593.2732L13599.9496,-3592.6399L13599.8306,-3592.3733L13599.8306,-3592.2466L13599.8093,-3592.0998L13599.8093,-3592.0467L13599.7406,-3591.8865L13599.7162,-3591.8404"/>
<path content="AP030,1,28,1,0,14,1,8,JPN" xlink:title="AP030" d="M13624.5193,-3591.7599L13624.6796,-3591.7732L13624.7696,-3591.7931L13625.1801,-3591.9933"/>
<path content="AP030,1,28,1,0,15,1,8,JPN" xlink:title="AP030" d="M13599.7162,-3591.8404L13600.5569,-3591.7034L13601.6663,-3591.6256L13603.3813,-3592.2237L13604.2816,-3592.4469L13605.2109,-3592.7952L13605.6381,-3593.2774L13606.2683,-3592.9626"/>
<path content="AP030,1,28,1,0,14,1,8,JPN" xlink:title="AP030" d="M13635.9894,-3594.3531L13635.9695,-3594.173L13636.1099,-3594.0132L13636.1298,-3593.8999L13636.1801,-3593.7199L13636.2198,-3593.5932L13636.2396,-3593.5799L13636.3297,-3593.4666L13636.3602,-3593.4334L13636.3602,-3593.38L13636.29,-3593.2732L13636.2,-3593.2533L13635.8597,-3593.3067L13635.7407,-3593.3067L13635.6995,-3593.2533L13635.6293,-3593.0931L13635.6506,-3593.0401L13635.6995,-3592.9466L13635.6796,-3592.86L13635.6293,-3592.86L13635.4904,-3592.86L13635.3607,-3592.8398L13635.3104,-3592.7467L13635.2203,-3592.6067L13635.1501,-3592.3531L13635.2005,-3592.0265L13635.2203,-3591.8865L13635.2707,-3591.7065L13635.3104,-3591.56L13635.3806,-3591.4532"/>
<path content="AP030,1,28,1,0,14,1,8,JPN" xlink:title="AP030" d="M13623.3795,-3591.4333L13623.5397,-3591.5264L13623.6298,-3591.5398L13623.79,-3591.5398L13623.79,-3591.6332L13624.0204,-3591.7931L13624.5193,-3591.7599"/>
<path content="AP030,1,28,1,0,14,1,8,JPN" xlink:title="AP030" d="M13620.6299,-3594.5667L13620.6497,-3594.2265L13620.6802,-3594.0266L13620.7199,-3593.94L13620.7703,-3593.7065L13620.9305,-3593.6333L13621.1502,-3593.4666L13621.2402,-3593.2865L13621.3806,-3593.0401L13621.3806,-3592.6933L13621.4294,-3592.6067L13621.4493,-3592.5533L13621.6507,-3592.4599L13621.8307,-3592.26L13621.9299,-3592.1333L13621.9696,-3591.7599L13622.0795,-3591.5398L13622.11,-3591.5264L13622.2397,-3591.56L13622.3297,-3591.5398L13622.5601,-3591.4333L13622.7905,-3591.4131L13623.2697,-3591.4131L13623.3795,-3591.4333"/>
<path content="AP030,1,28,1,0,15,1,8,JPN" xlink:title="AP030" d="M13625.2701,-3591.9933L13626.5594,-3592.8543L13627.6749,-3593.1423L13630.1392,-3593.1423L13631.488,-3592.9024L13631.9565,-3592.5182L13632.4265,-3591.8938L13632.8369,-3591.4139L13633.2474,-3591.2697L13634.3628,-3591.2697L13635.3806,-3591.4532"/>
<path content="AP030,1,28,1,0,15,1,8,JPN" xlink:title="AP030" d="M13620.1797,-3590.7131L13621.4554,-3591.2216L13622.5128,-3591.1736L13623.3795,-3591.4333"/>
<path content="AP030,1,28,1,0,16,1,8,JPN" xlink:title="AP030" d="M13620.1294,-3594.68L13620.1294,-3594.4065L13620.1294,-3594.0666L13620.1492,-3593.6665L13620.1492,-3593.0199L13620.1492,-3592.0265L13620.1492,-3591.8133L13620.1492,-3591.2197L13620.1797,-3590.7131"/>
<path content="AP030,1,28,1,0,15,1,8,JPN" xlink:title="AP030" d="M13618.2205,-3594.5141L13616.6458,-3592.9981L13615.9409,-3591.8461L13615.4297,-3590.5865"/>
<path content="AP030,1,28,1,0,14,1,8,JPN" xlink:title="AP030" d="M13611.3998,-3592.1932L13611.47,-3592.1932L13611.7706,-3592.2264L13612.0193,-3592.26L13612.1994,-3592.2466L13612.6297,-3592.0998L13612.6999,-3592.0666L13612.8296,-3592.0467L13612.9303,-3592.0799L13613.0402,-3592.0799L13613.15,-3592.0265L13613.2904,-3591.8865L13613.3102,-3591.8133L13613.6093,-3591.5932L13614.1998,-3591.1266L13614.6805,-3590.7467L13614.9002,-3590.62L13615.1794,-3590.6399L13615.4297,-3590.5865"/>
<path content="AP030,1,28,1,0,15,1,8,JPN" xlink:title="AP030" d="M13619.2261,-3590.5014L13620.1797,-3590.7131"/>
<path content="AP030,1,28,1,0,14,1,8,JPN" xlink:title="AP030" d="M13619.4901,-3594.68L13619.1498,-3593.9533L13618.9301,-3593.4666L13618.9301,-3593.2865L13619.0201,-3592.4801L13619.0201,-3592.3866L13619.2001,-3590.8199L13619.2261,-3590.5014"/>
<path content="AP030,1,28,1,0,15,1,8,JPN" xlink:title="AP030" d="M13618.2205,-3594.5141L13617.7078,-3593.3243L13617.5262,-3592.9024L13617.3706,-3592.5774L13617.1143,-3592.038L13616.9601,-3591.5192L13616.7526,-3590.8184L13616.5604,-3590.1733"/>
<path content="AP030,1,28,1,0,14,1,8,JPN" xlink:title="AP030" d="M13615.4297,-3590.1531L13615.9302,-3590.1932L13616.0599,-3590.1932L13616.4703,-3590.1733L13616.5604,-3590.1733"/>
<path content="AP030,1,28,1,0,14,1,8,JPN" xlink:title="AP030" d="M13615.4297,-3590.5865L13615.4297,-3590.1531"/>
<path content="AP030,1,28,1,0,15,1,8,JPN" xlink:title="AP030" d="M13606.2683,-3592.9626L13606.8924,-3592.7094L13607.3868,-3592.1101L13607.3654,-3591.2418L13607.9285,-3591.3578L13608.6472,-3591.4494L13609.137,-3590.9119L13610.2478,-3590.8024L13611.1313,-3590.6837L13612.4649,-3590.0562L13613.3347,-3590.1535L13614.328,-3590.1009L13615.4297,-3590.1531"/>
<path content="AP030,1,28,1,0,15,1,8,JPN" xlink:title="AP030" d="M13617.0197,-3589.9609L13618.3472,-3590.4053L13619.2261,-3590.5014"/>
<path content="AP030,1,28,1,0,15,1,8,JPN" xlink:title="AP030" d="M13616.5207,-3589.793L13617.0197,-3589.9609"/>
<path content="AP030,1,28,1,0,14,1,8,JPN" xlink:title="AP030" d="M13616.5604,-3590.1733L13616.5207,-3589.793"/>
<path content="AP030,1,28,1,0,16,1,8,JPN" xlink:title="AP030" d="M13620.1797,-3590.7131L13620.2194,-3590.3866L13620.2194,-3590.3198L13620.2393,-3590.1531L13620.2698,-3590.0467L13620.3598,-3589.793L13620.43,-3589.5397L13620.52,-3589.2864"/>
<path content="AP030,1,28,1,0,14,1,8,JPN" xlink:title="AP030" d="M13619.2261,-3590.5014L13619.22,-3590.1199L13619.22,-3589.7198L13619.2703,-3589.4867L13619.2703,-3589.1666"/>
<path content="AP030,1,28,1,0,16,1,8,JPN" xlink:title="AP030" d="M13620.52,-3589.2864L13620.5597,-3589.1666"/>
<path content="AP030,1,28,1,0,15,1,8,JPN" xlink:title="AP030" d="M13624.5193,-3591.7599L13624.5071,-3590.8279L13623.8113,-3590.3591L13623.1689,-3589.6278L13623.056,-3589.0938"/>
<path content="AP030,1,28,1,0,15,1,8,JPN" xlink:title="AP030" d="M13620.5597,-3589.1666L13621.1807,-3589.019L13622.1786,-3589.2647L13623.056,-3589.0938"/>
<path content="AP030,1,28,1,0,15,1,8,JPN" xlink:title="AP030" d="M13619.2703,-3589.1666L13620.0638,-3588.9744L13620.52,-3589.2864"/>
<path content="AP030,1,28,1,0,14,1,8,JPN" xlink:title="AP030" d="M13619.2703,-3589.1666L13619.2001,-3588.9668"/>
<path content="AP030,1,28,1,0,15,1,8,JPN" xlink:title="AP030" d="M13617.0197,-3589.9609L13617.7475,-3589.6168L13618.5013,-3589.0881L13619.2001,-3588.9668"/>
<path content="AP030,1,28,1,0,15,1,8,JPN" xlink:title="AP030" d="M13606.2683,-3592.9626L13605.6839,-3591.9472L13605.1941,-3591.2453L13605.1407,-3590.2828L13605.3192,-3589.2368L13605.278,-3588.6772L13604.7363,-3588.1966"/>
<path content="AP030,1,28,1,0,14,1,8,JPN" xlink:title="AP030" d="M13633.7204,-3588.1531L13633.7906,-3588.2465L13634.3597,-3588.62L13634.52,-3588.9133L13634.9304,-3589.5397L13635.3607,-3589.8666L13635.5804,-3590.0467L13635.6796,-3590.1333L13635.7407,-3590.3732L13635.7407,-3590.4064L13635.7697,-3590.913L13635.7193,-3590.9664L13635.4904,-3591.2533L13635.3806,-3591.4532"/>
<path content="AP030,1,28,1,0,14,1,8,JPN" xlink:title="AP030" d="M13625.2701,-3591.9933L13625.5402,-3591.8865L13626.1307,-3591.5066L13626.5198,-3591.2533L13626.5793,-3591.2197L13626.8295,-3591.053L13626.9302,-3591.0198L13627.1301,-3590.9866L13627.24,-3590.913L13627.4307,-3590.6799L13627.5604,-3590.5331L13627.7206,-3590.3332L13627.9297,-3590.1932L13628.0594,-3590.0997L13628.2196,-3589.92L13628.54,-3589.7198L13628.7201,-3589.6133L13628.9703,-3589.5798L13629.1306,-3589.5267L13629.5395,-3589.5599L13629.9301,-3589.4531L13629.9896,-3589.3997L13629.9896,-3589.3467L13629.9301,-3589.2864L13629.7195,-3589.2864L13629.6799,-3589.1666L13629.6494,-3589.093L13629.6494,-3589.0732L13629.6097,-3589.0198L13629.5807,-3589.0198L13629.4693,-3588.9866L13629.4296,-3588.9866L13629.3106,-3588.9866L13629.2694,-3588.9133L13629.2694,-3588.7466L13629.3106,-3588.6799L13629.4006,-3588.6398L13629.4495,-3588.6398L13629.6097,-3588.6799L13629.6799,-3588.6799L13629.7394,-3588.66L13629.7699,-3588.62L13629.7897,-3588.5864L13629.9301,-3588.62L13629.9896,-3588.5864L13629.8798,-3588.4998L13629.8996,-3588.4266L13629.9896,-3588.4068L13629.9896,-3588.2999L13629.9301,-3588.2267L13629.9698,-3588.1931L13630.0201,-3588.1733L13630.2002,-3588.1733L13630.4703,-3588.2599L13630.5801,-3588.2999L13630.9692,-3588.2999L13631.0806,-3588.2465L13631.0806,-3588.1531L13631.1295,-3588.1199L13631.2897,-3588.2267L13631.8802,-3588.2267L13632.0206,-3588.2267L13632.5195,-3588.2797L13632.8995,-3588.1931L13633.3801,-3588.0665L13633.4503,-3588.0665"/>
<path content="AP030,1,28,1,0,14,1,8,JPN" xlink:title="AP030" d="M13633.4503,-3588.0665L13633.5205,-3588.0665L13633.6105,-3588.0665L13633.7204,-3588.1531"/>
<path content="AP030,1,28,1,0,15,1,8,JPN" xlink:title="AP030" d="M13600.5402,-3587.92L13601.6266,-3588.6768L13602.449,-3588.9168L13603.3875,-3588.8687L13604.7363,-3588.1966"/>
<path content="AP030,1,28,1,0,14,1,8,JPN" xlink:title="AP030" d="M13599.7162,-3591.8404L13599.6857,-3591.785L13599.675,-3591.539L13599.6521,-3591.3631L13599.6414,-3590.8463L13599.7177,-3590.7146L13599.7894,-3590.6067L13599.913,-3590.4541L13599.939,-3590.3187L13599.8306,-3590.1932L13599.7406,-3590.0131L13599.6796,-3589.9399L13599.5941,-3589.8441L13599.5193,-3589.4531L13599.4904,-3589.3265L13599.5834,-3589.0232L13599.5193,-3588.8L13599.6796,-3588.7466L13599.7696,-3588.7333L13599.8306,-3588.6398L13599.8795,-3588.533L13599.9893,-3588.4266L13600.3296,-3588.1199L13600.5402,-3587.92"/>
<path content="AP030,1,28,1,0,14,1,8,JPN" xlink:title="AP030" d="M13616.5604,-3587.7068L13617.9901,-3588.3198L13619.2001,-3588.9668"/>
<path content="AP030,1,28,1,0,14,1,8,JPN" xlink:title="AP030" d="M13616.5207,-3589.793L13616.5207,-3589.1666L13616.5207,-3588.9465L13616.4703,-3588.8599L13616.3803,-3588.62L13616.4749,-3588.546L13616.6306,-3588.4266L13616.6107,-3588.2797L13616.5207,-3587.9932L13616.5207,-3587.8132L13616.5604,-3587.7068"/>
<path content="AP030,1,28,1,0,15,1,8,JPN" xlink:title="AP030" d="M13604.7363,-3588.1966L13605.2643,-3587.7644L13606.4377,-3587.6682L13608.0811,-3587.5244L13609.0195,-3587.6205L13609.8984,-3588.1004L13610.7788,-3588.2927L13611.8347,-3588.2927L13612.4802,-3588.2927L13613.5361,-3588.4369L13615.062,-3589.0129L13616.5207,-3589.793"/>
<path content="AP030,1,28,1,0,16,1,8,JPN" xlink:title="AP030" d="M13620.5597,-3589.1666L13620.43,-3588.6799L13620.2698,-3588.2267L13620.2393,-3587.973L13620.1797,-3587.7598L13620.1797,-3587.4531L13620.1492,-3587.36"/>
<path content="AP030,1,28,1,0,16,1,4,JPN" xlink:title="AP030" d="M13620.1492,-3587.36L13619.6793,-3586.8198L13619.1101,-3586.4799L13619.0201,-3586.4265"/>
<path content="AP030,1,28,1,0,15,1,8,JPN" xlink:title="AP030" d="M13623.056,-3589.0938L13624.1409,-3589.0781L13625.1907,-3588.4724L13626.5167,-3588.6429L13627.858,-3588.578L13628.3585,-3588.0684L13628.8467,-3587.764L13628.8589,-3586.9408L13628.6728,-3586.4334L13629.0146,-3585.9375"/>
<path content="AP030,1,28,1,0,14,1,8,JPN" xlink:title="AP030" d="M13631.3561,-3585.9375L13631.3599,-3585.9398L13631.5399,-3586.0466L13631.7001,-3586.153L13631.8604,-3586.2801L13631.9702,-3586.4067L13632.0801,-3586.5868L13632.1304,-3586.66L13632.3105,-3586.8401L13632.5195,-3587.0399L13632.7194,-3587.0934L13632.7698,-3587.1468L13632.8995,-3587.3066L13633.11,-3587.4531L13633.2001,-3587.5797L13633.4503,-3588.0665"/>
<path content="AP030,1,28,1,0,15,1,8,JPN" xlink:title="AP030" d="M13604.7363,-3588.1966L13604.4159,-3587.2475L13604.1595,-3586.4624L13604.0881,-3585.9375"/>
<path content="AP030,1,28,1,0,14,1,8,JPN" xlink:title="AP030" d="M13600.5402,-3587.92L13600.6805,-3587.833L13600.7401,-3587.7598L13600.8606,-3587.6331L13601.4496,-3587.0934L13601.77,-3586.8401L13601.9302,-3586.713L13602.0599,-3586.66L13602.2202,-3586.5868L13602.33,-3586.4265L13602.5192,-3586.2999L13602.7206,-3586.153L13602.9007,-3585.9398L13602.9036,-3585.9375"/>
<path content="AP030,1,28,1,0,14,1,8,JPN" xlink:title="AP030" d="M13616.5604,-3587.7068L13616.6107,-3587.5267L13616.7206,-3587.2532L13616.7892,-3587.0934L13616.8793,-3586.9133L13616.9693,-3586.6798L13617.0395,-3586.5334L13617.1097,-3586.3533L13617.3688,-3585.9375"/>
<path content="AP030,1,28,1,0,14,1,8,JPN" xlink:title="AP030" d="M13616.5604,-3587.7068L13616.246,-3587.5633L13615.6097,-3587.273L13615.4495,-3587.0197L13615.3305,-3586.8599L13615.2695,-3586.8198L13615.2206,-3586.7867L13614.9902,-3586.5334L13614.7903,-3586.3197L13614.7705,-3586.2267L13614.7202,-3586.1198L13614.6891,-3585.9375"/>
<path content="AP030,1,28,1,0,16,1,8,JPN" xlink:title="AP030" d="M13619.0201,-3586.4265L13618.8797,-3586.2999L13618.7897,-3586.1931L13618.7195,-3585.9932L13618.7195,-3585.9375"/>
<path content="AP030,1,28,1,0,14,1,8,JPN" xlink:title="AP030" d="M13633.7204,-3588.1531L13634.0805,-3587.9932L13634.3597,-3587.9398L13634.4696,-3587.8864L13634.5795,-3587.8132L13634.7198,-3587.7399L13634.8602,-3587.7068L13634.9503,-3587.7068L13634.9899,-3587.7598L13635.0601,-3587.7598L13635.1105,-3587.7399L13635.2905,-3587.7399L13635.5194,-3587.7598L13635.7193,-3587.5797L13635.8994,-3587.4332L13636.0199,-3587.1468L13636.0794,-3587.0197L13636.2198,-3586.9133L13636.2701,-3586.8401L13636.3098,-3586.3533L13636.3297,-3586.153L13636.3998,-3586.1L13636.4502,-3586.1L13636.9293,-3586.0664L13637.1506,-3586.013L13637.2696,-3585.9398L13637.2715,-3585.9375"/>
<path content="AP030,1,28,1,0,15,1,8,JPN" xlink:title="AP030" d="M13622.0596,-3606.3683L13623.1892,-3606.812L13623.8297,-3607.539"/>
<path content="AP030,1,28,1,0,15,1,8,JPN" xlink:title="AP030" d="M13621.048,-3606.5365L13621.0646,-3606.0205"/>
<path content="AP030,1,28,1,0,14,1,8,JPN" xlink:title="AP030" d="M13629.1534,-3602.1713L13629.6862,-3601.6385L13629.9096,-3601.3463L13630.2018,-3601.1916L13630.719,-3601.3065"/>
<path content="AP030,1,28,1,0,15,1,8,JPN" xlink:title="AP030" d="M13622.0596,-3606.3683L13621.7697,-3606.4167L13621.048,-3606.5365"/>
<path content="AP030,1,28,1,0,15,1,8,JPN" xlink:title="AP030" d="M13621.0646,-3606.0205L13621.1838,-3605.1868"/>
<path content="AP030,1,28,1,0,15,1,8,JPN" xlink:title="AP030" d="M13621.0646,-3606.0205L13621.7697,-3606.2672L13622.0596,-3606.3683"/>
<path content="AP030,1,28,1,0,15,1,8,JPN" xlink:title="AP030" d="M13632.219,-3601.8396L13632.0409,-3600.9681"/>
<path content="AP030,1,28,1,0,14,1,8,JPN" xlink:title="AP030" d="M13632.2205,-3601.8467L13633.6755,-3601.1437L13634.4472,-3601.3463L13634.7566,-3601.2947L13634.602,-3600.7103"/>
<path content="AP030,1,28,1,1,16,1,8,JPN" xlink:title="AP030" d="M13640.625,-3606.7626L13640.0512,-3606.9305L13639.41,-3606.9305L13638.9049,-3607.4939L13638.361,-3607.7465L13638.5406,-3608.2466"/>
<path content="AP030,1,28,1,0,14,1,8,JPN" xlink:title="AP030" d="M13640.625,-3607.8669L13640.2695,-3607.8869L13639.9002,-3608.0132L13639.4302,-3608.2268L13639.2395,-3608.2466L13639.0793,-3608.2466L13638.8596,-3608.1932L13638.7695,-3608.1932L13638.5406,-3608.2466"/>
</g>
</svg>
