<?xml version="1.0" encoding="UTF-8"?>
<svg  xmlns="http://www.w3.org/2000/svg" xmlns:xlink="http://www.w3.org/1999/xlink" xmlns:go="http://purl.org/svgmap/profile" property="f_code,acc,exs,rst,med,rtt,RSU,loc,soc" viewBox="13148.4375 -3304.6875 70.3125 70.3125" go:dataArea="13148.4375 -3304.6875 70.3125 70.3125" >
<metadata>
 <rdf:RDF xmlns:rdf="http://www.w3.org/1999/02/22-rdf-syntax-ns#" xmlns:crs="http://opengis.org/xmldtds/transformations.dtd" xmlns:svg="http://www.w3.org/svg" >
  <rdf:Description>
   <crs:CoordinateReferenceSystem rdf:resource="http://purl.org/crs/84" svg:transform="matrix(100.0,0.0,0.0,-100.0,0.0,0.0)" />
  </rdf:Description>
 </rdf:RDF>
</metadata>
<globalCoordinateSystem srsName="http://purl.org/crs/84" transform="matrix(100.0,0.0,0.0,-100.0,0.0,0.0)" />
<defs>
 <g id="p0" >
  <circle cx="0.0" cy="0.0" r="3" stroke="green" stroke-width="2.0" vector-effect="non-scaling-stroke" />
 </g>
</defs>
<g fill="none" fill-rule="evenodd" stroke="#00ff00" stroke-width="2" opacity="0.5" vector-effect="non-scaling-stroke" stroke-linejoin="bevel" >
<path content="AP030,1,28,1,0,16,1,8,JPN" xlink:title="AP030" d="M13184.2263,-3304.6875L13184.263,-3304.6364L13184.324,-3304.5465"/>
<path content="AP030,1,28,1,0,15,1,8,JPN" xlink:title="AP030" d="M13151.1692,-3304.6875L13150.9705,-3304.3198"/>
<path content="AP030,1,28,1,0,15,1,8,JPN" xlink:title="AP030" d="M13175.9186,-3304.113L13177.1878,-3304.6875M13177.284,-3304.6875L13177.3193,-3304.3461L13177.2919,-3304.1298L13177.6993,-3304.1172L13178.3048,-3304.6875"/>
<path content="AP030,1,28,1,0,15,1,8,JPN" xlink:title="AP030" d="M13175.3405,-3304.6875L13175.9186,-3304.113"/>
<path content="AP030,1,28,1,0,14,1,8,JPN" xlink:title="AP030" d="M13158.3603,-3303.9932L13158.9905,-3304.0665L13159.1095,-3304.1199L13159.2194,-3304.1931L13159.4498,-3304.5864L13159.5495,-3304.6875"/>
<path content="AP030,1,28,1,0,14,1,8,JPN" xlink:title="AP030" d="M13158.44,-3304.6875L13158.44,-3304.665L13158.3603,-3303.9932"/>
<path content="AP030,1,28,1,0,15,1,8,JPN" xlink:title="AP030" d="M13150.2354,-3304.6875L13150.1984,-3303.8998"/>
<path content="AP030,1,28,1,0,14,1,8,JPN" xlink:title="AP030" d="M13150.1984,-3303.8998L13150.1999,-3303.8998L13150.4898,-3303.92L13150.6302,-3303.9932L13150.9705,-3304.3198"/>
<path content="AP030,1,28,1,0,14,1,8,JPN" xlink:title="AP030" d="M13150.9705,-3304.3198L13151.1307,-3304.3865L13151.2695,-3304.4067L13151.4893,-3304.3732L13151.5793,-3304.3533L13152.0599,-3304.0798L13152.2003,-3303.9532L13152.2903,-3303.9398L13152.5803,-3303.9398L13152.9495,-3304.0264L13153.36,-3303.9532L13153.5797,-3303.8666L13153.8101,-3303.8666L13153.9505,-3303.9532L13154.1504,-3303.9734L13154.3594,-3303.9734L13154.4693,-3304.1L13154.5807,-3304.1L13154.95,-3304.0131L13155.2002,-3304.0665L13155.4504,-3304.3198L13155.5801,-3304.3198L13155.7404,-3304.1931L13155.8105,-3304.1931L13156.0394,-3304.1733L13156.1798,-3304.2267L13156.3797,-3304.2267L13156.7001,-3304.3533L13156.8604,-3304.3732L13156.9702,-3304.3331L13157.1106,-3304.1332L13157.2693,-3304.0466L13157.5607,-3303.9734L13157.6492,-3304.0131L13157.7698,-3304.0665L13157.7698,-3304.1L13158.02,-3304.1332L13158.1299,-3304.1199L13158.2397,-3304.0131L13158.3603,-3303.9932"/>
<path content="AP030,1,28,1,0,14,1,8,JPN" xlink:title="AP030" d="M13169.0581,-3304.6875L13169.1101,-3304.6066L13169.1101,-3304.4598L13169.1101,-3304.3533L13168.9896,-3304.2267L13168.9499,-3304.1733L13168.7897,-3303.4866"/>
<path content="AP030,1,28,1,0,16,1,4,JPN" xlink:title="AP030" d="M13184.324,-3304.5465L13184.4945,-3304.2952L13184.8899,-3303.8566L13185.23,-3303.453L13185.47,-3303.053L13185.6468,-3302.7102"/>
<path content="AP030,1,28,1,0,15,1,8,JPN" xlink:title="AP030" d="M13186.4876,-3304.6875L13186.3571,-3304.5883L13186.3556,-3303.1303L13185.9527,-3302.0458"/>
<path content="AP030,1,28,1,0,16,1,8,JPN" xlink:title="AP030" d="M13185.6468,-3302.7102L13185.81,-3302.394L13185.95,-3302.074L13185.9527,-3302.0458"/>
<path content="AP030,1,28,1,0,14,1,8,JPN" xlink:title="AP030" d="M13167.45,-3301.8665L13167.5797,-3301.8867L13168.1793,-3302.0466L13168.4494,-3302.0466L13168.6295,-3302.3731L13168.6096,-3302.6066L13168.6096,-3302.7664L13168.7698,-3303.413L13168.7897,-3303.4866"/>
<path content="AP030,1,28,1,0,14,1,8,JPN" xlink:title="AP030" d="M13167.45,-3301.8665L13167.1097,-3301.6865L13166.8304,-3301.4332L13166.6504,-3301.3065L13166.2704,-3300.9865"/>
<path content="AP030,1,28,1,0,14,1,8,JPN" xlink:title="AP030" d="M13167.45,-3301.8665L13167.0593,-3301.8333L13166.7892,-3301.7731L13166.5207,-3301.593L13166.5207,-3301.4133L13166.4902,-3301.3466L13166.4307,-3301.3065L13166.2704,-3300.9865"/>
<path content="AP030,1,28,1,0,14,1,8,JPN" xlink:title="AP030" d="M13168.7897,-3303.4866L13168.8797,-3303.22L13168.8995,-3303.1799L13169.22,-3302.9865L13169.2902,-3302.7664L13169.2398,-3302.5333L13169.2398,-3302.3533L13169.3298,-3302.2064L13169.4901,-3302.1L13169.9707,-3301.6865L13169.9295,-3301.4866L13169.9295,-3301.3268L13170.0195,-3301.1467L13170.1492,-3301.0731L13170.5597,-3300.9865L13170.6299,-3300.9464L13170.7703,-3300.7332L13170.8298,-3300.6931L13170.9,-3300.7133L13171.0205,-3300.8732L13171.0785,-3300.893"/>
<path content="AP030,1,28,1,0,15,1,8,JPN" xlink:title="AP030" d="M13175.9186,-3304.113L13175.9567,-3303.2585L13175.3632,-3302.6138L13174.0997,-3302.0473L13173.3276,-3301.6468L13172.5189,-3300.5333"/>
<path content="AP030,1,28,1,0,14,1,8,JPN" xlink:title="AP030" d="M13171.0785,-3300.893L13171.08,-3300.893L13171.5195,-3300.6798L13172.02,-3300.6397L13172.5189,-3300.5333"/>
<path content="AP030,1,28,1,0,14,1,8,JPN" xlink:title="AP030" d="M13148.4375,-3303.4295L13148.5199,-3303.5797L13148.6298,-3303.6331L13149.1806,-3303.8132L13149.2706,-3303.8334L13149.4003,-3303.9398L13149.6506,-3303.9734L13150.1099,-3303.8998L13150.1984,-3303.8998"/>
<path content="AP030,1,28,1,0,15,1,8,JPN" xlink:title="AP030" d="M13184.2076,-3304.6875L13184.2072,-3304.6867L13180.4535,-3303.5934L13180.0339,-3303.2192L13179.9438,-3302.1404L13179.5517,-3301.511L13179.2511,-3300.9743L13179.0405,-3300.2266"/>
<path content="AP030,1,28,1,0,14,1,8,JPN" xlink:title="AP030" d="M13166.2704,-3300.9865L13166.1804,-3300.8198L13166.0797,-3300.7332L13165.6998,-3300.6065L13165.3595,-3300.4997L13164.9902,-3300.5131L13164.8102,-3300.6065L13164.7202,-3300.6599L13164.5203,-3300.8198L13164.27,-3300.8732L13164.0594,-3300.893L13163.9496,-3300.9464L13163.8306,-3301.0731L13163.7405,-3301.0532L13163.6093,-3301.0201L13163.4903,-3301.1467L13163.2706,-3301.0933L13163.2706,-3300.9464L13163.2706,-3300.9132L13162.9303,-3300.8598L13162.8998,-3300.6199L13162.8296,-3300.4799L13162.6801,-3300.4799L13162.4298,-3300.2598L13161.5402,-3299.6666"/>
<path content="AP030,1,28,1,0,14,1,8,JPN" xlink:title="AP030" d="M13164.0308,-3304.6875L13163.9893,-3304.5666L13163.8992,-3304.3198L13163.7207,-3304.0131L13163.6093,-3303.92L13163.4293,-3303.8467L13162.8601,-3303.6331L13162.2696,-3303.4531L13162.0804,-3303.22L13162.0407,-3303.0533L13162.0193,-3302.8L13161.9705,-3302.6848L13161.8301,-3302.3533L13161.8195,-3302.2392L13161.7905,-3301.9398L13161.7203,-3301.7933L13161.7203,-3301.4866L13161.6806,-3301.3599L13161.5601,-3301.1066L13161.5204,-3300.893L13161.47,-3300.6931L13161.3602,-3300.5131L13161.3602,-3300.4601L13161.38,-3300.28L13161.4304,-3300.0999L13161.4502,-3300.0134L13161.5402,-3299.9001L13161.5402,-3299.6666"/>
<path content="AP030,1,28,1,0,14,1,8,JPN" xlink:title="AP030" d="M13172.5189,-3300.5333L13172.5204,-3300.5333L13172.7707,-3300.5333L13173.1094,-3300.5531L13173.3307,-3300.5333L13173.4894,-3300.5333L13173.5397,-3300.5665L13173.6298,-3300.7133L13173.7396,-3300.7668L13173.88,-3300.7668L13173.9899,-3300.6931L13174.0799,-3300.4398L13174.2203,-3300.333L13174.3805,-3300.2598L13174.5407,-3300.2068L13174.7894,-3300.0465L13174.9893,-3299.9931L13175.2197,-3299.773L13175.3799,-3299.7066L13175.6805,-3299.6864L13175.7904,-3299.633L13175.9003,-3299.58L13176.3596,-3299.6532L13176.5594,-3299.773L13176.9699,-3299.8333L13177.2202,-3299.8466L13178.0396,-3299.8333L13178.2394,-3299.8333L13178.3295,-3299.8867L13178.8101,-3300.1198L13179.0405,-3300.2266"/>
<path content="AP030,1,28,1,0,14,1,8,JPN" xlink:title="AP030" d="M13159.61,-3298.333L13159.61,-3298.3334L13159.8801,-3298.4798L13160.0204,-3298.6198L13160.1303,-3298.7331L13160.3302,-3298.7865L13160.7193,-3298.9132L13160.9695,-3299.0398L13161.0199,-3299.073L13161.1298,-3299.2001L13161.4899,-3299.5068L13161.5402,-3299.6666"/>
<path content="AP030,1,28,1,0,16,1,8,JPN" xlink:title="AP030" d="M13185.9527,-3302.0458L13185.99,-3301.654L13185.93,-3301.014L13185.83,-3300.634L13185.81,-3300.335L13185.9,-3299.955L13186.03,-3299.411L13185.79,-3298.676L13185.611,-3297.9316"/>
<path content="AP030,1,28,1,0,15,1,8,JPN" xlink:title="AP030" d="M13185.9527,-3302.0458L13185.7986,-3301.6312L13185.5835,-3300.2857L13185.1352,-3299.434L13185.1352,-3298.387L13185.361,-3298.0697L13185.611,-3297.9316"/>
<path content="AP030,1,28,1,0,15,1,8,JPN" xlink:title="AP030" d="M13150.1984,-3303.8998L13151.1246,-3302.7496L13151.2344,-3302.2007L13150.7126,-3300.4463L13150.7629,-3299.9786L13151.7944,-3299.3717L13152.5055,-3298.4406L13152.8305,-3297.8466"/>
<path content="AP030,1,28,1,0,14,1,8,JPN" xlink:title="AP030" d="M13158.11,-3297.4865L13158.2199,-3297.5597L13158.3298,-3297.6532L13158.4702,-3297.8664L13158.8806,-3298.2597L13158.8806,-3298.2601L13159.0195,-3298.373L13159.1293,-3298.373L13159.3185,-3298.304L13159.3307,-3298.2998L13159.4498,-3298.28L13159.61,-3298.333"/>
<path content="AP030,1,28,1,0,14,1,8,JPN" xlink:title="AP030" d="M13192.4954,-3304.6875L13192.4301,-3304.62L13192.1097,-3304.5132L13192.0197,-3304.4266L13191.9296,-3304.1531L13191.9754,-3304.076L13192.009,-3303.9909L13192.0303,-3303.9516L13192.0181,-3303.8853L13191.9296,-3303.7197L13191.9693,-3303.6133L13192.0593,-3303.54L13192.0197,-3303.4664L13192.0792,-3303.3482L13192.0395,-3303.3066L13191.9296,-3303.3066L13191.8594,-3303.2333L13191.8594,-3303.1666L13191.9296,-3303.0533L13191.8594,-3302.9465L13191.8594,-3302.8599L13192.0197,-3302.6932L13192.1097,-3302.6398L13192.0395,-3302.5867L13191.9296,-3302.5867L13191.8106,-3302.5333L13191.7007,-3302.4265L13191.5207,-3302.28L13191.4001,-3302.2465L13191.3635,-3302.1633L13191.2201,-3302.1198L13191.0599,-3301.9531L13190.9302,-3301.7731L13190.8295,-3301.6533L13190.5594,-3301.593L13190.3793,-3301.4668L13190.2893,-3301.3466L13190.0192,-3301.0201L13189.9307,-3300.893L13189.8605,-3300.7866L13189.7705,-3300.6931L13189.74,-3300.3532L13189.7003,-3300.2266L13189.5599,-3300.2266L13189.3295,-3300.2266L13188.9496,-3300.1198L13188.8794,-3300.0999L13188.8596,-3300.0267L13188.8596,-3299.8665L13188.8306,-3299.7932L13188.8107,-3299.7601L13188.8107,-3299.6532L13188.7894,-3299.4534L13188.8107,-3299.2001L13188.8306,-3299.0398L13188.9297,-3298.8731L13189.0793,-3298.7667L13189.3097,-3298.7465L13189.4379,-3298.8537L13189.5874,-3298.925L13189.621,-3298.8811L13189.6011,-3298.7602L13189.5905,-3298.6717L13189.5401,-3298.513L13189.4699,-3298.28L13189.4699,-3298.0267L13189.5599,-3297.953L13189.6805,-3297.8466L13189.9002,-3297.6131L13190.1505,-3297.4331L13190.1993,-3297.2198"/>
<path content="AP030,1,28,1,0,14,1,8,JPN" xlink:title="AP030" d="M13190.1993,-3297.2198L13190.4694,-3297.1466"/>
<path content="AP030,1,28,1,0,14,1,8,JPN" xlink:title="AP030" d="M13156.9702,-3297.02L13157.4493,-3297.1798L13157.7698,-3297.3267L13157.8995,-3297.3999L13158.11,-3297.4865"/>
<path content="AP030,1,28,1,0,14,1,8,JPN" xlink:title="AP030" d="M13152.8305,-3297.8466L13152.9297,-3297.9198L13153.1494,-3297.953L13153.4698,-3297.9733L13153.6102,-3298.0267L13153.6301,-3298.0267L13153.8605,-3298.0999L13154.3304,-3298.1934L13154.3793,-3298.2067L13154.5197,-3298.2067L13154.5792,-3298.135L13154.6799,-3298.0133L13154.7897,-3297.8867L13154.8096,-3297.8333L13154.7394,-3297.7066L13154.7699,-3297.6868L13154.8996,-3297.72L13154.9301,-3297.7398L13155.04,-3297.7398L13155.2704,-3297.8333L13155.4703,-3297.8333L13155.6107,-3297.7398L13155.6503,-3297.6868L13155.7404,-3297.5399L13156.0196,-3297.3465L13156.2897,-3297.1664L13156.6299,-3297.0398L13156.9702,-3297.02"/>
<path content="AP030,1,28,1,0,14,1,8,JPN" xlink:title="AP030" d="M13179.0405,-3300.2266L13179.3594,-3300.333L13179.4907,-3300.3864L13179.6799,-3300.3731L13180.0201,-3300.2068L13180.0598,-3300.1732L13180.2002,-3300.1732L13180.2704,-3300.0134L13180.3802,-3299.9531L13180.4703,-3299.9531L13180.7007,-3300.0465L13181.0196,-3299.9733L13181.1798,-3299.9531L13181.3995,-3299.8867L13181.5598,-3299.7066L13181.6101,-3299.6666L13181.9305,-3299.6864L13181.9702,-3299.633L13182.0801,-3299.5399L13182.1503,-3299.4865L13182.2205,-3299.5068L13182.3105,-3299.5399L13182.6096,-3299.5266L13182.6996,-3299.4865L13182.8293,-3299.2733L13182.8598,-3299.2332L13182.9498,-3299.1264L13182.9895,-3299.0932L13183.2001,-3298.9468L13183.5205,-3298.8934L13183.8593,-3298.6401L13183.9905,-3298.5867L13184.1293,-3298.5867L13184.4894,-3298.6401L13184.7198,-3298.5664L13184.7702,-3298.5001L13184.7702,-3298.1197L13184.7198,-3298.0465L13184.6802,-3298.0133L13184.4696,-3297.6868L13183.7692,-3296.8597"/>
<path content="AP030,1,28,1,0,14,1,8,JPN" xlink:title="AP030" d="M13149.6506,-3296.6599L13149.8596,-3296.8597L13149.9237,-3296.9387L13149.9893,-3297.02L13150.0198,-3297.0531L13150.1297,-3297.1462L13150.3296,-3297.1798L13150.4303,-3297.1066L13150.6104,-3296.9666L13150.7401,-3296.9131L13151.0193,-3296.8731L13151.1307,-3296.8933L13151.4893,-3297.02L13151.68,-3297.0932L13151.8707,-3297.2488L13151.8997,-3297.2733L13152.0599,-3297.3064L13152.1805,-3297.3064L13152.3102,-3297.3064L13152.4704,-3297.3064L13152.6505,-3297.3465L13152.7206,-3297.5067L13152.8305,-3297.8466"/>
<path content="AP030,1,28,1,0,15,1,8,JPN" xlink:title="AP030" d="M13148.4375,-3297.4481L13149.057,-3297.4045L13149.5178,-3296.8254L13149.6506,-3296.6599"/>
<path content="AP030,1,28,1,0,14,1,8,JPN" xlink:title="AP030" d="M13148.4375,-3296.496L13149.1104,-3296.4798L13149.3607,-3296.5332L13149.6506,-3296.6599"/>
<path content="AP030,1,28,1,0,15,1,8,JPN" xlink:title="AP030" d="M13185.611,-3297.9316L13185.9068,-3297.7682L13186.0197,-3297.4668L13185.888,-3296.9433L13185.5868,-3296.2769"/>
<path content="AP030,1,28,1,0,16,1,8,JPN" xlink:title="AP030" d="M13185.611,-3297.9316L13185.59,-3297.844L13185.38,-3297.188L13185.3045,-3296.7846L13185.5868,-3296.2769"/>
<path content="AP030,1,28,1,0,14,1,8,JPN" xlink:title="AP030" d="M13183.7692,-3296.8597L13183.7692,-3296.2467L13183.8303,-3296.1731L13184.1507,-3295.9L13184.4299,-3295.7932L13184.4894,-3295.76"/>
<path content="AP030,1,28,1,0,15,1,8,JPN" xlink:title="AP030" d="M13185.5868,-3296.2769L13185.5492,-3296.0707L13185.888,-3295.912L13186.4975,-3295.892L13186.5204,-3295.76"/>
<path content="AP030,1,28,1,0,14,1,8,JPN" xlink:title="AP030" d="M13186.5204,-3295.76L13187.0193,-3295.9732L13187.1094,-3296.0133L13187.2192,-3296.0133L13187.4695,-3295.94L13188.3102,-3295.6867L13188.5406,-3295.6131L13188.8596,-3295.5067L13189.1098,-3295.5799L13189.1998,-3295.6333L13189.5401,-3295.8668L13189.6103,-3295.94L13189.8102,-3296.0999L13189.8605,-3296.1731L13189.9506,-3296.3333L13190.0803,-3296.5332L13190.1993,-3296.8933L13190.2206,-3297.1664L13190.1993,-3297.2198"/>
<path content="AP030,1,28,1,0,14,1,8,JPN" xlink:title="AP030" d="M13184.4894,-3295.76L13184.7397,-3295.5933L13184.9899,-3295.3999L13185.022,-3295.3876L13185.1807,-3295.3266L13185.4294,-3295.3465L13185.6094,-3295.3598L13186.1801,-3295.5399L13186.4899,-3295.7397L13186.5204,-3295.76"/>
<path content="AP030,1,28,1,0,14,1,8,JPN" xlink:title="AP030" d="M13190.4694,-3297.1466L13190.3595,-3296.7667L13190.2695,-3296.4397L13190.2206,-3296.2467L13190.1794,-3296.0133L13190.1306,-3295.9732L13189.7705,-3295.76L13189.6103,-3295.6665L13189.5401,-3295.5933L13189.4897,-3295.5601L13189.4699,-3295.3999L13189.4302,-3295.2866L13189.36,-3295.1065L13189.3097,-3294.68"/>
<path content="AP030,1,28,1,0,14,1,8,JPN" xlink:title="AP030" d="M13190.4694,-3297.1466L13190.7196,-3297.0531L13190.9302,-3296.9868L13191.1499,-3296.9467L13191.4505,-3296.8597L13191.6107,-3296.8201L13191.4505,-3296.3867L13191.3101,-3296.0999L13191.2704,-3295.8866L13190.95,-3295.4666L13190.6799,-3295.1466L13190.0803,-3294.6068"/>
<path content="AP030,1,28,1,0,14,1,8,JPN" xlink:title="AP030" d="M13189.3097,-3294.68L13189.8605,-3294.733L13190.0803,-3294.6068"/>
<path content="AP030,1,28,1,0,14,1,8,JPN" xlink:title="AP030" d="M13190.0803,-3294.6068L13190.1794,-3294.5667L13190.4297,-3294.4401L13190.7196,-3294.3199L13190.8295,-3294.26"/>
<path content="AP030,1,28,1,0,15,1,8,JPN" xlink:title="AP030" d="M13156.9702,-3297.02L13156.3522,-3296.2482L13155.7877,-3296.291L13155.394,-3296.175L13154.5181,-3295.808L13153.6972,-3295.4025L13153.5919,-3294.9657L13153.3432,-3293.961L13152.8946,-3293.4124"/>
<path content="AP030,1,28,1,0,14,1,8,JPN" xlink:title="AP030" d="M13190.8295,-3294.26L13190.8997,-3294.2265L13190.9302,-3294.2066L13190.9897,-3294.1933L13191.1804,-3294.173L13191.4001,-3293.9934L13191.6107,-3293.8332L13191.7694,-3293.6665L13192.0593,-3293.5265L13192.2195,-3293.3266L13192.2699,-3293.2198"/>
<path content="AP030,1,28,1,0,15,1,8,JPN" xlink:title="AP030" d="M13190.8295,-3294.26L13191.9189,-3294.6201L13192.2409,-3294.9436L13192.5186,-3295.2213L13192.717,-3295.7508L13192.691,-3296.006L13193.1458,-3296.0392L13193.3121,-3295.4082L13193.5364,-3295.2103L13193.8828,-3295.2206L13194.2734,-3295.4437L13194.4336,-3295.6753L13194.6762,-3295.5078L13195.0394,-3294.9341L13195.8847,-3294.138L13196.6248,-3294.3638L13197.1466,-3294.2303L13197.5891,-3293.8763L13198.2086,-3293.7927L13198.7595,-3294.2204L13199.3591,-3294.4771L13199.4858,-3294.2287L13199.0158,-3293.8515L13199.501,-3293.5867L13199.8672,-3293.4845L13199.9405,-3293.2755L13200.7446,-3293.1324L13201.3535,-3293.3781L13202.182,-3293.7382L13202.7832,-3293.8248L13203.3936,-3293.8259L13203.6652,-3294.146L13203.6087,-3294.6995L13204.1183,-3294.6934L13204.5868,-3294.5984L13204.982,-3294.7128L13206.3507,-3294.2539"/>
<path content="AP030,1,28,1,0,15,1,8,JPN" xlink:title="AP030" d="M13166.2643,-3292.9272L13166.6412,-3293.2129L13166.8442,-3294.1711L13166.5466,-3294.5778L13165.9698,-3295.2202L13166.3925,-3295.5521L13166.9434,-3295.6364L13167.3706,-3296.3974L13168.1473,-3297.2275L13169.1956,-3297.9065L13169.6503,-3298.4123L13169.7021,-3298.888L13170.4773,-3299.2462L13170.7764,-3299.3114L13171.0785,-3300.893"/>
<path content="AP030,1,28,1,0,15,1,8,JPN" xlink:title="AP030" d="M13159.61,-3298.333L13160.7178,-3297.2664L13160.9314,-3295.2675L13159.9854,-3294.1242L13160.3607,-3292.9951L13161.2534,-3292.72L13161.5372,-3292.4416L13163.1104,-3292.4747L13164.415,-3291.6729L13165.3,-3291.954L13166.2643,-3292.9272"/>
<path content="AP030,1,28,1,0,15,1,8,JPN" xlink:title="AP030" d="M13169.6594,-3291.5962L13170.7596,-3291.7648L13171.0266,-3292.1276L13170.9808,-3292.5529L13171.9086,-3293.3945L13173.0347,-3294.2932L13173.7762,-3294.0056L13175.7568,-3295.0111L13178.862,-3295.4571L13179.3991,-3295.6684L13179.8523,-3296.6881L13180.9021,-3296.3802L13181.871,-3296.838L13183.7692,-3296.8597"/>
<path content="AP030,1,28,1,0,15,1,8,JPN" xlink:title="AP030" d="M13166.2643,-3292.9272L13168.2114,-3292.3023L13169.6594,-3291.5962"/>
<path content="AP030,1,28,1,0,15,1,8,JPN" xlink:title="AP030" d="M13152.8946,-3293.4124L13151.2955,-3294.5759L13150.6348,-3295.0394L13150.9918,-3295.4956L13150.9323,-3296.0484L13150.6088,-3296.9666L13150.029,-3295.4647L13149.3744,-3294.4714L13149.173,-3293.5127L13148.9761,-3292.5117L13148.7061,-3292.1909L13148.4375,-3292.0847"/>
<path content="AP030,1,28,1,0,14,1,8,JPN" xlink:title="AP030" d="M13158.11,-3297.4865L13158.2199,-3297.3598L13158.1802,-3297.1268L13158.1299,-3296.7999L13157.9697,-3296.64L13157.93,-3296.4397L13157.9697,-3296.2997L13158.2199,-3296.0667L13158.3298,-3296.0133L13158.5602,-3295.8866L13158.7204,-3295.7066L13158.7204,-3295.6131L13158.7204,-3295.5265L13158.58,-3295.2866L13158.6807,-3294.7132L13158.7402,-3294.3867L13158.9294,-3294.2265L13158.9706,-3294.173L13159.0607,-3293.8133L13159.1507,-3293.4868L13159.3796,-3293.1465L13159.4696,-3292.7868L13159.5596,-3292.4065L13159.8099,-3291.7931L13159.9701,-3291.4333L13160.0204,-3291.3597L13160.2005,-3291.0198L13160.2707,-3290.913"/>
<path content="AP030,1,28,1,0,14,1,4,JPN" xlink:title="AP030" d="M13160.2707,-3290.913L13160.3607,-3290.8199L13160.6094,-3290.6399L13161.2396,-3290.3"/>
<path content="AP030,1,28,1,0,14,1,8,JPN" xlink:title="AP030" d="M13192.2699,-3293.2198L13192.1494,-3293.0931L13192.1295,-3292.9466L13192.1799,-3292.8398L13192.2699,-3292.6598L13192.3096,-3292.5533L13192.54,-3292.4599L13192.7399,-3291.9933L13192.8101,-3291.7065L13192.8299,-3291.6134L13193.0206,-3291.0732L13193.2907,-3290.4064L13193.3594,-3290.2466L13193.3807,-3290.2065L13193.5394,-3289.9399L13193.7195,-3289.7064L13193.8797,-3289.6133L13194.0598,-3289.5397L13194.22,-3289.233L13194.22,-3289.1464L13194.1101,-3288.9866L13194.2902,-3288.7665"/>
<path content="AP030,1,28,1,0,15,1,8,JPN" xlink:title="AP030" d="M13192.2699,-3293.2198L13193.1885,-3292.6544L13194.371,-3292.5266L13194.8593,-3292.7338L13195.1675,-3292.1989L13195.433,-3292.0895L13196.8506,-3292.1501L13198.175,-3291.1316L13198.1186,-3288.8527L13198.4833,-3288.7154L13198.9975,-3288.8802L13199.4034,-3289.2925"/>
<path content="AP030,1,28,1,0,14,1,4,JPN" xlink:title="AP030" d="M13194.2902,-3288.7665L13194.3802,-3288.62L13194.6106,-3288.2999L13194.8593,-3287.8864"/>
<path content="AP030,1,28,1,0,15,1,8,JPN" xlink:title="AP030" d="M13169.6594,-3291.5962L13169.841,-3290.8382L13169.8624,-3290.1539L13169.2505,-3289.2078L13167.0853,-3285.4984"/>
<path content="AP030,1,28,1,0,15,1,8,JPN" xlink:title="AP030" d="M13162.2894,-3284.9865L13163.2095,-3285.1871L13163.4476,-3285.2081L13163.8794,-3285.3737L13164.5248,-3285.4771L13165.1962,-3285.4771L13165.8173,-3285.5602L13166.2964,-3285.622L13166.6077,-3285.6224L13167.0853,-3285.4984"/>
<path content="AP030,1,28,1,0,14,1,8,JPN" xlink:title="AP030" d="M13161.2396,-3290.3L13161.3602,-3290.2267L13161.5402,-3290.0665L13161.6806,-3289.8132L13161.7905,-3289.6133L13161.9003,-3289.2731L13162.0193,-3289.1266L13162.1796,-3288.9668L13162.3795,-3288.8L13162.4893,-3288.62L13162.5595,-3288.3198L13162.5793,-3288.1931L13162.6099,-3288.1001L13162.5793,-3287.9532L13162.4298,-3287.7068L13162.4298,-3287.6534L13162.4893,-3287.5267L13162.4893,-3287.3066L13162.5198,-3287.2532L13162.6801,-3287.0197L13162.6801,-3286.8599L13162.8098,-3286.5532L13162.9501,-3286.3731L13162.97,-3286.2999L13162.9303,-3286.013L13162.9303,-3285.8868L13162.5198,-3285.4668L13162.2894,-3284.9865"/>
<path content="AP030,1,28,1,0,14,1,8,JPN" xlink:title="AP030" d="M13162.2894,-3284.9865L13162.2696,-3284.9133L13162.1796,-3284.8198L13162.0193,-3284.7134L13161.7706,-3284.5867L13161.7203,-3284.5531"/>
<path content="AP030,1,28,1,0,15,1,8,JPN" xlink:title="AP030" d="M13152.8946,-3293.4124L13153.4439,-3292.0826L13153.3112,-3291.4295L13154.1855,-3290.8535L13154.2496,-3290.258L13154.3137,-3289.6629L13153.7216,-3289.0175L13153.6667,-3288.5849L13155.1224,-3287.3241L13155.6122,-3287.0186L13156.1066,-3285.7273L13156.8527,-3285.3985L13157.0801,-3284.2155"/>
<path content="AP030,1,28,1,0,14,1,8,JPN" xlink:title="AP030" d="M13184.4894,-3295.76L13183.9005,-3295.1065L13183.7204,-3294.9867L13183.3801,-3294.5332L13182.3807,-3293.5265L13182.1793,-3293.3998L13182.0602,-3293.38L13181.72,-3293.38L13181.4896,-3293.3266L13181.2698,-3293.38L13180.9692,-3293.2865L13180.7007,-3292.9268L13180.5405,-3292.7334L13180.3802,-3292.5667L13180.2902,-3292.5133L13180.13,-3292.4801L13180.0797,-3292.3866L13180.0598,-3291.8331L13180.0201,-3291.7065L13179.9698,-3291.6134L13179.8294,-3291.56L13179.5593,-3291.3467L13179.5197,-3291.2731L13179.5593,-3291.0198L13179.5197,-3290.86L13179.4296,-3290.7665L13179.1504,-3290.5865L13178.9902,-3290.4266L13178.9505,-3290.3198L13178.9703,-3290.0131L13178.9001,-3289.92L13178.7582,-3289.8983L13178.6804,-3289.8865L13178.4302,-3289.9399L13178.2196,-3289.9731L13178.1097,-3289.92L13177.8793,-3289.6133L13177.7893,-3289.5798L13177.7115,-3289.5874L13177.4506,-3289.6133L13177.1103,-3289.5599L13177.0798,-3289.5599L13177.0203,-3289.5267L13176.9302,-3289.4867L13176.8799,-3289.4131L13176.68,-3289.3467L13176.5198,-3289.1464L13176.3107,-3288.9267L13176.1795,-3288.66L13176.0193,-3288.5532L13175.9293,-3288.4399L13175.9293,-3288.2267L13175.9003,-3288.1332L13175.7904,-3288.0665L13175.7004,-3287.9932L13175.56,-3287.8864L13175.3296,-3287.8132L13175.1999,-3287.5931L13175.0198,-3287.3798L13174.9695,-3287.22L13174.9298,-3286.9865L13174.8596,-3286.8198L13174.8596,-3286.5868L13174.7894,-3286.4597L13174.5804,-3286.2465L13174.4507,-3286.0664L13174.4003,-3285.9932L13174.4293,-3285.8467L13174.4507,-3285.8131L13174.4507,-3285.7597L13174.3607,-3285.5801L13174.2706,-3285.4332L13174.2004,-3285.3466L13174.1302,-3285.3065L13173.7198,-3285.22L13173.5397,-3285.1665L13173.2895,-3285.0933L13172.9294,-3284.893L13172.6501,-3284.893L13172.2198,-3284.6798L13172.0398,-3284.5531L13171.9696,-3284.4997L13171.7407,-3284.4799L13171.6797,-3284.3731L13171.6095,-3284.2999L13171.6095,-3284.193L13171.6095,-3284.0134"/>
<path content="AP030,1,28,1,0,15,1,8,JPN" xlink:title="AP030" d="M13167.0853,-3285.4984L13167.0868,-3285.4984L13167.5171,-3285.4572L13167.9474,-3285.519L13168.4021,-3285.5816L13168.6661,-3285.6022L13168.7851,-3285.4572L13168.8095,-3285.0853L13168.8568,-3284.8576L13168.9529,-3284.7336L13169.3832,-3284.713L13170.1981,-3284.6928L13170.6528,-3284.5688L13171.347,-3284.1553L13171.4081,-3284.1221L13171.6095,-3284.0134"/>
<path content="AP030,1,28,1,0,15,1,8,JPN" xlink:title="AP030" d="M13161.7203,-3284.5531L13160.6842,-3284.2319L13159.8465,-3284.4685L13159.1965,-3284.3761L13158.609,-3283.6887L13157.0801,-3284.2155"/>
<path content="AP030,1,28,1,0,15,1,8,JPN" xlink:title="AP030" d="M13189.3097,-3294.68L13187.648,-3293.6203L13187.2955,-3292.6079L13187.3398,-3292.1822L13187.5061,-3291.5512L13187.3978,-3290.6429L13186.3693,-3290.2668L13186.3281,-3289.1918L13186.5204,-3288.3057L13187.4817,-3287.8616L13188.4735,-3287.1201L13188.4613,-3285.7471L13189.6591,-3284.9773L13190.799,-3283.7746L13191.1072,-3283.2397L13190.8722,-3282.0644L13191.1774,-3281.5723L13192.2531,-3281.4796L13192.2699,-3280.1533"/>
<path content="AP030,1,28,1,0,14,1,8,JPN" xlink:title="AP030" d="M13194.8593,-3287.8864L13194.8593,-3287.6534L13194.9295,-3287.5599L13195.1797,-3287.5599L13195.1996,-3287.5065L13195.0607,-3287.4531L13195.0195,-3287.4001L13195.0607,-3287.3066L13195.1096,-3287.22L13195.0806,-3287.1666L13195.1096,-3287.0731L13195.3796,-3287.0399L13195.43,-3287.0197L13195.43,-3286.9465L13195.2896,-3286.9465L13195.1996,-3286.8401L13195.1096,-3286.7867L13195.0607,-3286.5868L13195.0394,-3286.4998L13194.9905,-3286.3197L13194.8807,-3286.1332L13194.7693,-3286.013L13194.7403,-3285.9531L13194.7205,-3285.8334L13194.7906,-3285.7067L13194.8593,-3285.4L13194.8517,-3285.313L13194.838,-3285.2043L13194.8593,-3284.9667L13195.1859,-3284.4967L13195.2805,-3284.354L13195.3629,-3284.2449L13195.4239,-3284.1908L13195.5048,-3284.1908L13195.4712,-3284.1362L13195.1797,-3283.9931L13194.9905,-3283.8867L13194.9402,-3283.8844L13194.899,-3283.8642L13194.7845,-3283.8573L13194.22,-3283.7399L13194.1101,-3283.6334L13194.0796,-3283.4866L13194.0796,-3283.4L13194.2398,-3283.2733L13194.3802,-3283.2199L13194.7205,-3283.2733L13194.9493,-3283.2733L13195.2698,-3283.3797L13195.3293,-3283.4L13195.3293,-3283.5266L13195.52,-3283.5266L13195.6497,-3283.5598L13195.6802,-3283.5266L13195.7642,-3283.2794L13195.8099,-3282.9666L13195.7901,-3282.7866L13195.8603,-3282.5535L13195.8801,-3282.3734L13195.9702,-3282.1533L13196.1807,-3281.6868L13196.1304,-3281.58L13195.9305,-3281.3065L13195.4697,-3280.9265L13195.3094,-3280.8933L13194.9295,-3280.7865L13194.6304,-3280.6599L13194.5801,-3280.64L13194.4702,-3280.5332L13194.3802,-3280.3734L13194.2902,-3280.1933L13194.2703,-3280.1201L13194.1299,-3280.0999L13193.7698,-3280.0133L13193.5593,-3280.0465L13193.3594,-3280.0667L13193.3304,-3280.0667L13193.0603,-3280.1201L13192.9001,-3280.1201L13192.6804,-3280.1201L13192.5201,-3280.1533L13192.4301,-3280.1533L13192.3096,-3280.1533L13192.2699,-3280.1533"/>
<path content="AP030,1,28,1,0,14,1,8,JPN" xlink:title="AP030" d="M13161.7203,-3284.5531L13161.7401,-3284.3201L13161.7401,-3283.8665L13161.7706,-3283.6864L13161.9003,-3283.5068L13161.9904,-3283.3466L13162.0193,-3283.2199L13162.0193,-3283.0933L13161.8805,-3282.9132L13161.8103,-3282.8197L13161.6302,-3282.7332L13161.47,-3282.6599L13161.3602,-3282.5535L13161.3098,-3282.4265L13161.2396,-3282.0667L13161.2396,-3281.58L13161.2,-3281.4335L13161.1801,-3281.3065L13161.1099,-3281.2199L13160.9894,-3281.0734L13160.9299,-3280.9132L13160.8597,-3280.7667L13160.8307,-3280.3532L13160.7697,-3280.0465L13160.6796,-3279.5265L13160.6506,-3279.4533"/>
<path content="AP030,1,28,1,0,14,1,8,JPN" xlink:title="AP030" d="M13160.6506,-3279.4533L13160.5606,-3279.2198L13160.5606,-3279.1664"/>
<path content="AP030,1,28,1,0,14,1,8,JPN" xlink:title="AP030" d="M13192.2699,-3280.1533L13192.1494,-3280.1533L13191.9693,-3280.1533L13191.9296,-3280.1201L13191.8594,-3280.0667L13191.8106,-3279.94L13191.7694,-3279.8664L13191.7404,-3279.8134L13191.6794,-3279.76L13191.6107,-3279.6532L13191.6107,-3279.6333L13191.6107,-3279.5067L13191.5802,-3279.5067L13191.5207,-3279.5601L13191.4001,-3279.5799L13191.1499,-3279.5067L13191.0599,-3279.5067L13190.9897,-3279.4865L13190.9302,-3279.4334L13190.8997,-3279.38L13190.7898,-3279.38L13190.6494,-3279.38L13190.6097,-3279.3465L13190.5197,-3279.3064L13190.4694,-3279.3064L13190.2405,-3279.3064L13190.1993,-3279.38L13190.1093,-3279.4334L13190.0406,-3279.4533L13189.9307,-3279.5067L13189.7903,-3279.4865L13189.7003,-3279.5067L13189.7003,-3279.5601L13189.8102,-3279.5799L13189.9307,-3279.6333L13190.0192,-3279.7398L13190.0604,-3279.94L13190.0406,-3279.9934L13190.0192,-3280.1731L13189.9307,-3280.2799L13189.74,-3280.2467L13189.5599,-3280.1731L13189.5203,-3280.1731L13189.5203,-3280.2467L13189.5798,-3280.3532L13189.6103,-3280.4268L13189.5798,-3280.5866L13189.4501,-3280.64L13189.3097,-3280.64L13189.1296,-3280.6599L13188.9297,-3280.5332L13188.7894,-3280.4268L13188.6993,-3280.2467L13188.6795,-3280.1533L13188.6993,-3279.9934L13188.6307,-3279.8866L13188.5406,-3279.76L13188.4903,-3279.6333L13188.5406,-3279.4533L13188.4506,-3279.3465L13188.2904,-3279.2L13188.1805,-3279.1466L13187.97,-3279.1466L13187.8098,-3279.1664L13187.5595,-3279.1466L13187.413,-3279.105L13187.2894,-3278.9131L13187.2406,-3278.8597L13187.0407,-3278.8933L13186.9003,-3278.9665L13186.8103,-3278.9665L13186.7203,-3278.8933L13186.7188,-3278.8933"/>
<path content="AP030,1,28,1,0,14,1,4,JPN" xlink:title="AP030" d="M13160.5606,-3279.1664L13160.5392,-3278.9997L13160.5194,-3278.7998L13160.4004,-3278.6198L13160.231,-3278.3394"/>
<path content="AP030,1,28,1,0,14,1,8,JPN" xlink:title="AP030" d="M13160.6506,-3279.4533L13160.5392,-3279.3266L13160.4904,-3279.2732L13160.3302,-3279.2L13160.2707,-3279.0932L13160.3104,-3278.9867L13160.3302,-3278.8597L13160.3806,-3278.82L13160.3806,-3278.7132L13160.2905,-3278.6598L13160.2707,-3278.5534L13160.2203,-3278.4267L13160.2203,-3278.3531L13160.231,-3278.3394"/>
<path content="AP030,1,28,1,0,14,1,4,JPN" xlink:title="AP030" d="M13160.231,-3278.3394L13160.2203,-3278.3199L13159.8999,-3277.9198L13159.79,-3277.7931"/>
<path content="AP030,1,28,1,0,14,1,8,JPN" xlink:title="AP030" d="M13159.79,-3277.7931L13159.6497,-3277.6333"/>
<path content="AP030,1,28,1,0,14,1,8,JPN" xlink:title="AP030" d="M13160.231,-3278.3394L13160.3104,-3278.2467L13160.3607,-3278.1532L13160.4507,-3278.0464L13160.4294,-3277.94L13160.4904,-3277.8667L13160.4507,-3277.5799L13160.2707,-3277.4532L13160.1105,-3277.38L13159.9304,-3277.3998L13159.8099,-3277.56L13159.7397,-3277.6333L13159.6497,-3277.6333"/>
<path content="AP030,1,28,1,0,14,1,8,JPN" xlink:title="AP030" d="M13179.2892,-3276.3733L13179.3304,-3276.4065L13179.4006,-3276.4065L13179.5197,-3276.3535L13179.6097,-3276.3733L13179.6997,-3276.4599L13179.8294,-3276.4797L13180.0598,-3276.4797L13180.2704,-3276.5533L13180.3604,-3276.6598L13180.3802,-3276.8398L13180.4306,-3276.86L13180.4703,-3276.8932L13180.6793,-3276.9665L13180.9692,-3276.9665L13181.2195,-3276.9867L13181.3293,-3277.0733L13181.4499,-3277.1999L13181.6101,-3277.1999L13181.7001,-3277.1999L13181.9702,-3277.2732L13182.0602,-3277.38L13182.2403,-3277.4532L13182.3807,-3277.38L13182.6797,-3277.38L13182.7896,-3277.4334L13182.93,-3277.7065L13183.02,-3277.8133L13183.2703,-3277.8667L13183.3099,-3277.9198L13183.5205,-3278.0464L13183.6304,-3278.0998L13183.7906,-3278.0998L13183.8593,-3278.1734L13183.9493,-3278.2265L13184.0805,-3278.3199L13184.1995,-3278.4065L13184.3307,-3278.4798L13184.4299,-3278.5332L13184.52,-3278.5534L13184.52,-3278.5332L13184.5398,-3278.4798L13184.6497,-3278.4065L13184.6802,-3278.3733L13184.6497,-3278.3531L13184.5398,-3278.2997L13184.52,-3278.2265L13184.52,-3278.1532L13184.6298,-3278.12L13184.79,-3278.12L13184.8801,-3278.1933L13184.9304,-3278.2265L13184.9899,-3278.1933L13185.0601,-3278.1734L13185.1105,-3278.1933L13185.1105,-3278.2467L13185.1105,-3278.4267L13185.1303,-3278.5332L13185.1807,-3278.5866L13185.2005,-3278.5534L13185.2203,-3278.5L13185.4004,-3278.3531L13185.5194,-3278.2997L13185.6094,-3278.3199L13185.6094,-3278.4599L13185.6796,-3278.4599L13185.7697,-3278.4065L13185.8597,-3278.2997L13185.9497,-3278.2799L13186.0397,-3278.2997L13186.1099,-3278.2997L13186.1496,-3278.4065L13186.2,-3278.4267L13186.2701,-3278.4267L13186.4304,-3278.5332L13186.3998,-3278.64L13186.38,-3278.7132L13186.4304,-3278.7865L13186.6104,-3278.8933L13186.7188,-3278.8933"/>
<path content="AP030,1,28,1,0,15,1,8,JPN" xlink:title="AP030" d="M13170.1996,-3275.0198L13170.3995,-3275.0603L13171.4264,-3275.2659L13171.4417,-3276.0818L13172.052,-3276.556L13172.0993,-3277.0741L13172.7692,-3277.467L13173.6465,-3277.3182L13175.1144,-3276.8703L13176.0498,-3277.1542L13176.6571,-3276.685L13177.3178,-3276.1768L13179.2892,-3276.3733"/>
<path content="AP030,1,28,1,0,14,1,8,JPN" xlink:title="AP030" d="M13171.6095,-3284.0134L13171.7194,-3283.8131L13171.7194,-3283.7067L13171.7194,-3283.5598L13171.6095,-3283.2535L13171.5195,-3283.1467L13171.5393,-3283.02L13171.5805,-3282.84L13171.5805,-3282.7866L13171.5393,-3282.7667L13171.3699,-3282.7457L13171.2692,-3282.7332L13171.2006,-3282.7332L13171.1105,-3282.6401L13171.1304,-3282.5867L13171.2006,-3282.5333L13171.1502,-3282.3532L13171.2402,-3282.1934L13171.2692,-3282.0133L13171.2692,-3281.9401L13171.4294,-3281.8665L13171.4493,-3281.8134L13171.3593,-3281.7932L13171.2692,-3281.6532L13171.2402,-3281.4865L13171.2906,-3281.3999L13171.3303,-3281.3267L13171.2906,-3281.2L13171.3303,-3281.1466L13171.4493,-3281.0398L13171.4905,-3280.7465L13171.5195,-3280.5332L13171.5195,-3280.3734L13171.5607,-3280.2998L13171.6095,-3280.1933L13171.6095,-3280.0465L13171.4706,-3279.8866L13171.4294,-3279.6867L13171.3593,-3279.6333L13171.2204,-3279.5799L13171.2006,-3279.5265L13171.2601,-3279.3568L13171.2692,-3279.3266L13171.2402,-3279.2534L13171.2204,-3279.2L13171.0403,-3279.1466L13170.9702,-3279.0531L13170.8298,-3278.9467L13170.6009,-3278.9013L13170.5597,-3278.8933L13170.4895,-3278.8399L13170.4498,-3278.6598L13170.4498,-3278.6064L13170.3094,-3278.4267L13170.3094,-3278.3733L13170.3094,-3278.1734L13170.2194,-3278.0464L13170.1096,-3277.9732L13169.8593,-3277.8866L13169.5801,-3277.8133L13169.4305,-3277.6867L13169.3298,-3277.5066L13169.3298,-3277.4666L13169.3604,-3277.3998L13169.3939,-3277.3605L13169.4702,-3277.2732L13169.4901,-3277.0931L13169.5602,-3277.0733L13169.6793,-3276.9867L13169.6793,-3276.9466L13169.6793,-3276.7666L13169.7006,-3276.7132L13169.8105,-3276.5533L13169.8303,-3276.4999L13169.7906,-3276.4065L13169.9905,-3276.0468L13170.1797,-3275.9933L13170.1996,-3275.9399L13170.2194,-3275.8865L13170.0851,-3275.7515L13170.0195,-3275.6866L13169.9707,-3275.6134L13170.1996,-3275.1266L13170.1996,-3275.0198"/>
<path content="AP030,1,28,1,0,14,1,8,JPN" xlink:title="AP030" d="M13179.2892,-3276.3733L13179.2892,-3276.2798L13179.3594,-3276.2466L13179.4907,-3275.9933L13179.6295,-3275.8667L13179.6494,-3275.7065L13179.6799,-3275.6332L13179.6799,-3275.3265L13179.8096,-3275.2533L13180.1102,-3275.1465L13180.1804,-3274.9268L13180.2704,-3274.7997L13180.4306,-3274.6933L13180.8304,-3274.6399L13181.1996,-3274.5865L13181.3599,-3274.5335L13182.0801,-3274.2268L13182.4295,-3273.9735L13182.4493,-3273.7064L13182.4295,-3273.2533L13182.4005,-3272.8931L13182.2403,-3272.5864L13182.1106,-3272.48L13182.0206,-3272.3732L13181.9504,-3272.0665L13181.8604,-3271.7934L13181.7703,-3271.6331L13181.7703,-3271.4867L13181.7703,-3271.4001L13181.81,-3271.3066L13181.8298,-3271.22L13181.8314,-3271.2189"/>
<path content="AP030,1,28,1,0,15,1,8,JPN" xlink:title="AP030" d="M13186.7188,-3278.8933L13186.9202,-3278.0441L13186.6394,-3277.8088L13186.4273,-3277.4075L13186.6043,-3277.1633L13187.1231,-3276.5583L13187.0712,-3276.0826L13186.8057,-3275.2056L13186.4807,-3274.9245L13185.8383,-3274.7486L13185.2692,-3274.3637L13184.758,-3273.4253L13185.2112,-3272.4728L13184.8618,-3272.4041L13184.639,-3272.6021L13184.4482,-3271.9879L13183.7646,-3271.2513L13182.8979,-3270.8015L13181.8314,-3271.2189"/>
<path content="AP030,1,28,1,0,14,1,8,JPN" xlink:title="AP030" d="M13170.1996,-3275.0198L13170.1492,-3274.9134L13170.0607,-3274.86L13169.9707,-3274.8199L13169.9707,-3274.7665L13169.9707,-3274.7334L13170.0195,-3274.6597L13170.1294,-3274.6067L13170.2194,-3274.5533L13170.3323,-3274.5445L13170.3323,-3274.5441L13170.4697,-3274.5335L13170.6299,-3274.4064L13170.9305,-3274.3L13170.99,-3274.2268L13170.9503,-3274.0997L13170.9,-3273.9735L13170.9,-3273.8667L13171.0205,-3273.7064L13171.1105,-3273.6332L13171.4493,-3273.5798L13171.5195,-3273.5268L13171.4706,-3273.4531L13171.3593,-3273.3799L13171.2402,-3273.2735L13171.1304,-3273.0198L13171.1105,-3272.7867L13171.1304,-3272.4266L13171.0205,-3272.1931L13170.8603,-3272.1001L13170.7001,-3272.1001L13170.6299,-3272.1001L13170.52,-3272.0665L13170.3598,-3271.8132L13170.0394,-3271.6866L13169.9005,-3271.5599L13169.8593,-3271.4535L13169.8303,-3271.3264L13169.9005,-3271.2532L13169.9493,-3271.1266L13169.9707,-3270.9667L13169.9295,-3270.8199L13169.5206,-3270.3732L13169.4901,-3270.2465L13169.5206,-3270.1534L13169.6304,-3269.9734L13169.6503,-3269.8666L13169.6304,-3269.7933L13169.2703,-3269.3066L13169.0796,-3269.1265L13168.8797,-3268.9865"/>
<path content="AP030,1,28,1,0,14,1,8,JPN" xlink:title="AP030" d="M13159.6497,-3277.6333L13159.5795,-3277.4864L13159.5795,-3277.38L13159.6497,-3277.2533L13159.8602,-3277.1267L13159.9899,-3277.0733L13160.2203,-3277.0931L13160.6293,-3277.1267L13160.6796,-3277.1267L13160.8597,-3277.1267L13160.8994,-3277.1267L13161.0199,-3277.0931L13161.0596,-3277.0535L13161.1298,-3277L13161.1801,-3276.9135L13161.2396,-3276.82L13161.4502,-3276.4599L13161.7004,-3276.0998L13161.9507,-3275.8465L13162.1796,-3275.7732L13162.4298,-3275.7599L13162.5793,-3275.7065L13162.6801,-3275.6332L13162.7197,-3275.5066L13162.6999,-3275.1999L13162.6999,-3274.9866L13162.7701,-3274.8199L13162.9303,-3274.7131L13163.0402,-3274.5865L13163.1302,-3274.5335L13163.2004,-3274.4598L13163.2904,-3274.3332L13163.3102,-3274.1734L13163.2904,-3273.9532L13163.3606,-3273.8132L13163.4293,-3273.7598L13163.5406,-3273.6866L13163.6993,-3273.6534L13163.7894,-3273.6134L13163.9297,-3273.5798L13164.0396,-3273.5397L13164.2197,-3273.4531L13164.27,-3273.4333L13164.4897,-3273.3067L13164.5798,-3273.2533L13164.7003,-3273.1667L13164.7705,-3273.0934L13164.8605,-3273.0198L13164.8605,-3272.9134L13165.1306,-3272.7665L13165.2405,-3272.6933L13165.3305,-3272.6067L13165.3595,-3272.5132L13165.3595,-3272.3331L13165.3793,-3272.2797L13165.6494,-3272.0665L13165.7394,-3272.0135L13165.9698,-3271.74L13166.04,-3271.6534L13166.0797,-3271.6331L13166.2704,-3271.4867L13166.6504,-3271.3066L13166.9296,-3271.0934L13167.0395,-3270.9999L13167.2394,-3270.9465L13167.5201,-3270.8199L13167.5598,-3270.8199L13167.7704,-3270.66L13167.8802,-3270.4998L13168.0603,-3270.0665L13168.2205,-3269.5801L13168.4296,-3269.2734L13168.6295,-3269.1265L13168.8797,-3268.9865"/>
<path content="AP030,1,28,1,0,15,1,8,JPN" xlink:title="AP030" d="M13157.0801,-3284.2155L13155.6,-3283.3313L13154.0344,-3282.312L13153.3432,-3281.6589L13153.2837,-3281.2687L13152.7664,-3281.8295L13152.0386,-3281.9881L13151.6953,-3281.4045L13151.3107,-3281.2038L13149.3973,-3281.5289L13149.1409,-3281.5521L13149.1226,-3281.2508L13148.4375,-3280.8927"/>
<path content="AP030,1,28,1,0,14,1,8,JPN" xlink:title="AP030" d="M13168.8797,-3268.9865L13168.9301,-3268.6398L13169.0201,-3268.5135L13169.1101,-3268.4601L13169.3604,-3268.4067L13169.4504,-3268.3865L13169.4702,-3268.3201L13169.3802,-3268.0134L13169.4305,-3267.6334L13169.5404,-3267.4133L13169.6793,-3267.3466L13169.7205,-3267.2867L13169.7693,-3267.2001L13169.8105,-3267.0734L13169.9707,-3266.9865L13170.1294,-3266.8732L13170.1294,-3266.7866L13170.2057,-3266.6809L13170.2194,-3266.6599L13170.2194,-3266.5134L13170.1996,-3266.4265L13169.5404,-3266.1331L13169.0598,-3265.9397L13168.8797,-3265.7932L13168.7393,-3265.6532L13168.6798,-3265.5598L13168.6798,-3265.4533L13168.8995,-3265.3065L13168.9697,-3265.2199L13168.9499,-3264.9998L13168.6798,-3264.2597L13168.6798,-3264.0133L13168.7698,-3263.8466L13169.1803,-3263.4865L13169.22,-3263.3598L13169.1803,-3263.2198L13168.5806,-3262.4798L13168.5394,-3262.4397L13168.3807,-3262.2997L13168.2205,-3261.8668L13168.1503,-3261.6531L13168.1305,-3261.5932L13168.0801,-3261.4532L13168.0801,-3261.3068L13168.2205,-3261.0733L13168.2007,-3261.0001"/>
<path content="AP030,1,28,1,0,14,1,8,JPN" xlink:title="AP030" d="M13168.2007,-3261.0001L13168.6096,-3260.9665L13168.6798,-3261.0001L13168.7698,-3261.0397L13168.7698,-3261.1465L13168.8797,-3261.2732L13169.0598,-3261.4864L13169.8807,-3261.7931L13169.9493,-3261.8134L13170.1996,-3261.8866L13170.52,-3262.0667L13170.9305,-3262.3734L13171.0205,-3262.5866L13171.1105,-3262.64L13171.3104,-3262.6598L13171.5195,-3262.8201L13171.5805,-3262.8597L13172.2397,-3263.0733L13172.5601,-3263.1664L13173.2193,-3263.1268L13173.4299,-3263.1268L13173.4894,-3263.2866L13173.6801,-3263.2866L13173.7701,-3263.3999L13173.8998,-3263.4533L13174.0204,-3263.8332L13174.1806,-3264.1335L13174.4705,-3264.5134L13174.6307,-3264.7133L13174.7406,-3264.7331L13174.8596,-3264.7133L13175.1999,-3264.6198L13175.3098,-3264.5866L13175.4501,-3264.5332L13175.5798,-3264.5664L13175.6302,-3264.5535L13175.7401,-3264.4798L13175.8606,-3264.46L13175.9293,-3264.4066L13176.0193,-3264.4066L13176.0803,-3264.4264L13176.1505,-3264.46L13176.1993,-3264.5332L13176.2207,-3264.6599L13176.2894,-3264.7865L13176.2894,-3264.8399L13176.2207,-3264.9132L13176.1993,-3264.9467L13176.2695,-3264.9864L13176.2894,-3265.02L13176.2894,-3265.0734L13176.2405,-3265.1264L13176.1795,-3265.1466L13175.8804,-3265.1665L13175.8606,-3265.2L13175.8606,-3265.2534L13175.8301,-3265.3267L13175.8804,-3265.3465L13175.9506,-3265.3267L13176.0803,-3265.3065L13176.0803,-3265.3267L13176.0406,-3265.3599L13175.9705,-3265.4533L13175.9705,-3265.4667L13175.9903,-3265.5598L13175.9903,-3265.58L13175.8606,-3265.5933L13175.8301,-3265.6334L13175.8301,-3265.6864L13175.8606,-3265.72L13175.9293,-3265.7398L13175.9903,-3265.8867L13176.1093,-3265.9199L13176.0803,-3265.9534L13176.0803,-3266.0267L13175.9705,-3266.1732L13176.0193,-3266.2266L13176.0803,-3266.2266L13176.2207,-3266.1198L13176.3596,-3266.0667L13176.4694,-3266.0667L13176.5594,-3266.1331L13176.5793,-3266.32L13176.6098,-3266.6065L13176.6098,-3266.6599L13176.6998,-3266.7667L13176.6495,-3266.8198L13176.6998,-3266.9865L13176.7197,-3267.0734L13176.7197,-3267.1265L13176.77,-3267.2001L13176.8295,-3267.2531L13176.86,-3267.2733L13177.1103,-3267.3798L13177.4307,-3267.4866L13177.5604,-3267.5598L13177.7695,-3267.6666L13177.8595,-3267.7067L13178.1097,-3267.72L13178.2898,-3267.72L13178.4302,-3267.7601L13178.45,-3267.7933L13178.5797,-3267.9531L13178.6804,-3268.1534L13178.6301,-3268.2465L13178.6301,-3268.3533L13178.7704,-3268.4998L13178.9902,-3268.6798L13179.8096,-3268.5665L13179.8599,-3268.5135L13180.04,-3268.4601L13180.1804,-3268.4399L13180.2704,-3268.5135L13180.3604,-3268.5532L13180.4504,-3268.66L13180.7007,-3268.7332L13180.8807,-3268.84L13181.0394,-3268.9865L13181.0593,-3269.0533L13181.1493,-3269.3268L13181.1996,-3269.4534L13181.2897,-3269.7399L13181.3797,-3269.9932L13181.4301,-3270.1L13181.4697,-3270.1935L13181.5201,-3270.3335L13181.5598,-3270.4399L13181.6299,-3270.5132L13181.7703,-3270.5666L13181.9,-3271.18L13181.8314,-3271.2189"/>
<path content="AP030,1,28,1,0,14,1,8,JPN" xlink:title="AP030" d="M13168.2007,-3261.0001L13168.1793,-3260.9264L13168.1793,-3260.2467L13168.1305,-3260.0998L13168.1107,-3260.0132L13168.0603,-3259.8999L13167.6102,-3259.6134L13167.54,-3259.38L13167.4896,-3259.0401L13167.5201,-3258.9134L13167.54,-3258.8734L13167.6102,-3258.68"/>
<path content="AP030,1,28,1,0,14,1,8,JPN" xlink:title="AP030" d="M13167.0197,-3258.5335L13167.2897,-3258.5335L13167.6102,-3258.68"/>
<path content="AP030,1,28,1,0,14,1,8,JPN" xlink:title="AP030" d="M13166.8091,-3258.5331L13166.8106,-3258.5335L13167.0197,-3258.5335"/>
<path content="AP030,1,28,1,0,15,1,8,JPN" xlink:title="AP030" d="M13168.2007,-3261.0001L13167.8329,-3260.9665L13167.2607,-3260.9146L13166.7664,-3259.56L13166.7236,-3259.444L13166.8091,-3258.5331"/>
<path content="AP030,1,28,1,0,14,1,8,JPN" xlink:title="AP030" d="M13165.0192,-3258.6399L13165.5197,-3258.4064L13166.0202,-3258.5133L13166.3605,-3258.5133L13166.8091,-3258.5331"/>
<path content="AP030,1,28,1,0,15,1,8,JPN" xlink:title="AP030" d="M13167.0197,-3258.5335L13166.951,-3256.8214"/>
<path content="AP030,1,28,1,0,15,1,8,JPN" xlink:title="AP030" d="M13165.0192,-3258.6399L13165.6311,-3256.9241L13165.9439,-3256.8871L13166.951,-3256.8214"/>
<path content="AP030,1,28,1,0,14,1,8,JPN" xlink:title="AP030" d="M13148.4375,-3259.8926L13148.7198,-3259.6535L13149.1577,-3259.544L13149.5193,-3259.4532L13149.6994,-3259.38"/>
<path content="AP030,1,28,1,0,14,1,8,JPN" xlink:title="AP030" d="M13159.9206,-3257.3005L13159.7702,-3257.1465L13159.52,-3256.9134L13159.2194,-3256.8001L13158.9294,-3256.7333L13158.7402,-3256.7333L13158.5602,-3256.8199L13158.3603,-3256.7867L13158.02,-3256.6601L13157.93,-3256.62L13157.7393,-3256.5666L13157.5195,-3256.4999L13157.3303,-3256.5865L13157.0206,-3256.4999L13156.7703,-3256.4999L13156.6101,-3256.48L13156.1493,-3256.4598L13155.9692,-3256.4999L13155.7404,-3256.5334L13155.2002,-3256.5533L13154.8599,-3256.5865L13154.7195,-3256.5334L13154.6295,-3256.4266L13154.5807,-3256.0665L13154.5395,-3255.9933L13154.4495,-3255.92L13154.2007,-3255.9734L13153.9001,-3255.9933L13153.8101,-3255.9933L13153.7201,-3256.0265L13153.54,-3256.2466L13153.5202,-3256.3L13153.5202,-3256.4598L13153.5599,-3256.6399L13153.5599,-3256.7135L13153.4698,-3256.8733L13153.3798,-3256.9267L13153.2394,-3256.9466L13153.0807,-3256.9466L13152.9907,-3256.8932L13152.8107,-3256.6601L13152.7695,-3256.5666L13152.6855,-3256.5357L13152.5192,-3256.4598L13152.4002,-3256.3534L13152.2705,-3256.2267L13152.0798,-3256.1333L13151.8997,-3256.1535L13151.8295,-3256.2267"/>
<path content="AP030,1,28,1,0,15,1,8,JPN" xlink:title="AP030" d="M13151.8295,-3256.2267L13151.7776,-3255.8987L13151.7532,-3255.751L13151.886,-3255.18"/>
<path content="AP030,1,28,1,0,14,1,8,JPN" xlink:title="AP030" d="M13167.6102,-3258.68L13167.6498,-3258.5667L13168.0603,-3258.0265L13168.1503,-3257.8999L13168.2007,-3257.8465L13168.2205,-3257.5798L13168.2404,-3257.5066L13168.2205,-3257.1667L13168.2205,-3257.0732L13168.1793,-3256.7333L13168.0405,-3256.3L13168.0206,-3256.2466L13167.7399,-3255.1666L13167.6498,-3254.9465"/>
<path content="AP030,1,28,1,0,15,1,8,JPN" xlink:title="AP030" d="M13166.951,-3256.8214L13167.1112,-3255.9673L13167.0486,-3255.1968L13167.5308,-3254.9957L13167.6498,-3254.9465"/>
<path content="AP030,1,28,1,0,14,1,8,JPN" xlink:title="AP030" d="M13167.6498,-3254.9465L13167.6498,-3254.66L13167.7002,-3254.4598L13167.72,-3254.2465"/>
<path content="AP030,1,28,1,0,14,1,8,JPN" xlink:title="AP030" d="M13167.72,-3254.2465L13167.7399,-3253.9932L13167.8543,-3253.672"/>
<path content="AP030,1,28,1,0,14,1,8,JPN" xlink:title="AP030" d="M13167.0395,-3253.3066L13167.7521,-3253.6091L13167.8101,-3253.6331L13167.8543,-3253.672"/>
<path content="AP030,1,28,1,0,15,1,8,JPN" xlink:title="AP030" d="M13151.886,-3255.18L13153.2043,-3254.9484L13153.4454,-3254.6555L13154.1336,-3254.5967L13155.1071,-3254.826L13155.7861,-3255.3444L13156.6437,-3255.6759L13157.2845,-3256.0799L13159.0103,-3256.3885L13159.7733,-3256.1127L13160.8063,-3256.2794L13161.7359,-3256.155"/>
<path content="AP030,1,28,1,0,14,1,8,JPN" xlink:title="AP030" d="M13167.0395,-3253.3066L13166.5701,-3252.9014"/>
<path content="AP030,1,28,1,0,15,1,8,JPN" xlink:title="AP030" d="M13151.886,-3255.18L13152.0172,-3254.7924L13152.0172,-3254.4502L13151.9379,-3254.1534L13151.4359,-3253.788L13151.2253,-3253.537L13151.1719,-3253.3314L13151.3046,-3252.9663L13151.4099,-3252.6924L13151.4694,-3252.4399"/>
<path content="AP030,1,28,1,0,14,1,8,JPN" xlink:title="AP030" d="M13167.8604,-3250.9666L13168.1503,-3251.2733L13168.1793,-3251.4133L13168.2205,-3251.7399L13168.2907,-3252.0664L13168.2907,-3252.2999L13168.2693,-3252.3865L13168.1107,-3252.9133L13168.1107,-3252.9465L13167.8543,-3253.672"/>
<path content="AP030,1,28,1,0,15,1,8,JPN" xlink:title="AP030" d="M13167.0395,-3253.3066L13167.2852,-3251.5427L13167.7734,-3251.0521L13167.8604,-3250.9666"/>
<path content="AP030,1,28,1,0,14,1,8,JPN" xlink:title="AP030" d="M13166.2003,-3249.8665L13166.2903,-3250.0668L13166.7404,-3250.28L13167.3096,-3250.5531L13167.7704,-3250.8934L13167.8604,-3250.9666"/>
<path content="AP030,1,28,1,0,16,1,8,JPN" xlink:title="AP030" d="M13161.6613,-3256.207L13161.7359,-3256.155"/>
<path content="AP030,1,28,1,0,14,1,8,JPN" xlink:title="AP030" d="M13151.4694,-3252.4399L13151.3107,-3252.4067L13151.1505,-3252.4399L13151.0193,-3252.4067L13150.8804,-3252.4597L13150.8102,-3252.4799L13150.7706,-3252.4399L13150.7706,-3252.4067L13150.7706,-3252.3197L13150.8804,-3252.1534L13150.9705,-3252.0798L13151.1505,-3252.0798L13151.2695,-3252.0466L13151.4694,-3252.0466L13151.6296,-3251.8867L13151.6296,-3251.7735L13151.5396,-3251.6533L13151.4694,-3251.58L13151.4297,-3251.3798L13151.2695,-3251.2333L13151.1993,-3251.1997L13151.1505,-3251.1997L13151.0193,-3251.2531L13150.9705,-3251.3065L13150.8804,-3251.3065L13150.8606,-3251.2733L13150.8606,-3251.1997L13150.9003,-3251.1467L13151.0193,-3251.0399L13151.0406,-3250.9666L13151.0406,-3250.9132L13150.9506,-3250.7668L13150.7401,-3250.6397L13150.65,-3250.5665L13150.4898,-3250.3532L13150.4303,-3250.2602L13150.1801,-3250.2602L13150.1801,-3250.1934L13150.3601,-3250.1331L13150.3799,-3250.0134L13150.3098,-3249.8665L13150.0595,-3249.7734L13149.4904,-3249.4331L13149.3301,-3249.3465L13149.0204,-3249.3465L13148.7701,-3249.4667L13148.4375,-3249.7117"/>
<path content="AP030,1,28,1,0,14,1,8,JPN" xlink:title="AP030" d="M13166.2003,-3249.8665L13166.1804,-3249.5266L13166.1804,-3249.4865L13166.2903,-3249.02L13166.33,-3248.7667L13166.3101,-3248.6599L13166.1499,-3248.46L13165.6906,-3248.1785L13165.5594,-3248.0267L13165.1993,-3247.4133L13165.0803,-3247.2534"/>
<path content="AP030,1,28,1,0,14,1,8,JPN" xlink:title="AP030" d="M13151.4694,-3252.4399L13151.8097,-3252.5131L13151.9501,-3252.4597L13152.0203,-3252.2999L13152.15,-3252.3197L13152.2705,-3252.3731L13152.4506,-3252.4067L13152.6093,-3252.3865L13152.7893,-3252.3335L13152.9907,-3252.2465L13153.1799,-3251.9733L13153.27,-3251.9733L13153.27,-3252.0134L13153.27,-3252.0798L13153.3295,-3252.2465L13153.4897,-3252.2999L13153.4897,-3252.3533L13153.45,-3252.4067L13153.3798,-3252.4597L13153.27,-3252.6066L13153.2394,-3252.84L13153.27,-3252.9133L13153.36,-3252.9667L13153.54,-3252.9667L13153.9001,-3252.8732L13154.1306,-3252.7332L13154.3793,-3252.5665L13154.5593,-3252.4067L13154.6799,-3252.28L13154.6799,-3252.1732L13154.6494,-3252.0466L13154.5807,-3251.9199L13154.5807,-3251.8665L13154.8798,-3251.7735L13155.13,-3251.7399L13155.4306,-3251.6533L13155.5206,-3251.58L13155.5206,-3251.4L13155.4703,-3251.2867L13155.3299,-3251.2333L13155.2002,-3251.1467L13155.1804,-3251.0399L13155.3101,-3250.9666L13155.6503,-3250.9266L13155.8594,-3250.84L13156.0394,-3250.8198L13156.1996,-3250.8198L13156.3095,-3250.7668L13156.4896,-3250.6798L13156.5598,-3250.5867L13156.4697,-3250.4066L13156.3095,-3250.1202L13156.2195,-3249.9733L13156.2195,-3249.8867L13156.3095,-3249.8135L13156.6299,-3249.7601L13156.8298,-3249.6132L13157.1106,-3249.3267L13157.4295,-3249.0398L13157.4493,-3248.9864L13157.6996,-3249.02L13157.93,-3249.0398L13158.02,-3249.0398L13158.1802,-3249.0398L13158.2397,-3248.9468L13158.2397,-3248.8201L13158.2199,-3248.6801L13158.2199,-3248.6065L13158.2397,-3248.46L13158.3603,-3248.4066L13158.4702,-3248.3734L13158.6105,-3248.3734L13158.7692,-3248.32L13158.9493,-3248.28L13159.0195,-3248.28L13159.0607,-3248.3734L13159.1095,-3248.5001L13159.1797,-3248.6599L13159.2896,-3248.6935L13159.4498,-3248.7331L13159.61,-3248.6935L13159.7198,-3248.6198L13159.7702,-3248.5001L13159.7198,-3248.3734L13159.6802,-3248.28L13159.6298,-3248.1533L13159.7,-3248.0667L13159.79,-3248.0667L13159.9899,-3248.1201L13160.1501,-3248.1335L13160.3104,-3248.1335L13160.4706,-3248.1934L13160.5804,-3248.1934L13160.6796,-3248.1731L13160.7697,-3248.1335L13160.8795,-3247.9401L13160.9695,-3247.8134L13161.0596,-3247.7066L13161.2198,-3247.58L13161.3602,-3247.4865L13161.4304,-3247.4335L13161.4502,-3247.3267L13161.47,-3247.2332L13161.5204,-3247.1664L13161.6302,-3247.1664L13161.9003,-3247.2534L13162.1796,-3247.2733L13162.2894,-3247.2534L13162.4298,-3247.2L13162.6297,-3247.0932L13162.8799,-3246.9265L13163.0798,-3247.02L13163.4506,-3247.2733L13163.6505,-3247.4335L13163.8596,-3247.4865L13164.0594,-3247.6868L13164.18,-3247.7402L13164.4302,-3247.8867L13164.74,-3247.8134L13164.6805,-3247.5933L13164.74,-3247.4865L13164.83,-3247.3801L13164.92,-3247.3118L13164.9704,-3247.2733L13165.0803,-3247.2534"/>
<path content="AP030,1,28,1,0,14,1,8,JPN" xlink:title="AP030" d="M13165.0803,-3247.2534L13164.74,-3246.7133L13164.7202,-3246.6064L13164.8605,-3246.2265L13164.8102,-3246.08L13164.5599,-3245.7401L13163.9694,-3245.0001L13163.8596,-3244.8601L13163.8596,-3244.8597"/>
<path content="AP030,1,28,1,0,15,1,8,JPN" xlink:title="AP030" d="M13165.48,-3242.4797L13165.7639,-3242.548L13166.3406,-3242.4988"/>
<path content="AP030,1,28,1,0,15,1,8,JPN" xlink:title="AP030" d="M13163.8596,-3244.8597L13164.1388,-3244.3172L13164.0167,-3243.9159L13164.2761,-3243.5204L13165.2878,-3242.9504L13165.48,-3242.4797"/>
<path content="AP030,1,28,1,0,15,1,8,JPN" xlink:title="AP030" d="M13163.0203,-3241.8865L13165.48,-3242.4797"/>
<path content="AP030,1,28,1,0,14,1,8,JPN" xlink:title="AP030" d="M13163.8596,-3244.8597L13163.6795,-3244.7666L13163.5605,-3244.7132L13163.06,-3244.4801L13162.7701,-3243.94L13162.7701,-3243.8999L13162.8098,-3243.2331L13162.8601,-3243.0733L13162.97,-3242.8932L13162.9898,-3242.5533L13162.9898,-3242.2798L13162.9898,-3242.2066L13163.0203,-3241.8865"/>
<path content="AP030,1,28,1,0,15,1,8,JPN" xlink:title="AP030" d="M13165.48,-3242.4797L13165.4816,-3242.4786L13165.1352,-3241.5321L13164.1495,-3240.7665"/>
<path content="AP030,1,28,1,0,16,1,8,JPN" xlink:title="AP030" d="M13164.1495,-3240.7665L13164.1098,-3240.7333L13163.9496,-3240.5865L13163.9496,-3240.5533L13163.8596,-3240.3732"/>
<path content="AP030,1,28,1,0,14,1,8,JPN" xlink:title="AP030" d="M13148.4375,-3242.5746L13148.5397,-3242.5133L13148.8098,-3242.5133L13149.4293,-3242.5331L13149.4507,-3242.5133L13149.7192,-3242.0132L13149.8093,-3241.8865L13149.9496,-3241.7198L13150.1297,-3241.5798L13150.2396,-3241.4532L13150.3296,-3241.2201L13150.3296,-3241.1266L13150.1999,-3240.8199L13150.2701,-3240.44L13149.9695,-3240.1932L13149.8993,-3240.1001L13149.8993,-3240.0265L13149.8993,-3239.9399L13150.1801,-3239.7064"/>
<path content="AP030,1,28,1,0,15,1,8,JPN" xlink:title="AP030" d="M13163.8596,-3240.3732L13163.6246,-3239.8506L13162.8601,-3239.5405"/>
<path content="AP030,1,28,1,0,14,1,8,JPN" xlink:title="AP030" d="M13163.0203,-3241.8865L13163.0203,-3241.7198L13163.0203,-3241.2201L13163.0203,-3240.9134L13163.0203,-3240.62L13163.0402,-3240.48L13163.06,-3240.2466L13162.9303,-3239.7064"/>
<path content="AP030,1,28,1,0,14,1,8,JPN" xlink:title="AP030" d="M13155.4489,-3239.3265L13155.4504,-3239.3265L13155.5603,-3239.6866L13155.7404,-3239.7598L13155.8594,-3239.92L13156.1798,-3240.0467L13156.2698,-3240.0467L13156.4896,-3239.9399L13156.5598,-3239.9399L13157.2906,-3240.2599L13157.5195,-3240.3534L13157.6797,-3240.3534L13158.0597,-3240.3534L13158.2001,-3240.5132L13158.4503,-3240.6067L13158.58,-3240.62L13158.6807,-3240.7131L13159.0393,-3240.8199L13159.3094,-3240.9664L13159.7702,-3240.9466L13159.8999,-3241.0934L13160.08,-3241.2201L13160.2005,-3241.2865L13160.5804,-3241.4001L13160.7193,-3241.56L13161.29,-3241.7065L13161.5601,-3241.6332L13161.6104,-3241.6332L13161.8805,-3241.7198L13162.0407,-3241.7198L13162.2696,-3241.74L13162.4298,-3241.7732L13162.5397,-3241.7934L13162.6801,-3241.8205L13163.0203,-3241.8865"/>
<path content="AP030,1,28,1,0,14,1,8,JPN" xlink:title="AP030" d="M13150.1801,-3239.7064L13150.2701,-3239.6332L13150.5402,-3239.4867L13150.6805,-3239.4135L13150.9293,-3239.2532L13151.1093,-3239.18L13151.2405,-3239.1666"/>
<path content="AP030,1,28,1,0,14,1,8,JPN" xlink:title="AP030" d="M13155.4489,-3239.3265L13155.0201,-3239.3265L13154.6494,-3239.2864L13154.2694,-3239.2532L13154.0802,-3239.3467L13154.0207,-3239.4665L13153.9703,-3239.6332L13153.5797,-3239.74L13153.3997,-3239.7064L13153.2898,-3239.6332L13152.9297,-3238.8599L13152.8595,-3238.7867L13152.6505,-3238.6799L13152.5604,-3238.6799L13152.4506,-3238.7333L13152.1103,-3239.0202L13151.5198,-3239.1464L13151.2405,-3239.1666"/>
<path content="AP030,1,28,1,0,14,1,8,JPN" xlink:title="AP030" d="M13151.2405,-3239.1666L13151.1993,-3238.9999L13151.0406,-3238.8L13150.6805,-3238.5666L13150.6104,-3238.4602L13150.3601,-3237.92L13150.3601,-3237.8864L13150.3601,-3237.7602L13150.3601,-3237.5065L13149.8993,-3237.0934L13149.7894,-3237.0533L13149.6094,-3237.0934L13149.4293,-3237.0731L13149.0204,-3236.7664L13148.8297,-3236.5868L13148.5199,-3236.4067"/>
<path content="AP030,1,28,1,0,15,1,8,JPN" xlink:title="AP030" d="M13150.1801,-3239.7064L13149.7055,-3239.1907L13149.2813,-3238.6547L13148.8235,-3237.7235L13148.5199,-3236.4067"/>
<path content="AP030,1,28,1,0,14,1,8,JPN" xlink:title="AP030" d="M13148.4375,-3236.4124L13148.5199,-3236.4067"/>
<path content="AP030,1,28,1,0,14,1,8,JPN" xlink:title="AP030" d="M13162.8601,-3239.5405L13162.8601,-3239.5401L13162.7197,-3238.8401L13162.7197,-3238.7867L13162.7197,-3237.9002L13162.7701,-3237.7602L13162.97,-3237.5401L13163.0203,-3237.3466L13162.9898,-3237.1265L13162.8799,-3236.9465L13162.3596,-3236.4601L13162.2894,-3236.3731L13162.2192,-3236.1935L13162.0193,-3235.7067L13162.0193,-3235.5064L13162.0193,-3235.4332L13162.1094,-3235.3065L13162.2894,-3235.1799L13162.2757,-3234.9075L13162.2696,-3234.8L13162.2696,-3234.6931L13162.3306,-3234.5001L13162.2899,-3234.375"/>
<path content="AP030,1,28,1,0,15,1,8,JPN" xlink:title="AP030" d="M13155.4489,-3239.3265L13155.9479,-3238.9271L13155.5984,-3238.1165L13155.043,-3237.1983L13155.6274,-3237.0579L13156.1646,-3236.8679L13156.5323,-3236.2038L13156.7245,-3235.4111L13157.756,-3235.4198L13158.165,-3235.4046L13159.2072,-3234.7912L13160.1837,-3234.5421L13160.2694,-3234.375"/>
<path content="AP030,1,28,1,0,14,1,8,JPN" xlink:title="AP030" d="M13165.0192,-3258.6399L13164.5203,-3258.6067L13164.0198,-3258.3534L13163.6505,-3258.3L13163.3606,-3258.3L13163.0203,-3258.3332L13162.8799,-3258.3199L13162.7899,-3258.2798L13162.6999,-3258.1734L13162.5198,-3258.0467L13162.2894,-3258.0997L13162.1506,-3258.0997L13161.7706,-3257.8465L13161.1099,-3257.8133L13160.6506,-3257.7198L13159.9206,-3257.3005"/>
<path content="AP030,1,28,1,0,15,1,8,JPN" xlink:title="AP030" d="M13161.7359,-3256.155L13162.8296,-3256.2538L13163.5086,-3256.2828L13164.6255,-3255.8998L13164.5584,-3255.5393L13167.0395,-3253.3066"/>
<path content="AP030,1,28,1,0,16,1,8,JPN" xlink:title="AP030" d="M13166.5701,-3252.9014L13166.4598,-3252.0075L13166.3827,-3251.2157L13166.2961,-3250.573L13166.1932,-3250.2304"/>
<path content="AP030,1,28,1,0,16,1,8,JPN" xlink:title="AP030" d="M13162.272,-3257.642L13162.6075,-3256.3033"/>
<path content="AP030,1,28,1,0,16,1,8,JPN" xlink:title="AP030" d="M13162.6075,-3256.3033L13163.522,-3255.2703L13164.5619,-3254.5344L13166.0685,-3253.7293L13166.5701,-3252.9014"/>
<path content="AP030,1,28,1,1,16,1,8,JPN" xlink:title="AP030" d="M13185.5868,-3296.2769L13186.5864,-3293.9129L13186.3049,-3292.7401L13185.8827,-3291.0512L13186.0704,-3289.8783L13187.1963,-3288.6586L13188.5568,-3287.908L13189.3074,-3287.2512L13189.3074,-3286.4067L13189.542,-3285.4216L13190.1353,-3284.4749L13190.6679,-3283.1228L13189.7765,-3281.8561L13189.1667,-3281.1524L13187.8062,-3280.3549L13186.9148,-3279.4166L13185.9296,-3277.587L13185.8358,-3275.945L13185.9062,-3274.9598L13185.5778,-3274.2444L13185.0148,-3273.6345L13183.9358,-3273.2357L13182.7395,-3272.7666L13182.1062,-3272.2506L13181.637,-3271.1598L13179.6784,-3269.9283L13178.7797,-3269.4539L13177.3276,-3268.0678L13175.9415,-3267.6718L13174.0934,-3267.9358L13172.5753,-3267.4738L13171.2552,-3266.7477L13170.1331,-3265.7576L13169.341,-3264.3715L13168.351,-3263.3815L13166.7009,-3262.7874L13165.0507,-3261.0053L13163.5326,-3259.1572L13162.272,-3257.642"/>
<path content="AP030,1,28,1,1,16,1,8,JPN" xlink:title="AP030" d="M13162.272,-3257.642L13161.2471,-3257.547L13160.4878,-3257.3437L13159.4981,-3257.4793L13158.4134,-3257.6691L13157.7355,-3257.5742L13156.8949,-3257.2759L13155.9052,-3256.9912L13155.2273,-3256.842L13154.3731,-3256.9912L13153.4918,-3257.3166L13152.9088,-3257.547L13152.2851,-3257.7775L13151.7699,-3258.2385L13151.092,-3258.6859L13150.1836,-3259.2011L13149.6994,-3259.38"/>
<path content="AP030,1,28,1,1,16,1,8,JPN" xlink:title="AP030" d="M13166.1932,-3250.2304L13166.2003,-3249.8665"/>
<path content="AP030,1,28,1,1,16,1,8,JPN" xlink:title="AP030" d="M13166.1932,-3250.2304L13166.0508,-3249.811L13165.8935,-3249.5784L13165.4419,-3249.3048L13164.6483,-3248.8396L13163.9779,-3248.4154L13163.3485,-3248.0323L13162.7601,-3247.5808L13162.2539,-3246.9787L13161.8708,-3246.4451L13161.474,-3245.761L13161.0772,-3245.241L13160.6393,-3244.6116L13160.2836,-3243.9549L13160.0373,-3243.4076L13159.9004,-3242.7234L13160.2288,-3242.0393L13160.8309,-3241.0268L13161.515,-3240.3974L13161.9528,-3239.6859"/>
<path content="AP030,1,28,1,1,14,1,8,JPN" xlink:title="AP030" d="M13161.9528,-3239.6859L13162.3086,-3239.8501L13162.9303,-3239.7064"/>
<path content="AP030,1,28,1,1,16,1,8,JPN" xlink:title="AP030" d="M13161.9528,-3239.6859L13162.1923,-3239.2754L13162.206,-3238.9128L13162.117,-3238.5092L13161.9939,-3237.9345L13161.9392,-3237.4351L13161.9323,-3236.963L13161.9186,-3236.7304L13161.8434,-3236.402L13161.6587,-3236.1147L13161.3234,-3235.759L13161.0293,-3235.3895L13160.7488,-3235.1501L13160.3999,-3234.8969L13160.1125,-3234.6096L13159.9176,-3234.375"/>
<path content="AP030,1,28,1,0,14,1,8,JPN" xlink:title="AP030" d="M13149.6994,-3259.38L13149.7894,-3259.2335L13149.8993,-3258.8398L13149.9893,-3258.7467L13150.1099,-3258.7334L13150.56,-3258.7334L13150.6805,-3258.6201L13150.6805,-3258.6067L13150.6805,-3258.44L13150.6805,-3258.3L13150.7202,-3258.0997L13150.9705,-3258.0666L13151.1093,-3257.9933L13151.3306,-3257.7599L13151.3992,-3257.6332L13151.3992,-3257.4135L13151.6098,-3256.8001L13151.7197,-3256.5666L13151.77,-3256.4068L13151.7899,-3256.3198L13151.8295,-3256.2267"/>
<path content="AP030,1,28,1,0,14,1,8,JPN" xlink:title="AP030" d="M13162.9303,-3239.7064L13162.8601,-3239.5405"/>
</g>
</svg>
