<?xml version="1.0" encoding="UTF-8"?>
<svg  xmlns="http://www.w3.org/2000/svg" xmlns:xlink="http://www.w3.org/1999/xlink" xmlns:go="http://purl.org/svgmap/profile" property="f_code,acc,exs,rst,med,rtt,RSU,loc,soc" viewBox="12937.5 -3093.75 281.25 281.25" go:dataArea="12937.5 -3093.75 281.25 281.25" >
<metadata>
 <rdf:RDF xmlns:rdf="http://www.w3.org/1999/02/22-rdf-syntax-ns#" xmlns:crs="http://opengis.org/xmldtds/transformations.dtd" xmlns:svg="http://www.w3.org/svg" >
  <rdf:Description>
   <crs:CoordinateReferenceSystem rdf:resource="http://purl.org/crs/84" svg:transform="matrix(100.0,0.0,0.0,-100.0,0.0,0.0)" />
  </rdf:Description>
 </rdf:RDF>
</metadata>
<globalCoordinateSystem srsName="http://purl.org/crs/84" transform="matrix(100.0,0.0,0.0,-100.0,0.0,0.0)" />
<defs>
 <g id="p0" >
  <circle cx="0.0" cy="0.0" r="3" stroke="green" stroke-width="2.0" vector-effect="non-scaling-stroke" />
 </g>
</defs>
<g fill="none" fill-rule="evenodd" stroke="#00ff00" stroke-width="2" opacity="0.5" vector-effect="non-scaling-stroke" stroke-linejoin="bevel" >
<path content="AP030,1,28,1,0,15,1,8,JPN" xlink:title="AP030" d="M12992.75,-3084.3451L12992.2668,-3084.1566L12992.2623,-3083.7833L12991.8427,-3083.6847L12991.3788,-3083.334L12991.0934,-3083.1022L12991.1423,-3082.8991L12991.4001,-3082.7353L12991.4536,-3082.4913L12991.5649,-3081.9418L12992.3584,-3081.7205L12992.5339,-3081.86L12993.0954,-3081.5771L12993.6798,-3081.5035L12994.2413,-3081.6347L12994.8563,-3081.9157L12995.6924,-3082.568L12995.8832,-3082.9987L12995.3125,-3083.1564L12994.8303,-3083.5911L12994.4519,-3083.745L12993.9575,-3083.8678L12993.4113,-3084.2348L12993.2022,-3084.1753L12992.75,-3084.3451"/>
<path content="AP030,1,28,1,0,15,1,8,JPN" xlink:title="AP030" d="M13028.952,-3079.9089L13028.9337,-3079.6783L13028.8651,-3079.5008L13028.4698,-3079.2768L13027.9892,-3078.8359L13027.8519,-3078.4809L13027.8854,-3077.9903"/>
<path content="AP030,1,28,1,0,14,1,8,JPN" xlink:title="AP030" d="M13099.5148,-3073.7777L13099.5407,-3073.6134L13099.5804,-3073.4865L13099.6094,-3073.2533L13099.6094,-3073.0534"/>
<path content="AP030,1,28,1,0,14,1,8,JPN" xlink:title="AP030" d="M13099.6094,-3073.0534L13099.6094,-3072.9134L13099.5804,-3072.7333L13099.6094,-3072.6398L13099.6094,-3072.5533L13099.5605,-3072.4998"/>
<path content="AP030,1,28,1,0,14,1,8,JPN" xlink:title="AP030" d="M13099.3988,-3072.386L13099.4003,-3072.3866L13099.4705,-3072.4266L13099.5605,-3072.4998"/>
<path content="AP030,1,28,1,0,15,1,8,JPN" xlink:title="AP030" d="M13099.5148,-3073.7777L13100.0037,-3074.2269L13100.7194,-3074.8892L13101.0269,-3075.6268L13101.1292,-3077.3071L13101.603,-3077.9291L13102.3731,-3079.0842L13103.0247,-3080.417L13104.4644,-3082.3474L13104.7191,-3082.4373L13105.1571,-3081.9571L13105.7791,-3081.9571L13106.0161,-3081.6905L13105.7199,-3080.8908L13106.1641,-3080.8612L13106.6084,-3080.9797L13106.3418,-3079.8542L13107.4081,-3078.6103L13107.4673,-3077.9587L13106.4224,-3077.0506L13106.5536,-3076.5959L13106.424,-3074.8333L13106.424,-3073.4688L13106.6238,-3072.2181"/>
<path content="AP030,1,28,1,0,15,1,8,JPN" xlink:title="AP030" d="M13099.5605,-3072.4998L13100.8316,-3072.6704L13102.2546,-3072.3018L13103.6467,-3072.3314L13104.6475,-3072.7423L13105.9791,-3072.7541L13106.6238,-3072.2181"/>
<path content="AP030,1,28,1,0,15,1,8,JPN" xlink:title="AP030" d="M13099.3988,-3072.386L13100.061,-3071.2444L13100.9069,-3069.3726L13100.8851,-3067.6928L13100.7978,-3066.951L13099.1616,-3065.2057L13098.0708,-3063.6568L13098.5077,-3062.3981L13098.6816,-3061.3007L13099.2676,-3060.7122L13099.4141,-3059.9356L13098.3032,-3058.1041L13097.3072,-3057.0247L13097.1327,-3055.6939L13096.8979,-3054.191"/>
<path content="AP030,1,28,1,0,15,1,8,JPN" xlink:title="AP030" d="M13106.6238,-3072.2181L13106.8222,-3070.9675L13106.9534,-3070.3989L13106.691,-3069.944L13105.9021,-3069.2614L13105.7053,-3068.6928L13105.4428,-3067.6125L13104.7272,-3067.4053L13104.1275,-3065.9061L13104.4193,-3064.7694L13104.3974,-3064.0713L13104.6555,-3063.4048L13104.7226,-3062.8365L13104.5258,-3062.3245L13104.4601,-3061.813L13104.3945,-3060.7327L13104.3289,-3060.1641L13103.7384,-3059.3678L13102.6855,-3058.1165L13101.503,-3056.1831L13101.0437,-3055.5006L13100.7141,-3055.1594L13100.1877,-3055.1022L13099.4644,-3055.1018L13098.7396,-3055.2153L13098.2788,-3055.2151L13097.9507,-3054.9307L13097.6883,-3054.4756L13097.5571,-3054.1346L13097.4243,-3054.0207L13096.8979,-3054.191"/>
<path content="AP030,1,28,1,0,15,1,8,JPN" xlink:title="AP030" d="M13096.8979,-3054.191L13096.5042,-3054.0203L13096.109,-3053.6221L13095.6497,-3053.1799"/>
<path content="AP030,1,28,1,0,14,1,8,JPN" xlink:title="AP030" d="M13099.3988,-3072.386L13099.2004,-3072.2799L13098.9899,-3072.1533L13098.8098,-3072.1199L13098.7198,-3072.1333L13098.5199,-3072.1199L13098.3994,-3072.0467L13098.3307,-3071.9933L13098.2193,-3071.8866L13098.1796,-3071.8666L13098.1094,-3071.7733L13098.0392,-3071.6133L13097.9004,-3071.5399L13097.7402,-3071.4666L13097.6501,-3071.3266L13097.58,-3071.1266L13097.5601,-3070.9467L13097.58,-3070.7466L13097.4304,-3070.64L13097.2702,-3070.64L13097.1802,-3070.6066L13097.1298,-3070.5532L13097.0596,-3070.4065L13097.0398,-3070.3533L13097.02,-3070.2799L13096.8796,-3070.0998L13096.6797,-3069.8866L13096.5805,-3069.7199L13096.5195,-3069.5932L13096.4905,-3069.4866L13096.4005,-3069.3998L13096.3303,-3069.2734L13096.2402,-3069.0933L13096.1105,-3068.8398L13096.0205,-3068.6066L13096.0205,-3068.5534L13095.9,-3068.4599L13095.7199,-3068.4067L13095.4498,-3068.2798L13095.2698,-3068.1932L13095.1492,-3068.0799L13095.1294,-3067.9934L13095.1797,-3067.8467L13095.2698,-3067.7067L13095.2194,-3067.5798L13095.1096,-3067.4133L13094.9493,-3067.2733L13094.7906,-3067.1467L13094.7403,-3066.9867L13094.7205,-3066.9266L13094.7403,-3066.8734L13094.7403,-3066.7465L13094.6793,-3066.4799L13094.6503,-3066.4267L13094.5602,-3066.2466L13094.4763,-3066.1402L13094.4458,-3066.083L13094.433,-3065.9886L13094.4305,-3065.8466L13094.4305,-3065.72L13094.3161,-3065.357L13094.2383,-3064.9372L13094.2642,-3064.7366L13094.3298,-3064.5533L13094.4702,-3064.32L13094.4901,-3064.2799L13094.5801,-3064.1199L13094.6503,-3063.8353L13094.7678,-3063.6686L13094.9005,-3063.5065L13094.9707,-3063.3598L13094.9905,-3063.1998L13094.9905,-3062.8399L13094.8924,-3062.4409L13094.8952,-3062.3519L13094.9295,-3062.1199L13094.9905,-3061.6667L13094.9905,-3061.4532L13094.9295,-3061.2734L13094.9005,-3061.0533L13094.9005,-3061.0199L13094.9493,-3060.8398L13094.9295,-3060.6066L13095.0394,-3060.2266L13095.0806,-3059.94L13095.1065,-3059.7706L13095.1294,-3059.6308L13095.1859,-3059.5591L13095.2194,-3059.4L13095.2698,-3059.1267L13095.2896,-3059.0532L13095.3995,-3058.8734L13095.3598,-3058.6399L13095.3796,-3058.5133L13095.3796,-3058.3733L13095.52,-3058.2066L13095.5597,-3058.0799L13095.5597,-3057.8865L13095.6299,-3057.7599L13095.6299,-3057.5066L13095.6497,-3057.2866L13095.61,-3057.2533L13095.52,-3057.1798L13095.61,-3057.0732L13095.7199,-3056.8399L13095.7703,-3056.7665L13095.7901,-3056.7333L13096.0602,-3056.6067L13096.1105,-3056.5332L13095.9702,-3056.2065L13095.9503,-3056.1199L13095.9702,-3055.9732L13096.0205,-3055.8867L13096.1105,-3055.7734L13096.2402,-3055.3799L13096.2402,-3055.3267L13095.99,-3055.0533L13095.8603,-3054.9267L13095.8801,-3054.6598L13095.8603,-3054.3865L13095.8801,-3053.9534L13095.8801,-3053.6667L13095.7199,-3053.4866L13095.6497,-3053.1799"/>
<path content="AP030,1,28,1,0,14,1,8,JPN" xlink:title="AP030" d="M13095.6497,-3053.1799L13095.6802,-3053.1067L13095.6497,-3052.8198L13095.6299,-3052.6798L13095.5795,-3052.5665L13095.43,-3052.4265L13095.1797,-3052.2066L13095.0607,-3052.0266L13094.9295,-3051.7199"/>
<path content="AP030,1,28,1,0,14,1,8,JPN" xlink:title="AP030" d="M13094.5602,-3051.2199L13094.7403,-3051.4532L13094.9157,-3051.7003"/>
<path content="AP030,1,28,1,0,15,1,8,JPN" xlink:title="AP030" d="M13094.5602,-3051.2199L13093.428,-3051.8141L13092.3508,-3052.1803L13092.4088,-3051.622L13091.4124,-3051.2064L13091.0187,-3050.6128L13090.274,-3049.654L13089.2471,-3048.8981L13088.4445,-3048.4976L13088.1332,-3047.7415L13087.4893,-3046.4529L13085.3765,-3046.0512"/>
<path content="AP030,1,28,1,0,15,1,8,JPN" xlink:title="AP030" d="M13016.2872,-3047.2691L13016.6824,-3046.8657L13016.8381,-3046.862L13016.9006,-3046.649L13017.5339,-3046.5343L13017.9031,-3046.347L13018.4372,-3046.4254L13018.9041,-3046.3245L13019.2245,-3046.3152L13019.4595,-3046.2931L13019.5892,-3046.5221L13019.6686,-3046.8479L13019.8929,-3047.1016L13020.1691,-3047.2256L13020.5215,-3047.0201L13021.051,-3046.7957L13022.0459,-3046.7445L13022.8638,-3046.1918L13023.0743,-3045.8569L13023.3994,-3045.7327L13023.7152,-3045.6753L13024.1531,-3045.3928L13024.4064,-3044.8597"/>
<path content="AP030,1,28,1,0,14,1,8,JPN" xlink:title="AP030" d="M13090.0787,-3041.8997L13090.1093,-3042.1932L13090.2206,-3042.3332L13090.2893,-3042.5865L13090.4694,-3042.9266L13090.6097,-3043.3599L13090.9302,-3043.5801L13091.4505,-3044.0132L13091.6794,-3044.3533L13091.7892,-3044.4799L13091.8793,-3044.5333L13092.0197,-3044.6199L13092.0593,-3044.68L13092.1097,-3045.4L13092.1997,-3045.9534L13092.2699,-3046.0667L13092.3798,-3046.2067L13092.3294,-3046.7333L13092.3294,-3046.7466L13092.3798,-3047.02L13092.5598,-3047.04L13092.8604,-3046.9999L13092.9703,-3046.9666L13093.0801,-3046.9866L13093.3105,-3047.1666L13093.3594,-3047.3066L13093.5806,-3047.4001L13093.7698,-3047.5401L13093.7393,-3047.9532L13093.9499,-3048.2065L13094.0796,-3048.48L13094.1101,-3048.6933L13094.3604,-3049.2867L13094.4702,-3049.5934L13094.4504,-3049.8333L13094.3604,-3049.8865L13094.3604,-3049.9399L13094.3298,-3050.2066L13094.2703,-3050.4066L13094.2398,-3050.6199L13094.2398,-3050.7465L13094.4504,-3051.0933L13094.5602,-3051.2199"/>
<path content="AP030,1,28,1,0,14,1,8,JPN" xlink:title="AP030" d="M13085.3765,-3046.0512L13085.4747,-3045.724"/>
<path content="AP030,1,28,1,0,15,1,8,JPN" xlink:title="AP030" d="M13090.0787,-3041.8997L13090.1034,-3041.8849"/>
<path content="AP030,1,28,1,0,15,1,8,JPN" xlink:title="AP030" d="M13092.8955,-3040.2033L13093.0267,-3039.8052L13093.8171,-3038.896"/>
<path content="AP030,1,28,1,0,15,1,8,JPN" xlink:title="AP030" d="M13056.8069,-3042.2867L13056.5445,-3041.4328L13056.4362,-3040.2563L13056.2927,-3039.9652L13056.781,-3039.497L13057.1274,-3039.2712L13057.1136,-3038.8638"/>
<path content="AP030,1,28,1,0,15,1,8,JPN" xlink:title="AP030" d="M13093.8171,-3038.896L13094.1467,-3038.4413L13094.4107,-3037.9866L13095.2667,-3037.4752"/>
<path content="AP030,1,28,1,0,15,1,8,JPN" xlink:title="AP030" d="M13085.4747,-3045.724L13085.4568,-3044.5774L13086.1145,-3043.5543L13086.4441,-3042.5312L13086.6425,-3041.4511L13086.8328,-3039.6209L13086.3831,-3038.2103L13086.211,-3037.7065L13086.4401,-3035.6777L13086.9637,-3035.2195L13087.6509,-3035.105L13087.9127,-3035.2359L13087.9781,-3035.7595L13088.5559,-3036.4489L13088.9107,-3036.8066L13089.6143,-3036.9703L13090.332,-3037.1887L13091.0553,-3037.587L13092.1504,-3038.1483L13093.1595,-3038.4977L13093.8171,-3038.896"/>
<path content="AP030,1,28,1,0,15,1,8,JPN" xlink:title="AP030" d="M13063.826,-3030.6673L13064.4226,-3031.0802L13064.9017,-3031.6998L13065.2008,-3032.3191L13065.3503,-3032.8869L13065.3503,-3033.2481L13065.2618,-3033.6096L13065.0818,-3033.971L13065.0528,-3034.2808L13065.1413,-3034.5131L13065.5304,-3035.1067L13065.7104,-3035.597L13065.8295,-3036.0357L13065.8005,-3036.3197L13065.7104,-3036.552L13065.7104,-3036.7844L13065.831,-3037.2231L13065.831,-3037.5071L13065.712,-3037.6362L13065.4419,-3037.7136L13065.2634,-3037.7911L13065.1733,-3037.9459L13065.1138,-3038.2042L13064.9353,-3038.3331L13064.6667,-3038.3848L13064.3372,-3038.4882L13064.0991,-3038.5656L13063.9786,-3038.8239L13063.681,-3039.0562L13063.3514,-3039.3145L13062.9929,-3039.3919L13062.7243,-3039.3921L13062.4863,-3039.4178L13062.2772,-3039.547L13061.5601,-3039.9601L13061.261,-3040.115L13060.9924,-3040.1152L13060.4843,-3039.986L13060.0067,-3039.9605L13059.5886,-3040.0896L13059.23,-3040.3736L13058.8409,-3040.8125L13058.6624,-3041.0448L13058.3939,-3041.0965L13056.8069,-3042.2867"/>
<path content="AP030,1,28,1,0,15,1,8,JPN" xlink:title="AP030" d="M13057.869,-3030.4447L13058.1772,-3030.8502L13058.4778,-3031.0522L13058.5831,-3031.1623L13058.6197,-3031.089L13058.6548,-3030.7619L13058.8898,-3030.7552L13059.169,-3030.8794L13059.4635,-3031.1316L13060.0632,-3031.2813L13060.6613,-3031.431L13060.7819,-3031.6692L13060.7788,-3031.9736L13060.7391,-3032.3511L13061.2,-3032.4137L13061.3113,-3032.1941L13061.6837,-3031.9954L13061.9568,-3031.6364L13062.1048,-3031.3437L13062.3993,-3031.5958L13062.6633,-3031.5916L13062.8036,-3031.3744L13062.8891,-3030.8479L13063.0157,-3030.7566L13063.2919,-3030.9057L13063.826,-3030.6673"/>
<path content="AP030,1,28,1,0,15,1,8,JPN" xlink:title="AP030" d="M13056.8069,-3042.2867L13055.9143,-3042.8005L13055.3177,-3043.033L13055.0186,-3043.2138L13054.7195,-3043.4719L13054.2725,-3043.5755L13053.7338,-3043.6272L13053.4348,-3043.7561L13053.1662,-3043.9112L13052.8976,-3043.9629L13052.42,-3043.9371L13052.0309,-3043.8856L13051.7319,-3043.989L13051.4191,-3044.3115L13050.9415,-3044.9312L13050.4639,-3045.0863L13050.0305,-3044.9184L13049.7009,-3044.7121L13049.3423,-3044.6348L13049.1043,-3044.8929L13048.7457,-3044.9705L13048.2529,-3044.8801L13047.5357,-3044.6739L13047.2809,-3044.4546L13047.2214,-3044.1965L13047.1313,-3043.9899L13046.9437,-3043.9743L13046.7346,-3044.2068L13046.5408,-3044.0907L13046.405,-3043.8713L13046.2646,-3043.1643L13045.9808,-3042.8675L13045.6223,-3042.7643L13045.2042,-3042.7128L13044.487,-3042.2483L13044.1132,-3041.8741L13044.0231,-3041.5901L13043.9636,-3041.0997L13043.7683,-3040.7515L13043.3502,-3040.4934L13042.6926,-3040.0806L13042.453,-3039.7194L13042.215,-3039.2548L13041.7358,-3038.8935L13041.2582,-3038.7386L13040.4221,-3038.8422L13039.5248,-3038.9456L13038.9877,-3038.8941L13038.5101,-3038.7394L13038.2706,-3038.3781L13038.2706,-3037.8618L13038.269,-3037.1391L13038.3148,-3036.4809L13038.4628,-3035.5L13038.7009,-3034.6741L13039.0442,-3034.0933L13039.2242,-3033.577L13039.1632,-3032.8026L13039.1037,-3032.4411L13039.4028,-3032.1831L13040.0589,-3031.7699L13040.6174,-3031.6595L13040.7974,-3031.2466L13040.8569,-3030.7302L13040.976,-3030.2141L13041.1545,-3029.8527L13041.333,-3029.3364L13041.333,-3028.7169L13041.5115,-3028.3554L13041.9907,-3027.9425L13042.3279,-3027.3298L13042.6254,-3026.7618L13042.8055,-3026.0391L13043.222,-3025.2131L13043.5806,-3024.4387L13043.9392,-3023.8192L13044.3192,-3023.7272L13044.783,-3023.8319L13045.6116,-3023.8703L13045.9106,-3023.8188L13046.3287,-3023.612L13046.7468,-3023.4571L13047.2855,-3023.5086L13047.8821,-3023.4568L13048.3002,-3023.1985L13048.7793,-3023.0953L13049.4354,-3023.25L13050.2136,-3023.4564L13050.8698,-3023.5594L13051.2283,-3023.5594L13051.5869,-3023.3526L13052.005,-3023.4558L13052.4231,-3023.559L13052.8732,-3023.3877L13053.2013,-3023.3877L13053.5583,-3023.4554L13054.9774,-3023.6225L13055.7846,-3023.9582L13056.5323,-3024.0871L13057.428,-3024.2935L13057.8476,-3024.5773L13058.1467,-3025.1451L13058.3252,-3025.2741L13058.5342,-3025.2741L13058.7433,-3025.145L13058.8928,-3025.145L13059.1324,-3025.3513L13059.8801,-3026.2547L13060.0891,-3026.4353L13060.4477,-3026.6157L13060.7468,-3026.848L13060.8963,-3027.1578L13061.1053,-3027.519L13061.6135,-3027.8545L13062.1216,-3028.3964L13062.4802,-3028.7062L13062.5397,-3028.99L13062.6297,-3029.2223L13062.8098,-3029.6095L13062.8983,-3029.945L13063.0188,-3030.1514L13063.2874,-3030.4094L13063.826,-3030.6673"/>
<path content="AP030,1,28,1,0,15,1,8,JPN" xlink:title="AP030" d="M12992.1707,-2995.796L12991.8839,-2995.8492L12991.4261,-2996.1897L12991.1697,-2996.4132L12991.0217,-2996.6366L12990.979,-2996.9133L12990.979,-2997.0943L12990.979,-2997.2645L12991.0538,-2997.4241L12991.2979,-2997.6051L12991.4902,-2997.6795L12991.6061,-2997.8073L12991.6382,-2997.967L12991.5955,-2998.1691L12991.4261,-2998.4138L12991.2445,-2998.5628L12991.2231,-2998.6692L12991.2231,-2998.7757L12991.5741,-2999.1589L12991.7023,-2999.1589L12991.8304,-2999.1056L12992.0746,-2998.5096L12992.2028,-2998.2435L12992.2455,-2997.9563L12992.2775,-2997.8392L12992.4149,-2997.7966L12992.8619,-2997.6158L12993.0435,-2997.3816L12993.161,-2997.0943L12993.2877,-2996.7962L12993.4052,-2996.6473L12993.4372,-2996.5836L12993.4372,-2996.4558L12993.2022,-2996.2536L12992.9687,-2996.0194L12992.6285,-2995.8385L12992.4042,-2995.8172L12992.1707,-2995.796"/>
<path content="AP030,1,28,1,0,15,1,8,JPN" xlink:title="AP030" d="M12985.8612,-2983.7904L12986.1877,-2983.843L12986.7462,-2983.9064L12987.1048,-2983.9802L12987.3688,-2984.0538L12987.7594,-2984.2331L12988.0539,-2984.486L12988.2538,-2984.897L12988.3179,-2985.2449L12988.2538,-2985.5612L12988.1485,-2985.8246L12987.9807,-2985.9827L12987.97,-2986.1935L12987.9272,-2986.3937L12987.7594,-2986.5835L12987.3901,-2986.7628L12986.9995,-2986.8576L12986.7996,-2986.9314L12986.557,-2987.1317L12986.3571,-2987.3741L12986.1145,-2987.5216L12985.5774,-2987.7113L12985.2295,-2987.764L12985.0815,-2987.6797L12984.9548,-2987.4794L12984.8602,-2987.2686L12984.7229,-2987.1422L12984.3857,-2986.9631L12984.2804,-2986.805L12984.1751,-2986.6257L12984.0912,-2986.3094L12984.1644,-2985.8774L12984.1431,-2985.2554L12984.2377,-2985.0763L12984.5123,-2984.7706L12985.5347,-2984.0117L12985.8612,-2983.7904"/>
<path content="AP030,1,28,1,0,15,1,8,JPN" xlink:title="AP030" d="M12967.7002,-2845.1466L12967.7872,-2845.4959"/>
<path content="AP030,1,28,1,0,15,1,8,JPN" xlink:title="AP030" d="M12967.7872,-2845.4959L12967.5988,-2846.6958L12966.9782,-2847.7881L12966.7123,-2848.3752L12966.8293,-2849.0045L12965.9461,-2849.646L12966.0828,-2849.9144L12966.9782,-2851.189L12967.3996,-2850.9645L12967.868,-2850.7896L12968.6414,-2850.9159L12968.7454,-2849.6393L12969.5938,-2848.3641L12970.7336,-2846.7136L12971.2021,-2845.9885L12971.2601,-2845.3135L12971.106,-2844.4727"/>
<path content="AP030,1,28,1,0,14,1,8,JPN" xlink:title="AP030" d="M12967.7002,-2845.1466L12967.7002,-2845.0399L12967.6498,-2844.9665L12967.5598,-2844.8732L12967.4301,-2844.7666L12967.4301,-2844.7132L12967.3996,-2844.64L12967.2897,-2844.5866L12967.2394,-2844.5333L12967.2699,-2844.4799L12967.3096,-2844.3867L12967.3096,-2844.3533L12967.2699,-2844.3001L12967.2394,-2844.2266L12967.2195,-2844.1L12967.1997,-2844.0266L12966.9907,-2843.8866L12966.8304,-2843.7933L12966.7694,-2843.7401L12966.6794,-2843.7201L12966.4703,-2843.7201L12966.4001,-2843.7065L12966.2201,-2843.5932L12966.1804,-2843.5266L12966.1804,-2843.4L12966.1301,-2843.3266L12966.0797,-2843.2734L12965.9897,-2843.2533L12965.8997,-2843.2533L12965.8798,-2843.2199L12965.86,-2842.9867L12965.8096,-2842.9132L12965.7196,-2842.7999L12965.6998,-2842.7666L12965.6799,-2842.6201L12965.5807,-2842.4999L12965.5594,-2842.4067L12965.5197,-2842.3201L12965.4297,-2842.1932L12965.3107,-2842.12L12965.1993,-2842.0666L12965.0406,-2842.0465L12964.9704,-2842.0666L12964.9704,-2842.12L12964.9704,-2842.2066L12964.9307,-2842.28L12964.8102,-2842.3866L12964.7903,-2842.44L12964.7903,-2842.4801L12964.83,-2842.5533L12964.83,-2842.5865L12964.5599,-2842.6065L12964.5203,-2842.5865L12964.4897,-2842.5533L12964.4699,-2842.4801L12964.4302,-2842.44L12964.3799,-2842.4067L12964.36,-2842.3532L12964.36,-2842.2066L12964.3295,-2842.1734L12964.2395,-2842.1534L12964.1998,-2842.1333L12964.1495,-2842.12L12964.1296,-2842.0666L12964.1495,-2841.9733L12964.2197,-2841.9001L12964.2197,-2841.8467L12964.1098,-2841.7067L12963.9893,-2841.6332L12963.9694,-2841.5934L12963.9694,-2841.56L12963.9297,-2841.5066L12963.8107,-2841.4665L12963.6993,-2841.4665L12963.6307,-2841.4333L12963.5406,-2841.3265L12963.4705,-2841.2533L12963.3606,-2841.2001"/>
<path content="AP030,1,28,1,0,14,1,8,JPN" xlink:title="AP030" d="M12963.3606,-2841.2001L12963.2004,-2841.1667L12962.97,-2841.1467L12962.8296,-2841.1467L12962.6297,-2841.1667L12962.4893,-2841.18L12962.4298,-2841.1667L12962.3993,-2841.1667L12962.2894,-2841.0933L12962.1307,-2841L12962.0407,-2840.9466L12960.8994,-2840.9134L12960.7407,-2841.1066L12960.7193,-2841.1667L12960.5606,-2841.2333L12960.3607,-2841.2333L12960.2707,-2841.2533L12960.1303,-2841.3265L12960.0204,-2841.3465L12959.8602,-2841.3465L12959.7198,-2841.3265L12959.61,-2841.2733L12959.5398,-2841.1667L12959.4498,-2841.1066L12959.3307,-2841.1066L12959.1095,-2841.1667L12958.9493,-2841.2201"/>
<path content="AP030,1,28,1,0,15,1,8,JPN" xlink:title="AP030" d="M12971.106,-2844.4727L12970.9961,-2843.8629L12970.2332,-2842.5377L12969.5312,-2841.9376L12968.5364,-2841.6374L12967.8191,-2841.4683L12967.2086,-2841.2302L12966.8316,-2840.992L12966.1492,-2840.6428L12965.7901,-2840.5634L12965.1976,-2840.5634L12964.6589,-2840.6745L12963.9586,-2840.8492L12963.3606,-2841.2001"/>
<path content="AP030,1,28,1,0,15,1,8,JPN" xlink:title="AP030" d="M12958.9493,-2841.2201L12958.4671,-2842.1124L12958.7006,-2842.8625L12959.346,-2843.5127L12959.6451,-2843.717L12959.9899,-2843.8627L12959.9014,-2844.0878L12959.9899,-2844.413L12960.1074,-2844.8629L12960.4004,-2845.9133L12961.2935,-2846.7207L12961.4176,-2847.1923L12960.946,-2847.0434L12959.874,-2846.7134L12959.3185,-2846.5633L12958.3221,-2846.1882L12957.2098,-2845.5881L12956.9473,-2845.163L12956.8298,-2844.788L12956.5659,-2844.3878L12956.0684,-2844.0378L12955.5468,-2843.1708L12954.8386,-2843.9379L12954.2559,-2844.4865L12953.8091,-2844.5858L12953.1418,-2844.3628L12953.7346,-2842.7488L12953.8835,-2841.9793L12953.2381,-2841.2345L12952.543,-2841.1601L12951.9699,-2841.0122L12952.0859,-2840.712L12952.8473,-2840.5121L12953.6072,-2840.1619L12953.9291,-2839.4869L12953.8101,-2838.9133"/>
<path content="AP030,1,28,1,0,14,1,8,JPN" xlink:title="AP030" d="M12953.8101,-2838.9133L12953.6499,-2839.0533L12953.1097,-2839.4333L12952.9907,-2839.4865L12952.9495,-2839.5065L12952.9007,-2839.5065L12952.7695,-2839.5266L12952.6306,-2839.5266L12952.5406,-2839.5599L12952.3804,-2839.6133L12952.2003,-2839.6866L12951.9699,-2839.72L12951.6296,-2839.74L12951.5198,-2839.7066L12951.4297,-2839.6666L12951.3107,-2839.6532L12951.1993,-2839.6532L12951.0193,-2839.58L12950.8804,-2839.5065L12950.8606,-2839.4865L12950.7706,-2839.4133L12950.7401,-2839.3465L12950.7004,-2839.22L12950.6302,-2838.9866L12950.4501,-2838.66L12950.3799,-2838.48L12950.2396,-2838.2465L12950.1297,-2838.1201L12949.9496,-2837.9932L12949.8093,-2837.9534L12949.6506,-2837.9534L12949.6506,-2837.8666L12949.6506,-2837.5933L12949.6506,-2837.5401"/>
<path content="AP030,1,28,1,0,14,1,8,JPN" xlink:title="AP030" d="M12953.8101,-2838.9133L12953.8605,-2838.8399L12953.8803,-2838.7466L12953.9001,-2838.64L12953.9001,-2838.5L12953.9001,-2838.3533L12953.8803,-2838.1733L12953.9001,-2838.08L12953.9703,-2838.0266L12953.9902,-2837.9932L12954.1504,-2837.8666L12954.2694,-2837.7934L12954.5786,-2837.0393L12956.0432,-2836.8903L12956.5598,-2837.4866L12956.9305,-2838.0667L12956.9504,-2838.1533L12956.9702,-2838.2265L12957.0404,-2838.2465L12957.2693,-2838.2465L12957.4295,-2838.2067L12957.5806,-2838.1332L12957.7896,-2838.0667L12957.93,-2838.0667L12958.0597,-2838.08L12958.1497,-2838.1733L12958.2199,-2838.2601L12958.2901,-2838.48L12958.3801,-2838.8933L12958.3801,-2838.9265L12958.4305,-2839.1266L12958.4305,-2839.3267L12958.3801,-2839.4133L12958.3099,-2839.5065L12958.3099,-2839.5399L12958.3099,-2839.58L12958.3099,-2839.6334L12958.3298,-2839.74L12958.3801,-2839.7932L12958.49,-2839.8666L12958.5205,-2839.92L12958.5205,-2840.0801L12958.5403,-2840.1934L12958.5602,-2840.2599L12958.6304,-2840.3534L12958.6304,-2840.4266L12958.6105,-2840.6933L12958.58,-2840.8733L12958.6105,-2840.9266L12958.6807,-2840.9666L12958.7906,-2841.04L12958.8104,-2841.0732L12958.8104,-2841.1667L12958.8303,-2841.2001L12958.8593,-2841.2201L12958.9493,-2841.2201"/>
<path content="AP030,1,28,1,0,14,1,8,JPN" xlink:title="AP030" d="M12949.6506,-2837.5401L12949.7406,-2837.1065L12949.8306,-2836.9267L12949.8596,-2836.7332L12949.8795,-2836.5866L12949.8795,-2836.5534L12949.9496,-2836.4065L12949.9893,-2836.2801L12949.9695,-2836.2267L12949.9496,-2836.1532L12949.8795,-2836.12L12949.8596,-2836.08L12949.8306,-2835.9734L12949.8306,-2835.8665L12949.7894,-2835.8334L12949.6994,-2835.7933L12949.6094,-2835.7401L12949.5407,-2835.7065L12949.5193,-2835.6333L12949.4507,-2835.4866L12949.4293,-2835.4134"/>
<path content="AP030,1,28,1,0,14,1,4,JPN" xlink:title="AP030" d="M12949.4293,-2835.4134L12949.3607,-2835.22L12949.2905,-2835.0533L12949.2401,-2834.8932L12949.2004,-2834.7334L12949.1806,-2834.5533L12949.1302,-2834.3733L12949.1302,-2834.3"/>
<path content="AP030,1,28,1,0,14,1,8,JPN" xlink:title="AP030" d="M12949.1302,-2834.3L12949.1104,-2834.12L12949.1302,-2833.7601L12949.1302,-2833.6866L12949.1501,-2833.5934L12949.2004,-2833.54L12949.4003,-2833.4866"/>
<path content="AP030,1,28,1,0,15,1,8,JPN" xlink:title="AP030" d="M12949.4003,-2833.4866L12950.0732,-2833.2422L12950.6622,-2833.1314L12950.9598,-2832.9149L12951.1658,-2832.6906L12951.3031,-2832.5413L12951.5015,-2832.3969L12951.8463,-2832.292L12952.1957,-2832.1606L12952.5406,-2832.0555L12952.8885,-2831.9241L12953.0777,-2831.8596"/>
<path content="AP030,1,28,1,0,14,1,4,JPN" xlink:title="AP030" d="M12948.9304,-2832.0801L12948.8998,-2832.0665L12948.88,-2832.0133L12948.8998,-2831.8666L12948.8998,-2831.7734L12948.88,-2831.6866L12948.8602,-2831.6334L12948.8297,-2831.58L12948.8297,-2831.5266L12948.79,-2831.5065L12948.7198,-2831.5266L12948.6801,-2831.6334L12948.6496,-2831.6866L12948.5794,-2831.7066L12948.5397,-2831.6866L12948.4894,-2831.6666L12948.4695,-2831.5933L12948.4299,-2831.5266L12948.3597,-2831.4865L12948.2697,-2831.4667L12948.2407,-2831.4667L12948.1995,-2831.4333L12948.1506,-2831.4133L12948.1094,-2831.4133L12948.0392,-2831.4333L12947.9904,-2831.4133L12947.9706,-2831.3999L12947.9294,-2831.3601L12947.8806,-2831.2532L12947.8607,-2831.18L12947.8104,-2831.1466L12947.7005,-2831.1666L12947.6807,-2831.1266L12947.6501,-2831.0534L12947.6105,-2830.8599L12947.6105,-2830.6067L12947.58,-2830.5532L12947.5204,-2830.5134L12947.4899,-2830.5L12947.4701,-2830.4399L12947.4503,-2830.3865L12947.3999,-2830.3333L12947.3099,-2830.2601L12947.2397,-2830.2465L12947.1497,-2830.2265L12947.11,-2830.2067L12947.0795,-2830.1733"/>
<path content="AP030,1,28,1,0,15,1,8,JPN" xlink:title="AP030" d="M12995.7748,-2828.339L12996.1823,-2828.5036L12997.4136,-2829.1645L12997.8699,-2829.8553L12998.645,-2831.357L12999.3835,-2832.378L13000,-2833.5964L13000.0076,-2833.6256L13000.8713,-2834.293L13001.8005,-2834.8339L13002.4429,-2836.1624L13002.4078,-2836.7331L13002.0218,-2837.0634L13001.564,-2837.0033L13000.8972,-2836.7931L13000.1236,-2835.8019L13000,-2835.5251L12999.736,-2834.931L12998.9624,-2834.3904L12998.5046,-2834.3304L12997.8378,-2834.3603L12997.4152,-2834.03L12996.1502,-2833.0088L12993.7332,-2831.5649"/>
<path content="AP030,1,28,1,0,15,1,8,JPN" xlink:title="AP030" d="M12993.7332,-2831.5649L12992.3874,-2830.9666L12992.1417,-2830.2458L12992.3172,-2829.7953L12993.2312,-2829.2545L12994.0384,-2828.4737L12994.249,-2828.0231L12994.9173,-2827.9932L12995.7748,-2828.339"/>
<path content="AP030,1,28,1,0,14,1,4,JPN" xlink:title="AP030" d="M12943.9499,-2828.5666L12943.9499,-2828.5133L12943.8797,-2828.4599L12943.8095,-2828.4266L12943.6493,-2828.4266L12943.5394,-2828.4599L12943.4296,-2828.48L12943.3105,-2828.48L12943.2007,-2828.4599L12943.0603,-2828.4065L12942.9001,-2828.3333L12942.7002,-2828.2467L12942.4301,-2828.08L12941.7404,-2827.6667L12941.6107,-2827.5932"/>
<path content="AP030,1,28,1,0,15,1,8,JPN" xlink:title="AP030" d="M12949.6506,-2837.5401L12948.5184,-2838.937L12948.2269,-2839.187L12947.8745,-2839.1621L12947.583,-2839.012L12947.1436,-2838.7369L12946.8506,-2838.8119L12946.6171,-2839.212L12946.4996,-2839.8872L12946.3837,-2840.2622L12946.1197,-2840.3124L12945.8267,-2840.1873L12945.5048,-2839.7121L12945.3583,-2838.612L12945.3873,-2837.8366L12945.2698,-2837.4866L12944.9478,-2837.4866L12944.3924,-2837.6368L12943.66,-2837.7117L12942.1097,-2837.6617L12941.4368,-2837.4117L12941.2018,-2837.1367L12941.5237,-2836.3865L12941.7572,-2835.9114L12941.6397,-2835.6112L12940.8783,-2835.2612L12938.8763,-2835.1391L12938.0692,-2834.9861L12937.5,-2834.9083"/>
<path content="AP030,1,28,1,0,14,1,8,JPN" xlink:title="AP030" d="M12941.6107,-2827.5932L12941.5405,-2827.54L12941.3803,-2827.4866L12941.1301,-2827.3266L12940.9897,-2827.1666L12940.8295,-2827.0201L12940.7394,-2826.7866L12940.6296,-2826.5665L12940.6097,-2826.4999L12940.6097,-2826.3201L12940.6097,-2826.26L12940.5807,-2826.1732L12940.5807,-2826.0799L12940.6097,-2825.9933L12940.6494,-2825.9199L12940.6799,-2825.8467L12940.6998,-2825.6533L12940.6799,-2825.58L12940.6097,-2825.5266L12940.5197,-2825.4866L12940.3595,-2825.4665L12940.2893,-2825.4665L12940.1505,-2825.4665L12940.0803,-2825.4333L12940.0192,-2825.3799L12939.9506,-2825.3599L12939.8102,-2825.4L12939.6301,-2825.4133L12939.4897,-2825.3799L12939.3799,-2825.3065L12939.3097,-2825.2867L12939.2395,-2825.3065L12939.18,-2825.3599L12939.0793,-2825.3799L12938.8992,-2825.4L12938.7894,-2825.3799L12938.6093,-2825.4L12938.5193,-2825.3799L12938.4293,-2825.3265L12938.3301,-2825.3065L12938.2401,-2825.3065L12938.15,-2825.2867L12938.06,-2825.2533L12937.9303,-2825.1266L12937.7701,-2824.9666L12937.6297,-2824.8934L12937.5397,-2824.7999L12937.5,-2824.747"/>
<path content="AP030,1,28,1,0,14,1,8,JPN" xlink:title="AP030" d="M12947.0795,-2830.1733L12947.11,-2829.9534L12947.0795,-2829.8666L12946.9894,-2829.6865L12946.9498,-2829.6133L12946.9299,-2829.5799L12946.8796,-2829.5799L12946.8094,-2829.6534L12946.7896,-2829.7199L12946.8094,-2829.8134L12946.8094,-2829.8666L12946.7896,-2829.8866L12946.6797,-2829.8866L12946.5805,-2829.8666L12946.5195,-2829.8466L12946.3593,-2829.7066L12946.2906,-2829.6534L12946.2204,-2829.6534L12946.1807,-2829.6865L12946.1807,-2829.7934L12946.1502,-2829.8134L12946.1105,-2829.8332L12946.0205,-2829.7934L12945.8801,-2829.6665L12945.7001,-2829.5799L12945.5399,-2829.5401L12945.4498,-2829.5265L12945.3293,-2829.5401L12945.2194,-2829.5265L12945.1096,-2829.4867L12944.9905,-2829.4867L12944.8105,-2829.5067L12944.7403,-2829.4666L12944.7006,-2829.4132L12944.6503,-2829.3266L12944.6304,-2829.2866L12944.6106,-2829.2534L12944.2703,-2828.9467L12944.22,-2828.8733L12944.1803,-2828.8401L12944.0598,-2828.7867L12944.0201,-2828.7466L12943.9499,-2828.5666"/>
<path content="AP030,1,28,1,0,14,1,8,JPN" xlink:title="AP030" d="M12949.4003,-2833.4866L12949.4705,-2833.4534L12949.4904,-2833.4133L12949.5193,-2833.1665L12949.5407,-2833.1066L12949.5193,-2833.0732L12949.4705,-2833.0532L12949.3607,-2833.0532L12949.2905,-2833.0532L12949.2706,-2833.02L12949.2706,-2832.9666L12949.3301,-2832.9132L12949.3607,-2832.84L12949.3607,-2832.7999L12949.3103,-2832.7866L12949.2706,-2832.7866L12949.2401,-2832.7465L12949.2706,-2832.6933L12949.3103,-2832.6401L12949.3301,-2832.5533L12949.3103,-2832.48L12949.2706,-2832.44L12949.2004,-2832.4266L12949.1501,-2832.3866L12949.1501,-2832.3532L12949.1501,-2832.2266L12949.1302,-2832.1733L12949.0601,-2832.1199L12948.9899,-2832.0999L12948.9304,-2832.0801"/>
<path content="AP030,1,28,1,0,14,1,8,JPN" xlink:title="AP030" d="M13085.4747,-3045.724L13085.7529,-3045.0858L13086.3754,-3044.7365L13086.7264,-3044.5765L13087.1063,-3044.4698L13087.4252,-3044.2499L13087.5656,-3044.1965L13087.7655,-3044.0165L13087.9059,-3043.9632L13088.0356,-3043.9632L13088.2263,-3043.9098L13088.4064,-3043.7099L13088.5361,-3043.3899L13088.5162,-3043.2964L13088.4262,-3043.17L13088.3362,-3042.9766L13088.3759,-3042.6699L13088.5162,-3042.4299L13088.6963,-3042.3632L13088.9252,-3042.3632L13089.1052,-3042.3632L13089.1953,-3042.3632L13089.4257,-3042.0898L13089.4958,-3041.91L13089.6759,-3041.8232L13089.9765,-3041.8566L13090.0787,-3041.8997"/>
<path content="AP030,1,28,1,0,14,1,8,JPN" xlink:title="AP030" d="M13094.9157,-3051.7003L13094.9295,-3051.7199"/>
<path content="AP030,1,28,1,0,15,1,8,JPN" xlink:title="AP030" d="M13094.9157,-3051.7003L13094.9757,-3051.2337L13094.9757,-3051.0063L13095.1741,-3050.3242L13095.1741,-3049.642L13094.846,-3049.0732L13094.7804,-3048.7888L13094.9788,-3048.3912L13094.9788,-3047.9931L13094.7819,-3047.7087L13094.7163,-3047.1401L13094.8475,-3046.8559L13095.0459,-3046.4581L13094.7834,-3046.0032L13094.6522,-3045.5482L13094.7178,-3045.3209L13094.9803,-3045.0367L13094.7834,-3044.6386L13095.341,-3044.3986L13095.3114,-3043.9566L13095.3114,-3043.7292L13095.0489,-3043.3311L13094.785,-3042.9331L13094.6537,-3042.535L13094.2601,-3042.1936L13093.404,-3041.4541L13092.8791,-3040.658L13092.8791,-3040.2131"/>
<path content="AP030,1,28,1,0,15,1,8,JPN" xlink:title="AP030" d="M13092.8791,-3040.2131L13092.8955,-3040.2033"/>
<path content="AP030,1,28,1,0,15,1,8,JPN" xlink:title="AP030" d="M13090.1034,-3041.8849L13092.8791,-3040.2131"/>
</g>
</svg>
