<?xml version="1.0" encoding="UTF-8"?>
<svg  xmlns="http://www.w3.org/2000/svg" xmlns:xlink="http://www.w3.org/1999/xlink" xmlns:go="http://purl.org/svgmap/profile" property="f_code,acc,exs,rst,med,rtt,RSU,loc,soc" viewBox="12937.5 -2812.5 562.5 562.5" go:dataArea="12937.5 -2812.5 562.5 562.5" >
<metadata>
 <rdf:RDF xmlns:rdf="http://www.w3.org/1999/02/22-rdf-syntax-ns#" xmlns:crs="http://opengis.org/xmldtds/transformations.dtd" xmlns:svg="http://www.w3.org/svg" >
  <rdf:Description>
   <crs:CoordinateReferenceSystem rdf:resource="http://purl.org/crs/84" svg:transform="matrix(100.0,0.0,0.0,-100.0,0.0,0.0)" />
  </rdf:Description>
 </rdf:RDF>
</metadata>
<globalCoordinateSystem srsName="http://purl.org/crs/84" transform="matrix(100.0,0.0,0.0,-100.0,0.0,0.0)" />
<defs>
 <g id="p0" >
  <circle cx="0.0" cy="0.0" r="3" stroke="green" stroke-width="2.0" vector-effect="non-scaling-stroke" />
 </g>
</defs>
<g fill="none" fill-rule="evenodd" stroke="#00ff00" stroke-width="2" opacity="0.5" vector-effect="non-scaling-stroke" stroke-linejoin="bevel" >
<path content="AP030,1,28,1,0,15,1,8,JPN" xlink:title="AP030" d="M13128.3417,-2595.7741L13128.4866,-2595.7518L13129.1275,-2595.731L13129.8447,-2595.635L13130.0613,-2595.6015L13130.4153,-2595.6095L13130.7541,-2595.6001L13131.0989,-2595.4952L13131.5018,-2595.3617L13131.7566,-2595.2827L13131.839,-2595.1439L13131.8604,-2594.8885L13131.723,-2594.6064L13131.575,-2594.2434L13131.4011,-2593.9909L13131.2851,-2593.8868"/>
<path content="AP030,1,28,1,0,15,1,8,JPN" xlink:title="AP030" d="M13128.3417,-2595.7741L13128.4119,-2595.3615L13128.5995,-2595.2457L13128.8223,-2595.1324L13129.0924,-2595.0706L13129.4312,-2595.0613L13129.6326,-2594.9787L13129.8752,-2594.8347L13130.0461,-2594.7018L13130.1971,-2594.5995L13130.3131,-2594.4792L13130.542,-2594.302L13130.7297,-2594.1702L13130.9174,-2594.0544L13131.2851,-2593.8868"/>
<path content="AP030,1,28,1,0,15,1,8,JPN" xlink:title="AP030" d="M13128.3417,-2595.7741L13128.0594,-2595.7548L13127.9068,-2595.6802L13127.9022,-2595.5194L13128.0334,-2595.2234L13128.1006,-2595.0516L13128.4195,-2594.6238L13128.7003,-2594.2415L13128.9764,-2593.9072L13129.1412,-2593.6295L13129.3533,-2593.4351L13129.628,-2593.3254L13129.8975,-2593.2882L13130.1132,-2593.2619L13130.4977,-2593.3201L13130.7053,-2593.3981L13130.8701,-2593.5377L13131.2851,-2593.8868"/>
<path content="AP030,1,28,1,0,15,1,8,JPN" xlink:title="AP030" d="M13123.4024,-2587.1849L13123.3322,-2586.9196L13123.2834,-2586.6005L13123.1705,-2586.3319"/>
<path content="AP030,1,28,1,0,15,1,8,JPN" xlink:title="AP030" d="M13123.1705,-2586.3319L13122.9828,-2586.1958L13122.551,-2586.1115L13122.4457,-2585.9121L13122.1527,-2585.4118L13122.0566,-2584.9386L13121.9009,-2584.4477"/>
<path content="AP030,1,28,1,0,15,1,8,JPN" xlink:title="AP030" d="M13121.3867,-2584.6186L13121.6949,-2584.5436L13121.9009,-2584.4477"/>
<path content="AP030,1,28,1,0,15,1,8,JPN" xlink:title="AP030" d="M13124.6262,-2583.7681L13124.9283,-2583.7887L13125.1541,-2583.8175L13125.4242,-2583.8497L13125.6332,-2583.8913L13125.7629,-2583.9687L13125.9384,-2584.0492L13126.004,-2584.1772"/>
<path content="AP030,1,28,1,0,15,1,8,JPN" xlink:title="AP030" d="M13123.1705,-2586.3319L13123.2849,-2586.2301L13123.4863,-2586.1752L13123.9014,-2586.1208L13124.2874,-2586.0237L13124.5056,-2585.956L13124.5224,-2585.7513L13124.6429,-2585.581L13124.7421,-2585.478L13124.9115,-2585.2699L13124.9985,-2584.7679L13124.9954,-2584.4383L13124.8856,-2584.1288L13124.6262,-2583.7681"/>
<path content="AP030,1,28,1,0,15,1,8,JPN" xlink:title="AP030" d="M13122.7432,-2583.0639L13122.9691,-2583.4497L13123.0804,-2583.5808L13123.1796,-2583.6563L13123.4207,-2583.6863L13123.7808,-2583.7244L13123.9899,-2583.7662L13124.2615,-2583.7845L13124.6262,-2583.7681"/>
<path content="AP030,1,28,1,0,15,1,8,JPN" xlink:title="AP030" d="M13121.9009,-2584.4477L13122.0139,-2584.3594L13122.226,-2584.0033L13122.3953,-2583.7952L13122.5266,-2583.6668L13122.6089,-2583.4116L13122.7432,-2583.0639"/>
<path content="AP030,1,28,1,0,15,1,8,JPN" xlink:title="AP030" d="M13122.7432,-2583.0639L13122.9156,-2582.4579L13122.9294,-2582.102L13122.9294,-2581.9237"/>
</g>
</svg>
