<?xml version="1.0" encoding="UTF-8"?>
<svg  xmlns="http://www.w3.org/2000/svg" xmlns:xlink="http://www.w3.org/1999/xlink" xmlns:go="http://purl.org/svgmap/profile" property="f_code,acc,exs,rst,med,rtt,RSU,loc,soc" viewBox="13289.0625 -3445.3125 70.3125 70.3125" go:dataArea="13289.0625 -3445.3125 70.3125 70.3125" >
<metadata>
 <rdf:RDF xmlns:rdf="http://www.w3.org/1999/02/22-rdf-syntax-ns#" xmlns:crs="http://opengis.org/xmldtds/transformations.dtd" xmlns:svg="http://www.w3.org/svg" >
  <rdf:Description>
   <crs:CoordinateReferenceSystem rdf:resource="http://purl.org/crs/84" svg:transform="matrix(100.0,0.0,0.0,-100.0,0.0,0.0)" />
  </rdf:Description>
 </rdf:RDF>
</metadata>
<globalCoordinateSystem srsName="http://purl.org/crs/84" transform="matrix(100.0,0.0,0.0,-100.0,0.0,0.0)" />
<defs>
 <g id="p0" >
  <circle cx="0.0" cy="0.0" r="3" stroke="green" stroke-width="2.0" vector-effect="non-scaling-stroke" />
 </g>
</defs>
<g fill="none" fill-rule="evenodd" stroke="#00ff00" stroke-width="2" opacity="0.5" vector-effect="non-scaling-stroke" stroke-linejoin="bevel" >
<path content="AP030,1,28,1,0,15,1,8,JPN" xlink:title="AP030" d="M13335.6433,-3445.3125L13335.6827,-3445.2991L13335.7653,-3445.3125"/>
<path content="AP030,1,28,1,0,15,1,8,JPN" xlink:title="AP030" d="M13336.5021,-3445.1099L13336.267,-3445.3125"/>
<path content="AP030,1,28,1,0,15,1,8,JPN" xlink:title="AP030" d="M13323.9304,-3445.1065L13324.1823,-3445.3125"/>
<path content="AP030,1,28,1,0,14,1,8,JPN" xlink:title="AP030" d="M13325.2899,-3445.0932L13325.4898,-3445.1668L13325.7692,-3445.3125"/>
<path content="AP030,1,28,1,0,15,1,8,JPN" xlink:title="AP030" d="M13325.3094,-3445.3125L13325.2899,-3445.0932"/>
<path content="AP030,1,28,1,0,15,1,8,JPN" xlink:title="AP030" d="M13319.3802,-3445.0733L13319.8108,-3445.3125M13320.3407,-3445.3125L13320.8115,-3445.2888L13321.0908,-3445.3125M13323.2451,-3445.3125L13323.9304,-3445.1065"/>
<path content="AP030,1,28,1,0,14,1,8,JPN" xlink:title="AP030" d="M13317.5266,-3445.3125L13317.7399,-3445.2732L13317.8431,-3445.3125"/>
<path content="AP030,1,28,1,0,16,1,8,JPN" xlink:title="AP030" d="M13297.4899,-3445.0199L13297.6105,-3445.1065L13297.8334,-3445.3125"/>
<path content="AP030,1,28,1,0,15,1,8,JPN" xlink:title="AP030" d="M13297.7119,-3445.3125L13297.5487,-3445.166L13297.4899,-3445.0199"/>
<path content="AP030,1,28,1,0,14,1,8,JPN" xlink:title="AP030" d="M13324.7696,-3444.9135L13324.9893,-3444.9467L13325.2899,-3445.0932"/>
<path content="AP030,1,28,1,0,15,1,8,JPN" xlink:title="AP030" d="M13324.2962,-3445.3125L13324.7696,-3444.9135"/>
<path content="AP030,1,28,1,0,15,1,8,JPN" xlink:title="AP030" d="M13300.4218,-3444.1567L13301.088,-3444.762L13301.9734,-3445.3125"/>
<path content="AP030,1,28,1,0,15,1,8,JPN" xlink:title="AP030" d="M13300.4218,-3444.1567L13300.2642,-3445.3125"/>
<path content="AP030,1,28,1,0,16,1,8,JPN" xlink:title="AP030" d="M13296.1288,-3444.0269L13296.3806,-3444.4267L13296.6095,-3444.64L13296.7194,-3444.7334L13297.4899,-3445.0199"/>
<path content="AP030,1,28,1,0,15,1,8,JPN" xlink:title="AP030" d="M13294.3414,-3445.3125L13294.4763,-3445.2538L13294.5724,-3445.2122L13294.7037,-3444.677L13295.0806,-3444.3451L13295.163,-3444.2722L13295.433,-3444.2036L13296.1288,-3444.0269"/>
<path content="AP030,1,28,1,0,15,1,8,JPN" xlink:title="AP030" d="M13289.5218,-3443.5375L13290.2695,-3443.8839L13290.7684,-3444.0102"/>
<path content="AP030,1,28,1,0,15,1,8,JPN" xlink:title="AP030" d="M13289.0625,-3444.6077L13289.3478,-3444.3348L13289.5218,-3443.5375"/>
<path content="AP030,1,28,1,0,14,1,8,JPN" xlink:title="AP030" d="M13323.9304,-3445.1065L13323.4894,-3444.9265L13323.0606,-3444.7334L13322.9904,-3444.68L13322.8302,-3444.5667L13322.7203,-3444.5L13322.6807,-3444.3867L13322.5601,-3444.0666L13322.4701,-3443.7733L13322.4304,-3443.6134L13322.29,-3443.4868L13321.8796,-3443.2533L13321.8597,-3443.2201"/>
<path content="AP030,1,28,1,0,15,1,8,JPN" xlink:title="AP030" d="M13289.0625,-3443.3456L13289.5218,-3443.5375"/>
<path content="AP030,1,28,1,0,14,1,8,JPN" xlink:title="AP030" d="M13321.6522,-3443.103L13321.8597,-3443.2201"/>
<path content="AP030,1,28,1,0,16,1,8,JPN" xlink:title="AP030" d="M13321.6522,-3443.103L13321.5607,-3443.3067L13321.5805,-3443.3998L13321.7407,-3443.3998L13321.8597,-3443.2201"/>
<path content="AP030,1,28,1,0,15,1,8,JPN" xlink:title="AP030" d="M13296.1288,-3444.0269L13296.2952,-3443.5024L13296.5973,-3443.0641"/>
<path content="AP030,1,28,1,0,14,1,8,JPN" xlink:title="AP030" d="M13324.7696,-3444.9135L13324.5804,-3444.8399L13324.4507,-3444.7666L13324.1104,-3444.5667L13323.2697,-3444.12L13323.1293,-3444.0468L13323.0804,-3443.7935L13322.9706,-3443.4666L13322.8104,-3442.9867"/>
<path content="AP030,1,28,1,0,14,1,8,JPN" xlink:title="AP030" d="M13321.8597,-3443.2201L13321.8796,-3443.1667L13322.3999,-3443.0401L13322.5601,-3442.9867L13322.8104,-3442.9867"/>
<path content="AP030,1,28,1,0,16,1,8,JPN" xlink:title="AP030" d="M13296.1288,-3444.0269L13295.9702,-3443.7733L13295.5399,-3443.1267L13295.4498,-3443.0401L13295.1996,-3442.7666"/>
<path content="AP030,1,28,1,0,15,1,8,JPN" xlink:title="AP030" d="M13290.9924,-3445.3125L13291.2033,-3445.2263L13292.6544,-3445.0001L13293.6234,-3444.6606L13294.1071,-3444.2642L13294.5908,-3443.4151L13295.1996,-3442.7666"/>
<path content="AP030,1,28,1,0,16,1,4,JPN" xlink:title="AP030" d="M13289.0625,-3442.7038L13289.27,-3442.6933L13289.5203,-3442.6933"/>
<path content="AP030,1,28,1,0,16,1,8,JPN" xlink:title="AP030" d="M13289.5203,-3442.6933L13289.8102,-3442.6933"/>
<path content="AP030,1,28,1,0,15,1,8,JPN" xlink:title="AP030" d="M13290.7684,-3444.0102L13290.8569,-3443.1953L13290.6296,-3442.5667"/>
<path content="AP030,1,28,1,0,15,1,8,JPN" xlink:title="AP030" d="M13289.5218,-3443.5375L13290.6296,-3442.5667"/>
<path content="AP030,1,28,1,0,16,1,4,JPN" xlink:title="AP030" d="M13289.8102,-3442.6933L13290.6296,-3442.5667"/>
<path content="AP030,1,28,1,0,15,1,8,JPN" xlink:title="AP030" d="M13296.5973,-3443.0641L13297.8531,-3442.5266"/>
<path content="AP030,1,28,1,0,16,1,8,JPN" xlink:title="AP030" d="M13294.9005,-3442.5133L13295.1996,-3442.7666"/>
<path content="AP030,1,28,1,0,15,1,8,JPN" xlink:title="AP030" d="M13295.1996,-3442.7666L13295.697,-3442.5095"/>
<path content="AP030,1,28,1,0,15,1,8,JPN" xlink:title="AP030" d="M13296.1807,-3442.5095L13296.5973,-3443.0641"/>
<path content="AP030,1,28,1,0,15,1,8,JPN" xlink:title="AP030" d="M13295.697,-3442.5095L13296.1807,-3442.5095"/>
<path content="AP030,1,28,1,0,15,1,8,JPN" xlink:title="AP030" d="M13290.7684,-3444.0102L13291.5726,-3444.2135L13291.7862,-3444.3626L13292.421,-3444.1891L13292.8421,-3443.8667L13293.8095,-3442.4267"/>
<path content="AP030,1,28,1,0,16,1,4,JPN" xlink:title="AP030" d="M13293.8095,-3442.4267L13294.31,-3442.4065L13294.6106,-3442.4065L13294.7906,-3442.4599L13294.9005,-3442.5133"/>
<path content="AP030,1,28,1,0,16,1,4,JPN" xlink:title="AP030" d="M13290.6296,-3442.5667L13290.95,-3442.4999L13291.2201,-3442.3733"/>
<path content="AP030,1,28,1,0,15,1,8,JPN" xlink:title="AP030" d="M13297.4899,-3445.0199L13297.6547,-3443.9156L13298.317,-3442.7731L13298.262,-3442.3382L13297.9706,-3442.4725L13297.8531,-3442.5266"/>
<path content="AP030,1,28,1,0,14,1,8,JPN" xlink:title="AP030" d="M13319.3802,-3445.0733L13319.5602,-3444.68L13319.5602,-3444.5667L13319.4702,-3444.4801L13319.2703,-3444.26L13319.2001,-3444.1933L13319.1498,-3444.0132L13319.0201,-3443.8133L13319.0598,-3443.3468L13319.0201,-3443.1465L13318.9667,-3442.9771L13318.9301,-3442.86L13318.8599,-3442.68L13318.6798,-3442.3L13318.6584,-3442.2466"/>
<path content="AP030,1,28,1,0,16,1,8,JPN" xlink:title="AP030" d="M13292.5797,-3442.1734L13293.1503,-3442.26L13293.3594,-3442.3332L13293.4692,-3442.3733L13293.8095,-3442.4267"/>
<path content="AP030,1,28,1,0,14,1,8,JPN" xlink:title="AP030" d="M13318.6584,-3442.2466L13319.5206,-3442.2466L13319.6106,-3442.2466L13319.8303,-3442.3L13320.3796,-3442.1532L13320.52,-3442.1532L13320.7001,-3442.1734L13321.1105,-3442.5667L13321.2006,-3442.68L13321.3104,-3442.7334L13321.4493,-3442.9867L13321.5393,-3443.0401L13321.6522,-3443.103"/>
<path content="AP030,1,28,1,0,16,1,8,JPN" xlink:title="AP030" d="M13291.2201,-3442.3733L13291.4902,-3442.26L13291.7892,-3442.1532L13291.9907,-3442.1001L13292.1799,-3442.1001L13292.2897,-3442.12L13292.5797,-3442.1734"/>
<path content="AP030,1,28,1,0,15,1,8,JPN" xlink:title="AP030" d="M13293.8095,-3442.4267L13294.4565,-3441.9785L13295.0714,-3442.0193L13295.697,-3442.5095"/>
<path content="AP030,1,28,1,0,15,1,8,JPN" xlink:title="AP030" d="M13306.971,-3445.3125L13307.2662,-3444.5877L13307.6813,-3443.7386L13307.8888,-3442.168L13307.769,-3441.5047"/>
<path content="AP030,1,28,1,0,15,1,8,JPN" xlink:title="AP030" d="M13297.8531,-3442.5266L13297.8195,-3441.8507L13297.8256,-3441.7881L13297.8607,-3441.4219"/>
<path content="AP030,1,28,1,0,15,1,8,JPN" xlink:title="AP030" d="M13296.1807,-3442.5095L13296.666,-3442.3397L13297.0718,-3441.7694L13297.1497,-3441.6607L13297.2183,-3441.3776"/>
<path content="AP030,1,28,1,0,15,1,8,JPN" xlink:title="AP030" d="M13309.7412,-3441.2434L13313.1577,-3443.4151L13313.6749,-3443.2732L13314.238,-3443.7481L13315.7715,-3444.8769L13316.6695,-3445.3125"/>
<path content="AP030,1,28,1,0,14,1,8,JPN" xlink:title="AP030" d="M13307.769,-3441.5047L13307.84,-3441.523L13308.26,-3441.528L13308.69,-3441.492L13309.2,-3441.386L13309.61,-3441.28L13309.7412,-3441.2434"/>
<path content="AP030,1,28,1,0,16,1,8,JPN" xlink:title="AP030" d="M13321.6522,-3443.103L13321.6797,-3443.0401L13321.7407,-3442.9134L13321.7697,-3442.6601L13321.7896,-3442.4267L13321.7407,-3442.0666L13321.7697,-3441.9731L13322.02,-3441.74L13321.9894,-3441.5798L13321.8796,-3441.56L13321.8796,-3441.5264L13321.9696,-3441.3265L13321.8384,-3441.1568L13321.8307,-3441.1465L13321.7377,-3441.0278"/>
<path content="AP030,1,28,1,0,15,1,8,JPN" xlink:title="AP030" d="M13297.4945,-3440.9817L13297.8607,-3441.4219"/>
<path content="AP030,1,28,1,0,15,1,8,JPN" xlink:title="AP030" d="M13297.2183,-3441.3776L13297.4945,-3440.9817"/>
<path content="AP030,1,28,1,0,14,1,8,JPN" xlink:title="AP030" d="M13321.7377,-3441.0278L13321.8307,-3440.9866L13321.9498,-3440.9664L13322.2214,-3440.9836L13322.5601,-3441.04L13322.7707,-3441.1266L13322.9507,-3441.2201L13323.0804,-3441.3265L13323.1094,-3441.5066L13323.0606,-3441.7065L13322.9904,-3441.7599L13322.9004,-3441.7866L13322.8104,-3441.8133L13322.6501,-3442.2466L13322.6501,-3442.4801L13322.8104,-3442.9867"/>
<path content="AP030,1,28,1,0,15,1,8,JPN" xlink:title="AP030" d="M13292.5797,-3442.1734L13293.9941,-3441.4219L13294.3329,-3441.2422L13296.109,-3441.0366L13296.8979,-3440.9538L13297.2183,-3441.3776"/>
<path content="AP030,1,28,1,0,15,1,8,JPN" xlink:title="AP030" d="M13334.1891,-3445.3125L13333.7433,-3444.7231L13332.8888,-3442.9153L13331.9321,-3442.215L13330.6335,-3440.8951"/>
<path content="AP030,1,28,1,0,15,1,8,JPN" xlink:title="AP030" d="M13325.2899,-3445.0932L13325.94,-3444.731L13326.16,-3444.559L13326.33,-3444.332L13326.53,-3444.1L13326.75,-3443.978L13327.16,-3443.939L13327.45,-3443.911L13327.64,-3443.806L13327.8,-3443.502L13327.87,-3443.198L13327.91,-3442.849L13327.97,-3442.595L13328.07,-3442.318L13328.19,-3442.191L13328.44,-3442.046L13328.68,-3441.975L13329.15,-3441.886L13329.47,-3441.814L13329.68,-3441.692L13329.95,-3441.377L13330.6335,-3440.8951"/>
<path content="AP030,1,28,1,0,15,1,8,JPN" xlink:title="AP030" d="M13297.8607,-3441.4219L13298.5596,-3440.6067"/>
<path content="AP030,1,28,1,0,15,1,8,JPN" xlink:title="AP030" d="M13299.0204,-3440.5132L13299.0051,-3440.9355L13299.0021,-3441.0656L13298.8586,-3441.5417L13298.8449,-3441.6824L13298.7869,-3442.2916L13298.9395,-3442.7334L13300.1602,-3443.919L13300.4218,-3444.1567"/>
<path content="AP030,1,28,1,0,15,1,8,JPN" xlink:title="AP030" d="M13298.5596,-3440.6067L13299.0204,-3440.5132"/>
<path content="AP030,1,28,1,0,15,1,8,JPN" xlink:title="AP030" d="M13297.4945,-3440.9817L13296.9894,-3440.4266"/>
<path content="AP030,1,28,1,0,14,1,8,JPN" xlink:title="AP030" d="M13297.6105,-3440.4266L13297.8302,-3440.5334L13298.0804,-3440.6067L13298.5596,-3440.6067"/>
<path content="AP030,1,28,1,0,15,1,8,JPN" xlink:title="AP030" d="M13297.4945,-3440.9817L13297.6105,-3440.4266"/>
<path content="AP030,1,28,1,0,14,1,8,JPN" xlink:title="AP030" d="M13296.9894,-3440.4266L13297.11,-3440.4064L13297.3999,-3440.3732L13297.6105,-3440.4266"/>
<path content="AP030,1,28,1,0,14,1,8,JPN" xlink:title="AP030" d="M13318.7393,-3440.2267L13319.2398,-3440.3534L13319.3298,-3440.4064L13319.4901,-3440.5334L13319.6106,-3440.5865L13319.7906,-3440.6399L13319.9905,-3440.7665L13320.1492,-3440.9664L13320.1996,-3440.9866L13320.3598,-3441.0934L13320.5597,-3441.1465L13320.6497,-3441.1465L13320.7199,-3441.1465L13320.9702,-3441.0934L13321.3593,-3441.1465L13321.4706,-3441.1465L13321.7377,-3441.0278"/>
<path content="AP030,1,28,1,0,14,1,8,JPN" xlink:title="AP030" d="M13318.6584,-3442.2466L13318.5806,-3442.0467L13318.6798,-3441.5264L13318.7195,-3441.2731L13318.6996,-3440.48L13318.7195,-3440.3584L13318.7393,-3440.2267"/>
<path content="AP030,1,28,1,0,16,1,8,JPN" xlink:title="AP030" d="M13321.7377,-3441.0278L13321.4905,-3440.7131L13321.2692,-3440.6399L13321.2006,-3440.5334L13321.2006,-3440.3198L13321.1502,-3440.2466L13320.8282,-3439.8632"/>
<path content="AP030,1,28,1,0,15,1,8,JPN" xlink:title="AP030" d="M13307.769,-3441.5047L13307.5287,-3440.1733L13307.4997,-3440.0166L13307.4493,-3439.74"/>
<path content="AP030,1,28,1,0,15,1,8,JPN" xlink:title="AP030" d="M13309.079,-3439.6866L13309.1202,-3440.0185L13309.137,-3440.1566L13309.1934,-3440.6162L13309.7412,-3441.2434"/>
<path content="AP030,1,28,1,0,14,1,8,JPN" xlink:title="AP030" d="M13307.4493,-3439.74L13307.5806,-3439.8666L13307.6294,-3439.8666L13307.6996,-3439.8666L13307.9895,-3439.8335L13308.0399,-3439.8335L13308.3298,-3439.7598L13308.4503,-3439.7064L13308.7906,-3439.6534L13309.0195,-3439.6866L13309.079,-3439.6866"/>
<path content="AP030,1,28,1,0,15,1,8,JPN" xlink:title="AP030" d="M13290.6296,-3442.5667L13290.8173,-3441.9254L13291.2262,-3441.0934L13291.304,-3440.9332L13291.6595,-3440.9569L13291.4398,-3440.538L13291.6092,-3439.5931"/>
<path content="AP030,1,28,1,0,14,1,8,JPN" xlink:title="AP030" d="M13315.6998,-3439.5065L13315.8798,-3439.5599L13316.5604,-3439.7934L13316.9296,-3439.8132L13317.9504,-3440.1001L13318.2404,-3440.1199L13318.4296,-3440.1531L13318.7393,-3440.2267"/>
<path content="AP030,1,28,1,0,14,1,8,JPN" xlink:title="AP030" d="M13318.6584,-3442.2466L13318.5394,-3442.2466L13317.8604,-3441.9731L13317.7002,-3441.8133L13317.3996,-3441.2731L13317.1494,-3441.0934L13317.1097,-3440.9866L13316.8594,-3440.6067L13316.7007,-3440.4598L13316.6306,-3440.4064L13316.3605,-3440.2802L13316.2704,-3440.2267L13316.1102,-3440.1531L13315.86,-3439.8666L13315.6998,-3439.74L13315.6998,-3439.6225L13315.6998,-3439.5065"/>
<path content="AP030,1,28,1,0,14,1,8,JPN" xlink:title="AP030" d="M13306.6101,-3439.3265L13307.1274,-3439.5382L13307.3593,-3439.6332L13307.4493,-3439.74"/>
<path content="AP030,1,28,1,0,14,1,8,JPN" xlink:title="AP030" d="M13306.6101,-3439.3265L13306.5451,-3439.6889L13306.73,-3440.536L13306.88,-3440.841L13307.04,-3441.102L13307.19,-3441.297L13307.48,-3441.43L13307.769,-3441.5047"/>
<path content="AP030,1,28,1,0,14,1,8,JPN" xlink:title="AP030" d="M13289.0625,-3442.5152L13289.2899,-3442.4267L13289.5203,-3442.3866L13289.7202,-3442.3534L13289.74,-3441.9399L13289.7003,-3441.7934L13289.4501,-3441.56L13289.3997,-3441.5264L13289.3997,-3441.1266L13289.4302,-3441.0198L13289.4608,-3440.9081L13289.4699,-3440.8733L13289.4302,-3440.7867L13289.27,-3440.62L13289.2395,-3440.5533L13289.2899,-3440.0799L13289.3097,-3439.74L13289.27,-3439.5401L13289.1296,-3439.2735"/>
<path content="AP030,1,28,1,0,14,1,8,JPN" xlink:title="AP030" d="M13289.0625,-3439.3385L13289.1296,-3439.2735"/>
<path content="AP030,1,28,1,0,14,1,8,JPN" xlink:title="AP030" d="M13299.0204,-3440.5132L13299.0601,-3440.4999L13299.1806,-3440.4266L13299.3607,-3440.2599L13299.5193,-3440.2466L13299.6796,-3440.3732L13300.0397,-3440.48L13300.2701,-3440.5334L13300.65,-3440.6601L13301.0406,-3440.6067L13301.2405,-3440.5334L13301.5594,-3440.1932L13301.77,-3440.0131L13301.8997,-3439.9399L13302.15,-3439.8865L13302.2003,-3439.8865L13302.4704,-3439.8666L13302.7206,-3439.7598L13303.0197,-3439.6866L13303.6499,-3439.4333L13303.9902,-3439.3265L13304.0604,-3439.3265L13304.3793,-3439.3265L13304.7699,-3439.4001L13304.95,-3439.3799L13305.2902,-3439.0732"/>
<path content="AP030,1,28,1,0,15,1,8,JPN" xlink:title="AP030" d="M13330.6335,-3440.8951L13330.8609,-3440.0635L13331.6162,-3439.6984L13332.2973,-3438.9896"/>
<path content="AP030,1,28,1,0,14,1,8,JPN" xlink:title="AP030" d="M13305.2902,-3439.0732L13305.3101,-3439.04L13305.4001,-3438.9866L13305.8304,-3438.9668L13306.3095,-3439.1998L13306.6101,-3439.3265"/>
<path content="AP030,1,28,1,0,14,1,8,JPN" xlink:title="AP030" d="M13291.6092,-3439.5931L13291.6107,-3439.5931L13291.8594,-3439.7732L13291.9006,-3439.7934L13292.0197,-3439.8335L13292.2394,-3439.8335L13292.8604,-3439.5599L13292.9001,-3439.4665L13293.0206,-3439.2532L13293.1305,-3439.18L13293.3304,-3439.04L13293.5806,-3438.9465L13293.9301,-3439.1998L13294.7006,-3439.6667L13295.0195,-3439.8998L13295.1492,-3440.1001L13295.2896,-3440.2802L13295.3796,-3440.3534L13295.8603,-3440.4598L13296.2692,-3440.5132L13296.4905,-3440.4999L13296.9894,-3440.4266"/>
<path content="AP030,1,28,1,0,14,1,8,JPN" xlink:title="AP030" d="M13289.1296,-3439.2735L13289.18,-3439.1068L13289.1998,-3439.0202L13289.2197,-3438.9668L13289.27,-3438.8931L13289.3097,-3438.8401L13289.4501,-3438.7466L13289.74,-3438.7135L13289.9307,-3438.7867L13290.0604,-3438.9267L13290.1993,-3438.9999L13290.4297,-3439.0732L13290.77,-3439.36L13290.8798,-3439.4333L13291.2903,-3439.5931L13291.6092,-3439.5931"/>
<path content="AP030,1,28,1,0,16,1,8,JPN" xlink:title="AP030" d="M13320.8282,-3439.8632L13320.7703,-3439.6534L13320.6802,-3439.4531L13320.52,-3439.2532L13320.52,-3439.0732L13320.4895,-3438.9465L13320.3796,-3438.7665L13320.1294,-3438.6398L13319.8593,-3438.5334L13319.7311,-3438.512"/>
<path content="AP030,1,28,1,0,14,1,8,JPN" xlink:title="AP030" d="M13320.8282,-3439.8632L13320.7199,-3439.92L13320.61,-3439.9399L13320.4697,-3439.8666L13320.0607,-3439.6332L13319.9905,-3439.5802L13319.5801,-3439.4531L13319.6106,-3439.2735L13319.7006,-3439.0934L13319.7906,-3438.8599L13319.7693,-3438.6398L13319.7311,-3438.512"/>
<path content="AP030,1,28,1,0,14,1,8,JPN" xlink:title="AP030" d="M13309.079,-3439.6866L13309.0805,-3439.6866L13309.1797,-3439.6866L13309.3994,-3439.7598L13309.4574,-3439.7598L13309.6497,-3439.7598L13309.7702,-3439.7064L13309.9899,-3439.5065L13310.2905,-3439.3265L13310.5606,-3439.3265L13310.6796,-3439.2532L13310.8093,-3439.1464L13311.1099,-3439.0202L13311.2396,-3438.9465L13311.3022,-3438.7852L13311.38,-3438.5864L13311.496,-3438.5262L13311.7401,-3438.3533L13311.9507,-3438.2999L13312.6801,-3438.3533L13313.15,-3438.5334L13313.4293,-3438.7135L13313.6795,-3438.8401L13314.27,-3439.1666L13314.4302,-3439.2532L13314.8102,-3439.3066L13315.1093,-3439.4333L13315.1505,-3439.4531L13315.6998,-3439.5065"/>
<path content="AP030,1,28,1,0,14,1,8,JPN" xlink:title="AP030" d="M13319.7311,-3438.512L13319.7006,-3438.4068L13319.5801,-3438.0665L13319.5206,-3437.9734L13319.4305,-3437.8864"/>
<path content="AP030,1,28,1,0,14,1,8,JPN" xlink:title="AP030" d="M13319.4305,-3437.8864L13319.3298,-3437.7934L13319.1101,-3437.5267L13319.046,-3437.5103"/>
<path content="AP030,1,28,1,0,16,1,8,JPN" xlink:title="AP030" d="M13319.7311,-3438.512L13319.5404,-3438.48L13319.2703,-3438.0665L13319.1803,-3437.92L13319.0796,-3437.6865L13319.046,-3437.5103"/>
<path content="AP030,1,28,1,0,15,1,8,JPN" xlink:title="AP030" d="M13336.5021,-3445.1099L13336.0489,-3444.8475L13336.0519,-3444.5381L13336.0748,-3444.2921L13336.3251,-3443.9983L13336.5723,-3443.7454L13336.3464,-3443.5043L13336.6165,-3443.2735L13337.0483,-3442.9089L13337.3306,-3441.9979L13337.3474,-3440.7196L13337.175,-3439.8834L13337.0071,-3438.7173L13336.7538,-3438.2267L13336.0367,-3437.3493"/>
<path content="AP030,1,28,1,0,15,1,8,JPN" xlink:title="AP030" d="M13332.2973,-3438.9896L13332.9886,-3438.4475L13333.5491,-3438.2461L13334.203,-3438.1997L13334.7822,-3438.0448L13335.318,-3437.7995L13336.0367,-3437.3493"/>
<path content="AP030,1,28,1,0,15,1,8,JPN" xlink:title="AP030" d="M13336.0367,-3437.3493L13336.5021,-3437.2799L13336.8423,-3437.4432L13337.3077,-3437.7895L13337.6877,-3438.25L13337.6038,-3439.3585L13337.7731,-3440.398L13338.2797,-3441.7145L13338.6185,-3442.5461L13338.5345,-3443.3083L13338.3224,-3443.7935L13337.8571,-3444.313L13336.5021,-3445.1099"/>
<path content="AP030,1,28,1,0,14,1,8,JPN" xlink:title="AP030" d="M13317.45,-3437.5599L13317.45,-3437.3798L13317.5598,-3437.3066L13318.0206,-3437.3066L13318.4296,-3437.22L13318.5196,-3437.2532L13318.9499,-3437.4866L13319.046,-3437.5103"/>
<path content="AP030,1,28,1,0,15,1,8,JPN" xlink:title="AP030" d="M13297.4106,-3436.9701L13303.2593,-3438.3797L13304.1504,-3438.9233L13305.2902,-3439.0732"/>
<path content="AP030,1,28,1,0,15,1,8,JPN" xlink:title="AP030" d="M13296.9894,-3440.4266L13296.4828,-3439.1739L13296.5927,-3438.3724L13297.4106,-3436.9701"/>
<path content="AP030,1,28,1,0,15,1,8,JPN" xlink:title="AP030" d="M13320.8282,-3439.8632L13321.9116,-3439.9273L13322.5021,-3440.2744L13322.9446,-3440.3236L13323.32,-3440.3061L13323.5641,-3440.0948L13323.2437,-3439.7854L13322.8729,-3439.4936L13322.6578,-3438.8611L13321.8506,-3438.438L13321.6644,-3438.0341L13321.4294,-3437.0903L13321.225,-3436.6028L13320.6741,-3436.3819L13320.0806,-3436.3438L13319.8059,-3437.4195L13319.4305,-3437.8864"/>
<path content="AP030,1,28,1,0,15,1,8,JPN" xlink:title="AP030" d="M13294.9738,-3436.2701L13295.3491,-3436.4296L13295.8786,-3437.0041L13297.4106,-3436.9701"/>
<path content="AP030,1,28,1,0,16,1,8,JPN" xlink:title="AP030" d="M13319.046,-3437.5103L13318.9697,-3437.1265L13318.9896,-3436.8401L13319.1498,-3436.5002L13319.1803,-3436.2801L13319.0796,-3436.1534L13318.7393,-3436.0134L13318.4689,-3435.8994L13318.4685,-3435.8993"/>
<path content="AP030,1,28,1,0,14,1,8,JPN" xlink:title="AP030" d="M13316.4902,-3435.6133L13316.7007,-3435.5598L13316.8594,-3435.5801L13316.9693,-3435.4332L13317.0578,-3435.2844"/>
<path content="AP030,1,28,1,0,15,1,8,JPN" xlink:title="AP030" d="M13290.2973,-3434.8858L13290.9744,-3435.088L13291.8396,-3435.5003L13292.2394,-3435.4588L13292.4759,-3435.3924L13292.6132,-3435.4187L13292.7429,-3435.7819L13292.9047,-3435.9837L13293.2358,-3436.1282L13293.6584,-3436.1839L13294.9738,-3436.2701"/>
<path content="AP030,1,28,1,0,14,1,8,JPN" xlink:title="AP030" d="M13289.0625,-3438.9862L13289.1098,-3438.9267L13289.1998,-3438.8401L13289.18,-3438.4068L13289.1098,-3438.1001L13289.0625,-3438.0147M13289.0625,-3436.3222L13289.2899,-3436.3335L13289.36,-3436.2267L13289.5203,-3435.9734L13289.7202,-3435.8467L13289.9704,-3435.3802L13290.1993,-3435.22L13290.2973,-3434.8858"/>
<path content="AP030,1,28,1,0,15,1,8,JPN" xlink:title="AP030" d="M13316.4902,-3435.6133L13316.301,-3435.7353L13315.8203,-3435.7311L13315.3198,-3435.606L13315.1154,-3435.3935L13314.7003,-3434.3575"/>
<path content="AP030,1,28,1,0,14,1,8,JPN" xlink:title="AP030" d="M13290.2973,-3434.8858L13290.4007,-3434.5333L13290.6799,-3434.0801"/>
<path content="AP030,1,28,1,0,16,1,8,JPN" xlink:title="AP030" d="M13317.0578,-3435.2844L13316.9693,-3435.2001L13316.7206,-3434.9464L13316.33,-3434.7866L13316.1499,-3434.5135L13316.1301,-3434.1L13316.0797,-3433.8333"/>
<path content="AP030,1,28,1,0,15,1,8,JPN" xlink:title="AP030" d="M13314.7003,-3434.3575L13315.3824,-3434.0828L13316.0797,-3433.8333"/>
<path content="AP030,1,28,1,0,15,1,8,JPN" xlink:title="AP030" d="M13297.4106,-3436.9701L13298.2986,-3434.4944L13298.97,-3433.7933"/>
<path content="AP030,1,28,1,0,15,1,8,JPN" xlink:title="AP030" d="M13326.7807,-3433.5735L13327.4384,-3433.7185L13328.0304,-3433.7765L13328.3997,-3434.0889L13328.5583,-3434.7244L13328.6789,-3435.6541L13328.9978,-3435.6949L13329.8172,-3436.5307L13331.5765,-3437.1372L13332.1121,-3437.8109L13332.2412,-3438.3701L13332.2973,-3438.9896"/>
<path content="AP030,1,28,1,0,14,1,8,JPN" xlink:title="AP030" d="M13317.0578,-3435.2844L13317.1494,-3435.1265L13317.1997,-3435.0399L13317.2195,-3434.8732L13317.3096,-3434.7668L13317.3599,-3434.5867L13317.4301,-3434.4398L13317.45,-3434.3334L13317.5201,-3434.2266L13317.6804,-3434.0134L13317.8101,-3433.9401L13318.1503,-3433.8467L13318.2404,-3433.7399L13318.2693,-3433.6864L13318.2404,-3433.5934L13317.9504,-3433.4866L13317.9001,-3433.4332L13317.72,-3433.3801"/>
<path content="AP030,1,28,1,0,15,1,8,JPN" xlink:title="AP030" d="M13316.0797,-3433.8333L13317.72,-3433.3801"/>
<path content="AP030,1,28,1,0,14,1,8,JPN" xlink:title="AP030" d="M13298.97,-3433.7933L13299.2004,-3433.8665L13299.4293,-3433.8665L13299.6796,-3433.7933L13300.0198,-3433.8135L13300.0595,-3433.7933L13300.4303,-3433.6533L13300.5402,-3433.72L13300.7202,-3433.7399L13300.9705,-3433.6666L13301.1307,-3433.5934L13301.1505,-3433.5602L13301.4694,-3433.54L13301.6098,-3433.5266L13301.86,-3433.3267L13302.0798,-3433.2535L13302.2675,-3433.2047L13302.4902,-3433.1467L13302.6306,-3433.1799L13302.7893,-3433.2733L13302.9297,-3433.3267L13303.2196,-3433.3466L13303.3096,-3433.4L13303.3295,-3433.5068L13303.3798,-3433.5602L13303.6499,-3433.6334L13303.9703,-3433.7067L13304.2007,-3433.8135L13304.6295,-3433.9401L13304.7699,-3434.0801L13305.0797,-3434.1934L13305.2002,-3434.3334L13305.3802,-3434.3864L13305.6107,-3434.4265L13306.0593,-3434.5531L13306.2698,-3434.5001L13306.4301,-3434.4799L13306.9214,-3434.3842L13307.1518,-3434.338L13307.4661,-3434.4822L13307.6721,-3434.5592L13307.7698,-3434.5867L13307.8293,-3434.8202L13307.9697,-3434.9865L13308.02,-3435.1665L13308.0399,-3435.3065L13308.11,-3435.5598L13308.1299,-3435.7933L13308.2397,-3436.1L13308.2397,-3436.4067L13308.2703,-3436.5002L13308.2901,-3436.6402L13308.3099,-3436.7332L13308.4045,-3436.9034L13308.4305,-3437.1147L13308.4976,-3437.4805L13308.5327,-3437.5835L13308.548,-3437.7018L13308.5205,-3437.7934L13308.3099,-3438.0135L13308.2001,-3438.0466L13307.8598,-3438.1199L13307.6797,-3438.2267L13307.3105,-3438.48L13307.0847,-3438.48L13306.7001,-3438.48L13306.7001,-3439.1464L13306.6101,-3439.3265"/>
<path content="AP030,1,28,1,0,14,1,8,JPN" xlink:title="AP030" d="M13290.6799,-3434.0801L13290.7394,-3434.1L13290.8798,-3434.1934L13291.1102,-3434.3533L13291.1804,-3434.28L13291.2903,-3434.0801L13291.3879,-3433.9375L13291.3879,-3433.9371L13291.4001,-3433.9199L13291.5207,-3433.72L13291.5207,-3433.5602L13291.5405,-3433.4667L13291.8106,-3433.2867L13291.9296,-3433.2001L13292.1494,-3433.0734L13292.2195,-3432.84L13292.3096,-3432.7332L13292.4896,-3432.6801L13292.7704,-3432.6599L13292.8802,-3432.6801L13292.9901,-3432.7465L13293.0801,-3432.8732L13293.4494,-3433.0734L13294.0598,-3433.5934L13294.31,-3433.8665L13294.5206,-3433.9733L13294.9295,-3433.9931L13295.3598,-3434.0466L13295.52,-3434.0466L13295.7397,-3433.9733L13296.0602,-3433.7933L13296.7407,-3433.6666L13297.0795,-3433.5934L13297.3999,-3433.4866L13297.7005,-3433.3801L13297.9294,-3433.3801L13298.1796,-3433.2535L13298.2697,-3433.2535L13298.3795,-3433.4332L13298.4207,-3433.5197L13298.4894,-3433.6666L13298.97,-3433.7933"/>
<path content="AP030,1,28,1,0,14,1,8,JPN" xlink:title="AP030" d="M13289.0625,-3433.469L13289.3997,-3433.5602L13289.9902,-3433.9001L13290.1093,-3433.9535L13290.4297,-3434.0134L13290.6799,-3434.0801"/>
<path content="AP030,1,28,1,0,16,1,8,JPN" xlink:title="AP030" d="M13316.0797,-3433.8333L13315.7196,-3433.5266L13315.4694,-3433.3466L13315.2206,-3433.0933L13315.0604,-3432.8934L13315.0406,-3432.7332L13315.0604,-3432.5333L13315.0604,-3432.2067L13315.1794,-3431.8333L13315.3793,-3431.4667L13315.4572,-3431.366"/>
<path content="AP030,1,28,1,0,14,1,8,JPN" xlink:title="AP030" d="M13315.4572,-3431.366L13315.5197,-3431.3599L13315.6296,-3431.4133L13315.6998,-3431.5399L13315.8997,-3431.6532L13316.0797,-3431.6666L13316.4307,-3431.76L13316.4902,-3431.8466L13316.5207,-3431.9L13316.5207,-3431.9401L13316.6306,-3431.9534L13316.6504,-3432.0133L13316.6794,-3432.2266L13316.7404,-3432.3532L13316.9907,-3432.5535L13317.1997,-3432.7465L13317.2195,-3432.84L13317.3096,-3432.9132L13317.3599,-3433.0002L13317.72,-3433.3801"/>
<path content="AP030,1,28,1,0,14,1,8,JPN" xlink:title="AP030" d="M13315.1505,-3431.3065L13315.3107,-3431.3801L13315.4572,-3431.366"/>
<path content="AP030,1,28,1,0,15,1,8,JPN" xlink:title="AP030" d="M13314.7003,-3434.3575L13314.4226,-3434.087L13313.7741,-3433.8326L13313.5727,-3433.5808L13313.8336,-3433.186L13314.2548,-3432.8014L13315.1505,-3431.3065"/>
<path content="AP030,1,28,1,0,16,1,8,JPN" xlink:title="AP030" d="M13315.4572,-3431.366L13315.5594,-3431.2332L13315.5594,-3431.0001L13315.5396,-3430.8735L13315.4297,-3430.7133L13315.303,-3430.6183"/>
<path content="AP030,1,28,1,0,14,1,8,JPN" xlink:title="AP030" d="M13315.1505,-3431.3065L13315.2405,-3431.1665L13315.2893,-3430.7667L13315.2893,-3430.6599L13315.303,-3430.6183"/>
<path content="AP030,1,28,1,0,15,1,8,JPN" xlink:title="AP030" d="M13314.6103,-3430.3333L13314.6088,-3430.3307"/>
<path content="AP030,1,28,1,0,14,1,8,JPN" xlink:title="AP030" d="M13314.6103,-3430.3333L13314.6133,-3430.3246"/>
<path content="AP030,1,28,1,0,15,1,8,JPN" xlink:title="AP030" d="M13314.6088,-3430.3307L13314.6133,-3430.3246"/>
<path content="AP030,1,28,1,0,14,1,8,JPN" xlink:title="AP030" d="M13315.303,-3430.6183L13315.3595,-3430.4401L13315.3793,-3430.3734L13315.6097,-3430.1933"/>
<path content="AP030,1,28,1,0,16,1,8,JPN" xlink:title="AP030" d="M13314.6866,-3430.1567L13315.303,-3430.6183"/>
<path content="AP030,1,28,1,0,14,1,8,JPN" xlink:title="AP030" d="M13314.6133,-3430.3246L13314.6866,-3430.1567"/>
<path content="AP030,1,28,1,0,16,1,8,JPN" xlink:title="AP030" d="M13314.534,-3430.0442L13314.6866,-3430.1567"/>
<path content="AP030,1,28,1,0,15,1,8,JPN" xlink:title="AP030" d="M13314.6088,-3430.3307L13314.5203,-3430.1533L13314.5203,-3430.08L13314.534,-3430.0442"/>
<path content="AP030,1,28,1,0,14,1,8,JPN" xlink:title="AP030" d="M13315.6097,-3430.1933L13315.6296,-3430.0266"/>
<path content="AP030,1,28,1,0,15,1,8,JPN" xlink:title="AP030" d="M13315.6097,-3430.1933L13316.214,-3430.0503L13317.4103,-3429.5086"/>
<path content="AP030,1,28,1,0,15,1,8,JPN" xlink:title="AP030" d="M13314.6088,-3430.3307L13313.829,-3431.2889L13313.5361,-3431.4701L13312.973,-3431.4194L13312.1063,-3431.0917L13311.0275,-3430.8357L13310.527,-3430.6591L13309.903,-3430.5199L13308.815,-3430.5347L13308.223,-3429.9271L13307.7896,-3429.2904L13307.5592,-3428.0998"/>
<path content="AP030,1,28,1,0,15,1,8,JPN" xlink:title="AP030" d="M13317.4103,-3429.5086L13317.804,-3428.9974L13318.2556,-3428.4279L13318.9606,-3428.0605L13319.3787,-3427.8397L13319.4702,-3427.9282L13319.4839,-3428.3005L13319.3497,-3428.6839L13319.4824,-3429.1256L13319.4992,-3429.459L13319.2932,-3429.8321L13319.0018,-3429.9992L13318.7469,-3430.1403L13318.5196,-3430.1685L13317.4103,-3429.5086"/>
<path content="AP030,1,28,1,0,16,1,8,JPN" xlink:title="AP030" d="M13308.8593,-3426.4267L13309.3178,-3426.7572L13309.9278,-3427.2102L13310.4478,-3427.7532L13310.8278,-3428.1902L13311.2478,-3428.4942L13311.8278,-3428.7272L13312.4178,-3428.8152L13312.9578,-3428.9652L13313.3878,-3429.1472L13313.8278,-3429.5072L13314.2178,-3429.824L13314.4897,-3430.0133L13314.534,-3430.0442"/>
<path content="AP030,1,28,1,0,14,1,8,JPN" xlink:title="AP030" d="M13309.8297,-3426.3L13309.9701,-3426.44L13310.1501,-3426.4999L13310.4904,-3426.6201L13310.7193,-3426.6602L13311.0397,-3426.8002L13311.1801,-3426.8932L13311.2,-3426.9867L13311.1801,-3427.1999L13311.2198,-3427.3602L13311.5204,-3427.5398L13311.7401,-3427.6134L13311.9293,-3427.6665L13312.0193,-3427.7199L13312.2192,-3427.9533L13312.4695,-3428.0132L13312.6495,-3428.08L13312.7197,-3428.0998L13313.2202,-3428.12L13313.3606,-3428.2799L13313.4903,-3428.3531L13313.7695,-3428.3733L13313.9694,-3428.5L13314.2395,-3428.6064L13314.4501,-3428.7132L13314.5203,-3428.7998L13314.5401,-3428.8734L13314.5203,-3429.0733L13314.5599,-3429.1065L13314.5599,-3429.3064L13314.6805,-3429.5399L13314.7705,-3429.6665L13314.74,-3429.9732L13314.7202,-3430.0465L13314.7202,-3430.08L13314.6866,-3430.1567"/>
<path content="AP030,1,28,1,0,14,1,8,JPN" xlink:title="AP030" d="M13307.5592,-3428.0998L13307.4295,-3427.9202L13307.2906,-3427.7733L13307.1793,-3427.7199L13306.9901,-3427.5265L13306.8802,-3427.3067L13306.8802,-3427.0931L13306.8802,-3426.9264L13306.7993,-3426.7231L13306.8604,-3426.5667L13306.9504,-3426.3332L13307.0263,-3426.2565L13307.0673,-3426.2281"/>
<path content="AP030,1,28,1,0,15,1,8,JPN" xlink:title="AP030" d="M13308.8593,-3426.4267L13309.1797,-3426.5533L13309.2896,-3426.5667L13309.3307,-3426.5133L13309.2896,-3426.4267L13309.0607,-3426.3535L13309.0195,-3426.2798L13309.1095,-3426.2264L13309.2194,-3426.2264L13309.4498,-3426.3535L13309.5596,-3426.3866L13309.7198,-3426.3535L13309.8297,-3426.3"/>
<path content="AP030,1,28,1,0,16,1,8,JPN" xlink:title="AP030" d="M13307.0673,-3426.2281L13307.1503,-3426.2466L13307.2693,-3426.2466L13307.6096,-3426.1932L13307.8598,-3426.1932L13308.1802,-3426.2066L13308.49,-3426.26L13308.8593,-3426.4267"/>
<path content="AP030,1,28,1,0,14,1,8,JPN" xlink:title="AP030" d="M13307.0673,-3426.2281L13307.0984,-3426.2066L13307.2067,-3426.1181L13307.3593,-3426.0265L13307.5195,-3425.9933L13307.6492,-3425.9399L13307.7698,-3425.8465L13307.8796,-3425.8465L13308.02,-3425.7935L13308.1802,-3425.6866L13308.2199,-3425.6866L13308.3099,-3425.7401L13308.49,-3425.7599L13308.6105,-3425.8331L13308.7204,-3425.8999L13309.3597,-3425.9201L13309.52,-3426.0666L13309.7198,-3426.2066L13309.8297,-3426.3"/>
<path content="AP030,1,28,1,0,16,1,25,JPN" xlink:title="AP030" d="M13305.2231,-3425.5417L13305.4306,-3425.6664L13305.7007,-3425.7732L13306.7703,-3426.1333L13306.9702,-3426.2066L13307.0511,-3426.2245L13307.0673,-3426.2281"/>
<path content="AP030,1,28,1,0,14,1,8,JPN" xlink:title="AP030" d="M13303.9505,-3426.8932L13304.1397,-3426.6075L13304.1504,-3426.5133L13304.1107,-3426.3535L13304.2404,-3426.12L13304.4296,-3425.9399L13304.6799,-3425.8331L13305.0598,-3425.7065L13305.2002,-3425.6134L13305.2231,-3425.5417"/>
<path content="AP030,1,28,1,0,15,1,8,JPN" xlink:title="AP030" d="M13300.0488,-3425.1209L13301.21,-3425.3944L13302.3361,-3425.753L13303.2081,-3426.1708L13303.5346,-3426.6749L13303.9505,-3426.8932"/>
<path content="AP030,1,28,1,0,15,1,8,JPN" xlink:title="AP030" d="M13303.9505,-3426.8932L13303.4271,-3427.599L13302.8992,-3429.1107L13302.356,-3429.4346L13301.2695,-3429.7577L13300.6943,-3429.6982L13300.1877,-3429.2046L13299.144,-3428.5229L13299.1409,-3427.9968L13299.2966,-3427.7443L13299.2187,-3427.4544L13298.7335,-3427.2907L13298.2529,-3426.8414L13298.6771,-3426.4984L13298.912,-3426.2508L13299.2661,-3425.8579L13298.9883,-3425.4456L13299.5514,-3425.351L13300.0488,-3425.1209"/>
<path content="AP030,1,28,1,0,15,1,8,JPN" xlink:title="AP030" d="M13357.8552,-3425.0347L13359.375,-3424.006"/>
<path content="AP030,1,28,1,0,14,1,8,JPN" xlink:title="AP030" d="M13305.2231,-3425.5417L13305.2902,-3425.3265L13305.3101,-3425.1801L13305.3101,-3425.1064L13305.3101,-3424.8001L13305.2704,-3424.6067L13305.1102,-3424.3534L13305.0797,-3424.2466L13305.04,-3423.5931L13305.1102,-3423.4001L13305.13,-3423.1464L13305.13,-3423.0202L13305.1102,-3422.7467L13305.1102,-3422.6398L13305.2704,-3422.4998"/>
<path content="AP030,1,28,1,0,15,1,8,JPN" xlink:title="AP030" d="M13304.7975,-3422.0949L13304.92,-3422.282L13305.2704,-3422.4998"/>
<path content="AP030,1,28,1,0,16,1,8,JPN" xlink:title="AP030" d="M13305.2231,-3425.5417L13305.0201,-3425.3067L13304.8996,-3425.1465L13304.8096,-3424.9664L13304.7699,-3424.7131L13304.7699,-3423.3799L13304.6799,-3422.9465L13304.5807,-3422.5864L13304.6494,-3422.3202L13304.7897,-3422.1001L13304.7975,-3422.0949"/>
<path content="AP030,1,28,1,0,14,1,8,JPN" xlink:title="AP030" d="M13306.5201,-3422.1733L13306.7703,-3422.1333L13306.9702,-3422.1001L13306.9305,-3421.9532L13306.8298,-3421.8132L13306.7703,-3421.5935L13306.8665,-3421.294"/>
<path content="AP030,1,28,1,0,16,1,8,JPN" xlink:title="AP030" d="M13304.7975,-3422.0949L13305.8304,-3421.4001L13306.0196,-3421.36L13306.4301,-3421.3799L13306.7001,-3421.36L13306.8665,-3421.294"/>
<path content="AP030,1,28,1,0,15,1,8,JPN" xlink:title="AP030" d="M13289.0625,-3424.5297L13290.2283,-3424.7192L13290.7227,-3425.8488L13290.9729,-3426.3424L13292.4881,-3427.9659L13292.9993,-3427.9198L13293.5562,-3428.0067L13293.5242,-3426.8593L13292.5217,-3424.931L13291.1301,-3423.7652L13291.156,-3423.2193L13291.008,-3422.2893L13291.3101,-3421.8933L13291.3895,-3421.6137L13289.7598,-3421.8342L13289.0625,-3421.4903"/>
<path content="AP030,1,28,1,0,16,1,8,JPN" xlink:title="AP030" d="M13306.8665,-3421.294L13307.0206,-3421.2334L13307.3105,-3421.0732L13307.5607,-3420.8935L13307.7896,-3420.5532L13307.9498,-3420.2801L13307.9498,-3419.9734L13307.9498,-3419.8334L13307.811,-3419.6819"/>
<path content="AP030,1,28,1,0,14,1,8,JPN" xlink:title="AP030" d="M13306.8665,-3421.294L13306.8802,-3421.2532L13306.9702,-3421.0934L13307.1304,-3420.9866L13307.2906,-3420.8935L13307.4295,-3420.7333L13307.6096,-3420.4266L13307.6797,-3420.1332L13307.7698,-3419.8666L13307.7896,-3419.7067L13307.811,-3419.6819"/>
<path content="AP030,1,28,1,0,15,1,8,JPN" xlink:title="AP030" d="M13306.5201,-3422.1733L13307.6385,-3422.9458L13308.5464,-3423.1434L13310.2554,-3423.167L13310.5392,-3422.7455L13310.2783,-3422.0512L13310.7437,-3421.4378L13311.2183,-3421.1639L13310.9879,-3420.5734L13311.0199,-3419.7968L13310.7208,-3419.5065L13310.3607,-3419.92"/>
<path content="AP030,1,28,1,0,14,1,8,JPN" xlink:title="AP030" d="M13307.811,-3419.6819L13307.93,-3419.54L13308.0399,-3419.4668L13308.2199,-3419.4134L13308.2397,-3419.4332L13308.3298,-3419.5934L13308.4702,-3419.6335L13308.5403,-3419.7067L13308.8593,-3419.9402L13308.9493,-3420.1199L13309.0805,-3420.2465L13309.3597,-3420.4266L13309.5596,-3420.5132L13309.6497,-3420.5334L13309.8602,-3420.5132L13310.0204,-3420.4399L13310.2707,-3420.2801L13310.3806,-3420.1733L13310.6293,-3420.0665L13310.3607,-3419.92"/>
<path content="AP030,1,28,1,0,15,1,8,JPN" xlink:title="AP030" d="M13300.0488,-3425.1209L13299.7223,-3424.1135L13299.1959,-3423.5531L13298.9761,-3422.5311L13298.6145,-3421.8941L13296.1151,-3421.8388L13295.2286,-3421.7365L13294.7479,-3421.2448L13294.75,-3420.8L13294.73,-3420.56L13294.76,-3420.376L13294.91,-3420.217L13295.09,-3419.909L13295.26,-3419.512L13295.39,-3419.339L13295.6,-3419.239L13295.93,-3419.236L13296.24,-3419.278L13296.8,-3419.452L13297.33,-3419.668L13297.82,-3419.852L13298.23,-3419.955L13298.51,-3420.033L13298.9,-3420.373L13299.26,-3420.684L13299.61,-3420.975L13299.97,-3421.092L13300.32,-3421.159L13300.82,-3421.219L13301.31,-3421.269L13301.96,-3421.315L13302.55,-3421.287L13303.18,-3421.177L13303.48,-3421.163L13303.79,-3421.216L13304.16,-3421.425L13304.45,-3421.651L13304.66,-3421.885L13304.7975,-3422.0949"/>
<path content="AP030,1,28,1,0,16,1,25,JPN" xlink:title="AP030" d="M13307.811,-3419.6819L13307.2998,-3419.1277"/>
<path content="AP030,1,28,1,0,16,1,25,JPN" xlink:title="AP030" d="M13307.2998,-3419.1277L13307.0584,-3418.8644"/>
<path content="AP030,1,28,1,0,16,1,4,JPN" xlink:title="AP030" d="M13306.9504,-3418.7466L13306.8298,-3418.5532L13306.81,-3418.2999L13306.8298,-3417.8467"/>
<path content="AP030,1,28,1,0,14,1,8,JPN" xlink:title="AP030" d="M13307.4493,-3417.2333L13307.5806,-3417.4133"/>
<path content="AP030,1,28,1,0,15,1,8,JPN" xlink:title="AP030" d="M13307.4066,-3418.6432L13307.5012,-3418.214L13307.4493,-3417.2333"/>
<path content="AP030,1,28,1,0,14,1,8,JPN" xlink:title="AP030" d="M13306.5125,-3416.7679L13306.8802,-3416.7866L13307.2693,-3417.1665L13307.4493,-3417.2333"/>
<path content="AP030,1,28,1,0,16,1,8,JPN" xlink:title="AP030" d="M13306.8298,-3417.8467L13306.8298,-3417.6334L13306.7138,-3417.3382L13306.5201,-3416.8732L13306.5125,-3416.7679"/>
<path content="AP030,1,28,1,0,16,1,8,JPN" xlink:title="AP030" d="M13306.5125,-3416.7679L13306.4896,-3416.46"/>
<path content="AP030,1,28,1,0,14,1,8,JPN" xlink:title="AP030" d="M13306.5125,-3416.7679L13306.4896,-3416.7667L13306.3599,-3416.7133L13306.2897,-3416.6599L13306.3599,-3416.5668L13306.4896,-3416.46"/>
<path content="AP030,1,28,1,0,14,1,8,JPN" xlink:title="AP030" d="M13306.3416,-3415.6443L13306.6101,-3415.9534L13306.6803,-3416.1331L13306.7001,-3416.3334L13306.4896,-3416.46"/>
<path content="AP030,1,28,1,0,16,1,8,JPN" xlink:title="AP030" d="M13306.3416,-3415.6443L13306.4085,-3415.9978L13306.4896,-3416.46"/>
<path content="AP030,1,28,1,0,14,1,8,JPN" xlink:title="AP030" d="M13303.0396,-3413.0932L13303.1296,-3413.1065L13303.45,-3413.1268L13303.7003,-3413.2198L13303.9001,-3413.3266L13303.9703,-3413.3999L13304.1794,-3413.3999L13304.2892,-3413.4869L13304.3106,-3413.5601L13304.3106,-3413.6532L13304.1306,-3413.7932L13304.0604,-3413.8466L13303.9902,-3414.1201L13304.3594,-3414.6198L13304.4907,-3414.6198L13304.6494,-3414.6801L13304.7699,-3414.7469L13304.9301,-3414.7865L13305.0598,-3414.8933L13305.22,-3414.9467L13305.4901,-3414.9666L13305.7907,-3415.2332L13306.0593,-3415.4667L13306.2393,-3415.5266L13306.3416,-3415.6443"/>
<path content="AP030,1,28,1,0,16,1,8,JPN" xlink:title="AP030" d="M13303.0396,-3413.0932L13303.4513,-3412.9524L13303.8996,-3412.8731L13304.1954,-3412.9207L13304.6342,-3413.0555L13305.2065,-3413.4441L13305.6644,-3413.912L13305.9697,-3414.2134L13306.1223,-3414.5862L13306.18,-3414.791L13306.3416,-3415.6443"/>
<path content="AP030,1,28,1,0,16,1,8,JPN" xlink:title="AP030" d="M13301.6205,-3412.8399L13302.4902,-3413.1802L13302.7695,-3413.1802L13302.9694,-3413.1268L13303.0396,-3413.0932"/>
<path content="AP030,1,28,1,0,15,1,8,JPN" xlink:title="AP030" d="M13306.9504,-3418.7466L13305.806,-3419.0193L13304.5914,-3419.3539L13303.3585,-3419.3661L13302.8702,-3418.9278L13302.7634,-3417.905L13303.3981,-3417.2356L13303.9673,-3415.918L13304.1916,-3415.1451L13303.8727,-3414.7949L13303.1662,-3414.8022L13302.7039,-3415.0909L13302.0981,-3414.6111L13301.886,-3413.9587L13301.6205,-3412.8399"/>
<path content="AP030,1,28,1,0,14,1,8,JPN" xlink:title="AP030" d="M13302.3102,-3412.6934L13302.4506,-3412.7335L13302.5803,-3412.8399L13302.9297,-3412.9269L13302.9907,-3413.0402L13303.0396,-3413.0932"/>
<path content="AP030,1,28,1,0,14,1,8,JPN" xlink:title="AP030" d="M13296.8094,-3410.7334L13296.6293,-3410.7334L13296.6293,-3410.5133"/>
<path content="AP030,1,28,1,0,14,1,8,JPN" xlink:title="AP030" d="M13296.6293,-3410.5133L13296.6293,-3410.4599L13296.6797,-3410.26L13296.7194,-3410.1532"/>
<path content="AP030,1,28,1,0,15,1,8,JPN" xlink:title="AP030" d="M13295.0073,-3409.2751L13295.5917,-3409.4921L13295.6406,-3409.5203L13296.1227,-3409.7965L13296.7194,-3410.1532"/>
<path content="AP030,1,28,1,0,16,1,25,JPN" xlink:title="AP030" d="M13301.6205,-3412.8399L13299.6796,-3412.08L13297.7402,-3411.2865"/>
<path content="AP030,1,28,1,0,14,1,8,JPN" xlink:title="AP030" d="M13296.7194,-3410.1532L13296.8094,-3410.0666L13297.11,-3409.8999L13297.2198,-3409.7935L13297.3602,-3409.6333L13297.7905,-3409.3067L13297.9904,-3409.1469L13298.0392,-3409.1206"/>
<path content="AP030,1,28,1,0,15,1,8,JPN" xlink:title="AP030" d="M13293.9468,-3409.0145L13294.4244,-3409.2751L13295.0073,-3409.2751"/>
<path content="AP030,1,28,1,0,15,1,8,JPN" xlink:title="AP030" d="M13293.9468,-3409.0145L13293.7393,-3409.3601L13293.3319,-3410.0395L13292.3447,-3411.43L13292.746,-3411.8717L13293.396,-3412.4634L13293.75,-3412.9108L13293.8293,-3413.3564L13294.2902,-3413.2175L13295.2927,-3412.0987L13296.0037,-3411.9087L13296.257,-3411.3834L13296.6293,-3410.5133"/>
<path content="AP030,1,28,1,0,14,1,8,JPN" xlink:title="AP030" d="M13298.0392,-3409.1206L13298.1293,-3409.0733L13298.3597,-3408.9668L13298.88,-3408.5133L13299.1806,-3408.2268L13299.1104,-3407.3799"/>
<path content="AP030,1,28,1,0,15,1,8,JPN" xlink:title="AP030" d="M13297.5204,-3406.62L13298.6847,-3407.1766L13299.1104,-3407.3799"/>
<path content="AP030,1,28,1,0,16,1,8,JPN" xlink:title="AP030" d="M13298.0392,-3409.1206L13298.0392,-3408.9764L13298.0392,-3408.86L13298.0194,-3408.5533L13298.0194,-3408.4267L13297.9294,-3408.0799L13297.9004,-3407.9533L13297.8806,-3407.8468L13297.7905,-3407.3067L13297.6105,-3406.8932L13297.5204,-3406.62"/>
<path content="AP030,1,28,1,0,15,1,8,JPN" xlink:title="AP030" d="M13295.0073,-3409.2751L13295.6055,-3408.395L13295.6284,-3407.7194L13295.9412,-3407.4352L13296.3928,-3406.9572L13296.5149,-3406.525L13297.5189,-3406.62L13297.5204,-3406.62"/>
<path content="AP030,1,28,1,0,14,1,8,JPN" xlink:title="AP030" d="M13299.1104,-3407.3799L13299.1104,-3407.3067L13299.2203,-3407.18L13299.5193,-3406.9134L13299.6796,-3406.7467L13299.7192,-3406.6799L13299.7894,-3406.6067L13299.8795,-3406.48"/>
<path content="AP030,1,28,1,0,15,1,8,JPN" xlink:title="AP030" d="M13293.9468,-3409.0145L13293.576,-3408.8844L13293.0801,-3408.3977L13293.045,-3408.363L13292.6208,-3407.5813L13292.7261,-3407.0168L13292.926,-3406.5514L13293.0801,-3406.1932"/>
<path content="AP030,1,28,1,0,14,1,8,JPN" xlink:title="AP030" d="M13299.8795,-3406.48L13299.6796,-3406.3332L13299.6094,-3406.2599L13299.5163,-3406.1565L13299.4003,-3406.0268"/>
<path content="AP030,1,28,1,0,14,1,8,JPN" xlink:title="AP030" d="M13293.0801,-3406.1932L13293.2205,-3406.2466L13293.4296,-3406.44L13293.6798,-3406.6399L13293.7698,-3406.6799L13294.1101,-3406.7333L13294.1498,-3406.7467L13294.5404,-3406.8199L13294.7205,-3406.8001L13295.0394,-3406.6933L13295.1797,-3406.4999L13295.3995,-3406.3198L13295.5795,-3406.2466L13295.7901,-3406.1535L13295.8099,-3406.1535L13296.5195,-3406.0135"/>
<path content="AP030,1,28,1,0,15,1,8,JPN" xlink:title="AP030" d="M13297.3297,-3405.8334L13298.3505,-3406.0612L13299.4003,-3406.0268"/>
<path content="AP030,1,28,1,0,16,1,8,JPN" xlink:title="AP030" d="M13297.5204,-3406.62L13297.3297,-3405.8334"/>
<path content="AP030,1,28,1,0,15,1,8,JPN" xlink:title="AP030" d="M13296.5195,-3406.0135L13297.3297,-3405.8334"/>
<path content="AP030,1,28,1,0,16,1,8,JPN" xlink:title="AP030" d="M13297.3297,-3405.8334L13297.2992,-3405.6656"/>
<path content="AP030,1,28,1,0,14,1,8,JPN" xlink:title="AP030" d="M13296.5195,-3406.0135L13296.9894,-3405.8132L13297.2992,-3405.6656"/>
<path content="AP030,1,28,1,0,14,1,8,JPN" xlink:title="AP030" d="M13298.1796,-3404.9465L13298.5397,-3405.2532L13299.1806,-3405.8334L13299.3103,-3405.9399L13299.4003,-3406.0268"/>
<path content="AP030,1,28,1,0,14,1,8,JPN" xlink:title="AP030" d="M13297.2992,-3405.6656L13297.5204,-3405.5599L13297.6105,-3405.4867L13297.9004,-3405.1998L13298.1796,-3404.9465"/>
<path content="AP030,1,28,1,0,14,1,8,JPN" xlink:title="AP030" d="M13289.0625,-3405.8086L13289.3097,-3406.0135L13289.4501,-3406.1333L13289.9704,-3406.3866L13290.0803,-3406.4068L13290.3793,-3406.3866L13290.7394,-3406.3L13290.9698,-3406.2466L13291.4307,-3406.2267L13291.5543,-3406.0017L13291.6107,-3405.8998L13291.7007,-3405.8468L13292.2394,-3405.9734L13293.0801,-3406.1932"/>
<path content="AP030,1,28,1,0,14,1,8,JPN" xlink:title="AP030" d="M13298.1796,-3404.9465L13298.6298,-3404.4998L13299.2706,-3403.9001L13299.6796,-3403.5934L13300.3601,-3402.9999L13300.7202,-3402.6596"/>
<path content="AP030,1,28,1,0,14,1,8,JPN" xlink:title="AP030" d="M13359.375,-3403.5327L13359.1095,-3403.3066L13359.0195,-3403.2532L13358.6105,-3403.2532L13358.5403,-3403.2001L13358.2703,-3402.7668L13358.0399,-3402.3335L13357.6797,-3402.0668L13357.6294,-3401.9001L13357.5394,-3401.7933L13357.1793,-3401.5934L13357.0801,-3401.5068L13357.0602,-3401.4L13357.0801,-3401.2001"/>
<path content="AP030,1,28,1,0,15,1,8,JPN" xlink:title="AP030" d="M13289.0625,-3401.1609L13289.1769,-3401.165"/>
<path content="AP030,1,28,1,0,14,1,8,JPN" xlink:title="AP030" d="M13299.8795,-3406.48L13300.0198,-3406.3198L13300.3098,-3405.9734L13300.5203,-3405.6866L13300.6104,-3405.5065L13300.8606,-3405.3268L13301.1093,-3405.1468L13301.68,-3404.7333L13301.9302,-3404.5334L13302.1103,-3404.3533L13302.33,-3404.2801L13302.4902,-3404.1931L13302.7695,-3404.0466L13303.36,-3403.5069L13303.54,-3403.0201L13303.7399,-3402.6402L13303.7399,-3402.4799L13303.7399,-3402.3533L13303.7399,-3402.2999L13303.6804,-3401.9402L13303.6499,-3401.8867L13303.6499,-3401.8665L13303.7399,-3401.7399L13303.9001,-3401.2199L13303.8803,-3401.1269L13303.83,-3400.9468L13303.8101,-3400.8934L13303.7903,-3400.6199"/>
<path content="AP030,1,28,1,0,14,1,8,JPN" xlink:title="AP030" d="M13303.7903,-3400.6199L13303.0576,-3401.2059L13302.4298,-3401.5157L13301.5696,-3401.903L13300.7202,-3402.6596"/>
<path content="AP030,1,28,1,0,14,1,8,JPN" xlink:title="AP030" d="M13356.5796,-3400.193L13356.7703,-3400.3201L13356.8604,-3400.3868L13356.9901,-3400.5001L13357.2205,-3400.8202L13357.0801,-3401.2001"/>
<path content="AP030,1,28,1,0,14,1,8,JPN" xlink:title="AP030" d="M13293.6493,-3400.0996L13293.6493,-3400.0999L13293.7195,-3400.193L13293.8293,-3400.3201L13293.8599,-3400.4398L13293.7195,-3400.8732L13293.7195,-3401.0201L13293.7897,-3401.1799L13294.1498,-3401.9932L13294.2001,-3402.0802L13294.2902,-3402.1935L13294.3298,-3402.2469L13294.3802,-3402.28L13294.6106,-3402.4067L13294.7403,-3402.5665L13294.8303,-3402.6066L13295.0607,-3402.6199L13295.1492,-3402.6798L13295.2393,-3402.7332L13295.3995,-3402.7332L13295.5399,-3402.6798L13295.7703,-3402.6798L13296.6293,-3403.1666L13296.8307,-3403.2867L13297.11,-3403.4534L13297.4503,-3404.0134L13297.8607,-3404.3865L13297.9904,-3404.5334L13298.0392,-3404.6799L13298.0606,-3404.8L13298.0804,-3404.8599L13298.1796,-3404.9465"/>
<path content="AP030,1,28,1,0,15,1,8,JPN" xlink:title="AP030" d="M13289.1769,-3401.165L13291.3589,-3399.4331"/>
<path content="AP030,1,28,1,0,14,1,8,JPN" xlink:title="AP030" d="M13293.6493,-3400.0996L13293.5196,-3399.9199L13293.4296,-3399.7932L13293.4296,-3399.72L13293.4296,-3399.6666L13293.2205,-3399.6532L13293.0801,-3399.6132L13293.0603,-3399.5598L13293.0801,-3399.4865L13293.0405,-3399.4331L13292.8299,-3399.4331L13292.4896,-3399.58L13292.3294,-3399.6532L13292.1799,-3399.6532L13292.0395,-3399.6666L13291.9693,-3399.6532L13291.9296,-3399.58L13291.9907,-3399.5266L13291.9296,-3399.4865L13291.7892,-3399.4331L13291.5207,-3399.4133L13291.3589,-3399.4331"/>
<path content="AP030,1,28,1,0,15,1,8,JPN" xlink:title="AP030" d="M13289.1769,-3401.165L13289.1068,-3400.2125L13289.0625,-3400.206"/>
<path content="AP030,1,28,1,0,15,1,8,JPN" xlink:title="AP030" d="M13300.7202,-3402.6596L13301.4816,-3400.3716L13302.2095,-3399.1417"/>
<path content="AP030,1,28,1,0,14,1,8,JPN" xlink:title="AP030" d="M13356.5796,-3400.193L13356.9702,-3399.8333L13356.9916,-3399.8131L13357.4493,-3399.3999L13357.7194,-3399.2199L13357.8598,-3399.1798L13358.11,-3399.1066L13358.1497,-3399.1066"/>
<path content="AP030,1,28,1,0,15,1,8,JPN" xlink:title="AP030" d="M13357.0801,-3401.2001L13357.5821,-3401.004L13357.7927,-3400.9216L13358.1696,-3399.9008L13358.6105,-3399.0398"/>
<path content="AP030,1,28,1,0,14,1,8,JPN" xlink:title="AP030" d="M13358.1497,-3399.1066L13358.6105,-3399.0398"/>
<path content="AP030,1,28,1,0,16,1,8,JPN" xlink:title="AP030" d="M13359.375,-3399.6782L13359.3094,-3399.4133L13359.1248,-3398.9731"/>
<path content="AP030,1,28,1,0,14,1,8,JPN" xlink:title="AP030" d="M13358.6105,-3399.0398L13358.9005,-3398.9998L13359.1248,-3398.9731"/>
<path content="AP030,1,28,1,0,14,1,8,JPN" xlink:title="AP030" d="M13291.3589,-3399.4331L13291.3605,-3399.2733L13291.1301,-3399.0932L13290.9698,-3398.9468"/>
<path content="AP030,1,28,1,0,15,1,8,JPN" xlink:title="AP030" d="M13289.0625,-3399.3962L13289.4363,-3399.3729L13290.4449,-3399.1989L13290.9698,-3398.9468"/>
<path content="AP030,1,28,1,0,14,1,8,JPN" xlink:title="AP030" d="M13359.1248,-3398.9731L13359.1797,-3398.9666L13359.2896,-3398.9666L13359.375,-3398.9581"/>
<path content="AP030,1,28,1,0,14,1,8,JPN" xlink:title="AP030" d="M13353.9001,-3398.1331L13354.0207,-3398.1934L13354.0604,-3398.2265L13354.2007,-3398.3532L13354.2694,-3398.373L13354.6295,-3398.6401L13355.0598,-3399.0532L13355.3604,-3399.3065L13355.4306,-3399.3465L13355.9006,-3399.7066L13356.5796,-3400.193"/>
<path content="AP030,1,28,1,0,14,1,8,JPN" xlink:title="AP030" d="M13355.2399,-3398.0267L13355.3802,-3398.1533L13355.6503,-3398.3532L13355.9906,-3398.5531L13356.2698,-3398.6065L13356.72,-3398.6198L13356.7703,-3398.6065L13357.2205,-3398.5332L13357.2906,-3398.5332L13357.4905,-3398.5531L13357.7896,-3398.7331L13358.1497,-3399.1066"/>
<path content="AP030,1,28,1,0,15,1,8,JPN" xlink:title="AP030" d="M13293.6493,-3400.0996L13293.5898,-3399.2226L13293.6966,-3398.959L13294.6564,-3398.2773L13295.5688,-3398.5065L13296.3089,-3397.9797L13296.785,-3398.1125L13297.9553,-3397.3431L13298.4329,-3397.4422L13298.6343,-3397.4552L13299.9969,-3397.2397L13300.5081,-3397.4087L13301.3611,-3398.2773L13302.2095,-3399.1417"/>
<path content="AP030,1,28,1,0,15,1,8,JPN" xlink:title="AP030" d="M13335.2463,-3397.2233L13336.0229,-3397.8062L13336.7172,-3397.9382L13337.4588,-3397.7898L13338.0859,-3397.509L13338.6307,-3397.311L13339.061,-3397.4762L13339.8193,-3398.0537L13340.3473,-3398.3841L13340.7928,-3398.4997L13341.1728,-3398.4005L13341.6031,-3398.1197L13341.8503,-3397.8394L13342.0807,-3397.7238L13342.6086,-3397.6742L13343.3685,-3397.7238L13343.6493,-3397.7238L13344.046,-3397.575L13344.4244,-3397.4598L13345.0684,-3397.3934L13345.6635,-3397.377L13346.109,-3397.377L13346.5866,-3397.3442L13347.0657,-3397.2614L13347.4457,-3397.0798L13347.5693,-3396.9631L13347.8104,-3396.7331"/>
<path content="AP030,1,28,1,0,16,1,8,JPN" xlink:title="AP030" d="M13354.184,-3396.7144L13354.6799,-3396.8731L13355.2002,-3397.0398L13355.5206,-3397.1798L13355.7693,-3397.3465L13356.1996,-3397.5067L13356.7703,-3397.5933L13357.2205,-3397.6868L13357.7698,-3397.8867L13357.9697,-3397.9733L13358.5205,-3398.2468L13358.8593,-3398.5332L13359.0607,-3398.8197L13359.1248,-3398.9731"/>
<path content="AP030,1,28,1,0,14,1,8,JPN" xlink:title="AP030" d="M13353.9001,-3398.1331L13353.9703,-3397.953L13354.0131,-3397.8611L13354.0207,-3397.8466L13354.0802,-3397.72L13354.2694,-3397.4331L13354.5807,-3397.253L13354.5593,-3397.0734L13354.5593,-3397.0398L13354.5197,-3396.9997L13354.2007,-3396.9131L13354.1794,-3396.7464L13354.184,-3396.7144"/>
<path content="AP030,1,28,1,0,14,1,8,JPN" xlink:title="AP030" d="M13347.8104,-3396.7331L13347.8607,-3396.7331L13347.9904,-3396.7331L13348.6298,-3396.6801L13349.2905,-3396.5668L13349.6506,-3396.6064L13350.2701,-3396.6599L13350.8606,-3396.7133L13351.5396,-3396.7667L13351.86,-3396.8597L13352.2705,-3397.02L13352.6306,-3397.2198L13353.27,-3397.5597L13353.3096,-3397.6131L13353.3951,-3397.768L13353.4302,-3397.8333L13353.5202,-3397.9198L13353.6804,-3398.0267L13353.9001,-3398.1331"/>
<path content="AP030,1,28,1,0,14,1,8,JPN" xlink:title="AP030" d="M13346.3928,-3396.4085L13346.6507,-3396.5L13346.8307,-3396.5L13347.0596,-3396.5134L13347.8104,-3396.7331"/>
<path content="AP030,1,28,1,0,15,1,8,JPN" xlink:title="AP030" d="M13328.3722,-3396.2955L13329.0512,-3396.7903L13329.5807,-3397.0375L13330.336,-3397.3469L13331.3187,-3397.5323L13331.6956,-3397.7795L13331.9977,-3397.7177L13332.225,-3397.2851L13332.3212,-3396.994L13332.4509,-3396.6049L13332.9041,-3396.7285L13333.5846,-3396.9757L13334.1888,-3397.1615L13334.9457,-3397.2057L13335.2463,-3397.2233"/>
<path content="AP030,1,28,1,0,16,1,8,JPN" xlink:title="AP030" d="M13346.5607,-3395.4666L13346.7697,-3395.4865L13347.7707,-3395.8134L13348.1995,-3395.9L13348.5596,-3395.94L13349.2004,-3395.94L13349.5605,-3395.993L13350.0793,-3396.0464L13351.0406,-3396.08L13351.9302,-3396.2265L13352.7695,-3396.3734L13353.3997,-3396.4066L13353.6301,-3396.4798L13353.6804,-3396.5L13354.0802,-3396.6801L13354.184,-3396.7144"/>
<path content="AP030,1,28,1,0,15,1,8,JPN" xlink:title="AP030" d="M13346.3928,-3396.4085L13346.5607,-3395.4666"/>
<path content="AP030,1,28,1,0,14,1,8,JPN" xlink:title="AP030" d="M13290.9698,-3398.9468L13290.9302,-3398.84L13290.77,-3398.7865L13290.6998,-3398.6797L13290.6799,-3398.5531L13290.7394,-3398.4798L13290.6494,-3398.3532L13290.5197,-3398.1533L13290.3793,-3397.9931L13290.3107,-3397.8333L13290.1993,-3397.5266L13290.1306,-3397.2733L13290.1306,-3397.0734L13290.1505,-3396.9868L13290.3107,-3396.8399L13290.5197,-3396.4066L13290.6097,-3396.2799L13290.8295,-3395.9732L13290.8997,-3395.8668L13290.8997,-3395.8134L13290.8096,-3395.76L13290.8096,-3395.6867L13290.9302,-3395.6131L13290.9897,-3395.5799L13291.0797,-3395.5799L13291.1102,-3395.5265L13291.04,-3395.3999L13290.95,-3395.2732"/>
<path content="AP030,1,28,1,0,14,1,8,JPN" xlink:title="AP030" d="M13352.24,-3395.0001L13352.2202,-3395.0733L13352.33,-3395.1668L13352.3804,-3395.3999L13352.4704,-3395.5799L13352.4902,-3395.7066L13352.5803,-3395.7397L13352.6306,-3395.7066L13352.6505,-3395.5933L13352.6794,-3395.5799L13352.7695,-3395.5933L13352.7695,-3395.7397L13352.8595,-3395.9198L13352.9007,-3395.9198L13352.9694,-3395.8466L13352.9694,-3395.7733L13353.0396,-3395.7397L13353.0594,-3395.76L13353.0594,-3395.8866L13352.9297,-3396.0266L13352.9495,-3396.0464L13352.9907,-3396.0667L13353.1097,-3395.9198L13353.1799,-3395.9198L13353.1494,-3396.1731L13353.3295,-3396.1933L13353.4302,-3396.2799L13353.5202,-3396.2467L13353.5797,-3396.2997L13353.7003,-3396.2467L13353.7704,-3396.2467L13353.83,-3396.3734L13353.8605,-3396.5L13353.8803,-3396.5332L13354.0207,-3396.5L13354.1504,-3396.5L13354.2007,-3396.5866L13354.184,-3396.7144"/>
<path content="AP030,1,28,1,0,14,1,8,JPN" xlink:title="AP030" d="M13339.0793,-3394.64L13339.6103,-3394.8601L13340.1993,-3395.1065L13340.4694,-3395.1065L13341.04,-3395.1267L13341.5405,-3395.2732L13342.0197,-3395.4132L13342.8101,-3395.5933L13343.0801,-3395.6333L13344.0201,-3395.76L13344.3604,-3395.9732L13344.5206,-3396.0667L13344.8807,-3396.0667L13345.4697,-3396.1933L13345.5399,-3396.2067L13346.0205,-3396.2799L13346.1807,-3396.3333L13346.3928,-3396.4085"/>
<path content="AP030,1,28,1,0,15,1,8,JPN" xlink:title="AP030" d="M13335.2463,-3397.2233L13335.3027,-3397.1603L13335.6995,-3396.7285L13335.7605,-3396.6721L13336.0199,-3396.4325L13336.3037,-3396.172L13337.2849,-3396.172L13337.8143,-3395.863L13338.0402,-3395.3064L13338.1165,-3394.812L13339.0793,-3394.64"/>
<path content="AP030,1,28,1,0,14,1,4,JPN" xlink:title="AP030" d="M13352.24,-3395.0001L13352.5803,-3394.3531L13353.0197,-3393.6131"/>
<path content="AP030,1,28,1,0,14,1,8,JPN" xlink:title="AP030" d="M13329.7394,-3393.4868L13330.0201,-3393.56L13330.2002,-3393.6131L13330.3101,-3393.6333L13330.7205,-3393.6531L13331.3797,-3393.7199L13331.6803,-3393.7599L13331.81,-3393.7733L13332.3807,-3393.8465L13332.6492,-3393.8866L13333.3801,-3393.9198L13333.7692,-3394.12L13333.8593,-3394.12L13334.0805,-3394.3199L13334.7,-3394.3199L13335.2707,-3394.1532L13336.2,-3393.8465L13336.3602,-3393.7401L13336.5402,-3393.6333L13336.6501,-3393.6131L13336.7706,-3393.6665L13336.8301,-3393.7599L13337.3795,-3394.2265L13337.5793,-3394.3733L13337.7701,-3394.4065L13337.8799,-3394.4065L13338.5193,-3394.4401L13338.9893,-3394.6068L13339.0793,-3394.64"/>
<path content="AP030,1,28,1,0,15,1,8,JPN" xlink:title="AP030" d="M13328.3722,-3396.2955L13328.9001,-3394.812L13329.1321,-3394.4057L13329.4296,-3393.8847L13329.7394,-3393.4868"/>
<path content="AP030,1,28,1,0,14,1,8,JPN" xlink:title="AP030" d="M13303.7903,-3400.6199L13303.8231,-3400.4093L13303.9064,-3400.2209L13304.0254,-3400.0524L13304.2206,-3399.8131L13304.4296,-3399.5934L13304.6494,-3399.4133L13304.9301,-3399.2733L13305.1804,-3399.1467L13305.22,-3399.0398L13305.2399,-3398.9132L13305.2399,-3398.8197L13305.2704,-3398.4798L13305.3101,-3398.3532L13305.3604,-3398.1934L13305.4901,-3398.0999L13305.8105,-3397.9401L13305.8807,-3397.8867L13305.9692,-3397.5933L13306.0394,-3397.253L13306.1798,-3396.9666L13306.3599,-3396.7133L13306.3995,-3396.6599L13307.2906,-3395.9L13307.7194,-3395.4666L13307.7698,-3395.38L13307.8995,-3395.0531L13308.0597,-3394.733L13308.3298,-3393.9732L13308.4305,-3393.8332L13308.4503,-3393.8133L13308.6105,-3393.6867L13308.7692,-3393.5398L13309.0195,-3393.3266"/>
<path content="AP030,1,28,1,0,15,1,8,JPN" xlink:title="AP030" d="M13320.99,-3393.1801L13322.1786,-3393.7611L13323.1598,-3394.1936L13324.2172,-3394.1319L13324.4446,-3394.3172L13325.4257,-3394.6262L13325.8789,-3394.7502L13326.6632,-3395.8313L13328.3722,-3396.2955"/>
<path content="AP030,1,28,1,0,14,1,8,JPN" xlink:title="AP030" d="M13320.3598,-3393.1465L13320.4895,-3393.1801L13320.6299,-3393.1801L13320.99,-3393.1801"/>
<path content="AP030,1,28,1,0,14,1,4,JPN" xlink:title="AP030" d="M13290.95,-3395.2732L13290.8997,-3395.2198L13289.83,-3393.1267"/>
<path content="AP030,1,28,1,0,15,1,8,JPN" xlink:title="AP030" d="M13319.6732,-3392.9897L13320.3598,-3393.1465"/>
<path content="AP030,1,28,1,0,14,1,8,JPN" xlink:title="AP030" d="M13352.5803,-3392.4267L13352.6794,-3392.5667L13352.7893,-3392.5533L13352.9694,-3392.5331L13353.1998,-3392.6598L13353.3295,-3392.6598L13353.4302,-3392.5533L13353.6102,-3392.5331L13353.8605,-3392.4999L13354.0802,-3392.5331L13354.2892,-3392.6933L13354.3304,-3392.6933L13354.3793,-3392.5865L13354.5197,-3392.4599L13354.6494,-3392.4999L13354.6295,-3392.5667L13354.6097,-3392.7334L13354.6295,-3392.9268L13354.5197,-3393.0401L13354.6097,-3393.0733L13354.7699,-3393.0733L13355.1102,-3393.3067L13355.2704,-3393.3067L13355.2902,-3393.3598L13355.2002,-3393.4666L13355.4901,-3393.6333L13355.5801,-3393.5932L13355.7693,-3393.6531L13355.8105,-3393.6333L13355.8594,-3393.5799L13355.9006,-3393.5799L13355.9296,-3393.4868L13355.9494,-3393.4666L13356.1493,-3393.4334L13356.2897,-3393.4868L13356.4301,-3393.5265L13356.5201,-3393.4868L13356.6101,-3393.4868L13356.7001,-3393.3468L13356.7703,-3393.2865L13356.8802,-3393.2732L13356.9305,-3393.1999L13356.9702,-3393.1999L13356.9901,-3393.4132L13357.0404,-3393.4532L13357.1793,-3393.2865L13357.5607,-3393.3266L13357.7698,-3393.3468L13357.7896,-3393.7733L13357.6996,-3393.8465L13357.6996,-3393.8866L13357.93,-3393.9533L13358.0795,-3394.1334L13358.0399,-3394.26L13358.2397,-3394.3531L13358.6105,-3394.3531L13358.9294,-3394.5L13358.9905,-3394.4798L13359.0393,-3394.4599L13359.1507,-3394.3867L13359.3094,-3394.3733L13359.375,-3394.3662"/>
<path content="AP030,1,28,1,0,14,1,8,JPN" xlink:title="AP030" d="M13353.0197,-3393.6131L13353.0396,-3393.4532L13353.0807,-3393.3998L13353.1998,-3393.4334L13353.4302,-3393.2865L13353.4302,-3393.2533L13353.3997,-3393.2331L13353.0807,-3393.2533L13352.9495,-3393.2865L13352.9007,-3393.1999L13352.8305,-3393.1667L13352.8305,-3393.1065L13352.8793,-3393.0531L13352.8107,-3393.0199L13352.6794,-3393.1065L13352.4902,-3393.0931L13352.4704,-3393.0401L13352.3102,-3392.9268L13352.3102,-3392.7467L13352.33,-3392.6067L13352.4307,-3392.4999L13352.5803,-3392.4267"/>
<path content="AP030,1,28,1,0,16,1,8,JPN" xlink:title="AP030" d="M13303.7903,-3400.6199L13303.6,-3399.622L13303.62,-3399.389L13303.68,-3399.118L13303.94,-3398.853L13304.37,-3398.559L13304.88,-3398.045L13305.34,-3397.441L13305.81,-3396.722L13306.1,-3395.969L13306.26,-3395.499L13306.38,-3395.095L13306.48,-3394.27L13306.58,-3393.617L13306.69,-3392.942L13306.77,-3392.499L13306.8421,-3392.1888"/>
<path content="AP030,1,28,1,0,15,1,8,JPN" xlink:title="AP030" d="M13302.2095,-3399.1417L13303.1265,-3397.5918L13305.4611,-3394.2043L13306.8421,-3392.1888"/>
<path content="AP030,1,28,1,0,15,1,8,JPN" xlink:title="AP030" d="M13316.3605,-3391.9933L13318.1747,-3392.6479L13319.6732,-3392.9897"/>
<path content="AP030,1,28,1,0,14,1,8,JPN" xlink:title="AP030" d="M13320.99,-3393.1801L13321.4294,-3393.1999L13321.7697,-3393.1667L13321.9696,-3393.0531L13322.2,-3392.8734L13322.3099,-3392.7334L13322.4899,-3392.5133L13322.7936,-3392.207L13322.8806,-3392.12L13323.3597,-3391.9201"/>
<path content="AP030,1,28,1,0,14,1,8,JPN" xlink:title="AP030" d="M13323.3597,-3391.9201L13323.4695,-3391.9399L13323.8602,-3391.9201L13323.8998,-3391.9201L13324.3301,-3391.9933L13324.6994,-3392.0467L13325.1099,-3392.12L13325.2899,-3392.1932L13325.4501,-3392.2798L13325.6805,-3392.3866L13326.2207,-3392.6067L13326.3107,-3392.6399L13327.9297,-3393.0401L13328.45,-3393.1801L13328.9902,-3393.3266L13329.7394,-3393.4868"/>
<path content="AP030,1,28,1,0,15,1,8,JPN" xlink:title="AP030" d="M13316.1301,-3391.8865L13319.6198,-3392.3054L13319.6732,-3392.9897"/>
<path content="AP030,1,28,1,0,16,1,8,JPN" xlink:title="AP030" d="M13316.1301,-3391.8865L13316.2704,-3391.9399L13316.3605,-3391.9933"/>
<path content="AP030,1,28,1,0,15,1,8,JPN" xlink:title="AP030" d="M13309.0195,-3393.3266L13310.1379,-3393.8473L13312.3474,-3391.8751"/>
<path content="AP030,1,28,1,0,15,1,8,JPN" xlink:title="AP030" d="M13309.0195,-3393.3266L13308.3725,-3392.823L13308.371,-3392.8219L13307.1997,-3391.667"/>
<path content="AP030,1,28,1,0,15,1,8,JPN" xlink:title="AP030" d="M13306.8421,-3392.1888L13307.1997,-3391.667"/>
<path content="AP030,1,28,1,0,16,1,8,JPN" xlink:title="AP030" d="M13331.0593,-3391.56L13331.2393,-3391.6866L13331.4301,-3391.8133L13331.7398,-3392.0265L13331.8802,-3392.12L13332.2403,-3392.3531L13332.5394,-3392.4801L13333.3298,-3392.68L13333.7906,-3392.7334L13334.3994,-3392.7666L13334.7198,-3392.7998L13335.08,-3392.8932L13335.3302,-3392.9665L13335.6094,-3393L13335.7407,-3393.0401L13336.3297,-3393.1267L13337.1094,-3393.38L13337.2696,-3393.3998L13337.5595,-3393.4132L13337.8601,-3393.5265L13338.6307,-3393.8866L13338.8306,-3393.94L13339.1098,-3393.9934L13339.4501,-3394.0266L13340.2206,-3394.1532L13341.4703,-3394.4599L13341.9907,-3394.5534L13342.2897,-3394.6598L13342.7902,-3394.82L13343.1793,-3394.8933L13343.6493,-3394.9467L13344.1803,-3395.1267L13344.4305,-3395.1668L13345.61,-3395.3465L13346.2402,-3395.433L13346.5607,-3395.4666"/>
<path content="AP030,1,28,1,0,16,1,4,JPN" xlink:title="AP030" d="M13330.5801,-3391.5398L13331.0593,-3391.56"/>
<path content="AP030,1,28,1,0,15,1,8,JPN" xlink:title="AP030" d="M13329.7394,-3393.4868L13330.1086,-3392.5861L13330.2612,-3392.0918L13330.5801,-3391.5398"/>
<path content="AP030,1,28,1,0,16,1,4,JPN" xlink:title="AP030" d="M13329.6494,-3391.5398L13330.5801,-3391.5398"/>
<path content="AP030,1,28,1,0,15,1,8,JPN" xlink:title="AP030" d="M13307.1997,-3391.667L13307.0194,-3391.5058"/>
<path content="AP030,1,28,1,0,16,1,8,JPN" xlink:title="AP030" d="M13306.8421,-3392.1888L13306.9,-3391.94L13307.0194,-3391.5058"/>
<path content="AP030,1,28,1,0,16,1,8,JPN" xlink:title="AP030" d="M13312.3474,-3391.8751L13313.15,-3391.4867L13313.2202,-3391.4665L13313.2904,-3391.4532L13313.5406,-3391.4532L13315.0803,-3391.7065L13316.1301,-3391.8865"/>
<path content="AP030,1,28,1,0,14,1,8,JPN" xlink:title="AP030" d="M13289.83,-3393.1267L13289.5599,-3393.0199L13289.18,-3392.7132L13289.0793,-3392.6067L13289.0625,-3392.5868"/>
<path content="AP030,1,28,1,0,14,1,8,JPN" xlink:title="AP030" d="M13319.8303,-3391.04L13320.1492,-3391.18L13320.9702,-3391.2865L13321.2006,-3391.3597L13321.6995,-3391.5264L13321.8796,-3391.6866L13322.4304,-3391.7732L13322.8302,-3391.8465L13323.3597,-3391.9201"/>
<path content="AP030,1,28,1,0,15,1,8,JPN" xlink:title="AP030" d="M13320.99,-3393.1801L13320.2896,-3392.5243L13320.1385,-3391.8442L13320.0989,-3391.7416L13319.8303,-3391.04"/>
<path content="AP030,1,28,1,0,15,1,8,JPN" xlink:title="AP030" d="M13311.0596,-3391.0198L13311.6028,-3391.4734L13312.3474,-3391.8751"/>
<path content="AP030,1,28,1,0,14,1,8,JPN" xlink:title="AP030" d="M13309.0195,-3393.3266L13309.2896,-3393.0931L13309.3597,-3393.0199L13309.6802,-3392.7666L13309.79,-3392.4065L13310.0601,-3392.0799L13310.1105,-3392.0467L13310.4004,-3391.7198L13310.4507,-3391.6531L13310.5392,-3391.5264L13311.0596,-3391.0198"/>
<path content="AP030,1,28,1,0,14,1,8,JPN" xlink:title="AP030" d="M13311.0596,-3391.0198L13311.1801,-3390.9134"/>
<path content="AP030,1,28,1,0,15,1,8,JPN" xlink:title="AP030" d="M13311.1801,-3390.9134L13312.4924,-3391.1392L13312.9044,-3390.8756L13315.8661,-3391.0656L13316.1301,-3391.8865"/>
<path content="AP030,1,28,1,0,16,1,8,JPN" xlink:title="AP030" d="M13322.5601,-3390.9466L13322.9294,-3391.0732L13323.2407,-3391.1266L13323.5794,-3391.18L13323.6298,-3391.18L13324.2004,-3391.1266L13325.1297,-3390.913L13325.4501,-3390.86L13325.7401,-3390.8199L13325.9293,-3390.7867L13326.2207,-3390.7867L13326.4893,-3390.8398L13327.3102,-3391.1064L13327.9297,-3391.2533L13328.7704,-3391.4665L13329.6494,-3391.5398"/>
<path content="AP030,1,28,1,0,16,1,4,JPN" xlink:title="AP030" d="M13321.2006,-3390.6597L13321.5195,-3390.6799L13321.8094,-3390.7131L13322.11,-3390.7867L13322.5601,-3390.9466"/>
<path content="AP030,1,28,1,0,15,1,8,JPN" xlink:title="AP030" d="M13307.0194,-3391.5058L13305.6237,-3390.2571"/>
<path content="AP030,1,28,1,0,14,1,8,JPN" xlink:title="AP030" d="M13319.8303,-3391.04L13319.6106,-3390.9466L13319.1803,-3390.7867L13318.7393,-3390.6067L13318.6798,-3390.5666L13318.6493,-3390.5132L13318.6096,-3390.4266L13318.5593,-3390.3732L13318.3594,-3390.1333"/>
<path content="AP030,1,28,1,0,15,1,8,JPN" xlink:title="AP030" d="M13349.5972,-3390.2367L13349.9756,-3390.0513L13350.2777,-3390.0513L13350.8057,-3390.4224L13351.6373,-3390.855L13352.1652,-3391.2876L13352.4673,-3391.597L13352.5803,-3392.4267"/>
<path content="AP030,1,28,1,0,16,1,8,JPN" xlink:title="AP030" d="M13319.9493,-3389.9399L13320.0195,-3390.0799L13320.1797,-3390.3198L13320.3293,-3390.4598L13320.6802,-3390.5865L13321.08,-3390.6399L13321.2006,-3390.6597"/>
<path content="AP030,1,28,1,0,14,1,8,JPN" xlink:title="AP030" d="M13310.4706,-3389.5931L13310.7407,-3389.7732L13310.7697,-3389.793L13310.8292,-3389.8647L13310.9497,-3390.0131L13311.1801,-3390.5865L13311.1801,-3390.7131L13311.1801,-3390.913L13311.1801,-3390.9134"/>
<path content="AP030,1,28,1,0,14,1,8,JPN" xlink:title="AP030" d="M13310.4706,-3389.5931L13310.8994,-3389.6133L13311.0397,-3389.6133L13311.1496,-3389.6133L13311.6302,-3389.5931L13311.6806,-3389.5931L13312.2696,-3389.5931L13312.3795,-3389.5798L13312.9303,-3389.5065L13313.1805,-3389.5065L13314.0198,-3389.4867L13314.2395,-3389.4867L13315.6296,-3389.4333L13315.7196,-3389.4333L13316.4703,-3389.4665L13316.8106,-3389.5798L13316.9495,-3389.6133L13318.1793,-3389.92L13318.3594,-3390.1333"/>
<path content="AP030,1,28,1,0,16,1,4,JPN" xlink:title="AP030" d="M13319.4901,-3389.0198L13319.5602,-3389.1266L13319.9493,-3389.9399"/>
<path content="AP030,1,28,1,0,14,1,8,JPN" xlink:title="AP030" d="M13308.6197,-3388.916L13309.1293,-3389.3066L13309.4696,-3389.4333L13309.79,-3389.5397L13310.2905,-3389.5931L13310.3607,-3389.5931L13310.4706,-3389.5931"/>
<path content="AP030,1,28,1,0,16,1,8,JPN" xlink:title="AP030" d="M13307.0194,-3391.5058L13307.04,-3391.431L13307.1624,-3390.9819L13307.2902,-3390.6583L13307.4493,-3390.1932L13307.5607,-3389.9933L13308.5403,-3389.0732L13308.6197,-3388.916"/>
<path content="AP030,1,28,1,0,14,1,8,JPN" xlink:title="AP030" d="M13318.3594,-3390.1333L13318.7393,-3389.92L13319.0399,-3389.7732L13319.1803,-3389.6332L13319.2398,-3389.4531L13319.2001,-3389.2731L13318.8599,-3389.0198L13318.5806,-3388.8931L13318.5593,-3388.8733L13318.3304,-3388.6398L13318.1793,-3388.4739"/>
<path content="AP030,1,28,1,0,16,1,8,JPN" xlink:title="AP030" d="M13317.4301,-3388.5864L13317.6804,-3388.5532L13318.1305,-3388.48L13318.1793,-3388.4739"/>
<path content="AP030,1,28,1,0,16,1,8,JPN" xlink:title="AP030" d="M13318.1793,-3388.4739L13318.4494,-3388.4399L13318.8599,-3388.4998L13319.2398,-3388.7131L13319.4901,-3389.0198"/>
<path content="AP030,1,28,1,0,16,1,8,JPN" xlink:title="AP030" d="M13308.6197,-3388.916L13308.9493,-3388.2599"/>
<path content="AP030,1,28,1,0,14,1,8,JPN" xlink:title="AP030" d="M13307.6492,-3388.1733L13307.8995,-3388.2797L13308.2901,-3388.62L13308.4503,-3388.7867L13308.6197,-3388.916"/>
<path content="AP030,1,28,1,0,15,1,8,JPN" xlink:title="AP030" d="M13305.6237,-3390.2571L13307.6492,-3388.1733"/>
<path content="AP030,1,28,1,0,16,1,8,JPN" xlink:title="AP030" d="M13308.9493,-3388.2599L13309.3094,-3388.3533L13309.8999,-3388.4598L13310.3607,-3388.48L13310.6995,-3388.3865L13311.1801,-3388.2797L13311.8607,-3388.1733L13312.1094,-3388.1733L13312.97,-3388.3331L13313.6795,-3388.4598L13314.1495,-3388.4998L13314.6103,-3388.5132L13314.8804,-3388.533L13315.4007,-3388.5666L13315.5594,-3388.5666L13316.2201,-3388.5864L13316.4307,-3388.5864L13317.0395,-3388.5864L13317.4301,-3388.5864"/>
<path content="AP030,1,28,1,0,15,1,8,JPN" xlink:title="AP030" d="M13349.5972,-3390.2367L13349.5331,-3389.5821L13349.6933,-3389.2326L13349.7894,-3388.628L13349.9588,-3388.1714L13350.1419,-3388.039L13350.2487,-3387.3268L13350.531,-3387.0567L13350.9583,-3387.0831L13351.0498,-3387.5198L13351.4725,-3387.6171L13351.8265,-3387.4954"/>
<path content="AP030,1,28,1,0,14,1,8,JPN" xlink:title="AP030" d="M13301.4297,-3385.6133L13301.5594,-3385.6533L13301.86,-3385.7067L13302.3804,-3385.7731L13302.5803,-3385.8131L13303.0807,-3385.8868L13303.36,-3385.8997L13303.54,-3386.013L13303.6102,-3386.0664L13303.9703,-3386.2267L13304.1794,-3386.3331L13304.7195,-3386.5868L13304.7394,-3386.6199L13305.22,-3387.0399L13305.7404,-3387.22L13306.4301,-3387.6667L13306.8802,-3387.833L13307.3807,-3388.0665L13307.6492,-3388.1733"/>
<path content="AP030,1,28,1,0,15,1,8,JPN" xlink:title="AP030" d="M13305.6237,-3390.2571L13305.4657,-3390.1157L13304.9011,-3388.4842L13304.2358,-3387.9196L13303.688,-3386.9026L13302.9053,-3386.6219L13301.2772,-3386.1477L13301.4297,-3385.6133"/>
<path content="AP030,1,28,1,0,14,1,8,JPN" xlink:title="AP030" d="M13301.12,-3385.3268L13301.2405,-3385.453L13301.4297,-3385.6133"/>
<path content="AP030,1,28,1,0,16,1,8,JPN" xlink:title="AP030" d="M13301.12,-3385.3268L13301.4694,-3385.3268L13302.33,-3385.4668L13302.7893,-3385.5064L13303.83,-3385.54L13304.1306,-3385.593L13304.6494,-3385.92L13305.4901,-3386.6066L13305.8594,-3386.8599L13306.2698,-3387.0533L13307.0404,-3387.3066L13307.2006,-3387.36L13307.6294,-3387.4866L13307.7896,-3387.5401L13308.02,-3387.7197L13308.4503,-3388.0665L13308.7204,-3388.2065L13308.9493,-3388.2599"/>
<path content="AP030,1,28,1,0,15,1,8,JPN" xlink:title="AP030" d="M13330.5801,-3391.5398L13331.0913,-3390.7314L13331.2424,-3389.5569L13331.1676,-3388.5056L13330.9402,-3387.9494L13330.1849,-3387.1456L13329.5044,-3386.7126L13328.6743,-3386.5891L13328.2211,-3386.4037L13328.2959,-3386.2183L13328.447,-3386.0947L13328.447,-3385.8471L13328.0701,-3385.7235L13327.919,-3385.4763L13328.2211,-3385.2287L13328.447,-3384.9197L13328.447,-3384.549L13328.447,-3384.2396L13328.6743,-3384.0542L13329.2023,-3384.0542L13330.0339,-3383.9924L13331.0165,-3383.807L13331.9229,-3383.6834L13332.4509,-3383.4358L13332.9803,-3383.4358L13333.4335,-3383.6834L13333.6594,-3384.6107L13333.8104,-3384.8579L13334.3399,-3384.9815L13335.7742,-3384.8579L13336.7569,-3384.6107L13337.9395,-3384.2014L13339.1739,-3384.7961L13339.7781,-3385.2287L13340.5334,-3385.5381L13341.2888,-3385.9707L13341.9678,-3386.0947L13342.5735,-3386.1565L13343.1015,-3386.0329L13344.1589,-3385.7853L13344.6884,-3385.6617L13345.2164,-3385.7235L13345.8969,-3385.5999L13346.3501,-3385.5999L13346.8033,-3385.8471L13346.8033,-3386.2801L13346.9543,-3386.7744L13347.4823,-3386.9598L13347.8607,-3387.2074L13347.7844,-3387.64L13347.7844,-3388.1348L13347.8607,-3388.6292L13348.3887,-3389.8659L13348.9182,-3390.6078L13349.144,-3390.6078L13349.5972,-3390.2367"/>
<path content="AP030,1,28,1,0,16,1,8,JPN" xlink:title="AP030" d="M13297.3602,-3382.6065L13297.5601,-3382.7133L13297.8104,-3382.84L13298.0194,-3382.9865L13298.3994,-3383.3065L13298.4894,-3383.4L13298.6496,-3383.7399L13298.8998,-3384.0797L13299.2203,-3384.4398L13299.3607,-3384.5867L13299.4904,-3384.6931L13299.6796,-3384.8598L13299.9496,-3385.1467L13300.0198,-3385.1799L13300.3601,-3385.3065L13300.7706,-3385.3268L13301.12,-3385.3268"/>
<path content="AP030,1,28,1,0,15,1,8,JPN" xlink:title="AP030" d="M13317.4301,-3388.5864L13316.7145,-3387.8399L13316.3116,-3387.4699L13315.4572,-3387.3463L13314.7034,-3387.3051L13314.3005,-3387.0171L13314.0503,-3386.6058L13314.3509,-3385.9886L13314.7034,-3385.0426L13314.7034,-3384.343L13314.4012,-3383.7673L13314.151,-3383.6437L13313.8489,-3383.3969L13313.5468,-3383.0269L13312.9944,-3382.4921L13312.8433,-3382.1629"/>
<path content="AP030,1,28,1,0,16,1,4,JPN" xlink:title="AP030" d="M13297.3602,-3382.6065L13296.6095,-3382.1732L13296.1502,-3381.8867"/>
<path content="AP030,1,28,1,0,15,1,8,JPN" xlink:title="AP030" d="M13309.993,-3381.2641L13310.0525,-3381.3866L13310.7269,-3381.7863L13311.203,-3382.4112L13311.467,-3382.6363L13311.9934,-3382.3433L13312.8433,-3382.1629"/>
<path content="AP030,1,28,1,0,15,1,8,JPN" xlink:title="AP030" d="M13312.8433,-3382.1629L13313.0447,-3381.916L13313.446,-3381.5044L13313.9999,-3381.1344"/>
<path content="AP030,1,28,1,0,15,1,8,JPN" xlink:title="AP030" d="M13292.1066,-3386.1923L13291.2308,-3386.4391L13289.83,-3385.8047L13289.3448,-3385.3664L13289.4394,-3384.7973L13289.6576,-3384.2022L13289.9445,-3382.901L13289.798,-3381.8756L13289.0625,-3380.7771"/>
<path content="AP030,1,28,1,0,14,1,8,JPN" xlink:title="AP030" d="M13318.1793,-3388.4739L13318.0206,-3388.2999L13317.5201,-3387.7731L13317.4301,-3387.6534L13317.4896,-3387.5065L13317.6804,-3387.1067L13317.8604,-3386.9667L13317.9703,-3386.8931L13318.0206,-3386.8599L13318.2404,-3386.7332L13318.3594,-3386.6798L13318.4692,-3386.5665L13318.5806,-3386.5665L13318.8095,-3386.6066L13318.9896,-3386.6398L13319.0796,-3386.6199L13319.2703,-3386.3533L13319.3604,-3386.153L13319.3298,-3385.9398L13319.4901,-3385.8131L13319.5206,-3385.593L13319.6106,-3385.453L13319.6793,-3385.3798L13319.8105,-3385.2333L13319.8593,-3385.1997L13319.9905,-3385.0533L13319.9905,-3384.8198L13320.0195,-3384.7668L13320.1096,-3384.7466L13320.1797,-3384.7866L13320.1996,-3384.8598L13320.2698,-3384.9133L13320.3598,-3384.9266L13320.3995,-3384.9667L13320.4697,-3384.9865L13320.5597,-3384.9667L13320.6299,-3384.84L13320.6802,-3384.8L13320.7397,-3384.7332L13320.8603,-3384.7134L13320.9,-3384.7134L13321.0602,-3384.7466L13321.1807,-3384.7668L13321.2692,-3384.8L13321.4005,-3384.7866L13321.4905,-3384.7668L13321.5195,-3384.6931L13321.6095,-3384.5867L13321.6995,-3384.4997L13321.7194,-3384.3533L13321.7896,-3384.2598L13321.8307,-3384.1198L13321.9299,-3384.0267L13322.0398,-3383.9531L13322.1298,-3383.6864L13322.2198,-3383.5934L13322.3801,-3383.54L13322.6807,-3383.4866L13322.9294,-3383.3065L13323.0804,-3383.1264L13323.1796,-3383.0933L13323.2895,-3383.0734L13323.3307,-3382.9998L13323.2895,-3382.9666L13323.2697,-3382.8934L13323.3093,-3382.7667L13323.3597,-3382.5535L13323.3307,-3382.32L13323.4299,-3382.1533L13323.4299,-3382.0667L13323.3994,-3381.9733L13323.2407,-3381.6666L13323.2193,-3381.5067L13323.2697,-3381.4533L13323.3569,-3381.2435L13323.4709,-3381.077L13323.5754,-3380.9659L13323.7559,-3380.847L13324.041,-3380.7042L13324.288,-3380.5773L13324.4977,-3380.5201"/>
<path content="AP030,1,28,1,0,15,1,8,JPN" xlink:title="AP030" d="M13355.4947,-3381.2153L13355.5099,-3381.0387L13355.513,-3380.8205L13355.5206,-3380.7255L13355.2078,-3379.9965"/>
<path content="AP030,1,28,1,0,14,1,8,JPN" xlink:title="AP030" d="M13289.0625,-3380.4955L13289.36,-3380.4268L13289.6103,-3380.3532L13289.8605,-3380.2265L13289.9902,-3380.0667L13290.1093,-3379.9534L13290.2695,-3379.7932"/>
<path content="AP030,1,28,1,0,14,1,4,JPN" xlink:title="AP030" d="M13324.4977,-3380.5201L13324.7535,-3380.4504L13327.2237,-3379.9587L13328.4302,-3379.6811L13328.995,-3379.5084"/>
<path content="AP030,1,28,1,0,16,1,8,JPN" xlink:title="AP030" d="M13292.8406,-3379.3999L13293.1793,-3379.6665L13293.4494,-3379.94L13293.7393,-3380.0667L13294.1299,-3380.1933L13294.2902,-3380.3333L13294.5206,-3380.6065L13294.7906,-3380.9467L13294.9295,-3381.0398L13295.2896,-3381.2332L13295.5795,-3381.4865L13296.0205,-3381.8134L13296.1502,-3381.8867"/>
<path content="AP030,1,28,1,0,14,1,8,JPN" xlink:title="AP030" d="M13294.9707,-3379.5933L13295.1294,-3379.5799L13295.3293,-3379.5933L13295.4498,-3379.5799L13295.61,-3379.4533L13295.8099,-3379.3999L13296.0403,-3379.4533L13296.2006,-3379.5799L13296.3593,-3379.7066L13296.4905,-3379.8332L13296.6293,-3379.9732L13296.7194,-3380.0266L13296.9299,-3380.2799L13296.9894,-3380.4798L13297.0596,-3380.5668L13297.3297,-3380.7331L13297.4899,-3380.9132L13297.6105,-3380.9998L13297.8607,-3381.0532L13297.9294,-3381.1268L13297.9507,-3381.2534L13297.9507,-3381.3065L13297.9507,-3381.3801L13298.0194,-3381.5266L13298.1995,-3381.6666L13298.2697,-3381.76L13298.2193,-3381.8665L13298.1506,-3381.9733L13298.1094,-3382.0999L13298.1995,-3382.2266L13298.2697,-3382.3334L13298.5199,-3382.4066L13298.8098,-3382.5134L13298.88,-3382.6065L13298.97,-3382.7465L13299.1104,-3382.8598L13299.1806,-3382.9865L13299.1104,-3383.0399L13299.0204,-3383.1066L13299.0601,-3383.2199L13299.0601,-3383.2733L13298.9899,-3383.3466L13299.0601,-3383.54L13299.1806,-3383.8665L13299.3607,-3384.1331L13299.4507,-3384.2598L13299.5804,-3384.333L13299.6307,-3384.3731L13299.6796,-3384.3731L13299.9298,-3384.3731L13300.0793,-3384.5333L13300.2197,-3384.7332L13300.1999,-3384.84L13300.1801,-3385.0201L13300.3098,-3385.0933L13300.5798,-3385.1265L13300.8301,-3385.1467L13301.0193,-3385.22L13301.12,-3385.3268"/>
<path content="AP030,1,28,1,0,14,1,8,JPN" xlink:title="AP030" d="M13292.8406,-3379.3999L13293.1503,-3379.3598L13293.9697,-3379.3465L13294.1299,-3379.3598L13294.4,-3379.5265L13294.7006,-3379.5799L13294.8593,-3379.5933L13294.9707,-3379.5933"/>
<path content="AP030,1,28,1,0,14,1,8,JPN" xlink:title="AP030" d="M13290.2695,-3379.7932L13290.2893,-3379.7733L13290.4694,-3379.6867L13290.5594,-3379.6532L13290.6998,-3379.5799L13290.8798,-3379.5067L13290.95,-3379.4533L13291.1102,-3379.3598L13291.2399,-3379.3266L13291.4001,-3379.3465L13291.4902,-3379.3999L13291.5405,-3379.4334L13291.6794,-3379.5399L13291.7892,-3379.5067L13291.8106,-3379.5067L13292.1295,-3379.4334L13292.5201,-3379.4334L13292.5797,-3379.4334L13292.8406,-3379.3999"/>
<path content="AP030,1,28,1,0,16,1,8,JPN" xlink:title="AP030" d="M13289.0625,-3378.8661L13289.1998,-3378.8933L13289.5203,-3378.9997L13290.0406,-3379.3064L13290.2893,-3379.3999L13290.4297,-3379.4334L13290.6998,-3379.3999L13291.1102,-3379.2332L13291.8106,-3379.0531L13292.0395,-3379.0398L13292.3996,-3379.0932L13292.5598,-3379.2198L13292.7902,-3379.3598L13292.8406,-3379.3999"/>
<path content="AP030,1,28,1,0,15,1,8,JPN" xlink:title="AP030" d="M13289.0625,-3378.9405L13289.6225,-3379.3652L13290.2695,-3379.7932"/>
<path content="AP030,1,28,1,0,15,1,8,JPN" xlink:title="AP030" d="M13339.7202,-3383.53L13341.6473,-3383.0849L13343.042,-3382.6069L13343.187,-3381.7837L13345.2301,-3380.0083L13347.049,-3378.2043"/>
<path content="AP030,1,28,1,0,15,1,8,JPN" xlink:title="AP030" d="M13354.9789,-3379.1443L13355.2094,-3378.7487L13355.3833,-3378.6362L13355.4443,-3378.4901L13355.6,-3377.6394"/>
<path content="AP030,1,28,1,0,14,1,8,JPN" xlink:title="AP030" d="M13328.995,-3379.5084L13329.1107,-3379.4533L13329.2892,-3379.2534L13329.3106,-3379.1065L13329.4296,-3378.9867L13329.4495,-3378.8933L13329.6295,-3378.7998L13329.7394,-3378.6934L13329.9301,-3378.5866L13330.04,-3378.5667L13330.1804,-3378.5332L13330.2902,-3378.4599L13330.5206,-3378.3199L13330.7404,-3378.0998L13330.8105,-3377.9732L13330.8304,-3377.7599L13330.9296,-3377.6531L13330.9296,-3377.5799L13330.8594,-3377.4666L13330.8807,-3377.38L13330.8807,-3377.3067L13331.0196,-3377.2533L13331.2698,-3377.1667L13331.4697,-3377.2198L13331.7001,-3377.3067L13331.7703,-3377.3266L13331.9504,-3377.1797"/>
<path content="AP030,1,28,1,0,15,1,8,JPN" xlink:title="AP030" d="M13332.8094,-3376.3866L13333.9035,-3376.7616L13335.321,-3377.969L13336.3708,-3378.8509L13336.9659,-3379.2919L13337.3627,-3379.5238L13337.9593,-3379.5704L13338.4125,-3379.5471L13339.093,-3379.2221L13339.4058,-3378.9204L13339.6042,-3378.7811L13340.1138,-3378.7811L13340.6525,-3378.735L13341.1072,-3378.5725L13341.8442,-3378.5027L13343.2053,-3378.4561L13344.2825,-3378.41L13344.6793,-3378.2703L13345.2759,-3377.9919L13345.8145,-3377.969L13346.3242,-3377.9457L13347.049,-3378.2043"/>
<path content="AP030,1,28,1,0,14,1,4,JPN" xlink:title="AP030" d="M13332.8094,-3376.3866L13332.6096,-3376.6933L13332.2906,-3376.9264L13331.9504,-3377.1797"/>
<path content="AP030,1,28,1,0,14,1,4,JPN" xlink:title="AP030" d="M13332.8293,-3376.2466L13332.8094,-3376.3332L13332.8094,-3376.3866"/>
<path content="AP030,1,28,1,0,14,1,8,JPN" xlink:title="AP030" d="M13357.2503,-3375L13357.3593,-3375.0935L13357.5394,-3375.2731L13358.0795,-3375.5264L13358.7402,-3375.8667L13358.8806,-3375.8865L13359.0195,-3375.8667L13359.1293,-3375.6866L13359.2697,-3375.5798L13359.2896,-3375.56L13359.375,-3375.5396"/>
<path content="AP030,1,28,1,0,15,1,8,JPN" xlink:title="AP030" d="M13347.049,-3378.2043L13348.764,-3378.8044L13349.1043,-3378.8509L13349.4446,-3378.8509L13350.0122,-3378.41L13350.2106,-3378.2703L13350.6638,-3378.0617L13351.033,-3377.6901L13351.2314,-3377.2957L13351.2589,-3377.0405L13351.3443,-3376.8547L13351.8265,-3376.5297L13352.7344,-3376.0887L13353.1311,-3375.7637L13353.1876,-3375.3227L13353.1876,-3375"/>
<path content="AP030,1,28,1,0,14,1,8,JPN" xlink:title="AP030" d="M13333.0795,-3375L13333.0795,-3375L13332.9895,-3375.1465L13332.8598,-3375.2533L13332.8598,-3375.4131L13332.8293,-3375.5798L13332.7896,-3375.7065L13332.7698,-3375.8331L13332.7393,-3375.9533L13332.7393,-3376.0132L13332.8293,-3376.2466"/>
<path content="AP030,1,28,1,0,14,1,8,JPN" xlink:title="AP030" d="M13294.9707,-3379.5933L13295.0394,-3379.4666L13295.2393,-3379.3465L13295.4697,-3379.1267L13295.52,-3379.0531L13295.6299,-3378.9997L13295.7001,-3378.9265L13295.7199,-3378.82L13295.7703,-3378.7666L13295.8801,-3378.6598L13295.9305,-3378.5534L13295.9503,-3378.5L13295.9305,-3378.4267L13295.9305,-3378.3333L13295.9,-3378.2467L13295.8099,-3378.1532L13295.7703,-3378.0998L13295.5795,-3378.08L13295.5399,-3378.0464L13295.61,-3377.9732L13295.7199,-3377.8667L13295.7703,-3377.8133L13295.7397,-3377.7599L13295.7703,-3377.6867L13295.99,-3377.5066L13296.08,-3377.4532L13296.2006,-3377.4864L13296.3303,-3377.3067L13296.5195,-3377.1267L13296.7194,-3376.9466L13296.7697,-3376.8932L13296.7697,-3376.7864L13296.8094,-3376.7666L13296.9299,-3376.6933L13296.9894,-3376.68L13297.02,-3376.6399L13297.02,-3376.5533L13297.0795,-3376.5331L13297.11,-3376.5331L13297.1298,-3376.5865L13297.1802,-3376.6399L13297.2198,-3376.68L13297.2,-3376.7132L13297.1298,-3376.7666L13297.11,-3376.7864L13297.11,-3376.8734L13297.11,-3376.9466L13297.02,-3377.0733L13296.9696,-3377.1667L13296.8597,-3377.3067L13296.8094,-3377.3998L13296.8307,-3377.4864L13296.8597,-3377.5265L13296.7896,-3377.5932L13296.7896,-3377.6531L13296.8796,-3377.7397L13296.9299,-3377.7599L13296.9696,-3377.6665L13297.02,-3377.6333L13297.0596,-3377.5799L13297.02,-3377.38L13297.11,-3377.3067L13297.11,-3377.2331L13297.1497,-3377.1797L13297.2397,-3377.1667L13297.29,-3377.1267L13297.3099,-3377.0397L13297.3602,-3376.9867L13297.4701,-3377L13297.5601,-3377.0199L13297.58,-3376.9466L13297.5601,-3376.8932L13297.4899,-3376.8398L13297.4899,-3376.7864L13297.5403,-3376.7666L13297.6807,-3376.7666L13297.7203,-3376.7666L13297.7402,-3376.68L13297.7707,-3376.6598L13297.8607,-3376.6068L13297.8607,-3376.5865L13297.8104,-3376.4999L13297.8104,-3376.4599L13297.8607,-3376.4065L13297.9004,-3376.3733L13297.9904,-3376.3535L13298.0392,-3376.3535L13298.0606,-3376.2798L13298.0804,-3376.2264L13297.9904,-3376.1734L13297.9294,-3376.1532L13297.9004,-3376.12L13297.9706,-3376.0666L13298.0804,-3376.0132L13298.1506,-3375.9731L13298.1094,-3375.9399L13298.0804,-3375.8865L13298.0194,-3375.8331L13298.0194,-3375.7599L13298.0606,-3375.7065L13298.1506,-3375.6535L13298.2193,-3375.6134L13298.2697,-3375.6332L13298.2407,-3375.6664L13298.1995,-3375.7401L13298.1506,-3375.7935L13298.1995,-3375.8331L13298.3093,-3375.8667L13298.3994,-3375.9197L13298.4299,-3375.9731L13298.3994,-3376.0468L13298.3307,-3376.0468L13298.3307,-3376.0998L13298.4299,-3376.0998L13298.5199,-3376.0666L13298.5199,-3375.9731L13298.4894,-3375.8865L13298.4299,-3375.8331L13298.3795,-3375.7935L13298.3795,-3375.7401L13298.4299,-3375.7065L13298.4299,-3375.6332L13298.5199,-3375.5798L13298.6298,-3375.56L13298.6496,-3375.4868L13298.6496,-3375.4532L13298.5397,-3375.4333L13298.4695,-3375.4333L13298.3795,-3375.4333L13298.3597,-3375.3799L13298.3597,-3375.3067L13298.4299,-3375.2533L13298.4299,-3375.2197L13298.4299,-3375.1999L13298.3597,-3375.1465L13298.3093,-3375.0935L13298.3597,-3375.0401L13298.3994,-3375.0198L13298.392,-3375M13298.5346,-3375L13298.5199,-3375.0198L13298.5596,-3375.0935L13298.6298,-3375.1266L13298.6099,-3375.1667L13298.5596,-3375.2197L13298.6099,-3375.3067L13298.7198,-3375.3265L13298.79,-3375.3468L13298.8297,-3375.4333L13298.88,-3375.4333L13298.9304,-3375.3468L13298.88,-3375.2731L13298.79,-3375.2533L13298.7396,-3375.2533L13298.7701,-3375.1999L13298.9304,-3375.1999L13298.97,-3375.2197L13298.9899,-3375.3067L13299.1302,-3375.3067L13299.1806,-3375.3468L13299.2706,-3375.3799L13299.3805,-3375.3998L13299.4705,-3375.3799L13299.5407,-3375.3799L13299.5804,-3375.3799L13299.5407,-3375.4333L13299.5605,-3375.4868L13299.6094,-3375.4868L13299.6796,-3375.4665L13299.7406,-3375.4333L13299.8093,-3375.3265L13299.8306,-3375.1999L13299.9496,-3375.0401L13299.9389,-3375M13299.8857,-3375L13299.7894,-3375.0732L13299.7696,-3375.0401L13299.7696,-3375"/>
<path content="AP030,1,28,1,0,15,1,8,JPN" xlink:title="AP030" d="M13347.049,-3378.2043L13347.0215,-3377.2671L13346.8201,-3376.7735L13346.3181,-3376.033L13345.5139,-3375.4982L13344.671,-3375"/>
<path content="AP030,1,28,1,0,15,1,8,JPN" xlink:title="AP030" d="M13315.6286,-3375L13316.2354,-3375.6645L13316.6931,-3375.7236L13316.6794,-3375.4848L13318.367,-3375.2956L13318.1108,-3375M13318.2604,-3375L13319.072,-3375.3704L13320.6192,-3375.1717L13321.2026,-3375"/>
<path content="AP030,1,28,1,0,16,1,8,JPN" xlink:title="AP030" d="M13297.7402,-3411.2865L13297.6807,-3411.2202L13297.6501,-3411.1069L13297.6807,-3410.4401L13297.9004,-3409.6535L13297.9294,-3409.5798L13298.0194,-3409.2731L13298.0392,-3409.1469L13298.0392,-3409.1206"/>
<path content="AP030,1,28,1,0,16,1,8,JPN" xlink:title="AP030" d="M13307.0584,-3418.8644L13307.0556,-3418.8613L13306.9504,-3418.7466"/>
<path content="AP030,1,28,1,0,15,1,25,JPN" xlink:title="AP030" d="M13307.2998,-3419.1277L13307.4054,-3418.6487L13307.4066,-3418.6432"/>
<path content="AP030,1,28,1,0,16,1,8,JPN" xlink:title="AP030" d="M13317.5362,-3435.4962L13317.0807,-3435.3065L13317.0578,-3435.2844"/>
<path content="AP030,1,28,1,0,16,1,25,JPN" xlink:title="AP030" d="M13318.4685,-3435.8993L13317.538,-3435.4969L13317.5362,-3435.4962"/>
<path content="AP030,1,28,1,0,14,1,8,JPN" xlink:title="AP030" d="M13319.2774,-3445.3125L13319.3802,-3445.0733"/>
</g>
</svg>
