<?xml version="1.0" encoding="UTF-8"?>
<svg  xmlns="http://www.w3.org/2000/svg" xmlns:xlink="http://www.w3.org/1999/xlink" xmlns:go="http://purl.org/svgmap/profile" property="f_code,acc,exs,rst,med,rtt,RSU,loc,soc" viewBox="13500.0 -9000.0 4500.0 4500.0" go:dataArea="13500.0 -9000.0 4500.0 4500.0" >
<metadata>
 <rdf:RDF xmlns:rdf="http://www.w3.org/1999/02/22-rdf-syntax-ns#" xmlns:crs="http://opengis.org/xmldtds/transformations.dtd" xmlns:svg="http://www.w3.org/svg" >
  <rdf:Description>
   <crs:CoordinateReferenceSystem rdf:resource="http://purl.org/crs/84" svg:transform="matrix(100.0,0.0,0.0,-100.0,0.0,0.0)" />
  </rdf:Description>
 </rdf:RDF>
</metadata>
<globalCoordinateSystem srsName="http://purl.org/crs/84" transform="matrix(100.0,0.0,0.0,-100.0,0.0,0.0)" />
<defs>
 <g id="p0" >
  <circle cx="0.0" cy="0.0" r="3" stroke="green" stroke-width="2.0" vector-effect="non-scaling-stroke" />
 </g>
</defs>
<g fill="none" fill-rule="evenodd" stroke="#00ff00" stroke-width="2" opacity="0.5" vector-effect="non-scaling-stroke" stroke-linejoin="bevel" >
<path content="AP030,1,28,1,0,14,1,8,JPN" xlink:title="AP030" d="M14178.7903,-4540.44L14179.1794,-4540.4999"/>
<path content="AP030,1,28,1,0,15,1,8,JPN" xlink:title="AP030" d="M14177.6794,-4540.48L14178.7903,-4540.44"/>
<path content="AP030,1,28,1,0,14,1,8,JPN" xlink:title="AP030" d="M14177.6794,-4540.48L14178.1998,-4540.44L14178.7903,-4540.44"/>
<path content="AP030,1,28,1,0,14,1,8,JPN" xlink:title="AP030" d="M14167.8802,-4541.8465L14167.8223,-4541.296L14167.8299,-4541.2525L14167.8009,-4541.0938L14167.7429,-4540.8485L14167.7078,-4540.6319L14167.7887,-4540.583L14167.8879,-4540.5235L14167.9886,-4540.4804L14168.0801,-4540.4064L14168.2907,-4540.2802L14168.4494,-4540.1531L14168.6493,-4540.0799L14168.9499,-4539.9734L14168.9896,-4539.9532L14169.4702,-4539.8132L14169.8807,-4539.7598L14170.1294,-4539.74L14170.3598,-4539.74L14170.6299,-4539.7202L14170.7397,-4539.6667L14170.7703,-4539.5802"/>
<path content="AP030,1,28,1,0,14,1,8,JPN" xlink:title="AP030" d="M14170.7703,-4539.5802L14171.1807,-4539.5599L14171.7896,-4539.5802L14171.8597,-4539.5802L14172.6807,-4539.7064L14173.6099,-4539.8666L14173.8602,-4539.9532L14174.2706,-4540.2267L14174.6506,-4540.4598L14174.8306,-4540.6067L14174.9298,-4540.6601L14175.0198,-4540.6601L14175.0793,-4540.6601L14175.47,-4540.5666L14175.5798,-4540.5334L14175.6805,-4540.5132L14175.8804,-4540.5132L14176.1307,-4540.5865L14176.3306,-4540.6067L14176.5198,-4540.5865L14176.9897,-4540.5132L14177.0401,-4540.5132L14177.4902,-4540.4999L14177.6794,-4540.48"/>
<path content="AP030,1,28,1,0,15,1,8,JPN" xlink:title="AP030" d="M14179.1794,-4540.4999L14181.8527,-4538.7131"/>
<path content="AP030,1,28,1,0,15,1,8,JPN" xlink:title="AP030" d="M14165.7364,-4538.2366L14164.3509,-4538.932L14163.6581,-4540.8844L14163.7817,-4542.8406L14164.1235,-4543.4994L14164.5508,-4544.2825L14165.1123,-4544.574L14165.3885,-4544.376L14165.8005,-4543.8335L14166.5573,-4542.9455L14166.8945,-4541.9617L14166.4703,-4541.375L14166.7404,-4540.6857L14167.0807,-4539.9475L14167.4927,-4539.5031L14167.8391,-4539.2555L14167.9749,-4539.0583L14167.7643,-4538.863L14166.3666,-4538.4785L14165.7364,-4538.2366"/>
<path content="AP030,1,28,1,0,15,1,8,JPN" xlink:title="AP030" d="M14181.8527,-4538.7131L14182.2983,-4538.1996L14182.2968,-4538.0836"/>
<path content="AP030,1,28,1,0,15,1,8,JPN" xlink:title="AP030" d="M14181.8527,-4538.7131L14182.2968,-4538.0836"/>
<path content="AP030,1,28,1,0,14,1,8,JPN" xlink:title="AP030" d="M14179.1794,-4540.4999L14180.04,-4540.6933L14181.0196,-4540.9466L14181.9702,-4541.2533L14182.9498,-4541.6332L14183.9706,-4542.1001L14184.7397,-4542.5331L14184.8297,-4542.5865L14185.4904,-4543.0733L14186.0596,-4543.5066L14186.3602,-4543.7401L14186.5799,-4544.1002L14186.8805,-4544.5866L14187.0605,-4544.8002L14187.3093,-4545.0199L14187.4893,-4545.2L14187.6801,-4545.5601L14187.8998,-4546.0667L14187.9898,-4546.2467L14187.97,-4546.3531L14187.8601,-4546.4401L14187.7197,-4546.5534L14187.6801,-4546.7335L14187.5595,-4546.9467L14187.5336,-4547.1634L14187.5198,-4547.4865L14187.6495,-4547.6833L14187.7426,-4547.871L14187.97,-4548.0667L14188.0798,-4548.2601L14188.1805,-4548.5867L14188.15,-4548.7667L14188.0402,-4548.9468L14188.0203,-4549.1066L14188.0402,-4549.4331L14188.1104,-4549.5266L14188.2904,-4549.5934L14188.5406,-4549.6532L14188.6993,-4549.7066L14188.8107,-4549.8135L14188.9297,-4550.0134L14189.0396,-4550.0801L14189.27,-4550.1732L14189.36,-4550.2602L14189.4302,-4550.4265L14189.4302,-4550.84L14189.4699,-4550.9998L14189.5798,-4551.0532L14189.7202,-4551.0735L14189.9506,-4551.1265L14190.1093,-4551.1799L14190.2405,-4551.2867L14190.3595,-4551.4133L14190.5197,-4551.4866L14190.8096,-4551.5266L14190.9698,-4551.58L14191.2903,-4551.7067L14191.5405,-4551.72L14191.9006,-4551.7735L14192.1799,-4551.7597L14192.3798,-4551.7067L14192.5797,-4551.72L14192.8604,-4551.7933L14193.1305,-4551.9733L14193.4006,-4552.1L14193.6493,-4552.2465L14193.8095,-4552.28L14193.9896,-4552.2266L14194.1498,-4552.0798L14194.3298,-4551.8131L14194.4702,-4551.7067L14194.7205,-4551.6132L14195.0394,-4551.5934L14195.2896,-4551.58L14195.4697,-4551.5064L14195.6299,-4551.4L14195.7397,-4551.2531L14195.9503,-4551.0933L14196.1105,-4550.9865L14196.2906,-4550.7332L14196.3593,-4550.5531L14196.3104,-4550.1934L14196.3104,-4550.0801L14196.3806,-4549.9733L14196.6095,-4549.7601L14196.6293,-4549.6334L14196.6293,-4549.5399L14196.6507,-4548.9864L14196.6507,-4548.7133L14196.6797,-4548.5867L14196.6995,-4548.5001L14196.8094,-4548.32L14196.9696,-4548.1335L14197.2198,-4547.8867L14197.3602,-4547.7066L14197.4304,-4547.4865L14197.4701,-4547.3064L14197.7005,-4546.9265L14197.7707,-4546.8399L14197.8607,-4546.7999L14198.1094,-4546.8399L14198.1995,-4546.8601L14198.3307,-4546.8601L14198.88,-4546.5866L14199.1104,-4546.32L14199.4904,-4545.94L14199.6796,-4545.8332L14199.7894,-4545.8134L14199.8993,-4545.7401L14200.0397,-4545.5933L14200.1801,-4545.4533L14200.3296,-4545.38L14200.56,-4545.3068L14200.8102,-4545.2534L14200.9003,-4545.1668L14200.9903,-4545.0733L14201.0605,-4544.9135L14201.1795,-4544.8002L14201.2405,-4544.6934L14201.2695,-4544.6068L14201.2894,-4544.4267L14201.3992,-4544.2066L14201.4694,-4544.0266L14201.5198,-4543.8133L14201.6098,-4543.56L14201.7197,-4543.3601L14201.7899,-4543.1065L14201.86,-4542.8932L14201.9501,-4542.7467L14202.0798,-4542.6399L14202.2903,-4542.5865L14202.5604,-4542.6067L14202.8107,-4542.5865L14202.9694,-4542.5533L14203.0807,-4542.4599L14203.2898,-4542.0666L14203.4698,-4541.7732L14203.5797,-4541.5401L14203.7201,-4541.3799L14203.9703,-4541.1667L14204.2404,-4540.9134L14204.3594,-4540.8001L14204.4296,-4540.6799L14204.4495,-4540.62L14204.5197,-4540.5334L14204.7195,-4540.4266L14204.9698,-4540.2599L14205.0598,-4540.1932L14205.22,-4540.0265L14205.3299,-4539.9399L14205.4901,-4539.8666L14205.7205,-4539.7732L14205.8594,-4539.6866L14206.0196,-4539.5401L14206.2195,-4539.4135L14206.4499,-4539.2864L14206.7703,-4539.1666L14207.0801,-4539.0934L14207.1503,-4539.0533L14207.3303,-4538.9133L14207.5394,-4538.7867L14207.7896,-4538.6799L14208.1299,-4538.5666L14208.4,-4538.48L14208.5403,-4538.4068L14208.7692,-4538.2267L14208.9493,-4538.0798L14209.0805,-4538.0264L14209.1995,-4538.0135L14209.2896,-4538.0135L14209.4894,-4537.9532L14209.6298,-4537.8468L14209.8602,-4537.6534L14210.1105,-4537.4535L14210.6293,-4537.2002L14211.0397,-4537.0201L14211.4502,-4536.8L14211.9003,-4536.5665L14212.2696,-4536.4265L14212.4496,-4536.2801L14212.7396,-4536.1332L14213.0798,-4536.0134L14213.2202,-4535.9001L14213.4003,-4535.7933L14213.7207,-4535.6667L14213.8596,-4535.6133L14213.9297,-4535.5598L14213.9893,-4535.4866L14214.0396,-4535.4668L14214.1495,-4535.4134L14214.3097,-4535.3065L14214.4302,-4535.2734L14214.5599,-4535.2531L14214.6805,-4535.22L14214.8804,-4535.1467L14215.1596,-4534.9957L14215.4907,-4534.8202L14215.86,-4534.6066L14215.9897,-4534.5135"/>
<path content="AP030,1,28,1,0,15,1,8,JPN" xlink:title="AP030" d="M14211.879,-4533.3572L14212.9639,-4533.3466L14214.9551,-4533.4545L14215.9897,-4534.5135"/>
<path content="AP030,1,28,1,0,15,1,8,JPN" xlink:title="AP030" d="M14842.4974,-4532.6759L14844.5724,-4534.8888L14847.5174,-4537.4477L14847.9828,-4537.9379L14848.3612,-4539.2479L14847.9019,-4539.7881L14848.6786,-4540.5514L14851.0803,-4542.7841L14852.6321,-4543.7096L14854.6478,-4544.4176L14855.8105,-4545.6154L14857.2052,-4547.031L14859.6085,-4548.2834L14861.8332,-4548.0484L14864.7339,-4547.4182L14865.509,-4546.978L14866.0507,-4546.2078L14866.7496,-4545.7127L14867.8345,-4545.657L14869.6976,-4545.8759L14871.2479,-4545.9301L14872.4121,-4546.1494L14873.111,-4546.1491L14873.6542,-4545.9286L14874.3515,-4545.3236L14874.6613,-4544.8284L14874.971,-4544.6083L14875.4364,-4544.4427L14876.3672,-4544.4973L14877.7634,-4544.4965L14879.2374,-4544.4958L14880.1682,-4544.1654L14880.9433,-4543.3952L14881.7184,-4542.7349L14882.2357,-4541.8629"/>
<path content="AP030,1,28,1,0,15,1,8,JPN" xlink:title="AP030" d="M14163.9252,-4532.1095L14165.1962,-4533.6735L14165.9088,-4535.0933L14166.1346,-4536.6138L14165.8646,-4537.352L14165.5197,-4537.6488L14165.3839,-4537.846L14165.7364,-4538.2366"/>
<path content="AP030,1,28,1,0,15,1,8,JPN" xlink:title="AP030" d="M14204.6951,-4531.0024L14206.2454,-4531.8172L14207.8857,-4532.5031L14210.4263,-4532.9891L14211.879,-4533.3572"/>
<path content="AP030,1,28,1,0,15,1,8,JPN" xlink:title="AP030" d="M14212.0117,-4530.8693L14211.9354,-4531.6353L14211.879,-4533.3572"/>
<path content="AP030,1,28,1,0,15,1,8,JPN" xlink:title="AP030" d="M14204.6951,-4531.0024L14205.9418,-4530.0346L14207.196,-4529.4491L14208.1894,-4529.4395L14209.4681,-4530.1926L14212.0117,-4530.8693"/>
<path content="AP030,1,28,1,0,15,1,8,JPN" xlink:title="AP030" d="M14102.9724,-4527.8137L14103.8635,-4528.233L14103.8635,-4528.5999L14104.0863,-4529.1767L14104.5547,-4530.7762L14104.9362,-4532.7755L14104.7775,-4533.6136L14104.7775,-4534.2918L14105.2551,-4535.3691L14105.6793,-4537.3241L14105.574,-4538.1622L14105.4688,-4538.681L14105.4688,-4539.3993L14105.4688,-4540.0776L14105.7343,-4541.3944L14105.5771,-4542.6712L14105.5771,-4542.831L14104.9957,-4543.9884L14103.4927,-4545.3201"/>
<path content="AP030,1,28,1,0,14,1,8,JPN" xlink:title="AP030" d="M14215.9897,-4534.5135L14216.2704,-4534.3334L14216.6306,-4534.1L14216.6794,-4534.0801L14216.9693,-4533.8665L14217.1799,-4533.6666L14217.1997,-4533.6533L14217.3096,-4533.4866L14217.4896,-4533.3263L14217.5598,-4533.2733L14217.7002,-4533.0933L14217.7399,-4533.02L14217.7704,-4532.84L14217.8101,-4532.7866L14217.9901,-4532.6401L14218.6996,-4531.9199L14219.1101,-4531.4865L14219.5602,-4530.9666L14219.9295,-4530.5866L14220.0607,-4530.46L14220.2194,-4530.32L14220.4895,-4530.0667L14220.8801,-4529.6333L14221.1502,-4529.3064L14221.5607,-4528.82L14221.8796,-4528.4264L14222.0398,-4528.2799L14222.3297,-4528.133L14222.4899,-4527.94L14222.8302,-4527.5398"/>
<path content="AP030,1,28,1,0,14,1,8,JPN" xlink:title="AP030" d="M14170.7703,-4539.5802L14170.7901,-4539.5267L14170.7901,-4539.1998L14170.7901,-4539.1666L14170.7703,-4538.8199L14170.8801,-4538.5334L14171.1502,-4538.0466L14171.3104,-4537.7602L14171.4294,-4537.6667L14171.9299,-4537.4001L14171.9696,-4537.3798L14172.7203,-4537.0201L14172.8104,-4536.9133L14172.9507,-4536.5532L14173.1796,-4536.0802L14173.4894,-4535.7201L14173.7396,-4535.4534L14173.7701,-4535.36L14173.3795,-4534.9133L14172.6807,-4534.1L14172.3099,-4533.6533L14172.2,-4533.4866L14172.1802,-4533.3466L14172.1497,-4532.9666L14172.11,-4532.6401L14172.0596,-4532.3532L14172.0398,-4532.1198L14172.0596,-4531.9401L14172.2397,-4531.2531L14172.6105,-4530.2067L14172.6501,-4530.0266L14172.6807,-4529.8664L14172.6501,-4529.6864L14172.4503,-4529.1466L14172.4304,-4529.0398L14172.4701,-4528.9665L14172.5403,-4528.8933L14172.7905,-4528.7132L14173.0392,-4528.4599L14173.0606,-4528.4397L14173.2407,-4528.26L14173.3093,-4528.1933L14173.3795,-4528.0464L14173.3994,-4527.9198L14173.4695,-4527.6333L14173.5397,-4527.3266"/>
<path content="AP030,1,28,1,0,15,1,8,JPN" xlink:title="AP030" d="M14160.7346,-4526.5781L14162.0728,-4528.2406L14162.5107,-4530.0056L14162.5885,-4530.8399L14163.1516,-4531.4262L14163.9252,-4532.1095"/>
<path content="AP030,1,28,1,0,15,1,8,JPN" xlink:title="AP030" d="M14219.6915,-4526.5194L14221.4935,-4526.3729L14222.1313,-4526.6212L14222.8302,-4527.5398"/>
<path content="AP030,1,28,1,0,15,1,8,JPN" xlink:title="AP030" d="M14212.0117,-4530.8693L14213.6322,-4530.5984L14213.9877,-4530.2761L14214.151,-4529.4453L14214.8712,-4529.3106L14215.6769,-4528.92L14216.0065,-4527.3865L14217.8055,-4527.0493L14218.9575,-4525.9533L14219.2337,-4526.2691L14219.6915,-4526.5194"/>
<path content="AP030,1,28,1,0,15,1,8,JPN" xlink:title="AP030" d="M14182.2968,-4538.0836L14184.2453,-4535.3161L14185.4065,-4534.3513L14186.3831,-4533.1326L14187.5381,-4531.8481L14187.2528,-4530.8941L14185.9543,-4528.6724L14185.9329,-4527.2697L14185.0082,-4525.8099"/>
<path content="AP030,1,28,1,0,15,1,8,JPN" xlink:title="AP030" d="M14182.2968,-4538.0836L14182.2891,-4537.6259L14181.6528,-4537.3753L14181.0089,-4536.6787L14180.6335,-4535.6609L14180.0766,-4534.6447L14179.8691,-4532.7335L14180.481,-4531.3263L14181.6391,-4530.1704L14182.1793,-4530.0392L14182.3441,-4528.8902L14183.1451,-4528.0556L14183.7662,-4527.3495L14184.3857,-4526.516L14185.0082,-4525.8099"/>
<path content="AP030,1,28,1,0,15,1,8,JPN" xlink:title="AP030" d="M14163.9252,-4532.1095L14164.4073,-4531.6154L14164.3982,-4530.83L14165.0162,-4530.09L14165.5655,-4529.5467L14166.188,-4529.2484L14166.8137,-4529.0977L14167.2928,-4528.4565L14167.5903,-4528.2215L14167.981,-4527.9121L14168.3945,-4527.5661L14168.7363,-4527.0729L14168.7988,-4526.4343L14169.0002,-4525.9422L14168.7759,-4525.7198L14168.5089,-4525.4539"/>
<path content="AP030,1,28,1,0,15,1,8,JPN" xlink:title="AP030" d="M14185.0082,-4525.8099L14186.6257,-4525.3513L14187.2559,-4525.2193L14187.886,-4525.087L14188.5178,-4525.1457L14189.6088,-4525.5836L14190.4251,-4525.832L14190.5228,-4526.2775L14190.0909,-4527.4925L14190.7288,-4527.8702L14193.4555,-4528.9322L14195.0027,-4529.6207L14199.3546,-4530.4764L14203.2425,-4530.6969L14204.6951,-4531.0024"/>
<path content="AP030,1,28,1,0,15,1,8,JPN" xlink:title="AP030" d="M14160.7346,-4526.5781L14162.3184,-4525.2441L14168.0847,-4524.8672L14168.5089,-4525.4539"/>
<path content="AP030,1,28,1,0,15,1,8,JPN" xlink:title="AP030" d="M14170.3735,-4524.4606L14170.3781,-4524.9027L14170.6604,-4525.2445L14171.0098,-4525.3899L14171.1533,-4525.7324L14171.3654,-4526.0258L14171.6461,-4526.2695L14172.345,-4526.4614L14173.5397,-4527.3266"/>
<path content="AP030,1,28,1,0,15,1,8,JPN" xlink:title="AP030" d="M14168.5089,-4525.4539L14168.8293,-4525.2827L14170.3735,-4524.4606"/>
<path content="AP030,1,28,1,0,14,1,8,JPN" xlink:title="AP030" d="M14222.8302,-4527.5398L14223.3597,-4526.9131L14223.3795,-4526.7998L14223.2407,-4525.9933L14223.1293,-4525.2197L14223.0392,-4525.0198L14222.8302,-4524.6399L14222.2198,-4523.4665"/>
<path content="AP030,1,28,1,0,15,1,8,JPN" xlink:title="AP030" d="M14219.6915,-4526.5194L14220.6528,-4525.0427L14221.0846,-4524.1455L14222.2198,-4523.4665"/>
<path content="AP030,1,28,1,0,15,1,8,JPN" xlink:title="AP030" d="M14169.6579,-4522.8447L14169.7372,-4523.6298L14170.3735,-4524.4606"/>
<path content="AP030,1,28,1,0,14,1,8,JPN" xlink:title="AP030" d="M14174.8093,-4522.8397L14175.2899,-4523.5264L14175.3601,-4523.6866L14175.3799,-4523.7598L14175.3998,-4523.8464L14175.3998,-4524.0665L14175.3296,-4524.2264L14174.2706,-4526.0998L14174.1501,-4526.3332L14174.1104,-4526.4999L14174.0402,-4526.7132L14173.9502,-4526.873L14173.8098,-4527.0199L14173.6298,-4527.1797L14173.5397,-4527.2732L14173.5397,-4527.3266"/>
<path content="AP030,1,28,1,0,14,1,8,JPN" xlink:title="AP030" d="M14174.4293,-4522.6601L14174.6307,-4522.7333L14174.8093,-4522.8397"/>
<path content="AP030,1,28,1,0,15,1,8,JPN" xlink:title="AP030" d="M14222.2198,-4523.4665L14222.6105,-4522.533"/>
<path content="AP030,1,28,1,0,14,1,8,JPN" xlink:title="AP030" d="M14222.2198,-4523.4665L14222.2198,-4523.3463L14222.6105,-4522.533"/>
<path content="AP030,1,28,1,0,14,1,8,JPN" xlink:title="AP030" d="M14173.7198,-4521.9532L14173.8297,-4522.1001L14173.8998,-4522.2263L14173.97,-4522.3732L14174.0799,-4522.4598L14174.4293,-4522.6601"/>
<path content="AP030,1,28,1,0,15,1,8,JPN" xlink:title="AP030" d="M14174.8093,-4522.8397L14177.4597,-4521.7827L14179.9942,-4522.403L14181.6406,-4523.9853L14182.1991,-4525.0656L14183.5571,-4525.4383L14185.0082,-4525.8099"/>
<path content="AP030,1,28,1,0,15,1,8,JPN" xlink:title="AP030" d="M14173.5199,-4521.5931L14173.7198,-4521.9532"/>
<path content="AP030,1,28,1,0,14,1,8,JPN" xlink:title="AP030" d="M14173.7198,-4521.9532L14173.6099,-4521.7598L14173.5199,-4521.5931"/>
<path content="AP030,1,28,1,0,15,1,8,JPN" xlink:title="AP030" d="M14169.6579,-4522.8447L14170.0027,-4522.5479L14170.7596,-4522.0524L14171.6614,-4521.8994L14173.5199,-4521.5931"/>
<path content="AP030,1,28,1,0,14,1,8,JPN" xlink:title="AP030" d="M14222.6105,-4522.533L14222.8806,-4521.5599"/>
<path content="AP030,1,28,1,0,14,1,8,JPN" xlink:title="AP030" d="M14222.8806,-4521.5599L14223.0804,-4520.8931"/>
<path content="AP030,1,28,1,0,15,1,8,JPN" xlink:title="AP030" d="M14222.4487,-4520.369L14223.0804,-4520.8931"/>
<path content="AP030,1,28,1,0,15,1,8,JPN" xlink:title="AP030" d="M14222.8806,-4521.5599L14222.4487,-4520.369"/>
<path content="AP030,1,28,1,0,14,1,8,JPN" xlink:title="AP030" d="M14223.0804,-4520.8931L14223.3093,-4520.8401L14225.6805,-4519.453L14225.8102,-4519.36L14226.0193,-4519.2532L14226.6495,-4519.0201L14227.8595,-4518.6066L14228.0807,-4518.4601L14228.5797,-4518.1534L14228.7201,-4518.0664"/>
<path content="AP030,1,28,1,0,14,1,8,JPN" xlink:title="AP030" d="M14228.7201,-4518.0664L14229.9301,-4517.3065L14232.5394,-4515.633L14233.1802,-4515.2332L14233.4,-4515.1665L14235.0403,-4514.9666L14236.1298,-4514.373L14236.1496,-4514.32L14236.29,-4514.08L14236.6302,-4513.3465L14236.6302,-4513.3064L14236.6806,-4513.0733L14236.7203,-4512.8201L14236.7401,-4512.6198"/>
<path content="AP030,1,28,1,0,15,1,8,JPN" xlink:title="AP030" d="M14210.1288,-4512.5866L14213.6719,-4514.4657L14213.5193,-4515.8703L14213.2721,-4517.0204L14215.1978,-4518.6588L14216.1331,-4520.3072L14217.2241,-4520.7424L14219.3893,-4520.7199L14220.0089,-4520.2034L14220.546,-4520.0066L14221.4478,-4519.997L14222.4487,-4520.369"/>
<path content="AP030,1,28,1,0,14,1,8,JPN" xlink:title="AP030" d="M14236.7401,-4512.6198L14236.29,-4512.5668L14236.3297,-4512.1933L14236.0596,-4512.0132L14236.0199,-4511.94L14236.0596,-4511.7733"/>
<path content="AP030,1,28,1,0,14,1,8,JPN" xlink:title="AP030" d="M14173.5199,-4521.5931L14173.4894,-4521.4001L14173.5199,-4521.04L14173.5794,-4520.8401L14173.7,-4520.6066L14173.8602,-4520.3533L14173.9304,-4520.2465L14173.9899,-4520.0798L14174.0601,-4519.7731L14174.1104,-4519.5267L14174.1501,-4519.22L14174.1806,-4518.9999L14174.2004,-4518.8732L14174.3607,-4518.2598L14174.6307,-4517.5266L14174.7192,-4517.2733L14174.7894,-4517.1665L14174.8795,-4517.0532L14174.9695,-4516.9266L14175.2899,-4516.2464L14175.3296,-4516.0465L14175.3296,-4515.7066L14175.3601,-4515.3599L14175.4898,-4514.6599L14175.6104,-4513.9732L14175.6302,-4513.8466L14175.65,-4513.813L14175.7004,-4513.6665L14175.7706,-4513.5265L14175.8301,-4513.3266L14175.8804,-4512.9997L14175.9506,-4512.8597L14176.0605,-4512.6598L14176.1505,-4512.5L14176.2405,-4512.3867L14176.4694,-4512.1933L14176.6296,-4512.0132L14176.86,-4511.5601L14176.8799,-4511.4532L14176.9501,-4511.3464L14177.2202,-4511.0397L14177.5192,-4510.82L14177.6993,-4510.7666L14177.7893,-4510.6934L14177.8107,-4510.6068L14177.8305,-4510.5667"/>
<path content="AP030,1,28,1,0,15,1,8,JPN" xlink:title="AP030" d="M14124.176,-4510.5171L14125.5905,-4511.031L14126.9012,-4511.2679L14128.1601,-4511.2282L14128.5599,-4511.7607L14128.7689,-4512.0377L14128.9261,-4512.3936L14129.2938,-4512.7098L14130.0797,-4513.1447L14131.2012,-4514.1155L14132.3029,-4514.9448L14132.4081,-4515.815L14132.3563,-4516.6061L14131.8329,-4517.5949L14131.1523,-4518.8606L14130.7327,-4519.7308L14129.6341,-4520.9969L14128.2181,-4521.9067L14127.1179,-4522.263L14126.123,-4522.4213L14125.5463,-4522.6192L14123.9212,-4522.58L14123.2925,-4522.7779L14122.1924,-4523.925L14121.6675,-4524.321L14120.8298,-4524.7559L14120.1477,-4524.7562L14119.519,-4524.5979L14118.6279,-4523.9262L14117.4728,-4522.7398L14116.687,-4522.1466L14115.1138,-4521.3955L14114.8514,-4520.9209L14115.0085,-4520.4067L14115.4266,-4519.4576L14114.917,-4518.3037L14115.1108,-4516.7683L14115.4251,-4516.254L14116.0538,-4515.7001L14116.6824,-4515.1066L14116.9968,-4514.5531L14117.572,-4513.8409L14118.9346,-4512.8517L14119.8776,-4512.4165L14120.874,-4511.9812L14121.6599,-4511.4273L14122.551,-4510.7548L14123.3368,-4510.5171L14124.176,-4510.5171"/>
<path content="AP030,1,28,1,0,15,1,8,JPN" xlink:title="AP030" d="M14196.5973,-4510.1147L14197.8348,-4510.564L14199.144,-4511.2385L14200.5264,-4511.2946L14202.7802,-4511.2385L14205.1086,-4511.3506L14206.9275,-4512.0247L14207.9697,-4512.3463L14208.9584,-4512.6663L14210.1288,-4512.5866"/>
<path content="AP030,1,28,1,0,15,1,8,JPN" xlink:title="AP030" d="M14228.3813,-4510.1078L14229.2999,-4510.7475L14229.5822,-4511.3338L14230.0781,-4511.6001L14231.3492,-4511.7069L14233.2565,-4511.7069L14234.4986,-4511.4071L14236.0596,-4511.7733"/>
<path content="AP030,1,28,1,0,15,1,8,JPN" xlink:title="AP030" d="M14228.3813,-4510.1078L14226.5152,-4512.6091L14226.5366,-4513.5654L14226.1002,-4514.2078L14225.6622,-4514.7865L14225.589,-4515.5525L14225.6088,-4516.4448L14226.7929,-4517.0059L14227.8839,-4517.44L14228.7201,-4518.0664"/>
<path content="AP030,1,28,1,0,14,1,8,JPN" xlink:title="AP030" d="M14177.8305,-4510.5667L14177.8595,-4510.1334L14177.8793,-4509.9533"/>
<path content="AP030,1,28,1,0,15,1,8,JPN" xlink:title="AP030" d="M14169.6818,-4511.1283L14171.4615,-4511.4418L14174.6536,-4511.618L14175.9598,-4510.7746L14177.623,-4510.0632L14177.8793,-4509.9533"/>
<path content="AP030,1,28,1,0,15,1,8,JPN" xlink:title="AP030" d="M14166.449,-4509.7534L14165.5609,-4510.9371L14164.2609,-4512.5648L14164.2029,-4513.4983L14164.0747,-4514.5302L14164.5004,-4515.2641L14165.5457,-4515.6509L14165.8295,-4516.2388L14167.1661,-4517.7532L14167.1707,-4518.195L14167.9398,-4518.5833L14168.4311,-4519.0712L14168.5059,-4519.4637L14168.306,-4520.2015L14167.8986,-4520.9896L14167.9047,-4521.5294L14167.9153,-4522.3152L14168.0603,-4522.8542L14168.309,-4522.9839L14168.6203,-4523.1457L14169.6579,-4522.8447"/>
<path content="AP030,1,28,1,0,16,1,8,JPN" xlink:title="AP030" d="M14174.4293,-4522.6601L14175.9996,-4521.0915L14176.2799,-4520.7074L14177.0159,-4519.1215L14177.3664,-4517.9445L14177.6034,-4517.3727L14178.2511,-4516.2576L14178.6012,-4515.8363L14178.8988,-4515.3407L14179.09,-4514.685L14179.1089,-4512.1442L14179.1964,-4511.6238L14179.319,-4511.153L14179.38,-4509.564"/>
<path content="AP030,1,28,1,0,15,1,8,JPN" xlink:title="AP030" d="M14177.8305,-4510.5667L14178.7013,-4509.8264L14179.38,-4509.564"/>
<path content="AP030,1,28,1,0,15,1,8,JPN" xlink:title="AP030" d="M14210.1288,-4512.5866L14211.8011,-4511.9125L14213.475,-4511.8L14214.9292,-4512.0811L14216.8945,-4512.5305L14217.7673,-4512.9238L14218.3533,-4513.1458L14219.5541,-4512.8796L14220.4712,-4512.4531L14221.5302,-4512.0266L14222.2366,-4511.2804L14222.7859,-4510.7327L14223.6588,-4510.0025L14224.5316,-4509.6092L14226.4236,-4509.5528L14227.2507,-4509.7878L14228.3813,-4510.1078"/>
<path content="AP030,1,28,1,0,15,1,8,JPN" xlink:title="AP030" d="M14188.8962,-4508.8818L14190.1672,-4509.1484L14191.2979,-4509.8412L14193.6874,-4510.1707L14196.5973,-4510.1147"/>
<path content="AP030,1,28,1,0,15,1,8,JPN" xlink:title="AP030" d="M14185.0082,-4525.8099L14186.2534,-4524.5892L14187.326,-4523.9433L14187.9547,-4523.7473L14188.9252,-4522.2733L14189.3646,-4521.5683L14189.3356,-4519.7193L14189.2349,-4519.0189L14188.4995,-4518.132L14187.1384,-4517.5049L14186.7676,-4516.8697L14186.5753,-4516.106L14186.8286,-4514.9567L14187.9868,-4514.1186L14187.973,-4513.2259L14188.3255,-4512.6495L14189.2181,-4512.1964L14190.657,-4512.0575L14190.9119,-4511.0352L14190.2695,-4510.2749L14188.8962,-4508.8818"/>
<path content="AP030,1,28,1,0,15,1,8,JPN" xlink:title="AP030" d="M14163.5239,-4508.5426L14165.4709,-4509.1209L14166.449,-4509.7534"/>
<path content="AP030,1,28,1,0,15,1,8,JPN" xlink:title="AP030" d="M14160.7346,-4526.5781L14158.4152,-4524.1352L14157.431,-4523.0602L14157.3486,-4521.7346L14157.5363,-4519.7697L14157.5974,-4518.8854L14158.1406,-4517.7536L14163.5239,-4508.5426"/>
<path content="AP030,1,28,1,0,15,1,8,JPN" xlink:title="AP030" d="M14188.8962,-4508.8818L14188.3041,-4508.5419"/>
<path content="AP030,1,28,1,0,15,1,8,JPN" xlink:title="AP030" d="M14179.38,-4509.564L14180.7072,-4508.8939L14181.4505,-4508.6592L14181.9733,-4508.5621L14182.6096,-4508.5621L14183.1039,-4508.4553L14183.6685,-4508.1356L14184.2331,-4508.1356L14185.6857,-4508.1486L14187.3581,-4508.3172L14188.3041,-4508.5419"/>
<path content="AP030,1,28,1,0,15,1,8,JPN" xlink:title="AP030" d="M14185.3256,-4501.7715L14185.6827,-4502.5055L14186.2503,-4503.4344L14186.6119,-4504.4628L14186.8301,-4505.1483L14187.529,-4505.5359L14187.6755,-4506.0749L14187.4786,-4506.7638L14187.146,-4507.6504L14188.3041,-4508.5419"/>
<path content="AP030,1,28,1,0,15,1,8,JPN" xlink:title="AP030" d="M14184.4559,-4500L14184.4559,-4500L14184.4681,-4500.0103L14184.5398,-4500.1572L14184.4116,-4500.7965L14184.6222,-4500.9911L14184.9731,-4501.3809L14185.3256,-4501.7715"/>
<path content="AP030,1,28,1,0,14,1,8,JPN" xlink:title="AP030" d="M14177.8793,-4509.9533L14177.8793,-4509.9197L14177.8793,-4509.7599L14177.8793,-4509.6333L14177.8107,-4509.5066L14177.6794,-4509.4334L14177.3605,-4509.2731L14177.1301,-4509.1465L14176.8799,-4508.9867L14176.4893,-4508.7334L14176.2207,-4508.5667L14176.0406,-4508.4599L14175.9293,-4508.3866L14175.6805,-4508.2066L14175.5402,-4508.0132L14175.5203,-4507.8331L14175.5402,-4507.6866L14175.56,-4507.6332L14175.5798,-4507.5798L14175.5798,-4507.4532L14175.5203,-4507.3601L14175.4501,-4507.2533L14175.3098,-4507.1068L14175.2197,-4507.0198L14175.1099,-4506.8733L14175.0595,-4506.7131L14175.0397,-4506.4068L14175.0595,-4506.1733L14175.0793,-4506.1001L14175.1495,-4505.7068L14175.3601,-4505.18L14175.5203,-4504.8401L14175.7202,-4504.4598L14175.8804,-4504.2801L14176.1505,-4503.9398L14176.3596,-4503.6533L14176.5793,-4503.413L14176.9897,-4503.0933L14177.1103,-4503.0399L14177.2705,-4502.8931L14177.3056,-4502.7248L14177.3804,-4502.2999L14177.3804,-4502.2266L14177.4506,-4502.0664L14177.5604,-4501.9531L14177.6993,-4501.8131L14177.7695,-4501.6331L14177.8793,-4501.2333L14177.9297,-4501.1066L14178.0197,-4500.9998L14179.0604,-4500.5131L14179.2206,-4500.4799L14180.7693,-4500.5867L14180.8807,-4500.5867L14181.1295,-4500.5867L14181.3293,-4500.5131L14181.4697,-4500.4066L14181.4896,-4500.3201L14181.5201,-4500.2266L14181.5445,-4500L14181.5445,-4500"/>
<path content="AP030,1,28,1,0,14,1,8,JPN" xlink:title="AP030" d="M14229.3259,-4500L14229.3259,-4500L14229.6295,-4500.2598L14229.6997,-4500.4066L14229.6799,-4500.6065L14229.6494,-4500.7668L14229.6494,-4500.9266L14229.7699,-4501.2199L14230.0201,-4501.54L14230.04,-4501.5598L14230.3101,-4501.8467L14230.3802,-4501.9733L14230.3604,-4502.1332L14230.2704,-4502.3197L14230.2399,-4502.4799L14230.3604,-4502.8L14230.5405,-4502.9667L14230.8105,-4503.1467L14231.1798,-4503.7067L14231.1493,-4503.8864L14231.1996,-4504.0665L14231.3599,-4504.2599L14231.4896,-4504.4067L14231.4896,-4504.5532L14231.4499,-4504.6799L14231.4301,-4504.7333L14231.2698,-4504.8733L14231.2393,-4504.9999L14231.2393,-4505.22L14231.1295,-4505.4131L14231.0806,-4505.5798L14231.1295,-4505.7068L14231.2393,-4505.8331L14231.2897,-4505.9532L14231.4301,-4506.0467L14231.5796,-4506.1333L14231.7398,-4506.3534L14231.9,-4506.62L14232.0801,-4506.8001L14232.2205,-4506.9668L14232.2693,-4507.18L14232.3593,-4507.3265L14232.5806,-4507.5066L14232.7896,-4507.6866L14232.8796,-4507.793L14233.1299,-4508.0997L14233.58,-4508.6399L14233.6502,-4508.7467L14233.6304,-4509.2331L14233.6105,-4509.5066L14233.7006,-4509.6531L14233.9493,-4509.7931L14234.3597,-4509.9197L14234.8099,-4509.9731L14234.9304,-4510.0266L14235.0403,-4510.0666L14235.5606,-4510.4599L14235.7193,-4510.5L14235.8795,-4510.5L14236.0397,-4510.5667L14236.2701,-4510.7132L14236.3098,-4510.873L14236.0596,-4511.7733"/>
<path content="AP030,1,28,1,0,14,1,8,JPN" xlink:title="AP030" d="M14236.7401,-4512.6198L14237.4893,-4512.693L14238.3301,-4512.7331L14238.8794,-4512.693L14239.0594,-4512.6801L14239.2395,-4512.6598L14239.7003,-4512.6598L14240.0192,-4512.6064L14240.1306,-4512.5332L14240.2206,-4512.4798L14240.95,-4511.8668L14241.4307,-4511.433L14241.7206,-4511.1797L14242.3798,-4510.68L14243.3304,-4510.0666L14243.6798,-4509.8465L14243.9896,-4509.6531L14244.3298,-4509.3468L14244.8303,-4508.913L14246.1105,-4507.8465L14246.9299,-4507.1999L14247.58,-4506.6799L14247.8104,-4506.48L14248.1293,-4506.2267L14248.3307,-4506.0665L14249.0402,-4505.9731L14249.5407,-4505.9532L14249.8795,-4506.0265L14250.1297,-4506.0467L14250.2396,-4505.9933L14250.2701,-4505.8998L14250.2197,-4505.7934L14250.0397,-4505.6332L14249.8993,-4505.3265L14249.8993,-4505.1067L14250.1099,-4504.8599L14250.3098,-4504.5666L14250.4501,-4504.5132L14250.5798,-4504.4266L14250.6805,-4504.2267L14250.7904,-4504.0264L14250.9705,-4503.8467L14251.1307,-4503.7067L14251.3992,-4503.6133L14251.6098,-4503.5065L14252.0401,-4503.1467L14252.33,-4502.9266L14252.5803,-4502.8732L14252.8107,-4502.8L14253.1494,-4502.5333L14253.2196,-4502.3533L14253.1998,-4502.1L14253.1296,-4501.3798L14253.1494,-4501.2199L14253.2394,-4501.0399L14253.5797,-4500.5531L14253.6804,-4500.3731L14253.6804,-4500.2266L14253.6316,-4500L14253.6316,-4500"/>
<path content="AP030,1,28,1,0,15,1,8,JPN" xlink:title="AP030" d="M14185.3256,-4501.7715L14185.7651,-4501.0078L14186.3464,-4500L14186.3464,-4500"/>
<path content="AP030,1,28,1,0,15,1,8,JPN" xlink:title="AP030" d="M14163.5239,-4508.5426L14168.2526,-4500L14168.2526,-4500"/>
<path content="AP030,1,28,1,0,15,1,8,JPN" xlink:title="AP030" d="M14208.139,-4500L14208.139,-4500L14208.1696,-4501.6762L14208.1116,-4502.2659L14207.6996,-4502.4666L14207.0786,-4502.5215L14205.4169,-4502.5368L14204.2419,-4502.6951L14203.3508,-4503.194L14202.8076,-4503.788L14201.3718,-4504.8321L14200.2045,-4505.4317L14199.5956,-4506.2225L14199.1257,-4507.1598L14197.4121,-4508.2546L14196.5302,-4509.3918L14196.5973,-4510.1147"/>
<path content="AP030,1,28,1,0,15,1,8,JPN" xlink:title="AP030" d="M14764.953,-4500L14764.953,-4500L14765.5527,-4500.4215L14766.4057,-4501.0204L14767.3364,-4501.3474L14768.4229,-4501.1295L14769.43,-4501.2383L14770.1288,-4501.3474L14770.904,-4501.5652L14771.525,-4501.8375L14772.1445,-4502.3273L14773.2294,-4502.9808L14774.238,-4503.5252L14774.4699,-4503.9608L14774.4699,-4504.3964L14773.6933,-4504.7775L14772.5305,-4505.0499L14771.8317,-4505.3764L14771.055,-4506.5201L14770.4325,-4507.5546L14770.3546,-4508.3714L14770.6049,-4509.9709L14770.9284,-4510.9558L14772.4451,-4512.2375L14773.9969,-4512.8906L14775.9348,-4513.4895L14777.2531,-4513.7074L14779.1925,-4513.9797L14780.4331,-4514.3608L14781.6736,-4515.0143L14782.3709,-4515.831L14782.6029,-4516.7023L14782.6029,-4517.5735L14782.3694,-4518.3903L14782.5235,-4518.8805L14782.9889,-4519.2616L14783.9197,-4519.4248L14785.3937,-4519.8605L14786.8662,-4520.7317L14787.797,-4521.5485L14789.01,-4523.3063L14791.5933,-4525.0877L14792.5241,-4526.0132L14793.3771,-4526.7212L14794.1522,-4527.0477L14795.2387,-4527.2655L14796.8668,-4527.2655L14798.884,-4527.1023L14800.2802,-4526.8299L14801.9052,-4526.5293L14804.8593,-4525.5234L14806.5668,-4525.1423L14808.8159,-4524.8154L14810.6775,-4524.6521L14813.5477,-4524.6521L14814.9439,-4524.7608L14816.1081,-4525.0332L14817.1167,-4525.0877L14818.4351,-4525.3056L14820.4523,-4525.3597L14822.0041,-4525.4143L14823.3225,-4525.4143L14825.416,-4525.8499L14826.4246,-4525.9045L14828.0527,-4526.231L14829.6823,-4526.8845L14831.6202,-4527.8645L14832.2412,-4528.1368L14833.6374,-4528.4092L14835.4975,-4529.0081L14836.9715,-4529.5525L14839.1428,-4530.8594L14841.431,-4531.7842"/>
<path content="AP030,1,28,1,0,15,1,8,JPN" xlink:title="AP030" d="M14166.449,-4509.7534L14166.5924,-4510.1948L14166.8822,-4510.2823"/>
<path content="AP030,1,28,1,0,15,1,25,JPN" xlink:title="AP030" d="M14166.8822,-4510.2823L14169.6818,-4511.1283"/>
<path content="AP030,1,28,1,0,15,1,8,JPN" xlink:title="AP030" d="M14841.431,-4531.7842L14842.4974,-4532.6759"/>
<path content="AP030,1,28,1,1,14,1,8,JPN" xlink:title="AP030" d="M14179.38,-4509.564L14178.7577,-4508.3243L14179.849,-4506.2195L14182.2006,-4505.2858L14182.5678,-4504.1244L14183.5812,-4502.8966L14183.7371,-4501.4252L14183.9905,-4501.0744"/>
<path content="AP030,1,28,1,1,14,1,8,JPN" xlink:title="AP030" d="M14174.8093,-4522.8397L14177.7694,-4520.0834L14177.5796,-4518.869L14177.8073,-4517.8065L14177.6935,-4517.0476L14179.3252,-4514.9605L14178.9078,-4513.6703L14179.1734,-4512.9113L14179.1734,-4511.9627L14179.8944,-4510.3309L14179.38,-4509.564"/>
</g>
</svg>
