<?xml version="1.0" encoding="UTF-8"?>
<svg  xmlns="http://www.w3.org/2000/svg" xmlns:xlink="http://www.w3.org/1999/xlink" xmlns:go="http://purl.org/svgmap/profile" property="f_code,acc,exs,rst,med,rtt,RSU,loc,soc" viewBox="13921.875 -3937.5 70.3125 70.3125" go:dataArea="13921.875 -3937.5 70.3125 70.3125" >
<metadata>
 <rdf:RDF xmlns:rdf="http://www.w3.org/1999/02/22-rdf-syntax-ns#" xmlns:crs="http://opengis.org/xmldtds/transformations.dtd" xmlns:svg="http://www.w3.org/svg" >
  <rdf:Description>
   <crs:CoordinateReferenceSystem rdf:resource="http://purl.org/crs/84" svg:transform="matrix(100.0,0.0,0.0,-100.0,0.0,0.0)" />
  </rdf:Description>
 </rdf:RDF>
</metadata>
<globalCoordinateSystem srsName="http://purl.org/crs/84" transform="matrix(100.0,0.0,0.0,-100.0,0.0,0.0)" />
<defs>
 <g id="p0" >
  <circle cx="0.0" cy="0.0" r="3" stroke="green" stroke-width="2.0" vector-effect="non-scaling-stroke" />
 </g>
</defs>
<g fill="none" fill-rule="evenodd" stroke="#00ff00" stroke-width="2" opacity="0.5" vector-effect="non-scaling-stroke" stroke-linejoin="bevel" >
<path content="AP030,1,28,1,0,14,1,8,JPN" xlink:title="AP030" d="M13992.1875,-3924.3623L13992.1799,-3924.353L13992.0395,-3924.2798L13991.832,-3924.2386L13991.7694,-3924.2264L13991.5604,-3924.2466L13991.5405,-3924.2599L13991.4505,-3924.1199L13991.1804,-3923.7198L13991.1499,-3923.6866L13991.1102,-3923.5264L13990.9897,-3923.3463L13990.6998,-3922.8931L13990.5807,-3922.6799L13990.4694,-3922.44L13990.3793,-3922.3L13990.2405,-3922.1733L13990.1993,-3922.0264L13990.1505,-3921.8132L13990.1306,-3921.6866L13990.1093,-3921.4531L13990.0604,-3921.1266L13990.0604,-3921.0533L13990.1093,-3920.9267L13990.1093,-3920.7466L13990.1093,-3920.62L13990.1794,-3920.4998L13990.3793,-3920.2801L13990.5396,-3920.1L13990.6799,-3919.92"/>
<path content="AP030,1,28,1,0,15,1,8,JPN" xlink:title="AP030" d="M13990.6799,-3919.92L13991.0686,-3919.9718L13991.3132,-3919.7577L13991.6801,-3919.7894L13991.8,-3919.899L13991.833,-3920.0908L13992.0267,-3920.1543L13992.1875,-3920.0887"/>
<path content="AP030,1,28,1,0,14,1,8,JPN" xlink:title="AP030" d="M13990.6799,-3919.92L13990.7898,-3919.7598L13990.8997,-3919.5599L13990.8798,-3919.36L13990.8295,-3919.2532L13990.8295,-3919.1799L13990.86,-3919.0731L13990.9897,-3918.84L13990.9897,-3918.8L13990.9302,-3918.5131L13990.8997,-3918.3865L13990.8997,-3918.3201L13990.8295,-3918.2266L13990.8295,-3918.0664L13990.8997,-3917.9199L13990.8798,-3917.7933L13990.86,-3917.72L13990.6998,-3917.5934L13990.5396,-3917.4664L13990.5197,-3917.4L13990.5396,-3917.1467L13990.5396,-3917.1066L13990.5197,-3916.9865L13990.2695,-3916.5131L13990.1794,-3916.3864L13990.1093,-3916.2998L13990.0604,-3916.2266L13990.0803,-3916.1331L13990.1123,-3916.0275L13990.1306,-3915.9733L13990.1306,-3915.8665L13990.0604,-3915.6666L13989.8804,-3915.3797L13989.8102,-3915.2733L13989.5203,-3915.0398L13989.4897,-3914.9998L13989.0198,-3914.6599L13988.9893,-3914.6198L13988.9496,-3914.5332L13988.9893,-3914.4798L13989.18,-3914.1533L13989.2197,-3914.0465L13989.2395,-3913.9L13989.2395,-3913.1268L13989.2395,-3912.9665L13989.1495,-3912.8731L13988.9893,-3912.7865L13988.7573,-3912.7316L13988.6795,-3912.7132L13988.5193,-3912.6198L13988.4506,-3912.5668L13988.2401,-3912.4798L13988.1805,-3912.4065L13988.06,-3912.1532L13987.97,-3912.0464L13987.8601,-3911.94L13987.6099,-3911.8134L13987.4893,-3911.7599L13987.2894,-3911.4864L13987.2696,-3911.4532L13987.2894,-3911.3464L13987.3596,-3911.2331L13987.4496,-3911.1267L13987.4893,-3911.0733L13987.5793,-3910.8398L13987.6297,-3910.7468L13987.7701,-3910.68L13987.9303,-3910.5667L13987.9898,-3910.4797L13988.0402,-3910.3001L13988.0402,-3910.2264L13987.9898,-3910.0266L13987.9898,-3909.9533L13988.0402,-3909.8133"/>
<path content="AP030,1,28,1,0,14,1,8,JPN" xlink:title="AP030" d="M13988.0402,-3909.8133L13988.1778,-3909.6996L13988.3016,-3909.5067L13988.3667,-3909.2681L13988.3211,-3909.0701L13988.2299,-3908.9432L13988.0085,-3908.7198L13987.9173,-3908.5726L13987.8587,-3908.3797L13987.8391,-3908.1716L13987.9303,-3907.9837"/>
<path content="AP030,1,28,1,0,15,1,8,JPN" xlink:title="AP030" d="M13992.1875,-3909.3784L13991.464,-3909.0926L13991.1982,-3908.9789L13991.0522,-3908.853L13990.9897,-3908.6987L13990.9033,-3908.6158L13990.252,-3908.5102L13989.1733,-3908.1122L13988.8711,-3908.2178L13988.4021,-3908.1488L13988.2875,-3907.9945L13988.1676,-3907.9498L13987.9303,-3907.9837"/>
<path content="AP030,1,28,1,0,14,1,8,JPN" xlink:title="AP030" d="M13988.0402,-3909.8133L13988.0798,-3909.7198L13988.0798,-3909.6531L13988.06,-3909.5798L13988.0203,-3909.4666L13987.9501,-3909.2331L13987.8799,-3909.0401L13987.7899,-3908.9466L13987.5595,-3908.8398L13987.4893,-3908.7467L13987.4695,-3908.5667L13987.3993,-3908.0467L13987.3993,-3907.7732L13987.3795,-3907.7065L13987.1506,-3907.5066L13987.1307,-3907.4867L13987.0734,-3907.4178L13987.0605,-3907.3601L13987.0804,-3907.2865L13987.1506,-3907.2533L13987.4695,-3907.2865L13987.6297,-3907.3265L13987.6999,-3907.3067L13987.8098,-3907.1068L13987.8799,-3906.9866"/>
<path content="AP030,1,28,1,0,14,1,8,JPN" xlink:title="AP030" d="M13988.4171,-3906.715L13988.5941,-3906.884L13988.6795,-3906.9668L13988.7894,-3907.2865L13988.7304,-3907.4665L13988.5897,-3907.6371L13988.3606,-3907.74L13988.0801,-3907.8568L13987.9303,-3907.9837"/>
<path content="AP030,1,28,1,0,14,1,8,JPN" xlink:title="AP030" d="M13987.8799,-3906.9866L13988.2706,-3906.8001L13988.4171,-3906.715"/>
<path content="AP030,1,28,1,0,14,1,8,JPN" xlink:title="AP030" d="M13987.5595,-3906.1733L13987.6999,-3906.2599L13987.8601,-3906.3866L13988.1104,-3906.44L13988.2202,-3906.5132L13988.3606,-3906.6601L13988.4171,-3906.715"/>
<path content="AP030,1,28,1,0,14,1,8,JPN" xlink:title="AP030" d="M13987.5595,-3906.1733L13987.6297,-3906.44L13987.7197,-3906.5533L13987.8601,-3906.7867L13987.8799,-3906.9866"/>
<path content="AP030,1,28,1,0,14,1,8,JPN" xlink:title="AP030" d="M13987.5595,-3906.1733L13987.4496,-3905.6534L13987.4298,-3905.5798"/>
<path content="AP030,1,28,1,0,14,1,8,JPN" xlink:title="AP030" d="M13988.5413,-3905.3929L13988.6488,-3905.7844L13988.6813,-3906.1753L13988.8897,-3906.2616L13988.7595,-3906.3987L13988.5836,-3906.5561L13988.4171,-3906.715"/>
<path content="AP030,1,28,1,0,14,1,8,JPN" xlink:title="AP030" d="M13987.4298,-3905.5798L13987.6495,-3905.5267L13987.8296,-3905.4333L13988.0203,-3905.3066L13988.1751,-3905.3041L13988.346,-3905.3739L13988.5413,-3905.3929"/>
<path content="AP030,1,28,1,0,14,1,8,JPN" xlink:title="AP030" d="M13988.5413,-3905.3929L13988.8261,-3905.3485L13989.0032,-3905.2444L13989.2506,-3905.0363L13989.36,-3904.8599L13989.3997,-3904.6799L13989.5599,-3904.5532L13990.1794,-3904.0665"/>
<path content="AP030,1,28,1,0,15,1,8,JPN" xlink:title="AP030" d="M13991.3605,-3901.5064L13991.7921,-3901.5891L13991.8285,-3901.8815L13992.1825,-3901.8734L13992.1875,-3901.8741"/>
<path content="AP030,1,28,1,0,14,1,8,JPN" xlink:title="AP030" d="M13990.1794,-3904.0665L13990.2206,-3904.0131L13990.3595,-3903.9532L13990.4495,-3903.9532L13990.4907,-3903.8998L13990.4495,-3903.7598L13990.4694,-3903.7197L13990.4694,-3903.6865L13990.6998,-3903.5267L13990.7394,-3903.413L13990.947,-3903.2234L13991.1102,-3903.0731L13991.1102,-3902.9667L13991.04,-3902.7332L13990.9897,-3902.6199L13991.0202,-3902.5131L13991.0599,-3902.3197L13991.0599,-3902.1732L13990.9897,-3901.8467L13990.9698,-3901.7731L13990.8997,-3901.5598L13991.2003,-3901.5266L13991.3605,-3901.5064"/>
<path content="AP030,1,28,1,0,14,1,8,JPN" xlink:title="AP030" d="M13991.3605,-3901.5064L13991.36,-3901.1423"/>
<path content="AP030,1,28,1,0,14,1,8,JPN" xlink:title="AP030" d="M13991.36,-3901.1423L13991.0935,-3901.0981L13990.581,-3901.0093L13990.0192,-3900.9998"/>
<path content="AP030,1,28,1,0,14,1,8,JPN" xlink:title="AP030" d="M13990.1794,-3904.0665L13990.1505,-3903.6865L13990.1794,-3903.5599L13990.3595,-3903.4332L13990.5594,-3903.3066L13990.5594,-3903.1998L13990.2695,-3901.9733L13990.0192,-3900.9998"/>
<path content="AP030,1,28,1,0,14,1,8,JPN" xlink:title="AP030" d="M13991.36,-3901.1423L13991.5604,-3901.0731L13991.6504,-3900.9464L13991.6504,-3900.8732L13991.6504,-3900.7999L13991.6504,-3900.7133L13991.7007,-3900.6397L13991.9006,-3900.4799L13991.9296,-3900.3731L13991.9006,-3900.0999L13992.1295,-3899.7601L13992.1494,-3899.7066L13992.1799,-3899.6532L13992.1799,-3899.3065L13992.1875,-3899.2954"/>
<path content="AP030,1,28,1,0,14,1,8,JPN" xlink:title="AP030" d="M13987.4298,-3905.5798L13987.2192,-3904.9999L13987.0804,-3904.4399L13987.0407,-3904.1332L13987.0407,-3903.9734L13986.9904,-3903.8334L13986.8805,-3903.6865L13986.7706,-3903.5599L13986.5601,-3903.22L13986.38,-3902.6798L13986.3098,-3902.4265L13986.2396,-3902.2064L13986.2396,-3901.9199L13986.2,-3901.6132L13986.0596,-3901.2333L13986.0397,-3901.1799L13986.0199,-3901.1066L13985.9894,-3900.9998L13985.9299,-3900.8598L13985.8307,-3900.6931L13985.5804,-3900.3201L13985.5194,-3900.2266L13985.4904,-3900.0134L13985.4004,-3899.8131L13985.2203,-3899.5266L13985.1303,-3899.1798L13985.1501,-3898.8598L13985.1501,-3898.7667L13985.2005,-3898.5867L13985.1501,-3898.4066L13985.0204,-3898.1731L13984.7397,-3897.8664L13984.5795,-3897.5266L13984.5398,-3897.3801L13984.4498,-3897.1466L13984.3796,-3896.9467L13984.1507,-3896.3531"/>
<path content="AP030,1,28,1,0,15,1,8,JPN" xlink:title="AP030" d="M13988.6937,-3896.1928L13988.8973,-3896.609L13988.9076,-3896.8008L13988.814,-3896.8577L13988.8088,-3897.4872L13988.7411,-3897.9421L13988.7463,-3898.1817L13989.2463,-3898.8132L13989.4934,-3899.5037L13989.7536,-3899.6966L13990.0192,-3900.9998"/>
<path content="AP030,1,28,1,0,15,1,8,JPN" xlink:title="AP030" d="M13988.6937,-3896.1928L13989.0793,-3896.1826L13990.1353,-3896.3207L13991.4269,-3896.4835L13991.8726,-3896.5605L13992.1875,-3896.5538"/>
<path content="AP030,1,28,1,0,15,1,8,JPN" xlink:title="AP030" d="M13985.4736,-3896.1803L13985.4682,-3896.9329L13985.5658,-3897.1816L13985.7869,-3897.3999L13986.3656,-3897.7198L13986.6518,-3897.8162L13986.8271,-3899.1226L13987.3169,-3900.3189L13988.1592,-3903.3554L13988.2239,-3904.3713L13988.3785,-3905.1327L13988.5413,-3905.3929"/>
<path content="AP030,1,28,1,0,15,1,8,JPN" xlink:title="AP030" d="M13984.1507,-3896.3531L13984.4833,-3896.3388L13984.8003,-3896.4466L13984.9873,-3896.4593L13985.2067,-3896.4149L13985.4736,-3896.1803"/>
<path content="AP030,1,28,1,0,15,1,8,JPN" xlink:title="AP030" d="M13985.4736,-3896.1803L13985.7594,-3896.0532L13986.1902,-3895.9517"/>
<path content="AP030,1,28,1,0,15,1,8,JPN" xlink:title="AP030" d="M13986.1902,-3895.9517L13986.7917,-3895.8057L13987.0356,-3895.8565L13987.3688,-3895.9644L13988.1573,-3896.0342L13988.4011,-3896.1611L13988.6937,-3896.1928"/>
<path content="AP030,1,28,1,0,14,1,8,JPN" xlink:title="AP030" d="M13984.1507,-3896.3531L13984.0393,-3896.0464L13983.9005,-3895.6532L13983.8303,-3895.4533L13983.8303,-3895.4132L13983.7692,-3895.2"/>
<path content="AP030,1,28,1,0,15,1,8,JPN" xlink:title="AP030" d="M13984.1797,-3894.733L13984.3284,-3894.8036L13984.777,-3895.1335L13985.1021,-3895.7884L13985.4736,-3896.1803"/>
<path content="AP030,1,28,1,0,14,1,8,JPN" xlink:title="AP030" d="M13983.7692,-3895.2L13983.9905,-3894.8933L13984.1797,-3894.733"/>
<path content="AP030,1,28,1,0,14,1,8,JPN" xlink:title="AP030" d="M13988.7894,-3894.26L13988.8794,-3894.3199L13989.3295,-3894.5667L13989.65,-3894.9131L13989.9307,-3895.0733L13990.0192,-3895.1267L13990.4297,-3895.38L13990.6097,-3895.4865L13990.95,-3895.7397L13991.4505,-3896.0999L13991.5405,-3896.133L13992.0593,-3896.2601L13992.1875,-3896.3131"/>
<path content="AP030,1,28,1,0,15,1,8,JPN" xlink:title="AP030" d="M13988.6937,-3896.1928L13988.6693,-3896.0532L13988.5393,-3895.9009L13988.5068,-3895.8057L13988.7894,-3894.26"/>
<path content="AP030,1,28,1,0,14,1,8,JPN" xlink:title="AP030" d="M13987.1546,-3893.1448L13987.5862,-3893.352L13987.7838,-3893.4698L13988.1997,-3893.9612L13988.3102,-3894.0266L13988.5406,-3894.12L13988.7894,-3894.26"/>
<path content="AP030,1,28,1,0,16,1,8,JPN" xlink:title="AP030" d="M13986.1902,-3895.9517L13986.0521,-3895.6725L13986.0521,-3895.5075L13986.3632,-3894.7361L13986.7192,-3894.0039L13987.1546,-3893.1448"/>
<path content="AP030,1,28,1,0,14,1,8,JPN" xlink:title="AP030" d="M13985.9432,-3892.9864L13986.4527,-3893.0027L13986.7543,-3893.0311L13986.9674,-3893.0677L13987.1546,-3893.1448"/>
<path content="AP030,1,28,1,0,14,1,8,JPN" xlink:title="AP030" d="M13984.1797,-3894.733L13984.3796,-3894.5534L13984.8999,-3894.26L13985.1105,-3894.173L13985.2905,-3894.08L13985.5789,-3893.9354L13985.6094,-3893.9198L13985.7895,-3893.7199L13985.8307,-3893.6333L13985.9497,-3893.4532L13985.9432,-3892.9864"/>
<path content="AP030,1,28,1,0,14,1,8,JPN" xlink:title="AP030" d="M13983.9294,-3892.1932L13983.8104,-3892.2066L13983.5205,-3892.3L13983.4,-3892.3332L13983.3099,-3892.4065L13983.0399,-3892.7334L13982.9498,-3892.86L13982.8995,-3892.9665L13982.6294,-3893.56L13982.5607,-3893.8332L13982.4905,-3893.8465L13982.7896,-3894.0468L13983.11,-3894.26L13983.2901,-3894.4065L13983.4503,-3894.5667L13983.6304,-3894.9467L13983.7692,-3895.2"/>
<path content="AP030,1,28,1,0,15,1,8,JPN" xlink:title="AP030" d="M13985.9432,-3892.9864L13984.3049,-3893.054L13984.2581,-3892.7454L13984.2685,-3892.4773L13984.2633,-3892.1077L13983.9294,-3892.1932"/>
<path content="AP030,1,28,1,0,16,1,8,JPN" xlink:title="AP030" d="M13987.1546,-3893.1448L13987.7214,-3891.9183L13987.8269,-3891.5269"/>
<path content="AP030,1,28,1,0,15,1,8,JPN" xlink:title="AP030" d="M13987.8269,-3891.5269L13988.3901,-3891.4409L13988.7419,-3891.405L13989.1387,-3891.2622L13989.279,-3891.315L13989.5442,-3891.3069L13989.6238,-3891.2709L13990.1056,-3891.3434L13990.2875,-3891.4287L13990.8438,-3891.4125L13991.0257,-3891.4165L13991.173,-3891.4618L13991.381,-3891.6161L13991.2874,-3891.941L13992.1875,-3892.1356"/>
<path content="AP030,1,28,1,0,14,1,8,JPN" xlink:title="AP030" d="M13985.9432,-3892.9864L13985.9299,-3892.4267L13985.8994,-3891.9933L13985.8994,-3891.9533L13985.8185,-3891.3357L13985.7895,-3891.1266L13985.7245,-3890.7904"/>
<path content="AP030,1,28,1,0,16,1,8,JPN" xlink:title="AP030" d="M13987.8269,-3891.5269L13987.8581,-3890.8243L13987.7305,-3890.3589L13987.568,-3890.0099"/>
<path content="AP030,1,28,1,0,15,1,8,JPN" xlink:title="AP030" d="M13985.7245,-3890.7904L13986.4229,-3890.5493L13986.6828,-3890.3462L13987.568,-3890.0099"/>
<path content="AP030,1,28,1,0,15,1,8,JPN" xlink:title="AP030" d="M13987.568,-3890.0099L13988.0391,-3889.7307L13988.3314,-3889.6609L13988.6888,-3889.6609L13989.4441,-3889.6672L13989.704,-3889.8386L13989.8583,-3889.9274L13990.0369,-3889.9464L13990.24,-3889.8766L13990.3862,-3889.8068L13990.5567,-3889.6101L13990.7435,-3889.3753L13990.9141,-3889.2167L13992.1875,-3888.9132"/>
<path content="AP030,1,28,1,0,14,1,8,JPN" xlink:title="AP030" d="M13984.1293,-3888.533L13984.4894,-3888.7867L13984.8999,-3889.0732L13985.2905,-3889.3265L13985.4904,-3889.5065L13985.6293,-3890.0997L13985.7245,-3890.7904"/>
<path content="AP030,1,28,1,0,16,1,8,JPN" xlink:title="AP030" d="M13987.568,-3890.0099L13987.2757,-3889.4578L13986.0308,-3887.5488"/>
<path content="AP030,1,28,1,0,14,1,8,JPN" xlink:title="AP030" d="M13984.1293,-3888.533L13984.3094,-3888.3732L13984.4894,-3888.1733L13984.8297,-3888.0131L13986.0308,-3887.5488"/>
<path content="AP030,1,28,1,0,16,1,8,JPN" xlink:title="AP030" d="M13986.0308,-3887.5488L13985.8542,-3887.3945L13985.4386,-3887.2361L13984.8151,-3887.1224L13984.1507,-3886.9865"/>
<path content="AP030,1,28,1,0,14,1,8,JPN" xlink:title="AP030" d="M13984.1293,-3888.533L13983.9294,-3888.4068L13983.7906,-3888.2797L13983.8303,-3888.0798L13983.8303,-3888.0264L13984.1507,-3886.9865"/>
<path content="AP030,1,28,1,0,16,1,8,JPN" xlink:title="AP030" d="M13982.2205,-3886.6932L13984.1507,-3886.9865"/>
<path content="AP030,1,28,1,0,15,1,8,JPN" xlink:title="AP030" d="M13990.3595,-3884.3533L13991.0095,-3884.9476L13991.2796,-3885.1936L13992.1875,-3885.6311"/>
<path content="AP030,1,28,1,0,14,1,8,JPN" xlink:title="AP030" d="M13986.0308,-3887.5488L13986.4304,-3887.4332L13986.7004,-3887.4001L13986.9904,-3887.3798L13987.1307,-3887.3466L13987.4893,-3887.22L13988.0203,-3886.9865L13988.2202,-3886.9133L13988.4293,-3886.8401L13988.5803,-3886.7466L13988.6993,-3886.6199L13988.9297,-3886.2267L13989.0594,-3885.9734L13989.1098,-3885.8868L13989.1296,-3885.7067L13989.2197,-3885.1665L13989.2395,-3885.0731L13989.2899,-3884.7668L13989.3097,-3884.7134L13989.5203,-3884.6199L13990.3595,-3884.3533"/>
<path content="AP030,1,28,1,0,14,1,8,JPN" xlink:title="AP030" d="M13990.3595,-3884.3533L13990.8295,-3884.193"/>
<path content="AP030,1,28,1,0,15,1,8,JPN" xlink:title="AP030" d="M13982.2205,-3886.6932L13982.1329,-3886.346L13981.9401,-3886.1614L13982.0964,-3885.5662L13982.0864,-3885.4284L13981.7837,-3884.7372L13981.6393,-3884.5235L13981.6127,-3884.4299L13981.6061,-3884.2557L13981.4931,-3883.8892"/>
<path content="AP030,1,28,1,0,14,1,8,JPN" xlink:title="AP030" d="M13978.4897,-3883.54L13978.6804,-3883.9199L13978.7903,-3884.2598L13979.0405,-3884.4997L13979.2892,-3884.9865L13979.3106,-3885.0533L13979.4907,-3885.3466L13979.5807,-3885.4866L13979.8599,-3885.8868L13979.9896,-3886.153L13979.9896,-3886.7332L13980.04,-3886.9267L13980.1102,-3887.1666L13980.1102,-3887.22L13980.0797,-3887.4332L13980.13,-3887.6667L13980.2902,-3887.8998L13980.4901,-3888.5864L13980.6503,-3889.1666L13980.9692,-3889.3467L13981.4697,-3889.653L13981.9305,-3889.8998L13982.2906,-3890.0997L13983.2001,-3890.62L13983.5205,-3890.7997L13983.6105,-3890.86L13983.5205,-3891.1064L13983.49,-3891.2731L13983.6502,-3891.5264L13983.6807,-3891.5798L13983.8806,-3892.0132L13983.9294,-3892.1932"/>
<path content="AP030,1,28,1,0,16,1,8,JPN" xlink:title="AP030" d="M13980.5093,-3883.3942L13980.9906,-3884.193L13981.2386,-3884.5319L13981.5598,-3885.1799L13981.6803,-3885.593L13981.6803,-3886.1198L13981.6803,-3886.3197L13981.81,-3886.5334L13981.9901,-3886.6398L13982.2205,-3886.6932"/>
<path content="AP030,1,28,1,0,15,1,8,JPN" xlink:title="AP030" d="M13978.4897,-3883.54L13980.5093,-3883.3942"/>
<path content="AP030,1,28,1,0,15,1,8,JPN" xlink:title="AP030" d="M13981.4931,-3883.8892L13981.2438,-3883.7359L13981.1208,-3883.6137L13981.0144,-3883.3578"/>
<path content="AP030,1,28,1,0,15,1,8,JPN" xlink:title="AP030" d="M13980.5093,-3883.3942L13980.8017,-3883.402L13981.0144,-3883.3578"/>
<path content="AP030,1,28,1,0,14,1,8,JPN" xlink:title="AP030" d="M13984.1507,-3886.9865L13984.4299,-3886.1198L13984.4894,-3885.92L13984.7,-3885.36L13984.8297,-3884.893L13984.8602,-3884.84L13984.8999,-3884.6931L13984.8999,-3884.66L13984.8999,-3884.3201L13984.8999,-3883.8665L13984.7702,-3883.3797L13984.6802,-3882.9468"/>
<path content="AP030,1,28,1,0,14,1,8,JPN" xlink:title="AP030" d="M13984.6802,-3882.9468L13983.6105,-3882.3532"/>
<path content="AP030,1,28,1,0,15,1,8,JPN" xlink:title="AP030" d="M13981.4931,-3883.8892L13981.7656,-3883.6631L13982.2076,-3883.5721L13982.3206,-3883.3694L13982.5609,-3882.9938L13982.6173,-3882.8378L13982.634,-3882.6221L13982.7104,-3882.5363L13982.82,-3882.4817L13983.1789,-3882.4895L13983.3484,-3882.4765L13983.4714,-3882.4375L13983.6105,-3882.3532"/>
<path content="AP030,1,28,1,0,14,1,8,JPN" xlink:title="AP030" d="M13983.6105,-3882.3532L13983.3099,-3882.0999L13983.2587,-3881.9983L13983.2397,-3881.8867L13983.2838,-3881.4296"/>
<path content="AP030,1,28,1,0,15,1,8,JPN" xlink:title="AP030" d="M13981.0144,-3883.3578L13980.9283,-3883.0757L13980.9218,-3882.7711L13980.8958,-3882.5579L13980.6622,-3882.2482L13980.5454,-3881.6999L13982.1613,-3881.4156L13983.2838,-3881.4296"/>
<path content="AP030,1,28,1,0,15,1,8,JPN" xlink:title="AP030" d="M13984.8721,-3881.3968L13985.0441,-3881.4458L13985.2435,-3881.6018L13985.6338,-3881.644L13985.881,-3882.1789L13986.3587,-3882.3698L13986.5456,-3882.5445L13987.1324,-3883.0603L13987.3817,-3883.3567L13987.9217,-3883.3161L13988.0203,-3883.3614L13988.4811,-3884.0748L13988.6227,-3884.1975L13988.7473,-3884.2056L13989.9884,-3883.8604L13990.1442,-3883.9822L13990.3595,-3884.3533"/>
<path content="AP030,1,28,1,0,14,1,8,JPN" xlink:title="AP030" d="M13984.6802,-3882.9468L13984.6298,-3882.6401L13984.5596,-3882.2266L13984.5795,-3881.9199L13984.7198,-3881.6532L13984.8721,-3881.3968"/>
<path content="AP030,1,28,1,0,14,1,8,JPN" xlink:title="AP030" d="M13984.8721,-3881.3968L13984.9278,-3881.3028"/>
<path content="AP030,1,28,1,0,15,1,8,JPN" xlink:title="AP030" d="M13984.2468,-3881.0462L13984.4391,-3881.1314L13984.9278,-3881.3028"/>
<path content="AP030,1,28,1,0,15,1,8,JPN" xlink:title="AP030" d="M13983.2838,-3881.4296L13983.8232,-3881.4426L13983.8481,-3881.2606L13983.9477,-3881.1371L13984.0599,-3881.0787L13984.2468,-3881.0462"/>
<path content="AP030,1,28,1,0,16,1,8,JPN" xlink:title="AP030" d="M13979.9953,-3880.9513L13980.1365,-3881.1313L13980.22,-3881.3065L13980.2144,-3881.4816L13980.1885,-3881.6288L13980.1102,-3882.0801L13980.13,-3882.4066L13980.22,-3882.7667L13980.5093,-3883.3942"/>
<path content="AP030,1,28,1,0,15,1,8,JPN" xlink:title="AP030" d="M13990.8295,-3884.193L13990.4709,-3881.7039L13990.1024,-3880.8632"/>
<path content="AP030,1,28,1,0,15,1,8,JPN" xlink:title="AP030" d="M13990.1024,-3880.8632L13990.4468,-3880.7597"/>
<path content="AP030,1,28,1,0,14,1,8,JPN" xlink:title="AP030" d="M13984.9278,-3881.3028L13985.0026,-3881.1859L13985.1105,-3881.02L13985.2707,-3880.6801"/>
<path content="AP030,1,28,1,0,15,1,8,JPN" xlink:title="AP030" d="M13985.2707,-3880.6801L13987.4572,-3880.6517L13988.1588,-3880.7575L13988.5792,-3881.1109L13989.254,-3881.2124L13989.6715,-3880.981L13990.1024,-3880.8632"/>
<path content="AP030,1,28,1,0,14,1,8,JPN" xlink:title="AP030" d="M13990.8295,-3884.193L13991.1102,-3884.1L13991.2003,-3884.0466L13991.3605,-3883.7933L13991.3696,-3883.7803L13991.4902,-3883.6132L13991.8304,-3883.4667L13992.1875,-3883.353"/>
<path content="AP030,1,28,1,0,15,1,8,JPN" xlink:title="AP030" d="M13983.4497,-3879.5808L13983.9666,-3879.8346L13984.1762,-3880.3768L13984.2468,-3881.0462"/>
<path content="AP030,1,28,1,0,14,1,8,JPN" xlink:title="AP030" d="M13983.2838,-3881.4296L13983.4497,-3879.5808"/>
<path content="AP030,1,28,1,0,15,1,8,JPN" xlink:title="AP030" d="M13990.4468,-3880.7597L13990.6162,-3880.7089L13991.509,-3880.6033L13992.0852,-3880.3027L13992.1875,-3880.2801"/>
<path content="AP030,1,28,1,0,15,1,8,JPN" xlink:title="AP030" d="M13979.9953,-3880.9513L13980.4502,-3880.7676L13980.0674,-3880.2802L13979.8469,-3880.0264L13979.6393,-3879.7014L13979.516,-3879.5035L13979.3656,-3878.9145"/>
<path content="AP030,1,28,1,0,15,1,8,JPN" xlink:title="AP030" d="M13979.3656,-3878.9145L13980.146,-3878.8986L13980.5919,-3878.8907"/>
<path content="AP030,1,28,1,0,15,1,8,JPN" xlink:title="AP030" d="M13980.5919,-3878.8907L13981.1493,-3878.8827L13982.3552,-3879.1366L13983.4497,-3879.5808"/>
<path content="AP030,1,28,1,0,14,1,8,JPN" xlink:title="AP030" d="M13976.4734,-3878.6455L13976.8997,-3879.2534L13976.9699,-3879.4533L13976.9897,-3879.6131L13977.2705,-3880.08L13977.5803,-3880.4798L13977.7405,-3880.6599L13977.8793,-3880.8735L13977.9007,-3881.3801L13977.8793,-3881.5399L13977.8793,-3881.9733L13977.9007,-3882.4265L13977.9495,-3882.84L13977.9907,-3882.9865L13978.0197,-3883.0399L13978.215,-3883.1833L13978.3096,-3883.2535L13978.4897,-3883.54"/>
<path content="AP030,1,28,1,0,15,1,8,JPN" xlink:title="AP030" d="M13978.5447,-3878.5654L13978.7981,-3878.5813L13979.0819,-3878.8669L13979.3656,-3878.9145"/>
<path content="AP030,1,28,1,0,16,1,8,JPN" xlink:title="AP030" d="M13978.5447,-3878.5654L13978.8101,-3879.0398L13979.3304,-3880.0465L13979.95,-3880.9132L13979.9953,-3880.9513"/>
<path content="AP030,1,28,1,0,15,1,8,JPN" xlink:title="AP030" d="M13976.4734,-3878.6455L13977.3752,-3878.879L13977.9007,-3878.8739L13978.5447,-3878.5654"/>
<path content="AP030,1,28,1,0,15,1,8,JPN" xlink:title="AP030" d="M13979.3656,-3878.9145L13979.2237,-3878.5892L13978.6664,-3878.0101L13978.2509,-3877.9863"/>
<path content="AP030,1,28,1,0,16,1,8,JPN" xlink:title="AP030" d="M13978.5447,-3878.5654L13978.3319,-3878.2957L13978.2509,-3877.9863"/>
<path content="AP030,1,28,1,0,14,1,8,JPN" xlink:title="AP030" d="M13985.2707,-3880.6801L13985.2707,-3880.3867L13985.2203,-3880.2799L13984.79,-3879.9934L13984.6802,-3879.8866L13984.6497,-3879.8134L13984.6497,-3879.5933L13984.7,-3879.4666L13984.7702,-3879.38L13984.7397,-3879.2198L13984.5596,-3878.4397L13984.5596,-3878.3333L13984.5795,-3878.2467L13985.0403,-3877.5932"/>
<path content="AP030,1,28,1,0,15,1,8,JPN" xlink:title="AP030" d="M13990.4468,-3880.7597L13990.4999,-3879.5334L13990.5945,-3879.1756L13991.0202,-3877.5398"/>
<path content="AP030,1,28,1,0,14,1,8,JPN" xlink:title="AP030" d="M13991.0202,-3877.5398L13991.1499,-3877.5398L13991.3605,-3877.56L13991.5802,-3877.5932L13991.6794,-3877.5932L13991.9495,-3877.56L13992.0593,-3877.5799L13992.1875,-3877.6242"/>
<path content="AP030,1,28,1,0,14,1,8,JPN" xlink:title="AP030" d="M13983.4497,-3879.5808L13983.4396,-3878.732L13983.1558,-3878.1133L13983.1457,-3877.8753L13983.2065,-3877.5104"/>
<path content="AP030,1,28,1,0,14,1,8,JPN" xlink:title="AP030" d="M13984.7397,-3876.9665L13984.7702,-3877L13984.9701,-3877.2198L13985.0601,-3877.3598L13985.0601,-3877.3998L13985.08,-3877.4666L13985.0601,-3877.5066L13985.0403,-3877.5932"/>
<path content="AP030,1,28,1,0,15,1,8,JPN" xlink:title="AP030" d="M13983.2065,-3877.5104L13983.8348,-3877.7166L13984.2503,-3877.558L13984.7397,-3876.9665"/>
<path content="AP030,1,28,1,0,15,1,8,JPN" xlink:title="AP030" d="M13980.5919,-3878.8907L13980.5615,-3878.3988L13980.8756,-3878.0498L13980.9162,-3877.0582L13981.0276,-3876.9313"/>
<path content="AP030,1,28,1,0,15,1,8,JPN" xlink:title="AP030" d="M13981.0276,-3876.9313L13981.96,-3876.9234L13982.6086,-3876.8837L13982.7809,-3877.4707L13983.2065,-3877.5104"/>
<path content="AP030,1,28,1,0,14,1,8,JPN" xlink:title="AP030" d="M13991.0202,-3877.5398L13990.95,-3877.1667L13990.8798,-3876.7666L13990.86,-3876.6598L13990.8295,-3876.4599L13990.7394,-3876.3199"/>
<path content="AP030,1,28,1,0,15,1,8,JPN" xlink:title="AP030" d="M13985.0403,-3877.5932L13985.4914,-3877.5367L13986.913,-3877.0046L13989.2259,-3876.3991L13989.3919,-3876.529L13989.6202,-3876.5981L13990.388,-3876.4519L13990.7394,-3876.3199"/>
<path content="AP030,1,28,1,0,14,1,8,JPN" xlink:title="AP030" d="M13976.4734,-3878.6455L13976.3306,-3878.6198L13975.8102,-3878.5133L13975.7004,-3878.4798L13975.5798,-3878.5133L13975.5203,-3878.5L13975.3799,-3878.4267L13975.1495,-3878.0266L13974.8993,-3877.5799L13974.8093,-3877.4532L13974.6094,-3877.3598L13974.2203,-3877.2198L13974.1302,-3877.1267L13973.9899,-3877.0199L13973.7701,-3876.9264L13973.6298,-3876.82L13973.4894,-3876.7666L13973.4497,-3876.7334L13973.3795,-3876.6399L13973.3994,-3876.5667L13973.5199,-3876.3866L13973.5199,-3876.3199L13973.5199,-3876.26L13973.4497,-3876.2066"/>
<path content="AP030,1,28,1,0,15,1,8,JPN" xlink:title="AP030" d="M13977.8962,-3876.1618L13978.7069,-3876.2967L13980.2676,-3876.8758L13981.0276,-3876.9313"/>
<path content="AP030,1,28,1,0,16,1,8,JPN" xlink:title="AP030" d="M13978.2509,-3877.9863L13978.1097,-3877.1465L13977.9457,-3876.6043L13977.8962,-3876.384L13977.8962,-3876.1618"/>
<path content="AP030,1,28,1,0,14,1,8,JPN" xlink:title="AP030" d="M13989.9506,-3876.0468L13990.2405,-3876.0799L13990.3793,-3876.12L13990.5807,-3876.1932L13990.7394,-3876.3199"/>
<path content="AP030,1,28,1,0,14,1,8,JPN" xlink:title="AP030" d="M13984.7397,-3876.9665L13984.6497,-3876.7864L13984.52,-3876.0132"/>
<path content="AP030,1,28,1,0,15,1,8,JPN" xlink:title="AP030" d="M13976.8259,-3875.9659L13977.8962,-3876.1618"/>
<path content="AP030,1,28,1,0,15,1,8,JPN" xlink:title="AP030" d="M13978.2509,-3877.9863L13977.8894,-3877.9306L13977.5262,-3877.692L13977.1436,-3877.2757L13976.8324,-3876.6817L13976.8259,-3875.9659"/>
<path content="AP030,1,28,1,0,14,1,8,JPN" xlink:title="AP030" d="M13983.2606,-3875.8787L13983.3801,-3875.9533L13983.7204,-3876.0265L13984.0607,-3876.0468L13984.4498,-3875.9933L13984.52,-3876.0132"/>
<path content="AP030,1,28,1,0,14,1,8,JPN" xlink:title="AP030" d="M13983.2065,-3877.5104L13983.2268,-3876.6775L13983.2606,-3875.8787"/>
<path content="AP030,1,28,1,0,14,1,8,JPN" xlink:title="AP030" d="M13988.4705,-3875.7198L13988.6795,-3875.8667L13988.8992,-3875.9197L13989.2197,-3875.9399L13989.9506,-3876.0468"/>
<path content="AP030,1,28,1,0,15,1,8,JPN" xlink:title="AP030" d="M13989.9506,-3876.0468L13989.7217,-3875.2911"/>
<path content="AP030,1,28,1,0,15,1,8,JPN" xlink:title="AP030" d="M13988.4705,-3875.7198L13989.7217,-3875.2911"/>
<path content="AP030,1,28,1,0,14,1,8,JPN" xlink:title="AP030" d="M13982.2403,-3875.0534L13982.4005,-3875.1801L13982.8995,-3875.6535L13983.2606,-3875.8787"/>
<path content="AP030,1,28,1,0,15,1,8,JPN" xlink:title="AP030" d="M13981.0276,-3876.9313L13981.0986,-3876.257L13981.6357,-3875.5272L13982.2403,-3875.0534"/>
<path content="AP030,1,28,1,0,15,1,8,JPN" xlink:title="AP030" d="M13976.8259,-3875.9659L13976.9302,-3874.8734"/>
<path content="AP030,1,28,1,0,16,1,8,JPN" xlink:title="AP030" d="M13977.8962,-3876.1618L13978.1377,-3875.3412L13978.3385,-3874.8429"/>
<path content="AP030,1,28,1,0,14,1,8,JPN" xlink:title="AP030" d="M13976.1993,-3874.8398L13976.3992,-3874.8398L13976.6998,-3874.86L13976.9302,-3874.8734"/>
<path content="AP030,1,28,1,0,14,1,8,JPN" xlink:title="AP030" d="M13976.9302,-3874.8734L13977.4704,-3874.9134L13977.6306,-3874.9134L13977.8305,-3874.8398L13977.8793,-3874.8199L13978.1155,-3874.8348L13978.3385,-3874.8429"/>
<path content="AP030,1,28,1,0,14,1,8,JPN" xlink:title="AP030" d="M13981.9369,-3874.7726L13982.1503,-3875L13982.2403,-3875.0534"/>
<path content="AP030,1,28,1,0,14,1,8,JPN" xlink:title="AP030" d="M13973.4497,-3876.2066L13973.5596,-3876.0468L13973.6801,-3875.9533L13973.6496,-3875.8667L13973.6298,-3875.7732L13973.7396,-3875.6134L13973.88,-3875.4868L13973.9502,-3875.4532L13974.1104,-3875.4665L13974.1302,-3875.4333L13974.1302,-3875.4131L13974.1302,-3875.3468L13974.2905,-3875.2197L13974.6094,-3875L13974.6994,-3874.9466L13974.7192,-3874.9466L13974.8093,-3875.0198L13974.9298,-3875.0198L13974.9893,-3874.9466L13975.0397,-3874.8199L13975.0793,-3874.7868L13975.3296,-3874.7868L13975.3799,-3874.7868L13975.4501,-3874.7131L13975.5203,-3874.6799L13975.6302,-3874.6933L13975.7004,-3874.6933L13976.1993,-3874.8398"/>
<path content="AP030,1,28,1,0,14,1,8,JPN" xlink:title="AP030" d="M13984.52,-3876.0132L13984.4299,-3875.2865L13984.3307,-3874.6799"/>
<path content="AP030,1,28,1,0,15,1,8,JPN" xlink:title="AP030" d="M13989.7217,-3875.2911L13991.0034,-3874.8516L13992.0547,-3874.7646L13992.1875,-3874.789"/>
<path content="AP030,1,28,1,0,14,1,8,JPN" xlink:title="AP030" d="M13980.2002,-3873.9532L13980.2704,-3873.9735L13980.658,-3874.1421L13981.2195,-3874.3866L13981.3995,-3874.4801L13981.5201,-3874.5335L13981.7398,-3874.6201L13981.9,-3874.7334L13981.9369,-3874.7726"/>
<path content="AP030,1,28,1,0,14,1,8,JPN" xlink:title="AP030" d="M13978.3385,-3874.8429L13979.1306,-3874.7467L13979.4495,-3874.5533L13979.9744,-3874.1783L13980.13,-3874.0665L13980.2002,-3873.9532"/>
<path content="AP030,1,28,1,0,14,1,8,JPN" xlink:title="AP030" d="M13983.7204,-3873.6534L13983.7906,-3873.7198L13984.0805,-3873.8667L13984.1599,-3873.9643L13984.1995,-3874.0131L13984.2697,-3874.3198L13984.2697,-3874.3732L13984.3307,-3874.6799"/>
<path content="AP030,1,28,1,0,14,1,8,JPN" xlink:title="AP030" d="M13983.7204,-3873.6534L13984.0805,-3873.6534L13984.1797,-3873.6534"/>
<path content="AP030,1,28,1,0,14,1,8,JPN" xlink:title="AP030" d="M13982.9332,-3873.6424L13983.6304,-3873.6534L13983.7204,-3873.6534"/>
<path content="AP030,1,28,1,0,15,1,8,JPN" xlink:title="AP030" d="M13981.9369,-3874.7726L13982.5053,-3874.2059L13982.635,-3874.0028L13982.8554,-3873.8404L13982.9332,-3873.6424"/>
<path content="AP030,1,28,1,0,14,1,8,JPN" xlink:title="AP030" d="M13984.3307,-3874.6799L13984.5398,-3874.6067L13984.6802,-3874.44L13984.6497,-3874.2065L13984.5581,-3873.9532L13984.52,-3873.8464L13984.4894,-3873.6332"/>
<path content="AP030,1,28,1,0,14,1,8,JPN" xlink:title="AP030" d="M13984.1797,-3873.6534L13984.4894,-3873.6332"/>
<path content="AP030,1,28,1,0,14,1,8,JPN" xlink:title="AP030" d="M13984.4894,-3873.6332L13984.9899,-3873.6534L13985.4004,-3873.6866L13985.5804,-3873.7198L13985.9299,-3873.7064L13986.3602,-3873.6668L13986.7706,-3873.6134L13987.1307,-3873.5931L13987.4695,-3873.7598L13987.6099,-3873.8464L13987.6495,-3873.9532L13987.7899,-3874.2065L13987.8296,-3874.3L13987.9501,-3874.5667L13988.3606,-3875.4333L13988.4705,-3875.7198"/>
<path content="AP030,1,28,1,0,14,1,8,JPN" xlink:title="AP030" d="M13979.4015,-3873.5148L13979.7394,-3873.7598L13979.8599,-3873.8335L13980.2002,-3873.9532"/>
<path content="AP030,1,28,1,0,16,1,8,JPN" xlink:title="AP030" d="M13978.3385,-3874.8429L13978.4629,-3874.6723L13978.8674,-3874.2743L13979.2148,-3873.8153L13979.4015,-3873.5148"/>
<path content="AP030,1,28,1,0,14,1,8,JPN" xlink:title="AP030" d="M13977.7695,-3872.7867L13977.8595,-3872.8397L13977.9907,-3872.8733L13978.5599,-3873.0198L13978.9505,-3873.1998L13979.2459,-3873.3807L13979.4015,-3873.5148"/>
<path content="AP030,1,28,1,0,15,1,8,JPN" xlink:title="AP030" d="M13976.9302,-3874.8734L13977.1434,-3874.4251L13977.2679,-3873.5721L13977.531,-3873.034L13977.7695,-3872.7867"/>
<path content="AP030,1,28,1,0,14,1,8,JPN" xlink:title="AP030" d="M13982.6002,-3872.6758L13982.6797,-3873.04L13982.7698,-3873.0934L13982.9895,-3873.2533L13982.9332,-3873.6424"/>
<path content="AP030,1,28,1,0,15,1,8,JPN" xlink:title="AP030" d="M13980.2002,-3873.9532L13980.3436,-3873.677L13980.4473,-3873.5603L13981.3094,-3873.0729L13982.6002,-3872.6758"/>
<path content="AP030,1,28,1,0,15,1,8,JPN" xlink:title="AP030" d="M13984.1797,-3873.6534L13984.09,-3873.5378L13984.0835,-3873.4058L13983.591,-3873.2434L13983.267,-3872.9692L13983.0313,-3872.5268"/>
<path content="AP030,1,28,1,0,15,1,8,JPN" xlink:title="AP030" d="M13982.6002,-3872.6758L13983.0313,-3872.5268"/>
<path content="AP030,1,28,1,0,14,1,8,JPN" xlink:title="AP030" d="M13984.4894,-3873.6332L13984.4498,-3873.4665L13984.4696,-3873.04L13984.4894,-3872.9134L13984.6497,-3872.5666L13984.7198,-3872.3331L13984.7702,-3872.2466L13984.7389,-3872.0666"/>
<path content="AP030,1,28,1,0,15,1,8,JPN" xlink:title="AP030" d="M13983.0313,-3872.5268L13984.2205,-3872.2138L13984.7389,-3872.0666"/>
<path content="AP030,1,28,1,0,15,1,8,JPN" xlink:title="AP030" d="M13989.7217,-3875.2911L13989.1159,-3873.2876L13988.5315,-3871.7651"/>
<path content="AP030,1,28,1,0,15,1,8,JPN" xlink:title="AP030" d="M13984.7389,-3872.0666L13985.063,-3872.0158L13985.7759,-3872.3915L13986.1454,-3872.4271L13986.9568,-3872.3545L13987.9105,-3872.023L13988.5315,-3871.7651"/>
<path content="AP030,1,28,1,0,15,1,8,JPN" xlink:title="AP030" d="M13988.5315,-3871.7651L13989.6286,-3871.7651L13990.8218,-3871.8018L13991.5375,-3871.7281L13992.1875,-3871.7017"/>
<path content="AP030,1,28,1,0,15,1,8,JPN" xlink:title="AP030" d="M13967.9901,-3871.5935L13969.6884,-3872.8168L13971.1578,-3874.8436L13972.0245,-3875.6016L13973.4497,-3876.2066"/>
<path content="AP030,1,28,1,0,14,1,8,JPN" xlink:title="AP030" d="M13980.4087,-3871.2373L13980.5206,-3871.3066L13980.9692,-3871.6866L13981.1798,-3871.8666L13981.2698,-3871.9734L13981.3293,-3872.0135L13981.3995,-3872.0264L13981.6299,-3872.2267L13981.9,-3872.4998L13981.9305,-3872.4998L13982.2205,-3872.3866L13982.2693,-3872.48L13982.4005,-3872.5666L13982.6002,-3872.6758"/>
<path content="AP030,1,28,1,0,16,1,8,JPN" xlink:title="AP030" d="M13979.4015,-3873.5148L13979.526,-3873.1655L13979.7296,-3872.1227L13979.9837,-3871.7166L13980.2273,-3871.416L13980.4087,-3871.2373"/>
<path content="AP030,1,28,1,0,14,1,8,JPN" xlink:title="AP030" d="M13980.3532,-3871.2185L13980.4087,-3871.2373"/>
<path content="AP030,1,28,1,0,14,1,8,JPN" xlink:title="AP030" d="M13974.2706,-3871.1468L13974.6506,-3871.18L13974.8993,-3871.2334L13975.4303,-3871.4867L13976.2695,-3871.8864L13976.5396,-3872.0135L13977.2705,-3872.3198L13977.3102,-3872.3866L13977.3804,-3872.48L13977.5803,-3872.6799L13977.7695,-3872.7867"/>
<path content="AP030,1,28,1,0,15,1,8,JPN" xlink:title="AP030" d="M13974.2706,-3871.1468L13974.4441,-3871.6111L13974.5569,-3871.8268L13974.6797,-3871.9776L13974.8636,-3872.193L13974.9632,-3872.5543L13975.2337,-3872.8354L13975.5523,-3873.3059L13975.8413,-3873.7955L13976.0936,-3874.1906L13976.1993,-3874.8398"/>
<path content="AP030,1,28,1,0,14,1,8,JPN" xlink:title="AP030" d="M13973.6801,-3870.9999L13973.8602,-3871.0533L13974.1302,-3871.1266L13974.2706,-3871.1468"/>
<path content="AP030,1,28,1,0,14,1,8,JPN" xlink:title="AP030" d="M13967.9901,-3871.5935L13968.4692,-3871.5935L13968.6996,-3871.5935L13968.8995,-3871.7934L13969.1299,-3871.9933L13969.3298,-3872.0264L13969.6793,-3871.9734L13970.1294,-3871.8864L13970.3293,-3871.9398L13970.6299,-3872.0665L13970.8801,-3872.0264L13971.1502,-3871.9532L13971.3303,-3871.9532L13971.4706,-3872.0135L13971.7194,-3872.1333L13971.8994,-3872.1733L13971.9696,-3872.1333L13972.0795,-3872.1199L13972.1802,-3872.0665L13972.29,-3871.9532L13972.6105,-3871.5267L13972.7402,-3871.3264L13972.8638,-3871.1823L13973.0194,-3870.9999L13973.1094,-3870.9866L13973.2407,-3870.9465L13973.3994,-3870.9465L13973.6801,-3870.9999"/>
<path content="AP030,1,28,1,0,14,1,8,JPN" xlink:title="AP030" d="M13966.9006,-3870.7134L13967.3096,-3871.0197L13967.5201,-3871.3264L13967.7002,-3871.5267L13967.9901,-3871.5935"/>
<path content="AP030,1,28,1,0,15,1,8,JPN" xlink:title="AP030" d="M13983.0313,-3872.5268L13982.9559,-3872.3854L13982.9365,-3872.1874L13982.8976,-3871.9132L13983.0855,-3871.4512L13983.2929,-3870.9537L13983.2723,-3870.4771"/>
<path content="AP030,1,28,1,0,16,1,8,JPN" xlink:title="AP030" d="M13980.4087,-3871.2373L13980.5228,-3871.1642L13980.922,-3870.949L13981.1086,-3870.8068L13981.29,-3870.5591L13981.3376,-3870.4118"/>
<path content="AP030,1,28,1,0,14,1,8,JPN" xlink:title="AP030" d="M13980.3532,-3871.2185L13980.4679,-3871.0132L13980.5509,-3870.6924L13980.6649,-3870.5502L13980.8515,-3870.4609L13981.0952,-3870.4243L13981.3376,-3870.4118"/>
<path content="AP030,1,28,1,0,14,1,8,JPN" xlink:title="AP030" d="M13981.3376,-3870.4118L13981.4891,-3870.404L13981.769,-3870.4203L13982.7695,-3870.5949L13983.0235,-3870.5705L13983.2723,-3870.4771"/>
<path content="AP030,1,28,1,0,14,1,8,JPN" xlink:title="AP030" d="M13983.5604,-3870.2928L13983.6304,-3870.3533L13984.3094,-3870.8599L13984.5398,-3871.0197L13984.6497,-3871.2734L13984.7389,-3872.0666"/>
<path content="AP030,1,28,1,0,14,1,8,JPN" xlink:title="AP030" d="M13983.2723,-3870.4771L13983.4226,-3870.3878L13983.5604,-3870.2928"/>
<path content="AP030,1,28,1,0,15,1,8,JPN" xlink:title="AP030" d="M13977.7695,-3872.7867L13977.9458,-3872.64L13978.0184,-3872.3557L13977.671,-3871.7708L13977.5302,-3871.2362L13977.4939,-3870.4604L13977.4213,-3870.0746L13977.1235,-3869.6124"/>
<path content="AP030,1,28,1,0,14,1,8,JPN" xlink:title="AP030" d="M13977.1235,-3869.6124L13977.1805,-3869.5934L13977.3804,-3869.54L13977.6093,-3869.5934L13977.7695,-3869.7933L13977.8595,-3869.8868L13977.9495,-3869.92L13978.1494,-3869.92L13978.3295,-3869.9398L13978.54,-3870.0268L13978.7903,-3870.1534L13979.0207,-3870.1935L13979.1306,-3870.2465L13979.2206,-3870.3533L13979.2206,-3870.5132L13979.2892,-3870.66L13979.4296,-3870.8599L13979.5807,-3870.9267L13979.8798,-3871.0197L13980.0481,-3871.1148L13980.3532,-3871.2185"/>
<path content="AP030,1,28,1,0,15,1,8,JPN" xlink:title="AP030" d="M13966.9006,-3870.7134L13967.1021,-3870.2461L13967.926,-3869.9787L13969.5709,-3869.4447L13969.9036,-3869.6365L13970.7703,-3869.6087L13971.6003,-3870.3526L13971.6232,-3870.372L13971.64,-3870.3766L13972.197,-3870.5288L13972.9187,-3870.499L13973.6801,-3870.9999"/>
<path content="AP030,1,28,1,0,14,1,8,JPN" xlink:title="AP030" d="M13961.9705,-3867.5598L13962.1506,-3867.6865L13962.2406,-3867.8333L13962.3306,-3868.0134L13962.5198,-3868.1732L13962.5793,-3868.2999L13962.6297,-3868.3865L13962.6999,-3868.4799L13962.8296,-3868.5333L13962.8998,-3868.4998L13963.0402,-3868.4399L13963.2401,-3868.3735L13963.4903,-3868.3735L13963.6505,-3868.4265L13963.9496,-3868.6066L13964.2395,-3868.84L13964.36,-3869.0399L13964.4302,-3869.1067L13964.6301,-3869.1666L13964.83,-3869.2532L13965.0803,-3869.4668L13965.2206,-3869.6533L13965.2695,-3869.8666L13965.4007,-3870.0798L13965.6799,-3870.2065L13965.9698,-3870.3197L13966.2003,-3870.4067L13966.4001,-3870.48L13966.4902,-3870.5132L13966.9006,-3870.7134"/>
<path content="AP030,1,28,1,0,15,1,8,JPN" xlink:title="AP030" d="M13990.54,-3867.1875L13992.1875,-3868.6787"/>
<path content="AP030,1,28,1,0,15,1,8,JPN" xlink:title="AP030" d="M13988.5315,-3871.7651L13987.3123,-3870.2747L13986.6573,-3867.1875"/>
<path content="AP030,1,28,1,0,14,1,8,JPN" xlink:title="AP030" d="M13974.5743,-3867.1875L13974.5804,-3867.2001L13974.5605,-3867.2867L13974.4705,-3867.4332L13974.4705,-3867.5598L13974.5605,-3867.6865L13974.7192,-3867.8131L13974.7894,-3867.9733L13974.9298,-3868.5532L13974.9298,-3868.5867L13974.9496,-3868.84L13974.9695,-3869.1067L13975.1099,-3869.3466L13975.2396,-3869.4332L13975.56,-3869.5267L13976.1307,-3869.7067L13976.4297,-3869.7598L13976.6998,-3869.7598L13977.0599,-3869.6335L13977.1235,-3869.6124"/>
<path content="AP030,1,28,1,0,15,1,8,JPN" xlink:title="AP030" d="M13961.9705,-3867.5598L13962.1246,-3867.2565L13962.1598,-3867.1875"/>
<path content="AP030,1,28,1,0,14,1,8,JPN" xlink:title="AP030" d="M13984.016,-3867.1875L13983.9005,-3867.3599L13983.7006,-3867.7734L13983.6502,-3867.8665L13983.6304,-3868.0798L13983.6807,-3868.4998L13983.6807,-3868.8L13983.7006,-3869.0399L13983.6502,-3869.1467L13983.6304,-3869.2333L13983.4,-3869.9532L13983.3603,-3870.1199L13983.5604,-3870.2928"/>
<path content="AP030,1,28,1,0,16,1,8,JPN" xlink:title="AP030" d="M13981.3376,-3870.4118L13981.4041,-3870.2057L13981.5201,-3869.6865L13981.6803,-3869.3066L13981.8802,-3869.0399L13982.2006,-3868.7668L13982.3593,-3868.5532L13982.6096,-3867.9398L13982.9094,-3867.1875"/>
<path content="AP030,1,28,1,0,14,1,8,JPN" xlink:title="AP030" d="M13961.6565,-3867.1875L13961.7401,-3867.2867L13961.9293,-3867.5068L13961.9705,-3867.5598"/>
</g>
</svg>
