<?xml version="1.0" encoding="UTF-8"?>
<svg  xmlns="http://www.w3.org/2000/svg" xmlns:xlink="http://www.w3.org/1999/xlink" xmlns:go="http://purl.org/svgmap/profile" property="f_code,acc,exs,rst,med,rtt,RSU,loc,soc" viewBox="13957.03125 -3550.78125 35.15625 35.15625" go:dataArea="13957.03125 -3550.78125 35.15625 35.15625" >
<metadata>
 <rdf:RDF xmlns:rdf="http://www.w3.org/1999/02/22-rdf-syntax-ns#" xmlns:crs="http://opengis.org/xmldtds/transformations.dtd" xmlns:svg="http://www.w3.org/svg" >
  <rdf:Description>
   <crs:CoordinateReferenceSystem rdf:resource="http://purl.org/crs/84" svg:transform="matrix(100.0,0.0,0.0,-100.0,0.0,0.0)" />
  </rdf:Description>
 </rdf:RDF>
</metadata>
<globalCoordinateSystem srsName="http://purl.org/crs/84" transform="matrix(100.0,0.0,0.0,-100.0,0.0,0.0)" />
<defs>
 <g id="p0" >
  <circle cx="0.0" cy="0.0" r="3" stroke="green" stroke-width="2.0" vector-effect="non-scaling-stroke" />
 </g>
</defs>
<g fill="none" fill-rule="evenodd" stroke="#00ff00" stroke-width="2" opacity="0.5" vector-effect="non-scaling-stroke" stroke-linejoin="bevel" >
<path content="AP030,1,28,1,0,15,1,8,JPN" xlink:title="AP030" d="M13960.2511,-3550.7812L13960.2188,-3550.7481L13959.9991,-3550.5215"/>
<path content="AP030,1,28,1,0,15,1,8,JPN" xlink:title="AP030" d="M13959.5035,-3550.7812L13959.9991,-3550.5215"/>
<path content="AP030,1,28,1,0,16,1,4,JPN" xlink:title="AP030" d="M13976.86,-3550.2266L13977.1103,-3550.3334L13978.1054,-3550.7812"/>
<path content="AP030,1,28,1,0,15,1,8,JPN" xlink:title="AP030" d="M13959.9991,-3550.5215L13960.6094,-3550.1858"/>
<path content="AP030,1,28,1,0,15,1,8,JPN" xlink:title="AP030" d="M13960.6094,-3550.1858L13959.2194,-3549.5602"/>
<path content="AP030,1,28,1,0,16,1,8,JPN" xlink:title="AP030" d="M13959.2862,-3550.7812L13959.2697,-3550.2266L13959.2194,-3549.9001L13959.1995,-3549.72L13959.2194,-3549.5602"/>
<path content="AP030,1,28,1,0,16,1,8,JPN" xlink:title="AP030" d="M13967.3599,-3549.2001L13967.4698,-3549.2535L13968.2602,-3549.5689L13968.7393,-3549.7601L13969.3802,-3549.9733L13969.6793,-3550.1202L13969.8593,-3550.2266L13970.6665,-3550.7812"/>
<path content="AP030,1,28,1,0,16,1,8,JPN" xlink:title="AP030" d="M13959.2194,-3549.5602L13959.2697,-3549.2332L13959.2453,-3549.0757"/>
<path content="AP030,1,28,1,0,15,1,8,JPN" xlink:title="AP030" d="M13959.2194,-3549.5602L13959.2453,-3549.0757"/>
<path content="AP030,1,28,1,0,15,1,8,JPN" xlink:title="AP030" d="M13959.2453,-3549.0757L13959.2667,-3548.6816"/>
<path content="AP030,1,28,1,0,16,1,8,JPN" xlink:title="AP030" d="M13959.2453,-3549.0757L13959.2407,-3549.0398L13959.2407,-3548.84L13959.2667,-3548.6816"/>
<path content="AP030,1,28,1,0,14,1,8,JPN" xlink:title="AP030" d="M13963.4003,-3548.0999L13963.5193,-3548.2067L13963.6505,-3548.32L13963.7405,-3548.3734L13963.9496,-3548.4402L13964.0594,-3548.4798L13964.2395,-3548.5332L13964.3799,-3548.5664L13964.4897,-3548.6935L13964.7003,-3548.7679L13964.7903,-3548.7999L13964.8804,-3548.84L13965.1993,-3548.9864L13965.2405,-3549.0002L13965.5807,-3549.2199L13965.7898,-3549.3999L13966.0202,-3549.6132L13966.0797,-3549.6864L13966.1499,-3549.7734L13966.1804,-3549.9001L13966.1804,-3550.2464L13966.2003,-3550.5135L13966.2003,-3550.7812"/>
<path content="AP030,1,28,1,0,14,1,8,JPN" xlink:title="AP030" d="M13963.0798,-3547.9935L13963.15,-3548.0133L13963.4003,-3548.0999"/>
<path content="AP030,1,28,1,0,15,1,8,JPN" xlink:title="AP030" d="M13963.5208,-3550.7812L13963.5208,-3549.9165L13963.1714,-3548.7732L13963.0798,-3547.9935"/>
<path content="AP030,1,28,1,0,14,1,8,JPN" xlink:title="AP030" d="M13962.8799,-3547.8466L13963.0798,-3547.9935"/>
<path content="AP030,1,28,1,0,15,1,8,JPN" xlink:title="AP030" d="M13960.6094,-3550.1858L13960.9421,-3550.0031L13961.6394,-3549.6197L13962.8357,-3547.9103L13962.8799,-3547.8466"/>
<path content="AP030,1,28,1,0,16,1,8,JPN" xlink:title="AP030" d="M13959.2667,-3548.6816L13959.2697,-3548.6599L13959.4696,-3548.1335L13959.61,-3547.8333"/>
<path content="AP030,1,28,1,0,15,1,8,JPN" xlink:title="AP030" d="M13959.2667,-3548.6816L13958.2291,-3547.995L13957.0602,-3547.8134"/>
<path content="AP030,1,28,1,0,14,1,8,JPN" xlink:title="AP030" d="M13957.0313,-3547.8241L13957.0602,-3547.8134"/>
<path content="AP030,1,28,1,0,14,1,8,JPN" xlink:title="AP030" d="M13959.9976,-3547.4667L13960.0403,-3547.5067L13960.2005,-3547.6334L13961.0794,-3547.6532L13961.9507,-3547.6665L13962.3093,-3547.5399L13962.5244,-3547.5433L13962.8799,-3547.8466"/>
<path content="AP030,1,28,1,0,16,1,8,JPN" xlink:title="AP030" d="M13959.61,-3547.8333L13959.79,-3547.6532L13959.9503,-3547.5266L13959.9976,-3547.4667"/>
<path content="AP030,1,28,1,0,14,1,8,JPN" xlink:title="AP030" d="M13959.3796,-3547.0402L13959.52,-3547.0531L13959.61,-3547.1066L13959.6298,-3547.1268L13959.9976,-3547.4667"/>
<path content="AP030,1,28,1,0,16,1,8,JPN" xlink:title="AP030" d="M13959.61,-3547.8333L13959.6497,-3547.6665L13959.6497,-3547.5067L13959.5398,-3547.3267L13959.4299,-3547.1664L13959.3796,-3547.0402"/>
<path content="AP030,1,28,1,0,14,1,8,JPN" xlink:title="AP030" d="M13963.4003,-3548.0999L13963.2202,-3547.8867L13962.8098,-3547.4133L13962.6099,-3547.2L13962.5595,-3547.1466L13962.7014,-3547.0524L13962.7731,-3547.0043L13962.8296,-3546.9666"/>
<path content="AP030,1,28,1,0,14,1,8,JPN" xlink:title="AP030" d="M13962.8296,-3546.9666L13963.0203,-3546.9265L13963.2202,-3547.1664L13963.2904,-3547.2198L13963.5406,-3547.4533L13963.5803,-3547.4865L13964.0594,-3547.9L13964.3097,-3548.0801L13964.7202,-3548.28L13964.9704,-3548.3334L13965.1993,-3548.3868L13965.6998,-3548.5867L13966.2704,-3548.9132L13966.5405,-3549.0734L13966.7007,-3549.1798L13966.9495,-3549.3801L13967.0807,-3549.4865L13967.3599,-3549.7734L13967.5568,-3550.0721L13967.6804,-3550.2602L13967.8802,-3550.5665L13968.0206,-3550.7465L13968.0513,-3550.7812"/>
<path content="AP030,1,28,1,0,16,1,8,JPN" xlink:title="AP030" d="M13962.7396,-3546.7999L13962.7899,-3546.7999L13963.0402,-3546.8735L13963.5193,-3547.3465L13963.6093,-3547.3999L13963.8306,-3547.4865L13964.3997,-3547.9401L13964.7903,-3548.1335L13965.1794,-3548.2067L13966.1804,-3548.6801L13967.1997,-3549.1264L13967.3599,-3549.2001"/>
<path content="AP030,1,28,1,0,16,1,8,JPN" xlink:title="AP030" d="M13962.6602,-3546.7957L13962.7396,-3546.7999"/>
<path content="AP030,1,28,1,0,14,1,8,JPN" xlink:title="AP030" d="M13962.6602,-3546.7957L13962.8296,-3546.9666"/>
<path content="AP030,1,28,1,0,16,1,8,JPN" xlink:title="AP030" d="M13959.9976,-3547.4667L13960.08,-3547.3598L13960.3607,-3547.2332L13960.4706,-3547.1664L13960.5606,-3547.1268L13960.6506,-3547.1268L13960.8307,-3547.1066L13960.8994,-3547.0932L13961.1099,-3547.0734L13961.2396,-3547.0001L13961.4502,-3546.9265L13961.5402,-3546.8933L13961.8103,-3546.8399L13962.3642,-3546.7964L13962.4512,-3546.7896L13962.4893,-3546.7865L13962.5092,-3546.7876L13962.6602,-3546.7957"/>
<path content="AP030,1,28,1,0,14,1,8,JPN" xlink:title="AP030" d="M13958.6105,-3546.5866L13958.7006,-3546.6599L13958.7906,-3546.6934L13958.8806,-3546.7335L13959.1095,-3546.7464L13959.1797,-3546.7999L13959.3307,-3546.9868L13959.3796,-3547.0402"/>
<path content="AP030,1,28,1,0,14,1,8,JPN" xlink:title="AP030" d="M13957.0602,-3547.8134L13957.2006,-3547.6868L13957.3105,-3547.4865L13957.5195,-3547.3598L13957.7698,-3547.1268L13958.4702,-3546.6064L13958.6105,-3546.5866"/>
<path content="AP030,1,28,1,0,16,1,8,JPN" xlink:title="AP030" d="M13959.0561,-3546.4165L13959.1797,-3546.5866L13959.3307,-3546.8933L13959.3796,-3547.0402"/>
<path content="AP030,1,28,1,0,14,1,8,JPN" xlink:title="AP030" d="M13958.6105,-3546.5866L13958.6807,-3546.5866L13958.7692,-3546.5668L13959.0561,-3546.4165"/>
<path content="AP030,1,28,1,0,16,1,8,JPN" xlink:title="AP030" d="M13968.0801,-3546.32L13968.2205,-3546.4401L13968.3594,-3546.5332L13970.3995,-3547.4667L13970.5399,-3547.5266L13970.5597,-3547.5399L13970.7001,-3547.5933L13970.7703,-3547.6334L13974.0402,-3549.0932L13974.7894,-3549.3801L13976.86,-3550.2266"/>
<path content="AP030,1,28,1,0,16,1,4,JPN" xlink:title="AP030" d="M13981.0699,-3550.7812L13982.3303,-3550.0465L13987.7197,-3546.2601"/>
<path content="AP030,1,28,1,0,16,1,8,JPN" xlink:title="AP030" d="M13967.9688,-3546.2254L13967.9901,-3546.2467L13968.0801,-3546.32"/>
<path content="AP030,1,28,1,0,16,1,8,JPN" xlink:title="AP030" d="M13967.3599,-3549.2001L13967.2897,-3549.1066L13967.2897,-3549.02L13967.63,-3548.4798L13967.63,-3548.2468L13967.5797,-3547.6665L13967.6102,-3547.5399L13967.7399,-3547.2L13967.8604,-3546.6202L13967.9001,-3546.3333L13967.9688,-3546.2254"/>
<path content="AP030,1,28,1,0,16,1,8,JPN" xlink:title="AP030" d="M13967.9688,-3546.2254L13967.9901,-3546.1933L13968.0801,-3546.0999L13968.1793,-3546.0667L13968.3105,-3546.0667L13968.4006,-3546.1533L13968.4006,-3546.2467L13968.3594,-3546.2799L13968.2205,-3546.3333L13968.0801,-3546.32"/>
<path content="AP030,1,28,1,0,14,1,8,JPN" xlink:title="AP030" d="M13962.2406,-3545.8332L13962.3169,-3545.9457L13962.3245,-3546.0636L13962.3795,-3546.5134L13962.6602,-3546.7957"/>
<path content="AP030,1,28,1,0,16,1,8,JPN" xlink:title="AP030" d="M13962.7396,-3546.7999L13962.4695,-3546.5134L13962.4695,-3546.4802L13962.4298,-3546.1735L13962.9898,-3545.4132"/>
<path content="AP030,1,28,1,0,15,1,8,JPN" xlink:title="AP030" d="M13957.0602,-3547.8134L13957.0312,-3547.7534"/>
<path content="AP030,1,28,1,0,14,1,8,JPN" xlink:title="AP030" d="M13961.29,-3545.3465L13961.8301,-3545.6135L13961.9293,-3545.6615L13962.2406,-3545.8134L13962.2406,-3545.8332"/>
<path content="AP030,1,28,1,0,14,1,8,JPN" xlink:title="AP030" d="M13959.0561,-3546.4165L13959.8999,-3545.9732L13960.0403,-3545.8668L13960.1807,-3545.8134L13960.3607,-3545.76L13960.6293,-3545.6532L13960.7407,-3545.5933L13961.0138,-3545.396L13961.0626,-3545.3602L13961.1099,-3545.3266L13961.29,-3545.3465"/>
<path content="AP030,1,28,1,0,16,1,8,JPN" xlink:title="AP030" d="M13957.0312,-3545.0499L13957.2693,-3545.1065L13957.4493,-3545.1668L13957.4905,-3545.1801L13957.7194,-3545.2534L13957.7896,-3545.2732L13957.8796,-3545.3068L13957.9498,-3545.3465L13958.1299,-3545.4666L13958.7692,-3546.0464L13958.8104,-3546.08L13958.9172,-3546.2265L13959.0561,-3546.4165"/>
<path content="AP030,1,28,1,0,14,1,8,JPN" xlink:title="AP030" d="M13962.2406,-3545.8332L13962.7899,-3545.2L13962.9898,-3544.9867"/>
<path content="AP030,1,28,1,0,16,1,4,JPN" xlink:title="AP030" d="M13962.9898,-3545.4132L13963.2202,-3545.1801L13963.2706,-3545.1267L13963.2904,-3545.0535L13963.2446,-3544.9867"/>
<path content="AP030,1,28,1,0,14,1,8,JPN" xlink:title="AP030" d="M13962.9898,-3544.9867L13963.1821,-3544.9867L13963.2446,-3544.9867"/>
<path content="AP030,1,28,1,0,16,1,4,JPN" xlink:title="AP030" d="M13963.2446,-3544.9867L13963.2156,-3544.9432L13963.1882,-3544.8921"/>
<path content="AP030,1,28,1,0,14,1,8,JPN" xlink:title="AP030" d="M13962.9898,-3544.9867L13963.1882,-3544.8921"/>
<path content="AP030,1,28,1,0,14,1,8,JPN" xlink:title="AP030" d="M13963.2446,-3544.9867L13963.3301,-3544.9867L13963.7405,-3544.9665L13963.8794,-3544.8933L13964.27,-3544.6934"/>
<path content="AP030,1,28,1,0,14,1,8,JPN" xlink:title="AP030" d="M13963.1882,-3544.8921L13963.2782,-3544.849L13963.3804,-3544.8002L13963.6307,-3544.6201L13963.53,-3544.5152L13963.4262,-3544.4084"/>
<path content="AP030,1,28,1,0,16,1,4,JPN" xlink:title="AP030" d="M13963.1882,-3544.8921L13963.1302,-3544.7865L13963.2004,-3544.6201L13963.4262,-3544.4084"/>
<path content="AP030,1,28,1,0,16,1,8,JPN" xlink:title="AP030" d="M13957.0312,-3544.9794L13957.2693,-3544.8601L13957.4005,-3544.7468L13957.5638,-3544.5435L13957.6294,-3544.4599L13957.7194,-3544.3733L13957.7454,-3544.355"/>
<path content="AP030,1,28,1,0,14,1,8,JPN" xlink:title="AP030" d="M13957.7454,-3544.355L13957.8293,-3544.4801L13957.93,-3544.5332L13958.0795,-3544.5332L13958.2397,-3544.5133L13958.7402,-3544.5L13959.0195,-3544.4599L13959.52,-3544.3535L13959.61,-3544.3333L13959.7,-3544.3199L13959.8099,-3544.3535L13960.0601,-3544.5L13960.2905,-3544.7334L13960.3806,-3544.8399L13960.5392,-3544.9665L13960.6995,-3545.0535L13960.7895,-3545.1065L13960.9894,-3545.2202L13961.0794,-3545.2534L13961.29,-3545.3465"/>
<path content="AP030,1,28,1,0,16,1,8,JPN" xlink:title="AP030" d="M13957.7454,-3544.355L13958.1299,-3544.0666"/>
<path content="AP030,1,28,1,0,16,1,4,JPN" xlink:title="AP030" d="M13963.4262,-3544.4084L13963.4506,-3544.3867L13963.8107,-3544.1734L13964.0198,-3543.9934"/>
<path content="AP030,1,28,1,0,16,1,8,JPN" xlink:title="AP030" d="M13967.9688,-3546.2254L13967.8299,-3546.08L13967.7002,-3545.8668L13967.1799,-3545.0401L13966.9006,-3544.6201L13966.7892,-3544.4401L13966.7694,-3544.3333L13966.7404,-3543.9934L13966.7206,-3543.9201"/>
<path content="AP030,1,28,1,0,16,1,8,JPN" xlink:title="AP030" d="M13964.0198,-3543.9934L13964.0793,-3543.9533L13964.1098,-3543.8667L13963.9893,-3543.7065"/>
<path content="AP030,1,28,1,0,16,1,8,JPN" xlink:title="AP030" d="M13963.9893,-3543.7065L13964.3204,-3543.8419L13964.4302,-3543.8866L13965.1993,-3544.2066L13965.4694,-3544.3199L13965.6494,-3544.3001L13965.7898,-3544.2265L13966.2003,-3543.8465L13966.33,-3543.7199L13966.4505,-3543.7065L13966.5604,-3543.7065L13966.6504,-3543.7733L13966.7206,-3543.9201"/>
<path content="AP030,1,28,1,0,14,1,8,JPN" xlink:title="AP030" d="M13963.4262,-3544.4084L13963.2202,-3544.1933L13962.8601,-3544.0132L13962.4893,-3543.8332L13962.3993,-3543.7733L13962.2894,-3543.6535L13961.8607,-3543.5265L13961.9003,-3543.4334L13961.9324,-3543.3468"/>
<path content="AP030,1,28,1,0,16,1,8,JPN" xlink:title="AP030" d="M13958.1299,-3544.0666L13958.4305,-3544.1734L13958.6807,-3544.26L13958.9493,-3544.2799L13959.1293,-3544.2467L13959.2697,-3544.1933L13959.4894,-3543.9934L13959.6497,-3543.8999L13959.8099,-3543.8866L13960.2005,-3543.8999L13960.2905,-3543.8866L13960.5194,-3543.7599L13960.6293,-3543.7199L13960.7697,-3543.7199L13961.0397,-3543.7599L13961.1298,-3543.7199L13961.2198,-3543.6665L13961.2381,-3543.652L13961.47,-3543.4666L13961.7004,-3543.3601L13961.9003,-3543.3468L13961.9324,-3543.3468"/>
<path content="AP030,1,28,1,0,16,1,8,JPN" xlink:title="AP030" d="M13961.9324,-3543.3468L13962.4496,-3543.3468L13962.8601,-3543.3998L13963.3606,-3543.5799L13963.5803,-3543.6535L13963.9893,-3543.7065"/>
<path content="AP030,1,28,1,0,14,1,8,JPN" xlink:title="AP030" d="M13961.9324,-3543.3468L13962.0193,-3543.1065L13962.0193,-3543.0733"/>
<path content="AP030,1,28,1,0,14,1,8,JPN" xlink:title="AP030" d="M13957.0312,-3542.6402L13957.1304,-3542.7467L13957.3807,-3542.9466L13957.5195,-3543.1465L13957.5607,-3543.2865L13957.6096,-3543.4868L13957.6294,-3543.5398L13957.5806,-3543.7733L13957.5195,-3543.9934L13957.6096,-3544.2066L13957.6797,-3544.26L13957.7454,-3544.355"/>
<path content="AP030,1,28,1,0,16,1,25,JPN" xlink:title="AP030" d="M13987.7197,-3546.2601L13991.2201,-3543.7935L13991.6956,-3543.5905"/>
<path content="AP030,1,28,1,0,14,1,8,JPN" xlink:title="AP030" d="M13964.9002,-3541.8999L13965.4297,-3541.6664L13965.5594,-3541.56L13965.7394,-3541.3799L13965.86,-3541.2731L13966.0202,-3541.2201L13966.2704,-3541.2201L13966.4505,-3541.2533L13966.6794,-3541.3601L13966.8594,-3541.4867L13966.9296,-3541.8999L13966.9907,-3542.2466L13966.9907,-3542.4999L13967.0197,-3542.8734L13967.0197,-3543.1801"/>
<path content="AP030,1,28,1,0,16,1,8,JPN" xlink:title="AP030" d="M13964.9002,-3541.8999L13964.9307,-3541.8465L13965.3305,-3541.6664L13965.4694,-3541.56L13965.8096,-3541.2334L13965.9698,-3541.18L13966.1499,-3541.1667L13966.4703,-3541.1999L13966.7206,-3541.3067L13966.9296,-3541.4532L13966.9907,-3541.8465L13967.0395,-3542.2066L13967.0593,-3542.3866L13967.0807,-3542.7334L13967.0593,-3543.0931L13967.0593,-3543.2331L13966.9693,-3543.4132L13966.7206,-3543.9201"/>
<path content="AP030,1,28,1,0,16,1,8,JPN" xlink:title="AP030" d="M13958.1299,-3544.0666L13958.1299,-3543.6134L13958.1802,-3543.4666L13958.3603,-3543.0931L13958.4305,-3542.9466L13958.4702,-3542.6601L13958.4503,-3542.5533L13958.2199,-3542.3199L13958.0399,-3542.0666L13957.9895,-3541.8331L13957.9895,-3541.74L13957.9895,-3541.4867L13957.9697,-3541.3467L13957.8995,-3541.2201L13957.6294,-3540.9664L13957.5195,-3540.8401L13957.4905,-3540.7333"/>
<path content="AP030,1,28,1,0,15,1,8,JPN" xlink:title="AP030" d="M13957.0312,-3540.6479L13957.2845,-3540.6479L13957.4905,-3540.7333"/>
<path content="AP030,1,28,1,0,15,1,8,JPN" xlink:title="AP030" d="M13959.4009,-3539.711L13959.8343,-3540.2851L13960.1089,-3540.6479L13960.6384,-3541.7316L13962.0193,-3543.0733"/>
<path content="AP030,1,28,1,0,15,1,8,JPN" xlink:title="AP030" d="M13957.4905,-3540.7333L13958.6975,-3540.2866L13959.4009,-3539.711"/>
<path content="AP030,1,28,1,0,15,1,8,JPN" xlink:title="AP030" d="M13958.4503,-3538.2465L13958.9615,-3539.1308L13959.4009,-3539.711"/>
<path content="AP030,1,28,1,0,16,1,8,JPN" xlink:title="AP030" d="M13957.4905,-3540.7333L13957.5195,-3540.5132L13957.6096,-3539.9532L13957.6096,-3539.7934L13957.5394,-3539.6534L13957.4295,-3539.4135L13957.3807,-3539.2735L13957.4005,-3539.1266L13957.4707,-3538.9999L13957.5806,-3538.8599L13957.8094,-3538.6932L13958.1299,-3538.4998L13958.3099,-3538.3732L13958.4503,-3538.2465"/>
<path content="AP030,1,28,1,0,16,1,8,JPN" xlink:title="AP030" d="M13958.4503,-3538.2465L13958.6105,-3538.0798"/>
<path content="AP030,1,28,1,0,14,1,8,JPN" xlink:title="AP030" d="M13962.0193,-3543.0733L13962.0804,-3542.9134L13962.2406,-3542.7132L13962.4695,-3542.12L13962.6297,-3541.7065L13962.6495,-3541.5932L13962.6999,-3541.4867L13962.6999,-3541.4532L13962.5198,-3541.3467L13962.4496,-3541.2865L13962.3993,-3541.2731L13962.2894,-3541.18L13962.1994,-3540.8932L13962.0804,-3540.6799L13961.9507,-3540.4266L13961.7706,-3540.2599L13961.6104,-3540.1333L13961.3998,-3539.7732L13961.3998,-3539.7202L13961.4304,-3539.5599L13961.4502,-3539.0934L13961.9003,-3538.4266L13961.9293,-3538.4068L13962.1002,-3538.2259L13962.2192,-3538.1001L13962.1994,-3537.7602"/>
<path content="AP030,1,28,1,0,15,1,8,JPN" xlink:title="AP030" d="M13959.4009,-3539.711L13959.845,-3539.3475L13960.1974,-3538.5529L13960.6384,-3537.9028L13961.3449,-3537.7583L13961.5067,-3537.7586L13961.9354,-3537.7594L13962.1994,-3537.7602"/>
<path content="AP030,1,28,1,0,15,1,8,JPN" xlink:title="AP030" d="M13992.1875,-3537.2724L13992.1097,-3537.4454L13991.9189,-3537.7327L13991.9983,-3537.9238L13992.1875,-3537.9915"/>
<path content="AP030,1,28,1,0,14,1,8,JPN" xlink:title="AP030" d="M13992.0395,-3536.898L13992.1875,-3536.8751"/>
<path content="AP030,1,28,1,0,15,1,8,JPN" xlink:title="AP030" d="M13957.0313,-3536.7357L13957.4615,-3536.9637L13958.0551,-3537.5401L13958.6105,-3538.0798"/>
<path content="AP030,1,28,1,0,16,1,8,JPN" xlink:title="AP030" d="M13962.7899,-3538.2801L13962.8998,-3538.2599L13963.0402,-3538.1733L13963.6993,-3537.9932L13964.0396,-3537.9002L13964.27,-3537.7731L13964.3997,-3537.5801L13964.4501,-3537.3466L13964.4897,-3536.2267L13964.3997,-3536.1198"/>
<path content="AP030,1,28,1,0,14,1,8,JPN" xlink:title="AP030" d="M13962.7899,-3538.2801L13962.8998,-3538.1332L13963.3606,-3537.9932L13963.7405,-3537.9002L13963.7695,-3537.9002L13964.0793,-3537.7731L13964.2197,-3537.6667L13964.3295,-3537.4866L13964.36,-3537.3066L13964.3997,-3536.1198"/>
<path content="AP030,1,28,1,0,16,1,8,JPN" xlink:title="AP030" d="M13962.8998,-3535.6335L13962.97,-3535.6533L13963.1302,-3535.7399L13963.2202,-3535.7933L13963.3804,-3535.92L13963.4705,-3536.0134L13963.5803,-3536.0664L13963.8794,-3536.1198L13964.2899,-3536.1198L13964.3997,-3536.1198"/>
<path content="AP030,1,28,1,0,14,1,8,JPN" xlink:title="AP030" d="M13962.1994,-3537.7602L13962.3093,-3537.5801L13962.3795,-3537.5267L13962.6801,-3537.4535L13962.8998,-3537.2868L13963.2401,-3537.1799L13963.2904,-3537.1666L13963.3804,-3537.0934L13963.4003,-3537.0201L13963.3804,-3536.9465L13963.1302,-3536.7332L13963.1302,-3536.4399L13963.0798,-3536.2064L13962.9898,-3535.9402L13962.8998,-3535.7601L13962.8998,-3535.6667L13962.8998,-3535.6335"/>
<path content="AP030,1,28,1,0,16,1,8,JPN" xlink:title="AP030" d="M13959.52,-3535.22L13959.7,-3535.2531L13959.9701,-3535.4332L13960.1807,-3535.5267L13960.3104,-3535.5598L13960.4004,-3535.5801L13961.0794,-3535.5801L13961.4502,-3535.5801L13962.5793,-3535.5934L13962.7899,-3535.6133L13962.8098,-3535.6171L13962.8998,-3535.6335"/>
<path content="AP030,1,28,1,0,16,1,8,JPN" xlink:title="AP030" d="M13958.6105,-3538.0798L13958.7906,-3537.7399L13958.9035,-3537.5599L13958.9706,-3537.4535L13959.0393,-3537.3798L13959.0393,-3537.36L13959.1293,-3537.2334L13959.3994,-3536.9999L13959.52,-3536.8599L13959.7,-3536.5665L13959.7198,-3536.5131L13959.8297,-3536.3335L13959.8602,-3536.2465L13959.8602,-3535.8467L13959.8602,-3535.6335L13959.8099,-3535.5267L13959.52,-3535.22"/>
<path content="AP030,1,28,1,0,14,1,8,JPN" xlink:title="AP030" d="M13989.9155,-3535.1475L13990.3107,-3535.2867L13990.4007,-3535.3466L13990.6296,-3535.4866L13990.8295,-3535.6865L13990.95,-3535.8665L13991.04,-3536.1534L13991.0797,-3536.4601L13991.04,-3536.7466L13990.9897,-3536.9267L13991.2003,-3536.9999L13991.2903,-3536.9999L13991.7206,-3536.9465L13992.0395,-3536.898"/>
<path content="AP030,1,28,1,0,14,1,8,JPN" xlink:title="AP030" d="M13992.1875,-3535.3384L13992.1799,-3535.2333L13992.1875,-3535.1641"/>
<path content="AP030,1,28,1,0,15,1,8,JPN" xlink:title="AP030" d="M13990.3458,-3534.9918L13990.8829,-3535.1974L13991.4886,-3535.7395L13991.8701,-3536.3453L13992.0395,-3536.898"/>
<path content="AP030,1,28,1,0,16,1,8,JPN" xlink:title="AP030" d="M13989.9155,-3535.1475L13990.3458,-3534.9918"/>
<path content="AP030,1,28,1,0,16,1,8,JPN" xlink:title="AP030" d="M13990.3458,-3534.9918L13990.9775,-3534.8625L13991.7908,-3534.8785L13991.9678,-3534.9541L13992.1875,-3535.048"/>
<path content="AP030,1,28,1,0,16,1,8,JPN" xlink:title="AP030" d="M13959.52,-3535.22L13959.3994,-3535.1067L13959.3597,-3535.0201L13959.2896,-3534.5531"/>
<path content="AP030,1,28,1,0,14,1,8,JPN" xlink:title="AP030" d="M13962.8998,-3535.6335L13962.8799,-3535.2531L13962.8296,-3535.1799L13962.6297,-3534.9865L13962.5397,-3534.8598L13962.4298,-3534.7332L13962.3596,-3534.5135"/>
<path content="AP030,1,28,1,0,15,1,8,JPN" xlink:title="AP030" d="M13959.2896,-3534.5531L13961.1679,-3534.5795L13962.2528,-3534.5192L13962.3596,-3534.5135"/>
<path content="AP030,1,28,1,0,15,1,8,JPN" xlink:title="AP030" d="M13988.9526,-3534.4322L13989.5432,-3534.6394L13989.9261,-3534.8309L13990.3458,-3534.9918"/>
<path content="AP030,1,28,1,0,15,1,8,JPN" xlink:title="AP030" d="M13987.6999,-3534.2464L13988.3636,-3534.3365L13988.9526,-3534.4322"/>
<path content="AP030,1,28,1,0,14,1,8,JPN" xlink:title="AP030" d="M13989.9155,-3535.1475L13989.65,-3535.0533L13988.5605,-3534.6401L13988.1104,-3534.5333L13987.6297,-3534.5001L13987.6495,-3534.3533L13987.6999,-3534.2464"/>
<path content="AP030,1,28,1,0,16,1,8,JPN" xlink:title="AP030" d="M13959.2896,-3534.5531L13959.2194,-3534.4067L13959.1095,-3534.1934L13959.0607,-3533.9733L13959.0607,-3533.8333L13959.1095,-3533.6533L13959.1507,-3533.54"/>
<path content="AP030,1,28,1,0,15,1,8,JPN" xlink:title="AP030" d="M13957.0312,-3536.1876L13957.7896,-3536.2007L13958.0994,-3534.798L13958.4579,-3533.9588L13959.1507,-3533.54"/>
<path content="AP030,1,28,1,0,14,1,8,JPN" xlink:title="AP030" d="M13964.3997,-3536.1198L13964.4318,-3535.104L13964.4501,-3534.5531L13964.4501,-3534.1934L13964.4501,-3534.0218L13964.4501,-3533.8867L13964.4302,-3533.6533L13964.4302,-3533.54"/>
<path content="AP030,1,28,1,0,15,1,8,JPN" xlink:title="AP030" d="M13959.2896,-3534.5531L13959.5795,-3533.4236L13959.613,-3532.729"/>
<path content="AP030,1,28,1,0,16,1,8,JPN" xlink:title="AP030" d="M13959.1507,-3533.54L13959.2697,-3533.2199L13959.3597,-3532.9266L13959.5398,-3532.7866L13959.613,-3532.729"/>
<path content="AP030,1,28,1,0,14,1,8,JPN" xlink:title="AP030" d="M13992.1875,-3534.5595L13992.1494,-3534.4398L13992.1295,-3534.3201L13992.1494,-3533.9733L13992.1875,-3533.8863"/>
<path content="AP030,1,28,1,0,15,1,8,JPN" xlink:title="AP030" d="M13988.9526,-3534.4322L13988.9847,-3534.0652L13989.0961,-3533.7784L13989.415,-3533.6189L13989.9261,-3533.4595L13990.1001,-3533.3321L13990.1001,-3533.1898L13990.1001,-3532.9334L13990.1642,-3532.7263L13990.3885,-3532.4711L13990.77,-3532.3593L13991.3925,-3532.0564L13992.1875,-3531.847"/>
<path content="AP030,1,28,1,0,14,1,8,JPN" xlink:title="AP030" d="M13982.6996,-3531.4865L13982.8293,-3531.5063L13982.9498,-3531.5933L13983.7006,-3531.8665L13983.7204,-3531.8867L13984.1797,-3532.1533L13984.3307,-3532.2464L13984.8999,-3532.5665L13985.4706,-3532.9464L13985.5194,-3532.9666L13985.7697,-3533.1066L13986.1099,-3533.3065L13986.2396,-3533.4133L13986.3297,-3533.5064L13986.38,-3533.5934L13986.3998,-3533.6533L13986.4502,-3533.8333L13986.47,-3533.8665L13986.6302,-3533.9931L13987.4496,-3534.1934L13987.6999,-3534.2464"/>
<path content="AP030,1,28,1,0,14,1,8,JPN" xlink:title="AP030" d="M13982.2205,-3531.4133L13982.6996,-3531.4865"/>
<path content="AP030,1,28,1,0,14,1,8,JPN" xlink:title="AP030" d="M13962.3596,-3534.5135L13962.3596,-3534.4067L13962.3795,-3534.1202L13962.3795,-3534.1L13962.4298,-3533.7601L13962.4496,-3533.6533L13962.4893,-3533.4534L13962.4695,-3533.4133L13962.4298,-3533.3797L13962.2665,-3533.3145L13962.2192,-3533.1066L13962.1094,-3532.7663L13962.1094,-3532.7332L13962.1094,-3532.5531L13962.1307,-3532.2598L13962.1506,-3532.1331L13962.2696,-3531.953L13962.4298,-3531.7932L13962.5198,-3531.7066L13962.6297,-3531.58L13962.6099,-3531.3801L13962.5397,-3531.0398L13962.5397,-3530.7865L13962.5397,-3530.6599L13962.5595,-3530.5664L13962.5595,-3530.3734L13962.5793,-3530.2265L13962.6495,-3530.1331L13962.7899,-3530.0667"/>
<path content="AP030,1,28,1,0,15,1,8,JPN" xlink:title="AP030" d="M13959.613,-3532.729L13959.668,-3531.5453L13959.9319,-3531.0261L13960.5408,-3529.8306"/>
<path content="AP030,1,28,1,0,15,1,8,JPN" xlink:title="AP030" d="M13960.5408,-3529.8306L13960.5499,-3529.8115"/>
<path content="AP030,1,28,1,0,15,1,8,JPN" xlink:title="AP030" d="M13960.5499,-3529.8115L13961.3297,-3529.5799"/>
<path content="AP030,1,28,1,0,15,1,8,JPN" xlink:title="AP030" d="M13961.7249,-3529.5704L13961.7432,-3529.5795L13961.9293,-3529.6665L13962.1094,-3529.76L13962.1994,-3529.7932L13962.2696,-3529.94L13962.3306,-3529.9732L13962.3993,-3529.9732L13962.4893,-3529.9534L13962.6129,-3529.9534L13962.6297,-3529.9534L13962.6999,-3529.9732L13962.7899,-3530.0667"/>
<path content="AP030,1,28,1,0,16,1,8,JPN" xlink:title="AP030" d="M13959.613,-3532.729L13959.7,-3532.6599L13960.0403,-3532.4799L13960.2005,-3532.32L13960.3302,-3532.1934L13960.4294,-3532.0801L13960.4507,-3532.0469L13960.6506,-3531.7398L13960.7193,-3531.5933L13960.7407,-3531.4133L13960.7697,-3531.2L13960.7697,-3530.9265L13960.7895,-3530.8201L13960.7895,-3530.7331L13960.8307,-3530.6065L13961.0199,-3530.46L13961.2396,-3530.2067L13961.5601,-3529.9L13961.6501,-3529.76L13961.7142,-3529.5952L13961.7249,-3529.5704"/>
<path content="AP030,1,28,1,0,15,1,8,JPN" xlink:title="AP030" d="M13961.3297,-3529.5799L13961.6302,-3529.5265L13961.7249,-3529.5704"/>
<path content="AP030,1,28,1,0,16,1,8,JPN" xlink:title="AP030" d="M13961.3297,-3529.5799L13961.3098,-3529.4666L13961.29,-3529.2732L13961.1801,-3529.2"/>
<path content="AP030,1,28,1,0,15,1,8,JPN" xlink:title="AP030" d="M13960.5499,-3529.8115L13961.1801,-3529.2"/>
<path content="AP030,1,28,1,0,14,1,8,JPN" xlink:title="AP030" d="M13957.0313,-3529.4374L13957.1304,-3529.4132L13957.2205,-3529.3598L13957.4005,-3529.1264"/>
<path content="AP030,1,28,1,0,15,1,8,JPN" xlink:title="AP030" d="M13960.1303,-3528.8731L13960.5408,-3529.8306"/>
<path content="AP030,1,28,1,0,16,1,8,JPN" xlink:title="AP030" d="M13960.1303,-3528.8731L13960.5804,-3528.8731L13961.1801,-3529.2"/>
<path content="AP030,1,28,1,0,16,1,8,JPN" xlink:title="AP030" d="M13959.9899,-3528.8597L13960.1303,-3528.8731"/>
<path content="AP030,1,28,1,0,15,1,8,JPN" xlink:title="AP030" d="M13957.4005,-3529.1264L13958.8242,-3529.3228L13959.9899,-3528.8597"/>
<path content="AP030,1,28,1,0,14,1,8,JPN" xlink:title="AP030" d="M13962.7899,-3530.0667L13962.8998,-3529.9931L13963.0203,-3529.8664L13963.1302,-3529.6864L13963.2004,-3529.5067L13963.2202,-3529.4666L13963.2202,-3529.4533L13963.2889,-3529.2984L13963.3301,-3529.2198L13963.4506,-3529.1664L13963.6795,-3529.1264L13963.8107,-3529.0932L13964.0198,-3529.0733L13964.18,-3529.0531L13964.3295,-3528.9997L13964.4897,-3528.9467L13964.5798,-3528.9131L13964.7202,-3528.7865L13964.83,-3528.64L13964.9338,-3528.5248"/>
<path content="AP030,1,28,1,0,14,1,8,JPN" xlink:title="AP030" d="M13957.4005,-3529.1264L13957.4493,-3528.9131L13957.4707,-3528.7464L13957.4905,-3528.6934L13957.4905,-3528.64L13957.5195,-3528.5866L13957.6294,-3528.4599L13957.8598,-3528.3333L13957.93,-3528.3199L13958.0597,-3528.2997"/>
<path content="AP030,1,28,1,0,16,1,8,JPN" xlink:title="AP030" d="M13958.0597,-3528.2997L13958.4305,-3528.2799L13958.6807,-3528.2799L13958.8593,-3528.3333L13959.0607,-3528.4397L13959.1995,-3528.5133L13959.4498,-3528.6598L13959.61,-3528.7666L13959.8801,-3528.8399L13959.9899,-3528.8597"/>
<path content="AP030,1,28,1,0,16,1,8,JPN" xlink:title="AP030" d="M13964.9338,-3528.5248L13965.0406,-3528.6064L13965.0543,-3528.6182L13965.0803,-3528.64L13965.1794,-3528.6598L13965.2695,-3528.6598L13965.3839,-3528.5412L13965.5029,-3528.4058L13966.1804,-3528.1532"/>
<path content="AP030,1,28,1,0,14,1,8,JPN" xlink:title="AP030" d="M13964.9338,-3528.5248L13965.0406,-3528.4065L13965.1505,-3528.3199L13965.1993,-3528.2997L13965.3595,-3528.2265L13965.5197,-3528.1532L13965.6799,-3528.1437L13965.86,-3528.133L13966.1804,-3528.1532"/>
<path content="AP030,1,28,1,0,14,1,8,JPN" xlink:title="AP030" d="M13966.1804,-3528.1532L13966.3101,-3528.1731L13966.6504,-3528.2467L13966.7007,-3528.26L13966.8106,-3528.26L13966.9296,-3528.26L13967.0197,-3528.26L13967.1799,-3528.2799L13967.2699,-3528.2066L13967.3996,-3527.9732"/>
<path content="AP030,1,28,1,0,16,1,8,JPN" xlink:title="AP030" d="M13961.7249,-3529.5704L13961.7706,-3529.4533L13961.9507,-3529.1664L13962.0605,-3528.8597L13962.1796,-3528.7464L13962.2192,-3528.6934L13962.2894,-3528.5664L13962.3596,-3528.5L13962.4893,-3528.4065L13962.7701,-3528.1933L13963.06,-3527.9533L13963.1302,-3527.8999L13963.2401,-3527.8332L13963.3102,-3527.7733"/>
<path content="AP030,1,28,1,0,16,1,8,JPN" xlink:title="AP030" d="M13963.8992,-3527.5398L13964.0594,-3527.7199L13964.5203,-3528.2066L13964.801,-3528.4225L13964.9338,-3528.5248"/>
<path content="AP030,1,28,1,0,15,1,8,JPN" xlink:title="AP030" d="M13963.3102,-3527.7733L13963.4903,-3527.7599L13963.7405,-3527.6665L13963.8992,-3527.5398"/>
<path content="AP030,1,28,1,0,14,1,8,JPN" xlink:title="AP030" d="M13958.0597,-3528.2997L13958.0597,-3528.2066L13958.0399,-3528.0266L13958.0399,-3527.9198L13957.9697,-3527.8332L13957.9697,-3527.5799L13957.9697,-3527.5265L13957.9895,-3527.3598L13958.02,-3527.3266L13958.0795,-3527.2533L13958.2397,-3527.2198L13958.3603,-3527.2198L13958.4305,-3527.1797L13958.5205,-3527.1065L13958.58,-3527.0199L13958.5602,-3526.9131"/>
<path content="AP030,1,28,1,0,15,1,8,JPN" xlink:title="AP030" d="M13961.1801,-3529.2L13961.4334,-3528.1498L13961.9629,-3527.5719L13961.9629,-3527.0664L13962.2543,-3526.7387"/>
<path content="AP030,1,28,1,0,16,1,8,JPN" xlink:title="AP030" d="M13963.3102,-3527.7733L13963.4003,-3527.6665L13963.4293,-3527.5932L13963.4506,-3527.4532L13963.4506,-3527.1797L13963.3804,-3527L13963.2706,-3526.68"/>
<path content="AP030,1,28,1,0,15,1,8,JPN" xlink:title="AP030" d="M13962.2543,-3526.7387L13963.2706,-3526.68"/>
<path content="AP030,1,28,1,0,14,1,8,JPN" xlink:title="AP030" d="M13967.3996,-3527.9732L13967.72,-3527.7199L13967.72,-3527.5398L13967.7399,-3527.2533L13967.7704,-3527.2198L13967.8802,-3527.0931L13967.9504,-3527.0199L13968.1107,-3526.9264L13968.4006,-3526.7864L13968.6798,-3526.6399"/>
<path content="AP030,1,28,1,0,15,1,8,JPN" xlink:title="AP030" d="M13958.5602,-3526.9131L13959.14,-3526.511L13959.996,-3526.5472L13960.817,-3526.8169L13962.2543,-3526.7387"/>
<path content="AP030,1,28,1,0,16,1,8,JPN" xlink:title="AP030" d="M13963.2706,-3526.68L13963.2202,-3526.44"/>
<path content="AP030,1,28,1,0,14,1,8,JPN" xlink:title="AP030" d="M13968.6798,-3526.6399L13968.7897,-3526.7132L13968.9697,-3526.6399L13969.1299,-3526.5663L13969.31,-3526.4999L13969.6503,-3526.3866L13969.7906,-3526.3866L13969.9295,-3526.4065L13970.1294,-3526.3733"/>
<path content="AP030,1,28,1,0,14,1,8,JPN" xlink:title="AP030" d="M13970.1294,-3526.3733L13970.3094,-3526.3531L13970.8603,-3526.3199L13970.9305,-3526.3199L13971.1465,-3526.3122"/>
<path content="AP030,1,28,1,0,16,1,8,JPN" xlink:title="AP030" d="M13992.1875,-3527.4338L13991.97,-3527.242L13990.57,-3526.725L13990.09,-3526.467L13989.917,-3526.3076"/>
<path content="AP030,1,28,1,0,14,1,8,JPN" xlink:title="AP030" d="M13971.1465,-3526.3122L13971.4905,-3526.3"/>
<path content="AP030,1,28,1,0,16,1,8,JPN" xlink:title="AP030" d="M13963.2202,-3526.44L13963.2202,-3526.1932"/>
<path content="AP030,1,28,1,0,15,1,8,JPN" xlink:title="AP030" d="M13962.2543,-3526.7387L13962.6694,-3526.2714L13963.2202,-3526.1932"/>
<path content="AP030,1,28,1,0,15,1,8,JPN" xlink:title="AP030" d="M13988.5406,-3526.173L13989.2242,-3526.3165L13989.5584,-3526.3485L13989.917,-3526.3076"/>
<path content="AP030,1,28,1,0,14,1,8,JPN" xlink:title="AP030" d="M13988.5406,-3526.173L13988.6093,-3526.3199L13988.7405,-3526.3733L13988.9496,-3526.4065L13989.1098,-3526.4599L13989.2899,-3526.5865L13989.4699,-3526.7464L13989.6301,-3526.9466L13989.7202,-3527.0199L13990.1794,-3527.3064L13990.4495,-3527.4666L13990.7196,-3527.5398L13990.8096,-3527.5799L13990.95,-3527.6131L13990.9897,-3527.6531L13991.1102,-3527.7397L13991.2003,-3527.8332L13991.4001,-3528.12L13991.4902,-3528.2997L13991.5405,-3528.4798L13991.5405,-3528.5664L13991.5802,-3529.0199L13991.6504,-3529.2332L13991.7404,-3529.4865L13991.7892,-3529.6532L13991.8304,-3529.9L13991.7007,-3530.2601L13991.6107,-3530.5L13991.8793,-3530.6599L13992.1875,-3530.7945"/>
<path content="AP030,1,28,1,0,14,1,8,JPN" xlink:title="AP030" d="M13971.4905,-3526.3L13971.8994,-3526.3L13972.0795,-3526.2466L13972.3099,-3526.2066L13972.6807,-3526.2264L13972.9904,-3526.4263L13973.1094,-3526.44L13973.114,-3526.4179L13973.1293,-3526.3199L13973.2407,-3526.1932L13973.3994,-3526.1333L13973.6496,-3526.0998L13973.7198,-3526.0998"/>
<path content="AP030,1,28,1,0,14,1,8,JPN" xlink:title="AP030" d="M13982.6996,-3531.4865L13982.7698,-3531.3801L13982.8094,-3531.2866L13982.8293,-3531.2199L13982.8293,-3531.0734L13982.7896,-3530.9666L13982.7393,-3530.9132L13983.0795,-3530.6599L13983.49,-3530.32L13983.8104,-3530.0266L13983.8303,-3530.0133L13983.9493,-3529.94L13984.1507,-3529.9L13984.4498,-3529.8332L13984.7397,-3529.6665L13985.0601,-3529.5799L13985.4004,-3529.4666L13985.4904,-3529.0199L13985.5606,-3528.8731L13985.6796,-3528.8597L13985.759,-3528.8597L13985.8597,-3528.8597L13985.9299,-3528.8399L13986.0199,-3528.7464L13986.0596,-3528.553L13985.9024,-3528.476L13985.8307,-3528.4397L13985.6094,-3528.2066L13985.5194,-3528.08L13985.5606,-3528.0266L13985.7193,-3527.9198L13985.9497,-3527.8133L13986.0794,-3527.6665L13986.2198,-3527.3998L13986.29,-3527.2533L13986.3998,-3527.0397L13986.4304,-3526.9863L13986.5799,-3526.8932L13986.8103,-3526.7864L13986.9904,-3526.733L13987.1796,-3526.6197L13987.3093,-3526.44L13987.3795,-3526.3332L13987.4893,-3526.26L13987.59,-3526.2505L13987.6297,-3526.2466L13987.7701,-3526.2264L13987.8601,-3526.1532L13987.8799,-3526.0799L13988.4003,-3526.1532L13988.5406,-3526.173"/>
<path content="AP030,1,28,1,0,15,1,8,JPN" xlink:title="AP030" d="M13967.3996,-3527.9732L13967.2562,-3527.6661L13966.9052,-3526.9218L13966.9052,-3525.9827"/>
<path content="AP030,1,28,1,0,15,1,8,JPN" xlink:title="AP030" d="M13963.2202,-3526.44L13963.5864,-3526.4317L13964.5676,-3526.6773L13965.3366,-3526.2691L13965.5594,-3526.2283L13966.9052,-3525.9827"/>
<path content="AP030,1,28,1,0,16,1,8,JPN" xlink:title="AP030" d="M13970.8113,-3525.519L13970.92,-3525.719L13971.1465,-3526.3122"/>
<path content="AP030,1,28,1,0,15,1,8,JPN" xlink:title="AP030" d="M13970.1294,-3526.3733L13970.5139,-3525.8839L13970.7794,-3525.547L13970.8113,-3525.519"/>
<path content="AP030,1,28,1,0,15,1,8,JPN" xlink:title="AP030" d="M13989.917,-3526.3076L13990.1169,-3526.2848L13990.3397,-3526.2848L13990.5945,-3526.3165L13991.185,-3526.6197L13991.7587,-3526.8745L13992.0456,-3526.9863L13992.1875,-3526.9485"/>
<path content="AP030,1,28,1,0,15,1,8,JPN" xlink:title="AP030" d="M13966.9052,-3525.9827L13968.1168,-3525.2056"/>
<path content="AP030,1,28,1,0,15,1,8,JPN" xlink:title="AP030" d="M13971.4905,-3526.3L13971.3364,-3525.6935L13971.3181,-3525.6214L13971.5939,-3524.8317"/>
<path content="AP030,1,28,1,0,15,1,8,JPN" xlink:title="AP030" d="M13970.8113,-3525.519L13971.5939,-3524.8317"/>
<path content="AP030,1,28,1,0,14,1,8,JPN" xlink:title="AP030" d="M13968.6798,-3526.6399L13969.0598,-3526.44L13969.3604,-3526.3199L13969.31,-3526.2264L13969.2581,-3526.1173L13969.2001,-3525.9933L13969.0796,-3525.8369L13969.0201,-3525.7599L13968.8293,-3525.5932L13968.6996,-3525.4665L13968.6096,-3525.3597L13968.6493,-3524.9664L13968.6996,-3524.6799"/>
<path content="AP030,1,28,1,0,15,1,8,JPN" xlink:title="AP030" d="M13968.1168,-3525.2056L13968.6996,-3524.6799"/>
<path content="AP030,1,28,1,0,15,1,8,JPN" xlink:title="AP030" d="M13971.5939,-3524.8317L13972.29,-3524.3908L13972.7905,-3524.8909L13973.2315,-3525.0519L13973.8037,-3525.058L13973.8297,-3525.449L13974.1089,-3525.7904L13973.7198,-3526.0998"/>
<path content="AP030,1,28,1,0,15,1,8,JPN" xlink:title="AP030" d="M13966.9052,-3525.9827L13966.8304,-3525.4269L13966.7297,-3524.6822L13966.5405,-3524.3397"/>
<path content="AP030,1,28,1,0,16,1,8,JPN" xlink:title="AP030" d="M13969.0761,-3524.3232L13969.08,-3524.326L13969.5,-3524.592L13969.87,-3524.685L13970.18,-3524.804L13970.48,-3525.005L13970.69,-3525.296L13970.8113,-3525.519"/>
<path content="AP030,1,28,1,0,14,1,8,JPN" xlink:title="AP030" d="M13968.6996,-3524.6799L13968.7195,-3524.6399L13968.7897,-3524.5331L13968.9301,-3524.4064L13968.9896,-3524.3732L13969.0761,-3524.3232"/>
<path content="AP030,1,28,1,0,16,1,8,JPN" xlink:title="AP030" d="M13965.5746,-3524.1367L13965.8173,-3524.3416L13966.066,-3524.379L13966.5405,-3524.3397"/>
<path content="AP030,1,28,1,0,16,1,8,JPN" xlink:title="AP030" d="M13963.2202,-3526.1932L13963.3606,-3525.8465L13963.6093,-3525.5264L13963.8596,-3525.2533L13964.4897,-3524.7864L13964.9307,-3524.4999L13965.3793,-3524.2466L13965.5746,-3524.1367"/>
<path content="AP030,1,28,1,0,15,1,8,JPN" xlink:title="AP030" d="M13966.5405,-3524.3397L13966.2704,-3523.8464"/>
<path content="AP030,1,28,1,0,16,1,8,JPN" xlink:title="AP030" d="M13965.5746,-3524.1367L13965.6998,-3524.0665L13965.8798,-3523.9731L13965.95,-3523.9532L13966.0797,-3523.8998L13966.2704,-3523.8464"/>
<path content="AP030,1,28,1,0,16,1,8,JPN" xlink:title="AP030" d="M13968.0405,-3523.793L13968.54,-3523.942L13969.0761,-3524.3232"/>
<path content="AP030,1,28,1,0,15,1,8,JPN" xlink:title="AP030" d="M13968.1168,-3525.2056L13968.0969,-3524.8276L13968.0405,-3523.793"/>
<path content="AP030,1,28,1,0,16,1,8,JPN" xlink:title="AP030" d="M13966.2704,-3523.8464L13966.4902,-3523.8331L13967.3096,-3523.8132L13968.0405,-3523.793"/>
<path content="AP030,1,28,1,0,15,1,8,JPN" xlink:title="AP030" d="M13971.5939,-3524.8317L13971.6721,-3524.6101L13971.8491,-3523.8876L13971.0541,-3523.4543L13970.5795,-3523.0732"/>
<path content="AP030,1,28,1,0,14,1,8,JPN" xlink:title="AP030" d="M13969.0761,-3524.3232L13969.5206,-3524.0665L13969.8303,-3523.8667L13969.9905,-3523.7732L13970.1996,-3523.5798L13970.2194,-3523.4333L13970.2698,-3523.3463L13970.3354,-3523.2937L13970.52,-3523.1464L13970.5795,-3523.0732"/>
<path content="AP030,1,28,1,0,16,1,8,JPN" xlink:title="AP030" d="M13989.917,-3526.3076L13989.67,-3526.08L13989.56,-3525.729L13989.4,-3524.99L13989.34,-3524.357L13989.25,-3523.692L13989.06,-3523.12L13988.67,-3522.425L13988.58,-3521.828L13988.5743,-3521.7598"/>
<path content="AP030,1,28,1,0,14,1,8,JPN" xlink:title="AP030" d="M13988.5406,-3526.173L13988.4705,-3525.8999L13988.4506,-3525.613L13988.4293,-3525.3799L13988.4705,-3525.2533L13988.6093,-3525.1064L13988.7405,-3524.913L13988.7894,-3524.8398L13988.7695,-3524.5132L13988.7894,-3524.3866L13988.8992,-3524.2466L13988.8992,-3524.0997L13988.8107,-3523.7064L13988.7894,-3523.6332L13988.6993,-3523.56L13988.4293,-3523.4531L13988.1302,-3523.2201L13988.0203,-3523.1464L13987.97,-3523.093L13987.8799,-3523L13987.7899,-3522.9465L13987.6999,-3522.9263L13987.6099,-3522.9134L13987.5198,-3522.8001L13987.4496,-3522.6799L13987.4496,-3522.3198L13987.3993,-3522.2065L13987.3306,-3522.0798L13987.3306,-3521.833L13987.3093,-3521.74L13987.1994,-3521.6133L13987.1094,-3521.5263"/>
<path content="AP030,1,28,1,0,14,1,8,JPN" xlink:title="AP030" d="M13988.5743,-3521.7598L13988.5803,-3521.7598L13988.6505,-3521.7598L13989.0594,-3521.7197L13989.3295,-3521.6331L13989.9506,-3521.7064L13990.5807,-3521.8998L13990.9698,-3522.0467L13991.2003,-3522.0467L13991.3605,-3521.9398L13991.4902,-3521.7934L13991.5802,-3521.7731L13991.7404,-3521.74L13992.1494,-3521.5797L13992.1875,-3521.575"/>
<path content="AP030,1,28,1,0,14,1,8,JPN" xlink:title="AP030" d="M13987.1094,-3521.5263L13987.2406,-3521.4664L13987.3795,-3521.4531L13987.4893,-3521.4664L13987.5793,-3521.5065L13987.6801,-3521.5797L13987.8799,-3521.7064L13987.97,-3521.7197L13988.1805,-3521.7598L13988.5743,-3521.7598"/>
<path content="AP030,1,28,1,0,15,1,8,JPN" xlink:title="AP030" d="M13964.1785,-3521.4138L13964.2578,-3521.4314L13965.3168,-3522.4426L13966.1118,-3523.2372L13966.2704,-3523.8464"/>
<path content="AP030,1,28,1,0,16,1,8,JPN" xlink:title="AP030" d="M13964.1785,-3521.4138L13964.2639,-3521.7072L13964.2502,-3522.4529L13964.3005,-3522.9996L13964.4745,-3523.2231L13964.8224,-3523.3971L13965.0589,-3523.534L13965.4068,-3523.9937L13965.5746,-3524.1367"/>
<path content="AP030,1,28,1,0,15,1,8,JPN" xlink:title="AP030" d="M13963.3606,-3521.2334L13964.1785,-3521.4138"/>
<path content="AP030,1,28,1,0,14,1,8,JPN" xlink:title="AP030" d="M13958.5602,-3526.9131L13958.49,-3526.7998L13958.4503,-3526.7464L13958.11,-3526.2798L13958.02,-3526.173L13958.02,-3526.12L13958.11,-3525.9933L13958.1497,-3525.8465L13958.2001,-3525.7065L13958.1802,-3525.5932L13958.1299,-3525.5066L13958.1497,-3525.4131L13958.1802,-3525.3799L13958.3801,-3525.3265L13958.5403,-3525.2197L13958.8303,-3525.0198L13959.2194,-3524.7864L13959.3597,-3524.7463L13959.4498,-3524.5667L13959.4696,-3524.5132L13959.52,-3524.4064L13959.6497,-3524.3L13959.7198,-3524.2466L13959.7702,-3524.1734L13959.8801,-3524.0665L13959.9503,-3524.0131L13960.1501,-3523.8998L13960.2005,-3523.8132L13960.2402,-3523.74L13960.5392,-3523.7064L13960.6995,-3523.6866L13960.7193,-3523.6866L13960.8093,-3523.5931L13960.8597,-3523.5065L13960.8795,-3523.4531L13960.9894,-3523.3799L13961.1298,-3523.3601L13961.2701,-3523.3265L13961.29,-3523.3265L13961.3098,-3523.3067L13961.6501,-3523.18L13961.7706,-3523.1266L13961.8805,-3523.0198L13962.1094,-3522.86L13962.1506,-3522.8397L13962.5198,-3522.5864L13963.1805,-3522.1001L13963.2202,-3522.0798L13963.4506,-3521.9398L13963.3606,-3521.2334"/>
<path content="AP030,1,28,1,0,16,1,8,JPN" xlink:title="AP030" d="M13963.2202,-3520.8931L13963.6795,-3521.0735L13964.151,-3521.3219L13964.1785,-3521.4138"/>
<path content="AP030,1,28,1,0,14,1,8,JPN" xlink:title="AP030" d="M13963.2202,-3520.8931L13963.2904,-3520.9465L13963.3301,-3521.04L13963.3606,-3521.2334"/>
<path content="AP030,1,28,1,0,14,1,8,JPN" xlink:title="AP030" d="M13970.5795,-3523.0732L13970.43,-3522.8931L13970.3796,-3522.86L13969.9295,-3522.3732L13969.7906,-3522.1531L13969.5404,-3522.0131L13969.4504,-3521.7934L13969.3604,-3521.7197L13969.1498,-3521.7197L13969.0399,-3521.6866L13968.9499,-3521.5931L13968.8797,-3521.4531L13968.6996,-3521.1266L13968.6493,-3520.9663L13968.5806,-3520.8"/>
<path content="AP030,1,28,1,0,15,1,8,JPN" xlink:title="AP030" d="M13968.0405,-3523.793L13968.3167,-3522.6292L13968.5257,-3521.18L13968.5806,-3520.8"/>
<path content="AP030,1,28,1,0,14,1,8,JPN" xlink:title="AP030" d="M13984.6497,-3520.713L13984.6802,-3520.8L13984.7,-3520.8931L13984.8099,-3521.0732L13984.9304,-3521.18L13985.1501,-3521.2864L13985.5194,-3521.36L13985.8307,-3521.4333L13985.9497,-3521.5065L13986.0199,-3521.5599L13986.0596,-3521.6133L13986.1496,-3521.6331L13986.2701,-3521.5931L13986.3754,-3521.4798L13986.4502,-3521.4001L13986.6501,-3521.3467L13986.9293,-3521.36L13986.9705,-3521.4001L13987.1094,-3521.5263"/>
<path content="AP030,1,28,1,0,16,1,8,JPN" xlink:title="AP030" d="M13988.5743,-3521.7598L13988.53,-3521.225L13988.47,-3520.868L13988.2,-3520.641L13987.72,-3520.346L13987.5734,-3520.286"/>
<path content="AP030,1,28,1,0,16,1,4,JPN" xlink:title="AP030" d="M13987.5734,-3520.286L13986.4133,-3519.8114"/>
<path content="AP030,1,28,1,0,16,1,8,JPN" xlink:title="AP030" d="M13986.4133,-3519.8114L13986.0596,-3519.6667"/>
<path content="AP030,1,28,1,0,15,1,8,JPN" xlink:title="AP030" d="M13984.6497,-3520.713L13984.9014,-3520.7024L13985.1105,-3520.6932L13985.2005,-3520.6398L13985.3806,-3520.48L13985.5194,-3520.3732L13985.6094,-3520.2465L13985.7407,-3520.0665L13985.9299,-3519.92L13986.0199,-3519.7731L13986.0596,-3519.6667"/>
<path content="AP030,1,28,1,0,14,1,8,JPN" xlink:title="AP030" d="M13965.2206,-3518.3331L13965.3595,-3518.4265L13965.4495,-3518.4601L13965.5197,-3518.4799L13965.6097,-3518.5532L13965.8997,-3518.9266L13966.0797,-3519.0399L13966.2903,-3519.1666L13966.5207,-3519.4L13966.8106,-3519.6533L13966.8304,-3519.6533L13967.0807,-3519.8463L13967.2699,-3519.9532L13967.4301,-3520.013L13967.4896,-3520.0665L13967.9504,-3520.3865L13968.1793,-3520.5132L13968.2205,-3520.5864L13968.4006,-3520.6932L13968.5806,-3520.8"/>
<path content="AP030,1,28,1,0,14,1,8,JPN" xlink:title="AP030" d="M13984.6497,-3520.713L13984.5596,-3520.6066L13984.4498,-3520.4998L13984.1995,-3520.3865L13984.1507,-3520.3732L13983.8806,-3520.2999L13983.7204,-3520.2999L13983.5403,-3520.3533L13983.4503,-3520.3732L13983.3099,-3520.3331L13983.1802,-3520.153L13983.0399,-3519.92L13982.9895,-3519.8666L13982.8995,-3519.7933L13982.8293,-3519.7598L13982.6996,-3519.7063L13982.5806,-3519.6533L13982.3807,-3519.4664L13982.2983,-3519.2951L13982.2571,-3519.2429L13982.1289,-3519.1074L13982.0419,-3519.0224L13981.9717,-3518.8755L13981.9214,-3518.6623L13981.8817,-3518.4624L13981.8817,-3518.2091L13981.9016,-3518.0824"/>
<path content="AP030,1,28,1,0,14,1,8,JPN" xlink:title="AP030" d="M13963.2202,-3520.8931L13963.06,-3520.8199L13962.7197,-3520.7664L13962.6999,-3520.7466L13962.6801,-3520.7333L13962.6297,-3520.2599L13962.6495,-3519.8666L13962.6801,-3519.7399L13962.6999,-3519.6865L13962.7396,-3519.6133L13962.7396,-3519.54L13962.7701,-3519.3798L13962.7701,-3519.2863L13962.7701,-3518.8198L13962.8098,-3518.6932L13962.8799,-3518.5863L13962.9898,-3518.3865L13963.2202,-3518.1332L13963.2904,-3518.0466L13963.2401,-3517.9199L13963.2401,-3517.8131L13963.3102,-3517.7067L13963.4506,-3517.5266L13963.5193,-3517.4332L13963.5803,-3517.3264L13963.6993,-3517.1799L13963.8306,-3517.0532L13963.9496,-3516.9266L13963.9694,-3516.8198L13964.0198,-3516.7465"/>
<path content="AP030,1,28,1,0,14,1,8,JPN" xlink:title="AP030" d="M13965.2206,-3518.3331L13965.2206,-3518.1534L13965.1505,-3518.0134L13965.0803,-3517.9733L13964.9002,-3517.9531L13964.7003,-3517.9398L13964.5798,-3517.9199L13964.4302,-3517.8467L13964.3295,-3517.72L13964.3097,-3517.1799L13964.2395,-3516.9666L13964.2395,-3516.7465L13964.2197,-3516.7133L13964.0198,-3516.7465"/>
<path content="AP030,1,28,1,0,16,1,8,JPN" xlink:title="AP030" d="M13986.0596,-3519.6667L13985.6293,-3519.4664L13985.3607,-3519.3466L13985.1105,-3519.2333L13984.8099,-3519.0731L13983.9905,-3518.5863L13983.9294,-3518.5532L13983.5403,-3517.9733L13983.4702,-3517.6666L13983.4,-3517.3264L13983.3603,-3517.1265L13983.3603,-3516.9666L13983.3603,-3516.6065L13983.3801,-3516.5665"/>
<path content="AP030,1,28,1,0,14,1,8,JPN" xlink:title="AP030" d="M13981.9016,-3518.0824L13981.9,-3517.9413L13981.8512,-3517.7479L13981.8024,-3517.5724L13981.8527,-3517.3798L13981.8481,-3517.3264L13981.8176,-3517.1665L13981.81,-3517.0399L13981.8604,-3516.84L13981.9504,-3516.7465L13982.1503,-3516.6397L13982.2403,-3516.6199L13982.3105,-3516.4799L13982.2906,-3516.3334L13982.2403,-3516.28L13982.0602,-3516.2266L13982.0206,-3516.193L13981.9901,-3516.1198L13981.9562,-3515.625"/>
<path content="AP030,1,28,1,0,16,1,8,JPN" xlink:title="AP030" d="M13983.0241,-3515.625L13983.0597,-3515.633L13983.1802,-3515.6864L13983.3099,-3515.72L13983.2901,-3515.773L13983.2001,-3515.7932L13983.0597,-3515.76L13982.9971,-3515.7372L13982.9498,-3515.72L13982.8995,-3515.7398L13982.8995,-3515.773L13982.9865,-3515.8035L13983.11,-3515.8466"/>
<path content="AP030,1,28,1,0,16,1,4,JPN" xlink:title="AP030" d="M13984.022,-3515.625L13983.9905,-3515.6666L13983.6105,-3516.2067L13983.3801,-3516.5665"/>
<path content="AP030,1,28,1,0,15,1,8,JPN" xlink:title="AP030" d="M13964.0198,-3516.7465L13964.0808,-3516.3021L13964.1693,-3515.7242L13964.0633,-3515.625"/>
<path content="AP030,1,28,1,0,15,1,8,JPN" xlink:title="AP030" d="M13966.8447,-3515.625L13966.8442,-3515.6578L13966.6199,-3515.7333L13966.2369,-3515.9115L13966.0385,-3516.4303L13965.8371,-3517.0795L13965.4327,-3517.4904L13965.2206,-3518.3331"/>
<path content="AP030,1,28,1,0,16,1,8,JPN" xlink:title="AP030" d="M13991.6956,-3543.5905L13991.7206,-3543.5799L13992.0593,-3543.3601L13992.1875,-3543.2806"/>
</g>
</svg>
