<?xml version="1.0" encoding="UTF-8"?>
<svg  xmlns="http://www.w3.org/2000/svg" xmlns:xlink="http://www.w3.org/1999/xlink" xmlns:go="http://purl.org/svgmap/profile" property="f_code,acc,exs,rst,med,rtt,RSU,loc,soc" viewBox="13289.0625 -3304.6875 70.3125 70.3125" go:dataArea="13289.0625 -3304.6875 70.3125 70.3125" >
<metadata>
 <rdf:RDF xmlns:rdf="http://www.w3.org/1999/02/22-rdf-syntax-ns#" xmlns:crs="http://opengis.org/xmldtds/transformations.dtd" xmlns:svg="http://www.w3.org/svg" >
  <rdf:Description>
   <crs:CoordinateReferenceSystem rdf:resource="http://purl.org/crs/84" svg:transform="matrix(100.0,0.0,0.0,-100.0,0.0,0.0)" />
  </rdf:Description>
 </rdf:RDF>
</metadata>
<globalCoordinateSystem srsName="http://purl.org/crs/84" transform="matrix(100.0,0.0,0.0,-100.0,0.0,0.0)" />
<defs>
 <g id="p0" >
  <circle cx="0.0" cy="0.0" r="3" stroke="green" stroke-width="2.0" vector-effect="non-scaling-stroke" />
 </g>
</defs>
<g fill="none" fill-rule="evenodd" stroke="#00ff00" stroke-width="2" opacity="0.5" vector-effect="non-scaling-stroke" stroke-linejoin="bevel" >
<path content="AP030,1,28,1,0,15,1,8,JPN" xlink:title="AP030" d="M13304.4899,-3304.6875L13304.4937,-3304.6558L13304.9667,-3304.2297L13305.2902,-3303.9398"/>
<path content="AP030,1,28,1,0,15,1,8,JPN" xlink:title="AP030" d="M13293.7885,-3304.6875L13293.8995,-3303.8467"/>
<path content="AP030,1,28,1,0,14,1,8,JPN" xlink:title="AP030" d="M13293.8995,-3303.8467L13294.1101,-3303.8467L13294.2001,-3303.8998L13294.2703,-3303.9932L13294.31,-3304.0466L13294.4305,-3304.1931L13294.4702,-3304.3198L13294.4901,-3304.3865L13294.5602,-3304.4598L13294.5801,-3304.48L13294.6793,-3304.5132L13294.7693,-3304.5666L13294.7693,-3304.6799L13294.7712,-3304.6875"/>
<path content="AP030,1,28,1,0,14,1,8,JPN" xlink:title="AP030" d="M13309.4498,-3304.6875L13309.4498,-3304.5334L13309.3796,-3304.3198L13309.3903,-3304.1607L13309.3735,-3304.0588L13309.2896,-3303.92L13309.2896,-3303.8334L13309.2697,-3303.7067L13309.1797,-3303.54L13309.1797,-3303.2867L13309.1995,-3303.1998L13309.1995,-3303.1265L13309.1095,-3303.0933L13308.8806,-3303.1067L13308.49,-3303.1799L13308.1802,-3303.1998L13308.0597,-3303.2333L13307.7194,-3303.5599L13307.6294,-3303.5931L13307.4905,-3303.6533L13307.3105,-3303.7399L13307.1793,-3303.8132L13306.7703,-3303.8334L13306.6803,-3303.8334L13306.3293,-3303.7933L13306.1996,-3303.8132L13305.8105,-3304.0665L13305.7404,-3304.0798L13305.6305,-3304.0798L13305.2902,-3303.9398"/>
<path content="AP030,1,28,1,0,14,1,8,JPN" xlink:title="AP030" d="M13305.2902,-3303.9398L13305.1804,-3303.8666L13305.0201,-3303.8334L13304.8599,-3303.8467L13304.6997,-3303.92L13304.4907,-3303.9398L13304.1794,-3303.8864L13303.8605,-3303.8864L13303.3997,-3303.7067L13303.27,-3303.6133L13303.1296,-3303.5065L13302.8595,-3303.4332L13302.7206,-3303.4664L13302.4902,-3303.5931L13302.3804,-3303.6533L13302.2705,-3303.7197L13302.2003,-3303.7319L13302.0401,-3303.7598L13301.9501,-3303.7197L13301.7395,-3303.5797L13301.4496,-3303.22L13301.2894,-3302.9999L13301.0406,-3302.713L13300.9506,-3302.4799L13300.4501,-3302.1732L13299.9695,-3301.8467L13299.8596,-3301.7731"/>
<path content="AP030,1,28,1,0,14,1,8,JPN" xlink:title="AP030" d="M13293.8995,-3303.8467L13293.8599,-3303.8334L13293.7698,-3303.7197L13293.6096,-3303.6331L13293.5196,-3303.5267L13293.4494,-3303.5065L13293.3304,-3303.5065L13293.3105,-3303.4866L13293.2907,-3303.4664L13293.2907,-3303.4531L13293.3594,-3303.3798L13293.4494,-3303.273L13293.4906,-3303.2532L13293.5196,-3303.22L13293.5196,-3303.1666L13293.5196,-3302.9465L13293.3304,-3302.8L13293.2907,-3302.7664L13293.2205,-3302.6932L13293.2007,-3302.66L13293.2007,-3302.5131L13293.1793,-3302.4597L13293.1503,-3302.3331L13293.1107,-3302.2465L13293.1107,-3301.9733L13293.1107,-3301.6865L13293.1107,-3301.593L13293.1107,-3301.0731L13293.1793,-3300.7332L13293.2907,-3300.5131L13293.3807,-3300.3532L13293.4296,-3300.2464L13293.4296,-3300.2266L13293.4494,-3300.1534L13293.4296,-3299.9397L13293.4296,-3299.8131L13293.4296,-3299.7601"/>
<path content="AP030,1,28,1,0,14,1,8,JPN" xlink:title="AP030" d="M13289.0625,-3303.1074L13289.18,-3303.0731L13289.3097,-3303.0399L13289.4897,-3302.9133L13289.5203,-3302.8931L13289.6301,-3302.8L13289.6805,-3302.7332L13289.6301,-3302.5665L13289.6301,-3302.4998L13289.7003,-3302.3865L13289.83,-3302.2266L13289.9307,-3302.1332L13290.0192,-3302.0798L13290.0604,-3302.0466L13290.2405,-3301.9398L13290.2695,-3301.8997L13290.2405,-3301.8467L13290.2206,-3301.72L13290.1306,-3301.5266L13290.1306,-3301.4866L13290.1505,-3301.4L13290.2695,-3301.2733L13290.3107,-3301.2199L13290.4495,-3301.1467L13290.5197,-3301.1066L13290.8997,-3300.9464L13291.0599,-3300.9266L13291.33,-3300.8732L13291.5207,-3300.7866L13291.6504,-3300.6065L13291.7694,-3300.5333L13291.9006,-3300.4398L13292.0197,-3300.3864L13292.1097,-3300.3864L13292.2699,-3300.4066L13292.5201,-3300.4265L13292.5598,-3300.4066L13292.7002,-3300.28L13292.7002,-3300.193L13292.72,-3300.1331L13292.7704,-3300.0797L13292.9504,-3299.9531L13292.9703,-3299.9397L13293.1107,-3299.8333L13293.1793,-3299.8131L13293.1793,-3299.7932L13293.2907,-3299.7601L13293.4296,-3299.7601"/>
<path content="AP030,1,28,1,0,14,1,8,JPN" xlink:title="AP030" d="M13294.9493,-3298.2998L13295.1096,-3298.2998L13295.2194,-3298.32L13295.9503,-3298.5332L13296.1105,-3298.6599L13296.1105,-3298.7133L13296.1807,-3299.1066L13296.2692,-3299.4534L13296.2906,-3299.5399L13296.3104,-3299.58L13296.3806,-3299.6864L13296.5393,-3299.8333L13296.6995,-3300.0465L13296.7697,-3300.1331L13296.7896,-3300.1732L13296.8796,-3300.3532L13296.9696,-3300.4265L13297.0596,-3300.4997L13297.2702,-3300.5333L13297.4304,-3300.5665L13297.6501,-3300.7133L13297.9294,-3300.7332L13298.4695,-3300.893L13298.5794,-3301.0201L13298.6298,-3301.0731L13298.7198,-3301.1997L13298.9304,-3301.4332L13299.0204,-3301.54L13299.1104,-3301.593L13299.2706,-3301.6132L13299.6796,-3301.6865L13299.8596,-3301.7731"/>
<path content="AP030,1,28,1,0,14,1,8,JPN" xlink:title="AP030" d="M13294.22,-3298.1197L13294.3848,-3298.1762L13294.6503,-3298.3532L13294.7403,-3298.3532L13294.9493,-3298.2998"/>
<path content="AP030,1,28,1,0,14,1,8,JPN" xlink:title="AP030" d="M13293.4296,-3299.7601L13293.4006,-3299.3599L13293.3807,-3299.0532L13293.5196,-3299.0398L13293.6493,-3299.02L13293.6493,-3298.9666L13293.6493,-3298.9265L13293.6798,-3298.8731L13293.6996,-3298.8197L13293.7057,-3298.8068L13293.7698,-3298.6599L13293.9499,-3298.4066L13294.0598,-3298.28L13294.1299,-3298.1934L13294.22,-3298.1197"/>
<path content="AP030,1,28,1,0,14,1,8,JPN" xlink:title="AP030" d="M13292.5797,-3298.0267L13292.7399,-3298.0801L13292.9504,-3298.1331L13293.1107,-3298.2468L13293.2693,-3298.32L13293.3807,-3298.3532L13293.5196,-3298.3532L13293.6096,-3298.2998L13293.6996,-3298.2468L13293.7897,-3298.1731L13293.9301,-3298.1197L13294.0399,-3298.0999L13294.0796,-3298.0999L13294.22,-3298.1197"/>
<path content="AP030,1,28,1,0,14,1,8,JPN" xlink:title="AP030" d="M13291.6306,-3298.0797L13291.7206,-3297.9733L13291.8594,-3297.953L13292.0807,-3297.9931L13292.1997,-3298.0267L13292.3996,-3298.0267L13292.5797,-3298.0267"/>
<path content="AP030,1,28,1,0,15,1,8,JPN" xlink:title="AP030" d="M13290.094,-3296.9917L13290.7959,-3297.3259L13291.6306,-3298.0797"/>
<path content="AP030,1,28,1,0,14,1,8,JPN" xlink:title="AP030" d="M13289.0625,-3297.7257L13289.18,-3297.6868L13289.27,-3297.5933L13289.2899,-3297.58L13289.36,-3297.5597L13289.3799,-3297.58L13289.4699,-3297.6334L13289.5203,-3297.6532L13289.6103,-3297.6665L13289.6103,-3297.76L13289.6332,-3297.8893L13289.7003,-3297.953L13289.83,-3298.0133L13289.9704,-3298.0133L13290.2405,-3298.0267L13290.4495,-3298.0999L13290.6799,-3298.1731L13290.7898,-3298.1934L13291.2201,-3298.1934L13291.6107,-3298.1934L13291.6306,-3298.0797"/>
<path content="AP030,1,28,1,0,14,1,8,JPN" xlink:title="AP030" d="M13289.0625,-3296.7407L13290.094,-3296.9917"/>
<path content="AP030,1,28,1,0,15,1,8,JPN" xlink:title="AP030" d="M13299.8596,-3301.7731L13299.9146,-3301.5907L13300.2319,-3300.5337L13300.0824,-3299.4938L13299.4537,-3298.341L13299.4186,-3296.8758L13299.0662,-3296.294L13298.9319,-3295.2892L13298.5703,-3294.6938"/>
<path content="AP030,1,28,1,0,15,1,8,JPN" xlink:title="AP030" d="M13294.9493,-3298.2998L13295.2621,-3298.0423L13295.8542,-3297.5513L13297.0184,-3297.0432L13297.6395,-3296.5355L13297.9492,-3295.9003L13298.1827,-3295.2656L13298.5703,-3294.6938"/>
<path content="AP030,1,28,1,0,15,1,8,JPN" xlink:title="AP030" d="M13298.5703,-3294.6938L13299.3912,-3294.1738"/>
<path content="AP030,1,28,1,0,14,1,8,JPN" xlink:title="AP030" d="M13294.8593,-3291.7599L13295.2698,-3291.9399L13295.4895,-3292.0799L13295.61,-3292.3L13295.7001,-3292.3733L13295.7703,-3292.4065L13295.8801,-3292.4599L13295.99,-3292.5331L13296.1105,-3292.6201L13296.1105,-3292.68L13296.08,-3292.7132L13296.08,-3292.7467L13296.1105,-3292.7998L13296.2006,-3292.8734L13296.2692,-3292.9131L13296.3303,-3292.9131L13296.3593,-3292.9131L13296.4905,-3292.8734L13296.6293,-3292.8734L13296.6995,-3292.8932L13296.8094,-3292.9665L13296.8796,-3293L13296.9299,-3293.0531L13296.9299,-3293.1065L13296.8994,-3293.1465L13296.8307,-3293.2331L13296.7697,-3293.3598L13296.6995,-3293.4532L13296.6797,-3293.5066L13296.6797,-3293.5265L13296.6995,-3293.56L13296.7194,-3293.6333L13296.8094,-3293.8133L13296.8796,-3293.9198L13296.9498,-3293.9934L13297.02,-3294.0266L13297.1802,-3294.0468L13297.2397,-3294.08L13297.3602,-3294.2066L13297.3602,-3294.2467L13297.29,-3294.3531L13297.2198,-3294.4401L13297.2,-3294.5133L13297.1802,-3294.6068L13297.1497,-3294.68L13297.1298,-3294.7468L13297.11,-3294.8601L13297.0795,-3294.9467L13297.0596,-3295.0199L13297.02,-3295.1267L13297.02,-3295.2L13296.9299,-3295.3068L13296.8994,-3295.3465L13296.8597,-3295.4132L13296.8094,-3295.5933L13296.7697,-3295.7199L13296.7194,-3295.8668L13296.6797,-3296.0133L13296.5607,-3296.133L13296.4905,-3296.2467L13296.4294,-3296.4268L13296.2906,-3296.6064L13296.08,-3296.8201L13295.99,-3296.9131L13295.9503,-3297.02L13295.8801,-3297.0398L13295.7703,-3297.0734L13295.52,-3297.0932L13295.3796,-3297.0734L13295.1096,-3297.0734L13294.9493,-3297.0398L13294.7693,-3297.0734L13294.4305,-3297.0734L13294.2902,-3297.1268L13293.9301,-3297.253L13293.5806,-3297.4331L13293.1503,-3297.7398L13293.1107,-3297.76L13293.0405,-3297.813L13292.9306,-3297.9198L13292.8802,-3297.9401L13292.8101,-3297.953L13292.6804,-3298.0133L13292.5797,-3298.0267"/>
<path content="AP030,1,28,1,0,14,1,4,JPN" xlink:title="AP030" d="M13293.5806,-3290.7333L13293.7897,-3290.9466L13294.1498,-3291.2865L13294.6304,-3291.6332L13294.8593,-3291.7599"/>
<path content="AP030,1,28,1,0,14,1,8,JPN" xlink:title="AP030" d="M13293.5806,-3290.7333L13293.5593,-3290.7131L13293.4494,-3290.5533L13293.4006,-3290.4266L13293.4006,-3290.2466L13293.4296,-3290.1733L13293.5806,-3290.1199L13293.6295,-3290.0997L13293.7698,-3290.0131L13293.8599,-3289.9532L13293.9896,-3289.7598L13294.0201,-3289.6667L13293.9697,-3289.2532L13293.8995,-3288.9999L13293.8995,-3288.9465L13293.8995,-3288.9133L13293.9301,-3288.8733L13293.9697,-3288.8L13294.0201,-3288.7665L13294.0598,-3288.6932L13294.0598,-3288.66L13294.0598,-3288.62L13294.0399,-3288.5864L13294.0201,-3288.533L13293.9896,-3288.48L13293.9896,-3288.4598L13294.0201,-3288.3331L13294.1299,-3288.2065L13294.2703,-3288.0466L13294.31,-3288.0131L13294.3604,-3287.92L13294.3298,-3287.8666L13294.3298,-3287.7197L13294.4,-3287.6534L13294.4305,-3287.5599L13294.4305,-3287.4531L13294.4702,-3287.3466L13294.5404,-3287.22L13294.6304,-3287.1265"/>
<path content="AP030,1,28,1,0,15,1,8,JPN" xlink:title="AP030" d="M13289.0625,-3287.9064L13289.1052,-3287.8994L13289.2609,-3288.0901L13289.8041,-3288.1535L13290.3473,-3288.0264L13290.5792,-3287.8361L13290.7349,-3287.3917L13290.7349,-3287.2009L13290.8127,-3286.7565L13291.2003,-3286.5662L13292.363,-3286.4391L13293.1396,-3286.6295L13293.9148,-3287.0106L13294.6304,-3287.1265"/>
<path content="AP030,1,28,1,0,15,1,8,JPN" xlink:title="AP030" d="M13289.0625,-3283.8468L13289.5782,-3283.445L13289.6255,-3282.9128L13289.3204,-3281.9866L13289.0625,-3281.3339M13289.0625,-3280.5661L13289.5401,-3280.1533"/>
<path content="AP030,1,28,1,0,14,1,8,JPN" xlink:title="AP030" d="M13294.6304,-3287.1265L13294.7205,-3287.0533L13294.7906,-3286.9865L13294.8105,-3286.9465L13294.9493,-3286.8599L13295.0806,-3286.7664L13295.1492,-3286.6798L13295.2194,-3286.6398L13295.1492,-3286.5868L13295.0394,-3286.4998L13294.9295,-3286.4067L13294.9005,-3286.3197L13294.9005,-3286.2064L13294.8593,-3286.1L13294.7693,-3285.9531L13294.7006,-3285.7933L13294.6503,-3285.6865L13294.6503,-3285.54L13294.7006,-3285.4332L13294.7693,-3285.3268L13294.9493,-3285.1799L13295.1096,-3285.1067L13295.1492,-3285.0533L13295.1996,-3284.9266L13295.2194,-3284.8198L13295.1996,-3284.6798L13295.1492,-3284.5531L13295.0394,-3284.5333L13295.0607,-3284.3533L13295.1096,-3284.2266L13295.1797,-3284.1L13295.2698,-3284.0267L13295.3094,-3283.9531L13295.3094,-3283.8867L13295.2896,-3283.8467L13295.1996,-3283.7601L13295.1797,-3283.7067L13295.1492,-3283.6533L13295.1492,-3283.6334L13295.1797,-3283.5934L13295.2194,-3283.4332L13295.2698,-3283.3599L13295.43,-3283.3466L13295.4498,-3283.3065L13295.5597,-3283.1799L13295.61,-3283.1264L13295.61,-3283.0399L13295.6497,-3282.9266L13295.6802,-3282.8598L13295.6802,-3282.7999L13295.6299,-3282.7332L13295.3995,-3282.6401L13295.0394,-3282.5867L13294.9005,-3282.5535L13294.7403,-3282.5333L13294.5602,-3282.46L13294.4305,-3282.3868L13294.4,-3282.3532L13294.3604,-3282.2998L13294.3604,-3282.1934L13294.4702,-3281.8466L13294.6106,-3281.4533L13294.6503,-3281.3801L13294.7006,-3281.3065L13294.7693,-3281.2L13294.8303,-3281.1466L13294.9905,-3281.1066L13295.0806,-3281.1066L13295.1492,-3281.0734L13295.2393,-3280.9868L13295.2896,-3280.8735L13295.3598,-3280.6801L13295.43,-3280.5134L13295.5597,-3280.4066L13295.7001,-3280.3532L13295.7703,-3280.2601L13295.7703,-3280.2067L13295.8298,-3280.0667L13296.0205,-3279.9L13296.1105,-3279.8466L13296.2204,-3279.8134L13296.2692,-3279.7733L13296.2906,-3279.7398L13296.2906,-3279.7066L13296.2906,-3279.6333L13296.2692,-3279.5399L13296.2692,-3279.5067L13296.2692,-3279.4865L13296.2906,-3279.4533L13296.3593,-3279.4533L13296.3593,-3279.4666L13296.3806,-3279.5399L13296.4294,-3279.5799L13296.4706,-3279.5799L13296.4905,-3279.5399L13296.4706,-3279.4865L13296.4328,-3279.4181"/>
<path content="AP030,1,28,1,0,14,1,8,JPN" xlink:title="AP030" d="M13296.4328,-3279.4181L13296.4005,-3279.3598L13296.2402,-3279.0733L13296.1304,-3278.9467L13296.0205,-3278.9131L13295.99,-3278.82L13295.9702,-3278.7464L13295.9702,-3278.7132L13295.99,-3278.6598L13296.0403,-3278.5866L13296.08,-3278.5534L13296.08,-3278.5133L13296.0205,-3278.4065L13295.9503,-3278.3333L13295.9305,-3278.2467"/>
<path content="AP030,1,28,1,0,14,1,8,JPN" xlink:title="AP030" d="M13289.0625,-3279.7081L13289.2395,-3279.8664L13289.5401,-3280.1533"/>
<path content="AP030,1,28,1,0,14,1,8,JPN" xlink:title="AP030" d="M13289.5401,-3280.1533L13289.6103,-3280.2265L13289.8102,-3280.2998L13289.9307,-3280.3333L13289.9902,-3280.32L13290.1093,-3280.1933L13290.1306,-3280.1201L13290.0803,-3280.0133L13290.1505,-3279.76L13290.2695,-3279.6131L13290.3305,-3279.4865L13290.3305,-3279.4666L13290.2893,-3279.4132L13290.2893,-3279.38L13290.3305,-3279.3064L13290.3793,-3279.2L13290.4907,-3279.1267L13290.5197,-3279.0932L13290.6097,-3278.9665L13290.6998,-3278.9265L13290.86,-3278.9265L13290.9897,-3278.8734L13291.1102,-3278.8734L13291.1804,-3278.8734L13291.5207,-3278.7666L13291.7892,-3278.68L13291.9296,-3278.5866L13291.9693,-3278.5866L13292.1997,-3278.5866L13292.45,-3278.5133L13292.4698,-3278.5133L13292.8604,-3278.3867L13292.9504,-3278.3733L13292.9901,-3278.3733L13293.0603,-3278.3733L13293.2007,-3278.5L13293.2907,-3278.64L13293.3594,-3278.68L13293.4296,-3278.68L13293.5638,-3278.7086L13293.6554,-3278.6983L13293.8599,-3278.7865L13293.9697,-3278.7865L13294.2902,-3278.7865L13294.3802,-3278.7464L13294.4901,-3278.68L13294.6106,-3278.5866L13294.7006,-3278.4798L13294.7006,-3278.3531L13294.7205,-3278.3333L13294.7205,-3278.3199L13294.7205,-3278.2265L13294.7205,-3278.12L13294.9707,-3278.0464L13295.1294,-3278.0132L13295.3094,-3277.9732L13295.52,-3277.94L13295.5399,-3277.94L13295.5597,-3277.94L13295.6802,-3277.94L13295.8099,-3277.9533L13295.8801,-3277.9533L13295.9,-3278.0666L13295.9,-3278.1532L13295.9305,-3278.2467"/>
<path content="AP030,1,28,1,0,15,1,8,JPN" xlink:title="AP030" d="M13295.9305,-3278.2467L13297.0963,-3277.8667L13297.4099,-3277.5811"/>
<path content="AP030,1,28,1,0,15,1,8,JPN" xlink:title="AP030" d="M13301.3626,-3272.5964L13301.6937,-3272.8085L13301.7563,-3273.1171L13301.4008,-3274.0654L13301.2497,-3274.9889L13300.6927,-3276.5621L13300.0427,-3278.0499L13299.0891,-3278.5999L13298.3521,-3279.0466L13297.168,-3279.3468L13296.4328,-3279.4181"/>
<path content="AP030,1,28,1,0,15,1,8,JPN" xlink:title="AP030" d="M13297.4099,-3277.5811L13297.7936,-3277.2316L13298.4924,-3276.6602L13299.1135,-3276.3428L13299.3454,-3276.4061L13299.7345,-3276.7239L13299.9664,-3276.6602L13300.2762,-3276.5968L13300.5875,-3275.8347L13300.6653,-3275.4536L13300.5875,-3275.2632L13300.1999,-3275.0092L13299.9664,-3274.7551L13299.9664,-3274.5014L13300.5096,-3273.6759L13301.3626,-3272.5964"/>
<path content="AP030,1,28,1,0,15,1,8,JPN" xlink:title="AP030" d="M13297.4099,-3277.5811L13296.6888,-3277.0763L13296.2372,-3277.0851L13295.694,-3276.6121L13295.7718,-3276.0075L13296.2402,-3276.0571L13296.7178,-3275.7641L13296.7545,-3275.3666L13297.2321,-3274.5594L13296.6904,-3273.3246L13296.9101,-3273.1293L13297.2244,-3273.3971L13297.4289,-3273.3723L13297.8058,-3273.4535L13298.3414,-3273.5073L13298.877,-3273.3131L13299.3454,-3273.1148L13300.3571,-3272.3988L13300.7965,-3272.522L13301.3626,-3272.5964"/>
</g>
</svg>
