<?xml version="1.0" encoding="UTF-8"?>
<svg  xmlns="http://www.w3.org/2000/svg" xmlns:xlink="http://www.w3.org/1999/xlink" xmlns:go="http://purl.org/svgmap/profile" property="f_code,acc,exs,rst,med,rtt,RSU,loc,soc" viewBox="13007.8125 -3375.0 35.15625 35.15625" go:dataArea="13007.8125 -3375.0 35.15625 35.15625" >
<metadata>
 <rdf:RDF xmlns:rdf="http://www.w3.org/1999/02/22-rdf-syntax-ns#" xmlns:crs="http://opengis.org/xmldtds/transformations.dtd" xmlns:svg="http://www.w3.org/svg" >
  <rdf:Description>
   <crs:CoordinateReferenceSystem rdf:resource="http://purl.org/crs/84" svg:transform="matrix(100.0,0.0,0.0,-100.0,0.0,0.0)" />
  </rdf:Description>
 </rdf:RDF>
</metadata>
<globalCoordinateSystem srsName="http://purl.org/crs/84" transform="matrix(100.0,0.0,0.0,-100.0,0.0,0.0)" />
<defs>
 <g id="p0" >
  <circle cx="0.0" cy="0.0" r="3" stroke="green" stroke-width="2.0" vector-effect="non-scaling-stroke" />
 </g>
</defs>
<g fill="none" fill-rule="evenodd" stroke="#00ff00" stroke-width="2" opacity="0.5" vector-effect="non-scaling-stroke" stroke-linejoin="bevel" >
<path content="AP030,1,28,1,0,15,1,8,JPN" xlink:title="AP030" d="M13031.044,-3366.3799L13032.3853,-3365.9004L13032.8949,-3365.8119L13033.371,-3365.5918L13033.931,-3365.4297L13034.6176,-3365.2679L13035.054,-3365.3217L13035.4904,-3365.86L13035.9512,-3366.4055L13036.0992,-3366.5817L13036.8713,-3366.8465L13037.6877,-3367.0734L13038.2339,-3367.2054L13038.5452,-3367.2054L13038.9206,-3367.5282L13039.2319,-3367.9592L13039.7308,-3368.1744L13039.9261,-3368.3773L13040.0421,-3368.4975L13040.5197,-3368.8042L13041.3757,-3369.0559L13042.1799,-3369.1666L13042.4988,-3369.1944L13042.7902,-3369.22L13042.9688,-3369.1844"/>
<path content="AP030,1,28,1,0,16,1,8,JPN" xlink:title="AP030" d="M13042.9688,-3365.3712L13042.72,-3364.9666L13042.6102,-3364.8399L13042.2195,-3364.1533L13041.9693,-3363.5799L13041.9006,-3363.4865"/>
<path content="AP030,1,28,1,0,14,1,8,JPN" xlink:title="AP030" d="M13042.9688,-3364.2779L13042.8101,-3364.1533L13042.4698,-3363.8664L13042.4301,-3363.7398L13042.45,-3363.4865L13042.4362,-3363.3881"/>
<path content="AP030,1,28,1,0,16,1,8,JPN" xlink:title="AP030" d="M13041.9006,-3363.4865L13042.4362,-3363.3881"/>
<path content="AP030,1,28,1,0,16,1,8,JPN" xlink:title="AP030" d="M13042.4362,-3363.3881L13042.6208,-3363.3541L13042.7704,-3363.3266L13042.9688,-3363.2815"/>
<path content="AP030,1,28,1,0,15,1,8,JPN" xlink:title="AP030" d="M13042.0197,-3362.1735L13042.8009,-3362.516L13042.9688,-3362.5896"/>
<path content="AP030,1,28,1,0,14,1,8,JPN" xlink:title="AP030" d="M13042.4362,-3363.3881L13042.4301,-3363.3465L13042.0197,-3362.1735"/>
<path content="AP030,1,28,1,0,16,1,8,JPN" xlink:title="AP030" d="M13041.9006,-3363.4865L13041.5405,-3362.6064L13041.5207,-3362.4065L13041.2704,-3362.0998L13040.8997,-3361.0931"/>
<path content="AP030,1,28,1,0,14,1,8,JPN" xlink:title="AP030" d="M13042.0197,-3362.1735L13041.9693,-3362.0667L13041.8793,-3361.8866L13041.5604,-3361.5265L13041.4902,-3361.4132L13041.0599,-3360.82L13041.0202,-3360.6934L13040.976,-3360.582"/>
<path content="AP030,1,28,1,0,16,1,8,JPN" xlink:title="AP030" d="M13040.8997,-3361.0931L13040.9302,-3360.7132L13040.976,-3360.582"/>
<path content="AP030,1,28,1,0,15,1,8,JPN" xlink:title="AP030" d="M13041.0416,-3360.3828L13041.7969,-3360.516L13042.3782,-3360.6895L13042.6163,-3360.7601L13042.9688,-3360.8651"/>
<path content="AP030,1,28,1,0,16,1,8,JPN" xlink:title="AP030" d="M13040.976,-3360.582L13041.0202,-3360.4599L13041.0416,-3360.3828"/>
<path content="AP030,1,28,1,0,15,1,8,JPN" xlink:title="AP030" d="M13040.9897,-3360.3737L13041.0416,-3360.3828"/>
<path content="AP030,1,28,1,0,14,1,8,JPN" xlink:title="AP030" d="M13040.976,-3360.582L13040.95,-3360.5133L13040.95,-3360.5L13040.9897,-3360.3737"/>
<path content="AP030,1,28,1,0,14,1,8,JPN" xlink:title="AP030" d="M13040.9897,-3360.3737L13040.9897,-3360.3733L13041.0599,-3360.2798L13041.2003,-3360.1734L13041.6794,-3359.9731L13041.8793,-3359.8133"/>
<path content="AP030,1,28,1,0,15,1,8,JPN" xlink:title="AP030" d="M13015.0986,-3359.6195L13015.1016,-3359.621L13015.6631,-3360.1593L13015.9637,-3360.7944L13016.3483,-3361.451"/>
<path content="AP030,1,28,1,0,16,1,8,JPN" xlink:title="AP030" d="M13035.5194,-3359.4131L13035.8795,-3359.5264L13036.29,-3359.6867L13036.7004,-3359.8999L13037.0193,-3359.9197L13037.0605,-3359.9197L13037.1307,-3359.94L13037.1796,-3359.9533L13037.4298,-3360.0468L13037.5397,-3360.0666L13037.6099,-3360.0468L13037.6801,-3360.0266L13038.0798,-3359.9533L13038.4705,-3360.0132L13038.6093,-3360.0266L13038.8107,-3360.0132L13039.1998,-3360.12L13039.4699,-3360.2264L13039.6103,-3360.26L13040.0803,-3360.3199L13040.2405,-3360.4401L13040.7898,-3360.9665L13040.8997,-3361.0931"/>
<path content="AP030,1,28,1,0,16,1,8,JPN" xlink:title="AP030" d="M13041.0416,-3360.3828L13041.0599,-3360.3199L13041.2201,-3360.1933L13041.4001,-3360.12L13041.6504,-3360.0266L13041.9296,-3359.8331L13042.0212,-3359.7752L13042.1692,-3359.6821L13042.3294,-3359.5798L13042.54,-3359.3998L13042.6102,-3359.38L13042.7002,-3359.38L13042.9688,-3359.5936"/>
<path content="AP030,1,28,1,0,14,1,8,JPN" xlink:title="AP030" d="M13041.8793,-3359.8133L13041.9006,-3359.7935L13042.0227,-3359.7134L13042.1646,-3359.621L13042.3096,-3359.5264L13042.5797,-3359.3067"/>
<path content="AP030,1,28,1,0,15,1,8,JPN" xlink:title="AP030" d="M13038.707,-3359.1747L13039.4073,-3359.2175L13040.3763,-3359.4791L13040.9882,-3360.3733L13040.9897,-3360.3737"/>
<path content="AP030,1,28,1,0,15,1,8,JPN" xlink:title="AP030" d="M13038.8489,-3359.5421L13038.707,-3359.1747"/>
<path content="AP030,1,28,1,0,15,1,8,JPN" xlink:title="AP030" d="M13035.5194,-3359.4131L13035.5194,-3359.38L13035.6094,-3359.2533L13035.6506,-3359.1667L13035.6506,-3359.0733L13035.4904,-3358.9664"/>
<path content="AP030,1,28,1,0,14,1,8,JPN" xlink:title="AP030" d="M13042.9688,-3358.9933L13042.8604,-3359.0935L13042.5797,-3359.3067"/>
<path content="AP030,1,28,1,0,15,1,8,JPN" xlink:title="AP030" d="M13016.3483,-3361.451L13016.3483,-3361.4517L13016.7236,-3361.8286L13017.5964,-3362.0975L13019.0292,-3362.5816L13019.6533,-3363.0123L13020.2148,-3363.443L13020.4651,-3364.1972L13020.7764,-3364.6816L13021.2128,-3364.9509L13021.7117,-3364.843L13022.0856,-3364.4119L13022.2717,-3363.2805L13022.4594,-3362.5801L13022.9568,-3361.6642L13023.7686,-3361.179L13024.5163,-3360.9093L13025.3265,-3360.9631L13025.8881,-3360.8009L13026.0117,-3360.3703L13026.0742,-3359.7775L13025.8865,-3359.185L13026.0712,-3358.8078"/>
<path content="AP030,1,28,1,0,15,1,8,JPN" xlink:title="AP030" d="M13016.3483,-3361.451L13017.1509,-3361.0901L13018.338,-3360.7834L13018.5272,-3359.9422L13018.3838,-3358.7978"/>
<path content="AP030,1,28,1,0,14,1,8,JPN" xlink:title="AP030" d="M13040.0787,-3358.7658L13040.0803,-3358.7666L13040.6296,-3359.0199L13041.0599,-3359.1999L13041.2003,-3359.2865L13041.4307,-3359.4334L13041.6794,-3359.6333L13041.8793,-3359.8133"/>
<path content="AP030,1,28,1,0,15,1,8,JPN" xlink:title="AP030" d="M13015.0986,-3359.6195L13015.2191,-3358.8604L13016.7755,-3358.5522L13018.3838,-3358.7978"/>
<path content="AP030,1,28,1,0,14,1,8,JPN" xlink:title="AP030" d="M13039.1083,-3358.4793L13039.2197,-3358.5133L13039.5203,-3358.5667L13039.6805,-3358.6067L13039.9338,-3358.7082L13040.0787,-3358.7658"/>
<path content="AP030,1,28,1,0,15,1,8,JPN" xlink:title="AP030" d="M13035.7162,-3358.3656L13036.7996,-3358.9653L13037.4512,-3359.0981L13038.707,-3359.1747"/>
<path content="AP030,1,28,1,0,15,1,8,JPN" xlink:title="AP030" d="M13035.4904,-3358.9664L13035.4904,-3358.9134L13035.5606,-3358.7997L13035.6293,-3358.4999L13035.7162,-3358.3656"/>
<path content="AP030,1,28,1,0,15,1,8,JPN" xlink:title="AP030" d="M13018.3838,-3358.7978L13018.9758,-3358.3355L13020.4376,-3358.7734L13021.3028,-3358.4038L13021.6995,-3358.5075L13022.2168,-3358.9645L13026.0712,-3358.8078"/>
<path content="AP030,1,28,1,0,15,1,8,JPN" xlink:title="AP030" d="M13038.707,-3359.1747L13038.3606,-3358.2798"/>
<path content="AP030,1,28,1,0,14,1,8,JPN" xlink:title="AP030" d="M13038.3606,-3358.2798L13038.4003,-3358.2798L13038.4705,-3358.3199L13039.1083,-3358.4793"/>
<path content="AP030,1,28,1,0,15,1,8,JPN" xlink:title="AP030" d="M13035.0494,-3358.2111L13035.0525,-3358.2111L13035.7162,-3358.3656"/>
<path content="AP030,1,28,1,0,15,1,8,JPN" xlink:title="AP030" d="M13026.0712,-3358.8078L13026.1093,-3358.1932"/>
<path content="AP030,1,28,1,0,14,1,8,JPN" xlink:title="AP030" d="M13026.1093,-3358.1932L13026.8997,-3358.1932"/>
<path content="AP030,1,28,1,0,16,1,8,JPN" xlink:title="AP030" d="M13034.4894,-3358.1577L13035.4904,-3358.9664"/>
<path content="AP030,1,28,1,0,15,1,8,JPN" xlink:title="AP030" d="M13034.4894,-3358.1577L13034.491,-3358.1577L13035.0494,-3358.2111"/>
<path content="AP030,1,28,1,0,15,1,8,JPN" xlink:title="AP030" d="M13026.8997,-3358.1932L13028.0716,-3357.9269L13028.7888,-3357.9777L13029.5822,-3358.0688L13030.0674,-3358.1699L13030.6259,-3358.429L13031.311,-3358.8055L13032.1838,-3358.8051L13033.0566,-3358.643L13033.8669,-3358.2119L13034.4894,-3358.1577"/>
<path content="AP030,1,28,1,0,14,1,8,JPN" xlink:title="AP030" d="M13037.5183,-3357.6324L13037.5198,-3357.6332L13037.8799,-3357.7934L13037.9501,-3357.8133L13038.1805,-3358.0132L13038.3606,-3358.2798"/>
<path content="AP030,1,28,1,0,14,1,8,JPN" xlink:title="AP030" d="M13026.8997,-3358.1932L13027.0508,-3357.7839L13027.0798,-3357.7065L13027.1301,-3357.2865"/>
<path content="AP030,1,28,1,0,14,1,8,JPN" xlink:title="AP030" d="M13024.2706,-3357.2533L13024.4003,-3357.3067L13024.8795,-3357.4532L13025.2396,-3357.7934L13025.4303,-3357.9533L13025.8301,-3358.12L13026.1093,-3358.1932"/>
<path content="AP030,1,28,1,0,14,1,8,JPN" xlink:title="AP030" d="M13027.1301,-3357.2865L13027.1301,-3357.1999"/>
<path content="AP030,1,28,1,0,14,1,8,JPN" xlink:title="AP030" d="M13035.6094,-3357.0198L13035.7697,-3357.04L13036.7401,-3357.3265L13037.5183,-3357.6324"/>
<path content="AP030,1,28,1,0,15,1,8,JPN" xlink:title="AP030" d="M13035.7162,-3358.3656L13035.9848,-3358.4278L13035.6094,-3357.0198"/>
<path content="AP030,1,28,1,0,14,1,8,JPN" xlink:title="AP030" d="M13027.1301,-3357.2865L13027.7695,-3357.3467L13028.1799,-3357.3467L13028.3798,-3357.3467L13028.5202,-3357.3067L13028.7399,-3357.1999L13028.9703,-3357.0198L13029.1306,-3356.9866L13029.4495,-3356.9668L13029.5593,-3356.8932"/>
<path content="AP030,1,28,1,0,16,1,8,JPN" xlink:title="AP030" d="M13027.1301,-3357.1999L13027.7893,-3357.2533L13028.3997,-3357.2865L13028.5599,-3357.2334L13028.6804,-3357.1465L13028.9307,-3356.9466L13029.0207,-3356.9134L13029.5593,-3356.8932"/>
<path content="AP030,1,28,1,0,15,1,8,JPN" xlink:title="AP030" d="M13018.3838,-3358.7978L13018.8385,-3356.8718"/>
<path content="AP030,1,28,1,0,14,1,8,JPN" xlink:title="AP030" d="M13042.5797,-3359.3067L13042.3294,-3359.1064L13042.3294,-3358.7132L13042.3599,-3358.26L13042.4301,-3358.1734L13042.2577,-3358.0654L13042.1173,-3357.9781L13041.9693,-3357.8865L13041.9907,-3357.74L13042.0197,-3357.6668L13042.1494,-3357.4867L13042.1097,-3357.3467L13042.2897,-3357.18L13041.8274,-3356.8596"/>
<path content="AP030,1,28,1,0,15,1,8,JPN" xlink:title="AP030" d="M13040.0787,-3358.7658L13041.8274,-3356.8596"/>
<path content="AP030,1,28,1,0,16,1,8,JPN" xlink:title="AP030" d="M13031.1615,-3356.831L13031.7184,-3357.3456L13032.3624,-3357.5897L13033.6639,-3357.7271L13034.4879,-3358.1573L13034.4894,-3358.1577"/>
<path content="AP030,1,28,1,0,14,1,8,JPN" xlink:title="AP030" d="M13029.5593,-3356.8932L13030.7907,-3356.8398L13031.1615,-3356.831"/>
<path content="AP030,1,28,1,0,14,1,8,JPN" xlink:title="AP030" d="M13031.1615,-3356.831L13031.6299,-3356.8199"/>
<path content="AP030,1,28,1,0,14,1,8,JPN" xlink:title="AP030" d="M13024.3607,-3356.6933L13024.8795,-3356.9668L13025.7706,-3357.3799L13026.0193,-3357.4867L13026.3107,-3357.4867L13026.5198,-3357.4333L13026.6098,-3357.3997L13026.7899,-3357.3067L13027.0203,-3357.2533L13027.1301,-3357.2865"/>
<path content="AP030,1,28,1,0,15,1,8,JPN" xlink:title="AP030" d="M13024.2706,-3357.2533L13024.324,-3356.9187L13024.3607,-3356.6933"/>
<path content="AP030,1,28,1,0,15,1,8,JPN" xlink:title="AP030" d="M13035.0494,-3358.2111L13034.108,-3356.6803"/>
<path content="AP030,1,28,1,0,14,1,8,JPN" xlink:title="AP030" d="M13031.6299,-3356.8199L13032.1793,-3356.8001L13032.4005,-3356.8001L13033.02,-3356.8199L13033.49,-3356.7665L13034.108,-3356.6803"/>
<path content="AP030,1,28,1,0,14,1,8,JPN" xlink:title="AP030" d="M13034.108,-3356.6803L13034.1095,-3356.6799L13034.2697,-3356.6799L13034.4696,-3356.6799L13035.08,-3356.8001L13035.4706,-3356.9866L13035.6094,-3357.0198"/>
<path content="AP030,1,28,1,0,16,1,8,JPN" xlink:title="AP030" d="M13024.3759,-3356.6154L13025.8301,-3357.3067L13026.0406,-3357.4135L13026.3992,-3357.4135L13026.9302,-3357.2201L13027.0203,-3357.1999L13027.1301,-3357.1999"/>
<path content="AP030,1,28,1,0,15,1,8,JPN" xlink:title="AP030" d="M13024.3607,-3356.6933L13024.3759,-3356.6154"/>
<path content="AP030,1,28,1,0,14,1,8,JPN" xlink:title="AP030" d="M13041.8274,-3356.8596L13042.1191,-3356.604"/>
<path content="AP030,1,28,1,0,15,1,8,JPN" xlink:title="AP030" d="M13041.9785,-3356.5086L13042.1191,-3356.604"/>
<path content="AP030,1,28,1,0,15,1,8,JPN" xlink:title="AP030" d="M13039.1083,-3358.4793L13040.509,-3357.3345L13040.9134,-3357.1072L13041.9785,-3356.5086"/>
<path content="AP030,1,28,1,0,15,1,8,JPN" xlink:title="AP030" d="M13018.8385,-3356.8718L13018.0923,-3356.4953L13017.2195,-3356.3343L13016.2857,-3356.2805L13014.9139,-3356.5506L13013.7283,-3356.982L13013.1058,-3357.3593L13012.6068,-3357.8445L13012.4207,-3358.3294L13012.3581,-3358.7605L13012.2955,-3358.976L13013.2309,-3358.8676L13014.0411,-3359.0828L13015.0986,-3359.6195"/>
<path content="AP030,1,28,1,0,14,1,8,JPN" xlink:title="AP030" d="M13042.1191,-3356.604L13042.6498,-3356.1333"/>
<path content="AP030,1,28,1,0,15,1,8,JPN" xlink:title="AP030" d="M13041.9785,-3356.5086L13042.6498,-3356.1333"/>
<path content="AP030,1,28,1,0,14,1,8,JPN" xlink:title="AP030" d="M13020.3796,-3356.0135L13020.6802,-3356.0467L13021.2006,-3356.2466L13022.3297,-3356.48L13022.9004,-3356.62L13023.2697,-3356.9134L13024.2706,-3357.2533"/>
<path content="AP030,1,28,1,0,15,1,8,JPN" xlink:title="AP030" d="M13020.3796,-3356.0135L13019.3405,-3356.7104L13018.8385,-3356.8718"/>
<path content="AP030,1,28,1,0,14,1,8,JPN" xlink:title="AP030" d="M13020.1996,-3355.9933L13020.3796,-3356.0135"/>
<path content="AP030,1,28,1,0,14,1,8,JPN" xlink:title="AP030" d="M13042.6498,-3356.1333L13042.8604,-3355.9933L13042.8436,-3355.7549L13042.8299,-3355.5401L13042.8299,-3355.5389"/>
<path content="AP030,1,28,1,0,14,1,8,JPN" xlink:title="AP030" d="M13035.6094,-3357.0198L13034.9899,-3355.4531L13034.9899,-3355.4527"/>
<path content="AP030,1,28,1,0,15,1,8,JPN" xlink:title="AP030" d="M13037.9089,-3355.3413L13039.6027,-3355.352L13040.3519,-3355.4169L13041.8442,-3356.4182L13041.9785,-3356.5086"/>
<path content="AP030,1,28,1,0,15,1,8,JPN" xlink:title="AP030" d="M13037.5183,-3357.6324L13037.5504,-3356.5136L13037.9089,-3355.3413"/>
<path content="AP030,1,28,1,0,15,1,8,JPN" xlink:title="AP030" d="M13034.9899,-3355.4527L13036.0962,-3355.3295L13037.9089,-3355.3413"/>
<path content="AP030,1,28,1,0,15,1,8,JPN" xlink:title="AP030" d="M13034.108,-3356.6803L13034.108,-3356.6795L13033.7341,-3356.0406L13033.0185,-3355.3272"/>
<path content="AP030,1,28,1,0,14,1,8,JPN" xlink:title="AP030" d="M13031.6299,-3356.8199L13031.9702,-3355.8334L13032.0801,-3355.6866L13032.2403,-3355.5599L13032.4295,-3355.4867L13033.0185,-3355.3272"/>
<path content="AP030,1,28,1,0,14,1,8,JPN" xlink:title="AP030" d="M13034.9899,-3355.4527L13034.7397,-3354.7665"/>
<path content="AP030,1,28,1,0,14,1,8,JPN" xlink:title="AP030" d="M13033.0185,-3355.3272L13033.02,-3355.3265L13034.7397,-3354.7665"/>
<path content="AP030,1,28,1,0,15,1,8,JPN" xlink:title="AP030" d="M13037.9089,-3355.3413L13038.2339,-3354.2786"/>
<path content="AP030,1,28,1,0,15,1,8,JPN" xlink:title="AP030" d="M13034.5398,-3354.1L13036.1115,-3354.6555L13036.7966,-3354.7092L13037.4832,-3354.6551L13038.2339,-3354.2786"/>
<path content="AP030,1,28,1,0,14,1,8,JPN" xlink:title="AP030" d="M13034.7397,-3354.7665L13034.5795,-3354.3732L13034.5398,-3354.1"/>
<path content="AP030,1,28,1,0,15,1,8,JPN" xlink:title="AP030" d="M13042.8299,-3355.5389L13042.9688,-3355.478"/>
<path content="AP030,1,28,1,0,15,1,8,JPN" xlink:title="AP030" d="M13032.6813,-3353.7952L13033.4305,-3354.1183L13034.5398,-3354.1"/>
<path content="AP030,1,28,1,0,15,1,8,JPN" xlink:title="AP030" d="M13033.0185,-3355.3272L13033.017,-3355.3265L13032.8079,-3354.9023L13032.6813,-3353.7952"/>
<path content="AP030,1,28,1,0,15,1,8,JPN" xlink:title="AP030" d="M13024.3759,-3356.6154L13024.5148,-3355.8998L13024.7635,-3355.3074L13025.2625,-3354.8222L13025.7614,-3354.4449L13026.0101,-3354.0676L13026.1978,-3353.6907"/>
<path content="AP030,1,28,1,0,15,1,8,JPN" xlink:title="AP030" d="M13042.6102,-3353.3066L13042.9687,-3353.4109"/>
<path content="AP030,1,28,1,0,14,1,8,JPN" xlink:title="AP030" d="M13042.8299,-3355.5389L13042.7399,-3354.1534L13042.6498,-3353.5934L13042.6102,-3353.3066"/>
<path content="AP030,1,28,1,0,14,1,8,JPN" xlink:title="AP030" d="M13024.3607,-3356.6933L13024.2203,-3356.6399L13023.5397,-3356.3198L13023.3093,-3356.2267L13022.8806,-3355.8132L13022.7402,-3355.7068L13022.3602,-3355.4134L13022.1298,-3355.2868L13021.7697,-3355.1067L13021.1304,-3354.8401L13020.8801,-3354.7134L13020.7001,-3354.62L13020.52,-3354.5334L13019.8303,-3354.0798L13019.2902,-3353.6865L13018.9697,-3353.4534L13018.7408,-3353.2871"/>
<path content="AP030,1,28,1,0,15,1,8,JPN" xlink:title="AP030" d="M13020.1996,-3355.9933L13019.9707,-3355.6133L13019.4641,-3354.771L13018.9026,-3353.9635L13018.7408,-3353.2871"/>
<path content="AP030,1,28,1,0,16,1,8,JPN" xlink:title="AP030" d="M13024.3759,-3356.6154L13023.2895,-3356.1001L13022.8302,-3355.6866L13022.29,-3355.2868L13021.6995,-3354.9999L13021.1807,-3354.7466L13020.7901,-3354.5864L13019.9005,-3353.9932L13018.7195,-3353.1998"/>
<path content="AP030,1,28,1,0,15,1,8,JPN" xlink:title="AP030" d="M13018.7408,-3353.2871L13018.7195,-3353.1998"/>
<path content="AP030,1,28,1,0,16,1,8,JPN" xlink:title="AP030" d="M13018.7195,-3353.1998L13018.6798,-3353.1666"/>
<path content="AP030,1,28,1,0,14,1,8,JPN" xlink:title="AP030" d="M13018.7408,-3353.2871L13018.6798,-3353.1666"/>
<path content="AP030,1,28,1,0,15,1,8,JPN" xlink:title="AP030" d="M13038.2339,-3354.2786L13038.6673,-3354.0619L13040.2252,-3353.307L13041.2857,-3353.0373L13041.7847,-3353.0907L13042.6102,-3353.3066"/>
<path content="AP030,1,28,1,0,15,1,8,JPN" xlink:title="AP030" d="M13026.1978,-3353.6907L13026.7593,-3353.6903L13027.5696,-3353.4744L13029.4388,-3353.0968L13030.4993,-3352.9346L13031.1234,-3352.9343L13031.7459,-3353.1494L13032.2449,-3353.5263L13032.6813,-3353.7952"/>
<path content="AP030,1,28,1,0,14,1,8,JPN" xlink:title="AP030" d="M13015.5807,-3351.7399L13016.6107,-3352.2266L13017.2897,-3352.4799L13018.6798,-3353.1666"/>
<path content="AP030,1,28,1,0,14,1,8,JPN" xlink:title="AP030" d="M13020.1996,-3355.9933L13019.9493,-3355.9399L13019.7403,-3355.9399L13019.4504,-3355.9399L13019.3604,-3355.8998L13019.2902,-3355.8468L13019.0201,-3355.6332L13018.9896,-3355.6133L13018.8599,-3355.3799L13018.6096,-3355.22L13018.3594,-3355.0198L13018.2693,-3354.9133L13017.9306,-3354.7665L13017.8101,-3354.6799L13017.54,-3354.6932L13017.3294,-3354.6799L13016.9907,-3354.66L13016.6794,-3354.6799L13016.3605,-3354.62L13016.2201,-3354.5864L13016.04,-3354.5864L13015.95,-3354.5532L13015.8798,-3354.4067L13015.5807,-3354.2797L13015.5197,-3354.2267L13015.4694,-3353.5599L13015.1306,-3353.1265L13014.5203,-3352.6798L13014.1998,-3352.5532L13013.9297,-3352.3533L13013.8107,-3352.1935L13013.8107,-3351.7067L13013.6307,-3351.4668"/>
<path content="AP030,1,28,1,0,14,1,8,JPN" xlink:title="AP030" d="M13013.3286,-3351.3233L13013.5406,-3351.3599L13013.6307,-3351.4668"/>
<path content="AP030,1,28,1,0,14,1,8,JPN" xlink:title="AP030" d="M13013.3286,-3351.3233L13013.2706,-3351.4L13013.4003,-3351.4866L13013.6307,-3351.4668"/>
<path content="AP030,1,28,1,0,15,1,8,JPN" xlink:title="AP030" d="M13018.7195,-3353.1998L13018.9651,-3352.6707L13019.0887,-3352.1854L13019.4016,-3351.162"/>
<path content="AP030,1,28,1,0,15,1,8,JPN" xlink:title="AP030" d="M13015.5807,-3351.7399L13017.157,-3351.5942L13018.3411,-3351.3241L13018.84,-3351.2161L13019.4016,-3351.162"/>
<path content="AP030,1,28,1,0,14,1,8,JPN" xlink:title="AP030" d="M13013.5193,-3351.0735L13014.36,-3351.3798L13015.1093,-3351.4866L13015.5807,-3351.7399"/>
<path content="AP030,1,28,1,0,14,1,8,JPN" xlink:title="AP030" d="M13013.3286,-3351.3233L13013.4323,-3351.1887L13013.5193,-3351.0735"/>
<path content="AP030,1,28,1,0,15,1,8,JPN" xlink:title="AP030" d="M13019.4016,-3351.162L13020.1492,-3351.1078L13020.8344,-3350.946L13021.2708,-3351.1074L13021.8323,-3351.5381L13022.0825,-3352.0226L13022.5815,-3352.2381L13023.1415,-3352.3991L13023.7656,-3352.5066L13024.202,-3352.7218L13024.8886,-3353.2063L13025.325,-3353.4756L13025.885,-3353.5831L13026.1978,-3353.6907"/>
<path content="AP030,1,28,1,0,14,1,8,JPN" xlink:title="AP030" d="M13009.0805,-3350.0267L13009.5398,-3350.0668L13009.9304,-3350.1934L13010.4294,-3350.4066L13011.6104,-3350.4066L13011.9904,-3350.4066L13012.6297,-3350.6065L13013.5193,-3351.0735"/>
<path content="AP030,1,28,1,0,15,1,8,JPN" xlink:title="AP030" d="M13026.1978,-3353.6907L13026.4465,-3352.9362L13026.6342,-3352.5593L13027.507,-3351.8047L13028.7537,-3351.0502L13029.6799,-3349.7734"/>
<path content="AP030,1,28,1,0,15,1,8,JPN" xlink:title="AP030" d="M13042.9688,-3350.7454L13042.6559,-3350.4509L13042.4072,-3349.9664L13041.9006,-3349.72"/>
<path content="AP030,1,28,1,0,14,1,8,JPN" xlink:title="AP030" d="M13042.6102,-3353.3066L13042.3798,-3352.5333L13042.2897,-3352.1732L13042.2394,-3351.8467L13042.1997,-3351.8131L13042.1494,-3351.2531L13042.1097,-3351.0735L13041.9495,-3350.7465L13041.8594,-3350.5333L13041.8106,-3350.3201L13041.8304,-3350.0999L13041.9296,-3349.8665L13041.9006,-3349.72"/>
<path content="AP030,1,28,1,0,14,1,8,JPN" xlink:title="AP030" d="M13034.5398,-3354.1L13034.3796,-3353.7598L13034.2896,-3353.5599L13033.7906,-3352.6798L13033.6105,-3352.1732L13033.5205,-3351.7735L13033.5205,-3351.4668L13033.6105,-3351.2531L13033.6502,-3351.2199L13033.4503,-3350.1534L13033.4305,-3350.0465L13033.4305,-3349.9199L13033.4305,-3349.8466L13033.49,-3349.5934"/>
<path content="AP030,1,28,1,0,16,1,8,JPN" xlink:title="AP030" d="M13007.8125,-3349.5595L13008.58,-3349.9733L13008.9005,-3350.0134L13009.0805,-3350.0267"/>
<path content="AP030,1,28,1,0,14,1,8,JPN" xlink:title="AP030" d="M13029.6799,-3349.7734L13029.7699,-3349.7734L13029.8294,-3349.7066L13030.2002,-3349.58L13030.5206,-3349.4331L13030.7007,-3349.3599L13031.1096,-3349.2867L13031.6101,-3349.1665L13032.0206,-3349.1798L13032.2403,-3349.1066L13032.7194,-3349.1467L13032.93,-3349.0398L13033.0597,-3349.02L13033.11,-3349.1665L13033.4503,-3349.4865L13033.49,-3349.5934"/>
<path content="AP030,1,28,1,0,14,1,8,JPN" xlink:title="AP030" d="M13041.9006,-3349.72L13041.7206,-3349.0932L13041.6794,-3348.9666"/>
<path content="AP030,1,28,1,0,14,1,8,JPN" xlink:title="AP030" d="M13029.6799,-3349.7734L13029.6295,-3349.7398L13029.5197,-3349.4667L13029.1107,-3349.3801L13029.0604,-3349.3267L13029.0604,-3349.2867L13029.4296,-3349.2733L13029.4693,-3349.2332L13029.4693,-3349.1665L13029.2206,-3348.7667L13029.1794,-3348.7331L13029.0802,-3348.7667L13028.9307,-3348.46L13028.9307,-3348.4066L13029.0207,-3348.4066L13028.9307,-3348.2067"/>
<path content="AP030,1,28,1,0,15,1,8,JPN" xlink:title="AP030" d="M13033.49,-3349.5934L13034.3643,-3349.3237L13035.611,-3349.2153L13036.6699,-3349.0532L13037.294,-3348.7297L13037.793,-3348.6755L13038.5406,-3348.8369L13038.8519,-3348.8907L13039.5386,-3348.621L13039.9124,-3348.2437L13040.4114,-3348.1895L13040.7227,-3348.4051L13040.9103,-3348.5126L13041.6794,-3348.9666"/>
<path content="AP030,1,28,1,0,16,1,8,JPN" xlink:title="AP030" d="M13028.9307,-3348.2067L13028.8605,-3348.0667"/>
<path content="AP030,1,28,1,0,16,1,4,JPN" xlink:title="AP030" d="M13028.8605,-3348.0667L13028.4897,-3347.3598L13027.7695,-3346.5L13027.6932,-3346.4298"/>
<path content="AP030,1,28,1,0,14,1,8,JPN" xlink:title="AP030" d="M13028.9307,-3348.2067L13028.54,-3348.1731L13028.54,-3348.1201L13028.5797,-3348.0999L13028.6102,-3348.0465L13028.5202,-3347.9733L13028.45,-3347.8333L13028.27,-3347.7734L13028.2196,-3347.76L13028.1998,-3347.5601L13028.3295,-3347.5067L13028.3295,-3347.4533L13028.1097,-3347.4335L13028.0807,-3347.3801L13027.9694,-3347.02L13027.8595,-3346.9265L13027.7893,-3346.7464L13027.6794,-3346.6599L13027.6505,-3346.6202L13027.6932,-3346.4298"/>
<path content="AP030,1,28,1,0,16,1,4,JPN" xlink:title="AP030" d="M13027.6932,-3346.4298L13027.6093,-3346.3531L13027.4506,-3346.1735"/>
<path content="AP030,1,28,1,0,14,1,8,JPN" xlink:title="AP030" d="M13027.6932,-3346.4298L13027.7405,-3346.2265L13027.6306,-3346.08L13027.5192,-3345.7932L13027.4307,-3345.7066"/>
<path content="AP030,1,28,1,0,16,1,8,JPN" xlink:title="AP030" d="M13027.4506,-3346.1735L13027.3804,-3345.9202L13027.4307,-3345.7066"/>
<path content="AP030,1,28,1,0,14,1,8,JPN" xlink:title="AP030" d="M13013.3286,-3351.3233L13013.0402,-3351.2733L13012.6801,-3350.9266L13012.4893,-3350.9132L13011.9003,-3350.6798L13011.6104,-3350.6798L13011.3297,-3350.6798L13011.2396,-3350.6931L13011.0199,-3350.84L13010.5804,-3350.84L13010.2707,-3350.8934L13009.9701,-3350.8934L13009.8602,-3350.8598L13009.4894,-3350.6798L13009.0607,-3350.4997L13008.6807,-3350.3864L13008.2703,-3350.2464L13008.0597,-3350.2464L13007.8125,-3350.1547"/>
<path content="AP030,1,28,1,0,15,1,8,JPN" xlink:title="AP030" d="M13019.4016,-3351.162L13019.4626,-3350.8389L13019.5251,-3350.4616L13019.5251,-3350.1923L13019.4,-3349.9229L13019.2764,-3349.5461L13019.3375,-3349.2229L13019.5877,-3349.1688L13019.8364,-3348.9532L13019.9615,-3348.6301L13019.7739,-3348.0377L13019.6487,-3347.6604L13019.6487,-3347.1218L13019.7113,-3346.4756L13019.8364,-3345.937L13019.7113,-3345.5597L13019.6487,-3344.9673L13019.8593,-3344.3733"/>
<path content="AP030,1,28,1,0,14,1,8,JPN" xlink:title="AP030" d="M13019.8593,-3344.3733L13019.9295,-3344.3733L13020.1096,-3344.3333L13020.2881,-3344.3333L13020.2896,-3344.3333"/>
<path content="AP030,1,28,1,0,14,1,8,JPN" xlink:title="AP030" d="M13007.8125,-3343.8143L13007.8598,-3343.7935L13007.9498,-3343.8332L13008.2199,-3343.8133L13008.3603,-3343.8866L13008.6304,-3343.8866L13008.8303,-3343.7935L13009.0393,-3343.8332L13009.1507,-3343.9533L13009.52,-3344.0468L13009.5795,-3344.12L13009.7198,-3344.3733L13009.8099,-3344.4065L13010.0204,-3344.3733L13010.1501,-3344.4401L13010.3607,-3344.4801L13010.6293,-3344.5332L13011.0199,-3344.4267L13011.3297,-3344.4267L13011.3998,-3344.3867L13011.5601,-3344.3199L13011.7401,-3344.3733L13011.9003,-3344.2799L13012.2696,-3344.3733L13012.5595,-3344.3733L13013.0798,-3344.5L13013.2706,-3344.5L13013.3804,-3344.5534L13013.5193,-3344.5866L13013.7695,-3344.5866L13013.9893,-3344.4801L13014.2395,-3344.4267L13014.3799,-3344.3333L13014.7705,-3344.2799L13015.0192,-3344.5L13015.3305,-3344.7132L13015.3595,-3344.9467L13015.4297,-3345.0535L13015.2893,-3345.1801L13015.2893,-3345.2332L13015.4007,-3345.2866L13015.6799,-3345.0199L13015.7196,-3344.9867L13015.86,-3344.9867L13015.9698,-3344.8734L13016.1102,-3344.8601L13016.2704,-3344.7666L13016.3605,-3344.64L13016.5207,-3344.5866L13016.5405,-3344.3733L13016.6107,-3344.3199L13016.9006,-3344.3199L13017.1997,-3344.1002L13017.5201,-3344.1002L13017.6498,-3344.1734L13017.7002,-3344.1532L13017.8604,-3344.12L13018.0801,-3344.1334L13018.2907,-3344.0132L13018.5593,-3343.9934L13018.7897,-3343.8999L13018.9896,-3343.94L13019.2001,-3344.1002L13019.3298,-3344.1334L13019.5404,-3344.1532L13019.6106,-3344.2265L13019.7403,-3344.2467L13019.7693,-3344.3333L13019.8593,-3344.3733"/>
<path content="AP030,1,28,1,0,14,1,8,JPN" xlink:title="AP030" d="M13027.4307,-3345.7066L13027.4506,-3345.6333L13027.5803,-3345.3999L13027.5192,-3345.1466L13027.4902,-3344.8601L13027.2903,-3344.7666L13027.1103,-3344.5534L13027.0203,-3344.4401L13026.86,-3344.3733L13026.8295,-3344.3199L13026.8295,-3344.1734L13026.3596,-3343.7935L13026.3992,-3343.6535L13026.4297,-3343.5932L13026.4694,-3343.5799L13026.68,-3343.6535L13026.8799,-3343.5932L13027.1103,-3343.4868L13027.2202,-3343.3067L13027.2903,-3343.2732L13027.4902,-3343.2331L13027.6306,-3343.1465L13027.6306,-3343.1461"/>
<path content="AP030,1,28,1,0,14,1,8,JPN" xlink:title="AP030" d="M13027.6306,-3343.1461L13027.6993,-3343.0733L13027.6993,-3342.9466L13027.7206,-3342.7132"/>
<path content="AP030,1,28,1,0,14,1,8,JPN" xlink:title="AP030" d="M13027.7206,-3342.7132L13027.7695,-3342.5865"/>
<path content="AP030,1,28,1,0,15,1,8,JPN" xlink:title="AP030" d="M13027.6306,-3343.1461L13028.3386,-3343.0805L13028.9932,-3343.5013L13029.5059,-3343.7756L13030.0629,-3343.7092L13031.456,-3342.9512L13032.4295,-3342.6346L13033.0215,-3342.4568L13033.3038,-3342.0227L13033.5434,-3341.5653"/>
<path content="AP030,1,28,1,0,15,1,8,JPN" xlink:title="AP030" d="M13020.2896,-3344.3333L13021.8246,-3344.4084L13022.0428,-3344.281L13022.3373,-3343.8663L13022.8165,-3343.5921L13022.8516,-3343.4147L13022.1085,-3342.4683L13021.9345,-3342.1368L13022.1512,-3341.8056L13022.3587,-3341.214L13022.5037,-3341.1362L13023.4573,-3341.378L13024.0265,-3341.2361L13024.6613,-3340.8966L13025.0092,-3340.9157L13025.8987,-3341.4566L13026.059,-3341.787L13026.1826,-3342.2047L13026.7181,-3342.5564L13027.3285,-3342.6212L13027.7206,-3342.7132"/>
<path content="AP030,1,28,1,0,14,1,8,JPN" xlink:title="AP030" d="M13041.6794,-3348.9666L13041.6794,-3348.7999L13041.6794,-3348.6935L13041.6107,-3348.46L13041.7206,-3348.1731L13041.6107,-3347.5601L13041.6794,-3347.4133L13041.7206,-3347.3064L13041.9006,-3347.1466L13042.0395,-3346.9265L13042.3996,-3346.7335L13042.6804,-3346.5534L13042.8604,-3346.3531L13042.9504,-3346.2067L13042.9306,-3346.0464L13042.8101,-3345.8134L13042.7902,-3345.7401L13042.8802,-3345.4132L13042.9688,-3345.3334M13042.9687,-3345.0364L13042.8802,-3344.82L13042.9001,-3344.7865L13042.9688,-3344.7453M13042.9688,-3344.1199L13042.7902,-3344.1002L13042.7704,-3344.0468L13042.8802,-3343.8866L13042.8604,-3343.7599L13042.8101,-3343.6867L13042.7704,-3343.6535L13042.6102,-3343.6665L13042.54,-3343.6867L13042.5201,-3343.7401L13042.5797,-3343.8332L13042.5598,-3343.9201L13042.4896,-3344.0132L13042.4301,-3344.0266L13042.3599,-3344.0132L13042.3294,-3343.9533L13042.3599,-3343.8133L13042.3096,-3343.6867L13042.2897,-3343.5799L13042.2897,-3343.5066L13042.1997,-3343.4334L13042.1097,-3343.4666L13041.9907,-3343.4666L13041.9296,-3343.4132L13041.9296,-3343.3266L13041.9693,-3343.1667L13041.9296,-3343.0931L13041.9296,-3342.8734L13041.9296,-3342.7467L13041.8594,-3342.5667L13041.8594,-3342.5133L13041.9495,-3342.4267L13041.9296,-3342.2798L13041.9693,-3342.12L13041.7694,-3341.9201L13041.7404,-3341.8465L13041.8106,-3341.7065L13041.8106,-3341.6332L13041.7206,-3341.5066L13041.7404,-3341.3601L13041.6794,-3341.1999L13041.6794,-3341.0198L13041.5207,-3340.7867L13041.5192,-3340.7856"/>
<path content="AP030,1,28,1,0,15,1,8,JPN" xlink:title="AP030" d="M13033.5434,-3341.5653L13032.6233,-3341.256L13032.7042,-3340.7852L13032.1732,-3340.1077L13031.9573,-3339.8438"/>
<path content="AP030,1,28,1,0,15,1,8,JPN" xlink:title="AP030" d="M13027.7695,-3342.5865L13028.5583,-3342.215L13028.9154,-3341.9064L13029.0741,-3341.4955L13029.1931,-3340.9817L13029.3518,-3340.7074L13029.5898,-3340.5361L13029.985,-3340.4675L13030.6992,-3340.1932L13031.3407,-3339.8437"/>
<path content="AP030,1,28,1,0,14,1,8,JPN" xlink:title="AP030" d="M13027.7695,-3342.5865L13027.6993,-3342.3733L13027.7405,-3342.1932L13027.7405,-3342.1333L13027.8793,-3341.9399L13027.9007,-3341.8331L13027.7893,-3341.56L13027.5604,-3341.2865L13027.4704,-3341.1266L13027.3804,-3341.04L13027.2705,-3340.9664L13027.1805,-3340.8733L13027.1805,-3340.7131L13027.2705,-3340.5334L13027.24,-3340.2599L13027.1805,-3339.9399L13027.1103,-3339.8666L13027.1103,-3339.8438"/>
<path content="AP030,1,28,1,0,14,1,8,JPN" xlink:title="AP030" d="M13041.5192,-3340.7856L13041.4001,-3340.6399L13041.3803,-3340.5666L13041.3803,-3340.4598L13041.2201,-3340.3332L13041.2003,-3340.1932L13041.1301,-3340.1531L13040.95,-3340.1733L13040.86,-3340.1531L13040.86,-3340.0131L13040.77,-3339.8998L13040.77,-3339.8666L13040.795,-3339.8438"/>
<path content="AP030,1,28,1,0,15,1,8,JPN" xlink:title="AP030" d="M13033.5434,-3341.5653L13033.9294,-3341.3887L13034.7214,-3341.4383L13035.3485,-3341.3399L13036.0031,-3340.8424L13036.5864,-3339.8438"/>
<path content="AP030,1,28,1,0,14,1,8,JPN" xlink:title="AP030" d="M13020.2896,-3344.3333L13020.3598,-3344.3199L13020.3293,-3344.0666L13020.2194,-3343.8866L13020.1996,-3343.7401L13020.0607,-3343.6333L13020.1096,-3343.38L13020.0607,-3343.2732L13020.0607,-3343.1267L13020.2194,-3343.0199L13020.2393,-3342.86L13020.3094,-3342.6601L13020.2194,-3342.4267L13020.2194,-3342.3733L13020.1492,-3342.2798L13019.9493,-3341.7934L13019.7403,-3341.7065L13019.8807,-3341.4867L13020.0195,-3341.4532L13020.1797,-3341.4532L13020.3598,-3341.2201L13020.5399,-3341.1266L13020.6497,-3341.1064L13020.7001,-3340.9664L13020.9702,-3340.86L13021.0403,-3340.8199L13021.1807,-3340.7867L13021.2006,-3340.6067L13021.2204,-3340.5334L13021.4294,-3340.3866L13021.7697,-3340.3332L13021.8796,-3340.2802L13021.9894,-3340.0799L13022.1497,-3340.0131L13022.1497,-3339.8865L13022.1295,-3339.8438"/>
<path content="AP030,1,28,1,0,15,1,8,JPN" xlink:title="AP030" d="M13041.5192,-3340.7856L13041.8213,-3340.6193L13041.8335,-3340.1421L13041.9882,-3339.8438"/>
<path content="AP030,1,28,1,0,15,1,8,JPN" xlink:title="AP030" d="M13007.8125,-3342.9068L13008.1314,-3342.6495L13008.9417,-3342.5545L13009.3582,-3342.4091L13009.5734,-3342.1398L13009.8969,-3342.017L13010.3607,-3342.0731L13010.7574,-3342.0784L13011.0016,-3341.872L13011.087,-3341.4848L13010.8566,-3340.7204L13010.939,-3340.4999L13011.0855,-3340.2088L13010.9818,-3340.0177L13010.582,-3339.8911L13010.5646,-3339.8438"/>
<path content="AP030,1,28,1,1,14,1,8,JPN" xlink:title="AP030" d="M13034.7397,-3354.7665L13035.8507,-3354.435L13037.2819,-3354.5602L13038.2339,-3354.2786L13039.1066,-3354.3813L13040.6451,-3353.8446L13042.7399,-3354.1534L13042.9688,-3354.1697"/>
</g>
</svg>
