<?xml version="1.0" encoding="UTF-8"?>
<svg  xmlns="http://www.w3.org/2000/svg" xmlns:xlink="http://www.w3.org/1999/xlink" xmlns:go="http://purl.org/svgmap/profile" property="f_code,acc,exs,rst,med,rtt,RSU,loc,soc" viewBox="13921.875 -3515.625 140.625 140.625" go:dataArea="13921.875 -3515.625 140.625 140.625" >
<metadata>
 <rdf:RDF xmlns:rdf="http://www.w3.org/1999/02/22-rdf-syntax-ns#" xmlns:crs="http://opengis.org/xmldtds/transformations.dtd" xmlns:svg="http://www.w3.org/svg" >
  <rdf:Description>
   <crs:CoordinateReferenceSystem rdf:resource="http://purl.org/crs/84" svg:transform="matrix(100.0,0.0,0.0,-100.0,0.0,0.0)" />
  </rdf:Description>
 </rdf:RDF>
</metadata>
<globalCoordinateSystem srsName="http://purl.org/crs/84" transform="matrix(100.0,0.0,0.0,-100.0,0.0,0.0)" />
<defs>
 <g id="p0" >
  <circle cx="0.0" cy="0.0" r="3" stroke="green" stroke-width="2.0" vector-effect="non-scaling-stroke" />
 </g>
</defs>
<g fill="none" fill-rule="evenodd" stroke="#00ff00" stroke-width="2" opacity="0.5" vector-effect="non-scaling-stroke" stroke-linejoin="bevel" >
<path content="AP030,1,28,1,0,14,1,8,JPN" xlink:title="AP030" d="M13981.9562,-3515.625L13981.9504,-3515.5399L13982.0206,-3515.4533L13982.0801,-3515.3797L13982.1793,-3515.3465"/>
<path content="AP030,1,28,1,0,16,1,8,JPN" xlink:title="AP030" d="M13982.1793,-3515.3465L13982.4005,-3515.3599L13982.5195,-3515.3797L13982.5806,-3515.3465L13982.6294,-3515.3267L13982.6996,-3515.3267L13982.8094,-3515.3465L13982.8796,-3515.3267L13982.9498,-3515.3065L13983.02,-3515.3267L13983.0658,-3515.4644L13983.0795,-3515.5067L13983.0597,-3515.5266L13983.0414,-3515.5266L13982.9498,-3515.5266L13982.7698,-3515.4865L13982.6996,-3515.5266L13982.7194,-3515.58L13982.9697,-3515.6132L13983.0139,-3515.6227L13983.0241,-3515.625"/>
<path content="AP030,1,28,1,0,16,1,4,JPN" xlink:title="AP030" d="M13984.3597,-3515.1798L13984.022,-3515.625"/>
<path content="AP030,1,28,1,0,16,1,8,JPN" xlink:title="AP030" d="M14030.3101,-3515.1066L14030.4306,-3515.1466L14030.5405,-3515.2199L14030.5634,-3515.266L14030.6305,-3515.3999L14030.7205,-3515.5399L14030.8124,-3515.625"/>
<path content="AP030,1,28,1,0,14,1,8,JPN" xlink:title="AP030" d="M14031.6629,-3515.625L14031.6803,-3515.5933L14031.694,-3515.5067L14031.7001,-3515.4667L14031.7001,-3515.3797L14031.5598,-3515.2531L14031.4301,-3515.1665L14031.3995,-3515.0932L14031.4301,-3514.9864"/>
<path content="AP030,1,28,1,0,14,1,8,JPN" xlink:title="AP030" d="M14030.3101,-3515.1066L14030.3604,-3515.1066L14030.4504,-3515.1066L14030.7007,-3515.0932L14030.8105,-3515.0532L14031.2698,-3514.9998L14031.4301,-3514.9864"/>
<path content="AP030,1,28,1,0,14,1,8,JPN" xlink:title="AP030" d="M14031.4301,-3514.9864L14031.5598,-3514.9864L14031.7001,-3515.02L14031.7902,-3515.0932L14031.9305,-3515.2L14032.0602,-3515.3267L14032.2693,-3515.3999L14032.3807,-3515.4331L14032.4005,-3515.4533L14032.4905,-3515.5598L14032.6013,-3515.625"/>
<path content="AP030,1,28,1,0,15,1,8,JPN" xlink:title="AP030" d="M14023.201,-3514.9193L14025.1617,-3515.3442L14025.5319,-3515.625"/>
<path content="AP030,1,28,1,0,15,1,8,JPN" xlink:title="AP030" d="M14022.4983,-3515.625L14022.876,-3515.4427L14023.201,-3514.9193"/>
<path content="AP030,1,28,1,0,15,1,8,JPN" xlink:title="AP030" d="M13964.0633,-3515.625L13963.5513,-3515.1463L13962.8448,-3514.6404"/>
<path content="AP030,1,28,1,0,15,1,8,JPN" xlink:title="AP030" d="M13962.4695,-3514.2067L13963.3133,-3514.3944L13963.8474,-3514.6347L13964.1586,-3515.0028L13964.6957,-3515.1131L13964.9185,-3515.1154L13965.3702,-3514.5996L13965.6891,-3514.5512L13966.4185,-3514.5592L13966.8518,-3515.189L13966.8447,-3515.625"/>
<path content="AP030,1,28,1,0,15,1,8,JPN" xlink:title="AP030" d="M14007.6096,-3515.625L14007.6096,-3515.5121L14007.6096,-3514.8602L14007.3425,-3514.4253L14006.9504,-3514.0667"/>
<path content="AP030,1,28,1,0,16,1,8,JPN" xlink:title="AP030" d="M14006.6327,-3515.625L14006.6101,-3515.58L14006.6498,-3515.3465L14006.6498,-3515.1665L14006.5796,-3514.9864L14006.5796,-3514.8197L14006.72,-3514.6065L14006.7902,-3514.4066L14006.9,-3514.2265L14006.9305,-3514.1197L14006.9504,-3514.0667"/>
<path content="AP030,1,28,1,0,14,1,8,JPN" xlink:title="AP030" d="M14027.1805,-3514.0999L14027.2202,-3514.0465L14027.3605,-3513.9732L14027.4704,-3513.9732L14027.5406,-3514.0465L14027.6306,-3514.0999L14027.8305,-3514.2067L14028.0396,-3514.32L14028.2394,-3514.32L14028.3142,-3514.2963L14028.4698,-3514.2467L14028.7399,-3514.3532L14028.9001,-3514.4798L14029.0207,-3514.5332L14029.1306,-3514.5531L14029.2007,-3514.5866L14029.2694,-3514.6198L14029.3304,-3514.7133L14029.4693,-3514.8399L14029.6097,-3514.9864L14029.7699,-3515.073L14029.95,-3515.1466L14030.3101,-3515.1066"/>
<path content="AP030,1,28,1,0,15,1,8,JPN" xlink:title="AP030" d="M13995.2148,-3515.625L13995.2148,-3514.9326L13995.3918,-3513.8454"/>
<path content="AP030,1,28,1,0,14,1,8,JPN" xlink:title="AP030" d="M14024.5193,-3513.7932L14024.6506,-3513.8332L14024.7894,-3513.9L14024.9298,-3513.9732L14025.1999,-3514.0999L14025.4898,-3514.2067L14025.5798,-3514.2265L14025.8804,-3514.32L14026.3107,-3514.3867L14026.7899,-3514.3532L14027.0203,-3514.2998L14027.1805,-3514.0999"/>
<path content="AP030,1,28,1,0,16,1,8,JPN" xlink:title="AP030" d="M13984.3597,-3515.1798L13984.4696,-3515.0398L13984.5795,-3514.8731L13984.6802,-3514.7133L13984.7397,-3514.46L13984.79,-3514.3333L13984.7702,-3514.0266L13984.7397,-3513.8866L13984.7031,-3513.7394"/>
<path content="AP030,1,28,1,0,15,1,8,JPN" xlink:title="AP030" d="M13984.7031,-3513.7394L13984.8557,-3513.8454L13985.3882,-3514.0629L13986.1847,-3513.9904L13987.3352,-3513.9179L13987.7777,-3513.8454L13988.4857,-3513.8454L13989.3707,-3513.8454L13990.3458,-3513.773L13990.7883,-3513.5555L13991.4963,-3513.7005L13992.8238,-3513.9904L13994.2413,-3513.9179L13995.3918,-3513.8454"/>
<path content="AP030,1,28,1,0,16,1,8,JPN" xlink:title="AP030" d="M13962.4695,-3514.2067L13962.3795,-3513.9732L13962.2696,-3513.6868L13962.1994,-3513.5399L13962.1796,-3513.5067"/>
<path content="AP030,1,28,1,0,14,1,8,JPN" xlink:title="AP030" d="M14024.6094,-3513.3801L14024.8596,-3513.4666L14025.0397,-3513.5399L14025.2197,-3513.5265L14025.3296,-3513.5597L14025.4898,-3513.7066L14025.65,-3513.813L14025.9506,-3513.8332L14026.3596,-3513.8664L14026.5594,-3513.8866L14026.7197,-3513.8866L14026.7899,-3513.9L14026.8433,-3513.9973L14026.86,-3514.0266L14027.0203,-3514.08L14027.1805,-3514.0999"/>
<path content="AP030,1,28,1,0,14,1,8,JPN" xlink:title="AP030" d="M14024.5193,-3513.7932L14024.5407,-3513.6868L14024.6048,-3513.5376L14024.6094,-3513.5265L14024.6094,-3513.3801"/>
<path content="AP030,1,28,1,0,15,1,8,JPN" xlink:title="AP030" d="M13983.9706,-3513.2332L13984.1721,-3513.3732L13984.7031,-3513.7394"/>
<path content="AP030,1,28,1,0,14,1,8,JPN" xlink:title="AP030" d="M13982.1793,-3515.3465L13982.3105,-3515.2866L13982.5607,-3515.2332L13982.8995,-3515.1264L13983.0597,-3514.9467L13983.1802,-3514.7331L13983.2901,-3514.64L13983.4305,-3514.4264L13983.4702,-3514.3532L13983.5205,-3514.2467L13983.7204,-3513.9931L13983.7906,-3513.8332L13983.8806,-3513.813L13983.9294,-3513.7932L13983.9294,-3513.6868L13983.9005,-3513.5933L13983.8806,-3513.4533L13983.9706,-3513.2332"/>
<path content="AP030,1,28,1,0,15,1,8,JPN" xlink:title="AP030" d="M14014.224,-3515.625L14014.4257,-3515.2946L14014.6912,-3514.3528L14014.8682,-3513.5555L14014.9704,-3512.7132"/>
<path content="AP030,1,28,1,0,14,1,8,JPN" xlink:title="AP030" d="M14001.0056,-3515.625L14001.0193,-3515.5598L14001.1093,-3515.4133L14001.2405,-3515.3267L14001.2405,-3515.2L14001.1795,-3515.1466L14001.1307,-3515.0398L14001.0605,-3514.9666L14001.0193,-3514.8197L14001.0605,-3514.7865L14001.1307,-3514.7667L14001.1795,-3514.7999L14001.1993,-3514.8598L14001.1993,-3514.8933L14001.2207,-3514.9132L14001.2894,-3514.9132L14001.3596,-3514.8933L14001.3992,-3514.8933L14001.4297,-3514.9265L14001.4893,-3514.9265L14001.5396,-3514.8933L14001.4893,-3514.7999L14001.4496,-3514.7667L14001.3596,-3514.7133L14001.3306,-3514.64L14001.3992,-3514.5531L14001.4893,-3514.5L14001.7197,-3514.4066L14001.7899,-3514.3333L14001.77,-3514.1731L14001.68,-3513.9198L14001.6098,-3513.76L14001.68,-3513.5933L14001.68,-3513.4666L14001.5594,-3513.3064L14001.5793,-3513.0932L14001.5793,-3513.0733L14001.5793,-3512.9868L14001.6296,-3512.6064"/>
<path content="AP030,1,28,1,0,15,1,8,JPN" xlink:title="AP030" d="M13995.3918,-3513.8454L13995.9229,-3513.8454L13996.7194,-3513.8454L13997.5159,-3513.7005L13998.0469,-3513.3385L13998.9334,-3513.3385L13999.8184,-3513.3385L14000,-3513.2515L14000.8804,-3512.8311L14001.6296,-3512.6064"/>
<path content="AP030,1,28,1,0,14,1,8,JPN" xlink:title="AP030" d="M14022.9294,-3511.9534L14023.0194,-3512.133L14023.0804,-3512.1933L14023.1995,-3512.2467L14023.3795,-3512.2467L14023.5199,-3512.2467L14023.6099,-3512.3333L14023.79,-3512.5134L14023.9304,-3512.6801L14024.0402,-3512.7865L14024.2706,-3512.9131L14024.4003,-3513.0398L14024.4705,-3513.1798L14024.5605,-3513.3266L14024.6094,-3513.3801"/>
<path content="AP030,1,28,1,0,14,1,8,JPN" xlink:title="AP030" d="M14024.5193,-3513.7932L14024.3607,-3513.7199L14024.2203,-3513.6131L14024.2004,-3513.5799L14024.1104,-3513.4666L14024.0601,-3513.4132L14024.0402,-3513.3465L14024.0402,-3513.3064L14023.97,-3513.0932L14023.97,-3513.0733L14023.8998,-3512.9997L14023.7701,-3512.9131L14023.3093,-3512.6198L14023.0392,-3512.5332L14022.8806,-3512.4397L14022.8302,-3512.3531L14022.7905,-3512.1933L14022.8104,-3512.133L14022.8271,-3512.1086L14022.8271,-3512.1082L14022.9294,-3511.9534"/>
<path content="AP030,1,28,1,0,15,1,8,JPN" xlink:title="AP030" d="M14020.7397,-3511.8332L14020.8099,-3512.0945L14021.0709,-3513.0665L14021.6995,-3514.1212L14023.201,-3514.9193"/>
<path content="AP030,1,28,1,0,14,1,8,JPN" xlink:title="AP030" d="M14014.9704,-3512.7132L14015.0604,-3512.7666L14015.1505,-3512.7666L14015.1794,-3512.7666L14015.3107,-3512.7666L14015.5594,-3512.7666L14015.6799,-3512.7666L14016.1804,-3512.7865L14016.2704,-3512.7865L14016.5207,-3512.7998L14016.8106,-3512.7865L14016.8625,-3512.7594L14016.9495,-3512.7132L14017.0197,-3512.5866L14017.3096,-3512.3199L14017.3096,-3512.2066L14017.3294,-3512.133L14017.3798,-3512.133L14017.72,-3512.1532L14017.8299,-3512.2066L14017.9703,-3512.2997L14018.0603,-3512.3531L14018.3304,-3512.3867L14018.4906,-3512.4599L14018.6096,-3512.553L14018.6996,-3512.6198L14018.8599,-3512.7132L14018.9499,-3512.7331L14018.9896,-3512.7464L14019.2703,-3512.8201L14019.4,-3512.7998L14019.5602,-3512.7132L14019.6304,-3512.6198L14019.5801,-3512.5134L14019.5602,-3512.4065L14019.6106,-3512.3531L14019.7205,-3512.3199L14019.9005,-3512.2601L14019.9707,-3512.2066L14020.1096,-3512.1532L14020.2698,-3512.08L14020.4498,-3512.0464L14020.7397,-3511.8332"/>
<path content="AP030,1,28,1,0,14,1,8,JPN" xlink:title="AP030" d="M14020.7397,-3511.8332L14020.8801,-3511.7733L14021.2204,-3511.7599L14021.2906,-3511.7599L14021.6507,-3511.7733L14021.8597,-3511.7733L14021.8994,-3511.7733L14022.0596,-3511.7931L14022.3801,-3511.7931L14022.7402,-3511.7931L14022.8302,-3511.8465L14022.9294,-3511.9534"/>
<path content="AP030,1,28,1,0,16,1,8,JPN" xlink:title="AP030" d="M13984.7031,-3513.7394L13984.6298,-3513.4533L13984.61,-3513.3266L13984.5398,-3512.8933L13984.52,-3512.7998L13984.5596,-3512.6064L13984.5795,-3512.5866L13984.7702,-3512.3531L13985.0204,-3511.9732L13985.08,-3511.7397L13985.08,-3511.7065L13985.0204,-3511.2331"/>
<path content="AP030,1,28,1,0,14,1,8,JPN" xlink:title="AP030" d="M13983.9706,-3513.2332L13984.0195,-3513.0733L13984.0393,-3512.9265L13983.9493,-3512.8399L13983.8303,-3512.7331L13983.7204,-3512.5L13983.6304,-3512.3867L13983.5602,-3512.3199L13983.49,-3512.2601L13983.2901,-3511.94L13983.1802,-3511.7065L13983.1802,-3511.5601L13983.1802,-3511.2534L13983.2001,-3511.0397L13983.2703,-3511.0001L13983.4,-3511.0001"/>
<path content="AP030,1,28,1,0,15,1,8,JPN" xlink:title="AP030" d="M13983.4,-3511.0001L13983.6502,-3510.9818L13983.8593,-3510.9665L13984.1995,-3510.8932L13984.2896,-3510.8932L13984.3597,-3510.9131L13984.4696,-3511.1267L13984.5795,-3511.1797L13984.7,-3511.2198L13984.8297,-3511.1797L13985.0204,-3511.2331"/>
<path content="AP030,1,28,1,0,14,1,8,JPN" xlink:title="AP030" d="M14009.52,-3510.3867L14009.6298,-3510.5331L14009.6802,-3510.5865L14009.9304,-3510.82L14010.08,-3510.9131L14010.2707,-3511.0001L14010.4614,-3510.968L14010.7407,-3511.0001L14011.0596,-3511.0001L14011.3297,-3511.1065L14011.47,-3511.2331L14011.7401,-3511.4532L14011.8301,-3511.5067L14012.0407,-3511.6333L14012.5198,-3511.8668L14012.9898,-3512.0667L14013.3102,-3512.1933L14013.5605,-3512.2467L14013.6795,-3512.2799L14013.8184,-3512.3215L14013.9893,-3512.3734L14014.2197,-3512.4065L14014.4302,-3512.3734L14014.6805,-3512.3734L14014.8102,-3512.4268L14014.8605,-3512.4798L14014.9506,-3512.64L14014.9704,-3512.7132"/>
<path content="AP030,1,28,1,0,15,1,8,JPN" xlink:title="AP030" d="M14006.9504,-3514.0667L14006.8115,-3513.6284L14006.723,-3513.0486L14007.3425,-3512.4687L14007.7866,-3511.9614L14008.4061,-3511.5269L14008.7601,-3510.947L14009.52,-3510.3867"/>
<path content="AP030,1,28,1,0,15,1,8,JPN" xlink:title="AP030" d="M13995.3918,-3513.8454L13994.6838,-3512.6862L13993.5318,-3511.8168L13993.0008,-3510.8746L13992.6468,-3510.2222"/>
<path content="AP030,1,28,1,0,16,1,8,JPN" xlink:title="AP030" d="M13985.0204,-3511.2331L13985.1781,-3510.6705L13985.4797,-3510.1282L13985.5402,-3510.0121"/>
<path content="AP030,1,28,1,0,15,1,8,JPN" xlink:title="AP030" d="M13984.7702,-3509.9197L13984.9701,-3509.9438L13985.5402,-3510.0121"/>
<path content="AP030,1,28,1,0,14,1,8,JPN" xlink:title="AP030" d="M13983.4,-3511.0001L13983.49,-3510.9264L13984.1797,-3510.4267L13984.6298,-3510.08L13984.7397,-3509.9934L13984.7702,-3509.9197"/>
<path content="AP030,1,28,1,0,15,1,8,JPN" xlink:title="AP030" d="M13991.5848,-3509.8602L13992.0929,-3510.033L13992.6468,-3510.2222"/>
<path content="AP030,1,28,1,0,15,1,8,JPN" xlink:title="AP030" d="M13992.6468,-3510.2222L13991.5848,-3509.8602"/>
<path content="AP030,1,28,1,0,15,1,8,JPN" xlink:title="AP030" d="M13985.5402,-3510.0121L13985.817,-3510.0452L13986.8912,-3510.4355L13988.4308,-3510.5762L13990.4358,-3510.5526L13991.5848,-3509.8602"/>
<path content="AP030,1,28,1,0,14,1,8,JPN" xlink:title="AP030" d="M14009.52,-3510.3867L14009.3597,-3510.0998L14009.1995,-3509.6664"/>
<path content="AP030,1,28,1,0,15,1,8,JPN" xlink:title="AP030" d="M14001.6296,-3512.6064L14002.562,-3512.4687L14004.6875,-3512.2513L14005.484,-3512.1063L14006.6345,-3511.5269L14008.0521,-3510.947L14009.1995,-3509.6664"/>
<path content="AP030,1,28,1,0,14,1,8,JPN" xlink:title="AP030" d="M14001.6296,-3512.6064L14001.5594,-3512.4268L14001.3794,-3511.993L14001.2894,-3511.8999L14000.9705,-3511.6665L14000.7904,-3511.5398L14000.7706,-3511.4666L14000.7904,-3511.433L14000.8301,-3511.3464L14000.8301,-3511.1668L14000.7004,-3511.0397L14000.56,-3510.9867L14000.3098,-3510.873L14000.1099,-3510.7132L14000,-3510.6827L13999.9893,-3510.68L13999.8093,-3510.6598L13999.6796,-3510.6068L13999.4904,-3510.64L13999.3805,-3510.4797L13999.2905,-3510.4797L13999.1806,-3510.4599L13999.0601,-3510.3733L13999.0601,-3510.1334L13999.0204,-3510.0266L13998.97,-3509.94L13998.97,-3509.5932L13998.9502,-3509.5798"/>
<path content="AP030,1,28,1,0,14,1,8,JPN" xlink:title="AP030" d="M13997.4304,-3509.2197L13997.5403,-3509.3067L13997.8607,-3509.5398L13998.0392,-3509.6531L13998.1796,-3509.6664L13998.2895,-3509.6531L13998.3994,-3509.613L13998.5199,-3509.5932L13998.6496,-3509.56L13998.79,-3509.5066L13998.9304,-3509.5398L13998.9502,-3509.5798"/>
<path content="AP030,1,28,1,0,15,1,8,JPN" xlink:title="AP030" d="M13992.6468,-3510.2222L13994.2474,-3509.9106L13995.9427,-3509.9251L13997.4304,-3509.2197"/>
<path content="AP030,1,28,1,0,14,1,8,JPN" xlink:title="AP030" d="M14009.1995,-3509.6664L14009.0393,-3509.3266L14008.9706,-3509.0733L14008.9706,-3508.9867L14008.9294,-3508.86"/>
<path content="AP030,1,28,1,0,15,1,8,JPN" xlink:title="AP030" d="M13998.9502,-3509.5798L14000,-3509.6058L14000.9308,-3509.6291L14002.1622,-3509.8927L14004.0131,-3509.7382L14004.892,-3509.2808L14005.6686,-3508.8642L14006.6437,-3508.9565L14008.9294,-3508.86"/>
<path content="AP030,1,28,1,0,14,1,8,JPN" xlink:title="AP030" d="M13984.7702,-3509.9197L13984.7702,-3509.8465L13984.8297,-3509.4334L13984.8602,-3509.3067L13984.8801,-3509.1465L13984.8999,-3509.0733L13984.8602,-3508.9268L13984.7198,-3508.7334L13984.7,-3508.6933L13984.6298,-3508.6201L13984.5398,-3508.5667L13984.4498,-3508.5331L13984.3994,-3508.4267L13984.3796,-3508.3199L13984.3597,-3508.2466L13984.2194,-3508.1734L13984.1797,-3508.12L13984.1095,-3507.9933L13983.9706,-3507.8133L13983.9005,-3507.7065L13983.7006,-3507.5932L13983.3603,-3507.4532L13983.2001,-3507.233L13983.0795,-3507.1465L13982.8598,-3507.093L13982.5394,-3506.9668L13982.4295,-3506.8398L13982.4493,-3506.5331L13982.4707,-3506.4598L13982.6492,-3506.3534L13982.6996,-3506.3198L13982.7393,-3506.2267L13982.7698,-3506.0799L13982.8995,-3505.74L13982.9498,-3505.5798L13983.0399,-3505.4333L13983.2397,-3505.2868L13983.3298,-3505.1067L13983.4,-3504.9866L13983.49,-3504.8401L13983.5205,-3504.7131L13983.5205,-3504.66L13983.49,-3504.5132L13983.4702,-3504.4266L13983.3801,-3504.2465L13983.3298,-3504.1L13983.3298,-3504.0264L13983.3298,-3503.8467"/>
<path content="AP030,1,28,1,0,16,1,8,JPN" xlink:title="AP030" d="M13985.5402,-3510.0121L13985.7624,-3509.5859L13985.8378,-3509.0901L13985.8189,-3508.5943L13985.7435,-3508.2535L13985.5174,-3507.5408L13985.3477,-3507.0759L13985.1404,-3506.6576L13984.9142,-3505.5576L13984.3201,-3503.8467"/>
<path content="AP030,1,28,1,0,14,1,8,JPN" xlink:title="AP030" d="M13983.3298,-3503.8467L13984.3201,-3503.8467"/>
<path content="AP030,1,28,1,0,14,1,8,JPN" xlink:title="AP030" d="M13997.4304,-3509.2197L13997.29,-3509.2331L13997.2397,-3509.1801L13997.1497,-3508.913L13997.1298,-3508.7132L13997.0795,-3508.6067L13996.9894,-3508.5133L13996.9299,-3508.4267L13996.8597,-3508.3332L13996.7697,-3508.2466L13996.8094,-3508.1532L13996.8094,-3507.9933L13996.8796,-3507.8331L13996.8597,-3507.7732L13996.7697,-3507.7198L13996.7407,-3507.6668L13996.6797,-3507.5066L13996.4905,-3507.3997L13996.2906,-3507.3467L13996.0602,-3507.3067L13995.99,-3507.2533L13995.9305,-3507.1465L13995.9305,-3506.7867L13996.0205,-3506.7467L13996.1105,-3506.7131L13996.1502,-3506.6799L13996.1502,-3506.6067L13996.0602,-3506.4598L13995.99,-3506.3L13995.8603,-3506.0265L13995.8099,-3505.8998L13995.7703,-3505.7934L13995.7001,-3505.6534L13995.7199,-3505.6332L13995.7901,-3505.4867L13995.7901,-3505.0934L13995.7703,-3505.0198L13995.7397,-3504.9133L13995.7901,-3504.8599L13995.8298,-3504.8L13995.7901,-3504.7333L13995.7397,-3504.2599L13995.7001,-3503.8998L13995.5597,-3503.7598L13995.4498,-3503.6667L13995.4498,-3503.5797L13995.4895,-3503.5267L13995.4895,-3503.3466"/>
<path content="AP030,1,28,1,0,14,1,8,JPN" xlink:title="AP030" d="M13984.3201,-3503.8467L13984.6497,-3503.8467L13984.9701,-3503.8334L13985.0601,-3503.7933L13985.1807,-3503.6865L13985.5194,-3503.36L13985.6995,-3503.22L13985.9894,-3502.9865L13986.5601,-3502.4597L13986.6104,-3502.4067"/>
<path content="AP030,1,28,1,0,15,1,8,JPN" xlink:title="AP030" d="M13983.3298,-3503.8467L13983.4122,-3503.5332L13983.6716,-3503.347L13983.9874,-3503.2822L13984.2667,-3503.0773L13984.4437,-3502.9285L13984.7977,-3502.8263L13985.2722,-3502.7706L13985.2814,-3502.7687L13985.8017,-3502.6684L13986.6104,-3502.4067"/>
<path content="AP030,1,28,1,0,15,1,8,JPN" xlink:title="AP030" d="M13989.1937,-3501.9615L13990.5426,-3502.5707L13990.8493,-3502.6157L13991.5176,-3502.5375L13992.0273,-3502.8797L13994.5404,-3503.1555L13995.4895,-3503.3466"/>
<path content="AP030,1,28,1,0,15,1,8,JPN" xlink:title="AP030" d="M13991.5848,-3509.8602L13990.7883,-3509.2079L13989.8148,-3507.9037L13989.4592,-3506.5269L13989.2822,-3505.2952L13989.2822,-3505.2223L13989.1937,-3503.1937L13989.1937,-3501.9615"/>
<path content="AP030,1,28,1,0,15,1,8,JPN" xlink:title="AP030" d="M13986.6104,-3502.4067L13988.0844,-3502.1259L13989.1937,-3501.9615"/>
<path content="AP030,1,28,1,0,14,1,8,JPN" xlink:title="AP030" d="M13996.4005,-3501.4332L13996.5805,-3501.4866L13996.6995,-3501.54L13996.8597,-3501.6331L13997.0398,-3501.7067L13997.1298,-3501.72L13997.1802,-3501.7399L13997.3938,-3501.7509L13997.5601,-3501.7597L13997.7203,-3501.8333L13997.8607,-3501.8867L13997.9706,-3501.8997L13998.0804,-3501.9398L13998.3597,-3502.1L13998.5397,-3502.1931L13998.8297,-3502.3197L13999.1501,-3502.4399L13999.2004,-3502.4597L13999.2706,-3502.5131L13999.4003,-3502.6066L13999.4705,-3502.66L13999.5605,-3502.7466L13999.6796,-3502.8732L14000,-3502.9739L14000.0397,-3502.9865L14000.1999,-3503.0731L14000.3601,-3503.1265L14000.56,-3503.2333L14000.8301,-3503.4866L14000.8804,-3503.5267L14001.1093,-3503.6533L14001.3107,-3503.6865L14001.6296,-3503.6865L14001.7197,-3503.7197L14001.8097,-3503.8666L14001.8799,-3503.9734L14002.0599,-3504.1L14002.3102,-3504.3198L14002.5406,-3504.5532L14002.8107,-3504.7333L14003.0594,-3504.8401L14003.2394,-3504.9267L14003.4897,-3505.0934L14003.6804,-3505.1998L14003.9902,-3505.3066L14004.1794,-3505.4001L14004.3793,-3505.5065L14004.9896,-3505.7732L14005.2902,-3505.92L14005.3101,-3505.92L14005.4306,-3505.92L14006.1493,-3505.92L14006.9305,-3505.8666L14006.9504,-3505.8666L14007.2403,-3505.8998L14007.3105,-3506.0265L14007.4295,-3506.1932L14007.6294,-3506.3534L14007.7896,-3506.44L14007.93,-3506.5865L14007.9361,-3506.8981L14008.1955,-3506.934L14008.3603,-3506.9866L14008.3298,-3507.1667L14008.3603,-3507.2731L14008.4503,-3507.3799L14008.58,-3507.3997L14008.8806,-3507.3467L14009.0195,-3507.3799L14009.4498,-3507.5397L14009.5596,-3507.5932L14009.5596,-3507.6332L14009.5795,-3507.74L14009.5596,-3507.793L14009.5367,-3507.8056L14009.3796,-3507.8865L14009.3307,-3507.9533L14009.3094,-3508.3199L14009.2697,-3508.4267L14009.0393,-3508.6201L14008.9294,-3508.7666L14008.9294,-3508.86"/>
<path content="AP030,1,28,1,0,14,1,8,JPN" xlink:title="AP030" d="M13995.4895,-3503.3466L13995.5399,-3503.2532L13995.5597,-3503.1998L13995.7397,-3502.9266L13995.8099,-3502.8732L13996.0205,-3502.7466L13996.0403,-3502.66L13996.08,-3502.3331L13996.2692,-3502.153L13996.2402,-3502.0267L13996.2692,-3501.8333L13996.3806,-3501.7597L13996.4706,-3501.7067L13996.3806,-3501.5598L13996.4005,-3501.4332"/>
<path content="AP030,1,28,1,0,14,1,8,JPN" xlink:title="AP030" d="M13991.33,-3500.0267L13991.4703,-3500.0797L13991.5207,-3500.1331L13991.6306,-3500.1732L13991.9296,-3500.193L13992.0593,-3500.2464L13992.1997,-3500.3201L13992.2897,-3500.3864L13992.3599,-3500.4066L13993.0206,-3500.4066L13993.1503,-3500.4997L13993.4692,-3500.7332L13993.5394,-3500.7999L13993.6295,-3500.9132L13993.7195,-3500.9266L13994.1299,-3500.9998L13994.2398,-3501.0532L13994.3604,-3501.1265L13994.5801,-3501.1799L13994.7693,-3501.1997L13995.1294,-3501.2199L13995.3094,-3501.2733L13995.5795,-3501.2867L13995.8801,-3501.3268L13996.2204,-3501.4L13996.4005,-3501.4332"/>
<path content="AP030,1,28,1,0,14,1,8,JPN" xlink:title="AP030" d="M13988.9694,-3499.9001L13989.1296,-3499.9733L13989.4302,-3499.9733L13990.0803,-3499.9531L13990.3107,-3499.9531L13990.4343,-3500L13990.4694,-3500.0134L13990.5807,-3500.0134L13990.7776,-3500L13990.8798,-3499.9931L13991.04,-3499.9733L13991.185,-3500L13991.33,-3500.0267"/>
<path content="AP030,1,28,1,0,15,1,8,JPN" xlink:title="AP030" d="M13989.1937,-3501.9615L13989.1937,-3501.1646L13988.9877,-3500L13988.9694,-3499.9001"/>
<path content="AP030,1,28,1,0,15,1,8,JPN" xlink:title="AP030" d="M13986.6104,-3502.4067L13986.4716,-3502.0916L13986.5921,-3501.543L13986.7416,-3501.1707L13986.7416,-3500.7336L13986.6852,-3500.4082L13986.6547,-3500L13986.6486,-3499.9153L13986.6577,-3499.6456L13986.6501,-3499.2733"/>
<path content="AP030,1,28,1,0,14,1,8,JPN" xlink:title="AP030" d="M13986.6104,-3502.4067L13986.7706,-3502.1732L13987.2192,-3501.6331L13987.2406,-3501.58L13987.2406,-3500.9998L13987.2192,-3500.6599L13987.2192,-3500.2464L13987.2192,-3500.1198L13987.2406,-3500.0134L13987.2559,-3500L13987.3306,-3499.9397L13987.3993,-3499.8665L13987.5595,-3499.6532L13987.5595,-3499.5068L13987.5198,-3499.2001"/>
<path content="AP030,1,28,1,0,14,1,8,JPN" xlink:title="AP030" d="M13987.5198,-3499.2001L13987.9303,-3499.1665L13988.1302,-3499.1264L13988.5406,-3499.1467L13988.7405,-3499.2733L13988.8794,-3499.4133L13988.8992,-3499.4667L13988.9297,-3499.5598L13988.9297,-3499.72L13988.9694,-3499.9001"/>
<path content="AP030,1,28,1,0,14,1,8,JPN" xlink:title="AP030" d="M13986.6501,-3499.2733L13986.7905,-3499.2001L13986.8607,-3499.1798L13987.0407,-3499.1066L13987.2192,-3499.1264L13987.2696,-3499.1264L13987.5198,-3499.2001"/>
<path content="AP030,1,28,1,0,14,1,8,JPN" xlink:title="AP030" d="M13986.6501,-3499.2733L13986.6104,-3499.2867L13986.5402,-3499.1665L13986.47,-3499.02L13986.4334,-3498.9536L13986.3602,-3498.8197L13986.3602,-3498.6797L13986.3098,-3498.6065L13986.2,-3498.5332L13986.1298,-3498.513L13986.2701,-3498.2265"/>
<path content="AP030,1,28,1,0,14,1,8,JPN" xlink:title="AP030" d="M13996.4005,-3501.4332L13996.4294,-3501.3798L13996.5805,-3501.2733L13996.6507,-3501.1665L13996.6995,-3501.0201L13996.7697,-3500.7332L13996.8796,-3500.6397L13996.9894,-3500.5665L13996.9894,-3500.4799L13996.8994,-3500.2464L13996.8994,-3500.193L13997.023,-3500.1293L13997.0795,-3500.0999L13997.1146,-3500L13997.1298,-3499.9531L13997.1298,-3499.8131L13997.0596,-3499.7398L13996.9299,-3499.4865L13996.8094,-3499.0532L13996.7697,-3498.7999L13996.7407,-3498.6797L13996.7407,-3498.4066L13996.7697,-3498.3532L13996.7697,-3498.28L13996.6507,-3498.1533L13996.6293,-3498.0465L13996.6293,-3497.9931L13996.6293,-3497.9198L13996.6095,-3497.8466L13996.5393,-3497.76L13996.4294,-3497.6665L13996.3104,-3497.5266L13996.2692,-3497.4331L13996.2204,-3497.3267L13996.08,-3497.1466L13996.0602,-3497.0734L13996.0403,-3496.9131L13995.99,-3496.8399L13995.9,-3496.7667L13995.8603,-3496.6599L13995.8298,-3496.5L13995.8099,-3496.46L13995.7901,-3496.3734"/>
<path content="AP030,1,28,1,0,15,1,8,JPN" xlink:title="AP030" d="M13991.33,-3500.0267L13991.4261,-3500L13991.8686,-3499.8772L13992.2028,-3499.638L13992.4194,-3499.3587L13992.8253,-3499.1436L13993.28,-3499.0002L13993.8065,-3498.8884L13994.0842,-3498.8007L13994.3085,-3498.6176L13994.6274,-3498.2746L13994.9692,-3498.0038L13995.1843,-3497.7646L13995.2103,-3497.6612L13995.2652,-3497.4297L13995.3445,-3497.031L13995.5444,-3496.7041L13995.7901,-3496.3734"/>
<path content="AP030,1,28,1,0,14,1,8,JPN" xlink:title="AP030" d="M13983.2703,-3492.5331L13983.58,-3492.7334L13983.6502,-3492.82L13983.8303,-3493.0733L13983.9294,-3493.1667L13983.9706,-3493.2331L13984.1095,-3493.56L13984.1507,-3493.7733L13984.1995,-3493.8999L13984.0195,-3494.12L13983.8806,-3494.1334L13983.7692,-3494.2265L13983.7006,-3494.4065L13983.6502,-3494.64L13983.5602,-3494.6934L13983.5205,-3494.7666L13983.5403,-3494.8933L13983.6502,-3495.0001L13983.7692,-3495.1065L13983.9005,-3495.1668L13983.9493,-3495.2L13984.0195,-3495.2866L13984.0607,-3495.3068L13984.1797,-3495.3465L13984.3094,-3495.4132L13984.4696,-3495.4865L13984.5596,-3495.4865L13984.7,-3495.4666L13984.79,-3495.5265L13984.8999,-3495.6131L13984.9503,-3495.7066L13985.0204,-3495.7199L13985.1105,-3495.7199L13985.1807,-3495.76L13985.2005,-3495.8466L13985.2402,-3495.8866L13985.3607,-3495.9198L13985.4294,-3495.9198L13985.4507,-3495.9534L13985.4904,-3496.0464L13985.5804,-3496.2467L13985.6293,-3496.2799L13985.6995,-3496.2799L13985.8093,-3496.2997L13985.8597,-3496.3333L13985.9497,-3496.46L13985.9894,-3496.5L13986.0596,-3496.5332L13986.2,-3496.7133L13986.2701,-3496.7464L13986.3998,-3496.8399L13986.4502,-3496.8731L13986.3998,-3497.0932L13986.3998,-3497.2198L13986.3998,-3497.2866L13986.3998,-3497.3598L13986.3098,-3497.4865L13986.3098,-3497.58L13986.29,-3498.0801L13986.2701,-3498.2265"/>
<path content="AP030,1,28,1,0,15,1,8,JPN" xlink:title="AP030" d="M13986.2701,-3498.2265L13984.6786,-3497.9763L13983.2626,-3497.5414L13981.5811,-3497.3965L13980.5191,-3497.1066L13979.8981,-3496.7445L13978.6591,-3496.7445L13977.243,-3496.7445L13976.4465,-3496.7445L13976.181,-3496.5271L13976.4394,-3496.115L13977.8061,-3495.7504L13979.1595,-3495.3644L13981.0379,-3494.6678L13982.3135,-3493.8557L13983.0231,-3493.1011L13983.2703,-3492.5331"/>
<path content="AP030,1,28,1,0,15,1,8,JPN" xlink:title="AP030" d="M13986.2701,-3498.2265L13987.1719,-3497.514L13987.7502,-3496.5057L13987.149,-3495.4441L13986.972,-3493.3308L13986.4685,-3492.6926L13986.9904,-3492.0216L13986.4899,-3491.0931"/>
<path content="AP030,1,28,1,0,14,1,8,JPN" xlink:title="AP030" d="M13983.2703,-3492.5331L13983.2199,-3492.44L13983.11,-3492.3199L13983.0597,-3492.26L13982.93,-3492.0799L13982.8995,-3491.9731L13982.7896,-3491.7931L13982.7194,-3491.6664L13982.6797,-3491.6134L13982.6797,-3491.5398L13982.6797,-3491.4333L13982.6996,-3491.3998L13982.6797,-3491.2865L13982.6294,-3491.2331L13982.6797,-3491.1667L13982.7393,-3491.1266L13982.8995,-3491.1064L13982.9697,-3491.0931L13983.0597,-3490.9466L13983.1299,-3490.8932L13983.49,-3490.7997L13983.5602,-3490.7997L13983.9493,-3490.7867L13984.0607,-3490.8398L13984.2697,-3490.913L13984.4696,-3490.913L13984.7,-3490.9466L13984.8297,-3490.9466L13985.0204,-3490.86L13985.1807,-3490.86L13985.5392,-3490.8932L13985.8307,-3490.9664L13986.0596,-3490.9866L13986.3297,-3491.0732L13986.4899,-3491.0931"/>
<path content="AP030,1,28,1,0,14,1,8,JPN" xlink:title="AP030" d="M13986.4899,-3491.0931L13986.8805,-3491.0931L13987.0605,-3491.0931L13987.1094,-3491.0931L13987.2696,-3491L13987.3306,-3490.9466L13987.5793,-3490.9267L13987.7396,-3490.8932L13987.97,-3490.7665L13988.15,-3490.6933L13988.2202,-3490.6933L13988.3606,-3490.7131L13988.5193,-3490.7467L13988.6993,-3490.7665L13988.8107,-3490.7997L13988.9297,-3490.8398L13989.0594,-3490.8398L13989.2899,-3490.8398L13989.4699,-3490.8733L13989.7202,-3490.8733L13989.9307,-3490.8199L13989.9902,-3490.7867L13990.1093,-3490.7867L13990.2405,-3490.7867L13990.4297,-3490.8199L13990.5594,-3490.86L13990.6494,-3490.8733L13990.6998,-3490.8733L13990.8997,-3490.8733L13991.0599,-3490.9267L13991.1499,-3490.9466L13991.3101,-3491L13991.5207,-3491.053L13991.7404,-3491.1667L13991.9006,-3491.1999L13992.3294,-3491.2533L13992.72,-3491.3597L13993.0206,-3491.4532L13993.4006,-3491.6332L13993.5593,-3491.7931L13993.7195,-3492.0132L13993.8095,-3492.0666L13993.8797,-3492.1532L13993.8995,-3492.3L13993.9896,-3492.4065L13994.1101,-3492.6399L13994.3604,-3492.86L13994.4901,-3492.8932L13994.6503,-3493.0733L13994.9493,-3493.3998L13995.0394,-3493.5066L13995.1492,-3493.56L13995.2393,-3493.5932L13995.43,-3493.7931L13995.4697,-3493.8332L13995.5597,-3493.8866L13995.6497,-3493.9198L13995.6802,-3493.9934L13995.7001,-3494.0998L13995.7397,-3494.1334L13995.8099,-3494.1933L13995.9,-3494.2265L13995.9702,-3494.2265L13996.1304,-3494.4065L13996.1807,-3494.5L13996.2906,-3494.6068L13996.3303,-3494.7132L13996.2906,-3494.8933L13996.1105,-3495.0397L13996.0403,-3495.1668L13995.99,-3495.4666L13996.0205,-3495.5799L13995.9305,-3495.94L13995.9,-3496.0464L13995.8099,-3496.2601L13995.7901,-3496.3333L13995.7901,-3496.3734"/>
<path content="AP030,1,28,1,0,15,1,8,JPN" xlink:title="AP030" d="M13943.129,-3476.593L13942.7216,-3477.0741L13941.7511,-3477.652L13940.6921,-3477.9411L13939.6317,-3478.1578L13938.8382,-3477.8687L13938.6612,-3477.5799L13938.0432,-3477.1465L13937.4252,-3476.3515"/>
<path content="AP030,1,28,1,0,15,1,8,JPN" xlink:title="AP030" d="M13939.4562,-3475.7736L13941.2842,-3476.223L13942.4042,-3476.4629L13943.129,-3476.593"/>
<path content="AP030,1,28,1,0,15,1,8,JPN" xlink:title="AP030" d="M13937.4252,-3476.3515L13938.3087,-3476.3515L13938.1317,-3475.7736L13939.4562,-3475.7736"/>
<path content="AP030,1,28,1,0,15,1,8,JPN" xlink:title="AP030" d="M13939.4562,-3475.7736L13939.4562,-3475.4124L13939.0152,-3474.9069L13938.7497,-3474.4736L13938.1317,-3473.8953L13937.9547,-3473.4619"/>
<path content="AP030,1,28,1,0,15,1,8,JPN" xlink:title="AP030" d="M13937.4252,-3476.3515L13936.8958,-3476.3515L13936.2778,-3476.2794L13936.0138,-3475.7015L13935.8368,-3475.1957L13935.7864,-3474.4968L13935.9222,-3473.9445L13935.7864,-3473.201L13935.7864,-3472.599L13935.7773,-3471.7873L13936.174,-3471.4172L13936.3998,-3471.093L13936.2305,-3470.908L13936.2305,-3470.3526L13936.9095,-3470.3064L13937.3611,-3470.3064L13937.6434,-3470.0748L13937.9837,-3469.5656L13938.4354,-3469.5656L13938.8885,-3469.4267L13939.2838,-3468.964L13940.0757,-3468.6401L13940.6982,-3468.3159L13941.716,-3468.3159L13942.5079,-3468.3624L13942.4805,-3468.6638L13943.1168,-3469.0472L13943.9575,-3468.9831L13943.9575,-3469.1998L13943.9575,-3469.7052L13943.9575,-3470.1389L13943.9575,-3470.6444L13944.487,-3471.1502L13944.487,-3471.5115L13944.2215,-3471.8002L13943.869,-3472.5227L13943.692,-3473.1007L13944.1345,-3473.534L13944.1345,-3474.2565L13943.7805,-3474.9069L13943.428,-3475.4124L13943.5165,-3476.1349L13943.129,-3476.593"/>
<path content="AP030,1,28,1,0,15,1,8,JPN" xlink:title="AP030" d="M13950.3357,-3404.7668L13949.7177,-3405.1281L13949.1882,-3405.4169L13948.8113,-3405.6259L13948.7228,-3405.9147L13948.7228,-3406.4205L13948.4589,-3406.6372L13948.4589,-3407.0705L13948.5474,-3407.4318L13948.9883,-3408.0818L13949.4293,-3408.371L13949.6063,-3408.7322L13949.6063,-3409.3102L13950.1358,-3409.5989L13949.6063,-3410.3939L13950.2243,-3410.7552L13951.1063,-3411.0439L13951.7242,-3410.8994L13952.1652,-3411.3331L13953.4012,-3411.2606L13953.9307,-3411.1885L13954.9896,-3410.8994L13955.6076,-3410.5385L13956.0989,-3409.8183L13955.8273,-3408.6773L13956.0486,-3407.5043L13955.5191,-3406.8539L13953.9856,-3405.6446L13953.3096,-3405.6664L13952.9694,-3405.4775L13952.2644,-3405.1167L13951.0284,-3405.1167L13950.3357,-3404.7668"/>
</g>
</svg>
