<?xml version="1.0" encoding="UTF-8"?>
<svg  xmlns="http://www.w3.org/2000/svg" xmlns:xlink="http://www.w3.org/1999/xlink" xmlns:go="http://purl.org/svgmap/profile" property="f_code,acc,exs,rst,med,rtt,RSU,loc,soc" viewBox="13007.8125 -3164.0625 70.3125 70.3125" go:dataArea="13007.8125 -3164.0625 70.3125 70.3125" >
<metadata>
 <rdf:RDF xmlns:rdf="http://www.w3.org/1999/02/22-rdf-syntax-ns#" xmlns:crs="http://opengis.org/xmldtds/transformations.dtd" xmlns:svg="http://www.w3.org/svg" >
  <rdf:Description>
   <crs:CoordinateReferenceSystem rdf:resource="http://purl.org/crs/84" svg:transform="matrix(100.0,0.0,0.0,-100.0,0.0,0.0)" />
  </rdf:Description>
 </rdf:RDF>
</metadata>
<globalCoordinateSystem srsName="http://purl.org/crs/84" transform="matrix(100.0,0.0,0.0,-100.0,0.0,0.0)" />
<defs>
 <g id="p0" >
  <circle cx="0.0" cy="0.0" r="3" stroke="green" stroke-width="2.0" vector-effect="non-scaling-stroke" />
 </g>
</defs>
<g fill="none" fill-rule="evenodd" stroke="#00ff00" stroke-width="2" opacity="0.5" vector-effect="non-scaling-stroke" stroke-linejoin="bevel" >
<path content="AP030,1,28,1,0,15,1,8,JPN" xlink:title="AP030" d="M13040.9973,-3164.0625L13040.7211,-3163.8842L13039.9872,-3163.146"/>
<path content="AP030,1,28,1,0,16,1,8,JPN" xlink:title="AP030" d="M13054.0802,-3164.0625L13054.0802,-3164.0266L13054.0604,-3163.9933L13053.9902,-3163.9198L13053.9703,-3163.8666L13053.9001,-3163.7733L13053.83,-3163.6866L13053.6301,-3163.6133L13053.4302,-3163.5265L13053.3096,-3163.4333L13053.1296,-3163.1466L13053.0197,-3162.9267L13052.9007,-3162.7666L13052.8305,-3162.6398L13052.6993,-3162.5134L13052.6306,-3162.48"/>
<path content="AP030,1,28,1,0,14,1,8,JPN" xlink:title="AP030" d="M13051.6539,-3164.0625L13051.68,-3164.0467L13051.77,-3163.9933L13051.8295,-3163.9532L13051.86,-3163.9198L13051.8997,-3163.9L13051.8997,-3163.8866L13051.8997,-3163.74L13051.8997,-3163.6133L13051.9501,-3163.5799L13051.9897,-3163.5599L13052.0401,-3163.5265L13052.1805,-3163.5065L13052.24,-3163.4666L13052.2903,-3163.4333L13052.33,-3163.3799L13052.33,-3163.3266L13052.3605,-3163.1466L13052.4002,-3163.0199L13052.4307,-3162.9133L13052.4307,-3162.8933L13052.4902,-3162.7333L13052.5406,-3162.5334L13052.5803,-3162.5134L13052.6306,-3162.48"/>
<path content="AP030,1,28,1,0,15,1,8,JPN" xlink:title="AP030" d="M13039.9872,-3163.146L13039.798,-3162.9562L13039.3143,-3162.4716L13038.9157,-3162.1175"/>
<path content="AP030,1,28,1,0,15,1,8,JPN" xlink:title="AP030" d="M13035.8401,-3164.0625L13036.5524,-3163.7657L13037.6999,-3163.1227L13038.9157,-3162.1175"/>
<path content="AP030,1,28,1,0,15,1,8,JPN" xlink:title="AP030" d="M13039.9872,-3163.146L13039.9902,-3163.0733L13040.0192,-3163.04L13040.0604,-3162.9665L13040.1093,-3162.8933L13040.1505,-3162.7466L13040.1794,-3162.6799L13040.2206,-3162.5666L13040.2405,-3162.48L13040.2405,-3162.4065L13040.4297,-3162.3199L13040.5396,-3162.2799L13040.6494,-3162.2999L13040.6799,-3162.1199L13040.7394,-3162.0266L13040.8151,-3161.9984L13040.8384,-3161.9927"/>
<path content="AP030,1,28,1,0,15,1,8,JPN" xlink:title="AP030" d="M13038.9157,-3162.1175L13038.5452,-3161.7884L13038.5452,-3161.7882"/>
<path content="AP030,1,28,1,0,16,1,8,JPN" xlink:title="AP030" d="M13034.7871,-3164.0625L13036.0046,-3163.2774L13037.5488,-3162.1731L13038.5437,-3161.7882L13038.5452,-3161.7882"/>
<path content="AP030,1,28,1,0,16,1,8,JPN" xlink:title="AP030" d="M13038.5452,-3161.7882L13039.0945,-3161.7432L13039.5767,-3161.9104L13040.239,-3161.9549L13040.822,-3161.9929L13040.8384,-3161.9927"/>
<path content="AP030,1,28,1,0,14,1,8,JPN" xlink:title="AP030" d="M13060.0204,-3164.0625L13060.0204,-3164.0133L13060.0204,-3163.9L13060.0403,-3163.8666L13060.0403,-3163.8132L13059.9899,-3163.6534L13059.9701,-3163.5799L13059.9701,-3163.4666L13059.9701,-3163.3598L13059.9503,-3163.3266L13059.9503,-3163.2732L13059.9503,-3163.2198L13059.9304,-3163.1466L13059.9304,-3163.1065L13059.8801,-3163.0533L13059.8602,-3163.0199L13059.79,-3162.9866L13059.7397,-3162.9665L13059.6497,-3162.9465L13059.6298,-3162.9267L13059.5596,-3162.8933L13059.4696,-3162.7998L13059.2407,-3162.6932L13058.9905,-3162.5666L13058.9294,-3162.5334L13058.8806,-3162.4998L13058.8303,-3162.48L13058.7006,-3162.4599L13058.6731,-3162.4632L13058.5403,-3162.48L13058.4503,-3162.4599L13058.3603,-3162.4065L13058.2703,-3162.3199L13058.2397,-3162.2799L13058.2001,-3162.1733L13058.1802,-3162.1332L13058.1299,-3162.0667L13058.02,-3162.0132L13057.8995,-3161.9734L13057.7896,-3161.9398L13057.6294,-3161.92L13057.5394,-3161.8866L13057.4295,-3161.7933L13057.1777,-3161.6131"/>
<path content="AP030,1,28,1,0,15,1,8,JPN" xlink:title="AP030" d="M13056.8973,-3164.0625L13056.897,-3164.0261L13057.1777,-3161.6131"/>
<path content="AP030,1,28,1,0,14,1,8,JPN" xlink:title="AP030" d="M13057.1777,-3161.6131L13056.9901,-3161.5067L13056.9,-3161.4332L13056.8802,-3161.2534L13056.8298,-3161.2L13056.81,-3161.1465L13056.7703,-3161.0199L13056.6498,-3160.8198L13056.6101,-3160.7332L13056.5201,-3160.66L13056.4896,-3160.6066L13056.3293,-3160.5"/>
<path content="AP030,1,28,1,0,15,1,8,JPN" xlink:title="AP030" d="M13054.8457,-3164.0625L13055.336,-3163.3724L13055.4977,-3162.5406L13055.2933,-3161.9408L13055.5466,-3161.2041L13056.3293,-3160.5"/>
<path content="AP030,1,28,1,0,16,1,8,JPN" xlink:title="AP030" d="M13040.8384,-3161.9927L13040.8946,-3161.9922L13041.1804,-3161.9734L13041.9006,-3161.8999L13042.3599,-3161.8666L13042.8101,-3161.6865L13043.2404,-3161.4532L13043.6798,-3161.2534L13044.4504,-3161.0733L13045.3796,-3160.8L13045.5399,-3160.7134L13045.8099,-3160.5L13045.8801,-3160.4599L13046.0205,-3160.3867L13046.2906,-3160.2999L13046.4905,-3160.2266L13046.6797,-3160.1933L13047.1298,-3160.2066L13047.3602,-3160.1732"/>
<path content="AP030,1,28,1,0,16,1,8,JPN" xlink:title="AP030" d="M13052.6306,-3162.48L13052.5192,-3162.4266L13052.4307,-3162.3865L13052.2705,-3162.2465L13052.1103,-3162.0667L13052.0203,-3161.9398L13051.9501,-3161.8134L13051.77,-3161.4134L13051.6495,-3161.2534L13051.5396,-3160.9667L13051.4297,-3160.6798L13051.3596,-3160.4067L13051.3107,-3160.2266L13051.2894,-3160.1334"/>
<path content="AP030,1,28,1,0,15,1,8,JPN" xlink:title="AP030" d="M13040.8384,-3161.9927L13040.8554,-3161.9886L13041.6458,-3161.562L13042.5964,-3161.2919L13042.6834,-3160.9324L13042.7261,-3160.7492L13043.5425,-3159.8652"/>
<path content="AP030,1,28,1,0,16,1,8,JPN" xlink:title="AP030" d="M13047.3602,-3160.1732L13047.4899,-3160.1198L13047.7005,-3159.9199L13047.8302,-3159.8333"/>
<path content="AP030,1,28,1,0,15,1,8,JPN" xlink:title="AP030" d="M13047.8302,-3159.8333L13048.9426,-3159.9859L13049.2386,-3159.5932L13049.2401,-3159.5934"/>
<path content="AP030,1,28,1,0,16,1,8,JPN" xlink:title="AP030" d="M13047.8302,-3159.8333L13048.0804,-3159.7198L13048.4695,-3159.6132L13048.79,-3159.5266L13048.9304,-3159.5066L13049.0799,-3159.5066L13049.2401,-3159.5934"/>
<path content="AP030,1,28,1,0,14,1,8,JPN" xlink:title="AP030" d="M13056.3293,-3160.5L13056.2393,-3160.4399L13056.2195,-3160.4265L13056.0593,-3160.3867L13055.9692,-3160.3533L13055.8594,-3160.2999L13055.7404,-3160.2266L13055.6961,-3160.1496L13055.6503,-3160.0666L13055.4504,-3159.7933L13055.4001,-3159.7399L13055.3604,-3159.6867L13055.2704,-3159.5266L13055.2704,-3159.4866"/>
<path content="AP030,1,28,1,0,14,1,8,JPN" xlink:title="AP030" d="M13055.2704,-3159.4866L13055.4001,-3159.4133L13055.6183,-3159.4133L13055.9906,-3159.4133"/>
<path content="AP030,1,28,1,0,14,1,8,JPN" xlink:title="AP030" d="M13055.2704,-3159.4866L13055.1498,-3159.3065"/>
<path content="AP030,1,28,1,0,14,1,8,JPN" xlink:title="AP030" d="M13052.6306,-3162.48L13052.6093,-3162.3865L13052.5803,-3162.3199L13052.5604,-3162.1532L13052.5604,-3161.9932L13052.5803,-3161.8666L13052.6505,-3161.7933L13052.6993,-3161.7199L13052.9007,-3161.5267L13053.1799,-3161.2L13053.36,-3160.9667L13053.6102,-3160.6066L13053.6102,-3160.5534L13053.7903,-3160.2266L13053.8803,-3160.0466L13053.9902,-3159.8333L13054.0802,-3159.6867L13054.2816,-3159.3691L13054.4907,-3159.0399L13054.7699,-3159.1467L13055.0201,-3159.2533L13055.1498,-3159.3065"/>
<path content="AP030,1,28,1,0,16,1,4,JPN" xlink:title="AP030" d="M13051.2894,-3160.1334L13051.3138,-3159.8595L13051.3596,-3159.3466L13051.3596,-3159.0382"/>
<path content="AP030,1,28,1,0,15,1,8,JPN" xlink:title="AP030" d="M13050.7004,-3158.9134L13051.3596,-3159.0382"/>
<path content="AP030,1,28,1,0,16,1,8,JPN" xlink:title="AP030" d="M13049.2416,-3159.5938L13049.4904,-3159.6533L13049.6307,-3159.6867L13049.7192,-3159.6666L13050.0397,-3159.6132L13050.2396,-3159.5598L13050.3098,-3159.5066L13050.4303,-3159.38L13050.56,-3159.1665L13050.6104,-3159.1467L13050.6302,-3159.0399L13050.7004,-3158.9134"/>
<path content="AP030,1,28,1,0,14,1,8,JPN" xlink:title="AP030" d="M13055.1498,-3159.3065L13055.4901,-3159.1267L13055.4916,-3159.0904L13055.6305,-3158.8932"/>
<path content="AP030,1,28,1,0,15,1,8,JPN" xlink:title="AP030" d="M13043.5425,-3159.8652L13043.8553,-3160.1152L13044.3832,-3159.9554L13045.433,-3159.1106L13046.3867,-3158.8114L13046.55,-3159.0399L13047.3602,-3160.1732"/>
<path content="AP030,1,28,1,0,15,1,8,JPN" xlink:title="AP030" d="M13038.5452,-3161.7882L13038.2935,-3161.3081L13037.7365,-3160.8715L13036.4716,-3160.4349L13035.7132,-3160.0422L13034.0393,-3158.7666"/>
<path content="AP030,1,28,1,0,14,1,8,JPN" xlink:title="AP030" d="M13032.5216,-3164.0625L13032.5607,-3163.9732L13032.6492,-3163.7199L13032.7194,-3163.4533L13032.8796,-3162.9866L13032.93,-3162.8733L13032.9697,-3162.7998L13033.0597,-3162.7333L13033.1497,-3162.6598L13033.1802,-3162.6398L13033.2001,-3162.6066L13033.1802,-3162.5134L13033.1802,-3162.3734L13033.1802,-3162.2999L13033.2199,-3162.2465L13033.2901,-3162.1199L13033.3099,-3162.0266L13033.4,-3161.9932L13033.4305,-3161.9398L13033.4305,-3161.8866L13033.4305,-3161.7933L13033.3801,-3161.6333L13033.3603,-3161.5599L13033.4305,-3161.4866L13033.4503,-3161.4532L13033.4503,-3161.4134L13033.4702,-3161.3266L13033.49,-3161.2L13033.5205,-3161.0733L13033.5403,-3160.9865L13033.5602,-3160.9133L13033.58,-3160.8398L13033.6105,-3160.8L13033.6105,-3160.7666L13033.58,-3160.6798L13033.5403,-3160.5865L13033.5403,-3160.2999L13033.5403,-3160.1732L13033.5403,-3160.1198L13033.5602,-3160.08L13033.6105,-3159.9733L13033.6304,-3159.94L13033.6807,-3159.8665L13033.6807,-3159.8333L13033.6807,-3159.7933L13033.6807,-3159.6533L13033.6807,-3159.54L13033.6502,-3159.4334L13033.6502,-3159.3466L13033.6807,-3159.2533L13033.7204,-3159.1665L13033.8303,-3159.0199L13033.9005,-3158.9132L13033.9706,-3158.8598L13033.9905,-3158.7999L13034.0393,-3158.7666"/>
<path content="AP030,1,28,1,0,15,1,8,JPN" xlink:title="AP030" d="M13055.1987,-3158.6349L13055.6305,-3158.8932"/>
<path content="AP030,1,28,1,0,15,1,8,JPN" xlink:title="AP030" d="M13051.3596,-3159.0382L13052.0172,-3158.5133"/>
<path content="AP030,1,28,1,0,14,1,8,JPN" xlink:title="AP030" d="M13052.0172,-3158.5133L13052.0203,-3158.5133L13052.1805,-3158.5333"/>
<path content="AP030,1,28,1,0,14,1,8,JPN" xlink:title="AP030" d="M13051.3306,-3158.4999L13052.0172,-3158.5133"/>
<path content="AP030,1,28,1,0,16,1,8,JPN" xlink:title="AP030" d="M13051.3596,-3159.0382L13051.3596,-3158.7999L13051.3596,-3158.6599L13051.3306,-3158.4999"/>
<path content="AP030,1,28,1,0,16,1,8,JPN" xlink:title="AP030" d="M13050.7004,-3158.9134L13050.7004,-3158.9132L13050.7706,-3158.7999L13050.8606,-3158.68L13050.9293,-3158.6065L13051.0406,-3158.5333L13051.1505,-3158.4999L13051.3306,-3158.4999"/>
<path content="AP030,1,28,1,0,14,1,4,JPN" xlink:title="AP030" d="M13052.1805,-3158.5333L13052.5192,-3158.5133L13052.6093,-3158.4999L13052.7695,-3158.4267L13052.9907,-3158.2466"/>
<path content="AP030,1,28,1,0,15,1,8,JPN" xlink:title="AP030" d="M13054.2206,-3158.0725L13054.8721,-3158.4379L13055.1224,-3158.5886L13055.1987,-3158.6349"/>
<path content="AP030,1,28,1,0,15,1,8,JPN" xlink:title="AP030" d="M13054.0207,-3158.0574L13054.1885,-3158.07L13054.2206,-3158.0725"/>
<path content="AP030,1,28,1,0,15,1,8,JPN" xlink:title="AP030" d="M13054.0176,-3158.0572L13054.0207,-3158.0574"/>
<path content="AP030,1,28,1,0,15,1,8,JPN" xlink:title="AP030" d="M13054.0176,-3158.0572L13054.0176,-3158.0574L13054.0207,-3158.0574"/>
<path content="AP030,1,28,1,0,14,1,4,JPN" xlink:title="AP030" d="M13052.9907,-3158.2466L13053.27,-3158.0265"/>
<path content="AP030,1,28,1,0,14,1,8,JPN" xlink:title="AP030" d="M13053.27,-3158.0265L13053.36,-3158.0133"/>
<path content="AP030,1,28,1,0,15,1,8,JPN" xlink:title="AP030" d="M13053.4302,-3158.0133L13054.0176,-3158.0572"/>
<path content="AP030,1,28,1,0,14,1,8,JPN" xlink:title="AP030" d="M13053.36,-3158.0133L13053.4302,-3158.0133"/>
<path content="AP030,1,28,1,0,15,1,8,JPN" xlink:title="AP030" d="M13055.1987,-3158.6349L13055.2231,-3158.4154L13055.2856,-3157.8636"/>
<path content="AP030,1,28,1,0,15,1,8,JPN" xlink:title="AP030" d="M13054.2206,-3158.0725L13054.2221,-3158.0727L13054.8798,-3158.0288L13055.2856,-3157.8636"/>
<path content="AP030,1,28,1,0,14,1,8,JPN" xlink:title="AP030" d="M13055.6305,-3158.8932L13055.7007,-3158.7666L13055.8105,-3158.6065L13055.9006,-3158.4267L13056.0394,-3158.2266L13056.0806,-3158.1533L13056.1096,-3158.0999L13056.1096,-3157.9733L13056.0806,-3157.8133L13056.0196,-3157.7066L13055.9494,-3157.5933"/>
<path content="AP030,1,28,1,0,15,1,8,JPN" xlink:title="AP030" d="M13055.2856,-3157.8636L13055.2872,-3157.8627L13055.9494,-3157.5933"/>
<path content="AP030,1,28,1,0,15,1,8,JPN" xlink:title="AP030" d="M13053.2318,-3157.4923L13053.2532,-3157.5846L13053.3585,-3158.0132L13053.36,-3158.0133"/>
<path content="AP030,1,28,1,0,15,1,8,JPN" xlink:title="AP030" d="M13052.9907,-3158.2466L13053.2013,-3157.5829L13053.2318,-3157.4923"/>
<path content="AP030,1,28,1,0,15,1,8,JPN" xlink:title="AP030" d="M13052.0172,-3158.5133L13052.0187,-3158.5131L13052.3941,-3157.7665L13052.9282,-3157.5912L13053.2318,-3157.4923"/>
<path content="AP030,1,28,1,0,16,1,8,JPN" xlink:title="AP030" d="M13051.3306,-3158.4999L13051.3107,-3158.3532L13051.2894,-3158.26L13051.1795,-3157.8466L13051.1093,-3157.6866L13051.1017,-3157.6584L13051.0803,-3157.5933L13051.0193,-3157.5266L13050.7004,-3157.1999L13050.5798,-3157.0932L13050.2701,-3156.9466L13049.9893,-3156.7865L13049.9878,-3156.7858"/>
<path content="AP030,1,28,1,0,16,1,8,JPN" xlink:title="AP030" d="M13049.9878,-3156.7858L13049.9725,-3156.7785L13049.8306,-3156.7133L13049.7498,-3156.6658L13049.7406,-3156.6599"/>
<path content="AP030,1,28,1,0,15,1,8,JPN" xlink:title="AP030" d="M13043.5425,-3159.8652L13044.1254,-3159.2346L13045.3156,-3158.0519L13046.8613,-3157.3359L13047.7692,-3156.8287L13048.204,-3156.8941L13048.912,-3156.6614L13049.7406,-3156.6599"/>
<path content="AP030,1,28,1,0,15,1,8,JPN" xlink:title="AP030" d="M13050.3281,-3156.1674L13050.7507,-3156.348L13051.7212,-3156.1954L13052.1774,-3156.6704L13052.8198,-3157.015L13053.0991,-3156.9508L13053.2318,-3157.4923"/>
<path content="AP030,1,28,1,0,15,1,8,JPN" xlink:title="AP030" d="M13049.9878,-3156.7858L13050.3281,-3156.1674"/>
<path content="AP030,1,28,1,0,14,1,8,JPN" xlink:title="AP030" d="M13055.9494,-3157.5933L13055.9296,-3157.5266L13055.9006,-3157.4665L13055.9006,-3157.4133L13055.9006,-3157.3265L13055.8807,-3157.2533L13055.8807,-3157.2332L13055.8594,-3157.1266L13055.8105,-3156.9466L13055.7907,-3156.9134L13055.7205,-3156.6933L13055.6503,-3156.5533L13055.4901,-3156.4266L13055.3604,-3156.3534L13055.1804,-3156.2265L13055.0797,-3156.1333L13054.9896,-3156.0467L13054.9057,-3155.978"/>
<path content="AP030,1,28,1,0,15,1,8,JPN" xlink:title="AP030" d="M13055.2856,-3157.8636L13055.2856,-3157.8627L13055.2383,-3157.6267L13054.9057,-3155.978"/>
<path content="AP030,1,28,1,0,15,1,8,JPN" xlink:title="AP030" d="M13059.9701,-3159.2215L13060.9695,-3159.9119L13061.6409,-3161.1242L13063.0936,-3161.9026L13064.4592,-3161.7895L13066.5283,-3162.2644L13067.7994,-3161.8217L13069.1238,-3161.8979L13069.3832,-3161.7584L13069.8959,-3161.0447L13070.7748,-3160.0555L13070.8633,-3159.0982L13070.4483,-3157.5859L13070.7916,-3157.2119L13070.2377,-3155.6866"/>
<path content="AP030,1,28,1,0,14,1,8,JPN" xlink:title="AP030" d="M13069.7906,-3155.6534L13069.9295,-3155.6866L13070.0607,-3155.6866L13070.2377,-3155.6866"/>
<path content="AP030,1,28,1,0,14,1,8,JPN" xlink:title="AP030" d="M13070.2377,-3155.6866L13070.2393,-3155.6866L13070.3995,-3155.6534L13070.6299,-3155.6534L13070.9503,-3155.6665L13071.1502,-3155.6534L13071.3104,-3155.6334L13071.3806,-3155.6133L13071.5195,-3155.6334L13071.8307,-3155.6866L13072.11,-3155.6665L13072.3099,-3155.6334L13072.4701,-3155.6133L13072.6105,-3155.6534L13072.9004,-3155.6334L13073.0606,-3155.6334L13073.3597,-3155.74L13073.5794,-3155.7734L13073.9304,-3155.7934L13074.3607,-3155.7734L13074.5605,-3155.7734L13074.6796,-3155.74L13074.7696,-3155.7199L13074.9298,-3155.7066L13075.3296,-3155.7598L13075.5798,-3155.8466L13075.7004,-3155.8867L13075.7904,-3155.8867L13075.9506,-3155.9198L13076.1093,-3155.9732L13076.2207,-3156.0467L13076.2894,-3156.1199L13076.3794,-3156.1733L13076.5198,-3156.2065L13076.6495,-3156.2799L13076.7395,-3156.4066L13076.77,-3156.5866L13076.8295,-3156.6799L13076.9302,-3156.7333L13077.1103,-3156.8399L13077.2202,-3156.9265L13077.33,-3157L13077.5803,-3157.1266L13077.6794,-3157.2199L13077.7695,-3157.3465L13077.8107,-3157.4533L13077.8595,-3157.5798L13077.9297,-3157.6332L13078.0396,-3157.6866L13078.125,-3157.754"/>
<path content="AP030,1,28,1,0,14,1,8,JPN" xlink:title="AP030" d="M13059.9701,-3159.2215L13059.8801,-3159.1467L13059.6802,-3159.0532L13059.6497,-3158.9867L13059.6298,-3158.9266L13059.6802,-3158.8598L13059.8999,-3158.6065L13060.1501,-3158.2466L13060.5194,-3157.8333L13060.6094,-3157.6332L13060.8307,-3157.5798L13061.0397,-3157.5066L13061.1099,-3157.4333L13061.2396,-3157.1266L13061.3998,-3156.8733L13061.5799,-3156.6399L13061.9293,-3156.3334L13062.0193,-3156.2599L13062.0193,-3156.1934L13062.0407,-3156.1199L13062.1094,-3156.0799L13062.3596,-3156.0266L13062.6297,-3155.9933L13062.7396,-3155.9532L13062.8601,-3155.8666L13063.06,-3155.6334L13063.15,-3155.5799L13063.2706,-3155.5799L13063.3606,-3155.5599L13063.4903,-3155.4867L13063.5803,-3155.3999L13063.6505,-3155.2732L13063.6795,-3155.1466L13063.6795,-3155.1266L13063.6505,-3155.04L13063.6307,-3154.9465L13063.6093,-3154.8933L13063.6505,-3154.8399L13063.7405,-3154.8199L13063.8306,-3154.7998L13063.9694,-3154.7998L13064.1098,-3154.8599L13064.2899,-3154.9465L13064.4302,-3155.04L13064.4897,-3155.1266L13064.5798,-3155.18L13064.65,-3155.1998L13064.74,-3155.18L13064.9307,-3155.18L13065.0192,-3155.2198L13065.0604,-3155.2198L13065.1505,-3155.1998L13065.2405,-3155.1998L13065.3107,-3155.2198L13065.5396,-3155.3066L13065.6097,-3155.3267L13065.6998,-3155.3267L13065.86,-3155.3267L13066.2201,-3155.3267L13066.2704,-3155.3799L13066.2704,-3155.4132L13066.3101,-3155.4867L13066.33,-3155.5065L13066.3605,-3155.5265L13066.4307,-3155.5599L13066.5802,-3155.6334L13066.6306,-3155.6334L13066.6504,-3155.5933L13066.6794,-3155.5065L13066.7404,-3155.4533L13066.9495,-3155.3999L13067.0593,-3155.3799L13067.1494,-3155.3999L13067.1997,-3155.4533L13067.3294,-3155.4867L13067.4301,-3155.5065L13067.5797,-3155.5065L13067.6804,-3155.4333L13067.7902,-3155.3799L13067.9306,-3155.3799L13067.9901,-3155.4333L13068.0801,-3155.4667L13068.2007,-3155.4867L13068.3594,-3155.4667L13068.4906,-3155.4333L13068.5806,-3155.4667L13068.6798,-3155.5265L13068.7393,-3155.5599L13068.8293,-3155.5599L13068.9301,-3155.5599L13069.0201,-3155.6133L13069.1299,-3155.6665L13069.2001,-3155.6866L13069.4702,-3155.6534L13069.7906,-3155.6534"/>
<path content="AP030,1,28,1,0,15,1,8,JPN" xlink:title="AP030" d="M13033.7006,-3154.3009L13034.6313,-3154.7665L13035.7864,-3155.6795L13037.6404,-3156.1268L13037.8799,-3156.4093L13037.9822,-3157.0005L13038.1882,-3157.5714L13039.1373,-3158.2047L13040.5426,-3158.4101L13040.8783,-3158.7587L13041.2827,-3158.7927L13041.9281,-3157.9144L13042.4667,-3157.9594L13042.5186,-3158.4009L13042.2424,-3158.7275L13042.2638,-3159.1372L13043.0435,-3159.4646L13043.5425,-3159.8652"/>
<path content="AP030,1,28,1,0,14,1,8,JPN" xlink:title="AP030" d="M13034.0393,-3158.7666L13034.0607,-3158.7334L13034.0607,-3158.68L13034.0195,-3158.5667L13034.0195,-3158.4799L13033.9905,-3158.4066L13033.9905,-3158.3532L13033.9905,-3158.0465L13033.9905,-3157.9399L13034.0195,-3157.8133L13034.0195,-3157.7599L13034.0195,-3157.72L13033.9905,-3157.6866L13033.9294,-3157.6134L13033.8593,-3157.5066L13033.8593,-3157.4665L13033.8593,-3157.3265L13033.8593,-3157.2199L13033.8806,-3157.1466L13033.8806,-3157.0932L13033.9294,-3157.0732L13033.9706,-3157.0534L13034.0393,-3157.0398L13034.0607,-3156.9466L13034.0805,-3156.86L13034.1095,-3156.7865L13034.1095,-3156.7333L13034.1507,-3156.6599L13034.1507,-3156.6067L13034.1507,-3156.4598L13034.1095,-3156.2799L13034.1095,-3156.1934L13034.0607,-3156.0999L13033.9294,-3155.9933L13033.7692,-3155.8998L13033.7204,-3155.8466L13033.7006,-3155.7934L13033.6807,-3155.74L13033.6502,-3155.6334L13033.6807,-3155.3999L13033.7402,-3155.1666L13033.7906,-3155.0533L13033.8104,-3154.9866L13033.8303,-3154.8933L13033.8303,-3154.8199L13033.8303,-3154.7333L13033.8104,-3154.6598L13033.7906,-3154.5866L13033.7402,-3154.4998L13033.7204,-3154.4266L13033.7006,-3154.3009"/>
<path content="AP030,1,28,1,0,14,1,8,JPN" xlink:title="AP030" d="M13054.9057,-3155.978L13054.8996,-3155.9732L13054.8996,-3155.9492L13054.8996,-3155.9399L13054.8599,-3155.8132L13054.6997,-3155.7066L13054.5197,-3155.6133L13054.4693,-3155.5599L13054.4693,-3155.4667L13054.4495,-3155.3799L13054.4296,-3155.3066L13054.3793,-3155.18L13054.2694,-3154.9999L13054.2694,-3154.9665L13054.1794,-3154.7132L13054.1306,-3154.5532L13054.0802,-3154.3734L13054.0405,-3154.2999L13053.9703,-3154.2267L13053.9307,-3154.1933L13053.7003,-3154.0133L13053.2898,-3153.7399L13053.0807,-3153.5599"/>
<path content="AP030,1,28,1,0,15,1,8,JPN" xlink:title="AP030" d="M13050.3281,-3156.1674L13050.3647,-3155.8107L13050.2533,-3155.1222L13050.2243,-3154.5603L13050.2533,-3154.1246L13050.5203,-3153.9701L13050.8011,-3153.7312L13051.0544,-3153.4643L13051.2924,-3153.3237L13051.5594,-3153.2957L13051.9958,-3153.4782L13052.4582,-3153.5908L13052.7206,-3153.5778L13052.919,-3153.5679L13053.0807,-3153.5599"/>
<path content="AP030,1,28,1,0,16,1,8,JPN" xlink:title="AP030" d="M13049.7406,-3156.6599L13049.5605,-3156.4798L13049.4003,-3156.3198L13049.2706,-3156.1733L13049.1806,-3156.0133L13049.0402,-3155.8132L13048.8998,-3155.5799L13048.8098,-3155.3999L13048.7198,-3155.2198L13048.6801,-3155.1666L13048.6801,-3155.1266L13048.6099,-3155.02L13048.5794,-3154.9133L13048.5596,-3154.8199L13048.5794,-3154.7667L13048.6099,-3154.6799L13048.7,-3154.3865L13048.79,-3154.1933L13048.8998,-3153.9398L13048.9304,-3153.8465L13048.8998,-3153.5799L13048.8602,-3153.4666L13048.79,-3153.3066L13048.7701,-3153.1067L13048.7701,-3152.8933L13048.8098,-3152.8L13048.8602,-3152.6066"/>
<path content="AP030,1,28,1,0,14,1,8,JPN" xlink:title="AP030" d="M13053.0807,-3153.5599L13052.9495,-3153.4134L13052.8793,-3153.3266L13052.6794,-3153.1466L13052.4902,-3152.9667L13052.2903,-3152.7866L13052.2705,-3152.7666L13052.0599,-3152.64L13052.0203,-3152.6066L13051.77,-3152.5L13051.7395,-3152.2999L13051.741,-3151.9154"/>
<path content="AP030,1,28,1,0,15,1,8,JPN" xlink:title="AP030" d="M13048.8602,-3152.6066L13049.2126,-3152.4836L13049.5667,-3152.1341L13050.0717,-3152.0468L13050.7095,-3151.9192L13050.7294,-3151.9156L13051.1841,-3151.9154L13051.741,-3151.9154"/>
<path content="AP030,1,28,1,0,14,1,8,JPN" xlink:title="AP030" d="M13033.7006,-3154.3009L13033.7006,-3154.2999L13033.7204,-3154.0798L13033.7402,-3153.8134L13033.7402,-3153.5799L13033.7402,-3153.5067L13033.7692,-3153.4666L13033.8104,-3153.4134L13033.8593,-3153.3798L13033.8806,-3153.3266L13033.9005,-3153.2866L13033.9005,-3153.1666L13033.9005,-3153.0733L13033.9294,-3152.9667L13033.9493,-3152.9133L13033.9706,-3152.8399L13033.9706,-3152.7666L13033.9905,-3152.7134L13034.1507,-3152.6066L13034.2407,-3152.5333L13034.2697,-3152.5133L13034.2896,-3152.4599L13034.3597,-3152.4067L13034.4696,-3152.3533L13034.61,-3152.2799L13034.6802,-3152.2066L13034.7198,-3152.1198L13034.8297,-3151.9533L13034.8801,-3151.8465L13034.8999,-3151.7399L13034.8999,-3151.6666L13034.8801,-3151.6333L13034.8297,-3151.5598L13034.8297,-3151.4666L13034.8297,-3151.2865L13034.8297,-3151.1999L13034.8602,-3151.1465L13034.8999,-3151.0399L13034.9503,-3150.9466L13035.0601,-3150.7866L13035.0601,-3150.68"/>
<path content="AP030,1,28,1,0,15,1,8,JPN" xlink:title="AP030" d="M13035.0601,-3150.68L13035.8093,-3150.6088L13036.264,-3150.696L13036.821,-3151.0015L13037.2757,-3151.0452L13037.6801,-3150.9142L13038.1866,-3150.914L13038.945,-3151.1759L13039.3494,-3151.5251L13039.8056,-3151.656L13040.3107,-3151.656L13040.8676,-3151.7431L13041.3223,-3151.9613L13041.777,-3152.2671L13042.131,-3152.4416L13042.5873,-3152.5724L13043.0923,-3152.6161L13044.2047,-3152.6157L13045.3186,-3152.6155L13045.9244,-3152.7464L13046.431,-3152.9209L13046.8353,-3152.9646L13047.0886,-3152.9209L13047.4426,-3152.6587L13047.5937,-3152.5276L13047.8973,-3152.5276L13048.3017,-3152.5274L13048.8602,-3152.6066"/>
<path content="AP030,1,28,1,0,14,1,8,JPN" xlink:title="AP030" d="M13051.741,-3151.9154L13051.6296,-3151.5932L13051.5594,-3151.5932L13051.4496,-3151.5799L13051.3794,-3151.5266L13051.3306,-3151.4532L13051.2695,-3151.3466L13051.1795,-3151.1465L13051.1093,-3150.82L13051.0605,-3150.6599L13050.9903,-3150.5865L13050.9003,-3150.5333L13050.8606,-3150.3532L13050.8102,-3150.2466L13050.7675,-3150.1532"/>
<path content="AP030,1,28,1,0,16,1,8,JPN" xlink:title="AP030" d="M13048.8602,-3152.6066L13048.8098,-3152.5L13048.7396,-3152.4067L13048.6298,-3152.3199L13048.5794,-3152.2799L13048.4497,-3152.2467L13048.3093,-3152.2066L13048.1506,-3152.1532L13048.0194,-3152.1198L13047.9706,-3152.1L13047.9294,-3152.0466L13047.9294,-3151.9934L13047.9294,-3151.9199L13047.9904,-3151.8866L13048.0606,-3151.8465L13048.0606,-3151.8133L13048.0606,-3151.7599L13048.0804,-3151.7065L13048.1293,-3151.6132L13048.1506,-3151.54L13048.1796,-3151.4532L13048.1796,-3151.38L13048.1506,-3151.2865L13048.1293,-3151.1999L13048.1094,-3151.1267L13048.0804,-3151.0933L13047.9904,-3151.1066L13047.9004,-3151.1465L13047.7707,-3151.1665L13047.7005,-3151.1465L13047.6807,-3151.0933L13047.6807,-3151.0532L13047.7005,-3151.0399L13047.7707,-3150.9132L13047.7905,-3150.8734L13047.7905,-3150.8398L13047.7707,-3150.7334L13047.7005,-3150.5865L13047.6807,-3150.5333L13047.6501,-3150.5133L13047.5601,-3150.5333L13047.5204,-3150.5133L13047.4899,-3150.4799L13047.4304,-3150.28L13047.3602,-3150.1333L13047.3602,-3150.0799L13047.3602,-3150.0134"/>
<path content="AP030,1,28,1,0,15,1,8,JPN" xlink:title="AP030" d="M13049.1409,-3149.8327L13049.2935,-3149.991L13049.408,-3150.1755L13049.9832,-3149.9027L13050.647,-3150.1146L13050.7675,-3150.1532"/>
<path content="AP030,1,28,1,0,15,1,8,JPN" xlink:title="AP030" d="M13047.5601,-3149.5934L13048.2315,-3149.7572L13049.1409,-3149.8327"/>
<path content="AP030,1,28,1,0,16,1,8,JPN" xlink:title="AP030" d="M13047.3602,-3150.0134L13047.3785,-3149.9691L13047.3999,-3149.9201L13047.4045,-3149.9149L13047.4503,-3149.8667L13047.5204,-3149.8466L13047.5204,-3149.8133L13047.4899,-3149.7601L13047.4899,-3149.7358L13047.4899,-3149.7066L13047.551,-3149.608L13047.5601,-3149.5935L13047.5601,-3149.5934"/>
<path content="AP030,1,28,1,0,14,1,8,JPN" xlink:title="AP030" d="M13069.7906,-3155.6534L13069.9295,-3155.5265L13070.0607,-3155.3799L13070.1096,-3155.2732L13070.1294,-3155.1666L13070.2393,-3155.02L13070.4697,-3154.7998L13070.52,-3154.6598L13070.52,-3154.5134L13070.6497,-3154.32L13070.7397,-3154.1199L13070.7901,-3153.9734L13070.8298,-3153.6865L13070.8801,-3153.4533L13070.9,-3153.2333L13070.8298,-3153.0933L13070.7703,-3153.0199L13070.52,-3152.9133L13070.3293,-3152.8198L13070.0806,-3152.8L13069.9905,-3152.8L13069.9493,-3152.7666L13069.9005,-3152.66L13069.8593,-3152.5333L13069.8593,-3152.1334L13069.8593,-3151.9934L13069.8105,-3151.8866L13069.8105,-3151.7733L13069.8303,-3151.6666L13069.7845,-3151.4635L13069.7571,-3151.2947L13069.696,-3151.1547L13069.6533,-3151.0828L13069.5969,-3151.0138L13069.5801,-3150.9043L13069.6075,-3150.7782L13069.6884,-3150.7164L13069.78,-3150.6569L13069.8395,-3150.5974L13069.9081,-3150.4499L13069.9463,-3150.2481L13069.9463,-3150.1616L13069.9463,-3149.8549L13069.9463,-3149.6948L13070.0073,-3149.5148L13070.1096,-3149.2867L13070.0195,-3149.1796"/>
<path content="AP030,1,28,1,0,15,1,8,JPN" xlink:title="AP030" d="M13070.0195,-3149.1796L13071.3882,-3148.9319L13073.4787,-3149.1318L13074.3317,-3148.748L13075.5051,-3150.5638L13076.4191,-3150.9094L13077.1835,-3151.3334L13077.6291,-3151.762L13078.125,-3151.9278"/>
<path content="AP030,1,28,1,0,14,1,8,JPN" xlink:title="AP030" d="M13050.7675,-3150.1532L13050.7401,-3150.0465L13050.6805,-3149.8466L13050.56,-3149.5934L13050.5203,-3149.4665L13050.47,-3149.2201L13050.4501,-3149.1467L13050.3998,-3148.9134L13050.3601,-3148.6799L13050.2899,-3148.4066L13050.2701,-3148.3"/>
<path content="AP030,1,28,1,0,15,1,8,JPN" xlink:title="AP030" d="M13049.1409,-3149.8327L13049.0921,-3149.3626L13048.3826,-3149.0122L13048.1308,-3148.2338L13047.7707,-3147.9414"/>
<path content="AP030,1,28,1,0,16,1,8,JPN" xlink:title="AP030" d="M13047.5601,-3149.5934L13047.58,-3149.5266L13047.6105,-3149.3999L13047.6105,-3149.02L13047.6105,-3148.62L13047.6105,-3148.48L13047.6501,-3148.4066L13047.7402,-3148.2599L13047.7402,-3148.1934L13047.7707,-3148.1001L13047.7707,-3147.9933L13047.7707,-3147.9414"/>
<path content="AP030,1,28,1,0,16,1,8,JPN" xlink:title="AP030" d="M13047.7707,-3147.9414L13047.7707,-3147.9401L13047.7402,-3147.8867L13047.6807,-3147.8466L13047.6501,-3147.8466L13047.5601,-3147.8666L13047.5204,-3147.8466L13047.4899,-3147.8132L13047.4899,-3147.76L13047.5403,-3147.6866L13047.5601,-3147.6334L13047.5601,-3147.58L13047.5601,-3147.5065L13047.5403,-3147.4001L13047.5403,-3147.3467L13047.5601,-3147.3066L13047.6105,-3147.2532L13047.6105,-3147.18L13047.6105,-3147.1266L13047.6105,-3147.0734L13047.58,-3147.0533L13047.6105,-3147.02L13047.6807,-3146.9133L13047.8302,-3146.7133L13047.8607,-3146.64L13047.9004,-3146.5866L13047.9507,-3146.48L13047.9706,-3146.3865L13047.9904,-3146.3333L13048.0804,-3146.2601L13048.1796,-3146.1933L13048.2407,-3146.1201L13048.2407,-3146.0466L13048.2407,-3145.94L13048.2407,-3145.8332L13048.1796,-3145.7066L13048.1506,-3145.5933L13048.1094,-3145.4533L13048.1094,-3145.36L13048.0606,-3145.2L13048.0606,-3145.1265L13048.1094,-3145.0533"/>
<path content="AP030,1,28,1,0,14,1,8,JPN" xlink:title="AP030" d="M13050.2701,-3148.3L13050.116,-3148.2506L13050.0397,-3148.2265L13049.9496,-3148.1733L13049.8993,-3148.1333L13049.8993,-3148.1001L13049.8596,-3147.9933L13049.8306,-3147.9532L13049.8093,-3147.9L13049.6796,-3147.8466L13049.6094,-3147.8132L13049.5605,-3147.76L13049.5407,-3147.7066L13049.5407,-3147.6334L13049.5193,-3147.5933L13049.4507,-3147.5401L13049.2706,-3147.4867L13049.1104,-3147.4333L13049.0204,-3147.4133L13048.9899,-3147.4001L13048.9899,-3147.36L13049.0204,-3147.3267L13049.0601,-3147.3066L13049.1501,-3147.2866L13049.2401,-3147.2866L13049.2706,-3147.2733L13049.2706,-3147.2532L13049.2004,-3147.2334L13049.1501,-3147.2L13049.1302,-3147.18L13049.1104,-3147.1266L13049.1302,-3147.0533L13049.1501,-3146.9999L13049.1501,-3146.9666L13049.0799,-3146.9267L13048.7,-3146.9133L13048.6099,-3146.9133L13048.5596,-3146.8733L13048.5596,-3146.8201L13048.5596,-3146.7667L13048.6099,-3146.6801L13048.6099,-3146.64L13048.6099,-3146.6066L13048.7,-3146.5866L13048.7701,-3146.5666L13048.8098,-3146.5134L13048.8602,-3146.48L13048.8602,-3146.4266L13048.8602,-3146.3865L13048.8602,-3146.3533L13048.88,-3146.2999L13048.9304,-3146.2601L13048.97,-3146.2267L13048.9304,-3146.1332L13048.8998,-3146.1201L13048.8098,-3146.1L13048.7701,-3146.08L13048.7396,-3146.0667L13048.7396,-3146.0133L13048.7,-3145.9932L13048.6496,-3145.9732L13048.6099,-3145.9932L13048.5596,-3146.0133L13048.5199,-3145.9932L13048.5199,-3145.9732L13048.5199,-3145.8666L13048.4894,-3145.8134L13048.4299,-3145.7066L13048.3795,-3145.5799L13048.3597,-3145.5265L13048.3597,-3145.4332L13048.3597,-3145.3266L13048.3795,-3145.2534L13048.3994,-3145.2L13048.3795,-3145.1265L13048.3795,-3145.0733L13048.3597,-3145.0399L13048.3093,-3145.0199L13048.2407,-3145.0199L13048.1094,-3145.0533"/>
<path content="AP030,1,28,1,0,14,1,8,JPN" xlink:title="AP030" d="M13050.2701,-3148.3L13050.2197,-3148.1001L13050.1801,-3147.9733L13050.1801,-3147.8466L13050.2396,-3147.6866L13050.4303,-3147.36L13050.5203,-3147.2532L13050.5798,-3147.1466L13050.6302,-3147.0734L13050.65,-3146.9866L13050.6805,-3146.8933L13050.7004,-3146.8201L13050.7401,-3146.7867L13050.8301,-3146.7667L13050.8804,-3146.7667L13050.9003,-3146.7466L13050.9293,-3146.6932L13051.0193,-3146.5532L13051.0193,-3146.4266L13050.9903,-3146.32L13051.0193,-3146.2601L13051.0605,-3146.08L13051.1505,-3145.92L13051.1505,-3145.7933L13051.1505,-3145.6865L13051.1993,-3145.4866L13051.2695,-3145.38L13051.2695,-3145.2534L13051.2695,-3145.0399L13051.2695,-3144.9467L13051.3107,-3144.84"/>
<path content="AP030,1,28,1,0,15,1,8,JPN" xlink:title="AP030" d="M13033.4503,-3143.94L13034.0988,-3144.0008L13034.8679,-3144.7065L13035.9085,-3144.8231L13037.0193,-3145.2078L13038.0127,-3145.1454L13038.4521,-3144.5704L13038.9709,-3144.7887L13039.679,-3145.4308L13039.6652,-3146.4493L13040.2084,-3147.3398L13041.1606,-3148.2351L13041.9846,-3148.7703L13043.0954,-3148.863L13043.5715,-3149.4566L13044.3649,-3149.6683L13045.3339,-3149.5161L13046.6217,-3149.8564L13046.8872,-3149.9077L13047.3602,-3150.0134"/>
<path content="AP030,1,28,1,0,14,1,8,JPN" xlink:title="AP030" d="M13035.0601,-3150.68L13035.08,-3150.4398L13035.08,-3150.3L13035.08,-3150.1734L13035.0204,-3150.0666L13034.9503,-3149.9533L13034.8999,-3149.8333L13034.8602,-3149.7601L13034.8297,-3149.6332L13034.8297,-3149.56L13034.8602,-3149.4865L13034.8999,-3149.3601L13034.9899,-3149.1667L13035.0601,-3149.02L13035.1303,-3148.8733L13035.1501,-3148.7865L13035.1501,-3148.7133L13035.1105,-3148.5867L13034.9503,-3148.3732L13034.8602,-3148.2466L13034.8297,-3148.1934L13034.8099,-3148.1533L13034.8099,-3148.1001L13034.8602,-3148.0267L13034.8602,-3147.9933L13034.8999,-3147.9401L13034.8801,-3147.8867L13034.8297,-3147.8333L13034.79,-3147.7934L13034.7397,-3147.72L13034.7,-3147.6665L13034.6802,-3147.6133L13034.6497,-3147.5266L13034.6298,-3147.4867L13034.61,-3147.3267L13034.5596,-3147.18L13034.5596,-3147.0734L13034.52,-3146.9666L13034.4894,-3146.8933L13034.4696,-3146.8201L13034.3994,-3146.7133L13034.3796,-3146.64L13034.3597,-3146.5134L13034.3307,-3146.3865L13034.3597,-3146.2601L13034.3597,-3146.1933L13034.3994,-3146.1L13034.3994,-3145.9534L13034.3994,-3145.9L13034.3796,-3145.8666L13034.3307,-3145.8134L13034.3094,-3145.7399L13034.3094,-3145.6665L13034.3094,-3145.5933L13034.0607,-3145.4666L13033.8593,-3145.4666L13033.8104,-3145.4533L13033.6105,-3145.2732L13033.4305,-3145.1265L13033.3099,-3145.0199L13033.2199,-3144.9133L13033.1802,-3144.8601L13033.1497,-3144.82L13033.1497,-3144.7866L13033.1802,-3144.6934L13033.2199,-3144.6199L13033.2199,-3144.5333L13033.2199,-3144.4401L13033.3298,-3144.3733L13033.3801,-3144.3001L13033.4,-3144.2066L13033.4305,-3144.0666L13033.4503,-3143.94"/>
<path content="AP030,1,28,1,0,14,1,8,JPN" xlink:title="AP030" d="M13033.4503,-3143.94L13033.4702,-3143.8465L13033.49,-3143.7201L13033.5205,-3143.5932L13033.4869,-3143.5787L13033.4,-3143.54L13033.3099,-3143.5066L13033.1894,-3143.4385"/>
<path content="AP030,1,28,1,0,15,1,8,JPN" xlink:title="AP030" d="M13029.2892,-3142.6201L13029.6799,-3143.4242L13030.2963,-3143.6802L13031.5918,-3143.644L13032.2525,-3144.1074L13033.1894,-3143.4385"/>
<path content="AP030,1,28,1,0,14,1,8,JPN" xlink:title="AP030" d="M13033.1894,-3143.4385L13033.1802,-3143.4334L13032.8598,-3143.3065L13032.8094,-3143.2865L13032.7698,-3143.2199L13032.7698,-3143.1801L13032.7393,-3143.1067L13032.6996,-3143.0401L13032.6492,-3142.9867L13032.5607,-3142.8932L13032.4707,-3142.7866L13032.4493,-3142.7465L13032.4493,-3142.66L13032.4493,-3142.6201L13032.4707,-3142.5667L13032.4707,-3142.4999L13032.4493,-3142.3866L13032.4005,-3142.3L13032.3593,-3142.2266L13032.2403,-3142.1L13032.2205,-3142.0799L13032.2205,-3142.0666L13032.2006,-3141.9201L13032.1304,-3141.7732L13032.0404,-3141.6666L13031.9901,-3141.58"/>
<path content="AP030,1,28,1,0,14,1,8,JPN" xlink:title="AP030" d="M13029.2892,-3142.6201L13029.3594,-3142.6201L13029.4495,-3142.6201L13029.6097,-3142.5865L13029.6799,-3142.5667L13029.8996,-3142.5865L13030.0797,-3142.6065L13030.2002,-3142.6065L13030.4703,-3142.5533L13030.6793,-3142.4999L13030.7693,-3142.4801L13030.8304,-3142.4267L13030.8594,-3142.3332L13030.8807,-3142.2266L13030.9006,-3142.12L13030.9692,-3142.0465L13031.2698,-3141.8467L13031.5201,-3141.6866L13031.5796,-3141.6332L13031.7001,-3141.6134L13031.7703,-3141.6134L13031.9305,-3141.6134L13031.9901,-3141.58"/>
<path content="AP030,1,28,1,0,14,1,8,JPN" xlink:title="AP030" d="M13031.9901,-3141.58L13031.9702,-3141.4865L13031.9504,-3141.4333L13031.9305,-3141.3799"/>
<path content="AP030,1,28,1,0,15,1,8,JPN" xlink:title="AP030" d="M13031.9305,-3141.3799L13032.8171,-3140.9576"/>
<path content="AP030,1,28,1,0,14,1,8,JPN" xlink:title="AP030" d="M13023.79,-3140.5333L13023.9304,-3140.5132L13024.0601,-3140.5533L13024.1806,-3140.5533L13024.2706,-3140.6401L13024.4293,-3140.7999L13024.6506,-3140.9466L13024.9298,-3141.0933L13025.2701,-3141.2333L13025.3098,-3141.2733L13025.3601,-3141.3265L13025.3799,-3141.3601L13025.4303,-3141.4L13025.5203,-3141.4133L13025.5402,-3141.4133L13025.6805,-3141.4333L13025.7202,-3141.4534L13025.7706,-3141.4534L13025.8102,-3141.5066L13026.0193,-3141.56L13026.1307,-3141.56L13026.2894,-3141.5934L13026.3596,-3141.6134L13026.4496,-3141.7067L13026.6296,-3141.9533L13026.68,-3142.0265L13026.7197,-3142.0799L13026.86,-3142.12L13027.0798,-3142.1333L13027.2003,-3142.12L13027.24,-3142.1L13027.2705,-3142.0265L13027.3102,-3141.9533L13027.3605,-3141.9399L13027.4506,-3141.9201L13027.8595,-3142.0265L13028.1097,-3142.1L13028.1998,-3142.1333L13028.3096,-3142.1333L13028.6301,-3142.12L13028.7201,-3142.12L13028.8803,-3142.2466L13029.0604,-3142.4267L13029.1794,-3142.5333L13029.2694,-3142.6065L13029.2892,-3142.6201"/>
<path content="AP030,1,28,1,0,15,1,8,JPN" xlink:title="AP030" d="M13051.3107,-3144.84L13051.1795,-3144.7111L13050.8713,-3144.409L13050.4166,-3143.7971L13050.2655,-3143.1854L13050.3159,-3142.8358L13050.5676,-3142.2241L13050.8209,-3141.6561L13050.7706,-3141.132L13050.5173,-3140.3891"/>
<path content="AP030,1,28,1,0,16,1,8,JPN" xlink:title="AP030" d="M13048.1094,-3145.0533L13048.1094,-3145.0399L13048.1506,-3144.9865L13048.1796,-3144.9133L13048.2697,-3144.82L13048.2895,-3144.7666L13048.3307,-3144.68L13048.3307,-3144.66L13048.3093,-3144.64L13048.2407,-3144.64L13048.1995,-3144.6199L13048.1796,-3144.6199L13048.1796,-3144.5866L13048.1796,-3144.5L13048.2895,-3144.3199L13048.3307,-3144.2266L13048.3597,-3144.1532L13048.3093,-3144.0666L13048.2697,-3143.9199L13048.1995,-3143.8334L13048.1506,-3143.7201L13048.1506,-3143.6533L13048.1995,-3143.5801L13048.2697,-3143.4666L13048.3093,-3143.3599L13048.3795,-3143.1801L13048.3994,-3143.0933L13048.4894,-3142.8932L13048.6298,-3142.6399L13048.6801,-3142.5133L13048.79,-3142.3532L13048.8602,-3142.2266L13048.88,-3142.12L13048.97,-3141.9201L13049.1104,-3141.6134L13049.1501,-3141.54L13049.1806,-3141.5066L13049.2401,-3141.5066L13049.3301,-3141.54L13049.3805,-3141.56L13049.4293,-3141.56L13049.4705,-3141.58L13049.5193,-3141.54L13049.5605,-3141.4534L13049.5605,-3141.3799L13049.4904,-3141.2001L13049.3607,-3141L13049.3103,-3140.8934L13049.2706,-3140.8199L13049.2706,-3140.7866L13049.3103,-3140.7665L13049.3607,-3140.7467L13049.4003,-3140.7467L13049.4507,-3140.7467L13049.4705,-3140.7467L13049.5605,-3140.7467L13049.6506,-3140.7333L13049.6994,-3140.7133L13049.7406,-3140.7133L13049.7894,-3140.7133L13049.8795,-3140.7333L13049.9298,-3140.7333L13049.9893,-3140.7133L13050.0198,-3140.62L13050.0198,-3140.6067L13050.0595,-3140.5533L13050.1495,-3140.5001L13050.5173,-3140.3891"/>
<path content="AP030,1,28,1,0,14,1,8,JPN" xlink:title="AP030" d="M13070.0195,-3149.1796L13069.9005,-3148.9466L13069.8593,-3148.9134L13069.7006,-3148.7133L13069.5602,-3148.5001L13069.5206,-3148.3866L13069.5206,-3148.2466L13069.5206,-3148.0665L13069.5755,-3147.715L13069.6442,-3147.3614L13069.6808,-3147.0791L13069.7403,-3146.8201L13070.1294,-3146.1533L13070.3293,-3145.9732L13070.52,-3145.9L13070.8801,-3145.8332L13071.1807,-3145.8134L13071.4294,-3145.76L13071.8094,-3145.6665L13072.11,-3145.5799L13072.4304,-3145.4332L13072.6105,-3145.3266L13072.8302,-3145.22L13073.0804,-3145.0933L13073.3307,-3144.9133L13073.4894,-3144.68L13073.6099,-3144.5L13073.7,-3144.3533L13073.8602,-3144.1532L13073.9899,-3144.0132L13074.0799,-3143.94L13074.1806,-3143.8866L13074.2706,-3143.8665L13074.3301,-3143.8133L13074.5193,-3143.6132L13074.5804,-3143.5066L13074.6994,-3143.38L13074.8306,-3143.2199L13074.9893,-3143.0532L13075.1099,-3142.9466L13075.1999,-3142.8932L13075.3998,-3142.7866L13075.47,-3142.7134L13075.5203,-3142.6065L13075.5402,-3142.5333L13075.6104,-3142.4801L13075.7004,-3142.4267L13075.8606,-3142.3733L13075.9293,-3142.28L13075.9506,-3142.1932L13075.9003,-3142.12L13075.8606,-3142.0666L13075.7706,-3141.9933L13075.7706,-3141.9201L13075.8102,-3141.7601L13075.8347,-3141.6555L13075.8453,-3141.5995L13075.8743,-3141.5422L13075.9903,-3141.4L13076.0193,-3141.3067L13076.0239,-3141.2573L13076.0742,-3141.1865L13076.1703,-3141.0818L13076.3992,-3140.8199L13076.8295,-3140.48L13076.9302,-3140.3732L13077.0203,-3140.3L13077.15,-3140.2599L13077.2202,-3140.2599L13077.2705,-3140.2266L13077.2705,-3140.1533L13077.3605,-3140.0665L13077.4002,-3140.0133L13077.3804,-3139.9733L13077.3605,-3139.92L13077.33,-3139.8666L13077.2903,-3139.8132L13077.2903,-3139.76L13077.3285,-3139.7064"/>
<path content="AP030,1,28,1,0,14,1,8,JPN" xlink:title="AP030" d="M13048.1094,-3145.0533L13047.9904,-3145.0399L13047.9294,-3145.0199L13047.9004,-3144.9665L13047.8607,-3144.9133L13047.8607,-3144.7666L13047.8806,-3144.68L13047.9004,-3144.6199L13047.9004,-3144.5866L13047.8607,-3144.5333L13047.8104,-3144.5L13047.6807,-3144.4065L13047.6501,-3144.3533L13047.6807,-3144.2266L13047.6807,-3144.12L13047.6807,-3144.0666L13047.6807,-3143.9734L13047.6303,-3143.8999L13047.6105,-3143.8334L13047.5601,-3143.7933L13047.5403,-3143.7401L13047.4899,-3143.7201L13047.3801,-3143.6867L13047.3099,-3143.6533L13047.2702,-3143.6132L13047.2198,-3143.56L13047.1802,-3143.5266L13047.0596,-3143.4666L13046.8994,-3143.4134L13046.7896,-3143.4L13046.6797,-3143.4334L13046.5607,-3143.4532L13046.4905,-3143.4666L13046.3593,-3143.4532L13046.1807,-3143.38L13045.9305,-3143.2199L13045.8298,-3143.1801L13045.7001,-3143.0933L13045.5597,-3143.0201L13045.4895,-3142.9667L13045.3995,-3142.86L13045.3796,-3142.7666L13045.3293,-3142.66L13045.2896,-3142.5865L13045.2393,-3142.5133L13045.1797,-3142.4601L13045.1294,-3142.4067L13045.0394,-3142.3532L13044.9005,-3142.3L13044.7906,-3142.2466L13044.6793,-3142.2266L13044.6304,-3142.1734L13044.5206,-3142.1L13044.4702,-3142.0465L13044.3604,-3141.9933L13044.2398,-3141.9733L13044.0399,-3141.9733L13043.8797,-3141.9399L13043.8095,-3141.8865L13043.6493,-3141.8333L13043.6096,-3141.7601L13043.4494,-3141.6533L13043.3105,-3141.56L13043.2693,-3141.4865L13043.2404,-3141.4133L13043.2205,-3141.2867L13043.2205,-3141.2333L13043.1503,-3141.18L13043.0801,-3141.1066L13043.0206,-3140.9866L13042.9901,-3140.7999L13042.9504,-3140.5867L13042.8604,-3140.46L13042.6498,-3140.3L13042.5201,-3140.1934L13042.3996,-3140.0999L13042.2897,-3140.0267L13042.1097,-3139.9933L13041.8594,-3139.9733L13041.7694,-3139.9532L13041.6504,-3139.9401L13041.4307,-3139.8466L13041.2003,-3139.74L13041.0599,-3139.6666L13040.95,-3139.6133L13040.86,-3139.58L13040.8096,-3139.5399L13040.7898,-3139.5065L13040.6479,-3139.4531"/>
<path content="AP030,1,28,1,0,15,1,8,JPN" xlink:title="AP030" d="M13047.7707,-3147.9414L13047.7676,-3147.9399L13046.9543,-3147.8153L13046.0464,-3147.1279L13045.0424,-3146.6946L13044.696,-3145.85L13044.368,-3144.5406L13044.101,-3143.9064L13043.5745,-3143.746L13042.8925,-3143.7765L13042.2348,-3143.2846L13041.6702,-3142.5673L13041.5695,-3141.6557L13040.8447,-3140.8667L13040.6097,-3140.2353L13040.6479,-3139.4531"/>
<path content="AP030,1,28,1,0,14,1,8,JPN" xlink:title="AP030" d="M13040.6479,-3139.4531L13040.5396,-3139.3801"/>
<path content="AP030,1,28,1,0,14,1,8,JPN" xlink:title="AP030" d="M13019.9295,-3139.7734L13020.0195,-3139.7066L13020.0806,-3139.6866L13020.1797,-3139.6334L13020.3094,-3139.5933L13020.5399,-3139.5266L13020.9503,-3139.4333L13021.1105,-3139.36L13021.1304,-3139.3267L13021.3104,-3139.3267L13021.4706,-3139.3465L13021.7194,-3139.3801L13021.8597,-3139.3801L13021.9299,-3139.3801L13022.11,-3139.3801L13022.3602,-3139.4333L13022.5601,-3139.4667L13022.6807,-3139.5266L13022.7402,-3139.58L13022.8104,-3139.6666L13022.7707,-3139.7932L13022.7707,-3139.9532L13022.8104,-3140.0467L13022.8607,-3140.1199L13022.9706,-3140.2065L13023.1796,-3140.3L13023.4695,-3140.4266L13023.6298,-3140.48L13023.7198,-3140.5132L13023.79,-3140.5333"/>
<path content="AP030,1,28,1,0,15,1,8,JPN" xlink:title="AP030" d="M13032.8171,-3140.9576L13033.2245,-3141.0013L13033.4274,-3141.1324L13033.6792,-3141.2195L13034.0332,-3141.3069L13034.2865,-3141.1322L13034.9442,-3140.8262L13035.3485,-3140.6952L13035.7529,-3140.6076L13036.0062,-3140.3893L13036.1069,-3140.1272L13036.2076,-3139.7341L13036.3586,-3139.5157L13036.6119,-3139.2973L13037.1094,-3139.02"/>
<path content="AP030,1,28,1,0,14,1,8,JPN" xlink:title="AP030" d="M13037.1094,-3139.02L13037.2696,-3139.1066L13037.3795,-3139.18L13037.4496,-3139.22L13037.5793,-3139.2733L13037.97,-3139.1666L13038.5605,-3139.0533L13038.8794,-3138.9866L13039.0594,-3138.9666L13039.4302,-3138.9133L13039.6301,-3138.9465L13039.7705,-3138.9999L13039.83,-3139.04L13039.9307,-3139.1066L13039.9704,-3139.18L13040.0192,-3139.2532L13040.0192,-3139.2866L13040.0406,-3139.3267L13040.0604,-3139.3267L13040.2405,-3139.3267L13040.5396,-3139.3801"/>
<path content="AP030,1,28,1,0,14,1,8,JPN" xlink:title="AP030" d="M13077.3285,-3139.7064L13077.4506,-3139.5933L13077.5192,-3139.4667L13077.5604,-3139.3999L13077.6306,-3139.3801L13077.6794,-3139.4133L13077.6993,-3139.4667L13077.7405,-3139.5399L13077.7695,-3139.6334L13077.7893,-3139.6866L13077.8305,-3139.7066L13077.9007,-3139.7066L13078.0396,-3139.72L13078.125,-3139.7164"/>
<path content="AP030,1,28,1,0,14,1,8,JPN" xlink:title="AP030" d="M13037.1094,-3139.02L13036.9705,-3138.9133L13036.9003,-3138.8733L13036.8607,-3138.8399L13036.8607,-3138.8L13036.8607,-3138.7466L13036.9003,-3138.62L13036.9507,-3138.4399L13036.9705,-3138.3734L13036.9705,-3138.2799L13036.9705,-3138.2265L13036.9507,-3138.1733L13036.9003,-3138.1001L13036.7706,-3137.9932L13036.4899,-3137.9L13036.3098,-3137.8466"/>
<path content="AP030,1,28,1,0,15,1,8,JPN" xlink:title="AP030" d="M13032.8171,-3140.9576L13033.3038,-3139.7995L13033.8287,-3139.5069L13034.5917,-3139.2765L13035.5072,-3138.554L13036.3098,-3137.8466"/>
<path content="AP030,1,28,1,0,15,1,8,JPN" xlink:title="AP030" d="M13023.79,-3140.5333L13023.5138,-3139.8245L13023.2101,-3139.344L13022.9568,-3138.7764L13022.3892,-3137.6141"/>
<path content="AP030,1,28,1,0,15,1,8,JPN" xlink:title="AP030" d="M13022.3892,-3137.6141L13021.5912,-3138.2963L13021.3882,-3138.3837L13021.1868,-3138.3839L13020.9335,-3138.4275L13020.6299,-3138.6459L13020.4788,-3138.777L13020.2255,-3138.8643L13019.8715,-3139.0827L13019.8212,-3139.345L13019.8212,-3139.5632L13019.9295,-3139.7734"/>
<path content="AP030,1,28,1,0,14,1,8,JPN" xlink:title="AP030" d="M13051.3107,-3144.84L13051.4297,-3144.64L13051.5198,-3144.5133L13051.5396,-3144.4799L13051.5594,-3144.4265L13051.5594,-3144.3867L13051.5396,-3144.3001L13051.5198,-3144.1933L13051.5396,-3144.08L13051.5793,-3144.0132L13051.6098,-3143.9199L13051.6098,-3143.8334L13051.6296,-3143.7065L13051.6296,-3143.6533L13051.7197,-3143.54L13051.86,-3143.3466L13051.8799,-3143.2333L13051.8997,-3143.0733L13052.0203,-3142.6399L13052.15,-3142.28L13052.1805,-3142.1932L13052.1805,-3142.1L13052.15,-3141.9733L13052.15,-3141.9201L13052.1805,-3141.74L13052.2202,-3141.5266L13052.2705,-3141.3799L13052.33,-3141.1667L13052.3804,-3140.9666L13052.4902,-3140.7333L13052.5406,-3140.6599L13052.6093,-3140.62L13052.6794,-3140.6067L13052.7405,-3140.5867L13052.7695,-3140.5666L13052.8305,-3140.5001L13052.9007,-3140.32L13052.9297,-3140.0801L13052.9907,-3139.9401L13053.0197,-3139.8466L13053.1799,-3139.58L13053.4897,-3139.1666L13053.5797,-3139.0734L13053.6499,-3138.9866L13053.6804,-3138.8933L13053.7003,-3138.8L13053.6499,-3138.6801L13053.6499,-3138.62L13053.6301,-3138.5666L13053.6499,-3138.5134L13053.6499,-3138.5L13053.83,-3138.32L13053.9703,-3138.08L13054.0207,-3137.9732L13054.1504,-3137.8866L13054.2892,-3137.7066L13054.3304,-3137.6333L13054.3594,-3137.5265L13054.3594,-3137.4132"/>
<path content="AP030,1,28,1,0,15,1,8,JPN" xlink:title="AP030" d="M13044.1025,-3137.6034L13046.2692,-3137.7665L13047.2305,-3137.5919L13047.9385,-3137.2864L13048.2422,-3137.2427L13048.5458,-3137.3301L13048.6465,-3137.6797L13048.6465,-3138.204L13049.2538,-3138.8159L13049.6582,-3139.2092L13050.0122,-3139.6898L13050.3662,-3140.0394L13050.5173,-3140.3891"/>
<path content="AP030,1,28,1,0,14,1,8,JPN" xlink:title="AP030" d="M13036.3098,-3137.8466L13036.3098,-3137.8134L13036.2701,-3137.7399L13036.2198,-3137.6665L13036.1496,-3137.5799L13036.0794,-3137.5265L13036.0199,-3137.4533L13035.8994,-3137.4001L13035.7407,-3137.3066L13035.6094,-3137.22"/>
<path content="AP030,1,28,1,0,15,1,8,JPN" xlink:title="AP030" d="M13040.5396,-3139.3801L13040.5045,-3138.2021L13040.7562,-3137.5467L13041.1102,-3136.8916L13041.4139,-3136.8479L13041.9205,-3136.9352L13042.7795,-3137.285L13044.1025,-3137.6034"/>
<path content="AP030,1,28,1,0,15,1,8,JPN" xlink:title="AP030" d="M13077.3285,-3139.7064L13077.3239,-3138.8809L13077.5604,-3138.5921L13078.125,-3138.0774"/>
<path content="AP030,1,28,1,0,15,1,8,JPN" xlink:title="AP030" d="M13044.1025,-3137.6034L13043.1839,-3136.3239L13042.6788,-3135.581L13042.4255,-3134.8381L13041.8701,-3133.8768"/>
<path content="AP030,1,28,1,0,16,1,8,JPN" xlink:title="AP030" d="M13050.5173,-3140.3891L13050.6104,-3140.32L13050.65,-3140.28L13050.6805,-3140.2466L13050.6805,-3140.1934L13050.6104,-3139.9933L13050.5798,-3139.8466L13050.5798,-3139.7734L13050.6805,-3139.6133L13050.8606,-3139.4865L13050.9293,-3139.3999L13050.9705,-3139.2866L13050.9903,-3139.1466L13050.9903,-3139.0533L13050.9903,-3138.9866L13050.9293,-3138.8933L13050.8606,-3138.8L13050.8606,-3138.7333L13050.8301,-3138.64L13050.8102,-3138.5532L13050.7706,-3138.3533L13050.7904,-3138.2265L13050.8301,-3138.1933L13050.8804,-3138.1533L13050.8804,-3138.1001L13050.8606,-3138.0133L13050.8301,-3137.9534L13050.7904,-3137.92L13050.7004,-3137.8866L13050.65,-3137.8466L13050.6104,-3137.6865L13050.6104,-3137.5933L13050.6104,-3137.5265L13050.65,-3137.4332L13050.6805,-3137.4001L13050.6805,-3137.2334L13050.6805,-3137.1466L13050.65,-3137.0934L13050.6104,-3137.0399L13050.5798,-3137.0001L13050.56,-3136.9133L13050.5203,-3136.8401L13050.4898,-3136.8L13050.4898,-3136.7666L13050.5798,-3136.66L13050.6104,-3136.6066L13050.56,-3136.5665L13050.5203,-3136.5334L13050.4898,-3136.5L13050.47,-3136.4599L13050.4303,-3136.4065L13050.3296,-3136.3533L13050.2701,-3136.3533L13050.1495,-3136.3533L13050.0595,-3136.3533L13049.9893,-3136.3199L13049.7894,-3136.2066L13049.6506,-3136.1L13049.6094,-3136.0666L13049.5605,-3135.9533L13049.5193,-3135.8334L13049.4904,-3135.7065L13049.4705,-3135.6533L13049.4293,-3135.5932L13049.4003,-3135.56L13049.3607,-3135.5267L13049.3103,-3135.4866L13049.2706,-3135.4532L13049.2401,-3135.36L13049.2401,-3135.22L13049.2004,-3135.0933L13049.1806,-3135.0201L13049.1501,-3134.9667L13049.1302,-3134.8932L13049.1104,-3134.86L13049.0601,-3134.7866L13049.0204,-3134.7334L13048.9899,-3134.6199L13048.9899,-3134.4799L13049.0402,-3134.3332L13049.0799,-3134.2466L13049.1104,-3134.1932L13049.1104,-3134.12L13049.1302,-3134.0466L13049.1302,-3133.9533L13049.1302,-3133.8865L13049.1806,-3133.8133L13049.2401,-3133.6533L13049.3805,-3133.56"/>
<path content="AP030,1,28,1,0,15,1,8,JPN" xlink:title="AP030" d="M13054.3594,-3137.4132L13053.6377,-3137.1246L13053.3936,-3137.0268L13053.2211,-3136.6819L13052.7573,-3136.1324L13051.947,-3135.5545L13050.7767,-3135.3676L13049.9481,-3134.9382L13049.7498,-3133.8997L13049.6811,-3133.3242"/>
<path content="AP030,1,28,1,0,15,1,8,JPN" xlink:title="AP030" d="M13049.3805,-3133.56L13049.6811,-3133.3242"/>
<path content="AP030,1,28,1,0,15,1,8,JPN" xlink:title="AP030" d="M13041.8701,-3133.8768L13041.3132,-3133.1776L13040.7562,-3132.653L13039.5935,-3131.9538L13039.592,-3131.9525"/>
<path content="AP030,1,28,1,0,15,1,8,JPN" xlink:title="AP030" d="M13035.6094,-3137.22L13036.3464,-3136.3518L13036.969,-3134.7628L13037.9059,-3134.2941L13038.1805,-3133.6016L13038.3194,-3132.8136L13038.9389,-3132.5289L13039.592,-3131.9536L13039.592,-3131.9525"/>
<path content="AP030,1,28,1,0,15,1,8,JPN" xlink:title="AP030" d="M13022.3892,-3137.6141L13022.7493,-3135.9053L13022.9538,-3135.2377L13022.4533,-3133.9186L13023.0942,-3133.2413L13023.262,-3132.8819L13022.8424,-3132.4259L13022.85,-3132.2086L13023.0133,-3132.2069L13023.5092,-3132.4669L13023.5596,-3132.3467L13022.2198,-3131.2344"/>
<path content="AP030,1,28,1,0,14,1,8,JPN" xlink:title="AP030" d="M13019.9295,-3139.7734L13019.9295,-3139.8466L13019.9295,-3139.8666L13019.9295,-3139.92L13020.0195,-3140.0467L13020.0607,-3140.1533L13020.1294,-3140.28L13020.1294,-3140.4066L13020.1096,-3140.5132L13020.0195,-3140.62L13019.9005,-3140.6599L13019.7205,-3140.6799L13019.6304,-3140.6599L13019.5602,-3140.6401L13019.4702,-3140.6599L13019.3802,-3140.6799L13019.22,-3140.6401L13019.0796,-3140.5666L13019.0201,-3140.5132L13018.9697,-3140.4266L13018.9301,-3140.3732L13018.8995,-3140.2466L13018.8995,-3140.0999L13018.8995,-3140.0665L13018.8599,-3140.0267L13018.8095,-3140.0133L13018.7393,-3140.0665L13018.6493,-3140.2466L13018.6295,-3140.3732L13018.6096,-3140.48L13018.5394,-3140.5333L13018.4692,-3140.6401L13018.4296,-3140.7866L13018.4006,-3140.9466L13018.3807,-3141.02L13018.3304,-3141.2533L13018.2907,-3141.3265L13018.2205,-3141.3265L13018.1107,-3141.3799L13018.0801,-3141.4333L13018.0801,-3141.58L13017.9901,-3141.72L13017.9001,-3141.8667L13017.8802,-3141.8865L13017.7704,-3141.8865L13017.6804,-3141.8467L13017.5598,-3141.7933L13017.4301,-3141.74L13017.2394,-3141.74L13017.1097,-3141.74L13016.9296,-3141.8133L13016.8594,-3141.9001L13016.8106,-3142.0465L13016.8304,-3142.1534L13016.8106,-3142.2266L13016.7892,-3142.26L13016.7206,-3142.3L13016.7007,-3142.3532L13016.6794,-3142.4067L13016.7007,-3142.4801L13016.7206,-3142.5133L13016.7007,-3142.5667L13016.7007,-3142.6065L13016.6306,-3142.66L13016.6306,-3142.6933L13016.6306,-3142.7666L13016.6306,-3142.8932L13016.6306,-3142.9266L13016.6306,-3142.9466L13016.6107,-3142.9667L13016.5604,-3142.9867L13016.5207,-3143L13016.4703,-3143.0401L13016.4505,-3143.0532L13016.4307,-3143.0933L13016.4505,-3143.1999L13016.4505,-3143.2734L13016.4307,-3143.3466L13016.4001,-3143.4L13016.3605,-3143.4666L13016.2704,-3143.5266L13016.1102,-3143.5801L13015.9897,-3143.6333L13015.8997,-3143.6867L13015.86,-3143.6867L13015.8096,-3143.6867L13015.7898,-3143.6533L13015.77,-3143.6132L13015.7394,-3143.54L13015.7196,-3143.4L13015.6799,-3143.2734L13015.6296,-3143.1999L13015.5396,-3143.1465L13015.5396,-3143.1067L13015.5197,-3143.0532L13015.4907,-3142.8932L13015.4907,-3142.7866L13015.4495,-3142.7465L13015.4297,-3142.7465L13015.3793,-3142.7666L13015.3595,-3142.7866L13015.3305,-3142.82L13015.2893,-3142.8932L13015.2893,-3142.9132L13015.2695,-3142.9466L13015.2206,-3142.9667L13015.1505,-3142.9667L13015.1093,-3142.9667L13014.9506,-3142.8932L13014.9002,-3142.84L13014.8605,-3142.7134L13014.7705,-3142.6399L13014.74,-3142.6201L13014.6805,-3142.6065L13014.5401,-3142.4999L13014.4699,-3142.3733L13014.2899,-3142.0666L13014.18,-3141.9001L13014.1098,-3141.8467L13013.9496,-3141.7732L13013.6795,-3141.6866L13013.5605,-3141.6134L13013.5406,-3141.5934L13013.5605,-3141.56L13013.6093,-3141.5066L13013.6307,-3141.4534L13013.6307,-3141.3601L13013.6093,-3141.3067L13013.5605,-3141.2533L13013.5193,-3141.2201L13013.6093,-3141.1667L13013.6795,-3141.1266L13013.7207,-3141.04L13013.7894,-3140.9866L13013.8306,-3140.9866L13013.8794,-3141L13013.8794,-3141.04L13013.8992,-3141.0933L13013.9496,-3141.1066L13013.9893,-3141.1066L13014.0793,-3141.0933L13014.18,-3141.0534L13014.27,-3141.04L13014.2899,-3141.04L13014.3097,-3141.0933L13014.3295,-3141.1066L13014.3799,-3141.0933L13014.4302,-3141.0732L13014.4302,-3141.02L13014.4302,-3140.9666L13014.3997,-3140.8733L13014.4302,-3140.8199L13014.5203,-3140.7333L13014.5401,-3140.6933L13014.5599,-3140.6799L13014.5599,-3140.6401L13014.4897,-3140.5132L13014.4699,-3140.4066L13014.5203,-3140.28L13014.5798,-3140.1934L13014.65,-3140.1199L13014.7202,-3140.0665L13014.7202,-3140.0267L13014.6805,-3139.9532L13014.74,-3139.9L13014.8102,-3139.8867L13014.8804,-3139.8867L13014.9704,-3139.8666L13015.0406,-3139.8333L13015.0604,-3139.8333L13015.0406,-3139.76L13015.0192,-3139.6866L13015.0406,-3139.6334L13015.0406,-3139.58L13015.0192,-3139.5399L13014.9704,-3139.5266L13014.9704,-3139.4865L13015.0192,-3139.4333L13015.0192,-3139.3465L13015.0192,-3139.2532L13015.0406,-3139.2L13015.1794,-3139.1666L13015.2405,-3139.1266L13015.3305,-3139.04L13015.3595,-3138.9999L13015.3595,-3138.9465L13015.4297,-3138.8733L13015.4694,-3138.8599L13015.4907,-3138.8L13015.5594,-3138.66L13015.6097,-3138.62L13015.77,-3138.6066L13015.8295,-3138.5866L13015.9302,-3138.5532L13016.2201,-3138.2999L13016.2704,-3138.2265L13016.2399,-3138.1733L13016.2704,-3138.1533L13016.3101,-3138.1001L13016.5207,-3137.9534L13016.5802,-3137.8666L13016.6107,-3137.8332L13016.7206,-3137.8134L13016.7404,-3137.8332L13016.7694,-3137.8466L13016.7694,-3137.8866L13016.8106,-3137.92L13016.8304,-3137.94L13016.8793,-3137.94L13016.9907,-3137.94L13017.0395,-3137.92L13017.1295,-3137.8466L13017.1799,-3137.7733L13017.1799,-3137.6865L13017.1799,-3137.5933L13017.2195,-3137.5601L13017.2897,-3137.5401L13017.3096,-3137.5401L13017.3798,-3137.5067L13017.4301,-3137.4132L13017.45,-3137.3066L13017.4698,-3137.1265L13017.4896,-3137.0399L13017.5598,-3137.0199L13017.5797,-3136.9865L13017.63,-3136.9467L13017.63,-3136.8933L13017.72,-3136.8601L13017.8101,-3136.8401L13017.8604,-3136.8601L13017.8802,-3136.8732L13017.9001,-3136.9133L13017.9306,-3136.9467L13017.9703,-3136.9467L13018.0603,-3136.9467L13018.1305,-3136.9133L13018.1305,-3136.8933L13018.1503,-3136.8601L13018.2205,-3136.8401L13018.2907,-3136.8401L13018.4006,-3136.82L13018.4906,-3136.8401L13018.5394,-3136.8601L13018.5806,-3136.8933L13018.6295,-3136.9267L13018.6798,-3136.9865L13018.7698,-3136.9865L13018.8599,-3137.0199L13018.8995,-3137.0001L13018.9697,-3136.9665L13018.9896,-3136.9267L13019.0201,-3136.8601L13019.0598,-3136.8401L13019.1101,-3136.82L13019.1498,-3136.82L13019.2001,-3136.82L13019.22,-3136.7867L13019.22,-3136.7466L13019.22,-3136.7132L13019.22,-3136.4799L13019.22,-3136.4065L13019.31,-3136.3533L13019.3298,-3136.3001L13019.3298,-3136.2066L13019.31,-3136.1532L13019.3604,-3136.1L13019.3802,-3136.0666L13019.4702,-3135.9934L13019.5602,-3135.94L13019.5801,-3135.8665L13019.5801,-3135.7201L13019.6106,-3135.6667L13019.6304,-3135.6533L13019.6793,-3135.6533L13019.6793,-3135.6667L13019.7006,-3135.7065L13019.7205,-3135.7401L13019.7205,-3135.7933L13019.7693,-3135.8665L13019.7906,-3135.8866L13019.8105,-3135.8866L13019.8303,-3135.8999L13019.9005,-3135.92L13019.9707,-3135.8999L13020.0607,-3135.8334L13020.1096,-3135.7401L13020.1096,-3135.6667L13020.1797,-3135.6133L13020.43,-3135.4134L13020.52,-3135.3466L13020.5399,-3135.2734L13020.61,-3135.2533L13020.6299,-3135.1801L13020.6299,-3135.1465L13020.6802,-3135.0933L13020.7397,-3135.0533L13020.7901,-3135.0401L13020.8099,-3135L13020.8298,-3134.9133L13020.9,-3134.9133L13020.9702,-3134.9266L13021.0602,-3134.9133L13021.08,-3134.86L13021.1105,-3134.82L13021.1105,-3134.7466L13021.1304,-3134.7134L13021.0403,-3134.6199L13020.99,-3134.5865L13021.0205,-3134.5333L13021.08,-3134.4999L13021.1304,-3134.4799L13021.1502,-3134.4267L13021.1105,-3134.3733L13020.9503,-3134.3332L13020.9503,-3134.3201L13020.9305,-3134.2466L13020.9,-3134.1534L13020.8603,-3134.0666L13020.7901,-3134.0134L13020.7703,-3133.9533L13020.8099,-3133.9001L13020.8801,-3133.8667L13020.8801,-3133.8133L13020.8603,-3133.74L13020.9503,-3133.6533L13020.9503,-3133.4332L13020.8603,-3133.3799L13020.7703,-3133.3466L13020.7199,-3133.3065L13020.7703,-3133.2199L13020.7703,-3133.1264L13020.8099,-3133.0399L13020.8603,-3132.9466L13020.9305,-3132.8932L13020.99,-3132.8199L13021.2006,-3132.7999L13021.2692,-3132.7665L13021.3104,-3132.6799L13021.3593,-3132.6399L13021.3104,-3132.6065L13021.1105,-3132.5865L13021.08,-3132.5333L13021.1502,-3132.4799L13021.2204,-3132.4265L13021.3593,-3132.4598L13021.4493,-3132.4999L13021.5393,-3132.4598L13021.5393,-3132.4064L13021.6095,-3132.3332L13021.6293,-3132.28L13021.5805,-3132.2266L13021.5393,-3132.1333L13021.5805,-3132.0665L13021.6293,-3132.0131L13021.7194,-3131.9733L13021.8094,-3131.9933L13021.8994,-3131.9733L13021.9299,-3131.9199L13021.8597,-3131.8665L13021.8307,-3131.8333L13021.8094,-3131.7398L13021.8994,-3131.6866L13021.9696,-3131.6866L13022.0596,-3131.6666L13022.11,-3131.5931L13022.0596,-3131.4865L13022.1298,-3131.4331L13022.2,-3131.4133L13022.2,-3131.3999L13022.1802,-3131.3465L13022.1802,-3131.2864L13022.2198,-3131.2344"/>
<path content="AP030,1,28,1,0,15,1,8,JPN" xlink:title="AP030" d="M13049.6811,-3133.3242L13048.5809,-3132.6839L13047.4686,-3131.7568L13047.3373,-3131.0545L13047.2153,-3130.5933L13046.5225,-3130.2052L13045.3583,-3129.3343"/>
<path content="AP030,1,28,1,0,15,1,8,JPN" xlink:title="AP030" d="M13041.8701,-3133.8768L13042.3248,-3133.3963L13042.7292,-3133.1779L13043.1335,-3132.8285L13043.5379,-3132.1295L13043.7912,-3131.8674L13043.8919,-3131.4741L13043.9941,-3131.0373L13044.3481,-3130.7316L13044.4489,-3130.382L13044.7021,-3130.0762L13044.9539,-3129.6829L13045.3583,-3129.3343"/>
<path content="AP030,1,28,1,0,14,1,8,JPN" xlink:title="AP030" d="M13054.3594,-3137.4132L13054.4296,-3137.1466L13054.5197,-3136.8933L13054.6295,-3136.5L13054.7699,-3136.1933L13055.0201,-3135.54L13055.0201,-3135.5267L13055.1498,-3135.2734L13055.2399,-3135.0733L13055.2704,-3134.9667L13055.2902,-3134.7866L13055.3604,-3134.6399L13055.4901,-3134.4067L13055.4901,-3134.3866L13055.5801,-3134.28L13055.6107,-3134.12L13055.6305,-3134.0666L13055.6503,-3133.9399L13055.7693,-3133.7933L13055.8304,-3133.6533L13055.8807,-3133.4L13055.9006,-3133.2199L13055.9494,-3132.9664L13056.0196,-3132.7465L13056.1295,-3132.5865L13056.1996,-3132.3866L13056.2698,-3132.1732L13056.3599,-3132.0131L13056.5201,-3131.72L13056.6299,-3131.5931L13056.7398,-3131.4331L13056.8802,-3131.2332L13056.9901,-3131.0932L13057.3303,-3130.8199L13057.4905,-3130.7133L13057.6797,-3130.5864L13057.93,-3130.46L13058.2199,-3130.32L13058.3298,-3130.2799L13058.6105,-3130.1731L13058.7692,-3130.0465L13058.8593,-3129.9732L13058.9493,-3129.8466L13059.0195,-3129.6865L13059.0805,-3129.5265L13059.1797,-3129.4533L13059.2194,-3129.3999L13059.2697,-3129.2532L13059.3597,-3129.18L13059.5596,-3129.1466L13059.7198,-3129.0932"/>
<path content="AP030,1,28,1,0,15,1,8,JPN" xlink:title="AP030" d="M13045.3583,-3129.3343L13045.3598,-3129.3335L13046.0678,-3129.0277"/>
<path content="AP030,1,28,1,0,15,1,8,JPN" xlink:title="AP030" d="M13039.592,-3131.9525L13039.328,-3130.8357L13039.5599,-3129.2139L13039.7919,-3128.8965"/>
<path content="AP030,1,28,1,0,15,1,8,JPN" xlink:title="AP030" d="M13045.3583,-3129.3343L13045.3568,-3129.3333L13044.9524,-3129.6829L13043.1183,-3128.7201L13041.3116,-3128.2162"/>
<path content="AP030,1,28,1,0,15,1,8,JPN" xlink:title="AP030" d="M13039.7919,-3128.8965L13040.9286,-3128.8229L13041.3116,-3128.2162"/>
<path content="AP030,1,28,1,0,14,1,8,JPN" xlink:title="AP030" d="M13035.6094,-3137.22L13035.6079,-3137.219L13035.4706,-3137.1265L13035.4294,-3137.0399L13035.3607,-3136.8732L13035.3104,-3136.7466L13035.2707,-3136.66L13035.2707,-3136.5866L13035.2203,-3136.5334L13035.1807,-3136.4799L13035.1303,-3136.4265L13035.1105,-3136.3733L13035.08,-3136.3533L13035.0601,-3136.3001L13035.0601,-3136.2267L13035.0204,-3136.1334L13034.9701,-3136.08L13034.9304,-3136.0266L13034.9304,-3135.9734L13034.9304,-3135.8334L13034.9503,-3135.6867L13034.9304,-3135.5267L13034.9304,-3135.4334L13034.8801,-3135.3466L13034.8602,-3135.2734L13034.8297,-3135.22L13034.8099,-3135.1465L13034.7198,-3135.1267L13034.5398,-3135.0933L13034.4299,-3135.0733L13034.3597,-3135.0401L13034.3094,-3135L13034.2697,-3134.9466L13034.2194,-3134.8932L13034.1293,-3134.84L13034.0195,-3134.6933L13033.9706,-3134.6199L13033.9493,-3134.5667L13033.9294,-3134.4601L13033.9493,-3134.4067L13033.9294,-3134.3201L13033.8806,-3134.26L13033.8104,-3134.1333L13033.7692,-3134.0466L13033.7402,-3133.9733L13033.7692,-3133.9399L13033.7692,-3133.8865L13033.7204,-3133.8333L13033.6807,-3133.7933L13033.6502,-3133.74L13033.6105,-3133.7067L13033.6105,-3133.6866L13033.58,-3133.6533L13033.5403,-3133.3799L13033.58,-3133.1465L13033.58,-3132.9466L13033.5403,-3132.84L13033.4305,-3132.7332L13033.3603,-3132.6399L13033.2901,-3132.4799L13033.2001,-3132.3732L13033.2199,-3132.1932L13033.2703,-3132.0131L13033.2397,-3131.9199L13033.2001,-3131.8333L13033.0597,-3131.7732L13032.8995,-3131.7398L13032.7194,-3131.7064L13032.6096,-3131.7064L13032.4493,-3131.6132L13032.3303,-3131.5599L13032.1503,-3131.5266L13032.0206,-3131.4331L13031.9504,-3131.1998L13031.9305,-3131.0732L13031.8802,-3130.9465L13031.8604,-3130.8931L13031.81,-3130.6932L13031.7398,-3130.6599L13031.6299,-3130.6599L13031.4896,-3130.6599L13031.3797,-3130.6599L13031.3599,-3130.6599L13031.3095,-3130.6065L13031.2698,-3130.5664L13031.1996,-3130.4998L13031.1798,-3130.4264L13031.1295,-3130.3732L13031.1798,-3130.2465L13031.1493,-3130.1731L13031.0806,-3130.0798L13030.9296,-3130.0133L13030.8594,-3129.9532L13030.7205,-3129.8332L13030.6107,-3129.7199L13030.5405,-3129.6331L13030.4306,-3129.5065L13030.2704,-3129.3999L13030.0797,-3129.3064L13029.9301,-3129.2332L13029.5807,-3129.1664L13029.3106,-3129.1265L13029.2007,-3129.0731L13029.1107,-3128.9865L13029.1504,-3128.8933L13029.2206,-3128.7998L13029.2206,-3128.5866L13029.2206,-3128.5L13029.1794,-3128.3731L13029.1504,-3128.2598L13029.1306,-3128.2064L13029.1107,-3128.1733L13029.1107,-3128.1199L13029.1107,-3127.9932"/>
<path content="AP030,1,28,1,0,14,1,8,JPN" xlink:title="AP030" d="M13031.9305,-3141.3799L13031.9,-3141.3465L13031.8604,-3141.3067L13031.7703,-3141.2867L13031.6803,-3141.2733L13031.6299,-3141.2533L13031.6101,-3141.2001L13031.5399,-3141.0732L13031.4499,-3140.9666L13031.3599,-3140.9134L13031.3095,-3140.86L13031.2698,-3140.7665L13031.1295,-3140.5132L13031.0593,-3140.3534L13031.0394,-3140.32L13031.0196,-3140.28L13031.0196,-3140.2266L13031.0394,-3140.1934L13031.1996,-3139.9933L13031.2698,-3139.8666L13031.3095,-3139.6666L13031.3599,-3139.3267L13031.3797,-3139.18L13031.3599,-3139.1266L13031.2698,-3138.9866L13031.2698,-3138.9133L13031.2393,-3138.7667L13031.2698,-3138.62L13031.2698,-3138.5532L13031.2698,-3138.4399L13031.2698,-3138.3865L13031.2393,-3138.32L13031.1996,-3138.2465L13031.1493,-3138.2067L13031.1096,-3138.1332L13031.0593,-3138.1001L13031.0196,-3138.08L13030.8594,-3138.0667L13030.7404,-3138.0466L13030.6793,-3138.0266L13030.5603,-3137.9732L13030.4306,-3137.9534L13030.2704,-3137.8332L13030.13,-3137.7066L13030.0201,-3137.6534L13029.8996,-3137.6133L13029.8096,-3137.6333L13029.6997,-3137.6865L13029.6295,-3137.6865L13029.4693,-3137.6333L13029.3594,-3137.5799L13029.2892,-3137.5401L13029.2694,-3137.5067L13029.1504,-3137.4001L13029.0405,-3137.22L13028.9703,-3137.1466L13028.9307,-3137.0733L13028.9001,-3137.0199L13028.8101,-3136.9665L13028.7003,-3136.9267L13028.6102,-3136.8732L13028.4897,-3136.8L13028.4698,-3136.7466L13028.4698,-3136.64L13028.5202,-3136.5133L13028.54,-3136.3733L13028.54,-3136.1532L13028.5599,-3136.0132L13028.5599,-3135.9533L13028.5599,-3135.92L13028.5599,-3135.8334L13028.5202,-3135.7401L13028.4698,-3135.6333L13028.4698,-3135.56L13028.45,-3135.5066L13028.4302,-3135.4532L13028.3798,-3135.4L13028.27,-3135.3266L13028.1998,-3135.2533L13028.1296,-3135.1465L13028.0396,-3134.9466L13027.9694,-3134.86L13027.9297,-3134.7866L13027.8305,-3134.7334L13027.7405,-3134.68L13027.6093,-3134.66L13027.4704,-3134.66L13027.4002,-3134.66L13027.3605,-3134.6399L13027.33,-3134.6199L13027.2202,-3134.5333L13027.1805,-3134.4999L13027.1103,-3134.3866L13027.0203,-3134.2266L13026.8799,-3134.0466L13026.8295,-3133.9199L13026.8097,-3133.8333L13026.7899,-3133.7933L13026.8097,-3133.74L13026.8097,-3133.6866L13026.8799,-3133.6533L13026.9302,-3133.5932L13026.9897,-3133.5066L13027.0599,-3133.4332L13027.1301,-3133.3799L13027.15,-3133.2731L13027.1301,-3133.2199L13027.1301,-3133.0732L13027.1301,-3132.9865L13027.15,-3132.86L13027.1805,-3132.7866L13027.2705,-3132.6933L13027.33,-3132.6065L13027.3605,-3132.5132L13027.2903,-3132.4064L13027.2202,-3132.28L13027.1103,-3132.1531L13027.0798,-3131.9733L13027.0599,-3131.7732L13027.1301,-3131.6132L13027.24,-3131.5065L13027.3605,-3131.4331L13027.5192,-3131.4331L13027.6993,-3131.4665L13027.8595,-3131.4665L13027.9297,-3131.4331L13027.9907,-3131.3465L13028.0807,-3131.2864L13028.1494,-3131.2532L13028.2196,-3131.1665L13028.27,-3131.1066L13028.2394,-3130.9132L13028.2394,-3130.7999L13028.1799,-3130.6799L13028.0807,-3130.5532L13028.0594,-3130.46L13028.0396,-3130.2465L13028.0807,-3130.0798L13028.1799,-3129.9198L13028.2196,-3129.8132L13028.2196,-3129.74L13028.1998,-3129.6331L13028.1296,-3129.5065L13028.1097,-3129.4132L13028.1097,-3129.3064L13028.1799,-3129.2L13028.27,-3129.0731L13028.4302,-3128.9131L13028.6301,-3128.7132L13028.7704,-3128.5532L13028.83,-3128.4065L13028.8605,-3128.2265L13028.9307,-3128.1332L13029.0207,-3128.0464L13029.1107,-3127.9932"/>
<path content="AP030,1,28,1,0,14,1,8,JPN" xlink:title="AP030" d="M13029.1107,-3127.9932L13029.1306,-3127.94L13029.1794,-3127.7733L13029.1794,-3127.6333L13029.1794,-3127.4864L13029.2404,-3127.3464L13029.3304,-3127.1666L13029.4296,-3126.9464"/>
<path content="AP030,1,28,1,0,15,1,8,JPN" xlink:title="AP030" d="M13039.592,-3131.9525L13038.4811,-3131.3417L13036.9125,-3130.6862L13035.5988,-3129.9868L13032.9681,-3128.6316L13030.6534,-3126.8684L13030.5206,-3126.7666"/>
<path content="AP030,1,28,1,0,14,1,8,JPN" xlink:title="AP030" d="M13029.4296,-3126.9464L13029.6494,-3126.9133L13029.7699,-3126.8599L13030.1102,-3126.82L13030.3604,-3126.7864L13030.4703,-3126.7666L13030.5206,-3126.7666"/>
<path content="AP030,1,28,1,0,15,1,8,JPN" xlink:title="AP030" d="M13059.7198,-3129.0932L13059.5932,-3128.9286L13059.0652,-3128.2444L13058.4579,-3127.7636L13057.5989,-3127.1517L13056.6879,-3126.8021L13055.6763,-3126.321"/>
<path content="AP030,1,28,1,0,15,1,8,JPN" xlink:title="AP030" d="M13049.6811,-3133.3242L13050.1495,-3133.1444L13051.0422,-3132.8707L13051.8814,-3132.7429L13052.2369,-3131.8256L13052.4902,-3131.3013L13052.7939,-3130.9519L13053.299,-3130.5588L13053.653,-3130.1657L13053.8559,-3129.6413L13053.6825,-3128.8393L13053.8007,-3128.362L13054.0136,-3127.844L13054.2619,-3127.2448L13054.6167,-3126.869L13054.9951,-3126.7675L13055.3223,-3126.7578L13055.6763,-3126.321"/>
<path content="AP030,1,28,1,0,14,1,8,JPN" xlink:title="AP030" d="M13022.2198,-3131.2344L13022.2198,-3131.2332L13022.3602,-3131.3065L13022.4899,-3131.3265L13022.58,-3131.3265L13022.6501,-3131.2864L13022.7005,-3131.2332L13022.7005,-3131.1998L13022.6303,-3131.1464L13022.5403,-3131.1464L13022.4701,-3131.1066L13022.4503,-3131.0532L13022.5204,-3130.9864L13022.5601,-3130.9132L13022.6105,-3130.8199L13022.6303,-3130.7665L13022.6501,-3130.6799L13022.6501,-3130.6398L13022.6303,-3130.6065L13022.6501,-3130.4798L13022.6105,-3130.3732L13022.5403,-3130.2799L13022.4503,-3130.2265L13022.3602,-3130.1533L13022.3297,-3130.0665L13022.29,-3129.9398L13022.2397,-3129.8332L13022.2198,-3129.7932L13022.2198,-3129.76L13022.2702,-3129.6865L13022.2702,-3129.6331L13022.2,-3129.6131L13022.0795,-3129.6331L13022.02,-3129.6331L13021.9894,-3129.5065L13021.9696,-3129.3999L13021.8994,-3129.3598L13021.8597,-3129.3264L13021.8307,-3129.2532L13021.8094,-3129.1466L13021.7896,-3129.0731L13021.7697,-3129.0199L13021.7697,-3128.9131L13021.8307,-3128.8198L13021.9299,-3128.7464L13021.9894,-3128.7132L13021.9696,-3128.64L13021.8597,-3128.64L13021.7697,-3128.64L13021.6995,-3128.5866L13021.7194,-3128.5332L13021.7407,-3128.48L13021.6995,-3128.4266L13021.6995,-3128.3731L13021.8094,-3128.3731L13021.8994,-3128.3731L13022.02,-3128.3731L13022.11,-3128.4266L13022.1802,-3128.5L13022.2198,-3128.5L13022.29,-3128.4599L13022.3297,-3128.4065L13022.4304,-3128.3865L13022.5403,-3128.4266L13022.6105,-3128.4065L13022.6501,-3128.3531L13022.6501,-3128.3333L13022.7402,-3128.2999L13022.8104,-3128.3333L13023.0606,-3128.2064L13023.0194,-3128.0664L13022.9904,-3127.9732L13022.9507,-3127.8866L13022.9507,-3127.7599L13022.8104,-3127.6531L13022.6807,-3127.6133L13022.6105,-3127.5932L13022.5204,-3127.5064L13022.4701,-3127.3998L13022.4899,-3127.2865L13022.6105,-3127.2532L13022.6807,-3127.2331L13022.7905,-3127.1265L13022.9004,-3127.0733L13022.9294,-3126.9999L13022.9507,-3126.9464L13022.9706,-3126.8599L13022.9706,-3126.7466L13023.1293,-3126.5865L13023.2697,-3126.5532L13023.3093,-3126.4999L13023.2895,-3126.3865L13023.2895,-3126.3332L13023.2895,-3126.2598L13023.2895,-3126.2264L13023.2895,-3126.1732L13023.2895,-3126.1L13023.3307,-3126.0466L13023.3994,-3126.0466L13023.4695,-3126.1532L13023.7198,-3126.3199L13023.8098,-3126.4065L13023.9304,-3126.4265L13024.0402,-3126.4065L13024.0799,-3126.3533L13024.2004,-3126.3865L13024.2706,-3126.4599L13024.4003,-3126.4065L13024.4705,-3126.3865L13024.5407,-3126.5665L13024.5193,-3126.7332L13024.6506,-3126.7466L13024.8596,-3126.6199L13024.9298,-3126.6199L13025.0793,-3126.6399L13025.2396,-3126.5865L13025.4501,-3126.5331L13025.6302,-3126.5133L13025.8804,-3126.5331L13026.2405,-3126.5331L13026.6296,-3126.5665L13026.9501,-3126.6399L13027.33,-3126.8398L13027.4902,-3126.9264L13027.6505,-3126.9665L13027.7695,-3126.9865L13028.1097,-3127.0533L13028.1296,-3127.0733L13028.2898,-3127.1265L13028.4302,-3127.1666L13028.6804,-3127.1265L13028.8803,-3127.1065L13028.9307,-3127.0931L13029.1107,-3127.0199L13029.4296,-3126.9464"/>
<path content="AP030,1,28,1,0,15,1,8,JPN" xlink:title="AP030" d="M13039.7919,-3128.8965L13039.6545,-3127.3491L13039.1968,-3125.9109L13039.1083,-3125.633"/>
<path content="AP030,1,28,1,0,15,1,8,JPN" xlink:title="AP030" d="M13046.0678,-3129.0277L13045.929,-3128.5526L13045.7474,-3128.0699L13045.7077,-3127.8284L13045.8679,-3127.5669L13045.7077,-3127.3659L13045.4865,-3127.0239L13045.4254,-3126.2796L13045.0089,-3125.7521L13044.9005,-3125.6132"/>
<path content="AP030,1,28,1,0,14,1,8,JPN" xlink:title="AP030" d="M13030.5206,-3126.7666L13030.8807,-3126.66L13031.5201,-3126.1L13031.6101,-3126.0466L13031.8451,-3126.1467L13031.8604,-3126.1532L13031.9901,-3126.2465L13032.2006,-3126.2598L13032.3807,-3126.2465L13032.5806,-3126.2598L13032.8094,-3126.2798L13033.6502,-3126.2999L13034.0393,-3126.1932L13034.7198,-3125.9932L13035.3806,-3125.8133L13035.5194,-3125.8331L13035.8307,-3125.9199L13036.1099,-3125.9199L13036.2061,-3125.8678L13036.2701,-3125.8331L13036.4899,-3125.7599L13036.6302,-3125.7599L13036.8607,-3125.7065L13037.3306,-3125.5598L13037.5397,-3125.5066L13037.7899,-3125.4866L13037.9501,-3125.4866L13038.3606,-3125.5264L13038.6093,-3125.5264L13038.8992,-3125.6132L13039.1083,-3125.633"/>
<path content="AP030,1,28,1,0,14,1,8,JPN" xlink:title="AP030" d="M13042.5186,-3125.2731L13042.6804,-3125.3466L13042.8604,-3125.4L13043.1107,-3125.4131L13043.2907,-3125.5264L13043.4494,-3125.5598L13043.5806,-3125.5264L13043.6996,-3125.5264L13043.8095,-3125.5264L13044.0598,-3125.6132L13044.2398,-3125.7198L13044.4305,-3125.8331L13044.5404,-3125.8133L13044.6503,-3125.7599L13044.7693,-3125.7065L13044.8593,-3125.6664L13044.9005,-3125.6132"/>
<path content="AP030,1,28,1,0,15,1,8,JPN" xlink:title="AP030" d="M13041.3116,-3128.2162L13041.5848,-3127.7834L13042.4561,-3125.4393L13042.5186,-3125.2731"/>
<path content="AP030,1,28,1,0,14,1,8,JPN" xlink:title="AP030" d="M13039.1083,-3125.633L13039.1098,-3125.6332L13039.27,-3125.6132L13039.4501,-3125.5598L13039.5798,-3125.4866L13039.6805,-3125.4332L13039.8605,-3125.4532L13040.1093,-3125.4665L13040.4007,-3125.5264L13040.5197,-3125.5598L13040.95,-3125.5598L13041.3101,-3125.5798L13041.4307,-3125.5066L13041.5604,-3125.3799L13041.7694,-3125.2865L13041.8793,-3125.2199L13042.2195,-3125.2199L13042.5186,-3125.2731"/>
<path content="AP030,1,28,1,0,15,1,8,JPN" xlink:title="AP030" d="M13046.0678,-3129.0277L13047.2809,-3128.8097L13047.7356,-3128.635L13048.1415,-3128.1546L13048.1415,-3127.7176L13048.0392,-3127.1057L13047.6349,-3126.5377L13047.4335,-3126.0571L13047.6303,-3124.84"/>
<path content="AP030,1,28,1,0,14,1,8,JPN" xlink:title="AP030" d="M13044.9005,-3125.6132L13045.1294,-3125.4532L13045.2393,-3125.4131L13045.43,-3125.3799L13045.6299,-3125.3599L13045.7703,-3125.3599L13045.9,-3125.3265L13046.1105,-3125.2199L13046.2402,-3125.1064L13046.4294,-3125.0532L13046.5195,-3125.0198L13046.7896,-3124.9266L13047.0795,-3124.8199L13047.2,-3124.7866L13047.3297,-3124.7866L13047.4472,-3124.7963L13047.4899,-3124.7999L13047.6303,-3124.84"/>
<path content="AP030,1,28,1,0,14,1,8,JPN" xlink:title="AP030" d="M13059.7198,-3129.0932L13060.0403,-3128.9665L13060.4706,-3128.9131L13060.6293,-3128.8599L13060.7193,-3128.7664L13060.733,-3128.6306L13060.7407,-3128.5666L13060.7193,-3128.4065L13060.8093,-3128.2598L13060.9497,-3128.1332L13061.0596,-3128.0464L13061.2,-3127.8999L13061.3602,-3127.7399L13061.47,-3127.5799L13061.5601,-3127.5064L13061.7905,-3127.3464L13061.9293,-3127.2732L13062.0605,-3127.1666L13062.1506,-3126.9999L13062.1994,-3126.8932L13062.2696,-3126.68L13062.3596,-3126.4265L13062.4695,-3126.0132L13062.5595,-3125.8133L13062.6495,-3125.4866L13062.7197,-3125.1999L13062.8601,-3125.1265L13063.0402,-3124.9464L13063.15,-3124.7465L13063.2004,-3124.4999L13063.2706,-3124.2599"/>
<path content="AP030,1,28,1,0,14,1,8,JPN" xlink:title="AP030" d="M13063.2706,-3124.2599L13063.4003,-3123.9199L13063.5193,-3123.7064L13063.5803,-3123.6332L13063.8596,-3123.3799L13064.1296,-3123.0932L13064.2899,-3122.9864L13064.3295,-3122.86L13064.36,-3122.6599L13064.3997,-3122.4998L13064.5401,-3122.3732"/>
<path content="AP030,1,28,1,0,15,1,8,JPN" xlink:title="AP030" d="M13055.6763,-3126.321L13055.4733,-3126.19L13055.2216,-3125.8841L13054.8676,-3125.4034L13054.3106,-3125.0099L13053.5522,-3124.7913L13053.1982,-3124.5728L13052.8442,-3124.2668L13052.8442,-3123.9174L13052.9449,-3123.7427L13053.1479,-3123.5243L13053.3493,-3123.3057L13053.299,-3123.0873L13053.1982,-3122.694L13053.1982,-3122.4318L13053.299,-3121.995L13053.5522,-3121.2523L13053.5202,-3120.5132"/>
<path content="AP030,1,28,1,0,14,1,8,JPN" xlink:title="AP030" d="M13053.5202,-3120.5132L13053.0396,-3120.5132L13052.8305,-3120.5132L13052.6993,-3120.48L13052.4506,-3120.3865L13052.2903,-3120.3199L13052.1622,-3120.1786L13052.0599,-3120.0665L13051.9302,-3120.0998L13051.8097,-3120.2065L13051.5594,-3120.4599L13051.2695,-3120.8399L13050.9003,-3121.2866L13050.7004,-3121.5799L13050.56,-3121.76L13050.3601,-3121.8466L13050.3098,-3121.9732L13050.2396,-3122.0798L13050.2762,-3122.1487L13050.2899,-3122.1731L13050.3601,-3122.32L13050.3098,-3122.4066L13050.2396,-3122.4798L13050.2396,-3122.5533L13050.2197,-3122.6599L13050.2197,-3122.7865L13050.2197,-3122.9465L13050.2899,-3122.9864L13050.3296,-3123.0932L13050.3799,-3123.2199L13050.3799,-3123.2533L13050.3799,-3123.3065L13050.3998,-3123.3465L13050.4303,-3123.3999L13050.3998,-3123.4331L13050.3998,-3123.4531L13050.3998,-3123.5065L13050.3098,-3123.5931L13050.1297,-3123.5931L13049.8993,-3123.6332L13049.7696,-3123.72L13049.6796,-3123.8132L13049.5804,-3123.9399L13049.4293,-3124.0665L13049.3607,-3124.1531L13049.1806,-3124.1531L13048.8602,-3124.2464L13048.6801,-3124.3532L13048.4695,-3124.4398L13048.2193,-3124.5865L13047.9904,-3124.7131L13047.7905,-3124.7999L13047.6303,-3124.84"/>
<path content="AP030,1,28,1,0,14,1,8,JPN" xlink:title="AP030" d="M13064.5401,-3122.3732L13064.2899,-3122.3L13063.8596,-3122.0665L13063.5803,-3122.0133L13063.2004,-3121.9398L13062.5198,-3121.8332L13062.4496,-3121.8132L13062.2894,-3121.76L13061.8607,-3121.4132L13061.7706,-3121.3064L13061.7203,-3121.04L13061.6104,-3120.8933L13061.3098,-3120.6932L13061.2396,-3120.6598L13060.9695,-3120.5132L13060.6094,-3120.2799L13060.5194,-3120.1733L13060.4904,-3120.0665L13060.4706,-3119.9932L13060.3607,-3119.9398"/>
<path content="AP030,1,28,1,0,15,1,8,JPN" xlink:title="AP030" d="M13063.2706,-3124.2599L13063.0096,-3124.1817L13062.4527,-3123.7885L13061.644,-3123.1766L13060.9863,-3122.4773L13060.582,-3121.6034L13060.3287,-3120.6421L13060.3607,-3119.9398"/>
<path content="AP030,1,28,1,0,14,1,8,JPN" xlink:title="AP030" d="M13064.5401,-3122.3732L13064.5798,-3121.9L13064.5172,-3121.8332L13064.4302,-3121.74L13064.2899,-3121.6866L13063.9496,-3121.6866L13063.7894,-3121.6331L13063.4293,-3121.4664L13063.15,-3121.3465L13062.9501,-3121.1664L13062.7701,-3121.0199L13062.6495,-3120.8399L13062.6099,-3120.62L13062.6297,-3120.5L13062.6099,-3120.3732L13062.6297,-3120.2265L13062.6999,-3120.1199L13062.7701,-3120.0665L13062.8098,-3120.0132L13062.8998,-3119.9732L13062.97,-3119.9398L13063.1104,-3119.9398L13063.2706,-3119.92L13063.3804,-3119.9398L13063.4003,-3119.9732L13063.4293,-3120.0464L13063.4293,-3120.0665L13063.4293,-3120.1532L13063.4293,-3120.2265L13063.4293,-3120.3333L13063.4903,-3120.4266L13063.6093,-3120.5332L13063.6795,-3120.6598"/>
<path content="AP030,1,28,1,0,14,1,8,JPN" xlink:title="AP030" d="M13053.5202,-3120.5132L13053.7903,-3120.5332L13054.1107,-3120.5L13054.3594,-3120.48L13054.6295,-3120.4399L13054.8294,-3120.3865L13055.13,-3120.2999L13055.3299,-3120.1933L13055.4901,-3120.0665L13055.9296,-3119.92L13056.3095,-3119.7599L13056.72,-3119.5932L13057.0801,-3119.4532L13057.3303,-3119.3464L13057.4295,-3119.3066L13057.7698,-3119.1666L13057.8598,-3119.1265L13057.9895,-3119.0931L13058.1299,-3119.0931L13058.2703,-3119.1465L13058.4305,-3119.1799L13058.7692,-3119.2865L13058.8593,-3119.3066L13059.1095,-3119.3998L13059.3597,-3119.6531L13059.4299,-3119.6665L13059.52,-3119.6865L13059.61,-3119.6865L13059.7,-3119.6531L13059.79,-3119.6333L13059.8297,-3119.6531L13059.8801,-3119.6865L13059.9304,-3119.7399L13059.9701,-3119.7733L13060.0601,-3119.8132L13060.2203,-3119.8866L13060.3607,-3119.9398"/>
<path content="AP030,1,28,1,0,15,1,8,JPN" xlink:title="AP030" d="M13078.125,-3113.5629L13077.4002,-3112.6804L13076.3397,-3110.8521"/>
<path content="AP030,1,28,1,0,14,1,8,JPN" xlink:title="AP030" d="M13068.9499,-3109.4666L13068.9499,-3109.38"/>
<path content="AP030,1,28,1,0,14,1,8,JPN" xlink:title="AP030" d="M13068.9499,-3109.38L13069.0598,-3109.38L13069.1803,-3109.38L13069.2398,-3109.4L13069.2703,-3109.4L13069.31,-3109.4332L13069.31,-3109.4866L13069.31,-3109.5598L13069.3298,-3109.6132L13069.4,-3109.6666L13069.4901,-3109.6867L13069.6503,-3109.7198L13069.8105,-3109.7599L13069.9295,-3109.8331L13070.0806,-3109.9932L13070.2393,-3110.1332L13070.3094,-3110.2798L13070.43,-3110.3731L13070.5399,-3110.4599L13070.7001,-3110.5865L13070.7901,-3110.7466L13070.9503,-3110.8932L13071.08,-3110.9865L13071.2402,-3111.1067L13071.4005,-3111.1666L13071.4706,-3111.2L13071.6095,-3111.2331L13071.7194,-3111.2732L13071.9498,-3111.3066L13072.29,-3111.2865L13072.58,-3111.3466L13072.8104,-3111.4332L13073.0392,-3111.5067L13073.1506,-3111.6133L13073.3795,-3111.8132L13073.5199,-3111.9398L13073.6298,-3112.0998L13073.6801,-3112.2267L13073.79,-3112.4266L13073.8602,-3112.5666L13073.9304,-3112.6398L13074.0402,-3112.7132L13074.1806,-3112.8733L13074.2004,-3112.9465L13074.4293,-3113.0732L13074.5193,-3113.2332L13074.5407,-3113.3266L13074.6094,-3113.3799L13074.7192,-3113.4867L13074.8795,-3113.6131L13074.9893,-3113.8332L13075.0595,-3114.0133L13075.0793,-3114.1333L13075.1099,-3114.2466L13075.1495,-3114.4266L13075.2197,-3114.4999L13075.2899,-3114.6399L13075.3601,-3114.7865L13075.3998,-3114.8932L13075.4303,-3115.0932L13075.4898,-3115.2733L13075.65,-3115.5266L13075.7004,-3115.6666L13075.7004,-3115.7598L13075.7401,-3115.9533L13075.8301,-3116.0666L13075.9293,-3116.2466L13075.9506,-3116.4066L13075.9506,-3116.5667L13075.9506,-3116.7332L13076.0193,-3116.84L13076.1093,-3116.9466L13076.1993,-3117.0399L13076.2207,-3117.1665L13076.2405,-3117.2731L13076.3306,-3117.4131L13076.4694,-3117.5264L13076.5396,-3117.6132L13076.6098,-3117.7065L13076.68,-3117.8665L13076.7395,-3118.0466L13076.7395,-3118.0799L13076.6998,-3118.1332L13076.68,-3118.2465L13076.68,-3118.3865L13076.6998,-3118.4999L13076.68,-3118.5865L13076.6098,-3118.66L13076.5594,-3118.7666L13076.5198,-3118.8599L13076.5198,-3119.1065L13076.5198,-3119.1465L13076.5594,-3119.1999L13076.7395,-3119.2532L13076.8295,-3119.3066L13077.1103,-3119.8132L13077.1301,-3119.8999L13077.2003,-3120.0132L13077.2705,-3120.0665L13077.4002,-3120.1733L13077.4902,-3120.2465L13077.5192,-3120.3865L13077.5406,-3120.6064L13077.5604,-3120.6598L13077.5803,-3120.7132L13077.6306,-3120.8599L13077.6306,-3120.9665L13077.7405,-3121.2L13077.5803,-3121.2532L13077.4307,-3121.3064L13077.2705,-3121.3264L13077.0203,-3121.4333L13076.8295,-3121.5799L13076.5793,-3121.74L13076.5594,-3121.74L13076.5396,-3121.74L13076.5198,-3121.7932L13076.5396,-3121.8332L13076.5594,-3121.8664L13076.5793,-3121.9L13076.6098,-3121.9398L13076.6296,-3122.0133L13076.68,-3122.0665L13076.7395,-3122.1533L13076.7395,-3122.2065L13076.7395,-3122.2799L13076.77,-3122.3732L13076.7899,-3122.4264L13076.86,-3122.5132L13076.9302,-3122.5864L13076.9302,-3122.7331L13076.9501,-3122.9666L13077.1805,-3123.1464L13077.6993,-3123.5065L13077.9297,-3123.6532L13078.125,-3123.7704"/>
<path content="AP030,1,28,1,0,15,1,8,JPN" xlink:title="AP030" d="M13076.3397,-3110.8521L13077.1271,-3110.968L13078.0304,-3111.3724L13078.125,-3111.3431"/>
<path content="AP030,1,28,1,0,15,1,8,JPN" xlink:title="AP030" d="M13070.9747,-3108.511L13071.2494,-3108.5632L13071.2326,-3109.6788L13071.904,-3110.2762L13073.111,-3110.796L13074.0234,-3110.4771L13074.707,-3110.9547L13076.0712,-3110.5124L13076.3382,-3110.8519L13076.3397,-3110.8521"/>
<path content="AP030,1,28,1,0,15,1,8,JPN" xlink:title="AP030" d="M13068.9499,-3109.38L13070.9747,-3108.511"/>
<path content="AP030,1,28,1,0,15,1,8,JPN" xlink:title="AP030" d="M13071.5729,-3107.9744L13071.9864,-3108.0589L13073.4573,-3108.465L13074.4568,-3108.922L13074.9283,-3109.1759L13075.3403,-3109.5821L13076.3397,-3110.8519L13076.3397,-3110.8521"/>
<path content="AP030,1,28,1,0,15,1,8,JPN" xlink:title="AP030" d="M13071.5729,-3107.9744L13070.9747,-3108.511"/>
<path content="AP030,1,28,1,0,15,1,8,JPN" xlink:title="AP030" d="M13069.9265,-3107.4499L13070.1614,-3107.653L13070.7504,-3107.8053L13071.5729,-3107.9744"/>
<path content="AP030,1,28,1,0,15,1,8,JPN" xlink:title="AP030" d="M13068.9499,-3109.38L13069.0475,-3109.0958L13069.1177,-3108.7263L13069.397,-3108.2121L13069.574,-3107.8564L13069.9265,-3107.4499"/>
<path content="AP030,1,28,1,0,15,1,8,JPN" xlink:title="AP030" d="M13069.9265,-3107.4499L13069.574,-3107.1451L13069.1025,-3106.9422L13068.573,-3106.6881L13068.396,-3106.3835L13068.2785,-3105.6215L13068.2785,-3105.2658L13068.161,-3104.9105L13068.042,-3103.8944L13068.0206,-3103.2532L13068.3807,-3102.7132"/>
<path content="AP030,1,28,1,0,15,1,8,JPN" xlink:title="AP030" d="M13071.5729,-3107.9744L13071.9681,-3107.5981L13072.4258,-3107.0541L13073.0911,-3106.4161L13073.1827,-3105.9095L13073.0911,-3105.4216L13072.4487,-3104.69L13071.5805,-3104.5532L13071.0968,-3103.8832L13070.3796,-3103.7399L13070.3094,-3103.1666L13069.6106,-3102.8599L13069.2398,-3102.5131L13068.3807,-3102.7132"/>
<path content="AP030,1,28,1,0,16,1,8,JPN" xlink:title="AP030" d="M13065.8295,-3099.8466L13065.95,-3099.8865L13066.04,-3099.9199L13066.2399,-3099.9399L13066.4505,-3099.9931L13066.4902,-3100.1932L13066.4703,-3100.2998L13066.4001,-3100.4066L13066.4902,-3100.4799L13066.5405,-3100.5133L13066.5207,-3100.7465L13066.5802,-3101.0733L13066.5802,-3101.1267L13066.6306,-3101.1066L13066.6794,-3101.0933L13066.7007,-3101.0733L13066.7404,-3101.0199L13066.7694,-3100.9998L13066.7694,-3100.9666L13066.8594,-3100.9266L13067.0807,-3100.9466L13067.3294,-3101.1267L13067.3996,-3101.1066L13067.45,-3101.0399L13067.4698,-3101.0199L13067.5201,-3101.0399L13067.6804,-3101.2865L13067.7704,-3101.4332L13067.6804,-3101.4532L13067.63,-3101.4332L13067.5201,-3101.4532L13067.5201,-3101.5799L13067.4896,-3101.7733L13067.4896,-3101.8465L13067.5598,-3101.9531L13067.63,-3102.0466L13067.63,-3102.08L13067.7399,-3102.1732L13067.8299,-3102.2266L13067.9504,-3102.2266L13068.0206,-3102.2598L13068.1107,-3102.3199L13068.1107,-3102.3731L13068.0405,-3102.4067L13067.9504,-3102.5L13067.9306,-3102.6066L13067.8299,-3102.6798L13067.6804,-3102.6932L13067.6102,-3102.7332L13067.63,-3102.8L13067.6804,-3102.8399L13067.8604,-3102.8399L13067.9504,-3102.8198L13068.0801,-3102.7332L13068.1503,-3102.66L13068.2205,-3102.6066L13068.2907,-3102.6066L13068.3807,-3102.7132"/>
<path content="AP030,1,28,1,0,16,1,8,JPN" xlink:title="AP030" d="M13049.2401,-3159.5934L13049.2416,-3159.5938"/>
</g>
</svg>
