<?xml version="1.0" encoding="UTF-8"?>
<svg  xmlns="http://www.w3.org/2000/svg" xmlns:xlink="http://www.w3.org/1999/xlink" xmlns:go="http://purl.org/svgmap/profile" property="f_code,acc,exs,rst,med,rtt,RSU,loc,soc" viewBox="13921.875 -3867.1875 70.3125 70.3125" go:dataArea="13921.875 -3867.1875 70.3125 70.3125" >
<metadata>
 <rdf:RDF xmlns:rdf="http://www.w3.org/1999/02/22-rdf-syntax-ns#" xmlns:crs="http://opengis.org/xmldtds/transformations.dtd" xmlns:svg="http://www.w3.org/svg" >
  <rdf:Description>
   <crs:CoordinateReferenceSystem rdf:resource="http://purl.org/crs/84" svg:transform="matrix(100.0,0.0,0.0,-100.0,0.0,0.0)" />
  </rdf:Description>
 </rdf:RDF>
</metadata>
<globalCoordinateSystem srsName="http://purl.org/crs/84" transform="matrix(100.0,0.0,0.0,-100.0,0.0,0.0)" />
<defs>
 <g id="p0" >
  <circle cx="0.0" cy="0.0" r="3" stroke="green" stroke-width="2.0" vector-effect="non-scaling-stroke" />
 </g>
</defs>
<g fill="none" fill-rule="evenodd" stroke="#00ff00" stroke-width="2" opacity="0.5" vector-effect="non-scaling-stroke" stroke-linejoin="bevel" >
<path content="AP030,1,28,1,0,15,1,8,JPN" xlink:title="AP030" d="M13989.49,-3866.5452L13990.2985,-3866.9689L13990.54,-3867.1875"/>
<path content="AP030,1,28,1,0,15,1,8,JPN" xlink:title="AP030" d="M13986.2473,-3863.5967L13987.5565,-3864.6606L13988.4171,-3865.9828L13989.49,-3866.5452"/>
<path content="AP030,1,28,1,0,15,1,8,JPN" xlink:title="AP030" d="M13986.6573,-3867.1875L13986.6241,-3867.0311L13987.381,-3865.8787L13986.2473,-3863.5967"/>
<path content="AP030,1,28,1,0,14,1,8,JPN" xlink:title="AP030" d="M13973.0194,-3863.4666L13973.0606,-3863.5265L13973.1293,-3863.5597L13973.4497,-3863.7066L13973.4695,-3863.7733L13973.4695,-3863.8332L13973.4299,-3863.9198L13973.3795,-3863.9534L13973.3994,-3864.0266L13973.4299,-3864.0465L13973.5199,-3864.0465L13973.5794,-3864.08L13973.6099,-3864.2799L13973.7198,-3864.32L13973.7198,-3864.4066L13973.6099,-3864.3734L13973.4695,-3864.3734L13973.4894,-3864.4066L13973.7,-3864.5332L13973.9899,-3864.5134L13974.1302,-3864.5866L13974.1501,-3864.7331L13974.1501,-3865.02L13974.0402,-3865.2866L13973.9502,-3865.5399L13973.9502,-3865.76L13974.2401,-3866.32L13974.2706,-3866.3532L13974.3103,-3866.6199L13974.3301,-3866.7667L13974.4904,-3866.9865L13974.5193,-3867.0734L13974.5743,-3867.1875"/>
<path content="AP030,1,28,1,0,14,1,8,JPN" xlink:title="AP030" d="M13971.8597,-3862.6801L13971.9894,-3862.7666L13972.2198,-3863.0199L13972.5601,-3863.2534L13973.0194,-3863.4666"/>
<path content="AP030,1,28,1,0,15,1,8,JPN" xlink:title="AP030" d="M13962.1598,-3867.1875L13962.3581,-3866.7984L13963.5162,-3866.6237L13964.9231,-3865.8859L13965.7242,-3865.5762L13965.9836,-3865.4282L13965.625,-3864.883L13965.7104,-3864.6072L13968.3441,-3863.5803L13969.5663,-3863.4052L13970.2972,-3863.8359L13970.636,-3863.6887L13970.6421,-3863.3495L13971.2204,-3863.2805L13971.8597,-3862.6801"/>
<path content="AP030,1,28,1,0,14,1,8,JPN" xlink:title="AP030" d="M13984.1873,-3862.5904L13984.3307,-3862.9665L13984.4498,-3863.0531L13984.4894,-3863.1466L13984.5795,-3863.5799L13984.6298,-3863.8332L13984.6802,-3863.94L13984.8297,-3864.1533L13984.8297,-3864.5332L13984.7198,-3864.8197L13984.5596,-3865.1466L13984.5596,-3865.3065L13984.5795,-3865.3797L13984.6497,-3865.5933L13984.6802,-3865.72L13984.7198,-3866.0133L13984.4498,-3866.4265L13984.1507,-3866.9865L13984.016,-3867.1875"/>
<path content="AP030,1,28,1,0,16,1,8,JPN" xlink:title="AP030" d="M13982.9094,-3867.1875L13982.9895,-3866.9865L13983.2199,-3866.4997L13983.4503,-3865.9534L13983.49,-3865.7398L13983.5403,-3865.5067L13983.4702,-3865.2733L13983.3099,-3865.0398L13983.2397,-3864.7667L13983.2199,-3864.5134L13983.2199,-3864.1933L13983.3298,-3863.8134L13983.6304,-3863.2534L13984.1293,-3862.6934L13984.1873,-3862.5904"/>
<path content="AP030,1,28,1,0,14,1,8,JPN" xlink:title="AP030" d="M13958.6304,-3862.1532L13958.6807,-3862.2066L13958.8104,-3862.4599L13958.9706,-3862.8399L13958.9706,-3863.1466L13959.0805,-3863.2198L13959.1797,-3863.2866L13959.2407,-3863.3266L13959.3597,-3863.5933L13959.4696,-3863.7932L13959.6497,-3863.94L13959.7198,-3863.9935L13959.7198,-3864.08L13959.7198,-3864.1731L13959.7397,-3864.5866L13959.7397,-3864.6198L13960.1807,-3865.1665L13960.2203,-3865.2733L13960.3806,-3865.5598L13960.6293,-3865.8134L13960.6506,-3865.8665L13960.6995,-3865.9931L13960.7193,-3866.0267L13961.0794,-3866.2998L13961.1816,-3866.3284L13961.2,-3866.3334L13961.3297,-3866.3532L13961.3998,-3866.3864L13961.4502,-3866.46L13961.4502,-3866.4997L13961.3739,-3866.5726L13961.3602,-3866.5867L13961.29,-3866.7133L13961.2701,-3866.7866L13961.29,-3866.8198L13961.3297,-3866.8732L13961.4899,-3866.9865L13961.6501,-3867.1799L13961.6565,-3867.1875"/>
<path content="AP030,1,28,1,0,14,1,8,JPN" xlink:title="AP030" d="M13971.7407,-3861.7599L13971.8094,-3861.8866L13971.8994,-3862.0464L13971.9299,-3862.1735L13971.9696,-3862.2997L13972.0398,-3862.3867L13972.0596,-3862.5332L13972.1497,-3862.6064L13972.2198,-3862.6801L13972.3602,-3862.7464L13972.4503,-3862.8399L13972.4899,-3862.9265L13972.6105,-3862.9997L13972.6807,-3863.0199L13972.7005,-3863.1466L13972.7203,-3863.1798L13972.8607,-3863.2L13972.8806,-3863.2332L13972.9294,-3863.2732L13972.9904,-3863.2732L13973.0804,-3863.2866L13973.0804,-3863.3266L13973.0606,-3863.3465L13973.0392,-3863.3598L13973.0194,-3863.3999L13973.0194,-3863.4666"/>
<path content="AP030,1,28,1,0,14,1,8,JPN" xlink:title="AP030" d="M13971.8597,-3862.6801L13971.6995,-3862.4599L13971.6507,-3862.1334L13971.6995,-3861.8332L13971.7407,-3861.7599"/>
<path content="AP030,1,28,1,0,15,1,8,JPN" xlink:title="AP030" d="M13984.455,-3861.7195L13984.6497,-3861.9934L13986.2473,-3863.5967"/>
<path content="AP030,1,28,1,0,16,1,8,JPN" xlink:title="AP030" d="M13984.1873,-3862.5904L13984.3307,-3862.3333L13984.3597,-3862.0998L13984.3597,-3861.9934L13984.3955,-3861.8086L13984.455,-3861.7195"/>
<path content="AP030,1,28,1,0,14,1,8,JPN" xlink:title="AP030" d="M13984.1873,-3862.5904L13984.0805,-3862.3333L13983.8806,-3862.0464L13983.7402,-3861.9198L13983.5602,-3861.7065L13983.49,-3861.6135"/>
<path content="AP030,1,28,1,0,14,1,8,JPN" xlink:title="AP030" d="M13971.7407,-3861.7599L13971.8796,-3861.5601"/>
<path content="AP030,1,28,1,0,14,1,8,JPN" xlink:title="AP030" d="M13971.7407,-3861.7599L13971.6995,-3861.7065L13971.6995,-3861.6531L13971.7194,-3861.6135L13971.7896,-3861.5799L13971.8796,-3861.5601"/>
<path content="AP030,1,28,1,0,15,1,8,JPN" xlink:title="AP030" d="M13983.49,-3861.6135L13983.49,-3861.38"/>
<path content="AP030,1,28,1,0,14,1,8,JPN" xlink:title="AP030" d="M13983.49,-3861.6135L13983.4702,-3861.5067L13983.49,-3861.38"/>
<path content="AP030,1,28,1,0,15,1,8,JPN" xlink:title="AP030" d="M13983.7204,-3861.0397L13984.1995,-3861.2331L13984.1995,-3861.3266L13984.2407,-3861.4334L13984.2896,-3861.5067L13984.3796,-3861.6135L13984.455,-3861.7195"/>
<path content="AP030,1,28,1,0,14,1,8,JPN" xlink:title="AP030" d="M13983.49,-3861.38L13983.7204,-3861.0397"/>
<path content="AP030,1,28,1,0,14,1,8,JPN" xlink:title="AP030" d="M13971.8796,-3861.5601L13971.9299,-3861.3598L13971.9498,-3860.7864L13971.9299,-3860.7132L13971.8994,-3860.5133L13971.8994,-3860.4599L13971.9299,-3860.3001L13972.0398,-3860.0666"/>
<path content="AP030,1,28,1,0,14,1,8,JPN" xlink:title="AP030" d="M13971.8796,-3861.5601L13971.9696,-3861.5265L13972.0795,-3861.4864L13972.1497,-3861.4334L13972.2,-3861.38L13972.2198,-3861.3266L13972.29,-3861.2534L13972.3999,-3861.2L13972.4503,-3861.1065L13972.5403,-3861.0001L13972.5204,-3860.9135L13972.5204,-3860.8398L13972.4701,-3860.7864L13972.3801,-3860.7334L13972.3297,-3860.7334L13972.2702,-3860.7334L13972.2198,-3860.7132L13972.1802,-3860.6598L13972.1497,-3860.6068L13972.1298,-3860.5L13972.11,-3860.4065L13972.0795,-3860.3535L13972.11,-3860.2798L13972.1298,-3860.26L13972.1802,-3860.2467L13972.2397,-3860.2264L13972.29,-3860.2264L13972.3602,-3860.1933L13972.3801,-3860.1532L13972.3801,-3860.12L13972.3297,-3860.08L13972.2702,-3860.0666L13972.2198,-3860.08L13972.0795,-3860.08L13972.0398,-3860.0666"/>
<path content="AP030,1,28,1,0,16,1,8,JPN" xlink:title="AP030" d="M13984.455,-3861.7195L13984.6179,-3861.4754L13984.7291,-3861.1502L13985.0727,-3859.7064"/>
<path content="AP030,1,28,1,0,15,1,8,JPN" xlink:title="AP030" d="M13989.49,-3866.5452L13990.4785,-3865.778L13991.9281,-3865.1245L13992.1875,-3864.4436M13992.1875,-3862.5581L13992.1021,-3862.2017L13992.1875,-3862.1162M13992.1875,-3859.46L13991.4917,-3859.3231L13990.3809,-3859.2617"/>
<path content="AP030,1,28,1,0,16,1,4,JPN" xlink:title="AP030" d="M13985.0727,-3859.7064L13985.3659,-3859.3495L13985.6894,-3859.1749L13986.1341,-3859.0877L13986.6497,-3859.0797L13987.4786,-3859.286L13988.0345,-3859.4605L13988.3681,-3859.4764"/>
<path content="AP030,1,28,1,0,14,1,8,JPN" xlink:title="AP030" d="M13970.2393,-3858.8734L13970.2393,-3858.9466L13970.3598,-3859.0199L13970.3995,-3859.0534L13970.4498,-3859.1064L13970.4498,-3859.1801L13970.5399,-3859.1999L13970.6299,-3859.2533L13970.7703,-3859.3468L13970.8298,-3859.4131L13970.8801,-3859.5066L13970.9503,-3859.56L13971.0403,-3859.5798L13971.1807,-3859.5932L13971.2692,-3859.6535L13971.3806,-3859.7198L13971.5195,-3859.7401L13971.6293,-3859.7599L13971.6995,-3859.7935L13971.8094,-3859.8331L13971.8994,-3859.8999L13971.9498,-3859.94L13972.02,-3860.0132L13972.0398,-3860.0666"/>
<path content="AP030,1,28,1,0,15,1,8,JPN" xlink:title="AP030" d="M13958.6304,-3862.1532L13958.8303,-3862.0941L13960.3592,-3861.6432L13961.3983,-3861.1973L13963.3621,-3860.4389L13964.4012,-3860.3054L13964.5752,-3859.9487L13964.8056,-3859.6363L13965.3824,-3859.7256L13966.0187,-3859.4582L13967.1158,-3859.5024L13967.8085,-3859.235L13968.5593,-3859.0122L13969.368,-3859.0565L13970.2393,-3858.8734"/>
<path content="AP030,1,28,1,0,16,1,8,JPN" xlink:title="AP030" d="M13988.3681,-3859.4764L13988.9645,-3859.3653L13989.7934,-3859.0956L13990.4505,-3858.81L13990.875,-3858.4451L13991.2187,-3857.8026L13991.4025,-3857.688L13991.6248,-3857.6087L13992.0807,-3857.5268"/>
<path content="AP030,1,28,1,0,14,1,8,JPN" xlink:title="AP030" d="M13983.7204,-3861.0397L13983.8104,-3860.8932L13983.8303,-3860.7864L13983.9706,-3860.3867L13984.0607,-3860.1734L13984.0805,-3860.0998L13984.1293,-3860.0266L13984.3094,-3859.8133L13984.4498,-3859.5798L13984.5596,-3859.2865L13984.6802,-3859.0534L13984.7397,-3859L13984.8801,-3858.9268L13985.4294,-3858.7334L13985.7407,-3858.68L13985.9894,-3858.6597L13986.0794,-3858.6399L13986.38,-3858.4801L13986.4502,-3858.4599L13986.6806,-3858.4599L13986.9003,-3858.6201L13987.0605,-3858.6399L13987.2406,-3858.68L13987.3993,-3858.7334L13987.5397,-3858.7334L13987.7197,-3858.6933L13987.7701,-3858.68L13987.8601,-3858.68L13988.1302,-3858.9134L13988.2904,-3858.9466L13988.4903,-3858.9664L13988.6795,-3858.9664L13988.7894,-3858.9664L13989.0793,-3858.9134L13989.3097,-3858.8398L13989.5401,-3858.7334L13989.7705,-3858.6067L13989.9704,-3858.4801L13990.1093,-3858.3332L13990.1505,-3858.26L13990.1794,-3858.0666L13990.1505,-3857.9201L13990.1306,-3857.7934L13990.1794,-3857.4135L13990.3595,-3857.2533L13990.5197,-3857.2334L13990.6494,-3857.2334L13991.04,-3857.1999L13991.1804,-3857.18"/>
<path content="AP030,1,28,1,0,14,1,8,JPN" xlink:title="AP030" d="M13991.5634,-3857.1682L13991.6107,-3857.2334L13991.7694,-3857.4333L13991.8793,-3857.5066L13992.0807,-3857.5268"/>
<path content="AP030,1,28,1,0,14,1,8,JPN" xlink:title="AP030" d="M13991.1804,-3857.18L13991.2903,-3857.18L13991.4902,-3857.18L13991.5634,-3857.1682"/>
<path content="AP030,1,28,1,0,14,1,8,JPN" xlink:title="AP030" d="M13991.1804,-3857.18L13991.33,-3857.0732L13991.3803,-3857.04L13991.4703,-3857.04L13991.5634,-3857.1682"/>
<path content="AP030,1,28,1,0,16,1,8,JPN" xlink:title="AP030" d="M13992.0807,-3857.5268L13992.1875,-3857.5725"/>
<path content="AP030,1,28,1,0,14,1,8,JPN" xlink:title="AP030" d="M13958.6304,-3862.1532L13958.4702,-3862.0132L13958.4,-3861.9198L13958.3298,-3861.8134L13958.2001,-3861.6867L13958.0597,-3861.5398L13957.8598,-3861.2198L13957.6096,-3861.0199L13957.6096,-3860.9135L13957.5806,-3860.6197L13957.5607,-3860.5667L13957.4707,-3860.4599L13957.2403,-3860.3001L13957.1793,-3860.2264L13957.1793,-3860.1532L13957.1793,-3860.0132L13957.0602,-3859.8667L13956.8298,-3859.7599L13956.72,-3859.6664L13956.6101,-3859.4868L13956.6498,-3859.4131L13956.6803,-3859.3266L13956.5598,-3859.1267L13956.2698,-3858.7868L13956.1798,-3858.68L13956.1096,-3858.4267L13956.0806,-3858.12L13955.9692,-3857.7934L13955.9006,-3857.5798L13955.8304,-3857.5268L13955.7693,-3857.4665L13955.5801,-3857.3467L13955.5603,-3857.3067L13955.4901,-3857.0934L13955.3802,-3856.9466L13955.0201,-3856.62L13954.9896,-3856.4999L13954.95,-3856.3534L13954.9698,-3856.2798L13955.0201,-3856.1535L13955.162,-3855.9963L13955.3101,-3855.8334L13955.3299,-3855.7732L13955.3299,-3855.6133L13955.2399,-3855.4134"/>
<path content="AP030,1,28,1,0,14,1,8,JPN" xlink:title="AP030" d="M13991.5634,-3857.1682L13991.7007,-3857.1465L13991.8106,-3857.2201L13991.8793,-3857.2865L13992.0197,-3857.3265L13992.1295,-3857.3265L13992.1875,-3857.2793M13992.1875,-3856.9662L13992.1494,-3856.9267L13992.1799,-3856.6933L13992.1875,-3856.683"/>
<path content="AP030,1,28,1,0,14,1,8,JPN" xlink:title="AP030" d="M13953.7003,-3852.0664L13953.9505,-3852.4067L13954.1504,-3852.7332L13954.2694,-3853.0731L13954.3594,-3853.1799L13954.5593,-3853.3264L13954.7897,-3853.6533L13955.1102,-3854.1199L13955.1102,-3854.7333L13955.13,-3855.1266L13955.1498,-3855.1666L13955.1804,-3855.2532L13955.191,-3855.283L13955.2399,-3855.4134"/>
<path content="AP030,1,28,1,0,14,1,8,JPN" xlink:title="AP030" d="M13967.9504,-3851.8665L13968.2007,-3852.0134L13968.2907,-3852.1198L13968.4296,-3852.2999L13968.5394,-3852.3865L13968.6096,-3852.4998L13968.6493,-3852.5867L13968.6493,-3852.6398L13968.5593,-3852.7866L13968.5394,-3852.8599L13968.5593,-3852.9465L13968.6493,-3853.2734L13968.6493,-3853.4332L13968.7698,-3853.5934L13968.7897,-3853.8467L13968.8797,-3853.9398L13968.9697,-3853.9932L13968.9896,-3854.1199L13968.9697,-3854.4067L13968.9896,-3854.4998L13969.0399,-3854.5666L13969.0399,-3854.7466L13969.0201,-3854.8599L13968.9697,-3854.9267L13968.9697,-3855.18L13968.9697,-3855.3066L13968.8995,-3855.4333L13968.8995,-3855.5065L13968.9499,-3855.6534L13968.9697,-3855.8865L13968.9301,-3855.9933L13968.8599,-3856.1333L13968.8095,-3856.2065L13968.7698,-3856.2798L13968.7897,-3856.3332L13968.8095,-3856.4598L13968.8095,-3856.62L13968.9499,-3856.6601L13969.22,-3856.6799L13969.4,-3856.6601L13969.4901,-3856.6799L13969.5404,-3856.7135L13969.6106,-3856.8001L13969.6503,-3856.86L13969.7006,-3856.9267L13969.7403,-3857.0198L13969.7403,-3857.0934L13969.7906,-3857.18L13969.7693,-3857.2334L13969.8303,-3857.2865L13969.9005,-3857.3467L13969.9707,-3857.3799L13970.0195,-3857.4532L13969.9707,-3857.5397L13969.9493,-3857.5932L13969.9005,-3857.6534L13969.9005,-3857.6866L13969.9295,-3857.74L13969.9707,-3857.7599L13970.0195,-3857.7732L13970.0607,-3857.7732L13970.1294,-3857.7732L13970.1492,-3857.7732L13970.1797,-3857.8133L13970.1797,-3857.8465L13970.1492,-3857.9399L13970.1294,-3857.9933L13970.1294,-3858.0666L13970.1797,-3858.0997L13970.2393,-3858.12L13970.3094,-3858.1333L13970.3293,-3858.1532L13970.3598,-3858.1932L13970.3796,-3858.2066L13970.43,-3858.26L13970.4697,-3858.3199L13970.4895,-3858.3733L13970.4895,-3858.4064L13970.43,-3858.6067L13970.3995,-3858.6201L13970.3293,-3858.68L13970.3094,-3858.7132L13970.2896,-3858.7467L13970.2393,-3858.8398L13970.2393,-3858.8734"/>
<path content="AP030,1,28,1,0,14,1,8,JPN" xlink:title="AP030" d="M13955.2399,-3855.4134L13955.5405,-3855.3467L13955.7693,-3855.2734L13955.8594,-3855.1998L13956.0593,-3854.9133L13956.1996,-3854.8733L13956.7902,-3854.8401L13957.0206,-3854.8199L13957.3303,-3854.8733L13957.6492,-3854.8401L13958.0795,-3854.8199L13958.2397,-3854.8401L13958.3099,-3854.8733L13958.3801,-3854.9133L13958.4503,-3854.9133L13958.4702,-3854.9133L13958.58,-3854.8199L13958.6304,-3854.7867L13958.6807,-3854.7466L13958.7006,-3854.7466L13958.8593,-3854.8199L13958.9493,-3854.7665L13959.2896,-3854.5334L13959.3307,-3854.5132L13959.5596,-3854.5132L13959.79,-3854.3865L13959.9304,-3854.3198L13960.0601,-3854.2465L13960.08,-3854.2267L13960.1105,-3854.1199L13960.1105,-3854.0134L13960.1303,-3853.9532L13960.2005,-3853.92L13960.3302,-3853.8864L13960.4294,-3853.8467L13960.6796,-3853.6667L13960.7407,-3853.6533L13960.8795,-3853.6667L13961.0794,-3853.7598L13961.2198,-3853.7731L13961.29,-3853.7598L13961.4502,-3853.6667L13961.5204,-3853.6533L13961.8301,-3853.7067L13962.0407,-3853.7067L13962.1506,-3853.7067L13962.3306,-3853.6667L13962.5198,-3853.6533L13962.6801,-3853.6533L13962.8098,-3853.6533L13962.8799,-3853.6865L13962.9898,-3853.7067L13963.15,-3853.6865L13963.3102,-3853.6667L13963.3606,-3853.6133L13963.4003,-3853.5599L13963.4506,-3853.4866L13963.4903,-3853.4134L13963.5406,-3853.3264L13963.5803,-3853.2867L13963.6795,-3853.2734L13963.7207,-3853.22L13963.7695,-3853.1666L13963.7695,-3853.1265L13963.7207,-3853.0731L13963.6993,-3853.0533L13963.6993,-3853.0197L13963.7207,-3852.9667L13963.7695,-3852.9465L13963.8306,-3852.9465L13963.8992,-3853.0197L13963.9297,-3853.0197L13963.9694,-3852.9999L13964.0198,-3852.9667L13964.0396,-3852.9133L13964.1296,-3852.8732L13964.1998,-3852.8599L13964.27,-3852.8198L13964.3097,-3852.7664L13964.2899,-3852.7332L13964.27,-3852.6932L13964.2197,-3852.66L13964.1998,-3852.6199L13964.1998,-3852.4998L13964.2197,-3852.3865L13964.2899,-3852.2999L13964.4302,-3852.2598L13964.4897,-3852.2266L13964.5798,-3852.1732L13964.6301,-3852.0798L13964.7003,-3852.0267L13964.7903,-3851.9932L13964.9307,-3852.0134L13965.0803,-3851.9932L13965.1794,-3851.9733L13965.2695,-3851.9733L13965.3305,-3851.9932L13965.4297,-3851.9932L13965.4694,-3851.9733L13965.5197,-3851.9199L13965.5197,-3851.8997L13965.5396,-3851.8867L13965.5807,-3851.8665L13965.6296,-3851.8867L13965.6799,-3851.8997L13965.7196,-3851.9199L13965.8295,-3851.8867L13965.8798,-3851.8665L13965.9302,-3851.8333L13966.0202,-3851.8333L13966.1301,-3851.8333L13966.2003,-3851.7933L13966.2201,-3851.7735L13966.33,-3851.7597L13966.5604,-3851.7597L13966.6306,-3851.7399L13966.7007,-3851.7067L13966.7892,-3851.6865L13966.9006,-3851.6865L13966.9495,-3851.6666L13967.0395,-3851.6335L13967.0807,-3851.6132L13967.1799,-3851.58L13967.2394,-3851.54L13967.3096,-3851.5598L13967.3599,-3851.58L13967.4698,-3851.6533L13967.6102,-3851.72L13967.63,-3851.7399L13967.6498,-3851.7597L13967.72,-3851.7933L13967.7399,-3851.7933L13967.9504,-3851.8665"/>
<path content="AP030,1,28,1,0,15,1,8,JPN" xlink:title="AP030" d="M13953.7003,-3852.0664L13953.8742,-3851.9974L13955.1636,-3851.4858L13957.0602,-3852.3575L13957.8583,-3851.7502L13958.6029,-3851.2962L13959.346,-3850.9583L13960.7498,-3851.2184L13961.8454,-3850.9613L13962.4481,-3850.6752L13963.2019,-3850.2613L13963.5239,-3849.8425L13964.212,-3849.8272L13965.5106,-3849.8188L13967.5583,-3850.0896L13967.7444,-3850.6702L13967.9504,-3851.8665"/>
<path content="AP030,1,28,1,0,14,1,8,JPN" xlink:title="AP030" d="M13953.7003,-3852.0664L13953.6499,-3852.0134L13953.3997,-3851.7933L13953.1296,-3851.4L13952.7893,-3850.9998L13952.7206,-3850.9266L13952.5604,-3850.7332L13952.4506,-3850.5867L13952.3102,-3850.3864L13952.24,-3850.2602L13952.2003,-3850.1202L13952.2003,-3850.0011L13952.2003,-3849.9401L13952.2202,-3849.3999L13952.24,-3849.2535L13952.24,-3849.1264"/>
<path content="AP030,1,28,1,0,14,1,8,JPN" xlink:title="AP030" d="M13949.8093,-3845.7066L13949.8795,-3845.9534L13949.8993,-3846.0464L13949.9893,-3846.2601L13950.1495,-3846.64L13950.2197,-3846.7667L13950.2396,-3846.7999L13950.5203,-3847.0734L13950.5798,-3847.1802L13950.5798,-3847.5067L13950.6302,-3847.5266L13950.65,-3847.5399L13950.8804,-3847.7402L13950.8804,-3847.9L13950.8804,-3848.0133L13950.9705,-3848.0801L13950.9903,-3848.2067L13950.9903,-3848.2468L13951.0803,-3848.3334L13951.2894,-3848.5535L13951.3107,-3848.6599L13951.2695,-3848.7865L13951.77,-3849.2332L13951.857,-3849.2275L13951.9699,-3849.2199L13952.24,-3849.1264"/>
<path content="AP030,1,28,1,0,14,1,8,JPN" xlink:title="AP030" d="M13955.8594,-3840.5666L13956.4896,-3841.1999L13956.6101,-3841.2865L13956.72,-3841.4867L13956.7902,-3841.74L13956.7902,-3842.0467L13956.81,-3842.2466L13956.9,-3842.3199L13957.0602,-3842.3733L13957.1503,-3842.4267L13957.4295,-3842.5331L13957.7896,-3842.5533L13958.2703,-3842.68L13958.3603,-3842.7467L13958.5403,-3842.8932L13958.5403,-3842.9867L13958.58,-3843.0931L13958.7006,-3843.2335L13958.7204,-3843.3266L13958.7402,-3843.3601L13958.8104,-3843.4868L13958.9706,-3843.6134L13959.1797,-3843.7733L13959.1797,-3843.8465L13959.1507,-3843.9934L13959.0393,-3844.08L13958.9706,-3844.1334L13958.8303,-3844.2066L13958.5602,-3844.3733L13958.49,-3844.4065L13958.3603,-3844.5L13958.1299,-3844.7132L13957.9895,-3844.8601L13957.8094,-3845.0199L13957.6996,-3845.1267L13957.6096,-3845.3266L13957.5394,-3845.5933L13957.4905,-3845.9L13957.4493,-3846.0667L13957.4005,-3846.1533L13957.3303,-3846.2467L13957.2403,-3846.2799L13956.9702,-3846.3531L13956.8802,-3846.3734L13956.7902,-3846.3867L13956.6299,-3846.4401L13956.4896,-3846.5L13956.2698,-3846.6064L13956.1096,-3846.6599L13955.9692,-3846.7133L13955.8594,-3846.7999L13955.7907,-3846.9265L13955.7205,-3846.9868L13955.6503,-3847.0531L13955.6107,-3847.1066L13955.5206,-3847.1466L13955.4504,-3847.1802L13955.4001,-3847.2332L13955.2902,-3847.3598L13955.2704,-3847.4133L13955.22,-3847.4865L13955.1498,-3847.5266L13955.1102,-3847.5399L13955.0598,-3847.5399L13954.9896,-3847.5399L13954.9698,-3847.5399L13954.9301,-3847.5399L13954.8599,-3847.5266L13954.6799,-3847.5266L13954.5807,-3847.5266L13954.4907,-3847.5266L13954.4495,-3847.5601L13954.3304,-3847.6334L13954.0405,-3847.8664L13953.7399,-3848.0801L13953.7003,-3848.0999L13953.6301,-3848.1201L13953.4698,-3848.1731L13953.3798,-3848.2468L13953.27,-3848.32L13953.1998,-3848.3868L13953.1097,-3848.4402L13952.9907,-3848.5332L13952.9297,-3848.6065L13952.8107,-3848.6599L13952.5192,-3848.7133L13952.3804,-3848.7667L13952.2705,-3848.8602L13952.2202,-3848.9132L13952.24,-3849.1264"/>
<path content="AP030,1,28,1,0,15,1,8,JPN" xlink:title="AP030" d="M13949.8093,-3845.7066L13949.9252,-3845.6039L13951.0345,-3844.6079L13952.9587,-3844.0536L13953.5461,-3844.0994L13954.0543,-3843.2575L13954.8065,-3842.3798L13955.8594,-3840.5666"/>
<path content="AP030,1,28,1,0,15,1,8,JPN" xlink:title="AP030" d="M13955.8594,-3840.5666L13955.7693,-3840.2599"/>
<path content="AP030,1,28,1,0,14,1,8,JPN" xlink:title="AP030" d="M13955.8594,-3840.5666L13955.7907,-3840.3732L13955.7693,-3840.2599"/>
<path content="AP030,1,28,1,0,14,1,8,JPN" xlink:title="AP030" d="M13955.7693,-3840.2599L13955.6305,-3840.1001L13955.6305,-3839.8998L13955.6793,-3839.8132L13955.6305,-3839.5267L13955.6305,-3839.3467L13955.5405,-3839.22L13955.5206,-3839.04L13955.5206,-3838.8199L13955.4306,-3838.5666L13955.4306,-3838.4998L13955.4306,-3838.48L13955.4504,-3838.3732L13955.5801,-3837.9932L13955.6107,-3837.8666L13955.6305,-3837.6331L13955.5801,-3837.4535L13955.4703,-3837.3066L13955.3101,-3837.0399L13955.2399,-3836.8732L13955.2002,-3836.5002L13955.2002,-3836.0802L13955.1804,-3835.8334L13955.0201,-3835.4534L13954.9896,-3835.36L13955.04,-3834.9998L13955.0598,-3834.8934L13954.9896,-3834.5867L13954.9896,-3834.4601L13955.0797,-3834.1202L13955.1804,-3833.7601L13955.2002,-3833.6864L13955.2399,-3833.58L13955.3299,-3833.4667L13955.4001,-3833.4133L13955.4306,-3833.4L13955.4703,-3833.3065L13955.4901,-3833.2199L13955.4901,-3832.8201L13955.5405,-3832.4799L13955.5405,-3832.32L13955.4703,-3832.2468L13955.3101,-3832.0999L13955.2902,-3832.0801L13955.2002,-3832.0133L13954.95,-3831.6868L13954.7195,-3831.3599L13954.5395,-3831.1066"/>
<path content="AP030,1,28,1,0,15,1,8,JPN" xlink:title="AP030" d="M13954.5395,-3831.1066L13955.2368,-3830.6225L13955.4108,-3829.2362L13954.6539,-3827.9926L13953.6438,-3827.1317L13953.3127,-3826.5488L13953.2318,-3825.6607L13953.804,-3825.024"/>
<path content="AP030,1,28,1,0,15,1,8,JPN" xlink:title="AP030" d="M13950.4303,-3824.44L13952.0828,-3824.4507L13952.9617,-3824.5392L13953.804,-3825.024"/>
<path content="AP030,1,28,1,0,14,1,8,JPN" xlink:title="AP030" d="M13954.5395,-3831.1066L13954.5197,-3831.0734L13954.3106,-3830.7865L13954.1306,-3830.5332L13953.9703,-3830.4401L13953.9001,-3830.3333L13953.6499,-3829.9934L13953.54,-3829.8466L13953.3295,-3829.6333L13953.1799,-3829.5265L13952.9694,-3829.38L13952.7206,-3829.0199L13952.4902,-3828.6598L13952.2202,-3828.26L13951.9501,-3827.8667L13951.2695,-3827.3464L13951.0803,-3827.2202L13950.9506,-3827.0931L13950.8301,-3826.9264L13950.5798,-3826.7666L13950.4501,-3826.6602L13950.3998,-3826.5667L13950.3601,-3826.4267L13950.1801,-3826.2798L13950.0198,-3826.0799L13949.9298,-3825.8865L13950.0793,-3825.7599L13950.2396,-3825.6535L13950.3601,-3825.5798L13950.3601,-3825.1465L13950.3601,-3824.7868L13950.4303,-3824.44"/>
<path content="AP030,1,28,1,0,15,1,8,JPN" xlink:title="AP030" d="M13953.804,-3825.024L13954.6051,-3825.4852L13956.601,-3825.9724L13957.5165,-3826.7162L13958.5556,-3826.0735L13959.8984,-3824.894L13961.8164,-3824.3767L13962.4069,-3824.1524L13963.3911,-3823.8552L13964.418,-3823.8285L13964.7476,-3824.5651L13965.1291,-3825.0324L13965.7104,-3825.386L13966.9357,-3825.2457L13967.1738,-3825.5955L13967.3553,-3826.3302L13967.7917,-3826.5667L13970.0867,-3826.7853L13970.7184,-3827.0622L13971.4417,-3827.6485L13972.6044,-3828.3169L13972.3953,-3829.0474L13973.1186,-3829.7108L13972.9141,-3830.2101L13972.3694,-3830.5126L13972.406,-3831.2073L13972.641,-3831.7883L13972.2855,-3832.5172L13971.7072,-3833.012L13971.6507,-3834.243L13971.524,-3834.8438L13971.3684,-3835.8273L13971.2906,-3836.264L13971.1456,-3836.6184L13970.5109,-3837.0422L13970.4987,-3837.7422L13970.34,-3838.2652L13970.8466,-3838.9709L13971.5149,-3838.9198L13971.4966,-3839.9113L13972.7234,-3841.8491L13973.381,-3842.3813L13974.7879,-3842.5133L13976.6281,-3843.2907L13976.6113,-3844.2822L13976.5976,-3845.0405L13976.6617,-3845.6825L13977.0966,-3846.212L13976.2009,-3846.5527L13976.1917,-3847.1355L13976.4771,-3847.7802L13976.3931,-3848.3627L13976.6785,-3849.0074L13977.0401,-3849.5941L13977.774,-3850.0687L13978.8803,-3850.4883L13979.2496,-3850.6088L13978.9429,-3851.1307L13979.2282,-3851.8333L13979.2145,-3852.7081L13979.8691,-3853.4733L13979.8553,-3854.3476L13980.7465,-3854.3568L13981.0272,-3855.3513L13981.8344,-3855.9425L13982.5684,-3856.4751L13983.1436,-3857.6473L13982.7332,-3858.0513L13982.5867,-3858.7509L13983.107,-3859.7374L13983.49,-3861.38"/>
<path content="AP030,1,28,1,0,14,1,8,JPN" xlink:title="AP030" d="M13947.7005,-3820.5666L13947.7402,-3820.62L13948.1506,-3820.9999L13948.4497,-3821.3467L13948.4894,-3821.4001L13948.7,-3821.6331L13948.9899,-3822.0665L13949.1652,-3822.2814"/>
<path content="AP030,1,28,1,0,14,1,8,JPN" xlink:title="AP030" d="M13949.8093,-3845.7066L13949.7894,-3845.6333L13949.6094,-3845.4666L13949.5193,-3845.38L13948.97,-3844.9135L13948.6801,-3844.6201L13948.6298,-3844.5667L13948.5596,-3844.4801L13948.5397,-3844.4267L13948.4894,-3844.2467L13948.3246,-3844.0117L13948.3002,-3843.9331L13948.2895,-3843.3468L13948.2407,-3843.2201L13947.7402,-3842.7132L13947.5601,-3842.5533L13947.29,-3842.3L13947.2397,-3842.2466L13947.1497,-3842.0265L13947.02,-3841.8667L13946.9696,-3841.7599L13946.9498,-3841.56L13946.9299,-3841.4867L13946.8597,-3841.3601L13946.8597,-3841.3467L13946.8994,-3841.0732L13946.7407,-3840.9134L13946.5195,-3840.6399L13946.4493,-3840.5334L13946.3806,-3840.3866L13946.3593,-3840.2599L13946.3104,-3840.1199L13946.2204,-3839.9734L13945.99,-3839.7598L13945.9305,-3839.5401L13945.8298,-3839.4135L13945.7703,-3839.2864L13945.7001,-3839.1464L13945.7001,-3839.0202L13945.6802,-3838.8199L13945.7199,-3838.7665L13945.8099,-3838.66L13945.8298,-3838.5532L13945.9,-3838.4068L13945.99,-3838.3533L13946.1304,-3838.2801L13946.1502,-3838.2465L13946.1304,-3837.9532L13945.99,-3837.6667L13945.9,-3837.5065L13945.8298,-3837.4001L13945.7703,-3837.22L13945.6802,-3837.1468L13945.5399,-3837.0201L13945.5597,-3836.8198L13945.4697,-3836.6798L13945.3995,-3836.5665L13945.3796,-3836.5002L13945.3598,-3836.4067L13945.1996,-3836.1332L13945.1492,-3835.9932L13945.1096,-3835.7399L13945.1096,-3835.5598L13945.1492,-3835.4332L13945.1996,-3835.3065L13945.2423,-3835.0189L13945.2423,-3834.9655L13945.3125,-3834.8721L13945.3125,-3834.5322L13945.2927,-3834.4254L13945.2225,-3834.2987L13945.2286,-3833.9195L13945.2927,-3833.8123L13945.3323,-3833.7589L13945.3125,-3833.4656L13945.2423,-3833.3256L13945.2026,-3833.2188L13945.1828,-3833.1787L13945.2026,-3832.5123L13945.1523,-3832.4055L13945.0836,-3832.2254L13945.0226,-3832.0454L13945.0043,-3831.9668L13944.9997,-3831.9359L13944.9814,-3831.8069L13944.9524,-3831.3789L13945.0226,-3831.2721L13945.1828,-3831.0921L13945.1523,-3830.8922L13945.1324,-3830.7453L13945.1324,-3830.4256L13945.0638,-3830.1189L13945.0226,-3830.0121L13945.0226,-3829.1256L13944.9738,-3828.7453L13944.9036,-3828.5522L13944.9036,-3828.4588L13944.9326,-3828.3855L13945.0195,-3828.1532L13945.0394,-3828.0132L13945.0195,-3827.7599L13944.9905,-3827.4334L13944.9295,-3827.2202L13944.8105,-3827.0199L13944.7205,-3826.8398L13944.7205,-3826.82L13944.7205,-3826.4267L13944.7205,-3826.1002L13944.6793,-3826.0265L13944.6304,-3825.9533L13944.6106,-3825.8133L13944.5404,-3825.7065L13944.5404,-3825.56L13944.6106,-3825.4791L13944.6503,-3825.4333L13944.6793,-3825.4002L13944.6503,-3825.2865L13944.5404,-3825.0534L13944.4504,-3824.86L13944.4702,-3824.6601L13944.6106,-3824.6067L13944.7205,-3824.5667L13944.9493,-3824.5533L13945.1492,-3824.4801L13945.3217,-3824.4064L13945.3995,-3824.3732L13945.5795,-3824.1734L13945.6497,-3824.0799L13945.8099,-3824.0265L13945.9,-3823.9735L13945.8801,-3823.8865L13945.8801,-3823.8464L13945.7901,-3823.6866L13945.7001,-3823.5268L13945.6802,-3823.4867L13945.6802,-3823.1068L13945.6802,-3823.0732L13945.8298,-3822.8931L13946.0602,-3822.7333L13946.3104,-3822.5861L13946.4005,-3822.5334L13946.5195,-3822.48"/>
<path content="AP030,1,28,1,0,14,1,8,JPN" xlink:title="AP030" d="M13944.4702,-3818.3735L13944.4901,-3818.2598L13944.4504,-3818.0267L13944.2902,-3817.58L13944.2001,-3817.3599L13944.1803,-3817.3065L13943.9499,-3817.1799L13943.7393,-3817.0933L13943.6096,-3817.02L13943.4906,-3816.9266L13943.3304,-3816.7866L13943.2404,-3816.6931L13943.1503,-3816.5531L13943.1107,-3816.4799L13943.0801,-3816.4268L13943.0206,-3816.2601L13942.9901,-3816.2067L13942.8802,-3816.0801L13942.7399,-3815.9L13942.7002,-3815.7932L13942.6804,-3815.6334L13942.6498,-3815.5399L13942.6498,-3815.2534L13942.5797,-3815.0398L13942.54,-3814.8602L13942.4301,-3814.5332"/>
<path content="AP030,1,28,1,0,15,1,8,JPN" xlink:title="AP030" d="M13942.7277,-3813.3751L13942.4301,-3814.5332"/>
<path content="AP030,1,28,1,0,14,1,8,JPN" xlink:title="AP030" d="M13947.7005,-3820.5666L13947.5403,-3820.4266L13947.4701,-3820.3732L13947.11,-3819.8334L13946.7896,-3819.4L13946.6797,-3819.1666L13946.2692,-3818.4265L13946.1502,-3818.2999L13946.1304,-3818.1198L13946.1105,-3817.3267L13946.1105,-3816.2998L13946.08,-3815.1466L13946.0602,-3814.6599L13946.0403,-3814.0999L13946.0205,-3813.9935L13945.9,-3813.6532L13945.9,-3813.6333L13945.7199,-3813.1268L13945.6802,-3813.0199L13945.4041,-3812.3207L13945.3796,-3812.2601L13945.2896,-3812.08L13945.1996,-3811.8332L13945.1218,-3811.6268"/>
<path content="AP030,1,28,1,0,15,1,8,JPN" xlink:title="AP030" d="M13942.7277,-3813.3751L13944.6182,-3811.9946L13945.1218,-3811.6268"/>
<path content="AP030,1,28,1,0,15,1,8,JPN" xlink:title="AP030" d="M13941.2003,-3811.4868L13942.7277,-3813.3751"/>
<path content="AP030,1,28,1,0,14,1,8,JPN" xlink:title="AP030" d="M13940.9738,-3811.6936L13941.0599,-3811.6333L13941.2003,-3811.4868"/>
<path content="AP030,1,28,1,0,14,1,8,JPN" xlink:title="AP030" d="M13939.7572,-3811.0273L13939.9002,-3811.2534L13940.0406,-3811.4334L13940.1306,-3811.5269L13940.5197,-3811.5269L13940.5396,-3811.5398L13940.86,-3811.7733L13940.9738,-3811.6936"/>
<path content="AP030,1,28,1,0,16,1,8,JPN" xlink:title="AP030" d="M13940.9738,-3811.6936L13940.1098,-3810.8703L13940.0873,-3810.8394"/>
<path content="AP030,1,28,1,0,15,1,8,JPN" xlink:title="AP030" d="M13939.7572,-3811.0273L13940.0873,-3810.8394"/>
<path content="AP030,1,28,1,0,14,1,8,JPN" xlink:title="AP030" d="M13937.7396,-3810.7132L13937.7899,-3810.9467L13937.8799,-3811.1069L13938.0203,-3811.2865L13938.2004,-3811.4532L13938.3804,-3811.6669L13938.9496,-3812.3867L13939.4897,-3813.0199L13940.1505,-3813.9534L13940.3595,-3814.2467L13940.4297,-3814.3532L13940.4495,-3814.4066L13940.5396,-3814.5L13940.7196,-3814.6198L13940.9698,-3814.7331L13941.2201,-3814.8201L13941.4505,-3814.7469L13942.0593,-3814.6069L13942.4301,-3814.5332"/>
<path content="AP030,1,28,1,0,14,1,8,JPN" xlink:title="AP030" d="M13945.1218,-3811.6268L13945.0607,-3811.4666L13944.7403,-3810.6201"/>
<path content="AP030,1,28,1,0,14,1,8,JPN" xlink:title="AP030" d="M13939.3997,-3810.3733L13939.5798,-3810.6201L13939.7003,-3810.82L13939.7202,-3810.8932L13939.74,-3811.0001L13939.7572,-3811.0273"/>
<path content="AP030,1,28,1,0,14,1,8,JPN" xlink:title="AP030" d="M13937.7396,-3810.7132L13938.1302,-3810.7334L13938.2202,-3810.7468L13938.3804,-3810.8734L13938.4506,-3810.8734L13938.7207,-3810.6934L13939.0198,-3810.5331L13939.18,-3810.5L13939.2899,-3810.4401L13939.3997,-3810.3733"/>
<path content="AP030,1,28,1,0,14,1,8,JPN" xlink:title="AP030" d="M13944.7403,-3810.6201L13945.4498,-3810.6602L13946.3104,-3810.7334L13946.5607,-3810.7468L13947.1802,-3810.7868L13948.1705,-3810.8566L13948.2193,-3810.8601L13948.4894,-3810.8601L13948.6298,-3810.7666L13948.8297,-3810.6602L13948.8998,-3810.6068L13949.1806,-3810.5L13949.3805,-3810.4069L13949.5407,-3810.3867L13949.7696,-3810.4069L13950.0793,-3810.4599L13950.4898,-3810.4599L13950.6805,-3810.3867L13950.9293,-3810.2798L13951.1505,-3810.2066L13951.3107,-3810.2066L13951.4893,-3810.2798L13951.6296,-3810.3001L13951.7395,-3810.3199L13951.9302,-3810.3199"/>
<path content="AP030,1,28,1,0,14,1,8,JPN" xlink:title="AP030" d="M13941.2003,-3811.4868L13941.2903,-3811.38L13941.4307,-3811.2534L13941.9693,-3810.8002L13942.5598,-3810.4069L13942.5797,-3810.3333L13942.63,-3810.3001L13942.7399,-3810.2467L13942.7704,-3810.2066L13942.7704,-3810.1933L13943.3594,-3810.5331L13943.5394,-3810.7132L13943.6127,-3810.7029L13943.6798,-3810.6934L13943.6096,-3810.5865L13943.9896,-3810.5667L13944.4901,-3810.6068L13944.7403,-3810.6201"/>
<path content="AP030,1,28,1,0,14,1,8,JPN" xlink:title="AP030" d="M13947.7005,-3820.5666L13947.7402,-3820.1935L13947.9294,-3820.0665L13948.0606,-3819.92L13948.1506,-3819.7601L13948.1796,-3819.54L13948.1506,-3819.36L13948.1293,-3819.2532L13948.1293,-3819.0399L13948.1506,-3818.9999L13948.3307,-3818.84L13948.3795,-3818.8L13948.3093,-3818.5135L13948.2895,-3818.3533L13948.3307,-3818.2068L13948.3795,-3818.1332L13948.3795,-3818.0668L13948.3307,-3817.9401L13948.3307,-3817.9001L13948.2407,-3817.6334L13948.3795,-3817.3599L13948.4894,-3817.1467L13948.5596,-3816.9868L13948.7,-3816.8201L13948.97,-3816.6199L13949.3301,-3816.5001L13949.5407,-3816.46L13949.7192,-3816.4799L13950.0198,-3816.5867L13950.0793,-3816.6065L13950.1801,-3816.6065L13950.3296,-3816.5134L13950.5203,-3816.46L13950.6302,-3816.4066L13950.7202,-3816.2998L13951.0193,-3816.0465L13951.2405,-3816.0267L13951.3794,-3815.9931L13951.5793,-3815.9199L13951.8097,-3815.72L13951.8799,-3815.6334L13951.9302,-3815.5067L13951.9501,-3815.3801L13951.9897,-3815.3465L13952.0203,-3815.3267L13952.0798,-3815.2866L13952.2705,-3815.2332L13952.33,-3815.1669L13952.4002,-3815.0734L13952.4902,-3814.9265L13952.5406,-3814.8731L13952.5604,-3814.8399L13952.6993,-3814.7865L13952.7893,-3814.7469L13952.9495,-3814.6198L13953.0594,-3814.5L13953.1097,-3814.2799L13953.1998,-3814.1731L13953.1799,-3813.9198L13953.3295,-3813.76L13953.3798,-3813.7199L13953.3997,-3813.7066L13953.4302,-3813.6665L13953.45,-3813.6131L13953.4897,-3813.3999L13953.6102,-3813.3068L13953.6499,-3813.2198L13953.6804,-3813.1268L13953.8605,-3812.7666L13953.7704,-3812.7132L13953.6499,-3812.6068L13953.5599,-3812.4599L13953.3997,-3812.3531L13953.27,-3812.2799L13953.2196,-3812.2601L13953.1296,-3812.2066L13952.9907,-3812.0468L13952.9297,-3811.9732L13952.7695,-3811.8332L13952.6794,-3811.5932L13952.5803,-3811.3468L13952.6093,-3811.0535L13952.6794,-3810.8002L13952.7206,-3810.6068L13952.8305,-3810.4599L13952.6993,-3810.12"/>
<path content="AP030,1,28,1,0,14,1,8,JPN" xlink:title="AP030" d="M13951.9302,-3810.3199L13951.9699,-3810.3199L13952.1301,-3810.3199L13952.6306,-3810.1334L13952.6993,-3810.12"/>
<path content="AP030,1,28,1,0,15,1,8,JPN" xlink:title="AP030" d="M13991.8335,-3816.3876L13992.1875,-3815.8818M13992.1875,-3812.9134L13992.1432,-3812.8536L13992.1875,-3812.8119"/>
<path content="AP030,1,28,1,0,14,1,8,JPN" xlink:title="AP030" d="M13944.7403,-3810.6201L13944.7205,-3810.5865L13944.6106,-3810.3199L13944.5404,-3810.1734L13944.4305,-3809.94L13944.3802,-3809.8469L13944.1498,-3809.6333L13943.9896,-3809.4532L13943.8797,-3809.2335L13943.7698,-3809.0401L13943.7195,-3808.9466L13943.6798,-3808.7868L13943.6798,-3808.68L13943.7393,-3808.4999L13943.8095,-3808.4267L13943.9697,-3808.2466L13944.0796,-3808.0799L13944.2398,-3807.8869L13944.31,-3807.74L13944.3298,-3807.5802L13944.2703,-3807.2334L13944.2398,-3807.0202L13944.2001,-3806.8199"/>
<path content="AP030,1,28,1,0,14,1,8,JPN" xlink:title="AP030" d="M13952.6993,-3810.12L13953.2196,-3809.8999L13953.7003,-3809.7198L13953.7201,-3809.7069L13953.9902,-3809.7401L13954.1107,-3809.7599L13954.2404,-3809.7935L13954.4006,-3809.8866L13954.7897,-3809.8999L13955.1804,-3809.8133L13955.4703,-3809.7401L13955.8105,-3809.5798L13955.9692,-3809.5268L13956.3995,-3809.3601L13956.5796,-3809.3067L13956.7001,-3809.2201L13956.8298,-3809.0935L13956.9,-3808.9668L13956.9702,-3808.9668L13957.0801,-3808.9134L13957.2205,-3808.7666L13957.3807,-3808.5533L13957.6294,-3808.2066L13957.8094,-3808.0132L13957.8796,-3807.9533L13957.9498,-3807.8999L13958.3603,-3807.6866L13958.5403,-3807.5802L13958.9905,-3807.56L13959.2194,-3807.6866L13959.2896,-3807.7068L13959.3796,-3807.6866L13959.6298,-3807.4532L13959.6497,-3807.3269L13959.6802,-3807.1999L13959.6802,-3807.1266L13959.6298,-3807L13959.6298,-3806.9267L13959.6497,-3806.8401L13959.7198,-3806.8199L13959.9899,-3806.8199L13960.1807,-3806.8199L13960.2005,-3806.7867L13960.2493,-3806.6879L13960.2905,-3806.6067L13960.3806,-3806.5666L13960.5606,-3806.5666L13960.6506,-3806.6399L13960.6659,-3806.6982L13960.6796,-3806.7467L13960.8093,-3806.8401L13960.8795,-3806.9134L13961.29,-3806.9134L13961.6501,-3806.9134L13961.7706,-3806.9668L13962.1094,-3807.0934L13962.3993,-3807.2201L13962.6495,-3807.3067L13962.7197,-3807.4001L13962.8601,-3807.5401L13962.9303,-3807.5802L13963.0402,-3807.6046L13963.0798,-3807.6134L13963.2202,-3807.6534L13963.3606,-3807.7068L13963.5406,-3807.7068L13963.7695,-3807.6134L13963.9694,-3807.5268L13964.1296,-3807.5066L13964.2899,-3807.5066L13964.5599,-3807.5401L13964.6805,-3807.5802L13965.0604,-3807.8667L13965.1794,-3807.9201L13965.3595,-3807.9399L13965.4297,-3807.9533L13965.6494,-3807.9533L13965.8295,-3807.8869L13965.9698,-3807.8869L13966.0248,-3807.8896L13966.2399,-3807.8999L13966.3803,-3807.7934L13966.4703,-3807.6534L13966.5207,-3807.5066L13966.5405,-3807.18L13966.4703,-3807.0732L13966.4307,-3806.9267L13966.4307,-3806.86L13966.4307,-3806.7333L13966.5207,-3806.4999L13966.6107,-3806.3332L13966.6306,-3806.3L13966.6504,-3806.2801L13966.6794,-3806.2466L13966.7389,-3806.1985L13966.7694,-3806.1733L13966.8594,-3806.1001L13967.1494,-3806.1199L13967.45,-3806.2065L13967.8604,-3806.3198L13968.0405,-3806.3534L13968.8538,-3806.3335L13969.0598,-3806.3198L13969.2001,-3806.3198L13969.3604,-3806.3732L13969.3802,-3806.3866L13969.5801,-3806.5334"/>
<path content="AP030,1,28,1,0,15,1,8,JPN" xlink:title="AP030" d="M13935.9253,-3805.9177L13936.2198,-3806.464L13938.266,-3809.4135L13939.3997,-3810.3733"/>
<path content="AP030,1,28,1,0,15,1,8,JPN" xlink:title="AP030" d="M13978.7506,-3815.6475L13978.4134,-3815.2363L13977.7237,-3815.229L13977.3697,-3815.8375L13976.8448,-3816.3078L13976.4114,-3816.4394L13975.5508,-3816.3624L13974.7894,-3815.6059L13974.5422,-3814.9235L13974.2966,-3814.1724L13973.8708,-3813.8958L13973.7915,-3813.4869L13973.8052,-3812.7388L13973.5657,-3811.6482L13973.7473,-3811.1057L13974.7101,-3810.096L13974.202,-3809.6825L13973.703,-3808.6567L13973.7106,-3808.1806L13974.2371,-3807.6424L13974.4781,-3806.7062L13974.6994,-3805.8468"/>
<path content="AP030,1,28,1,0,14,1,8,JPN" xlink:title="AP030" d="M13969.5801,-3806.5334L13969.7693,-3806.6601L13969.8303,-3806.7867L13969.9005,-3807L13969.9905,-3807.2201L13970.0607,-3807.3067L13970.1294,-3807.3601L13970.2393,-3807.4001L13970.2957,-3807.4039L13970.43,-3807.4135L13970.5399,-3807.5268L13970.5795,-3807.56L13970.7199,-3807.5802L13971.4005,-3807.6134L13971.7407,-3807.6534L13971.7896,-3807.6534L13971.8094,-3807.6534L13971.9894,-3807.5268L13972.3801,-3807.5066L13972.7005,-3807.4001L13972.8607,-3807.3467L13972.9904,-3807.2868L13973.1293,-3807.2201L13973.2407,-3807.1468L13973.3307,-3806.9134L13973.3795,-3806.8199L13973.5596,-3806.6601L13973.8602,-3806.48L13973.9899,-3806.3332L13974.1501,-3806.1733L13974.2004,-3806.1199L13974.3301,-3805.9399L13974.4003,-3805.8998L13974.6994,-3805.8468"/>
<path content="AP030,1,28,1,0,16,1,8,JPN" xlink:title="AP030" d="M13940.0873,-3810.8394L13939.9504,-3810.651L13939.7807,-3810.3707L13939.58,-3809.842L13939.4,-3809.261L13938.97,-3808.731L13938.42,-3808.154L13937.93,-3807.616L13937.54,-3807.191L13937.02,-3806.598L13936.64,-3806.148L13936.44,-3805.805L13936.419,-3805.7368"/>
<path content="AP030,1,28,1,0,15,1,8,JPN" xlink:title="AP030" d="M13935.9253,-3805.9177L13936.419,-3805.7368"/>
<path content="AP030,1,28,1,0,14,1,8,JPN" xlink:title="AP030" d="M13932.2422,-3805.3053L13933.02,-3805.8998L13933.5403,-3806.3534L13934.1095,-3806.8733L13934.8099,-3807.4867L13934.8801,-3807.6134L13934.9701,-3807.74L13934.9899,-3807.7732L13935.1105,-3807.9201L13935.3607,-3808.1532L13935.8795,-3808.6201L13935.8994,-3808.68L13935.8994,-3808.6933L13935.9497,-3808.8402L13936.0397,-3809.0401L13936.0794,-3809.1068L13936.1298,-3809.1469L13936.2,-3809.1999L13936.2198,-3809.2201L13936.4304,-3809.2869L13936.5402,-3809.38L13937.0605,-3809.8133L13937.5397,-3810.2798L13937.6801,-3810.4801L13937.7396,-3810.68L13937.7396,-3810.7132"/>
<path content="AP030,1,28,1,0,15,1,8,JPN" xlink:title="AP030" d="M13932.6126,-3805.2966L13933.1907,-3805.5108L13933.4668,-3805.6174L13933.7943,-3805.658L13934.7446,-3805.851L13935.4381,-3805.8916L13935.6949,-3806.0337L13935.9253,-3805.9177"/>
<path content="AP030,1,28,1,0,15,1,8,JPN" xlink:title="AP030" d="M13932.2422,-3805.3053L13932.6126,-3805.2966"/>
<path content="AP030,1,28,1,0,15,1,8,JPN" xlink:title="AP030" d="M13940.0873,-3810.8394L13940.5468,-3810.5779L13940.6599,-3810.5007L13940.7576,-3810.3951L13940.9015,-3810.1473L13940.8981,-3809.7908L13940.39,-3808.8356L13940.332,-3807.1274L13940.1596,-3806.2145L13940.3671,-3805.9055L13940.9393,-3805.0545"/>
<path content="AP030,1,28,1,0,14,1,8,JPN" xlink:title="AP030" d="M13939.5126,-3805.2822L13939.8987,-3805.2208L13940.9393,-3805.0545"/>
<path content="AP030,1,28,1,0,15,1,8,JPN" xlink:title="AP030" d="M13936.419,-3805.7368L13937.4924,-3805.3432L13938.4583,-3805.0533L13939.5126,-3805.2822"/>
<path content="AP030,1,28,1,0,14,1,8,JPN" xlink:title="AP030" d="M13974.6994,-3805.8468L13974.8993,-3805.7934L13974.9695,-3805.7732L13975.1999,-3805.7201L13975.2396,-3805.7068L13975.3799,-3805.5267L13975.5798,-3805.2868L13975.7904,-3805.0201L13975.9293,-3804.9133L13976.1307,-3804.7668L13976.2405,-3804.6799"/>
<path content="AP030,1,28,1,0,15,1,8,JPN" xlink:title="AP030" d="M13935.1547,-3804.5631L13935.9253,-3805.9177"/>
<path content="AP030,1,28,1,0,15,1,8,JPN" xlink:title="AP030" d="M13932.6126,-3805.2966L13932.9852,-3805.3077L13933.2934,-3805.262L13933.6723,-3805.1604L13934.02,-3805.01L13934.4364,-3804.8558L13935.1547,-3804.5631"/>
<path content="AP030,1,28,1,0,14,1,8,JPN" xlink:title="AP030" d="M13976.2405,-3804.6799L13976.4297,-3804.5532L13976.5793,-3804.4998L13976.8295,-3804.48L13977.0203,-3804.48L13977.2003,-3804.3865L13977.3605,-3804.3331L13977.4902,-3804.2999L13977.7206,-3804.2999L13977.7405,-3804.2999L13978.0396,-3804.4266L13978.27,-3804.5334L13978.6499,-3804.6799L13978.7399,-3804.7134L13978.9703,-3804.8L13979.3304,-3804.9465L13979.4693,-3804.9866L13979.6494,-3805.0201L13979.6997,-3805.0201L13979.8599,-3805.0934L13979.9698,-3805.1266L13980.0598,-3805.1067L13980.22,-3805.0934L13980.3802,-3805.0732L13980.5603,-3805.1468L13980.7404,-3805.1998L13980.9296,-3805.2532L13981.1096,-3805.2868L13981.3293,-3805.3268L13981.3599,-3805.3268L13981.6299,-3805.3467L13981.8604,-3805.2734L13982.2403,-3805.1266"/>
<path content="AP030,1,28,1,0,16,1,8,JPN" xlink:title="AP030" d="M13936.419,-3805.7368L13936.25,-3805.188L13935.9728,-3804.1623"/>
<path content="AP030,1,28,1,0,15,1,8,JPN" xlink:title="AP030" d="M13935.1547,-3804.5631L13935.9728,-3804.1623"/>
<path content="AP030,1,28,1,0,16,1,8,JPN" xlink:title="AP030" d="M13936.4044,-3803.9509L13936.4044,-3803.9536"/>
<path content="AP030,1,28,1,0,15,1,8,JPN" xlink:title="AP030" d="M13935.9728,-3804.1623L13936.4044,-3803.9509"/>
<path content="AP030,1,28,1,0,14,1,8,JPN" xlink:title="AP030" d="M13947.4304,-3803.7601L13947.58,-3804.0134L13947.6303,-3804.0798L13947.6807,-3804.1733L13947.8104,-3804.2599L13948.0606,-3804.2999L13948.0804,-3804.3201L13948.3795,-3804.4266L13948.6298,-3804.5532L13948.7396,-3804.6799L13949.0402,-3804.8199L13949.1501,-3804.9667L13949.3301,-3805.1468L13949.3805,-3805.22L13949.4904,-3805.3268L13949.6796,-3805.3799L13950.0198,-3805.4134L13950.2701,-3805.4531L13950.3998,-3805.5065L13950.5402,-3805.5599L13950.7904,-3805.7068L13950.9003,-3805.8132L13951.1795,-3806.0135L13951.2207,-3806.1333L13951.3306,-3806.2267L13951.5396,-3806.3534L13951.5793,-3806.6067L13951.6098,-3806.6601L13951.7197,-3806.8733L13951.77,-3807.1068L13951.7899,-3807.18L13951.9501,-3807.4001L13952.15,-3807.5401L13952.4307,-3807.7068L13952.5803,-3807.8468L13952.6093,-3808.3866L13952.6794,-3808.6933L13952.6993,-3808.9867L13952.6794,-3809.0534L13952.4902,-3809.1469L13952.33,-3809.2335L13952.1805,-3809.38L13952.0599,-3809.5066L13952.0142,-3809.8507L13951.9897,-3810.0266L13951.8799,-3810.0666L13951.9302,-3810.3199"/>
<path content="AP030,1,28,1,0,15,1,8,JPN" xlink:title="AP030" d="M13944.2001,-3806.8199L13945.2805,-3806.8142L13945.8633,-3806.4804L13946.8353,-3805.9242L13947.2015,-3804.4495L13947.4304,-3803.7601"/>
<path content="AP030,1,28,1,0,15,1,8,JPN" xlink:title="AP030" d="M13947.4304,-3803.7601L13947.3801,-3803.6293"/>
<path content="AP030,1,28,1,0,14,1,8,JPN" xlink:title="AP030" d="M13947.3801,-3803.6293L13947.3801,-3803.6533L13947.4304,-3803.7601"/>
<path content="AP030,1,28,1,0,14,1,8,JPN" xlink:title="AP030" d="M13929.7699,-3803.4134L13929.9698,-3803.5599L13930.4306,-3803.8868L13930.5603,-3803.9398L13930.7693,-3803.9398L13931.0196,-3804.1332L13931.3293,-3804.48L13931.4896,-3804.6799L13931.9504,-3805.0934L13932.2006,-3805.2734L13932.2422,-3805.3053"/>
<path content="AP030,1,28,1,0,14,1,8,JPN" xlink:title="AP030" d="M13938.9694,-3803.3066L13939.0198,-3803.4332L13939.0793,-3803.54L13939.1296,-3803.6865L13939.2197,-3803.8334L13939.36,-3803.9734L13939.5599,-3804.1534L13939.7202,-3804.2999L13939.8804,-3804.4266L13939.9506,-3804.48L13940.2405,-3804.5532L13940.5197,-3804.62L13940.6998,-3804.7134L13940.8295,-3804.8401L13940.86,-3804.9133L13940.8798,-3804.9465L13941.0202,-3805.1998L13941.1499,-3805.36L13941.3101,-3805.5401L13941.4505,-3805.6866L13941.5207,-3805.74L13941.5802,-3805.8666L13941.6107,-3805.9399L13941.6504,-3806.0268L13941.7404,-3806.0799L13941.8793,-3806.1001L13942.1799,-3806.1333L13942.54,-3806.1932L13942.7399,-3806.2466L13943.0603,-3806.3732L13943.3105,-3806.4602L13943.5593,-3806.5132L13943.6096,-3806.5132L13943.7897,-3806.5334L13943.9896,-3806.5868L13944.0201,-3806.6067L13944.0598,-3806.62L13944.1299,-3806.6933L13944.2001,-3806.8199"/>
<path content="AP030,1,28,1,0,14,1,8,JPN" xlink:title="AP030" d="M13947.2382,-3803.2146L13947.3099,-3803.2734L13947.3801,-3803.3466L13947.3801,-3803.3798L13947.3801,-3803.5267L13947.3801,-3803.6133L13947.3801,-3803.6293"/>
<path content="AP030,1,28,1,0,15,1,8,JPN" xlink:title="AP030" d="M13936.4044,-3803.9536L13937.9257,-3803.0731L13938.6383,-3803.2326L13938.9694,-3803.3066"/>
<path content="AP030,1,28,1,0,14,1,8,JPN" xlink:title="AP030" d="M13982.2403,-3805.1266L13982.6096,-3804.9866L13982.7896,-3804.9133L13982.8995,-3804.8599L13982.9895,-3804.7333L13983.0597,-3804.5532L13983.0597,-3804.5132L13983.3099,-3804.4998L13983.5205,-3804.6799L13983.7006,-3804.8199L13983.8104,-3804.8599L13983.9005,-3804.8599L13984.1095,-3804.8199L13984.2407,-3804.7867L13984.3597,-3804.7867L13984.4299,-3804.7867L13984.5795,-3804.8199L13984.8099,-3804.8199L13985.0204,-3804.8199L13985.1105,-3804.8199L13985.2509,-3804.81L13985.5804,-3804.7867L13985.7697,-3804.7333L13985.8994,-3804.5868L13986.0199,-3804.3865L13986.0596,-3804.3201L13986.2198,-3804.1733L13986.2701,-3804.0798L13986.38,-3803.8467L13986.4899,-3803.7399L13986.5799,-3803.6133L13986.7706,-3803.4866L13986.9705,-3803.3066L13987.0804,-3803.2333L13987.2192,-3803.1799L13987.3306,-3803.0933L13987.6099,-3802.7866L13987.7197,-3802.66L13987.8799,-3802.4799L13987.8998,-3802.4399L13987.97,-3802.3869L13987.9898,-3802.3731"/>
<path content="AP030,1,28,1,0,14,1,8,JPN" xlink:title="AP030" d="M13991.33,-3801.7735L13991.6107,-3801.7067"/>
<path content="AP030,1,28,1,0,14,1,8,JPN" xlink:title="AP030" d="M13987.9898,-3802.3731L13988.0798,-3802.3201L13988.1805,-3802.2598L13988.3102,-3802.1935L13988.5803,-3802.0802L13988.7695,-3802.0466L13989.1098,-3802.0134L13989.2899,-3801.9531L13989.3799,-3801.8131L13989.4699,-3801.7067L13989.6103,-3801.6533L13989.9002,-3801.6533L13990.1794,-3801.7067L13990.5807,-3801.8131L13990.6845,-3801.8131L13990.9897,-3801.8131L13991.2704,-3801.7735L13991.33,-3801.7735"/>
<path content="AP030,1,28,1,0,15,1,8,JPN" xlink:title="AP030" d="M13982.2403,-3805.1266L13981.4362,-3803.2261L13981.5521,-3802.5169L13982.0145,-3801.997L13982.4768,-3801.619"/>
<path content="AP030,1,28,1,0,15,1,8,JPN" xlink:title="AP030" d="M13932.5043,-3801.5907L13935.1547,-3804.5631"/>
<path content="AP030,1,28,1,0,15,1,8,JPN" xlink:title="AP030" d="M13929.7699,-3803.4134L13931.9992,-3802.1553L13932.5043,-3801.5907"/>
<path content="AP030,1,28,1,0,14,1,8,JPN" xlink:title="AP030" d="M13991.33,-3801.7735L13991.4001,-3801.5598L13991.5405,-3801.4534"/>
<path content="AP030,1,28,1,0,14,1,4,JPN" xlink:title="AP030" d="M13991.6107,-3801.7067L13991.8594,-3801.6533L13992.1875,-3801.5659"/>
<path content="AP030,1,28,1,0,14,1,4,JPN" xlink:title="AP030" d="M13991.5405,-3801.4534L13991.9006,-3801.2531L13992.1875,-3801.1382"/>
<path content="AP030,1,28,1,0,15,1,8,JPN" xlink:title="AP030" d="M13982.4768,-3801.619L13984.2331,-3800.5966L13984.9503,-3801.3241L13986.9507,-3801.4874L13987.8769,-3802.2766L13987.9898,-3802.3731"/>
<path content="AP030,1,28,1,0,15,1,8,JPN" xlink:title="AP030" d="M13982.4768,-3801.619L13982.4768,-3801.2882L13981.5521,-3800.7683L13980.8975,-3800.554"/>
<path content="AP030,1,28,1,0,15,1,8,JPN" xlink:title="AP030" d="M13976.2405,-3804.6799L13976.05,-3803.468L13976.04,-3803.04L13976.13,-3802.716L13976.28,-3802.478L13976.58,-3802.269L13977.05,-3802.04L13977.68,-3801.776L13978.29,-3801.562L13979.14,-3801.234L13979.78,-3801.015L13980.8975,-3800.554"/>
<path content="AP030,1,28,1,0,15,1,8,JPN" xlink:title="AP030" d="M13980.8975,-3800.554L13980.397,-3800.3902"/>
<path content="AP030,1,28,1,0,16,1,8,JPN" xlink:title="AP030" d="M13934.0225,-3799.8974L13934.8864,-3800.7707L13935.2124,-3801.3657L13935.5133,-3802.0698L13935.8142,-3802.9921L13935.95,-3804.078L13935.9728,-3804.1623"/>
<path content="AP030,1,28,1,0,15,1,8,JPN" xlink:title="AP030" d="M13932.5043,-3801.5907L13934.0225,-3799.8974"/>
<path content="AP030,1,28,1,0,15,1,8,JPN" xlink:title="AP030" d="M13969.5801,-3806.5334L13969.6304,-3806.3969L13970.2438,-3804.7421L13971.2128,-3803.4603L13972.2641,-3802.3155L13973.5611,-3801.9215L13973.6389,-3802.3987L13974.1547,-3802.3361L13974.3408,-3801.5217L13975.4776,-3800.4456L13976.5167,-3799.9126L13977.2842,-3800.3284L13977.9785,-3799.9279L13978.244,-3799.4545L13980.397,-3800.3902"/>
<path content="AP030,1,28,1,0,14,1,8,JPN" xlink:title="AP030" d="M13938.9694,-3803.3066L13938.9694,-3803.2867L13938.8794,-3803.2001L13938.6993,-3803.0399L13938.6307,-3802.9999L13938.4293,-3802.66L13938.3102,-3802.4265L13938.1805,-3802.1534L13937.9303,-3801.6132L13937.6801,-3801.0399L13937.4893,-3800.6401L13937.3306,-3800.3201L13937.2894,-3800.2598L13937.2696,-3800.2266L13937.0605,-3799.8131L13936.6501,-3798.9468L13936.6104,-3798.8598L13936.2198,-3798.0999L13936.2,-3797.8466L13936.3998,-3797.4865L13936.38,-3797.1664"/>
<path content="AP030,1,28,1,0,15,1,8,JPN" xlink:title="AP030" d="M13927.79,-3796.875L13929.7241,-3798.9357L13930.9937,-3800.0164L13932.5043,-3801.5907"/>
<path content="AP030,1,28,1,0,14,1,8,JPN" xlink:title="AP030" d="M13921.875,-3797.1021L13921.8994,-3797.1268L13922.0398,-3796.9868L13922.1298,-3796.9666L13922.6105,-3796.9467L13922.7402,-3796.9131L13922.7696,-3796.875M13924.4833,-3796.875L13924.9496,-3797.0398L13925.2396,-3797.1466L13925.2899,-3797.1798L13925.2396,-3797.3064L13924.7894,-3798.1731L13924.3805,-3798.9666L13924.3607,-3799.02L13924.6506,-3799.1665L13924.9496,-3799.2867L13925.5402,-3799.773L13925.8102,-3799.9531L13925.9705,-3800.0465L13926.0803,-3800.1198L13926.3794,-3800.2598L13926.4893,-3800.3201L13926.6495,-3800.4066L13926.7395,-3800.4601L13926.9897,-3800.5867L13927.2202,-3800.7332L13927.3804,-3800.8732L13927.6093,-3801.0399L13928.0197,-3801.3065L13928.0396,-3801.3802L13928.0807,-3801.4534L13928.1097,-3801.5266L13928.3295,-3801.72L13928.6499,-3802.0668L13928.7003,-3802.3869L13928.7399,-3802.7134L13928.8101,-3802.8198L13928.9902,-3802.9266L13929.4907,-3803.2333L13929.7699,-3803.4134"/>
<path content="AP030,1,28,1,0,14,1,8,JPN" xlink:title="AP030" d="M13936.3344,-3796.875L13936.3602,-3796.9265L13936.38,-3797.1664"/>
<path content="AP030,1,28,1,0,15,1,8,JPN" xlink:title="AP030" d="M13934.0225,-3799.8974L13933.9539,-3798.4272L13933.4015,-3797.3949L13933.4796,-3796.875"/>
<path content="AP030,1,28,1,0,16,1,8,JPN" xlink:title="AP030" d="M13930.0152,-3796.875L13930.748,-3797.3732L13932.4631,-3798.8735L13934.0225,-3799.8974"/>
<path content="AP030,1,28,1,0,14,1,8,JPN" xlink:title="AP030" d="M13925.3262,-3796.875L13925.4501,-3796.9467L13925.56,-3796.9997L13925.7202,-3797.0398L13925.9293,-3797.0398L13926.1795,-3797.02L13926.2695,-3797.02L13926.6296,-3796.9467L13926.8581,-3796.875"/>
<path content="AP030,1,28,1,0,14,1,8,JPN" xlink:title="AP030" d="M13940.4954,-3796.875L13940.5594,-3796.9265L13940.86,-3797.1664L13940.8997,-3797.4331L13941.04,-3797.6665L13941.1499,-3797.7932L13941.1804,-3797.7932L13941.2399,-3797.8466L13941.4001,-3797.9L13941.5604,-3797.953L13941.7206,-3798.0133L13941.8594,-3798.0465L13941.9006,-3798.0465L13941.9296,-3798.0465L13942.3599,-3798.3334L13942.8802,-3798.6797L13943.2693,-3798.8934L13943.4296,-3799.02L13943.4906,-3799.0532L13943.6798,-3799.0398L13943.7897,-3799.0398L13944.1803,-3799.2867L13944.4901,-3799.5399L13944.5801,-3799.6532L13944.6793,-3799.9199L13944.7693,-3800.0465L13944.9005,-3800.1331L13945.0607,-3800.193L13945.2393,-3800.3201L13945.3094,-3800.4066L13945.4697,-3800.6199L13945.5597,-3800.7668L13945.61,-3800.9266L13945.7001,-3800.9869L13945.8603,-3801.0532L13945.9,-3801.1665L13946.0403,-3801.3268L13946.0602,-3801.7601L13946.0205,-3801.8867L13945.99,-3802.0267L13946.0205,-3802.2068L13946.08,-3802.2598L13946.2204,-3802.3533L13946.3104,-3802.4799L13946.4294,-3802.6066L13946.5805,-3802.7668L13946.6995,-3802.9865L13946.7407,-3803.1067L13947.2,-3803.2001L13947.2198,-3803.2001L13947.2382,-3803.2146"/>
<path content="AP030,1,28,1,0,15,1,8,JPN" xlink:title="AP030" d="M13936.6996,-3796.875L13936.38,-3797.1664"/>
<path content="AP030,1,28,1,0,15,1,8,JPN" xlink:title="AP030" d="M13947.2382,-3803.2146L13948.3643,-3802.5127L13949.6552,-3801.9409L13950.5219,-3801.6087L13951.1475,-3801.5026L13951.4526,-3800.634L13952.7588,-3800.0813L13953.3585,-3798.8369L13953.9627,-3797.3648L13953.9843,-3796.875"/>
<path content="AP030,1,28,1,0,15,1,8,JPN" xlink:title="AP030" d="M13980.397,-3800.3902L13979.8203,-3799.823L13979.9347,-3798.4051L13980.3391,-3797.6013L13980.9753,-3796.8925L13981.0115,-3796.875"/>
<path content="AP030,1,28,1,0,15,1,8,JPN" xlink:title="AP030" d="M13992.1875,-3797.6603L13991.8831,-3797.5713L13991.4044,-3796.875"/>
<path content="AP030,1,28,1,0,14,1,8,JPN" xlink:title="AP030" d="M13946.5195,-3822.48L13949.1652,-3822.2814"/>
<path content="AP030,1,28,1,0,14,1,8,JPN" xlink:title="AP030" d="M13946.5195,-3822.48L13946.3593,-3822.3534L13946.3104,-3822.3186L13945.7199,-3821.9002L13945.6299,-3821.8334L13945.4498,-3821.8132L13945.3293,-3821.7731L13945.1492,-3821.74L13944.9905,-3821.6534L13944.7906,-3821.5801L13944.7205,-3821.5267L13944.6503,-3821.5065L13944.6419,-3821.3231L13944.5181,-3820.5147L13944.5254,-3819.699L13944.3802,-3818.4799L13944.4702,-3818.3735"/>
<path content="AP030,1,28,1,0,14,1,8,JPN" xlink:title="AP030" d="M13949.1652,-3822.2814L13949.2401,-3822.3732L13949.2706,-3822.3866L13949.3805,-3822.5533L13949.7406,-3823.0934L13949.7696,-3823.1068L13950.1495,-3823.6866L13950.3296,-3823.9735L13950.3998,-3824.0799L13950.3998,-3824.2599L13950.4303,-3824.4064L13950.4303,-3824.44"/>
<path content="AP030,1,28,1,1,16,1,8,JPN" xlink:title="AP030" d="M13940.9738,-3811.6936L13941.3397,-3812.135L13941.7528,-3812.9116L13942.0832,-3813.556L13943.1076,-3814.7456L13944.4625,-3816.4309L13945.2721,-3817.6535L13946.313,-3819.6858L13946.6269,-3820.165L13947.3704,-3820.6937L13948.4113,-3821.0241L13949.0392,-3821.1563L13949.8983,-3821.7346L13950.2784,-3822.3459L13950.4932,-3823.2051L13950.7906,-3823.7668L13951.6002,-3824.7417L13952.1124,-3825.3695L13952.3437,-3826.08L13952.2776,-3826.7574L13952.2445,-3827.4018L13952.1124,-3827.5174L13952.1784,-3827.7818"/>
</g>
</svg>
