<?xml version="1.0" encoding="UTF-8"?>
<svg  xmlns="http://www.w3.org/2000/svg" xmlns:xlink="http://www.w3.org/1999/xlink" xmlns:go="http://purl.org/svgmap/profile" property="f_code,acc,exs,rst,med,rtt,RSU,loc,soc" viewBox="13500.0 -3515.625 35.15625 35.15625" go:dataArea="13500.0 -3515.625 35.15625 35.15625" >
<metadata>
 <rdf:RDF xmlns:rdf="http://www.w3.org/1999/02/22-rdf-syntax-ns#" xmlns:crs="http://opengis.org/xmldtds/transformations.dtd" xmlns:svg="http://www.w3.org/svg" >
  <rdf:Description>
   <crs:CoordinateReferenceSystem rdf:resource="http://purl.org/crs/84" svg:transform="matrix(100.0,0.0,0.0,-100.0,0.0,0.0)" />
  </rdf:Description>
 </rdf:RDF>
</metadata>
<globalCoordinateSystem srsName="http://purl.org/crs/84" transform="matrix(100.0,0.0,0.0,-100.0,0.0,0.0)" />
<defs>
 <g id="p0" >
  <circle cx="0.0" cy="0.0" r="3" stroke="green" stroke-width="2.0" vector-effect="non-scaling-stroke" />
 </g>
</defs>
<g fill="none" fill-rule="evenodd" stroke="#00ff00" stroke-width="2" opacity="0.5" vector-effect="non-scaling-stroke" stroke-linejoin="bevel" >
<path content="AP030,1,28,1,0,14,1,8,JPN" xlink:title="AP030" d="M13505.22,-3515.2199L13505.4703,-3515.2332L13505.7205,-3515.2733L13505.8304,-3515.2866L13505.9006,-3515.3065L13505.9692,-3515.3599L13506.0593,-3515.625"/>
<path content="AP030,1,28,1,0,14,1,8,JPN" xlink:title="AP030" d="M13504.7897,-3515.2L13505.22,-3515.2199"/>
<path content="AP030,1,28,1,0,15,1,8,JPN" xlink:title="AP030" d="M13504.7719,-3515.625L13504.7897,-3515.2"/>
<path content="AP030,1,28,1,0,14,1,8,JPN" xlink:title="AP030" d="M13504.7195,-3515.2L13504.7897,-3515.2"/>
<path content="AP030,1,28,1,0,14,1,8,JPN" xlink:title="AP030" d="M13506.5033,-3515.625L13506.4896,-3515.4865L13506.4301,-3515.073L13506.4301,-3514.9666"/>
<path content="AP030,1,28,1,0,14,1,8,JPN" xlink:title="AP030" d="M13505.22,-3515.2199L13505.3299,-3515.1066L13505.5206,-3514.9998L13505.8105,-3514.9666L13506.1584,-3514.946L13506.4301,-3514.9666"/>
<path content="AP030,1,28,1,0,16,1,8,JPN" xlink:title="AP030" d="M13511.9439,-3515.625L13512.1307,-3515.0932L13512.3795,-3514.5664L13512.4496,-3514.373L13512.6099,-3514.2067L13512.8098,-3514.08L13513.06,-3513.9931L13513.3102,-3513.9732"/>
<path content="AP030,1,28,1,0,14,1,8,JPN" xlink:title="AP030" d="M13506.4301,-3514.9666L13506.4301,-3514.9132L13506.4896,-3514.7331L13506.6299,-3514.3333L13506.7001,-3514.1731L13506.9,-3514.0133L13507.1106,-3513.7733"/>
<path content="AP030,1,28,1,0,14,1,8,JPN" xlink:title="AP030" d="M13504.7195,-3515.2L13504.7195,-3514.9864L13504.8294,-3514.8933L13505.22,-3514.6065L13505.4001,-3514.4798L13505.5405,-3514.4066L13505.8807,-3514.2467L13506.1096,-3514.1197L13506.4301,-3513.8664L13506.5598,-3513.7733L13506.8253,-3513.76L13507.1106,-3513.7733"/>
<path content="AP030,1,28,1,0,16,1,8,JPN" xlink:title="AP030" d="M13513.3102,-3513.9732L13513.5193,-3513.953L13513.6993,-3513.8866L13513.9297,-3513.7932L13514.0793,-3513.813L13514.2197,-3513.8466L13514.4501,-3513.9198L13514.7003,-3513.953L13514.9307,-3513.9732L13515.1093,-3513.94L13515.3107,-3513.9L13515.5197,-3513.7932L13515.6296,-3513.5933"/>
<path content="AP030,1,28,1,0,15,1,8,JPN" xlink:title="AP030" d="M13526.2964,-3515.625L13526.2772,-3515.6059L13525.2243,-3514.6366L13522.5266,-3512.9669"/>
<path content="AP030,1,28,1,0,15,1,8,JPN" xlink:title="AP030" d="M13513.3102,-3513.9732L13514.7614,-3514.3673L13518.1824,-3513.5056L13519.696,-3512.9669L13521.0785,-3512.9669L13522.5266,-3512.9669"/>
<path content="AP030,1,28,1,0,14,1,8,JPN" xlink:title="AP030" d="M13504.7195,-3515.2L13504.2404,-3515.2L13504.1107,-3515.2L13504.0207,-3515.2L13503.9703,-3515.1466L13503.8101,-3514.9265L13503.6804,-3514.7667L13503.4302,-3514.5332L13503.1494,-3514.3867L13502.9694,-3514.2799L13502.8107,-3514.08L13502.8107,-3514.0667L13502.6993,-3513.8466L13502.4902,-3513.6868L13502.3804,-3513.5265L13502.33,-3513.4533L13502.2903,-3513.4331L13501.9501,-3513.4331L13501.86,-3513.4132L13501.6998,-3513.3465L13501.5396,-3513.2198L13501.2695,-3513.1065L13501.0803,-3512.9868L13500.9506,-3512.8597L13500.8804,-3512.7464L13500.8102,-3512.5668L13500.7004,-3512.3199L13500.5402,-3512.08L13500.5203,-3511.993"/>
<path content="AP030,1,28,1,0,15,1,8,JPN" xlink:title="AP030" d="M13502.7225,-3515.625L13502.3788,-3514.4863L13502.0096,-3514.0343L13501.1475,-3513.5071L13500.7401,-3513.1298L13500.5066,-3512.5065L13500.5203,-3511.993"/>
<path content="AP030,1,28,1,0,14,1,8,JPN" xlink:title="AP030" d="M13507.1106,-3513.7733L13507.3807,-3513.5399L13507.3807,-3513.3465L13507.3807,-3513.1268L13507.4005,-3513.0531L13507.4905,-3512.9665L13507.6096,-3512.9131L13507.8796,-3512.7666L13508.02,-3512.693L13508.2199,-3512.5134L13508.5602,-3512.1933L13508.6105,-3512.1532L13508.8593,-3511.8668L13508.9706,-3511.8134L13509.1995,-3511.7599"/>
<path content="AP030,1,28,1,0,16,1,4,JPN" xlink:title="AP030" d="M13516.4505,-3511.6131L13516.4505,-3511.7599L13516.4902,-3511.94L13516.4307,-3512.133L13516.4001,-3512.3333L13516.33,-3512.5134L13516.2003,-3512.7464L13516.04,-3513.0398L13515.86,-3513.3266L13515.6296,-3513.5933"/>
<path content="AP030,1,28,1,0,14,1,8,JPN" xlink:title="AP030" d="M13500.5203,-3511.993L13500.47,-3511.9198L13500.2701,-3511.7931L13500.1801,-3511.6531L13500.0397,-3511.3068L13500,-3511.2827L13500,-3511.2827"/>
<path content="AP030,1,28,1,0,15,1,8,JPN" xlink:title="AP030" d="M13518.2419,-3509.0302L13519.368,-3510.7586L13520.5521,-3511.7283L13521.3409,-3512.3207L13522.5266,-3512.9669"/>
<path content="AP030,1,28,1,0,15,1,8,JPN" xlink:title="AP030" d="M13518.0511,-3508.7372L13518.2419,-3509.0302"/>
<path content="AP030,1,28,1,0,16,1,8,JPN" xlink:title="AP030" d="M13516.4505,-3511.6131L13516.4307,-3511.1465L13516.4505,-3511.0199L13516.5802,-3510.8398L13516.8106,-3510.6197L13516.9296,-3510.4599L13516.9296,-3510.3001L13516.9006,-3510.12L13516.8793,-3509.9731L13516.7694,-3509.6333L13516.6504,-3509.2865L13516.6306,-3508.7868L13516.6306,-3508.4999"/>
<path content="AP030,1,28,1,0,15,1,8,JPN" xlink:title="AP030" d="M13518.2419,-3509.0302L13520.108,-3508.4145L13522.2824,-3508.4717"/>
<path content="AP030,1,28,1,0,14,1,8,JPN" xlink:title="AP030" d="M13500,-3508.6376L13500,-3508.6376L13500.3799,-3508.353"/>
<path content="AP030,1,28,1,0,15,1,8,JPN" xlink:title="AP030" d="M13500,-3508.4606L13500,-3508.4606L13500.3799,-3508.353"/>
<path content="AP030,1,28,1,0,15,1,8,JPN" xlink:title="AP030" d="M13516.04,-3508.3L13516.6306,-3508.4999"/>
<path content="AP030,1,28,1,0,14,1,8,JPN" xlink:title="AP030" d="M13509.1995,-3511.7599L13509.4894,-3511.7733L13509.8801,-3511.8332L13510.0403,-3511.8668L13510.2707,-3512.0464L13510.4004,-3512.1532L13510.5194,-3512.1933L13510.7193,-3512.1933L13510.8093,-3512.1933L13510.9695,-3512.133L13511.2,-3512.133L13511.3998,-3512.1532L13511.5204,-3512.2265L13511.5601,-3512.2467L13511.6104,-3512.2066L13511.6104,-3512.133L13511.5402,-3512.0667L13511.5799,-3511.993L13511.9003,-3511.7397L13511.9507,-3511.6867L13511.9293,-3511.5398L13511.9904,-3511.2732L13512.0407,-3511.0931L13512.1994,-3510.8601L13512.5595,-3510.5534L13513.1805,-3509.9934L13513.4903,-3509.8331L13513.6093,-3509.7733L13513.7695,-3509.7733L13513.9297,-3509.7401L13514.3295,-3509.6531L13514.4501,-3509.5932L13514.5203,-3509.5798L13514.6103,-3509.56L13514.9307,-3509.3998L13515.0803,-3509.3067L13515.1093,-3509.3067L13515.2206,-3509.3067L13515.2893,-3509.3266L13515.4297,-3509.2331L13515.6097,-3509.0931L13515.6296,-3508.9268L13515.6998,-3508.7997L13516.04,-3508.3"/>
<path content="AP030,1,28,1,0,14,1,8,JPN" xlink:title="AP030" d="M13500.3799,-3508.353L13500.5203,-3508.1333"/>
<path content="AP030,1,28,1,0,15,1,8,JPN" xlink:title="AP030" d="M13522.2824,-3508.4717L13522.2107,-3507.819"/>
<path content="AP030,1,28,1,0,15,1,8,JPN" xlink:title="AP030" d="M13504.2114,-3507.6778L13505.0476,-3508.0021L13505.9616,-3508.0704L13506.6422,-3508.5518L13506.6467,-3508.5533L13508.1497,-3509.1209L13509.1187,-3509.2155L13510.025,-3508.9767L13510.8444,-3508.3569L13511.5356,-3508.3195L13512.6404,-3508.5148L13513.9954,-3508.2355L13515.0833,-3508.4274L13516.04,-3508.3"/>
<path content="AP030,1,28,1,0,15,1,8,JPN" xlink:title="AP030" d="M13504.2114,-3507.6778L13504.8096,-3508.3427L13505.1666,-3508.7387L13505.1559,-3509.2804L13505.1605,-3509.2999L13505.2444,-3509.6382L13505.8167,-3510.0437L13505.8273,-3510.0452L13506.6391,-3510.1784L13508.139,-3510.865L13508.8821,-3511.3022L13509.1995,-3511.7599"/>
<path content="AP030,1,28,1,0,15,1,8,JPN" xlink:title="AP030" d="M13520.5383,-3507.5302L13522.2107,-3507.819"/>
<path content="AP030,1,28,1,0,15,1,8,JPN" xlink:title="AP030" d="M13516.6306,-3508.4999L13518.3258,-3508.0734L13520.2301,-3507.8865L13520.5383,-3507.5302"/>
<path content="AP030,1,28,1,0,15,1,8,JPN" xlink:title="AP030" d="M13519.4473,-3507.3811L13519.7769,-3507.5169L13520.5383,-3507.5302"/>
<path content="AP030,1,28,1,0,15,1,8,JPN" xlink:title="AP030" d="M13500.5203,-3508.1333L13502.2278,-3507.3441L13502.9449,-3507.4646L13504.2114,-3507.6778"/>
<path content="AP030,1,28,1,0,14,1,8,JPN" xlink:title="AP030" d="M13535.1562,-3514.3545L13535.1501,-3514.3532L13535.0204,-3514.3532L13534.8602,-3514.3532L13534.2896,-3514.32L13534.0607,-3514.2998L13533.7006,-3514.1197L13533.5403,-3514.0465L13533.3801,-3513.8866L13533.2901,-3513.7932L13533.2397,-3513.5597L13533.2001,-3513.3801L13533.1802,-3513.2732L13533.2199,-3513.2332L13533.3603,-3513.1065L13533.4,-3513.0531L13533.4,-3512.9665L13533.3298,-3512.8731L13533.3298,-3512.8399L13533.4,-3512.7331L13533.5403,-3512.4065L13533.5403,-3512.2467L13533.5602,-3511.7199L13533.5403,-3511.6131L13533.5403,-3511.5601L13533.49,-3511.4532L13533.4305,-3511.4132L13533.2703,-3511.3464L13532.8598,-3511.2331L13532.6492,-3511.1668L13532.4707,-3511.0733L13532.0404,-3510.7666L13532.0206,-3510.7468L13531.9,-3510.64L13531.8604,-3510.5133L13531.72,-3510.0998L13531.6101,-3509.7198L13531.5598,-3509.5066L13531.5201,-3509.2533L13531.5201,-3509.1064L13531.5201,-3509.0733L13531.5598,-3509.0199L13531.81,-3508.7666L13531.8298,-3508.68L13531.8298,-3508.5667L13531.9,-3508.4267L13532.0206,-3508.26L13532.3303,-3507.9933L13532.5195,-3507.9399L13532.8995,-3507.8465L13532.9895,-3507.7732L13533.02,-3507.7065L13533.0399,-3507.5066L13533.1299,-3507.3601L13533.1802,-3507.2731"/>
<path content="AP030,1,28,1,0,15,1,8,JPN" xlink:title="AP030" d="M13522.2107,-3507.819L13522.3419,-3507.1823"/>
<path content="AP030,1,28,1,0,15,1,8,JPN" xlink:title="AP030" d="M13521.8948,-3507.1079L13522.3419,-3507.1823"/>
<path content="AP030,1,28,1,0,15,1,8,JPN" xlink:title="AP030" d="M13520.5383,-3507.5302L13521.3028,-3507.1026L13521.8948,-3507.1079"/>
<path content="AP030,1,28,1,0,14,1,8,JPN" xlink:title="AP030" d="M13533.1802,-3507.2731L13533.3603,-3507.2201L13533.6105,-3507.1465L13533.7204,-3507.093"/>
<path content="AP030,1,28,1,0,15,1,8,JPN" xlink:title="AP030" d="M13522.2824,-3508.4717L13523.349,-3508.4999L13525.5554,-3509.2316L13526.3748,-3509.2239L13527.4506,-3508.7875L13527.4109,-3508.136L13527.6291,-3507.4501L13527.8595,-3506.8398"/>
<path content="AP030,1,28,1,0,14,1,8,JPN" xlink:title="AP030" d="M13527.8595,-3506.8398L13527.9495,-3506.8398L13528.2196,-3506.8398L13528.36,-3506.8398L13528.5599,-3506.7665L13528.7003,-3506.7665L13529.1794,-3506.9668L13529.3106,-3506.9668L13529.4296,-3506.9668L13529.7394,-3506.9267L13529.8996,-3506.9267L13530.4306,-3507.0534L13530.5405,-3507.04L13530.8304,-3507.0198L13531.0196,-3507.0198L13531.2698,-3507.1068L13531.4301,-3507.18L13531.5796,-3507.18L13531.7398,-3507.2201L13531.9,-3507.2865L13531.9504,-3507.2865L13532.0404,-3507.2533L13532.0801,-3507.2533L13532.2906,-3507.2731L13532.3593,-3507.2731L13532.5394,-3507.2533L13533.1802,-3507.2731"/>
<path content="AP030,1,28,1,0,14,1,8,JPN" xlink:title="AP030" d="M13533.7204,-3507.093L13534.1797,-3507.093L13534.8297,-3507.0732L13534.9701,-3507.1068L13535.08,-3507.1667L13535.1563,-3507.1957"/>
<path content="AP030,1,28,1,0,15,1,8,JPN" xlink:title="AP030" d="M13517.8802,-3506.7333L13519.4473,-3507.3811"/>
<path content="AP030,1,28,1,0,16,1,8,JPN" xlink:title="AP030" d="M13516.6306,-3508.4999L13516.7007,-3508.0265L13516.8106,-3507.793L13516.9296,-3507.6134L13517.1494,-3507.3799L13517.4301,-3507.1068L13517.7399,-3506.86L13517.8802,-3506.7333"/>
<path content="AP030,1,28,1,0,14,1,8,JPN" xlink:title="AP030" d="M13524.5193,-3506.5865L13524.8795,-3506.6799L13525.4501,-3506.8398L13525.7401,-3506.8932L13526.4297,-3506.9668L13526.7395,-3506.9668L13527.24,-3506.8199L13527.8595,-3506.8398"/>
<path content="AP030,1,28,1,0,15,1,8,JPN" xlink:title="AP030" d="M13522.3419,-3507.1823L13522.6761,-3507.238L13523.1186,-3506.9572L13524.1455,-3506.7974L13524.5193,-3506.5865"/>
<path content="AP030,1,28,1,0,15,1,8,JPN" xlink:title="AP030" d="M13516.2399,-3506.4999L13517.5842,-3506.691L13517.8802,-3506.7333"/>
<path content="AP030,1,28,1,0,14,1,8,JPN" xlink:title="AP030" d="M13516.04,-3508.3L13516.2003,-3508.0132L13516.2903,-3507.9399L13516.4001,-3507.8999L13516.4902,-3507.8465L13516.5207,-3507.7198L13516.4902,-3507.6332L13516.4307,-3507.5397L13516.4108,-3507.4856L13516.3803,-3507.3997L13516.3803,-3507.3265L13516.4505,-3507.1999L13516.5207,-3507.093L13516.5207,-3506.9668L13516.3803,-3506.8398L13516.2201,-3506.7867L13516.2201,-3506.7131L13516.2003,-3506.5865L13516.2399,-3506.4999"/>
<path content="AP030,1,28,1,0,15,1,8,JPN" xlink:title="AP030" d="M13519.4473,-3507.3811L13519.0811,-3506.5784L13518.2404,-3506.1531"/>
<path content="AP030,1,28,1,0,16,1,8,JPN" xlink:title="AP030" d="M13517.8802,-3506.7333L13517.9306,-3506.6399L13518.1107,-3506.4068L13518.2404,-3506.1531"/>
<path content="AP030,1,28,1,0,14,1,8,JPN" xlink:title="AP030" d="M13522.0596,-3505.4333L13522.29,-3505.4531L13522.4304,-3505.5599L13522.7005,-3505.74L13523.6298,-3506.1733L13524.0799,-3506.3198L13524.4293,-3506.4068L13524.5193,-3506.5865"/>
<path content="AP030,1,28,1,0,15,1,8,JPN" xlink:title="AP030" d="M13521.8948,-3507.1079L13521.8994,-3505.8319L13522.0596,-3505.4333"/>
<path content="AP030,1,28,1,0,15,1,8,JPN" xlink:title="AP030" d="M13518.2404,-3506.1531L13517.8802,-3506.0101L13517.9337,-3505.2593L13517.9413,-3505.1666"/>
<path content="AP030,1,28,1,0,14,1,8,JPN" xlink:title="AP030" d="M13516.2399,-3506.4999L13516.4505,-3506.3732L13516.5604,-3506.3L13516.6504,-3506.2798L13516.9296,-3506.2599L13517.0197,-3506.1932L13517.1097,-3506.0131L13517.3599,-3505.5931L13517.45,-3505.3467L13517.5797,-3505.2532L13517.8101,-3505.1666L13517.9413,-3505.1666"/>
<path content="AP030,1,28,1,0,14,1,8,JPN" xlink:title="AP030" d="M13517.9413,-3505.1666L13517.9504,-3505.1666L13517.9504,-3505.04"/>
<path content="AP030,1,28,1,0,15,1,8,JPN" xlink:title="AP030" d="M13517.9413,-3505.1666L13517.9504,-3505.04"/>
<path content="AP030,1,28,1,0,14,1,8,JPN" xlink:title="AP030" d="M13518.1534,-3503.4622L13518.3105,-3503.5599L13518.5394,-3503.6865L13518.7698,-3503.7399L13519.0399,-3503.8132L13519.2703,-3503.9398L13519.5801,-3504.1531L13519.8105,-3504.2999L13519.9295,-3504.3732L13520.1492,-3504.4266L13520.2896,-3504.5334L13520.5795,-3504.7333L13520.7397,-3504.8199L13520.9305,-3504.9133L13521.2402,-3505.1666L13521.5805,-3505.4001L13521.7407,-3505.4131L13522.0596,-3505.4333"/>
<path content="AP030,1,28,1,0,16,1,8,JPN" xlink:title="AP030" d="M13518.2404,-3506.1531L13518.3594,-3505.8666L13518.4006,-3505.3265L13518.3594,-3505.0732L13518.2007,-3504.4598L13518.2007,-3503.9398L13518.1534,-3503.4622"/>
<path content="AP030,1,28,1,0,15,1,8,JPN" xlink:title="AP030" d="M13527.8595,-3506.8398L13528.3157,-3505.5344L13528.6453,-3504.9419L13528.9749,-3504.2419L13529.895,-3503.5419L13530.4871,-3503.2185L13530.8823,-3502.734"/>
<path content="AP030,1,28,1,0,14,1,8,JPN" xlink:title="AP030" d="M13515.9897,-3502.2266L13516.2903,-3502.4067L13516.4505,-3502.4998L13516.5604,-3502.5333L13516.9495,-3502.5532L13517.0593,-3502.6066L13517.45,-3502.8931L13517.5598,-3503.0399L13517.6498,-3503.273L13517.6804,-3503.3066L13517.7399,-3503.3264L13517.8101,-3503.3466L13518.0206,-3503.3798L13518.1534,-3503.4622"/>
<path content="AP030,1,28,1,0,14,1,8,JPN" xlink:title="AP030" d="M13517.9504,-3505.04L13517.9504,-3505.0198L13517.5797,-3504.4998L13517.3096,-3504.1931L13517.2394,-3504.0131L13517.2195,-3503.6133L13517.1997,-3503.5065L13517.1295,-3503.3798L13516.6504,-3503.0731L13516.1102,-3502.6398L13515.9897,-3502.5333L13515.9897,-3502.4529L13515.9897,-3502.2266"/>
<path content="AP030,1,28,1,0,14,1,8,JPN" xlink:title="AP030" d="M13500.5203,-3508.1333L13500.5798,-3507.8999L13500.5798,-3507.8331L13500.5798,-3507.5397L13500.5798,-3507.4867L13500.6302,-3507.3067L13500.7004,-3507.093L13500.6805,-3506.8932L13500.6805,-3506.7333L13500.6805,-3506.5865L13500.5798,-3506.4999L13500.47,-3506.4068L13500.1099,-3506.1199L13500,-3506.0432L13500,-3506.0432"/>
<path content="AP030,1,28,1,0,14,1,8,JPN" xlink:title="AP030" d="M13515.3305,-3501.6865L13515.4907,-3501.8867L13515.9897,-3502.2266"/>
<path content="AP030,1,28,1,0,14,1,8,JPN" xlink:title="AP030" d="M13509.1995,-3500.3864L13509.3307,-3500.4066L13509.8297,-3500.4799L13510.1105,-3500.4997L13510.1807,-3500.5131L13510.3104,-3500.5131L13510.3806,-3500.4997L13510.4294,-3500.4997L13510.6094,-3500.5131L13510.7193,-3500.5333L13510.9695,-3500.6199L13511.0397,-3500.6199L13511.38,-3500.6599L13511.8103,-3500.7133L13512.1506,-3500.8198L13512.4298,-3500.9132L13512.7396,-3501.1265L13512.8098,-3501.1265L13513.0402,-3501.1799L13513.5193,-3501.3466L13513.7894,-3501.5266L13513.8794,-3501.54L13514.0198,-3501.5598L13514.1998,-3501.6865L13514.36,-3501.7933L13514.4897,-3501.8131L13514.6301,-3501.8867L13514.83,-3501.8867L13514.9216,-3501.9024L13515.0192,-3501.9199L13515.1306,-3501.9199L13515.2206,-3501.8333L13515.3305,-3501.6865"/>
<path content="AP030,1,28,1,0,16,1,8,JPN" xlink:title="AP030" d="M13518.1534,-3503.4622L13518.1503,-3503.4332L13518.0801,-3503.3066L13517.9504,-3503.0533L13517.6804,-3502.6398L13517.6102,-3502.3731L13517.54,-3502.1L13517.5201,-3501.9932L13517.2394,-3501.7067L13516.9495,-3501.3798L13516.8304,-3501.3599L13516.5207,-3501.3798L13516.3605,-3501.3466L13516.2201,-3501.1799L13516.1499,-3500.9998L13515.8997,-3500.4997L13515.7196,-3500.1534L13515.712,-3500L13515.6998,-3499.7398L13515.6998,-3499.5598L13515.6799,-3499.4534L13515.5807,-3499.3053"/>
<path content="AP030,1,28,1,0,14,1,8,JPN" xlink:title="AP030" d="M13515.3305,-3501.6865L13515.3107,-3501.5266L13515.3305,-3501.2199L13515.3793,-3500.9666L13515.3595,-3500.8198L13515.3793,-3500.6065L13515.4297,-3500.5131L13515.5197,-3500.4265L13515.5197,-3500.2598L13515.4602,-3500L13515.4495,-3499.9531L13515.4297,-3499.6132L13515.5197,-3499.3999L13515.5807,-3499.3053"/>
<path content="AP030,1,28,1,0,15,1,8,JPN" xlink:title="AP030" d="M13500,-3499.2413L13500,-3499.2413L13500.0122,-3499.2428L13500.2808,-3499.4919L13500.592,-3499.9317L13501.0086,-3500L13501.413,-3500.0664L13502.6184,-3500.0553L13503.0273,-3500.3349L13503.447,-3501.2516L13504.1412,-3501.9459L13505.2658,-3502.2602L13507.2342,-3503.1586L13507.6706,-3503.8635L13509.3262,-3504.7699L13510.849,-3505.1033L13511.2869,-3505.4077L13513.1424,-3505.5214L13514.1296,-3506.1352L13515.2557,-3506.4255L13516.2399,-3506.4999"/>
<path content="AP030,1,28,1,0,15,1,8,JPN" xlink:title="AP030" d="M13530.8823,-3502.734L13531.3431,-3502.3029L13532.0663,-3502.2491L13532.988,-3502.0336L13533.5144,-3501.926L13533.7128,-3501.5491L13533.58,-3500.9567L13533.4488,-3500.2026L13533.4122,-3500L13533.252,-3499.1253L13532.9224,-3497.9942"/>
<path content="AP030,1,28,1,0,15,1,8,JPN" xlink:title="AP030" d="M13530.8823,-3502.734L13530.2246,-3502.4109L13529.8294,-3501.926L13529.567,-3501.4954L13529.0405,-3501.3874L13528.5797,-3501.3874L13528.3829,-3501.1719L13528.3157,-3500.795L13528.3157,-3500.2026L13528.0685,-3500L13528.0533,-3499.987L13527.9984,-3500L13527.5925,-3500.095L13527.0004,-3500.2026L13526.7365,-3500.2026L13526.5717,-3500L13526.474,-3499.8795L13526.1444,-3499.1795L13526.2115,-3498.8022L13526.8036,-3498.5329L13527.066,-3497.9942L13527.1317,-3497.348"/>
<path content="AP030,1,28,1,0,14,1,8,JPN" xlink:title="AP030" d="M13533.7204,-3507.093L13533.9294,-3506.9866L13534.1797,-3506.8398L13534.3307,-3506.62L13534.3597,-3506.5331L13534.3597,-3506.3866L13534.4299,-3506.2798L13534.4498,-3506.2065L13534.5398,-3506.1001L13534.61,-3505.9532L13534.6298,-3505.8331L13534.6802,-3505.7598L13534.8602,-3505.6332L13534.9503,-3505.4665L13535.1562,-3505.4118M13535.1562,-3504.8545L13535.0601,-3504.9866L13534.9503,-3505.0732L13534.8801,-3505.0934L13534.8099,-3505.0732L13534.6802,-3504.9866L13534.6497,-3504.9667L13534.6802,-3504.9133L13534.7702,-3504.6799L13534.8297,-3504.6066L13534.9701,-3504.48L13535.1303,-3504.3732L13535.1562,-3504.3461"/>
<path content="AP030,1,28,1,0,14,1,8,JPN" xlink:title="AP030" d="M13515.5807,-3499.3053L13515.6494,-3499.2001L13515.8295,-3499.1066L13515.8997,-3499.073L13515.9302,-3498.8598L13515.9302,-3498.7465L13515.7394,-3498.5332L13515.5807,-3498.5332L13515.4297,-3498.5664L13515.3595,-3498.5001L13515.3595,-3498.4264L13515.3305,-3498.2597L13515.3793,-3498.1331L13515.5396,-3497.9733L13515.6296,-3497.8664L13515.6799,-3497.7398L13515.7196,-3497.6131L13515.7394,-3497.5399L13515.7394,-3497.3999L13515.6494,-3497.2733L13515.6494,-3497.2198L13515.6799,-3497.1268"/>
<path content="AP030,1,28,1,0,15,1,8,JPN" xlink:title="AP030" d="M13532.9224,-3497.9942L13535.0021,-3498.5493L13535.1562,-3498.5223"/>
<path content="AP030,1,28,1,0,16,1,8,JPN" xlink:title="AP030" d="M13515.5807,-3499.3053L13515.5594,-3499.2733L13515.3793,-3498.9864L13515.1917,-3498.7766L13514.9902,-3498.5531L13514.74,-3498.1934L13514.7202,-3498.1197L13514.6301,-3497.9733L13514.5798,-3497.7734L13514.5798,-3497.58L13514.6301,-3497.253L13514.5798,-3497.0398L13514.4897,-3496.7999L13514.3295,-3496.693L13513.9297,-3496.5668L13513.5193,-3496.4066L13513.3102,-3496.2467"/>
<path content="AP030,1,28,1,0,16,1,8,JPN" xlink:title="AP030" d="M13513.3102,-3496.2467L13513.2202,-3496.1201"/>
<path content="AP030,1,28,1,0,15,1,8,JPN" xlink:title="AP030" d="M13509.1995,-3500.3864L13509.256,-3500L13509.4009,-3498.9838L13509.5886,-3498.7007L13510.4263,-3498.2193L13510.5362,-3497.9939L13510.6262,-3497.522L13511.319,-3496.9715L13512.3611,-3496.2536L13513.2202,-3496.1201"/>
<path content="AP030,1,28,1,0,15,1,8,JPN" xlink:title="AP030" d="M13514.0015,-3495.7161L13514.2746,-3495.8698L13514.4043,-3495.9343L13515.0314,-3496.2444L13515.0131,-3496.7663L13515.0543,-3496.9345L13515.0848,-3497.0619L13515.3198,-3497.1809L13515.4266,-3497.1645L13515.6799,-3497.1268"/>
<path content="AP030,1,28,1,0,15,1,8,JPN" xlink:title="AP030" d="M13513.3102,-3496.2467L13514.0015,-3495.7161"/>
<path content="AP030,1,28,1,0,15,1,8,JPN" xlink:title="AP030" d="M13523.4131,-3495.578L13524.3698,-3496.3894L13525.351,-3497.2713L13526.1932,-3497.7291L13526.6785,-3497.636L13527.1317,-3497.348"/>
<path content="AP030,1,28,1,0,15,1,8,JPN" xlink:title="AP030" d="M13522.0596,-3505.4333L13522.4762,-3504.8615L13522.7249,-3503.7365L13522.9156,-3503.4439L13523.2101,-3503.2722L13523.0316,-3502.9854L13522.9156,-3502.6318L13523.0484,-3502.3594L13523.6191,-3502.2709L13523.6374,-3501.9932L13523.6328,-3501.6682L13524.3317,-3501.7479L13524.9344,-3501.614L13525.0351,-3501.3866L13524.585,-3500.5531L13524.2294,-3500.3971L13524.2142,-3500L13524.2096,-3499.8856L13524.2691,-3499.0299L13524.0387,-3498.6942L13523.7244,-3498.3543L13523.3566,-3497.1764L13523.2269,-3496.2189L13523.4131,-3495.578"/>
<path content="AP030,1,28,1,0,15,1,8,JPN" xlink:title="AP030" d="M13513.5605,-3495.4666L13514.0015,-3495.7161"/>
<path content="AP030,1,28,1,0,16,1,8,JPN" xlink:title="AP030" d="M13513.2202,-3496.1201L13513.2004,-3495.8866L13513.2904,-3495.7199L13513.5605,-3495.4666"/>
<path content="AP030,1,28,1,0,14,1,8,JPN" xlink:title="AP030" d="M13515.6799,-3497.1268L13515.6998,-3497.0932L13515.7196,-3497.0398L13515.8096,-3496.9666L13515.9302,-3496.8597L13516.1804,-3496.5668L13516.2704,-3496.5134L13516.3803,-3496.5L13516.5405,-3496.46L13516.6504,-3496.4397L13516.7206,-3496.3867L13516.8106,-3496.2799L13516.9006,-3496.0667L13517.0395,-3495.8134L13517.2699,-3495.3266"/>
<path content="AP030,1,28,1,0,14,1,8,JPN" xlink:title="AP030" d="M13517.2699,-3495.3266L13517.2897,-3495.2332"/>
<path content="AP030,1,28,1,0,15,1,8,JPN" xlink:title="AP030" d="M13517.3096,-3495.1668L13517.2897,-3495.2332"/>
<path content="AP030,1,28,1,0,15,1,8,JPN" xlink:title="AP030" d="M13517.2699,-3495.3266L13517.662,-3495.5811L13518.4555,-3496.3154L13518.8995,-3496.4294L13519.7708,-3496.0537L13520.7657,-3495.5444L13521.5271,-3495.5345L13521.9803,-3495.1153L13522.2916,-3495.0836L13523.0316,-3495.3743L13523.4131,-3495.578"/>
<path content="AP030,1,28,1,0,15,1,8,JPN" xlink:title="AP030" d="M13515.3351,-3494.5992L13515.5518,-3494.7369L13515.9836,-3495.013L13516.8427,-3495.2168L13517.3096,-3495.1668"/>
<path content="AP030,1,28,1,0,15,1,8,JPN" xlink:title="AP030" d="M13514.0015,-3495.7161L13514.2822,-3495.5013L13514.8697,-3494.8532L13515.3351,-3494.5992"/>
<path content="AP030,1,28,1,0,15,1,8,JPN" xlink:title="AP030" d="M13515.3351,-3494.5992L13516.5787,-3493.906"/>
<path content="AP030,1,28,1,0,15,1,8,JPN" xlink:title="AP030" d="M13515.86,-3493.3266L13516.5787,-3493.906"/>
<path content="AP030,1,28,1,0,16,1,8,JPN" xlink:title="AP030" d="M13513.5605,-3495.4666L13513.7207,-3495.3068L13513.9297,-3495.0531L13514.0793,-3494.8399L13514.2899,-3494.68L13514.65,-3494.5L13515.0192,-3494.3199L13515.3793,-3494.1334L13515.5594,-3493.9934L13515.7394,-3493.7199L13515.86,-3493.4666L13515.86,-3493.3266"/>
<path content="AP030,1,28,1,0,14,1,8,JPN" xlink:title="AP030" d="M13517.3096,-3495.1668L13517.3798,-3494.9265L13517.4896,-3494.7666L13517.6102,-3494.5133L13517.6498,-3494.4401L13517.8299,-3494.3333L13518.5593,-3493.8999L13518.6996,-3493.7931L13518.7897,-3493.7065L13518.8095,-3493.5932L13518.8995,-3493.5398L13519.1498,-3493.3998L13519.2001,-3493.3468L13519.22,-3493.1065L13519.22,-3493.0931L13519.31,-3493.0199L13519.3298,-3492.9867"/>
<path content="AP030,1,28,1,0,15,1,8,JPN" xlink:title="AP030" d="M13516.5787,-3493.906L13518.0756,-3493.3479L13518.6234,-3492.9745L13519.0338,-3492.8886L13519.0414,-3492.8871L13519.3298,-3492.9867"/>
<path content="AP030,1,28,1,0,14,1,8,JPN" xlink:title="AP030" d="M13519.3298,-3492.9867L13519.3298,-3492.7467L13519.3298,-3492.6933L13519.3802,-3492.68"/>
<path content="AP030,1,28,1,0,14,1,8,JPN" xlink:title="AP030" d="M13500,-3493.4513L13500,-3493.4513L13500.1099,-3493.4868L13500.2197,-3493.5265L13500.4898,-3493.5398L13500.7202,-3493.6131L13501.1093,-3493.8999L13501.1505,-3493.9198L13501.3107,-3493.94L13501.8997,-3494.26L13502.1103,-3494.4065L13502.1301,-3494.4599L13502.2003,-3494.6068L13502.4002,-3494.7666L13502.6993,-3495.2198L13502.9007,-3495.3266L13503.1097,-3495.4865L13503.3798,-3495.7733L13503.45,-3495.8332L13503.54,-3495.8466L13503.6804,-3496.08L13503.9902,-3496.3734L13504.1107,-3496.5332L13504.3594,-3496.7464L13504.5197,-3496.8933L13504.6494,-3497.0734L13504.8599,-3497.2198L13505.2002,-3497.3999L13505.3604,-3497.4865L13505.5206,-3497.5266L13505.6503,-3497.5399L13505.7205,-3497.5399L13505.8105,-3497.58L13505.8807,-3497.6532L13505.9296,-3497.8867L13506.0196,-3498.0801L13506.0806,-3498.1731L13506.0806,-3498.2468L13506.0806,-3498.3334L13506.0196,-3498.4066L13506.0196,-3498.4798L13506.0593,-3498.5867L13506.0593,-3498.7865L13506.0196,-3498.8731L13505.9692,-3498.9666L13506.0196,-3499.1665L13506.1493,-3499.3599L13506.2393,-3499.4534L13506.5201,-3499.5934L13506.7703,-3499.7398L13507.0206,-3499.8867L13507.1106,-3499.9001L13507.4295,-3499.9733L13507.4936,-3500L13507.6492,-3500.0668L13507.8598,-3500.0797L13507.93,-3500.1198L13508.11,-3500.2266L13508.3801,-3500.2998L13508.8104,-3500.3532L13509.1995,-3500.3864"/>
<path content="AP030,1,28,1,0,15,1,8,JPN" xlink:title="AP030" d="M13515.3793,-3491.8465L13515.831,-3491.9304L13516.8854,-3492.0048L13518.1274,-3492.2531L13518.9484,-3492.5327L13519.3802,-3492.68"/>
<path content="AP030,1,28,1,0,16,1,8,JPN" xlink:title="AP030" d="M13515.86,-3493.3266L13515.86,-3493.1667L13515.8295,-3492.9867L13515.8096,-3492.6201L13515.7394,-3492.3866L13515.6097,-3492.1734L13515.3793,-3491.8465"/>
<path content="AP030,1,28,1,0,16,1,8,JPN" xlink:title="AP030" d="M13500,-3492.0132L13500,-3492.0132L13500.3998,-3492.0132L13500.65,-3491.9201L13501.0803,-3491.8133L13501.3794,-3491.7732"/>
<path content="AP030,1,28,1,0,15,1,8,JPN" xlink:title="AP030" d="M13527.1317,-3497.348L13527.4612,-3496.5942L13527.5925,-3495.7863L13527.5925,-3494.4935L13527.33,-3492.9855L13526.9348,-3492.77L13526.3428,-3492.878L13525.9476,-3492.8242L13525.4868,-3492.5549L13525.0259,-3491.9624L13524.6323,-3491.7042"/>
<path content="AP030,1,28,1,0,15,1,8,JPN" xlink:title="AP030" d="M13523.4131,-3495.578L13523.494,-3494.8162L13523.4039,-3494.0926L13523.526,-3493.1702L13523.8632,-3492.374L13524.6323,-3491.7042"/>
<path content="AP030,1,28,1,0,15,1,8,JPN" xlink:title="AP030" d="M13515.3595,-3491.6332L13515.3793,-3491.8465"/>
<path content="AP030,1,28,1,0,15,1,8,JPN" xlink:title="AP030" d="M13524.6323,-3491.7042L13524.3683,-3491.5314"/>
<path content="AP030,1,28,1,0,15,1,8,JPN" xlink:title="AP030" d="M13532.9224,-3497.9942L13532.3959,-3497.1325L13532.3303,-3496.4863L13532.3959,-3495.409L13532.6599,-3494.8708L13533.3176,-3494.2783L13533.6456,-3494.009L13534.0408,-3494.1166L13534.3704,-3494.1704L13534.5016,-3494.009L13534.1721,-3493.5242L13533.9752,-3493.0393L13534.1721,-3492.6624L13534.5673,-3492.2318L13535.1562,-3491.8939"/>
<path content="AP030,1,28,1,0,15,1,8,JPN" xlink:title="AP030" d="M13530.9479,-3491.1545L13532.3303,-3491.3158L13534.1064,-3491.3158L13535.1562,-3491.2882"/>
<path content="AP030,1,28,1,0,15,1,8,JPN" xlink:title="AP030" d="M13506.3889,-3491.0446L13507.1198,-3491.7213L13507.6218,-3492.3805L13509.5581,-3492.9962L13510.6766,-3493.8889L13511.1816,-3494.1399L13511.9125,-3493.9262L13513.5605,-3495.4666"/>
<path content="AP030,1,28,1,0,15,1,8,JPN" xlink:title="AP030" d="M13501.3794,-3491.7732L13502.6779,-3491.9163L13504.4998,-3491.5146L13505.4108,-3491.4001L13506.041,-3491.2853L13506.3889,-3491.0446"/>
<path content="AP030,1,28,1,0,15,1,8,JPN" xlink:title="AP030" d="M13506.1096,-3490.7867L13506.3889,-3491.0446"/>
<path content="AP030,1,28,1,0,16,1,8,JPN" xlink:title="AP030" d="M13501.3794,-3491.7732L13501.6998,-3491.7599L13501.8997,-3491.7065L13502.3804,-3491.5264L13502.6093,-3491.4532L13503.0197,-3491.4532L13503.5202,-3491.4665L13503.7003,-3491.3998L13503.9307,-3491.2731L13504.2007,-3491.053L13504.3594,-3490.9866L13504.4693,-3490.9664L13504.7394,-3490.9664L13505.2399,-3491.04L13505.4306,-3491.04L13505.6107,-3491L13505.8594,-3490.8932L13506.1096,-3490.7867"/>
<path content="AP030,1,28,1,0,15,1,8,JPN" xlink:title="AP030" d="M13500,-3490.7112L13500,-3490.7112L13500.5066,-3490.9412L13501.3794,-3491.7732"/>
<path content="AP030,1,28,1,0,15,1,8,JPN" xlink:title="AP030" d="M13506.3889,-3491.0446L13506.9519,-3490.6548"/>
<path content="AP030,1,28,1,0,15,1,8,JPN" xlink:title="AP030" d="M13506.9519,-3490.6548L13508.2047,-3490.5228L13508.9951,-3490.6792L13509.4009,-3491.0053L13509.8358,-3491.333L13510.3485,-3491.3582L13511.2198,-3491.1884L13511.9308,-3491.2464L13512.9547,-3490.9424L13513.6215,-3491.2106L13514.3616,-3491.2701L13515.0711,-3491.3513L13515.3595,-3491.6332"/>
<path content="AP030,1,28,1,0,15,1,8,JPN" xlink:title="AP030" d="M13524.3683,-3491.5314L13525.0916,-3491.2083L13526.474,-3490.4003L13527.4612,-3490.2927L13528.3829,-3490.239L13529.7638,-3490.7234L13530.9479,-3491.1545"/>
<path content="AP030,1,28,1,0,15,1,8,JPN" xlink:title="AP030" d="M13506.9519,-3490.6548L13507.1106,-3489.8865"/>
<path content="AP030,1,28,1,0,16,1,8,JPN" xlink:title="AP030" d="M13506.1096,-3490.7867L13506.3995,-3490.5331L13506.7902,-3490.1199L13507.1106,-3489.8865"/>
<path content="AP030,1,28,1,0,16,1,8,JPN" xlink:title="AP030" d="M13515.3595,-3491.6332L13515.4007,-3491.3597L13515.5594,-3491.04L13515.6296,-3490.8199L13515.6296,-3490.6067L13515.4495,-3490.3L13515.3793,-3490.1333L13515.3305,-3489.9532L13515.1794,-3489.7598L13515.1093,-3489.6133L13515.0803,-3489.3265"/>
<path content="AP030,1,28,1,0,15,1,8,JPN" xlink:title="AP030" d="M13524.3683,-3491.5314L13523.9731,-3491.3158L13523.5794,-3490.6158L13523.3154,-3489.9158L13523.0606,-3489.233"/>
<path content="AP030,1,28,1,0,14,1,8,JPN" xlink:title="AP030" d="M13519.3802,-3492.68L13519.4901,-3492.68L13519.5404,-3492.68L13519.6503,-3492.5667L13519.8303,-3492.4801L13519.9295,-3492.4267L13520.0195,-3492.3199L13520.1294,-3492.2264L13520.4498,-3491.9933L13520.5399,-3491.9201L13520.6802,-3491.6664L13520.7001,-3491.5264L13520.8099,-3491.3467L13521.0602,-3491.0732L13521.2402,-3490.6799L13521.2906,-3490.5666L13521.4294,-3490.1932L13521.4706,-3490.0265L13521.6995,-3489.8464L13522.4503,-3489.4867L13522.6105,-3489.3997L13522.8607,-3489.3066L13523.0606,-3489.233"/>
<path content="AP030,1,28,1,0,16,1,8,JPN" xlink:title="AP030" d="M13507.1106,-3489.8865L13507.3303,-3489.7732L13507.6797,-3489.653L13507.8796,-3489.5931L13508.11,-3489.4531L13508.3298,-3489.3265L13508.49,-3489.2731L13508.8593,-3489.22L13509.0607,-3489.1666L13509.1797,-3489.1068L13509.4696,-3488.8931"/>
<path content="AP030,1,28,1,0,16,1,8,JPN" xlink:title="AP030" d="M13511.3602,-3488.8L13511.6104,-3488.9866L13511.7203,-3489.04L13511.9003,-3489.1068L13512.1307,-3489.1464L13512.4298,-3489.1068L13512.5198,-3489.1068L13512.6495,-3489.093L13513.1302,-3488.9465L13513.2706,-3488.9133L13513.3804,-3488.9133L13513.5406,-3488.9668L13513.8306,-3489.0732L13514.0198,-3489.1464L13514.2197,-3489.1666L13514.4302,-3489.1666L13514.7003,-3489.2532L13514.9307,-3489.3265L13515.0803,-3489.3265"/>
<path content="AP030,1,28,1,0,15,1,8,JPN" xlink:title="AP030" d="M13509.4696,-3488.8931L13510.2448,-3488.9915L13511.3602,-3488.8"/>
<path content="AP030,1,28,1,0,15,1,8,JPN" xlink:title="AP030" d="M13530.9479,-3491.1545L13530.4642,-3490.6212L13530.2795,-3489.22L13530.426,-3488.7394"/>
<path content="AP030,1,28,1,0,15,1,8,JPN" xlink:title="AP030" d="M13507.1106,-3489.8865L13507.4417,-3488.9915L13507.933,-3488.7051L13508.493,-3488.5902L13509.4696,-3488.8931"/>
<path content="AP030,1,28,1,0,16,1,8,JPN" xlink:title="AP030" d="M13509.4696,-3488.8931L13509.8801,-3488.5864L13510.2005,-3488.4998"/>
<path content="AP030,1,28,1,0,16,1,8,JPN" xlink:title="AP030" d="M13510.2005,-3488.4998L13510.3302,-3488.48L13510.6094,-3488.4998L13510.9695,-3488.6066L13511.3602,-3488.8"/>
<path content="AP030,1,28,1,0,16,1,8,JPN" xlink:title="AP030" d="M13515.0803,-3489.3265L13515.2405,-3489.3265L13515.4907,-3489.2864L13515.6998,-3489.1998L13515.8798,-3489.04L13516.0797,-3488.7665L13516.2903,-3488.62L13516.5207,-3488.533L13516.6794,-3488.4998L13517.1295,-3488.4998L13517.3096,-3488.48L13517.54,-3488.4266L13518.0405,-3488.4266L13518.2404,-3488.3732L13518.6295,-3488.2267L13518.7897,-3488.1199"/>
<path content="AP030,1,28,1,0,16,1,8,JPN" xlink:title="AP030" d="M13518.7897,-3488.1199L13518.9896,-3488.1733L13519.1498,-3488.1001L13519.1803,-3487.9398L13519.1299,-3487.8498"/>
<path content="AP030,1,28,1,0,16,1,8,JPN" xlink:title="AP030" d="M13518.7897,-3488.1199L13518.9301,-3488.0131L13519.1299,-3487.8498"/>
<path content="AP030,1,28,1,0,14,1,8,JPN" xlink:title="AP030" d="M13511.3602,-3488.8L13511.2198,-3488.2999L13511.2701,-3488.2065L13511.3297,-3488.1199L13511.4899,-3488.0131L13511.5601,-3487.8666L13511.5799,-3487.6667L13511.6501,-3487.6331L13512.1506,-3487.6331"/>
<path content="AP030,1,28,1,0,14,1,8,JPN" xlink:title="AP030" d="M13523.0606,-3489.233L13523.2697,-3489.1068L13523.4497,-3489.04L13523.5199,-3488.9866L13523.4863,-3488.8374L13523.4695,-3488.7665L13523.3795,-3488.4266L13523.3597,-3488.3732L13523.1506,-3488.1001L13522.9294,-3487.9398L13522.3999,-3487.5931"/>
<path content="AP030,1,28,1,0,15,1,8,JPN" xlink:title="AP030" d="M13523.0606,-3489.233L13522.9523,-3488.9984L13522.4869,-3487.9841L13522.3999,-3487.5931"/>
<path content="AP030,1,28,1,0,14,1,8,JPN" xlink:title="AP030" d="M13522.3999,-3487.5931L13522.3801,-3487.4001L13522.3999,-3487.22L13522.58,-3486.9465L13522.7905,-3486.6798L13522.9294,-3486.5868L13522.9507,-3486.5334L13522.9706,-3486.3533"/>
<path content="AP030,1,28,1,0,16,1,8,JPN" xlink:title="AP030" d="M13519.1299,-3487.8498L13519.1101,-3487.8132L13518.8995,-3487.5267L13518.6493,-3487.1468L13518.4006,-3486.7867L13518.3105,-3486.5532L13518.3594,-3486.2801"/>
<path content="AP030,1,28,1,0,15,1,8,JPN" xlink:title="AP030" d="M13522.9706,-3486.3533L13523.3292,-3487.1277L13523.7198,-3487.1925L13524.35,-3487.4313L13524.6964,-3487.3085L13524.9863,-3486.7886L13525.5585,-3486.6535L13525.8575,-3486.7279L13526.2512,-3486.8256L13526.5198,-3486.7603L13526.651,-3486.7283L13526.4389,-3486.5559L13526.2268,-3486.3602L13526.4114,-3486.137L13527.0187,-3486.3049L13527.739,-3486.478L13528.6545,-3486.2659L13528.7247,-3486.2991L13529.0359,-3486.4464L13528.6972,-3486.8713L13528.7262,-3487.2673L13529.1641,-3487.4504L13529.5929,-3487.7491L13529.6829,-3488.0779L13529.953,-3488.253L13530.3085,-3488.409L13530.426,-3488.7394"/>
<path content="AP030,1,28,1,0,15,1,8,JPN" xlink:title="AP030" d="M13500,-3488.7035L13500,-3488.7035L13500.0778,-3488.7238L13501.3184,-3488.6719L13502.4734,-3489.0461L13503.6423,-3488.8546L13504.3961,-3489.0732L13506.1096,-3490.7867"/>
<path content="AP030,1,28,1,0,15,1,8,JPN" xlink:title="AP030" d="M13506.987,-3485.8303L13507.933,-3486.1816L13509.1232,-3487.0995L13509.8236,-3487.6728L13510.2005,-3488.4998"/>
<path content="AP030,1,28,1,0,15,1,8,JPN" xlink:title="AP030" d="M13512.1506,-3487.6331L13513.327,-3487.8517L13514.6576,-3487.3287L13515.2191,-3487.0419L13515.6387,-3487.0419L13515.9195,-3486.9846L13516.0599,-3486.6405L13516.1987,-3486.0096L13516.6199,-3485.7231"/>
<path content="AP030,1,28,1,0,15,1,8,JPN" xlink:title="AP030" d="M13516.6199,-3485.7231L13517.1799,-3485.7231L13517.601,-3485.8376L13518.3594,-3486.2801"/>
<path content="AP030,1,28,1,0,14,1,8,JPN" xlink:title="AP030" d="M13522.9706,-3486.3533L13523.0194,-3486.2267L13523.0606,-3486.153L13523.1506,-3485.9398L13523.3597,-3485.5598L13523.3307,-3485.4332L13523.2407,-3485.1467L13523.2895,-3484.9998"/>
<path content="AP030,1,28,1,0,16,1,8,JPN" xlink:title="AP030" d="M13519.1299,-3487.8498L13519.2398,-3487.7598L13519.4305,-3487.5797L13519.6106,-3487.22L13519.7906,-3486.9667L13519.9295,-3486.8401L13520.1492,-3486.7664L13520.43,-3486.713L13520.7001,-3486.66L13520.9503,-3486.5868L13521.08,-3486.4799L13521.2692,-3486.3197L13521.4005,-3486.153L13521.5393,-3485.8665L13521.6797,-3485.5801L13521.8094,-3485.4332L13521.9498,-3485.2734L13522.1497,-3485.0731L13522.2702,-3484.9133"/>
<path content="AP030,1,28,1,0,15,1,8,JPN" xlink:title="AP030" d="M13522.58,-3484.4601L13522.7005,-3484.5512L13523.2895,-3484.9998"/>
<path content="AP030,1,28,1,0,16,1,8,JPN" xlink:title="AP030" d="M13522.2702,-3484.9133L13522.3099,-3484.8598L13522.58,-3484.4601"/>
<path content="AP030,1,28,1,0,16,1,8,JPN" xlink:title="AP030" d="M13519.7906,-3484.3201L13520.2393,-3484.5131L13520.6802,-3484.8L13520.8099,-3484.84L13521.4905,-3484.9133L13521.7194,-3484.9266L13522.2702,-3484.9133"/>
<path content="AP030,1,28,1,0,16,1,8,JPN" xlink:title="AP030" d="M13518.3594,-3486.2801L13518.4296,-3485.9734L13518.6096,-3485.7067L13518.8599,-3485.4866L13519.0598,-3485.1799L13519.0796,-3485.1467L13519.2398,-3484.7668L13519.3802,-3484.5665L13519.5404,-3484.4265L13519.7906,-3484.3201"/>
<path content="AP030,1,28,1,0,16,1,8,JPN" xlink:title="AP030" d="M13519.7906,-3484.3201L13520.1096,-3484.1534"/>
<path content="AP030,1,28,1,0,14,1,8,JPN" xlink:title="AP030" d="M13523.2895,-3484.9998L13523.4299,-3484.7668L13523.6496,-3484.5665L13523.7,-3484.4799L13523.8098,-3483.9531L13523.8358,-3483.7933"/>
<path content="AP030,1,28,1,0,16,1,8,JPN" xlink:title="AP030" d="M13522.58,-3484.4601L13522.7005,-3484.3075L13522.7905,-3484.193L13523.0194,-3484.0134L13523.2697,-3483.9001L13523.4695,-3483.8467L13523.7198,-3483.7933L13523.8358,-3483.7933"/>
<path content="AP030,1,28,1,0,15,1,8,JPN" xlink:title="AP030" d="M13519.1299,-3483.7399L13520.1096,-3484.1534"/>
<path content="AP030,1,28,1,0,16,1,8,JPN" xlink:title="AP030" d="M13519.1299,-3483.7399L13519.7906,-3484.3201"/>
<path content="AP030,1,28,1,0,15,1,8,JPN" xlink:title="AP030" d="M13516.6199,-3485.7231L13517.2684,-3484.8423L13517.8894,-3484.4311L13519.1299,-3483.7399"/>
<path content="AP030,1,28,1,0,16,1,8,JPN" xlink:title="AP030" d="M13523.8358,-3483.7933L13523.9502,-3483.7933L13524.5193,-3483.8131L13524.8993,-3483.7601L13525.1297,-3483.72L13525.6302,-3483.72L13525.8102,-3483.7067L13526.0193,-3483.58L13526.2207,-3483.4866L13526.3596,-3483.4534L13526.6098,-3483.4866L13527.0599,-3483.54L13527.4704,-3483.58L13527.6505,-3483.58L13527.8595,-3483.54L13528.0396,-3483.4667L13528.2425,-3483.3466"/>
<path content="AP030,1,28,1,0,14,1,8,JPN" xlink:title="AP030" d="M13527.7695,-3483.1799L13527.8107,-3483.2001L13527.7893,-3483.2535L13527.6505,-3483.3466L13527.6505,-3483.3599L13527.7206,-3483.4L13527.8595,-3483.3797L13527.9907,-3483.3466L13528.2425,-3483.3466"/>
<path content="AP030,1,28,1,0,14,1,8,JPN" xlink:title="AP030" d="M13523.8358,-3483.7933L13523.88,-3483.5068L13523.8998,-3483.4133L13523.9304,-3483.3797L13523.97,-3483.2733L13523.97,-3483.02L13524.2004,-3483.0399"/>
<path content="AP030,1,28,1,0,14,1,8,JPN" xlink:title="AP030" d="M13524.2004,-3483.0399L13524.3607,-3483.02L13524.6094,-3482.9132"/>
<path content="AP030,1,28,1,0,15,1,8,JPN" xlink:title="AP030" d="M13524.2004,-3483.0399L13524.6094,-3482.9132"/>
<path content="AP030,1,28,1,0,14,1,8,JPN" xlink:title="AP030" d="M13524.6094,-3482.9132L13524.7696,-3482.8598L13524.9298,-3482.8732L13525.0198,-3482.9132L13525.2197,-3483.0399L13525.4303,-3483.1264L13525.6104,-3483.3466L13525.7202,-3483.3466L13525.8606,-3483.3065L13526.0803,-3483.2733L13526.4297,-3483.2867L13526.8097,-3483.3466L13527.1805,-3483.3797L13527.2903,-3483.3599L13527.5406,-3483.2333L13527.7695,-3483.1799"/>
<path content="AP030,1,28,1,0,14,1,8,JPN" xlink:title="AP030" d="M13528.2425,-3483.3466L13528.4302,-3483.3466L13528.5797,-3483.3466L13528.6301,-3483.2867L13528.7399,-3483.1799L13528.9001,-3483.1264L13529.1306,-3483.0734L13529.4495,-3483.0532L13529.4907,-3483.0532L13529.5197,-3483.1264L13529.5395,-3483.1467L13529.6097,-3483.1665L13529.7394,-3483.0933L13529.9301,-3482.9998L13530.2002,-3482.9666L13530.5206,-3482.9468L13530.5603,-3482.9132L13530.6107,-3482.7999L13530.6793,-3482.7133L13530.7953,-3482.6481L13530.8105,-3482.6401L13530.9494,-3482.5867L13530.9906,-3482.5134L13530.9814,-3482.4265"/>
<path content="AP030,1,28,1,0,16,1,8,JPN" xlink:title="AP030" d="M13528.2425,-3483.3466L13528.3096,-3483.3065L13528.7003,-3483.02L13528.8605,-3482.9266L13528.9703,-3482.9132L13529.2007,-3482.8934L13529.2892,-3482.8934L13529.4006,-3482.84L13529.8096,-3482.6935L13529.9698,-3482.6935L13530.2399,-3482.6935L13530.3299,-3482.6797L13530.5603,-3482.5665L13530.7907,-3482.46L13530.8044,-3482.4554L13530.9006,-3482.4265L13530.9814,-3482.4265"/>
<path content="AP030,1,28,1,0,16,1,8,JPN" xlink:title="AP030" d="M13530.9814,-3482.4265L13531.0806,-3482.4265L13531.2393,-3482.4066L13531.3538,-3482.375"/>
<path content="AP030,1,28,1,0,14,1,8,JPN" xlink:title="AP030" d="M13530.9814,-3482.4265L13530.9692,-3482.32L13530.9494,-3482.2067L13531.0196,-3482.1934L13531.1493,-3482.2266L13531.2698,-3482.28L13531.3538,-3482.375"/>
<path content="AP030,1,28,1,0,15,1,8,JPN" xlink:title="AP030" d="M13530.426,-3488.7394L13530.8823,-3488.6452L13531.3477,-3488.8523L13532.0465,-3488.9317L13532.5836,-3488.8874L13533.0612,-3488.4918L13533.2901,-3487.6438L13533.8974,-3487.394L13534.5764,-3486.9381L13534.9945,-3486.1919L13534.7809,-3485.6018L13533.7784,-3484.2091L13533.5068,-3482.8503L13533.2199,-3482.1732"/>
<path content="AP030,1,28,1,0,14,1,8,JPN" xlink:title="AP030" d="M13531.3538,-3482.375L13531.3995,-3482.4265L13531.4697,-3482.5001L13531.5796,-3482.5333L13531.7001,-3482.5001L13531.7902,-3482.3734L13531.81,-3482.2266L13531.7673,-3482.1499"/>
<path content="AP030,1,28,1,0,16,1,8,JPN" xlink:title="AP030" d="M13531.3538,-3482.375L13531.6803,-3482.1732L13531.7673,-3482.1499"/>
<path content="AP030,1,28,1,0,16,1,8,JPN" xlink:title="AP030" d="M13531.7673,-3482.1499L13531.8298,-3482.1335L13532.0404,-3482.0999L13532.2693,-3482.1335L13532.3593,-3482.1533L13532.6096,-3482.2067L13532.8995,-3482.2266L13533.0597,-3482.2067L13533.2199,-3482.1732"/>
<path content="AP030,1,28,1,0,14,1,8,JPN" xlink:title="AP030" d="M13512.1506,-3487.6331L13512.2894,-3487.4866L13512.3993,-3487.3066L13512.4298,-3487.1468L13512.4496,-3486.8599L13512.4298,-3486.713L13512.3596,-3486.66L13512.3093,-3486.5532L13512.3093,-3486.4265L13512.2894,-3486.3197L13512.1094,-3485.9932L13512.0193,-3485.8334L13512.0193,-3485.6533L13511.9507,-3485.5598L13511.8805,-3485.4866L13511.7706,-3485.453L13511.6302,-3485.4332L13511.5601,-3485.3798L13511.5204,-3485.2734L13511.5204,-3485.22L13511.5204,-3484.9998L13511.4304,-3484.8732L13511.3098,-3484.6798L13511.29,-3484.6397L13511.29,-3484.6066L13511.2396,-3484.4067L13511.2,-3484.1534L13511.1496,-3484.0134L13511.1099,-3483.9397L13511.1298,-3483.8467L13511.1298,-3483.8131L13511.1496,-3483.7067L13511.1099,-3483.6334L13510.9695,-3483.5266L13510.7193,-3483.3599L13510.6094,-3483.2535L13510.5194,-3483.0399L13510.4294,-3482.9132L13510.4004,-3482.6401L13510.3607,-3482.5665L13510.2402,-3482.5001L13510.1501,-3482.3868L13510.1105,-3482.1198L13510.0723,-3482.0896"/>
<path content="AP030,1,28,1,0,16,1,8,JPN" xlink:title="AP030" d="M13510.0723,-3482.0896L13510.4004,-3482.1198L13510.6796,-3482.0999L13511.2701,-3482.0667L13511.47,-3482.0801L13511.7401,-3482.1934L13512.0193,-3482.2598L13512.2696,-3482.28L13512.9898,-3482.1732L13513.3606,-3482.1198L13513.6093,-3482.1533L13514.0594,-3482.28L13514.3097,-3482.3734L13514.5798,-3482.5535L13514.83,-3482.8197L13515.0192,-3482.9865L13515.2695,-3483.0933L13515.5396,-3483.1665L13515.95,-3483.1799L13516.3803,-3483.1264L13516.8304,-3483.02L13517.3996,-3482.8732L13517.6498,-3482.84L13517.9001,-3482.8732L13518.1503,-3482.9865L13518.3105,-3483.1066L13518.6798,-3483.3599L13519.1299,-3483.7399"/>
<path content="AP030,1,28,1,0,15,1,8,JPN" xlink:title="AP030" d="M13506.987,-3485.8303L13507.579,-3484.9049L13507.7347,-3484.3464L13507.4722,-3483.6029L13507.7774,-3483.3351L13508.5678,-3482.6897L13508.8593,-3482.0465"/>
<path content="AP030,1,28,1,0,16,1,8,JPN" xlink:title="AP030" d="M13508.8593,-3482.0465L13509.1095,-3481.9935L13509.3597,-3481.9534L13509.61,-3481.9534L13509.9701,-3482.0801L13510.0723,-3482.0896"/>
<path content="AP030,1,28,1,0,14,1,8,JPN" xlink:title="AP030" d="M13531.7673,-3482.1499L13531.6803,-3481.9935L13531.6803,-3481.9401L13531.7703,-3481.7932L13531.8604,-3481.7398L13531.9504,-3481.72L13532.0404,-3481.72L13532.1793,-3481.76L13532.3303,-3481.8333L13532.5195,-3481.9401L13532.6492,-3481.9733L13532.93,-3481.9733L13533.0399,-3481.9534L13533.11,-3481.8867L13533.1177,-3481.8241L13533.1299,-3481.72L13533.1299,-3481.6334"/>
<path content="AP030,1,28,1,0,15,1,8,JPN" xlink:title="AP030" d="M13527.7695,-3483.1799L13527.28,-3482.262L13527.23,-3482.109L13527.18,-3481.79L13527.05,-3481.633L13526.883,-3481.5358"/>
<path content="AP030,1,28,1,0,15,1,8,JPN" xlink:title="AP030" d="M13524.6094,-3482.9132L13525.8759,-3482.0972L13526.8417,-3481.5628L13526.883,-3481.5358"/>
<path content="AP030,1,28,1,0,16,1,8,JPN" xlink:title="AP030" d="M13533.2199,-3482.1732L13533.58,-3482.0267L13533.7006,-3481.9935L13533.9905,-3481.9L13534.1995,-3481.8333L13534.4696,-3481.7734L13534.8099,-3481.7398L13535.1303,-3481.72L13535.1562,-3481.7119"/>
<path content="AP030,1,28,1,0,15,1,8,JPN" xlink:title="AP030" d="M13501.5793,-3481.2733L13502.6077,-3481.6517L13502.8885,-3482.1678L13502.8885,-3482.856L13502.8885,-3483.4866L13503.3081,-3483.8879L13505.0598,-3484.8057L13506.3919,-3485.6083L13506.987,-3485.8303"/>
<path content="AP030,1,28,1,0,16,1,8,JPN" xlink:title="AP030" d="M13500,-3482.1384L13500,-3482.1384L13500.1297,-3482.1732L13500.3296,-3482.1335L13500.5402,-3482.0667L13500.7401,-3481.9733L13500.9293,-3481.7932L13501.2207,-3481.5598L13501.5793,-3481.2733"/>
<path content="AP030,1,28,1,0,16,1,8,JPN" xlink:title="AP030" d="M13507.5195,-3481.1466L13507.8995,-3481.5266L13508.3099,-3481.9534L13508.5403,-3482.0465L13508.6304,-3482.0667L13508.8593,-3482.0465"/>
<path content="AP030,1,28,1,0,14,1,8,JPN" xlink:title="AP030" d="M13510.0723,-3482.0896L13509.9304,-3481.9733L13509.8099,-3481.8134L13509.79,-3481.76L13509.7198,-3481.5933L13509.7198,-3481.4865L13509.7397,-3481.3267L13509.7702,-3481.2534L13509.8801,-3481.1665L13510.1501,-3481.0398"/>
<path content="AP030,1,28,1,0,15,1,8,JPN" xlink:title="AP030" d="M13522.58,-3484.4601L13521.5942,-3483.0853L13520.9641,-3481.881L13519.9295,-3480.9868"/>
<path content="AP030,1,28,1,0,16,1,8,JPN" xlink:title="AP030" d="M13520.1096,-3484.1534L13520.5399,-3483.9001L13520.6802,-3483.773L13520.7397,-3483.6864L13520.7703,-3483.5068L13520.7199,-3483.3267L13520.6802,-3483.2199L13520.6299,-3482.9998L13520.61,-3482.8197L13520.5399,-3482.5867L13520.4697,-3482.4066L13520.3796,-3482.1732L13520.3598,-3481.8466L13520.2194,-3481.7066L13519.8807,-3481.3999L13519.8105,-3481.3065L13519.8105,-3481.2199L13519.9295,-3480.9868"/>
<path content="AP030,1,28,1,0,14,1,8,JPN" xlink:title="AP030" d="M13534.8083,-3480.8334L13534.8602,-3480.8735L13535.0601,-3480.8598L13535.1303,-3480.8598L13535.1563,-3480.9116"/>
<path content="AP030,1,28,1,0,14,1,8,JPN" xlink:title="AP030" d="M13533.1299,-3481.6334L13533.3099,-3481.5933L13533.49,-3481.58L13533.6105,-3481.3801L13533.7204,-3481.3065L13534.0195,-3481.1798L13534.4498,-3480.9853L13534.4894,-3480.9666L13534.79,-3480.8399L13534.8083,-3480.8334"/>
<path content="AP030,1,28,1,0,15,1,8,JPN" xlink:title="AP030" d="M13526.883,-3481.5358L13526.77,-3481.47L13526.22,-3481.277L13525.81,-3481.216L13525.43,-3481.174L13525.26,-3481.135L13525.1,-3481.059L13524.99,-3480.954L13524.86,-3480.774L13524.8312,-3480.6441"/>
<path content="AP030,1,28,1,0,15,1,8,JPN" xlink:title="AP030" d="M13510.1501,-3481.0398L13511.0153,-3481.1928L13512.5565,-3481.1356L13513.3972,-3481.0207L13514.0274,-3481.0207L13514.798,-3481.3076L13516.2689,-3481.7089L13517.4606,-3481.7089L13518.0206,-3481.422L13518.7912,-3480.7915L13519.2123,-3480.6767L13519.4229,-3480.5622L13519.9295,-3480.9868"/>
<path content="AP030,1,28,1,0,15,1,8,JPN" xlink:title="AP030" d="M13526.883,-3481.5358L13527.6672,-3481.0215L13527.8705,-3480.4687"/>
<path content="AP030,1,28,1,0,16,1,8,JPN" xlink:title="AP030" d="M13519.9295,-3480.9868L13520.0806,-3480.5134L13520.0756,-3480.4687"/>
<path content="AP030,1,28,1,0,14,1,8,JPN" xlink:title="AP030" d="M13534.8083,-3480.8334L13535.08,-3480.7331L13535.1562,-3480.7189"/>
<path content="AP030,1,28,1,0,15,1,8,JPN" xlink:title="AP030" d="M13500,-3480.4905L13500,-3480.4905L13500.2258,-3480.5046L13500.4364,-3480.5046L13500.856,-3481.0207L13501.207,-3481.2504L13501.5793,-3481.2733"/>
<path content="AP030,1,28,1,0,15,1,8,JPN" xlink:title="AP030" d="M13531.0794,-3480.4688L13531.7825,-3480.8891L13532.7698,-3481.3183L13533.1299,-3481.6334"/>
<path content="AP030,1,28,1,0,15,1,4,JPN" xlink:title="AP030" d="M13524.8312,-3480.6441L13524.7254,-3480.4933L13524.697,-3480.4688"/>
<path content="AP030,1,28,1,0,16,1,8,JPN" xlink:title="AP030" d="M13501.5793,-3481.2733L13502.0599,-3480.8735L13502.2003,-3480.7865L13502.5604,-3480.5332L13502.7145,-3480.4687M13506.792,-3480.4688L13506.8802,-3480.5534L13507.1503,-3480.7865L13507.5195,-3481.1466"/>
<path content="AP030,1,28,1,0,15,1,8,JPN" xlink:title="AP030" d="M13509.5783,-3480.4687L13510.1501,-3481.0398"/>
<path content="AP030,1,28,1,0,16,1,8,JPN" xlink:title="AP030" d="M13507.5195,-3481.1466L13507.8598,-3480.5866L13507.9248,-3480.4688"/>
<path content="AP030,1,28,1,0,14,1,8,JPN" xlink:title="AP030" d="M13510.1501,-3481.0398L13510.3104,-3480.9265L13510.4706,-3480.8201L13510.5392,-3480.7465L13510.5606,-3480.6801L13510.5606,-3480.4798L13510.5708,-3480.4688"/>
</g>
</svg>
