<?xml version="1.0" encoding="UTF-8"?>
<svg  xmlns="http://www.w3.org/2000/svg" xmlns:xlink="http://www.w3.org/1999/xlink" xmlns:go="http://purl.org/svgmap/profile" property="f_code,acc,exs,rst,med,rtt,RSU,loc,soc" viewBox="13042.96875 -3375.0 35.15625 35.15625" go:dataArea="13042.96875 -3375.0 35.15625 35.15625" >
<metadata>
 <rdf:RDF xmlns:rdf="http://www.w3.org/1999/02/22-rdf-syntax-ns#" xmlns:crs="http://opengis.org/xmldtds/transformations.dtd" xmlns:svg="http://www.w3.org/svg" >
  <rdf:Description>
   <crs:CoordinateReferenceSystem rdf:resource="http://purl.org/crs/84" svg:transform="matrix(100.0,0.0,0.0,-100.0,0.0,0.0)" />
  </rdf:Description>
 </rdf:RDF>
</metadata>
<globalCoordinateSystem srsName="http://purl.org/crs/84" transform="matrix(100.0,0.0,0.0,-100.0,0.0,0.0)" />
<defs>
 <g id="p0" >
  <circle cx="0.0" cy="0.0" r="3" stroke="green" stroke-width="2.0" vector-effect="non-scaling-stroke" />
 </g>
</defs>
<g fill="none" fill-rule="evenodd" stroke="#00ff00" stroke-width="2" opacity="0.5" vector-effect="non-scaling-stroke" stroke-linejoin="bevel" >
<path content="AP030,1,28,1,0,14,1,8,JPN" xlink:title="AP030" d="M13073.558,-3374.9996L13073.5596,-3375"/>
<path content="AP030,1,28,1,0,15,1,8,JPN" xlink:title="AP030" d="M13073.3746,-3375L13073.3978,-3374.9664L13073.558,-3374.9996"/>
<path content="AP030,1,28,1,0,15,1,8,JPN" xlink:title="AP030" d="M13054.1631,-3375L13054.2694,-3374.9134"/>
<path content="AP030,1,28,1,0,14,1,8,JPN" xlink:title="AP030" d="M13072.9294,-3374.9134L13073.3994,-3374.9664L13073.558,-3374.9996"/>
<path content="AP030,1,28,1,0,15,1,8,JPN" xlink:title="AP030" d="M13072.8609,-3375L13072.9294,-3374.9134"/>
<path content="AP030,1,28,1,0,15,1,8,JPN" xlink:title="AP030" d="M13055.3604,-3374.7997L13056.2865,-3375"/>
<path content="AP030,1,28,1,0,16,1,8,JPN" xlink:title="AP030" d="M13054.2694,-3374.9134L13055.3604,-3374.7997"/>
<path content="AP030,1,28,1,0,16,1,8,JPN" xlink:title="AP030" d="M13055.3604,-3374.7997L13055.6305,-3374.7868L13056.3379,-3375"/>
<path content="AP030,1,28,1,0,15,1,8,JPN" xlink:title="AP030" d="M13054.2694,-3374.9134L13054.5349,-3374.7654L13055.3604,-3374.7997"/>
<path content="AP030,1,28,1,0,14,1,8,JPN" xlink:title="AP030" d="M13072.9294,-3374.9134L13072.8607,-3374.5865"/>
<path content="AP030,1,28,1,0,15,1,8,JPN" xlink:title="AP030" d="M13059.7893,-3375L13059.8373,-3374.9516L13060.1501,-3374.4801"/>
<path content="AP030,1,28,1,0,16,1,8,JPN" xlink:title="AP030" d="M13056.9634,-3375L13057.2006,-3374.9664L13057.5195,-3374.9268L13057.8995,-3374.9268L13058.8593,-3374.8199L13059.4498,-3374.6067L13059.7702,-3374.4801L13060.1501,-3374.4801"/>
<path content="AP030,1,28,1,0,16,1,8,JPN" xlink:title="AP030" d="M13060.1501,-3374.4801L13060.8307,-3374.6597L13061.2396,-3374.7131L13061.3998,-3374.7131L13061.8607,-3374.5335L13062.0804,-3374.4267L13062.4298,-3374.3732L13062.8296,-3374.4801L13063.1104,-3374.6067L13063.3301,-3374.7665L13063.5406,-3374.9268L13063.657,-3375"/>
<path content="AP030,1,28,1,0,14,1,8,JPN" xlink:title="AP030" d="M13072.8607,-3374.5865L13072.8104,-3374.3198L13072.7707,-3374.1333"/>
<path content="AP030,1,28,1,0,15,1,8,JPN" xlink:title="AP030" d="M13064.3241,-3375L13064.6912,-3374.2397L13064.6866,-3374.1817L13064.6408,-3373.4779L13064.6408,-3373.4776"/>
<path content="AP030,1,28,1,0,15,1,8,JPN" xlink:title="AP030" d="M13069.1879,-3373.3952L13069.5908,-3373.4779L13070.0958,-3373.4779L13070.6009,-3373.5607L13070.8038,-3373.8087L13071.3089,-3373.9738L13072.4014,-3374.4053L13072.8607,-3374.5865"/>
<path content="AP030,1,28,1,0,15,1,8,JPN" xlink:title="AP030" d="M13070.0043,-3375L13069.8898,-3374.5888L13069.1879,-3373.3952"/>
<path content="AP030,1,28,1,0,14,1,8,JPN" xlink:title="AP030" d="M13075.6238,-3375L13075.5142,-3374.6391L13074.9054,-3373.5989L13074.6094,-3373.3799L13074.6094,-3373.3791"/>
<path content="AP030,1,28,1,0,15,1,8,JPN" xlink:title="AP030" d="M13073.558,-3374.9996L13074.6078,-3373.3799L13074.6094,-3373.3791"/>
<path content="AP030,1,28,1,0,15,1,8,JPN" xlink:title="AP030" d="M13066.1179,-3375L13066.0568,-3374.5525L13066.0749,-3373.34"/>
<path content="AP030,1,28,1,0,15,1,8,JPN" xlink:title="AP030" d="M13064.6408,-3373.4776L13066.0749,-3373.34"/>
<path content="AP030,1,28,1,0,15,1,8,JPN" xlink:title="AP030" d="M13061.9095,-3373.2571L13063.2278,-3373.4779L13064.0366,-3373.3952L13064.6408,-3373.4776"/>
<path content="AP030,1,28,1,0,15,1,8,JPN" xlink:title="AP030" d="M13060.1501,-3374.4801L13061.8027,-3373.3315L13061.9095,-3373.2571"/>
<path content="AP030,1,28,1,0,14,1,8,JPN" xlink:title="AP030" d="M13049.2418,-3375L13049.1104,-3374.86L13048.9502,-3374.6933L13048.6496,-3374.2268L13048.5199,-3374.0467L13048.3597,-3373.9399L13047.8607,-3373.74L13047.6807,-3373.6134L13047.58,-3373.4333L13047.5601,-3373.1667"/>
<path content="AP030,1,28,1,0,15,1,8,JPN" xlink:title="AP030" d="M13066.0843,-3372.7139L13067.2684,-3373.23L13067.7734,-3373.23L13068.1778,-3373.1472L13068.6829,-3373.23L13069.1879,-3373.3952"/>
<path content="AP030,1,28,1,0,15,1,8,JPN" xlink:title="AP030" d="M13066.0749,-3373.34L13066.0843,-3372.7139"/>
<path content="AP030,1,28,1,0,15,1,8,JPN" xlink:title="AP030" d="M13064.6408,-3373.4776L13066.0843,-3372.7139"/>
<path content="AP030,1,28,1,0,14,1,8,JPN" xlink:title="AP030" d="M13074.6094,-3373.3791L13074.4003,-3373.2201L13074.3103,-3373.0534L13074.2203,-3372.7135L13074.1806,-3372.6601"/>
<path content="AP030,1,28,1,0,15,1,8,JPN" xlink:title="AP030" d="M13072.7707,-3374.1333L13073.2269,-3373.1472L13074.1806,-3372.6601"/>
<path content="AP030,1,28,1,0,14,1,8,JPN" xlink:title="AP030" d="M13072.7707,-3374.1333L13072.6807,-3373.9399L13072.5403,-3373.7732L13072.4304,-3373.5798L13072.3099,-3373.3997L13072.1802,-3373.1464L13072.1222,-3373.1251L13071.9299,-3373.0534L13071.6507,-3372.9134L13071.6095,-3372.86L13071.5607,-3372.7867L13071.1304,-3372.4998L13071.0403,-3372.3866"/>
<path content="AP030,1,28,1,0,15,1,8,JPN" xlink:title="AP030" d="M13066.0843,-3372.7139L13068.3792,-3372.3206L13069.4901,-3372.3206L13070.8817,-3372.3797L13071.0403,-3372.3866"/>
<path content="AP030,1,28,1,0,15,1,8,JPN" xlink:title="AP030" d="M13060.7101,-3371.9742L13060.7117,-3371.9757L13061.9095,-3373.2571"/>
<path content="AP030,1,28,1,0,15,1,8,JPN" xlink:title="AP030" d="M13077.7802,-3370.496L13078.125,-3371.1822"/>
<path content="AP030,1,28,1,0,15,1,8,JPN" xlink:title="AP030" d="M13074.6094,-3373.3791L13076.6129,-3371.5332L13077.7802,-3370.496"/>
<path content="AP030,1,28,1,0,15,1,8,JPN" xlink:title="AP030" d="M13066.0843,-3372.7139L13065.6525,-3371.4111L13065.5518,-3370.2538"/>
<path content="AP030,1,28,1,0,15,1,8,JPN" xlink:title="AP030" d="M13061.9095,-3373.2571L13062.9257,-3371.7419L13064.0366,-3370.9152L13065.5518,-3370.2538"/>
<path content="AP030,1,28,1,0,14,1,8,JPN" xlink:title="AP030" d="M13047.1795,-3375L13047.1497,-3374.9664L13047.1497,-3374.7665L13046.8796,-3374.3534L13046.5393,-3373.8335L13046.4905,-3373.5065L13046.4005,-3373.3799L13046.2006,-3373.04L13046.1105,-3372.8733L13046.0403,-3372.8001L13045.9503,-3372.6799L13045.8603,-3372.5666L13045.7703,-3372.4266L13045.6299,-3372.3L13045.4697,-3372.2065L13045.1096,-3371.74L13044.8807,-3371.5599L13044.7403,-3371.4333L13044.6793,-3371.3799L13044.4305,-3371.3066L13044.22,-3371.1266L13044.0796,-3370.9133L13043.9499,-3370.1733L13043.9499,-3370.1721"/>
<path content="AP030,1,28,1,0,15,1,8,JPN" xlink:title="AP030" d="M13077.0645,-3369.677L13077.7802,-3370.496"/>
<path content="AP030,1,28,1,0,15,1,8,JPN" xlink:title="AP030" d="M13074.1806,-3372.6601L13075.7523,-3371.6595L13076.8631,-3370.75L13077.0645,-3369.677"/>
<path content="AP030,1,28,1,0,14,1,8,JPN" xlink:title="AP030" d="M13047.5601,-3373.1667L13047.6105,-3372.7867L13047.6303,-3372.6067L13047.6303,-3372.44L13047.4304,-3372.2599L13047.1802,-3372.1535L13047.0398,-3372.0798L13046.6995,-3371.9933L13046.1807,-3371.8334L13045.9305,-3371.5599L13045.7703,-3371.2334L13045.43,-3370.7664L13045.3995,-3370.6932L13045.3598,-3370.1733L13045.3094,-3370.0665L13045.2698,-3369.9932L13045.1096,-3369.7598L13045.0195,-3369.54L13045.0195,-3369.5389"/>
<path content="AP030,1,28,1,0,15,1,8,JPN" xlink:title="AP030" d="M13043.9499,-3370.1721L13044.1818,-3370.034L13045.018,-3369.5396L13045.0195,-3369.5389"/>
<path content="AP030,1,28,1,0,16,1,8,JPN" xlink:title="AP030" d="M13054.2694,-3374.9134L13053.6804,-3374.9664L13053.2898,-3374.8398L13053.0807,-3374.8199L13052.9007,-3374.7467L13052.7405,-3374.6067L13052.5803,-3374.3332L13052.0401,-3374.0131L13051.8997,-3373.8464L13051.5396,-3373.4531L13051.1093,-3373.2533L13050.6104,-3373.0198L13050.3998,-3372.8199L13050.0397,-3372.3331L13049.7192,-3372.1535L13049.3301,-3371.8468L13049.1104,-3371.6133L13048.9899,-3371.4535L13048.88,-3371.1468L13048.6801,-3370.6932L13048.6298,-3370.5334L13048.6496,-3370.0268L13048.6298,-3369.92L13048.4299,-3369.5065"/>
<path content="AP030,1,28,1,0,15,1,8,JPN" xlink:title="AP030" d="M13047.5601,-3373.1667L13047.8638,-3372.6898L13048.027,-3372.123L13048.027,-3371.698L13048.2376,-3371.056L13048.2452,-3370.092L13048.4299,-3369.5065"/>
<path content="AP030,1,28,1,0,14,1,8,JPN" xlink:title="AP030" d="M13071.1105,-3369.1998L13070.4498,-3370.4597L13070.43,-3370.5666L13070.43,-3370.62L13070.43,-3370.6932L13070.43,-3370.9999L13070.4697,-3371.1468L13070.5597,-3371.3066L13070.7001,-3371.4664L13070.7397,-3371.6133L13070.8099,-3371.8334L13070.8801,-3371.9532L13070.9503,-3372.1001L13071.0205,-3372.2599L13071.0403,-3372.3866"/>
<path content="AP030,1,28,1,0,15,1,8,JPN" xlink:title="AP030" d="M13065.5518,-3370.2538L13066.3666,-3370.2785L13067.4255,-3369.8853L13068.0298,-3369.363L13068.7988,-3369.2772L13069.7495,-3369.1761L13070.8359,-3369.1952L13071.1105,-3369.1998"/>
<path content="AP030,1,28,1,0,14,1,8,JPN" xlink:title="AP030" d="M13074.1806,-3372.6601L13073.9899,-3372.3198L13073.8068,-3371.9971L13073.6099,-3371.6534L13073.2895,-3371.1666L13072.9706,-3370.5334L13072.7203,-3370.3533L13072.6303,-3370.1935L13072.6303,-3369.9532L13072.6501,-3369.5267L13072.7005,-3369.4134L13072.8104,-3369.2734L13072.8302,-3369.1666L13072.8302,-3369.1662"/>
<path content="AP030,1,28,1,0,14,1,8,JPN" xlink:title="AP030" d="M13043.9499,-3370.1721L13043.9301,-3370.0466L13043.7897,-3369.9734L13043.6295,-3369.8666L13043.5806,-3369.8334L13043.5196,-3369.7201L13043.3594,-3369.1666L13043.3594,-3369.1067"/>
<path content="AP030,1,28,1,0,15,1,8,JPN" xlink:title="AP030" d="M13056.4792,-3375L13056.7963,-3373.8693L13056.8939,-3373.3646L13057.2647,-3372.401L13057.5806,-3370.8L13057.9742,-3368.8129"/>
<path content="AP030,1,28,1,0,15,1,8,JPN" xlink:title="AP030" d="M13075.5341,-3368.7878L13076.3702,-3369.3405L13076.6891,-3369.4942L13077.063,-3369.6751L13077.0645,-3369.677"/>
<path content="AP030,1,28,1,0,14,1,8,JPN" xlink:title="AP030" d="M13072.8302,-3369.1662L13072.7402,-3369.0533L13072.1497,-3368.8599L13072.1466,-3368.8587L13071.9498,-3368.7866L13071.9482,-3368.784"/>
<path content="AP030,1,28,1,0,15,1,8,JPN" xlink:title="AP030" d="M13057.9742,-3368.8129L13057.9773,-3368.8122L13058.2504,-3368.7649L13058.6884,-3368.9064L13059.0714,-3369.5675L13059.7824,-3370.7008L13060.7101,-3371.9742"/>
<path content="AP030,1,28,1,0,15,1,8,JPN" xlink:title="AP030" d="M13072.8302,-3369.1662L13074.1043,-3368.9693L13074.855,-3368.7305L13075.5341,-3368.7878"/>
<path content="AP030,1,28,1,0,16,1,8,JPN" xlink:title="AP030" d="M13048.4299,-3369.5065L13048.3307,-3369.1265L13048.3795,-3368.84L13048.4497,-3368.5135L13048.4497,-3368.2999L13048.2895,-3367.8131L13048.2697,-3367.7067L13048.2681,-3367.4332"/>
<path content="AP030,1,28,1,0,15,1,8,JPN" xlink:title="AP030" d="M13045.0195,-3369.5389L13045.9702,-3369.1315L13046.759,-3369.0468L13047.0184,-3368.8011L13047.5449,-3368.2343L13047.7554,-3367.6399L13048.2681,-3367.4332"/>
<path content="AP030,1,28,1,0,15,1,8,JPN" xlink:title="AP030" d="M13077.0645,-3369.677L13077.0645,-3369.6754L13077.4689,-3369.2619L13077.7725,-3368.8484L13078.125,-3368.5391"/>
<path content="AP030,1,28,1,0,14,1,8,JPN" xlink:title="AP030" d="M13045.0195,-3369.5389L13045.0195,-3369.2734L13045.1096,-3369.0201L13045.3598,-3368.5867L13045.3598,-3368.3735L13045.3293,-3368.0466L13045.43,-3367.8131L13045.52,-3367.72L13045.4895,-3367.5064L13045.3796,-3367.3798L13044.8807,-3366.9266L13044.7906,-3366.8732L13044.5404,-3366.7667L13044.487,-3366.7496L13044.3436,-3366.7038L13044.2703,-3366.6798L13044.1299,-3366.5867L13044.0796,-3366.5333"/>
<path content="AP030,1,28,1,0,14,1,8,JPN" xlink:title="AP030" d="M13043.3594,-3369.1067L13043.3594,-3368.7866L13043.4692,-3368.4998L13043.4769,-3368.4391L13043.5196,-3368.0798L13043.6295,-3367.8131L13044.0201,-3367.2199L13044.1101,-3367.02L13044.1299,-3366.9464L13044.1299,-3366.7866L13044.0796,-3366.5333"/>
<path content="AP030,1,28,1,0,14,1,8,JPN" xlink:title="AP030" d="M13068.4494,-3366.3532L13068.6493,-3366.46L13068.7897,-3366.5665L13068.9499,-3366.7133L13069.1299,-3366.84L13069.4,-3366.9132L13069.4504,-3366.9998L13069.7403,-3367.2001L13069.7906,-3367.2531L13070.3995,-3367.7067L13070.5658,-3367.8116L13070.7703,-3367.9398L13070.9,-3368.1L13070.9305,-3368.2598L13070.9503,-3368.4998L13070.9503,-3368.5532L13071.1105,-3368.7332L13071.1807,-3368.8934L13071.1807,-3369.0201L13071.1105,-3369.1998"/>
<path content="AP030,1,28,1,0,15,1,8,JPN" xlink:title="AP030" d="M13065.5518,-3370.2538L13065.5518,-3369.5099L13065.7532,-3368.766L13066.6626,-3368.0218L13068.4494,-3366.3532"/>
<path content="AP030,1,28,1,0,15,1,8,JPN" xlink:title="AP030" d="M13075.5341,-3368.7878L13075.4639,-3368.1782L13075.2747,-3367.9512L13075.9781,-3366.592L13076.0208,-3366.5352L13076.0849,-3366.2994"/>
<path content="AP030,1,28,1,0,15,1,8,JPN" xlink:title="AP030" d="M13060.7101,-3371.9742L13061.1252,-3371.5233L13061.1267,-3370.9202L13060.968,-3370.454L13061.795,-3369.5892L13061.734,-3369.1917L13061.0229,-3367.9245L13060.7056,-3367.5659L13060.7712,-3367.0284L13060.1044,-3365.9763"/>
<path content="AP030,1,28,1,0,15,1,8,JPN" xlink:title="AP030" d="M13077.7802,-3370.496L13078.125,-3370.1897"/>
<path content="AP030,1,28,1,0,15,1,8,JPN" xlink:title="AP030" d="M13075.7706,-3365.3999L13076.7899,-3365.5434L13077.4353,-3365.8691L13077.7359,-3365.7734L13077.9434,-3365.5495L13078.125,-3365.5776"/>
<path content="AP030,1,28,1,0,15,1,8,JPN" xlink:title="AP030" d="M13042.9688,-3369.1844L13043.3594,-3369.1067"/>
<path content="AP030,1,28,1,0,14,1,8,JPN" xlink:title="AP030" d="M13068.1305,-3365.1264L13068.5196,-3365.2332L13068.8293,-3365.3065L13068.9896,-3365.3465L13069.1299,-3365.58L13069.5801,-3366.2067L13069.7906,-3366.2617L13069.8593,-3366.28L13070.2698,-3366.28L13070.8801,-3366.46L13071.3303,-3366.6065L13071.4905,-3366.7866L13071.7697,-3367.4332L13071.7896,-3367.72L13071.7896,-3367.7933L13071.8094,-3368.4067L13071.8307,-3368.6398L13071.8353,-3368.6443L13071.9482,-3368.784"/>
<path content="AP030,1,28,1,0,14,1,8,JPN" xlink:title="AP030" d="M13068.4494,-3366.3532L13068.3304,-3366.1533L13068.2404,-3365.9199L13068.2693,-3365.7398L13068.1107,-3365.5598L13068.0603,-3365.5067L13068.1305,-3365.1264"/>
<path content="AP030,1,28,1,0,15,1,8,JPN" xlink:title="AP030" d="M13071.9482,-3368.784L13071.965,-3368.7344L13072.8668,-3366.0595L13072.6669,-3365.3187L13072.8287,-3364.8933L13072.7676,-3364.8399L13072.5174,-3364.6797L13072.5189,-3364.6797"/>
<path content="AP030,1,28,1,0,14,1,8,JPN" xlink:title="AP030" d="M13072.5189,-3364.6797L13072.5204,-3364.6797L13072.7707,-3364.8399L13072.8302,-3364.8933L13073.1293,-3365.1264L13073.2697,-3365.2199L13073.5596,-3365.2534L13073.79,-3365.3267L13074.0601,-3365.3267L13074.2004,-3365.3465L13074.5193,-3365.4865L13074.6506,-3365.5399L13074.8596,-3365.5933L13075.0595,-3365.6666L13075.1999,-3365.76L13075.3296,-3365.76L13075.4303,-3365.7066L13075.5203,-3365.6132L13075.7401,-3365.4865L13075.7706,-3365.3999"/>
<path content="AP030,1,28,1,0,14,1,8,JPN" xlink:title="AP030" d="M13068.1305,-3365.1264L13068.1107,-3365.1264L13067.6498,-3364.6065"/>
<path content="AP030,1,28,1,0,14,1,8,JPN" xlink:title="AP030" d="M13063.5391,-3364.4794L13063.6307,-3364.5332L13063.8992,-3364.6065L13064.4302,-3364.8933L13065.2405,-3365.0932L13065.3107,-3365.1264L13065.5197,-3365.1665L13065.7196,-3365.1665L13065.9302,-3365.2199L13066.3803,-3365.2733L13066.5802,-3365.2L13067.3996,-3364.7465L13067.6498,-3364.6065"/>
<path content="AP030,1,28,1,0,14,1,8,JPN" xlink:title="AP030" d="M13068.1305,-3365.1264L13068.2007,-3364.4398"/>
<path content="AP030,1,28,1,0,14,1,8,JPN" xlink:title="AP030" d="M13067.6498,-3364.6065L13067.7002,-3364.5866L13068.2007,-3364.4398"/>
<path content="AP030,1,28,1,0,15,1,8,JPN" xlink:title="AP030" d="M13057.9742,-3368.8129L13057.5394,-3369.0014L13057.103,-3368.9072L13056.72,-3368.8126L13055.7358,-3368.4353L13055.3907,-3368.2748L13054.9698,-3368.0576L13054.2587,-3367.6331L13053.5477,-3367.1139L13052.7832,-3366.5001L13049.6521,-3364.4619L13049.2142,-3364.3559"/>
<path content="AP030,1,28,1,0,15,1,8,JPN" xlink:title="AP030" d="M13048.4299,-3369.5065L13048.6832,-3368.911L13048.7366,-3367.5411L13048.7915,-3366.8324L13048.9014,-3365.7932L13048.9517,-3365.5602L13049.2142,-3364.3559"/>
<path content="AP030,1,28,1,0,14,1,8,JPN" xlink:title="AP030" d="M13068.2007,-3364.4398L13068.3594,-3364.4066L13068.8095,-3364.5L13069.2001,-3364.5535L13069.2902,-3364.5535L13069.4214,-3364.5535L13069.6106,-3364.5535L13069.9005,-3364.5535L13070.1096,-3364.4066L13070.3995,-3364.2799L13070.52,-3364.32L13070.7703,-3364.5L13070.9702,-3364.5664L13071.3303,-3364.6065L13072.0795,-3364.6065L13072.5189,-3364.6797"/>
<path content="AP030,1,28,1,0,14,1,8,JPN" xlink:title="AP030" d="M13075.7706,-3365.3999L13076.0406,-3365.2L13076.0406,-3365.0734L13075.9705,-3364.8933L13075.8102,-3364.7331L13075.8301,-3364.6065L13075.9293,-3364.5664L13076.1993,-3364.5664L13076.2695,-3364.5L13076.2695,-3364.3734L13076.1795,-3364.2998L13076.0803,-3364.2467L13076.0803,-3364.1533L13076.1993,-3364.1197L13076.4694,-3364.1533L13076.86,-3364.2467L13078.125,-3364.4599"/>
<path content="AP030,1,28,1,0,15,1,8,JPN" xlink:title="AP030" d="M13060.1044,-3365.9763L13060.0525,-3365.5193L13060.4019,-3365.3076L13060.5392,-3365.078L13060.8688,-3364.4424L13061.4151,-3364.3982L13062.0178,-3364.0133"/>
<path content="AP030,1,28,1,0,14,1,8,JPN" xlink:title="AP030" d="M13062.0178,-3364.0133L13062.2192,-3364.0667L13062.3306,-3364.2067L13062.3993,-3364.2467L13062.4893,-3364.2067L13062.5595,-3364.0667L13062.6099,-3363.9732L13062.6801,-3363.9534L13062.7701,-3363.9732L13062.7701,-3364.0667L13062.9303,-3364.1533L13062.8601,-3364.2265L13062.6999,-3364.1933L13062.6495,-3364.2998L13062.6801,-3364.4066L13062.7701,-3364.5134L13062.7701,-3364.64L13062.8296,-3364.6797L13062.8799,-3364.6198L13062.9501,-3364.4066L13063.0203,-3364.3532L13063.2202,-3364.3333L13063.4003,-3364.3867L13063.5391,-3364.4794"/>
<path content="AP030,1,28,1,0,16,1,8,JPN" xlink:title="AP030" d="M13048.2681,-3367.4332L13048.0194,-3366.8198L13048.0194,-3366.5867L13048.0194,-3366.3532L13048.2193,-3365.9199L13048.2193,-3365.8333L13048.0804,-3365.3267L13048.0545,-3364.8464L13048.2407,-3364.4798L13048.8998,-3363.8866"/>
<path content="AP030,1,28,1,0,16,1,8,JPN" xlink:title="AP030" d="M13044.0796,-3366.5333L13043.9697,-3366.4799L13043.8995,-3366.3864L13043.8431,-3366.2991L13043.8095,-3366.2464L13043.7393,-3366.0465L13043.6493,-3365.9397L13043.5196,-3365.8665L13043.2404,-3365.76L13043.1503,-3365.6666L13042.9688,-3365.3712"/>
<path content="AP030,1,28,1,0,14,1,8,JPN" xlink:title="AP030" d="M13044.0796,-3366.5333L13044.0201,-3366.46L13043.869,-3366.2594L13043.8599,-3366.2464L13043.7698,-3365.9931L13043.7897,-3365.8665L13043.7897,-3365.8134L13043.8599,-3365.5399L13043.8599,-3365.5067L13043.5593,-3365.02L13043.5196,-3364.9666L13043.4296,-3364.7331L13043.2007,-3364.46L13042.9688,-3364.2779"/>
<path content="AP030,1,28,1,0,14,1,8,JPN" xlink:title="AP030" d="M13067.6498,-3364.6065L13067.5797,-3364.5L13067.5201,-3364.1197L13067.4698,-3363.8466L13067.4698,-3363.4132L13067.4286,-3363.3266"/>
<path content="AP030,1,28,1,0,15,1,8,JPN" xlink:title="AP030" d="M13063.5391,-3364.4794L13065.0681,-3364.0141L13067.4286,-3363.3266"/>
<path content="AP030,1,28,1,0,15,1,8,JPN" xlink:title="AP030" d="M13060.1044,-3365.9763L13059.8663,-3365.8653L13058.5602,-3366.5085L13057.8857,-3366.4207L13056.9366,-3366.5207L13056.3858,-3366.293L13055.5542,-3364.8342L13054.8462,-3364.1403L13054.2343,-3363.2435L13053.2822,-3363.0714L13052.1103,-3363.073"/>
<path content="AP030,1,28,1,0,14,1,8,JPN" xlink:title="AP030" d="M13044.0796,-3364.1197L13044.0796,-3363.9198L13044.0796,-3363.8466L13044.0399,-3363.6532L13043.9896,-3363.3801L13043.9545,-3363.0569"/>
<path content="AP030,1,28,1,0,16,1,8,JPN" xlink:title="AP030" d="M13042.9688,-3363.2815L13043.9545,-3363.0569"/>
<path content="AP030,1,28,1,0,15,1,8,JPN" xlink:title="AP030" d="M13044.0384,-3363.0379L13046.521,-3363.5353L13046.6644,-3363.5578L13048.8998,-3363.8866"/>
<path content="AP030,1,28,1,0,16,1,8,JPN" xlink:title="AP030" d="M13043.9545,-3363.0569L13043.9697,-3363.0531L13044.0384,-3363.0379"/>
<path content="AP030,1,28,1,0,15,1,8,JPN" xlink:title="AP030" d="M13043.9499,-3363.0199L13044.0384,-3363.0379"/>
<path content="AP030,1,28,1,0,14,1,8,JPN" xlink:title="AP030" d="M13043.9545,-3363.0569L13043.9499,-3363.0199"/>
<path content="AP030,1,28,1,0,16,1,8,JPN" xlink:title="AP030" d="M13048.8998,-3363.8866L13048.97,-3363.6868L13049.0204,-3363.4533L13048.97,-3363.1466L13048.8602,-3362.7666"/>
<path content="AP030,1,28,1,0,16,1,8,JPN" xlink:title="AP030" d="M13044.0384,-3363.0379L13045.4697,-3362.7132"/>
<path content="AP030,1,28,1,0,14,1,8,JPN" xlink:title="AP030" d="M13049.5605,-3362.6934L13050.0397,-3362.7464L13050.3296,-3362.7998L13050.6302,-3362.9467L13051.1093,-3363.2L13051.3107,-3363.2534L13051.6495,-3363.2L13051.6998,-3363.1798L13052.1103,-3363.073"/>
<path content="AP030,1,28,1,0,15,1,8,JPN" xlink:title="AP030" d="M13049.2142,-3364.3559L13049.4476,-3363.7146L13049.5605,-3362.6934"/>
<path content="AP030,1,28,1,0,14,1,8,JPN" xlink:title="AP030" d="M13048.8602,-3362.7666L13049.0799,-3362.7132L13049.4293,-3362.6801L13049.5605,-3362.6934"/>
<path content="AP030,1,28,1,0,15,1,8,JPN" xlink:title="AP030" d="M13045.4697,-3362.7132L13045.4697,-3362.6816L13045.4697,-3362.669"/>
<path content="AP030,1,28,1,0,14,1,8,JPN" xlink:title="AP030" d="M13043.9499,-3363.0199L13045.4544,-3362.6724L13045.4697,-3362.669"/>
<path content="AP030,1,28,1,0,14,1,8,JPN" xlink:title="AP030" d="M13046.8796,-3362.5668L13047.1329,-3362.6732L13047.6105,-3362.8735L13047.8104,-3362.9467L13048.0392,-3362.9868L13048.2895,-3362.9467L13048.7396,-3362.7865L13048.8602,-3362.7666"/>
<path content="AP030,1,28,1,0,16,1,8,JPN" xlink:title="AP030" d="M13045.4697,-3362.7132L13045.5093,-3362.7045L13046.2692,-3362.5332L13046.8796,-3362.5668"/>
<path content="AP030,1,28,1,0,14,1,8,JPN" xlink:title="AP030" d="M13045.4697,-3362.669L13045.9702,-3362.5534L13046.2906,-3362.5L13046.6995,-3362.5134L13046.8307,-3362.5534L13046.8796,-3362.5668"/>
<path content="AP030,1,28,1,0,14,1,8,JPN" xlink:title="AP030" d="M13069.7693,-3362.5L13070.4697,-3362.8735L13070.5292,-3362.9215L13070.7397,-3363.0932"/>
<path content="AP030,1,28,1,0,14,1,8,JPN" xlink:title="AP030" d="M13068.2007,-3364.4398L13068.2205,-3364.2998L13068.3105,-3364.0266L13068.4296,-3363.8134L13068.4296,-3363.6665L13068.6096,-3363.6665L13068.6295,-3363.6868L13068.6493,-3363.7932L13068.8599,-3363.8134L13068.9697,-3363.6868L13069.0979,-3363.5895L13069.1803,-3363.5265L13069.22,-3363.4335L13069.2001,-3363.2L13069.2398,-3363.0932L13069.4305,-3362.9665L13069.5602,-3362.7132L13069.7693,-3362.5"/>
<path content="AP030,1,28,1,0,16,1,8,JPN" xlink:title="AP030" d="M13048.8602,-3362.7666L13048.7198,-3362.5534L13048.6099,-3362.3333"/>
<path content="AP030,1,28,1,0,15,1,8,JPN" xlink:title="AP030" d="M13042.9688,-3362.5896L13043.9499,-3363.0199"/>
<path content="AP030,1,28,1,0,14,1,8,JPN" xlink:title="AP030" d="M13066.8304,-3362.1532L13068.1503,-3362.4065"/>
<path content="AP030,1,28,1,0,14,1,8,JPN" xlink:title="AP030" d="M13067.4286,-3363.3266L13066.8304,-3362.6064L13066.7694,-3362.5L13066.7892,-3362.3867L13066.8304,-3362.1532"/>
<path content="AP030,1,28,1,0,14,1,8,JPN" xlink:title="AP030" d="M13052.1103,-3363.073L13053.1494,-3362.6801L13053.5797,-3362.5866L13053.7903,-3362.4268L13053.8803,-3362.2799L13053.8803,-3362.2303L13053.8803,-3362.1334L13054.2206,-3362.0132L13054.6097,-3362.1201L13054.7394,-3362.1334L13054.9698,-3362.1735L13055.5206,-3362.1201"/>
<path content="AP030,1,28,1,0,16,1,8,JPN" xlink:title="AP030" d="M13066.1072,-3361.8855L13066.1102,-3361.8866L13066.8304,-3362.1532"/>
<path content="AP030,1,28,1,0,15,1,8,JPN" xlink:title="AP030" d="M13049.939,-3361.7779L13050.4303,-3362.0136L13050.8682,-3362.2025L13051.1414,-3362.2025L13051.6388,-3362.3695L13052.0782,-3362.5179"/>
<path content="AP030,1,28,1,0,15,1,8,JPN" xlink:title="AP030" d="M13049.5605,-3362.6934L13049.7986,-3362.1147L13049.939,-3361.7779"/>
<path content="AP030,1,28,1,0,15,1,8,JPN" xlink:title="AP030" d="M13048.6099,-3362.3333L13049.4568,-3361.9404L13049.501,-3361.9198L13049.939,-3361.7779"/>
<path content="AP030,1,28,1,0,14,1,8,JPN" xlink:title="AP030" d="M13055.5206,-3362.1201L13055.6107,-3362.1201L13055.8594,-3362.0266L13055.9494,-3362.0132L13056.0547,-3362.0689L13056.1493,-3362.1201L13056.3599,-3362.1201L13056.6803,-3361.9732L13056.9504,-3362.0132L13057.1304,-3362.0132L13057.2693,-3361.8999L13057.4005,-3361.7931L13057.7194,-3361.7733L13057.8995,-3361.8866L13057.9498,-3361.9732L13057.93,-3362.0132L13057.6797,-3361.8999L13057.6492,-3361.8999L13057.6294,-3361.9732L13057.7393,-3362.0667L13057.8293,-3362.1334L13058.0399,-3362.1334L13058.1299,-3362.1933L13058.2397,-3362.1933L13058.3099,-3362.0998L13058.3801,-3362.0998L13058.4,-3362.1334L13058.3603,-3362.2799L13058.2199,-3362.2799L13058.11,-3362.3199L13058.0795,-3362.4268L13058.2199,-3362.4065L13058.3801,-3362.4268L13058.4702,-3362.3531L13058.5403,-3362.2467L13058.6502,-3362.2265L13058.7402,-3362.0667L13058.8104,-3362.0998L13058.8303,-3362.2467L13059.0393,-3362.4397L13059.3094,-3362.5134L13059.61,-3362.6598L13059.7397,-3362.6598L13060.1501,-3362.6064L13060.4004,-3362.7132L13060.6796,-3362.7666L13061.4502,-3363.3064L13061.6501,-3363.5799L13061.8607,-3363.9L13062.0178,-3364.0133"/>
<path content="AP030,1,28,1,0,16,1,8,JPN" xlink:title="AP030" d="M13048.6099,-3362.3333L13048.5596,-3362.0667L13048.6099,-3361.6665"/>
<path content="AP030,1,28,1,0,14,1,8,JPN" xlink:title="AP030" d="M13043.9499,-3363.0199L13043.8599,-3362.3199L13043.8293,-3361.94L13043.8156,-3361.7348L13043.7912,-3361.3667L13043.7897,-3361.3464L13043.7698,-3361.0199"/>
<path content="AP030,1,28,1,0,15,1,8,JPN" xlink:title="AP030" d="M13043.7698,-3361.0199L13044.4504,-3360.862"/>
<path content="AP030,1,28,1,0,15,1,8,JPN" xlink:title="AP030" d="M13045.6543,-3360.582L13046.6644,-3360.9951L13047.3465,-3361.2305L13047.6242,-3361.3266L13047.8058,-3361.3888L13048.2117,-3361.5288L13048.6099,-3361.6665"/>
<path content="AP030,1,28,1,0,15,1,8,JPN" xlink:title="AP030" d="M13045.4697,-3362.669L13045.4529,-3361.491L13045.4987,-3361.2865L13045.6543,-3360.582"/>
<path content="AP030,1,28,1,0,15,1,8,JPN" xlink:title="AP030" d="M13044.4504,-3360.862L13045.6543,-3360.582"/>
<path content="AP030,1,28,1,0,16,1,8,JPN" xlink:title="AP030" d="M13055.5206,-3362.1201L13055.5206,-3362.0266L13055.6793,-3361.8668L13055.8105,-3361.7733L13056.8802,-3361.5398L13057.1304,-3361.5265L13057.3929,-3361.5402L13057.7698,-3361.5601L13057.8796,-3361.5067L13057.9697,-3361.38L13058.02,-3360.9467L13058.2397,-3360.5534"/>
<path content="AP030,1,28,1,0,15,1,8,JPN" xlink:title="AP030" d="M13044.4504,-3360.862L13045.1083,-3360.3927"/>
<path content="AP030,1,28,1,0,15,1,8,JPN" xlink:title="AP030" d="M13042.9688,-3360.8651L13043.1274,-3360.9123L13043.7698,-3361.0199"/>
<path content="AP030,1,28,1,0,16,1,4,JPN" xlink:title="AP030" d="M13058.2397,-3360.5534L13058.4305,-3360.3333L13058.9294,-3360.0998"/>
<path content="AP030,1,28,1,0,14,1,8,JPN" xlink:title="AP030" d="M13043.7698,-3361.0199L13043.6996,-3360.68L13043.6996,-3360.5865L13043.6493,-3360.0266"/>
<path content="AP030,1,28,1,0,15,1,8,JPN" xlink:title="AP030" d="M13045.6543,-3360.582L13045.6543,-3360.0033"/>
<path content="AP030,1,28,1,0,15,1,8,JPN" xlink:title="AP030" d="M13045.1083,-3360.3927L13045.6543,-3360.0033"/>
<path content="AP030,1,28,1,0,16,1,4,JPN" xlink:title="AP030" d="M13058.9294,-3360.0998L13059.3597,-3359.9731"/>
<path content="AP030,1,28,1,0,15,1,8,JPN" xlink:title="AP030" d="M13043.3304,-3359.8866L13043.5196,-3360.0132L13043.6493,-3360.0266"/>
<path content="AP030,1,28,1,0,15,1,8,JPN" xlink:title="AP030" d="M13048.5428,-3360.0491L13048.4879,-3359.7107"/>
<path content="AP030,1,28,1,0,16,1,8,JPN" xlink:title="AP030" d="M13043.3304,-3359.8866L13043.3105,-3359.8331L13043.0603,-3359.6664"/>
<path content="AP030,1,28,1,0,14,1,8,JPN" xlink:title="AP030" d="M13069.7693,-3362.5L13069.8593,-3362.4268L13070.1797,-3362.2066L13070.2698,-3362.0998L13070.3995,-3361.8866L13070.52,-3361.7397L13070.7001,-3361.5799L13071.08,-3361.3464L13071.3303,-3361.2534L13071.6095,-3360.9867L13071.6293,-3360.2264L13071.6507,-3359.6333"/>
<path content="AP030,1,28,1,0,16,1,8,JPN" xlink:title="AP030" d="M13059.3597,-3359.9731L13060.1105,-3359.9731L13060.3607,-3359.9197L13060.5804,-3359.8866L13060.6293,-3359.8465L13060.9497,-3359.5932L13061.0794,-3359.5932L13061.2198,-3359.6134L13061.3998,-3359.7198L13061.7706,-3359.8999L13062.2192,-3360.12L13062.6495,-3360.5534L13062.7899,-3360.6598L13062.9898,-3360.7132L13063.4293,-3360.7132L13063.5193,-3360.7468L13063.5788,-3360.7658L13063.8306,-3360.9467L13063.9882,-3360.9996L13064.3295,-3361.0535L13064.3997,-3361.0931L13064.6301,-3361.2534L13065.3305,-3361.5601L13066.1072,-3361.8855"/>
<path content="AP030,1,28,1,0,16,1,8,JPN" xlink:title="AP030" d="M13048.6099,-3361.6665L13048.6099,-3361.5768L13048.6099,-3361.5601L13048.7,-3361.3598L13049.3103,-3360.7132L13049.4293,-3360.4267L13049.4507,-3360.12L13049.4324,-3359.9308L13049.3973,-3359.5798"/>
<path content="AP030,1,28,1,0,15,1,8,JPN" xlink:title="AP030" d="M13048.4879,-3359.7107L13049.3973,-3359.5798"/>
<path content="AP030,1,28,1,0,15,1,8,JPN" xlink:title="AP030" d="M13046.8658,-3359.5078L13047.4442,-3359.8606L13048.4879,-3359.7107"/>
<path content="AP030,1,28,1,0,15,1,8,JPN" xlink:title="AP030" d="M13045.6543,-3360.0033L13046.8658,-3359.5078"/>
<path content="AP030,1,28,1,0,14,1,8,JPN" xlink:title="AP030" d="M13043.6493,-3360.0266L13043.4494,-3359.5798L13043.3838,-3359.4727"/>
<path content="AP030,1,28,1,0,16,1,8,JPN" xlink:title="AP030" d="M13043.0603,-3359.6664L13043.1305,-3359.6664L13043.2404,-3359.5932L13043.3838,-3359.4727"/>
<path content="AP030,1,28,1,0,14,1,8,JPN" xlink:title="AP030" d="M13043.3838,-3359.4727L13043.3594,-3359.4334"/>
<path content="AP030,1,28,1,0,16,1,8,JPN" xlink:title="AP030" d="M13042.9688,-3359.5936L13043.0603,-3359.6664"/>
<path content="AP030,1,28,1,0,14,1,8,JPN" xlink:title="AP030" d="M13066.8304,-3362.1532L13066.8793,-3361.9732L13066.9296,-3361.7397L13067.0197,-3361.38L13067.1097,-3360.5L13067.1494,-3360.08L13067.1997,-3359.8866L13067.2699,-3359.6664L13067.2699,-3359.2731L13067.2699,-3359.2266L13067.2684,-3359.0908"/>
<path content="AP030,1,28,1,0,16,1,8,JPN" xlink:title="AP030" d="M13049.3973,-3359.5798L13049.4293,-3359.3067L13049.6094,-3359.0199"/>
<path content="AP030,1,28,1,0,14,1,8,JPN" xlink:title="AP030" d="M13043.3594,-3359.4334L13043.3304,-3359.3597L13043.0771,-3358.8932"/>
<path content="AP030,1,28,1,0,14,1,8,JPN" xlink:title="AP030" d="M13043.0771,-3358.8932L13042.9688,-3358.9933"/>
<path content="AP030,1,28,1,0,15,1,8,JPN" xlink:title="AP030" d="M13048.2788,-3358.4324L13048.8876,-3358.7196L13049.6094,-3359.0199"/>
<path content="AP030,1,28,1,0,15,1,8,JPN" xlink:title="AP030" d="M13048.4879,-3359.7107L13048.2788,-3358.4324"/>
<path content="AP030,1,28,1,0,15,1,8,JPN" xlink:title="AP030" d="M13046.8658,-3359.5078L13048.2788,-3358.4324"/>
<path content="AP030,1,28,1,0,15,1,8,JPN" xlink:title="AP030" d="M13049.939,-3361.7779L13050.0473,-3361.0695L13050.5402,-3360.0124L13051.0071,-3358.9268L13051.1139,-3358.3382"/>
<path content="AP030,1,28,1,0,15,1,8,JPN" xlink:title="AP030" d="M13045.6543,-3360.0033L13045.755,-3359.3418L13046.6644,-3358.1844L13046.666,-3358.1841"/>
<path content="AP030,1,28,1,0,15,1,8,JPN" xlink:title="AP030" d="M13045.9793,-3358.0902L13046.6629,-3358.1844L13046.666,-3358.1841"/>
<path content="AP030,1,28,1,0,15,1,8,JPN" xlink:title="AP030" d="M13045.1083,-3360.3927L13044.7067,-3360.0552L13044.5557,-3359.7744L13045.9793,-3358.0902"/>
<path content="AP030,1,28,1,0,15,1,8,JPN" xlink:title="AP030" d="M13046.666,-3358.1841L13047.554,-3358.0696L13048.2788,-3358.4324"/>
<path content="AP030,1,28,1,0,15,1,8,JPN" xlink:title="AP030" d="M13048.2788,-3358.4324L13048.7046,-3358.0085"/>
<path content="AP030,1,28,1,0,15,1,8,JPN" xlink:title="AP030" d="M13067.5461,-3357.9632L13068.3548,-3358.0894L13069.4901,-3358.5995L13069.8212,-3358.8699L13070.0302,-3359.0828L13071.6507,-3359.6333"/>
<path content="AP030,1,28,1,0,15,1,8,JPN" xlink:title="AP030" d="M13067.2684,-3359.0908L13067.5461,-3357.9632"/>
<path content="AP030,1,28,1,0,14,1,8,JPN" xlink:title="AP030" d="M13067.2684,-3359.0908L13067.1997,-3358.9664L13066.7694,-3358.5335L13066.5802,-3358.2268L13066.2186,-3357.8327"/>
<path content="AP030,1,28,1,0,15,1,8,JPN" xlink:title="AP030" d="M13066.1072,-3361.8855L13065.419,-3361.1176L13064.007,-3360.9954L13063.9892,-3360.9926L13063.581,-3360.7567L13063.6429,-3360.3035L13062.9181,-3359.7294L13062.6617,-3359.4662L13062.6938,-3359.0843L13062.738,-3358.5377L13063.092,-3357.6927"/>
<path content="AP030,1,28,1,0,15,1,8,JPN" xlink:title="AP030" d="M13045.9793,-3358.0902L13045.9,-3357.5039L13045.3598,-3357.3071"/>
<path content="AP030,1,28,1,0,16,1,8,JPN" xlink:title="AP030" d="M13043.3838,-3359.4727L13043.9499,-3359L13044.1299,-3358.4267L13044.5801,-3357.8335L13044.8593,-3357.6866L13045.1797,-3357.5397L13045.2393,-3357.4867L13045.3293,-3357.3997L13045.3598,-3357.3071"/>
<path content="AP030,1,28,1,0,14,1,8,JPN" xlink:title="AP030" d="M13043.3594,-3359.4334L13043.9301,-3358.9664L13044.0201,-3358.6597L13044.0399,-3358.5133L13044.1101,-3358.3733L13044.5404,-3357.7934L13044.7693,-3357.6668L13045.1294,-3357.5066L13045.3598,-3357.3071"/>
<path content="AP030,1,28,1,0,15,1,8,JPN" xlink:title="AP030" d="M13048.7046,-3358.0085L13047.7631,-3357.2849"/>
<path content="AP030,1,28,1,0,15,1,8,JPN" xlink:title="AP030" d="M13046.666,-3358.1841L13047.7631,-3357.2849"/>
<path content="AP030,1,28,1,0,15,1,8,JPN" xlink:title="AP030" d="M13067.5461,-3357.9632L13067.7246,-3357.2395"/>
<path content="AP030,1,28,1,0,15,1,8,JPN" xlink:title="AP030" d="M13066.2186,-3357.8327L13067.7246,-3357.2395"/>
<path content="AP030,1,28,1,0,15,1,8,JPN" xlink:title="AP030" d="M13052.4246,-3357.2166L13053.2288,-3357.5233L13054.8462,-3358.102L13055.6534,-3358.7631L13056.4621,-3359.4246L13056.7642,-3359.5898L13057.37,-3359.5898L13057.9758,-3359.4246L13058.5831,-3359.5898L13058.8058,-3359.9182L13058.9294,-3360.0998"/>
<path content="AP030,1,28,1,0,15,1,8,JPN" xlink:title="AP030" d="M13051.1139,-3358.3382L13052.4246,-3357.2166"/>
<path content="AP030,1,28,1,0,16,1,8,JPN" xlink:title="AP030" d="M13049.6094,-3359.0199L13049.8596,-3358.7997L13050.0198,-3358.6399L13050.1099,-3358.4599L13050.3098,-3357.8999L13050.3098,-3357.7198L13050.2701,-3357.0732"/>
<path content="AP030,1,28,1,0,15,1,8,JPN" xlink:title="AP030" d="M13048.7046,-3358.0085L13049.1898,-3357.5233L13050.2701,-3357.0732"/>
<path content="AP030,1,28,1,0,15,1,8,JPN" xlink:title="AP030" d="M13045.3598,-3357.3071L13045.3583,-3357.3063L13045.1035,-3357.1053L13044.7968,-3356.9324"/>
<path content="AP030,1,28,1,0,15,1,8,JPN" xlink:title="AP030" d="M13043.0771,-3358.8932L13043.8766,-3357.708L13044.7968,-3356.9324"/>
<path content="AP030,1,28,1,0,15,1,8,JPN" xlink:title="AP030" d="M13052.4246,-3357.2166L13052.9433,-3356.7728"/>
<path content="AP030,1,28,1,0,14,1,8,JPN" xlink:title="AP030" d="M13066.2186,-3357.8327L13066.0599,-3357.6866L13065.7394,-3357.3997L13065.4694,-3357.18L13065.3793,-3357L13065.2679,-3356.7665"/>
<path content="AP030,1,28,1,0,15,1,8,JPN" xlink:title="AP030" d="M13063.092,-3357.6927L13064.1708,-3357.4219L13064.5416,-3357.2006L13065.2679,-3356.7665"/>
<path content="AP030,1,28,1,0,15,1,8,JPN" xlink:title="AP030" d="M13050.9155,-3356.6418L13052.4246,-3357.2166"/>
<path content="AP030,1,28,1,0,15,1,8,JPN" xlink:title="AP030" d="M13051.1139,-3358.3382L13051.0406,-3357.7045L13050.9155,-3356.6418"/>
<path content="AP030,1,28,1,0,14,1,8,JPN" xlink:title="AP030" d="M13076.358,-3356.5132L13076.6296,-3356.8199L13076.9302,-3357.04L13077.1301,-3357.1266L13077.4002,-3357.2201L13077.6093,-3357.3997L13077.7206,-3357.56L13077.8793,-3357.6866L13078.125,-3357.8816"/>
<path content="AP030,1,28,1,0,15,1,8,JPN" xlink:title="AP030" d="M13072.5189,-3364.6797L13072.9218,-3363.4995L13072.6257,-3362.962L13072.3801,-3361.5582L13072.2839,-3361.002L13072.3618,-3360.6468L13072.5952,-3359.9121L13073.0164,-3359.4044L13074.7787,-3358.2245L13075.6577,-3357.5134L13076.358,-3356.5132"/>
<path content="AP030,1,28,1,0,15,1,8,JPN" xlink:title="AP030" d="M13071.6507,-3359.6333L13070.8496,-3358.8303L13070.2972,-3357.7278L13070.1141,-3356.4919"/>
<path content="AP030,1,28,1,0,15,1,8,JPN" xlink:title="AP030" d="M13067.7246,-3357.2395L13070.1141,-3356.4919"/>
<path content="AP030,1,28,1,0,15,1,8,JPN" xlink:title="AP030" d="M13047.7631,-3357.2849L13046.6949,-3356.4629"/>
<path content="AP030,1,28,1,0,16,1,8,JPN" xlink:title="AP030" d="M13045.3598,-3357.3071L13045.4697,-3357.2865L13045.7703,-3357.04L13046.08,-3356.7333L13046.2204,-3356.6067L13046.6507,-3356.4999L13046.6949,-3356.4629"/>
<path content="AP030,1,28,1,0,15,1,8,JPN" xlink:title="AP030" d="M13046.6949,-3356.4629L13046.6492,-3356.427"/>
<path content="AP030,1,28,1,0,14,1,8,JPN" xlink:title="AP030" d="M13045.3598,-3357.3071L13045.3995,-3357.2735L13045.9305,-3356.8001L13046.1304,-3356.6067L13046.2006,-3356.5533L13046.2906,-3356.5334"/>
<path content="AP030,1,28,1,0,15,1,8,JPN" xlink:title="AP030" d="M13050.9155,-3356.6418L13050.3799,-3356.2599"/>
<path content="AP030,1,28,1,0,16,1,8,JPN" xlink:title="AP030" d="M13050.2701,-3357.0732L13050.2701,-3356.7467L13050.3799,-3356.2599"/>
<path content="AP030,1,28,1,0,16,1,8,JPN" xlink:title="AP030" d="M13050.3799,-3356.2599L13050.3601,-3355.9399"/>
<path content="AP030,1,28,1,0,15,1,8,JPN" xlink:title="AP030" d="M13051.0315,-3355.7667L13052.2858,-3356.0863L13052.9433,-3356.7728"/>
<path content="AP030,1,28,1,0,15,1,8,JPN" xlink:title="AP030" d="M13050.3601,-3355.9399L13050.7004,-3355.9956L13051.0315,-3355.7667"/>
<path content="AP030,1,28,1,0,16,1,8,JPN" xlink:title="AP030" d="M13050.3601,-3355.9399L13050.2197,-3355.7598L13049.9695,-3355.5931"/>
<path content="AP030,1,28,1,0,15,1,8,JPN" xlink:title="AP030" d="M13047.7631,-3357.2849L13048.1796,-3356.9447L13049.9695,-3355.5931"/>
<path content="AP030,1,28,1,0,16,1,8,JPN" xlink:title="AP030" d="M13049.9695,-3355.5931L13049.7192,-3355.36"/>
<path content="AP030,1,28,1,0,14,1,8,JPN" xlink:title="AP030" d="M13071.6507,-3359.6333L13071.6507,-3359.3998L13071.6507,-3359.3468L13071.7407,-3359.1267L13071.7697,-3358.68L13071.8994,-3358.4064L13071.9299,-3358.3332L13071.7697,-3358.0467L13071.7697,-3357.9399L13071.8094,-3357.8133L13072.2,-3357.0934L13072.4701,-3356.9668L13072.7005,-3356.86L13072.8607,-3356.7135L13073.2193,-3356.3198L13073.4497,-3355.8334L13073.7396,-3355.2868L13073.8098,-3355.1998"/>
<path content="AP030,1,28,1,0,15,1,8,JPN" xlink:title="AP030" d="M13070.1141,-3356.4919L13072.8928,-3355.6225L13073.8098,-3355.1998"/>
<path content="AP030,1,28,1,0,14,1,8,JPN" xlink:title="AP030" d="M13073.8098,-3355.1998L13074.0601,-3355.22L13074.1806,-3355.2734L13074.2401,-3355.2532L13074.2401,-3355.1266L13074.4293,-3355.22L13074.5193,-3355.1998L13074.5407,-3355.0934L13074.6796,-3355.0198L13074.8306,-3355.0732L13074.8795,-3355.2734L13074.9298,-3355.4333L13074.9695,-3355.5798L13075.0198,-3355.6133L13075.1099,-3355.6133L13075.1099,-3355.6667L13075.0198,-3355.7598L13075.0198,-3355.7934L13075.1801,-3355.8865L13075.3296,-3355.8468L13075.4898,-3355.8334L13075.65,-3356.0467L13076.1505,-3356.2798L13076.3794,-3356.3332L13076.358,-3356.5132"/>
<path content="AP030,1,28,1,0,15,1,8,JPN" xlink:title="AP030" d="M13048.172,-3354.8779L13048.7671,-3355.1346L13049.7192,-3355.36"/>
<path content="AP030,1,28,1,0,16,1,8,JPN" xlink:title="AP030" d="M13046.6949,-3356.4629L13046.7407,-3356.4266L13047.3099,-3355.7598L13047.4701,-3355.5267L13047.9507,-3355.18L13048.1094,-3354.9667L13048.172,-3354.8779"/>
<path content="AP030,1,28,1,0,15,1,8,JPN" xlink:title="AP030" d="M13048.1293,-3354.8599L13048.172,-3354.8779"/>
<path content="AP030,1,28,1,0,14,1,8,JPN" xlink:title="AP030" d="M13046.6492,-3356.427L13046.6507,-3356.4266L13046.7896,-3356.2798L13047.02,-3356.0135L13047.3297,-3355.6534L13047.4304,-3355.5065L13047.7005,-3355.3066L13047.9004,-3355.1468L13048.1293,-3354.8599"/>
<path content="AP030,1,28,1,0,15,1,8,JPN" xlink:title="AP030" d="M13052.9433,-3356.7728L13053.1097,-3356.6303L13054.3182,-3355.1769L13053.5675,-3354.7558"/>
<path content="AP030,1,28,1,0,15,1,8,JPN" xlink:title="AP030" d="M13051.0315,-3355.7667L13051.3245,-3355.5641L13052.0721,-3355.1331L13052.8198,-3355.0247L13053.3188,-3354.9171L13053.5675,-3354.7558"/>
<path content="AP030,1,28,1,0,15,1,8,JPN" xlink:title="AP030" d="M13048.1293,-3354.8599L13047.6435,-3354.3806"/>
<path content="AP030,1,28,1,0,15,1,8,JPN" xlink:title="AP030" d="M13044.7968,-3356.9324L13046.4294,-3355.1186L13047.6435,-3354.3806"/>
<path content="AP030,1,28,1,0,14,1,8,JPN" xlink:title="AP030" d="M13065.2679,-3356.7665L13064.9506,-3356.6399L13064.8102,-3356.5666L13064.4302,-3356.2267L13064.1098,-3355.7732L13064.0198,-3355.4665L13063.9893,-3355.22L13063.8794,-3354.9866L13063.8794,-3354.7466L13063.9297,-3354.5666L13063.8107,-3354.2797"/>
<path content="AP030,1,28,1,0,15,1,8,JPN" xlink:title="AP030" d="M13067.7246,-3357.2395L13068.0466,-3356.6631L13068.2648,-3356.3499L13068.3472,-3355.6629L13068.1534,-3354.1359"/>
<path content="AP030,1,28,1,0,15,1,8,JPN" xlink:title="AP030" d="M13044.9005,-3354.0585L13044.902,-3354.0588L13045.8374,-3354.2202L13045.9137,-3354.25L13046.3989,-3354.4353L13046.6492,-3354.4243L13047.6435,-3354.3806"/>
<path content="AP030,1,28,1,0,15,1,8,JPN" xlink:title="AP030" d="M13042.9688,-3355.478L13043.6386,-3355.1838L13043.6539,-3355.1697L13044.899,-3354.0588L13044.9005,-3354.0585"/>
<path content="AP030,1,28,1,0,15,1,8,JPN" xlink:title="AP030" d="M13063.8107,-3354.2797L13064.566,-3354.3697L13065.0009,-3354.229L13065.4358,-3354.0413L13065.9256,-3354.0413L13066.5771,-3354.417L13067.4484,-3354.417L13068.1534,-3354.1359"/>
<path content="AP030,1,28,1,0,15,1,8,JPN" xlink:title="AP030" d="M13044.516,-3353.9192L13044.9005,-3354.0585"/>
<path content="AP030,1,28,1,0,15,1,8,JPN" xlink:title="AP030" d="M13053.5675,-3354.7558L13053.5675,-3354.7554L13053.5675,-3354.3243L13053.45,-3353.7842"/>
<path content="AP030,1,28,1,0,15,1,8,JPN" xlink:title="AP030" d="M13070.1141,-3356.4919L13070.3445,-3355.8311L13070.8023,-3355.0247L13070.787,-3354.2393L13070.9808,-3353.4779"/>
<path content="AP030,1,28,1,0,15,1,8,JPN" xlink:title="AP030" d="M13068.1534,-3354.1359L13068.1549,-3354.1351L13068.6447,-3353.9474L13069.0247,-3353.9005L13069.5145,-3353.9474L13069.7861,-3353.9474L13070.2759,-3353.7125L13070.6024,-3353.5248L13070.9808,-3353.4779"/>
<path content="AP030,1,28,1,0,15,1,8,JPN" xlink:title="AP030" d="M13047.6435,-3354.3806L13046.9406,-3354.1275L13046.8964,-3354.1119L13046.4615,-3353.8025L13045.9091,-3353.4111"/>
<path content="AP030,1,28,1,0,15,1,8,JPN" xlink:title="AP030" d="M13044.9005,-3354.0585L13045.9091,-3353.4111"/>
<path content="AP030,1,28,1,0,14,1,8,JPN" xlink:title="AP030" d="M13073.8098,-3355.1998L13073.79,-3355.1998L13073.6801,-3355.0533L13073.4894,-3354.8733L13073.1796,-3354.5864L13073.0804,-3354.3732L13072.7905,-3354.2797L13072.3999,-3354.1534L13072.2397,-3354.0665L13071.8597,-3353.5065L13071.7407,-3353.4"/>
<path content="AP030,1,28,1,0,15,1,8,JPN" xlink:title="AP030" d="M13070.9808,-3353.4779L13070.9824,-3353.4779L13071.7407,-3353.4"/>
<path content="AP030,1,28,1,0,15,1,8,JPN" xlink:title="AP030" d="M13042.9687,-3353.4109L13043.2632,-3353.4966L13043.7164,-3353.6285L13044.516,-3353.9192"/>
<path content="AP030,1,28,1,0,14,1,8,JPN" xlink:title="AP030" d="M13071.3776,-3353.273L13071.7407,-3353.4"/>
<path content="AP030,1,28,1,0,15,1,8,JPN" xlink:title="AP030" d="M13070.9808,-3353.4779L13071.3776,-3353.273"/>
<path content="AP030,1,28,1,0,16,1,8,JPN" xlink:title="AP030" d="M13048.172,-3354.8779L13048.3597,-3354.6066L13048.5397,-3354.3533L13048.6298,-3354.1534L13048.6496,-3353.8334L13048.6801,-3353.7197L13048.9304,-3353.4664L13049.1501,-3353.1799L13049.1501,-3353.0933"/>
<path content="AP030,1,28,1,0,14,1,8,JPN" xlink:title="AP030" d="M13048.1293,-3354.8599L13048.3597,-3354.5334L13048.5199,-3354.2999L13048.5794,-3354.1L13048.5794,-3353.8666L13048.6298,-3353.7197L13048.8998,-3353.4134L13048.9502,-3353.3466L13049.1501,-3353.0933"/>
<path content="AP030,1,28,1,0,15,1,8,JPN" xlink:title="AP030" d="M13045.9091,-3353.4111L13044.9799,-3352.7523"/>
<path content="AP030,1,28,1,0,15,1,8,JPN" xlink:title="AP030" d="M13044.516,-3353.9192L13044.9799,-3352.7523"/>
<path content="AP030,1,28,1,0,14,1,8,JPN" xlink:title="AP030" d="M13063.8107,-3354.2797L13063.7894,-3353.8334L13063.6993,-3353.6133L13063.5605,-3353.3466L13063.3804,-3353.1265L13063.3301,-3353.0197L13063.3102,-3352.8599L13063.2401,-3352.7664L13063.0676,-3352.6958L13062.9303,-3352.6398L13062.8601,-3352.5131L13062.8296,-3352.4067"/>
<path content="AP030,1,28,1,0,14,1,8,JPN" xlink:title="AP030" d="M13049.1501,-3353.0933L13049.2004,-3353.0197L13049.3301,-3352.8L13049.3607,-3352.6398L13049.2706,-3352.3533"/>
<path content="AP030,1,28,1,0,15,1,8,JPN" xlink:title="AP030" d="M13047.6435,-3354.3806L13047.7493,-3353.9162L13048.703,-3352.861L13049.2706,-3352.3533"/>
<path content="AP030,1,28,1,0,16,1,8,JPN" xlink:title="AP030" d="M13062.8296,-3352.4067L13062.735,-3352.0771"/>
<path content="AP030,1,28,1,0,14,1,8,JPN" xlink:title="AP030" d="M13062.8296,-3352.4067L13062.6495,-3352.2999L13062.6099,-3352.2064L13062.6495,-3352.1198L13062.735,-3352.0771"/>
<path content="AP030,1,28,1,0,16,1,8,JPN" xlink:title="AP030" d="M13049.7192,-3355.36L13049.6094,-3355.0732L13049.6094,-3354.6799L13049.7192,-3354.0466L13049.7696,-3353.6533L13049.6796,-3353.0731L13049.5407,-3352.7332L13049.4507,-3352.2465L13049.4843,-3352.0103"/>
<path content="AP030,1,28,1,0,14,1,8,JPN" xlink:title="AP030" d="M13049.2706,-3352.3533L13049.3607,-3352.1935L13049.4293,-3352.0466L13049.4843,-3352.0103"/>
<path content="AP030,1,28,1,0,15,1,8,JPN" xlink:title="AP030" d="M13053.45,-3353.7842L13054.7318,-3353.3314L13054.8447,-3351.6327"/>
<path content="AP030,1,28,1,0,16,1,8,JPN" xlink:title="AP030" d="M13062.735,-3352.0771L13062.7274,-3352.0515L13062.7197,-3352.0267L13062.6099,-3351.6666L13062.5198,-3351.58"/>
<path content="AP030,1,28,1,0,15,1,8,JPN" xlink:title="AP030" d="M13053.45,-3353.7842L13053.3813,-3353.4626L13053.1937,-3352.924L13052.887,-3351.5438"/>
<path content="AP030,1,28,1,0,15,1,8,JPN" xlink:title="AP030" d="M13049.7192,-3355.36L13050.0763,-3354.2721L13050.4501,-3353.3562L13051.0742,-3352.494L13051.4481,-3352.1706L13052.887,-3351.5438"/>
<path content="AP030,1,28,1,0,14,1,8,JPN" xlink:title="AP030" d="M13063.1485,-3351.2936L13062.9898,-3351.3466L13062.8998,-3351.3599L13062.7701,-3351.4866L13062.7701,-3351.7067L13062.8799,-3351.8131L13062.9303,-3351.8997L13062.8998,-3351.9932L13062.7563,-3352.066L13062.735,-3352.0771"/>
<path content="AP030,1,28,1,0,15,1,8,JPN" xlink:title="AP030" d="M13078.125,-3352.6473L13077.7679,-3351.2878"/>
<path content="AP030,1,28,1,0,14,1,8,JPN" xlink:title="AP030" d="M13073.8098,-3355.1998L13073.8602,-3355.1266L13074.2203,-3354.8401L13074.3301,-3354.66L13074.5605,-3354.48L13074.8306,-3354.2465L13074.8993,-3354.1931L13075.0793,-3354.1199L13075.3799,-3353.8864L13075.47,-3353.7067L13075.6805,-3353.5267L13076.1093,-3353.1666L13076.3107,-3353.0197L13076.4297,-3352.9133L13076.77,-3352.6066L13076.86,-3352.28L13077.24,-3351.9199L13077.3605,-3351.8131L13077.5803,-3351.4534L13077.7679,-3351.2878"/>
<path content="AP030,1,28,1,0,15,1,8,JPN" xlink:title="AP030" d="M13063.092,-3357.6927L13062.738,-3356.7577L13061.5662,-3355.1197L13061.2,-3354.2744L13060.8688,-3354.0352L13060.0128,-3353.9623L13058.905,-3353.2951L13058.5785,-3352.7245L13056.1584,-3351.8848L13055.4901,-3351.2417"/>
<path content="AP030,1,28,1,0,15,1,8,JPN" xlink:title="AP030" d="M13054.8447,-3351.6327L13055.4901,-3351.2417"/>
<path content="AP030,1,28,1,0,16,1,8,JPN" xlink:title="AP030" d="M13049.4843,-3352.0103L13049.4904,-3351.9733L13049.527,-3351.7879L13049.6506,-3351.1665L13049.6567,-3351.1398L13049.6597,-3351.1276"/>
<path content="AP030,1,28,1,0,15,1,8,JPN" xlink:title="AP030" d="M13045.9091,-3353.4111L13046.2402,-3353.1986L13046.8857,-3352.29L13047.0779,-3351.86L13049.6552,-3351.1398L13049.6597,-3351.1276"/>
<path content="AP030,1,28,1,0,15,1,8,JPN" xlink:title="AP030" d="M13044.9799,-3352.7523L13044.4946,-3352.4078L13044.1528,-3351.7971L13043.3426,-3351.0971L13043.3411,-3351.096"/>
<path content="AP030,1,28,1,0,15,1,8,JPN" xlink:title="AP030" d="M13053.3173,-3351.0918L13054.0771,-3351.2257L13054.8447,-3351.6327"/>
<path content="AP030,1,28,1,0,15,1,8,JPN" xlink:title="AP030" d="M13052.887,-3351.5438L13052.8976,-3351.5339L13053.3173,-3351.0918"/>
<path content="AP030,1,28,1,0,16,1,4,JPN" xlink:title="AP030" d="M13061.7676,-3351.0532L13062.3596,-3351.4133L13062.5198,-3351.58"/>
<path content="AP030,1,28,1,0,14,1,8,JPN" xlink:title="AP030" d="M13063.1485,-3351.2936L13063.1302,-3351.1799L13063.0402,-3351.0933L13062.8998,-3351.0933L13062.6099,-3351.1265L13062.4893,-3351.1467L13062.1094,-3350.9998L13061.9507,-3351.0532L13061.7676,-3351.0532"/>
<path content="AP030,1,28,1,0,15,1,8,JPN" xlink:title="AP030" d="M13052.887,-3351.5438L13052.7344,-3351.2768L13052.4445,-3350.7729"/>
<path content="AP030,1,28,1,0,14,1,8,JPN" xlink:title="AP030" d="M13049.4843,-3352.0103L13049.9695,-3351.6865L13050.5402,-3351.3268L13050.7706,-3351.2733L13051.0406,-3351.1265L13051.6495,-3351.0735L13051.9302,-3351.0201L13052.0874,-3350.9445L13052.3697,-3350.8083L13052.4445,-3350.7729"/>
<path content="AP030,1,28,1,0,15,1,8,JPN" xlink:title="AP030" d="M13049.6597,-3351.1276L13049.8535,-3350.6905"/>
<path content="AP030,1,28,1,0,16,1,8,JPN" xlink:title="AP030" d="M13049.6597,-3351.1276L13049.7192,-3350.8934L13049.8535,-3350.6905"/>
<path content="AP030,1,28,1,0,16,1,4,JPN" xlink:title="AP030" d="M13059.964,-3350.3811L13060.1105,-3350.4265L13060.5804,-3350.4601L13061.0199,-3350.6199L13061.5204,-3350.8732L13061.6806,-3350.9998L13061.7676,-3351.0532"/>
<path content="AP030,1,28,1,0,14,1,8,JPN" xlink:title="AP030" d="M13061.7676,-3351.0532L13061.5601,-3351.0532L13061.3602,-3350.9865L13060.9894,-3350.9266L13060.8093,-3350.84L13060.6094,-3350.7999L13060.2402,-3350.6599L13060.0204,-3350.6798L13059.9304,-3350.5333L13059.964,-3350.3811"/>
<path content="AP030,1,28,1,0,15,1,8,JPN" xlink:title="AP030" d="M13049.8535,-3350.6905L13049.8581,-3350.6798L13050.1266,-3350.351"/>
<path content="AP030,1,28,1,0,16,1,4,JPN" xlink:title="AP030" d="M13059.8099,-3350.3334L13059.964,-3350.3811"/>
<path content="AP030,1,28,1,0,15,1,8,JPN" xlink:title="AP030" d="M13063.1485,-3351.2936L13063.7817,-3351.0841L13064.4714,-3350.4486L13064.7491,-3350.2308"/>
<path content="AP030,1,28,1,0,15,1,8,JPN" xlink:title="AP030" d="M13052.4445,-3350.7729L13052.0706,-3350.1221"/>
<path content="AP030,1,28,1,0,15,1,8,JPN" xlink:title="AP030" d="M13044.9799,-3352.7523L13045.3201,-3351.8963L13046.1624,-3351.3569L13046.8506,-3350.9571L13047.0276,-3350.4368L13047.1191,-3350.2533L13047.2412,-3350.1877L13047.6288,-3350.3738L13048.1689,-3350.4395L13048.5657,-3350.1865L13048.8846,-3350.0034L13050.1266,-3350.351"/>
<path content="AP030,1,28,1,0,14,1,8,JPN" xlink:title="AP030" d="M13052.4445,-3350.7729L13052.7893,-3350.6065L13052.9495,-3350.4601L13053.0197,-3350.2998L13053.0197,-3349.8867"/>
<path content="AP030,1,28,1,0,15,1,8,JPN" xlink:title="AP030" d="M13050.1266,-3350.351L13050.1114,-3349.7696"/>
<path content="AP030,1,28,1,0,15,1,8,JPN" xlink:title="AP030" d="M13043.3411,-3351.096L13042.9688,-3350.7454"/>
<path content="AP030,1,28,1,0,15,1,8,JPN" xlink:title="AP030" d="M13053.0197,-3349.8867L13052.6138,-3349.6521L13052.0706,-3350.1221"/>
<path content="AP030,1,28,1,0,15,1,8,JPN" xlink:title="AP030" d="M13068.1534,-3354.1359L13068.1534,-3354.1351L13068.0695,-3353.4676L13068.0237,-3353.2524L13066.4093,-3352.9049L13066.2064,-3352.4956L13066.1316,-3351.9161L13066.5771,-3350.898L13066.8106,-3349.5602"/>
<path content="AP030,1,28,1,0,15,1,8,JPN" xlink:title="AP030" d="M13064.7491,-3350.2308L13065.8264,-3349.9599L13066.8106,-3349.5602"/>
<path content="AP030,1,28,1,0,15,1,8,JPN" xlink:title="AP030" d="M13055.4901,-3351.2417L13055.127,-3350.8923L13054.8538,-3350.1751L13054.7699,-3349.987L13054.5639,-3349.5319"/>
<path content="AP030,1,28,1,0,15,1,8,JPN" xlink:title="AP030" d="M13053.3173,-3351.0918L13053.8788,-3350.4997L13054.1901,-3350.1762L13054.5639,-3349.5319"/>
<path content="AP030,1,28,1,0,15,1,8,JPN" xlink:title="AP030" d="M13054.5639,-3349.5319L13054.5624,-3349.5296L13053.9291,-3349.493L13053.3997,-3349.4335"/>
<path content="AP030,1,28,1,0,14,1,8,JPN" xlink:title="AP030" d="M13053.0197,-3349.8867L13053.1097,-3349.7932L13053.36,-3349.5602L13053.3997,-3349.4335"/>
<path content="AP030,1,28,1,0,16,1,8,JPN" xlink:title="AP030" d="M13049.8535,-3350.6905L13049.8596,-3350.6798L13050.5402,-3349.8466L13050.7904,-3349.58L13050.8881,-3349.3885"/>
<path content="AP030,1,28,1,0,14,1,8,JPN" xlink:title="AP030" d="M13059.964,-3350.3811L13059.9701,-3350.3532L13059.9503,-3350.2602L13059.5596,-3350.0134L13059.52,-3349.8665L13059.4299,-3349.7932L13059.3796,-3349.5266L13059.2194,-3349.3599"/>
<path content="AP030,1,28,1,0,16,1,8,JPN" xlink:title="AP030" d="M13059.8099,-3350.3334L13059.5398,-3350.2266L13059.3796,-3350.0668L13059.3094,-3349.9199L13059.1507,-3349.7601L13059.2194,-3349.3599"/>
<path content="AP030,1,28,1,0,14,1,8,JPN" xlink:title="AP030" d="M13058.3572,-3348.9132L13058.7006,-3349.1467L13058.8303,-3349.1798L13059.0393,-3349.2332L13059.2194,-3349.3599"/>
<path content="AP030,1,28,1,0,15,1,8,JPN" xlink:title="AP030" d="M13055.4901,-3351.2417L13057.2479,-3350.4444L13057.8751,-3350.1823L13058.168,-3349.4133L13058.3572,-3348.9132"/>
<path content="AP030,1,28,1,0,15,1,8,JPN" xlink:title="AP030" d="M13052.0706,-3350.1221L13051.9531,-3349.7688L13051.9455,-3349.7463L13052.5803,-3348.7465"/>
<path content="AP030,1,28,1,0,15,1,8,JPN" xlink:title="AP030" d="M13050.8881,-3349.3885L13051.1505,-3349.2001L13051.3107,-3348.8731L13051.3596,-3348.8201L13051.3794,-3348.7667L13051.6495,-3348.5001L13051.7395,-3348.3532"/>
<path content="AP030,1,28,1,0,14,1,8,JPN" xlink:title="AP030" d="M13053.3997,-3349.4335L13053.3997,-3349.4331L13053.3997,-3348.8602L13053.5599,-3348.5535L13053.7201,-3348.3002"/>
<path content="AP030,1,28,1,0,15,1,8,JPN" xlink:title="AP030" d="M13052.5803,-3348.7465L13052.9785,-3348.5905L13053.7201,-3348.3002"/>
<path content="AP030,1,28,1,0,14,1,8,JPN" xlink:title="AP030" d="M13057.5195,-3348.0793L13057.7164,-3348.262L13057.93,-3348.46L13058.11,-3348.6801L13058.3572,-3348.9132"/>
<path content="AP030,1,28,1,0,15,1,8,JPN" xlink:title="AP030" d="M13054.5639,-3349.5319L13054.5639,-3349.5296L13054.6265,-3348.9372L13054.8126,-3348.0755"/>
<path content="AP030,1,28,1,0,15,1,8,JPN" xlink:title="AP030" d="M13053.7201,-3348.3002L13054.8126,-3348.0755"/>
<path content="AP030,1,28,1,0,16,1,8,JPN" xlink:title="AP030" d="M13059.2194,-3349.3599L13059.1995,-3349.2332L13059.0805,-3349.0532L13058.58,-3348.6198L13057.9498,-3347.9733L13057.93,-3347.9198L13057.93,-3347.9191"/>
<path content="AP030,1,28,1,0,15,1,8,JPN" xlink:title="AP030" d="M13057.5195,-3348.0793L13057.6797,-3348.0396L13057.9285,-3347.9198L13057.93,-3347.9191"/>
<path content="AP030,1,28,1,0,15,1,8,JPN" xlink:title="AP030" d="M13066.8106,-3349.5602L13067.3599,-3348.5809L13067.7948,-3348.2555L13068.2983,-3347.966L13068.4875,-3347.4865L13068.6981,-3347.58L13068.6996,-3347.5796"/>
<path content="AP030,1,28,1,0,14,1,8,JPN" xlink:title="AP030" d="M13056.1295,-3347.4335L13056.2195,-3347.4667L13056.9702,-3347.6868L13057.3593,-3347.8664L13057.5195,-3348.0793"/>
<path content="AP030,1,28,1,0,15,1,8,JPN" xlink:title="AP030" d="M13054.8126,-3348.0755L13055.4993,-3347.8058L13055.748,-3347.6978L13055.9982,-3347.6978L13056.1295,-3347.4335"/>
<path content="AP030,1,28,1,0,14,1,8,JPN" xlink:title="AP030" d="M13077.7679,-3351.2878L13077.7695,-3351.2867L13077.9007,-3351.1665L13078.125,-3350.8454"/>
<path content="AP030,1,28,1,0,14,1,8,JPN" xlink:title="AP030" d="M13068.6996,-3347.5796L13068.6996,-3347.58L13068.8095,-3347.5601L13069.1299,-3347.3465L13069.3298,-3347.2534L13069.5404,-3347.2198L13069.6793,-3347.2534L13069.7403,-3347.3267L13069.7205,-3347.5399L13069.6304,-3347.5067L13069.5404,-3347.3598L13069.4504,-3347.3801L13069.4504,-3347.6334L13069.5206,-3347.6868L13069.7205,-3347.7402L13069.8593,-3347.8134L13069.9707,-3347.9L13069.9493,-3348.0667L13069.9707,-3348.1201L13070.0607,-3348.1201L13070.2194,-3347.9733L13070.3598,-3347.9534L13070.4498,-3347.8134L13070.61,-3347.8333L13070.7001,-3347.8134L13070.8603,-3347.7932L13070.8801,-3347.8664L13070.8099,-3347.9L13070.5597,-3347.9935L13070.5597,-3348.0801L13070.52,-3348.1201L13070.3796,-3348.1201L13070.2194,-3348.2468L13070.1996,-3348.32L13070.3293,-3348.5535L13070.52,-3348.6599L13070.7001,-3348.6599L13070.7001,-3348.7331L13070.5795,-3348.84L13070.5597,-3348.9666L13070.5399,-3349.0002L13070.3995,-3348.9666L13070.3598,-3349.02L13070.3293,-3349.2001L13070.3598,-3349.2332L13070.5795,-3349.2535L13070.61,-3349.2867L13070.6497,-3349.3267L13070.5597,-3349.3801L13070.5597,-3349.5068L13070.4498,-3349.58L13070.4498,-3349.6532L13070.61,-3349.6864L13070.7397,-3349.6666L13070.8603,-3349.5934L13071.0205,-3349.6132L13071.0403,-3349.6666L13071.0403,-3349.8135L13071.1105,-3349.8665L13071.0403,-3349.9199L13070.9305,-3349.9199L13070.7199,-3349.9199L13070.5597,-3349.9931L13070.4697,-3349.9401L13070.3598,-3349.9535L13070.2393,-3349.9199L13070.1492,-3349.8135L13070.0806,-3349.7734L13070.0195,-3349.8466L13070.0195,-3349.9199L13069.9005,-3349.9733L13069.8807,-3350.0267L13069.9493,-3350.0668L13070.0806,-3350.1934L13070.1797,-3350.2464L13070.1492,-3350.3735L13070.2194,-3350.4997L13070.1996,-3350.6199L13070.2194,-3350.7133L13070.2194,-3350.7999L13070.0806,-3350.9998L13070.0806,-3351.3065L13070.0195,-3351.5598L13070.0195,-3351.6335L13070.1096,-3351.6132L13070.1797,-3351.4866L13070.3094,-3351.3268L13070.3598,-3351.3065L13070.4498,-3351.3798L13070.4895,-3351.5598L13070.4895,-3351.7067L13070.4498,-3351.7933L13070.4895,-3351.9199L13070.5597,-3352.0664L13070.7001,-3352.2064L13070.8801,-3352.4399L13071.0403,-3352.7466L13071.2692,-3353.22L13071.3776,-3353.273"/>
<path content="AP030,1,28,1,0,14,1,8,JPN" xlink:title="AP030" d="M13053.7201,-3348.3002L13053.7704,-3347.9L13053.8284,-3347.403L13053.8605,-3347.1268"/>
<path content="AP030,1,28,1,0,14,1,8,JPN" xlink:title="AP030" d="M13052.5803,-3348.7465L13052.9495,-3348.2601L13053.2394,-3347.8134L13053.5202,-3347.4865L13053.8605,-3347.1268"/>
<path content="AP030,1,28,1,0,14,1,8,JPN" xlink:title="AP030" d="M13068.6996,-3347.5796L13068.4906,-3347.4865L13068.5196,-3347.1821L13068.5196,-3347.1802L13068.4692,-3347.1066L13068.4692,-3347.1058"/>
<path content="AP030,1,28,1,0,15,1,8,JPN" xlink:title="AP030" d="M13064.7491,-3350.2308L13064.0869,-3350.0542L13064.18,-3349.5792L13063.7131,-3348.967L13063.4293,-3348.3395L13063.2614,-3347.9332L13063.0875,-3347.8882L13062.9089,-3347.8733L13062.6816,-3347.673L13062.8601,-3347.3862L13063.0447,-3347.3415L13062.8067,-3347.2309L13061.9919,-3346.9013"/>
<path content="AP030,1,28,1,0,15,1,8,JPN" xlink:title="AP030" d="M13057.93,-3347.9191L13058.6258,-3347.6032L13059.7229,-3347.5819L13060.5148,-3347.2664L13061.0428,-3347.4258L13061.7142,-3347.1577L13061.9919,-3346.9013"/>
<path content="AP030,1,28,1,0,16,1,8,JPN" xlink:title="AP030" d="M13057.93,-3347.9191L13057.6797,-3347.5266L13057.6492,-3347.4865L13057.5195,-3347.2L13057.3807,-3347.02L13057.0404,-3346.6599"/>
<path content="AP030,1,28,1,0,14,1,8,JPN" xlink:title="AP030" d="M13056.1295,-3347.4335L13056.25,-3347.3053L13056.4499,-3347.0932L13056.72,-3346.9131L13057.0404,-3346.6599"/>
<path content="AP030,1,28,1,0,14,1,8,JPN" xlink:title="AP030" d="M13068.4692,-3347.1058L13068.3594,-3347.0402L13068.2007,-3347.0402L13068.1305,-3347.02L13068.0603,-3346.9467L13068.0206,-3346.5534L13068.0603,-3346.46L13068.0801,-3346.3001"/>
<path content="AP030,1,28,1,0,14,1,8,JPN" xlink:title="AP030" d="M13054.6097,-3346.1533L13054.9301,-3346.1735L13055.0674,-3346.3406L13055.1498,-3346.4401L13055.4001,-3346.6064L13055.5206,-3346.8201L13055.7205,-3347.0001L13055.7281,-3347.0711L13055.7404,-3347.1664L13055.8105,-3347.2534L13056.1295,-3347.4335"/>
<path content="AP030,1,28,1,0,14,1,8,JPN" xlink:title="AP030" d="M13053.8605,-3347.1268L13054.4296,-3346.5668L13054.5471,-3346.4214L13054.6295,-3346.32L13054.6097,-3346.1533"/>
<path content="AP030,1,28,1,0,15,1,8,JPN" xlink:title="AP030" d="M13068.4692,-3347.1058L13069.2871,-3346.1205"/>
<path content="AP030,1,28,1,0,14,1,8,JPN" xlink:title="AP030" d="M13068.9682,-3346.1525L13068.9697,-3346.1533L13069.0399,-3346.1533L13069.2871,-3346.1205"/>
<path content="AP030,1,28,1,0,14,1,8,JPN" xlink:title="AP030" d="M13068.0801,-3346.3001L13068.3594,-3346.2265L13068.5394,-3346.1201L13068.6798,-3346.0667L13068.8797,-3346.0999L13068.9682,-3346.1525"/>
<path content="AP030,1,28,1,0,14,1,8,JPN" xlink:title="AP030" d="M13054.6097,-3346.1533L13054.4296,-3345.8668"/>
<path content="AP030,1,28,1,0,14,1,8,JPN" xlink:title="AP030" d="M13069.2871,-3346.1205L13069.2902,-3346.1201L13069.4504,-3346.0667L13069.8593,-3346.0667L13070.3796,-3345.8466L13070.6299,-3345.7932L13071.08,-3345.7733L13071.3806,-3345.6135L13071.4905,-3345.4132L13071.5805,-3345.3465L13071.8094,-3345.3602L13071.8307,-3345.3602L13071.8597,-3345.5399L13071.9894,-3345.5399L13072.2,-3345.5067L13072.3099,-3345.5799L13072.3297,-3345.6665L13072.3602,-3345.7401L13072.5601,-3345.7401L13072.6807,-3345.8668L13072.7005,-3345.94L13072.6807,-3346.0667L13072.8104,-3346.2467L13072.8806,-3346.32L13072.9706,-3346.3531L13073.3093,-3346.3531L13073.3795,-3346.3734L13073.4299,-3346.3734L13073.4695,-3346.08L13073.5397,-3346.0133L13073.6496,-3346.0133L13073.7198,-3346.08L13073.7701,-3346.2467L13073.8998,-3346.4802L13073.9899,-3346.5534L13074.1806,-3346.6064L13074.3301,-3346.5866L13074.3805,-3346.7464L13074.3103,-3346.8399L13074.3607,-3346.9131L13074.4507,-3346.9467L13074.6094,-3346.8933L13074.8795,-3346.8933L13075.0595,-3346.7667L13075.3296,-3346.7667L13075.4898,-3346.8735L13075.6104,-3346.8933L13075.7706,-3346.8201L13076.0406,-3346.9131L13076.2695,-3346.8399L13076.3596,-3346.8399L13076.5793,-3346.9868L13076.6495,-3346.9868L13076.7395,-3346.9868L13076.9699,-3346.8201L13077.1103,-3346.8201L13077.3605,-3346.5134L13077.3605,-3346.2265L13077.4307,-3346.2067L13077.5406,-3346.2265L13077.8595,-3346.3734L13077.9297,-3346.2799L13077.9694,-3346.2067L13077.9495,-3346.1334L13077.9007,-3346.0464L13077.9007,-3345.9934L13078.0594,-3346.0133L13078.125,-3346.0716"/>
<path content="AP030,1,28,1,0,14,1,8,JPN" xlink:title="AP030" d="M13054.4296,-3345.8668L13054.6295,-3345.4666L13054.6494,-3345.2732L13054.6295,-3345.1466"/>
<path content="AP030,1,28,1,0,14,1,8,JPN" xlink:title="AP030" d="M13057.0404,-3346.6599L13056.7902,-3346.3867L13056.6803,-3346.2067L13056.5201,-3345.8668L13056.4896,-3345.7932L13056.2698,-3345.3465L13056.2393,-3345.3136L13056.1493,-3345.2202L13056.0196,-3345.1466"/>
<path content="AP030,1,28,1,0,15,1,8,JPN" xlink:title="AP030" d="M13054.6097,-3346.1533L13055.3253,-3345.5898L13055.7602,-3345.3552L13056.0196,-3345.1466"/>
<path content="AP030,1,28,1,0,14,1,8,JPN" xlink:title="AP030" d="M13054.6295,-3345.1466L13055.6793,-3345.0932L13056.0196,-3345.1466"/>
<path content="AP030,1,28,1,0,16,1,8,JPN" xlink:title="AP030" d="M13051.7395,-3348.3532L13051.86,-3348.0267L13051.8799,-3347.9534L13051.9699,-3347.8867L13052.4307,-3347.5067L13052.6093,-3347.3999L13052.6505,-3347.3801L13052.9297,-3347.2866L13053.1799,-3347.2L13053.36,-3346.7865L13053.4897,-3346.2799L13053.5202,-3345.9534L13053.54,-3345.8866L13053.5202,-3345.4334L13053.4897,-3345.2534L13053.3798,-3345.0733L13053.2196,-3344.8734L13052.9709,-3344.5656"/>
<path content="AP030,1,28,1,0,16,1,8,JPN" xlink:title="AP030" d="M13050.8881,-3349.3885L13050.9293,-3349.3065L13051.2894,-3348.2468L13051.7197,-3347.76L13051.86,-3347.5067L13051.8799,-3347.4533L13052.1301,-3346.8933L13052.2705,-3346.7133L13052.4506,-3346.5332L13052.8305,-3346.1533L13052.9694,-3345.9202L13053.0396,-3345.7401L13053.0594,-3345.5265L13052.9907,-3344.8601L13052.9709,-3344.5656"/>
<path content="AP030,1,28,1,0,14,1,8,JPN" xlink:title="AP030" d="M13054.6295,-3345.1466L13054.6295,-3345.0932L13054.4495,-3344.8601L13054.1794,-3344.6934L13053.5797,-3344.4267"/>
<path content="AP030,1,28,1,0,14,1,8,JPN" xlink:title="AP030" d="M13054.4296,-3345.8668L13054.4006,-3345.7932L13054.2892,-3345.6333L13054.2694,-3345.5799L13054.1504,-3345.4865L13054.1107,-3345.3999L13054.1107,-3344.9867L13053.9703,-3344.82L13053.6102,-3344.4801L13053.5797,-3344.4267"/>
<path content="AP030,1,28,1,0,15,1,8,JPN" xlink:title="AP030" d="M13061.9919,-3346.9013L13063.1775,-3345.8088L13064.6805,-3343.94"/>
<path content="AP030,1,28,1,0,14,1,8,JPN" xlink:title="AP030" d="M13063.1805,-3343.5932L13063.6795,-3343.7401L13063.7207,-3343.7599L13064.0793,-3343.8465L13064.6805,-3343.94"/>
<path content="AP030,1,28,1,0,14,1,8,JPN" xlink:title="AP030" d="M13057.0404,-3346.6599L13057.1106,-3346.5866L13057.5394,-3346.4268L13057.9895,-3346.2799L13058.4,-3346.08L13058.7006,-3345.8668L13059.4696,-3345.5265L13059.4894,-3345.5265L13059.8297,-3345.3465L13059.9503,-3345.3465L13060.6094,-3345.2534L13061.0199,-3345.0535L13061.5204,-3344.8002L13062.3093,-3344.1933L13062.3596,-3344.1734L13062.7899,-3343.8465L13062.8799,-3343.7935L13063.1805,-3343.5932"/>
<path content="AP030,1,28,1,0,14,1,8,JPN" xlink:title="AP030" d="M13053.5797,-3344.4267L13053.4897,-3344.1734L13053.2898,-3343.8866L13053.2898,-3343.5791"/>
<path content="AP030,1,28,1,0,16,1,8,JPN" xlink:title="AP030" d="M13052.9709,-3344.5656L13052.9495,-3344.2467L13053.0197,-3344.0132L13053.1418,-3343.7904L13053.1799,-3343.7199L13053.2898,-3343.5791"/>
<path content="AP030,1,28,1,0,14,1,8,JPN" xlink:title="AP030" d="M13068.0801,-3346.3001L13067.8101,-3345.9534L13067.6498,-3345.6333L13067.3294,-3345.2866L13067.1997,-3345.1065L13067.0807,-3344.82L13066.9296,-3344.4267L13066.5405,-3344.1933L13066.4307,-3344.1002L13066.1804,-3343.6867L13065.8798,-3343.3601"/>
<path content="AP030,1,28,1,0,14,1,8,JPN" xlink:title="AP030" d="M13064.6805,-3343.94L13064.83,-3343.8866L13065.8798,-3343.3601"/>
<path content="AP030,1,28,1,0,14,1,8,JPN" xlink:title="AP030" d="M13065.8798,-3343.3601L13065.77,-3343.2533L13065.5396,-3342.9466L13065.4495,-3342.7334L13065.4495,-3342.3"/>
<path content="AP030,1,28,1,0,14,1,8,JPN" xlink:title="AP030" d="M13063.1805,-3343.5932L13063.6505,-3343.3067L13063.9297,-3343.1801L13064.1296,-3343.0931L13064.8804,-3342.7132L13064.9506,-3342.6601L13065.1993,-3342.5331L13065.4495,-3342.3"/>
<path content="AP030,1,28,1,0,14,1,8,JPN" xlink:title="AP030" d="M13053.2898,-3343.5791L13053.2898,-3343.2533L13053.2898,-3343.0199L13053.2394,-3342.7467L13053.1494,-3342.4065L13053.1494,-3342.2798"/>
<path content="AP030,1,28,1,0,14,1,8,JPN" xlink:title="AP030" d="M13065.8798,-3343.3601L13066.4001,-3343.0931L13066.5405,-3343.0931L13066.7892,-3343.0534L13066.9693,-3343L13067.0807,-3342.86L13067.1494,-3342.7868L13067.2699,-3342.6067L13067.2897,-3342.5533L13067.4698,-3342.4267L13067.63,-3342.3332L13067.7002,-3342.2466L13067.7399,-3342.12L13067.9504,-3341.9533"/>
<path content="AP030,1,28,1,0,16,1,8,JPN" xlink:title="AP030" d="M13052.9709,-3344.5656L13052.6794,-3344.2066L13052.4506,-3343.8999L13052.4307,-3343.8133L13052.2202,-3343.3468L13052.1805,-3343.2732L13051.86,-3342.9867L13051.6998,-3342.86L13051.5594,-3342.5865L13051.5198,-3342.5533L13051.0803,-3342.2264L13051.0605,-3342.12L13050.9903,-3341.8465L13050.9903,-3341.7934L13050.9903,-3341.7931"/>
<path content="AP030,1,28,1,0,15,1,8,JPN" xlink:title="AP030" d="M13043.3411,-3351.096L13044.1254,-3350.2827L13043.7454,-3349.8482L13043.8019,-3349.5663L13045.0333,-3347.5307L13045.7047,-3346.5179L13046.4691,-3345.6848L13046.7911,-3345.6551L13047.1558,-3345.6673L13047.7829,-3344.8227L13047.229,-3344.125L13048.1796,-3342.8871L13048.4802,-3342.6643L13048.7869,-3342.5758L13049.437,-3342.6697L13049.7269,-3342.5415L13050.3494,-3341.9254L13050.9872,-3341.7931L13050.9903,-3341.7931"/>
<path content="AP030,1,28,1,0,15,1,8,JPN" xlink:title="AP030" d="M13050.9903,-3341.7931L13051.3718,-3341.7645L13051.8585,-3342.0738L13052.9846,-3342.2535L13053.1494,-3342.2798"/>
<path content="AP030,1,28,1,0,14,1,8,JPN" xlink:title="AP030" d="M13067.9504,-3341.9533L13067.9504,-3341.8865L13067.9001,-3341.8331L13067.6102,-3341.3067"/>
<path content="AP030,1,28,1,0,14,1,8,JPN" xlink:title="AP030" d="M13065.4495,-3342.3L13065.77,-3342.1734L13066.0797,-3342.0666L13066.2704,-3341.8865L13066.4307,-3341.7198L13066.9006,-3341.5066L13067.2394,-3341.4333L13067.2699,-3341.4333L13067.6102,-3341.3067"/>
<path content="AP030,1,28,1,0,15,1,8,JPN" xlink:title="AP030" d="M13068.9682,-3346.1525L13069.4504,-3345.5589L13069.8776,-3344.9913L13070.3629,-3344.8513L13070.7077,-3344.669L13070.7794,-3344.0716L13070.8145,-3343.4711L13070.5765,-3343.3605L13070.1889,-3343.298L13070.1996,-3342.6048L13070.3363,-3341.1451"/>
<path content="AP030,1,28,1,0,14,1,8,JPN" xlink:title="AP030" d="M13067.9504,-3341.9533L13068.7391,-3341.7079L13069.8001,-3341.3805L13070.3363,-3341.1451"/>
<path content="AP030,1,28,1,0,15,1,8,JPN" xlink:title="AP030" d="M13070.6955,-3340.9874L13071.1456,-3341.3731L13071.8445,-3342.0246L13071.8445,-3342.4072L13071.8933,-3342.7555L13072.4091,-3343.2194L13072.4838,-3343.5509L13072.5372,-3343.6703L13072.9919,-3343.4978L13073.4955,-3343.4826L13074.353,-3343.5543L13074.6887,-3343.4292L13075.1831,-3343.4898L13075.7568,-3343.4612L13076.1612,-3343.5143L13076.3977,-3343.821L13077.1362,-3343.7485L13078.125,-3343.8308"/>
<path content="AP030,1,28,1,0,14,1,8,JPN" xlink:title="AP030" d="M13070.3363,-3341.1451L13070.6955,-3340.9874"/>
<path content="AP030,1,28,1,0,14,1,8,JPN" xlink:title="AP030" d="M13042.9688,-3345.3334L13043.0206,-3345.2866L13043.0405,-3345.1065L13042.9703,-3345.0401L13042.9687,-3345.0364M13042.9688,-3344.7453L13043.1107,-3344.6602L13043.1793,-3344.5L13042.9703,-3344.12L13042.9688,-3344.1199"/>
<path content="AP030,1,28,1,0,14,1,8,JPN" xlink:title="AP030" d="M13065.4495,-3342.3L13065.4297,-3342.0265L13065.4007,-3341.7934L13065.5594,-3341.7065L13064.9506,-3340.9134L13064.7003,-3340.5865"/>
<path content="AP030,1,28,1,0,15,1,8,JPN" xlink:title="AP030" d="M13056.0196,-3345.1466L13056.485,-3344.9047L13057.0648,-3344.6037L13057.9346,-3344.1345L13058.316,-3343.8057L13058.696,-3343.3361L13058.9691,-3342.6319L13059.024,-3341.9277L13059.1873,-3341.3174L13059.0607,-3340.3"/>
<path content="AP030,1,28,1,0,14,1,8,JPN" xlink:title="AP030" d="M13064.7003,-3340.5865L13064.5798,-3340.48L13064.27,-3340.2599L13064.2273,-3340.226"/>
<path content="AP030,1,28,1,0,16,1,8,JPN" xlink:title="AP030" d="M13064.2273,-3340.226L13064.6301,-3340.1531L13064.9002,-3340.1531L13065.4626,-3340.2156"/>
<path content="AP030,1,28,1,0,14,1,8,JPN" xlink:title="AP030" d="M13064.7003,-3340.5865L13064.2395,-3340.7467L13064.1296,-3340.7867L13063.9999,-3340.8138L13063.9694,-3340.8199L13063.8107,-3340.86L13063.3102,-3340.9866L13063.15,-3341.0198L13062.2894,-3341.1266L13061.6501,-3341.1999L13061.3297,-3341.1999L13060.9299,-3341.18L13060.5392,-3341.1064L13060.4004,-3341.0198L13060.0601,-3340.6601L13059.6497,-3340.3866L13059.4269,-3340.1463"/>
<path content="AP030,1,28,1,0,16,1,8,JPN" xlink:title="AP030" d="M13059.0607,-3340.3L13059.1949,-3340.2435L13059.4269,-3340.1463"/>
<path content="AP030,1,28,1,0,15,1,8,JPN" xlink:title="AP030" d="M13069.6991,-3340.134L13070.6955,-3340.9874"/>
<path content="AP030,1,28,1,0,14,1,8,JPN" xlink:title="AP030" d="M13067.6102,-3341.3067L13068.1107,-3341.1064L13068.2693,-3340.9866L13068.3594,-3340.9134L13068.4296,-3340.86L13068.5806,-3340.8401L13068.7195,-3340.8199L13068.8095,-3340.7665L13069.2398,-3340.48L13069.6991,-3340.134"/>
<path content="AP030,1,28,1,0,16,1,8,JPN" xlink:title="AP030" d="M13059.4269,-3340.1463L13059.4894,-3340.1199"/>
<path content="AP030,1,28,1,0,16,1,8,JPN" xlink:title="AP030" d="M13055.3391,-3339.9798L13055.3406,-3339.9799L13056.6101,-3340.1001L13057.4005,-3340.2065L13058.0597,-3340.3732L13058.3801,-3340.3732L13058.9294,-3340.3198L13059.0607,-3340.3"/>
<path content="AP030,1,28,1,0,15,1,8,JPN" xlink:title="AP030" d="M13056.0196,-3345.1466L13055.7281,-3342.5388L13055.3391,-3339.9798"/>
<path content="AP030,1,28,1,0,16,1,8,JPN" xlink:title="AP030" d="M13055.2673,-3339.9727L13055.2963,-3339.9757L13055.3391,-3339.9798"/>
<path content="AP030,1,28,1,0,14,1,8,JPN" xlink:title="AP030" d="M13053.1494,-3342.2798L13053.2196,-3342.12L13053.1799,-3341.8865L13053.1494,-3341.74L13053.1296,-3341.5977L13053.0807,-3341.2533L13053.0807,-3340.6067L13052.9495,-3340.2065L13052.8107,-3339.8464"/>
<path content="AP030,1,28,1,0,15,1,8,JPN" xlink:title="AP030" d="M13069.3831,-3339.8438L13069.6976,-3340.1333L13069.6991,-3340.134"/>
<path content="AP030,1,28,1,0,16,1,8,JPN" xlink:title="AP030" d="M13065.4626,-3340.2156L13067.1799,-3340.4064L13067.6498,-3340.4598L13067.9901,-3340.3866L13068.3304,-3340.2065L13068.8835,-3339.8438"/>
<path content="AP030,1,28,1,0,16,1,8,JPN" xlink:title="AP030" d="M13054.6237,-3339.8438L13055.2673,-3339.9727"/>
<path content="AP030,1,28,1,0,16,1,8,JPN" xlink:title="AP030" d="M13053.2898,-3343.5791L13053.4302,-3343.3998L13053.5599,-3343.0931L13053.6102,-3342.86L13053.6301,-3342.5331L13053.7003,-3342.3534L13053.8803,-3341.9399L13053.9001,-3341.74L13053.8605,-3341.2201L13053.8559,-3341.2025L13053.7704,-3340.8401L13053.7201,-3340.1932L13053.7399,-3340.0131L13053.7624,-3339.8438"/>
<path content="AP030,1,28,1,0,16,1,8,JPN" xlink:title="AP030" d="M13050.9903,-3341.7931L13050.8606,-3341.1266L13050.9903,-3340.86L13051.1307,-3340.5865L13051.1993,-3340.4266L13051.1993,-3340.2599L13051.1093,-3340.1531L13050.8301,-3339.9933L13050.6616,-3339.8438"/>
<path content="AP030,1,28,1,0,14,1,8,JPN" xlink:title="AP030" d="M13052.8061,-3339.8438L13052.8107,-3339.8464"/>
<path content="AP030,1,28,1,0,14,1,8,JPN" xlink:title="AP030" d="M13057.3473,-3339.8438L13057.3593,-3339.8464L13057.8598,-3339.8666L13057.938,-3339.8437M13058.8042,-3339.8438L13059.4269,-3340.1463"/>
<path content="AP030,1,28,1,0,15,1,8,JPN" xlink:title="AP030" d="M13055.2673,-3339.9727L13055.2437,-3339.8438"/>
<path content="AP030,1,28,1,0,14,1,8,JPN" xlink:title="AP030" d="M13052.8107,-3339.8464L13052.8098,-3339.8438"/>
<path content="AP030,1,28,1,0,16,1,8,JPN" xlink:title="AP030" d="M13059.4894,-3340.1199L13060.04,-3339.8438M13062.717,-3339.8438L13063.1805,-3340.1199L13063.4293,-3340.2466L13063.6688,-3340.2763L13063.6993,-3340.2802L13064.0396,-3340.2599L13064.2273,-3340.226"/>
<path content="AP030,1,28,1,0,14,1,8,JPN" xlink:title="AP030" d="M13064.2273,-3340.226L13064.1098,-3340.1333L13063.9893,-3340.0467L13063.8596,-3339.8998L13063.6505,-3339.9399L13063.5757,-3339.9399L13063.5193,-3339.9399L13063.4293,-3339.8998L13063.4093,-3339.8438"/>
<path content="AP030,1,28,1,0,14,1,8,JPN" xlink:title="AP030" d="M13070.6955,-3340.9874L13071.7006,-3340.213L13072.0131,-3339.8438"/>
<path content="AP030,1,28,1,0,14,1,8,JPN" xlink:title="AP030" d="M13069.6991,-3340.134L13069.7006,-3340.1333L13069.8593,-3340.0131L13070.153,-3339.8438"/>
<path content="AP030,1,28,1,0,15,1,8,JPN" xlink:title="AP030" d="M13065.4626,-3340.2156L13065.7425,-3339.8438"/>
<path content="AP030,1,28,1,0,15,1,8,JPN" xlink:title="AP030" d="M13078.125,-3340.4981L13078.0334,-3340.4182L13077.8212,-3339.8438"/>
<path content="AP030,1,28,1,0,15,1,8,JPN" xlink:title="AP030" d="M13059.4894,-3340.1199L13059.6005,-3339.8438"/>
<path content="AP030,1,28,1,1,14,1,8,JPN" xlink:title="AP030" d="M13042.9688,-3354.1697L13043.9368,-3354.2382L13045.8867,-3356.0093L13046.2906,-3356.5334"/>
<path content="AP030,1,28,1,0,14,1,8,JPN" xlink:title="AP030" d="M13046.2906,-3356.5334L13046.6492,-3356.427"/>
</g>
</svg>
