<?xml version="1.0" encoding="UTF-8"?>
<svg  xmlns="http://www.w3.org/2000/svg" xmlns:xlink="http://www.w3.org/1999/xlink" xmlns:go="http://purl.org/svgmap/profile" property="f_code,acc,exs,rst,med,rtt,RSU,loc,soc" viewBox="13992.1875 -3656.25 35.15625 35.15625" go:dataArea="13992.1875 -3656.25 35.15625 35.15625" >
<metadata>
 <rdf:RDF xmlns:rdf="http://www.w3.org/1999/02/22-rdf-syntax-ns#" xmlns:crs="http://opengis.org/xmldtds/transformations.dtd" xmlns:svg="http://www.w3.org/svg" >
  <rdf:Description>
   <crs:CoordinateReferenceSystem rdf:resource="http://purl.org/crs/84" svg:transform="matrix(100.0,0.0,0.0,-100.0,0.0,0.0)" />
  </rdf:Description>
 </rdf:RDF>
</metadata>
<globalCoordinateSystem srsName="http://purl.org/crs/84" transform="matrix(100.0,0.0,0.0,-100.0,0.0,0.0)" />
<defs>
 <g id="p0" >
  <circle cx="0.0" cy="0.0" r="3" stroke="green" stroke-width="2.0" vector-effect="non-scaling-stroke" />
 </g>
</defs>
<g fill="none" fill-rule="evenodd" stroke="#00ff00" stroke-width="2" opacity="0.5" vector-effect="non-scaling-stroke" stroke-linejoin="bevel" >
<path content="AP030,1,28,1,0,14,1,8,JPN" xlink:title="AP030" d="M14025.1629,-3656.25L14025.2701,-3656.2065L14025.6104,-3656.1535L14026.0193,-3656.1333L14026.2894,-3656.1932L14026.4694,-3656.2065L14026.5505,-3656.25"/>
<path content="AP030,1,28,1,0,15,1,8,JPN" xlink:title="AP030" d="M14003.971,-3656.25L14003.7231,-3655.788"/>
<path content="AP030,1,28,1,0,15,1,8,JPN" xlink:title="AP030" d="M14001.7751,-3656.25L14003.7231,-3655.788"/>
<path content="AP030,1,28,1,0,15,1,8,JPN" xlink:title="AP030" d="M13994.1498,-3655.6866L13995.4267,-3656.25"/>
<path content="AP030,1,28,1,0,14,1,8,JPN" xlink:title="AP030" d="M13994.1765,-3656.25L13994.1498,-3655.6866"/>
<path content="AP030,1,28,1,0,15,1,8,JPN" xlink:title="AP030" d="M13992.1875,-3655.736L13994.1498,-3655.6866"/>
<path content="AP030,1,28,1,0,15,1,8,JPN" xlink:title="AP030" d="M14006.2375,-3656.25L14006.1707,-3655.2532"/>
<path content="AP030,1,28,1,0,15,1,8,JPN" xlink:title="AP030" d="M14003.7231,-3655.788L14004.6875,-3655.6503L14006.1707,-3655.2532"/>
<path content="AP030,1,28,1,0,14,1,8,JPN" xlink:title="AP030" d="M14015.0404,-3656.25L14015.1093,-3656.1535L14015.2206,-3656.0799L14015.1993,-3655.92L14015.2893,-3655.8334L14015.3595,-3655.7198L14015.3305,-3655.6332L14015.2405,-3655.5599L14015.2893,-3655.4001L14015.4907,-3655.1266L14015.6998,-3655.0198L14015.7898,-3654.9133"/>
<path content="AP030,1,28,1,0,15,1,8,JPN" xlink:title="AP030" d="M14006.1707,-3655.2532L14006.1264,-3654.5902"/>
<path content="AP030,1,28,1,0,14,1,8,JPN" xlink:title="AP030" d="M13994.1498,-3655.6866L13994.1498,-3655.5798L13994.0796,-3654.9999L13994.0399,-3654.9133L13993.8095,-3654.5334"/>
<path content="AP030,1,28,1,0,14,1,8,JPN" xlink:title="AP030" d="M13992.1875,-3654.9256L13992.2699,-3654.9133L13992.7902,-3654.8199L13993.3105,-3654.6799L13993.6096,-3654.6066L13993.8095,-3654.5334"/>
<path content="AP030,1,28,1,0,15,1,8,JPN" xlink:title="AP030" d="M14010.6171,-3654.1904L14010.5087,-3655.6915L14010.5755,-3656.25"/>
<path content="AP030,1,28,1,0,14,1,8,JPN" xlink:title="AP030" d="M14021.1304,-3654.0466L14021.3593,-3654.1199L14021.6797,-3654.2465L14021.9696,-3654.3732L14022.0596,-3654.4399L14022.1497,-3654.6398L14022.1802,-3654.7333L14022.2198,-3654.8199L14022.3099,-3654.8931L14022.5204,-3654.7665L14022.7203,-3654.7333L14023.0392,-3654.7134L14023.2193,-3654.7333L14023.3795,-3654.8401L14023.4894,-3655.0732L14023.5596,-3655.1666L14023.6496,-3655.2334L14023.97,-3655.3265L14024.0402,-3655.4001L14023.9899,-3655.5401L14023.9502,-3655.5931L14023.8602,-3655.6667L14023.8297,-3655.6866L14023.8297,-3655.7598L14023.9304,-3655.8998L14023.97,-3656.0135L14024.1501,-3656.1199L14024.3301,-3656.2065L14024.3776,-3656.25"/>
<path content="AP030,1,28,1,0,15,1,8,JPN" xlink:title="AP030" d="M14020.508,-3656.25L14020.2347,-3656.0448L14020.1935,-3655.508L14021.1304,-3654.0466"/>
<path content="AP030,1,28,1,0,14,1,8,JPN" xlink:title="AP030" d="M13997.3738,-3656.25L13997.3099,-3656.1333L13997.29,-3655.5931L13997.2,-3655.1266L13997.0795,-3654.9465L13996.9498,-3654.8199L13996.8597,-3654.7134L13996.8796,-3654.6066L13996.9299,-3654.4998L13996.6507,-3654.0798L13996.6507,-3654.0134L13996.6507,-3653.8864"/>
<path content="AP030,1,28,1,0,14,1,8,JPN" xlink:title="AP030" d="M13993.8095,-3654.5334L13994.0796,-3654.2999L13994.31,-3654.1931L13994.3802,-3654.1931L13994.8593,-3654.1534L13995.7901,-3654.1199L13996.1304,-3654.0798L13996.2204,-3654.0466L13996.5805,-3653.92L13996.6507,-3653.8864"/>
<path content="AP030,1,28,1,0,15,1,8,JPN" xlink:title="AP030" d="M14006.1264,-3654.5902L14006.9916,-3654.1157L14008.2642,-3653.3489L14009.0454,-3653.3066L14009.8862,-3653.5069L14010.6171,-3654.1904"/>
<path content="AP030,1,28,1,0,14,1,8,JPN" xlink:title="AP030" d="M14015.7898,-3654.9133L14015.7898,-3654.8199L14015.8295,-3654.6799L14015.86,-3654.6066L14015.8096,-3654.4266L14015.8997,-3654.2267L14015.9897,-3653.9734L14015.9897,-3653.8998L14015.86,-3653.6667L14015.7898,-3653.5267L14015.77,-3653.36L14015.6494,-3653.2532"/>
<path content="AP030,1,28,1,0,15,1,8,JPN" xlink:title="AP030" d="M14010.6171,-3654.1904L14011.9186,-3654.5898L14012.2208,-3654.4464L14013.8489,-3653.973L14015.6494,-3653.2532"/>
<path content="AP030,1,28,1,0,14,1,8,JPN" xlink:title="AP030" d="M14015.7898,-3654.9133L14015.9698,-3654.8401L14016.0599,-3654.7466L14016.0599,-3654.6799L14016.1102,-3654.6066L14016.0797,-3654.5132L14016.04,-3654.4598L14016.04,-3654.4399L14016.1102,-3654.3198L14016.3605,-3654.1534L14016.7007,-3654.0798L14017.0807,-3653.8666L14017.2699,-3653.6667L14017.5201,-3653.54L14017.54,-3653.4664L14017.54,-3653.4134L14017.54,-3653.36L14017.54,-3653.3264L14017.6102,-3653.3066L14017.6804,-3653.3066L14017.7399,-3653.3066L14017.8101,-3653.3066L14017.8299,-3653.3066L14018.0206,-3653.2532L14018.0603,-3653.2867L14018.1305,-3653.3798L14018.1793,-3653.4332L14018.2205,-3653.4332L14018.3105,-3653.4L14018.4006,-3653.3798L14018.4296,-3653.36"/>
<path content="AP030,1,28,1,0,14,1,8,JPN" xlink:title="AP030" d="M14018.4296,-3653.36L14018.7698,-3653.3066L14018.9697,-3653.2734L14019.1101,-3653.2532L14019.31,-3653.3798L14019.4504,-3653.4134L14019.5602,-3653.4134L14019.7205,-3653.4L14019.7403,-3653.3798"/>
<path content="AP030,1,28,1,0,15,1,8,JPN" xlink:title="AP030" d="M13998.6466,-3656.25L13998.497,-3655.3082L13998.8098,-3653.2333"/>
<path content="AP030,1,28,1,0,14,1,8,JPN" xlink:title="AP030" d="M14019.7403,-3653.3798L14020.0394,-3653.1998L14020.2393,-3653.22L14020.43,-3653.2532L14020.52,-3653.3264L14020.5597,-3653.3798L14020.61,-3653.4332L14020.6802,-3653.6331L14020.7001,-3653.7067L14021.1304,-3654.0466"/>
<path content="AP030,1,28,1,0,14,1,8,JPN" xlink:title="AP030" d="M13996.6507,-3653.8864L13996.7896,-3653.8132L13996.8307,-3653.7598L13997.1298,-3653.5065L13997.3801,-3653.2532L13997.4899,-3653.1799L13997.6807,-3653.1799L13997.9706,-3653.22L13998.1506,-3653.2532L13998.5397,-3653.3066L13998.7198,-3653.2734L13998.8098,-3653.2333"/>
<path content="AP030,1,28,1,0,14,1,8,JPN" xlink:title="AP030" d="M14015.6494,-3653.2532L14015.5396,-3653.1467L14015.4297,-3653.0399"/>
<path content="AP030,1,28,1,0,14,1,8,JPN" xlink:title="AP030" d="M14016.7371,-3652.8499L14017.0593,-3652.9266L14017.2394,-3652.9266"/>
<path content="AP030,1,28,1,0,14,1,8,JPN" xlink:title="AP030" d="M14015.4297,-3653.0399L14015.7898,-3652.9465L14015.9897,-3652.8732L14016.3803,-3652.8599L14016.6107,-3652.8198L14016.7371,-3652.8499"/>
<path content="AP030,1,28,1,0,14,1,8,JPN" xlink:title="AP030" d="M14017.2394,-3652.9266L14017.3096,-3652.9266L14017.4698,-3652.8934L14017.6804,-3652.7664L14017.7399,-3652.7664L14017.8604,-3652.8L14017.9733,-3652.8L14018.0206,-3652.8L14018.1305,-3652.7866L14018.2693,-3652.9999L14018.2907,-3653.0731L14018.3594,-3653.2333L14018.4296,-3653.36"/>
<path content="AP030,1,28,1,0,14,1,8,JPN" xlink:title="AP030" d="M13992.2394,-3652.3865L13992.8299,-3653.2532L13993.0801,-3653.6331L13993.5806,-3654.1931L13993.7698,-3654.48L13993.8095,-3654.5334"/>
<path content="AP030,1,28,1,0,15,1,8,JPN" xlink:title="AP030" d="M13992.1875,-3652.4642L13992.2394,-3652.3865"/>
<path content="AP030,1,28,1,0,15,1,8,JPN" xlink:title="AP030" d="M14003.7231,-3655.788L14003.0899,-3653.5507L14002.9907,-3652.2999"/>
<path content="AP030,1,28,1,0,15,1,8,JPN" xlink:title="AP030" d="M14017.2394,-3652.9266L14017.1646,-3652.7763L14016.9115,-3652.2688"/>
<path content="AP030,1,28,1,0,14,1,8,JPN" xlink:title="AP030" d="M14016.7371,-3652.8499L14016.9,-3652.288L14016.9115,-3652.2688"/>
<path content="AP030,1,28,1,0,14,1,8,JPN" xlink:title="AP030" d="M13998.8098,-3653.2333L13999.2905,-3653.0933L13999.6796,-3653.0933L13999.8093,-3653.0933L14000,-3653.0571L14000.0198,-3653.0533L14000.2701,-3652.9999L14000.5798,-3652.7664L14001.1505,-3652.3197L14001.4496,-3652.1732L14001.5793,-3652.1534L14001.7395,-3652.2266L14001.8097,-3652.2999L14002.0401,-3652.4265L14002.2202,-3652.4597L14002.2903,-3652.4399L14002.3804,-3652.4399L14002.4704,-3652.4597L14002.6306,-3652.4399L14002.9007,-3652.3335L14002.9907,-3652.2999"/>
<path content="AP030,1,28,1,0,15,1,8,JPN" xlink:title="AP030" d="M14019.7403,-3653.3798L14019.7403,-3652.0363"/>
<path content="AP030,1,28,1,0,14,1,8,JPN" xlink:title="AP030" d="M14016.9115,-3652.2688L14017.14,-3651.887L14017.57,-3651.717L14018.14,-3651.717L14018.97,-3651.839L14019.7403,-3652.0363"/>
<path content="AP030,1,28,1,0,15,1,8,JPN" xlink:title="AP030" d="M14006.1264,-3654.5902L14005.954,-3652.5822L14005.5603,-3651.3268"/>
<path content="AP030,1,28,1,0,14,1,8,JPN" xlink:title="AP030" d="M14002.9907,-3652.2999L14004.2694,-3651.6666L14004.3793,-3651.6533L14004.6799,-3651.6335L14004.7699,-3651.6335L14005.0598,-3651.58L14005.2399,-3651.5064L14005.5603,-3651.3268"/>
<path content="AP030,1,28,1,0,14,1,8,JPN" xlink:title="AP030" d="M13996.6507,-3653.8864L13996.6797,-3653.6533L13996.5607,-3653.1467L13996.5607,-3652.66L13996.6293,-3651.8333L13996.6995,-3651.2333L13996.6995,-3650.9666L13996.7407,-3650.8598"/>
<path content="AP030,1,28,1,0,14,1,8,JPN" xlink:title="AP030" d="M13992.2394,-3652.3865L13992.3798,-3652.2064L13993.0206,-3651.4332L13993.1793,-3651.2867L13993.5196,-3651.0735L13993.6996,-3651.0532L13993.8293,-3650.9998L13993.9896,-3650.8934L13994.1498,-3650.5867L13994.22,-3650.4799L13994.3604,-3650.4601L13994.4504,-3650.3334L13994.6106,-3650.2068"/>
<path content="AP030,1,28,1,0,14,1,8,JPN" xlink:title="AP030" d="M13992.2394,-3652.3865L13992.1875,-3652.3168"/>
<path content="AP030,1,28,1,0,15,1,8,JPN" xlink:title="AP030" d="M14019.7403,-3652.0363L14020.5673,-3651.9085L14022.0551,-3651.7849L14022.7188,-3651.5224L14023.8724,-3651.841L14024.707,-3650.9575L14025.0443,-3650.1598L14025.2701,-3649.6281L14025.6027,-3649.408"/>
<path content="AP030,1,28,1,0,14,1,8,JPN" xlink:title="AP030" d="M13996.7407,-3650.8598L13996.7697,-3650.7668L13996.8094,-3650.0801L13996.8796,-3649.4865L13997.02,-3649.2001"/>
<path content="AP030,1,28,1,0,15,1,8,JPN" xlink:title="AP030" d="M14027.3438,-3650.4022L14026.7929,-3649.95L14027.1652,-3649.1112"/>
<path content="AP030,1,28,1,0,15,1,8,JPN" xlink:title="AP030" d="M14027.1652,-3649.1112L14025.6027,-3649.408"/>
<path content="AP030,1,28,1,0,14,1,8,JPN" xlink:title="AP030" d="M14005.5603,-3651.3268L14005.7007,-3651.2531L14005.9296,-3651.2333L14006.0806,-3651.2733L14006.2393,-3651.3065L14006.6101,-3651.3466L14006.7398,-3651.3065L14006.7703,-3651.2867L14006.8604,-3651.2199L14007.0404,-3650.8732L14007.2205,-3650.2464L14007.2906,-3650.1934L14007.4005,-3650.1331L14007.5394,-3650.0801L14007.6492,-3650.0134L14007.8094,-3649.9001L14007.8796,-3649.8466L14008.2901,-3649.5266L14008.4702,-3649.4331L14008.8806,-3649.3999L14009.1095,-3649.4331L14009.1293,-3649.3999L14009.1995,-3649.2733L14009.2194,-3649.1665L14009.2407,-3649.0532L14009.4421,-3649.0448L14009.5596,-3649.0398L14010.0403,-3649.02"/>
<path content="AP030,1,28,1,0,14,1,8,JPN" xlink:title="AP030" d="M14010.0403,-3649.02L14010.1501,-3649.02L14010.2707,-3649.0932L14010.3806,-3649.2001L14010.4294,-3649.2867L14010.4507,-3649.3999L14010.4706,-3649.7066L14010.5194,-3649.8466L14010.6094,-3650.0999L14010.6995,-3650.2602L14010.8307,-3650.3864L14011.0397,-3650.5867L14011.29,-3650.7465L14011.5799,-3650.8598L14011.8607,-3650.9132L14012.0605,-3651.0201L14012.2406,-3651.0933L14012.4298,-3651.1997L14012.5198,-3651.2733L14012.7899,-3651.6533L14012.8799,-3651.7067L14012.9898,-3651.7597L14013.2004,-3651.8467L14013.4003,-3651.8997L14013.7405,-3651.8867L14013.8596,-3651.9199L14013.8794,-3651.9733L14013.9496,-3652.1332L14014.0594,-3652.2266L14014.1998,-3652.2999L14014.7003,-3652.5532L14014.83,-3652.5867L14014.9902,-3652.5665L14015.1794,-3652.5665L14015.2695,-3652.6199L14015.3107,-3652.8198L14015.3503,-3652.9568L14015.3595,-3652.9865L14015.4297,-3653.0399"/>
<path content="AP030,1,28,1,0,14,1,8,JPN" xlink:title="AP030" d="M14009.8999,-3648.8602L14009.9899,-3648.9468L14010.0403,-3649.02"/>
<path content="AP030,1,28,1,0,14,1,8,JPN" xlink:title="AP030" d="M13997.02,-3649.2001L13997.0398,-3649.1467L13997.1497,-3649.02L13997.5403,-3648.6801L13997.8806,-3648.3532"/>
<path content="AP030,1,28,1,0,15,1,8,JPN" xlink:title="AP030" d="M14027.1652,-3649.1112L14027.3438,-3649.0856"/>
<path content="AP030,1,28,1,0,15,1,8,JPN" xlink:title="AP030" d="M14002.9907,-3652.2999L14002.713,-3650.0538L14002.0081,-3648.7862L14002.2903,-3647.5933"/>
<path content="AP030,1,28,1,0,14,1,8,JPN" xlink:title="AP030" d="M13997.8806,-3648.3532L13998.2697,-3648.5535L13998.3994,-3648.5664L13999.1501,-3648.5332L13999.6796,-3648.5001L14000,-3648.4253L14000.0793,-3648.4066L14000.3799,-3648.2468L14000.4898,-3648.2468L14000.65,-3648.2067L14000.7202,-3648.1934L14000.7401,-3648.0999L14000.7706,-3647.9401L14000.8102,-3647.8664L14001.5396,-3647.76L14001.9699,-3647.6868L14002.1301,-3647.6665L14002.2903,-3647.5933"/>
<path content="AP030,1,28,1,0,15,1,8,JPN" xlink:title="AP030" d="M14005.5603,-3651.3268L14004.8462,-3649.3713L14004.1794,-3647.5067"/>
<path content="AP030,1,28,1,0,14,1,8,JPN" xlink:title="AP030" d="M14002.2903,-3647.5933L14002.4002,-3647.4865L14002.5192,-3647.4667L14002.8595,-3647.4865L14003.0197,-3647.4865L14003.2196,-3647.4667L14003.4698,-3647.5067L14004.1794,-3647.5067"/>
<path content="AP030,1,28,1,0,16,1,8,JPN" xlink:title="AP030" d="M13992.1875,-3648.1867L13992.72,-3647.865L13993.34,-3647.417L13993.6055,-3647.2124"/>
<path content="AP030,1,28,1,0,15,1,8,JPN" xlink:title="AP030" d="M13992.1875,-3647.6702L13992.6056,-3647.4232L13993.6055,-3647.2124"/>
<path content="AP030,1,28,1,0,14,1,8,JPN" xlink:title="AP030" d="M14009.8999,-3648.8602L14009.7702,-3648.7667L14009.7397,-3648.6401L14009.6802,-3648.32L14009.6497,-3648.1731L14009.6802,-3648.0465L14009.6497,-3647.6665L14009.7397,-3647.4667L14009.7397,-3647.3999L14009.7397,-3646.7335"/>
<path content="AP030,1,28,1,0,14,1,8,JPN" xlink:title="AP030" d="M13997.02,-3649.2001L13996.9498,-3648.8934L13996.9894,-3648.6401L13997.0398,-3648.28L13997.0596,-3648.0465L13996.9299,-3647.7734L13996.7697,-3647.2866L13996.6095,-3646.6934"/>
<path content="AP030,1,28,1,0,15,1,8,JPN" xlink:title="AP030" d="M13993.6055,-3647.2124L13994.426,-3647.0394L13996.6095,-3646.6934"/>
<path content="AP030,1,28,1,0,14,1,8,JPN" xlink:title="AP030" d="M14004.1794,-3647.5067L14004.3106,-3647.4533L14004.6997,-3647.3064L14004.95,-3647.2866L14005.7693,-3647.4335L14005.9906,-3647.3999L14006.2393,-3647.4667L14006.4301,-3647.5601L14006.5399,-3647.6131L14006.7703,-3647.5601L14007.0602,-3647.3999L14007.2906,-3647.2332L14007.5195,-3647.0402L14007.6096,-3646.9868L14007.9697,-3646.8201L14007.9697,-3646.7133L14007.93,-3646.64L14007.8598,-3646.4802L14007.8293,-3646.2467"/>
<path content="AP030,1,28,1,0,14,1,8,JPN" xlink:title="AP030" d="M14007.8293,-3646.2467L14007.9895,-3646.2467L14008.2397,-3646.2067L14008.4305,-3646.2067L14008.5205,-3646.3001L14008.6502,-3646.4401L14008.8303,-3646.7464L14008.9294,-3646.8399L14008.9706,-3646.8735L14009.0393,-3646.8735L14009.0973,-3646.8651L14009.1293,-3646.8601L14009.3994,-3646.8399L14009.7397,-3646.7335"/>
<path content="AP030,1,28,1,0,15,1,8,JPN" xlink:title="AP030" d="M14009.8999,-3648.8602L14010.9009,-3648.4638L14011.7538,-3647.6959L14013.118,-3646.719L14013.4598,-3646.3699L14014.0564,-3646.3699L14015.2496,-3646.3699L14015.8463,-3646.2303L14016.3589,-3646.2303L14016.6138,-3646.0209L14016.6138,-3645.7417"/>
<path content="AP030,1,28,1,0,15,1,8,JPN" xlink:title="AP030" d="M14024.8947,-3645.6196L14027.0187,-3646.0209L14027.3438,-3646.1618"/>
<path content="AP030,1,28,1,0,15,1,8,JPN" xlink:title="AP030" d="M14025.6027,-3649.408L14025.769,-3649.231L14025.7706,-3649.0089L14026.2756,-3648.0785L14026.6113,-3647.3698L14025.9048,-3646.5652L14024.8947,-3645.6196"/>
<path content="AP030,1,28,1,0,15,1,8,JPN" xlink:title="AP030" d="M14004.1794,-3647.5067L14003.8223,-3646.7888L14003.9307,-3645.6135"/>
<path content="AP030,1,28,1,0,14,1,8,JPN" xlink:title="AP030" d="M14003.9307,-3645.6135L14004.0405,-3645.6135L14004.1306,-3645.6135L14004.2694,-3645.6532L14004.3304,-3645.6867L14004.4495,-3645.7066L14004.8294,-3645.6665L14005.1498,-3645.6867L14005.2902,-3645.7066"/>
<path content="AP030,1,28,1,0,14,1,8,JPN" xlink:title="AP030" d="M14005.2902,-3645.7066L14005.4504,-3645.7733L14005.6305,-3645.76L14005.7907,-3645.7199L14006.2195,-3645.6532L14006.3797,-3645.6135L14006.72,-3645.6333L14006.7902,-3645.6665L14006.9305,-3645.76L14007.0801,-3645.8466L14007.2906,-3645.8668L14007.7393,-3645.9202L14007.8293,-3646.2467"/>
<path content="AP030,1,28,1,0,15,1,8,JPN" xlink:title="AP030" d="M14016.9115,-3652.2688L14016.2292,-3650.901L14016.6946,-3648.5046L14016.8701,-3647.5723L14018.2007,-3646.6484L14018.1488,-3645.3228"/>
<path content="AP030,1,28,1,0,15,1,8,JPN" xlink:title="AP030" d="M14016.6138,-3645.7417L14016.9556,-3645.7417L14017.5522,-3645.7417L14018.1488,-3645.3228"/>
<path content="AP030,1,28,1,0,14,1,8,JPN" xlink:title="AP030" d="M13996.6095,-3646.6934L13996.4493,-3646.0133L13996.3806,-3645.7733L13996.2906,-3645.38L13996.2861,-3645.1768"/>
<path content="AP030,1,28,1,0,16,1,8,JPN" xlink:title="AP030" d="M13993.6055,-3647.2124L13994.43,-3646.577L13995.74,-3645.57L13996.2861,-3645.1768"/>
<path content="AP030,1,28,1,0,14,1,8,JPN" xlink:title="AP030" d="M14003.9307,-3645.6135L14003.83,-3645.6135L14003.7399,-3645.6135L14003.5797,-3645.5067L14003.45,-3645.4132L14003.36,-3645.3602L14003.3096,-3645.3266L14003.27,-3645.2L14003.2364,-3645.1012L14003.2196,-3645.0535L14003.1494,-3644.8933"/>
<path content="AP030,1,28,1,0,15,1,8,JPN" xlink:title="AP030" d="M14002.2903,-3647.5933L14001.6769,-3644.9123L14001.6098,-3644.6201"/>
<path content="AP030,1,28,1,0,14,1,8,JPN" xlink:title="AP030" d="M14001.6098,-3644.6201L14002.0203,-3644.6068L14002.3102,-3644.64L14002.6993,-3644.6602L14002.7893,-3644.7132L14002.9495,-3644.8399L14003.1494,-3644.8933"/>
<path content="AP030,1,28,1,0,14,1,8,JPN" xlink:title="AP030" d="M14001.6098,-3644.6201L14001.5396,-3644.3867L14001.4893,-3644.1933L14001.4297,-3644.0468L14001.1093,-3644.08L14000.8301,-3644.1002L14000.8301,-3644.0266"/>
<path content="AP030,1,28,1,0,15,1,8,JPN" xlink:title="AP030" d="M13997.8806,-3648.3532L13999.173,-3646.3856L13999.501,-3645.5471L14000,-3644.9249L14000.3616,-3644.474L14000.473,-3644.368L14000.8301,-3644.0266"/>
<path content="AP030,1,28,1,0,14,1,8,JPN" xlink:title="AP030" d="M14002.0798,-3643.9533L14002.8793,-3644.5667L14003.0594,-3644.7132L14003.1097,-3644.8002L14003.1494,-3644.8933"/>
<path content="AP030,1,28,1,0,14,1,8,JPN" xlink:title="AP030" d="M14000.5798,-3643.4868L14000.7401,-3643.7401L14000.7706,-3643.7935L14000.8301,-3644.0266"/>
<path content="AP030,1,28,1,0,15,1,8,JPN" xlink:title="AP030" d="M14004.6524,-3643.2594L14005.1956,-3645.3438L14005.2902,-3645.7066"/>
<path content="AP030,1,28,1,0,15,1,8,JPN" xlink:title="AP030" d="M14002.0798,-3643.9533L14004.6524,-3643.2594"/>
<path content="AP030,1,28,1,0,15,1,8,JPN" xlink:title="AP030" d="M13997.2031,-3643.2435L13997.6151,-3643.3491L13999.1119,-3643.5787L14000,-3643.5658L14000.1556,-3643.5635L14000.5798,-3643.4868"/>
<path content="AP030,1,28,1,0,16,1,8,JPN" xlink:title="AP030" d="M13996.2861,-3645.1768L13996.89,-3644.742L13996.91,-3644.32L13996.96,-3643.921L13997.08,-3643.499L13997.2031,-3643.2435"/>
<path content="AP030,1,28,1,0,15,1,8,JPN" xlink:title="AP030" d="M14009.7397,-3646.7335L14008.7692,-3643.9964L14008.6182,-3643.0759"/>
<path content="AP030,1,28,1,0,15,1,8,JPN" xlink:title="AP030" d="M14004.6524,-3643.2594L14007.4738,-3643.0817L14008.6182,-3643.0759"/>
<path content="AP030,1,28,1,0,15,1,8,JPN" xlink:title="AP030" d="M13996.3303,-3643.0199L13997.2031,-3643.2435"/>
<path content="AP030,1,28,1,0,14,1,8,JPN" xlink:title="AP030" d="M13996.2861,-3645.1768L13996.2692,-3644.4065L13996.3104,-3643.7065L13996.3303,-3643.1465L13996.3303,-3643.0199"/>
<path content="AP030,1,28,1,0,15,1,8,JPN" xlink:title="AP030" d="M13992.1875,-3643.0763L13994.6213,-3643.1576L13996.0007,-3643.0046L13996.3303,-3643.0199"/>
<path content="AP030,1,28,1,0,14,1,8,JPN" xlink:title="AP030" d="M13999.7192,-3642.4999L13999.8093,-3642.6201L13999.8993,-3642.7666L14000,-3642.8429L14000.1099,-3642.9268L14000.3296,-3643.1065L14000.4303,-3643.1667L14000.47,-3643.2732L14000.4898,-3643.3468L14000.5798,-3643.4868"/>
<path content="AP030,1,28,1,0,14,1,8,JPN" xlink:title="AP030" d="M13999.7192,-3642.4999L13999.8306,-3642.4801L13999.9496,-3642.4999L14000,-3642.5167L14000.1099,-3642.5533L14000.3296,-3642.6399L14001.0803,-3643.1999L14001.4297,-3643.4532L14001.5793,-3643.5799L14002.0798,-3643.9533"/>
<path content="AP030,1,28,1,0,14,1,8,JPN" xlink:title="AP030" d="M13999.7192,-3642.4999L13999.6796,-3642.6067L13999.5743,-3642.664L13999.5193,-3642.6933L13999.2905,-3642.68L13999.1302,-3642.4599L13998.9899,-3642.2466L13998.7198,-3642.1333L13998.555,-3642.0042"/>
<path content="AP030,1,28,1,0,16,1,8,JPN" xlink:title="AP030" d="M13997.2031,-3643.2435L13997.29,-3643.063L13997.68,-3642.578L13998.11,-3642.192L13998.555,-3642.0042"/>
<path content="AP030,1,28,1,0,15,1,8,JPN" xlink:title="AP030" d="M14002.2675,-3640.4404L14004.0588,-3642.2325L14004.6524,-3643.2594"/>
<path content="AP030,1,28,1,0,15,1,8,JPN" xlink:title="AP030" d="M14024.8947,-3645.6196L14023.4955,-3645.306L14022.287,-3645.1649L14021.3638,-3643.9144L14021.2662,-3642.9031L14021.2296,-3642.5018L14021.1899,-3642.268L14021.2631,-3641.9231L14021.4859,-3641.6908L14021.8048,-3641.4478L14021.8063,-3641.2365L14021.7545,-3640.8688L14021.39,-3640.1345"/>
<path content="AP030,1,28,1,0,15,1,8,JPN" xlink:title="AP030" d="M14018.1488,-3645.3228L14019.0872,-3643.3685L14019.1727,-3642.9497L14019.3436,-3642.3912L14019.5145,-3641.7629L14019.7693,-3641.2045L14020.1965,-3641.0648L14020.4514,-3640.9252L14020.9641,-3640.3671L14021.39,-3640.1345"/>
<path content="AP030,1,28,1,0,15,1,8,JPN" xlink:title="AP030" d="M14001.063,-3639.8587L14002.2675,-3640.4404"/>
<path content="AP030,1,28,1,0,16,1,8,JPN" xlink:title="AP030" d="M13998.555,-3642.0042L13998.61,-3641.981L13999.29,-3641.825L13999.86,-3641.595L14000.33,-3641.179L14000.77,-3640.582L14001.04,-3639.91L14001.063,-3639.8587"/>
<path content="AP030,1,28,1,0,15,1,8,JPN" xlink:title="AP030" d="M14013.3469,-3639.7621L14014.09,-3640.131L14014.9704,-3640.1375L14015.6174,-3641.3418L14016.0934,-3643.0786L14017.0654,-3644.6854L14016.6138,-3645.7417"/>
<path content="AP030,1,28,1,0,15,1,8,JPN" xlink:title="AP030" d="M14008.6182,-3643.0759L14008.6288,-3643.0759L14010.0723,-3643.0721L14011.0138,-3642.7441L14011.8912,-3641.7591L14012.2589,-3641.0912L14013.3469,-3639.7621"/>
<path content="AP030,1,28,1,0,15,1,8,JPN" xlink:title="AP030" d="M14024.8947,-3645.6196L14024.3744,-3644.4153L14024.8016,-3643.578L14025.9949,-3642.7402L14026.2512,-3642.0422L14026.1658,-3641.2743L14025.9094,-3640.5766L14025.6546,-3640.0181L14025.8102,-3639.3467"/>
<path content="AP030,1,28,1,0,14,1,8,JPN" xlink:title="AP030" d="M14025.56,-3639.36L14025.8102,-3639.3467"/>
<path content="AP030,1,28,1,0,15,1,8,JPN" xlink:title="AP030" d="M14026.6998,-3639.2532L14027.3438,-3639.5431"/>
<path content="AP030,1,28,1,0,14,1,8,JPN" xlink:title="AP030" d="M14025.8102,-3639.3467L14026.1795,-3639.2864L14026.4694,-3639.2735L14026.5793,-3639.2532L14026.6998,-3639.2532"/>
<path content="AP030,1,28,1,0,14,1,8,JPN" xlink:title="AP030" d="M14023.6496,-3638.8401L14023.9304,-3638.9999L14023.9899,-3639.0533L14024.2004,-3639.1266L14024.8306,-3639.3799L14025.1297,-3639.4135L14025.3296,-3639.3799L14025.56,-3639.36"/>
<path content="AP030,1,28,1,0,15,1,8,JPN" xlink:title="AP030" d="M14021.39,-3640.1345L14021.4752,-3640.0879L14022.1573,-3639.5294L14022.4136,-3639.3898L14022.8394,-3639.3898L14023.2666,-3639.2502L14023.6496,-3638.8401"/>
<path content="AP030,1,28,1,0,15,1,8,JPN" xlink:title="AP030" d="M14002.2675,-3640.4404L14002.5589,-3639.1094L14002.4466,-3638.4238"/>
<path content="AP030,1,28,1,0,16,1,8,JPN" xlink:title="AP030" d="M14001.063,-3639.8587L14001.21,-3639.53L14001.55,-3639.082L14002.4466,-3638.4238"/>
<path content="AP030,1,28,1,0,14,1,8,JPN" xlink:title="AP030" d="M14025.56,-3639.36L14025.3296,-3638.9267L14025.1099,-3638.48L14025.3098,-3638.4602L14025.65,-3638.4266L14025.6104,-3638.2999L14025.6104,-3638.2599L14025.47,-3638.0798L14025.3998,-3637.8468L14025.3998,-3637.8132"/>
<path content="AP030,1,28,1,0,15,1,8,JPN" xlink:title="AP030" d="M13996.8597,-3637.5935L13997.226,-3637.6675L13999.1638,-3638.0589L14000,-3639.1121L14000.3006,-3639.4905L14001.063,-3639.8587"/>
<path content="AP030,1,28,1,0,14,1,8,JPN" xlink:title="AP030" d="M13998.555,-3642.0042L13998.3795,-3641.8667L13998.0194,-3641.3265L13997.9706,-3641.2533L13997.8302,-3640.9664L13997.7005,-3640.7131L13997.2198,-3639.74L13997.1497,-3639.4665L13997.11,-3639.1998L13997.0795,-3639.1266L13997.0596,-3638.5666L13997.0398,-3638.2065L13996.9696,-3637.9932L13996.8597,-3637.5935"/>
<path content="AP030,1,28,1,0,14,1,8,JPN" xlink:title="AP030" d="M14026.6998,-3639.2532L14027.3438,-3639.1842"/>
<path content="AP030,1,28,1,0,14,1,8,JPN" xlink:title="AP030" d="M13996.3303,-3643.0199L13996.5195,-3641.8999L13996.5393,-3641.7599L13996.7194,-3641.1465L13996.9696,-3640.44L13997.1298,-3639.9933L13997.0398,-3639.92L13996.4706,-3638.8599L13996.4005,-3638.0798L13996.4005,-3637.9398L13996.4005,-3637.6534L13996.4294,-3637.2334L13996.4294,-3637.1265L13996.4905,-3636.6932"/>
<path content="AP030,1,28,1,0,15,1,8,JPN" xlink:title="AP030" d="M14008.6182,-3643.0759L14008.5983,-3642.9497L14008.2565,-3642.461L14008.4274,-3641.5535L14008.4274,-3640.6464L14007.8308,-3640.2275L14007.7454,-3639.8087L14007.8308,-3638.7615L14008.1726,-3637.7846L14008.6838,-3637.4355L14009.024,-3637.0865L14009.6222,-3636.8073L14010.4706,-3636.5665"/>
<path content="AP030,1,28,1,0,15,1,8,JPN" xlink:title="AP030" d="M13992.1875,-3636.5285L13993.0023,-3636.5952L13994.5297,-3636.512L13996.4905,-3636.6932"/>
<path content="AP030,1,28,1,0,15,1,8,JPN" xlink:title="AP030" d="M14013.3469,-3639.7621L14013.6322,-3638.7447L14014.6973,-3636.6249L14015.0192,-3635.8131"/>
<path content="AP030,1,28,1,0,14,1,8,JPN" xlink:title="AP030" d="M14010.4706,-3636.5665L14010.6293,-3636.5868L14010.7697,-3636.5868L14011.0794,-3636.5131L14011.3297,-3636.4601L14012.0804,-3636.1198L14012.4298,-3636.0134L14012.6099,-3635.9531L14014.18,-3635.8467L14014.6301,-3635.8131L14015.0192,-3635.8131"/>
<path content="AP030,1,28,1,0,14,1,8,JPN" xlink:title="AP030" d="M14008.7553,-3635.7998L14008.8593,-3635.8467L14009.0607,-3635.9402L14009.1507,-3635.9932L14009.3994,-3636.1332L14009.5596,-3636.2064L14010.0403,-3636.4067L14010.4706,-3636.5665"/>
<path content="AP030,1,28,1,0,16,1,8,JPN" xlink:title="AP030" d="M14002.4466,-3638.4238L14002.49,-3638.392L14003.88,-3637.527L14004.85,-3637.017L14005.35,-3636.812L14006.48,-3636.477L14007.38,-3636.29L14008.155,-3636.1131L14008.57,-3635.931L14008.7553,-3635.7998"/>
<path content="AP030,1,28,1,0,14,1,8,JPN" xlink:title="AP030" d="M13996.8597,-3637.5935L13996.7697,-3637.2334L13996.7407,-3637.1067L13996.7407,-3636.9667L13996.8094,-3636.7867L13996.8796,-3636.66L13996.9299,-3636.5868L13996.9498,-3636.0802L13996.9299,-3635.9734L13996.8994,-3635.6865"/>
<path content="AP030,1,28,1,0,14,1,8,JPN" xlink:title="AP030" d="M13996.4905,-3636.6932L13996.5195,-3636.5532L13996.6095,-3636.1732L13996.7697,-3635.8665L13996.8994,-3635.6865"/>
<path content="AP030,1,28,1,0,14,1,8,JPN" xlink:title="AP030" d="M14015.0192,-3635.8131L14015.7394,-3635.7399L14015.86,-3635.7201L14016.7007,-3635.0933L14016.9296,-3634.9865L14017.1997,-3634.9865L14017.5598,-3635.1067L14018.2693,-3635.3268L14018.7897,-3635.4866L14018.9301,-3635.5267L14019.3802,-3635.8131L14019.6106,-3635.9402L14020.4498,-3636.4399L14020.52,-3636.5131L14020.9503,-3636.9667L14021.0205,-3637.0201L14021.2204,-3637.1265L14021.4493,-3637.2532L14022.29,-3637.7731L14022.4304,-3637.8666L14022.6105,-3638.0135L14022.9507,-3638.2599L14023.1094,-3638.3865L14023.6496,-3638.8401"/>
<path content="AP030,1,28,1,0,15,1,8,JPN" xlink:title="AP030" d="M14010.4706,-3636.5665L14010.5347,-3635.9211L14010.641,-3634.8536"/>
<path content="AP030,1,28,1,0,16,1,8,JPN" xlink:title="AP030" d="M14008.7553,-3635.7998L14009.32,-3635.4L14010.27,-3634.959L14010.641,-3634.8536"/>
<path content="AP030,1,28,1,0,16,1,8,JPN" xlink:title="AP030" d="M14010.641,-3634.8536L14010.9185,-3634.7747"/>
<path content="AP030,1,28,1,0,14,1,8,JPN" xlink:title="AP030" d="M14025.3998,-3637.8132L14025.3601,-3637.5065L14025.3601,-3637.3798L14025.3601,-3637.2734L14025.4501,-3637.1799L14025.5203,-3637.1067L14025.9003,-3636.8935L14026.2405,-3636.6402L14026.4297,-3636.5532L14026.8295,-3636.4067L14026.8997,-3636.3201L14027.2003,-3635.8467L14027.3438,-3635.7156"/>
<path content="AP030,1,28,1,0,15,1,8,JPN" xlink:title="AP030" d="M14022.368,-3634.101L14022.7722,-3634.6851L14024.0814,-3635.4031L14024.5697,-3635.7605L14025.0015,-3636.5612L14025.1755,-3637.1105L14025.3998,-3637.8132"/>
<path content="AP030,1,28,1,0,15,1,8,JPN" xlink:title="AP030" d="M14015.0192,-3635.8131L14014.8499,-3635.3706L14014.3951,-3634.185L14014.6594,-3633.9543"/>
<path content="AP030,1,28,1,0,16,1,8,JPN" xlink:title="AP030" d="M14014.6594,-3633.9543L14015.71,-3634.216L14016.18,-3634.185L14016.66,-3634.048L14017.59,-3633.927L14018.25,-3633.864L14019.2,-3633.92L14020.44,-3634.156L14021.05,-3634.188L14022.08,-3634.101L14022.368,-3634.101"/>
<path content="AP030,1,28,1,0,16,1,8,JPN" xlink:title="AP030" d="M14013.7316,-3633.8577L14014.55,-3633.927L14014.6594,-3633.9543"/>
<path content="AP030,1,28,1,0,16,1,4,JPN" xlink:title="AP030" d="M14010.9185,-3634.7747L14011.3,-3634.625L14012.37,-3634.124L14013.3599,-3633.8948L14013.7316,-3633.8577"/>
<path content="AP030,1,28,1,0,14,1,8,JPN" xlink:title="AP030" d="M14003.0396,-3633.72L14003.36,-3634.1534L14003.4897,-3634.2068L14003.9902,-3634.2464L14004.1107,-3634.3201L14004.3793,-3634.5135L14004.7699,-3634.66L14005.22,-3634.8732L14005.4703,-3634.9667L14005.7907,-3634.9998L14007.1503,-3635.1265L14007.4707,-3635.1799L14007.6294,-3635.2531L14008.0795,-3635.5064L14008.1802,-3635.54L14008.7553,-3635.7998"/>
<path content="AP030,1,28,1,0,15,1,8,JPN" xlink:title="AP030" d="M14002.4466,-3638.4238L14002.2018,-3636.9289L14002.211,-3636.129L14002.2141,-3635.9066L14002.2705,-3635.7738L14003.0396,-3633.72"/>
<path content="AP030,1,28,1,0,16,1,8,JPN" xlink:title="AP030" d="M14022.368,-3634.101L14022.7,-3634.101L14023.39,-3634.312L14024.02,-3634.399L14024.46,-3634.387L14024.95,-3634.325L14025.5,-3634.212L14026.13,-3633.976L14026.76,-3633.808L14027.3438,-3633.6774"/>
<path content="AP030,1,28,1,0,14,1,8,JPN" xlink:title="AP030" d="M13996.8994,-3635.6865L13996.8597,-3635.3802L13996.7407,-3634.6199L13996.7697,-3634.4265L13996.8307,-3634.1331L13997.0398,-3633.6533L13996.9498,-3632.9132L13996.8994,-3632.5535"/>
<path content="AP030,1,28,1,0,15,1,8,JPN" xlink:title="AP030" d="M13996.8994,-3635.6865L13997.0444,-3635.4717L13997.4731,-3634.8316L13997.5952,-3633.3221L13997.5403,-3632.4799"/>
<path content="AP030,1,28,1,0,14,1,8,JPN" xlink:title="AP030" d="M13996.8994,-3632.5535L13997.1024,-3632.5302L13997.5403,-3632.4799"/>
<path content="AP030,1,28,1,0,14,1,8,JPN" xlink:title="AP030" d="M13997.5403,-3632.4799L13998.1995,-3632.4265L13999.0799,-3632.3002L13999.5605,-3632.2067"/>
<path content="AP030,1,28,1,0,15,1,8,JPN" xlink:title="AP030" d="M14010.641,-3634.8536L14010.6583,-3634.6798L14010.6445,-3633.4568L14010.5591,-3632.1304"/>
<path content="AP030,1,28,1,0,15,1,8,JPN" xlink:title="AP030" d="M14003.0396,-3633.72L14003.6728,-3633.5186L14004.7348,-3633.1604L14004.8309,-3633.128L14005.1071,-3632.9971L14006.1432,-3633.5384L14007.6309,-3633.239L14007.8033,-3632.4848L14009.1202,-3632.6725L14010.5591,-3632.1304"/>
<path content="AP030,1,28,1,0,14,1,8,JPN" xlink:title="AP030" d="M13997.7203,-3631.0734L13998.0392,-3631.0932L13998.3093,-3631.0932L13999.4904,-3631.6132L13999.6796,-3631.6532L13999.8795,-3631.72L14000,-3631.7623L14000.1999,-3631.8333L14000.4898,-3631.9199L14000.5203,-3631.9401L14000.7706,-3632.0801L14000.8102,-3632.1201L14002.0798,-3633.02L14002.8305,-3633.54L14002.8793,-3633.5934L14003.0396,-3633.72"/>
<path content="AP030,1,28,1,0,15,1,8,JPN" xlink:title="AP030" d="M13997.5403,-3632.4799L13997.8012,-3631.5784L13997.7203,-3631.0734"/>
<path content="AP030,1,28,1,0,14,1,8,JPN" xlink:title="AP030" d="M13996.6507,-3630.9666L13996.8796,-3631.0001L13997.1741,-3631.0303L13997.3999,-3631.0532L13997.4304,-3631.0532L13997.7203,-3631.0734"/>
<path content="AP030,1,28,1,0,14,1,8,JPN" xlink:title="AP030" d="M13996.8994,-3632.5535L13996.8597,-3632.32L13996.7896,-3631.8134L13996.7194,-3631.4335L13996.7194,-3631.3599L13996.6507,-3631.0734L13996.6507,-3630.9666"/>
<path content="AP030,1,28,1,0,14,1,8,JPN" xlink:title="AP030" d="M14027.15,-3629.76L14027.3438,-3629.9842"/>
<path content="AP030,1,28,1,0,15,1,8,JPN" xlink:title="AP030" d="M14019.2627,-3629.7421L14020.1828,-3630.7236L14020.9946,-3631.7482L14021.4798,-3632.4608L14022.1252,-3633.7502L14022.368,-3634.101"/>
<path content="AP030,1,28,1,0,15,1,8,JPN" xlink:title="AP030" d="M14014.6594,-3633.9543L14014.949,-3633.7013L14016.7068,-3633.1375L14016.8839,-3631.942L14017.3813,-3631.5468L14017.9413,-3630.3539L14019.2627,-3629.7421"/>
<path content="AP030,1,28,1,0,15,1,8,JPN" xlink:title="AP030" d="M13997.7203,-3631.0734L13998.2819,-3630.4443L13999.0326,-3629.6047"/>
<path content="AP030,1,28,1,0,15,1,8,JPN" xlink:title="AP030" d="M14027.15,-3629.76L14027.3438,-3629.7597"/>
<path content="AP030,1,28,1,0,14,1,8,JPN" xlink:title="AP030" d="M13992.1875,-3629.2332L13992.3096,-3629.2332"/>
<path content="AP030,1,28,1,0,14,1,8,JPN" xlink:title="AP030" d="M13992.3096,-3629.2332L13992.4301,-3629.2332L13992.72,-3629.2866L13994.0598,-3629.4865L13994.3298,-3629.5265L13994.9707,-3629.6333L13995.0607,-3629.6867L13995.1096,-3629.7066L13995.4468,-3630.0797L13995.8099,-3630.4798L13995.9702,-3630.6801L13996.2006,-3630.8735L13996.3104,-3630.9265L13996.6507,-3630.9666"/>
<path content="AP030,1,28,1,0,14,1,8,JPN" xlink:title="AP030" d="M13992.1875,-3629.1517L13992.3096,-3629.2332"/>
<path content="AP030,1,28,1,0,14,1,8,JPN" xlink:title="AP030" d="M14027.15,-3629.76L14026.9699,-3629.4865L14026.9501,-3629.4666L14026.8997,-3629.4334L14027.15,-3629.1267L14027.3438,-3628.8222"/>
<path content="AP030,1,28,1,0,14,1,8,JPN" xlink:title="AP030" d="M13996.6507,-3630.9666L13996.6507,-3630.7133L13996.6507,-3630.5332L13996.7087,-3630.2475L13996.7941,-3629.8405L13996.8094,-3629.76L13996.9696,-3629.4334L13997.11,-3629.1801L13997.11,-3628.6064"/>
<path content="AP030,1,28,1,0,14,1,8,JPN" xlink:title="AP030" d="M13997.11,-3628.6064L13997.2397,-3628.3333L13997.3099,-3628.26L13997.3801,-3628.1933L13997.6303,-3627.9533"/>
<path content="AP030,1,28,1,0,15,1,8,JPN" xlink:title="AP030" d="M14021.3104,-3627.4952L14019.9814,-3629.0821L14019.2627,-3629.7421"/>
<path content="AP030,1,28,1,0,15,1,8,JPN" xlink:title="AP030" d="M13999.0326,-3629.6047L13999.7299,-3629.9667L14000,-3629.9667L14000.2411,-3629.9667L14001.265,-3629.2686L14002.5436,-3629.129L14003.0548,-3628.9894L14003.4821,-3628.4313L14004.1641,-3627.9427L14004.8462,-3627.6634L14005.3574,-3627.8728L14006.0394,-3627.9427L14006.5521,-3627.7332L14007.489,-3627.454"/>
<path content="AP030,1,28,1,0,15,1,8,JPN" xlink:title="AP030" d="M14010.5591,-3632.1304L14010.9863,-3631.5025L14011.4975,-3630.3158L14011.412,-3628.92L14009.877,-3627.1049"/>
<path content="AP030,1,28,1,0,15,1,8,JPN" xlink:title="AP030" d="M14007.489,-3627.454L14008.1726,-3627.5936L14008.9401,-3627.803L14009.877,-3627.1049"/>
<path content="AP030,1,28,1,0,14,1,8,JPN" xlink:title="AP030" d="M14027.3438,-3627.7578L14027.2705,-3627.6134L14026.8997,-3627.0199L14026.8799,-3626.9867L14026.7899,-3626.82L14026.7899,-3626.7666L14026.86,-3626.7334L14026.9699,-3626.6399L14027.1103,-3626.4065L14027.3438,-3626.2304"/>
<path content="AP030,1,28,1,0,15,1,8,JPN" xlink:title="AP030" d="M14021.3104,-3627.4952L14022.522,-3626.8383L14022.9141,-3625.9102L14024.614,-3625.5665L14025.4303,-3626.1032L14026.9714,-3625.0935L14027.3438,-3624.9943"/>
<path content="AP030,1,28,1,0,15,1,8,JPN" xlink:title="AP030" d="M13992.1875,-3625.4954L13993.2053,-3626.6769L13994.9371,-3627.6772L13995.8496,-3628.1754L13996.1594,-3628.344L13997.11,-3628.6064"/>
<path content="AP030,1,28,1,0,14,1,8,JPN" xlink:title="AP030" d="M13997.6303,-3627.9533L13997.7905,-3627.7199L13997.9904,-3627.2533L13998.3994,-3626.2798L13998.4299,-3626.2264L13998.2697,-3626.0132L13998.2407,-3625.8667L13998.3093,-3624.8932L13998.3154,-3624.8306"/>
<path content="AP030,1,28,1,0,15,1,8,JPN" xlink:title="AP030" d="M14019.2627,-3629.7421L14018.9453,-3628.632L14018.3029,-3627.298L14017.0074,-3625.4719L14016.4444,-3624.8016"/>
<path content="AP030,1,28,1,0,15,1,8,JPN" xlink:title="AP030" d="M13997.7875,-3624.7597L13998.3154,-3624.8306"/>
<path content="AP030,1,28,1,0,15,1,8,JPN" xlink:title="AP030" d="M13997.6303,-3627.9533L13997.3801,-3626.8436L13997.5845,-3626.0101L13997.7875,-3624.7597"/>
<path content="AP030,1,28,1,0,15,1,8,JPN" xlink:title="AP030" d="M14003.4927,-3624.7513L14005.1407,-3625.6641L14007.489,-3627.454"/>
<path content="AP030,1,28,1,0,15,1,8,JPN" xlink:title="AP030" d="M13999.0326,-3629.6047L14000,-3628.5122L14002.5436,-3625.6393L14003.4927,-3624.7513"/>
<path content="AP030,1,28,1,0,15,1,8,JPN" xlink:title="AP030" d="M13998.3154,-3624.8306L13999.5514,-3624.9966L14000,-3625.0004L14000.3204,-3625.0031L14001.5289,-3624.8352L14003.4927,-3624.7513"/>
<path content="AP030,1,28,1,0,15,1,8,JPN" xlink:title="AP030" d="M14009.877,-3627.1049L14011.0718,-3626.5465L14011.7538,-3626.3371L14012.3505,-3625.8488L14013.2034,-3624.8714L14013.8,-3624.7318L14014.3967,-3624.8714L14014.653,-3625.2205L14015.506,-3625.2205L14016.188,-3625.1507L14016.4444,-3624.8016"/>
<path content="AP030,1,28,1,0,15,1,8,JPN" xlink:title="AP030" d="M13992.1875,-3624.7968L13993.6325,-3624.5453L13996.431,-3624.4808L13997.5174,-3624.7044L13997.7875,-3624.7597"/>
<path content="AP030,1,28,1,0,15,1,8,JPN" xlink:title="AP030" d="M14016.4444,-3624.8016L14016.6138,-3624.4526"/>
<path content="AP030,1,28,1,0,15,1,8,JPN" xlink:title="AP030" d="M14019.6869,-3624.395L14020.8359,-3625.7637L14021.3104,-3627.4952"/>
<path content="AP030,1,28,1,0,15,1,8,JPN" xlink:title="AP030" d="M14016.4444,-3624.8016L14017.1265,-3624.3828"/>
<path content="AP030,1,28,1,0,15,1,8,JPN" xlink:title="AP030" d="M14016.6138,-3624.4526L14017.1265,-3624.3828"/>
<path content="AP030,1,28,1,0,15,1,8,JPN" xlink:title="AP030" d="M14003.1006,-3624.0261L14003.4927,-3624.7513"/>
<path content="AP030,1,28,1,0,15,1,8,JPN" xlink:title="AP030" d="M14019.0109,-3623.5889L14019.6869,-3624.395"/>
<path content="AP030,1,28,1,0,15,1,8,JPN" xlink:title="AP030" d="M14017.1265,-3624.3828L14017.4667,-3624.2432L14017.894,-3624.2432L14019.0109,-3623.5889"/>
<path content="AP030,1,28,1,0,15,1,8,JPN" xlink:title="AP030" d="M14019.6869,-3624.395L14020.6375,-3623.1026"/>
<path content="AP030,1,28,1,0,15,1,8,JPN" xlink:title="AP030" d="M14019.0109,-3623.5889L14020.6375,-3623.1026"/>
<path content="AP030,1,28,1,0,15,1,8,JPN" xlink:title="AP030" d="M14003.4927,-3624.7513L14005.5283,-3622.8474L14006.2103,-3622.4178"/>
<path content="AP030,1,28,1,0,15,1,8,JPN" xlink:title="AP030" d="M14016.4948,-3622.1882L14017.9138,-3622.5525L14019.0109,-3623.5889"/>
<path content="AP030,1,28,1,0,15,1,8,JPN" xlink:title="AP030" d="M14016.6138,-3624.4526L14016.3177,-3623.428L14016.4948,-3622.1882"/>
<path content="AP030,1,28,1,0,15,1,8,JPN" xlink:title="AP030" d="M14006.6376,-3622.1493L14007.0633,-3623.4753L14007.9163,-3624.8016L14008.7692,-3625.9186L14009.877,-3627.1049"/>
<path content="AP030,1,28,1,0,15,1,8,JPN" xlink:title="AP030" d="M14006.2103,-3622.4178L14006.6376,-3622.1493"/>
<path content="AP030,1,28,1,0,15,1,8,JPN" xlink:title="AP030" d="M14004.8889,-3621.9585L14006.2103,-3622.4178"/>
<path content="AP030,1,28,1,0,15,1,8,JPN" xlink:title="AP030" d="M14003.1006,-3624.0261L14003.7781,-3623.2735L14004.8889,-3621.9585"/>
<path content="AP030,1,28,1,0,15,1,8,JPN" xlink:title="AP030" d="M14002.9449,-3621.8819L14003.6423,-3622.0097L14004.8889,-3621.9585"/>
<path content="AP030,1,28,1,0,14,1,8,JPN" xlink:title="AP030" d="M14027.3438,-3624.095L14027.15,-3623.621L14026.84,-3622.992L14026.5594,-3622.6067L14026.5198,-3622.4068L14026.4297,-3622.0798L14026.3596,-3621.8468"/>
<path content="AP030,1,28,1,0,15,1,8,JPN" xlink:title="AP030" d="M14001.3809,-3621.6393L14002.3621,-3621.7239L14002.9449,-3621.8819"/>
<path content="AP030,1,28,1,0,15,1,8,JPN" xlink:title="AP030" d="M14001.3809,-3621.6393L14003.1006,-3624.0261"/>
<path content="AP030,1,28,1,0,16,1,8,JPN" xlink:title="AP030" d="M14011.9293,-3621.6866L14012.0193,-3621.6534L14012.0804,-3621.6667L14012.1506,-3621.7068L14012.1796,-3621.74L14012.1796,-3621.8468L14012.1994,-3621.8864L14012.2406,-3621.9002L14012.3093,-3621.8468L14012.3093,-3621.7068L14012.2849,-3621.5919"/>
<path content="AP030,1,28,1,0,15,1,8,JPN" xlink:title="AP030" d="M14012.4435,-3621.5282L14013.3301,-3621.5897L14014.9643,-3622.1775L14016.4948,-3622.1882"/>
<path content="AP030,1,28,1,0,16,1,8,JPN" xlink:title="AP030" d="M14012.2849,-3621.5919L14012.4298,-3621.5801L14012.4435,-3621.5282"/>
<path content="AP030,1,28,1,0,15,1,8,JPN" xlink:title="AP030" d="M14012.262,-3621.5157L14012.4435,-3621.5282"/>
<path content="AP030,1,28,1,0,16,1,8,JPN" xlink:title="AP030" d="M14012.262,-3621.5157L14012.2696,-3621.5267L14012.2849,-3621.5919"/>
<path content="AP030,1,28,1,0,15,1,8,JPN" xlink:title="AP030" d="M14012.1307,-3621.5065L14012.262,-3621.5157"/>
<path content="AP030,1,28,1,0,16,1,8,JPN" xlink:title="AP030" d="M14012.2849,-3621.5919L14012.2696,-3621.5935L14012.1796,-3621.5801L14012.1307,-3621.5267L14012.1307,-3621.5065"/>
<path content="AP030,1,28,1,0,16,1,8,JPN" xlink:title="AP030" d="M14012.1307,-3621.5065L14012.1994,-3621.4867L14012.2406,-3621.4867L14012.262,-3621.5157"/>
<path content="AP030,1,28,1,0,15,1,8,JPN" xlink:title="AP030" d="M14026.3596,-3621.8468L14027.3438,-3621.5679"/>
<path content="AP030,1,28,1,0,14,1,8,JPN" xlink:title="AP030" d="M14026.3596,-3621.8468L14026.3107,-3621.6331L14026.1795,-3621.2734L14026.1484,-3621.0938"/>
<path content="AP030,1,28,1,0,15,1,8,JPN" xlink:title="AP030" d="M14020.6375,-3623.1026L14021.4539,-3622.5685L14022.5952,-3622.6353L14023.2468,-3622.3682L14024.3073,-3621.3005L14024.5596,-3621.0938"/>
<path content="AP030,1,28,1,0,15,1,8,JPN" xlink:title="AP030" d="M14010.5498,-3621.0938L14010.9863,-3621.4512L14011.3266,-3621.87L14011.9293,-3621.6866"/>
<path content="AP030,1,28,1,0,15,1,8,JPN" xlink:title="AP030" d="M14006.6376,-3622.1493L14006.9952,-3621.0938"/>
<path content="AP030,1,28,1,0,15,1,8,JPN" xlink:title="AP030" d="M14000.7882,-3621.0938L14001.0422,-3621.2299L14001.3809,-3621.6393"/>
<path content="AP030,1,28,1,0,14,1,8,JPN" xlink:title="AP030" d="M13998.3154,-3624.8306L13998.5596,-3621.92L13998.5596,-3621.8132L13998.5794,-3621.3467L13998.5467,-3621.0938"/>
<path content="AP030,1,28,1,0,15,1,8,JPN" xlink:title="AP030" d="M13997.7875,-3624.7597L13997.9919,-3622.2595L13997.9919,-3621.0938"/>
<path content="AP030,1,28,1,0,15,1,8,JPN" xlink:title="AP030" d="M14002.9449,-3621.8819L14002.499,-3621.0938"/>
<path content="AP030,1,28,1,0,15,1,8,JPN" xlink:title="AP030" d="M14020.6375,-3623.1026L14020.8176,-3622.1733L14020.3842,-3621.7716L14020.1816,-3621.0938"/>
<path content="AP030,1,28,1,0,15,1,8,JPN" xlink:title="AP030" d="M14004.8889,-3621.9585L14005.12,-3621.0938"/>
<path content="AP030,1,28,1,0,15,1,8,JPN" xlink:title="AP030" d="M13992.1875,-3623.9826L13992.6178,-3623.2384L13993.3517,-3622.6128L13993.6264,-3621.487L13993.7596,-3621.0938"/>
<path content="AP030,1,28,1,0,15,1,8,JPN" xlink:title="AP030" d="M14016.4948,-3622.1882L14017.705,-3621.0938"/>
<path content="AP030,1,28,1,0,16,1,8,JPN" xlink:title="AP030" d="M14012.4435,-3621.5282L14012.4496,-3621.5065L14012.3306,-3621.3799L14012.2406,-3621.2734L14012.207,-3621.0938"/>
<path content="AP030,1,28,1,0,15,1,8,JPN" xlink:title="AP030" d="M13994.6106,-3650.2068L13994.1454,-3650.0303L13993.2617,-3650.0093L13992.1875,-3650.1084"/>
<path content="AP030,1,28,1,0,14,1,8,JPN" xlink:title="AP030" d="M13994.6106,-3650.2068L13994.9005,-3650.3864L13995.9,-3650.6798L13996.7407,-3650.8598"/>
</g>
</svg>
