<?xml version="1.0" encoding="UTF-8"?>
<svg  xmlns="http://www.w3.org/2000/svg" xmlns:xlink="http://www.w3.org/1999/xlink" xmlns:go="http://purl.org/svgmap/profile" property="f_code,acc,exs,rst,med,rtt,RSU,loc,soc" viewBox="13570.3125 -3515.625 35.15625 35.15625" go:dataArea="13570.3125 -3515.625 35.15625 35.15625" >
<metadata>
 <rdf:RDF xmlns:rdf="http://www.w3.org/1999/02/22-rdf-syntax-ns#" xmlns:crs="http://opengis.org/xmldtds/transformations.dtd" xmlns:svg="http://www.w3.org/svg" >
  <rdf:Description>
   <crs:CoordinateReferenceSystem rdf:resource="http://purl.org/crs/84" svg:transform="matrix(100.0,0.0,0.0,-100.0,0.0,0.0)" />
  </rdf:Description>
 </rdf:RDF>
</metadata>
<globalCoordinateSystem srsName="http://purl.org/crs/84" transform="matrix(100.0,0.0,0.0,-100.0,0.0,0.0)" />
<defs>
 <g id="p0" >
  <circle cx="0.0" cy="0.0" r="3" stroke="green" stroke-width="2.0" vector-effect="non-scaling-stroke" />
 </g>
</defs>
<g fill="none" fill-rule="evenodd" stroke="#00ff00" stroke-width="2" opacity="0.5" vector-effect="non-scaling-stroke" stroke-linejoin="bevel" >
<path content="AP030,1,28,1,0,14,1,8,JPN" xlink:title="AP030" d="M13583.9706,-3514.373L13584.1293,-3514.5L13584.3796,-3514.7133L13584.5398,-3514.9864L13584.6802,-3515.2332L13584.8099,-3515.3999L13584.9503,-3515.5598L13585.0119,-3515.625"/>
<path content="AP030,1,28,1,0,14,1,8,JPN" xlink:title="AP030" d="M13578.8042,-3515.625L13578.7903,-3515.5266L13578.7201,-3515.4331L13578.6102,-3515.3797L13578.5797,-3515.3465L13578.5797,-3515.3065L13578.6301,-3515.2866L13578.6102,-3515.1798L13578.4302,-3514.8731L13578.5797,-3514.9666L13578.6804,-3515.0398L13578.9307,-3515.2733L13578.9703,-3515.2866L13579.0405,-3515.2866L13579.0604,-3515.2199L13579.0802,-3515.1665L13579.1794,-3515.1665L13579.2694,-3515.2L13579.3594,-3515.3599L13579.4006,-3515.3999L13579.4693,-3515.3999L13579.5395,-3515.3797L13579.5593,-3515.3465L13579.5807,-3515.2866L13579.6799,-3515.2866L13579.7699,-3515.3065L13579.9301,-3515.4667L13580.0328,-3515.625M13580.5647,-3515.625L13580.5603,-3515.6132L13580.5801,-3515.58L13580.6793,-3515.5067L13580.8105,-3515.4331L13580.8304,-3515.3797L13580.8105,-3515.3065L13580.7907,-3515.2733L13580.8594,-3515.2531L13580.9692,-3515.2866L13581.0806,-3515.3999L13581.1493,-3515.4331L13581.2393,-3515.4331L13581.4697,-3515.3465L13581.6101,-3515.2L13581.7703,-3515.0932L13581.9305,-3515.0532L13582.2006,-3515.073L13582.3593,-3515.1264L13582.4493,-3515.1665L13582.6096,-3515.1066L13582.7194,-3515.0932L13582.93,-3515.0932L13583.11,-3515.1665L13583.5205,-3515.1798L13583.6807,-3515.2L13583.8806,-3515.1264L13583.9706,-3514.9998L13583.9905,-3514.8197L13583.9706,-3514.373"/>
<path content="AP030,1,28,1,0,16,1,8,JPN" xlink:title="AP030" d="M13590.2296,-3515.625L13590.2405,-3515.4865L13590.2893,-3514.9132L13590.2893,-3513.9931L13590.2893,-3513.5799L13590.2893,-3513.4533"/>
<path content="AP030,1,28,1,0,14,1,8,JPN" xlink:title="AP030" d="M13587.634,-3515.625L13587.6495,-3515.6132L13587.6801,-3515.5399L13587.6999,-3515.4331L13587.6297,-3515.2332L13587.6297,-3515.1665L13587.6999,-3515.073L13587.9303,-3514.7133L13588.1104,-3514.2467L13588.1805,-3513.9931L13588.2706,-3513.8332L13588.4003,-3513.6532L13588.5406,-3513.5399L13589.1296,-3513.3801L13589.36,-3513.3465L13589.3997,-3513.3465L13589.4501,-3513.3465L13589.9902,-3513.3598L13590.2893,-3513.4533"/>
<path content="AP030,1,28,1,0,15,1,8,JPN" xlink:title="AP030" d="M13603.4698,-3512.553L13604.7073,-3513.089L13605.4688,-3513.4004"/>
<path content="AP030,1,28,1,0,14,1,8,JPN" xlink:title="AP030" d="M13592.4863,-3515.625L13592.4896,-3515.5933L13592.5201,-3514.9467L13592.5201,-3514.6797L13592.4698,-3514.5531L13592.4301,-3514.3867L13592.2897,-3513.8866L13592.2897,-3513.6532L13592.3996,-3513.3598L13592.5201,-3513.1664L13592.5201,-3513.1268L13592.45,-3513.0398L13592.1494,-3512.6064"/>
<path content="AP030,1,28,1,0,14,1,8,JPN" xlink:title="AP030" d="M13590.2893,-3513.4533L13590.7898,-3513.4533L13591.0202,-3513.2732L13591.2003,-3513.0199L13591.7892,-3512.7464L13591.9586,-3512.6812L13592.1494,-3512.6064"/>
<path content="AP030,1,28,1,0,14,1,8,JPN" xlink:title="AP030" d="M13592.1494,-3512.6064L13592.6102,-3512.4065"/>
<path content="AP030,1,28,1,0,14,1,8,JPN" xlink:title="AP030" d="M13583.9706,-3514.373L13583.9294,-3514.3333L13583.6304,-3514.0999L13583.7006,-3513.8332L13583.6807,-3513.5799L13583.49,-3513.2866L13583.4503,-3513.1798L13583.4305,-3513.0531L13583.4702,-3512.6198L13583.4702,-3512.3333L13583.4305,-3512.2799L13583.3099,-3512.2265L13583.1802,-3512.1731L13583.0795,-3512.0998L13583.0399,-3512.0667L13582.9697,-3511.9732L13582.93,-3511.7931"/>
<path content="AP030,1,28,1,0,16,1,8,JPN" xlink:title="AP030" d="M13592.6102,-3512.4065L13592.8604,-3512.3199L13594.1101,-3511.9732L13594.3604,-3511.8866L13594.4901,-3511.8134L13594.6106,-3511.7397"/>
<path content="AP030,1,28,1,0,14,1,8,JPN" xlink:title="AP030" d="M13600.5203,-3511.1065L13600.6805,-3511.0397L13600.6927,-3510.9962"/>
<path content="AP030,1,28,1,0,15,1,8,JPN" xlink:title="AP030" d="M13600.5203,-3511.1065L13600.6927,-3510.9962"/>
<path content="AP030,1,28,1,0,14,1,8,JPN" xlink:title="AP030" d="M13603.3096,-3513.0398L13603.1998,-3512.8399L13603.3096,-3512.6598L13603.4698,-3512.553"/>
<path content="AP030,1,28,1,0,14,1,8,JPN" xlink:title="AP030" d="M13600.9705,-3510.82L13601.1795,-3511.0531L13601.5793,-3511.8134L13601.6098,-3511.8668L13602.0203,-3512.553L13602.2202,-3512.7998L13602.33,-3512.8933L13602.6093,-3512.9997L13602.7405,-3513.0398L13602.8305,-3513.0398L13603.1494,-3513.0531L13603.3096,-3513.0398"/>
<path content="AP030,1,28,1,0,15,1,8,JPN" xlink:title="AP030" d="M13600.6927,-3510.9962L13600.9705,-3510.82"/>
<path content="AP030,1,28,1,0,14,1,8,JPN" xlink:title="AP030" d="M13600.7706,-3510.7468L13600.9705,-3510.82"/>
<path content="AP030,1,28,1,0,14,1,8,JPN" xlink:title="AP030" d="M13600.6927,-3510.9962L13600.7706,-3510.7468"/>
<path content="AP030,1,28,1,0,16,1,8,JPN" xlink:title="AP030" d="M13590.2893,-3513.4533L13590.2893,-3513.253L13590.1093,-3512.8399L13589.9506,-3512.4268L13589.8804,-3512.1933L13589.8605,-3512.0667L13589.8605,-3511.7931L13589.6103,-3511.1267L13589.5401,-3510.8932L13589.4699,-3510.64"/>
<path content="AP030,1,28,1,0,15,1,8,JPN" xlink:title="AP030" d="M13588.1302,-3510.7132L13589.4699,-3510.64"/>
<path content="AP030,1,28,1,0,15,1,8,JPN" xlink:title="AP030" d="M13576.5274,-3509.523L13577.6016,-3510.5373L13578.5446,-3511.161L13579.4174,-3511.1538L13580.5542,-3511.2923L13581.9412,-3511.3743L13582.93,-3511.7931"/>
<path content="AP030,1,28,1,0,15,1,8,JPN" xlink:title="AP030" d="M13578.0644,-3515.625L13577.9312,-3515.0135L13577.536,-3514.0442L13577.4048,-3512.9131L13577.2064,-3511.4052L13576.8112,-3510.2203L13576.5274,-3509.523"/>
<path content="AP030,1,28,1,0,14,1,8,JPN" xlink:title="AP030" d="M13600.5203,-3511.1065L13599.6796,-3511.5398L13599.5804,-3511.7199L13599.4904,-3511.8866L13599.3607,-3511.8465L13599.2905,-3511.8332L13599.2004,-3511.7199L13598.7,-3511.4532L13598.2895,-3511.2331L13598.2407,-3511.1797L13598.2697,-3511.1668L13598.3795,-3511.0931L13598.3795,-3510.9131L13598.3597,-3510.68L13598.2193,-3510.4267L13598.0606,-3510.2264L13597.9507,-3510.12L13597.7402,-3509.8866L13597.6501,-3509.7599L13597.4701,-3509.3468L13597.2397,-3509.0199"/>
<path content="AP030,1,28,1,0,14,1,8,JPN" xlink:title="AP030" d="M13594.6106,-3511.7397L13594.6304,-3511.7199L13594.7693,-3511.5932L13595.3293,-3511.0733L13595.4498,-3510.7998L13595.5597,-3510.5534L13595.6299,-3510.3531L13595.6802,-3510.26L13595.7703,-3510.08L13595.9305,-3509.9197L13596.2402,-3509.6333L13596.3806,-3509.4868L13596.5805,-3509.3597L13596.6293,-3509.3266L13597.2397,-3509.0199"/>
<path content="AP030,1,28,1,0,15,1,8,JPN" xlink:title="AP030" d="M13605.4688,-3510.5851L13605.2185,-3510.2341L13604.7073,-3509.3288L13603.9429,-3508.7021"/>
<path content="AP030,1,28,1,0,15,1,8,JPN" xlink:title="AP030" d="M13600.9705,-3510.82L13601.9196,-3510.6873L13601.9653,-3509.93L13603.9429,-3508.7021"/>
<path content="AP030,1,28,1,0,15,1,8,JPN" xlink:title="AP030" d="M13603.9429,-3508.7021L13604.6982,-3508.4873L13605.2811,-3508.3218L13605.4688,-3508.2682"/>
<path content="AP030,1,28,1,0,15,1,8,JPN" xlink:title="AP030" d="M13597.2397,-3509.0199L13596.4951,-3507.9933"/>
<path content="AP030,1,28,1,0,15,1,8,JPN" xlink:title="AP030" d="M13576.5274,-3509.523L13576.4832,-3509.4124L13576.4832,-3509.1705L13576.4832,-3508.1196L13576.4801,-3508.0833L13576.4542,-3507.6946"/>
<path content="AP030,1,28,1,0,15,1,8,JPN" xlink:title="AP030" d="M13597.2397,-3509.0199L13598.497,-3507.9365L13599.263,-3506.8222"/>
<path content="AP030,1,28,1,0,15,1,8,JPN" xlink:title="AP030" d="M13596.4951,-3507.9933L13599.263,-3506.8222"/>
<path content="AP030,1,28,1,0,15,1,8,JPN" xlink:title="AP030" d="M13603.9429,-3508.7021L13602.7878,-3507.2018L13602.4963,-3506.8222"/>
<path content="AP030,1,28,1,0,15,1,8,JPN" xlink:title="AP030" d="M13600.7706,-3510.7468L13601.0666,-3509.5303L13601.442,-3507.9945L13602.3956,-3506.9332L13602.4963,-3506.8222"/>
<path content="AP030,1,28,1,0,15,1,8,JPN" xlink:title="AP030" d="M13575.0397,-3506.6822L13575.7294,-3507.407L13576.4542,-3507.6946"/>
<path content="AP030,1,28,1,0,15,1,8,JPN" xlink:title="AP030" d="M13572.109,-3515.625L13572.0032,-3515.2714L13572.0245,-3514.51L13572.345,-3513.784L13572.1909,-3513.2168L13571.6675,-3512.4317L13571.4645,-3511.7725L13572.0062,-3511.4151L13572.5784,-3511.0142L13572.9172,-3510.8273L13573.8052,-3511.0229L13574.0738,-3510.6758L13574.0509,-3510.1814L13574.321,-3509.7897L13574.1348,-3509.2884L13574.2584,-3508.6437L13574.1211,-3508.234L13574.3134,-3507.7942L13574.4812,-3507.3082L13575.0397,-3506.6822"/>
<path content="AP030,1,28,1,0,16,1,8,JPN" xlink:title="AP030" d="M13588.1302,-3510.7132L13588.06,-3510.7998L13587.8998,-3510.82L13587.5198,-3510.7998L13587.1307,-3510.7468L13586.9705,-3510.6934L13586.8805,-3510.6197L13586.8301,-3510.4065L13586.7905,-3510.3733L13586.6806,-3510.3531L13586.5799,-3510.3733L13586.5402,-3510.3531L13586.5402,-3510.3001L13586.5601,-3510.2066L13586.4899,-3510.1933L13586.4304,-3510.2264L13586.38,-3510.26L13586.3098,-3510.26L13586.2198,-3510.2264L13586.1801,-3510.2264L13586.1298,-3510.26L13586.0397,-3510.4401L13585.9497,-3510.4797L13585.8795,-3510.5133L13585.7407,-3510.5331L13585.6094,-3510.5133L13585.4507,-3510.5L13585.2203,-3510.4267L13585.08,-3510.4065L13584.9701,-3510.4065L13584.8999,-3510.3333L13584.8801,-3510.2066L13584.9899,-3510.173L13585.1807,-3510.2264L13585.3104,-3510.2264L13585.4004,-3510.2467L13585.4507,-3510.2798L13585.4904,-3510.2798L13585.5606,-3510.2467L13585.6094,-3510.2264L13585.6293,-3510.173L13585.6094,-3510.0998L13585.3607,-3510.0266L13585.2402,-3510.0266L13585.1807,-3510.0132L13585.1303,-3509.9934L13585.0601,-3509.9934L13585.0204,-3509.9731L13584.8801,-3509.7733L13584.8297,-3509.7599L13584.7198,-3509.7599L13584.6802,-3509.7198L13584.61,-3509.6531L13584.5795,-3509.5066L13584.5398,-3509.4868L13584.4498,-3509.4666L13584.3796,-3509.4532L13584.3094,-3509.4131L13584.2697,-3509.3998L13584.1095,-3509.38L13584.0393,-3509.38L13583.9706,-3509.3468L13583.9294,-3509.2865L13583.9005,-3509.1801L13583.8104,-3509.1267L13583.8104,-3509.0733L13583.9294,-3508.8734L13583.9905,-3508.86L13584.0805,-3508.913L13584.1095,-3508.913L13584.1797,-3508.8734L13584.1995,-3508.7666L13584.1095,-3508.7132L13584.0805,-3508.6597L13584.0607,-3508.6399L13584.0607,-3508.5331L13584.0195,-3508.4599L13583.9493,-3508.3L13583.9005,-3508.1734L13583.9005,-3508.0467L13583.9493,-3507.9201L13583.9706,-3507.8465L13583.9493,-3507.8133L13583.8593,-3507.8133L13583.7692,-3507.8133L13583.7402,-3507.793L13583.7204,-3507.7599L13583.7204,-3507.6668L13583.6807,-3507.6668L13583.6502,-3507.653L13583.6105,-3507.6134L13583.5602,-3507.56L13583.49,-3507.56L13583.4305,-3507.5397L13583.3801,-3507.5066L13583.3801,-3507.4867L13583.3603,-3507.3799L13583.3099,-3507.3265L13583.3099,-3507.3067L13583.3099,-3507.2201L13583.3298,-3507.1266L13583.3801,-3507.0732L13583.5403,-3506.9466L13583.6105,-3506.9267L13583.6807,-3506.9466L13583.7906,-3507.0198L13583.8593,-3507.04L13583.9005,-3507.04L13583.9706,-3506.9668L13583.9905,-3506.8398L13584.1095,-3506.7467L13584.3094,-3506.5865"/>
<path content="AP030,1,28,1,0,16,1,8,JPN" xlink:title="AP030" d="M13583.1497,-3506.5132L13583.3603,-3506.4068L13583.5602,-3506.4068L13583.6105,-3506.3732L13583.6502,-3506.3732L13583.7204,-3506.4266L13583.8303,-3506.44L13583.9905,-3506.5132L13584.1095,-3506.5132L13584.1293,-3506.5132L13584.2407,-3506.5533L13584.3094,-3506.5865"/>
<path content="AP030,1,28,1,0,16,1,8,JPN" xlink:title="AP030" d="M13589.4699,-3510.64L13589.36,-3510.3333L13589.1296,-3509.94L13589.1098,-3509.8465L13588.9893,-3509.5398L13588.6093,-3508.9268L13588.2706,-3508.5133L13588.1104,-3508.2066L13587.9898,-3508.0265L13587.8799,-3507.8465L13587.6801,-3507.4333L13587.5198,-3506.9668L13587.3993,-3506.6799L13587.3596,-3506.5533L13587.3306,-3506.44L13587.2406,-3506.1199L13587.1307,-3505.7934L13587.1307,-3505.7598"/>
<path content="AP030,1,28,1,0,15,1,8,JPN" xlink:title="AP030" d="M13599.263,-3506.8222L13600.029,-3505.6385"/>
<path content="AP030,1,28,1,0,15,1,8,JPN" xlink:title="AP030" d="M13600.029,-3505.6385L13600.4517,-3505.6385L13601.5594,-3505.6385L13601.7578,-3505.7358L13601.9852,-3505.8472L13602.1103,-3506.0848L13602.4963,-3506.8222"/>
<path content="AP030,1,28,1,0,15,1,8,JPN" xlink:title="AP030" d="M13596.4951,-3507.9933L13596.2006,-3507.5882L13595.1797,-3506.1954L13594.5663,-3505.3165"/>
<path content="AP030,1,28,1,0,15,1,8,JPN" xlink:title="AP030" d="M13593.5928,-3505.7217L13594.5663,-3505.3165"/>
<path content="AP030,1,28,1,0,15,1,8,JPN" xlink:title="AP030" d="M13576.4542,-3507.6946L13576.4175,-3507.1503L13576.088,-3506.2885L13575.7584,-3505.7499L13575.7584,-3504.9957L13575.9293,-3504.3732"/>
<path content="AP030,1,28,1,0,14,1,8,JPN" xlink:title="AP030" d="M13575.9293,-3504.3732L13576.1795,-3504.3732L13576.3107,-3504.3732L13576.4893,-3504.3732L13576.77,-3504.3732L13577.0401,-3504.3732"/>
<path content="AP030,1,28,1,0,15,1,8,JPN" xlink:title="AP030" d="M13576.4542,-3507.6946L13576.7532,-3507.1602L13576.8616,-3506.7612L13576.6434,-3506.3259L13576.7075,-3505.7678L13576.9897,-3505.6007L13577.0569,-3504.9759L13577.1103,-3504.3732"/>
<path content="AP030,1,28,1,0,14,1,8,JPN" xlink:title="AP030" d="M13577.0401,-3504.3732L13577.1103,-3504.3732"/>
<path content="AP030,1,28,1,0,14,1,8,JPN" xlink:title="AP030" d="M13578.0197,-3504.2267L13578.2394,-3504.4598L13578.5202,-3504.6799L13578.5599,-3504.7333L13578.6102,-3504.7867L13578.9703,-3505.0198L13579.0207,-3505.0934L13579.1504,-3505.4665L13579.1794,-3505.5798L13579.2007,-3505.74L13579.1794,-3505.9532L13579.3793,-3506.0589L13579.5197,-3506.1333L13579.6494,-3506.2466L13579.6799,-3506.3732L13579.6799,-3506.3866L13579.7195,-3506.4266L13579.9896,-3506.44L13580.3101,-3506.4999L13580.4703,-3506.5666L13580.6793,-3506.6601L13580.7205,-3506.7131L13580.7693,-3506.8001L13580.8304,-3506.86L13580.9906,-3506.9267L13581.0196,-3506.9866L13580.9692,-3507.18L13580.9692,-3507.233L13581.0196,-3507.2865L13581.1096,-3507.3467L13581.2698,-3507.4665L13581.5201,-3507.6866L13581.6803,-3507.8667L13581.7001,-3508.0132L13581.72,-3508.2268L13581.72,-3508.2798L13581.8604,-3508.44L13581.9504,-3508.5865L13582.0801,-3508.6399L13582.2006,-3508.7334L13582.2906,-3508.8398L13582.3593,-3509.0401L13582.3303,-3509.1267L13582.2693,-3509.1999L13582.2205,-3509.2533L13582.2205,-3509.3266L13582.2006,-3509.4334L13582.1106,-3509.5798L13582.1106,-3509.613L13582.1793,-3509.7065L13582.3593,-3509.8465L13582.4295,-3509.9934L13582.4295,-3510.1532L13582.4707,-3510.2467L13582.5195,-3510.4599L13582.4707,-3510.6068L13582.4493,-3510.7132L13582.4707,-3510.8601L13582.5195,-3510.9467L13582.5806,-3511.0397L13582.6096,-3511.1465L13582.6492,-3511.2534L13582.6797,-3511.3266L13582.8094,-3511.5601L13582.93,-3511.7931"/>
<path content="AP030,1,28,1,0,14,1,8,JPN" xlink:title="AP030" d="M13577.1103,-3504.3732L13577.4506,-3504.4067L13577.6993,-3504.4067L13577.9007,-3504.2797L13578.0197,-3504.2267"/>
<path content="AP030,1,28,1,0,15,1,8,JPN" xlink:title="AP030" d="M13570.3125,-3509.447L13570.7977,-3509.0084L13571.2219,-3508.3542L13571.3333,-3507.4848L13571.8185,-3507.1472L13572.2641,-3506.5838L13572.9095,-3505.872L13573.2193,-3505.3028L13573.819,-3504.4544L13573.8297,-3504.1557"/>
<path content="AP030,1,28,1,0,15,1,8,JPN" xlink:title="AP030" d="M13575.1053,-3504.1286L13575.9293,-3504.3732"/>
<path content="AP030,1,28,1,0,15,1,8,JPN" xlink:title="AP030" d="M13575.0397,-3506.6822L13575.1022,-3506.1245L13575.0275,-3505.5832L13575.1053,-3504.1286"/>
<path content="AP030,1,28,1,0,15,1,8,JPN" xlink:title="AP030" d="M13573.8297,-3504.1557L13574.3835,-3504.1649L13575.1053,-3504.1286"/>
<path content="AP030,1,28,1,0,15,1,8,JPN" xlink:title="AP030" d="M13578.0197,-3504.2267L13578.0802,-3503.926"/>
<path content="AP030,1,28,1,0,14,1,8,JPN" xlink:title="AP030" d="M13575.9293,-3504.3732L13575.9293,-3503.9734L13575.9293,-3503.92"/>
<path content="AP030,1,28,1,0,14,1,8,JPN" xlink:title="AP030" d="M13601.3596,-3503.8998L13601.4496,-3503.9532L13602.4902,-3504.6066L13602.6306,-3504.7131L13602.6505,-3504.7333L13602.7405,-3504.9267L13602.7893,-3505.0533L13602.8305,-3505.1468L13602.8305,-3505.4333L13602.7695,-3505.92L13602.8107,-3506.2065L13602.9694,-3506.3732L13603.1296,-3506.5132L13603.45,-3506.8199L13603.83,-3507.18L13604.2892,-3507.4333L13604.5593,-3507.5798L13604.8798,-3507.7065L13605.4688,-3507.9213"/>
<path content="AP030,1,28,1,0,15,1,8,JPN" xlink:title="AP030" d="M13600.029,-3505.6385L13600.1709,-3505.4523L13600.7416,-3504.7085L13601.3596,-3503.8998"/>
<path content="AP030,1,28,1,0,15,1,8,JPN" xlink:title="AP030" d="M13575.1328,-3503.6293L13575.4303,-3503.6495L13575.9293,-3503.92"/>
<path content="AP030,1,28,1,0,15,1,8,JPN" xlink:title="AP030" d="M13575.1053,-3504.1286L13575.1328,-3503.6293"/>
<path content="AP030,1,28,1,0,15,1,8,JPN" xlink:title="AP030" d="M13573.851,-3503.5419L13575.1328,-3503.6293"/>
<path content="AP030,1,28,1,0,15,1,8,JPN" xlink:title="AP030" d="M13573.8297,-3504.1557L13573.851,-3503.5419"/>
<path content="AP030,1,28,1,0,15,1,8,JPN" xlink:title="AP030" d="M13597.3923,-3503.4103L13597.8165,-3504.2458L13600.029,-3505.6385"/>
<path content="AP030,1,28,1,0,15,1,8,JPN" xlink:title="AP030" d="M13594.5663,-3505.3165L13597.3923,-3503.4103"/>
<path content="AP030,1,28,1,0,16,1,8,JPN" xlink:title="AP030" d="M13584.3094,-3506.5865L13584.3307,-3506.5533L13584.3307,-3506.4999L13584.2194,-3506.4266L13584.1095,-3506.4068L13584.0393,-3506.3732L13584.0393,-3506.2798L13584.0195,-3506.2466L13583.9706,-3506.2267L13583.9005,-3506.2798L13583.8104,-3506.2267L13583.8104,-3506.2065L13583.8104,-3506.1531L13583.7692,-3506.1199L13583.7204,-3506.1733L13583.6502,-3506.1733L13583.6105,-3506.1333L13583.6105,-3506.0131L13583.5602,-3505.8331L13583.5403,-3505.7934L13583.4503,-3505.74L13583.4503,-3505.7068L13583.4702,-3505.5798L13583.4305,-3505.5065L13583.3099,-3505.4001L13583.2397,-3505.3265L13583.2199,-3505.2868L13583.2703,-3505.2731L13583.3801,-3505.2731L13583.4503,-3505.2532L13583.4702,-3505.1998L13583.5403,-3505.1666L13583.6105,-3505.1468L13583.6807,-3505.1266L13583.7204,-3505.0934L13583.7692,-3505.0934L13583.8806,-3505.1998L13583.9493,-3505.22L13583.9706,-3505.1998L13583.9905,-3505.1468L13583.9005,-3504.8599L13583.9493,-3504.6932L13583.9294,-3504.5864L13583.8593,-3504.4998L13583.8593,-3504.4598L13583.9005,-3504.3533L13583.8593,-3504.0466L13583.8104,-3503.8864L13583.8104,-3503.7067L13583.7402,-3503.6331L13583.6807,-3503.5797L13583.6807,-3503.3264"/>
<path content="AP030,1,28,1,0,15,1,8,JPN" xlink:title="AP030" d="M13573.851,-3503.5419L13574.2828,-3503.1742"/>
<path content="AP030,1,28,1,0,15,1,8,JPN" xlink:title="AP030" d="M13575.1328,-3503.6293L13575.1633,-3503.0556"/>
<path content="AP030,1,28,1,0,15,1,8,JPN" xlink:title="AP030" d="M13574.2828,-3503.1742L13575.1633,-3503.0556"/>
<path content="AP030,1,28,1,0,14,1,8,JPN" xlink:title="AP030" d="M13599.9695,-3503.0197L13600.2396,-3503.2867L13600.3296,-3503.36L13600.47,-3503.4332L13600.5798,-3503.5065L13601.3596,-3503.8998"/>
<path content="AP030,1,28,1,0,14,1,8,JPN" xlink:title="AP030" d="M13599.9695,-3503.0197L13600.3098,-3503.0197L13600.5203,-3503.0197L13600.9506,-3503.0399L13601.4297,-3503.0533"/>
<path content="AP030,1,28,1,0,15,1,8,JPN" xlink:title="AP030" d="M13577.0401,-3504.3732L13577.0355,-3504.0333L13576.9913,-3503.4485L13576.9104,-3502.9968"/>
<path content="AP030,1,28,1,0,14,1,8,JPN" xlink:title="AP030" d="M13570.3125,-3503.25L13570.3293,-3503.22L13570.5597,-3503.0197L13570.6802,-3502.9865"/>
<path content="AP030,1,28,1,0,15,1,8,JPN" xlink:title="AP030" d="M13575.9506,-3502.8931L13576.9104,-3502.9968"/>
<path content="AP030,1,28,1,0,14,1,8,JPN" xlink:title="AP030" d="M13575.9293,-3503.92L13575.9506,-3503.1998L13575.9506,-3502.8931"/>
<path content="AP030,1,28,1,0,15,1,8,JPN" xlink:title="AP030" d="M13575.1633,-3503.0556L13575.9506,-3502.8931"/>
<path content="AP030,1,28,1,0,14,1,8,JPN" xlink:title="AP030" d="M13570.6802,-3502.9865L13570.7901,-3502.9133L13570.8603,-3502.84"/>
<path content="AP030,1,28,1,0,15,1,8,JPN" xlink:title="AP030" d="M13571.7148,-3502.8381L13571.817,-3503.3806L13572.8622,-3503.6507L13573.1979,-3503.9341L13573.5382,-3504.1508L13573.8297,-3504.1557"/>
<path content="AP030,1,28,1,0,15,1,8,JPN" xlink:title="AP030" d="M13570.8603,-3502.84L13571.7148,-3502.8381"/>
<path content="AP030,1,28,1,0,15,1,8,JPN" xlink:title="AP030" d="M13594.5663,-3505.3165L13593.1381,-3503.2711L13592.8711,-3502.7355"/>
<path content="AP030,1,28,1,0,15,1,8,JPN" xlink:title="AP030" d="M13573.0606,-3502.6798L13573.7244,-3502.9705L13574.2828,-3503.1742"/>
<path content="AP030,1,28,1,0,15,1,8,JPN" xlink:title="AP030" d="M13573.0606,-3502.6798L13573.3902,-3503.3264L13573.851,-3503.5419"/>
<path content="AP030,1,28,1,0,15,1,8,JPN" xlink:title="AP030" d="M13571.7148,-3502.8381L13572.049,-3502.7481L13572.2153,-3502.7031L13573.0606,-3502.6798"/>
<path content="AP030,1,28,1,0,15,1,8,JPN" xlink:title="AP030" d="M13597.3923,-3503.4103L13597.3404,-3503.1704L13597.3358,-3503.1448L13597.2153,-3502.5784"/>
<path content="AP030,1,28,1,0,14,1,8,JPN" xlink:title="AP030" d="M13599.2401,-3502.5333L13599.4904,-3502.66L13599.6796,-3502.8L13599.9496,-3502.9999L13599.9695,-3503.0197"/>
<path content="AP030,1,28,1,0,15,1,8,JPN" xlink:title="AP030" d="M13597.3923,-3503.4103L13597.551,-3503.3344L13598.8144,-3502.7351L13598.9746,-3502.6592L13599.2401,-3502.5333"/>
<path content="AP030,1,28,1,0,14,1,8,JPN" xlink:title="AP030" d="M13575.9506,-3502.8931L13575.9506,-3502.5867L13575.9506,-3502.4799"/>
<path content="AP030,1,28,1,0,16,1,8,JPN" xlink:title="AP030" d="M13603.7415,-3502.4632L13603.7704,-3502.5131L13604.1306,-3502.8732L13604.4296,-3503.273L13604.6494,-3503.6667L13604.8599,-3503.8467L13605.13,-3503.9932L13605.4306,-3504.1L13605.4688,-3504.1082"/>
<path content="AP030,1,28,1,0,14,1,8,JPN" xlink:title="AP030" d="M13601.4297,-3503.0533L13601.9501,-3503.0933L13602.0798,-3503.0533L13603.45,-3502.5665L13603.7415,-3502.4632"/>
<path content="AP030,1,28,1,0,15,1,8,JPN" xlink:title="AP030" d="M13574.2828,-3503.1742L13574.2783,-3502.4487"/>
<path content="AP030,1,28,1,0,15,1,8,JPN" xlink:title="AP030" d="M13579.1,-3502.4487L13579.509,-3502.5185L13580.8731,-3503.5423L13581.0699,-3503.7579L13581.3995,-3503.8654L13581.7291,-3503.8654L13581.8604,-3504.081L13582.254,-3504.081L13582.518,-3504.0272L13582.782,-3504.0272L13583.0444,-3503.9192L13582.9788,-3503.6499L13583.0444,-3503.4344L13583.6807,-3503.3264"/>
<path content="AP030,1,28,1,0,15,1,8,JPN" xlink:title="AP030" d="M13579.1,-3502.4487L13579.1534,-3503.3176L13579.158,-3504.1023L13578.7735,-3504.1531L13578.6514,-3504.1142L13578.0802,-3503.926"/>
<path content="AP030,1,28,1,0,14,1,8,JPN" xlink:title="AP030" d="M13587.1307,-3505.7598L13586.9705,-3505.4867L13586.7203,-3505.3467L13586.4304,-3505.22L13586.2061,-3505.1258L13586.0794,-3505.0732L13585.7895,-3504.9267L13585.6506,-3504.8401L13585.5392,-3504.7131L13585.3607,-3504.2465L13585.3104,-3503.92L13585.2905,-3503.7399L13585.2203,-3503.3066L13585.0601,-3502.9999L13585.0204,-3502.84L13584.8999,-3502.4265"/>
<path content="AP030,1,28,1,0,15,1,8,JPN" xlink:title="AP030" d="M13583.6807,-3503.3264L13584.4269,-3503.3268L13584.6237,-3503.6499L13584.6237,-3503.973L13584.8862,-3503.973L13584.9533,-3503.7037L13585.0845,-3503.4885L13584.8999,-3502.4265"/>
<path content="AP030,1,28,1,0,15,1,8,JPN" xlink:title="AP030" d="M13575.2991,-3502.4109L13575.9506,-3502.4799"/>
<path content="AP030,1,28,1,0,15,1,8,JPN" xlink:title="AP030" d="M13575.1633,-3503.0556L13575.2991,-3502.4109"/>
<path content="AP030,1,28,1,0,15,1,8,JPN" xlink:title="AP030" d="M13574.2783,-3502.4487L13575.2991,-3502.4109"/>
<path content="AP030,1,28,1,0,15,1,8,JPN" xlink:title="AP030" d="M13576.9104,-3502.9968L13576.8463,-3502.3754"/>
<path content="AP030,1,28,1,0,15,1,8,JPN" xlink:title="AP030" d="M13575.9506,-3502.4799L13576.8463,-3502.3754"/>
<path content="AP030,1,28,1,0,14,1,8,JPN" xlink:title="AP030" d="M13570.8603,-3502.84L13570.8801,-3502.7866L13570.8923,-3502.66L13570.9,-3502.5867L13570.99,-3502.4597L13571.08,-3502.3533L13571.1502,-3502.28"/>
<path content="AP030,1,28,1,0,15,1,8,JPN" xlink:title="AP030" d="M13592.8711,-3502.7355L13594.249,-3502.2511"/>
<path content="AP030,1,28,1,0,15,1,8,JPN" xlink:title="AP030" d="M13577.9312,-3502.2491L13579.1,-3502.4487"/>
<path content="AP030,1,28,1,0,15,1,8,JPN" xlink:title="AP030" d="M13578.0802,-3503.926L13578.157,-3503.5439L13578.1479,-3503.492L13577.9312,-3502.2491"/>
<path content="AP030,1,28,1,0,15,1,8,JPN" xlink:title="AP030" d="M13576.8463,-3502.3754L13577.2736,-3502.3258L13577.9312,-3502.2491"/>
<path content="AP030,1,28,1,0,15,1,8,JPN" xlink:title="AP030" d="M13570.3125,-3502.9247L13570.6802,-3502.9865"/>
<path content="AP030,1,28,1,0,14,1,8,JPN" xlink:title="AP030" d="M13592.1494,-3512.6064L13592.0807,-3512.4798L13592.0197,-3512.3867L13591.7007,-3511.8999L13591.5802,-3511.7733L13591.5207,-3511.6867L13591.2399,-3511.38L13591.1301,-3511.2732L13591.04,-3511.1465L13590.7196,-3510.733L13590.3793,-3510.2467L13590.3305,-3510.1532L13590.1993,-3509.7733L13590.0604,-3509.5066L13590.0604,-3509.4868L13590.0192,-3509.3998L13589.9506,-3509.2865L13589.7705,-3509.1465L13589.5599,-3509L13589.5203,-3508.9664L13589.36,-3508.7868L13589.1998,-3508.5533L13588.9496,-3508.1932L13588.7405,-3507.9201L13588.6795,-3507.8465L13588.6307,-3507.7599L13588.6993,-3507.233L13588.6993,-3507.1667L13588.5406,-3506.9668L13588.4903,-3506.9267L13588.1805,-3506.5331L13588.1104,-3506.4598L13588.0203,-3506.3198L13587.8799,-3506.1531L13587.8098,-3505.9399L13587.7701,-3505.74L13587.7197,-3505.6534L13587.6099,-3505.4867L13587.4695,-3505.3799L13587.3993,-3505.3066L13587.3306,-3505.1666L13587.2894,-3504.7665L13587.2192,-3504.6799L13587.1094,-3504.6066L13586.9904,-3504.4998L13586.8301,-3504.4266L13586.7905,-3504.3533L13586.7203,-3504.1531L13586.6302,-3504.0466L13586.5799,-3503.9734L13586.5601,-3503.9398L13586.5601,-3503.8998L13586.5402,-3503.5599L13586.5601,-3503.4866L13586.6104,-3503.4L13586.6302,-3503.2532L13586.5799,-3502.8198L13586.5601,-3502.7866L13586.4502,-3502.6398L13586.1801,-3502.4067L13586.1801,-3502.1931"/>
<path content="AP030,1,28,1,0,15,1,8,JPN" xlink:title="AP030" d="M13584.8999,-3502.4265L13585.5881,-3502.3098L13585.6064,-3502.3067L13585.6079,-3502.3067L13586.1801,-3502.1931"/>
<path content="AP030,1,28,1,0,14,1,8,JPN" xlink:title="AP030" d="M13597.6105,-3502.1198L13597.6501,-3502.153L13597.9828,-3502.1843L13598.0804,-3502.1931L13598.3444,-3502.2465L13598.6099,-3502.2999L13598.8297,-3502.3533L13599.0799,-3502.4067L13599.2203,-3502.4998L13599.2401,-3502.5333"/>
<path content="AP030,1,28,1,0,15,1,8,JPN" xlink:title="AP030" d="M13597.2153,-3502.5784L13597.6105,-3502.1198"/>
<path content="AP030,1,28,1,0,15,1,8,JPN" xlink:title="AP030" d="M13570.3125,-3502.1733L13570.5551,-3502.2041L13571.1502,-3502.28"/>
<path content="AP030,1,28,1,0,15,1,8,JPN" xlink:title="AP030" d="M13572.995,-3501.9798L13573.851,-3502.4647L13574.2783,-3502.4487"/>
<path content="AP030,1,28,1,0,15,1,8,JPN" xlink:title="AP030" d="M13572.995,-3501.9798L13573.0606,-3502.6798"/>
<path content="AP030,1,28,1,0,14,1,8,JPN" xlink:title="AP030" d="M13597.0795,-3501.9398L13597.11,-3501.9733L13597.2198,-3502.0466L13597.6105,-3502.1198"/>
<path content="AP030,1,28,1,0,15,1,8,JPN" xlink:title="AP030" d="M13597.2153,-3502.5784L13597.0795,-3501.9398"/>
<path content="AP030,1,28,1,0,15,1,8,JPN" xlink:title="AP030" d="M13571.1502,-3502.28L13572.1405,-3501.926L13572.995,-3501.9798"/>
<path content="AP030,1,28,1,0,14,1,8,JPN" xlink:title="AP030" d="M13584.8999,-3502.4265L13584.8099,-3502.3197L13584.8099,-3502.2064L13584.7397,-3501.9733L13584.7,-3501.8467"/>
<path content="AP030,1,28,1,0,15,1,8,JPN" xlink:title="AP030" d="M13601.4297,-3503.0533L13601.738,-3502.6306L13602.4002,-3501.72"/>
<path content="AP030,1,28,1,0,16,1,8,JPN" xlink:title="AP030" d="M13602.4002,-3501.72L13602.8305,-3501.6331L13603.1296,-3501.6331L13603.3798,-3501.7067L13603.5202,-3501.8131L13603.6102,-3501.9531L13603.6484,-3502.2945L13603.7415,-3502.4632"/>
<path content="AP030,1,28,1,0,16,1,8,JPN" xlink:title="AP030" d="M13599.6796,-3501.593L13600.3098,-3501.7933L13600.7004,-3501.9398L13600.7904,-3501.9733L13601.3596,-3502.1L13601.5198,-3502.0798L13601.8295,-3501.9733L13602.4002,-3501.72"/>
<path content="AP030,1,28,1,0,15,1,8,JPN" xlink:title="AP030" d="M13599.2401,-3502.5333L13599.6796,-3501.593"/>
<path content="AP030,1,28,1,0,14,1,8,JPN" xlink:title="AP030" d="M13603.7415,-3502.4632L13605.22,-3501.9398L13605.4688,-3501.8055"/>
<path content="AP030,1,28,1,0,14,1,8,JPN" xlink:title="AP030" d="M13575.9506,-3502.4799L13575.9705,-3501.9733L13575.9705,-3501.7067L13575.9705,-3501.4332L13575.9705,-3501.3268"/>
<path content="AP030,1,28,1,0,14,1,8,JPN" xlink:title="AP030" d="M13596.4294,-3501.3268L13596.6095,-3501.4668L13596.6507,-3501.4866L13596.7407,-3501.58L13596.8796,-3501.7399L13596.9498,-3501.8131L13596.9696,-3501.8333L13597.0795,-3501.9398"/>
<path content="AP030,1,28,1,0,15,1,8,JPN" xlink:title="AP030" d="M13594.249,-3502.2511L13595.6787,-3501.6453L13596.4294,-3501.3268"/>
<path content="AP030,1,28,1,0,15,1,8,JPN" xlink:title="AP030" d="M13577.9312,-3502.2491L13577.7832,-3501.2856"/>
<path content="AP030,1,28,1,0,15,1,8,JPN" xlink:title="AP030" d="M13574.2783,-3502.4487L13574.2767,-3502.0081L13574.382,-3501.2054"/>
<path content="AP030,1,28,1,0,14,1,8,JPN" xlink:title="AP030" d="M13586.1801,-3502.1931L13586.0794,-3501.6865L13586.0794,-3501.6331L13586.0596,-3501.4332L13586.1099,-3501.3466L13586.1801,-3501.2733L13586.3998,-3501.1467"/>
<path content="AP030,1,28,1,0,15,1,8,JPN" xlink:title="AP030" d="M13575.3036,-3501.1314L13575.6119,-3501.1467L13575.9705,-3501.3268"/>
<path content="AP030,1,28,1,0,15,1,8,JPN" xlink:title="AP030" d="M13575.2991,-3502.4109L13575.3036,-3501.1314"/>
<path content="AP030,1,28,1,0,15,1,8,JPN" xlink:title="AP030" d="M13574.382,-3501.2054L13575.3036,-3501.1314"/>
<path content="AP030,1,28,1,0,15,1,8,JPN" xlink:title="AP030" d="M13578.8864,-3501.0864L13579.1,-3502.4487"/>
<path content="AP030,1,28,1,0,15,1,8,JPN" xlink:title="AP030" d="M13577.7832,-3501.2856L13578.8864,-3501.0864"/>
<path content="AP030,1,28,1,0,15,1,8,JPN" xlink:title="AP030" d="M13594.249,-3502.2511L13593.4006,-3501.0605"/>
<path content="AP030,1,28,1,0,14,1,8,JPN" xlink:title="AP030" d="M13575.9705,-3501.3268L13575.9705,-3501.0532"/>
<path content="AP030,1,28,1,0,15,1,8,JPN" xlink:title="AP030" d="M13576.8585,-3500.8419L13577.2385,-3501.0242L13577.2705,-3501.0395L13577.7832,-3501.2856"/>
<path content="AP030,1,28,1,0,15,1,8,JPN" xlink:title="AP030" d="M13576.8463,-3502.3754L13576.8097,-3502.0283L13576.8478,-3501.0731L13576.8585,-3500.8419"/>
<path content="AP030,1,28,1,0,15,1,8,JPN" xlink:title="AP030" d="M13575.9705,-3501.0532L13576.8585,-3500.8419"/>
<path content="AP030,1,28,1,0,14,1,4,JPN" xlink:title="AP030" d="M13583.9005,-3500.84L13583.9493,-3500.9266L13584.1797,-3501.2333L13584.4299,-3501.4866L13584.7,-3501.8467"/>
<path content="AP030,1,28,1,0,14,1,8,JPN" xlink:title="AP030" d="M13595.5795,-3500.7133L13595.8801,-3500.9132L13596.1502,-3501.1265L13596.3593,-3501.2733L13596.4294,-3501.3268"/>
<path content="AP030,1,28,1,0,14,1,8,JPN" xlink:title="AP030" d="M13575.9705,-3501.0532L13575.9903,-3500.6599L13575.9903,-3500.5562"/>
<path content="AP030,1,28,1,0,15,1,8,JPN" xlink:title="AP030" d="M13576.8585,-3500.8419L13576.7838,-3500.5527"/>
<path content="AP030,1,28,1,0,15,1,8,JPN" xlink:title="AP030" d="M13575.9903,-3500.5562L13576.2787,-3500.5676L13576.7838,-3500.5527"/>
<path content="AP030,1,28,1,0,15,1,8,JPN" xlink:title="AP030" d="M13574.382,-3501.2054L13574.6918,-3500.6359L13574.9146,-3500.5459"/>
<path content="AP030,1,28,1,0,15,1,8,JPN" xlink:title="AP030" d="M13575.3036,-3501.1314L13575.2899,-3500.5363"/>
<path content="AP030,1,28,1,0,15,1,8,JPN" xlink:title="AP030" d="M13574.9146,-3500.5459L13575.2899,-3500.5363"/>
<path content="AP030,1,28,1,0,15,1,8,JPN" xlink:title="AP030" d="M13575.2899,-3500.5363L13575.412,-3500.5333L13575.9903,-3500.5562"/>
<path content="AP030,1,28,1,0,16,1,8,JPN" xlink:title="AP030" d="M13598.3307,-3500.5333L13598.6496,-3500.9132L13598.9304,-3501.1665L13599.3301,-3501.4332L13599.6796,-3501.593"/>
<path content="AP030,1,28,1,0,15,1,8,JPN" xlink:title="AP030" d="M13596.4294,-3501.3268L13597.2412,-3500.9789L13597.7097,-3500.7782L13598.3307,-3500.5333"/>
<path content="AP030,1,28,1,0,14,1,8,JPN" xlink:title="AP030" d="M13595.2896,-3500.4601L13595.5795,-3500.7133"/>
<path content="AP030,1,28,1,0,15,1,8,JPN" xlink:title="AP030" d="M13593.4006,-3501.0605L13594.8624,-3500.5959L13595.2896,-3500.4601"/>
<path content="AP030,1,28,1,0,14,1,8,JPN" xlink:title="AP030" d="M13571.1502,-3502.28L13571.4462,-3501.7151L13571.6293,-3501.3798L13571.6507,-3501.0532L13571.6507,-3500.893L13571.6507,-3500.7839L13571.6507,-3500.7668L13571.6339,-3500.4421"/>
<path content="AP030,1,28,1,0,15,1,8,JPN" xlink:title="AP030" d="M13573.0728,-3500.4421L13573.4375,-3500.4673L13573.735,-3500.4875L13574.1699,-3500.526L13574.5102,-3500.5562L13574.9146,-3500.5459"/>
<path content="AP030,1,28,1,0,15,1,8,JPN" xlink:title="AP030" d="M13572.995,-3501.9798L13573.0087,-3501.7242L13573.0576,-3500.7332L13573.0728,-3500.4421"/>
<path content="AP030,1,28,1,0,15,1,8,JPN" xlink:title="AP030" d="M13571.6339,-3500.4421L13572.0917,-3500.4421L13573.0728,-3500.4421"/>
<path content="AP030,1,28,1,0,15,1,8,JPN" xlink:title="AP030" d="M13575.2899,-3500.5363L13575.2869,-3500.3944"/>
<path content="AP030,1,28,1,0,15,1,8,JPN" xlink:title="AP030" d="M13574.9146,-3500.5459L13575.2869,-3500.3944"/>
<path content="AP030,1,28,1,0,15,1,8,JPN" xlink:title="AP030" d="M13577.7832,-3501.2856L13577.774,-3500.9167L13577.7573,-3500.2384"/>
<path content="AP030,1,28,1,0,15,1,8,JPN" xlink:title="AP030" d="M13578.8864,-3501.0864L13579.2557,-3500.8556L13579.2923,-3500.5474L13579.3121,-3500.3872L13579.5731,-3500.1518"/>
<path content="AP030,1,28,1,0,15,1,8,JPN" xlink:title="AP030" d="M13602.4002,-3501.72L13602.8366,-3500.1373"/>
<path content="AP030,1,28,1,0,15,1,8,JPN" xlink:title="AP030" d="M13599.6796,-3501.593L13600.1373,-3501.0765L13601.7288,-3500.647L13602.8366,-3500.1373"/>
<path content="AP030,1,28,1,0,14,1,8,JPN" xlink:title="AP030" d="M13586.3998,-3501.1467L13586.3342,-3500.9647L13586.29,-3500.84L13586.2503,-3500.737L13586.2198,-3500.6599L13586.2,-3500.6199L13586.0794,-3500.333L13585.9955,-3500.1331L13585.9497,-3500.0267L13585.9406,-3500L13585.9299,-3499.9733"/>
<path content="AP030,1,28,1,0,15,1,8,JPN" xlink:title="AP030" d="M13586.3998,-3501.1467L13587.7716,-3500.6256L13588.9206,-3500.2121L13589.2029,-3500L13589.4501,-3499.8131"/>
<path content="AP030,1,28,1,0,16,1,8,JPN" xlink:title="AP030" d="M13589.4501,-3499.8131L13590.0192,-3499.773L13590.7394,-3499.72L13590.9698,-3499.7066"/>
<path content="AP030,1,28,1,0,15,1,8,JPN" xlink:title="AP030" d="M13591.5146,-3499.6868L13592.4637,-3499.9981L13592.4652,-3500L13593.4006,-3501.0605"/>
<path content="AP030,1,28,1,0,15,1,8,JPN" xlink:title="AP030" d="M13592.8711,-3502.7355L13592.2028,-3501.3908L13591.6351,-3500L13591.5222,-3499.7196L13591.5146,-3499.6868"/>
<path content="AP030,1,28,1,0,15,1,8,JPN" xlink:title="AP030" d="M13590.9698,-3499.7066L13591.5146,-3499.6868"/>
<path content="AP030,1,28,1,0,14,1,8,JPN" xlink:title="AP030" d="M13571.6339,-3500.4421L13571.6293,-3500.3532L13571.6293,-3500L13571.6293,-3499.9931L13571.6095,-3499.6132"/>
<path content="AP030,1,28,1,0,15,1,8,JPN" xlink:title="AP030" d="M13573.0728,-3500.4421L13573.0942,-3500.301L13573.14,-3500L13573.1995,-3499.6132"/>
<path content="AP030,1,28,1,0,14,1,8,JPN" xlink:title="AP030" d="M13571.6095,-3499.6132L13571.9894,-3499.6132L13572.2717,-3499.6132L13572.5601,-3499.6132L13573.1995,-3499.6132"/>
<path content="AP030,1,28,1,0,15,1,8,JPN" xlink:title="AP030" d="M13575.2869,-3500.3944L13575.2792,-3500L13575.2701,-3499.6132"/>
<path content="AP030,1,28,1,0,14,1,8,JPN" xlink:title="AP030" d="M13573.1995,-3499.6132L13573.5794,-3499.6132L13574.2065,-3499.6132L13574.2905,-3499.6132L13574.9298,-3499.6132L13575.2701,-3499.6132"/>
<path content="AP030,1,28,1,0,14,1,8,JPN" xlink:title="AP030" d="M13575.9903,-3500.5562L13575.9903,-3500.4055L13575.9903,-3500.3864L13575.9903,-3500.1534L13575.9903,-3500.0999L13575.9903,-3500L13575.9903,-3499.5934"/>
<path content="AP030,1,28,1,0,14,1,8,JPN" xlink:title="AP030" d="M13575.2701,-3499.6132L13575.9903,-3499.5934"/>
<path content="AP030,1,28,1,0,15,1,8,JPN" xlink:title="AP030" d="M13576.7838,-3500.5527L13576.7456,-3500.4066L13576.6403,-3500L13576.6174,-3499.9123L13576.5198,-3499.5934"/>
<path content="AP030,1,28,1,0,14,1,8,JPN" xlink:title="AP030" d="M13575.9903,-3499.5934L13576.2894,-3499.5934L13576.5198,-3499.5934"/>
<path content="AP030,1,28,1,0,15,1,8,JPN" xlink:title="AP030" d="M13570.3125,-3500.447L13570.5048,-3500.4421L13571.2921,-3500.4421L13571.6339,-3500.4421"/>
<path content="AP030,1,28,1,0,16,1,4,JPN" xlink:title="AP030" d="M13586.4502,-3499.58L13585.9726,-3499.5369L13585.8597,-3499.5266L13585.8078,-3499.5197"/>
<path content="AP030,1,28,1,0,14,1,8,JPN" xlink:title="AP030" d="M13585.8078,-3499.5197L13585.7895,-3499.6666L13585.8307,-3499.7932L13585.8673,-3499.8592L13585.9299,-3499.9733"/>
<path content="AP030,1,28,1,0,16,1,4,JPN" xlink:title="AP030" d="M13585.8078,-3499.5197L13585.4004,-3499.4667L13585.2402,-3499.4331"/>
<path content="AP030,1,28,1,0,15,1,8,JPN" xlink:title="AP030" d="M13577.7573,-3500.2384L13577.7161,-3500L13577.6093,-3499.3999"/>
<path content="AP030,1,28,1,0,14,1,8,JPN" xlink:title="AP030" d="M13576.5198,-3499.5934L13576.6098,-3499.5934L13576.8997,-3499.5598L13576.9699,-3499.5598L13577.4002,-3499.4667L13577.6093,-3499.3999"/>
<path content="AP030,1,28,1,0,15,1,8,JPN" xlink:title="AP030" d="M13602.8366,-3500.1373L13602.9648,-3500L13603.7003,-3499.21L13604.6783,-3499.6132L13604.9042,-3500L13605.1514,-3500.4246L13605.4688,-3500.7959"/>
<path content="AP030,1,28,1,0,14,1,8,JPN" xlink:title="AP030" d="M13583.9005,-3500.84L13583.7906,-3500.5867L13583.7906,-3500.1282L13583.7906,-3500.0797L13583.7799,-3500L13583.7692,-3499.9199L13583.6426,-3499.7662L13583.5602,-3499.6666L13583.49,-3499.5399L13583.49,-3499.2332L13583.49,-3499.0932"/>
<path content="AP030,1,28,1,0,14,1,8,JPN" xlink:title="AP030" d="M13582.9498,-3499.0398L13583.0597,-3499.073L13583.2901,-3499.1066L13583.49,-3499.0932"/>
<path content="AP030,1,28,1,0,15,1,8,JPN" xlink:title="AP030" d="M13576.5198,-3499.5934L13576.4297,-3498.9666"/>
<path content="AP030,1,28,1,0,14,1,8,JPN" xlink:title="AP030" d="M13575.9903,-3499.5934L13576.0193,-3498.9666L13576.4297,-3498.9666"/>
<path content="AP030,1,28,1,0,16,1,8,JPN" xlink:title="AP030" d="M13584.0714,-3498.9449L13584.2087,-3499.0131L13584.3307,-3499.073L13584.5398,-3499.1467L13584.79,-3499.2199L13585.1807,-3499.4133L13585.2402,-3499.4331"/>
<path content="AP030,1,28,1,0,14,1,8,JPN" xlink:title="AP030" d="M13583.49,-3499.0932L13583.7006,-3499.0532L13584.0714,-3498.9449"/>
<path content="AP030,1,28,1,0,15,1,8,JPN" xlink:title="AP030" d="M13579.5731,-3500.1518L13579.6249,-3500L13579.7729,-3499.5777L13579.8889,-3498.93"/>
<path content="AP030,1,28,1,0,15,1,8,JPN" xlink:title="AP030" d="M13577.7573,-3500.2384L13577.861,-3500.4654L13578.6224,-3500.4372L13578.9368,-3500L13579.3152,-3499.4736L13579.8889,-3498.93"/>
<path content="AP030,1,28,1,0,15,1,8,JPN" xlink:title="AP030" d="M13579.5731,-3500.1518L13579.6051,-3500.1442L13580.1254,-3500.0187L13580.1437,-3500L13580.6885,-3499.4144L13580.8136,-3499.2786L13580.8273,-3499.2641L13581.5033,-3498.912L13582.9498,-3499.0398"/>
<path content="AP030,1,28,1,0,14,1,8,JPN" xlink:title="AP030" d="M13584.0714,-3498.9449L13584.1797,-3498.9132L13584.3307,-3498.8598L13584.4498,-3498.8598L13584.5795,-3498.8731L13585.0204,-3499.02L13585.2402,-3499.1467L13585.3302,-3499.1798L13585.7193,-3499.1798L13585.7895,-3499.2199L13585.8307,-3499.3267L13585.8231,-3499.3912L13585.8078,-3499.5197"/>
<path content="AP030,1,28,1,0,15,1,8,JPN" xlink:title="AP030" d="M13573.1995,-3499.6132L13573.2559,-3498.6244"/>
<path content="AP030,1,28,1,0,15,1,8,JPN" xlink:title="AP030" d="M13572.1527,-3498.5977L13573.2559,-3498.6244"/>
<path content="AP030,1,28,1,0,15,1,8,JPN" xlink:title="AP030" d="M13571.6095,-3499.6132L13571.8124,-3499.2348L13572.1527,-3498.5977"/>
<path content="AP030,1,28,1,0,16,1,8,JPN" xlink:title="AP030" d="M13595.8894,-3498.3451L13596.0205,-3498.4264L13596.8094,-3499.073L13597.2198,-3499.4133L13597.8104,-3499.9001L13597.9019,-3500L13598.1094,-3500.2266L13598.3307,-3500.5333"/>
<path content="AP030,1,28,1,0,14,1,8,JPN" xlink:title="AP030" d="M13582.9498,-3499.0398L13582.93,-3498.9864L13582.8796,-3498.9265L13582.8598,-3498.7999L13582.8293,-3498.6797L13582.8094,-3498.5867L13582.7698,-3498.4798L13582.7194,-3498.32"/>
<path content="AP030,1,28,1,0,15,1,8,JPN" xlink:title="AP030" d="M13579.8889,-3498.93L13579.9728,-3498.8503L13581.2195,-3498.4249L13582.1548,-3498.3967L13582.7194,-3498.32"/>
<path content="AP030,1,28,1,0,14,1,8,JPN" xlink:title="AP030" d="M13577.6093,-3499.3999L13577.7206,-3499.3465L13577.7695,-3499.3065L13577.9495,-3499.2733L13578.1799,-3499.2199L13578.3798,-3499.1066L13578.7003,-3498.9265L13578.7704,-3498.8934L13578.9307,-3498.8731L13579.2694,-3498.8934L13579.4495,-3498.8598L13579.4586,-3498.8461L13579.5395,-3498.7133L13579.6799,-3498.373L13579.7195,-3498.3334L13579.7897,-3498.2597"/>
<path content="AP030,1,28,1,0,15,1,8,JPN" xlink:title="AP030" d="M13579.8889,-3498.93L13579.95,-3498.2067"/>
<path content="AP030,1,28,1,0,14,1,8,JPN" xlink:title="AP030" d="M13579.7897,-3498.2597L13579.8599,-3498.2468L13579.95,-3498.2067"/>
<path content="AP030,1,28,1,0,14,1,8,JPN" xlink:title="AP030" d="M13579.95,-3498.2067L13580.8594,-3498.1934L13581.4499,-3498.1934L13581.6803,-3498.1934L13582.1793,-3498.1934L13582.5394,-3498.1934L13582.5607,-3498.1934L13582.6492,-3498.2265L13582.7194,-3498.32"/>
<path content="AP030,1,28,1,0,14,1,8,JPN" xlink:title="AP030" d="M13576.4297,-3498.9666L13576.4297,-3498.6599L13576.4297,-3498.5088L13576.4297,-3498.3868L13576.4297,-3498.1731L13576.4297,-3497.9198"/>
<path content="AP030,1,28,1,0,14,1,8,JPN" xlink:title="AP030" d="M13574.6094,-3497.9L13574.9298,-3497.9L13575.2701,-3497.9134L13575.4303,-3497.9198L13575.4303,-3498.1731L13575.4303,-3498.3532L13575.4303,-3498.3868L13575.4013,-3498.4802L13575.3983,-3498.4913L13575.3464,-3498.6599L13575.3296,-3498.7133L13575.3098,-3498.9468L13575.3098,-3499.0532L13575.2701,-3499.6132"/>
<path content="AP030,1,28,1,0,14,1,8,JPN" xlink:title="AP030" d="M13573.3093,-3497.7398L13573.7701,-3497.7932L13574.1104,-3497.8466L13574.1501,-3497.8466L13574.6094,-3497.9"/>
<path content="AP030,1,28,1,0,14,1,8,JPN" xlink:title="AP030" d="M13591.1107,-3497.7353L13591.4001,-3497.76L13591.7007,-3497.8466L13592.0593,-3498.1731L13592.1295,-3498.2468L13592.6102,-3498.4398L13592.7002,-3498.4798L13593.2205,-3498.7133L13593.3807,-3498.7999L13593.7195,-3499.0532L13594.1101,-3499.3797L13594.22,-3499.4667L13594.7403,-3499.9001L13594.8532,-3500L13595.1096,-3500.2266L13595.2194,-3500.3201L13595.2896,-3500.4601"/>
<path content="AP030,1,28,1,0,15,1,8,JPN" xlink:title="AP030" d="M13591.5146,-3499.6868L13591.1621,-3498.0789L13591.1107,-3497.7353"/>
<path content="AP030,1,28,1,0,14,1,8,JPN" xlink:title="AP030" d="M13590.5197,-3497.6868L13590.9302,-3497.72L13591.1107,-3497.7353"/>
<path content="AP030,1,28,1,0,15,1,8,JPN" xlink:title="AP030" d="M13589.4501,-3499.8131L13589.4501,-3499.3465L13589.5203,-3499.1798L13589.5798,-3499.1066L13589.7903,-3498.8197L13589.8804,-3498.6797L13589.9704,-3498.5664L13590.3107,-3498.3532L13590.3793,-3498.2468L13590.4282,-3498.0713L13590.4694,-3497.9198L13590.5197,-3497.6868"/>
<path content="AP030,1,28,1,0,14,1,8,JPN" xlink:title="AP030" d="M13585.9299,-3499.9733L13586.4502,-3499.9733L13587.1094,-3499.9531L13587.4496,-3499.9397L13587.4695,-3499.9199L13587.6999,-3499.8131L13587.9898,-3499.6132L13588.1805,-3499.4331L13588.3804,-3499.1798L13588.5803,-3498.8731L13588.7894,-3498.373L13588.8107,-3498.32L13588.9694,-3498.1934L13589.1998,-3498.0999L13589.4501,-3498.0267L13589.6103,-3497.9198L13589.8102,-3497.813L13589.9704,-3497.72L13590.1794,-3497.6868L13590.3,-3497.6746L13590.3793,-3497.6665L13590.5197,-3497.6868"/>
<path content="AP030,1,28,1,0,15,1,8,JPN" xlink:title="AP030" d="M13572.3465,-3497.6475L13572.4945,-3497.6601L13572.8546,-3497.7333L13572.9095,-3497.7448L13572.9889,-3497.8039L13573.291,-3498.0282L13573.2849,-3498.1342L13573.2559,-3498.6244"/>
<path content="AP030,1,28,1,0,15,1,8,JPN" xlink:title="AP030" d="M13572.1527,-3498.5977L13572.1771,-3498.2174L13572.3465,-3497.6475"/>
<path content="AP030,1,28,1,0,14,1,8,JPN" xlink:title="AP030" d="M13571.6095,-3499.6132L13571.5195,-3499.6132L13571.2692,-3499.5068L13570.9,-3499.3599L13570.3125,-3499.0988"/>
<path content="AP030,1,28,1,0,15,1,8,JPN" xlink:title="AP030" d="M13570.3125,-3497.4872L13570.372,-3497.4884L13570.5734,-3497.744L13570.7535,-3498.3124L13571.1212,-3498.5302L13572.1527,-3498.5977"/>
<path content="AP030,1,28,1,0,14,1,8,JPN" xlink:title="AP030" d="M13572.6807,-3497.4133L13573.3093,-3497.7398"/>
<path content="AP030,1,28,1,0,15,1,8,JPN" xlink:title="AP030" d="M13572.3465,-3497.6475L13572.493,-3497.5441L13572.6807,-3497.4133"/>
<path content="AP030,1,28,1,0,15,1,8,JPN" xlink:title="AP030" d="M13574.5605,-3497.2733L13575.2701,-3497.4144L13575.386,-3497.4377L13576.4297,-3497.9198"/>
<path content="AP030,1,28,1,0,14,1,8,JPN" xlink:title="AP030" d="M13574.6094,-3497.9L13574.5605,-3497.2733"/>
<path content="AP030,1,28,1,0,15,1,8,JPN" xlink:title="AP030" d="M13573.3093,-3497.7398L13573.642,-3497.4518L13574.5605,-3497.2733"/>
<path content="AP030,1,28,1,0,15,1,8,JPN" xlink:title="AP030" d="M13576.4297,-3497.2733L13576.9608,-3497.6032L13577.0782,-3497.905L13577.1652,-3498.127L13577.2034,-3498.2265L13577.2964,-3498.4959L13577.3483,-3498.6443L13577.6093,-3499.3999"/>
<path content="AP030,1,28,1,0,14,1,8,JPN" xlink:title="AP030" d="M13576.4297,-3497.9198L13576.4297,-3497.76L13576.4297,-3497.2733"/>
<path content="AP030,1,28,1,0,14,1,8,JPN" xlink:title="AP030" d="M13576.1505,-3497.2733L13576.4297,-3497.2733"/>
<path content="AP030,1,28,1,0,15,1,8,JPN" xlink:title="AP030" d="M13574.5605,-3496.9467L13575.2594,-3496.9711L13575.5066,-3496.9799L13576.1505,-3497.2733"/>
<path content="AP030,1,28,1,0,14,1,8,JPN" xlink:title="AP030" d="M13574.5605,-3497.2733L13574.5605,-3496.9467"/>
<path content="AP030,1,28,1,0,15,1,8,JPN" xlink:title="AP030" d="M13598.3307,-3500.5333L13598.3078,-3500L13598.2803,-3499.3168L13598.5474,-3498.2388L13598.4955,-3497.7745L13597.1939,-3497.4236L13596.4539,-3497.0627L13596.3856,-3496.9256"/>
<path content="AP030,1,28,1,0,16,1,8,JPN" xlink:title="AP030" d="M13595.8894,-3498.3451L13596.06,-3498.133L13596.2,-3497.725L13596.24,-3497.35L13596.3,-3497.078L13596.3856,-3496.9256"/>
<path content="AP030,1,28,1,0,14,1,8,JPN" xlink:title="AP030" d="M13590.5197,-3497.6868L13590.5197,-3497.3999L13590.5197,-3497.3801L13590.5197,-3497.1066L13590.5121,-3497.0772L13590.4709,-3496.9036"/>
<path content="AP030,1,28,1,0,16,1,8,JPN" xlink:title="AP030" d="M13586.4502,-3499.58L13586.6104,-3499.6132L13586.7401,-3499.5934L13586.9003,-3499.5399L13587.1094,-3499.4534L13587.2696,-3499.3599L13587.4893,-3499.2199L13587.6801,-3498.9998L13587.8098,-3498.7865L13587.9303,-3498.46L13588.0798,-3498.0667L13588.1805,-3497.7066L13588.4506,-3497.3801L13588.5223,-3497.3351L13588.7695,-3497.1798L13589.18,-3497.0398L13589.6805,-3496.9868L13590.2695,-3496.9265L13590.3,-3496.9231L13590.4709,-3496.9036"/>
<path content="AP030,1,28,1,0,16,1,8,JPN" xlink:title="AP030" d="M13592.6498,-3496.8933L13592.8604,-3496.9265L13593.4692,-3497.0531L13594.1101,-3497.1798L13594.31,-3497.2866L13594.6106,-3497.5067L13595.2896,-3497.9733L13595.8894,-3498.3451"/>
<path content="AP030,1,28,1,0,14,1,8,JPN" xlink:title="AP030" d="M13595.5795,-3500.7133L13595.6299,-3500.4799L13595.61,-3500.1331L13595.5444,-3500L13595.4895,-3499.8867L13595.3796,-3499.72L13595.0607,-3499.4865L13594.6106,-3499.1066L13594.5602,-3499.073L13594.1498,-3498.7331L13593.7195,-3498.2998L13593.3105,-3497.9L13593.2007,-3497.7932L13592.9703,-3497.5597L13592.9001,-3497.4865L13592.8604,-3497.4133L13592.807,-3497.1985L13592.7902,-3497.1268L13592.6498,-3496.8933"/>
<path content="AP030,1,28,1,0,16,1,8,JPN" xlink:title="AP030" d="M13590.4709,-3496.9036L13591.3803,-3496.7999L13591.6107,-3496.7865L13592.0807,-3496.7667L13592.3798,-3496.8201L13592.6498,-3496.8933"/>
<path content="AP030,1,28,1,0,15,1,8,JPN" xlink:title="AP030" d="M13570.3125,-3496.9508L13570.314,-3496.9517L13571.0403,-3497.5182L13571.4905,-3497.575L13572.3465,-3497.6475"/>
<path content="AP030,1,28,1,0,15,1,8,JPN" xlink:title="AP030" d="M13572.6303,-3496.5668L13573.6023,-3496.8662L13574.5605,-3496.9467"/>
<path content="AP030,1,28,1,0,14,1,8,JPN" xlink:title="AP030" d="M13572.6807,-3497.4133L13572.6501,-3496.9997L13572.6303,-3496.5668"/>
<path content="AP030,1,28,1,0,16,1,8,JPN" xlink:title="AP030" d="M13580.9769,-3496.2997L13582.0404,-3496.7865L13582.5394,-3497.0398L13582.6797,-3497.2L13582.9498,-3497.6532L13583.1177,-3497.9244L13583.4305,-3498.4264L13583.58,-3498.7133L13583.8593,-3498.84L13584.0714,-3498.9449"/>
<path content="AP030,1,28,1,0,15,1,8,JPN" xlink:title="AP030" d="M13579.7897,-3498.2597L13579.718,-3498.0957L13579.5853,-3497.7982L13579.6997,-3497.2874L13580.1651,-3496.8143L13580.9769,-3496.2997"/>
<path content="AP030,1,28,1,0,16,1,8,JPN" xlink:title="AP030" d="M13591.8594,-3496.2799L13592.2699,-3496.5332L13592.6102,-3496.7464L13592.6498,-3496.8933"/>
<path content="AP030,1,28,1,0,16,1,8,JPN" xlink:title="AP030" d="M13596.3856,-3496.9256L13596.46,-3496.793L13596.83,-3496.473L13597.22,-3496.276L13597.64,-3496.201L13598.4,-3496.201L13599.06,-3496.215L13599.93,-3496.222"/>
<path content="AP030,1,28,1,0,16,1,8,JPN" xlink:title="AP030" d="M13590.9424,-3495.6703L13591.1102,-3495.7199L13591.3101,-3495.7932L13591.4703,-3495.8866L13591.5604,-3496.0266L13591.7007,-3496.1533L13591.8594,-3496.2799"/>
<path content="AP030,1,28,1,0,14,1,8,JPN" xlink:title="AP030" d="M13590.4709,-3496.9036L13590.4495,-3496.8201L13590.4297,-3496.64L13590.4297,-3496.3867L13590.5197,-3496.2799L13590.86,-3496.0133L13590.9302,-3495.9L13590.9424,-3495.6703"/>
<path content="AP030,1,28,1,0,14,1,8,JPN" xlink:title="AP030" d="M13576.1505,-3497.2733L13576.1795,-3497.1466L13576.2695,-3497.0398L13576.3306,-3496.9265L13576.2695,-3496.3531L13576.2207,-3496.2799L13576.1093,-3495.76L13576.0818,-3495.5933"/>
<path content="AP030,1,28,1,0,16,1,8,JPN" xlink:title="AP030" d="M13576.0818,-3495.5933L13576.68,-3495.5933L13577.0203,-3495.599L13577.7939,-3495.612L13577.8595,-3495.6131L13578.9307,-3495.6333L13579.4006,-3495.6532L13579.5807,-3495.6867L13579.8096,-3495.76L13580.4306,-3496.0464L13580.9769,-3496.2997"/>
<path content="AP030,1,28,1,0,15,1,8,JPN" xlink:title="AP030" d="M13591.8594,-3496.2799L13593.988,-3495.89L13594.5847,-3495.5418L13595.3613,-3495.5418"/>
<path content="AP030,1,28,1,0,15,1,8,JPN" xlink:title="AP030" d="M13596.3856,-3496.9256L13596.1685,-3496.4901L13595.9457,-3495.5418"/>
<path content="AP030,1,28,1,0,15,1,8,JPN" xlink:title="AP030" d="M13595.3613,-3495.5418L13595.3827,-3495.5418L13595.9457,-3495.5418"/>
<path content="AP030,1,28,1,0,16,1,8,JPN" xlink:title="AP030" d="M13574.5193,-3495.2866L13575.0198,-3495.4865"/>
<path content="AP030,1,28,1,0,14,1,8,JPN" xlink:title="AP030" d="M13574.5605,-3496.9467L13574.5407,-3496.5134L13574.5407,-3496.1933L13574.5407,-3495.76L13574.5193,-3495.2866"/>
<path content="AP030,1,28,1,0,16,1,4,JPN" xlink:title="AP030" d="M13599.93,-3496.222L13600.85,-3496.161L13601.37,-3496.038L13602.07,-3495.718L13602.78,-3495.174L13603.0934,-3494.9185"/>
<path content="AP030,1,28,1,0,14,1,8,JPN" xlink:title="AP030" d="M13576.0818,-3495.5933L13576.0406,-3495.3465L13575.9903,-3495.1668L13575.9293,-3494.8933L13575.9003,-3494.8399"/>
<path content="AP030,1,28,1,0,15,1,8,JPN" xlink:title="AP030" d="M13602.8366,-3500.1373L13602.8793,-3500L13603.4317,-3498.2574L13603.772,-3496.5164L13603.9429,-3495.681L13603.604,-3494.5021"/>
<path content="AP030,1,28,1,0,16,1,8,JPN" xlink:title="AP030" d="M13603.0934,-3494.9185L13603.604,-3494.5021"/>
<path content="AP030,1,28,1,0,14,1,8,JPN" xlink:title="AP030" d="M13572.6303,-3496.5668L13572.3099,-3496.4798L13571.9498,-3496.3734L13571.8796,-3496.3531L13571.7697,-3496.2265L13571.6995,-3495.993L13571.6995,-3495.8668L13571.6797,-3495.4132L13571.6995,-3494.7865L13571.6995,-3494.7132L13571.6995,-3494.2799L13571.6293,-3493.8999L13571.637,-3493.8923"/>
<path content="AP030,1,28,1,0,15,1,8,JPN" xlink:title="AP030" d="M13603.604,-3494.5021L13603.6026,-3494.4973L13603.2623,-3493.8011"/>
<path content="AP030,1,28,1,0,15,1,8,JPN" xlink:title="AP030" d="M13595.9457,-3495.5418L13597.7325,-3495.5418L13599.4339,-3495.1935L13600.9644,-3494.4279L13602.4963,-3494.149L13603.2623,-3493.8011"/>
<path content="AP030,1,28,1,0,16,1,8,JPN" xlink:title="AP030" d="M13571.7346,-3493.7786L13571.8994,-3494.0468L13572.2198,-3494.3531L13572.6303,-3494.5667L13573.2697,-3494.7998L13574.1104,-3495.1267L13574.5193,-3495.2866"/>
<path content="AP030,1,28,1,0,14,1,8,JPN" xlink:title="AP030" d="M13571.637,-3493.8923L13571.7346,-3493.7786"/>
<path content="AP030,1,28,1,0,15,1,8,JPN" xlink:title="AP030" d="M13575.9003,-3494.8399L13575.9232,-3494.7186L13576.1307,-3493.6077"/>
<path content="AP030,1,28,1,0,15,1,8,JPN" xlink:title="AP030" d="M13574.5193,-3495.2866L13575.083,-3494.6993"/>
<path content="AP030,1,28,1,0,15,1,8,JPN" xlink:title="AP030" d="M13574.4705,-3493.2533L13574.9674,-3493.3616"/>
<path content="AP030,1,28,1,0,14,1,8,JPN" xlink:title="AP030" d="M13574.5193,-3495.2866L13574.5193,-3495.0733L13574.5193,-3495.0001L13574.5193,-3494.6068L13574.5193,-3494.5534L13574.4904,-3494.0468L13574.4705,-3493.2533"/>
<path content="AP030,1,28,1,0,14,1,8,JPN" xlink:title="AP030" d="M13571.7346,-3493.7786L13571.8307,-3493.6665L13571.8307,-3493.56L13571.6797,-3493.2732L13571.4706,-3492.9867L13571.4294,-3492.9184"/>
<path content="AP030,1,28,1,0,15,1,8,JPN" xlink:title="AP030" d="M13580.9769,-3496.2997L13581.4972,-3495.2229L13581.7734,-3494.5427L13581.7383,-3494.2028L13581.4621,-3493.8343L13580.9418,-3493.4658L13580.5618,-3493.1824L13580.3192,-3492.8993"/>
<path content="AP030,1,28,1,0,15,1,8,JPN" xlink:title="AP030" d="M13571.4294,-3492.9184L13572.4152,-3492.8024L13573.1583,-3493.1038L13574.4705,-3493.2533"/>
<path content="AP030,1,28,1,0,15,1,8,JPN" xlink:title="AP030" d="M13571.1105,-3492.6933L13571.4294,-3492.9184"/>
<path content="AP030,1,28,1,0,16,1,8,JPN" xlink:title="AP030" d="M13571.7346,-3493.7786L13571.5195,-3493.4334L13571.4294,-3493.2846L13571.2692,-3493.0199L13571.1105,-3492.6933"/>
<path content="AP030,1,28,1,0,15,1,8,JPN" xlink:title="AP030" d="M13570.8603,-3492.6598L13571.1105,-3492.6933"/>
<path content="AP030,1,28,1,0,14,1,8,JPN" xlink:title="AP030" d="M13571.637,-3493.8923L13571.4294,-3493.6516L13571.3806,-3493.5932L13571.1502,-3493.3266L13571.0602,-3493.1267L13571.0205,-3493.0401L13570.8801,-3492.7666L13570.8603,-3492.6598"/>
<path content="AP030,1,28,1,0,15,1,8,JPN" xlink:title="AP030" d="M13570.3125,-3492.8235L13570.3339,-3492.8238L13570.3461,-3492.8242L13570.8603,-3492.6598"/>
<path content="AP030,1,28,1,0,14,1,8,JPN" xlink:title="AP030" d="M13574.4705,-3493.2533L13574.4507,-3493.1267L13574.4705,-3493.0531L13574.4705,-3492.6399"/>
<path content="AP030,1,28,1,0,16,1,8,JPN" xlink:title="AP030" d="M13603.604,-3494.5021L13604.14,-3494.065L13604.8,-3493.766L13605.43,-3493.576L13605.4688,-3493.5651"/>
<path content="AP030,1,28,1,0,16,1,8,JPN" xlink:title="AP030" d="M13587.5793,-3491.8865L13587.6999,-3491.8999L13587.8799,-3491.9731L13588.0402,-3492.0265L13588.1302,-3492.0799L13588.4506,-3492.2466L13588.6093,-3492.4267L13588.6795,-3492.6201L13588.6795,-3492.9466L13588.6795,-3493.3598L13588.6993,-3493.8332L13588.6993,-3494.3531L13588.7695,-3494.5133L13588.9496,-3494.6198L13589.3097,-3494.7468L13589.5401,-3494.8601L13589.7903,-3494.9665L13589.9307,-3495.0733L13590.1306,-3495.2866L13590.2405,-3495.433L13590.2893,-3495.4865L13590.4907,-3495.5933L13590.7394,-3495.6665L13590.9302,-3495.6665L13590.9424,-3495.6703"/>
<path content="AP030,1,28,1,0,16,1,8,JPN" xlink:title="AP030" d="M13587.1796,-3491.7931L13587.5793,-3491.8865"/>
<path content="AP030,1,28,1,0,15,1,8,JPN" xlink:title="AP030" d="M13595.3613,-3495.5418L13595.0195,-3494.957L13594.0964,-3494.3245L13593.2648,-3494.1578L13592.9977,-3493.9487L13591.983,-3492.8501L13591.983,-3492.223L13592.3599,-3491.7198"/>
<path content="AP030,1,28,1,0,16,1,4,JPN" xlink:title="AP030" d="M13585.6506,-3491.5932L13585.2905,-3491.6134L13585.1105,-3491.5932"/>
<path content="AP030,1,28,1,0,14,1,8,JPN" xlink:title="AP030" d="M13590.9424,-3495.6703L13590.95,-3495.5265L13590.95,-3495.4666L13590.95,-3495.3068L13590.95,-3495.0531L13591.0202,-3494.8399L13590.9698,-3494.68L13590.8096,-3494.5133L13590.77,-3494.4267L13590.77,-3494.3199L13590.77,-3494.26L13590.77,-3494.2467L13590.7898,-3494.2066L13590.86,-3494.1532L13590.86,-3493.9198L13590.86,-3493.8332L13590.86,-3493.6531L13590.8997,-3493.5932L13591.0202,-3493.5066L13591.2003,-3493.3998L13591.2903,-3493.2865L13591.4505,-3492.9867L13591.5207,-3492.8398L13591.5604,-3492.68L13591.5405,-3492.5533L13591.4307,-3492.44L13591.2201,-3492.2798L13591.1804,-3492.1333L13591.1804,-3491.9933L13591.2399,-3491.8133L13591.2399,-3491.5798"/>
<path content="AP030,1,28,1,0,15,1,8,JPN" xlink:title="AP030" d="M13587.5793,-3491.8865L13589.5981,-3491.5108L13591.2399,-3491.5798"/>
<path content="AP030,1,28,1,0,16,1,4,JPN" xlink:title="AP030" d="M13585.1105,-3491.5932L13584.7702,-3491.5066"/>
<path content="AP030,1,28,1,0,15,1,8,JPN" xlink:title="AP030" d="M13580.3192,-3492.8993L13580.9921,-3492.7914L13581.4392,-3493.0347L13581.6895,-3492.9558L13581.9595,-3492.5415L13582.8079,-3492.0395L13583.6487,-3491.6718L13583.9584,-3491.5058L13584.7702,-3491.5066"/>
<path content="AP030,1,28,1,0,16,1,8,JPN" xlink:title="AP030" d="M13585.6506,-3491.5932L13585.7407,-3491.5398L13585.7895,-3491.5264L13585.9695,-3491.4867L13586.1099,-3491.4532L13586.2396,-3491.4532L13586.3998,-3491.4867L13586.6302,-3491.5932L13586.8805,-3491.7065L13587.0193,-3491.7599L13587.1796,-3491.7931"/>
<path content="AP030,1,28,1,0,14,1,8,JPN" xlink:title="AP030" d="M13591.2399,-3491.5798L13591.2704,-3491.3799"/>
<path content="AP030,1,28,1,0,14,1,8,JPN" xlink:title="AP030" d="M13591.2704,-3491.3799L13591.5405,-3491.3597L13591.7404,-3491.4131L13592.0197,-3491.4131L13592.1097,-3491.4532L13592.2394,-3491.6531L13592.3294,-3491.7198L13592.3599,-3491.7198"/>
<path content="AP030,1,28,1,0,15,1,8,JPN" xlink:title="AP030" d="M13603.2623,-3493.8011L13604.2831,-3493.1744L13605.4688,-3492.8833"/>
<path content="AP030,1,28,1,0,15,1,8,JPN" xlink:title="AP030" d="M13587.175,-3491.1987L13587.1796,-3491.7931"/>
<path content="AP030,1,28,1,0,15,1,8,JPN" xlink:title="AP030" d="M13585.1105,-3491.5932L13585.3409,-3491.161L13585.9131,-3491.1404L13587.175,-3491.1987"/>
<path content="AP030,1,28,1,0,14,1,8,JPN" xlink:title="AP030" d="M13570.8603,-3492.6598L13570.8298,-3492.6067L13570.6802,-3492.1333L13570.5399,-3491.6664L13570.3995,-3491.2865L13570.3293,-3491.1266L13570.3125,-3491.0955"/>
<path content="AP030,1,28,1,0,16,1,8,JPN" xlink:title="AP030" d="M13571.1105,-3492.6933L13570.8801,-3492.1532L13570.6802,-3491.4665L13570.5795,-3491.1667L13570.4788,-3491.011"/>
<path content="AP030,1,28,1,0,14,1,8,JPN" xlink:title="AP030" d="M13570.3125,-3491.0479L13570.4788,-3491.011"/>
<path content="AP030,1,28,1,0,14,1,8,JPN" xlink:title="AP030" d="M13571.4294,-3492.9184L13571.3104,-3492.7132L13571.2906,-3492.6598L13571.2006,-3492.44L13571.0602,-3492.0265L13570.8801,-3491.5066L13570.6802,-3490.9664L13570.4788,-3491.011"/>
<path content="AP030,1,28,1,0,14,1,8,JPN" xlink:title="AP030" d="M13575.9003,-3494.8399L13576.1093,-3494.7132L13576.4694,-3494.5133L13576.5793,-3494.5L13576.6495,-3494.4798L13576.8402,-3494.4244L13576.9699,-3494.3867L13576.9501,-3494.2799L13576.8997,-3494.1334L13576.8295,-3493.9198L13576.77,-3493.7401L13576.77,-3493.6333L13576.8097,-3493.4334L13576.8097,-3493.2865L13576.8295,-3492.9131L13576.86,-3492.86L13576.8784,-3492.8162L13576.8997,-3492.7666L13576.9699,-3492.6399L13577.0599,-3492.4999L13577.15,-3492.3733L13577.2202,-3492.3L13577.33,-3492.2066L13577.5192,-3492.0998L13578.0807,-3491.74L13578.3096,-3491.5798L13578.3798,-3491.3998L13578.3997,-3491.2197L13578.45,-3490.8932L13578.4698,-3490.7867"/>
<path content="AP030,1,28,1,0,16,1,8,JPN" xlink:title="AP030" d="M13570.3125,-3490.8479L13570.4498,-3490.9664L13570.4788,-3491.011"/>
<path content="AP030,1,28,1,0,16,1,4,JPN" xlink:title="AP030" d="M13584.7702,-3491.5066L13584.1293,-3491.2731L13583.3603,-3490.9466L13582.6996,-3490.7131L13582.4707,-3490.6399L13582.0206,-3490.5533L13581.5399,-3490.4999L13581.4896,-3490.4999"/>
<path content="AP030,1,28,1,0,16,1,8,JPN" xlink:title="AP030" d="M13576.4496,-3490.4064L13576.9302,-3490.6399L13577.388,-3490.8535L13577.4307,-3490.8733L13577.7206,-3490.9866L13577.9495,-3490.9664L13578.3096,-3490.86L13578.4698,-3490.7867"/>
<path content="AP030,1,28,1,0,14,1,8,JPN" xlink:title="AP030" d="M13576.4496,-3490.4064L13576.5793,-3490.5533L13577.2202,-3490.8733L13577.3331,-3490.9286L13577.5192,-3491.0198L13577.6794,-3491.053L13577.8107,-3491.053L13578.0396,-3491.0198L13578.27,-3490.9466L13578.4698,-3490.7867"/>
<path content="AP030,1,28,1,0,16,1,8,JPN" xlink:title="AP030" d="M13580.9692,-3490.3866L13581.0593,-3490.4064L13581.2393,-3490.44L13581.4896,-3490.4999"/>
<path content="AP030,1,28,1,0,15,1,8,JPN" xlink:title="AP030" d="M13580.3192,-3492.8993L13580.2505,-3492.3325L13580.2505,-3491.7374L13580.2795,-3491.6176L13580.3543,-3491.312L13580.5435,-3490.9515L13580.9692,-3490.3866"/>
<path content="AP030,1,28,1,0,14,1,8,JPN" xlink:title="AP030" d="M13578.4698,-3490.7867L13578.6301,-3490.7665L13578.8605,-3490.6399L13579.2404,-3490.4064L13579.3793,-3490.353L13579.5807,-3490.3198L13579.8096,-3490.3332L13580.5206,-3490.4064L13580.5664,-3490.4064L13580.722,-3490.4064L13580.8304,-3490.4064L13580.9692,-3490.3866"/>
<path content="AP030,1,28,1,0,16,1,8,JPN" xlink:title="AP030" d="M13578.4698,-3490.7867L13578.7399,-3490.6399L13579.1794,-3490.3866L13579.4296,-3490.2798L13579.6799,-3490.2599L13580.1804,-3490.3L13580.5832,-3490.3442L13580.7373,-3490.361L13580.9692,-3490.3866"/>
<path content="AP030,1,28,1,0,15,1,8,JPN" xlink:title="AP030" d="M13571.8369,-3490.0372L13572.8775,-3490.9355L13573.4634,-3491.6241L13574.4705,-3492.6399"/>
<path content="AP030,1,28,1,0,14,1,8,JPN" xlink:title="AP030" d="M13574.4705,-3492.6399L13574.4705,-3492.44L13574.4507,-3492.0418L13574.4293,-3491.6332L13574.4003,-3491.2331L13574.3805,-3490.4266L13574.3805,-3490.1733L13574.3607,-3489.7598"/>
<path content="AP030,1,28,1,0,14,1,8,JPN" xlink:title="AP030" d="M13574.3607,-3489.7598L13574.6994,-3489.7198L13574.9695,-3489.7064"/>
<path content="AP030,1,28,1,0,15,1,8,JPN" xlink:title="AP030" d="M13580.9692,-3490.3866L13580.9906,-3489.7873L13580.7388,-3489.5634L13580.3146,-3489.1884"/>
<path content="AP030,1,28,1,0,15,1,8,JPN" xlink:title="AP030" d="M13570.3125,-3488.6187L13570.314,-3488.6204L13570.427,-3488.8058"/>
<path content="AP030,1,28,1,0,15,1,8,JPN" xlink:title="AP030" d="M13570.3125,-3487.8814L13570.5322,-3487.8708"/>
<path content="AP030,1,28,1,0,14,1,8,JPN" xlink:title="AP030" d="M13573.1522,-3487.4866L13573.6801,-3488.0131L13573.7701,-3488.1199L13574.2905,-3488.8199L13574.3301,-3488.9866L13574.3301,-3489.1068L13574.3607,-3489.4131L13574.3607,-3489.7598"/>
<path content="AP030,1,28,1,0,15,1,8,JPN" xlink:title="AP030" d="M13571.8369,-3490.0372L13571.8719,-3488.9934"/>
<path content="AP030,1,28,1,0,15,1,8,JPN" xlink:title="AP030" d="M13603.2623,-3493.8011L13602.0706,-3492.4084L13601.3901,-3491.7816L13601.0498,-3491.4333L13601.0498,-3490.807L13601.8158,-3490.041L13601.9852,-3489.4836L13601.9852,-3488.718L13601.9852,-3488.2305L13602.3254,-3487.743L13603.6865,-3487.6736L13604.3304,-3487.36"/>
<path content="AP030,1,28,1,0,14,1,8,JPN" xlink:title="AP030" d="M13604.3304,-3487.36L13604.4907,-3487.3466L13604.8096,-3487.413L13604.9698,-3487.4001L13605.1102,-3487.4001L13605.3604,-3487.4332L13605.4688,-3487.5556"/>
<path content="AP030,1,28,1,0,14,1,8,JPN" xlink:title="AP030" d="M13573.1522,-3487.4866L13572.9507,-3487.0731"/>
<path content="AP030,1,28,1,0,15,1,8,JPN" xlink:title="AP030" d="M13570.5322,-3487.8708L13571.4294,-3487.8269L13572.0963,-3487.6095L13572.9507,-3487.0731"/>
<path content="AP030,1,28,1,0,15,1,8,JPN" xlink:title="AP030" d="M13578.4698,-3490.7867L13578.1937,-3489.7743L13578.1723,-3489.6969L13577.9739,-3488.5136L13577.9297,-3488.2519L13577.8519,-3486.9869"/>
<path content="AP030,1,28,1,0,15,1,8,JPN" xlink:title="AP030" d="M13576.1993,-3486.8931L13577.5665,-3486.9709L13577.8519,-3486.9869"/>
<path content="AP030,1,28,1,0,14,1,8,JPN" xlink:title="AP030" d="M13576.4496,-3490.4064L13576.3992,-3489.2532L13576.3596,-3488.8397L13576.3596,-3488.7665L13576.3306,-3488.6799L13576.2894,-3488.3732L13576.2695,-3487.7068L13576.2207,-3487.4332L13576.1993,-3487.1666L13576.1993,-3486.8931"/>
<path content="AP030,1,28,1,0,15,1,8,JPN" xlink:title="AP030" d="M13573.1522,-3487.4866L13574.6502,-3486.917"/>
<path content="AP030,1,28,1,0,14,1,8,JPN" xlink:title="AP030" d="M13604.3304,-3487.36L13604.2007,-3487.2532L13604.0604,-3486.9999L13603.9001,-3486.8"/>
<path content="AP030,1,28,1,0,15,1,8,JPN" xlink:title="AP030" d="M13583.9203,-3486.4098L13584.7168,-3486.4948L13585.0632,-3487.0617L13585.3394,-3487.6568L13585.8246,-3487.8551L13586.412,-3487.8834L13586.8286,-3488.1668L13586.8286,-3488.6204L13586.8286,-3489.4421L13586.8286,-3490.292L13587.0361,-3490.7738L13587.175,-3491.1987"/>
<path content="AP030,1,28,1,0,15,1,8,JPN" xlink:title="AP030" d="M13580.3146,-3489.1884L13582.2922,-3487.4866L13582.8812,-3486.8347L13583.3664,-3486.4666L13583.9203,-3486.4098"/>
<path content="AP030,1,28,1,0,14,1,8,JPN" xlink:title="AP030" d="M13592.3599,-3491.7198L13592.4301,-3491.74L13592.5201,-3491.7599L13592.5598,-3491.74L13592.5797,-3491.7198L13592.6102,-3491.6664L13592.7002,-3491.5932L13592.8802,-3491.4333L13592.9306,-3491.3467L13592.9703,-3491.18L13593.0206,-3491.1465L13593.0801,-3491.1266L13593.2693,-3491.1266L13593.2907,-3491.1064L13593.2907,-3491L13593.4006,-3490.7467L13593.4906,-3490.6399L13593.5806,-3490.5865L13593.6493,-3490.5666L13593.9301,-3490.6399L13594.0201,-3490.6597L13594.0796,-3490.6399L13594.2902,-3490.5666L13594.4504,-3490.5331L13594.5206,-3490.5331L13594.7205,-3490.62L13594.7693,-3490.62L13594.8303,-3490.5666L13595.0607,-3490.6067L13595.1096,-3490.5865L13595.1797,-3490.5533L13595.1797,-3490.4999L13595.1096,-3490.3332L13595.0607,-3490.2466L13595.0806,-3490.1531L13595.0607,-3490.0997L13594.8807,-3489.9731L13594.8593,-3489.92L13594.8593,-3489.8666L13594.8807,-3489.8132L13594.9493,-3489.7598L13594.9905,-3489.6866L13594.9707,-3489.5798L13594.9005,-3489.4867L13594.9005,-3489.4531L13594.9295,-3489.3799L13594.9707,-3489.3265L13595.0806,-3489.2731L13595.1492,-3489.2731L13595.2393,-3489.3066L13595.3094,-3489.2864L13595.3995,-3489.233L13595.43,-3489.1666L13595.43,-3489.1068L13595.4498,-3488.9668L13595.4895,-3488.8397L13595.52,-3488.7333L13595.52,-3488.6799L13595.4697,-3488.5864L13595.4498,-3488.5532L13595.4697,-3488.4998L13595.52,-3488.3732L13595.4498,-3488.3198L13595.2896,-3488.2465L13595.1797,-3488.1931L13595.1096,-3488.1199L13595.1294,-3488.0665L13595.1797,-3488.0131L13595.3094,-3487.9932L13595.43,-3487.973L13595.52,-3487.9398L13595.6299,-3487.973L13595.7397,-3487.9398L13595.8603,-3487.8132L13595.9,-3487.7068L13595.8603,-3487.6331L13595.8603,-3487.5797L13595.9503,-3487.5267L13595.9702,-3487.4531L13595.9503,-3487.3798L13595.99,-3487.3264L13596.0403,-3487.3066L13596.1105,-3487.3264L13596.1502,-3487.413L13596.2204,-3487.4531L13596.3303,-3487.4332L13596.4005,-3487.4531L13596.4905,-3487.5599L13596.5805,-3487.5797L13596.6095,-3487.5797L13596.7697,-3487.4531L13596.8796,-3487.3798L13597.02,-3487.36L13597.0795,-3487.3466L13597.11,-3487.3066L13597.11,-3487.22L13597.1298,-3487.1468L13597.2198,-3486.9667L13597.2397,-3486.9133L13597.2198,-3486.8401L13597.1298,-3486.8198L13597.0596,-3486.8401L13597.02,-3486.8198L13597.02,-3486.7867L13597.02,-3486.7664L13596.9894,-3486.6798L13596.9696,-3486.66L13596.9696,-3486.6066L13596.9696,-3486.5334L13596.9894,-3486.4799L13597.11,-3486.3731L13597.1298,-3486.2999L13597.1497,-3486.2267L13597.11,-3486.1732L13596.8994,-3486.1"/>
<path content="AP030,1,28,1,0,14,1,8,JPN" xlink:title="AP030" d="M13571.1807,-3485.7597L13572.1497,-3486.3197L13572.4503,-3486.5334L13572.6807,-3486.713L13572.9507,-3487.0731"/>
<path content="AP030,1,28,1,0,15,1,8,JPN" xlink:title="AP030" d="M13570.5322,-3487.8708L13570.4971,-3486.6653L13570.6863,-3486.2476L13571.1807,-3485.7597"/>
<path content="AP030,1,28,1,0,14,1,8,JPN" xlink:title="AP030" d="M13603.9001,-3486.8L13603.9505,-3486.6932L13604.0604,-3486.6066L13604.2404,-3486.5868L13604.5593,-3486.4799L13604.6997,-3486.4799L13604.8599,-3486.4799L13604.9301,-3486.4597L13605.4688,-3486.1141"/>
<path content="AP030,1,28,1,0,15,1,8,JPN" xlink:title="AP030" d="M13591.2704,-3491.3799L13591.1972,-3490.6723L13591.185,-3490.2096L13591.2308,-3489.4855L13590.8173,-3489.0392L13589.3158,-3488.052L13588.9847,-3488.2362L13588.2767,-3488.0413L13587.5015,-3487.6125L13587.2238,-3486.9408L13586.9049,-3486.2675L13586.8103,-3485.6133"/>
<path content="AP030,1,28,1,0,14,1,8,JPN" xlink:title="AP030" d="M13601.8295,-3485.593L13602.1805,-3485.6667L13602.5406,-3485.8665L13602.6794,-3485.9398L13603.27,-3486.3865L13603.5599,-3486.5334L13603.6499,-3486.6066L13603.9001,-3486.8"/>
<path content="AP030,1,28,1,0,14,1,8,JPN" xlink:title="AP030" d="M13596.0602,-3485.5267L13596.08,-3485.4866L13596.1807,-3485.4668L13596.4706,-3485.5598L13596.5195,-3485.6133L13596.5805,-3485.7597L13596.6095,-3485.9734L13596.6995,-3486.0466L13596.8994,-3486.1"/>
<path content="AP030,1,28,1,0,15,1,8,JPN" xlink:title="AP030" d="M13580.3146,-3489.1884L13579.5135,-3488.2343L13579.1428,-3487.7914L13578.8914,-3487.3368L13577.8519,-3486.9869"/>
<path content="AP030,1,28,1,0,14,1,8,JPN" xlink:title="AP030" d="M13596.8994,-3486.1L13597.02,-3486.013L13597.0795,-3485.9734L13597.11,-3485.8868L13597.11,-3485.7933L13597.1497,-3485.7597L13597.2198,-3485.7399L13597.3801,-3485.6865L13597.4701,-3485.6133L13597.6501,-3485.3798L13597.6807,-3485.3466L13597.8104,-3485.1799L13597.9294,-3485.1467L13598.0194,-3485.1265L13598.1094,-3485.0731L13598.1796,-3485.0731L13598.4299,-3485.1265L13598.6496,-3485.1265L13598.7396,-3485.1467L13599.0204,-3485.2734L13599.2203,-3485.3268L13599.3805,-3485.3466L13599.4705,-3485.3466L13599.6796,-3485.4134L13599.9298,-3485.453L13600.3799,-3485.54L13600.7706,-3485.5267L13601.2695,-3485.5267L13601.6098,-3485.54L13601.8295,-3485.593"/>
<path content="AP030,1,28,1,0,15,1,8,JPN" xlink:title="AP030" d="M13583.9203,-3486.4098L13584.3231,-3485.6693L13584.8099,-3485.0399"/>
<path content="AP030,1,28,1,0,14,1,8,JPN" xlink:title="AP030" d="M13586.8103,-3485.6133L13587.0407,-3485.8131L13587.2406,-3485.9398L13587.3795,-3485.9932L13587.5397,-3485.9734L13587.7899,-3485.9734L13587.9303,-3485.9932L13588.0402,-3485.9932L13588.2004,-3485.8131L13588.2401,-3485.7933L13588.5193,-3485.7399L13588.6795,-3485.7399L13589.0198,-3485.7597L13589.1998,-3485.7597L13589.3097,-3485.7399L13589.5798,-3485.6865L13589.9002,-3485.6865L13590.0192,-3485.7399L13590.1093,-3485.7933L13590.2893,-3486.1L13590.3595,-3486.1198L13590.4495,-3486.1L13590.5197,-3485.9932L13590.6799,-3485.9734L13590.8096,-3485.9734L13591.0599,-3486.0466L13591.2399,-3486.0466L13591.2903,-3485.9932L13591.4505,-3485.7933L13591.5405,-3485.7597L13591.7404,-3485.7933L13591.8793,-3485.7933L13591.9907,-3485.7399L13592.1295,-3485.7597L13592.1997,-3485.7201L13592.2699,-3485.6533L13592.3599,-3485.5598L13592.4698,-3485.453L13592.5598,-3485.2734L13592.63,-3485.22L13592.7399,-3485.1997L13592.8604,-3485.1467L13592.9001,-3485.0933L13592.9901,-3485.0399L13593.1107,-3485.0201L13593.4006,-3485.0399L13593.5593,-3485.0731L13593.6096,-3485.0933L13593.6798,-3485.1665L13593.6798,-3485.2531L13593.6996,-3485.2734L13593.7897,-3485.2867L13593.8995,-3485.4134L13593.9697,-3485.4866L13594.1299,-3485.5801L13594.2001,-3485.5801L13594.31,-3485.5267L13594.5206,-3485.5267L13594.8105,-3485.6133L13595.0394,-3485.6133L13595.1096,-3485.5598L13595.1294,-3485.453L13595.1797,-3485.453L13595.1996,-3485.4866L13595.1996,-3485.5598L13595.2698,-3485.6133L13595.43,-3485.5801L13595.7703,-3485.6133L13595.9702,-3485.6331L13596.0602,-3485.7399L13596.1105,-3485.7067L13596.1105,-3485.6533L13596.0602,-3485.5267"/>
<path content="AP030,1,28,1,0,14,1,8,JPN" xlink:title="AP030" d="M13584.8099,-3485.0399L13585.0601,-3485.0201L13585.3302,-3484.9998L13585.7193,-3484.9998L13585.9299,-3485.0399L13585.9695,-3485.0731L13586.3297,-3485.2531L13586.38,-3485.2734L13586.6104,-3485.4L13586.8103,-3485.6133"/>
<path content="AP030,1,28,1,0,14,1,8,JPN" xlink:title="AP030" d="M13576.1993,-3486.8931L13576.2207,-3486.6066L13576.2695,-3486.3533L13576.2207,-3485.5267L13576.2207,-3485.1997L13576.1993,-3484.7668L13576.2207,-3484.66"/>
<path content="AP030,1,28,1,0,16,1,8,JPN" xlink:title="AP030" d="M13575.3098,-3483.7933L13575.4501,-3483.9397L13575.7904,-3484.193L13576.1505,-3484.5333L13576.2207,-3484.66"/>
<path content="AP030,1,28,1,0,15,1,8,JPN" xlink:title="AP030" d="M13572.9507,-3487.0731L13574.156,-3486.3458"/>
<path content="AP030,1,28,1,0,15,1,8,JPN" xlink:title="AP030" d="M13571.1807,-3485.7597L13572.1085,-3485.3008L13572.8667,-3484.9301"/>
<path content="AP030,1,28,1,0,14,1,8,JPN" xlink:title="AP030" d="M13571.1807,-3485.7597L13570.8603,-3485.5598L13570.52,-3485.3466L13570.4697,-3485.2734L13570.3125,-3484.9119"/>
<path content="AP030,1,28,1,0,15,1,8,JPN" xlink:title="AP030" d="M13596.0602,-3485.5267L13595.4803,-3484.845L13595.4926,-3483.9874L13595.2347,-3482.6294"/>
<path content="AP030,1,28,1,0,14,1,8,JPN" xlink:title="AP030" d="M13579.4907,-3482.1533L13580.04,-3482.1934L13580.4504,-3482.2338L13580.5801,-3482.2468L13580.7007,-3482.32L13580.8594,-3482.3868L13581.1096,-3482.5867L13581.1096,-3482.6797L13581.2195,-3482.8197L13581.3797,-3482.9666L13581.5796,-3483.0532L13581.7398,-3483.1066L13582.0404,-3483.1665L13582.0801,-3483.1799L13582.1793,-3483.2535L13582.2403,-3483.2733L13582.3593,-3483.2867L13582.4493,-3483.3599L13582.7393,-3483.6132L13582.8598,-3483.7601L13582.9498,-3483.8131L13583.2703,-3483.9733L13583.5403,-3484.1534L13583.7692,-3484.28L13583.9493,-3484.2999L13584.0607,-3484.333L13584.52,-3484.6798L13584.5795,-3484.7332L13584.7,-3484.8732L13584.8099,-3485.0399"/>
<path content="AP030,1,28,1,0,14,1,8,JPN" xlink:title="AP030" d="M13576.2207,-3484.66L13576.4893,-3484.66L13576.9897,-3484.66L13577.2339,-3484.663L13578.5202,-3484.6798"/>
<path content="AP030,1,28,1,0,15,1,8,JPN" xlink:title="AP030" d="M13595.2347,-3482.6294L13595.9793,-3482.0194L13596.5897,-3481.9637L13597.0642,-3482.2411L13597.673,-3482.4074L13598.6221,-3482.4074L13599.0967,-3482.4074L13599.2996,-3482.7957L13599.7742,-3483.1841L13599.9771,-3483.4057L13600.9262,-3483.9046L13601.8066,-3484.4036L13601.9424,-3484.8476L13601.8295,-3485.593"/>
<path content="AP030,1,28,1,0,14,1,8,JPN" xlink:title="AP030" d="M13577.0599,-3481.3801L13577.2858,-3481.3866L13577.42,-3481.3904L13578.1998,-3481.4133L13578.3096,-3481.4533L13578.8605,-3481.76L13579.0405,-3481.8665L13579.4907,-3482.1533"/>
<path content="AP030,1,28,1,0,15,1,8,JPN" xlink:title="AP030" d="M13575.3098,-3483.7933L13576.062,-3482.4657L13576.2833,-3482.074L13577.0599,-3481.3801"/>
<path content="AP030,1,28,1,0,15,1,8,JPN" xlink:title="AP030" d="M13570.3125,-3483.0132L13570.3522,-3482.9823L13571.0602,-3482.5424L13571.1914,-3482.3837L13571.6507,-3481.8283L13571.7224,-3481.562L13571.1502,-3481.2733"/>
<path content="AP030,1,28,1,0,14,1,8,JPN" xlink:title="AP030" d="M13575.3098,-3480.9132L13575.56,-3481.1466L13575.7202,-3481.2L13575.8606,-3481.2332L13576.1307,-3481.3065L13577.0599,-3481.3801"/>
<path content="AP030,1,28,1,0,16,1,8,JPN" xlink:title="AP030" d="M13575.3098,-3483.7933L13575.0793,-3483.5598L13574.9695,-3483.3797L13574.8795,-3483.2199L13574.8795,-3483.1066L13574.8795,-3483.0399L13574.9496,-3482.8732L13575.0198,-3482.7133L13575.0595,-3482.5134L13575.0198,-3482.0133L13575.0397,-3481.6132L13575.0595,-3481.4533L13575.1297,-3481.2866L13575.2197,-3481.0398L13575.3098,-3480.9132"/>
<path content="AP030,1,28,1,0,14,1,8,JPN" xlink:title="AP030" d="M13570.3125,-3480.8744L13570.6299,-3480.9666L13570.99,-3481.2L13571.1502,-3481.2733"/>
<path content="AP030,1,28,1,0,14,1,8,JPN" xlink:title="AP030" d="M13579.4907,-3482.1533L13579.5807,-3482.0465L13579.8096,-3481.8333L13580.2399,-3481.4865L13580.4703,-3481.2534L13580.5801,-3481.02L13580.6107,-3480.7865L13580.6107,-3480.7331L13580.5603,-3480.4798L13580.5541,-3480.4688"/>
<path content="AP030,1,28,1,0,14,1,8,JPN" xlink:title="AP030" d="M13574.7442,-3480.4688L13574.8795,-3480.6065L13575.1495,-3480.7865L13575.3098,-3480.9132"/>
<path content="AP030,1,28,1,0,14,1,8,JPN" xlink:title="AP030" d="M13571.1502,-3481.2733L13571.3104,-3481.2733L13571.7896,-3481.2332L13571.8597,-3481.2L13572.0596,-3481.0398"/>
<path content="AP030,1,28,1,0,15,1,8,JPN" xlink:title="AP030" d="M13577.0599,-3481.3801L13577.648,-3480.4687"/>
<path content="AP030,1,28,1,0,16,1,8,JPN" xlink:title="AP030" d="M13575.3098,-3480.9132L13575.4898,-3480.6934L13575.5798,-3480.5L13575.5885,-3480.4688"/>
<path content="AP030,1,28,1,0,15,1,8,JPN" xlink:title="AP030" d="M13591.4303,-3480.4688L13591.983,-3481.0211L13592.3889,-3481.0764L13592.5247,-3481.4095L13592.7963,-3482.0747L13593.2022,-3482.1857L13593.7439,-3482.1857L13594.0155,-3482.4074L13594.2856,-3482.7957L13594.7601,-3482.851L13595.2347,-3482.6294"/>
<path content="AP030,1,28,1,0,15,1,8,JPN" xlink:title="AP030" d="M13584.8099,-3485.0399L13585.4752,-3484.161L13586.0641,-3483.691L13587.2894,-3483.3138L13588.7329,-3482.6157L13589.0533,-3481.9691L13589.2456,-3481.4491L13589.1556,-3480.9505L13589.6057,-3480.8044L13589.92,-3480.8838L13590.1383,-3480.4688"/>
<path content="AP030,1,28,1,0,14,1,8,JPN" xlink:title="AP030" d="M13575.0198,-3495.4865L13575.083,-3494.6993"/>
<path content="AP030,1,28,1,0,14,1,8,JPN" xlink:title="AP030" d="M13603.4698,-3512.553L13603.5202,-3512.4798L13603.4897,-3512.2601L13603.5202,-3512.2066L13603.7903,-3512.0132L13604.0207,-3511.7397L13604.0802,-3511.6665L13604.4296,-3511.5067L13604.6097,-3511.4532L13605.3604,-3511.0199L13605.4688,-3510.9526"/>
<path content="AP030,1,28,1,0,14,1,8,JPN" xlink:title="AP030" d="M13578.5202,-3484.6798L13578.5797,-3484.4601L13578.6499,-3484.3201L13578.7704,-3484.1331L13578.9703,-3483.8665L13579.2007,-3483.5068L13579.3594,-3482.8197L13579.4495,-3482.5134L13579.4693,-3482.2266L13579.4907,-3482.1533"/>
<path content="AP030,1,28,1,0,15,1,8,JPN" xlink:title="AP030" d="M13577.8519,-3486.9869L13577.7269,-3485.3602L13578.5202,-3484.6798"/>
<path content="AP030,1,28,1,0,16,1,8,JPN" xlink:title="AP030" d="M13575.0198,-3495.4865L13575.3098,-3495.5799L13575.6104,-3495.5925L13575.6302,-3495.5933L13576.0818,-3495.5933"/>
<path content="AP030,1,28,1,0,14,1,8,JPN" xlink:title="AP030" d="M13572.0596,-3481.0398L13572.2,-3480.9132L13572.2,-3480.7999L13572.3297,-3480.7331L13572.4899,-3480.6198L13572.6807,-3480.5332L13572.9184,-3480.4688"/>
<path content="AP030,1,28,1,0,14,1,8,JPN" xlink:title="AP030" d="M13575.083,-3494.6993L13574.9674,-3493.3616"/>
<path content="AP030,1,28,1,0,15,1,8,JPN" xlink:title="AP030" d="M13575.083,-3494.6993L13576.1307,-3493.6077"/>
<path content="AP030,1,28,1,0,15,1,8,JPN" xlink:title="AP030" d="M13574.9674,-3493.3616L13575.6104,-3493.5017L13576.1307,-3493.6077"/>
<path content="AP030,1,28,1,0,14,1,8,JPN" xlink:title="AP030" d="M13574.9674,-3493.3616L13574.9695,-3489.7064"/>
<path content="AP030,1,28,1,0,14,1,8,JPN" xlink:title="AP030" d="M13574.9695,-3489.7064L13575.1099,-3489.74L13575.3296,-3489.8464L13576.4496,-3490.4064"/>
<path content="AP030,1,28,1,0,14,1,8,JPN" xlink:title="AP030" d="M13574.9695,-3489.7064L13575.0223,-3487.4238L13574.6502,-3486.917"/>
<path content="AP030,1,28,1,0,14,1,8,JPN" xlink:title="AP030" d="M13570.427,-3488.8058L13571.1204,-3488.7829L13571.8719,-3488.9934"/>
<path content="AP030,1,28,1,0,15,1,8,JPN" xlink:title="AP030" d="M13570.427,-3488.8058L13570.4865,-3488.9034L13570.6924,-3489.0755L13571.8369,-3490.0372"/>
<path content="AP030,1,28,1,0,15,1,8,JPN" xlink:title="AP030" d="M13571.8719,-3488.9934L13571.8719,-3488.4785L13572.1146,-3488.0535L13573.1522,-3487.4866"/>
<path content="AP030,1,28,1,0,14,1,8,JPN" xlink:title="AP030" d="M13571.8719,-3488.9934L13573.2117,-3489.6671L13574.3607,-3489.7598"/>
<path content="AP030,1,28,1,0,15,1,8,JPN" xlink:title="AP030" d="M13574.6502,-3486.917L13576.1993,-3486.8931"/>
<path content="AP030,1,28,1,0,14,1,8,JPN" xlink:title="AP030" d="M13574.6502,-3486.917L13574.156,-3486.3458"/>
<path content="AP030,1,28,1,0,14,1,8,JPN" xlink:title="AP030" d="M13570.3125,-3488.8923L13570.427,-3488.8058"/>
<path content="AP030,1,28,1,0,15,1,8,JPN" xlink:title="AP030" d="M13574.156,-3486.3458L13574.4659,-3485.8517L13574.5895,-3484.7584L13575.3098,-3483.7933"/>
<path content="AP030,1,28,1,0,14,1,8,JPN" xlink:title="AP030" d="M13574.156,-3486.3458L13572.8667,-3484.9301"/>
<path content="AP030,1,28,1,0,14,1,8,JPN" xlink:title="AP030" d="M13572.8667,-3484.9301L13572.5448,-3483.3018L13572.0596,-3481.0398"/>
<path content="AP030,1,28,1,0,15,1,8,JPN" xlink:title="AP030" d="M13572.8667,-3484.9301L13573.0289,-3484.8508L13573.4558,-3484.642L13574.6078,-3484.0416L13575.3098,-3483.7933"/>
</g>
</svg>
