<?xml version="1.0" encoding="UTF-8"?>
<svg  xmlns="http://www.w3.org/2000/svg" xmlns:xlink="http://www.w3.org/1999/xlink" xmlns:go="http://purl.org/svgmap/profile" property="f_code,acc,exs,rst,med,rtt,RSU,loc,soc" viewBox="13921.875 -3585.9375 35.15625 35.15625" go:dataArea="13921.875 -3585.9375 35.15625 35.15625" >
<metadata>
 <rdf:RDF xmlns:rdf="http://www.w3.org/1999/02/22-rdf-syntax-ns#" xmlns:crs="http://opengis.org/xmldtds/transformations.dtd" xmlns:svg="http://www.w3.org/svg" >
  <rdf:Description>
   <crs:CoordinateReferenceSystem rdf:resource="http://purl.org/crs/84" svg:transform="matrix(100.0,0.0,0.0,-100.0,0.0,0.0)" />
  </rdf:Description>
 </rdf:RDF>
</metadata>
<globalCoordinateSystem srsName="http://purl.org/crs/84" transform="matrix(100.0,0.0,0.0,-100.0,0.0,0.0)" />
<defs>
 <g id="p0" >
  <circle cx="0.0" cy="0.0" r="3" stroke="green" stroke-width="2.0" vector-effect="non-scaling-stroke" />
 </g>
</defs>
<g fill="none" fill-rule="evenodd" stroke="#00ff00" stroke-width="2" opacity="0.5" vector-effect="non-scaling-stroke" stroke-linejoin="bevel" >
<path content="AP030,1,28,1,0,14,1,8,JPN" xlink:title="AP030" d="M13931.521,-3585.9375L13931.5796,-3585.7933"/>
<path content="AP030,1,28,1,0,14,1,8,JPN" xlink:title="AP030" d="M13937.9834,-3585.9375L13938.0203,-3585.8334L13938.0798,-3585.593"/>
<path content="AP030,1,28,1,0,15,1,8,JPN" xlink:title="AP030" d="M13930.9481,-3585.5466L13931.5796,-3585.7933"/>
<path content="AP030,1,28,1,0,15,1,8,JPN" xlink:title="AP030" d="M13949.9893,-3585.3065L13951.0607,-3585.9375"/>
<path content="AP030,1,28,1,0,16,1,8,JPN" xlink:title="AP030" d="M13949.3117,-3585.9375L13949.5193,-3585.7933L13949.8093,-3585.5598L13949.9893,-3585.3065"/>
<path content="AP030,1,28,1,0,15,1,8,JPN" xlink:title="AP030" d="M13930.2946,-3585.9375L13930.9481,-3585.5466"/>
<path content="AP030,1,28,1,0,16,1,8,JPN" xlink:title="AP030" d="M13955.0308,-3585.9375L13955.13,-3585.7933L13955.2902,-3585.6533L13955.6305,-3585.5064L13956.3797,-3585.2734L13956.4697,-3585.2333L13956.7001,-3585.1467L13957.0206,-3584.9865L13957.0312,-3584.9802"/>
<path content="AP030,1,28,1,0,16,1,8,JPN" xlink:title="AP030" d="M13949.9893,-3585.3065L13950.1801,-3584.9667L13950.2701,-3584.66"/>
<path content="AP030,1,28,1,0,14,1,8,JPN" xlink:title="AP030" d="M13936.6531,-3584.6455L13936.7905,-3584.6931L13937.3093,-3585.0933L13937.4695,-3585.22L13937.8098,-3585.4668L13937.9501,-3585.5598L13938.0798,-3585.593"/>
<path content="AP030,1,28,1,0,16,1,8,JPN" xlink:title="AP030" d="M13937.4884,-3585.9375L13937.3993,-3585.8467L13936.9507,-3585.4668L13936.6806,-3585.22L13936.5799,-3585.0933L13936.5601,-3584.9464L13936.5601,-3584.8L13936.6531,-3584.6455"/>
<path content="AP030,1,28,1,0,14,1,8,JPN" xlink:title="AP030" d="M13936.5402,-3584.6066L13936.6531,-3584.6455"/>
<path content="AP030,1,28,1,0,14,1,8,JPN" xlink:title="AP030" d="M13933.838,-3585.9375L13934.7397,-3585.7933L13935.3806,-3585.6865L13935.7193,-3585.5267L13935.9299,-3585.3065L13936.5402,-3584.6066"/>
<path content="AP030,1,28,1,0,14,1,8,JPN" xlink:title="AP030" d="M13931.5796,-3585.7933L13931.81,-3585.7731L13932.0206,-3585.7399L13932.1503,-3585.6533L13932.1304,-3585.4866L13932.1106,-3585.3466L13932.0801,-3585.22L13932.4295,-3585.1067L13932.5638,-3585.062L13932.6294,-3585.0399L13932.6797,-3585.0311L13932.8598,-3584.9998L13933.0399,-3584.9667L13933.3298,-3584.9133L13933.49,-3584.8198L13933.5403,-3584.8L13934.1507,-3584.5333L13934.7,-3584.5531L13935.4507,-3584.5867L13935.5194,-3584.5867L13935.8307,-3584.5867L13936.4304,-3584.5665L13936.5402,-3584.6066"/>
<path content="AP030,1,28,1,0,14,1,8,JPN" xlink:title="AP030" d="M13938.6505,-3584.28L13938.7695,-3584.3864L13939.1495,-3584.7668L13939.2899,-3584.8598L13939.6805,-3585.0933L13939.8102,-3585.1799L13939.9002,-3585.2531L13939.9506,-3585.3065L13940.0803,-3585.453L13940.4297,-3585.8334L13940.5178,-3585.9375"/>
<path content="AP030,1,28,1,0,14,1,8,JPN" xlink:title="AP030" d="M13938.0798,-3585.593L13938.3301,-3585.0399L13938.3606,-3584.9865L13938.3606,-3584.893L13938.3301,-3584.4067L13938.4903,-3584.3731L13938.6505,-3584.2999L13938.6505,-3584.28"/>
<path content="AP030,1,28,1,0,14,1,8,JPN" xlink:title="AP030" d="M13951.2782,-3585.9375L13951.4694,-3585.593L13951.5594,-3585.4L13951.8097,-3584.8198L13951.8295,-3584.7668L13951.9897,-3584.4997L13952.2903,-3584.1198L13952.4307,-3583.9733L13952.4704,-3583.9199L13952.7206,-3583.7067L13952.8305,-3583.58L13952.8793,-3583.5068"/>
<path content="AP030,1,28,1,0,16,1,8,JPN" xlink:title="AP030" d="M13936.6531,-3584.6455L13936.7004,-3584.5665L13937.1078,-3583.8608L13937.2192,-3583.6666L13937.2696,-3583.54L13937.2894,-3583.4126"/>
<path content="AP030,1,28,1,0,14,1,8,JPN" xlink:title="AP030" d="M13936.5402,-3584.6066L13937.0239,-3583.8345L13937.2894,-3583.4126"/>
<path content="AP030,1,28,1,0,16,1,8,JPN" xlink:title="AP030" d="M13937.2894,-3583.4126L13937.3093,-3583.2199"/>
<path content="AP030,1,28,1,0,15,1,8,JPN" xlink:title="AP030" d="M13951.4191,-3582.5665L13951.6357,-3582.6935L13952.8793,-3583.5068"/>
<path content="AP030,1,28,1,0,16,1,8,JPN" xlink:title="AP030" d="M13950.2701,-3584.66L13950.3098,-3584.4799L13950.3601,-3584.1732L13950.3998,-3583.8131L13950.4898,-3583.58L13950.7004,-3583.2733L13950.9003,-3583.02L13951.1505,-3582.7866L13951.4191,-3582.5665"/>
<path content="AP030,1,28,1,0,15,1,8,JPN" xlink:title="AP030" d="M13929.129,-3582.5489L13929.129,-3583.1989L13929.2175,-3584.2827L13929.747,-3585.0773L13930.9481,-3585.5466"/>
<path content="AP030,1,28,1,0,14,1,8,JPN" xlink:title="AP030" d="M13937.8799,-3582.2598L13938.0798,-3582.5001L13938.0798,-3582.5333L13938.0798,-3582.6065L13938.0402,-3582.8197L13937.97,-3583.1665L13937.97,-3583.3267L13938.0203,-3583.4667L13938.1104,-3583.6666L13938.2401,-3583.9001L13938.5071,-3584.1568L13938.5803,-3584.2266L13938.6505,-3584.28"/>
<path content="AP030,1,28,1,0,14,1,8,JPN" xlink:title="AP030" d="M13937.2894,-3583.4126L13937.3306,-3583.3466L13937.4298,-3583.2333L13937.4496,-3583.1066L13937.5198,-3582.6599L13937.5595,-3582.5333L13937.6801,-3582.4066L13937.8601,-3582.28L13937.8799,-3582.2598"/>
<path content="AP030,1,28,1,0,15,1,8,JPN" xlink:title="AP030" d="M13956.8436,-3581.5376L13957.0312,-3581.7254"/>
<path content="AP030,1,28,1,0,14,1,8,JPN" xlink:title="AP030" d="M13954.6295,-3581.4533L13954.6799,-3581.4667L13954.7195,-3581.5266L13955.3604,-3582.84L13955.4504,-3582.9468L13955.7693,-3583.2733L13955.8426,-3583.3244L13955.9494,-3583.4L13955.9906,-3583.4332L13956.3995,-3583.72L13956.9,-3584.1732L13956.9504,-3584.2464L13957.0312,-3584.3242"/>
<path content="AP030,1,28,1,0,14,1,8,JPN" xlink:title="AP030" d="M13952.8793,-3583.5068L13953.1799,-3583.1799L13953.2394,-3583.1066L13953.3798,-3582.8934L13953.5202,-3582.6065L13953.6102,-3582.5134L13953.8803,-3582.2468L13953.9505,-3582.1732L13954.0604,-3582.0465L13954.3594,-3581.8134L13954.4495,-3581.72L13954.6295,-3581.4533"/>
<path content="AP030,1,28,1,0,14,1,8,JPN" xlink:title="AP030" d="M13952.9007,-3581.0162L13953.36,-3581.0734L13953.9902,-3581.1466L13954.2206,-3581.2332L13954.6295,-3581.4533"/>
<path content="AP030,1,28,1,0,16,1,8,JPN" xlink:title="AP030" d="M13951.4191,-3582.5665L13951.7197,-3582.32L13952.0599,-3582.0801L13952.3102,-3581.8466L13952.6093,-3581.4865L13952.8595,-3581.0734L13952.9007,-3581.0162"/>
<path content="AP030,1,28,1,0,14,1,8,JPN" xlink:title="AP030" d="M13954.6295,-3581.4533L13954.6799,-3581.3599L13954.8096,-3581.2332L13954.8798,-3581.0734L13954.95,-3580.9132L13955.0201,-3580.7331"/>
<path content="AP030,1,28,1,0,15,1,8,JPN" xlink:title="AP030" d="M13926.3046,-3580.5984L13927.3636,-3581.6818L13928.0701,-3582.2598L13929.129,-3582.5489"/>
<path content="AP030,1,28,1,0,15,1,8,JPN" xlink:title="AP030" d="M13921.875,-3583.2845L13922.2443,-3582.9823L13922.6852,-3582.9102L13923.6572,-3582.9102L13924.4507,-3582.7656L13924.4507,-3582.1877L13924.2752,-3581.7543L13924.5392,-3580.9597L13925.7751,-3580.7426L13926.3046,-3580.5984"/>
<path content="AP030,1,28,1,0,15,1,8,JPN" xlink:title="AP030" d="M13955.22,-3580.4398L13956.8436,-3581.5376"/>
<path content="AP030,1,28,1,0,14,1,8,JPN" xlink:title="AP030" d="M13955.0201,-3580.7331L13955.13,-3580.5534L13955.22,-3580.4398"/>
<path content="AP030,1,28,1,0,15,1,8,JPN" xlink:title="AP030" d="M13940.7395,-3585.9375L13941.362,-3585.4141L13942.1921,-3584.716L13943.692,-3582.9823L13944.3008,-3581.7989L13944.3985,-3581.6097L13944.4504,-3580.2467"/>
<path content="AP030,1,28,1,0,14,1,8,JPN" xlink:title="AP030" d="M13938.6505,-3584.28L13938.6703,-3584.1022L13938.6795,-3584.0267L13938.6795,-3583.9931L13938.6795,-3583.8467L13938.6795,-3583.7601L13938.7207,-3583.5934L13938.6795,-3583.5068L13939.0793,-3583.4866L13939.1998,-3583.4866L13939.5203,-3583.4332L13939.6301,-3583.4133L13939.74,-3583.4133L13940.5396,-3582.9666L13940.7196,-3582.8598L13940.86,-3582.7866L13940.95,-3582.7133L13941.0202,-3582.6065L13941.0599,-3582.46L13941.0599,-3582.4265L13941.301,-3582.262L13941.4307,-3582.1732L13941.6504,-3581.9733L13941.9006,-3581.72L13942.1295,-3581.5598L13942.1997,-3581.5266L13942.9001,-3581.1665L13943.0603,-3581.0932L13943.5806,-3580.8399L13943.7698,-3580.6934L13943.9896,-3580.5534L13944.2703,-3580.3532L13944.4504,-3580.2467"/>
<path content="AP030,1,28,1,0,15,1,8,JPN" xlink:title="AP030" d="M13930.9677,-3580.1723L13932.1487,-3581.2511L13932.6691,-3581.4514L13934.6863,-3582.2262L13937.3093,-3583.2199"/>
<path content="AP030,1,28,1,0,15,1,8,JPN" xlink:title="AP030" d="M13929.129,-3582.5489L13929.6814,-3581.6658L13930.9677,-3580.1723"/>
<path content="AP030,1,28,1,0,14,1,8,JPN" xlink:title="AP030" d="M13937.2406,-3580.08L13937.6099,-3580.2998L13937.7701,-3580.4268L13937.8098,-3580.5534L13937.8098,-3580.7133L13937.8098,-3580.8735L13937.7396,-3581.1798L13937.6495,-3581.5399L13937.5793,-3581.76L13937.5793,-3581.8665L13937.6297,-3581.9733L13937.8799,-3582.2598"/>
<path content="AP030,1,28,1,0,14,1,8,JPN" xlink:title="AP030" d="M13955.22,-3580.4398L13955.3864,-3580.3379L13955.8304,-3580.0667"/>
<path content="AP030,1,28,1,0,15,1,8,JPN" xlink:title="AP030" d="M13955.8594,-3580.0465L13956.2607,-3580.4165L13956.6742,-3580.7964L13956.8436,-3581.5376"/>
<path content="AP030,1,28,1,0,14,1,8,JPN" xlink:title="AP030" d="M13955.8304,-3580.0667L13955.8594,-3580.0465"/>
<path content="AP030,1,28,1,0,15,1,8,JPN" xlink:title="AP030" d="M13953.9063,-3579.9923L13953.9871,-3580.0377L13954.4601,-3580.3093L13955.0201,-3580.7331"/>
<path content="AP030,1,28,1,0,16,1,8,JPN" xlink:title="AP030" d="M13952.9007,-3581.0162L13953.0396,-3580.8201L13953.0807,-3580.7667L13953.27,-3580.5668L13953.8101,-3580.0999L13953.8864,-3580.0156L13953.9063,-3579.9923"/>
<path content="AP030,1,28,1,0,14,1,8,JPN" xlink:title="AP030" d="M13948.8998,-3579.8332L13949.2905,-3579.8866L13949.7406,-3579.94L13950.1297,-3580.0999L13950.65,-3580.3532L13950.7004,-3580.3734L13950.8804,-3580.4398L13951.1093,-3580.6599L13951.2207,-3580.7667L13951.3596,-3580.8399L13951.5396,-3580.8735L13952.1301,-3580.9265L13952.1805,-3580.9265L13952.9007,-3581.0162"/>
<path content="AP030,1,28,1,0,15,1,8,JPN" xlink:title="AP030" d="M13948.8998,-3579.8332L13949.1653,-3580.6705L13949.5178,-3581.2485L13950.3998,-3581.971L13951.4191,-3582.5665"/>
<path content="AP030,1,28,1,0,15,1,8,JPN" xlink:title="AP030" d="M13930.9677,-3580.1723L13931.8884,-3579.8011"/>
<path content="AP030,1,28,1,0,16,1,8,JPN" xlink:title="AP030" d="M13931.9287,-3579.723L13932.3303,-3579.94L13932.6996,-3580.08L13933.2184,-3580.2906L13933.2901,-3580.32L13933.8303,-3580.64L13934.1507,-3580.7465L13934.3994,-3580.7999L13934.9304,-3580.7865L13935.2005,-3580.7999L13935.3806,-3580.8598L13935.5392,-3580.9467L13935.8093,-3581.1268L13935.9894,-3581.2733L13936.1099,-3581.3599L13936.3098,-3581.4133L13936.47,-3581.4865L13936.6806,-3581.6334L13936.8301,-3581.7398L13936.9293,-3581.8134L13937.0407,-3581.9L13937.2406,-3582.1533L13937.3093,-3582.3734L13937.3306,-3582.5535L13937.3596,-3582.7866L13937.3093,-3583.2199"/>
<path content="AP030,1,28,1,0,15,1,8,JPN" xlink:title="AP030" d="M13931.8884,-3579.8011L13931.9287,-3579.723"/>
<path content="AP030,1,28,1,0,14,1,8,JPN" xlink:title="AP030" d="M13948.0392,-3579.6333L13948.7701,-3579.8134L13948.8998,-3579.8332"/>
<path content="AP030,1,28,1,0,15,1,8,JPN" xlink:title="AP030" d="M13950.2701,-3584.66L13949.7513,-3584.058L13949.9176,-3583.2432L13950.4807,-3582.637L13949.0875,-3581.966L13948.0972,-3581.3408L13948.0392,-3579.6333"/>
<path content="AP030,1,28,1,0,14,1,8,JPN" xlink:title="AP030" d="M13947.9507,-3579.6131L13948.0392,-3579.6333"/>
<path content="AP030,1,28,1,0,15,1,8,JPN" xlink:title="AP030" d="M13947.3519,-3585.9375L13947.0459,-3584.7885L13947.0459,-3583.416L13947.0459,-3581.8989L13946.0754,-3580.6705L13945.9641,-3580.3173L13945.7199,-3579.5399"/>
<path content="AP030,1,28,1,0,14,1,8,JPN" xlink:title="AP030" d="M13944.4504,-3580.2467L13945.43,-3579.7066L13945.4697,-3579.6665L13945.7199,-3579.5399"/>
<path content="AP030,1,28,1,0,15,1,8,JPN" xlink:title="AP030" d="M13947.0795,-3579.5067L13947.9507,-3579.6131"/>
<path content="AP030,1,28,1,0,14,1,8,JPN" xlink:title="AP030" d="M13947.0795,-3579.5067L13947.1497,-3579.5265L13947.4503,-3579.5601L13947.9507,-3579.6131"/>
<path content="AP030,1,28,1,0,14,1,8,JPN" xlink:title="AP030" d="M13937.8799,-3582.2598L13938.06,-3582.1934L13938.2904,-3582.1335L13938.4903,-3582.0801L13938.6307,-3582.0133L13938.8794,-3581.7734L13938.9496,-3581.72L13939.2197,-3581.5266L13939.5599,-3581.3267L13940.5197,-3580.9467L13940.6494,-3580.8598L13940.6799,-3580.8201L13941.2003,-3580.1731L13941.3101,-3580.0667L13941.4505,-3579.9934L13941.7694,-3579.9198L13942.0807,-3579.8466L13943.0603,-3579.6665L13943.2205,-3579.5933L13943.6096,-3579.4865"/>
<path content="AP030,1,28,1,0,14,1,8,JPN" xlink:title="AP030" d="M13945.7199,-3579.5399L13945.8099,-3579.4865L13945.9,-3579.4533L13946.1304,-3579.4865L13946.1807,-3579.4865L13946.4294,-3579.4666"/>
<path content="AP030,1,28,1,0,14,1,8,JPN" xlink:title="AP030" d="M13946.4294,-3579.4666L13946.6293,-3579.4334L13946.7896,-3579.4334L13946.9452,-3579.4727L13947.0795,-3579.5067"/>
<path content="AP030,1,28,1,0,15,1,8,JPN" xlink:title="AP030" d="M13945.8801,-3579.2332L13946.4294,-3579.4666"/>
<path content="AP030,1,28,1,0,14,1,8,JPN" xlink:title="AP030" d="M13945.7199,-3579.5399L13945.7901,-3579.3999L13945.8801,-3579.2332"/>
<path content="AP030,1,28,1,0,14,1,8,JPN" xlink:title="AP030" d="M13936.2701,-3579.1466L13936.4304,-3579.3598L13936.7706,-3579.8664L13937.1796,-3580.0465L13937.2406,-3580.08"/>
<path content="AP030,1,28,1,0,14,1,8,JPN" xlink:title="AP030" d="M13955.8594,-3580.0465L13956.3293,-3579.8466L13957.0312,-3579.571"/>
<path content="AP030,1,28,1,0,16,1,8,JPN" xlink:title="AP030" d="M13953.9063,-3579.9923L13954.0207,-3579.8664L13954.2404,-3579.5933L13954.4006,-3579.3064L13954.6097,-3579.1267"/>
<path content="AP030,1,28,1,0,16,1,8,JPN" xlink:title="AP030" d="M13930.7635,-3579.0933L13931.9287,-3579.723"/>
<path content="AP030,1,28,1,0,15,1,8,JPN" xlink:title="AP030" d="M13929.2694,-3579.0932L13929.7699,-3579.1267L13929.95,-3579.1664L13930.2902,-3579.2198L13930.3299,-3579.2332L13930.8304,-3579.3598L13931.8884,-3579.8011"/>
<path content="AP030,1,28,1,0,15,1,8,JPN" xlink:title="AP030" d="M13929.2694,-3579.0932L13930.9677,-3580.1723"/>
<path content="AP030,1,28,1,0,14,1,8,JPN" xlink:title="AP030" d="M13945.8801,-3579.2332L13945.9503,-3579.1267L13945.9702,-3579.0398"/>
<path content="AP030,1,28,1,0,14,1,8,JPN" xlink:title="AP030" d="M13943.6096,-3579.4865L13944.0399,-3579.3266L13944.2703,-3579.2198L13944.4504,-3579.1267L13944.5602,-3579.1798L13944.7006,-3579.2198L13944.8593,-3579.1798L13945.0394,-3579.0932L13945.3094,-3579.0531L13945.3995,-3579.0512L13945.9305,-3579.0398L13945.9702,-3579.0398"/>
<path content="AP030,1,28,1,0,15,1,8,JPN" xlink:title="AP030" d="M13954.8599,-3578.9665L13955.452,-3579.4418L13955.8304,-3580.0667"/>
<path content="AP030,1,28,1,0,15,1,8,JPN" xlink:title="AP030" d="M13954.6097,-3579.1267L13954.8599,-3578.9665"/>
<path content="AP030,1,28,1,0,15,1,8,JPN" xlink:title="AP030" d="M13937.2406,-3580.08L13937.9501,-3579.5742L13938.9267,-3578.7922"/>
<path content="AP030,1,28,1,0,15,1,8,JPN" xlink:title="AP030" d="M13933.5419,-3578.7201L13933.9706,-3578.7571L13935.2188,-3578.8647L13936.2701,-3579.1466"/>
<path content="AP030,1,28,1,0,15,1,8,JPN" xlink:title="AP030" d="M13928.4225,-3578.6476L13929.2694,-3579.0932"/>
<path content="AP030,1,28,1,0,15,1,8,JPN" xlink:title="AP030" d="M13926.3046,-3580.5984L13925.7751,-3579.8759L13926.6571,-3580.0205L13927.2751,-3579.8759L13927.6291,-3579.3701L13928.4225,-3578.6476"/>
<path content="AP030,1,28,1,0,15,1,8,JPN" xlink:title="AP030" d="M13925.47,-3578.9997L13926.7456,-3578.8647L13927.5406,-3578.7922L13927.9602,-3578.7235L13928.4225,-3578.6476"/>
<path content="AP030,1,28,1,0,15,1,8,JPN" xlink:title="AP030" d="M13932.4829,-3578.6476L13933.5419,-3578.7201"/>
<path content="AP030,1,28,1,0,15,1,8,JPN" xlink:title="AP030" d="M13931.9287,-3579.723L13932.4829,-3578.6476"/>
<path content="AP030,1,28,1,0,15,1,8,JPN" xlink:title="AP030" d="M13943.1625,-3578.6476L13943.6096,-3579.4865"/>
<path content="AP030,1,28,1,0,15,1,8,JPN" xlink:title="AP030" d="M13950.9308,-3578.6476L13952.7832,-3579.298L13953.5782,-3579.8038L13953.9063,-3579.9923"/>
<path content="AP030,1,28,1,0,15,1,8,JPN" xlink:title="AP030" d="M13936.8088,-3578.6407L13937.5137,-3578.7922L13938.9267,-3578.7922"/>
<path content="AP030,1,28,1,0,15,1,8,JPN" xlink:title="AP030" d="M13950.0656,-3578.6022L13950.9308,-3578.6476"/>
<path content="AP030,1,28,1,0,15,1,8,JPN" xlink:title="AP030" d="M13948.0392,-3579.6333L13950.0656,-3578.6022"/>
<path content="AP030,1,28,1,0,15,1,8,JPN" xlink:title="AP030" d="M13929.2694,-3579.0932L13929.2892,-3578.9265L13929.2892,-3578.8597L13929.2892,-3578.7865L13929.2419,-3578.6476L13929.2206,-3578.5866"/>
<path content="AP030,1,28,1,0,15,1,8,JPN" xlink:title="AP030" d="M13928.4225,-3578.6476L13929.2206,-3578.5866"/>
<path content="AP030,1,28,1,0,15,1,8,JPN" xlink:title="AP030" d="M13938.9267,-3578.7922L13939.4562,-3578.5755L13940.9088,-3578.6068L13941.33,-3578.616L13942.8101,-3578.6476L13943.1625,-3578.6476"/>
<path content="AP030,1,28,1,0,15,1,8,JPN" xlink:title="AP030" d="M13945.9702,-3579.0398L13946.6049,-3578.5755"/>
<path content="AP030,1,28,1,0,15,1,8,JPN" xlink:title="AP030" d="M13946.6049,-3578.5755L13947.29,-3578.5442L13947.348,-3578.5419L13948.1934,-3578.5034L13948.5901,-3578.5244L13950.0656,-3578.6022"/>
<path content="AP030,1,28,1,0,15,1,8,JPN" xlink:title="AP030" d="M13935.7193,-3578.4065L13936.8088,-3578.6407"/>
<path content="AP030,1,28,1,0,14,1,8,JPN" xlink:title="AP030" d="M13935.7193,-3578.4065L13936.2701,-3579.1466"/>
<path content="AP030,1,28,1,0,15,1,8,JPN" xlink:title="AP030" d="M13945.723,-3578.2867L13946.2372,-3578.455L13946.6049,-3578.5755"/>
<path content="AP030,1,28,1,0,15,1,8,JPN" xlink:title="AP030" d="M13943.1625,-3578.6476L13944.3985,-3578.6476L13944.7403,-3578.5545L13945.723,-3578.2867"/>
<path content="AP030,1,28,1,0,16,1,4,JPN" xlink:title="AP030" d="M13930.01,-3578.2468L13930.0778,-3578.3744L13930.4696,-3578.8537L13930.7635,-3579.0933"/>
<path content="AP030,1,28,1,0,15,1,8,JPN" xlink:title="AP030" d="M13929.2206,-3578.5866L13929.3945,-3578.3588L13930.01,-3578.2468"/>
<path content="AP030,1,28,1,0,14,1,8,JPN" xlink:title="AP030" d="M13925.47,-3578.9997L13925.47,-3578.8734L13925.4501,-3578.8597L13925.4303,-3578.7865L13925.2197,-3578.6934L13925.0397,-3578.6598L13924.9695,-3578.6198L13924.7894,-3578.3733L13925.1297,-3578.2066L13925.8804,-3578.2066L13926.0406,-3578.2467L13926.2405,-3578.2265L13926.3107,-3578.2066L13926.5396,-3578.12"/>
<path content="AP030,1,28,1,0,15,1,8,JPN" xlink:title="AP030" d="M13930.983,-3578.0697L13931.7764,-3578.5034L13932.4829,-3578.6476"/>
<path content="AP030,1,28,1,0,15,1,8,JPN" xlink:title="AP030" d="M13930.01,-3578.2468L13930.983,-3578.0697"/>
<path content="AP030,1,28,1,0,14,1,8,JPN" xlink:title="AP030" d="M13934.0393,-3577.94L13934.1095,-3578.0132L13934.3002,-3578.1284L13934.4299,-3578.2066L13934.6497,-3578.3333L13934.79,-3578.3733L13935.08,-3578.4397L13935.3607,-3578.4267L13935.7193,-3578.4065"/>
<path content="AP030,1,28,1,0,15,1,8,JPN" xlink:title="AP030" d="M13933.5419,-3578.7201L13934.0393,-3577.94"/>
<path content="AP030,1,28,1,0,14,1,8,JPN" xlink:title="AP030" d="M13921.875,-3580.1143L13922.0398,-3579.9534L13922.3801,-3579.6333L13922.58,-3579.5265L13922.6501,-3579.4533L13922.8607,-3579.1065L13922.8806,-3578.9467L13922.9004,-3578.9131L13922.9507,-3578.7998L13923.1094,-3578.5866L13923.2895,-3578.3531L13923.3597,-3578.2997L13923.4299,-3578.2997L13923.5794,-3578.3333L13923.6496,-3578.64L13923.88,-3578.7998L13924.1104,-3578.9467L13924.2401,-3578.9867L13924.5605,-3578.9997L13924.9496,-3579.0199L13925.2899,-3578.9997L13925.47,-3578.9997"/>
<path content="AP030,1,28,1,0,15,1,8,JPN" xlink:title="AP030" d="M13951.6296,-3577.4628L13951.944,-3577.7542L13953.9719,-3578.632L13954.6097,-3579.1267"/>
<path content="AP030,1,28,1,0,15,1,8,JPN" xlink:title="AP030" d="M13950.9308,-3578.6476L13951.6296,-3577.4628"/>
<path content="AP030,1,28,1,0,15,1,8,JPN" xlink:title="AP030" d="M13934.0393,-3577.94L13934.4849,-3577.4433"/>
<path content="AP030,1,28,1,0,16,1,4,JPN" xlink:title="AP030" d="M13929.0248,-3577.2761L13929.7595,-3577.7754L13930.01,-3578.2468"/>
<path content="AP030,1,28,1,0,15,1,8,JPN" xlink:title="AP030" d="M13948.0377,-3577.2141L13948.9838,-3577.2503L13948.9883,-3577.2507L13951.1414,-3577.4235L13951.6296,-3577.4628"/>
<path content="AP030,1,28,1,0,15,1,8,JPN" xlink:title="AP030" d="M13946.6049,-3578.5755L13947.113,-3578.0758L13947.2946,-3577.898L13947.4884,-3577.7084L13948.0377,-3577.2141"/>
<path content="AP030,1,28,1,0,15,1,8,JPN" xlink:title="AP030" d="M13947.1802,-3577.1812L13948.0377,-3577.2141"/>
<path content="AP030,1,28,1,0,15,1,8,JPN" xlink:title="AP030" d="M13945.723,-3578.2867L13946.5164,-3577.7084L13947.0459,-3577.2751L13947.1802,-3577.1812"/>
<path content="AP030,1,28,1,0,16,1,8,JPN" xlink:title="AP030" d="M13928.8839,-3577.1403L13929.0248,-3577.2761"/>
<path content="AP030,1,28,1,0,14,1,8,JPN" xlink:title="AP030" d="M13926.5396,-3578.12L13926.9501,-3577.9934L13927.15,-3577.9198L13927.2003,-3577.8999L13927.3102,-3577.8133L13927.6505,-3577.7065L13927.8793,-3577.5932L13928.0594,-3577.4864L13928.4698,-3577.3067L13928.6499,-3577.1999L13928.83,-3577.1465L13928.8839,-3577.1403"/>
<path content="AP030,1,28,1,0,15,1,8,JPN" xlink:title="AP030" d="M13926.5396,-3578.12L13926.5701,-3577.1309"/>
<path content="AP030,1,28,1,0,14,1,8,JPN" xlink:title="AP030" d="M13934.0393,-3577.94L13933.9905,-3577.8866L13933.7692,-3577.5932L13933.7006,-3577.4532L13933.7006,-3577.3598L13933.7204,-3577.2865L13933.815,-3577.0763"/>
<path content="AP030,1,28,1,0,15,1,8,JPN" xlink:title="AP030" d="M13930.983,-3578.0697L13931.6879,-3577.5642L13932.8369,-3577.4197L13933.815,-3577.0763"/>
<path content="AP030,1,28,1,0,14,1,8,JPN" xlink:title="AP030" d="M13928.8839,-3577.1403L13929.1794,-3577.1065L13929.3106,-3576.9867"/>
<path content="AP030,1,28,1,0,15,1,8,JPN" xlink:title="AP030" d="M13948.0377,-3577.2141L13948.3704,-3576.9138"/>
<path content="AP030,1,28,1,0,16,1,8,JPN" xlink:title="AP030" d="M13954.8599,-3578.9665L13955.0598,-3578.8399L13955.5603,-3578.5133L13955.9692,-3578.2799L13956.2897,-3578.0266L13956.5796,-3577.7199L13956.8298,-3577.3998L13957.0312,-3577.1078"/>
<path content="AP030,1,28,1,0,15,1,8,JPN" xlink:title="AP030" d="M13947.1802,-3577.1812L13947.6639,-3576.8417L13948.3704,-3576.9138"/>
<path content="AP030,1,28,1,0,16,1,8,JPN" xlink:title="AP030" d="M13928.3744,-3576.7058L13928.7555,-3577.0166L13928.8839,-3577.1403"/>
<path content="AP030,1,28,1,0,15,1,8,JPN" xlink:title="AP030" d="M13926.5701,-3577.1309L13928.0701,-3576.8417L13928.3744,-3576.7058"/>
<path content="AP030,1,28,1,0,15,1,8,JPN" xlink:title="AP030" d="M13936.8088,-3578.6407L13936.1908,-3577.7809L13935.5728,-3576.3359"/>
<path content="AP030,1,28,1,0,15,1,8,JPN" xlink:title="AP030" d="M13933.815,-3577.0763L13934.0714,-3576.9863L13934.4742,-3576.812L13935.5728,-3576.3359"/>
<path content="AP030,1,28,1,0,16,1,8,JPN" xlink:title="AP030" d="M13928.1678,-3576.3176L13928.3147,-3576.6571L13928.3744,-3576.7058"/>
<path content="AP030,1,28,1,0,14,1,8,JPN" xlink:title="AP030" d="M13929.3106,-3576.9867L13929.3793,-3576.8398L13929.4006,-3576.7132L13929.3793,-3576.6068L13929.3304,-3576.4797L13929.3594,-3576.4267L13929.3793,-3576.3332L13929.3106,-3576.1734"/>
<path content="AP030,1,28,1,0,15,1,8,JPN" xlink:title="AP030" d="M13928.3744,-3576.7058L13929.0405,-3576.4084L13929.3106,-3576.1734"/>
<path content="AP030,1,28,1,0,15,1,8,JPN" xlink:title="AP030" d="M13955.6076,-3576.0471L13955.7846,-3576.5526L13956.6666,-3576.9138L13957.0312,-3576.8992"/>
<path content="AP030,1,28,1,0,15,1,8,JPN" xlink:title="AP030" d="M13955.6076,-3576.0471L13957.0312,-3576.1282"/>
<path content="AP030,1,28,1,0,15,1,8,JPN" xlink:title="AP030" d="M13945.723,-3578.2867L13944.751,-3577.7084L13943.9819,-3577.079L13943.9575,-3577.0584L13943.6295,-3577.0081L13942.5835,-3576.5982L13941.1411,-3576.4963L13940.4283,-3576.5048L13940.0464,-3576.4115L13939.8468,-3575.9856L13940.8676,-3575.3967L13942.1036,-3574.9634"/>
<path content="AP030,1,28,1,0,15,1,8,JPN" xlink:title="AP030" d="M13941.5411,-3574.9306L13942.1036,-3574.9634"/>
<path content="AP030,1,28,1,0,15,1,8,JPN" xlink:title="AP030" d="M13935.5728,-3576.3359L13938.3087,-3575.108L13939.1556,-3574.9256"/>
<path content="AP030,1,28,1,0,15,1,8,JPN" xlink:title="AP030" d="M13951.6296,-3577.4628L13951.6403,-3577.2835L13951.7044,-3576.1154L13951.6357,-3574.8188"/>
<path content="AP030,1,28,1,0,15,1,8,JPN" xlink:title="AP030" d="M13948.3704,-3576.9138L13948.5611,-3576.7349L13948.9883,-3576.3359L13950.1358,-3575.6138L13951.6357,-3574.8188"/>
<path content="AP030,1,28,1,0,15,1,8,JPN" xlink:title="AP030" d="M13955.6717,-3574.7719L13955.6076,-3575.108L13955.6076,-3576.0471"/>
<path content="AP030,1,28,1,0,15,1,8,JPN" xlink:title="AP030" d="M13939.1556,-3574.9256L13939.9857,-3574.7467L13940.8676,-3574.8913L13941.5411,-3574.9306"/>
<path content="AP030,1,28,1,0,15,1,8,JPN" xlink:title="AP030" d="M13946.8704,-3575.2434L13946.8704,-3576.4805L13948.0545,-3575.7881L13948.7228,-3575.3967L13950.0473,-3574.7467"/>
<path content="AP030,1,28,1,0,15,1,8,JPN" xlink:title="AP030" d="M13946.8704,-3575.2434L13947.6685,-3575.029L13948.9243,-3574.6918L13950.0473,-3574.7467"/>
<path content="AP030,1,28,1,0,16,1,4,JPN" xlink:title="AP030" d="M13928.0208,-3574.4605L13928.1678,-3576.3176"/>
<path content="AP030,1,28,1,0,15,1,8,JPN" xlink:title="AP030" d="M13942.7216,-3574.4576L13944.3069,-3575.0412L13945.0165,-3575.1957L13945.9045,-3575.3887L13946.5302,-3575.2945L13946.8704,-3575.2434"/>
<path content="AP030,1,28,1,0,15,1,8,JPN" xlink:title="AP030" d="M13942.1036,-3574.9634L13942.7216,-3574.4576"/>
<path content="AP030,1,28,1,0,15,1,8,JPN" xlink:title="AP030" d="M13955.6717,-3574.7719L13956.7902,-3574.8695L13956.8192,-3574.8459L13957.0312,-3574.6695"/>
<path content="AP030,1,28,1,0,15,1,8,JPN" xlink:title="AP030" d="M13951.6357,-3574.8188L13951.3718,-3573.9521"/>
<path content="AP030,1,28,1,0,15,1,8,JPN" xlink:title="AP030" d="M13950.0473,-3574.7467L13951.3718,-3573.9521"/>
<path content="AP030,1,28,1,0,14,1,8,JPN" xlink:title="AP030" d="M13933.815,-3577.0763L13933.9294,-3576.82L13934.1095,-3576.4065L13934.1431,-3576.3229L13934.1797,-3576.2264L13934.2697,-3576.1333L13934.3094,-3575.8667L13934.2896,-3575.7198L13933.8806,-3574.9664L13933.8593,-3574.9268L13933.8104,-3574.6399L13933.7692,-3574.3198L13933.7692,-3574.2599L13933.8104,-3574.0467L13933.8303,-3573.9399"/>
<path content="AP030,1,28,1,0,15,1,8,JPN" xlink:title="AP030" d="M13929.3106,-3576.9867L13930.2765,-3577.0584L13930.365,-3576.9863L13930.806,-3576.4805L13931.2469,-3575.8305L13932.0419,-3574.9634L13932.5714,-3574.2409L13932.8049,-3574.1852L13933.5617,-3574.0044L13933.8303,-3573.9399"/>
<path content="AP030,1,28,1,0,15,1,8,JPN" xlink:title="AP030" d="M13951.3718,-3573.9521L13952.2537,-3573.4463"/>
<path content="AP030,1,28,1,0,15,1,8,JPN" xlink:title="AP030" d="M13951.3306,-3573.3448L13952.2537,-3573.4463"/>
<path content="AP030,1,28,1,0,15,1,8,JPN" xlink:title="AP030" d="M13951.3718,-3573.9521L13951.3306,-3573.3448"/>
<path content="AP030,1,28,1,0,15,1,8,JPN" xlink:title="AP030" d="M13942.7216,-3574.4576L13943.7805,-3573.5909L13944.0979,-3573.3318L13944.31,-3573.1571"/>
<path content="AP030,1,28,1,0,15,1,8,JPN" xlink:title="AP030" d="M13946.9925,-3572.9836L13947.7005,-3573.0228L13949.1058,-3573.1007L13950.0397,-3573.2033L13951.3306,-3573.3448"/>
<path content="AP030,1,28,1,0,15,1,8,JPN" xlink:title="AP030" d="M13946.8704,-3575.2434L13946.8704,-3575.1801L13946.8704,-3574.395L13946.8704,-3574.2409L13946.8857,-3574.0799L13946.9925,-3572.9836"/>
<path content="AP030,1,28,1,0,15,1,8,JPN" xlink:title="AP030" d="M13944.31,-3573.1571L13945.9991,-3573.0614L13946.2509,-3573.0415L13946.9925,-3572.9836"/>
<path content="AP030,1,28,1,0,14,1,8,JPN" xlink:title="AP030" d="M13929.3106,-3576.1734L13929.3304,-3575.7935L13929.1107,-3575.6134L13928.9505,-3575.5264L13928.8803,-3575.4665L13928.8605,-3575.3799L13928.9001,-3575.2865L13928.9902,-3575.1465L13929.0207,-3575.0401L13929.0207,-3574.9664L13928.9703,-3574.7997L13928.9703,-3574.7131L13929.0207,-3574.4267L13929.0207,-3574.2268L13929.0207,-3573.7732L13929.0207,-3573.5065L13929.0207,-3573.2201L13929.0207,-3573.04L13928.9902,-3572.9134L13928.9902,-3572.8931"/>
<path content="AP030,1,28,1,0,15,1,8,JPN" xlink:title="AP030" d="M13955.777,-3572.8733L13957.0312,-3573.3474"/>
<path content="AP030,1,28,1,0,15,1,8,JPN" xlink:title="AP030" d="M13955.6717,-3574.7719L13955.7846,-3574.1688L13955.777,-3572.8733"/>
<path content="AP030,1,28,1,0,14,1,8,JPN" xlink:title="AP030" d="M13933.8303,-3573.9399L13933.8593,-3573.8667L13934.1293,-3573.2201L13934.3094,-3572.7665"/>
<path content="AP030,1,28,1,0,15,1,8,JPN" xlink:title="AP030" d="M13926.5701,-3577.1309L13926.5701,-3576.7696L13926.1276,-3576.3359L13925.2457,-3575.6138L13924.4507,-3574.9634L13924.0097,-3574.3134L13922.9507,-3573.7354L13922.9797,-3573.399L13923.0392,-3572.7238"/>
<path content="AP030,1,28,1,0,15,1,8,JPN" xlink:title="AP030" d="M13922.4213,-3572.7238L13923.0392,-3572.7238"/>
<path content="AP030,1,28,1,0,15,1,8,JPN" xlink:title="AP030" d="M13951.6357,-3574.8188L13952.3422,-3574.0967L13954.4678,-3572.7741L13954.5486,-3572.7238"/>
<path content="AP030,1,28,1,0,15,1,8,JPN" xlink:title="AP030" d="M13953.8589,-3572.6994L13954.5486,-3572.7238"/>
<path content="AP030,1,28,1,0,15,1,8,JPN" xlink:title="AP030" d="M13952.2537,-3573.4463L13953.0487,-3572.9404L13953.8589,-3572.6994"/>
<path content="AP030,1,28,1,0,15,1,8,JPN" xlink:title="AP030" d="M13955.777,-3572.8733L13955.7755,-3572.6467"/>
<path content="AP030,1,28,1,0,15,1,8,JPN" xlink:title="AP030" d="M13954.5486,-3572.7238L13955.7755,-3572.6467"/>
<path content="AP030,1,28,1,0,16,1,8,JPN" xlink:title="AP030" d="M13927.8661,-3572.5994L13928.0453,-3573.8415L13928.0208,-3574.4605"/>
<path content="AP030,1,28,1,0,15,1,8,JPN" xlink:title="AP030" d="M13951.2741,-3572.5952L13951.3321,-3572.5975L13952.5192,-3572.6517L13953.8589,-3572.6994"/>
<path content="AP030,1,28,1,0,15,1,8,JPN" xlink:title="AP030" d="M13951.3306,-3573.3448L13951.2833,-3572.6517L13951.2772,-3572.6189L13951.2741,-3572.5952"/>
<path content="AP030,1,28,1,0,15,1,8,JPN" xlink:title="AP030" d="M13955.7755,-3572.6467L13956.8436,-3572.5796L13957.0313,-3572.6381"/>
<path content="AP030,1,28,1,0,15,1,8,JPN" xlink:title="AP030" d="M13928.9902,-3572.8931L13929.924,-3572.7238L13931.0715,-3572.7238L13931.72,-3572.5647L13931.9534,-3572.5071L13933.0124,-3572.435L13933.8257,-3572.6429L13933.8989,-3572.6612L13933.9737,-3572.6807L13934.3094,-3572.7665"/>
<path content="AP030,1,28,1,0,15,1,8,JPN" xlink:title="AP030" d="M13944.31,-3573.1571L13944.31,-3572.435"/>
<path content="AP030,1,28,1,0,15,1,8,JPN" xlink:title="AP030" d="M13947.0459,-3572.435L13947.8729,-3572.525L13948.3704,-3572.5796L13950.9308,-3572.5796L13951.2741,-3572.5952"/>
<path content="AP030,1,28,1,0,15,1,8,JPN" xlink:title="AP030" d="M13946.9925,-3572.9836L13947.0459,-3572.435"/>
<path content="AP030,1,28,1,0,14,1,8,JPN" xlink:title="AP030" d="M13928.9902,-3572.8931L13928.9108,-3572.7379L13928.7399,-3572.4068"/>
<path content="AP030,1,28,1,0,15,1,8,JPN" xlink:title="AP030" d="M13927.8661,-3572.5994L13928.7399,-3572.4068"/>
<path content="AP030,1,28,1,0,15,1,8,JPN" xlink:title="AP030" d="M13935.5728,-3576.3359L13934.8663,-3575.3246L13934.8663,-3574.4576L13935.2188,-3572.3625"/>
<path content="AP030,1,28,1,0,15,1,8,JPN" xlink:title="AP030" d="M13934.3094,-3572.7665L13935.2188,-3572.3625"/>
<path content="AP030,1,28,1,0,15,1,8,JPN" xlink:title="AP030" d="M13944.31,-3572.435L13945.723,-3572.3625L13946.1456,-3572.3858L13946.7941,-3572.4213L13947.0459,-3572.435"/>
<path content="AP030,1,28,1,0,15,1,8,JPN" xlink:title="AP030" d="M13923.0392,-3572.7238L13923.8327,-3572.7238L13924.5392,-3572.2904L13925.6866,-3572.2904L13926.6571,-3572.2904L13927.6291,-3572.6517L13927.8661,-3572.5994"/>
<path content="AP030,1,28,1,0,15,1,8,JPN" xlink:title="AP030" d="M13939.1556,-3574.9256L13939.6729,-3573.7549L13939.8727,-3572.9481L13939.9445,-3572.6555L13940.2496,-3571.8571"/>
<path content="AP030,1,28,1,0,15,1,8,JPN" xlink:title="AP030" d="M13935.2188,-3572.3625L13936.6318,-3572.5796L13936.6913,-3572.5647L13937.5137,-3572.3625L13939.1907,-3572.2183L13940.2496,-3571.8571"/>
<path content="AP030,1,28,1,0,15,1,8,JPN" xlink:title="AP030" d="M13941.5411,-3574.9306L13941.6809,-3573.5363L13941.6885,-3573.1266L13941.6962,-3572.7402L13941.7023,-3572.4335L13941.7526,-3572.2702L13941.8396,-3571.9872L13941.9266,-3571.701"/>
<path content="AP030,1,28,1,0,15,1,8,JPN" xlink:title="AP030" d="M13940.2496,-3571.8571L13941.6626,-3571.7125L13941.9266,-3571.701"/>
<path content="AP030,1,28,1,0,15,1,8,JPN" xlink:title="AP030" d="M13943.3395,-3571.64L13944.31,-3572.435"/>
<path content="AP030,1,28,1,0,15,1,8,JPN" xlink:title="AP030" d="M13941.9266,-3571.701L13943.3395,-3571.64"/>
<path content="AP030,1,28,1,0,15,1,8,JPN" xlink:title="AP030" d="M13947.0459,-3572.435L13946.8704,-3571.4958"/>
<path content="AP030,1,28,1,0,15,1,8,JPN" xlink:title="AP030" d="M13943.3395,-3571.64L13945.0165,-3571.5679L13946.0571,-3571.5679L13946.5164,-3571.5679L13946.727,-3571.5252L13946.8704,-3571.4958"/>
<path content="AP030,1,28,1,0,16,1,8,JPN" xlink:title="AP030" d="M13927.6045,-3571.4053L13927.8004,-3572.1442L13927.8661,-3572.5994"/>
<path content="AP030,1,28,1,0,14,1,8,JPN" xlink:title="AP030" d="M13928.7399,-3572.4068L13928.7201,-3572.3198L13928.7201,-3572.2267L13928.7201,-3572.1001L13928.6499,-3571.9734L13928.4897,-3571.7731L13928.3798,-3571.4535L13928.3997,-3571.4001L13928.5599,-3571.3467L13928.83,-3571.3264L13928.9307,-3571.2868L13928.9703,-3570.9866L13929.0207,-3570.9465"/>
<path content="AP030,1,28,1,0,15,1,8,JPN" xlink:title="AP030" d="M13951.2741,-3572.5952L13951.1063,-3571.5679L13950.6653,-3570.8454"/>
<path content="AP030,1,28,1,0,15,1,8,JPN" xlink:title="AP030" d="M13946.8704,-3571.4958L13948.6304,-3571.1448L13950.6653,-3570.8454"/>
<path content="AP030,1,28,1,0,15,1,8,JPN" xlink:title="AP030" d="M13954.7256,-3570.7733L13957.0312,-3571.1163"/>
<path content="AP030,1,28,1,0,14,1,8,JPN" xlink:title="AP030" d="M13929.0207,-3570.9465L13929.6097,-3570.7664L13929.9698,-3570.7664"/>
<path content="AP030,1,28,1,0,14,1,8,JPN" xlink:title="AP030" d="M13934.3094,-3572.7665L13934.3307,-3572.5533L13934.3597,-3572.4598L13934.2896,-3572.3866L13934.1995,-3572.3331L13934.166,-3572.2992L13934.0393,-3572.1733L13934.0195,-3572.1199L13933.9706,-3572.0467L13933.9493,-3571.6133L13933.8104,-3571.4001L13934.1293,-3570.9267L13934.1797,-3570.8935L13934.3307,-3570.8199L13934.9701,-3570.5334"/>
<path content="AP030,1,28,1,0,15,1,8,JPN" xlink:title="AP030" d="M13954.5486,-3572.7238L13955.9616,-3571.8571L13957.0312,-3571.9218"/>
<path content="AP030,1,28,1,0,15,1,8,JPN" xlink:title="AP030" d="M13951.6357,-3570.4842L13954.7256,-3570.7733"/>
<path content="AP030,1,28,1,0,15,1,8,JPN" xlink:title="AP030" d="M13950.6653,-3570.8454L13951.6357,-3570.4842"/>
<path content="AP030,1,28,1,0,16,1,4,JPN" xlink:title="AP030" d="M13926.8699,-3570.1872L13927.6045,-3571.4053"/>
<path content="AP030,1,28,1,0,15,1,8,JPN" xlink:title="AP030" d="M13946.8704,-3571.4958L13946.9452,-3570.4426L13946.9589,-3570.2675L13947.0154,-3569.9379"/>
<path content="AP030,1,28,1,0,16,1,8,JPN" xlink:title="AP030" d="M13926.7196,-3569.9246L13926.8699,-3570.1872"/>
<path content="AP030,1,28,1,0,15,1,8,JPN" xlink:title="AP030" d="M13922.4213,-3572.7238L13923.4802,-3571.8571L13923.7457,-3571.64L13924.3622,-3571.0625L13925.0687,-3570.1954L13925.8636,-3569.9787L13926.7196,-3569.9246"/>
<path content="AP030,1,28,1,0,15,1,8,JPN" xlink:title="AP030" d="M13941.9266,-3569.9062L13942.7216,-3570.5566L13943.3395,-3571.64"/>
<path content="AP030,1,28,1,0,15,1,8,JPN" xlink:title="AP030" d="M13941.9266,-3571.701L13942.2348,-3570.8878L13941.9266,-3569.9062"/>
<path content="AP030,1,28,1,0,15,1,8,JPN" xlink:title="AP030" d="M13941.8747,-3569.7906L13941.9266,-3569.9062"/>
<path content="AP030,1,28,1,0,15,1,8,JPN" xlink:title="AP030" d="M13954.7256,-3570.7733L13954.7714,-3570.2061L13954.8141,-3569.6896"/>
<path content="AP030,1,28,1,0,15,1,8,JPN" xlink:title="AP030" d="M13921.875,-3572.4444L13922.4213,-3572.7238"/>
<path content="AP030,1,28,1,0,16,1,8,JPN" xlink:title="AP030" d="M13926.3556,-3569.2886L13926.7196,-3569.9246"/>
<path content="AP030,1,28,1,0,15,1,8,JPN" xlink:title="AP030" d="M13950.9308,-3569.0395L13952.4567,-3569.2215L13953.5828,-3569.3562L13954.8141,-3569.6896"/>
<path content="AP030,1,28,1,0,15,1,8,JPN" xlink:title="AP030" d="M13950.9308,-3569.0395L13951.4542,-3570.1107L13951.6357,-3570.4842"/>
<path content="AP030,1,28,1,0,15,1,8,JPN" xlink:title="AP030" d="M13947.0154,-3569.9379L13947.6624,-3569.9772L13948.0087,-3569.9818L13948.0545,-3569.9821L13948.4634,-3569.9875L13948.6084,-3570.2751L13949.2126,-3570.0787L13949.321,-3570.0146L13950.2258,-3569.4782L13950.9308,-3569.0395"/>
<path content="AP030,1,28,1,0,15,1,8,JPN" xlink:title="AP030" d="M13941.8747,-3569.7906L13942.4469,-3569.0872L13942.5735,-3568.9312L13944.1635,-3569.5648L13944.8593,-3569.8189L13945.4178,-3569.4176L13946.3684,-3569.4706L13946.5378,-3569.5927L13947.0154,-3569.9379"/>
<path content="AP030,1,28,1,0,15,1,8,JPN" xlink:title="AP030" d="M13954.8141,-3569.6896L13955.6961,-3568.7504"/>
<path content="AP030,1,28,1,0,15,1,8,JPN" xlink:title="AP030" d="M13941.8747,-3569.7906L13941.6626,-3569.3283L13941.4703,-3568.6398"/>
<path content="AP030,1,28,1,0,15,1,8,JPN" xlink:title="AP030" d="M13934.9701,-3570.5334L13935.6613,-3569.9787L13936.3052,-3569.7147L13936.3663,-3569.6896L13937.3383,-3569.6896L13938.3972,-3569.762L13939.0152,-3569.6896L13939.7202,-3569.1841L13939.9551,-3569.1113L13940.834,-3568.8377L13941.4703,-3568.6398"/>
<path content="AP030,1,28,1,0,14,1,8,JPN" xlink:title="AP030" d="M13934.9701,-3570.5334L13934.8801,-3570.2999L13934.7397,-3570.0134L13934.52,-3569.4332L13934.5398,-3569.36L13934.6497,-3569.3066L13934.79,-3569.2333L13934.8099,-3569.1799L13934.7702,-3568.9865L13934.7702,-3568.6798L13934.7397,-3568.6066"/>
<path content="AP030,1,28,1,0,14,1,8,JPN" xlink:title="AP030" d="M13929.9698,-3570.7664L13930.5206,-3570.6066L13930.8304,-3570.5334L13931.0394,-3570.3865L13931.6299,-3570.1534L13932.0602,-3569.9734L13932.1793,-3569.8868L13932.3593,-3569.8132L13932.4493,-3569.7598L13932.5607,-3569.7067L13933.11,-3569.3798L13933.4503,-3569.1799L13933.8303,-3569.0201L13934.1095,-3568.9266L13934.4299,-3568.7466L13934.7397,-3568.6066"/>
<path content="AP030,1,28,1,0,16,1,4,JPN" xlink:title="AP030" d="M13925.572,-3568.5498L13926.3556,-3569.2886"/>
<path content="AP030,1,28,1,0,15,1,8,JPN" xlink:title="AP030" d="M13929.0207,-3570.9465L13929.924,-3569.5454L13930.011,-3568.5337"/>
<path content="AP030,1,28,1,0,15,1,8,JPN" xlink:title="AP030" d="M13926.7196,-3569.9246L13927.0111,-3569.9062L13927.9816,-3569.4008L13929.0405,-3568.8229L13930.011,-3568.5337"/>
<path content="AP030,1,28,1,0,14,1,8,JPN" xlink:title="AP030" d="M13934.61,-3568.4067L13934.7397,-3568.6066"/>
<path content="AP030,1,28,1,0,15,1,8,JPN" xlink:title="AP030" d="M13955.6961,-3568.7504L13957.0312,-3568.716"/>
<path content="AP030,1,28,1,0,14,1,8,JPN" xlink:title="AP030" d="M13933.5602,-3567.8333L13933.7204,-3567.8467L13934.0805,-3567.9199L13934.1995,-3567.9531L13934.3094,-3568.0267L13934.5596,-3568.3334L13934.61,-3568.4067"/>
<path content="AP030,1,28,1,0,15,1,8,JPN" xlink:title="AP030" d="M13929.9698,-3570.7664L13931.424,-3569.6896L13932.4829,-3568.9671L13933.1894,-3568.2449L13933.5602,-3567.8333"/>
<path content="AP030,1,28,1,0,14,1,8,JPN" xlink:title="AP030" d="M13938.7451,-3567.757L13938.9893,-3567.9398L13939.18,-3568.0267L13939.2395,-3568.0267L13939.3982,-3567.9855L13939.65,-3567.9199L13940.0604,-3567.8131L13940.2893,-3567.7601L13940.4007,-3567.7399L13940.7944,-3567.8593L13940.9302,-3567.9001L13941.04,-3567.9932L13941.4703,-3568.6398"/>
<path content="AP030,1,28,1,0,14,1,8,JPN" xlink:title="AP030" d="M13933.2275,-3567.683L13933.2397,-3567.7399L13933.3603,-3567.7734L13933.5602,-3567.8333"/>
<path content="AP030,1,28,1,0,14,1,8,JPN" xlink:title="AP030" d="M13934.61,-3568.4067L13935.2203,-3568.1534L13935.3806,-3568.0466L13935.4507,-3567.9733L13935.4706,-3567.7601L13935.4706,-3567.5179"/>
<path content="AP030,1,28,1,0,16,1,8,JPN" xlink:title="AP030" d="M13933.2275,-3567.683L13933.8806,-3567.6533L13934.5795,-3567.6334L13935.1501,-3567.5598L13935.3302,-3567.54L13935.4706,-3567.5179"/>
<path content="AP030,1,28,1,0,16,1,8,JPN" xlink:title="AP030" d="M13931.2393,-3567.5064L13931.4697,-3567.6533L13931.7398,-3567.7067L13932.1503,-3567.7399L13932.5607,-3567.7399L13933.1497,-3567.6865L13933.2275,-3567.683"/>
<path content="AP030,1,28,1,0,15,1,8,JPN" xlink:title="AP030" d="M13930.011,-3568.5337L13930.7175,-3568.1725L13931.2393,-3567.5064"/>
<path content="AP030,1,28,1,0,16,1,8,JPN" xlink:title="AP030" d="M13935.4706,-3567.5179L13935.8795,-3567.4534L13936.3297,-3567.4534L13936.6806,-3567.5266L13936.7249,-3567.5484L13936.9705,-3567.6666L13937.1506,-3567.7933L13937.6099,-3567.9932L13937.7701,-3568.0267L13938.3301,-3567.9531L13938.5803,-3567.8867L13938.7451,-3567.757"/>
<path content="AP030,1,28,1,0,15,1,8,JPN" xlink:title="AP030" d="M13947.0154,-3569.9379L13947.2229,-3568.7504L13947.6639,-3568.1004L13947.58,-3567.3466"/>
<path content="AP030,1,28,1,0,15,1,8,JPN" xlink:title="AP030" d="M13948.3795,-3567.2867L13949.6063,-3567.8112L13950.9308,-3569.0395"/>
<path content="AP030,1,28,1,0,14,1,8,JPN" xlink:title="AP030" d="M13947.58,-3567.3466L13947.9294,-3567.3267L13948.3795,-3567.2867"/>
<path content="AP030,1,28,1,0,14,1,8,JPN" xlink:title="AP030" d="M13941.4703,-3568.6398L13941.7694,-3568.4399L13942.0593,-3568.3533L13942.4698,-3568.28L13942.6102,-3568.2598L13943.2693,-3568.1934L13943.4906,-3568.1534L13944.0399,-3568.0798L13944.4702,-3567.9398L13944.7403,-3567.8131L13944.8303,-3567.7734L13944.9707,-3567.7067L13945.1996,-3567.5888L13945.3598,-3567.5064L13945.8603,-3567.3065L13946.0602,-3567.2333L13946.1807,-3567.2001L13946.4493,-3567.2333L13947.3831,-3567.3321L13947.5204,-3567.3466L13947.58,-3567.3466"/>
<path content="AP030,1,28,1,0,15,1,8,JPN" xlink:title="AP030" d="M13950.7904,-3567.0399L13951.445,-3567.0712L13951.8127,-3567.0891L13952.9602,-3567.5224L13954.1077,-3568.1725L13955.6961,-3568.7504"/>
<path content="AP030,1,28,1,0,14,1,8,JPN" xlink:title="AP030" d="M13948.3795,-3567.2867L13948.7198,-3567.2001L13949.3301,-3567.0734L13949.5193,-3567.0532L13949.8795,-3567.0532L13950.7904,-3567.0399"/>
<path content="AP030,1,28,1,0,14,1,8,JPN" xlink:title="AP030" d="M13936.4304,-3566.6065L13936.5402,-3566.6397L13936.6806,-3566.6931L13937.4695,-3566.9998L13938.3102,-3567.3267L13938.5193,-3567.4133L13938.5605,-3567.4534L13938.6307,-3567.6132L13938.6505,-3567.6865L13938.7451,-3567.757"/>
<path content="AP030,1,28,1,0,14,1,8,JPN" xlink:title="AP030" d="M13936.4304,-3566.6065L13936.7401,-3566.5333L13937.1796,-3566.5333L13937.7701,-3566.6798L13937.7899,-3566.6798L13938.0203,-3566.7332L13938.4506,-3566.7999L13938.6307,-3566.84L13939.0427,-3566.8774L13939.2197,-3566.8934"/>
<path content="AP030,1,28,1,0,16,1,8,JPN" xlink:title="AP030" d="M13929.2892,-3566.5134L13929.6295,-3566.5867L13929.8996,-3566.6599L13930.2399,-3566.8198L13930.6793,-3567.1467L13931.0806,-3567.4332L13931.2393,-3567.5064"/>
<path content="AP030,1,28,1,0,15,1,8,JPN" xlink:title="AP030" d="M13930.011,-3568.5337L13929.747,-3567.5945L13929.2892,-3566.5134"/>
<path content="AP030,1,28,1,0,16,1,8,JPN" xlink:title="AP030" d="M13924.7884,-3566.513L13924.9108,-3567.2119L13925.1067,-3567.8509L13925.572,-3568.5498"/>
<path content="AP030,1,28,1,0,15,1,8,JPN" xlink:title="AP030" d="M13939.2197,-3566.8934L13939.8087,-3566.7278L13940.6036,-3566.4387"/>
<path content="AP030,1,28,1,0,14,1,8,JPN" xlink:title="AP030" d="M13935.2905,-3566.2643L13935.4706,-3566.28L13935.7193,-3566.3532L13936.1176,-3566.4913L13936.2396,-3566.5333L13936.4304,-3566.6065"/>
<path content="AP030,1,28,1,0,14,1,8,JPN" xlink:title="AP030" d="M13935.4706,-3567.5179L13935.4706,-3567.4332L13935.3302,-3567.0933L13935.3302,-3566.84L13935.3302,-3566.6397L13935.3302,-3566.5665L13935.2905,-3566.3334L13935.2905,-3566.2643"/>
<path content="AP030,1,28,1,0,16,1,8,JPN" xlink:title="AP030" d="M13953.9703,-3566.2464L13954.2892,-3566.2998L13954.7394,-3566.32L13955.1102,-3566.32L13955.7907,-3566.4398L13956.0593,-3566.5333L13956.3095,-3566.6397L13956.7001,-3566.9132L13956.9702,-3567.0933L13957.0312,-3567.1212"/>
<path content="AP030,1,28,1,0,15,1,8,JPN" xlink:title="AP030" d="M13955.6961,-3568.7504L13955.1605,-3567.9863L13954.6234,-3567.2035L13953.9703,-3566.2464"/>
<path content="AP030,1,28,1,0,14,1,8,JPN" xlink:title="AP030" d="M13933.2275,-3567.683L13933.2199,-3567.6533L13933.2397,-3567.3466L13933.1299,-3567.0933L13933.0399,-3566.8934L13933.02,-3566.8198L13932.8995,-3566.3334L13932.8293,-3566.0133"/>
<path content="AP030,1,28,1,0,15,1,8,JPN" xlink:title="AP030" d="M13931.2393,-3567.5064L13932.4829,-3566.5833L13932.8293,-3566.0133"/>
<path content="AP030,1,28,1,0,14,1,8,JPN" xlink:title="AP030" d="M13932.8293,-3566.0133L13933.3099,-3565.9931"/>
<path content="AP030,1,28,1,0,16,1,8,JPN" xlink:title="AP030" d="M13953.244,-3565.9805L13953.5202,-3566.0999L13953.6804,-3566.1533L13953.9703,-3566.2464"/>
<path content="AP030,1,28,1,0,14,1,8,JPN" xlink:title="AP030" d="M13950.7904,-3567.0399L13950.8301,-3567.02L13951.1795,-3566.84L13951.2375,-3566.8152L13951.5198,-3566.6931L13951.8799,-3566.5531L13952.2903,-3566.3864L13953.1296,-3566.0267L13953.244,-3565.9805"/>
<path content="AP030,1,28,1,0,14,1,8,JPN" xlink:title="AP030" d="M13933.3099,-3565.9931L13933.9294,-3565.9534L13934.5398,-3565.9397L13934.6802,-3566.0667L13934.8297,-3566.2266L13935.0601,-3566.2464L13935.2402,-3566.2598L13935.2905,-3566.2643"/>
<path content="AP030,1,28,1,0,16,1,8,JPN" xlink:title="AP030" d="M13938.7451,-3567.757L13938.9694,-3567.58L13939.1739,-3567.5102L13939.3997,-3567.4332L13939.74,-3567.3798L13940.4694,-3567.3798L13941.2903,-3567.4534L13941.4307,-3567.4831L13941.7892,-3567.5598L13942.0197,-3567.6666L13942.4301,-3567.8131L13942.72,-3567.8333L13943.0405,-3567.8333L13943.3594,-3567.7399L13943.6798,-3567.5598L13944.0201,-3567.2867L13944.0598,-3567.2333L13944.6106,-3566.7133L13944.8105,-3566.6065L13945.2698,-3566.4997L13945.7001,-3566.4265L13946.2204,-3566.3864L13946.6721,-3566.3567L13946.7194,-3566.3532L13947.1497,-3566.2464L13947.7402,-3566.0465L13947.9187,-3566.0149L13948.0392,-3565.9931L13949.2905,-3565.9931L13950.0793,-3565.9397L13950.3143,-3565.881L13950.4501,-3565.8466L13950.9903,-3565.6334L13951.2772,-3565.5712"/>
<path content="AP030,1,28,1,0,16,1,8,JPN" xlink:title="AP030" d="M13951.2772,-3565.5712L13951.2894,-3565.6334L13951.3992,-3565.72L13951.5793,-3565.7066L13951.6998,-3565.5399"/>
<path content="AP030,1,28,1,0,16,1,8,JPN" xlink:title="AP030" d="M13951.2772,-3565.5712L13951.3306,-3565.5598L13951.6296,-3565.5399L13951.6998,-3565.5399"/>
<path content="AP030,1,28,1,0,16,1,8,JPN" xlink:title="AP030" d="M13951.6998,-3565.5399L13952.1301,-3565.5399L13952.5604,-3565.6334L13952.8152,-3565.7524L13952.8595,-3565.7734L13953.1494,-3565.9397L13953.244,-3565.9805"/>
<path content="AP030,1,28,1,0,16,1,8,JPN" xlink:title="AP030" d="M13951.2772,-3565.5712L13951.2405,-3565.3999"/>
<path content="AP030,1,28,1,0,14,1,8,JPN" xlink:title="AP030" d="M13953.244,-3565.9805L13953.3096,-3565.9534L13953.5599,-3565.8466L13953.9307,-3565.6864L13953.9505,-3565.6864L13955.13,-3565.3267L13955.1498,-3565.3065"/>
<path content="AP030,1,28,1,0,15,1,8,JPN" xlink:title="AP030" d="M13940.6036,-3566.4387L13941.8839,-3566.4387L13942.4561,-3566.4387L13943.6035,-3566.4387L13944.046,-3566.1495L13944.3985,-3566.0774L13945.105,-3565.8607L13945.195,-3565.7871L13945.8115,-3565.2828"/>
<path content="AP030,1,28,1,0,14,1,8,JPN" xlink:title="AP030" d="M13955.1498,-3565.3065L13956.0196,-3565.2534L13956.0593,-3565.2534L13956.7001,-3565.5933L13956.72,-3565.6132L13957.0312,-3565.7886"/>
<path content="AP030,1,28,1,0,16,1,8,JPN" xlink:title="AP030" d="M13951.2405,-3565.3999L13951.1093,-3564.9666"/>
<path content="AP030,1,28,1,0,16,1,4,JPN" xlink:title="AP030" d="M13924.9843,-3564.8556L13924.8863,-3565.7941L13924.7884,-3566.513"/>
<path content="AP030,1,28,1,0,15,1,8,JPN" xlink:title="AP030" d="M13945.8115,-3565.2828L13945.9869,-3565.4995L13947.1344,-3565.0661L13948.6359,-3564.8495L13949.5026,-3564.7846L13949.6063,-3564.777L13951.1093,-3564.9666"/>
<path content="AP030,1,28,1,0,14,1,8,JPN" xlink:title="AP030" d="M13928.5202,-3564.5332L13929.2206,-3564.7667L13929.2694,-3564.7865L13929.4495,-3564.8399L13929.5395,-3564.9132L13930.2902,-3565.3797L13930.6107,-3565.5399L13930.8807,-3565.6666L13931.3095,-3565.8867L13931.72,-3566.0797L13931.7902,-3566.0999L13932.2906,-3566.0667L13932.8293,-3566.0133"/>
<path content="AP030,1,28,1,0,15,1,8,JPN" xlink:title="AP030" d="M13929.2892,-3566.5134L13928.7766,-3565.6441L13928.511,-3565.1382L13928.5202,-3564.5332"/>
<path content="AP030,1,28,1,0,14,1,8,JPN" xlink:title="AP030" d="M13935.2905,-3566.2643L13935.2905,-3566.1934L13935.3806,-3566.0465L13935.5438,-3565.8833L13935.5606,-3565.8665L13935.7193,-3565.7398L13935.7407,-3565.6132L13935.6094,-3565.4865L13935.3806,-3565.2866L13935.2203,-3565.1466L13935.2127,-3565.136L13935.1501,-3565.0532L13935.1807,-3564.8933L13935.2203,-3564.7331L13935.2707,-3564.6198L13935.2585,-3564.5206L13935.2524,-3564.4779"/>
<path content="AP030,1,28,1,0,15,1,8,JPN" xlink:title="AP030" d="M13933.8409,-3564.3764L13934.285,-3564.4085L13934.8007,-3564.4455L13935.2524,-3564.4779"/>
<path content="AP030,1,28,1,0,14,1,8,JPN" xlink:title="AP030" d="M13933.3099,-3565.9931L13933.2703,-3565.7734L13933.2703,-3565.7066L13933.2474,-3565.5903L13933.2199,-3565.4533L13933.2199,-3565.4331L13933.2703,-3565.2866L13933.3099,-3565.1798L13933.3603,-3565.0398L13933.3801,-3564.9998L13933.4305,-3564.9265L13933.6105,-3564.7667L13933.6502,-3564.6935L13933.7006,-3564.6599L13933.8104,-3564.4798L13933.8409,-3564.3764"/>
<path content="AP030,1,28,1,0,15,1,8,JPN" xlink:title="AP030" d="M13945.8115,-3565.2828L13945.6345,-3564.3436"/>
<path content="AP030,1,28,1,0,14,1,8,JPN" xlink:title="AP030" d="M13928.0594,-3564.3333L13928.5202,-3564.5332"/>
<path content="AP030,1,28,1,0,14,1,8,JPN" xlink:title="AP030" d="M13935.2524,-3564.4779L13935.2402,-3564.3734L13935.2203,-3564.32"/>
<path content="AP030,1,28,1,0,16,1,8,JPN" xlink:title="AP030" d="M13951.1093,-3564.9666L13950.9506,-3564.5535L13950.8789,-3564.3784L13950.8301,-3564.2597"/>
<path content="AP030,1,28,1,0,16,1,8,JPN" xlink:title="AP030" d="M13925.3296,-3564.0999L13924.9843,-3564.8556"/>
<path content="AP030,1,28,1,0,16,1,8,JPN" xlink:title="AP030" d="M13925.3296,-3564.0999L13925.5203,-3564.1197L13925.7706,-3564.1933L13926.1307,-3564.1933L13926.3306,-3564.2597L13926.4694,-3564.3867L13926.5198,-3564.5535L13926.5198,-3564.9864L13926.6296,-3565.2534L13926.9897,-3565.5598L13927.15,-3565.6334L13927.8305,-3565.7734L13928.3295,-3566.0133L13928.83,-3566.32L13929.2892,-3566.5134"/>
<path content="AP030,1,28,1,0,16,1,8,JPN" xlink:title="AP030" d="M13922.6105,-3564.0667L13922.9904,-3564.1335L13923.4497,-3564.1335L13923.79,-3564.0999L13924.0402,-3564.1335L13924.4003,-3564.1731L13924.8993,-3564.1731L13925.0595,-3564.1533"/>
<path content="AP030,1,28,1,0,15,1,8,JPN" xlink:title="AP030" d="M13935.2524,-3564.4779L13935.379,-3564.452L13936.3754,-3564.2456L13937.3642,-3564.0411L13938.7024,-3564.7125L13939.8788,-3565.9134L13940.4587,-3566.3342L13940.6036,-3566.4387"/>
<path content="AP030,1,28,1,0,15,1,8,JPN" xlink:title="AP030" d="M13929.866,-3563.6105L13930.8197,-3563.4605L13932.0099,-3564.0083L13933.0521,-3564.3906L13933.8409,-3564.3764"/>
<path content="AP030,1,28,1,0,16,1,4,JPN" xlink:title="AP030" d="M13921.875,-3563.9582L13922.0596,-3564.0133L13922.6105,-3564.0667"/>
<path content="AP030,1,28,1,0,15,1,8,JPN" xlink:title="AP030" d="M13955.1498,-3565.3065L13955.6992,-3564.9277L13956.7551,-3564.1991L13957.0312,-3564.0244"/>
<path content="AP030,1,28,1,0,15,1,8,JPN" xlink:title="AP030" d="M13951.2405,-3565.3999L13951.9012,-3564.7049L13952.5192,-3564.2715L13953.0487,-3563.7657L13953.0945,-3563.5227L13953.1265,-3563.3472L13953.2242,-3562.8265L13954.7256,-3561.9598"/>
<path content="AP030,1,28,1,0,16,1,8,JPN" xlink:title="AP030" d="M13935.2203,-3564.32L13935.08,-3563.8866L13935.0204,-3563.6868L13934.9304,-3563.4666L13934.8099,-3563.2866L13934.8099,-3563.1065L13934.8297,-3562.9997L13934.7702,-3562.7335L13934.7397,-3562.6934L13934.6298,-3562.3867L13934.5795,-3562.1334L13934.5398,-3561.9198L13934.3796,-3561.7931L13934.1293,-3561.5398"/>
<path content="AP030,1,28,1,0,14,1,8,JPN" xlink:title="AP030" d="M13933.8409,-3564.3764L13933.8806,-3564.2467L13933.9005,-3564.2067L13933.9005,-3563.7356L13933.9005,-3563.6665L13933.8806,-3563.5933L13933.8303,-3563.3266L13933.8303,-3563.2L13933.7692,-3563.0398L13933.6807,-3562.7865L13933.6807,-3562.6801L13933.7402,-3562.5866L13934.1095,-3562.1735L13934.1293,-3562.08L13934.0805,-3561.7065L13934.1095,-3561.5601L13934.1293,-3561.5398"/>
<path content="AP030,1,28,1,0,14,1,8,JPN" xlink:title="AP030" d="M13921.875,-3561.5313L13921.8796,-3561.5067L13921.9299,-3561.4864L13921.9696,-3561.5067L13921.9299,-3561.7065L13921.9498,-3561.8332L13921.9696,-3561.8465L13922.02,-3561.8465L13922.0795,-3561.7931L13922.11,-3561.8134L13922.1298,-3562.0667L13922.2,-3562.08L13922.3099,-3562.0266L13922.4701,-3562.0464L13922.5601,-3561.9934L13922.6807,-3562.0132L13922.8104,-3562.0667L13922.9004,-3562.0464L13923.1094,-3561.8999L13923.1995,-3561.9198L13923.5794,-3562.0266L13923.6496,-3562.0132L13923.7396,-3561.9198L13923.9304,-3561.8465L13923.97,-3561.8134L13924.0402,-3561.6135L13924.1104,-3561.5799L13924.3301,-3561.5799L13924.6094,-3561.6135L13924.8306,-3561.6333L13925.0595,-3561.6867L13925.1495,-3561.7065L13925.3601,-3561.8999L13925.47,-3561.94L13925.6302,-3561.8999L13925.8102,-3561.8866L13926.0193,-3561.8866L13926.1093,-3561.8134L13926.1993,-3561.8134L13926.2405,-3561.8465L13926.2405,-3562.0464L13926.4297,-3562.2799L13926.4496,-3562.3531L13926.4297,-3562.5534L13926.4496,-3562.6598L13926.7197,-3562.7464L13926.9699,-3562.9131L13927.0203,-3563.0531L13927.1103,-3563.2332L13927.1301,-3563.3465L13927.0523,-3563.4247L13926.9699,-3563.5067L13926.9699,-3563.76L13927.0203,-3563.8866L13927.0599,-3563.94L13927.1301,-3564.0465L13927.1942,-3564.0877L13927.3605,-3564.1933L13927.6505,-3564.2799L13928.0197,-3564.32L13928.0594,-3564.3333"/>
<path content="AP030,1,28,1,0,15,1,8,JPN" xlink:title="AP030" d="M13955.5389,-3561.4841L13955.9219,-3561.8668L13956.4148,-3562.1498L13957.0114,-3562.4928L13957.0312,-3562.4984"/>
<path content="AP030,1,28,1,0,15,1,8,JPN" xlink:title="AP030" d="M13954.7256,-3561.9598L13955.5389,-3561.4841"/>
<path content="AP030,1,28,1,0,15,1,8,JPN" xlink:title="AP030" d="M13955.5389,-3561.4841L13955.9616,-3561.2373"/>
<path content="AP030,1,28,1,0,15,1,8,JPN" xlink:title="AP030" d="M13954.2847,-3561.1649L13955.9616,-3561.2373"/>
<path content="AP030,1,28,1,0,15,1,8,JPN" xlink:title="AP030" d="M13954.2847,-3561.1649L13954.4556,-3561.4735L13954.7256,-3561.9598"/>
<path content="AP030,1,28,1,0,15,1,8,JPN" xlink:title="AP030" d="M13952.5192,-3561.1649L13954.2847,-3561.1649"/>
<path content="AP030,1,28,1,0,16,1,8,JPN" xlink:title="AP030" d="M13934.1293,-3561.5398L13934.1095,-3561.5265L13934.0393,-3561.4132L13934.0195,-3561.2732L13933.9493,-3561.0397L13933.8104,-3560.6598"/>
<path content="AP030,1,28,1,0,15,1,8,JPN" xlink:title="AP030" d="M13951.3718,-3560.3703L13952.2537,-3560.5148L13952.5192,-3561.1649"/>
<path content="AP030,1,28,1,0,15,1,8,JPN" xlink:title="AP030" d="M13951.3718,-3560.3703L13952.5192,-3561.1649"/>
<path content="AP030,1,28,1,0,15,1,8,JPN" xlink:title="AP030" d="M13955.9616,-3561.2373L13957.0312,-3560.799"/>
<path content="AP030,1,28,1,0,14,1,8,JPN" xlink:title="AP030" d="M13933.8104,-3560.0666L13933.9905,-3560.1334L13934.0195,-3560.1334L13934.1995,-3560.5331L13934.2194,-3560.5331L13934.3796,-3560.64L13934.4696,-3560.7468L13934.4696,-3560.8601L13934.4498,-3560.9867L13934.2697,-3561.2865L13934.2194,-3561.38L13934.1293,-3561.5398"/>
<path content="AP030,1,28,1,0,14,1,8,JPN" xlink:title="AP030" d="M13933.8104,-3560.6598L13933.8104,-3560.6197L13933.7906,-3560.4599L13933.8104,-3560.2066L13933.8104,-3560.0666"/>
<path content="AP030,1,28,1,0,15,1,8,JPN" xlink:title="AP030" d="M13935.1303,-3560.009L13935.1303,-3561.2373L13936.3663,-3561.1649L13936.8958,-3561.454L13937.5137,-3561.5261L13938.8382,-3562.5378L13940.0589,-3562.4542L13940.9561,-3562.3932L13941.0233,-3562.4653L13941.4856,-3562.9711L13942.3492,-3563.3244L13942.8986,-3563.549L13943.869,-3564.3436L13944.487,-3564.3436L13945.6345,-3564.3436"/>
<path content="AP030,1,28,1,0,15,1,8,JPN" xlink:title="AP030" d="M13933.7692,-3559.7733L13933.934,-3559.8019L13935.1303,-3560.009"/>
<path content="AP030,1,28,1,0,14,1,8,JPN" xlink:title="AP030" d="M13933.8104,-3560.0666L13933.7845,-3559.882L13933.7692,-3559.7733"/>
<path content="AP030,1,28,1,0,14,1,8,JPN" xlink:title="AP030" d="M13930.6107,-3559.6535L13930.7205,-3559.6867L13930.9692,-3559.7198L13931.2698,-3559.7733L13931.5598,-3559.8331L13932.0404,-3559.8331L13932.2403,-3559.8331L13932.8995,-3559.8331L13933.7692,-3559.7733"/>
<path content="AP030,1,28,1,0,15,1,8,JPN" xlink:title="AP030" d="M13928.0594,-3564.3333L13928.1189,-3564.1689L13928.1708,-3564.024L13928.5919,-3562.8487L13929.0695,-3561.0146L13930.0232,-3560.3634L13930.6107,-3559.6535"/>
<path content="AP030,1,28,1,0,15,1,8,JPN" xlink:title="AP030" d="M13946.6934,-3559.4311L13946.7819,-3560.1536L13947.7356,-3560.7929L13947.7524,-3560.804L13949.4293,-3561.5261L13950.1358,-3562.2486L13950.3998,-3562.7544L13950.679,-3563.438L13950.7538,-3563.6211L13950.7538,-3564.127L13950.8301,-3564.2597"/>
<path content="AP030,1,28,1,0,14,1,8,JPN" xlink:title="AP030" d="M13930.0598,-3559.38L13930.2399,-3559.3998L13930.5298,-3559.5978L13930.6107,-3559.6535"/>
<path content="AP030,1,28,1,0,15,1,8,JPN" xlink:title="AP030" d="M13945.6345,-3564.3436L13945.0165,-3563.4769L13944.6503,-3562.9971L13944.5877,-3562.9154L13944.5755,-3562.8986L13944.5755,-3561.5261L13944.8395,-3560.5148L13944.928,-3559.2869"/>
<path content="AP030,1,28,1,0,15,1,8,JPN" xlink:title="AP030" d="M13944.928,-3559.2869L13945.1935,-3559.0698L13945.8115,-3558.8531L13946.6934,-3559.4311"/>
<path content="AP030,1,28,1,0,14,1,8,JPN" xlink:title="AP030" d="M13921.875,-3560.0776L13922.1802,-3560.0666L13922.3297,-3560.0132L13922.4304,-3559.94L13922.4899,-3559.8133L13922.4701,-3559.6535L13922.58,-3559.4532L13922.6105,-3559.1465L13922.7005,-3559.0733L13923.1796,-3558.82"/>
<path content="AP030,1,28,1,0,14,1,8,JPN" xlink:title="AP030" d="M13933.7692,-3559.7733L13933.8104,-3559.6134L13933.8303,-3559.5398L13933.9294,-3559.3266L13934.2896,-3558.7666L13934.3597,-3558.6067"/>
<path content="AP030,1,28,1,0,14,1,8,JPN" xlink:title="AP030" d="M13927.0401,-3558.5533L13927.2903,-3558.4801L13927.3804,-3558.4801L13927.6505,-3558.6067L13927.8305,-3558.6201L13928.0197,-3558.6201L13928.1494,-3558.5667L13928.2394,-3558.5667L13928.4698,-3558.6399L13928.54,-3558.7467L13928.5797,-3558.82L13928.7399,-3559L13928.83,-3559.0733L13929.0207,-3559.1267L13929.1107,-3559.1267L13929.2206,-3559.1465L13929.4296,-3559.1999L13929.6097,-3559.1999L13929.8996,-3559.2335L13930.0598,-3559.38"/>
<path content="AP030,1,28,1,0,14,1,8,JPN" xlink:title="AP030" d="M13934.3597,-3558.6067L13934.4299,-3558.4801"/>
<path content="AP030,1,28,1,0,14,1,8,JPN" xlink:title="AP030" d="M13923.1796,-3558.82L13923.4299,-3558.7997L13923.7701,-3558.7467L13924.1104,-3558.7334L13924.3607,-3558.82L13924.5804,-3558.8932L13924.7192,-3558.9466L13924.7696,-3558.9664L13924.8596,-3558.9664L13924.9893,-3558.9466L13925.0793,-3558.9134L13925.2197,-3558.8734L13925.4898,-3558.7868L13925.6104,-3558.68L13925.7202,-3558.5335L13925.8606,-3558.4801L13925.9293,-3558.4267L13925.9903,-3558.3L13926.1993,-3558.26L13926.2207,-3558.2798L13926.5594,-3558.3866L13926.8295,-3558.4599L13926.9897,-3558.5335L13927.0401,-3558.5533"/>
<path content="AP030,1,28,1,0,15,1,8,JPN" xlink:title="AP030" d="M13949.4415,-3558.2512L13950.2243,-3558.4198L13950.9308,-3559.2869L13951.3718,-3560.3703"/>
<path content="AP030,1,28,1,0,15,1,8,JPN" xlink:title="AP030" d="M13949.4415,-3558.2512L13949.5575,-3558.6388L13949.9237,-3559.8515L13949.942,-3559.9121L13950.3128,-3560.2234L13950.6927,-3560.276L13951.3718,-3560.3703"/>
<path content="AP030,1,28,1,0,14,1,8,JPN" xlink:title="AP030" d="M13923.1796,-3558.82L13923.1796,-3558.6933L13923.1293,-3558.5865L13923.0392,-3558.4599L13922.9904,-3558.3866L13923.0194,-3558.3L13923.1094,-3558.1734L13923.1506,-3558.0997"/>
<path content="AP030,1,28,1,0,15,1,8,JPN" xlink:title="AP030" d="M13947.4518,-3557.7606L13947.7203,-3558.0963L13948.0896,-3558.559L13948.8235,-3558.392L13949.4415,-3558.2512"/>
<path content="AP030,1,28,1,0,15,1,8,JPN" xlink:title="AP030" d="M13946.6934,-3559.4311L13947.4518,-3557.7606"/>
<path content="AP030,1,28,1,0,15,1,8,JPN" xlink:title="AP030" d="M13941.0522,-3557.6843L13942.2714,-3558.382L13943.7668,-3558.7086L13944.928,-3559.2869"/>
<path content="AP030,1,28,1,0,15,1,8,JPN" xlink:title="AP030" d="M13935.1303,-3560.009L13935.7483,-3559.7202L13936.1404,-3559.6191L13937.4252,-3559.2869L13939.4562,-3558.6365L13940.2496,-3558.1306L13941.0522,-3557.6843"/>
<path content="AP030,1,28,1,0,15,1,8,JPN" xlink:title="AP030" d="M13947.5754,-3557.6252L13948.5474,-3558.0585L13949.4415,-3558.2512"/>
<path content="AP030,1,28,1,0,15,1,8,JPN" xlink:title="AP030" d="M13947.4518,-3557.7606L13947.5754,-3557.6252"/>
<path content="AP030,1,28,1,0,15,1,8,JPN" xlink:title="AP030" d="M13947.4518,-3557.7606L13946.0449,-3557.4081"/>
<path content="AP030,1,28,1,0,15,1,8,JPN" xlink:title="AP030" d="M13947.0551,-3557.1983L13947.081,-3557.2346L13947.4518,-3557.7606"/>
<path content="AP030,1,28,1,0,15,1,8,JPN" xlink:title="AP030" d="M13947.0551,-3557.1983L13947.5754,-3557.6252"/>
<path content="AP030,1,28,1,0,15,1,8,JPN" xlink:title="AP030" d="M13946.0449,-3557.4081L13947.0551,-3557.1983"/>
<path content="AP030,1,28,1,0,14,1,8,JPN" xlink:title="AP030" d="M13934.4299,-3558.4801L13934.7198,-3557.6668L13934.8801,-3557.18L13934.9304,-3557.0934L13934.9701,-3557L13934.9503,-3556.7333"/>
<path content="AP030,1,28,1,0,15,1,8,JPN" xlink:title="AP030" d="M13938.6795,-3556.6799L13939.3311,-3556.9553L13941.0522,-3557.6843"/>
<path content="AP030,1,28,1,0,14,1,8,JPN" xlink:title="AP030" d="M13934.3597,-3558.6067L13935.2066,-3558.3424L13935.4706,-3558.26L13935.4904,-3558.2466L13936.1099,-3557.9201L13936.7004,-3557.6134L13937.5198,-3557.2334L13938.2004,-3556.9134L13938.6795,-3556.6799"/>
<path content="AP030,1,28,1,0,14,1,8,JPN" xlink:title="AP030" d="M13921.875,-3556.7012L13921.9696,-3556.7467L13922.0795,-3556.9668L13922.1802,-3557.0732L13922.1802,-3557.1999L13922.4899,-3557.7065L13922.5601,-3557.74L13922.7402,-3557.74L13922.9706,-3558.0265L13923.1506,-3558.0997"/>
<path content="AP030,1,28,1,0,16,1,8,JPN" xlink:title="AP030" d="M13955.423,-3556.039L13955.4306,-3556.0467L13955.5603,-3556.1535L13955.9006,-3556.4068L13956.0394,-3556.5533L13956.2698,-3556.9134L13956.3599,-3557.1667L13956.3995,-3557.4665L13956.4468,-3557.7507L13956.4697,-3557.8865L13956.5598,-3558.3199L13956.6803,-3558.5667L13956.7001,-3558.6399L13956.81,-3558.8398L13956.9702,-3559.0401L13957.0312,-3559.1101"/>
<path content="AP030,1,28,1,0,15,1,8,JPN" xlink:title="AP030" d="M13955.9616,-3561.2373L13955.3177,-3560.3867L13955.3986,-3559.3651L13954.599,-3558.5884L13955.3711,-3556.8825L13955.3818,-3556.8592L13955.423,-3556.039"/>
<path content="AP030,1,28,1,0,15,1,8,JPN" xlink:title="AP030" d="M13945.0165,-3555.9635L13945.2438,-3556.7844L13946.0449,-3557.4081"/>
<path content="AP030,1,28,1,0,15,1,8,JPN" xlink:title="AP030" d="M13945.0165,-3555.9635L13944.664,-3556.4693L13944.046,-3557.336L13944.5755,-3557.7698L13945.723,-3558.2031L13947.0459,-3558.2031L13947.4518,-3557.7606"/>
<path content="AP030,1,28,1,0,14,1,8,JPN" xlink:title="AP030" d="M13955.4306,-3555.8865L13955.7907,-3556.0467L13956.0394,-3556.2267L13956.2195,-3556.3866L13956.2897,-3556.44L13956.4896,-3556.7665L13956.5201,-3556.8199L13956.5598,-3556.8932L13956.8802,-3557.2735L13956.9901,-3557.3997L13957.0312,-3557.4169"/>
<path content="AP030,1,28,1,0,15,1,8,JPN" xlink:title="AP030" d="M13955.423,-3556.039L13955.4306,-3555.8865"/>
<path content="AP030,1,28,1,0,14,1,8,JPN" xlink:title="AP030" d="M13955.1895,-3555.7594L13955.3299,-3555.8334L13955.4306,-3555.8865"/>
<path content="AP030,1,28,1,0,16,1,8,JPN" xlink:title="AP030" d="M13955.1895,-3555.7594L13955.2704,-3555.8865L13955.423,-3556.039"/>
<path content="AP030,1,28,1,0,15,1,8,JPN" xlink:title="AP030" d="M13935.5026,-3555.735L13936.264,-3555.7854L13937.439,-3555.8636L13938.6795,-3556.6799"/>
<path content="AP030,1,28,1,0,15,1,8,JPN" xlink:title="AP030" d="M13934.9503,-3556.7333L13935.5026,-3555.735"/>
<path content="AP030,1,28,1,0,14,1,8,JPN" xlink:title="AP030" d="M13934.9503,-3556.7333L13934.8801,-3556.5666L13934.8602,-3556.5533L13934.7,-3556.3732L13934.6497,-3556.2466L13934.7397,-3555.5931"/>
<path content="AP030,1,28,1,0,15,1,8,JPN" xlink:title="AP030" d="M13945.2805,-3555.4577L13945.546,-3556.0356L13946.3409,-3556.6135L13947.0551,-3557.1983"/>
<path content="AP030,1,28,1,0,15,1,8,JPN" xlink:title="AP030" d="M13945.2805,-3555.4577L13945.0165,-3555.9635"/>
<path content="AP030,1,28,1,0,15,1,8,JPN" xlink:title="AP030" d="M13933.4503,-3555.3009L13934.7397,-3555.5931"/>
<path content="AP030,1,28,1,0,15,1,8,JPN" xlink:title="AP030" d="M13934.4299,-3558.4801L13933.7189,-3556.2527L13933.4503,-3555.3009"/>
<path content="AP030,1,28,1,0,15,1,8,JPN" xlink:title="AP030" d="M13930.0598,-3559.38L13930.5557,-3558.8367L13931.7734,-3557.473L13933.4503,-3555.3009"/>
<path content="AP030,1,28,1,0,15,1,8,JPN" xlink:title="AP030" d="M13943.9575,-3555.0243L13945.0165,-3555.9635"/>
<path content="AP030,1,28,1,0,15,1,8,JPN" xlink:title="AP030" d="M13941.0522,-3557.6843L13942.4561,-3556.9027L13943.074,-3556.1081L13943.9575,-3555.0243"/>
<path content="AP030,1,28,1,0,14,1,8,JPN" xlink:title="AP030" d="M13953.5797,-3554.9866L13953.8101,-3555.0934L13954.3655,-3555.3631L13954.4006,-3555.3799L13954.95,-3555.6332L13955.1895,-3555.7594"/>
<path content="AP030,1,28,1,0,15,1,8,JPN" xlink:title="AP030" d="M13955.4306,-3555.8865L13956.7825,-3555.5462L13957.0312,-3555.4483"/>
<path content="AP030,1,28,1,0,14,1,8,JPN" xlink:title="AP030" d="M13953.36,-3554.8733L13953.5797,-3554.9866"/>
<path content="AP030,1,28,1,0,15,1,8,JPN" xlink:title="AP030" d="M13947.5754,-3557.6252L13948.6359,-3557.8419L13949.9588,-3557.4806L13951.3718,-3557.0473L13951.9897,-3556.1802L13952.4307,-3555.5302L13953.36,-3554.8733"/>
<path content="AP030,1,28,1,0,15,1,8,JPN" xlink:title="AP030" d="M13933.3267,-3554.8641L13933.4503,-3555.3009"/>
<path content="AP030,1,28,1,0,15,1,8,JPN" xlink:title="AP030" d="M13935.5026,-3555.735L13935.5392,-3554.8"/>
<path content="AP030,1,28,1,0,14,1,8,JPN" xlink:title="AP030" d="M13934.7397,-3555.5931L13934.7397,-3555.5599L13934.8801,-3555.4001L13935.3104,-3555.0732L13935.5392,-3554.8"/>
<path content="AP030,1,28,1,0,16,1,8,JPN" xlink:title="AP030" d="M13954.0405,-3554.3732L13954.1107,-3554.4598L13954.4907,-3554.8401L13954.7897,-3555.18L13955.1102,-3555.6332L13955.1895,-3555.7594"/>
<path content="AP030,1,28,1,0,15,1,8,JPN" xlink:title="AP030" d="M13953.5797,-3554.9866L13953.8025,-3554.6909L13954.0405,-3554.3732"/>
<path content="AP030,1,28,1,0,15,1,8,JPN" xlink:title="AP030" d="M13942.9504,-3554.2999L13943.576,-3554.7508L13943.9575,-3555.0243"/>
<path content="AP030,1,28,1,0,14,1,8,JPN" xlink:title="AP030" d="M13938.6795,-3556.6799L13939.2197,-3556.4068L13939.27,-3556.3866L13940.2893,-3555.92L13940.7898,-3555.6866L13941.3605,-3555.4333L13941.7206,-3555.1998L13941.9907,-3555.0198L13942.1997,-3554.8931L13942.8802,-3554.3732L13942.9504,-3554.2999"/>
<path content="AP030,1,28,1,0,15,1,8,JPN" xlink:title="AP030" d="M13945.2805,-3555.4577L13945.2087,-3554.9255L13945.105,-3554.1573"/>
<path content="AP030,1,28,1,0,15,1,8,JPN" xlink:title="AP030" d="M13943.9575,-3555.0243L13944.6381,-3554.5097L13945.105,-3554.1573"/>
<path content="AP030,1,28,1,0,15,1,8,JPN" xlink:title="AP030" d="M13933.0994,-3554.055L13933.3267,-3554.8641"/>
<path content="AP030,1,28,1,0,14,1,8,JPN" xlink:title="AP030" d="M13935.5392,-3554.8L13936.0199,-3554.1931L13936.0596,-3554.1332L13936.1298,-3553.8864L13936.1298,-3553.8334"/>
<path content="AP030,1,28,1,0,15,1,8,JPN" xlink:title="AP030" d="M13943.9301,-3553.3264L13944.899,-3554.0115L13944.899,-3554.0119L13945.105,-3554.1573"/>
<path content="AP030,1,28,1,0,14,1,8,JPN" xlink:title="AP030" d="M13942.9504,-3554.2999L13943.1305,-3554.1332L13943.2007,-3554.0665L13943.4006,-3553.8334L13943.6096,-3553.6133L13943.7195,-3553.5065L13943.9148,-3553.339L13943.9301,-3553.3264"/>
<path content="AP030,1,28,1,0,15,1,8,JPN" xlink:title="AP030" d="M13931.7978,-3553.1311L13933.0994,-3554.055"/>
<path content="AP030,1,28,1,0,15,1,8,JPN" xlink:title="AP030" d="M13927.0401,-3558.5533L13927.6367,-3557.7217L13927.6596,-3556.6479L13928.3646,-3555.891L13929.0024,-3555.3375L13929.7623,-3554.8882L13930.8487,-3553.8296L13931.7978,-3553.1311"/>
<path content="AP030,1,28,1,0,14,1,8,JPN" xlink:title="AP030" d="M13923.1506,-3558.0997L13923.2407,-3557.9399L13923.3093,-3557.8465L13923.4299,-3557.7198L13923.4695,-3557.5798L13923.5794,-3557.2201L13923.6496,-3557.1266L13923.8602,-3557.0732L13924.4507,-3556.6399L13924.6094,-3556.6399L13924.9695,-3556.6601L13925.3799,-3556.6601L13925.5402,-3556.62L13925.8606,-3556.5666L13926.1093,-3556.5666L13926.2405,-3556.5334L13926.4496,-3556.44L13926.4297,-3556.3866L13926.3992,-3556.3L13926.3992,-3556.1001L13926.3596,-3556.0265L13926.0803,-3555.8468L13926.0605,-3555.7198L13926.0803,-3555.5798L13926.2207,-3555.3467L13926.3107,-3555.1998L13926.2894,-3554.8401L13926.1307,-3554.62L13926.1093,-3554.4598L13926.1093,-3554.3732L13926.1307,-3554.2065L13926.1993,-3554.0798L13926.3306,-3554.0466L13926.5396,-3554.0665L13926.6998,-3554.0665L13926.77,-3554.0466L13926.86,-3553.9532L13927.0401,-3553.7731L13927.3605,-3553.3264L13927.4704,-3553.1799L13927.5406,-3553.1265L13927.6093,-3553.1067L13927.7206,-3553.1265L13927.9495,-3553.2532L13928.0594,-3553.2734L13928.1296,-3553.2734L13928.1494,-3553.1799L13928.1097,-3553.0731L13928.0838,-3553.0258"/>
<path content="AP030,1,28,1,0,14,1,8,JPN" xlink:title="AP030" d="M13936.1298,-3553.8334L13936.1496,-3553.4534L13936.2,-3553.0197"/>
<path content="AP030,1,28,1,0,15,1,8,JPN" xlink:title="AP030" d="M13933.3267,-3554.8641L13935.173,-3553.4294L13936.2,-3553.0197"/>
<path content="AP030,1,28,1,0,15,1,8,JPN" xlink:title="AP030" d="M13921.875,-3554.6146L13921.9803,-3554.3739L13921.9803,-3553.4351L13922.7737,-3553.6518L13923.3917,-3552.8568"/>
<path content="AP030,1,28,1,0,15,1,8,JPN" xlink:title="AP030" d="M13929.0146,-3552.7683L13931.7978,-3553.1311"/>
<path content="AP030,1,28,1,0,15,1,8,JPN" xlink:title="AP030" d="M13928.0838,-3553.0258L13929.0146,-3552.7683"/>
<path content="AP030,1,28,1,0,15,1,8,JPN" xlink:title="AP030" d="M13936.8774,-3552.7367L13937.6236,-3552.8938L13938.4338,-3553.0643L13939.3585,-3553.7926L13942.1097,-3553.8799L13942.9504,-3554.2999"/>
<path content="AP030,1,28,1,0,15,1,8,JPN" xlink:title="AP030" d="M13936.1298,-3553.8334L13937.0483,-3553.5568L13936.8774,-3552.7367"/>
<path content="AP030,1,28,1,0,15,1,8,JPN" xlink:title="AP030" d="M13936.2,-3553.0197L13936.8774,-3552.7367"/>
<path content="AP030,1,28,1,0,15,1,8,JPN" xlink:title="AP030" d="M13933.0994,-3554.055L13932.6599,-3552.496"/>
<path content="AP030,1,28,1,0,15,1,8,JPN" xlink:title="AP030" d="M13931.7978,-3553.1311L13932.6599,-3552.496"/>
<path content="AP030,1,28,1,0,15,1,8,JPN" xlink:title="AP030" d="M13954.0405,-3554.3732L13954.8935,-3552.66L13955.8411,-3552.1599L13957.0312,-3552.3005"/>
<path content="AP030,1,28,1,0,15,1,8,JPN" xlink:title="AP030" d="M13929.0146,-3552.7683L13929.1595,-3552.1351"/>
<path content="AP030,1,28,1,0,14,1,8,JPN" xlink:title="AP030" d="M13928.0838,-3553.0258L13928.0197,-3552.9133L13927.9907,-3552.7134L13928.0594,-3552.4998L13928.1494,-3552.3865L13928.4698,-3552.2465L13929.0207,-3552.2266L13929.0604,-3552.2064L13929.1595,-3552.1351"/>
<path content="AP030,1,28,1,0,14,1,8,JPN" xlink:title="AP030" d="M13943.9301,-3553.3264L13944.5404,-3552.8732L13944.7693,-3552.66L13944.8303,-3552.5665L13945.0394,-3552.3197L13945.4895,-3551.6865"/>
<path content="AP030,1,28,1,0,15,1,8,JPN" xlink:title="AP030" d="M13932.6599,-3552.496L13934.0714,-3551.1955"/>
<path content="AP030,1,28,1,0,14,1,8,JPN" xlink:title="AP030" d="M13936.2,-3552.6932L13935.9695,-3551.8867L13935.9299,-3551.4866L13935.9299,-3551.1265L13935.9497,-3550.9666"/>
<path content="AP030,1,28,1,0,15,1,8,JPN" xlink:title="AP030" d="M13934.0714,-3551.1955L13935.9497,-3550.9666"/>
<path content="AP030,1,28,1,0,14,1,8,JPN" xlink:title="AP030" d="M13947.5601,-3550.9266L13947.7005,-3551.0933L13948.4497,-3551.8867L13948.4894,-3551.9398L13948.6496,-3552.1332L13949.1104,-3552.4799L13949.3805,-3552.6798L13949.5193,-3552.7332L13949.9695,-3552.84L13950.1099,-3552.8934L13950.1801,-3552.9465L13950.2914,-3553.0407L13950.3296,-3553.0731L13951.1505,-3553.7399L13951.2207,-3553.7933L13951.4893,-3553.9932L13951.7899,-3554.1199L13952.124,-3554.2805L13952.7206,-3554.5666L13953.36,-3554.8733"/>
<path content="AP030,1,28,1,0,14,1,8,JPN" xlink:title="AP030" d="M13945.4895,-3551.6865L13945.6802,-3551.4866L13945.7397,-3551.4332L13946.1304,-3551.4L13946.5607,-3551.3599L13946.7697,-3551.3466L13947.02,-3551.3065L13947.1298,-3551.2733L13947.2,-3551.2199L13947.2641,-3551.1635L13947.3297,-3551.1066L13947.5204,-3550.9666L13947.5601,-3550.9266"/>
<path content="AP030,1,28,1,0,16,1,8,JPN" xlink:title="AP030" d="M13948.3703,-3550.7812L13948.5199,-3550.9865L13948.6496,-3551.1665L13948.8998,-3551.3466L13949.3103,-3551.5266L13949.8306,-3551.72L13950.1495,-3551.9199L13950.3296,-3552.0466L13950.65,-3552.3533L13950.9293,-3552.5532L13951.1307,-3552.6798L13951.2146,-3552.7119L13951.4496,-3552.8L13951.6495,-3552.8934L13952.33,-3553.1067L13952.8305,-3553.3066L13953.0807,-3553.4332L13953.27,-3553.5267L13953.4897,-3553.7197L13953.7003,-3553.9532L13953.83,-3554.1534L13954.0405,-3554.3732"/>
<path content="AP030,1,28,1,0,14,1,8,JPN" xlink:title="AP030" d="M13947.5601,-3550.9266L13947.7203,-3550.8198L13947.7892,-3550.7812"/>
<path content="AP030,1,28,1,0,14,1,8,JPN" xlink:title="AP030" d="M13947.5601,-3550.9266L13947.4503,-3550.8198L13947.4149,-3550.7812"/>
<path content="AP030,1,28,1,0,15,1,8,JPN" xlink:title="AP030" d="M13945.4895,-3551.6865L13945.369,-3551.0509L13945.4285,-3550.8801L13945.4631,-3550.7812"/>
<path content="AP030,1,28,1,0,15,1,8,JPN" xlink:title="AP030" d="M13955.2831,-3550.7812L13955.5252,-3550.9464L13955.7846,-3551.123L13957.0312,-3552.0362"/>
<path content="AP030,1,28,1,0,15,1,8,JPN" xlink:title="AP030" d="M13943.9301,-3553.3264L13943.6798,-3553.1261L13943.074,-3552.6402L13942.9886,-3552.3235L13942.8986,-3551.9901L13942.5446,-3551.123L13941.9412,-3550.7812"/>
<path content="AP030,1,28,1,0,15,1,8,JPN" xlink:title="AP030" d="M13936.8774,-3552.7367L13937.8967,-3551.7788L13938.472,-3551.0986L13938.7396,-3550.7812"/>
<path content="AP030,1,28,1,0,14,1,8,JPN" xlink:title="AP030" d="M13929.1595,-3552.1351L13929.1794,-3552.1198L13929.1504,-3552.0466L13929.0802,-3551.9531L13929.0802,-3551.8997L13929.3304,-3551.8665L13929.5593,-3551.6533L13930.0598,-3551.2333L13930.4001,-3550.9666L13930.6441,-3550.7813"/>
<path content="AP030,1,28,1,0,15,1,8,JPN" xlink:title="AP030" d="M13934.0714,-3551.1955L13934.2405,-3550.7812"/>
<path content="AP030,1,28,1,0,15,1,8,JPN" xlink:title="AP030" d="M13923.3917,-3552.8568L13924.971,-3551.0479L13925.2161,-3550.7813"/>
<path content="AP030,1,28,1,0,14,1,8,JPN" xlink:title="AP030" d="M13935.9497,-3550.9666L13935.9695,-3550.8598L13935.9899,-3550.7812"/>
<path content="AP030,1,28,1,0,15,1,8,JPN" xlink:title="AP030" d="M13923.3917,-3552.8568L13923.4802,-3552.3514L13923.1277,-3551.4122L13922.9732,-3550.7812"/>
<path content="AP030,1,28,1,1,16,1,8,JPN" xlink:title="AP030" d="M13925.3296,-3564.0999L13925.7649,-3563.54L13925.8916,-3563.1251L13926.4297,-3562.2799L13926.6292,-3561.6299L13926.5312,-3561.0018L13926.8424,-3559.9589L13928.087,-3559.6362L13928.6229,-3559.2098L13929.3316,-3558.1438L13930.7318,-3556.6803L13931.6076,-3555.4645L13931.8957,-3554.871L13932.132,-3554.2832L13932.495,-3553.7358L13933.3305,-3553.1712L13934.0046,-3552.8658L13935.399,-3552.3299"/>
<path content="AP030,1,28,1,1,16,1,8,JPN" xlink:title="AP030" d="M13935.399,-3552.3299L13935.7678,-3552.7793L13936.2,-3552.6932"/>
<path content="AP030,1,28,1,1,16,1,8,JPN" xlink:title="AP030" d="M13935.399,-3552.3299L13935.7851,-3552.0072L13936.5533,-3550.7813"/>
<path content="AP030,1,28,1,0,16,1,8,JPN" xlink:title="AP030" d="M13925.0595,-3564.1533L13925.3296,-3564.0999"/>
<path content="AP030,1,28,1,0,14,1,8,JPN" xlink:title="AP030" d="M13936.2,-3553.0197L13936.2,-3552.6932"/>
</g>
</svg>
