<?xml version="1.0" encoding="UTF-8"?>
<svg  xmlns="http://www.w3.org/2000/svg" xmlns:xlink="http://www.w3.org/1999/xlink" xmlns:go="http://purl.org/svgmap/profile" property="f_code,acc,exs,rst,med,rtt,RSU,loc,soc" viewBox="13007.8125 -3339.84375 35.15625 35.15625" go:dataArea="13007.8125 -3339.84375 35.15625 35.15625" >
<metadata>
 <rdf:RDF xmlns:rdf="http://www.w3.org/1999/02/22-rdf-syntax-ns#" xmlns:crs="http://opengis.org/xmldtds/transformations.dtd" xmlns:svg="http://www.w3.org/svg" >
  <rdf:Description>
   <crs:CoordinateReferenceSystem rdf:resource="http://purl.org/crs/84" svg:transform="matrix(100.0,0.0,0.0,-100.0,0.0,0.0)" />
  </rdf:Description>
 </rdf:RDF>
</metadata>
<globalCoordinateSystem srsName="http://purl.org/crs/84" transform="matrix(100.0,0.0,0.0,-100.0,0.0,0.0)" />
<defs>
 <g id="p0" >
  <circle cx="0.0" cy="0.0" r="3" stroke="green" stroke-width="2.0" vector-effect="non-scaling-stroke" />
 </g>
</defs>
<g fill="none" fill-rule="evenodd" stroke="#00ff00" stroke-width="2" opacity="0.5" vector-effect="non-scaling-stroke" stroke-linejoin="bevel" >
<path content="AP030,1,28,1,0,15,1,8,JPN" xlink:title="AP030" d="M13031.9573,-3339.8438L13031.7673,-3339.6114"/>
<path content="AP030,1,28,1,0,15,1,8,JPN" xlink:title="AP030" d="M13031.3407,-3339.8437L13031.7673,-3339.6114"/>
<path content="AP030,1,28,1,0,15,1,8,JPN" xlink:title="AP030" d="M13031.7673,-3339.6114L13031.7688,-3339.6103L13032.1259,-3339.336L13032.2449,-3339.1308L13032.1655,-3338.6169L13032.0465,-3338.3087L13032.1625,-3338.0344"/>
<path content="AP030,1,28,1,0,14,1,8,JPN" xlink:title="AP030" d="M13027.1103,-3339.8438L13027.1103,-3339.7064L13026.9897,-3339.3066L13026.8295,-3339.22L13026.77,-3339.18L13026.68,-3339.1266L13026.5396,-3339.1266L13026.5198,-3339.0732L13026.5198,-3339.0202L13026.5198,-3338.9668L13026.2894,-3338.8401L13026.1795,-3338.8199L13026.1505,-3338.6066L13026.0193,-3338.4998L13025.8804,-3338.2999L13025.8102,-3338.1733L13025.7904,-3338.0798L13025.9705,-3338.1001L13025.9903,-3338.0466L13025.9506,-3337.92"/>
<path content="AP030,1,28,1,0,14,1,8,JPN" xlink:title="AP030" d="M13040.795,-3339.8438L13040.9302,-3339.7202L13041.0599,-3339.6133L13041.1102,-3339.4531L13041.1102,-3339.1666L13040.8997,-3338.9668L13040.86,-3338.8401L13040.8997,-3338.7333L13040.86,-3338.66L13040.7196,-3338.6066L13040.5807,-3338.62L13040.4907,-3338.6932L13040.3107,-3338.7135L13040.2405,-3338.6799L13040.1794,-3338.5532L13040.0803,-3338.5334L13040.0192,-3338.5864L13039.83,-3338.7135L13039.7202,-3338.7135L13039.7705,-3338.5532L13039.9506,-3338.48L13039.9902,-3338.4266L13040.0192,-3338.2267L13040.0803,-3338.1733L13040.3595,-3338.0798L13040.4495,-3338.0135L13040.4694,-3337.8666L13040.4495,-3337.6331L13040.4694,-3337.5065L13040.3793,-3337.4866L13040.3305,-3337.5401L13040.3305,-3337.7399L13040.2405,-3337.7602L13040.1993,-3337.7201L13040.1794,-3337.6133L13039.9506,-3337.5401L13039.9002,-3337.4866L13039.9002,-3337.4134L13039.8804,-3337.3466L13039.8804,-3337.3444"/>
<path content="AP030,1,28,1,0,15,1,8,JPN" xlink:title="AP030" d="M13036.5864,-3339.8438L13036.6089,-3339.8052L13037.59,-3339.0678L13038.0188,-3338.7226L13038.4949,-3338.7447L13039.09,-3338.1653L13039.9475,-3337.5397L13039.8972,-3337.4863L13039.8972,-3337.413L13039.8773,-3337.3463L13039.8804,-3337.3444"/>
<path content="AP030,1,28,1,0,15,1,8,JPN" xlink:title="AP030" d="M13030.5542,-3336.9583L13031.604,-3337.1727L13032.1625,-3338.0344"/>
<path content="AP030,1,28,1,0,15,1,8,JPN" xlink:title="AP030" d="M13031.7673,-3339.6114L13031.7673,-3339.6103L13031.3736,-3339.1972L13030.9998,-3338.7249L13030.4626,-3338.2767L13030.3284,-3337.5191L13030.5542,-3336.9583"/>
<path content="AP030,1,28,1,0,14,1,8,JPN" xlink:title="AP030" d="M13022.1295,-3339.8438L13022.0398,-3339.6534L13021.8994,-3339.6133L13021.8307,-3339.4665L13021.7194,-3339.36L13021.6995,-3339.0732L13021.5393,-3339.0202L13021.3303,-3338.7333L13021.2692,-3338.3202L13021.1807,-3338.1931L13021.0403,-3338.0135L13020.9,-3337.9734L13020.7199,-3337.7731L13020.7199,-3337.6133L13020.5795,-3337.4535L13020.61,-3337.1265L13020.52,-3336.8935L13020.2698,-3336.7867L13020.2698,-3336.6199"/>
<path content="AP030,1,28,1,0,14,1,8,JPN" xlink:title="AP030" d="M13025.9506,-3337.92L13025.8804,-3337.7731L13025.7004,-3337.4332L13025.6805,-3337.3264L13025.6805,-3337.22L13025.7706,-3337.1468L13025.8301,-3337.0201L13025.7706,-3336.8401L13025.6805,-3336.6932L13025.6805,-3336.4803"/>
<path content="AP030,1,28,1,0,14,1,8,JPN" xlink:title="AP030" d="M13025.6805,-3336.4803L13025.6775,-3336.4799L13025.65,-3336.4799"/>
<path content="AP030,1,28,1,0,14,1,8,JPN" xlink:title="AP030" d="M13025.9506,-3337.92L13025.7706,-3337.8666L13025.65,-3337.7934L13025.5402,-3337.6534L13025.4898,-3337.5267L13025.4501,-3337.36L13025.4501,-3337.2532L13025.47,-3337.1468L13025.5203,-3336.9667L13025.5203,-3336.7867L13025.4669,-3336.4452"/>
<path content="AP030,1,28,1,0,15,1,8,JPN" xlink:title="AP030" d="M13023.9868,-3336.4403L13023.8739,-3336.6631L13023.8937,-3336.8195L13024.1653,-3336.8656L13024.6445,-3336.6199L13025.238,-3336.5059L13025.4669,-3336.4452"/>
<path content="AP030,1,28,1,0,15,1,8,JPN" xlink:title="AP030" d="M13025.4669,-3336.4452L13025.5371,-3336.4265L13025.647,-3336.4799L13025.65,-3336.4799"/>
<path content="AP030,1,28,1,0,14,1,8,JPN" xlink:title="AP030" d="M13020.2698,-3336.6199L13020.43,-3336.6199L13020.9,-3336.5131L13021.2006,-3336.3731"/>
<path content="AP030,1,28,1,0,14,1,8,JPN" xlink:title="AP030" d="M13025.65,-3336.4799L13025.5402,-3336.4265L13025.4501,-3336.3335"/>
<path content="AP030,1,28,1,0,14,1,8,JPN" xlink:title="AP030" d="M13025.4669,-3336.4452L13025.4501,-3336.3335"/>
<path content="AP030,1,28,1,0,14,1,8,JPN" xlink:title="AP030" d="M13021.2006,-3336.3731L13021.4294,-3336.4067L13021.5195,-3336.4265L13021.6995,-3336.4067L13021.8994,-3336.4067L13022.02,-3336.4601L13022.2198,-3336.5868L13022.4899,-3336.6066L13022.7707,-3336.5131L13022.9706,-3336.5334L13023.3795,-3336.2999L13023.5199,-3336.2999L13023.79,-3336.4601L13023.9868,-3336.4403"/>
<path content="AP030,1,28,1,0,15,1,8,JPN" xlink:title="AP030" d="M13041.9882,-3339.8438L13042.2226,-3339.3917L13042.9688,-3338.5242"/>
<path content="AP030,1,28,1,0,15,1,8,JPN" xlink:title="AP030" d="M13010.5646,-3339.8438L13010.5011,-3339.6709L13010.4385,-3339.1644L13010.4767,-3339.0007L13010.7346,-3338.8264L13010.8734,-3338.5803L13010.8795,-3338.2469L13010.701,-3337.9425L13010.6613,-3337.6808L13010.7697,-3337.1132L13010.6262,-3336.6753L13010.2921,-3335.9833"/>
<path content="AP030,1,28,1,0,15,1,8,JPN" xlink:title="AP030" d="M13025.6805,-3336.4803L13026.2177,-3336.5807L13026.6815,-3336.8866L13027.3773,-3336.8038L13027.7115,-3336.3461L13028.3478,-3336.2137L13029.0466,-3335.8875L13029.541,-3336.1629L13030.043,-3336.4723L13030.2795,-3336.9022L13030.5542,-3336.9583"/>
<path content="AP030,1,28,1,0,16,1,8,JPN" xlink:title="AP030" d="M13041.3561,-3335.6005L13041.7368,-3335.6428L13042.8522,-3335.8331L13042.9688,-3335.8657"/>
<path content="AP030,1,28,1,0,15,1,8,JPN" xlink:title="AP030" d="M13039.8804,-3337.3444L13040.8218,-3336.4986L13041.3561,-3335.6005"/>
<path content="AP030,1,28,1,0,16,1,8,JPN" xlink:title="AP030" d="M13039.9124,-3335.4023L13040.4512,-3335.5L13041.3561,-3335.6005"/>
<path content="AP030,1,28,1,0,14,1,8,JPN" xlink:title="AP030" d="M13039.8804,-3337.3444L13039.9002,-3336.66L13039.8804,-3336.4265L13039.9002,-3336.2999L13040.0192,-3336.1332L13040.0803,-3336.0268L13040.1093,-3335.8467L13039.9506,-3335.5598L13039.9124,-3335.4023"/>
<path content="AP030,1,28,1,0,15,1,8,JPN" xlink:title="AP030" d="M13041.6412,-3335.1122L13042.47,-3335.289L13042.9688,-3335.4248"/>
<path content="AP030,1,28,1,0,15,1,8,JPN" xlink:title="AP030" d="M13041.3561,-3335.6005L13041.4871,-3335.3802L13041.6412,-3335.1122"/>
<path content="AP030,1,28,1,0,15,1,8,JPN" xlink:title="AP030" d="M13011.5005,-3335.0521L13011.7859,-3335.2291L13012.0911,-3335.2413L13012.6022,-3335.2104L13013.0463,-3335.4172L13014.1205,-3336.3777L13015.0391,-3336.8389L13015.5548,-3336.6261L13016.4856,-3336.2831L13016.6733,-3335.9352L13016.8671,-3335.5423L13017.0517,-3335.3764L13017.5217,-3335.3725L13018.0939,-3335.5747L13018.4662,-3336.2152L13018.721,-3336.3438L13019.5801,-3336.2827L13020.1202,-3336.4517L13020.2698,-3336.6199"/>
<path content="AP030,1,28,1,0,15,1,8,JPN" xlink:title="AP030" d="M13010.2921,-3335.9833L13011.5005,-3335.0521"/>
<path content="AP030,1,28,1,0,14,1,8,JPN" xlink:title="AP030" d="M13039.9124,-3335.4023L13039.8605,-3335.1799L13039.7953,-3334.9742"/>
<path content="AP030,1,28,1,0,15,1,8,JPN" xlink:title="AP030" d="M13039.7953,-3334.9742L13040.73,-3334.964L13041.34,-3335.048L13041.6412,-3335.1122"/>
<path content="AP030,1,28,1,0,15,1,8,JPN" xlink:title="AP030" d="M13037.1597,-3334.7786L13037.6358,-3334.8125L13038.15,-3334.9152L13038.9832,-3334.9831L13039.7953,-3334.9742"/>
<path content="AP030,1,28,1,0,16,1,8,JPN" xlink:title="AP030" d="M13037.1597,-3334.7786L13038.0402,-3335.0533L13038.8596,-3335.22L13039.1998,-3335.2867L13039.7705,-3335.4L13039.9124,-3335.4023"/>
<path content="AP030,1,28,1,0,15,1,8,JPN" xlink:title="AP030" d="M13036.6226,-3334.7446L13036.9217,-3334.7786L13037.1597,-3334.7786"/>
<path content="AP030,1,28,1,0,15,1,8,JPN" xlink:title="AP030" d="M13032.1625,-3338.0344L13032.4036,-3337.8975L13033.1955,-3337.1437L13033.5922,-3336.8351L13033.989,-3336.4925L13034.4238,-3336.4922L13034.8602,-3336.4922L13035.6537,-3336.3892L13036.0901,-3335.841L13036.5646,-3335.0185L13036.6226,-3334.7446"/>
<path content="AP030,1,28,1,0,16,1,8,JPN" xlink:title="AP030" d="M13036.6837,-3334.6073L13037.1597,-3334.7786"/>
<path content="AP030,1,28,1,0,15,1,8,JPN" xlink:title="AP030" d="M13036.6226,-3334.7446L13036.6837,-3334.6073"/>
<path content="AP030,1,28,1,0,16,1,8,JPN" xlink:title="AP030" d="M13035.6506,-3334.0801L13035.7697,-3334.1331L13036.6837,-3334.6073"/>
<path content="AP030,1,28,1,0,15,1,8,JPN" xlink:title="AP030" d="M13036.6226,-3334.7446L13036.0489,-3334.4707L13035.6506,-3334.0801"/>
<path content="AP030,1,28,1,0,15,1,8,JPN" xlink:title="AP030" d="M13041.6412,-3335.1122L13041.7557,-3334.913L13041.8472,-3334.6367L13042.1997,-3333.9931L13042.3279,-3333.7601"/>
<path content="AP030,1,28,1,0,14,1,8,JPN" xlink:title="AP030" d="M13042.3279,-3333.7601L13042.3294,-3333.7601L13042.4301,-3333.7601L13042.8604,-3333.7734L13042.9688,-3333.8294"/>
<path content="AP030,1,28,1,0,16,1,8,JPN" xlink:title="AP030" d="M13032.7011,-3333.5388L13032.9498,-3333.6533L13033.2001,-3333.8135L13033.4,-3333.8665L13033.7692,-3333.8135L13034.3094,-3333.7601L13034.5596,-3333.7734L13034.9899,-3333.8665L13035.3104,-3333.9733L13035.6506,-3334.0801"/>
<path content="AP030,1,28,1,0,15,1,8,JPN" xlink:title="AP030" d="M13030.5542,-3336.9583L13030.7739,-3336.3155L13031.1081,-3335.6373L13031.6177,-3335.0124L13032.428,-3334.3567L13032.7011,-3333.5388"/>
<path content="AP030,1,28,1,0,14,1,8,JPN" xlink:title="AP030" d="M13042.3279,-3333.7601L13042.0395,-3333.7399L13041.8793,-3333.6533L13041.7694,-3333.58L13041.6504,-3333.54L13041.4505,-3333.3797L13041.3101,-3333.2199L13041.2201,-3333.0933"/>
<path content="AP030,1,28,1,0,15,1,8,JPN" xlink:title="AP030" d="M13041.2201,-3333.0933L13042.3303,-3332.2391"/>
<path content="AP030,1,28,1,0,14,1,8,JPN" xlink:title="AP030" d="M13025.4501,-3336.3335L13025.3799,-3336.1332L13025.3296,-3335.7933L13024.8993,-3335.2333L13024.8596,-3335.1265L13024.8795,-3335.0399L13024.9695,-3334.9133L13025.0198,-3334.8L13024.8596,-3334.5665L13024.8596,-3334.5001L13024.8596,-3334.3334L13024.9298,-3334.3201L13025.1801,-3334.3533L13025.3601,-3334.3533L13025.56,-3334.2464L13025.7706,-3334.0134L13025.9903,-3333.8135L13026.0803,-3333.6533L13026.1993,-3333.5064L13026.3107,-3333.3065L13026.3596,-3333.2333L13026.5396,-3333.1799L13026.7197,-3333.1066L13026.8097,-3333.02L13026.8997,-3332.7663L13026.9302,-3332.7133"/>
<path content="AP030,1,28,1,0,14,1,8,JPN" xlink:title="AP030" d="M13023.9868,-3336.4403L13023.9899,-3336.4399L13024.1104,-3336.2999L13024.3301,-3336.1534L13024.5804,-3336.1732L13024.7894,-3336.2064L13024.8993,-3336.1935L13024.9893,-3336.1L13024.8596,-3335.8334L13024.5804,-3335.4L13024.5605,-3335.2734L13024.5804,-3334.8598L13024.6094,-3334.6401L13024.5605,-3334.3533L13024.6307,-3334.2068L13024.8093,-3334.0801L13025.0397,-3334.1331L13025.1801,-3334.1202L13025.2701,-3334.0466L13025.4501,-3333.8135L13025.7706,-3333.6533L13025.9293,-3333.5064L13026.0193,-3333.3797L13026.1093,-3333.2531L13026.1795,-3333.1066L13026.3306,-3332.9998L13026.5198,-3332.9666L13026.6098,-3332.8598L13026.6495,-3332.7133L13026.8097,-3332.7133L13026.9302,-3332.7133"/>
<path content="AP030,1,28,1,0,15,1,8,JPN" xlink:title="AP030" d="M13032.7011,-3333.5388L13032.8262,-3333.1676L13032.8751,-3332.143"/>
<path content="AP030,1,28,1,0,15,1,8,JPN" xlink:title="AP030" d="M13035.6506,-3334.0801L13035.3363,-3333.786L13034.3842,-3332.8617L13033.7097,-3332.3826L13032.8781,-3332.143L13032.8751,-3332.143"/>
<path content="AP030,1,28,1,0,14,1,8,JPN" xlink:title="AP030" d="M13039.7953,-3334.9742L13039.74,-3334.8L13039.5798,-3334.28L13039.36,-3333.7601L13039.36,-3333.6533L13039.27,-3333.3065L13039.1998,-3332.9132L13039.1296,-3332.5867L13039.1098,-3332.373L13039.0671,-3332.2353L13039.0198,-3332.0801"/>
<path content="AP030,1,28,1,0,14,1,8,JPN" xlink:title="AP030" d="M13039.0198,-3332.0801L13039.0396,-3332.0801L13039.6805,-3332.2998L13039.8102,-3332.3334L13040.5396,-3332.5867L13040.6799,-3332.6401L13040.9302,-3332.7465L13041.2201,-3333.0933"/>
<path content="AP030,1,28,1,0,16,1,8,JPN" xlink:title="AP030" d="M13027.3087,-3332.0553L13027.8305,-3332.2998L13027.8793,-3332.3334L13028.2394,-3332.5531L13028.7003,-3332.7866L13029.0604,-3332.9132L13029.4693,-3332.9464L13030.3101,-3332.9132L13030.9296,-3332.9132L13031.2195,-3332.9865L13031.72,-3333.1467L13032.4005,-3333.4L13032.7011,-3333.5388"/>
<path content="AP030,1,28,1,0,14,1,8,JPN" xlink:title="AP030" d="M13026.9302,-3332.7133L13027.0203,-3332.4799L13027.1805,-3332.2266L13027.1805,-3332.2063L13027.3087,-3332.0553"/>
<path content="AP030,1,28,1,0,15,1,8,JPN" xlink:title="AP030" d="M13010.2921,-3335.9833L13009.6603,-3335.516L13009.3414,-3334.9499L13009.0118,-3334.7836L13008.2382,-3334.8412L13007.9376,-3334.7301L13007.8125,-3334.4266"/>
<path content="AP030,1,28,1,0,14,1,8,JPN" xlink:title="AP030" d="M13027.3087,-3332.0553L13027.4704,-3331.8665L13027.5406,-3331.76L13027.7206,-3331.5399L13027.7405,-3331.5266"/>
<path content="AP030,1,28,1,0,15,1,8,JPN" xlink:title="AP030" d="M13042.3303,-3332.2391L13042.9688,-3332.4223"/>
<path content="AP030,1,28,1,0,15,1,8,JPN" xlink:title="AP030" d="M13021.2006,-3336.3731L13020.8344,-3335.5343L13020.9229,-3335.2749L13021.4355,-3335.0685L13021.8216,-3334.6779L13022.1741,-3334.5516L13022.1741,-3334.2529L13022.3648,-3333.9241L13022.5128,-3333.6384L13022.2153,-3333.1718L13021.8384,-3332.5886L13022.3022,-3332.0164L13022.2336,-3331.8214L13021.846,-3331.929L13021.5302,-3331.9012L13021.2875,-3331.1264"/>
<path content="AP030,1,28,1,0,15,1,8,JPN" xlink:title="AP030" d="M13011.5005,-3335.0521L13011.351,-3334.219L13010.8994,-3333.7841L13010.2509,-3333.1947L13009.7183,-3332.6767L13008.7326,-3332.1793L13007.8125,-3331.7162"/>
<path content="AP030,1,28,1,0,14,1,8,JPN" xlink:title="AP030" d="M13027.7405,-3331.5266L13027.9297,-3331.2733L13028.0807,-3331.02"/>
<path content="AP030,1,28,1,0,15,1,8,JPN" xlink:title="AP030" d="M13027.7176,-3330.9914L13028.0807,-3331.02"/>
<path content="AP030,1,28,1,0,14,1,8,JPN" xlink:title="AP030" d="M13027.7405,-3331.5266L13027.6993,-3331.3065L13027.7176,-3330.9914"/>
<path content="AP030,1,28,1,0,15,1,8,JPN" xlink:title="AP030" d="M13032.8751,-3332.143L13032.2433,-3332.1434L13031.4499,-3332.2468L13030.896,-3332.3837L13030.4199,-3332.2472L13030.2612,-3331.9733L13030.2216,-3331.7333L13030.4199,-3331.0825L13030.4184,-3330.6717"/>
<path content="AP030,1,28,1,0,15,1,8,JPN" xlink:title="AP030" d="M13028.0807,-3331.02L13028.9917,-3331.0146L13029.6661,-3330.9116L13030.2216,-3330.74L13030.4184,-3330.6717"/>
<path content="AP030,1,28,1,0,16,1,8,JPN" xlink:title="AP030" d="M13021.2875,-3331.1264L13021.2906,-3331.1264L13021.6507,-3331.0734L13022.1497,-3330.9265L13022.9004,-3330.7133L13023.3307,-3330.6599L13023.8098,-3330.6931L13024.2706,-3330.8598L13024.5193,-3330.9666L13024.8993,-3331.2199L13025.2899,-3331.4331L13025.5798,-3331.5266L13026.0605,-3331.6666L13026.68,-3331.813L13027.2202,-3332.0133L13027.3087,-3332.0553"/>
<path content="AP030,1,28,1,0,14,1,8,JPN" xlink:title="AP030" d="M13039.0198,-3332.0801L13038.3606,-3331.9401L13038.1104,-3331.7932L13037.8296,-3331.6334L13037.5793,-3331.4331L13037.2696,-3331.1798L13037.0605,-3331.0532L13036.9904,-3330.8201L13036.9705,-3330.7331L13036.9507,-3330.64"/>
<path content="AP030,1,28,1,0,15,1,8,JPN" xlink:title="AP030" d="M13036.6837,-3334.6073L13036.8423,-3334.2308L13036.882,-3333.614L13036.8027,-3332.3811L13036.8835,-3331.4251L13036.9507,-3330.64"/>
<path content="AP030,1,28,1,0,15,1,8,JPN" xlink:title="AP030" d="M13033.2352,-3330.4932L13033.6304,-3330.5332L13034.3048,-3330.5328L13035.3745,-3330.6007L13035.5789,-3330.6057L13036.9507,-3330.64"/>
<path content="AP030,1,28,1,0,15,1,8,JPN" xlink:title="AP030" d="M13032.8751,-3332.143L13032.8827,-3331.4137L13033.2352,-3330.4932"/>
<path content="AP030,1,28,1,0,15,1,8,JPN" xlink:title="AP030" d="M13030.4184,-3330.6717L13031.1325,-3330.4657L13031.6086,-3330.294L13031.8863,-3330.2601L13032.3608,-3330.328L13032.9559,-3330.4649L13033.2352,-3330.4932"/>
<path content="AP030,1,28,1,0,15,1,8,JPN" xlink:title="AP030" d="M13021.2875,-3331.1264L13021.0388,-3330.5847L13020.5841,-3329.8538"/>
<path content="AP030,1,28,1,0,15,1,8,JPN" xlink:title="AP030" d="M13020.5841,-3329.8538L13021.1426,-3329.8882L13021.7773,-3329.7508L13022.7676,-3329.8531L13023.6404,-3330.1266L13024.5117,-3330.3661L13025.5829,-3330.6396L13027.5558,-3330.9784L13027.7176,-3330.9914"/>
<path content="AP030,1,28,1,0,15,1,8,JPN" xlink:title="AP030" d="M13020.0806,-3329.3465L13020.5841,-3329.8538"/>
<path content="AP030,1,28,1,0,14,1,8,JPN" xlink:title="AP030" d="M13019.9295,-3329.3598L13020.0806,-3329.3465"/>
<path content="AP030,1,28,1,0,16,1,8,JPN" xlink:title="AP030" d="M13007.8125,-3330.8498L13007.8796,-3330.8399L13008.0795,-3330.7865L13008.2199,-3330.7133L13008.7692,-3330.2799L13009.5596,-3329.9534L13010.0601,-3329.8134L13010.5194,-3329.6333L13010.9299,-3329.4533L13011.5204,-3329.1798"/>
<path content="AP030,1,28,1,0,14,1,8,JPN" xlink:title="AP030" d="M13042.2699,-3329.1664L13042.5201,-3329.2198L13042.7002,-3329.3598L13042.9306,-3329.5265L13042.9688,-3329.5566"/>
<path content="AP030,1,28,1,0,15,1,8,JPN" xlink:title="AP030" d="M13042.3303,-3332.2391L13042.2699,-3329.1664"/>
<path content="AP030,1,28,1,0,14,1,8,JPN" xlink:title="AP030" d="M13011.5204,-3329.1798L13011.6501,-3329.2L13011.7706,-3329.2198L13011.8607,-3329.2198L13012.1506,-3329.1466L13012.4893,-3329.0733L13012.6099,-3329.0531"/>
<path content="AP030,1,28,1,0,14,1,8,JPN" xlink:title="AP030" d="M13016.7206,-3329.0199L13016.7694,-3329.0932L13016.8594,-3329.1466L13016.9693,-3329.1466L13017.2394,-3329.1466L13017.6498,-3329.1798L13017.9306,-3329.2198L13018.3105,-3329.2732L13018.8797,-3329.3465L13018.8995,-3329.3465L13019.2902,-3329.3598L13019.4305,-3329.38L13019.8593,-3329.38L13019.9295,-3329.3598"/>
<path content="AP030,1,28,1,0,14,1,8,JPN" xlink:title="AP030" d="M13012.6099,-3329.0531L13012.97,-3329.0398L13013.1866,-3328.9616"/>
<path content="AP030,1,28,1,0,14,1,8,JPN" xlink:title="AP030" d="M13028.0807,-3331.02L13028.1296,-3330.8933L13028.27,-3330.4798L13028.45,-3329.9931L13028.5599,-3329.7398L13028.5599,-3329.6665L13028.6804,-3329.1798L13028.7201,-3328.9131"/>
<path content="AP030,1,28,1,0,14,1,8,JPN" xlink:title="AP030" d="M13027.7176,-3330.9914L13027.7206,-3330.9464L13027.7206,-3330.8933L13027.7893,-3330.5134L13027.9495,-3330.08L13028.1097,-3329.7733L13028.1799,-3329.6665L13028.3295,-3329.3465L13028.54,-3329.0932L13028.5797,-3329.0398L13028.6499,-3328.9467L13028.7201,-3328.9131"/>
<path content="AP030,1,28,1,0,14,1,8,JPN" xlink:title="AP030" d="M13007.8125,-3330.4226L13007.8995,-3330.4066L13008.0399,-3330.3333L13008.0597,-3330.2265L13008.0795,-3330.1331L13008.11,-3330.0667L13008.2199,-3330.0465L13008.3099,-3329.9L13008.4702,-3329.7398L13008.6304,-3329.5265L13008.8593,-3329.3064L13008.9813,-3329.2259L13009.1293,-3329.1264L13009.3994,-3329.0398L13009.4498,-3329.0199L13009.79,-3328.9864L13009.9304,-3328.9665L13010.1105,-3328.9467L13010.1501,-3328.9467L13010.5194,-3328.8933L13010.5804,-3328.8933L13010.6796,-3328.8933L13010.8597,-3328.9265L13011.1801,-3329.0733L13011.2701,-3329.1065L13011.5204,-3329.1798"/>
<path content="AP030,1,28,1,0,15,1,8,JPN" xlink:title="AP030" d="M13012.6099,-3329.0531L13012.2742,-3328.804"/>
<path content="AP030,1,28,1,0,14,1,8,JPN" xlink:title="AP030" d="M13011.5204,-3329.1798L13011.6806,-3329.0398L13011.7004,-3329.0199L13011.8805,-3328.8731L13012.2742,-3328.804"/>
<path content="AP030,1,28,1,0,16,1,8,JPN" xlink:title="AP030" d="M13012.5839,-3328.7041L13012.8296,-3328.8399L13013.0798,-3328.9467L13013.1866,-3328.9616"/>
<path content="AP030,1,28,1,0,14,1,8,JPN" xlink:title="AP030" d="M13012.2742,-3328.804L13012.5839,-3328.7041"/>
<path content="AP030,1,28,1,0,16,1,8,JPN" xlink:title="AP030" d="M13013.1866,-3328.9616L13013.3606,-3328.9864L13013.6505,-3328.9665L13014.0198,-3328.9131L13014.4501,-3328.7998L13015.0604,-3328.693L13015.4495,-3328.693L13015.6097,-3328.7331L13016.0599,-3328.8933L13016.3605,-3329.0733L13016.8304,-3329.3999L13017.2699,-3329.6532L13017.8101,-3329.8332L13018.4692,-3330.0667L13018.6996,-3330.1331L13018.9499,-3330.2601L13019.1498,-3330.4066L13019.3298,-3330.5332L13019.5206,-3330.6599L13020.0195,-3330.9265L13020.6299,-3331.0932L13021.2875,-3331.1264"/>
<path content="AP030,1,28,1,0,14,1,8,JPN" xlink:title="AP030" d="M13013.1866,-3328.9616L13013.4293,-3328.8731L13013.6307,-3328.8399L13013.7695,-3328.82L13014.2197,-3328.7464L13015.0192,-3328.6064L13015.1093,-3328.6064L13015.4495,-3328.5866L13015.77,-3328.6598L13016.1102,-3328.7998L13016.2704,-3328.8731L13016.3605,-3328.8399L13016.5207,-3328.9265L13016.6107,-3329.0199L13016.7206,-3329.0199"/>
<path content="AP030,1,28,1,0,14,1,8,JPN" xlink:title="AP030" d="M13012.5839,-3328.7041L13012.9669,-3328.5797L13013.1104,-3328.5332L13013.7207,-3328.3867L13013.9496,-3328.3199"/>
<path content="AP030,1,28,1,0,14,1,8,JPN" xlink:title="AP030" d="M13040.4007,-3328.26L13040.9302,-3328.4397L13041.6107,-3328.7666L13041.8106,-3328.8731L13041.9296,-3328.9467L13042.0395,-3329.0531L13042.1799,-3329.1264L13042.2699,-3329.1664"/>
<path content="AP030,1,28,1,0,14,1,8,JPN" xlink:title="AP030" d="M13016.7206,-3329.0199L13016.7007,-3328.9997L13016.6779,-3328.9371L13016.6504,-3328.8597L13016.6107,-3328.7865L13016.4703,-3328.64L13016.2399,-3328.553L13016.1804,-3328.3531L13016.0202,-3328.2066L13015.8798,-3328.2066L13015.8096,-3328.2066L13015.5807,-3328.2066L13015.4694,-3328.2066L13015.1306,-3328.2265L13014.7003,-3328.2799L13014.36,-3328.2997L13014.3295,-3328.2997L13014.0594,-3328.2799L13013.9496,-3328.3199"/>
<path content="AP030,1,28,1,0,14,1,8,JPN" xlink:title="AP030" d="M13039.36,-3327.8866L13039.4897,-3327.8999L13039.65,-3327.9198L13039.7903,-3328.0266L13040.0192,-3328.12L13040.4007,-3328.26"/>
<path content="AP030,1,28,1,0,14,1,8,JPN" xlink:title="AP030" d="M13039.2395,-3327.8664L13039.36,-3327.8866"/>
<path content="AP030,1,28,1,0,14,1,8,JPN" xlink:title="AP030" d="M13039.0198,-3332.0801L13038.9893,-3331.9199L13038.8596,-3331.8867L13038.6993,-3331.8333L13038.6993,-3331.7734L13038.7207,-3331.6666L13038.6993,-3331.5933L13038.5193,-3331.4667L13038.4506,-3331.3999L13038.4705,-3331.2866L13038.4293,-3331.2L13038.2202,-3331.1665L13037.7197,-3331.0734L13037.6495,-3331.0532L13037.7197,-3330.8731L13037.7396,-3330.7667L13037.7899,-3330.5664L13037.8098,-3330.5L13037.8601,-3330.2799L13037.9898,-3330.2464L13038.1104,-3330.1331L13038.15,-3330.0266L13038.15,-3329.8664L13038.15,-3329.7199L13038.2706,-3329.5067L13038.3804,-3329.2534L13038.4903,-3328.9997L13038.5193,-3328.8399L13038.5803,-3328.7331L13038.7695,-3328.553L13038.8992,-3328.3867L13038.9694,-3328.2467L13038.9694,-3328.1532L13039.1098,-3328.08L13039.1998,-3327.993L13039.2395,-3327.8664"/>
<path content="AP030,1,28,1,0,15,1,8,JPN" xlink:title="AP030" d="M13030.4184,-3330.6717L13030.3787,-3330.3974L13030.1407,-3329.747L13029.9026,-3329.1306L13029.9026,-3328.7537L13029.9423,-3328.3428L13029.7836,-3328.1029L13029.7348,-3327.5776"/>
<path content="AP030,1,28,1,0,14,1,8,JPN" xlink:title="AP030" d="M13036.9507,-3330.64L13036.7203,-3330.3532L13036.5601,-3330.1731L13036.0596,-3329.6864L13035.8597,-3329.5067L13035.4294,-3329.1264L13034.8999,-3328.6064L13034.4894,-3328.2066L13033.9005,-3327.6531L13033.7875,-3327.5597"/>
<path content="AP030,1,28,1,0,15,1,8,JPN" xlink:title="AP030" d="M13033.2352,-3330.4932L13033.6197,-3329.4895L13033.6563,-3329.0733L13033.7875,-3327.5597"/>
<path content="AP030,1,28,1,0,14,1,8,JPN" xlink:title="AP030" d="M13029.2892,-3327.5066L13029.7348,-3327.5776"/>
<path content="AP030,1,28,1,0,14,1,8,JPN" xlink:title="AP030" d="M13028.7201,-3328.9131L13028.7201,-3328.8731L13028.9703,-3328.6064L13029.1107,-3328.4264L13029.1504,-3328.2997L13029.1504,-3328.1933L13029.1794,-3327.993L13029.2007,-3327.8332L13029.2892,-3327.5066"/>
<path content="AP030,1,28,1,0,14,1,8,JPN" xlink:title="AP030" d="M13033.7875,-3327.5597L13033.6105,-3327.38L13033.5602,-3327.3266"/>
<path content="AP030,1,28,1,0,14,1,8,JPN" xlink:title="AP030" d="M13029.7348,-3327.5776L13030.0201,-3327.6131L13030.6107,-3327.6863L13030.9006,-3327.7199L13031.5598,-3327.6333L13031.8405,-3327.5776L13031.9305,-3327.56L13032.6294,-3327.4532L13033.2703,-3327.38L13033.5602,-3327.3266"/>
<path content="AP030,1,28,1,0,14,1,8,JPN" xlink:title="AP030" d="M13026.9897,-3327.1664L13027.6993,-3327.2533L13028.4698,-3327.3598L13029.2892,-3327.5066"/>
<path content="AP030,1,28,1,0,16,1,8,JPN" xlink:title="AP030" d="M13009.7397,-3327.0931L13010.1807,-3327.1664L13010.6796,-3327.2533L13010.8994,-3327.3598L13011.2198,-3327.4864L13011.47,-3327.6333L13011.7004,-3327.8332L13011.9003,-3328.0464L13012.1994,-3328.3333L13012.2559,-3328.3905L13012.5397,-3328.68L13012.5839,-3328.7041"/>
<path content="AP030,1,28,1,0,15,1,8,JPN" xlink:title="AP030" d="M13012.2742,-3328.804L13011.8927,-3328.5248L13011.618,-3328.3112L13011.3037,-3328.0678L13010.5682,-3327.5848L13009.7397,-3327.0931"/>
<path content="AP030,1,28,1,0,16,1,8,JPN" xlink:title="AP030" d="M13009.4681,-3327.0279L13009.7397,-3327.0931"/>
<path content="AP030,1,28,1,0,15,1,8,JPN" xlink:title="AP030" d="M13029.7348,-3327.5776L13029.6646,-3327.3838L13029.6646,-3327.0412L13029.5059,-3326.5278"/>
<path content="AP030,1,28,1,0,14,1,8,JPN" xlink:title="AP030" d="M13035.4675,-3326.3329L13035.4706,-3326.3332L13035.5804,-3326.3733L13035.6995,-3326.5133L13035.8597,-3326.733L13035.9299,-3327L13035.9894,-3327.1999L13036.0794,-3327.2732L13036.2,-3327.3464L13036.3602,-3327.38L13036.5204,-3327.433L13036.6501,-3327.433L13037.2894,-3327.5066L13037.6297,-3327.5799L13038.0203,-3327.6863L13038.4293,-3327.7199L13039.1495,-3327.8465L13039.2395,-3327.8664"/>
<path content="AP030,1,28,1,0,14,1,8,JPN" xlink:title="AP030" d="M13039.36,-3327.8866L13039.3097,-3327.6333L13039.2899,-3327.4132L13039.3097,-3327.2198L13039.36,-3327.0531L13039.3997,-3326.8932L13039.4897,-3326.7464L13039.5599,-3326.68L13039.6301,-3326.6064L13039.65,-3326.4263L13039.65,-3326.2798L13039.7903,-3326.2264L13039.8102,-3326.2066"/>
<path content="AP030,1,28,1,0,14,1,8,JPN" xlink:title="AP030" d="M13022.6807,-3326.1932L13022.9294,-3326.2264L13023.7,-3326.3733L13024.6094,-3326.5331L13024.9893,-3326.5865L13025.2701,-3326.6064L13025.6104,-3326.6399L13025.8606,-3326.7464L13026.0803,-3326.873L13026.2695,-3326.9466L13026.3107,-3326.9863L13026.5198,-3327.0931L13026.6296,-3327.1465L13026.9897,-3327.1664"/>
<path content="AP030,1,28,1,0,14,1,8,JPN" xlink:title="AP030" d="M13020.0806,-3329.3465L13020.3094,-3329.1466L13020.7001,-3328.68L13021.2402,-3328.0132L13021.4706,-3327.7065L13021.6797,-3327.4532L13021.8307,-3327.2865L13021.9894,-3327.0931L13022.4503,-3326.5133L13022.5403,-3326.4065L13022.6807,-3326.1932"/>
<path content="AP030,1,28,1,0,14,1,8,JPN" xlink:title="AP030" d="M13034.7,-3326.12L13034.8801,-3326.1532L13035.2005,-3326.3L13035.4675,-3326.3329"/>
<path content="AP030,1,28,1,0,15,1,8,JPN" xlink:title="AP030" d="M13035.4813,-3326.0826L13035.4675,-3326.3329"/>
<path content="AP030,1,28,1,0,15,1,8,JPN" xlink:title="AP030" d="M13034.7,-3326.12L13035.4813,-3326.0826"/>
<path content="AP030,1,28,1,0,14,1,8,JPN" xlink:title="AP030" d="M13040.4007,-3328.26L13040.4694,-3328.0132L13040.5197,-3326.9665L13040.5594,-3326.3L13040.567,-3325.951"/>
<path content="AP030,1,28,1,0,15,1,8,JPN" xlink:title="AP030" d="M13035.4813,-3326.0826L13036.0901,-3326.0536L13038.7344,-3326.0525L13039.4913,-3326.0517L13040.567,-3325.951"/>
<path content="AP030,1,28,1,0,15,1,8,JPN" xlink:title="AP030" d="M13042.9688,-3327.4352L13042.218,-3327.2873L13041.449,-3326.5274L13041.2613,-3325.9254"/>
<path content="AP030,1,28,1,0,15,1,8,JPN" xlink:title="AP030" d="M13040.567,-3325.951L13041.2613,-3325.9254"/>
<path content="AP030,1,28,1,0,15,1,8,JPN" xlink:title="AP030" d="M13019.9295,-3329.3598L13019.9921,-3328.5088L13020.1996,-3325.7732"/>
<path content="AP030,1,28,1,0,14,1,8,JPN" xlink:title="AP030" d="M13022.6807,-3326.1932L13022.0398,-3326.0799L13021.7773,-3326.0384L13021.2402,-3325.9533L13021.1502,-3325.9533L13020.5399,-3325.8465L13020.52,-3325.8465L13020.2194,-3325.7732L13020.1996,-3325.7732"/>
<path content="AP030,1,28,1,0,15,1,8,JPN" xlink:title="AP030" d="M13007.8125,-3326.4044L13008.4198,-3326.7471L13009.0378,-3326.9249L13009.4681,-3327.0279"/>
<path content="AP030,1,28,1,0,15,1,8,JPN" xlink:title="AP030" d="M13042.9688,-3325.6673L13042.2699,-3325.6641"/>
<path content="AP030,1,28,1,0,15,1,8,JPN" xlink:title="AP030" d="M13041.2613,-3325.9254L13041.2643,-3325.9254L13042.2699,-3325.6641"/>
<path content="AP030,1,28,1,0,15,1,8,JPN" xlink:title="AP030" d="M13042.2699,-3325.6641L13042.2684,-3325.6622"/>
<path content="AP030,1,28,1,0,14,1,8,JPN" xlink:title="AP030" d="M13040.567,-3325.951L13040.5807,-3325.6531"/>
<path content="AP030,1,28,1,0,15,1,8,JPN" xlink:title="AP030" d="M13033.5602,-3327.3266L13031.5796,-3325.4665"/>
<path content="AP030,1,28,1,0,14,1,8,JPN" xlink:title="AP030" d="M13031.5796,-3325.4665L13032.0602,-3325.4131L13032.1304,-3325.3998L13032.4295,-3325.3464L13032.8995,-3325.4864L13033.6807,-3325.7732L13034.3796,-3326.0265L13034.7,-3326.12"/>
<path content="AP030,1,28,1,0,14,1,8,JPN" xlink:title="AP030" d="M13030.8807,-3325.1064L13031.2195,-3325.1663L13031.3095,-3325.1801L13031.5796,-3325.4665"/>
<path content="AP030,1,28,1,0,14,1,8,JPN" xlink:title="AP030" d="M13030.58,-3325.0845L13030.8807,-3325.1064"/>
<path content="AP030,1,28,1,0,15,1,8,JPN" xlink:title="AP030" d="M13030.5725,-3326.1124L13030.5782,-3325.3952L13030.58,-3325.0845"/>
<path content="AP030,1,28,1,0,14,1,8,JPN" xlink:title="AP030" d="M13030.0385,-3325.0195L13030.04,-3325.0198L13030.58,-3325.0845"/>
<path content="AP030,1,28,1,0,15,1,8,JPN" xlink:title="AP030" d="M13022.6807,-3326.1932L13022.9355,-3325.5386L13023.1506,-3324.9866"/>
<path content="AP030,1,28,1,0,14,1,8,JPN" xlink:title="AP030" d="M13023.1506,-3324.9866L13023.5794,-3325.0198L13023.7,-3324.9866L13023.7381,-3324.9664"/>
<path content="AP030,1,28,1,0,15,1,8,JPN" xlink:title="AP030" d="M13035.5469,-3324.9458L13035.4813,-3326.0826"/>
<path content="AP030,1,28,1,0,15,1,8,JPN" xlink:title="AP030" d="M13030.8807,-3325.1064L13030.8807,-3324.9325"/>
<path content="AP030,1,28,1,0,15,1,8,JPN" xlink:title="AP030" d="M13030.0385,-3325.0195L13030.8807,-3324.9325"/>
<path content="AP030,1,28,1,0,14,1,8,JPN" xlink:title="AP030" d="M13020.1996,-3325.7732L13020.0195,-3325.7065L13019.8807,-3325.5798L13019.8303,-3325.3799L13019.8303,-3325.1465L13019.7693,-3324.9264"/>
<path content="AP030,1,28,1,0,14,1,8,JPN" xlink:title="AP030" d="M13029.4006,-3324.9264L13029.6295,-3324.9664L13029.9271,-3324.9996L13029.9301,-3325L13030.0385,-3325.0195"/>
<path content="AP030,1,28,1,0,14,1,8,JPN" xlink:title="AP030" d="M13029.2892,-3327.5066L13029.3304,-3327.2732L13029.3106,-3326.7864L13029.3106,-3326.6933L13029.3106,-3326.5663L13029.2892,-3326.3565L13029.2694,-3326.173L13029.2694,-3326.1333L13029.2404,-3325.9399L13029.2206,-3325.8133L13029.2206,-3325.6332L13029.2694,-3325.3597L13029.2694,-3325.3063L13029.2892,-3325.2533L13029.3304,-3325.1266L13029.3594,-3325.0198L13029.4006,-3324.9264"/>
<path content="AP030,1,28,1,0,14,1,8,JPN" xlink:title="AP030" d="M13019.7693,-3324.9264L13020.0806,-3325.0198L13020.2393,-3325.0401L13020.3293,-3325.053L13020.4895,-3325.0198L13020.61,-3324.9397L13020.6802,-3324.8932L13020.7199,-3324.8734L13020.8801,-3324.7997"/>
<path content="AP030,1,28,1,0,14,1,8,JPN" xlink:title="AP030" d="M13028.2669,-3324.7658L13028.5202,-3324.8199L13028.7933,-3324.8676L13029.2206,-3324.913L13029.4006,-3324.9264"/>
<path content="AP030,1,28,1,0,14,1,8,JPN" xlink:title="AP030" d="M13020.8801,-3324.7997L13021.0602,-3324.7334L13021.3593,-3324.7131L13021.4294,-3324.7131L13021.6995,-3324.7131L13021.7697,-3324.7131L13022.3999,-3324.8398L13022.8104,-3324.913L13023.1506,-3324.9866"/>
<path content="AP030,1,28,1,0,15,1,8,JPN" xlink:title="AP030" d="M13030.8807,-3324.9325L13033.403,-3324.6719L13034.0302,-3325.098L13035.5469,-3324.9458"/>
<path content="AP030,1,28,1,0,15,1,8,JPN" xlink:title="AP030" d="M13042.2699,-3325.6641L13042.9688,-3325.3835"/>
<path content="AP030,1,28,1,0,14,1,8,JPN" xlink:title="AP030" d="M13027.5406,-3324.5533L13027.5803,-3324.5667L13028.2669,-3324.7658"/>
<path content="AP030,1,28,1,0,14,1,8,JPN" xlink:title="AP030" d="M13026.9897,-3327.1664L13027.0798,-3326.7132L13027.1301,-3326.4797L13027.1805,-3326.2066L13027.1805,-3326.1932L13027.2202,-3325.9617L13027.2705,-3325.6664L13027.2903,-3325.5798L13027.3804,-3325.1801L13027.5406,-3324.5533"/>
<path content="AP030,1,28,1,0,15,1,8,JPN" xlink:title="AP030" d="M13042.2684,-3325.6622L13041.8167,-3324.8203L13041.3803,-3324.4438L13040.8569,-3324.2931"/>
<path content="AP030,1,28,1,0,14,1,8,JPN" xlink:title="AP030" d="M13040.5807,-3325.6531L13040.5807,-3325.1663L13040.5807,-3325.0198L13040.6097,-3324.9664L13040.6097,-3324.7665L13040.6097,-3324.6933L13040.6097,-3324.5331L13040.8569,-3324.2931"/>
<path content="AP030,1,28,1,0,14,1,8,JPN" xlink:title="AP030" d="M13023.7381,-3324.9664L13023.9304,-3324.7997L13024.1501,-3324.6799L13024.3805,-3324.5331L13024.5407,-3324.4999L13024.6506,-3324.3866L13024.7894,-3324.2599L13024.8795,-3324.2466L13025.1099,-3324.2065L13025.2701,-3324.2065L13025.7202,-3324.2798L13025.8301,-3324.3L13026.1795,-3324.353L13026.5198,-3324.3866L13026.86,-3324.4267L13027.5406,-3324.5533"/>
<path content="AP030,1,28,1,0,15,1,8,JPN" xlink:title="AP030" d="M13027.7893,-3324.0681L13028.2669,-3324.7658"/>
<path content="AP030,1,28,1,0,14,1,8,JPN" xlink:title="AP030" d="M13027.5406,-3324.5533L13027.5406,-3324.5331L13027.6505,-3324.2599L13027.7893,-3324.0681"/>
<path content="AP030,1,28,1,0,16,1,8,JPN" xlink:title="AP030" d="M13009.4681,-3327.0279L13009.2407,-3326.8932L13008.8303,-3326.6933L13008.49,-3326.4599L13008.2703,-3326.2798L13008.1497,-3326.0666L13007.9895,-3325.8865L13007.93,-3325.613L13007.8125,-3325.4119"/>
<path content="AP030,1,28,1,0,14,1,8,JPN" xlink:title="AP030" d="M13029.3976,-3323.9399L13029.8416,-3323.9716"/>
<path content="AP030,1,28,1,0,14,1,8,JPN" xlink:title="AP030" d="M13027.7893,-3324.0681L13027.7893,-3324.0665L13027.9297,-3324.0463L13028.1097,-3324.0131L13028.54,-3323.9933L13029.3976,-3323.9399"/>
<path content="AP030,1,28,1,0,14,1,8,JPN" xlink:title="AP030" d="M13030.8975,-3323.9197L13030.9006,-3323.9201L13031.3278,-3323.9929"/>
<path content="AP030,1,28,1,0,15,1,8,JPN" xlink:title="AP030" d="M13030.8975,-3323.9197L13031.3568,-3324.0131L13031.3278,-3323.9929"/>
<path content="AP030,1,28,1,0,15,1,8,JPN" xlink:title="AP030" d="M13030.8807,-3324.9325L13030.8975,-3323.9197"/>
<path content="AP030,1,28,1,0,14,1,8,JPN" xlink:title="AP030" d="M13029.8416,-3323.9716L13030.1102,-3323.9201L13030.4504,-3323.8998L13030.8975,-3323.9197"/>
<path content="AP030,1,28,1,0,15,1,8,JPN" xlink:title="AP030" d="M13040.5807,-3325.6531L13038.8763,-3324.6887L13038.1332,-3323.5382"/>
<path content="AP030,1,28,1,0,15,1,8,JPN" xlink:title="AP030" d="M13035.5469,-3324.9458L13037.854,-3324.7147L13038.1332,-3323.5382"/>
<path content="AP030,1,28,1,0,15,1,8,JPN" xlink:title="AP030" d="M13040.8569,-3324.2931L13040.6525,-3324.218L13040.1306,-3324.0929L13039.4318,-3323.9174L13038.9954,-3323.5657L13038.7604,-3323.2784"/>
<path content="AP030,1,28,1,0,15,1,8,JPN" xlink:title="AP030" d="M13038.1332,-3323.5382L13038.7604,-3323.2784"/>
<path content="AP030,1,28,1,0,15,1,8,JPN" xlink:title="AP030" d="M13038.7604,-3323.2784L13039.3875,-3323.0179L13040.0406,-3322.8001"/>
<path content="AP030,1,28,1,0,14,1,8,JPN" xlink:title="AP030" d="M13040.7196,-3322.8001L13040.2206,-3322.8001L13040.0406,-3322.8001"/>
<path content="AP030,1,28,1,0,14,1,8,JPN" xlink:title="AP030" d="M13040.8569,-3324.2931L13041.0202,-3324.1734L13041.0599,-3324.0463L13041.0202,-3323.2731L13040.8798,-3322.8001L13040.7196,-3322.8001"/>
<path content="AP030,1,28,1,0,15,1,8,JPN" xlink:title="AP030" d="M13029.3976,-3323.9399L13029.4724,-3322.6158"/>
<path content="AP030,1,28,1,0,15,1,8,JPN" xlink:title="AP030" d="M13042.2684,-3325.6622L13042.9687,-3324.5351"/>
<path content="AP030,1,28,1,0,15,1,8,JPN" xlink:title="AP030" d="M13029.8416,-3323.9716L13029.8904,-3322.5819"/>
<path content="AP030,1,28,1,0,15,1,8,JPN" xlink:title="AP030" d="M13029.4724,-3322.6158L13029.8874,-3322.5819L13029.8904,-3322.5819"/>
<path content="AP030,1,28,1,0,15,1,8,JPN" xlink:title="AP030" d="M13040.7196,-3322.8001L13041.8961,-3322.5193L13042.9688,-3322.5527"/>
<path content="AP030,1,28,1,0,15,1,8,JPN" xlink:title="AP030" d="M13031.3278,-3323.9929L13031.3705,-3322.5086"/>
<path content="AP030,1,28,1,0,15,1,8,JPN" xlink:title="AP030" d="M13013.9496,-3328.3199L13013.6047,-3327.4506L13013.5498,-3326.2474L13013.6322,-3325.7046L13014.0411,-3325.2323L13014.3967,-3324.902L13014.5325,-3324.6658L13014.505,-3324.1234L13014.4501,-3323.5806L13014.4501,-3323.2265L13014.7781,-3322.7547L13014.9689,-3322.4949"/>
<path content="AP030,1,28,1,0,15,1,8,JPN" xlink:title="AP030" d="M13029.8904,-3322.5819L13030.9845,-3322.4903L13031.3705,-3322.5086"/>
<path content="AP030,1,28,1,0,15,1,8,JPN" xlink:title="AP030" d="M13027.7893,-3324.0681L13027.7878,-3324.0662L13026.4816,-3322.3969"/>
<path content="AP030,1,28,1,0,15,1,8,JPN" xlink:title="AP030" d="M13035.289,-3322.3007L13035.6644,-3322.8676L13035.5469,-3324.9458"/>
<path content="AP030,1,28,1,0,14,1,8,JPN" xlink:title="AP030" d="M13031.3278,-3323.9929L13031.3293,-3323.9933L13031.3599,-3324.0131L13031.6498,-3323.8998L13032.3303,-3323.6134L13033.1299,-3323.2731L13033.2001,-3323.233L13033.9005,-3322.9263L13034.6497,-3322.5864L13035.1303,-3322.3732L13035.289,-3322.3007"/>
<path content="AP030,1,28,1,0,15,1,8,JPN" xlink:title="AP030" d="M13038.1332,-3323.5382L13036.1084,-3322.2801"/>
<path content="AP030,1,28,1,0,14,1,8,JPN" xlink:title="AP030" d="M13035.289,-3322.3007L13035.2905,-3322.3L13035.5392,-3322.3198L13035.8307,-3322.3198L13035.9894,-3322.3L13036.1084,-3322.2801"/>
<path content="AP030,1,28,1,0,14,1,8,JPN" xlink:title="AP030" d="M13036.1084,-3322.2801L13036.1099,-3322.2797L13036.1496,-3322.2599"/>
<path content="AP030,1,28,1,0,15,1,8,JPN" xlink:title="AP030" d="M13029.3915,-3322.1802L13029.4724,-3322.6158"/>
<path content="AP030,1,28,1,0,15,1,8,JPN" xlink:title="AP030" d="M13026.4816,-3322.3969L13027.9114,-3322.5941L13028.3981,-3322.2366L13029.3915,-3322.1802"/>
<path content="AP030,1,28,1,0,15,1,8,JPN" xlink:title="AP030" d="M13023.7381,-3324.9664L13024.1074,-3322.0131"/>
<path content="AP030,1,28,1,0,14,1,8,JPN" xlink:title="AP030" d="M13015.7394,-3322.0131L13015.8997,-3322.0131L13016.1499,-3321.9933L13016.2399,-3321.9933L13016.6794,-3322.0467L13016.9495,-3322.1333L13017.2699,-3322.4064L13017.7704,-3322.6601L13017.8604,-3322.7131L13017.8802,-3323.0198L13017.9306,-3323.1266L13018.0206,-3323.3067L13018.0405,-3323.3799L13018.2007,-3323.7198L13018.4296,-3324.2065L13018.4692,-3324.2798L13018.5806,-3324.4267L13018.8995,-3324.5865L13019.31,-3324.7864L13019.4504,-3324.8398L13019.6503,-3324.8932L13019.7693,-3324.9264"/>
<path content="AP030,1,28,1,0,15,1,8,JPN" xlink:title="AP030" d="M13026.4816,-3322.3969L13026.1078,-3321.92"/>
<path content="AP030,1,28,1,0,14,1,8,JPN" xlink:title="AP030" d="M13024.1074,-3322.0131L13024.1104,-3322.0131L13024.2401,-3322.0131L13024.6796,-3322.0131L13025.3799,-3321.973L13025.7004,-3321.9532L13026.1078,-3321.92"/>
<path content="AP030,1,28,1,0,15,1,8,JPN" xlink:title="AP030" d="M13031.3705,-3322.5086L13032.4387,-3322.5594L13033.2047,-3321.8544L13034.581,-3322.002L13035.1273,-3322.3732L13035.2875,-3322.2996L13035.289,-3322.3007"/>
<path content="AP030,1,28,1,0,14,1,8,JPN" xlink:title="AP030" d="M13024.1074,-3322.0131L13023.7198,-3321.9933L13023.3994,-3321.9933L13023.3597,-3322.0131L13023.2697,-3322.0467L13023.0804,-3322.1001L13022.6807,-3322.1733L13022.4899,-3322.1931L13022.2397,-3322.1199L13021.8597,-3321.9933L13021.7697,-3321.9532L13021.6095,-3321.9398L13021.1807,-3321.92L13020.7901,-3321.9398L13020.7397,-3321.7934"/>
<path content="AP030,1,28,1,0,15,1,8,JPN" xlink:title="AP030" d="M13020.8801,-3324.7997L13020.668,-3324.4152L13020.7397,-3321.7934"/>
<path content="AP030,1,28,1,0,14,1,8,JPN" xlink:title="AP030" d="M13007.8125,-3321.7598L13008.1497,-3321.7598L13008.2397,-3321.74L13008.3603,-3321.7064L13008.6105,-3321.6534L13009.0195,-3321.5797L13009.4696,-3321.4867L13009.8297,-3321.4001L13010.2707,-3321.3264L13010.2875,-3321.3264"/>
<path content="AP030,1,28,1,0,14,1,8,JPN" xlink:title="AP030" d="M13010.2875,-3321.3264L13010.2905,-3321.3264L13010.6796,-3321.3066L13010.7697,-3321.3066L13010.8795,-3321.3066L13010.9299,-3321.3066L13011.2396,-3321.3066L13011.4502,-3321.3066L13011.7905,-3321.273L13011.9904,-3321.3264L13012.0605,-3321.3467L13012.7396,-3321.5065L13013.1104,-3321.6133L13013.6795,-3321.7598L13014.3997,-3321.973L13014.5401,-3322.0131L13014.8102,-3322.0665L13014.9902,-3322.1001L13015.0604,-3322.1001L13015.2695,-3322.0665L13015.5396,-3322.0467L13015.7394,-3322.0131"/>
<path content="AP030,1,28,1,0,15,1,8,JPN" xlink:title="AP030" d="M13038.7604,-3323.2784L13038.356,-3322.7875L13037.3962,-3321.2055"/>
<path content="AP030,1,28,1,0,14,1,8,JPN" xlink:title="AP030" d="M13036.1496,-3322.2599L13036.4304,-3322.1931L13036.5204,-3322.1531L13036.6501,-3322.0665L13036.7706,-3321.8864L13036.9003,-3321.6866L13036.9507,-3321.6331L13037.0193,-3321.5599L13037.1307,-3321.4531L13037.3962,-3321.2055"/>
<path content="AP030,1,28,1,0,14,1,8,JPN" xlink:title="AP030" d="M13040.0406,-3322.8001L13040.0406,-3322.7333L13039.9902,-3322.44L13039.9307,-3322.2466L13039.9002,-3321.9933L13039.9307,-3321.74L13039.9307,-3321.5263L13039.9307,-3321.1666L13039.9307,-3321.04"/>
<path content="AP030,1,28,1,0,14,1,8,JPN" xlink:title="AP030" d="M13039.9307,-3321.04L13040.3595,-3321.04L13040.6799,-3321.0934L13040.9302,-3321.0732L13041.1102,-3321.0732L13041.7404,-3321.04L13042.4301,-3321.04L13042.9688,-3321.0471"/>
<path content="AP030,1,28,1,0,14,1,8,JPN" xlink:title="AP030" d="M13039.9307,-3321.04L13039.6103,-3321.0197L13039.4501,-3321.0197L13039.2197,-3320.9866L13038.6505,-3320.9465L13038.4293,-3320.9133L13038.3804,-3320.8599L13038.2706,-3320.7333L13038.0203,-3320.6066"/>
<path content="AP030,1,28,1,0,14,1,8,JPN" xlink:title="AP030" d="M13037.3962,-3321.2055L13037.6297,-3320.9866L13037.7396,-3320.9133L13037.8296,-3320.8401L13037.9501,-3320.7333L13038.0203,-3320.6066"/>
<path content="AP030,1,28,1,0,14,1,8,JPN" xlink:title="AP030" d="M13036.1496,-3322.2599L13036.0596,-3322.0131L13035.9299,-3321.7934L13035.7697,-3321.7064L13035.4706,-3321.5263L13035.4294,-3321.5263L13035.2905,-3321.4531L13034.8801,-3321.4001L13034.3597,-3321.3264L13033.7906,-3321.273L13033.7692,-3321.273L13033.4,-3321.273L13033.4503,-3320.8199L13033.4503,-3320.7664L13033.4503,-3320.7333L13033.4503,-3320.5864L13033.4503,-3320.2465L13033.4503,-3320.2461"/>
<path content="AP030,1,28,1,0,15,1,8,JPN" xlink:title="AP030" d="M13029.3915,-3322.1802L13029.213,-3321.4458L13028.7125,-3320.9278L13028.3981,-3320.1199"/>
<path content="AP030,1,28,1,0,14,1,8,JPN" xlink:title="AP030" d="M13026.1078,-3321.92L13026.1093,-3321.92L13026.3596,-3321.8864L13026.3596,-3321.8666L13026.2894,-3321.6133L13026.1795,-3321.4001L13026.1795,-3321.22L13026.2695,-3321.04L13026.3107,-3320.9866L13026.3794,-3320.9465L13026.6495,-3320.8401L13026.8295,-3320.7333L13026.86,-3320.66L13026.8799,-3320.6066L13026.9501,-3320.3533L13027.0203,-3320.2465L13027.4002,-3320.153L13027.9907,-3320.1199L13028.3981,-3320.1199"/>
<path content="AP030,1,28,1,0,15,1,8,JPN" xlink:title="AP030" d="M13010.2875,-3321.3264L13010.257,-3321.2116L13009.8892,-3319.8368"/>
<path content="AP030,1,28,1,0,15,1,8,JPN" xlink:title="AP030" d="M13007.8125,-3320.6539L13008.4946,-3320.6806L13009.8892,-3319.8368"/>
<path content="AP030,1,28,1,0,15,1,8,JPN" xlink:title="AP030" d="M13031.3705,-3322.5086L13031.3568,-3319.7407"/>
<path content="AP030,1,28,1,0,14,1,8,JPN" xlink:title="AP030" d="M13030.2765,-3319.6846L13030.5206,-3319.7598L13030.8594,-3319.8132L13031.2897,-3319.7598L13031.3568,-3319.7407"/>
<path content="AP030,1,28,1,0,15,1,8,JPN" xlink:title="AP030" d="M13029.8904,-3322.5819L13029.9026,-3322.2218L13029.9026,-3320.6837L13029.9026,-3320.2862L13029.9637,-3320.0741L13030.1483,-3319.9677L13030.2765,-3319.6846"/>
<path content="AP030,1,28,1,0,14,1,8,JPN" xlink:title="AP030" d="M13028.3981,-3320.1199L13028.3997,-3320.1199L13028.4698,-3320.1199L13028.5202,-3320.1199L13028.6499,-3320.0466L13028.83,-3319.9398L13029.1504,-3319.9932L13029.3106,-3319.9932L13029.6494,-3319.8132L13029.9301,-3319.6865L13030.1102,-3319.6331L13030.2765,-3319.6846"/>
<path content="AP030,1,28,1,0,15,1,8,JPN" xlink:title="AP030" d="M13024.1074,-3322.0131L13024.1669,-3319.3966"/>
<path content="AP030,1,28,1,0,14,1,8,JPN" xlink:title="AP030" d="M13015.7394,-3322.0131L13015.6738,-3321.8838L13015.6097,-3321.7598L13015.5807,-3321.6866L13015.4495,-3321.4531L13015.3595,-3321.3467L13015.3595,-3321.3066L13015.1093,-3320.8599L13014.83,-3320.48L13014.6301,-3320.1733L13014.5401,-3320.013L13014.3799,-3319.92L13014.3097,-3319.8334L13014.27,-3319.8132L13014.1098,-3319.7399L13014.0198,-3319.6865L13014.0198,-3319.453L13013.9893,-3319.1265L13013.9694,-3318.9465"/>
<path content="AP030,1,28,1,0,15,1,8,JPN" xlink:title="AP030" d="M13009.8892,-3319.8368L13013.4155,-3319.067L13013.9694,-3318.9465"/>
<path content="AP030,1,28,1,0,14,1,8,JPN" xlink:title="AP030" d="M13031.2664,-3318.9039L13032.1106,-3318.9465L13032.3593,-3318.9465L13032.7698,-3319.0399L13032.93,-3319.0731L13033.1802,-3319.3264L13033.3801,-3319.6331L13033.5205,-3319.9398L13033.4503,-3320.2461"/>
<path content="AP030,1,28,1,0,14,1,8,JPN" xlink:title="AP030" d="M13013.9694,-3318.9465L13014.0198,-3318.7866"/>
<path content="AP030,1,28,1,0,15,1,8,JPN" xlink:title="AP030" d="M13014.0198,-3318.7866L13014.8315,-3318.6256L13015.7867,-3318.6016L13016.6611,-3318.5539L13017.2073,-3318.3884L13017.7261,-3318.3647"/>
<path content="AP030,1,28,1,0,14,1,8,JPN" xlink:title="AP030" d="M13039.9307,-3321.04L13039.9307,-3320.7867L13039.9307,-3320.5532L13039.8605,-3320.4266L13039.83,-3320.3197L13039.8605,-3320.153L13039.8804,-3319.8132L13039.9002,-3319.5599L13039.9002,-3319.5065L13039.9307,-3319.3066L13039.9307,-3319.2734L13040.0192,-3319.0731L13040.1505,-3318.8198L13040.2405,-3318.7134L13040.3595,-3318.4998L13040.4495,-3318.3201L13040.4694,-3318.1534L13040.4694,-3317.9733L13040.4907,-3317.8467"/>
<path content="AP030,1,28,1,0,14,1,8,JPN" xlink:title="AP030" d="M13038.0203,-3320.6066L13037.9898,-3320.2267L13037.97,-3319.8864L13038.0203,-3319.6331L13038.15,-3319.4L13038.2904,-3319.2734L13038.4293,-3319.1998L13038.4506,-3319.1998L13038.6307,-3318.9667L13038.8107,-3318.7134L13039.0198,-3318.4799L13039.18,-3318.2266L13039.3799,-3318.0134L13039.5599,-3317.8864L13039.9307,-3317.8864L13040.2695,-3317.8665L13040.4907,-3317.8467"/>
<path content="AP030,1,28,1,0,15,1,8,JPN" xlink:title="AP030" d="M13042.9688,-3320.697L13042.8909,-3320.6257L13042.1921,-3320.0733L13041.7572,-3319.5461L13041.3208,-3318.7927L13041.0004,-3318.2156L13040.8844,-3317.8387"/>
<path content="AP030,1,28,1,0,14,1,8,JPN" xlink:title="AP030" d="M13040.4907,-3317.8467L13040.5396,-3317.8467L13040.8844,-3317.8387"/>
<path content="AP030,1,28,1,0,14,1,8,JPN" xlink:title="AP030" d="M13040.8844,-3317.8387L13041.0599,-3317.7933L13041.2399,-3317.7933L13041.2903,-3317.6666L13041.3803,-3317.4332L13041.4703,-3317.1066L13041.4902,-3317.0933L13041.5405,-3316.9464L13041.5604,-3316.6599"/>
<path content="AP030,1,28,1,0,14,1,8,JPN" xlink:title="AP030" d="M13041.5604,-3316.6599L13041.7801,-3316.6252L13041.9006,-3316.6065L13042.0197,-3316.5867L13042.3798,-3316.5867L13042.54,-3316.5867L13042.72,-3316.5531L13042.8604,-3316.5131L13042.9306,-3316.5131L13042.9688,-3316.5057"/>
<path content="AP030,1,28,1,0,15,1,8,JPN" xlink:title="AP030" d="M13033.4503,-3320.2461L13034.5032,-3320.1378L13035.2158,-3319.5995L13036.4578,-3319.1639L13037.6556,-3318.2671L13038.5956,-3316.6904L13039.4928,-3315.7391"/>
<path content="AP030,1,28,1,0,14,1,8,JPN" xlink:title="AP030" d="M13014.0198,-3318.7866L13014.0396,-3318.66L13014.0396,-3318.6066L13013.9893,-3318.3533L13013.9297,-3318.0134L13013.8306,-3317.6865L13013.6795,-3317.3466L13013.6505,-3317.2333L13013.5193,-3316.9666L13013.4705,-3316.8598L13013.2401,-3316.4265L13013.0203,-3315.9931L13012.8799,-3315.8466L13012.5793,-3315.5933"/>
<path content="AP030,1,28,1,0,15,1,8,JPN" xlink:title="AP030" d="M13009.8892,-3319.8368L13009.9548,-3318.9526L13010.2737,-3318.2457L13010.0723,-3317.6472L13009.9518,-3317.1337L13009.9854,-3316.8659L13010.8047,-3316.2033L13011.5372,-3316.2292L13012.4069,-3315.6975L13012.5793,-3315.5933"/>
<path content="AP030,1,28,1,0,14,1,8,JPN" xlink:title="AP030" d="M13012.5793,-3315.5933L13012.5671,-3315.5819L13012.4298,-3315.4533L13012.4023,-3315.3858L13012.3993,-3315.3797"/>
<path content="AP030,1,28,1,0,14,1,8,JPN" xlink:title="AP030" d="M13020.7397,-3321.7934L13020.7199,-3321.6331L13020.7703,-3321.3467L13020.7703,-3321.0732L13020.6802,-3320.9663L13020.5597,-3320.6799L13020.4498,-3320.3533L13020.2698,-3320.1L13020.1294,-3320.0665L13020.0195,-3320.1L13019.8593,-3320.1733L13019.7693,-3320.153L13019.6106,-3320.0466L13019.3604,-3319.9398L13019.2902,-3319.8864L13019.2902,-3319.8666L13019.2703,-3319.7598L13019.2703,-3319.6865L13019.2398,-3319.4866L13019.2398,-3319.22L13019.2001,-3319.0731L13019.22,-3318.9133L13019.2703,-3318.7332L13019.2001,-3318.5863L13019.1803,-3318.5532L13019.0598,-3318.3533L13018.9301,-3318.2064L13018.8599,-3318.1198L13018.7698,-3317.9932L13018.4296,-3317.6533L13018.1793,-3317.4L13017.9703,-3317.3065L13017.9504,-3317.2531L13017.9901,-3317.1467L13018.0801,-3316.9266L13017.9901,-3316.9132L13017.7002,-3316.84L13017.5201,-3316.7465L13017.3798,-3316.6798L13017.2699,-3316.6199L13016.9907,-3316.5867L13016.8304,-3316.4997L13016.7892,-3316.3864L13016.8106,-3316.2998L13016.6504,-3316.193L13016.4703,-3316.0797L13016.4505,-3316.0667L13016.4001,-3315.9931L13016.3605,-3315.9397L13016.2399,-3315.7932L13016.1499,-3315.7398L13015.95,-3315.6532L13015.8798,-3315.5598L13015.8096,-3315.4865L13015.6799,-3315.4667L13015.5594,-3315.3465L13015.4297,-3315.3065L13015.2695,-3315.3465L13015.1093,-3315.2332L13014.9307,-3315.073L13014.9307,-3314.9666L13014.8605,-3314.8399L13014.6805,-3314.8731L13014.3295,-3314.9467L13013.8794,-3315.073L13013.7894,-3315.2L13013.6795,-3315.2733L13013.4293,-3315.3465L13013.2706,-3315.3465L13012.97,-3315.3267L13012.6099,-3315.3267L13012.3993,-3315.3797"/>
<path content="AP030,1,28,1,0,14,1,8,JPN" xlink:title="AP030" d="M13041.5604,-3316.6599L13041.5207,-3316.3731L13041.5405,-3316.193L13041.5405,-3316.0999L13041.6794,-3315.8131L13041.8637,-3314.9889"/>
<path content="AP030,1,28,1,0,15,1,8,JPN" xlink:title="AP030" d="M13039.4928,-3315.7391L13041.8637,-3314.9889"/>
<path content="AP030,1,28,1,0,15,1,8,JPN" xlink:title="AP030" d="M13031.3568,-3319.7407L13031.2664,-3318.9039"/>
<path content="AP030,1,28,1,0,14,1,8,JPN" xlink:title="AP030" d="M13041.8637,-3314.9889L13042.0148,-3314.6531L13042.0987,-3314.3845"/>
<path content="AP030,1,28,1,0,15,1,8,JPN" xlink:title="AP030" d="M13042.0987,-3314.3845L13042.9688,-3314.3669"/>
<path content="AP030,1,28,1,0,14,1,8,JPN" xlink:title="AP030" d="M13042.0987,-3314.3845L13042.7032,-3313.0075L13042.9688,-3312.7074"/>
<path content="AP030,1,28,1,0,14,1,8,JPN" xlink:title="AP030" d="M13012.3993,-3315.3797L13012.3795,-3315.3465L13012.3306,-3315.1066L13012.1796,-3314.7667L13012.1094,-3314.4798L13012.03,-3314.3257L13011.9904,-3314.2467L13011.9705,-3314.1731L13012.0193,-3314.0133L13012.1094,-3313.76L13012.1506,-3313.6665L13012.1796,-3313.6131L13012.0804,-3313.4666L13011.9705,-3313.4132L13011.7401,-3313.4132L13011.3602,-3313.4533L13011.1099,-3313.4533L13010.8994,-3313.4132L13010.6995,-3313.253L13010.5606,-3313.0531L13010.3607,-3312.8201L13010.1303,-3312.5668L13010.0403,-3312.4065L13009.8999,-3312.2066"/>
<path content="AP030,1,28,1,0,14,1,8,JPN" xlink:title="AP030" d="M13007.8125,-3312.3439L13008.02,-3312.2799L13008.3099,-3312.1933L13009.1995,-3312.1933"/>
<path content="AP030,1,28,1,0,14,1,8,JPN" xlink:title="AP030" d="M13009.1995,-3312.1933L13009.5795,-3312.1933L13009.8999,-3312.2066"/>
<path content="AP030,1,28,1,0,15,1,8,JPN" xlink:title="AP030" d="M13039.4928,-3315.7391L13039.2395,-3314.7457L13038.8596,-3313.6841L13038.9801,-3312.6942L13039.5065,-3312.2822L13039.7186,-3311.9289L13040.7288,-3311.4445L13041.9647,-3311.8935L13042.659,-3312.3245L13042.9688,-3312.315"/>
<path content="AP030,1,28,1,0,14,1,8,JPN" xlink:title="AP030" d="M13009.8999,-3312.2066L13009.7198,-3311.8866L13009.61,-3311.4666L13009.61,-3311.1797L13009.61,-3311.1465"/>
<path content="AP030,1,28,1,0,14,1,8,JPN" xlink:title="AP030" d="M13009.1995,-3312.1933L13008.9294,-3311.8668L13008.7204,-3311.5932L13008.6105,-3311.38L13008.5403,-3311.1267L13008.5434,-3311.1122L13008.58,-3310.9467"/>
<path content="AP030,1,28,1,0,15,1,8,JPN" xlink:title="AP030" d="M13008.8715,-3310.3348L13009.61,-3311.1465"/>
<path content="AP030,1,28,1,0,15,1,8,JPN" xlink:title="AP030" d="M13008.58,-3310.9467L13008.8715,-3310.3348"/>
<path content="AP030,1,28,1,0,14,1,8,JPN" xlink:title="AP030" d="M13009.61,-3311.1465L13009.6802,-3310.8601L13009.7,-3310.82L13009.7702,-3310.64L13009.9304,-3310.5L13009.9701,-3310.4797L13010.1807,-3310.3867L13010.4294,-3310.3001L13010.6796,-3310.08L13010.7697,-3309.94"/>
<path content="AP030,1,28,1,0,14,1,8,JPN" xlink:title="AP030" d="M13010.7697,-3309.94L13010.3806,-3309.8667L13010.1807,-3309.8133L13010.1105,-3309.7931L13009.8602,-3309.7401L13009.52,-3309.5798L13009.4299,-3309.5264L13009.3094,-3309.4131L13009.2697,-3309.3998"/>
<path content="AP030,1,28,1,0,15,1,8,JPN" xlink:title="AP030" d="M13008.8715,-3310.3348L13009.2697,-3309.3998"/>
<path content="AP030,1,28,1,0,14,1,8,JPN" xlink:title="AP030" d="M13010.7697,-3309.94L13010.7697,-3309.8999L13010.8307,-3309.7198L13010.8795,-3309.6867L13010.9299,-3309.6333L13011.1801,-3309.5264L13011.4304,-3309.4334L13011.7401,-3309.3266L13011.7905,-3309.2533L13011.7905,-3309.1999L13011.8103,-3309.0931L13011.9507,-3308.9867L13012.2696,-3308.8734L13012.3993,-3308.8398"/>
<path content="AP030,1,28,1,0,14,1,8,JPN" xlink:title="AP030" d="M13009.2697,-3309.3998L13009.6298,-3309.1267L13009.8602,-3309.0199L13010.2905,-3308.913L13010.4904,-3308.8734L13010.8795,-3308.7997L13011.1099,-3308.7666L13011.4502,-3308.7334L13011.7203,-3308.7132L13011.9904,-3308.7334L13012.2406,-3308.7666L13012.3993,-3308.8398"/>
<path content="AP030,1,28,1,0,15,1,8,JPN" xlink:title="AP030" d="M13007.8125,-3309.7445L13008.3466,-3309.7553L13008.8715,-3310.3348"/>
<path content="AP030,1,28,1,0,15,1,8,JPN" xlink:title="AP030" d="M13042.9688,-3308.3029L13042.9077,-3308.2218L13042.9688,-3308.1113"/>
<path content="AP030,1,28,1,0,14,1,8,JPN" xlink:title="AP030" d="M13016.7364,-3304.6875L13016.7404,-3304.7131L13016.7404,-3304.7867L13016.7664,-3304.8958L13016.7694,-3304.9942L13016.7587,-3305.0247L13016.7007,-3305.0732L13016.5604,-3305.1468L13016.4001,-3305.22L13016.2903,-3305.3719L13016.2384,-3305.4161L13016.1102,-3305.4333L13015.9698,-3305.4867L13015.77,-3305.6534L13015.6799,-3305.7598L13015.6799,-3305.7732L13015.6799,-3305.8998L13015.6296,-3306.0181L13015.5197,-3306.1199L13015.4007,-3306.2065L13015.2893,-3306.3534L13015.1672,-3306.4602L13015.0314,-3306.562L13014.8605,-3306.7131L13014.8102,-3306.86L13014.7202,-3307L13014.6805,-3307.093L13014.4897,-3307.1999L13014.3997,-3307.2533L13014.36,-3307.2865L13014.3295,-3307.4131L13014.3295,-3307.7065L13014.1296,-3307.8667L13013.8794,-3307.9933L13013.7695,-3308.12L13013.6795,-3308.353L13013.5803,-3308.44L13013.4293,-3308.5133L13013.3606,-3308.5865L13013.3301,-3308.7334L13013.2401,-3308.7467L13013.1104,-3308.7334L13013.0127,-3308.7334L13012.8998,-3308.7334L13012.6495,-3308.7868L13012.3993,-3308.8398"/>
<path content="AP030,1,28,1,0,14,1,8,JPN" xlink:title="AP030" d="M13009.2697,-3309.3998L13009.1293,-3309.3266L13009.0607,-3309.3067L13008.9706,-3309.2731L13008.8593,-3309.2197L13008.7692,-3309.1267L13008.6502,-3309.0199L13008.5205,-3308.9268L13008.2703,-3308.86L13008.1497,-3308.82L13008.02,-3308.7132L13007.8125,-3308.5812"/>
<path content="AP030,1,28,1,0,15,1,8,JPN" xlink:title="AP030" d="M13031.2664,-3318.9039L13031.2191,-3318.4657L13030.5292,-3316.2631L13030.2213,-3316.0082L13028.8839,-3316.3162L13028.8839,-3316.6877L13030.2765,-3319.6846"/>
</g>
</svg>
