<?xml version="1.0" encoding="UTF-8"?>
<svg  xmlns="http://www.w3.org/2000/svg" xmlns:xlink="http://www.w3.org/1999/xlink" xmlns:go="http://purl.org/svgmap/profile" property="f_code,acc,exs,rst,med,rtt,RSU,loc,soc" viewBox="13078.125 -3164.0625 70.3125 70.3125" go:dataArea="13078.125 -3164.0625 70.3125 70.3125" >
<metadata>
 <rdf:RDF xmlns:rdf="http://www.w3.org/1999/02/22-rdf-syntax-ns#" xmlns:crs="http://opengis.org/xmldtds/transformations.dtd" xmlns:svg="http://www.w3.org/svg" >
  <rdf:Description>
   <crs:CoordinateReferenceSystem rdf:resource="http://purl.org/crs/84" svg:transform="matrix(100.0,0.0,0.0,-100.0,0.0,0.0)" />
  </rdf:Description>
 </rdf:RDF>
</metadata>
<globalCoordinateSystem srsName="http://purl.org/crs/84" transform="matrix(100.0,0.0,0.0,-100.0,0.0,0.0)" />
<defs>
 <g id="p0" >
  <circle cx="0.0" cy="0.0" r="3" stroke="green" stroke-width="2.0" vector-effect="non-scaling-stroke" />
 </g>
</defs>
<g fill="none" fill-rule="evenodd" stroke="#00ff00" stroke-width="2" opacity="0.5" vector-effect="non-scaling-stroke" stroke-linejoin="bevel" >
<path content="AP030,1,28,1,0,15,1,8,JPN" xlink:title="AP030" d="M13124.544,-3164.0625L13124.5605,-3164.0467"/>
<path content="AP030,1,28,1,0,14,1,8,JPN" xlink:title="AP030" d="M13124.0086,-3164.0625L13124.0799,-3164.0467L13124.2706,-3163.9933L13124.3607,-3164.0133L13124.5605,-3164.0467"/>
<path content="AP030,1,28,1,0,15,1,8,JPN" xlink:title="AP030" d="M13136.6446,-3164.0625L13136.6043,-3163.9229L13136.6394,-3163.5443L13136.6623,-3163.3125L13136.5677,-3163.1208L13136.3602,-3162.8733"/>
<path content="AP030,1,28,1,0,14,1,8,JPN" xlink:title="AP030" d="M13110.6648,-3164.0625L13110.7407,-3163.9399L13110.8093,-3163.8866L13110.9299,-3163.8332L13111.0397,-3163.74L13111.1099,-3163.6866L13111.2,-3163.6665L13111.29,-3163.6333L13111.3602,-3163.5399L13111.3602,-3163.4867L13111.3602,-3163.4132L13111.3998,-3163.3266L13111.4502,-3163.3066L13111.5204,-3163.2732L13111.5799,-3163.2334L13111.7004,-3162.9866L13111.8103,-3162.9133L13111.9293,-3162.8599L13111.9705,-3162.8599L13112.0605,-3162.7867L13112.1307,-3162.7132"/>
<path content="AP030,1,28,1,0,14,1,8,JPN" xlink:title="AP030" d="M13112.3581,-3162.4798L13112.2192,-3162.6066L13112.1307,-3162.7132"/>
<path content="AP030,1,28,1,0,14,1,8,JPN" xlink:title="AP030" d="M13113.547,-3164.0625L13113.4003,-3163.9399L13113.1805,-3163.8332L13113.0203,-3163.7598L13112.97,-3163.6866L13112.8296,-3163.6133L13112.7701,-3163.5265L13112.7396,-3163.3066L13112.8296,-3163.0934L13112.8799,-3162.9133L13112.8296,-3162.7998L13112.7197,-3162.7333L13112.6099,-3162.7666L13112.5595,-3162.7333L13112.6495,-3162.6066L13112.6099,-3162.4998L13112.4695,-3162.4266L13112.3581,-3162.4798"/>
<path content="AP030,1,28,1,0,15,1,8,JPN" xlink:title="AP030" d="M13105.9982,-3162.3573L13105.5557,-3162.8662L13105.7388,-3163.4546L13105.8441,-3163.7951L13105.7996,-3164.0625"/>
<path content="AP030,1,28,1,0,15,1,8,JPN" xlink:title="AP030" d="M13103.462,-3164.0625L13103.4882,-3164.0324L13103.5721,-3163.2536L13104.3213,-3162.5275L13104.7821,-3162.5034L13105.5237,-3162.5013L13105.9982,-3162.3573"/>
<path content="AP030,1,28,1,0,14,1,8,JPN" xlink:title="AP030" d="M13124.5605,-3164.0467L13124.6796,-3164.0467L13124.8093,-3163.9933L13124.9298,-3163.9198L13125.0793,-3163.8332L13125.2197,-3163.7934L13125.3601,-3163.7934L13125.5203,-3163.74L13125.7004,-3163.7066L13125.7401,-3163.7066L13125.8606,-3163.8866L13125.9903,-3163.9399L13126.1795,-3163.9933L13126.3497,-3164.0625M13127.997,-3164.0625L13128.0594,-3164.0133L13128.1799,-3163.9933L13128.3096,-3163.9399L13128.3997,-3163.8666L13128.4897,-3163.7934L13128.6102,-3163.6333L13128.6804,-3163.5065L13128.6804,-3163.3799L13128.6102,-3163.2198L13128.6102,-3163.1266L13128.6804,-3162.7666L13128.7003,-3162.6398L13128.7704,-3162.5334L13128.8605,-3162.4399L13128.9703,-3162.3734L13129.0802,-3162.1199L13129.2007,-3161.9932L13129.3304,-3161.8866L13129.4907,-3161.8134L13129.5197,-3161.8134L13129.6295,-3161.7933L13129.8996,-3161.8134L13130.2704,-3161.8334L13130.4504,-3161.8334L13130.9296,-3161.5599L13131.2698,-3161.6133L13131.3797,-3161.6333L13131.6101,-3161.7065L13131.7703,-3161.8134L13131.8604,-3161.8334L13131.9702,-3161.7933L13132.1304,-3161.6667L13132.2693,-3161.4864"/>
<path content="AP030,1,28,1,0,14,1,8,JPN" xlink:title="AP030" d="M13132.2693,-3161.4864L13132.5394,-3161.2734L13132.7896,-3161.2333L13132.93,-3161.22L13133.11,-3161.1799L13133.2199,-3161.1799L13133.3603,-3161.22L13133.7692,-3161.5067L13133.7906,-3161.6865L13133.8806,-3161.8999L13134.0393,-3162.0998L13134.4498,-3162.4266L13134.52,-3162.4399L13134.5596,-3162.4399L13134.6497,-3162.4266L13134.79,-3162.4065L13134.9304,-3162.4266L13135.2203,-3162.48L13135.2402,-3162.48L13135.5606,-3162.5134L13135.5804,-3162.5134L13135.7895,-3162.5666L13136.0199,-3162.62L13136.1099,-3162.6932L13136.1298,-3162.7666L13136.2198,-3162.8399L13136.29,-3162.8599L13136.3602,-3162.8733"/>
<path content="AP030,1,28,1,0,15,1,8,JPN" xlink:title="AP030" d="M13105.9982,-3162.3573L13105.954,-3161.7802L13105.7999,-3160.9743"/>
<path content="AP030,1,28,1,0,15,1,8,JPN" xlink:title="AP030" d="M13105.7999,-3160.9743L13106.955,-3160.8856L13107.4844,-3161.038L13107.9559,-3161.1902L13108.8379,-3161.5967L13109.9548,-3162.0539L13111.0733,-3162.4092L13111.7203,-3162.5107L13112.1307,-3162.7132"/>
<path content="AP030,1,28,1,0,15,1,8,JPN" xlink:title="AP030" d="M13138.445,-3164.0625L13138.4277,-3163.8712L13138.4277,-3163.3627L13138.7222,-3162.9557L13139.0747,-3162.4979L13139.1922,-3162.2437L13139.1327,-3161.7861L13138.8977,-3161.2778L13138.4857,-3160.9728L13138.1332,-3160.7697L13137.9272,-3160.6281L13137.7899,-3160.5333"/>
<path content="AP030,1,28,1,0,14,1,8,JPN" xlink:title="AP030" d="M13136.3602,-3162.8733L13136.4899,-3162.8733L13136.5936,-3162.8332L13136.6806,-3162.7998L13136.7905,-3162.6398L13136.8607,-3162.3865L13136.8805,-3162.3533L13137.1307,-3161.7065L13137.2726,-3161.372L13137.3596,-3161.1666L13137.5198,-3160.9133L13137.7899,-3160.5333"/>
<path content="AP030,1,28,1,0,15,1,8,JPN" xlink:title="AP030" d="M13098.8815,-3159.7622L13098.9151,-3159.7755L13100.1907,-3160.2785L13101.3672,-3160.685L13103.1311,-3161.0399L13104.9545,-3161.0392L13105.7999,-3160.9743"/>
<path content="AP030,1,28,1,0,14,1,8,JPN" xlink:title="AP030" d="M13100.711,-3164.0625L13100.5203,-3163.8866L13100.1099,-3163.5065L13099.9695,-3163.3799L13099.9695,-3163.1998L13100.0198,-3163.0533L13100.1297,-3162.9133L13100.1297,-3162.7333L13100.1495,-3162.3734L13100.1297,-3162.0132L13100.0198,-3161.9398L13099.8795,-3161.8334L13099.6796,-3161.7199L13099.4507,-3161.6333L13099.3103,-3161.4866L13099.2706,-3161.3798L13099.2203,-3161.2L13099.1806,-3160.9999L13099.1302,-3160.8398L13098.9899,-3160.64L13098.88,-3160.3867L13098.8998,-3160.1933L13098.8998,-3159.8133L13098.8815,-3159.7622"/>
<path content="AP030,1,28,1,0,15,1,8,JPN" xlink:title="AP030" d="M13098.2697,-3159.5207L13098.8815,-3159.7622"/>
<path content="AP030,1,28,1,0,15,1,8,JPN" xlink:title="AP030" d="M13089.5674,-3164.0625L13090.0726,-3163.5374L13090.6021,-3163.2322L13091.1911,-3163.2318L13092.0135,-3163.5366L13092.7795,-3163.6379L13094.0735,-3163.434L13095.3674,-3162.9759L13096.2494,-3162.4161L13096.7194,-3161.9074L13097.1313,-3161.3478L13097.4838,-3160.6358L13098.0133,-3160.0761L13098.1903,-3159.8728L13098.2697,-3159.5207"/>
<path content="AP030,1,28,1,0,14,1,8,JPN" xlink:title="AP030" d="M13098.8815,-3159.7622L13098.8602,-3159.7067L13098.79,-3159.5598L13098.79,-3159.3065"/>
<path content="AP030,1,28,1,0,15,1,8,JPN" xlink:title="AP030" d="M13098.2697,-3159.5207L13098.79,-3159.3065"/>
<path content="AP030,1,28,1,0,14,1,8,JPN" xlink:title="AP030" d="M13137.7899,-3160.5333L13137.9303,-3160.3333L13138.1805,-3159.9533L13138.7207,-3159.4534L13139.0198,-3159.1066"/>
<path content="AP030,1,28,1,0,14,1,8,JPN" xlink:title="AP030" d="M13145.0516,-3164.0625L13145.0394,-3164.0467L13145.0195,-3164.0133L13144.9905,-3163.9532L13145.1096,-3163.7934L13145.43,-3163.6133L13145.8786,-3163.4331L13145.9503,-3163.3467L13145.9305,-3163.2532L13145.7901,-3163.1666L13145.5795,-3162.9133L13145.5399,-3162.7666L13145.4498,-3162.6398L13145.3796,-3162.6799L13145.2194,-3162.7333L13145.0806,-3162.7132L13144.9295,-3162.48L13144.6793,-3162.0798L13144.4504,-3161.9534L13144.2001,-3161.8999L13143.8995,-3161.7399L13143.5593,-3161.6533L13143.1305,-3161.36L13142.7704,-3161.2L13142.63,-3161.22L13142.3798,-3161.36L13142.1097,-3161.3466L13141.7694,-3160.5865L13141.5207,-3160.1933L13141.2399,-3159.7599L13141.0202,-3159.4L13140.8798,-3159.1799L13140.6799,-3159.0399L13140.5396,-3158.9132L13140.4694,-3158.84L13140.2695,-3158.6065"/>
<path content="AP030,1,28,1,0,14,1,8,JPN" xlink:title="AP030" d="M13139.0198,-3159.1066L13139.1296,-3158.9867L13139.3387,-3158.9588L13139.4302,-3158.9466L13139.4897,-3158.9266L13139.7202,-3158.9132L13140.1093,-3158.7866L13140.2695,-3158.6065"/>
<path content="AP030,1,28,1,0,14,1,8,JPN" xlink:title="AP030" d="M13078.3096,-3158.1522L13078.4302,-3158.26L13078.4698,-3158.2994L13078.6102,-3158.4103L13078.7003,-3158.5703L13078.7399,-3158.8968L13078.8101,-3159.3502L13078.7704,-3159.5634L13078.7201,-3159.6369L13078.7704,-3159.837L13078.7704,-3159.9236L13078.6804,-3160.1036L13078.5797,-3160.1768L13078.6392,-3160.2585L13078.7064,-3160.3306L13078.8025,-3160.3537L13078.8605,-3160.3769L13078.9902,-3160.4635L13079.2694,-3160.7502L13079.4693,-3161.0435L13079.5395,-3161.1265L13079.5807,-3161.1799L13079.6097,-3161.3066L13079.6631,-3161.7575L13079.744,-3162.1384L13079.8096,-3162.4599L13079.9301,-3162.6066L13079.9896,-3162.7132L13080.04,-3162.9465L13080.0797,-3163.1266L13080.0797,-3163.1666L13080.1804,-3163.2198L13080.2704,-3163.2866L13080.3604,-3163.3598L13080.6793,-3163.8466L13080.806,-3163.9339L13080.9143,-3163.9816L13081.0479,-3164.0625"/>
<path content="AP030,1,28,1,0,15,1,8,JPN" xlink:title="AP030" d="M13098.79,-3159.3065L13100.0137,-3158.7025L13100.6592,-3157.7871"/>
<path content="AP030,1,28,1,0,15,1,8,JPN" xlink:title="AP030" d="M13087.0193,-3157.7398L13087.5412,-3158.1997L13088.4247,-3158.4026L13089.6011,-3158.453L13090.4831,-3158.7069L13091.6016,-3159.2655L13093.3075,-3159.6716L13094.7784,-3159.7727L13096.4844,-3159.6703L13098.2697,-3159.5207"/>
<path content="AP030,1,28,1,0,14,1,8,JPN" xlink:title="AP030" d="M13083.8029,-3164.0625L13083.7906,-3164.0266L13083.7204,-3163.7733L13083.6807,-3163.5065L13083.6807,-3163.2532L13083.6502,-3163.1266L13083.6304,-3163.0199L13083.6304,-3162.8599L13083.6105,-3162.7666L13083.6807,-3162.7132L13083.7692,-3162.6598L13083.9493,-3162.4998L13084.1797,-3162.2799L13084.2407,-3162.2267L13084.2896,-3162.1733L13084.3307,-3162.1733L13084.3597,-3162.1733L13084.4299,-3162.1532L13084.5596,-3162.0466L13084.6298,-3162.0132L13084.8297,-3161.9932L13085.0204,-3161.9398L13085.2707,-3161.7399L13085.2905,-3161.6533L13085.2402,-3161.5932L13085.2005,-3161.5599L13085.2707,-3161.4134L13085.2707,-3161.3798L13085.3302,-3161.3266L13085.3806,-3161.3066L13085.4294,-3161.1666L13085.5194,-3160.9266L13085.5194,-3160.8732L13085.5194,-3160.7866L13085.5194,-3160.7332L13085.4706,-3160.6798L13085.4507,-3160.66L13085.3607,-3160.6066L13085.2707,-3160.6066L13085.2203,-3160.6066L13085.1807,-3160.5865L13085.1105,-3160.5L13084.9899,-3160.2598L13084.9503,-3160.1933L13084.9503,-3160.1L13084.9701,-3160.0466L13085.0204,-3160.0134L13085.0204,-3159.94L13084.9304,-3159.7599L13084.9304,-3159.6333L13084.9701,-3159.4334L13085.0403,-3159.3266L13085.08,-3159.2533L13085.3302,-3159.0933L13085.4904,-3158.9466L13085.7193,-3158.7666L13085.8597,-3158.6065L13086.0199,-3158.4599L13086.0397,-3158.4066L13086.0397,-3158.3532L13086.0794,-3158.2998L13086.1099,-3158.28L13086.2396,-3158.2266L13086.3098,-3158.1932L13086.4304,-3158.1333L13086.5204,-3158.0666L13086.5799,-3157.9733L13086.6104,-3157.9199L13086.6104,-3157.8667L13086.6806,-3157.8333L13086.7401,-3157.8333L13086.8301,-3157.8333L13086.9293,-3157.8133L13087.0193,-3157.7398"/>
<path content="AP030,1,28,1,0,15,1,8,JPN" xlink:title="AP030" d="M13105.7999,-3160.9743L13105.7999,-3160.9741L13105.8716,-3160.9686L13105.9525,-3160.149L13105.5313,-3158.485L13105.1575,-3158.0326L13104.7501,-3157.5478"/>
<path content="AP030,1,28,1,0,15,1,8,JPN" xlink:title="AP030" d="M13132.3929,-3157.535L13133.4564,-3157.6824L13134.1599,-3157.6038L13135.0021,-3158.0315L13135.5255,-3158.5667L13136.2701,-3158.8215L13136.5524,-3159.0742L13139.0198,-3159.1066"/>
<path content="AP030,1,28,1,0,15,1,8,JPN" xlink:title="AP030" d="M13132.2693,-3161.4864L13131.5125,-3160.0433L13131.5994,-3159.5877L13132.3929,-3157.535"/>
<path content="AP030,1,28,1,0,15,1,8,JPN" xlink:title="AP030" d="M13104.7501,-3157.5478L13104.1275,-3157.4383L13103.5416,-3157.6338L13103.3768,-3157.8623L13102.7817,-3157.8154L13101.973,-3158.1141L13100.6592,-3157.7871"/>
<path content="AP030,1,28,1,0,15,1,8,JPN" xlink:title="AP030" d="M13132.3929,-3157.535L13131.7825,-3157.4554L13131.456,-3157.2653L13130.3223,-3157.7728"/>
<path content="AP030,1,28,1,0,15,1,8,JPN" xlink:title="AP030" d="M13118.7673,-3164.0625L13119.191,-3163.2191L13119.603,-3162.4561L13120.015,-3161.6423L13120.015,-3161.083L13120.3674,-3160.4218L13120.8969,-3159.3538L13121.7789,-3158.1331L13121.8964,-3157.5737L13121.8964,-3156.9635L13121.7773,-3156.5569L13121.3074,-3156.4045L13120.9549,-3156.2012L13120.9534,-3155.9469"/>
<path content="AP030,1,28,1,0,14,1,8,JPN" xlink:title="AP030" d="M13078.125,-3157.754L13078.1494,-3157.7732L13078.1998,-3157.8999L13078.3096,-3158.1522"/>
<path content="AP030,1,28,1,0,15,1,8,JPN" xlink:title="AP030" d="M13113.6063,-3155.504L13114.2776,-3156.2094L13114.8026,-3156.2502L13115.2069,-3156.1005L13115.9851,-3157.0673L13116.1804,-3157.2334L13117.1021,-3157.1842L13117.5064,-3157.3666L13117.691,-3157.6227L13118.6203,-3157.5134L13118.5089,-3157.8976L13118.2953,-3158.2436L13118.8232,-3157.922L13120.0897,-3156.6305L13120.9534,-3155.9469"/>
<path content="AP030,1,28,1,0,15,1,8,JPN" xlink:title="AP030" d="M13112.3581,-3162.4798L13113.4247,-3160.5831L13113.5223,-3159.9867L13113.9435,-3159.6872L13114.119,-3157.375L13113.6444,-3156.5226L13113.3865,-3155.9587L13113.6063,-3155.504"/>
<path content="AP030,1,28,1,0,15,1,8,JPN" xlink:title="AP030" d="M13104.7501,-3157.5478L13105.8151,-3157.8127L13106.7352,-3157.4621L13107.4326,-3156.8825L13109.0164,-3156.2515L13110.6552,-3155.7756L13111.4716,-3155.7188L13112.2009,-3155.8359L13112.6938,-3155.8443L13113.1577,-3155.4577L13113.6063,-3155.504"/>
<path content="AP030,1,28,1,0,14,1,8,JPN" xlink:title="AP030" d="M13087.0193,-3157.7398L13087.0605,-3157.7066L13087.1307,-3157.6866L13087.1994,-3157.6866L13087.2696,-3157.7066L13087.2894,-3157.7066L13087.3306,-3157.6866L13087.4298,-3157.5933L13087.4893,-3157.4533L13087.5198,-3157.3999L13087.5397,-3157.3599L13087.4893,-3157.3265L13087.4496,-3157.2733L13087.3093,-3157.2533L13087.1994,-3157.2533L13087.0804,-3157.2733L13087.0193,-3157.3067L13086.9293,-3157.3265L13086.8607,-3157.3265L13086.7905,-3157.2199L13086.7004,-3157.0932L13086.6501,-3157.0398L13086.6302,-3156.9666L13086.6806,-3156.9134L13086.7401,-3156.7865L13086.7905,-3156.6599L13086.8301,-3156.5132L13086.8607,-3156.4598L13086.8607,-3156.3866L13086.7905,-3156.3198L13086.7004,-3156.2599L13086.6806,-3156.1934L13086.6806,-3156.1333L13086.7706,-3156.0799L13086.9705,-3155.9933L13087.1796,-3155.9732L13087.2696,-3155.9399L13087.2894,-3155.9198L13087.3795,-3155.8132L13087.4695,-3155.6866L13087.5397,-3155.6334L13087.5793,-3155.6133L13087.6297,-3155.5933L13087.7197,-3155.5933L13087.7899,-3155.5799L13087.8601,-3155.5399L13087.8799,-3155.4867L13087.8601,-3155.4333L13087.7899,-3155.3267L13087.7701,-3155.2866L13087.6999,-3155.2198L13087.6099,-3155.18L13087.4893,-3155.1466L13087.3795,-3155.1266L13087.2406,-3155.1466L13087.1307,-3155.18L13087.0804,-3155.18L13087.0407,-3155.1266L13086.9904,-3155.0934L13086.8805,-3155.04L13086.7706,-3155.04L13086.6104,-3155.0533L13086.5204,-3155.0533L13086.4502,-3155.04L13086.4304,-3154.9665L13086.3998,-3154.8933L13086.3602,-3154.6932L13086.3602,-3154.6925"/>
<path content="AP030,1,28,1,0,15,1,8,JPN" xlink:title="AP030" d="M13078.3096,-3158.1522L13079.2206,-3157.4759L13079.631,-3157.5994L13080.1041,-3157.7885L13080.2261,-3157.9494L13080.9998,-3157.9815L13080.9662,-3157.6468L13080.8746,-3157.1865L13081.8344,-3156.4789L13084.8648,-3156.1789L13086.3586,-3154.6932L13086.3602,-3154.6925"/>
<path content="AP030,1,28,1,0,15,1,8,JPN" xlink:title="AP030" d="M13130.3223,-3157.7728L13130.4581,-3157.2218L13131.1554,-3156.813L13131.3828,-3155.3776L13131.1951,-3154.9669L13131.2393,-3154.541L13130.5252,-3154.3543L13130.3589,-3153.7066"/>
<path content="AP030,1,28,1,0,14,1,8,JPN" xlink:title="AP030" d="M13137.1796,-3153.5267L13137.6099,-3153.6667L13137.8296,-3153.8666L13138.1104,-3153.9734L13138.2202,-3154.0798L13138.2004,-3154.4065L13138.0508,-3154.4476L13137.8098,-3154.5134L13137.6999,-3154.6598L13137.8601,-3154.7998L13137.8601,-3155.1266L13137.9501,-3155.5065L13137.9898,-3155.6334L13138.1104,-3155.7734L13138.2401,-3155.9732L13138.5406,-3156.1533L13138.6795,-3156.2065L13138.6093,-3156.3866L13138.7207,-3156.5332L13138.8794,-3156.6399L13139.3799,-3156.6799L13139.5203,-3156.86L13139.6103,-3157.1066L13139.5203,-3157.2199L13139.5203,-3157.3465L13139.5203,-3157.4865L13139.5798,-3157.5933L13139.6957,-3157.6847L13139.7903,-3157.7599L13139.7903,-3158.0999L13139.9506,-3158.1932L13140.1093,-3158.28L13140.3305,-3158.2998L13140.2695,-3158.6065"/>
<path content="AP030,1,28,1,0,14,1,8,JPN" xlink:title="AP030" d="M13130.3589,-3153.7066L13130.3604,-3153.7066L13130.7007,-3153.6533L13131.1096,-3153.6133L13131.2698,-3153.5398L13131.4301,-3153.4332L13131.4697,-3153.3266L13131.8298,-3153.3266L13132.0801,-3153.1666L13132.2693,-3153.1067L13132.4295,-3153.0733L13132.6096,-3152.9467L13132.93,-3152.9467L13133.1497,-3152.8933L13133.2397,-3152.9467L13133.2397,-3153.0399L13133.2901,-3153.2534L13133.4,-3153.2866L13133.4702,-3153.2866L13133.6105,-3153.22L13133.7006,-3153.1265L13133.8104,-3153.0933L13133.9005,-3153.0933L13134.0393,-3153.22L13134.1095,-3153.2866L13134.1995,-3153.36L13134.61,-3153.4866L13135.1303,-3153.6133L13135.3806,-3153.8465L13136.2701,-3154.8199L13136.7401,-3154.32L13137.0483,-3153.7643L13137.1796,-3153.5267"/>
<path content="AP030,1,28,1,0,15,1,8,JPN" xlink:title="AP030" d="M13130.3223,-3157.7728L13129.5624,-3158.408L13128.3371,-3158.3141L13127.8061,-3158.2401L13125.8102,-3156.6669L13124.3484,-3155.5309L13124.5331,-3154.8847L13124.1364,-3154.623L13124.1562,-3154.0632L13123.1293,-3152.6917"/>
<path content="AP030,1,28,1,0,15,1,8,JPN" xlink:title="AP030" d="M13120.9534,-3155.9469L13121.0724,-3155.591L13121.7194,-3155.0821L13121.8948,-3154.7262L13122.1298,-3154.2177L13122.1893,-3153.76L13122.5418,-3153.4039L13123.0118,-3152.9968L13123.1293,-3152.6917"/>
<path content="AP030,1,28,1,0,14,1,8,JPN" xlink:title="AP030" d="M13086.3602,-3154.6925L13086.3297,-3154.5866L13086.3602,-3154.48L13086.3602,-3154.4065L13086.38,-3154.3533L13086.3998,-3154.2599L13086.4502,-3154.1933L13086.5601,-3154.1332L13086.7004,-3154.0466L13086.7706,-3153.9734L13086.7905,-3153.8866L13086.8805,-3153.5933L13086.8607,-3153.5267L13086.8607,-3153.3798L13086.8607,-3153.3266L13086.8805,-3153.2534L13086.9293,-3153.22L13086.9705,-3153.1799L13087.0407,-3153.1799L13087.1796,-3153.1799L13087.3306,-3153.1466L13087.4298,-3153.0933L13087.5793,-3153.0199L13087.5595,-3152.8933L13087.5595,-3152.7866L13087.5397,-3152.66L13087.5198,-3152.5866L13087.4298,-3152.5133L13087.3596,-3152.4799L13087.3596,-3152.4265L13087.3596,-3152.3733L13087.3993,-3152.2598L13087.3795,-3152.1933L13087.3596,-3152.1334"/>
<path content="AP030,1,28,1,0,14,1,8,JPN" xlink:title="AP030" d="M13087.3596,-3152.1334L13087.2894,-3152.1198L13087.1994,-3152.1532L13087.1506,-3152.1933L13087.0605,-3152.2266L13086.7203,-3152.1933"/>
<path content="AP030,1,28,1,0,14,1,8,JPN" xlink:title="AP030" d="M13097.879,-3151.3796L13097.8806,-3151.38L13097.9507,-3151.4334L13098.1796,-3151.8133L13098.2895,-3152.0266L13098.3597,-3152.1532L13098.3597,-3152.3333L13098.4299,-3152.5534L13098.4894,-3152.6798L13098.6099,-3152.7332L13098.79,-3152.7866L13098.97,-3152.8198L13099.1104,-3152.8933L13099.1806,-3152.9667L13099.2706,-3153.1265L13099.2401,-3153.3066L13099.2706,-3153.3998L13099.3301,-3153.4866L13099.4003,-3153.5599L13099.4003,-3153.6533L13099.4003,-3153.7199L13099.4293,-3153.9398L13099.6796,-3154.1332L13099.7894,-3154.1933L13099.8596,-3154.2465L13099.8795,-3154.9465L13099.8596,-3155.1466L13099.8596,-3155.3267L13099.8993,-3155.4533L13099.9695,-3155.5933L13099.9695,-3155.6665L13099.9298,-3155.7598L13099.8795,-3155.8998L13099.8596,-3156.1199L13099.8596,-3156.2599L13099.8596,-3156.3L13099.7894,-3156.4598L13099.7696,-3156.6799L13099.7406,-3157.1667L13099.6796,-3157.1798L13099.5193,-3157.2332L13099.3301,-3157.3265L13099.3301,-3157.4333L13099.3103,-3157.6532L13099.3607,-3157.8466L13099.6307,-3158.0465L13098.9304,-3158.5867L13098.8297,-3158.6599L13098.7198,-3158.7999L13098.8297,-3158.9132L13098.7701,-3159.0733L13098.79,-3159.3065"/>
<path content="AP030,1,28,1,0,14,1,8,JPN" xlink:title="AP030" d="M13097.1298,-3151.2865L13097.3602,-3151.3065L13097.6105,-3151.3266L13097.7707,-3151.3466L13097.879,-3151.3796"/>
<path content="AP030,1,28,1,0,14,1,8,JPN" xlink:title="AP030" d="M13096.6797,-3151.1267L13097.1298,-3151.2865"/>
<path content="AP030,1,28,1,0,14,1,8,JPN" xlink:title="AP030" d="M13096.6797,-3151.1267L13096.6797,-3151.1799L13096.6995,-3151.2333L13096.7194,-3151.2733L13096.9498,-3151.2865L13097.1298,-3151.2865"/>
<path content="AP030,1,28,1,0,15,1,8,JPN" xlink:title="AP030" d="M13086.3602,-3154.6925L13086.9644,-3154.3846L13087.8098,-3154.3919L13088.7558,-3153.8033L13089.6729,-3153.484L13090.3976,-3153.3001L13090.979,-3153.4674L13090.9256,-3153.9463L13090.3015,-3154.8325L13090.0345,-3155.6568L13090.1901,-3155.8502L13090.7379,-3155.6826L13091.095,-3154.9864L13093.277,-3153.4088L13094.3848,-3152.289L13094.5404,-3151.0733"/>
<path content="AP030,1,28,1,0,14,1,8,JPN" xlink:title="AP030" d="M13096.0602,-3150.9132L13096.6797,-3151.1267"/>
<path content="AP030,1,28,1,0,14,1,8,JPN" xlink:title="AP030" d="M13096.0602,-3150.9132L13095.99,-3150.9132L13095.7703,-3150.9466L13095.2698,-3150.9998L13095.0607,-3151.0399L13094.6793,-3151.0933L13094.5404,-3151.0733"/>
<path content="AP030,1,28,1,0,14,1,8,JPN" xlink:title="AP030" d="M13096.0602,-3150.9132L13096.1304,-3150.9132L13096.4294,-3150.9666L13096.6095,-3150.9998L13096.6507,-3151.0532L13096.6797,-3151.1267"/>
<path content="AP030,1,28,1,0,14,1,8,JPN" xlink:title="AP030" d="M13136.9705,-3150.7666L13137.1994,-3151.0399L13137.3596,-3151.2199L13137.3993,-3151.3266L13137.2894,-3151.4666L13137.1506,-3151.6867L13136.9705,-3151.94L13137.0407,-3152.0132L13137.1506,-3152.08L13137.6099,-3152.1933L13137.6999,-3152.2066L13137.8296,-3152.2266L13137.8799,-3152.2999L13137.8601,-3152.4067L13137.6999,-3152.5L13137.5595,-3152.6066L13137.5595,-3152.66L13137.5793,-3152.8399L13137.5397,-3152.9467L13137.3596,-3153.1799L13137.1796,-3153.5267"/>
<path content="AP030,1,28,1,0,14,1,8,JPN" xlink:title="AP030" d="M13130.3589,-3153.7066L13129.9301,-3153.7066L13129.8599,-3153.76L13129.6295,-3153.92L13129.4907,-3154.0266L13129.3304,-3154.2067L13129.2206,-3154.2465L13129.0604,-3154.2465L13128.9307,-3154.1933L13128.7201,-3154.0133L13128.36,-3153.8334L13128.2898,-3153.8334L13128.1998,-3153.8465L13128.0807,-3153.9L13127.9495,-3153.9398L13127.8305,-3153.92L13127.7863,-3153.9156L13127.4902,-3153.8866L13127.1805,-3153.8334L13126.9897,-3153.6865L13126.7899,-3153.6133L13126.6495,-3153.4666L13126.5198,-3153.1265L13126.3794,-3152.9467L13126.1505,-3152.8933L13125.9293,-3152.7866L13125.7202,-3152.4599L13125.3601,-3151.9733L13125.3601,-3151.7599L13125.2396,-3151.6533L13125.2396,-3151.3266L13125.0397,-3151.1267L13124.8993,-3150.9266L13124.8093,-3150.7465L13124.8856,-3150.5091"/>
<path content="AP030,1,28,1,0,15,1,8,JPN" xlink:title="AP030" d="M13123.1293,-3152.6917L13123.1293,-3152.3357L13123.1888,-3151.8272L13123.4833,-3151.2678L13124.0112,-3150.8101L13124.678,-3150.5804L13124.8856,-3150.5091"/>
<path content="AP030,1,28,1,0,14,1,8,JPN" xlink:title="AP030" d="M13094.5404,-3151.0733L13094.31,-3150.9666L13093.9499,-3150.7666L13093.6798,-3150.5865L13093.3807,-3150.3332L13093.0801,-3150.0799L13092.9504,-3149.9733L13092.5385,-3149.6582"/>
<path content="AP030,1,28,1,0,15,1,8,JPN" xlink:title="AP030" d="M13087.3596,-3152.1334L13088.3041,-3151.6911L13088.8916,-3151.5894L13089.2456,-3151.6909L13090.0101,-3151.8431L13090.4221,-3151.7414L13091.0095,-3151.2333L13091.4215,-3150.7759L13092.009,-3150.2171L13092.3035,-3149.8613L13092.5385,-3149.6582"/>
<path content="AP030,1,28,1,0,15,1,8,JPN" xlink:title="AP030" d="M13100.6592,-3157.7871L13101.1887,-3156.9731L13101.6006,-3156.1085L13102.0706,-3155.7524L13102.7176,-3155.3961L13103.4821,-3155.1414L13104.071,-3154.7344L13104.6005,-3154.1241L13104.953,-3153.3611L13105.13,-3153.056L13105.9525,-3152.8013L13106.8359,-3152.445L13107.1884,-3152.0889L13107.6584,-3150.8684L13107.7759,-3149.9531L13108.0093,-3149.5461"/>
<path content="AP030,1,28,1,0,15,1,8,JPN" xlink:title="AP030" d="M13078.125,-3151.9278L13078.3432,-3152.0008L13078.7506,-3152.4563L13080.3802,-3152.7084L13082.3029,-3152.5311L13083.3847,-3151.984L13083.8791,-3152.2955L13084.3521,-3152.4843L13085.8276,-3152.2102L13086.7203,-3152.1933"/>
<path content="AP030,1,28,1,0,15,1,8,JPN" xlink:title="AP030" d="M13110.8582,-3148.5727L13111.3403,-3148.671L13111.4044,-3149.0685L13111.6547,-3149.3599L13113.7375,-3151.3344L13114.328,-3151.4107L13114.8376,-3151.6012L13115.1138,-3151.6529L13115.1489,-3151.9878L13115.451,-3152.1322L13115.8417,-3152.1023L13116.1728,-3151.977L13117.1829,-3152.4178L13118.3472,-3152.0851L13119.4733,-3152.112L13120.4529,-3152.1877L13120.9808,-3152.5307L13121.4417,-3152.5059L13121.756,-3152.8625L13122.2244,-3152.7777L13122.5098,-3152.4071L13123.1293,-3152.6917"/>
<path content="AP030,1,28,1,0,15,1,8,JPN" xlink:title="AP030" d="M13113.6063,-3155.504L13113.7939,-3155.1146L13113.7344,-3154.3547L13113.5559,-3153.7066L13113.797,-3153.091L13111.0153,-3150.7296L13110.8582,-3148.5727"/>
<path content="AP030,1,28,1,0,14,1,8,JPN" xlink:title="AP030" d="M13124.8856,-3150.5091L13125.0198,-3150.0799L13124.9496,-3149.7932L13124.7406,-3148.8934L13124.4507,-3148.5867L13124.2401,-3148.2792"/>
<path content="AP030,1,28,1,0,15,1,8,JPN" xlink:title="AP030" d="M13097.879,-3151.3796L13098.3353,-3151.0628L13098.7534,-3149.7496L13098.8876,-3149.1465L13099.4888,-3148.7186L13100.6668,-3148.2967L13101.2054,-3148.4383L13101.5381,-3148.5636L13102.002,-3148.3425L13102.5345,-3148.543L13103.0014,-3148.5004L13103.0975,-3148.2506L13103.4195,-3148.2563L13104.3228,-3148.8817L13105.3024,-3149.4535L13106.7963,-3149.5312L13106.8192,-3149.3153L13107.4753,-3149.4459L13107.753,-3149.4476L13108.0093,-3149.5461"/>
<path content="AP030,1,28,1,0,15,1,8,JPN" xlink:title="AP030" d="M13110.8582,-3148.5727L13109.7672,-3147.9626"/>
<path content="AP030,1,28,1,0,15,1,8,JPN" xlink:title="AP030" d="M13108.0093,-3149.5461L13108.6578,-3149.139L13109.3048,-3148.8338L13109.7672,-3147.9626"/>
<path content="AP030,1,28,1,0,15,1,8,JPN" xlink:title="AP030" d="M13109.7672,-3147.9626L13109.9701,-3147.58"/>
<path content="AP030,1,28,1,0,14,1,8,JPN" xlink:title="AP030" d="M13086.7203,-3152.1933L13086.7203,-3152.1198L13086.7203,-3152.0266L13086.7706,-3151.9533L13086.8301,-3151.8866L13086.9003,-3151.8465L13086.9293,-3151.7933L13086.9507,-3151.7199L13086.9904,-3151.6867L13087.0605,-3151.6333L13087.1094,-3151.5932L13087.1506,-3151.5598L13087.1506,-3151.4866L13087.0804,-3151.4334L13087.0605,-3151.3599L13086.9705,-3151.3466L13086.7905,-3151.3466L13086.7706,-3151.3266L13086.7706,-3151.2733L13086.7706,-3151.0933L13086.7706,-3151.0399L13086.7401,-3150.9998L13086.7004,-3150.9666L13086.6501,-3150.9666L13086.6104,-3150.9466L13086.4899,-3150.8932L13086.2,-3150.8734L13086.0794,-3150.8598L13085.9695,-3150.7866L13085.9497,-3150.7133L13085.9497,-3150.6065L13085.9497,-3150.5533L13085.9695,-3150.5133L13086.0794,-3150.4398L13086.1496,-3150.3866L13086.1801,-3150.3532L13086.1801,-3150.3332L13086.29,-3150.2266L13086.3998,-3150.1734L13086.4899,-3150.0999L13086.6501,-3149.9001L13086.7905,-3149.72L13086.9003,-3149.6134L13086.9507,-3149.56L13086.9705,-3149.4665L13086.9507,-3149.2733L13086.9507,-3149.2001L13086.9705,-3149.1467L13087.0407,-3149.1066L13087.3795,-3149L13087.1994,-3148.6601L13087.0804,-3148.5132L13087.0407,-3148.46L13087.0407,-3148.4266L13087.0407,-3148.3534L13087.0804,-3148.3L13087.0804,-3148.2466L13087.0605,-3148.1934L13087.0407,-3148.1199L13086.9904,-3148.0267L13086.9904,-3147.9733L13086.9904,-3147.92L13087.0193,-3147.8333L13087.0193,-3147.76L13087.0193,-3147.72L13086.9507,-3147.6665L13086.8301,-3147.6133L13086.7905,-3147.5599L13086.7706,-3147.5065L13086.7706,-3147.4333L13086.8591,-3147.2525"/>
<path content="AP030,1,28,1,0,15,1,8,JPN" xlink:title="AP030" d="M13136.9705,-3150.7666L13135.8337,-3149.6412L13135.7056,-3149.4001L13136.1771,-3148.9407L13136.1099,-3148.4734L13135.4965,-3147.7001L13134.4513,-3146.9933"/>
<path content="AP030,1,28,1,0,15,1,8,JPN" xlink:title="AP030" d="M13124.2401,-3148.2792L13125.0244,-3147.6257L13125.2426,-3147.7415L13125.7828,-3148.4764L13126.6388,-3149.1365L13127.2629,-3149.0524L13128.2639,-3148.6998L13128.9902,-3148.7555L13129.6494,-3148.3437L13130.4733,-3148.2086L13131.0135,-3147.8207L13131.6925,-3147.9715L13132.5546,-3148.2025L13133.4564,-3147.6768L13133.8867,-3147.6107L13134.4513,-3146.9933"/>
<path content="AP030,1,28,1,0,14,1,8,JPN" xlink:title="AP030" d="M13124.2401,-3148.2792L13123.8998,-3147.6334L13123.7289,-3147.645L13123.6099,-3147.6534L13123.4497,-3147.5266L13123.2697,-3146.8933L13123.1796,-3146.46L13122.9294,-3146.2799L13122.8104,-3146.1733"/>
<path content="AP030,1,28,1,0,14,1,8,JPN" xlink:title="AP030" d="M13135.6094,-3145.9532L13135.5392,-3146.1332L13135.5392,-3146.32L13135.6293,-3146.4266L13135.7193,-3146.48L13135.7407,-3146.5866L13135.7407,-3146.7667L13135.7895,-3146.9999L13135.8795,-3147.0934L13135.9497,-3147.1466L13136.1298,-3147.2532L13136.38,-3147.2866L13136.4899,-3147.36L13136.9003,-3147.58L13137.0605,-3147.6334L13137.2894,-3147.72L13137.3795,-3147.8466L13137.4496,-3147.9401L13137.7899,-3147.9532L13138.0402,-3148.0133L13138.2706,-3148.0665L13138.3606,-3148.1533L13138.4003,-3148.2466L13138.4506,-3148.3732L13138.5406,-3148.5001L13138.5605,-3148.6067L13138.5193,-3148.7665L13138.4293,-3148.9134L13138.3606,-3148.9134L13138.2706,-3148.9666L13138.2202,-3149.04L13138.2202,-3149.1266L13138.2401,-3149.2533L13138.1805,-3149.3465L13138.15,-3149.4534L13138.2706,-3149.6532L13138.3301,-3149.8466L13138.3606,-3150.0134L13138.3606,-3150.1534L13138.2904,-3150.1932L13138.15,-3150.2266L13138.0203,-3150.2266L13137.8998,-3150.2266L13137.6999,-3150.2266L13137.5198,-3150.2466L13137.3795,-3150.3L13137.3596,-3150.3733L13137.2894,-3150.4599L13137.2696,-3150.5133L13137.1994,-3150.5133L13137.1796,-3150.5333L13137.0407,-3150.5333L13137.0407,-3150.5865L13136.9705,-3150.7666"/>
<path content="AP030,1,28,1,0,15,1,8,JPN" xlink:title="AP030" d="M13134.4513,-3146.9933L13134.6512,-3146.183L13135.0189,-3145.6165L13135.6094,-3145.9532"/>
<path content="AP030,1,28,1,0,15,1,8,JPN" xlink:title="AP030" d="M13086.8591,-3147.2525L13089.1006,-3145.7687L13089.5844,-3145.3554"/>
<path content="AP030,1,28,1,0,14,1,8,JPN" xlink:title="AP030" d="M13122.8104,-3146.1733L13122.3892,-3145.9185L13121.1502,-3145.1666L13120.9305,-3145.3466L13120.8603,-3145.4L13120.5597,-3145.54L13120.3796,-3145.54L13120.0195,-3145.6333L13119.6304,-3145.6865L13118.7897,-3145.6665L13118.4692,-3145.7933L13118.2693,-3145.7399L13118.1107,-3145.7399L13117.9504,-3145.76L13117.5201,-3145.5067L13117.2897,-3145.54L13117.1097,-3145.6333L13116.9693,-3145.7199L13116.9006,-3145.7933L13116.7694,-3145.94L13116.5802,-3145.94L13116.3605,-3145.9732L13116.1301,-3146.08L13116.0599,-3146.2267L13115.9698,-3146.32L13115.8295,-3146.3734L13115.6494,-3146.4066L13115.5197,-3146.5L13115.4007,-3146.64L13115.3305,-3146.7867L13115.1993,-3146.8201L13115.1306,-3146.7867L13115.0192,-3146.7667L13114.9307,-3146.7867L13114.5401,-3146.8733L13114.36,-3146.8733L13114.18,-3146.7867L13113.9893,-3146.7133L13113.8794,-3146.7133L13113.7894,-3146.7133L13113.6505,-3146.7667L13113.5803,-3146.8599L13113.4903,-3146.8733L13113.3804,-3146.8933L13113.3301,-3146.9999L13113.2706,-3147.1466L13113.2706,-3147.4001L13113.2401,-3147.4533L13113.1104,-3147.4533L13112.7701,-3147.4001L13112.6999,-3147.4533L13112.5549,-3147.6334L13112.4695,-3147.74L13112.3596,-3147.8666L13112.1994,-3147.8867L13112.0193,-3147.8666L13111.7706,-3147.8132L13111.6501,-3147.8333L13111.4304,-3147.9733L13111.2396,-3148.0665L13111.1099,-3148.0801L13111.0199,-3148.0467L13110.8597,-3147.8867L13110.6293,-3147.7934L13110.2707,-3147.6665L13109.9701,-3147.58"/>
<path content="AP030,1,28,1,0,14,1,8,JPN" xlink:title="AP030" d="M13109.9701,-3147.58L13109.61,-3147.4533L13109.3994,-3147.3801L13109.1293,-3147.3267L13108.9706,-3147.1266L13108.9294,-3147.0533L13108.1497,-3146.66L13107.4295,-3146.48L13107.1304,-3146.32L13106.7703,-3145.9732L13106.3599,-3145.7933L13106.1798,-3145.6133L13105.8105,-3145.38L13105.4901,-3145.0733L13105.3101,-3144.9665L13104.8996,-3144.7866L13104.5807,-3144.5"/>
<path content="AP030,1,28,1,0,14,1,8,JPN" xlink:title="AP030" d="M13092.5385,-3149.6582L13092.3599,-3149.3799L13092.2897,-3149.2733L13092.2699,-3149.2001L13092.2699,-3148.86L13092.1799,-3148.46L13092.1494,-3148.3534L13092.1494,-3148.28L13092.2195,-3148.0133L13092.2394,-3147.8867L13092.2195,-3147.7934L13092.2394,-3147.6866L13092.2195,-3147.5933L13092.2195,-3147.5266L13092.3096,-3147.4533L13092.3599,-3147.4133L13092.3798,-3147.3467L13092.3798,-3147.2866L13092.3798,-3147.2L13092.3599,-3147.1266L13092.3798,-3147.02L13092.4301,-3146.9267L13092.45,-3146.8599L13092.45,-3146.7867L13092.3996,-3146.7333L13092.2699,-3146.6801L13092.1097,-3146.5134L13092.0395,-3146.4066L13092.0197,-3146.3533L13092.0395,-3146.2601L13092.1295,-3146.1933L13092.1799,-3146.1533L13092.1494,-3146.08L13092.1295,-3146.0133L13092.1295,-3145.94L13092.2699,-3145.8466L13092.3599,-3145.7399L13092.3996,-3145.6533L13092.45,-3145.5933L13092.4698,-3145.54L13092.45,-3145.4866L13092.3996,-3145.4866L13092.3294,-3145.5067L13092.2699,-3145.5601L13092.1997,-3145.5799L13092.1494,-3145.54L13092.0395,-3145.4132L13092.0197,-3145.3266L13092.0395,-3145.2732L13092.1097,-3145.2L13092.1097,-3145.1666L13092.0593,-3145.1065L13092.0197,-3145.0533L13091.9495,-3145.0199L13091.9495,-3144.9467L13092.1799,-3144.7132L13092.2897,-3144.6066L13092.2897,-3144.5534L13092.2897,-3144.4799L13092.0807,-3144.3733L13091.7694,-3144.2266L13091.2399,-3143.94L13091.2384,-3143.9394"/>
<path content="AP030,1,28,1,0,15,1,8,JPN" xlink:title="AP030" d="M13090.1878,-3144.8391L13091.2384,-3143.94L13091.2384,-3143.9394"/>
<path content="AP030,1,28,1,0,15,1,8,JPN" xlink:title="AP030" d="M13134.4513,-3146.9933L13134.1553,-3146.1451L13133.4427,-3146.3221L13133.2001,-3146.4355L13132.547,-3146.4188L13132.135,-3145.562L13131.749,-3145.5654L13131.2958,-3146.2242L13130.9052,-3145.8973L13130.2795,-3145.2551L13129.7272,-3145.3779L13128.5599,-3145.1235L13127.948,-3144.7134L13127.7664,-3144.2373L13127.179,-3143.4532"/>
<path content="AP030,1,28,1,0,15,1,8,JPN" xlink:title="AP030" d="M13127.179,-3143.4532L13127.1103,-3143.4532"/>
<path content="AP030,1,28,1,0,15,1,8,JPN" xlink:title="AP030" d="M13092.5385,-3149.6582L13093.3609,-3149.1501L13093.7729,-3148.642L13094.0674,-3148.1339L13094.3024,-3147.3211L13094.4778,-3146.813L13094.8303,-3146.5082L13095.4773,-3146.3049L13096.0068,-3146.1016L13096.5363,-3145.5425L13097.1832,-3144.9329L13098.3002,-3144.323L13099.8291,-3143.1543"/>
<path content="AP030,1,28,1,0,14,1,8,JPN" xlink:title="AP030" d="M13122.8104,-3146.1733L13122.9904,-3146.1201L13123.0072,-3146.1086L13123.2697,-3145.94L13123.5199,-3145.7933L13123.79,-3145.6333L13123.8297,-3145.4866L13123.88,-3145.4332L13124.0204,-3145.3466L13124.2203,-3145.2L13124.2905,-3145.0733L13124.3607,-3145.0199L13124.4705,-3144.9865L13124.5193,-3144.9467L13124.5193,-3144.9133L13124.5193,-3144.8601L13124.4705,-3144.82L13124.5193,-3144.7132L13124.5605,-3144.66L13124.6094,-3144.5665L13124.6307,-3144.3333L13124.7192,-3144.3199L13124.8093,-3144.26L13124.8596,-3144.1732L13124.9298,-3144.0466L13125.0198,-3143.94L13125.0595,-3143.8866L13125.1495,-3143.8665L13125.3098,-3143.8665L13125.5203,-3143.8334L13125.65,-3143.7733L13125.7202,-3143.7065L13125.7706,-3143.5266L13125.8301,-3143.4866L13125.9705,-3143.4L13126.1795,-3143.2533L13126.2405,-3143.1665L13126.2894,-3143.1067L13126.5198,-3143.1267L13126.68,-3143.1465L13126.7899,-3143.2333L13126.8799,-3143.3466L13126.9897,-3143.4L13127.1103,-3143.4532"/>
<path content="AP030,1,28,1,0,14,1,8,JPN" xlink:title="AP030" d="M13104.5807,-3144.5L13104.3594,-3144.5L13103.6301,-3144.2266L13103.27,-3144.0132L13102.4506,-3143.6533L13101.9501,-3143.4134L13101.6495,-3143.1665L13101.4694,-3142.9667L13101.3306,-3142.7999L13101.1093,-3142.66"/>
<path content="AP030,1,28,1,0,14,1,8,JPN" xlink:title="AP030" d="M13091.2384,-3143.9394L13090.6799,-3143.6333L13090.6296,-3143.6132L13090.3305,-3143.4532L13090.2206,-3143.4134L13090.1794,-3143.3599L13090.0604,-3143.2199L13089.8102,-3142.9266L13089.3799,-3142.4601L13089.3784,-3142.4582"/>
<path content="AP030,1,28,1,0,15,1,8,JPN" xlink:title="AP030" d="M13089.5844,-3145.3554L13089.4913,-3143.7277L13089.3784,-3142.4599L13089.3784,-3142.4582"/>
<path content="AP030,1,28,1,0,14,1,8,JPN" xlink:title="AP030" d="M13101.9501,-3141.9533L13102.3693,-3142.3924L13103.05,-3142.926L13103.77,-3143.395L13104.76,-3143.93L13104.5807,-3144.5"/>
<path content="AP030,1,28,1,0,14,1,8,JPN" xlink:title="AP030" d="M13101.9501,-3141.9533L13101.77,-3142.0465L13101.5793,-3142.2066L13101.3794,-3142.2266L13101.2695,-3142.3332L13101.1505,-3142.4601L13101.1093,-3142.66"/>
<path content="AP030,1,28,1,0,14,1,8,JPN" xlink:title="AP030" d="M13086.8591,-3147.2525L13086.8301,-3147.18L13086.8301,-3147.0533L13086.7905,-3146.9866L13086.6806,-3146.8599L13086.5204,-3146.7867L13086.4502,-3146.7466L13086.4304,-3146.6932L13086.4502,-3146.6066L13086.47,-3146.5532L13086.4502,-3146.48L13086.29,-3146.2601L13086.2,-3146.1533L13086.1801,-3146.0266L13086.1496,-3145.94L13086.0397,-3145.8332L13085.9695,-3145.76L13085.8994,-3145.6533L13085.7895,-3145.5933L13085.6995,-3145.5601L13085.6995,-3145.5265L13085.6995,-3145.4866L13085.7193,-3145.4132L13085.7697,-3145.3266L13085.7697,-3145.1799L13085.7697,-3145.0533L13085.7407,-3144.8933L13085.6995,-3144.7132L13085.6995,-3144.5534L13085.6293,-3144.3333L13085.6094,-3144.1732L13085.6094,-3144.0466L13085.5804,-3143.8665L13085.5392,-3143.6867L13085.4507,-3143.4866L13085.3302,-3143.3466L13085.2402,-3143.2533L13085.2005,-3143.1801L13085.1807,-3143.1267L13085.1807,-3143.0532L13085.1501,-3142.9667L13085.08,-3142.84L13085.0204,-3142.7334L13084.9701,-3142.5333L13084.9899,-3142.3201L13085.0403,-3142.1534L13085.0403,-3142.0666L13085.0403,-3141.9733L13085.0204,-3141.9201L13084.9701,-3141.8865L13084.8801,-3141.7933L13084.79,-3141.74L13084.7702,-3141.6866L13084.7397,-3141.6332L13084.7702,-3141.56L13084.8297,-3141.54L13084.8801,-3141.54L13084.9304,-3141.5066L13084.9701,-3141.4534L13085.08,-3141.4L13085.2005,-3141.3265L13085.2707,-3141.2733L13085.3104,-3141.18"/>
<path content="AP030,1,28,1,0,14,1,8,JPN" xlink:title="AP030" d="M13085.3104,-3141.18L13085.3806,-3141.04L13085.4294,-3140.9666L13085.4706,-3140.9134L13085.5194,-3140.8733L13085.5194,-3140.7133L13085.5194,-3140.5533L13085.5194,-3140.46L13085.5209,-3140.4402"/>
<path content="AP030,1,28,1,0,14,1,8,JPN" xlink:title="AP030" d="M13089.3784,-3142.4582L13088.9496,-3141.9201L13088.4293,-3141.3265L13088.15,-3141.02L13087.8799,-3140.7467L13087.6999,-3140.5333L13087.3306,-3140.1199"/>
<path content="AP030,1,28,1,0,15,1,8,JPN" xlink:title="AP030" d="M13085.3104,-3141.18L13086.0382,-3141.0553L13086.6592,-3140.6561L13087.0728,-3140.3118L13087.3306,-3140.1199"/>
<path content="AP030,1,28,1,0,14,1,8,JPN" xlink:title="AP030" d="M13085.5209,-3140.4402L13085.6094,-3140.4066L13085.9695,-3140.28L13086.7203,-3140.2065L13086.9293,-3140.2065L13087.1994,-3140.1533L13087.3306,-3140.1199"/>
<path content="AP030,1,28,1,0,15,1,8,JPN" xlink:title="AP030" d="M13081.8771,-3139.8588L13082.7545,-3140.6569L13083.7265,-3141.0973L13084.874,-3141.2069L13085.3104,-3141.18"/>
<path content="AP030,1,28,1,0,14,1,8,JPN" xlink:title="AP030" d="M13096.3791,-3139.6864L13096.3806,-3139.6866L13096.6293,-3139.7066L13097.0596,-3140.0267L13097.4304,-3140.3L13097.6105,-3140.4066L13097.9706,-3140.6067L13098.1995,-3140.7333L13098.88,-3141.1467L13099.3301,-3141.4L13099.5193,-3141.5066L13099.5804,-3141.56L13099.6506,-3141.6332L13099.6796,-3141.6533L13099.8596,-3141.7933L13100.0595,-3142.0666L13100.1801,-3142.28L13100.2701,-3142.4067L13100.4501,-3142.4999L13100.5402,-3142.5333L13100.9903,-3142.5865L13101.1093,-3142.66"/>
<path content="AP030,1,28,1,0,14,1,8,JPN" xlink:title="AP030" d="M13094.6106,-3139.4133L13094.8807,-3139.5266L13095.0806,-3139.5599L13095.2698,-3139.5599L13095.4498,-3139.5599L13095.6299,-3139.58L13096.3791,-3139.6864"/>
<path content="AP030,1,28,1,0,15,1,8,JPN" xlink:title="AP030" d="M13091.2384,-3143.9394L13094.3848,-3141.2067L13094.6106,-3139.4133"/>
<path content="AP030,1,28,1,0,14,1,8,JPN" xlink:title="AP030" d="M13132.2403,-3139.2332L13132.3593,-3139.2532L13132.3593,-3139.2866L13132.4905,-3139.4333L13132.5607,-3139.3999L13132.5607,-3139.36L13132.4905,-3139.2866L13132.5195,-3139.2733L13132.6797,-3139.2866L13132.7393,-3139.3465L13132.7896,-3139.4333L13132.93,-3139.4533L13133.02,-3139.4533L13133.11,-3139.5065L13133.1299,-3139.6133L13133.1299,-3139.6866L13133.1299,-3139.76L13133.1802,-3139.8132L13133.2901,-3139.9933L13133.3603,-3140.0133L13133.5205,-3139.9933L13134.0195,-3140.0133L13134.0393,-3140.0133L13134.2407,-3140.0133L13134.2407,-3140.0467L13134.1995,-3140.0999L13134.0393,-3140.2466L13133.9493,-3140.4266L13133.9294,-3140.46L13133.9294,-3140.5533L13133.9493,-3140.6933L13134.0393,-3140.86L13134.1095,-3141.0732L13134.1507,-3141.2201L13134.2697,-3141.3067L13134.3796,-3141.4L13134.5795,-3141.56L13134.6802,-3141.6332L13134.7702,-3141.7732L13134.8099,-3141.8865L13134.8297,-3141.9001L13134.8602,-3141.9001L13134.9899,-3141.8333L13135.1807,-3141.7933L13135.3104,-3141.8865L13135.3607,-3141.8865L13135.5606,-3141.9933L13135.6094,-3142.1L13135.5804,-3142.1932L13135.5392,-3142.3201L13135.4294,-3142.4267L13135.4004,-3142.4999L13135.4004,-3142.5533L13135.4294,-3142.5865L13135.5194,-3142.5865L13135.5804,-3142.5667L13135.6995,-3142.5865L13135.8307,-3142.6201L13135.9894,-3142.6201L13136.2,-3142.5333L13136.3602,-3142.5533L13136.3998,-3142.6399L13136.5402,-3142.82L13136.7203,-3142.9132L13136.8301,-3143.0201L13136.7905,-3143.1665L13136.7905,-3143.3065L13136.7905,-3143.4L13136.9003,-3143.6132L13136.9003,-3143.7599L13136.8805,-3144.1L13136.8607,-3144.5133L13136.8805,-3144.7466L13136.8607,-3144.8601L13136.6501,-3145.0733L13136.4304,-3145.3066L13136.2701,-3145.4533L13136.0199,-3145.5067L13135.7407,-3145.7399L13135.6094,-3145.9532"/>
<path content="AP030,1,28,1,0,14,1,8,JPN" xlink:title="AP030" d="M13127.179,-3143.4532L13127.1805,-3143.4532L13127.5803,-3143.4532L13127.7405,-3143.4532L13127.9297,-3143.4L13128.0807,-3143.3466L13128.1799,-3143.2734L13128.27,-3143.1665L13128.27,-3143.0733L13128.27,-3142.9667L13128.36,-3142.82L13128.45,-3142.7465L13128.6301,-3142.4601L13128.7704,-3142.2266L13128.7704,-3142.1734L13128.7903,-3142.1L13128.7704,-3142.0134L13128.7704,-3141.9933L13128.83,-3141.7067L13128.8803,-3141.6134L13128.9001,-3141.5934L13129.0207,-3141.5266L13129.2206,-3141.4534L13129.2694,-3141.4L13129.3304,-3141.3799L13129.4296,-3141.3799L13129.4495,-3141.3799L13129.5197,-3141.3067L13129.5395,-3141.2533L13129.6097,-3141.2001L13129.6997,-3141.1667L13129.7699,-3141.04L13129.9698,-3140.7467L13130.1102,-3140.5333L13130.2002,-3140.4066L13130.2399,-3140.3L13130.3802,-3140.0999L13130.4901,-3139.9L13130.4901,-3139.8466L13130.4901,-3139.76L13130.4703,-3139.6532L13130.5206,-3139.6133L13130.7007,-3139.6133L13130.8105,-3139.5599L13130.9494,-3139.4533L13131.1798,-3139.3267L13131.3599,-3139.3066L13131.5598,-3139.2733L13131.72,-3139.2733L13131.8298,-3139.2866L13131.9,-3139.3066L13131.9504,-3139.2332L13131.9702,-3139.0932L13132.0206,-3139.0533L13132.1106,-3139.1266L13132.2403,-3139.2332"/>
<path content="AP030,1,28,1,0,15,1,8,JPN" xlink:title="AP030" d="M13087.3306,-3140.1199L13087.9822,-3139.3894L13088.4735,-3138.88"/>
<path content="AP030,1,28,1,0,15,1,8,JPN" xlink:title="AP030" d="M13089.3784,-3142.4582L13089.5187,-3138.876"/>
<path content="AP030,1,28,1,0,14,1,8,JPN" xlink:title="AP030" d="M13087.3306,-3140.1199L13088.1104,-3140.0999L13088.7405,-3140.0999L13088.8794,-3140.0133L13089.3097,-3139.22L13089.5187,-3138.876"/>
<path content="AP030,1,28,1,0,14,1,8,JPN" xlink:title="AP030" d="M13078.125,-3139.7164L13078.36,-3139.7066L13078.8101,-3139.6866L13079.0802,-3139.6532L13079.1794,-3139.5933L13079.2694,-3139.5065L13079.4296,-3139.3801L13079.5197,-3139.2733L13079.6997,-3139.1266L13079.9698,-3138.9866L13080.1804,-3139.1066L13080.4001,-3139.0932L13080.5405,-3138.9866L13080.9006,-3138.8933L13080.9692,-3138.8733L13081.3797,-3138.8733L13081.7703,-3138.9465L13082.2693,-3139.1266L13082.9895,-3139.6866L13083.58,-3140.0999L13083.9493,-3140.3732L13084.1095,-3140.48L13084.2896,-3140.5867L13084.4894,-3140.6599L13084.7397,-3140.62L13085.0601,-3140.5333L13085.5209,-3140.4402"/>
<path content="AP030,1,28,1,0,14,1,8,JPN" xlink:title="AP030" d="M13089.5187,-3138.876L13089.5203,-3138.8733L13089.7202,-3138.9133L13089.8102,-3138.9465L13089.9002,-3138.9133L13090.0192,-3138.9133L13090.1505,-3138.9265L13090.1993,-3138.9666L13090.3107,-3138.9666L13090.5197,-3138.9666L13090.6799,-3139.02L13090.7394,-3139.04L13090.7898,-3139.1066L13090.86,-3139.2L13090.9698,-3139.2866L13091.1102,-3139.3465L13091.2003,-3139.3465L13091.3803,-3139.3066L13091.6306,-3139.3066L13093.0405,-3139.3801L13093.5394,-3139.3801L13093.6798,-3139.36L13093.8293,-3139.3999L13093.9896,-3139.4533L13094.1101,-3139.4667L13094.4504,-3139.36L13094.5404,-3139.3999L13094.6106,-3139.4133"/>
<path content="AP030,1,28,1,0,14,1,8,JPN" xlink:title="AP030" d="M13085.5209,-3140.4402L13085.5392,-3140.1934L13085.4507,-3140.0999L13085.3607,-3140.0801L13085.3302,-3139.9933L13085.2905,-3139.76L13085.2905,-3139.58L13085.2905,-3139.4865L13085.2707,-3139.3999L13085.1501,-3139.22L13084.9503,-3138.9999L13084.9503,-3138.9866L13084.8801,-3138.8733L13084.8297,-3138.7865"/>
<path content="AP030,1,28,1,0,14,1,8,JPN" xlink:title="AP030" d="M13083.9294,-3138.7333L13084.2697,-3138.7333L13084.3597,-3138.7466L13084.4498,-3138.8L13084.5398,-3138.8399L13084.61,-3138.8599L13084.8297,-3138.7865"/>
<path content="AP030,1,28,1,0,15,1,8,JPN" xlink:title="AP030" d="M13085.9497,-3138.6066L13088.4735,-3138.88"/>
<path content="AP030,1,28,1,0,14,1,8,JPN" xlink:title="AP030" d="M13087.3306,-3140.1199L13087.1994,-3139.9532L13086.0397,-3138.6932L13085.9497,-3138.6066"/>
<path content="AP030,1,28,1,0,15,1,8,JPN" xlink:title="AP030" d="M13088.4735,-3138.88L13088.6505,-3138.591"/>
<path content="AP030,1,28,1,0,14,1,8,JPN" xlink:title="AP030" d="M13084.8297,-3138.7865L13085.08,-3138.62L13085.2005,-3138.5532L13085.3607,-3138.62L13085.5194,-3138.62L13085.6293,-3138.5866L13085.7895,-3138.5866L13085.9497,-3138.6066"/>
<path content="AP030,1,28,1,0,14,1,8,JPN" xlink:title="AP030" d="M13100.5203,-3136.7466L13100.4898,-3137.0934L13100.5203,-3137.36L13100.6302,-3137.6534L13100.6805,-3138.0466L13100.6805,-3138.46L13100.7401,-3138.8201L13100.7904,-3139.04L13100.9293,-3139.3066L13101.0193,-3139.5933L13101.1093,-3139.74L13101.2894,-3140.2065L13101.4893,-3140.6933L13101.6098,-3141.02L13101.7899,-3141.4L13101.8997,-3141.6134L13101.8997,-3141.6533L13101.86,-3141.8467L13101.9501,-3141.9533"/>
<path content="AP030,1,28,1,0,15,1,8,JPN" xlink:title="AP030" d="M13096.3791,-3139.6864L13096.5714,-3139.2057L13096.8216,-3139.1651L13097.2092,-3138.8334L13098.0576,-3137.8134L13099.147,-3137.1746L13100.5203,-3136.7466"/>
<path content="AP030,1,28,1,0,15,1,8,JPN" xlink:title="AP030" d="M13132.2403,-3139.2332L13132.4203,-3138.7552L13132.4203,-3138.0943L13132.2433,-3137.4842L13132.1854,-3137.2299L13132.4203,-3136.9757L13132.8323,-3136.7722L13133.3023,-3136.772L13133.7738,-3136.7208L13134.3613,-3136.5171"/>
<path content="AP030,1,28,1,0,14,1,8,JPN" xlink:title="AP030" d="M13083.9294,-3138.7333L13083.8303,-3138.62L13083.6807,-3138.5134L13083.4305,-3138.32L13082.9697,-3138.2265L13082.8598,-3138.0466L13082.7698,-3137.8666L13082.5394,-3137.5265L13082.3807,-3137.2866L13082.1793,-3137.0001L13082.2906,-3136.8732L13082.3105,-3136.7666L13082.3303,-3136.66L13082.3303,-3136.5334L13082.3303,-3136.4599L13082.2906,-3136.3199L13082.2205,-3136.2467L13082.0404,-3136.1732L13081.7703,-3136.0666L13081.6299,-3136.0132L13081.5201,-3135.9934L13081.4301,-3135.9734L13081.3293,-3135.9734L13081.0806,-3135.8866L13080.9296,-3135.8465L13080.7007,-3135.8866L13080.5801,-3135.8866L13080.4901,-3135.8334L13080.3802,-3135.7401L13080.3101,-3135.6533L13080.2887,-3135.0931"/>
<path content="AP030,1,28,1,0,15,1,8,JPN" xlink:title="AP030" d="M13078.125,-3138.0774L13078.3585,-3137.8645L13078.2822,-3137.1546L13078.4821,-3136.7308L13079.277,-3135.5631L13079.2831,-3135.0357L13080.2887,-3135.0931"/>
<path content="AP030,1,28,1,0,15,1,8,JPN" xlink:title="AP030" d="M13095.2362,-3138.8744L13094.3558,-3137.9232L13094.1193,-3137.3138L13094.1788,-3136.755L13094.4717,-3136.5009L13094.8257,-3136.0945L13094.8257,-3135.8404L13094.5892,-3135.3834L13094.1162,-3134.4181"/>
<path content="AP030,1,28,1,0,15,1,8,JPN" xlink:title="AP030" d="M13094.1162,-3134.4181L13094.8242,-3134.3674L13095.8832,-3134.0624L13096.6476,-3133.9096L13097.3541,-3133.9096L13098.3536,-3134.4681L13099.295,-3134.8743L13100.1785,-3135.0266L13101.4725,-3135.0769"/>
<path content="AP030,1,28,1,0,14,1,8,JPN" xlink:title="AP030" d="M13080.2887,-3135.0931L13080.3299,-3134.9466L13080.5405,-3134.8734L13080.6107,-3134.7334L13080.5801,-3134.6199L13080.2002,-3134.4601L13080.1102,-3134.3201L13080.0201,-3134.0666L13080.1102,-3133.8667L13080.1498,-3133.8133L13080.2399,-3133.6533L13080.3604,-3133.4866L13080.4001,-3133.3799L13080.4001,-3133.2731L13080.4001,-3133.2729"/>
<path content="AP030,1,28,1,0,15,1,8,JPN" xlink:title="AP030" d="M13089.3372,-3133.1974L13091.2949,-3133.9109L13092.6483,-3134.2663L13093.5883,-3134.3676L13094.1162,-3134.4181"/>
<path content="AP030,1,28,1,0,15,1,8,JPN" xlink:title="AP030" d="M13083.9294,-3138.7333L13084.1202,-3137.4685L13084.5306,-3136.9097L13085.0601,-3136.503L13086.0596,-3136.1473L13087.355,-3135.9945L13088.237,-3135.9943L13088.649,-3135.791L13088.884,-3135.1814L13088.9999,-3134.5718L13089.3372,-3133.1974"/>
<path content="AP030,1,28,1,0,15,1,8,JPN" xlink:title="AP030" d="M13089.3372,-3133.1974L13089.4119,-3132.4383"/>
<path content="AP030,1,28,1,0,15,1,8,JPN" xlink:title="AP030" d="M13080.4001,-3133.2729L13081.4316,-3133.1846L13082.5134,-3133.1394L13083.5251,-3133.2644L13084.5642,-3133.1276L13085.1746,-3133.1764L13085.6323,-3133.2129L13086.7218,-3133.0799L13087.6434,-3132.6254L13088.4735,-3132.9996L13089.4119,-3132.4383"/>
<path content="AP030,1,28,1,0,14,1,8,JPN" xlink:title="AP030" d="M13080.4001,-3133.2729L13080.4001,-3133.1064L13080.3604,-3132.8932L13080.3101,-3132.7332L13080.2399,-3132.6199L13080.04,-3132.5533L13080.0201,-3132.4799L13080.04,-3132.4398L13080.0598,-3132.2266L13080.04,-3132.1333L13079.9301,-3131.9933L13079.7699,-3131.8333L13079.6295,-3131.72L13079.6097,-3131.6532L13079.5395,-3131.5399L13079.5395,-3131.4865L13079.5593,-3131.4133L13079.5807,-3131.2864L13079.6097,-3131.1464L13079.5395,-3131.0532L13079.4907,-3130.9864L13079.4296,-3130.8599L13079.4006,-3130.7665L13079.3304,-3130.7133L13079.2206,-3130.6599L13079.1504,-3130.5532L13079.1306,-3130.3532L13079.1794,-3130.2265L13079.2206,-3130.1533L13079.2694,-3130.0465L13079.3594,-3129.9732L13079.4296,-3129.9398L13079.4495,-3129.8864L13079.4495,-3129.8132L13079.4296,-3129.6865L13079.4693,-3129.5933L13079.5197,-3129.5065L13079.5395,-3129.4333L13079.5807,-3129.3465L13079.6097,-3129.2532L13079.6494,-3129.1065L13079.6097,-3128.9999L13079.5807,-3128.8933L13079.5197,-3128.7664L13079.5395,-3128.64L13079.5395,-3128.5332L13079.5197,-3128.4266L13079.3793,-3128.2799L13079.3304,-3128.1733L13079.2694,-3128.0664L13079.2694,-3127.94L13079.2694,-3127.8465L13079.3304,-3127.7065L13079.2694,-3127.5064L13079.2404,-3127.3464L13079.2206,-3127.1666L13079.2007,-3126.9665L13079.1504,-3126.8732L13079.0207,-3126.6932L13078.9307,-3126.5532L13078.8605,-3126.3865L13078.8605,-3126.1732L13078.8605,-3126.0466L13078.8101,-3125.8665L13078.7903,-3125.7399L13078.83,-3125.6332L13078.9001,-3125.5264L13078.9703,-3125.4332L13079.0604,-3125.3265L13079.0802,-3125.2199L13079.0207,-3125.0732L13078.9703,-3124.9266L13078.9703,-3124.84L13078.9307,-3124.7465L13078.83,-3124.4999"/>
<path content="AP030,1,28,1,0,14,1,8,JPN" xlink:title="AP030" d="M13100.3296,-3122.6398L13100.6104,-3122.6933L13100.9293,-3122.7331L13101.0803,-3122.7465L13101.1505,-3122.7865L13101.2207,-3122.8399L13101.2894,-3122.8731L13101.3794,-3122.8931L13101.4893,-3122.9132L13101.77,-3122.9265L13102.2202,-3122.9265L13102.3102,-3122.9132L13102.3804,-3122.8731L13102.4506,-3122.86L13102.4902,-3122.8731L13102.5803,-3122.8931L13102.6993,-3122.8931L13102.8793,-3122.86L13103.0197,-3122.8199L13103.1494,-3122.7665L13103.27,-3122.7465L13103.3997,-3122.7465L13103.4698,-3122.7865L13103.5797,-3122.7999L13103.7003,-3122.7999L13103.7201,-3122.8199L13103.7704,-3122.8731L13103.7903,-3122.9132L13103.8803,-3122.9265L13103.9001,-3122.9465L13103.9307,-3122.9864L13103.9902,-3123.02L13104.0802,-3123.0398L13104.1306,-3123.0932L13104.1504,-3123.1998L13104.2007,-3123.2533L13104.2404,-3123.2733L13104.3106,-3123.2733L13104.3594,-3123.2199L13104.4006,-3123.1998L13104.4693,-3123.1998L13104.5197,-3123.1798L13104.5593,-3123.0932L13104.5593,-3122.86L13104.6097,-3122.7999L13104.6494,-3122.7865L13104.7195,-3122.7665L13104.8096,-3122.7665L13104.8798,-3122.7999L13104.9301,-3122.7999L13105.0201,-3122.7999L13105.1102,-3122.8199L13105.2902,-3122.8931L13105.3101,-3122.9465L13105.3101,-3123.02L13105.3604,-3123.0532L13105.4001,-3123.0732L13105.4504,-3123.0732L13105.5206,-3123.02L13105.5603,-3123.02L13105.6107,-3123.0532L13105.6793,-3123.1066L13105.7404,-3123.1264L13105.8594,-3123.1798L13105.9296,-3123.2332L13105.9494,-3123.2864L13105.9906,-3123.3465L13106.1493,-3123.3599L13106.1996,-3123.3799L13106.2393,-3123.4133L13106.2698,-3123.4665L13106.3095,-3123.5399L13106.3599,-3123.6332L13106.5201,-3123.8333L13106.6498,-3123.9931L13106.6803,-3124.0999L13106.7398,-3124.1732L13106.7703,-3124.2266L13106.7703,-3124.28L13106.6498,-3124.3198L13106.6101,-3124.3532L13106.6101,-3124.4064L13106.6498,-3124.4598L13106.6299,-3124.5132L13106.6101,-3124.5333L13106.5399,-3124.5531L13106.4697,-3124.6065L13106.4697,-3124.6399L13106.4896,-3124.6599L13106.5598,-3124.6599L13106.7001,-3124.6599L13106.81,-3124.6799L13106.9305,-3124.7332L13107.0206,-3124.7465L13107.1106,-3124.7665L13107.1503,-3124.7866L13107.2006,-3124.8199L13107.2906,-3124.84L13107.3807,-3124.8598L13107.4295,-3124.9132L13107.4295,-3124.9664L13107.3807,-3125.0198L13107.2403,-3125.0933L13107.1793,-3125.1665L13107.1503,-3125.1999L13107.1304,-3125.3599L13107.1304,-3125.4532L13107.1793,-3125.4866L13107.2205,-3125.4866L13107.2693,-3125.4665L13107.3105,-3125.4866L13107.3303,-3125.5264L13107.3303,-3125.5798L13107.2693,-3125.6132L13107.2403,-3125.6533L13107.2403,-3125.6865L13107.3105,-3125.7399L13107.4005,-3125.7732L13107.4493,-3125.7933L13107.4707,-3125.8465L13107.4707,-3125.9199L13107.4295,-3125.9533L13107.3593,-3125.9533L13107.2693,-3125.9399L13107.2006,-3125.9199L13107.1793,-3125.9399L13107.1793,-3125.9731L13107.2205,-3126.0265L13107.2906,-3126.0466L13107.3593,-3126.0666L13107.3807,-3126.1198L13107.3807,-3126.1732L13107.3303,-3126.2066L13107.3105,-3126.2264L13107.2006,-3126.2465L13107.1793,-3126.2598L13107.1503,-3126.2999L13107.1503,-3126.3332L13107.2006,-3126.3865L13107.2403,-3126.4065L13107.3593,-3126.4265L13107.3807,-3126.4599L13107.4005,-3126.4999L13107.4295,-3126.5532L13107.4905,-3126.6066L13107.6294,-3126.6066L13107.6797,-3126.6399L13107.6797,-3126.68L13107.6797,-3126.7332L13107.6096,-3126.7864L13107.5394,-3126.8L13107.4905,-3126.8398L13107.4707,-3126.8732L13107.4905,-3126.9264L13107.5607,-3127.0199L13107.5607,-3127.1666L13107.5607,-3127.3066L13107.6096,-3127.3998L13107.6797,-3127.4532L13107.5607,-3127.5398L13107.4005,-3127.6665L13107.3807,-3127.6865L13107.3303,-3127.7733L13107.2693,-3127.8666L13107.2006,-3127.9531L13107.0801,-3128.1332L13106.9901,-3128.2999L13106.9504,-3128.3865L13106.9305,-3128.5866L13106.8802,-3128.6798L13106.8802,-3128.7865L13106.9,-3128.8599L13106.9504,-3128.9465L13107.0801,-3129.1466L13107.1793,-3129.2732L13107.2403,-3129.3264L13107.3593,-3129.3264L13107.4295,-3129.3465L13107.4905,-3129.3999L13107.5607,-3129.4333L13107.93,-3129.5399L13108.2199,-3129.7066L13108.3099,-3129.74L13108.3298,-3129.7731L13108.3603,-3129.8664L13108.4,-3129.9L13108.4503,-3129.9198L13108.5205,-3129.9532L13108.5403,-3130.0264L13108.6304,-3130.2065L13108.6304,-3130.2465L13108.6105,-3130.32L13108.5602,-3130.3865L13108.5602,-3130.4798L13108.58,-3130.5532L13108.6304,-3130.6198L13108.7006,-3130.6799L13108.7692,-3130.7133L13108.8593,-3130.7331L13108.8806,-3130.7665L13108.9005,-3130.8199L13108.9493,-3130.8731L13109.0607,-3130.9666L13109.2697,-3131.1464L13109.3307,-3131.2532L13109.3796,-3131.3465L13109.3796,-3131.3999L13109.3307,-3131.4331L13109.3094,-3131.4665L13109.3094,-3131.5065L13109.3597,-3131.5399L13109.4498,-3131.5599L13109.4894,-3131.58L13109.4894,-3131.6132L13109.4696,-3131.6332L13109.3994,-3131.6666L13109.3994,-3131.7064L13109.3994,-3131.7398L13109.4498,-3131.7932L13109.52,-3131.8333L13109.5795,-3131.8464L13109.7397,-3131.8464L13109.79,-3131.8665L13109.8297,-3131.8998L13109.8801,-3131.9532L13109.8999,-3132.0799L13109.9304,-3132.1199L13109.9701,-3132.1333L13110.0601,-3132.1932L13110.1105,-3132.2466L13110.1303,-3132.3198L13110.1105,-3132.3866L13109.9899,-3132.5132L13109.8999,-3132.6199L13109.8297,-3132.7131L13109.8099,-3132.7866L13109.79,-3132.8199L13109.7702,-3132.84L13109.7,-3132.84L13109.6298,-3132.84L13109.61,-3132.8732L13109.61,-3132.9266L13109.5795,-3132.9466L13109.5398,-3132.9664L13109.4498,-3132.9664L13109.3994,-3132.9664L13109.3307,-3132.9865L13109.3094,-3133.0198L13109.2896,-3133.0933L13109.2407,-3133.1264L13109.1995,-3133.1465L13109.1293,-3133.1465L13109.0607,-3133.1064L13109.0195,-3133.0399L13108.9493,-3133.0198L13108.8806,-3133.0198L13108.8104,-3133.0399L13108.7402,-3133.0399L13108.6502,-3133.0399L13108.5205,-3133.0399L13108.3603,-3133.0532L13108.2199,-3133.0732L13108.1299,-3133.1264L13108.0399,-3133.2533L13108.02,-3133.2865L13108.0399,-3133.3599L13108.0399,-3133.4131L13108.02,-3133.4332L13107.9697,-3133.4532L13107.7194,-3133.4332L13107.6797,-3133.4332L13107.6096,-3133.4866L13107.6096,-3133.5264L13107.5806,-3133.56L13107.5394,-3133.5932L13107.4707,-3133.5932L13107.4005,-3133.6132L13107.3807,-3133.6533L13107.3807,-3133.7067L13107.3593,-3133.74L13107.2906,-3133.74L13107.2403,-3133.72L13107.1503,-3133.6533L13107.1106,-3133.5932L13107.0801,-3133.56L13107.0206,-3133.56L13106.9702,-3133.5798L13106.9504,-3133.6533L13106.9504,-3133.7067L13106.9305,-3133.7732L13106.8298,-3133.8467L13106.6498,-3133.8667L13106.5796,-3133.8333L13106.4301,-3133.74L13106.3293,-3133.7732L13106.2698,-3133.7933L13106.1798,-3133.7601L13106.0593,-3133.7933L13105.9006,-3133.9399L13105.8105,-3133.9733L13105.6305,-3134.0666L13105.6107,-3134.2066L13105.5405,-3134.26L13105.4504,-3134.2466L13105.2399,-3134.26L13105.1804,-3134.3533L13105.13,-3134.3866L13104.9698,-3134.4067L13104.8996,-3134.4999L13104.7897,-3134.5533L13104.6295,-3134.6199L13104.4495,-3134.6399L13104.3594,-3134.6933L13104.2892,-3134.7666L13104.1794,-3134.82L13104.0207,-3134.82L13103.9505,-3134.84L13103.8605,-3134.9133L13103.7003,-3134.9667L13103.54,-3134.9867L13103.3997,-3134.9867L13103.2394,-3134.9867L13103.1097,-3135L13102.9694,-3135.1067L13102.6505,-3135.1801L13102.1301,-3135.2734L13101.8799,-3135.4134L13101.4496,-3135.6133L13101.2695,-3135.6133L13101.1093,-3135.56L13100.7706,-3135.56L13100.7706,-3135.7933L13100.7904,-3135.8866L13100.8301,-3135.9734L13101.0193,-3136.1L13101.0193,-3136.1532L13100.9903,-3136.2066L13100.8301,-3136.3001L13100.6104,-3136.3733L13100.5203,-3136.7466"/>
<path content="AP030,1,28,1,0,15,1,8,JPN" xlink:title="AP030" d="M13094.1162,-3134.4181L13094.2047,-3133.704L13094.4275,-3132.9367L13094.7266,-3132.4469L13095.6955,-3131.2855L13096.3943,-3130.6765L13096.2555,-3130.0011L13095.6192,-3129.3772L13095.6665,-3128.928L13094.7189,-3126.9508L13094.754,-3126.6214L13095.2682,-3126.4204L13094.8471,-3125.421L13095.4819,-3124.4144L13096.0785,-3124.099L13096.3699,-3124.3334L13096.7499,-3124.0614L13096.8903,-3123.0761L13096.8246,-3122.3764L13098.0026,-3122.5296L13100.3296,-3122.6398"/>
<path content="AP030,1,28,1,0,15,1,8,JPN" xlink:title="AP030" d="M13089.4119,-3132.4383L13089.4699,-3131.9302L13089.7049,-3131.1682L13089.6454,-3129.8983L13089.4684,-3129.2379L13088.9969,-3128.6793L13087.8799,-3127.7651L13087.468,-3127.2572L13087.3489,-3126.8002L13087.2314,-3125.7841L13087.2299,-3124.7173L13087.3474,-3124.2601L13087.8189,-3123.9044L13088.1119,-3123.5996L13088.2294,-3122.9391L13088.2294,-3122.6343L13087.6999,-3122.279L13086.2289,-3121.5174L13084.2697,-3120.0998"/>
<path content="AP030,1,28,1,0,14,1,8,JPN" xlink:title="AP030" d="M13078.83,-3124.4999L13078.9307,-3124.4064L13078.9703,-3124.3732L13079.0207,-3124.3532L13078.9902,-3124.2998L13078.9703,-3124.2599L13078.9703,-3124.2065L13078.9703,-3124.1531L13079.0207,-3124.0999L13079.0207,-3124.0665L13079.2206,-3123.9532L13079.2892,-3123.9199L13079.3594,-3123.8665L13079.4006,-3123.8333L13079.4907,-3123.7064L13079.5807,-3123.6532L13079.7897,-3123.58L13079.9896,-3123.56L13080.13,-3123.5266L13080.22,-3123.5065L13080.4703,-3123.4331L13080.5801,-3123.3065L13080.7205,-3123.1464L13080.8807,-3122.9864L13080.9006,-3122.6599L13080.9296,-3122.4066L13080.9494,-3122.2466L13081.0593,-3122.1731L13081.2195,-3121.9933L13081.3095,-3121.9198L13081.3599,-3121.8332L13081.3797,-3121.6532L13081.4301,-3121.5265L13081.4896,-3121.4533L13081.5796,-3121.4132L13081.7398,-3121.3465L13081.81,-3121.2866L13081.8604,-3121.2198L13081.8802,-3121.0932L13081.9305,-3120.9265L13081.9702,-3120.7998L13082.0404,-3120.7333L13082.1304,-3120.6932L13082.2906,-3120.6598L13082.4295,-3120.5666L13082.5806,-3120.5332L13082.6996,-3120.6064L13082.8796,-3120.6598L13083.02,-3120.6598L13083.0399,-3120.6598L13083.11,-3120.6598L13083.1299,-3120.64L13083.4305,-3120.4599L13083.6105,-3120.4065L13083.7906,-3120.3333L13084.0393,-3120.2265L13084.2697,-3120.0998"/>
<path content="AP030,1,28,1,0,15,1,8,JPN" xlink:title="AP030" d="M13084.2697,-3120.0998L13082.933,-3119.1305L13082.9315,-3119.1299"/>
<path content="AP030,1,28,1,0,14,1,8,JPN" xlink:title="AP030" d="M13098.0194,-3118.2463L13098.0194,-3118.2465L13098.1094,-3118.2999L13098.2697,-3118.3865L13098.3307,-3118.4265L13098.3597,-3118.4799L13098.3795,-3118.5331L13098.3597,-3118.6199L13098.3597,-3118.66L13098.3795,-3118.6932L13098.3795,-3118.7132L13098.4299,-3118.733L13098.4299,-3118.7332L13098.4695,-3118.7332L13098.5596,-3118.6934L13098.5596,-3118.6932L13098.6099,-3118.6932L13098.6298,-3118.6798L13098.7,-3118.6798L13098.7198,-3118.6932L13098.7701,-3118.7132L13098.8098,-3118.7332L13098.8602,-3118.7666L13098.9304,-3118.8198L13098.9899,-3118.8599L13099.0799,-3118.8599L13099.1501,-3118.8599L13099.4003,-3118.8L13099.5193,-3118.8L13099.6796,-3118.8932L13099.7192,-3118.9865L13099.7696,-3119.0533L13099.7696,-3119.1666L13099.7406,-3119.2732L13099.6994,-3119.4132L13099.6994,-3119.5599L13099.7406,-3119.6531L13099.8093,-3119.7399L13099.9496,-3119.8465L13100.0595,-3119.8999L13100.1801,-3119.9932L13100.47,-3120.1933L13100.6302,-3120.3531L13100.65,-3120.4065L13100.65,-3120.5132L13100.6104,-3120.6799L13100.5402,-3120.8733L13100.4501,-3121.0932L13100.3998,-3121.2532L13100.3601,-3121.5265L13100.3799,-3121.6665L13100.4303,-3121.7731L13100.47,-3121.9L13100.4898,-3121.9732L13100.4898,-3122.0798L13100.3296,-3122.6398"/>
<path content="AP030,1,28,1,0,14,1,8,JPN" xlink:title="AP030" d="M13084.2697,-3120.0998L13084.4299,-3119.9932L13084.5795,-3119.9398L13084.7397,-3119.8999L13084.9304,-3119.8866L13085.0403,-3119.8666L13085.2005,-3119.7599L13085.3806,-3119.6865L13085.6293,-3119.6665L13085.8307,-3119.7065L13086.0199,-3119.6665L13086.1298,-3119.5799L13086.29,-3119.5398L13086.3998,-3119.5065L13086.5402,-3119.4666L13086.6501,-3119.4132L13087.1506,-3119.1265L13087.2696,-3118.9865L13087.3795,-3118.9133L13087.4695,-3118.9133L13087.6801,-3118.9264L13087.97,-3118.8198L13088.2202,-3118.7132L13088.3804,-3118.4799L13088.4705,-3118.3731L13088.5406,-3118.2064L13088.6093,-3118.0799L13088.6795,-3118.0132L13088.8306,-3117.9199L13088.9694,-3117.7732L13089.2395,-3117.7065L13089.36,-3117.6132L13089.4897,-3117.5264L13089.5599,-3117.4532L13089.6103,-3117.4L13089.7705,-3117.38L13089.8804,-3117.38L13089.9902,-3117.4L13090.1505,-3117.4532L13090.2695,-3117.5064L13090.3107,-3117.5598L13090.5197,-3117.5932L13090.6799,-3117.5798L13090.8997,-3117.6533L13091.0599,-3117.7399L13091.1102,-3117.7732L13091.3101,-3117.8665L13091.4703,-3117.9399L13091.9296,-3117.7198L13092.45,-3117.5598L13092.7002,-3117.4665L13093.0405,-3117.2731L13093.3304,-3117.1064L13093.4006,-3117.0732L13093.6295,-3117.1064L13093.6798,-3117.1265L13093.9499,-3117.2199L13094.1498,-3117.2865L13094.2398,-3117.3065L13094.3604,-3117.3065L13094.6106,-3117.2531L13094.6503,-3117.2865L13094.6793,-3117.38L13094.6793,-3117.4L13094.6793,-3117.4131L13094.7906,-3117.4332L13094.8303,-3117.4332L13094.8807,-3117.4332L13094.9493,-3117.4532L13094.9905,-3117.4665L13095.0394,-3117.5264L13095.1996,-3117.5598L13095.2698,-3117.5598L13095.3094,-3117.5798L13095.3995,-3117.6533L13095.43,-3117.6865L13095.4895,-3117.7399L13095.52,-3117.7599L13095.5399,-3117.7732L13095.5795,-3117.7933L13095.6497,-3117.7933L13095.7703,-3117.8465L13095.8298,-3117.8865L13095.9,-3117.9531L13095.9702,-3117.9932L13095.99,-3118.0466L13096.0602,-3118.1332L13096.08,-3118.1532L13096.1105,-3118.1932L13096.1105,-3118.2798L13096.1304,-3118.2999L13096.1304,-3118.3533L13096.1807,-3118.5131L13096.2204,-3118.5865L13096.2692,-3118.6399L13096.2692,-3118.66L13096.3303,-3118.6932L13096.4706,-3118.7466L13096.5195,-3118.7332L13096.5805,-3118.6932L13096.6095,-3118.6798L13096.6293,-3118.6399L13096.7194,-3118.6199L13096.7896,-3118.6199L13096.8796,-3118.6199L13096.9894,-3118.6199L13097.0795,-3118.6066L13097.3297,-3118.5865L13097.4503,-3118.5331L13097.4899,-3118.2465L13097.5204,-3118.2264L13097.5601,-3118.2064L13097.6303,-3118.1932L13097.6807,-3118.1932L13097.7005,-3118.1932L13097.7707,-3118.1932L13097.8104,-3118.1932L13097.8302,-3118.2064L13098.0194,-3118.2463"/>
<path content="AP030,1,28,1,0,15,1,8,JPN" xlink:title="AP030" d="M13082.9315,-3119.1299L13082.5211,-3118.9274L13082.1686,-3118.9276L13081.4621,-3119.2833L13081.1691,-3119.334L13081.1096,-3119.2833L13081.1096,-3119.1309L13081.2866,-3118.8261L13081.3446,-3118.4196L13081.2271,-3118.1658L13080.4611,-3117.1499L13079.4022,-3115.6261L13078.4012,-3113.8992L13078.125,-3113.5629"/>
<path content="AP030,1,28,1,0,15,1,8,JPN" xlink:title="AP030" d="M13082.9315,-3119.1299L13084.2026,-3118.2356L13084.6985,-3117.2186L13085.1212,-3116.5579L13084.7046,-3115.8606L13084.8083,-3114.9027L13084.4513,-3114.9647L13083.8806,-3115.04L13084.3216,-3114.5317L13084.3994,-3113.4813L13084.05,-3112.8195L13084.3765,-3112.3928L13084.9533,-3111.9255L13084.8404,-3111.6749L13084.2743,-3111.3884L13084.1232,-3111.165L13084.2773,-3111.0264L13084.8495,-3111.2532L13085.0403,-3111.1174L13084.8953,-3110.8341L13084.6085,-3110.5696L13084.9884,-3109.634"/>
<path content="AP030,1,28,1,0,15,1,8,JPN" xlink:title="AP030" d="M13084.9884,-3109.634L13085.5621,-3109.5285L13085.8139,-3109.7902L13086.4304,-3109.9297L13087.059,-3110.6136L13087.471,-3110.3746L13088.4277,-3110.9337L13089.3555,-3111.1279L13089.8071,-3111.4958L13091.2247,-3111.6985L13091.7297,-3112.5538L13091.1591,-3112.9616L13091.0202,-3113.2826L13091.2033,-3113.5386L13091.04,-3114.0692L13091.6031,-3114.3854L13092.3279,-3114.8354L13092.6376,-3115.2222L13092.807,-3115.93L13093.3044,-3115.8787L13094.5099,-3116.4267L13095.6726,-3116.3977L13096.2982,-3116.7791L13097.049,-3116.6571L13097.6242,-3117.1854L13098.5626,-3117.2894L13098.0194,-3118.2463"/>
<path content="AP030,1,28,1,0,14,1,8,JPN" xlink:title="AP030" d="M13078.125,-3123.7704L13078.1296,-3123.7732L13078.36,-3123.9532L13078.54,-3124.1199L13078.6804,-3124.28L13078.7399,-3124.3864L13078.83,-3124.4999"/>
<path content="AP030,1,28,1,0,15,1,8,JPN" xlink:title="AP030" d="M13078.125,-3111.3431L13079.1916,-3111.0126L13080.1147,-3110.2715L13080.7938,-3110.1446L13081.369,-3110.3416L13082.8735,-3109.4051L13083.5632,-3109.5203L13084.5505,-3109.1463L13084.9884,-3109.634"/>
<path content="AP030,1,28,1,1,16,1,8,JPN" xlink:title="AP030" d="M13093.3532,-3164.0625L13094.6588,-3162.3652L13095.6175,-3161.1669L13096.8958,-3160.2082L13096.9757,-3159.8886L13096.736,-3159.1296L13096.1368,-3158.6503L13095.3778,-3157.5717L13094.8985,-3157.1723L13094.2594,-3156.0538L13093.5004,-3155.2149L13092.9012,-3154.5358L13092.7813,-3153.2176L13093.1808,-3151.6597L13092.6615,-3150.5812L13092.3035,-3149.8613L13092.1422,-3149.5625L13091.6728,-3149.233L13091.1336,-3148.8135L13090.794,-3148.444L13090.4745,-3147.9148L13090.2448,-3147.3056L13089.8653,-3146.6265L13089.9052,-3145.548L13090.1878,-3144.8391"/>
<path content="AP030,1,28,1,0,15,1,8,JPN" xlink:title="AP030" d="M13089.5844,-3145.3554L13090.176,-3144.8491L13090.1878,-3144.8391"/>
</g>
</svg>
