<?xml version="1.0" encoding="UTF-8"?>
<svg  xmlns="http://www.w3.org/2000/svg" xmlns:xlink="http://www.w3.org/1999/xlink" xmlns:go="http://purl.org/svgmap/profile" property="f_code,acc,exs,rst,med,rtt,RSU,loc,soc" viewBox="13359.375 -3375.0 140.625 140.625" go:dataArea="13359.375 -3375.0 140.625 140.625" >
<metadata>
 <rdf:RDF xmlns:rdf="http://www.w3.org/1999/02/22-rdf-syntax-ns#" xmlns:crs="http://opengis.org/xmldtds/transformations.dtd" xmlns:svg="http://www.w3.org/svg" >
  <rdf:Description>
   <crs:CoordinateReferenceSystem rdf:resource="http://purl.org/crs/84" svg:transform="matrix(100.0,0.0,0.0,-100.0,0.0,0.0)" />
  </rdf:Description>
 </rdf:RDF>
</metadata>
<globalCoordinateSystem srsName="http://purl.org/crs/84" transform="matrix(100.0,0.0,0.0,-100.0,0.0,0.0)" />
<defs>
 <g id="p0" >
  <circle cx="0.0" cy="0.0" r="3" stroke="green" stroke-width="2.0" vector-effect="non-scaling-stroke" />
 </g>
</defs>
<g fill="none" fill-rule="evenodd" stroke="#00ff00" stroke-width="2" opacity="0.5" vector-effect="non-scaling-stroke" stroke-linejoin="bevel" >
<path content="AP030,1,28,1,0,15,1,8,JPN" xlink:title="AP030" d="M13390.6693,-3374.3706L13391.2354,-3374.826L13391.7409,-3375"/>
<path content="AP030,1,28,1,0,15,1,8,JPN" xlink:title="AP030" d="M13389.4971,-3375L13390.1505,-3374.9908L13390.6693,-3374.8421L13390.6693,-3374.3706"/>
<path content="AP030,1,28,1,0,14,1,8,JPN" xlink:title="AP030" d="M13453.142,-3375L13453.1494,-3374.9664L13453.2394,-3374.7334L13453.2394,-3374.7131L13453.1998,-3374.6597L13453.1799,-3374.5533L13453.1296,-3374.4267L13453.0396,-3374.2466L13452.9007,-3374.1199L13452.8305,-3374.0131"/>
<path content="AP030,1,28,1,0,15,1,8,JPN" xlink:title="AP030" d="M13452.4916,-3375L13452.5299,-3374.6605L13452.8305,-3374.0131"/>
<path content="AP030,1,28,1,0,15,1,8,JPN" xlink:title="AP030" d="M13452.7405,-3373.7064L13452.8854,-3373.7267L13453.8849,-3373.8651L13454.8813,-3374.1295L13455.4321,-3374.6765L13455.3704,-3375"/>
<path content="AP030,1,28,1,0,14,1,8,JPN" xlink:title="AP030" d="M13452.8305,-3374.0131L13452.7695,-3373.9399L13452.7405,-3373.7598L13452.7405,-3373.7064"/>
<path content="AP030,1,28,1,0,14,1,4,JPN" xlink:title="AP030" d="M13366.6107,-3373.5931L13366.5405,-3373.6534L13366.33,-3373.9201L13366.2399,-3374.1734L13366.2003,-3374.4064L13366.1804,-3374.7868L13366.2003,-3374.9866L13366.2033,-3375"/>
<path content="AP030,1,28,1,0,15,1,8,JPN" xlink:title="AP030" d="M13435.3492,-3375L13435.6903,-3374.8154L13437.2406,-3373.4673L13438.8412,-3373.4978L13438.8367,-3373.8506L13439.5096,-3373.7755L13439.8804,-3373.3116L13440.0238,-3372.8916L13440.5746,-3373.5348L13440.7623,-3373.415L13440.48,-3372.451L13440.7425,-3372.2237L13441.3528,-3372.6841L13443.3426,-3372.5674L13443.9835,-3372.9176L13444.4397,-3373.9464L13445.2011,-3374.4705L13446.2799,-3374.3233L13446.9055,-3373.724L13447.9202,-3372.9595L13448.735,-3373.3749L13449.3332,-3374.0017L13450.1358,-3374.2672L13450.9369,-3373.6958L13451.5427,-3373.3372L13452.1317,-3373.4985L13452.7405,-3373.7064"/>
<path content="AP030,1,28,1,0,14,1,8,JPN" xlink:title="AP030" d="M13452.2705,-3372.0665L13452.4002,-3372.1733L13452.5604,-3372.1733L13452.6993,-3372.1931L13452.8305,-3372.2797L13452.7893,-3372.4087L13452.7695,-3372.5334L13452.7405,-3372.6601L13452.7405,-3372.7867L13452.6794,-3373.0198L13452.6505,-3373.1667L13452.6794,-3373.3067L13452.6794,-3373.5268L13452.7405,-3373.7064"/>
<path content="AP030,1,28,1,0,14,1,8,JPN" xlink:title="AP030" d="M13426.7836,-3375L13426.77,-3374.9134L13426.8295,-3374.86L13426.86,-3374.7868L13426.7899,-3374.6799L13426.8097,-3374.6597L13426.9302,-3374.6799L13426.9897,-3374.6399L13427.15,-3374.6399L13427.2903,-3374.6597L13427.3804,-3374.6399L13427.3605,-3374.5533L13427.3605,-3374.4801L13427.6794,-3374.5865L13427.8595,-3374.6067L13427.9297,-3374.4598L13427.8793,-3374.3L13427.8305,-3374.1734L13427.9007,-3374.1199L13427.9907,-3374.1199L13428.0396,-3374.0997L13428.0594,-3374.0665L13428.0396,-3373.9399L13428.0197,-3373.7598L13428.0197,-3373.6866L13427.8595,-3373.6332L13427.8305,-3373.6332L13427.8305,-3373.4531L13427.9694,-3373.3265L13428.0197,-3373.2735L13428.0197,-3373.1998L13427.9297,-3373.1998L13427.9007,-3373.1667L13427.9007,-3373.0934L13427.7405,-3373.0198L13427.6794,-3372.9668L13427.6993,-3372.8397L13427.7695,-3372.8397L13427.9907,-3372.8931L13428.1799,-3372.86L13428.5202,-3372.7665L13428.6804,-3372.6398L13428.7903,-3372.5864L13428.9307,-3372.6067L13429.1107,-3372.7867L13429.2007,-3372.7867L13429.2404,-3372.7333L13429.1107,-3372.6601L13429.0802,-3372.5864L13429.0802,-3372.3L13429.1504,-3372.3L13429.1794,-3372.4998L13429.2007,-3372.5864L13429.3106,-3372.5864L13429.4296,-3372.48L13429.5807,-3372.3L13429.6799,-3372.1733L13429.7195,-3372.1535L13429.8798,-3372.1535L13429.9896,-3372.1199L13429.9698,-3372.0467L13429.7897,-3372.0665L13429.8096,-3371.9933L13430.0201,-3371.9933L13430.1102,-3371.9933L13430.13,-3372.1199L13430.0598,-3372.4068L13430.04,-3372.48L13430.1498,-3372.4998L13430.3802,-3372.3198L13430.4001,-3372.1931L13430.4703,-3372.0135L13430.4901,-3371.9398L13430.5206,-3371.92L13430.6793,-3371.9734L13430.9692,-3371.9734L13431.0394,-3371.8864L13431.0394,-3371.8132L13430.9692,-3371.7934L13430.6793,-3371.7934L13430.6305,-3371.7598L13430.5206,-3371.6534L13430.4504,-3371.6133L13430.3802,-3371.6133L13430.3299,-3371.5797L13430.3604,-3371.4867L13430.4901,-3371.2532L13430.5603,-3371.1468L13430.6107,-3371.1266L13430.6107,-3370.9465L13430.6305,-3370.8935L13430.6793,-3370.8199L13430.6793,-3370.7664L13430.6107,-3370.7134L13430.5206,-3370.6799L13430.4001,-3370.66L13430.3299,-3370.6398L13430.3101,-3370.5532L13430.3604,-3370.48"/>
<path content="AP030,1,28,1,0,15,1,8,JPN" xlink:title="AP030" d="M13390.6693,-3374.3706L13390.3046,-3373.8457L13389.3524,-3372.8802L13388.736,-3371.3978L13387.8296,-3370.1614"/>
<path content="AP030,1,28,1,0,14,1,8,JPN" xlink:title="AP030" d="M13401.9113,-3375L13401.7395,-3374.9466L13401.6098,-3374.86L13401.1505,-3374.5533L13400.9003,-3374.4801L13400.7904,-3374.4267L13400.7202,-3374.3866L13400.5402,-3374.3198L13400.3799,-3374.1932L13400.2197,-3374.2599L13400.0793,-3374.3332L13400.0397,-3374.3534L13399.8795,-3374.4064L13399.7894,-3374.4064L13399.6796,-3374.3534L13399.5804,-3374.2268L13399.3301,-3374.0665L13399.2203,-3373.9933L13399.1104,-3373.8335L13399.0204,-3373.8132L13398.8297,-3373.7732L13398.79,-3373.7598L13398.5397,-3373.6866L13398.3795,-3373.5798L13398.1995,-3373.5798L13397.9706,-3373.3997L13397.9004,-3373.3997L13397.7203,-3373.3467L13397.4701,-3373.2735L13397.3602,-3373.3265L13397.2,-3373.4665L13397.0795,-3373.6134L13396.9498,-3373.6134L13396.7407,-3373.6134L13396.4905,-3373.56L13396.4706,-3373.4867L13396.6095,-3373.2735L13396.5195,-3373.1464L13396.3593,-3373.0934L13396.1304,-3373.1998L13395.8603,-3373.2201L13395.61,-3373.3067L13395.52,-3373.3067L13395.3094,-3373.1998L13395.1492,-3372.9866L13395.1797,-3372.7135L13395.1096,-3372.6601L13394.9707,-3372.6067L13394.8807,-3372.5334L13394.7693,-3372.4068L13394.4504,-3372.4068L13393.9301,-3371.9933L13393.7698,-3371.9734L13393.6295,-3372.0467L13393.4494,-3372.0467L13393.3594,-3372.1199L13393.0206,-3372.1199L13392.8802,-3371.9398L13392.72,-3371.6866L13392.5598,-3371.5599L13392.3599,-3371.5065L13392.1494,-3371.6534L13392.1295,-3371.6866L13391.9495,-3371.6866L13391.8106,-3371.6133L13391.7404,-3371.5599L13391.6794,-3371.3799L13391.6306,-3371.3066L13391.1804,-3371.2532L13391.1102,-3371.1266L13390.8997,-3371.2532L13390.5396,-3371.2532L13390.3793,-3371.0934L13390.2893,-3370.8935L13390.2206,-3370.5868L13390.2206,-3370.3732L13390.0803,-3370.2465L13389.8102,-3370.1733L13389.6103,-3370.1534L13389.4699,-3370.1534L13389.2197,-3370.1733L13388.9297,-3370.1199L13388.6093,-3370.0798L13388.4003,-3370.0466L13388.2202,-3369.9734"/>
<path content="AP030,1,28,1,0,15,1,8,JPN" xlink:title="AP030" d="M13387.8296,-3370.1614L13388.2202,-3369.9734"/>
<path content="AP030,1,28,1,0,14,1,8,JPN" xlink:title="AP030" d="M13386.1298,-3368.8198L13386.3602,-3368.9465L13386.38,-3368.9667L13386.5204,-3369.0533L13386.5601,-3369.0735L13386.7905,-3369.1666L13386.9705,-3369.2734L13387.4496,-3369.5801L13387.6099,-3369.4866L13387.8799,-3369.36L13388.2401,-3369.3066L13388.2706,-3369.4534L13388.2202,-3369.5599L13388.1805,-3369.6865L13388.1805,-3369.7598L13388.2202,-3369.9734"/>
<path content="AP030,1,28,1,0,14,1,8,JPN" xlink:title="AP030" d="M13442.0197,-3368.5867L13442.3599,-3368.5867L13442.4301,-3368.6398L13442.5797,-3368.7668L13442.6804,-3368.8198L13442.8299,-3368.8599L13442.9901,-3368.8934L13443.1107,-3368.9865L13443.3105,-3369.0533L13443.4494,-3369.1067L13443.5196,-3369.1265L13443.6096,-3369.1799L13443.6493,-3369.2532L13443.7195,-3369.5065L13443.6996,-3369.5599L13443.6493,-3369.6133L13443.5394,-3369.7399L13443.5593,-3369.8132L13443.5806,-3369.8132L13443.7897,-3369.8467L13443.9697,-3369.8666L13444.2398,-3369.9734L13444.4,-3370.1L13444.4702,-3370.2267L13444.4702,-3370.4067L13444.5404,-3370.4067L13444.6503,-3370.4266L13444.9295,-3370.5532L13445.3598,-3370.5868L13445.6497,-3370.6398L13445.6802,-3370.6799L13445.7031,-3370.702L13445.7703,-3370.7664L13445.8603,-3370.8199L13445.9503,-3370.8199L13446.08,-3370.7867L13446.2402,-3370.7867L13446.5195,-3370.8199L13446.8307,-3370.8401L13446.9894,-3371.0197L13447.1802,-3371.1666L13447.3099,-3371.2734L13447.5204,-3371.3066L13447.7005,-3371.3066L13447.8806,-3371.3264L13447.9904,-3371.4535L13448.1796,-3371.6133L13448.2193,-3371.6331L13448.4497,-3371.7598L13448.5199,-3371.7598L13448.7701,-3371.7934L13449.1501,-3371.8132L13449.2401,-3371.8132L13450.1297,-3372.0135L13450.1801,-3372.0467L13450.3998,-3372.2797L13450.65,-3372.3534L13450.9903,-3372.48L13451.1795,-3372.4998L13451.4496,-3372.5334L13451.5198,-3372.5132L13451.6861,-3372.3801L13451.8097,-3372.2797L13452.0203,-3372.1931L13452.2705,-3372.0665"/>
<path content="AP030,1,28,1,0,15,1,8,JPN" xlink:title="AP030" d="M13437.4329,-3368.5596L13438.0951,-3369.384L13439.3845,-3369.1196L13440.7776,-3369.4069L13441.5085,-3368.8698L13441.8518,-3368.6798L13442.0197,-3368.5867"/>
<path content="AP030,1,28,1,0,16,1,4,JPN" xlink:title="AP030" d="M13365.4485,-3375L13365.8295,-3374.3732L13366.2003,-3373.7934L13366.3605,-3373.5065L13366.4307,-3373.3799L13366.9495,-3372.5864L13367.2699,-3372.0665L13367.5598,-3371.5599L13367.9703,-3370.8935L13368.2404,-3370.4597L13368.3304,-3370.3335L13368.5806,-3369.8868L13368.6996,-3369.6133L13368.7195,-3369.36L13368.7195,-3369.2867L13368.6798,-3369.0933L13368.5806,-3368.6798L13368.4296,-3368.2068"/>
<path content="AP030,1,28,1,0,14,1,8,JPN" xlink:title="AP030" d="M13368.3609,-3368.055L13368.6096,-3368.0668L13368.8293,-3368.1198L13369.0399,-3368.1934L13369.1299,-3368.3533L13369.3665,-3368.4464L13369.4,-3368.4601L13369.4901,-3368.5333L13369.4901,-3368.5867L13369.4504,-3368.5867L13369.3436,-3368.5867L13369.1101,-3368.5867L13368.8095,-3368.7134L13368.7698,-3368.7866L13368.7897,-3368.8732L13369.1101,-3369.1265L13369.1101,-3369.1799L13369.0399,-3369.5065L13368.8599,-3369.7067L13368.8599,-3369.7598L13368.8995,-3369.9932L13368.8293,-3370.1534L13368.5593,-3370.5334L13368.5593,-3370.7333L13368.6493,-3370.9866L13368.5593,-3371.1998L13368.4906,-3371.4333L13368.4692,-3371.5599L13368.4021,-3371.772L13368.3304,-3371.9933L13368.2907,-3372.2797L13368.2693,-3372.6601L13368.2007,-3372.7867L13368.1793,-3373.04L13368.0801,-3373.2201L13368.0664,-3373.2243L13367.9001,-3373.2735L13367.4896,-3373.3265L13367.2394,-3373.3265L13367.0593,-3373.3265L13366.6107,-3373.5931"/>
<path content="AP030,1,28,1,0,16,1,8,JPN" xlink:title="AP030" d="M13368.4296,-3368.2068L13368.3609,-3368.055"/>
<path content="AP030,1,28,1,0,14,1,8,JPN" xlink:title="AP030" d="M13442.0197,-3368.5867L13442.0197,-3368.4601L13442.0197,-3368.3533L13442.0197,-3368.2068L13442.1097,-3368.0134L13442.1097,-3367.8131L13442.0395,-3367.6666"/>
<path content="AP030,1,28,1,0,14,1,8,JPN" xlink:title="AP030" d="M13367.3309,-3367.6533L13367.4301,-3367.6533L13367.4896,-3367.6132L13367.5598,-3367.54L13367.6498,-3367.54L13367.72,-3367.58L13367.8802,-3367.8333L13368.1107,-3368.0134L13368.1793,-3368.0466L13368.3609,-3368.055"/>
<path content="AP030,1,28,1,0,16,1,8,JPN" xlink:title="AP030" d="M13368.3609,-3368.055L13368.2907,-3367.9001L13368.1305,-3367.6132L13367.8604,-3367.2333"/>
<path content="AP030,1,28,1,0,15,1,8,JPN" xlink:title="AP030" d="M13442.0395,-3367.6666L13442.4561,-3367.0418L13442.746,-3366.9163L13443.335,-3367.3244L13443.9972,-3367.5011L13444.6899,-3367.6556L13445.1218,-3367.9142L13446.1838,-3368.0176L13446.8567,-3368.4303L13447.464,-3368.6039L13447.7844,-3368.8328L13448.0621,-3368.8709L13448.317,-3369.2379L13449.0616,-3369.442L13450.2197,-3370.1626L13450.798,-3370.3346L13451.535,-3371.3863L13452.0615,-3371.5084L13452.2705,-3372.0665"/>
<path content="AP030,1,28,1,0,15,1,8,JPN" xlink:title="AP030" d="M13418.8309,-3366.4036L13419.4443,-3366.9395L13420.015,-3367.5343L13420.3705,-3367.6449L13421.7438,-3367.5381L13422.258,-3367.7189L13422.9919,-3368.0939L13423.851,-3368.2934L13424.4507,-3368.7523L13424.9664,-3368.6741L13425.8026,-3368.6897L13426.8204,-3369.1864L13427.7084,-3369.4633L13428.0273,-3369.5721L13428.3676,-3370.108L13428.9673,-3370.369L13429.7592,-3370.4884L13430.3604,-3370.48"/>
<path content="AP030,1,28,1,0,15,1,8,JPN" xlink:title="AP030" d="M13359.375,-3367.4005L13359.787,-3367.424L13360.022,-3367.3866L13360.2341,-3367.2501L13360.4691,-3366.9647L13360.6308,-3366.5554L13360.7056,-3366.4436L13360.8536,-3366.3567L13361.0031,-3366.3071L13361.1511,-3366.4436L13361.3007,-3366.605L13361.5356,-3366.6424L13361.8347,-3366.6672L13362.0697,-3366.8159L13362.2314,-3367.1387L13362.3932,-3367.3866L13362.5916,-3367.6224L13362.5916,-3367.7341L13362.4924,-3367.8085L13362.294,-3367.9081L13362.1933,-3368.0195L13362.207,-3368.119L13362.3672,-3368.3052L13362.6663,-3368.367L13363.0127,-3368.4414L13363.385,-3368.5905L13363.8565,-3368.7271L13364.3036,-3368.9999L13364.6255,-3369.149L13364.8254,-3369.3104L13364.8743,-3369.3722L13365.036,-3369.3722L13365.2344,-3369.2356L13365.3091,-3368.9007L13365.3091,-3368.6401L13365.3702,-3368.5036L13365.4449,-3368.5284L13365.6937,-3368.7641L13365.9912,-3368.8511L13366.4505,-3368.7519L13366.8228,-3368.578L13366.922,-3368.4166L13366.9586,-3368.2304L13367.0456,-3368.0817L13367.2318,-3367.9451L13367.3309,-3367.7219L13367.3309,-3367.6533"/>
<path content="AP030,1,28,1,0,16,1,4,JPN" xlink:title="AP030" d="M13367.8604,-3367.2333L13367.54,-3366.84L13367.4301,-3366.6599L13367.3599,-3366.4799L13367.3294,-3366.3334L13367.3096,-3366.2067"/>
<path content="AP030,1,28,1,0,14,1,8,JPN" xlink:title="AP030" d="M13378.8605,-3365.1466L13379.1306,-3365.3267L13379.3793,-3365.3999L13379.4495,-3365.3999L13379.6799,-3365.4133L13380.3604,-3365.5933L13381.2393,-3365.9L13381.4301,-3365.9397L13381.6299,-3366.0133L13381.7703,-3366.1331L13381.8604,-3366.1533L13382.2693,-3366.46L13382.4005,-3366.4997L13382.6797,-3366.7133L13382.7194,-3366.84L13382.7393,-3366.8732L13382.93,-3366.9865L13383.11,-3367.02L13383.2199,-3367.0933L13383.2397,-3367.2733L13383.7906,-3367.7399L13384.2194,-3368.0798L13384.52,-3368.4067L13384.7,-3368.6398L13384.7198,-3368.66L13384.7702,-3368.6932L13384.8602,-3368.6932L13384.9503,-3368.66L13385.2402,-3368.66L13385.6293,-3368.6932L13385.8307,-3368.7332L13386.1298,-3368.8198"/>
<path content="AP030,1,28,1,0,14,1,8,JPN" xlink:title="AP030" d="M13367.3309,-3367.6533L13367.1799,-3367.6533L13366.8304,-3367.54L13366.6794,-3367.3599L13366.4307,-3367.2199L13366.3101,-3367.1467L13366.3605,-3366.7667L13366.3605,-3366.6199L13366.0599,-3366.4799L13365.9897,-3366.4265L13366.04,-3366.2266L13365.9698,-3366.1331L13366.1499,-3365.7398L13366.2903,-3365.76L13366.4307,-3365.7398L13366.1499,-3365.4533L13366.0202,-3365.4533L13365.9698,-3365.4331L13365.9302,-3365.3999L13366.0202,-3365.3267L13366.0202,-3365.2332L13365.8997,-3365.1264L13365.8997,-3364.9998L13365.8096,-3364.9265L13365.77,-3364.7465L13365.7196,-3364.6797L13365.6799,-3364.5664L13365.6097,-3364.4798L13365.5396,-3364.46L13365.4297,-3364.3333L13365.3595,-3364.3333L13365.2405,-3364.2597L13365.1306,-3364.2067L13365.0803,-3364.1933L13365.0192,-3364.0465L13364.9307,-3364.0266L13364.5599,-3364.0266L13364.4699,-3363.9L13364.3097,-3363.9732L13364.2197,-3363.9534L13364.1998,-3363.76L13364.1296,-3363.6665L13363.8794,-3363.5799L13363.7894,-3363.5265L13363.7894,-3363.3999L13363.9496,-3363.3598L13363.9496,-3363.2534L13363.9694,-3363.1664L13363.9893,-3363.1466L13363.9297,-3363.0733L13363.7405,-3363.0398L13363.7207,-3362.9467L13363.6993,-3362.8933L13363.6505,-3362.8201L13363.6993,-3362.5332"/>
<path content="AP030,1,28,1,0,15,1,8,JPN" xlink:title="AP030" d="M13359.375,-3364.3464L13359.7839,-3364.5638L13360.1364,-3364.2555L13361.8469,-3364.6587L13362.4924,-3363.9626L13362.9486,-3363.3602L13363.2294,-3363.1927L13363.3392,-3362.7342L13363.6993,-3362.5332"/>
<path content="AP030,1,28,1,0,15,1,8,JPN" xlink:title="AP030" d="M13386.1298,-3368.8198L13386.5768,-3367.8055L13386.879,-3366.6946L13386.879,-3365.913L13386.6776,-3365.1726L13386.3754,-3364.5554L13386.1252,-3364.3497L13386.1252,-3363.9793L13385.4218,-3363.4033L13384.4162,-3362.4985"/>
<path content="AP030,1,28,1,0,16,1,8,JPN" xlink:title="AP030" d="M13367.3096,-3366.2067L13367.3294,-3365.8665L13367.2394,-3365.6132L13367.0395,-3365.4133L13367.0197,-3365.3999L13366.8106,-3365.1798L13366.7404,-3365.0734L13366.6794,-3364.8731L13366.7694,-3364.5664L13366.8304,-3364.2597L13366.9006,-3363.9935L13366.8793,-3363.8332L13366.7694,-3363.7398L13366.4505,-3363.5799L13366.2704,-3363.2732L13366.0599,-3363.1664L13365.8096,-3363.1664L13364.9506,-3363.1664L13364.7202,-3363.1065L13364.3097,-3362.8597L13364.0198,-3362.6598L13363.8626,-3362.4725"/>
<path content="AP030,1,28,1,0,14,1,8,JPN" xlink:title="AP030" d="M13363.6993,-3362.5332L13363.8626,-3362.4725"/>
<path content="AP030,1,28,1,0,14,1,8,JPN" xlink:title="AP030" d="M13378.8605,-3365.1466L13378.5202,-3364.9132L13377.2903,-3364.64L13376.8997,-3364.5664L13376.6296,-3364.5134L13376.3992,-3364.4066L13376.0803,-3364.3867L13375.7202,-3364.2799L13374.9298,-3364.0266L13374.3607,-3363.9935L13374.0601,-3363.9935L13373.8998,-3363.94L13373.6298,-3363.76L13373.3307,-3363.7066L13373.0606,-3363.6868L13372.7402,-3363.6532L13372.3999,-3363.5399L13372.2198,-3363.4132L13372.11,-3363.2732L13372.0795,-3363.0531L13372.1497,-3362.8933L13372.1497,-3362.7998L13371.9299,-3362.3734L13371.8307,-3362.2799L13371.6797,-3362.1201L13371.6034,-3361.9045"/>
<path content="AP030,1,28,1,0,14,1,8,JPN" xlink:title="AP030" d="M13363.8626,-3362.4725L13363.9496,-3362.4397L13364.1296,-3362.1933L13364.0793,-3362.0464L13364.1296,-3361.9534L13364.1296,-3361.8988"/>
<path content="AP030,1,28,1,0,15,1,8,JPN" xlink:title="AP030" d="M13371.2006,-3361.5601L13371.1044,-3362.2952L13371.5546,-3363.0123L13371.5591,-3363.8538L13372.9355,-3364.0858L13374.3973,-3364.373L13375.9888,-3364.9437L13377.3804,-3365.5849L13378.0045,-3365.6971L13379.3854,-3365.8237L13380.4932,-3366.206L13381.694,-3366.7599L13382.5455,-3367.3992L13383.8699,-3368.5204L13384.3307,-3369.0659L13384.7626,-3369.3642L13385.1089,-3369.7121L13385.2905,-3370.499L13385.8398,-3370.9209L13386.3434,-3370.9339L13386.7081,-3370.76L13387.0346,-3370.34L13387.5031,-3370.3186L13387.8296,-3370.1614"/>
<path content="AP030,1,28,1,0,14,1,8,JPN" xlink:title="AP030" d="M13371.2006,-3361.5601L13371.3104,-3361.5601L13371.4294,-3361.5601L13371.5195,-3361.6531L13371.5195,-3361.6665L13371.6034,-3361.9045"/>
<path content="AP030,1,28,1,0,15,1,8,JPN" xlink:title="AP030" d="M13384.4162,-3362.4985L13383.429,-3362.0358L13383.2977,-3361.3464"/>
<path content="AP030,1,28,1,0,14,1,8,JPN" xlink:title="AP030" d="M13364.1296,-3361.8988L13364.1296,-3361.5799L13364.1098,-3361.2198L13364.0594,-3361.0931L13364.0198,-3360.9665"/>
<path content="AP030,1,28,1,0,15,1,8,JPN" xlink:title="AP030" d="M13371.6034,-3361.9045L13373.0927,-3361.6917L13373.8312,-3361.3506L13374.0784,-3360.9108L13373.7549,-3360.5244"/>
<path content="AP030,1,28,1,0,14,1,8,JPN" xlink:title="AP030" d="M13367.3996,-3360.1334L13367.8802,-3360.26L13368.0603,-3360.3001L13368.5394,-3360.4267L13368.8095,-3360.5L13368.9499,-3360.5865L13369.3298,-3360.7132L13369.7205,-3360.7864L13370.0806,-3360.8601L13370.4697,-3360.9264L13370.6802,-3361.0535L13370.7703,-3361.0931L13370.9503,-3361.2198L13371.1807,-3361.4666L13371.2006,-3361.5601"/>
<path content="AP030,1,28,1,0,15,1,8,JPN" xlink:title="AP030" d="M13364.1296,-3361.8988L13365.213,-3361.4822L13366.2903,-3361.697L13366.7496,-3361.7748L13367.0074,-3361.7397L13366.9861,-3361.2625L13367.2653,-3360.7353L13367.363,-3360.2951L13367.3996,-3360.1334"/>
<path content="AP030,1,28,1,0,14,1,8,JPN" xlink:title="AP030" d="M13442.0395,-3367.6666L13441.9693,-3367.5064L13441.8594,-3367.3267L13441.8106,-3367.1799L13441.7694,-3367.0734L13441.6794,-3366.9266L13441.5405,-3366.8198L13441.4703,-3366.6931L13441.4307,-3366.5333L13441.3803,-3366.4398L13440.8798,-3366.1732L13440.6097,-3366.0465L13440.3595,-3366.0465L13440.0803,-3365.9199L13439.9002,-3365.8333L13439.74,-3365.76L13439.65,-3365.7066L13439.4897,-3365.6334L13439.2899,-3365.4331L13438.9496,-3365.1264L13438.7695,-3364.9132L13438.5406,-3364.6065L13438.4705,-3364.46L13438.3606,-3364.3333L13438.3102,-3364.2998L13438.2706,-3364.2067L13438.2004,-3364.1933L13438.1805,-3364.1933L13438.1104,-3364.0999L13437.9303,-3364.0465L13437.7701,-3364.0133L13437.6495,-3363.9L13437.6099,-3363.8664L13437.5793,-3363.76L13437.4496,-3363.6532L13437.3306,-3363.6532L13437.2696,-3363.5799L13437.1094,-3363.5597L13437.0193,-3363.5399L13436.9293,-3363.4865L13436.8103,-3363.3598L13436.7004,-3363.2732L13436.6302,-3363.2332L13436.5204,-3363.2332L13436.38,-3363.1268L13436.1801,-3362.9997L13436.1298,-3362.9665L13435.9894,-3362.8399L13435.9497,-3362.7335L13435.8795,-3362.64L13435.8597,-3362.5866L13435.7697,-3362.5332L13435.6903,-3362.4966L13435.6094,-3362.4599L13435.4706,-3362.4798L13435.3104,-3362.3867L13435.2707,-3362.2467L13435.2707,-3362.1201L13435.2005,-3362.0464L13435.0601,-3361.9934L13434.9304,-3361.94L13434.8801,-3361.8866L13434.8999,-3361.6531L13435.0204,-3361.5932L13435.1303,-3361.5398L13435.1379,-3361.5307L13435.2905,-3361.3598L13435.3104,-3361.2534L13435.3104,-3361.1065L13435.3104,-3361.0397L13435.2203,-3360.9665L13435.2005,-3360.7864L13435.1303,-3360.5865L13435.1807,-3360.3199L13435.1807,-3360.2798L13435.1807,-3360.1334"/>
<path content="AP030,1,28,1,0,14,1,8,JPN" xlink:title="AP030" d="M13430.3604,-3370.48L13430.4001,-3370.4266L13430.4306,-3370.3335L13430.3604,-3370.2465L13430.2704,-3370.1534L13430.0201,-3369.9734L13429.9896,-3369.8868L13430.1804,-3369.7399L13430.1804,-3369.6533L13430.1804,-3369.5065L13430.2704,-3369.4534L13430.4001,-3369.4332L13430.4306,-3369.3466L13430.4504,-3369.3066L13430.4306,-3369.2532L13430.2902,-3369.2532L13430.0598,-3369.1265L13430.0598,-3368.9865L13430.13,-3368.9133L13430.2399,-3368.8198L13430.2399,-3368.5333L13430.3802,-3368.2598L13430.5206,-3368.0668L13430.7007,-3368.0267L13430.8304,-3368.0267L13431.0593,-3367.9398L13431.1798,-3367.8867L13431.2698,-3367.8131L13431.3095,-3367.7399L13431.2698,-3367.6666L13431.1295,-3367.6132L13430.9692,-3367.5064L13430.9692,-3367.3599L13431.0394,-3367.2733L13431.2195,-3367.1665L13431.3095,-3367.0933L13431.3599,-3367.02L13431.3095,-3366.9132L13431.1096,-3366.7866L13431.0196,-3366.7332L13430.9692,-3366.6199L13430.9692,-3366.4799L13431.1295,-3366.32L13431.1798,-3366.28L13431.1996,-3366.2464L13431.1798,-3366.0999L13431.0196,-3365.9397L13430.8304,-3365.8333L13430.7007,-3365.7932L13430.5801,-3365.72L13430.5206,-3365.4667L13430.5206,-3365.2866L13430.5801,-3365.1264L13430.6793,-3364.9998L13430.7693,-3364.9265L13430.8304,-3364.9265L13430.9494,-3364.9132L13431.0806,-3364.9467L13431.1295,-3364.9132L13431.1295,-3364.8197L13431.1493,-3364.6797L13431.1996,-3364.4398L13431.1798,-3364.2265L13431.2195,-3364.1335L13431.2393,-3364.0465L13431.2698,-3363.9198L13431.2698,-3363.8866L13431.0394,-3363.9L13430.8594,-3363.7733L13430.7007,-3363.6868L13430.6305,-3363.6131L13430.5206,-3363.2866L13430.5603,-3363.0531L13430.6107,-3362.8597L13430.6793,-3362.7666L13430.7404,-3362.6801L13430.8807,-3362.6064L13431.0196,-3362.5534L13431.1798,-3362.5534L13431.3599,-3362.5866L13431.6803,-3362.6801L13431.8802,-3362.6598L13431.9702,-3362.6064L13432.0206,-3362.4268L13432.0206,-3362.2265L13431.9901,-3362.0464L13431.9702,-3361.6665L13432.0206,-3361.5067L13432.0404,-3361.3068L13432.0206,-3361.1267L13432.4295,-3361.0397L13432.5394,-3360.9665L13432.6797,-3360.9135L13432.8796,-3360.8932L13433.0795,-3360.8734L13433.3603,-3360.7666L13433.9905,-3360.5133L13434.2407,-3360.4599L13434.3597,-3360.3867L13434.79,-3360.2467L13434.9548,-3360.1616L13434.9701,-3360.1532L13435.1807,-3360.1334"/>
<path content="AP030,1,28,1,0,14,1,8,JPN" xlink:title="AP030" d="M13364.0198,-3360.9665L13363.9297,-3360.7334L13363.5193,-3360.26L13363.0798,-3359.6664L13362.6999,-3359.0733"/>
<path content="AP030,1,28,1,0,16,1,8,JPN" xlink:title="AP030" d="M13359.375,-3359.585L13359.7702,-3359.5932L13360.0403,-3359.6664L13360.2402,-3359.7599L13360.6995,-3360.0132L13360.9497,-3360.1734L13361.1099,-3360.2264L13361.8607,-3360.3199L13362.0407,-3360.3867L13362.1796,-3360.4267L13362.4496,-3360.5865L13362.5198,-3360.64L13362.9303,-3361.0397L13363.4293,-3361.3464L13363.5406,-3361.4532L13363.6093,-3361.5799L13363.6795,-3361.9732L13363.7894,-3362.3867L13363.8626,-3362.4725"/>
<path content="AP030,1,28,1,0,15,1,8,JPN" xlink:title="AP030" d="M13410.8688,-3361.7722L13410.7635,-3361.3663L13410.1929,-3361.2484L13410.2539,-3360.4801L13409.8511,-3359.9716L13410.4202,-3359.6889L13410.7056,-3359.1045L13410.1883,-3358.3603"/>
<path content="AP030,1,28,1,0,14,1,8,JPN" xlink:title="AP030" d="M13365.2522,-3358.3135L13366.2003,-3359.1064L13366.6107,-3359.4666L13367.3996,-3360.1334"/>
<path content="AP030,1,28,1,0,15,1,8,JPN" xlink:title="AP030" d="M13364.0198,-3360.9665L13364.2593,-3360.0464L13365.1733,-3358.4499L13365.2522,-3358.3135"/>
<path content="AP030,1,28,1,0,15,1,8,JPN" xlink:title="AP030" d="M13359.375,-3359.1741L13359.5871,-3359.2896L13360.1898,-3359.3307L13360.8429,-3359.2484L13361.8988,-3359.166L13362.6999,-3359.0733"/>
<path content="AP030,1,28,1,0,14,1,8,JPN" xlink:title="AP030" d="M13362.6999,-3359.0733L13362.5198,-3358.7467L13362.3596,-3358.5335L13362.2696,-3358.3866L13362.1994,-3358.12L13362.1704,-3357.8835L13362.1506,-3357.7198L13362.1307,-3357.5397"/>
<path content="AP030,1,28,1,0,14,1,8,JPN" xlink:title="AP030" d="M13362.1307,-3357.5397L13362.2696,-3357.5397L13362.6801,-3357.6134L13362.9898,-3357.6866L13363.7695,-3357.6134L13364.1998,-3357.555L13364.2838,-3357.5436"/>
<path content="AP030,1,28,1,0,14,1,8,JPN" xlink:title="AP030" d="M13364.2838,-3357.5436L13364.3097,-3357.5397L13364.3204,-3357.5508L13364.4302,-3357.6668L13364.5401,-3357.7934L13364.8605,-3357.9933L13365.0604,-3358.1532L13365.2522,-3358.3135"/>
<path content="AP030,1,28,1,0,15,1,8,JPN" xlink:title="AP030" d="M13418.1946,-3357.1793L13419.1437,-3357.4722L13419.2001,-3357.6046L13418.9789,-3357.8884L13419.1833,-3358.0849L13419.8868,-3358.1421L13420.3232,-3358.2031L13421.5622,-3357.9201L13421.3547,-3359.4254L13421.6553,-3359.5345L13421.8094,-3359.2655L13421.9528,-3358.5705L13422.4319,-3357.8197"/>
<path content="AP030,1,28,1,0,15,1,8,JPN" xlink:title="AP030" d="M13417.7612,-3357.6359L13418.1946,-3357.1793"/>
<path content="AP030,1,28,1,0,15,1,8,JPN" xlink:title="AP030" d="M13364.2838,-3357.5436L13364.3768,-3356.826"/>
<path content="AP030,1,28,1,0,15,1,8,JPN" xlink:title="AP030" d="M13373.7549,-3360.5244L13373.2803,-3360.2165L13371.6522,-3359.4563L13370.8664,-3358.8676L13370.1569,-3357.6195L13369.9265,-3356.8184"/>
<path content="AP030,1,28,1,0,15,1,8,JPN" xlink:title="AP030" d="M13373.7549,-3360.5244L13374.1852,-3360.3752L13374.1623,-3360.1639L13373.851,-3359.8831L13373.8205,-3359.7416L13373.9456,-3359.7488L13374.176,-3359.745L13374.0112,-3359.473L13373.5672,-3359.2896L13372.9034,-3359.2327L13372.3938,-3358.8356L13371.8094,-3357.8396L13371.4172,-3357.5367L13371.0022,-3357.4947L13370.929,-3357.3853L13371.0678,-3357.2189L13371.0388,-3357.077L13370.4544,-3356.8153L13369.9265,-3356.8184"/>
<path content="AP030,1,28,1,0,14,1,8,JPN" xlink:title="AP030" d="M13362.1307,-3357.5397L13362.1155,-3357.3799L13362.0605,-3356.7867"/>
<path content="AP030,1,28,1,0,14,1,8,JPN" xlink:title="AP030" d="M13435.1807,-3360.1334L13435.2402,-3359.8866L13435.2905,-3359.6664L13435.3104,-3359.5066L13435.3104,-3359.2865L13435.3104,-3359.2533L13435.1807,-3358.9466L13435.1501,-3358.7997L13435.1105,-3358.7132L13434.9899,-3358.6597L13434.8099,-3358.6067L13434.1797,-3358.5533L13434.0393,-3358.5865L13433.9493,-3358.6067L13433.2901,-3358.5533L13433.0399,-3358.4999L13432.8598,-3358.3534L13432.7194,-3358.2798L13432.3303,-3358.2466L13432.1793,-3358.3199L13431.9,-3358.3L13431.7703,-3358.2466L13431.6299,-3358.1532L13431.5399,-3358.0997L13431.4697,-3358.0997L13431.4316,-3358.12L13431.3293,-3358.1734L13431.2393,-3358.1532L13431.1295,-3358.0132L13431.0196,-3357.9201L13430.8594,-3357.7934L13430.7907,-3357.7732L13430.7007,-3357.7065L13430.6793,-3357.6866L13430.6793,-3357.5932L13430.7068,-3357.5069L13430.7205,-3357.4665L13430.7907,-3357.3997L13430.8105,-3357.3265L13430.7205,-3357.1999L13430.7007,-3357.1266L13430.7007,-3357.0732L13430.7007,-3356.8932L13430.6503,-3356.7867"/>
<path content="AP030,1,28,1,0,15,1,8,JPN" xlink:title="AP030" d="M13422.4319,-3357.8197L13423.3734,-3357.9269L13423.8525,-3358.5823L13423.8235,-3358.9508L13424.0891,-3358.9466L13424.1699,-3358.7662L13424.1058,-3358.1707L13424.5529,-3357.8255L13425.2182,-3357.2327L13425.4013,-3356.8729L13425.5417,-3357.0473L13425.8011,-3357.4127L13426.4191,-3357.4097L13427.2934,-3357.254L13428.0365,-3356.7947L13428.4836,-3356.7268L13428.7735,-3356.9832L13429.2343,-3357.5817L13429.4739,-3357.6317L13429.892,-3357.3769L13430.1956,-3357.14L13430.6503,-3356.7867"/>
<path content="AP030,1,28,1,0,15,1,8,JPN" xlink:title="AP030" d="M13378.8605,-3365.1466L13379.6036,-3364.7846L13380.6808,-3364.4108L13380.8823,-3364.0026L13380.7358,-3363.5048L13380.0293,-3362.4493L13379.9576,-3361.8156L13379.6005,-3361.5849L13379.0619,-3361.5185L13378.6453,-3361.2667L13378.2089,-3361.2411L13378.1158,-3361.0958L13378.5034,-3360.9612L13378.5019,-3360.7338L13378.2593,-3360.6323L13377.9465,-3360.6312L13376.2665,-3359.2388L13372.9248,-3356.9965L13372.9294,-3356.6994"/>
<path content="AP030,1,28,1,0,14,1,8,JPN" xlink:title="AP030" d="M13362.0605,-3356.7867L13362.1796,-3356.7867L13363.1104,-3356.7135L13363.4705,-3356.6933L13363.5803,-3356.6933L13364.0396,-3356.8199L13364.2899,-3356.8398L13364.3768,-3356.826"/>
<path content="AP030,1,28,1,0,15,1,8,JPN" xlink:title="AP030" d="M13369.9265,-3356.8184L13369.8502,-3356.5521"/>
<path content="AP030,1,28,1,0,15,1,8,JPN" xlink:title="AP030" d="M13372.9294,-3356.6994L13374.118,-3356.7173L13374.7696,-3356.6681L13375.5997,-3356.4724L13376.059,-3356.4819L13376.4908,-3356.8043L13377.8183,-3357.914L13378.4454,-3358.9123L13379.1733,-3358.955L13380.159,-3359.6596L13382.4356,-3361.9255L13382.869,-3362.4928L13383.0643,-3362.3993L13382.8384,-3361.8439L13382.9208,-3361.6039L13383.2977,-3361.3464"/>
<path content="AP030,1,28,1,0,15,1,8,JPN" xlink:title="AP030" d="M13369.8502,-3356.5521L13370.4025,-3356.4449L13371.9177,-3356.3076L13372.1771,-3356.4453L13372.4701,-3356.6898L13372.9294,-3356.6994"/>
<path content="AP030,1,28,1,0,15,1,8,JPN" xlink:title="AP030" d="M13367.3996,-3360.1334L13367.7704,-3359.3304L13367.5751,-3358.4751L13366.8732,-3356.9973L13366.5894,-3356.3988L13366.5649,-3356.2729"/>
<path content="AP030,1,28,1,0,14,1,8,JPN" xlink:title="AP030" d="M13364.3768,-3356.826L13364.5401,-3356.8001L13364.6301,-3356.7665L13365.3793,-3356.48L13365.7898,-3356.44L13366.0202,-3356.4266L13366.5649,-3356.2729"/>
<path content="AP030,1,28,1,0,14,1,8,JPN" xlink:title="AP030" d="M13366.5649,-3356.2729L13366.6107,-3356.2599L13366.7206,-3356.2466L13367.0197,-3356.1932L13367.8604,-3356.0265"/>
<path content="AP030,1,28,1,0,15,1,8,JPN" xlink:title="AP030" d="M13384.4162,-3362.4985L13384.1644,-3362.0869L13384.0637,-3361.7168L13384.0637,-3361.5108L13384.4666,-3361.1408L13385.321,-3360.894L13386.0245,-3360.8116L13386.7783,-3360.5236L13387.2299,-3360.1948L13387.8845,-3359.2484L13388.4369,-3357.9731L13389.09,-3356.739L13389.5432,-3355.9162"/>
<path content="AP030,1,28,1,0,14,1,8,JPN" xlink:title="AP030" d="M13359.375,-3356.6473L13359.4299,-3356.6799L13359.7702,-3356.6799L13359.8999,-3356.8932L13360.0601,-3357.18L13360.5194,-3357.3601L13360.7407,-3357.3467L13360.8597,-3357.3467L13361.2,-3357.4333L13361.3998,-3357.4532L13361.6302,-3357.4532L13361.8301,-3357.5268L13362.1307,-3357.5397"/>
<path content="AP030,1,28,1,0,15,1,8,JPN" xlink:title="AP030" d="M13369.8502,-3356.5521L13369.6548,-3356.1306L13369.4901,-3355.7732"/>
<path content="AP030,1,28,1,0,14,1,8,JPN" xlink:title="AP030" d="M13367.8604,-3356.0265L13368.5394,-3355.8998L13368.9301,-3355.8132L13369.3604,-3355.7934L13369.4901,-3355.7732"/>
<path content="AP030,1,28,1,0,15,1,8,JPN" xlink:title="AP030" d="M13391.9083,-3362.4302L13391.5146,-3361.7901L13391.0645,-3361.4201L13390.744,-3360.9276L13390.9866,-3360.4965L13390.9134,-3359.9182L13391.2491,-3359.5932L13391.5817,-3359.5119L13391.745,-3359.4063L13391.7465,-3359.1766L13391.3971,-3358.8409L13391.5543,-3358.3904L13391.803,-3358.2756L13392.16,-3358.3248L13392.4484,-3358.1406L13392.3874,-3357.4337L13391.8854,-3357.0602L13391.2048,-3356.5907L13390.9363,-3356.0871L13390.7379,-3355.7888L13390.4526,-3355.7148L13389.5432,-3355.9162"/>
<path content="AP030,1,28,1,0,14,1,8,JPN" xlink:title="AP030" d="M13359.375,-3356.057L13359.8602,-3356.2466L13360.3104,-3356.4068L13360.6506,-3356.5865L13360.9894,-3356.5533L13361.2198,-3356.5533L13361.7203,-3356.8001L13362.0605,-3356.7867"/>
<path content="AP030,1,28,1,0,15,1,8,JPN" xlink:title="AP030" d="M13364.3768,-3356.826L13364.4623,-3355.9841L13364.389,-3355.125L13364.5889,-3354.9232"/>
<path content="AP030,1,28,1,0,15,1,8,JPN" xlink:title="AP030" d="M13364.3127,-3354.8691L13364.5889,-3354.9232"/>
<path content="AP030,1,28,1,0,15,1,8,JPN" xlink:title="AP030" d="M13366.5649,-3356.2729L13366.2659,-3354.7626"/>
<path content="AP030,1,28,1,0,15,1,8,JPN" xlink:title="AP030" d="M13364.5889,-3354.9232L13365.2054,-3354.9732L13366.2659,-3354.7626"/>
<path content="AP030,1,28,1,0,14,1,8,JPN" xlink:title="AP030" d="M13369.4901,-3355.7732L13370.2194,-3355.74L13370.3644,-3355.7335L13370.6802,-3355.7198L13370.8828,-3355.5584L13370.887,-3355.555"/>
<path content="AP030,1,28,1,0,15,1,8,JPN" xlink:title="AP030" d="M13372.9294,-3356.6994L13372.7524,-3356.3046L13372.5021,-3355.8174L13372.7097,-3354.8332L13372.3358,-3354.5666L13371.9498,-3354.6799"/>
<path content="AP030,1,28,1,0,15,1,8,JPN" xlink:title="AP030" d="M13359.375,-3354.52L13359.9197,-3354.5383L13361.2625,-3354.4052L13364.3127,-3354.8691"/>
<path content="AP030,1,28,1,0,14,1,8,JPN" xlink:title="AP030" d="M13371.9498,-3354.6799L13372.02,-3354.4998L13372.0398,-3354.4266L13372.1252,-3354.1737L13372.1497,-3354.1L13372.1802,-3354.0665"/>
<path content="AP030,1,28,1,0,15,1,8,JPN" xlink:title="AP030" d="M13368.1305,-3353.6945L13369.2337,-3353.923L13370.2927,-3353.7357L13371.4981,-3353.8593L13372.1802,-3354.0665"/>
<path content="AP030,1,28,1,0,15,1,8,JPN" xlink:title="AP030" d="M13367.8604,-3356.0265L13367.6971,-3354.969L13368.2327,-3354.0955L13368.1305,-3353.6945"/>
<path content="AP030,1,28,1,0,15,1,8,JPN" xlink:title="AP030" d="M13383.2977,-3361.3464L13383.0566,-3360.9825L13382.6767,-3360.7857L13382.8598,-3360.3416L13382.4951,-3359.6909L13382.3669,-3359.2289L13382.637,-3358.7376L13381.8619,-3359.0244L13380.9769,-3358.606L13381.0501,-3358.4877L13381.5735,-3358.466L13381.5613,-3358.3603L13380.4276,-3357.9269L13380.2628,-3357.655L13380.1819,-3357.1255L13379.7073,-3356.8008L13378.6606,-3356.5819L13378.0823,-3356.2508L13377.5574,-3355.5382L13376.4175,-3354.6848L13375.2396,-3353.5934"/>
<path content="AP030,1,28,1,0,14,1,8,JPN" xlink:title="AP030" d="M13372.1802,-3354.0665L13372.2702,-3353.9932L13372.3801,-3353.9734L13372.5906,-3353.9791L13373.1094,-3353.9932L13373.4299,-3353.9734L13373.8602,-3353.8998L13374.2203,-3353.8334L13374.3103,-3353.8132L13374.8795,-3353.7399L13375.2396,-3353.5934"/>
<path content="AP030,1,28,1,0,15,1,8,JPN" xlink:title="AP030" d="M13366.3147,-3353.1822L13367.3752,-3353.3005L13368.1305,-3353.6945"/>
<path content="AP030,1,28,1,0,15,1,8,JPN" xlink:title="AP030" d="M13366.2659,-3354.7626L13366.1713,-3353.6697L13366.3147,-3353.1822"/>
<path content="AP030,1,28,1,0,15,1,8,JPN" xlink:title="AP030" d="M13364.5477,-3352.9018L13366.2704,-3353.1773L13366.3147,-3353.1822"/>
<path content="AP030,1,28,1,0,15,1,8,JPN" xlink:title="AP030" d="M13364.3127,-3354.8691L13364.5477,-3352.9018"/>
<path content="AP030,1,28,1,0,15,1,8,JPN" xlink:title="AP030" d="M13418.1946,-3357.1793L13417.9626,-3356.7593L13417.6132,-3356.7032L13417.6575,-3356.1504L13417.7994,-3355.1964L13417.3615,-3354.5803L13417.308,-3354.1336L13417.7246,-3353.8975L13418.1168,-3352.5688L13417.9703,-3352.1908L13418.1305,-3351.5934"/>
<path content="AP030,1,28,1,0,15,1,8,JPN" xlink:title="AP030" d="M13410.1883,-3358.3603L13410.3592,-3358.2199L13410.3027,-3357.9399L13410.1318,-3357.6595L13409.9609,-3357.3795L13410.1318,-3356.9122L13410.7025,-3356.0249L13410.817,-3355.2307L13410.817,-3354.6238L13410.6445,-3354.1569L13410.6445,-3353.8765L13410.7025,-3353.783L13411.5005,-3353.7361L13411.9568,-3353.5496L13412.2421,-3353.1292L13412.6419,-3352.6623L13413.2706,-3352.4284L13414.0686,-3352.195L13414.2395,-3352.0081L13414.2395,-3351.4866"/>
<path content="AP030,1,28,1,0,15,1,8,JPN" xlink:title="AP030" d="M13359.375,-3351.8254L13360.5927,-3352.0493L13362.6526,-3352.5017L13364.3616,-3352.8721L13364.5477,-3352.9018"/>
<path content="AP030,1,28,1,0,15,1,8,JPN" xlink:title="AP030" d="M13422.4319,-3357.8197L13422.3053,-3357.1838L13422.0947,-3356.7654L13421.7316,-3356.3198L13421.6782,-3355.8731L13421.8094,-3355.4611L13422.2748,-3355.1086L13422.4991,-3354.9553L13422.6074,-3354.8195L13422.6379,-3354.6204L13422.6212,-3354.3003L13424.0128,-3354.0035L13424.4522,-3353.7502L13424.2203,-3353.6079L13423.2162,-3353.738L13422.7753,-3353.7136L13422.7188,-3353.4832L13423.0682,-3353.1597L13423.1476,-3352.8687L13423.1659,-3352.4677L13423.4802,-3352.0504L13424.0097,-3352.0428L13424.498,-3351.7365L13425.5447,-3351.0536L13425.8606,-3350.5531"/>
<path content="AP030,1,28,1,0,15,1,8,JPN" xlink:title="AP030" d="M13389.5432,-3355.9162L13389.4424,-3355.3814L13389.3921,-3354.5998L13389.3921,-3353.0777L13389.6439,-3351.8845L13389.5493,-3351.0387L13389.5432,-3350.9796L13390.0803,-3350.3201"/>
<path content="AP030,1,28,1,0,14,1,8,JPN" xlink:title="AP030" d="M13378.8441,-3351.9675L13379.2007,-3351.9531L13379.6997,-3351.9398L13379.8599,-3351.9398L13380.1102,-3351.9199L13380.4703,-3351.8665L13380.7693,-3351.8867L13380.9906,-3351.8867L13381.5201,-3351.8333L13381.81,-3351.72L13382.0602,-3351.7067L13382.3593,-3351.6533L13382.4707,-3351.6533L13382.93,-3351.6865L13383.2199,-3351.6865L13383.3801,-3351.5934L13383.6105,-3351.4133L13383.6655,-3351.3397L13383.7692,-3351.1997L13383.7906,-3351.0735L13383.9005,-3350.8732L13384.2697,-3350.7999L13384.4498,-3350.7332L13384.52,-3350.6931L13384.61,-3350.6798L13384.9701,-3350.7866L13385.0403,-3350.7999L13385.2203,-3350.7133L13385.3302,-3350.7332L13385.5728,-3350.7202L13385.6995,-3350.7133L13385.7697,-3350.7133L13385.9894,-3350.6397L13386.3602,-3350.5665L13386.3907,-3350.5562L13386.7706,-3350.4265L13387.0407,-3350.4398L13387.4298,-3350.4265L13387.9303,-3350.3735L13388.4903,-3350.3201L13388.8596,-3350.2266L13388.9893,-3350.2464L13389.3799,-3350.4066L13389.5599,-3350.4265L13389.6301,-3350.4066L13389.7705,-3350.3864L13390.0803,-3350.3201"/>
<path content="AP030,1,28,1,0,14,1,8,JPN" xlink:title="AP030" d="M13430.6503,-3356.7867L13430.6503,-3356.5666L13430.6793,-3356.4266L13430.7007,-3356.2065L13430.7007,-3355.92L13430.7007,-3355.6667L13430.4504,-3355.0533L13430.4306,-3354.9866L13430.3604,-3354.8931L13430.2704,-3354.6799L13430.2704,-3354.6398L13430.0201,-3354.5532L13429.8798,-3354.5334L13429.8599,-3354.4998L13429.7394,-3354.4067L13429.5807,-3354.4067L13429.3793,-3354.3198L13429.1504,-3354.2267L13429.0802,-3354.2065L13428.9902,-3354.1L13428.9902,-3354.0665L13429.0405,-3353.9734L13428.9902,-3353.8998L13428.9307,-3353.8666L13428.8803,-3353.7598L13428.9505,-3353.6533L13428.9505,-3353.5934L13428.8101,-3353.3798L13428.6301,-3353.22L13428.4698,-3353.1265L13428.3295,-3353.1067L13428.2196,-3353.0533L13428.1799,-3353.0197L13428.1296,-3352.9465L13428.1494,-3352.8198L13428.1296,-3352.7664L13428.0594,-3352.7134L13428.0594,-3352.5532L13428.0807,-3352.1935L13428.1097,-3351.9199L13428.0807,-3351.7933L13428.0396,-3351.5934L13428.0197,-3351.4534L13428.0197,-3351.4L13427.9297,-3351.2867L13427.8595,-3351.2333L13427.7405,-3351.1799L13427.6306,-3351.1467L13427.6093,-3351.1467L13427.5604,-3351.1265L13427.4704,-3350.9998L13427.4307,-3350.9266L13427.1805,-3350.5665L13426.86,-3350.1934L13426.7899,-3350.0999"/>
<path content="AP030,1,28,1,0,14,1,8,JPN" xlink:title="AP030" d="M13425.8606,-3350.5531L13425.9903,-3350.5135L13426.1093,-3350.4799L13426.4297,-3350.3201L13426.6296,-3350.1934L13426.7899,-3350.0999"/>
<path content="AP030,1,28,1,0,14,1,8,JPN" xlink:title="AP030" d="M13414.2395,-3351.4866L13414.36,-3351.4332L13414.4699,-3351.1997L13414.4897,-3351.1467L13414.5599,-3351.0735L13414.5599,-3350.9865L13414.5599,-3350.9266L13414.5203,-3350.8732L13414.5203,-3350.6931L13414.5203,-3350.6065L13414.5401,-3350.5531L13414.6103,-3350.4799L13414.74,-3350.4398L13414.9307,-3350.4601L13415.0803,-3350.4997L13415.1794,-3350.5135L13415.3107,-3350.4398L13415.4297,-3350.28L13415.5197,-3350.1934L13415.6097,-3350.1331L13415.6494,-3350.1331L13415.7394,-3350.1331L13415.8997,-3350.1934L13416.2903,-3350.1732L13416.33,-3350.0999L13416.4001,-3350.0668L13416.4902,-3350.0668L13416.5802,-3350.2068L13416.6107,-3350.3864L13416.6107,-3350.4997L13416.6107,-3350.5333L13416.5207,-3350.6065L13416.4505,-3350.6599L13416.3605,-3350.9132L13416.3803,-3351.0399L13416.5802,-3351.0532L13416.7206,-3351.0532L13416.8304,-3351.1265L13416.8594,-3351.1665L13416.8304,-3351.3798L13416.8304,-3351.4332L13416.8793,-3351.4534L13416.9495,-3351.4534L13417.0593,-3351.5598L13417.1494,-3351.54L13417.2195,-3351.4866L13417.7704,-3351.4866L13417.9306,-3351.5934L13418.0206,-3351.6132L13418.1107,-3351.5598L13418.1305,-3351.5934"/>
<path content="AP030,1,28,1,0,15,1,8,JPN" xlink:title="AP030" d="M13408.0964,-3375L13408.223,-3374.7768L13408.4442,-3374.2802L13408.1741,-3373.7L13408.2367,-3373.2132L13408.1345,-3372.5288L13407.4585,-3372.2271L13406.8634,-3371.7789L13406.2225,-3371.0644L13406.0913,-3371.0194L13406.1737,-3371.3821L13405.9723,-3371.3707L13405.6656,-3370.6936L13405.3162,-3370.2782L13405.1407,-3370.2118L13405.0583,-3370.3957L13404.8248,-3370.4952L13402.8595,-3369.1589L13402.5909,-3368.5783L13401.4267,-3367.6456L13400.4105,-3367.3992L13399.8901,-3367.1436L13399.7147,-3366.5306L13399.9405,-3366.1896L13400.4883,-3365.7894L13400.9171,-3365.2744L13401.1292,-3364.5748L13401.091,-3364.0984L13400.6546,-3363.4266L13399.9832,-3362.8059L13399.826,-3362.5168L13399.9283,-3362.2208L13399.2767,-3361.6661L13398.9471,-3361.2804L13397.8485,-3360.8513L13397.7188,-3360.5419L13397.9446,-3360.2962L13398.1888,-3359.8354L13398.3917,-3359.5669L13398.9944,-3359.4288L13399.1058,-3359.3273L13398.7457,-3358.7029L13398.1628,-3358.26L13397.8363,-3357.8316L13397.5815,-3356.8466L13396.8948,-3356.1172L13396.2189,-3355.5611L13395.7977,-3355.6664L13395.3674,-3355.5771L13395.4178,-3354.9545L13395.0531,-3354.6967L13394.9722,-3354.4117L13395.2332,-3354.06L13395.0928,-3353.447L13395.0241,-3353.2284L13394.8105,-3352.9156L13394.7067,-3352.7378L13394.5969,-3352.6028L13394.5526,-3352.5288L13394.5526,-3352.5238L13394.5984,-3352.1187L13394.7815,-3351.7159L13394.5923,-3351.3336L13394.1605,-3350.946L13392.6086,-3350.3342L13391.9403,-3349.9489L13391.7404,-3349.8333"/>
<path content="AP030,1,28,1,0,14,1,8,JPN" xlink:title="AP030" d="M13390.0803,-3350.3201L13390.3305,-3350.28L13390.5807,-3350.2266L13390.9302,-3350.1732L13391.1102,-3350.1331L13391.3101,-3349.9001L13391.5207,-3349.8665L13391.7404,-3349.8333"/>
<path content="AP030,1,28,1,0,14,1,8,JPN" xlink:title="AP030" d="M13418.1305,-3351.5934L13418.1107,-3351.7067L13418.1503,-3351.7399L13418.4296,-3351.7399L13418.6493,-3351.7597L13418.7698,-3351.8131L13418.7897,-3351.8333L13418.8797,-3351.7597L13419.0796,-3351.8131L13419.31,-3351.7933L13419.4,-3351.7597L13419.5404,-3351.7735L13419.5602,-3351.7067L13419.5206,-3351.6335L13419.5404,-3351.54L13419.6793,-3351.4332L13419.9905,-3351.4133L13420.1096,-3351.3798L13420.3293,-3351.3798L13420.3293,-3351.2867L13420.3094,-3351.2333L13420.3796,-3351.2531L13420.4498,-3351.3065L13420.4895,-3351.2199L13420.5399,-3351.1665L13420.6299,-3351.1265L13420.7199,-3351.1265L13420.7703,-3351.0933L13420.7703,-3350.9998L13420.8099,-3350.9865L13420.8801,-3351.0532L13420.9,-3350.9998L13420.9305,-3350.9666L13421.0205,-3350.9464L13421.0205,-3350.8598L13421.1304,-3350.7133L13421.2402,-3350.6199L13421.3104,-3350.5867L13421.3593,-3350.6065L13421.4294,-3350.6599L13421.6293,-3350.6798L13421.8307,-3350.6397L13421.9498,-3350.5867L13421.9696,-3350.5531L13421.9498,-3350.5135L13421.6797,-3350.6065L13421.6293,-3350.5867L13421.6095,-3350.5531L13421.6797,-3350.5135L13421.7896,-3350.4799L13421.9299,-3350.4398L13422.11,-3350.4601L13422.29,-3350.3864L13422.4304,-3350.3334L13422.5204,-3350.2464L13422.58,-3350.2266L13422.58,-3350.1534L13422.58,-3350.0465L13422.6303,-3350.0134L13422.6807,-3349.9535L13422.8302,-3349.9535L13422.9004,-3349.9199L13422.9004,-3349.8665L13422.8607,-3349.8135L13422.8806,-3349.72L13422.9706,-3349.7066L13423.0392,-3349.7066L13423.0804,-3349.6532L13423.3597,-3349.6132L13423.5199,-3349.7066L13423.7,-3349.7398L13423.8998,-3349.7734L13424.0204,-3349.8135L13424.0601,-3349.8466L13424.0799,-3349.9535L13424.1302,-3349.9931L13424.2401,-3350.0134L13424.5193,-3350.1732L13424.5804,-3350.1934L13424.6796,-3350.1732L13424.8093,-3350.3201L13425.0397,-3350.4398L13425.1099,-3350.4799L13425.3296,-3350.6599L13425.56,-3350.5867L13425.8606,-3350.5531"/>
<path content="AP030,1,28,1,0,15,1,8,JPN" xlink:title="AP030" d="M13410.1883,-3358.3603L13409.6756,-3358.3603L13408.3054,-3357.8934L13406.8222,-3357.1926L13405.7373,-3356.5388L13404.6249,-3355.5939L13404.7104,-3354.3434L13404.7104,-3353.5961L13404.5395,-3353.3161L13403.8544,-3353.0823L13402.9419,-3352.195L13401.6861,-3351.3077L13401.5152,-3350.8404L13401.1154,-3350.0931L13400.6592,-3349.2058L13400.032,-3348.1785L13399.0616,-3347.1039L13398.4909,-3345.8897L13398.0377,-3344.4805L13397.7905,-3343.7065"/>
<path content="AP030,1,28,1,0,14,1,8,JPN" xlink:title="AP030" d="M13391.7404,-3349.8333L13392.1295,-3349.7932L13392.131,-3349.7925L13392.1799,-3349.7734L13392.2699,-3349.6758L13392.6102,-3349.3065L13392.72,-3349.2733L13392.7673,-3349.2554L13392.8604,-3349.2199L13393.2404,-3349.0932L13393.5394,-3348.9468L13393.7195,-3348.7999L13393.8293,-3348.6801L13393.9499,-3348.4402L13394.1101,-3348.28L13394.31,-3348.0667L13394.4305,-3347.9L13394.4702,-3347.72L13394.6106,-3347.5933L13394.6793,-3347.5266L13394.6503,-3347.4133L13394.4641,-3347.234L13394.4504,-3347.2198L13394.4504,-3346.9868L13394.2703,-3346.7999L13394.2398,-3346.7335L13394.31,-3346.3001L13394.3802,-3346.2265L13394.5602,-3345.9534L13394.7906,-3345.6135L13394.8593,-3345.4132L13394.9295,-3345.2732L13395.1492,-3345.1466L13395.2164,-3345.1004L13395.3293,-3345.0199L13395.8298,-3344.8399L13395.99,-3344.7865L13396.1838,-3344.5427L13396.3593,-3344.3199L13396.4005,-3344.2799L13396.4905,-3344.2265L13396.9894,-3344.1002L13397.11,-3344.0468L13397.58,-3343.8332L13397.7905,-3343.7065"/>
<path content="AP030,1,28,1,0,14,1,8,JPN" xlink:title="AP030" d="M13397.7905,-3343.7065L13398.1094,-3343.5799L13398.3994,-3343.5066L13398.4299,-3343.4334L13398.5199,-3343.3067L13398.7,-3343.1667L13399.0204,-3342.9466L13399.1104,-3342.9134L13399.2706,-3342.9665L13399.3805,-3342.9867L13399.6796,-3342.9665L13400.0793,-3342.86L13400.2197,-3342.9134L13400.3998,-3342.9867L13400.6805,-3342.9665L13400.8194,-3342.939L13400.9506,-3342.9134L13400.9903,-3342.9134L13401.3306,-3342.82L13401.6998,-3342.7132"/>
<path content="AP030,1,28,1,0,14,1,8,JPN" xlink:title="AP030" d="M13401.6998,-3342.7132L13401.8799,-3342.68L13401.9699,-3342.68L13402.4902,-3343.0199L13402.5406,-3343.0401L13402.6306,-3343.2865L13402.7695,-3343.6134L13402.9297,-3343.8133L13403.3096,-3344.1933L13404.0405,-3344.7132L13404.2007,-3344.7334L13404.1504,-3345.0932L13404.3594,-3345.1267L13404.4907,-3345.2L13404.5807,-3345.2866L13404.6494,-3345.3999L13404.5807,-3345.4865L13404.5395,-3345.5067L13404.4693,-3345.5399L13404.4296,-3345.6135L13404.3304,-3345.8668L13404.3106,-3345.94L13404.3304,-3346.0999L13404.4006,-3346.2067L13404.4495,-3346.3001L13404.6295,-3346.3867L13404.7699,-3346.4268L13404.8996,-3346.4268L13405.04,-3346.3734L13405.1102,-3346.3333L13405.2704,-3346.2067L13405.4001,-3346.0667L13405.4901,-3345.9732L13405.5405,-3345.9732L13405.6305,-3345.9934L13405.8594,-3346.1201L13405.9692,-3346.2601L13405.9906,-3346.32L13405.9692,-3346.3867L13405.8304,-3346.46L13405.7693,-3346.4802L13405.5405,-3346.6599L13405.5206,-3346.7133L13405.5206,-3346.9131L13405.6107,-3347.0001L13405.8807,-3347.0001L13406.0593,-3347.0734L13406.1798,-3347.0932L13406.3095,-3347.0531L13406.4896,-3346.8933L13406.5796,-3346.7667L13406.6101,-3346.5866L13406.6299,-3346.5L13406.7001,-3346.4066L13406.81,-3346.3333L13406.8802,-3346.1735L13406.9504,-3346.08L13407.0404,-3346.0464L13407.1304,-3346.0266L13407.2403,-3346.0464L13407.2403,-3346.08L13407.2006,-3346.1533L13407.1304,-3346.2799L13407.1106,-3346.5134L13407.2006,-3346.64L13407.1793,-3346.8933L13407.2906,-3347.0001L13407.3105,-3347.0531L13407.3593,-3347.1466L13407.4005,-3347.2332L13407.5394,-3347.3465L13407.5394,-3347.3598L13407.4005,-3347.4667L13407.3303,-3347.58L13407.3105,-3347.6868L13407.4493,-3347.7932L13407.6096,-3347.9L13407.6797,-3347.9198L13407.7194,-3347.9401L13407.7698,-3347.9935L13407.5806,-3348.0465L13407.4493,-3348.0999L13407.3807,-3348.1731L13407.3593,-3348.3334L13407.3807,-3348.4264L13407.5195,-3348.4798L13407.6492,-3348.5535L13407.8293,-3348.7133L13408.1497,-3348.84L13408.4305,-3348.9265L13408.58,-3349.02L13408.9005,-3349.2733L13408.9706,-3349.3801L13409.0805,-3349.58L13409.2697,-3349.7066L13409.4498,-3349.7734L13409.8801,-3349.7734L13409.9304,-3349.7734L13409.9701,-3349.9001L13410.1105,-3350.0999L13410.2402,-3350.2266L13410.4904,-3350.3334L13410.9497,-3350.28L13411.29,-3350.28L13411.4304,-3350.3532L13411.7004,-3350.4601L13411.7706,-3350.4601L13411.7706,-3350.5135L13411.4304,-3350.5333L13411.3297,-3350.5665L13411.2701,-3350.6065L13411.2396,-3350.7668L13411.29,-3350.8934L13411.3602,-3350.9464L13411.3297,-3351.0399L13411.3998,-3351.1665L13411.3602,-3351.2199L13411.4304,-3351.2531L13411.4502,-3351.2333L13411.5601,-3351.2867L13411.6806,-3351.2333L13411.7401,-3351.2199L13411.8607,-3351.2531L13411.9904,-3351.2733L13412.0804,-3351.2199L13412.1094,-3351.1467L13412.1094,-3351.0933L13412.3795,-3351.0735L13412.4298,-3351.1066L13412.5198,-3351.2199L13412.5793,-3351.3065L13412.8098,-3351.3268L13412.8098,-3351.58L13412.9303,-3351.58L13413.0203,-3351.4866L13413.3606,-3351.3599L13413.5406,-3351.3065L13413.6993,-3351.3065L13413.8596,-3351.3599L13414.0198,-3351.4133L13414.18,-3351.4668L13414.2395,-3351.4866"/>
<path content="AP030,1,28,1,0,14,1,8,JPN" xlink:title="AP030" d="M13426.7899,-3350.0999L13426.6998,-3349.9931L13426.6098,-3349.9199L13426.6098,-3349.58L13426.5198,-3349.4865L13426.3992,-3349.4534L13426.3306,-3349.4331L13425.9705,-3349.0398L13425.8301,-3348.8602L13425.7904,-3348.6935L13425.6302,-3348.6801L13425.4898,-3348.5535L13425.4501,-3348.5001L13425.4303,-3348.4066L13425.2899,-3348.2067L13425.1099,-3347.9198L13424.9298,-3347.5933L13424.8093,-3347.3801L13424.6994,-3347.3064L13424.4904,-3347.1466L13424.3805,-3347.02L13424.3607,-3346.9467L13424.2905,-3346.8399L13424.2706,-3346.7865L13424.1501,-3346.6599L13424.0402,-3346.4802L13423.97,-3346.3001L13423.9304,-3346.1735L13423.8998,-3346.0133L13423.88,-3345.8866L13423.8297,-3345.7401L13423.8297,-3345.6135L13423.8602,-3345.3068L13423.8998,-3345.1065L13423.88,-3344.9265L13423.6801,-3344.7132L13423.5596,-3344.6201L13423.3307,-3344.3535L13423.2697,-3344.1933L13423.2697,-3344.0132L13423.2697,-3343.8332L13423.2697,-3343.7935L13423.1796,-3343.6535L13422.8806,-3343.2865L13422.5204,-3342.7868L13422.3099,-3342.4999L13422.1802,-3342.3733L13422.1497,-3342.1932L13421.9894,-3341.9399L13421.7697,-3341.6332L13421.6995,-3341.4001L13421.6507,-3341.3067L13421.3593,-3340.8932L13421.2692,-3340.6601L13421.08,-3340.6067L13420.9,-3340.4266L13420.7901,-3340.1932L13420.6802,-3339.9933L13420.61,-3339.9399L13420.4697,-3339.7934L13420.4697,-3339.74L13420.4895,-3339.5065L13420.4498,-3339.3066L13420.43,-3339.1998L13420.4895,-3339.1464L13420.6299,-3339.1464L13420.7703,-3339.1266L13420.7901,-3339.1266L13420.9702,-3339.0202L13421.1105,-3338.8931L13421.1807,-3338.8401L13421.1304,-3338.5864L13421.08,-3338.3533L13421.0403,-3338.1931L13420.99,-3338.0466L13420.9702,-3337.9398L13420.9305,-3337.7602L13420.8603,-3337.6133L13420.7397,-3337.4332L13420.61,-3337.2532L13420.43,-3337.0731L13420.2896,-3336.9465L13420.2698,-3336.7134L13420.2698,-3336.2267L13420.2393,-3336.1198L13420.0806,-3335.9734L13419.9493,-3335.6865L13419.9295,-3335.4866L13419.9493,-3335.4L13420.0195,-3335.36L13420.0394,-3335.3268L13420.0195,-3335.2734L13419.8807,-3335.1799L13419.8105,-3335.0735L13419.7403,-3334.8598L13419.7006,-3334.6802L13419.6503,-3334.5001L13419.6304,-3334.2999L13419.6503,-3334.0801L13419.6503,-3333.7601L13419.6304,-3333.6533L13419.5404,-3333.4866L13419.6304,-3333.2333L13419.6304,-3333.1066L13419.6304,-3332.9132L13419.4901,-3332.6065L13419.3298,-3332.1732L13419.2398,-3332.0999L13419.1803,-3332.0465L13419.1803,-3331.8466L13419.1498,-3331.6864L13419.0796,-3331.3999L13419.0598,-3331.2866L13419.0598,-3330.9464L13418.9301,-3330.7331L13418.7393,-3330.4264L13418.6295,-3330.0999L13418.6096,-3329.9931L13418.6295,-3329.76L13418.6096,-3329.6333L13418.5394,-3329.5345"/>
<path content="AP030,1,28,1,0,15,1,8,JPN" xlink:title="AP030" d="M13415.0589,-3329.1267L13415.5869,-3329.414L13416.6718,-3329.7031L13418.2495,-3329.5753L13418.5394,-3329.5345"/>
<path content="AP030,1,28,1,0,14,1,8,JPN" xlink:title="AP030" d="M13401.6998,-3342.7132L13401.77,-3342.5533L13401.9302,-3342.4801L13402.1301,-3342.4267L13402.3102,-3342.3733L13402.4506,-3342.1734L13402.5192,-3342.0666L13402.7405,-3341.6332L13403.1097,-3341.3799L13403.1799,-3341.2731L13403.2196,-3341.0934L13403.27,-3340.8287L13403.4012,-3340.6319L13403.4363,-3340.3763L13403.4866,-3340.2546L13403.54,-3340.1531L13403.6804,-3339.9734L13403.6102,-3339.74L13403.6545,-3339.6301L13403.6804,-3339.5802L13403.7003,-3339.4867L13403.83,-3339.2735L13403.8101,-3339.22L13403.6499,-3338.7135L13403.6499,-3338.6066L13403.6804,-3338.4068L13403.6804,-3338.1199L13403.4897,-3337.7934L13403.4698,-3337.6865L13403.5599,-3337.6133L13403.7399,-3337.4535L13403.7903,-3337.2002L13403.8605,-3337.1666L13403.9307,-3337.2002L13404.1107,-3337.3066L13404.6494,-3337.2002L13404.8798,-3337.1666L13405.0598,-3337.0731L13405.6107,-3336.8599L13405.6305,-3336.8599L13405.7907,-3336.7664L13406.0394,-3336.5131L13406.1996,-3336.2267L13406.3293,-3336.1534L13406.5399,-3335.9932L13406.6498,-3335.8467L13406.8298,-3335.5801L13407.0602,-3335.1799L13407.4005,-3334.7866L13407.4493,-3334.66L13407.5806,-3334.4067L13407.8094,-3334.0668L13407.9895,-3333.9733L13408.2199,-3333.8467L13408.6105,-3333.6533L13408.8303,-3333.5064L13408.9706,-3333.4332L13409.1507,-3333.4332L13409.3796,-3333.3065L13409.5398,-3333.2199L13410.08,-3332.9464L13410.2005,-3332.8197L13410.5804,-3332.513L13410.6995,-3332.1732L13410.8597,-3331.3465L13410.9695,-3331.1798L13410.9894,-3331.0532L13411.0596,-3330.7331L13411.0596,-3330.2265L13410.8307,-3329.9198L13410.8307,-3329.8134L13410.9894,-3329.6333L13411.1298,-3329.5399L13411.3998,-3329.5265L13411.5601,-3329.5933L13411.7004,-3329.6864L13411.7905,-3329.8466L13411.9904,-3329.9931L13412.4298,-3330.0266L13412.6495,-3330.08L13412.6999,-3330.08L13413.5803,-3329.8134L13414.0198,-3329.6333L13414.4501,-3329.3064L13414.65,-3329.0733L13414.8804,-3329.1664L13415.0589,-3329.1267"/>
<path content="AP030,1,28,1,0,15,1,8,JPN" xlink:title="AP030" d="M13415.0589,-3329.1267L13415.6937,-3328.9509L13416.5039,-3328.9318L13416.6916,-3328.7834L13417.334,-3328.6385L13417.6086,-3328.3672L13417.6361,-3328.0083L13417.4042,-3327.5925L13417.5659,-3327.1351L13417.6239,-3326.3855L13417.6193,-3325.7915L13417.2394,-3325.0401"/>
<path content="AP030,1,28,1,0,14,1,8,JPN" xlink:title="AP030" d="M13415.0589,-3329.1267L13415.0803,-3328.7666L13415.1093,-3328.553L13415.4007,-3328.3531L13415.5197,-3327.8999L13415.6494,-3327.7599L13415.6998,-3327.6665L13416.0599,-3327.1465L13416.1499,-3327.0199L13416.8106,-3325.9399L13416.9006,-3325.7931L13417.2394,-3325.0401"/>
<path content="AP030,1,28,1,0,14,1,8,JPN" xlink:title="AP030" d="M13418.5394,-3329.5345L13418.5196,-3329.5067L13418.5196,-3329.38L13418.5196,-3329.2534L13418.5196,-3328.9997L13418.4296,-3328.8399L13418.4494,-3328.7331L13418.5196,-3328.5332L13418.5196,-3328.3733L13418.4296,-3328.0266L13418.3304,-3327.6333L13418.3304,-3327.4132L13418.2907,-3327.2533L13418.2693,-3327.0531L13418.3304,-3326.8398L13418.3105,-3326.5331L13418.2907,-3326.3733L13418.2404,-3326.26L13418.1793,-3326.1532L13418.1305,-3325.9533L13418.0405,-3325.7931L13418.0405,-3325.5066L13418.0206,-3325.2533L13417.9703,-3325.0931L13417.8604,-3324.9664L13417.8101,-3324.8932L13417.8101,-3324.7997L13417.7002,-3324.6063L13417.63,-3324.5667L13417.4301,-3324.5667L13417.3599,-3324.6933L13417.2394,-3325.0401"/>
<path content="AP030,1,28,1,1,14,1,8,JPN" xlink:title="AP030" d="M13370.887,-3355.555L13371.3663,-3355.5841L13372.6271,-3355.2246L13373.6746,-3355.1004L13374.8632,-3354.8516L13375.9828,-3354.1328L13376.3283,-3353.5247L13376.6877,-3352.9027L13377.4755,-3352.3222L13378.1943,-3352.0872L13378.8439,-3352.0734L13378.8441,-3351.9675"/>
<path content="AP030,1,28,1,0,14,1,8,JPN" xlink:title="AP030" d="M13370.887,-3355.555L13371.2906,-3355.2334L13371.4706,-3355.22L13371.6095,-3355.0732L13371.6995,-3354.9133L13371.9498,-3354.6799"/>
<path content="AP030,1,28,1,0,14,1,8,JPN" xlink:title="AP030" d="M13375.2396,-3353.5934L13375.3799,-3353.54L13375.4303,-3353.5267L13375.6088,-3353.3806L13375.65,-3353.3466L13375.7706,-3353.1666L13375.7904,-3353.0197L13375.9293,-3352.7466L13375.9506,-3352.7134L13376.0193,-3352.5131L13376.3306,-3352.3197L13376.6495,-3352.0466L13376.8295,-3351.8867L13377.1103,-3351.7399L13377.1805,-3351.7399L13377.4506,-3351.7735L13377.9495,-3351.8867L13378.096,-3351.9497L13378.1494,-3351.9733L13378.2898,-3351.9932L13378.8441,-3351.9675"/>
</g>
</svg>
