<?xml version="1.0" encoding="UTF-8"?>
<svg  xmlns="http://www.w3.org/2000/svg" xmlns:xlink="http://www.w3.org/1999/xlink" xmlns:go="http://purl.org/svgmap/profile" property="f_code,acc,exs,rst,med,rtt,RSU,loc,soc" viewBox="14343.75 -4359.375 140.625 140.625" go:dataArea="14343.75 -4359.375 140.625 140.625" >
<metadata>
 <rdf:RDF xmlns:rdf="http://www.w3.org/1999/02/22-rdf-syntax-ns#" xmlns:crs="http://opengis.org/xmldtds/transformations.dtd" xmlns:svg="http://www.w3.org/svg" >
  <rdf:Description>
   <crs:CoordinateReferenceSystem rdf:resource="http://purl.org/crs/84" svg:transform="matrix(100.0,0.0,0.0,-100.0,0.0,0.0)" />
  </rdf:Description>
 </rdf:RDF>
</metadata>
<globalCoordinateSystem srsName="http://purl.org/crs/84" transform="matrix(100.0,0.0,0.0,-100.0,0.0,0.0)" />
<defs>
 <g id="p0" >
  <circle cx="0.0" cy="0.0" r="3" stroke="green" stroke-width="2.0" vector-effect="non-scaling-stroke" />
 </g>
</defs>
<g fill="none" fill-rule="evenodd" stroke="#00ff00" stroke-width="2" opacity="0.5" vector-effect="non-scaling-stroke" stroke-linejoin="bevel" >
<path content="AP030,1,28,1,0,14,1,8,JPN" xlink:title="AP030" d="M14426.6129,-4359.375L14426.7395,-4359.2335L14426.9501,-4359L14427.0599,-4358.7997"/>
<path content="AP030,1,28,1,0,15,1,8,JPN" xlink:title="AP030" d="M14368.0405,-4358.5335L14368.1015,-4358.7391L14368.2905,-4359.375"/>
<path content="AP030,1,28,1,0,14,1,8,JPN" xlink:title="AP030" d="M14367.4912,-4359.375L14367.54,-4359.2197L14367.63,-4359.0401L14367.72,-4358.9466L14367.8299,-4358.7997L14367.9306,-4358.7334L14367.9901,-4358.6399L14368.0405,-4358.5335"/>
<path content="AP030,1,28,1,0,15,1,8,JPN" xlink:title="AP030" d="M14386.0001,-4358.4614L14386.5387,-4358.8043L14387.1704,-4358.9184L14387.6755,-4359.2384L14388.4644,-4359.3292L14389.0015,-4359.3285L14389.1579,-4359.375"/>
<path content="AP030,1,28,1,0,15,1,8,JPN" xlink:title="AP030" d="M14386.2075,-4359.375L14386.0001,-4358.4614"/>
<path content="AP030,1,28,1,0,15,1,8,JPN" xlink:title="AP030" d="M14415.9092,-4359.375L14417.2806,-4357.7847L14418.0984,-4356.5289L14419.4183,-4356.3847L14419.6121,-4357.2372L14419.9829,-4357.2803L14420.1157,-4357.0084L14420.7535,-4356.5083L14421.2677,-4356.4938L14422.3068,-4356.625L14423.5062,-4356.9668L14423.6053,-4357.4463L14423.4787,-4357.8255L14423.2681,-4358.046L14423.5748,-4358.2516L14424.0753,-4357.9693L14424.3561,-4357.6931L14424.7986,-4357.6805L14425.1755,-4357.8308L14425.0443,-4358.1562L14425.8636,-4358.2939L14427.0599,-4358.7997"/>
<path content="AP030,1,28,1,0,15,1,8,JPN" xlink:title="AP030" d="M14434.9304,-4355.5798L14435.4908,-4357.1381L14435.4908,-4358.0254L14435.4154,-4359.375"/>
<path content="AP030,1,28,1,0,14,1,8,JPN" xlink:title="AP030" d="M14427.0599,-4358.7997L14427.2003,-4358.6067L14427.3804,-4358.44L14427.6093,-4358.3L14428.0396,-4358.0799L14428.7704,-4357.7198L14430.2704,-4357.04L14430.3101,-4357.0198L14430.7907,-4356.7867L14430.9494,-4356.6933L14431.0593,-4356.5666L14431.1493,-4356.44L14431.2698,-4356.3732L14431.81,-4356.1199L14431.9,-4356.0799L14432.8796,-4355.5935L14433.1299,-4355.4867L14433.2397,-4355.4665L14433.2901,-4355.4665L14433.9005,-4355.5065L14434.6802,-4355.5599L14434.9304,-4355.5798"/>
<path content="AP030,1,28,1,0,15,1,8,JPN" xlink:title="AP030" d="M14471.9986,-4354.3175L14476.2543,-4357.4287L14477.0004,-4357.2777L14477.832,-4357.5878L14478.8025,-4358.2314L14482.0589,-4359.375M14483.0535,-4359.375L14484.375,-4359.1047"/>
<path content="AP030,1,28,1,0,15,1,8,JPN" xlink:title="AP030" d="M14462.5941,-4359.375L14463.5605,-4358.7688L14465.3061,-4356.8977L14467.7811,-4355.5939L14468.3029,-4355.5771L14469.7922,-4356.2046L14471.9986,-4354.3175"/>
<path content="AP030,1,28,1,0,15,1,8,JPN" xlink:title="AP030" d="M14343.75,-4356.8699L14345.1584,-4357.5275L14346.2006,-4357.505L14347.6593,-4357.4734L14349.5941,-4358.8718L14349.7544,-4359.375"/>
<path content="AP030,1,28,1,0,14,1,8,JPN" xlink:title="AP030" d="M14442.8604,-4351.7735L14442.9306,-4351.8997L14442.9901,-4351.9531L14443.1503,-4351.9932L14443.2907,-4352.0267L14443.3105,-4352.0664L14443.2907,-4352.28L14443.2693,-4352.5532L14443.2404,-4352.7866L14443.2205,-4352.8732L14443.2007,-4353.0399L14443.0801,-4353.6865L14443.0405,-4353.8467L14442.7704,-4354.3533L14442.7399,-4354.48L14442.7399,-4354.5132L14443.3594,-4355.6133L14443.4906,-4355.8468L14443.7897,-4356.4068L14444.0598,-4356.9466L14444.3298,-4357.4532L14444.6304,-4357.9735L14444.9493,-4358.5335L14445.0195,-4358.6597L14445.0394,-4358.86L14445.0607,-4359.1465L14445.0901,-4359.375"/>
<path content="AP030,1,28,1,0,14,1,8,JPN" xlink:title="AP030" d="M14434.9304,-4355.5798L14435.4507,-4355.6332L14435.5606,-4355.6133L14435.6796,-4355.5599L14435.7193,-4355.5401L14436.0794,-4355.3799L14436.4304,-4355.2334L14436.6302,-4355.1468L14436.8301,-4354.9866L14437.1094,-4354.8401L14437.5397,-4354.7333L14437.8601,-4354.6932L14437.9501,-4354.6932L14438.3804,-4354.6398L14438.7695,-4354.5666L14438.9893,-4354.5132L14439.18,-4354.4266L14439.3997,-4354.2065L14439.4897,-4354.1332L14439.7202,-4353.92L14440.1505,-4353.54L14440.3305,-4353.3264L14440.4907,-4353.1467L14440.6998,-4352.9133L14441.0599,-4352.4799L14441.1499,-4352.3533L14441.33,-4352.0798L14441.4505,-4352.0267L14441.4703,-4352.0134L14441.6306,-4351.9733L14441.9693,-4351.9199L14442.3996,-4351.8867L14442.63,-4351.8467L14442.8604,-4351.7735"/>
<path content="AP030,1,28,1,0,14,1,8,JPN" xlink:title="AP030" d="M14442.8604,-4351.7735L14443.0405,-4351.72L14443.2205,-4351.6666L14443.2907,-4351.6533L14443.6188,-4351.5568L14444.22,-4351.3798L14444.4,-4351.3268L14444.4702,-4351.2531L14445.4895,-4350.1202L14445.52,-4350.0668L14445.5399,-4349.9931L14445.52,-4349.8135"/>
<path content="AP030,1,28,1,0,15,1,8,JPN" xlink:title="AP030" d="M14449.3561,-4359.375L14449.3561,-4359.1049L14449.6689,-4358.9275L14450.296,-4359.0458L14450.6104,-4359.164L14451.0025,-4359.164L14451.0803,-4358.9863L14450.7675,-4358.5133L14450.6104,-4357.9216L14450.6104,-4357.5073L14450.5325,-4357.093L14450.4547,-4356.5018L14451.1597,-4354.8447L14450.9247,-4354.1348L14448.8083,-4352.5379L14447.3984,-4351.5915L14446.4569,-4350.7633L14445.5399,-4349.5399"/>
<path content="AP030,1,28,1,0,14,1,8,JPN" xlink:title="AP030" d="M14445.52,-4349.8135L14445.52,-4349.7601L14445.5399,-4349.5399"/>
<path content="AP030,1,28,1,0,15,1,8,JPN" xlink:title="AP030" d="M14481.7886,-4349.5396L14484.375,-4350.1818"/>
<path content="AP030,1,28,1,0,15,1,8,JPN" xlink:title="AP030" d="M14481.7886,-4349.5396L14478.9108,-4351.6415L14481.2775,-4353.2936L14482.2632,-4354.1897L14484.1797,-4355.1384L14484.375,-4355.2654"/>
<path content="AP030,1,28,1,0,15,1,8,JPN" xlink:title="AP030" d="M14479.0192,-4348.481L14479.541,-4348.9819L14481.7886,-4349.5396"/>
<path content="AP030,1,28,1,0,15,1,8,JPN" xlink:title="AP030" d="M14471.9986,-4354.3175L14472.9416,-4353.6114L14479.0192,-4348.481"/>
<path content="AP030,1,28,1,0,14,1,8,JPN" xlink:title="AP030" d="M14445.5399,-4349.5399L14445.6802,-4349.3999L14445.8298,-4349.2867L14446.1502,-4349.2001L14446.5393,-4349.1467"/>
<path content="AP030,1,28,1,0,15,1,8,JPN" xlink:title="AP030" d="M14461.47,-4347.4335L14462.4786,-4348.502L14471.9986,-4354.3175"/>
<path content="AP030,1,28,1,0,14,1,8,JPN" xlink:title="AP030" d="M14448.1293,-4347.8333L14448.2407,-4347.7734L14448.3994,-4347.76L14448.5794,-4347.7734L14448.6801,-4347.7932L14448.97,-4348.0667L14449.1104,-4348.1201L14449.8306,-4348.3532L14449.9893,-4348.3868L14450.3601,-4348.3734L14450.6104,-4348.3532L14450.65,-4348.3532L14450.8301,-4348.3334L14450.9705,-4348.3002L14451.2695,-4348.1533L14451.4297,-4348.0801L14451.4893,-4348.0801L14451.5793,-4348.0999L14451.86,-4348.28L14452.2903,-4348.6401L14452.4307,-4348.6801L14452.8305,-4348.6198L14453.45,-4348.5332L14453.6301,-4348.5001L14453.6804,-4348.4798L14453.9307,-4348.3734L14454.1794,-4348.28L14454.3304,-4348.2468L14454.4907,-4348.2468L14454.7897,-4348.3334L14455.0598,-4348.3734L14455.3299,-4348.32L14455.7205,-4348.1934L14456.0806,-4347.9935L14456.4301,-4347.7932L14456.5399,-4347.76L14456.7902,-4347.76L14457.7393,-4347.9L14457.8995,-4347.9401L14458.1497,-4347.9935L14458.2703,-4347.9935L14458.6304,-4347.9198L14459.2407,-4347.7734L14459.7702,-4347.6532L14459.9701,-4347.5933L14460.0204,-4347.58L14460.3607,-4347.4667L14460.5392,-4347.4335L14461.47,-4347.4335"/>
<path content="AP030,1,28,1,0,15,1,8,JPN" xlink:title="AP030" d="M14374.0799,-4347.1466L14375.0778,-4347.9103L14375.6485,-4348.6427L14376.2177,-4349.1692L14376.7563,-4349.8791L14377.0737,-4350.2682L14378.0533,-4350.5421L14378.8437,-4351.1826L14379.2877,-4351.8925L14380.2048,-4352.4185L14380.7419,-4352.5555L14381.5964,-4353.4023L14382.0084,-4353.883L14382.6416,-4354.2488L14383.2718,-4354.3629L14383.7784,-4354.5685L14383.905,-4354.9576L14384.317,-4355.4157L14384.8236,-4355.7816L14385.4874,-4356.2847L14385.9634,-4356.7429L14386.0275,-4357.0404L14385.965,-4357.3845L14385.936,-4357.8655L14386.0001,-4358.4614"/>
<path content="AP030,1,28,1,0,14,1,8,JPN" xlink:title="AP030" d="M14368.0405,-4358.5335L14368.0603,-4358.3332L14368.0801,-4358.2268L14368.1107,-4358.0997L14368.1503,-4357.9735L14368.2205,-4357.8865L14368.3105,-4357.7934L14368.3594,-4357.7599L14368.4494,-4357.6668L14368.4692,-4357.5932L14368.4692,-4357.56L14368.4494,-4357.5066L14368.4296,-4357.4333L14368.4296,-4357.4135L14368.4006,-4357.2334L14368.4296,-4357.1465L14368.4692,-4357.0732L14368.4906,-4357.0198L14368.5196,-4356.9668L14368.5196,-4356.9134L14368.5394,-4356.8733L14368.5593,-4356.86L14368.6493,-4356.7867L14368.7393,-4356.7333L14368.8293,-4356.6799L14368.8797,-4356.6067L14368.8995,-4356.5334L14368.9896,-4356.44L14369.0796,-4356.4068L14369.22,-4356.3866L14369.3802,-4356.3866L14369.6304,-4356.3732L14369.6503,-4356.3732L14369.7906,-4356.3534L14369.8303,-4356.3332L14370.1294,-4356.2466L14370.5795,-4356.1001L14370.8099,-4355.9933L14370.8801,-4355.9532L14371.08,-4355.8132L14371.2006,-4355.7732L14371.2708,-4355.8132L14371.3226,-4355.8548L14371.3806,-4355.8998L14371.5195,-4355.9532L14371.5607,-4355.9532L14371.6797,-4355.8998L14371.8597,-4355.7934L14371.9498,-4355.74L14371.9894,-4355.6866L14371.9894,-4355.5401L14371.9894,-4355.4531L14372.02,-4355.2532L14372.11,-4355.1666L14372.2702,-4355.0198L14372.4503,-4354.8733L14372.58,-4354.7134L14372.6807,-4354.5532L14372.7005,-4354.3732L14372.7005,-4354.1931L14372.6807,-4354.0264L14372.7005,-4353.6667L14372.7402,-4353.3264L14372.7402,-4353.3066L14372.8104,-4353.1067L14372.8302,-4353.0197L14372.8302,-4352.9667L14372.7203,-4352.8599L14372.4503,-4352.6932L14372.2702,-4352.5867L14372.2198,-4352.5131L14372.2,-4352.4265L14372.2198,-4352.3197L14372.2397,-4352.1935L14372.2397,-4352.1198L14372.2397,-4352.0664L14372.2,-4351.9932L14372.0596,-4351.8867L14371.965,-4351.804L14371.9299,-4351.7735L14371.8094,-4351.6533L14371.7896,-4351.5934L14371.7896,-4351.54L14371.8307,-4351.4668L14371.9299,-4351.4L14372.1298,-4351.1665L14372.4304,-4350.8198L14372.5601,-4350.6397L14372.6501,-4350.4799L14372.7005,-4350.3334L14372.7005,-4350.2464L14372.7203,-4350.0668L14372.7203,-4350.0465L14372.7402,-4349.9931L14372.8806,-4349.5266L14372.9904,-4349.2199L14373.0194,-4349.1665L14373.1094,-4348.7865L14373.1293,-4348.6198L14373.1995,-4348.5535L14373.3795,-4348.3734L14373.6099,-4348.2067L14373.8297,-4348.0267L14373.8785,-4347.9824L14373.97,-4347.9L14374.0402,-4347.8333L14374.0402,-4347.72L14374.0204,-4347.5601L14374.0204,-4347.3598L14374.0204,-4347.2733L14374.0799,-4347.1466"/>
<path content="AP030,1,28,1,0,14,1,8,JPN" xlink:title="AP030" d="M14374.0799,-4347.1466L14374.1806,-4347.0932L14374.2401,-4347.0402L14374.4293,-4346.9131L14374.5804,-4346.7999L14374.6506,-4346.7464L14374.6994,-4346.6599L14374.6796,-4346.6064L14374.6506,-4346.5668"/>
<path content="AP030,1,28,1,0,15,1,8,JPN" xlink:title="AP030" d="M14468.4006,-4346.4802L14475.0092,-4346.6198L14478.6346,-4348.1113L14479.0192,-4348.481"/>
<path content="AP030,1,28,1,0,14,1,8,JPN" xlink:title="AP030" d="M14466.9296,-4346.3867L14467.0807,-4346.5134L14467.2195,-4346.6064L14467.3096,-4346.6202L14467.5598,-4346.6064L14467.6804,-4346.6202L14467.9504,-4346.7335L14468.0405,-4346.7865L14468.4006,-4346.4802"/>
<path content="AP030,1,28,1,0,14,1,8,JPN" xlink:title="AP030" d="M14461.47,-4347.4335L14461.9293,-4347.4335L14462.2406,-4347.4335L14462.4695,-4347.4133L14463.4003,-4347.2L14464.0594,-4347.0531L14464.4897,-4346.9467L14464.74,-4346.8933L14465.2405,-4346.7865L14465.8997,-4346.6202L14466.9296,-4346.3867"/>
<path content="AP030,1,28,1,0,14,1,8,JPN" xlink:title="AP030" d="M14397.4428,-4359.375L14397.4304,-4359.3597L14397.29,-4359.2731L14397.2,-4359.1999L14397.2,-4359.0534L14397.2,-4358.9466L14397.2397,-4358.6933L14397.2702,-4358.44L14397.3099,-4358.3L14397.3999,-4358.0799L14397.4503,-4357.8335L14397.4503,-4357.4135L14397.4503,-4357.2735L14397.4701,-4357.1266L14397.5204,-4356.9466L14397.5601,-4356.8199L14397.58,-4356.5865L14397.5403,-4356.2267L14397.5204,-4355.9532L14397.4899,-4355.4867L14397.4899,-4355.2734L14397.4899,-4355.1998L14397.5204,-4354.9999L14397.5204,-4354.9866L14397.5601,-4354.8401L14397.6105,-4354.7867L14397.6807,-4354.7134L14397.7707,-4354.62L14397.8104,-4354.5666L14397.9004,-4354.4598L14397.9294,-4354.4266L14397.9904,-4354.3533L14398.0804,-4354.2599L14398.1796,-4354.1733L14398.2193,-4354.1332L14398.3597,-4354.0466L14398.5199,-4353.92L14398.5596,-4353.8998L14398.6298,-4353.8334L14398.6496,-4353.7933L14398.7198,-4353.6133L14398.7396,-4353.5065L14398.7396,-4353.4534L14398.7396,-4353.3798L14398.7396,-4353.3466L14398.7,-4353.1998L14398.5794,-4352.9133L14398.5397,-4352.7332L14398.5199,-4352.5665L14398.4894,-4352.3533L14398.4894,-4352.2064L14398.5199,-4352.0664L14398.5397,-4352.0134L14398.5794,-4351.9199L14398.6099,-4351.8467L14398.6099,-4351.7597L14398.6298,-4351.6865L14398.6496,-4351.6335L14398.7,-4351.54L14398.7198,-4351.4534L14398.7198,-4351.3798L14398.7,-4351.2733L14398.7,-4351.1997L14398.7396,-4351.1265L14398.8098,-4351.0735L14398.88,-4351.0399L14398.9899,-4350.9865L14399.1104,-4350.8934L14399.1501,-4350.84L14399.2203,-4350.7332L14399.2401,-4350.6931L14399.2706,-4350.6798L14399.3103,-4350.6199L14399.4904,-4350.5333L14399.6796,-4350.4265L14399.8093,-4350.3201L14400,-4350.2151L14400.0397,-4350.1934L14400.1495,-4350.1202L14400.2899,-4349.9535L14400.3998,-4349.8333L14400.6104,-4349.6532L14400.7706,-4349.5602L14400.9293,-4349.4534L14401.0193,-4349.3801L14401.0605,-4349.2535L14401.0803,-4348.9864L14401.0803,-4348.7999L14401.1307,-4348.7133L14401.2207,-4348.6599L14401.2405,-4348.6065L14401.2405,-4348.46L14401.2207,-4348.3868L14401.1307,-4348.1934L14401.0803,-4348.0133L14401.1093,-4347.9L14401.1795,-4347.7932L14401.3107,-4347.6532L14401.3992,-4347.5399L14401.3992,-4347.3465L14401.4496,-4347.2733L14401.5594,-4347.1466L14401.6098,-4347.0734L14401.6098,-4346.9868L14401.6098,-4346.8601L14401.6296,-4346.7667L14401.68,-4346.6934L14401.77,-4346.5866L14401.7899,-4346.5134L14401.7395,-4346.4268L14401.4893,-4346.2601L14401.3794,-4346.2067L14401.3107,-4346.1735L14401.2695,-4346.1201L14401.2405,-4346.0266L14401.2207,-4345.9732L14401.1505,-4345.9L14401.0605,-4345.8466L14400.9705,-4345.8134L14400.9293,-4345.7401L14400.9293,-4345.6867L14400.9705,-4345.6135L14401.0605,-4345.5265L14401.1093,-4345.38L14401.1795,-4345.2866L14401.2695,-4345.2332L14401.3596,-4345.1801L14401.4297,-4345.1065L14401.4694,-4345.0401L14401.5793,-4344.8734L14401.68,-4344.8601L14401.8997,-4344.8399L14402.1805,-4344.82"/>
<path content="AP030,1,28,1,0,15,1,8,JPN" xlink:title="AP030" d="M14481.7886,-4349.5396L14484.375,-4347.4598"/>
<path content="AP030,1,28,1,0,14,1,8,JPN" xlink:title="AP030" d="M14402.1805,-4344.82L14402.3102,-4344.82L14402.7695,-4344.82L14402.9297,-4344.8002L14403.3096,-4344.6602L14404.5593,-4344.2265L14405.2399,-4343.94L14405.6305,-4343.7733L14405.8594,-4343.7401L14406.1996,-4343.7065L14406.5598,-4343.6333L14406.9,-4343.5398L14407.2693,-4343.3998L14407.5806,-4343.3998L14407.8598,-4343.3998L14408.1802,-4343.4532L14408.4,-4343.4868L14408.4702,-4343.4868L14408.6304,-4343.4868L14408.7402,-4343.4532L14408.8303,-4343.3998L14408.9905,-4343.2533L14409.1293,-4343.1999L14409.2896,-4343.1801L14409.79,-4343.1801L14409.9304,-4343.1801L14410.08,-4343.2201L14410.2707,-4343.3266L14410.4004,-4343.3998L14410.5392,-4343.4334L14410.6506,-4343.4334L14410.7697,-4343.4132L14411.47,-4343.2865L14412.0193,-4343.2201L14412.3596,-4343.1999L14413.0203,-4343.1801L14413.3301,-4343.1667L14413.5406,-4343.1065L14413.6795,-4343.0401L14413.7695,-4342.9867L14414.1998,-4342.9665L14414.2899,-4342.9268L14414.36,-4342.8398L14414.36,-4342.7666L14414.3295,-4342.6201L14414.3097,-4342.5331L14414.3295,-4342.4599L14414.3997,-4342.3733L14414.6103,-4342.3"/>
<path content="AP030,1,28,1,0,14,1,8,JPN" xlink:title="AP030" d="M14414.6103,-4342.3L14414.7705,-4342.3199L14414.9902,-4342.3199L14415.1306,-4342.3199L14415.2893,-4342.26L14415.5594,-4342.12L14415.7394,-4342.0265L14415.8295,-4342.0265L14415.8997,-4342.0265L14416.2704,-4342.26L14416.3803,-4342.3L14416.5207,-4342.3L14416.7694,-4342.2798L14417.0197,-4342.3733L14417.4301,-4342.5133L14417.5797,-4342.6201L14417.7002,-4342.7334L14417.7002,-4342.8932L14417.6498,-4343.0935L14417.7002,-4343.1801L14417.8299,-4343.2201L14418.2205,-4343.3266L14418.3594,-4343.3601L14418.4692,-4343.4532L14418.5196,-4343.5398L14418.5593,-4343.6535L14418.6295,-4343.6867L14418.6996,-4343.7199L14418.8797,-4343.7401L14419.1101,-4343.7935L14419.1498,-4343.8133L14419.2001,-4343.8866L14419.1803,-4343.94L14419.0796,-4343.9533L14418.8599,-4343.94L14418.7393,-4343.9533L14418.6295,-4344.0132L14418.6096,-4344.12L14418.5806,-4344.3001L14418.6096,-4344.4401L14418.6798,-4344.5133L14418.7897,-4344.5332L14418.8797,-4344.5133L14419.0399,-4344.4065L14419.1803,-4344.3333L14419.31,-4344.3199L14419.4305,-4344.3199L14419.5404,-4344.3535L14419.6106,-4344.4065L14419.7205,-4344.6068L14419.8807,-4344.8399L14420.0195,-4344.9135L14420.2194,-4344.9265L14420.3598,-4344.9135L14420.9702,-4344.6068L14421.1807,-4344.5667L14421.3593,-4344.5866L14421.7407,-4344.7132L14422.1298,-4344.8734L14422.3099,-4344.9265L14422.3602,-4344.9467L14422.3801,-4345.0199L14422.3999,-4345.0733L14422.4701,-4345.1065L14422.5601,-4345.1065L14422.6501,-4345.0932L14422.7005,-4345.1065L14422.7203,-4345.1466L14422.7203,-4345.2202L14422.6303,-4345.3602L14422.5601,-4345.3999L14422.3801,-4345.4132L14422.2702,-4345.4334L14422.1298,-4345.5601L14422.1298,-4345.6532L14422.1497,-4345.7199L14422.3099,-4345.8332L14422.4701,-4345.94L14422.58,-4345.9934L14422.6807,-4346.0667L14422.7203,-4346.08L14422.8607,-4346.08L14422.9507,-4346.08L14423.0392,-4346.1334L14423.1293,-4346.2265L14423.2193,-4346.2601L14423.3597,-4346.2799L14423.4695,-4346.2799L14423.5794,-4346.3001L14423.6496,-4346.32L14423.7198,-4346.3001L14423.7396,-4346.2467L14423.7396,-4346.1735L14423.79,-4346.1201L14423.8602,-4346.1201L14423.9304,-4346.1334L14424.0402,-4346.1735L14424.1104,-4346.1933L14424.1806,-4346.1933L14424.2706,-4346.1334L14424.3805,-4346.0999L14424.4904,-4346.08L14424.6506,-4346.08L14424.7192,-4346.0464L14424.7192,-4346.0133L14424.6796,-4345.9732L14424.4507,-4345.94L14424.3103,-4345.8668L14424.2401,-4345.8134L14424.2905,-4345.76L14424.3301,-4345.7401L14424.4003,-4345.7066L14424.5407,-4345.7066L14424.6994,-4345.7066L14424.8306,-4345.76L14424.9695,-4345.8134L14425.0793,-4345.9534L14425.2701,-4346.08L14425.3296,-4346.1334L14425.4501,-4346.1735L14425.6104,-4346.2067L14425.8102,-4346.3001L14425.9003,-4346.3333L14425.9903,-4346.3333L14426.0803,-4346.2799L14426.1505,-4346.2467L14426.2405,-4346.2467L14426.3794,-4346.2799L14426.4893,-4346.3001L14426.6098,-4346.2799L14426.68,-4346.2265L14426.7197,-4346.1933L14426.7899,-4346.1933L14426.8295,-4346.1933L14426.9302,-4346.2799L14427.0203,-4346.3001L14427.1805,-4346.2799L14427.24,-4346.3001L14427.2903,-4346.3531L14427.3605,-4346.3867L14427.4902,-4346.3867L14427.6306,-4346.3734L14427.7695,-4346.3734L14427.8595,-4346.3734L14427.9694,-4346.3531L14428.1097,-4346.3531L14428.2196,-4346.3333L14428.5797,-4346.3867L14428.7903,-4346.4066L14428.8803,-4346.4268L14428.9703,-4346.5L14429.1504,-4346.6934L14429.3106,-4346.8933L14429.6097,-4347.1466L14429.8798,-4347.3598L14430.0598,-4347.4533L14430.2704,-4347.4865L14431.1798,-4347.5067L14431.81,-4347.5067L14432.1106,-4347.5266L14432.3807,-4347.4533L14432.8995,-4347.3999L14433.0399,-4347.3999L14433.2199,-4347.3999L14433.7204,-4347.4533L14433.9005,-4347.4335L14434.0607,-4347.3999L14434.1293,-4347.3801L14434.3796,-4347.2733L14434.7397,-4347.1268L14434.8602,-4347.1066L14434.9503,-4347.1066L14435.1807,-4347.1066L14436.47,-4347.1466L14437.3993,-4347.1802L14438.1302,-4347.2198L14438.7695,-4347.2332L14439.0198,-4347.2332L14439.1998,-4347.2733L14439.3295,-4347.3267L14439.4302,-4347.4133L14439.4897,-4347.4667L14439.5401,-4347.5399L14439.6301,-4347.5601L14440.0604,-4347.5399L14440.1993,-4347.5399L14441.1301,-4347.5399L14441.5405,-4347.5933L14441.6504,-4347.6131L14442.0197,-4347.6868L14442.6498,-4347.8333L14442.72,-4347.8466L14442.7704,-4348.3334L14442.8101,-4349.0734L14443.2404,-4349.2535L14443.3594,-4349.3065L14444.5908,-4349.7952L14444.7693,-4349.8665L14445.52,-4349.8135"/>
<path content="AP030,1,28,1,0,14,1,8,JPN" xlink:title="AP030" d="M14468.4006,-4346.4802L14469.2703,-4345.7932L14469.2902,-4345.6867L14469.2902,-4345.4666L14469.3298,-4345.4132L14469.9905,-4344.8734L14470.8801,-4344.1734L14471.0205,-4344.0666L14471.6293,-4343.5932L14471.8796,-4343.3998L14472.3099,-4343.0401L14472.7905,-4342.6601L14473.1796,-4342.3733L14473.7701,-4341.8865L14474.1302,-4341.6134L14474.2706,-4341.5401L14474.5605,-4341.4665L14475.0793,-4341.4001L14475.6805,-4341.3067L14476.3306,-4341.3067L14476.3794,-4341.3067"/>
<path content="AP030,1,28,1,0,15,1,8,JPN" xlink:title="AP030" d="M14464.5462,-4341.0255L14464.3814,-4341.8961L14464.5462,-4342.6422L14464.5462,-4343.6375L14465.535,-4344.7563L14466.9296,-4346.3867"/>
<path content="AP030,1,28,1,0,14,1,8,JPN" xlink:title="AP030" d="M14476.3794,-4341.3067L14476.5396,-4341.3265L14476.68,-4341.3265L14476.7197,-4341.3265L14476.9302,-4341.2533L14478.0594,-4340.6799L14479.0405,-4340.2065L14479.6097,-4339.92L14479.9698,-4339.7598L14480.3101,-4339.5599L14480.4306,-4339.5065L14480.6793,-4339.2532L14480.7907,-4339.1666L14480.8105,-4339.1666L14480.9692,-4339.1068L14481.5598,-4339.0732L14481.8298,-4339.04L14482.0602,-4338.9668L14482.8293,-4338.6398L14483.5205,-4338.3732L14483.58,-4338.3331L14483.8593,-4338.2267L14484.375,-4338.004"/>
<path content="AP030,1,28,1,0,15,1,8,JPN" xlink:title="AP030" d="M14374.6506,-4346.5668L14377.5925,-4346.4314L14381.4407,-4345.2644L14382.7545,-4345.0176L14383.3191,-4344.521L14383.4396,-4343.9281L14383.4061,-4343.232L14382.2952,-4341.4898L14380.6366,-4340.6193L14380.0827,-4339.7747L14379.9759,-4339.0266L14379.9438,-4338.3305L14379.8981,-4337.3661L14379.8126,-4337.1002L14378.5797,-4335.6335"/>
<path content="AP030,1,28,1,0,14,1,8,JPN" xlink:title="AP030" d="M14378.5797,-4335.6335L14378.7399,-4335.6335L14378.8605,-4335.5934L14379.0604,-4335.5064L14379.3106,-4335.4134L14379.5197,-4335.36L14379.7195,-4335.36L14379.8294,-4335.3802L14379.95,-4335.4332L14380.04,-4335.4668L14380.22,-4335.54L14380.3299,-4335.5934L14380.5405,-4335.6667L14380.8807,-4335.7601L14381.2195,-4335.8334L14381.2698,-4335.8467L14381.5399,-4335.92L14381.7001,-4335.9734L14381.8298,-4336.0268L14381.9702,-4336.0466L14382.0404,-4336.0466L14382.2205,-4336.0466L14382.4707,-4336.1L14382.5394,-4336.1332L14382.6996,-4336.1732L14382.93,-4336.1935L14383.3801,-4336.1732L14383.7708,-4336.1332L14384.3094,-4336.0802L14384.4498,-4336.0802L14384.5398,-4336.0802L14384.8099,-4336.1332L14385.0403,-4336.1935L14385.3104,-4336.3201L14385.5392,-4336.4601L14385.8307,-4336.6932L14385.9894,-4336.8L14386.0794,-4336.8401L14386.1801,-4336.8935L14386.4899,-4336.9667L14386.8103,-4337.0201L14387.0193,-4337.0731L14387.1994,-4337.1799L14387.3306,-4337.3264L14387.5397,-4337.5267L14387.6495,-4337.5935L14387.7899,-4337.6331L14387.9501,-4337.6331L14388.1302,-4337.6865L14388.3804,-4337.7934L14388.4003,-4337.8132L14388.7405,-4337.9398L14388.9496,-4337.9932L14389.2899,-4338.0665L14390.1306,-4338.2599L14390.5594,-4338.3533L14390.77,-4338.3865L14390.8997,-4338.4068L14390.9698,-4338.4068L14391.1301,-4338.3732L14391.2201,-4338.3533L14391.3101,-4338.3331L14391.4001,-4338.3331L14391.4902,-4338.3865L14391.7206,-4338.5666L14392.0197,-4338.9133L14392.2699,-4339.2864L14392.4301,-4339.5065L14392.4896,-4339.6133L14392.54,-4339.7202L14392.5797,-4339.8666L14392.6498,-4339.9532L14392.8101,-4340.0799L14393.1793,-4340.3332L14393.2907,-4340.4266L14393.4006,-4340.48L14393.6295,-4340.5334L14394.0796,-4340.6067L14394.3298,-4340.6799L14394.6304,-4340.7665L14394.7693,-4340.8001L14394.9005,-4340.8199L14395.1492,-4340.8001L14395.3293,-4340.8199L14395.4895,-4340.86L14395.7001,-4340.9134L14396.2906,-4341.0534L14396.4005,-4341.0934L14396.5195,-4341.1064L14396.6797,-4341.1667L14396.9498,-4341.3265L14397.3602,-4341.6134L14398.0194,-4342.12L14398.3795,-4342.3866L14398.5596,-4342.6067L14398.7,-4342.7334L14398.97,-4342.9867L14399.3805,-4343.2865L14399.5193,-4343.3998L14399.6796,-4343.4666L14399.8093,-4343.4868L14399.8993,-4343.5066L14399.9893,-4343.6134L14400,-4343.6195L14400.1099,-4343.6867L14400.1999,-4343.7199L14400.8102,-4343.9533L14401.0605,-4344.0266L14401.1795,-4344.0468L14401.2695,-4344.1002L14401.3596,-4344.26L14401.4694,-4344.3867L14401.8097,-4344.5866L14402.0599,-4344.7334L14402.1805,-4344.82"/>
<path content="AP030,1,28,1,0,15,1,8,JPN" xlink:title="AP030" d="M14443.1244,-4335.0609L14442.7948,-4335.807L14441.806,-4336.8645L14441.7236,-4337.6106L14440.9821,-4338.6681L14441.0629,-4339.9117L14441.5573,-4340.5334L14441.5573,-4341.0309L14442.0517,-4341.5905L14441.9693,-4342.461L14442.215,-4344.6995L14443.3685,-4346.6892L14445.0165,-4347.2485L14446.5393,-4349.1467"/>
<path content="AP030,1,28,1,0,15,1,8,JPN" xlink:title="AP030" d="M14469.5221,-4334.7538L14470.3384,-4334.8751L14470.4666,-4335.3134L14472.316,-4336.618L14473.9883,-4337.5225L14474.3027,-4337.6968L14475.7584,-4339.1613L14476.3794,-4341.3067"/>
<path content="AP030,1,28,1,0,15,1,8,JPN" xlink:title="AP030" d="M14464.5462,-4341.0255L14470.2011,-4336.7607L14470.1843,-4336.5028L14469.9585,-4336.1046L14469.3085,-4335.3878L14469.5221,-4334.7538"/>
<path content="AP030,1,28,1,0,15,1,8,JPN" xlink:title="AP030" d="M14443.1244,-4335.0609L14443.605,-4334.6191L14444.0536,-4334.4769L14444.9295,-4334.2628L14445.3568,-4334.0282L14445.7443,-4333.6922L14445.9381,-4333.5289L14446.2036,-4333.4679L14446.8445,-4333.4782L14447.5586,-4333.4473L14447.7524,-4333.3965L14448.2513,-4332.8972L14448.6298,-4332.7133"/>
<path content="AP030,1,28,1,0,15,1,8,JPN" xlink:title="AP030" d="M14442.4896,-4332.0663L14442.4667,-4333.4442L14443.0435,-4334.2525L14443.1244,-4335.0609"/>
<path content="AP030,1,28,1,0,14,1,8,JPN" xlink:title="AP030" d="M14442.4896,-4332.0663L14442.8604,-4332.0663L14443.0206,-4331.9733L14443.1107,-4331.9733L14443.1793,-4332.0133L14443.2404,-4332.1331L14443.2693,-4332.1732L14443.3304,-4332.1934L14444.0399,-4331.8867L14444.31,-4331.7932L14444.5404,-4331.76L14445.0806,-4331.76L14445.2393,-4331.7734L14445.3598,-4331.8466L14445.6497,-4332.1331L14445.7901,-4332.2063L14446.1105,-4332.2266L14446.4005,-4332.2266L14446.5195,-4332.2598L14446.6797,-4332.3532L14447.1298,-4332.5665L14447.3099,-4332.6401L14447.4701,-4332.6599L14448.0194,-4332.6065L14448.2407,-4332.6065L14448.4497,-4332.6199L14448.6298,-4332.7133"/>
<path content="AP030,1,28,1,0,14,1,8,JPN" xlink:title="AP030" d="M14474.3103,-4331.1798L14474.9298,-4331.3599L14476.1795,-4331.7066L14476.9501,-4331.9L14477.1103,-4331.9733L14477.3605,-4332.0999L14477.7893,-4332.373L14477.8595,-4332.4265L14479.0802,-4333.2333L14479.7394,-4333.6533L14480.2399,-4334.0134L14480.7007,-4334.3201L14480.9494,-4334.4601L14481.2393,-4334.66L14481.5598,-4334.9266L14481.9,-4335.1665L14482.1503,-4335.3466L14482.5195,-4335.5934L14482.8995,-4335.8467L14483.7204,-4336.3533L14484.1507,-4336.6402L14484.375,-4336.7948"/>
<path content="AP030,1,28,1,0,15,1,8,JPN" xlink:title="AP030" d="M14469.5221,-4334.7538L14469.9493,-4334.2976L14471.8994,-4333.1276L14472.6913,-4332.032L14473.4482,-4332.0076L14474.3103,-4331.1798"/>
<path content="AP030,1,28,1,0,15,1,8,JPN" xlink:title="AP030" d="M14460.3607,-4330.7667L14461.2946,-4331.2397L14462.0773,-4331.6364L14461.9949,-4332.6935L14461.9125,-4333.564L14461.7477,-4333.6884L14462.4069,-4334.3102L14462.9013,-4334.8076L14462.5717,-4335.4916L14462.323,-4336.4864L14462.2406,-4336.9221L14462.6526,-4337.3569L14462.8174,-4338.1657L14462.8174,-4339.2227L14463.3118,-4339.9067L14463.2294,-4340.4663L14464.5462,-4341.0255"/>
<path content="AP030,1,28,1,0,14,1,8,JPN" xlink:title="AP030" d="M14448.1293,-4347.8333L14448.0194,-4347.6665L14447.8806,-4347.4533L14447.8302,-4347.3465L14447.8607,-4347.2332L14447.9706,-4347.1268L14448.5199,-4346.8201L14448.79,-4346.5668L14449.1806,-4346.3531L14449.5407,-4346.1735L14449.6994,-4346.08L14450.0793,-4345.8466L14450.2899,-4345.6867L14450.3601,-4345.5799L14450.3799,-4345.4132L14450.4501,-4344.8734L14450.5203,-4344.64L14450.5798,-4344.5133L14450.7202,-4344.3535L14450.7904,-4344.3199L14451.0605,-4344.08L14451.2695,-4343.9201L14451.5396,-4343.5398L14451.6098,-4343.3468L14451.86,-4343.0534L14451.9501,-4342.9268L14452.1301,-4342.7132L14452.24,-4342.5865L14452.4307,-4342.3199L14452.5803,-4342.0265L14453.0396,-4341.3799L14453.27,-4341.0732L14453.6499,-4340.6933L14453.83,-4340.3732L14454.0802,-4339.9399L14454.0802,-4339.7934L14454.0405,-4339.7064L14454.0009,-4339.6748L14453.9001,-4339.5931L14453.83,-4339.5065L14453.8803,-4339.3265L14453.9307,-4339.22L14454.0604,-4338.9866L14454.2206,-4338.8401L14454.2404,-4338.8L14454.4296,-4338.6398L14454.4693,-4338.5532L14454.4907,-4338.4998L14454.6295,-4338.3732L14455.0797,-4338.0665L14455.3299,-4337.8864L14455.5801,-4337.6667L14455.8807,-4337.4332L14456.6803,-4336.8401L14457.2006,-4336.5002L14457.4707,-4336.2465L14457.5607,-4336.1534L14457.7896,-4335.6533L14457.9697,-4335.2867L14458.02,-4335.1265L14457.9697,-4334.9133L14458.1802,-4334.66L14458.6502,-4334.1534L14458.8806,-4333.8867L14458.9493,-4333.7601L14459.0393,-4333.6533L14459.0393,-4333.5064L14459.8602,-4332.6931L14459.8801,-4332.2598L14459.9503,-4332.1331L14460.2402,-4331.76L14460.3607,-4331.5598L14460.3607,-4330.7667"/>
<path content="AP030,1,28,1,0,14,1,8,JPN" xlink:title="AP030" d="M14448.6298,-4332.7133L14448.7701,-4332.5867L14449.0402,-4332.373L14449.5193,-4331.9733L14449.6094,-4331.9L14450.0198,-4331.7932L14450.1297,-4331.7932L14450.4303,-4331.8466L14450.8301,-4331.7734L14451.0193,-4331.76L14451.2894,-4331.6864L14451.77,-4331.4331L14452.2903,-4330.8598L14452.7405,-4331.1264L14452.8595,-4331.1798L14452.9907,-4331.1798L14453.0807,-4331.1264L14453.0807,-4330.8201L14453.2898,-4330.6065L14453.54,-4330.4264L14453.6301,-4330.3864L14454.95,-4330.4264"/>
<path content="AP030,1,28,1,0,14,1,8,JPN" xlink:title="AP030" d="M14459.9701,-4330.0465L14460.0601,-4330.2601L14460.3607,-4330.7667"/>
<path content="AP030,1,28,1,0,14,1,8,JPN" xlink:title="AP030" d="M14454.95,-4330.4264L14455.2704,-4330.4398L14455.5603,-4330.46L14455.7205,-4330.5134L14456.3797,-4330.9666L14456.8298,-4331.2L14456.9702,-4331.2332L14457.2205,-4331.2199L14457.8598,-4331.1665L14458.02,-4331.1264L14458.1802,-4331.0932L14458.5205,-4330.7331L14459.0393,-4330.1933L14459.1507,-4330.1731L14459.61,-4330.1533L14459.9701,-4330.0465"/>
<path content="AP030,1,28,1,0,14,1,8,JPN" xlink:title="AP030" d="M14442.4896,-4332.0663L14442.4896,-4331.8665L14442.4301,-4331.7734L14442.1494,-4331.3801L14441.4703,-4331.2733L14441.2003,-4331.2199L14441.0599,-4331.1798L14440.95,-4331.0932L14440.3107,-4330.2998L14440.2405,-4330.2601L14440.1093,-4330.2265L14439.9506,-4330.1933L14439.9002,-4330.1201L14439.9002,-4330.0667L14439.9506,-4329.9534L14439.74,-4329.9L14439.6301,-4329.8466L14439.0793,-4329.3064L14438.3102,-4328.7865L14438.15,-4328.6198L14437.9898,-4328.4599L14437.9303,-4328.3333L14437.8296,-4328.2799L14437.6297,-4328.2799L14437.5793,-4328.2799L14437.4695,-4328.26L14437.1994,-4328.2066L14436.9507,-4328.2066L14436.6806,-4328.26L14436.29,-4328.26L14435.6094,-4328.4599L14435.1105,-4328.4599L14434.7397,-4328.4397L14434.3307,-4328.5133L14434.2407,-4328.5L14434.1797,-4328.4264L14434.0805,-4328.133L14434.0393,-4327.8866L14434.0805,-4327.433L14433.7906,-4327.4666"/>
<path content="AP030,1,28,1,0,14,1,8,JPN" xlink:title="AP030" d="M14422.5601,-4325.6664L14422.58,-4325.7401L14422.8607,-4326.2066L14422.9904,-4326.3199L14423.6496,-4326.3866L14423.7701,-4326.44L14423.88,-4326.5663L14424.3301,-4327.0397L14424.4904,-4327.1065L14424.8596,-4327.1664L14425.0595,-4327.1065L14425.2396,-4326.9863L14425.3098,-4326.9863L14425.6104,-4327.0733L14425.7202,-4327.0733L14425.8804,-4326.9665L14426.0605,-4326.7998L14426.1795,-4326.7464L14426.4297,-4326.7132L14427.4002,-4326.8932L14427.7405,-4327L14427.8793,-4327.1263L14428.1097,-4327.56L14428.0807,-4328.0266L14428.1296,-4328.08L14428.2394,-4328.12L14428.3295,-4328.12L14428.83,-4327.993L14429.7394,-4327.8332L14430.3101,-4327.7733L14430.4504,-4327.7397L14430.6503,-4327.5799L14430.9906,-4327.5932L14431.1096,-4327.56L14431.1996,-4327.4532L14431.3995,-4327.1797L14431.5598,-4327.1263L14431.7001,-4327.1797L14431.7703,-4327.2533L14431.9504,-4327.4132L14432.0801,-4327.4864L14432.2403,-4327.4864L14432.3593,-4327.4864L14432.4295,-4327.5066L14432.6797,-4327.6863L14432.8293,-4327.7065L14432.9697,-4327.6863L14433.7906,-4327.4666"/>
<path content="AP030,1,28,1,0,14,1,8,JPN" xlink:title="AP030" d="M14374.6506,-4346.5668L14374.5819,-4346.5164L14374.5605,-4346.5L14374.4904,-4346.4401L14374.4705,-4346.4268L14374.3607,-4346.32L14374.2401,-4346.1735L14374.1501,-4346.0464L14374.1104,-4345.94L14374.0204,-4345.8332L14373.9899,-4345.8134L14373.88,-4345.6665L14373.7396,-4345.5799L14373.6496,-4345.4666L14373.6298,-4345.3999L14373.6298,-4345.2732L14373.5794,-4345.1801L14373.5596,-4345.1267L14373.5199,-4345.0733L14373.4894,-4345.0535L14373.4497,-4344.9867L14373.4497,-4344.9467L14373.4497,-4344.8601L14373.4497,-4344.6934L14373.3994,-4344.5332L14373.3307,-4344.3867L14373.1796,-4344.12L14373.0392,-4343.94L14372.9294,-4343.8332L14372.7905,-4343.7599L14372.58,-4343.6665L14372.4701,-4343.6333L14372.3297,-4343.5799L14372.2198,-4343.5398L14372.11,-4343.5066L14371.9894,-4343.4532L14371.9498,-4343.4132L14371.8994,-4343.3601L14371.8796,-4343.3067L14371.8597,-4343.2533L14371.7896,-4343.1065L14371.6293,-4342.7666L14371.4493,-4342.44L14371.2204,-4341.8667L14370.7703,-4341.7934L14370.6802,-4341.7599L14370.61,-4341.7198L14370.5597,-4341.6664L14370.5399,-4341.6134L14370.52,-4341.5264L14370.52,-4341.3467L14370.52,-4341.2731L14370.5399,-4341.1465L14370.5795,-4340.9866L14370.5795,-4340.9466L14370.5399,-4340.7665L14370.4895,-4340.5865L14370.4697,-4340.5132L14370.3995,-4340.4064L14370.2393,-4340.3198L14370.1294,-4340.2599L14370.0394,-4340.2065L14369.9493,-4340.1531L14369.7906,-4340.0665L14369.6503,-4340.0265L14369.4,-4339.9933L14369.1803,-4339.9399L14368.7698,-4339.7934L14368.5196,-4339.6866L14368.3594,-4339.6133L14368.1305,-4339.5065L14368.0206,-4339.4333L14367.9306,-4339.36L14367.8802,-4339.3066L14367.8299,-4339.2334L14367.8101,-4339.18L14367.7399,-4339.1464L14367.7002,-4339.1266L14367.3798,-4339.04L14367.3294,-4339.0202L14367.0593,-4338.9267L14366.9693,-4338.8931L14366.8793,-4338.8599L14366.8304,-4338.8199L14366.8106,-4338.8L14366.7206,-4338.6932L14366.6306,-4338.4998L14366.5802,-4338.4266L14366.5405,-4338.3732L14366.4307,-4338.2801L14366.2201,-4338.1199L14365.8295,-4337.8864L14365.4297,-4337.6331L14365.2893,-4337.5401L14365.1794,-4337.5065L14364.9704,-4337.4866L14364.8102,-4337.4535L14364.5599,-4337.4001L14364.3997,-4337.3466L14364.1998,-4337.22L14363.8107,-4336.9667L14363.4003,-4336.7332L14362.9898,-4336.4799L14362.7899,-4336.4067L14362.6495,-4336.3865L14362.4893,-4336.3865L14362.1506,-4336.4067L14361.7905,-4336.4265L14361.6104,-4336.4067L14361.3998,-4336.3533L14361.2198,-4336.2598L14361.0397,-4336.1534L14360.8093,-4335.9734L14360.6293,-4335.7933L14360.4904,-4335.6335L14360.3806,-4335.4134L14360.1807,-4334.9865L14359.9701,-4334.6066L14359.8801,-4334.3735L14359.7702,-4334.1331L14359.7198,-4334.0134L14359.7,-4333.8867L14359.6802,-4333.6533L14359.6802,-4333.5064L14359.6298,-4333.4534L14359.4299,-4333.3599L14359.2896,-4333.3065L14358.6105,-4333.0532L14358.3298,-4332.7332L14358.2199,-4332.46L14358.02,-4332.1934L14357.9697,-4331.9931L14357.9895,-4331.4865L14357.9697,-4331.2L14357.9697,-4331.1665L14357.8796,-4330.8399L14357.2693,-4330.2464L14356.8604,-4329.8664L14356.7001,-4329.5265L14356.3995,-4329.3064L14356.3293,-4329.2L14356.2897,-4328.7464L14356.1096,-4328.5664L14355.8594,-4328.4065L14355.5405,-4328.0266L14355.2399,-4327.8866L14354.8096,-4327.7397L14354.6799,-4327.6131L14354.5807,-4327.4532L14354.1306,-4326.6064L14354.1306,-4326.4797L14354.4006,-4326.0666L14354.6494,-4325.8999L14354.7089,-4325.8804L14354.8096,-4325.8465L14354.9301,-4325.7931L14354.95,-4325.7065L14354.8798,-4325.2197L14354.8294,-4324.6933L14354.8096,-4324.4598"/>
<path content="AP030,1,28,1,0,14,1,8,JPN" xlink:title="AP030" d="M14354.8096,-4324.4598L14355.3604,-4324.4267L14355.6503,-4324.4064L14355.9006,-4324.4064L14355.9906,-4324.4999L14356.2698,-4324.86L14356.3095,-4324.8932L14356.5598,-4325.2197L14356.6803,-4325.3799L14357.2006,-4325.7931L14357.8796,-4326.3733L14358.1802,-4326.5133L14358.3298,-4326.6064L14359.3094,-4326.9264L14359.4894,-4327L14359.61,-4327.0733L14359.7702,-4327.1263L14360.08,-4327.3998L14360.4004,-4327.6131L14361.1099,-4327.8999L14361.7706,-4327.8999L14362.0605,-4327.94L14362.3306,-4327.993L14362.5793,-4328.2066L14363.8596,-4328.7666L14365.4297,-4328.7464L14365.6296,-4328.82L14366.0202,-4329.0531L14366.6306,-4329.3598L14367.0593,-4329.4533L14367.6102,-4329.7199L14368.2907,-4330.0999L14368.6295,-4330.2799L14369.0399,-4330.46L14369.3298,-4330.46L14369.5801,-4330.6931L14369.6793,-4330.7331L14369.8593,-4330.8598L14370.3796,-4330.9464L14370.52,-4330.9265L14370.9702,-4330.8933L14371.08,-4330.9265L14371.2006,-4331.0398L14371.6095,-4331.2866L14371.8796,-4331.4133L14372.2,-4331.6864L14372.2702,-4331.9733L14372.3999,-4332.0999L14372.7402,-4332.2266L14373.1995,-4332.4398L14373.3307,-4332.6199L14373.7396,-4332.8598L14374.0799,-4333.2333L14374.1806,-4333.4332L14374.2004,-4333.6533L14374.3607,-4333.72L14374.4507,-4333.7601L14374.6506,-4333.7933L14374.7406,-4333.8135L14374.8306,-4333.8665L14374.8993,-4333.9199L14374.9695,-4333.9733L14375.0793,-4334.0267L14375.1801,-4334.0466L14375.3799,-4334.0801L14375.7904,-4334.1202L14375.9705,-4334.1331L14376.0605,-4334.1534L14376.1307,-4334.1732L14376.1795,-4334.1934L14376.2894,-4334.2999L14376.3596,-4334.3334L14376.6998,-4334.4398L14376.8097,-4334.4799L14377.24,-4334.6401L14377.4002,-4334.7134L14377.5208,-4334.7866L14377.5604,-4334.84L14377.5803,-4334.8732L14377.6505,-4334.9998L14377.6794,-4335.0399L14377.7405,-4335.0933L14377.8595,-4335.1665L14377.9694,-4335.2734L14378.0396,-4335.3802L14378.1494,-4335.4668L14378.27,-4335.54L14378.4698,-4335.6133L14378.5599,-4335.6335L14378.5797,-4335.6335"/>
<path content="AP030,1,28,1,0,14,1,8,JPN" xlink:title="AP030" d="M14343.75,-4326.079L14344.0399,-4325.9933L14344.3604,-4325.8133L14344.8105,-4325.6664L14345.0195,-4325.56L14345.2393,-4325.5264L14345.3796,-4325.4665L14345.52,-4325.3799L14345.6299,-4325.3597L14345.9503,-4325.4333L14346.4905,-4325.3464L14346.7194,-4325.3597L14347.1298,-4325.4333L14347.5403,-4325.3799L14347.8302,-4325.3265L14347.9507,-4325.2731L14348.5397,-4324.6399L14348.6298,-4324.5533L14348.5794,-4323.8132"/>
<path content="AP030,1,28,1,0,14,1,8,JPN" xlink:title="AP030" d="M14414.6103,-4342.3L14414.6103,-4342.0132L14414.6103,-4341.9201L14414.36,-4341.5264L14414.1495,-4341.2334L14414.1098,-4341.0198L14414.0793,-4340.86L14414.2197,-4340.6067L14414.27,-4340.4598L14414.27,-4340.3534L14414.18,-4340.2267L14413.8306,-4339.92L14413.8107,-4339.8464L14413.8306,-4339.4867L14413.8596,-4339.4001L14413.8596,-4339.2864L14413.8596,-4339.2532L14413.8596,-4339.18L14413.8306,-4339.1666L14413.8107,-4339.1464L14413.7207,-4339.1266L14413.3804,-4339.1068L14413.2202,-4339.0533L14413.15,-4338.9999L14413.0402,-4338.6932L14413.0402,-4338.5666L14413.1104,-4338.4602L14413.1805,-4338.3865L14413.1805,-4338.1332L14413.1805,-4337.7731L14413.1805,-4337.6331L14413.2202,-4337.3466L14413.3606,-4336.9133L14413.3301,-4336.7134L14413.3301,-4336.5532L14413.3804,-4336.4067L14413.4293,-4336.2801L14413.4293,-4336.1935L14413.3606,-4335.6865L14413.15,-4335.2734L14412.9501,-4334.9464L14412.5793,-4334.4601L14412.1994,-4334.0801L14411.9507,-4333.9199L14411.6302,-4333.8467L14411.3098,-4333.7734L14411.1801,-4333.7399L14411.1298,-4333.6533L14411.1496,-4333.5064L14411.1099,-4333.4332L14410.9299,-4333.3797L14410.6506,-4333.3263L14410.4294,-4333.2199L14410.2707,-4333.0933L14410.1807,-4332.9666L14410.1105,-4332.6599L14409.7,-4332.3864L14409.61,-4332.32L14409.5398,-4332.1934L14409.5795,-4332.0465L14409.6497,-4331.9401L14409.7702,-4331.7066L14409.79,-4331.6532L14409.7702,-4331.58L14409.7,-4331.5063L14409.4498,-4331.2531L14409.3994,-4331.1264L14409.3796,-4331.02L14409.3796,-4330.9265L14409.3994,-4330.8399L14409.9701,-4329.9L14410.4004,-4329.0733L14410.6506,-4328.7666L14410.7697,-4328.3199L14411.0397,-4327.7733L14411.3602,-4327.2865L14411.3998,-4326.733L14411.6501,-4326.3332L14411.7004,-4326.26L14412.0407,-4325.7599L14412.7396,-4325.0198L14413.06,-4324.6597L14413.2401,-4324.2466L14413.3102,-4324.0997L14413.4506,-4323.3601"/>
<path content="AP030,1,28,1,0,14,1,8,JPN" xlink:title="AP030" d="M14422.5601,-4325.6664L14422.4701,-4325.5932L14422.3602,-4325.56L14422.0795,-4325.4864L14421.7896,-4325.4665L14421.4905,-4325.3998L14421.0602,-4325.4131L14420.6497,-4325.7198L14419.8593,-4325.8999L14419.7205,-4325.8865L14419.6106,-4325.8465L14419.4901,-4325.7931L14419.4305,-4325.7599L14419.2703,-4325.7599L14419.0598,-4325.7599L14418.8797,-4325.7599L14418.7393,-4325.7065L14418.6493,-4325.6332L14418.4244,-4325.4806L14418.28,-4325.388L14418.06,-4325.205L14417.94,-4324.908L14418.01,-4324.589L14418.32,-4324.056L14418.69,-4323.417L14418.7419,-4323.3249"/>
<path content="AP030,1,28,1,0,15,1,8,JPN" xlink:title="AP030" d="M14413.4506,-4323.3601L14414.0701,-4323.4989L14414.4455,-4323.6675L14414.3494,-4324.1615L14415.0467,-4324.678L14415.1688,-4324.675L14415.8401,-4324.6563L14416.9861,-4324.3565L14417.8368,-4323.9162L14418.7419,-4323.3249"/>
<path content="AP030,1,28,1,0,14,1,8,JPN" xlink:title="AP030" d="M14354.3304,-4323.3067L14354.5593,-4323.3196L14354.6799,-4323.3265L14354.7195,-4323.4131L14354.7699,-4323.6664L14354.7897,-4323.9201L14354.7897,-4324.1734L14354.8096,-4324.4598"/>
<path content="AP030,1,28,1,0,14,1,8,JPN" xlink:title="AP030" d="M14348.5794,-4323.8132L14349.1501,-4323.56L14349.9496,-4323.2533L14350.1099,-4323.2533L14350.6302,-4323.4531L14350.7904,-4323.4333L14351.3596,-4323.2201L14352.2202,-4322.8733L14352.2705,-4322.86L14352.5604,-4322.7665L14352.7893,-4322.7863L14352.9694,-4322.8397L14352.9907,-4322.8931L14352.7405,-4323.1266L14352.6505,-4323.2864L14352.6794,-4323.4333L14353.1296,-4323.8667L14353.3997,-4323.9399L14353.7201,-4323.9399L14353.9307,-4323.8667L14354.0604,-4323.6332L14354.1306,-4323.4531L14354.3304,-4323.3067"/>
<path content="AP030,1,28,1,0,14,1,8,JPN" xlink:title="AP030" d="M14469.9707,-4322.6601L14470.0806,-4322.6601L14470.2194,-4322.7131L14470.4895,-4322.9263L14470.7703,-4323.18L14470.99,-4323.2864L14471.7194,-4323.6134L14471.8994,-4323.7198L14472.0398,-4323.8667L14472.1497,-4324.3L14472.29,-4324.6799L14472.3999,-4325.1266L14472.3602,-4325.5066L14472.3999,-4325.8133L14472.4899,-4326.0998L14472.7402,-4326.3199L14472.7905,-4326.4599L14472.7707,-4326.7666L14472.7005,-4326.9466L14472.3099,-4327.38L14472.2397,-4327.5265L14472.2,-4328.0666L14471.9299,-4328.5L14471.8796,-4328.7331L14471.9299,-4328.8399L14472.2198,-4329.2534L14472.4701,-4329.5265L14472.6807,-4329.6532L14473.1995,-4329.7199L14473.4497,-4329.7733L14473.6099,-4329.8664L14473.88,-4330.0465L14474.0402,-4330.1731L14474.1806,-4330.32L14474.2401,-4330.9998L14474.2706,-4331.1066L14474.3103,-4331.1798"/>
<path content="AP030,1,28,1,0,14,1,8,JPN" xlink:title="AP030" d="M14354.3304,-4323.3067L14354.8294,-4322.48L14355.2399,-4321.8132"/>
<path content="AP030,1,28,1,0,14,1,8,JPN" xlink:title="AP030" d="M14418.7419,-4323.3249L14419.23,-4322.458L14419.44,-4322.046L14419.48,-4321.643"/>
<path content="AP030,1,28,1,0,14,1,8,JPN" xlink:title="AP030" d="M14467.7704,-4321.0197L14467.9001,-4321.6331L14467.9001,-4321.6534L14468.2007,-4321.7731L14468.4906,-4321.9532L14468.6798,-4322.3198L14468.8095,-4322.4064L14469.3802,-4322.5666L14469.6503,-4322.6067L14469.7906,-4322.6398L14469.9707,-4322.6601"/>
<path content="AP030,1,28,1,0,15,1,8,JPN" xlink:title="AP030" d="M14459.9701,-4330.0465L14460.5957,-4329.2736L14460.6033,-4329.2381L14460.6781,-4328.9005L14461.0077,-4328.6518L14461.6669,-4328.4649L14462.1613,-4327.9053L14462.9028,-4327.2831L14464.0564,-4326.1635L14464.7171,-4324.7955L14465.0467,-4323.9868L14465.0467,-4323.4272L14465.5411,-4322.9298L14466.6122,-4322.4319L14467.2714,-4321.8102L14467.7704,-4321.0197"/>
<path content="AP030,1,28,1,0,14,1,8,JPN" xlink:title="AP030" d="M14413.4506,-4323.3601L14413.7894,-4321.8132L14413.8306,-4321.5931L14413.9893,-4320.8199L14414.0396,-4320.6799L14414.7003,-4319.9932L14414.83,-4319.8463"/>
<path content="AP030,1,28,1,0,15,1,8,JPN" xlink:title="AP030" d="M14419.48,-4321.643L14419.53,-4320.882L14419.68,-4320.509L14419.88,-4320.204L14420.24,-4319.831"/>
<path content="AP030,1,28,1,0,15,1,8,JPN" xlink:title="AP030" d="M14420.24,-4319.831L14420.21,-4319.709L14420.03,-4319.687L14419.46,-4319.892L14419.02,-4319.938L14418.73,-4319.9L14418.36,-4319.748"/>
<path content="AP030,1,28,1,0,14,1,8,JPN" xlink:title="AP030" d="M14418.36,-4319.748L14417.88,-4319.588L14417.44,-4319.633L14416.9,-4319.74L14416.25,-4319.854L14414.83,-4319.8463"/>
<path content="AP030,1,28,1,0,15,1,8,JPN" xlink:title="AP030" d="M14385.3943,-4322.7718L14387.8799,-4321.1391L14389.0152,-4320.2492L14389.1586,-4318.8774"/>
<path content="AP030,1,28,1,0,14,1,8,JPN" xlink:title="AP030" d="M14409.0775,-4318.1644L14411.0031,-4318.5223L14411.2335,-4318.9816L14411.2198,-4319.36L14411.0596,-4319.54L14411.0199,-4319.6533L14411.0397,-4319.7201L14411.0794,-4319.7933L14411.2198,-4319.8666L14411.3602,-4319.8864L14412.0407,-4319.8666L14412.1994,-4319.8864L14412.4298,-4319.9532L14412.6495,-4320.013L14412.8296,-4320.0466L14413.0203,-4320.013L14413.1104,-4319.9532L14413.3606,-4319.8463L14413.4506,-4319.8132L14414.5203,-4319.8864L14414.7003,-4319.8864L14414.83,-4319.8463"/>
<path content="AP030,1,28,1,0,15,1,8,JPN" xlink:title="AP030" d="M14409.0775,-4318.1644L14407.3807,-4319.2589L14407.4615,-4320.8645L14407.1899,-4321.542L14407.3074,-4322.6555L14407.6218,-4322.8256L14407.7911,-4322.5533L14408.11,-4322.8127L14408.3633,-4322.9843L14409.024,-4322.7879L14410.878,-4323.1842L14413.4506,-4323.3601"/>
<path content="AP030,1,28,1,0,15,1,8,JPN" xlink:title="AP030" d="M14422.5601,-4325.6664L14424.4339,-4325.3983L14425.708,-4324.0665L14426.4526,-4323.1522L14426.1093,-4321.286L14426.4069,-4321.1433L14426.3992,-4319.8483L14426.8814,-4318.5837L14426.9821,-4318.1789L14427.3727,-4317.4976"/>
<path content="AP030,1,28,1,0,15,1,8,JPN" xlink:title="AP030" d="M14432.254,-4317.403L14432.785,-4318.3262L14433.9386,-4319.3256L14434.4391,-4319.8849L14435.3104,-4320.0314L14436.2381,-4319.7746L14436.7233,-4320.0474L14437.5885,-4320.079L14438.1897,-4319.6022L14439.4516,-4319.7369L14440.2573,-4320.1149L14440.8875,-4320.1534L14441.8274,-4320.1252L14442.3813,-4320.2236L14443.3594,-4322.2603L14443.6386,-4323.0553L14444.1315,-4323.4421L14445.3293,-4323.8079L14445.9015,-4324.1924L14446.3287,-4324.8108L14446.5897,-4325.2617L14447.1542,-4325.5318L14447.7203,-4325.8015L14448.5535,-4325.2594L14448.7396,-4325.7702L14449.0067,-4326.3363L14449.2523,-4326.5007L14450.1923,-4326.4721L14450.647,-4326.1711L14452.0508,-4326.0132L14452.7634,-4326.1059L14453.7338,-4326.5926L14454.6356,-4327.2533L14455.1422,-4327.8687L14455.4153,-4328.4916L14455.3665,-4329.0096L14454.95,-4330.4264"/>
<path content="AP030,1,28,1,0,15,1,8,JPN" xlink:title="AP030" d="M14433.7906,-4327.4666L14433.8165,-4326.606L14433.075,-4326.1086L14432.8278,-4325.4246L14432.8278,-4325.0515L14432.9926,-4324.3053L14432.4997,-4323.6835L14432.0877,-4322.6265L14431.5109,-4321.6316L14431.7581,-4320.8855L14431.6757,-4320.4502L14431.1813,-4319.4553L14431.5948,-4318.5223L14432.254,-4317.403"/>
<path content="AP030,1,28,1,0,15,1,8,JPN" xlink:title="AP030" d="M14389.1586,-4318.8774L14388.8794,-4316.8934"/>
<path content="AP030,1,28,1,0,14,1,8,JPN" xlink:title="AP030" d="M14388.8794,-4316.8934L14388.9893,-4316.7332L14389.0396,-4316.4997"/>
<path content="AP030,1,28,1,0,15,1,8,JPN" xlink:title="AP030" d="M14388.8794,-4316.8934L14389.0396,-4316.4997"/>
<path content="AP030,1,28,1,0,15,1,8,JPN" xlink:title="AP030" d="M14432.254,-4317.403L14432.666,-4316.7809L14432.6309,-4315.5144"/>
<path content="AP030,1,28,1,0,15,1,8,JPN" xlink:title="AP030" d="M14427.3727,-4317.4976L14428.9581,-4316.3353L14432.6309,-4315.5144"/>
<path content="AP030,1,28,1,0,14,1,8,JPN" xlink:title="AP030" d="M14459.9701,-4330.0465L14459.9304,-4329.8332L14459.8999,-4329.7398L14459.8099,-4329.7066L14459.52,-4329.6131L14458.6304,-4329.1466L14458.58,-4329.0733L14458.58,-4328.8597L14458.5403,-4328.7998L14458.3099,-4328.5L14458.2703,-4328.0666L14458.2001,-4327.8664L14457.9895,-4327.7397L14457.6294,-4327.6333L14457.4295,-4327.5066L14457.2205,-4327.2865L14457.1106,-4327.0531L14456.8802,-4326.6399L14456.6101,-4326.1532L14456.1996,-4325.7198L14455.7907,-4325.5066L14455.7404,-4325.4532L14455.7693,-4325.3597L14455.9982,-4325.1316L14456.1295,-4325L14456.1096,-4324.9466L14455.9296,-4324.8398L14455.1102,-4324.2599L14454.9698,-4324.0799L14454.5593,-4323.5264L14454.3793,-4323.3997L14454.0405,-4323.18L14453.4302,-4322.5132L14453.2196,-4322.1333L14452.0798,-4320.7333L14452.0203,-4320.62L14452.1103,-4320.3331L14452.0798,-4320.1733L14451.9699,-4320.0665L14451.4893,-4319.6865L14451.1795,-4319.4866L14451.0193,-4319.3466L14450.9506,-4319.3066L14450.9003,-4319.2734L14450.8606,-4318.8931L14450.8102,-4318.7332L14450.5798,-4318.6066L14450.5402,-4318.5665L14450.56,-4318.4998L14450.6104,-4318.4265L14450.7401,-4318.2598L14450.7401,-4318.1332L14450.65,-4317.8467L14450.7202,-4317.58L14450.8301,-4317.3466L14451.1093,-4317.2199L14451.2695,-4317.0731L14451.2405,-4316.9132L14450.7904,-4316.4799L14450.65,-4316.4265L14450.4898,-4316.4265L14450.1297,-4316.4799L14449.9695,-4316.46L14449.8993,-4316.4066L14449.8596,-4316.2998L14449.8993,-4316.0999L14450.1099,-4315.8333L14450.2899,-4315.5399L14450.2899,-4315.4533L14450.1801,-4315.2733"/>
<path content="AP030,1,28,1,0,15,1,8,JPN" xlink:title="AP030" d="M14422.8546,-4315.1695L14423.8113,-4315.9462L14424.7482,-4316.3666L14424.9557,-4316.8072L14426.0681,-4317.0883L14427.3727,-4317.4976"/>
<path content="AP030,1,28,1,0,15,1,8,JPN" xlink:title="AP030" d="M14420.24,-4319.831L14420.4848,-4319.1161L14421.1639,-4317.8078L14421.8826,-4317.564L14422.5891,-4317.0528L14422.8546,-4315.1695"/>
<path content="AP030,1,28,1,0,16,1,8,JPN" xlink:title="AP030" d="M14355.2399,-4321.8132L14356.07,-4320.104L14356.5,-4319.278L14357.02,-4318.432L14357.66,-4317.419L14358.13,-4316.602L14358.43,-4315.841L14358.55,-4315.339L14358.56,-4314.531L14358.5264,-4314.4277"/>
<path content="AP030,1,28,1,0,15,1,8,JPN" xlink:title="AP030" d="M14348.5794,-4323.8132L14349.9359,-4319.1391L14351.1536,-4318.5059L14351.9852,-4318.5635L14353.212,-4318.1576L14353.2928,-4317.625L14353.8803,-4316.7778L14356.0394,-4316.4265L14357.5317,-4314.9525L14357.8262,-4314.5668L14358.5264,-4314.4277"/>
<path content="AP030,1,28,1,0,14,1,8,JPN" xlink:title="AP030" d="M14355.2399,-4321.8132L14355.4504,-4321.6133L14356.6498,-4320.6799L14357.2006,-4320.2267L14357.4493,-4319.9398L14357.7698,-4319.4332L14357.9697,-4319.1067L14358.1497,-4318.8198L14358.2703,-4318.6932L14358.8806,-4318.2266L14358.9005,-4318.1931L14359.1095,-4317.8333L14359.52,-4317.1467L14360.2203,-4315.9531L14360.4004,-4315.6666L14360.4706,-4315.1798L14360.6293,-4314.7667L14361.0794,-4314.4398L14361.4304,-4314.0667L14361.4502,-4313.8466"/>
<path content="AP030,1,28,1,0,15,1,8,JPN" xlink:title="AP030" d="M14358.5264,-4314.4277L14361.4502,-4313.8466"/>
<path content="AP030,1,28,1,0,15,1,8,JPN" xlink:title="AP030" d="M14469.9707,-4322.6601L14471.2708,-4321.9719L14476.1597,-4321.9223L14479.1824,-4321.048L14479.3625,-4321.5214L14479.7165,-4321.5466L14481.8069,-4319.4851L14482.4707,-4319.6106L14484.375,-4320.3841"/>
<path content="AP030,1,28,1,0,14,1,8,JPN" xlink:title="AP030" d="M14360.4507,-4311.7733L14360.6995,-4311.9732L14360.9299,-4311.993L14361.0794,-4312.0998L14361.1298,-4312.1933L14361.1801,-4312.2601L14361.2701,-4312.6598L14361.29,-4312.7865L14361.3098,-4312.8731L14361.3297,-4312.9665L14361.4502,-4313.8466"/>
<path content="AP030,1,28,1,0,15,1,8,JPN" xlink:title="AP030" d="M14432.6309,-4315.5144L14432.5851,-4313.8584L14432.6675,-4311.433"/>
<path content="AP030,1,28,1,0,14,1,8,JPN" xlink:title="AP030" d="M14359.5568,-4311.299L14359.8099,-4311.3068L14359.8999,-4311.3464L14360.4507,-4311.7733"/>
<path content="AP030,1,28,1,0,14,1,8,JPN" xlink:title="AP030" d="M14356.9547,-4311.2026L14358.7204,-4311.2732L14359.5568,-4311.299"/>
<path content="AP030,1,28,1,0,16,1,8,JPN" xlink:title="AP030" d="M14358.5264,-4314.4277L14358.33,-4313.824L14358.11,-4313.286L14357.87,-4312.738L14357.59,-4312.208L14357.34,-4311.79L14356.9547,-4311.2026"/>
<path content="AP030,1,28,1,0,15,1,8,JPN" xlink:title="AP030" d="M14358.86,-4310.488L14359.303,-4310.7172L14359.4509,-4310.9186L14359.5568,-4311.299"/>
<path content="AP030,1,28,1,0,14,1,8,JPN" xlink:title="AP030" d="M14360.4507,-4311.7733L14360.7071,-4311.6112L14360.9894,-4311.433L14361.2396,-4311.5067L14361.3297,-4311.4666L14361.1496,-4311.0931L14361.0397,-4310.8932L14361.0794,-4310.7132L14361.0199,-4310.6197L14361.0397,-4310.5L14360.9497,-4310.4065L14360.9894,-4310.3333"/>
<path content="AP030,1,28,1,0,14,1,8,JPN" xlink:title="AP030" d="M14412.1094,-4310.2798L14412.1506,-4310.3733L14412.5793,-4311.4132L14413.0798,-4311.7397L14413.2401,-4311.8332L14413.6307,-4312.1532L14413.6307,-4312.2066L14413.6307,-4312.4268L14413.6993,-4312.7331L14413.9893,-4313.1065L14414.4699,-4314.0133L14415.1306,-4315.5067L14415.2206,-4315.6132L14415.7196,-4316.0797L14415.7394,-4316.2266L14415.6998,-4316.4799L14415.4297,-4317.5598L14415.3107,-4318.0798L14415.1306,-4318.8732L14414.9307,-4319.7201L14414.83,-4319.8463"/>
<path content="AP030,1,28,1,0,15,1,8,JPN" xlink:title="AP030" d="M14412.1094,-4310.2798L14411.4685,-4310.7952L14410.9619,-4315.2309L14410.0952,-4317.3988L14409.3323,-4318L14409.0775,-4318.1644"/>
<path content="AP030,1,28,1,0,14,1,8,JPN" xlink:title="AP030" d="M14360.9894,-4310.3333L14361.2198,-4310.2264L14361.4502,-4310.6068L14361.5402,-4310.6598L14363.2401,-4311.0397L14364.9307,-4311.4132L14365.8096,-4311.993L14367.0593,-4312.3867L14367.7902,-4312.64L14367.9901,-4312.7132L14368.3807,-4312.9467L14368.8095,-4313.3266L14369.0399,-4313.6131L14369.6304,-4314.0266L14369.8105,-4314.2597L14370.0195,-4314.373L14370.2194,-4314.5L14370.9503,-4314.6599L14371.2906,-4314.8731L14371.4294,-4314.8933L14372.1802,-4314.8731L14372.5204,-4314.6599L14372.6303,-4314.64L14372.7203,-4314.6599L14372.9706,-4314.7865L14373.2895,-4314.7999L14373.4695,-4314.8399L14373.8098,-4314.9666L14374.6307,-4314.9666L14375.0595,-4315.1264L14375.2396,-4315.1466L14376.0803,-4314.9864L14376.4694,-4314.9467L14376.5594,-4314.8731L14376.5793,-4314.7667L14376.5594,-4314.64L14376.5396,-4314.5531L14376.5793,-4314.46L14376.7197,-4314.373L14376.8295,-4314.3333L14376.9699,-4314.3532L14377.1103,-4314.3867L14377.2202,-4314.4398L14377.33,-4314.4798L14377.4506,-4314.5531L14377.5406,-4314.64L14377.6093,-4314.7465L14377.9907,-4315.2531L14378.1494,-4315.3999L14378.7399,-4315.633L14378.9902,-4316.0465L14379.2404,-4316.2266L14379.4296,-4316.3334L14379.7897,-4316.4066L14380.0797,-4316.5333L14380.4001,-4316.5333L14380.5603,-4316.5867L14381.2698,-4317.2333L14381.4499,-4317.2867L14381.9901,-4317.2199L14382.1106,-4317.2001L14382.3593,-4317.2531L14382.5394,-4317.2531L14382.7698,-4317.4133L14382.9895,-4317.5598L14383.2199,-4317.6533L14383.6502,-4317.8131L14383.8104,-4317.9531L14383.8593,-4317.9932L14384.0393,-4317.9733L14384.1797,-4317.9932L14384.79,-4318.1732L14384.9503,-4318.1534L14385.3104,-4317.9199L14385.4294,-4317.9001L14385.5606,-4317.9199L14386.0397,-4318.0264L14386.38,-4317.9398L14386.47,-4317.9199L14386.6104,-4317.9398L14386.7203,-4317.9733L14386.8805,-4318.0134L14387.0407,-4317.9932L14387.5793,-4317.7067L14388.3301,-4317.2199L14388.8794,-4316.8934"/>
<path content="AP030,1,28,1,0,15,1,8,JPN" xlink:title="AP030" d="M14343.75,-4313.1514L14343.8553,-4313.147L14344.3787,-4313.0157L14345.7733,-4311.6142L14348.0957,-4310.3004L14350.3036,-4309.951"/>
<path content="AP030,1,28,1,0,16,1,8,JPN" xlink:title="AP030" d="M14358.86,-4310.488L14357.88,-4310.316L14356.98,-4310.144L14356.17,-4309.924L14355.86,-4309.906"/>
<path content="AP030,1,28,1,0,16,1,8,JPN" xlink:title="AP030" d="M14356.9547,-4311.2026L14356.81,-4310.982L14355.86,-4309.906"/>
<path content="AP030,1,28,1,0,14,1,8,JPN" xlink:title="AP030" d="M14352.5116,-4309.4261L14353.0396,-4309.7931L14353.45,-4310.0998L14353.7399,-4310.2798L14354.4693,-4310.873L14354.7897,-4311.1065L14356.0593,-4311.1668L14356.9547,-4311.2026"/>
<path content="AP030,1,28,1,0,15,1,8,JPN" xlink:title="AP030" d="M14350.3036,-4309.951L14350.769,-4309.951L14351.3489,-4310.1269L14351.8143,-4309.9518L14352.5116,-4309.4261"/>
<path content="AP030,1,28,1,0,15,1,8,JPN" xlink:title="AP030" d="M14343.75,-4312.2499L14344.5526,-4311.4468L14347.8821,-4309.3281L14348.5748,-4308.5548L14349.1913,-4308.4656L14350.3036,-4309.951"/>
<path content="AP030,1,28,1,0,15,1,8,JPN" xlink:title="AP030" d="M14422.8546,-4315.1695L14422.998,-4313.2446L14422.1008,-4312.4214L14422.5403,-4311.5154L14422.4945,-4310.6236L14423.1537,-4310.4259L14424.5987,-4308.9111L14423.9258,-4307.724"/>
<path content="AP030,1,28,1,0,15,1,8,JPN" xlink:title="AP030" d="M14432.6675,-4311.433L14432.9971,-4309.3189L14432.9987,-4308.3858L14432.0923,-4307.4535L14430.8563,-4306.8939L14430.7739,-4306.3347"/>
<path content="AP030,1,28,1,0,15,1,8,JPN" xlink:title="AP030" d="M14467.7704,-4321.0197L14468.5913,-4320.8145L14470.0729,-4321.0632L14470.4025,-4320.8763L14471.4752,-4320.2545L14473.6176,-4319.0723L14473.9471,-4318.5749L14472.7112,-4316.8339L14472.4655,-4315.9634L14472.9599,-4315.2794L14474.2783,-4314.595L14474.7726,-4314.035L14475.267,-4313.2267L14476.6678,-4312.1693L14477.0798,-4311.7336L14476.9165,-4310.9875L14477.2461,-4310.2413L14477.9877,-4309.4952L14479.0588,-4308.9352L14480.4596,-4308.6861L14481.0364,-4308.0017L14481.1996,-4306.3198"/>
<path content="AP030,1,28,1,0,14,1,8,JPN" xlink:title="AP030" d="M14484.0805,-4306.1001L14484.1995,-4306.2267L14484.2697,-4306.5666L14484.2407,-4307.3067L14484.1995,-4307.9201L14484.2194,-4308.0467L14484.375,-4308.2273"/>
<path content="AP030,1,28,1,0,14,1,8,JPN" xlink:title="AP030" d="M14481.1996,-4306.3198L14482.0206,-4306.3198L14482.4493,-4306.3L14482.6797,-4306.2599L14483.4503,-4306.1001L14483.8303,-4306.0265L14484.0607,-4306.0665L14484.0805,-4306.1001"/>
<path content="AP030,1,28,1,0,15,1,8,JPN" xlink:title="AP030" d="M14420.7901,-4305.6866L14421.1502,-4307.0877L14421.5866,-4307.254L14422.5571,-4307.1823L14423.9258,-4307.724"/>
<path content="AP030,1,28,1,0,14,1,8,JPN" xlink:title="AP030" d="M14413.3102,-4308.6201L14413.8306,-4308.4267L14414.1495,-4308.26L14414.5203,-4307.9933L14414.6805,-4307.8999L14414.9704,-4307.8331L14415.0803,-4307.7732L14415.2695,-4307.6668L14415.4907,-4307.6332L14416.3101,-4307.4532L14416.4902,-4307.3799L14416.8594,-4307.2533L14417.5598,-4306.9668L14417.7399,-4306.9267L14418.9896,-4306.6399L14419.1101,-4306.5666L14419.22,-4306.4266L14419.2703,-4306.3732L14419.3298,-4306.3198L14419.5206,-4306.1001L14419.5602,-4306.0467L14419.7006,-4305.9731L14420.7901,-4305.6866"/>
<path content="AP030,1,28,1,0,15,1,8,JPN" xlink:title="AP030" d="M14423.9258,-4307.724L14428.0594,-4306.4003L14428.6911,-4305.6675L14430.7739,-4306.3347"/>
<path content="AP030,1,28,1,0,14,1,8,JPN" xlink:title="AP030" d="M14457.7698,-4305.4333L14458.5205,-4306.1531L14459.1293,-4306.62L14459.1797,-4306.6933L14459.3094,-4306.9866L14459.3597,-4307.0198L14459.9304,-4307.2731L14459.9701,-4307.3265L14460.0204,-4307.6332L14460.0601,-4307.7599L14460.1807,-4307.8465L14461.3098,-4308.3332L14461.3602,-4308.3866L14461.3998,-4308.5331L14461.4304,-4308.6201L14461.4502,-4308.68L14461.8805,-4308.8398L14461.9293,-4308.86L14462.0804,-4309.0401L14462.1307,-4309.0733L14462.5198,-4309.5798L14462.6297,-4309.7733L14462.7197,-4310.2264L14462.97,-4310.6068L14463.2904,-4310.9867L14463.3606,-4311.2198L14463.4293,-4311.3464L14463.8306,-4311.6665L14464.2899,-4312.08L14464.27,-4312.3333L14464.5599,-4312.64L14464.7202,-4312.9868L14464.8605,-4313.2332L14465.0604,-4313.6532L14465.0604,-4314.32L14465.1093,-4314.6065L14465.4007,-4315.0398L14465.6296,-4315.3267L14465.8295,-4316.3532L14465.95,-4316.7332L14466.5207,-4317.58L14466.7007,-4317.9001L14466.6794,-4317.9932L14466.4001,-4318.4399L14466.33,-4318.5665L14466.2903,-4318.6199L14465.9698,-4319.0533L14465.95,-4319.2863L14465.9698,-4319.4332L14466.04,-4319.54L14466.4703,-4319.8666L14466.7007,-4320.153L14467.3798,-4320.6932L14467.7002,-4320.9267L14467.7704,-4321.0197"/>
<path content="AP030,1,28,1,0,15,1,8,JPN" xlink:title="AP030" d="M14450.1801,-4315.2733L14451.1361,-4315.0402L14452.0828,-4314.2872L14453.45,-4313.8435L14454.2838,-4313.7766L14455.3909,-4313.876L14455.8716,-4313.4285L14456.5292,-4313.1302L14456.8375,-4312.6263L14457.4707,-4311.927L14457.6172,-4311.552L14456.8085,-4310.6815L14457.6645,-4308.0296L14457.1701,-4307.489L14457.2418,-4305.8189L14457.7698,-4305.4333"/>
<path content="AP030,1,28,1,0,15,1,8,JPN" xlink:title="AP030" d="M14419.0796,-4304.7337L14420.3156,-4305.101L14420.7901,-4305.6866"/>
<path content="AP030,1,28,1,0,14,1,8,JPN" xlink:title="AP030" d="M14470.1294,-4301.6533L14470.43,-4301.72L14470.5597,-4301.72L14472.5403,-4301.7399L14472.6303,-4301.8131L14472.9706,-4303.0399L14472.9904,-4303.0933L14473.3994,-4304.3732L14473.5397,-4304.4998L14473.7,-4304.6066L14473.88,-4304.9667L14474.6506,-4305.5401L14474.9496,-4305.6667L14475.7904,-4305.7934L14476.4297,-4305.8331L14476.8097,-4305.7934L14477.0599,-4305.74L14477.15,-4305.7598L14477.2202,-4305.7934L14477.3193,-4305.8926L14477.4002,-4305.9731L14477.5803,-4306.0467L14477.9694,-4306.0467L14478.1097,-4306.0467L14478.9505,-4305.9532L14479.2007,-4305.9532L14479.9896,-4306.1733L14480.0598,-4306.1932L14480.5206,-4306.2798L14481.1996,-4306.3198"/>
<path content="AP030,1,28,1,0,15,1,8,JPN" xlink:title="AP030" d="M14430.7739,-4306.3347L14431.8451,-4305.7747L14431.8451,-4305.0903L14432.0099,-4304.3442L14432.753,-4304.0333L14433.4946,-4303.722L14433.6594,-4303.2246L14434.1537,-4302.6028L14434.7305,-4302.1671L14434.9503,-4301.54"/>
<path content="AP030,1,28,1,0,14,1,8,JPN" xlink:title="AP030" d="M14420.7901,-4305.6866L14421.6995,-4305.4665L14421.8307,-4305.4131L14421.9299,-4305.3265L14422.0398,-4305.2334L14422.3801,-4304.8733L14422.6807,-4304.5532L14422.8806,-4304.4266L14423.2193,-4304.3198L14423.2895,-4304.2599L14423.5199,-4303.9532L14423.6099,-4303.92L14423.8297,-4303.8334L14425.56,-4303.4332L14425.6805,-4303.36L14425.8301,-4303.1067L14426.1093,-4302.5867L14426.4694,-4302.1L14426.4694,-4301.72L14426.5198,-4301.5266L14426.6098,-4301.3268"/>
<path content="AP030,1,28,1,0,14,1,8,JPN" xlink:title="AP030" d="M14426.6098,-4301.3268L14426.8997,-4301.1066L14427.15,-4301.0201L14428.3798,-4301.0933L14428.8605,-4301.1265L14429.4907,-4301.1665L14429.8996,-4301.1799L14429.95,-4301.1799L14431.3293,-4301.4133L14431.7398,-4301.5064L14432.0602,-4301.5598L14433.1802,-4301.7731L14433.2199,-4301.7731L14433.6105,-4301.8333L14434.4696,-4301.6533L14434.9503,-4301.54"/>
<path content="AP030,1,28,1,0,15,1,8,JPN" xlink:title="AP030" d="M14432.6675,-4311.433L14435.7147,-4310.363L14439.1541,-4307.0187L14439.4333,-4306.7326L14439.3265,-4306.3339L14436.4304,-4300.9464"/>
<path content="AP030,1,28,1,0,14,1,8,JPN" xlink:title="AP030" d="M14434.9503,-4301.54L14435.4904,-4301.4332L14435.5606,-4301.4133L14435.7193,-4301.3599L14435.7895,-4301.3268L14436.4304,-4300.9464"/>
<path content="AP030,1,28,1,0,14,1,8,JPN" xlink:title="AP030" d="M14462.5198,-4300.5665L14462.8296,-4300.6931L14463.1805,-4300.8598L14463.8306,-4300.7668L14464.0793,-4300.7668L14464.3097,-4300.8198L14464.8605,-4301.0933L14465.8798,-4301.7067L14466.1102,-4301.8131L14466.3101,-4301.7933L14467.9306,-4301.3466L14467.9901,-4301.3466L14468.4906,-4301.3798L14468.6493,-4301.4L14469.0598,-4301.4332L14469.3802,-4301.4866L14470.1294,-4301.6533"/>
<path content="AP030,1,28,1,0,15,1,8,JPN" xlink:title="AP030" d="M14457.7698,-4305.4333L14459.0546,-4304.4033L14459.3704,-4304.0535L14460.1166,-4303.8448L14460.5118,-4303.4L14460.6979,-4303.2509L14460.8734,-4303.1105L14462.1765,-4303.0693L14462.1597,-4302.792L14462.1552,-4301.989L14462.1536,-4301.2478L14462.5198,-4300.5665"/>
<path content="AP030,1,28,1,0,14,1,8,JPN" xlink:title="AP030" d="M14442.72,-4300.9865L14442.9306,-4301.0933L14443.1503,-4301.3065L14443.5196,-4301.6533L14444.1498,-4302.28L14444.4901,-4302.5867L14444.9493,-4303.1799L14445.2698,-4303.413L14445.5597,-4303.6865L14445.7199,-4304.1L14445.6497,-4304.4067L14445.7199,-4304.5532L14445.8466,-4304.5982L14446.0205,-4304.66L14446.08,-4304.7867L14446.1304,-4305.0934L14446.1502,-4305.1666L14446.3303,-4305.3799L14446.6797,-4305.5931L14446.8597,-4305.92L14446.9696,-4306.0265L14447.2702,-4306.1199L14447.6105,-4306.3332L14447.9294,-4306.5666L14448.0804,-4306.6067L14448.4695,-4306.62L14448.8998,-4306.62L14449.3301,-4306.5865L14449.4705,-4306.5865L14449.6307,-4306.6601L14449.6796,-4306.6933L14449.9496,-4307L14449.9893,-4307.233L14449.8795,-4307.4665L14449.8795,-4307.5066L14449.8795,-4307.5268L14449.8795,-4307.5397L14449.8993,-4307.6134L14449.9496,-4307.653L14450.56,-4308.1734L14450.6302,-4308.3199L14450.6302,-4308.4064L14450.6302,-4308.4801L14450.65,-4309.2331L14450.65,-4309.3266L14450.8606,-4309.7065L14451.1505,-4310.1933L14451.1795,-4310.7132L14451.3107,-4310.82L14451.5793,-4310.9467L14451.6495,-4310.9467L14451.6998,-4310.873L14451.6296,-4310.7666L14451.6296,-4310.6934L14451.7197,-4310.6934L14451.8097,-4310.7132L14451.9302,-4310.7864L14452.0203,-4310.9131L14452.15,-4311.5799L14452.0798,-4311.8465L14451.9699,-4312.08L14451.86,-4312.3333L14451.7395,-4312.4599L14451.6998,-4312.553L14451.68,-4312.5866L14451.6495,-4312.64L14451.6296,-4312.7132L14451.4893,-4312.8597L14451.1093,-4313.0398L14450.9903,-4313.2198L14450.9003,-4313.4533L14450.8102,-4314.2467L14450.7004,-4314.3867L14450.5203,-4314.5332L14450.4501,-4314.6797L14450.4303,-4314.8399L14450.3296,-4314.9467L14450.1801,-4314.9998L14450.0793,-4315.073L14450.1099,-4315.1466L14450.1801,-4315.2733"/>
<path content="AP030,1,28,1,0,15,1,8,JPN" xlink:title="AP030" d="M14441.9586,-4300.396L14442.0593,-4300.5131"/>
<path content="AP030,1,28,1,0,14,1,8,JPN" xlink:title="AP030" d="M14441.9693,-4300.3864L14442.0593,-4300.5131"/>
<path content="AP030,1,28,1,0,14,1,8,JPN" xlink:title="AP030" d="M14441.9586,-4300.396L14441.9693,-4300.3864"/>
<path content="AP030,1,28,1,0,14,1,8,JPN" xlink:title="AP030" d="M14457.7698,-4305.4333L14457.6096,-4305.2532L14457.4493,-4304.7867L14457.3105,-4304.5532L14457.0801,-4304.3331L14456.9,-4303.92L14456.3599,-4303.4332L14455.7007,-4302.9465L14455.5405,-4302.8931L14455.1102,-4302.9133L14454.9698,-4302.8931L14454.8798,-4302.84L14454.4495,-4302.4799L14454.2007,-4302.4597L14454.0405,-4302.5665L14453.8101,-4302.6199L14453.4897,-4302.84L14453.45,-4302.84L14453.36,-4302.8L14453.27,-4302.6798L14453.1097,-4302.4597L14453.0396,-4302.3533L14452.9297,-4302.2999L14452.8305,-4302.28L14452.33,-4302.0664L14452.0599,-4301.72L14451.8097,-4301.4332L14451.1505,-4300.9266L14451.0193,-4300.9132L14450.8804,-4300.9464L14450.4501,-4300.9865L14450.2701,-4300.9998L14450.1495,-4300.9464L14450.0793,-4300.8598L14450.0793,-4300.7866L14450.1099,-4300.5333L14450.1297,-4300.4601L14450.1297,-4300.2998L14450.1297,-4300.1801L14450.1297,-4300.1198"/>
<path content="AP030,1,28,1,0,16,1,8,JPN" xlink:title="AP030" d="M14355.86,-4309.906L14355.22,-4309.84L14354.46,-4309.71L14354.04,-4309.472L14353.55,-4309.044L14352,-4307.712L14350.22,-4306.553L14349.78,-4306.03L14348.58,-4304.638L14347.39,-4303.574L14347.09,-4303.086L14346.98,-4302.641L14346.88,-4302.26L14346.7,-4301.535L14346.55,-4300.887L14346.37,-4300.293L14346.16,-4299.936L14345.85,-4299.722L14345.45,-4299.555L14344.98,-4299.508L14344.52,-4299.49L14344.0759,-4299.4852"/>
<path content="AP030,1,28,1,0,14,1,8,JPN" xlink:title="AP030" d="M14352.5116,-4309.4261L14352.0599,-4308.9268L14351.2207,-4308.1932L14350.6104,-4307.6332L14350.1495,-4307.2731L14349.3607,-4306.9267L14349.2905,-4306.8932L14349.0204,-4306.2267L14348.8998,-4305.9731L14348.2697,-4305.4131L14348.1293,-4305.3066L14347.8607,-4305.04L14347.6807,-4304.8401L14347.4503,-4304.6398L14347.2397,-4304.48L14347.1802,-4304.2267L14347.0795,-4304.0798L14346.9894,-4304.0264L14346.6507,-4303.92L14345.7703,-4303.1998L14345.8099,-4302.5333L14344.8807,-4302.4799L14344.0796,-4302.4799L14343.9697,-4302.4799L14343.8095,-4302.3865L14343.7897,-4302.1732L14343.7897,-4302.1198L14343.9301,-4301.0201L14343.8293,-4300.6931L14343.7698,-4300.4601L14343.8599,-4300.2464L14343.9499,-4299.8665L14344.0399,-4299.6666L14344.0759,-4299.4852"/>
<path content="AP030,1,28,1,0,16,1,8,JPN" xlink:title="AP030" d="M14343.75,-4299.4817L14344.0759,-4299.4852"/>
<path content="AP030,1,28,1,0,15,1,8,JPN" xlink:title="AP030" d="M14484.0805,-4306.1001L14484.3033,-4305.7598L14484.375,-4305.7221"/>
<path content="AP030,1,28,1,0,14,1,8,JPN" xlink:title="AP030" d="M14441.9693,-4300.3864L14442.2195,-4300.2266L14442.3431,-4300.145L14442.3798,-4300.1198L14442.8802,-4299.9199L14443.3594,-4299.7932L14443.8995,-4299.7398L14444.6503,-4299.7398L14444.9905,-4299.6864L14445.1294,-4299.6132L14445.3796,-4299.3267L14445.4498,-4299.2199L14445.5597,-4299.1264L14445.6497,-4299.1264L14445.8298,-4299.3599L14445.9305,-4299.4865L14446.3593,-4299.633L14446.6293,-4299.6666L14446.9299,-4299.6666L14447.2702,-4299.6132L14447.3999,-4299.6132L14447.7707,-4299.8665L14447.8806,-4299.8867L14447.9294,-4299.8867L14448.0896,-4299.8173L14448.2697,-4299.7398L14448.5199,-4299.72L14449.1302,-4299.7398L14449.5804,-4299.8333L14450.1297,-4300.1198"/>
<path content="AP030,1,28,1,0,15,1,8,JPN" xlink:title="AP030" d="M14436.4304,-4300.9464L14437.4069,-4300.5226L14437.8021,-4300.0477L14438.205,-4299.7269L14438.7466,-4299.6181L14438.7375,-4299.464L14438.0524,-4299.2172L14437.5595,-4299.0398"/>
<path content="AP030,1,28,1,0,14,1,8,JPN" xlink:title="AP030" d="M14436.4304,-4300.9464L14436.3998,-4300.84L14436.1099,-4300.3731L14436.1801,-4300.2068L14436.3098,-4299.9531L14436.4044,-4299.7868L14436.4899,-4299.633L14436.8103,-4299.4331L14436.9003,-4299.3797L14437.3093,-4299.2001L14437.5595,-4299.0398"/>
<path content="AP030,1,28,1,0,14,1,8,JPN" xlink:title="AP030" d="M14344.0759,-4299.4852L14344.0796,-4299.4667L14344.0796,-4299.4331L14343.8439,-4298.7673"/>
<path content="AP030,1,28,1,0,15,1,8,JPN" xlink:title="AP030" d="M14343.75,-4298.7945L14343.8439,-4298.7673"/>
<path content="AP030,1,28,1,0,14,1,8,JPN" xlink:title="AP030" d="M14439.18,-4298.7331L14439.3097,-4298.8197L14439.3509,-4298.9029L14439.3997,-4298.9998L14439.5401,-4299.1665L14439.9002,-4299.5934L14439.9307,-4299.6666L14440.0406,-4299.9001L14439.9902,-4300.333L14440.3305,-4300.7133L14440.9698,-4301.1665L14441.3803,-4300.84L14441.7007,-4300.6065L14441.9586,-4300.396"/>
<path content="AP030,1,28,1,0,14,1,8,JPN" xlink:title="AP030" d="M14438.4705,-4298.5664L14438.9297,-4298.6401L14438.9893,-4298.6599L14439.18,-4298.7331"/>
<path content="AP030,1,28,1,0,14,1,8,JPN" xlink:title="AP030" d="M14437.8296,-4298.4398L14438.4705,-4298.5664"/>
<path content="AP030,1,28,1,0,14,1,8,JPN" xlink:title="AP030" d="M14437.5595,-4299.0398L14437.6297,-4298.9265L14437.8296,-4298.4398"/>
<path content="AP030,1,28,1,0,15,1,8,JPN" xlink:title="AP030" d="M14439.9124,-4298.3971L14440.4617,-4298.6713L14441.2506,-4299.5811L14441.9586,-4300.396"/>
<path content="AP030,1,28,1,0,15,1,8,JPN" xlink:title="AP030" d="M14439.18,-4298.7331L14439.9124,-4298.3971"/>
<path content="AP030,1,28,1,0,14,1,8,JPN" xlink:title="AP030" d="M14438.4705,-4298.5664L14438.6307,-4298.0667"/>
<path content="AP030,1,28,1,0,15,1,8,JPN" xlink:title="AP030" d="M14437.8296,-4298.4398L14438.6307,-4298.0667"/>
<path content="AP030,1,28,1,0,14,1,8,JPN" xlink:title="AP030" d="M14450.1297,-4300.1198L14450.3601,-4300.0999L14450.6302,-4300.0134L14451.1505,-4299.7398L14451.9699,-4299.3465L14452.1805,-4299.1264L14452.4902,-4298.46L14452.7405,-4298.0465"/>
<path content="AP030,1,28,1,0,15,1,8,JPN" xlink:title="AP030" d="M14438.6307,-4298.0667L14439.1205,-4298.0011L14439.9124,-4298.3971"/>
<path content="AP030,1,28,1,0,14,1,8,JPN" xlink:title="AP030" d="M14452.7405,-4298.0465L14452.8305,-4297.9733L14453.1998,-4297.7398L14453.2196,-4297.7398L14454.0802,-4297.76L14454.2404,-4297.7734L14454.4296,-4297.9198L14454.7394,-4298.28L14454.8798,-4298.3532L14455.4306,-4298.4066L14455.9906,-4298.4398L14456.3599,-4298.373L14456.7398,-4298.28L14457.1304,-4298.2265L14457.6294,-4298.2265L14457.8598,-4298.2468L14458.3099,-4298.32L14458.58,-4298.32L14458.7708,-4298.28L14458.9005,-4298.2468L14458.9706,-4298.2265L14459.1797,-4298.1533L14459.4894,-4298.1197L14459.7,-4298.1331L14459.8999,-4298.2468L14460.1807,-4298.5332L14460.3104,-4298.5867L14460.5194,-4298.6065L14460.6094,-4298.6401L14460.8795,-4298.8934L14461.3602,-4299.073L14461.4899,-4299.2001L14461.8607,-4299.8665L14462.1307,-4300.0668L14462.2894,-4300.1534L14462.3993,-4300.4601L14462.5198,-4300.5665"/>
<path content="AP030,1,28,1,0,15,1,8,JPN" xlink:title="AP030" d="M14437.3718,-4297.5586L14438.6307,-4298.0667"/>
<path content="AP030,1,28,1,0,14,1,8,JPN" xlink:title="AP030" d="M14412.6801,-4297.1798L14413.0402,-4297.4865L14413.4903,-4297.953L14413.5605,-4297.9931L14413.7894,-4298.0999L14414.4699,-4298.3532L14414.8102,-4298.3532L14415.4495,-4298.3868L14416.04,-4298.4066L14417.2394,-4298.7133L14418.4692,-4299.0532L14420.0394,-4299.3999L14421.8094,-4299.7601L14421.9299,-4299.773L14422.9004,-4299.9397L14424.3103,-4300.1198L14425.0198,-4300.2266L14425.5203,-4300.4398L14425.5417,-4300.5928L14425.56,-4300.7133L14425.6302,-4300.893"/>
<path content="AP030,1,28,1,0,15,1,8,JPN" xlink:title="AP030" d="M14389.1586,-4318.8774L14390.0177,-4319.4637L14391.3025,-4318.8229L14393.8568,-4318.6565L14396.4996,-4318.8923L14397.3145,-4318.5669L14397.9568,-4317.5369L14399.2554,-4317.1989L14399.9512,-4317.2821L14400,-4317.2085L14400.5951,-4316.3025L14402.3376,-4313.7234L14402.6382,-4312.8033L14402.6642,-4311.9415L14403.3081,-4310.9619L14404.5273,-4309.0546L14405.4352,-4307.8651L14406.189,-4307.7438L14406.9946,-4307.2662L14407.3608,-4306.2935L14407.7499,-4304.4086L14409.8099,-4302.7824L14412.1292,-4299.4766L14412.6373,-4297.3598L14412.6801,-4297.1798"/>
<path content="AP030,1,28,1,0,15,1,8,JPN" xlink:title="AP030" d="M14439.9124,-4298.3971L14440.3854,-4298.1796L14442.2745,-4297.3892L14443.6676,-4297.171L14443.5455,-4296.666"/>
<path content="AP030,1,28,1,0,15,1,8,JPN" xlink:title="AP030" d="M14438.6307,-4298.0667L14438.7985,-4297.0455L14440.3244,-4297.0665L14441.4963,-4297.0314L14442.3798,-4296.8021L14443.5455,-4296.666"/>
<path content="AP030,1,28,1,0,15,1,8,JPN" xlink:title="AP030" d="M14451.5961,-4296.2185L14452.7405,-4298.0465"/>
<path content="AP030,1,28,1,0,14,1,8,JPN" xlink:title="AP030" d="M14407.3303,-4295.5601L14407.3593,-4295.7664L14407.3807,-4295.9198L14407.3303,-4296.2067L14406.9504,-4297.0932L14406.4301,-4298.32L14406.1798,-4298.9265L14406.1295,-4299.0398L14406.0593,-4299.0932L14403.3295,-4299.8665L14403.1296,-4299.9397L14403.0396,-4300.0134L14402.9694,-4301.2531L14402.6306,-4301.9733L14402.3102,-4302.3331L14402.2003,-4302.5665L14402.1805,-4302.9465L14402.24,-4303.3066L14402.2705,-4303.4664L14402.2003,-4303.5797L14401.8997,-4303.7399L14401.4496,-4304.0466L14401.2207,-4304.2065L14401.1505,-4304.2465L14400.8102,-4304.2999L14400.7401,-4304.3331L14400.4898,-4304.7333L14400.4303,-4304.8401L14400.3601,-4304.9465L14400.3601,-4305.04L14400.9903,-4305.7598L14401.0193,-4305.8331L14400.9705,-4305.9532L14400.7202,-4306.1531L14400.4501,-4306.2798L14400.2899,-4306.3198L14400.1099,-4306.3198L14400,-4306.2874L14399.6796,-4306.1932L14399.3607,-4306.0665L14399.0402,-4306.0467L14398.88,-4306.1001L14398.7701,-4306.1531L14397.7825,-4306.2197L14397.4484,-4306.4017L14397.2359,-4306.7073L14397.2237,-4307.1631L14396.9035,-4307.4246L14396.7376,-4307.6163L14396.4571,-4307.6078L14396.1982,-4307.7443L14395.9839,-4307.8698L14396.0602,-4308.0467L14395.9702,-4308.1333L14395.8099,-4308.1734L14395.668,-4308.2054L14395.488,-4308.1271L14395.2494,-4308.0661L14395.2194,-4307.8999L14395.1166,-4307.8144L14394.9286,-4307.7672L14394.8566,-4307.5509L14394.6723,-4307.5364L14394.5702,-4307.795L14394.3222,-4307.957L14394.1117,-4308.2682L14393.1912,-4308.5845L14392.041,-4308.9538L14391.8577,-4309.1508L14391.5262,-4309.1396L14391.4206,-4309.2526L14391.0512,-4309.4317L14390.6373,-4309.4868L14390.3973,-4309.9052L14390.1452,-4310.3691L14389.9082,-4310.5345L14389.4619,-4311.2482L14389.6357,-4311.587L14389.3757,-4312.2654L14388.9235,-4312.47L14388.8512,-4312.6082L14388.6094,-4312.8193L14388.3521,-4312.8272L14387.9918,-4313.125L14387.9657,-4313.2979L14388.1391,-4313.6441L14388.3218,-4313.919L14388.4903,-4314.2467L14388.5803,-4314.2998L14388.6993,-4314.3333L14388.7695,-4314.4264L14388.7695,-4314.7133L14388.7207,-4314.7465L14388.5193,-4314.8933L14388.4903,-4314.9864L14388.5193,-4315.073L14388.6093,-4315.1798L14388.6993,-4315.3267L14388.6993,-4315.3999L14388.6093,-4315.58L14388.6795,-4315.6666L14388.8794,-4315.8333L14389.0594,-4316.0465L14389.1296,-4316.2598L14389.1495,-4316.3334L14389.0396,-4316.4997"/>
<path content="AP030,1,28,1,0,14,1,8,JPN" xlink:title="AP030" d="M14407.3303,-4295.5601L14407.7393,-4295.5399L14408.0597,-4295.5399L14408.4,-4295.5265L14408.7906,-4295.433L14408.8806,-4295.4132L14408.9706,-4295.4132L14409.1095,-4295.433L14409.2407,-4295.5067L14409.61,-4295.6665L14409.9899,-4295.7733L14410.5804,-4295.9534L14411.1099,-4296.2265L14411.47,-4296.5134L14411.7203,-4296.693L14412.6801,-4297.1798"/>
<path content="AP030,1,28,1,0,15,1,8,JPN" xlink:title="AP030" d="M14443.5455,-4296.666L14444.2261,-4296.4935L14445.9778,-4295.731L14448.1506,-4295.1073L14449.6399,-4294.6056L14449.7299,-4294.9577L14449.9557,-4295.3056L14450.3067,-4295.3964L14451.1414,-4295.5227L14451.2283,-4295.8244L14451.5961,-4296.2185"/>
<path content="AP030,1,28,1,0,15,1,8,JPN" xlink:title="AP030" d="M14451.5961,-4296.2185L14452.1317,-4295.9484L14452.1667,-4295.3392L14453.9749,-4295.5875L14455.9143,-4295.7298L14458.7418,-4295.6924L14461.5387,-4296.3139L14463.3286,-4296.257L14464.3356,-4295.7687L14465.2695,-4295.232L14467.4011,-4295.113L14469.2459,-4294.0521L14471.0739,-4294.4351L14471.553,-4294.6915L14472.9355,-4294.9696L14473.5764,-4295.6734L14473.2559,-4296.0892L14472.0978,-4296.3299L14472.3328,-4296.7781L14471.3638,-4299.0398L14471.1914,-4299.6029L14470.9457,-4300.1179L14470.61,-4300.2808L14469.8044,-4300.6615L14470.1294,-4301.6533"/>
<path content="AP030,1,28,1,0,14,1,8,JPN" xlink:title="AP030" d="M14343.8439,-4298.7673L14343.7897,-4298.4264L14343.75,-4298.2122"/>
<path content="AP030,1,28,1,0,15,1,8,JPN" xlink:title="AP030" d="M14343.75,-4292.7706L14345.7733,-4292.6392"/>
<path content="AP030,1,28,1,0,15,1,8,JPN" xlink:title="AP030" d="M14360.9894,-4310.3333L14360.585,-4308.5533L14361.5158,-4307.5897L14362.619,-4305.2238L14363.7222,-4300.5352L14363.4903,-4300.1846L14363.2004,-4299.5708L14363.4903,-4299.1768L14364.0717,-4298.5634L14364.3036,-4297.9939L14364.3616,-4297.3366L14364.7095,-4296.767L14365.1169,-4296.3291L14365.0009,-4295.8031L14365.4648,-4295.3651L14365.8722,-4294.8395L14365.5807,-4294.0067L14365.1169,-4293.3491L14365.2908,-4292.9546L14365.8142,-4292.3855"/>
<path content="AP030,1,28,1,0,14,1,8,JPN" xlink:title="AP030" d="M14393.3807,-4289.0732L14393.6493,-4289.1068L14394.7693,-4289.3066L14395.1492,-4289.4131L14395.8099,-4289.7598L14396.6507,-4290.2466L14397.3099,-4290.7867L14397.5601,-4290.9866L14398.1506,-4291.0732L14398.4497,-4291.2197L14398.7289,-4291.3582L14398.88,-4291.4333L14399.0204,-4291.5066L14399.6796,-4291.8331L14400,-4292.0166L14401.3992,-4292.82L14401.5396,-4292.9131L14401.5594,-4293.4132L14402.0401,-4293.7401L14402.1301,-4293.8133L14402.7893,-4294.0666L14403.3295,-4294.2799L14403.6102,-4294.5L14403.6804,-4294.5534L14404.2892,-4294.873L14404.8294,-4295.1065L14404.9698,-4295.1668L14406.1996,-4295.5799L14406.2897,-4295.5933L14406.4499,-4295.6131L14407.3303,-4295.5601"/>
<path content="AP030,1,28,1,0,15,1,8,JPN" xlink:title="AP030" d="M14365.8142,-4292.3855L14366.5817,-4293.2823L14368.7393,-4293.7386L14369.3375,-4294.7884L14369.8395,-4295.2328L14369.9387,-4295.9396L14369.2032,-4296.4638L14368.5364,-4296.986L14368.1488,-4297.6032L14367.6971,-4301.5148L14368.2114,-4302.2121L14370.4926,-4302.2598L14372.6639,-4302.9682L14376.9791,-4302.1553L14380.899,-4301.8063L14383.2779,-4300.9876L14385.0723,-4299.7478L14386.1908,-4299.4938L14387.2894,-4299.9062L14388.2675,-4299.9317L14388.5132,-4299.6994L14388.6734,-4299.469L14388.4888,-4299.1592L14387.9486,-4298.2426L14387.7731,-4297.7943L14387.8616,-4297.1256L14389.6072,-4296.117L14391.2308,-4295.4174L14392.5385,-4293.9144L14393.2602,-4293.1362L14393.4265,-4292.2707L14393.3807,-4289.0732"/>
<path content="AP030,1,28,1,0,14,1,8,JPN" xlink:title="AP030" d="M14385.3302,-4285.0201L14385.5804,-4285.0731L14386.0397,-4285.22L14386.4502,-4285.3798L14386.8103,-4285.6533L14386.9507,-4285.8665L14387.2696,-4286.2465L14387.4695,-4286.4067L14388.1104,-4286.6199L14388.8596,-4286.6798L14389.4302,-4286.6932L14390.5396,-4287.3798L14390.5807,-4287.413L14391.5207,-4287.7197L14391.8304,-4287.8666L14392.3599,-4288.3198L14392.4896,-4288.6932L14392.6498,-4288.8733L14392.6804,-4288.8931L14392.8604,-4288.9999L14393.3807,-4289.0732"/>
<path content="AP030,1,28,1,0,14,1,8,JPN" xlink:title="AP030" d="M14343.75,-4286.1603L14343.9499,-4285.9932L14344.0796,-4285.8665L14344.2398,-4285.7201L14344.7006,-4285.2734L14345.8099,-4284.2266L14346.0205,-4284.0267L14346.5195,-4283.5266L14346.9299,-4283.1467L14347.8607,-4282.2998L14348.5794,-4281.8867L14348.8998,-4281.6532"/>
<path content="AP030,1,28,1,0,15,1,8,JPN" xlink:title="AP030" d="M14345.7733,-4292.6392L14346.4111,-4292.3325L14346.8765,-4291.7191L14347.1664,-4290.7555L14347.9218,-4290.1859L14348.3292,-4289.6603L14348.851,-4288.8718L14349.3164,-4288.4338L14349.8978,-4287.9082L14350.2457,-4287.1632L14351.001,-4286.6817L14351.3489,-4286.4189L14351.4648,-4285.8494L14351.8723,-4285.4988L14352.6855,-4285.1486L14352.8595,-4284.798L14352.8595,-4284.3159L14353.2089,-4283.8341L14353.6148,-4283.3523L14354.0802,-4282.6077L14354.1168,-4281.7738L14354.1306,-4281.4865"/>
<path content="AP030,1,28,1,0,14,1,8,JPN" xlink:title="AP030" d="M14350.3601,-4280.8399L14350.9903,-4281.2199L14351.2695,-4281.3801L14351.5198,-4281.5067L14351.6998,-4281.5399L14352.4506,-4281.5266L14352.5208,-4281.5399L14352.9694,-4281.5933L14353.6499,-4281.5399L14353.8605,-4281.5266L14353.9703,-4281.5067L14354.1306,-4281.4865"/>
<path content="AP030,1,28,1,0,14,1,8,JPN" xlink:title="AP030" d="M14348.8998,-4281.6532L14348.97,-4281.6132L14349.3301,-4281.2199L14349.6506,-4280.7865L14349.7406,-4280.7667L14349.9893,-4280.7667L14350.3601,-4280.8399"/>
<path content="AP030,1,28,1,0,14,1,8,JPN" xlink:title="AP030" d="M14365.4694,-4280.0465L14365.4907,-4280.0667L14366.2201,-4280.5668L14366.2399,-4280.6198L14366.2903,-4280.6934L14366.3605,-4280.9666L14366.4307,-4281.3065L14366.4902,-4281.9935L14366.8304,-4282.0999L14366.9693,-4282.1198L14367.1997,-4282.1198L14367.7399,-4282.0267L14367.9306,-4282.0267L14368.1107,-4282.0667L14368.6798,-4282.2998L14368.8293,-4282.32L14369.1803,-4282.32L14369.4901,-4282.2998L14369.7693,-4282.2468L14369.9005,-4282.1934L14370.2896,-4281.9935L14370.43,-4281.9733L14370.52,-4281.9935L14370.61,-4282.0133L14370.9702,-4282.0801L14371.3303,-4282.2067L14371.8307,-4282.4265L14372.6807,-4282.9266L14372.9004,-4282.9998L14373.6801,-4282.9666L14373.9899,-4283.02L14374.0799,-4283.0399L14374.5193,-4283.1066L14375.2396,-4282.9666L14375.7401,-4282.9998L14376.9897,-4283.2333L14377.0401,-4283.2733L14377.092,-4283.3458L14377.1301,-4283.4L14377.3804,-4283.58L14377.4307,-4283.6132L14377.5803,-4283.7399L14377.6993,-4283.8665L14377.7695,-4283.9199L14377.9007,-4284.0466L14378.27,-4284.2999L14378.3798,-4284.5131L14378.3798,-4284.7668L14378.54,-4284.893L14378.7003,-4284.9464L14378.8803,-4285.0201L14378.9505,-4284.9998L14379.0802,-4285.0533L14379.2007,-4285.1265L14379.4495,-4285.3466L14379.5807,-4285.36L14380.2002,-4285.2867L14380.9692,-4285.2734L14381.4499,-4285.2867L14382.5394,-4285.8131L14382.8094,-4285.8997L14383.58,-4285.92L14384.1293,-4285.593L14384.79,-4285.1799L14385.3302,-4285.0201"/>
<path content="AP030,1,28,1,0,15,1,8,JPN" xlink:title="AP030" d="M14365.8142,-4292.3855L14366.2201,-4291.991L14366.2781,-4291.6405L14366.1621,-4291.1587L14366.1621,-4290.8077L14366.7435,-4289.5809L14367.2668,-4287.1712L14366.5695,-4284.6729L14365.6982,-4283.3141L14365.5228,-4282.5691L14365.506,-4281.7513L14365.4694,-4280.0465"/>
<path content="AP030,1,28,1,0,15,1,8,JPN" xlink:title="AP030" d="M14343.75,-4281.1487L14344.783,-4280.8491L14346.1517,-4280.6675L14348.8998,-4281.6532"/>
<path content="AP030,1,28,1,0,15,1,8,JPN" xlink:title="AP030" d="M14350.3601,-4280.8399L14350.9964,-4279.6505"/>
<path content="AP030,1,28,1,0,15,1,8,JPN" xlink:title="AP030" d="M14350.9964,-4279.6505L14348.2758,-4278.6964L14345.401,-4277.3396"/>
<path content="AP030,1,28,1,0,14,1,8,JPN" xlink:title="AP030" d="M14361.6501,-4277.1267L14362.1994,-4277.5265L14362.5397,-4277.5932L14362.6999,-4277.7065L14362.9501,-4277.7733L14364.0594,-4278.0464L14364.3097,-4278.26L14364.74,-4278.7464L14365.1505,-4279.2198L14365.1993,-4279.5399L14365.3107,-4279.8664L14365.4694,-4280.0465"/>
<path content="AP030,1,28,1,0,14,1,8,JPN" xlink:title="AP030" d="M14354.1306,-4281.4865L14354.6799,-4281.4133L14355.04,-4281.2L14355.4901,-4280.9467L14356.1295,-4280.5866L14356.6498,-4280.2998L14356.72,-4280.2467L14357.2693,-4279.9198L14357.8796,-4279.5799L14357.9895,-4279.5067L14358.5403,-4279.1267L14358.6304,-4279.0733L14359.9701,-4278.1933L14360.1501,-4278.0666L14360.7697,-4277.6867L14361.6501,-4277.1267"/>
<path content="AP030,1,28,1,0,15,1,8,JPN" xlink:title="AP030" d="M14375.5585,-4276.5518L14376.3977,-4276.8356L14380.8853,-4280.2731L14381.9214,-4280.9864L14383.4915,-4282.0675L14384.082,-4282.4741L14384.0729,-4282.695L14384.0561,-4283.094L14384.0286,-4283.7685L14384.021,-4283.9577L14384.0164,-4284.0466L14384.6985,-4284.552L14384.7,-4284.5535L14385.3302,-4285.0201"/>
<path content="AP030,1,28,1,0,15,1,8,JPN" xlink:title="AP030" d="M14361.6501,-4277.1267L14366.5146,-4275.7019L14368.75,-4276.511L14369.8563,-4278.2585L14370.8435,-4278.7926L14371.6049,-4278.9265L14372.4304,-4278.907L14373.0286,-4278.4367L14374.5575,-4277.2346L14375.5585,-4276.5518"/>
<path content="AP030,1,28,1,0,15,1,8,JPN" xlink:title="AP030" d="M14371.3305,-4273.5805L14371.8013,-4273.9473L14375.5585,-4276.5518"/>
<path content="AP030,1,28,1,0,14,1,8,JPN" xlink:title="AP030" d="M14363.7894,-4271.4333L14364.0793,-4271.7197L14365.6494,-4272.1333L14366.4484,-4272.3808L14367.4975,-4272.7972L14367.9817,-4272.9063L14368.3582,-4272.9757L14370.1604,-4273.2434L14371.3305,-4273.5805"/>
<path content="AP030,1,28,1,0,14,1,8,JPN" xlink:title="AP030" d="M14361.6501,-4277.1267L14361.5799,-4277L14361.4304,-4275.9197L14363.2202,-4274.3198L14363.2202,-4274.2268L14363.1104,-4273.3799L14363.15,-4273.2864L14363.2904,-4273.18L14363.4293,-4273.0934L14363.4705,-4273.04L14363.5193,-4272.9134L14363.4705,-4272.2797L14363.5406,-4272.0135L14363.6993,-4271.6133L14363.7894,-4271.4333"/>
<path content="AP030,1,28,1,0,14,1,8,JPN" xlink:title="AP030" d="M14361.2396,-4269.1799L14361.5204,-4269.4134L14362.0804,-4270.3865L14362.2406,-4270.6799L14362.4496,-4270.7867L14363.7894,-4271.4333"/>
<path content="AP030,1,28,1,0,15,1,8,JPN" xlink:title="AP030" d="M14350.9964,-4279.6505L14353.3508,-4278.3318L14356.0181,-4276.2962L14356.4667,-4275.4757L14356.9794,-4274.6029L14357.7271,-4274.3832L14358.345,-4274.3694L14358.4808,-4274.3156L14358.5953,-4273.7556L14358.6365,-4273.0961L14358.8684,-4272.0776L14360.4233,-4269.8128L14361.2396,-4269.1799"/>
<path content="AP030,1,28,1,0,15,1,8,JPN" xlink:title="AP030" d="M14361.2396,-4269.1799L14362.1017,-4268.9129L14363.0524,-4268.6378L14364.3569,-4268.6097L14365.1039,-4268.7164"/>
<path content="AP030,1,28,1,0,14,1,8,JPN" xlink:title="AP030" d="M14360.0204,-4267.8333L14360.2905,-4267.8867L14360.3607,-4267.9398L14360.4004,-4268.28L14360.4004,-4268.5867L14360.4706,-4268.7134L14360.5606,-4268.8L14360.6995,-4268.9133L14360.8597,-4268.9865L14361.0596,-4269.0933L14361.2396,-4269.1799"/>
<path content="AP030,1,28,1,0,15,1,8,JPN" xlink:title="AP030" d="M14343.75,-4276.608L14344.4275,-4277.0565L14345.401,-4277.3396"/>
<path content="AP030,1,28,1,0,15,1,8,JPN" xlink:title="AP030" d="M14365.1039,-4268.7164L14364.9594,-4268.592L14364.348,-4268.4541L14363.8504,-4268.0115L14363.1239,-4268.3033L14362.9992,-4268.1753L14362.9886,-4267.9947L14363.0112,-4267.6762L14363.1348,-4267.3183L14362.5717,-4267.0273L14361.8668,-4266.5874L14360.0204,-4267.8333"/>
<path content="AP030,1,28,1,0,14,1,8,JPN" xlink:title="AP030" d="M14350.5402,-4264.1197L14350.5798,-4264.1731L14350.7004,-4264.2998L14350.8301,-4264.3532L14350.9903,-4264.3532L14351.1307,-4264.32L14351.2695,-4264.32L14351.3794,-4264.3867L14351.5594,-4264.7465L14351.6998,-4264.9265L14351.7899,-4265.0734L14351.9302,-4265.3465L14352.15,-4265.5399L14352.3102,-4265.6132L14352.3605,-4265.6334L14352.4704,-4265.6532L14352.5604,-4265.7398L14352.6093,-4265.9199L14352.6993,-4266.1331L14352.7695,-4266.2266L14352.8305,-4266.2598L14353.0396,-4266.32L14353.6102,-4266.3864L14354.2007,-4266.5333L14354.6494,-4266.5867L14355.1804,-4266.7866L14355.8594,-4266.9865L14356.3995,-4267.1665L14357.2403,-4267.3599L14357.4707,-4267.4133L14357.8094,-4267.6533L14358.02,-4267.7734L14358.1299,-4267.8131L14358.2703,-4267.8131L14358.4503,-4267.7734L14358.7402,-4267.7399L14359.3094,-4267.8131L14360.0204,-4267.8333"/>
<path content="AP030,1,28,1,0,15,1,8,JPN" xlink:title="AP030" d="M14345.401,-4277.3396L14345.5658,-4274.5491L14345.5093,-4273.1316L14346.4035,-4269.6671L14347.1451,-4269.2963L14347.8836,-4268.8751L14347.8012,-4268.5223L14347.4335,-4267.9218L14348.14,-4266.6908L14349.1745,-4265.0974L14350.5402,-4264.1197"/>
<path content="AP030,1,28,1,0,14,1,8,JPN" xlink:title="AP030" d="M14345.1797,-4259.9731L14345.4498,-4260.08L14345.5597,-4260.1933L14345.7001,-4260.3001L14345.7397,-4260.3867L14345.7397,-4260.4401L14345.6802,-4260.5331L14345.6497,-4260.5865L14345.6802,-4260.64L14345.8603,-4260.7998L14345.9305,-4260.9135L14346.0205,-4261.1065L14346.1807,-4261.2L14346.4493,-4261.38L14346.5607,-4261.4132L14346.9498,-4261.3998L14347.0398,-4261.3998L14347.1802,-4261.4532L14347.5601,-4261.7199L14347.6303,-4261.8134L14347.6501,-4261.9534L14347.6807,-4262.0266L14347.8302,-4262.0998L14347.8607,-4262.1532L14347.9294,-4262.2601L14347.9904,-4262.3333L14348.0392,-4262.4065L14348.0606,-4262.6801L14348.0606,-4262.7666L14348.0606,-4262.8399L14347.9294,-4263.0398L14347.9294,-4263.1268L14347.9507,-4263.2L14348.1506,-4263.5265L14348.2407,-4263.5933L14348.3994,-4263.6868L14348.7198,-4263.7932L14349.1302,-4263.9198L14349.6307,-4263.9732L14350.2899,-4264.0465L14350.4501,-4264.08L14350.5402,-4264.1197"/>
<path content="AP030,1,28,1,0,15,1,8,JPN" xlink:title="AP030" d="M14343.75,-4260.7944L14345.1797,-4259.9731"/>
<path content="AP030,1,28,1,0,14,1,8,JPN" xlink:title="AP030" d="M14343.75,-4253.0104L14343.9697,-4253.1265L14344.1498,-4253.22L14344.1803,-4253.2532L14344.2001,-4253.3264L14344.0598,-4253.4664L14343.9697,-4253.6133L14343.8293,-4253.8467L14343.8095,-4253.9398L14343.8293,-4254.0134L14343.9301,-4254.1L14343.9499,-4254.1534L14343.9499,-4254.4067L14343.9697,-4254.66L14343.9499,-4254.7333L14343.9301,-4254.7867L14343.75,-4254.8679M14343.75,-4256.0592L14343.7698,-4256.1199L14343.75,-4256.2932M14343.75,-4256.4193L14343.7698,-4256.48L14343.8797,-4256.5865L14343.9499,-4256.6399L14343.9499,-4256.7135L14343.8995,-4256.8001L14343.8599,-4256.9668L14343.75,-4257.0822M14343.75,-4257.3012L14343.7698,-4257.3799L14343.8599,-4257.4532L14344.1101,-4257.6534L14344.31,-4257.7732L14344.4,-4257.8335L14344.7693,-4258.1932L14344.8593,-4258.3L14344.8807,-4258.4267L14344.8593,-4258.6201L14344.7906,-4258.9268L14344.7693,-4259.1667L14344.7693,-4259.38L14344.8303,-4259.56L14344.9493,-4259.7198L14345.1797,-4259.9731"/>
<path content="AP030,1,28,1,0,14,1,8,JPN" xlink:title="AP030" d="M14446.5393,-4349.1467L14446.8094,-4349.0734L14447.02,-4349.0002L14447.1298,-4348.9132L14447.2198,-4348.8602L14447.4899,-4348.6801L14447.6501,-4348.5664L14447.6807,-4348.5001L14447.6807,-4348.2601L14447.6807,-4348.1934L14447.7707,-4348.0999L14448.0606,-4347.8867L14448.1293,-4347.8333"/>
<path content="AP030,1,28,1,1,16,1,8,JPN" xlink:title="AP030" d="M14358.86,-4310.488L14359.8597,-4310.2661L14360.725,-4310.2841L14361.2959,-4310.5906L14361.5963,-4311.0172L14362.1972,-4311.2936L14363.8677,-4311.522L14365.0935,-4312.0027L14366.9683,-4312.0507L14367.9057,-4312.3151L14369.0594,-4311.8825L14370.2612,-4311.9786L14373.2897,-4311.3777L14376.5345,-4310.7769L14378.2891,-4310.0798L14379.4909,-4309.527L14382.4954,-4308.9021L14384.7788,-4308.3733L14387.4708,-4307.9166L14389.5619,-4307.6522L14390.7877,-4308.0368L14391.5568,-4308.6617L14391.9564,-4308.8119L14392.7256,-4308.845L14394.0175,-4308.3853L14394.9909,-4308.0248L14395.8562,-4307.9406L14397.7911,-4307.9887L14399.2212,-4308.169L14401.3003,-4308.205L14402.3579,-4308.1449L14403.6918,-4307.8445L14404.6413,-4307.8926L14405.158,-4308.0007L14406.189,-4307.7438L14407.3092,-4307.5561L14409.5325,-4307.7964L14410.8305,-4307.9767L14412.2005,-4308.3853L14413.3102,-4308.6201"/>
<path content="AP030,1,28,1,1,15,1,8,JPN" xlink:title="AP030" d="M14425.6302,-4300.893L14425.8093,-4302.0122L14427.9589,-4302.3829L14431.8381,-4303.5936L14432.6782,-4303.643"/>
<path content="AP030,1,28,1,1,16,1,8,JPN" xlink:title="AP030" d="M14432.6782,-4303.643L14434.3336,-4303.7171L14436.2115,-4303.6677L14436.928,-4303.4206L14439.7201,-4303.223L14441.8944,-4302.0864L14442.72,-4300.9865"/>
<path content="AP030,1,28,1,0,14,1,8,JPN" xlink:title="AP030" d="M14412.1094,-4310.2798L14412.1994,-4309.8133L14412.2894,-4309.5398L14412.3596,-4309.3597L14412.5198,-4309.1267L14412.8098,-4308.8932L14413.3102,-4308.6201"/>
<path content="AP030,1,28,1,0,14,1,8,JPN" xlink:title="AP030" d="M14425.6302,-4300.893L14425.7202,-4300.9464L14425.9506,-4301.0532L14426.6098,-4301.3268"/>
<path content="AP030,1,28,1,0,14,1,8,JPN" xlink:title="AP030" d="M14442.0593,-4300.5131L14442.72,-4300.9865"/>
</g>
</svg>
