<?xml version="1.0" encoding="UTF-8"?>
<svg  xmlns="http://www.w3.org/2000/svg" xmlns:xlink="http://www.w3.org/1999/xlink" xmlns:go="http://purl.org/svgmap/profile" property="f_code,acc,exs,rst,med,rtt,RSU,loc,soc" viewBox="13781.25 -3796.875 70.3125 70.3125" go:dataArea="13781.25 -3796.875 70.3125 70.3125" >
<metadata>
 <rdf:RDF xmlns:rdf="http://www.w3.org/1999/02/22-rdf-syntax-ns#" xmlns:crs="http://opengis.org/xmldtds/transformations.dtd" xmlns:svg="http://www.w3.org/svg" >
  <rdf:Description>
   <crs:CoordinateReferenceSystem rdf:resource="http://purl.org/crs/84" svg:transform="matrix(100.0,0.0,0.0,-100.0,0.0,0.0)" />
  </rdf:Description>
 </rdf:RDF>
</metadata>
<globalCoordinateSystem srsName="http://purl.org/crs/84" transform="matrix(100.0,0.0,0.0,-100.0,0.0,0.0)" />
<defs>
 <g id="p0" >
  <circle cx="0.0" cy="0.0" r="3" stroke="green" stroke-width="2.0" vector-effect="non-scaling-stroke" />
 </g>
</defs>
<g fill="none" fill-rule="evenodd" stroke="#00ff00" stroke-width="2" opacity="0.5" vector-effect="non-scaling-stroke" stroke-linejoin="bevel" >
<path content="AP030,1,28,1,0,14,1,8,JPN" xlink:title="AP030" d="M13834.7812,-3796.875L13834.79,-3796.8597"/>
<path content="AP030,1,28,1,0,15,1,8,JPN" xlink:title="AP030" d="M13834.79,-3796.8597L13835.7986,-3796.7899L13835.9718,-3796.875"/>
<path content="AP030,1,28,1,0,14,1,8,JPN" xlink:title="AP030" d="M13834.79,-3796.8597L13834.2697,-3795.993L13834.1188,-3795.8679"/>
<path content="AP030,1,28,1,0,15,1,8,JPN" xlink:title="AP030" d="M13851.2621,-3796.875L13850.4715,-3795.1279L13849.8672,-3793.5696L13849.176,-3792.5072L13847.9568,-3791.2254"/>
<path content="AP030,1,28,1,0,15,1,8,JPN" xlink:title="AP030" d="M13842.3349,-3796.875L13842.9962,-3796.5797L13843.2526,-3796.1288L13843.7668,-3795.5276L13844.3542,-3794.9268L13844.7586,-3794.4157L13845.0531,-3793.9648L13845.5658,-3794.0853L13846.1166,-3793.5741L13845.8237,-3793.364L13845.8969,-3792.8528L13846.1533,-3792.7326L13846.3379,-3792.4923L13846.1914,-3792.252L13845.7504,-3792.0414L13845.3461,-3791.9514L13845.3461,-3791.8312L13845.5292,-3791.6206L13846.0068,-3791.3803L13845.9702,-3791.1999L13845.5658,-3791.14L13845.1996,-3791.1098L13845.1996,-3790.9897L13845.5292,-3790.749L13846.228,-3790.5689L13846.7422,-3790.7188L13847.2183,-3791.0797L13847.9568,-3791.2254"/>
<path content="AP030,1,28,1,0,15,1,8,JPN" xlink:title="AP030" d="M13834.1188,-3795.8679L13834.552,-3795.4449L13834.4559,-3795.2099L13834.346,-3794.4275L13834.8709,-3793.3178L13835.675,-3792.6498L13836.5952,-3791.7332L13836.9751,-3791.0389L13837.4039,-3790.6269L13837.9471,-3790.3107"/>
<path content="AP030,1,28,1,0,15,1,8,JPN" xlink:title="AP030" d="M13840.6572,-3796.875L13840.6921,-3796.323L13842.0029,-3794.3836L13842.2897,-3792.984L13841.9586,-3792.2741L13840.3687,-3792.0982L13840.7471,-3791.404L13839.621,-3789.7858"/>
<path content="AP030,1,28,1,0,15,1,8,JPN" xlink:title="AP030" d="M13837.9471,-3790.3107L13838.8916,-3790.332L13839.621,-3789.7858"/>
<path content="AP030,1,28,1,0,15,1,8,JPN" xlink:title="AP030" d="M13841.9693,-3787.6898L13842.9474,-3788.3652L13843.811,-3788.3652L13844.5892,-3789.0026L13845.1935,-3789.4981L13845.9717,-3789.4981L13846.4035,-3789.64L13846.4905,-3790.0646L13847.0093,-3790.5605L13847.9568,-3791.2254"/>
<path content="AP030,1,28,1,0,15,1,8,JPN" xlink:title="AP030" d="M13839.621,-3789.7858L13841.04,-3789.817L13841.1194,-3789.2097L13841.9754,-3788.4315L13841.9693,-3787.6898"/>
<path content="AP030,1,28,1,0,15,1,8,JPN" xlink:title="AP030" d="M13837.9471,-3790.3107L13837.1292,-3790.0116L13834.9869,-3788.7451L13834.5413,-3787.9852L13833.9066,-3787.5492L13834.2209,-3787.0407L13832.8003,-3785.4622L13830.9387,-3782.983"/>
<path content="AP030,1,28,1,0,15,1,8,JPN" xlink:title="AP030" d="M13830.9387,-3782.983L13832.3593,-3782.9216L13834.3704,-3782.8735L13836.6211,-3783.638L13839.241,-3785.466L13840.8646,-3786.927L13841.9693,-3787.6898"/>
<path content="AP030,1,28,1,0,15,1,8,JPN" xlink:title="AP030" d="M13828.7903,-3782.3532L13829.425,-3782.386L13830.9387,-3782.983"/>
<path content="AP030,1,28,1,0,14,1,8,JPN" xlink:title="AP030" d="M13834.1188,-3795.8679L13833.9005,-3795.6867L13833.4702,-3795.5399L13833.4305,-3795.5265L13833.3603,-3795.4666L13833.2901,-3795.2198L13833.2001,-3795.0397L13833.0399,-3794.9467L13832.7896,-3794.7998L13832.4295,-3794.64L13832.0602,-3794.5133L13831.9504,-3794.5L13831.6498,-3794.3531L13831.0806,-3794.173L13830.8594,-3794.12L13830.8105,-3794.0468L13830.7907,-3793.9198L13830.5405,-3793.5265L13830.5206,-3793.5066L13830.3802,-3793.4132L13830.1102,-3793L13830.0797,-3792.9268L13830.0598,-3792.6933L13830.0598,-3792.68L13829.7394,-3792.3332L13829.5593,-3792.1333L13829.3106,-3791.9201L13829.1306,-3791.7065L13828.9307,-3791.2865L13828.8101,-3791.053L13828.7399,-3791L13828.36,-3790.7665L13828.3096,-3790.6399L13828.3295,-3790.5132L13828.5599,-3790.2599L13828.7399,-3790.0665L13828.8101,-3789.9933L13829.0802,-3789.8998L13829.1504,-3789.8132L13829.1306,-3789.7598L13829.0405,-3789.7064L13828.9902,-3789.653L13829.0604,-3789.5397L13829.1794,-3789.4131L13829.2007,-3789.3467L13829.0802,-3789.0198L13828.9902,-3788.9267L13828.9902,-3788.8733L13828.9902,-3788.8397L13829.0207,-3788.8L13829.0405,-3788.7867L13829.0604,-3788.7665L13829.1107,-3788.7466L13829.1306,-3788.7466L13829.1794,-3788.7466L13829.2404,-3788.7131L13829.2404,-3788.6799L13829.1306,-3788.62L13829.0604,-3788.533L13829.0604,-3788.3732L13829.0405,-3788.3331L13828.9902,-3788.2599L13829.0207,-3788.2267L13829.0405,-3788.2267L13829.0604,-3788.2065L13829.1107,-3788.2065L13829.1306,-3788.1733L13829.1794,-3788.1199L13829.2007,-3788.0665L13829.3304,-3787.9532L13829.6295,-3787.7731L13829.6997,-3787.7399L13829.7394,-3787.6534L13829.7897,-3787.6133L13829.8798,-3787.6133L13830.1498,-3787.5065L13830.2399,-3787.413L13830.2399,-3787.4001L13830.22,-3787.2334L13830.0797,-3786.9667L13830.04,-3786.713L13830.0598,-3786.6066L13830.1804,-3786.5334L13830.22,-3786.5131L13830.2902,-3786.5131L13830.3299,-3786.5131L13830.4001,-3786.5131L13830.4504,-3786.4799L13830.4504,-3786.2598L13830.4306,-3786.1L13830.2902,-3785.92L13830.0201,-3785.6533L13829.95,-3785.6331L13829.8096,-3785.593L13829.6799,-3785.4668L13829.4296,-3785.3466L13829.2404,-3785.1265L13829.2404,-3785.0201L13829.2694,-3784.9133L13829.2694,-3784.893L13829.2404,-3784.84L13829.2007,-3784.7866L13829.1794,-3784.7332L13829.2007,-3784.6798L13829.2007,-3784.5867L13829.1794,-3784.4997L13829.0405,-3784.3864L13828.8101,-3784.2266L13828.7003,-3784.1L13828.6804,-3784.0134L13828.6499,-3783.9733L13828.5797,-3783.9199L13828.4698,-3783.8333L13828.3096,-3783.58L13828.27,-3783.5266L13827.9495,-3783.4133L13827.8595,-3783.3599L13827.8305,-3783.3267L13827.8305,-3783.2733L13827.8107,-3783.1467L13827.8107,-3783.1066L13827.8305,-3783.0734L13828.0197,-3783.0399L13828.0807,-3782.9998L13828.2196,-3782.8934L13828.5599,-3782.6599L13828.5599,-3782.6401L13828.5599,-3782.5333L13828.6102,-3782.46L13828.7399,-3782.3868L13828.7903,-3782.3532"/>
<path content="AP030,1,28,1,0,14,1,8,JPN" xlink:title="AP030" d="M13828.0197,-3781.76L13828.3798,-3781.9935L13828.4348,-3782.1335L13828.45,-3782.1732L13828.5599,-3782.2468L13828.6499,-3782.28L13828.7704,-3782.32L13828.7903,-3782.3532"/>
<path content="AP030,1,28,1,0,14,1,8,JPN" xlink:title="AP030" d="M13827.8595,-3781.6132L13828.0197,-3781.76"/>
<path content="AP030,1,28,1,0,15,1,8,JPN" xlink:title="AP030" d="M13822.0856,-3781.184L13823.4619,-3780.8094L13824.8764,-3780.7808L13826.8219,-3781.5315L13828.0197,-3781.76"/>
<path content="AP030,1,28,1,0,14,1,8,JPN" xlink:title="AP030" d="M13851.5396,-3735.3065L13851.5625,-3735.3161"/>
<path content="AP030,1,28,1,0,15,1,8,JPN" xlink:title="AP030" d="M13851.5396,-3735.3065L13851.5625,-3735.2796"/>
<path content="AP030,1,28,1,0,16,1,8,JPN" xlink:title="AP030" d="M13845.5597,-3731.9931L13845.6802,-3732.0999L13845.8298,-3732.3334L13845.9,-3732.6401L13846.0403,-3732.7999L13846.4706,-3732.9998L13846.9696,-3733.2333L13847.6105,-3733.6533L13847.7707,-3733.7601L13848.3093,-3733.9733L13848.3795,-3734.0134L13848.4695,-3734.0668L13849.1302,-3734.4265L13849.3805,-3734.5665L13849.9893,-3734.7866L13850.3799,-3734.8L13850.9293,-3734.7134L13851.4297,-3734.4799L13851.5594,-3734.4067L13851.5625,-3734.4042"/>
<path content="AP030,1,28,1,0,16,1,4,JPN" xlink:title="AP030" d="M13843.9896,-3731.5266L13844.6503,-3731.6532L13845.0394,-3731.7066L13845.3598,-3731.8466L13845.5597,-3731.9931"/>
<path content="AP030,1,28,1,0,14,1,8,JPN" xlink:title="AP030" d="M13851.5396,-3735.3065L13851.4694,-3735.2734L13851.1307,-3735.1799L13851.0193,-3735.2001L13850.9293,-3735.2333L13850.9003,-3735.2531L13850.8606,-3735.2734L13850.7202,-3735.2531L13850.65,-3735.2333L13850.1801,-3735.0735L13849.8093,-3734.9865L13849.5605,-3734.9464L13849.4003,-3734.9464L13849.3408,-3734.9464L13849.2905,-3734.9464L13849.2218,-3734.8888L13848.9899,-3734.6066L13848.8098,-3734.5001L13848.6298,-3734.4398L13848.4695,-3734.4067L13848.2697,-3734.3735L13847.8302,-3734.0466L13847.7005,-3733.9733L13847.6501,-3733.9535L13847.4899,-3733.8665L13847.3297,-3733.6533L13847.2397,-3733.5934L13847.0596,-3733.5064L13846.7896,-3733.3599L13846.4706,-3733.2001L13846.2906,-3733.1467L13846.1502,-3733.073L13845.9702,-3732.9666L13845.7199,-3732.8598L13845.61,-3732.7999L13845.5399,-3732.7332L13845.52,-3732.6065L13845.0394,-3732.4066L13844.5602,-3732.2464L13844.2001,-3731.9931L13844.1299,-3731.9401L13843.8599,-3731.9401L13843.6798,-3731.8466L13843.6295,-3731.813L13843.5394,-3731.76L13843.3807,-3731.5063L13842.72,-3731.0932L13842.45,-3730.8399L13842.2195,-3730.6599L13841.8304,-3730.32L13841.7206,-3730.2265L13841.6794,-3730.1933L13841.6504,-3730.1731L13841.4902,-3730.0266L13841.0599,-3729.6864L13840.8096,-3729.5067L13840.1505,-3728.9131L13840.1093,-3728.8597L13839.8804,-3728.2467"/>
<path content="AP030,1,28,1,0,16,1,8,JPN" xlink:title="AP030" d="M13840.1993,-3727.3998L13840.3793,-3727.7397L13840.5197,-3727.9732L13840.77,-3728.5L13840.9302,-3728.68L13841.3101,-3728.9997L13841.4703,-3729.2534L13841.5604,-3729.4666L13841.6306,-3729.5933L13841.8106,-3730.0465L13841.8594,-3730.1201L13842.2699,-3730.4398L13842.9306,-3731.02L13843.5196,-3731.3999L13843.9896,-3731.5266"/>
<path content="AP030,1,28,1,0,15,1,8,JPN" xlink:title="AP030" d="M13839.8804,-3728.2467L13840.1993,-3727.3998"/>
<path content="AP030,1,28,1,0,14,1,8,JPN" xlink:title="AP030" d="M13838.7695,-3727.0199L13839.3997,-3727.4666L13839.5203,-3727.5398L13839.65,-3727.8133L13839.83,-3728.1532L13839.8804,-3728.2467"/>
<path content="AP030,1,28,1,0,16,1,8,JPN" xlink:title="AP030" d="M13839.0836,-3726.5625L13839.2395,-3726.6399L13839.3997,-3726.7132L13839.83,-3727.0531L13840.1993,-3727.3998"/>
<path content="AP030,1,28,1,0,15,1,8,JPN" xlink:title="AP030" d="M13838.7695,-3727.0199L13838.7695,-3726.5625"/>
<path content="AP030,1,28,1,0,15,1,8,JPN" xlink:title="AP030" d="M13840.1993,-3727.3998L13840.5121,-3726.6308L13840.5281,-3726.5625"/>
<path content="AP030,1,28,1,0,14,1,8,JPN" xlink:title="AP030" d="M13838.074,-3726.5625L13838.0798,-3726.5663L13838.6093,-3726.9131L13838.7695,-3727.0199"/>
</g>
</svg>
