<?xml version="1.0" encoding="UTF-8"?>
<svg  xmlns="http://www.w3.org/2000/svg" xmlns:xlink="http://www.w3.org/1999/xlink" xmlns:go="http://purl.org/svgmap/profile" property="f_code,acc,exs,rst,med,rtt,RSU,loc,soc" viewBox="12937.5 -3234.375 70.3125 70.3125" go:dataArea="12937.5 -3234.375 70.3125 70.3125" >
<metadata>
 <rdf:RDF xmlns:rdf="http://www.w3.org/1999/02/22-rdf-syntax-ns#" xmlns:crs="http://opengis.org/xmldtds/transformations.dtd" xmlns:svg="http://www.w3.org/svg" >
  <rdf:Description>
   <crs:CoordinateReferenceSystem rdf:resource="http://purl.org/crs/84" svg:transform="matrix(100.0,0.0,0.0,-100.0,0.0,0.0)" />
  </rdf:Description>
 </rdf:RDF>
</metadata>
<globalCoordinateSystem srsName="http://purl.org/crs/84" transform="matrix(100.0,0.0,0.0,-100.0,0.0,0.0)" />
<defs>
 <g id="p0" >
  <circle cx="0.0" cy="0.0" r="3" stroke="green" stroke-width="2.0" vector-effect="non-scaling-stroke" />
 </g>
</defs>
<g fill="none" fill-rule="evenodd" stroke="#00ff00" stroke-width="2" opacity="0.5" vector-effect="non-scaling-stroke" stroke-linejoin="bevel" >
<path content="AP030,1,28,1,0,15,1,8,JPN" xlink:title="AP030" d="M13007.8125,-3233.7649L13007.7872,-3233.7162"/>
<path content="AP030,1,28,1,0,15,1,8,JPN" xlink:title="AP030" d="M13006.5655,-3234.375L13006.6681,-3234.2896L13007.7872,-3233.7162"/>
<path content="AP030,1,28,1,0,15,1,8,JPN" xlink:title="AP030" d="M13007.7872,-3233.7162L13007.4066,-3232.9819L13007.2403,-3231.9935"/>
<path content="AP030,1,28,1,0,14,1,8,JPN" xlink:title="AP030" d="M13007.2403,-3231.9935L13007.4295,-3232.0465L13007.8125,-3231.8541"/>
<path content="AP030,1,28,1,0,14,1,8,JPN" xlink:title="AP030" d="M12999.1812,-3234.375L12999.1806,-3234.3735L12999.1501,-3234.2464L12999.1302,-3234.1934L12999.1806,-3234.1732L12999.2004,-3234.2068L12999.3103,-3234.3201L12999.3301,-3234.3533L12999.3607,-3234.3334L12999.3607,-3234.28L12999.3103,-3234.1934L12999.2706,-3234.1L12999.2706,-3233.9931L12999.2706,-3233.9401L12999.3301,-3233.9535L12999.3301,-3233.9931L12999.3301,-3234.1202L12999.3607,-3234.1534L12999.4003,-3234.1331L12999.4507,-3234.0267L12999.4904,-3233.9199L12999.4705,-3233.8867L12999.3805,-3233.7933L12999.3607,-3233.7734L12999.3607,-3233.6334L12999.3607,-3233.4667L12999.2905,-3233.3267L12999.2004,-3233.0734L12999.1806,-3232.9666L12999.2706,-3232.84L12999.3103,-3232.6801L12999.3103,-3232.5134L12999.3103,-3232.4265L12999.3607,-3232.4066L12999.5193,-3232.28L12999.5193,-3232.1934L12999.4705,-3232.0465L12999.4705,-3231.9733L12999.5193,-3231.9401L12999.6094,-3231.8466L12999.5804,-3231.8134L12999.5193,-3231.7932L12999.4507,-3231.76L12999.5193,-3231.7066L12999.5605,-3231.6666L12999.5407,-3231.6132L12999.5605,-3231.5601L12999.6796,-3231.5399L12999.7696,-3231.5266L12999.8306,-3231.5601L12999.8596,-3231.6868L12999.9298,-3231.76L12999.9496,-3231.7932L13000,-3231.7932L13000.0198,-3231.7932L13000.0595,-3231.7066L13000.1099,-3231.6666L13000.1297,-3231.7066L13000.1297,-3231.7932L13000.1801,-3231.8333L13000.1801,-3231.8466L13000.1801,-3231.9L13000.1801,-3231.9935L13000.2396,-3231.9935L13000.3098,-3231.9935L13000.3799,-3231.9401L13000.4303,-3231.9401L13000.47,-3232.0465L13000.5203,-3232.0667L13000.56,-3232.0133L13000.47,-3231.8333L13000.4303,-3231.76L13000.4303,-3231.72L13000.4501,-3231.6532L13000.5402,-3231.5266L13000.6332,-3231.263L13000.7751,-3231.1756L13000.8804,-3231.1466L13000.9903,-3231.1798L13001.0193,-3231.2332L13001.0803,-3231.3801L13001.4297,-3231.4133L13001.7395,-3231.3999L13001.86,-3231.3999L13001.9699,-3231.4133L13002.15,-3231.5266L13002.1805,-3231.5399L13002.2903,-3231.58L13002.6077,-3231.6154L13002.7695,-3231.5601L13003.4698,-3231.4533L13003.7201,-3231.4667L13003.9307,-3231.5399L13004.0405,-3231.5601L13004.2007,-3231.4667L13004.4495,-3231.2199L13004.5395,-3231.1268L13004.6097,-3231.0932L13004.7394,-3231.0734L13004.9698,-3231.02L13005.3802,-3230.9868L13005.4703,-3230.9467L13005.4901,-3230.8735L13005.4703,-3230.7865L13005.6107,-3230.6801L13005.6107,-3230.6599L13005.6107,-3230.5L13005.6793,-3230.4268L13005.7404,-3230.4268L13005.9006,-3230.4798L13005.9906,-3230.5L13006.1295,-3230.4798L13006.1798,-3230.5L13006.5598,-3230.7465L13006.7398,-3230.8933L13007.1106,-3231.1798L13007.1793,-3231.2733L13007.1304,-3231.6132L13007.2403,-3231.9935"/>
<path content="AP030,1,28,1,0,14,1,8,JPN" xlink:title="AP030" d="M13007.8125,-3230.6117L13007.8094,-3230.6065L13007.6492,-3230.4798L13007.5195,-3230.3867L13007.2403,-3230.0465L13007.1106,-3229.7932L13007.0602,-3229.4533L13007.0206,-3229.2732L13006.9504,-3229.0401L13006.9,-3228.9131L13006.9305,-3228.68L13006.8298,-3228.5L13006.7001,-3228.3199L13006.4301,-3228.0998L13006.3293,-3227.9202L13006.2698,-3227.7733L13006.1798,-3227.6134L13006.0196,-3227.4666L13005.9494,-3227.4132L13005.8807,-3227.38"/>
<path content="AP030,1,28,1,0,14,1,8,JPN" xlink:title="AP030" d="M13005.8807,-3227.38L13005.8304,-3227.3067L13005.8304,-3227.1065L13005.8807,-3226.82L13005.8807,-3226.7132L13005.9692,-3226.6602L13006.0806,-3226.6201L13006.2698,-3226.44L13006.2897,-3226.3535L13006.3293,-3226.2798L13006.3293,-3226.2066L13006.2393,-3226.12L13006.1798,-3225.9533L13006.1295,-3225.7935L13005.8807,-3225.5932L13005.7205,-3225.4002L13005.6305,-3225.2865L13005.5801,-3225.2201L13005.3299,-3225.1465L13005.22,-3225.0935L13005.1102,-3224.8932L13005.0797,-3224.7868L13005.1102,-3224.6601L13005.2399,-3224.4064L13005.2704,-3224.3L13005.2399,-3224.2268L13005.1804,-3224.1734L13004.95,-3224.0665L13004.8294,-3223.9399L13004.6997,-3223.8667L13004.6097,-3223.8132L13004.4907,-3223.5401L13004.3594,-3223.2334L13004.3106,-3223.1266L13004.1794,-3222.9668L13003.9505,-3222.7135L13003.8803,-3222.6799L13003.7704,-3222.7665L13003.6804,-3222.7333L13003.6301,-3222.6601L13003.5202,-3222.6067L13003.3798,-3222.6067L13003.3295,-3222.5533L13003.3295,-3222.4068L13003.2394,-3222.3L13003.2196,-3222.2065L13003.27,-3222.1199L13003.27,-3222.0135L13003.27,-3221.9734L13003.1799,-3221.8132L13003.1494,-3221.6331"/>
<path content="AP030,1,28,1,0,15,1,8,JPN" xlink:title="AP030" d="M13007.8125,-3224.3554L13007.7682,-3224.3237L13007.7148,-3223.9166L13007.5592,-3223.2384L13007.2449,-3222.7859L13006.9473,-3222.554L13006.7734,-3222.3339L13006.9305,-3222.1077L13007.193,-3221.8819L13007.193,-3221.6557L13007.0358,-3221.4748L13006.7734,-3221.294L13006.3553,-3221.294L13005.4657,-3221.3394L13004.4174,-3221.2944L13003.9993,-3221.204L13003.1494,-3221.6331"/>
<path content="AP030,1,28,1,0,14,1,8,JPN" xlink:title="AP030" d="M13003.1494,-3221.6331L13003.1296,-3221.5401L13002.8793,-3221.4664L13002.6505,-3221.4001L13002.6093,-3221.2532L13002.6505,-3220.9667L13002.6794,-3220.8401L13002.7893,-3220.66L13002.8793,-3220.48L13002.9007,-3220.3732L13002.8793,-3220.2065L13002.7893,-3219.9932L13002.7206,-3219.9001L13002.4902,-3219.7933L13002.3788,-3219.706L13002.475,-3219.4626L13002.4569,-3219.3977"/>
<path content="AP030,1,28,1,0,15,1,8,JPN" xlink:title="AP030" d="M13005.8807,-3227.38L13004.7562,-3227.6997L13004.184,-3227.6493L13003.2883,-3227.2343L13002.9938,-3227.1564L13002.6062,-3227.3296L13002.3849,-3227.1545L13002.3712,-3226.7651L13002.5955,-3226.4221L13002.2614,-3225.4089L13001.9974,-3225.0751L13001.5152,-3225.0324L13001.1215,-3224.765L13000.6927,-3224.1116L13001.268,-3223.5435L13001.3031,-3222.7154L13001.4481,-3222.3339L13001.6068,-3222.0371L13001.0773,-3221.6282L13000.6256,-3220.8374L13000.8377,-3220.3384L13001.4893,-3219.9062L13002.4569,-3219.3977"/>
<path content="AP030,1,28,1,0,15,1,8,JPN" xlink:title="AP030" d="M12983.7234,-3186.5904L12983.8409,-3186.9535L12984.6222,-3187.0119L12985.0876,-3187.0935L12985.5713,-3187.6312L12985.968,-3187.2955L12986.8195,-3186.4609L12986.3327,-3185.2716L12986.2228,-3183.5764"/>
<path content="AP030,1,28,1,0,15,1,8,JPN" xlink:title="AP030" d="M12990.8813,-3183.9211L12990.1855,-3183.7921L12989.9963,-3184.0452L12989.4424,-3184.0635L12988.6063,-3183.7873L12987.5793,-3183.4606L12986.9156,-3183.4017L12986.2228,-3183.5764"/>
<path content="AP030,1,28,1,0,15,1,8,JPN" xlink:title="AP030" d="M12986.2228,-3183.5764L12985.8704,-3183.8821L12985.3821,-3183.6702L12984.4696,-3182.9767L12984.0607,-3182.2046L12984.0225,-3181.2237L12983.7387,-3180.9624L12983.429,-3180.5134L12983.6609,-3179.978"/>
<path content="AP030,1,28,1,0,15,1,8,JPN" xlink:title="AP030" d="M12979.2938,-3177.6007L12979.4891,-3177.2343L12979.4235,-3176.2285L12978.5828,-3175.6004L12977.6901,-3174.5287L12977.3102,-3173.177L12976.3763,-3172.4195L12974.4614,-3171.6417L12973.4833,-3169.9816L12973.6862,-3169.2806L12973.1644,-3169.0317L12973.1689,-3168.0212L12972.9065,-3167.5934L12972.4319,-3167.2812L12972.1771,-3166.7866L12972.1176,-3166.3094L12972.1359,-3165.8392L12971.6064,-3165.657L12970.5627,-3165.4961L12970.0607,-3165.4173L12969.7647,-3165.2559L12969.7937,-3165.0227L12969.9249,-3164.5964L12970.022,-3164.0625"/>
</g>
</svg>
