<?xml version="1.0" encoding="UTF-8"?>
<svg  xmlns="http://www.w3.org/2000/svg" xmlns:xlink="http://www.w3.org/1999/xlink" xmlns:go="http://purl.org/svgmap/profile" property="f_code,acc,exs,rst,med,rtt,RSU,loc,soc" viewBox="14062.5 -3656.25 281.25 281.25" go:dataArea="14062.5 -3656.25 281.25 281.25" >
<metadata>
 <rdf:RDF xmlns:rdf="http://www.w3.org/1999/02/22-rdf-syntax-ns#" xmlns:crs="http://opengis.org/xmldtds/transformations.dtd" xmlns:svg="http://www.w3.org/svg" >
  <rdf:Description>
   <crs:CoordinateReferenceSystem rdf:resource="http://purl.org/crs/84" svg:transform="matrix(100.0,0.0,0.0,-100.0,0.0,0.0)" />
  </rdf:Description>
 </rdf:RDF>
</metadata>
<globalCoordinateSystem srsName="http://purl.org/crs/84" transform="matrix(100.0,0.0,0.0,-100.0,0.0,0.0)" />
<defs>
 <g id="p0" >
  <circle cx="0.0" cy="0.0" r="3" stroke="green" stroke-width="2.0" vector-effect="non-scaling-stroke" />
 </g>
</defs>
<g fill="none" fill-rule="evenodd" stroke="#00ff00" stroke-width="2" opacity="0.5" vector-effect="non-scaling-stroke" stroke-linejoin="bevel" >
<path content="AP030,1,28,1,0,14,1,8,JPN" xlink:title="AP030" d="M14062.5,-3655.5151L14062.7396,-3655.7068L14062.9303,-3655.7732L14063.5193,-3656.1333L14063.6505,-3656.2267L14063.6505,-3656.25"/>
<path content="AP030,1,28,1,0,14,1,8,JPN" xlink:title="AP030" d="M14062.5,-3650.0994L14062.5198,-3650.1202L14062.6801,-3650.2464L14062.8296,-3650.3864L14062.8296,-3650.4997L14062.8601,-3650.6065L14062.8799,-3650.6931L14062.97,-3651.0532L14062.9898,-3651.1467L14063.0798,-3651.4L14063.0798,-3651.4866L14062.9898,-3651.5934L14062.97,-3651.6132L14062.7701,-3651.8665L14062.7396,-3652.0664L14062.8098,-3652.1534L14062.8799,-3652.2266L14062.9501,-3652.2999L14063.2706,-3652.5333L14063.3102,-3652.6066L14063.4003,-3652.7134L14063.4903,-3652.8599L14063.6307,-3653.2867L14063.6307,-3653.4534L14063.6993,-3653.7933L14063.7207,-3653.8334L14063.8107,-3654.0134L14063.8794,-3654.1534L14063.9694,-3654.2999L14063.9893,-3654.3198L14064.0198,-3654.3732L14064.0396,-3654.4266L14064.0594,-3654.4998L14064.0594,-3654.6066L14064.0793,-3654.6932L14064.18,-3654.8L14064.1998,-3654.8199L14064.2395,-3654.9465L14064.27,-3655.1666L14064.2899,-3655.3265L14064.3997,-3655.4531L14064.5401,-3655.6332L14064.5798,-3655.8666L14064.6301,-3655.9734L14064.6301,-3656.25"/>
<path content="AP030,1,28,1,0,14,1,8,JPN" xlink:title="AP030" d="M14062.5,-3604.5021L14062.5198,-3604.4601L14062.6297,-3604.3331L14062.6801,-3604.2801L14062.9303,-3603.6667L14063.0798,-3603.3268L14063.1104,-3603.2532L14063.1805,-3603.0399L14063.2401,-3602.9133L14063.3301,-3602.8198L14063.3804,-3602.7466L14063.4705,-3602.5867L14063.5406,-3602.3533L14063.8596,-3601.8333L14063.8992,-3601.6666L14063.9297,-3601.5266L14064.0396,-3601.2867L14064.0793,-3601.1799L14064.4302,-3600.5135L14064.5798,-3600.3201L14064.6805,-3600.1331L14064.74,-3599.9531L14064.9902,-3599.3797"/>
<path content="AP030,1,28,1,0,14,1,8,JPN" xlink:title="AP030" d="M14064.1296,-3598.5001L14064.1495,-3598.5332L14064.2197,-3598.6797L14064.36,-3598.7667L14064.6301,-3598.8598L14064.74,-3598.9468L14064.8102,-3599.0532L14064.8605,-3599.1066L14064.9307,-3599.2001L14064.9902,-3599.3065L14064.9902,-3599.3797"/>
<path content="AP030,1,28,1,0,14,1,8,JPN" xlink:title="AP030" d="M14064.2395,-3599.3465L14064.18,-3598.7999L14064.0793,-3598.6797L14064.1296,-3598.5001"/>
<path content="AP030,1,28,1,0,14,1,8,JPN" xlink:title="AP030" d="M14062.5,-3597.2607L14063.4003,-3597.7066"/>
<path content="AP030,1,28,1,0,14,1,8,JPN" xlink:title="AP030" d="M14063.15,-3596.5332L14063.2004,-3596.553L14063.4506,-3596.5668L14063.4705,-3596.5668L14063.8306,-3596.7331L14063.9297,-3596.8201L14063.9297,-3596.9997L14063.8992,-3597.0932L14063.8992,-3597.1466L14063.8794,-3597.253L14063.8596,-3597.4667L14063.8794,-3597.5597L14063.9297,-3597.7734L14063.9297,-3597.7932L14064.0198,-3598.0133L14064.0594,-3598.2067L14064.1098,-3598.3868L14064.1296,-3598.5001"/>
<path content="AP030,1,28,1,0,14,1,8,JPN" xlink:title="AP030" d="M14062.5,-3596.3867L14062.5198,-3596.3867L14062.7396,-3596.4397L14062.8098,-3596.46L14063.15,-3596.5332"/>
<path content="AP030,1,28,1,0,15,1,8,JPN" xlink:title="AP030" d="M14067.099,-3596.0648L14066.1682,-3598.2426L14065.8707,-3598.991L14064.9902,-3599.3797"/>
<path content="AP030,1,28,1,0,15,1,8,JPN" xlink:title="AP030" d="M14064.3295,-3596.0133L14067.099,-3596.0648"/>
<path content="AP030,1,28,1,0,15,1,8,JPN" xlink:title="AP030" d="M14067.8162,-3594.9085L14067.099,-3596.0648"/>
<path content="AP030,1,28,1,0,14,1,8,JPN" xlink:title="AP030" d="M14064.3295,-3596.0133L14064.5798,-3595.38L14064.5599,-3595.2332L14064.3295,-3594.4065"/>
<path content="AP030,1,28,1,0,14,1,8,JPN" xlink:title="AP030" d="M14063.15,-3596.5332L14063.15,-3596.5L14063.1805,-3596.4066L14063.2202,-3596.3333L14063.3102,-3596.2467L14063.4705,-3596.1933L14063.5803,-3596.133L14063.6505,-3596.0999L14063.7894,-3596.0464L14063.8306,-3595.94L14063.8306,-3595.8134L14063.8107,-3595.4865L14063.8306,-3595.2866L14063.8992,-3594.9867L14063.9694,-3594.7998L14063.9893,-3594.6068L14064.0594,-3594.5332L14064.1296,-3594.5133L14064.2197,-3594.5L14064.3295,-3594.4065"/>
<path content="AP030,1,28,1,0,14,1,8,JPN" xlink:title="AP030" d="M14064.3295,-3594.4065L14064.3295,-3594.26L14064.27,-3593.9732"/>
<path content="AP030,1,28,1,0,15,1,8,JPN" xlink:title="AP030" d="M14062.5,-3594.6911L14062.7914,-3594.315L14064.27,-3593.9732"/>
<path content="AP030,1,28,1,0,14,1,8,JPN" xlink:title="AP030" d="M14064.3295,-3594.4065L14064.3997,-3594.3531L14064.5798,-3594.2265L14064.7705,-3594.1334L14064.8804,-3594.0998L14065.0192,-3594.08L14065.1505,-3594.08L14065.2695,-3594.0666L14065.4694,-3594.0132L14065.7196,-3593.94L14065.7898,-3593.8866L14065.8096,-3593.7931L14065.8096,-3593.6131"/>
<path content="AP030,1,28,1,0,15,1,8,JPN" xlink:title="AP030" d="M14064.18,-3593.56L14065.8096,-3593.6131"/>
<path content="AP030,1,28,1,0,14,1,8,JPN" xlink:title="AP030" d="M14064.27,-3593.9732L14064.1998,-3593.6867L14064.18,-3593.56"/>
<path content="AP030,1,28,1,0,15,1,8,JPN" xlink:title="AP030" d="M14065.6998,-3593.0931L14066.2735,-3593.1667L14066.478,-3594.3939L14067.8162,-3594.9085"/>
<path content="AP030,1,28,1,0,14,1,8,JPN" xlink:title="AP030" d="M14065.8096,-3593.6131L14065.7898,-3593.5265L14065.6998,-3593.0931"/>
<path content="AP030,1,28,1,0,14,1,8,JPN" xlink:title="AP030" d="M14064.18,-3593.56L14064.0594,-3593.0733L14063.9694,-3592.6201L14063.8596,-3592.0666L14063.7695,-3591.5932L14063.6795,-3591.1064L14063.6505,-3590.9466L14063.6307,-3590.7867L14063.6093,-3590.6399L14063.5605,-3590.5132"/>
<path content="AP030,1,28,1,0,14,1,8,JPN" xlink:title="AP030" d="M14063.7894,-3590.2065L14064.0396,-3590.4598L14064.1296,-3590.5666L14064.27,-3590.6933L14064.5401,-3590.913L14064.65,-3591L14064.8102,-3591.2533L14064.9902,-3591.4532L14065.1505,-3591.5932L14065.3107,-3591.7198L14065.3793,-3591.8331L14065.4297,-3591.9201L14065.4495,-3591.9533L14065.4907,-3592.0265L14065.5396,-3592.0998L14065.5807,-3592.3332L14065.6097,-3592.6201L14065.6998,-3593.0931"/>
<path content="AP030,1,28,1,0,14,1,8,JPN" xlink:title="AP030" d="M14063.5605,-3590.5132L14063.7894,-3590.2065"/>
<path content="AP030,1,28,1,0,14,1,8,JPN" xlink:title="AP030" d="M14063.5605,-3590.5132L14063.5406,-3590.4064L14063.4903,-3590.1333"/>
<path content="AP030,1,28,1,0,16,1,8,JPN" xlink:title="AP030" d="M14062.5,-3590.5652L14062.5793,-3590.4999L14062.7197,-3590.4266L14062.8098,-3590.3866L14063.1302,-3590.2466L14063.4903,-3590.1333"/>
<path content="AP030,1,28,1,0,14,1,8,JPN" xlink:title="AP030" d="M14063.6307,-3590.0665L14063.7894,-3590.2065"/>
<path content="AP030,1,28,1,0,14,1,8,JPN" xlink:title="AP030" d="M14063.4903,-3590.1333L14063.6307,-3590.0665"/>
<path content="AP030,1,28,1,0,14,1,8,JPN" xlink:title="AP030" d="M14063.7894,-3590.2065L14063.9297,-3589.9399"/>
<path content="AP030,1,28,1,0,14,1,8,JPN" xlink:title="AP030" d="M14063.6307,-3590.0665L14063.9297,-3589.9399"/>
<path content="AP030,1,28,1,0,14,1,8,JPN" xlink:title="AP030" d="M14063.9297,-3589.9399L14064.1998,-3589.8331L14064.6301,-3589.653L14064.6805,-3589.6332L14065.2206,-3589.3997L14065.4694,-3589.2864L14065.6097,-3589.233L14066.0797,-3589.0533"/>
<path content="AP030,1,28,1,0,15,1,8,JPN" xlink:title="AP030" d="M14067.8162,-3594.9085L14068.5272,-3595.0127L14069.2032,-3593.856L14070.0043,-3592.3592L14069.5038,-3591.9151L14069.7556,-3591.473L14069.7174,-3590.8257L14071.2112,-3588.6581"/>
<path content="AP030,1,28,1,0,15,1,8,JPN" xlink:title="AP030" d="M14063.295,-3587.5397L14064.534,-3587.7571L14066.0797,-3589.0533"/>
<path content="AP030,1,28,1,0,15,1,8,JPN" xlink:title="AP030" d="M14063.6307,-3590.0665L14063.0264,-3588.9332L14062.5259,-3588.3865L14062.6953,-3587.8761L14063.295,-3587.5397"/>
<path content="AP030,1,28,1,0,15,1,8,JPN" xlink:title="AP030" d="M14068.9697,-3587.3066L14071.2112,-3588.6581"/>
<path content="AP030,1,28,1,0,14,1,8,JPN" xlink:title="AP030" d="M14066.0797,-3589.0533L14066.5207,-3588.8599L14066.7007,-3588.7665L14067.3096,-3588.533L14067.72,-3588.3533L14068.0405,-3588.1931L14068.2404,-3588.0798L14068.2907,-3588.0466L14068.4006,-3587.9532L14068.5593,-3587.8132L14068.6295,-3587.7399L14068.8293,-3587.5599L14068.9697,-3587.3066"/>
<path content="AP030,1,28,1,0,14,1,8,JPN" xlink:title="AP030" d="M14068.9697,-3587.3066L14069.1299,-3587.0934L14069.4702,-3586.6398L14069.8807,-3586.1L14069.9707,-3585.9531"/>
<path content="AP030,1,28,1,0,15,1,8,JPN" xlink:title="AP030" d="M14063.295,-3587.5397L14065.0024,-3586.8271L14066.6367,-3586.3888L14068.8141,-3586.2244L14069.9707,-3585.9531"/>
<path content="AP030,1,28,1,0,15,1,8,JPN" xlink:title="AP030" d="M14062.5,-3587.099L14063.295,-3587.5397"/>
<path content="AP030,1,28,1,0,15,1,8,JPN" xlink:title="AP030" d="M14069.9707,-3585.9531L14070.2194,-3585.5801"/>
<path content="AP030,1,28,1,0,14,1,8,JPN" xlink:title="AP030" d="M14069.9707,-3585.9531L14070.1096,-3585.7399L14070.2194,-3585.5801"/>
<path content="AP030,1,28,1,0,14,1,8,JPN" xlink:title="AP030" d="M14070.2194,-3585.5801L14070.4697,-3585.2734L14070.7397,-3584.8732L14071.0403,-3584.4799L14071.1807,-3584.28"/>
<path content="AP030,1,28,1,0,14,1,8,JPN" xlink:title="AP030" d="M14062.5,-3584.4067L14062.5397,-3584.4067L14062.6999,-3584.4265L14062.8799,-3584.4601L14063.1302,-3584.4997L14063.2706,-3584.5333L14063.4705,-3584.5333L14063.6093,-3584.5131L14063.7894,-3584.4997L14064.0594,-3584.4799L14064.3097,-3584.4601L14064.4501,-3584.4601L14064.6301,-3584.4601L14064.7003,-3584.4398L14064.7903,-3584.3864L14064.83,-3584.3864L14065.0436,-3584.3864L14065.2405,-3584.3864L14065.3793,-3584.3731L14065.5396,-3584.333L14065.6998,-3584.2999L14065.8096,-3584.2266L14065.8798,-3584.193L14065.9698,-3584.1L14066.04,-3584.0267L14066.1102,-3583.9931L14066.2003,-3583.9733"/>
<path content="AP030,1,28,1,0,15,1,8,JPN" xlink:title="AP030" d="M14071.2112,-3588.6581L14074.5972,-3583.7509"/>
<path content="AP030,1,28,1,0,15,1,25,JPN" xlink:title="AP030" d="M14069.4699,-3583.2137L14070.8261,-3584.059"/>
<path content="AP030,1,28,1,0,14,1,8,JPN" xlink:title="AP030" d="M14066.2003,-3583.9733L14066.4001,-3583.9733L14066.6504,-3583.9733L14066.8304,-3583.9733L14067.0807,-3583.9397L14067.3294,-3583.9001L14067.6102,-3583.8131L14067.9504,-3583.7399L14068.1793,-3583.6864L14068.4296,-3583.5934L14068.6295,-3583.5266L14068.8797,-3583.4L14069.0796,-3583.3065L14069.2398,-3583.2199L14069.3298,-3583.1264"/>
<path content="AP030,1,28,1,0,15,1,8,JPN" xlink:title="AP030" d="M14072.3999,-3582.6065L14074.5972,-3583.7509"/>
<path content="AP030,1,28,1,0,14,1,8,JPN" xlink:title="AP030" d="M14071.1807,-3584.28L14071.3104,-3584.0797L14071.4706,-3583.8867L14071.5393,-3583.773L14071.8094,-3583.4332L14072.02,-3583.1066L14072.1802,-3582.8934L14072.2702,-3582.7667L14072.3999,-3582.6065"/>
<path content="AP030,1,28,1,0,14,1,8,JPN" xlink:title="AP030" d="M14072.3999,-3582.6065L14072.4899,-3582.5333L14072.5204,-3582.5134L14072.5403,-3582.5001"/>
<path content="AP030,1,28,1,0,14,1,8,JPN" xlink:title="AP030" d="M14069.3298,-3583.1264L14069.5404,-3582.9266L14069.6106,-3582.8598L14069.6793,-3582.7866L14069.7906,-3582.6797L14069.9905,-3582.5134L14070.1797,-3582.3334L14070.3094,-3582.1732L14070.3796,-3582.0465L14070.43,-3581.9L14070.4697,-3581.76L14070.4895,-3581.7066L14070.52,-3581.5598L14070.5795,-3581.3999L14070.7199,-3581.1665L14070.7703,-3581.0734"/>
<path content="AP030,1,28,1,0,15,1,8,JPN" xlink:title="AP030" d="M14074.5972,-3583.7509L14074.8917,-3583.3088L14075.5188,-3583.3782L14076.152,-3581.5399L14077.7847,-3580.521L14078.624,-3579.7729"/>
<path content="AP030,1,28,1,0,15,1,8,JPN" xlink:title="AP030" d="M14070.7703,-3581.0734L14070.6665,-3580.8868L14070.343,-3580.3005L14071.3928,-3579.0085"/>
<path content="AP030,1,28,1,0,14,1,8,JPN" xlink:title="AP030" d="M14072.5403,-3582.5001L14072.5601,-3582.3868L14072.58,-3582.2998L14072.6501,-3582.1934L14072.6501,-3582.0465L14072.6303,-3581.9401L14072.6807,-3581.8466L14072.7905,-3581.6868L14072.9004,-3581.5399L14072.9706,-3581.4533L14073.0194,-3581.3065L14073.0804,-3581.2L14073.1094,-3581.0532L14073.1506,-3580.9467L14073.1995,-3580.7999L14073.3093,-3580.64L14073.5199,-3580.5L14073.6298,-3580.3867L14073.7701,-3580.2601L14073.9502,-3580.1201L14074.1501,-3579.8664L14074.3607,-3579.6131L14074.4705,-3579.4334L14074.5605,-3579.2866L14074.8306,-3579.0932L14075.0595,-3578.8597L14075.2396,-3578.68L14075.3098,-3578.6198L14075.3998,-3578.6064L14075.5402,-3578.68L14075.6302,-3578.7666L14075.65,-3578.7998L14075.7706,-3578.7666L14075.8301,-3578.68L14075.9506,-3578.5667L14076.1505,-3578.5"/>
<path content="AP030,1,28,1,0,15,1,8,JPN" xlink:title="AP030" d="M14065.625,-3578.3119L14067.1692,-3579.1679L14068.9682,-3578.9345L14070.3476,-3578.9036L14071.3928,-3579.0085"/>
<path content="AP030,1,28,1,0,15,1,8,JPN" xlink:title="AP030" d="M14066.2003,-3583.9733L14065.9821,-3583.6895L14064.6469,-3581.9542L14064.5279,-3580.7278L14064.4897,-3579.7394L14064.9094,-3579.5025L14065.2451,-3579.1626L14065.625,-3578.3119"/>
<path content="AP030,1,28,1,0,15,1,8,JPN" xlink:title="AP030" d="M14077.5406,-3577.8332L14078.624,-3579.7729"/>
<path content="AP030,1,28,1,0,14,1,8,JPN" xlink:title="AP030" d="M14072.5403,-3582.5001L14072.6303,-3582.46L14072.9004,-3582.32L14073.1293,-3582.1533L14073.3597,-3581.9199L14073.7,-3581.5598L14074.0799,-3581.1268L14074.3301,-3580.8598L14074.6307,-3580.4798L14075.0198,-3580.0667L14075.2396,-3579.8332L14075.7202,-3579.3999L14075.8102,-3579.3064L14076.1993,-3578.9665L14076.3992,-3578.7865L14076.4496,-3578.7666L14076.5198,-3578.7132L14076.5396,-3578.6598L14076.5793,-3578.6198L14076.68,-3578.5534L14077.1301,-3578.1734L14077.3804,-3577.9732L14077.5406,-3577.8332"/>
<path content="AP030,1,28,1,0,14,1,8,JPN" xlink:title="AP030" d="M14077.5406,-3577.8332L14077.7405,-3577.6867"/>
<path content="AP030,1,28,1,0,14,1,8,JPN" xlink:title="AP030" d="M14076.1505,-3578.5L14076.2207,-3578.4599L14076.3596,-3578.3333L14076.4297,-3578.2265L14076.6098,-3578.12L14076.86,-3577.9732L14077.24,-3577.8332L14077.4506,-3577.7397L14077.6505,-3577.6867L14077.7405,-3577.6867"/>
<path content="AP030,1,28,1,0,15,1,25,JPN" xlink:title="AP030" d="M14075.2471,-3577.3578L14075.8239,-3578.0403L14075.8395,-3578.0588"/>
<path content="AP030,1,28,1,0,14,1,8,JPN" xlink:title="AP030" d="M14070.7703,-3581.0734L14070.8603,-3580.9467L14071.0403,-3580.7133L14071.1807,-3580.4798L14071.2692,-3580.3532L14071.3593,-3580.2799L14071.5607,-3580.2265L14071.6995,-3580.1731L14071.8307,-3580.0667L14071.9894,-3579.9L14072.1298,-3579.6867L14072.2702,-3579.4666L14072.3099,-3579.38L14072.4503,-3579.2L14072.6303,-3579.0199L14072.7905,-3578.8933L14072.9507,-3578.7666L14073.1293,-3578.5332L14073.1796,-3578.5L14073.2407,-3578.4267L14073.3994,-3578.2799L14073.4894,-3578.2066L14073.6496,-3578.1532L14073.79,-3578.0998L14073.97,-3577.9732L14074.1501,-3577.8332L14074.4507,-3577.6665L14074.7406,-3577.5066L14075.0397,-3577.3266L14075.1554,-3577.2494"/>
<path content="AP030,1,28,1,0,15,1,8,JPN" xlink:title="AP030" d="M14074.8084,-3576.8861L14075.1554,-3577.2494"/>
<path content="AP030,1,28,1,0,15,1,8,JPN" xlink:title="AP030" d="M14071.3928,-3579.0085L14072.9431,-3577.8198L14074.1867,-3577.1973L14074.8084,-3576.8861"/>
<path content="AP030,1,28,1,0,15,1,8,JPN" xlink:title="AP030" d="M14062.5,-3576.7231L14064.5004,-3577.2869L14065.625,-3578.3119"/>
<path content="AP030,1,28,1,0,15,1,8,JPN" xlink:title="AP030" d="M14078.624,-3579.7729L14079.4205,-3578.7525L14080.0095,-3577.5269L14080.8899,-3576.5743L14081.6101,-3575.1801"/>
<path content="AP030,1,28,1,0,14,1,8,JPN" xlink:title="AP030" d="M14077.7405,-3577.6867L14078.0396,-3577.5799L14078.3997,-3577.4132L14078.6499,-3577.2865L14078.7903,-3577.1999L14078.9307,-3577.0397L14079.1306,-3576.7666L14079.4693,-3576.3866L14079.6799,-3576.1932L14079.8096,-3576.0666L14079.9896,-3575.8667L14080.0797,-3575.7935L14080.1102,-3575.7732L14080.2902,-3575.7065L14080.3604,-3575.6866L14080.7907,-3575.5264L14081.1493,-3575.3799L14081.6101,-3575.1801"/>
<path content="AP030,1,28,1,0,15,1,8,JPN" xlink:title="AP030" d="M14081.6101,-3575.1801L14082.4005,-3574.8199"/>
<path content="AP030,1,28,1,0,14,1,8,JPN" xlink:title="AP030" d="M14082.4005,-3574.8199L14082.4905,-3574.7467L14082.5195,-3574.6933"/>
<path content="AP030,1,28,1,0,15,1,8,JPN" xlink:title="AP030" d="M14074.8084,-3576.8861L14074.5438,-3576.724L14074.0961,-3576.5812L14073.7651,-3576.3988L14073.2395,-3575.8277L14072.9865,-3575.5501L14072.71,-3575.452L14072.35,-3575.488L14071.87,-3575.555L14071.52,-3575.606L14071.27,-3575.594L14070.54,-3575.457L14070.03,-3575.354L14069.6,-3575.244L14069.33,-3575.161L14069.14,-3575.043L14069.05,-3574.921L14069.011,-3574.6348"/>
<path content="AP030,1,28,1,0,15,1,8,JPN" xlink:title="AP030" d="M14065.625,-3578.3119L14066.922,-3578.3157L14067.424,-3577.9762L14068.3456,-3577.57L14068.9346,-3576.6178L14068.7286,-3575.9697L14068.689,-3575.2205L14069.011,-3574.6348"/>
<path content="AP030,1,28,1,0,15,1,8,JPN" xlink:title="AP030" d="M14082.4005,-3573.1998L14083.2935,-3573.2577"/>
<path content="AP030,1,28,1,0,14,1,25,JPN" xlink:title="AP030" d="M14082.4905,-3574.4598L14082.4493,-3573.9933L14082.4295,-3573.5065"/>
<path content="AP030,1,28,1,0,14,1,8,JPN" xlink:title="AP030" d="M14075.1554,-3577.2494L14075.1999,-3577.2198L14075.2701,-3577.1797L14075.4898,-3577.0517L14075.7706,-3576.9135L14075.9293,-3576.82L14076.0605,-3576.68L14076.1505,-3576.5667L14076.1795,-3576.4999L14076.3107,-3576.44L14076.5396,-3576.3199L14076.77,-3576.1734L14076.9302,-3576.0132L14077.0798,-3575.8331L14077.33,-3575.56L14077.4506,-3575.4532L14077.4902,-3575.4131L14077.6306,-3575.3468L14077.7893,-3575.2335L14077.9495,-3575.1266L14078.1296,-3575.0198L14078.3295,-3574.9466L14078.45,-3574.8932L14078.4698,-3574.8932L14078.6499,-3574.8199L14078.8101,-3574.7665L14078.9001,-3574.6933L14078.9703,-3574.6067L14079.0405,-3574.5335L14079.0604,-3574.4999L14079.1504,-3574.3534L14079.2206,-3574.2466L14079.3594,-3574.1531L14079.6494,-3574.0131L14079.9301,-3573.8667L14080.1498,-3573.7598L14080.1804,-3573.7598L14080.3802,-3573.6534L14080.6793,-3573.5268L14080.9906,-3573.4135L14081.2393,-3573.3467L14081.2897,-3573.3265L14081.5598,-3573.2533L14081.7398,-3573.2201L14081.8298,-3573.1998L14081.8802,-3573.1998L14081.9305,-3573.1998L14082.1503,-3573.18L14082.3593,-3573.1998L14082.4005,-3573.1998"/>
<path content="AP030,1,28,1,0,15,1,8,JPN" xlink:title="AP030" d="M14062.5,-3576.2798L14062.764,-3576.0906L14063.472,-3574.9313L14064.003,-3573.9166L14064.18,-3573.1922L14065.1306,-3572.44"/>
<path content="AP030,1,28,1,0,14,1,8,JPN" xlink:title="AP030" d="M14064.7003,-3572.4068L14064.9307,-3572.4266L14065.1306,-3572.44"/>
<path content="AP030,1,28,1,0,15,1,8,JPN" xlink:title="AP030" d="M14069.011,-3574.6348L14069.4705,-3573.8235L14069.5846,-3573.2967L14069.4515,-3572.8785L14069.2044,-3572.5067L14068.8599,-3572.2599"/>
<path content="AP030,1,28,1,0,14,1,8,JPN" xlink:title="AP030" d="M14065.1306,-3572.44L14065.2695,-3572.4598L14065.7394,-3572.4998L14065.86,-3572.5132L14066.1102,-3572.5533L14066.4505,-3572.5864L14066.8304,-3572.62L14066.9495,-3572.6067L14067.0349,-3572.5452L14067.0807,-3572.5132L14067.2699,-3572.4266L14067.3996,-3572.3L14067.63,-3572.0798"/>
<path content="AP030,1,28,1,0,14,1,8,JPN" xlink:title="AP030" d="M14067.63,-3572.0798L14067.7902,-3571.9532L14067.8604,-3571.8864L14068.0405,-3571.9734L14068.3105,-3572.0798L14068.4494,-3572.1333L14068.5196,-3572.1535L14068.5593,-3572.1535L14068.6996,-3572.2065L14068.8599,-3572.2599"/>
<path content="AP030,1,28,1,0,14,1,8,JPN" xlink:title="AP030" d="M14062.5,-3572.3534L14062.5793,-3572.3534L14062.6297,-3572.3534L14063.0798,-3572.3331L14063.4293,-3572.3L14063.6505,-3572.3198L14063.8107,-3572.3198L14064.27,-3572.3732L14064.7003,-3572.4068"/>
<path content="AP030,1,28,1,0,15,1,8,JPN" xlink:title="AP030" d="M14083.2901,-3571.4867L14083.1558,-3572.1149L14083.1558,-3572.5922L14083.2062,-3572.8157L14083.2935,-3573.2577"/>
<path content="AP030,1,28,1,0,15,1,8,JPN" xlink:title="AP030" d="M14064.9643,-3571.4005L14067.63,-3572.0798"/>
<path content="AP030,1,28,1,0,15,1,8,JPN" xlink:title="AP030" d="M14064.7003,-3572.4068L14064.8041,-3572.0135L14064.9643,-3571.4005"/>
<path content="AP030,1,28,1,0,14,1,8,JPN" xlink:title="AP030" d="M14078.9902,-3571.2734L14079.1504,-3571.3467L14079.4693,-3571.5065L14079.7394,-3571.6534L14079.8996,-3571.7068L14080.0598,-3571.7598L14080.2002,-3571.8132L14080.2704,-3571.8468L14080.4001,-3571.9734L14080.4703,-3572.0264L14080.5405,-3572.0467L14080.6305,-3572.0665L14080.8105,-3572.0135L14080.9296,-3571.9734L14080.9906,-3571.9933L14081.0394,-3571.9933L14081.1295,-3572.0264L14081.2698,-3572.0467L14081.4301,-3572.0665L14081.4896,-3572.1199L14081.6101,-3572.1931L14081.7001,-3572.2267L14081.7703,-3572.2466L14081.7902,-3572.2466L14081.9305,-3572.3534L14081.9504,-3572.3866L14081.9702,-3572.4598L14082.0801,-3572.6067L14082.1503,-3572.6601L14082.3105,-3572.8199L14082.3715,-3572.9313L14082.3807,-3572.9465L14082.4005,-3573.1667L14082.4005,-3573.1998"/>
<path content="AP030,1,28,1,0,14,1,8,JPN" xlink:title="AP030" d="M14068.8599,-3572.2599L14068.9697,-3572.2599L14069.2001,-3572.1733L14069.6503,-3571.9734L14070.0806,-3571.7731L14070.43,-3571.6331L14070.5399,-3571.5401L14070.8603,-3571.4134L14071.3104,-3571.22"/>
<path content="AP030,1,28,1,0,16,1,8,JPN" xlink:title="AP030" d="M14078.9902,-3571.2734L14079.0604,-3571.22L14079.1794,-3571.1468L14079.3304,-3571.0732L14079.4693,-3571.0533L14079.6295,-3571.0934L14079.8096,-3571.1266L14080.1804,-3571.22L14080.6107,-3571.3066L14080.9692,-3571.3799L14081.2897,-3571.4333L14081.6299,-3571.4867L14081.9504,-3571.5065L14082.1304,-3571.5065L14082.1503,-3571.5065L14082.3105,-3571.5065L14082.4295,-3571.5065L14082.7698,-3571.5065L14083.0597,-3571.5065L14083.2901,-3571.4867"/>
<path content="AP030,1,28,1,0,16,1,8,JPN" xlink:title="AP030" d="M14083.2901,-3571.4867L14083.4702,-3571.4535L14083.6105,-3571.4134L14083.7204,-3571.3799L14083.8104,-3571.3066L14083.9005,-3571.1666L14083.9905,-3571.0732L14084.0805,-3570.9999L14084.1507,-3570.9866L14084.3307,-3570.9667L14084.4498,-3570.9267"/>
<path content="AP030,1,28,1,0,16,1,8,JPN" xlink:title="AP030" d="M14084.4498,-3570.9267L14084.6497,-3570.8L14084.79,-3570.7664L14084.9701,-3570.7664L14085.0403,-3570.7664L14085.2005,-3570.7664L14085.2905,-3570.7664L14085.4004,-3570.7664L14085.4706,-3570.7664L14085.5194,-3570.7466"/>
<path content="AP030,1,28,1,0,14,1,8,JPN" xlink:title="AP030" d="M14073.9304,-3570.0466L14074.0204,-3570.0798L14074.1104,-3570.1733L14074.1302,-3570.2599L14074.1104,-3570.5666L14074.1104,-3570.6799L14074.2004,-3570.7466L14074.3301,-3570.8199L14074.4705,-3570.8401L14074.6094,-3570.8599L14074.6796,-3570.8935L14074.7894,-3570.9465L14074.8306,-3570.9465L14074.9496,-3570.9267L14075.0793,-3570.9133L14075.1999,-3570.9267L14075.3296,-3571.04L14075.47,-3571.1468L14075.56,-3571.1998L14075.6104,-3571.22L14075.7202,-3571.2734L14075.8102,-3571.2868L14075.9705,-3571.2868L14076.1093,-3571.2532L14076.2405,-3571.22L14076.3992,-3571.2334L14076.6098,-3571.2532L14076.68,-3571.2734L14076.8997,-3571.2868L14077.0798,-3571.3467L14077.24,-3571.36L14077.3605,-3571.3467L14077.4704,-3571.2532L14077.6505,-3571.1468L14077.7893,-3571.0732L14077.9297,-3571.0533L14078.0807,-3571.0197L14078.1799,-3571.0197L14078.27,-3571.0197L14078.45,-3571.0533L14078.6499,-3571.1067L14078.9001,-3571.22L14078.9902,-3571.2734"/>
<path content="AP030,1,28,1,0,14,1,8,JPN" xlink:title="AP030" d="M14071.3104,-3571.22L14071.5805,-3571.0732L14071.8597,-3570.9866L14072.0795,-3570.8733L14072.3099,-3570.7333L14072.6105,-3570.48L14072.8806,-3570.2267L14073.1094,-3570.0268L14073.2193,-3569.9532L14073.3093,-3569.9398L14073.6801,-3569.9532L14073.7701,-3569.9734L14073.9304,-3570.0466"/>
<path content="AP030,1,28,1,0,15,1,8,JPN" xlink:title="AP030" d="M14065.7639,-3569.902L14066.5375,-3570.0363L14068.457,-3570.6207L14071.3104,-3571.22"/>
<path content="AP030,1,28,1,0,15,1,8,JPN" xlink:title="AP030" d="M14064.9643,-3571.4005L14065.1993,-3570.5093L14065.7639,-3569.902"/>
<path content="AP030,1,28,1,0,15,1,8,JPN" xlink:title="AP030" d="M14062.5,-3570.7719L14064.9643,-3571.4005"/>
<path content="AP030,1,28,1,0,15,1,8,JPN" xlink:title="AP030" d="M14083.2935,-3573.2577L14083.5297,-3573.2738L14084.1568,-3573.2407L14085.5774,-3573.5149L14085.91,-3573.7537L14086.496,-3573.0732L14086.7477,-3572.5285L14086.7905,-3572.0173L14086.5707,-3571.3612L14086.6669,-3570.8248L14086.3174,-3570.3201L14086.1954,-3569.9146L14086.1267,-3569.5637L14085.3302,-3569.7506L14084.5383,-3570.2431L14084.4498,-3570.9267"/>
<path content="AP030,1,28,1,0,15,1,8,JPN" xlink:title="AP030" d="M14066.2643,-3569.3645L14066.9571,-3569.7647L14070.3232,-3570.1733L14071.6476,-3570.3453L14072.2183,-3569.9146L14073.3063,-3569.474L14073.9304,-3570.0466"/>
<path content="AP030,1,28,1,0,15,1,8,JPN" xlink:title="AP030" d="M14065.7639,-3569.902L14066.2643,-3569.3645"/>
<path content="AP030,1,28,1,0,15,1,8,JPN" xlink:title="AP030" d="M14062.5,-3568.8335L14063.7421,-3569.5511L14065.7639,-3569.902"/>
<path content="AP030,1,28,1,0,15,1,8,JPN" xlink:title="AP030" d="M14062.5,-3567.5872L14063.5391,-3568.3582L14065.8325,-3569.1143L14066.2643,-3569.3645"/>
<path content="AP030,1,28,1,0,14,1,8,JPN" xlink:title="AP030" d="M14082.5195,-3574.6933L14082.5195,-3574.5667L14082.5195,-3574.5335L14082.4905,-3574.4598"/>
<path content="AP030,1,28,1,0,14,1,8,JPN" xlink:title="AP030" d="M14082.4295,-3573.5065L14082.4005,-3573.1998"/>
<path content="AP030,1,28,1,0,15,1,8,JPN" xlink:title="AP030" d="M14075.8395,-3578.0588L14075.9632,-3578.2051L14076.023,-3578.4L14076.1505,-3578.5"/>
<path content="AP030,1,28,1,0,15,1,8,JPN" xlink:title="AP030" d="M14075.1554,-3577.2494L14075.2471,-3577.3578"/>
<path content="AP030,1,28,1,0,15,1,8,JPN" xlink:title="AP030" d="M14070.8261,-3584.059L14070.8334,-3584.0636L14071.1807,-3584.28"/>
<path content="AP030,1,28,1,0,15,1,8,JPN" xlink:title="AP030" d="M14069.3298,-3583.1264L14069.4699,-3583.2137"/>
</g>
</svg>
