<?xml version="1.0" encoding="UTF-8"?>
<svg  xmlns="http://www.w3.org/2000/svg" xmlns:xlink="http://www.w3.org/1999/xlink" xmlns:go="http://purl.org/svgmap/profile" property="f_code,acc,exs,rst,med,rtt,RSU,loc,soc" viewBox="13992.1875 -3937.5 70.3125 70.3125" go:dataArea="13992.1875 -3937.5 70.3125 70.3125" >
<metadata>
 <rdf:RDF xmlns:rdf="http://www.w3.org/1999/02/22-rdf-syntax-ns#" xmlns:crs="http://opengis.org/xmldtds/transformations.dtd" xmlns:svg="http://www.w3.org/svg" >
  <rdf:Description>
   <crs:CoordinateReferenceSystem rdf:resource="http://purl.org/crs/84" svg:transform="matrix(100.0,0.0,0.0,-100.0,0.0,0.0)" />
  </rdf:Description>
 </rdf:RDF>
</metadata>
<globalCoordinateSystem srsName="http://purl.org/crs/84" transform="matrix(100.0,0.0,0.0,-100.0,0.0,0.0)" />
<defs>
 <g id="p0" >
  <circle cx="0.0" cy="0.0" r="3" stroke="green" stroke-width="2.0" vector-effect="non-scaling-stroke" />
 </g>
</defs>
<g fill="none" fill-rule="evenodd" stroke="#00ff00" stroke-width="2" opacity="0.5" vector-effect="non-scaling-stroke" stroke-linejoin="bevel" >
<path content="AP030,1,28,1,0,14,1,8,JPN" xlink:title="AP030" d="M14056.8961,-3937.5L14056.9504,-3937.2868"/>
<path content="AP030,1,28,1,0,15,1,8,JPN" xlink:title="AP030" d="M14054.1815,-3937.5L14054.4083,-3937.2391L14056.9504,-3937.2868"/>
<path content="AP030,1,28,1,0,15,1,8,JPN" xlink:title="AP030" d="M14013.4506,-3937.1075L14014.3845,-3937.2768L14016.2151,-3937.5"/>
<path content="AP030,1,28,1,0,15,1,8,JPN" xlink:title="AP030" d="M14013.5146,-3937.5L14013.4506,-3937.1075"/>
<path content="AP030,1,28,1,0,15,1,8,JPN" xlink:title="AP030" d="M14047.58,-3936.9137L14047.5212,-3937.5"/>
<path content="AP030,1,28,1,0,16,1,8,JPN" xlink:title="AP030" d="M14048.3473,-3937.5L14048.7,-3936.8"/>
<path content="AP030,1,28,1,0,16,1,8,JPN" xlink:title="AP030" d="M14007.9967,-3937.5L14007.99,-3937.22L14007.75,-3936.722L14007.35,-3936.292L14007.3285,-3936.2814"/>
<path content="AP030,1,28,1,0,14,1,8,JPN" xlink:title="AP030" d="M14006.44,-3937.5L14006.5201,-3937.3466L14006.6299,-3937.0731L14006.8604,-3936.7332L14007.2006,-3936.4265L14007.2403,-3936.3731L14007.3285,-3936.2814"/>
<path content="AP030,1,28,1,0,15,1,8,JPN" xlink:title="AP030" d="M14029.4312,-3936.1877L14029.4935,-3937.5"/>
<path content="AP030,1,28,1,0,15,1,8,JPN" xlink:title="AP030" d="M14027.2443,-3937.5L14027.9266,-3936.8412L14028.302,-3936.4056L14029.4312,-3936.1877"/>
<path content="AP030,1,28,1,0,16,1,8,JPN" xlink:title="AP030" d="M14007.3285,-3936.2814L14007.06,-3936.149L14006.09,-3935.755L14005.6543,-3935.5272"/>
<path content="AP030,1,28,1,0,14,1,8,JPN" xlink:title="AP030" d="M14005.431,-3937.5L14005.2704,-3937.2334L14005.04,-3936.8198L14004.9896,-3936.7332L14004.8599,-3936.5334L14004.8599,-3936.4265L14004.8798,-3936.3335L14004.95,-3936.2465L14005.2002,-3936.0134L14005.6543,-3935.5272"/>
<path content="AP030,1,28,1,0,14,1,8,JPN" xlink:title="AP030" d="M14007.3285,-3936.2814L14007.4005,-3936.2064L14007.6996,-3935.9402L14007.8094,-3935.8334L14008.2001,-3935.4534L14008.2199,-3935.4332L14008.2703,-3935.4332"/>
<path content="AP030,1,28,1,0,15,1,8,JPN" xlink:title="AP030" d="M14009.4894,-3935.4332L14012.7853,-3936.9865L14013.4506,-3937.1075"/>
<path content="AP030,1,28,1,0,14,1,8,JPN" xlink:title="AP030" d="M14008.2703,-3935.4332L14008.9294,-3935.4332L14009.4894,-3935.4332"/>
<path content="AP030,1,28,1,0,14,1,8,JPN" xlink:title="AP030" d="M14001.7794,-3937.5L14001.7197,-3937.0399L14001.68,-3936.66L14001.5793,-3936.1L14001.5793,-3935.9402L14001.5198,-3935.7201L14001.4694,-3935.4332L14001.4297,-3935.1665L14001.3992,-3934.84"/>
<path content="AP030,1,28,1,0,14,1,8,JPN" xlink:title="AP030" d="M14005.6543,-3935.5272L14005.8105,-3935.36L14005.9906,-3935.2001L14006.3599,-3934.84L14006.6498,-3934.5333"/>
<path content="AP030,1,28,1,0,15,1,8,JPN" xlink:title="AP030" d="M14006.9,-3934.3334L14007.3212,-3935.0151L14008.2703,-3935.4332"/>
<path content="AP030,1,28,1,0,14,1,8,JPN" xlink:title="AP030" d="M14006.6498,-3934.5333L14006.7398,-3934.4398L14006.7703,-3934.4265L14006.9,-3934.3334"/>
<path content="AP030,1,28,1,0,15,1,8,JPN" xlink:title="AP030" d="M14044.7746,-3937.5L14044.6793,-3935.1578L14042.5018,-3934.0816"/>
<path content="AP030,1,28,1,0,15,1,8,JPN" xlink:title="AP030" d="M14029.4312,-3936.1877L14030.9357,-3936.1149L14031.5002,-3936.1149L14032.0633,-3935.5339L14032.4402,-3935.5339L14033.0978,-3935.9695L14034.1324,-3936.7683L14034.7916,-3936.7683L14035.5438,-3936.4056L14036.0138,-3935.7517L14040.715,-3934.5898L14042.5018,-3934.0816"/>
<path content="AP030,1,28,1,0,15,1,8,JPN" xlink:title="AP030" d="M14045.6055,-3933.4278L14045.9808,-3933.9363L14046.7331,-3934.8076L14047.11,-3935.5339L14047.3923,-3936.1149L14047.58,-3936.9137"/>
<path content="AP030,1,28,1,0,15,1,8,JPN" xlink:title="AP030" d="M14042.5018,-3934.0816L14045.6055,-3933.4278"/>
<path content="AP030,1,28,1,0,15,1,8,JPN" xlink:title="AP030" d="M14047.58,-3936.9137L14049.1806,-3934.1255L14049.1013,-3932.8926"/>
<path content="AP030,1,28,1,0,15,1,8,JPN" xlink:title="AP030" d="M14045.6055,-3933.4278L14047.2916,-3933.1829L14049.1013,-3932.8926"/>
<path content="AP030,1,28,1,0,15,1,8,JPN" xlink:title="AP030" d="M14003.2033,-3932.8589L14003.891,-3933.0517L14006.0379,-3934.0759L14006.5384,-3934.4501L14006.6498,-3934.5333"/>
<path content="AP030,1,28,1,0,16,1,8,JPN" xlink:title="AP030" d="M14005.6543,-3935.5272L14005.39,-3935.389L14004.93,-3935.035L14004.51,-3934.577L14003.74,-3933.582L14003.29,-3932.977L14003.2033,-3932.8589"/>
<path content="AP030,1,28,1,0,14,1,8,JPN" xlink:title="AP030" d="M14055.4001,-3932.7663L14055.5603,-3932.9998L14055.6396,-3933.0555L14055.7693,-3933.1467L14055.9494,-3933.3599L14056.0806,-3933.6533L14056.0806,-3933.8333L14055.9906,-3933.9535L14055.9692,-3934.0134L14055.9296,-3934.1L14055.9692,-3934.28L14056.1295,-3934.5531L14056.1493,-3934.66L14056.1996,-3934.7866L14056.2195,-3934.8598L14056.2897,-3935.2333L14056.2897,-3935.3268L14056.2698,-3935.5934L14056.2897,-3935.6667L14056.9504,-3937.2002L14056.9504,-3937.2868"/>
<path content="AP030,1,28,1,0,15,1,8,JPN" xlink:title="AP030" d="M14048.7,-3936.8L14051.7075,-3935.5183L14055.4001,-3932.7663"/>
<path content="AP030,1,28,1,0,15,1,8,JPN" xlink:title="AP030" d="M14001.3992,-3934.84L14001.4725,-3934.6924L14002.4673,-3932.6527L14003.2033,-3932.8589"/>
<path content="AP030,1,28,1,0,16,1,8,JPN" xlink:title="AP030" d="M14048.7,-3936.8L14048.88,-3936.3731L14049.0799,-3935.9531L14049.2401,-3935.7735L14049.7406,-3935.3065L14049.8093,-3935.1665L14049.8596,-3934.7134L14050.0397,-3934.4265L14050.1801,-3934.0668L14050.1999,-3933.9001L14050.2396,-3933.7933L14050.3998,-3933.6533L14050.8804,-3933.0933L14051.4496,-3932.373"/>
<path content="AP030,1,28,1,0,15,1,8,JPN" xlink:title="AP030" d="M14049.1013,-3932.8926L14049.8367,-3932.7744L14051.4496,-3932.373"/>
<path content="AP030,1,28,1,0,14,1,8,JPN" xlink:title="AP030" d="M14055.4001,-3932.7663L14055.3101,-3932.5531L14055.2902,-3932.32L14055.3101,-3932.0133"/>
<path content="AP030,1,28,1,0,15,1,8,JPN" xlink:title="AP030" d="M14051.4496,-3932.373L14053.9749,-3932.048L14055.3101,-3932.0133"/>
<path content="AP030,1,28,1,0,15,1,8,JPN" xlink:title="AP030" d="M14026.0193,-3931.2866L14026.6098,-3932.4841L14027.2675,-3932.9197L14028.5843,-3933.0647L14029.0543,-3933.5007L14029.3365,-3934.5898L14029.4312,-3936.1877"/>
<path content="AP030,1,28,1,0,16,1,8,JPN" xlink:title="AP030" d="M14051.4496,-3932.373L14051.5396,-3932.1732L14051.5793,-3932.0465L14051.6495,-3931.5933L14051.7632,-3931.1356L14051.7899,-3930.8598"/>
<path content="AP030,1,28,1,0,15,1,8,JPN" xlink:title="AP030" d="M14048.88,-3930.735L14051.7899,-3930.8598"/>
<path content="AP030,1,28,1,0,15,1,8,JPN" xlink:title="AP030" d="M14049.1013,-3932.8926L14049.0082,-3931.4518L14048.88,-3930.735"/>
<path content="AP030,1,28,1,0,14,1,8,JPN" xlink:title="AP030" d="M14009.4894,-3935.4332L14009.7397,-3935.36L14010.2402,-3935.22L14010.6094,-3935.1265L14011.1099,-3934.8732L14011.47,-3934.6931L14011.7203,-3934.5531L14011.7401,-3934.5333L14011.9507,-3934.3864L14012.1994,-3934.1732L14012.4496,-3933.9535L14012.4893,-3933.9199L14012.7396,-3933.7734L14013.15,-3933.6533L14013.6795,-3933.5934L14014.1296,-3933.5934L14014.74,-3933.5934L14015.0192,-3933.5598L14015.3793,-3933.6533L14015.5197,-3933.7067L14015.5594,-3933.72L14015.5807,-3933.72L14015.6296,-3933.72L14015.8295,-3933.7399L14016.04,-3933.7399L14016.3605,-3933.8333L14016.5802,-3933.8665L14016.6504,-3933.8467L14016.9006,-3933.7601L14017.0395,-3933.6533L14017.1295,-3933.4L14017.1097,-3933.3263L14016.9907,-3933.2333L14017.0395,-3933.1799L14017.1295,-3933.1665L14017.3096,-3933.0933L14017.5201,-3932.9132L14017.5797,-3932.7133L14017.6498,-3932.6599L14017.7704,-3932.6199L14017.8802,-3932.6199L14018.0206,-3932.6599L14018.1793,-3932.6401L14018.4906,-3932.5333L14018.6493,-3932.4398L14018.7195,-3932.3864L14018.8599,-3932.3864L14018.9896,-3932.4398L14019.1498,-3932.5333L14019.2398,-3932.5333L14019.3298,-3932.5531L14019.4504,-3932.6065L14019.5206,-3932.6065L14019.5801,-3932.513L14019.7006,-3932.46L14019.8105,-3932.4066L14019.8593,-3932.32L14019.8303,-3932.1732L14019.8105,-3932.0663L14019.8593,-3932.0267L14019.9493,-3931.9931L14020.0607,-3932.0133L14020.2194,-3932.0133L14020.2698,-3931.9733L14020.3995,-3931.9L14020.5597,-3931.9199L14020.7901,-3931.9L14020.8603,-3931.8867L14020.9305,-3931.8466L14021.3303,-3931.6334L14021.6293,-3931.4667L14021.7896,-3931.4331L14021.9696,-3931.4133L14022.3602,-3931.4667L14022.7402,-3931.4865L14022.8302,-3931.4667L14023.2697,-3931.3065L14023.2895,-3931.2866L14023.4894,-3930.9864L14023.5199,-3930.9464L14023.6801,-3930.8598L14023.9304,-3930.8201L14024.3607,-3930.8201L14024.8596,-3930.7667L14025.1801,-3930.7133L14025.3998,-3930.7133L14025.5203,-3930.8399L14025.8606,-3931.2199L14026.0193,-3931.2866"/>
<path content="AP030,1,28,1,0,15,1,8,JPN" xlink:title="AP030" d="M14042.5018,-3934.0816L14041.1392,-3930.621"/>
<path content="AP030,1,28,1,0,14,1,8,JPN" xlink:title="AP030" d="M14055.3101,-3932.0133L14055.3604,-3931.8333L14055.3604,-3931.7932L14055.4901,-3931.0734L14055.5405,-3930.9132L14055.5801,-3930.6931L14055.5603,-3930.4264L14055.5603,-3930.2601"/>
<path content="AP030,1,28,1,0,14,1,8,JPN" xlink:title="AP030" d="M14053.9307,-3930.2601L14053.9505,-3930.2799L14054.2007,-3930.3532L14054.6097,-3930.4066L14055.0201,-3930.3864L14055.4504,-3930.32L14055.5603,-3930.2601"/>
<path content="AP030,1,28,1,0,15,1,8,JPN" xlink:title="AP030" d="M14042.8787,-3930.2326L14043.5364,-3931.2492L14043.9133,-3931.9031L14045.3232,-3932.7019L14045.6055,-3933.4278"/>
<path content="AP030,1,28,1,0,15,1,8,JPN" xlink:title="AP030" d="M14041.1392,-3930.621L14042.8787,-3930.2326"/>
<path content="AP030,1,28,1,0,15,1,8,JPN" xlink:title="AP030" d="M14028.6102,-3929.94L14031.0516,-3930.1712L14033.7753,-3931.7711L14037.6663,-3931.3965L14041.1392,-3930.621"/>
<path content="AP030,1,28,1,0,14,1,8,JPN" xlink:title="AP030" d="M14026.0193,-3931.2866L14026.2207,-3931.2866L14026.4496,-3931.2733L14026.5793,-3931.2531L14026.6495,-3931.2199L14026.8097,-3931.0734L14026.9302,-3930.9864L14027.2202,-3930.7465L14027.6306,-3930.7331L14028.0594,-3930.6931L14028.1097,-3930.6599L14028.1296,-3930.5531L14028.2196,-3930.3734L14028.3295,-3930.2464L14028.6102,-3929.94"/>
<path content="AP030,1,28,1,0,15,1,8,JPN" xlink:title="AP030" d="M14042.8787,-3930.2326L14044.1147,-3929.895L14046.9116,-3930.6503L14048.88,-3930.735"/>
<path content="AP030,1,28,1,0,16,1,8,JPN" xlink:title="AP030" d="M14003.2033,-3932.8589L14002.84,-3932.364L14002.26,-3931.969L14001.82,-3931.786L14001.43,-3931.683L14000.85,-3931.595L14000.48,-3931.412L14000.2,-3931.11L13999.95,-3930.724L13999.64,-3930.298L13999.23,-3930.071L13998.7223,-3929.9525L13997.8313,-3929.8277"/>
<path content="AP030,1,28,1,0,14,1,8,JPN" xlink:title="AP030" d="M13997.8313,-3929.8277L13997.8607,-3930.0266L13997.8806,-3930.2998L13997.9004,-3930.3532L13997.9904,-3930.4798L13998.1796,-3930.6801L13998.3597,-3930.9265L13998.6801,-3931.4667L13998.8297,-3931.72L13998.88,-3931.8867L13998.8998,-3932.0663L13998.8251,-3932.1323L13998.7396,-3932.2063L13998.7396,-3932.2598L13998.7701,-3932.3334L13999.1104,-3932.9998L13999.1806,-3933.0399L13999.3607,-3933.2333L13999.4293,-3933.3599L13999.5193,-3933.6533L13999.6796,-3933.8467L13999.7406,-3933.8665L13999.7696,-3933.8867L13999.9298,-3933.9199L14000,-3933.9256L14000.1801,-3933.9401L14000.2899,-3933.9733L14000.4303,-3934.0466L14000.6302,-3934.2068L14000.9903,-3934.5001L14001.2695,-3934.7466L14001.3992,-3934.84"/>
<path content="AP030,1,28,1,0,15,1,8,JPN" xlink:title="AP030" d="M14052.3116,-3929.9669L14053.9307,-3930.2601"/>
<path content="AP030,1,28,1,0,16,1,8,JPN" xlink:title="AP030" d="M14051.7899,-3930.8598L14052.3116,-3929.9669"/>
<path content="AP030,1,28,1,0,14,1,8,JPN" xlink:title="AP030" d="M14055.5603,-3930.2601L14055.9845,-3930.035L14056.2393,-3929.9L14056.4896,-3929.8134"/>
<path content="AP030,1,28,1,0,14,1,8,JPN" xlink:title="AP030" d="M14052.9358,-3929.2931L14053.3997,-3929.7066L14053.4897,-3929.7932L14053.54,-3929.8866L14053.6102,-3929.94L14053.7003,-3930.0667L14053.83,-3930.1933L14053.9307,-3930.2601"/>
<path content="AP030,1,28,1,0,16,1,8,JPN" xlink:title="AP030" d="M14052.3116,-3929.9669L14052.4767,-3929.3982L14052.6093,-3929.0531"/>
<path content="AP030,1,28,1,0,14,1,8,JPN" xlink:title="AP030" d="M13997.8313,-3929.8277L13997.8104,-3929.6864L13997.6807,-3929.3266L13997.6501,-3929.2732L13997.5601,-3929.1264L13997.4304,-3928.9997L13997.1497,-3928.82L13996.9498,-3928.7464L13996.877,-3928.7177"/>
<path content="AP030,1,28,1,0,14,1,8,JPN" xlink:title="AP030" d="M14028.6102,-3929.94L14028.6499,-3929.7932L14028.5797,-3929.3999L14028.7003,-3929.2732L14029.0802,-3928.6064L14029.3304,-3928.5"/>
<path content="AP030,1,28,1,0,14,1,8,JPN" xlink:title="AP030" d="M14029.3304,-3928.5L14029.4693,-3928.4397"/>
<path content="AP030,1,28,1,0,14,1,8,JPN" xlink:title="AP030" d="M14056.4896,-3929.8134L14056.3095,-3929.3266L14056.1295,-3928.8399L14056.0196,-3928.3531L14055.9708,-3928.0743"/>
<path content="AP030,1,28,1,0,14,1,8,JPN" xlink:title="AP030" d="M14054.4495,-3928.0464L14054.4907,-3928.12L14054.6295,-3928.26L14054.9698,-3928.5332L14055.1498,-3928.7132L14055.2399,-3928.9131L14055.4001,-3929.6532L14055.5603,-3930.2601"/>
<path content="AP030,1,28,1,0,16,1,8,JPN" xlink:title="AP030" d="M14052.6093,-3929.0531L14052.7865,-3928.0941L14053.0027,-3927.6095L14053.2022,-3927.4063L14053.4435,-3927.3033L14053.8036,-3927.2167L14053.9325,-3927.1889"/>
<path content="AP030,1,28,1,0,14,1,8,JPN" xlink:title="AP030" d="M14056.4896,-3929.8134L14056.72,-3929.8866L14056.9,-3929.9931L14057.1304,-3930.2601L14057.2693,-3930.4264L14057.3303,-3930.4398L14057.4295,-3930.4398L14057.6294,-3930.4264L14057.6492,-3930.4264L14058.3298,-3930.2998L14058.49,-3930.2601L14058.7906,-3930.1933L14058.9005,-3929.9931L14058.9294,-3929.1664L14058.9905,-3929.0531L14059.0805,-3928.9997L14059.3597,-3928.9864L14059.4345,-3929.0138L14059.4498,-3929.0199L14059.52,-3929.0531L14059.6497,-3929.1065L14059.9304,-3929.1466L14060.1105,-3929.1264L14060.4507,-3928.9997L14060.8093,-3928.8731L14061.2198,-3928.7132L14061.47,-3928.4599L14061.5204,-3928.4264"/>
<path content="AP030,1,28,1,0,15,1,8,JPN" xlink:title="AP030" d="M14041.1392,-3930.621L14040.744,-3929.6135L14040.6662,-3928.6922L14040.4495,-3927.5799"/>
<path content="AP030,1,28,1,0,15,1,8,JPN" xlink:title="AP030" d="M14042.8787,-3930.2326L14042.5964,-3929.4338L14043.0801,-3927.56"/>
<path content="AP030,1,28,1,0,15,1,8,JPN" xlink:title="AP030" d="M14040.4495,-3927.5799L14039.1495,-3927.5066"/>
<path content="AP030,1,28,1,0,14,1,8,JPN" xlink:title="AP030" d="M14039.1495,-3927.5066L14039.5599,-3927.5932L14039.7202,-3927.6531L14040.0406,-3927.6333L14040.4495,-3927.5799"/>
<path content="AP030,1,28,1,0,14,1,8,JPN" xlink:title="AP030" d="M14040.4495,-3927.5799L14040.9302,-3927.5066L14041.1301,-3927.4666L14041.4505,-3927.4132L14041.7206,-3927.4132L14042.0807,-3927.4666L14042.3599,-3927.5066L14042.4698,-3927.5066L14042.9306,-3927.4864L14042.9901,-3927.5066L14043.0801,-3927.56"/>
<path content="AP030,1,28,1,0,15,1,8,JPN" xlink:title="AP030" d="M13996.877,-3928.7177L13997.2878,-3927.8513L13997.4185,-3927.3437"/>
<path content="AP030,1,28,1,0,14,1,8,JPN" xlink:title="AP030" d="M14029.4693,-3928.4397L14029.5807,-3928.4065L14029.8096,-3928.4264L14029.9301,-3928.4599L14030.1804,-3928.5664L14030.4001,-3928.6198L14030.5603,-3928.6598L14030.7404,-3928.6934L14030.8807,-3928.7132L14031.0394,-3928.68L14031.1493,-3928.64L14031.2393,-3928.6198L14031.3599,-3928.6198L14031.5598,-3928.5133L14031.6803,-3928.4264L14031.7398,-3928.3733L14031.9702,-3928.3333L14032.4295,-3928.2265L14032.8094,-3928.1532L14032.93,-3928.1731L14033.11,-3928.1933L14033.2001,-3928.1731L14033.4,-3928.0998L14033.6304,-3927.7397L14033.8303,-3927.6863L14033.9005,-3927.6333L14034.0195,-3927.4532L14034.0805,-3927.4132L14034.2697,-3927.2533L14034.3994,-3927.2198L14034.5795,-3927.2533L14034.8602,-3927.38L14035.2005,-3927.38L14035.3806,-3927.3998L14035.5606,-3927.5265L14035.8307,-3927.5398L14036.1496,-3927.5265L14036.38,-3927.4666L14036.5204,-3927.3064L14036.5601,-3927.2533L14036.6806,-3927.2198L14036.8301,-3927.1999L14037.1094,-3927.2331L14037.4695,-3927.2533L14037.5793,-3927.2331L14037.7899,-3927.1797L14037.9303,-3927.2198L14038.1104,-3927.3064L14038.1805,-3927.3064L14038.2706,-3927.3266L14038.5193,-3927.38L14038.5605,-3927.3998L14038.9496,-3927.4666L14039.1495,-3927.5066"/>
<path content="AP030,1,28,1,0,16,1,8,JPN" xlink:title="AP030" d="M14055.6195,-3927.2144L14056.0818,-3927.2293L14057.0361,-3927.2591L14057.9009,-3927.2815L14058.393,-3927.1696L14060.2792,-3926.4837L14061.6651,-3926.1568L14061.7174,-3926.1557L14062.5,-3926.1474"/>
<path content="AP030,1,28,1,0,14,1,8,JPN" xlink:title="AP030" d="M14048.5794,-3926.873L14049.0204,-3926.8932L14049.3805,-3926.9466L14049.5407,-3926.9665L14049.7406,-3927.0733L14049.9496,-3927.2533L14050.4501,-3927.6863L14050.6302,-3927.7397L14050.7706,-3927.8332L14051.1093,-3928.0666L14051.2894,-3928.1933L14052.4704,-3928.9864L14052.6093,-3929.0531"/>
<path content="AP030,1,28,1,0,15,1,8,JPN" xlink:title="AP030" d="M14048.88,-3930.735L14048.5184,-3928.7273L14048.5794,-3926.873"/>
<path content="AP030,1,28,1,0,15,1,8,JPN" xlink:title="AP030" d="M14026.8036,-3926.6266L14026.886,-3926.7593L14027.0523,-3926.8921L14027.4673,-3927.0248L14028.0472,-3927.3903L14028.5873,-3927.7554L14029.3304,-3928.5"/>
<path content="AP030,1,28,1,0,14,1,8,JPN" xlink:title="AP030" d="M14043.0801,-3927.56L14043.1305,-3927.5799L14043.5394,-3927.7599L14043.6096,-3927.7733L14044.0201,-3927.7397L14044.7693,-3927.6863L14044.9905,-3927.6333L14045.7199,-3927.2533L14046.3104,-3927L14046.7896,-3926.7998L14047.0795,-3926.6933L14047.4701,-3926.5865L14047.9004,-3926.68L14048.4497,-3926.8398L14048.5794,-3926.873"/>
<path content="AP030,1,28,1,0,14,1,8,JPN" xlink:title="AP030" d="M13996.877,-3928.7177L13996.6797,-3928.64L13996.2906,-3928.5133L13996.0205,-3928.5133L13995.61,-3928.6198L13995.4346,-3928.6743L13995.3094,-3928.7132L13995.2194,-3928.7132L13995.1492,-3928.7132L13995.0195,-3928.64L13994.7906,-3928.5L13994.4702,-3928.3333L13994.1101,-3928.1933L13993.5196,-3928.0132L13993.0603,-3927.8664L13992.9901,-3927.8332L13992.7902,-3927.7397L13992.63,-3927.6131L13992.54,-3927.4666L13992.4896,-3927.38L13992.3599,-3926.9131L13992.3599,-3926.873L13992.3798,-3926.6933L13992.4301,-3926.5663L13992.63,-3926.26L13992.7216,-3926.0727L13992.7704,-3925.9731L13992.7902,-3925.7599"/>
<path content="AP030,1,28,1,0,15,1,8,JPN" xlink:title="AP030" d="M13995.3829,-3925.3126L13996.015,-3925.433L13996.4917,-3925.8188L13996.9293,-3926.8138L13997.0592,-3927.1457L13997.2029,-3927.2726L13997.4185,-3927.3437"/>
<path content="AP030,1,28,1,0,15,1,8,JPN" xlink:title="AP030" d="M13992.7902,-3925.7599L13993.2006,-3925.7528L13993.6511,-3925.5548L13993.9189,-3925.4939L13994.4086,-3925.1843L13994.6633,-3925.1792L13995.3829,-3925.3126"/>
<path content="AP030,1,28,1,0,14,1,8,JPN" xlink:title="AP030" d="M14053.1998,-3924.3732L14053.1998,-3924.44L14053.4724,-3925.2685L14053.7935,-3925.6325L14054.1359,-3925.7158L14054.6951,-3925.85L14054.956,-3925.9618L14055.3362,-3926.6552L14055.5152,-3926.946L14055.6195,-3927.2144"/>
<path content="AP030,1,28,1,0,14,1,8,JPN" xlink:title="AP030" d="M14029.4693,-3928.4397L14029.4495,-3928.3333L14029.5395,-3928.1532L14029.5197,-3927.8999L14029.5395,-3927.7931L14029.5395,-3927.7397L14029.5197,-3927.6531L14029.4495,-3927.5799L14029.4693,-3927.433L14029.4693,-3927.38L14029.4495,-3927.3064L14029.4006,-3927.2331L14029.4006,-3927.1797L14029.4693,-3927.0397L14029.5197,-3926.9863L14029.5197,-3926.86L14029.6097,-3926.7998L14029.6997,-3926.7666L14029.7195,-3926.7132L14029.6997,-3926.6064L14029.6799,-3926.5533L14029.8294,-3926.1333L14029.95,-3926.0265L14030.0598,-3925.8663L14030.0797,-3925.5932L14030.22,-3925.2865L14030.3802,-3925.1266L14030.5206,-3925.0401L14030.6305,-3924.9664L14030.6503,-3924.913L14030.6305,-3924.7334L14030.6503,-3924.6799L14030.7404,-3924.5533L14030.7404,-3924.4801L14030.7205,-3924.3732L14030.6107,-3924.2798L14030.6107,-3924.1531L14030.6107,-3924.0665L14030.5405,-3923.9532L14030.4901,-3923.8865L14030.4901,-3923.8464L14030.4901,-3923.7732"/>
<path content="AP030,1,28,1,0,16,1,8,JPN" xlink:title="AP030" d="M14052.0401,-3923.4333L14052.15,-3923.6134L14052.6306,-3924.4064L14053.1998,-3925.2533L14053.3798,-3925.4864L14053.54,-3925.9731L14053.5797,-3926.2466L14053.7201,-3926.6933L14053.8605,-3927.0397L14053.9224,-3927.1607"/>
<path content="AP030,1,28,1,0,15,1,8,JPN" xlink:title="AP030" d="M14048.5794,-3926.873L14052.0401,-3923.4333"/>
<path content="AP030,1,28,1,0,15,1,8,JPN" xlink:title="AP030" d="M14039.1495,-3927.5066L14040.0208,-3924.9397L14039.2395,-3923.3997"/>
<path content="AP030,1,28,1,0,15,1,8,JPN" xlink:title="AP030" d="M14014.7705,-3923.093L14016.1041,-3923.7701L14016.8503,-3923.9697L14017.3065,-3924.3347L14017.8452,-3925.264L14018.1778,-3925.7618L14018.4677,-3926.0273L14019.0903,-3926.1269L14020.7077,-3926.3596L14022.1588,-3926.725L14023.1964,-3926.8913L14024.3988,-3926.825L14025.3525,-3926.6262L14025.7675,-3926.4935L14026.2238,-3926.4938L14026.8036,-3926.6266"/>
<path content="AP030,1,28,1,0,14,1,8,JPN" xlink:title="AP030" d="M14006.9,-3934.3334L14007.1106,-3934.2602L14007.2403,-3934.1534L14007.3303,-3933.9733L14007.3807,-3933.8665L14007.4005,-3933.7933L14007.4493,-3933.6864L14007.4493,-3933.6533L14007.3807,-3933.5064L14007.3105,-3933.4332L14007.2906,-3933.3797L14007.2906,-3933.2733L14007.3593,-3933.2001L14007.5806,-3933.0933L14007.9498,-3932.8598L14008.1299,-3932.7465L14008.2901,-3932.6065L14008.6807,-3932.46L14009.1293,-3932.4799L14009.2194,-3932.4799L14009.3796,-3932.28L14009.3994,-3932.1533L14009.4971,-3932.1083L14009.5596,-3932.0801L14009.7,-3931.9401L14009.8801,-3931.5598L14009.9304,-3931.4667L14009.9899,-3931.2332L14009.9899,-3931.1066L14009.9899,-3931.02L14009.9899,-3930.9265L14010.1303,-3930.6931L14010.2203,-3930.4398L14010.2203,-3929.8134L14010.2005,-3929.5399L14010.1807,-3929.4666L14010.1807,-3929.3999L14010.3104,-3929.1798L14010.6995,-3928.7666L14010.8795,-3928.6934L14011.0397,-3928.6064L14011.2396,-3928.4599L14011.5204,-3928.1731L14011.5402,-3928.0132L14011.5402,-3927.8465L14011.4304,-3927.6863L14011.2701,-3927.5398L14011.1496,-3927.3998L14011.0397,-3927.1999L14011.0199,-3927.1065L14011.0199,-3927.0199L14011.1496,-3926.873L14011.38,-3926.7464L14011.5799,-3926.5663L14011.8301,-3926.5133L14012.0193,-3926.4599L14012.1307,-3926.3733L14012.1094,-3926.173L14011.8301,-3925.9197L14011.8103,-3925.7931L14011.7905,-3925.3998L14011.7905,-3925.2533L14011.7905,-3925L14011.8607,-3924.8932L14011.9904,-3924.7665L14012.2192,-3924.6063L14012.4298,-3924.5533L14012.6297,-3924.5667L14012.8006,-3924.7059L14012.8098,-3924.7131L14012.9501,-3924.8199L14013.0203,-3924.86L14013.15,-3924.8199L14013.15,-3924.5533L14013.2004,-3924.3198L14013.2202,-3924.2798L14013.4506,-3923.9201L14013.5406,-3923.793L14013.6307,-3923.7064L14013.7894,-3923.5397L14014.1998,-3923.1667L14014.3295,-3923.1266L14014.3997,-3923.1266L14014.7705,-3923.093"/>
<path content="AP030,1,28,1,0,14,1,8,JPN" xlink:title="AP030" d="M14030.4901,-3923.7732L14030.7007,-3923.6866L14030.7205,-3923.6134L14031.1096,-3923.5931L14031.1493,-3923.56L14031.1493,-3923.4333L14031.1493,-3923.3601L14031.2393,-3923.2731L14031.4301,-3923.2201L14031.7001,-3923.2533L14031.7902,-3923.2533L14031.9504,-3923.1998L14032.0602,-3923.1998L14032.3303,-3923.3067L14032.4905,-3923.3265L14032.6492,-3923.3265L14032.8094,-3923.2731L14032.93,-3923.2731L14033.11,-3923.3265L14033.3298,-3923.3601L14033.4503,-3923.3601L14033.6807,-3923.4531L14033.7402,-3923.4665L14034.0195,-3923.4531L14034.2697,-3923.4531L14034.3796,-3923.4131L14034.4498,-3923.3997L14034.5795,-3923.4131L14034.6497,-3923.3601L14034.7198,-3923.3265L14034.79,-3923.3601L14034.8297,-3923.4531L14034.9304,-3923.4665L14035.1105,-3923.4531L14035.1303,-3923.4131L14035.1105,-3923.3799L14035.0601,-3923.3601L14035.0403,-3923.3463L14035.0403,-3923.2864L14035.1105,-3923.2864L14035.2402,-3923.3067L14035.3104,-3923.3067L14035.4507,-3923.2201L14035.5392,-3923.18L14035.8795,-3923.1667L14036.2396,-3923.093L14036.3602,-3923.0198L14036.5204,-3923.0198L14036.8607,-3923.1064L14037.1094,-3923.1064L14037.3093,-3923.0732L14037.5595,-3922.9664L14037.8601,-3922.9465L14038.1104,-3923.04L14038.2706,-3923.093L14038.6093,-3923.1266L14038.8596,-3923.2201L14039.0198,-3923.3067L14039.1495,-3923.3799L14039.2395,-3923.3997"/>
<path content="AP030,1,28,1,0,15,1,8,JPN" xlink:title="AP030" d="M14043.0801,-3927.56L14043.8187,-3926.6743L14043.8187,-3926.3836L14044.5709,-3925.7301L14045.2286,-3925.2216L14045.6055,-3925.4395L14046.64,-3924.0597L14047.2977,-3923.1884L14047.5494,-3922.9286"/>
<path content="AP030,1,28,1,0,15,1,8,JPN" xlink:title="AP030" d="M14013.6581,-3922.7848L14014.7705,-3923.093"/>
<path content="AP030,1,28,1,0,16,1,8,JPN" xlink:title="AP030" d="M14051.4496,-3922.5666L14051.7197,-3922.9134L14052.0401,-3923.4333"/>
<path content="AP030,1,28,1,0,15,1,8,JPN" xlink:title="AP030" d="M14047.5494,-3922.9286L14049.3011,-3922.7375L14051.4496,-3922.5666"/>
<path content="AP030,1,28,1,0,14,1,8,JPN" xlink:title="AP030" d="M14039.2395,-3923.3997L14039.3997,-3923.5065L14039.7705,-3923.5065L14039.83,-3923.4863L14039.9002,-3923.4131L14040.1505,-3923.3601L14040.3305,-3923.3601L14040.4694,-3923.233L14040.5807,-3922.9664L14040.6494,-3922.8733L14040.9698,-3922.5666L14041.1499,-3922.4064L14041.2704,-3922.1333L14041.2903,-3922.0798L14041.3022,-3922.0057"/>
<path content="AP030,1,28,1,0,15,1,8,JPN" xlink:title="AP030" d="M14041.3022,-3922.0057L14042.2546,-3921.9414L14042.9413,-3922.2202L14043.8248,-3922.4384L14044.4336,-3922.5639L14045.7718,-3922.4937L14046.6141,-3922.8035L14047.5388,-3922.9301L14047.5494,-3922.9286"/>
<path content="AP030,1,28,1,0,14,1,8,JPN" xlink:title="AP030" d="M14051.6296,-3921.92L14051.7899,-3922.3866L14051.8997,-3922.4998L14052.0203,-3922.62L14052.15,-3922.7863L14052.2903,-3922.9263L14052.5192,-3923.2731L14052.5406,-3923.3067L14052.7695,-3923.5264L14053.1097,-3923.74L14053.1494,-3924.0265L14053.1998,-3924.3732"/>
<path content="AP030,1,28,1,0,15,1,8,JPN" xlink:title="AP030" d="M13997.4185,-3927.3437L13997.5426,-3927.2929L13997.6471,-3927.4198L13997.5491,-3927.5975L13997.634,-3927.6736L13997.8234,-3927.633L13997.9345,-3927.7447L13998.3917,-3927.7447L13998.6791,-3927.6127L13999.28,-3927.3234L13999.6551,-3927.1132L13999.9947,-3926.971L14000.393,-3926.707L14000.8436,-3926.3669L14001.255,-3925.9862L14001.8623,-3925.3872L14002.2345,-3924.9151L14002.5022,-3924.6003L14002.7242,-3924.4531L14003.0033,-3924.3388L14003.3493,-3924.1967L14003.8454,-3923.9784L14004.1587,-3924.014L14004.6353,-3924.1003L14005.0466,-3924.1713L14005.4774,-3924.217L14006.2021,-3924.283L14006.5742,-3924.1612L14006.8027,-3923.9987L14006.9593,-3923.8261L14007.0964,-3923.618L14007.1277,-3923.3567L14007.2256,-3923.0674L14007.3235,-3922.8592L14007.5062,-3922.6207L14007.6955,-3922.4531L14007.8195,-3922.2907L14007.95,-3921.7272L14008.074,-3921.4581L14008.4264,-3921.1079L14008.5831,-3920.8236L14008.4264,-3920.519"/>
<path content="AP030,1,28,1,0,15,1,8,JPN" xlink:title="AP030" d="M14030.4901,-3923.7732L14030.7037,-3922.5601L14031.366,-3921.925L14031.5353,-3921.4916L14031.282,-3920.1565"/>
<path content="AP030,1,28,1,0,15,1,8,JPN" xlink:title="AP030" d="M14026.8036,-3926.6266L14026.886,-3926.0292L14027.0523,-3925.631L14026.9287,-3924.9008L14026.5961,-3923.6401L14026.5961,-3922.6112L14026.7624,-3921.9143L14027.1774,-3921.5824L14027.8412,-3921.4169L14028.3386,-3921.085L14028.7521,-3920.7535L14029.0848,-3920.322L14029.541,-3920.1229L14029.9133,-3920.1229L14030.661,-3920.2892L14030.9921,-3920.3224L14031.282,-3920.1565"/>
<path content="AP030,1,28,1,0,15,1,8,JPN" xlink:title="AP030" d="M14053.1998,-3924.3732L14053.5751,-3923.9105L14054.2236,-3923.1083L14054.2374,-3921.1281L14054.1306,-3920.0665"/>
<path content="AP030,1,28,1,0,14,1,8,JPN" xlink:title="AP030" d="M14054.1306,-3920.0665L14054.2404,-3920.0665L14054.6997,-3920.1332L14055.3101,-3920.1931"/>
<path content="AP030,1,28,1,0,14,1,8,JPN" xlink:title="AP030" d="M14051.6296,-3921.92L14051.9302,-3921.7934L14052.1103,-3921.7197L14052.4231,-3921.5508L14052.7405,-3921.3799L14052.9297,-3921.1998L14053.1097,-3921.1063L14053.27,-3920.8931L14053.45,-3920.6066L14053.8101,-3920.1733L14053.9902,-3920.0466L14054.1306,-3920.0665"/>
<path content="AP030,1,28,1,0,15,1,8,JPN" xlink:title="AP030" d="M14008.4264,-3920.519L14008.7734,-3920.2163L14009.0213,-3920.0691L14009.2432,-3920.0234L14009.6542,-3920.1452L14010.2805,-3920.3991L14011.0112,-3920.7138L14011.8332,-3921.0844L14012.1464,-3921.2925L14012.3696,-3921.5448L14012.4545,-3921.7377L14012.6663,-3922.5094L14012.6829,-3922.7987L14013.3421,-3922.8901L14013.6581,-3922.7848"/>
<path content="AP030,1,28,1,0,14,1,8,JPN" xlink:title="AP030" d="M13992.7902,-3925.7599L13992.8101,-3925.6866L13992.8299,-3925.2197L13992.7902,-3925.1064L13992.5201,-3924.7665L13992.1875,-3924.3623"/>
<path content="AP030,1,28,1,0,15,1,8,JPN" xlink:title="AP030" d="M13995.3829,-3925.3126L13995.4926,-3925.0771L13995.6911,-3924.4151L13995.4793,-3924.358L13995.166,-3924.3783L13994.9571,-3924.2616L13994.7548,-3924.226L13994.6699,-3923.9468L13994.5132,-3923.7184L13994.1608,-3923.2108L13994.1281,-3923.028L13994.1934,-3922.8453L13994.3827,-3922.5914L13994.4871,-3922.2868L13994.4315,-3921.8828L13994.3402,-3921.6239L13994.164,-3921.5173L13994.2162,-3921.2483L13994.2684,-3921.0604L13994.4903,-3920.8269L13995.3646,-3920.101L13995.8137,-3919.5801"/>
<path content="AP030,1,28,1,0,15,1,8,JPN" xlink:title="AP030" d="M13994.87,-3919.308L13995.3857,-3919.3811L13995.8137,-3919.5801"/>
<path content="AP030,1,28,1,0,15,1,8,JPN" xlink:title="AP030" d="M13992.1875,-3920.0887L13992.2408,-3920.067L13992.2408,-3919.718L13992.3019,-3919.5832L13992.5669,-3919.5038L13992.9849,-3919.4325L13993.57,-3919.358L13994.28,-3919.315L13994.87,-3919.308"/>
<path content="AP030,1,28,1,0,14,1,8,JPN" xlink:title="AP030" d="M14055.3101,-3920.1931L14055.4901,-3920.3331L14055.6503,-3920.3732L14055.9906,-3920.3732L14056.2698,-3920.4998L14056.6101,-3920.6398L14056.9,-3920.6932L14057.1503,-3920.7333L14057.2205,-3920.713L14057.3105,-3920.6799L14057.4905,-3920.6398L14057.6294,-3920.6066L14057.9895,-3920.4399L14058.2001,-3920.3197L14058.3801,-3920.2465L14059.1507,-3920.0665L14059.3307,-3920.0665L14059.7397,-3920.1199L14059.9304,-3920.0466L14060.2005,-3919.9932L14060.4507,-3919.92L14060.7193,-3919.8864L14060.8307,-3919.8666L14061.0596,-3919.8334L14061.4304,-3919.6331L14061.7905,-3919.4332L14061.8607,-3919.2333L14061.9003,-3919.1463L14061.9705,-3919.0533L14062.0804,-3918.9667L14062.3093,-3918.8599L14062.5,-3918.8599"/>
<path content="AP030,1,28,1,0,16,1,8,JPN" xlink:title="AP030" d="M14048.6298,-3918.4799L14048.8297,-3918.7664L14049.0601,-3919.22L14049.5407,-3919.7063L14049.8993,-3919.9532L14050.0793,-3920.1L14050.3296,-3920.4399L14050.7401,-3920.9465L14050.7706,-3920.9866L14050.9293,-3921.273L14051.1307,-3921.5797L14051.2405,-3921.8464L14051.3306,-3922.2797L14051.4496,-3922.5666"/>
<path content="AP030,1,28,1,0,15,1,8,JPN" xlink:title="AP030" d="M14047.5494,-3922.9286L14047.58,-3922.8977L14047.2046,-3922.2443L14047.7676,-3921.7361L14047.6746,-3921.2276L14047.58,-3920.8645L14047.8622,-3920.4288L14047.8622,-3919.8479L14048.6298,-3918.4799"/>
<path content="AP030,1,28,1,0,15,1,8,JPN" xlink:title="AP030" d="M14061.5204,-3928.4264L14061.7248,-3927.9301L14062.3958,-3927.7362L14062.5,-3927.6976"/>
<path content="AP030,1,28,1,0,16,1,8,JPN" xlink:title="AP030" d="M14048.6298,-3918.4799L14048.4497,-3918.1332L14048.3307,-3917.72L14048.2697,-3917.2531"/>
<path content="AP030,1,28,1,0,14,1,8,JPN" xlink:title="AP030" d="M14041.3022,-3922.0057L14041.33,-3921.833L14041.4001,-3921.6663L14041.4001,-3921.5065L14041.3803,-3921.3467L14041.0202,-3920.8931L14040.6998,-3920.5532L14040.77,-3920.5132L14041.2704,-3920.2599L14041.3101,-3920.1199L14041.2903,-3919.7731L14041.2704,-3919.3466L14041.2399,-3919.22L14041.3101,-3919.1998L14041.4001,-3919.1666L14042.5797,-3919.1067L14043.5806,-3919.0201L14043.7195,-3919.0201L14043.8995,-3918.9865L14044.22,-3918.8732L14044.3802,-3918.8732L14044.6793,-3918.8931L14044.7205,-3918.8732L14044.7693,-3918.8599L14044.9493,-3918.8198L14045.2194,-3918.9667L14045.2896,-3918.9999L14045.43,-3919.0201L14045.5597,-3918.9266L14045.7199,-3918.7332L14045.7901,-3918.6398L14045.99,-3918.4998L14046.6095,-3918.2266L14046.8597,-3918.0134L14047.0596,-3917.72L14047.1497,-3917.6132L14047.5403,-3917.4534L14048.2697,-3917.2531"/>
<path content="AP030,1,28,1,0,15,1,8,JPN" xlink:title="AP030" d="M14031.282,-3920.1565L14031.3248,-3919.8578L14031.1172,-3919.2272L14031.076,-3918.7298L14031.1996,-3918.3315L14031.3248,-3918.066L14031.6559,-3917.7341L14031.8222,-3917.6014L14032.1945,-3917.5018L14032.8995,-3917.469L14033.522,-3917.3031L14033.812,-3917.0708"/>
<path content="AP030,1,28,1,0,14,1,8,JPN" xlink:title="AP030" d="M14051.6296,-3921.92L14051.5198,-3921.7064L14051.3794,-3921.4531L14051.1993,-3921.1464L14050.9903,-3920.8931L14050.9506,-3920.8401L14050.7202,-3920.6066L14050.56,-3920.4063L14050.6302,-3920.2065L14050.6516,-3920.1172L14050.6805,-3919.9932L14050.5402,-3919.7399L14050.3799,-3919.3466L14050.0595,-3918.6199L14049.9496,-3918.4399L14049.8093,-3918.28L14049.7406,-3918.2266L14049.4904,-3917.8864L14049.3301,-3917.5598L14049.2706,-3917.3466L14049.1501,-3916.9464"/>
<path content="AP030,1,28,1,0,14,1,8,JPN" xlink:title="AP030" d="M14048.2697,-3917.2531L14048.8617,-3917.0467L14049.1501,-3916.9464"/>
<path content="AP030,1,28,1,0,15,1,8,JPN" xlink:title="AP030" d="M14055.3101,-3920.1931L14056.8802,-3915.2733"/>
<path content="AP030,1,28,1,0,15,1,8,JPN" xlink:title="AP030" d="M13995.8137,-3919.5801L13996.49,-3919.209L13996.93,-3919.091L13997.59,-3918.873L13998.26,-3918.798L13998.88,-3918.736L13999.44,-3918.631L14000.14,-3918.394L14001.04,-3918.071L14001.7,-3917.816L14003.06,-3916.912L14003.69,-3916.391L14004.55,-3915.819L14005.2,-3915.34L14005.52,-3915.247L14005.76,-3915.328L14005.97,-3915.633L14005.98,-3916.093L14006.1,-3916.423L14006.45,-3916.796L14006.8,-3917.119L14007.14,-3917.437L14007.48,-3917.841L14007.57,-3918.133L14007.51,-3918.562L14007.34,-3918.935L14007.21,-3919.284L14007.22,-3919.526L14007.23,-3919.905L14007.28,-3920.235L14007.47,-3920.484L14007.82,-3920.562L14008.2372,-3920.5748L14008.4264,-3920.519"/>
<path content="AP030,1,28,1,0,14,1,8,JPN" xlink:title="AP030" d="M14049.1501,-3916.9464L14049.4293,-3916.9132L14049.4904,-3916.8934L14049.8993,-3916.6599L14050.1297,-3916.5531L14050.3799,-3916.4265L14050.6805,-3916.4398L14050.8102,-3916.4066L14051.1307,-3916.28L14051.5198,-3916.1331L14051.6495,-3916.1331L14051.8799,-3916.1934L14052.0599,-3916.1934L14052.2903,-3916.2266L14052.5803,-3916.2464L14052.7206,-3916.2464L14052.8595,-3916.1934L14053.0396,-3916.0465L14053.1494,-3916.0267L14053.4302,-3916.0133L14053.7903,-3915.9531L14054.4495,-3915.8333L14054.8294,-3915.8131L14054.95,-3915.8131L14055.5603,-3915.8131L14055.6305,-3915.76L14055.9494,-3915.2866L14056.0196,-3915.2199L14056.1493,-3915.2199L14056.2698,-3915.2733L14056.4499,-3915.2531L14056.7001,-3915.2531L14056.8802,-3915.2733"/>
<path content="AP030,1,28,1,0,15,1,8,JPN" xlink:title="AP030" d="M14013.6581,-3922.7848L14014.7171,-3921.698L14015.053,-3921.3198L14015.4199,-3920.8756L14015.6544,-3920.4869L14015.899,-3920.1141L14016.0315,-3919.662L14016.2048,-3918.8926L14016.2455,-3918.3611L14016.1003,-3917.7452L14016.1411,-3917.2455L14016.3346,-3916.5475L14016.3448,-3915.7146L14016.355,-3915.3735L14016.4467,-3915.0563L14016.681,-3914.8342L14017.0273,-3914.6834L14017.5061,-3914.501L14018.097,-3914.3503L14018.7286,-3914.2075L14019.2481,-3914.1996L14019.4213,-3914.1996"/>
<path content="AP030,1,28,1,0,14,1,8,JPN" xlink:title="AP030" d="M14048.2488,-3913.7298L14048.3994,-3913.94L14048.6404,-3914.0587L14048.79,-3914.1331L14048.9899,-3914.2799L14049.2004,-3914.4798L14049.2706,-3914.8933L14049.1806,-3915.02L14049.0601,-3915.3267L14049.0402,-3915.9397L14049.0402,-3916.1934L14049.1104,-3916.6065L14049.1501,-3916.9464"/>
<path content="AP030,1,28,1,0,16,1,8,JPN" xlink:title="AP030" d="M14048.2697,-3917.2531L14048.07,-3915.898L14047.97,-3915.2L14047.97,-3914.528L14048.0536,-3914.1291L14048.1758,-3913.8436L14048.2488,-3913.7298"/>
<path content="AP030,1,28,1,0,15,1,8,JPN" xlink:title="AP030" d="M14028.0594,-3912.5L14028.3798,-3912.7556L14028.5873,-3912.7888L14028.9185,-3912.7888L14029.4159,-3912.7892L14030.0797,-3912.9883L14030.5771,-3913.3533L14030.8685,-3913.6852L14031.0333,-3913.9839L14031.1172,-3914.3162L14031.076,-3914.6809L14031.076,-3915.0459L14031.1584,-3915.3114L14031.4484,-3915.7429L14031.6971,-3916.0416L14031.781,-3916.5062L14032.1533,-3916.8053L14032.5684,-3916.938L14033.107,-3916.8716L14033.6044,-3916.8716L14033.812,-3917.0708"/>
<path content="AP030,1,28,1,0,14,1,8,JPN" xlink:title="AP030" d="M14014.7705,-3923.093L14014.8102,-3922.9263L14014.83,-3922.8733L14014.8804,-3922.7131L14015.3595,-3922.6067L14015.9302,-3922.3866L14016.4703,-3922.2065L14016.7404,-3922.1199L14016.8594,-3922.0467L14016.9907,-3922.0131L14017.2394,-3921.9933L14017.4896,-3921.8666L14017.9901,-3921.6663L14018.2205,-3921.6663L14018.5196,-3921.5931L14018.6996,-3921.5599L14018.8095,-3921.3066L14018.7897,-3921.1266L14018.7393,-3921.0197L14018.7698,-3920.9465L14018.7698,-3920.8931L14018.8095,-3920.8199L14019.0796,-3920.5666L14019.1101,-3920.4998L14019.1101,-3920.4399L14019.0598,-3920.3732L14019.0399,-3920.1199L14018.9499,-3920.013L14018.8095,-3919.36L14018.7897,-3919.1265L14018.8095,-3919.0399L14018.8095,-3918.9465L14018.9697,-3918.7466L14019.1101,-3918.4067L14019.22,-3918.28L14019.4,-3918.1534L14019.7693,-3918.1332L14020.2194,-3918.1534L14020.4895,-3918.1534L14020.6497,-3918.0664L14021.1105,-3917.7067L14021.2692,-3917.58L14021.4905,-3917.5266L14021.5393,-3917.5266L14021.7896,-3917.4664L14021.8994,-3917.4534L14021.9299,-3917.4133L14022.02,-3917.2867L14022.1298,-3917.02L14022.2,-3916.9464L14022.3099,-3916.9132L14022.58,-3916.84L14022.8104,-3916.7999L14022.9507,-3916.7133L14023.0392,-3916.3864L14023.0392,-3916.2067L14023.0804,-3916.1198L14023.5397,-3915.9L14023.6298,-3915.76L14023.6801,-3915.7066L14023.7396,-3915.6864L14024.0799,-3915.6666L14024.2706,-3915.7398L14024.3103,-3915.7398L14024.4003,-3915.6864L14024.6094,-3915.5399L14024.6994,-3915.4667L14024.8596,-3915.3999L14025.0198,-3915.1665L14025.1297,-3914.9467L14025.2701,-3914.8197L14025.3799,-3914.7465L14025.6104,-3914.64L14025.7004,-3914.5531L14025.8301,-3914.4264L14025.9705,-3914.2998L14026.0605,-3914.2067L14026.3992,-3914.0667L14026.6296,-3913.8664L14026.7197,-3913.7932L14026.86,-3913.7066L14027.1805,-3913.3801L14027.2003,-3913.3266L14027.4307,-3913.253L14027.5803,-3913.2L14027.7206,-3913.0531L14028.0594,-3912.5"/>
<path content="AP030,1,28,1,0,14,1,8,JPN" xlink:title="AP030" d="M14028.0594,-3912.5L14028.0807,-3912.4268L14028.4897,-3912.2066L14028.4897,-3912.1933L14028.5202,-3912.1201L14028.54,-3912.0132L14028.6301,-3911.7733L14028.7903,-3911.5601L14028.8803,-3911.4532L14028.9505,-3911.2732L14029.0802,-3911.1065L14029.1306,-3911.0001L14029.124,-3910.904L14029.0935,-3910.8406"/>
<path content="AP030,1,28,1,0,15,1,8,JPN" xlink:title="AP030" d="M14019.4213,-3914.1996L14019.7065,-3914.1996L14020.0936,-3914.1679L14020.2872,-3914.1282L14020.4807,-3913.9775L14021.6115,-3912.6925L14021.9859,-3912.3001L14022.2913,-3912.1176L14022.495,-3911.9748L14023.1467,-3911.3958L14023.3809,-3911.261L14023.9511,-3911.0706L14024.3788,-3911.0071L14025.0814,-3910.9278L14025.7637,-3910.7295L14026.3747,-3910.5233L14026.7005,-3910.325L14026.9856,-3909.968L14027.4642,-3910.0711L14028.2687,-3910.206L14028.7473,-3910.3091L14029.0731,-3910.5153L14029.0935,-3910.8406"/>
<path content="AP030,1,28,1,0,14,1,8,JPN" xlink:title="AP030" d="M14056.8802,-3915.2733L14057.0602,-3915.1466L14057.1106,-3915.0532L14057.2006,-3914.9265L14057.4493,-3914.6797L14057.5607,-3914.6065L14057.6096,-3914.4798L14057.6096,-3914.4066L14057.6492,-3914.32L14057.7698,-3914.1933L14057.7393,-3914.1197L14057.7194,-3914.0266L14057.6996,-3913.8664L14057.6492,-3913.813L14057.5806,-3913.7199L14057.5394,-3913.3999L14057.5607,-3913.2732L14057.6996,-3913.0932L14057.6996,-3912.693L14057.6996,-3912.6198L14057.7194,-3912.4599L14057.7896,-3912.3734L14057.8293,-3912.2799L14057.8796,-3912.0464L14057.93,-3911.9732L14058.0597,-3911.8866L14058.1299,-3911.8465L14058.2901,-3911.5601L14058.3603,-3911.5067L14058.3801,-3911.1267L14058.2901,-3911.0001L14058.3298,-3910.7468L14058.3298,-3910.4797L14058.2703,-3910.3531L14058.3099,-3910.12L14058.2901,-3909.8866L14058.2901,-3909.8465L14058.2901,-3909.7599L14058.2703,-3909.6664L14058.1299,-3909.4131L14058.11,-3909.2865"/>
<path content="AP030,1,28,1,0,14,1,8,JPN" xlink:title="AP030" d="M14047.9294,-3909.1064L14047.9004,-3909.4532L14047.9507,-3909.7198L14048.0606,-3910.2066L14048.0606,-3910.4599L14048.0606,-3910.5667L14048.0392,-3911.2331L14048.0392,-3911.5398L14048.1506,-3911.7599L14048.1995,-3911.8866L14048.1995,-3912.1731L14048.2407,-3912.4065L14048.2407,-3912.9467L14048.3093,-3913.2L14048.2895,-3913.3465L14048.1796,-3913.6333L14048.2488,-3913.7298"/>
<path content="AP030,1,28,1,0,14,1,8,JPN" xlink:title="AP030" d="M14047.2397,-3908.4064L14047.4503,-3908.6201L14047.5204,-3908.7467L14047.5601,-3908.8398L14047.8104,-3908.9867L14047.9004,-3909.0733L14047.9294,-3909.1064"/>
<path content="AP030,1,28,1,0,15,1,8,JPN" xlink:title="AP030" d="M14033.812,-3917.0708L14034.642,-3916.8388L14035.0571,-3916.8388L14035.4706,-3916.972L14035.8032,-3917.3038L14036.0107,-3917.503L14036.3419,-3917.6357L14036.7569,-3917.7685L14036.882,-3917.9676L14036.882,-3918.3659L14036.9232,-3918.5318L14037.088,-3918.6646L14037.3795,-3918.7641L14037.6694,-3918.9301L14038.0005,-3919.2951L14038.3331,-3919.5278L14038.9969,-3919.6938L14039.4943,-3919.7933L14040.4144,-3919.9699L14041.0233,-3918.5936L14045.4926,-3916.4375L14046.5164,-3915.5514L14046.9727,-3914.1674L14047.3114,-3911.2484L14047.2397,-3908.4064"/>
<path content="AP030,1,28,1,0,15,1,8,JPN" xlink:title="AP030" d="M13994.87,-3919.308L13994.8794,-3918.408L13994.9909,-3917.652L13995.1184,-3917.3917L13995.3041,-3917.2545L13995.6224,-3916.9378L13995.8854,-3916.5856L13996.0158,-3916.4028L13996.0992,-3916.0495L13996.1827,-3915.7489L13996.3235,-3915.4159L13996.5426,-3915.0991L13997.0719,-3914.4804L13997.3275,-3914.2123L13997.4944,-3913.9524L13997.5674,-3913.7494L13997.5917,-3913.3237L13997.6282,-3913.2506L13997.6908,-3913.145L13997.7846,-3913.0882L13997.8837,-3913.0719L13998.1652,-3913.0597L13998.3581,-3913.0394L13998.5875,-3912.9379L13998.7387,-3912.8567L13999.0046,-3912.6292L13999.2601,-3912.3409L13999.3331,-3912.2069L13999.38,-3912.1297L13999.3904,-3911.9916L13999.1454,-3911.5977L13998.5904,-3910.7551L13998.4757,-3910.5074L13998.3506,-3910.4099L13998.1838,-3910.3855L13997.9336,-3910.418L13997.3707,-3910.5886L13997.0162,-3910.6617L13996.766,-3910.7185L13996.5784,-3910.6901L13996.3751,-3910.5317L13996.2395,-3910.3855L13995.5046,-3910.15L13994.6587,-3909.8358L13994.3877,-3909.7668L13994.1115,-3909.7018L13993.9604,-3909.7343L13993.8249,-3909.8236L13993.7154,-3909.9211L13993.5643,-3909.9617L13992.6053,-3909.5434L13992.1875,-3909.3784"/>
<path content="AP030,1,28,1,0,16,1,8,JPN" xlink:title="AP030" d="M14048.2488,-3913.7298L14048.3387,-3913.5897L14048.55,-3913.401L14049.11,-3912.914L14049.5097,-3912.5506L14049.73,-3912.275L14049.84,-3911.493L14049.86,-3910.257L14049.7,-3908.996L14049.3,-3908.147L14049.1336,-3907.9037"/>
<path content="AP030,1,28,1,0,15,1,8,JPN" xlink:title="AP030" d="M14047.9294,-3909.1064L14048.2498,-3909.0431L14048.6923,-3908.8802L14049.1336,-3907.9037"/>
<path content="AP030,1,28,1,0,14,1,8,JPN" xlink:title="AP030" d="M14029.0935,-3910.8406L14029.5593,-3910.5L14029.7897,-3910.3199L14029.8096,-3910.26L14029.9698,-3909.94L14030.04,-3909.8866L14030.0201,-3909.5398L14029.8996,-3909.1801L14029.9301,-3909.1465L14029.95,-3909.1064L14030.0797,-3908.9268L14030.2902,-3908.7334L14030.4306,-3908.6399L14030.5801,-3908.5133L14030.7007,-3908.3332L14030.7693,-3908.2798L14030.9906,-3908.1734L14031.1096,-3908.0467L14031.2698,-3907.9399L14031.7001,-3907.7732L14032.0404,-3907.6134L14032.1304,-3907.56L14032.5806,-3907.2731L14032.8094,-3907.18L14033.02,-3907.093L14033.1299,-3907.04"/>
<path content="AP030,1,28,1,0,15,1,8,JPN" xlink:title="AP030" d="M14053.3875,-3906.4743L14054.8843,-3909.4486L14058.11,-3909.2865"/>
<path content="AP030,1,28,1,0,15,1,8,JPN" xlink:title="AP030" d="M14049.1336,-3907.9037L14049.2798,-3907.5802L14049.8291,-3907.1564L14051.7593,-3906.8111L14053.3875,-3906.4743"/>
<path content="AP030,1,28,1,0,14,1,4,JPN" xlink:title="AP030" d="M14033.1299,-3907.04L14034.52,-3906.4598L14034.9701,-3906.3332L14035.5392,-3906.3332L14035.7407,-3906.3732"/>
<path content="AP030,1,28,1,0,16,1,8,JPN" xlink:title="AP030" d="M14049.1336,-3907.9037L14048.8,-3907.416L14048.25,-3906.886L14047.48,-3906.44L14045.8337,-3905.8143"/>
<path content="AP030,1,28,1,0,14,1,8,JPN" xlink:title="AP030" d="M14045.8337,-3905.8143L14045.9305,-3905.92L14046.1807,-3906.2065L14046.3104,-3906.4068L14046.3104,-3906.6399L14046.3104,-3906.7131L14046.3104,-3906.7467L14046.3104,-3907.1266L14046.2753,-3907.3669L14046.2402,-3907.6134L14046.2402,-3907.653L14046.4005,-3907.793L14046.9299,-3908.1734L14047.2397,-3908.4064"/>
<path content="AP030,1,28,1,0,14,1,8,JPN" xlink:title="AP030" d="M14044.8593,-3905.1067L14045.1492,-3905.22L14045.4895,-3905.4131L14045.6497,-3905.6133L14045.8337,-3905.8143"/>
<path content="AP030,1,28,1,0,14,1,8,JPN" xlink:title="AP030" d="M14035.7407,-3906.3732L14035.9695,-3906.4068L14036.4502,-3906.3732L14036.7706,-3906.3L14037.2406,-3906.1531L14037.2696,-3906.1333L14037.3596,-3906.1001L14037.3993,-3906.0467L14037.4893,-3905.9731L14037.5595,-3905.92L14037.7396,-3905.8666L14037.8098,-3905.8331L14037.8601,-3905.74L14037.97,-3905.7068L14038.0798,-3905.7068L14038.3301,-3905.5401L14038.7207,-3905.2868L14038.9496,-3905.1998L14039.2899,-3905.2334L14039.3997,-3905.2532L14039.7202,-3905.2731L14039.9002,-3905.2731L14040.0604,-3905.2532L14040.2405,-3905.18L14040.2695,-3905.1666L14040.3107,-3905.1029L14040.39,-3904.9816"/>
<path content="AP030,1,28,1,0,14,1,8,JPN" xlink:title="AP030" d="M14040.39,-3904.9816L14040.4007,-3904.9866L14040.6097,-3904.9999L14040.7898,-3904.9667"/>
<path content="AP030,1,28,1,0,14,1,8,JPN" xlink:title="AP030" d="M14040.39,-3904.9816L14040.4007,-3904.9667L14040.4694,-3904.8931L14040.5197,-3904.8599L14040.6097,-3904.8599L14040.7394,-3904.9133L14040.7898,-3904.9667"/>
<path content="AP030,1,28,1,0,14,1,8,JPN" xlink:title="AP030" d="M14040.7898,-3904.9667L14040.8295,-3904.9667L14041.3605,-3904.7867L14041.6504,-3904.6799L14041.7404,-3904.66L14041.9495,-3904.6066L14042.1997,-3904.6066L14042.3599,-3904.66L14042.6804,-3904.8733L14042.9504,-3905.0732L14043.1305,-3905.1266L14043.3807,-3905.1666L14043.7698,-3905.2334L14043.9301,-3905.2731L14043.9697,-3905.2731L14044.1498,-3905.2334L14044.3604,-3905.1666L14044.5602,-3905.1067L14044.8593,-3905.1067"/>
<path content="AP030,1,28,1,0,14,1,8,JPN" xlink:title="AP030" d="M14058.11,-3909.2865L14058.11,-3909.2197L14058.1497,-3909.1667L14058.3099,-3909.1267L14058.4,-3909.053L14058.5403,-3908.913L14058.6807,-3908.86L14058.8593,-3908.7868L14059.0393,-3908.4801L14059.0607,-3908.3L14059.0607,-3908.2066L14059.0607,-3908.1532L14059.0805,-3908.0997L14059.0607,-3908.0467L14058.9905,-3907.9731L14058.9905,-3907.793L14058.9294,-3907.7732L14058.7006,-3907.7732L14058.6807,-3907.653L14058.6807,-3907.56L14058.6807,-3907.4333L14058.6304,-3907.3601L14058.5602,-3907.3067L14058.5403,-3906.9668L14058.58,-3906.8733L14058.7006,-3906.8199L14058.8104,-3906.6933L14058.9294,-3906.62L14059.0195,-3906.5666L14059.1095,-3906.5331L14059.1995,-3906.48L14059.3094,-3906.2798L14059.4498,-3906.1531L14059.5596,-3906.1001L14059.6802,-3906.0799L14059.9701,-3906.0665L14060.1303,-3905.9933L14060.2402,-3905.9532L14060.4004,-3905.9399L14060.5804,-3905.9532L14060.6506,-3905.9399L14060.8307,-3905.7598L14060.8597,-3905.6866L14060.9497,-3905.6332L14061.47,-3905.5065L14061.7203,-3905.5599L14061.8301,-3905.5599L14062.0193,-3905.5065L14062.2192,-3905.4867L14062.3795,-3905.4665L14062.4496,-3905.4131L14062.5,-3905.375"/>
<path content="AP030,1,28,1,0,15,1,8,JPN" xlink:title="AP030" d="M13992.1875,-3901.8741L13992.6094,-3901.9343L13993.7356,-3901.9918L13994.3655,-3902.0933L13995.1204,-3902.1786L13995.7868,-3902.4345L13995.9235,-3902.615L13996.0328,-3902.7612L13996.0691,-3902.944L13996.2149,-3903.1755L13996.491,-3903.5572L13996.8035,-3903.9106L13997.2772,-3904.4061L13997.4907,-3904.5442L13997.824,-3904.6254L13998.1104,-3904.7838L13998.2145,-3904.9666L13998.2244,-3905.1124L13998.1879,-3905.2952L13998.1254,-3905.3683L13998.089,-3905.4455L13998.1671,-3905.5754L13998.3078,-3905.7216L13998.7349,-3905.9734"/>
<path content="AP030,1,28,1,0,14,1,8,JPN" xlink:title="AP030" d="M14037.3596,-3901.0201L14037.3306,-3901.4332L14037.4496,-3901.6132L14037.7701,-3902.1198L14037.97,-3902.2465L14037.97,-3902.3533L14037.9868,-3902.4078L14038.0203,-3902.5131L14038.0798,-3902.6798L14038.2202,-3902.84L14038.3682,-3902.8988L14038.4903,-3902.9465L14038.5406,-3903.0399L14038.6795,-3903.273L14038.9297,-3903.54L14039.2197,-3903.7197L14039.3799,-3903.8467L14039.4897,-3904.1199L14039.6103,-3904.3198L14039.7705,-3904.4067L14039.9002,-3904.5864L14040.1505,-3904.8599L14040.39,-3904.9816"/>
<path content="AP030,1,28,1,0,15,1,8,JPN" xlink:title="AP030" d="M14053.3875,-3906.4743L14055.0369,-3905.291L14056.4377,-3904.8016L14057.5287,-3902.776L14058.5464,-3902.3338L14059.3735,-3901.9409L14060.5148,-3902.0931L14061.9125,-3901.9493L14062.5,-3901.485"/>
<path content="AP030,1,28,1,0,14,1,4,JPN" xlink:title="AP030" d="M14037.3596,-3901.0201L14037.2696,-3900.6798L14036.9293,-3900.2068L14036.6501,-3900.0668L14036.6104,-3900.0267"/>
<path content="AP030,1,28,1,0,14,1,8,JPN" xlink:title="AP030" d="M14044.8593,-3905.1067L14044.9005,-3904.9667L14044.9005,-3904.7867L14044.8105,-3904.5532L14044.8105,-3904.1931L14045.0195,-3903.7933L14045.2896,-3903.36L14045.3995,-3903.22L14045.4498,-3903.0933L14045.3293,-3902.9865L14045.3293,-3902.7664L14045.4498,-3902.6932L14045.7199,-3902.4265L14045.7703,-3902.2266L14045.8603,-3902.0466L14045.9702,-3901.8131L14046.1502,-3901.58L14046.2204,-3901.3798L14046.2402,-3901.1467L14046.2692,-3901.1066L14046.2906,-3900.9865L14046.2906,-3900.893L14046.2692,-3900.4997L14046.3806,-3900.3532L14046.5393,-3900.1732L14046.6995,-3899.8466L14046.7697,-3899.773L14046.8597,-3899.633L14047.0398,-3899.5068L14047.11,-3899.3999L14047.0398,-3899.2001L14047.0596,-3899.0932L14047.1497,-3898.9468L14047.4503,-3898.7667L14048.1293,-3898.7667"/>
<path content="AP030,1,28,1,0,14,1,8,JPN" xlink:title="AP030" d="M14036.29,-3898.28L14036.3602,-3898.46L14036.38,-3898.6198L14036.3602,-3898.9666L14036.4304,-3899.1066L14036.4899,-3899.2867L14036.4899,-3899.3797L14036.4899,-3899.4331L14036.47,-3899.5934L14036.5402,-3899.7066L14036.5601,-3899.7601L14036.5601,-3899.9001L14036.6104,-3900.0267"/>
<path content="AP030,1,28,1,0,16,1,8,JPN" xlink:title="AP030" d="M14036.29,-3898.28L14036.49,-3898.069L14036.64,-3897.614L14036.64,-3897.3222"/>
<path content="AP030,1,28,1,0,14,1,8,JPN" xlink:title="AP030" d="M13992.1875,-3899.2954L13992.2394,-3899.2199L13992.5797,-3898.9864L13992.7704,-3898.6065L13992.8101,-3898.513L13993.0206,-3898.4066L13993.2693,-3898.28L13993.2907,-3898.2265L13993.2907,-3898.0667L13993.5196,-3897.6532L13993.6798,-3897.3801L13993.8095,-3897.2L13993.8095,-3897.1664"/>
<path content="AP030,1,28,1,0,15,1,8,JPN" xlink:title="AP030" d="M13994.2398,-3897.1466L13994.3192,-3897.7911L13994.3777,-3898.2886L13994.7355,-3898.5932L13994.8786,-3898.8267L13995.1843,-3898.913L13995.5942,-3899.1466L13996.0755,-3899.2176L13996.4853,-3899.2887L13997.1944,-3899.3395L13997.4097,-3899.7059L13997.826,-3899.6653L13998.34,-3899.6602L13998.6913,-3899.5587L13999.1011,-3899.4623L13999.537,-3899.4369L14000,-3899.324L14000.4348,-3899.2846L14000.9617,-3899.31L14001.2024,-3899.3252L14002.0091,-3899.6907L14002.5336,-3899.7534L14002.8199,-3899.794L14002.9825,-3899.6772L14003.3144,-3899.5909L14003.5421,-3899.7584L14003.7699,-3899.8447L14004.1538,-3900.1747L14004.427,-3900.4438L14004.5637,-3900.6215L14004.8044,-3900.7433L14005.0322,-3900.9667L14005.2404,-3901.251L14005.312,-3901.6013L14005.4835,-3901.925L14005.5812,-3902.326L14005.5877,-3902.7271L14005.5617,-3903.0571L14005.5747,-3903.184L14005.6528,-3903.3109L14005.9001,-3903.4074L14006.1866,-3903.5597L14006.3884,-3903.7577L14006.4014,-3904.0166L14006.4469,-3904.1282L14006.6683,-3904.1536L14006.6813,-3904.3059L14006.8636,-3904.2501L14007.163,-3904.3009L14007.534,-3904.3415L14008.1154,-3904.6433L14008.2782,-3904.6332L14008.4344,-3904.5418L14008.6102,-3904.5519L14008.773,-3904.5773L14008.9944,-3904.8464L14009.2613,-3905.0748L14009.3851,-3905.2931L14009.7106,-3905.4353L14009.9059,-3905.4505L14009.9971,-3905.5216L14010.1338,-3905.8008L14010.0817,-3906.0597L14009.9906,-3906.2272L14010.1208,-3906.3237L14010.3682,-3906.4354L14010.3943,-3906.542L14010.2315,-3906.7146L14010.3403,-3906.8649L14010.6269,-3907.332L14010.8484,-3907.4183L14010.8354,-3907.5553L14010.5944,-3907.733L14010.5423,-3907.9056L14010.6595,-3908.1442L14010.8549,-3908.1442L14010.9787,-3908.2559L14010.8028,-3908.4844L14010.6921,-3908.5808L14010.5488,-3908.6214L14010.3925,-3908.8296L14010.5944,-3908.9057L14010.679,-3909.0275L14010.5423,-3909.2408L14010.7963,-3909.5047L14010.7702,-3909.6723L14010.9265,-3909.8601L14011.0894,-3909.8144L14011.5518,-3909.8906L14011.8514,-3909.9637L14011.8774,-3910.1667L14012.2097,-3910.3495L14012.4898,-3910.4104L14012.7309,-3910.385L14012.8351,-3910.2327L14012.7895,-3910.05L14012.6071,-3909.8926L14012.6527,-3909.7911L14012.9719,-3909.7606L14013.1543,-3909.7099L14013.3237,-3909.4459L14013.4215,-3909.2225L14013.441,-3909.0702L14013.5322,-3908.9585L14013.7016,-3908.9687L14013.897,-3909.0905L14014.0404,-3909.3139L14014.0534,-3909.4408L14014.112,-3909.4916L14014.3205,-3909.5474L14014.5746,-3909.5677L14014.783,-3909.5119L14015.0892,-3909.5423L14015.1607,-3909.625L14015.5517,-3909.6859L14015.7797,-3909.7468L14016.0469,-3909.6859L14016.4248,-3909.7062L14016.6659,-3909.757L14016.8614,-3909.7976L14017.0177,-3910.0057L14016.907,-3910.1174L14016.8939,-3910.2596L14016.9917,-3910.2494L14017.2784,-3910.2139L14017.4804,-3910.3763L14017.4804,-3910.6911L14017.3761,-3911.0413L14017.2784,-3911.3206L14017.3891,-3911.3916L14017.7736,-3911.3104L14017.9495,-3911.3764L14018.3014,-3911.6658L14018.6011,-3911.6962L14018.7314,-3911.8739L14019.0444,-3912.0024L14019.8227,-3912.1552L14020.0019,-3912.28L14020.1242,-3912.3831L14020.5622,-3912.6211L14020.6335,-3912.8829L14020.389,-3913.1843L14020.0325,-3913.4857L14019.8797,-3913.6047L14019.5843,-3913.8982L14019.4213,-3914.1996"/>
<path content="AP030,1,28,1,0,14,1,8,JPN" xlink:title="AP030" d="M13993.8095,-3897.1664L13994.2398,-3897.1466"/>
<path content="AP030,1,28,1,0,14,1,8,JPN" xlink:title="AP030" d="M14035.5194,-3897.0398L14035.4706,-3897.1466L14035.4706,-3897.2198L14035.5606,-3897.2198L14035.5804,-3897.2733L14035.6796,-3897.3801L14035.7193,-3897.3801L14035.8597,-3897.3801L14035.8795,-3897.4133L14035.9299,-3897.6131L14036.0397,-3897.7398L14036.2198,-3898.0133L14036.2396,-3898.1197L14036.29,-3898.28"/>
<path content="AP030,1,28,1,0,14,1,8,JPN" xlink:title="AP030" d="M13993.8095,-3897.1664L13993.8095,-3897.0932L13993.7195,-3896.9265L13993.7195,-3896.7999L13993.6996,-3896.553"/>
<path content="AP030,1,28,1,0,14,1,8,JPN" xlink:title="AP030" d="M13992.4701,-3896.4299L13992.72,-3896.5332L13992.7704,-3896.553L13993.1503,-3896.553L13993.4692,-3896.5668L13993.6996,-3896.553"/>
<path content="AP030,1,28,1,0,15,1,8,JPN" xlink:title="AP030" d="M13992.1875,-3896.5538L13992.4741,-3896.5478L13992.4701,-3896.4299"/>
<path content="AP030,1,28,1,0,15,1,8,JPN" xlink:title="AP030" d="M14048.1293,-3898.7667L14047.4609,-3894.9242"/>
<path content="AP030,1,28,1,0,16,1,4,JPN" xlink:title="AP030" d="M14036.64,-3897.3222L14036.64,-3897.036L14036.45,-3895.991L14036.21,-3894.977L14036.04,-3894.38"/>
<path content="AP030,1,28,1,0,14,1,8,JPN" xlink:title="AP030" d="M13992.1875,-3896.3131L13992.4701,-3896.4299"/>
<path content="AP030,1,28,1,0,16,1,8,JPN" xlink:title="AP030" d="M14036.04,-3894.38L14035.7,-3894.104L14035.2889,-3893.9326"/>
<path content="AP030,1,28,1,0,14,1,8,JPN" xlink:title="AP030" d="M14035.5194,-3897.0398L14035.4904,-3896.8933L14035.3806,-3896.693L14035.3806,-3896.553L14035.6506,-3896.2067L14035.8994,-3895.8866L14035.9299,-3895.7733L14035.8795,-3895.6532L14035.8994,-3895.5265L14035.9894,-3895.38L14035.8994,-3895.1267L14035.7193,-3894.9867L14035.6094,-3894.9665L14035.5194,-3894.7998L14035.3806,-3894.4401L14035.3607,-3894.3867L14035.4294,-3894.1532L14035.2889,-3893.9326"/>
<path content="AP030,1,28,1,0,14,1,8,JPN" xlink:title="AP030" d="M13993.6996,-3896.553L13993.7195,-3896.4268L13993.6996,-3896.3867L13993.4906,-3896.2265L13993.4006,-3896.133L13993.3807,-3896.08L13993.3807,-3895.8668L13993.3807,-3895.76L13993.2693,-3895.5399L13993.2205,-3895.3598L13993.2205,-3895.0932L13993.3105,-3894.68L13993.3594,-3894.2467L13993.3807,-3894.0998L13993.4296,-3893.8332L13993.5196,-3893.2865L13993.5593,-3892.9466L13993.5593,-3892.86L13993.6736,-3892.6517L13993.7464,-3892.3512"/>
<path content="AP030,1,28,1,0,15,1,8,JPN" xlink:title="AP030" d="M13992.1875,-3892.1356L13992.3583,-3892.1725L13992.7691,-3892.2415L13993.7464,-3892.3512"/>
<path content="AP030,1,28,1,0,14,1,8,JPN" xlink:title="AP030" d="M14048.1293,-3898.7667L14048.5397,-3898.7133L14048.7198,-3898.6401L14048.8098,-3898.4798L14048.8098,-3898.2468L14048.8602,-3898.2265L14049.0799,-3898.1331L14049.2203,-3897.9931L14049.4003,-3897.9733L14049.6506,-3897.953L14049.7696,-3897.9L14049.8795,-3897.8867L14050.0198,-3897.8664L14050.1999,-3897.9733L14050.2899,-3897.9931L14050.47,-3897.9931L14050.6104,-3898.0267L14050.8804,-3898.1197L14051.0605,-3898.0999L14051.1307,-3898.1331L14051.2695,-3898.2265L14051.3992,-3898.2468L14051.5396,-3898.1934L14051.6296,-3898.0999L14051.6495,-3898.0801L14051.7197,-3898.0465L14051.8097,-3897.9931L14051.8799,-3897.8867L14051.8997,-3897.8466L14051.9897,-3897.7932L14052.0599,-3897.7398L14052.0599,-3897.6532L14051.9897,-3897.5067L14051.8997,-3897.3064L14052.0203,-3897.1466L14052.2003,-3897.0531L14052.4002,-3896.9666L14052.4506,-3896.9131L14052.4902,-3896.8731L14052.5803,-3896.8201L14052.8107,-3896.693L14052.8595,-3896.553L14052.9007,-3896.5134L14052.9907,-3896.4397L14053.0807,-3896.32L14053.1998,-3896.1731L14053.2898,-3896.0999L14053.3295,-3896.0667L14053.6804,-3895.8134L14053.7903,-3895.7932L14053.9307,-3895.7733L14053.9902,-3895.5799L14054.2404,-3895.3999L14054.5197,-3895.2198L14054.6295,-3895.0531L14054.6799,-3895.0397L14054.7195,-3895.0199L14054.7897,-3895.0199L14054.8294,-3895.0001L14054.8599,-3894.9467L14054.8599,-3894.7666L14055.0201,-3894.6598L14055.0598,-3894.5866L14055.04,-3894.3333L14054.9698,-3894.0132L14055.0201,-3893.7401L14055.1102,-3893.5265L14055.2399,-3893.3998L14055.3604,-3893.2732L14055.3101,-3893.0931L14055.3299,-3892.9867L14055.4901,-3892.7666L14055.6107,-3892.6933L14055.6107,-3892.5331L14055.6305,-3892.5133L14055.7693,-3892.4065L14055.8807,-3892.1734L14055.9906,-3892.0998L14056.0394,-3892.0467L14056.0593,-3891.8999L14056.1493,-3891.8465L14056.2393,-3891.6866L14056.3095,-3891.6134L14056.5201,-3891.56L14056.5598,-3891.5066L14056.5598,-3891.3467L14056.4697,-3891.3067L14056.3797,-3891.3067L14056.1996,-3891.3265L14056.1295,-3891.2865L14056.1798,-3891.2197"/>
<path content="AP030,1,28,1,0,14,1,8,JPN" xlink:title="AP030" d="M14035.2889,-3893.9326L14035.1995,-3893.7922L14035.0204,-3893.6531L14034.9701,-3893.4532L14034.8602,-3893.3067L14034.7397,-3893.1801L14034.6497,-3892.9466L14034.5398,-3892.7467L14034.4696,-3892.68L14034.2697,-3892.5533L14034.1293,-3892.3332L14034.0393,-3892.3L14033.9005,-3892.2466L14033.6304,-3892.26L14033.5403,-3892.26L14033.4305,-3892.12L14033.4,-3892.0467L14033.4503,-3891.9731L14033.5403,-3891.9399L14033.5403,-3891.8865L14033.5205,-3891.8667L14033.2199,-3891.9533L14033.0399,-3891.9533L14032.8995,-3891.8865L14032.7393,-3891.74L14032.6492,-3891.5932L14032.6096,-3891.4867L14032.5806,-3891.4333L14032.4493,-3891.2865L14032.3807,-3891.1266L14032.3593,-3890.8733"/>
<path content="AP030,1,28,1,0,16,1,8,JPN" xlink:title="AP030" d="M14035.2889,-3893.9326L14034.99,-3893.808L14034.52,-3893.646L14034.1,-3893.23L14033.75,-3892.856L14033.1,-3892.545L14032.55,-3892.253L14032.19,-3891.998L14032.0949,-3891.8154L14032.0868,-3891.5679L14032.168,-3891.2125L14032.2573,-3891.0476L14032.3593,-3890.8733"/>
<path content="AP030,1,28,1,0,14,1,8,JPN" xlink:title="AP030" d="M14056.1798,-3891.2197L14055.9006,-3891.053L14055.9296,-3890.7665L14056.1295,-3890.3332L14056.2393,-3889.8666"/>
<path content="AP030,1,28,1,0,14,1,8,JPN" xlink:title="AP030" d="M13993.7464,-3892.3512L13993.8293,-3891.8865L13993.8797,-3891.6664L13993.8797,-3891.3067L13993.8599,-3890.3732L13993.8797,-3890.2798L13993.8797,-3890.2466L13994.0399,-3889.8464"/>
<path content="AP030,1,28,1,0,14,1,8,JPN" xlink:title="AP030" d="M13994.0399,-3889.8464L13994.0796,-3889.7064L13994.22,-3889.3997L13994.22,-3889.18L13994.2703,-3889.0732"/>
<path content="AP030,1,28,1,0,14,1,8,JPN" xlink:title="AP030" d="M13994.0399,-3889.8464L13993.5593,-3889.6667L13993.1305,-3889.04L13993.1107,-3888.6932"/>
<path content="AP030,1,28,1,0,15,1,8,JPN" xlink:title="AP030" d="M13992.1875,-3888.9132L13993.1107,-3888.6932"/>
<path content="AP030,1,28,1,0,14,1,8,JPN" xlink:title="AP030" d="M14032.3593,-3890.8733L14032.4295,-3890.7467L14032.7393,-3890.5533L14032.8094,-3890.4064L14032.7896,-3890.2599L14032.7393,-3890.0665L14032.6492,-3889.9532L14032.6492,-3889.8865L14032.6096,-3889.5599L14032.3807,-3889.18L14032.4005,-3889.1266L14032.4905,-3889.04L14032.6996,-3888.9133L14032.8796,-3888.9133L14033.0399,-3888.9133L14033.2001,-3888.8931L14033.4305,-3888.6799"/>
<path content="AP030,1,28,1,0,15,1,8,JPN" xlink:title="AP030" d="M14033.4305,-3888.6799L14034.5703,-3888.5902L14036.2228,-3888.94L14037.1567,-3889.2685L14038.3499,-3890.9172L14039.827,-3890.9248"/>
<path content="AP030,1,28,1,0,14,1,8,JPN" xlink:title="AP030" d="M13994.2703,-3889.0732L13994.31,-3888.9999L13994.3298,-3888.8599L13994.3802,-3888.6066L13994.3604,-3888.3331L13994.31,-3888.1001L13994.22,-3887.833L13994.22,-3887.7598L13994.2398,-3887.6534L13994.2902,-3887.3798L13994.31,-3887.2334L13994.4,-3887.1265"/>
<path content="AP030,1,28,1,0,14,1,8,JPN" xlink:title="AP030" d="M13993.1107,-3888.6932L13993.2693,-3888.5864L13993.4296,-3888.3198L13993.5593,-3888.0131L13993.6295,-3887.8864L13994.0796,-3887.2868L13994.4,-3887.1265"/>
<path content="AP030,1,28,1,0,14,1,8,JPN" xlink:title="AP030" d="M14033.4305,-3888.6799L14033.4702,-3888.62L14033.6807,-3888.4266L14033.7006,-3888.3865L14033.7402,-3888.3331L14033.7006,-3888.0665L14033.2901,-3886.7332"/>
<path content="AP030,1,28,1,0,14,1,8,JPN" xlink:title="AP030" d="M13994.4,-3887.1265L13994.4901,-3886.9999L13994.6106,-3886.7332L13994.6304,-3886.66"/>
<path content="AP030,1,28,1,0,14,1,4,JPN" xlink:title="AP030" d="M14057.2693,-3886.6398L14057.2006,-3886.6932L14056.8604,-3887.9532L14056.2698,-3889.74L14056.2393,-3889.8666"/>
<path content="AP030,1,28,1,0,15,1,8,JPN" xlink:title="AP030" d="M14035.5194,-3897.0398L14034.7046,-3896.9925L14034.1385,-3897.2256L14033.6395,-3897.43L14033.0826,-3897.4586L14032.9514,-3897.3976L14032.5165,-3897.1966L14032.1396,-3896.8761L14031.7993,-3896.7888L14031.1203,-3896.701L14030.6259,-3896.7461L14030.4794,-3896.7594L14029.6112,-3896.4973L14028.3661,-3895.7108L14027.9892,-3895.3075L14027.5742,-3894.8654L14027.0844,-3894.1082L14026.8204,-3893.2632L14026.2924,-3892.2436L14026.2161,-3891.6897L14025.8759,-3891.3109L14025.6882,-3890.4369L14025.7629,-3889.7377L14025.8392,-3889.3005L14026.0117,-3888.9553L14025.9903,-3888.6597L14025.6119,-3888.2225L14025.235,-3887.8147L14025.1602,-3887.4359L14025.4623,-3887.1445L14025.8011,-3886.9408L14025.9521,-3886.6783L14025.7629,-3886.3289L14025.6805,-3886.0798"/>
<path content="AP030,1,28,1,0,14,1,8,JPN" xlink:title="AP030" d="M14025.6805,-3886.0798L14025.9003,-3886.0664L14025.9216,-3886.068L14026.4297,-3886.1L14026.7395,-3886.1332L14026.9501,-3886.2465L14027.0798,-3886.2267L14027.4002,-3886.1931L14027.6306,-3886.2267L14027.8305,-3886.3331L14028.1296,-3886.2999L14028.2196,-3886.4597L14028.27,-3886.4998L14028.3997,-3886.5868L14028.5202,-3886.5665L14028.6804,-3886.5334L14029.1504,-3886.3865L14029.6799,-3886.2801L14029.8798,-3886.2801L14029.9301,-3886.3197L14029.9896,-3886.3865L14030.1498,-3886.4265L14030.22,-3886.4998L14030.3101,-3886.5868L14030.3101,-3886.6932L14030.4901,-3887.1265L14030.7404,-3887.6133L14030.9494,-3887.9532L14031.0593,-3888.0131L14031.1996,-3888.0665L14031.3095,-3888.1733L14031.3995,-3888.2797L14031.6101,-3888.4598L14031.7902,-3888.5132L14032.1106,-3888.5532L14032.3807,-3888.5666L14032.8094,-3888.5864L14032.93,-3888.6398L14033.0399,-3888.66L14033.4305,-3888.6799"/>
<path content="AP030,1,28,1,0,14,1,8,JPN" xlink:title="AP030" d="M14025.2899,-3885.9398L14025.3601,-3885.9531L14025.6805,-3886.0798"/>
<path content="AP030,1,28,1,0,14,1,8,JPN" xlink:title="AP030" d="M13994.2398,-3897.1466L13994.7906,-3897.0531L13994.9707,-3896.9467L13995.0195,-3896.8731L13995.3995,-3896.7999L13995.7397,-3896.7331L13996.1807,-3896.7331L13996.2402,-3896.7464L13996.3806,-3896.7331L13996.6293,-3896.64L13997.3602,-3896.553L13997.6501,-3896.5866L13997.7905,-3896.6198L13997.8302,-3896.6064L13997.9294,-3896.553L13998.1094,-3896.4066L13998.2193,-3896.2997L13998.3597,-3896.2601L13998.6298,-3896.32L13998.8098,-3896.3867L13999.0601,-3896.4066L13999.3607,-3896.4268L13999.6796,-3896.5134L13999.8993,-3896.5668L14000,-3896.5668L14000.0793,-3896.5668L14001.0193,-3896.5668L14001.5198,-3896.5668L14001.8097,-3896.5332L14002.1805,-3896.5134L14002.2705,-3896.553L14002.6505,-3896.7331L14002.8595,-3896.7667L14003.2196,-3896.8201L14003.3798,-3896.7999L14003.45,-3896.7999L14003.7201,-3896.7865L14003.8605,-3896.7464L14004.0405,-3896.7133L14004.0802,-3896.7133L14004.2007,-3896.693L14004.2694,-3896.6599L14004.4495,-3896.6198L14004.5807,-3896.6064L14004.95,-3896.6064L14005.0797,-3896.553L14005.2902,-3896.5L14005.4306,-3896.5134L14005.6107,-3896.5134L14005.7007,-3896.46L14005.9296,-3896.2601L14006.0593,-3896.2601L14006.3797,-3896.2799L14006.5598,-3896.2799L14006.6803,-3896.2265L14006.7902,-3896.1933L14006.8802,-3896.2067L14007.0404,-3896.2467L14007.3105,-3896.2601L14007.4295,-3896.2997L14007.5607,-3896.3531L14007.6996,-3896.3333L14007.7896,-3896.3531L14007.8995,-3896.4066L14007.9697,-3896.3867L14008.0597,-3896.4066L14008.1299,-3896.4397L14008.1802,-3896.4798L14008.2397,-3896.4798L14008.3298,-3896.4268L14008.3801,-3896.4268L14008.4,-3896.4798L14008.49,-3896.6801L14008.6105,-3896.7464L14008.7006,-3896.7667L14008.7906,-3896.7464L14008.8104,-3896.6064L14008.9706,-3896.5668L14009.1095,-3896.6064L14009.2697,-3896.693L14009.4498,-3896.8597L14009.5398,-3896.8933L14009.7,-3896.8933L14009.7198,-3896.9868L14009.7702,-3897.02L14009.8801,-3897.0398L14009.9701,-3897.02L14010.1105,-3896.9265L14010.2203,-3896.8933L14010.4294,-3896.9131L14010.5606,-3896.8731L14010.8093,-3896.8597L14010.8994,-3896.9131L14011.0199,-3896.9666L14011.1099,-3896.9467L14011.1496,-3896.9666L14011.2,-3897.0932L14011.3098,-3897.1066L14011.5402,-3897.02L14011.7004,-3896.9997L14011.8301,-3897.0734L14011.9705,-3897.0932L14012.1506,-3897.1066L14012.2894,-3897.1066L14012.3795,-3896.9997L14012.4298,-3896.9666L14012.5198,-3896.9666L14012.6495,-3896.9997L14012.7396,-3896.9265L14012.8998,-3896.8399L14013.15,-3896.7999L14013.3804,-3896.8597L14013.4506,-3896.8399L14013.5605,-3896.6801L14013.6093,-3896.64L14013.8107,-3896.553L14014.1296,-3896.5134L14014.3295,-3896.5134L14014.6301,-3896.5134L14014.74,-3896.553L14014.8102,-3896.6064L14014.8102,-3896.7133L14014.9307,-3896.7667L14015.0604,-3896.5668L14015.2405,-3896.3734L14015.3107,-3896.3734L14015.3305,-3896.46L14015.4495,-3896.5L14015.4495,-3896.5134L14015.4495,-3896.64L14015.4907,-3896.6599L14015.5807,-3896.6801L14015.6494,-3896.6064L14015.7196,-3896.5332L14015.7394,-3896.3333L14015.8295,-3896.2799L14015.9302,-3896.2997L14016.1301,-3896.3333L14016.33,-3896.2799L14016.4307,-3896.1731L14016.5405,-3896.0667L14016.6504,-3895.9534L14016.6504,-3895.7199L14016.7007,-3895.4533L14016.8304,-3895.3598L14016.9693,-3895.38L14017.1997,-3895.3999L14017.3798,-3895.3999L14017.4896,-3895.3266L14017.5598,-3895.1797L14017.5598,-3894.6598L14017.63,-3894.6068L14018.0801,-3894.26L14018.1305,-3894.2265L14018.1305,-3894.12L14018.0801,-3893.9934L14018.0801,-3893.8999L14018.3807,-3893.56L14018.6798,-3893.38L14018.7698,-3893.3067L14018.7195,-3893.2331L14018.7698,-3893.1465L14018.9697,-3893.0199L14019.0598,-3893.0199L14019.3298,-3893.0531L14019.4504,-3893.0199L14019.7006,-3892.9268L14019.9295,-3892.7467L14020.1096,-3892.5865L14020.1096,-3892.2264L14020.2194,-3891.9533L14020.2194,-3891.7931L14020.1492,-3891.5398L14020.1797,-3891.4867L14020.52,-3891.2533L14020.5795,-3891.18L14020.52,-3891.0732L14020.4697,-3890.8932L14020.3995,-3890.6399L14020.6802,-3890.2065L14021.1502,-3890.0131L14021.3104,-3889.8464L14021.3806,-3889.5267L14021.2906,-3889.18L14021.2906,-3889.0533L14021.3104,-3889.0198L14021.4905,-3888.8199L14021.5195,-3888.7665L14021.5607,-3888.6066L14021.6095,-3888.4998L14021.6507,-3888.3732L14021.7697,-3888.3198L14022.0795,-3888.2465L14022.4304,-3888.1332L14022.5601,-3887.8998L14022.6105,-3887.6534L14022.7402,-3887.5065L14022.8104,-3887.36L14022.8104,-3887.0399L14022.8104,-3886.8732L14022.9294,-3886.8198L14022.9904,-3886.7664L14023.0194,-3886.6398L14022.9904,-3886.4399L14023.1796,-3886.4597L14023.2407,-3886.4265L14023.2697,-3886.3731L14023.3994,-3886.3865L14023.4894,-3886.4799L14023.6099,-3886.5665L14023.7198,-3886.5868L14023.8297,-3886.5665L14024.1501,-3886.5334L14024.2706,-3886.5868L14024.4705,-3886.6199L14024.5804,-3886.6066L14024.8993,-3886.4399L14025.0793,-3886.1198L14025.2899,-3885.9398"/>
<path content="AP030,1,28,1,0,14,1,8,JPN" xlink:title="AP030" d="M14057.2693,-3886.6398L14057.4005,-3886.5131L14057.6797,-3886.2465L14057.8796,-3886.1332L14058.02,-3886.0466L14058.3099,-3885.8334"/>
<path content="AP030,1,28,1,0,14,1,4,JPN" xlink:title="AP030" d="M14059.6298,-3885.5064L14058.9493,-3885.6331L14058.49,-3885.7731L14058.3099,-3885.8334"/>
<path content="AP030,1,28,1,0,14,1,8,JPN" xlink:title="AP030" d="M14062.0651,-3885.347L14062.233,-3885.3542"/>
<path content="AP030,1,28,1,0,14,1,8,JPN" xlink:title="AP030" d="M14056.1798,-3891.2197L14056.1996,-3891.0198L14056.2698,-3890.9267L14056.3797,-3890.7997L14056.4499,-3890.7333L14056.4499,-3890.5132L14056.4896,-3890.48L14056.6498,-3890.4266L14056.7001,-3890.2798L14056.7398,-3890.2466L14056.8802,-3890.1531L14057.2205,-3889.74L14057.3105,-3889.5931L14057.3807,-3889.4867L14057.4905,-3889.3997L14057.5394,-3889.36L14057.4295,-3889.233L14057.4493,-3889.1666L14057.4707,-3889.1464L14057.4905,-3889.1464L14057.6096,-3889.1068L14057.7194,-3889.0533L14057.7698,-3888.9133L14057.9498,-3888.7867L14057.9697,-3888.66L14057.8995,-3888.4998L14057.8598,-3888.4399L14057.7194,-3888.4068L14057.6797,-3888.3732L14057.5394,-3888.1733L14057.5195,-3888.0264L14057.4707,-3887.9532L14057.3593,-3887.833L14057.4005,-3887.7934L14057.4707,-3887.7399L14057.6492,-3887.7068L14057.9895,-3887.5931L14058.1299,-3887.4531L14058.2397,-3887.36L14058.3801,-3887.3264L14058.58,-3887.273L14058.7006,-3887.1666L14058.9005,-3887.0731L14058.9294,-3887.0399L14058.9905,-3886.9865L14059.0805,-3886.9465L14059.1995,-3886.9133L14059.2407,-3886.8931L14059.2697,-3886.7332L14059.2407,-3886.6398L14059.2194,-3886.5665L14059.2407,-3886.5334L14059.3094,-3886.5334L14059.4498,-3886.5131L14059.5398,-3886.4399L14059.5596,-3886.2064L14059.61,-3886.1931L14059.7,-3886.1732L14059.79,-3886.153L14059.79,-3885.9531L14059.8602,-3885.8665L14059.8602,-3885.7399L14059.8801,-3885.7201L14059.9304,-3885.7067L14060.1105,-3885.7597L14060.1303,-3885.7597L14060.2905,-3885.6667L14060.3607,-3885.6667L14060.4294,-3885.7067L14060.5194,-3885.7597L14060.6293,-3885.7399L14060.6293,-3885.7731L14060.7193,-3885.8467L14060.7697,-3885.8467L14060.8795,-3885.8467L14060.9497,-3885.8868L14061.0397,-3885.9531L14061.1099,-3885.9398L14061.2,-3885.92L14061.2701,-3885.8997L14061.4304,-3885.6865L14061.4304,-3885.593L14061.4304,-3885.4332L14061.4899,-3885.4134L14061.5799,-3885.4332L14061.7401,-3885.54L14061.8301,-3885.54L14061.9293,-3885.4668L14062.0651,-3885.347"/>
<path content="AP030,1,28,1,0,14,1,8,JPN" xlink:title="AP030" d="M14059.6298,-3885.5064L14059.8602,-3885.4866L14060.2203,-3885.5064L14060.3302,-3885.4866L14060.4904,-3885.4668L14060.8597,-3885.4L14060.9894,-3885.36L14061.0596,-3885.3466L14061.2396,-3885.3268L14061.5204,-3885.2867L14061.6501,-3885.2867L14061.7706,-3885.2867L14061.8805,-3885.3065L14062.0651,-3885.347"/>
<path content="AP030,1,28,1,0,14,1,8,JPN" xlink:title="AP030" d="M14062.0651,-3885.347L14062.1094,-3885.3065L14062.1506,-3885.2867L14062.2192,-3885.3065L14062.233,-3885.3542"/>
<path content="AP030,1,28,1,0,14,1,8,JPN" xlink:title="AP030" d="M14062.233,-3885.3542L14062.2406,-3885.3798L14062.2894,-3885.453L14062.3795,-3885.453L14062.4298,-3885.4866L14062.4298,-3885.5064L14062.4695,-3885.5598L14062.5,-3885.5598"/>
<path content="AP030,1,28,1,0,14,1,8,JPN" xlink:title="AP030" d="M14062.233,-3885.3542L14062.3596,-3885.36L14062.3993,-3885.3466L14062.5,-3885.3131"/>
<path content="AP030,1,28,1,0,15,1,8,JPN" xlink:title="AP030" d="M13992.1875,-3885.6311L13992.8131,-3885.9325L13994.6304,-3886.66"/>
<path content="AP030,1,28,1,0,15,1,8,JPN" xlink:title="AP030" d="M14024.2081,-3883.4389L14025.2899,-3885.9398"/>
<path content="AP030,1,28,1,0,15,1,8,JPN" xlink:title="AP030" d="M14024.1271,-3882.7799L14024.2081,-3883.4389"/>
<path content="AP030,1,28,1,0,15,1,8,JPN" xlink:title="AP030" d="M13994.2703,-3889.0732L13995.6223,-3889.2754L13996.6278,-3890.0291L13997.9034,-3889.7423L13998.8724,-3888.5593L13999.1394,-3887.6678L13999.8428,-3887.3264L13999.2157,-3886.7252L13999.2264,-3886.0302L14000,-3885.6506L14000.1205,-3885.5911L14000.8926,-3884.9525L14000.9048,-3884.0588L14001.1078,-3883.1669L14000.2289,-3882.4642L14000,-3882.2819L13999.852,-3882.1632L13999.8627,-3881.4186"/>
<path content="AP030,1,28,1,0,14,1,8,JPN" xlink:title="AP030" d="M14033.2901,-3886.7332L14033.2397,-3886.5665L14033.1299,-3886.1198L14033.1497,-3885.92L14033.2199,-3885.7067L14033.1299,-3885.593L14032.8995,-3885.54L14032.5607,-3885.4668L14032.4493,-3885.4332L14032.4005,-3885.3268L14032.4295,-3885.22L14032.5607,-3885.1265L14032.8094,-3884.9865L14032.9895,-3884.7134L14033.1497,-3884.4799L14033.11,-3884.1732L14033.0795,-3884.0267L14032.9895,-3883.5598L14032.7393,-3882.3868L14032.6996,-3882.0267L14032.4295,-3881.1268"/>
<path content="AP030,1,28,1,0,15,1,8,JPN" xlink:title="AP030" d="M14024.1271,-3882.7799L14025.47,-3882.7938L14025.9171,-3882.7938L14026.2207,-3882.9159L14026.3657,-3883.0524L14026.5869,-3883.2611L14027.1149,-3883.2813L14028.1311,-3883.1596L14030.1834,-3882.55L14030.9357,-3882.0621L14031.3019,-3881.6151L14031.6467,-3881.3915L14032.4295,-3881.1268"/>
<path content="AP030,1,28,1,0,14,1,8,JPN" xlink:title="AP030" d="M13992.1875,-3883.353L13992.2699,-3883.3267L13992.45,-3883.2001L13992.4698,-3883.1467L13992.4896,-3883.0734L13992.5201,-3882.9132L13992.5598,-3882.6935L13992.6102,-3882.3734L13992.63,-3882.2468L13992.72,-3882.0465L13992.7902,-3881.9401L13992.8299,-3881.8665L13992.8802,-3881.6132L13992.9001,-3881.5399L13993.3304,-3881.2866L13993.4906,-3881.2733L13993.8293,-3881.2199L13994.4305,-3881.0932L13995.1294,-3880.8598L13995.4697,-3880.6599L13995.7001,-3880.4798L13996.0205,-3880.2067L13996.3104,-3879.8866"/>
<path content="AP030,1,28,1,0,14,1,8,JPN" xlink:title="AP030" d="M13997.2198,-3879.8664L13997.2,-3880.0133L13997.3297,-3880.1731L13997.4304,-3880.3333L13997.4899,-3880.5134L13997.6807,-3880.9132L13997.7707,-3881.2L13997.9004,-3881.3801L13998.1293,-3881.7398L13998.1796,-3881.8134L13998.0804,-3881.8665L13997.8607,-3882.0999L13997.7203,-3882.3334L13997.5204,-3882.7133L13997.3602,-3882.9132L13997.3602,-3882.9865L13997.3297,-3883.0399L13997.29,-3883.1467L13997.1298,-3883.3797L13997.0398,-3883.4L13996.9299,-3883.4866L13996.6507,-3883.7067L13996.4905,-3883.8467L13996.3104,-3883.8867L13995.8801,-3883.9931L13995.61,-3884.0668L13995.4697,-3884.2464L13995.1096,-3884.8598L13995.0394,-3884.9998L13994.9707,-3885.0731L13994.8593,-3885.22L13994.7205,-3885.5267L13994.6503,-3885.7399L13994.6503,-3885.9932L13994.6793,-3886.153L13994.7006,-3886.4597L13994.6304,-3886.66"/>
<path content="AP030,1,28,1,0,14,1,8,JPN" xlink:title="AP030" d="M13996.3104,-3879.8866L13996.3806,-3879.8866L13996.8246,-3879.8622L13997.11,-3879.8466L13997.2198,-3879.8664"/>
<path content="AP030,1,28,1,0,15,1,8,JPN" xlink:title="AP030" d="M14022.1191,-3879.4613L14023.1796,-3881.3255L14024.0921,-3882.4947L14024.1271,-3882.7799"/>
<path content="AP030,1,28,1,0,14,1,8,JPN" xlink:title="AP030" d="M13996.1105,-3879.4132L13996.08,-3879.5601L13996.1105,-3879.7066L13996.3104,-3879.8866"/>
<path content="AP030,1,28,1,0,15,1,8,JPN" xlink:title="AP030" d="M13992.1875,-3880.2801L13996.1105,-3879.4132"/>
<path content="AP030,1,28,1,0,15,1,8,JPN" xlink:title="AP030" d="M14033.2901,-3886.7332L14034.5306,-3884.7679L14035.4553,-3884.557L14035.7361,-3884.0538L14036.3907,-3883.0479L14036.4029,-3881.6059L14035.8566,-3880.8819L14031.9305,-3878.9867"/>
<path content="AP030,1,28,1,0,14,1,8,JPN" xlink:title="AP030" d="M14032.4295,-3881.1268L14032.4005,-3881.0734L14032.2006,-3880.4398L14031.9702,-3879.6867L14031.9504,-3879.6333L14031.9305,-3879.5399L14031.9305,-3878.9867"/>
<path content="AP030,1,28,1,0,14,1,8,JPN" xlink:title="AP030" d="M13997.2198,-3879.8664L13997.7203,-3879.7066L13998.4894,-3879.3999L13999.0799,-3879.2L13999.4705,-3879.0531L13999.6796,-3878.9997L14000,-3879.0157L14000.0793,-3879.0199L14000.1297,-3879.0199L14000.5402,-3879.0733L14001.1993,-3879.1466L14001.86,-3879.1267L14001.9302,-3879.1267L14002.3102,-3878.9997L14002.5803,-3878.7666L14002.6306,-3878.6198L14002.5803,-3878.3531L14002.6505,-3878.2265L14002.7405,-3878.0464L14002.8107,-3877.9198L14003.0594,-3877.6665"/>
<path content="AP030,1,28,1,0,14,1,8,JPN" xlink:title="AP030" d="M13992.1875,-3877.6242L13992.3096,-3877.6665L13992.4896,-3877.7065L13992.6804,-3877.7733L13992.8101,-3877.8667L13993.0206,-3877.94L13993.3105,-3878.0132L13993.4906,-3878.0666L13993.5394,-3878.0666L13993.6096,-3878.08L13994.0796,-3878.12L13995.1294,-3878.1933L13995.4895,-3878.2799L13995.8099,-3878.3333L13996.1502,-3878.3531L13996.2006,-3878.3867L13996.1502,-3878.82L13996.1304,-3879.1466L13996.1105,-3879.4132"/>
<path content="AP030,1,28,1,0,14,1,8,JPN" xlink:title="AP030" d="M14031.9305,-3878.9867L14031.6803,-3878.5332L14031.2897,-3877.94L14031.2195,-3877.7397L14031.1996,-3877.7065L14031.1295,-3877.38L14031.1493,-3877.1065"/>
<path content="AP030,1,28,1,0,14,1,8,JPN" xlink:title="AP030" d="M14022.1191,-3879.4613L14022.4304,-3879.3266L14022.7905,-3879.0398L14023.4497,-3878.5332L14023.6099,-3878.4798L14024.1806,-3878.3333L14024.2203,-3878.3199L14024.6307,-3878.2265L14024.7406,-3878.1334L14024.9893,-3877.8999L14025.1297,-3877.8866L14025.2701,-3877.9533L14025.5203,-3877.9934L14025.6302,-3877.9732L14025.7706,-3877.94L14025.9293,-3877.9732L14026.2894,-3878.0266L14026.4694,-3878.0464L14026.5594,-3878.0132L14026.7899,-3877.7931L14026.8799,-3877.7733L14027.1301,-3877.7397L14027.2705,-3877.6867L14027.5604,-3877.4666L14027.8305,-3877.3266L14027.9297,-3877.2331L14028.0594,-3877.1065L14028.1799,-3877.0535L14028.5599,-3876.9466L14028.6209,-3876.9127L14028.7903,-3876.82L14028.8803,-3876.86L14029.1306,-3876.9867L14029.2007,-3876.9867L14029.4907,-3876.9466L14029.6799,-3876.8734L14029.7699,-3877L14029.8996,-3877.3266L14029.95,-3877.3598L14030.13,-3877.3067L14030.2002,-3877.2331L14030.2902,-3877.1999L14030.4504,-3877.1267L14030.5618,-3877.1126L14030.7205,-3877.0931L14031.1493,-3877.1065"/>
<path content="AP030,1,28,1,0,15,1,8,JPN" xlink:title="AP030" d="M14051.2894,-3875.7401L14051.4877,-3875.8289L14053.5477,-3876.7555L14058.5937,-3878.4981L14060.463,-3879.5898L14061.1176,-3879.3365L14061.5265,-3879.1466L14061.7676,-3879.6581L14062.5,-3879.724"/>
<path content="AP030,1,28,1,0,14,1,8,JPN" xlink:title="AP030" d="M14022.1191,-3879.4613L14022.0596,-3879.4865L14022.0795,-3879.3465L14022.0795,-3879.1466L14022.0398,-3878.9665L14022.0795,-3878.7998L14022.1298,-3878.6064L14022.1802,-3878.5133L14022.3297,-3878.4267L14022.7707,-3878.1933L14022.8104,-3878.0464L14022.5403,-3877.4864L14022.4503,-3877.2732L14022.4701,-3877.2198L14022.5403,-3877.2198L14022.6303,-3877.2865L14022.6807,-3877.2533L14022.7005,-3877.1999L14022.7905,-3877.0931L14022.9904,-3876.9466L14023.1995,-3876.7467L14023.3994,-3876.4999L14023.6298,-3876.0799L14023.88,-3875.7065"/>
<path content="AP030,1,28,1,0,14,1,8,JPN" xlink:title="AP030" d="M14023.88,-3875.7065L14024.0601,-3875.4665"/>
<path content="AP030,1,28,1,0,15,1,8,JPN" xlink:title="AP030" d="M14018.6554,-3875.0111L14018.1396,-3875.8018L14018.1244,-3877.0924L14018.6203,-3878.0392L14017.9123,-3879.0272L14019.1071,-3879.9789L14018.8446,-3880.722L14018.7103,-3881.2672L14019.5251,-3882.2159L14019.8257,-3883.6578L14020.2667,-3883.9588L14020.6512,-3883.6636L14021.9879,-3883.3748L14022.493,-3883.6758L14023.1323,-3883.2333L14024.2081,-3883.4389"/>
<path content="AP030,1,28,1,0,15,1,8,JPN" xlink:title="AP030" d="M14024.0601,-3875.4665L14024.3317,-3875.5188L14025.0229,-3875.6001L14025.6149,-3875.6573L14026.4496,-3875.3456L14026.7761,-3875.2239L14027.2095,-3875.214L14028.5187,-3876.0529L14028.9246,-3876.0067L14029.1473,-3876.0471L14029.7165,-3876.3115L14030.1636,-3875.8236L14030.6519,-3875.3159L14030.4901,-3874.9466"/>
<path content="AP030,1,28,1,0,14,1,8,JPN" xlink:title="AP030" d="M14029.6097,-3874.9866L14030.0797,-3875.0732L14030.2399,-3875.0534L14030.4901,-3874.9466"/>
<path content="AP030,1,28,1,0,15,1,8,JPN" xlink:title="AP030" d="M14018.6554,-3875.0111L14020.108,-3875.4681L14021.6965,-3875.1312L14021.9467,-3874.9077L14022.4655,-3874.4411L14022.8256,-3874.7635L14023.88,-3875.7065"/>
<path content="AP030,1,28,1,0,14,1,8,JPN" xlink:title="AP030" d="M14031.1493,-3877.1065L14031.1798,-3876.9466L14031.1996,-3876.82L14031.1493,-3876.4267L14031.1096,-3876.1932L14031.1096,-3876.12L14031.1493,-3875.7065L14031.1798,-3875.4665L14031.1798,-3875.0198L14031.1493,-3874.9134L14031.0806,-3874.6201L14031.0593,-3874.4801L14031.0593,-3874.44"/>
<path content="AP030,1,28,1,0,14,1,8,JPN" xlink:title="AP030" d="M14030.4901,-3874.9466L14030.7693,-3874.6933L14030.8426,-3874.6304L14031.0593,-3874.44"/>
<path content="AP030,1,28,1,0,14,1,8,JPN" xlink:title="AP030" d="M14031.0593,-3874.44L14031.0593,-3874.2466"/>
<path content="AP030,1,28,1,0,14,1,8,JPN" xlink:title="AP030" d="M14026.3277,-3874.2299L14026.6495,-3874.3L14027.0798,-3874.44L14027.5192,-3874.44L14027.6993,-3874.5132L14027.9907,-3874.6597L14028.2196,-3874.6799L14028.4897,-3874.7997L14028.6102,-3874.8199L14028.7704,-3874.8398L14029.6097,-3874.9866"/>
<path content="AP030,1,28,1,0,15,1,8,JPN" xlink:title="AP030" d="M13997.2198,-3879.8664L13997.1954,-3879.6349L13997.052,-3878.2665L13995.9274,-3877.0649L13995.9488,-3875.5756L13996.3821,-3874.1272"/>
<path content="AP030,1,28,1,0,15,1,8,JPN" xlink:title="AP030" d="M13992.1875,-3874.789L13993.161,-3874.968L13994.6426,-3874.9332L13996.3821,-3874.1272"/>
<path content="AP030,1,28,1,0,14,1,8,JPN" xlink:title="AP030" d="M14029.9171,-3874.0113L14030.6542,-3874.1207L14031.0593,-3874.2466"/>
<path content="AP030,1,28,1,0,14,1,8,JPN" xlink:title="AP030" d="M14024.0601,-3875.4665L14024.0799,-3875.2865L14024.0997,-3875.164L14024.1104,-3875.0935L14024.1806,-3874.44L14024.2004,-3874.2065L14024.2004,-3873.9735"/>
<path content="AP030,1,28,1,0,14,1,8,JPN" xlink:title="AP030" d="M14024.2004,-3873.9735L14024.3301,-3873.9399L14024.4705,-3873.9532L14024.5605,-3873.9933L14024.7894,-3874.0799L14024.9695,-3874.0997L14025.4303,-3874.1333L14025.9293,-3874.1734L14026.2207,-3874.2065L14026.3277,-3874.2299"/>
<path content="AP030,1,28,1,0,14,1,8,JPN" xlink:title="AP030" d="M14029.226,-3873.9059L14029.9171,-3874.0113"/>
<path content="AP030,1,28,1,0,15,1,8,JPN" xlink:title="AP030" d="M14029.226,-3873.9059L14029.4312,-3874.2424L14029.6097,-3874.9866"/>
<path content="AP030,1,28,1,0,14,1,8,JPN" xlink:title="AP030" d="M14026.3277,-3874.2299L14027.2251,-3874.0039L14028.1715,-3873.9075L14029.226,-3873.9059"/>
<path content="AP030,1,28,1,0,14,1,8,JPN" xlink:title="AP030" d="M14003.0594,-3877.6665L14003.2196,-3877.38L14003.2394,-3877.3464L14003.4897,-3877.1267L14003.8605,-3876.9665L14004.2694,-3876.7998L14004.6097,-3876.68L14005.1804,-3876.6197L14005.3802,-3876.5331L14005.8594,-3876.2066L14006.4301,-3875.7732L14006.7398,-3875.4665L14007.4295,-3875.0732L14007.8995,-3874.8734L14008.2001,-3874.86L14008.4,-3874.9664L14008.58,-3875.1465L14008.8303,-3875.5066L14009.1095,-3875.5932L14009.4696,-3875.6134L14009.7397,-3875.56L14010.0204,-3875.4333L14010.08,-3875.2533L14010.1303,-3875.1999L14010.2905,-3875.1064L14010.4706,-3874.9866L14010.6522,-3874.7715L14010.8093,-3874.5865L14010.9695,-3874.5335L14011.4899,-3874.4064L14012.1796,-3874.3198L14012.4893,-3874.1932L14012.7396,-3874.0265L14012.8998,-3873.9933L14012.9196,-3873.9899L14013.0203,-3873.9735L14013.4003,-3873.8464"/>
<path content="AP030,1,28,1,0,15,1,8,JPN" xlink:title="AP030" d="M14061.9705,-3873.56L14062.5,-3873.9939"/>
<path content="AP030,1,28,1,0,14,1,8,JPN" xlink:title="AP030" d="M14031.0593,-3874.2466L14031.3599,-3874.3732L14031.4697,-3874.4064L14031.7902,-3874.4598L14032.1106,-3874.4267L14032.4707,-3874.3332L14032.6492,-3874.3L14033.3298,-3874.3534L14033.6304,-3874.3L14033.9005,-3874.1734L14034.2697,-3873.8335L14034.4498,-3873.7198L14034.79,-3873.7198L14035.0204,-3873.6866L14035.4004,-3873.4333L14035.6094,-3873.3799L14035.9497,-3873.4135L14036.1801,-3873.4135L14036.2396,-3873.4135L14036.4304,-3873.3265"/>
<path content="AP030,1,28,1,0,15,1,8,JPN" xlink:title="AP030" d="M14016.04,-3873.3067L14017.4683,-3873.4634L14018.6554,-3875.0111"/>
<path content="AP030,1,28,1,0,14,1,8,JPN" xlink:title="AP030" d="M14013.4003,-3873.8464L14013.5193,-3873.8132L14013.6307,-3873.7732L14013.9694,-3873.8132L14014.7903,-3873.7934L14015.3793,-3873.6332L14015.9897,-3873.4867L14016.04,-3873.3067"/>
<path content="AP030,1,28,1,0,14,1,8,JPN" xlink:title="AP030" d="M14039.0198,-3873.1464L14039.1998,-3873.3265L14039.3097,-3873.3997L14039.3997,-3873.4333L14039.3997,-3873.6668L14039.5203,-3874.2466L14039.6301,-3874.4801L14039.7003,-3874.5533L14039.772,-3874.5827L14039.83,-3874.6067L14039.9902,-3874.6933L14040.1993,-3874.8734L14040.3595,-3874.9466L14040.6494,-3875.0935L14040.86,-3875.2197L14040.8997,-3875.3998L14040.95,-3875.4665L14041.2399,-3875.5264L14041.6504,-3875.5798L14041.7892,-3875.4868L14041.8594,-3875.4665L14041.9495,-3875.4868L14042.4896,-3875.5798L14042.6804,-3875.6332L14042.8802,-3875.8331L14043.1107,-3876.0265L14043.1793,-3876.2798L14043.2404,-3876.4065L14043.2907,-3876.4999L14043.4296,-3876.5667L14043.8599,-3876.5667L14044.2398,-3876.4999L14044.8105,-3876.4267L14045.0394,-3876.4065L14045.6299,-3876.4267L14045.7397,-3876.3866L14045.9702,-3876.2466L14046.0602,-3876.2264L14046.1502,-3876.2264L14046.2692,-3876.26L14046.6095,-3876.4065L14046.7697,-3876.5133L14046.846,-3876.593L14046.9299,-3876.68L14046.9894,-3876.6933L14047.2198,-3876.7334L14047.7005,-3876.7334L14047.9904,-3876.7334L14048.1995,-3876.6933L14048.2407,-3876.68L14048.5794,-3876.5331L14048.6801,-3876.5331L14048.9502,-3876.5667L14049.2905,-3876.5533L14049.6307,-3876.5133L14049.7894,-3876.5865L14049.9893,-3876.5865L14050.1297,-3876.5533L14050.5402,-3876.4599L14050.7202,-3876.44L14050.9903,-3876.44L14051.0803,-3876.4267L14051.1993,-3876.26L14051.1993,-3876.0761L14051.1993,-3876.0132L14051.1993,-3875.8465L14051.2894,-3875.7401"/>
<path content="AP030,1,28,1,0,14,1,8,JPN" xlink:title="AP030" d="M14023.0804,-3873.0198L14023.1796,-3873.18L14023.3093,-3873.3265L14023.4299,-3873.5065L14023.5199,-3873.7198L14023.6298,-3873.9735L14023.7701,-3874.0265L14023.9502,-3874.0131L14024.2004,-3873.9735"/>
<path content="AP030,1,28,1,0,14,1,8,JPN" xlink:title="AP030" d="M14055.7907,-3872.7867L14056.0806,-3872.8199L14056.1996,-3872.8733L14056.4301,-3873L14056.5399,-3873.0198L14056.6498,-3873.0534L14056.7703,-3873.1266L14056.9,-3873.2201L14056.9702,-3873.2533L14057.1503,-3873.2864L14057.2403,-3873.3265L14057.4295,-3873.4665L14057.7393,-3873.7198L14057.9697,-3873.8998L14058.3801,-3874.0265L14058.58,-3874.0467L14058.7006,-3874.0265L14059.9701,-3873.7198L14060.2402,-3873.7198L14060.8597,-3873.7064L14060.9512,-3873.7339L14061.0397,-3873.7598L14061.3098,-3873.8335L14061.3602,-3873.8335L14061.6302,-3873.7198L14061.9705,-3873.56"/>
<path content="AP030,1,28,1,0,14,1,8,JPN" xlink:title="AP030" d="M14051.2894,-3875.7401L14051.3794,-3875.6535L14051.5396,-3875.4868L14051.7197,-3875.3067L14051.8997,-3875.1999L14052.24,-3875.0401L14052.6505,-3874.6201L14052.8793,-3874.4801L14053.1296,-3874.44L14053.45,-3874.4064L14053.6301,-3874.3332L14054.3106,-3873.9201L14054.7699,-3873.3997L14055.13,-3873.0534L14055.4306,-3872.8931L14055.7907,-3872.7867"/>
<path content="AP030,1,28,1,0,14,1,4,JPN" xlink:title="AP030" d="M14037.4298,-3872.6799L14036.9293,-3873L14036.4304,-3873.3265"/>
<path content="AP030,1,28,1,0,14,1,8,JPN" xlink:title="AP030" d="M14020.5597,-3872.5334L14020.8801,-3872.7135L14021.08,-3872.7467L14021.6797,-3872.6799L14022.1802,-3872.6933L14022.7005,-3872.7333L14022.7905,-3872.7665L14022.8607,-3872.8931L14022.9294,-3872.9866L14023.0804,-3873.0198"/>
<path content="AP030,1,28,1,0,14,1,8,JPN" xlink:title="AP030" d="M14022.8607,-3872.5334L14022.9706,-3872.6067L14023.0392,-3872.7135L14023.0804,-3872.8397L14023.0804,-3873.0198"/>
<path content="AP030,1,28,1,0,14,1,8,JPN" xlink:title="AP030" d="M14061.9705,-3873.56L14062.0804,-3873.2735L14062.0743,-3873.2315L14062.0605,-3873.1068L14062.1094,-3873.0534L14062.3596,-3873.0198L14062.5,-3872.9991"/>
<path content="AP030,1,28,1,0,14,1,8,JPN" xlink:title="AP030" d="M14037.4298,-3872.6799L14037.8601,-3872.4068L14038.06,-3872.4266L14038.2004,-3872.4998L14038.4293,-3872.7135L14038.5193,-3872.7467L14038.7207,-3872.7867L14038.8794,-3872.8199L14038.8992,-3872.8733L14039.0198,-3873.1464"/>
<path content="AP030,1,28,1,0,14,1,8,JPN" xlink:title="AP030" d="M14016.04,-3873.3067L14016.0858,-3873.2491L14016.2003,-3873.1068L14016.2399,-3872.9465L14016.2201,-3872.6398L14016.4902,-3872.44L14016.6794,-3872.3866L14016.9495,-3872.4266L14017.2897,-3872.48L14017.63,-3872.5533L14017.8802,-3872.62L14018.1793,-3872.7135L14018.4906,-3872.6799L14018.8293,-3872.5666L14019.1299,-3872.3732L14019.2902,-3872.1535L14019.5801,-3872.1001L14019.8105,-3872.1199L14020.0195,-3872.1931L14020.3995,-3872.44L14020.5597,-3872.5334"/>
<path content="AP030,1,28,1,0,15,1,8,JPN" xlink:title="AP030" d="M13992.1875,-3871.7017L13993.3502,-3871.6545"/>
<path content="AP030,1,28,1,0,15,1,8,JPN" xlink:title="AP030" d="M13995.3278,-3871.1962L13995.8832,-3871.9276L13996.2463,-3872.5719L13996.2906,-3873.3158L13996.3821,-3874.1272"/>
<path content="AP030,1,28,1,0,15,1,8,JPN" xlink:title="AP030" d="M13993.3502,-3871.6545L13994.5908,-3871.5439L13995.0684,-3871.3966L13995.3278,-3871.1962"/>
<path content="AP030,1,28,1,0,14,1,8,JPN" xlink:title="AP030" d="M14022.8607,-3872.5334L14022.7203,-3872.48L14022.7005,-3872.4598L14022.6807,-3872.4068L14022.7005,-3872.3732L14022.9004,-3872.2599L14022.9004,-3872.1333L14022.9294,-3872.0467L14022.9904,-3871.7731L14023.0194,-3871.5267L14022.9294,-3871.0533"/>
<path content="AP030,1,28,1,0,15,1,8,JPN" xlink:title="AP030" d="M14020.5597,-3872.5334L14022.9294,-3871.0533"/>
<path content="AP030,1,28,1,0,15,1,8,JPN" xlink:title="AP030" d="M14027.4323,-3870.8588L14027.6627,-3871.8086L14028.8162,-3873.2334L14029.226,-3873.9059"/>
<path content="AP030,1,28,1,0,15,1,8,JPN" xlink:title="AP030" d="M14022.8607,-3872.5334L14026.1261,-3871.2742L14027.4323,-3870.8588"/>
<path content="AP030,1,28,1,0,14,1,8,JPN" xlink:title="AP030" d="M14022.9294,-3871.0533L14022.9294,-3871.0197L14022.7905,-3870.9133L14022.7707,-3870.8199L14022.9706,-3870.6066"/>
<path content="AP030,1,28,1,0,15,1,8,JPN" xlink:title="AP030" d="M14020.5597,-3872.5334L14021.2906,-3871.7522L14021.4035,-3871.4256L14021.55,-3871.1582L14022.1283,-3870.4174L14022.9706,-3870.6066"/>
<path content="AP030,1,28,1,0,16,1,8,JPN" xlink:title="AP030" d="M14029.9171,-3874.0113L14030.2658,-3873.2838L14030.4687,-3872.6944L14030.5084,-3872.1863L14030.3268,-3871.3734L14030.2658,-3870.8046L14030.4077,-3870.1542L14030.4749,-3869.8757"/>
<path content="AP030,1,28,1,0,15,1,8,JPN" xlink:title="AP030" d="M14027.4323,-3870.8588L14029.9698,-3870.0275L14030.4749,-3869.8757"/>
<path content="AP030,1,28,1,0,15,1,8,JPN" xlink:title="AP030" d="M14027.4323,-3870.8588L14027.4323,-3870.2648L14027.8168,-3869.7899"/>
<path content="AP030,1,28,1,0,15,1,8,JPN" xlink:title="AP030" d="M14022.9294,-3871.0533L14023.8876,-3871.2318L14024.5071,-3870.8981L14025.9354,-3869.7495L14026.799,-3869.4656L14027.8168,-3869.7899"/>
<path content="AP030,1,28,1,0,14,1,8,JPN" xlink:title="AP030" d="M14031.0593,-3874.2466L14031.0806,-3873.8667L14031.0806,-3873.3997L14031.1295,-3873.2735L14031.1996,-3873.18L14031.2393,-3873.1068L14031.6498,-3872.7135L14031.7001,-3872.6799L14031.81,-3872.48L14031.81,-3872.1001L14031.7703,-3871.8468L14031.6101,-3871.4333L14031.5796,-3871.2334L14031.7001,-3870.8599L14031.81,-3870.7333L14031.9305,-3870.66L14031.9702,-3870.4998L14031.9901,-3870.3899L14032.0206,-3870.2267L14032.1106,-3869.9932L14032.0801,-3869.5934L14032.0602,-3869.4"/>
<path content="AP030,1,28,1,0,15,1,8,JPN" xlink:title="AP030" d="M14030.4749,-3869.8757L14031.6177,-3869.5328L14032.0602,-3869.4"/>
<path content="AP030,1,28,1,0,14,1,8,JPN" xlink:title="AP030" d="M14022.9706,-3870.6066L14023.3597,-3870.4399L14023.4299,-3870.4067L14023.6496,-3870.2999L14023.7,-3870.1935L14023.6298,-3869.7598L14023.6099,-3869.6533L14023.5794,-3869.3798"/>
<path content="AP030,1,28,1,0,14,1,8,JPN" xlink:title="AP030" d="M14032.0602,-3869.4L14032.0602,-3869.2734L14032.0602,-3869.1799"/>
<path content="AP030,1,28,1,0,15,1,8,JPN" xlink:title="AP030" d="M14030.8655,-3869.0704L14031.633,-3869.1406L14032.0602,-3869.1799"/>
<path content="AP030,1,28,1,0,16,1,8,JPN" xlink:title="AP030" d="M14030.4749,-3869.8757L14030.5298,-3869.6461L14030.8655,-3869.0704"/>
<path content="AP030,1,28,1,0,15,1,8,JPN" xlink:title="AP030" d="M14028.3554,-3868.84L14030.8655,-3869.0704"/>
<path content="AP030,1,28,1,0,15,1,8,JPN" xlink:title="AP030" d="M14027.8168,-3869.7899L14028.3554,-3868.84"/>
<path content="AP030,1,28,1,0,16,1,8,JPN" xlink:title="AP030" d="M13998.4497,-3869.9532L13998.6099,-3869.8467L13998.5794,-3869.7933L13998.4894,-3869.7201L13998.4299,-3869.6533L13998.3307,-3869.5801L13998.1995,-3869.4866L13998.1506,-3869.3798L13998.0194,-3869.2867L13997.9706,-3869.22L13997.9706,-3869.0533L13998.0392,-3869.0399L13998.1293,-3868.9865L13998.1995,-3868.8599L13998.2407,-3868.7668"/>
<path content="AP030,1,28,1,0,15,1,8,JPN" xlink:title="AP030" d="M13995.3278,-3871.1962L13995.784,-3870.8439L13996.0709,-3870.3278L13996.0709,-3869.775L13996.3089,-3869.4065L13996.6904,-3869.2223L13997.2153,-3869.0014L13997.5967,-3868.7065L13998.2407,-3868.7668"/>
<path content="AP030,1,28,1,0,15,1,8,JPN" xlink:title="AP030" d="M14032.2906,-3868.6066L14034.1232,-3869.6194L14034.9976,-3869.7037L14035.7635,-3869.7037L14036.5295,-3870.1263L14037.4039,-3870.4639L14038.4979,-3870.4639L14039.0457,-3870.8866L14039.0457,-3871.6469L14039.2639,-3872.1535L14039.592,-3872.6604L14039.4104,-3872.8146L14039.0198,-3873.1464"/>
<path content="AP030,1,28,1,0,14,1,8,JPN" xlink:title="AP030" d="M14032.0602,-3869.1799L14032.0602,-3868.9465L14032.0801,-3868.9133L14032.1106,-3868.84L14032.2906,-3868.6066"/>
<path content="AP030,1,28,1,0,15,1,8,JPN" xlink:title="AP030" d="M14003.0594,-3877.6665L14002.89,-3877.5188L14002.0828,-3876.8135L14001.5106,-3876.2238L14001.2711,-3875.8923L14001.6052,-3874.8974L14001.7014,-3874.0868L14001.7014,-3872.3179L14001.4618,-3871.1388L14001.2711,-3869.9593L14000.795,-3869.4435L14000.5554,-3868.8171L14000.0778,-3868.4853L14000,-3868.491L13999.5529,-3868.5223L13998.8052,-3869.0605L13998.2407,-3868.7668"/>
<path content="AP030,1,28,1,0,14,1,8,JPN" xlink:title="AP030" d="M14032.2906,-3868.6066L14032.2739,-3868.4116L14032.2693,-3868.3735L14032.2693,-3868.3334L14032.2403,-3868.2598L14032.2159,-3868.1324"/>
<path content="AP030,1,28,1,0,16,1,8,JPN" xlink:title="AP030" d="M14030.8655,-3869.0704L14031.3629,-3868.5692L14031.7729,-3868.3081L14032.2159,-3868.1324"/>
<path content="AP030,1,28,1,0,15,1,8,JPN" xlink:title="AP030" d="M13992.1875,-3868.6787L13992.3447,-3868.821L13993.2938,-3870.3167L13993.3502,-3871.6545"/>
<path content="AP030,1,28,1,0,14,1,8,JPN" xlink:title="AP030" d="M14032.2159,-3868.1324L14032.1793,-3867.9398L14032.2006,-3867.8665L14032.3105,-3867.7601L14032.7194,-3867.54L14032.8995,-3867.3267L14032.9895,-3867.2199L14033.0313,-3867.1875"/>
<path content="AP030,1,28,1,0,15,1,8,JPN" xlink:title="AP030" d="M14028.3554,-3868.84L14028.2776,-3867.712L14028.1645,-3867.1875"/>
<path content="AP030,1,28,1,0,15,1,8,JPN" xlink:title="AP030" d="M14023.5794,-3869.3798L14023.9197,-3868.1927L14025.119,-3867.9119L14026.2307,-3867.1875"/>
<path content="AP030,1,28,1,0,16,1,8,JPN" xlink:title="AP030" d="M14032.2159,-3868.1324L14032.8943,-3867.8216L14033.7796,-3867.4498L14034.4357,-3867.1875"/>
<path content="AP030,1,28,1,0,15,1,8,JPN" xlink:title="AP030" d="M14052.2961,-3867.1875L14052.4933,-3867.9497L14052.6474,-3868.306L14053.0319,-3868.6028L14052.9556,-3869.1368L14053.7231,-3869.7308L14053.8773,-3870.3243L14054.9545,-3870.6806L14055.4916,-3871.2147L14055.2612,-3871.8678L14055.4916,-3872.2836L14055.7907,-3872.7867"/>
<path content="AP030,1,28,1,0,14,1,8,JPN" xlink:title="AP030" d="M14023.5794,-3869.3798L14023.4894,-3869.36L14023.4299,-3869.2867L14023.3795,-3869.1799L14023.0194,-3869.0933L14022.5204,-3868.4601L14022.4503,-3868.4067L14022.3297,-3868.2266L14022.2,-3867.9733L14022.1298,-3867.9199L14022.02,-3867.8467L14021.8796,-3867.7399L14021.7697,-3867.6132L14021.6995,-3867.4133L14021.6293,-3867.3466L14021.3303,-3867.2199L14021.2395,-3867.1875"/>
<path content="AP030,1,28,1,0,15,1,8,JPN" xlink:title="AP030" d="M14013.4003,-3873.8464L14013.1912,-3873.6595L14012.1521,-3872.7299L14012.2879,-3871.986L14013.0493,-3871.9421L14014.3311,-3870.8096L14015.2969,-3869.4759L14014.8041,-3868.2808L14015.3935,-3867.1875"/>
<path content="AP030,1,28,1,0,14,1,8,JPN" xlink:title="AP030" d="M14052.6093,-3929.0531L14052.7695,-3929.1466L14052.9358,-3929.2931"/>
<path content="AP030,1,28,1,0,16,1,8,JPN" xlink:title="AP030" d="M14053.9224,-3927.1607L14053.9325,-3927.1889"/>
<path content="AP030,1,28,1,0,14,1,8,JPN" xlink:title="AP030" d="M14055.6195,-3927.2144L14055.6941,-3927.4231L14055.7404,-3927.5932L14055.8594,-3927.7199L14055.9494,-3927.9533L14055.9708,-3928.0743"/>
<path content="AP030,1,28,1,0,14,1,8,JPN" xlink:title="AP030" d="M14061.5204,-3928.4264L14061.8103,-3928.3733L14061.9705,-3928.4264L14062.1796,-3928.6198L14062.3993,-3928.8731L14062.5,-3928.9989"/>
<path content="AP030,1,28,1,0,16,1,8,JPN" xlink:title="AP030" d="M14053.9325,-3927.1889L14053.9902,-3927.4532L14054.2007,-3927.7931L14054.4495,-3928.0464"/>
<path content="AP030,1,28,1,0,16,1,8,JPN" xlink:title="AP030" d="M14053.9325,-3927.1889L14054.2701,-3927.1845L14055.6195,-3927.2144"/>
</g>
</svg>
