<?xml version="1.0" encoding="UTF-8"?>
<svg  xmlns="http://www.w3.org/2000/svg" xmlns:xlink="http://www.w3.org/1999/xlink" xmlns:go="http://purl.org/svgmap/profile" property="f_code,acc,exs,rst,med,rtt,RSU,loc,soc" viewBox="14203.125 -4218.75 140.625 140.625" go:dataArea="14203.125 -4218.75 140.625 140.625" >
<metadata>
 <rdf:RDF xmlns:rdf="http://www.w3.org/1999/02/22-rdf-syntax-ns#" xmlns:crs="http://opengis.org/xmldtds/transformations.dtd" xmlns:svg="http://www.w3.org/svg" >
  <rdf:Description>
   <crs:CoordinateReferenceSystem rdf:resource="http://purl.org/crs/84" svg:transform="matrix(100.0,0.0,0.0,-100.0,0.0,0.0)" />
  </rdf:Description>
 </rdf:RDF>
</metadata>
<globalCoordinateSystem srsName="http://purl.org/crs/84" transform="matrix(100.0,0.0,0.0,-100.0,0.0,0.0)" />
<defs>
 <g id="p0" >
  <circle cx="0.0" cy="0.0" r="3" stroke="green" stroke-width="2.0" vector-effect="non-scaling-stroke" />
 </g>
</defs>
<g fill="none" fill-rule="evenodd" stroke="#00ff00" stroke-width="2" opacity="0.5" vector-effect="non-scaling-stroke" stroke-linejoin="bevel" >
<path content="AP030,1,28,1,0,14,1,8,JPN" xlink:title="AP030" d="M14283.4503,-4214.3867L14284.0195,-4215.7932L14284.1507,-4216.0667L14284.3094,-4216.3334L14284.7,-4216.9666L14284.8297,-4217.1799L14285.0403,-4217.4133L14285.1105,-4217.4866L14285.1501,-4217.5598L14285.1105,-4217.6666L14285.08,-4217.8665L14285.1303,-4218.0466L14285.2005,-4218.1732L14285.2707,-4218.2465L14285.4004,-4218.2465L14285.4904,-4218.3201L14285.5606,-4218.4265L14285.6094,-4218.5532L14285.6506,-4218.6401L14285.7193,-4218.7134L14285.7664,-4218.75"/>
<path content="AP030,1,28,1,0,14,1,8,JPN" xlink:title="AP030" d="M14270.077,-4218.75L14270.0806,-4218.7466L14270.1797,-4218.7134L14270.4697,-4218.7332L14271.2692,-4218.7466L14271.6995,-4218.7332L14272.0398,-4218.6798L14272.1298,-4218.6401L14272.3999,-4218.5665L14272.7203,-4218.4067L14272.9294,-4218.2465L14273.1293,-4218.0668L14273.2407,-4217.9733L14273.3795,-4217.9199L14273.8998,-4217.8131L14274.1302,-4217.7933L14274.6994,-4217.8333L14275.1099,-4217.7933L14275.6104,-4217.72L14275.9705,-4217.6334L14276.1307,-4217.58L14276.3794,-4217.4866L14276.5396,-4217.4534L14276.6495,-4217.4133L14276.7395,-4217.3801L14276.7899,-4217.3466L14276.8799,-4217.2333L14276.9302,-4217.2001L14277.1301,-4216.8732L14277.2705,-4216.6599L14277.4307,-4216.5001L14277.6505,-4216.2266L14277.7405,-4216.1331L14277.8305,-4216.0999L14278.0396,-4216.0999L14278.1097,-4216.0801L14278.2196,-4216.0133L14278.3798,-4215.8867L14278.4698,-4215.8333L14278.54,-4215.8134L14278.7827,-4215.8268L14278.9001,-4215.8333L14279.0405,-4215.8333L14279.2007,-4215.7734L14279.3106,-4215.72L14279.3793,-4215.6334L14279.4693,-4215.58L14280.1102,-4215.3465L14280.3101,-4215.2866L14280.4306,-4215.2733L14280.4901,-4215.2332L14280.5603,-4215.1268L14280.7007,-4215.0398L14280.9692,-4214.9265L14281.1096,-4214.8602L14281.2195,-4214.7469L14281.3797,-4214.5535L14281.5598,-4214.4268L14281.7001,-4214.3734L14281.9305,-4214.3734L14282.0801,-4214.3333L14282.3303,-4214.2601L14282.4707,-4214.2467L14282.7194,-4214.2799L14283.0597,-4214.3532L14283.2901,-4214.3867L14283.4503,-4214.3867"/>
<path content="AP030,1,28,1,0,14,1,8,JPN" xlink:title="AP030" d="M14328.2196,-4203.4866L14328.7704,-4203.6865L14328.8101,-4203.7399L14328.8803,-4203.8334L14328.9505,-4203.9932L14328.9703,-4204.0798L14329.0604,-4204.1931L14329.1504,-4204.2599L14329.2007,-4204.3201L14329.2404,-4204.3732L14329.3106,-4204.4067L14329.4296,-4204.4399L14329.7699,-4204.5132L14329.8294,-4204.5334L14329.8996,-4204.6066L14330.1804,-4204.9133L14330.2002,-4204.9465L14330.2704,-4204.9999L14330.3802,-4205.04L14330.5603,-4205.1067L14330.7693,-4205.2334L14330.8807,-4205.36L14330.9006,-4205.4531L14330.9006,-4205.5401L14330.8594,-4205.6332L14330.8304,-4205.8666L14330.8594,-4205.8998L14330.8807,-4205.9532L14330.8807,-4205.9933L14330.9006,-4206.0467L14330.9006,-4206.1199L14330.9296,-4206.3L14330.9296,-4206.3732L14330.9006,-4206.5868L14330.8807,-4206.6933L14330.8304,-4206.7665L14330.7205,-4206.9866L14330.7205,-4207.0202L14330.7205,-4207.0732L14330.7693,-4207.1468L14330.7693,-4207.2334L14330.7205,-4207.6134L14330.7404,-4207.7068L14330.8151,-4207.9391L14330.838,-4208.1444L14330.9021,-4208.3023L14331.0043,-4208.4362L14331.0837,-4208.5468L14331.076,-4208.6098L14331.1493,-4208.68L14331.1493,-4209.0935L14331.1996,-4209.1999L14331.2698,-4209.3067L14331.3293,-4209.4002L14331.4697,-4209.5066L14331.5201,-4209.56L14331.5598,-4209.6333L14331.5598,-4209.7733L14331.5399,-4210.08L14331.5399,-4210.1734L14331.5796,-4210.2798L14331.6299,-4210.3535L14331.6803,-4210.4801L14331.7001,-4210.5667L14331.7703,-4210.6602L14331.8604,-4210.82L14331.9702,-4211.0535L14331.9824,-4211.158L14332.0541,-4211.2923L14332.1243,-4211.4029L14332.132,-4211.4658L14332.1793,-4211.5601L14332.1304,-4211.6333L14332.0801,-4211.6669L14332.0206,-4211.7199L14331.7902,-4211.8134L14331.6101,-4211.8999L14331.5201,-4212.0132L14331.4499,-4212.0998L14331.4499,-4212.2066L14331.4499,-4212.3001L14331.4896,-4212.3734L14331.6101,-4212.5534L14331.6803,-4212.6801L14331.7001,-4212.7666L14331.72,-4212.8399L14331.72,-4213.0402L14331.7703,-4213.2L14331.7902,-4213.2332L14331.81,-4213.3999L14331.8298,-4213.5399L14331.8298,-4213.5933L14331.81,-4213.6532L14331.7902,-4213.7066L14331.7703,-4213.76L14331.81,-4213.8134L14331.9,-4213.9L14331.9504,-4213.9935L14331.9901,-4214.1533L14332.0801,-4214.5535L14332.1304,-4214.7133L14332.2906,-4214.9467L14332.3303,-4215.0532L14332.3593,-4215.0932L14332.3593,-4215.1798L14332.3303,-4215.2534L14332.2403,-4215.3599L14332.1503,-4215.5067L14332.1106,-4215.5933L14332.1106,-4215.6868L14332.1106,-4215.76L14332.1793,-4215.8867L14332.3105,-4216.0999L14332.3593,-4216.2266L14332.4295,-4216.32L14332.5394,-4216.4398L14332.7393,-4216.6801L14332.8293,-4216.7866L14332.8995,-4216.8934L14332.9498,-4216.9868L14332.9697,-4217.0933L14332.9895,-4217.1799L14333.0795,-4217.2867L14333.1497,-4217.3801L14333.1802,-4217.4133L14333.2397,-4217.4866L14333.2901,-4217.5598L14333.3099,-4217.5934L14333.3298,-4217.72L14333.3603,-4217.8333L14333.4,-4217.9199L14333.4,-4218.0134L14333.3603,-4218.1534L14333.3801,-4218.28L14333.4305,-4218.3735L14333.4305,-4218.5333L14333.4503,-4218.6401L14333.49,-4218.7332L14333.4996,-4218.75"/>
<path content="AP030,1,28,1,0,14,1,8,JPN" xlink:title="AP030" d="M14283.4503,-4214.3867L14283.7906,-4214.4066L14284.3307,-4214.4268L14284.5398,-4214.46L14284.5795,-4214.4798L14284.7702,-4214.5134L14284.8801,-4214.5L14285.08,-4214.4268L14285.2707,-4214.3532L14285.4507,-4214.3002L14285.6094,-4214.2467L14285.6995,-4214.2067L14285.8597,-4214.1201L14285.9894,-4213.9935L14286.1099,-4213.94L14286.3098,-4213.8668L14286.3297,-4213.8466L14286.4044,-4213.8134L14286.4502,-4213.7932L14286.7203,-4213.6532L14286.8607,-4213.5799L14287.0193,-4213.5067L14287.1796,-4213.4533L14287.4298,-4213.4132L14287.6801,-4213.3999L14288.1104,-4213.4132L14288.4705,-4213.4533L14288.8596,-4213.5265L14288.9496,-4213.5399L14289.0793,-4213.5265L14289.2899,-4213.4869L14289.5599,-4213.3801L14289.7705,-4213.3266L14289.83,-4213.3266L14289.9902,-4213.3068L14290.1505,-4213.3068L14290.3793,-4213.3266L14290.4907,-4213.3598L14290.6296,-4213.4132L14290.7898,-4213.4335L14290.8997,-4213.4132L14290.95,-4213.4132L14291.0797,-4213.3801L14291.2201,-4213.2866L14291.33,-4213.2L14291.5207,-4213.0733L14291.7007,-4212.9868L14291.8594,-4212.9467L14292.0395,-4212.8735L14292.1997,-4212.7666L14292.2699,-4212.6801L14292.3294,-4212.6598L14292.4698,-4212.6934L14292.6498,-4212.7468L14292.8101,-4212.8601L14292.8802,-4212.8933L14293.6096,-4212.7132L14293.8293,-4212.6598L14294.22,-4212.5866L14294.2902,-4212.5534L14294.4305,-4212.4802L14294.5801,-4212.4268L14295.1797,-4212.3333L14295.61,-4212.2601L14295.8801,-4212.2066L14296.0205,-4212.1933L14296.1105,-4212.1532L14296.3303,-4212.0468L14296.5805,-4211.9202L14296.7194,-4211.8332L14296.8094,-4211.6867L14296.9299,-4211.4532L14296.9894,-4211.3266L14297.0795,-4211.2732L14297.2,-4211.1801L14297.2702,-4211.0931L14297.3099,-4211.0401L14297.4503,-4210.9467L14297.6105,-4210.8002L14297.7402,-4210.6068L14297.8607,-4210.387L14297.9507,-4210.3199L14298.0804,-4210.26L14298.2193,-4210.2268L14298.3093,-4210.2066L14298.4894,-4210.1933L14298.7198,-4210.1734L14298.8297,-4210.1532L14298.9304,-4210.12L14299.0601,-4210.0132L14299.2004,-4209.8866L14299.3301,-4209.7733L14299.4705,-4209.7069L14299.6796,-4209.6134L14299.8093,-4209.56L14299.8795,-4209.5066L14299.9496,-4209.4002L14299.9695,-4209.3266L14299.9847,-4209.2415L14300.0183,-4209.1766L14300.0824,-4209.037L14300.1343,-4208.9237L14300.1923,-4208.8169L14300.2228,-4208.7231L14300.3098,-4208.6399L14300.3708,-4208.6029L14300.4135,-4208.5835L14300.56,-4208.5533L14300.6302,-4208.5335L14300.7706,-4208.4267L14300.8301,-4208.4068L14300.9293,-4208.3733L14300.9705,-4208.3199L14301.062,-4208.2077L14301.1093,-4208.1753L14301.1692,-4208.1494L14301.3596,-4208.12L14301.5396,-4208.12L14301.6495,-4208.0799L14301.7395,-4208.0666L14301.8799,-4208.0467L14301.9699,-4208.0269L14302.0981,-4207.9971L14302.3254,-4207.9323L14302.7405,-4207.8156L14302.9922,-4207.7442L14303.093,-4207.7152L14303.1738,-4207.6794L14303.36,-4207.6668L14303.5599,-4207.6534L14303.6102,-4207.6332L14303.6804,-4207.6134L14303.7903,-4207.5268L14303.9902,-4207.3799L14304.1077,-4207.336L14304.2236,-4207.2842L14304.5227,-4207.1739L14304.6494,-4207.1468L14304.7394,-4207.1266L14304.8294,-4207.1068L14304.9896,-4207.0202L14305.13,-4206.9466L14305.3299,-4206.8932L14305.7205,-4206.7665L14306.0593,-4206.6399L14306.4697,-4206.44L14306.8298,-4206.2599L14306.9305,-4206.2065L14306.9702,-4206.1535L14307.0923,-4206.0123L14307.3151,-4205.8781L14307.4554,-4205.7888L14307.5638,-4205.7442L14307.9407,-4205.706L14308.1497,-4205.6133L14308.3603,-4205.5267L14308.6548,-4205.3997L14308.9554,-4205.336L14309.108,-4205.2532L14309.3185,-4205.151L14309.523,-4205.1319L14309.6375,-4205.0617L14309.7641,-4204.9915L14309.8984,-4204.9088L14309.9884,-4204.826L14310.1151,-4204.7237L14310.2203,-4204.62L14310.2905,-4204.5666L14310.3958,-4204.5006L14310.4858,-4204.4559L14310.5804,-4204.3922L14310.7086,-4204.3282L14311.3098,-4204.1L14311.8805,-4203.9398L14312.0407,-4203.8666L14312.1994,-4203.7731L14312.5595,-4203.5069L14312.7899,-4203.36L14313.7894,-4202.6402L14314.1998,-4202.3201L14314.3997,-4202.1332L14314.4501,-4202.0668L14314.4501,-4201.9932L14314.4897,-4201.9402L14314.7202,-4201.7601L14314.7705,-4201.7067L14314.7705,-4201.6666L14314.7903,-4201.6335L14314.8102,-4201.4866L14314.8453,-4201.4389L14314.9902,-4201.3065L14315.1993,-4201.0735L14315.7898,-4200.4601L14315.9302,-4200.3201L14316.1102,-4200.1198L14316.2201,-4200.0267L14316.3101,-4199.9733L14316.3803,-4199.9733"/>
<path content="AP030,1,28,1,0,14,1,8,JPN" xlink:title="AP030" d="M14316.3803,-4199.9733L14316.4307,-4199.9733L14316.9907,-4200.1198L14317.8299,-4200.3201L14318.3594,-4200.4269L14318.5593,-4200.4601L14318.6798,-4200.5001L14318.7698,-4200.5669L14318.9896,-4200.7866L14319.2001,-4200.9666L14319.4,-4201.1066L14319.4702,-4201.2199L14319.6503,-4201.3802L14319.7693,-4201.4534L14319.8303,-4201.54L14319.9493,-4201.7067L14320.1096,-4202.0802L14320.1492,-4202.2469L14320.1996,-4202.2999L14320.2393,-4202.3533L14320.2896,-4202.3869L14320.7199,-4202.5333L14321.2204,-4202.66L14321.3104,-4202.6798L14321.4005,-4202.66L14321.5607,-4202.6199L14321.6507,-4202.6199L14321.7697,-4202.6402L14321.9498,-4202.6932L14322.11,-4202.8L14322.2198,-4202.9133L14322.3099,-4202.9469L14322.4503,-4202.9667L14322.7707,-4202.9469L14322.9507,-4202.9133L14323.0392,-4202.8732L14323.0804,-4202.7866L14323.0804,-4202.6932L14323.0606,-4202.5867L14323.0194,-4202.5002L14323.0194,-4202.4399L14323.0392,-4202.3731L14323.0804,-4202.2999L14323.1796,-4202.2469L14323.3597,-4202.1332L14323.4695,-4202.0267L14323.6496,-4201.8131L14323.7396,-4201.7399L14323.9899,-4201.6335L14324.1806,-4201.54L14324.2401,-4201.5266L14324.3103,-4201.5068L14324.3805,-4201.5266L14324.5193,-4201.6132L14324.5804,-4201.6132L14324.6796,-4201.5934L14324.7406,-4201.5934L14324.8795,-4201.6335L14324.9298,-4201.6335L14324.9893,-4201.6132L14325.0793,-4201.5934L14325.1495,-4201.5934L14325.2197,-4201.6132L14325.47,-4201.8333L14326.1795,-4202.2999L14326.3306,-4202.3731L14326.5594,-4202.5002L14326.9302,-4202.7866L14326.9699,-4202.84L14327.6306,-4203.2867L14327.7893,-4203.3466L14328.2196,-4203.4866"/>
<path content="AP030,1,28,1,0,15,1,8,JPN" xlink:title="AP030" d="M14316.3803,-4199.9733L14316.8213,-4198.9166L14317.276,-4198.1674L14318.2098,-4197.4091L14319.8502,-4196.7091L14322.0078,-4195.2103L14322.8027,-4195.0993L14323.9563,-4193.2854L14324.234,-4193.0172L14324.3439,-4193.3971L14324.2569,-4193.6615L14324.0814,-4194.1189L14323.8998,-4194.4328L14323.8235,-4195.9156L14323.941,-4197.4419L14324.5499,-4199.2935L14325.4303,-4200.6138L14326.7883,-4201.9009L14327.4872,-4202.6276L14328.3951,-4202.9202L14328.2196,-4203.4866"/>
</g>
</svg>
