<?xml version="1.0" encoding="UTF-8"?>
<svg  xmlns="http://www.w3.org/2000/svg" xmlns:xlink="http://www.w3.org/1999/xlink" xmlns:go="http://purl.org/svgmap/profile" property="f_code,acc,exs,rst,med,rtt,RSU,loc,soc" viewBox="13148.4375 -3515.625 70.3125 70.3125" go:dataArea="13148.4375 -3515.625 70.3125 70.3125" >
<metadata>
 <rdf:RDF xmlns:rdf="http://www.w3.org/1999/02/22-rdf-syntax-ns#" xmlns:crs="http://opengis.org/xmldtds/transformations.dtd" xmlns:svg="http://www.w3.org/svg" >
  <rdf:Description>
   <crs:CoordinateReferenceSystem rdf:resource="http://purl.org/crs/84" svg:transform="matrix(100.0,0.0,0.0,-100.0,0.0,0.0)" />
  </rdf:Description>
 </rdf:RDF>
</metadata>
<globalCoordinateSystem srsName="http://purl.org/crs/84" transform="matrix(100.0,0.0,0.0,-100.0,0.0,0.0)" />
<defs>
 <g id="p0" >
  <circle cx="0.0" cy="0.0" r="3" stroke="green" stroke-width="2.0" vector-effect="non-scaling-stroke" />
 </g>
</defs>
<g fill="none" fill-rule="evenodd" stroke="#00ff00" stroke-width="2" opacity="0.5" vector-effect="non-scaling-stroke" stroke-linejoin="bevel" >
<path content="AP030,1,28,1,0,14,1,8,JPN" xlink:title="AP030" d="M13217.3798,-3497.633L13217.3798,-3497.6334L13217.4301,-3497.6532L13217.5797,-3497.7398L13217.8604,-3497.9L13217.9703,-3497.9931L13218.1305,-3498.0801L13218.3594,-3498.2998L13218.4296,-3498.3532L13218.4692,-3498.4264L13218.6295,-3498.6065L13218.75,-3498.7018"/>
<path content="AP030,1,28,1,0,16,1,8,JPN" xlink:title="AP030" d="M13217.3584,-3497.3408L13217.44,-3497.378L13218.17,-3497.449L13218.67,-3497.515L13218.75,-3497.5602"/>
<path content="AP030,1,28,1,0,15,1,8,JPN" xlink:title="AP030" d="M13217.3798,-3497.633L13217.3584,-3497.3408"/>
<path content="AP030,1,28,1,0,15,1,8,JPN" xlink:title="AP030" d="M13217.3584,-3497.3408L13217.2867,-3496.3615L13217.3401,-3495.8652L13217.8024,-3495.747L13217.8787,-3495.0352L13217.8345,-3494.706"/>
<path content="AP030,1,28,1,0,15,1,8,JPN" xlink:title="AP030" d="M13217.8345,-3494.706L13218.75,-3494.6687"/>
<path content="AP030,1,28,1,0,15,1,8,JPN" xlink:title="AP030" d="M13217.8345,-3494.706L13216.5283,-3494.0884L13216.3803,-3493.5123L13216.1423,-3493.0164L13216.2659,-3492.6125"/>
<path content="AP030,1,28,1,0,14,1,8,JPN" xlink:title="AP030" d="M13217.3798,-3497.633L13216.9495,-3497.4865L13216.4902,-3497.3999L13216.33,-3497.3064L13216.1804,-3497.2198L13216.04,-3497.1466L13215.86,-3497.1268L13215.8096,-3497.1268L13215.6296,-3497.0932L13215.4297,-3496.9997L13215.2939,-3496.9997L13215.1794,-3496.9997L13215.0192,-3496.9131L13214.9506,-3496.8399L13214.9002,-3496.7464L13214.8605,-3496.6599L13214.7903,-3496.553L13214.74,-3496.5L13214.6103,-3496.3734L13214.5599,-3496.32L13214.4699,-3496.1933L13214.2197,-3495.993L13214.0198,-3495.8466L13213.8596,-3495.7066L13213.6307,-3495.5933L13213.5193,-3495.5265L13213.4705,-3495.433L13213.4293,-3495.3465L13213.2706,-3495.2332L13213.15,-3495.1668L13213.06,-3494.9867L13213.0203,-3494.8399L13212.6495,-3494.7132L13212.5198,-3494.6598L13212.4298,-3494.5534L13212.4298,-3494.5133L13212.3596,-3494.3199L13212.2192,-3494.08L13212.0193,-3493.94L13211.8301,-3493.8465L13211.4304,-3493.8133L13211.2,-3493.7199L13211.0794,-3493.5932L13211.0199,-3493.3998L13210.9695,-3493.3266L13210.9695,-3493.2533L13210.9497,-3493.1065L13210.8795,-3492.9466L13210.8795,-3492.7666L13210.8795,-3492.68L13210.9299,-3492.5865L13210.9497,-3492.5331L13210.9497,-3492.4599L13210.9299,-3492.3"/>
<path content="AP030,1,28,1,0,16,1,8,JPN" xlink:title="AP030" d="M13213.157,-3492.2515L13213.57,-3492.486L13214.81,-3493.681L13215.2,-3494.115L13215.42,-3494.553L13215.81,-3495.749L13216.04,-3496.262L13216.39,-3496.78L13216.78,-3497.077L13217.3584,-3497.3408"/>
<path content="AP030,1,28,1,0,15,1,8,JPN" xlink:title="AP030" d="M13210.9299,-3492.3L13211.1328,-3492.3321L13211.7981,-3492.4362L13213.0203,-3492.3523L13213.157,-3492.2515"/>
<path content="AP030,1,28,1,0,15,1,8,JPN" xlink:title="AP030" d="M13213.157,-3492.2515L13213.8245,-3491.7591L13216.2659,-3492.6125"/>
<path content="AP030,1,28,1,0,14,1,8,JPN" xlink:title="AP030" d="M13210.9299,-3492.3L13210.8994,-3492.2264L13210.7193,-3492.1932L13210.6293,-3492.12L13210.6094,-3491.9533L13210.6186,-3491.922L13210.6506,-3491.8133L13210.7407,-3491.7599L13210.7895,-3491.6664L13210.7697,-3491.5932L13210.6506,-3491.5264L13210.6094,-3491.4867"/>
<path content="AP030,1,28,1,0,14,1,8,JPN" xlink:title="AP030" d="M13210.6094,-3491.4867L13210.6094,-3491.2197L13210.5606,-3491.1064"/>
<path content="AP030,1,28,1,0,16,1,8,JPN" xlink:title="AP030" d="M13211.5171,-3490.8871L13211.8982,-3491.4082L13212.46,-3491.888L13213.04,-3492.185L13213.157,-3492.2515"/>
<path content="AP030,1,28,1,0,16,1,8,JPN" xlink:title="AP030" d="M13210.5606,-3491.1064L13210.9299,-3491.0198L13211.38,-3490.9267L13211.5171,-3490.8871"/>
<path content="AP030,1,28,1,0,14,1,8,JPN" xlink:title="AP030" d="M13207.8293,-3490.0131L13208.1497,-3490.0131L13208.2901,-3490.0467L13208.3801,-3490.1199L13208.49,-3490.2267L13208.6105,-3490.4598L13208.7006,-3490.48L13208.9493,-3490.5132L13209.52,-3490.5331L13209.5398,-3490.5331L13209.7397,-3490.5533L13209.8801,-3490.5533L13209.9304,-3490.5666L13210.0204,-3490.6067L13210.1807,-3490.7131L13210.2203,-3490.8398L13210.2203,-3491L13210.2203,-3491.18L13210.3302,-3491.2731L13210.4507,-3491.3799L13210.6094,-3491.4867"/>
<path content="AP030,1,28,1,0,14,1,8,JPN" xlink:title="AP030" d="M13210.5606,-3491.1064L13210.5194,-3490.9866L13210.4294,-3490.7867L13210.4507,-3490.7131L13210.5606,-3490.5666L13210.6094,-3490.4064L13210.6094,-3490.3198L13210.5804,-3490.0665L13210.5392,-3489.7732L13210.5194,-3489.653"/>
<path content="AP030,1,28,1,0,15,1,8,JPN" xlink:title="AP030" d="M13216.2659,-3492.6125L13216.5268,-3492.3923L13216.7542,-3492.4961L13216.8823,-3492.7666L13216.9876,-3492.535L13217.3691,-3492.1715L13217.3508,-3491.1266L13217.5186,-3489.5603"/>
<path content="AP030,1,28,1,0,16,1,8,JPN" xlink:title="AP030" d="M13211.5171,-3490.8871L13211.6806,-3490.8398L13212.0193,-3490.6399L13212.2894,-3490.4266L13212.6099,-3490.0665L13212.8296,-3489.8132L13213.0203,-3489.6866L13213.2004,-3489.5798L13213.4705,-3489.5397L13213.8596,-3489.6133L13214.1296,-3489.6667L13214.7705,-3489.8666L13214.9902,-3489.9399L13215.2695,-3490.0265L13215.6799,-3490.1199L13215.9302,-3490.1199L13216.0599,-3490.1199L13216.2704,-3490.0665L13216.5207,-3489.9933L13216.8594,-3489.8331L13217.2394,-3489.6866L13217.5186,-3489.5603"/>
<path content="AP030,1,28,1,0,14,1,8,JPN" xlink:title="AP030" d="M13210.5194,-3489.653L13210.5194,-3489.6133L13210.3302,-3489.3997L13210.2707,-3489.36"/>
<path content="AP030,1,28,1,0,14,1,8,JPN" xlink:title="AP030" d="M13207.8293,-3490.0131L13207.8094,-3489.6866L13207.8094,-3489.5599L13207.8247,-3489.4524L13207.8293,-3489.4131L13207.9895,-3489.4131L13208.0597,-3489.4131L13208.1299,-3489.4531L13208.2001,-3489.5065L13208.3603,-3489.6133L13208.4305,-3489.6667L13208.5205,-3489.6866L13208.6807,-3489.6866L13208.7402,-3489.6866L13208.8303,-3489.6866L13208.9294,-3489.6133L13209.2697,-3489.6133L13209.52,-3489.6332L13209.5795,-3489.6133L13209.6497,-3489.5599L13209.8297,-3489.5397L13209.8602,-3489.5397L13209.8999,-3489.5267L13209.9701,-3489.4665L13210.0403,-3489.4531L13210.1501,-3489.4531L13210.2203,-3489.4131L13210.2707,-3489.36"/>
<path content="AP030,1,28,1,0,14,1,8,JPN" xlink:title="AP030" d="M13210.2707,-3489.36L13210.2829,-3489.3433L13210.4004,-3489.1998L13210.463,-3489.1342L13210.4706,-3489.1266L13210.8093,-3488.9267L13210.9497,-3488.8733"/>
<path content="AP030,1,28,1,0,14,1,8,JPN" xlink:title="AP030" d="M13207.8293,-3490.0131L13207.7698,-3490.0131L13207.6797,-3490.0131L13207.5806,-3490.0265L13207.4493,-3490.0131L13207.2006,-3489.92L13207.1106,-3489.8865L13207.1304,-3489.7198L13207.1503,-3489.6866L13207.2006,-3489.5931L13207.2205,-3489.4867L13207.2205,-3489.4531L13207.1304,-3489.2532L13207.0801,-3489.1998L13206.9504,-3489.0533L13206.9,-3488.9866L13206.8604,-3488.9267L13206.6498,-3488.8397L13206.5399,-3488.7466"/>
<path content="AP030,1,28,1,0,15,1,8,JPN" xlink:title="AP030" d="M13215.7715,-3488.612L13216.481,-3489.1499L13217.5186,-3489.5599L13217.5186,-3489.5603"/>
<path content="AP030,1,28,1,0,15,1,8,JPN" xlink:title="AP030" d="M13210.5194,-3489.653L13211.1557,-3489.7156L13211.5189,-3489.843L13211.882,-3489.843L13212.2452,-3489.5458L13213.0234,-3489.2063L13213.8,-3489.291L13214.5264,-3489.3337L13215.7715,-3488.612"/>
<path content="AP030,1,28,1,0,14,1,8,JPN" xlink:title="AP030" d="M13206.5399,-3488.7466L13206.5201,-3488.66L13206.5292,-3488.6074L13206.5399,-3488.5532L13206.5201,-3488.4266L13206.4896,-3488.3732"/>
<path content="AP030,1,28,1,0,14,1,8,JPN" xlink:title="AP030" d="M13206.4896,-3488.3732L13206.5598,-3488.3533L13206.6101,-3488.3533L13206.7902,-3488.3732L13207.0206,-3488.4068L13207.1106,-3488.5666L13207.2403,-3488.7665L13207.4295,-3488.9465L13208.1299,-3489.2864L13208.3603,-3489.3066L13208.6807,-3489.1666L13208.8806,-3489.1068L13209.1507,-3489.0533L13209.3597,-3489.0533L13209.5795,-3489.0533L13209.7702,-3489.093L13209.8801,-3489.1464L13210.08,-3489.2731L13210.2707,-3489.36"/>
<path content="AP030,1,28,1,0,16,1,8,JPN" xlink:title="AP030" d="M13217.5186,-3489.5603L13217.5201,-3489.5599L13217.8604,-3489.4333L13218.1305,-3489.2731L13218.3594,-3489.1266L13218.5806,-3488.8397L13218.6295,-3488.7665L13218.75,-3488.6257"/>
<path content="AP030,1,28,1,0,15,1,8,JPN" xlink:title="AP030" d="M13218.6768,-3487.9326L13218.75,-3487.9326"/>
<path content="AP030,1,28,1,0,15,1,8,JPN" xlink:title="AP030" d="M13215.7715,-3488.612L13216.4978,-3488.1874L13217.1722,-3487.8902L13218.1061,-3487.9326L13218.6768,-3487.9326"/>
<path content="AP030,1,28,1,0,14,1,8,JPN" xlink:title="AP030" d="M13206.4896,-3488.3732L13206.4301,-3488.2797L13206.3095,-3488.1531L13206.2393,-3488.0466L13206.2698,-3487.9532L13206.3095,-3487.8666L13206.3095,-3487.7598L13206.3095,-3487.7068L13206.1798,-3487.4001L13205.9296,-3487.0731"/>
<path content="AP030,1,28,1,0,15,1,8,JPN" xlink:title="AP030" d="M13202.8107,-3486.5868L13202.5406,-3486.7577L13202.4628,-3486.8073L13202.4445,-3486.9675L13202.536,-3487.1456L13202.7924,-3487.3665L13203.6469,-3487.5008L13204.2038,-3487.2292L13204.5303,-3487.1525L13204.921,-3487.1075L13205.3696,-3487.1075L13205.6274,-3487.4157L13205.9296,-3487.6881L13206.2256,-3488.7714L13206.5399,-3488.7466"/>
<path content="AP030,1,28,1,0,15,1,8,JPN" xlink:title="AP030" d="M13215.77,-3485.9737L13218.6768,-3487.9326"/>
<path content="AP030,1,28,1,0,14,1,8,JPN" xlink:title="AP030" d="M13210.9497,-3488.8733L13211.1496,-3488.8733L13211.2,-3488.8733L13211.3098,-3488.8199L13211.3998,-3488.8397L13211.5204,-3488.8931L13211.7004,-3488.8733L13211.8301,-3488.9267L13211.9293,-3489.0198L13212.0605,-3489.0732L13212.1307,-3489.0732L13212.1796,-3489.0533L13212.3596,-3488.9999L13212.5793,-3488.9866L13212.6297,-3488.9999L13212.8601,-3489.1266L13212.9303,-3489.1464L13213.06,-3489.0732L13213.2202,-3488.9133L13213.3606,-3488.8L13213.5193,-3488.6799L13213.5803,-3488.5532L13213.6993,-3488.48L13213.8107,-3488.4266L13214.1296,-3488.3198L13214.2899,-3488.2065L13214.3295,-3488.1733L13214.36,-3488.0466L13214.36,-3487.6534L13214.36,-3487.4531L13214.4302,-3487.36L13214.6301,-3487.1067L13214.8605,-3486.8401L13214.9704,-3486.66L13215.1093,-3486.5868L13215.2695,-3486.5868L13215.4007,-3486.5665L13215.4297,-3486.5334L13215.4907,-3486.3865L13215.5197,-3486.3331L13215.6799,-3486.2465L13215.77,-3486.1732L13215.77,-3485.9737"/>
<path content="AP030,1,28,1,0,14,1,8,JPN" xlink:title="AP030" d="M13215.77,-3485.9737L13215.8096,-3485.6133L13215.86,-3485.3268L13215.86,-3485.0399L13215.86,-3484.84L13215.9302,-3484.7332L13216.1499,-3484.6798L13216.33,-3484.6397L13216.3605,-3484.5867L13216.4307,-3484.5333L13216.4307,-3484.4601L13216.3605,-3484.3201L13216.33,-3484.2266L13216.3605,-3484.1L13216.4505,-3483.9733L13216.4902,-3483.8867L13216.4902,-3483.6864L13216.4307,-3483.5934L13216.2201,-3483.4667L13216.2201,-3483.3797L13216.2003,-3483.2535L13216.1804,-3483.1467L13216.0202,-3482.8732L13215.8295,-3482.6599L13215.6799,-3482.4265L13215.5807,-3482.28L13215.5594,-3482.1732L13215.5807,-3482.0667L13215.77,-3481.8665L13215.8295,-3481.8134L13215.95,-3481.8333L13216.0599,-3481.8665L13216.0797,-3481.8333L13216.0797,-3481.7398L13216.3589,-3481.6532"/>
<path content="AP030,1,28,1,0,15,1,8,JPN" xlink:title="AP030" d="M13218.75,-3481.3432L13217.9306,-3481.2"/>
<path content="AP030,1,28,1,0,14,1,8,JPN" xlink:title="AP030" d="M13216.3589,-3481.6532L13216.5207,-3481.6132L13216.7206,-3481.58L13217.1097,-3481.4533L13217.4301,-3481.3999L13217.6102,-3481.3801L13217.7399,-3481.3465L13217.8604,-3481.2534L13217.9306,-3481.2"/>
<path content="AP030,1,28,1,0,14,1,8,JPN" xlink:title="AP030" d="M13217.9306,-3481.2L13217.9901,-3481.1268L13217.9703,-3481.02L13217.9703,-3480.9998L13217.9901,-3480.8399L13218.0801,-3480.7331L13218.2404,-3480.5332L13218.4296,-3480.4798L13218.5593,-3480.3532L13218.6996,-3480.1933L13218.75,-3480.1225"/>
<path content="AP030,1,28,1,0,14,1,8,JPN" xlink:title="AP030" d="M13205.9296,-3487.0731L13205.7007,-3486.8599L13205.4306,-3486.713L13205.2704,-3486.6932L13204.8996,-3486.713L13204.4907,-3486.7466L13204.4296,-3486.7332L13204.1794,-3486.6932L13203.6301,-3486.5665L13203.3295,-3486.5334L13202.9297,-3486.5532L13202.8107,-3486.5868"/>
<path content="AP030,1,28,1,0,15,1,8,JPN" xlink:title="AP030" d="M13210.7361,-3477.8057L13211.3892,-3477.9495L13214.1266,-3480.1727L13214.4409,-3480.9345L13214.6912,-3481.3007L13216.3589,-3481.6532"/>
<path content="AP030,1,28,1,0,15,1,8,JPN" xlink:title="AP030" d="M13210.9497,-3488.8733L13211.0596,-3488.295L13211.47,-3487.912L13211.8378,-3487.9391L13211.8729,-3487.6156L13211.8149,-3487.1765L13211.9919,-3486.755L13211.4349,-3486.3007L13211.5829,-3485.4202L13211.0718,-3484.5348L13210.9467,-3483.9821L13211.0428,-3483.8371L13211.6577,-3483.7521L13212.088,-3483.675L13212.4268,-3483.2214L13212.3245,-3482.7141L13212.1933,-3482.4654L13212.4298,-3482.222L13212.1964,-3481.7047L13211.5692,-3480.9193L13211.6898,-3480.537L13211.7645,-3480.0858L13211.2579,-3478.6793L13211.1191,-3478.2558L13210.7361,-3477.8057"/>
<path content="AP030,1,28,1,0,15,1,8,JPN" xlink:title="AP030" d="M13205.9296,-3487.0731L13206.6025,-3485.9608L13207.4203,-3484.726L13207.6797,-3483.8795L13207.7652,-3482.6447L13207.7225,-3481.7978L13207.4646,-3481.2687L13207.3349,-3480.9864L13207.2479,-3480.6686L13207.2479,-3480.3162L13207.1625,-3480.069L13206.9901,-3479.8927L13206.9473,-3479.5399L13207.1625,-3478.2345L13207.4646,-3477.4937L13207.4203,-3476.823"/>
<path content="AP030,1,28,1,0,15,1,8,JPN" xlink:title="AP030" d="M13210.7361,-3477.8057L13210.1654,-3477.0081L13209.6024,-3476.6598L13207.4203,-3476.823"/>
<path content="AP030,1,28,1,0,14,1,8,JPN" xlink:title="AP030" d="M13192.2897,-3476.3729L13192.2897,-3476.3733L13192.3096,-3476.5533L13192.3294,-3476.6399L13192.45,-3476.8398L13192.54,-3476.8932L13192.72,-3476.86L13192.9306,-3476.7334L13192.9901,-3476.7132L13193.1107,-3476.7334L13193.2205,-3476.8398L13193.3807,-3476.8398L13193.6493,-3476.7334L13193.8095,-3476.6598L13193.9499,-3476.6598L13194.0399,-3476.7334L13194.2902,-3476.7864L13194.3802,-3476.8932L13194.6793,-3477.5066L13194.7693,-3477.6134L13194.9005,-3477.6333L13195.3995,-3477.6134L13195.8603,-3477.5066L13196.08,-3477.7199L13196.1304,-3477.8133L13196.2906,-3478.0132L13196.4294,-3478.2253"/>
<path content="AP030,1,28,1,0,15,1,8,JPN" xlink:title="AP030" d="M13196.4294,-3478.2253L13196.4493,-3477.4929L13196.3593,-3477.1168L13196.199,-3476.8875L13196.5469,-3476.609L13197.6364,-3476.2775L13198.2895,-3476.0872L13198.5901,-3475.5013L13198.9563,-3475.2895L13199.1577,-3475.1305L13199.1592,-3474.6307L13199.1257,-3473.9761"/>
<path content="AP030,1,28,1,0,15,1,8,JPN" xlink:title="AP030" d="M13199.1257,-3473.9761L13200.0305,-3473.4131L13200.4333,-3473.3345L13200.882,-3472.8462L13201.5488,-3472.2874L13201.8387,-3472.0478L13202.475,-3472.2473L13203.1509,-3472.3194L13203.6758,-3472.5758L13203.9307,-3472.8989L13203.8528,-3473.1323L13203.6087,-3473.201L13203.5843,-3473.4165L13203.7018,-3473.5558L13204.5837,-3474.4038L13205.6244,-3475.0023L13206.2225,-3475.3075L13206.6086,-3476.1189L13207.4203,-3476.823"/>
<path content="AP030,1,28,1,0,15,1,8,JPN" xlink:title="AP030" d="M13218.75,-3477.3255L13218.6829,-3477.2667L13218.0756,-3476.7876L13217.485,-3475.8965L13216.2186,-3474.6952L13215.6479,-3474.371L13215.1947,-3473.9246L13214.8071,-3473.8529L13214.418,-3472.8245L13213.8824,-3472.4155L13213.4079,-3471.685"/>
<path content="AP030,1,28,1,0,15,1,8,JPN" xlink:title="AP030" d="M13216.3315,-3469.9642L13217.2119,-3471.0724L13218.75,-3471.7634"/>
<path content="AP030,1,28,1,0,15,1,8,JPN" xlink:title="AP030" d="M13213.4079,-3471.685L13214.0503,-3471.3409L13216.3315,-3469.9642"/>
<path content="AP030,1,28,1,0,15,1,8,JPN" xlink:title="AP030" d="M13216.3315,-3469.9642L13216.1301,-3469.2867"/>
<path content="AP030,1,28,1,0,15,1,8,JPN" xlink:title="AP030" d="M13199.1257,-3473.9761L13198.6099,-3473.3944L13198.5718,-3472.3045L13198.2956,-3471.6972L13198.3154,-3471.2856L13199.3668,-3471.0598L13200.2579,-3471.0827L13200.6668,-3470.961L13201.2024,-3470.3922L13201.6357,-3469.7941L13202.4567,-3469.7464L13202.359,-3468.66"/>
<path content="AP030,1,28,1,0,15,1,8,JPN" xlink:title="AP030" d="M13207.4203,-3476.823L13207.4646,-3476.2589L13207.1625,-3475.6943L13206.8604,-3475.3769L13206.7307,-3474.8829L13206.7307,-3474.3183L13206.6879,-3474.0715L13206.3858,-3473.7892L13205.0064,-3473.2952L13204.361,-3472.9778L13204.361,-3472.5899L13204.4037,-3471.743L13204.7058,-3471.4607L13205.0064,-3471.0373L13205.0064,-3470.4727L13204.7485,-3470.0497L13203.8437,-3469.5908L13203.067,-3469.2734L13202.7664,-3469.0266L13202.4902,-3468.6398"/>
<path content="AP030,1,28,1,0,14,1,8,JPN" xlink:title="AP030" d="M13202.359,-3468.66L13202.3605,-3468.66L13202.4902,-3468.6398"/>
<path content="AP030,1,28,1,0,15,1,8,JPN" xlink:title="AP030" d="M13192.2897,-3476.3729L13193.0664,-3475.9136L13193.1854,-3475.5531L13192.8757,-3474.0734L13192.6346,-3473.6206L13192.1249,-3473.2346L13191.8182,-3472.6681L13191.1026,-3472.0058L13190.6158,-3471.6431L13190.1642,-3471.6743L13189.888,-3471.5664L13189.1464,-3471.1197L13188.8794,-3470.6863L13188.6642,-3470.018L13188.4338,-3469.7182L13187.6007,-3469.3947L13187.3535,-3469.5065L13187.1201,-3469.2421L13186.5982,-3468.7092L13186.0001,-3468.2999"/>
<path content="AP030,1,28,1,0,14,1,8,JPN" xlink:title="AP030" d="M13183.5205,-3468.2598L13184.1095,-3468.5135L13184.816,-3468.771L13184.9503,-3468.8198L13185.0204,-3468.8599L13185.1105,-3468.8732L13185.3302,-3468.8732L13185.5804,-3468.9667L13185.6094,-3469.0533L13185.6796,-3469.1998L13185.8994,-3469.36L13186.2,-3469.54L13186.38,-3469.6865L13186.4502,-3469.8334L13186.4304,-3469.9398L13186.3998,-3470.2465L13186.29,-3470.5532L13186.1099,-3470.8199L13185.8795,-3471.0934L13185.8307,-3471.1998L13185.8597,-3471.4535L13185.8994,-3471.5599L13186.0397,-3471.6331L13186.1298,-3471.74L13186.2396,-3471.8864L13186.3297,-3471.9734L13186.8103,-3472.1001L13186.8301,-3472.1001L13186.9705,-3472.1733L13187.2696,-3472.3L13187.3596,-3472.3732L13187.3795,-3472.6799L13187.3596,-3473L13187.3596,-3473.3067L13187.3795,-3473.8667L13187.6297,-3474.1199L13187.6801,-3474.2798L13187.6495,-3474.3534L13187.6099,-3474.4064L13187.3795,-3474.5865L13187.3093,-3474.6799L13187.3596,-3474.7665L13187.4893,-3474.86L13187.7899,-3475.0732L13187.9303,-3475.1266L13188.15,-3475.2731L13188.3804,-3475.5066L13188.4903,-3475.5066L13188.9893,-3475.4532L13189.1495,-3475.4868L13189.2899,-3475.5264L13189.4302,-3475.6134L13189.5203,-3475.6134L13189.7903,-3475.56L13190.0803,-3475.5264L13190.2695,-3475.4333L13190.4297,-3475.4333L13190.5807,-3475.4532L13190.77,-3475.3998L13190.86,-3475.3998L13190.9698,-3475.4333L13191.1102,-3475.5066L13191.7694,-3475.8667L13191.9296,-3475.9933L13192.1494,-3476.0998L13192.2699,-3476.1932L13192.2897,-3476.3L13192.2897,-3476.3729"/>
<path content="AP030,1,28,1,0,14,1,8,JPN" xlink:title="AP030" d="M13186.0001,-3468.2999L13186.0397,-3468.2999L13186.1801,-3468.2999L13186.7401,-3468.1198"/>
<path content="AP030,1,28,1,0,14,1,8,JPN" xlink:title="AP030" d="M13183.5205,-3468.2598L13183.8104,-3468.0668L13184.2194,-3467.9001L13184.3597,-3467.9531L13184.4894,-3467.9531L13184.61,-3467.8867L13184.79,-3467.8467L13184.8206,-3467.8505L13185.1105,-3467.8867L13185.2402,-3467.9199L13185.5392,-3467.9398L13185.6796,-3467.9932L13185.7895,-3468.1L13185.8994,-3468.2598L13185.9497,-3468.2999L13186.0001,-3468.2999"/>
<path content="AP030,1,28,1,0,14,1,8,JPN" xlink:title="AP030" d="M13182.9559,-3467.6376L13183.1497,-3467.7933L13183.3801,-3467.7933L13183.4229,-3468.0153L13183.4503,-3468.1534L13183.5205,-3468.2598"/>
<path content="AP030,1,28,1,0,15,1,8,JPN" xlink:title="AP030" d="M13182.9559,-3467.6376L13183.5602,-3467.6521L13184.8312,-3467.4435L13185.3271,-3467.3538L13185.6094,-3467.4187L13186.7401,-3468.1198"/>
<path content="AP030,1,28,1,0,14,1,8,JPN" xlink:title="AP030" d="M13191.3284,-3466.9666L13191.449,-3466.9865"/>
<path content="AP030,1,28,1,0,15,1,8,JPN" xlink:title="AP030" d="M13191.3086,-3467.7193L13191.3284,-3466.9666"/>
<path content="AP030,1,28,1,0,14,1,8,JPN" xlink:title="AP030" d="M13189.7003,-3466.4799L13189.8804,-3466.5531L13190.1093,-3466.5531L13190.1505,-3466.7866L13190.1505,-3466.9865L13190.1505,-3467.3798L13190.2405,-3467.4667L13190.3595,-3467.5064L13190.4495,-3467.5064L13190.5197,-3467.4667L13190.4907,-3467.2531L13190.5197,-3467.2001L13190.7196,-3467.1665L13190.8295,-3467.2001L13190.8997,-3467.3798L13190.9897,-3467.4332L13191.1499,-3467.4332L13191.2704,-3467.4667L13191.3101,-3467.5598L13191.2704,-3467.6865L13191.3086,-3467.7193"/>
<path content="AP030,1,28,1,0,14,1,8,JPN" xlink:title="AP030" d="M13186.7401,-3468.1198L13186.9507,-3468.0668L13187.0407,-3468.0267L13187.1307,-3467.9398L13187.1994,-3467.8665L13187.2406,-3467.6132L13187.2894,-3467.4L13187.7701,-3467.1467L13187.8799,-3467.0734L13188.2904,-3467.0933L13188.4705,-3467.0532L13188.6093,-3467.0734L13188.6505,-3467.0532L13188.6795,-3466.9865L13188.8107,-3466.8198L13189.0198,-3466.7667L13189.1098,-3466.6931L13189.3799,-3466.6599L13189.65,-3466.4799L13189.7003,-3466.4799"/>
<path content="AP030,1,28,1,0,14,1,8,JPN" xlink:title="AP030" d="M13189.7003,-3466.4799L13189.9307,-3466.4265L13190.1306,-3466.4398L13190.2206,-3466.4997L13190.2893,-3466.6065L13190.3107,-3466.7465L13190.3107,-3466.7866L13190.3595,-3466.84L13190.4495,-3466.9132L13190.5197,-3466.9266L13190.6296,-3466.9666L13190.9698,-3466.9666L13191.3284,-3466.9666"/>
<path content="AP030,1,28,1,0,14,1,8,JPN" xlink:title="AP030" d="M13191.3086,-3467.7193L13191.3101,-3467.72L13191.3803,-3467.7067L13191.4505,-3467.6533L13191.5207,-3467.6533L13191.6306,-3467.7601L13191.7007,-3467.7933L13191.7404,-3467.7933L13191.9693,-3467.6865L13192.1997,-3467.5934L13192.4896,-3467.58L13192.6102,-3467.6334L13192.8101,-3467.8665L13192.9504,-3467.9398L13193.0405,-3467.9398L13193.1503,-3467.9199L13193.2404,-3467.8867L13193.4006,-3467.7067L13193.4692,-3467.6666L13194.22,-3467.58L13194.5206,-3467.5934L13194.7403,-3467.6132L13194.8593,-3467.6132L13195.1096,-3467.4133L13195.4895,-3467.3065L13195.6802,-3467.2333L13195.8801,-3467.1265L13196.1105,-3467.0399L13196.2204,-3466.9865L13196.3806,-3466.9132L13196.5607,-3466.8198L13196.8597,-3466.7133L13196.9894,-3466.6931L13197.2397,-3466.5867L13197.3297,-3466.5134L13197.4304,-3466.4265L13197.8607,-3466.5531L13197.9706,-3466.6065L13198.2193,-3466.7999L13198.4299,-3466.8732L13198.4894,-3466.9132L13198.7,-3466.9865L13199.2401,-3467.2001L13199.4003,-3467.2867L13199.5193,-3467.3267L13199.6796,-3467.3267L13199.9695,-3467.3466L13200.2701,-3467.4332L13200.5798,-3467.6865L13200.7004,-3467.8467L13200.7202,-3468.0668L13200.7904,-3468.2465L13200.8804,-3468.3201L13201.1505,-3468.3735L13201.3306,-3468.4067L13201.6098,-3468.4601L13201.7395,-3468.5665L13201.8997,-3468.6932L13202.0401,-3468.7134L13202.359,-3468.66"/>
<path content="AP030,1,28,1,0,14,1,8,JPN" xlink:title="AP030" d="M13216.1301,-3469.2867L13216.2201,-3469.3268L13216.4307,-3469.3066L13216.5207,-3469.1998L13216.7694,-3468.8934L13216.9907,-3468.66L13217.0807,-3468.6199L13217.3294,-3468.5867L13217.54,-3468.5532L13217.6804,-3468.4601L13217.7002,-3468.3201L13217.72,-3468.1732L13217.7902,-3468.0466L13217.8604,-3467.8467L13217.8802,-3467.6666L13217.9306,-3467.54L13218.1305,-3467.2001L13218.2205,-3466.9865L13218.2693,-3466.8598L13218.3304,-3466.7465L13218.4296,-3466.6599L13218.6096,-3466.5867L13218.75,-3466.5399"/>
<path content="AP030,1,28,1,0,15,1,8,JPN" xlink:title="AP030" d="M13213.4079,-3471.685L13211.5097,-3469.7632L13210.8963,-3469.3485L13210.1959,-3469.2535L13210.1196,-3468.9869L13210.1669,-3468.7946L13210.3928,-3468.3983L13210.2737,-3468.042L13210.3271,-3467.7849L13209.52,-3467.2256L13209.4406,-3466.7416L13207.6096,-3465.3999"/>
<path content="AP030,1,28,1,0,14,1,8,JPN" xlink:title="AP030" d="M13202.4902,-3468.6398L13202.6306,-3468.4998L13202.7893,-3468.3533L13202.9297,-3468.2465L13202.9694,-3468.2068L13203.1799,-3468.0668L13203.2394,-3468.0134L13203.3798,-3467.7601L13203.4897,-3467.5934L13203.6102,-3467.54L13203.7704,-3467.58L13203.9307,-3467.6334L13204.1107,-3467.6334L13204.1504,-3467.6334L13204.3594,-3467.6334L13204.5197,-3467.6865L13204.5395,-3467.6865L13204.6097,-3467.6334L13204.7699,-3467.5598L13204.9698,-3467.54L13205.0598,-3467.54L13205.2399,-3467.5934L13205.5405,-3467.58L13205.7007,-3467.58L13205.8304,-3467.6533L13205.9006,-3467.6865L13206.1096,-3467.6865L13206.1493,-3467.6132L13206.1295,-3467.54L13205.9296,-3467.4332L13205.9006,-3467.4L13205.9006,-3467.3267L13205.9494,-3467.3065L13206.1493,-3467.3065L13206.3293,-3467.2333L13206.3995,-3467.1799L13206.4499,-3467.1799L13206.5598,-3467.2733L13206.6101,-3467.3466L13206.6803,-3467.3466L13206.72,-3467.3065L13206.7001,-3467.2199L13206.6498,-3467.1265L13206.6299,-3467.0734L13206.6803,-3466.9865L13206.8298,-3466.8732L13206.7902,-3466.6931L13206.7902,-3466.6397L13206.9,-3466.5531L13206.9305,-3466.46L13207.0801,-3465.7734L13207.1106,-3465.6532L13207.1793,-3465.5399L13207.6096,-3465.3999"/>
<path content="AP030,1,28,1,0,14,1,8,JPN" xlink:title="AP030" d="M13207.6096,-3465.3999L13207.6996,-3465.3065L13207.8796,-3465.0932L13208.02,-3464.9864L13208.0597,-3464.7331L13208.11,-3464.6198L13208.3603,-3464.5332L13208.6105,-3464.5535L13208.7906,-3464.6198L13208.8806,-3464.6797L13208.9294,-3464.6198L13208.9905,-3464.32L13209.0195,-3464.2467"/>
<path content="AP030,1,28,1,0,14,1,8,JPN" xlink:title="AP030" d="M13183.5205,-3468.2598L13183.4,-3468.4067L13183.2397,-3468.4799L13183.1299,-3468.5135L13182.6096,-3468.6398L13182.5806,-3468.66L13182.2006,-3468.9133L13181.72,-3468.9667L13181.6498,-3468.9667L13180.9906,-3469.0399L13180.4001,-3468.8599L13180.1498,-3468.84L13179.8798,-3468.7466L13179.6097,-3468.7332L13179.3594,-3468.6798L13178.7704,-3468.5532L13178.54,-3468.5333L13178.3997,-3468.4998L13177.8793,-3468.28L13177.2705,-3468.1732L13176.7197,-3468.0134L13176.0406,-3467.7601L13175.9293,-3467.72L13175.47,-3467.6865L13175.3601,-3467.5934L13175.2991,-3467.4706L13175.1999,-3467.2733L13175.0793,-3467.1467L13174.9695,-3467.0933L13174.1104,-3467.1066L13173.79,-3467.1665L13173.5397,-3467.1665L13173.2697,-3467.0933L13173.0804,-3467.0734L13172.8607,-3467.1665L13172.6303,-3467.2001L13172.4304,-3467.2001L13172.3099,-3467.2333L13172.11,-3467.3466L13171.9696,-3467.3798L13171.8094,-3467.3466L13171.6995,-3467.2733L13171.5195,-3467.1265L13171.2692,-3467.0734L13171.0205,-3466.9865L13170.3598,-3466.6199L13170.1996,-3466.5531L13170.0195,-3466.5665L13169.8944,-3466.6031L13169.7006,-3466.6599L13169.4901,-3466.7332L13169.2398,-3466.6931L13168.9896,-3466.6931L13168.7897,-3466.5531L13168.2693,-3466.4398L13168.0801,-3466.4066L13167.9901,-3466.3734L13167.8604,-3466.2067L13167.72,-3466.1198L13167.5797,-3465.9199L13167.45,-3465.6864L13167.3294,-3465.6132L13166.9296,-3465.5067L13166.6504,-3465.2199L13166.4902,-3464.9666L13166.3803,-3464.7133L13166.0599,-3464.5332L13165.8997,-3464.2799L13165.6097,-3464.1933L13165.4694,-3464.1335L13165.4694,-3464.1331L13165.4694,-3464.1327"/>
<path content="AP030,1,28,1,0,14,1,8,JPN" xlink:title="AP030" d="M13209.0195,-3464.2467L13209.1095,-3464.0999L13209.1995,-3464.0465L13209.4498,-3464.0266L13209.6298,-3463.9L13209.7,-3463.9198L13210.0204,-3464.0465L13210.0403,-3464.1197L13210.0601,-3464.2265L13210.1105,-3464.3734L13210.2905,-3464.5535L13210.6796,-3464.6797L13210.9299,-3464.9998L13211.1496,-3465.1665L13211.3602,-3465.2199L13211.5601,-3465.2733L13211.6501,-3465.5067L13211.6806,-3465.5933L13212.0804,-3465.9L13212.3306,-3466.0267L13212.4298,-3466.32L13212.4893,-3466.3734L13212.6801,-3466.4265L13212.8098,-3466.5867L13213.0203,-3466.6397L13213.4293,-3466.9865L13213.5193,-3467.0933L13213.6307,-3467.1066L13213.7405,-3467.1066L13213.8596,-3467.0933L13213.9893,-3467.0933L13214.18,-3467.1665L13214.2395,-3467.2333L13214.3295,-3467.4133L13214.4897,-3467.5266L13214.65,-3467.6334L13214.7202,-3467.7734L13214.83,-3467.9733L13215.0192,-3468.1732L13215.2893,-3468.3533L13215.3595,-3468.4799L13215.5807,-3468.8599L13215.6296,-3468.9133L13215.9302,-3468.9667L13215.9698,-3469.0201L13216.1301,-3469.2867"/>
<path content="AP030,1,28,1,0,14,1,8,JPN" xlink:title="AP030" d="M13182.9559,-3467.6376L13182.8598,-3467.5598L13182.7194,-3467.4534L13182.2693,-3467.0933L13182.2205,-3466.9865L13182.0602,-3466.6798L13182.0465,-3466.5962L13182.0206,-3466.4265L13181.9,-3466.2998L13181.81,-3466.2464L13181.6299,-3466.1732L13181.3095,-3466.0797L13181.0806,-3465.9931L13181.0593,-3465.9397L13181.0593,-3465.8665L13181.1096,-3465.7398L13181.1996,-3465.3465L13181.2698,-3465.0734L13181.2393,-3464.7133L13181.0806,-3464.5332L13180.6793,-3464.3333L13180.13,-3464.1533L13179.8599,-3463.9534L13179.6997,-3463.7932L13179.6997,-3463.7066L13179.7195,-3463.5933L13180.1498,-3463.2L13180.5405,-3462.8933L13180.6107,-3462.7335L13180.5801,-3462.5"/>
<path content="AP030,1,28,1,0,14,1,8,JPN" xlink:title="AP030" d="M13160.6293,-3462.3199L13160.6796,-3462.4397L13160.7407,-3462.4397L13160.8093,-3462.4065L13160.8292,-3462.3199"/>
<path content="AP030,1,28,1,0,14,1,8,JPN" xlink:title="AP030" d="M13160.6293,-3462.3199L13160.7895,-3462.3199L13160.8292,-3462.3199"/>
<path content="AP030,1,28,1,0,14,1,8,JPN" xlink:title="AP030" d="M13160.8292,-3462.3199L13161.0199,-3462.3199L13161.1099,-3462.4065L13161.3602,-3462.64L13161.4899,-3462.7132L13161.7004,-3462.7132L13161.8607,-3462.6801L13161.9507,-3462.64L13162.0193,-3462.64L13162.3993,-3462.64L13162.6297,-3462.5866L13162.7396,-3462.5534L13162.8296,-3462.5134L13162.9501,-3462.5134L13163.4293,-3462.64L13163.4705,-3462.6598L13163.6307,-3462.6801L13163.8107,-3462.6801L13163.9297,-3462.7335L13164.1998,-3463.1268L13164.2197,-3463.3266L13164.1495,-3463.4865L13164.1998,-3463.5799L13164.36,-3463.7398L13164.4897,-3463.8134L13164.74,-3463.94L13164.9002,-3463.9534L13165.2206,-3463.9198L13165.4694,-3464.1327"/>
<path content="AP030,1,28,1,0,15,1,8,JPN" xlink:title="AP030" d="M13165.4694,-3464.1327L13165.9775,-3463.7383L13166.5314,-3463.3091L13166.9861,-3462.5401L13167.3035,-3462.0701L13168.0328,-3461.8214L13168.4341,-3461.5322L13168.7973,-3461.0878L13169.7198,-3460.4598"/>
<path content="AP030,1,28,1,0,15,1,8,JPN" xlink:title="AP030" d="M13172.58,-3460.1612L13173.0682,-3460.3352L13174.6216,-3461.0191L13175.148,-3461.0161L13175.4349,-3461.0378L13175.7385,-3461.3655L13176.6693,-3462.4577L13177.1896,-3462.9757L13177.4368,-3464.0591L13177.2095,-3464.6721L13177.6154,-3464.8117L13178.3737,-3465.0867L13178.5339,-3465.5861L13178.6758,-3466.3666L13178.9474,-3466.7648L13179.1855,-3466.8411L13179.7211,-3466.7656L13180.6442,-3467.2981L13181.5353,-3467.8162L13182.1686,-3467.9657L13182.7301,-3467.7319L13182.9559,-3467.6376"/>
<path content="AP030,1,28,1,0,14,1,8,JPN" xlink:title="AP030" d="M13158.9706,-3460.0666L13159.4498,-3460.1334L13159.6298,-3460.2467L13159.6802,-3460.3199L13159.7702,-3460.64L13159.7702,-3460.8398L13159.7,-3461.0397L13159.6802,-3461.1465L13159.6802,-3461.5398L13159.8602,-3461.7599L13159.8495,-3461.8229L13159.8297,-3461.94L13160.0204,-3461.9534L13160.08,-3461.9534L13160.4294,-3462.2467L13160.6293,-3462.3199"/>
<path content="AP030,1,28,1,0,15,1,8,JPN" xlink:title="AP030" d="M13172.58,-3460.1612L13171.9818,-3459.9476L13171.3852,-3459.8801L13170.9763,-3460.2398L13169.7198,-3460.4598"/>
<path content="AP030,1,28,1,0,15,1,8,JPN" xlink:title="AP030" d="M13191.449,-3466.9865L13192.1646,-3466.058L13192.5797,-3465.3275L13193.0206,-3464.357L13193.3533,-3464.0015L13193.8477,-3463.6925L13193.7912,-3463.065L13193.1488,-3462.4287L13192.3416,-3461.3991L13192.5522,-3459.5097L13193.0832,-3459.6367L13193.4906,-3459.9285L13194.1803,-3459.9197"/>
<path content="AP030,1,28,1,0,14,1,4,JPN" xlink:title="AP030" d="M13157.4493,-3459.4334L13158.0795,-3459.7599L13158.9706,-3460.0666"/>
<path content="AP030,1,28,1,0,15,1,8,JPN" xlink:title="AP030" d="M13218.75,-3465.4976L13218.2327,-3465.1485L13217.9138,-3464.6061L13217.3035,-3463.6612L13216.8457,-3462.4512L13216.1545,-3462.262L13216.0446,-3462.1155L13216.1835,-3461.9873L13216.8381,-3462.1387L13217.3203,-3461.9316L13217.395,-3461.6257L13217.1143,-3461.1206L13214.9185,-3459.3334"/>
<path content="AP030,1,28,1,0,14,1,8,JPN" xlink:title="AP030" d="M13180.5801,-3462.5L13180.7404,-3462.4599L13180.8594,-3462.4268L13181.0364,-3462.3234L13181.1096,-3462.2799L13181.3995,-3462.0998L13181.5201,-3461.9534L13181.5399,-3461.8866L13181.5399,-3461.6665L13181.6101,-3461.5265L13181.72,-3461.4666L13181.9504,-3461.4334L13182.1793,-3461.3998L13182.6294,-3461.2732L13182.6797,-3461.2331L13182.6996,-3461.1065L13182.6797,-3460.6197L13182.8094,-3460.4065L13182.93,-3460.3199L13183.4305,-3460.3001L13183.6502,-3460.2467L13183.7204,-3460.2467L13183.8303,-3460.1532L13183.9005,-3460.0468L13183.9493,-3460.0266L13184.1095,-3460.2798L13184.2194,-3460.3001L13184.3796,-3460.3001L13184.7397,-3460.2264L13184.8099,-3460.2066L13185.0204,-3460.1933L13185.1105,-3460.1933L13185.2005,-3460.26L13185.3302,-3460.3333L13185.4294,-3460.3535L13185.6293,-3460.3333L13185.7895,-3460.3001L13185.8597,-3460.2467L13185.8597,-3460.12L13185.8597,-3459.8866L13185.8795,-3459.8667L13185.9299,-3459.8465L13186.0199,-3459.9197L13186.1496,-3460.08L13186.2198,-3460.0998L13186.3297,-3460.0998L13186.3998,-3460.0468L13186.3998,-3459.8667L13186.4304,-3459.7599L13186.5402,-3459.7065L13186.9003,-3459.6535L13186.9507,-3459.6134L13187.0605,-3459.5066L13187.1796,-3459.5066L13187.3993,-3459.5932L13187.5595,-3459.6867L13187.7197,-3459.8667L13187.7701,-3459.8866L13187.8799,-3459.8999L13188.06,-3459.8331L13188.4293,-3459.6664L13188.4903,-3459.6867L13188.5605,-3459.7935L13188.5803,-3459.8465L13188.6795,-3459.8667L13188.9893,-3459.8866L13189.0396,-3459.9197L13189.1296,-3460.0266L13189.27,-3460.1532L13189.3799,-3460.1933L13189.9506,-3460.1933L13190.0604,-3460.1532L13190.1093,-3460.12L13190.2695,-3459.94L13190.2695,-3459.7599L13190.1505,-3459.6134L13190.1306,-3459.56L13190.1794,-3459.5264L13190.2206,-3459.4532L13190.3107,-3459.2335L13190.329,-3459.0534"/>
<path content="AP030,1,28,1,0,14,1,8,JPN" xlink:title="AP030" d="M13190.329,-3459.0534L13190.3595,-3458.9134L13190.3107,-3458.6597L13190.2405,-3458.5335L13190.3107,-3458.4999L13190.5197,-3458.5533L13190.7898,-3458.5667L13190.9698,-3458.6399L13191.2903,-3458.6399L13191.33,-3458.68L13191.33,-3458.7334L13191.1804,-3458.9664L13190.8798,-3459.1267L13190.8096,-3459.2197L13190.8096,-3459.2865L13190.9302,-3459.38L13191.1804,-3459.4334L13191.3101,-3459.4334L13191.4307,-3459.3468L13191.6107,-3459.1465L13191.9495,-3458.8398L13192.0197,-3458.82L13192.2195,-3458.8932L13192.4301,-3458.86L13192.4698,-3458.8932L13192.6102,-3459.0534L13192.6804,-3459.0733L13192.9504,-3459.0199L13193.0603,-3459.0199L13193.2404,-3459.2533L13193.3304,-3459.3067L13193.4494,-3459.3266L13193.5593,-3459.2865L13193.6096,-3459.3266L13193.6295,-3459.5932L13193.7393,-3459.8133L13193.8293,-3459.8667L13193.8599,-3459.8667L13194.0598,-3459.8667L13194.1803,-3459.9197"/>
<path content="AP030,1,28,1,0,15,1,8,JPN" xlink:title="AP030" d="M13209.0195,-3464.2467L13208.252,-3462.9284L13207.8842,-3462.4512L13207.3257,-3462.2025L13205.7144,-3460.4565L13205.513,-3460.3725L13205.4642,-3460.0574L13205.5679,-3459.4769L13205.5115,-3458.8493L13205.5557,-3458.4373L13204.837,-3458.1074L13203.9322,-3457.9712L13203.5919,-3457.6344L13203.1952,-3457.4322L13202.6901,-3457.4638L13201.68,-3457.2735"/>
<path content="AP030,1,28,1,0,14,1,8,JPN" xlink:title="AP030" d="M13194.1803,-3459.9197L13194.5206,-3460.1532L13194.8303,-3460.4267L13194.8807,-3460.4797L13195.0607,-3460.7468L13195.1294,-3460.7998L13195.3598,-3460.7864L13195.52,-3460.6934L13195.7001,-3460.5534L13195.8603,-3460.4797L13195.99,-3460.4401L13196.2692,-3460.4797L13196.3593,-3460.5133L13196.5195,-3460.4797L13196.6095,-3460.4401L13196.6797,-3460.3199L13196.6995,-3460.12L13196.7407,-3459.56L13196.9299,-3459.2197L13196.8994,-3459.0401L13197.02,-3458.9867L13197.0596,-3458.9268L13197.0795,-3458.86L13197.0398,-3458.7997L13196.9299,-3458.68L13196.8796,-3458.6067L13196.8094,-3458.4599L13196.8597,-3458.4064L13196.9299,-3458.4064L13197.0398,-3458.4064L13197.11,-3458.4064L13197.4304,-3458.6399L13197.6303,-3458.6597L13198.1094,-3458.8734L13198.2193,-3459.0733L13198.4894,-3459.1267L13198.7,-3459.2197L13198.79,-3459.2197L13198.8998,-3459.1064L13199.0204,-3459.0534L13199.0799,-3459.0401L13199.3805,-3458.9268L13199.4705,-3458.8932L13199.5193,-3458.8932L13199.6796,-3458.8932L13199.7696,-3458.7868L13199.8093,-3458.7132L13199.8093,-3458.5335L13199.9695,-3458.4267L13200.0595,-3458.2268L13200.1297,-3458.1333L13200.1495,-3457.9933L13200.1495,-3457.9201L13200.2197,-3457.9201L13200.2396,-3457.9735L13200.2396,-3458.0265L13200.3601,-3458.0997L13200.6302,-3458.0666L13200.6805,-3458.0467L13200.7202,-3457.9933L13200.7706,-3457.9533L13200.9293,-3458.0265L13201.0406,-3458.0467L13201.1505,-3458.0132L13201.1795,-3457.9933L13201.2405,-3457.9399L13201.2405,-3457.8667L13201.2405,-3457.6534L13201.2894,-3457.5798L13201.6098,-3457.3067L13201.68,-3457.2735"/>
<path content="AP030,1,28,1,0,15,1,8,JPN" xlink:title="AP030" d="M13214.9185,-3459.3334L13216.0522,-3459.6931L13216.6,-3460.0445L13216.9861,-3459.9689L13217.6834,-3459.708L13217.9687,-3459.383L13218.5043,-3458.2794L13218.75,-3458.5637"/>
<path content="AP030,1,28,1,0,15,1,8,JPN" xlink:title="AP030" d="M13169.7198,-3460.4598L13169.1818,-3459.8412L13168.7851,-3459.3979L13167.836,-3459.1942L13167.3157,-3458.9153L13167.0288,-3458.1978L13166.8869,-3457.3612L13166.3254,-3456.7528L13165.9515,-3456.3328L13164.7903,-3455.9174L13163.9359,-3455.1125"/>
<path content="AP030,1,28,1,0,15,1,8,JPN" xlink:title="AP030" d="M13161.7905,-3454.9465L13163.9359,-3455.1125"/>
<path content="AP030,1,28,1,0,14,1,8,JPN" xlink:title="AP030" d="M13160.8292,-3462.3199L13160.8536,-3462.2028L13160.8597,-3462.1735L13160.9497,-3462.0998L13161.0596,-3462.0132L13161.1099,-3461.8332L13161.2396,-3461.6665L13161.4502,-3461.4864L13161.5402,-3461.2732L13161.5601,-3461.1668L13161.5204,-3461.1065L13161.5402,-3460.9867L13161.6806,-3460.7864L13161.8607,-3460.6068L13162.0804,-3460.4599L13162.2192,-3460.3001L13162.2406,-3460.1933L13162.2696,-3460.0998L13162.2192,-3459.7401L13162.1506,-3459.6535L13162.0605,-3459.5932L13161.7203,-3459.4532L13161.6302,-3459.3998L13161.5204,-3459.2533L13161.3998,-3459.0199L13161.2701,-3458.9134L13161.1496,-3458.8734L13161.0794,-3458.8398L13160.9497,-3458.7666L13160.8994,-3458.5865L13160.9497,-3458.3866L13161.1496,-3457.8335L13161.2,-3457.7599L13161.29,-3457.4867L13161.2198,-3457.3265L13161.2198,-3457.18L13161.2396,-3457.04L13161.5799,-3456.6799L13161.8607,-3456.4068L13161.9507,-3456.3L13161.8805,-3455.8468L13161.8607,-3455.3265L13161.9003,-3455.1666L13161.9705,-3455.04L13161.7905,-3454.9465"/>
<path content="AP030,1,28,1,0,14,1,8,JPN" xlink:title="AP030" d="M13180.5801,-3462.5L13180.5801,-3462.4268L13180.5603,-3462.1735L13180.4001,-3461.9732L13180.13,-3461.7199L13180.1102,-3461.6867L13179.8996,-3461.2198L13179.8599,-3460.8932L13179.8599,-3460.7666L13179.7195,-3460.6197L13179.7195,-3460.5534L13179.9301,-3460.0266L13180.0201,-3459.9197L13180.04,-3459.56L13179.9698,-3459.2197L13179.6997,-3458.8932L13179.2892,-3458.68L13179.1107,-3458.5335L13179.0802,-3458.4599L13179.2206,-3458.1932L13179.3594,-3457.9533L13179.5197,-3457.7198L13179.4495,-3457.5798L13179.0604,-3457.1266L13179.0604,-3456.9466L13179.1107,-3456.8398L13179.2206,-3456.7333L13179.4296,-3456.5666L13179.5593,-3456.4598L13179.7195,-3456.0265L13179.7195,-3455.9734L13179.7699,-3455.6866L13179.8996,-3455.5798L13180.04,-3455.4867L13180.3604,-3455.3467L13180.7007,-3455.18L13181.1798,-3454.8733L13181.2897,-3454.6799L13181.6299,-3454.4067L13181.7703,-3454.3331L13181.9305,-3454.2999L13182.0602,-3454.3331L13182.3303,-3454.4598L13182.518,-3454.6074L13182.5607,-3454.6398L13182.6492,-3454.7333L13182.7896,-3455.1266L13182.8293,-3455.1666L13182.9895,-3455.1666L13183.11,-3455.1468L13183.1802,-3455.0732L13183.2001,-3454.6066L13183.3099,-3454.4067L13183.2901,-3454.3865"/>
<path content="AP030,1,28,1,0,15,1,8,JPN" xlink:title="AP030" d="M13183.9493,-3454.0134L13185.3363,-3455.4729L13190.329,-3459.0534"/>
<path content="AP030,1,28,1,0,14,1,8,JPN" xlink:title="AP030" d="M13183.2901,-3454.3865L13183.4305,-3454.1931L13183.6105,-3454.0665L13183.7402,-3454.0264L13183.9493,-3454.0134"/>
<path content="AP030,1,28,1,0,15,1,8,JPN" xlink:title="AP030" d="M13207.5195,-3452.28L13209.0393,-3453.6755L13209.2163,-3453.5847L13209.082,-3452.8824L13208.9569,-3452.4925L13209.1644,-3452.5078L13209.3948,-3452.6978L13209.6634,-3452.9251L13209.5291,-3453.4L13210.1379,-3454.3446L13214.9185,-3459.3334"/>
<path content="AP030,1,28,1,0,14,1,8,JPN" xlink:title="AP030" d="M13201.68,-3457.2735L13201.9897,-3457.0934L13202.0401,-3457.0534L13202.0599,-3456.9466L13202.0798,-3456.8733L13202.0599,-3456.7467L13202.3605,-3456.1199L13202.3804,-3455.9532L13202.33,-3455.5599L13202.4002,-3455.4665L13202.5192,-3455.3467L13202.6306,-3455.0934L13202.6993,-3455.04L13203.2394,-3454.9465L13203.5599,-3454.9133L13203.6301,-3454.8931L13203.6804,-3454.8401L13203.6499,-3454.7665L13203.6499,-3454.7333L13203.7003,-3454.7134L13203.7704,-3454.7867L13203.7704,-3454.8931L13203.7201,-3454.9667L13203.6499,-3455.0198L13203.6301,-3455.1266L13203.6804,-3455.1468L13203.7903,-3455.0934L13204.0207,-3455.18L13204.0802,-3455.1666L13204.2404,-3455.0934L13204.2892,-3455.04L13204.3793,-3454.7867L13204.4495,-3454.7333L13204.5807,-3454.62L13204.6799,-3454.5864L13204.8798,-3454.5864L13204.9698,-3454.6398L13205.0201,-3454.66L13205.0797,-3454.66L13205.13,-3454.7665L13205.2399,-3454.8599L13205.2399,-3454.9667L13205.3604,-3455.0198L13205.4306,-3455.1266L13205.5405,-3455.1266L13205.5603,-3455.1468L13205.5801,-3455.3799L13205.6503,-3455.3799L13205.7907,-3455.3467L13205.9296,-3455.3799L13205.9692,-3455.36L13206.0394,-3455.2734L13206.0806,-3455.2532L13206.3095,-3455.2868L13206.3995,-3455.1998L13206.4697,-3455.18L13206.5796,-3455.1998L13206.7703,-3455.3066L13207.0206,-3455.2868L13207.1106,-3455.2868L13207.2403,-3455.3467L13207.4005,-3455.36L13207.4295,-3455.4333L13207.4005,-3455.5401L13207.5195,-3455.6534L13207.6096,-3455.7198L13207.7393,-3455.7598L13207.8995,-3455.9399L13208.0597,-3456.0799L13208.3099,-3456.2267L13208.4305,-3456.2466L13208.4305,-3456.2065L13208.3298,-3456.0799L13208.2901,-3455.9933L13208.1299,-3455.9734L13207.9895,-3455.8468L13207.9895,-3455.7198L13207.7698,-3455.6133L13207.7698,-3455.5401L13207.7896,-3455.4665L13207.8094,-3455.3799L13207.7896,-3455.3265L13207.6096,-3455.3467L13207.6096,-3455.2334L13207.5607,-3455.18L13207.2403,-3455.0732L13207.2205,-3455.0198L13207.2006,-3454.8931L13207.3105,-3454.8401L13207.4493,-3454.7466L13207.4707,-3454.7134L13207.4493,-3454.6932L13207.2403,-3454.6799L13207.0206,-3454.7333L13206.9504,-3454.7134L13206.8802,-3454.5864L13206.9305,-3454.5132L13206.9901,-3454.4399L13206.9901,-3454.3865L13206.9504,-3454.3331L13206.7902,-3454.3331L13206.7703,-3454.2999L13206.7902,-3454.2065L13206.6803,-3454.1199L13206.7703,-3453.9734L13206.7902,-3453.8998L13206.6498,-3453.8864L13206.6498,-3453.7197L13206.6101,-3453.7197L13206.5201,-3453.8334L13206.4499,-3453.8334L13206.4499,-3453.7731L13206.3599,-3453.7067L13206.3797,-3453.6133L13206.3797,-3453.5599L13206.3599,-3453.54L13206.2698,-3453.54L13206.1493,-3453.6667L13206.1096,-3453.6533L13206.1295,-3453.4332L13206.1996,-3453.2532L13206.2698,-3453.1998L13206.3293,-3453.2867L13206.3599,-3453.2867L13206.3797,-3453.1799L13206.4499,-3453.0933L13206.4499,-3452.8934L13206.5796,-3452.7664L13206.72,-3452.4998L13206.7703,-3452.4799L13207.0602,-3452.4799L13207.5195,-3452.28"/>
<path content="AP030,1,28,1,0,15,1,8,JPN" xlink:title="AP030" d="M13172.58,-3460.1612L13172.8836,-3459.4086L13172.6166,-3458.9752L13172.641,-3458.7597L13173.3826,-3458.2882L13173.2681,-3457.9163L13172.8287,-3457.2876L13172.2702,-3456.9061L13172.0901,-3456.8707L13172.0169,-3455.1914L13172.1573,-3454.6375L13172.3618,-3453.0453L13171.9727,-3452.0592L13171.3806,-3451.4923"/>
<path content="AP030,1,28,1,0,15,1,8,JPN" xlink:title="AP030" d="M13163.9359,-3455.1125L13164.769,-3454.7207L13165.7257,-3454.3816L13166.7862,-3454.5288L13167.4286,-3455.1212L13167.7429,-3455.3627L13168.0664,-3455.2792L13168.5532,-3454.9255L13168.5562,-3454.4262L13168.5089,-3454.3789L13168.544,-3453.5995L13168.6066,-3453.2784L13169.0933,-3452.9247L13170.1004,-3452.6108L13170.3873,-3452.1549L13170.5276,-3451.6006L13171.3806,-3451.4923"/>
<path content="AP030,1,28,1,0,14,1,8,JPN" xlink:title="AP030" d="M13157.4493,-3459.4334L13157.3593,-3459.3468L13157.3303,-3459.2533L13157.2906,-3459.1267L13157.2693,-3459.0534L13157.2403,-3458.7334L13157.0206,-3458.7132L13156.8802,-3458.68L13156.7703,-3458.5865L13156.6803,-3458.5865L13156.2897,-3458.6067L13156.1295,-3458.5335L13155.8105,-3458.4064L13155.7404,-3458.3534L13155.7007,-3458.1932L13155.6793,-3457.9201L13155.5801,-3457.7065L13155.4504,-3457.4333L13155.3299,-3457.3799L13155.2444,-3457.3746L13155.0201,-3457.3601L13154.8798,-3457.2334L13154.7195,-3457.0934L13154.4693,-3456.9267L13154.4006,-3456.8733L13154.2694,-3456.7665L13154.1504,-3456.6067L13153.9703,-3456.3534L13153.8101,-3456.1733L13153.4897,-3455.9532L13153.27,-3455.8666L13152.8595,-3455.7732L13152.7206,-3455.74L13152.5604,-3455.6133L13152.2202,-3455.4001L13152.0401,-3455.3467L13151.7197,-3455.3066L13151.6098,-3455.1998L13151.5396,-3454.8931L13151.4297,-3454.7665L13151.1993,-3454.6398L13151.0803,-3454.4399L13150.7202,-3454.0798L13150.65,-3453.8334L13150.6302,-3453.6533L13150.5798,-3453.4664L13150.3601,-3453.2532L13150.1297,-3453.1265L13149.5193,-3452.9465L13149.4217,-3452.8053L13149.3805,-3452.7466L13149.3103,-3452.6798L13148.8602,-3452.3731L13148.5794,-3452.1198L13148.4375,-3451.8204"/>
<path content="AP030,1,28,1,0,15,1,8,JPN" xlink:title="AP030" d="M13148.4375,-3450.757L13149.1348,-3450.6943L13149.9283,-3450.7324L13150.4883,-3450.9617L13151.4679,-3451.6113L13153.5826,-3452.948L13154.9786,-3453.6802L13156.341,-3454.9398L13156.9837,-3454.7855L13157.1122,-3454.1172L13157.6264,-3453.8344"/>
<path content="AP030,1,28,1,0,14,1,8,JPN" xlink:title="AP030" d="M13161.7905,-3454.9465L13161.3998,-3455.0198L13161.1099,-3455.04L13160.6094,-3455.2532L13160.4294,-3455.2734L13160.1105,-3455.1998L13159.8999,-3455.2334L13159.8297,-3455.22L13159.7702,-3455.1468L13160.08,-3454.7134L13160.0204,-3454.5334L13159.9899,-3454.2999L13159.8297,-3453.9734L13159.79,-3453.5934L13159.8099,-3453.4L13160.2707,-3453.0399L13160.5606,-3452.9667L13160.6796,-3452.84L13160.7407,-3452.6066L13160.7697,-3452.2465L13160.9541,-3451.9241"/>
<path content="AP030,1,28,1,0,15,1,8,JPN" xlink:title="AP030" d="M13157.6264,-3453.8344L13158.2176,-3453.6802L13158.9374,-3452.3691L13159.5543,-3451.7779L13160.197,-3451.7522L13160.9541,-3451.9241"/>
<path content="AP030,1,28,1,0,14,1,8,JPN" xlink:title="AP030" d="M13161.6806,-3450.3334L13162.0193,-3449.9401L13162.0804,-3449.6864L13162.2406,-3449.5068L13162.4298,-3449.3267L13162.6297,-3449.2867L13162.7701,-3449.2001L13163.3606,-3448.1533"/>
<path content="AP030,1,28,1,0,14,1,8,JPN" xlink:title="AP030" d="M13214.2197,-3448.3532L13214.4501,-3448.4066L13214.4897,-3448.46L13214.5798,-3448.6401L13214.65,-3448.6801L13214.7705,-3448.7331L13215.1794,-3448.9864L13215.3793,-3449.3267L13215.4694,-3449.4331L13215.6097,-3449.5068L13216.1102,-3449.72L13216.2704,-3449.8135L13216.4001,-3449.9199L13216.5207,-3450.1331L13216.8594,-3450.4066L13217.0197,-3450.6931L13217.1097,-3450.7866L13217.3294,-3450.8934L13217.4698,-3451.1066L13217.5201,-3451.2733L13217.5598,-3451.4133L13217.6804,-3451.5064L13218.1503,-3451.6666L13218.3105,-3451.8131L13218.5196,-3451.8665L13218.6295,-3451.9932L13218.6798,-3452.0664L13218.75,-3452.0822"/>
<path content="AP030,1,28,1,0,16,1,8,JPN" xlink:title="AP030" d="M13218.75,-3451.6095L13218.6493,-3451.58L13218.2693,-3451.3599L13218.0801,-3451.3268L13217.8101,-3451.1799L13217.7002,-3451.0399L13217.5201,-3450.7999L13217.3798,-3450.7332L13217.3294,-3450.6599L13217.1295,-3450.3864L13216.8793,-3450.2068L13216.7404,-3450.0668L13216.5802,-3449.8333L13216.4505,-3449.7066L13216.2903,-3449.58L13216.1102,-3449.5266L13215.9302,-3449.4667L13215.8096,-3449.3999L13215.6998,-3449.2535L13215.6998,-3449.1066L13215.7394,-3448.84L13215.7394,-3448.6935L13215.6296,-3448.5664L13215.4907,-3448.4402L13215.3107,-3448.3334L13215.2695,-3448.32L13215.1093,-3448.1201L13214.9902,-3448.0267L13214.9139,-3447.979"/>
<path content="AP030,1,28,1,0,14,1,8,JPN" xlink:title="AP030" d="M13214.2197,-3448.3532L13214.8605,-3448.0267L13214.9139,-3447.979"/>
<path content="AP030,1,28,1,0,14,1,8,JPN" xlink:title="AP030" d="M13211.7203,-3447.6334L13211.9293,-3447.7734L13212.2894,-3447.8664L13212.6495,-3448.0465L13213.3804,-3448.0133L13213.6093,-3448.0267L13214.2197,-3448.3532"/>
<path content="AP030,1,28,1,0,14,1,8,JPN" xlink:title="AP030" d="M13207.5195,-3452.28L13207.5607,-3452.2465L13207.5806,-3452.1L13207.7194,-3451.9531L13207.7393,-3451.9199L13207.8796,-3451.7597L13207.8995,-3451.7067L13208.0597,-3451.6335L13208.11,-3451.5266L13208.1299,-3451.5064L13208.2901,-3451.6335L13208.3298,-3451.6335L13208.4305,-3451.4866L13208.3801,-3451.3599L13208.4,-3451.3268L13208.5602,-3451.3466L13208.6304,-3451.3065L13208.6105,-3451.2531L13208.5205,-3451.1066L13208.6105,-3451.0201L13208.6502,-3450.8598L13208.8303,-3450.8198L13208.8593,-3450.6931L13208.7906,-3450.5665L13208.8806,-3450.2998L13208.9294,-3450.1732L13208.7692,-3450.0668L13208.7692,-3450.0134L13208.9706,-3449.9733L13209.1095,-3449.9199L13209.1293,-3449.8665L13209.1293,-3449.7398L13209.2194,-3449.58L13209.2194,-3449.5266L13209.1293,-3449.3801L13209.1095,-3449.2535L13209.1797,-3449.0398L13209.2697,-3448.9666L13209.4299,-3448.9666L13209.52,-3448.9132L13209.7702,-3448.6935L13209.8297,-3448.6198L13209.8999,-3448.5867L13210.1105,-3448.5134L13210.2402,-3448.3868L13210.2905,-3448.3734L13210.4004,-3448.4066L13210.6094,-3448.28L13210.8597,-3448.1533L13211.0199,-3447.9733L13211.1099,-3447.9733L13211.3297,-3448.0133L13211.4502,-3448.0133L13211.5799,-3447.9534L13211.5799,-3447.9401L13211.6501,-3447.8134L13211.7203,-3447.6334"/>
<path content="AP030,1,28,1,0,14,1,8,JPN" xlink:title="AP030" d="M13183.2901,-3454.3865L13183.2703,-3454.3865L13183.1802,-3454.3533L13183.11,-3454.2797L13183.0429,-3454.1702L13183.02,-3454.1332L13183.0399,-3454.0466L13183.0399,-3453.8864L13183.0399,-3453.7399L13182.9697,-3453.5267L13182.9697,-3453.1467L13182.8995,-3452.7866L13182.7698,-3452.5532L13182.6797,-3452.3335L13182.4295,-3451.8131L13182.2403,-3451.5934L13182.0404,-3451.2733L13181.7703,-3450.9132L13181.4499,-3450.3735L13181.1493,-3449.9931L13181.0196,-3449.7932L13180.9692,-3449.4534L13180.8594,-3449.1798L13180.6107,-3448.9666L13180.5801,-3448.9132L13180.4504,-3448.5332L13180.2399,-3448.3532L13180.0797,-3448.28L13179.9698,-3448.3002L13179.8599,-3448.28L13179.5197,-3448.0133L13179.2892,-3447.9198L13179.1794,-3447.9198L13179.0604,-3447.9534L13178.8803,-3448.0801L13178.6102,-3447.9198L13178.4897,-3447.8867L13178.4271,-3447.8134L13178.2898,-3447.6532L13178.1799,-3447.5933L13177.7695,-3447.4667L13177.6794,-3447.3999L13177.6489,-3447.3801"/>
<path content="AP030,1,28,1,0,16,1,8,JPN" xlink:title="AP030" d="M13211.6501,-3447.1729L13212.2406,-3447.3465L13212.3993,-3447.3999L13212.6999,-3447.5601L13212.8601,-3447.6334L13213.1104,-3447.6665L13213.5406,-3447.6665L13213.7695,-3447.7066L13214.2395,-3447.9198L13214.4699,-3447.9198L13214.7903,-3447.9L13214.9139,-3447.979"/>
<path content="AP030,1,28,1,0,14,1,8,JPN" xlink:title="AP030" d="M13211.7203,-3447.6334L13211.6501,-3447.5266L13211.6302,-3447.4133L13211.6501,-3447.3465L13211.6501,-3447.1729"/>
<path content="AP030,1,28,1,0,15,1,8,JPN" xlink:title="AP030" d="M13163.3606,-3448.1533L13164.1558,-3448.1276L13165.1947,-3448.1483L13165.8571,-3448.485L13166.3266,-3448.4392L13166.5557,-3448.1987L13166.9525,-3447.6757L13168.0084,-3447.1485"/>
<path content="AP030,1,28,1,0,15,1,8,JPN" xlink:title="AP030" d="M13166.9296,-3446.8403L13168.0084,-3447.1485"/>
<path content="AP030,1,28,1,0,14,1,8,JPN" xlink:title="AP030" d="M13163.3606,-3448.1533L13163.7894,-3447.5067L13164.4829,-3447.0649L13165.0784,-3446.9848L13165.7426,-3446.9275L13166.5604,-3447.1268L13166.9296,-3446.8403"/>
<path content="AP030,1,28,1,0,15,1,8,JPN" xlink:title="AP030" d="M13175.5585,-3445.554L13176.2299,-3445.6486L13176.5091,-3446.2132L13177.0813,-3446.8254L13177.1652,-3446.9151L13177.6489,-3447.3801"/>
<path content="AP030,1,28,1,0,15,1,8,JPN" xlink:title="AP030" d="M13171.3806,-3451.4923L13171.8292,-3450.7664L13172.2046,-3449.752L13174.118,-3448.5947L13174.707,-3447.5533L13174.8367,-3446.6286L13175.5753,-3446.1201L13175.5585,-3445.554"/>
<path content="AP030,1,28,1,0,16,1,8,JPN" xlink:title="AP030" d="M13211.6501,-3447.1729L13211.5601,-3447.1466L13211.3602,-3447.02L13210.9299,-3446.6064L13210.5194,-3446.3867L13210.2905,-3446.1334L13210.2005,-3445.9934L13210.0403,-3445.76L13209.6497,-3445.4865L13209.5398,-3445.3266L13209.5263,-3445.3125"/>
<path content="AP030,1,28,1,0,14,1,8,JPN" xlink:title="AP030" d="M13177.6489,-3447.3801L13177.6505,-3447.2198L13177.7695,-3446.9666L13177.8107,-3446.8601L13177.6993,-3446.6801L13177.6794,-3446.5L13177.5803,-3446.1933L13177.4307,-3445.9934L13177.4307,-3445.7932L13177.2903,-3445.6532L13177.2903,-3445.5799L13177.2775,-3445.3125"/>
<path content="AP030,1,28,1,0,14,1,8,JPN" xlink:title="AP030" d="M13214.9139,-3447.979L13215.0192,-3447.8867L13215.1505,-3447.7066L13215.1505,-3447.4667L13215.1993,-3447.4133L13215.4007,-3447.3064L13215.4694,-3446.9868L13215.5197,-3446.7667L13215.6097,-3446.6934L13215.6799,-3446.5534L13215.7196,-3446.5534L13215.7394,-3446.5668L13215.8295,-3446.8399L13216.0599,-3446.9868L13216.3101,-3447.1664L13216.5405,-3447.3999L13216.5802,-3447.3999L13216.6794,-3447.3598L13216.8594,-3447.3598L13216.8594,-3447.4865L13216.9296,-3447.5601L13216.9693,-3447.5933L13217.0593,-3447.5399L13217.0593,-3447.5067L13217.1295,-3447.2733L13217.1295,-3447.1268L13217.2699,-3446.9868L13217.3798,-3446.9666L13217.3996,-3446.9131L13217.3599,-3446.8201L13217.3996,-3446.5134L13217.54,-3446.1201L13217.6498,-3446.0667L13217.7902,-3445.9L13218.0801,-3445.8466L13218.2907,-3445.7199L13218.4006,-3445.7401L13218.4906,-3445.7199L13218.5196,-3445.6867L13218.5394,-3445.6135L13218.5394,-3445.5799L13218.4494,-3445.4666L13218.4494,-3445.4132L13218.5394,-3445.3602L13218.5394,-3445.3125"/>
<path content="AP030,1,28,1,0,15,1,8,JPN" xlink:title="AP030" d="M13168.0084,-3447.1485L13168.8675,-3447.4533L13169.6548,-3447.2099L13169.6747,-3446.5595L13170.8413,-3445.3125M13175.1977,-3445.3125L13175.5585,-3445.554"/>
<path content="AP030,1,28,1,0,14,1,8,JPN" xlink:title="AP030" d="M13211.6501,-3447.1729L13211.6501,-3447.0001L13211.6302,-3446.9265L13211.3098,-3446.6801L13211.2198,-3446.6064L13210.5392,-3446.0464L13210.4294,-3445.8668L13210.2707,-3445.8134L13210.2005,-3445.7199L13210.1105,-3445.4865L13209.8999,-3445.4132L13209.8668,-3445.3125"/>
<path content="AP030,1,28,1,0,14,1,8,JPN" xlink:title="AP030" d="M13166.9296,-3446.8403L13167.2897,-3446.5L13167.3599,-3446.3734L13167.3599,-3446.0464L13167.5797,-3445.6135L13167.6498,-3445.4533L13167.6498,-3445.3266L13167.6407,-3445.3125"/>
<path content="AP030,1,28,1,0,15,1,8,JPN" xlink:title="AP030" d="M13163.3606,-3448.1533L13162.7067,-3448.1747L13161.8375,-3447.878L13160.8869,-3447.168L13160.28,-3446.332L13160.2227,-3445.4044L13160.1388,-3445.3125"/>
<path content="AP030,1,28,1,0,15,1,8,JPN" xlink:title="AP030" d="M13178.1896,-3445.3125L13178.4302,-3445.5799L13178.5492,-3445.8317L13179.0955,-3445.752L13179.808,-3445.4823L13180.2917,-3445.9641L13181.3934,-3445.7241L13181.6833,-3445.7458L13181.9936,-3445.3125"/>
<path content="AP030,1,28,1,0,15,1,8,JPN" xlink:title="AP030" d="M13157.6264,-3453.8344L13157.164,-3453.598L13156.0005,-3452.2169L13155.8783,-3450.7496L13155.21,-3449.7728L13154.156,-3447.9733L13153.4105,-3447.742L13152.7164,-3447.3821L13152.9478,-3446.7651L13153.102,-3445.7112L13152.4096,-3445.3125"/>
<path content="AP030,1,28,1,0,15,1,8,JPN" xlink:title="AP030" d="M13201.68,-3457.2735L13201.68,-3457.2731L13200.4776,-3455.341L13200.2899,-3454.8187L13200.3922,-3454.2019L13199.7528,-3453.4576L13199.4659,-3452.8637L13199.556,-3452.4204L13199.8642,-3451.8894L13200.4013,-3451.1681L13200.0687,-3450.3819L13199.8383,-3449.4301L13200.2884,-3448.737L13200.8087,-3448.568L13200.9766,-3447.7844L13200.9995,-3447.5784L13199.8901,-3446.2502L13199.1653,-3445.9885L13198.6771,-3446.6446L13198.0103,-3446.6293L13198.024,-3446.1113L13197.67,-3445.9118L13196.2753,-3445.6696L13195.8399,-3445.3125"/>
<path content="AP030,1,28,1,0,14,1,8,JPN" xlink:title="AP030" d="M13183.9493,-3454.0134L13183.9706,-3453.9398L13184.1507,-3453.7399L13184.5795,-3453.5267L13184.79,-3453.4134L13185.1105,-3453.2867L13185.2005,-3453.2532L13185.3806,-3453.2867L13185.5194,-3453.3466L13185.5804,-3453.3466L13185.6995,-3453.2867L13186.1298,-3453.1265L13186.2396,-3453.0933L13186.5402,-3452.9999L13186.6104,-3452.9667L13186.7401,-3452.8732L13186.8805,-3452.8599L13186.9904,-3452.7866L13187.0605,-3452.6932L13187.1094,-3452.3731L13187.1307,-3452.1198L13187.2192,-3451.8867L13187.2192,-3451.8131L13187.1094,-3451.5598L13186.9293,-3451.2733L13186.8607,-3451.2199L13186.6104,-3451.1997L13186.5402,-3451.1799L13186.29,-3450.9666L13186.2,-3450.9266L13186.1496,-3450.8732L13186.0794,-3450.7866L13186.0596,-3450.7465L13186.0794,-3450.6397L13186.3602,-3450.2464L13186.5402,-3449.9401L13186.6302,-3449.9401L13186.7203,-3449.9001L13186.7401,-3449.8466L13186.7401,-3449.7932L13186.6501,-3449.5399L13187.0193,-3449.1665L13187.0193,-3449.1264L13186.7203,-3448.8934L13186.5601,-3448.5664L13186.4502,-3448.2468L13186.4899,-3448.1934L13186.5799,-3448.1934L13186.6806,-3448.1533L13186.8607,-3448.0667L13187.0804,-3448.0465L13187.2192,-3447.9935L13187.3306,-3447.8134L13187.3596,-3447.6868L13187.3306,-3447.5601L13187.2696,-3447.4335L13186.9507,-3447.2198L13186.9003,-3447.1664L13186.9003,-3447.0932L13187.0193,-3446.7133L13187.0193,-3446.6064L13186.8103,-3446.4802L13186.7203,-3446.3867L13186.6501,-3445.9934L13186.6104,-3445.9202L13186.3297,-3445.8134L13186.1801,-3445.5601L13186.1298,-3445.4334L13186.1099,-3445.3602L13186.1099,-3445.3125"/>
<path content="AP030,1,28,1,0,14,1,8,JPN" xlink:title="AP030" d="M13160.9541,-3451.9241L13161.0596,-3451.7399L13161.0794,-3451.6865L13161.3998,-3451.1467L13161.47,-3451.0933L13161.6302,-3450.9865L13161.6302,-3450.7465L13161.6302,-3450.6397L13161.6806,-3450.3334"/>
<path content="AP030,1,28,1,0,14,1,8,JPN" xlink:title="AP030" d="M13202.8107,-3486.5868L13202.7206,-3486.4597L13202.5406,-3486.2465L13202.5192,-3486.0664L13202.3605,-3485.8467L13202.1805,-3485.7201L13202.0203,-3485.6865L13201.9302,-3485.7067L13201.6998,-3485.5064L13201.4297,-3485.22L13201.2894,-3485.0933L13201.2695,-3485.0399L13201.1993,-3484.9266L13201.1505,-3484.6931L13201.1093,-3484.5867L13201.0803,-3484.4799L13200.9705,-3484.4067L13200.7004,-3484.3533L13200.5798,-3484.28L13200.4303,-3484.1534L13200.2899,-3484.0797L13200.2197,-3484.0466L13199.9893,-3483.9931L13199.9298,-3483.9531L13199.8795,-3483.773L13199.8093,-3483.6533L13199.6994,-3483.58L13199.6796,-3483.5598L13199.6094,-3483.4866L13199.6094,-3483.4L13199.5193,-3483.3267L13199.3805,-3483.3267L13199.2905,-3483.2733L13199.2706,-3483.2199L13199.2401,-3482.9865L13199.0204,-3482.6401L13198.79,-3482.46L13198.5199,-3482.3734L13198.2697,-3482.3734L13198.1293,-3482.32L13197.8302,-3482.0667L13197.7005,-3482.0133L13197.6303,-3481.8134L13197.6303,-3481.6132L13197.4899,-3481.3999L13197.4899,-3481.2L13197.4503,-3481.02L13197.4304,-3480.6065L13197.3602,-3480.5332L13197.1802,-3480.46L13197.0795,-3480.2799L13197.02,-3480.1201L13197.02,-3479.9934L13197.02,-3479.8866L13196.9498,-3479.8134L13196.8994,-3479.76L13196.8994,-3479.6131L13196.8307,-3479.5067L13196.5393,-3479.3266L13196.4294,-3479.1664L13196.3104,-3479.0199L13196.3303,-3478.9467L13196.4493,-3478.82L13196.4493,-3478.3531L13196.4493,-3478.2997L13196.4294,-3478.2265L13196.4294,-3478.2253"/>
</g>
</svg>
