<?xml version="1.0" encoding="UTF-8"?>
<svg  xmlns="http://www.w3.org/2000/svg" xmlns:xlink="http://www.w3.org/1999/xlink" xmlns:go="http://purl.org/svgmap/profile" property="f_code,acc,exs,rst,med,rtt,RSU,loc,soc" viewBox="13921.875 -3656.25 35.15625 35.15625" go:dataArea="13921.875 -3656.25 35.15625 35.15625" >
<metadata>
 <rdf:RDF xmlns:rdf="http://www.w3.org/1999/02/22-rdf-syntax-ns#" xmlns:crs="http://opengis.org/xmldtds/transformations.dtd" xmlns:svg="http://www.w3.org/svg" >
  <rdf:Description>
   <crs:CoordinateReferenceSystem rdf:resource="http://purl.org/crs/84" svg:transform="matrix(100.0,0.0,0.0,-100.0,0.0,0.0)" />
  </rdf:Description>
 </rdf:RDF>
</metadata>
<globalCoordinateSystem srsName="http://purl.org/crs/84" transform="matrix(100.0,0.0,0.0,-100.0,0.0,0.0)" />
<defs>
 <g id="p0" >
  <circle cx="0.0" cy="0.0" r="3" stroke="green" stroke-width="2.0" vector-effect="non-scaling-stroke" />
 </g>
</defs>
<g fill="none" fill-rule="evenodd" stroke="#00ff00" stroke-width="2" opacity="0.5" vector-effect="non-scaling-stroke" stroke-linejoin="bevel" >
<path content="AP030,1,28,1,0,15,1,8,JPN" xlink:title="AP030" d="M13923.8478,-3656.25L13924.0631,-3655.7655L13924.3683,-3655.0152L13925.1831,-3654.3484L13925.5905,-3653.6816L13925.0809,-3652.8481L13925.4883,-3652.2648L13925.7935,-3651.0979"/>
<path content="AP030,1,28,1,0,15,1,8,JPN" xlink:title="AP030" d="M13921.875,-3652.7017L13925.7935,-3651.0979"/>
<path content="AP030,1,28,1,0,15,1,8,JPN" xlink:title="AP030" d="M13956.666,-3656.25L13956.8527,-3656.1821L13957.0312,-3655.8522"/>
<path content="AP030,1,28,1,0,14,1,8,JPN" xlink:title="AP030" d="M13937.5614,-3656.25L13937.5397,-3656.2065L13937.5397,-3656.1333L13937.4496,-3656.0135L13937.4496,-3655.9399L13937.4893,-3655.7068L13937.4695,-3655.6866L13937.3093,-3655.6667L13937.2696,-3655.5798L13937.2696,-3655.5267L13937.2894,-3655.4531L13937.1994,-3655.1998L13937.1994,-3655.1666L13937.2192,-3655.0198L13937.1994,-3654.8733L13937.1994,-3654.8L13937.1506,-3654.7665L13937.0605,-3654.7466L13936.9904,-3654.6932L13936.9904,-3654.5334L13936.8607,-3654.4266L13936.8607,-3654.3533L13936.9003,-3654.2599L13936.9003,-3654.1931L13936.8301,-3654.1733L13936.6806,-3654.2065L13936.5601,-3654.1931L13936.4899,-3654.2065L13936.4304,-3654.2797L13936.38,-3654.2797L13936.3297,-3654.2599L13936.29,-3654.1931L13936.2701,-3654.1332L13936.1496,-3654.1534L13935.9695,-3654.1199L13935.6506,-3654.1332L13935.1105,-3653.9932L13934.9899,-3653.9932L13934.61,-3654.0264L13934.4696,-3654.0466L13934.2407,-3653.9734L13934.0607,-3653.9532L13933.9706,-3653.8998L13933.9294,-3653.8864L13933.8303,-3653.7933L13933.6807,-3653.7197L13933.6304,-3653.7197L13933.3801,-3653.6667L13933.2397,-3653.5934L13933.1802,-3653.4866L13933.1299,-3653.3264L13933.02,-3653.2532L13932.8995,-3653.1998L13932.7896,-3653.1998L13932.5806,-3653.22L13932.2693,-3653.1067L13932.0602,-3653.0533L13931.9,-3652.8934L13931.72,-3652.7664L13931.3599,-3652.7664L13931.2698,-3652.7466L13931.1295,-3652.6066L13931.0394,-3652.5665L13930.8807,-3652.4998L13930.7404,-3652.3533L13930.4306,-3652.2064L13930.1498,-3651.9398L13930.1102,-3651.7399L13929.9301,-3651.5934L13929.8294,-3651.4534L13929.6799,-3651.3065L13929.4495,-3651.1665L13929.4006,-3651.0399L13929.4006,-3650.7465L13929.3793,-3650.6599L13929.2404,-3650.4066L13929.1107,-3650.2602L13928.9703,-3650.1934L13928.7903,-3650.1202L13928.7201,-3650.1202L13928.4897,-3650.1331L13928.1097,-3650.2068L13927.9297,-3650.2068L13927.7206,-3650.1534L13927.5192,-3650.0668L13927.4506,-3649.9401L13927.4002,-3649.8333L13927.4002,-3649.6334L13927.4307,-3649.58L13927.4506,-3649.4133L13927.3804,-3649.2332"/>
<path content="AP030,1,28,1,0,15,1,8,JPN" xlink:title="AP030" d="M13925.7935,-3651.0979L13926.3031,-3650.5146L13927.3804,-3649.2332"/>
<path content="AP030,1,28,1,0,15,1,8,JPN" xlink:title="AP030" d="M13947.9553,-3654.9118L13948.2697,-3654.2839L13948.819,-3653.8532L13948.5901,-3653.2669L13948.8419,-3652.7351L13948.6069,-3652.3922L13948.9136,-3652.1042L13949.2233,-3651.6705L13949.2294,-3651.379L13949.6536,-3651.2386L13949.6017,-3650.8003L13949.855,-3650.1228L13950.1663,-3649.6407L13949.939,-3648.9571"/>
<path content="AP030,1,28,1,0,15,1,8,JPN" xlink:title="AP030" d="M13949.939,-3648.9571L13949.8291,-3648.3723L13949.6552,-3648.0301L13949.1226,-3647.5857L13948.7717,-3647.0463L13948.7183,-3646.7056L13948.4146,-3646.7987L13948.056,-3646.6972L13947.1802,-3645.3247"/>
<path content="AP030,1,28,1,0,14,1,8,JPN" xlink:title="AP030" d="M13921.875,-3646.6801L13921.8796,-3646.6801L13922.0596,-3646.6934L13922.1497,-3646.6202L13922.2397,-3646.4268L13922.29,-3646.1334L13922.4503,-3645.8332L13922.2,-3645.6135L13922.1497,-3645.5265L13922.2,-3644.9265"/>
<path content="AP030,1,28,1,0,15,1,8,JPN" xlink:title="AP030" d="M13943.9316,-3645.2339L13944.3588,-3644.9478L13944.722,-3644.8555L13946.1563,-3645.3602L13947.1802,-3645.3247"/>
<path content="AP030,1,28,1,0,15,1,8,JPN" xlink:title="AP030" d="M13921.875,-3644.7828L13922.2,-3644.9265"/>
<path content="AP030,1,28,1,0,15,1,8,JPN" xlink:title="AP030" d="M13949.7763,-3656.25L13949.8611,-3656.1028L13950.5371,-3655.4306L13950.9811,-3654.2206L13951.5289,-3653.936L13951.5411,-3653.3039L13952.0828,-3653.3108L13952.0905,-3652.9221L13952.0432,-3652.2408L13952.1286,-3650.9293L13952.4506,-3649.8634L13953.5995,-3649.5861L13954.5197,-3648.6252L13955.3909,-3647.1287L13956.4987,-3645.8294L13957.0312,-3645.4624"/>
<path content="AP030,1,28,1,0,14,1,8,JPN" xlink:title="AP030" d="M13927.3804,-3649.2332L13927.3605,-3649.1798L13927.24,-3649.1665L13926.9897,-3649.1467L13926.86,-3649.1264L13926.6495,-3649.0532L13926.5396,-3648.9468L13926.3596,-3648.84L13926.2894,-3648.7465L13926.1993,-3648.5867L13926.1307,-3648.46L13926.0193,-3648.3734L13925.8301,-3648.2265L13925.7004,-3648.0999L13925.5798,-3647.9733L13925.56,-3647.8664L13925.5798,-3647.3801L13925.5798,-3647.2733L13925.5402,-3647.0402L13925.5402,-3646.9265L13925.56,-3646.8933L13925.6302,-3646.7464L13925.6302,-3646.6064L13925.65,-3646.3333L13925.7401,-3646.1735L13925.8804,-3646.0266L13926.0605,-3645.9L13926.2207,-3645.8134L13926.2405,-3645.76L13926.2695,-3645.6333L13926.4694,-3645.38L13926.5198,-3645.3068L13926.6495,-3645.2332L13926.7395,-3645.0932L13927.0203,-3644.9867L13927.3605,-3644.8601L13927.4307,-3644.8002L13927.4506,-3644.5866L13927.5192,-3644.4401L13927.6306,-3644.2467L13927.6505,-3644.08L13927.4902,-3643.6665L13927.4902,-3643.6134L13927.4506,-3643.3468L13927.4704,-3643.1999L13927.4704,-3643.1267L13927.4902,-3642.9466"/>
<path content="AP030,1,28,1,0,14,1,8,JPN" xlink:title="AP030" d="M13922.2,-3644.9265L13922.3999,-3644.8933L13922.4701,-3644.8734L13922.6807,-3644.7468L13922.8104,-3644.7666L13922.9904,-3644.7865L13923.1796,-3644.7468L13923.6496,-3644.5534L13923.8297,-3644.5332L13923.8998,-3644.4599L13923.9899,-3644.2799L13924.2004,-3644.3199L13924.2905,-3644.3001L13924.4904,-3644.1532L13925.0595,-3644.1002L13925.7004,-3643.8667L13925.7904,-3643.7935L13925.9003,-3643.5932L13926.1307,-3643.2732L13926.1795,-3643.2533L13926.3794,-3643.3067L13926.5198,-3643.2865L13926.6098,-3643.2335L13926.7395,-3643.1267L13927.24,-3643L13927.2903,-3642.9867L13927.4902,-3642.9466"/>
<path content="AP030,1,28,1,0,14,1,8,JPN" xlink:title="AP030" d="M13927.4902,-3642.9466L13927.5192,-3642.82L13927.7695,-3642.7868L13928.2394,-3642.6933"/>
<path content="AP030,1,28,1,0,15,1,8,JPN" xlink:title="AP030" d="M13928.2394,-3642.6933L13928.2394,-3642.5694"/>
<path content="AP030,1,28,1,0,15,1,8,JPN" xlink:title="AP030" d="M13926.6083,-3641.8461L13928.035,-3642.5865L13928.2394,-3642.6933"/>
<path content="AP030,1,28,1,0,15,1,8,JPN" xlink:title="AP030" d="M13925.8957,-3641.4295L13926.6083,-3641.8461"/>
<path content="AP030,1,28,1,0,15,1,8,JPN" xlink:title="AP030" d="M13947.1802,-3645.3247L13947.551,-3644.8433L13948.5229,-3644.3207L13949.2844,-3642.2886L13949.6048,-3641.2716"/>
<path content="AP030,1,28,1,0,15,1,8,JPN" xlink:title="AP030" d="M13921.875,-3640.7499L13923.1461,-3641.5127L13924.1638,-3641.5127L13925.8957,-3641.4295"/>
<path content="AP030,1,28,1,0,15,1,8,JPN" xlink:title="AP030" d="M13921.875,-3641.2991L13922.0947,-3640.8821L13921.875,-3640.7501"/>
<path content="AP030,1,28,1,0,15,1,8,JPN" xlink:title="AP030" d="M13928.2394,-3642.5694L13928.2379,-3641.013L13928.45,-3639.3066"/>
<path content="AP030,1,28,1,0,15,1,8,JPN" xlink:title="AP030" d="M13928.2394,-3642.5694L13929.1046,-3640.786L13929.6616,-3639.5485L13929.7699,-3639.3066"/>
<path content="AP030,1,28,1,0,14,1,8,JPN" xlink:title="AP030" d="M13928.45,-3639.3066L13929.0604,-3639.4665L13929.1504,-3639.4531L13929.4037,-3639.3841L13929.5395,-3639.3467L13929.7699,-3639.3066"/>
<path content="AP030,1,28,1,0,14,1,8,JPN" xlink:title="AP030" d="M13929.7699,-3639.3066L13930.4306,-3639.1998L13931.3553,-3638.7745L13931.5598,-3638.6799L13931.7703,-3638.6398"/>
<path content="AP030,1,28,1,0,14,1,8,JPN" xlink:title="AP030" d="M13928.2394,-3642.6933L13928.3997,-3642.68L13928.7399,-3642.5533L13929.2892,-3642.5533L13929.9805,-3642.3065L13930.1102,-3642.26L13930.1498,-3642.2466L13930.2704,-3642.1932L13930.6503,-3641.8331L13930.7007,-3641.7934L13931.2393,-3641.4867L13931.0989,-3641.3536L13930.8594,-3641.1266L13931.3934,-3640.7314L13931.4377,-3640.6986L13931.4896,-3640.6601L13931.72,-3640.3732L13931.8604,-3640.1932L13932.4005,-3639.6332L13933.3801,-3638.7333L13933.4503,-3638.6398"/>
<path content="AP030,1,28,1,0,14,1,8,JPN" xlink:title="AP030" d="M13931.7703,-3638.6398L13933.4503,-3638.6398"/>
<path content="AP030,1,28,1,0,14,1,8,JPN" xlink:title="AP030" d="M13925.6104,-3638.1199L13925.7706,-3638.1535L13926.4893,-3638.3533L13926.5793,-3638.3732L13926.7395,-3638.4266L13926.8097,-3638.4602L13927.9907,-3639.2864L13928.0594,-3639.2864L13928.4302,-3639.3066L13928.45,-3639.3066"/>
<path content="AP030,1,28,1,0,15,1,8,JPN" xlink:title="AP030" d="M13926.6083,-3641.8461L13926.1078,-3640.5785L13925.6104,-3638.1199"/>
<path content="AP030,1,28,1,0,15,1,8,JPN" xlink:title="AP030" d="M13923.1506,-3637.8334L13925.8957,-3641.4295"/>
<path content="AP030,1,28,1,0,14,1,8,JPN" xlink:title="AP030" d="M13923.1506,-3637.8334L13923.4894,-3637.7934L13923.8998,-3637.7934L13924.4293,-3637.8334L13924.4705,-3637.8334L13925.6104,-3638.1199"/>
<path content="AP030,1,28,1,0,15,1,8,JPN" xlink:title="AP030" d="M13930.6458,-3637.7686L13931.7703,-3638.6398"/>
<path content="AP030,1,28,1,0,15,1,8,JPN" xlink:title="AP030" d="M13929.7699,-3639.3066L13930.6458,-3637.7686"/>
<path content="AP030,1,28,1,0,14,1,8,JPN" xlink:title="AP030" d="M13921.875,-3637.6003L13922.2397,-3637.6331L13922.7905,-3637.7602L13923.1506,-3637.8334"/>
<path content="AP030,1,28,1,0,15,1,8,JPN" xlink:title="AP030" d="M13929.5609,-3636.9286L13930.6458,-3637.7686"/>
<path content="AP030,1,28,1,0,15,1,8,JPN" xlink:title="AP030" d="M13928.45,-3639.3066L13928.6407,-3638.8981L13929.5609,-3636.9286"/>
<path content="AP030,1,28,1,0,15,1,8,JPN" xlink:title="AP030" d="M13949.6048,-3641.2716L13951.1276,-3640.2699L13951.7944,-3639.9864L13952.5162,-3639.9956L13953.4302,-3639.3745L13953.804,-3638.6986L13955.0812,-3637.9364L13956.5796,-3636.7466"/>
<path content="AP030,1,28,1,0,15,1,8,JPN" xlink:title="AP030" d="M13949.939,-3648.9571L13950.7477,-3647.6063L13951.3077,-3646.6408L13952.9556,-3645.4456L13954.2404,-3644.2947L13954.0161,-3643.417L13954.8096,-3642.8432L13956.5109,-3641.8915L13957.0313,-3641.0371"/>
<path content="AP030,1,28,1,0,14,1,8,JPN" xlink:title="AP030" d="M13956.5796,-3636.7466L13957.0312,-3636.7395"/>
<path content="AP030,1,28,1,0,14,1,8,JPN" xlink:title="AP030" d="M13954.1504,-3636.2801L13954.4296,-3636.2999L13954.6097,-3636.2999L13954.6494,-3636.2999L13955.1102,-3636.2801L13955.4901,-3636.2801L13955.7404,-3636.3335L13955.8807,-3636.3865L13955.9296,-3636.4067L13956.0593,-3636.4799L13956.1295,-3636.5334L13956.5796,-3636.7466"/>
<path content="AP030,1,28,1,0,15,1,8,JPN" xlink:title="AP030" d="M13943.9316,-3645.2339L13944.133,-3644.2158L13944.0247,-3643.631L13943.2007,-3642.7448L13943.6417,-3641.7297L13943.1885,-3640.3141L13941.7297,-3638.1073L13939.7339,-3635.7956"/>
<path content="AP030,1,28,1,0,15,1,8,JPN" xlink:title="AP030" d="M13939.7339,-3635.7956L13939.0747,-3636.2366L13937.5992,-3637.2253L13936.5097,-3638.0531L13935.7849,-3638.6047L13935.4004,-3638.8966L13935.3134,-3638.9957L13934.5993,-3639.8094L13934.1843,-3640.5216L13934.1721,-3640.5426L13934.0378,-3640.7738L13934.4406,-3641.6546L13936.4288,-3644.3069L13936.8942,-3645.0912L13937.9745,-3645.203L13939.9261,-3646.8826L13941.4169,-3647.583L13942.2623,-3647.4483L13943.1915,-3646.1479L13943.9316,-3645.2339"/>
<path content="AP030,1,28,1,0,15,1,8,JPN" xlink:title="AP030" d="M13923.1506,-3637.8334L13922.3541,-3636.4517L13922.1771,-3635.5824L13921.8974,-3635.3561"/>
<path content="AP030,1,28,1,0,16,1,8,JPN" xlink:title="AP030" d="M13921.875,-3635.3559L13921.8974,-3635.3561"/>
<path content="AP030,1,28,1,0,15,1,8,JPN" xlink:title="AP030" d="M13921.8974,-3635.3561L13921.875,-3635.3379"/>
<path content="AP030,1,28,1,0,15,1,8,JPN" xlink:title="AP030" d="M13925.6104,-3638.1199L13925.8316,-3637.0922L13925.8865,-3636.8332L13925.5508,-3635.9646L13924.9588,-3635.0925L13924.9317,-3635.0065"/>
<path content="AP030,1,28,1,0,16,1,8,JPN" xlink:title="AP030" d="M13921.8974,-3635.3561L13922.0514,-3635.3572L13922.6859,-3635.3572L13923.27,-3635.354L13923.97,-3635.325L13924.65,-3635.111L13924.9317,-3635.0065"/>
<path content="AP030,1,28,1,0,15,1,8,JPN" xlink:title="AP030" d="M13929.5609,-3636.9286L13929.599,-3634.6383"/>
<path content="AP030,1,28,1,0,15,1,8,JPN" xlink:title="AP030" d="M13926.0627,-3634.5929L13929.5609,-3636.9286"/>
<path content="AP030,1,28,1,0,16,1,8,JPN" xlink:title="AP030" d="M13924.9317,-3635.0065L13925.75,-3634.703L13926.0627,-3634.5929"/>
<path content="AP030,1,28,1,0,15,1,8,JPN" xlink:title="AP030" d="M13930.6458,-3637.7686L13931.0272,-3636.6192L13931.6666,-3635.9104L13932.4051,-3635.0922L13932.9503,-3634.4885"/>
<path content="AP030,1,28,1,0,16,1,8,JPN" xlink:title="AP030" d="M13929.599,-3634.6383L13929.82,-3634.645L13931.06,-3634.655L13932.61,-3634.577L13932.9503,-3634.4885"/>
<path content="AP030,1,28,1,0,16,1,8,JPN" xlink:title="AP030" d="M13926.0627,-3634.5929L13926.44,-3634.46L13926.78,-3634.421L13927.75,-3634.528L13928.87,-3634.616L13929.599,-3634.6383"/>
<path content="AP030,1,28,1,0,15,1,8,JPN" xlink:title="AP030" d="M13949.6048,-3641.2716L13949.2599,-3640.3175L13948.909,-3640.0249L13949.0173,-3639.6976L13948.5672,-3639.2807L13948.2208,-3638.8237L13948.1384,-3637.8357L13948.0042,-3636.8473L13947.2107,-3635.8089L13945.7199,-3634.2266"/>
<path content="AP030,1,28,1,0,14,1,8,JPN" xlink:title="AP030" d="M13945.7199,-3634.2266L13946.3806,-3634.0801L13946.5805,-3634.1534L13946.6507,-3634.1732L13946.8796,-3634.2464L13947.1802,-3634.4067L13947.3297,-3634.3864L13947.58,-3634.6802L13947.7203,-3634.8598L13948.0606,-3635.22L13948.3307,-3635.4534L13948.5596,-3635.6133L13948.7701,-3635.7067L13948.88,-3635.7601L13949.0601,-3635.7735L13949.1302,-3635.7601L13949.2401,-3635.6865L13949.3301,-3635.6335L13949.6307,-3635.36L13949.7696,-3635.2001L13949.8993,-3635.1799L13949.9893,-3635.1265L13950.0198,-3634.9998L13950.0793,-3634.8934L13950.1801,-3634.8202L13950.3601,-3634.8L13950.3998,-3634.8L13950.56,-3634.7668L13950.7706,-3634.7866L13950.8606,-3634.8L13950.9293,-3634.8L13951.0406,-3634.84L13951.2695,-3634.9998L13951.3794,-3635.0735L13951.5396,-3635.1265L13951.68,-3635.2531L13951.8097,-3635.3065L13952.0599,-3635.36L13952.3804,-3635.4134L13953.1494,-3635.8334L13953.3295,-3635.92L13954.0207,-3636.2465L13954.1504,-3636.2801"/>
<path content="AP030,1,28,1,0,15,1,8,JPN" xlink:title="AP030" d="M13924.5941,-3633.9344L13925.6912,-3634.3449L13926.0627,-3634.5929"/>
<path content="AP030,1,28,1,0,15,1,8,JPN" xlink:title="AP030" d="M13924.9317,-3635.0065L13924.5941,-3633.9344"/>
<path content="AP030,1,28,1,0,14,1,8,JPN" xlink:title="AP030" d="M13933.4503,-3638.6398L13934.1797,-3638.0264L13934.3796,-3637.8666L13935.2005,-3637.2334L13935.3806,-3637.2334L13935.6995,-3637.1265L13936.4502,-3636.6199L13936.6501,-3636.4799L13936.7706,-3636.4265L13936.9904,-3636.2465L13937.3093,-3635.8868L13937.7197,-3635.3466L13938.1302,-3634.7668L13938.1302,-3634.7466L13938.2401,-3634.6066L13938.3804,-3634.4067L13938.8596,-3633.8467L13938.8794,-3633.8333"/>
<path content="AP030,1,28,1,0,15,1,8,JPN" xlink:title="AP030" d="M13944.6075,-3633.7963L13942.7094,-3634.2308L13942.1143,-3634.3128L13941.745,-3634.3639L13940.2344,-3635.4393L13939.7339,-3635.7956"/>
<path content="AP030,1,28,1,0,14,1,8,JPN" xlink:title="AP030" d="M13945.7199,-3634.2266L13945.5795,-3633.9001L13945.4895,-3633.6864"/>
<path content="AP030,1,28,1,0,15,1,8,JPN" xlink:title="AP030" d="M13945.4895,-3633.6864L13944.6075,-3633.7963"/>
<path content="AP030,1,28,1,0,15,1,8,JPN" xlink:title="AP030" d="M13935.4971,-3633.4977L13936.2244,-3633.6487L13938.8794,-3633.8333"/>
<path content="AP030,1,28,1,0,16,1,8,JPN" xlink:title="AP030" d="M13932.9503,-3634.4885L13933.51,-3634.343L13934.47,-3633.926L13935.4971,-3633.4977"/>
<path content="AP030,1,28,1,0,15,1,8,JPN" xlink:title="AP030" d="M13923.1094,-3633.3801L13924.5941,-3633.9344"/>
<path content="AP030,1,28,1,0,14,1,8,JPN" xlink:title="AP030" d="M13921.875,-3635.0039L13922.1802,-3634.6802L13922.3297,-3634.4799L13922.4701,-3634.3201L13922.4991,-3634.2789L13922.8104,-3633.8333L13923.0194,-3633.5266L13923.1094,-3633.3801"/>
<path content="AP030,1,28,1,0,15,1,8,JPN" xlink:title="AP030" d="M13945.4895,-3633.6864L13946.6599,-3633.3115"/>
<path content="AP030,1,28,1,0,15,1,8,JPN" xlink:title="AP030" d="M13934.1095,-3633.21L13934.2209,-3633.2329L13935.4971,-3633.4977"/>
<path content="AP030,1,28,1,0,15,1,8,JPN" xlink:title="AP030" d="M13932.9503,-3634.4885L13933.0063,-3634.4265L13933.786,-3633.5667L13934.1095,-3633.21"/>
<path content="AP030,1,28,1,0,14,1,8,JPN" xlink:title="AP030" d="M13938.8794,-3633.8333L13939.1495,-3633.5602L13939.6103,-3633.2001"/>
<path content="AP030,1,28,1,0,15,1,8,JPN" xlink:title="AP030" d="M13924.5941,-3633.9344L13925.1633,-3632.7927"/>
<path content="AP030,1,28,1,0,14,1,8,JPN" xlink:title="AP030" d="M13939.6103,-3633.2001L13939.2197,-3632.7866"/>
<path content="AP030,1,28,1,0,16,1,8,JPN" xlink:title="AP030" d="M13935.4971,-3633.4977L13935.59,-3633.459L13936.07,-3633.294L13936.91,-3633.168L13937.62,-3633.09L13938.9291,-3633.0069"/>
<path content="AP030,1,28,1,0,15,1,8,JPN" xlink:title="AP030" d="M13956.7749,-3632.7152L13957.0175,-3633.2932L13957.0313,-3633.3121"/>
<path content="AP030,1,28,1,0,15,1,8,JPN" xlink:title="AP030" d="M13954.1504,-3636.2801L13954.335,-3635.487L13953.8879,-3634.9056L13953.8986,-3634.3712L13954.0024,-3634.2491L13954.718,-3634.0523L13955.8472,-3633.4492L13956.7749,-3632.7152"/>
<path content="AP030,1,28,1,0,14,1,8,JPN" xlink:title="AP030" d="M13945.1458,-3632.5814L13945.4697,-3632.9865L13945.2698,-3633.0933L13945.3156,-3633.2222L13945.3796,-3633.4L13945.4895,-3633.6864"/>
<path content="AP030,1,28,1,0,15,1,8,JPN" xlink:title="AP030" d="M13944.6075,-3633.7963L13944.7739,-3633.3778L13945.0546,-3632.6729L13945.1458,-3632.5814"/>
<path content="AP030,1,28,1,0,15,1,8,JPN" xlink:title="AP030" d="M13938.8794,-3633.8333L13941.6153,-3633.4744L13943.8614,-3633.0105L13944.136,-3632.9288L13945.1458,-3632.5814"/>
<path content="AP030,1,28,1,0,15,1,8,JPN" xlink:title="AP030" d="M13956.7749,-3632.7152L13957.0312,-3632.6213"/>
<path content="AP030,1,28,1,0,15,1,8,JPN" xlink:title="AP030" d="M13923.7,-3632.32L13925.1633,-3632.7927"/>
<path content="AP030,1,28,1,0,14,1,8,JPN" xlink:title="AP030" d="M13923.1094,-3633.3801L13923.7,-3632.32"/>
<path content="AP030,1,28,1,0,15,1,8,JPN" xlink:title="AP030" d="M13921.875,-3632.3123L13923.7,-3632.32"/>
<path content="AP030,1,28,1,0,15,1,8,JPN" xlink:title="AP030" d="M13921.875,-3632.5354L13923.1094,-3633.3801"/>
<path content="AP030,1,28,1,0,15,1,8,JPN" xlink:title="AP030" d="M13929.6417,-3632.0763L13931.0699,-3632.2609L13933.0368,-3632.9876L13934.1095,-3633.21"/>
<path content="AP030,1,28,1,0,15,1,8,JPN" xlink:title="AP030" d="M13929.599,-3634.6383L13929.6417,-3632.0763"/>
<path content="AP030,1,28,1,0,15,1,8,JPN" xlink:title="AP030" d="M13925.1633,-3632.7927L13926.4969,-3632.2777L13928.6301,-3632.3082L13929.6417,-3632.0763"/>
<path content="AP030,1,28,1,0,14,1,8,JPN" xlink:title="AP030" d="M13939.6103,-3633.2001L13939.65,-3633.1665L13940.1993,-3632.8201L13941.04,-3632.4066L13941.4505,-3632.1934L13941.7404,-3631.9733"/>
<path content="AP030,1,28,1,0,14,1,8,JPN" xlink:title="AP030" d="M13944.7205,-3631.8466L13944.8807,-3632.0133L13945.0195,-3632.3334L13945.1458,-3632.5814"/>
<path content="AP030,1,28,1,0,15,1,8,JPN" xlink:title="AP030" d="M13925.1633,-3632.7927L13924.7772,-3631.8825L13924.2004,-3631.4533"/>
<path content="AP030,1,28,1,0,14,1,8,JPN" xlink:title="AP030" d="M13923.7,-3632.32L13923.88,-3632.0133L13924.2004,-3631.4533"/>
<path content="AP030,1,28,1,0,15,1,8,JPN" xlink:title="AP030" d="M13921.875,-3631.4041L13924.2004,-3631.4533"/>
<path content="AP030,1,28,1,0,14,1,8,JPN" xlink:title="AP030" d="M13939.3997,-3631.2332L13939.5599,-3631.3267L13939.9704,-3631.4133L13940.4495,-3631.5067L13941.1499,-3631.6532L13941.4001,-3631.76L13941.7404,-3631.9733"/>
<path content="AP030,1,28,1,0,14,1,8,JPN" xlink:title="AP030" d="M13939.2197,-3632.7866L13939.1098,-3632.5333L13939.1296,-3632.1335L13939.3799,-3631.2866L13939.3997,-3631.2332"/>
<path content="AP030,1,28,1,0,15,1,8,JPN" xlink:title="AP030" d="M13944.7205,-3631.8466L13943.8995,-3631.0932"/>
<path content="AP030,1,28,1,0,14,1,8,JPN" xlink:title="AP030" d="M13941.7404,-3631.9733L13941.9006,-3631.8665L13941.9418,-3631.8455L13942.1097,-3631.76L13942.5598,-3631.5601L13942.6804,-3631.5067L13942.9703,-3631.3999L13943.5394,-3631.1798L13943.8599,-3631.1066L13943.8995,-3631.0932"/>
<path content="AP030,1,28,1,0,14,1,8,JPN" xlink:title="AP030" d="M13944.7205,-3631.8466L13944.6304,-3630.9467"/>
<path content="AP030,1,28,1,0,14,1,8,JPN" xlink:title="AP030" d="M13943.8995,-3631.0932L13944.1498,-3631.02L13944.4504,-3630.9467L13944.6304,-3630.9467"/>
<path content="AP030,1,28,1,0,15,1,8,JPN" xlink:title="AP030" d="M13956.398,-3630.8559L13957.0312,-3630.9488"/>
<path content="AP030,1,28,1,0,15,1,8,JPN" xlink:title="AP030" d="M13956.7749,-3632.7152L13956.5384,-3631.8123L13956.5048,-3631.5914L13956.398,-3630.8559"/>
<path content="AP030,1,28,1,0,15,1,8,JPN" xlink:title="AP030" d="M13946.6599,-3633.3115L13946.8262,-3632.7759L13946.8674,-3632.645L13948.1552,-3631.4022L13948.6542,-3630.7789"/>
<path content="AP030,1,28,1,0,15,1,8,JPN" xlink:title="AP030" d="M13946.6599,-3633.3115L13949.6216,-3631.5109L13949.7238,-3631.5006L13951.0574,-3631.3641L13951.2512,-3631.3442L13952.5757,-3631.3442L13953.389,-3631.0944L13953.4912,-3630.6774L13954.6112,-3630.5943L13956.398,-3630.8559"/>
<path content="AP030,1,28,1,0,15,1,8,JPN" xlink:title="AP030" d="M13929.6417,-3632.0763L13929.6631,-3630.761L13929.6631,-3630.2608"/>
<path content="AP030,1,28,1,0,15,1,8,JPN" xlink:title="AP030" d="M13924.2004,-3631.4533L13927.9327,-3630.5107L13929.6631,-3630.2608"/>
<path content="AP030,1,28,1,0,15,1,8,JPN" xlink:title="AP030" d="M13947.58,-3630.1201L13948.6542,-3630.7789"/>
<path content="AP030,1,28,1,0,14,1,8,JPN" xlink:title="AP030" d="M13944.6304,-3630.9467L13945.0394,-3630.9666L13945.6497,-3630.9467L13945.7779,-3630.9235L13946.6507,-3630.7667L13946.7896,-3630.7133L13947.58,-3630.1201"/>
<path content="AP030,1,28,1,0,15,1,8,JPN" xlink:title="AP030" d="M13934.1095,-3633.21L13934.7748,-3632.4772L13935.289,-3631.7917L13936.6043,-3630.035"/>
<path content="AP030,1,28,1,0,15,1,8,JPN" xlink:title="AP030" d="M13935.3683,-3629.7028L13936.174,-3629.9191L13936.6043,-3630.035"/>
<path content="AP030,1,28,1,0,15,1,8,JPN" xlink:title="AP030" d="M13934.5764,-3629.4899L13935.3683,-3629.7028"/>
<path content="AP030,1,28,1,0,15,1,8,JPN" xlink:title="AP030" d="M13929.6631,-3630.2608L13933.6349,-3629.6776L13934.5764,-3629.4899"/>
<path content="AP030,1,28,1,0,15,1,8,JPN" xlink:title="AP030" d="M13935.3683,-3629.7028L13936.3617,-3629.1351"/>
<path content="AP030,1,28,1,0,15,1,8,JPN" xlink:title="AP030" d="M13934.5764,-3629.4899L13936.3617,-3629.1351"/>
<path content="AP030,1,28,1,0,15,1,8,JPN" xlink:title="AP030" d="M13936.6043,-3630.035L13936.8988,-3629.398L13936.9308,-3629.3293L13937.088,-3628.9909"/>
<path content="AP030,1,28,1,0,15,1,8,JPN" xlink:title="AP030" d="M13936.3617,-3629.1351L13937.088,-3628.9909"/>
<path content="AP030,1,28,1,0,14,1,8,JPN" xlink:title="AP030" d="M13939.3997,-3631.2332L13939.1998,-3631.0932L13938.6307,-3630.7335L13938.3606,-3630.3532L13938.2706,-3630.2067L13938.2401,-3630.1533L13938.1805,-3629.9534L13938.15,-3629.8332L13938.0798,-3629.5799L13937.7396,-3629.5799L13937.6984,-3629.343L13937.6801,-3629.2332L13937.6801,-3629.1267L13937.6801,-3628.8734"/>
<path content="AP030,1,28,1,0,15,1,8,JPN" xlink:title="AP030" d="M13937.088,-3628.9909L13937.6801,-3628.8734"/>
<path content="AP030,1,28,1,0,14,1,8,JPN" xlink:title="AP030" d="M13937.6801,-3628.8734L13937.6801,-3628.7998"/>
<path content="AP030,1,28,1,0,15,1,8,JPN" xlink:title="AP030" d="M13957.0312,-3629.1451L13956.7703,-3628.6598"/>
<path content="AP030,1,28,1,0,14,1,8,JPN" xlink:title="AP030" d="M13956.7703,-3628.6598L13956.8802,-3628.6598L13957.0312,-3628.6991"/>
<path content="AP030,1,28,1,0,14,1,8,JPN" xlink:title="AP030" d="M13939.3997,-3631.2332L13939.7552,-3630.4398L13939.8605,-3630.2067L13939.9506,-3630.0266L13940.1505,-3629.6665L13940.2206,-3629.5265L13940.4694,-3629.2198L13940.7394,-3628.9665L13940.8096,-3628.9131L13941.4001,-3628.6064"/>
<path content="AP030,1,28,1,0,15,1,8,JPN" xlink:title="AP030" d="M13948.6542,-3630.7789L13950.5203,-3629.7791L13951.1093,-3628.5667"/>
<path content="AP030,1,28,1,0,14,1,8,JPN" xlink:title="AP030" d="M13947.58,-3630.1201L13948.0804,-3629.76L13948.5397,-3629.4132L13948.7396,-3629.3266L13949.4705,-3629.1065L13950.1801,-3628.8734L13950.6302,-3628.7132L13951.1093,-3628.5667"/>
<path content="AP030,1,28,1,0,14,1,8,JPN" xlink:title="AP030" d="M13951.1093,-3628.5667L13951.3596,-3628.5L13951.5594,-3628.4401L13951.7395,-3628.5L13952.1301,-3628.68L13952.4307,-3628.7998L13952.8107,-3629.0199L13953.0396,-3629.1801L13953.2394,-3629.2534L13953.45,-3629.2534L13953.7704,-3629.2L13953.8803,-3629.1801L13954.3594,-3629.0531L13954.6295,-3629.0199L13955.7907,-3628.8734L13956.0196,-3628.82L13956.1493,-3628.7865L13956.3324,-3628.7491L13956.7703,-3628.6598"/>
<path content="AP030,1,28,1,0,15,1,8,JPN" xlink:title="AP030" d="M13936.3617,-3629.1351L13936.9476,-3628.2303L13937.6801,-3628.7998"/>
<path content="AP030,1,28,1,0,15,1,8,JPN" xlink:title="AP030" d="M13943.8995,-3631.0932L13943.9606,-3629.6165L13943.4402,-3628.9406L13942.3996,-3628.1734"/>
<path content="AP030,1,28,1,0,14,1,8,JPN" xlink:title="AP030" d="M13941.4001,-3628.6064L13941.7007,-3628.5L13942.1097,-3628.3733L13942.3996,-3628.1734"/>
<path content="AP030,1,28,1,0,14,1,8,JPN" xlink:title="AP030" d="M13924.2004,-3631.4533L13924.4003,-3631.0734L13924.4705,-3630.9467L13924.6307,-3630.6801L13925.0198,-3630.1933L13925.1495,-3629.9934L13925.2396,-3629.8466L13925.5203,-3629.4132L13925.7706,-3629.1664L13925.8606,-3629.0733L13926.8997,-3628.26L13927.3605,-3627.9934"/>
<path content="AP030,1,28,1,0,14,1,8,JPN" xlink:title="AP030" d="M13924.6094,-3628.4065L13924.8596,-3628.4065L13925.1297,-3628.3531L13925.6805,-3628.1334L13926.3107,-3628.0266L13926.3992,-3628.0132L13926.6998,-3627.9732L13927.3605,-3627.9934"/>
<path content="AP030,1,28,1,0,15,1,8,JPN" xlink:title="AP030" d="M13937.7649,-3627.8937L13938.7726,-3628.3783L13940.4892,-3628.2513L13940.654,-3628.2391L13941.4001,-3628.6064"/>
<path content="AP030,1,28,1,0,14,1,8,JPN" xlink:title="AP030" d="M13937.6801,-3628.7998L13937.7649,-3627.8937"/>
<path content="AP030,1,28,1,0,15,1,8,JPN" xlink:title="AP030" d="M13929.6631,-3630.2608L13928.7399,-3627.8133"/>
<path content="AP030,1,28,1,0,14,1,8,JPN" xlink:title="AP030" d="M13927.3605,-3627.9934L13927.8793,-3628.0464L13928.0396,-3628.0266L13928.7399,-3627.8133"/>
<path content="AP030,1,28,1,0,15,1,8,JPN" xlink:title="AP030" d="M13929.7394,-3627.4864L13932.7316,-3628.2131L13934.5764,-3629.4899"/>
<path content="AP030,1,28,1,0,14,1,8,JPN" xlink:title="AP030" d="M13928.7399,-3627.8133L13929.3106,-3627.6867L13929.7394,-3627.4864"/>
<path content="AP030,1,28,1,0,15,1,8,JPN" xlink:title="AP030" d="M13928.45,-3627.38L13928.7399,-3627.8133"/>
<path content="AP030,1,28,1,0,14,1,8,JPN" xlink:title="AP030" d="M13927.3605,-3627.9934L13927.6093,-3627.8332L13927.6505,-3627.7931L13928.0396,-3627.5932L13928.45,-3627.38"/>
<path content="AP030,1,28,1,0,15,1,8,JPN" xlink:title="AP030" d="M13947.58,-3630.1201L13947.4854,-3628.9326L13947.4075,-3627.9736L13947.4075,-3626.9981"/>
<path content="AP030,1,28,1,0,14,1,8,JPN" xlink:title="AP030" d="M13942.3996,-3628.1734L13942.8101,-3627.7599L13942.9306,-3627.5932L13943.4494,-3627.4532L13943.8599,-3627.2331L13944.1803,-3627.0733L13944.6793,-3626.9135L13944.8303,-3626.8932L13945.2698,-3626.9135L13945.7703,-3626.9466L13946.8994,-3626.9867L13946.9299,-3626.9867L13947.4075,-3626.9981"/>
<path content="AP030,1,28,1,0,14,1,8,JPN" xlink:title="AP030" d="M13929.7394,-3627.4864L13930.4504,-3627.0199L13930.5557,-3626.9501L13930.8807,-3626.7334L13931.2698,-3626.6602L13931.5399,-3626.6602L13932.1503,-3626.7334L13932.4005,-3626.86L13932.7698,-3626.9264L13934.9304,-3627"/>
<path content="AP030,1,28,1,0,15,1,8,JPN" xlink:title="AP030" d="M13927.7405,-3626.4999L13928.3356,-3627.2388L13928.45,-3627.38"/>
<path content="AP030,1,28,1,0,14,1,8,JPN" xlink:title="AP030" d="M13921.875,-3627.7679L13922.2,-3627.6531L13922.4503,-3627.4132L13922.6807,-3627.1465L13922.9904,-3627.2331L13923.4497,-3627.3067L13923.5596,-3627.2865L13923.7198,-3627.2202L13923.9899,-3627.3602L13924.0402,-3627.3602L13925.2396,-3627.4666L13925.56,-3627.3464L13925.7904,-3627.2732L13925.9705,-3627.1999L13926.0803,-3627.1667L13926.3306,-3627.0733L13926.3794,-3627.0535L13927.2003,-3626.6933L13927.7206,-3626.4999L13927.7405,-3626.4999"/>
<path content="AP030,1,28,1,0,15,1,8,JPN" xlink:title="AP030" d="M13951.1093,-3628.5667L13951.7258,-3627.7477L13951.4481,-3626.2997L13951.3992,-3626.0468"/>
<path content="AP030,1,28,1,0,14,1,8,JPN" xlink:title="AP030" d="M13947.4075,-3626.9981L13948.2895,-3627.0199L13949.0204,-3626.9867L13949.9496,-3627L13950.1297,-3626.9867L13950.2396,-3626.9665L13950.3601,-3626.9264L13950.5798,-3626.86L13950.8102,-3626.7334L13951.0406,-3626.5533L13951.1993,-3626.3199L13951.3992,-3626.0468"/>
<path content="AP030,1,28,1,0,14,1,8,JPN" xlink:title="AP030" d="M13928.45,-3627.38L13928.7201,-3627.1805L13929.0802,-3626.9135L13929.6494,-3626.4267L13930.04,-3626.0468L13930.0598,-3626.0265"/>
<path content="AP030,1,28,1,0,14,1,8,JPN" xlink:title="AP030" d="M13927.7405,-3626.4999L13928.6499,-3626.2798L13929.4495,-3626.1734L13929.95,-3626.0468L13930.0598,-3626.0265"/>
<path content="AP030,1,28,1,0,14,1,8,JPN" xlink:title="AP030" d="M13937.7649,-3627.8937L13937.7701,-3627.5066L13937.7396,-3627L13937.7396,-3626.7467L13937.7197,-3626.0799L13937.7197,-3625.9933"/>
<path content="AP030,1,28,1,0,15,1,8,JPN" xlink:title="AP030" d="M13954.3762,-3625.906L13955.6305,-3627.0103L13956.7703,-3628.6598"/>
<path content="AP030,1,28,1,0,14,1,8,JPN" xlink:title="AP030" d="M13930.0598,-3626.0265L13930.2399,-3625.9933L13930.8594,-3625.9201L13931.3995,-3625.8865L13932.0206,-3625.8331L13932.0602,-3625.8331L13932.6996,-3625.8331L13933.3603,-3625.8331L13934.8602,-3626.0132L13935.2905,-3626.0799L13935.5392,-3626.1002L13935.5606,-3626.1002L13936.8805,-3626.0468L13937.1094,-3626.0265L13937.6099,-3626.0132L13937.7197,-3625.9933"/>
<path content="AP030,1,28,1,0,15,1,8,JPN" xlink:title="AP030" d="M13942.3996,-3628.1734L13942.0105,-3627.5051L13941.9464,-3627.1973L13941.7892,-3626.4397L13941.6687,-3626.2341L13941.3605,-3625.7065"/>
<path content="AP030,1,28,1,0,14,1,8,JPN" xlink:title="AP030" d="M13937.7197,-3625.9933L13939.0396,-3625.8667L13939.7202,-3625.7935L13939.74,-3625.7935L13940.7196,-3625.7401L13940.86,-3625.7401L13941.2903,-3625.7065L13941.3605,-3625.7065"/>
<path content="AP030,1,28,1,0,14,1,8,JPN" xlink:title="AP030" d="M13941.3605,-3625.7065L13941.8304,-3625.6866"/>
<path content="AP030,1,28,1,0,14,1,8,JPN" xlink:title="AP030" d="M13951.3992,-3626.0468L13951.8997,-3625.56L13951.9302,-3625.3799"/>
<path content="AP030,1,28,1,0,15,1,8,JPN" xlink:title="AP030" d="M13951.3992,-3626.0468L13951.9302,-3625.3799"/>
<path content="AP030,1,28,1,0,15,1,8,JPN" xlink:title="AP030" d="M13953.0136,-3624.7063L13954.3762,-3625.906"/>
<path content="AP030,1,28,1,0,15,1,8,JPN" xlink:title="AP030" d="M13954.1183,-3624.5499L13954.5517,-3624.7913L13955.4153,-3625.3529L13956.2836,-3625.7175L13957.0312,-3625.97"/>
<path content="AP030,1,28,1,0,15,1,8,JPN" xlink:title="AP030" d="M13954.3762,-3625.906L13954.1183,-3624.5499"/>
<path content="AP030,1,28,1,0,14,1,8,JPN" xlink:title="AP030" d="M13951.9302,-3625.3799L13951.9485,-3625.0431L13951.9501,-3625.0198L13951.9897,-3624.4267"/>
<path content="AP030,1,28,1,0,14,1,8,JPN" xlink:title="AP030" d="M13941.8304,-3625.6866L13942.2195,-3625.7401L13942.9001,-3625.7599L13943.5593,-3625.4532L13944.3298,-3625.1064L13944.3802,-3625.0935L13945.9503,-3624.4598L13946.2006,-3624.3866"/>
<path content="AP030,1,28,1,0,15,1,8,JPN" xlink:title="AP030" d="M13947.4075,-3626.9981L13947.4075,-3626.3798L13947.3267,-3625.7969L13947.11,-3624.2466"/>
<path content="AP030,1,28,1,0,14,1,8,JPN" xlink:title="AP030" d="M13946.2006,-3624.3866L13946.4493,-3624.3198L13946.9498,-3624.2599L13947.11,-3624.2466"/>
<path content="AP030,1,28,1,0,14,1,8,JPN" xlink:title="AP030" d="M13947.11,-3624.2466L13947.3602,-3624.2268L13947.7905,-3624.1199L13948.1506,-3624.0799L13948.2193,-3624.2065L13948.3093,-3624.3L13948.5596,-3624.4267L13948.9899,-3624.6201L13949.4003,-3624.7334L13949.6307,-3624.7467L13949.8993,-3624.6933L13950.3296,-3624.44L13950.5798,-3624.2599L13950.8804,-3624.2599L13950.9705,-3624.2599L13951.3107,-3624.3198L13951.68,-3624.3866L13951.9897,-3624.4267"/>
<path content="AP030,1,28,1,0,15,1,8,JPN" xlink:title="AP030" d="M13947.11,-3624.2466L13947.02,-3623.7934"/>
<path content="AP030,1,28,1,0,14,1,8,JPN" xlink:title="AP030" d="M13946.2006,-3624.3866L13946.7896,-3623.9399L13947.02,-3623.7934"/>
<path content="AP030,1,28,1,0,15,1,8,JPN" xlink:title="AP030" d="M13953.5797,-3623.5268L13954.1183,-3624.5499"/>
<path content="AP030,1,28,1,0,14,1,8,JPN" xlink:title="AP030" d="M13952.0203,-3623.4665L13952.5192,-3623.4867L13952.7145,-3623.494L13953.5797,-3623.5268"/>
<path content="AP030,1,28,1,0,14,1,8,JPN" xlink:title="AP030" d="M13951.9897,-3624.4267L13952.0203,-3623.4665"/>
<path content="AP030,1,28,1,0,14,1,8,JPN" xlink:title="AP030" d="M13947.02,-3623.7934L13947.3801,-3623.7598L13947.4899,-3623.7202L13947.9706,-3623.4867L13948.0606,-3623.4531L13948.8098,-3623.1068L13949.5193,-3622.8401L13949.6994,-3622.8401L13950.3296,-3623.0202L13950.56,-3623.0732L13951.68,-3623.4531L13951.9699,-3623.4665L13952.0203,-3623.4665"/>
<path content="AP030,1,28,1,0,14,1,8,JPN" xlink:title="AP030" d="M13953.5797,-3623.5268L13953.6301,-3623.5268L13954.3304,-3623.4135L13955.0598,-3623.2864L13955.8807,-3623.1266L13956.72,-3623L13956.9702,-3622.9134L13957.0312,-3622.8778"/>
<path content="AP030,1,28,1,0,15,1,8,JPN" xlink:title="AP030" d="M13927.7405,-3626.4999L13927.2186,-3623.4264L13927.3026,-3622.4667"/>
<path content="AP030,1,28,1,0,14,1,8,JPN" xlink:title="AP030" d="M13921.875,-3622.7263L13922.2,-3622.5334L13922.2702,-3622.4998L13922.5601,-3622.3331"/>
<path content="AP030,1,28,1,0,15,1,8,JPN" xlink:title="AP030" d="M13922.5601,-3622.3331L13924.7437,-3622.3217L13925.8057,-3622.4667L13927.3026,-3622.4667"/>
<path content="AP030,1,28,1,0,14,1,8,JPN" xlink:title="AP030" d="M13937.7197,-3625.9933L13937.7701,-3625.7065L13937.7899,-3625.56L13937.97,-3624.8734L13938.0402,-3624.5667L13938.1805,-3624.2802L13937.5793,-3623.3601L13937.5595,-3623.3467L13937.3093,-3623.18L13937.1094,-3623.0202L13937.0407,-3622.7867L13936.8301,-3622.2267"/>
<path content="AP030,1,28,1,0,14,1,8,JPN" xlink:title="AP030" d="M13930.0598,-3626.0265L13930.0797,-3625.9933L13930.2704,-3625.8465L13930.7693,-3625.4665L13930.9006,-3625.3468L13931.0593,-3625.2201L13931.1798,-3625.0732L13931.2195,-3624.9268L13931.2195,-3624.7131L13931.0593,-3624.1531L13930.8594,-3623.4531L13930.8304,-3623.2533L13930.8807,-3623.1068L13931.1295,-3622.7665L13931.6803,-3622.2599L13931.7551,-3622.2004"/>
<path content="AP030,1,28,1,0,15,1,8,JPN" xlink:title="AP030" d="M13927.3026,-3622.4667L13928.0197,-3622.4667L13929.1702,-3622.4667L13930.2322,-3622.3942L13931.7551,-3622.2004"/>
<path content="AP030,1,28,1,0,15,1,8,JPN" xlink:title="AP030" d="M13936.8301,-3622.2267L13937.7579,-3622.1043"/>
<path content="AP030,1,28,1,0,15,1,8,JPN" xlink:title="AP030" d="M13934.2163,-3621.8868L13936.8301,-3622.2267"/>
<path content="AP030,1,28,1,0,15,1,8,JPN" xlink:title="AP030" d="M13931.7551,-3622.2004L13934.2163,-3621.8868"/>
<path content="AP030,1,28,1,0,16,1,8,JPN" xlink:title="AP030" d="M13957.0312,-3622.3502L13956.9901,-3622.2599L13956.9305,-3622.1333L13956.9,-3621.6331"/>
<path content="AP030,1,28,1,0,15,1,8,JPN" xlink:title="AP030" d="M13927.3026,-3622.4667L13927.3209,-3622.2595L13927.4854,-3621.5546"/>
<path content="AP030,1,28,1,0,14,1,8,JPN" xlink:title="AP030" d="M13931.7551,-3622.2004L13931.9504,-3622.0467L13932.5195,-3621.74L13932.7698,-3621.5401"/>
<path content="AP030,1,28,1,0,15,1,8,JPN" xlink:title="AP030" d="M13946.611,-3621.452L13946.965,-3622.7566L13947.02,-3623.7934"/>
<path content="AP030,1,28,1,0,14,1,8,JPN" xlink:title="AP030" d="M13932.7698,-3621.5401L13932.8598,-3621.3799"/>
<path content="AP030,1,28,1,0,15,1,8,JPN" xlink:title="AP030" d="M13927.4854,-3621.5546L13927.5604,-3621.2334"/>
<path content="AP030,1,28,1,0,14,1,8,JPN" xlink:title="AP030" d="M13922.5601,-3622.3331L13924.0601,-3621.9002L13924.1104,-3621.8864L13925.3998,-3621.4664L13926.3596,-3621.4535L13927.5604,-3621.2334"/>
<path content="AP030,1,28,1,0,15,1,8,JPN" xlink:title="AP030" d="M13934.2163,-3621.8868L13934.2743,-3621.1224"/>
<path content="AP030,1,28,1,0,15,1,8,JPN" xlink:title="AP030" d="M13932.8598,-3621.3799L13933.5037,-3621.3955L13934.2743,-3621.1224"/>
<path content="AP030,1,28,1,0,15,1,8,JPN" xlink:title="AP030" d="M13927.4854,-3621.5546L13927.4857,-3621.5546L13929.2389,-3621.3867L13929.7224,-3621.0938"/>
<path content="AP030,1,28,1,0,14,1,8,JPN" xlink:title="AP030" d="M13927.5604,-3621.2334L13928.4141,-3621.0938"/>
<path content="AP030,1,28,1,0,15,1,8,JPN" xlink:title="AP030" d="M13931.6052,-3621.0938L13932.0724,-3621.3753L13932.7698,-3621.5401"/>
<path content="AP030,1,28,1,0,15,1,8,JPN" xlink:title="AP030" d="M13946.1734,-3621.0938L13946.611,-3621.452"/>
<path content="AP030,1,28,1,0,15,1,8,JPN" xlink:title="AP030" d="M13941.8304,-3625.6866L13941.8671,-3624.9847L13942.1829,-3623.7293L13942.8986,-3621.9681L13944.2417,-3621.0938"/>
<path content="AP030,1,28,1,0,14,1,8,JPN" xlink:title="AP030" d="M13952.0203,-3623.4665L13952.0401,-3622.9668L13951.8799,-3622.6398L13951.8097,-3622.5132L13951.8295,-3622.4068L13952.0401,-3621.8468L13952.0401,-3621.7201L13951.9302,-3621.36L13951.8354,-3621.0938"/>
<path content="AP030,1,28,1,0,15,1,8,JPN" xlink:title="AP030" d="M13955.8392,-3621.0937L13956.4911,-3621.4218L13956.9,-3621.6331"/>
<path content="AP030,1,28,1,0,15,1,8,JPN" xlink:title="AP030" d="M13934.2743,-3621.1224L13934.2617,-3621.0938"/>
<path content="AP030,1,28,1,0,14,1,8,JPN" xlink:title="AP030" d="M13932.8598,-3621.3799L13932.9615,-3621.0938"/>
<path content="AP030,1,28,1,0,15,1,8,JPN" xlink:title="AP030" d="M13927.5604,-3621.2334L13927.6268,-3621.0938"/>
<path content="AP030,1,28,1,0,14,1,8,JPN" xlink:title="AP030" d="M13922.5601,-3622.3331L13923.7396,-3621.6331L13923.9899,-3621.4664L13924.4705,-3621.1666L13924.5601,-3621.0937"/>
<path content="AP030,1,28,1,0,15,1,8,JPN" xlink:title="AP030" d="M13946.611,-3621.452L13946.8496,-3621.0938"/>
<path content="AP030,1,28,1,0,15,1,8,JPN" xlink:title="AP030" d="M13937.7579,-3622.1043L13938.6429,-3621.9593L13939.9719,-3621.2345L13940.1439,-3621.0938"/>
<path content="AP030,1,28,1,0,15,1,8,JPN" xlink:title="AP030" d="M13937.7579,-3622.1043L13937.8028,-3621.0938"/>
<path content="AP030,1,28,1,0,15,1,8,JPN" xlink:title="AP030" d="M13956.9,-3621.6331L13957.0312,-3621.6268"/>
<path content="AP030,1,28,1,0,14,1,8,JPN" xlink:title="AP030" d="M13936.8301,-3622.2267L13936.8103,-3621.92L13937.0096,-3621.0938"/>
<path content="AP030,1,28,1,0,16,1,8,JPN" xlink:title="AP030" d="M13956.9,-3621.6331L13956.9305,-3621.2868L13957.0214,-3621.0938"/>
<path content="AP030,1,28,1,1,16,1,8,JPN" xlink:title="AP030" d="M13957.0313,-3635.8754L13956.9106,-3635.9478L13956.4981,-3636.2102L13955.1107,-3636.6977L13953.2358,-3637.4477L13950.5734,-3637.1102L13948.9235,-3636.3227L13948.0986,-3636.2852L13946.9361,-3636.8102L13945.3987,-3636.6602L13944.3113,-3636.3227L13943.7113,-3635.9478L13942.1364,-3635.5728L13940.8614,-3633.8479L13939.7365,-3633.5104L13938.9256,-3633.0323"/>
<path content="AP030,1,28,1,1,16,1,8,JPN" xlink:title="AP030" d="M13938.9291,-3633.0069L13939.2197,-3632.7866"/>
</g>
</svg>
