<?xml version="1.0" encoding="UTF-8"?>
<svg  xmlns="http://www.w3.org/2000/svg" xmlns:xlink="http://www.w3.org/1999/xlink" xmlns:go="http://purl.org/svgmap/profile" property="f_code,acc,exs,rst,med,rtt,RSU,loc,soc" viewBox="12937.5 -3304.6875 70.3125 70.3125" go:dataArea="12937.5 -3304.6875 70.3125 70.3125" >
<metadata>
 <rdf:RDF xmlns:rdf="http://www.w3.org/1999/02/22-rdf-syntax-ns#" xmlns:crs="http://opengis.org/xmldtds/transformations.dtd" xmlns:svg="http://www.w3.org/svg" >
  <rdf:Description>
   <crs:CoordinateReferenceSystem rdf:resource="http://purl.org/crs/84" svg:transform="matrix(100.0,0.0,0.0,-100.0,0.0,0.0)" />
  </rdf:Description>
 </rdf:RDF>
</metadata>
<globalCoordinateSystem srsName="http://purl.org/crs/84" transform="matrix(100.0,0.0,0.0,-100.0,0.0,0.0)" />
<defs>
 <g id="p0" >
  <circle cx="0.0" cy="0.0" r="3" stroke="green" stroke-width="2.0" vector-effect="non-scaling-stroke" />
 </g>
</defs>
<g fill="none" fill-rule="evenodd" stroke="#00ff00" stroke-width="2" opacity="0.5" vector-effect="non-scaling-stroke" stroke-linejoin="bevel" >
<path content="AP030,1,28,1,0,14,1,8,JPN" xlink:title="AP030" d="M12975.47,-3304.6875L12975.47,-3304.6799L12975.3601,-3304.5864L12975.2197,-3304.5532L12975.1099,-3304.5532L12974.8306,-3304.6066L12974.7192,-3304.6066L12974.5804,-3304.6066L12974.4507,-3304.5666L12974.4003,-3304.4998L12974.3607,-3304.3331L12974.2401,-3304.2797L12974.1104,-3304.2465"/>
<path content="AP030,1,28,1,0,14,1,8,JPN" xlink:title="AP030" d="M12974.1104,-3304.2465L12973.79,-3304.3198L12973.6099,-3304.3865L12973.5199,-3304.4266L12973.4299,-3304.4067L12973.1094,-3304.2797L12973.0194,-3304.2797L12972.8806,-3304.3732L12972.7905,-3304.3732L12972.7203,-3304.3732L12972.6303,-3304.3865L12972.4258,-3304.5528"/>
<path content="AP030,1,28,1,0,15,1,8,JPN" xlink:title="AP030" d="M12962.0547,-3304.6875L12962.1689,-3304.2114L12961.7844,-3303.8628"/>
<path content="AP030,1,28,1,0,14,1,8,JPN" xlink:title="AP030" d="M12972.4258,-3304.5528L12972.4304,-3304.6066L12972.5113,-3304.6875M12966.059,-3304.6875L12966.1301,-3304.6066L12966.1499,-3304.5532L12966.1499,-3304.5334L12966.1102,-3304.4998L12966.04,-3304.48L12965.9897,-3304.4266L12965.9897,-3304.3198L12965.8798,-3303.8864L12965.9302,-3303.7731L12965.9897,-3303.6865L12965.9973,-3303.6823"/>
<path content="AP030,1,28,1,0,15,1,8,JPN" xlink:title="AP030" d="M12961.7844,-3303.8628L12963.3026,-3303.7884L12964.4562,-3303.6789L12965.0543,-3303.9021L12965.274,-3303.7331L12965.9866,-3303.6861L12965.9973,-3303.6823"/>
<path content="AP030,1,28,1,0,14,1,8,JPN" xlink:title="AP030" d="M12992.17,-3304.6875L12992.1494,-3304.66L12992.0593,-3304.5132L12992.0807,-3304.3865L12992.1295,-3304.1L12992.2699,-3303.7598L12992.3096,-3303.5797"/>
<path content="AP030,1,28,1,0,15,1,8,JPN" xlink:title="AP030" d="M12965.9973,-3303.6823L12966.4734,-3303.5049L12967.2302,-3303.8147L12968.6478,-3303.8731L12969.2764,-3303.8586L12969.8334,-3304.1737L12970.813,-3304.0955L12972.4258,-3304.5528"/>
<path content="AP030,1,28,1,0,14,1,8,JPN" xlink:title="AP030" d="M12992.3096,-3303.5797L12992.2256,-3303.5236L12992.1997,-3303.5065L12992.1097,-3303.4531L12991.5604,-3303.7197L12991.2003,-3303.8998L12991.1804,-3303.92L12990.6998,-3304.1733L12990.6097,-3304.1733L12990.4541,-3304.1897L12990.3748,-3304.245L12990.2786,-3304.4624L12990.2328,-3304.5055L12990.2206,-3304.5532L12990.2397,-3304.6875"/>
<path content="AP030,1,28,1,0,15,1,8,JPN" xlink:title="AP030" d="M12961.7844,-3303.8628L12961.4609,-3303.5698L12960.8734,-3303.1036L12960.437,-3302.7485L12960.2676,-3302.8572L12959.8969,-3302.7489L12959.4849,-3302.9041L12959.0225,-3302.9709L12958.6365,-3302.7935L12958.3801,-3302.5047L12958.0719,-3301.8829L12957.4036,-3301.239L12956.9717,-3300.8186"/>
<path content="AP030,1,28,1,0,14,1,8,JPN" xlink:title="AP030" d="M12974.1104,-3304.2465L12974.1302,-3304.1199L12974.1302,-3304.0466L12974.1806,-3303.8864L12974.2004,-3303.7933L12974.2401,-3303.7399L12974.3607,-3303.6865L12974.3805,-3303.5797L12974.3301,-3303.3798L12974.2905,-3303.2532L12974.2401,-3303.1269L12974.1806,-3303.0197L12974.1287,-3302.8923L12974.0402,-3302.84L12973.9304,-3302.8L12973.8602,-3302.6932L12973.7198,-3302.3533L12973.6801,-3302.2598L12973.5596,-3302.153L12973.5199,-3301.9932L12973.4497,-3301.8867L12973.378,-3301.7857L12973.2407,-3301.72L12973.1094,-3301.6132L12973.0804,-3301.5598L12973.0804,-3301.5064L12973.1293,-3301.3798L12973.2407,-3301.2199L12973.2407,-3301.1665L12973.1506,-3301.0731L12973.1094,-3300.9132L12972.9507,-3300.7668L12972.9294,-3300.6798L12972.9294,-3300.5131L12972.9294,-3300.2998L12972.8607,-3300.2266L12972.8607,-3300.193L12972.9767,-3300.0549"/>
<path content="AP030,1,28,1,0,14,1,8,JPN" xlink:title="AP030" d="M13006.8616,-3304.6875L13006.8802,-3304.6398L13006.9,-3304.5532L13006.9504,-3304.4998L13006.9901,-3304.3732L13007.0206,-3304.1931L13006.9901,-3304.0665L13006.9504,-3303.9398L13006.9305,-3303.7399L13006.9305,-3303.6331L13006.9305,-3303.5267L13006.8604,-3303.3264L13006.81,-3303.1467L13006.7703,-3303.0197L13006.7703,-3302.8931L13006.7398,-3302.7866L13006.6498,-3302.5333L13006.6101,-3302.3533L13006.6101,-3302.28L13006.6803,-3302.153L13006.7001,-3302.0466L13006.6803,-3301.9199L13006.6498,-3301.7597L13006.6101,-3301.6533L13006.5201,-3301.54L13006.4697,-3301.4332L13006.4697,-3301.4L13006.4301,-3301.3599L13006.4301,-3301.2199L13006.3293,-3301.0532L13006.2698,-3300.9998L13006.2393,-3300.893L13006.2195,-3300.7465L13006.2393,-3300.6397L13006.2393,-3300.5867L13006.3293,-3300.4799L13006.3293,-3300.3201L13006.3293,-3300.2266L13006.2698,-3300.0797L13006.1996,-3299.9931L13006.1996,-3299.8867L13006.1493,-3299.8333"/>
<path content="AP030,1,28,1,0,14,1,8,JPN" xlink:title="AP030" d="M13005.5206,-3299.9001L13005.4703,-3299.9733L13005.4306,-3300.0267L13005.3604,-3300.1331L13005.4306,-3300.193L13005.4306,-3300.2266L13005.4901,-3300.2998L13005.5206,-3300.3731L13005.5405,-3300.4066L13005.6305,-3300.4066L13005.6793,-3300.2998L13005.7205,-3300.1534L13005.8105,-3300.0668L13005.9296,-3300.0465L13006.0196,-3299.9931L13006.0196,-3299.8867L13006.0806,-3299.8333L13006.1493,-3299.8333"/>
<path content="AP030,1,28,1,0,14,1,8,JPN" xlink:title="AP030" d="M13006.1493,-3299.8333L13005.9692,-3299.72"/>
<path content="AP030,1,28,1,0,14,1,4,JPN" xlink:title="AP030" d="M13004.3106,-3298.9666L13005.9692,-3299.72"/>
<path content="AP030,1,28,1,0,14,1,8,JPN" xlink:title="AP030" d="M13004.3106,-3298.9666L13004.2404,-3298.9132L13004.1107,-3298.7331L13003.9703,-3298.513L13003.83,-3298.4398L13003.7003,-3298.4264L13003.6102,-3298.513L13003.5797,-3298.6931L13003.54,-3298.7667L13003.3997,-3298.7667L13003.3295,-3298.6797L13003.3798,-3298.513L13003.45,-3298.4264L13003.3798,-3298.3334L13003.3356,-3298.3227"/>
<path content="AP030,1,28,1,0,14,1,8,JPN" xlink:title="AP030" d="M13002.9907,-3298.2998L13003.0807,-3298.373L13003.27,-3298.3868L13003.3356,-3298.3227"/>
<path content="AP030,1,28,1,0,14,1,8,JPN" xlink:title="AP030" d="M13002.9907,-3298.2998L13003.2394,-3298.2998L13003.3356,-3298.3227"/>
<path content="AP030,1,28,1,0,14,1,8,JPN" xlink:title="AP030" d="M13003.3356,-3298.3227L13003.3997,-3298.2597L13003.6102,-3298.1197"/>
<path content="AP030,1,28,1,0,14,1,8,JPN" xlink:title="AP030" d="M13003.6102,-3298.1197L13003.9307,-3298.0999L13004.1107,-3298.0801L13004.2404,-3298.0133L13004.4296,-3297.9L13004.6097,-3297.8664L13004.7699,-3297.8867L13004.8798,-3297.8664L13004.9896,-3297.7734L13005.1102,-3297.76L13005.3604,-3297.7734L13005.5405,-3297.7932L13005.7007,-3297.7734"/>
<path content="AP030,1,28,1,0,14,1,8,JPN" xlink:title="AP030" d="M13001.86,-3297.2866L13001.8799,-3297.4533L13001.8799,-3297.6131L13001.8997,-3297.6532L13001.9501,-3297.6131L13001.9699,-3297.4533L13001.9897,-3297.3598L13002.0599,-3297.3801L13002.0798,-3297.4533L13002.0798,-3297.6334L13002.0798,-3297.7398L13002.1103,-3297.7932L13002.1805,-3297.8664L13002.4002,-3297.9198L13002.6093,-3297.953L13002.9007,-3298.0133L13003.1097,-3298.0267L13003.2196,-3298.0999L13003.3295,-3298.1197L13003.6102,-3298.1197"/>
<path content="AP030,1,28,1,0,14,1,8,JPN" xlink:title="AP030" d="M13002.9907,-3298.2998L13002.9694,-3298.28L13002.8595,-3298.2597L13002.4506,-3298.28L13002.1301,-3298.2265L13001.8295,-3298.1197L13001.6495,-3297.953L13001.6296,-3297.7734L13001.6998,-3297.4865L13001.86,-3297.2866"/>
<path content="AP030,1,28,1,0,15,1,8,JPN" xlink:title="AP030" d="M13000.009,-3304.6875L13000.1678,-3304.229L13000.444,-3303.5912L13001.1856,-3302.697L13001.2802,-3301.9436L13001.1337,-3301.8642L13001.1871,-3301.4385L13000.8255,-3300.8762L13000.6866,-3300.7317L13000.6577,-3300.3315L13000,-3299.8711L12999.8993,-3299.8005L12999.6368,-3299.3797L12999.292,-3298.6866L12998.6588,-3298.0999L12997.3648,-3297.4545L12996.8414,-3297.2424L12995.7703,-3296.8941"/>
<path content="AP030,1,28,1,0,16,1,8,JPN" xlink:title="AP030" d="M12992.8709,-3304.6875L12992.7902,-3304.5532L12992.6804,-3304.3732L12992.63,-3304.2065L12992.5598,-3304.0466L12992.5598,-3303.8864L12992.5797,-3303.7399L12992.5797,-3303.7067L12992.6804,-3303.5267L12992.7399,-3303.4L12992.9001,-3303.2532L12993.0603,-3303.1265L12993.2404,-3303.0197L12993.5806,-3302.8198L12993.8095,-3302.713L12994.1101,-3302.4998L12994.1803,-3302.4265L12994.3604,-3302.2465L12994.4,-3302.153L12994.5206,-3302.0466L12994.7693,-3301.8467L12994.9005,-3301.7399L12995.0394,-3301.6132L12995.1294,-3301.453L12995.1797,-3301.3065L12995.1797,-3301.1997L12995.2698,-3301.0532L12995.3796,-3300.84L12995.43,-3300.6798L12995.4498,-3300.5131L12995.43,-3300.3201L12995.3598,-3299.9931L12995.3598,-3299.8665L12995.3598,-3299.6666L12995.3598,-3299.5068L12995.43,-3299.3797L12995.52,-3299.2199L12995.5795,-3299.073L12995.7001,-3298.8934L12995.8099,-3298.7865L12995.8801,-3298.6198L12995.9,-3298.4798L12995.8801,-3298.32L12995.8603,-3298.1533L12995.8298,-3297.9733L12995.8603,-3297.813L12995.9,-3297.6532L12995.9,-3297.4865L12995.8801,-3297.4331L12995.7901,-3297.2332L12995.7703,-3297.2L12995.7703,-3297.1268L12995.7703,-3296.8941"/>
<path content="AP030,1,28,1,0,14,1,8,JPN" xlink:title="AP030" d="M12996.756,-3293.959L12996.7896,-3293.9732L12996.8994,-3293.9934L12997.0596,-3294.0266L12997.29,-3294.173L12997.3297,-3294.173L12997.5601,-3294.26L12997.7905,-3294.3531L12998.0804,-3294.5534L12998.1506,-3294.6068L12998.2697,-3294.6598L12998.3093,-3294.7468L12998.3795,-3294.9467L12998.4695,-3294.9867L12998.7396,-3294.9867L12998.8602,-3294.9867L12998.97,-3294.9867L12999.1806,-3294.9467L12999.2401,-3294.9467L12999.3103,-3294.9665L12999.4705,-3295.0932L12999.5193,-3295.0932L12999.6307,-3295.1065L12999.6796,-3295.1065L12999.9496,-3295.1797L13000,-3295.1954L13000.4898,-3295.3465L13000.65,-3295.433L13000.7004,-3295.4666L13000.8606,-3295.5399L13000.9293,-3295.6532L13001.0605,-3295.8134L13001.1993,-3295.9198L13001.2695,-3296.08L13001.3306,-3296.1933L13001.4893,-3296.4066L13001.5198,-3296.6198L13001.5396,-3296.7331L13001.6296,-3296.8201L13001.8097,-3297.0734L13001.86,-3297.253L13001.86,-3297.2866"/>
<path content="AP030,1,28,1,0,16,1,8,JPN" xlink:title="AP030" d="M12995.7703,-3296.8941L12995.7703,-3296.8933L12995.8298,-3296.7331L12995.9503,-3296.5668L12996.0602,-3296.4066L12996.1502,-3296.2601L12996.2006,-3296.0999L12996.1807,-3295.9L12996.1304,-3295.7066L12996.0205,-3295.4865L12995.9,-3295.1466L12995.8801,-3294.9467L12995.9305,-3294.7998L12996.1304,-3294.6068L12996.3104,-3294.4267L12996.5607,-3294.173L12996.756,-3293.959"/>
<path content="AP030,1,28,1,0,15,1,8,JPN" xlink:title="AP030" d="M12972.9767,-3300.0549L12972.6883,-3299.5716L12972.2549,-3298.8735L12971.6782,-3298.3006L12970.871,-3297.6776L12969.8608,-3297.179L12969.4855,-3296.9799L12969.3985,-3296.6061L12969.0231,-3296.4066L12968.5913,-3296.2322L12968.071,-3295.8336L12967.0044,-3295.0863L12966.4566,-3294.9368L12965.9363,-3294.6129L12965.4755,-3294.1891L12965.2725,-3293.94"/>
<path content="AP030,1,28,1,0,14,1,8,JPN" xlink:title="AP030" d="M12992.3096,-3303.5797L12992.5201,-3303.3264L12992.7399,-3303.0197L12992.7704,-3302.9999L12992.9001,-3302.8931L12993.1793,-3302.7866L12993.2693,-3302.713L12993.3105,-3302.66L12993.3807,-3302.6066L12993.4494,-3302.5333L12993.7698,-3302.4265L12993.8995,-3302.3533L12993.9499,-3302.3197L12994.0201,-3302.1198L12994.1101,-3302.013L12994.1803,-3301.9398L12994.4702,-3301.72L12994.7693,-3301.5064L12994.7906,-3301.4L12994.7403,-3301.2531L12994.6106,-3300.9865L12994.6304,-3300.9132L12994.7006,-3300.84L12994.7693,-3300.7332L12994.8303,-3300.5531L12994.8303,-3300.4066L12994.7906,-3300.2464L12994.7006,-3300.1534L12994.6503,-3300.0999L12994.6503,-3300.0465L12994.7693,-3299.8466L12994.9707,-3299.6532L12994.9905,-3299.4865L12994.9905,-3299.2733L12995.0195,-3299.1665L12995.2194,-3298.8731L12995.2698,-3298.7465L12995.2194,-3298.6401L12995.1294,-3298.46L12994.9707,-3298.3532L12994.8593,-3298.2597L12994.8303,-3298.1533L12994.8105,-3298.0267L12994.8593,-3297.7932L12994.8807,-3297.6665L12994.8807,-3297.6532L12994.8303,-3297.5597L12994.6793,-3297.3999L12994.6655,-3297.3907L12994.4901,-3297.2733L12994.2902,-3296.9997L12994.2902,-3296.8597L12994.31,-3296.6599L12994.31,-3296.553L12994.3298,-3296.46L12994.4,-3296.2601L12994.2703,-3296.0667L12994.1803,-3295.9732L12994.1803,-3295.9198L12994.22,-3295.7397L12994.4,-3295.1065L12994.4,-3295.0397L12994.4901,-3294.733L12994.5602,-3294.2066L12994.5801,-3294.0468L12994.6503,-3293.8332L12994.6793,-3293.7401L12994.7006,-3293.6665L12994.8593,-3293.3067L12994.9905,-3293L12995.0195,-3292.9867L12995.0607,-3292.7868L12995.0195,-3292.6598L12994.8807,-3292.4599L12994.8593,-3292.4267L12994.8105,-3292.3199L12994.8303,-3292.0799L12994.8456,-3291.8968"/>
<path content="AP030,1,28,1,0,14,1,8,JPN" xlink:title="AP030" d="M12996.756,-3293.959L12996.5805,-3293.8866L12996.5805,-3293.8667L12996.4005,-3293.6531L12996.3104,-3293.5799L12996.3806,-3293.4868L12996.4294,-3293.4334L12996.4493,-3293.38L12996.4294,-3292.9268L12996.3303,-3292.7467L12996.2006,-3292.4999L12996.1426,-3292.4118L12995.9503,-3292.12L12995.8099,-3291.9197L12995.7001,-3291.9933L12995.3796,-3291.6866L12995.1797,-3291.4665L12994.9905,-3291.3067"/>
<path content="AP030,1,28,1,0,14,1,8,JPN" xlink:title="AP030" d="M12994.8456,-3291.8968L12994.9295,-3291.5798L12994.9707,-3291.3467L12994.9905,-3291.3067"/>
<path content="AP030,1,28,1,0,15,1,8,JPN" xlink:title="AP030" d="M12992.2394,-3291.1976L12993.5532,-3291.8362L12994.1055,-3291.8968L12994.8456,-3291.8968"/>
<path content="AP030,1,28,1,0,14,1,8,JPN" xlink:title="AP030" d="M12972.9767,-3300.0549L12973.0606,-3299.8333L12973.1293,-3299.5068L12973.2407,-3299.3599L12973.2407,-3299.3267L12973.4497,-3299.2733L12973.5397,-3299.2001L12973.6298,-3299.0932L12973.6099,-3298.9998L12973.6298,-3298.8934L12973.6496,-3298.84L12973.7,-3298.7999L12974.0601,-3298.6599L12974.2706,-3298.6931L12974.3301,-3298.6931L12974.4293,-3298.6599L12974.5605,-3298.6599L12974.6796,-3298.7331L12974.7696,-3298.8197L12974.8306,-3298.9666L12974.8795,-3299.0932L12975.0397,-3299.2332L12975.2701,-3299.4667L12975.3098,-3299.4667L12975.4303,-3299.3797L12975.47,-3299.3797L12975.6104,-3299.3797L12975.7401,-3299.3797L12975.7706,-3299.3465L12975.8301,-3299.2733L12976.1093,-3299.1264L12976.2695,-3299.073L12976.3794,-3298.9666L12976.5396,-3298.7865L12976.5594,-3298.7667L12976.68,-3298.6401L12976.77,-3298.6198L12976.8997,-3298.6198L12977.3804,-3298.6797L12977.5406,-3298.5867L12977.5604,-3298.5531L12977.6306,-3298.5332L12977.6993,-3298.46L12977.7893,-3298.3532L12977.9495,-3298.28L12978.0197,-3298.1934L12978.0197,-3298.0999L12977.9694,-3297.813L12977.9694,-3297.72L12978.0594,-3297.5597L12978.0396,-3297.4331L12978.0594,-3297.2198L12978.0594,-3297.0398L12978.0197,-3296.9467L12977.9297,-3296.8399L12977.9297,-3296.7133L12977.9297,-3296.553L12977.9007,-3296.5134L12977.9007,-3296.46L12977.9297,-3296.4268L12977.9907,-3296.3734L12978.0197,-3296.32L12978.0396,-3296.1731L12978.1097,-3296.1201L12978.1494,-3296.0999L12978.1494,-3296.0464L12978.1296,-3295.993L12978.0807,-3295.9198L12978.1296,-3295.6665L12978.2394,-3295.5799L12978.3798,-3295.4533L12978.3997,-3295.38L12978.3997,-3295.3068L12978.3096,-3295.2L12978.3096,-3295.1466L12978.36,-3295.0733L12978.36,-3295.0397L12978.3096,-3294.9131L12978.1494,-3294.68L12978.0396,-3294.5L12978.0197,-3294.2265L12978.0396,-3293.94L12978.0594,-3293.8332L12978.1494,-3293.7733L12978.2196,-3293.6867L12978.2196,-3293.6131L12978.1799,-3293.3468L12978.1799,-3293.3067L12978.1799,-3293.1065L12978.1296,-3293L12978.1296,-3292.8932L12978.1799,-3292.7868L12978.2394,-3292.7334L12978.4897,-3292.6598L12978.5202,-3292.5865L12978.5202,-3292.5331L12978.5599,-3292.4599L12978.6301,-3292.3531L12978.6102,-3292.1734L12978.54,-3292.0132L12978.3997,-3291.9399L12978.36,-3291.8465L12978.3295,-3291.7931L12978.36,-3291.74L12978.4302,-3291.6866L12978.5202,-3291.6332L12978.54,-3291.5932L12978.4897,-3291.56L12978.3997,-3291.5066L12978.2898,-3291.4131L12978.2898,-3291.3067L12978.2898,-3291.0732L12978.2196,-3290.9466L12978.1799,-3290.913"/>
<path content="AP030,1,28,1,0,14,1,8,JPN" xlink:title="AP030" d="M12994.9905,-3291.3067L12995.0195,-3291.2865L12995.2896,-3291.0198L12995.6497,-3290.7131L12995.7397,-3290.5865L12995.7703,-3290.5331L12995.7901,-3290.3866L12995.8603,-3290.1199L12995.99,-3289.8331L12996.1502,-3289.5397L12996.2402,-3289.5065L12996.5607,-3289.5065L12996.6034,-3289.5065L12996.7896,-3289.5065L12996.8307,-3289.4665L12996.8597,-3289.4665L12996.8994,-3289.3066L12996.9894,-3289.2864L12997.11,-3289.3265L12997.1497,-3289.3467L12997.3068,-3289.399"/>
<path content="AP030,1,28,1,0,16,1,8,JPN" xlink:title="AP030" d="M12996.756,-3293.959L12996.8094,-3293.8999L12996.9894,-3293.6665L12997.0596,-3293.56L12997.0795,-3293.3998L12997.0795,-3293.3067L12997.11,-3293.1065L12997.11,-3292.7467L12997.11,-3292.4999L12997.1298,-3292.2798L12997.1802,-3292.0666L12997.2198,-3291.8331L12997.3602,-3291.5398L12997.5204,-3291.2197L12997.6501,-3291.04L12997.7707,-3290.7997L12997.8302,-3290.5865L12997.9004,-3290.2798L12997.9507,-3289.9532L12998.0194,-3289.74L12998.1094,-3289.5931L12998.2697,-3289.4333L12998.6099,-3289.1666L12998.7396,-3289.0533L12998.8297,-3288.9992"/>
<path content="AP030,1,28,1,0,14,1,8,JPN" xlink:title="AP030" d="M12997.3068,-3289.399L12997.3099,-3289.3997L12997.4899,-3289.4333L12997.7005,-3289.3997L12998.6801,-3289.04L12998.8297,-3288.9992"/>
<path content="AP030,1,28,1,0,15,1,8,JPN" xlink:title="AP030" d="M12968.0206,-3287.9002L12970.8176,-3288.4052L12971.2402,-3288.6597L12972.4518,-3288.9626L12972.7875,-3289.233L12973.114,-3289.7907L12974.5377,-3290.4484L12975.8484,-3291.0957L12976.21,-3291.1526L12978.1799,-3290.913"/>
<path content="AP030,1,28,1,0,14,1,8,JPN" xlink:title="AP030" d="M12965.9973,-3303.6823L12966.1102,-3303.6133L12966.1804,-3303.5599L12966.1499,-3303.4531L12966.1301,-3303.36L12966.1301,-3303.3466L12966.1301,-3303.2532L12966.1102,-3303.1998L12966.0202,-3303.1998L12965.95,-3303.1998L12965.9302,-3303.1998L12965.8798,-3303.1799L12965.8295,-3303.0197L12965.7394,-3302.9999L12965.6494,-3303.0197L12965.5197,-3302.9865L12965.4007,-3302.9133L12965.3595,-3302.8599L12965.3305,-3302.7866L12965.2206,-3302.5333L12965.2405,-3302.4799L12965.3595,-3302.3731L12965.4007,-3302.3197L12965.3793,-3302.2598L12965.3107,-3302.2266L12965.2695,-3302.153L12965.2405,-3302.013L12965.2893,-3301.9199L12965.3305,-3301.8333L12965.3305,-3301.7933L12965.2405,-3301.7399L12965.2206,-3301.6331L12965.1794,-3301.5064L12965.1794,-3301.4133L12965.2206,-3301.3065L12965.3595,-3301.1066L12965.4297,-3301.0731L12965.5197,-3301.0399L12965.5396,-3300.9998L12965.5594,-3300.9132L12965.5807,-3300.84L12965.6494,-3300.7999L12965.77,-3300.7866L12965.77,-3300.7668L12965.77,-3300.7133L12965.6998,-3300.6397L12965.77,-3300.5531L12965.86,-3300.4997L12966.2704,-3300.2598L12966.3101,-3300.2266L12966.33,-3300.193L12966.3101,-3300.1331L12966.2399,-3300.1534L12966.1499,-3300.1198L12966.1102,-3300.0465L12966.0797,-3300.0267L12966.0599,-3299.9931L12966.04,-3299.9199L12965.9302,-3299.8867L12965.77,-3299.7932L12965.7394,-3299.7398L12965.6799,-3299.6532L12965.6494,-3299.5934L12965.3595,-3299.4667L12964.9002,-3299.3797L12964.8605,-3299.2867L12964.9307,-3299.1798L12964.8804,-3299.02L12964.7705,-3298.9666L12964.5401,-3298.7465L12964.5203,-3298.6797L12964.4897,-3298.6198L12964.4897,-3298.46L12964.4699,-3298.1533L12964.4699,-3298.0267L12964.5203,-3297.8664L12964.6103,-3297.6131L12964.5798,-3297.5597L12964.4897,-3297.4331L12964.5203,-3297.2733L12964.5203,-3297.1066L12964.4897,-3296.8731L12964.5203,-3296.7667L12964.5599,-3296.6064L12964.5401,-3296.46L12964.3997,-3296.0464L12964.36,-3295.6131L12964.2395,-3295.4132L12964.1495,-3295.2198L12964.0198,-3294.9867L12963.9694,-3294.8601L12963.8107,-3294.68L12963.7894,-3294.6068L12963.8596,-3294.5L12963.9496,-3294.3001L12963.9496,-3294.2265L12963.9297,-3294.0998L12963.9496,-3294.0266L12963.9496,-3293.9198L12963.8992,-3293.8465L12963.8992,-3293.7733L12963.9694,-3293.6333L12964.0793,-3293.4666L12964.1495,-3293.38L12964.1998,-3293.3067L12964.3097,-3293.3067L12964.5401,-3293.3067L12964.74,-3293.3067L12964.9307,-3293.2533L12965.0803,-3293.1999L12965.1794,-3293.1465L12965.2405,-3293.0401L12965.2695,-3292.7998L12965.3305,-3292.7132L12965.4297,-3292.6067L12965.4007,-3292.4999L12965.4297,-3292.4065L12965.5197,-3292.2798L12965.5396,-3292.1734L12965.5807,-3292.0998L12965.6494,-3292.0666L12965.86,-3292.0467L12966.1102,-3292.0799L12966.1804,-3292.0998L12966.2704,-3292.0799L12966.3101,-3292.0666L12966.4307,-3292.0467L12966.4307,-3291.9399L12966.4505,-3291.7065L12966.4307,-3291.6332L12966.33,-3291.5932L12966.2201,-3291.5264L12966.1102,-3291.3467L12966.0599,-3291.2331L12966.04,-3291.0732L12966.04,-3290.9866L12966.1301,-3290.9267L12966.1804,-3290.8733L12966.2399,-3290.8199L12966.2903,-3290.7467L12966.3605,-3290.7333L12966.4505,-3290.7867L12966.4902,-3290.7665L12966.5207,-3290.7131L12966.4902,-3290.5865L12966.5604,-3290.4999L12966.6306,-3290.2798L12966.6504,-3290.1199L12966.6824,-3290.0101L12966.7175,-3289.8937L12966.745,-3289.8106L12966.7709,-3289.7343L12966.9296,-3289.5931L12966.9296,-3289.5267L12966.8793,-3289.4531L12966.9296,-3289.3467L12967.1829,-3288.8985L12967.2394,-3288.8199L12967.2897,-3288.7665L12967.3599,-3288.6932L12967.3599,-3288.6066L12967.4301,-3288.533L12967.4698,-3288.4998L12967.5797,-3288.48L12967.63,-3288.48L12967.72,-3288.4266L12967.8101,-3288.2999L12967.9901,-3288.0131L12968.0206,-3287.9002"/>
<path content="AP030,1,28,1,0,14,1,8,JPN" xlink:title="AP030" d="M12978.1799,-3290.913L12978.0594,-3290.7131L12977.9297,-3290.48L12977.8595,-3290.3732L12977.8793,-3290.2599L12977.9297,-3290.1531L12977.9495,-3289.9532L12977.9297,-3289.8331L12977.8793,-3289.4531L12977.9007,-3289.2731L12977.9495,-3289.1998L12977.9694,-3289.1666L12978.3096,-3288.9465L12978.7704,-3288.6799L12978.83,-3288.6398L12978.8605,-3288.5532L12978.83,-3288.3331L12978.8101,-3288.2465L12978.7399,-3288.1531L12978.7704,-3288.0798L12978.83,-3287.8864L12978.8101,-3287.833L12978.7704,-3287.7731L12978.7003,-3287.7399L12978.6301,-3287.6331L12978.6102,-3287.5065L12978.5797,-3287.3264L12978.6102,-3287.273L12978.7201,-3287.0399L12978.7399,-3286.9667L12978.6804,-3286.9133L12978.5599,-3286.8198L12978.5599,-3286.713L12978.4698,-3286.2267L12978.4698,-3286.0798"/>
<path content="AP030,1,28,1,0,15,1,8,JPN" xlink:title="AP030" d="M13007.8125,-3294.4589L13007.5836,-3294.257L13007.457,-3294.6434L13007.3807,-3294.3054L13007.3792,-3294.0071L13006.9778,-3293.4418L13006.7017,-3292.8211L13006.8695,-3292.1074L13007.0053,-3290.6956L13006.929,-3290.3576L13007.3135,-3289.1663L13007.193,-3288.5593L13007.666,-3287.2765L13007.608,-3286.4765L13007.8125,-3286.1506"/>
<path content="AP030,1,28,1,0,16,1,8,JPN" xlink:title="AP030" d="M12998.8297,-3288.9992L12998.97,-3288.9133L12999.086,-3288.7829L12999.1302,-3288.7333L12999.2401,-3288.5864L12999.3301,-3288.4399L12999.4507,-3288.1931L12999.5605,-3287.8864L12999.6796,-3287.6331L12999.8093,-3287.4332L12999.8795,-3287.0197L12999.9893,-3286.6066L13000,-3286.5643L13000.0198,-3286.4799L13000.2197,-3286.0466L13000.5203,-3285.6865L13000.7706,-3285.3798L13000.8301,-3285.1665L13000.8469,-3284.9186"/>
<path content="AP030,1,28,1,0,15,1,8,JPN" xlink:title="AP030" d="M12997.3068,-3289.399L12997.316,-3289.2662L12997.3709,-3288.3797L12996.7087,-3288.0482L12996.6965,-3287.6759L12997.348,-3287.3875L12997.6212,-3287.5603L12998.703,-3286.1717L12999.292,-3285.9268L12999.6689,-3285.0201L13000,-3284.9342L13000.8469,-3284.9186"/>
<path content="AP030,1,28,1,0,14,1,8,JPN" xlink:title="AP030" d="M13005.8975,-3284.8389L13005.9006,-3284.84L13006.1798,-3285.0399L13006.3293,-3285.1799L13006.4697,-3285.22L13006.6101,-3285.3065L13006.7001,-3285.3798L13006.8802,-3285.4L13007.1503,-3285.4L13007.3593,-3285.4332L13007.4295,-3285.453L13007.4707,-3285.4866L13007.5806,-3285.5598L13007.6492,-3285.7399L13007.7896,-3285.9734L13007.8125,-3285.992"/>
<path content="AP030,1,28,1,0,14,1,8,JPN" xlink:title="AP030" d="M13005.8975,-3284.8389L13005.6793,-3284.7332L13005.6305,-3284.7332L13005.3299,-3284.7134L13005.2002,-3284.7332L13004.9698,-3284.7668L13004.6799,-3284.9133L13004.4296,-3284.9464L13004.4006,-3284.9464L13004.1962,-3284.9464L13004.1794,-3284.9464L13004.1306,-3284.9464L13004.0405,-3284.9464L13003.9001,-3284.9464L13004.0207,-3284.66L13004.0237,-3284.6489L13004.0237,-3284.6485L13004.0405,-3284.6066L13004.0604,-3284.5665L13003.9291,-3284.3857"/>
<path content="AP030,1,28,1,0,14,1,8,JPN" xlink:title="AP030" d="M13003.9291,-3284.3857L13003.7704,-3284.2464L13003.7003,-3284.1534L13003.6499,-3284.0466L13003.5797,-3284.0134L13003.4302,-3284.0134L13003.3096,-3284.0267"/>
<path content="AP030,1,28,1,0,14,1,8,JPN" xlink:title="AP030" d="M13002.6505,-3283.9931L13002.8305,-3284.0466L13003.1799,-3284.0466L13003.3096,-3284.0267"/>
<path content="AP030,1,28,1,0,14,1,8,JPN" xlink:title="AP030" d="M12998.8297,-3288.9992L12999.0204,-3288.9465L12999.3103,-3288.9133L12999.6796,-3288.8599L13000,-3288.847L13000.1801,-3288.8397L13000.2197,-3288.8397L13000.3296,-3288.8199L13000.3799,-3288.7333L13000.3799,-3288.6799L13000.3799,-3288.62L13000.7706,-3288.48L13001.0193,-3288.3732L13001.0803,-3288.3732L13001.1307,-3288.3732L13001.4297,-3288.2465L13001.6495,-3288.2267L13001.8997,-3288.0131L13001.9501,-3287.973L13002.1301,-3287.7598L13002.3102,-3287.3466L13002.33,-3287.273L13002.3605,-3287.1468L13002.4902,-3286.9133L13002.6794,-3286.6798L13002.7695,-3286.5868L13002.7405,-3286.2999L13002.7405,-3286.2801L13002.6993,-3286.013L13002.7893,-3285.6865L13002.8595,-3285.3065L13002.8595,-3285.2734L13002.7893,-3284.9667L13002.7695,-3284.6798L13002.7405,-3284.4067L13002.7405,-3284.3533L13002.7405,-3284.2999L13002.7069,-3284.1797L13002.6993,-3284.1534L13002.6794,-3284.0466L13002.6505,-3283.9931"/>
<path content="AP030,1,28,1,0,16,1,8,JPN" xlink:title="AP030" d="M13000.8469,-3284.9186L13000.8606,-3284.7134L13000.9506,-3284.2598L13001.0193,-3283.9931L13001.0315,-3283.9531L13001.0849,-3283.7746"/>
<path content="AP030,1,28,1,0,14,1,8,JPN" xlink:title="AP030" d="M13001.0849,-3283.7746L13001.3306,-3283.773L13001.6296,-3283.7601L13001.9501,-3283.7933L13002.0599,-3283.7933L13002.3605,-3283.9001L13002.6505,-3283.9931"/>
<path content="AP030,1,28,1,0,15,1,8,JPN" xlink:title="AP030" d="M13005.8975,-3284.8389L13006.4911,-3283.9863L13006.6437,-3283.6849L13006.7871,-3283.4"/>
<path content="AP030,1,28,1,0,15,1,8,JPN" xlink:title="AP030" d="M13003.9291,-3284.3857L13004.7272,-3284.124L13004.9469,-3283.7662L13004.982,-3283.49L13004.628,-3283.2737"/>
<path content="AP030,1,28,1,0,14,1,8,JPN" xlink:title="AP030" d="M13003.3096,-3284.0267L13003.3798,-3283.9531L13003.5202,-3283.8131L13003.5599,-3283.7399L13003.7201,-3283.58L13004.1306,-3283.3599L13004.628,-3283.2737"/>
<path content="AP030,1,28,1,0,14,1,8,JPN" xlink:title="AP030" d="M13006.7871,-3283.4L13006.7902,-3283.4L13007.1503,-3283.3267L13007.4905,-3283.2733L13007.7393,-3283.2733L13007.8125,-3283.2733"/>
<path content="AP030,1,28,1,0,14,1,8,JPN" xlink:title="AP030" d="M13004.628,-3283.2737L13004.6295,-3283.2733L13004.8599,-3283.2535L13005.1102,-3283.2333L13005.7007,-3283.2333L13005.8807,-3283.2733L13006.3599,-3283.3797L13006.5201,-3283.4L13006.6101,-3283.4L13006.7871,-3283.4"/>
<path content="AP030,1,28,1,0,14,1,8,JPN" xlink:title="AP030" d="M12992.8604,-3285.5801L12992.7399,-3285.593L12992.6498,-3285.6667L12992.5598,-3285.92L12992.54,-3286.0466L12992.6102,-3286.1732L12992.7399,-3286.3197L12992.8314,-3286.4311L12992.8299,-3286.4799L12992.7902,-3286.4799L12992.6804,-3286.4998L12992.63,-3286.4799L12992.5201,-3286.3331L12992.45,-3286.2999L12992.3599,-3286.2999L12992.1494,-3286.3197L12992.0197,-3286.3731L12991.8793,-3286.4998L12991.8304,-3286.5868L12991.7892,-3286.6798L12991.7404,-3286.6932L12991.5207,-3286.6398L12991.4505,-3286.5868L12991.3605,-3286.4067L12991.3101,-3286.3865L12991.2704,-3286.4067L12991.1804,-3286.5131L12991.1102,-3286.5868L12991.0797,-3286.5868L12990.8798,-3286.66L12990.7898,-3286.6798L12990.7394,-3286.713L12990.6799,-3286.8401L12990.6097,-3286.9267L12990.5197,-3287.0197L12990.4007,-3287.1067L12990.3107,-3287.1265L12990.2695,-3287.1666L12990.3107,-3287.3466L12990.2893,-3287.5065L12990.2405,-3287.5797L12990.1794,-3287.5931L12990.0803,-3287.5401L12989.8804,-3287.273L12989.7705,-3287.2334L12989.6301,-3287.1265L12989.5401,-3286.9999L12989.5401,-3286.9465L12989.6103,-3286.8401L12989.5401,-3286.8198L12989.36,-3286.66L12989.27,-3286.5868L12989.2197,-3286.5665L12989.18,-3286.5868L12989.1296,-3286.66L12989.0594,-3286.6798L12988.9694,-3286.7332L12988.8992,-3286.8401L12988.8306,-3286.9267L12988.8596,-3287.0533L12988.8107,-3287.1265L12988.7405,-3287.2334L12988.7405,-3287.3264L12988.6795,-3287.3264L12988.6093,-3287.273L12988.4705,-3287.22L12988.4003,-3287.22L12988.3102,-3287.273L12988.2004,-3287.36L12988.15,-3287.4531L12988.0798,-3287.5599L12988.0203,-3287.5599L12987.97,-3287.5599L12987.9303,-3287.5065L12987.9898,-3287.3264L12988.0203,-3287.273L12988.0402,-3287.1468L12988.1805,-3287.0197L12988.1805,-3286.9667L12988.1302,-3286.7664L12988.1104,-3286.6199L12988.2004,-3286.4799L12988.3102,-3286.2999L12988.2706,-3286.2801L12988.15,-3286.2267L12988.0203,-3286.2267L12987.8601,-3286.2064L12987.7197,-3286.153L12987.5397,-3286.1L12987.3596,-3286.0664L12987.2406,-3286.0664L12987.2406,-3286.013L12987.3306,-3285.9398L12987.3596,-3285.8665L12987.3993,-3285.7597L12987.3306,-3285.6533L12987.3093,-3285.5801L12987.3306,-3285.453L12987.3093,-3285.3798L12987.2192,-3285.1665L12987.1994,-3285.0933L12987.2696,-3284.9266L12987.2894,-3284.7866L12987.2696,-3284.6798L12987.0605,-3284.4997L12986.9904,-3284.4067L12987.0407,-3284.1534L12987.1307,-3284.0797L12987.2696,-3284.0134L12987.2894,-3283.9531L12987.2894,-3283.9001L12987.2192,-3283.8867L12987.1506,-3283.8867L12987.0605,-3283.8333L12986.9507,-3283.58L12986.7905,-3283.2535L12986.7706,-3283.1665"/>
<path content="AP030,1,28,1,0,14,1,8,JPN" xlink:title="AP030" d="M12978.4698,-3286.0798L12978.7704,-3285.9932L12978.8605,-3285.9932L12978.9902,-3286.0268L12979.1306,-3286.1L12979.5593,-3286.0798L12979.6799,-3286.1L12979.8599,-3286.153L12980.0201,-3286.0798L12980.3299,-3285.9734L12980.5801,-3285.9398L12980.7007,-3285.9932L12980.9692,-3286.1L12981.1096,-3286.1L12981.2698,-3286.0664L12981.4499,-3285.9932L12981.4896,-3285.8997L12981.5399,-3285.6133L12981.5796,-3285.54L12981.6803,-3285.4866L12982.0206,-3285.3798L12982.0801,-3285.3466L12982.1304,-3285.2734L12982.2006,-3285.0933L12982.2693,-3284.9998L12982.4295,-3284.893L12982.5607,-3284.8198L12982.6996,-3284.7134L12982.7896,-3284.6798L12982.9697,-3284.66L12982.9895,-3284.66L12983.02,-3284.5867L12983.0597,-3284.5333L12983.11,-3284.4997L12983.1497,-3284.4601L12983.1802,-3284.3864L12983.2397,-3284.2464L12983.3603,-3284.1732L12983.5403,-3284.1L12983.6105,-3284.0668L12983.6807,-3283.9931L12983.6807,-3283.7933L12983.6807,-3283.6132L12983.7906,-3283.5068L12983.8806,-3283.4332L12984.0195,-3283.4L12984.2896,-3283.3065L12984.4299,-3283.2001L12984.61,-3283.0933L12984.61,-3283.0399L12984.6298,-3283.0399"/>
<path content="AP030,1,28,1,0,14,1,8,JPN" xlink:title="AP030" d="M12984.6298,-3283.0399L12984.9304,-3283.0399L12985.1105,-3283.1799L12985.2402,-3283.2867L12985.3806,-3283.2733L12985.8597,-3283.1799L12986.6806,-3283.1467L12986.7401,-3283.1467L12986.7706,-3283.1665"/>
<path content="AP030,1,28,1,0,15,1,8,JPN" xlink:title="AP030" d="M12978.4698,-3286.0798L12978.0731,-3285.0357L12978.2104,-3284.4006L12978.3569,-3283.6941L12978.0365,-3282.9865"/>
<path content="AP030,1,28,1,0,14,1,8,JPN" xlink:title="AP030" d="M12992.8604,-3285.5801L12993.0603,-3285.5598L12993.1793,-3285.5598L12993.3105,-3285.593L12993.4494,-3285.6865L12993.6493,-3285.8467L12993.7698,-3285.9398L12994.0796,-3286.0798L12994.1498,-3286.0268L12994.1971,-3285.9707L12994.2398,-3285.92L12994.2703,-3285.92L12994.3604,-3285.92L12994.8105,-3285.92L12994.8807,-3285.8868L12995.0607,-3285.7399L12995.1096,-3285.6667L12995.1797,-3285.5801L12995.2194,-3285.5598L12995.3995,-3285.4866L12995.5399,-3285.4134L12995.5597,-3285.3798L12995.5597,-3285.3268L12995.3796,-3285.0399L12995.2896,-3284.9266L12995.1797,-3284.8732L12995.0394,-3284.7668L12995.0607,-3284.7332L12995.1096,-3284.6931L12995.3598,-3284.5131L12995.4498,-3284.4601L12995.52,-3284.4601L12995.61,-3284.4799L12995.6497,-3284.4601L12995.7397,-3284.3864L12995.7901,-3284.3731L12995.8801,-3284.4067L12995.9702,-3284.4398L12996.0403,-3284.4601L12996.2006,-3284.4265L12996.3303,-3284.4997L12996.4493,-3284.5131L12996.4706,-3284.4997L12996.4706,-3284.4265L12996.4706,-3284.3201L12996.4706,-3284.28L12996.8307,-3284.2999L12996.8994,-3284.3201L12996.8994,-3284.3731L12996.9299,-3284.4601L12997.02,-3284.4997L12997.11,-3284.4997L12997.1497,-3284.4799L12997.1802,-3284.4067L12997.2,-3284.3201L12997.29,-3284.2999L12997.4304,-3284.2999L12997.4579,-3284.2999L12997.4899,-3284.2999L12997.5204,-3284.2999L12997.5204,-3284.2464L12997.464,-3284.2304L12997.4503,-3284.2266L12997.3801,-3284.193L12997.3297,-3284.1534L12997.3297,-3284.0668L12997.29,-3284.0134L12997.2198,-3284.0134L12997.11,-3283.8333L12997.11,-3283.773L12997.1497,-3283.7399L12997.3099,-3283.6533L12997.3801,-3283.6132L12997.5601,-3283.4534L12997.7905,-3283.3065L12997.8378,-3283.2836L12997.9706,-3283.2199L12998.2697,-3283.1467L12998.7701,-3283.0399L12998.79,-3283.02L12998.8998,-3282.9666L12998.9502,-3282.8934"/>
<path content="AP030,1,28,1,0,14,1,8,JPN" xlink:title="AP030" d="M12998.9502,-3282.8934L12999.0799,-3282.8598L12999.2706,-3282.8197L12999.4003,-3282.8197L12999.5193,-3282.84L12999.6796,-3282.9132L12999.8306,-3282.9666L12999.9298,-3283.0399L13000,-3283.1078L13000.0397,-3283.1467L13000.2701,-3283.4133L13000.5203,-3283.6533L13000.6805,-3283.72L13000.7401,-3283.7601L13001.0849,-3283.7746"/>
<path content="AP030,1,28,1,0,14,1,8,JPN" xlink:title="AP030" d="M12978.0365,-3282.9865L12978.0396,-3282.9865L12978.1296,-3282.9865L12978.1799,-3282.9666L12978.2898,-3282.8732L12978.36,-3282.7133L12978.3997,-3282.6401L12978.3295,-3282.5535"/>
<path content="AP030,1,28,1,0,14,1,8,JPN" xlink:title="AP030" d="M12984.6298,-3283.0399L12984.7,-3282.4799L12984.7702,-3282.2266L12984.7397,-3282.0999L12984.6802,-3281.9534"/>
<path content="AP030,1,28,1,0,14,1,8,JPN" xlink:title="AP030" d="M12968.0206,-3287.9002L12968.0206,-3287.8998L12967.9901,-3287.7598L12967.9703,-3287.7068L12967.9504,-3287.6133L12967.9306,-3287.4866L12967.8101,-3287.273L12967.8101,-3287.22L12967.7902,-3287.1666L12967.7902,-3287.0197L12967.7902,-3286.8599L12967.9001,-3286.7867L12968.0603,-3286.6398L12968.1793,-3286.4799L12968.2693,-3286.3331L12968.3594,-3286.1L12968.4494,-3285.7731L12968.5593,-3285.453L12968.6096,-3285.4L12968.6493,-3285.3798L12968.7393,-3285.4134L12968.7698,-3285.4134L12968.7897,-3285.3798L12968.8293,-3285.2867L12968.8995,-3285.1665L12968.9499,-3285.1067L12969.0201,-3285.0933L12969.0399,-3285.0731L12969.0201,-3285.0399L12968.9896,-3284.9865L12969.0201,-3284.9464L12969.1101,-3284.9133L12969.1803,-3284.7866L12969.2703,-3284.7332L12969.3604,-3284.66L12969.3604,-3284.5867L12969.3604,-3284.5333L12969.3604,-3284.4601L12969.4305,-3284.4398L12969.4901,-3284.4265L12969.5801,-3284.4067L12969.7906,-3284.3731L12969.8593,-3284.2999L12969.9295,-3284.2266L12970.0195,-3284.193L12970.1797,-3284.1732L12970.2194,-3284.1732L12970.4895,-3284.193L12970.52,-3284.1732L12970.52,-3284.0466L12970.4498,-3283.9001L12970.3995,-3283.8131L12970.3995,-3283.6666L12970.3995,-3283.58L12970.4498,-3283.5266L12970.5399,-3283.5266L12970.6497,-3283.5598L12970.7397,-3283.6334L12970.8099,-3283.72L12970.8801,-3283.8665L12970.9702,-3283.9199L12970.9503,-3284.0267L12971.0403,-3284.2068L12971.1304,-3284.28L12971.1807,-3284.28L12971.2006,-3284.2464L12971.2204,-3284.0797L12971.2692,-3283.9733L12971.3104,-3283.9199L12971.4493,-3283.8665L12971.3593,-3283.7601L12971.3303,-3283.7067L12971.3593,-3283.6334L12971.3593,-3283.54L12971.4294,-3283.5266L12971.6995,-3283.4332L12971.8307,-3283.3599L12971.8597,-3283.2535L12971.8994,-3283.0734L12971.9299,-3283.0399L12972.0596,-3283.02L12972.2397,-3283.0399L12972.29,-3282.9266L12972.4701,-3282.7133L12972.4304,-3282.5867L12972.3602,-3282.4265L12972.4701,-3282.3532L12972.7005,-3282.2067L12972.7905,-3282.1533L12972.9294,-3282.1732L12973.0194,-3282.1732L12973.0804,-3282.1198L12973.1796,-3282.1335L12973.2407,-3282.32L12973.2895,-3282.3334L12973.3597,-3282.32L12973.3795,-3282.2067L12973.3795,-3282.1335L12973.3597,-3282.0667L12973.4299,-3282.0133L12973.6298,-3281.9L12973.7,-3281.8665L12973.9304,-3281.9199L12973.9899,-3281.9534L12974.1806,-3282.1198L12974.2905,-3282.1198L12974.5193,-3282.2998L12974.8093,-3282.3532L12974.9893,-3282.5535L12975.1099,-3282.6797L12975.2701,-3282.6935L12975.3998,-3282.6599L12975.4898,-3282.6065L12975.6302,-3282.4265L12975.6805,-3282.4066L12975.7706,-3282.4398L12975.9003,-3282.5535L12975.9293,-3282.5535L12976.0803,-3282.5001L12976.1795,-3282.5134L12976.4297,-3282.5665L12976.5594,-3282.6065L12976.6495,-3282.6065L12976.7899,-3282.6401L12977.0203,-3282.6935L12977.1103,-3282.6797L12977.1805,-3282.6599L12977.33,-3282.5867L12977.3804,-3282.5867L12977.5192,-3282.6599L12977.5604,-3282.7332L12977.7405,-3282.7866L12977.8595,-3282.8732L12977.9694,-3282.9865L12978.0365,-3282.9865"/>
<path content="AP030,1,28,1,0,15,1,8,JPN" xlink:title="AP030" d="M12992.8604,-3285.5801L12992.7582,-3285.2924L12992.5018,-3285.0716L12992.2455,-3284.977L12991.9907,-3285.1032L12991.8076,-3285.1665L12991.5146,-3285.0403L12991.1499,-3284.8824L12990.7471,-3284.8824L12990.4907,-3284.7561L12990.419,-3284.4402L12990.564,-3284.2827L12990.6448,-3284.161L12990.7104,-3284.0614L12990.6738,-3283.8718L12990.419,-3283.7139L12990.1627,-3283.651L12990.126,-3283.5247L12990.1627,-3283.3351L12990.2725,-3283.0509L12990.2359,-3282.4509L12989.8331,-3282.0087L12988.4705,-3281.675L12988.4354,-3281.6891L12987.6022,-3282.0133L12987.5305,-3282.5462L12987.2009,-3282.8938L12986.7706,-3283.1665"/>
<path content="AP030,1,28,1,0,14,1,8,JPN" xlink:title="AP030" d="M12998.9502,-3282.8934L12998.7396,-3282.8934L12998.5397,-3282.8732L12997.7905,-3282.5665L12997.4304,-3282.3532L12997.1802,-3282.1335L12996.9299,-3281.9199L12996.6095,-3281.6334L12996.5805,-3281.6334L12996.4706,-3281.4335"/>
<path content="AP030,1,28,1,0,16,1,8,JPN" xlink:title="AP030" d="M12993.5364,-3281.179L12993.5394,-3281.1798L12993.6996,-3281.2199L12994.0598,-3281.3465L12994.2902,-3281.3999L12994.5801,-3281.5067L12994.9707,-3281.7932L12995.2194,-3281.8333L12995.3995,-3281.8134L12995.5597,-3281.6532L12995.61,-3281.4865L12995.6802,-3281.2733L12995.7703,-3281.2199L12995.8298,-3281.1665L12995.9763,-3281.1665L12996.0403,-3281.1665L12996.3593,-3281.3801L12996.4706,-3281.4335"/>
<path content="AP030,1,28,1,0,16,1,8,JPN" xlink:title="AP030" d="M12997.11,-3281.1665L12997.2198,-3281.2733L12997.4304,-3281.5266L12997.9904,-3281.9199L12998.6496,-3282.1533L12999.0402,-3282.2067L12999.6796,-3282.28L12999.9496,-3282.32L13000.3356,-3282.4433L13000.6247,-3282.7495L13000.8961,-3283.051L13001.1307,-3283.5934L13001.1093,-3283.6864L13001.0849,-3283.7746"/>
<path content="AP030,1,28,1,0,16,1,8,JPN" xlink:title="AP030" d="M12996.4706,-3281.4335L12996.5195,-3281.4533L12996.6507,-3281.3465L12997.0398,-3281.1665L12997.11,-3281.1665"/>
<path content="AP030,1,28,1,0,14,1,8,JPN" xlink:title="AP030" d="M12984.6802,-3281.9534L12984.6497,-3281.9199L12984.5398,-3281.5067L12984.4696,-3280.9998L12984.4696,-3280.9132L12984.5398,-3280.8201L12984.6802,-3280.6934"/>
<path content="AP030,1,28,1,0,15,1,8,JPN" xlink:title="AP030" d="M12978.3295,-3282.5535L12979.1595,-3282.3273L12980.1834,-3282.169L12980.6213,-3282.169L12980.9143,-3282.011L12981.0974,-3281.3477L12981.4255,-3280.7159L12981.7917,-3280.621L12982.1198,-3280.621L12982.4127,-3280.8418L12982.7057,-3281.0947L12983.4,-3280.9998L12984.1675,-3280.7785L12984.6802,-3280.6934"/>
<path content="AP030,1,28,1,0,15,1,8,JPN" xlink:title="AP030" d="M13006.7871,-3283.4L13006.7871,-3283.3996L13007.8125,-3281.9834"/>
<path content="AP030,1,28,1,0,16,1,8,JPN" xlink:title="AP030" d="M12988.5803,-3279.6131L12988.7405,-3279.7066L12988.7894,-3279.7733L12988.8596,-3279.8466L12988.8596,-3280.0667L12988.8596,-3280.1933L12988.9496,-3280.3333L12989.1495,-3280.4066L12989.3295,-3280.5L12989.5401,-3280.5866L12989.8102,-3280.5134L12989.9506,-3280.5L12990.1794,-3280.5534L12990.6998,-3280.6599L12990.86,-3280.6599L12991.0202,-3280.6801L12991.4307,-3280.8598L12991.6107,-3280.9666L12991.8594,-3281.1665L12991.9296,-3281.1665L12992.1097,-3281.1665L12992.1997,-3281.1665L12992.3599,-3281.3065L12992.5201,-3281.4533L12992.7002,-3281.4865L12992.8604,-3281.4533L12993.0405,-3281.3465L12993.2404,-3281.2L12993.4296,-3281.1466L12993.5364,-3281.179"/>
<path content="AP030,1,28,1,0,16,1,8,JPN" xlink:title="AP030" d="M12984.6802,-3281.9534L12985.08,-3281.72L12985.2905,-3281.5399L12985.4004,-3281.4335L12985.527,-3281.2927L12985.5804,-3281.2332L12985.7697,-3281.02L12985.9299,-3280.8735L12986.1496,-3280.6801L12986.3098,-3280.5534L12986.5601,-3280.3867L12986.6501,-3280.3333L12986.8301,-3280.2265L12987.1506,-3280.1201L12987.2894,-3280.08L12987.4298,-3280.08L12987.8799,-3280.0667L12988.0203,-3280.0133L12988.1104,-3279.94L12988.2401,-3279.8332L12988.4506,-3279.7066L12988.4705,-3279.6867L12988.5803,-3279.6131"/>
<path content="AP030,1,28,1,0,16,1,8,JPN" xlink:title="AP030" d="M12987.5595,-3279.3999L12987.6236,-3279.414L12987.8601,-3279.4666L12988.1104,-3279.5265L12988.4293,-3279.5799L12988.5803,-3279.6131"/>
<path content="AP030,1,28,1,0,16,1,8,JPN" xlink:title="AP030" d="M12988.5803,-3279.6131L12988.4705,-3279.4334L12988.324,-3279.2992L12988.3102,-3279.2866L12988.0402,-3279.1267"/>
<path content="AP030,1,28,1,0,14,1,8,JPN" xlink:title="AP030" d="M12996.4706,-3281.4335L12996.4706,-3281.2866L12996.5195,-3280.9998L12996.4706,-3280.7999L12996.3593,-3280.5668L12996.2006,-3280.32L12996.1502,-3280.1201L12996.1502,-3280.0133L12996.0403,-3279.9732L12995.6299,-3279.8664L12995.5597,-3279.8332L12995.3598,-3279.5799L12995.1492,-3279.3064L12995.0806,-3279.2198L12994.9005,-3279.1466L12994.7693,-3279.0932L12994.6793,-3279.0199"/>
<path content="AP030,1,28,1,0,15,1,8,JPN" xlink:title="AP030" d="M12993.5364,-3281.179L12993.663,-3280.7598L12993.5883,-3280.4249L12993.7057,-3280.1071L12994.0857,-3279.8622L12994.3329,-3279.5036L12994.3939,-3279.4144L12994.6793,-3279.0199"/>
<path content="AP030,1,28,1,0,16,1,8,JPN" xlink:title="AP030" d="M12997.11,-3281.1665L12996.9049,-3280.4695L12996.7997,-3280.0126L12996.6494,-3279.5557L12996.46,-3279.196L12996.2588,-3278.9845L12995.87,-3278.741L12994.91,-3278.347L12994.7901,-3278.281"/>
<path content="AP030,1,28,1,0,14,1,8,JPN" xlink:title="AP030" d="M12994.6793,-3279.0199L12994.5801,-3278.7666L12994.6304,-3278.5866L12994.7901,-3278.281"/>
<path content="AP030,1,28,1,0,14,1,8,JPN" xlink:title="AP030" d="M12987.5595,-3279.3999L12987.4298,-3279.3266L12987.3093,-3279.2534L12987.1506,-3279.1267L12987.1094,-3278.9997L12987.0193,-3278.82L12986.9904,-3278.7865L12986.8805,-3278.7132L12986.6806,-3278.5667L12986.6501,-3278.5534L12986.5601,-3278.4798L12986.2679,-3278.1835"/>
<path content="AP030,1,28,1,0,14,1,8,JPN" xlink:title="AP030" d="M12984.6802,-3280.6934L12984.8801,-3280.4798L12984.9304,-3280.3867L12984.9503,-3280.32L12985.1105,-3280.1731L12985.1913,-3280.1334L12985.3302,-3280.0667L12985.3607,-3280.0465L12985.3806,-3279.8866L12985.4294,-3279.7066L12985.5668,-3279.5144L12985.811,-3279.4146L12985.9567,-3279.3447L12986.0749,-3279.1917L12986.1616,-3279.0686L12986.2167,-3278.9588L12986.2837,-3278.8024L12986.3073,-3278.4298L12986.3034,-3278.3033L12986.2679,-3278.1835"/>
<path content="AP030,1,28,1,0,15,1,8,JPN" xlink:title="AP030" d="M13004.628,-3283.2737L13004.6265,-3283.2729L13003.9307,-3282.872L13003.3768,-3282.0187L13003.5172,-3281.5063L13003.4943,-3281.2252L13003.2761,-3280.7957L13003.1693,-3280.2448L13003.299,-3279.6658L13003.2059,-3279.3289L13002.684,-3278.6758L13002.3071,-3278.0464"/>
<path content="AP030,1,28,1,0,14,1,8,JPN" xlink:title="AP030" d="M13002.3071,-3278.0464L13002.3102,-3278.0464L13002.6505,-3278.0666L13002.8595,-3278.12L13003.0396,-3278.1734L13003.2196,-3278.2265L13003.4302,-3278.3531L13003.7399,-3278.4065L13004.2404,-3278.5133L13004.4006,-3278.5534L13004.4495,-3278.5667L13004.4693,-3278.6064L13004.5197,-3278.6598L13004.6295,-3278.8933L13004.6997,-3278.9867L13004.95,-3279.0398L13005.22,-3278.9997L13005.3604,-3279.0199L13005.5603,-3279.0932L13005.8594,-3279.1267L13006.1798,-3279.1798L13006.3095,-3279.1664L13006.3599,-3279.1267L13006.4499,-3279.0733L13006.6803,-3279.0199L13006.8802,-3279.0531L13007.1503,-3279.1267L13007.3593,-3279.2198L13007.6096,-3279.3999L13007.8125,-3279.5491"/>
<path content="AP030,1,28,1,0,14,1,8,JPN" xlink:title="AP030" d="M13000.0595,-3278.1334L13000.3601,-3278.1734L13000.4898,-3278.2265L13000.65,-3278.2265L13000.9506,-3278.1532L13001.3794,-3278.0266L13001.4694,-3278.0266L13001.6998,-3278.0266L13002.2903,-3278.0464L13002.3071,-3278.0464"/>
<path content="AP030,1,28,1,0,16,1,8,JPN" xlink:title="AP030" d="M12994.7901,-3278.281L12994.2004,-3277.9565"/>
<path content="AP030,1,28,1,0,14,1,8,JPN" xlink:title="AP030" d="M12994.7901,-3278.281L12994.7906,-3278.2799L12994.9295,-3278.08L12995.1096,-3277.8465L12995.1294,-3277.7931L12995.1294,-3277.6867"/>
<path content="AP030,1,28,1,0,16,1,4,JPN" xlink:title="AP030" d="M12988.9694,-3276.9665L12988.8596,-3277.2198L12988.6993,-3277.4864L12988.5193,-3277.8133L12988.2904,-3278.2265L12988.1104,-3278.5332L12987.9898,-3278.82L12987.97,-3278.9867L12988.0402,-3279.1267"/>
<path content="AP030,1,28,1,0,16,1,8,JPN" xlink:title="AP030" d="M12988.9694,-3276.9665L12989.0198,-3276.86"/>
<path content="AP030,1,28,1,0,14,1,8,JPN" xlink:title="AP030" d="M12997.7707,-3276.82L12997.9507,-3277.0199L12998.2407,-3277.1999L12998.8098,-3277.4334L12999.0204,-3277.4532L12999.3607,-3277.3598L12999.3805,-3277.3598L12999.5407,-3277.38L12999.6796,-3277.56L12999.7406,-3277.6867L12999.8596,-3277.7599L12999.8795,-3277.8133L12999.9298,-3277.9732L12999.9298,-3278.0132L13000,-3278.0781L13000.0595,-3278.1334"/>
<path content="AP030,1,28,1,0,14,1,8,JPN" xlink:title="AP030" d="M12995.1294,-3277.6867L12995.52,-3277.6134L12995.7199,-3277.56L12995.99,-3277.4132L12996.0403,-3277.3998L12996.4294,-3277.3998L12996.7407,-3277.2198L12996.9498,-3277.2198L12997.0795,-3277.2198L12997.1497,-3277.2198L12997.2198,-3277.2198L12997.29,-3277.2331L12997.4899,-3277L12997.6303,-3276.9466L12997.7707,-3276.82"/>
<path content="AP030,1,28,1,0,15,1,8,JPN" xlink:title="AP030" d="M13002.3071,-3278.0464L13003.125,-3276.807"/>
<path content="AP030,1,28,1,0,14,1,8,JPN" xlink:title="AP030" d="M12997.7707,-3276.82L12997.7005,-3276.7666L12997.0517,-3276.704"/>
<path content="AP030,1,28,1,0,16,1,8,JPN" xlink:title="AP030" d="M12995.3995,-3276.3866L12995.7199,-3276.4797L12995.8801,-3276.4999L12996.0602,-3276.4797L12996.4493,-3276.4797L12996.6293,-3276.5133L12997.0517,-3276.704"/>
<path content="AP030,1,28,1,0,15,1,8,JPN" xlink:title="AP030" d="M12997.7707,-3276.82L12998.4604,-3276.4801L12999.0082,-3276.2589L12999.3378,-3276.3535L12999.7025,-3276.8272L13000,-3277.3399L13000.032,-3277.3956L13000.1053,-3277.8061L13000.0595,-3278.1334"/>
<path content="AP030,1,28,1,0,16,1,4,JPN" xlink:title="AP030" d="M12994.2004,-3277.9565L12993.57,-3277.492L12993.3139,-3277.0807L12993.16,-3276.616L12993.1035,-3276.2557"/>
<path content="AP030,1,28,1,0,14,1,8,JPN" xlink:title="AP030" d="M12994.7693,-3276.12L12995.0195,-3276.2798L12995.3995,-3276.3866"/>
<path content="AP030,1,28,1,0,14,1,8,JPN" xlink:title="AP030" d="M12995.1294,-3277.6867L12995.1096,-3277.5265L12995.0195,-3277.2732L12994.9295,-3276.9665L12994.7693,-3276.6598L12994.7693,-3276.4599L12994.7693,-3276.12"/>
<path content="AP030,1,28,1,0,14,1,8,JPN" xlink:title="AP030" d="M12994.22,-3276.0132L12994.4504,-3276.0468L12994.6106,-3276.0468L12994.6793,-3276.0468L12994.7693,-3276.12"/>
<path content="AP030,1,28,1,0,14,1,8,JPN" xlink:title="AP030" d="M12993.001,-3275.8501L12993.1107,-3275.8865L12993.5196,-3276.1932L12993.8599,-3276.1532L12993.9499,-3276.12L12994.22,-3276.0132"/>
<path content="AP030,1,28,1,0,16,1,8,JPN" xlink:title="AP030" d="M12993.1035,-3276.2557L12993.001,-3275.8501"/>
<path content="AP030,1,28,1,0,14,1,8,JPN" xlink:title="AP030" d="M12986.2679,-3278.1835L12986.2466,-3278.1067L12986.2427,-3277.9869L12986.2427,-3277.774L12986.2427,-3277.5511L12986.2396,-3277.4532L12986.2701,-3277.3464L12986.286,-3277.1851L12986.4199,-3277.0487L12986.4869,-3276.9355L12986.4829,-3276.7226L12986.5013,-3276.4838L12986.5761,-3276.2675L12986.6391,-3276.1244L12986.7848,-3275.9747L12986.8073,-3275.8831L12986.8103,-3275.8331"/>
<path content="AP030,1,28,1,0,15,1,8,JPN" xlink:title="AP030" d="M12989.0198,-3276.86L12989.0198,-3276.7334L12989.0793,-3276.5865L12988.9297,-3276.3733L12988.9297,-3276.3L12988.9297,-3276.26L12988.9496,-3276.2066L12988.8596,-3275.8865L12988.7894,-3275.6134L12988.7695,-3275.5798L12988.7207,-3275.3998L12988.6883,-3275.2389"/>
<path content="AP030,1,28,1,0,14,1,8,JPN" xlink:title="AP030" d="M12986.8103,-3275.8331L12986.673,-3275.7679L12986.2396,-3275.56L12986.3098,-3275.3597L12986.3602,-3275.2197L12986.3602,-3275.1465"/>
<path content="AP030,1,28,1,0,14,1,8,JPN" xlink:title="AP030" d="M12986.8103,-3275.8331L12986.8607,-3275.7935L12986.9507,-3275.6535L12986.9904,-3275.5264L12987.0193,-3275.3998L12987.0819,-3275.2988L12987.1134,-3275.0626"/>
<path content="AP030,1,28,1,0,14,1,8,JPN" xlink:title="AP030" d="M12986.3602,-3275.1465L12987.1134,-3275.0626"/>
<path content="AP030,1,28,1,0,14,1,8,JPN" xlink:title="AP030" d="M12988.6883,-3275.2389L12989.2946,-3275.1956L12989.4599,-3275.1358L12989.5505,-3275.0892L12989.7158,-3275.0626L12990.2695,-3275.1801L12990.5594,-3275.2335L12990.9897,-3275.2533L12991.3379,-3275.4828L12991.7449,-3275.7089L12992.4987,-3275.8748L12992.8101,-3275.8465L12992.9901,-3275.8465L12993.001,-3275.8501"/>
<path content="AP030,1,28,1,0,16,1,8,JPN" xlink:title="AP030" d="M12993.001,-3275.8501L12992.85,-3275.253L12992.6227,-3274.9611"/>
<path content="AP030,1,28,1,0,14,1,8,JPN" xlink:title="AP030" d="M12987.1134,-3275.0626L12987.1134,-3274.6932L12987.0937,-3274.5535"/>
<path content="AP030,1,28,1,0,14,1,8,JPN" xlink:title="AP030" d="M12988.6883,-3275.2389L12988.4363,-3275.2655L12988.3339,-3275.2589L12988.204,-3275.2156L12988.0203,-3275.0935L12987.8799,-3275.0198L12987.8708,-3275.0111L12987.8601,-3275L12987.6801,-3274.8734L12987.5793,-3274.7334L12987.4695,-3274.5335L12987.4205,-3274.3938"/>
<path content="AP030,1,28,1,0,14,1,8,JPN" xlink:title="AP030" d="M12987.0937,-3274.5535L12987.4205,-3274.3938"/>
<path content="AP030,1,28,1,0,14,1,8,JPN" xlink:title="AP030" d="M12978.3295,-3282.5535L12978.2898,-3282.5001L12978.2898,-3282.46L12978.3997,-3282.2598L12978.3997,-3282.0999L12978.2196,-3281.9534L12978.1097,-3281.8665L12978.0396,-3281.7932L12977.9694,-3281.7066L12977.9907,-3281.6334L12977.9007,-3281.4533L12977.8107,-3281.3267L12977.7206,-3281.1665L12977.6794,-3281.0398L12977.6093,-3280.9265L12977.5604,-3280.8201L12977.5604,-3280.7667L12977.6093,-3280.7465L12977.6505,-3280.7331L12977.6993,-3280.7133L12977.7206,-3280.64L12977.5803,-3280.6599L12977.4307,-3280.64L12977.3605,-3280.5668L12977.3102,-3280.5134L12977.3605,-3280.46L12977.4307,-3280.4066L12977.5406,-3280.32L12977.6093,-3280.2799L12977.7893,-3280.2265L12977.8305,-3280.1533L12977.8595,-3280.0667L12977.8305,-3279.9L12977.8305,-3279.8332L12977.8595,-3279.6867L12977.8107,-3279.6131L12977.8305,-3279.5265L12977.9694,-3279.4533L12978.1296,-3279.3999L12978.2394,-3279.4865L12978.27,-3279.4865L12978.2898,-3279.4334L12978.2394,-3279.2732L12978.2394,-3279.2198L12978.1296,-3279.1565L12978.1372,-3279.1004L12978.1815,-3278.9948L12978.27,-3278.8734L12978.3798,-3278.8597L12978.6804,-3278.7998L12978.7201,-3278.7998L12978.7903,-3278.7464L12979.0726,-3278.6209L12979.2694,-3278.1933L12979.3106,-3278.1334L12979.4693,-3278.0132L12979.4907,-3277.9934L12979.6494,-3277.8866L12979.8996,-3277.8465L12980.1804,-3277.8866L12980.1804,-3277.7733L12980.1804,-3277.6867L12980.22,-3277.6134L12980.2704,-3277.56L12980.2399,-3277.5066L12980.22,-3277.3598L12980.2704,-3277.2533L12980.3299,-3277.1267L12980.04,-3276.8734L12979.9698,-3276.82L12979.9698,-3276.7666L12980.0201,-3276.7132L12980.0598,-3276.68L12980.5405,-3276.3866L12980.6793,-3276.3332L12980.8304,-3276.2798L12980.8594,-3276.26L12980.9494,-3276.1932L12981.1996,-3276.0998L12981.3599,-3276.0998L12981.6101,-3276.1932L12981.7001,-3276.2264L12981.7398,-3276.2066L12981.7703,-3276.2066L12981.7703,-3276.1532L12981.7001,-3275.9399L12981.6299,-3275.8331L12981.6101,-3275.7198L12981.6101,-3275.6535L12981.4301,-3275.3597L12981.3599,-3275.2865L12981.3599,-3275.2335L12981.3797,-3275.1266L12981.3797,-3275.0732L12981.2698,-3274.9268L12981.2698,-3274.7997L12981.3293,-3274.7131L12981.4301,-3274.6201L12981.4301,-3274.5533L12981.3995,-3274.4801L12981.3599,-3274.44L12981.2897,-3274.4064L12981.1996,-3274.3534L12981.1996,-3274.3L12981.2195,-3274.2599L12981.2393,-3274.2798L12981.4301,-3274.3332L12981.5201,-3274.3732L12981.72,-3274.6067L12981.8604,-3274.6067L12982.1304,-3274.6067L12982.1793,-3274.6201L12982.2693,-3274.7131L12982.3303,-3274.7467L12982.5607,-3274.7334L12982.6492,-3274.6933L12982.7698,-3274.6201L12982.8796,-3274.6201L12983.02,-3274.6067L12983.11,-3274.5533L12983.1299,-3274.4267L12983.1802,-3274.3332L12983.3298,-3274.2065L12983.4503,-3274.1199L12983.58,-3274.1199L12983.7204,-3274.1531L12983.9905,-3274.3534L12984.1095,-3274.3534L12984.1797,-3274.3534L12984.2407,-3274.3534L12984.5398,-3274.4267L12984.6802,-3274.3866L12984.79,-3274.3732L12984.8999,-3274.3732L12984.8999,-3274.3534L12984.8602,-3274.2798L12984.7702,-3274.2798L12984.7198,-3274.2466L12984.7,-3274.2268L12984.7702,-3274.1932L12984.9503,-3274.2065L12985.0403,-3274.2065L12985.1105,-3274.2268L12985.1105,-3274.2599L12985.08,-3274.3534L12985.1501,-3274.3866L12985.2707,-3274.3332L12985.3806,-3274.3L12985.6995,-3274.3L12985.7697,-3274.3534L12985.8307,-3274.5335L12985.8994,-3274.5335L12985.9695,-3274.5865L12986.2,-3274.7665L12986.29,-3274.86L12986.3602,-3275.0732L12986.3602,-3275.1465"/>
<path content="AP030,1,28,1,0,16,1,4,JPN" xlink:title="AP030" d="M12992.6227,-3274.9611L12991.63,-3274.056L12991.2404,-3273.73"/>
<path content="AP030,1,28,1,0,14,1,8,JPN" xlink:title="AP030" d="M12987.4205,-3274.3938L12987.6804,-3274.274L12987.8497,-3274.2075L12988.1371,-3274.1243L12988.2706,-3273.9399L12988.3102,-3273.8335L12988.3606,-3273.8132L12988.4293,-3273.7598L12988.4903,-3273.6534L12988.6505,-3273.5065L12988.7695,-3273.4531L12988.8794,-3273.4135L12988.9496,-3273.4135L12989.0594,-3273.4531L12989.1998,-3273.5397L12989.2197,-3273.5397L12989.2197,-3273.4867L12989.18,-3273.3467L12989.1098,-3273.2864L12989.0594,-3273.2334L12989.0793,-3273.1998L12989.2197,-3273.1667"/>
<path content="AP030,1,28,1,0,16,1,8,JPN" xlink:title="AP030" d="M12991.2404,-3273.73L12990.68,-3273.161L12990.4076,-3272.8576"/>
<path content="AP030,1,28,1,0,14,1,8,JPN" xlink:title="AP030" d="M12989.2197,-3273.1667L12989.7964,-3273.1462L12990.0366,-3273.0446L12990.4076,-3272.8576"/>
<path content="AP030,1,28,1,0,14,1,8,JPN" xlink:title="AP030" d="M12989.2197,-3273.1667L12989.2197,-3273.1266L12989.1998,-3272.9866L12989.1495,-3272.7867L12989.1296,-3272.6799L12989.1296,-3272.5864L12989.18,-3272.4998L12989.27,-3272.3732L12989.3097,-3272.2797"/>
<path content="AP030,1,28,1,0,14,1,8,JPN" xlink:title="AP030" d="M12990.4076,-3272.8576L12990.12,-3272.539L12989.83,-3272.318L12989.49,-3272.265L12989.3097,-3272.2797"/>
<path content="AP030,1,28,1,0,15,1,8,JPN" xlink:title="AP030" d="M12994.22,-3276.0132L12995.2286,-3273.9849L12994.2657,-3273.9944L12993.5822,-3273.1205L12992.72,-3272.3259L12991.7587,-3271.4272L12991.2491,-3271.4291L12990.9271,-3270.3869"/>
<path content="AP030,1,28,1,0,14,1,8,JPN" xlink:title="AP030" d="M12989.3097,-3272.2797L12989.3097,-3272.1931L12989.3295,-3272.1535L12989.4501,-3272.0135L12989.4897,-3271.92L12989.5401,-3271.8334L12989.5798,-3271.7598L12989.6103,-3271.7068L12989.6103,-3271.6667L12989.6103,-3271.4333L12989.7202,-3271.4664L12989.8102,-3271.4664L12989.8605,-3271.4001L12989.9704,-3271.1666L12989.9902,-3271.0732L12990.0192,-3270.9866L12990.0803,-3270.8935L12990.0803,-3270.7867L12990.1093,-3270.6066L12990.1993,-3270.4998L12990.3305,-3270.4067L12990.3595,-3270.3865L12990.4495,-3270.4067L12990.6799,-3270.4266L12990.9271,-3270.3869"/>
<path content="AP030,1,28,1,0,14,1,8,JPN" xlink:title="AP030" d="M12987.0937,-3274.5535L12987.0898,-3274.4504L12987.0937,-3274.3372L12987.1506,-3274.1333L12987.1567,-3274.0577L12987.0504,-3273.8781L12986.9835,-3273.7783L12986.9284,-3273.6918L12986.8301,-3273.6134L12986.7706,-3273.5268L12986.7004,-3273.3467L12986.5204,-3273.1667L12986.29,-3272.9866L12986.2396,-3272.9267L12986.0794,-3272.8199L12986.0794,-3272.7867L12986.1099,-3272.7333L12986.1801,-3272.6601L12986.2,-3272.5334L12986.1298,-3272.3L12986.0794,-3272.1001L12985.9695,-3272.0665L12985.9299,-3272.0665L12985.8597,-3272.0135L12985.7895,-3271.9532L12985.6293,-3271.9734L12985.3302,-3272.0135L12985.2402,-3272.0135L12985.2005,-3271.9532L12985.1303,-3271.8666L12985.1105,-3271.8132L12985.1105,-3271.6667L12985.08,-3271.5599L12985.0601,-3271.4134L12985.0601,-3271.3467L12985.0204,-3271.2734L12985.0204,-3271.1998L12985.0204,-3271.0934L12985.0601,-3270.9267L12985.0204,-3270.7867L12984.9701,-3270.7134L12984.9503,-3270.66L12984.9899,-3270.5532L12984.9899,-3270.4597L12984.9701,-3270.4067L12984.8297,-3270.3533L12984.79,-3270.2999L12984.7397,-3270.1733L12984.7,-3270.0665L12984.7702,-3270.0134L12984.8297,-3269.9734L12984.8602,-3269.92L12984.8801,-3269.8666L12984.8602,-3269.7598L12984.6802,-3269.5801L12984.6802,-3269.4866L12984.6802,-3269.3466L12984.6802,-3269.0933L12984.6298,-3268.8934L12984.61,-3268.7668L12984.4696,-3268.6066L12984.2697,-3268.4265L12984.2407,-3268.3533L12984.1995,-3268.2465L12984.1797,-3268.1934"/>
<path content="AP030,1,28,1,0,15,1,8,JPN" xlink:title="AP030" d="M12980.6076,-3268.7984L12981.3873,-3269.347L12982.8903,-3268.1915L12983.3694,-3268.4261L12984.1797,-3268.1934"/>
<path content="AP030,1,28,1,0,14,1,8,JPN" xlink:title="AP030" d="M12984.1797,-3268.1934L12984.0607,-3267.9531L12983.9294,-3267.72L12983.8806,-3267.58L12983.9005,-3267.4332L12983.9294,-3267.2867L12983.8593,-3267.0532L12983.7906,-3266.9865L12983.5403,-3266.6599L12983.3603,-3266.3734L12983.3099,-3266.2266L12983.3099,-3265.9931L12983.2397,-3265.9397L12983.1299,-3265.8333L12983.1299,-3265.7734L12983.11,-3265.6334L12983.0597,-3265.5598L12982.93,-3265.4667L12982.8598,-3265.2866L12982.8583,-3265.284"/>
<path content="AP030,1,28,1,0,15,1,8,JPN" xlink:title="AP030" d="M12982.8583,-3265.284L12983.3725,-3264.3623"/>
<path content="AP030,1,28,1,0,15,1,8,JPN" xlink:title="AP030" d="M12990.9271,-3270.3869L12990.9271,-3270.3865L12990.2618,-3268.4715L12989.6301,-3267.6498L12989.7064,-3267.0353L12989.4775,-3267.0624L12988.5635,-3265.7852L12988.0829,-3265.551L12987.6358,-3265.5106L12986.0443,-3264.3585L12985.4691,-3264.312L12984.8907,-3263.9729L12984.2667,-3264.4428L12983.3725,-3264.3623"/>
<path content="AP030,1,28,1,0,15,1,8,JPN" xlink:title="AP030" d="M12983.3725,-3264.3623L12983.3572,-3262.6873L12982.3288,-3261.8774L12981.4575,-3260.2692L12980.7571,-3260.445L12979.5364,-3259.3784L12979.5349,-3258.9481L12978.8559,-3258.5041L12978.0945,-3258.7223L12977.7206,-3258.0265"/>
<path content="AP030,1,28,1,0,14,1,8,JPN" xlink:title="AP030" d="M12982.8583,-3265.284L12982.7194,-3265.1066L12982.5607,-3265.1665L12982.4905,-3265.1466L12982.3807,-3265.1798L12982.3303,-3265.2L12982.2403,-3265.1665L12982.1793,-3265.1466L12981.9504,-3265.1466L12981.8802,-3265.1466L12981.8604,-3265.0932L12981.81,-3265.02L12981.72,-3264.9666L12981.6299,-3264.9467L12981.4301,-3264.9467L12981.3797,-3264.9265L12981.3599,-3264.8933L12981.2698,-3264.8197L12981.1493,-3264.7667L12981.0196,-3264.7667L12980.9296,-3264.7667L12980.8807,-3264.7331L12980.8304,-3264.6797L12980.8594,-3264.5535L12980.8594,-3264.3734L12980.8807,-3264.1933L12980.7693,-3264.0667L12980.6107,-3263.8866L12980.4306,-3263.7932L12980.3101,-3263.7932L12980.2902,-3263.7398L12980.1804,-3263.5597L12980.1102,-3263.5067L12979.9698,-3263.5067L12979.8599,-3263.4865L12979.7699,-3263.4335L12979.5807,-3263.2198L12979.5593,-3263.1466L12979.5197,-3263.0531L12979.4495,-3262.8201L12979.3106,-3262.6801L12979.1504,-3262.5866L12979.1107,-3262.5332L12979.1107,-3262.4798L12979.1107,-3262.3734L12979.1107,-3262.3199L12979.1504,-3262.2467L12979.1504,-3262.1532L12979.1504,-3262.0464L12979.0405,-3261.9198L12979.0405,-3261.8866L12979.0405,-3261.6135L12979.0604,-3261.5398L12979.0604,-3261.4532L12978.9703,-3261.2865L12978.9307,-3261.2534L12978.9505,-3261.2L12978.9505,-3261.1267L12978.9307,-3261.0733L12978.83,-3261.0199L12978.7201,-3261.0535L12978.6102,-3261.0535L12978.5599,-3261.0199L12978.54,-3260.9665L12978.54,-3260.8734L12978.5599,-3260.7468L12978.5202,-3260.6934L12978.45,-3260.64L12978.4698,-3260.6068L12978.5202,-3260.5331L12978.4698,-3260.4599L12978.3798,-3260.3733L12978.27,-3260.26L12978.1799,-3260.26L12978.0197,-3260.2467L12977.9297,-3260.1933L12977.8305,-3260.1532L12977.7405,-3260.1532L12977.6505,-3260.1532L12977.6093,-3260.0998L12977.6093,-3260.0666L12977.6093,-3259.9197L12977.4002,-3259.7935L12977.2903,-3259.8133L12977.24,-3259.7935L12976.8997,-3259.56L12976.6998,-3259.4131L12976.5594,-3259.3468L12976.3992,-3259.2865L12976.2695,-3259.2865L12976.1505,-3259.2731L12976.1307,-3259.2533L12976.1307,-3259.1999L12976.2405,-3259.0733L12976.2894,-3258.9466L12976.2695,-3258.8398L12976.1505,-3258.6399L12976.0803,-3258.4999L12976.0803,-3258.4267L12975.9705,-3258.26L12976.1307,-3258.3199L12976.3596,-3258.3733L12976.4297,-3258.3534L12976.5198,-3258.3199L12976.7197,-3258.3332L12976.86,-3258.3L12977.1103,-3258.2268L12977.2705,-3258.1532L12977.4002,-3258.0799L12977.5192,-3258.0265L12977.6794,-3258.0132L12977.7206,-3258.0265"/>
<path content="AP030,1,28,1,0,14,1,8,JPN" xlink:title="AP030" d="M12977.7206,-3258.0265L12977.7695,-3257.8335L12977.8305,-3257.7065L12977.9297,-3257.6134"/>
<path content="AP030,1,28,1,0,14,1,8,JPN" xlink:title="AP030" d="M13003.1494,-3252.3335L13003.1097,-3252.2465L13003.1296,-3252.1198L13003.2898,-3251.8867L13003.4302,-3251.6533L13003.5797,-3251.4L13003.7704,-3251.1467L13003.8605,-3251.0399L13003.9902,-3250.9266L13004.1107,-3250.8598"/>
<path content="AP030,1,28,1,0,14,1,8,JPN" xlink:title="AP030" d="M13004.1107,-3250.8598L13004.8294,-3250.8598L13005.0171,-3250.8598"/>
<path content="AP030,1,28,1,0,14,1,8,JPN" xlink:title="AP030" d="M13005.0171,-3250.8598L13005.0201,-3250.8598L13005.1498,-3250.8934L13005.2704,-3250.9666L13005.4306,-3251.1467L13005.6107,-3251.2531L13006.1096,-3251.3466L13006.6101,-3251.4534L13006.7703,-3251.5266L13006.8604,-3251.58L13006.9305,-3251.6335L13007.0206,-3251.8131L13007.0602,-3251.8665L13007.0801,-3251.8867L13007.2693,-3251.9398L13007.6096,-3252.0267L13007.7698,-3252.0798L13007.8125,-3252.1051"/>
<path content="AP030,1,28,1,0,15,1,8,JPN" xlink:title="AP030" d="M13005.0171,-3250.8598L13006.0867,-3250.2941L13006.8696,-3249.4632L13007.486,-3248.0963L13007.8125,-3247.7911"/>
<path content="AP030,1,28,1,0,14,1,8,JPN" xlink:title="AP030" d="M13004.1107,-3250.8598L13004.3106,-3250.6931L13004.5807,-3250.4799L13004.6799,-3250.4265L13004.7394,-3250.2998L13004.7195,-3250.1934L13004.7195,-3250.1202L13004.7699,-3249.9535L13004.8798,-3249.72L13004.9301,-3249.6132L13004.9896,-3249.4534L13005.0201,-3249.3999L13005.04,-3249.2867L13004.9896,-3249.2001L13004.8996,-3249.0734L13004.8294,-3248.9864L13004.7699,-3248.7465L13004.7394,-3248.5535L13004.6097,-3248.4066L13004.4296,-3248.28L13004.3106,-3248.1731L13004.2007,-3248.0465L13004.1504,-3247.7932L13004.1107,-3247.7066L13004.0405,-3247.5601L13003.9703,-3247.4335L13003.9703,-3247.3465L13003.9307,-3247.2733L13003.9001,-3247.1664L13003.83,-3247.02L13003.7903,-3246.9467L13003.8605,-3246.8201L13003.8803,-3246.6202L13003.8101,-3246.4802L13003.5599,-3246.2467L13003.3295,-3246.0667L13003.3096,-3245.9732L13003.2394,-3245.8134L13003.1097,-3245.6665L13003.0197,-3245.6333L13002.9007,-3245.5399L13002.8305,-3245.4533L13002.7695,-3245.2534L13002.6993,-3245.1267L13002.5192,-3244.8933L13002.4902,-3244.82L13002.4506,-3244.7334L13002.4506,-3244.64L13002.3804,-3244.5L13002.3102,-3244.4065L13002.1805,-3244.2467L13002.0599,-3244.0468L13001.9699,-3243.9201L13001.9501,-3243.8667L13001.8097,-3243.7599L13001.6098,-3243.6535L13001.5198,-3243.4868L13001.3794,-3243.3266L13001.2207,-3243.1667L13001.1307,-3243.1065L13001.0193,-3243.0733L13000.9293,-3243.0401L13000.8804,-3242.9867L13000.9293,-3242.9134"/>
<path content="AP030,1,28,1,0,15,1,8,JPN" xlink:title="AP030" d="M13007.6904,-3241.5577L13007.8125,-3241.5919"/>
<path content="AP030,1,28,1,0,15,1,8,JPN" xlink:title="AP030" d="M13000.9293,-3242.9134L13001.8463,-3242.5495L13002.9984,-3242.7299L13004.3076,-3243.0916L13005.1453,-3243.0912L13006.2973,-3243.0004L13007.2693,-3241.5833L13007.6904,-3241.5577"/>
<path content="AP030,1,28,1,0,14,1,8,JPN" xlink:title="AP030" d="M13000.9293,-3242.9134L13000.8606,-3242.8398L13000.8102,-3242.7666L13000.8102,-3242.7132L13000.7904,-3242.5331L13000.7706,-3242.4065L13000.7004,-3242.3332L13000.56,-3242.1532L13000.47,-3242.0467L13000.4303,-3241.8465L13000.3998,-3241.7065L13000.3601,-3241.5798L13000.3998,-3241.5264L13000.4501,-3241.4867L13000.3998,-3241.4131L13000.3998,-3241.3601L13000.5203,-3241.2334L13000.56,-3241.04L13000.6302,-3240.9866L13000.7706,-3240.8932L13000.8102,-3240.7131L13000.8606,-3240.6601L13000.8606,-3240.5666L13000.7904,-3240.5132L13000.56,-3240.3332L13000.56,-3240.2466L13000.56,-3240.1733L13000.6104,-3240.1333L13000.6805,-3240.1333L13000.7401,-3240.1531L13000.7706,-3240.1199L13000.7706,-3240.0665L13000.8804,-3239.9734L13000.9293,-3239.92L13000.9003,-3239.8865L13000.8301,-3239.8464L13000.7401,-3239.8335L13000.6302,-3239.8666L13000.47,-3239.9734L13000.3601,-3239.9933L13000.2701,-3239.9933L13000.1495,-3239.92L13000.0397,-3239.7934L13000.0198,-3239.74L13000.0198,-3239.6332L13000,-3239.5622L12999.9893,-3239.5267L12999.8795,-3239.4867L12999.9298,-3239.3799L12999.9893,-3239.1998L12999.9893,-3239.04L12999.9893,-3238.9465L12999.9893,-3238.7665L13000,-3238.6955L13000.0198,-3238.5532L13000.0198,-3238.4266L13000,-3238.3644L12999.9893,-3238.3331L13000,-3238.3045L13000.0198,-3238.2465L13000.0397,-3238.1332L13000.0198,-3238.0466L13000,-3238.0112L12999.9893,-3237.9932L12999.9893,-3237.9002L12999.9893,-3237.6667L12999.9893,-3237.3466L12999.9908,-3237.3444"/>
<path content="AP030,1,28,1,0,15,1,8,JPN" xlink:title="AP030" d="M13007.6904,-3241.5577L13007.7988,-3240.2931L13007.8125,-3240.2609"/>
<path content="AP030,1,28,1,0,15,1,8,JPN" xlink:title="AP030" d="M12999.9908,-3237.3444L13000,-3237.339L13000.6989,-3236.9492L13001.3733,-3236.6722L13002.0111,-3236.7023L13002.3483,-3236.6806L13002.1271,-3236.5055L13001.8768,-3236.3022L13002.2797,-3236.0012L13002.8549,-3235.7929L13003.421,-3235.8944L13003.2333,-3235.4378L13003.5812,-3235.339L13004.1077,-3235.7735L13004.4174,-3235.9821L13005.0308,-3235.9585L13005.3955,-3235.9646L13005.4382,-3235.8646L13005.249,-3235.667L13005.2902,-3235.3336L13005.6839,-3235.1093L13006.5655,-3234.375"/>
<path content="AP030,1,28,1,0,14,1,8,JPN" xlink:title="AP030" d="M12999.9908,-3237.3444L13000,-3237.3154L13000.0198,-3237.2532L13000.0198,-3237.2002L13000.0793,-3236.9865L13000.1495,-3236.8198L13000.1801,-3236.66L13000.1297,-3236.4799L13000.0595,-3236.3731L13000,-3236.2934L12999.9893,-3236.2801L12999.6796,-3235.9932L12999.5804,-3235.8868L12999.5193,-3235.7735L12999.3607,-3235.6133L12999.2706,-3235.5801L12999.1302,-3235.5801L12999.1104,-3235.4866L12999.0402,-3235.3466L12999.0402,-3235.2867L12999.0204,-3235.1467L12999.0402,-3235.0735L12999.0601,-3234.9865L12999.1302,-3234.8732L12999.1302,-3234.8202L12999.1501,-3234.7332L12999.1501,-3234.6931L12999.2401,-3234.5867L12999.2401,-3234.5333L12999.1812,-3234.375"/>
</g>
</svg>
