<?xml version="1.0" encoding="UTF-8"?>
<svg  xmlns="http://www.w3.org/2000/svg" xmlns:xlink="http://www.w3.org/1999/xlink" xmlns:go="http://purl.org/svgmap/profile" property="f_code,acc,exs,rst,med,rtt,RSU,loc,soc" viewBox="14062.5 -4078.125 70.3125 70.3125" go:dataArea="14062.5 -4078.125 70.3125 70.3125" >
<metadata>
 <rdf:RDF xmlns:rdf="http://www.w3.org/1999/02/22-rdf-syntax-ns#" xmlns:crs="http://opengis.org/xmldtds/transformations.dtd" xmlns:svg="http://www.w3.org/svg" >
  <rdf:Description>
   <crs:CoordinateReferenceSystem rdf:resource="http://purl.org/crs/84" svg:transform="matrix(100.0,0.0,0.0,-100.0,0.0,0.0)" />
  </rdf:Description>
 </rdf:RDF>
</metadata>
<globalCoordinateSystem srsName="http://purl.org/crs/84" transform="matrix(100.0,0.0,0.0,-100.0,0.0,0.0)" />
<defs>
 <g id="p0" >
  <circle cx="0.0" cy="0.0" r="3" stroke="green" stroke-width="2.0" vector-effect="non-scaling-stroke" />
 </g>
</defs>
<g fill="none" fill-rule="evenodd" stroke="#00ff00" stroke-width="2" opacity="0.5" vector-effect="non-scaling-stroke" stroke-linejoin="bevel" >
<path content="AP030,1,28,1,0,16,1,8,JPN" xlink:title="AP030" d="M14095.0265,-4078.125L14095.1096,-4078.0132"/>
<path content="AP030,1,28,1,0,14,1,8,JPN" xlink:title="AP030" d="M14122.0398,-4078.0132L14122.29,-4078.0666L14122.4854,-4078.125"/>
<path content="AP030,1,28,1,0,14,1,8,JPN" xlink:title="AP030" d="M14122.0398,-4078.0132L14121.8597,-4077.9732"/>
<path content="AP030,1,28,1,0,15,1,8,JPN" xlink:title="AP030" d="M14121.7757,-4078.125L14121.8597,-4077.9732"/>
<path content="AP030,1,28,1,0,15,1,8,JPN" xlink:title="AP030" d="M14076.5704,-4077.8078L14077.368,-4078.125"/>
<path content="AP030,1,28,1,0,14,1,8,JPN" xlink:title="AP030" d="M14076.4673,-4078.125L14076.5704,-4077.8078"/>
<path content="AP030,1,28,1,0,16,1,8,JPN" xlink:title="AP030" d="M14098.5199,-4077.2732L14098.7701,-4077.3067L14098.9304,-4077.3998L14099.0799,-4077.4666L14099.2905,-4077.5265L14099.4904,-4077.5799L14099.6796,-4077.5799L14099.8093,-4077.5932L14099.9893,-4077.5932L14100.1099,-4077.6531L14100.2197,-4077.6867L14100.3098,-4077.6867L14100.4303,-4077.6867L14100.5402,-4077.7199L14100.6302,-4077.7599L14100.7004,-4077.7599L14100.7904,-4077.7599L14100.9003,-4077.7065L14101.0605,-4077.6867L14101.3107,-4077.6665L14101.7899,-4077.6531L14102.0401,-4077.6665L14102.2003,-4077.7065L14102.6505,-4077.9732L14102.8595,-4078.08L14102.9945,-4078.125"/>
<path content="AP030,1,28,1,0,16,1,4,JPN" xlink:title="AP030" d="M14095.1096,-4078.0132L14095.3995,-4077.8667L14096.9696,-4077.56L14098.3093,-4077.2732L14098.5199,-4077.2732"/>
<path content="AP030,1,28,1,0,15,1,8,JPN" xlink:title="AP030" d="M14072.3648,-4077.1172L14072.8653,-4077.9167L14073.2997,-4078.125"/>
<path content="AP030,1,28,1,0,15,1,8,JPN" xlink:title="AP030" d="M14071.5516,-4078.125L14072.3648,-4077.1172"/>
<path content="AP030,1,28,1,0,15,1,8,JPN" xlink:title="AP030" d="M14072.3648,-4077.1172L14073.8281,-4076.939L14076.5704,-4077.8078"/>
<path content="AP030,1,28,1,0,15,1,8,JPN" xlink:title="AP030" d="M14071.7148,-4075.7576L14072.3648,-4077.1172"/>
<path content="AP030,1,28,1,0,15,1,8,JPN" xlink:title="AP030" d="M14069.7629,-4074.5041L14071.7148,-4075.7576"/>
<path content="AP030,1,28,1,0,14,1,8,JPN" xlink:title="AP030" d="M14121.8597,-4077.9732L14121.7697,-4077.9198L14121.6995,-4077.6867L14121.5225,-4077.6535L14121.2006,-4077.56L14120.8801,-4077.4334L14120.7397,-4077.38L14120.7703,-4077.3464L14120.8603,-4077.2331L14121.0205,-4077.0931L14121.0403,-4076.9867L14121.0602,-4076.7666L14121.1304,-4076.6399L14121.2204,-4076.5133L14121.2006,-4075.9399L14121.2692,-4075.8133L14121.3104,-4075.7198L14121.3303,-4075.4868L14121.3104,-4075.3265L14121.3303,-4075.1801L14121.5195,-4075L14121.6507,-4074.86L14121.7697,-4074.5865L14121.8307,-4074.4267L14121.9498,-4074.3332L14122.0596,-4074.2065L14122.0596,-4074.1333L14121.9696,-4074.0997"/>
<path content="AP030,1,28,1,0,16,1,8,JPN" xlink:title="AP030" d="M14062.5,-4077.1675L14063.06,-4077.8465L14063.3804,-4078.0998L14063.4147,-4078.125"/>
<path content="AP030,1,28,1,0,16,1,8,JPN" xlink:title="AP030" d="M14067.9306,-4073.0732L14068.1503,-4073.1998L14068.2907,-4073.4135L14068.4006,-4073.7934L14068.4692,-4073.8667L14068.7195,-4073.9933L14068.7897,-4074.0265L14069.22,-4074.2466L14069.31,-4074.2798L14069.5801,-4074.3866L14069.7629,-4074.5041"/>
<path content="AP030,1,28,1,0,15,1,8,JPN" xlink:title="AP030" d="M14122.0398,-4078.0132L14122.1329,-4077.6257L14122.4655,-4077.4353L14123.1766,-4077.0935L14123.8876,-4076.4095L14124.4095,-4075.8778L14124.7894,-4075.6878L14125.1694,-4074.8524L14125.5478,-4074.1684L14125.9705,-4073.7816L14127.2095,-4073.0667"/>
<path content="AP030,1,28,1,0,15,1,8,JPN" xlink:title="AP030" d="M14066.5741,-4072.8588L14067.4301,-4072.8397L14067.9306,-4073.0732"/>
<path content="AP030,1,28,1,0,15,1,8,JPN" xlink:title="AP030" d="M14126.0208,-4072.7169L14127.0279,-4073.0133L14127.2095,-4073.0667"/>
<path content="AP030,1,28,1,0,15,1,8,JPN" xlink:title="AP030" d="M14121.9696,-4074.0997L14123.7396,-4073.6656L14124.4568,-4073.3162L14125.238,-4072.768L14126.0208,-4072.7169"/>
<path content="AP030,1,28,1,0,15,1,8,JPN" xlink:title="AP030" d="M14066.5741,-4072.8588L14067.453,-4072.4815L14069.165,-4072.8382L14070.4147,-4072.7989L14071.0144,-4072.839L14071.4142,-4072.9591L14071.6141,-4073.3189L14071.6141,-4073.6389L14071.3654,-4074.3584L14071.3654,-4074.8779L14071.7148,-4075.7576"/>
<path content="AP030,1,28,1,0,15,1,8,JPN" xlink:title="AP030" d="M14062.5,-4072.6378L14063.2172,-4073.0354L14064.0671,-4073.3154L14064.7659,-4073.2758L14066.066,-4073.0766L14066.5741,-4072.8588"/>
<path content="AP030,1,28,1,0,14,1,8,JPN" xlink:title="AP030" d="M14115.7196,-4070.6932L14116.1301,-4070.8401L14116.4703,-4071.04L14116.6504,-4071.1998L14116.8106,-4071.3467L14116.8518,-4071.3676L14117.0197,-4071.4535L14117.45,-4071.6667L14117.6498,-4071.74L14117.9001,-4071.7934L14118.3304,-4071.8334L14118.5593,-4071.8666L14118.7393,-4071.8998L14119.0201,-4071.9933L14119.3298,-4072.1733L14119.4504,-4072.1931L14119.6106,-4072.2065L14119.7006,-4072.2466L14119.8303,-4072.3198L14119.9005,-4072.3331L14120.0195,-4072.3534L14120.1294,-4072.3866L14120.2698,-4072.4998L14120.43,-4072.5666L14120.5597,-4072.7665L14120.9503,-4073.4665L14120.9503,-4073.5931L14120.9305,-4073.7198L14120.9305,-4073.8132L14120.9702,-4073.8865L14121.1105,-4073.9399L14121.3806,-4073.9532L14121.7697,-4073.9201L14121.9498,-4073.8998L14121.9498,-4074.0131L14121.9696,-4074.0997"/>
<path content="AP030,1,28,1,0,14,1,8,JPN" xlink:title="AP030" d="M14114.6112,-4078.125L14114.5401,-4077.6665L14114.5401,-4077.6333L14114.4501,-4077.0397L14114.3997,-4076.82L14114.3997,-4076.7666L14114.3997,-4076.6598L14114.4302,-4076.6197L14114.4501,-4076.5667L14114.7003,-4076.0998L14114.7202,-4076.0666L14114.83,-4075.8331L14114.9902,-4075.4868L14115.1505,-4075.1465L14115.2695,-4074.9134L14115.4007,-4074.6933L14115.4907,-4074.5667L14115.77,-4074.1734L14115.8798,-4073.9735L14115.95,-4073.7934L14115.9897,-4073.7064L14116.0797,-4073.6332L14116.1804,-4073.5931L14116.1804,-4073.3601L14116.1804,-4073.2735L14116.1804,-4073.1266L14116.2003,-4072.9668L14116.1804,-4072.86L14115.8997,-4072.2797L14115.6799,-4071.7731L14115.6494,-4071.7068L14115.6494,-4071.6133L14115.6799,-4071.4333L14115.7196,-4071.18L14115.7196,-4070.8935L14115.7196,-4070.6932"/>
<path content="AP030,1,28,1,0,14,1,8,JPN" xlink:title="AP030" d="M14115.7196,-4070.6932L14115.7196,-4070.5868L14115.7196,-4070.2267L14115.7394,-4070.1199L14115.7898,-4070.0134"/>
<path content="AP030,1,28,1,0,14,1,8,JPN" xlink:title="AP030" d="M14115.1428,-4069.7235L14115.1993,-4069.7399L14115.3107,-4069.7598L14115.3107,-4069.7987L14115.3107,-4069.8868L14115.4007,-4069.8868L14115.4907,-4069.92L14115.7898,-4070.0134"/>
<path content="AP030,1,28,1,0,15,1,8,JPN" xlink:title="AP030" d="M14115.0604,-4069.6865L14115.1428,-4069.7235"/>
<path content="AP030,1,28,1,0,14,1,8,JPN" xlink:title="AP030" d="M14115.0604,-4069.6865L14115.1306,-4069.7201L14115.1428,-4069.7235"/>
<path content="AP030,1,28,1,0,14,1,8,JPN" xlink:title="AP030" d="M14115.7898,-4070.0134L14115.8295,-4069.9398L14116.0599,-4069.6667"/>
<path content="AP030,1,28,1,0,15,1,8,JPN" xlink:title="AP030" d="M14123.4619,-4069.2944L14123.9883,-4070.1874L14125.7568,-4071.9723L14126.0208,-4072.7169"/>
<path content="AP030,1,28,1,0,14,1,8,JPN" xlink:title="AP030" d="M14114.7003,-4069.2867L14114.83,-4069.4332L14114.9902,-4069.5801L14115.0604,-4069.6335L14115.0604,-4069.6865"/>
<path content="AP030,1,28,1,0,15,1,8,JPN" xlink:title="AP030" d="M14116.0599,-4069.6667L14117.7216,-4070.1988L14118.895,-4069.7994L14121.4386,-4069.2486L14123.4619,-4069.2944"/>
<path content="AP030,1,28,1,0,15,1,8,JPN" xlink:title="AP030" d="M14127.2095,-4073.0667L14129.866,-4071.3947L14131.1951,-4070.5967L14132.1915,-4070.1786L14132.8125,-4069.8672"/>
<path content="AP030,1,28,1,0,14,1,8,JPN" xlink:title="AP030" d="M14095.9503,-4066.9865L14096.0205,-4067.1265L14096.08,-4067.2333L14096.1807,-4067.3065L14096.2204,-4067.3599L14096.2006,-4067.4534L14096.2006,-4067.54L14096.3593,-4067.8867L14096.4294,-4067.9398L14096.5805,-4067.9932L14096.6293,-4068.0466L14096.6095,-4068.3334L14096.6507,-4068.4399L14096.7407,-4068.5135L14097.0795,-4068.7134L14097.2,-4068.7668L14097.29,-4068.7866L14097.3602,-4068.7668L14097.3999,-4068.7332L14097.5204,-4068.6066L14097.58,-4068.5867L14097.6807,-4068.5665L14097.9706,-4068.6398L14098.1293,-4068.6398L14098.2407,-4068.6798L14098.3795,-4068.6932L14098.5397,-4068.6932L14098.6496,-4068.66L14099.2203,-4068.2999L14099.3103,-4068.2068L14099.4293,-4068.0134L14099.4904,-4067.9733L14099.6796,-4067.9398L14099.7406,-4067.8333L14099.8306,-4067.6865L14099.9695,-4067.4L14100.0397,-4067.3267L14100.1297,-4067.3065L14100.2197,-4067.3065L14100.3998,-4067.3599L14100.47,-4067.4133L14100.47,-4067.4534L14100.4501,-4067.5266L14100.47,-4067.58L14100.4898,-4067.5934L14100.5798,-4067.6533L14100.7004,-4067.6666L14100.8301,-4067.6533L14101.0193,-4067.6533L14101.2405,-4067.6533L14101.4297,-4067.6865L14101.4893,-4067.7067L14101.5396,-4067.7399L14101.5198,-4067.8467L14101.4893,-4067.9199L14101.5198,-4067.9531L14101.5594,-4067.9733L14101.6098,-4067.9733L14101.68,-4067.9531L14101.7899,-4067.8867L14101.9501,-4067.7933L14102.2202,-4067.7601L14102.4307,-4067.7399L14102.6093,-4067.7734L14102.7405,-4067.8333L14102.7893,-4067.8665L14102.9007,-4067.8867L14103.0396,-4067.9001L14103.1494,-4067.9398L14103.2898,-4067.9733L14103.5202,-4067.9932L14103.7704,-4067.9932L14103.9307,-4067.9733L14104.0604,-4067.9001L14104.2694,-4067.8131L14104.4495,-4067.7601L14104.6097,-4067.7399L14104.8096,-4067.7601L14105.0797,-4067.8131L14105.2704,-4067.8867L14105.4504,-4067.9199L14105.6503,-4067.9733L14105.8594,-4068.0668L14105.9692,-4068.1L14106.1996,-4068.1198L14106.4697,-4068.1198L14106.6101,-4068.1332L14106.7398,-4068.1934L14106.8802,-4068.2266L14106.9901,-4068.2598L14107.0801,-4068.3334L14107.1793,-4068.4265L14107.3105,-4068.4601L14107.6797,-4068.5665L14107.7896,-4068.6066L14107.8995,-4068.6798L14108.2001,-4068.7466L14108.4503,-4068.84L14108.7204,-4069.0201L14108.9493,-4069.1666L14109.1095,-4069.22L14109.2407,-4069.2333L14109.4696,-4069.2333L14109.7,-4069.22L14109.8602,-4069.1666L14110.0204,-4069.1265L14110.2005,-4069.1265L14110.4294,-4069.0735L14110.6094,-4069.0533L14110.7407,-4069.0399L14110.8795,-4068.9999L14111.1298,-4068.9999L14111.2701,-4069.0201L14111.3297,-4069.0533L14111.47,-4069.0735L14111.6104,-4069.0533L14111.6806,-4069.0201L14111.8607,-4068.9266L14112.0193,-4068.8599L14112.1307,-4068.8198L14112.2894,-4068.8L14113.1104,-4068.7866L14113.2904,-4068.7866L14113.4293,-4068.7866L14113.8596,-4068.8934L14114.2197,-4068.9865L14114.2899,-4069.0201L14114.36,-4069.0533L14114.4302,-4069.1467L14114.4897,-4069.1799L14114.6301,-4069.2333L14114.7003,-4069.2867"/>
<path content="AP030,1,28,1,0,15,1,8,JPN" xlink:title="AP030" d="M14079.3434,-4078.125L14080.9555,-4075.4627L14083.5724,-4073.7778L14088.2141,-4071.3985L14087.4313,-4070.8515L14087.1704,-4070.4041L14089.7827,-4070.0588L14091.153,-4070.0104L14091.6763,-4069.2158L14092.0685,-4068.8683L14093.0481,-4068.3723L14093.7668,-4067.7269L14094.6808,-4067.1806L14095.9503,-4066.9865"/>
<path content="AP030,1,28,1,0,15,1,8,JPN" xlink:title="AP030" d="M14123.4619,-4069.2944L14124.8322,-4069.043L14125.4852,-4068.9919L14126.8585,-4069.7342L14127.0508,-4068.9388L14127.8259,-4067.049L14128.9993,-4066.748L14129.7165,-4066.6965"/>
<path content="AP030,1,28,1,0,15,1,8,JPN" xlink:title="AP030" d="M14129.7165,-4066.6965L14131.0883,-4066.991L14131.5475,-4067.437L14132.8125,-4067.0855"/>
<path content="AP030,1,28,1,0,14,1,8,JPN" xlink:title="AP030" d="M14095.9503,-4066.4265L14095.9305,-4066.46L14095.8801,-4066.5134L14095.8298,-4066.6798L14095.9503,-4066.9865"/>
<path content="AP030,1,28,1,0,14,1,8,JPN" xlink:title="AP030" d="M14076.5704,-4077.8078L14076.8964,-4077.0841L14077.0599,-4076.7864L14077.3102,-4076.4267L14077.3804,-4076.26L14077.4704,-4076.0468L14077.6093,-4075.5932L14077.6993,-4075.3265L14077.7206,-4075.2335L14077.8107,-4075.1465L14078.1296,-4074.9134L14078.3096,-4074.7334L14078.4698,-4074.6067L14078.6301,-4074.4598L14078.6804,-4074.3534L14078.7003,-4074.2466L14078.6804,-4074.0997L14078.6301,-4073.9399L14078.6102,-4073.8132L14078.6102,-4073.74L14078.6301,-4073.7064L14078.7201,-4073.6332L14078.9307,-4073.56L14079.0604,-4073.4867L14079.1794,-4073.3601L14079.3793,-4073.0534L14079.5395,-4072.7665L14079.6295,-4072.6067L14079.7394,-4072.5334L14079.8996,-4072.4998L14080.1102,-4072.5132L14080.2399,-4072.5334L14080.3101,-4072.5533L14080.3802,-4072.5533L14080.5206,-4072.3534L14080.5801,-4072.2267L14080.5801,-4072.1001L14080.6503,-4072.0467L14080.7693,-4071.9933L14080.8807,-4071.9933L14080.9296,-4071.9532L14080.9692,-4071.8864L14081.0196,-4071.8334L14081.0593,-4071.8132L14081.1493,-4071.7934L14081.2698,-4071.7934L14081.3995,-4071.7598L14081.4896,-4071.7068L14081.5598,-4071.5935L14081.6299,-4071.5599L14081.81,-4071.5401L14082.0404,-4071.4867L14082.3303,-4071.3799L14082.4005,-4071.3467L14082.4295,-4071.2868L14082.4493,-4071.2532L14082.3807,-4071.1067L14082.3593,-4071.04L14082.4005,-4070.9465L14082.4707,-4070.8733L14082.4905,-4070.8199L14082.4295,-4070.7466L14082.3593,-4070.66L14082.3105,-4070.5868L14082.3303,-4070.5132L14082.3807,-4070.48L14082.5394,-4070.4067L14082.6294,-4070.4067L14082.7194,-4070.3732L14082.9498,-4070.2999L14083.0597,-4070.2465L14083.1497,-4070.1534L14083.2703,-4070.0268L14083.3801,-4069.9532L14083.5403,-4069.8997L14083.6807,-4069.8132L14083.7692,-4069.7598L14083.8806,-4069.7201L14083.9706,-4069.6865L14084.0195,-4069.6133L14083.8593,-4069.4134L14083.8593,-4069.3466L14083.8303,-4069.2867L14083.7006,-4069.1467L14083.6807,-4069.0735L14083.6502,-4068.9133L14083.6105,-4068.7866L14083.5403,-4068.6398L14083.58,-4068.5333L14083.6502,-4068.4265L14083.7402,-4068.3201L14083.7402,-4068.28L14083.6807,-4068.2465L14083.4305,-4068.2465L14083.1299,-4068.2068L14083.0399,-4068.1732L14082.9895,-4068.0668L14082.9697,-4068.0134L14082.8995,-4067.9531L14082.8094,-4067.9001L14082.7896,-4067.8467L14082.7698,-4067.7734L14082.7393,-4067.72L14082.6294,-4067.6666L14082.5806,-4067.6334L14082.5607,-4067.5598L14082.5806,-4067.2531L14082.5806,-4066.9865L14082.5806,-4066.9266L14082.6797,-4066.7999L14082.6996,-4066.5333L14082.7194,-4066.4265L14082.8598,-4066.4066L14082.9498,-4066.3532L14082.93,-4066.0999L14082.9498,-4065.9931L14082.9697,-4065.8333L14083.0597,-4065.7398L14083.1802,-4065.7066L14083.4305,-4065.6334L14083.6304,-4065.5067"/>
<path content="AP030,1,28,1,0,15,1,8,JPN" xlink:title="AP030" d="M14129.7165,-4066.6965L14130.4993,-4065.4572L14130.5967,-4064.9564"/>
<path content="AP030,1,28,1,0,15,1,8,JPN" xlink:title="AP030" d="M14130.5967,-4064.9564L14132.8125,-4064.7598"/>
<path content="AP030,1,28,1,0,14,1,8,JPN" xlink:title="AP030" d="M14116.0599,-4069.6667L14116.1301,-4069.54L14116.1499,-4069.4332L14116.1301,-4069.3066L14116.0797,-4069.1998L14116.04,-4069.0735L14116.0202,-4069.0201L14116.2201,-4068.7866L14116.4902,-4068.5532L14116.5604,-4068.4998L14116.6504,-4068.4067L14116.8304,-4068.2999L14116.9296,-4068.2465L14116.9693,-4068.1732L14116.9907,-4068.0668L14116.9907,-4068.0134L14117.0395,-4067.9733L14117.2394,-4067.9001L14117.4301,-4067.7933L14117.5797,-4067.6666L14117.7399,-4067.54L14117.9001,-4067.4L14118.2404,-4067.2199L14118.3807,-4067.1265L14118.4692,-4067.0532L14118.5196,-4066.9865L14118.6996,-4066.6931L14118.7195,-4066.6397L14118.9697,-4066.32L14119.2001,-4066.0667L14119.2398,-4065.9733L14119.2703,-4065.9397L14119.7693,-4064.8197L14119.8593,-4064.5866"/>
<path content="AP030,1,28,1,0,15,1,8,JPN" xlink:title="AP030" d="M14130.7465,-4064.193L14132.7576,-4064.3688L14132.8125,-4064.3752"/>
<path content="AP030,1,28,1,0,15,1,8,JPN" xlink:title="AP030" d="M14130.5967,-4064.9564L14130.6915,-4064.4691L14130.7465,-4064.193"/>
<path content="AP030,1,28,1,0,15,1,8,JPN" xlink:title="AP030" d="M14123.0392,-4064.0667L14123.1873,-4065.221L14123.4558,-4067.2573L14123.3307,-4068.7481L14123.4619,-4069.2944"/>
<path content="AP030,1,28,1,0,14,1,8,JPN" xlink:title="AP030" d="M14119.8593,-4064.5866L14121.6797,-4064.1933L14123.0392,-4064.0667"/>
<path content="AP030,1,28,1,0,15,1,8,JPN" xlink:title="AP030" d="M14124.8993,-4063.3465L14126.0712,-4063.8874L14126.6479,-4064.0125L14127.7985,-4064.0121L14128.7933,-4064.0957L14128.9459,-4064.1003L14130.1025,-4064.1369L14130.7465,-4064.193"/>
<path content="AP030,1,28,1,0,14,1,8,JPN" xlink:title="AP030" d="M14123.0392,-4064.0667L14123.3307,-4064.0266L14124.0204,-4063.94L14124.2004,-4063.9198L14124.4003,-4063.8332L14124.5407,-4063.6868L14124.8993,-4063.3465"/>
<path content="AP030,1,28,1,0,14,1,8,JPN" xlink:title="AP030" d="M14092.9703,-4063.1466L14092.9001,-4063.3465L14092.9703,-4063.4533L14093.1503,-4063.6665L14093.1793,-4063.7932L14093.2907,-4063.9935L14093.4006,-4064.08L14093.7698,-4064.1731L14093.9697,-4064.2265L14094.1101,-4064.3867L14094.22,-4064.46L14094.4305,-4064.5332L14094.5404,-4064.6935L14094.5206,-4064.8197L14094.5602,-4064.9265L14094.7205,-4065.1466L14094.7403,-4065.3065L14094.7906,-4065.3465L14095.43,-4065.4133L14095.52,-4065.4865L14095.5399,-4065.6532L14095.5795,-4065.7398L14095.6497,-4065.7932L14095.8801,-4065.76L14095.9503,-4065.7932L14095.9,-4065.8466L14095.7001,-4065.8867L14095.6802,-4065.9733L14095.7199,-4066.0267L14095.8801,-4066.0267L14096.3104,-4065.8665L14096.3593,-4065.9733L14096.2906,-4066.0797L14095.9503,-4066.4265"/>
<path content="AP030,1,28,1,0,14,1,8,JPN" xlink:title="AP030" d="M14083.6304,-4065.5067L14083.7692,-4065.4133L14083.8104,-4065.2866L14083.9005,-4065.2199L14084.0195,-4065.1665L14084.1797,-4065.1466L14084.3307,-4065.1798L14084.4498,-4065.1798L14084.61,-4065.0734L14084.7702,-4065.0398L14084.9899,-4065.0532L14085.08,-4064.9998L14085.1807,-4064.9666L14085.3302,-4064.8731L14085.4507,-4064.6935L14085.6293,-4064.6797L14085.8093,-4064.6935L14086.0794,-4064.4264L14086.0794,-4064.2799L14086.4502,-4063.9L14086.5601,-4063.8664L14086.6501,-4063.8664L14086.8103,-4063.7932L14086.9507,-4063.7066L14087.0407,-4063.6868L14087.1796,-4063.7066L14087.3093,-4063.6868L14087.6801,-4063.5265L14087.8799,-4063.5265L14088.15,-4063.5597L14088.4705,-4063.4335L14088.7207,-4063.3801L14088.7405,-4063.2866L14088.8306,-4063.2332L14089.1098,-4063.2198L14089.3097,-4063.1268L14089.6805,-4063.0398L14089.9704,-4063.0199L14090.0803,-4063.0932L14090.2405,-4063.1466L14090.4007,-4063.1664L14090.4907,-4063.2332L14090.5807,-4063.3064L14090.6494,-4063.2866L14090.6296,-4063.1664L14090.7196,-4063.1466L14090.8798,-4063.1664L14090.9897,-4063.2L14091.1804,-4063.2198L14091.3803,-4063.1268L14091.5802,-4063.1065L14091.7892,-4063.0199L14091.8594,-4063.0733L14091.9296,-4063.0932L14092.2394,-4063.0199L14092.4698,-4063.0932L14092.7399,-4063.1466L14092.9703,-4063.1466"/>
<path content="AP030,1,28,1,0,15,1,8,JPN" xlink:title="AP030" d="M14123.2437,-4063.0093L14124.1333,-4063.2599L14124.8993,-4063.3465"/>
<path content="AP030,1,28,1,0,15,1,8,JPN" xlink:title="AP030" d="M14123.2437,-4063.0093L14123.0392,-4064.0667"/>
<path content="AP030,1,28,1,0,16,1,8,JPN" xlink:title="AP030" d="M14062.5,-4069.4092L14062.5198,-4069.2867L14062.5397,-4068.84L14062.5,-4068.5932M14062.5,-4067.7638L14062.5595,-4067.54L14062.6297,-4067.4L14062.7396,-4066.9865L14062.8998,-4066.6397L14063.0203,-4066.3334L14063.1104,-4066.0465L14063.1104,-4065.76L14062.8799,-4065.3797L14062.6999,-4065.1066L14062.5,-4064.9488"/>
<path content="AP030,1,28,1,0,15,1,8,JPN" xlink:title="AP030" d="M14120.9305,-4062.2467L14121.3486,-4062.5587L14121.6736,-4062.8002L14123.2437,-4063.0093"/>
<path content="AP030,1,28,1,0,14,1,8,JPN" xlink:title="AP030" d="M14119.8593,-4064.5866L14119.9707,-4064.32L14120.4498,-4063.2866L14120.4895,-4063.2L14120.9305,-4062.2467"/>
<path content="AP030,1,28,1,0,14,1,8,JPN" xlink:title="AP030" d="M14120.9305,-4062.2467L14120.9702,-4062.1532L14121.0602,-4061.9934L14121.08,-4061.9732L14121.1304,-4061.9198L14121.1807,-4061.8668"/>
<path content="AP030,1,28,1,0,14,1,8,JPN" xlink:title="AP030" d="M14124.8993,-4063.3465L14125.0412,-4063.2072L14125.4898,-4062.7666L14125.8301,-4062.4065L14126.1505,-4062.08L14126.2695,-4061.94L14126.2695,-4061.8332L14126.2695,-4061.3464"/>
<path content="AP030,1,28,1,0,14,1,8,JPN" xlink:title="AP030" d="M14121.7697,-4061.1267L14121.9498,-4061.2198L14122.1298,-4061.2865L14122.2397,-4061.3464L14122.5403,-4061.5067L14123.1796,-4061.4864L14123.7701,-4061.5067L14123.8098,-4061.5067L14124.8306,-4061.5067L14124.9496,-4061.4864L14124.9695,-4061.4864L14125.6104,-4061.4334L14125.9705,-4061.38L14126.2695,-4061.3464"/>
<path content="AP030,1,28,1,0,14,1,8,JPN" xlink:title="AP030" d="M14121.1807,-4061.8668L14121.3303,-4061.6665L14121.4493,-4061.5067L14121.5607,-4061.38L14121.6095,-4061.3266L14121.7697,-4061.1267"/>
<path content="AP030,1,28,1,0,14,1,8,JPN" xlink:title="AP030" d="M14067.7902,-4061.0397L14067.8802,-4061.1797L14067.9703,-4061.2534L14068.2404,-4061.38L14068.4006,-4061.4864L14068.5394,-4061.7199L14068.6295,-4061.8332L14068.8797,-4062.0464L14069.0201,-4062.1532L14069.1803,-4062.2265L14069.5602,-4062.2601L14069.7006,-4062.3867L14070.0806,-4062.5866L14070.1294,-4062.7132L14070.1996,-4062.7865L14070.4498,-4062.9265L14070.6802,-4062.9467L14070.8603,-4062.9868L14070.8603,-4063.1065L14070.9305,-4063.2198L14071.1807,-4063.2732L14071.2204,-4063.2866L14071.3104,-4063.3598L14071.5195,-4063.5933L14071.8307,-4063.6868L14072.2397,-4063.76L14072.4503,-4063.8664L14072.8104,-4063.8664L14073.1094,-4063.94L14073.2407,-4064.0667L14073.5794,-4064.1731L14073.9304,-4064.2799L14074.2905,-4064.3333L14074.4904,-4064.4264L14074.8306,-4064.5664L14075.4898,-4064.9467L14075.7401,-4065.02L14076.1993,-4065.0932L14076.5396,-4065.1066L14076.6098,-4065.2332L14076.68,-4065.2866L14076.77,-4065.2866L14076.9897,-4065.3797L14077.0798,-4065.3797L14077.0599,-4065.2866L14076.7899,-4065.2L14076.7395,-4065.1665L14076.8295,-4065.1264L14077.0599,-4065.2L14077.1805,-4065.2199L14077.4307,-4065.1665L14077.7893,-4064.9265L14077.9495,-4064.9467L14078.1097,-4064.9132L14078.4897,-4064.6599L14078.6499,-4064.5866L14078.9001,-4064.5535L14079.3106,-4064.4066L14079.7699,-4064.4066L14080.3101,-4064.4066L14080.7205,-4064.3734L14080.9494,-4064.2597L14081.1798,-4064.2597L14081.2897,-4064.2998L14081.8298,-4064.5866L14082.1793,-4064.7999L14082.4295,-4064.8933L14082.5607,-4064.9265L14082.6996,-4065.0532L14082.7896,-4065.3599L14082.7393,-4065.5598L14082.8293,-4065.6132L14082.9697,-4065.5933L14083.1497,-4065.3797L14083.4503,-4065.2733L14083.6304,-4065.5067"/>
<path content="AP030,1,28,1,0,14,1,8,JPN" xlink:title="AP030" d="M14062.5,-4062.729L14062.8098,-4062.8735L14063.0203,-4062.9265L14063.5605,-4062.9131L14063.7405,-4062.7464L14063.9694,-4062.6598L14064.1098,-4062.5534L14064.4699,-4062.3333L14065.0803,-4062.1201L14065.5197,-4061.8999L14065.5396,-4061.7599L14065.6799,-4061.5799L14066.0202,-4061.3068L14066.2399,-4061.1668L14066.5604,-4061.1065L14066.6107,-4061.0931L14066.9296,-4060.9867L14067.1997,-4060.9665L14067.5797,-4060.9867L14067.7902,-4061.0397"/>
<path content="AP030,1,28,1,0,14,1,8,JPN" xlink:title="AP030" d="M14121.7697,-4061.1267L14122.0596,-4060.7468"/>
<path content="AP030,1,28,1,0,14,1,8,JPN" xlink:title="AP030" d="M14130.0598,-4060.7132L14131.2698,-4060.8734L14131.4697,-4060.8932L14132.3303,-4060.8734L14132.8125,-4060.8633"/>
<path content="AP030,1,28,1,0,15,1,8,JPN" xlink:title="AP030" d="M14130.7465,-4064.193L14130.1697,-4061.8294L14130.0598,-4060.7132"/>
<path content="AP030,1,28,1,0,14,1,8,JPN" xlink:title="AP030" d="M14126.2695,-4061.3464L14127.2903,-4061.2198L14127.4704,-4061.1797L14128.1097,-4061.0931L14128.3798,-4061.0199L14129.1794,-4060.7132L14129.4006,-4060.6197L14130.0598,-4060.7132"/>
<path content="AP030,1,28,1,0,14,1,8,JPN" xlink:title="AP030" d="M14067.7902,-4061.0397L14068.1793,-4060.9467L14068.5196,-4060.7998L14068.7195,-4060.5L14068.9301,-4060.4065L14069.0598,-4060.3535"/>
<path content="AP030,1,28,1,0,14,1,8,JPN" xlink:title="AP030" d="M14115.4495,-4060.0998L14115.4907,-4060.1334L14116.7694,-4060.7998L14116.8304,-4060.8398L14117.1799,-4061.0001L14117.3096,-4061.0535L14117.8604,-4061.1065L14118.8599,-4061.2331L14119.5206,-4061.3266L14119.9707,-4061.3598L14120.2896,-4061.4666L14120.4697,-4061.5265L14120.5597,-4061.5601L14120.6299,-4061.5932L14120.7199,-4061.6531L14120.8099,-4061.6867L14121.0205,-4061.7733L14121.1807,-4061.8668"/>
<path content="AP030,1,28,1,0,15,1,8,JPN" xlink:title="AP030" d="M14111.763,-4060.022L14113.7207,-4061.113L14114.4394,-4061.8572L14115.0284,-4062.7506L14115.3564,-4063.8432L14115.2283,-4064.539L14114.3829,-4066.2292L14114.386,-4067.7197L14114.8453,-4068.4643L14114.7003,-4069.2867"/>
<path content="AP030,1,28,1,0,15,1,8,JPN" xlink:title="AP030" d="M14095.9503,-4066.4265L14097.226,-4067.0822L14097.8119,-4066.6851L14099.3134,-4065.6418L14099.9008,-4065.5922L14099.704,-4066.0393L14100.7492,-4066.1388L14101.5305,-4065.0455L14102.0523,-4064.5489L14103.1616,-4063.9523L14105.7037,-4063.6532L14107.4646,-4063.1058L14108.7021,-4062.4096L14109.7458,-4061.8622L14110.7224,-4061.3148L14111.3724,-4060.6186L14111.763,-4060.022"/>
<path content="AP030,1,28,1,0,15,1,8,JPN" xlink:title="AP030" d="M14111.763,-4060.022L14112.2833,-4059.6737L14112.6755,-4059.6237L14115.4495,-4060.0998"/>
<path content="AP030,1,28,1,0,14,1,4,JPN" xlink:title="AP030" d="M14069.4901,-4059.6134L14069.6304,-4059.7401L14069.7006,-4059.9934L14069.6106,-4060.1532L14069.2398,-4060.2798L14069.0598,-4060.3535"/>
<path content="AP030,1,28,1,0,14,1,8,JPN" xlink:title="AP030" d="M14098.7198,-4057.8335L14099.0799,-4057.7934L14099.6796,-4057.8133L14099.7406,-4057.8465L14099.7696,-4057.8865L14099.7894,-4057.8999L14099.8306,-4057.9735L14099.8596,-4058.0467L14099.8993,-4058.0799L14099.9893,-4058.0799L14100.1495,-4058.0799L14100.3799,-4058.12L14100.7202,-4058.1333L14101.1307,-4058.1734L14101.5396,-4058.2268L14101.6998,-4058.3L14101.7197,-4058.3733L14101.7197,-4058.4267L14101.7395,-4058.5133L14101.7899,-4058.5865L14101.8799,-4058.6399L14102.1103,-4058.82L14102.2903,-4059.1267L14102.33,-4059.2197L14102.6093,-4059.4532L14103.0197,-4059.6333L14103.2394,-4059.8331L14103.4302,-4059.8999L14103.7903,-4060.1734L14104.0802,-4060.3199L14104.2404,-4060.3535L14104.4296,-4060.3333L14104.6097,-4060.3001L14104.7699,-4060.26L14104.9301,-4060.08L14105.1102,-4059.7733L14105.1804,-4059.7401L14105.3604,-4059.5932L14105.4504,-4059.4334L14105.5405,-4059.38L14105.8807,-4059.1064L14105.9494,-4059L14106.0394,-4058.7997L14106.1798,-4058.7132L14106.2698,-4058.6933L14106.3797,-4058.68L14106.4697,-4058.6399L14106.7001,-4058.5533L14106.9,-4058.4999L14107.1793,-4058.4999L14107.4707,-4058.5133L14107.6996,-4058.5865L14108.1497,-4058.6067L14108.2397,-4058.6067L14108.3099,-4058.6201L14108.4503,-4058.7334L14108.5205,-4058.7334L14108.6304,-4058.7334L14108.8303,-4058.8734L14108.9493,-4058.9466L14109.0195,-4058.9664L14109.8602,-4058.9466L14110.1303,-4058.86L14110.4004,-4058.7997L14110.4706,-4058.7997L14110.7895,-4058.7666L14111.0397,-4058.7997L14111.29,-4058.7666L14111.4304,-4058.7467L14111.6501,-4058.7868L14111.7401,-4058.7997L14111.9293,-4058.7868L14112.2192,-4058.7132L14112.3306,-4058.7132L14112.5595,-4058.7132L14112.6999,-4058.7132L14112.8296,-4058.7467L14113.06,-4058.8734L14113.1302,-4058.8734L14113.2706,-4058.8734L14113.4705,-4058.8734L14113.8306,-4058.9867L14114.5599,-4059.1465L14114.9506,-4059.2731L14115.0192,-4059.2865L14115.1794,-4059.3998L14115.2206,-4059.4532L14115.2206,-4059.4868L14115.1093,-4059.7065L14115.0803,-4059.7401L14115.0604,-4059.8465L14115.1093,-4059.9197L14115.4495,-4060.0998"/>
<path content="AP030,1,28,1,0,14,1,8,JPN" xlink:title="AP030" d="M14092.9703,-4063.1466L14093.2205,-4063.1268L14093.4494,-4063.1065L14093.7195,-4062.9131L14094.1299,-4062.7464L14094.4,-4062.64L14094.4305,-4062.5L14094.6304,-4062.3531L14094.6503,-4062.2601L14094.5602,-4062.1735L14094.6106,-4062.08L14094.9295,-4061.8999L14094.8807,-4061.8465L14094.8105,-4061.8332L14094.7205,-4061.8465L14094.5602,-4061.8668L14094.5206,-4061.8332L14094.5801,-4061.7397L14094.5801,-4061.5067L14094.6793,-4061.2732L14094.7403,-4061.1267L14094.8105,-4060.7998L14094.8303,-4060.6934L14094.8105,-4060.6068L14094.7403,-4060.5865L14094.6304,-4060.5534L14094.6106,-4060.5133L14094.6304,-4060.4797L14094.7403,-4060.4599L14094.9493,-4060.4401L14095.0607,-4060.3733L14095.0195,-4060.3001L14095.0394,-4060.26L14095.1996,-4060.2264L14095.61,-4060.0132L14095.6299,-4059.9197L14095.5399,-4059.8667L14095.4895,-4059.7733L14095.61,-4059.56L14095.8099,-4059.4868L14095.9,-4059.4334L14095.9,-4059.3266L14095.99,-4059.2335L14096.1304,-4059.2197L14096.2006,-4059.2197L14096.2204,-4059.2533L14096.2204,-4059.3266L14096.2906,-4059.3468L14096.4005,-4059.3468L14096.5195,-4059.3067L14096.7194,-4059.0534L14096.7194,-4058.9134L14096.7407,-4058.8734L14096.8307,-4058.86L14096.9696,-4058.8734L14097.1497,-4058.7997L14097.1497,-4058.4801L14097.3999,-4057.9201L14097.5204,-4057.8667L14097.7005,-4057.74L14097.8104,-4057.7065L14097.9004,-4057.74L14098.1506,-4057.8667L14098.2697,-4057.8865L14098.7198,-4057.8335"/>
<path content="AP030,1,28,1,0,14,1,8,JPN" xlink:title="AP030" d="M14126.2695,-4061.3464L14126.1414,-4060.4507L14126.0056,-4059.6157L14126.0391,-4058.9512L14126.1765,-4058.3382L14126.4694,-4057.2865"/>
<path content="AP030,1,28,1,0,14,1,8,JPN" xlink:title="AP030" d="M14122.0596,-4060.7468L14122.3297,-4060.4267L14122.58,-4060.12L14122.6807,-4060.0666L14122.8302,-4059.94L14123.3994,-4059.5932L14123.5199,-4059.5398L14123.7,-4059.4532L14123.7396,-4059.4334L14123.8297,-4059.3067L14123.8602,-4059.0935L14123.8297,-4058.7334L14123.7701,-4058.4267L14123.7701,-4058.3733L14123.8098,-4058.3199L14123.8602,-4058.2466L14123.88,-4058.0997L14123.9899,-4057.9933L14124.1302,-4057.9399L14124.2905,-4057.8865L14124.3103,-4057.8667L14125.0397,-4057.7065L14125.4501,-4057.5268L14125.6805,-4057.4135L14126.0193,-4057.3601L14126.3306,-4057.3467L14126.4694,-4057.2865"/>
<path content="AP030,1,28,1,0,15,1,8,JPN" xlink:title="AP030" d="M14130.0598,-4060.7132L14129.216,-4058.9195L14128.4576,-4057.2025L14127.7893,-4055.7732"/>
<path content="AP030,1,28,1,0,14,1,8,JPN" xlink:title="AP030" d="M14126.4694,-4057.2865L14127.3804,-4056.6067L14127.4307,-4056.44L14127.4307,-4056.0665L14127.4704,-4055.9399L14127.5406,-4055.8666L14127.7893,-4055.7732"/>
<path content="AP030,1,28,1,0,14,1,8,JPN" xlink:title="AP030" d="M14098.7198,-4057.8335L14098.6496,-4057.6866L14098.6099,-4057.6332L14098.2407,-4057.5798L14097.9706,-4057.4532L14097.8806,-4057.3467L14097.8806,-4057.1999L14097.9706,-4057.1068L14097.9507,-4056.9866L14097.7203,-4056.8001L14097.4899,-4056.6933L14097.4503,-4056.6067L14097.4899,-4056.4598L14097.58,-4056.3866L14097.6501,-4056.3332L14097.6501,-4056.2267L14097.5601,-4056.1199L14097.3297,-4056.0265L14097.1802,-4055.9399L14097.1802,-4055.7068L14097.29,-4055.4665L14097.4304,-4055.2532"/>
<path content="AP030,1,28,1,0,14,1,8,JPN" xlink:title="AP030" d="M14069.4901,-4059.6134L14069.3802,-4059.4868L14069.3604,-4059.3998L14069.3802,-4058.9466L14069.2703,-4058.7666L14069.2703,-4058.5133L14069.2902,-4058.3199L14068.7698,-4057.9735L14068.6996,-4057.7934L14068.7195,-4057.6668L14068.7897,-4057.5798L14068.7698,-4057.4532L14068.6493,-4057.2735L14068.6096,-4057.1465L14068.6798,-4057.0534L14068.8095,-4056.9267L14068.8599,-4056.8398L14068.8599,-4056.3534L14069.0598,-4056.1333L14069.4702,-4055.5798L14069.4702,-4055.3066L14069.3604,-4055.1468L14069.2902,-4054.8733"/>
<path content="AP030,1,28,1,0,15,1,8,JPN" xlink:title="AP030" d="M14128.8803,-4052.4799L14130.2536,-4052.8282L14131.5094,-4053.5397L14132.8125,-4054.0053"/>
<path content="AP030,1,28,1,0,14,1,8,JPN" xlink:title="AP030" d="M14127.7893,-4055.7732L14127.9495,-4055.7068L14127.9907,-4055.6534L14127.9694,-4055.4867L14128.0197,-4055.4001L14128.4897,-4054.7333L14128.54,-4054.5864L14128.4897,-4054.4598L14128.3997,-4054.3331L14128.3798,-4054.2465L14128.5797,-4053.7933L14128.7399,-4053.4534L14128.83,-4053.2532L14128.9307,-4053.1265L14128.9001,-4053.0399L14128.83,-4052.9133L14128.7704,-4052.6798L14128.7903,-4052.6199L14128.8803,-4052.4799"/>
<path content="AP030,1,28,1,0,14,1,8,JPN" xlink:title="AP030" d="M14128.8803,-4052.4799L14129.0604,-4052.2598L14129.1794,-4051.9932L14129.2206,-4051.8867"/>
<path content="AP030,1,28,1,0,14,1,8,JPN" xlink:title="AP030" d="M14062.5,-4051.8898L14062.5397,-4051.9199L14062.6801,-4051.9531L14062.97,-4051.9733L14063.1302,-4051.9199L14063.2706,-4051.9398L14063.6093,-4052.0664L14064.1495,-4052.0664L14064.7202,-4052.0134L14065.1093,-4051.7933L14065.2695,-4051.8467L14065.3595,-4051.8997L14065.4495,-4051.8665L14065.6097,-4051.6865L14065.7898,-4051.6865L14065.8295,-4051.7735L14065.86,-4051.8333L14065.9698,-4051.8131L14066.0599,-4051.7597L14066.1301,-4051.7933L14066.1301,-4051.8997L14066.5802,-4051.9932L14066.6107,-4052.0664L14066.5207,-4052.0798L14066.4703,-4052.1332L14066.6107,-4052.2064L14066.6504,-4052.28L14066.6107,-4052.3533L14066.4001,-4052.4265L14066.4001,-4052.4799L14066.4307,-4052.5665L14066.4902,-4052.6199L14066.4505,-4053.0533L14066.4902,-4053.1265L14066.5802,-4053.1265L14066.6306,-4053.0933L14066.6794,-4053.1265L14066.6794,-4053.2734L14066.8793,-4053.4L14067.2195,-4053.6533L14067.3599,-4053.6533L14067.3096,-4053.54L14067.3599,-4053.4866L14067.7002,-4053.3066L14067.8101,-4053.3264L14067.9306,-4053.4332L14067.9703,-4053.4134L14067.9703,-4053.36L14067.9504,-4053.2333L14067.9901,-4053.22L14068.0603,-4053.2532L14068.0801,-4053.3066L14068.1305,-4053.4L14068.2007,-4053.4332L14068.4906,-4053.4L14068.5593,-4053.4L14068.5806,-4053.4332L14068.5394,-4053.4664L14068.4296,-4053.54L14068.4494,-4053.8864L14068.4906,-4054.1L14068.5196,-4054.2065L14068.6096,-4054.2267L14068.7698,-4054.2065L14068.8995,-4054.1199L14068.9499,-4054.1332L14068.9301,-4054.1931L14068.8599,-4054.2999L14068.7698,-4054.3732L14068.6996,-4054.4598L14068.6295,-4054.8733L14068.6096,-4054.9999L14068.7393,-4055.0732L14068.9697,-4054.9866L14069.0201,-4054.9465L14069.1299,-4054.8401L14069.22,-4054.8401L14069.2902,-4054.8733"/>
<path content="AP030,1,28,1,0,14,1,8,JPN" xlink:title="AP030" d="M14092.5201,-4051.1265L14092.6498,-4051.2531L14092.6804,-4051.3466L14092.72,-4051.5266L14092.7902,-4051.58L14092.9504,-4051.6132L14093.0206,-4051.6533L14093.0405,-4051.72L14092.9703,-4051.8467L14092.9901,-4051.8997L14093.0603,-4051.9531L14093.0801,-4052.0466L14093.1107,-4052.1332L14093.1503,-4052.1534L14093.2007,-4052.1332L14093.2907,-4052.0466L14093.3594,-4052.0466L14093.4006,-4052.0664L14093.4296,-4052.2465L14093.4692,-4052.2999L14093.5593,-4052.28L14093.6798,-4052.2064L14093.7698,-4052.1732L14093.9896,-4052.28L14094.2001,-4052.4067L14094.31,-4052.5131L14094.4,-4052.7134L14094.5602,-4052.8599L14094.9005,-4053.1467L14095.0195,-4053.1998L14095.1492,-4053.2532L14095.2393,-4053.3264L14095.3796,-4053.5267L14095.4498,-4053.5797L14095.5399,-4053.6331L14095.7397,-4053.7067L14095.9,-4053.7933L14096.0403,-4053.8334L14096.2204,-4053.8467L14096.3593,-4053.8864L14096.5393,-4054.0466L14096.6797,-4054.1L14096.7407,-4054.1199L14096.9299,-4054.1733L14096.9696,-4054.2065L14097.02,-4054.2599L14097.02,-4054.4067L14097.0795,-4054.5132L14097.2,-4054.6398L14097.2397,-4054.7333L14097.2,-4054.8733L14097.2198,-4054.9667L14097.2198,-4055.0732L14097.2,-4055.18L14097.2,-4055.2334L14097.4304,-4055.2532"/>
<path content="AP030,1,28,1,0,14,1,8,JPN" xlink:title="AP030" d="M14082.8094,-4049.8135L14082.9895,-4050.0134L14083.1299,-4050.1331L14083.3298,-4050.1534L14083.49,-4050.2068L14083.5205,-4050.3334L14083.58,-4050.4997L14083.7402,-4050.5665L14084.1095,-4050.5665L14084.1797,-4050.6931L14084.3307,-4050.7465L14084.4696,-4050.8732L14084.6802,-4050.8934L14084.8099,-4050.9464L14084.9304,-4050.9464L14085.08,-4050.84L14085.1501,-4050.7668L14085.2203,-4050.7465L14085.5804,-4050.8198L14085.7895,-4050.8598L14085.9894,-4050.8598L14086.2,-4050.7999L14086.29,-4050.8198L14086.3602,-4050.8198L14086.5204,-4050.9266L14086.6104,-4050.9464L14086.8301,-4050.9666L14086.9904,-4051.0399L14087.3795,-4051.0735L14087.4298,-4051.1265L14087.3596,-4051.2199L14087.3596,-4051.2867L14087.4695,-4051.4332L14087.4695,-4051.6132L14087.4695,-4051.8131L14087.5595,-4051.8665L14087.6801,-4051.7933L14087.6801,-4051.4534L14087.7701,-4051.2733L14087.97,-4051.1467L14088.0798,-4051.1265L14088.2004,-4051.1467L14088.1805,-4051.2531L14088.1104,-4051.3268L14087.97,-4051.4534L14087.9501,-4051.58L14088.0203,-4051.6132L14088.1302,-4051.6335L14088.2401,-4051.6533L14088.4903,-4051.5934L14088.6993,-4051.6132L14089.0793,-4051.6533L14089.6301,-4051.6335L14089.74,-4051.54L14089.8605,-4051.4332L14089.9902,-4051.4534L14090.0406,-4051.5266L14090.0803,-4051.58L14090.3595,-4051.7067L14090.7898,-4051.6865L14091.0202,-4051.6533L14091.2003,-4051.4866L14091.4307,-4051.4133L14091.5405,-4051.2531L14091.6107,-4051.2733L14091.7007,-4051.3268L14091.9907,-4051.2867L14092.4301,-4051.1665L14092.5201,-4051.1265"/>
<path content="AP030,1,28,1,0,14,1,8,JPN" xlink:title="AP030" d="M14069.2902,-4054.8733L14069.4504,-4054.66L14069.5602,-4054.6398L14070.0806,-4054.62L14070.3094,-4054.5334L14070.43,-4054.4598L14070.4498,-4054.3331L14070.3796,-4054.0665L14070.3995,-4053.9734L14070.4697,-4053.9398L14070.6299,-4053.8334L14070.6802,-4053.6865L14070.7397,-4053.5797L14070.8801,-4053.5797L14071.0205,-4053.54L14071.0205,-4053.4134L14071.08,-4053.3264L14071.2402,-4053.2532L14071.3303,-4053.1467L14071.5195,-4053.0933L14071.9299,-4052.7664L14071.9894,-4052.7332L14072.1802,-4052.7664L14072.29,-4052.7466L14072.4701,-4052.4799L14072.5601,-4052.4067L14072.6807,-4052.4067L14072.7707,-4052.3865L14072.9294,-4052.4265L14073.0606,-4052.4597L14073.2697,-4052.4399L14073.3795,-4052.4597L14073.4695,-4052.5131L14073.7701,-4052.7866L14073.8998,-4052.8L14074.2203,-4052.8198L14074.5193,-4052.9133L14074.5407,-4052.9266L14074.8306,-4053.1467L14075.0595,-4053.2867L14075.2899,-4053.3466L14075.47,-4053.3466L14075.65,-4053.3066L14076.3596,-4053.1998L14076.5594,-4053.1265L14077.0599,-4052.7332L14077.1103,-4052.4399L14077.2003,-4052.3865L14077.2903,-4052.3865L14077.4506,-4052.3731L14077.7206,-4052.2598L14077.9007,-4052.2465L14078.0197,-4052.1332L14078.2394,-4052.1332L14078.2898,-4052.0267L14078.27,-4051.7399L14078.4302,-4051.58L14078.6102,-4051.5064L14078.7903,-4051.4866L14079.1107,-4051.3599L14079.3793,-4051.3798L14079.4693,-4051.3268L14079.4907,-4051.1997L14079.6997,-4051.0532L14079.9301,-4050.9865L14080.4306,-4050.9666L14080.6107,-4051.0532L14080.7205,-4051.0201L14080.9692,-4050.8732L14081.1096,-4050.8732L14081.1096,-4050.9266L14081.0394,-4050.9666L14081.0394,-4050.9998L14081.1096,-4051.0201L14081.2195,-4051.0201L14081.4697,-4050.9266L14081.6299,-4050.9464L14081.7703,-4050.9132L14081.9504,-4050.6599L14082.0801,-4050.6397L14082.1793,-4050.5867L14082.2006,-4050.4265L14082.0801,-4050.4265L14082.0206,-4050.4066L14082.0206,-4050.3532L14082.0602,-4050.2266L14082.3593,-4050.0668L14082.8094,-4049.8135"/>
<path content="AP030,1,28,1,0,14,1,8,JPN" xlink:title="AP030" d="M14132.1304,-4049.4133L14132.3807,-4049.4865L14132.4005,-4049.4865L14132.5195,-4049.5399L14132.6797,-4049.5934L14132.7698,-4049.5934L14132.8125,-4049.5934"/>
<path content="AP030,1,28,1,0,14,1,8,JPN" xlink:title="AP030" d="M14129.2206,-4051.8867L14129.2404,-4051.8131L14129.2892,-4051.72L14129.3793,-4051.6666L14129.5807,-4051.6132L14129.8096,-4051.58L14129.8996,-4051.54L14129.9896,-4051.5064L14130.13,-4051.4133L14130.22,-4051.3466L14130.2399,-4051.3268L14130.4703,-4051.2333L14130.5801,-4051.1799L14130.7907,-4051.1665L14131.0394,-4051.1066L14131.1996,-4051.0532L14131.3599,-4050.9666L14131.6299,-4050.7133L14131.6299,-4050.5531L14131.6803,-4050.1732L14131.7398,-4050.0134L14131.8802,-4049.7932L14132.1106,-4049.4865L14132.1304,-4049.4133"/>
<path content="AP030,1,28,1,0,14,1,8,JPN" xlink:title="AP030" d="M14130.9692,-4048.2468L14131.0196,-4048.3334L14131.1295,-4048.5134L14131.4301,-4048.7865L14131.5796,-4048.9468L14131.7398,-4049.0734L14131.81,-4049.2199L14131.9,-4049.3065L14132.0206,-4049.3599L14132.1304,-4049.4133"/>
<path content="AP030,1,28,1,0,14,1,8,JPN" xlink:title="AP030" d="M14092.5201,-4051.1265L14092.9504,-4050.9266L14092.9703,-4050.8598L14092.9504,-4050.7465L14093.0206,-4050.6599L14093.1793,-4050.5867L14093.2205,-4050.5333L14093.2007,-4050.4997L14093.1107,-4050.4997L14092.9306,-4050.6199L14092.8604,-4050.6599L14092.8101,-4050.6397L14092.7902,-4050.6065L14092.8101,-4050.5531L14092.9703,-4050.4601L14093.0206,-4050.4398L14093.0603,-4050.3864L14093.0206,-4050.3735L14092.9001,-4050.3735L14092.7399,-4050.3864L14092.6804,-4050.3735L14092.5797,-4050.2602L14092.6102,-4050.1732L14092.72,-4050.1331L14092.8802,-4050.1534L14092.9504,-4050.0999L14092.6804,-4049.9001L14092.72,-4049.7601L14092.5598,-4049.7066L14092.3798,-4049.5602L14092.3096,-4049.4331L14092.3996,-4049.3465L14092.6804,-4049.2733L14092.8604,-4049.1066L14093.3105,-4048.6801L14093.4906,-4048.28L14093.6996,-4048.2067L14094.1101,-4047.9L14094.22,-4047.8466"/>
<path content="AP030,1,28,1,0,14,1,8,JPN" xlink:title="AP030" d="M14094.22,-4047.8466L14094.2902,-4047.8333L14094.5206,-4047.9733L14094.6106,-4048.1533L14094.8303,-4048.5535L14094.9707,-4048.7133L14095.1996,-4048.8201L14095.3796,-4049.0002L14095.3995,-4049.1798L14095.43,-4049.3599L14095.61,-4049.6132L14095.6299,-4049.8333L14095.7001,-4049.9535L14095.9702,-4050.28L14096.1304,-4050.5867L14096.2204,-4050.9132L14096.3104,-4051.1997L14096.4294,-4051.3268L14096.8307,-4051.54L14096.9299,-4051.8131L14097.11,-4052.0798L14097.3602,-4052.3865L14097.4503,-4052.6066L14097.3999,-4052.84L14097.4701,-4052.9667L14097.5601,-4053.0399L14097.7402,-4053.0933L14097.9004,-4053.1467L14097.9904,-4053.2867L14097.9904,-4053.4134L14098.0194,-4053.5599L14098.1995,-4053.8334L14098.2407,-4054.0134L14098.0804,-4054.1332L14097.9294,-4054.1931L14097.7005,-4054.1534L14097.6303,-4054.2599L14097.58,-4054.5132L14097.6105,-4054.9866L14097.4899,-4055.1666L14097.4304,-4055.2532"/>
<path content="AP030,1,28,1,0,14,1,8,JPN" xlink:title="AP030" d="M14117.5797,-4047.0531L14117.7002,-4047.1066L14117.9001,-4047.2198L14118.0405,-4047.2534L14118.6493,-4047.4533L14119.4504,-4047.6532L14119.6106,-4047.6868L14119.9295,-4047.7066L14120.6802,-4047.9L14121.1304,-4048.0133L14121.9299,-4048.28L14122.0398,-4048.3734L14122.1802,-4048.5001L14122.3099,-4048.5332L14122.5403,-4048.5867L14122.6105,-4048.6198L14122.6501,-4048.6801L14122.7707,-4048.7133L14122.9904,-4048.8201L14123.2193,-4049.02L14123.3307,-4049.0532L14123.5397,-4049.1066L14123.6298,-4049.1665L14123.8998,-4049.4534L14123.9502,-4049.5399L14124.2203,-4049.7066L14124.3103,-4049.7734L14124.4904,-4049.9535L14124.9496,-4050.4066L14125.0595,-4050.5135L14125.5402,-4050.8732L14125.7202,-4051.0201L14126.4297,-4051.2733L14126.9897,-4051.4534L14127.15,-4051.4668L14127.4307,-4051.4668L14127.5192,-4051.5266L14128.45,-4051.8665L14128.54,-4051.8867L14128.6301,-4051.8665L14128.83,-4051.8131L14128.9307,-4051.8333L14129.2206,-4051.8867"/>
<path content="AP030,1,28,1,0,14,1,8,JPN" xlink:title="AP030" d="M14130.9692,-4048.2468L14130.9692,-4048.0999L14130.9906,-4047.9401L14130.9692,-4047.8664L14130.8807,-4047.76L14130.7907,-4047.6532L14130.7404,-4047.5933L14130.7404,-4047.5399L14130.7404,-4047.4533L14130.7907,-4047.3267L14130.8594,-4047.2332L14130.8304,-4047.1466L14130.8304,-4047.0001L14130.8594,-4046.9467L14130.9296,-4046.8399L14131.0593,-4046.7133L14131.4896,-4046.46L14131.5598,-4046.4268L14131.5796,-4046.3734L14131.5796,-4046.3001L14131.5796,-4046.1933L14131.6299,-4046.1334L14131.7902,-4045.9934L14131.9,-4045.8466L14132.0801,-4045.6532L14132.1106,-4045.6333L14132.1503,-4045.5601L14132.2403,-4045.5067L14132.4005,-4045.4865L14132.5394,-4045.4533L14132.6996,-4045.3266L14132.7393,-4045.2202L14132.8094,-4045.1065L14132.8125,-4045.1013"/>
<path content="AP030,1,28,1,0,14,1,8,JPN" xlink:title="AP030" d="M14094.22,-4047.8466L14094.2703,-4047.6532L14094.31,-4047.3267L14094.2001,-4047.0402L14094.2001,-4046.8601L14094.2398,-4046.7133L14094.4901,-4046.5L14094.5801,-4046.3867L14094.6106,-4046.2067L14094.5206,-4046.0133L14094.5206,-4045.7401L14094.1498,-4045.1668L14094.1299,-4045.0401L14094.1498,-4044.82L14093.8599,-4044.6934"/>
<path content="AP030,1,28,1,0,14,1,8,JPN" xlink:title="AP030" d="M14112.5745,-4044.3366L14112.6099,-4044.3535L14112.8098,-4044.3733L14112.8799,-4044.3867L14113.0798,-4044.5534L14113.15,-4044.5667L14113.3301,-4044.6068L14113.4293,-4044.6602L14113.5406,-4044.7334L14113.7894,-4044.8002L14113.8992,-4044.8933L14114.0396,-4044.9265L14114.18,-4044.9467L14114.7003,-4045.3068L14115.3107,-4045.8134L14115.4007,-4045.8466L14115.6097,-4045.8668L14115.7196,-4045.9202L14115.8798,-4046.0667L14116.04,-4046.1201L14116.1499,-4046.1334L14116.3101,-4046.1334L14116.3803,-4046.1735L14116.7007,-4046.5134L14116.8304,-4046.5534L14116.9907,-4046.5668L14117.1097,-4046.5534L14117.1997,-4046.5332L14117.2699,-4046.5332L14117.3096,-4046.5866L14117.2897,-4046.7999L14117.3996,-4046.9131L14117.5797,-4047.0531"/>
<path content="AP030,1,28,1,0,14,1,8,JPN" xlink:title="AP030" d="M14112.4893,-4044.26L14112.5397,-4044.3199L14112.5745,-4044.3366"/>
<path content="AP030,1,28,1,0,15,1,8,JPN" xlink:title="AP030" d="M14122.0596,-4060.7468L14120.9381,-4060.2463L14120.7413,-4059.9224L14120.9381,-4058.8638L14120.8847,-4058.3611L14120.4132,-4058.0265L14119.6289,-4057.7755L14119.0521,-4057.1056L14118.1091,-4056.1008L14116.8518,-4055.3055L14116.5909,-4054.887L14116.4856,-4054.4682L14116.5894,-4053.5885L14116.3803,-4053.0022L14115.9088,-4052.6676L14115.2267,-4052.2907L14115.0696,-4051.9978L14115.0177,-4051.5369L14114.9643,-4050.8671L14114.8071,-4050.4902L14114.1785,-4050.1553L14112.9745,-4049.7787L14112.1902,-4049.7375L14111.6653,-4049.5701L14111.2473,-4049.361L14111.6608,-4047.6822L14112.6587,-4046.4874L14112.4893,-4044.26"/>
<path content="AP030,1,28,1,0,15,1,8,JPN" xlink:title="AP030" d="M14120.5109,-4044.2051L14120.7809,-4044.9001L14123.6557,-4044.7514L14126.9089,-4045.7947L14128.4149,-4046.9372L14130.9692,-4048.2468"/>
<path content="AP030,1,28,1,0,15,1,8,JPN" xlink:title="AP030" d="M14117.5797,-4047.0531L14119.4641,-4045.3365L14120.5109,-4044.2051"/>
<path content="AP030,1,28,1,0,14,1,8,JPN" xlink:title="AP030" d="M14062.5,-4047.6462L14062.5198,-4047.5933L14062.6099,-4047.4533L14062.7899,-4047.3267L14062.9898,-4047.2332L14063.1104,-4047.1802L14063.15,-4047.1466L14063.2904,-4047.0402L14063.3606,-4046.8601L14063.4003,-4046.6599L14063.4506,-4046.5332L14063.5193,-4046.3867L14063.6093,-4046.2067L14063.6307,-4046.0133L14063.6307,-4045.0733L14063.6307,-4044.82L14063.6093,-4044.7468L14063.5803,-4044.7132L14063.5803,-4044.6201L14063.5803,-4044.5133L14063.6307,-4044.4267L14063.6307,-4044.2265L14063.6093,-4044.1933"/>
<path content="AP030,1,28,1,0,16,1,8,JPN" xlink:title="AP030" d="M14062.5,-4049.7056L14062.5397,-4049.6132L14062.6999,-4049.4133L14062.9501,-4049.1798L14063.2004,-4048.7667L14063.2904,-4048.4264L14063.3102,-4047.8466L14063.3804,-4047.58L14063.6505,-4047.0402L14063.7894,-4046.6801L14063.8596,-4046.0133L14063.8794,-4045.1801L14063.8596,-4044.5866L14063.8596,-4044.3733L14063.9297,-4044.2066L14064.1998,-4044.0132L14064.3295,-4043.7733L14064.5599,-4043.4132L14064.74,-4043.1667L14065.1093,-4042.9134L14065.5396,-4042.8398L14065.9698,-4042.8398L14066.33,-4042.7868L14066.8793,-4042.5865"/>
<path content="AP030,1,28,1,0,16,1,4,JPN" xlink:title="AP030" d="M14066.8793,-4042.5865L14067.1799,-4042.4999L14067.4698,-4042.3866L14067.5735,-4042.3046"/>
<path content="AP030,1,28,1,0,14,1,8,JPN" xlink:title="AP030" d="M14063.6093,-4044.1933L14063.8107,-4044.0266L14063.9496,-4043.8866L14064.0793,-4043.7199L14064.2197,-4043.5932L14064.4302,-4043.2201L14064.7003,-4042.8734L14064.9002,-4042.7666L14065.2695,-4042.7132L14065.5197,-4042.6067L14065.7394,-4042.5865L14066.0599,-4042.68L14066.9296,-4042.3733L14067.1799,-4042.3534L14067.3996,-4042.2466L14067.5201,-4042.2798L14067.5735,-4042.3046"/>
<path content="AP030,1,28,1,0,14,1,8,JPN" xlink:title="AP030" d="M14067.5735,-4042.3046L14067.6804,-4042.3534L14067.72,-4042.3332L14067.72,-4042.26L14067.6712,-4042.2276"/>
<path content="AP030,1,28,1,0,16,1,4,JPN" xlink:title="AP030" d="M14067.5735,-4042.3046L14067.6712,-4042.2276"/>
<path content="AP030,1,28,1,0,16,1,4,JPN" xlink:title="AP030" d="M14067.6712,-4042.2276L14067.7399,-4042.1734L14067.804,-4042.0933"/>
<path content="AP030,1,28,1,0,14,1,8,JPN" xlink:title="AP030" d="M14067.6712,-4042.2276L14067.5598,-4042.1532L14067.5797,-4042.1001L14067.7002,-4042.0666L14067.804,-4042.0933"/>
<path content="AP030,1,28,1,0,14,1,8,JPN" xlink:title="AP030" d="M14067.804,-4042.0933L14067.8299,-4042.1001L14067.8802,-4042.0799L14067.8955,-4041.9788"/>
<path content="AP030,1,28,1,0,16,1,4,JPN" xlink:title="AP030" d="M14067.804,-4042.0933L14067.8955,-4041.9788"/>
<path content="AP030,1,28,1,0,16,1,4,JPN" xlink:title="AP030" d="M14067.8955,-4041.9788L14067.9184,-4041.9506"/>
<path content="AP030,1,28,1,0,14,1,8,JPN" xlink:title="AP030" d="M14067.8955,-4041.9788L14067.9001,-4041.9533L14067.9184,-4041.9506"/>
<path content="AP030,1,28,1,0,14,1,8,JPN" xlink:title="AP030" d="M14082.8094,-4049.8135L14082.9697,-4049.7601L14083.1299,-4049.8135L14083.2397,-4049.7734L14083.2199,-4049.6666L14083.11,-4049.6132L14082.9697,-4049.5934L14082.9697,-4049.4133L14082.4493,-4049.2001L14082.4493,-4049.1066L14082.5195,-4049.0734L14082.5806,-4049.0532L14082.7896,-4049.0932L14082.8293,-4049.0532L14082.7896,-4048.9132L14082.8598,-4048.8602L14082.93,-4048.9132L14082.9697,-4048.9666L14083.0399,-4048.9132L14082.9697,-4048.84L14082.9498,-4048.7331L14083.02,-4048.5535L14083.1299,-4048.4402L14083.2397,-4048.4066L14083.2901,-4048.32L14083.1299,-4048.2265L14082.8293,-4048.1731L14082.7393,-4048.0465L14082.7194,-4047.8333L14082.7698,-4047.6665L14082.9498,-4047.3598L14083.2001,-4047.0734L14083.5403,-4046.7464L14083.5602,-4046.64L14083.5403,-4046.3867L14083.7692,-4045.9934L14084.0607,-4045.6135L14084.1507,-4045.5265L14084.1293,-4045.3999L14083.9294,-4045.2L14083.8593,-4044.9867L14083.9005,-4044.6934L14084.0607,-4044.5L14084.2896,-4044.3199L14084.3597,-4044.2467L14084.3597,-4044.08L14084.4894,-4043.94L14084.5398,-4043.8465L14084.5596,-4043.5932L14084.61,-4043.5066L14084.79,-4043.3266L14084.9899,-4043.2201L14085.2005,-4043.1667L14085.2402,-4043.0534L14085.4294,-4042.9665L14085.5392,-4042.8001L14085.5392,-4042.3L14085.6094,-4042.12L14085.7895,-4041.8331"/>
<path content="AP030,1,28,1,0,15,1,8,JPN" xlink:title="AP030" d="M14112.5745,-4044.3366L14112.7014,-4043.7504L14112.5,-4041.7755L14115.6494,-4042.2821L14118.9011,-4043.0889L14120.5109,-4044.2051"/>
<path content="AP030,1,28,1,0,14,1,8,JPN" xlink:title="AP030" d="M14085.7895,-4041.8331L14085.8994,-4041.7198L14086.1099,-4041.56L14086.3098,-4041.4665L14086.7401,-4041.3265L14087.0804,-4041.3467L14087.2406,-4041.3601L14087.3596,-4041.4532L14087.4298,-4041.4333L14087.5595,-4041.2865L14087.7701,-4041.2731L14088.2706,-4041.3799L14088.7695,-4041.6134L14088.8794,-4041.74L14088.9694,-4041.8465L14089.1998,-4041.9399L14089.3997,-4042.0265L14089.4302,-4042.12L14089.4302,-4042.3332L14089.5599,-4042.4065L14089.8804,-4042.5533L14090.2405,-4042.6201L14090.6097,-4042.6201L14090.8798,-4042.5331L14091.0599,-4042.5533L14091.2201,-4042.6201L14091.33,-4042.9134L14091.4703,-4042.9867L14091.5405,-4043.0401L14091.5802,-4043.3601L14091.6794,-4043.6535L14091.7694,-4043.8332L14091.9006,-4043.9201L14091.9296,-4044.0266L14091.8793,-4044.1734L14091.9693,-4044.2799L14092.0197,-4044.3733L14091.9693,-4044.5L14091.9693,-4044.5866L14091.9907,-4044.6602L14091.9907,-4044.6934L14091.9006,-4044.6934L14091.7892,-4044.7666L14091.6504,-4045.0733L14091.6504,-4045.1466L14091.7892,-4045.1801L14091.9693,-4045.1668L14092.0197,-4045.0932L14091.9693,-4045.0199L14092.0395,-4044.9665L14092.2699,-4044.9135L14092.3996,-4044.7865L14092.54,-4044.7132L14092.7902,-4044.6068L14092.9306,-4044.4801L14093.1503,-4044.3733L14093.3304,-4044.3867L14093.6096,-4044.5534L14093.8599,-4044.6934"/>
<path content="AP030,1,28,1,0,14,1,8,JPN" xlink:title="AP030" d="M14093.8599,-4044.6934L14094.0201,-4044.6201L14094.2902,-4044.6602L14094.3298,-4044.6602L14094.4,-4044.5866L14094.5404,-4044.3867L14094.7693,-4044.26L14094.7693,-4044.1334L14094.7693,-4044.0132L14094.8593,-4043.7935L14094.9295,-4043.7599L14095.0394,-4043.8465L14095.0806,-4043.8332L14095.1096,-4043.6333L14095.1294,-4043.5799L14095.2698,-4043.5799L14095.2393,-4043.4666L14095.0607,-4043.2865L14094.8593,-4043.2732L14094.7906,-4043.2335L14094.8105,-4043.1465L14094.9493,-4043.1065L14094.9905,-4043.0199L14094.9295,-4042.8932L14094.9707,-4042.82L14095.2393,-4042.7467L14095.3598,-4042.82L14095.43,-4042.8398L14095.5795,-4042.7334L14095.8801,-4042.7132L14095.9305,-4042.6399L14095.8099,-4042.4999L14095.7901,-4042.4267L14095.9305,-4042.1734L14096.0602,-4042.1932L14096.1304,-4042.1532L14096.1502,-4042.0265L14096.2006,-4041.8133L14096.3104,-4041.5798L14096.3104,-4041.5066L14096.3303,-4041.3601L14096.4493,-4041.18L14096.5195,-4041.1465L14096.5805,-4041.1999L14096.6293,-4041.18L14096.6797,-4041.0934"/>
<path content="AP030,1,28,1,0,14,1,8,JPN" xlink:title="AP030" d="M14096.6797,-4041.0934L14096.7407,-4041.0732L14097.02,-4041.1667L14097.1497,-4041.1667L14097.2702,-4041.1266L14097.3999,-4041.1667L14097.9904,-4041.2865L14098.1293,-4041.3067L14098.2697,-4041.2731L14098.4299,-4041.1266L14098.4695,-4041.1266L14098.6099,-4041.1465L14098.7,-4041.1465L14098.8297,-4041.1266L14099.0799,-4040.8001L14099.1806,-4040.7867L14099.5407,-4040.8932L14099.6796,-4040.9466L14099.8596,-4041.04L14099.9893,-4041.0534L14100.1099,-4041.0732L14100.3601,-4041.18L14100.47,-4041.1999L14100.7904,-4041.2201L14101.1505,-4041.2731L14101.2405,-4041.2731L14101.3794,-4041.2334L14101.5793,-4041.2334L14101.9302,-4041.1064L14102.1103,-4041.1064L14102.2903,-4041.1266L14102.4704,-4041.18L14102.6093,-4041.3067L14102.6794,-4041.3799L14102.7405,-4041.4001L14102.9907,-4041.4333L14103.2196,-4041.56L14103.5202,-4041.6866L14103.6301,-4041.6866L14104.0604,-4041.7065L14104.1794,-4041.7934L14104.5197,-4041.8133L14104.6799,-4041.7599L14104.9301,-4041.7732L14105.13,-4041.8331L14105.3101,-4041.9533L14105.3802,-4041.9731L14105.9296,-4041.9933L14106.0394,-4042.0666L14106.1798,-4042.0666L14106.3599,-4041.9933L14106.4301,-4041.9933L14106.4896,-4042.0132L14106.5598,-4042.0666L14106.6498,-4042.2066L14106.6803,-4042.2264L14106.7703,-4042.2798L14106.7703,-4042.3199L14106.6803,-4042.3534L14106.5796,-4042.3733L14106.5598,-4042.4065L14106.5796,-4042.4267L14106.7398,-4042.4801L14106.7703,-4042.4999L14106.7703,-4042.5331L14106.6299,-4042.6201L14106.6299,-4042.6601L14106.6498,-4042.68L14106.7001,-4042.7132L14106.81,-4042.7334L14106.9,-4042.8001L14107.0602,-4042.9665L14107.1304,-4043L14107.2006,-4043.0199L14107.2693,-4043.0199L14107.8995,-4043.0199L14107.9498,-4043L14107.9697,-4042.9665L14108.0399,-4042.8001L14108.0795,-4042.7666L14108.2001,-4042.7666L14108.2703,-4042.8001L14108.3298,-4042.86L14108.4702,-4042.9665L14108.58,-4043.1065L14108.7906,-4043.2533L14109.0805,-4043.3601L14109.2407,-4043.4666L14109.7397,-4043.7065L14109.8297,-4043.7599L14110.2707,-4043.8667L14110.6796,-4043.9934L14110.7895,-4044.0132L14110.8307,-4044.0132L14111.29,-4044.0266L14111.3602,-4044.0132L14111.6104,-4043.8999L14111.6806,-4043.8866L14111.9003,-4043.8999L14112.1796,-4043.9934L14112.4893,-4044.26"/>
<path content="AP030,1,28,1,0,14,1,8,JPN" xlink:title="AP030" d="M14085.7895,-4041.8331L14085.7407,-4041.74L14085.6506,-4041.7198L14085.5606,-4041.7732L14085.5194,-4041.9201L14085.4904,-4042.0265L14085.4004,-4042.0799L14085.3302,-4042.0467L14085.3302,-4041.9399L14085.3806,-4041.7198L14085.4294,-4041.6332L14085.7407,-4041.5066L14085.8597,-4041.4333L14085.8795,-4041.2731L14085.8795,-4041.1667L14085.8994,-4041.1465L14085.9894,-4041.1667L14086.0596,-4041.1999L14086.1298,-4041.1999L14086.1496,-4041.1667L14086.1099,-4041.0198L14086.2198,-4040.86L14086.3098,-4040.7867L14086.3998,-4040.8001L14086.4502,-4040.9134L14086.5402,-4040.9134L14086.5601,-4040.86L14086.6302,-4040.5334L14086.6501,-4040.4266L14086.6501,-4040.3332L14086.5799,-4040.2267"/>
<path content="AP030,1,28,1,0,16,1,4,JPN" xlink:title="AP030" d="M14067.9184,-4041.9506L14067.9703,-4041.8865L14068.1793,-4041.4532L14068.6295,-4040.7131L14069.0201,-4040.0467L14069.1803,-4039.8335L14069.4504,-4039.4531L14069.5801,-4039.3467"/>
<path content="AP030,1,28,1,0,14,1,8,JPN" xlink:title="AP030" d="M14125.65,-4038.7466L14125.9506,-4038.8733L14126.1307,-4038.9465L14126.3107,-4039.1266L14126.3107,-4039.2735L14126.3107,-4039.8865L14126.3596,-4040.1001L14126.3992,-4040.1932L14126.5594,-4040.3332L14126.6998,-4040.44L14127.0203,-4040.7131L14127.2903,-4040.8733L14127.4307,-4040.9267L14127.5803,-4040.9866L14127.7405,-4041.1266L14127.8305,-4041.2201L14128.0594,-4041.3601L14128.3997,-4041.4333L14128.45,-4041.4532L14128.5202,-4041.5066L14128.6102,-4041.6332L14128.7003,-4041.7198L14128.83,-4041.7732L14128.9902,-4041.8331L14129.4693,-4041.8331L14129.5807,-4041.8331L14129.8096,-4041.8133L14130.0201,-4041.7198L14130.13,-4041.6866L14130.22,-4041.6866L14130.4504,-4041.8133L14130.5405,-4041.8865L14130.5603,-4041.8999L14130.6305,-4042.26L14130.7404,-4042.44L14130.8105,-4042.5133L14131.0196,-4042.6201L14131.9504,-4043.0401L14132.5806,-4043.3067L14132.7194,-4043.5066L14132.8125,-4043.6083"/>
<path content="AP030,1,28,1,0,15,1,8,JPN" xlink:title="AP030" d="M14120.5109,-4044.2051L14120.9808,-4043.2415L14121.1899,-4042.1944L14121.3989,-4041.608L14121.817,-4041.0633L14122.7066,-4040.686L14123.4406,-4040.6017L14123.9639,-4040.4758L14124.5911,-4040.015L14125.1678,-4039.4283L14125.5859,-4039.0095L14125.65,-4038.7466"/>
<path content="AP030,1,28,1,0,14,1,8,JPN" xlink:title="AP030" d="M14086.5799,-4040.2267L14086.5799,-4040.0799L14086.7401,-4039.92L14086.8301,-4039.8998L14086.9904,-4039.8998L14087.1094,-4039.8132L14087.2192,-4039.6332L14087.3596,-4039.5802L14087.4496,-4039.5401L14087.5198,-4039.4333L14087.6495,-4039.2864L14087.8799,-4039.1998L14088.2202,-4038.9866L14088.4003,-4038.8L14088.4903,-4038.6932L14088.6093,-4038.3865L14088.6993,-4038.3202L14088.8107,-4038.2599L14088.9297,-4038.1733L14089.0396,-4038.1199L14089.1296,-4038.1001L14089.1495,-4038.0466L14089.1098,-4037.8864L14088.9496,-4037.7201L14088.8107,-4037.6331L14088.7207,-4037.5401L14088.6795,-4037.4664"/>
<path content="AP030,1,28,1,0,14,1,8,JPN" xlink:title="AP030" d="M14124.2905,-4037.0934L14124.2004,-4037.1666L14124.0204,-4037.3466L14123.97,-4037.4332L14123.97,-4037.5267L14123.9899,-4037.6133L14124.0799,-4037.7201L14124.2203,-4037.8666L14124.4904,-4038.0798L14124.6796,-4038.2065L14124.9298,-4038.3202L14125.1801,-4038.4068L14125.2899,-4038.4998L14125.3296,-4038.5334L14125.5402,-4038.7135L14125.65,-4038.7466"/>
<path content="AP030,1,28,1,0,15,1,8,JPN" xlink:title="AP030" d="M14096.6797,-4041.0934L14097.1161,-4040.7684L14097.2641,-4040.6139L14098.0484,-4040.0272L14098.5718,-4039.5245L14099.0952,-4038.8958L14099.2523,-4038.2675L14099.0417,-4037.5557L14099.1455,-4036.9274L14099.3027,-4036.3827L14099.7742,-4035.7124L14100.6104,-4035.1257L14101.7105,-4034.7485L14102.3376,-4034.7061L14102.652,-4034.9571L14102.9144,-4035.5015L14103.0716,-4036.0878L14103.3859,-4036.4647L14103.8574,-4036.6737L14104.2236,-4036.6737L14104.5898,-4036.4639L14105.3757,-4036.4639L14106.8939,-4036.3373L14108.046,-4036.3369L14109.9304,-4035.9592L14111.8149,-4035.3718L14113.0707,-4034.7431L14114.7449,-4034.2515L14114.9986,-4034.1396L14115.1794,-4033.7399"/>
<path content="AP030,1,28,1,0,14,1,8,JPN" xlink:title="AP030" d="M14062.5,-4042.039L14062.6495,-4042.1001L14062.8601,-4042.26L14062.9898,-4042.3332L14063.1805,-4042.4065L14063.5406,-4042.6067L14063.7207,-4042.7666L14063.7695,-4042.9867L14063.6795,-4043.1465L14063.5406,-4043.3067L14063.5193,-4043.3998L14063.5803,-4043.4868L14063.6093,-4043.6333L14063.5406,-4043.7733L14063.4705,-4043.9201L14063.4903,-4044.0468L14063.5605,-4044.12L14063.6093,-4044.1933"/>
<path content="AP030,1,28,1,0,14,1,8,JPN" xlink:title="AP030" d="M14115.1794,-4033.7399L14115.3305,-4033.8135L14115.6799,-4033.8467L14115.8295,-4033.8665L14115.95,-4033.9401L14116.0202,-4034.0134L14115.9897,-4034.1202L14115.9698,-4034.2602L14115.8295,-4034.4265L14115.86,-4034.4398L14116.1301,-4034.6066L14116.2903,-4034.66L14116.5405,-4034.6802L14116.7694,-4034.7332L14117.0395,-4034.8732L14117.7704,-4035.2333L14118.3105,-4035.6667L14118.4494,-4035.7735L14118.5806,-4035.9001L14118.6798,-4035.92L14118.9499,-4035.9001L14119.0399,-4035.8665L14119.1498,-4035.7735L14119.2902,-4035.7399L14119.3298,-4035.7399L14119.4504,-4035.7399L14119.9295,-4035.7735L14120.1797,-4035.8334L14120.3293,-4035.8467L14120.6299,-4035.8868L14120.9,-4036.0664L14121.1807,-4036.2267L14121.3104,-4036.3201L14121.4905,-4036.3731L14121.7407,-4036.3865L14121.9498,-4036.4399L14122.0596,-4036.4799L14122.2,-4036.4799L14122.6501,-4036.5131L14122.9904,-4036.6066L14123.1796,-4036.6932L14123.6298,-4036.8935L14123.8297,-4036.9865L14124.0204,-4037.0201L14124.0799,-4037.0399L14124.1302,-4037.0399L14124.2905,-4037.0934"/>
<path content="AP030,1,28,1,0,16,1,8,JPN" xlink:title="AP030" d="M14071.5607,-4037.0201L14071.7194,-4036.8599L14072.1497,-4036.6199L14072.6105,-4036.3201L14072.8104,-4036.1198L14072.9294,-4035.8665L14072.9706,-4035.2734L14072.9904,-4034.9266L14073.0804,-4034.6401L14073.0804,-4034.2068L14073.0606,-4033.9535L14073.0392,-4033.7067L14073.1293,-4033.54L14073.2895,-4033.2535L14073.3307,-4033.0933L14073.2938,-4032.5081"/>
<path content="AP030,1,28,1,0,15,1,8,JPN" xlink:title="AP030" d="M14074.1226,-4032.3505L14075.1587,-4032.7805L14076.355,-4033.4713L14078.894,-4036.2873L14079.1367,-4038.1149L14079.5395,-4038.3057L14079.8767,-4040.0383L14081.3629,-4041.2037L14081.7352,-4041.1568L14082.5714,-4041.8938L14083.6288,-4041.7294L14084.996,-4040.9004L14086.5799,-4040.2267"/>
<path content="AP030,1,28,1,0,14,1,8,JPN" xlink:title="AP030" d="M14067.9184,-4041.9506L14067.9901,-4041.9399L14068.4494,-4042.0132L14068.5806,-4041.9731L14068.7195,-4041.7599L14068.8095,-4041.7065L14068.9499,-4041.7599L14069.0399,-4041.7198L14069.2001,-4041.5066L14069.2398,-4041.2201L14069.2398,-4040.9134L14069.2902,-4040.8401L14069.4901,-4040.7665L14069.5801,-4040.6933L14069.6793,-4040.4999L14069.6503,-4040.3332L14069.6304,-4040.1001L14069.6503,-4039.8132L14069.7403,-4039.5802L14069.9707,-4039.2735L14070.3995,-4038.8401L14070.7703,-4038.5666L14071.2402,-4038.1733L14071.3806,-4038.1535L14071.5607,-4038.1733L14071.8094,-4038.1535L14072.1298,-4038.0466L14072.3801,-4038.0466L14072.7005,-4037.9734L14072.8607,-4037.8666L14073.0194,-4037.5599L14073.0606,-4037.4535L14073.0606,-4037.4001L14072.9904,-4037.1468L14072.8607,-4036.9667L14072.8104,-4036.8599L14072.8302,-4036.7664L14072.9507,-4036.66L14073.3994,-4036.2999L14073.4695,-4036.2267L14073.4695,-4036.1534L14073.4894,-4035.8665L14073.4894,-4035.5934L14073.6801,-4035.4866L14073.7198,-4035.4134L14073.7198,-4035.2001L14073.5199,-4035.0735L14073.4695,-4034.9667L14073.4695,-4034.6066L14073.6298,-4034.5001L14073.6496,-4034.4265L14073.4695,-4034.0134L14073.4497,-4033.9199L14073.4695,-4033.7933L14073.5397,-4033.6666L14073.7198,-4033.4667L14073.8998,-4033.1066L14074.0601,-4032.7667L14074.1104,-4032.5001L14074.1226,-4032.3505"/>
<path content="AP030,1,28,1,0,15,1,8,JPN" xlink:title="AP030" d="M14074.1211,-4032.3498L14073.7818,-4032.3353L14073.681,-4032.3637L14073.4635,-4032.5018L14073.2938,-4032.5081"/>
<path content="AP030,1,28,1,0,14,1,8,JPN" xlink:title="AP030" d="M14124.2905,-4037.0934L14124.7192,-4036.7332L14124.7406,-4036.66L14124.7696,-4036.5532L14124.7894,-4036.4601L14124.8093,-4036.3533L14124.8993,-4036.2598L14125.0198,-4036.1935L14125.1801,-4036.1534L14125.2396,-4036.1332L14125.2899,-4036.1L14125.3098,-4036.0134L14125.3098,-4035.9531L14125.3296,-4035.92L14125.4303,-4035.8131L14125.4501,-4035.7735L14125.47,-4035.7201L14125.47,-4035.6133L14125.4898,-4035.54L14125.5402,-4035.4866L14125.7202,-4035.36L14125.9705,-4035.2734L14126.1093,-4035.2333L14126.8295,-4035.2333L14126.9501,-4035.2333L14127.0401,-4035.1799L14127.5604,-4034.7866L14127.6306,-4034.7332L14127.7695,-4034.6199L14127.8107,-4034.5333L14127.8595,-4034.3864L14128.0396,-4034.1732L14128.1296,-4034.1L14128.1799,-4034.0668L14128.27,-4034.0267L14128.4302,-4033.9931L14128.9703,-4033.9001L14129.1794,-4033.8665L14129.213,-4033.873L14129.3594,-4033.9001L14129.5593,-4033.9199L14129.7195,-4033.9401L14129.8599,-4033.9199L14129.9896,-4033.8665L14130.0598,-4033.7734L14130.5603,-4033.0002L14130.6305,-4032.9266L14130.6793,-4032.7866L14130.6839,-4032.7477L14130.7007,-4032.6065L14130.7404,-4032.4799L14130.7907,-4032.3734L14131.1493,-4031.9199L14131.2698,-4031.72L14131.2698,-4031.4533"/>
<path content="AP030,1,28,1,0,16,1,8,JPN" xlink:title="AP030" d="M14073.2938,-4032.5081L14073.2895,-4032.4402L14073.3597,-4032.1201L14073.4894,-4031.8665L14073.5397,-4031.6132L14073.5596,-4031.2534"/>
<path content="AP030,1,28,1,0,14,1,8,JPN" xlink:title="AP030" d="M14131.2698,-4031.4533L14131.3797,-4031.4133L14131.6101,-4031.3065L14131.6498,-4031.3065L14131.7398,-4031.3065L14131.8802,-4031.3065L14131.9901,-4031.2733L14132.0801,-4031.2199L14132.2006,-4031.1268L14132.2403,-4031.0932L14132.3303,-4031.0932L14132.4493,-4031.0932L14132.5607,-4031.1268L14132.7896,-4031.2199L14132.8125,-4031.2379"/>
<path content="AP030,1,28,1,0,16,1,4,JPN" xlink:title="AP030" d="M14073.5596,-4031.2534L14073.6496,-4031.0532L14073.9502,-4030.5866L14074.3301,-4030.3001"/>
<path content="AP030,1,28,1,0,14,1,8,JPN" xlink:title="AP030" d="M14088.6795,-4037.4664L14088.8992,-4037.5401L14089.0594,-4037.5935L14089.4501,-4037.5935L14089.5203,-4037.6133L14089.7903,-4037.7602L14089.9307,-4037.7934L14090.1306,-4037.6865L14090.1993,-4037.6331L14090.4495,-4037.5401L14090.8798,-4037.4134L14090.9897,-4037.3466L14091.04,-4037.2532L14091.0202,-4037.1666L14090.7898,-4036.5532L14090.7898,-4036.4601L14090.8997,-4036.3865L14091.1804,-4036.3201L14091.2704,-4036.2267L14091.33,-4036.0664L14091.4307,-4036.0466L14091.5604,-4036.1332L14091.6504,-4036.1L14091.7694,-4035.7399L14091.8594,-4035.6667L14091.9907,-4035.6533L14092.1295,-4035.6533L14092.2699,-4035.5064L14092.45,-4035.4668L14092.45,-4035.3065L14092.6102,-4035.0735L14092.6498,-4034.8202L14092.6102,-4034.5333L14092.5797,-4034.3533L14092.6102,-4034.1534L14092.7902,-4033.9733L14092.8101,-4033.7601L14092.8802,-4033.5602L14093.0405,-4033.4534L14093.1793,-4033.4L14093.5806,-4033.2199L14093.8995,-4033.0399L14094.3298,-4032.6401L14094.8105,-4032.4066L14095.3796,-4032.3002L14095.7703,-4032.3002L14096.2692,-4032.2468L14096.8307,-4032.3002L14097.4304,-4032.2468L14098.1506,-4032.0267L14098.4695,-4031.9935L14098.6801,-4031.9733L14099.0799,-4031.7734L14099.2004,-4031.5933L14099.2004,-4031.5601L14099.1501,-4031.5399L14099.0799,-4031.5399L14098.9502,-4031.6132L14098.8602,-4031.6666L14098.79,-4031.6132L14098.8602,-4031.5399L14099.0799,-4031.4533L14099.2401,-4031.3267L14099.4003,-4031.2534L14099.4705,-4031.2534L14099.4904,-4031.3465L14099.5605,-4031.4335L14099.6094,-4031.4335L14099.6796,-4031.3999L14099.7696,-4031.3599L14099.8093,-4031.3065L14099.8306,-4031.2534L14099.8596,-4031.1798L14099.8596,-4031.1268L14099.8795,-4031.0932L14099.9298,-4031.0532L14099.9893,-4031.0398L14100.1297,-4030.9868L14100.2197,-4030.9265L14100.2899,-4030.8735L14100.2899,-4030.7865L14100.3098,-4030.6801L14100.3601,-4030.5866L14100.3799,-4030.5134L14100.4501,-4030.4401L14100.7004,-4030.1933L14101.0803,-4029.8664L14101.2695,-4029.7932L14101.77,-4029.6665L14102.5406,-4029.4865L14102.9297,-4029.4533L14104.7699,-4029.1466L14104.9896,-4029.1466L14105.13,-4029.2L14105.2399,-4029.2198L14105.5801,-4029.2198L14105.7205,-4029.2866L14105.8594,-4029.3064L14106.0593,-4029.3064L14106.2195,-4029.2534L14106.3293,-4029.2332L14106.5201,-4029.2198L14106.6803,-4029.1267L14106.7902,-4029.0932L14106.8604,-4029.0932L14107.0801,-4029.1664L14107.2006,-4029.2332L14107.3303,-4029.2534L14107.4295,-4029.2866L14107.6294,-4029.3999L14107.6797,-4029.4132L14107.8293,-4029.4533L14107.9498,-4029.5067L14108.1497,-4029.7066L14108.6502,-4030.0266L14108.9493,-4030.1334L14109.1293,-4030.2467L14109.4299,-4030.4066L14109.52,-4030.4401L14109.7198,-4030.4401L14109.8602,-4030.4798L14109.9701,-4030.5534L14110.2005,-4030.7133L14110.4904,-4030.8399L14110.7193,-4030.8933L14110.8795,-4030.9132L14110.9894,-4030.8735L14111.2,-4030.7999L14111.29,-4030.7865L14111.6501,-4030.8601L14111.9003,-4030.9132L14112.0193,-4030.9467L14112.0804,-4031.02L14112.1994,-4031.1665L14112.3795,-4031.3065L14112.7197,-4031.4133L14112.7899,-4031.4533L14113.0203,-4031.6132L14113.2004,-4031.7066L14113.3102,-4031.8134L14113.3606,-4031.9199L14113.4293,-4031.9733L14113.6307,-4032.0465L14113.7405,-4032.1201L14113.8596,-4032.2468L14113.9297,-4032.28L14114.1495,-4032.4402L14114.4302,-4032.6599L14114.4897,-4032.7667L14114.5203,-4032.84L14114.4501,-4032.9468L14114.4501,-4033.02L14114.5203,-4033.1467L14114.74,-4033.2535L14114.7903,-4033.4332L14114.9307,-4033.6132L14115.1794,-4033.7399"/>
<path content="AP030,1,28,1,0,14,1,8,JPN" xlink:title="AP030" d="M14129.3106,-4028.68L14129.2892,-4028.7666L14129.2206,-4029.0001L14129.2007,-4029.1466L14129.2206,-4029.2198L14129.2404,-4029.3064L14129.3793,-4029.4865L14129.8294,-4029.9534L14130.3101,-4030.4401L14130.5603,-4030.5534L14130.8304,-4030.8399L14131.0806,-4031.1268L14131.2698,-4031.4533"/>
<path content="AP030,1,28,1,0,15,1,8,JPN" xlink:title="AP030" d="M14062.5,-4028.4789L14062.5397,-4028.4981L14062.7701,-4029.0642L14062.9639,-4029.6005L14063.7142,-4030.0764L14064.6365,-4030.2564L14065.7613,-4029.2216L14066.7286,-4028.7492L14067.426,-4028.5692L14067.8253,-4028.7067L14068.5959,-4029.1241L14069.4458,-4029.6005L14070.3705,-4030.1071L14071.6049,-4030.3158L14072.132,-4030.9426L14072.2752,-4031.3486L14072.5087,-4031.9049L14072.8057,-4032.3678L14073.0179,-4032.4896L14073.2938,-4032.5081"/>
<path content="AP030,1,28,1,0,14,1,8,JPN" xlink:title="AP030" d="M14080.0598,-4027.8667L14080.1102,-4027.9732L14080.2704,-4028.26L14080.4504,-4028.4801L14080.7007,-4028.6598L14080.8594,-4028.7132L14080.9006,-4028.7464L14081.0394,-4028.82L14081.7902,-4029.2534L14081.9504,-4029.3064L14082.5195,-4029.3598L14082.8598,-4029.4533L14083.2199,-4029.5601L14083.3298,-4029.5933L14083.7906,-4029.7066L14083.7906,-4029.8134L14083.8104,-4029.8866L14083.9294,-4029.9934L14084.0393,-4030.1533L14084.0195,-4030.3734L14083.9493,-4030.64L14083.8303,-4030.8399L14083.6502,-4031.0532L14083.2397,-4031.3465L14083.0597,-4031.5601L14083.02,-4031.76L14083.02,-4032.2266L14082.93,-4032.6935L14082.7896,-4033.1665L14082.8293,-4033.3599L14082.7896,-4033.4667L14082.7698,-4033.72L14082.8598,-4033.8333L14082.9498,-4033.9199L14083.3801,-4034.3334L14083.7006,-4034.6401L14083.9294,-4034.7332L14084.3094,-4035.0201L14084.3994,-4035.2001L14084.4498,-4035.2734L14084.7198,-4035.5064L14084.7702,-4035.6335L14084.8602,-4035.9001L14084.9304,-4036.0134L14085.1807,-4036.2064L14085.4507,-4036.3335L14085.7697,-4036.4265L14085.9299,-4036.4799L14086.3098,-4036.66L14086.7401,-4036.9667L14086.9003,-4037.0533L14087.3306,-4037.1666L14087.4893,-4037.2334L14087.6099,-4037.3066L14087.8296,-4037.2734L14087.9303,-4037.3066L14087.9898,-4037.4866L14088.06,-4037.5065L14088.4293,-4037.4332L14088.6505,-4037.4535L14088.6795,-4037.4664"/>
<path content="AP030,1,28,1,0,14,1,8,JPN" xlink:title="AP030" d="M14129.3106,-4028.68L14129.3304,-4028.4801L14129.3594,-4028.26L14129.4006,-4028.0666L14129.4296,-4027.7599L14129.4006,-4027.2865"/>
<path content="AP030,1,28,1,0,14,1,8,JPN" xlink:title="AP030" d="M14077.2003,-4026.4999L14077.2705,-4026.5331L14077.7206,-4026.82L14077.8595,-4026.8932L14078.36,-4027L14078.5797,-4027.0931L14078.8803,-4027.2331L14079.1504,-4027.4532L14079.4907,-4027.5265L14079.6295,-4027.5398L14079.8599,-4027.6134L14080.04,-4027.7199L14080.0598,-4027.8667"/>
<path content="AP030,1,28,1,0,14,1,8,JPN" xlink:title="AP030" d="M14074.1211,-4032.3498L14074.1302,-4032.2601L14074.1501,-4031.7734L14074.2706,-4031.5933L14074.5804,-4031.4133L14074.8596,-4031.3065L14074.8795,-4031.2866L14075.0397,-4031.1466L14075.2899,-4030.8735L14075.3799,-4030.6065L14075.3998,-4030.5134L14075.6104,-4030.1731L14075.9293,-4029.8466L14076.0193,-4029.6532L14076.1093,-4029.3999L14076.3794,-4028.9467L14076.3992,-4028.7132L14076.4297,-4028.12L14076.5198,-4027.94L14076.7395,-4027.8465L14077.0401,-4027.8133L14077.0798,-4027.7401L14077.1103,-4027.4334L14077.1103,-4027.1267L14077.15,-4026.7666L14077.2003,-4026.4999"/>
<path content="AP030,1,28,1,0,14,1,8,JPN" xlink:title="AP030" d="M14076.9897,-4026.3866L14077.2003,-4026.4999"/>
<path content="AP030,1,28,1,0,14,1,8,JPN" xlink:title="AP030" d="M14076.7197,-4026.2436L14076.9897,-4026.3866"/>
<path content="AP030,1,28,1,0,16,1,8,JPN" xlink:title="AP030" d="M14074.3301,-4030.3001L14074.6994,-4030.0999L14075.1801,-4029.8664L14075.3799,-4029.7066L14075.6805,-4029.4533L14075.8606,-4029.1267L14075.9903,-4028.7865L14076.1505,-4028.12L14076.2405,-4027.4532L14076.3794,-4027.1065L14076.4496,-4027.0401L14076.6296,-4026.7334L14076.7197,-4026.44L14076.7197,-4026.2436"/>
<path content="AP030,1,28,1,0,15,1,8,JPN" xlink:title="AP030" d="M14115.1794,-4033.7399L14115.6876,-4032.0614L14116.0004,-4031.1817L14116.2628,-4030.7209L14116.3147,-4030.2601L14116.9937,-4029.0031L14117.2028,-4028.5007L14117.0456,-4027.956L14116.6794,-4027.5795L14116.2598,-4027.2865L14115.9454,-4026.8677L14115.9973,-4026.6582L14116.2598,-4026.5743L14116.7313,-4026.5743L14117.2546,-4026.532L14117.8299,-4026.4061L14118.4067,-4026.1967L14119.0872,-4026.2379L14119.9249,-4026.4889L14120.9717,-4026.9493L14122.438,-4027.7443L14123.0148,-4028.0792L14123.5901,-4028.2463L14124.2187,-4028.2459L14125.1602,-4028.3295L14125.3708,-4028.5385L14125.7889,-4028.7479L14126.1032,-4028.9574L14126.9943,-4029.208L14127.5177,-4029.2076L14127.8839,-4029.2076L14128.4073,-4028.9982L14128.7247,-4028.8708L14128.8254,-4028.8303L14128.9825,-4028.7884L14129.1519,-4028.7323L14129.3106,-4028.68"/>
<path content="AP030,1,28,1,0,14,1,8,JPN" xlink:title="AP030" d="M14129.4006,-4027.2865L14129.3594,-4027.1801L14129.3594,-4027.1667L14129.2007,-4027L14129.0436,-4026.8906L14129.0207,-4026.8734L14128.923,-4026.8238L14128.8101,-4026.7666L14128.5599,-4026.5667L14128.3798,-4026.4267L14128.3295,-4026.3733L14128.3096,-4026.2066L14128.27,-4025.9533L14128.2196,-4025.8667L14127.7405,-4025.5402L14127.4307,-4025.3265L14127.3804,-4025.2335L14127.1805,-4024.9866L14127.15,-4024.86L14127.15,-4024.7131L14127.24,-4024.6067L14127.3102,-4024.5533L14127.3605,-4024.3866L14127.3804,-4024.3332"/>
<path content="AP030,1,28,1,0,15,1,8,JPN" xlink:title="AP030" d="M14129.4006,-4027.2865L14131.842,-4027.0863L14132.8125,-4026.0776"/>
<path content="AP030,1,28,1,0,14,1,8,JPN" xlink:title="AP030" d="M14127.3804,-4024.3332L14127.4002,-4024.2599L14127.4506,-4024.2268L14127.5604,-4024.1734L14127.7313,-4024.1188L14127.7893,-4024.1001L14127.8503,-4024.0768L14127.9297,-4024.0467L14127.9694,-4023.9735L14128.3798,-4023.3067L14128.54,-4023.1464L14128.569,-4023.1052"/>
<path content="AP030,1,28,1,0,14,1,8,JPN" xlink:title="AP030" d="M14076.9897,-4026.3866L14076.9699,-4025.6332L14076.947,-4025.206L14076.9302,-4024.9134L14077.1805,-4024.7868L14077.4506,-4024.5865L14077.5803,-4024.4801L14077.9694,-4024.1001L14078.1799,-4023.8667L14078.3295,-4023.7064L14078.6301,-4023.3067L14078.7201,-4023.0934L14078.7201,-4022.7333L14078.7216,-4022.683"/>
<path content="AP030,1,28,1,0,16,1,8,JPN" xlink:title="AP030" d="M14076.7197,-4026.2436L14076.7197,-4025.8865L14076.7197,-4025.6535L14076.6998,-4025.3067L14076.738,-4025.1026L14076.9501,-4024.6601L14077.24,-4024.3198L14077.7893,-4023.9201L14077.9907,-4023.7732L14078.2394,-4023.4001L14078.7003,-4022.7135L14078.7216,-4022.683"/>
<path content="AP030,1,28,1,0,14,1,8,JPN" xlink:title="AP030" d="M14128.569,-4023.1052L14128.6301,-4023.0202L14128.7201,-4023L14128.9505,-4023.0202L14129.0802,-4022.9866L14129.1504,-4022.9668L14129.2404,-4022.9134L14129.2694,-4022.8931L14129.5197,-4022.7467L14129.5807,-4022.7135L14129.8599,-4022.5864"/>
<path content="AP030,1,28,1,0,14,1,8,JPN" xlink:title="AP030" d="M14071.0403,-4022.4266L14071.5393,-4022.3866L14072.2198,-4022.4068L14072.5204,-4022.5132L14072.9294,-4022.7665L14073.1094,-4022.9134L14073.1796,-4023.0534L14073.4299,-4023.5268L14073.6801,-4023.9399L14073.9304,-4024.3732L14073.9502,-4024.4598L14074.0799,-4024.6201L14074.3103,-4024.6933L14074.8596,-4024.7665L14075.3799,-4024.7868L14075.65,-4024.8734L14075.7904,-4025.0198L14076.1093,-4025.4868L14076.2405,-4025.7198L14076.3794,-4025.9399L14076.4893,-4026.0799L14076.6495,-4026.2066L14076.7197,-4026.2436"/>
<path content="AP030,1,28,1,0,15,1,8,JPN" xlink:title="AP030" d="M14068.4906,-4022.3202L14070.0821,-4022.4216L14070.6055,-4022.4243L14071.0403,-4022.4266"/>
<path content="AP030,1,28,1,0,14,1,8,JPN" xlink:title="AP030" d="M14068.4906,-4022.3202L14068.5593,-4022.44L14068.5806,-4022.4998L14068.6096,-4022.6398L14068.7195,-4022.8001L14068.8797,-4022.9134L14069.22,-4022.9668L14069.6106,-4023L14069.8303,-4023.0202L14070.34,-4022.776L14070.3598,-4022.7665L14071.0403,-4022.4266"/>
<path content="AP030,1,28,1,0,16,1,8,JPN" xlink:title="AP030" d="M14128.569,-4023.1052L14129.1794,-4023.2533L14129.7699,-4023.3467L14130.1102,-4023.3467L14130.3802,-4023.3467L14130.6503,-4023.2864L14130.9006,-4023.2334L14131.7902,-4023.1464L14132.3105,-4023.0732L14132.5394,-4023L14132.7393,-4022.8733L14132.8125,-4022.8215"/>
<path content="AP030,1,28,1,0,14,1,8,JPN" xlink:title="AP030" d="M14062.5,-4021.701L14062.8296,-4021.7602L14062.8799,-4021.7731L14063.5605,-4021.8132L14063.9694,-4021.92L14064.4501,-4021.9532L14064.74,-4021.9933L14064.9902,-4022.1199L14065.1993,-4022.2466L14065.2893,-4022.2801L14065.5197,-4022.3L14066.3605,-4022.3L14066.6107,-4022.3L14067.4896,-4022.2801L14067.63,-4022.2801L14068.0252,-4022.2801L14068.4006,-4022.2801L14068.4906,-4022.3202"/>
<path content="AP030,1,28,1,0,15,1,8,JPN" xlink:title="AP030" d="M14079.8996,-4021.6133L14080.4794,-4024.3713L14080.1392,-4026.3332L14080.0598,-4027.8667"/>
<path content="AP030,1,28,1,0,16,1,8,JPN" xlink:title="AP030" d="M14078.7216,-4022.683L14079.0405,-4022.2466L14079.1306,-4022.1554L14079.2404,-4022.0467L14079.8996,-4021.6133"/>
<path content="AP030,1,28,1,0,15,1,8,JPN" xlink:title="AP030" d="M14129.8599,-4022.5864L14130.4123,-4022.8981L14130.777,-4022.8561L14131.6101,-4022.5224L14132.8125,-4022.0782"/>
<path content="AP030,1,28,1,0,15,1,8,JPN" xlink:title="AP030" d="M14062.5,-4021.1666L14064.2288,-4021.1292L14065.8417,-4021.4165L14067.3294,-4021.463L14067.395,-4021.4649L14067.9321,-4021.7041L14068.2907,-4021.8475L14068.4906,-4022.3202"/>
<path content="AP030,1,28,1,0,16,1,8,JPN" xlink:title="AP030" d="M14079.8996,-4021.6133L14080.4001,-4021.2734L14080.6107,-4021.0201L14080.7205,-4020.8L14080.8594,-4020.1534L14080.9494,-4019.5934L14080.9296,-4019.22"/>
<path content="AP030,1,28,1,0,14,1,8,JPN" xlink:title="AP030" d="M14078.7216,-4022.683L14078.7399,-4022.2801L14078.8101,-4022.0135L14078.9703,-4021.6534L14079.0207,-4021.4134L14079.0802,-4020.8599L14079.2007,-4020.6799L14079.2191,-4020.6566L14079.3793,-4020.4601L14079.4296,-4020.2999L14079.3793,-4020.1199L14079.1504,-4019.8132L14078.9703,-4019.5934L14078.9307,-4019.4534L14078.9307,-4019.4L14078.9001,-4019.1265"/>
<path content="AP030,1,28,1,0,16,1,8,JPN" xlink:title="AP030" d="M14080.9296,-4019.22L14080.8594,-4019.0399L14080.2704,-4018.5135L14080.0201,-4018.28"/>
<path content="AP030,1,28,1,0,15,1,8,JPN" xlink:title="AP030" d="M14078.9001,-4019.1265L14080.0201,-4018.28"/>
<path content="AP030,1,28,1,0,16,1,8,JPN" xlink:title="AP030" d="M14116.5802,-4018.1934L14116.8304,-4018.3334L14117.0593,-4018.5333L14117.3798,-4018.9133L14117.63,-4019.3268L14117.8802,-4019.7201L14118.1107,-4019.9402L14118.6295,-4020.3201L14118.7897,-4020.3865L14118.9499,-4020.4266L14119.1299,-4020.4601L14119.4702,-4020.4399L14120.3598,-4020.4067L14120.8099,-4020.4399L14121.08,-4020.5132L14121.4493,-4020.6402L14121.6293,-4020.7466L14121.9299,-4020.9866L14122.4503,-4021.4664L14122.6807,-4021.6133L14122.9706,-4021.7602L14123.2193,-4021.8132L14124.6506,-4022.1001L14125.0397,-4022.2267L14125.2197,-4022.3L14125.4898,-4022.3331L14126.2207,-4022.44L14126.77,-4022.5864L14126.9699,-4022.6601L14127.1622,-4022.7161L14127.4506,-4022.8001L14128.3295,-4023.0412L14128.5202,-4023.0934L14128.569,-4023.1052"/>
<path content="AP030,1,28,1,0,15,1,8,JPN" xlink:title="AP030" d="M14116.5802,-4018.1934L14116.6794,-4018.8839L14117.1432,-4019.7514L14118.3975,-4020.8744L14119.5221,-4021.6908L14120.314,-4021.8948L14121.2402,-4022.2012L14122.5616,-4023.3238L14124.2798,-4023.9876L14127.3804,-4024.3332"/>
<path content="AP030,1,28,1,0,14,1,8,JPN" xlink:title="AP030" d="M14078.9001,-4019.1265L14078.8605,-4018.84L14078.7704,-4018.3865L14078.7201,-4018.1732"/>
<path content="AP030,1,28,1,0,15,1,8,JPN" xlink:title="AP030" d="M14068.4906,-4022.3202L14069.3649,-4019.9104L14071.1487,-4019.0617L14072.2595,-4019.4057L14073.4848,-4019.2379L14078.479,-4018.2224L14078.7201,-4018.1732"/>
<path content="AP030,1,28,1,0,14,1,8,JPN" xlink:title="AP030" d="M14130.3802,-4017.8131L14130.4504,-4017.8867L14130.5603,-4017.9531L14130.7922,-4018.045L14130.9296,-4018.1L14130.9692,-4018.1534L14131.0196,-4018.2266L14131.0394,-4018.3201L14131.0806,-4018.4399L14131.1096,-4018.5001L14131.2195,-4018.66L14131.2393,-4018.7134L14131.2195,-4018.7668L14131.1096,-4018.8198L14131.0394,-4018.9667L14130.9906,-4019.0399L14131.0196,-4019.1467L14130.9692,-4019.2734L14130.8594,-4019.4L14130.6305,-4019.7067L14130.5405,-4019.8868L14130.5206,-4019.9932L14130.7693,-4020.66L14130.8304,-4020.7664L14130.8304,-4020.8599L14130.7907,-4021.8132L14130.7404,-4021.92L14130.4001,-4022.2065L14130.1498,-4022.4068L14129.9896,-4022.4998L14129.9301,-4022.5334L14129.8599,-4022.5864"/>
<path content="AP030,1,28,1,0,15,1,8,JPN" xlink:title="AP030" d="M14113.9526,-4016.6515L14114.0366,-4016.7404L14114.5645,-4017.1486L14115.6937,-4017.4992L14116.5802,-4018.1934"/>
<path content="AP030,1,28,1,0,16,1,8,JPN" xlink:title="AP030" d="M14113.9526,-4016.6515L14114.1296,-4016.9868L14114.2395,-4017.1066L14114.36,-4017.2333L14114.6301,-4017.4L14114.9704,-4017.54L14116.5802,-4018.1934"/>
<path content="AP030,1,28,1,0,16,1,8,JPN" xlink:title="AP030" d="M14113.6505,-4016.3342L14113.7894,-4016.4066L14113.8992,-4016.5531L14113.9526,-4016.6515"/>
<path content="AP030,1,28,1,0,15,1,8,JPN" xlink:title="AP030" d="M14113.6505,-4016.3342L14113.9526,-4016.6515"/>
<path content="AP030,1,28,1,0,15,1,8,JPN" xlink:title="AP030" d="M14080.9296,-4019.22L14085.2798,-4018.491L14087.7258,-4019.2619L14088.3942,-4018.7508L14091.2872,-4017.9852L14093.6188,-4014.1277L14093.6996,-4013.9935"/>
<path content="AP030,1,28,1,0,14,1,8,JPN" xlink:title="AP030" d="M14078.7201,-4018.1732L14078.7704,-4017.8131L14078.8101,-4017.7067L14078.9001,-4017.4866L14079.1794,-4016.7465L14079.5593,-4015.9L14079.6097,-4015.7734L14079.4907,-4015.6868L14079.4647,-4015.6467L14079.3304,-4015.4331L14079.3106,-4015.1466L14079.3793,-4014.8602L14079.7195,-4014.3333L14079.9698,-4014.0469L14080.04,-4013.8466L14079.9896,-4013.6333"/>
<path content="AP030,1,28,1,0,14,1,8,JPN" xlink:title="AP030" d="M14093.6996,-4013.9935L14093.8293,-4014.0133L14094.9493,-4013.7402L14095.5597,-4013.5933L14095.7382,-4013.5551"/>
<path content="AP030,1,28,1,0,16,1,8,JPN" xlink:title="AP030" d="M14094.31,-4013.5799L14094.4504,-4013.5601L14094.7906,-4013.5399L14095.2393,-4013.4533L14095.4697,-4013.4533L14095.7382,-4013.5551"/>
<path content="AP030,1,28,1,0,16,1,8,JPN" xlink:title="AP030" d="M14095.7382,-4013.5551L14095.99,-4013.6501L14096.3104,-4013.7402L14096.6293,-4013.7402L14097.0398,-4013.7066L14097.4304,-4013.5265L14097.6089,-4013.4037"/>
<path content="AP030,1,28,1,0,16,1,4,JPN" xlink:title="AP030" d="M14093.0603,-4013.3598L14093.5593,-4013.5265L14093.8293,-4013.5601L14094.31,-4013.5799"/>
<path content="AP030,1,28,1,0,14,1,8,JPN" xlink:title="AP030" d="M14095.7382,-4013.5551L14096.0602,-4013.4869L14096.7697,-4013.3598L14097.0291,-4013.3598L14097.2397,-4013.3598L14097.4304,-4013.3801L14097.6089,-4013.4037"/>
<path content="AP030,1,28,1,0,16,1,8,JPN" xlink:title="AP030" d="M14092.9001,-4013.3045L14092.9703,-4013.3266L14093.0603,-4013.3598"/>
<path content="AP030,1,28,1,0,14,1,8,JPN" xlink:title="AP030" d="M14092.9001,-4013.3045L14092.9001,-4013.3469L14093.1503,-4013.7199L14093.3807,-4013.8668L14093.6996,-4013.9935"/>
<path content="AP030,1,28,1,0,14,1,8,JPN" xlink:title="AP030" d="M14079.4006,-4013.2332L14079.5807,-4013.3999L14079.7195,-4013.5399L14079.7699,-4013.5933L14079.9896,-4013.6333"/>
<path content="AP030,1,28,1,0,16,1,8,JPN" xlink:title="AP030" d="M14080.0201,-4018.28L14079.9301,-4017.8867L14079.9698,-4017.2531L14079.9896,-4016.8934L14080.1804,-4016.6199L14080.4504,-4016.3334L14080.4901,-4016.2468L14080.5405,-4016.1201L14080.6107,-4015.9733L14080.6107,-4015.76L14080.5603,-4015.2534L14080.8105,-4014.9132L14080.9296,-4014.7133L14081.0593,-4014.1731L14081.1493,-4013.9732L14081.2057,-4013.9042L14081.3797,-4013.6868L14081.6498,-4013.3999L14081.7612,-4013.2271"/>
<path content="AP030,1,28,1,0,14,1,8,JPN" xlink:title="AP030" d="M14079.9896,-4013.6333L14080.2902,-4013.6131L14080.5801,-4013.6868L14080.8807,-4013.8466L14081.1295,-4013.6868L14081.2897,-4013.5265L14081.3293,-4013.4132L14081.3599,-4013.3266L14081.4301,-4013.2534L14081.6299,-4013.2198L14081.7612,-4013.2271"/>
<path content="AP030,1,28,1,0,16,1,8,JPN" xlink:title="AP030" d="M14092.6254,-4013.2179L14092.9001,-4013.3045"/>
<path content="AP030,1,28,1,0,14,1,8,JPN" xlink:title="AP030" d="M14092.2165,-4013.1466L14092.2897,-4013.2534L14092.45,-4013.3068L14092.5797,-4013.2732L14092.6254,-4013.2179"/>
<path content="AP030,1,28,1,0,16,1,8,JPN" xlink:title="AP030" d="M14092.2165,-4013.1466L14092.3996,-4013.1466L14092.6254,-4013.2179"/>
<path content="AP030,1,28,1,0,14,1,8,JPN" xlink:title="AP030" d="M14092.6254,-4013.2179L14092.7002,-4013.1268L14092.7902,-4013.0733L14092.8604,-4013.0932L14092.9001,-4013.1466L14092.9001,-4013.3045"/>
<path content="AP030,1,28,1,0,15,1,8,JPN" xlink:title="AP030" d="M14062.5,-4018.1623L14063.0325,-4017.6888L14063.3316,-4017.1158L14063.3316,-4016.4467L14063.2706,-4015.5869L14063.2706,-4014.9181L14063.4506,-4014.5359L14063.7482,-4014.3452L14063.9877,-4014.2017L14064.1663,-4013.7718L14064.2853,-4013.3896L14064.7034,-4013.1035L14065.361,-4013.0081L14066.2567,-4013.1519L14068.1091,-4013.8214L14069.0048,-4014.0129L14075.0977,-4014.0636L14075.9933,-4014.3028L14076.77,-4014.1598L14077.7863,-4013.826L14078.6819,-4013.4918L14079.4006,-4013.2332"/>
<path content="AP030,1,28,1,0,14,1,8,JPN" xlink:title="AP030" d="M14081.7612,-4013.2271L14081.8802,-4013.2332L14081.9901,-4013.2332L14082.1503,-4013.1268L14082.2205,-4012.9269L14082.2876,-4012.7396"/>
<path content="AP030,1,28,1,0,16,1,8,JPN" xlink:title="AP030" d="M14081.7612,-4013.2271L14081.8604,-4013.0733L14082.0801,-4012.7998L14082.1503,-4012.7869L14082.2876,-4012.7396"/>
<path content="AP030,1,28,1,0,16,1,8,JPN" xlink:title="AP030" d="M14091.1575,-4012.6167L14091.2033,-4012.7644L14091.2201,-4012.8201L14091.3803,-4013.0199L14091.6794,-4013.1268L14091.9907,-4013.1466L14092.0578,-4013.1466L14092.2165,-4013.1466"/>
<path content="AP030,1,28,1,0,14,1,8,JPN" xlink:title="AP030" d="M14091.1575,-4012.6167L14091.5802,-4012.5668L14091.7694,-4012.6202L14091.9907,-4012.7998L14092.0807,-4012.9467L14092.2165,-4013.1466"/>
<path content="AP030,1,28,1,0,16,1,8,JPN" xlink:title="AP030" d="M14082.2876,-4012.7396L14082.547,-4012.6514L14082.5806,-4012.64L14083.3801,-4012.6598L14083.8104,-4012.6598L14084.0607,-4012.5866L14084.2194,-4012.5L14084.4894,-4012.2467L14084.549,-4012.1864"/>
<path content="AP030,1,28,1,0,14,1,8,JPN" xlink:title="AP030" d="M14082.2876,-4012.7396L14082.3593,-4012.5866L14082.4493,-4012.5L14082.5607,-4012.4802L14082.692,-4012.4802L14082.7896,-4012.4802L14083.0795,-4012.4802L14083.2397,-4012.4065L14083.3298,-4012.3867L14083.4305,-4012.4268L14083.5602,-4012.4802L14083.8593,-4012.4802L14083.9493,-4012.4599L14084.0805,-4012.3867L14084.3994,-4012.1933L14084.4894,-4012.1735L14084.549,-4012.1864"/>
<path content="AP030,1,28,1,0,15,1,8,JPN" xlink:title="AP030" d="M14109.6893,-4012.0869L14109.9396,-4012.1983L14110.7315,-4012.7087L14111.525,-4013.4232L14112.5824,-4015.2092L14113.6505,-4016.3342"/>
<path content="AP030,1,28,1,0,16,1,8,JPN" xlink:title="AP030" d="M14109.6893,-4012.0869L14109.8297,-4012.1933L14109.9899,-4012.3734L14110.2203,-4012.6801L14110.6293,-4013.2534L14110.6995,-4013.3469L14110.8597,-4013.4335L14111.6806,-4014.0133L14111.7706,-4014.0999L14111.8301,-4014.2265L14111.8607,-4014.4066L14112.0407,-4015.1066L14112.1094,-4015.2733L14112.1994,-4015.4331L14112.3306,-4015.5933L14112.5793,-4015.8134L14112.8601,-4015.9199L14113.3804,-4016.1934L14113.6505,-4016.3342"/>
<path content="AP030,1,28,1,0,16,1,8,JPN" xlink:title="AP030" d="M14090.5273,-4012.0415L14090.5807,-4012.0468L14090.8798,-4012.2066L14091.1102,-4012.4599L14091.1575,-4012.6167"/>
<path content="AP030,1,28,1,0,14,1,8,JPN" xlink:title="AP030" d="M14090.5273,-4012.0415L14090.6097,-4012.1735L14090.9897,-4012.5668L14091.1301,-4012.6202L14091.1575,-4012.6167"/>
<path content="AP030,1,28,1,0,16,1,8,JPN" xlink:title="AP030" d="M14109.404,-4011.9598L14109.61,-4012.0266L14109.6893,-4012.0869"/>
<path content="AP030,1,28,1,0,15,1,8,JPN" xlink:title="AP030" d="M14109.404,-4011.9598L14109.6893,-4012.0869"/>
<path content="AP030,1,28,1,0,15,1,8,JPN" xlink:title="AP030" d="M14108.2214,-4011.4326L14109.404,-4011.9598"/>
<path content="AP030,1,28,1,0,16,1,8,JPN" xlink:title="AP030" d="M14088.385,-4011.3914L14088.5406,-4011.4132L14088.6169,-4011.4338L14088.7405,-4011.4666L14089.0198,-4011.5601L14089.18,-4011.6531L14089.3997,-4011.7199L14089.7202,-4011.8465L14089.8804,-4011.94L14090.2405,-4012.0132L14090.3152,-4012.0209L14090.5273,-4012.0415"/>
<path content="AP030,1,28,1,0,14,1,8,JPN" xlink:title="AP030" d="M14084.549,-4012.1864L14084.5795,-4012.1933L14084.8602,-4012.2601L14085.08,-4012.3001L14085.2905,-4012.2467L14085.4706,-4012.0998L14085.5606,-4012.0667L14085.6293,-4012.0667L14086.2,-4012.1735L14086.38,-4012.1532L14086.5204,-4012.0998L14086.5601,-4012.0468L14086.5784,-4011.9328L14086.6104,-4011.8465L14086.7004,-4011.7401L14086.9003,-4011.6333L14087.0804,-4011.5932L14087.3306,-4011.6135L14087.6099,-4011.6531L14087.7899,-4011.6333L14087.9898,-4011.5932L14088.1302,-4011.5398L14088.2706,-4011.4868L14088.3301,-4011.4132L14088.385,-4011.3914"/>
<path content="AP030,1,28,1,0,16,1,8,JPN" xlink:title="AP030" d="M14084.549,-4012.1864L14084.6771,-4012.0571L14084.7198,-4012.0132L14084.8801,-4011.9534L14085.08,-4011.9534L14085.3607,-4011.8668L14085.6995,-4011.7065L14085.9497,-4011.5932L14086.6501,-4011.3998L14087.1994,-4011.3266L14087.9303,-4011.3266L14088.385,-4011.3914"/>
<path content="AP030,1,28,1,0,14,1,8,JPN" xlink:title="AP030" d="M14088.385,-4011.3914L14088.6505,-4011.2865L14088.7405,-4011.2865L14088.8306,-4011.2865L14089.0793,-4011.3998L14089.5401,-4011.5601L14089.65,-4011.5601L14089.7461,-4011.5379L14089.8804,-4011.5067L14090.2695,-4011.7401L14090.4495,-4011.9202L14090.5273,-4012.0415"/>
<path content="AP030,1,28,1,0,15,1,8,JPN" xlink:title="AP030" d="M14107.4921,-4011.2263L14108.2214,-4011.4326"/>
<path content="AP030,1,28,1,0,16,1,8,JPN" xlink:title="AP030" d="M14107.4921,-4011.2263L14108.02,-4011.5932L14108.2397,-4011.7199L14108.6807,-4011.8134L14109.2194,-4011.8999L14109.404,-4011.9598"/>
<path content="AP030,1,28,1,0,14,1,8,JPN" xlink:title="AP030" d="M14105.217,-4010.8227L14105.2399,-4010.8601L14105.3101,-4011.0401L14105.4306,-4011.38L14105.4306,-4011.4868L14105.4306,-4011.5269L14105.3604,-4011.7931L14105.3299,-4011.9732L14105.2704,-4012.0468L14104.7195,-4012.3531L14104.0405,-4012.6934L14103.83,-4012.7998L14103.6499,-4012.9868L14103.5202,-4013.0733L14103.36,-4013.0733L14103.2394,-4013.0932L14103.1296,-4013.1065L14102.8595,-4013.3801L14102.7893,-4013.4335L14102.6505,-4013.4666L14102.4002,-4013.4869L14102.3102,-4013.5265L14102.0599,-4013.7199L14101.9699,-4013.7733L14101.86,-4013.8134L14101.6098,-4013.8134L14101.1505,-4013.8668L14101.0193,-4013.8668L14100.0595,-4013.76L14099.8993,-4013.7066L14099.6796,-4013.6333L14099.6094,-4013.5799L14099.3607,-4013.5399L14098.9502,-4013.5933L14098.7701,-4013.5933L14098.5397,-4013.5601L14098.2697,-4013.4869L14097.8302,-4013.4335L14097.6089,-4013.4037"/>
<path content="AP030,1,28,1,0,16,1,8,JPN" xlink:title="AP030" d="M14097.6089,-4013.4037L14097.7203,-4013.3266L14097.9507,-4013.2332L14098.2193,-4013.2866L14098.3994,-4013.3469L14098.8098,-4013.3999L14099.1501,-4013.3999L14099.6796,-4013.2534L14099.9298,-4013.0199L14100.3799,-4012.5668L14100.6302,-4012.3531L14101.1093,-4012.0266L14101.5198,-4011.8465L14101.86,-4011.7199L14102.1103,-4011.6867L14102.3102,-4011.6531L14102.4902,-4011.6333L14102.9694,-4011.5932L14103.1494,-4011.5601L14103.3096,-4011.4666L14103.4698,-4011.3602L14103.7704,-4011.1801L14103.9703,-4011.0535L14104.1504,-4011.0001L14104.5807,-4010.9268L14104.7699,-4010.8932L14105.217,-4010.8227"/>
<path content="AP030,1,28,1,0,15,1,8,JPN" xlink:title="AP030" d="M14105.7007,-4010.6934L14106.2378,-4010.8711L14107.4921,-4011.2263"/>
<path content="AP030,1,28,1,0,16,1,8,JPN" xlink:title="AP030" d="M14105.217,-4010.8227L14105.3604,-4010.8002L14105.5405,-4010.7666L14105.7007,-4010.6934"/>
<path content="AP030,1,28,1,0,16,1,8,JPN" xlink:title="AP030" d="M14105.9494,-4010.4267L14106.3095,-4010.6068L14106.8298,-4010.82L14107.4921,-4011.2263"/>
<path content="AP030,1,28,1,0,16,1,8,JPN" xlink:title="AP030" d="M14105.7007,-4010.6934L14105.8304,-4010.5865L14105.9006,-4010.4801L14105.9494,-4010.4267"/>
<path content="AP030,1,28,1,0,14,1,8,JPN" xlink:title="AP030" d="M14130.3802,-4017.8131L14130.3604,-4017.6865L14130.3802,-4017.54L14130.4306,-4017.2531L14130.5405,-4016.8598L14130.6305,-4016.5134L14130.7007,-4016.4268L14130.7907,-4016.32L14130.8594,-4016.2266L14130.8105,-4015.9733L14130.7693,-4015.72L14130.7907,-4015.4533L14130.7907,-4015.2L14130.8105,-4014.9467L14130.7205,-4014.8201L14130.6305,-4014.6935L14130.4703,-4014.5668L14130.22,-4014.5134L14130.0598,-4014.46L14129.7699,-4014.3867L14129.5197,-4014.2467L14129.3594,-4014.1533L14129.1794,-4014.0469L14129.0207,-4013.94L14128.7903,-4013.8668L14128.5202,-4013.7402L14128.273,-4013.6391L14128.0807,-4013.5601L14127.9495,-4013.4533L14127.8793,-4013.4132L14127.6794,-4013.3266L14127.4002,-4013.3266L14127.3605,-4013.3266L14127.0401,-4013.2534L14126.9699,-4013.2198L14126.8372,-4013.0817L14126.8097,-4013.0531L14126.5198,-4012.7869L14126.3794,-4012.6202L14126.2695,-4012.5L14126.1505,-4012.2601L14126.0803,-4012.0468L14126.0605,-4011.8465L14126.1093,-4011.6531L14126.1505,-4011.5932L14126.2695,-4011.4132L14126.4297,-4011.2L14126.4694,-4011.0733L14126.4297,-4010.9669L14126.329,-4010.907L14126.1795,-4010.82L14126.1093,-4010.7468L14126.1505,-4010.4599L14126.1795,-4010.2268L14126.0803,-4010.1002L14125.6805,-4009.7069L14125.4501,-4009.4532L14125.3098,-4009.2335L14125.1801,-4009.1267L14124.9496,-4009.0401L14124.3805,-4008.8932L14124.1104,-4008.82L14123.6099,-4008.68L14123.4695,-4008.5869L14123.3795,-4008.4999L14123.3597,-4008.3733L14123.3994,-4008.1734L14123.4268,-4008.1455L14123.4894,-4008.0799L14123.5596,-4007.9735L14123.5794,-4007.8999L14123.5577,-4007.8125"/>
<path content="AP030,1,28,1,0,15,1,8,JPN" xlink:title="AP030" d="M14108.2214,-4011.4326L14109.4345,-4009.4543L14111.0001,-4008.6258L14112.3718,-4009.0382L14113.5468,-4008.8112L14113.7899,-4007.8125"/>
<path content="AP030,1,28,1,0,15,1,8,JPN" xlink:title="AP030" d="M14130.3802,-4017.8131L14130.6702,-4017.7292L14130.7831,-4017.6479L14131.1905,-4017.3538L14132.3364,-4016.8114L14132.8125,-4016.5753"/>
<path content="AP030,1,28,1,0,16,1,8,JPN" xlink:title="AP030" d="M14103.3965,-4007.8125L14103.3997,-4007.8133L14103.8605,-4007.8667L14104.3793,-4008.0799L14104.8294,-4008.4068L14105.13,-4008.7334L14105.2399,-4008.9668L14105.3604,-4009.2869L14105.5405,-4009.8866L14105.7693,-4010.2798L14105.9494,-4010.4267"/>
<path content="AP030,1,28,1,0,14,1,8,JPN" xlink:title="AP030" d="M14102.2571,-4007.8125L14102.3804,-4008.0132L14102.4506,-4008.0666L14102.5406,-4008.1001L14102.7893,-4008.1333L14103.038,-4008.2008L14103.1097,-4008.2802L14103.1998,-4008.3199L14103.2898,-4008.3199L14103.6499,-4008.3L14103.7399,-4008.3L14103.8803,-4008.3332L14104.2404,-4008.6067L14104.4907,-4008.9466L14104.6494,-4009.1667L14104.7394,-4009.4002L14104.7699,-4009.4666L14104.8096,-4009.5932L14104.8294,-4010.0468L14104.8996,-4010.3001L14104.95,-4010.3886L14104.9896,-4010.4599L14105.217,-4010.8227"/>
<path content="AP030,1,28,1,0,14,1,8,JPN" xlink:title="AP030" d="M14079.4006,-4013.2332L14079.2694,-4013.0199L14079.2007,-4012.8399L14079.0207,-4012.5534L14078.7201,-4012.2467L14078.54,-4012.08L14078.4897,-4011.94L14078.3798,-4011.7733L14078.2196,-4011.6333L14078.1296,-4011.4334L14078.1097,-4011.0931L14078.2394,-4010.68L14078.3997,-4010.4069L14078.6102,-4010.2066L14078.7003,-4010.0132L14078.7201,-4009.9731L14078.7201,-4009.9533L14079.0405,-4009.7599L14079.0604,-4009.2869L14079.0405,-4008.86L14079.1107,-4008.5667L14079.0802,-4008.3332L14079.2206,-4007.8667L14079.2653,-4007.8125"/>
<path content="AP030,1,28,1,1,16,1,8,JPN" xlink:title="AP030" d="M14071.5607,-4037.0201L14070.3165,-4037.0963L14069.2263,-4035.7569L14066.1115,-4034.4175L14065.0524,-4034.2307L14062.5,-4033.962"/>
<path content="AP030,1,28,1,1,16,1,8,JPN" xlink:title="AP030" d="M14127.8232,-4068.9886L14128.908,-4068.4123L14129.6538,-4068.1411L14130.2979,-4067.5987L14131.0103,-4066.9743L14132.2302,-4066.2088L14132.8125,-4065.9176"/>
<path content="AP030,1,28,1,0,16,1,8,JPN" xlink:title="AP030" d="M14069.5801,-4039.3467L14069.7403,-4039.2334L14069.9707,-4038.9999L14070.3293,-4038.6398L14070.7199,-4038.3865L14070.8801,-4038.2465L14070.99,-4037.9532L14071.1807,-4037.7068L14071.3593,-4037.4134L14071.5607,-4037.0201"/>
</g>
</svg>
