<?xml version="1.0" encoding="UTF-8"?>
<svg  xmlns="http://www.w3.org/2000/svg" xmlns:xlink="http://www.w3.org/1999/xlink" xmlns:go="http://purl.org/svgmap/profile" property="f_code,acc,exs,rst,med,rtt,RSU,loc,soc" viewBox="14484.375 -4359.375 140.625 140.625" go:dataArea="14484.375 -4359.375 140.625 140.625" >
<metadata>
 <rdf:RDF xmlns:rdf="http://www.w3.org/1999/02/22-rdf-syntax-ns#" xmlns:crs="http://opengis.org/xmldtds/transformations.dtd" xmlns:svg="http://www.w3.org/svg" >
  <rdf:Description>
   <crs:CoordinateReferenceSystem rdf:resource="http://purl.org/crs/84" svg:transform="matrix(100.0,0.0,0.0,-100.0,0.0,0.0)" />
  </rdf:Description>
 </rdf:RDF>
</metadata>
<globalCoordinateSystem srsName="http://purl.org/crs/84" transform="matrix(100.0,0.0,0.0,-100.0,0.0,0.0)" />
<defs>
 <g id="p0" >
  <circle cx="0.0" cy="0.0" r="3" stroke="green" stroke-width="2.0" vector-effect="non-scaling-stroke" />
 </g>
</defs>
<g fill="none" fill-rule="evenodd" stroke="#00ff00" stroke-width="2" opacity="0.5" vector-effect="non-scaling-stroke" stroke-linejoin="bevel" >
<path content="AP030,1,28,1,0,14,1,8,JPN" xlink:title="AP030" d="M14505.13,-4359.2865L14505.2185,-4359.375"/>
<path content="AP030,1,28,1,0,15,1,8,JPN" xlink:title="AP030" d="M14505.0309,-4359.375L14505.13,-4359.2865"/>
<path content="AP030,1,28,1,0,15,1,8,JPN" xlink:title="AP030" d="M14486.1191,-4358.3961L14487.785,-4359.375"/>
<path content="AP030,1,28,1,0,15,1,8,JPN" xlink:title="AP030" d="M14487.381,-4357.2208L14490.6907,-4359.375"/>
<path content="AP030,1,28,1,0,15,1,8,JPN" xlink:title="AP030" d="M14486.1191,-4358.3961L14487.381,-4357.2208"/>
<path content="AP030,1,28,1,0,15,1,8,JPN" xlink:title="AP030" d="M14495.8496,-4356.9351L14496.2494,-4357.7232L14497.9416,-4358.72L14498.1075,-4359.375"/>
<path content="AP030,1,28,1,0,15,1,8,JPN" xlink:title="AP030" d="M14491.574,-4359.375L14494.0033,-4357.1255L14495.8496,-4356.9351"/>
<path content="AP030,1,28,1,0,14,1,8,JPN" xlink:title="AP030" d="M14500.5402,-4356.1733L14501.2695,-4356.8001L14501.3306,-4356.9134L14501.4496,-4357.18L14501.4893,-4357.3265L14501.5594,-4357.4135L14501.7197,-4357.56L14502.6093,-4358.2268L14502.7893,-4358.3332L14503.1799,-4358.4599L14503.5797,-4358.5133L14503.83,-4358.5865L14503.9001,-4358.6399L14503.9505,-4358.68L14504.4006,-4358.9867L14504.7897,-4359.1465L14505.13,-4359.2865"/>
<path content="AP030,1,28,1,0,14,1,8,JPN" xlink:title="AP030" d="M14520.2141,-4359.375L14520.3598,-4359.2731L14520.7199,-4359.0401L14521.0205,-4358.7666L14521.1105,-4358.5865L14521.1304,-4358.4801L14521.08,-4358.1734L14521.1304,-4357.9735L14521.2906,-4357.7934L14521.5195,-4357.56L14521.6293,-4357.3997L14521.6507,-4357.2533L14521.7896,-4356.9466L14521.8994,-4356.5533L14521.9498,-4356.3332L14521.9696,-4356.1932L14521.9696,-4356.1199"/>
<path content="AP030,1,28,1,0,15,1,8,JPN" xlink:title="AP030" d="M14495.8496,-4356.9351L14496.2982,-4356.7085L14496.7697,-4355.9322L14496.5607,-4355.3905"/>
<path content="AP030,1,28,1,0,15,1,8,JPN" xlink:title="AP030" d="M14497.374,-4354.4167L14499.2386,-4356.395L14500.5402,-4356.1733"/>
<path content="AP030,1,28,1,0,15,1,8,JPN" xlink:title="AP030" d="M14496.5607,-4355.3905L14497.374,-4354.4167"/>
<path content="AP030,1,28,1,0,15,1,8,JPN" xlink:title="AP030" d="M14484.375,-4359.1047L14485.6369,-4358.8467L14486.1191,-4358.3961"/>
<path content="AP030,1,28,1,0,14,1,8,JPN" xlink:title="AP030" d="M14498.3597,-4354.1931L14499.2905,-4354.9667L14499.6094,-4355.2868L14499.6796,-4355.3799L14500.0198,-4355.6534L14500.4501,-4356.0799L14500.5402,-4356.1733"/>
<path content="AP030,1,28,1,0,14,1,8,JPN" xlink:title="AP030" d="M14497.8607,-4353.8334L14498.3597,-4354.1931"/>
<path content="AP030,1,28,1,0,15,1,8,JPN" xlink:title="AP030" d="M14497.374,-4354.4167L14497.8607,-4353.8334"/>
<path content="AP030,1,28,1,0,15,1,8,JPN" xlink:title="AP030" d="M14495.9503,-4353.5934L14497.374,-4354.4167"/>
<path content="AP030,1,28,1,0,14,1,8,JPN" xlink:title="AP030" d="M14495.8298,-4353.54L14495.9503,-4353.5934"/>
<path content="AP030,1,28,1,0,14,1,8,JPN" xlink:title="AP030" d="M14495.5597,-4353.4332L14495.8298,-4353.54"/>
<path content="AP030,1,28,1,0,15,1,8,JPN" xlink:title="AP030" d="M14496.5607,-4355.3905L14495.5597,-4353.4332"/>
<path content="AP030,1,28,1,0,14,1,8,JPN" xlink:title="AP030" d="M14495.9503,-4353.5934L14496.5195,-4353.4664L14496.8307,-4353.4332L14497.29,-4353.4332L14497.4701,-4353.5599L14497.8607,-4353.8334"/>
<path content="AP030,1,28,1,0,15,1,8,JPN" xlink:title="AP030" d="M14495.2896,-4353.3066L14495.8298,-4353.54"/>
<path content="AP030,1,28,1,0,14,1,8,JPN" xlink:title="AP030" d="M14495.2896,-4353.3066L14495.4697,-4353.4L14495.5597,-4353.4332"/>
<path content="AP030,1,28,1,0,15,1,8,JPN" xlink:title="AP030" d="M14487.381,-4357.2208L14491.6061,-4353.2818L14491.9922,-4353.8597L14493.0862,-4354.6242L14494.4153,-4355.4226L14496.5607,-4355.3905"/>
<path content="AP030,1,28,1,0,14,1,8,JPN" xlink:title="AP030" d="M14495.2896,-4353.3066L14494.7006,-4353.0197L14494.5206,-4352.9465L14494.6106,-4352.7332"/>
<path content="AP030,1,28,1,0,15,1,8,JPN" xlink:title="AP030" d="M14515.4465,-4352.0561L14516.7542,-4352.7714L14519.9768,-4354.8908L14521.9696,-4356.1199"/>
<path content="AP030,1,28,1,0,15,1,8,JPN" xlink:title="AP030" d="M14506.0036,-4359.375L14509.6069,-4356.0276L14510.5209,-4355.8258L14515.4465,-4352.0561"/>
<path content="AP030,1,28,1,0,15,1,8,JPN" xlink:title="AP030" d="M14484.375,-4350.1818L14486.2976,-4350.6592L14486.9568,-4351.0944L14491.6534,-4350.9689L14494.6106,-4352.7332"/>
<path content="AP030,1,28,1,0,15,1,8,JPN" xlink:title="AP030" d="M14484.375,-4355.2654L14487.381,-4357.2208"/>
<path content="AP030,1,28,1,0,15,1,8,JPN" xlink:title="AP030" d="M14498.3597,-4354.1931L14500.3677,-4353.3382L14500.6134,-4352.9667L14500.6744,-4352.6882L14501.2894,-4352.2701L14502.6413,-4351.7586L14503.5019,-4351.4332L14503.8712,-4350.3651L14504.4846,-4348.9719L14505.0385,-4348.5073L14505.5298,-4348.0892"/>
<path content="AP030,1,28,1,0,15,1,8,JPN" xlink:title="AP030" d="M14505.7144,-4347.7638L14506.8039,-4348.0221L14507.5012,-4348.9258L14510.6308,-4349.7425L14512.3138,-4350.6107L14512.5305,-4351.236L14514.5844,-4351.5839L14515.4465,-4352.0561"/>
<path content="AP030,1,28,1,0,15,1,8,JPN" xlink:title="AP030" d="M14505.5298,-4348.0892L14505.7144,-4347.7638"/>
<path content="AP030,1,28,1,0,14,1,8,JPN" xlink:title="AP030" d="M14493.8599,-4345.7066L14493.9697,-4345.7401L14493.9896,-4345.8332L14494.22,-4346.3531L14494.6106,-4347.5601L14494.9005,-4348.4264L14494.9905,-4348.7133L14495.0806,-4348.9666L14495.2194,-4349.4331L14495.1492,-4350.2266L14494.9295,-4351.6666L14494.9005,-4351.8867L14494.8593,-4352.1534L14494.8105,-4352.2598L14494.7403,-4352.4998L14494.6106,-4352.7332"/>
<path content="AP030,1,28,1,0,15,1,8,JPN" xlink:title="AP030" d="M14496.4844,-4343.6146L14500.0595,-4345.9805L14500.8881,-4346.2471L14502.2324,-4347.2973L14503.7537,-4347.4972L14505.5298,-4348.0892"/>
<path content="AP030,1,28,1,0,15,1,8,JPN" xlink:title="AP030" d="M14493.8599,-4345.7066L14496.4844,-4343.6146"/>
<path content="AP030,1,28,1,0,15,1,8,JPN" xlink:title="AP030" d="M14484.375,-4347.4598L14489.83,-4343.0733"/>
<path content="AP030,1,28,1,0,14,1,8,JPN" xlink:title="AP030" d="M14489.83,-4343.0733L14489.8605,-4343.0733L14490.8295,-4343.7065L14491.4001,-4344.08L14491.6504,-4344.26L14492.3798,-4344.7468L14493.0603,-4345.2202L14493.8599,-4345.7066"/>
<path content="AP030,1,28,1,0,15,1,8,JPN" xlink:title="AP030" d="M14515.4465,-4352.0561L14516.3116,-4351.3943L14516.8091,-4350.1942L14516.8457,-4347.364L14516.7816,-4346.4378L14517.1661,-4346.1281L14518.132,-4345.8397L14517.9031,-4345.0459L14517.9642,-4344.2413L14517.8848,-4343.1046L14518.3624,-4342.4538L14518.428,-4340.8894"/>
<path content="AP030,1,28,1,0,15,1,8,JPN" xlink:title="AP030" d="M14505.7144,-4347.7638L14506.0211,-4347.253L14506.4514,-4346.7422L14506.4514,-4346.2315L14506.7581,-4345.6741L14508.1726,-4344.9303L14508.9706,-4343.7691L14509.5856,-4342.701L14510.4462,-4342.1432L14510.8139,-4342.004L14511.2442,-4341.0751L14511.7203,-4339.3066"/>
<path content="AP030,1,28,1,0,15,1,8,JPN" xlink:title="AP030" d="M14512.5397,-4339.3066L14516.6306,-4340.8707L14518.428,-4340.8894"/>
<path content="AP030,1,28,1,0,14,1,8,JPN" xlink:title="AP030" d="M14511.7203,-4339.3066L14512.2192,-4339.4531L14512.3795,-4339.5065L14512.3993,-4339.5065L14512.4496,-4339.4333L14512.5397,-4339.3066"/>
<path content="AP030,1,28,1,0,14,1,8,JPN" xlink:title="AP030" d="M14521.9696,-4356.1199L14522.0398,-4355.7934L14522.1497,-4355.5935L14522.29,-4355.4134L14522.5601,-4355.1468L14523.0606,-4354.4266L14523.0804,-4354.3732L14523.4497,-4353.8334L14523.6496,-4353.3264L14523.7701,-4352.9999L14523.7701,-4352.9133L14523.7396,-4352.6398L14523.79,-4352.4265L14523.88,-4352.2598L14524.0601,-4352.1534L14524.2706,-4352.0267L14524.3301,-4351.9199L14524.4293,-4351.3065L14524.4507,-4350.9132L14524.4293,-4350.6599L14524.4904,-4350.5333L14524.5605,-4350.3864L14524.6796,-4350.1934L14524.7406,-4350.0465L14524.7696,-4349.8867L14524.8306,-4349.58L14524.8596,-4348.9468L14524.8795,-4348.6935L14524.9298,-4348.4798L14524.9695,-4348.4264L14525.0595,-4348.3532L14525.2197,-4348.1934L14525.2701,-4348.0801L14525.3098,-4348.0133L14525.6104,-4347.2733L14525.6805,-4347.0001L14525.7706,-4346.6202L14525.8804,-4346.3734L14525.9003,-4346.0133L14526.0803,-4345.3266L14526.1093,-4344.9665L14526.1795,-4344.5534L14526.2405,-4344.1734L14526.2207,-4343.7401L14526.2894,-4343.56L14526.5198,-4342.9867L14526.6098,-4342.7868L14526.86,-4342.0467L14527.1103,-4341.4867L14527.5604,-4340.6399L14528.0197,-4339.6866L14528.2394,-4339.4001L14528.6102,-4338.9668L14528.7003,-4338.8199L14528.83,-4338.66L14528.8803,-4338.5666L14528.8605,-4338.4998L14528.83,-4338.4068"/>
<path content="AP030,1,28,1,0,15,1,8,JPN" xlink:title="AP030" d="M14518.428,-4340.8894L14521.8536,-4341.0164L14524.9329,-4339.5092L14526.6113,-4338.6864L14528.83,-4338.4068"/>
<path content="AP030,1,28,1,0,14,1,8,JPN" xlink:title="AP030" d="M14508.1299,-4338.0264L14508.6502,-4338.2465L14509.3994,-4338.5132L14509.7397,-4338.62L14510.4904,-4338.8L14510.8093,-4338.9267L14511.1801,-4339.0202L14511.3998,-4339.1998L14511.47,-4339.2334L14511.7203,-4339.3066"/>
<path content="AP030,1,28,1,0,14,1,8,JPN" xlink:title="AP030" d="M14508.0795,-4338.0135L14508.1299,-4338.0264"/>
<path content="AP030,1,28,1,0,15,1,8,JPN" xlink:title="AP030" d="M14496.4844,-4343.6146L14496.4981,-4342.9386L14500.9598,-4342.065L14504.8019,-4341.507L14505.751,-4340.9668L14506.7337,-4340.0875L14508.0795,-4338.0135"/>
<path content="AP030,1,28,1,0,14,1,8,JPN" xlink:title="AP030" d="M14528.6499,-4337.92L14528.7201,-4338.0798L14528.83,-4338.4068"/>
<path content="AP030,1,28,1,0,14,1,8,JPN" xlink:title="AP030" d="M14485.7697,-4337.7201L14485.9497,-4337.8334L14486.5799,-4338.2801L14486.6302,-4338.3331L14486.6501,-4338.3533L14486.7203,-4338.4068L14486.7401,-4338.4602L14486.7401,-4338.62L14486.7401,-4339.0732L14486.7706,-4340.0131L14486.7706,-4341.0534L14486.7905,-4341.0934L14486.8103,-4341.1064L14488.3102,-4342.1001L14488.8306,-4342.4267L14489.83,-4343.0733"/>
<path content="AP030,1,28,1,0,14,1,8,JPN" xlink:title="AP030" d="M14484.375,-4338.004L14484.7702,-4337.8334L14484.8602,-4337.8132L14485.2203,-4337.7602L14485.7697,-4337.7201"/>
<path content="AP030,1,28,1,0,14,1,8,JPN" xlink:title="AP030" d="M14498.5397,-4336.6066L14498.7198,-4336.66L14498.8297,-4336.6932L14498.8998,-4336.6932L14499.0204,-4336.7134L14499.2706,-4336.7466L14499.4293,-4336.7664L14499.5804,-4336.7867L14499.6796,-4336.8L14500.6104,-4336.9267L14501.5396,-4337.0533L14501.9302,-4337.0731L14502.1103,-4337.0533L14502.24,-4337.0399L14502.3804,-4336.9667L14502.4704,-4336.9267L14502.6093,-4336.9133L14503.0807,-4336.9667L14503.1296,-4336.9667L14503.7903,-4337.0399L14504.1504,-4337.0731L14505.3101,-4337.22L14505.6793,-4337.2532L14505.8105,-4337.2868L14506.2698,-4337.4332L14506.5201,-4337.5065L14506.6498,-4337.5267L14508.0795,-4338.0135"/>
<path content="AP030,1,28,1,0,15,1,8,JPN" xlink:title="AP030" d="M14489.83,-4343.0733L14492.5262,-4340.6269L14494.3893,-4339.0007L14496.3943,-4337.7914L14497.5906,-4337.4966L14498.5397,-4336.6066"/>
<path content="AP030,1,28,1,0,14,1,8,JPN" xlink:title="AP030" d="M14485.7697,-4337.7201L14485.9894,-4337.7068L14486.8103,-4337.6331L14487.3795,-4337.5801L14488.9297,-4337.4535L14489.9002,-4337.36L14490.3595,-4337.3264L14492.1494,-4337.1799L14492.9703,-4337.1067L14493.5806,-4337.0533L14494.2398,-4336.9999L14494.7006,-4336.9267L14495.6497,-4336.8401L14496.3303,-4336.7664L14496.6797,-4336.7466L14497.4701,-4336.6798L14497.6303,-4336.66L14498.0804,-4336.6199L14498.2407,-4336.6066L14498.3597,-4336.5868L14498.5397,-4336.6066"/>
<path content="AP030,1,28,1,0,14,1,8,JPN" xlink:title="AP030" d="M14557.4707,-4332.6065L14557.7194,-4332.7133L14557.8995,-4332.7866L14558.0597,-4332.8598L14558.2901,-4332.9464L14558.6807,-4333.1066"/>
<path content="AP030,1,28,1,0,15,1,8,JPN" xlink:title="AP030" d="M14528.6499,-4337.92L14530.2444,-4335.4637L14532.6569,-4333.4435L14532.7957,-4332.9235L14533.2214,-4332.7145L14533.11,-4332.3971"/>
<path content="AP030,1,28,1,0,15,1,8,JPN" xlink:title="AP030" d="M14558.6807,-4333.1066L14559.4345,-4334.2613L14562.4283,-4336.0752L14563.9008,-4336.9267L14564.3417,-4337.5561L14565.1276,-4337.9261L14566.1575,-4338.0367L14568.3167,-4337.7022L14570.0821,-4337.5904L14572.731,-4337.9597L14574.498,-4338.6627L14575.2335,-4338.8103L14576.4114,-4338.736L14578.3249,-4338.179L14579.5502,-4338.2526L14580.188,-4338.3266L14580.6793,-4338.2523L14580.8746,-4337.9559L14580.5313,-4337.4004L14579.2557,-4336.401L14577.8809,-4335.6976L14577.4399,-4335.2901L14576.9974,-4334.8461L14575.8698,-4334.5501L14568.8034,-4333.2569L14563.1134,-4332.1484L14562.1323,-4332.1857L14560.0723,-4333.0387L14558.6807,-4333.1066"/>
<path content="AP030,1,28,1,0,14,1,8,JPN" xlink:title="AP030" d="M14528.6499,-4337.92L14528.2394,-4336.9267L14528.1494,-4336.7332L14527.3605,-4336.2064L14527.0798,-4336.1L14526.6495,-4335.9734L14526.3794,-4335.9734L14525.65,-4336.0802L14525.5402,-4336.1L14524.8993,-4336.1332L14524.6506,-4336.2064L14524.4507,-4336.3201L14524.2706,-4336.4265L14524.1302,-4336.5002L14523.5199,-4336.66L14523.1506,-4336.6798L14522.5204,-4336.66L14522.2198,-4336.66L14522.0596,-4336.6199L14522.02,-4336.5532L14521.6293,-4335.5267L14521.5607,-4335.0735L14521.5393,-4334.9667L14521.4905,-4334.2464L14521.5393,-4333.9535L14521.6507,-4333.8135L14521.6797,-4333.6533L14521.6797,-4333.1066L14521.7697,-4332.7999L14521.7896,-4332.6797L14521.7194,-4332.373L14521.6797,-4332.1934L14521.6995,-4331.6532"/>
<path content="AP030,1,28,1,0,14,1,8,JPN" xlink:title="AP030" d="M14512.5397,-4339.3066L14512.8998,-4338.9267L14512.9501,-4338.8931L14513.3102,-4338.2599L14513.7405,-4337.5065L14514.3097,-4336.6066L14514.5401,-4336.3731L14514.5798,-4336.3335L14514.7903,-4336.1732L14515.4495,-4335.8131L14515.5594,-4335.7601L14515.6097,-4335.6865L14515.6296,-4335.5064L14515.6494,-4335.4L14515.8295,-4335.2531L14516.0599,-4335.0735L14516.2903,-4334.8598L14516.4703,-4334.7332L14517.2699,-4334.7466L14517.4698,-4334.7332L14517.7704,-4334.5867L14518.0206,-4334.4265L14518.7393,-4334.1534L14518.8797,-4334.0668L14518.9499,-4333.9733L14519.0201,-4333.7734L14519.1101,-4333.6533L14519.2902,-4333.5266L14519.4901,-4333.4534L14519.5801,-4333.3797L14519.7006,-4333.2199L14519.8303,-4332.9266L14520.0806,-4332.46L14520.1996,-4332.373L14520.4697,-4332.2998L14520.61,-4332.2464L14520.6802,-4332.1533L14520.8099,-4331.8665L14520.8801,-4331.7734L14520.9702,-4331.72L14521.2006,-4331.6666L14521.3806,-4331.6532L14521.6995,-4331.6532"/>
<path content="AP030,1,28,1,0,14,1,8,JPN" xlink:title="AP030" d="M14484.375,-4336.7948L14485.3302,-4337.4535L14485.7697,-4337.7201"/>
<path content="AP030,1,28,1,0,15,1,8,JPN" xlink:title="AP030" d="M14558.6807,-4333.1066L14558.8608,-4332.8278L14559.2438,-4332.2353L14559.5825,-4331.3732L14558.5037,-4329.7939L14558.4946,-4329.7165L14558.3847,-4328.8765"/>
<path content="AP030,1,28,1,0,14,1,8,JPN" xlink:title="AP030" d="M14525.1999,-4323.1266L14526.1993,-4323.3997L14526.3107,-4323.4333L14526.8295,-4323.6134L14527.4902,-4324.0665L14527.5803,-4324.0997L14527.8107,-4324.0799L14527.9297,-4324.1199L14528.5797,-4324.5331L14528.7903,-4324.6399L14529.6799,-4324.86L14530.04,-4324.8932L14530.13,-4324.8932L14530.6107,-4324.8932L14530.8304,-4324.86L14531.5598,-4324.6799L14531.7001,-4324.6597L14531.7902,-4324.6799L14531.9504,-4324.7665L14532.3303,-4325.0198L14532.5607,-4325.0931L14532.7393,-4325.0931L14533.02,-4325.053L14533.6304,-4324.9264L14533.8303,-4324.9264L14534.1293,-4324.9664L14534.3796,-4325.0401L14534.8999,-4325.2865L14535.7193,-4325.6664L14535.9497,-4325.7401L14536.5402,-4325.8133L14536.8607,-4325.7931L14537.1994,-4325.7401L14537.4298,-4325.6531L14537.6801,-4325.4532L14537.7701,-4325.4131L14537.8799,-4325.4131L14538.2004,-4325.4665L14539.5401,-4325.7599L14539.83,-4325.8331L14540.0208,-4325.8331L14540.3107,-4325.7401L14540.4495,-4325.7401L14540.5594,-4325.7732L14540.6097,-4325.8133L14541.2201,-4326.3L14541.33,-4326.3199L14541.4902,-4326.3L14542.9504,-4326.0464L14543.0801,-4326.0464L14543.2907,-4326.0799L14543.7393,-4326.26L14543.8599,-4326.2798L14544.0201,-4326.2466L14544.7906,-4325.8663L14544.9005,-4325.8331L14545.0607,-4325.8331L14545.3598,-4325.9399L14546.1304,-4326.2264L14546.2402,-4326.3199L14546.4005,-4326.4797L14546.5195,-4326.5663L14546.8597,-4326.7132L14547.0596,-4326.86L14547.3297,-4327.0531L14547.4503,-4327.0931L14547.58,-4327.0931L14548.2697,-4326.9264L14548.4695,-4326.82L14548.7,-4326.733L14548.7839,-4326.6403L14549.2935,-4326.6346L14549.4507,-4326.7666L14549.5605,-4326.86L14549.9298,-4327.3598L14550.0198,-4327.4532L14550.1801,-4327.56L14550.5203,-4327.7397L14550.6805,-4327.8866L14550.8102,-4328.0266L14550.8804,-4328.1532L14550.9003,-4328.2066L14551.0193,-4328.5664L14551.0605,-4328.68L14551.2405,-4328.8597L14551.6098,-4329.2198L14551.9699,-4329.5799L14552.0599,-4329.6333L14552.2003,-4329.6864L14552.4704,-4329.8134L14552.6505,-4329.94L14553.1097,-4330.3532L14553.1799,-4330.4264L14553.5797,-4330.8399L14553.8803,-4331.0398L14555.3299,-4331.7398L14555.4504,-4331.76L14555.6107,-4331.7932L14556.5201,-4332.1732L14557.4707,-4332.6065"/>
<path content="AP030,1,28,1,0,14,1,8,JPN" xlink:title="AP030" d="M14521.6995,-4331.6532L14521.7194,-4330.6599L14521.7407,-4330.0999L14521.7896,-4329.9534L14521.9696,-4329.5799L14522.2,-4329.1264L14522.5204,-4328.6598L14522.58,-4328.4798L14522.6105,-4328.3333L14522.6303,-4328.12L14522.6501,-4328.0266L14522.8607,-4327.8866L14523.1293,-4327.6863L14523.5794,-4327.5398L14523.7,-4327.4666L14523.7701,-4327.38L14523.9304,-4327L14524.1806,-4326.4599L14524.3301,-4326.2798L14524.6994,-4325.8331L14524.7406,-4325.7732L14524.8306,-4325.6531L14524.9893,-4325.4532L14525.0198,-4325.3799L14524.9893,-4325.2731L14524.8993,-4325.1266L14524.8993,-4325.053L14524.9496,-4324.9664L14525.1099,-4324.7864L14525.1999,-4324.6799L14525.1999,-4324.6063L14525.1297,-4324.353L14524.9695,-4323.7064L14524.9695,-4323.5798L14524.9893,-4323.4665L14525.1999,-4323.1266"/>
<path content="AP030,1,28,1,0,14,1,8,JPN" xlink:title="AP030" d="M14518.0655,-4322.4898L14518.5478,-4322.6765L14518.8201,-4322.7699L14519.22,-4322.86L14519.3604,-4322.8931L14519.6503,-4322.9465L14519.7403,-4322.9465L14521.2402,-4322.0467L14521.4005,-4321.9933L14521.5607,-4321.9532L14521.6995,-4321.9398L14521.8307,-4321.9532L14522.0596,-4322.0131L14523.6801,-4322.5533L14524.6094,-4322.8199L14524.7192,-4322.8931L14524.9695,-4323.0534L14525.1999,-4323.1266"/>
<path content="AP030,1,28,1,0,15,1,8,JPN" xlink:title="AP030" d="M14551.8509,-4319.7319L14552.1027,-4320.0565L14553.1311,-4321.3776L14554.0298,-4321.9322L14554.0207,-4321.9685L14553.6789,-4323.3109L14553.4866,-4326.1585L14554.5959,-4328.8437L14555.8731,-4329.715L14556.7719,-4330.2689L14557.901,-4331.8466L14557.4707,-4332.6065"/>
<path content="AP030,1,28,1,0,15,1,8,JPN" xlink:title="AP030" d="M14550.2655,-4318.0611L14550.2808,-4318.2816L14550.3448,-4318.4635L14550.7797,-4318.8889L14551.2543,-4319.1654L14551.712,-4319.2211L14551.7792,-4319.4714L14551.8509,-4319.7319"/>
<path content="AP030,1,28,1,0,14,1,8,JPN" xlink:title="AP030" d="M14507.6996,-4317.1665L14510.2707,-4319.4664L14512.2894,-4321.2864L14512.4298,-4321.4001L14512.5397,-4321.4531L14513.06,-4321.5931L14515.7898,-4322.44L14515.8997,-4322.44L14515.9897,-4322.4266L14516.2704,-4322.3L14516.4703,-4322.2263L14516.5802,-4322.2466L14518.0655,-4322.4898"/>
<path content="AP030,1,28,1,0,15,1,8,JPN" xlink:title="AP030" d="M14508.1299,-4338.0264L14509.375,-4332.6202L14509.5398,-4328.8891L14509.2941,-4326.6506L14508.3054,-4324.4122L14506.7413,-4322.2363L14505.2582,-4320.9305L14504.6814,-4320.2469L14504.7638,-4319.7491L14507.6996,-4317.1665"/>
<path content="AP030,1,28,1,0,15,1,8,JPN" xlink:title="AP030" d="M14522.3877,-4315.0688L14528.4851,-4317.2394L14529.9683,-4317.5522L14531.7383,-4317.6331L14532.637,-4318.2262L14532.5378,-4318.9674L14532.4768,-4319.5232L14532.843,-4320.4311L14535.2142,-4320.4517L14539.8636,-4321.3066L14541.9998,-4321.5557L14542.7887,-4321.9776L14543.4158,-4322.3125L14545.311,-4322.0173L14547.757,-4321.6637L14549.6658,-4320.187L14550.5493,-4319.857L14551.8509,-4319.7319"/>
<path content="AP030,1,28,1,0,15,1,8,JPN" xlink:title="AP030" d="M14518.0655,-4322.4898L14518.8034,-4319.9478L14518.9163,-4319.5492L14519.0948,-4317.7353L14519.3619,-4317.2089L14520.1874,-4316.7728L14521.2189,-4316.3662L14522.3877,-4315.0688"/>
<path content="AP030,1,28,1,0,15,1,8,JPN" xlink:title="AP030" d="M14511.1099,-4314.5241L14509.7443,-4315.583L14507.6996,-4317.1665"/>
<path content="AP030,1,28,1,0,15,1,8,JPN" xlink:title="AP030" d="M14511.1099,-4314.5241L14511.9019,-4314.1979L14512.2986,-4314.1098L14512.9471,-4314.7503L14513.8412,-4314.5702L14516.8732,-4315.456L14517.5018,-4315.0642L14518.3578,-4315.0696L14518.9865,-4314.6778L14520.5765,-4315.099L14521.1472,-4315.3358L14522.3877,-4315.0688"/>
<path content="AP030,1,28,1,0,14,1,8,JPN" xlink:title="AP030" d="M14502.0401,-4313.6665L14502.4902,-4314.2067L14502.6306,-4314.32L14502.7695,-4314.373L14503.4698,-4314.3532L14503.5599,-4314.373L14503.6804,-4314.4264L14503.7903,-4314.4798L14504.3594,-4314.8399L14504.7897,-4315.0532L14505.0797,-4315.1798L14505.5206,-4315.3465L14505.7404,-4315.4331L14505.8807,-4315.5266L14506.2393,-4315.7932L14506.9901,-4316.5131L14507.2693,-4316.7667L14507.6996,-4317.1665"/>
<path content="AP030,1,28,1,0,15,1,8,JPN" xlink:title="AP030" d="M14484.375,-4320.3841L14484.903,-4320.5986L14485.6888,-4320.2766L14486.9781,-4319.9383L14487.3886,-4320.0348L14487.8784,-4320.6085L14488.3926,-4320.7752L14489.0686,-4320.3098L14489.3112,-4320.1538L14489.6133,-4320.1435L14489.6347,-4320.475L14489.6973,-4322.2431L14489.9094,-4322.4205L14490.361,-4322.3682L14492.8696,-4322.1714L14493.1931,-4321.7178L14494.0063,-4321.8002L14495.0577,-4320.9156L14495.4224,-4320.3129L14497.8989,-4318.8622L14497.0993,-4318.1892L14497.0718,-4317.7475L14496.846,-4317.3866L14496.7789,-4317.1307L14498.1369,-4316.3086L14498.7442,-4316.3612L14500.1358,-4315.2798L14500.705,-4314.7434L14501.5213,-4314.1247L14502.0401,-4313.6665"/>
<path content="AP030,1,28,1,0,14,1,8,JPN" xlink:title="AP030" d="M14484.375,-4308.2273L14484.61,-4308.4999L14484.8297,-4308.6933L14485.3806,-4309.0401L14485.6995,-4309.3468L14486.0397,-4309.7733L14486.1298,-4309.8667L14486.9293,-4310.12L14487.0605,-4310.2066L14487.2696,-4310.4401L14487.3993,-4310.5534L14489.3799,-4310.7864L14489.4699,-4310.7998L14489.5599,-4310.7864L14489.83,-4310.5133L14489.9902,-4310.3867L14490.1993,-4310.3531L14490.4007,-4310.3531L14491.04,-4310.5L14492.0593,-4310.5865L14493.0206,-4310.5667L14493.7393,-4310.6068L14494.2001,-4310.5133L14494.6304,-4310.5534L14494.8807,-4310.5865L14495.5795,-4310.9467L14495.9,-4311.0397L14496.2204,-4311.1065L14496.7194,-4311.5398L14497.0795,-4311.6531L14497.6807,-4311.7931L14497.9904,-4311.8866L14498.4497,-4312.1731L14498.8998,-4312.2265L14499.3805,-4312.3867L14499.6796,-4312.5332L14500.3601,-4312.6598L14500.7401,-4312.7998L14501.2695,-4312.9997L14501.4893,-4313.0932L14501.5793,-4313.1664L14502.0401,-4313.6665"/>
<path content="AP030,1,28,1,0,15,1,8,JPN" xlink:title="AP030" d="M14503.1204,-4303.706L14504.1916,-4304.203L14505.6747,-4304.4518L14507.1579,-4304.6379L14507.8171,-4305.0732L14508.0643,-4305.695L14508.6961,-4306.774L14509.0861,-4307.0704L14509.7491,-4307.7491L14511.0062,-4308.117L14510.7819,-4308.6788L14510.7819,-4309.2384L14510.6171,-4309.7984L14510.6171,-4310.6068L14511.1115,-4312.5343L14511.3571,-4313.7157L14511.1099,-4314.5241"/>
<path content="AP030,1,28,1,0,15,1,8,JPN" xlink:title="AP030" d="M14502.0401,-4313.6665L14502.6505,-4312.6892L14502.8183,-4312.4191L14503.0228,-4310.9367L14502.5909,-4310.4725L14502.4658,-4309.3334L14501.6632,-4308.6239L14501.9165,-4307.8773L14501.4526,-4306.16L14501.915,-4305.5534L14502.7298,-4304.9347L14503.1204,-4303.706"/>
<path content="AP030,1,28,1,0,15,1,8,JPN" xlink:title="AP030" d="M14484.375,-4305.7221L14485.4741,-4305.1437L14485.8994,-4302.8393L14487.3016,-4301.6575L14488.8672,-4300.7866L14490.8447,-4299.9157L14492.9047,-4299.5419L14495.7886,-4299.2928L14498.5901,-4299.6029L14500.238,-4300.0999L14501.6388,-4300.8457L14502.1359,-4301.3683L14502.2139,-4301.7271L14502.4303,-4302.6614"/>
<path content="AP030,1,28,1,0,15,1,8,JPN" xlink:title="AP030" d="M14502.7893,-4303.3133L14503.1204,-4303.706"/>
<path content="AP030,1,28,1,0,15,1,8,JPN" xlink:title="AP030" d="M14502.4303,-4302.6614L14502.6117,-4303.0064L14502.7893,-4303.3133"/>
</g>
</svg>
