<?xml version="1.0" encoding="UTF-8"?>
<svg  xmlns="http://www.w3.org/2000/svg" xmlns:xlink="http://www.w3.org/1999/xlink" xmlns:go="http://purl.org/svgmap/profile" property="f_code,acc,exs,rst,med,rtt,RSU,loc,soc" viewBox="13148.4375 -3375.0 70.3125 70.3125" go:dataArea="13148.4375 -3375.0 70.3125 70.3125" >
<metadata>
 <rdf:RDF xmlns:rdf="http://www.w3.org/1999/02/22-rdf-syntax-ns#" xmlns:crs="http://opengis.org/xmldtds/transformations.dtd" xmlns:svg="http://www.w3.org/svg" >
  <rdf:Description>
   <crs:CoordinateReferenceSystem rdf:resource="http://purl.org/crs/84" svg:transform="matrix(100.0,0.0,0.0,-100.0,0.0,0.0)" />
  </rdf:Description>
 </rdf:RDF>
</metadata>
<globalCoordinateSystem srsName="http://purl.org/crs/84" transform="matrix(100.0,0.0,0.0,-100.0,0.0,0.0)" />
<defs>
 <g id="p0" >
  <circle cx="0.0" cy="0.0" r="3" stroke="green" stroke-width="2.0" vector-effect="non-scaling-stroke" />
 </g>
</defs>
<g fill="none" fill-rule="evenodd" stroke="#00ff00" stroke-width="2" opacity="0.5" vector-effect="non-scaling-stroke" stroke-linejoin="bevel" >
<path content="AP030,1,28,1,0,14,1,8,JPN" xlink:title="AP030" d="M13152.4887,-3366.7995L13152.4902,-3366.7999L13152.6993,-3366.8598L13152.8107,-3366.8598L13152.9297,-3366.8598L13153.0594,-3366.7999L13153.2898,-3366.6397L13153.6804,-3366.3532L13153.9505,-3366.2464L13154.2007,-3366.1533L13154.3594,-3366.0797L13154.5197,-3366.0667L13154.8599,-3366.0797L13155.3101,-3366.1533L13155.4306,-3366.1732L13155.5801,-3366.4066L13155.9296,-3366.9266L13156.0806,-3367.1265L13156.1798,-3367.1665L13156.5796,-3367.1665L13157.4295,-3367.1799L13157.9498,-3367.1265L13158.11,-3367.1066"/>
<path content="AP030,1,28,1,0,14,1,8,JPN" xlink:title="AP030" d="M13152.4887,-3366.7995L13152.15,-3366.6798L13151.4893,-3366.3734L13151.2207,-3366.3532L13150.9293,-3366.4066L13150.7706,-3366.4066L13150.5798,-3366.1934L13150.4898,-3365.9931L13150.47,-3365.9199L13150.4898,-3365.8665L13150.7706,-3365.6132L13150.7706,-3365.5598L13150.6302,-3365.3797L13150.5203,-3365.3797L13150.4501,-3365.4533L13150.3799,-3365.4533L13150.3098,-3365.4331L13150.1495,-3365.3065L13150.0198,-3365.1798L13149.9496,-3364.9998L13149.8993,-3364.7999L13149.8596,-3364.6198L13149.8596,-3364.5535L13149.6994,-3364.4066L13149.5605,-3364.2998L13149.4003,-3364.2467L13149.1806,-3364.3532L13149.0799,-3364.46L13148.7198,-3364.4264L13148.6801,-3364.3867L13148.7701,-3364.0999L13148.6496,-3364.0667L13148.4375,-3364.1311M13148.4375,-3363.8612L13148.4695,-3363.8466L13148.5397,-3363.7733L13148.5397,-3363.7199L13148.4375,-3363.4816"/>
<path content="AP030,1,28,1,0,15,1,8,JPN" xlink:title="AP030" d="M13152.4887,-3366.7995L13152.7802,-3365.9351L13153.2104,-3364.9082L13153.3142,-3363.9698L13153.6377,-3363.0859L13154.0176,-3362.5095L13155.0751,-3361.9476L13155.9326,-3361.5593L13156.0562,-3360.8494L13156.1218,-3360.6651"/>
<path content="AP030,1,28,1,0,15,1,8,JPN" xlink:title="AP030" d="M13158.11,-3367.1066L13158.4656,-3366.1079L13158.6838,-3365.3568L13158.7387,-3364.7465L13158.6838,-3363.9481L13158.3588,-3362.9623L13158.1406,-3361.9293L13158.1406,-3361.4597L13158.2504,-3361.272L13158.2504,-3360.9901L13158.0322,-3360.5206L13158.0322,-3360.5202"/>
<path content="AP030,1,28,1,0,14,1,8,JPN" xlink:title="AP030" d="M13158.11,-3367.1066L13158.5205,-3367.2733L13158.7204,-3367.3466L13158.9706,-3367.4133L13159.1797,-3367.7067L13159.6802,-3368.1534L13159.8099,-3368.2465L13160.0403,-3368.1534L13160.2707,-3367.9531L13160.5194,-3367.7933L13160.5606,-3367.6334L13160.6796,-3367.5598L13160.8307,-3367.4866L13161.0199,-3367.4133L13161.1099,-3367.4332L13161.2396,-3367.54L13161.3098,-3367.5266L13161.3602,-3367.4332L13161.3998,-3367.4L13161.4899,-3367.3267L13161.6302,-3367.2199L13161.8805,-3367.0734L13162.2894,-3366.9998L13162.4298,-3366.7667L13162.4695,-3366.6199L13162.9303,-3366.3532L13163.06,-3366.2464L13163.06,-3366.1533L13163.0402,-3365.7734L13163.15,-3365.7066L13163.6993,-3365.5598L13163.9297,-3365.5598L13164.0594,-3365.6132L13164.2395,-3365.8134L13164.3997,-3365.8466L13164.5798,-3365.8134L13164.7903,-3365.7066L13165.1306,-3365.72L13165.3305,-3365.8665L13165.4907,-3366.0133L13165.6097,-3366.0667L13165.77,-3366.0133L13165.8295,-3365.9733L13165.86,-3365.9199L13165.9698,-3365.7066L13166.0599,-3365.6132L13166.2201,-3365.6532L13166.3605,-3365.6532L13166.7007,-3365.4533L13167.0593,-3365.2866L13167.1295,-3365.2199L13167.0197,-3365.0932L13167.0197,-3365.02L13167.2897,-3364.8933L13167.3798,-3364.7667L13167.4896,-3364.5866L13167.54,-3364.5332L13167.5797,-3364.3333L13167.63,-3364.1731L13167.7704,-3363.9732L13168.0405,-3363.8332L13168.1793,-3363.76L13168.6996,-3364.0133L13168.8797,-3363.9732L13169.0796,-3363.9732L13169.1452,-3363.9744L13169.2001,-3363.8134L13169.2337,-3363.715L13169.22,-3363.3999L13169.31,-3363.2198L13169.4504,-3362.9868L13169.4931,-3362.941L13169.5221,-3362.8933L13169.5602,-3362.6198L13169.5404,-3362.3531L13169.6106,-3362.1933L13169.7266,-3362.1151L13169.7845,-3362.0716L13169.8303,-3361.3998L13170.0195,-3360.9467L13170.4712,-3360.5122"/>
<path content="AP030,1,28,1,0,15,1,8,JPN" xlink:title="AP030" d="M13160.5331,-3358.8078L13161.3251,-3359.0199L13161.5372,-3359.1496L13161.2106,-3359.655L13161.6943,-3360.6007L13162.674,-3361.1679L13163.3804,-3361.3354L13163.9267,-3361.3014L13164.8407,-3360.8032L13165.7883,-3360.421L13166.9174,-3360.4313L13167.9825,-3360.6258L13170.4712,-3360.5122"/>
<path content="AP030,1,28,1,0,15,1,8,JPN" xlink:title="AP030" d="M13158.0322,-3360.5202L13159.5291,-3359.7153L13160.1746,-3359.1969L13160.5331,-3358.8078"/>
<path content="AP030,1,28,1,0,15,1,8,JPN" xlink:title="AP030" d="M13158.0322,-3360.5202L13158.0322,-3360.0513L13158.1421,-3359.5348L13158.3054,-3359.1591L13158.3054,-3358.8772L13158.197,-3358.5957L13157.7621,-3358.5018L13157.3257,-3358.408L13156.9458,-3358.2199"/>
<path content="AP030,1,28,1,0,15,1,8,JPN" xlink:title="AP030" d="M13148.4375,-3360.3032L13149.1974,-3359.8648L13150.7401,-3359.4166L13151.5808,-3358.7624L13152.7679,-3358.6647L13154.216,-3358.6628L13154.631,-3358.9977L13155.0232,-3358.7254L13156.2347,-3358.4019L13156.9458,-3358.2199"/>
<path content="AP030,1,28,1,0,15,1,8,JPN" xlink:title="AP030" d="M13160.5331,-3358.8078L13160.5743,-3358.0158L13161.0779,-3356.9054"/>
<path content="AP030,1,28,1,0,15,1,8,JPN" xlink:title="AP030" d="M13156.9458,-3358.2199L13156.9458,-3358.0322L13157.164,-3357.7972L13157.3273,-3357.7034L13157.4905,-3357.5626L13157.4905,-3357.375L13157.3273,-3357.1873L13157.2174,-3357.0461L13157.0557,-3356.8584"/>
<path content="AP030,1,28,1,0,15,1,8,JPN" xlink:title="AP030" d="M13160.4797,-3356.8577L13160.4797,-3356.8584L13160.7529,-3356.9054L13161.0779,-3356.9054"/>
<path content="AP030,1,28,1,0,14,1,8,JPN" xlink:title="AP030" d="M13170.4712,-3360.5122L13170.7703,-3360.3001L13170.9839,-3360.2829L13171.0205,-3360.2798L13171.1105,-3360.2264L13171.2006,-3360.1734L13171.2692,-3360.0666L13171.2906,-3359.9533L13171.4905,-3359.7401L13171.6995,-3359.6333L13172.0596,-3359.2865L13172.1497,-3359.1999L13172.4304,-3358.44L13172.6807,-3357.6134L13172.7905,-3357.4532L13173.1293,-3357.1465L13173.1796,-3357.0534L13173.1293,-3356.8199L13173.1796,-3356.62L13173.1796,-3356.5334"/>
<path content="AP030,1,28,1,0,15,1,8,JPN" xlink:title="AP030" d="M13161.0779,-3356.9054L13161.4594,-3357.093L13161.7859,-3357.1873L13162.4374,-3357.0461L13163.3087,-3356.7646L13164.0152,-3356.6708L13164.5584,-3356.7646L13165.2115,-3357.0461L13165.7547,-3357.328L13166.1346,-3357.375L13166.6245,-3357.2811L13167.9291,-3356.7646L13168.6905,-3356.6235L13169.1803,-3356.6235L13169.8868,-3356.7177L13170.6482,-3356.7177L13171.7896,-3356.6708L13173.1796,-3356.5334"/>
<path content="AP030,1,28,1,0,15,1,8,JPN" xlink:title="AP030" d="M13157.0557,-3356.8584L13157.164,-3356.4827L13157.2723,-3356.1073"/>
<path content="AP030,1,28,1,0,15,1,8,JPN" xlink:title="AP030" d="M13157.2723,-3356.1073L13157.5989,-3356.295L13158.0338,-3356.2481L13158.252,-3355.9662L13158.577,-3355.7785L13158.7952,-3355.8254L13159.0134,-3355.9193L13159.1217,-3355.9662L13159.3384,-3355.8723L13159.6649,-3355.8254L13159.9915,-3356.1073L13160.2631,-3356.4827L13160.4797,-3356.8577"/>
<path content="AP030,1,28,1,0,15,1,8,JPN" xlink:title="AP030" d="M13148.4375,-3355.8928L13149.7147,-3356.1073L13150.9659,-3356.1543L13151.7807,-3356.06L13153.6285,-3355.3558"/>
<path content="AP030,1,28,1,0,15,1,8,JPN" xlink:title="AP030" d="M13153.6285,-3355.3558L13154.3365,-3355.262L13154.9347,-3355.3558L13155.9128,-3355.9662L13156.6208,-3356.5296L13157.0557,-3356.8584"/>
<path content="AP030,1,28,1,0,15,1,8,JPN" xlink:title="AP030" d="M13160.4797,-3356.8577L13161.1847,-3356.1691L13161.6211,-3355.0667L13162.6129,-3352.6054"/>
<path content="AP030,1,28,1,0,15,1,8,JPN" xlink:title="AP030" d="M13151.3855,-3351.516L13151.7227,-3351.7311L13152.5894,-3352.4796L13152.9922,-3353.7601L13153.3752,-3353.9791L13153.5538,-3353.9928L13153.8589,-3354.092L13153.9688,-3354.3278L13153.6499,-3354.7573L13153.6285,-3355.3558"/>
<path content="AP030,1,28,1,0,15,1,8,JPN" xlink:title="AP030" d="M13148.4375,-3353.3515L13149.1196,-3353.6121L13149.1074,-3353.7247L13149.6017,-3353.3466L13150.1724,-3353.088L13150.1038,-3352.8931L13150.4227,-3352.4635L13151.3855,-3351.516"/>
<path content="AP030,1,28,1,0,15,1,8,JPN" xlink:title="AP030" d="M13162.6129,-3352.6054L13163.3133,-3351.9775L13163.6398,-3351.8887L13163.6475,-3352.2301L13163.7543,-3352.5032L13163.9618,-3352.6707L13163.913,-3353.1212L13164.8178,-3352.6981L13167.9077,-3352.1378L13168.8293,-3351.564L13170.0668,-3350.5596L13171.9986,-3350.2514"/>
<path content="AP030,1,28,1,0,15,1,8,JPN" xlink:title="AP030" d="M13157.2723,-3356.1073L13157.2189,-3355.9193L13157.1091,-3355.5435L13156.8375,-3355.0743L13156.4026,-3354.5109L13156.2408,-3354.1351L13156.2408,-3353.7598L13156.2943,-3353.384L13156.131,-3353.149L13155.6961,-3352.6798L13155.4794,-3352.351L13155.4794,-3351.9283L13155.191,-3351.2489L13154.718,-3350.1911L13154.8264,-3350.1442"/>
<path content="AP030,1,28,1,0,15,1,8,JPN" xlink:title="AP030" d="M13151.3855,-3351.516L13151.9241,-3351.141L13152.1164,-3350.2094L13152.8748,-3350.3056L13153.4363,-3350.1221L13154.8264,-3350.1442"/>
<path content="AP030,1,28,1,0,14,1,8,JPN" xlink:title="AP030" d="M13173.1796,-3356.5334L13173.2697,-3356.2065L13173.2697,-3356.1199L13173.2895,-3355.9734L13173.3093,-3355.6332L13173.3994,-3354.9465L13173.4299,-3354.7665L13173.4497,-3354.6799L13173.5397,-3354.6799L13173.6298,-3354.66L13173.79,-3354.5132L13173.97,-3354.2065L13173.9899,-3354.0264L13173.9502,-3353.9532L13173.7198,-3353.8467L13173.6099,-3353.6865L13173.3597,-3353.0399L13173.1094,-3352.3731L13172.7707,-3351.3466L13172.7005,-3351.0933L13172.7005,-3350.4601L13172.6288,-3350.0465"/>
<path content="AP030,1,28,1,0,15,1,8,JPN" xlink:title="AP030" d="M13171.9986,-3350.2514L13172.6288,-3350.0465"/>
<path content="AP030,1,28,1,0,15,1,8,JPN" xlink:title="AP030" d="M13171.9986,-3350.2514L13171.9986,-3349.0017"/>
<path content="AP030,1,28,1,0,15,1,8,JPN" xlink:title="AP030" d="M13154.8264,-3350.1442L13154.9362,-3349.9096L13155.1544,-3349.7215L13155.6427,-3349.3931L13156.1325,-3349.0173L13156.3507,-3348.642L13156.3507,-3348.6416"/>
<path content="AP030,1,28,1,0,15,1,8,JPN" xlink:title="AP030" d="M13156.3507,-3348.6416L13157.2342,-3348.4451L13157.8781,-3348.3433L13158.8562,-3348.9105L13160.144,-3349.1226L13160.9339,-3348.7044L13160.944,-3348.699L13161.5814,-3348.3616"/>
<path content="AP030,1,28,1,0,15,1,8,JPN" xlink:title="AP030" d="M13148.6099,-3348.1735L13149.2676,-3348.5882L13149.6094,-3348.7659L13149.7192,-3348.5855L13150.0748,-3348.6507L13150.2655,-3348.9681L13150.0809,-3349.4083L13150.3616,-3349.733L13150.5081,-3349.6307L13150.8514,-3349.3923L13151.2299,-3349.6487L13151.5579,-3350.3555L13151.3626,-3350.9083L13151.3367,-3351.1333L13151.3855,-3351.516"/>
<path content="AP030,1,28,1,0,14,1,8,JPN" xlink:title="AP030" d="M13148.4375,-3348.2169L13148.6099,-3348.1735"/>
<path content="AP030,1,28,1,0,15,1,8,JPN" xlink:title="AP030" d="M13156.3507,-3348.6416L13156.459,-3347.9374"/>
<path content="AP030,1,28,1,0,15,1,8,JPN" xlink:title="AP030" d="M13156.459,-3347.9374L13156.3492,-3348.6416L13156.3507,-3348.6416"/>
<path content="AP030,1,28,1,0,15,1,8,JPN" xlink:title="AP030" d="M13162.6129,-3352.6054L13163.1592,-3350.489L13164.6423,-3348.4818L13165.0085,-3347.6006"/>
<path content="AP030,1,28,1,0,15,1,8,JPN" xlink:title="AP030" d="M13161.5814,-3348.3616L13163.9374,-3347.8977L13165.0085,-3347.6006"/>
<path content="AP030,1,28,1,0,15,1,8,JPN" xlink:title="AP030" d="M13171.9986,-3349.0017L13171.2769,-3348.9849L13171.1426,-3348.5584L13170.2011,-3348.4871L13169.6136,-3348.064L13168.6707,-3346.743"/>
<path content="AP030,1,28,1,0,15,1,8,JPN" xlink:title="AP030" d="M13165.0085,-3347.6006L13165.8188,-3348.0412L13166.4017,-3347.6688L13167.4042,-3347.5933L13168.6707,-3346.743"/>
<path content="AP030,1,28,1,0,15,1,8,JPN" xlink:title="AP030" d="M13156.459,-3347.9374L13156.6223,-3347.6089L13156.7307,-3347.1394L13156.7307,-3346.8105L13156.514,-3346.5759L13156.514,-3346.5755"/>
<path content="AP030,1,28,1,0,15,1,8,JPN" xlink:title="AP030" d="M13171.9986,-3349.0017L13171.7773,-3348.5306L13171.5775,-3347.8718L13171.6446,-3346.0464"/>
<path content="AP030,1,28,1,0,15,1,8,JPN" xlink:title="AP030" d="M13168.6707,-3346.743L13170.2148,-3346.254L13171.6446,-3346.0464"/>
<path content="AP030,1,28,1,0,14,1,8,JPN" xlink:title="AP030" d="M13172.6288,-3350.0465L13172.6303,-3349.7398L13172.6807,-3349.58L13172.7905,-3349.3065L13172.7905,-3349.1467L13172.8607,-3348.9864L13173.0804,-3348.7133L13173.2193,-3348.4798L13173.2407,-3348.1731L13173.1995,-3347.9534L13173.1293,-3347.8664L13172.9507,-3347.9198L13173.1094,-3347.2534L13173.0804,-3347.0932L13172.8806,-3346.7999L13172.7402,-3346.6064L13172.6807,-3346.5134L13172.29,-3345.9534"/>
<path content="AP030,1,28,1,0,15,1,8,JPN" xlink:title="AP030" d="M13171.6446,-3346.0464L13172.29,-3345.9534"/>
<path content="AP030,1,28,1,0,14,1,8,JPN" xlink:title="AP030" d="M13172.29,-3345.9534L13172.1497,-3345.7066L13172.0596,-3345.4533L13172.0398,-3345.2866L13171.9696,-3345.0535L13171.8094,-3344.9265"/>
<path content="AP030,1,28,1,0,14,1,8,JPN" xlink:title="AP030" d="M13148.6099,-3348.1735L13148.6099,-3348.1731L13148.8602,-3348.0465L13149.4003,-3347.5933L13149.5407,-3347.4865L13149.6094,-3347.2733L13149.7192,-3346.9467L13149.8306,-3346.64L13149.9893,-3346.3734L13150.0793,-3346.1933L13150.0793,-3346.0667L13150.0397,-3345.76L13150.0595,-3345.5399L13150.0595,-3345.5067L13150.1099,-3345.3602L13150.1999,-3345.0932L13150.4898,-3345.0733L13150.6104,-3345.0001L13150.7202,-3344.9265L13150.8789,-3344.9131"/>
<path content="AP030,1,28,1,0,15,1,8,JPN" xlink:title="AP030" d="M13156.459,-3347.9374L13155.1071,-3347.2595L13154.4876,-3346.7197L13154.129,-3346.6919L13153.9566,-3345.3915L13153.2074,-3344.8036L13152.7893,-3343.8866"/>
<path content="AP030,1,28,1,0,14,1,8,JPN" xlink:title="AP030" d="M13150.8789,-3344.9131L13151.1093,-3344.9135L13151.3306,-3344.9665L13151.4496,-3344.9665L13151.5396,-3344.9135L13151.6998,-3344.82L13151.8097,-3344.64L13151.8097,-3344.4801L13151.8097,-3344.1334L13151.9501,-3343.9732L13151.9699,-3343.7599L13152.0401,-3343.7065L13152.2202,-3343.8133L13152.5192,-3343.8866L13152.7893,-3343.8866"/>
<path content="AP030,1,28,1,0,15,1,8,JPN" xlink:title="AP030" d="M13168.6707,-3346.743L13168.6096,-3346.0567L13167.7216,-3345.0806L13166.7358,-3344.5892L13163.4247,-3343.8828L13163.3087,-3343.1667"/>
<path content="AP030,1,28,1,0,16,1,8,JPN" xlink:title="AP030" d="M13162.7197,-3343.1801L13163.0402,-3343.1667L13163.3087,-3343.1667"/>
<path content="AP030,1,28,1,0,16,1,8,JPN" xlink:title="AP030" d="M13163.3087,-3343.1667L13163.3102,-3343.1667L13163.6093,-3343.3468L13163.8992,-3343.5066L13164.0594,-3343.5066L13164.4501,-3343.4132L13164.65,-3343.3601L13164.8102,-3343.38L13165.0192,-3343.4868L13165.4007,-3343.7401L13165.6799,-3343.8332L13166.0202,-3343.8332L13166.2201,-3343.8332L13166.7206,-3343.9732L13167.2897,-3344.1002L13167.6102,-3344.1933L13167.8101,-3344.2799L13168.0405,-3344.5534L13168.3105,-3344.8002L13168.8599,-3345.0199L13169.2001,-3345.2332L13169.3604,-3345.3068L13169.6106,-3345.3068L13169.7693,-3345.2732L13169.9493,-3345.3068L13170.1294,-3345.3068L13170.3796,-3345.2202L13170.8801,-3345.2332L13171.0602,-3345.1668L13171.3303,-3344.9665L13171.8094,-3344.9265"/>
<path content="AP030,1,28,1,0,16,1,8,JPN" xlink:title="AP030" d="M13161.0184,-3343.0527L13161.0199,-3343.0534L13161.2396,-3343.1465L13161.6302,-3343.2331L13161.9507,-3343.2732L13162.3596,-3343.2201L13162.7197,-3343.1801"/>
<path content="AP030,1,28,1,0,15,1,8,JPN" xlink:title="AP030" d="M13161.5814,-3348.3616L13161.0947,-3347.8703L13160.4675,-3347.4056L13160.2188,-3347.1973L13160.3287,-3346.6L13161.0016,-3346.2349L13161.1359,-3345.8286L13160.936,-3345.586L13160.5286,-3344.7598L13160.3714,-3343.7256L13160.4477,-3343.4284L13161.0184,-3343.0534L13161.0184,-3343.0527"/>
<path content="AP030,1,28,1,0,15,1,8,JPN" xlink:title="AP030" d="M13162.7197,-3343.1801L13163.3591,-3342.4065L13163.3575,-3342.4057"/>
<path content="AP030,1,28,1,0,16,1,8,JPN" xlink:title="AP030" d="M13159.1995,-3342.1333L13159.6298,-3342.4599L13159.8297,-3342.5865L13159.8602,-3342.5865L13160.0601,-3342.6601L13160.5194,-3342.7868L13161.0184,-3343.0527"/>
<path content="AP030,1,28,1,0,15,1,8,JPN" xlink:title="AP030" d="M13156.514,-3346.5755L13157.3685,-3345.578L13158.1833,-3344.7319L13158.8318,-3342.9264L13159.1995,-3342.1333"/>
<path content="AP030,1,28,1,0,15,1,8,JPN" xlink:title="AP030" d="M13156.514,-3346.5755L13155.8609,-3346.1533L13155.7526,-3345.8244L13155.426,-3345.7306L13154.9377,-3345.3083L13154.6112,-3344.8856L13154.5029,-3344.3691L13154.5029,-3343.7588L13154.6661,-3343.3361L13154.7211,-3342.8196L13154.7211,-3342.3969L13154.6677,-3342.3336L13154.4693,-3342.1001"/>
<path content="AP030,1,28,1,0,14,1,8,JPN" xlink:title="AP030" d="M13152.7893,-3343.8866L13153.0396,-3343.7065L13153.1998,-3343.5265L13153.2898,-3343.4132L13153.36,-3343.3266L13153.36,-3343.1267L13153.3051,-3342.9844L13153.2898,-3342.9455L13153.27,-3342.8932L13153.2898,-3342.8001L13153.4302,-3342.8001L13153.7903,-3342.7467L13154.1107,-3342.68L13154.2007,-3342.6201L13154.2007,-3342.5133L13154.1504,-3342.44L13154.1306,-3342.3534L13154.1794,-3342.2066L13154.4693,-3342.1001"/>
<path content="AP030,1,28,1,0,15,1,8,JPN" xlink:title="AP030" d="M13161.0184,-3343.0527L13161.1004,-3341.8832"/>
<path content="AP030,1,28,1,0,15,1,8,JPN" xlink:title="AP030" d="M13159.1995,-3342.1333L13159.874,-3342.0593L13161.1004,-3341.8832"/>
<path content="AP030,1,28,1,0,14,1,8,JPN" xlink:title="AP030" d="M13163.3575,-3342.4057L13162.7701,-3342.1333L13162.7396,-3341.8873L13162.7686,-3341.7198"/>
<path content="AP030,1,28,1,0,15,1,8,JPN" xlink:title="AP030" d="M13161.1004,-3341.8832L13161.9385,-3341.7629L13162.7686,-3341.7198"/>
<path content="AP030,1,28,1,0,14,1,8,JPN" xlink:title="AP030" d="M13163.3575,-3342.4057L13163.3606,-3342.4065L13163.5406,-3342.4065L13163.9694,-3342.2066L13164.0793,-3342.1932L13164.3799,-3342.1932L13164.65,-3342.12L13165.1093,-3342.12L13165.2206,-3342.1532L13165.4694,-3342.3199L13165.8295,-3342.3733L13166.1102,-3342.3L13166.33,-3342.1532L13166.4902,-3342.0799L13166.6504,-3341.9933L13166.9495,-3341.9731L13167.3096,-3341.7934L13167.3798,-3341.7599L13167.4698,-3341.7065L13167.63,-3341.6866L13168.4692,-3341.9399L13169.22,-3342.1932L13169.31,-3342.1932L13169.4901,-3342.1333L13169.7693,-3342.0799L13170.1096,-3342.1001L13170.1294,-3342.1532L13170.2194,-3342.2066L13170.2896,-3342.4267L13170.3293,-3342.6399L13170.52,-3343.0401L13170.7397,-3343.6535L13170.8603,-3343.8332L13171.0205,-3343.9934L13171.08,-3344.1734L13171.4294,-3344.5332L13171.6995,-3344.82L13171.8094,-3344.9265"/>
<path content="AP030,1,28,1,0,14,1,8,JPN" xlink:title="AP030" d="M13154.4693,-3342.1001L13154.7699,-3341.9933L13154.8599,-3341.8999L13154.8599,-3341.56L13154.8599,-3341.18L13154.8599,-3341.0732"/>
<path content="AP030,1,28,1,0,16,1,8,JPN" xlink:title="AP030" d="M13159.1995,-3342.1333L13158.7204,-3341.6534L13158.4503,-3341.56L13157.9498,-3341.4532L13157.4005,-3341.2865L13157.1869,-3341.1507L13156.929,-3340.9866"/>
<path content="AP030,1,28,1,0,15,1,8,JPN" xlink:title="AP030" d="M13154.8599,-3341.0732L13156.0318,-3341.021L13156.929,-3340.9866"/>
<path content="AP030,1,28,1,0,14,1,8,JPN" xlink:title="AP030" d="M13162.7686,-3341.7198L13162.8098,-3341.4532L13162.7899,-3341.4131L13162.5198,-3340.9664"/>
<path content="AP030,1,28,1,0,15,1,8,JPN" xlink:title="AP030" d="M13150.8789,-3344.9131L13150.56,-3344.7395L13149.6124,-3344.2234L13148.9044,-3344.0929L13148.4375,-3344.2713"/>
<path content="AP030,1,28,1,0,14,1,8,JPN" xlink:title="AP030" d="M13218.75,-3341.9336L13218.6996,-3341.9399L13218.4006,-3341.8999L13218.2693,-3341.8331L13218.1793,-3341.74L13217.9901,-3341.56L13217.9306,-3341.5264L13217.7902,-3341.4665L13217.6804,-3341.4867L13217.54,-3341.5264L13217.3996,-3341.5264L13217.2897,-3341.4532L13217.1799,-3341.3265L13217.1494,-3341.1266L13217.1997,-3341.04L13217.2195,-3340.9466L13217.2394,-3340.7665L13217.2195,-3340.62L13217.1494,-3340.5132"/>
<path content="AP030,1,28,1,0,15,1,8,JPN" xlink:title="AP030" d="M13217.1494,-3340.5132L13216.9708,-3340.8722L13216.922,-3341.1106L13216.9815,-3341.4928L13217.0532,-3341.7435L13216.9098,-3342.0776L13216.684,-3342.3878L13216.4215,-3342.6144L13216.4215,-3342.7338L13216.5039,-3342.7578L13216.922,-3342.5549L13217.2562,-3342.519L13217.6392,-3342.5549L13217.7338,-3342.6502L13217.746,-3343.0679L13217.7216,-3343.4021L13217.6987,-3343.8557L13217.5674,-3344.1898L13217.6743,-3344.3569L13218.0801,-3344.3451L13218.5089,-3344.2139L13218.75,-3344.1203"/>
<path content="AP030,1,28,1,0,16,1,8,JPN" xlink:title="AP030" d="M13156.929,-3340.9866L13156.7398,-3340.6799L13156.7398,-3340.3732L13156.72,-3339.9734L13156.5201,-3339.7064L13156.1996,-3339.5401L13155.9494,-3339.3265L13155.6091,-3339.0934"/>
<path content="AP030,1,28,1,0,16,1,8,JPN" xlink:title="AP030" d="M13154.7699,-3338.9465L13155.6091,-3339.0934"/>
<path content="AP030,1,28,1,0,14,1,8,JPN" xlink:title="AP030" d="M13154.8599,-3341.0732L13154.9301,-3340.9267L13154.8996,-3340.7467L13154.8996,-3340.6067L13154.7897,-3340.4266L13154.6799,-3340.4064L13154.5197,-3340.3732L13154.4296,-3340.3332L13154.2206,-3340.0265L13154.2206,-3339.9532L13154.3106,-3339.8335L13154.3793,-3339.7732L13154.4693,-3339.7732L13154.5593,-3339.8335L13154.6494,-3339.8335L13154.7394,-3339.8132L13154.7897,-3339.6866L13154.7699,-3339.4001L13154.7699,-3338.9465"/>
<path content="AP030,1,28,1,0,14,1,8,JPN" xlink:title="AP030" d="M13212.2696,-3338.6799L13212.7197,-3338.6398L13212.8998,-3338.6398L13213.2706,-3338.7333L13213.3301,-3338.7867L13213.4506,-3338.8599L13213.6093,-3339.04L13213.6795,-3339.1666L13213.7405,-3339.2735L13213.7894,-3339.36L13213.8306,-3339.4135L13213.9496,-3339.5267L13214.0594,-3339.6133L13214.3097,-3339.6534L13214.5203,-3339.6534L13214.6103,-3339.6534L13214.8605,-3339.6133L13215.0192,-3339.6133L13215.2695,-3339.5802L13215.5197,-3339.5401L13215.7394,-3339.5065L13215.8798,-3339.5401L13215.9897,-3339.6332L13216.1804,-3339.8132L13216.2201,-3339.8464L13216.3605,-3339.9532L13216.6107,-3340.1199L13216.9296,-3340.3332L13216.9495,-3340.3534L13217.0395,-3340.4266L13217.1494,-3340.5132"/>
<path content="AP030,1,28,1,0,14,1,8,JPN" xlink:title="AP030" d="M13155.04,-3337.7399L13155.0797,-3337.7602L13155.3604,-3337.7934L13156.0196,-3337.7602L13156.4301,-3337.7731L13156.6803,-3337.8334L13156.9,-3337.9398L13157.1106,-3338.2465L13157.2693,-3338.4068L13157.2906,-3338.4266L13157.4005,-3338.5864L13157.6096,-3338.6398L13157.7896,-3338.7665L13157.9895,-3338.9668L13158.11,-3339.0732L13158.4305,-3339.3265L13158.58,-3339.4001L13158.8593,-3339.6332L13158.9905,-3339.6332L13159.0195,-3339.6133L13159.1995,-3339.5599L13159.4696,-3339.4333L13159.7198,-3339.4531L13160.08,-3339.5599L13160.1501,-3339.5931L13160.2707,-3339.7732L13160.3607,-3339.8132L13160.6094,-3339.8464L13160.6293,-3339.9532L13160.6506,-3340.1199L13160.6995,-3340.2065L13160.9299,-3340.3198L13161.1298,-3340.5334L13161.6806,-3340.7867L13161.7706,-3340.8401L13161.9904,-3340.8401L13162.0193,-3340.8401L13162.3596,-3340.8733L13162.5198,-3340.9664"/>
<path content="AP030,1,28,1,0,16,1,8,JPN" xlink:title="AP030" d="M13155.6091,-3339.0934L13155.4504,-3338.62L13155.3101,-3338.4068L13155.0797,-3338.1001L13155.04,-3337.7399"/>
<path content="AP030,1,28,1,0,16,1,8,JPN" xlink:title="AP030" d="M13148.4375,-3337.491L13148.6267,-3337.4683L13149.5163,-3337.7579L13150.3326,-3337.9978L13151.4008,-3338.1023L13152.8717,-3338.3701L13154.7684,-3338.9465L13154.7699,-3338.9465"/>
<path content="AP030,1,28,1,0,15,1,8,JPN" xlink:title="AP030" d="M13212.2696,-3338.6799L13212.1536,-3338.0432L13211.5921,-3337.925L13211.4807,-3337.7457L13211.7859,-3337.3016"/>
<path content="AP030,1,28,1,0,14,1,8,JPN" xlink:title="AP030" d="M13153.3997,-3337.22L13154.0802,-3337.36L13154.4693,-3337.4535L13155.04,-3337.7399"/>
<path content="AP030,1,28,1,0,14,1,8,JPN" xlink:title="AP030" d="M13154.7699,-3338.9465L13154.7195,-3338.8401L13154.6799,-3338.7466L13154.4296,-3338.6799L13154.2206,-3338.5132L13154.0604,-3338.4068L13153.9001,-3337.8468L13153.83,-3337.6865L13153.6102,-3337.4332L13153.3997,-3337.22"/>
<path content="AP030,1,28,1,0,14,1,8,JPN" xlink:title="AP030" d="M13152.6367,-3336.9572L13153.1799,-3337.1799L13153.3997,-3337.22"/>
<path content="AP030,1,28,1,0,15,1,8,JPN" xlink:title="AP030" d="M13152.6367,-3336.9572L13152.6382,-3336.9572L13153.0899,-3336.9488L13153.244,-3336.9461L13153.9001,-3336.8713L13154.6295,-3336.7321L13155.0415,-3336.6104L13155.1147,-3336.6272L13155.5771,-3336.7352L13155.6396,-3336.7638L13156.1615,-3337.0029L13156.8558,-3337.0422L13157.7408,-3337.3055L13158.1238,-3337.2929L13158.6227,-3337.2894L13159.0881,-3337.6038L13159.61,-3337.8387L13160.4172,-3337.4542L13160.5545,-3337.5626L13160.8047,-3337.8605L13162.4069,-3338.4148L13162.9761,-3338.6814L13163.0829,-3338.9263L13162.6343,-3339.2269L13162.5763,-3339.4596L13162.5961,-3339.5866L13162.7029,-3339.9712L13162.8601,-3340.5128L13162.8403,-3340.7066L13162.5198,-3340.9664"/>
<path content="AP030,1,28,1,0,14,1,8,JPN" xlink:title="AP030" d="M13149.8993,-3336.0798L13149.8993,-3336.0802L13150.3296,-3336.1935L13151.6998,-3336.6798L13152.0599,-3336.7867L13152.0645,-3336.7882L13152.2202,-3336.8401L13152.597,-3336.9431L13152.6093,-3336.9465L13152.6367,-3336.9572"/>
<path content="AP030,1,28,1,0,15,1,8,JPN" xlink:title="AP030" d="M13148.4375,-3336.4108L13148.7778,-3336.3316L13149.7284,-3336.1183L13149.8993,-3336.0798"/>
<path content="AP030,1,28,1,0,15,1,8,JPN" xlink:title="AP030" d="M13202.3178,-3334.7961L13202.4231,-3334.8454L13203.4714,-3335.8128L13203.7857,-3335.6491L13204.3869,-3335.9261L13204.6997,-3336.8351L13205.1636,-3337.0087L13205.5069,-3337.4531L13206.4102,-3337.8609L13207.9102,-3338.4048L13208.1467,-3338.4529L13209.2209,-3338.9973L13209.6924,-3338.9225L13210.675,-3339.0869L13211.5051,-3339.489L13211.7386,-3339.3814L13212.2696,-3338.6799"/>
<path content="AP030,1,28,1,0,14,1,8,JPN" xlink:title="AP030" d="M13149.8993,-3336.0798L13149.6994,-3335.8131L13149.6994,-3335.4534L13149.6994,-3335.4332L13149.6902,-3335.0048L13149.6094,-3334.6802L13149.4003,-3334.4067L13149.4003,-3334.28L13149.4003,-3334.1934L13149.3103,-3333.6533L13149.2004,-3333.4663L13149.2004,-3333.3599L13149.2401,-3333.02L13149.2706,-3332.84L13149.7894,-3332.1331L13149.8596,-3332.0465L13149.8795,-3332.0133L13150.0397,-3331.3267L13150.1099,-3330.9265L13150.1297,-3330.5664"/>
<path content="AP030,1,28,1,0,14,1,8,JPN" xlink:title="AP030" d="M13148.4375,-3331.1282L13148.5199,-3331.1066L13148.5794,-3331.0532L13148.88,-3330.5531L13148.9304,-3330.5332L13148.97,-3330.5134L13149.0799,-3330.5332L13149.4293,-3330.5332L13149.8947,-3330.5553L13150.1297,-3330.5664"/>
<path content="AP030,1,28,1,0,14,1,8,JPN" xlink:title="AP030" d="M13150.1297,-3330.5664L13150.1801,-3329.3064L13150.3998,-3328.5332L13150.47,-3328.26L13150.4898,-3328.1731L13150.5402,-3327.9732L13150.56,-3327.9198L13150.6104,-3327.7065L13150.65,-3327.4864L13150.7401,-3327.2865L13150.7614,-3327.2536"/>
<path content="AP030,1,28,1,0,16,1,8,JPN" xlink:title="AP030" d="M13169.7693,-3325.4333L13170.2698,-3325.4665L13170.7397,-3325.5066"/>
<path content="AP030,1,28,1,0,15,1,8,JPN" xlink:title="AP030" d="M13169.7693,-3325.4333L13169.6503,-3325.4333L13169.4702,-3325.4333L13168.9896,-3325.4333L13168.222,-3325.4009"/>
<path content="AP030,1,28,1,0,14,1,8,JPN" xlink:title="AP030" d="M13150.7614,-3327.2536L13150.9003,-3327.0397L13151.0193,-3326.8398L13151.0803,-3326.7864L13151.1093,-3326.7666L13151.2207,-3326.7132L13151.2894,-3326.68L13151.6296,-3326.5133L13151.77,-3326.4999L13152.3788,-3326.4301L13152.4918,-3326.3725L13152.7328,-3326.2245L13152.8351,-3326.1616L13152.9053,-3326.112L13153.1799,-3325.9533L13153.3997,-3325.7732L13154.1153,-3325.6275L13154.1962,-3325.573L13154.2801,-3325.5749L13154.5258,-3325.5188L13154.7058,-3325.4829L13154.95,-3325.56L13155.162,-3325.5936L13155.2979,-3325.5936L13155.5283,-3325.5119L13155.7007,-3325.5066L13155.9296,-3325.4864L13156.2698,-3325.2731L13156.5201,-3325.1999L13156.8069,-3325.1106L13157.5211,-3324.8863"/>
<path content="AP030,1,28,1,0,15,1,8,JPN" xlink:title="AP030" d="M13158.4549,-3324.506L13162.9242,-3324.8985L13165.8875,-3325.1801L13168.222,-3325.4009"/>
<path content="AP030,1,28,1,0,14,1,8,JPN" xlink:title="AP030" d="M13157.5211,-3324.8863L13157.93,-3324.7463L13158.0597,-3324.6933L13158.4,-3324.5331L13158.4549,-3324.506"/>
<path content="AP030,1,28,1,0,15,1,8,JPN" xlink:title="AP030" d="M13170.7397,-3325.5066L13171.0403,-3325.5398L13171.4905,-3325.5066L13171.6095,-3325.4864L13171.5607,-3325.1064L13171.5195,-3324.7665L13171.489,-3324.588L13171.4706,-3324.4801"/>
<path content="AP030,1,28,1,0,15,1,8,JPN" xlink:title="AP030" d="M13150.7614,-3327.2536L13150.7492,-3326.7422L13150.7629,-3325.9628L13151.2177,-3325.2621L13151.3992,-3324.8512L13151.3092,-3324.4606"/>
<path content="AP030,1,28,1,0,16,1,8,JPN" xlink:title="AP030" d="M13148.4375,-3326.3477L13148.4497,-3326.3332L13148.5199,-3326.2264L13148.5596,-3326.0998L13148.6298,-3325.9933L13148.8098,-3325.8465L13149.0601,-3325.6664L13149.3607,-3325.5398L13149.6796,-3325.5066L13149.9298,-3325.4864L13150.0793,-3325.4532L13150.1999,-3325.3597L13150.4303,-3325.1801L13150.6302,-3325.0198L13150.8301,-3324.8398L13151.0193,-3324.7334L13151.3092,-3324.4606"/>
<path content="AP030,1,28,1,0,15,1,8,JPN" xlink:title="AP030" d="M13168.222,-3325.4009L13168.2404,-3325.0931L13168.2693,-3324.5331L13168.2922,-3324.2912L13168.3105,-3324.0997"/>
<path content="AP030,1,28,1,0,14,1,8,JPN" xlink:title="AP030" d="M13168.3105,-3324.0997L13168.6493,-3324.0463"/>
<path content="AP030,1,28,1,0,14,1,8,JPN" xlink:title="AP030" d="M13168.6493,-3324.0463L13168.6798,-3324.0463L13169.3298,-3323.9399L13169.6106,-3323.8865L13170.0195,-3323.8464L13170.0607,-3323.8464L13170.1996,-3323.9399L13170.2896,-3324.0131L13170.5795,-3324.2599L13170.8603,-3324.4064L13171.1304,-3324.4999L13171.3806,-3324.4999L13171.4706,-3324.4801"/>
<path content="AP030,1,28,1,0,14,1,8,JPN" xlink:title="AP030" d="M13168.3105,-3324.0997L13168.2404,-3324.0997L13167.7399,-3324.0463L13167.63,-3324.0665L13167.3996,-3324.1199L13167.1097,-3324.1734L13166.8594,-3324.2065L13166.7236,-3324.3374L13166.6306,-3324.4267L13166.4902,-3324.4801L13166.4307,-3324.4801L13166.1804,-3324.4801L13166.0202,-3324.4598L13165.6799,-3324.44L13165.3595,-3324.3732L13165.2405,-3324.3332L13164.9307,-3324.3198L13164.5401,-3324.2466L13164.4302,-3324.2065L13163.9694,-3324.2065L13163.6307,-3324.2065L13163.5406,-3324.2065L13163.3804,-3324.2264L13163.0402,-3324.2466L13163.0203,-3324.2264L13162.7701,-3324.1333L13162.7396,-3324.1333L13162.4496,-3324.0265L13162.3596,-3323.9933L13162.0193,-3323.8667L13161.4899,-3323.8998L13161.0794,-3323.8998L13160.6506,-3323.8998L13160.4294,-3323.8998L13160.2005,-3323.8998L13160.1501,-3323.7064"/>
<path content="AP030,1,28,1,0,14,1,8,JPN" xlink:title="AP030" d="M13158.4549,-3324.506L13158.7006,-3324.3866L13159.0805,-3324.2065L13159.2194,-3324.1333L13159.3796,-3324.0665L13159.7702,-3323.8998L13160.1501,-3323.7064"/>
<path content="AP030,1,28,1,0,14,1,8,JPN" xlink:title="AP030" d="M13171.4706,-3324.4801L13171.5393,-3324.4598L13171.8597,-3324.2798L13172.1497,-3324.1199L13172.3801,-3323.9933L13172.6501,-3323.793L13172.8104,-3323.7198L13173.1796,-3323.74L13173.3795,-3323.7198L13173.4894,-3323.7064L13174.2004,-3323.56L13174.2905,-3323.5397L13174.4904,-3323.5065L13174.5605,-3323.4863L13174.8795,-3323.4531"/>
<path content="AP030,1,28,1,0,14,1,8,JPN" xlink:title="AP030" d="M13160.1501,-3323.7064L13160.3607,-3323.5931L13160.6506,-3323.4665L13161.0199,-3323.2864L13161.2198,-3323.2201L13161.4899,-3323.1998L13161.6501,-3323.1998"/>
<path content="AP030,1,28,1,0,16,1,8,JPN" xlink:title="AP030" d="M13151.3092,-3324.4606L13151.3107,-3324.4598L13151.6098,-3324.2599L13151.7197,-3324.1932L13151.8997,-3324.1333L13152.3102,-3324.1199L13152.6794,-3324.1199L13152.8595,-3324.0799L13152.9495,-3324.0665L13153.2394,-3323.9201L13153.4302,-3323.8132L13153.5797,-3323.653L13153.7201,-3323.3463L13153.7903,-3323.1667"/>
<path content="AP030,1,28,1,0,15,1,8,JPN" xlink:title="AP030" d="M13161.6501,-3323.1998L13162.5595,-3323.1998L13162.9883,-3323.1747L13163.4705,-3323.1464"/>
<path content="AP030,1,28,1,0,15,1,8,JPN" xlink:title="AP030" d="M13153.9001,-3323.0534L13154.4113,-3323.1586L13154.4189,-3323.3856L13154.1306,-3323.8728L13154.3579,-3323.9468L13154.7409,-3323.8346L13155.3818,-3323.5161L13156.2439,-3323.6385L13156.6391,-3324.0368L13157.2678,-3324.4526L13157.4722,-3324.8024L13157.5211,-3324.8863"/>
<path content="AP030,1,28,1,0,16,1,8,JPN" xlink:title="AP030" d="M13153.7903,-3323.1667L13153.9001,-3323.0534"/>
<path content="AP030,1,28,1,0,15,1,8,JPN" xlink:title="AP030" d="M13174.8795,-3323.4531L13174.9039,-3322.9374"/>
<path content="AP030,1,28,1,0,15,1,8,JPN" xlink:title="AP030" d="M13151.3092,-3324.4606L13151.3092,-3324.4598L13151.2268,-3323.848L13152.0569,-3322.4117"/>
<path content="AP030,1,28,1,0,15,1,8,JPN" xlink:title="AP030" d="M13152.0569,-3322.4117L13152.8809,-3322.3618L13153.4393,-3322.8008L13153.7343,-3323.1085L13153.7903,-3323.1667"/>
<path content="AP030,1,28,1,0,15,1,8,JPN" xlink:title="AP030" d="M13163.4705,-3323.1464L13163.4506,-3322.8199L13163.4506,-3322.3732L13163.4506,-3322.1333L13163.5406,-3321.973"/>
<path content="AP030,1,28,1,0,15,1,8,JPN" xlink:title="AP030" d="M13173.6328,-3321.6461L13173.8159,-3321.8296L13174.2355,-3322.3141L13174.9039,-3322.9374"/>
<path content="AP030,1,28,1,0,15,1,8,JPN" xlink:title="AP030" d="M13168.6493,-3324.0463L13168.0573,-3323.4051L13168.0008,-3322.665L13167.6086,-3321.5267"/>
<path content="AP030,1,28,1,0,15,1,8,JPN" xlink:title="AP030" d="M13163.4705,-3323.1464L13164.0991,-3322.6971L13164.6301,-3322.5533L13165.86,-3322.4598L13166.4001,-3322.0665L13167.0197,-3321.6866L13167.6086,-3321.5267"/>
<path content="AP030,1,28,1,0,15,1,8,JPN" xlink:title="AP030" d="M13152.0569,-3322.4117L13150.3754,-3321.4619"/>
<path content="AP030,1,28,1,0,15,1,8,JPN" xlink:title="AP030" d="M13148.4375,-3321.4607L13149.4217,-3321.36L13150.3754,-3321.4619"/>
<path content="AP030,1,28,1,0,14,1,8,JPN" xlink:title="AP030" d="M13160.1501,-3323.7064L13160.0342,-3323.5401L13159.8099,-3323.2201L13159.4894,-3322.7665L13159.4498,-3322.6601L13159.4498,-3322.5533L13159.4498,-3322.3L13159.4299,-3321.9532L13159.4299,-3321.8864L13159.465,-3321.6991L13159.4894,-3321.5599L13159.4894,-3321.4001L13159.4894,-3321.3467"/>
<path content="AP030,1,28,1,0,15,1,8,JPN" xlink:title="AP030" d="M13174.9039,-3322.9374L13174.9039,-3322.5552L13175.1038,-3321.4092L13175.6805,-3320.8199"/>
<path content="AP030,1,28,1,0,14,1,8,JPN" xlink:title="AP030" d="M13161.6501,-3323.1998L13161.8103,-3323.04L13161.8225,-3322.9279L13161.8805,-3322.4064L13161.8103,-3322.2599L13161.47,-3321.92L13161.2,-3321.6534L13161.0794,-3321.5401L13160.4706,-3320.9267L13160.3104,-3320.7664L13160.2905,-3320.5132"/>
<path content="AP030,1,28,1,0,14,1,8,JPN" xlink:title="AP030" d="M13159.4894,-3321.3467L13159.7,-3321.1266L13159.79,-3321.04L13159.9503,-3320.8733L13160.2402,-3320.5666L13160.2905,-3320.5132"/>
<path content="AP030,1,28,1,0,14,1,8,JPN" xlink:title="AP030" d="M13159.4894,-3321.3467L13159.3796,-3321.2334L13159.2194,-3321.1063L13159.1507,-3321.0533L13158.6304,-3320.5864L13158.4,-3320.3865L13158.3801,-3320.3533L13158.3298,-3320.2999L13158.3099,-3320.1332L13158.2596,-3320.0794"/>
<path content="AP030,1,28,1,0,16,1,8,JPN" xlink:title="AP030" d="M13153.9001,-3323.0534L13154.1794,-3322.8733L13154.4296,-3322.7333L13154.6097,-3322.6799L13154.8294,-3322.6601L13154.9301,-3322.6799L13155.0201,-3322.7467L13155.1804,-3322.86L13155.2704,-3322.9465L13155.4504,-3323L13155.5206,-3323.04L13155.7205,-3323.0534L13155.9494,-3323.0534L13156.1493,-3323.0198L13156.2698,-3322.9664L13156.3995,-3322.7665L13156.5201,-3322.5666L13156.6101,-3322.4998L13156.8604,-3322.4998L13157.2205,-3322.44L13157.2906,-3322.44L13157.5195,-3322.3198L13157.6492,-3322.1531L13157.8293,-3321.8132L13157.8934,-3321.4909L13157.9498,-3321.1998L13158.0597,-3320.8401L13158.11,-3320.5132L13158.1299,-3320.2599L13158.2001,-3320.1332L13158.2596,-3320.0794"/>
<path content="AP030,1,28,1,0,16,1,8,JPN" xlink:title="AP030" d="M13163.5406,-3321.973L13163.5605,-3321.8132L13163.5605,-3321.5065L13163.4705,-3320.9465L13163.4903,-3320.62L13163.4705,-3320.2801L13163.6093,-3319.9932"/>
<path content="AP030,1,28,1,0,16,1,8,JPN" xlink:title="AP030" d="M13163.3804,-3320.0264L13163.6093,-3319.9932"/>
<path content="AP030,1,28,1,0,14,1,8,JPN" xlink:title="AP030" d="M13160.2905,-3320.5132L13160.5606,-3320.1332L13160.6796,-3319.9734"/>
<path content="AP030,1,28,1,0,16,1,8,JPN" xlink:title="AP030" d="M13160.7651,-3319.833L13160.8795,-3319.8666L13161.4914,-3320.0119L13161.7203,-3320.0665L13162.7197,-3320.2065L13162.97,-3320.2065L13163.2706,-3320.0798L13163.3804,-3320.0264"/>
<path content="AP030,1,28,1,0,14,1,8,JPN" xlink:title="AP030" d="M13160.6796,-3319.9734L13160.7651,-3319.833"/>
<path content="AP030,1,28,1,0,14,1,8,JPN" xlink:title="AP030" d="M13170.4926,-3319.825L13172.3236,-3321.2929L13173.6328,-3321.6461"/>
<path content="AP030,1,28,1,0,15,1,8,JPN" xlink:title="AP030" d="M13170.4926,-3319.825L13171.2234,-3321.1819L13172.0505,-3321.6404L13172.522,-3321.6473L13173.6328,-3321.6461"/>
<path content="AP030,1,28,1,0,15,1,8,JPN" xlink:title="AP030" d="M13150.3754,-3321.4619L13150.8621,-3321.0182L13150.4013,-3320.615L13150.5188,-3319.8132"/>
<path content="AP030,1,28,1,0,16,1,8,JPN" xlink:title="AP030" d="M13160.1501,-3319.6667L13160.3302,-3319.7063L13160.7651,-3319.833"/>
<path content="AP030,1,28,1,0,14,1,8,JPN" xlink:title="AP030" d="M13160.1501,-3319.6667L13160.2707,-3319.7399L13160.4507,-3319.8132L13160.6796,-3319.9734"/>
<path content="AP030,1,28,1,0,14,1,8,JPN" xlink:title="AP030" d="M13163.6093,-3319.9932L13163.7894,-3319.6667L13163.7894,-3319.6663"/>
<path content="AP030,1,28,1,0,16,1,8,JPN" xlink:title="AP030" d="M13163.3804,-3320.0264L13163.7894,-3319.6663"/>
<path content="AP030,1,28,1,0,16,1,8,JPN" xlink:title="AP030" d="M13158.2596,-3320.0794L13158.5205,-3319.8463L13158.7692,-3319.7063L13159.1095,-3319.6331"/>
<path content="AP030,1,28,1,0,16,1,8,JPN" xlink:title="AP030" d="M13159.1095,-3319.6331L13159.9503,-3319.6331L13160.1501,-3319.6667"/>
<path content="AP030,1,28,1,0,15,1,8,JPN" xlink:title="AP030" d="M13167.6086,-3321.5267L13167.6086,-3321.5263L13167.5125,-3320.6188L13167.0776,-3319.5621"/>
<path content="AP030,1,28,1,0,16,1,8,JPN" xlink:title="AP030" d="M13163.7894,-3319.6663L13166.3818,-3319.5427L13167.0776,-3319.5621"/>
<path content="AP030,1,28,1,0,14,1,8,JPN" xlink:title="AP030" d="M13169.9775,-3319.4895L13170.4926,-3319.825"/>
<path content="AP030,1,28,1,0,15,1,8,JPN" xlink:title="AP030" d="M13167.6086,-3321.5267L13167.6102,-3321.5263L13168.5196,-3321.273L13168.9301,-3321.1998L13168.8995,-3320.8L13169.0933,-3320.2896L13169.9775,-3319.4895"/>
<path content="AP030,1,28,1,0,14,1,8,JPN" xlink:title="AP030" d="M13160.7651,-3319.833L13161.0596,-3319.3466L13161.1298,-3319.2333"/>
<path content="AP030,1,28,1,0,14,1,8,JPN" xlink:title="AP030" d="M13169.3349,-3319.2171L13169.9775,-3319.4895"/>
<path content="AP030,1,28,1,0,16,1,8,JPN" xlink:title="AP030" d="M13167.0776,-3319.5621L13168.4837,-3319.4007L13169.1023,-3319.2991L13169.3349,-3319.2171"/>
<path content="AP030,1,28,1,0,15,1,8,JPN" xlink:title="AP030" d="M13169.9775,-3319.4895L13169.5973,-3319.1192"/>
<path content="AP030,1,28,1,0,16,1,8,JPN" xlink:title="AP030" d="M13169.3349,-3319.2171L13169.5701,-3319.1341L13169.5973,-3319.1192"/>
<path content="AP030,1,28,1,0,14,1,8,JPN" xlink:title="AP030" d="M13159.3307,-3319.0933L13159.52,-3319.1666L13159.61,-3319.2532L13159.7,-3319.453L13159.7702,-3319.5065L13159.9899,-3319.5801L13160.1105,-3319.6331L13160.1501,-3319.6667"/>
<path content="AP030,1,28,1,0,15,1,8,JPN" xlink:title="AP030" d="M13159.1095,-3319.6331L13159.3307,-3319.0933"/>
<path content="AP030,1,28,1,0,14,1,8,JPN" xlink:title="AP030" d="M13159.1095,-3318.9995L13159.3307,-3319.0933"/>
<path content="AP030,1,28,1,0,16,1,8,JPN" xlink:title="AP030" d="M13175.6805,-3320.8199L13175.7004,-3320.7867L13175.7706,-3320.5334L13175.7904,-3320.2801L13175.8301,-3319.9734L13175.7904,-3319.6533L13175.7904,-3319.5267L13175.9293,-3319.2532L13176.1993,-3319.0533L13176.2695,-3318.9465"/>
<path content="AP030,1,28,1,0,15,1,8,JPN" xlink:title="AP030" d="M13169.9775,-3319.4895L13169.9624,-3319.0199L13169.9719,-3318.9134"/>
<path content="AP030,1,28,1,0,16,1,8,JPN" xlink:title="AP030" d="M13169.5973,-3319.1192L13169.9719,-3318.9134"/>
<path content="AP030,1,28,1,0,14,1,8,JPN" xlink:title="AP030" d="M13163.7894,-3319.6663L13163.8794,-3319.4664L13163.8794,-3319.1666L13163.8107,-3318.8934"/>
<path content="AP030,1,28,1,0,14,1,8,JPN" xlink:title="AP030" d="M13158.2596,-3320.0794L13158.1299,-3319.9398L13158.0597,-3319.8132L13157.8598,-3319.6133L13157.7194,-3319.4332L13157.5394,-3319.2532L13157.4493,-3319.0933L13157.4295,-3319.0399L13157.1793,-3318.8931"/>
<path content="AP030,1,28,1,0,15,1,8,JPN" xlink:title="AP030" d="M13167.0776,-3319.5621L13166.8976,-3319.1288L13166.6992,-3318.7996"/>
<path content="AP030,1,28,1,0,14,1,8,JPN" xlink:title="AP030" d="M13163.8107,-3318.8934L13164.6011,-3319.2097L13165.5441,-3319.1963L13166.6992,-3318.7996"/>
<path content="AP030,1,28,1,0,14,1,8,JPN" xlink:title="AP030" d="M13166.6992,-3318.7996L13168.1216,-3318.7026L13169.3349,-3319.2171"/>
<path content="AP030,1,28,1,0,14,1,8,JPN" xlink:title="AP030" d="M13163.8107,-3318.8934L13163.8107,-3318.8931L13163.7894,-3318.7134L13163.7695,-3318.6398"/>
<path content="AP030,1,28,1,0,14,1,8,JPN" xlink:title="AP030" d="M13157.1793,-3318.8931L13156.5796,-3318.4601"/>
<path content="AP030,1,28,1,0,14,1,8,JPN" xlink:title="AP030" d="M13150.5188,-3319.8132L13150.5203,-3319.8132L13150.7706,-3319.8334L13151.1505,-3319.9734L13151.3107,-3319.9932L13151.68,-3320.0466L13151.7197,-3320.0466L13151.9501,-3320.013L13152.095,-3319.981L13152.2202,-3319.9532L13152.4002,-3319.8864L13152.5803,-3319.8334L13152.8107,-3319.6865L13153.0594,-3319.2863L13153.2196,-3319.1463L13153.6804,-3318.9133L13154.4006,-3318.7466L13154.4495,-3318.7332L13155.0797,-3318.7332L13155.1804,-3318.7332L13155.2704,-3318.6932L13155.8105,-3318.4799L13156.2195,-3318.4601L13156.5796,-3318.4601"/>
<path content="AP030,1,28,1,0,14,1,8,JPN" xlink:title="AP030" d="M13157.0493,-3318.4601L13157.1793,-3318.8931"/>
<path content="AP030,1,28,1,0,14,1,8,JPN" xlink:title="AP030" d="M13156.5796,-3318.4601L13157.0493,-3318.4601"/>
<path content="AP030,1,28,1,0,14,1,8,JPN" xlink:title="AP030" d="M13157.0493,-3318.4601L13157.1793,-3318.4601L13157.7393,-3318.5131L13159.1095,-3318.9995"/>
<path content="AP030,1,28,1,0,14,1,8,JPN" xlink:title="AP030" d="M13148.4375,-3319.3296L13148.5199,-3319.1463L13148.6298,-3319.0731L13148.7396,-3319.0533L13148.8083,-3319.0948L13148.8602,-3319.1265L13149.4507,-3319.6331L13149.6307,-3319.7201L13149.7696,-3319.7399L13149.9496,-3319.7399L13150.5188,-3319.8132"/>
<path content="AP030,1,28,1,0,16,1,8,JPN" xlink:title="AP030" d="M13169.9719,-3318.9134L13170.3094,-3318.728L13170.7443,-3318.1694L13170.928,-3317.9158L13170.9817,-3317.7264"/>
<path content="AP030,1,28,1,0,15,1,8,JPN" xlink:title="AP030" d="M13169.9719,-3318.9134L13170.0227,-3318.3473L13170.249,-3318.0807L13170.5055,-3317.865L13170.9817,-3317.7264"/>
<path content="AP030,1,28,1,0,14,1,4,JPN" xlink:title="AP030" d="M13163.7695,-3318.6398L13163.6993,-3318.3731L13163.6795,-3318.0466L13163.6093,-3317.7933L13163.5803,-3317.6666"/>
<path content="AP030,1,28,1,0,14,1,8,JPN" xlink:title="AP030" d="M13155.1102,-3317.6132L13155.4306,-3317.8665L13155.7205,-3317.8864L13155.8594,-3318.0466L13156.1798,-3318.1732L13156.2897,-3318.28L13156.5796,-3318.4601"/>
<path content="AP030,1,28,1,0,16,1,4,JPN" xlink:title="AP030" d="M13176.2695,-3318.9465L13176.3794,-3318.7664L13176.5198,-3318.5131L13176.8295,-3318.0134L13176.9699,-3317.7067L13177.0401,-3317.58"/>
<path content="AP030,1,28,1,0,14,1,8,JPN" xlink:title="AP030" d="M13154.8996,-3317.4866L13154.9896,-3317.5934L13155.1102,-3317.6132"/>
<path content="AP030,1,28,1,0,15,1,8,JPN" xlink:title="AP030" d="M13161.1298,-3319.2333L13160.6339,-3318.8515L13160.3912,-3318.6066L13160.0784,-3318.0733L13159.4986,-3317.5198L13159.079,-3317.3462"/>
<path content="AP030,1,28,1,0,15,1,8,JPN" xlink:title="AP030" d="M13159.1095,-3318.9995L13159.079,-3317.3462"/>
<path content="AP030,1,28,1,0,14,1,8,JPN" xlink:title="AP030" d="M13155.1102,-3317.6132L13155.4011,-3317.5698L13155.857,-3317.4594L13156.112,-3317.2774L13156.3979,-3317.3944L13156.5911,-3317.5114L13156.6683,-3317.6543L13157.0083,-3318.3236L13157.0493,-3318.4601"/>
<path content="AP030,1,28,1,0,16,1,8,JPN" xlink:title="AP030" d="M13170.9817,-3317.7264L13171.1413,-3317.1625"/>
<path content="AP030,1,28,1,0,14,1,8,JPN" xlink:title="AP030" d="M13161.1298,-3319.2333L13161.2,-3319.1265L13161.3098,-3318.9133L13161.4304,-3318.66L13161.47,-3318.5863L13161.5204,-3318.5333L13161.5601,-3318.4399L13161.5601,-3318.4067L13161.5601,-3318.3331L13161.4899,-3318.1332L13161.4899,-3318.0264L13161.525,-3317.9901L13161.5601,-3317.9531L13161.7203,-3317.8665L13162.3306,-3317.3599L13162.5397,-3317.02L13162.6297,-3316.9666L13162.7701,-3316.9464L13163.2401,-3316.9266L13163.3804,-3316.8934L13163.4705,-3316.8198L13164.0198,-3316.46"/>
<path content="AP030,1,28,1,0,14,1,8,JPN" xlink:title="AP030" d="M13163.5803,-3317.6666L13163.5605,-3317.5934L13163.5605,-3317.4332L13163.8107,-3316.9266L13163.9297,-3316.6931L13164.0594,-3316.4398"/>
<path content="AP030,1,28,1,0,14,1,8,JPN" xlink:title="AP030" d="M13164.0198,-3316.46L13164.0594,-3316.4398"/>
<path content="AP030,1,28,1,0,14,1,8,JPN" xlink:title="AP030" d="M13154.8996,-3317.4866L13154.7699,-3317.3065L13154.6295,-3317.2001L13154.3304,-3317.1265L13154.2206,-3317.0532L13154.1107,-3316.8934L13153.9703,-3316.4997L13153.9001,-3316.3731L13153.7903,-3316.2998L13153.6102,-3316.28"/>
<path content="AP030,1,28,1,0,15,1,8,JPN" xlink:title="AP030" d="M13166.6992,-3318.7996L13166.1255,-3317.8535L13164.9445,-3317.2546L13164.5187,-3316.2468"/>
<path content="AP030,1,28,1,0,14,1,8,JPN" xlink:title="AP030" d="M13164.0594,-3316.4398L13164.1998,-3316.3731L13164.5187,-3316.2468"/>
<path content="AP030,1,28,1,0,14,1,8,JPN" xlink:title="AP030" d="M13154.8996,-3317.4866L13154.8599,-3317.2333L13154.8096,-3317.1467L13154.6494,-3317.0731L13154.5807,-3317.0399L13154.4296,-3316.9132L13154.1794,-3316.5131L13154.0604,-3316.2998L13153.9703,-3316.2067L13153.8605,-3316.1732L13153.7903,-3316.1732L13153.6102,-3316.28"/>
<path content="AP030,1,28,1,0,16,1,8,JPN" xlink:title="AP030" d="M13177.0401,-3317.58L13177.0203,-3317.3065L13177.0798,-3317.2001L13177.3102,-3316.8934L13177.3804,-3316.7133L13177.3804,-3316.46L13177.3605,-3316.2998L13177.3605,-3316.1732"/>
<path content="AP030,1,28,1,0,14,1,8,JPN" xlink:title="AP030" d="M13179.1107,-3315.5933L13179.2892,-3315.7066L13179.5197,-3315.9199L13179.8294,-3316.2266L13179.9896,-3316.32L13180.2704,-3316.3532L13180.7907,-3316.3864L13180.8777,-3316.4104L13181.0593,-3316.46L13181.3293,-3316.5531L13181.7703,-3316.6798L13182.4493,-3316.8732L13182.5195,-3316.9998L13182.6492,-3317.0532L13182.6797,-3317.1467L13182.5806,-3317.3264L13182.4905,-3317.6132L13182.5195,-3317.6666L13182.6797,-3317.7067L13182.7393,-3317.7399L13182.8293,-3317.8333L13182.9895,-3318.0134L13183.0597,-3318.0466L13183.4305,-3318.3331L13183.7402,-3318.4998L13183.8303,-3318.66L13183.9493,-3318.7466L13184.0393,-3318.7664L13184.2896,-3318.7866L13184.3597,-3318.84L13184.4696,-3318.9133L13184.52,-3318.9266L13184.6298,-3318.9266L13184.7702,-3318.84L13184.79,-3318.8599L13184.8297,-3318.8931L13184.8602,-3319.0533L13184.9503,-3319.1666L13185.1807,-3319.3066L13185.2203,-3319.4L13185.3607,-3319.4866L13185.5392,-3319.5599L13185.6796,-3319.6331L13185.7697,-3319.6533L13185.8795,-3319.6865L13185.8994,-3319.7201L13185.8994,-3319.8132L13185.8795,-3319.8864L13185.8597,-3319.9532L13185.8597,-3320.013L13185.8597,-3320.1733L13185.8597,-3320.2465L13185.8795,-3320.2999L13185.8994,-3320.3331L13186.0199,-3320.4803L13186.1298,-3320.6932L13186.2,-3320.8401L13186.2701,-3320.9133L13186.2396,-3320.9866L13186.2396,-3321.0732L13186.29,-3321.1266L13186.3098,-3321.1266L13186.4304,-3321.18L13186.4304,-3321.2532L13186.47,-3321.3066L13186.5402,-3321.36L13186.6104,-3321.4001L13186.7203,-3321.413L13186.7706,-3321.4531L13186.8103,-3321.5401L13186.9003,-3321.6133L13187.0804,-3321.6534L13187.0804,-3321.74L13187.1094,-3321.8132L13187.1094,-3321.9398L13187.1506,-3322.0665L13187.2406,-3322.1733L13187.4252,-3322.2294L13187.4893,-3322.3331L13187.5595,-3322.4998L13187.5519,-3322.715L13187.5198,-3322.7665L13187.4496,-3322.7467L13187.3596,-3322.7467L13187.2406,-3322.8199L13187.1796,-3322.8931L13187.1994,-3323L13187.1307,-3323.04L13187.0804,-3323.0732L13186.9904,-3323.18L13186.9904,-3323.3799L13187.0193,-3323.5397L13187.1094,-3323.653L13187.1994,-3323.7064L13187.2406,-3323.7732L13187.3199,-3323.8182L13187.3749,-3323.8899L13187.3795,-3324.0131L13187.3093,-3324.1333L13187.2696,-3324.2264L13187.3306,-3324.3198L13187.3795,-3324.353L13187.3795,-3324.3866L13187.3093,-3324.44L13187.3093,-3324.5132L13187.3306,-3324.6063L13187.2406,-3324.7131L13187.0804,-3324.7665L13186.8805,-3324.7864L13186.7905,-3324.8199L13186.5799,-3324.8199L13186.3998,-3324.9466L13186.3602,-3324.9866L13186.29,-3325.0401L13186.1496,-3325.1266L13186.0397,-3325.1663L13185.7895,-3325.2533L13185.7697,-3325.3597L13185.6735,-3325.4528L13185.5194,-3325.4532L13185.2402,-3325.3998L13185.1303,-3325.2731L13184.9701,-3325.1465L13184.8602,-3325.1465L13184.7198,-3325.1064L13184.5795,-3325.053L13184.4696,-3325.0931L13184.3094,-3325.0931L13184.3307,-3324.9466L13184.2697,-3324.8932L13184.0805,-3324.7665L13183.8593,-3324.7463L13183.6304,-3324.6597L13183.4702,-3324.6399L13183.2703,-3324.6201L13183.1299,-3324.7334L13183.0399,-3324.7334L13182.8796,-3324.6399L13182.6492,-3324.6063L13182.4905,-3324.5331L13182.3593,-3324.5865L13182.2205,-3324.5331L13182.0602,-3324.5132L13181.9,-3324.4598L13181.81,-3324.4801L13181.2698,-3324.3198L13180.6305,-3324.0799L13180.3299,-3324.0799L13180.0797,-3324.0463L13179.6799,-3323.9532L13179.5593,-3324.0131L13179.4495,-3323.9933L13178.5599,-3323.8998L13177.8595,-3323.8331L13177.7893,-3323.7732L13177.6093,-3323.653L13177.5223,-3323.5622L13177.4307,-3323.4665L13177.15,-3323.5264L13176.8097,-3323.6134L13176.6296,-3323.56L13176.2695,-3323.4665L13175.9705,-3323.4333L13175.7706,-3323.4531L13175.7401,-3323.4531L13175.4303,-3323.4531L13175.1801,-3323.4531L13174.8795,-3323.4531"/>
<path content="AP030,1,28,1,0,16,1,8,JPN" xlink:title="AP030" d="M13177.3605,-3316.1732L13177.4506,-3316.0999L13177.6505,-3316.1198L13177.9495,-3316.0267L13178.3295,-3316.0267L13178.54,-3315.9397L13178.8605,-3315.8131L13179.0207,-3315.72L13179.0802,-3315.6666L13179.1107,-3315.5933"/>
<path content="AP030,1,28,1,0,15,1,8,JPN" xlink:title="AP030" d="M13169.5973,-3319.1192L13168.9529,-3318.4914L13168.4692,-3317.9741L13167.3691,-3316.9285L13165.4297,-3315.4003"/>
<path content="AP030,1,28,1,0,14,1,8,JPN" xlink:title="AP030" d="M13164.5187,-3316.2468L13164.5203,-3316.2464L13164.5401,-3316.2266L13164.8605,-3316.0667L13164.9307,-3316.0133L13165.0406,-3315.9397L13165.4297,-3315.4003"/>
<path content="AP030,1,28,1,0,16,1,4,JPN" xlink:title="AP030" d="M13171.1413,-3317.1625L13171.3656,-3316.2786L13171.7277,-3314.7429"/>
<path content="AP030,1,28,1,0,14,1,8,JPN" xlink:title="AP030" d="M13165.4297,-3315.4003L13165.5807,-3315.1264L13165.6494,-3314.9467L13165.6494,-3314.4997"/>
<path content="AP030,1,28,1,0,15,1,8,JPN" xlink:title="AP030" d="M13164.7598,-3314.2689L13165.6494,-3314.4997"/>
<path content="AP030,1,28,1,0,15,1,8,JPN" xlink:title="AP030" d="M13164.7598,-3314.2689L13164.1113,-3315.295L13164.0198,-3316.46"/>
<path content="AP030,1,28,1,0,15,1,8,JPN" xlink:title="AP030" d="M13170.9817,-3317.7264L13171.2901,-3317.6365L13171.6372,-3317.5858L13171.8613,-3317.514L13172.084,-3317.244L13172.2641,-3316.8587L13172.6212,-3316.3574L13172.7554,-3315.9332L13172.8439,-3315.3164L13172.4218,-3314.6668L13172.2641,-3314.0827L13172.3541,-3313.7741L13172.7997,-3313.6585"/>
<path content="AP030,1,28,1,0,15,1,8,JPN" xlink:title="AP030" d="M13177.3605,-3316.1732L13177.2202,-3315.7021L13176.9958,-3315.2779L13176.9073,-3314.7766L13176.9516,-3314.3139L13177.0859,-3313.8901L13177.0859,-3313.3888"/>
<path content="AP030,1,28,1,0,15,1,8,JPN" xlink:title="AP030" d="M13172.7997,-3313.6585L13173.4695,-3313.6971L13174.3622,-3314.0823L13174.8093,-3314.1598L13175.2106,-3314.0442L13175.6577,-3313.8901L13176.2833,-3313.8126L13176.5503,-3313.7741L13177.0859,-3313.3888"/>
<path content="AP030,1,28,1,0,14,1,8,JPN" xlink:title="AP030" d="M13179.1107,-3315.5933L13179.0207,-3315.5399L13178.9001,-3315.4865L13178.5599,-3315.3267L13178.1494,-3315.1466L13178.1097,-3315.1066L13177.9495,-3315.0532L13177.8793,-3314.9864L13177.8305,-3314.8598L13177.8595,-3314.5664L13177.8595,-3314.5L13177.7893,-3314.1933L13177.7405,-3313.953L13177.7695,-3313.7733L13177.8793,-3313.6665L13178.0807,-3313.5933L13178.2196,-3313.4865L13178.3096,-3313.3266L13178.2898,-3313.1664L13178.2394,-3312.9997"/>
<path content="AP030,1,28,1,0,15,1,8,JPN" xlink:title="AP030" d="M13177.0859,-3313.3888L13177.533,-3313.1958L13178.2394,-3312.9997"/>
<path content="AP030,1,28,1,0,15,1,8,JPN" xlink:title="AP030" d="M13172.5497,-3312.837L13172.7997,-3313.6585"/>
<path content="AP030,1,28,1,0,16,1,8,JPN" xlink:title="AP030" d="M13171.7277,-3314.7429L13172.0295,-3313.918L13172.4519,-3312.9407L13172.5497,-3312.837"/>
<path content="AP030,1,28,1,0,15,1,8,JPN" xlink:title="AP030" d="M13159.079,-3317.3462L13158.226,-3315.2721L13158.1009,-3314.555L13157.2647,-3313.5857L13156.8115,-3311.853"/>
<path content="AP030,1,28,1,0,14,1,8,JPN" xlink:title="AP030" d="M13178.2394,-3312.9997L13178.1097,-3312.5668L13178.0197,-3312.1933L13177.9907,-3311.8134"/>
<path content="AP030,1,28,1,0,15,1,8,JPN" xlink:title="AP030" d="M13177.0859,-3313.3888L13177.1317,-3313.0417L13177.1317,-3312.6945L13177.3544,-3312.1937L13177.9907,-3311.8134"/>
<path content="AP030,1,28,1,0,16,1,8,JPN" xlink:title="AP030" d="M13172.5497,-3312.837L13173.146,-3312.2046L13173.5081,-3311.9127L13173.8853,-3311.6589"/>
<path content="AP030,1,28,1,0,15,1,8,JPN" xlink:title="AP030" d="M13150.5188,-3319.8132L13150.4852,-3319.6865L13150.4013,-3319.3699L13149.295,-3318.7187L13148.6145,-3316.9399L13148.6664,-3316.4631L13148.6481,-3316.0088L13148.4375,-3315.8446"/>
<path content="AP030,1,28,1,0,15,1,8,JPN" xlink:title="AP030" d="M13172.2931,-3311.4304L13172.4207,-3312.4131L13172.5497,-3312.837"/>
<path content="AP030,1,28,1,0,15,1,8,JPN" xlink:title="AP030" d="M13183.5159,-3311.3453L13183.699,-3311.3541L13184.3231,-3311.3846L13184.9487,-3311.7313L13185.6796,-3312.1262L13185.936,-3312.5332L13187.3413,-3312.2513L13188.0753,-3312.048L13189.4104,-3312.4466"/>
<path content="AP030,1,28,1,0,15,1,8,JPN" xlink:title="AP030" d="M13156.8115,-3311.853L13157.6065,-3311.3476L13157.8766,-3311.34L13160.5392,-3311.5993L13162.0071,-3311.7111L13162.5885,-3311.9251L13162.6831,-3311.9888L13163.2141,-3311.7462L13163.4537,-3312.019L13163.9175,-3312.7052L13164.6942,-3313.2107L13164.7034,-3313.2175L13165.0284,-3313.6383L13164.7598,-3314.2689"/>
<path content="AP030,1,28,1,0,14,1,8,JPN" xlink:title="AP030" d="M13165.6494,-3314.4997L13165.6799,-3314.1933L13165.6998,-3314.08L13165.7196,-3313.9L13165.8798,-3313.3801L13165.8997,-3313.2L13165.5197,-3312.6598L13165.3595,-3312.2997L13165.2893,-3312.0132L13165.2893,-3311.8134L13165.5197,-3311.2869"/>
<path content="AP030,1,28,1,0,14,1,8,JPN" xlink:title="AP030" d="M13177.9907,-3311.8134L13178.1097,-3311.5799L13178.36,-3311.4132L13178.5797,-3311.3998L13178.7704,-3311.2865L13178.8101,-3311.2732"/>
<path content="AP030,1,28,1,0,15,1,8,JPN" xlink:title="AP030" d="M13165.5197,-3311.2869L13167.717,-3311.8149L13169.0811,-3311.446L13170.1202,-3311.2671L13171.286,-3311.3121L13172.2931,-3311.4304"/>
<path content="AP030,1,28,1,0,15,1,8,JPN" xlink:title="AP030" d="M13178.9307,-3311.1668L13179.1443,-3311.2438L13179.9988,-3311.4819L13180.3055,-3311.5273L13181.6849,-3311.731L13182.132,-3311.731L13182.5226,-3311.9335L13182.579,-3311.9621L13182.9361,-3311.9621L13183.1589,-3311.8851L13183.2489,-3311.808L13183.2489,-3311.7443L13183.2489,-3311.5379L13183.3374,-3311.4223L13183.5159,-3311.3453"/>
<path content="AP030,1,28,1,0,14,1,8,JPN" xlink:title="AP030" d="M13178.8101,-3311.2732L13178.9307,-3311.1668"/>
<path content="AP030,1,28,1,0,14,1,8,JPN" xlink:title="AP030" d="M13153.6102,-3316.28L13153.36,-3316.28L13153.2196,-3316.2464L13153.1494,-3316.2266L13152.6794,-3316.0999L13152.5406,-3316.0465L13152.24,-3315.9397L13151.9699,-3315.8131L13151.9302,-3315.7066L13151.9302,-3315.5266L13151.8097,-3315.3599L13151.7395,-3315.3065L13151.3992,-3315.1798L13151.1093,-3315.1066L13151.0406,-3315.0932L13151.0193,-3314.9998L13151.0193,-3314.8399L13150.9705,-3314.7465L13150.9705,-3314.7331L13150.9705,-3314.6065L13150.9705,-3314.5332L13150.9003,-3314.4798L13150.8301,-3314.4398L13150.65,-3314.32L13150.6104,-3314.2597L13150.3098,-3314.1933L13150.0793,-3314.0465L13149.9496,-3313.8664L13149.8306,-3313.7066L13149.6994,-3313.5265L13149.5407,-3313.0733L13149.2706,-3312.9265L13148.8998,-3312.7865L13148.7198,-3312.7132L13148.5596,-3312.6064L13148.4375,-3312.5424"/>
<path content="AP030,1,28,1,0,16,1,4,JPN" xlink:title="AP030" d="M13173.8853,-3311.6589L13174.8661,-3311.1512L13175.8317,-3310.7578"/>
<path content="AP030,1,28,1,0,14,1,8,JPN" xlink:title="AP030" d="M13178.9307,-3311.1668L13179.2007,-3311.0531L13179.6799,-3311.0733L13179.9301,-3311.1267L13180.1102,-3311.0397L13180.3299,-3310.873L13180.5603,-3310.7468L13180.7407,-3310.6163"/>
<path content="AP030,1,28,1,0,16,1,4,JPN" xlink:title="AP030" d="M13180.4544,-3310.6719L13180.7407,-3310.6163"/>
<path content="AP030,1,28,1,0,14,1,8,JPN" xlink:title="AP030" d="M13178.8101,-3311.2732L13178.1097,-3311.0001L13177.5192,-3310.7998L13177.4506,-3310.7666L13177.33,-3310.7132L13177.2903,-3310.68L13177.15,-3310.5534L13177.1103,-3310.4599"/>
<path content="AP030,1,28,1,0,16,1,8,JPN" xlink:title="AP030" d="M13175.8317,-3310.7578L13177.1088,-3310.4599L13177.1103,-3310.4599"/>
<path content="AP030,1,28,1,0,16,1,8,JPN" xlink:title="AP030" d="M13177.1103,-3310.4599L13178.1772,-3310.4039L13179.6535,-3310.6232L13180.4544,-3310.6719"/>
<path content="AP030,1,28,1,0,14,1,8,JPN" xlink:title="AP030" d="M13180.7407,-3310.6163L13180.9296,-3310.4797L13181.0196,-3310.3333L13181.1798,-3310.1933L13181.4697,-3309.9934"/>
<path content="AP030,1,28,1,0,14,1,8,JPN" xlink:title="AP030" d="M13175.5402,-3309.3597L13175.7706,-3309.2731L13176.8097,-3309.5798L13176.8997,-3309.6531L13176.9302,-3309.8999L13176.9501,-3310.12L13176.9897,-3310.26L13177.1103,-3310.4599"/>
<path content="AP030,1,28,1,0,14,1,8,JPN" xlink:title="AP030" d="M13173.8098,-3309.2197L13173.9304,-3309.2331L13174.2004,-3309.2533L13174.2706,-3309.3067L13174.5804,-3309.3998L13174.9298,-3309.5264L13175.0793,-3309.5798L13175.5402,-3309.3597"/>
<path content="AP030,1,28,1,0,15,1,8,JPN" xlink:title="AP030" d="M13172.2931,-3311.4304L13173.8098,-3309.2197"/>
<path content="AP030,1,28,1,0,16,1,4,JPN" xlink:title="AP030" d="M13180.7407,-3310.6163L13181.2071,-3310.5257L13181.8439,-3310.3064L13183.4244,-3309.1178"/>
<path content="AP030,1,28,1,0,14,1,4,JPN" xlink:title="AP030" d="M13181.4697,-3309.9934L13181.6299,-3309.6664L13182.0801,-3309.0199L13182.3303,-3308.7334"/>
<path content="AP030,1,28,1,0,14,1,8,JPN" xlink:title="AP030" d="M13165.5197,-3311.2869L13165.5197,-3311.2865L13165.5396,-3311.1797L13165.6296,-3310.9665L13165.0803,-3310.1532L13164.9902,-3309.9533L13165.0406,-3309.7198L13164.9307,-3309.4868L13164.8102,-3309.1801L13164.7202,-3309.1064L13164.1998,-3308.9466L13163.8992,-3308.68"/>
<path content="AP030,1,28,1,0,14,1,8,JPN" xlink:title="AP030" d="M13182.3303,-3308.7334L13182.4493,-3308.6399L13182.6797,-3308.6399L13182.8094,-3308.6399L13182.9697,-3308.6597L13183.2199,-3308.6933L13183.4,-3308.68L13183.5602,-3308.6067L13183.7692,-3308.353L13183.9706,-3308.0265L13183.9905,-3307.9933"/>
<path content="AP030,1,28,1,0,15,1,8,JPN" xlink:title="AP030" d="M13183.5159,-3311.3453L13183.5693,-3311.2289L13183.606,-3311.1526L13183.606,-3310.8826L13183.5999,-3310.7258L13183.7402,-3310.6514L13183.963,-3310.6129L13184.3201,-3310.6129L13184.3201,-3310.4973L13184.23,-3310.3428L13184.0973,-3310.1501L13184.0225,-3309.956L13184.0073,-3309.919L13184.1461,-3309.7286L13184.4543,-3309.5718L13184.9457,-3309.4563L13185.1242,-3309.3792L13185.0342,-3309.2632L13184.8557,-3309.1091L13184.5032,-3309.071L13184.4101,-3308.9935L13184.4101,-3308.8009L13184.4208,-3308.7887L13184.5886,-3308.6079L13184.9457,-3308.3767L13185.3607,-3307.8133"/>
<path content="AP030,1,28,1,0,16,1,8,JPN" xlink:title="AP030" d="M13183.4244,-3309.1178L13183.9454,-3308.6548L13184.2059,-3308.403L13184.3994,-3307.9533L13184.4561,-3307.7955"/>
<path content="AP030,1,28,1,0,14,1,8,JPN" xlink:title="AP030" d="M13183.9905,-3307.9933L13184.0393,-3307.9399L13184.2697,-3307.8331L13184.3597,-3307.8133L13184.4561,-3307.7955"/>
<path content="AP030,1,28,1,0,14,1,8,JPN" xlink:title="AP030" d="M13184.4561,-3307.7955L13184.4696,-3307.793L13184.5795,-3307.6866"/>
<path content="AP030,1,28,1,0,14,1,8,JPN" xlink:title="AP030" d="M13184.5795,-3307.6866L13184.8602,-3307.653L13185.2402,-3307.653L13185.3607,-3307.6332L13185.3607,-3307.7301L13185.3607,-3307.8133"/>
<path content="AP030,1,28,1,0,14,1,8,JPN" xlink:title="AP030" d="M13163.8992,-3308.68L13163.8992,-3308.5865L13163.9297,-3308.353L13163.6993,-3307.3997L13163.6993,-3307.3067L13163.7894,-3307.1999"/>
<path content="AP030,1,28,1,0,14,1,8,JPN" xlink:title="AP030" d="M13163.1805,-3306.9466L13163.4216,-3307.0469L13163.7894,-3307.1999"/>
<path content="AP030,1,28,1,0,16,1,8,JPN" xlink:title="AP030" d="M13184.4561,-3307.7955L13184.5821,-3307.4445L13184.5138,-3306.9432L13184.3704,-3306.6954"/>
<path content="AP030,1,28,1,0,14,1,8,JPN" xlink:title="AP030" d="M13185.3607,-3307.8133L13185.8994,-3307.6668L13186.1099,-3307.6134L13186.1496,-3307.5397L13186.3098,-3307.4867L13186.47,-3307.4665L13186.7203,-3307.4665L13186.8301,-3307.5268L13187.0804,-3307.6134L13187.2192,-3307.6866L13187.5198,-3307.6668L13187.7197,-3307.6134L13187.97,-3307.5066L13188.3804,-3307.2865L13188.7207,-3307.1667L13188.9297,-3307.093L13189.0198,-3307.1999L13188.9297,-3307.4532L13188.8306,-3307.5798L13188.6795,-3307.7198L13188.4003,-3307.8465L13188.3606,-3307.9201L13188.4705,-3307.9399L13188.4506,-3308.1532L13188.6093,-3308.1932L13188.7207,-3308.12L13188.7405,-3308.0467L13188.9297,-3307.9399L13189.0396,-3307.8865L13189.1098,-3307.7732L13189.2395,-3307.7198L13189.36,-3307.5397L13189.3799,-3307.4665L13189.6103,-3307.3265L13189.8102,-3307.3067L13189.9002,-3307.3067L13189.9704,-3307.3799L13190.1505,-3307.3601L13190.2206,-3307.2865L13190.1993,-3307.1999L13190.2695,-3307.1465L13190.6494,-3306.86L13191.1026,-3306.646L13191.2903,-3306.62L13191.5604,-3306.6067L13192.041,-3306.5754L13192.6147,-3306.5857L13192.6163,-3306.5857L13192.8311,-3306.6227"/>
<path content="AP030,1,28,1,0,15,1,8,JPN" xlink:title="AP030" d="M13184.5795,-3307.6866L13185.3897,-3306.5323"/>
<path content="AP030,1,28,1,0,16,1,4,JPN" xlink:title="AP030" d="M13184.3704,-3306.6954L13184.1473,-3306.3096L13184.009,-3305.8744"/>
<path content="AP030,1,28,1,0,14,1,8,JPN" xlink:title="AP030" d="M13192.8311,-3306.6227L13192.9306,-3306.6399L13193.0603,-3306.4598L13193.2693,-3306.1932L13193.4006,-3305.8865L13193.5196,-3305.6862"/>
<path content="AP030,1,28,1,0,14,1,8,JPN" xlink:title="AP030" d="M13173.8098,-3309.2197L13173.7396,-3309.1801L13173.3994,-3309.2197L13173.2193,-3309.1999L13173.1796,-3309.1465L13173.1293,-3309.1064L13173.0392,-3309L13172.9706,-3308.9268L13172.9004,-3308.8734L13172.8607,-3308.4801L13172.8607,-3308.353L13172.7005,-3308.2268L13172.6303,-3308.12L13172.6105,-3308.0467L13172.3999,-3307.9933L13172.2702,-3307.8999L13171.9299,-3307.5798L13171.6797,-3307.3997L13171.6095,-3307.3601L13171.5607,-3307.3067L13171.5195,-3307.18L13171.4905,-3307.093L13171.4493,-3307.04L13171.2402,-3306.9668L13171.1807,-3306.86L13171.1502,-3306.8398L13170.9503,-3306.62L13170.8298,-3306.4266L13170.7703,-3306.3198L13170.5795,-3306.2267L13170.3598,-3306.0265L13170.1492,-3305.8468L13169.9295,-3305.6667L13169.3802,-3305.5798L13169.1101,-3305.5401L13169.0201,-3305.4131L13168.8995,-3305.2532L13168.8095,-3305.1998"/>
<path content="AP030,1,28,1,0,14,1,8,JPN" xlink:title="AP030" d="M13163.7894,-3307.1999L13163.9297,-3307.0732L13164.0594,-3307.0198L13164.3295,-3307.04L13164.5203,-3307L13164.6805,-3307.0198L13164.9307,-3306.9466L13165.1993,-3306.9134L13165.5197,-3306.7867L13165.6097,-3306.6067L13165.6494,-3306.5666L13165.7898,-3306.5331L13165.9897,-3306.4598L13166.0797,-3306.3732L13166.1804,-3306.2798L13166.3803,-3306.2065L13166.8594,-3306.1932L13167.1799,-3306.1531L13167.2897,-3306.1199L13167.3599,-3306.0131L13167.4301,-3305.7934L13167.5797,-3305.6667L13167.7704,-3305.5931L13168.1503,-3305.5931L13168.3105,-3305.5931L13168.6798,-3305.5599L13168.7897,-3305.4867L13168.8095,-3305.1998"/>
<path content="AP030,1,28,1,0,15,1,8,JPN" xlink:title="AP030" d="M13192.8311,-3306.6227L13192.7811,-3307.291L13193.0511,-3307.3109L13193.4067,-3307.8087L13193.9911,-3307.0797L13194.6365,-3306.6032L13195.5078,-3306.5624L13196.3394,-3307.037L13196.286,-3306.5617L13196.3593,-3306.3522L13196.9437,-3306.089L13198.0576,-3306.176L13198.233,-3306.4465L13198.5107,-3306.7238L13199.6017,-3307.0175L13199.8627,-3306.9508L13200.2731,-3306.4232L13200.3677,-3306.0013L13200.1373,-3305.7701L13198.9197,-3305.7243L13198.5077,-3305.2654L13197.7798,-3304.9122L13196.4523,-3304.9438L13195.9625,-3305.2513L13195.3384,-3305.3772L13194.9524,-3305.1773L13193.5196,-3305.6862"/>
<path content="AP030,1,28,1,0,15,1,8,JPN" xlink:title="AP030" d="M13185.3897,-3306.5323L13184.5078,-3305.2235L13184.2158,-3304.7021"/>
<path content="AP030,1,28,1,0,16,1,8,JPN" xlink:title="AP030" d="M13184.009,-3305.8744L13183.964,-3305.7329L13184.0122,-3305.3511L13184.0412,-3304.945L13184.2158,-3304.7021"/>
<path content="AP030,1,28,1,0,16,1,8,JPN" xlink:title="AP030" d="M13184.2158,-3304.7021L13184.2263,-3304.6875"/>
<path content="AP030,1,28,1,0,15,1,8,JPN" xlink:title="AP030" d="M13156.8115,-3311.853L13156.0928,-3311.6566L13155.7999,-3311.2663L13155.5817,-3310.1742L13155.0751,-3309.5695L13154.4144,-3309.7736L13152.5925,-3308.276L13152.3956,-3307.2987L13151.9501,-3306.1325L13151.1692,-3304.6875"/>
<path content="AP030,1,28,1,0,15,1,8,JPN" xlink:title="AP030" d="M13177.1878,-3304.6875L13177.2797,-3304.7291L13177.284,-3304.6875M13178.3048,-3304.6875L13178.4409,-3304.8157L13178.7277,-3305.4802L13178.7018,-3306.2073L13180.2567,-3306.9233L13182.2525,-3307.8007L13183.1802,-3307.6981L13183.9905,-3307.9933"/>
<path content="AP030,1,28,1,0,15,1,8,JPN" xlink:title="AP030" d="M13175.5402,-3309.3597L13175.2716,-3308.3096L13175.4868,-3307.7251L13175.0626,-3306.9218L13174.501,-3306.451L13174.4904,-3306.0642L13175.1175,-3305.4253L13175.2365,-3304.7909L13175.3405,-3304.6875"/>
<path content="AP030,1,28,1,0,14,1,8,JPN" xlink:title="AP030" d="M13159.5495,-3304.6875L13159.6802,-3304.8199L13159.8602,-3304.8733L13160.1105,-3304.8733L13160.4904,-3304.9866L13160.7407,-3304.9667L13160.8307,-3304.9667L13160.9497,-3305.04L13161.2,-3305.1266L13161.3098,-3305.22L13161.6302,-3305.36L13161.6501,-3305.5401L13161.7905,-3305.6866L13161.8607,-3305.74L13161.9003,-3305.8998L13161.9293,-3306.0467L13161.9507,-3306.0799L13162.0804,-3306.0665L13162.1796,-3306.1733L13162.0407,-3306.3534L13162.0605,-3306.4068L13162.2192,-3306.4068L13162.3993,-3306.3866L13162.6495,-3306.3866L13162.7396,-3306.44L13162.7701,-3306.5666L13162.6801,-3306.8398L13162.6801,-3306.9267L13162.7396,-3307L13162.97,-3307.0534L13163.0798,-3307.0198L13163.1805,-3306.9466"/>
<path content="AP030,1,28,1,0,14,1,8,JPN" xlink:title="AP030" d="M13163.8992,-3308.68L13163.2249,-3308.5429L13162.6672,-3308.3398L13162.12,-3308L13161.73,-3307.57L13161.31,-3306.989L13160.75,-3306.405L13160.21,-3305.944L13159.71,-3305.659L13159.31,-3305.479L13158.73,-3305.249L13158.53,-3305.083L13158.44,-3304.882L13158.44,-3304.6875"/>
<path content="AP030,1,28,1,0,15,1,8,JPN" xlink:title="AP030" d="M13148.4375,-3308.5753L13148.8586,-3307.9891L13148.8586,-3307.6778L13148.5931,-3307.346L13149.5285,-3307.0786L13149.617,-3306.5762L13149.7391,-3306.076L13150.2808,-3305.4104L13150.2426,-3304.8412L13150.2354,-3304.6875"/>
<path content="AP030,1,28,1,0,14,1,8,JPN" xlink:title="AP030" d="M13168.8095,-3305.1998L13168.8095,-3305.1666L13168.8095,-3304.9999L13169.0201,-3304.7466L13169.0581,-3304.6875"/>
<path content="AP030,1,28,1,0,15,1,8,JPN" xlink:title="AP030" d="M13185.3897,-3306.5323L13186.0855,-3305.7259L13186.4883,-3305.2841L13186.7203,-3305.0011L13186.5448,-3304.731L13186.4876,-3304.6875"/>
<path content="AP030,1,28,1,0,15,1,8,JPN" xlink:title="AP030" d="M13184.2158,-3304.7021L13184.2076,-3304.6875"/>
<path content="AP030,1,28,1,0,14,1,8,JPN" xlink:title="AP030" d="M13163.1805,-3306.9466L13163.3301,-3306.7867L13163.4506,-3306.5865L13163.5193,-3306.3332L13163.5406,-3306.0265L13163.5971,-3305.751L13163.6093,-3305.6866L13163.6307,-3305.6133L13163.6505,-3305.5267L13163.7207,-3305.2868L13163.7695,-3305.22L13163.9297,-3305.0533L13164.0396,-3304.9267L13164.0396,-3304.7131L13164.0308,-3304.6875"/>
<path content="AP030,1,28,1,0,14,1,8,JPN" xlink:title="AP030" d="M13193.5196,-3305.6862L13193.4006,-3305.5065L13193.2404,-3305.4001L13193.2007,-3305.3799L13193.0603,-3305.3467L13192.8604,-3305.3265L13192.7704,-3305.2334L13192.63,-3304.9866L13192.5201,-3304.7131L13192.4954,-3304.6875"/>
</g>
</svg>
