<?xml version="1.0" encoding="UTF-8"?>
<svg  xmlns="http://www.w3.org/2000/svg" xmlns:xlink="http://www.w3.org/1999/xlink" xmlns:go="http://purl.org/svgmap/profile" property="f_code,acc,exs,rst,med,rtt,RSU,loc,soc" viewBox="13605.46875 -3480.46875 35.15625 35.15625" go:dataArea="13605.46875 -3480.46875 35.15625 35.15625" >
<metadata>
 <rdf:RDF xmlns:rdf="http://www.w3.org/1999/02/22-rdf-syntax-ns#" xmlns:crs="http://opengis.org/xmldtds/transformations.dtd" xmlns:svg="http://www.w3.org/svg" >
  <rdf:Description>
   <crs:CoordinateReferenceSystem rdf:resource="http://purl.org/crs/84" svg:transform="matrix(100.0,0.0,0.0,-100.0,0.0,0.0)" />
  </rdf:Description>
 </rdf:RDF>
</metadata>
<globalCoordinateSystem srsName="http://purl.org/crs/84" transform="matrix(100.0,0.0,0.0,-100.0,0.0,0.0)" />
<defs>
 <g id="p0" >
  <circle cx="0.0" cy="0.0" r="3" stroke="green" stroke-width="2.0" vector-effect="non-scaling-stroke" />
 </g>
</defs>
<g fill="none" fill-rule="evenodd" stroke="#00ff00" stroke-width="2" opacity="0.5" vector-effect="non-scaling-stroke" stroke-linejoin="bevel" >
<path content="AP030,1,28,1,0,14,1,8,JPN" xlink:title="AP030" d="M13616.5604,-3479.94L13616.5802,-3479.9534L13616.7404,-3479.9934L13616.9495,-3480.1201L13617.3294,-3480.3532L13617.45,-3480.4066L13617.72,-3480.4268L13617.7756,-3480.4688"/>
<path content="AP030,1,28,1,0,15,1,8,JPN" xlink:title="AP030" d="M13616.7901,-3480.4688L13616.5604,-3479.94"/>
<path content="AP030,1,28,1,0,16,1,8,JPN" xlink:title="AP030" d="M13617.8101,-3479.76L13618.7195,-3480.2265L13619.0796,-3480.4268L13619.1523,-3480.4688"/>
<path content="AP030,1,28,1,0,15,1,8,JPN" xlink:title="AP030" d="M13618.0217,-3480.4688L13617.8101,-3479.76"/>
<path content="AP030,1,28,1,0,16,1,8,JPN" xlink:title="AP030" d="M13617.8101,-3479.76L13616.9693,-3479.4533L13616.4001,-3479.1664L13616.2201,-3479.0199L13616.1102,-3478.8597L13616.04,-3478.6064L13615.8295,-3478.0266L13615.77,-3477.5398L13615.7394,-3477.3464L13615.7196,-3477.0931"/>
<path content="AP030,1,28,1,0,15,1,8,JPN" xlink:title="AP030" d="M13632.2205,-3476.9867L13633.0109,-3477.5612L13634.2484,-3478.2593L13634.7366,-3478.9288L13635.0998,-3479.8103L13635.7452,-3480.3619L13635.7938,-3480.4688M13637.2963,-3480.4688L13637.3566,-3480.4234L13638.2614,-3480.3646L13638.7122,-3480.4688"/>
<path content="AP030,1,28,1,0,14,1,8,JPN" xlink:title="AP030" d="M13613.6993,-3476.6598L13613.8794,-3476.68L13614.0396,-3476.7666L13614.1296,-3476.82L13614.36,-3476.9665L13614.7202,-3477.0931L13614.9704,-3477.0535L13615.5396,-3477.0535L13615.7196,-3477.0931"/>
<path content="AP030,1,28,1,0,14,1,8,JPN" xlink:title="AP030" d="M13616.5604,-3479.94L13616.3803,-3479.8664L13616.2399,-3479.7733L13615.9897,-3479.5933L13615.7898,-3479.4533L13614.8804,-3479.1466L13614.2899,-3478.9131L13614.1495,-3477.9732L13614.1495,-3477.9198L13613.9694,-3477.5265L13613.8794,-3477.2865L13613.6993,-3477.0199L13613.6993,-3476.8932L13613.6993,-3476.6598"/>
<path content="AP030,1,28,1,0,14,1,8,JPN" xlink:title="AP030" d="M13613.1805,-3476.5865L13613.5422,-3476.6376L13613.6993,-3476.6598"/>
<path content="AP030,1,28,1,0,14,1,8,JPN" xlink:title="AP030" d="M13612.9501,-3480.4688L13612.9501,-3480.3734L13612.9303,-3480.32L13612.8601,-3480.2998L13612.6495,-3480.3734L13612.5793,-3480.3734L13612.5595,-3480.32L13612.6801,-3480.08L13612.6495,-3480.0266L13612.5595,-3479.8466L13612.5198,-3479.7398L13612.5397,-3479.7066L13612.6999,-3479.7398L13612.7396,-3479.7199L13612.7701,-3479.6532L13612.7197,-3479.1798L13612.6999,-3479.0398L13612.6907,-3478.923L13612.6801,-3478.7865L13612.3306,-3478.7132L13612.3596,-3478.1734L13612.97,-3477.7931L13612.9898,-3477.56L13612.9898,-3477.2198L13613.15,-3477.0199L13613.15,-3476.8734L13613.1638,-3476.7445L13613.1805,-3476.5865"/>
<path content="AP030,1,28,1,0,14,1,8,JPN" xlink:title="AP030" d="M13612.2894,-3476.4797L13612.3306,-3476.4797L13612.5397,-3476.4999L13612.8296,-3476.5331L13613.1805,-3476.5865"/>
<path content="AP030,1,28,1,0,15,1,8,JPN" xlink:title="AP030" d="M13620.2599,-3480.4688L13620.2957,-3480.109L13621.3715,-3479.491L13621.8185,-3478.6839L13621.6568,-3478.0174L13621.7514,-3477.0638L13621.8597,-3476.3733"/>
<path content="AP030,1,28,1,0,14,1,8,JPN" xlink:title="AP030" d="M13615.7196,-3477.0931L13615.95,-3477.1267L13616.2704,-3477.2198L13616.2704,-3477.3266L13616.2704,-3477.3598L13616.33,-3477.4666L13616.3803,-3477.5066L13616.7694,-3477.5066L13616.9693,-3477.4666L13617.3096,-3477.5398L13617.3996,-3477.56L13617.4896,-3477.6134L13617.6804,-3477.8866L13617.7399,-3477.9533L13617.9703,-3477.9533L13618.0603,-3477.8999L13618.1793,-3477.7733L13618.2907,-3477.7599L13618.4906,-3477.8133L13618.6295,-3477.7931L13618.8293,-3477.7599L13619.3802,-3477.6531L13619.4504,-3477.6333L13619.6106,-3477.5799L13619.7205,-3477.4334L13619.9707,-3477L13620.43,-3476.82L13620.7001,-3476.7998L13620.9,-3476.7467L13621.0403,-3476.7132L13621.2204,-3476.5865L13621.4493,-3476.44L13621.6293,-3476.3866L13621.8597,-3476.3733"/>
<path content="AP030,1,28,1,0,14,1,8,JPN" xlink:title="AP030" d="M13605.4688,-3476.6726L13605.4901,-3476.6933L13605.6793,-3476.86L13605.7205,-3476.86L13605.8594,-3476.7998L13605.9494,-3476.7864L13605.9906,-3476.7864L13606.1295,-3476.8398L13606.1493,-3476.8734L13606.2897,-3477.0931L13606.3995,-3477.1797L13607.0602,-3477.2331L13607.2906,-3477.1267L13607.5607,-3477.0535L13607.6797,-3476.9466L13607.7194,-3476.8398L13607.7896,-3476.5667L13607.8598,-3476.5133L13608.1497,-3476.3866L13608.4305,-3476.1333L13608.7006,-3475.9533"/>
<path content="AP030,1,28,1,0,14,1,8,JPN" xlink:title="AP030" d="M13605.4688,-3476.0586L13605.5206,-3476.0468L13606.0593,-3475.9933L13608.7006,-3475.9533"/>
<path content="AP030,1,28,1,0,14,1,8,JPN" xlink:title="AP030" d="M13608.7006,-3475.9533L13608.8593,-3475.9399L13609.0805,-3475.9399L13609.4299,-3475.9731L13609.8099,-3476.3535L13610.3806,-3476.5667L13610.7193,-3477.0199L13611.4304,-3477.3266L13611.4899,-3477.3464L13612.0804,-3477.4864L13612.1307,-3477.483L13612.3596,-3477.4666L13612.3596,-3477.2198L13612.2894,-3476.9466L13612.2894,-3476.7864L13612.2894,-3476.6666L13612.2894,-3476.4797"/>
<path content="AP030,1,28,1,0,14,1,8,JPN" xlink:title="AP030" d="M13613.1805,-3476.5865L13613.2004,-3476.3535L13613.2004,-3476.1734L13613.2202,-3475.8999"/>
<path content="AP030,1,28,1,0,14,1,8,JPN" xlink:title="AP030" d="M13613.2202,-3475.8999L13613.2401,-3475.6332"/>
<path content="AP030,1,28,1,0,14,1,8,JPN" xlink:title="AP030" d="M13612.2894,-3476.4797L13612.3795,-3476.0265L13612.3596,-3475.6134"/>
<path content="AP030,1,28,1,0,14,1,8,JPN" xlink:title="AP030" d="M13612.3596,-3475.6134L13612.6297,-3475.6134L13612.6999,-3475.6134L13613.2401,-3475.6332"/>
<path content="AP030,1,28,1,0,16,1,8,JPN" xlink:title="AP030" d="M13614.4699,-3475.2731L13614.7003,-3475.4333L13614.74,-3475.4665L13615.1794,-3475.8865L13615.4694,-3476.2798L13615.6494,-3476.6399L13615.7196,-3476.9466L13615.7196,-3477.0931"/>
<path content="AP030,1,28,1,0,15,1,8,JPN" xlink:title="AP030" d="M13613.2202,-3475.8999L13613.5498,-3475.843L13614.1495,-3475.7389L13614.4699,-3475.2731"/>
<path content="AP030,1,28,1,0,14,1,8,JPN" xlink:title="AP030" d="M13613.2401,-3475.6332L13613.2904,-3475.1667"/>
<path content="AP030,1,28,1,0,16,1,8,JPN" xlink:title="AP030" d="M13613.2904,-3475.1667L13613.6459,-3475.156L13613.9694,-3475.1465L13614.27,-3475.1801L13614.4699,-3475.2731"/>
<path content="AP030,1,28,1,0,14,1,8,JPN" xlink:title="AP030" d="M13621.8597,-3476.3733L13621.9498,-3476.3733L13622.2397,-3476.3199L13622.3602,-3476.2798L13622.6501,-3476.0265L13622.7203,-3475.8133L13622.8104,-3475.5264L13622.8806,-3475.1801L13622.9706,-3475.0732L13623.1293,-3475.0198L13623.4497,-3475.1266L13623.79,-3475.1266L13624.2004,-3475.1064"/>
<path content="AP030,1,28,1,0,16,1,8,JPN" xlink:title="AP030" d="M13612.2894,-3474.7868L13612.6099,-3475.0401L13612.9501,-3475.1667L13613.2706,-3475.1667L13613.2904,-3475.1667"/>
<path content="AP030,1,28,1,0,14,1,8,JPN" xlink:title="AP030" d="M13612.3596,-3475.6134L13612.2894,-3474.7868"/>
<path content="AP030,1,28,1,0,14,1,8,JPN" xlink:title="AP030" d="M13624.2004,-3475.1064L13624.3805,-3475.0935L13624.6994,-3474.9466L13624.9893,-3474.8734L13625.1495,-3474.6067L13625.2899,-3474.6067L13625.3601,-3474.6399L13625.3799,-3474.7997L13625.4501,-3474.8199L13625.5203,-3474.7868L13625.6805,-3474.6597L13625.7706,-3474.6399L13625.7904,-3474.6799L13625.8102,-3474.7467L13625.6302,-3474.9466L13625.6104,-3475.0732L13625.65,-3475.2533L13626.1307,-3475.8865L13626.5793,-3476.0666L13626.8997,-3476.26L13627.0599,-3476.3733L13627.33,-3476.5331L13627.8595,-3476.6068L13628.3096,-3476.6598L13628.4302,-3476.7467L13628.6102,-3476.9466L13628.83,-3477.0931L13628.9902,-3477.0199L13629.1107,-3477L13629.2694,-3477L13629.4693,-3477.1465L13629.7699,-3477.1999L13629.9301,-3477.1667L13630.3101,-3477.2331L13630.4001,-3477.2533L13630.9296,-3477.1465L13631.0806,-3477.1267L13631.6101,-3477.1267L13631.7902,-3476.9867L13631.8604,-3476.9665L13631.9901,-3477L13632.0801,-3476.9665L13632.2205,-3476.9867"/>
<path content="AP030,1,28,1,0,15,1,8,JPN" xlink:title="AP030" d="M13620.9015,-3473.7957L13621.4111,-3473.9479L13621.5454,-3474.4152L13621.759,-3475.5459L13621.8597,-3476.3733"/>
<path content="AP030,1,28,1,0,15,1,8,JPN" xlink:title="AP030" d="M13614.4699,-3475.2731L13615.715,-3474.9763L13618.0496,-3474.7063L13619.0018,-3474.1497L13619.9799,-3473.8255L13620.9015,-3473.7957"/>
<path content="AP030,1,28,1,0,14,1,8,JPN" xlink:title="AP030" d="M13632.2205,-3476.9867L13632.2906,-3477L13632.3807,-3477L13632.4295,-3476.9466L13632.4005,-3476.8398L13632.3303,-3476.7864L13632.2693,-3476.7467L13632.2693,-3476.5865L13632.3303,-3476.4065L13632.5195,-3476.2798L13632.6492,-3476.1532L13632.8094,-3476.0265L13632.8293,-3475.8865L13632.8094,-3475.8331L13632.6996,-3475.8331L13632.6294,-3475.7732L13632.6492,-3475.6866L13632.7393,-3475.6535L13633.1497,-3475.7401L13633.3298,-3475.8865L13633.5602,-3475.8999L13633.6807,-3475.9399L13633.9005,-3475.8331L13634.0393,-3475.8133L13634.0805,-3475.7732L13634.1995,-3475.6535L13634.3307,-3475.5932L13634.7198,-3475.4665L13634.8801,-3475.4665L13634.9304,-3475.4333L13634.8297,-3475.2533L13634.8801,-3475.2197L13635.0601,-3475.2197L13635.1501,-3475.1801L13635.2707,-3475.1667L13635.3806,-3475.0401L13635.5392,-3475.0198L13635.6094,-3474.9268L13635.6506,-3474.8398L13635.8994,-3474.5865L13635.9695,-3474.5335L13635.9497,-3474.3732L13635.9695,-3474.3L13636.1801,-3474.1199L13636.38,-3473.9399L13636.47,-3473.8998L13636.7004,-3473.8865L13636.8301,-3473.8335L13636.9904,-3473.7198L13637.0605,-3473.6534L13637.1307,-3473.4333L13637.2696,-3473.3067"/>
<path content="AP030,1,28,1,0,14,1,8,JPN" xlink:title="AP030" d="M13612.3596,-3475.6134L13612.1796,-3475.5798L13611.9904,-3475.3799L13611.9705,-3475.2731L13611.9003,-3475.2197L13611.8301,-3475.1667L13611.5204,-3475.1667L13611.47,-3475.0534L13611.4502,-3474.86L13611.2198,-3474.6399L13611.1298,-3474.4598L13611.0794,-3474.2798L13610.9497,-3474.1734L13610.7697,-3474.0131L13610.6293,-3473.8998L13610.4706,-3473.8865L13610.3806,-3473.7732L13610.2005,-3473.7064L13610.0403,-3473.6534L13609.8801,-3473.5397L13609.6802,-3473.3601L13609.52,-3473.2735L13609.3597,-3473.0732L13608.8806,-3472.8733L13608.6807,-3472.86L13608.5602,-3472.8001L13608.3298,-3472.5864L13608.2703,-3472.5666L13608.11,-3472.44L13608.0795,-3472.3534L13607.9895,-3472.1931L13607.93,-3472.0798"/>
<path content="AP030,1,28,1,0,15,1,8,JPN" xlink:title="AP030" d="M13640.625,-3475.6294L13639.7461,-3474.8657L13639.2044,-3474.3114L13639.1373,-3473.4241L13639.18,-3471.9734"/>
<path content="AP030,1,28,1,0,14,1,8,JPN" xlink:title="AP030" d="M13637.2696,-3473.3067L13637.4893,-3473.3265L13637.5793,-3473.3067L13637.8296,-3473.0732L13638.0203,-3472.9465L13638.15,-3472.8733L13638.2202,-3472.8199L13638.3102,-3472.5864L13638.5803,-3472.3534L13638.8306,-3472.3534L13638.9496,-3472.3198L13639.0198,-3472.2466L13639.0198,-3472.0467L13639.18,-3471.9734"/>
<path content="AP030,1,28,1,0,14,1,8,JPN" xlink:title="AP030" d="M13639.18,-3471.9734L13639.3295,-3471.8468L13639.4699,-3471.7731L13639.4897,-3471.7598L13639.9902,-3471.2734"/>
<path content="AP030,1,28,1,0,14,1,8,JPN" xlink:title="AP030" d="M13607.1793,-3470.6932L13607.2006,-3470.7333L13607.3593,-3471.0533L13607.3807,-3471.2334L13607.5806,-3471.4001L13607.6294,-3471.5267L13607.6797,-3471.8666L13607.7393,-3471.9398L13607.93,-3472.0798"/>
<path content="AP030,1,28,1,0,14,1,8,JPN" xlink:title="AP030" d="M13612.2894,-3474.7868L13612.2406,-3474.4267L13612.1994,-3474.0265L13612.1506,-3473.2201L13612.1796,-3473.1998L13612.1094,-3472.6601L13612.0605,-3472.2466L13612.0605,-3472.2065L13611.9904,-3471.7934L13611.9904,-3471.6866L13612.0193,-3471.5065L13611.8301,-3471.2334L13611.5402,-3470.6398"/>
<path content="AP030,1,28,1,0,14,1,8,JPN" xlink:title="AP030" d="M13639.9902,-3471.2734L13640.2893,-3470.9866L13640.5396,-3470.8733L13640.625,-3470.8628"/>
<path content="AP030,1,28,1,0,16,1,8,JPN" xlink:title="AP030" d="M13612.2894,-3474.7868L13612.1994,-3474.7334L13612.0407,-3474.5667L13611.4304,-3474.0467L13611.1099,-3473.8464L13611.0397,-3473.7934L13610.4706,-3473.5397L13610.2203,-3473.3997L13609.6497,-3472.9668L13609.2697,-3472.6601L13608.8303,-3472.4598L13608.5205,-3472.2599L13608.49,-3472.2466L13608.3801,-3472.1535L13608.2703,-3472.0264L13607.9697,-3471.4333L13607.6294,-3470.6066L13607.5806,-3470.5532"/>
<path content="AP030,1,28,1,0,15,1,8,JPN" xlink:title="AP030" d="M13607.1793,-3470.6932L13607.5806,-3470.5532"/>
<path content="AP030,1,28,1,0,15,1,8,JPN" xlink:title="AP030" d="M13615.7394,-3470.2801L13615.9363,-3470.2816L13616.4276,-3470.285L13617.9794,-3470.4128L13619.2657,-3470.9587L13620.0012,-3471.384L13621.0037,-3471.3245L13621.5378,-3471.7747L13621.6995,-3472.4411L13621.0831,-3473.407L13620.9015,-3473.7957"/>
<path content="AP030,1,28,1,0,14,1,8,JPN" xlink:title="AP030" d="M13613.2904,-3475.1667L13613.2904,-3475.0198L13613.3301,-3474.7334L13613.4003,-3474.6399L13613.5803,-3474.5533L13613.7146,-3474.5052L13613.8992,-3474.44L13613.9496,-3474.4064L13614.0198,-3474.3332L13614.0594,-3474.2466L13614.0594,-3474.0799L13613.9694,-3473.8464L13614.0198,-3473.7198L13614.1098,-3473.56L13614.3097,-3473.5268L13614.5401,-3473.3467L13614.83,-3472.8001L13614.888,-3472.662L13615.0803,-3472.2065L13615.2405,-3471.74L13615.3793,-3471.3799L13615.4007,-3471.2334L13615.4007,-3471.1067L13615.4297,-3470.7664L13615.7394,-3470.2801"/>
<path content="AP030,1,28,1,0,15,1,8,JPN" xlink:title="AP030" d="M13639.2731,-3470.2076L13639.476,-3470.5959L13639.9902,-3471.2734"/>
<path content="AP030,1,28,1,0,15,1,8,JPN" xlink:title="AP030" d="M13605.4688,-3471.4477L13605.6686,-3471.5385L13606.3461,-3472.0932L13606.8207,-3472.3705L13607.2937,-3472.3705L13607.93,-3472.0798"/>
<path content="AP030,1,28,1,0,16,1,8,JPN" xlink:title="AP030" d="M13606.0806,-3469.4668L13606.4896,-3469.8997L13606.7001,-3470.1L13606.8802,-3470.2065L13607.0602,-3470.2801L13607.3303,-3470.3533L13607.4905,-3470.4597L13607.5806,-3470.5532"/>
<path content="AP030,1,28,1,0,14,1,8,JPN" xlink:title="AP030" d="M13607.1793,-3470.6932L13607.0206,-3470.6066L13606.8604,-3470.4998L13606.4301,-3470.48L13606.0196,-3470.3335L13605.9692,-3470.2999L13605.9692,-3469.9532L13605.9692,-3469.8467L13605.9692,-3469.7735L13605.9906,-3469.5599L13606.0806,-3469.4668"/>
<path content="AP030,1,28,1,0,14,1,8,JPN" xlink:title="AP030" d="M13611.5402,-3470.6398L13611.5402,-3470.4597L13611.47,-3470.2801L13611.4899,-3470.1534L13611.4899,-3469.9734L13611.5402,-3469.36L13611.5402,-3469.3268"/>
<path content="AP030,1,28,1,0,15,1,8,JPN" xlink:title="AP030" d="M13610.9319,-3469.3048L13611.5402,-3469.3268"/>
<path content="AP030,1,28,1,0,14,1,8,JPN" xlink:title="AP030" d="M13611.5402,-3470.6398L13611.2422,-3470.2816L13611.0861,-3469.9841L13610.9319,-3469.3048"/>
<path content="AP030,1,28,1,0,15,1,8,JPN" xlink:title="AP030" d="M13607.5806,-3470.5532L13609.137,-3470.5872L13609.5459,-3470.4384L13610.0967,-3469.8997L13610.6125,-3469.2932L13610.9319,-3469.3048"/>
<path content="AP030,1,28,1,0,14,1,8,JPN" xlink:title="AP030" d="M13606.0806,-3468.4601L13606.2698,-3468.5867L13606.3995,-3468.6798L13606.4896,-3468.7466L13606.5399,-3468.8L13606.4896,-3468.8732L13606.3095,-3468.9465L13606.2897,-3469.1265L13606.1493,-3469.2333L13606.1295,-3469.4L13606.0806,-3469.4668"/>
<path content="AP030,1,28,1,0,15,1,8,JPN" xlink:title="AP030" d="M13624.2004,-3475.1064L13624.202,-3474.0906L13624.5117,-3473.5744L13625.3403,-3473.0789L13625.6943,-3472.4655L13625.0839,-3471.9795L13624.881,-3471.3116L13624.3637,-3470.5982L13623.4482,-3470.5296L13621.553,-3469.4317L13621.4279,-3468.8328L13620.8847,-3468.3594L13620.61,-3468.1198"/>
<path content="AP030,1,28,1,0,16,1,8,JPN" xlink:title="AP030" d="M13605.4688,-3469.1618L13605.6503,-3469.2333L13606.0593,-3469.4534L13606.0806,-3469.4668"/>
<path content="AP030,1,28,1,0,15,1,8,JPN" xlink:title="AP030" d="M13639.2731,-3470.2076L13640.625,-3469.3078"/>
<path content="AP030,1,28,1,0,15,1,8,JPN" xlink:title="AP030" d="M13626.6296,-3466.8934L13626.5549,-3467.6437L13626.5396,-3467.6514L13626.2466,-3467.7868L13626.239,-3468.5921L13626.3733,-3468.8759L13626.9165,-3468.5562L13627.6077,-3468.924L13628.1097,-3469.3462L13629.1,-3471.0579L13629.8218,-3471.5508L13630.3482,-3472.1909L13630.8655,-3472.3347L13631.5521,-3472.1443L13632.4875,-3472.2115L13633.9264,-3472.6383L13634.6771,-3472.636L13636.203,-3472.8806L13637.2696,-3473.3067"/>
<path content="AP030,1,28,1,0,14,1,8,JPN" xlink:title="AP030" d="M13617.3798,-3466.8732L13617.54,-3466.9865L13617.8802,-3467.1467L13618.0405,-3467.2001L13618.0801,-3467.2199L13618.4006,-3467.2531L13618.8797,-3467.4332L13618.9896,-3467.4534L13619.2703,-3467.4534L13619.6793,-3467.6533L13620.0195,-3467.6865L13620.1096,-3467.8467L13620.3094,-3467.9932L13620.61,-3468.1198"/>
<path content="AP030,1,28,1,0,14,1,8,JPN" xlink:title="AP030" d="M13615.7394,-3470.2801L13615.77,-3470.1935L13615.77,-3470.0466L13615.8798,-3469.8666L13615.9302,-3469.7201L13615.86,-3469.4134L13615.7898,-3469.3066L13615.5594,-3469.1666L13615.4007,-3468.9999L13615.2405,-3468.7866L13615.2206,-3468.7332L13615.2206,-3468.3735L13615.3595,-3468.1332L13615.4007,-3467.9932L13615.5807,-3467.7601L13615.6799,-3467.5934L13615.77,-3467.5598L13615.9851,-3467.5426L13616.0202,-3467.54L13616.1102,-3467.54L13616.1499,-3467.4866L13616.1804,-3467.2867L13616.2704,-3467.2333L13616.7404,-3467.3065L13616.8304,-3467.2733L13617.0853,-3467.1066L13617.2699,-3466.9865L13617.3798,-3466.8732"/>
<path content="AP030,1,28,1,0,14,1,8,JPN" xlink:title="AP030" d="M13620.61,-3468.1198L13620.6802,-3468.1198L13620.8603,-3468.0267L13620.99,-3467.9199L13621.2006,-3467.7734L13621.3806,-3467.7601L13621.7407,-3467.8131L13621.8307,-3467.7933L13621.9299,-3467.6533L13621.9894,-3467.6533L13622.2702,-3467.6865L13622.5601,-3467.72L13622.8607,-3467.7933L13622.934,-3467.8246L13623.1094,-3467.9001L13623.3093,-3467.9001L13623.7701,-3467.7601L13623.8998,-3467.6533L13623.9471,-3467.6132L13624.3103,-3467.3065L13624.4507,-3467.2199L13624.6994,-3467.1799L13625.1495,-3467.2001L13625.2899,-3467.1665L13625.3296,-3467.0933L13625.3601,-3466.9865L13625.3998,-3466.8732L13625.5203,-3466.84L13625.7706,-3466.8598L13625.8606,-3466.9865L13625.9705,-3467.0532L13626.2894,-3467.0532L13626.3596,-3466.9865L13626.4694,-3466.8732L13626.6296,-3466.8934"/>
<path content="AP030,1,28,1,0,15,1,8,JPN" xlink:title="AP030" d="M13639.2731,-3470.2076L13639.1373,-3470.0413L13638.6627,-3469.9306L13638.2568,-3469.9306L13637.7823,-3470.2076L13637.4435,-3470.3186L13636.969,-3470.3186L13636.7661,-3470.1523L13636.6302,-3469.9306L13636.1557,-3469.5423L13636.0886,-3469.265L13636.0886,-3468.9877L13636.0199,-3468.766L13635.614,-3468.5997L13635.2081,-3468.3224L13635.2081,-3467.934L13635.1395,-3467.6014L13635.0861,-3467.3798L13635.0037,-3467.0467L13634.8602,-3466.3532"/>
<path content="AP030,1,28,1,0,14,1,8,JPN" xlink:title="AP030" d="M13634.8602,-3466.3532L13635.5804,-3466.32L13635.9695,-3466.32L13636.2198,-3466.3334L13636.5204,-3466.3532"/>
<path content="AP030,1,28,1,0,14,1,8,JPN" xlink:title="AP030" d="M13636.5204,-3466.3532L13636.8301,-3466.2998L13636.8607,-3466.2998L13636.9904,-3466.32L13637.0911,-3466.3998L13637.3306,-3466.5867L13637.5793,-3466.7332L13637.7899,-3466.7465L13637.8799,-3466.8598L13637.8799,-3466.9865L13637.8799,-3467.0399L13638.1805,-3467.1799L13638.3102,-3467.3065L13638.4903,-3467.4133L13638.5605,-3467.4133L13638.6307,-3467.4L13639.1495,-3467.0734L13639.27,-3466.9865L13639.3295,-3466.9266L13639.4302,-3466.8732L13639.5203,-3466.8934L13639.6103,-3466.9266L13639.65,-3466.9865L13639.8605,-3467.0532L13640.0406,-3467.0532L13640.1993,-3467.2001L13640.3305,-3467.2001L13640.4495,-3467.2333L13640.625,-3467.2333"/>
<path content="AP030,1,28,1,0,14,1,8,JPN" xlink:title="AP030" d="M13626.6296,-3466.8934L13626.9302,-3466.9865L13627.0798,-3467.1665L13627.3605,-3467.1799L13627.8305,-3467.0933L13628.1494,-3467.0532L13628.4698,-3467.0399L13628.6301,-3467.0399L13628.9307,-3466.9998L13628.9902,-3466.9865L13629.1306,-3466.9464L13629.3793,-3466.8934L13629.4006,-3466.7866L13629.5593,-3466.7667L13629.7699,-3466.9865L13629.9301,-3467.0734L13630.1102,-3467.0532L13630.22,-3466.9865L13630.3299,-3466.9132L13630.3604,-3466.8732L13630.22,-3466.7866L13630.1804,-3466.7133L13630.2704,-3466.5531L13630.3802,-3466.3734L13630.4306,-3466.1533L13630.7205,-3465.8466L13630.7907,-3465.9L13630.7205,-3466.0797L13630.7007,-3466.2067L13630.8105,-3466.2998L13630.9692,-3466.3734L13631.2698,-3466.4066L13631.5796,-3466.6798L13631.6101,-3466.6798L13631.7703,-3466.7332L13631.9305,-3466.7667L13632.0801,-3466.8732L13632.4905,-3466.8598L13633.3298,-3466.7465L13633.7692,-3466.84L13633.9294,-3466.7866L13634.1995,-3466.6397L13634.3597,-3466.5531L13634.5398,-3466.4799L13634.8602,-3466.3532"/>
<path content="AP030,1,28,1,0,15,1,8,JPN" xlink:title="AP030" d="M13617.3798,-3466.8732L13617.8406,-3466.4429L13618.6523,-3465.6349"/>
<path content="AP030,1,28,1,0,14,1,8,JPN" xlink:title="AP030" d="M13606.0806,-3468.4601L13605.6107,-3468.3201L13605.4688,-3468.2203"/>
<path content="AP030,1,28,1,0,15,1,8,JPN" xlink:title="AP030" d="M13606.0806,-3468.4601L13607.1365,-3467.9317L13607.1609,-3467.5369L13606.6254,-3466.4589L13606.0867,-3465.4472"/>
<path content="AP030,1,28,1,0,14,1,8,JPN" xlink:title="AP030" d="M13611.5402,-3469.3268L13611.5204,-3469.0399L13611.4899,-3468.8934L13611.3602,-3468.6199L13611.3602,-3468.4067L13611.2701,-3468.1732L13611.2198,-3468.0134L13611.1801,-3467.6132L13611.0397,-3467.3798L13610.8994,-3467.1467L13610.8795,-3467.0734L13610.8795,-3467.02L13610.8795,-3466.9865L13610.9497,-3466.7332L13611.0397,-3466.5531L13611.1099,-3466.3532L13611.2198,-3466.1533L13611.3602,-3465.9397L13611.47,-3465.72L13611.6501,-3465.3267L13611.6104,-3465.1466L13611.47,-3464.9864L13611.4502,-3464.9132L13611.3998,-3464.7465L13611.3297,-3464.6065L13611.1801,-3464.3867L13611.0397,-3464.0667L13610.9909,-3463.9748"/>
<path content="AP030,1,28,1,0,14,1,8,JPN" xlink:title="AP030" d="M13610.9319,-3469.3048L13610.89,-3469.12L13610.54,-3468.12L13610.11,-3467.097L13609.9696,-3466.5131L13610.0897,-3465.8585L13610.4294,-3465.3599L13610.4004,-3465.0932L13610.4294,-3464.9265L13610.6995,-3464.4398L13610.8795,-3464.1335L13610.9909,-3463.9748"/>
<path content="AP030,1,28,1,0,14,1,8,JPN" xlink:title="AP030" d="M13611.6104,-3463.4865L13611.7203,-3463.5799L13612.0193,-3463.8332L13612.1094,-3463.94L13612.3093,-3464.1335L13612.3306,-3464.1731L13612.5198,-3464.2597L13612.6495,-3464.2799L13612.9303,-3464.3333L13613.1302,-3464.3867L13613.4293,-3464.5664L13613.6795,-3464.7133L13613.9694,-3464.8598L13614.3997,-3464.8598L13614.6103,-3464.8197L13614.8102,-3464.7133L13614.8804,-3464.6198L13614.9506,-3464.5134L13615.0192,-3464.5134L13615.1093,-3464.5134L13615.1505,-3464.5535L13615.2405,-3464.64L13615.5594,-3464.8399L13615.9302,-3465.0932L13616.1102,-3465.2332L13616.1301,-3465.3065L13616.1804,-3465.6666L13616.2003,-3465.7066L13616.2903,-3465.8867L13616.3605,-3466.0267L13616.3605,-3466.3734L13616.3605,-3466.5867L13616.6794,-3466.6931L13617.1494,-3466.7465L13617.3798,-3466.8732"/>
<path content="AP030,1,28,1,0,14,1,8,JPN" xlink:title="AP030" d="M13610.9909,-3463.9748L13611.0794,-3463.8466L13611.1115,-3463.8226L13611.29,-3463.6868L13611.6104,-3463.4865"/>
<path content="AP030,1,28,1,0,15,1,8,JPN" xlink:title="AP030" d="M13639.6118,-3463.3869L13640.2893,-3463.4422L13640.625,-3463.5034"/>
<path content="AP030,1,28,1,0,15,1,8,JPN" xlink:title="AP030" d="M13618.6523,-3465.6349L13618.158,-3464.9902L13617.9733,-3463.6505L13618.1992,-3462.978"/>
<path content="AP030,1,28,1,0,15,1,8,JPN" xlink:title="AP030" d="M13631.0745,-3462.9433L13631.4651,-3463.7127L13631.8497,-3464.2231L13632.5348,-3464.7144L13633.58,-3464.7854L13634.3079,-3465.1852L13636.1557,-3465.6586L13636.5891,-3465.9542L13636.5204,-3466.3532"/>
<path content="AP030,1,28,1,0,14,1,8,JPN" xlink:title="AP030" d="M13609.61,-3462.8735L13609.6802,-3462.8933L13609.7702,-3462.9131L13610.0403,-3463.1065L13610.2707,-3463.3465L13610.6293,-3463.7199L13610.6506,-3463.7398L13610.7697,-3463.9L13610.8307,-3463.9L13610.9909,-3463.9748"/>
<path content="AP030,1,28,1,0,15,1,8,JPN" xlink:title="AP030" d="M13606.0867,-3465.4472L13606.34,-3465.1936L13607.5714,-3465.3091L13607.8094,-3465.3519L13608.1177,-3464.8693L13608.9172,-3464.1754L13609.5657,-3464.0038L13609.5932,-3463.5429L13609.61,-3462.8735"/>
<path content="AP030,1,28,1,0,15,1,8,JPN" xlink:title="AP030" d="M13618.6523,-3465.6349L13619.2017,-3465.0875L13619.9631,-3464.3295L13620.845,-3463.4979L13621.3181,-3463.1096L13622.3343,-3462.888L13622.673,-3462.5549"/>
<path content="AP030,1,28,1,0,14,1,8,JPN" xlink:title="AP030" d="M13608.6105,-3462.2601L13608.7402,-3462.4268L13608.9005,-3462.4798L13609.1797,-3462.7464L13609.2896,-3462.8201L13609.61,-3462.8735"/>
<path content="AP030,1,28,1,0,15,1,8,JPN" xlink:title="AP030" d="M13613.7894,-3462.2265L13614.2792,-3462.7289L13614.9078,-3462.878L13616.5131,-3462.973L13617.1585,-3462.8437L13617.4454,-3462.421L13618.1992,-3462.978"/>
<path content="AP030,1,28,1,0,14,1,8,JPN" xlink:title="AP030" d="M13611.6104,-3463.4865L13611.9293,-3463.2332L13612.3993,-3462.9997L13612.6999,-3462.8933L13612.8799,-3462.6598L13612.97,-3462.6064L13613.2706,-3462.5134L13613.5605,-3462.4599L13613.6993,-3462.3734L13613.7207,-3462.3199L13613.7894,-3462.2265"/>
<path content="AP030,1,28,1,0,14,1,8,JPN" xlink:title="AP030" d="M13611.6104,-3463.4865L13611.3602,-3463.2534L13611.3098,-3463.1065L13611.2198,-3462.8735L13610.9497,-3462.64L13610.6293,-3462.3199L13610.4294,-3462.0266L13610.4004,-3461.9732"/>
<path content="AP030,1,28,1,0,14,1,8,JPN" xlink:title="AP030" d="M13610.9497,-3461.94L13611.1496,-3461.9534L13611.1801,-3461.9934L13611.2396,-3462.1334L13611.3297,-3462.1735L13611.5204,-3462.1735L13611.7706,-3462.3199L13612.0193,-3462.3867L13612.2696,-3462.3199L13612.5397,-3462.2467L13612.6801,-3462.1735L13612.7899,-3462.08L13612.9501,-3462.0998L13613.2401,-3462.2066L13613.4506,-3462.2066L13613.5803,-3462.1532L13613.7894,-3462.2265"/>
<path content="AP030,1,28,1,0,14,1,8,JPN" xlink:title="AP030" d="M13608.6105,-3462.2601L13608.8303,-3462.1201L13608.8593,-3462.0998L13608.9294,-3462.0464L13608.9706,-3462.0132L13609.1293,-3461.8866L13609.4498,-3461.8668L13609.4742,-3461.8668L13609.6802,-3461.8668L13609.79,-3461.8668L13609.9304,-3461.9198L13610.08,-3461.9732L13610.2402,-3461.9934L13610.4004,-3461.9732"/>
<path content="AP030,1,28,1,0,14,1,8,JPN" xlink:title="AP030" d="M13610.4004,-3461.9732L13610.5606,-3461.94L13610.6995,-3461.8668L13610.9497,-3461.94"/>
<path content="AP030,1,28,1,0,15,1,8,JPN" xlink:title="AP030" d="M13632.7682,-3461.8343L13633.3786,-3461.945L13634.0561,-3462.0007L13634.462,-3462.4996L13634.938,-3463.8493L13636.5631,-3463.8306L13637.1048,-3464.1079L13637.7136,-3464.2185L13638.2568,-3464.1632L13638.8657,-3463.7753L13639.6118,-3463.3869"/>
<path content="AP030,1,28,1,0,15,1,8,JPN" xlink:title="AP030" d="M13631.0745,-3462.9433L13631.8771,-3462.5954L13632.2266,-3462.4443L13632.7011,-3462.167L13632.7682,-3461.8343"/>
<path content="AP030,1,28,1,0,14,1,8,JPN" xlink:title="AP030" d="M13608.5205,-3461.4132L13608.9005,-3461.4334L13609.2682,-3461.4704L13609.4299,-3461.4864L13610.0403,-3461.5398L13610.2203,-3461.6867L13610.2402,-3461.7599L13610.3607,-3461.8866L13610.4004,-3461.9732"/>
<path content="AP030,1,28,1,0,15,1,8,JPN" xlink:title="AP030" d="M13608.6105,-3462.2601L13608.5205,-3461.4132"/>
<path content="AP030,1,28,1,0,15,1,8,JPN" xlink:title="AP030" d="M13619.8883,-3460.3489L13620.4651,-3460.7433L13620.8801,-3461.3483L13621.6415,-3461.7813L13622.673,-3462.5549"/>
<path content="AP030,1,28,1,0,15,1,8,JPN" xlink:title="AP030" d="M13618.1992,-3462.978L13618.6813,-3461.7886L13619.8883,-3460.3489"/>
<path content="AP030,1,28,1,0,15,1,8,JPN" xlink:title="AP030" d="M13631.955,-3460.2261L13632.6324,-3460.6144L13632.7682,-3461.0023L13632.5653,-3461.2797L13632.4966,-3461.557L13632.7682,-3461.8343"/>
<path content="AP030,1,28,1,0,15,1,8,JPN" xlink:title="AP030" d="M13605.4688,-3464.7537L13606.0867,-3465.4472"/>
<path content="AP030,1,28,1,0,15,1,8,JPN" xlink:title="AP030" d="M13622.673,-3462.5549L13623.1476,-3461.8343L13623.4863,-3461.3354L13623.7579,-3460.725L13624.2996,-3459.5051L13624.7742,-3458.9508L13625.383,-3458.7845L13626.1963,-3459.2278L13627.6871,-3460.7807L13628.6362,-3462.0007L13629.5166,-3462.8323L13630.1941,-3463.1096L13631.0745,-3462.9433"/>
<path content="AP030,1,28,1,0,15,1,8,JPN" xlink:title="AP030" d="M13639.6118,-3463.3869L13638.9343,-3462.2318L13638.266,-3461.4315L13637.2406,-3460.9898L13636.7874,-3460.384L13636.821,-3459.1148L13636.676,-3458.3344L13635.9192,-3457.8098L13634.8618,-3457.2739"/>
<path content="AP030,1,28,1,0,15,1,8,JPN" xlink:title="AP030" d="M13631.955,-3460.2261L13633.168,-3459.4398L13634.0118,-3458.4187L13634.6161,-3457.6672L13634.8618,-3457.2739"/>
<path content="AP030,1,28,1,0,15,1,8,JPN" xlink:title="AP030" d="M13639.7461,-3457.0652L13640.4922,-3457.5089L13640.625,-3457.6055"/>
<path content="AP030,1,28,1,0,15,1,8,JPN" xlink:title="AP030" d="M13631.955,-3460.2261L13631.8878,-3459.7824L13631.6849,-3459.3945L13631.1417,-3459.3945L13630.6,-3459.1724L13630.1254,-3458.5072L13629.3808,-3458.0078L13628.5675,-3457.8972L13627.9968,-3457.7412L13627.9587,-3457.7309L13627.9449,-3457.7106L13627.6871,-3457.3425L13627.7359,-3457.2361L13627.89,-3456.8989"/>
<path content="AP030,1,28,1,0,15,1,8,JPN" xlink:title="AP030" d="M13619.8883,-3460.3489L13620.3644,-3459.903L13620.3964,-3459.3464L13621.3867,-3458.3939L13622.2641,-3457.4677L13623.0286,-3457.2189L13625.2792,-3457.1518L13626.7044,-3457.1144L13627.7771,-3456.9195L13627.89,-3456.8989"/>
<path content="AP030,1,28,1,0,14,1,8,JPN" xlink:title="AP030" d="M13605.4688,-3458.7866L13605.4703,-3458.7868L13605.5801,-3458.7666L13605.6503,-3458.7467L13605.7404,-3458.7997L13605.7907,-3458.86L13605.8304,-3459.38L13605.8594,-3459.6134L13605.9006,-3459.8465L13606.0196,-3459.9934L13606.1798,-3460.08L13606.2698,-3460.12L13606.4697,-3460.2264L13606.5201,-3460.2467L13606.7703,-3460.4065L13606.9305,-3460.5667L13607.0602,-3460.6934L13607.2693,-3460.8601L13607.6797,-3461.0535L13607.8598,-3461.1668L13608.0597,-3461.2865L13608.2001,-3461.3998L13608.5205,-3461.4132"/>
<path content="AP030,1,28,1,0,15,1,8,JPN" xlink:title="AP030" d="M13639.7461,-3457.0652L13640.625,-3456.078"/>
<path content="AP030,1,28,1,0,15,1,8,JPN" xlink:title="AP030" d="M13637.944,-3454.9236L13638.5956,-3455.4569L13639.7461,-3457.0652"/>
<path content="AP030,1,28,1,0,15,1,8,JPN" xlink:title="AP030" d="M13634.8618,-3457.2739L13634.6512,-3456.3671L13634.0958,-3455.571L13633.5083,-3455.3627L13632.7118,-3455.5492L13631.4575,-3455.191L13631.3858,-3454.4758L13631.0106,-3452.6632"/>
<path content="AP030,1,28,1,0,15,1,8,JPN" xlink:title="AP030" d="M13631.0106,-3452.6632L13631.5282,-3452.4252L13632.0076,-3452.4173L13632.9279,-3452.5601L13633.3401,-3452.6632L13633.7715,-3452.695L13634.2604,-3452.7902L13634.8739,-3452.8695L13635.2669,-3452.9964L13635.6121,-3453.3693L13635.8517,-3453.7343L13636.7145,-3454.369L13637.2322,-3454.6626L13637.944,-3454.9236"/>
<path content="AP030,1,28,1,0,14,1,8,JPN" xlink:title="AP030" d="M13613.7894,-3462.2265L13614.1098,-3462.0464L13614.5401,-3461.8332L13614.9902,-3461.6867L13615.1093,-3461.6531L13615.3595,-3461.5932L13615.6494,-3461.5799L13615.8295,-3461.5799L13616.1301,-3461.6531L13616.2704,-3461.6135L13616.5802,-3461.4666L13616.9296,-3461.3068L13617.4301,-3461.1668L13617.5797,-3461.0931L13617.63,-3460.9867L13617.54,-3460.3199L13617.4698,-3460.2467L13617.2195,-3460.2467L13616.8793,-3460.1734L13616.6794,-3460.1734L13616.5207,-3460.1933L13616.4001,-3460.1734L13616.3605,-3460.12L13616.3803,-3460.0132L13616.9006,-3459.4868L13616.8594,-3459.3597L13616.9006,-3459.2731L13617.0395,-3458.9664L13617.0395,-3458.9466L13617.0807,-3458.82L13617.1295,-3458.7334L13617.1494,-3458.6067L13617.0807,-3458.3199L13617.0807,-3458.0799L13617.2195,-3458.0132L13617.2394,-3457.9933L13617.2699,-3457.7934L13617.3294,-3457.7599L13617.5797,-3457.7732L13617.6804,-3457.6866L13617.8604,-3457.5268L13617.9703,-3457.4532L13618.1107,-3457.1999L13618.3594,-3457L13618.4692,-3456.7467L13618.4692,-3456.6399L13618.4006,-3456.5533L13618.3105,-3456.5132L13618.3105,-3456.4266L13618.4296,-3456.3866L13618.5196,-3456.3332L13618.6295,-3456.1535L13618.9301,-3455.8666L13618.9301,-3455.6534L13619.0399,-3455.6332L13619.2001,-3455.6667L13619.2703,-3455.5931L13619.3604,-3455.5065L13619.31,-3454.9866L13619.31,-3454.8733L13619.3802,-3454.6799L13619.3604,-3454.3865L13619.3802,-3453.7933L13619.4305,-3453.5934L13619.4305,-3453.2532L13619.31,-3453.1067L13619.22,-3452.9865L13619.2001,-3452.8L13619.3298,-3452.5665L13619.4305,-3452.3533L13619.4,-3451.9733L13619.4305,-3451.7735L13619.5404,-3451.6865L13619.9295,-3451.58L13620.0806,-3451.4866"/>
<path content="AP030,1,28,1,0,15,1,8,JPN" xlink:title="AP030" d="M13637.944,-3454.9236L13638.3423,-3453.9665L13638.9847,-3453.867L13639.9979,-3453.8124L13640.625,-3453.7034"/>
<path content="AP030,1,28,1,0,15,1,8,JPN" xlink:title="AP030" d="M13627.89,-3456.8989L13627.8229,-3456.3999L13627.1317,-3455.2044L13627.3483,-3454.237L13627.5513,-3453.627L13627.4841,-3453.2391L13627.1454,-3452.7954L13627.3483,-3452.4628L13627.4841,-3451.9081L13627.2125,-3451.6308L13627.15,-3451.3065"/>
<path content="AP030,1,28,1,0,15,1,8,JPN" xlink:title="AP030" d="M13631.0106,-3452.6632L13630.6079,-3452.6711L13630.0079,-3452.3464L13629.8477,-3451.8757L13630.2704,-3451.2199"/>
<path content="AP030,1,28,1,0,14,1,8,JPN" xlink:title="AP030" d="M13620.0806,-3451.4866L13620.3796,-3451.6865L13620.6497,-3451.72L13620.9702,-3451.5934L13621.1807,-3451.5266L13621.3593,-3451.4332L13621.6293,-3451.4L13621.8094,-3451.3268L13622.02,-3451.3466L13622.2702,-3451.1997L13622.4701,-3451.1665L13622.7707,-3451.1665L13623.0194,-3451.2199L13623.2193,-3451.2199L13623.3795,-3451.2733L13623.3994,-3451.2733L13623.6099,-3451.2199L13623.8998,-3451.1799L13623.9899,-3451.1997L13624.1302,-3451.3466L13624.2905,-3451.3599L13624.3805,-3451.3466L13624.4507,-3451.3065L13624.5193,-3451.2531L13624.9893,-3451.4L13625.1999,-3451.2867L13625.3998,-3451.3065L13626.0406,-3451.5266L13626.1307,-3451.5266L13626.1795,-3451.5266L13626.3794,-3451.4332L13626.5793,-3451.2733L13626.8097,-3451.3065L13627.1027,-3451.3065L13627.15,-3451.3065"/>
<path content="AP030,1,28,1,0,14,1,8,JPN" xlink:title="AP030" d="M13627.15,-3451.3065L13627.4902,-3451.2531L13627.9297,-3451.2199L13628.4698,-3451.1665L13628.7201,-3451.1665L13628.9902,-3451.1799L13629.2206,-3451.1997L13629.6295,-3451.1799L13630.2704,-3451.2199"/>
<path content="AP030,1,28,1,0,15,1,8,JPN" xlink:title="AP030" d="M13610.9497,-3461.94L13611.2549,-3461.5524L13612.2604,-3460.7346L13612.5717,-3460.4172L13611.9492,-3459.6882L13611.9354,-3459.0054L13611.6333,-3458.2672L13611.6653,-3457.7187L13611.5585,-3456.8123L13611.8591,-3456.6921L13612.0544,-3456.5239L13612.2833,-3455.8071L13612.8906,-3455.4134L13613.5941,-3455.2212L13614.4516,-3454.6394L13614.6927,-3454.1649L13614.2868,-3453.3569L13613.4872,-3452.4887L13612.9486,-3452.1374L13612.5839,-3451.5724L13611.7722,-3450.9018L13611.5128,-3450.3414L13611.3297,-3449.8867"/>
<path content="AP030,1,28,1,0,15,1,8,JPN" xlink:title="AP030" d="M13605.4688,-3450.0052L13605.4901,-3449.1066"/>
<path content="AP030,1,28,1,0,14,1,8,JPN" xlink:title="AP030" d="M13611.3297,-3449.8867L13611.38,-3449.7601L13611.3297,-3449.6666L13611.3602,-3449.5602L13611.3098,-3449.4667L13611.29,-3449.3465L13611.3602,-3449.3065L13611.4502,-3449.2867L13611.5204,-3449.3065L13611.5799,-3449.3465L13611.6501,-3449.4133L13611.7401,-3449.4133L13611.8607,-3449.3801L13611.8607,-3449.3465L13611.8607,-3449.3065L13611.7401,-3449.2535L13611.6302,-3449.2332L13611.6104,-3449.2001L13611.6104,-3449.1066L13611.6501,-3448.9468"/>
<path content="AP030,1,28,1,0,14,1,8,JPN" xlink:title="AP030" d="M13611.6501,-3448.9468L13611.8301,-3448.8201L13611.9293,-3448.7331L13611.9904,-3448.6599"/>
<path content="AP030,1,28,1,0,14,1,8,JPN" xlink:title="AP030" d="M13614.5798,-3448.5535L13614.9902,-3448.5664L13615.0192,-3448.5664L13615.1093,-3448.5664L13615.1993,-3448.5664L13615.4007,-3448.5332L13615.5807,-3448.6599L13615.7196,-3448.7133L13615.86,-3448.7999L13616.0202,-3448.8201L13616.2399,-3448.8731L13616.3605,-3448.8602L13616.6504,-3448.7865L13616.9296,-3448.7133L13617.0197,-3448.7133L13617.2195,-3448.8731L13617.45,-3449.0002L13617.72,-3449.1798L13618.1107,-3449.3267L13618.4296,-3449.4133L13618.8599,-3449.4667L13619.0796,-3449.5266L13619.1498,-3449.5934L13619.22,-3449.7398L13619.2703,-3450.0465L13619.2902,-3450.1534L13619.3298,-3450.2602L13619.4305,-3450.3735L13619.5602,-3450.4601L13619.8303,-3450.5531L13619.9707,-3450.5867L13620.1096,-3450.6397L13620.1797,-3450.7133L13620.2393,-3450.8198L13620.2393,-3451.1799L13620.1797,-3451.4L13620.0806,-3451.4866"/>
<path content="AP030,1,28,1,0,14,1,8,JPN" xlink:title="AP030" d="M13605.4901,-3449.1066L13605.5603,-3449.0532L13605.6107,-3449.0532L13605.6793,-3449.1264L13605.7693,-3449.0398L13605.7907,-3448.6935L13605.9906,-3448.5134L13606.1798,-3448.5001L13606.4301,-3448.5535L13606.6803,-3448.6065L13606.7398,-3448.5332L13606.7902,-3448.5134L13607.0206,-3448.6198L13607.1503,-3448.6401L13607.3593,-3448.7133L13607.5607,-3448.7865L13607.7698,-3448.9132L13607.9895,-3448.9132L13608.02,-3448.9132L13608.2001,-3448.9265L13608.3298,-3448.9864L13608.49,-3449.02L13608.58,-3448.9864L13608.6304,-3448.9468L13608.7906,-3448.9666L13608.8593,-3448.9468L13608.9706,-3448.7999L13609.0195,-3448.7465L13609.0393,-3448.7331L13609.1095,-3448.6801L13609.3796,-3448.6935L13609.52,-3448.7465L13609.6298,-3448.7331L13609.7198,-3448.7133L13609.9304,-3448.6935L13610.0601,-3448.7331L13610.2707,-3448.9666L13610.3302,-3449.0002L13610.4706,-3449.0932L13610.5194,-3449.1264L13610.6094,-3449.3599L13610.7697,-3449.4865L13610.8307,-3449.6132L13610.8994,-3449.7734L13610.9497,-3449.8135L13611.2,-3449.8333L13611.3297,-3449.8867"/>
<path content="AP030,1,28,1,0,14,1,8,JPN" xlink:title="AP030" d="M13605.4688,-3449.1066L13605.4901,-3449.1066"/>
<path content="AP030,1,28,1,0,14,1,8,JPN" xlink:title="AP030" d="M13611.9904,-3448.6599L13612.1094,-3448.6198L13612.3795,-3448.5867L13612.4298,-3448.5001L13612.4496,-3448.4798L13612.5397,-3448.4264L13612.7396,-3448.4264L13612.9303,-3448.3868L13613.1805,-3448.4264L13613.4003,-3448.3734L13613.4903,-3448.3334L13613.5193,-3448.2265L13613.5605,-3448.1934L13613.8306,-3448.2067L13614.0198,-3448.32L13614.1495,-3448.3868L13614.27,-3448.3868L13614.3295,-3448.4264L13614.4302,-3448.46L13614.5203,-3448.5535L13614.5798,-3448.5535"/>
<path content="AP030,1,28,1,0,14,1,8,JPN" xlink:title="AP030" d="M13611.9904,-3448.6599L13612.0193,-3448.4798L13612.0804,-3448.4264L13612.2406,-3448.3868L13612.3093,-3448.32L13612.5397,-3448.2067L13612.8296,-3448.0999L13613.2401,-3448.0133L13613.4506,-3447.9733L13613.6505,-3448.0133L13613.8794,-3448.0667L13614.0594,-3448.1335L13614.3097,-3448.2601L13614.4897,-3448.4066L13614.5798,-3448.5535"/>
<path content="AP030,1,28,1,0,14,1,8,JPN" xlink:title="AP030" d="M13639.6301,-3446.9467L13639.7003,-3447.0001L13639.8102,-3447.0932L13640.0192,-3447.1802L13640.3595,-3447.2534L13640.625,-3447.3568"/>
<path content="AP030,1,28,1,0,14,1,8,JPN" xlink:title="AP030" d="M13630.2704,-3451.2199L13631.5796,-3451.1799L13631.8733,-3451.1637L13632.1304,-3451.1265L13632.2906,-3451.0933L13632.4493,-3451.0201L13632.8598,-3450.6798L13632.9697,-3450.5135L13632.9895,-3450.4799L13633.0399,-3450.4066L13633.0399,-3450.2602L13633.1299,-3450.1202L13633.2199,-3450.0267L13633.4503,-3449.9199L13633.49,-3449.8665L13633.4305,-3449.8333L13633.3801,-3449.7932L13633.3099,-3449.6864L13633.3603,-3449.58L13633.5602,-3449.2867L13633.7006,-3449.2001L13633.7006,-3449.1467L13633.6502,-3449.0932L13633.6807,-3449.0002L13633.8303,-3448.9864L13633.9493,-3449.0532L13634.0805,-3449.0532L13634.0805,-3449.1066L13634.1095,-3449.1264L13634.1797,-3449.1264L13634.2407,-3449.0932L13634.3597,-3448.9864L13634.4299,-3448.9864L13634.4299,-3449.0532L13634.3796,-3449.1264L13634.3796,-3449.1665L13634.5398,-3449.1264L13634.6298,-3449.0532L13634.7198,-3449.0932L13634.79,-3449.2733L13634.7702,-3449.3801L13634.6497,-3449.3599L13634.61,-3449.3999L13634.61,-3449.4331L13634.6298,-3449.4667L13634.6802,-3449.5266L13634.7397,-3449.5266L13634.7702,-3449.5068L13634.9503,-3449.3801L13635.1501,-3449.2867L13635.1807,-3449.2199L13635.1807,-3448.8602L13635.1807,-3448.7465L13635.2905,-3448.6801L13635.5194,-3448.6065L13635.8093,-3448.5867L13636.0199,-3448.4402L13636.1801,-3448.3868L13636.3297,-3448.28L13636.4899,-3448.2265L13636.6806,-3448.0999L13637.1506,-3448.0667L13637.2696,-3448.1533L13637.4695,-3448.1731L13637.5595,-3448.2468L13637.6297,-3448.2468L13637.7197,-3448.2265L13637.9501,-3448.0267L13638.4506,-3447.9401L13638.8306,-3447.7734L13639.18,-3447.4865L13639.3799,-3447.2534L13639.3997,-3447.0402L13639.6301,-3446.9467"/>
<path content="AP030,1,28,1,0,14,1,8,JPN" xlink:title="AP030" d="M13630.2704,-3451.2199L13630.5206,-3451.0532L13630.6793,-3450.8934L13630.7007,-3450.5665L13630.6305,-3450.4799L13630.5206,-3450.3735L13630.4001,-3450.2266L13630.4001,-3450.1331L13630.5206,-3450.0465L13630.5206,-3449.9733L13630.4001,-3449.8466L13630.2399,-3449.6864L13630.3101,-3449.5399L13630.3802,-3449.4133L13630.4306,-3449.3465L13630.4306,-3449.1798L13630.3802,-3449.02L13630.3299,-3448.7999L13630.2704,-3448.5332L13630.1804,-3448.3532L13630.13,-3448.1731L13630.04,-3448.0667L13629.9301,-3447.9198L13629.8996,-3447.8134L13629.8599,-3447.5266L13629.8599,-3447.3598L13629.8599,-3447.1664L13629.95,-3446.9467L13629.9698,-3446.6801"/>
<path content="AP030,1,28,1,0,15,1,8,JPN" xlink:title="AP030" d="M13605.7693,-3446.225L13605.9982,-3446.2879L13608.4183,-3446.9513L13609.3674,-3447.3572L13610.5896,-3447.4628L13611.2549,-3447.7722L13611.4563,-3448.1339L13611.4456,-3448.6141L13611.6501,-3448.9468"/>
<path content="AP030,1,28,1,0,15,1,8,JPN" xlink:title="AP030" d="M13605.4688,-3446.4712L13605.7693,-3446.225"/>
<path content="AP030,1,28,1,0,15,1,8,JPN" xlink:title="AP030" d="M13605.4688,-3446.1424L13605.7693,-3446.225"/>
<path content="AP030,1,28,1,0,14,1,8,JPN" xlink:title="AP030" d="M13639.6301,-3446.9467L13639.5401,-3446.8399L13639.4302,-3446.6599L13639.3799,-3446.5332L13639.4302,-3446.2265L13639.5599,-3446.1334L13639.7003,-3446.0667L13639.74,-3446.0133L13639.7903,-3445.6333L13639.74,-3445.5799L13639.6103,-3445.5265L13639.53,-3445.3125"/>
<path content="AP030,1,28,1,0,15,1,8,JPN" xlink:title="AP030" d="M13629.9698,-3446.6801L13629.9225,-3445.5864L13629.9139,-3445.3125"/>
<path content="AP030,1,28,1,0,15,1,8,JPN" xlink:title="AP030" d="M13605.7693,-3446.225L13605.8716,-3446.1411L13606.4819,-3445.8637L13606.6849,-3445.6417L13606.6311,-3445.3125"/>
</g>
</svg>
