<?xml version="1.0" encoding="UTF-8"?>
<svg  xmlns="http://www.w3.org/2000/svg" xmlns:xlink="http://www.w3.org/1999/xlink" xmlns:go="http://purl.org/svgmap/profile" property="f_code,acc,exs,rst,med,rtt,RSU,loc,soc" viewBox="13921.875 -3550.78125 35.15625 35.15625" go:dataArea="13921.875 -3550.78125 35.15625 35.15625" >
<metadata>
 <rdf:RDF xmlns:rdf="http://www.w3.org/1999/02/22-rdf-syntax-ns#" xmlns:crs="http://opengis.org/xmldtds/transformations.dtd" xmlns:svg="http://www.w3.org/svg" >
  <rdf:Description>
   <crs:CoordinateReferenceSystem rdf:resource="http://purl.org/crs/84" svg:transform="matrix(100.0,0.0,0.0,-100.0,0.0,0.0)" />
  </rdf:Description>
 </rdf:RDF>
</metadata>
<globalCoordinateSystem srsName="http://purl.org/crs/84" transform="matrix(100.0,0.0,0.0,-100.0,0.0,0.0)" />
<defs>
 <g id="p0" >
  <circle cx="0.0" cy="0.0" r="3" stroke="green" stroke-width="2.0" vector-effect="non-scaling-stroke" />
 </g>
</defs>
<g fill="none" fill-rule="evenodd" stroke="#00ff00" stroke-width="2" opacity="0.5" vector-effect="non-scaling-stroke" stroke-linejoin="bevel" >
<path content="AP030,1,28,1,0,16,1,8,JPN" xlink:title="AP030" d="M13948.1934,-3550.5489L13948.3597,-3550.7668L13948.3703,-3550.7812"/>
<path content="AP030,1,28,1,0,14,1,8,JPN" xlink:title="AP030" d="M13947.7892,-3550.7812L13947.9706,-3550.6798L13948.1934,-3550.5489"/>
<path content="AP030,1,28,1,0,14,1,8,JPN" xlink:title="AP030" d="M13948.1934,-3550.5489L13948.2193,-3550.5333L13948.6801,-3550.3735L13948.8297,-3550.2998L13949.1302,-3550.0668L13949.3805,-3549.7734L13949.4293,-3549.72"/>
<path content="AP030,1,28,1,0,14,1,8,JPN" xlink:title="AP030" d="M13947.4149,-3550.7812L13946.7896,-3550.0999L13946.7407,-3550.0465L13946.5805,-3549.4133"/>
<path content="AP030,1,28,1,0,15,1,8,JPN" xlink:title="AP030" d="M13945.4631,-3550.7812L13945.546,-3550.5451L13945.8984,-3549.8951L13946.5805,-3549.4133"/>
<path content="AP030,1,28,1,0,14,1,8,JPN" xlink:title="AP030" d="M13949.4293,-3549.72L13949.5605,-3549.6132L13949.9695,-3549.3801L13950.3296,-3549.1467"/>
<path content="AP030,1,28,1,0,15,1,8,JPN" xlink:title="AP030" d="M13951.3306,-3549.1467L13951.9012,-3549.2451L13953.4897,-3549.2451L13954.0192,-3549.4617L13954.2847,-3549.9672L13955.2551,-3550.7622L13955.2831,-3550.7812"/>
<path content="AP030,1,28,1,0,14,1,8,JPN" xlink:title="AP030" d="M13949.4293,-3549.72L13949.7192,-3549.7066L13950.0397,-3549.6334L13950.6104,-3549.4534L13950.7401,-3549.3999L13950.9003,-3549.3465L13951.1307,-3549.2733L13951.3306,-3549.1467"/>
<path content="AP030,1,28,1,0,16,1,8,JPN" xlink:title="AP030" d="M13947.0795,-3549.0734L13947.29,-3549.4667L13947.5403,-3549.9199L13947.6105,-3550.0134L13947.8302,-3550.2068L13948.1094,-3550.4398L13948.1934,-3550.5489"/>
<path content="AP030,1,28,1,0,14,1,8,JPN" xlink:title="AP030" d="M13946.5805,-3549.4133L13946.5393,-3549.2001L13946.3303,-3548.8201"/>
<path content="AP030,1,28,1,0,15,1,8,JPN" xlink:title="AP030" d="M13947.0795,-3549.0734L13947.5754,-3548.8838L13948.8113,-3548.8113L13949.6063,-3548.8113L13950.3296,-3549.1467"/>
<path content="AP030,1,28,1,0,15,1,8,JPN" xlink:title="AP030" d="M13941.9412,-3550.7812L13941.3971,-3550.473L13940.8676,-3549.6784L13940.7166,-3549.6017L13939.7079,-3549.0936L13939.003,-3548.7495"/>
<path content="AP030,1,28,1,0,15,1,8,JPN" xlink:title="AP030" d="M13938.7396,-3550.7812L13938.7939,-3550.7168L13938.9236,-3549.7372L13939.003,-3548.7495"/>
<path content="AP030,1,28,1,0,14,1,8,JPN" xlink:title="AP030" d="M13946.0602,-3548.5535L13946.2692,-3548.6935L13946.3303,-3548.8201"/>
<path content="AP030,1,28,1,0,14,1,8,JPN" xlink:title="AP030" d="M13946.0602,-3548.5535L13946.1105,-3548.6801L13946.1807,-3548.7465L13946.2402,-3548.7999L13946.3303,-3548.8201"/>
<path content="AP030,1,28,1,0,16,1,8,JPN" xlink:title="AP030" d="M13946.4279,-3548.4955L13946.5393,-3548.5535L13946.8994,-3548.84L13947.0795,-3549.0734"/>
<path content="AP030,1,28,1,0,14,1,8,JPN" xlink:title="AP030" d="M13946.3303,-3548.8201L13946.4005,-3548.7667L13946.4005,-3548.6935L13946.4279,-3548.4955"/>
<path content="AP030,1,28,1,0,14,1,8,JPN" xlink:title="AP030" d="M13930.6441,-3550.7813L13930.8304,-3550.6397L13930.9006,-3550.4997L13931.1096,-3550.1732L13931.2195,-3549.9931L13931.6101,-3549.5266L13931.7398,-3549.3999L13932.0801,-3549.2199L13932.2403,-3549.0932L13932.4005,-3548.9468L13932.7896,-3548.5332L13932.8796,-3548.4798"/>
<path content="AP030,1,28,1,0,15,1,8,JPN" xlink:title="AP030" d="M13934.2405,-3550.7812L13934.3369,-3550.5451L13934.4254,-3549.2451L13933.6807,-3548.0667"/>
<path content="AP030,1,28,1,0,14,1,8,JPN" xlink:title="AP030" d="M13932.8796,-3548.4798L13933.1802,-3548.4066L13933.3298,-3548.3002L13933.6807,-3548.0667"/>
<path content="AP030,1,28,1,0,14,1,8,JPN" xlink:title="AP030" d="M13950.3296,-3549.1467L13950.6104,-3548.9468L13950.9003,-3548.6198L13951.2695,-3548.2601L13951.3794,-3548.1731L13951.86,-3547.9733"/>
<path content="AP030,1,28,1,0,14,1,8,JPN" xlink:title="AP030" d="M13941.9296,-3547.8333L13942.2394,-3547.8664L13942.63,-3547.8664L13943.1305,-3547.8466L13944.4305,-3547.7932L13944.6793,-3547.8867L13945.4666,-3548.2319L13945.7901,-3548.3734L13945.8099,-3548.3868L13946.0602,-3548.5535"/>
<path content="AP030,1,28,1,0,14,1,8,JPN" xlink:title="AP030" d="M13951.3306,-3549.1467L13951.6296,-3548.9468L13952.15,-3548.5535L13952.1805,-3548.5535L13952.3804,-3548.4066L13952.5192,-3548.3734L13953.0396,-3548.2468L13953.2394,-3548.1934L13953.4302,-3548.0465L13954.0604,-3547.7402"/>
<path content="AP030,1,28,1,0,14,1,8,JPN" xlink:title="AP030" d="M13954.0604,-3547.7402L13954.2892,-3547.6334L13954.4006,-3547.6334L13954.4907,-3547.6665L13954.8096,-3547.8466L13955.7693,-3547.9534L13956.0593,-3547.9L13956.5598,-3547.9L13956.72,-3547.8909L13956.7902,-3547.8867L13956.9702,-3547.8466L13957.0313,-3547.8241"/>
<path content="AP030,1,28,1,0,15,1,8,JPN" xlink:title="AP030" d="M13933.6807,-3548.0667L13933.4702,-3547.5933"/>
<path content="AP030,1,28,1,0,14,1,8,JPN" xlink:title="AP030" d="M13932.8796,-3548.4798L13933.1299,-3548.2067L13933.3099,-3547.9401L13933.4702,-3547.5933"/>
<path content="AP030,1,28,1,0,15,1,8,JPN" xlink:title="AP030" d="M13925.2161,-3550.7813L13926.2039,-3549.7066L13927.1469,-3548.455L13928.1387,-3547.6254L13928.7201,-3547.2118"/>
<path content="AP030,1,28,1,0,15,1,8,JPN" xlink:title="AP030" d="M13953.27,-3547.0402L13954.0604,-3547.7402"/>
<path content="AP030,1,28,1,0,14,1,8,JPN" xlink:title="AP030" d="M13951.86,-3547.9733L13952.5406,-3547.6868L13952.7893,-3547.5601L13953.0594,-3547.2866L13953.27,-3547.0402"/>
<path content="AP030,1,28,1,0,16,1,8,JPN" xlink:title="AP030" d="M13944.3359,-3547.0123L13944.4305,-3547.0734L13944.8593,-3547.4533L13945.1096,-3547.6868L13945.43,-3547.9198L13945.5795,-3548.0228L13945.7703,-3548.1533L13946.4279,-3548.4955"/>
<path content="AP030,1,28,1,0,15,1,8,JPN" xlink:title="AP030" d="M13933.4702,-3547.5933L13932.9239,-3547.0055"/>
<path content="AP030,1,28,1,0,15,1,8,JPN" xlink:title="AP030" d="M13928.7201,-3547.2118L13929.01,-3547.0757L13929.5212,-3547.2702L13929.5013,-3548.2071L13930.5328,-3548.2216L13931.4072,-3547.5311L13932.9239,-3547.0055"/>
<path content="AP030,1,28,1,0,15,1,8,JPN" xlink:title="AP030" d="M13949.9878,-3546.8319L13950.3998,-3547.1497L13951.86,-3547.9733"/>
<path content="AP030,1,28,1,0,14,1,8,JPN" xlink:title="AP030" d="M13933.4702,-3547.5933L13933.6502,-3547.3465L13934.0195,-3547.02L13934.2407,-3546.8201"/>
<path content="AP030,1,28,1,0,15,1,8,JPN" xlink:title="AP030" d="M13932.9239,-3547.0055L13934.2407,-3546.8201"/>
<path content="AP030,1,28,1,0,14,1,8,JPN" xlink:title="AP030" d="M13935.9899,-3550.7812L13936.1801,-3550.0465L13936.3998,-3549.1665L13936.47,-3548.6401L13936.6104,-3547.7402L13936.7401,-3547.3999L13936.7905,-3546.6064L13936.7905,-3546.5"/>
<path content="AP030,1,28,1,0,15,1,8,JPN" xlink:title="AP030" d="M13939.003,-3548.7495L13938.9481,-3548.2864L13938.9099,-3547.6334L13938.8107,-3546.4066"/>
<path content="AP030,1,28,1,0,14,1,8,JPN" xlink:title="AP030" d="M13936.7905,-3546.5L13938.0402,-3546.4401L13938.8107,-3546.4066"/>
<path content="AP030,1,28,1,0,14,1,8,JPN" xlink:title="AP030" d="M13938.8107,-3546.4066L13939.0793,-3546.3867L13939.4424,-3546.3867L13939.9307,-3546.3867L13939.9551,-3546.3867L13940.1993,-3546.3867L13940.3793,-3546.46L13940.6494,-3546.6934L13941.1301,-3547.1664L13941.5405,-3547.6334L13941.7007,-3547.7402L13941.9296,-3547.8333"/>
<path content="AP030,1,28,1,0,16,1,8,JPN" xlink:title="AP030" d="M13943.4296,-3546.3531L13943.7897,-3546.6599L13944.3359,-3547.0123"/>
<path content="AP030,1,28,1,0,15,1,8,JPN" xlink:title="AP030" d="M13949.9878,-3546.8319L13951.9974,-3546.3482L13953.27,-3547.0402"/>
<path content="AP030,1,28,1,0,15,1,8,JPN" xlink:title="AP030" d="M13946.7896,-3546.2265L13948.3826,-3546.6316L13949.3973,-3546.3776L13949.9878,-3546.8319"/>
<path content="AP030,1,28,1,0,14,1,8,JPN" xlink:title="AP030" d="M13946.4279,-3548.4955L13946.5607,-3547.58L13946.6293,-3547.2733L13946.6782,-3546.928L13946.6995,-3546.7667L13946.6995,-3546.6934L13946.7194,-3546.5534L13946.7896,-3546.2265"/>
<path content="AP030,1,28,1,0,15,1,8,JPN" xlink:title="AP030" d="M13944.3359,-3547.0123L13945.5154,-3546.7358L13946.4737,-3546.3528L13946.7896,-3546.2265"/>
<path content="AP030,1,28,1,0,14,1,8,JPN" xlink:title="AP030" d="M13934.2407,-3546.8201L13934.6298,-3546.5534L13934.8602,-3546.2067"/>
<path content="AP030,1,28,1,0,16,1,8,JPN" xlink:title="AP030" d="M13943.2205,-3546.0999L13943.4296,-3546.3531"/>
<path content="AP030,1,28,1,0,15,1,8,JPN" xlink:title="AP030" d="M13943.2205,-3546.0999L13942.9367,-3546.843L13943.4296,-3546.3531"/>
<path content="AP030,1,28,1,0,15,1,8,JPN" xlink:title="AP030" d="M13948.8998,-3545.9938L13949.9878,-3546.8319"/>
<path content="AP030,1,28,1,0,14,1,8,JPN" xlink:title="AP030" d="M13935.8597,-3545.76L13935.9695,-3546.2601L13936.0794,-3546.3867L13936.2701,-3546.46L13936.47,-3546.5134L13936.7905,-3546.5"/>
<path content="AP030,1,28,1,0,14,1,8,JPN" xlink:title="AP030" d="M13933.6807,-3548.0667L13933.9005,-3547.9198L13934.0195,-3547.8664L13934.1095,-3547.8134L13934.2407,-3547.72L13934.3307,-3547.6131L13934.4696,-3547.4133L13934.8099,-3547.1268L13934.9503,-3546.8933L13935.5804,-3546.4401L13935.6506,-3546.3001L13935.8597,-3545.76"/>
<path content="AP030,1,28,1,0,15,1,8,JPN" xlink:title="AP030" d="M13957.0312,-3547.7534L13956.9946,-3547.6776L13956.2012,-3546.0278L13955.5405,-3545.38"/>
<path content="AP030,1,28,1,0,14,1,8,JPN" xlink:title="AP030" d="M13953.27,-3547.0402L13953.4897,-3546.7133L13953.688,-3546.5763L13954.0726,-3546.31L13954.2694,-3546.1735L13954.3594,-3546.1201L13954.6494,-3545.8134L13954.9301,-3545.5799L13955.2002,-3545.4533L13955.5405,-3545.38"/>
<path content="AP030,1,28,1,0,16,1,8,JPN" xlink:title="AP030" d="M13942.5598,-3545.2534L13942.8101,-3545.5067L13943.2205,-3546.0999"/>
<path content="AP030,1,28,1,0,15,1,8,JPN" xlink:title="AP030" d="M13941.9296,-3547.8333L13942.0578,-3546.859L13942.0792,-3546.6911L13942.5598,-3545.2534"/>
<path content="AP030,1,28,1,0,15,1,8,JPN" xlink:title="AP030" d="M13934.8602,-3546.2067L13935.3104,-3545.2202"/>
<path content="AP030,1,28,1,0,14,1,8,JPN" xlink:title="AP030" d="M13934.8602,-3546.2067L13935.0601,-3545.7401L13935.3104,-3545.2202"/>
<path content="AP030,1,28,1,0,15,1,8,JPN" xlink:title="AP030" d="M13946.7896,-3545.1668L13947.435,-3545.2602L13948.8998,-3545.9938"/>
<path content="AP030,1,28,1,0,14,1,8,JPN" xlink:title="AP030" d="M13946.7896,-3546.2265L13946.8094,-3546.1334L13946.7194,-3545.38L13946.7407,-3545.2534L13946.7896,-3545.1668"/>
<path content="AP030,1,28,1,0,14,1,8,JPN" xlink:title="AP030" d="M13935.8597,-3545.76L13935.7895,-3545.3999L13935.7773,-3545.1275"/>
<path content="AP030,1,28,1,0,15,1,8,JPN" xlink:title="AP030" d="M13935.3104,-3545.2202L13935.7773,-3545.1275"/>
<path content="AP030,1,28,1,0,16,1,8,JPN" xlink:title="AP030" d="M13956.9504,-3545.0199L13956.9901,-3545.0401L13957.0312,-3545.0499"/>
<path content="AP030,1,28,1,0,14,1,8,JPN" xlink:title="AP030" d="M13955.5405,-3545.38L13955.9296,-3545.3266L13956.3797,-3545.2202L13956.8298,-3545.0733L13956.9504,-3545.0199"/>
<path content="AP030,1,28,1,0,14,1,8,JPN" xlink:title="AP030" d="M13946.7896,-3545.1668L13946.7896,-3544.9867"/>
<path content="AP030,1,28,1,0,14,1,8,JPN" xlink:title="AP030" d="M13935.7773,-3545.1275L13935.7697,-3544.9467"/>
<path content="AP030,1,28,1,0,14,1,8,JPN" xlink:title="AP030" d="M13935.3104,-3545.2202L13935.5392,-3545.0199L13935.7697,-3544.9467"/>
<path content="AP030,1,28,1,0,15,1,8,JPN" xlink:title="AP030" d="M13937.6495,-3544.7578L13938.0295,-3544.8711L13939.0884,-3545.187L13939.1296,-3545.1996L13941.5298,-3545.5124L13942.5598,-3545.2534"/>
<path content="AP030,1,28,1,0,15,1,8,JPN" xlink:title="AP030" d="M13938.8107,-3546.4066L13937.6495,-3544.7578"/>
<path content="AP030,1,28,1,0,15,1,8,JPN" xlink:title="AP030" d="M13935.7773,-3545.1275L13937.6495,-3544.7578"/>
<path content="AP030,1,28,1,0,16,1,8,JPN" xlink:title="AP030" d="M13956.1996,-3544.4065L13956.4499,-3544.5667L13956.5796,-3544.6934L13956.8802,-3544.9867L13956.9504,-3545.0199"/>
<path content="AP030,1,28,1,0,15,1,8,JPN" xlink:title="AP030" d="M13955.5405,-3545.38L13956.1996,-3544.4065"/>
<path content="AP030,1,28,1,0,16,1,8,JPN" xlink:title="AP030" d="M13956.9504,-3545.0199L13957.0312,-3544.9794"/>
<path content="AP030,1,28,1,0,15,1,8,JPN" xlink:title="AP030" d="M13942.5598,-3545.2534L13943.3304,-3544.2703"/>
<path content="AP030,1,28,1,0,16,1,8,JPN" xlink:title="AP030" d="M13955.5405,-3543.8465L13955.6305,-3543.9732L13955.6793,-3544.0468L13955.8304,-3544.1532L13955.9906,-3544.2799L13956.1996,-3544.4065"/>
<path content="AP030,1,28,1,0,14,1,8,JPN" xlink:title="AP030" d="M13935.7697,-3544.9467L13935.7193,-3544.08L13935.6995,-3543.9201L13935.6995,-3543.7733L13935.6796,-3543.56"/>
<path content="AP030,1,28,1,0,15,1,8,JPN" xlink:title="AP030" d="M13946.7407,-3543.4334L13948.0179,-3544.9104L13948.8998,-3545.9938"/>
<path content="AP030,1,28,1,0,14,1,8,JPN" xlink:title="AP030" d="M13946.7896,-3544.9867L13946.7407,-3543.4334"/>
<path content="AP030,1,28,1,0,15,1,8,JPN" xlink:title="AP030" d="M13943.6523,-3543.2388L13944.2017,-3543.6256L13945.3949,-3544.1097L13946.0739,-3544.54L13946.5469,-3544.8353L13946.7896,-3544.9867"/>
<path content="AP030,1,28,1,0,15,1,8,JPN" xlink:title="AP030" d="M13943.6523,-3543.2388L13943.3304,-3544.2703"/>
<path content="AP030,1,28,1,0,15,1,8,JPN" xlink:title="AP030" d="M13943.3563,-3543.0302L13943.6523,-3543.2388"/>
<path content="AP030,1,28,1,0,15,1,8,JPN" xlink:title="AP030" d="M13943.3304,-3544.2703L13943.3563,-3543.0302"/>
<path content="AP030,1,28,1,0,14,1,8,JPN" xlink:title="AP030" d="M13935.6796,-3543.56L13935.6522,-3543.0676L13935.6506,-3543.0199L13935.6796,-3542.8398L13935.6995,-3542.7868"/>
<path content="AP030,1,28,1,0,16,1,8,JPN" xlink:title="AP030" d="M13939.5401,-3542.7334L13939.8605,-3542.9867L13940.1306,-3543.2331L13940.5396,-3543.7733L13940.86,-3544.08L13940.95,-3544.1933L13941.2704,-3544.3867L13941.6107,-3544.6201L13941.9006,-3544.7468L13942.2394,-3544.9665L13942.5598,-3545.2534"/>
<path content="AP030,1,28,1,0,14,1,8,JPN" xlink:title="AP030" d="M13934.9243,-3542.4564L13935.0204,-3542.6067L13935.2005,-3542.8734L13935.2203,-3542.9134L13935.4294,-3543.0733L13935.4706,-3543.4132L13935.4706,-3543.4666L13935.6796,-3543.56"/>
<path content="AP030,1,28,1,0,14,1,8,JPN" xlink:title="AP030" d="M13935.4324,-3542.4377L13935.4507,-3542.5865L13935.5606,-3542.7467L13935.6995,-3542.7868"/>
<path content="AP030,1,28,1,0,16,1,8,JPN" xlink:title="AP030" d="M13934.9243,-3542.4564L13934.9899,-3542.4599L13935.2158,-3542.4484L13935.4324,-3542.4377"/>
<path content="AP030,1,28,1,0,14,1,8,JPN" xlink:title="AP030" d="M13935.6995,-3542.7868L13935.7895,-3542.5865L13935.8749,-3542.3965"/>
<path content="AP030,1,28,1,0,16,1,8,JPN" xlink:title="AP030" d="M13935.4324,-3542.4377L13935.6506,-3542.4267L13935.8749,-3542.3965"/>
<path content="AP030,1,28,1,0,16,1,8,JPN" xlink:title="AP030" d="M13938.6993,-3542.3866L13939.1296,-3542.5133L13939.5401,-3542.7334"/>
<path content="AP030,1,28,1,0,15,1,8,JPN" xlink:title="AP030" d="M13937.6495,-3544.7578L13937.9898,-3544.3245L13938.002,-3544.3092L13938.414,-3543.784L13938.1698,-3542.6025"/>
<path content="AP030,1,28,1,0,15,1,8,JPN" xlink:title="AP030" d="M13932.9239,-3547.0055L13932.2189,-3545.9938L13931.5125,-3545.1271L13931.5125,-3544.0434L13931.2469,-3543.1042L13930.4535,-3542.3817"/>
<path content="AP030,1,28,1,0,15,1,8,JPN" xlink:title="AP030" d="M13928.7201,-3547.2118L13929.3945,-3545.1126L13930.6305,-3543.5833L13930.4535,-3542.3817"/>
<path content="AP030,1,28,1,0,16,1,8,JPN" xlink:title="AP030" d="M13935.8749,-3542.3965L13936.2,-3542.3534"/>
<path content="AP030,1,28,1,0,15,1,8,JPN" xlink:title="AP030" d="M13952.2537,-3545.4884L13952.1133,-3545.158L13951.6357,-3544.0434L13950.4883,-3543.7546L13949.7833,-3542.9596L13949.7406,-3542.873L13949.4293,-3542.2375"/>
<path content="AP030,1,28,1,0,15,1,8,JPN" xlink:title="AP030" d="M13937.6495,-3544.7578L13937.1979,-3544.4237L13937.0545,-3543.8679L13936.3098,-3541.4001"/>
<path content="AP030,1,28,1,0,16,1,8,JPN" xlink:title="AP030" d="M13936.2,-3542.3534L13936.5799,-3542.3L13937.2894,-3542.2264"/>
<path content="AP030,1,28,1,0,16,1,8,JPN" xlink:title="AP030" d="M13937.2894,-3542.2264L13937.7213,-3542.2264"/>
<path content="AP030,1,28,1,0,16,1,8,JPN" xlink:title="AP030" d="M13937.7213,-3542.2264L13937.8098,-3542.2264L13938.3217,-3542.3007L13938.6993,-3542.3866"/>
<path content="AP030,1,28,1,0,14,1,8,JPN" xlink:title="AP030" d="M13946.7407,-3543.4334L13946.8063,-3543.1919L13946.8094,-3543.1801L13946.8307,-3543.0733L13946.8307,-3542.8001L13946.8597,-3542.5667L13946.9299,-3542.1333"/>
<path content="AP030,1,28,1,0,14,1,8,JPN" xlink:title="AP030" d="M13956.2393,-3542.0467L13956.4499,-3542.1932L13956.72,-3542.4599L13956.9504,-3542.5533L13957.0312,-3542.6402"/>
<path content="AP030,1,28,1,0,15,1,8,JPN" xlink:title="AP030" d="M13955.5405,-3543.8465L13955.7022,-3543.5627L13955.8014,-3543.3887L13956.134,-3542.8051L13956.2393,-3542.0467"/>
<path content="AP030,1,28,1,0,14,1,8,JPN" xlink:title="AP030" d="M13955.4901,-3542.0467L13955.7404,-3542.0666L13956.0593,-3542.0265L13956.1295,-3542.0265L13956.1798,-3542.0265L13956.2393,-3542.0467"/>
<path content="AP030,1,28,1,0,15,1,8,JPN" xlink:title="AP030" d="M13944.0552,-3541.9868L13945.1935,-3542.8154L13946.4966,-3543.3357L13946.7407,-3543.4334"/>
<path content="AP030,1,28,1,0,15,1,8,JPN" xlink:title="AP030" d="M13943.3563,-3543.0302L13944.0552,-3541.9868"/>
<path content="AP030,1,28,1,0,16,1,8,JPN" xlink:title="AP030" d="M13936.2,-3542.3534L13936.2,-3542.0265L13936.0794,-3541.9399"/>
<path content="AP030,1,28,1,0,14,1,8,JPN" xlink:title="AP030" d="M13935.8749,-3542.3965L13936.0794,-3541.9399"/>
<path content="AP030,1,28,1,0,14,1,8,JPN" xlink:title="AP030" d="M13935.4324,-3542.4377L13935.4004,-3542.1532L13935.3806,-3541.8999"/>
<path content="AP030,1,28,1,0,16,1,8,JPN" xlink:title="AP030" d="M13935.3806,-3541.8533L13935.5194,-3541.8667L13935.8795,-3541.8667L13936.0794,-3541.9399"/>
<path content="AP030,1,28,1,0,14,1,8,JPN" xlink:title="AP030" d="M13935.3806,-3541.8999L13935.3806,-3541.8533"/>
<path content="AP030,1,28,1,0,15,1,8,JPN" xlink:title="AP030" d="M13944.0552,-3541.9868L13944.7525,-3541.758L13946.5439,-3542.067L13946.9299,-3542.1333"/>
<path content="AP030,1,28,1,0,15,1,8,JPN" xlink:title="AP030" d="M13943.6035,-3541.6595L13944.0552,-3541.9868"/>
<path content="AP030,1,28,1,0,16,1,8,JPN" xlink:title="AP030" d="M13932.1304,-3541.4867L13932.4295,-3541.6332L13933.2001,-3542.0666L13933.4305,-3542.1532L13933.8593,-3542.3199L13934.3597,-3542.4267L13934.9243,-3542.4564"/>
<path content="AP030,1,28,1,0,14,1,8,JPN" xlink:title="AP030" d="M13954.2404,-3541.3799L13954.4495,-3541.4532L13954.95,-3541.7732L13954.9896,-3541.8133L13955.2399,-3541.9399L13955.4901,-3542.0467"/>
<path content="AP030,1,28,1,0,15,1,8,JPN" xlink:title="AP030" d="M13946.9299,-3542.1333L13947.8409,-3541.3704"/>
<path content="AP030,1,28,1,0,15,1,8,JPN" xlink:title="AP030" d="M13948.645,-3541.3704L13949.4293,-3542.2375"/>
<path content="AP030,1,28,1,0,15,1,8,JPN" xlink:title="AP030" d="M13947.8409,-3541.3704L13948.645,-3541.3704"/>
<path content="AP030,1,28,1,0,15,1,8,JPN" xlink:title="AP030" d="M13949.4293,-3542.2375L13948.8998,-3541.3704"/>
<path content="AP030,1,28,1,0,15,1,8,JPN" xlink:title="AP030" d="M13948.645,-3541.3704L13948.8998,-3541.3704"/>
<path content="AP030,1,28,1,0,15,1,8,JPN" xlink:title="AP030" d="M13939.5401,-3542.7334L13939.9963,-3541.9769L13940.6952,-3541.3303"/>
<path content="AP030,1,28,1,0,16,1,8,JPN" xlink:title="AP030" d="M13953.4698,-3541.2865L13953.7704,-3541.8331L13953.8605,-3542.0799L13953.9902,-3542.3534L13954.1504,-3542.5331L13954.2892,-3542.6201L13954.8996,-3542.9466L13955.1102,-3543.0733L13955.2704,-3543.1801L13955.3604,-3543.3468L13955.4306,-3543.5066L13955.5405,-3543.8465"/>
<path content="AP030,1,28,1,0,14,1,8,JPN" xlink:title="AP030" d="M13953.4698,-3541.2865L13953.5599,-3541.3067L13953.7521,-3541.2971L13953.9703,-3541.2865L13954.2007,-3541.3601L13954.2404,-3541.3799"/>
<path content="AP030,1,28,1,0,16,1,8,JPN" xlink:title="AP030" d="M13930.9006,-3541.18L13931.1798,-3541.2334L13931.4896,-3541.3067L13932.1304,-3541.4867"/>
<path content="AP030,1,28,1,0,15,1,8,JPN" xlink:title="AP030" d="M13930.4535,-3542.3817L13930.9006,-3541.18"/>
<path content="AP030,1,28,1,0,15,1,8,JPN" xlink:title="AP030" d="M13946.9696,-3541.1186L13947.8409,-3541.3704"/>
<path content="AP030,1,28,1,0,14,1,8,JPN" xlink:title="AP030" d="M13946.9299,-3542.1333L13946.9299,-3541.6534L13946.9498,-3541.5264L13946.9696,-3541.3601L13946.9696,-3541.1186"/>
<path content="AP030,1,28,1,0,16,1,8,JPN" xlink:title="AP030" d="M13930.3665,-3541.0328L13930.9006,-3541.18"/>
<path content="AP030,1,28,1,0,15,1,8,JPN" xlink:title="AP030" d="M13930.4535,-3542.3817L13930.4535,-3541.8762L13930.3665,-3541.0328"/>
<path content="AP030,1,28,1,0,15,1,8,JPN" xlink:title="AP030" d="M13930.3665,-3541.0328L13930.365,-3541.0091"/>
<path content="AP030,1,28,1,0,15,1,8,JPN" xlink:title="AP030" d="M13930.365,-3541.0091L13930.2002,-3540.9866"/>
<path content="AP030,1,28,1,0,16,1,8,JPN" xlink:title="AP030" d="M13930.2002,-3540.9866L13930.3665,-3541.0328"/>
<path content="AP030,1,28,1,0,14,1,8,JPN" xlink:title="AP030" d="M13932.5638,-3540.9832L13933.11,-3541.2334L13934.0393,-3541.6866L13934.3597,-3541.9201L13934.4498,-3542.0467L13934.7702,-3542.2466L13934.8801,-3542.3866L13934.9243,-3542.4564"/>
<path content="AP030,1,28,1,0,15,1,8,JPN" xlink:title="AP030" d="M13932.1304,-3541.4867L13932.5638,-3540.9832"/>
<path content="AP030,1,28,1,0,14,1,8,JPN" xlink:title="AP030" d="M13954.2404,-3541.3799L13954.0604,-3541.0934L13954.0405,-3541.04L13953.9307,-3540.7665"/>
<path content="AP030,1,28,1,0,15,1,8,JPN" xlink:title="AP030" d="M13955.4901,-3542.0467L13955.8731,-3540.6479"/>
<path content="AP030,1,28,1,0,15,1,8,JPN" xlink:title="AP030" d="M13953.9307,-3540.7665L13955.8731,-3540.6479"/>
<path content="AP030,1,28,1,0,15,1,8,JPN" xlink:title="AP030" d="M13955.8731,-3540.6479L13957.0312,-3540.6479"/>
<path content="AP030,1,28,1,0,15,1,8,JPN" xlink:title="AP030" d="M13938.3188,-3540.6269L13938.7634,-3540.6017L13940.6952,-3541.3303"/>
<path content="AP030,1,28,1,0,15,1,8,JPN" xlink:title="AP030" d="M13938.1698,-3542.6025L13938.3188,-3540.6269"/>
<path content="AP030,1,28,1,0,15,1,8,JPN" xlink:title="AP030" d="M13936.1496,-3540.4999L13937.9239,-3540.6246L13938.3188,-3540.6269"/>
<path content="AP030,1,28,1,0,14,1,8,JPN" xlink:title="AP030" d="M13936.3098,-3541.4001L13936.1496,-3541.0534L13936.1496,-3540.4999"/>
<path content="AP030,1,28,1,0,15,1,8,JPN" xlink:title="AP030" d="M13944.1345,-3540.4312L13945.105,-3540.5758L13946.3409,-3540.937L13946.5347,-3540.9927L13946.9696,-3541.1186"/>
<path content="AP030,1,28,1,0,15,1,8,JPN" xlink:title="AP030" d="M13943.6035,-3541.6595L13944.1345,-3540.4312"/>
<path content="AP030,1,28,1,0,14,1,8,JPN" xlink:title="AP030" d="M13952.7405,-3540.3332L13952.8595,-3540.6067L13953.0396,-3540.86L13953.1296,-3541.1064L13953.1799,-3541.1667L13953.3295,-3541.2334L13953.4698,-3541.2865"/>
<path content="AP030,1,28,1,0,15,1,8,JPN" xlink:title="AP030" d="M13948.8998,-3541.3704L13950.0473,-3541.1537L13951.4603,-3541.0812L13952.0782,-3540.6479L13952.7405,-3540.3332"/>
<path content="AP030,1,28,1,0,14,1,8,JPN" xlink:title="AP030" d="M13933.4732,-3540.3057L13933.49,-3540.3332L13933.5602,-3540.4266L13934.4299,-3540.9267L13934.6497,-3541.1064L13934.9701,-3541.5798L13935.1501,-3541.8133L13935.2203,-3541.8667L13935.3104,-3541.8865L13935.3806,-3541.8999"/>
<path content="AP030,1,28,1,0,15,1,8,JPN" xlink:title="AP030" d="M13932.5638,-3540.9832L13933.049,-3540.6212L13933.4732,-3540.3057"/>
<path content="AP030,1,28,1,0,15,1,8,JPN" xlink:title="AP030" d="M13942.2806,-3540.2866L13942.8986,-3541.1537L13943.6035,-3541.6595"/>
<path content="AP030,1,28,1,0,14,1,8,JPN" xlink:title="AP030" d="M13953.5202,-3540.2802L13953.6102,-3540.3L13953.6301,-3540.3534L13953.6102,-3540.44L13953.7399,-3540.5865L13953.9307,-3540.7665"/>
<path content="AP030,1,28,1,0,16,1,8,JPN" xlink:title="AP030" d="M13933.5312,-3540.2634L13933.6105,-3540.3866L13934.4696,-3540.9134L13934.6802,-3541.0534L13935.2005,-3541.7732L13935.3104,-3541.8465L13935.3806,-3541.8533"/>
<path content="AP030,1,28,1,0,15,1,8,JPN" xlink:title="AP030" d="M13933.4732,-3540.3057L13933.5312,-3540.2634"/>
<path content="AP030,1,28,1,0,15,1,8,JPN" xlink:title="AP030" d="M13941.2323,-3540.2592L13942.2806,-3540.2866"/>
<path content="AP030,1,28,1,0,15,1,8,JPN" xlink:title="AP030" d="M13941.2323,-3540.2592L13941.5314,-3540.8783L13942.1677,-3542.1932L13943.3563,-3543.0302"/>
<path content="AP030,1,28,1,0,15,1,8,JPN" xlink:title="AP030" d="M13940.6952,-3541.3303L13940.7043,-3540.8615L13940.9286,-3540.6052L13941.2323,-3540.2592"/>
<path content="AP030,1,28,1,0,14,1,8,JPN" xlink:title="AP030" d="M13933.58,-3540.2267L13933.6807,-3540.3732L13934.0393,-3540.5865L13934.61,-3540.9267L13934.79,-3541.0934L13934.9304,-3541.3067L13935.2005,-3541.6866L13935.2707,-3541.7599L13935.3806,-3541.7934L13935.3806,-3541.8533"/>
<path content="AP030,1,28,1,0,15,1,8,JPN" xlink:title="AP030" d="M13933.5312,-3540.2634L13933.58,-3540.2267"/>
<path content="AP030,1,28,1,0,15,1,8,JPN" xlink:title="AP030" d="M13942.8345,-3540.0848L13944.1345,-3540.4312"/>
<path content="AP030,1,28,1,0,15,1,8,JPN" xlink:title="AP030" d="M13942.2806,-3540.2866L13942.8345,-3540.0848"/>
<path content="AP030,1,28,1,0,14,1,8,JPN" xlink:title="AP030" d="M13930.4306,-3540.0799L13930.5603,-3540.1199L13930.9692,-3540.2599L13931.2393,-3540.3866L13931.7398,-3540.6067L13932.5638,-3540.9832"/>
<path content="AP030,1,28,1,0,15,1,8,JPN" xlink:title="AP030" d="M13930.365,-3541.0091L13930.4306,-3540.0799"/>
<path content="AP030,1,28,1,0,15,1,8,JPN" xlink:title="AP030" d="M13933.58,-3540.2267L13934.8251,-3540.0795L13936.1496,-3540.4999"/>
<path content="AP030,1,28,1,0,14,1,8,JPN" xlink:title="AP030" d="M13929.8096,-3539.8998L13930.4306,-3540.0799"/>
<path content="AP030,1,28,1,0,16,1,8,JPN" xlink:title="AP030" d="M13927.9907,-3539.0934L13928.0594,-3539.1666L13928.4698,-3539.6332L13928.7003,-3539.9532L13929.0207,-3540.2802L13929.3304,-3540.5533L13929.7897,-3540.8001L13930.2002,-3540.9866"/>
<path content="AP030,1,28,1,0,14,1,8,JPN" xlink:title="AP030" d="M13927.9907,-3539.0934L13928.1097,-3539.0934L13928.1799,-3539.0934L13928.27,-3539.1266L13929.0802,-3539.6133L13929.3594,-3539.7732L13929.5593,-3539.8335L13929.8096,-3539.8998"/>
<path content="AP030,1,28,1,0,14,1,8,JPN" xlink:title="AP030" d="M13951.9699,-3538.8199L13952.1805,-3538.8401L13952.3804,-3538.9668L13952.6306,-3539.18L13952.7695,-3539.22L13952.8107,-3539.2334L13952.9495,-3539.3467L13952.9694,-3539.4001L13952.9907,-3539.6534L13953.1097,-3540.0265L13953.1494,-3540.1333L13953.2196,-3540.1932L13953.4164,-3540.25L13953.5202,-3540.2802"/>
<path content="AP030,1,28,1,0,14,1,8,JPN" xlink:title="AP030" d="M13951.9699,-3538.8199L13952.1103,-3538.9999L13952.2202,-3539.1068L13952.5192,-3539.3265L13952.6306,-3539.4531L13952.7405,-3539.6534L13952.7893,-3539.7934L13952.7893,-3539.92L13952.7405,-3540.1932L13952.7405,-3540.3332"/>
<path content="AP030,1,28,1,0,14,1,8,JPN" xlink:title="AP030" d="M13933.4732,-3540.3057L13933.4702,-3540.3L13933.4,-3540.1531L13933.4,-3539.8865L13933.4,-3539.7934L13933.3801,-3539.4665L13933.2901,-3539.2334L13933.0795,-3538.66L13933.0597,-3538.6066"/>
<path content="AP030,1,28,1,0,16,1,8,JPN" xlink:title="AP030" d="M13933.107,-3538.5727L13933.1497,-3538.6932L13933.2703,-3539.0202L13933.4305,-3539.4001L13933.4702,-3539.5599L13933.4702,-3539.8132L13933.4702,-3540.1333L13933.5205,-3540.2466L13933.5312,-3540.2634"/>
<path content="AP030,1,28,1,0,15,1,8,JPN" xlink:title="AP030" d="M13933.0597,-3538.6066L13933.107,-3538.5727"/>
<path content="AP030,1,28,1,0,14,1,8,JPN" xlink:title="AP030" d="M13933.1696,-3538.5258L13933.2001,-3538.6066L13933.2901,-3538.8931L13933.5205,-3539.4531L13933.5403,-3539.5931L13933.5403,-3540.1531L13933.58,-3540.2267"/>
<path content="AP030,1,28,1,0,15,1,8,JPN" xlink:title="AP030" d="M13933.107,-3538.5727L13933.1696,-3538.5258"/>
<path content="AP030,1,28,1,0,14,1,8,JPN" xlink:title="AP030" d="M13924.3805,-3538.3533L13924.8093,-3538.4266L13925.1099,-3538.4399L13925.5402,-3538.48L13925.7202,-3538.5334L13925.9003,-3538.6932L13926.1093,-3538.8L13926.5198,-3538.9267L13926.7197,-3538.9866L13927.1805,-3539.04L13927.8793,-3539.0934L13927.9907,-3539.0934"/>
<path content="AP030,1,28,1,0,15,1,8,JPN" xlink:title="AP030" d="M13922.9732,-3550.7812L13922.9507,-3550.6897L13922.9507,-3549.7505L13921.9803,-3549.028L13921.875,-3548.627M13921.875,-3542.3239L13922.5098,-3542.2375L13922.9507,-3542.0204L13921.9803,-3541.5871L13921.875,-3541.5296M13921.875,-3540.4312L13921.8918,-3540.4312L13922.4213,-3540.7925L13922.6852,-3541.0812L13923.4802,-3541.0812L13923.4802,-3540.2145L13924.0097,-3539.3475L13924.1867,-3538.842L13924.3805,-3538.3533"/>
<path content="AP030,1,28,1,0,14,1,8,JPN" xlink:title="AP030" d="M13921.875,-3538.0452L13922.6105,-3538.1332L13922.7005,-3538.1535L13922.9507,-3538.1535L13923.1995,-3538.0798L13923.3307,-3538.0264L13923.6099,-3538.0135L13923.8098,-3538.0798L13924.1104,-3538.2465L13924.3805,-3538.3533"/>
<path content="AP030,1,28,1,0,14,1,8,JPN" xlink:title="AP030" d="M13950.56,-3537.7068L13951.1307,-3537.9532L13951.2207,-3538.0466L13951.4297,-3538.2999L13951.6098,-3538.4266L13951.7395,-3538.5334L13951.8997,-3538.7333L13951.9699,-3538.8199"/>
<path content="AP030,1,28,1,0,14,1,8,JPN" xlink:title="AP030" d="M13936.1496,-3540.4999L13936.1298,-3538.6932L13936.1298,-3538.4079L13936.1298,-3537.5401"/>
<path content="AP030,1,28,1,0,15,1,8,JPN" xlink:title="AP030" d="M13933.1696,-3538.5258L13934.0683,-3537.8666L13934.8755,-3537.5496L13934.9396,-3537.5492L13936.1298,-3537.5401"/>
<path content="AP030,1,28,1,0,14,1,8,JPN" xlink:title="AP030" d="M13931.3095,-3537.2334L13931.7001,-3537.36L13932.1304,-3537.4866L13932.4005,-3537.5935L13932.5394,-3537.7068L13932.6492,-3537.7731L13932.8598,-3538.0798L13933.0597,-3538.6066"/>
<path content="AP030,1,28,1,0,15,1,8,JPN" xlink:title="AP030" d="M13930.4306,-3540.0799L13931.3599,-3539.4894L13931.7505,-3539.2406L13931.3095,-3537.2334"/>
<path content="AP030,1,28,1,0,16,1,8,JPN" xlink:title="AP030" d="M13931.2927,-3537.1269L13931.3599,-3537.2002L13931.4697,-3537.2334L13932.4295,-3537.5401L13932.5607,-3537.6331L13932.7393,-3537.7934L13932.8995,-3538.0466L13933.02,-3538.3331L13933.107,-3538.5727"/>
<path content="AP030,1,28,1,0,15,1,8,JPN" xlink:title="AP030" d="M13931.3095,-3537.2334L13931.2927,-3537.1269"/>
<path content="AP030,1,28,1,0,14,1,8,JPN" xlink:title="AP030" d="M13931.2698,-3536.9865L13931.4301,-3537.1666L13931.7703,-3537.2734L13932.3303,-3537.4332L13932.5394,-3537.5401L13932.6492,-3537.6133L13932.8094,-3537.7934L13932.8995,-3537.9002L13932.9697,-3538.0264L13933.0795,-3538.2801L13933.1696,-3538.5258"/>
<path content="AP030,1,28,1,0,15,1,8,JPN" xlink:title="AP030" d="M13931.2927,-3537.1269L13931.2698,-3536.9865"/>
<path content="AP030,1,28,1,0,15,1,8,JPN" xlink:title="AP030" d="M13938.6719,-3536.6005L13938.7421,-3536.6917L13939.7308,-3537.9898L13941.2323,-3540.2592"/>
<path content="AP030,1,28,1,0,15,1,8,JPN" xlink:title="AP030" d="M13938.3188,-3540.6269L13938.248,-3540.3643L13938.1156,-3539.8445L13938.2721,-3539.4234L13938.2736,-3539.3986L13938.3514,-3538.2996L13938.6444,-3536.7527L13938.6719,-3536.6005"/>
<path content="AP030,1,28,1,0,15,1,8,JPN" xlink:title="AP030" d="M13936.1298,-3537.5401L13937.8052,-3537.027L13938.6719,-3536.6005"/>
<path content="AP030,1,28,1,0,15,1,8,JPN" xlink:title="AP030" d="M13939.3112,-3536.2869L13939.4562,-3536.4578L13940.5151,-3537.5416L13941.6626,-3538.842L13942.2806,-3540.2866"/>
<path content="AP030,1,28,1,0,15,1,8,JPN" xlink:title="AP030" d="M13938.6719,-3536.6005L13939.3112,-3536.2869"/>
<path content="AP030,1,28,1,0,14,1,8,JPN" xlink:title="AP030" d="M13930.4001,-3536.2267L13930.6793,-3536.5532L13931.1096,-3537.0201L13931.3095,-3537.2334"/>
<path content="AP030,1,28,1,0,15,1,8,JPN" xlink:title="AP030" d="M13929.8096,-3539.8998L13930.0339,-3539.2632L13930.0217,-3538.8939L13929.9637,-3537.1532L13930.4001,-3536.2267"/>
<path content="AP030,1,28,1,0,15,1,8,JPN" xlink:title="AP030" d="M13955.9616,-3536.1691L13957.0313,-3536.7357"/>
<path content="AP030,1,28,1,0,16,1,8,JPN" xlink:title="AP030" d="M13924.8596,-3535.9531L13925.4303,-3536.2064L13925.9003,-3536.6199L13925.9521,-3536.6829L13926.1093,-3536.8732L13926.7395,-3537.8132L13926.9897,-3538.0798L13927.24,-3538.3331L13927.6505,-3538.7333L13927.9907,-3539.0934"/>
<path content="AP030,1,28,1,0,15,1,8,JPN" xlink:title="AP030" d="M13921.875,-3537.8149L13923.3032,-3536.747L13924.3622,-3536.3132L13924.5361,-3536.1877L13924.8596,-3535.9531"/>
<path content="AP030,1,28,1,0,15,1,8,JPN" xlink:title="AP030" d="M13955.0781,-3535.6632L13955.9616,-3536.1691"/>
<path content="AP030,1,28,1,0,15,1,8,JPN" xlink:title="AP030" d="M13953.5202,-3540.2802L13953.7292,-3539.2456L13953.7415,-3538.5426L13953.7552,-3537.8399L13954.0482,-3537.4214L13954.5761,-3536.7249L13954.6066,-3536.66L13955.0781,-3535.6632"/>
<path content="AP030,1,28,1,0,15,1,8,JPN" xlink:title="AP030" d="M13950.56,-3537.7068L13951.4221,-3537.0613L13952.2934,-3536.4159L13953.0228,-3536.1702L13953.0991,-3536.1446L13955.0781,-3535.6632"/>
<path content="AP030,1,28,1,0,15,1,8,JPN" xlink:title="AP030" d="M13939.3112,-3536.2869L13938.6612,-3535.5186"/>
<path content="AP030,1,28,1,0,15,1,8,JPN" xlink:title="AP030" d="M13938.6612,-3535.5186L13938.6719,-3536.6005"/>
<path content="AP030,1,28,1,0,16,1,8,JPN" xlink:title="AP030" d="M13929.8798,-3535.4L13930.5405,-3536.2465L13930.6305,-3536.4067L13931.2927,-3537.1269"/>
<path content="AP030,1,28,1,0,14,1,8,JPN" xlink:title="AP030" d="M13930.4001,-3536.2267L13930.2902,-3536.1935L13930.2902,-3536.0466L13929.8798,-3535.4"/>
<path content="AP030,1,28,1,0,15,1,8,JPN" xlink:title="AP030" d="M13924.8596,-3535.9531L13926.3931,-3535.7353L13927.5406,-3535.5186L13928.8651,-3535.5186L13929.8798,-3535.4"/>
<path content="AP030,1,28,1,0,16,1,8,JPN" xlink:title="AP030" d="M13923.3597,-3535.2001L13923.8098,-3535.36L13924.1302,-3535.6335L13924.4293,-3535.7933L13924.8596,-3535.9531"/>
<path content="AP030,1,28,1,0,14,1,8,JPN" xlink:title="AP030" d="M13947.8302,-3535.0399L13948.0392,-3535.0533L13948.1995,-3535.1467L13948.9899,-3535.7201L13949.4705,-3536.0802L13949.6796,-3536.2801L13949.7696,-3536.4067L13949.9496,-3536.6798L13950.0595,-3536.8732L13950.56,-3537.7068"/>
<path content="AP030,1,28,1,0,14,1,8,JPN" xlink:title="AP030" d="M13946.9696,-3541.1186L13946.9696,-3540.7467L13946.9696,-3540.6933L13946.9498,-3540.2267L13946.9498,-3540.0467L13946.9498,-3539.7934L13946.9971,-3539.6446L13947.11,-3539.2864L13947.1802,-3539.04L13947.3099,-3538.66L13947.58,-3537.9532L13947.8104,-3537.2734L13947.8607,-3537.0731L13947.8607,-3536.4399L13947.8607,-3536.2801L13947.8607,-3535.9531L13947.7905,-3535.6533L13947.7905,-3535.4866L13947.7905,-3535.3466L13947.8104,-3535.2531L13947.8302,-3535.0399"/>
<path content="AP030,1,28,1,0,15,1,8,JPN" xlink:title="AP030" d="M13939.3112,-3536.2869L13939.6301,-3534.9865"/>
<path content="AP030,1,28,1,0,14,1,8,JPN" xlink:title="AP030" d="M13945.9,-3534.8598L13946.7896,-3534.9464L13946.9299,-3534.9667L13947.4823,-3535.0117L13947.8302,-3535.0399"/>
<path content="AP030,1,28,1,0,15,1,8,JPN" xlink:title="AP030" d="M13942.8345,-3540.0848L13943.9331,-3539.6851L13944.4687,-3538.6612L13945.1782,-3537.4516L13945.2026,-3536.1866L13945.3888,-3535.4389L13945.9,-3534.8598"/>
<path content="AP030,1,28,1,0,14,1,8,JPN" xlink:title="AP030" d="M13945.2698,-3534.8202L13945.9,-3534.8598"/>
<path content="AP030,1,28,1,0,16,1,8,JPN" xlink:title="AP030" d="M13940.2524,-3535.0384L13940.8408,-3534.9941L13941.4703,-3535.0201L13941.6794,-3534.9998L13942.6498,-3534.7668L13942.8802,-3534.7466L13943.9301,-3534.7466L13945.2698,-3534.8202"/>
<path content="AP030,1,28,1,0,14,1,8,JPN" xlink:title="AP030" d="M13947.8302,-3535.0399L13947.8806,-3534.6931L13948.0804,-3534.7332L13948.3093,-3534.7134L13948.4497,-3534.66L13948.6298,-3534.5333"/>
<path content="AP030,1,28,1,0,14,1,8,JPN" xlink:title="AP030" d="M13948.6298,-3534.5333L13948.88,-3534.1934L13948.9899,-3534.0134L13949.0204,-3533.9535"/>
<path content="AP030,1,28,1,0,15,1,8,JPN" xlink:title="AP030" d="M13954.4525,-3533.8772L13954.7256,-3534.724L13955.0781,-3535.6632"/>
<path content="AP030,1,28,1,0,15,1,8,JPN" xlink:title="AP030" d="M13948.6298,-3534.5333L13950.6058,-3534.8015L13952.2079,-3534.7744L13952.4841,-3534.6542L13952.8778,-3534.4833L13953.3615,-3534.2728L13954.4525,-3533.8772"/>
<path content="AP030,1,28,1,0,16,1,8,JPN" xlink:title="AP030" d="M13921.875,-3535.0998L13921.9498,-3535.0933L13922.2702,-3535.0533L13922.6501,-3535.0533L13922.9904,-3535.0735L13923.1293,-3535.1265L13923.3597,-3535.2001"/>
<path content="AP030,1,28,1,0,14,1,8,JPN" xlink:title="AP030" d="M13949.0204,-3533.9535L13949.0143,-3533.8978L13948.9899,-3533.6533L13949.0204,-3533.5934"/>
<path content="AP030,1,28,1,0,15,1,8,JPN" xlink:title="AP030" d="M13955.9616,-3536.1691L13957.0312,-3536.1876"/>
<path content="AP030,1,28,1,0,15,1,8,JPN" xlink:title="AP030" d="M13931.2698,-3536.9865L13932.3914,-3535.9688L13932.4387,-3535.778L13933.0124,-3533.4957"/>
<path content="AP030,1,28,1,0,15,1,8,JPN" xlink:title="AP030" d="M13929.8798,-3535.4L13931.3354,-3535.1574L13931.4865,-3534.9598L13931.7764,-3534.5795L13932.4829,-3534.0015L13933.0124,-3533.4957"/>
<path content="AP030,1,28,1,0,14,1,8,JPN" xlink:title="AP030" d="M13940.6799,-3533.3599L13940.8096,-3533.4133L13940.9607,-3533.4549L13941.2201,-3533.5266L13941.4703,-3533.6132L13941.5802,-3533.6533L13941.7404,-3533.7399L13942.2195,-3533.8333L13942.4301,-3533.8135L13942.6102,-3533.7734L13942.8802,-3533.72L13943.0405,-3533.7601L13943.2205,-3533.8333L13943.6295,-3534.1L13943.8095,-3534.2602L13944.0201,-3534.3735L13944.1299,-3534.3864L13944.4901,-3534.4398L13944.6793,-3534.5333L13944.8807,-3534.6199L13945.2698,-3534.8202"/>
<path content="AP030,1,28,1,0,15,1,8,JPN" xlink:title="AP030" d="M13939.6301,-3534.9865L13940.6799,-3533.3599"/>
<path content="AP030,1,28,1,0,16,1,8,JPN" xlink:title="AP030" d="M13939.3057,-3535.0091L13939.1098,-3534.7668L13939.0396,-3534.66L13938.9496,-3534.4799L13938.5605,-3533.6533L13938.3606,-3533.3065"/>
<path content="AP030,1,28,1,0,14,1,8,JPN" xlink:title="AP030" d="M13936.1298,-3537.5401L13936.1298,-3536.9465L13936.0596,-3536.2598L13935.9497,-3536.1534L13935.8307,-3535.9932L13935.7193,-3535.7201L13935.5804,-3535.2734L13935.6995,-3534.0466L13935.7895,-3533.6533L13935.8994,-3533.2867"/>
<path content="AP030,1,28,1,0,14,1,8,JPN" xlink:title="AP030" d="M13937.7899,-3533.2531L13938.2904,-3533.3065L13938.3606,-3533.3065"/>
<path content="AP030,1,28,1,0,15,1,8,JPN" xlink:title="AP030" d="M13938.6612,-3535.5186L13938.0432,-3534.5074L13937.9547,-3533.9294L13937.7899,-3533.2531"/>
<path content="AP030,1,28,1,0,14,1,8,JPN" xlink:title="AP030" d="M13935.8994,-3533.2867L13936.1801,-3533.2333L13936.2198,-3533.2001L13936.29,-3533.1467L13936.7905,-3533.1799L13937.3993,-3533.2199L13937.7899,-3533.2531"/>
<path content="AP030,1,28,1,0,14,1,8,JPN" xlink:title="AP030" d="M13933.6502,-3533.1066L13934.0195,-3533.2199L13934.4299,-3533.2867L13934.5596,-3533.3065L13934.7,-3533.3263L13934.8099,-3533.3263L13935.0403,-3533.3466L13935.4294,-3533.3599L13935.6506,-3533.3466L13935.6995,-3533.3466L13935.8994,-3533.2867"/>
<path content="AP030,1,28,1,0,15,1,8,JPN" xlink:title="AP030" d="M13933.0124,-3533.4957L13933.6502,-3533.1066"/>
<path content="AP030,1,28,1,0,14,1,8,JPN" xlink:title="AP030" d="M13938.3606,-3533.3065L13938.8107,-3533.2733L13938.9297,-3533.2001L13939.0198,-3533.1066L13939.1296,-3532.9865L13939.2197,-3532.9132L13939.4501,-3532.9266L13939.5203,-3532.9464L13939.83,-3533.073L13939.8605,-3533.0933L13940.0803,-3533.1665L13940.2893,-3533.2333L13940.6799,-3533.3599"/>
<path content="AP030,1,28,1,0,16,1,8,JPN" xlink:title="AP030" d="M13937.5793,-3532.0267L13937.6801,-3532.1198L13937.7701,-3532.2464L13937.8296,-3532.5531L13937.8998,-3532.6199L13938.1104,-3532.8598L13938.15,-3532.9155L13938.2401,-3533.0399L13938.3606,-3533.3065"/>
<path content="AP030,1,28,1,0,15,1,8,JPN" xlink:title="AP030" d="M13945.1492,-3531.9L13946.6934,-3532.7011L13947.58,-3533.1478L13947.8409,-3533.279L13948.7106,-3533.7765L13948.9426,-3533.9088L13949.0204,-3533.9535"/>
<path content="AP030,1,28,1,0,14,1,8,JPN" xlink:title="AP030" d="M13937.5793,-3532.0267L13937.7197,-3532.0133L13937.8296,-3531.9733L13937.9898,-3531.8466L13938.1302,-3531.72L13938.2706,-3531.6864L13938.3301,-3531.6864L13938.7207,-3531.6864L13939.0396,-3531.7066L13939.3295,-3531.7398L13939.4302,-3531.76L13939.7903,-3531.813L13939.9704,-3531.8333L13939.9902,-3531.8333L13940.5594,-3531.8466L13940.8798,-3531.8333L13941.0797,-3531.813L13941.3605,-3531.7932L13941.5802,-3531.7932L13941.9006,-3531.7932L13941.9495,-3531.7932L13942.7399,-3531.9401L13943.2693,-3531.9733L13943.4296,-3531.9733L13944.0399,-3532.0133L13944.4504,-3532.0267L13945.1492,-3531.9"/>
<path content="AP030,1,28,1,0,14,1,8,JPN" xlink:title="AP030" d="M13936.2198,-3531.6666L13936.3297,-3531.6864L13936.6501,-3531.76L13936.9003,-3531.8333L13937.5793,-3532.0267"/>
<path content="AP030,1,28,1,0,14,1,8,JPN" xlink:title="AP030" d="M13935.8994,-3533.2867L13935.9497,-3533.1264L13936.0031,-3532.8602L13936.0397,-3532.6797L13936.1099,-3532.373L13936.1298,-3532.2464L13936.1496,-3532.1934L13936.2,-3531.8333L13936.2198,-3531.6666"/>
<path content="AP030,1,28,1,0,14,1,8,JPN" xlink:title="AP030" d="M13933.6502,-3533.1066L13933.6105,-3533.0933L13933.3603,-3532.84L13933.3099,-3532.7465L13933.2397,-3532.6199L13933.2001,-3532.5333L13933.1299,-3532.5001L13933.0597,-3532.46L13932.8293,-3532.32L13932.8094,-3532.2998L13932.7194,-3532.2464L13932.4005,-3532.0999L13932.2693,-3531.9931L13932.2403,-3531.8466L13932.2037,-3531.7535L13932.1503,-3531.6132"/>
<path content="AP030,1,28,1,0,14,1,8,JPN" xlink:title="AP030" d="M13933.0597,-3531.3801L13933.4503,-3531.4331L13933.58,-3531.4533L13934.0195,-3531.4533L13934.52,-3531.5063L13934.8602,-3531.5399L13935.0403,-3531.5598L13935.4294,-3531.58L13935.6094,-3531.58L13936.0397,-3531.6132L13936.2198,-3531.6666"/>
<path content="AP030,1,28,1,0,14,1,8,JPN" xlink:title="AP030" d="M13932.1503,-3531.6132L13932.3105,-3531.6666L13932.6996,-3531.6864L13932.8293,-3531.6666L13932.8796,-3531.6132L13933.0597,-3531.3801"/>
<path content="AP030,1,28,1,0,14,1,8,JPN" xlink:title="AP030" d="M13931.6803,-3531.1264L13931.8802,-3531.3465L13931.9,-3531.3999L13932.0404,-3531.58L13932.1503,-3531.6132"/>
<path content="AP030,1,28,1,0,14,1,8,JPN" xlink:title="AP030" d="M13932.2205,-3531.1066L13932.7194,-3531.2733L13933.0597,-3531.3801"/>
<path content="AP030,1,28,1,0,16,1,8,JPN" xlink:title="AP030" d="M13924.7894,-3531.0932L13925.1099,-3531.1466L13925.3601,-3531.2L13925.6302,-3531.2L13925.7401,-3531.2199L13925.9705,-3531.3065L13926.2207,-3531.3999L13926.5594,-3531.5399L13926.7899,-3531.7066L13926.9897,-3531.8333L13927.2705,-3531.9199L13927.3605,-3531.9401L13927.6794,-3532.0999L13927.8793,-3532.2464L13928.0594,-3532.4265L13928.2898,-3532.6065L13928.54,-3532.7332L13928.8803,-3532.8598L13929.0604,-3533.02L13929.3594,-3533.3599L13929.5593,-3533.6533L13929.5807,-3533.9401L13929.6097,-3534.2464L13929.6494,-3534.6401L13929.7394,-3535.1067L13929.8798,-3535.4"/>
<path content="AP030,1,28,1,0,15,1,8,JPN" xlink:title="AP030" d="M13923.3597,-3535.2001L13923.9212,-3533.7849L13924.0097,-3532.629L13924.0982,-3531.6177L13924.7894,-3531.0932"/>
<path content="AP030,1,28,1,0,14,1,8,JPN" xlink:title="AP030" d="M13931.6803,-3531.1264L13931.8604,-3531.0734L13931.9305,-3531.0734L13932.1304,-3531.1264L13932.2205,-3531.1066"/>
<path content="AP030,1,28,1,0,15,1,8,JPN" xlink:title="AP030" d="M13949.0204,-3533.5934L13950.8057,-3533.2573L13951.6708,-3532.9258L13952.9373,-3532.4398L13953.537,-3531.126L13953.6102,-3530.9666"/>
<path content="AP030,1,28,1,0,15,1,8,JPN" xlink:title="AP030" d="M13954.4525,-3533.8772L13954.2847,-3533.3515L13954.9026,-3532.7011L13954.8996,-3531.813L13954.9026,-3531.6898L13954.6295,-3530.8933"/>
<path content="AP030,1,28,1,0,14,1,8,JPN" xlink:title="AP030" d="M13953.6102,-3530.9666L13953.7399,-3530.9998L13954.0207,-3531.02L13954.0802,-3530.9998L13954.4296,-3530.9464L13954.6295,-3530.8933"/>
<path content="AP030,1,28,1,0,14,1,8,JPN" xlink:title="AP030" d="M13949.0204,-3533.5934L13948.8998,-3533.2733L13948.88,-3533.1467L13948.7396,-3532.46L13948.6801,-3531.9401L13948.7,-3531.4133L13948.7198,-3531.3801L13948.79,-3531.2531L13948.8297,-3531.2199L13948.88,-3531.1798L13949.0601,-3531.1264L13949.0799,-3531.1066L13949.2905,-3530.9464L13949.3286,-3530.9082L13949.6307,-3530.6599"/>
<path content="AP030,1,28,1,0,14,1,8,JPN" xlink:title="AP030" d="M13945.1492,-3531.9L13945.3598,-3531.8867L13945.4895,-3531.8665L13945.9305,-3531.7932L13946.2006,-3531.76L13946.3806,-3531.7066L13946.5195,-3531.6864L13946.9894,-3531.6666L13947.0398,-3531.6532L13947.1298,-3531.5933L13947.5204,-3531.3599L13947.8607,-3531.0734L13948.0392,-3530.9132L13948.0392,-3530.8933L13948.2193,-3530.7331L13948.3795,-3530.6931L13948.4695,-3530.6931L13948.5596,-3530.6931L13948.735,-3530.7739L13948.9899,-3530.7999L13949.1104,-3530.7865L13949.2004,-3530.7667L13949.3805,-3530.64L13949.4293,-3530.6198L13949.6094,-3530.64L13949.6307,-3530.6599"/>
<path content="AP030,1,28,1,0,14,1,8,JPN" xlink:title="AP030" d="M13928.5599,-3530.3864L13928.83,-3530.3864L13929.1794,-3530.3734L13929.3304,-3530.4264L13929.4296,-3530.4798L13930.2399,-3530.6599L13930.6793,-3530.7667L13930.8105,-3530.7865L13930.9692,-3530.7865L13931.0806,-3530.7865L13931.3293,-3530.7667L13931.4499,-3530.7865L13931.5399,-3530.9666L13931.6803,-3531.1264"/>
<path content="AP030,1,28,1,0,14,1,8,JPN" xlink:title="AP030" d="M13949.6307,-3530.6599L13949.8596,-3530.6931L13950.65,-3530.5866L13950.9903,-3530.5531L13951.0803,-3530.5332L13951.2207,-3530.5134L13951.4297,-3530.4398L13951.6495,-3530.3734L13951.8295,-3530.3532L13952.1301,-3530.3532L13952.3102,-3530.32L13952.5604,-3530.2799L13952.7206,-3530.2799L13953.0396,-3530.3768L13953.1799,-3530.46L13953.2898,-3530.6198L13953.3798,-3530.8399L13953.4897,-3530.9265L13953.6102,-3530.9666"/>
<path content="AP030,1,28,1,0,14,1,8,JPN" xlink:title="AP030" d="M13928.7338,-3530.1083L13928.8177,-3530.1208L13929.3381,-3530.2238L13930.2704,-3530.4264L13930.7404,-3530.5134L13930.9906,-3530.5531L13931.0394,-3530.5531L13931.1493,-3530.5664L13931.4377,-3530.5862L13931.6299,-3530.5866L13931.7398,-3530.6931L13931.9702,-3531.02L13932.2205,-3531.1066"/>
<path content="AP030,1,28,1,0,14,1,8,JPN" xlink:title="AP030" d="M13928.5599,-3530.3864L13928.5599,-3530.3333L13928.6301,-3530.2265L13928.7338,-3530.1083"/>
<path content="AP030,1,28,1,0,14,1,8,JPN" xlink:title="AP030" d="M13926.2405,-3529.8664L13926.8799,-3530.1533L13927.1805,-3530.32L13927.5803,-3530.3864L13927.6093,-3530.3864L13927.7695,-3530.4066L13927.8793,-3530.4066L13928.5599,-3530.3864"/>
<path content="AP030,1,28,1,0,16,1,8,JPN" xlink:title="AP030" d="M13926.3535,-3529.6585L13927.3438,-3529.8191L13928.2028,-3529.9992L13928.7338,-3530.1083"/>
<path content="AP030,1,28,1,0,14,1,8,JPN" xlink:title="AP030" d="M13926.2405,-3529.8664L13926.3535,-3529.6585"/>
<path content="AP030,1,28,1,0,16,1,8,JPN" xlink:title="AP030" d="M13921.875,-3530.1492L13922.02,-3530.2601L13922.4701,-3530.46L13922.5403,-3530.5L13922.7905,-3530.5866L13923.3093,-3530.7465L13923.6298,-3530.8201L13923.8602,-3530.7999L13924.0204,-3530.8201L13924.1806,-3530.8399L13924.4293,-3530.9666L13924.7894,-3531.0932"/>
<path content="AP030,1,28,1,0,14,1,8,JPN" xlink:title="AP030" d="M13954.6295,-3530.8933L13955.0598,-3530.6065L13955.1498,-3530.5332L13955.2399,-3530.46L13955.2704,-3530.2998L13955.2902,-3530.2464L13955.5801,-3530.0266L13955.8304,-3529.7932L13956.1096,-3529.4331L13956.1996,-3529.3465L13956.3095,-3529.3064L13956.5598,-3529.3064L13956.7398,-3529.4533L13956.8298,-3529.4865L13957.0313,-3529.4374"/>
<path content="AP030,1,28,1,0,14,1,8,JPN" xlink:title="AP030" d="M13921.875,-3528.254L13921.933,-3528.2734L13922.2229,-3528.4534L13922.6135,-3528.5801L13923.0026,-3528.7735L13923.2025,-3528.8467L13923.3521,-3528.933L13923.4665,-3528.9787L13923.6298,-3528.9864L13923.7701,-3529.0398L13924.1302,-3529.1798L13924.6506,-3529.3999L13924.6796,-3529.3999L13925.6104,-3529.6532L13925.9003,-3529.7398L13926.2405,-3529.8664"/>
<path content="AP030,1,28,1,0,16,1,8,JPN" xlink:title="AP030" d="M13921.875,-3528.101L13922.0505,-3528.162L13922.1588,-3528.2135L13922.2443,-3528.2478L13922.3297,-3528.2822L13922.4731,-3528.3173L13922.5937,-3528.3569L13922.6639,-3528.3772L13922.8134,-3528.4637L13923.5016,-3528.7388L13924.9893,-3529.2732L13925.1495,-3529.3064L13925.4898,-3529.3999L13925.9903,-3529.5067L13926.3535,-3529.6585"/>
<path content="AP030,1,28,1,1,16,1,8,JPN" xlink:title="AP030" d="M13936.5533,-3550.7813L13936.6264,-3550.6647L13936.5342,-3550.0654L13936.9433,-3548.9649L13937.2717,-3548.0717L13937.7557,-3546.758L13937.7154,-3546.3892L13937.5252,-3546.1991L13937.289,-3546.0493L13937.2141,-3545.7727L13937.3581,-3545.45L13937.4446,-3545.2714L13937.4676,-3545.0755L13937.3639,-3544.9026L13937.6462,-3543.8827L13937.5771,-3542.2264"/>
<path content="AP030,1,28,1,1,16,1,8,JPN" xlink:title="AP030" d="M13937.5771,-3542.2264L13937.2026,-3541.3128L13937.2832,-3540.7654L13937.5771,-3540.1201L13937.7903,-3539.3134L13937.8594,-3538.4664L13937.4619,-3537.2852L13937.3063,-3536.7032L13937.3581,-3536.3632L13937.5829,-3536.0117L13937.7212,-3535.2857L13938.8159,-3535.0898L13939.3057,-3535.0091"/>
<path content="AP030,1,28,1,0,16,1,8,JPN" xlink:title="AP030" d="M13940.2524,-3535.0384L13939.6946,-3535.079L13939.3057,-3535.0091"/>
<path content="AP030,1,28,1,0,14,1,8,JPN" xlink:title="AP030" d="M13936.0794,-3541.9399L13936.3098,-3541.4001"/>
</g>
</svg>
