<?xml version="1.0" encoding="UTF-8"?>
<svg  xmlns="http://www.w3.org/2000/svg" xmlns:xlink="http://www.w3.org/1999/xlink" xmlns:go="http://purl.org/svgmap/profile" property="f_code,acc,exs,rst,med,rtt,RSU,loc,soc" viewBox="14484.375 -4500.0 140.625 140.625" go:dataArea="14484.375 -4500.0 140.625 140.625" >
<metadata>
 <rdf:RDF xmlns:rdf="http://www.w3.org/1999/02/22-rdf-syntax-ns#" xmlns:crs="http://opengis.org/xmldtds/transformations.dtd" xmlns:svg="http://www.w3.org/svg" >
  <rdf:Description>
   <crs:CoordinateReferenceSystem rdf:resource="http://purl.org/crs/84" svg:transform="matrix(100.0,0.0,0.0,-100.0,0.0,0.0)" />
  </rdf:Description>
 </rdf:RDF>
</metadata>
<globalCoordinateSystem srsName="http://purl.org/crs/84" transform="matrix(100.0,0.0,0.0,-100.0,0.0,0.0)" />
<defs>
 <g id="p0" >
  <circle cx="0.0" cy="0.0" r="3" stroke="green" stroke-width="2.0" vector-effect="non-scaling-stroke" />
 </g>
</defs>
<g fill="none" fill-rule="evenodd" stroke="#00ff00" stroke-width="2" opacity="0.5" vector-effect="non-scaling-stroke" stroke-linejoin="bevel" >
<path content="AP030,1,28,1,0,15,1,8,JPN" xlink:title="AP030" d="M14502.8595,-4409.1267L14503.9715,-4409.5978L14505.2237,-4409.9798L14506.2927,-4410.1183L14505.9832,-4410.6069L14507.4432,-4411.3432L14508.1987,-4411.1466L14509.631,-4412.0407L14510.8676,-4412.8017L14511.2164,-4413.6895L14511.6925,-4414.2136L14516.1944,-4417.431"/>
<path content="AP030,1,28,1,0,15,1,8,JPN" xlink:title="AP030" d="M14518.9301,-4402.3201L14520.2972,-4402.8206L14522.9752,-4404.9507L14524.1058,-4406.625L14523.7534,-4408.3542L14524.3347,-4410.2417L14524.939,-4411.6024L14526.5228,-4413.9561L14528.54,-4415.1836L14529.5029,-4416.1964L14532.4707,-4419.3172"/>
<path content="AP030,1,28,1,0,14,1,8,JPN" xlink:title="AP030" d="M14502.3804,-4408.9466L14502.5406,-4408.9867L14502.6993,-4409.0534L14502.8595,-4409.1267"/>
<path content="AP030,1,28,1,0,14,1,8,JPN" xlink:title="AP030" d="M14484.375,-4396.5281L14484.8099,-4396.9467L14485.0403,-4397.1798L14485.1807,-4397.253L14485.3806,-4397.2866L14485.7193,-4397.3267L14485.9695,-4397.3801L14486.1496,-4397.4331L14486.2396,-4397.5266L14486.3297,-4397.6131L14486.4304,-4397.72L14486.5204,-4397.76L14486.8301,-4397.8664L14487.6801,-4398.1533L14487.8098,-4398.2067L14487.8799,-4398.2468L14487.9303,-4398.32L14487.9898,-4398.3532L14488.0798,-4398.373L14488.2202,-4398.3868L14488.2904,-4398.4398L14488.4293,-4398.5867L14488.6093,-4398.8197L14488.6993,-4398.9265L14488.8107,-4398.9864L14488.9496,-4398.9998L14489.1098,-4399.02L14489.3097,-4399.1264L14489.8605,-4399.4667L14490.2405,-4399.7398L14490.3793,-4399.8466L14490.4495,-4399.8867L14490.4907,-4399.9531L14490.5594,-4400.0465L14490.6998,-4400.1331L14490.8997,-4400.2464L14491.1102,-4400.3201L14491.2903,-4400.4066L14491.4902,-4400.5333L14491.6306,-4400.7465L14491.7404,-4400.84L14491.8793,-4400.9869L14491.9495,-4401.1066L14492.0807,-4401.3065L14492.1494,-4401.4L14492.3599,-4401.5598L14492.63,-4401.8867L14492.8101,-4402.2068L14492.9703,-4402.5665L14493.1793,-4402.9865L14493.2205,-4403.1666L14493.2404,-4403.4866L14493.3105,-4403.6331L14493.4692,-4403.8868L14493.5806,-4403.9532L14493.6096,-4403.9932L14493.6493,-4404.0268L14493.7897,-4404.0798L14493.9896,-4404.1L14494.0765,-4404.052L14494.1788,-4403.9639L14494.3115,-4403.8898L14494.6503,-4403.9047L14494.8105,-4404.1199L14494.9707,-4404.2465L14495.0806,-4404.3533L14495.2194,-4404.4266L14495.43,-4404.5132L14495.5399,-4404.62L14495.7199,-4404.7867L14495.8099,-4404.8401L14495.99,-4404.9133L14496.1502,-4405.0934L14496.3303,-4405.3467L14496.4005,-4405.4134L14496.5195,-4405.5267L14496.6507,-4405.5935L14496.8994,-4405.6866L14497.1298,-4405.7598L14497.3297,-4405.8998L14497.5601,-4406.1001L14497.7707,-4406.2466L14497.9004,-4406.4602L14497.9507,-4406.5666L14498.0392,-4406.6067L14498.2193,-4406.6067L14498.5794,-4406.6067L14498.7396,-4406.6399L14499.1806,-4406.8401L14499.4293,-4406.9466L14499.5193,-4407.0202L14499.5804,-4407.1667L14499.5804,-4407.18L14499.6796,-4407.18L14499.9496,-4407.1999L14500.1495,-4407.2868L14500.1801,-4407.3269L14500.3098,-4407.4333L14500.3296,-4407.4669L14500.47,-4407.6134L14500.7004,-4407.7599L14500.9705,-4407.9201L14501.0605,-4408.0269L14501.1307,-4408.1532L14501.1795,-4408.2802L14501.2695,-4408.4068L14501.3596,-4408.4599L14501.4496,-4408.4999L14501.8097,-4408.4801L14501.8799,-4408.5133L14501.8799,-4408.5533L14501.7395,-4408.5869L14501.4893,-4408.68L14501.3596,-4408.7666L14501.3596,-4408.8402L14501.3794,-4408.8734L14501.4496,-4408.9134L14501.6998,-4408.9134L14502.1301,-4408.9134L14502.3804,-4408.9466"/>
<path content="AP030,1,28,1,0,14,1,8,JPN" xlink:title="AP030" d="M14518.9301,-4402.3201L14519.1101,-4402.2068L14519.4901,-4402.0466L14519.3604,-4401.9402L14519.2398,-4401.8131L14519.0735,-4401.5247L14518.9117,-4401.4091L14518.6813,-4401.2363L14518.5959,-4401.1864L14518.512,-4401.1169L14518.3594,-4401.0399L14518.2404,-4400.9666L14518.0405,-4400.6931L14517.9901,-4400.6065L14517.9703,-4400.4398L14517.9001,-4400.3201L14517.8802,-4400.2464L14517.8299,-4400.1732L14517.7704,-4400.0999L14517.3294,-4399.7601L14517.0593,-4399.633L14516.9296,-4399.5266L14516.8106,-4399.3999L14516.7404,-4399.2867L14516.5405,-4399.1467L14516.4001,-4399.0932L14516.3101,-4399.0398L14515.8295,-4398.6931L14515.5197,-4398.4398L14515.4495,-4398.373L14515.4007,-4398.2468L14515.3305,-4398.0801L14515.2695,-4397.9L14515.1993,-4397.6532L14515.1794,-4397.5597L14515.0803,-4397.4331L14514.8605,-4397.2866L14514.7202,-4397.2198L14514.4699,-4397.1268L14514.27,-4397.0398L14514.1296,-4396.9467L14514.0793,-4396.8731L14514.0594,-4396.7865L14514.0396,-4396.6599L14513.9893,-4396.5866L14513.9496,-4396.5332L14513.8107,-4396.4066L14513.7695,-4396.32L14513.6993,-4396.2067L14513.5803,-4396.08L14513.4506,-4395.8866L14513.4293,-4395.7932L14513.4003,-4395.6532L14513.3301,-4395.5265L14513.2004,-4395.3999L14513.0203,-4395.2732L14512.8998,-4395.1668L14512.8098,-4395.0531L14512.7899,-4394.9867L14512.7899,-4394.8399L14512.7396,-4394.733L14512.6297,-4394.5667L14512.5198,-4394.4599L14512.4695,-4394.3733L14512.4695,-4394.3199L14512.4695,-4394.2066L14512.4893,-4394.0666L14512.4695,-4393.94L14512.3993,-4393.8866L14512.1094,-4393.7065L14511.7203,-4393.3598L14511.38,-4393.0401L14511.2396,-4392.8398L14510.9299,-4392.4267L14510.7193,-4392.0799L14510.6995,-4392.0467L14510.6506,-4391.9399L14510.6796,-4391.8465L14510.7193,-4391.7732L14510.7895,-4391.6664L14510.7895,-4391.5398L14510.7407,-4391.4867L14510.5804,-4391.4131L14510.4294,-4391.3597L14510.3607,-4391.3067L14510.3104,-4391.2197L14510.2402,-4391.1266L14510.1303,-4391.0534L14510.0204,-4391L14509.9701,-4390.9267L14509.9503,-4390.8398L14509.9899,-4390.4266L14509.9701,-4390.3732L14509.8999,-4390.3198L14509.8801,-4390.2267L14509.8999,-4390.1199L14509.8999,-4390.0665L14509.8297,-4390.0131L14509.5795,-4389.8331L14509.3796,-4389.6133L14509.2194,-4389.36L14509.1507,-4389.22L14509.1797,-4388.9668L14509.2697,-4388.6398L14509.3597,-4388.4399L14509.5398,-4388.2999L14509.61,-4388.1531L14509.5795,-4387.973L14509.52,-4387.833L14509.3597,-4387.6667L14509.1995,-4387.5065L14509.2194,-4387.273L14509.3094,-4386.8931L14509.4498,-4386.6932L14509.6497,-4386.4265L14509.7397,-4386.3197L14509.8099,-4386.1931L14509.7702,-4385.8334L14509.6802,-4385.3065L14509.5795,-4385.2333L14509.3994,-4385.0731L14509.3307,-4384.9667L14509.2896,-4384.84L14509.1507,-4384.2266L14508.7906,-4383.2199L14508.6304,-4382.9998L14508.4702,-4382.7465L14508.2901,-4382.3334L14508.1802,-4382.1198L14508.11,-4382.0465L14507.9697,-4381.9935L14507.6492,-4381.8867L14507.3105,-4381.7398L14507.2693,-4381.72L14506.9305,-4381.58L14506.6803,-4381.4133L14506.3995,-4381.2332L14506.2195,-4381.0734L14505.9494,-4380.7335L14505.8304,-4380.5332L14505.8105,-4380.4268L14505.8807,-4380.1533L14505.8807,-4380.1334L14505.9906,-4379.8466"/>
<path content="AP030,1,28,1,0,14,1,8,JPN" xlink:title="AP030" d="M14505.9906,-4379.8466L14505.9692,-4379.7398L14505.8594,-4379.6665L14505.7907,-4379.5933L14505.8304,-4379.5601L14506.0394,-4379.5067L14506.1096,-4379.4533L14506.0806,-4379.38L14506.0593,-4379.2866L14506.0593,-4379.2534L14506.1096,-4379.1798L14506.1295,-4379.1065L14506.0806,-4379.0531L14505.9296,-4378.9665L14505.8105,-4378.8399L14505.7907,-4378.7998L14505.7693,-4378.7334L14505.7205,-4378.6598L14505.6503,-4378.4599L14505.6793,-4378.3199L14505.7907,-4378.0998L14506.0196,-4377.7397L14506.1096,-4377.5799L14506.0806,-4377.3464L14506.0394,-4377.2732L14506.0196,-4377.1797L14506.0394,-4377.1065L14506.1295,-4376.9264L14506.1493,-4376.86L14506.1096,-4376.7334L14506.1096,-4376.6197L14506.1798,-4376.4599L14506.1996,-4376.3332L14506.2195,-4376.1532L14506.2393,-4376.0666L14506.4499,-4375.9399L14506.4896,-4375.8667L14506.5399,-4375.6535L14506.6101,-4375.1999L14506.6101,-4375.1801L14506.6803,-4374.9664"/>
<path content="AP030,1,28,1,0,15,1,8,JPN" xlink:title="AP030" d="M14502.9266,-4374.7917L14506.6803,-4374.9664"/>
<path content="AP030,1,28,1,0,15,1,8,JPN" xlink:title="AP030" d="M14502.9266,-4374.7917L14502.2552,-4379.9866L14505.9906,-4379.8466"/>
<path content="AP030,1,28,1,0,15,1,8,JPN" xlink:title="AP030" d="M14551.5747,-4374.7669L14552.2339,-4376.9226L14552.4551,-4377.9175L14553.3325,-4378.2486L14553.8818,-4378.7457L14554.3228,-4379.9892L14554.982,-4380.735L14556.7413,-4384.2167L14558.1696,-4386.2888L14559.2682,-4387.2833L14560.8063,-4388.1119L14562.0148,-4388.6086L14563.0035,-4389.769L14563.6627,-4390.432L14564.9811,-4391.0118L14566.391,-4391.1381L14567.6163,-4391.0107L14569.1528,-4391.3414L14570.3613,-4391.507L14571.46,-4391.5894L14573.6557,-4392.5831L14575.7431,-4393.3285L14577.2812,-4394.2398L14578.1601,-4395.1515L14578.0502,-4395.8145L14577.7206,-4396.727L14577.832,-4397.5559L14578.4912,-4398.5504L14580.1392,-4400.2083L14581.1279,-4401.6171L14582.4295,-4402.8519L14584.0942,-4403.5229"/>
<path content="AP030,1,28,1,0,15,1,8,JPN" xlink:title="AP030" d="M14493.8217,-4374.4362L14494.3634,-4374.7929L14495.0333,-4374.8768L14497.3389,-4375.0648L14497.3038,-4374.53L14502.9266,-4374.7917"/>
<path content="AP030,1,28,1,0,14,1,8,JPN" xlink:title="AP030" d="M14484.375,-4375.3487L14484.6802,-4375.2335L14484.8801,-4375.1667L14484.9701,-4375.1667L14485.2402,-4375.1801L14485.4004,-4375.1801L14486.3998,-4375.1667L14486.7401,-4375.1266L14487.2192,-4375.1465L14487.3993,-4375.1801L14487.5793,-4375.2197L14487.6801,-4375.2197L14487.9501,-4375.1999L14489.0396,-4375.1266L14489.9307,-4375.0732L14490.0208,-4375.0732L14490.3305,-4375.0534L14490.5396,-4375.0401L14490.6296,-4375L14490.86,-4374.7997L14490.95,-4374.7334L14491.2201,-4374.2798L14491.4001,-4374.0665L14491.7404,-4373.8865L14491.9006,-4373.7934L14492.1997,-4373.6668L14492.8299,-4373.5397L14493.1107,-4373.5268L14493.4006,-4373.5268L14493.5196,-4373.5268L14493.8599,-4373.5397L14494.1803,-4373.5065L14495.1492,-4373.3601L14495.99,-4373.2533L14496.2402,-4373.18L14496.4294,-4373.0732L14496.7194,-4372.86L14496.9696,-4372.6799L14497.0795,-4372.62"/>
<path content="AP030,1,28,1,0,15,1,8,JPN" xlink:title="AP030" d="M14503.8101,-4371.2334L14503.0029,-4372.3999L14502.9266,-4374.7917"/>
<path content="AP030,1,28,1,0,14,1,8,JPN" xlink:title="AP030" d="M14497.0795,-4372.62L14497.1497,-4372.5864L14497.4503,-4372.5533L14498.0392,-4372.44L14498.5199,-4372.3L14499.3301,-4372.2599L14499.6796,-4372.2065L14499.7894,-4372.1931L14499.9893,-4372.1733L14500.47,-4372.0467L14501.1505,-4371.8864L14503.2196,-4371.3799L14503.8101,-4371.2334"/>
<path content="AP030,1,28,1,0,14,1,8,JPN" xlink:title="AP030" d="M14506.6803,-4374.9664L14506.7902,-4374.6799L14507.0404,-4374.3534L14507.3593,-4374.0265L14507.5394,-4373.8335L14507.93,-4373.4665L14508.2001,-4373.2735L14508.3603,-4373.1667L14508.5403,-4373.04L14508.6105,-4372.9267L14508.58,-4372.8199L14508.5205,-4372.4266L14508.4702,-4372.2267L14508.5205,-4372.1199L14508.7708,-4372.0665L14509.2407,-4372.0264L14509.4498,-4371.9734L14509.4894,-4371.92L14509.7,-4371.4535L14510.0204,-4371.0533L14510.5606,-4370.3533L14511.2,-4369.4668"/>
<path content="AP030,1,28,1,0,14,1,8,JPN" xlink:title="AP030" d="M14503.8101,-4371.2334L14505.7907,-4370.7664L14506.3797,-4370.62L14509.1293,-4369.9532L14510.7697,-4369.5801L14511.2,-4369.4668"/>
<path content="AP030,1,28,1,0,14,1,8,JPN" xlink:title="AP030" d="M14511.2,-4369.4668L14511.29,-4369.36L14511.4502,-4369.1265L14512.0804,-4368.1732L14512.3795,-4367.6533L14512.6297,-4367.2333L14512.6999,-4367.0933L14512.6999,-4366.9865L14512.7701,-4366.84L14512.8799,-4366.6931L14512.9501,-4366.5333L14513.06,-4366.3734L14513.1104,-4366.2998L14513.1805,-4366.2266L14513.2202,-4366.0999L14513.2202,-4365.9733L14513.2706,-4365.58L14513.3606,-4365.3999L14513.4903,-4365.2199L14513.5406,-4365.1466L14513.5803,-4365.1066"/>
<path content="AP030,1,28,1,0,15,1,8,JPN" xlink:title="AP030" d="M14495.5353,-4362.772L14494.9554,-4362.7922L14495.8618,-4364.196L14493.2541,-4365.2149L14493.7759,-4366.9701L14493.3807,-4367.1528L14493.8004,-4367.3492L14494.1406,-4367.2108L14494.635,-4367.6582L14494.342,-4368.5127L14495.282,-4369.5354L14495.0668,-4370.6829L14497.0795,-4372.62"/>
<path content="AP030,1,28,1,0,15,1,8,JPN" xlink:title="AP030" d="M14495.5353,-4362.772L14496.2585,-4362.2826L14497.9843,-4362.0113L14499.1989,-4361.9267"/>
<path content="AP030,1,28,1,0,14,1,8,JPN" xlink:title="AP030" d="M14505.6107,-4359.7401L14506.1096,-4359.9934L14506.5399,-4360.2066L14506.5598,-4360.2264L14507.3105,-4360.6934L14507.6294,-4360.8932L14507.8293,-4361.0199L14508.02,-4361.0397L14508.2199,-4361.0001L14508.4503,-4361.0001L14508.49,-4361.0397L14508.5602,-4361.2L14508.7204,-4361.4864L14508.8104,-4361.5601L14508.9905,-4361.6333L14509.3307,-4361.7397L14509.4299,-4361.7931L14509.4696,-4361.9198L14509.6298,-4362.2799L14510.0403,-4362.5332L14510.1303,-4362.6064L14510.5392,-4362.9467L14510.7697,-4363.0932L14511.1099,-4363.2732L14511.4502,-4363.4865L14511.8103,-4363.7398L14512.2894,-4364.3333L14512.4893,-4364.5134L14512.7701,-4364.6198L14513.3102,-4364.7465L14513.4003,-4364.7865L14513.5803,-4365.1066"/>
<path content="AP030,1,28,1,0,15,1,8,JPN" xlink:title="AP030" d="M14491.2094,-4359.7126L14495.5353,-4362.772"/>
<path content="AP030,1,28,1,0,14,1,8,JPN" xlink:title="AP030" d="M14505.2185,-4359.375L14505.3101,-4359.4666L14505.4504,-4359.6535L14505.6107,-4359.7401"/>
<path content="AP030,1,28,1,0,15,1,8,JPN" xlink:title="AP030" d="M14499.1989,-4361.9267L14500.1541,-4361.4288L14501.2573,-4360.5457L14502.4918,-4361.6421L14505.0309,-4359.375"/>
<path content="AP030,1,28,1,0,15,1,8,JPN" xlink:title="AP030" d="M14487.785,-4359.375L14489.8743,-4360.6026L14491.2094,-4359.7126"/>
<path content="AP030,1,28,1,0,15,1,8,JPN" xlink:title="AP030" d="M14490.6907,-4359.375L14491.2094,-4359.7126"/>
<path content="AP030,1,28,1,0,15,1,8,JPN" xlink:title="AP030" d="M14498.1075,-4359.375L14498.3337,-4360.2684L14499.1989,-4361.9267"/>
<path content="AP030,1,28,1,0,15,1,8,JPN" xlink:title="AP030" d="M14491.2094,-4359.7126L14491.574,-4359.375"/>
<path content="AP030,1,28,1,0,14,1,8,JPN" xlink:title="AP030" d="M14513.5803,-4365.1066L14513.8992,-4364.8598L14514.4302,-4364.5866L14514.5401,-4364.5332L14515.1093,-4364.32L14515.5594,-4364.1335L14516.2201,-4363.9534L14516.3605,-4363.7932L14516.5207,-4363.6131L14516.5802,-4363.5265L14516.8106,-4363.3064L14517.2699,-4363.0398L14517.6804,-4362.8735L14517.7399,-4362.8201L14517.9306,-4362.5534L14518.0405,-4362.3333L14518.0405,-4362.1933L14518.0206,-4362.1532L14517.9001,-4361.7199L14517.9306,-4361.5067L14517.9901,-4361.38L14518.2404,-4361.2331L14518.4296,-4361.1668L14518.5806,-4361.1065L14518.6798,-4360.9867L14519.0399,-4360.6068L14519.1101,-4360.5L14519.1803,-4360.3001L14519.2703,-4360.1532L14519.5206,-4359.94L14519.9493,-4359.56L14520.2141,-4359.375"/>
<path content="AP030,1,28,1,0,15,1,8,JPN" xlink:title="AP030" d="M14505.6107,-4359.7401L14506.0036,-4359.375"/>
<path content="AP030,1,28,1,0,14,1,8,JPN" xlink:title="AP030" d="M14502.8595,-4409.1267L14503.0197,-4409.1267L14503.36,-4409.0534L14503.4897,-4409.0199L14503.6102,-4408.8932L14503.7704,-4408.6933L14503.7903,-4408.6399L14503.8605,-4408.5869L14504.2007,-4408.5133L14504.3594,-4408.4599L14504.4296,-4408.3866L14504.5807,-4408.2268L14504.6295,-4408.1734L14504.6097,-4408.1333L14504.4495,-4408.0467L14504.3594,-4408.0132L14504.3106,-4407.9533L14504.3106,-4407.9201L14504.3594,-4407.8667L14504.5197,-4407.7934L14505.13,-4407.56L14505.3802,-4407.4867L14505.7404,-4407.3799L14505.8304,-4407.3467L14505.9296,-4407.2533L14506.0394,-4407.1999L14506.2393,-4407.1468L14506.4697,-4407.0732L14506.9305,-4406.86L14507.0602,-4406.8199L14507.7698,-4406.8001L14508.02,-4406.7665L14508.1497,-4406.7135L14508.2001,-4406.6933L14508.6105,-4406.5132L14508.7402,-4406.4266L14508.8593,-4406.3202L14508.9294,-4406.1333L14508.9905,-4406.0665L14509.1095,-4406.0135L14509.4299,-4405.9399L14509.5596,-4405.8868L14509.6298,-4405.7934L14509.6298,-4405.6866L14509.6298,-4405.6332L14509.5795,-4405.6133L14509.4696,-4405.6332L14509.3307,-4405.6667L14509.2896,-4405.6534L14509.2896,-4405.6133L14509.3597,-4405.5065L14509.4696,-4405.4531L14509.61,-4405.4333L14509.7397,-4405.4001L14509.8297,-4405.3467L14509.9304,-4405.22L14509.9701,-4405.1998L14510.0403,-4405.1998L14510.1303,-4405.3066L14510.2402,-4405.4333L14510.3302,-4405.4867L14510.4507,-4405.4867L14510.5194,-4405.4531L14510.5392,-4405.36L14510.5194,-4405.2334L14510.4004,-4404.9465L14510.3806,-4404.8599L14510.4004,-4404.7867L14510.4904,-4404.6932L14510.4904,-4404.62L14510.4507,-4404.5666L14510.4507,-4404.4601L14510.4706,-4404.0798L14510.4706,-4404.0268L14510.4507,-4403.9734L14510.3806,-4403.92L14510.1807,-4403.8334L14510.1303,-4403.7399L14510.1303,-4403.6331L14510.2402,-4403.5599L14510.4904,-4403.4668L14510.5804,-4403.4534L14510.6293,-4403.3798L14510.7193,-4403.0933L14510.7697,-4403.0201L14510.8597,-4402.9999L14510.9695,-4403.0399L14511.1298,-4403.1067L14511.1801,-4403.1666L14511.1801,-4403.22L14511.1496,-4403.2333L14510.8994,-4403.3268L14510.8597,-4403.36L14510.8597,-4403.5069L14510.8597,-4403.54L14510.9299,-4403.54L14510.9695,-4403.54L14511.0794,-4403.4866L14511.1801,-4403.4668L14511.2701,-4403.4866L14511.4304,-4403.54L14511.6501,-4403.6331L14511.7203,-4403.6533L14511.8103,-4403.6331L14511.8301,-4403.5934L14511.8607,-4403.54L14511.8607,-4403.4668L14511.7905,-4403.4L14511.6806,-4403.3066L14511.6501,-4403.2333L14511.7004,-4403.1799L14511.7706,-4403.1799L14511.8607,-4403.2532L14511.9904,-4403.2867L14512.1796,-4403.3268L14512.2696,-4403.3798L14512.3596,-4403.4866L14512.4893,-4403.7067L14512.6297,-4403.8334L14512.6999,-4403.8666L14512.7396,-4403.8467L14512.7701,-4403.8132L14512.7701,-4403.7601L14512.6495,-4403.6667L14512.6495,-4403.6133L14512.6999,-4403.5934L14512.7701,-4403.5934L14512.8998,-4403.7399L14512.9501,-4403.7601L14512.9898,-4403.7399L14513.0203,-4403.7067L14513.0203,-4403.6133L14513.06,-4403.5934L14513.2706,-4403.5934L14513.3301,-4403.5801L14513.3804,-4403.5267L14513.3301,-4403.4866L14513.0798,-4403.4L14513.0402,-4403.3466L14513.0402,-4403.3066L14513.1104,-4403.2734L14513.6993,-4403.2867L14514.0396,-4403.3466L14514.1296,-4403.3268L14514.18,-4403.2734L14514.18,-4403.22L14514.1098,-4403.1666L14513.9893,-4403.1067L14513.8794,-4403.1067L14513.6795,-4403.0933L14513.4293,-4403.0933L14513.3102,-4403.0731L14513.2706,-4403.0399L14513.2904,-4402.9865L14513.4293,-4402.9469L14513.7207,-4402.9266L14513.9893,-4402.9133L14514.3295,-4402.9469L14514.5203,-4403.0201L14514.5798,-4403.0933L14514.5798,-4403.2001L14514.5401,-4403.3798L14514.5798,-4403.4134L14514.65,-4403.4134L14514.7903,-4403.3798L14514.9902,-4403.3268L14515.1794,-4403.3268L14515.5594,-4403.3466L14516.04,-4403.2867L14516.3101,-4403.2532L14516.4505,-4403.2001L14516.6794,-4403.0533L14516.8304,-4403.0201L14517.4301,-4402.9667L14517.7902,-4402.9266L14517.9306,-4402.8732L14518.0405,-4402.8732L14518.2404,-4402.9266L14518.3594,-4402.9266L14518.5196,-4402.84L14518.7195,-4402.7332L14518.7698,-4402.6402L14518.8293,-4402.4399L14518.9301,-4402.3201"/>
</g>
</svg>
