<?xml version="1.0" encoding="UTF-8"?>
<svg  xmlns="http://www.w3.org/2000/svg" xmlns:xlink="http://www.w3.org/1999/xlink" xmlns:go="http://purl.org/svgmap/profile" property="f_code,acc,exs,rst,med,rtt,RSU,loc,soc" viewBox="13992.1875 -3621.09375 35.15625 35.15625" go:dataArea="13992.1875 -3621.09375 35.15625 35.15625" >
<metadata>
 <rdf:RDF xmlns:rdf="http://www.w3.org/1999/02/22-rdf-syntax-ns#" xmlns:crs="http://opengis.org/xmldtds/transformations.dtd" xmlns:svg="http://www.w3.org/svg" >
  <rdf:Description>
   <crs:CoordinateReferenceSystem rdf:resource="http://purl.org/crs/84" svg:transform="matrix(100.0,0.0,0.0,-100.0,0.0,0.0)" />
  </rdf:Description>
 </rdf:RDF>
</metadata>
<globalCoordinateSystem srsName="http://purl.org/crs/84" transform="matrix(100.0,0.0,0.0,-100.0,0.0,0.0)" />
<defs>
 <g id="p0" >
  <circle cx="0.0" cy="0.0" r="3" stroke="green" stroke-width="2.0" vector-effect="non-scaling-stroke" />
 </g>
</defs>
<g fill="none" fill-rule="evenodd" stroke="#00ff00" stroke-width="2" opacity="0.5" vector-effect="non-scaling-stroke" stroke-linejoin="bevel" >
<path content="AP030,1,28,1,0,14,1,8,JPN" xlink:title="AP030" d="M14026.1484,-3621.0938L14026.0605,-3620.5868L14025.9903,-3620.3533"/>
<path content="AP030,1,28,1,0,15,1,8,JPN" xlink:title="AP030" d="M14024.5596,-3621.0938L14025.1221,-3620.6329L14025.9903,-3620.3533"/>
<path content="AP030,1,28,1,0,15,1,8,JPN" xlink:title="AP030" d="M14007.6599,-3620.2644L14008.6838,-3620.4739L14010.3043,-3620.8927L14010.5498,-3621.0938"/>
<path content="AP030,1,28,1,0,15,1,8,JPN" xlink:title="AP030" d="M14006.9952,-3621.0938L14007.0633,-3620.8927L14007.6599,-3620.2644"/>
<path content="AP030,1,28,1,0,15,1,8,JPN" xlink:title="AP030" d="M13998.5397,-3619.8666L13999.5377,-3620.4231L14000,-3620.6711L14000.7882,-3621.0938"/>
<path content="AP030,1,28,1,0,14,1,8,JPN" xlink:title="AP030" d="M13998.5467,-3621.0938L13998.5397,-3621.04L13998.4497,-3620.5132L13998.4894,-3620.1534L13998.5397,-3619.8666"/>
<path content="AP030,1,28,1,0,15,1,8,JPN" xlink:title="AP030" d="M13997.6974,-3619.2154L13998.5397,-3619.8666"/>
<path content="AP030,1,28,1,0,15,1,8,JPN" xlink:title="AP030" d="M13997.9919,-3621.0938L13997.9919,-3621.0926L13997.7875,-3620.4258L13997.6974,-3619.2154"/>
<path content="AP030,1,28,1,0,16,1,8,JPN" xlink:title="AP030" d="M14025.676,-3619.0372L14025.8301,-3619.2333L14025.9903,-3619.4332L14026.2207,-3619.9001L14026.4297,-3620.2065L14026.8097,-3620.5666L14027.2705,-3620.9133L14027.3438,-3621.0225"/>
<path content="AP030,1,28,1,0,16,1,8,JPN" xlink:title="AP030" d="M14025.9903,-3620.3533L14025.6302,-3619.5599L14025.6104,-3619.4134L14025.56,-3619.1666L14025.676,-3619.0372"/>
<path content="AP030,1,28,1,0,15,1,8,JPN" xlink:title="AP030" d="M14002.499,-3621.0938L14001.947,-3620.1183L14001.5396,-3618.9999"/>
<path content="AP030,1,28,1,0,14,1,8,JPN" xlink:title="AP030" d="M13998.5397,-3619.8666L13998.7198,-3618.8"/>
<path content="AP030,1,28,1,0,14,1,8,JPN" xlink:title="AP030" d="M13998.7198,-3618.8L13998.9502,-3618.8L13999.2706,-3618.7866L13999.5407,-3618.7332L13999.6796,-3618.7134L14000,-3618.6993L14000.1297,-3618.6932L14000.2396,-3618.6932L14000.7401,-3618.7466L14001.5396,-3618.9999"/>
<path content="AP030,1,28,1,0,16,1,8,JPN" xlink:title="AP030" d="M14025.3799,-3618.66L14025.676,-3619.0372"/>
<path content="AP030,1,28,1,0,15,1,8,JPN" xlink:title="AP030" d="M14020.1816,-3621.0938L14020.1187,-3620.8832L14020.9473,-3620.0909L14021.6064,-3619.7849L14022.4854,-3619.3916L14022.8683,-3619.4386L14022.821,-3618.6848L14023.7488,-3618.8679L14025.3799,-3618.66"/>
<path content="AP030,1,28,1,0,16,1,8,JPN" xlink:title="AP030" d="M14025.676,-3619.0372L14025.7401,-3618.9667L14026.3107,-3618.7332L14026.5594,-3618.5333"/>
<path content="AP030,1,28,1,0,14,1,8,JPN" xlink:title="AP030" d="M13997.6303,-3618.3201L13997.8607,-3618.5001L13998.2697,-3618.66L13998.7198,-3618.8"/>
<path content="AP030,1,28,1,0,15,1,8,JPN" xlink:title="AP030" d="M13997.6974,-3619.2154L13997.6303,-3618.3201"/>
<path content="AP030,1,28,1,0,14,1,8,JPN" xlink:title="AP030" d="M14027.2202,-3618.28L14027.3438,-3618.338"/>
<path content="AP030,1,28,1,0,14,1,8,JPN" xlink:title="AP030" d="M14027.3438,-3618.4754L14027.2202,-3618.28"/>
<path content="AP030,1,28,1,0,14,1,8,JPN" xlink:title="AP030" d="M14027.0203,-3618.1332L14027.15,-3618.2598L14027.2202,-3618.28"/>
<path content="AP030,1,28,1,0,14,1,8,JPN" xlink:title="AP030" d="M14026.5594,-3618.5333L14026.6296,-3618.4601L14027.0203,-3618.1332"/>
<path content="AP030,1,28,1,0,14,1,8,JPN" xlink:title="AP030" d="M14001.5396,-3618.9999L14001.68,-3618.9999L14001.8295,-3618.9667L14002.0203,-3618.8934L14002.9319,-3618.5923L14003.3916,-3618.4075L14003.9934,-3618.1651"/>
<path content="AP030,1,28,1,0,15,1,8,JPN" xlink:title="AP030" d="M14005.12,-3621.0938L14005.4214,-3619.9657L14004.4144,-3618.5501L14004.2475,-3618.0924"/>
<path content="AP030,1,28,1,0,14,1,8,JPN" xlink:title="AP030" d="M14003.9934,-3618.1651L14004.2475,-3618.0924"/>
<path content="AP030,1,28,1,0,14,1,8,JPN" xlink:title="AP030" d="M13997.3099,-3618.0668L13997.6303,-3618.3201"/>
<path content="AP030,1,28,1,0,15,1,8,JPN" xlink:title="AP030" d="M13997.3099,-3618.0668L13997.197,-3618.8873L13997.6974,-3619.2154"/>
<path content="AP030,1,28,1,0,15,1,8,JPN" xlink:title="AP030" d="M14007.6599,-3620.2644L14007.9163,-3619.4969L14007.9163,-3618.5196L14008.1081,-3617.9708"/>
<path content="AP030,1,28,1,0,15,1,8,JPN" xlink:title="AP030" d="M13993.7596,-3621.0938L13994.0247,-3620.3114L13994.4214,-3619.7357L13995.1553,-3619.5358L13995.4605,-3619.1357L13995.4498,-3617.8665"/>
<path content="AP030,1,28,1,0,14,1,8,JPN" xlink:title="AP030" d="M13992.1875,-3618.4688L13992.2394,-3618.4799L13992.3096,-3618.5001L13993.2205,-3618.7866L13993.4906,-3618.7866L13994.0201,-3618.7134L13994.2001,-3618.6199L13994.4305,-3618.5135L13994.9005,-3618.3865L13995.2393,-3618.0134L13995.4498,-3617.8665"/>
<path content="AP030,1,28,1,0,14,1,8,JPN" xlink:title="AP030" d="M14007.1628,-3617.9136L14007.3834,-3617.9257L14007.8132,-3617.9499L14007.9661,-3617.9617L14008.1081,-3617.9708"/>
<path content="AP030,1,28,1,0,14,1,8,JPN" xlink:title="AP030" d="M14004.2475,-3618.0924L14004.5092,-3617.9924L14004.6998,-3617.9893L14005.0287,-3618.0014L14005.6043,-3618.1227L14005.9481,-3618.2105L14006.2583,-3618.2772L14006.4527,-3618.2348L14006.7031,-3618.0317L14006.8825,-3617.9651L14007.0245,-3617.8984L14007.1628,-3617.9136"/>
<path content="AP030,1,28,1,0,14,1,8,JPN" xlink:title="AP030" d="M13995.4498,-3617.8665L13995.5795,-3617.7933L13995.8099,-3617.7734L13995.8603,-3617.7734L13996.3806,-3617.8131L13996.553,-3617.8619L13996.9498,-3617.9733L13997.3099,-3618.0668"/>
<path content="AP030,1,28,1,0,14,1,8,JPN" xlink:title="AP030" d="M14008.1081,-3617.9708L14008.295,-3617.8283L14008.4707,-3617.7132L14008.6127,-3617.6193L14008.9706,-3617.3599"/>
<path content="AP030,1,28,1,0,15,1,8,JPN" xlink:title="AP030" d="M14017.705,-3621.0938L14017.7109,-3621.0884L14018.2098,-3620.3827L14017.4576,-3619.1807L14016.9205,-3618.1576L14016.3803,-3617.2531"/>
<path content="AP030,1,28,1,0,16,1,8,JPN" xlink:title="AP030" d="M14012.207,-3621.0938L14012.1994,-3621.0533L14012.1994,-3620.9999L14012.2192,-3620.9667L14012.2894,-3620.8733L14012.3093,-3620.8401L14012.3795,-3620.8199L14012.4695,-3620.8199L14012.5397,-3620.8199L14012.5397,-3620.7664L14012.4695,-3620.66L14012.4695,-3620.5868L14012.4695,-3620.5532L14012.5198,-3620.5334L14012.5595,-3620.5002L14012.6297,-3620.48L14012.6999,-3620.4399L14012.7701,-3620.3865L14012.8296,-3620.3533L14012.8799,-3620.2999L14012.8799,-3620.2599L14012.8601,-3620.2267L14012.8098,-3620.1733L14012.8998,-3620.0665L14012.9501,-3619.9734L14012.9501,-3619.9402L14012.7899,-3619.9001L14012.7899,-3619.7933L14012.8601,-3619.6133L14012.97,-3619.4534L14013.0203,-3619.3802L14012.9898,-3619.1067L14012.97,-3619.0533L14012.8799,-3619.0201L14012.5595,-3618.9999L14012.5198,-3618.9667L14012.5397,-3618.8934L14012.6495,-3618.8198L14012.7701,-3618.6798L14012.7899,-3618.6066L14012.8799,-3618.5333L14013.0203,-3618.4799L14013.15,-3618.4399L14013.2202,-3618.2999L14013.3301,-3618.2465L14013.4705,-3618.1934L14013.5406,-3618.1198L14013.6795,-3618.0134L14013.8107,-3617.9401L14013.7405,-3617.8665L14013.6795,-3617.7933L14013.6993,-3617.7399L14013.7894,-3617.7067L14013.8992,-3617.6132L14014.0198,-3617.4667L14014.1495,-3617.4L14014.36,-3617.2001L14014.6301,-3617.1665L14014.7202,-3617.1799L14014.83,-3617.2733L14014.9506,-3617.3267L14015.1505,-3617.3267L14015.3595,-3617.2867L14015.4297,-3617.3466L14015.4694,-3617.4332L14015.5807,-3617.4667L14015.7196,-3617.4866L14015.7898,-3617.4667L14015.86,-3617.3599L14016.2003,-3617.2531L14016.3803,-3617.2531"/>
<path content="AP030,1,28,1,0,15,1,8,JPN" xlink:title="AP030" d="M14016.3803,-3617.2531L14016.9693,-3617.1265"/>
<path content="AP030,1,28,1,0,16,1,8,JPN" xlink:title="AP030" d="M14016.3803,-3617.2531L14016.4505,-3617.2199L14016.5604,-3617.1467L14016.7404,-3617.0933L14016.9693,-3617.1265"/>
<path content="AP030,1,28,1,0,16,1,8,JPN" xlink:title="AP030" d="M14023.349,-3616.1953L14023.9899,-3616.7133L14024.1806,-3616.8732L14024.3301,-3617.0399L14024.4003,-3617.1467L14024.6506,-3617.4667L14025.0793,-3618.1934L14025.3799,-3618.66"/>
<path content="AP030,1,28,1,0,14,1,8,JPN" xlink:title="AP030" d="M14024.5804,-3616.0465L14024.8093,-3616.5333L14024.8199,-3616.61L14024.8306,-3616.6801L14024.9298,-3616.8732L14024.9496,-3616.9132L14024.9893,-3616.9868L14025.2396,-3617.1467L14025.5798,-3617.2867L14026.3794,-3617.5598L14026.4893,-3617.6334L14026.5198,-3617.6865L14026.5396,-3617.7399L14026.86,-3617.9932L14027.0203,-3618.1332"/>
<path content="AP030,1,28,1,0,15,1,8,JPN" xlink:title="AP030" d="M14023.349,-3616.1953L14024.5804,-3616.0465"/>
<path content="AP030,1,28,1,0,15,1,8,JPN" xlink:title="AP030" d="M13995.4498,-3617.8665L13995.9229,-3616.7419L13996.4142,-3615.8138"/>
<path content="AP030,1,28,1,0,16,1,8,JPN" xlink:title="AP030" d="M14022.7203,-3615.6868L14023.349,-3616.1953"/>
<path content="AP030,1,28,1,0,14,1,8,JPN" xlink:title="AP030" d="M14008.9706,-3617.3599L14009.1875,-3617.2865L14010.2114,-3617.0825L14010.4182,-3617.0441L14010.4606,-3617.028L14010.5552,-3616.9714L14010.6175,-3616.8926L14010.6549,-3616.7674L14010.6599,-3616.6531L14010.6749,-3616.5198L14010.6936,-3616.3532L14010.7048,-3616.138L14010.7406,-3616.0021L14010.8527,-3615.8385"/>
<path content="AP030,1,28,1,0,15,1,8,JPN" xlink:title="AP030" d="M13992.1875,-3615.9973L13993.2266,-3615.6651L13994.5419,-3615.4106L13996.4142,-3615.8138"/>
<path content="AP030,1,28,1,0,14,1,8,JPN" xlink:title="AP030" d="M14010.8527,-3615.8385L14011.2886,-3615.5416L14011.6198,-3615.3194L14011.6846,-3615.176"/>
<path content="AP030,1,28,1,0,15,1,8,JPN" xlink:title="AP030" d="M14016.2903,-3615.1669L14016.2903,-3615.3599L14016.2704,-3615.5067L14016.33,-3615.8134L14016.4703,-3615.9L14016.6306,-3615.9534L14016.8594,-3615.9199L14017.1097,-3616.1201L14017.3996,-3616.0801L14017.4698,-3616.0999L14017.4698,-3616.1201L14017.4301,-3616.1533L14017.3599,-3616.1732L14017.3096,-3616.2468L14017.3294,-3616.28L14017.3996,-3616.32L14017.5201,-3616.28L14017.5598,-3616.3334L14017.4698,-3616.4268L14017.4301,-3616.5333L14017.4698,-3616.6065L14017.54,-3616.6599L14017.5598,-3616.7332L14017.5598,-3616.7866L14017.5598,-3616.84L14017.5201,-3616.8934L14017.4301,-3616.9468L14017.2699,-3617.02L14016.9693,-3617.1265"/>
<path content="AP030,1,28,1,0,14,1,8,JPN" xlink:title="AP030" d="M13998.7198,-3618.8L13999.1806,-3617.1467L13999.5193,-3615.9401L13999.5407,-3615.8134L13999.5193,-3615.6532L13999.2401,-3615.0532"/>
<path content="AP030,1,28,1,0,15,1,8,JPN" xlink:title="AP030" d="M13999.0601,-3614.7667L13999.2401,-3615.0532"/>
<path content="AP030,1,28,1,0,15,1,8,JPN" xlink:title="AP030" d="M13996.4142,-3615.8138L13997.0596,-3615.5861L13998.0972,-3615.2199L13999.0601,-3614.7667"/>
<path content="AP030,1,28,1,0,15,1,8,JPN" xlink:title="AP030" d="M14011.6846,-3615.176L14013.6734,-3614.7224L14015.2313,-3614.6973L14016.2903,-3615.1669"/>
<path content="AP030,1,28,1,0,15,1,8,JPN" xlink:title="AP030" d="M14016.5802,-3614.5535L14017.2333,-3614.7476L14019.2322,-3615.1943L14021.4966,-3615.7509L14022.7203,-3615.6868"/>
<path content="AP030,1,28,1,0,15,1,8,JPN" xlink:title="AP030" d="M14016.2903,-3615.1669L14016.4902,-3614.7999L14016.5802,-3614.5535"/>
<path content="AP030,1,28,1,0,15,1,8,JPN" xlink:title="AP030" d="M14001.5396,-3618.9999L14001.7487,-3618.1675L14001.7624,-3617.0849L14001.6022,-3615.5678L14001.4404,-3614.267"/>
<path content="AP030,1,28,1,0,15,1,8,JPN" xlink:title="AP030" d="M13999.2401,-3615.0532L14000,-3614.8624L14000.7812,-3614.6664L14001.4404,-3614.267"/>
<path content="AP030,1,28,1,0,15,1,8,JPN" xlink:title="AP030" d="M14008.7437,-3614.2955L14009.012,-3614.3402L14009.2544,-3614.3591L14009.6147,-3614.456L14010.1877,-3614.5013L14010.6584,-3614.4831L14010.6211,-3615.0285L14010.6684,-3615.1295L14010.7086,-3615.4297L14010.7954,-3615.6587L14010.7157,-3615.7537L14010.7755,-3615.79L14010.8527,-3615.8385"/>
<path content="AP030,1,28,1,0,15,1,8,JPN" xlink:title="AP030" d="M14008.9706,-3617.3599L14008.9611,-3616.8059L14008.9586,-3616.6564L14008.8191,-3616.3514L14008.5351,-3616.214L14008.3234,-3616.1029L14008.5434,-3615.8031L14008.5974,-3615.5151L14008.8241,-3615.0525L14008.6896,-3614.9091L14008.6796,-3614.6485L14008.745,-3614.4419L14008.7437,-3614.2955"/>
<path content="AP030,1,28,1,0,15,1,8,JPN" xlink:title="AP030" d="M14003.9934,-3618.1651L14003.5411,-3617.8287L14003.537,-3617.5686L14003.4739,-3617.353L14003.4889,-3617.159L14003.6234,-3616.8651L14003.8029,-3616.7348L14003.844,-3616.3954L14004.1354,-3616.3651L14004.3185,-3616.1985L14004.3559,-3616.0257L14004.4942,-3615.8015L14004.4568,-3615.5258L14004.5471,-3614.9418L14004.5593,-3613.9725"/>
<path content="AP030,1,28,1,0,15,1,8,JPN" xlink:title="AP030" d="M14001.4404,-3614.267L14003.6819,-3614.291L14004.5593,-3613.9725"/>
<path content="AP030,1,28,1,0,14,1,8,JPN" xlink:title="AP030" d="M14007.1628,-3617.9136L14007.1304,-3617.6865L14007.0691,-3617.3193L14007.0878,-3616.992L14007.2006,-3616.7133L14007.5394,-3616.1934L14007.6492,-3615.9534L14007.6996,-3615.8669L14007.7194,-3615.76L14007.8094,-3615.2L14007.8995,-3614.4268L14007.9895,-3614.1731L14008.1051,-3613.9636L14008.2455,-3613.8233"/>
<path content="AP030,1,28,1,0,15,1,8,JPN" xlink:title="AP030" d="M14008.2455,-3613.8233L14008.2999,-3613.7546"/>
<path content="AP030,1,28,1,0,15,1,8,JPN" xlink:title="AP030" d="M14007.999,-3613.6132L14008.1156,-3613.6603L14008.2999,-3613.7546"/>
<path content="AP030,1,28,1,0,14,1,8,JPN" xlink:title="AP030" d="M14007.999,-3613.6132L14008.0513,-3613.7061L14008.2455,-3613.8233"/>
<path content="AP030,1,28,1,0,15,1,8,JPN" xlink:title="AP030" d="M14004.5593,-3613.9725L14005.7129,-3613.5536L14007.999,-3613.6132"/>
<path content="AP030,1,28,1,0,14,1,8,JPN" xlink:title="AP030" d="M14022.7707,-3613.1802L14022.9706,-3613.3266L14023.2895,-3613.6665L14023.6099,-3613.9732L14023.6801,-3614.0667L14023.7198,-3614.1335L14023.79,-3614.46L14023.9304,-3615.02L14023.97,-3615.1466L14023.9899,-3615.2L14024.0402,-3615.2534L14024.2706,-3615.5602L14024.4705,-3615.8333L14024.5804,-3616.0465"/>
<path content="AP030,1,28,1,0,14,1,8,JPN" xlink:title="AP030" d="M14011.6846,-3615.176L14011.7203,-3615.02L14011.7706,-3614.8399L14011.7706,-3614.7331L14012.0407,-3614.3867L14012.2406,-3614.1335L14012.4496,-3614.0469L14012.7701,-3613.94L14012.9501,-3613.8668L14013.2202,-3613.6665L14013.4506,-3613.5399L14013.6505,-3613.4335L14013.8306,-3613.3598L14013.9297,-3613.3469L14014.0594,-3613.2866L14014.5599,-3613.0932"/>
<path content="AP030,1,28,1,0,14,1,8,JPN" xlink:title="AP030" d="M14014.5599,-3613.0932L14014.6805,-3612.9868"/>
<path content="AP030,1,28,1,0,15,1,8,JPN" xlink:title="AP030" d="M14014.6805,-3612.9868L14015.5594,-3612.6202"/>
<path content="AP030,1,28,1,0,14,1,8,JPN" xlink:title="AP030" d="M14014.6805,-3612.9868L14014.7903,-3612.8933L14015.1794,-3612.6202L14015.5594,-3612.6202"/>
<path content="AP030,1,28,1,0,15,1,8,JPN" xlink:title="AP030" d="M14023.9807,-3612.4901L14025.6943,-3613.3579L14026.6724,-3614.2921L14027.3438,-3614.4753"/>
<path content="AP030,1,28,1,0,15,1,8,JPN" xlink:title="AP030" d="M14022.7707,-3613.1802L14023.9807,-3612.4901"/>
<path content="AP030,1,28,1,0,15,1,8,JPN" xlink:title="AP030" d="M14016.5802,-3614.5535L14016.7892,-3614.2601L14017.0395,-3613.9534L14017.1097,-3613.8668L14017.2699,-3613.7932L14017.3798,-3613.5399L14017.45,-3613.3598L14017.5598,-3613.0932L14017.6498,-3612.8735L14017.7902,-3612.5134L14017.9504,-3612.3199L14017.9901,-3612.2601L14017.9703,-3612.0667L14017.9306,-3611.8866"/>
<path content="AP030,1,28,1,0,14,1,8,JPN" xlink:title="AP030" d="M14014.5599,-3613.0932L14014.7903,-3613.1065L14014.9506,-3613.0932L14015.6998,-3613.0733L14015.8798,-3613.0733L14016.3101,-3613.0001L14016.6504,-3612.8601L14016.7694,-3612.7998L14017.2897,-3612.4401L14017.7902,-3611.9732L14017.9306,-3611.8866"/>
<path content="AP030,1,28,1,0,15,1,8,JPN" xlink:title="AP030" d="M14023.9807,-3612.4901L14024.852,-3611.9999L14025.2853,-3611.7561L14025.9384,-3611.956L14026.9165,-3612.4233L14027.3438,-3612.4233"/>
<path content="AP030,1,28,1,0,16,1,8,JPN" xlink:title="AP030" d="M14018.4235,-3611.7249L14018.4692,-3611.7931L14018.9697,-3612.5L14019.5206,-3613.1668L14019.9295,-3613.4533L14020.2896,-3613.7402L14020.7397,-3614.1335L14021.4706,-3614.9265L14021.8094,-3615.2L14022.2198,-3615.3599L14022.7203,-3615.6868"/>
<path content="AP030,1,28,1,0,14,1,8,JPN" xlink:title="AP030" d="M14017.9306,-3611.8866L14018.4235,-3611.7249"/>
<path content="AP030,1,28,1,0,15,1,8,JPN" xlink:title="AP030" d="M13996.4142,-3615.8138L13996.4539,-3613.1912L13996.4432,-3611.5803"/>
<path content="AP030,1,28,1,0,15,1,8,JPN" xlink:title="AP030" d="M14010.3469,-3611.4638L14010.5933,-3611.5122L14010.8696,-3611.6365L14010.996,-3611.716"/>
<path content="AP030,1,28,1,0,15,1,8,JPN" xlink:title="AP030" d="M14008.2999,-3613.7546L14009.813,-3612.1545L14010.0706,-3611.8667L14010.3469,-3611.4638"/>
<path content="AP030,1,28,1,0,16,1,8,JPN" xlink:title="AP030" d="M14018.0969,-3611.2431L14018.1305,-3611.2865L14018.4235,-3611.7249"/>
<path content="AP030,1,28,1,0,14,1,8,JPN" xlink:title="AP030" d="M14015.5594,-3612.6202L14015.7394,-3612.6202L14016.1102,-3612.4802L14016.6107,-3612.3199L14017.0197,-3611.9934L14017.4896,-3611.6669L14017.6102,-3611.5799L14018.0969,-3611.2431"/>
<path content="AP030,1,28,1,0,15,1,8,JPN" xlink:title="AP030" d="M13992.1875,-3611.1983L13993.4433,-3611.235L13995.0378,-3611.38L13996.4432,-3611.5803"/>
<path content="AP030,1,28,1,0,14,1,8,JPN" xlink:title="AP030" d="M14019.8807,-3611.0001L14020.0806,-3611.2L14020.4895,-3611.5067L14020.7397,-3611.6669L14020.8603,-3611.7401L14021.0403,-3611.94L14021.2204,-3612.1334L14021.3593,-3612.3001L14021.5607,-3612.5L14021.6507,-3612.5668L14021.7407,-3612.64L14021.9894,-3612.7869L14022.1497,-3612.8933L14022.6105,-3613.1065L14022.7707,-3613.1802"/>
<path content="AP030,1,28,1,0,14,1,8,JPN" xlink:title="AP030" d="M14018.4235,-3611.7249L14018.5394,-3611.6867L14018.9301,-3611.5398L14019.1299,-3611.4666L14019.2398,-3611.3602L14019.31,-3611.3068L14019.8807,-3611.0001"/>
<path content="AP030,1,28,1,0,15,1,8,JPN" xlink:title="AP030" d="M14010.3469,-3611.4638L14010.7363,-3610.8764"/>
<path content="AP030,1,28,1,0,15,1,8,JPN" xlink:title="AP030" d="M13996.4432,-3611.5803L13997.0718,-3610.688"/>
<path content="AP030,1,28,1,0,14,1,8,JPN" xlink:title="AP030" d="M14019.4,-3610.3001L14019.4702,-3610.3535L14019.8807,-3611.0001"/>
<path content="AP030,1,28,1,0,14,1,8,JPN" xlink:title="AP030" d="M14018.0969,-3611.2431L14018.1305,-3611.2202L14018.1793,-3611.2L14018.8095,-3610.8398L14018.8797,-3610.7868L14019.4,-3610.3001"/>
<path content="AP030,1,28,1,0,14,1,8,JPN" xlink:title="AP030" d="M13999.0601,-3614.7667L13998.3994,-3613.2732L13998.3994,-3612.1735L13998.4695,-3611.2L13998.4894,-3610.9467L13998.5397,-3610.5L13998.4573,-3610.154"/>
<path content="AP030,1,28,1,0,15,1,8,JPN" xlink:title="AP030" d="M13997.0718,-3610.688L13997.4487,-3610.4713L13997.8867,-3610.2207L13998.4573,-3610.154"/>
<path content="AP030,1,28,1,0,15,1,8,JPN" xlink:title="AP030" d="M14008.7628,-3610.1324L14009.2343,-3610.4598L14009.8461,-3610.5633L14010.2539,-3610.6563L14010.7363,-3610.8764"/>
<path content="AP030,1,28,1,0,14,1,8,JPN" xlink:title="AP030" d="M14007.999,-3613.6132L14007.8745,-3613.3891L14007.4797,-3612.442L14007.433,-3612.3248L14007.3735,-3612.1593L14007.3268,-3611.9938L14007.3183,-3611.8766L14007.3311,-3611.6663L14007.4416,-3611.1355L14007.8324,-3610.7528L14008.7628,-3610.1324"/>
<path content="AP030,1,28,1,0,15,1,8,JPN" xlink:title="AP030" d="M14001.4404,-3614.267L14002.0355,-3613.0085L14001.3824,-3611.776L14001.1298,-3611.2122"/>
<path content="AP030,1,28,1,0,15,1,8,JPN" xlink:title="AP030" d="M13998.4573,-3610.154L13999.762,-3610.0876L14000,-3610.0876L14001.232,-3609.9859"/>
<path content="AP030,1,28,1,0,14,1,8,JPN" xlink:title="AP030" d="M14019.8807,-3611.0001L14020.4498,-3610.6934L14020.3796,-3610.5L14020.1797,-3609.9934"/>
<path content="AP030,1,28,1,0,14,1,8,JPN" xlink:title="AP030" d="M14019.4,-3610.3001L14019.4901,-3610.2268L14019.7403,-3610.08L14020.1797,-3609.9934"/>
<path content="AP030,1,28,1,0,15,1,8,JPN" xlink:title="AP030" d="M14010.7363,-3610.8764L14010.8925,-3610.6153L14011.1027,-3609.5179L14011.2883,-3609.1657"/>
<path content="AP030,1,28,1,0,15,1,8,JPN" xlink:title="AP030" d="M14004.5593,-3613.9725L14004.57,-3613.1012L14004.859,-3611.2993L14004.7853,-3610.8698L14004.8027,-3610.5401"/>
<path content="AP030,1,28,1,0,15,1,8,JPN" xlink:title="AP030" d="M14003.8456,-3610.6318L14004.8027,-3610.5401"/>
<path content="AP030,1,28,1,0,15,1,8,JPN" xlink:title="AP030" d="M14016.1888,-3609.2703L14016.4762,-3609.1491L14016.995,-3608.6372L14017.2006,-3608.5352"/>
<path content="AP030,1,28,1,0,16,1,8,JPN" xlink:title="AP030" d="M14018.0969,-3611.2431L14017.9504,-3611.0535L14017.8101,-3610.7868L14017.5797,-3610.4267L14017.1799,-3609.9731L14016.1888,-3609.2703"/>
<path content="AP030,1,28,1,0,15,1,8,JPN" xlink:title="AP030" d="M14010.3262,-3608.7295L14011.2883,-3609.1657"/>
<path content="AP030,1,28,1,0,14,1,8,JPN" xlink:title="AP030" d="M14008.7628,-3610.1324L14008.886,-3610.0565L14009.6166,-3609.5636L14009.9375,-3609.2984L14010.3262,-3608.7295"/>
<path content="AP030,1,28,1,0,15,1,8,JPN" xlink:title="AP030" d="M14001.232,-3609.9859L14001.1505,-3608.9947"/>
<path content="AP030,1,28,1,0,15,1,8,JPN" xlink:title="AP030" d="M14006.3792,-3610.4422L14008.2505,-3610.0145L14008.4978,-3609.9578L14008.7628,-3610.1324"/>
<path content="AP030,1,28,1,0,14,1,8,JPN" xlink:title="AP030" d="M14024.2004,-3609.8866L14024.4507,-3609.7401L14024.8993,-3609.7198L14025.1495,-3609.6535L14025.7401,-3609.56L14026.4694,-3609.5268L14026.4893,-3609.5268L14026.7899,-3609.6668L14027.3102,-3609.7935L14027.3438,-3609.7988"/>
<path content="AP030,1,28,1,0,16,1,8,JPN" xlink:title="AP030" d="M14016.1888,-3609.2703L14016.0395,-3609.1551L14015.7932,-3608.8916L14015.6311,-3608.6004"/>
<path content="AP030,1,28,1,0,15,1,8,JPN" xlink:title="AP030" d="M14014.6713,-3609.0088L14015.3288,-3608.6549L14015.6311,-3608.6004"/>
<path content="AP030,1,28,1,0,14,1,8,JPN" xlink:title="AP030" d="M14020.1797,-3609.9934L14020.0806,-3609.7401L14020.0195,-3609.5932L14019.9005,-3609.4532L14019.8593,-3609.3601L14019.8593,-3609.1801L14019.8105,-3608.8402L14019.7906,-3608.7467"/>
<path content="AP030,1,28,1,0,15,1,8,JPN" xlink:title="AP030" d="M14017.63,-3608.6201L14018.3908,-3608.8007"/>
<path content="AP030,1,28,1,0,14,1,8,JPN" xlink:title="AP030" d="M14017.63,-3608.6201L14017.8299,-3608.9268L14018.0801,-3609.2533L14018.3199,-3609.4974L14018.6798,-3609.7599L14018.9499,-3609.9201L14019.4,-3610.3001"/>
<path content="AP030,1,28,1,0,15,1,8,JPN" xlink:title="AP030" d="M14015.6311,-3608.6004L14015.9796,-3608.5634L14016.5342,-3608.4035L14017.2006,-3608.5352"/>
<path content="AP030,1,28,1,0,15,1,8,JPN" xlink:title="AP030" d="M14012.4815,-3608.558L14013.6346,-3609.0093L14014.0749,-3609.1456L14014.3362,-3609.1487L14014.6713,-3609.0088"/>
<path content="AP030,1,28,1,0,14,1,8,JPN" xlink:title="AP030" d="M14020.1294,-3608.4068L14020.2896,-3608.4267L14020.2896,-3608.8402L14020.0806,-3608.86L14020.0806,-3609.1267L14020.1294,-3609.4532L14020.3293,-3609.4131L14020.6299,-3609.4532L14020.9,-3609.4868L14021.4493,-3609.6333L14021.5393,-3609.6668L14021.7194,-3609.7401L14022.0596,-3609.6668L14022.0947,-3609.6657L14022.4899,-3609.6535L14022.6105,-3609.7069L14022.8302,-3609.9934L14022.8806,-3610.0468L14023.0392,-3610.12L14023.2407,-3610.12L14023.4299,-3610.0266L14023.7,-3609.94L14023.9502,-3609.9533L14024.2004,-3609.8866"/>
<path content="AP030,1,28,1,0,14,1,8,JPN" xlink:title="AP030" d="M14019.7906,-3608.7467L14020.1294,-3608.4068"/>
<path content="AP030,1,28,1,0,14,1,8,JPN" xlink:title="AP030" d="M14019.2231,-3608.2858L14019.3298,-3608.4068L14019.4504,-3608.5533L14019.5206,-3608.5869L14019.6503,-3608.6399L14019.7906,-3608.7467"/>
<path content="AP030,1,28,1,0,15,1,8,JPN" xlink:title="AP030" d="M14018.3908,-3608.8007L14019.2231,-3608.2858"/>
<path content="AP030,1,28,1,0,15,1,8,JPN" xlink:title="AP030" d="M14011.9192,-3608.3166L14012.4815,-3608.558"/>
<path content="AP030,1,28,1,0,15,1,8,JPN" xlink:title="AP030" d="M14011.2883,-3609.1657L14011.9192,-3608.3166"/>
<path content="AP030,1,28,1,0,15,1,8,JPN" xlink:title="AP030" d="M14004.8027,-3610.5401L14004.7436,-3609.6062L14004.8028,-3608.8219L14004.7604,-3608.2557L14004.9445,-3607.6435"/>
<path content="AP030,1,28,1,0,15,1,8,JPN" xlink:title="AP030" d="M14010.9255,-3607.8634L14011.9192,-3608.3166"/>
<path content="AP030,1,28,1,0,14,1,8,JPN" xlink:title="AP030" d="M14010.3262,-3608.7295L14010.5221,-3608.4366L14010.7658,-3608.0914L14010.9255,-3607.8634"/>
<path content="AP030,1,28,1,0,15,1,8,JPN" xlink:title="AP030" d="M14003.9688,-3607.7183L14004.9445,-3607.6435"/>
<path content="AP030,1,28,1,0,15,1,8,JPN" xlink:title="AP030" d="M14003.8456,-3610.6318L14003.5498,-3609.4272L14003.7864,-3608.9908L14003.9688,-3607.7183"/>
<path content="AP030,1,28,1,0,15,1,8,JPN" xlink:title="AP030" d="M14001.1505,-3608.9947L14002.4429,-3608.8249L14003.2471,-3608.4705L14003.9688,-3607.7183"/>
<path content="AP030,1,28,1,0,14,1,8,JPN" xlink:title="AP030" d="M14010.4507,-3607.6134L14010.9255,-3607.8634"/>
<path content="AP030,1,28,1,0,15,1,8,JPN" xlink:title="AP030" d="M14006.3792,-3610.4422L14006.3926,-3610.1986L14006.7645,-3609.3162L14006.7574,-3608.9397L14006.7326,-3608.181L14006.807,-3608.0258L14007.1292,-3607.8763L14007.2602,-3607.6464L14007.1692,-3607.2841"/>
<path content="AP030,1,28,1,0,15,1,8,JPN" xlink:title="AP030" d="M14004.9445,-3607.6435L14005.3764,-3607.7527L14006.5553,-3607.7269L14006.7642,-3607.655L14007.1692,-3607.2841"/>
<path content="AP030,1,28,1,0,14,1,8,JPN" xlink:title="AP030" d="M14010.4507,-3607.6134L14009.7586,-3607.3266L14009.7062,-3607.2968"/>
<path content="AP030,1,28,1,0,15,1,8,JPN" xlink:title="AP030" d="M14007.1692,-3607.2841L14008.0281,-3607.336L14008.4706,-3607.2555L14008.8352,-3607.1664L14009.3562,-3607.1763L14009.5119,-3607.2044"/>
<path content="AP030,1,28,1,0,15,1,8,JPN" xlink:title="AP030" d="M14011.9192,-3608.3166L14012.6358,-3607.3211"/>
<path content="AP030,1,28,1,0,14,1,8,JPN" xlink:title="AP030" d="M14020.1294,-3608.4068L14020.1492,-3608.2066L14020.1492,-3608.1932L14020.1797,-3608.1532L14020.2698,-3608.0467L14020.3094,-3607.9399L14020.2698,-3607.8133L14020.1492,-3607.6332L14019.9295,-3607.2868L14019.9005,-3607.1266L14020.0165,-3607.0343L14020.0607,-3607L14020.2347,-3606.9157"/>
<path content="AP030,1,28,1,0,15,1,8,JPN" xlink:title="AP030" d="M13997.0718,-3610.688L13996.6309,-3609.1335L13996.6309,-3608.4087L13997.3389,-3607.7568L13997.8699,-3606.8871"/>
<path content="AP030,1,28,1,0,15,1,8,JPN" xlink:title="AP030" d="M13992.1875,-3606.6765L13993.7378,-3607.0244L13995.2332,-3607.1312L13996.4401,-3607.1415L13997.8699,-3606.8871"/>
<path content="AP030,1,28,1,0,15,1,8,JPN" xlink:title="AP030" d="M14024.2004,-3609.8866L14024.2523,-3608.955L14024.7009,-3607.7736L14024.9969,-3607.341L14025.1938,-3607.1056L14026.2115,-3607.4673L14027.3438,-3607.2161"/>
<path content="AP030,1,28,1,0,16,1,8,JPN" xlink:title="AP030" d="M14015.6311,-3608.6004L14015.6097,-3608.5533L14015.5197,-3608.2802L14015.4694,-3608.0666L14015.4978,-3607.6729L14015.5959,-3607.2057L14015.7386,-3606.7639L14015.7743,-3606.5394L14015.7418,-3606.2308L14015.6411,-3605.9514"/>
<path content="AP030,1,28,1,0,14,1,8,JPN" xlink:title="AP030" d="M14017.63,-3608.6201L14017.6498,-3608.2802L14017.7002,-3608.1001L14017.7902,-3607.7068L14017.8604,-3607.2735L14017.8802,-3607.0934L14017.8802,-3607L14017.8802,-3606.8932L14017.8802,-3606.7467L14017.8604,-3606.6601L14017.8774,-3606.2717L14017.7137,-3605.7576"/>
<path content="AP030,1,28,1,0,14,1,8,JPN" xlink:title="AP030" d="M14015.6411,-3605.9514L14015.9474,-3606.0775L14016.153,-3606.1252L14016.4383,-3606.1047L14017.1474,-3605.8731L14017.4075,-3605.7913L14017.6928,-3605.6917"/>
<path content="AP030,1,28,1,0,15,1,8,JPN" xlink:title="AP030" d="M14007.1692,-3607.2841L14007.1289,-3607.0543L14007.1573,-3606.7813L14007.7236,-3606.4192L14008.0953,-3606.2842L14008.3679,-3605.9077L14008.4698,-3605.3282"/>
<path content="AP030,1,28,1,0,14,1,8,JPN" xlink:title="AP030" d="M14014.5652,-3605.5218L14015.1376,-3605.7504L14015.6411,-3605.9514"/>
<path content="AP030,1,28,1,0,15,1,8,JPN" xlink:title="AP030" d="M14020.2347,-3606.9157L14019.3176,-3605.0903L14019.0302,-3604.7079"/>
<path content="AP030,1,28,1,0,14,1,8,JPN" xlink:title="AP030" d="M14017.6928,-3605.6917L14018.1492,-3605.3757L14018.4788,-3605.0398L14018.6988,-3604.8748L14019.0302,-3604.7079"/>
<path content="AP030,1,28,1,0,16,1,8,JPN" xlink:title="AP030" d="M14014.928,-3604.8824L14015.1712,-3605.2087L14015.36,-3605.437L14015.511,-3605.6653L14015.6411,-3605.9514"/>
<path content="AP030,1,28,1,0,15,1,8,JPN" xlink:title="AP030" d="M14014.5652,-3605.5218L14014.928,-3604.8824"/>
<path content="AP030,1,28,1,0,14,1,8,JPN" xlink:title="AP030" d="M14013.3804,-3604.9667L14014.1722,-3605.3522"/>
<path content="AP030,1,28,1,0,15,1,8,JPN" xlink:title="AP030" d="M14012.6358,-3607.3211L14013.2484,-3606.7175L14014.236,-3606.042L14014.5652,-3605.5218"/>
<path content="AP030,1,28,1,0,14,1,8,JPN" xlink:title="AP030" d="M14012.3301,-3604.5983L14012.8296,-3604.7466L14013.3804,-3604.9667"/>
<path content="AP030,1,28,1,0,14,1,8,JPN" xlink:title="AP030" d="M14020.2347,-3606.9157L14020.2393,-3606.9134L14020.2698,-3606.9134L14020.3995,-3606.8001L14020.7001,-3606.6799L14021.1502,-3606.4999L14021.2692,-3606.3732L14021.3303,-3606.2599L14021.4005,-3606.1535L14021.4905,-3605.8132L14021.5805,-3605.4333L14021.6293,-3604.9866L14021.6797,-3604.9267L14021.8094,-3604.8599L14021.8994,-3604.7668L14022.0596,-3604.6398L14022.11,-3604.6066L14022.2397,-3604.5132L14022.4304,-3604.3732"/>
<path content="AP030,1,28,1,0,15,1,8,JPN" xlink:title="AP030" d="M14003.9688,-3607.7183L14004.5227,-3605.9898L14004.4296,-3604.1332"/>
<path content="AP030,1,28,1,0,14,1,8,JPN" xlink:title="AP030" d="M14010.1824,-3604.1414L14011.0776,-3604.311L14011.7003,-3604.4834L14011.9444,-3604.5351L14012.3301,-3604.5983"/>
<path content="AP030,1,28,1,0,14,1,8,JPN" xlink:title="AP030" d="M14009.7062,-3607.2968L14009.943,-3606.8365L14010.1814,-3606.3411L14010.2286,-3606.1572L14010.238,-3605.956L14010.1696,-3605.5346L14010.1517,-3605.154L14010.2036,-3604.5525L14010.1824,-3604.1414"/>
<path content="AP030,1,28,1,0,14,1,8,JPN" xlink:title="AP030" d="M14003.0807,-3604.0134L14003.45,-3604.1L14003.7903,-3604.1931L14004.1794,-3604.2068L14004.2694,-3604.2068L14004.4296,-3604.1332"/>
<path content="AP030,1,28,1,0,15,1,8,JPN" xlink:title="AP030" d="M14001.1505,-3608.9947L14001.1658,-3607.7675L14002.121,-3606.0429L14002.9327,-3605.183L14003.0807,-3604.0134"/>
<path content="AP030,1,28,1,0,16,1,8,JPN" xlink:title="AP030" d="M14013.9915,-3604.0345L14014.2864,-3604.2913L14014.6301,-3604.5532L14014.8636,-3604.8183L14014.928,-3604.8824"/>
<path content="AP030,1,28,1,0,14,1,8,JPN" xlink:title="AP030" d="M14008.3965,-3603.9837L14008.7402,-3604.0668L14008.9005,-3604.0466"/>
<path content="AP030,1,28,1,0,15,1,8,JPN" xlink:title="AP030" d="M14008.4698,-3605.3282L14008.5086,-3605.0125L14008.4507,-3604.6633L14008.3398,-3604.3855L14008.3399,-3604.136L14008.3965,-3603.9837"/>
<path content="AP030,1,28,1,0,14,1,8,JPN" xlink:title="AP030" d="M14008.9005,-3604.0466L14009.4299,-3603.9532L14010.0403,-3604.0798L14010.1824,-3604.1414"/>
<path content="AP030,1,28,1,0,14,1,8,JPN" xlink:title="AP030" d="M14017.6928,-3605.6917L14017.3935,-3605.3555L14017.0634,-3605.0043L14016.8579,-3604.7829L14016.69,-3604.6023L14016.5643,-3604.374L14016.4175,-3603.9175L14016.3204,-3603.7725"/>
<path content="AP030,1,28,1,0,15,1,8,JPN" xlink:title="AP030" d="M14014.928,-3604.8824L14015.1242,-3604.5658L14015.287,-3604.4164L14015.5913,-3604.2228L14016.3204,-3603.7725"/>
<path content="AP030,1,28,1,0,14,1,8,JPN" xlink:title="AP030" d="M14008.1497,-3603.9001L14008.4063,-3603.9671"/>
<path content="AP030,1,28,1,0,15,1,8,JPN" xlink:title="AP030" d="M14008.4698,-3605.3282L14008.278,-3605.0035L14008.1624,-3604.718L14008.1497,-3603.9001"/>
<path content="AP030,1,28,1,0,14,1,8,JPN" xlink:title="AP030" d="M13992.1875,-3604.7628L13992.45,-3604.694L13992.95,-3604.657L13993.33,-3604.607L13993.81,-3604.327L13994.28,-3604.147L13994.97,-3603.967L13995.66,-3603.861"/>
<path content="AP030,1,28,1,0,15,1,8,JPN" xlink:title="AP030" d="M14021.4676,-3603.8216L14022.4304,-3604.3732"/>
<path content="AP030,1,28,1,0,14,1,8,JPN" xlink:title="AP030" d="M14019.0302,-3604.7079L14019.4288,-3604.6125L14020.1378,-3604.5137L14020.6287,-3604.2752L14021.1196,-3604.0197L14021.4676,-3603.8216"/>
<path content="AP030,1,28,1,0,14,1,8,JPN" xlink:title="AP030" d="M14021.4676,-3603.8216L14021.4905,-3603.8132"/>
<path content="AP030,1,28,1,0,14,1,8,JPN" xlink:title="AP030" d="M13995.66,-3603.861L13996.2521,-3603.8044L13997.29,-3603.92L13997.8104,-3603.9532L13998.0194,-3603.9734"/>
<path content="AP030,1,28,1,0,16,1,8,JPN" xlink:title="AP030" d="M14013.6488,-3603.7837L14013.9915,-3604.0345"/>
<path content="AP030,1,28,1,0,15,1,8,JPN" xlink:title="AP030" d="M14012.3301,-3604.5983L14012.4822,-3604.4115L14012.8785,-3604.3023L14013.1686,-3604.1385L14013.6488,-3603.7837"/>
<path content="AP030,1,28,1,0,15,1,8,JPN" xlink:title="AP030" d="M13997.8699,-3606.8871L13997.7814,-3605.6553L13997.9584,-3604.7859L13998.5794,-3604.4235L13998.6801,-3603.7201"/>
<path content="AP030,1,28,1,0,16,1,8,JPN" xlink:title="AP030" d="M13998.0194,-3603.9734L13998.6801,-3603.7201"/>
<path content="AP030,1,28,1,0,14,1,8,JPN" xlink:title="AP030" d="M14000.3296,-3603.7067L14000.6805,-3603.7201L14002.1103,-3603.7601L14002.9694,-3603.9734L14003.0807,-3604.0134"/>
<path content="AP030,1,28,1,0,14,1,8,JPN" xlink:title="AP030" d="M13998.4573,-3610.154L13998.7,-3609.1267L13998.6801,-3608.9466L13998.6298,-3608.8402L13998.5794,-3608.6933L13998.5199,-3608.5533L13998.5397,-3608.3733L13998.7,-3607.8869L13998.8297,-3607.4867L13999.2004,-3606.4999L13999.2706,-3606.3198L13999.6796,-3605.1468L13999.9496,-3604.7668L13999.9695,-3604.6932L14000,-3604.5212L14000.0198,-3604.4067L14000.0793,-3604.1534L14000.1297,-3603.9532L14000.2197,-3603.7933L14000.3296,-3603.7067"/>
<path content="AP030,1,28,1,0,16,1,8,JPN" xlink:title="AP030" d="M13998.6801,-3603.7201L13998.79,-3603.6865"/>
<path content="AP030,1,28,1,0,14,1,8,JPN" xlink:title="AP030" d="M14007.4402,-3603.6816L14007.8995,-3603.8334L14008.02,-3603.8666L14008.1497,-3603.9001"/>
<path content="AP030,1,28,1,0,15,1,8,JPN" xlink:title="AP030" d="M14004.9445,-3607.6435L14004.9799,-3607.4452L14004.987,-3607.0199L14005.2567,-3605.949L14005.9341,-3604.5311L14005.9631,-3604.5086L14006.7139,-3603.9402L14007.4402,-3603.6816"/>
<path content="AP030,1,28,1,0,14,1,8,JPN" xlink:title="AP030" d="M13998.79,-3603.6865L13999.0204,-3603.6667L13999.3042,-3603.7189L13999.6796,-3603.7399L13999.9298,-3603.7601L14000,-3603.7537L14000.1495,-3603.7399L14000.3296,-3603.7067"/>
<path content="AP030,1,28,1,0,15,1,8,JPN" xlink:title="AP030" d="M14013.6488,-3603.7837L14013.712,-3603.718L14013.7484,-3603.6845"/>
<path content="AP030,1,28,1,0,14,1,8,JPN" xlink:title="AP030" d="M14010.1824,-3604.1414L14010.193,-3603.923L14010.2072,-3603.8109L14010.2673,-3603.6328"/>
<path content="AP030,1,28,1,0,16,1,8,JPN" xlink:title="AP030" d="M14009.7543,-3603.6012L14010.2673,-3603.6328"/>
<path content="AP030,1,28,1,0,16,1,8,JPN" xlink:title="AP030" d="M14012.9776,-3603.469L14013.5406,-3603.7201L14013.6488,-3603.7837"/>
<path content="AP030,1,28,1,0,16,1,8,JPN" xlink:title="AP030" d="M14010.2673,-3603.6328L14010.7874,-3603.5782L14011.5198,-3603.4144L14012.0966,-3603.354L14012.2867,-3603.3711"/>
<path content="AP030,1,28,1,0,15,1,8,JPN" xlink:title="AP030" d="M14018.9846,-3603.7799L14019.6697,-3603.9116L14020.0389,-3603.9525L14020.3689,-3603.7912L14020.7993,-3603.4846L14021.2481,-3603.4028L14021.4676,-3603.8216"/>
<path content="AP030,1,28,1,0,15,1,8,JPN" xlink:title="AP030" d="M14019.0302,-3604.7079L14019.0544,-3604.4934L14019.0627,-3604.0914L14019.1257,-3603.8631L14018.9704,-3603.829L14018.9846,-3603.7799"/>
<path content="AP030,1,28,1,0,15,1,8,JPN" xlink:title="AP030" d="M14003.0807,-3604.0134L14003.4302,-3603.2001"/>
<path content="AP030,1,28,1,0,14,1,8,JPN" xlink:title="AP030" d="M14004.4296,-3604.1332L14004.4907,-3604.0798L14004.5807,-3603.9932L14004.8798,-3603.6533L14005.13,-3603.4134L14005.3802,-3603.1467"/>
<path content="AP030,1,28,1,0,14,1,8,JPN" xlink:title="AP030" d="M14003.4302,-3603.2001L14003.4698,-3603.2001L14003.6102,-3603.2001L14003.9505,-3603.1799L14005.2704,-3603.1467L14005.3802,-3603.1467"/>
<path content="AP030,1,28,1,0,14,1,8,JPN" xlink:title="AP030" d="M14005.3802,-3603.1467L14005.4901,-3603.1467L14005.6335,-3603.1517L14006.0593,-3603.1666L14006.1096,-3603.1799L14006.2897,-3603.2532L14006.4697,-3603.3066L14006.9702,-3603.5267L14007.4402,-3603.6816"/>
<path content="AP030,1,28,1,0,16,1,8,JPN" xlink:title="AP030" d="M14008.6787,-3602.9977L14009.2589,-3603.4345L14009.5031,-3603.5494L14009.7543,-3603.6012"/>
<path content="AP030,1,28,1,0,14,1,8,JPN" xlink:title="AP030" d="M14016.3204,-3603.7725L14016.2224,-3603.5975L14016.1753,-3603.4979L14016.1564,-3603.381L14016.1328,-3603.0591"/>
<path content="AP030,1,28,1,0,14,1,8,JPN" xlink:title="AP030" d="M14013.3411,-3603.0977L14013.8894,-3603.5547"/>
<path content="AP030,1,28,1,0,15,1,8,JPN" xlink:title="AP030" d="M14016.1328,-3603.0591L14016.2644,-3603.0263"/>
<path content="AP030,1,28,1,0,15,1,8,JPN" xlink:title="AP030" d="M13995.66,-3603.861L13995.43,-3602.8732"/>
<path content="AP030,1,28,1,0,14,1,8,JPN" xlink:title="AP030" d="M13992.1875,-3603.5935L13992.5797,-3603.6667L13992.72,-3603.7201L13993.0603,-3603.8334L13993.2693,-3603.8868L13993.4006,-3603.9001L13993.4692,-3603.8868L13993.6096,-3603.7731L13993.6996,-3603.7067L13994.0796,-3603.3066L13994.8303,-3603.0933L13995.43,-3602.8732"/>
<path content="AP030,1,28,1,0,14,1,8,JPN" xlink:title="AP030" d="M13995.43,-3602.8732L13995.9702,-3602.6798L13996.5805,-3602.4601"/>
<path content="AP030,1,28,1,0,15,1,8,JPN" xlink:title="AP030" d="M14013.8894,-3603.5547L14014.0636,-3603.3944L14014.1509,-3602.243"/>
<path content="AP030,1,28,1,0,14,1,8,JPN" xlink:title="AP030" d="M14000.3296,-3603.7067L14000.1999,-3603.3466L14000.1099,-3602.9865L14000,-3602.5711L13999.9893,-3602.5333L13999.9893,-3602.3869"/>
<path content="AP030,1,28,1,0,15,1,8,JPN" xlink:title="AP030" d="M13998.6801,-3603.7201L13998.6801,-3602.3533"/>
<path content="AP030,1,28,1,0,14,1,8,JPN" xlink:title="AP030" d="M13996.5805,-3602.4601L13996.7407,-3602.4601L13996.8597,-3602.4601L13997.7203,-3602.5002L13997.7707,-3602.5002L13998.1506,-3602.4399L13998.3307,-3602.4265L13998.6801,-3602.3533"/>
<path content="AP030,1,28,1,0,14,1,8,JPN" xlink:title="AP030" d="M13998.6801,-3602.3533L13998.8998,-3602.3201L13999.1104,-3602.3731L13999.2401,-3602.3869L13999.4507,-3602.4067L13999.4705,-3602.4067L13999.5926,-3602.4067L13999.6796,-3602.4067L13999.7406,-3602.4067L13999.8795,-3602.4067L13999.9893,-3602.3869"/>
<path content="AP030,1,28,1,0,14,1,8,JPN" xlink:title="AP030" d="M14001.0803,-3602.2469L14001.2207,-3602.3335L14001.4297,-3602.4601L14001.6098,-3602.5532L14002.0599,-3602.5532L14002.1301,-3602.5867L14002.2903,-3602.6932L14002.5406,-3602.8L14002.5803,-3602.8198L14003.1799,-3603.1265L14003.2196,-3603.1467L14003.4302,-3603.2001"/>
<path content="AP030,1,28,1,0,16,1,8,JPN" xlink:title="AP030" d="M14007.3929,-3602.1015L14007.9498,-3602.3335L14008.1802,-3602.4799L14008.6787,-3602.9977"/>
<path content="AP030,1,28,1,0,15,1,8,JPN" xlink:title="AP030" d="M14007.4402,-3603.6816L14007.3929,-3602.1015"/>
<path content="AP030,1,28,1,0,14,1,8,JPN" xlink:title="AP030" d="M14022.4304,-3604.3732L14022.7707,-3604.2465L14022.8806,-3604.1733L14022.9904,-3604.1931L14023.1796,-3604.1931L14023.4894,-3604.1L14023.7,-3604.0134L14023.8297,-3603.9001L14023.9502,-3603.7731L14023.97,-3603.7601L14024.5407,-3603.5599L14024.7192,-3603.5069L14025.7706,-3603.2333L14026.0803,-3603.1799L14026.5198,-3603.1666L14027.3438,-3602.9981"/>
<path content="AP030,1,28,1,0,15,1,8,JPN" xlink:title="AP030" d="M14007.3929,-3602.1015L14007.41,-3601.9055"/>
<path content="AP030,1,28,1,0,14,1,8,JPN" xlink:title="AP030" d="M13999.9893,-3602.3869L14000,-3602.3869L14000.0397,-3602.3869L14000.2197,-3602.3201L14000.3799,-3602.1534L14000.4898,-3602.0267L14000.6104,-3601.8867L14000.8301,-3601.9001L14001.0605,-3602.0802L14001.0803,-3602.2469"/>
<path content="AP030,1,28,1,0,14,1,8,JPN" xlink:title="AP030" d="M14012.8996,-3601.6303L14013.3137,-3602.5187L14013.3158,-3602.5644"/>
<path content="AP030,1,28,1,0,14,1,8,JPN" xlink:title="AP030" d="M14010.2673,-3603.6328L14010.4619,-3603.4144L14010.9695,-3603.0201L14011.7905,-3602.4399L14012.8996,-3601.6303"/>
<path content="AP030,1,28,1,0,14,1,8,JPN" xlink:title="AP030" d="M14021.4905,-3603.8132L14022.3801,-3603.4866L14022.8806,-3603.2734L14023.5397,-3602.8732L14023.5397,-3602.8599L14023.6298,-3602.8L14024.2004,-3602.4399L14024.4293,-3602.28L14024.5804,-3602.2068L14024.7894,-3602.1332L14025.1099,-3602.1L14026.1795,-3602.1534L14026.7197,-3602.2068L14027.2003,-3602.2266L14027.3438,-3602.2266"/>
<path content="AP030,1,28,1,0,15,1,8,JPN" xlink:title="AP030" d="M14014.1509,-3602.243L14014.2572,-3602.025L14014.4604,-3601.6191L14014.7381,-3601.0391L14014.8611,-3600.8968L14015.0244,-3600.8055L14015.2208,-3600.7544"/>
<path content="AP030,1,28,1,0,14,1,8,JPN" xlink:title="AP030" d="M14016.1328,-3603.0591L14016.0877,-3602.5283L14016.0206,-3602.258L14015.9899,-3602.1149L14015.878,-3601.8219L14015.7914,-3601.6356L14015.6879,-3601.4516L14015.6292,-3601.1654L14015.5398,-3600.7293"/>
<path content="AP030,1,28,1,0,15,1,8,JPN" xlink:title="AP030" d="M14015.2208,-3600.7544L14015.5398,-3600.7293"/>
<path content="AP030,1,28,1,0,14,1,8,JPN" xlink:title="AP030" d="M14015.4929,-3600.5772L14015.5398,-3600.7293"/>
<path content="AP030,1,28,1,0,15,1,8,JPN" xlink:title="AP030" d="M14018.9846,-3603.7799L14019.0096,-3603.664L14018.9565,-3603.6595L14018.895,-3603.1007L14019.004,-3602.6487L14019.4039,-3602.0104L14019.4514,-3601.1768L14019.2977,-3600.8156"/>
<path content="AP030,1,28,1,0,15,1,8,JPN" xlink:title="AP030" d="M14021.4905,-3603.8132L14021.6888,-3602.6226L14022.081,-3602.2697L14021.9009,-3600.7687L14022.2358,-3599.9525"/>
<path content="AP030,1,28,1,0,15,1,8,JPN" xlink:title="AP030" d="M14019.2748,-3600.7009L14019.4649,-3600.6804L14019.7976,-3600.3829L14020.3316,-3600.2897L14020.7817,-3600.1762L14022.3495,-3599.6754"/>
<path content="AP030,1,28,1,0,15,1,8,JPN" xlink:title="AP030" d="M14003.328,-3599.652L14003.62,-3599.718L14004.22,-3599.892L14004.58,-3600.068L14005.14,-3600.446L14005.75,-3600.845L14006.63,-3601.477L14006.98,-3601.671L14007.41,-3601.9055"/>
<path content="AP030,1,28,1,0,16,1,8,JPN" xlink:title="AP030" d="M14003.328,-3599.652L14003.45,-3599.7932L14003.6804,-3600.0134L14003.8803,-3600.1732L14004.0802,-3600.3201L14004.1504,-3600.3735L14004.3793,-3600.6199L14004.5578,-3600.7355L14004.7699,-3600.8732L14005.13,-3601.1665L14005.5801,-3601.3802L14006.3293,-3601.7067L14007.1793,-3602.0134L14007.3929,-3602.1015"/>
<path content="AP030,1,28,1,0,15,1,8,JPN" xlink:title="AP030" d="M14019.2748,-3600.7009L14019.3028,-3600.3533L14019.3895,-3600.0058L14019.0778,-3599.6222L14018.9744,-3599.4064L14018.5872,-3599.1245"/>
<path content="AP030,1,28,1,0,15,1,8,JPN" xlink:title="AP030" d="M14001.6815,-3599.3176L14002.1,-3599.397L14002.89,-3599.553L14003.328,-3599.652"/>
<path content="AP030,1,28,1,0,15,1,8,JPN" xlink:title="AP030" d="M14001.0803,-3602.2469L14001.3687,-3600.9747L14001.5381,-3599.5602L14001.6815,-3599.3176"/>
<path content="AP030,1,28,1,0,14,1,8,JPN" xlink:title="AP030" d="M14014.5085,-3599.157L14014.6175,-3599.2388L14014.8462,-3599.3903L14015.0335,-3599.6198L14015.1481,-3599.7447L14015.15,-3599.7469"/>
<path content="AP030,1,28,1,0,14,1,8,JPN" xlink:title="AP030" d="M14012.8996,-3601.6303L14012.9501,-3601.5934L14013.1104,-3601.4866L14013.6307,-3600.3201L14013.7183,-3600.1078L14013.9321,-3599.7577L14014.0529,-3599.5931L14014.3058,-3599.3478L14014.5085,-3599.157"/>
<path content="AP030,1,28,1,0,15,1,8,JPN" xlink:title="AP030" d="M14022.3495,-3599.6754L14022.4611,-3599.0695"/>
<path content="AP030,1,28,1,0,16,1,8,JPN" xlink:title="AP030" d="M14018.5872,-3599.1245L14019.0555,-3599.1725L14019.8102,-3599.4496L14020.2183,-3599.5495L14020.6264,-3599.595L14021.18,-3599.594L14021.83,-3599.352L14022.4611,-3599.0695"/>
<path content="AP030,1,28,1,0,15,1,8,JPN" xlink:title="AP030" d="M13996.5805,-3602.4601L13994.5114,-3600.8663L13993.7149,-3600.1587L13994.4214,-3598.9506"/>
<path content="AP030,1,28,1,0,15,1,8,JPN" xlink:title="AP030" d="M14009.7543,-3603.6012L14010.2814,-3601.1436L14010.8521,-3599.3416L14011.3312,-3598.7217"/>
<path content="AP030,1,28,1,0,15,1,8,JPN" xlink:title="AP030" d="M13998.1293,-3598.4398L13999.3079,-3598.7547L14000.29,-3599.037L14001.33,-3599.251L14001.6815,-3599.3176"/>
<path content="AP030,1,28,1,0,14,1,8,JPN" xlink:title="AP030" d="M13999.9893,-3602.3869L13999.9298,-3602.0267L13999.8596,-3601.9001L13999.7696,-3601.8467L13999.6796,-3601.7933L13999.6094,-3601.7601L13999.3607,-3601.5598L13999.2004,-3601.2867L13999.1104,-3601.0735L13998.3795,-3600.3201L13998.0698,-3599.9508L13997.9507,-3599.8333L13997.9507,-3599.7066L13997.9904,-3599.3065L13998.0606,-3598.7667L13998.1293,-3598.4398"/>
<path content="AP030,1,28,1,0,16,1,8,JPN" xlink:title="AP030" d="M14002.2202,-3598.4066L14002.4704,-3598.6401L14002.7206,-3598.8934L14002.9495,-3599.1798L14003.2196,-3599.5266L14003.328,-3599.652"/>
<path content="AP030,1,28,1,0,15,1,8,JPN" xlink:title="AP030" d="M14001.6815,-3599.3176L14002.2202,-3598.4066"/>
<path content="AP030,1,28,1,0,14,1,8,JPN" xlink:title="AP030" d="M14014.5085,-3599.157L14014.3295,-3599.0932L14014.1495,-3598.9468L14014.0396,-3598.7865L14013.9694,-3598.6401L14013.9496,-3598.46L14013.9496,-3598.2468"/>
<path content="AP030,1,28,1,0,15,1,8,JPN" xlink:title="AP030" d="M14011.3312,-3598.7217L14012.8876,-3598.5195L14013.9496,-3598.2468"/>
<path content="AP030,1,28,1,0,15,1,8,JPN" xlink:title="AP030" d="M13994.4214,-3598.9506L13995.4651,-3598.2124L13998.1293,-3598.4398"/>
<path content="AP030,1,28,1,0,15,1,8,JPN" xlink:title="AP030" d="M14007.41,-3601.9055L14007.5195,-3600.6554L14007.431,-3599.931L14007.431,-3599.2062L14006.723,-3598.1918"/>
<path content="AP030,1,28,1,0,15,1,8,JPN" xlink:title="AP030" d="M14024.2142,-3598.0953L14025.0813,-3598.6918"/>
<path content="AP030,1,28,1,0,15,1,8,JPN" xlink:title="AP030" d="M14022.3495,-3599.6754L14023.6542,-3598.8075L14024.2142,-3598.0953"/>
<path content="AP030,1,28,1,0,16,1,8,JPN" xlink:title="AP030" d="M14022.4611,-3599.0695L14022.65,-3598.985L14023.2,-3598.58L14023.53,-3598.344L14024.2142,-3598.0953"/>
<path content="AP030,1,28,1,0,15,1,8,JPN" xlink:title="AP030" d="M14009.6252,-3598.0431L14010.2325,-3598.3788L14011.3312,-3598.7217"/>
<path content="AP030,1,28,1,0,15,1,8,JPN" xlink:title="AP030" d="M13992.1875,-3598.0849L13994.4214,-3598.9506"/>
<path content="AP030,1,28,1,0,15,1,8,JPN" xlink:title="AP030" d="M14006.723,-3598.1918L14007.6538,-3597.752L14008.6884,-3597.76L14009.375,-3597.9053L14009.6252,-3598.0431"/>
<path content="AP030,1,28,1,0,14,1,8,JPN" xlink:title="AP030" d="M14014.5085,-3599.157L14014.6379,-3599.065L14014.9272,-3598.9424L14015.3549,-3598.7481L14015.4639,-3598.6766L14015.6756,-3598.4994L14015.9021,-3598.3835L14016.0614,-3598.2779L14016.1578,-3598.2285L14016.3779,-3598.2609L14016.64,-3598.2438L14016.7993,-3598.2063L14016.8433,-3598.1842L14016.9607,-3598.1995L14017.0807,-3598.1197L14017.1871,-3598.0189L14017.2897,-3597.9198L14017.424,-3597.852L14017.4698,-3597.813L14017.5015,-3597.7702L14017.5455,-3597.702L14017.7887,-3597.6288"/>
<path content="AP030,1,28,1,0,15,1,8,JPN" xlink:title="AP030" d="M14018.5872,-3599.1245L14018.2846,-3598.0999L14018.3295,-3597.4175"/>
<path content="AP030,1,28,1,0,14,1,8,JPN" xlink:title="AP030" d="M14017.7887,-3597.6288L14018.0968,-3597.5061L14018.3295,-3597.4175"/>
<path content="AP030,1,28,1,0,16,1,8,JPN" xlink:title="AP030" d="M13998.3551,-3597.3335L13998.4802,-3597.4079L13998.79,-3597.5933L13999.3103,-3597.8867L13999.6796,-3598.0267L13999.8306,-3598.0667L14000,-3598.0927L14000.1801,-3598.1197L14000.5798,-3598.1533L14001.1505,-3598.1533L14001.5396,-3598.1731L14001.9699,-3598.28L14002.2202,-3598.4066"/>
<path content="AP030,1,28,1,0,14,1,8,JPN" xlink:title="AP030" d="M13998.1293,-3598.4398L13998.1995,-3598.0999L13998.3093,-3597.5399L13998.3551,-3597.3335"/>
<path content="AP030,1,28,1,0,15,1,8,JPN" xlink:title="AP030" d="M14002.7786,-3596.9681L14003.9154,-3598.0495L14004.7699,-3598.6168L14005.2338,-3598.3402L14006.723,-3598.1918"/>
<path content="AP030,1,28,1,0,15,1,8,JPN" xlink:title="AP030" d="M14002.2202,-3598.4066L14002.1622,-3598.0877L14002.3193,-3597.8024L14002.7786,-3596.9681"/>
<path content="AP030,1,28,1,0,15,1,8,JPN" xlink:title="AP030" d="M14011.3312,-3598.7217L14011.8301,-3598.0732L14013.0539,-3596.6717"/>
<path content="AP030,1,28,1,0,15,1,8,JPN" xlink:title="AP030" d="M14006.723,-3598.1918L14006.192,-3597.2496L14005.9265,-3596.4527L14006.1035,-3595.9454L14006.015,-3595.583"/>
<path content="AP030,1,28,1,0,15,1,8,JPN" xlink:title="AP030" d="M14002.7786,-3596.9681L14003.3188,-3596.3734L14004.3076,-3596.0529L14004.8386,-3595.9957L14006.015,-3595.583"/>
<path content="AP030,1,28,1,0,15,1,8,JPN" xlink:title="AP030" d="M14002.7786,-3596.9681L14002.3819,-3596.5893L14000.6699,-3595.6409L14000.2441,-3595.7172L14000,-3595.7607L13999.9207,-3595.7748L13999.8352,-3595.2831L13999.8138,-3595.1668"/>
<path content="AP030,1,28,1,0,16,1,8,JPN" xlink:title="AP030" d="M14024.2142,-3598.0953L14025.2047,-3597.9724L14026.9307,-3597.5474L14027.3438,-3597.3813"/>
<path content="AP030,1,28,1,0,15,1,8,JPN" xlink:title="AP030" d="M14022.4304,-3595.0932L14022.8668,-3596.3539L14023.5825,-3597.6608L14024.2142,-3598.0953"/>
<path content="AP030,1,28,1,0,15,1,8,JPN" xlink:title="AP030" d="M14022.4611,-3599.0695L14022.5037,-3598.8384L14022.5128,-3597.8909L14022.3312,-3596.508L14022.4304,-3595.0932"/>
<path content="AP030,1,28,1,0,14,1,8,JPN" xlink:title="AP030" d="M14018.3295,-3597.4175L14018.6493,-3597.253L14018.7897,-3597.1466L14018.8293,-3597.0734L14018.8293,-3596.9666L14018.8797,-3596.8731L14018.9499,-3596.7667L14019.0399,-3596.6599L14019.1299,-3596.6064L14019.22,-3596.5866L14019.2902,-3596.5866L14019.4305,-3596.6198L14019.5404,-3596.64L14019.6106,-3596.64L14019.7006,-3596.5866L14019.7693,-3596.5668L14019.9295,-3596.553L14020.0394,-3596.553L14020.1096,-3596.5134L14020.1492,-3596.46L14020.2393,-3596.32L14020.3293,-3596.2799L14020.3598,-3596.2601L14020.3995,-3596.2467L14020.4895,-3596.2265L14020.61,-3596.2067L14020.6497,-3596.1731L14020.7199,-3596.08L14020.8099,-3595.9534L14020.9305,-3595.8466L14021.0205,-3595.8134L14021.08,-3595.7932L14021.2204,-3595.7932L14021.4005,-3595.8134L14021.5393,-3595.8134L14021.6095,-3595.7932L14021.6797,-3595.7199L14021.8094,-3595.5601L14021.8994,-3595.4533L14022.1802,-3595.2732L14022.3099,-3595.1668L14022.4304,-3595.0932"/>
<path content="AP030,1,28,1,0,15,1,8,JPN" xlink:title="AP030" d="M14024.2142,-3598.0953L14025.856,-3596.0041L14027.3239,-3595.1366L14027.3438,-3595.135"/>
<path content="AP030,1,28,1,0,15,1,8,JPN" xlink:title="AP030" d="M13992.1875,-3594.8457L13992.3569,-3594.4485"/>
<path content="AP030,1,28,1,0,15,1,8,JPN" xlink:title="AP030" d="M13992.1875,-3594.502L13992.3569,-3594.4485"/>
<path content="AP030,1,28,1,0,15,1,8,JPN" xlink:title="AP030" d="M14009.6252,-3598.0431L14009.7687,-3597.4087L14010.4691,-3595.7928L14010.2264,-3594.9291L14009.9548,-3594.455L14009.4543,-3594.0617"/>
<path content="AP030,1,28,1,0,15,1,8,JPN" xlink:title="AP030" d="M14006.015,-3595.583L14006.7963,-3594.7388L14008.3862,-3594.6896L14009.4543,-3594.0617"/>
<path content="AP030,1,28,1,0,16,1,8,JPN" xlink:title="AP030" d="M13996.7194,-3593.7931L13996.9696,-3594.26L13997.3099,-3594.9867L13997.5601,-3595.6867L13997.7402,-3596.1933L13997.9706,-3596.8399L13998.0606,-3597.02L13998.1094,-3597.0932L13998.3093,-3597.3064L13998.3551,-3597.3335"/>
<path content="AP030,1,28,1,0,15,1,8,JPN" xlink:title="AP030" d="M13994.4214,-3598.9506L13993.9178,-3597.9652L13994.1513,-3597.6406L13995.134,-3597.2755L13995.1996,-3596.5755L13995.5444,-3596.6251L13995.5551,-3595.7378L13996.5988,-3594.9997L13996.7194,-3593.7931"/>
<path content="AP030,1,28,1,0,14,1,8,JPN" xlink:title="AP030" d="M13998.3551,-3597.3335L13998.3795,-3597.2198L13998.4497,-3596.5668L13998.7701,-3595.8332L13998.8602,-3595.5601L13999.1104,-3594.9867L13999.115,-3594.9745L13999.4293,-3594.2799L13999.5605,-3594.0266L13999.5605,-3594.0132L13999.6796,-3593.6867L13999.7406,-3593.56L13999.8795,-3593.3998L14000,-3593.3544L14000.1801,-3593.2865L14000.2197,-3593.2732L14000.47,-3593.1801L14000.5402,-3593.1465"/>
<path content="AP030,1,28,1,0,15,1,8,JPN" xlink:title="AP030" d="M14000.5402,-3593.1465L14000.47,-3593.0931L14000.4303,-3593.0401L14000.4303,-3592.9466"/>
<path content="AP030,1,28,1,0,14,1,8,JPN" xlink:title="AP030" d="M14013.9496,-3598.2468L14013.9496,-3598.1197L14013.9496,-3597.7734L14013.9496,-3597.76L14013.9496,-3597.4865L14013.9297,-3597.1268L14013.9297,-3597.0932L14013.8992,-3596.6198L14013.8992,-3596.553L14013.8596,-3596.1731L14013.8306,-3595.7199L14013.8306,-3595.6867L14013.8306,-3595.5399L14013.8107,-3595.3598L14013.7695,-3595.2L14013.6993,-3595.0531L14013.6795,-3594.9131L14013.6993,-3594.5534L14013.6993,-3594.5332L14013.6795,-3594.2799L14013.6505,-3594.1334L14013.5803,-3593.9934L14013.5193,-3593.8667L14013.4903,-3593.7199L14013.4506,-3593.5398L14013.4506,-3593.3598L14013.4293,-3593.1801L14013.4003,-3592.9665L14013.3804,-3592.7998L14013.3301,-3592.68"/>
<path content="AP030,1,28,1,0,15,1,8,JPN" xlink:title="AP030" d="M13996.7194,-3593.7931L13997.0337,-3593.8171L13997.9919,-3593.8904L13998.9807,-3592.9646L13999.675,-3592.5503L14000,-3592.7208L14000.4303,-3592.9466"/>
<path content="AP030,1,28,1,0,15,1,8,JPN" xlink:title="AP030" d="M14009.4543,-3594.0617L14009.7595,-3593.7561L14011.1542,-3593.2327L14010.907,-3592.8001L14010.6293,-3592.3531"/>
<path content="AP030,1,28,1,0,15,1,8,JPN" xlink:title="AP030" d="M14000.4303,-3592.9466L14000.5203,-3592.7868L14000.56,-3592.68L14000.5798,-3592.5533L14000.5798,-3592.3866L14000.56,-3592.1734"/>
<path content="AP030,1,28,1,0,14,1,8,JPN" xlink:title="AP030" d="M14009.5398,-3591.6664L14010.1501,-3591.7931L14010.2402,-3591.8133L14010.4706,-3591.8331L14010.5804,-3591.8331L14010.7407,-3591.8667L14010.9894,-3591.8999L14011.3098,-3591.9731L14011.5601,-3592.0666L14011.6501,-3592.0998L14011.8103,-3592.1532L14012.0605,-3592.26L14012.2406,-3592.3531L14012.3993,-3592.44L14012.5397,-3592.5133L14012.5595,-3592.5331L14012.6801,-3592.5667L14012.8098,-3592.5667L14012.97,-3592.5667L14013.06,-3592.5667L14013.1805,-3592.5865L14013.2706,-3592.6201L14013.2904,-3592.6201L14013.3301,-3592.68"/>
<path content="AP030,1,28,1,0,14,1,8,JPN" xlink:title="AP030" d="M14009.5398,-3591.6664L14010.0403,-3591.9731L14010.6293,-3592.3531"/>
<path content="AP030,1,28,1,0,16,1,8,JPN" xlink:title="AP030" d="M13994.9005,-3591.5932L13995.1096,-3591.7065L13995.3796,-3591.9201L13995.61,-3592.12L13995.9503,-3592.5667L13996.4005,-3593.2198L13996.7194,-3593.7931"/>
<path content="AP030,1,28,1,0,15,1,8,JPN" xlink:title="AP030" d="M13992.3569,-3594.4485L13993.4555,-3593.8046L13994.4427,-3593.0656L13994.9005,-3591.5932"/>
<path content="AP030,1,28,1,0,14,1,8,JPN" xlink:title="AP030" d="M14008.0597,-3591.1667L14008.4305,-3591.2731L14008.6502,-3591.3597L14008.9294,-3591.4532L14009.2407,-3591.56L14009.5398,-3591.6664"/>
<path content="AP030,1,28,1,0,15,1,8,JPN" xlink:title="AP030" d="M14006.015,-3595.583L14005.9265,-3594.6411L14006.192,-3593.2644L14007.1655,-3592.3946L14007.7866,-3591.8877L14008.0597,-3591.1667"/>
<path content="AP030,1,28,1,0,16,1,8,JPN" xlink:title="AP030" d="M13993.6493,-3590.9824L13993.8095,-3591.0732L13994.3298,-3591.3265L13994.9005,-3591.5932"/>
<path content="AP030,1,28,1,0,14,1,8,JPN" xlink:title="AP030" d="M13992.1875,-3592.2267L13992.2897,-3592.1734L13992.5598,-3591.9533L13992.9504,-3591.5398L13993.0603,-3591.4333L13993.3304,-3591.2197L13993.4296,-3591.1465L13993.5806,-3591.0198L13993.6493,-3590.9824"/>
<path content="AP030,1,28,1,0,14,1,8,JPN" xlink:title="AP030" d="M14027.3438,-3592.6566L14027.3102,-3592.6598L14027.1301,-3592.7467L14026.8997,-3592.9131L14026.6495,-3593.1267L14026.3596,-3593.3468L14026.3107,-3593.4532L14026.2894,-3593.6131L14026.2207,-3593.7401L14026.1307,-3593.8667L14026.0193,-3593.9533L14025.8301,-3594.0468L14025.65,-3594.1334L14025.6104,-3594.2066L14025.5798,-3594.3199L14025.4898,-3594.3867L14025.3998,-3594.4267L14025.3296,-3594.4267L14025.2701,-3594.4401L14025.1495,-3594.4599L14025.0793,-3594.5133L14024.9695,-3594.68L14024.8993,-3594.8399L14024.8306,-3594.9665L14024.7894,-3595.0733L14024.6506,-3595.1065L14024.5193,-3595.1466L14024.4003,-3595.1466L14024.2905,-3595.1267L14024.2203,-3595.1065L14024.1104,-3595.0531L14023.9502,-3595.0199L14023.8297,-3595.0001L14023.6801,-3594.9867L14023.4299,-3594.9467L14023.1796,-3594.8933L14022.9904,-3594.873L14022.8806,-3594.8601L14022.7707,-3594.8933L14022.6807,-3594.9265L14022.4304,-3595.0932"/>
<path content="AP030,1,28,1,0,16,1,8,JPN" xlink:title="AP030" d="M14000.56,-3592.1734L14000.5203,-3591.9731L14000.4303,-3591.6531L14000.2899,-3591.2865L14000.1801,-3590.8199L14000,-3590.258L13999.9893,-3590.2267"/>
<path content="AP030,1,28,1,0,16,1,8,JPN" xlink:title="AP030" d="M13992.8604,-3590.1932L13992.9703,-3590.3198L13993.3105,-3590.7131L13993.4906,-3590.8932L13993.6493,-3590.9824"/>
<path content="AP030,1,28,1,0,15,1,8,JPN" xlink:title="AP030" d="M13992.1875,-3590.3133L13992.8604,-3590.1932"/>
<path content="AP030,1,28,1,0,14,1,8,JPN" xlink:title="AP030" d="M14006.4301,-3590.1932L14006.4987,-3590.2569L14006.5796,-3590.3332L14006.81,-3590.5666L14007.0801,-3590.7467L14007.3105,-3590.86L14007.5607,-3590.9664L14007.6294,-3590.9866L14007.7194,-3591.0198L14008.0597,-3591.1667"/>
<path content="AP030,1,28,1,0,14,1,8,JPN" xlink:title="AP030" d="M14000.5402,-3593.1465L14000.6805,-3593.0931L14000.7401,-3593.0531L14000.9903,-3592.9665L14001.1307,-3592.8734L14001.4496,-3592.7467L14001.7395,-3592.6399L14002.2202,-3592.4999L14002.4704,-3592.4065L14002.7695,-3592.26L14003.1097,-3592.12L14003.2898,-3592.0265L14003.6499,-3591.8667L14003.9902,-3591.7198L14004.2404,-3591.6134L14004.4495,-3591.5066L14004.5807,-3591.3998L14004.6997,-3591.2865L14004.8096,-3591.1064L14004.8996,-3590.9866L14005.0201,-3590.9267L14005.2399,-3590.7665L14005.3101,-3590.7131L14005.5206,-3590.6067L14005.5603,-3590.6067L14005.6793,-3590.5865L14005.8105,-3590.5865L14005.9006,-3590.5533L14006.1798,-3590.353L14006.4301,-3590.1932"/>
<path content="AP030,1,28,1,0,15,1,8,JPN" xlink:title="AP030" d="M14017.7887,-3597.6288L14017.6755,-3597.3885L14017.5204,-3597.3238L14017.4218,-3597.1398L14017.2332,-3596.9422L14017.1661,-3596.7496L14017.1242,-3596.6644L14017.0341,-3596.3578L14017.0509,-3596.0221L14017.0844,-3595.6134L14017.2259,-3594.6167L14017.4561,-3593.7122L14017.6697,-3591.8587L14017.5156,-3591.037L14017.3477,-3590.1485"/>
<path content="AP030,1,28,1,0,15,1,8,JPN" xlink:title="AP030" d="M14013.3301,-3592.68L14013.2751,-3592.3946L14013.2813,-3592.3336L14013.3636,-3591.5977L14014.3372,-3591.4528L14015.0452,-3591.0904L14016.4627,-3590.5106L14017.3477,-3590.1485"/>
<path content="AP030,1,28,1,0,15,1,8,JPN" xlink:title="AP030" d="M14019.2947,-3589.6412L14020.1797,-3589.7137L14020.7108,-3591.1629L14022.3938,-3591.4528L14023.8983,-3591.3078L14026.2009,-3591.2354L14027.3438,-3591.3022"/>
<path content="AP030,1,28,1,0,15,1,8,JPN" xlink:title="AP030" d="M14019.2947,-3589.6412L14019.3771,-3591.0412L14019.0262,-3592.1837L14019.6945,-3593.1747L14021.2418,-3593.8564L14022.4304,-3595.0932"/>
<path content="AP030,1,28,1,0,15,1,8,JPN" xlink:title="AP030" d="M14017.3477,-3590.1485L14019.2947,-3589.6412"/>
<path content="AP030,1,28,1,0,14,1,8,JPN" xlink:title="AP030" d="M14006.0593,-3589.6332L14006.1493,-3589.793L14006.2393,-3589.9399L14006.3293,-3590.0665L14006.4301,-3590.1932"/>
<path content="AP030,1,28,1,0,15,1,8,JPN" xlink:title="AP030" d="M13999.1302,-3588.6066L13999.6094,-3589.1068L13999.6796,-3589.2532L13999.7894,-3589.3997L13999.8093,-3589.5397L13999.8795,-3589.7732L13999.9496,-3590.0467L13999.9893,-3590.2267"/>
<path content="AP030,1,28,1,0,15,1,8,JPN" xlink:title="AP030" d="M13994.9005,-3591.5932L13995.7321,-3591.0221L13995.7565,-3590.9801L13996.3791,-3589.9067L13998.1674,-3589.1747L13999.1302,-3588.6066"/>
<path content="AP030,1,28,1,0,16,1,8,JPN" xlink:title="AP030" d="M13992.1875,-3589.5349L13992.2699,-3589.6133L13992.3798,-3589.74L13992.6498,-3589.9933L13992.8604,-3590.1932"/>
<path content="AP030,1,28,1,0,15,1,8,JPN" xlink:title="AP030" d="M13999.1302,-3588.6066L13999.5407,-3587.8468"/>
<path content="AP030,1,28,1,0,14,1,8,JPN" xlink:title="AP030" d="M13999.5407,-3587.8468L13999.6796,-3587.8468L13999.9298,-3587.7399"/>
<path content="AP030,1,28,1,0,14,1,8,JPN" xlink:title="AP030" d="M13999.9298,-3587.7399L13999.9496,-3587.7399L14000,-3587.7369L14000.2899,-3587.7197L14000.6805,-3587.7068L14000.7706,-3587.7068L14001.1093,-3587.6667L14001.2405,-3587.6667L14001.5594,-3587.6534L14001.9302,-3587.6534L14002.2202,-3587.6534L14002.5803,-3587.6865L14002.8305,-3587.7068L14003.0594,-3587.7399L14003.2394,-3587.7731L14003.5202,-3587.8132L14003.7704,-3587.8468L14003.9001,-3587.8666L14004.0207,-3587.8998L14004.1504,-3587.9932L14004.3304,-3588.1001L14004.4907,-3588.2065L14004.6494,-3588.2999L14004.8599,-3588.3732L14005.04,-3588.4266L14005.13,-3588.48L14005.1498,-3588.4998L14005.3101,-3588.6066L14005.7007,-3589.1464L14005.8807,-3589.3997L14005.9692,-3589.5065L14006.0593,-3589.6332"/>
<path content="AP030,1,28,1,0,14,1,8,JPN" xlink:title="AP030" d="M13997.5204,-3587.0731L13997.9706,-3587.4531L13998.1796,-3587.5931L13998.2895,-3587.6534L13999.2905,-3587.833L13999.5407,-3587.8468"/>
<path content="AP030,1,28,1,0,14,1,8,JPN" xlink:title="AP030" d="M13993.6493,-3590.9824L13993.9499,-3590.8199L13994.6106,-3590.5533L13994.9493,-3590.3866L13995.1797,-3590.2466L13995.5124,-3589.8495L13996.0403,-3589.22L13996.0403,-3589.1998L13996.5393,-3588.3198L13996.8307,-3587.7731L13996.9498,-3587.6133L13997.1298,-3587.4332L13997.5204,-3587.0731"/>
<path content="AP030,1,28,1,0,14,1,8,JPN" xlink:title="AP030" d="M13999.9298,-3587.7399L13999.9695,-3587.6667L14000,-3587.6377L14000.0595,-3587.5797L14000.2197,-3587.4001L14000.3098,-3587.3066L14000.3799,-3587.2868L14000.7904,-3587.2868L14000.8102,-3587.1304L14000.8301,-3586.9865L14000.8804,-3586.9465L14000.9903,-3586.9267L14001.4694,-3586.9133L14001.5396,-3586.9667L14001.68,-3587.0934L14001.7197,-3587.0934L14001.7899,-3587.0934L14001.9699,-3587.0533L14002.0599,-3586.9999L14002.1301,-3586.9667L14002.3102,-3586.8401L14002.5406,-3586.7466L14002.6993,-3586.713L14002.9297,-3586.6798L14003.0594,-3586.6798L14003.27,-3586.6199L14003.45,-3586.5665L14003.5797,-3586.5131L14003.8803,-3586.4399L14004.0604,-3586.4067L14004.1306,-3586.4597L14004.2236,-3586.4964"/>
<path content="AP030,1,28,1,0,15,1,8,JPN" xlink:title="AP030" d="M14015.7407,-3585.9375L14016.7526,-3586.3171L14018.8446,-3586.2289L14024.4766,-3588.4231L14025.5422,-3588.173L14026.1616,-3588.1738L14027.2134,-3587.9099L14027.3438,-3587.9156"/>
<path content="AP030,1,28,1,0,15,1,8,JPN" xlink:title="AP030" d="M14014.8343,-3585.9375L14014.9567,-3586.1629L14015.0452,-3586.8153L14016.2842,-3588.8439L14017.3477,-3590.1485"/>
<path content="AP030,1,28,1,0,15,1,8,JPN" xlink:title="AP030" d="M14006.0593,-3589.6332L14006.3446,-3589.5161L14008.2291,-3588.7417L14009.9442,-3588.8569L14011.2885,-3588.3217L14012.5076,-3587.9559L14013.3118,-3587.0762L14013.7817,-3586.2617L14014.1361,-3585.9375"/>
<path content="AP030,1,28,1,0,14,1,8,JPN" xlink:title="AP030" d="M14004.2236,-3586.4964L14004.3304,-3586.6066L14004.4083,-3586.6852L14004.4907,-3586.7664L14004.6097,-3586.8401L14004.7195,-3586.8931L14004.7897,-3586.9133L14004.95,-3586.9133L14005.2704,-3586.9133L14005.4001,-3586.9267L14005.5405,-3586.9865L14005.6793,-3587.0399L14005.8304,-3587.0399L14006.0196,-3587.0399L14006.2195,-3587.0399L14006.4301,-3587.0197L14006.7001,-3586.9865L14006.9504,-3586.9465L14006.9901,-3586.9465L14007.2205,-3586.9133L14007.4295,-3586.8931L14007.5607,-3586.9133L14007.6096,-3586.9267L14007.8293,-3586.9267L14007.9498,-3586.9267L14008.0795,-3586.9267L14008.3298,-3586.9133L14008.5403,-3586.8599L14008.7692,-3586.7664L14009.0393,-3586.6199L14009.2407,-3586.5334L14009.4299,-3586.4799L14009.6497,-3586.4399L14009.9304,-3586.3731L14010.1303,-3586.3331L14010.2707,-3586.3197L14010.4004,-3586.3197L14010.4904,-3586.3197L14010.7895,-3586.3331L14010.8597,-3586.3331L14011.1099,-3586.3533L14011.2701,-3586.3197L14011.47,-3586.2267L14011.6302,-3586.1732L14011.8607,-3586.0798L14012.0605,-3585.9932L14012.1969,-3585.9375"/>
<path content="AP030,1,28,1,0,14,1,8,JPN" xlink:title="AP030" d="M13996.5602,-3585.9375L13996.6507,-3586.0664L13996.8597,-3586.4399L13996.8994,-3586.4998L13997.2198,-3586.7867L13997.4701,-3587.0197L13997.5204,-3587.0731"/>
<path content="AP030,1,28,1,0,14,1,8,JPN" xlink:title="AP030" d="M14025.8141,-3585.9375L14025.9506,-3586.013L14026.2405,-3586.2064L14026.5198,-3586.3865L14026.6998,-3586.4799L14026.9501,-3586.5868L14027.3102,-3586.713L14027.3438,-3586.7207"/>
<path content="AP030,1,28,1,0,15,1,8,JPN" xlink:title="AP030" d="M14003.6838,-3585.9375L14004.2236,-3586.4964"/>
<path content="AP030,1,28,1,0,14,1,8,JPN" xlink:title="AP030" d="M13997.5204,-3587.0731L13997.5403,-3587.0533L13997.7249,-3586.8675L13997.8607,-3586.7332L13998.0194,-3586.5665L13998.1094,-3586.4799L13998.3994,-3586.1198L13998.5648,-3585.9375"/>
<path content="AP030,1,28,1,0,15,1,8,JPN" xlink:title="AP030" d="M14027.3438,-3597.0369L14027.273,-3597.124"/>
<path content="AP030,1,28,1,0,15,1,8,JPN" xlink:title="AP030" d="M14027.273,-3597.124L14026.1478,-3598.3552L14025.0813,-3598.6918"/>
<path content="AP030,1,28,1,0,15,1,8,JPN" xlink:title="AP030" d="M14019.2977,-3600.8156L14018.5732,-3600.9642L14017.5212,-3601.406L14017.1635,-3602.1004L14017.1364,-3602.8758L14017.2731,-3603.4823"/>
<path content="AP030,1,28,1,0,15,1,8,JPN" xlink:title="AP030" d="M14017.2731,-3603.4823L14016.9767,-3603.5187L14016.679,-3603.5752L14016.3204,-3603.7725"/>
<path content="AP030,1,28,1,0,15,1,8,JPN" xlink:title="AP030" d="M14019.2977,-3600.8156L14019.2721,-3600.7577L14019.2748,-3600.7009"/>
<path content="AP030,1,28,1,0,15,1,8,JPN" xlink:title="AP030" d="M14017.2731,-3603.4823L14018.9846,-3603.7799"/>
<path content="AP030,1,28,1,0,15,1,8,JPN" xlink:title="AP030" d="M14022.2358,-3599.9525L14022.3495,-3599.6754"/>
<path content="AP030,1,28,1,0,15,1,8,JPN" xlink:title="AP030" d="M14022.2358,-3599.9525L14019.2977,-3600.8156"/>
<path content="AP030,1,28,1,0,15,1,8,JPN" xlink:title="AP030" d="M14025.0813,-3598.6918L14024.3173,-3598.9654L14023.3704,-3599.6597L14022.613,-3599.828L14022.2358,-3599.9525"/>
<path content="AP030,1,28,1,0,15,1,8,JPN" xlink:title="AP030" d="M14025.0813,-3598.6918L14025.3204,-3598.8564L14026.6251,-3599.6143L14027.3438,-3599.563"/>
<path content="AP030,1,28,1,0,15,1,8,JPN" xlink:title="AP030" d="M14004.8027,-3610.5401L14005.5887,-3610.2851L14006.3792,-3610.4422"/>
<path content="AP030,1,28,1,0,15,1,8,JPN" xlink:title="AP030" d="M14001.1298,-3611.2122L14002.2753,-3610.7932L14003.0067,-3610.6361L14003.8456,-3610.6318"/>
<path content="AP030,1,28,1,0,15,1,8,JPN" xlink:title="AP030" d="M14001.1298,-3611.2122L14001.0115,-3610.9809L14001.232,-3609.9859"/>
<path content="AP030,1,28,1,0,15,1,8,JPN" xlink:title="AP030" d="M14008.6787,-3602.9977L14008.7716,-3602.4074L14008.7036,-3602.2026L14008.2092,-3601.2547L14008.2443,-3600.4753L14009.1461,-3598.8815L14009.6252,-3598.0431"/>
<path content="AP030,1,28,1,0,15,1,8,JPN" xlink:title="AP030" d="M14008.4063,-3603.9671L14008.5132,-3603.7102L14008.63,-3603.416L14008.6787,-3602.9977"/>
<path content="AP030,1,28,1,0,14,1,8,JPN" xlink:title="AP030" d="M14008.4063,-3603.9671L14008.3965,-3603.9837"/>
<path content="AP030,1,28,1,0,15,1,8,JPN" xlink:title="AP030" d="M14010.9255,-3607.8634L14011.3825,-3607.1917L14011.9135,-3606.3956L14012.0516,-3605.8322L14012.3301,-3604.5983"/>
<path content="AP030,1,28,1,0,15,1,8,JPN" xlink:title="AP030" d="M14014.1722,-3605.3522L14013.8608,-3604.6533L14013.8066,-3604.4789L14013.9915,-3604.0345"/>
<path content="AP030,1,28,1,0,14,1,8,JPN" xlink:title="AP030" d="M14014.1722,-3605.3522L14014.5652,-3605.5218"/>
<path content="AP030,1,28,1,0,15,1,8,JPN" xlink:title="AP030" d="M14013.7484,-3603.6845L14014.045,-3603.6205L14014.5427,-3603.494L14014.7149,-3603.3886L14015.1915,-3603.473L14015.7341,-3603.2545L14016.1328,-3603.0591"/>
<path content="AP030,1,28,1,0,15,1,8,JPN" xlink:title="AP030" d="M14013.7484,-3603.6845L14013.8894,-3603.5547"/>
<path content="AP030,1,28,1,0,15,1,8,JPN" xlink:title="AP030" d="M14009.5119,-3607.2044L14009.655,-3606.9016L14009.0802,-3605.9375L14008.4698,-3605.3282"/>
<path content="AP030,1,28,1,0,15,1,8,JPN" xlink:title="AP030" d="M14009.5119,-3607.2044L14009.7062,-3607.2968"/>
<path content="AP030,1,28,1,0,15,1,8,JPN" xlink:title="AP030" d="M14016.2644,-3603.0263L14016.261,-3602.9644L14016.326,-3602.9316L14016.3601,-3602.8784L14016.4027,-3602.8463L14016.444,-3602.8283"/>
<path content="AP030,1,28,1,0,15,1,8,JPN" xlink:title="AP030" d="M14017.2006,-3608.5352L14017.63,-3608.6201"/>
<path content="AP030,1,28,1,0,15,1,8,JPN" xlink:title="AP030" d="M14010.996,-3611.716L14011.4422,-3611.4109L14011.6625,-3611.2049L14011.9537,-3611.0867L14012.5659,-3610.8929L14013.4206,-3610.4688L14013.7528,-3610.0931L14013.9955,-3609.772L14014.2929,-3609.7307L14015.0766,-3609.6822L14015.6215,-3609.5368L14015.9052,-3609.3793L14016.1888,-3609.2703"/>
<path content="AP030,1,28,1,0,15,1,8,JPN" xlink:title="AP030" d="M14010.996,-3611.716L14011.4856,-3612.0696L14011.8301,-3612.471L14012.5809,-3612.9456L14013.649,-3612.8811L14014.2319,-3612.5607L14014.6805,-3612.9868"/>
<path content="AP030,1,28,1,0,15,1,8,JPN" xlink:title="AP030" d="M14008.2455,-3613.8233L14008.3918,-3613.9521L14008.5794,-3614.216L14008.7437,-3614.2955"/>
<path content="AP030,1,28,1,0,14,1,8,JPN" xlink:title="AP030" d="M14017.7137,-3605.7576L14017.8604,-3605.9399L14018.0405,-3606.1733L14018.0801,-3606.2267L14018.2404,-3606.5533L14018.2693,-3606.6067L14018.4494,-3606.86L14018.6798,-3607.1266L14018.6798,-3607.1999L14018.6996,-3607.4669L14018.7195,-3607.6332L14018.9499,-3607.9533L14019.1803,-3608.2268L14019.2398,-3608.3L14019.2231,-3608.2858"/>
<path content="AP030,1,28,1,0,16,1,8,JPN" xlink:title="AP030" d="M14012.2867,-3603.3711L14012.7118,-3603.0927L14013.2964,-3602.589L14013.3158,-3602.5644"/>
<path content="AP030,1,28,1,0,16,1,8,JPN" xlink:title="AP030" d="M14012.2867,-3603.3711L14012.6096,-3603.4L14012.9776,-3603.469"/>
<path content="AP030,1,28,1,0,15,1,8,JPN" xlink:title="AP030" d="M14016.444,-3602.8283L14016.5043,-3602.8517L14016.6563,-3603.0487L14016.7822,-3603.234L14016.9067,-3603.4032L14017.2731,-3603.4823"/>
<path content="AP030,1,28,1,0,15,1,8,JPN" xlink:title="AP030" d="M14016.444,-3602.8283L14016.461,-3602.7676L14016.5187,-3602.707L14016.6843,-3602.495L14016.7849,-3602.448L14016.8558,-3602.3647L14016.8595,-3602.1785L14017.1025,-3601.48L14017.5695,-3601.1711L14018.2097,-3600.9235L14018.576,-3600.7168L14018.8192,-3600.6804L14019.1323,-3600.6963L14019.2748,-3600.7009"/>
<path content="AP030,1,28,1,0,16,1,8,JPN" xlink:title="AP030" d="M14015.15,-3599.7469L14015.3544,-3599.6018L14015.9023,-3599.3678L14016.59,-3599.2701L14017.4929,-3599.2951L14017.9233,-3599.2315L14018.5872,-3599.1245"/>
<path content="AP030,1,28,1,0,14,1,8,JPN" xlink:title="AP030" d="M14015.15,-3599.7469L14015.2906,-3599.9128L14015.3745,-3600.09L14015.4304,-3600.2672L14015.4929,-3600.5772"/>
<path content="AP030,1,28,1,0,14,1,8,JPN" xlink:title="AP030" d="M14017.7137,-3605.7576L14017.6928,-3605.6917"/>
<path content="AP030,1,28,1,0,16,1,8,JPN" xlink:title="AP030" d="M14013.3158,-3602.5644L14013.4013,-3602.4565L14013.8038,-3602.0125L14014.0318,-3601.7765L14014.3221,-3601.0208L14014.4655,-3600.6176L14014.6923,-3600.2684L14014.9545,-3599.9279L14015.1334,-3599.7587L14015.15,-3599.7469"/>
<path content="AP030,1,28,1,0,14,1,8,JPN" xlink:title="AP030" d="M14013.3158,-3602.5644L14013.3411,-3603.0977"/>
</g>
</svg>
