<?xml version="1.0" encoding="UTF-8"?>
<svg  xmlns="http://www.w3.org/2000/svg" xmlns:xlink="http://www.w3.org/1999/xlink" xmlns:go="http://purl.org/svgmap/profile" property="f_code,acc,exs,rst,med,rtt,RSU,loc,soc" viewBox="13957.03125 -3656.25 35.15625 35.15625" go:dataArea="13957.03125 -3656.25 35.15625 35.15625" >
<metadata>
 <rdf:RDF xmlns:rdf="http://www.w3.org/1999/02/22-rdf-syntax-ns#" xmlns:crs="http://opengis.org/xmldtds/transformations.dtd" xmlns:svg="http://www.w3.org/svg" >
  <rdf:Description>
   <crs:CoordinateReferenceSystem rdf:resource="http://purl.org/crs/84" svg:transform="matrix(100.0,0.0,0.0,-100.0,0.0,0.0)" />
  </rdf:Description>
 </rdf:RDF>
</metadata>
<globalCoordinateSystem srsName="http://purl.org/crs/84" transform="matrix(100.0,0.0,0.0,-100.0,0.0,0.0)" />
<defs>
 <g id="p0" >
  <circle cx="0.0" cy="0.0" r="3" stroke="green" stroke-width="2.0" vector-effect="non-scaling-stroke" />
 </g>
</defs>
<g fill="none" fill-rule="evenodd" stroke="#00ff00" stroke-width="2" opacity="0.5" vector-effect="non-scaling-stroke" stroke-linejoin="bevel" >
<path content="AP030,1,28,1,0,14,1,8,JPN" xlink:title="AP030" d="M13974.6506,-3656.25L13974.6506,-3656.1535"/>
<path content="AP030,1,28,1,0,15,1,8,JPN" xlink:title="AP030" d="M13968.6037,-3656.25L13968.6539,-3656.1649L13969.3268,-3655.8685L13970.6665,-3655.8495L13971.4309,-3656.25"/>
<path content="AP030,1,28,1,0,15,1,8,JPN" xlink:title="AP030" d="M13988.6348,-3656.25L13988.3987,-3655.8289"/>
<path content="AP030,1,28,1,0,15,1,8,JPN" xlink:title="AP030" d="M13986.7557,-3656.25L13986.6882,-3655.7655"/>
<path content="AP030,1,28,1,0,14,1,8,JPN" xlink:title="AP030" d="M13991.2399,-3655.7598L13991.6504,-3656.2466L13991.6504,-3656.25"/>
<path content="AP030,1,28,1,0,15,1,8,JPN" xlink:title="AP030" d="M13991.2399,-3655.7598L13992.1875,-3655.736"/>
<path content="AP030,1,28,1,0,16,1,8,JPN" xlink:title="AP030" d="M13981.7063,-3656.25L13981.5796,-3655.9734L13981.3095,-3655.6133"/>
<path content="AP030,1,28,1,0,15,1,8,JPN" xlink:title="AP030" d="M13981.3095,-3655.6133L13983.4305,-3655.5988L13984.5505,-3655.5988L13986.6882,-3655.7655"/>
<path content="AP030,1,28,1,0,15,1,8,JPN" xlink:title="AP030" d="M13989.9155,-3655.4268L13991.2399,-3655.7598"/>
<path content="AP030,1,28,1,0,15,1,8,JPN" xlink:title="AP030" d="M13989.9155,-3655.4268L13990.2209,-3656.25"/>
<path content="AP030,1,28,1,0,15,1,8,JPN" xlink:title="AP030" d="M13988.3987,-3655.8289L13989.7827,-3655.4615L13989.9155,-3655.4268"/>
<path content="AP030,1,28,1,0,15,1,8,JPN" xlink:title="AP030" d="M13978.2196,-3655.2334L13979.071,-3655.5084L13979.866,-3655.7655L13981.3095,-3655.6133"/>
<path content="AP030,1,28,1,0,14,1,8,JPN" xlink:title="AP030" d="M13974.6506,-3656.1535L13974.8306,-3656.1199L13975.2701,-3656.0135L13975.7004,-3655.8998L13975.9003,-3655.92L13975.9705,-3655.9399L13976.2207,-3655.8865L13976.3306,-3655.8132L13976.4694,-3655.6866L13976.6495,-3655.6667L13976.7899,-3655.5931L13977.4307,-3655.5798L13978.0594,-3655.3066L13978.1097,-3655.2868L13978.2196,-3655.2334"/>
<path content="AP030,1,28,1,0,14,1,8,JPN" xlink:title="AP030" d="M13990.77,-3655.1998L13991.2399,-3655.7598"/>
<path content="AP030,1,28,1,0,15,1,8,JPN" xlink:title="AP030" d="M13989.9155,-3655.4268L13990.77,-3655.1998"/>
<path content="AP030,1,28,1,0,14,1,8,JPN" xlink:title="AP030" d="M13978.2196,-3655.2334L13978.3798,-3655.0732"/>
<path content="AP030,1,28,1,0,14,1,8,JPN" xlink:title="AP030" d="M13989.74,-3654.5666L13989.9002,-3654.6398L13990.0406,-3654.6932L13990.3793,-3654.8599L13990.77,-3655.1998"/>
<path content="AP030,1,28,1,0,14,1,8,JPN" xlink:title="AP030" d="M13990.77,-3655.1998L13991.2903,-3655.1067L13991.5604,-3655.0934L13991.6107,-3655.0934L13992.1799,-3654.9267L13992.1875,-3654.9256"/>
<path content="AP030,1,28,1,0,15,1,8,JPN" xlink:title="AP030" d="M13986.6882,-3655.7655L13986.6882,-3654.4319"/>
<path content="AP030,1,28,1,0,14,1,8,JPN" xlink:title="AP030" d="M13989.1342,-3654.3678L13989.5554,-3654.5059L13989.74,-3654.5666"/>
<path content="AP030,1,28,1,0,15,1,8,JPN" xlink:title="AP030" d="M13988.3987,-3655.8289L13988.9999,-3654.636L13989.1342,-3654.3678"/>
<path content="AP030,1,28,1,0,16,1,8,JPN" xlink:title="AP030" d="M13980.0262,-3654.3194L13980.0598,-3654.4266L13980.2704,-3654.7333L13980.4153,-3654.9221L13980.4504,-3654.9667L13980.5801,-3655.0533L13981.0806,-3655.4134L13981.3095,-3655.6133"/>
<path content="AP030,1,28,1,0,14,1,8,JPN" xlink:title="AP030" d="M13978.3798,-3655.0732L13978.7399,-3654.9999L13978.9902,-3654.9133L13979.4296,-3654.66L13980.0262,-3654.3194"/>
<path content="AP030,1,28,1,0,14,1,8,JPN" xlink:title="AP030" d="M13988.0798,-3653.7933L13988.3575,-3653.9448L13989.1342,-3654.3678"/>
<path content="AP030,1,28,1,0,14,1,8,JPN" xlink:title="AP030" d="M13987.2016,-3656.25L13987.2192,-3656.2466L13987.3993,-3656.1932L13987.5595,-3656.1733L13987.7197,-3656.1733L13987.9501,-3656.1535L13987.9501,-3656.0265L13987.9303,-3655.74L13987.9303,-3655.6332L13987.9303,-3655.3265L13987.9501,-3655.1266L13987.9501,-3654.9465L13988.0005,-3654.7539L13988.0402,-3654.6066L13988.0402,-3654.4067L13988.063,-3654.0611L13988.0798,-3653.7933"/>
<path content="AP030,1,28,1,0,16,1,8,JPN" xlink:title="AP030" d="M13980.0262,-3654.3194L13979.8996,-3653.92L13979.7897,-3653.6331L13979.6799,-3653.4134L13979.6417,-3653.384"/>
<path content="AP030,1,28,1,0,14,1,8,JPN" xlink:title="AP030" d="M13978.3798,-3655.0732L13978.6499,-3654.6799L13978.8101,-3654.4266L13978.9307,-3654.1332L13979.2404,-3653.9398L13979.4693,-3653.6331L13979.5395,-3653.54L13979.6417,-3653.384"/>
<path content="AP030,1,28,1,0,15,1,8,JPN" xlink:title="AP030" d="M13981.5201,-3652.84L13984.3185,-3653.8036L13984.4482,-3653.8483L13986.6882,-3654.4319"/>
<path content="AP030,1,28,1,0,14,1,8,JPN" xlink:title="AP030" d="M13980.0262,-3654.3194L13980.0598,-3654.2999L13980.5801,-3653.7933L13981.5201,-3652.84"/>
<path content="AP030,1,28,1,0,14,1,8,JPN" xlink:title="AP030" d="M13974.6506,-3656.1535L13974.6506,-3655.9532L13974.6506,-3655.7068L13974.6506,-3655.4867L13974.6506,-3655.3467L13974.6994,-3655.1266L13974.8093,-3654.7665L13974.8093,-3654.62L13974.7894,-3654.2267L13974.7696,-3653.9532L13974.7406,-3653.5599L13974.7696,-3653.2734L13974.7894,-3653.0197L13974.8993,-3652.7664"/>
<path content="AP030,1,28,1,0,15,1,8,JPN" xlink:title="AP030" d="M13989.74,-3654.5666L13990.9729,-3653.941L13991.6428,-3653.2806L13992.1875,-3652.4642"/>
<path content="AP030,1,28,1,0,14,1,8,JPN" xlink:title="AP030" d="M13981.5201,-3652.84L13981.9504,-3652.4799L13982.3105,-3652.2064"/>
<path content="AP030,1,28,1,0,15,1,8,JPN" xlink:title="AP030" d="M13980.4306,-3652.1332L13981.5201,-3652.84"/>
<path content="AP030,1,28,1,0,14,1,8,JPN" xlink:title="AP030" d="M13979.6417,-3653.384L13979.8798,-3653.0197L13979.9896,-3652.8599L13980.2399,-3652.4597L13980.4306,-3652.1332"/>
<path content="AP030,1,28,1,0,15,1,8,JPN" xlink:title="AP030" d="M13973.8571,-3652.0981L13974.3332,-3652.4033L13974.8993,-3652.7664"/>
<path content="AP030,1,28,1,0,15,1,8,JPN" xlink:title="AP030" d="M13971.9082,-3656.25L13972.5342,-3655.5988L13972.3938,-3655.0247L13972.58,-3653.8795L13972.9752,-3652.6695L13973.8571,-3652.0981"/>
<path content="AP030,1,28,1,0,16,1,8,JPN" xlink:title="AP030" d="M13982.3105,-3652.2064L13982.4707,-3652.0664L13982.6294,-3651.9733L13982.9697,-3651.9199L13983.4702,-3651.8867L13983.8303,-3651.8867L13984.0607,-3651.8867"/>
<path content="AP030,1,28,1,0,14,1,8,JPN" xlink:title="AP030" d="M13984.0607,-3651.8867L13984.1095,-3651.8131L13984.2407,-3651.6666L13984.3994,-3651.5266"/>
<path content="AP030,1,28,1,0,15,1,8,JPN" xlink:title="AP030" d="M13984.6298,-3651.3798L13985.8734,-3652.9316L13986.3708,-3653.8467L13986.6882,-3654.4319"/>
<path content="AP030,1,28,1,0,14,1,8,JPN" xlink:title="AP030" d="M13984.3994,-3651.5266L13984.6298,-3651.3798"/>
<path content="AP030,1,28,1,0,15,1,8,JPN" xlink:title="AP030" d="M13960.5945,-3656.25L13961.1771,-3655.6416L13962.8326,-3654.2774L13965.2817,-3652.8885L13965.8676,-3652.7939L13966.8427,-3651.9955L13968.5196,-3651.7441L13968.6646,-3651.181"/>
<path content="AP030,1,28,1,0,15,1,8,JPN" xlink:title="AP030" d="M13969.8776,-3651.0277L13971.109,-3651.2646L13972.9416,-3651.598L13973.8571,-3652.0981"/>
<path content="AP030,1,28,1,0,15,1,8,JPN" xlink:title="AP030" d="M13968.6646,-3651.181L13969.3771,-3650.9312L13969.8776,-3651.0277"/>
<path content="AP030,1,28,1,0,15,1,8,JPN" xlink:title="AP030" d="M13977.9312,-3650.5978L13978.8467,-3650.848L13979.6616,-3651.598L13980.4306,-3652.1332"/>
<path content="AP030,1,28,1,0,15,1,8,JPN" xlink:title="AP030" d="M13957.0312,-3655.8522L13957.2586,-3655.4321L13957.0557,-3654.932L13957.3608,-3654.7653L13957.9727,-3654.5986L13958.5831,-3654.3484L13958.9905,-3654.0985L13958.9905,-3653.5984L13958.9905,-3653.265L13959.5001,-3652.6814L13959.3979,-3652.4315L13959.9075,-3652.0981L13960.0082,-3651.6811L13960.9253,-3651.181L13961.7401,-3650.5146"/>
<path content="AP030,1,28,1,0,14,1,8,JPN" xlink:title="AP030" d="M13988.0798,-3653.7933L13988.06,-3653.4664L13988.06,-3653.4534L13988.0402,-3653.0933L13987.9898,-3652.6066L13987.8098,-3652.0267L13987.7396,-3651.7735L13987.6801,-3651.2199L13987.6801,-3651.1265L13987.5595,-3650.4799"/>
<path content="AP030,1,28,1,0,14,1,8,JPN" xlink:title="AP030" d="M13984.6298,-3651.3798L13984.9228,-3651.2016L13985.2203,-3651.0201L13985.4294,-3650.9132L13985.6796,-3650.7133L13985.9497,-3650.5135L13986.7401,-3650.5135L13986.9003,-3650.5135L13987.5595,-3650.4799"/>
<path content="AP030,1,28,1,0,15,1,8,JPN" xlink:title="AP030" d="M13961.7401,-3650.5146L13962.0697,-3650.3674"/>
<path content="AP030,1,28,1,0,14,1,8,JPN" xlink:title="AP030" d="M13974.8993,-3652.7664L13974.9496,-3652.4799L13975.0595,-3652.1534L13975.1495,-3651.72L13975.1801,-3651.6335L13975.1297,-3650.6065L13975.1297,-3650.3532"/>
<path content="AP030,1,28,1,0,14,1,8,JPN" xlink:title="AP030" d="M13983.4,-3650.1934L13983.4,-3650.4066L13983.6502,-3650.8934L13983.9294,-3651.1665L13984.3994,-3651.5266"/>
<path content="AP030,1,28,1,0,14,1,8,JPN" xlink:title="AP030" d="M13992.1875,-3652.3168L13992.0807,-3652.1732L13992.0395,-3652.0798L13991.9296,-3651.8867L13991.8594,-3651.6666L13991.7694,-3651.1066L13991.7206,-3650.5135L13991.7007,-3650.2266L13991.7007,-3650.1534"/>
<path content="AP030,1,28,1,0,15,1,8,JPN" xlink:title="AP030" d="M13989.1342,-3654.3678L13989.3829,-3653.7827L13989.4623,-3653.5965L13989.8315,-3651.9531L13989.7202,-3650.0999"/>
<path content="AP030,1,28,1,0,14,1,8,JPN" xlink:title="AP030" d="M13987.5595,-3650.4799L13987.941,-3650.4799L13988.0203,-3650.4799L13988.2263,-3650.4276L13988.3102,-3650.4066L13988.7695,-3650.2602L13989.1998,-3650.1732L13989.7202,-3650.0999"/>
<path content="AP030,1,28,1,0,14,1,8,JPN" xlink:title="AP030" d="M13989.7202,-3650.0999L13990.3793,-3650.0801L13990.8295,-3650.1331L13991.1804,-3650.1732L13991.7007,-3650.1534"/>
<path content="AP030,1,28,1,0,15,1,8,JPN" xlink:title="AP030" d="M13962.0697,-3650.3674L13962.8601,-3650.0145L13964.183,-3650.0145L13965.2023,-3649.931L13966.0172,-3650.1812L13967.0654,-3651.07L13968.6646,-3651.181"/>
<path content="AP030,1,28,1,0,16,1,8,JPN" xlink:title="AP030" d="M13975.3998,-3649.7002L13975.6805,-3649.7734L13976.1505,-3649.9931L13976.4893,-3650.2068L13976.68,-3650.4066L13976.9699,-3650.9266L13977.15,-3651.2867L13977.4506,-3651.7067L13977.8107,-3652.1L13978.1296,-3652.3533L13978.5599,-3652.6398L13979.0802,-3652.9465L13979.4296,-3653.22L13979.6417,-3653.384"/>
<path content="AP030,1,28,1,0,14,1,8,JPN" xlink:title="AP030" d="M13975.1297,-3650.3532L13975.3799,-3649.7734L13975.3998,-3649.7002"/>
<path content="AP030,1,28,1,0,16,1,8,JPN" xlink:title="AP030" d="M13974.9252,-3649.577L13975.3998,-3649.7002"/>
<path content="AP030,1,28,1,0,14,1,8,JPN" xlink:title="AP030" d="M13975.1297,-3650.3532L13975.0397,-3650.2998L13975.0198,-3650.1732L13974.9496,-3649.9401L13974.9298,-3649.6132L13974.9252,-3649.577"/>
<path content="AP030,1,28,1,0,14,1,8,JPN" xlink:title="AP030" d="M13981.5796,-3649.4133L13982.1106,-3649.58L13982.2006,-3649.6132L13982.3593,-3649.7932L13982.8293,-3650.0134L13983.2001,-3650.0267L13983.2703,-3650.0267L13983.4,-3650.1934"/>
<path content="AP030,1,28,1,0,14,1,8,JPN" xlink:title="AP030" d="M13980.4306,-3652.1332L13980.8105,-3651.8333L13980.8594,-3651.7597L13980.9006,-3651.6666L13981.0196,-3651.58L13981.0394,-3651.54L13981.0196,-3651.4668L13980.9296,-3651.3268L13980.9296,-3651.2333L13980.9692,-3651.1265L13981.0593,-3650.9998L13981.1096,-3650.8732L13981.1798,-3650.6931L13981.3599,-3650.1534L13981.4499,-3649.8135L13981.5796,-3649.4133"/>
<path content="AP030,1,28,1,0,15,1,8,JPN" xlink:title="AP030" d="M13962.0697,-3650.3674L13961.9858,-3650.156L13961.8774,-3650.0435L13961.618,-3649.9737L13961.5356,-3649.9504L13961.5524,-3649.7055L13962.2894,-3649.3801"/>
<path content="AP030,1,28,1,0,14,1,8,JPN" xlink:title="AP030" d="M13987.5595,-3650.4799L13987.4893,-3650.0801L13987.2894,-3649.5399L13987.2406,-3649.3801L13987.2406,-3649.1467L13987.2192,-3648.6401L13987.1994,-3648.5001"/>
<path content="AP030,1,28,1,0,14,1,8,JPN" xlink:title="AP030" d="M13991.7007,-3650.1534L13991.6794,-3649.8665L13991.6306,-3649.7066L13991.5207,-3649.5068L13991.2704,-3649.1264L13990.9302,-3648.5867L13990.9021,-3648.4518"/>
<path content="AP030,1,28,1,0,15,1,8,JPN" xlink:title="AP030" d="M13989.7202,-3650.0999L13989.7903,-3649.0688L13989.8956,-3648.2506"/>
<path content="AP030,1,28,1,0,15,1,8,JPN" xlink:title="AP030" d="M13987.1994,-3648.5001L13987.5656,-3648.4737L13987.764,-3648.4596L13988.9877,-3648.3719L13989.8956,-3648.2506"/>
<path content="AP030,1,28,1,0,15,1,8,JPN" xlink:title="AP030" d="M13983.4,-3650.1934L13983.6349,-3648.724L13983.7357,-3648.0972"/>
<path content="AP030,1,28,1,0,14,1,8,JPN" xlink:title="AP030" d="M13990.9021,-3648.4518L13990.8997,-3648.4402L13990.9302,-3647.9733"/>
<path content="AP030,1,28,1,0,16,1,8,JPN" xlink:title="AP030" d="M13989.941,-3647.8961L13990.33,-3648.337L13990.53,-3648.431L13990.81,-3648.455L13990.9021,-3648.4518"/>
<path content="AP030,1,28,1,0,15,1,8,JPN" xlink:title="AP030" d="M13989.8956,-3648.2506L13989.941,-3647.8961"/>
<path content="AP030,1,28,1,0,14,1,8,JPN" xlink:title="AP030" d="M13974.9252,-3649.577L13974.8795,-3649.1798L13975.0397,-3648.9666L13975.0397,-3648.7865L13974.9893,-3648.28L13975.0793,-3648.0999L13975.0793,-3647.9L13975.2396,-3647.6868L13975.3098,-3647.6334L13975.3098,-3647.58L13975.2396,-3647.5266"/>
<path content="AP030,1,28,1,0,14,1,8,JPN" xlink:title="AP030" d="M13975.3998,-3649.7002L13975.47,-3649.4331L13975.5798,-3649.2332L13976.0406,-3648.5867L13976.3306,-3648.1201L13976.4297,-3647.7734L13976.4496,-3647.6334L13976.4496,-3647.3064"/>
<path content="AP030,1,28,1,0,15,1,8,JPN" xlink:title="AP030" d="M13975.2396,-3647.5266L13976.0406,-3647.2706L13976.4496,-3647.3064"/>
<path content="AP030,1,28,1,0,16,1,8,JPN" xlink:title="AP030" d="M13990.9021,-3648.4518L13991.5,-3648.431L13991.98,-3648.312L13992.1875,-3648.1867"/>
<path content="AP030,1,28,1,0,15,1,8,JPN" xlink:title="AP030" d="M13990.9302,-3647.9733L13991.9388,-3647.8172L13992.1875,-3647.6702"/>
<path content="AP030,1,28,1,0,16,1,8,JPN" xlink:title="AP030" d="M13986.8838,-3646.3487L13986.95,-3646.36L13987.67,-3646.441L13988.28,-3646.584L13988.82,-3646.838L13989.48,-3647.411L13989.88,-3647.827L13989.941,-3647.8961"/>
<path content="AP030,1,28,1,0,14,1,8,JPN" xlink:title="AP030" d="M13987.1994,-3648.5001L13987.1994,-3648.46L13987.1796,-3648.32L13987.1506,-3647.9198L13987.0804,-3647.5601L13987.0407,-3647.3064L13986.8838,-3646.3487"/>
<path content="AP030,1,28,1,0,15,1,8,JPN" xlink:title="AP030" d="M13976.8997,-3646.32L13980.1712,-3647.8474L13981.5796,-3649.4133"/>
<path content="AP030,1,28,1,0,14,1,8,JPN" xlink:title="AP030" d="M13976.4496,-3647.3064L13976.4694,-3646.9868L13976.5396,-3646.8201L13976.6495,-3646.64L13976.8997,-3646.32"/>
<path content="AP030,1,28,1,0,16,1,8,JPN" xlink:title="AP030" d="M13985.4697,-3646.0956L13986,-3646.198L13986.8838,-3646.3487"/>
<path content="AP030,1,28,1,0,15,1,8,JPN" xlink:title="AP030" d="M13983.7357,-3648.0972L13983.8638,-3647.6665L13985.1608,-3647.6585L13985.4065,-3646.5321L13985.4111,-3646.1418L13985.4697,-3646.0956"/>
<path content="AP030,1,28,1,0,16,1,8,JPN" xlink:title="AP030" d="M13982.8687,-3645.755L13983.03,-3645.756L13983.96,-3645.837L13984.84,-3645.974L13985.4697,-3646.0956"/>
<path content="AP030,1,28,1,0,15,1,8,JPN" xlink:title="AP030" d="M13983.7357,-3648.0972L13983.2535,-3647.506L13983.1238,-3647.3473L13982.9208,-3646.9303L13982.9208,-3646.4348L13982.9208,-3646.1803L13982.8687,-3645.755"/>
<path content="AP030,1,28,1,0,15,1,8,JPN" xlink:title="AP030" d="M13969.8776,-3651.0277L13970.723,-3650.6378L13970.9656,-3649.7234L13970.842,-3648.0408L13970.5078,-3647.6089L13970.517,-3647.0589L13970.6787,-3646.4188L13970.9305,-3645.5265"/>
<path content="AP030,1,28,1,0,14,1,8,JPN" xlink:title="AP030" d="M13972.4594,-3645.4765L13972.8104,-3645.4865L13972.9904,-3645.6665L13973.0392,-3646.0266L13973.0804,-3646.1334L13973.1796,-3646.1735L13973.2895,-3646.1735L13973.9502,-3646.1735L13974.2706,-3646.6064L13974.3103,-3646.7865L13974.3301,-3647.1268L13974.3301,-3647.2L13974.5193,-3647.3598L13974.6155,-3647.3831L13974.7406,-3647.4133L13975.2396,-3647.5266"/>
<path content="AP030,1,28,1,0,16,1,8,JPN" xlink:title="AP030" d="M13972.4594,-3645.4765L13972.6807,-3645.7199L13972.7905,-3645.9534L13972.8302,-3646.1334L13972.8607,-3646.3531L13972.7905,-3646.8933L13972.7707,-3647.1466L13972.7707,-3647.3999L13972.8302,-3647.6131L13972.9507,-3647.8134L13973.1094,-3647.9733L13973.2895,-3648.1533L13973.4299,-3648.3532L13973.4894,-3648.6801L13973.5596,-3648.7667L13973.7701,-3649.0002L13974.0402,-3649.2535L13974.3805,-3649.4534L13974.6094,-3649.5266L13974.6704,-3649.5346L13974.8596,-3649.5602L13974.9252,-3649.577"/>
<path content="AP030,1,28,1,0,14,1,8,JPN" xlink:title="AP030" d="M13970.9305,-3645.5265L13971.2006,-3645.5399L13971.6293,-3645.5601L13972.11,-3645.4666L13972.4594,-3645.4765"/>
<path content="AP030,1,28,1,0,16,1,8,JPN" xlink:title="AP030" d="M13980.2184,-3645.1693L13980.32,-3645.209L13980.9,-3645.451L13981.57,-3645.638L13982.09,-3645.75L13982.8687,-3645.755"/>
<path content="AP030,1,28,1,0,15,1,8,JPN" xlink:title="AP030" d="M13981.5796,-3649.4133L13981.5735,-3647.9107L13980.6808,-3646.4241L13980.2184,-3645.1693"/>
<path content="AP030,1,28,1,0,15,1,8,JPN" xlink:title="AP030" d="M13961.7401,-3650.5146L13961.1282,-3650.0977L13960.5179,-3650.2644L13960.3149,-3650.0145L13960.5179,-3649.6811L13960.4156,-3649.3477L13959.8053,-3649.3477L13959.7031,-3649.0143L13960.2127,-3648.764L13961.4349,-3648.5973L13961.7401,-3648.2639L13961.7401,-3647.514L13961.7401,-3647.0139L13962.2482,-3646.6805L13963.1653,-3646.347L13963.6749,-3645.6802L13964.183,-3644.68"/>
<path content="AP030,1,28,1,0,16,1,8,JPN" xlink:title="AP030" d="M13978.2985,-3644.4641L13979.49,-3644.885L13980.2184,-3645.1693"/>
<path content="AP030,1,28,1,0,14,1,8,JPN" xlink:title="AP030" d="M13976.8997,-3646.32L13977.0599,-3646.1201L13977.1805,-3645.8466L13977.2705,-3645.76L13977.4307,-3645.6135L13977.4902,-3645.4865L13977.6093,-3645.1668L13977.6993,-3645.0401L13977.7695,-3644.9665L13977.8107,-3644.9135L13977.9694,-3644.7865L13978.1998,-3644.5667L13978.2985,-3644.4641"/>
<path content="AP030,1,28,1,0,16,1,8,JPN" xlink:title="AP030" d="M13972.4594,-3645.4765L13972.1802,-3645.1668L13971.8796,-3644.7666L13971.7133,-3644.4019"/>
<path content="AP030,1,28,1,0,15,1,8,JPN" xlink:title="AP030" d="M13970.9305,-3645.5265L13971.1578,-3644.9261L13971.7133,-3644.4019"/>
<path content="AP030,1,28,1,0,14,1,8,JPN" xlink:title="AP030" d="M13990.9302,-3647.9733L13990.9698,-3647.4335L13990.9698,-3646.7133L13990.9698,-3646.2601L13990.7898,-3645.0401L13990.7196,-3644.3733L13990.7074,-3644.2814"/>
<path content="AP030,1,28,1,0,15,1,8,JPN" xlink:title="AP030" d="M13989.941,-3647.8961L13989.9704,-3647.6665L13990.1169,-3646.5199L13990.7074,-3644.2814"/>
<path content="AP030,1,28,1,0,15,1,8,JPN" xlink:title="AP030" d="M13980.2184,-3645.1693L13979.8523,-3644.1761"/>
<path content="AP030,1,28,1,0,16,1,8,JPN" xlink:title="AP030" d="M13975.898,-3643.9486L13976.03,-3643.959L13976.92,-3644.114L13977.69,-3644.288L13978.1,-3644.394L13978.2985,-3644.4641"/>
<path content="AP030,1,28,1,0,15,1,8,JPN" xlink:title="AP030" d="M13975.1968,-3646.405L13975.9964,-3644.4302L13975.898,-3643.9486"/>
<path content="AP030,1,28,1,0,15,1,8,JPN" xlink:title="AP030" d="M13959.1095,-3643.679L13959.7214,-3644.146L13960.0021,-3645.4651L13960.2036,-3645.6318L13961.5295,-3645.483L13963.2675,-3645.0916L13964.183,-3644.68"/>
<path content="AP030,1,28,1,0,15,1,8,JPN" xlink:title="AP030" d="M13957.0312,-3645.4624L13958.5098,-3644.4435L13959.1095,-3643.679"/>
<path content="AP030,1,28,1,0,14,1,8,JPN" xlink:title="AP030" d="M13986.8838,-3646.3487L13986.8103,-3645.9L13986.7203,-3645.5601L13986.5799,-3645.1267L13986.5601,-3645.0733L13986.5204,-3644.9135L13986.3602,-3643.6665L13986.3297,-3643.5265L13986.2701,-3643.2201"/>
<path content="AP030,1,28,1,0,15,1,8,JPN" xlink:title="AP030" d="M13982.8687,-3645.755L13982.8186,-3645.3468L13982.106,-3644.4302L13981.3797,-3643.1065"/>
<path content="AP030,1,28,1,0,15,1,8,JPN" xlink:title="AP030" d="M13990.7074,-3644.2814L13991.0355,-3643.0378"/>
<path content="AP030,1,28,1,0,15,1,8,JPN" xlink:title="AP030" d="M13991.0355,-3643.0378L13992.1875,-3643.0763"/>
<path content="AP030,1,28,1,0,14,1,8,JPN" xlink:title="AP030" d="M13978.2985,-3644.4641L13978.7003,-3644.0468L13979.1504,-3643.5932L13979.2404,-3643.4532L13979.4495,-3643.1667L13979.5197,-3643.1465L13979.5807,-3643.1267L13980.0201,-3643.0733L13980.2002,-3643.0534L13980.2002,-3642.9665L13980.4901,-3642.9665L13980.8594,-3643.0401L13981.1249,-3643.0965L13981.3797,-3643.1065"/>
<path content="AP030,1,28,1,0,14,1,8,JPN" xlink:title="AP030" d="M13990.7074,-3644.2814L13990.6494,-3643.8465L13990.6296,-3643.5932L13990.5396,-3643.1065L13990.5197,-3643.0199L13990.4694,-3642.8734"/>
<path content="AP030,1,28,1,0,14,1,8,JPN" xlink:title="AP030" d="M13967.2394,-3642.7334L13967.4698,-3642.9134L13967.5201,-3642.9466L13967.6804,-3643.0534L13967.7399,-3643.1267L13967.8101,-3643.2865L13968.2907,-3643.8866L13968.3304,-3644.1002L13968.7393,-3644.4801L13969.2703,-3645.2202L13969.2398,-3645.3999L13969.4,-3645.4132L13969.6106,-3645.4132L13970.1294,-3645.5067L13970.8801,-3645.5265L13970.9305,-3645.5265"/>
<path content="AP030,1,28,1,0,15,1,8,JPN" xlink:title="AP030" d="M13964.183,-3644.68L13964.8972,-3643.8465L13965.4053,-3643.4299L13966.6275,-3643.0965L13967.2394,-3642.7334"/>
<path content="AP030,1,28,1,0,16,1,8,JPN" xlink:title="AP030" d="M13972.6838,-3642.7047L13973.12,-3642.901L13973.76,-3643.287L13974.43,-3643.579L13975.04,-3643.797L13975.32,-3643.903L13975.898,-3643.9486"/>
<path content="AP030,1,28,1,0,15,1,8,JPN" xlink:title="AP030" d="M13971.7133,-3644.4019L13971.7728,-3644.3459L13972.4487,-3643.1282L13972.6838,-3642.7047"/>
<path content="AP030,1,28,1,0,14,1,8,JPN" xlink:title="AP030" d="M13988.2202,-3642.6933L13988.4506,-3642.7868L13988.5193,-3642.7868L13989.6103,-3642.86L13989.8605,-3642.86L13990.4694,-3642.8734"/>
<path content="AP030,1,28,1,0,15,1,8,JPN" xlink:title="AP030" d="M13986.2701,-3643.2201L13986.5997,-3643.1309L13986.7889,-3643.0798L13988.2202,-3642.6933"/>
<path content="AP030,1,28,1,0,15,1,8,JPN" xlink:title="AP030" d="M13985.4697,-3646.0956L13985.9512,-3645.7161L13985.8627,-3644.8536L13985.7437,-3644.3184L13986.0596,-3643.5005L13985.8597,-3642.4599"/>
<path content="AP030,1,28,1,0,14,1,8,JPN" xlink:title="AP030" d="M13981.3797,-3643.1065L13982.1304,-3643.1267L13982.7896,-3643.0733L13983.4503,-3643.0199L13983.5403,-3643L13983.9706,-3642.9466L13984.0195,-3642.9268L13984.9701,-3642.7334L13985.3607,-3642.6399L13985.4294,-3642.6067L13985.8597,-3642.4599"/>
<path content="AP030,1,28,1,0,16,1,8,JPN" xlink:title="AP030" d="M13971.9299,-3642.4267L13972.36,-3642.559L13972.6838,-3642.7047"/>
<path content="AP030,1,28,1,0,16,1,8,JPN" xlink:title="AP030" d="M13971.7133,-3644.4019L13971.6995,-3644.3733L13971.5607,-3643.9201L13971.5393,-3643.56L13971.5805,-3643.2533L13971.6995,-3642.9134L13971.9299,-3642.4267"/>
<path content="AP030,1,28,1,0,14,1,8,JPN" xlink:title="AP030" d="M13986.2701,-3643.2201L13986.2701,-3643.1801L13986.2198,-3642.3866"/>
<path content="AP030,1,28,1,0,14,1,8,JPN" xlink:title="AP030" d="M13985.8597,-3642.4599L13986.2198,-3642.3866"/>
<path content="AP030,1,28,1,0,14,1,8,JPN" xlink:title="AP030" d="M13986.2198,-3642.3866L13986.3098,-3642.3733L13986.441,-3642.3615L13986.647,-3642.3428L13986.9003,-3642.3199L13987.1307,-3642.3L13987.3596,-3642.3866L13988.2202,-3642.6933"/>
<path content="AP030,1,28,1,0,15,1,8,JPN" xlink:title="AP030" d="M13959.1095,-3643.679L13959.6802,-3642.9501L13960.7407,-3641"/>
<path content="AP030,1,28,1,0,14,1,8,JPN" xlink:title="AP030" d="M13967.2394,-3642.7334L13967.0593,-3642.6201L13966.7206,-3642.3866L13966.6107,-3642.3733L13966.4001,-3642.3L13966.2704,-3642.3199L13966.0797,-3642.3866L13965.8096,-3642.4065L13965.5807,-3642.5133L13965.4495,-3642.5133L13964.8102,-3642.3L13964.2899,-3642.3199L13963.8794,-3642.5533L13963.5605,-3642.6201L13963.4705,-3642.6067L13963.3804,-3642.5331L13963.1805,-3642.2798L13962.8998,-3642.1734L13962.8799,-3642.1001L13962.8799,-3641.8331L13962.7701,-3641.6664L13962.7197,-3641.5932L13962.7197,-3641.3799L13962.6099,-3641.2334L13962.5397,-3641.0732L13962.4695,-3640.9664L13962.3596,-3640.9267L13961.9003,-3640.8199L13961.6895,-3640.6664"/>
<path content="AP030,1,28,1,0,14,1,8,JPN" xlink:title="AP030" d="M13960.7407,-3641L13961.0596,-3641.04L13961.2396,-3640.9664L13961.6895,-3640.6664"/>
<path content="AP030,1,28,1,0,16,1,8,JPN" xlink:title="AP030" d="M13971.9299,-3642.4267L13972.0398,-3642.0799L13972.0596,-3641.7934L13971.9696,-3641.5066L13971.9299,-3641.3265L13971.7896,-3641.1266L13971.4005,-3640.6799L13971.1502,-3640.4266L13970.7199,-3640.1733"/>
<path content="AP030,1,28,1,0,15,1,8,JPN" xlink:title="AP030" d="M13967.2394,-3642.7334L13969.1742,-3641.346L13970.7199,-3640.1733"/>
<path content="AP030,1,28,1,0,14,1,8,JPN" xlink:title="AP030" d="M13960.7407,-3641L13960.5194,-3640.9267L13960.3806,-3640.86L13960.3607,-3640.7665L13960.4294,-3640.48L13960.4904,-3639.9734"/>
<path content="AP030,1,28,1,0,14,1,8,JPN" xlink:title="AP030" d="M13961.6895,-3640.6664L13961.5799,-3640.5865L13961.4502,-3640.5666L13961.3098,-3640.5666L13961.2701,-3640.5865L13961.0199,-3640.6933L13960.9894,-3640.3534L13960.9894,-3640.2466L13960.8597,-3639.9734L13960.4904,-3639.9734"/>
<path content="AP030,1,28,1,0,15,1,8,JPN" xlink:title="AP030" d="M13975.898,-3643.9486L13975.7919,-3643.4299L13974.9847,-3643.034L13975.4868,-3641.346L13974.8764,-3640.5128L13974.5102,-3639.8399L13974.469,-3639.7625L13974.2142,-3639.1232"/>
<path content="AP030,1,28,1,0,15,1,8,JPN" xlink:title="AP030" d="M13972.6838,-3642.7047L13973.1689,-3641.8304L13973.4741,-3641.2354L13973.4985,-3639.6935L13973.6603,-3639.2368L13974.2142,-3639.1232"/>
<path content="AP030,1,28,1,0,15,1,8,JPN" xlink:title="AP030" d="M13974.469,-3638.2999L13976.6068,-3638.6841L13978.4607,-3638.7867L13980.6808,-3639.3459"/>
<path content="AP030,1,28,1,0,15,1,8,JPN" xlink:title="AP030" d="M13974.469,-3638.2999L13975.7919,-3639.3459L13976.709,-3639.7625L13977.829,-3640.0959L13978.5416,-3640.9294L13979.0497,-3641.5539L13979.1534,-3641.6794L13980.4749,-3642.2573L13980.4886,-3642.1257L13980.6808,-3640.1794L13980.6808,-3639.3459"/>
<path content="AP030,1,28,1,0,15,1,8,JPN" xlink:title="AP030" d="M13973.6221,-3637.632L13974.469,-3638.2999"/>
<path content="AP030,1,28,1,0,15,1,8,JPN" xlink:title="AP030" d="M13974.2142,-3639.1232L13973.6221,-3637.632"/>
<path content="AP030,1,28,1,0,15,1,8,JPN" xlink:title="AP030" d="M13970.7199,-3640.1733L13971.8216,-3638.8458L13973.6221,-3637.632"/>
<path content="AP030,1,28,1,0,15,1,8,JPN" xlink:title="AP030" d="M13973.6221,-3637.632L13974.0845,-3637.3672"/>
<path content="AP030,1,28,1,0,14,1,8,JPN" xlink:title="AP030" d="M13957.9269,-3636.9866L13958.0399,-3637.0201L13958.3099,-3637.0731L13958.4,-3637.1265L13958.9005,-3637.4134L13959.2896,-3637.9932L13959.3994,-3638.1535L13960.0403,-3638.8199L13960.2127,-3638.8233L13960.3104,-3638.8599L13960.5392,-3639.4665L13960.5606,-3639.5401L13960.5484,-3639.613L13960.4904,-3639.9734"/>
<path content="AP030,1,28,1,0,14,1,8,JPN" xlink:title="AP030" d="M13957.4295,-3636.7332L13957.6974,-3636.8949L13957.8598,-3636.9667L13957.9269,-3636.9866"/>
<path content="AP030,1,28,1,0,15,1,8,JPN" xlink:title="AP030" d="M13957.0313,-3641.0371L13957.0694,-3640.9744L13957.5714,-3639.8136L13957.338,-3639.4218L13958.0124,-3638.7009L13957.4295,-3636.7332"/>
<path content="AP030,1,28,1,0,14,1,8,JPN" xlink:title="AP030" d="M13957.0312,-3636.7395L13957.4295,-3636.7332"/>
<path content="AP030,1,28,1,0,14,1,8,JPN" xlink:title="AP030" d="M13983.3282,-3636.6787L13983.6502,-3637.1468L13983.7906,-3637.36L13984.1507,-3638.0264L13984.4696,-3638.5666L13985.2707,-3639.7732L13985.4706,-3640.1001L13985.8307,-3640.6399L13985.9695,-3641.1064L13986.0199,-3641.3265L13986.2198,-3642.3733L13986.2198,-3642.3866"/>
<path content="AP030,1,28,1,0,15,1,8,JPN" xlink:title="AP030" d="M13990.9653,-3636.4285L13992.1875,-3636.5285"/>
<path content="AP030,1,28,1,0,15,1,8,JPN" xlink:title="AP030" d="M13991.0355,-3643.0378L13991.4749,-3640.5128L13991.5756,-3639.0957L13991.5756,-3637.9288L13990.9653,-3636.4285"/>
<path content="AP030,1,28,1,0,15,1,8,JPN" xlink:title="AP030" d="M13986.0596,-3636.0134L13988.0127,-3636.2617L13990.9653,-3636.4285"/>
<path content="AP030,1,28,1,0,14,1,8,JPN" xlink:title="AP030" d="M13990.4694,-3642.8734L13990.3793,-3642.44L13990.0604,-3641.6332L13989.0594,-3640.3534L13988.1302,-3639.5931L13988.06,-3639.5401L13987.6999,-3639.22L13987.4695,-3638.9133L13987.2696,-3638.5532L13986.7203,-3637.7201L13986.5402,-3637.4332L13986.29,-3637.0399L13986.29,-3637.0201L13986.0596,-3636.0134"/>
<path content="AP030,1,28,1,0,15,1,8,JPN" xlink:title="AP030" d="M13983.3282,-3636.6787L13983.5617,-3636.4555L13983.6777,-3636.3449L13983.9386,-3636.095L13986.0596,-3636.0134"/>
<path content="AP030,1,28,1,0,15,1,8,JPN" xlink:title="AP030" d="M13980.6808,-3639.3459L13980.8838,-3638.5956L13980.7816,-3637.7621L13980.5786,-3636.5952L13981.189,-3635.5949"/>
<path content="AP030,1,28,1,0,14,1,8,JPN" xlink:title="AP030" d="M13982.5195,-3635.0735L13982.7896,-3635.4866L13982.93,-3635.8665L13983.3282,-3636.6787"/>
<path content="AP030,1,28,1,0,15,1,8,JPN" xlink:title="AP030" d="M13981.189,-3635.5949L13982.5195,-3635.0735"/>
<path content="AP030,1,28,1,0,15,1,8,JPN" xlink:title="AP030" d="M13957.9269,-3636.9866L13957.666,-3634.5116L13957.666,-3634.1888"/>
<path content="AP030,1,28,1,0,14,1,8,JPN" xlink:title="AP030" d="M13981.81,-3633.8867L13982.4005,-3634.9133L13982.5195,-3635.0735"/>
<path content="AP030,1,28,1,0,15,1,8,JPN" xlink:title="AP030" d="M13981.189,-3635.5949L13981.81,-3633.8867"/>
<path content="AP030,1,28,1,0,14,1,8,JPN" xlink:title="AP030" d="M13986.0596,-3636.0134L13985.7895,-3635.4866L13985.7407,-3635.4134L13985.6995,-3635.3268L13985.6293,-3635.2333L13985.4507,-3635.0201L13985.3302,-3634.7332L13985.2905,-3634.28L13985.2707,-3633.8135"/>
<path content="AP030,1,28,1,0,15,1,8,JPN" xlink:title="AP030" d="M13982.5195,-3635.0735L13982.7087,-3634.98L13982.8461,-3634.9125L13984.2178,-3634.235L13985.2707,-3633.8135"/>
<path content="AP030,1,28,1,0,15,1,8,JPN" xlink:title="AP030" d="M13957.0313,-3633.3121L13957.666,-3634.1888"/>
<path content="AP030,1,28,1,0,15,1,8,JPN" xlink:title="AP030" d="M13988.7743,-3632.4899L13988.9373,-3633.2476L13989.4743,-3634.0148L13989.743,-3635.1784L13990.1505,-3635.8452L13990.9653,-3636.4285"/>
<path content="AP030,1,28,1,0,15,1,8,JPN" xlink:title="AP030" d="M13957.0312,-3632.6213L13957.8491,-3632.3215"/>
<path content="AP030,1,28,1,0,14,1,8,JPN" xlink:title="AP030" d="M13981.81,-3633.8867L13981.7703,-3633.8333L13981.7001,-3633.7399L13981.3293,-3633.5934L13981.1798,-3633.4866L13981.0593,-3633.4L13980.78,-3633.083L13980.6305,-3632.9132L13980.6305,-3632.8934L13980.3802,-3632.5333L13980.3299,-3632.4402L13980.3101,-3632.1732"/>
<path content="AP030,1,28,1,0,14,1,8,JPN" xlink:title="AP030" d="M13980.3101,-3632.1732L13980.22,-3631.9199L13980.1498,-3631.5601"/>
<path content="AP030,1,28,1,0,15,1,8,JPN" xlink:title="AP030" d="M13974.0845,-3637.3672L13974.2859,-3637.2513L13974.7742,-3636.9713L13976.3016,-3636.095L13976.3565,-3635.9684L13976.8112,-3634.9281L13977.829,-3633.3447L13979.2542,-3632.0946L13980.1498,-3631.5601"/>
<path content="AP030,1,28,1,0,15,1,8,JPN" xlink:title="AP030" d="M13974.0845,-3637.3672L13974.057,-3637.1418L13973.8281,-3635.2795L13974.3317,-3632.7427L13974.1974,-3631.5109"/>
<path content="AP030,1,28,1,0,16,1,8,JPN" xlink:title="AP030" d="M13970.7199,-3640.1733L13970.5399,-3640.0665L13970.1096,-3639.8998L13969.6503,-3639.74L13969.31,-3639.5802L13968.8995,-3639.2864L13968.4906,-3638.9999L13968.3594,-3638.9668L13967.7002,-3638.9133L13967.4896,-3638.8599L13967.3294,-3638.7333L13967.1295,-3638.5532L13967.0197,-3638.3732L13966.8793,-3638.1733L13966.7007,-3638.0798L13966.4505,-3637.92L13966.33,-3637.7201L13966.2201,-3637.5267L13966.1301,-3637.4001L13965.86,-3637.2532L13965.4694,-3637.1067L13965.0803,-3637.0533L13964.7903,-3637.0399L13963.8992,-3637.1067L13963.5803,-3637.0934L13963.3804,-3637.0533L13963.2401,-3636.9999L13962.8296,-3636.6402L13962.7701,-3636.4601L13962.7197,-3636.2801L13962.7396,-3635.8467L13962.6801,-3635.6667L13962.5198,-3635.2867L13962.4298,-3634.9998"/>
<path content="AP030,1,28,1,0,15,1,8,JPN" xlink:title="AP030" d="M13967.6971,-3631.3702L13968.2556,-3631.4056L13971.2097,-3631.5945L13973.0438,-3631.5945L13973.6542,-3631.5109L13974.1974,-3631.5109"/>
<path content="AP030,1,28,1,0,15,1,8,JPN" xlink:title="AP030" d="M13967.6971,-3631.3702L13968.0527,-3632.011L13969.3771,-3632.6778L13969.7525,-3633.0074L13970.4407,-3633.6124L13973.0515,-3636.911L13973.2162,-3637.1181L13973.6221,-3637.632"/>
<path content="AP030,1,28,1,0,15,1,8,JPN" xlink:title="AP030" d="M13962.0804,-3631.3999L13963.063,-3631.4278L13965.9302,-3631.361"/>
<path content="AP030,1,28,1,0,15,1,8,JPN" xlink:title="AP030" d="M13967.3294,-3631.3465L13967.6971,-3631.3702"/>
<path content="AP030,1,28,1,0,14,1,8,JPN" xlink:title="AP030" d="M13965.9302,-3631.361L13965.9698,-3631.3599L13966.3101,-3631.4133L13966.6504,-3631.4133L13967.0593,-3631.3801L13967.3294,-3631.3465"/>
<path content="AP030,1,28,1,0,15,1,8,JPN" xlink:title="AP030" d="M13967.6498,-3631.2866L13967.6971,-3631.3702"/>
<path content="AP030,1,28,1,0,14,1,8,JPN" xlink:title="AP030" d="M13967.3294,-3631.3465L13967.6498,-3631.2866"/>
<path content="AP030,1,28,1,0,15,1,8,JPN" xlink:title="AP030" d="M13958.2428,-3631.7329L13958.2138,-3631.6204L13958.0841,-3631.1031"/>
<path content="AP030,1,28,1,0,15,1,8,JPN" xlink:title="AP030" d="M13957.666,-3634.1888L13957.666,-3633.8863L13957.666,-3633.3057L13957.666,-3633.1779L13957.933,-3633.0906L13959.0881,-3632.7122L13959.2148,-3631.6925L13959.2896,-3631.0982"/>
<path content="AP030,1,28,1,0,15,1,8,JPN" xlink:title="AP030" d="M13958.0841,-3631.1031L13958.6029,-3631.1008L13959.2896,-3631.0982"/>
<path content="AP030,1,28,1,0,15,1,8,JPN" xlink:title="AP030" d="M13959.2896,-3631.0982L13960.3149,-3631.0944L13962.0804,-3631.3999"/>
<path content="AP030,1,28,1,0,15,1,8,JPN" xlink:title="AP030" d="M13974.1974,-3631.5109L13974.1302,-3630.8933"/>
<path content="AP030,1,28,1,0,15,1,8,JPN" xlink:title="AP030" d="M13974.1974,-3631.5109L13975.0793,-3631.5109L13977.2903,-3630.8933"/>
<path content="AP030,1,28,1,0,14,1,8,JPN" xlink:title="AP030" d="M13974.1302,-3630.8933L13974.5193,-3630.9666L13974.8093,-3631.0001L13975.4303,-3631.0001L13976.3992,-3630.8735L13976.9501,-3630.8601L13977.2903,-3630.8933"/>
<path content="AP030,1,28,1,0,15,1,8,JPN" xlink:title="AP030" d="M13957.0312,-3630.9488L13958.0841,-3631.1031"/>
<path content="AP030,1,28,1,0,15,1,8,JPN" xlink:title="AP030" d="M13985.2707,-3633.8135L13986.3693,-3633.5888L13987.5473,-3631.8668L13987.9111,-3631.2528"/>
<path content="AP030,1,28,1,0,14,1,8,JPN" xlink:title="AP030" d="M13985.2707,-3633.8135L13985.2203,-3633.2867L13985.2203,-3633.1799L13985.2203,-3632.84L13985.2203,-3632.28L13985.1807,-3632.0465L13985.0601,-3631.7734L13985.0403,-3631.72L13984.7198,-3631.1466L13984.3994,-3630.4401"/>
<path content="AP030,1,28,1,0,15,1,8,JPN" xlink:title="AP030" d="M13980.3101,-3632.1732L13980.8746,-3631.9424L13980.9708,-3631.9031L13981.0349,-3631.8768L13983.2214,-3630.9811L13984.3994,-3630.4401"/>
<path content="AP030,1,28,1,0,14,1,8,JPN" xlink:title="AP030" d="M13979.1306,-3630.4066L13979.5593,-3630.7999L13979.8096,-3631.1066L13979.9698,-3631.2866L13980.0797,-3631.4335L13980.1498,-3631.5601"/>
<path content="AP030,1,28,1,0,14,1,8,JPN" xlink:title="AP030" d="M13977.2903,-3630.8933L13977.4902,-3630.9132L13977.9907,-3631.0398L13978.1296,-3631.0734L13978.27,-3631.0734L13978.45,-3630.9666L13978.6102,-3630.7999L13978.7003,-3630.6801L13978.8101,-3630.5534L13978.9902,-3630.46L13979.1306,-3630.4066"/>
<path content="AP030,1,28,1,0,14,1,8,JPN" xlink:title="AP030" d="M13967.6498,-3631.2866L13967.9611,-3631.1211L13968.2907,-3630.9467L13968.9499,-3630.6065L13969.0598,-3630.5534L13969.7205,-3630.2601L13969.9905,-3630.2467L13971.1304,-3630.1533L13971.2692,-3630.1533L13972.0795,-3630.4401L13972.9706,-3630.7335L13973.3307,-3630.7865L13974.1302,-3630.8933"/>
<path content="AP030,1,28,1,0,14,1,8,JPN" xlink:title="AP030" d="M13984.3994,-3630.4401L13984.2972,-3630.2258L13984.1507,-3629.9198"/>
<path content="AP030,1,28,1,0,14,1,8,JPN" xlink:title="AP030" d="M13985.3793,-3629.6512L13985.667,-3629.6225L13986.0219,-3629.5937"/>
<path content="AP030,1,28,1,0,14,1,8,JPN" xlink:title="AP030" d="M13986.0219,-3629.5937L13986.5799,-3629.7199"/>
<path content="AP030,1,28,1,0,14,1,8,JPN" xlink:title="AP030" d="M13984.4498,-3629.7066L13985.3793,-3629.6512"/>
<path content="AP030,1,28,1,0,14,1,8,JPN" xlink:title="AP030" d="M13984.1507,-3629.9198L13984.0805,-3629.6665"/>
<path content="AP030,1,28,1,0,14,1,8,JPN" xlink:title="AP030" d="M13979.1306,-3630.4066L13979.4693,-3630.3001L13979.6494,-3630.2467L13979.8676,-3630.1891L13979.9744,-3630.1609L13980.13,-3630.1201L13980.2704,-3630.0999L13980.8594,-3629.9934L13981.9305,-3629.8134L13982.1793,-3629.7932L13982.9895,-3629.7199L13983.11,-3629.7199L13983.6502,-3629.6867L13984.0805,-3629.6665"/>
<path content="AP030,1,28,1,0,14,1,8,JPN" xlink:title="AP030" d="M13984.0805,-3629.6665L13984.2194,-3629.6665L13984.4498,-3629.7066"/>
<path content="AP030,1,28,1,0,15,1,8,JPN" xlink:title="AP030" d="M13988.7743,-3632.4899L13987.9111,-3631.2528"/>
<path content="AP030,1,28,1,0,14,1,8,JPN" xlink:title="AP030" d="M13987.1796,-3629.5067L13987.6801,-3629.5799L13987.7197,-3629.5799L13987.9288,-3629.5705"/>
<path content="AP030,1,28,1,0,14,1,8,JPN" xlink:title="AP030" d="M13986.5799,-3629.7199L13986.7203,-3629.6532L13986.8607,-3629.5799L13987.1796,-3629.5067"/>
<path content="AP030,1,28,1,0,14,1,8,JPN" xlink:title="AP030" d="M13988.6093,-3629.5399L13988.8992,-3629.5399"/>
<path content="AP030,1,28,1,0,14,1,8,JPN" xlink:title="AP030" d="M13961.8607,-3629.4327L13962.8098,-3629.6532L13962.8998,-3629.7066L13964.0793,-3630.9265L13964.18,-3630.9666L13965.4907,-3631.2733L13965.9302,-3631.361"/>
<path content="AP030,1,28,1,0,16,1,8,JPN" xlink:title="AP030" d="M13962.0804,-3631.3999L13962.0605,-3631.2332L13961.9003,-3630.7133L13961.8607,-3630.08L13961.8607,-3629.4327"/>
<path content="AP030,1,28,1,0,15,1,8,JPN" xlink:title="AP030" d="M13959.2896,-3631.0982L13959.5398,-3629.4132"/>
<path content="AP030,1,28,1,0,14,1,8,JPN" xlink:title="AP030" d="M13959.5398,-3629.4132L13960.0601,-3629.5601L13960.3104,-3629.5933L13960.6094,-3629.5601L13961.29,-3629.3999L13961.4304,-3629.38L13961.7203,-3629.3999L13961.8607,-3629.4327"/>
<path content="AP030,1,28,1,0,14,1,8,JPN" xlink:title="AP030" d="M13989.9307,-3629.4533L13990.0604,-3629.4533L13990.6296,-3629.2866L13991.4307,-3629.2534L13991.8304,-3629.2332L13991.8793,-3629.2332L13992.1875,-3629.2332"/>
<path content="AP030,1,28,1,0,14,1,8,JPN" xlink:title="AP030" d="M13989.5223,-3628.3623L13990.3279,-3628.6596L13990.9608,-3628.6788"/>
<path content="AP030,1,28,1,0,15,1,8,JPN" xlink:title="AP030" d="M13986.5799,-3629.7199L13985.9883,-3628.6622"/>
<path content="AP030,1,28,1,0,14,1,8,JPN" xlink:title="AP030" d="M13984.4498,-3629.7066L13984.9003,-3629.4149L13985.365,-3629.1826L13985.9883,-3628.6622"/>
<path content="AP030,1,28,1,0,14,1,8,JPN" xlink:title="AP030" d="M13990.9608,-3628.6788L13991.4505,-3628.9467L13991.7206,-3628.9867L13991.9296,-3629.0401L13992.1799,-3629.1466L13992.1875,-3629.1517"/>
<path content="AP030,1,28,1,0,14,1,8,JPN" xlink:title="AP030" d="M13987.5273,-3627.7309L13988.4002,-3627.9307L13989.014,-3628.228L13989.5223,-3628.3623"/>
<path content="AP030,1,28,1,0,14,1,8,JPN" xlink:title="AP030" d="M13985.9883,-3628.6622L13986.7603,-3628.0746L13987.5273,-3627.7309"/>
<path content="AP030,1,28,1,0,15,1,8,JPN" xlink:title="AP030" d="M13958.0841,-3631.1031L13957.9086,-3630.777L13957.0312,-3629.1451"/>
<path content="AP030,1,28,1,0,14,1,8,JPN" xlink:title="AP030" d="M13957.0312,-3628.6991L13957.2906,-3628.7666L13958.7204,-3629.1801L13959.5398,-3629.4132"/>
<path content="AP030,1,28,1,0,16,1,8,JPN" xlink:title="AP030" d="M13961.1801,-3627.8465L13961.7004,-3628.4401L13961.7706,-3628.7334L13961.8301,-3629.0401L13961.8607,-3629.1466L13961.8607,-3629.4327"/>
<path content="AP030,1,28,1,0,15,1,8,JPN" xlink:title="AP030" d="M13959.5398,-3629.4132L13960.5423,-3628.7609L13961.1801,-3627.8465"/>
<path content="AP030,1,28,1,0,14,1,8,JPN" xlink:title="AP030" d="M13977.4002,-3627.8332L13977.7695,-3628.2265L13977.9694,-3628.5L13978.0594,-3628.5534L13978.1296,-3628.5866L13978.4698,-3628.8601L13978.6301,-3629.0932L13978.5797,-3629.6665L13978.9505,-3630.08L13979.1306,-3630.4066"/>
<path content="AP030,1,28,1,0,15,1,8,JPN" xlink:title="AP030" d="M13974.1302,-3630.8933L13973.8617,-3629.9873L13973.0148,-3628.228L13971.9894,-3627.0679"/>
<path content="AP030,1,28,1,0,15,1,8,JPN" xlink:title="AP030" d="M13965.5563,-3626.5244L13967.4408,-3626.6449L13968.631,-3627.9186L13969.5511,-3628.0685L13970.5292,-3628.2192L13971.4066,-3627.4818L13971.9894,-3627.0679"/>
<path content="AP030,1,28,1,0,15,1,8,JPN" xlink:title="AP030" d="M13967.6498,-3631.2866L13967.0837,-3630.0983L13966.7953,-3629.4956L13966.8839,-3627.829L13965.5563,-3626.5244"/>
<path content="AP030,1,28,1,0,15,1,8,JPN" xlink:title="AP030" d="M13961.1801,-3627.8465L13962.9303,-3627.4345L13964.6729,-3626.754L13964.711,-3626.7437L13965.5563,-3626.5244"/>
<path content="AP030,1,28,1,0,15,1,8,JPN" xlink:title="AP030" d="M13959.8999,-3625.8331L13963.3743,-3625.9579L13964.5859,-3626.0899"/>
<path content="AP030,1,28,1,0,16,1,8,JPN" xlink:title="AP030" d="M13959.8999,-3625.8331L13960.1501,-3627.0733L13960.2707,-3627.2732L13960.4294,-3627.4132L13960.5804,-3627.5265L13961.0199,-3627.7401L13961.1801,-3627.8465"/>
<path content="AP030,1,28,1,0,14,1,8,JPN" xlink:title="AP030" d="M13975.65,-3625.8331L13975.7904,-3625.8865L13976.1307,-3626.1333L13976.5793,-3626.7132L13977.2903,-3627.5265L13977.4002,-3627.8332"/>
<path content="AP030,1,28,1,0,15,1,8,JPN" xlink:title="AP030" d="M13971.9894,-3627.0679L13972.9736,-3626.7982L13973.2101,-3626.4275L13974.1898,-3626.4843L13975.116,-3626.2608L13975.65,-3625.8331"/>
<path content="AP030,1,28,1,0,14,1,8,JPN" xlink:title="AP030" d="M13980.9494,-3625.0935L13980.9692,-3625.1801L13981.0196,-3625.3265L13981.2393,-3625.56L13981.4896,-3625.8133L13982.5394,-3626.8398L13983.0399,-3627.3266L13983.3099,-3627.7401L13983.4503,-3627.9533L13983.6304,-3628.26L13983.9005,-3628.7666L13983.9493,-3629.0001L13984.0607,-3629.5933L13984.0805,-3629.6665"/>
<path content="AP030,1,28,1,0,15,1,8,JPN" xlink:title="AP030" d="M13977.4002,-3627.8332L13977.6917,-3627.56L13977.71,-3627.5433L13979.0665,-3626.2733L13980.5038,-3625.6214L13980.9494,-3625.0935"/>
<path content="AP030,1,28,1,0,15,1,8,JPN" xlink:title="AP030" d="M13991.6641,-3624.8878L13992.1875,-3625.4954"/>
<path content="AP030,1,28,1,0,15,1,8,JPN" xlink:title="AP030" d="M13988.8992,-3629.5399L13989.5223,-3628.3623"/>
<path content="AP030,1,28,1,0,15,1,8,JPN" xlink:title="AP030" d="M13957.0312,-3625.97L13957.7332,-3626.207L13958.8959,-3626.3783L13959.8999,-3625.8331"/>
<path content="AP030,1,28,1,0,15,1,8,JPN" xlink:title="AP030" d="M13991.6641,-3624.8878L13992.1875,-3624.7968"/>
<path content="AP030,1,28,1,0,15,1,8,JPN" xlink:title="AP030" d="M13985.9883,-3628.6622L13984.7534,-3626.1768L13983.6334,-3624.3431"/>
<path content="AP030,1,28,1,0,15,1,8,JPN" xlink:title="AP030" d="M13980.9494,-3625.0935L13981.8863,-3624.9241L13983.6334,-3624.3431"/>
<path content="AP030,1,28,1,0,16,1,8,JPN" xlink:title="AP030" d="M13957.2372,-3622.802L13957.2693,-3622.8733L13957.7194,-3624.1333L13957.8796,-3624.44L13958.1802,-3624.6933L13958.4305,-3624.86L13959.2896,-3625.2533L13959.7198,-3625.5402L13959.8999,-3625.8331"/>
<path content="AP030,1,28,1,0,14,1,8,JPN" xlink:title="AP030" d="M13957.0312,-3622.8778L13957.1304,-3622.8199L13957.2372,-3622.802"/>
<path content="AP030,1,28,1,0,15,1,8,JPN" xlink:title="AP030" d="M13987.5031,-3622.7596L13988.3179,-3623.0095L13989.743,-3623.093L13990.5579,-3623.6763L13991.6641,-3624.8878"/>
<path content="AP030,1,28,1,0,15,1,8,JPN" xlink:title="AP030" d="M13987.9288,-3629.5705L13987.5273,-3627.7309"/>
<path content="AP030,1,28,1,0,14,1,8,JPN" xlink:title="AP030" d="M13957.2372,-3622.802L13957.4493,-3622.7665L13957.6996,-3622.7333L13957.8598,-3622.7135"/>
<path content="AP030,1,28,1,0,15,1,8,JPN" xlink:title="AP030" d="M13986.2808,-3621.8426L13986.8927,-3622.0928L13987.5031,-3622.7596"/>
<path content="AP030,1,28,1,0,14,1,8,JPN" xlink:title="AP030" d="M13957.8598,-3622.7135L13958.11,-3622.6933L13958.3099,-3622.5864L13958.5403,-3622.44L13958.7006,-3622.4068L13958.8104,-3622.4068L13959.4299,-3622.3866L13959.8801,-3622.3L13960.2402,-3622.2801L13960.9695,-3622.1333L13961.6104,-3622.0135L13961.6501,-3622.0135L13962.1506,-3621.7201"/>
<path content="AP030,1,28,1,0,14,1,8,JPN" xlink:title="AP030" d="M13980.9494,-3625.0935L13980.6107,-3623.9399L13980.2704,-3623.2334L13980.1102,-3622.9267L13979.7699,-3622.3L13979.6494,-3621.6866"/>
<path content="AP030,1,28,1,0,14,1,8,JPN" xlink:title="AP030" d="M13979.6494,-3621.6866L13979.6494,-3621.6534"/>
<path content="AP030,1,28,1,0,16,1,8,JPN" xlink:title="AP030" d="M13957.2372,-3622.802L13957.0312,-3622.3502"/>
<path content="AP030,1,28,1,0,14,1,8,JPN" xlink:title="AP030" d="M13957.8598,-3622.7135L13958.0399,-3622.4266L13958.2901,-3622.2267L13958.5041,-3622.0568L13958.783,-3621.9484L13959.8209,-3621.6541L13960.9362,-3621.5302L13961.7107,-3621.6076L13962.1506,-3621.7201"/>
<path content="AP030,1,28,1,0,15,1,8,JPN" xlink:title="AP030" d="M13982.6157,-3621.2593L13986.2808,-3621.8426"/>
<path content="AP030,1,28,1,0,15,1,8,JPN" xlink:title="AP030" d="M13983.6334,-3624.3431L13983.226,-3623.4264L13982.6157,-3622.5094L13982.6157,-3621.2593"/>
<path content="AP030,1,28,1,0,15,1,8,JPN" xlink:title="AP030" d="M13979.6494,-3621.6866L13980.6168,-3621.756L13982.6157,-3621.2593"/>
<path content="AP030,1,28,1,0,15,1,8,JPN" xlink:title="AP030" d="M13978.1862,-3621.0938L13978.9764,-3621.4283L13979.6494,-3621.6534"/>
<path content="AP030,1,28,1,0,15,1,8,JPN" xlink:title="AP030" d="M13965.5563,-3626.5244L13964.9368,-3625.655L13965.7333,-3622.8291L13965.9988,-3621.8868L13966.3448,-3621.0938"/>
<path content="AP030,1,28,1,0,14,1,8,JPN" xlink:title="AP030" d="M13962.1506,-3621.7201L13962.6099,-3621.5599L13962.9303,-3621.4664L13963.0203,-3621.4134L13963.2004,-3621.3066L13963.3301,-3621.2334L13963.5406,-3621.2532L13964.3097,-3621.4333L13964.5401,-3621.4664L13964.65,-3621.4867L13964.7705,-3621.4333L13964.8804,-3621.3264L13964.8804,-3621.2734L13964.9002,-3621.2002L13964.9704,-3621.1067L13964.9714,-3621.0938"/>
<path content="AP030,1,28,1,0,14,1,8,JPN" xlink:title="AP030" d="M13979.6494,-3621.6534L13979.58,-3621.0938"/>
<path content="AP030,1,28,1,0,15,1,8,JPN" xlink:title="AP030" d="M13982.6157,-3621.2593L13982.6466,-3621.0938"/>
<path content="AP030,1,28,1,0,15,1,8,JPN" xlink:title="AP030" d="M13985.3667,-3621.0938L13986.2808,-3621.8426"/>
<path content="AP030,1,28,1,0,14,1,8,JPN" xlink:title="AP030" d="M13975.65,-3625.8331L13975.5798,-3625.7935L13975.1801,-3625.5798L13974.1302,-3624.8001L13973.6298,-3624.3198L13973.1094,-3623.8865L13972.6501,-3623.6134L13972.02,-3623.2334L13971.9299,-3623.1667L13971.7407,-3623.0202L13971.3593,-3622.5666L13971.3104,-3622.48L13971.3303,-3621.9532L13971.2906,-3621.8468L13971.2006,-3621.5401L13971.08,-3621.22L13971.1678,-3621.0938"/>
<path content="AP030,1,28,1,0,15,1,8,JPN" xlink:title="AP030" d="M13987.5031,-3622.7596L13987.6053,-3621.9261L13988.143,-3621.0938"/>
<path content="AP030,1,28,1,0,15,1,8,JPN" xlink:title="AP030" d="M13957.0312,-3621.6268L13957.5272,-3621.6026L13959.0256,-3621.4859L13960.7494,-3621.0938"/>
<path content="AP030,1,28,1,0,15,1,8,JPN" xlink:title="AP030" d="M13991.6641,-3624.8878L13992.1875,-3623.9826"/>
<path content="AP030,1,28,1,0,15,1,8,JPN" xlink:title="AP030" d="M13992.1875,-3650.1084L13991.7007,-3650.1534"/>
<path content="AP030,1,28,1,0,15,1,8,JPN" xlink:title="AP030" d="M13987.9111,-3631.2528L13986.5799,-3629.7199"/>
<path content="AP030,1,28,1,0,15,1,8,JPN" xlink:title="AP030" d="M13989.5223,-3628.3623L13990.5596,-3627.5791L13991.1209,-3626.9909L13991.6641,-3624.8878"/>
<path content="AP030,1,28,1,0,15,1,8,JPN" xlink:title="AP030" d="M13987.5273,-3627.7309L13987.4008,-3626.26L13986.7905,-3625.0931L13986.7905,-3624.2599L13987.6053,-3623.3429L13987.5031,-3622.7596"/>
<path content="AP030,1,28,1,0,14,1,8,JPN" xlink:title="AP030" d="M13988.8992,-3629.5399L13989.0793,-3629.4865L13989.4699,-3629.4865L13989.9307,-3629.4533"/>
<path content="AP030,1,28,1,0,14,1,8,JPN" xlink:title="AP030" d="M13987.9288,-3629.5705L13988.6093,-3629.5399"/>
<path content="AP030,1,28,1,1,16,1,8,JPN" xlink:title="AP030" d="M13962.4298,-3634.9998L13958.223,-3635.1603L13957.0313,-3635.8754"/>
<path content="AP030,1,28,1,0,16,1,8,JPN" xlink:title="AP030" d="M13962.4298,-3634.9998L13962.4298,-3634.6199L13962.4298,-3634.1202L13962.3795,-3633.9401L13962.2696,-3633.7601L13962.0193,-3633.5602L13961.7401,-3633.3267L13961.4304,-3632.6599L13961.3998,-3632.5535L13961.4304,-3632.3002L13961.5097,-3632.2075L13961.5402,-3632.1732L13961.9705,-3631.76L13962.0605,-3631.58L13962.0804,-3631.3999"/>
</g>
</svg>
