<?xml version="1.0" encoding="UTF-8"?>
<svg  xmlns="http://www.w3.org/2000/svg" xmlns:xlink="http://www.w3.org/1999/xlink" xmlns:go="http://purl.org/svgmap/profile" property="f_code,acc,exs,rst,med,rtt,RSU,loc,soc" viewBox="13429.6875 -3445.3125 70.3125 70.3125" go:dataArea="13429.6875 -3445.3125 70.3125 70.3125" >
<metadata>
 <rdf:RDF xmlns:rdf="http://www.w3.org/1999/02/22-rdf-syntax-ns#" xmlns:crs="http://opengis.org/xmldtds/transformations.dtd" xmlns:svg="http://www.w3.org/svg" >
  <rdf:Description>
   <crs:CoordinateReferenceSystem rdf:resource="http://purl.org/crs/84" svg:transform="matrix(100.0,0.0,0.0,-100.0,0.0,0.0)" />
  </rdf:Description>
 </rdf:RDF>
</metadata>
<globalCoordinateSystem srsName="http://purl.org/crs/84" transform="matrix(100.0,0.0,0.0,-100.0,0.0,0.0)" />
<defs>
 <g id="p0" >
  <circle cx="0.0" cy="0.0" r="3" stroke="green" stroke-width="2.0" vector-effect="non-scaling-stroke" />
 </g>
</defs>
<g fill="none" fill-rule="evenodd" stroke="#00ff00" stroke-width="2" opacity="0.5" vector-effect="non-scaling-stroke" stroke-linejoin="bevel" >
<path content="AP030,1,28,1,0,15,1,8,JPN" xlink:title="AP030" d="M13432.551,-3445.3125L13432.7026,-3445.219"/>
<path content="AP030,1,28,1,0,16,1,8,JPN" xlink:title="AP030" d="M13487.6801,-3445.3125L13487.6801,-3445.2866L13487.5595,-3444.9665L13487.2696,-3443.9533"/>
<path content="AP030,1,28,1,0,15,1,8,JPN" xlink:title="AP030" d="M13486.7691,-3443.7756L13487.2696,-3443.9533"/>
<path content="AP030,1,28,1,0,15,1,8,JPN" xlink:title="AP030" d="M13485.5896,-3445.3125L13486.1801,-3444.4054L13486.7691,-3443.7756"/>
<path content="AP030,1,28,1,0,14,1,8,JPN" xlink:title="AP030" d="M13491.7966,-3445.3125L13491.7892,-3445.3068L13491.7206,-3445.2534L13491.5802,-3445.0401L13491.4902,-3444.8601L13491.3605,-3444.5534L13491.3605,-3444.5332L13491.0599,-3444.12L13490.6296,-3443.6333"/>
<path content="AP030,1,28,1,0,15,1,8,JPN" xlink:title="AP030" d="M13487.2696,-3443.9533L13488.6917,-3443.7771L13490.6296,-3443.6333"/>
<path content="AP030,1,28,1,0,15,1,8,JPN" xlink:title="AP030" d="M13478.1326,-3440.5331L13479.274,-3441.8964L13479.7516,-3442.7475L13480.1407,-3443.882L13480.574,-3444.5911L13481.3538,-3445.2293L13481.4868,-3445.3125"/>
<path content="AP030,1,28,1,0,15,1,8,JPN" xlink:title="AP030" d="M13481.8741,-3440.0173L13482.9559,-3440.2302L13484.1263,-3440.5491L13485.0784,-3441.0099L13485.643,-3441.7191L13486.1618,-3442.8185L13486.7691,-3443.7756"/>
<path content="AP030,1,28,1,0,15,1,8,JPN" xlink:title="AP030" d="M13478.1326,-3440.5331L13479.837,-3440.8684L13480.661,-3440.7265L13481.1813,-3440.4427L13481.4407,-3440.2653L13481.8741,-3440.0173"/>
<path content="AP030,1,28,1,0,16,1,8,JPN" xlink:title="AP030" d="M13487.2696,-3443.9533L13487.1094,-3443.4532L13486.9904,-3442.9466L13486.8805,-3442.5865L13486.7401,-3441.8331L13486.6104,-3441.1465L13486.5402,-3440.7333L13486.3602,-3440.2466L13486.1099,-3439.7064L13485.9497,-3439.3467L13485.8994,-3439.1464L13485.8795,-3438.7665L13485.9497,-3438.2465L13485.9497,-3437.6865L13485.9299,-3437.4866"/>
<path content="AP030,1,28,1,0,15,1,8,JPN" xlink:title="AP030" d="M13481.8741,-3440.0173L13482.2205,-3439.4855L13482.6965,-3438.8828L13483.0429,-3438.4571L13483.5205,-3438.3507L13484.0836,-3438.3507L13484.5154,-3438.2442L13485.2524,-3437.8544L13485.9299,-3437.4866"/>
<path content="AP030,1,28,1,0,15,1,8,JPN" xlink:title="AP030" d="M13481.8741,-3440.0173L13481.2241,-3439.2727L13480.3574,-3438.2442L13479.5776,-3437.677L13478.6682,-3437.0743"/>
<path content="AP030,1,28,1,0,15,1,8,JPN" xlink:title="AP030" d="M13475.3464,-3436.8095L13476.3519,-3437.1597L13478.2455,-3437.1166L13478.6682,-3437.0743"/>
<path content="AP030,1,28,1,0,15,1,8,JPN" xlink:title="AP030" d="M13478.1326,-3440.5331L13477.4551,-3439.9464L13477.1088,-3439.4146L13476.8921,-3438.8119L13476.3718,-3437.9963L13475.853,-3437.6415L13475.4196,-3436.9328L13475.3464,-3436.8095"/>
<path content="AP030,1,28,1,0,15,1,8,JPN" xlink:title="AP030" d="M13478.6682,-3437.0743L13478.6682,-3436.7199L13478.6682,-3436.1881"/>
<path content="AP030,1,28,1,0,14,1,8,JPN" xlink:title="AP030" d="M13488.8584,-3434.6259L13488.9893,-3434.6931L13489.1098,-3434.7866L13489.27,-3435.1265L13489.2899,-3435.4332L13489.3875,-3435.5659L13489.4302,-3435.92L13489.4897,-3436.1198L13489.4302,-3436.2801L13489.4302,-3436.5334L13489.5203,-3436.6798L13489.6332,-3436.7878L13489.6301,-3436.9465L13489.5798,-3437.22L13489.5798,-3437.3798L13489.6637,-3437.5099L13489.5798,-3437.6133L13489.4897,-3437.7068L13489.4897,-3437.8132L13489.4699,-3437.9734L13489.5203,-3438.1931L13489.4897,-3438.3533L13489.4302,-3438.5864L13489.36,-3438.9465L13489.3295,-3439.04L13489.3295,-3439.1266L13489.3799,-3439.5065L13489.3295,-3439.6866L13489.36,-3439.8865L13489.4302,-3440.1199L13489.5401,-3440.3534L13489.5798,-3440.4999L13489.711,-3440.8447L13489.7202,-3440.9664L13489.3997,-3441.2533L13489.3997,-3441.56L13489.3997,-3441.9399L13489.4897,-3442.0666L13489.7003,-3442.2466L13489.7003,-3442.3199L13489.6805,-3442.4999L13489.7202,-3442.5533L13490.1993,-3443.0199L13490.3793,-3443.1999L13490.5197,-3443.3468L13490.6097,-3443.5799L13490.6296,-3443.6333"/>
<path content="AP030,1,28,1,0,15,1,8,JPN" xlink:title="AP030" d="M13485.9299,-3437.4866L13486.3937,-3437.0697L13486.4792,-3436.2808L13486.6287,-3435.7224L13487.0789,-3435.1784L13487.4893,-3434.7916L13487.4893,-3434.4265"/>
<path content="AP030,1,28,1,0,14,1,8,JPN" xlink:title="AP030" d="M13487.4893,-3434.4265L13487.8799,-3434.4265L13487.9501,-3434.4265"/>
<path content="AP030,1,28,1,0,14,1,8,JPN" xlink:title="AP030" d="M13487.9501,-3434.4265L13488.1302,-3434.3334L13488.2401,-3434.3334L13488.3804,-3434.3735L13488.4705,-3434.4265L13488.8584,-3434.6259"/>
<path content="AP030,1,28,1,0,16,1,8,JPN" xlink:title="AP030" d="M13485.9299,-3437.4866L13485.8795,-3437.0731L13485.7895,-3436.6798L13485.7697,-3436.4799L13485.6796,-3436.1935L13485.6094,-3435.92L13485.5194,-3435.6865L13485.3806,-3435.4534L13485.2005,-3435.2531L13484.9304,-3434.9865L13484.3597,-3434.5135L13484.0393,-3434.2602"/>
<path content="AP030,1,28,1,0,15,1,8,JPN" xlink:title="AP030" d="M13478.6682,-3436.1881L13479.1611,-3436.1343L13479.7897,-3436.1065L13480.0537,-3435.7903L13480.397,-3435.3882L13480.867,-3435.2127L13481.1569,-3435.2173L13481.926,-3435.3863L13482.2144,-3435.4008L13482.4997,-3435.1154L13482.7423,-3434.9281L13484.0393,-3434.2602"/>
<path content="AP030,1,28,1,0,14,1,8,JPN" xlink:title="AP030" d="M13484.7397,-3433.7399L13484.9304,-3433.9199L13484.9304,-3433.9401L13485.08,-3434.0134L13485.4294,-3434.1202L13485.8597,-3434.2464L13486.1801,-3434.2999L13486.4304,-3434.3201L13486.7905,-3434.4265L13487.3093,-3434.4265L13487.4893,-3434.4265"/>
<path content="AP030,1,28,1,0,14,1,8,JPN" xlink:title="AP030" d="M13484.7198,-3433.72L13484.7397,-3433.7399"/>
<path content="AP030,1,28,1,0,15,1,8,JPN" xlink:title="AP030" d="M13484.0393,-3434.2602L13484.7198,-3433.72"/>
<path content="AP030,1,28,1,0,14,1,8,JPN" xlink:title="AP030" d="M13484.7397,-3433.7399L13485.1948,-3433.5623L13485.4788,-3433.5003L13485.75,-3433.459L13486.11,-3433.456L13486.63,-3433.473L13487.05,-3433.505L13487.35,-3433.548L13487.57,-3433.678L13487.85,-3433.981L13487.9501,-3434.4265"/>
<path content="AP030,1,28,1,0,15,1,8,JPN" xlink:title="AP030" d="M13475.3464,-3436.8095L13474.8566,-3435.9753L13474.5102,-3434.7343L13474.0784,-3432.9391"/>
<path content="AP030,1,28,1,0,15,1,8,JPN" xlink:title="AP030" d="M13478.6682,-3436.1881L13478.3646,-3435.585L13478.0182,-3434.6634L13477.8885,-3433.7769L13477.4979,-3432.8197L13477.3376,-3432.4348"/>
<path content="AP030,1,28,1,0,15,1,8,JPN" xlink:title="AP030" d="M13474.0784,-3432.9391L13475.5676,-3432.8213L13476.5381,-3432.65L13477.3376,-3432.4348"/>
<path content="AP030,1,28,1,0,15,1,8,JPN" xlink:title="AP030" d="M13473.5138,-3432.288L13474.0143,-3432.6706L13474.0784,-3432.9391"/>
<path content="AP030,1,28,1,0,16,1,8,JPN" xlink:title="AP030" d="M13477.1301,-3431.9401L13477.7405,-3432.1732L13478.3295,-3432.4265L13478.8605,-3432.6599L13479.2694,-3432.8201L13479.4495,-3432.8934L13479.6494,-3432.9468L13479.8996,-3432.9865L13480.2704,-3432.9865L13480.4901,-3432.9666L13480.7007,-3432.9468L13481.0196,-3432.8602L13481.2698,-3432.7667L13481.6101,-3432.7332L13481.9305,-3432.6801L13482.3303,-3432.6401L13482.5394,-3432.6599L13482.7393,-3432.7332L13483.02,-3433.02L13483.2199,-3433.3267L13483.4702,-3433.6666L13483.58,-3433.8135L13483.7204,-3433.9535L13484.0393,-3434.2602"/>
<path content="AP030,1,28,1,0,15,1,8,JPN" xlink:title="AP030" d="M13477.3376,-3432.4348L13477.1301,-3431.9401"/>
<path content="AP030,1,28,1,0,16,1,8,JPN" xlink:title="AP030" d="M13474.2905,-3430.5534L13474.4293,-3430.6934L13474.6094,-3430.8399L13474.8306,-3430.9666L13474.9298,-3431.0398L13475.1495,-3431.1665L13475.47,-3431.3267L13475.7706,-3431.4533L13476.2405,-3431.6132L13476.77,-3431.8134L13477.1301,-3431.9401"/>
<path content="AP030,1,28,1,0,15,1,8,JPN" xlink:title="AP030" d="M13473.5138,-3432.288L13473.5138,-3431.7558L13473.9899,-3431.2595L13474.2905,-3430.5534"/>
<path content="AP030,1,28,1,0,15,1,8,JPN" xlink:title="AP030" d="M13477.1301,-3431.9401L13476.8051,-3431.366L13476.6327,-3430.5149"/>
<path content="AP030,1,28,1,0,15,1,8,JPN" xlink:title="AP030" d="M13474.3362,-3429.8767L13475.3754,-3430.267L13476.6327,-3430.5149"/>
<path content="AP030,1,28,1,0,15,1,8,JPN" xlink:title="AP030" d="M13474.2905,-3430.5534L13474.3362,-3429.8767"/>
<path content="AP030,1,28,1,0,15,1,8,JPN" xlink:title="AP030" d="M13473.5596,-3429.6333L13474.3362,-3429.8767"/>
<path content="AP030,1,28,1,0,16,1,8,JPN" xlink:title="AP030" d="M13474.2905,-3430.5534L13474.0601,-3430.2067L13473.8297,-3429.9198L13473.5596,-3429.6333"/>
<path content="AP030,1,28,1,0,14,1,8,JPN" xlink:title="AP030" d="M13478.6102,-3429.0932L13479.0405,-3429.2332L13479.5395,-3429.4334L13479.7699,-3429.5799L13479.9698,-3429.8134L13480.2399,-3429.94L13480.4001,-3430.0266L13480.6503,-3430.3001L13480.6793,-3430.3532L13480.9494,-3430.5534L13481.1295,-3430.6599L13481.5598,-3430.8399L13481.9305,-3431.1466L13481.9901,-3431.2L13482.2006,-3431.3465L13482.4493,-3431.5067L13482.6294,-3431.6132L13482.8598,-3431.9199L13482.93,-3432.0801L13483.11,-3432.3532L13483.1497,-3432.4066L13483.4305,-3432.6199L13483.8593,-3432.8934L13483.8806,-3432.9132L13484.0195,-3432.9865L13484.3994,-3433.3599L13484.7198,-3433.72"/>
<path content="AP030,1,28,1,0,15,1,8,JPN" xlink:title="AP030" d="M13476.6327,-3430.5149L13477.1515,-3430.5149L13477.6291,-3430.4794L13478.0624,-3430.0896L13478.3646,-3429.5578L13478.6102,-3429.0932"/>
<path content="AP030,1,28,1,0,15,1,8,JPN" xlink:title="AP030" d="M13476.6327,-3430.5149L13476.5457,-3429.8058L13476.6754,-3428.4229"/>
<path content="AP030,1,28,1,0,14,1,8,JPN" xlink:title="AP030" d="M13476.6098,-3427.6665L13476.86,-3427.8465L13477.1301,-3428.0266L13477.5406,-3428.4267L13477.6093,-3428.4801L13477.8305,-3428.6934L13477.9907,-3428.82L13478.1097,-3428.8734L13478.2898,-3428.9467L13478.5797,-3429.0733L13478.6102,-3429.0932"/>
<path content="AP030,1,28,1,0,15,1,8,JPN" xlink:title="AP030" d="M13476.6754,-3428.4229L13476.6098,-3427.6665"/>
<path content="AP030,1,28,1,0,15,1,8,JPN" xlink:title="AP030" d="M13466.4612,-3427.4662L13466.4429,-3427.6772L13466.452,-3427.9976L13466.539,-3428.6003L13466.539,-3428.9196L13467.0151,-3429.7707L13467.276,-3430.4794L13467.5781,-3430.9406L13467.8391,-3431.1531L13468.2724,-3431.2241L13468.6188,-3431.4369L13468.9209,-3431.6498L13469.4839,-3431.6498L13470.3506,-3431.4724L13470.784,-3431.4014L13471.0876,-3431.366L13471.4767,-3431.6498L13472.3862,-3432.217L13472.8638,-3432.288L13473.5138,-3432.288"/>
<path content="AP030,1,28,1,0,14,1,8,JPN" xlink:title="AP030" d="M13475.7904,-3427.0401L13476.0193,-3427.0733L13476.2405,-3427.3266L13476.4297,-3427.4666L13476.6098,-3427.6665"/>
<path content="AP030,1,28,1,0,15,1,8,JPN" xlink:title="AP030" d="M13476.6754,-3428.4229L13475.7904,-3427.0401"/>
<path content="AP030,1,28,1,0,15,1,8,JPN" xlink:title="AP030" d="M13467.3615,-3426.9695L13468.3151,-3427.5013L13469.3542,-3427.9621L13470.4376,-3428.3169L13472.084,-3429.1676L13473.5596,-3429.6333"/>
<path content="AP030,1,28,1,0,15,1,8,JPN" xlink:title="AP030" d="M13466.4612,-3427.4662L13467.3615,-3426.9695"/>
<path content="AP030,1,28,1,0,15,1,8,JPN" xlink:title="AP030" d="M13467.3615,-3426.9695L13467.189,-3426.7567"/>
<path content="AP030,1,28,1,0,15,1,8,JPN" xlink:title="AP030" d="M13466.4612,-3427.4662L13467.189,-3426.7567"/>
<path content="AP030,1,28,1,0,14,1,8,JPN" xlink:title="AP030" d="M13473.6801,-3426.4801L13474.0601,-3426.6399L13474.8795,-3426.8932L13475.0595,-3426.9466L13475.4303,-3426.9665L13475.7004,-3427.0199L13475.7904,-3427.0401"/>
<path content="AP030,1,28,1,0,15,1,8,JPN" xlink:title="AP030" d="M13474.3362,-3429.8767L13474.1196,-3429.0611L13474.1196,-3428.175L13474.0768,-3427.4303L13473.6801,-3426.4801"/>
<path content="AP030,1,28,1,0,16,1,8,JPN" xlink:title="AP030" d="M13468.5593,-3425.9731L13468.8095,-3426.1002L13468.9896,-3426.2264L13469.1299,-3426.3733L13469.22,-3426.5331L13469.4,-3426.8932L13469.5404,-3427.0401L13469.6793,-3427.1667L13470.0607,-3427.3998L13470.43,-3427.6333L13470.7001,-3427.8999L13470.99,-3428.2265L13471.2402,-3428.5133L13471.4294,-3428.64L13471.6293,-3428.6934L13471.8597,-3428.7334L13472.0795,-3428.7666L13472.29,-3428.8601L13472.8104,-3429.1664L13473.2193,-3429.3598L13473.5596,-3429.6333"/>
<path content="AP030,1,28,1,0,15,1,8,JPN" xlink:title="AP030" d="M13467.3615,-3426.9695L13468.1412,-3426.7212L13468.5593,-3425.9731"/>
<path content="AP030,1,28,1,0,16,1,8,JPN" xlink:title="AP030" d="M13468.0405,-3425.6866L13468.2404,-3425.8133L13468.3594,-3425.8667L13468.5593,-3425.9731"/>
<path content="AP030,1,28,1,0,15,1,8,JPN" xlink:title="AP030" d="M13467.189,-3426.7567L13467.6224,-3426.2959L13468.0405,-3425.6866"/>
<path content="AP030,1,28,1,0,14,1,8,JPN" xlink:title="AP030" d="M13472.3602,-3425.6531L13472.3602,-3425.6535L13472.8302,-3425.9933L13473.1094,-3426.2466L13473.1796,-3426.3L13473.3597,-3426.44L13473.5199,-3426.4801L13473.6801,-3426.4801"/>
<path content="AP030,1,28,1,0,14,1,8,JPN" xlink:title="AP030" d="M13429.6875,-3425.6775L13429.6997,-3425.6664L13430.13,-3425.2731L13430.1498,-3425.2533"/>
<path content="AP030,1,28,1,0,15,1,8,JPN" xlink:title="AP030" d="M13472.3602,-3425.6531L13471.9309,-3425.9475L13471.2303,-3425.9168L13470.5297,-3425.5188L13470.134,-3425.0549"/>
<path content="AP030,1,28,1,0,15,1,8,JPN" xlink:title="AP030" d="M13468.5593,-3425.9731L13469.5709,-3425.3384L13470.134,-3425.0549"/>
<path content="AP030,1,28,1,0,15,1,8,JPN" xlink:title="AP030" d="M13468.1168,-3425.0523L13470.134,-3425.0549"/>
<path content="AP030,1,28,1,0,15,1,8,JPN" xlink:title="AP030" d="M13468.0405,-3425.6866L13468.1168,-3425.0523"/>
<path content="AP030,1,28,1,0,15,1,8,JPN" xlink:title="AP030" d="M13429.6875,-3425.0038L13430.1498,-3425.2533"/>
<path content="AP030,1,28,1,0,15,1,8,JPN" xlink:title="AP030" d="M13466.7099,-3424.5853L13468.1168,-3425.0523"/>
<path content="AP030,1,28,1,0,16,1,8,JPN" xlink:title="AP030" d="M13466.7099,-3424.5853L13467.2958,-3424.963L13467.6102,-3425.1999L13467.8604,-3425.4532L13468.0405,-3425.6866"/>
<path content="AP030,1,28,1,0,14,1,8,JPN" xlink:title="AP030" d="M13430.1498,-3425.2533L13430.4901,-3425.1999L13430.6107,-3425.1801L13430.8594,-3425.1266L13431.0196,-3425.1064L13431.8604,-3424.9866L13432.3303,-3424.8932L13432.6096,-3424.8402L13432.6797,-3424.8199L13432.7698,-3424.8001L13433.3298,-3424.8001L13433.4702,-3424.8001L13433.8593,-3424.7131L13434.1095,-3424.6399L13434.4299,-3424.5533L13434.4498,-3424.5533L13434.6802,-3424.4064L13435.1807,-3424.1333L13435.2707,-3424.1199L13435.4004,-3424.1199"/>
<path content="AP030,1,28,1,0,14,1,8,JPN" xlink:title="AP030" d="M13435.4004,-3424.1199L13435.1303,-3423.7598L13434.9304,-3423.6534L13434.8099,-3423.6134L13434.7214,-3423.4669"/>
<path content="AP030,1,28,1,0,16,1,8,JPN" xlink:title="AP030" d="M13429.6875,-3424.6885L13429.7921,-3424.6416L13432.3578,-3423.9452L13433.7997,-3423.6355L13434.7214,-3423.4669"/>
<path content="AP030,1,28,1,0,16,1,25,JPN" xlink:title="AP030" d="M13464.343,-3423.8754L13464.4501,-3423.9479L13465.2939,-3424.0765L13465.9409,-3424.2631L13465.9559,-3424.2674"/>
<path content="AP030,1,28,1,0,14,1,8,JPN" xlink:title="AP030" d="M13435.4004,-3424.1199L13435.6094,-3424.1199L13435.7697,-3424.1199L13436.4899,-3424.0665L13436.8103,-3423.9933L13436.9003,-3423.9399L13437.0605,-3423.7934L13437.3093,-3423.6332L13437.5198,-3423.6332L13437.6465,-3423.6275L13437.9501,-3423.6134L13438.0798,-3423.5931L13438.15,-3423.5268L13438.5803,-3422.8401L13438.7192,-3422.5864"/>
<path content="AP030,1,28,1,0,15,1,8,JPN" xlink:title="AP030" d="M13438.2278,-3422.226L13438.5941,-3422.4945L13438.7192,-3422.5864"/>
<path content="AP030,1,28,1,0,16,1,8,JPN" xlink:title="AP030" d="M13434.7214,-3423.4669L13435.1379,-3423.3902L13437.0738,-3423.106L13437.9883,-3422.4854L13438.2278,-3422.226"/>
<path content="AP030,1,28,1,0,14,1,8,JPN" xlink:title="AP030" d="M13438.7192,-3422.5864L13438.8306,-3422.4602L13438.9496,-3422.4068L13439.0793,-3422.3331L13439.1098,-3422.3202L13439.2197,-3422.3202L13439.74,-3422.4266L13439.9002,-3422.44L13439.9506,-3422.4266L13439.9902,-3422.4266L13440.1993,-3422.3866L13440.6296,-3422.2065L13440.95,-3422.0467L13441.04,-3422.0135"/>
<path content="AP030,1,28,1,0,15,1,8,JPN" xlink:title="AP030" d="M13475.7904,-3427.0401L13475.7943,-3426.6625L13475.5853,-3426.3898L13475.4509,-3426.1914L13475.1673,-3424.9393L13474.9284,-3424.2326L13474.4507,-3423.3524L13473.7043,-3422.2366L13473.137,-3421.7036"/>
<path content="AP030,1,28,1,0,15,1,8,JPN" xlink:title="AP030" d="M13472.3602,-3425.6531L13472.2595,-3424.6449L13472.3607,-3424.2078L13472.2412,-3423.9847L13472.0215,-3423.6553L13471.8979,-3423.4392L13471.7785,-3422.7449L13471.7337,-3422.3854L13471.8083,-3422.1871L13471.9725,-3422.1375L13472.3756,-3422.0755L13472.7936,-3421.9267L13473.137,-3421.7036"/>
<path content="AP030,1,28,1,0,15,1,8,JPN" xlink:title="AP030" d="M13455.9906,-3421.4333L13456.8024,-3421.7007L13457.4875,-3421.8605L13457.5607,-3422.1809L13457.3898,-3422.5613L13457.2678,-3422.8413L13457.341,-3423.0614L13457.4387,-3423.2616L13457.756,-3423.4818L13458.4412,-3423.5218L13459.0027,-3423.4417L13459.5413,-3423.4619L13459.9319,-3423.822L13460.3485,-3424.3027L13460.6903,-3424.4026L13461.0336,-3424.2825L13461.351,-3424.0623L13461.4731,-3423.782L13461.4243,-3423.5218L13461.4243,-3423.2819L13461.8393,-3423.0015L13462.3535,-3422.9015L13463.2202,-3422.86"/>
<path content="AP030,1,28,1,0,14,1,8,JPN" xlink:title="AP030" d="M13448.1796,-3421.3264L13448.2407,-3421.4134L13448.3093,-3421.6133L13448.4299,-3421.74L13448.5794,-3421.7934L13448.6801,-3421.8334L13448.9304,-3421.9002L13449.2905,-3422.1733L13449.5193,-3422.3202L13449.6094,-3422.3534L13449.9298,-3422.3732L13450.2899,-3422.3866L13450.7004,-3422.4998L13451.1093,-3422.5132L13451.7395,-3422.4998L13452.1103,-3422.48L13452.3804,-3422.4266L13452.5604,-3422.4266L13453.1296,-3422.5864L13453.2196,-3422.6067L13453.36,-3422.5533L13453.6804,-3422.5132L13454.1107,-3422.5132L13454.1794,-3422.48L13454.2892,-3422.3866L13454.3304,-3422.3534L13454.4693,-3422.3202L13454.6997,-3422.2801L13455.0797,-3422.2466L13455.3101,-3422.1733L13455.6793,-3422.1001L13455.8594,-3422.0665L13455.9296,-3421.9933L13455.9296,-3421.6133L13455.9296,-3421.5065L13455.9906,-3421.4333"/>
<path content="AP030,1,28,1,0,15,1,8,JPN" xlink:title="AP030" d="M13441.04,-3422.0135L13440.9531,-3421.8338L13440.4968,-3420.8897"/>
<path content="AP030,1,28,1,0,16,1,8,JPN" xlink:title="AP030" d="M13438.2278,-3422.226L13438.8885,-3421.5092L13440.4968,-3420.8897"/>
<path content="AP030,1,28,1,0,15,1,8,JPN" xlink:title="AP030" d="M13433.0399,-3420.8199L13434.1721,-3421.0705L13436.3724,-3421.4027L13437.6556,-3421.806L13438.2278,-3422.226"/>
<path content="AP030,1,28,1,0,14,1,8,JPN" xlink:title="AP030" d="M13434.7214,-3423.4669L13434.3597,-3422.8733L13434.0195,-3422.62L13433.9493,-3422.5533L13433.9005,-3422.0665L13433.7906,-3421.9532L13433.4,-3421.8334L13433.2703,-3421.7602L13433.2001,-3421.3467L13433.11,-3421.22L13433.0597,-3420.9667L13433.0399,-3420.8199"/>
<path content="AP030,1,28,1,0,14,1,8,JPN" xlink:title="AP030" d="M13441.04,-3422.0135L13441.3605,-3421.8468L13441.5802,-3421.74L13441.6306,-3421.6866L13441.7007,-3421.6133L13441.9693,-3421.4535L13442.2699,-3421.2734L13442.3798,-3421.22L13442.5797,-3421.0934L13443.0206,-3420.8599L13443.1107,-3420.8199L13443.3807,-3420.6932L13443.6493,-3420.6066L13443.8293,-3420.5666"/>
<path content="AP030,1,28,1,0,14,1,8,JPN" xlink:title="AP030" d="M13443.8293,-3420.5666L13444.1803,-3420.6402L13444.2703,-3420.62L13444.5206,-3420.5666L13444.9707,-3420.4399L13445.1492,-3420.4266L13445.2393,-3420.4067L13445.2896,-3420.4067L13445.3796,-3420.4067L13445.5399,-3420.4399L13445.5795,-3420.4399L13445.8603,-3420.5002L13445.9702,-3420.5334L13446.1807,-3420.6066L13446.5805,-3420.6402L13446.7194,-3420.7333L13447.11,-3420.7466L13447.6303,-3420.9866L13448.1796,-3421.3264"/>
<path content="AP030,1,28,1,0,15,1,8,JPN" xlink:title="AP030" d="M13473.137,-3421.7036L13473.5251,-3421.2696L13473.764,-3421.1333L13474.4059,-3421.2201L13474.6149,-3421.2077L13474.8985,-3421.1953L13475.2419,-3421.1085L13475.4957,-3420.749L13475.8092,-3420.4762L13476.4063,-3420.2531L13476.9348,-3420.1263L13477.3254,-3420.1263L13477.9312,-3420.1618L13478.4515,-3420.1618L13479.0146,-3420.0909L13479.5776,-3420.0909L13480.098,-3420.2682L13481.311,-3421.1548L13482.6096,-3421.899L13483.9096,-3422.7856L13485.2097,-3423.2464L13486.4227,-3423.8495L13488.9786,-3424.984L13489.9734,-3425.3029L13491.0141,-3425.6905L13491.9174,-3426.0262L13493.2236,-3426.5793L13493.7424,-3426.7921L13494.5221,-3426.7921L13494.8257,-3427.005L13494.8257,-3427.3239L13494.5221,-3428.2814L13494.1757,-3428.9196L13494.046,-3429.274L13493.3533,-3429.6288L13492.4438,-3430.267L13492.1402,-3430.8342L13491.8808,-3431.2595L13491.5344,-3431.5079L13491.2308,-3432.1106L13491.0568,-3432.8907L13491.0568,-3433.2451L13488.8584,-3434.6259"/>
<path content="AP030,1,28,1,0,14,1,8,JPN" xlink:title="AP030" d="M13455.9906,-3421.4333L13456.0394,-3421.2868L13456.0394,-3421.22L13456.1493,-3421.04L13456.2897,-3420.8599L13456.3797,-3420.66L13456.5399,-3420.5334L13456.5598,-3420.5132L13456.8604,-3420.2599L13457.2403,-3419.9532"/>
<path content="AP030,1,28,1,0,15,1,8,JPN" xlink:title="AP030" d="M13463.2202,-3422.86L13463.6246,-3422.8012L13462.8174,-3421.5405L13462.5488,-3420.76L13462.207,-3420.0993L13461.9125,-3419.799L13461.6806,-3419.7399"/>
<path content="AP030,1,28,1,0,16,1,8,JPN" xlink:title="AP030" d="M13463.2202,-3422.86L13463.0203,-3422.5666L13462.7396,-3422.2267L13462.6297,-3422.0135L13462.5793,-3421.9002L13462.3795,-3421.3264L13462.3093,-3420.9133L13462.2696,-3420.5868L13462.1796,-3420.4067L13461.9003,-3420.0802L13461.6806,-3419.7399"/>
<path content="AP030,1,28,1,0,14,1,8,JPN" xlink:title="AP030" d="M13429.6875,-3420.2267L13429.9301,-3420.2267L13430.22,-3420.3335L13430.3604,-3420.2065L13430.5603,-3420.1935L13430.7693,-3420.1733L13431.0806,-3420.1534L13431.4301,-3420.4067L13431.6101,-3420.4601L13432.0404,-3420.4399L13432.2906,-3420.3732L13432.4295,-3420.3865L13432.6294,-3420.5334L13432.7393,-3420.6932L13433.0399,-3420.8199"/>
<path content="AP030,1,28,1,0,15,1,8,JPN" xlink:title="AP030" d="M13443.8293,-3420.5666L13443.8004,-3420.3991L13443.7195,-3419.9448L13443.6783,-3419.2158L13443.7592,-3418.9178"/>
<path content="AP030,1,28,1,0,16,1,8,JPN" xlink:title="AP030" d="M13440.4968,-3420.8897L13441.5375,-3420.4884L13442.8055,-3419.6144L13443.7592,-3418.9178"/>
<path content="AP030,1,28,1,0,15,1,8,JPN" xlink:title="AP030" d="M13459.7366,-3418.6981L13460.4462,-3419.479L13460.788,-3419.899L13460.9589,-3419.9593L13461.1557,-3419.8189L13461.6806,-3419.7399"/>
<path content="AP030,1,28,1,0,15,1,8,JPN" xlink:title="AP030" d="M13457.2403,-3419.9532L13457.6096,-3419.939L13457.8293,-3419.899L13458.2703,-3419.5187L13458.905,-3419.0384L13459.7366,-3418.6981"/>
<path content="AP030,1,28,1,0,16,1,8,JPN" xlink:title="AP030" d="M13458.2001,-3418.3865L13459.7366,-3418.6981"/>
<path content="AP030,1,28,1,0,14,1,8,JPN" xlink:title="AP030" d="M13457.2403,-3419.9532L13457.3105,-3419.8334L13457.3807,-3419.5599L13457.4295,-3419.4534L13457.6096,-3419.2333L13457.7393,-3419.0933L13457.93,-3418.8732L13458.0795,-3418.66L13458.2001,-3418.3865"/>
<path content="AP030,1,28,1,0,16,1,8,JPN" xlink:title="AP030" d="M13460.5606,-3418.3865L13460.6094,-3418.4067L13461.0596,-3418.5867L13461.2,-3418.7134L13461.3602,-3419.0735L13461.6806,-3419.7399"/>
<path content="AP030,1,28,1,0,15,1,8,JPN" xlink:title="AP030" d="M13459.7366,-3418.6981L13460.5606,-3418.3865"/>
<path content="AP030,1,28,1,0,14,1,8,JPN" xlink:title="AP030" d="M13461.4502,-3418.6932L13461.5601,-3418.6199L13461.5402,-3418.5333L13461.4502,-3418.4601L13461.0596,-3418.1732"/>
<path content="AP030,1,28,1,0,15,1,8,JPN" xlink:title="AP030" d="M13460.5606,-3418.3865L13461.0596,-3418.1732"/>
<path content="AP030,1,28,1,0,14,1,8,JPN" xlink:title="AP030" d="M13433.0399,-3420.8199L13432.9697,-3420.5002L13432.9895,-3420.2065L13433.0399,-3419.9402L13433.0597,-3419.8666L13433.1802,-3419.6667L13433.3099,-3419.4L13433.3801,-3419.2001L13433.4305,-3419.1666L13433.6105,-3418.9865L13433.6105,-3418.9266L13433.6105,-3418.6066L13433.5602,-3418.5135L13433.1497,-3418.2465L13432.9697,-3418.1198L13432.9498,-3418.0668L13432.9697,-3418.0134"/>
<path content="AP030,1,28,1,0,14,1,8,JPN" xlink:title="AP030" d="M13458.2001,-3418.3865L13458.2901,-3418.1534L13458.2397,-3417.8131L13458.1802,-3417.54"/>
<path content="AP030,1,28,1,0,16,1,8,JPN" xlink:title="AP030" d="M13458.1802,-3417.54L13458.2001,-3418.3865"/>
<path content="AP030,1,28,1,0,16,1,8,JPN" xlink:title="AP030" d="M13458.0963,-3417.3542L13458.5602,-3417.4866L13459.1507,-3417.6533L13460.0204,-3418.1732L13460.2905,-3418.28L13460.5606,-3418.3865"/>
<path content="AP030,1,28,1,0,14,1,8,JPN" xlink:title="AP030" d="M13458.1802,-3417.54L13458.0963,-3417.3542"/>
<path content="AP030,1,28,1,0,16,1,8,JPN" xlink:title="AP030" d="M13457.5195,-3417.1665L13457.93,-3417.3065L13458.0963,-3417.3542"/>
<path content="AP030,1,28,1,0,14,1,8,JPN" xlink:title="AP030" d="M13460.3806,-3416.9868L13460.6995,-3417.1467L13460.7895,-3417.2333L13460.8307,-3417.3801L13460.8307,-3417.4133L13460.8597,-3417.6132L13460.8994,-3417.9531L13460.9695,-3418.1L13461.0596,-3418.1732"/>
<path content="AP030,1,28,1,0,16,1,8,JPN" xlink:title="AP030" d="M13454.0695,-3416.9296L13455.9006,-3417.1803L13457.5195,-3417.1665"/>
<path content="AP030,1,28,1,0,15,1,8,JPN" xlink:title="AP030" d="M13455.9906,-3421.4333L13455.3299,-3420.7886L13455.3024,-3420.0333L13455.2109,-3418.9922L13454.7974,-3418.0988L13454.1382,-3417.4519L13454.0695,-3416.9296"/>
<path content="AP030,1,28,1,0,15,1,8,JPN" xlink:title="AP030" d="M13456.16,-3416.6267L13457.5195,-3417.1665"/>
<path content="AP030,1,28,1,0,16,1,8,JPN" xlink:title="AP030" d="M13449.8749,-3416.5009L13450.415,-3416.5295L13453.5904,-3416.864L13454.0695,-3416.9296"/>
<path content="AP030,1,28,1,0,15,1,8,JPN" xlink:title="AP030" d="M13448.1796,-3421.3264L13447.7188,-3420.2198L13447.5021,-3419.3604L13447.8302,-3418.412L13448.0545,-3418.071L13449.6262,-3417.5423L13449.942,-3417.1116L13449.8749,-3416.5009"/>
<path content="AP030,1,28,1,0,14,1,4,JPN" xlink:title="AP030" d="M13432.9697,-3418.0134L13433.0597,-3417.6666L13433.2703,-3417.0532L13433.4702,-3416.5001"/>
<path content="AP030,1,28,1,0,15,1,8,JPN" xlink:title="AP030" d="M13457.9819,-3416.3895L13458.8516,-3416.9697L13459.8236,-3417.2329L13460.3806,-3416.9868"/>
<path content="AP030,1,28,1,0,14,1,8,JPN" xlink:title="AP030" d="M13458.0963,-3417.3542L13458.0597,-3417.2733L13458.02,-3417.1799L13457.9895,-3417.0933L13457.9895,-3417.0734L13457.93,-3416.9998L13457.9453,-3416.7877L13457.9498,-3416.7332L13457.9819,-3416.3895"/>
<path content="AP030,1,28,1,0,15,1,8,JPN" xlink:title="AP030" d="M13456.0752,-3416.1628L13457.9819,-3416.3891"/>
<path content="AP030,1,28,1,0,15,1,8,JPN" xlink:title="AP030" d="M13456.16,-3416.6267L13456.0837,-3416.2098L13456.0752,-3416.1628"/>
<path content="AP030,1,28,1,0,15,1,8,JPN" xlink:title="AP030" d="M13443.7592,-3418.9178L13444.165,-3418.6527L13444.7662,-3418.499L13444.812,-3418.4872L13445.2164,-3418.4872L13445.3384,-3418.288L13445.3384,-3418.0233L13445.4605,-3417.725L13445.8649,-3417.0624L13445.8649,-3416.7641L13445.7733,-3416.5649L13445.7428,-3416.4989L13445.4605,-3415.9691"/>
<path content="AP030,1,28,1,0,16,1,8,JPN" xlink:title="AP030" d="M13443.7592,-3418.9178L13443.9178,-3418.1778L13444.9142,-3416.5131L13445.459,-3415.9691L13445.4605,-3415.9691"/>
<path content="AP030,1,28,1,0,16,1,8,JPN" xlink:title="AP030" d="M13445.4605,-3415.9691L13445.8466,-3415.8501L13446.1746,-3415.749L13447.2183,-3415.6109L13448.9532,-3416.4516L13449.8749,-3416.5009"/>
<path content="AP030,1,28,1,0,15,1,8,JPN" xlink:title="AP030" d="M13451.3702,-3414.5443L13451.8555,-3414.6767L13452.3407,-3414.909L13452.9297,-3415.1821L13454.1626,-3415.7551L13455.3375,-3416.3002L13456.16,-3416.6267"/>
<path content="AP030,1,28,1,0,15,1,8,JPN" xlink:title="AP030" d="M13446.1243,-3414.2345L13448.4955,-3415.2733L13449.4675,-3415.6376L13449.8718,-3415.7372L13450.3174,-3415.5052L13450.3372,-3415.48L13450.7629,-3414.9418L13450.9644,-3414.6767L13451.3702,-3414.5443"/>
<path content="AP030,1,28,1,0,15,1,8,JPN" xlink:title="AP030" d="M13445.6223,-3414.0141L13446.1243,-3414.2345"/>
<path content="AP030,1,28,1,0,15,1,8,JPN" xlink:title="AP030" d="M13445.4605,-3415.9691L13445.2972,-3415.3065L13445.4193,-3414.5443L13445.6223,-3414.0141"/>
<path content="AP030,1,28,1,0,15,1,8,JPN" xlink:title="AP030" d="M13445.0806,-3413.8466L13445.6223,-3414.0141"/>
<path content="AP030,1,28,1,0,15,1,8,JPN" xlink:title="AP030" d="M13445.0806,-3413.8466L13444.165,-3413.7821L13443.4357,-3413.5174L13443.4357,-3413.517"/>
<path content="AP030,1,28,1,0,15,1,8,JPN" xlink:title="AP030" d="M13451.3702,-3414.5443L13451.7029,-3413.3659"/>
<path content="AP030,1,28,1,0,14,1,8,JPN" xlink:title="AP030" d="M13457.4005,-3413.3068L13457.8293,-3413.3266L13458.0795,-3413.3266L13458.5205,-3413.5399L13458.9294,-3413.8332L13459.1507,-3414.0266L13459.2896,-3414.1933L13459.3094,-3414.4402L13459.3307,-3414.5535L13459.2896,-3415.2199L13459.2896,-3415.2332L13459.2407,-3416.0465L13459.3597,-3416.1732L13459.61,-3416.3734L13459.9304,-3416.6401L13459.9503,-3416.6599L13460.2005,-3416.8732L13460.3806,-3416.9868"/>
<path content="AP030,1,28,1,0,14,1,8,JPN" xlink:title="AP030" d="M13457.9819,-3416.3895L13457.9819,-3416.3891"/>
<path content="AP030,1,28,1,0,16,1,8,JPN" xlink:title="AP030" d="M13439.2197,-3413.1466L13440.0192,-3413.7733L13440.2695,-3413.8866L13440.4495,-3413.94L13441.1301,-3414.0133L13441.4001,-3414.0266L13442.1494,-3414.2601L13442.6102,-3414.3867L13442.9703,-3414.4066L13443.4494,-3414.3734L13444.0598,-3414.2601L13444.5206,-3414.1201L13445.0806,-3413.8466"/>
<path content="AP030,1,28,1,0,15,1,8,JPN" xlink:title="AP030" d="M13440.4968,-3420.8897L13440.1245,-3420.1199L13439.6912,-3418.6707L13438.7604,-3416.1026L13438.5712,-3414.7881L13439.2197,-3413.1466"/>
<path content="AP030,1,28,1,0,15,1,8,JPN" xlink:title="AP030" d="M13447.3007,-3412.767L13448.32,-3413.1626L13449.5758,-3413.7711L13450.8453,-3413.4853L13451.7029,-3413.3659"/>
<path content="AP030,1,28,1,0,15,1,8,JPN" xlink:title="AP030" d="M13446.1243,-3414.2345L13447.3007,-3412.767"/>
<path content="AP030,1,28,1,0,15,1,8,JPN" xlink:title="AP030" d="M13455.629,-3412.6431L13457.4005,-3413.3068"/>
<path content="AP030,1,28,1,0,15,1,8,JPN" xlink:title="AP030" d="M13456.0752,-3416.1628L13455.9982,-3415.7364L13455.4779,-3412.9059L13455.629,-3412.6431"/>
<path content="AP030,1,28,1,0,15,1,8,JPN" xlink:title="AP030" d="M13446.4905,-3412.6068L13447.3007,-3412.767"/>
<path content="AP030,1,28,1,0,16,1,8,JPN" xlink:title="AP030" d="M13445.0806,-3413.8466L13445.6802,-3413.3999L13446.0602,-3412.9868L13446.4905,-3412.6068"/>
<path content="AP030,1,28,1,0,14,1,8,JPN" xlink:title="AP030" d="M13433.4702,-3416.5001L13433.5602,-3416.46L13433.9005,-3416.5668L13434.2896,-3416.6065L13434.4498,-3416.5531L13434.6802,-3416.46L13434.9304,-3416.3734L13435.2203,-3416.32L13435.4004,-3416.1533L13435.4507,-3416.0133L13435.2905,-3415.8333L13435.2707,-3415.7066L13435.2707,-3415.5067L13435.2905,-3415.3599L13435.2402,-3415.2733L13435.1807,-3415.1669L13435.2005,-3414.9132L13435.2707,-3414.7469L13435.3302,-3414.6801L13435.3302,-3414.6069L13435.2707,-3414.4402L13435.2203,-3414.3532L13435.08,-3414.0999L13435.1105,-3414.0133L13435.1501,-3413.8332L13435.1105,-3413.4335L13435.1105,-3413.3266L13434.9899,-3413.2332L13435.0204,-3412.9665L13435.1105,-3412.8601L13435.2707,-3412.7666L13435.4004,-3412.6598L13435.6094,-3412.5332"/>
<path content="AP030,1,28,1,0,15,1,8,JPN" xlink:title="AP030" d="M13440.4816,-3412.5233L13440.8859,-3412.9539L13441.6138,-3413.2191L13442.2623,-3413.3183L13442.7887,-3413.3183L13443.4357,-3413.517"/>
<path content="AP030,1,28,1,0,15,1,8,JPN" xlink:title="AP030" d="M13439.2197,-3413.1466L13440.4816,-3412.5233"/>
<path content="AP030,1,28,1,0,15,1,8,JPN" xlink:title="AP030" d="M13455.1163,-3412.4512L13455.629,-3412.6431"/>
<path content="AP030,1,28,1,0,15,1,8,JPN" xlink:title="AP030" d="M13451.7029,-3413.3659L13452.7786,-3413.0615L13453.035,-3412.989L13453.8803,-3412.6804L13455.1163,-3412.4512"/>
<path content="AP030,1,28,1,0,15,1,8,JPN" xlink:title="AP030" d="M13435.6094,-3412.5332L13436.1909,-3412.195"/>
<path content="AP030,1,28,1,0,16,1,8,JPN" xlink:title="AP030" d="M13436.1909,-3412.195L13436.2396,-3412.1933L13437.3596,-3412.1735L13437.7899,-3412.2467L13438.06,-3412.3199L13438.4003,-3412.5134L13439.2197,-3413.1466"/>
<path content="AP030,1,28,1,0,16,1,8,JPN" xlink:title="AP030" d="M13435.3607,-3412.0468L13435.8597,-3412.2066L13436.1909,-3412.195"/>
<path content="AP030,1,28,1,0,14,1,8,JPN" xlink:title="AP030" d="M13435.6094,-3412.5332L13435.4004,-3412.2799L13435.3607,-3412.0468"/>
<path content="AP030,1,28,1,0,15,1,8,JPN" xlink:title="AP030" d="M13443.4357,-3411.9961L13446.4905,-3412.6068"/>
<path content="AP030,1,28,1,0,15,1,8,JPN" xlink:title="AP030" d="M13443.4357,-3413.517L13443.4357,-3411.9961"/>
<path content="AP030,1,28,1,0,15,1,8,JPN" xlink:title="AP030" d="M13447.3007,-3412.767L13447.583,-3412.4451L13448.4329,-3411.9049"/>
<path content="AP030,1,28,1,0,15,1,8,JPN" xlink:title="AP030" d="M13442.955,-3411.8999L13443.4357,-3411.9961"/>
<path content="AP030,1,28,1,0,15,1,8,JPN" xlink:title="AP030" d="M13448.4329,-3411.9049L13448.8602,-3411.6333"/>
<path content="AP030,1,28,1,0,16,1,8,JPN" xlink:title="AP030" d="M13446.4905,-3412.6068L13447.02,-3412.1735L13447.29,-3412.0266L13447.7203,-3411.8668L13448.3597,-3411.6531L13448.8602,-3411.6333"/>
<path content="AP030,1,28,1,0,15,1,8,JPN" xlink:title="AP030" d="M13455.1163,-3412.4512L13455.3131,-3411.5997"/>
<path content="AP030,1,28,1,0,15,1,8,JPN" xlink:title="AP030" d="M13448.4329,-3411.9049L13452.5192,-3411.8916L13453.0334,-3411.8374L13455.2856,-3411.6001L13455.3131,-3411.5997"/>
<path content="AP030,1,28,1,0,14,1,8,JPN" xlink:title="AP030" d="M13457.4005,-3413.3068L13457.3593,-3413.0531L13457.3303,-3412.7998L13457.3593,-3412.6598L13457.4295,-3412.5L13457.5806,-3412.3199L13457.6096,-3412.2799L13457.7393,-3412.1532L13457.8094,-3411.9534L13457.7698,-3411.5601"/>
<path content="AP030,1,28,1,0,15,1,8,JPN" xlink:title="AP030" d="M13455.3131,-3411.5997L13457.7698,-3411.5601"/>
<path content="AP030,1,28,1,0,15,1,8,JPN" xlink:title="AP030" d="M13439.7193,-3411.5248L13439.9551,-3411.7943L13440.4816,-3412.5233"/>
<path content="AP030,1,28,1,0,16,1,8,JPN" xlink:title="AP030" d="M13448.8602,-3411.6333L13449.1501,-3411.5932L13449.4904,-3411.5067"/>
<path content="AP030,1,28,1,0,15,1,8,JPN" xlink:title="AP030" d="M13436.1909,-3412.195L13436.92,-3411.771L13437.06,-3411.705L13437.33,-3411.607L13437.59,-3411.52L13437.84,-3411.486L13438.26,-3411.457L13438.72,-3411.452L13439.7193,-3411.5248"/>
<path content="AP030,1,28,1,0,15,1,8,JPN" xlink:title="AP030" d="M13439.5493,-3411.3304L13439.7193,-3411.5248"/>
<path content="AP030,1,28,1,0,15,1,8,JPN" xlink:title="AP030" d="M13439.5493,-3411.3304L13441.7282,-3411.2576L13442.955,-3411.8999"/>
<path content="AP030,1,28,1,0,15,1,8,JPN" xlink:title="AP030" d="M13455.3131,-3411.5997L13455.3802,-3411.3075L13455.7205,-3410.4599"/>
<path content="AP030,1,28,1,0,16,1,8,JPN" xlink:title="AP030" d="M13449.4904,-3411.5067L13450.3601,-3411.3266L13450.7706,-3411.2534L13451.2405,-3411.1465L13451.6998,-3410.9867L13451.9501,-3410.9467L13452.5406,-3410.9467L13452.6993,-3410.9467L13453.1494,-3410.9467L13453.45,-3410.9135L13453.9505,-3410.7334L13454.2694,-3410.6602L13454.7897,-3410.64L13455.1102,-3410.6068L13455.2704,-3410.5865L13455.7205,-3410.4599"/>
<path content="AP030,1,28,1,0,15,1,8,JPN" xlink:title="AP030" d="M13449.4904,-3411.5067L13449.9364,-3410.4579"/>
<path content="AP030,1,28,1,0,16,1,8,JPN" xlink:title="AP030" d="M13429.6875,-3410.512L13429.7195,-3410.5L13429.9896,-3410.3733L13430.3604,-3410.3733L13430.5206,-3410.4069L13430.7205,-3410.4401L13430.9906,-3410.5534L13431.2393,-3410.68L13431.4697,-3410.82L13431.6101,-3410.9268L13431.7398,-3410.9867L13431.9305,-3411.1267L13432.1304,-3411.2534L13432.1503,-3411.2732L13432.3593,-3411.4334L13432.4493,-3411.4868L13432.7698,-3411.7199L13433.0399,-3411.8134L13433.58,-3411.8866L13434.0393,-3411.8999L13434.6497,-3411.94L13435.3607,-3412.0468"/>
<path content="AP030,1,28,1,0,15,1,8,JPN" xlink:title="AP030" d="M13446.7041,-3411.0092L13447.2137,-3410.9661L13447.5754,-3410.7018L13448.5779,-3410.1852L13449.9364,-3410.4579"/>
<path content="AP030,1,28,1,0,15,1,8,JPN" xlink:title="AP030" d="M13443.8675,-3410.0739L13445.192,-3410.2669L13445.7977,-3410.7132L13446.698,-3411.0096L13446.7041,-3411.0092"/>
<path content="AP030,1,28,1,0,15,1,8,JPN" xlink:title="AP030" d="M13442.955,-3411.8999L13443.7805,-3410.6705L13443.8675,-3410.0739"/>
<path content="AP030,1,28,1,0,14,1,8,JPN" xlink:title="AP030" d="M13457.7698,-3411.5601L13457.7393,-3411.4132L13457.6096,-3410.7666L13457.6096,-3410.7468L13457.5394,-3410.5L13457.4493,-3410.1734L13457.3807,-3409.9934"/>
<path content="AP030,1,28,1,0,16,1,8,JPN" xlink:title="AP030" d="M13455.7205,-3410.4599L13456.1493,-3410.3001L13456.5796,-3410.12L13456.9,-3410.0132L13457.3807,-3409.9934"/>
<path content="AP030,1,28,1,0,15,1,8,JPN" xlink:title="AP030" d="M13434.4498,-3409.9201L13435.1776,-3410.0052L13435.5835,-3410.0716L13436.5952,-3410.2039L13437.8098,-3410.4691L13438.942,-3410.9661L13439.5493,-3411.3304"/>
<path content="AP030,1,28,1,0,14,1,8,JPN" xlink:title="AP030" d="M13435.3607,-3412.0468L13435.2905,-3411.7733L13435.2905,-3411.7599L13435.2203,-3411.4868L13434.9304,-3411.1069L13434.7702,-3410.68L13434.5596,-3410.3199L13434.52,-3410.1734L13434.4498,-3409.9201"/>
<path content="AP030,1,28,1,0,15,1,8,JPN" xlink:title="AP030" d="M13434.3994,-3409.5268L13439.4547,-3410.0128L13442.0853,-3410.4275L13442.4927,-3409.8732L13443.8675,-3410.0739"/>
<path content="AP030,1,28,1,0,14,1,8,JPN" xlink:title="AP030" d="M13434.4498,-3409.9201L13434.3994,-3409.56L13434.3994,-3409.5268"/>
<path content="AP030,1,28,1,0,15,1,8,JPN" xlink:title="AP030" d="M13455.7205,-3410.4599L13455.7663,-3409.6645L13455.6122,-3409.0958L13455.5573,-3408.8356"/>
<path content="AP030,1,28,1,0,15,1,8,JPN" xlink:title="AP030" d="M13450.8408,-3408.7917L13451.4801,-3408.9821L13452.2903,-3409.1957L13452.6505,-3409.2716L13452.9327,-3409.3307L13453.3035,-3409.3533L13453.7186,-3409.317L13455.2673,-3408.9375L13455.5573,-3408.8356"/>
<path content="AP030,1,28,1,0,15,1,8,JPN" xlink:title="AP030" d="M13449.9364,-3410.4579L13450.5157,-3409.0958L13450.8408,-3408.7917"/>
<path content="AP030,1,28,1,0,15,1,8,JPN" xlink:title="AP030" d="M13429.6875,-3408.9259L13429.9164,-3408.6136"/>
<path content="AP030,1,28,1,0,15,1,8,JPN" xlink:title="AP030" d="M13429.9164,-3408.6136L13430.6046,-3408.6136L13431.6162,-3408.5804L13431.9,-3408.6136L13432.3853,-3408.8787L13433.4778,-3409.4418L13434.4498,-3409.9201"/>
<path content="AP030,1,28,1,0,14,1,8,JPN" xlink:title="AP030" d="M13457.3807,-3409.9934L13457.3303,-3409.8133L13457.1793,-3409.5268L13457.1503,-3409.5066L13456.9,-3409.1469L13456.4847,-3408.5104"/>
<path content="AP030,1,28,1,0,15,1,8,JPN" xlink:title="AP030" d="M13455.5573,-3408.8356L13456.4847,-3408.5104"/>
<path content="AP030,1,28,1,0,15,1,8,JPN" xlink:title="AP030" d="M13455.5573,-3408.8356L13455.4428,-3408.292"/>
<path content="AP030,1,28,1,0,15,1,8,JPN" xlink:title="AP030" d="M13443.8675,-3410.0739L13444.0887,-3408.5636L13443.8766,-3408.1478"/>
<path content="AP030,1,28,1,0,15,1,8,JPN" xlink:title="AP030" d="M13451.5976,-3408.0849L13453.1418,-3408.3378L13453.1937,-3408.3366L13455.4428,-3408.292"/>
<path content="AP030,1,28,1,0,15,1,8,JPN" xlink:title="AP030" d="M13450.8408,-3408.7917L13451.5976,-3408.0849"/>
<path content="AP030,1,28,1,0,15,1,8,JPN" xlink:title="AP030" d="M13435.0601,-3407.7068L13437.2375,-3407.9582L13440.6342,-3408.1478L13443.8766,-3408.1478"/>
<path content="AP030,1,28,1,0,14,1,8,JPN" xlink:title="AP030" d="M13434.3994,-3409.5268L13434.3307,-3409.1667L13434.3796,-3408.9867L13434.3994,-3408.9668L13434.7,-3408.3534L13434.7702,-3408.1532L13434.8099,-3408.0666L13434.8297,-3408.0467L13435.0601,-3407.7068"/>
<path content="AP030,1,28,1,0,15,1,8,JPN" xlink:title="AP030" d="M13451.5976,-3408.0849L13451.5808,-3407.885L13451.5594,-3407.6534"/>
<path content="AP030,1,28,1,0,15,1,8,JPN" xlink:title="AP030" d="M13448.4314,-3407.6424L13450.2075,-3407.8953L13451.5976,-3408.0849"/>
<path content="AP030,1,28,1,0,15,1,8,JPN" xlink:title="AP030" d="M13446.7041,-3411.0092L13448.4314,-3407.6424"/>
<path content="AP030,1,28,1,0,15,1,8,JPN" xlink:title="AP030" d="M13443.8766,-3408.1478L13445.3445,-3408.1478L13447.3511,-3407.769L13448.4314,-3407.6424"/>
<path content="AP030,1,28,1,0,14,1,8,JPN" xlink:title="AP030" d="M13451.2405,-3407.5066L13451.4893,-3407.6332L13451.5594,-3407.6534"/>
<path content="AP030,1,28,1,0,14,1,8,JPN" xlink:title="AP030" d="M13451.5594,-3407.6534L13452.0599,-3407.7068L13452.1301,-3407.74L13452.7405,-3407.8335L13452.7695,-3407.8335L13453.1799,-3407.8133L13453.2898,-3407.8133L13453.6804,-3407.7599L13453.8101,-3407.74L13453.9505,-3407.7068L13454.1794,-3407.7068L13454.3304,-3407.6866L13454.5197,-3407.6332L13454.6799,-3407.4867L13454.7699,-3407.3799L13454.8996,-3407.2201L13454.95,-3407.1999"/>
<path content="AP030,1,28,1,0,15,1,8,JPN" xlink:title="AP030" d="M13429.6875,-3408.5013L13429.9164,-3408.6136"/>
<path content="AP030,1,28,1,0,14,1,8,JPN" xlink:title="AP030" d="M13450.0198,-3407.1999L13450.1999,-3407.1667L13450.2197,-3407.1667L13450.3296,-3407.1468L13450.47,-3407.1468L13450.7004,-3407.2201L13450.8301,-3407.2735L13451.1795,-3407.4532L13451.2405,-3407.5066"/>
<path content="AP030,1,28,1,0,15,1,8,JPN" xlink:title="AP030" d="M13455.4428,-3408.292L13455.2612,-3407.4333L13455.2002,-3407.1468"/>
<path content="AP030,1,28,1,0,14,1,8,JPN" xlink:title="AP030" d="M13454.95,-3407.1999L13455.0201,-3407.1667L13455.1498,-3407.1468L13455.2002,-3407.1468"/>
<path content="AP030,1,28,1,0,14,1,8,JPN" xlink:title="AP030" d="M13456.4847,-3408.5104L13456.4301,-3408.4267L13456.3599,-3408.3L13456.1096,-3408.1532L13456.0806,-3408.12L13456.0394,-3408.0666L13455.9296,-3407.8869L13455.8594,-3407.7068L13455.8594,-3407.3269L13455.8105,-3407.1266"/>
<path content="AP030,1,28,1,0,14,1,8,JPN" xlink:title="AP030" d="M13455.2002,-3407.1468L13455.2902,-3407.1266L13455.5222,-3407.1266L13455.6305,-3407.1266L13455.8105,-3407.1266"/>
<path content="AP030,1,28,1,0,14,1,8,JPN" xlink:title="AP030" d="M13446.9086,-3406.992L13447.2397,-3407.0202L13447.8104,-3407.0934L13447.9904,-3407.0934L13448.1995,-3407.1266L13448.2193,-3407.1266L13448.5397,-3407.1468L13449.0204,-3407.1999L13449.2004,-3407.2201L13449.6094,-3407.2735L13449.7406,-3407.2735L13450.0198,-3407.1999"/>
<path content="AP030,1,28,1,0,14,1,8,JPN" xlink:title="AP030" d="M13435.0601,-3407.7068L13435.08,-3407.5066L13435.0616,-3407.4001L13435.0204,-3407.1468L13435.0204,-3407.0934L13434.9503,-3406.7867"/>
<path content="AP030,1,28,1,0,14,1,8,JPN" xlink:title="AP030" d="M13434.9503,-3406.7867L13435.08,-3406.7867L13435.4004,-3406.7867L13435.7697,-3406.7867"/>
<path content="AP030,1,28,1,0,15,1,8,JPN" xlink:title="AP030" d="M13443.8766,-3408.1478L13443.9819,-3406.8188L13443.9896,-3406.7135"/>
<path content="AP030,1,28,1,0,14,1,8,JPN" xlink:title="AP030" d="M13443.9896,-3406.7135L13444.1101,-3406.7135L13444.22,-3406.7135L13444.3298,-3406.7135L13444.4,-3406.7135L13444.5206,-3406.7333L13444.8303,-3406.8401L13445.1294,-3406.86L13445.61,-3406.9134L13445.8603,-3406.9466L13446.0205,-3406.9466L13446.6095,-3406.9668L13446.9086,-3406.992"/>
<path content="AP030,1,28,1,0,16,1,8,JPN" xlink:title="AP030" d="M13453.1494,-3406.6799L13453.27,-3406.6799L13453.4302,-3406.7135L13453.5202,-3406.7333L13453.6499,-3406.7333"/>
<path content="AP030,1,28,1,0,15,1,8,JPN" xlink:title="AP030" d="M13451.2405,-3407.5066L13451.2695,-3407.3467L13451.2894,-3407.2735L13451.2695,-3407.1266L13451.3596,-3407.0732L13451.3107,-3406.9866L13451.1795,-3406.9466L13451.1795,-3406.8932L13451.3794,-3406.86L13451.3596,-3406.7135L13451.2894,-3406.6601L13451.3992,-3406.6601L13451.5198,-3406.6601L13451.6296,-3406.6067L13451.68,-3406.6067L13451.7899,-3406.7135L13451.8295,-3406.6601L13451.9302,-3406.6067L13451.9699,-3406.5334L13452.0203,-3406.5334L13452.1103,-3406.5868L13452.1805,-3406.5868L13452.24,-3406.6799L13452.4307,-3406.6601L13452.6093,-3406.7135L13452.6505,-3406.6399L13452.7206,-3406.5334L13452.7893,-3406.5334L13452.8595,-3406.6601L13453.0396,-3406.7665L13453.1097,-3406.7665L13453.1494,-3406.6799"/>
<path content="AP030,1,28,1,0,15,1,8,JPN" xlink:title="AP030" d="M13429.9164,-3408.6136L13430.5206,-3407.5794L13431.3705,-3407.0736L13431.9901,-3406.48"/>
<path content="AP030,1,28,1,0,14,1,8,JPN" xlink:title="AP030" d="M13431.9901,-3406.48L13432.1106,-3406.48L13432.3898,-3406.48L13432.4707,-3406.48L13432.4905,-3406.48"/>
<path content="AP030,1,28,1,0,14,1,8,JPN" xlink:title="AP030" d="M13432.4905,-3406.48L13432.5806,-3406.4598L13432.7393,-3406.4999L13432.9895,-3406.6601L13433.1299,-3406.7665L13433.3801,-3406.9134L13433.5403,-3406.9134L13433.7204,-3406.9134L13433.7906,-3406.9134L13434.0195,-3406.86L13434.5795,-3406.8199L13434.9503,-3406.7867"/>
<path content="AP030,1,28,1,0,14,1,8,JPN" xlink:title="AP030" d="M13435.7697,-3406.7867L13435.7895,-3406.7867L13436.3098,-3406.9134L13436.6104,-3406.9668L13436.9293,-3407.04L13437.4496,-3407.0202L13437.7701,-3407.0202L13438.3804,-3407.1667L13438.8992,-3407.3067L13439.1296,-3407.3067L13439.2899,-3407.2735L13439.5401,-3407.1999L13439.9902,-3407.0934L13440.1993,-3407.0202L13440.7394,-3406.9134L13441.3803,-3406.7333L13441.7206,-3406.6601L13441.8304,-3406.6067L13442.3294,-3406.6067L13442.4301,-3406.6067L13442.72,-3406.48L13442.8802,-3406.4266L13443.1793,-3406.3732L13443.3594,-3406.4068L13443.7698,-3406.6067L13443.7897,-3406.6067L13443.9896,-3406.7135"/>
<path content="AP030,1,28,1,0,14,1,8,JPN" xlink:title="AP030" d="M13455.8105,-3407.1266L13455.7907,-3406.9668L13455.7907,-3406.86L13455.7404,-3406.5334L13455.7404,-3406.48L13455.7205,-3406.3"/>
<path content="AP030,1,28,1,0,16,1,8,JPN" xlink:title="AP030" d="M13453.1494,-3406.6799L13453.0594,-3406.6799L13453.0197,-3406.6067L13453.1998,-3406.5334L13453.36,-3406.48L13453.5797,-3406.48L13453.7003,-3406.4266L13454.0207,-3406.4068L13453.9703,-3406.3L13453.9703,-3406.1733L13454.1107,-3406.0467L13454.1504,-3405.9933L13454.1107,-3405.8666L13454.0405,-3405.8132L13454.0207,-3405.8132L13454.0207,-3405.8868L13454.0405,-3405.9933L13453.9902,-3405.9933L13453.8605,-3405.8868"/>
<path content="AP030,1,28,1,0,14,1,8,JPN" xlink:title="AP030" d="M13429.6875,-3406.0157L13429.8599,-3405.9933L13430.1804,-3405.9734L13431.1096,-3405.9399L13431.3995,-3406.0135L13431.8298,-3406.3534L13431.9,-3406.4068L13431.9702,-3406.4598L13431.9901,-3406.48"/>
<path content="AP030,1,28,1,0,14,1,8,JPN" xlink:title="AP030" d="M13453.8605,-3405.5267L13453.9307,-3405.5599L13454.1306,-3405.5801L13454.5593,-3405.5801L13454.6097,-3405.6332L13454.6997,-3405.9933L13454.6997,-3406.3198L13454.6997,-3406.3534L13454.7195,-3406.6601L13454.7195,-3406.7135L13454.6799,-3406.8401L13454.6097,-3407.0202L13454.8096,-3407.0934L13454.95,-3407.1999"/>
<path content="AP030,1,28,1,0,15,1,8,JPN" xlink:title="AP030" d="M13453.8605,-3405.8868L13453.7704,-3405.8132L13453.7704,-3405.6332L13453.8605,-3405.5267"/>
<path content="AP030,1,28,1,0,14,1,8,JPN" xlink:title="AP030" d="M13446.9086,-3406.992L13446.9894,-3406.6185L13447.2031,-3406.1234L13447.5632,-3405.6057L13447.8897,-3405.1781L13448.1033,-3404.9866"/>
<path content="AP030,1,28,1,0,15,1,8,JPN" xlink:title="AP030" d="M13443.9896,-3406.7135L13444.2047,-3405.2559L13443.7683,-3405.146L13442.8619,-3404.8439"/>
<path content="AP030,1,28,1,0,15,1,8,JPN" xlink:title="AP030" d="M13442.8619,-3404.8439L13444.9661,-3403.8177L13446.6446,-3403.7861L13448.5123,-3404.6135L13449.1684,-3406.044L13450.0198,-3407.1999"/>
<path content="AP030,1,28,1,0,15,1,8,JPN" xlink:title="AP030" d="M13429.6875,-3403.4801L13430.3741,-3403.6026L13430.6931,-3403.7292L13430.6274,-3404.0176L13430.8075,-3404.0913L13431.1447,-3404.11L13431.1569,-3404.2473L13430.8746,-3404.4872L13430.9525,-3404.7466L13431.2973,-3404.8203L13431.9061,-3404.744L13432.0297,-3404.8512L13431.9595,-3405.1758L13432.2708,-3405.2563L13432.5165,-3405.3337L13432.5485,-3405.6362L13432.4905,-3406.48"/>
<path content="AP030,1,28,1,0,15,1,8,JPN" xlink:title="AP030" d="M13442.8619,-3404.8439L13442.2913,-3404.6513L13442.1234,-3404.2667L13442.1234,-3403.7174L13441.9891,-3403.3604L13441.4185,-3403.0579L13441.1499,-3403.0853L13440.9485,-3403.2501L13440.5792,-3403.0853L13440.21,-3402.5909L13440.0085,-3401.8764"/>
<path content="AP030,1,28,1,0,14,1,8,JPN" xlink:title="AP030" d="M13455.7205,-3406.3L13455.6793,-3406.1199L13455.6305,-3405.9933L13455.5405,-3405.8132L13455.4703,-3405.6534L13455.2399,-3405.0732L13455.2002,-3404.9465L13455.1498,-3404.6398L13455.13,-3404.2801L13455.13,-3404.2465L13455.1102,-3403.2734L13455.13,-3402.9999L13455.3802,-3402.5131L13455.5603,-3402.1534L13455.6305,-3401.9733L13455.6793,-3401.8131L13455.8594,-3401.6533L13455.9692,-3401.58L13456.1493,-3401.4534L13456.2698,-3401.3599L13456.4499,-3401.1799L13456.5399,-3401.0399L13456.601,-3400.9586L13456.7703,-3400.7332"/>
<path content="AP030,1,28,1,0,15,1,8,JPN" xlink:title="AP030" d="M13440.0085,-3401.8764L13439.3036,-3401.5743L13438.4979,-3401.1898L13437.9944,-3401.2173L13437.7258,-3401.2447L13437.4588,-3401.025L13437.3901,-3400.8598L13437.5244,-3400.5302"/>
<path content="AP030,1,28,1,0,15,1,8,JPN" xlink:title="AP030" d="M13435.7697,-3406.7867L13436.0947,-3405.4325L13436.3739,-3404.2042L13436.0977,-3404.007L13435.8139,-3403.9009L13435.7864,-3403.323L13435.5331,-3403.3092L13435.228,-3401.6243L13435.4019,-3400.7843L13436.554,-3400.9682L13437.5244,-3400.5302"/>
<path content="AP030,1,28,1,0,14,1,8,JPN" xlink:title="AP030" d="M13453.8605,-3405.5267L13453.2196,-3405.0201L13453.1799,-3404.9667L13452.6794,-3404.4601L13452.5192,-3404.3732L13452.4002,-3404.3533L13452.2202,-3404.2267L13451.8295,-3403.92L13451.5594,-3403.7067L13451.3596,-3403.7067L13451.2695,-3403.5599L13451.1795,-3403.4534L13450.9903,-3403.2532L13450.9003,-3402.9133L13450.7706,-3402.8198L13450.47,-3402.6402L13450.2197,-3402.4601L13449.8596,-3402.3731L13449.7406,-3402.3869L13449.3607,-3402.6402L13449.2203,-3402.6798L13449.1501,-3402.6798L13448.9899,-3402.5867L13448.8602,-3402.5867L13448.8602,-3402.4799L13448.8297,-3402.3731L13448.8098,-3402.0466L13448.7701,-3401.9733L13448.5199,-3401.8665L13448.4695,-3401.8333L13448.4497,-3401.7067L13448.3597,-3401.6869L13448.1094,-3401.7399L13447.9507,-3401.7601L13447.9004,-3401.72L13447.8607,-3401.58L13447.7707,-3401.1799L13447.6807,-3401.0735L13447.6807,-3400.9468L13447.4899,-3400.7866L13447.4304,-3400.6802L13447.5204,-3400.3201L13447.5204,-3400.2998"/>
<path content="AP030,1,28,1,0,15,1,8,JPN" xlink:title="AP030" d="M13447.5204,-3400.2998L13448.8907,-3400.2155"/>
<path content="AP030,1,28,1,0,15,1,8,JPN" xlink:title="AP030" d="M13456.015,-3399.9081L13456.7703,-3400.7332"/>
<path content="AP030,1,28,1,0,15,1,8,JPN" xlink:title="AP030" d="M13448.8907,-3400.2155L13449.2981,-3400.0725L13449.6933,-3400.4467L13450.1617,-3400.2361L13450.7355,-3399.7719L13452.1088,-3399.1852L13453.952,-3399.4942L13454.6616,-3399.8146L13456.015,-3399.9081"/>
<path content="AP030,1,28,1,0,15,1,8,JPN" xlink:title="AP030" d="M13440.0085,-3401.8764L13439.6713,-3400.2266L13440.0284,-3399.8516L13439.5798,-3398.9468"/>
<path content="AP030,1,28,1,0,14,1,8,JPN" xlink:title="AP030" d="M13439.5798,-3398.9468L13439.83,-3398.9132L13439.9506,-3398.8598L13440.0406,-3398.7999L13440.1093,-3398.7999L13440.2405,-3398.8197L13440.3595,-3398.7667L13440.4694,-3398.7865L13440.6296,-3398.7133L13440.9897,-3398.7133L13441.1499,-3398.7133L13441.2903,-3398.7133L13441.33,-3398.513L13441.2399,-3398.4264L13441.2399,-3398.3868L13441.2704,-3398.3532L13441.3803,-3398.3334L13441.4703,-3398.28L13441.4703,-3398.1731L13441.5405,-3398.0999L13441.6107,-3398.0667L13441.6794,-3398.0801L13441.7007,-3398.0999L13441.7206,-3398.1731L13441.7404,-3398.2265L13441.8304,-3398.2597L13441.9296,-3398.2998L13441.8594,-3398.3532L13441.7892,-3398.3532L13441.7206,-3398.2998L13441.6794,-3398.28L13441.6107,-3398.28L13441.6107,-3398.2998L13441.6107,-3398.3532L13441.6504,-3398.373L13441.6504,-3398.4066L13441.6504,-3398.513L13441.6794,-3398.5664L13441.7694,-3398.5664L13441.9296,-3398.7133L13442.0197,-3398.7331L13442.1097,-3398.7667L13442.1295,-3398.7999L13442.1997,-3398.8934L13442.2699,-3398.8598L13442.3294,-3398.84L13442.4301,-3398.7999L13442.5201,-3398.8197L13442.5797,-3398.84L13442.5797,-3398.8934L13442.54,-3398.9132L13442.5201,-3398.9468L13442.4896,-3398.9864L13442.5797,-3398.9998L13442.6498,-3398.9666L13442.6804,-3398.9265L13442.7399,-3398.8934L13442.7704,-3398.9132L13442.8101,-3398.9265L13442.8299,-3398.9666L13442.8802,-3398.9864L13442.9504,-3398.9666L13442.9703,-3398.9468L13443.0206,-3398.9468L13443.0603,-3398.9666L13443.0603,-3399.02L13443.0603,-3399.0932L13443.0801,-3399.0932L13443.1107,-3399.1467L13443.1793,-3399.1467L13443.2693,-3399.2332L13443.3304,-3399.2733L13443.7195,-3399.2733L13443.8293,-3399.2332L13443.9697,-3399.1264L13444.0796,-3399.073L13444.1803,-3398.9998L13444.2398,-3398.9998L13444.4305,-3399.0932L13444.5602,-3399.2199L13444.6304,-3399.2867L13444.8303,-3399.3797L13445.1096,-3399.3599L13445.2393,-3399.3465L13445.52,-3399.3465L13445.5597,-3399.3599L13445.6497,-3399.3797L13445.8298,-3399.3999L13445.9305,-3399.3797L13445.99,-3399.3797L13446.0205,-3399.5266L13446.08,-3399.633L13446.1807,-3399.6864L13446.2692,-3399.7066L13446.5393,-3399.8333L13446.6995,-3399.8867L13446.9299,-3399.8867L13447.0398,-3399.9531L13447.11,-3400.0134L13447.3999,-3400.0465L13447.5403,-3400.0797L13447.58,-3400.0999L13447.5403,-3400.2068L13447.5204,-3400.2998"/>
<path content="AP030,1,28,1,0,15,1,8,JPN" xlink:title="AP030" d="M13455.7205,-3406.3L13457.0526,-3405.1205L13457.3364,-3404.3869L13457.2418,-3403.6533L13456.7703,-3402.8812L13456.6757,-3402.1477L13456.723,-3401.6457L13457.0526,-3401.2596L13457.2983,-3401.0639L13458.7036,-3399.9466L13459.2636,-3399.5625L13459.8831,-3399.136L13460.1196,-3398.5565L13460.1196,-3398.4962L13460.1196,-3398.0934L13459.9899,-3397.8466"/>
<path content="AP030,1,28,1,0,14,1,8,JPN" xlink:title="AP030" d="M13456.7703,-3400.7332L13456.7703,-3400.6931L13456.8802,-3400.5333L13456.9504,-3400.4398L13456.9504,-3400.4269L13456.9901,-3400.3868L13457.0602,-3400.3201L13457.3303,-3400.1331L13457.3807,-3400.0999L13457.8293,-3399.7398L13457.8598,-3399.7066L13458.0399,-3399.5266L13458.7204,-3398.9132L13458.7402,-3398.8934L13458.8806,-3398.7331L13459.1507,-3398.3868L13459.1797,-3398.373L13459.2896,-3398.2597L13459.9899,-3397.8466"/>
<path content="AP030,1,28,1,0,15,1,8,JPN" xlink:title="AP030" d="M13463.0325,-3400.5821L13463.4872,-3399.7814L13463.2462,-3399.2271L13462.4832,-3398.481L13461.5509,-3398.4558L13461.0519,-3398.3356L13460.8307,-3397.6665"/>
<path content="AP030,1,28,1,0,14,1,8,JPN" xlink:title="AP030" d="M13459.9899,-3397.8466L13460.2707,-3397.7066L13460.4919,-3397.691L13460.8307,-3397.6665"/>
<path content="AP030,1,28,1,0,14,1,8,JPN" xlink:title="AP030" d="M13460.8307,-3397.6665L13460.9497,-3397.6665L13461.3297,-3397.6334"/>
<path content="AP030,1,28,1,0,14,1,8,JPN" xlink:title="AP030" d="M13436.3297,-3397.2L13436.3998,-3397.2866L13436.6501,-3397.3267L13436.8607,-3397.3465L13436.9507,-3397.3999L13436.9904,-3397.4865L13437.0804,-3397.5266L13437.1307,-3397.6131L13437.2406,-3397.7398L13437.5198,-3397.9401L13437.6099,-3398.0133L13437.7701,-3398.1197L13437.8998,-3398.1197L13437.9303,-3398.1731L13437.9501,-3398.3532L13438.0203,-3398.4066L13438.1302,-3398.4264L13438.2202,-3398.4798L13438.3606,-3398.5332L13438.6093,-3398.6401L13438.8596,-3398.6599L13438.8992,-3398.7133L13438.9496,-3398.7999L13439.5798,-3398.7999L13439.5798,-3398.9468"/>
<path content="AP030,1,28,1,0,15,1,8,JPN" xlink:title="AP030" d="M13437.5244,-3400.5302L13437.3581,-3400.1732L13436.9217,-3399.7063L13436.586,-3399.1016L13436.351,-3399.1291L13436.0825,-3399.2939L13435.9146,-3399.184L13435.7803,-3398.5798L13435.7803,-3397.9477L13436.3297,-3397.2"/>
<path content="AP030,1,28,1,0,14,1,8,JPN" xlink:title="AP030" d="M13461.3297,-3397.6334L13461.6104,-3397.6131L13462.0804,-3397.5933L13462.4298,-3397.5597L13462.7701,-3397.4533L13462.8601,-3397.4133L13463.5193,-3397.2332L13464.2395,-3397.02L13465.1093,-3396.7464L13465.4892,-3396.5668"/>
<path content="AP030,1,28,1,0,14,1,8,JPN" xlink:title="AP030" d="M13429.6875,-3395.7786L13429.7897,-3395.7397L13429.95,-3395.7397L13430.04,-3395.6867L13430.0598,-3395.6665L13430.13,-3395.6867L13430.3101,-3395.8668L13430.3802,-3395.9732L13430.4901,-3395.9732L13430.7007,-3395.9732L13431.1096,-3396.0266L13431.2195,-3396.0464L13431.3797,-3396.0999L13431.5399,-3396.2601L13431.7703,-3396.3734L13432.1106,-3396.4066L13432.3807,-3396.3734L13432.7896,-3396.3867L13432.9895,-3396.4066L13433.4702,-3396.5668L13433.8593,-3396.7133L13433.9905,-3396.7464L13434.1507,-3396.7667L13434.2194,-3396.7865L13434.4299,-3396.8597L13434.6802,-3396.8731L13434.8099,-3396.8731L13434.9899,-3396.8597L13435.4294,-3396.64L13435.5392,-3396.6198L13435.6094,-3396.64L13435.8093,-3396.7331L13435.9695,-3396.7464L13436.2,-3396.9265L13436.2198,-3396.9467L13436.3098,-3396.9997L13436.3297,-3397.2"/>
<path content="AP030,1,28,1,0,14,1,8,JPN" xlink:title="AP030" d="M13461.3297,-3397.6334L13461.3998,-3397.3465L13461.47,-3397.1466L13461.5601,-3397.02L13461.7004,-3396.8597L13461.8805,-3396.5332L13461.8805,-3396.5134L13461.9293,-3396.4066L13461.9705,-3396.32L13462.1994,-3396.2067L13462.1506,-3396.0133L13462.1277,-3395.9156L13462.1094,-3395.8332L13462.3093,-3395.5067"/>
<path content="AP030,1,28,1,0,15,1,8,JPN" xlink:title="AP030" d="M13458.4503,-3394.8078L13458.8058,-3394.8845L13459.3765,-3395.2579L13460.1196,-3396.0052L13460.6323,-3396.5656L13460.7834,-3396.9349L13460.8612,-3397.1264L13460.8307,-3397.6665"/>
<path content="AP030,1,28,1,0,15,1,8,JPN" xlink:title="AP030" d="M13458.4503,-3394.8078L13459.9152,-3394.6491L13460.8536,-3394.5801L13461.4456,-3394.9646L13462.3093,-3395.5067"/>
<path content="AP030,1,28,1,0,15,1,8,JPN" xlink:title="AP030" d="M13455.0247,-3394.5412L13455.0247,-3395.0817L13455.1666,-3395.7767L13455.4962,-3396.0857L13455.8731,-3396.2788L13455.8731,-3396.6263L13455.8273,-3397.1279L13455.5435,-3397.4369L13455.3543,-3397.9004L13455.4016,-3398.634L13456.015,-3399.9081"/>
<path content="AP030,1,28,1,0,15,1,8,JPN" xlink:title="AP030" d="M13457.5516,-3394.4641L13457.7225,-3394.6507L13458.4503,-3394.8078"/>
<path content="AP030,1,28,1,0,15,1,8,JPN" xlink:title="AP030" d="M13455.0247,-3394.5412L13456.189,-3394.9722L13457.225,-3394.7205L13457.5516,-3394.4641"/>
<path content="AP030,1,28,1,0,15,1,8,JPN" xlink:title="AP030" d="M13457.5516,-3393.8568L13457.5516,-3394.1372L13457.5516,-3394.4641"/>
<path content="AP030,1,28,1,0,14,1,8,JPN" xlink:title="AP030" d="M13462.3093,-3395.5067L13462.3306,-3395.4666L13462.5198,-3395.1267L13462.6297,-3395.0001L13462.5595,-3394.8601L13462.3596,-3394.5534L13462.2192,-3394.4065L13462.1506,-3394.2799L13462.1307,-3394.1933L13462.1307,-3394.1334L13462.0804,-3393.7931L13462.0804,-3393.7199"/>
<path content="AP030,1,28,1,0,14,1,8,JPN" xlink:title="AP030" d="M13462.0804,-3393.7199L13462.0804,-3393.6333L13462.1506,-3393.5265L13462.3596,-3393.3468L13462.4496,-3393.3067L13462.5595,-3393.2865L13462.7197,-3393.2331L13462.9898,-3393"/>
<path content="AP030,1,28,1,0,15,1,8,JPN" xlink:title="AP030" d="M13448.8907,-3400.2155L13448.7335,-3399.3122L13447.8622,-3398.8892L13446.1105,-3398.4898L13445.7733,-3398.0946L13446.0251,-3396.2948L13446.1777,-3395.0546L13446.0587,-3394.7655L13446.8231,-3394.7357L13446.376,-3394.3115L13446.5027,-3393.7531L13446.8239,-3392.9035"/>
<path content="AP030,1,28,1,0,15,1,8,JPN" xlink:title="AP030" d="M13462.0804,-3393.7199L13461.8088,-3392.7692"/>
<path content="AP030,1,28,1,0,15,1,8,JPN" xlink:title="AP030" d="M13457.5516,-3393.8568L13458.6258,-3393.3804L13459.6252,-3393.2442L13460.7437,-3393.3968L13461.3358,-3393.0508L13461.8088,-3392.7692"/>
<path content="AP030,1,28,1,0,15,1,8,JPN" xlink:title="AP030" d="M13467.5201,-3392.7666L13468.2922,-3392.9634"/>
<path content="AP030,1,28,1,0,14,1,8,JPN" xlink:title="AP030" d="M13465.4892,-3396.5668L13465.6097,-3396.5134L13465.86,-3396.2997L13466.1499,-3395.9198L13466.5405,-3395.3598L13466.7206,-3395.1466L13466.7892,-3395.0001L13466.8304,-3394.9467L13467.0395,-3394.7468L13467.2699,-3394.5133L13467.3599,-3394.3867L13467.4301,-3394.1532L13467.4301,-3393.9934L13467.45,-3393.38L13467.45,-3393.2865L13467.5201,-3392.7666"/>
<path content="AP030,1,28,1,0,15,1,8,JPN" xlink:title="AP030" d="M13461.8088,-3392.7692L13462.4878,-3392.7574L13462.9898,-3393"/>
<path content="AP030,1,28,1,0,14,1,8,JPN" xlink:title="AP030" d="M13462.9898,-3393L13463.0203,-3392.9867L13463.1302,-3393L13463.3606,-3392.9466L13463.6993,-3392.7467L13464.18,-3392.4267"/>
<path content="AP030,1,28,1,0,15,1,8,JPN" xlink:title="AP030" d="M13446.8239,-3392.9035L13447.7127,-3392.9581L13449.1745,-3392.6491L13450.1663,-3392.4175L13451.4389,-3392.3016L13452.3361,-3392.5331L13453.1372,-3392.8806L13454.5532,-3394.1162L13455.0247,-3394.5412"/>
<path content="AP030,1,28,1,0,15,1,8,JPN" xlink:title="AP030" d="M13465.1093,-3392.281L13466.0782,-3392.3702L13466.2735,-3392.3882L13467.0395,-3392.7105L13467.5201,-3392.7666"/>
<path content="AP030,1,28,1,0,15,1,8,JPN" xlink:title="AP030" d="M13465.4892,-3396.5668L13465.4175,-3395.5238L13465.0406,-3395.269L13464.8239,-3394.7453L13464.682,-3394.4023L13464.6637,-3393.5062L13465.0772,-3392.8917L13465.1093,-3392.281"/>
<path content="AP030,1,28,1,0,15,1,8,JPN" xlink:title="AP030" d="M13454.9835,-3392.0353L13455.4962,-3392.2222L13456.0669,-3392.2222L13456.3522,-3392.0353L13456.6956,-3391.9418L13456.9809,-3391.9888L13457.0374,-3392.1288L13456.8085,-3392.4557L13456.8085,-3392.8761L13457.0938,-3393.3899L13457.5516,-3393.8568"/>
<path content="AP030,1,28,1,0,15,1,8,JPN" xlink:title="AP030" d="M13465.1093,-3392.281L13465.1306,-3391.8865"/>
<path content="AP030,1,28,1,0,14,1,8,JPN" xlink:title="AP030" d="M13464.18,-3392.4267L13464.5203,-3392.1932L13464.5599,-3392.1532L13464.9902,-3391.9201L13465.1306,-3391.8865"/>
<path content="AP030,1,28,1,0,15,1,8,JPN" xlink:title="AP030" d="M13462.1246,-3391.1839L13463.0127,-3391.7717L13463.6383,-3392.1104L13464.18,-3392.4267"/>
<path content="AP030,1,28,1,0,15,1,8,JPN" xlink:title="AP030" d="M13461.8088,-3392.7692L13461.7905,-3392.2501L13462.1246,-3391.1839"/>
<path content="AP030,1,28,1,0,14,1,8,JPN" xlink:title="AP030" d="M13465.1306,-3391.8865L13465.4007,-3391.8133L13465.9698,-3391.6866L13466.1301,-3391.6531L13466.2704,-3391.6332L13466.2842,-3391.6313L13466.4307,-3391.6134L13466.4902,-3391.4867L13466.6306,-3391.3067L13466.7694,-3391.0931L13466.7892,-3390.913L13466.8106,-3390.8199L13466.8106,-3390.5331L13466.8106,-3390.4064L13466.8304,-3390.3198L13466.7892,-3390.1333L13466.7206,-3390.0265"/>
<path content="AP030,1,28,1,0,15,1,8,JPN" xlink:title="AP030" d="M13466.1499,-3389.92L13466.1804,-3390.0799L13466.2399,-3390.0997L13466.4886,-3390.062L13466.7206,-3390.0265"/>
<path content="AP030,1,28,1,0,16,1,8,JPN" xlink:title="AP030" d="M13464.5401,-3389.4665L13464.74,-3389.4131L13464.9704,-3389.5397L13464.9506,-3389.7064L13465.0604,-3389.74L13465.1505,-3389.8132L13465.2405,-3389.8331L13465.4495,-3389.9933L13465.5396,-3390.0131L13465.5807,-3389.9399L13465.4007,-3389.8331L13465.3595,-3389.7064L13465.3595,-3389.6332L13465.5396,-3389.5931L13465.5594,-3389.6866L13465.6097,-3389.793L13465.7196,-3389.8132L13465.9302,-3389.7064L13466.2003,-3389.8464L13466.1499,-3389.92"/>
<path content="AP030,1,28,1,0,14,1,8,JPN" xlink:title="AP030" d="M13467.5201,-3392.7666L13467.717,-3391.2144L13467.5674,-3390.1703L13467.2226,-3389.4928L13466.4017,-3388.744L13466.1301,-3388.612"/>
<path content="AP030,1,28,1,0,15,1,8,JPN" xlink:title="AP030" d="M13462.1246,-3391.1839L13461.8042,-3390.9317L13461.1465,-3390.662L13461.171,-3390.3336L13461.2869,-3389.9155L13460.9741,-3389.1926L13461.1969,-3388.4739L13461.0397,-3387.6331"/>
<path content="AP030,1,28,1,0,14,1,8,JPN" xlink:title="AP030" d="M13460.8093,-3387.5599L13460.9695,-3387.6133L13461.0397,-3387.6331"/>
<path content="AP030,1,28,1,0,14,1,8,JPN" xlink:title="AP030" d="M13461.0397,-3387.6331L13461.2701,-3387.7068L13461.5204,-3387.8132L13461.9293,-3387.973L13462.3093,-3388.1332L13462.4298,-3388.0798L13462.4557,-3387.9784L13462.4695,-3387.92L13462.6801,-3387.7068L13462.8098,-3387.6331L13462.9303,-3387.5931L13463.0798,-3387.5267L13463.3301,-3387.36L13463.3606,-3387.4001L13463.3804,-3387.5267L13463.4293,-3387.5267L13463.6093,-3387.36"/>
<path content="AP030,1,28,1,0,14,1,8,JPN" xlink:title="AP030" d="M13463.6093,-3387.36L13463.7695,-3387.2532L13463.8596,-3387.22L13463.9893,-3387.2532L13464.1098,-3387.2868L13464.1998,-3387.413L13464.4302,-3387.5797L13464.6301,-3387.7068L13464.8605,-3387.833L13464.9902,-3387.9398L13465.1794,-3388.1199L13465.1306,-3388.2065L13465.1306,-3388.4266L13465.1794,-3388.66L13465.1794,-3388.7333L13465.1993,-3388.8599L13465.2695,-3388.8931L13465.6799,-3389.1266L13466.1301,-3389.36L13466.3605,-3389.5065L13466.4307,-3389.5931L13466.4902,-3389.7198L13466.6306,-3389.8865L13466.7206,-3390.0265"/>
<path content="AP030,1,28,1,0,14,1,8,JPN" xlink:title="AP030" d="M13458.11,-3387.2334L13458.1802,-3387.2334L13458.2901,-3387.22L13458.5205,-3387.22L13458.58,-3387.2532L13458.8303,-3387.36L13458.9294,-3387.3798L13459.0805,-3387.3264L13459.1507,-3387.3264L13459.3796,-3387.1799L13459.6802,-3386.9999L13459.7397,-3386.9865L13460.0601,-3386.9999L13460.2203,-3387.0731L13460.4294,-3387.1799L13460.5194,-3387.2868L13460.6293,-3387.4866L13460.7193,-3387.5267L13460.8093,-3387.5599"/>
<path content="AP030,1,28,1,0,15,1,8,JPN" xlink:title="AP030" d="M13454.9835,-3392.0353L13454.7134,-3390.5609L13454.8157,-3389.5771L13454.4617,-3389.04L13454.6082,-3388.6002L13455.4367,-3387.3486L13455.5206,-3386.9667"/>
<path content="AP030,1,28,1,0,14,1,8,JPN" xlink:title="AP030" d="M13455.5206,-3386.9667L13455.9692,-3386.9133L13456.1096,-3386.9465L13456.2195,-3386.9999L13456.3095,-3387.1067L13456.3995,-3387.3066L13456.4697,-3387.4531L13456.5598,-3387.5267L13456.6101,-3387.5267L13456.7001,-3387.4866L13456.7703,-3387.4531L13456.8604,-3387.4664L13456.9901,-3387.5065L13457.0801,-3387.4866L13457.1106,-3387.4531L13457.1793,-3387.1998L13457.2906,-3387.0934L13457.4005,-3387.0731L13457.5195,-3387.0934L13457.7194,-3387.1666L13457.9895,-3387.2334L13458.11,-3387.2334"/>
<path content="AP030,1,28,1,0,14,1,8,JPN" xlink:title="AP030" d="M13463.6093,-3387.36L13463.4506,-3387.2334L13463.3102,-3387.0934L13463.2202,-3386.9865L13463.1805,-3386.8732L13463.1104,-3386.7664L13463.0798,-3386.5334L13463.0203,-3386.3197L13462.7899,-3386.1332L13462.6099,-3385.9932"/>
<path content="AP030,1,28,1,0,15,1,8,JPN" xlink:title="AP030" d="M13429.6875,-3386.2673L13429.834,-3386.2396L13430.2109,-3386.3171L13430.2582,-3386.5101L13430.2582,-3386.7416L13430.4947,-3386.8576L13431.25,-3386.8576L13431.9092,-3386.8961L13432.4753,-3387.3207L13432.9941,-3387.5526L13433.7021,-3387.5912L13434.5047,-3387.3981L13435.2585,-3387.1662L13436.2503,-3387.0892L13436.9568,-3387.0121L13437.9959,-3387.0121L13438.8443,-3387.3981L13439.6744,-3388.6887L13441.0614,-3388.6337L13441.2506,-3388.4407L13441.4383,-3388.1317L13441.6275,-3388.2088L13441.7221,-3388.7108L13441.7694,-3389.3673L13441.9571,-3390.2939L13443.3731,-3391.375L13444.693,-3392.5331L13445.8252,-3392.8421L13446.8239,-3392.9035"/>
<path content="AP030,1,28,1,0,15,1,8,JPN" xlink:title="AP030" d="M13449.1806,-3385.8131L13449.4476,-3387.6915L13449.791,-3388.2053L13450.0763,-3388.6257L13449.9039,-3389.1396L13449.9039,-3389.3265L13450.4745,-3389.4665L13451.3306,-3389.8399L13451.8448,-3390.4942L13452.1866,-3390.9611L13452.4155,-3391.0076L13452.5864,-3390.9611L13452.8152,-3390.5872L13452.9861,-3390.2138L13453.2135,-3390.1203L13453.4424,-3390.2603L13453.6133,-3390.6807L13453.9566,-3391.1945L13454.5273,-3391.428L13454.9835,-3392.0353"/>
<path content="AP030,1,28,1,0,14,1,8,JPN" xlink:title="AP030" d="M13449.1806,-3385.8131L13449.4293,-3385.7731L13449.6994,-3385.7399L13449.8795,-3385.6331L13450.0793,-3385.593L13450.3601,-3385.5801L13450.6805,-3385.593L13451.2894,-3385.54L13451.2894,-3385.5801L13451.3306,-3385.7201L13451.4297,-3385.8131L13451.6296,-3385.92L13451.8097,-3385.92L13452.0401,-3385.7731L13452.1103,-3385.7597L13452.33,-3385.7933L13452.6993,-3385.9531L13453.0197,-3385.9932L13453.1097,-3386.0664L13453.2898,-3386.1732L13453.6499,-3386.3197L13453.7704,-3386.3865L13453.9902,-3386.4799L13454.1504,-3386.4399L13454.2007,-3386.4597L13454.3594,-3386.5665L13454.4907,-3386.5868L13454.7195,-3386.6066L13454.95,-3386.6398L13455.1102,-3386.6932L13455.2704,-3386.8401L13455.4001,-3386.9667L13455.5206,-3386.9667"/>
<path content="AP030,1,28,1,0,15,1,8,JPN" xlink:title="AP030" d="M13460.3271,-3385.0132L13461.2411,-3385.2493L13461.9034,-3385.8257L13462.6099,-3385.9932"/>
<path content="AP030,1,28,1,0,15,1,8,JPN" xlink:title="AP030" d="M13460.8093,-3387.5599L13460.8124,-3387.2055L13460.6766,-3385.9974L13460.4507,-3385.36L13460.3271,-3385.0132"/>
<path content="AP030,1,28,1,0,15,1,8,JPN" xlink:title="AP030" d="M13458.6243,-3384.9026L13459.3109,-3385.0075L13459.903,-3385.0109L13460.3271,-3385.0132"/>
<path content="AP030,1,28,1,0,15,1,8,JPN" xlink:title="AP030" d="M13458.11,-3387.2334L13458.5648,-3386.6879L13458.9523,-3386.0252L13458.9081,-3385.4813L13458.6243,-3384.9026"/>
<path content="AP030,1,28,1,0,15,1,8,JPN" xlink:title="AP030" d="M13458.6243,-3384.9026L13458.139,-3384.8286"/>
<path content="AP030,1,28,1,0,15,1,8,JPN" xlink:title="AP030" d="M13462.4695,-3384.6199L13463.1973,-3384.7622L13463.7421,-3385.4027L13464.2624,-3385.9951L13465.596,-3386.1008"/>
<path content="AP030,1,28,1,0,14,1,8,JPN" xlink:title="AP030" d="M13462.6099,-3385.9932L13462.5793,-3385.9531L13462.5595,-3385.8334L13462.5397,-3385.7597L13462.5397,-3385.6865L13462.5595,-3385.6667L13462.6099,-3385.593L13462.6297,-3385.54L13462.5595,-3385.3466L13462.5198,-3385.1799L13462.4893,-3385.0201L13462.4893,-3384.6931L13462.4695,-3384.6199"/>
<path content="AP030,1,28,1,0,14,1,8,JPN" xlink:title="AP030" d="M13462.4695,-3384.6199L13462.4298,-3384.4997L13462.3596,-3384.3201L13462.3596,-3384.3197"/>
<path content="AP030,1,28,1,0,15,1,8,JPN" xlink:title="AP030" d="M13467.3965,-3383.3496L13469.2337,-3384.2541L13469.6991,-3384.3525L13470.5872,-3384.4193L13471.0937,-3384.6691"/>
<path content="AP030,1,28,1,0,14,1,8,JPN" xlink:title="AP030" d="M13460.9497,-3383.2199L13461.2198,-3383.3599L13461.38,-3383.3599L13461.5204,-3383.3797L13461.6501,-3383.4534L13461.8103,-3383.58L13461.9293,-3383.7601L13462.1094,-3384.0134L13462.2192,-3384.1198L13462.2406,-3384.1534L13462.3596,-3384.3197"/>
<path content="AP030,1,28,1,0,15,1,8,JPN" xlink:title="AP030" d="M13460.3271,-3385.0132L13460.4568,-3384.4078L13460.9497,-3383.2199"/>
<path content="AP030,1,28,1,0,15,1,8,JPN" xlink:title="AP030" d="M13467.3965,-3383.3496L13467.7628,-3383.0593L13468.2571,-3382.946L13468.9011,-3383.2138L13469.4229,-3383.1211L13470.4941,-3383.4339L13471.3043,-3383.3691L13471.6187,-3383.0761L13472.0108,-3383.1387L13472.8012,-3383.4988L13473.5611,-3383.7505L13474.0997,-3383.7357L13474.6521,-3383.5079"/>
<path content="AP030,1,28,1,0,15,1,8,JPN" xlink:title="AP030" d="M13462.3596,-3384.3197L13462.9486,-3383.9249L13463.4644,-3383.4568L13463.9389,-3383.5285L13464.534,-3382.7351"/>
<path content="AP030,1,28,1,0,15,1,8,JPN" xlink:title="AP030" d="M13464.9399,-3382.5912L13465.5441,-3383.0193L13466.0965,-3382.9838L13466.713,-3383.1116L13467.3965,-3383.3496"/>
<path content="AP030,1,28,1,0,15,1,8,JPN" xlink:title="AP030" d="M13464.534,-3382.7351L13464.9399,-3382.5912"/>
<path content="AP030,1,28,1,0,14,1,8,JPN" xlink:title="AP030" d="M13459.3597,-3381.4667L13459.6497,-3381.5933L13459.9503,-3381.7734L13459.9701,-3381.7932L13460.0601,-3381.9L13460.1807,-3382.0465L13460.3302,-3382.2468L13460.4004,-3382.32L13460.4507,-3382.3868L13460.5194,-3382.4799L13460.5194,-3382.5134L13460.4904,-3382.6401L13460.5194,-3382.7133L13460.6247,-3382.7965L13460.6796,-3382.84L13460.7193,-3382.9266L13460.7697,-3383.0399L13460.7697,-3383.0532L13460.8093,-3383.0933L13460.9497,-3383.2199"/>
<path content="AP030,1,28,1,0,15,1,8,JPN" xlink:title="AP030" d="M13458.139,-3384.8286L13458.7036,-3384.0809L13458.7601,-3382.5764L13459.0881,-3382.3341L13459.3994,-3381.95L13459.3597,-3381.4667"/>
<path content="AP030,1,28,1,0,14,1,8,JPN" xlink:title="AP030" d="M13429.6875,-3383.3509L13429.7394,-3383.3466L13429.8599,-3383.2333L13429.8996,-3383.0734L13429.9301,-3382.9468L13429.9301,-3382.84L13429.9301,-3382.7999L13430.1102,-3382.7133L13430.2704,-3382.5535L13430.2902,-3382.4066L13430.2902,-3382.1934L13430.2704,-3382.0267L13430.2002,-3381.9401L13430.2399,-3381.7066L13430.3101,-3381.5266L13430.4306,-3381.3999L13430.7007,-3381.3599L13431.2698,-3381.3065L13431.5796,-3381.3465L13431.7902,-3381.2866L13431.9,-3381.2534L13432.0206,-3381.3065L13432.1793,-3381.2866L13432.2693,-3381.0532L13432.3105,-3380.8598L13432.3807,-3380.7331L13432.4005,-3380.5668L13432.5394,-3380.5534L13432.7194,-3380.5866L13433.0399,-3380.5"/>
<path content="AP030,1,28,1,0,14,1,8,JPN" xlink:title="AP030" d="M13459.3597,-3381.4667L13459.1797,-3381.3999L13459.1095,-3381.3465L13459.0607,-3381.1066L13459.1293,-3380.9868L13459.0805,-3380.9132L13459.0393,-3380.8399L13459.0195,-3380.6801L13459.0195,-3380.5668L13459.0195,-3380.5534L13459.0393,-3380.5134L13459.0805,-3380.4398"/>
<path content="AP030,1,28,1,0,14,1,8,JPN" xlink:title="AP030" d="M13459.0805,-3380.4398L13459.0805,-3380.32L13459.0393,-3380.2467L13459.0195,-3380.1933L13458.9294,-3380.1201L13458.9294,-3380.1197"/>
<path content="AP030,1,28,1,0,14,1,8,JPN" xlink:title="AP030" d="M13449.1806,-3385.8131L13448.6801,-3385.8665L13448.5397,-3385.8467L13448.3597,-3385.7067L13447.9904,-3385.2734L13447.9294,-3385.1665L13447.9904,-3384.9667L13448.0606,-3384.9133L13448.2697,-3384.8198L13448.6496,-3384.7134L13448.9304,-3384.5531L13449.3103,-3384.333L13449.4293,-3384.2464L13449.4003,-3384.1L13449.2905,-3384.0797L13449.1104,-3384.1L13448.7396,-3384.193L13448.6298,-3384.2266L13448.2697,-3384.0797L13448.1094,-3383.9531L13448.0606,-3383.8467L13448.0194,-3383.6533L13448.0606,-3383.5068L13448.1506,-3383.4L13448.2895,-3383.2867L13448.5397,-3383.1467L13448.7198,-3383.0399L13448.8297,-3382.9998L13448.8998,-3382.9468L13448.88,-3382.8598L13448.79,-3382.7999L13448.4695,-3382.6935L13448.2895,-3382.6935L13448.3307,-3382.4066L13448.3307,-3382.3532L13448.2697,-3382.2998L13448.1094,-3382.32L13447.9507,-3382.2468L13447.9507,-3382.1732L13447.9294,-3382.0801L13447.9507,-3382.0267L13448.0606,-3381.9935L13448.1995,-3381.9733L13448.2895,-3381.9534L13448.3307,-3381.8867L13448.2697,-3381.8466L13448.0194,-3381.8134L13447.9004,-3381.7734L13447.6807,-3381.6532L13447.58,-3381.5266L13447.5204,-3381.4335L13447.4899,-3381.1798L13447.1802,-3380.8399L13446.9299,-3380.5668L13446.8597,-3380.4398L13446.7194,-3380.2467L13446.5195,-3380.0266"/>
<path content="AP030,1,28,1,0,15,1,8,JPN" xlink:title="AP030" d="M13459.0805,-3380.4398L13459.7946,-3380.0629L13460.4279,-3380.0137L13460.7025,-3379.9923L13461.0184,-3380.2914L13461.1221,-3380.7915L13461.8301,-3381.1344L13462.8098,-3381.633L13463.7085,-3382.0564L13464.534,-3382.7351"/>
<path content="AP030,1,28,1,0,14,1,8,JPN" xlink:title="AP030" d="M13433.0399,-3380.5L13433.2397,-3380.4268L13433.3298,-3380.32L13433.4,-3380.1933L13433.4503,-3379.9732L13433.4702,-3379.7932L13433.5205,-3379.7398L13433.6502,-3379.6665L13433.7906,-3379.6532L13434.0195,-3379.6665L13434.1995,-3379.8664L13434.2697,-3379.9732L13434.2697,-3380.0465L13434.2697,-3380.0999L13434.1095,-3380.1533L13433.9294,-3380.4066L13433.9294,-3380.5534L13433.9493,-3380.6599L13434.0805,-3380.6934L13434.2407,-3380.7999L13434.3597,-3380.9132L13434.3994,-3380.8933L13434.52,-3380.8201L13434.61,-3380.8201L13434.7,-3380.8735L13434.8099,-3380.9666L13434.8999,-3381.0532L13435.0403,-3380.9998L13435.2905,-3380.9998L13435.4706,-3381.0398L13435.6796,-3381.0734L13435.7697,-3381.1665L13435.8307,-3381.2199L13435.9497,-3381.2L13436.1298,-3381.1066L13436.1496,-3381.0532L13436.2,-3380.9265L13436.3098,-3380.7667L13436.3297,-3380.7331"/>
<path content="AP030,1,28,1,0,14,1,8,JPN" xlink:title="AP030" d="M13429.6875,-3379.7828L13429.8599,-3379.76L13429.95,-3379.6867L13429.9698,-3379.5933L13430.2399,-3379.5399"/>
<path content="AP030,1,28,1,0,15,1,8,JPN" xlink:title="AP030" d="M13447.908,-3379.5181L13448.2178,-3380.5611L13449.2432,-3380.8037L13449.8077,-3381.1634L13449.8001,-3381.6341L13449.3698,-3382.106L13449.4995,-3382.254L13449.9634,-3382.0904L13450.5508,-3381.7917L13451.6068,-3381.2584L13451.7365,-3381.4068L13451.4542,-3381.7921L13451.2207,-3382.251L13451.7822,-3382.6572L13453.1357,-3383.0585L13454.9286,-3383.9771L13456.5704,-3384.2987L13457.5104,-3384.56L13458.139,-3384.8286"/>
<path content="AP030,1,28,1,0,14,1,8,JPN" xlink:title="AP030" d="M13436.3297,-3380.7331L13436.3998,-3380.5866L13436.5204,-3380.4268L13436.7004,-3380.3867L13436.8607,-3380.3734L13437.0407,-3380.4268L13437.1307,-3380.5L13437.1796,-3380.6065L13437.1994,-3380.6801L13437.2894,-3380.7667L13437.4893,-3380.8399L13437.6099,-3380.8399L13437.7197,-3380.7865L13437.8601,-3380.64L13437.8799,-3380.5134L13437.9303,-3380.3333L13437.9501,-3380.1201L13437.9898,-3380.08L13438.2004,-3380.08L13438.2202,-3380.0999L13438.3102,-3380.2799L13438.4003,-3380.3867L13438.5605,-3380.5134L13438.8794,-3380.5668L13439.0793,-3380.5534L13439.3295,-3380.5134L13439.7202,-3380.3867L13440.0406,-3380.2467L13440.1993,-3380.1201L13440.3305,-3379.94L13440.3793,-3379.7398L13440.3305,-3379.5601L13440.2206,-3379.4533L13440.0192,-3379.2866L13440.0604,-3379.2332L13440.1505,-3379.2332L13440.4007,-3379.2866L13440.5197,-3379.4132L13440.6097,-3379.5399L13440.6296,-3379.6131L13440.7196,-3379.76L13440.8295,-3379.8664L13440.9897,-3379.94L13441.2003,-3379.9732L13441.4703,-3380.0133L13441.8304,-3379.9934L13442.0197,-3379.8466L13442.2195,-3379.6867L13442.2897,-3379.6532L13442.4301,-3379.6333L13442.45,-3379.6532L13442.8101,-3379.8664L13443.0603,-3380.0133L13443.2693,-3380.0667L13443.3807,-3379.9934L13443.4906,-3379.8664L13443.5806,-3379.6131L13443.7195,-3379.5601L13443.9301,-3379.4132L13444.0796,-3379.3064L13444.1803,-3379.2198L13444.22,-3379.2198L13444.2703,-3379.3999L13444.4504,-3379.7199L13444.6106,-3379.94L13444.6304,-3379.9534L13444.7693,-3380.1201L13444.8807,-3380.1533L13445.7001,-3380.1533L13445.9702,-3380.08L13446.1807,-3380.0266L13446.4294,-3379.9934L13446.5195,-3380.0266"/>
<path content="AP030,1,28,1,0,15,1,8,JPN" xlink:title="AP030" d="M13446.5195,-3380.0266L13446.994,-3379.5181L13447.1085,-3379.2847L13447.2229,-3379.1912L13447.5082,-3379.3312L13447.6791,-3379.4716L13447.908,-3379.5181"/>
<path content="AP030,1,28,1,0,14,1,8,JPN" xlink:title="AP030" d="M13430.2399,-3379.5399L13430.2704,-3379.5399L13430.3101,-3379.5601L13430.4703,-3379.5933L13430.6107,-3379.6333L13430.6503,-3379.5799L13430.7007,-3379.4666L13430.8807,-3379.2732L13431.0196,-3379.1798L13431.1996,-3379.1664L13431.3095,-3379.2L13431.4499,-3379.3598L13431.4697,-3379.5399L13431.4896,-3379.6532L13431.5598,-3379.7199L13431.6803,-3379.8664L13431.8802,-3380.0465L13431.9901,-3380.0999L13432.1304,-3380.08L13432.4295,-3379.8466L13432.5195,-3379.8134L13432.6294,-3379.8134L13432.8293,-3379.8664L13432.9697,-3380.0667L13432.93,-3380.2067L13432.9697,-3380.3532L13433.0399,-3380.5"/>
<path content="AP030,1,28,1,0,15,1,8,JPN" xlink:title="AP030" d="M13464.9399,-3382.5912L13465.593,-3382.5306L13465.7608,-3382.1625L13465.8569,-3381.6257L13466.3361,-3381.6505L13466.4017,-3380.7587L13467.0258,-3381.097L13467.1265,-3380.8666L13466.6519,-3380.4184L13466.1118,-3380.4848L13465.7547,-3380.3486L13465.6616,-3380.0846L13464.7232,-3379.4235L13463.9618,-3379.4079L13463.4216,-3379.097L13462.5717,-3379.1473L13462.204,-3379.5288L13462.1063,-3379.7119L13461.6714,-3379.4773L13461.4807,-3379.0199L13461.2076,-3378.511L13459.581,-3378.0025"/>
<path content="AP030,1,28,1,0,15,1,8,JPN" xlink:title="AP030" d="M13459.581,-3378.0025L13459.5322,-3378.072L13459.1415,-3378.6156L13459.7244,-3379.1168L13459.3918,-3379.406L13458.9294,-3380.1197"/>
<path content="AP030,1,28,1,0,14,1,8,JPN" xlink:title="AP030" d="M13429.6875,-3378.6023L13429.7897,-3378.7334L13429.8798,-3378.9265L13429.8996,-3379.1065L13430.0797,-3379.1466L13430.2002,-3379.2534L13430.2704,-3379.3598L13430.2399,-3379.5399"/>
<path content="AP030,1,28,1,0,14,1,8,JPN" xlink:title="AP030" d="M13457.44,-3378.138L13456.37,-3377.483L13455.42,-3376.829L13455.0513,-3376.5605"/>
<path content="AP030,1,28,1,0,14,1,4,JPN" xlink:title="AP030" d="M13455.0513,-3376.5605L13453.879,-3375.7067"/>
<path content="AP030,1,28,1,0,14,1,8,JPN" xlink:title="AP030" d="M13453.879,-3375.7067L13453.1097,-3375.1465"/>
<path content="AP030,1,28,1,0,14,1,8,JPN" xlink:title="AP030" d="M13458.9294,-3380.1197L13458.8104,-3379.9732L13458.6807,-3379.8664L13458.5205,-3379.7398L13458.49,-3379.7066L13458.2703,-3379.6333L13458.11,-3379.5933L13457.9895,-3379.5399L13457.8598,-3379.5265L13457.7698,-3379.5067L13457.5394,-3379.38L13457.4005,-3379.2866L13457.2205,-3379.1798L13457.0206,-3379.1664L13456.8604,-3379.1267L13456.81,-3379.1065L13456.6299,-3379.0531L13456.5598,-3379.0398L13456.4499,-3378.9265L13456.2393,-3378.8734L13456.1493,-3378.8597L13455.9494,-3378.6598L13455.9494,-3378.5866L13455.9692,-3378.5L13455.9906,-3378.4599L13455.9494,-3378.3531L13455.8807,-3378.2265L13455.8105,-3378.1933L13455.6793,-3378.1532L13455.4703,-3378.0998L13455.4001,-3378.08L13455.2399,-3378.0998L13455.1102,-3378.0666L13455.0201,-3378.0132L13454.9698,-3377.9934L13454.8096,-3377.9934L13454.7394,-3377.9533L13454.6799,-3377.8667L13454.6097,-3377.8332L13454.5593,-3377.8866L13454.5197,-3377.9934L13454.5197,-3378.0132L13454.4006,-3377.9732L13454.2892,-3377.94L13454.2007,-3377.9198L13454.1794,-3377.9198L13454.1794,-3377.8133L13454.1794,-3377.7397L13454.1504,-3377.7065L13454.0802,-3377.56L13454.0604,-3377.5066L13454.0604,-3377.4532L13454.0207,-3377.4132L13453.9307,-3377.4334L13453.8605,-3377.4666L13453.7704,-3377.4532L13453.7003,-3377.4132L13453.6499,-3377.3464L13453.7003,-3377.3067L13453.7704,-3377.3067L13453.7704,-3377.2533L13453.7201,-3377.1667L13453.7003,-3377.1065L13453.6102,-3377.0733L13453.6102,-3376.9867L13453.5599,-3376.8932L13453.4897,-3376.7998L13453.4897,-3376.7467L13453.4897,-3376.6197L13453.4698,-3376.5865L13453.4302,-3376.5533L13453.36,-3376.5533L13453.2394,-3376.5533L13452.5803,-3376.4599L13452.5192,-3376.4267L13452.4704,-3376.3199L13452.4704,-3376.2466L13452.6093,-3376.0998L13452.7405,-3375.8865L13452.7405,-3375.8331L13452.7695,-3375.7065L13452.6993,-3375.6332L13452.6794,-3375.5798L13452.6794,-3375.4532L13452.6993,-3375.3265L13452.7695,-3375.2533L13452.9007,-3375.1465L13452.9907,-3375.1465L13453.1097,-3375.1465"/>
<path content="AP030,1,28,1,0,14,1,8,JPN" xlink:title="AP030" d="M13453.1097,-3375.1465L13453.142,-3375"/>
<path content="AP030,1,28,1,0,15,1,8,JPN" xlink:title="AP030" d="M13447.908,-3379.5181L13447.9645,-3379.3312L13447.85,-3379.1443L13448.0209,-3379.0508L13448.2498,-3378.9108L13448.2498,-3378.7708L13448.0209,-3378.5374L13448.0789,-3378.397L13448.3063,-3378.3035L13448.6496,-3378.4439L13448.9914,-3378.5374L13449.2767,-3378.4904L13449.4476,-3378.1635L13449.4476,-3377.977L13449.2203,-3377.7901L13448.9349,-3377.7901L13448.877,-3377.6497L13449.1058,-3377.4632L13449.9039,-3376.9958L13450.4181,-3376.2486L13450.4745,-3375.5013L13450.589,-3375.1743L13451.0452,-3375.0343L13451.7883,-3375.2678L13452.301,-3375.3143L13452.4719,-3375.1743L13452.4916,-3375"/>
<path content="AP030,1,28,1,0,15,1,8,JPN" xlink:title="AP030" d="M13455.3704,-3375L13455.3513,-3375.1003L13455.3391,-3375.1663L13455.6351,-3375.251L13455.6427,-3375.2529L13456.16,-3375.1152L13456.5704,-3375.2781L13456.7764,-3375.5478L13456.5475,-3375.9598L13457.0831,-3376.7181L13457.5592,-3376.7666L13457.7118,-3376.9863L13457.7057,-3377.0241L13457.6004,-3377.7107L13457.8613,-3378.0071L13458.1436,-3377.9984L13458.4824,-3377.4105L13458.5007,-3377.3808L13458.8974,-3377.3544L13459.581,-3378.0025"/>
<path content="AP030,1,28,1,0,15,1,8,JPN" xlink:title="AP030" d="M13436.3297,-3380.7331L13435.4004,-3380.2673L13435.3531,-3379.4464L13434.8175,-3378.8967L13435.4721,-3377.9095L13435.5408,-3377.039L13435.0647,-3376.2695L13434.6283,-3375.8739L13434.7839,-3375.3059L13435.3492,-3375"/>
<path content="AP030,1,28,1,0,16,1,8,JPN" xlink:title="AP030" d="M13465.9559,-3424.2674L13466.1377,-3424.3198L13466.2811,-3424.3626L13466.7099,-3424.5853"/>
<path content="AP030,1,28,1,0,16,1,8,JPN" xlink:title="AP030" d="M13463.2202,-3422.86L13463.5193,-3423.1266L13463.7894,-3423.3601L13463.9435,-3423.605L13464.343,-3423.8754"/>
<path content="AP030,1,28,1,0,14,1,8,JPN" xlink:title="AP030" d="M13457.9819,-3416.3891L13458.02,-3415.9931L13458.02,-3415.9199L13458.02,-3415.76L13457.9498,-3415.2534L13457.8598,-3414.6069L13457.6797,-3414.2799L13457.6492,-3414.2265L13457.5806,-3414.0667L13457.5195,-3413.8668L13457.4707,-3413.7066L13457.4295,-3413.4869L13457.4005,-3413.3068"/>
</g>
</svg>
