<?xml version="1.0" encoding="UTF-8"?>
<svg  xmlns="http://www.w3.org/2000/svg" xmlns:xlink="http://www.w3.org/1999/xlink" xmlns:go="http://purl.org/svgmap/profile" property="f_code,acc,exs,rst,med,rtt,RSU,loc,soc" viewBox="13570.3125 -3480.46875 35.15625 35.15625" go:dataArea="13570.3125 -3480.46875 35.15625 35.15625" >
<metadata>
 <rdf:RDF xmlns:rdf="http://www.w3.org/1999/02/22-rdf-syntax-ns#" xmlns:crs="http://opengis.org/xmldtds/transformations.dtd" xmlns:svg="http://www.w3.org/svg" >
  <rdf:Description>
   <crs:CoordinateReferenceSystem rdf:resource="http://purl.org/crs/84" svg:transform="matrix(100.0,0.0,0.0,-100.0,0.0,0.0)" />
  </rdf:Description>
 </rdf:RDF>
</metadata>
<globalCoordinateSystem srsName="http://purl.org/crs/84" transform="matrix(100.0,0.0,0.0,-100.0,0.0,0.0)" />
<defs>
 <g id="p0" >
  <circle cx="0.0" cy="0.0" r="3" stroke="green" stroke-width="2.0" vector-effect="non-scaling-stroke" />
 </g>
</defs>
<g fill="none" fill-rule="evenodd" stroke="#00ff00" stroke-width="2" opacity="0.5" vector-effect="non-scaling-stroke" stroke-linejoin="bevel" >
<path content="AP030,1,28,1,0,14,1,8,JPN" xlink:title="AP030" d="M13580.5541,-3480.4688L13580.4306,-3480.2467"/>
<path content="AP030,1,28,1,0,14,1,8,JPN" xlink:title="AP030" d="M13573.4894,-3480.0266L13573.6496,-3480.1334L13573.7701,-3480.1933L13574.0601,-3480.2067L13574.1806,-3480.2265L13574.3607,-3480.3333L13574.5605,-3480.3333L13574.6307,-3480.3532L13574.7442,-3480.4688"/>
<path content="AP030,1,28,1,0,15,1,8,JPN" xlink:title="AP030" d="M13577.9968,-3479.9282L13578.4637,-3480.0098L13578.5736,-3480.0289L13579.0176,-3480.1064L13580.4306,-3480.2467"/>
<path content="AP030,1,28,1,0,15,1,8,JPN" xlink:title="AP030" d="M13577.648,-3480.4687L13577.9968,-3479.9282"/>
<path content="AP030,1,28,1,0,15,1,8,JPN" xlink:title="AP030" d="M13575.9506,-3479.3465L13576.2573,-3479.4945L13577.3026,-3479.7188L13577.9968,-3479.9282"/>
<path content="AP030,1,28,1,0,16,1,8,JPN" xlink:title="AP030" d="M13575.5885,-3480.4688L13575.65,-3480.2467L13575.7004,-3479.9L13575.7706,-3479.6665L13575.7904,-3479.5265L13575.9506,-3479.3465"/>
<path content="AP030,1,28,1,0,15,1,8,JPN" xlink:title="AP030" d="M13590.4343,-3479.3056L13590.8981,-3479.7459L13591.3727,-3480.4111L13591.4303,-3480.4688"/>
<path content="AP030,1,28,1,0,15,1,8,JPN" xlink:title="AP030" d="M13590.1383,-3480.4688L13590.1917,-3480.3673L13590.4343,-3479.3056"/>
<path content="AP030,1,28,1,0,15,1,8,JPN" xlink:title="AP030" d="M13575.119,-3478.5931L13575.7126,-3479.0897L13575.9506,-3479.3465"/>
<path content="AP030,1,28,1,0,15,1,8,JPN" xlink:title="AP030" d="M13573.4894,-3480.0266L13574.2752,-3479.4537L13574.6964,-3479.2477L13575.119,-3478.5931"/>
<path content="AP030,1,28,1,0,15,1,8,JPN" xlink:title="AP030" d="M13577.9968,-3479.9282L13578.2623,-3479.1546L13578.5843,-3477.9354"/>
<path content="AP030,1,28,1,0,15,1,8,JPN" xlink:title="AP030" d="M13577.2705,-3477.3598L13577.71,-3477.5841L13578.5843,-3477.9354"/>
<path content="AP030,1,28,1,0,16,1,8,JPN" xlink:title="AP030" d="M13575.9506,-3479.3465L13576.3596,-3479.0199L13576.77,-3478.6934L13576.9897,-3478.4599L13577.1103,-3478.2467L13577.15,-3478.0132L13577.1805,-3477.6333L13577.2202,-3477.4864L13577.2705,-3477.3598"/>
<path content="AP030,1,28,1,0,15,1,8,JPN" xlink:title="AP030" d="M13590.4343,-3479.3056L13591.0004,-3478.289L13590.8829,-3477.5913L13590.2893,-3476.7334"/>
<path content="AP030,1,28,1,0,15,1,8,JPN" xlink:title="AP030" d="M13588.3606,-3476.4599L13588.2568,-3476.973L13588.3926,-3477.4166L13588.7314,-3477.7493L13588.3926,-3477.8603L13588.4598,-3478.1376L13588.7314,-3478.2486L13589.1373,-3478.1929L13589.6118,-3478.5259L13590.4343,-3479.3056"/>
<path content="AP030,1,28,1,0,14,1,8,JPN" xlink:title="AP030" d="M13586.8103,-3476.6068L13587.0804,-3476.7998L13587.1994,-3476.8398L13587.5793,-3476.8398L13587.6999,-3476.8398L13587.7197,-3476.8398L13587.7197,-3476.82L13587.8296,-3476.68L13587.8296,-3476.5865L13587.9898,-3476.5533L13588.1104,-3476.5533L13588.3606,-3476.4599"/>
<path content="AP030,1,28,1,0,14,1,8,JPN" xlink:title="AP030" d="M13599.1302,-3477.2732L13599.2905,-3477.2732L13599.4293,-3477.2198L13599.5407,-3477.1267L13599.6796,-3477.0199L13599.9695,-3477.0199L13600.1999,-3477.1465L13600.47,-3477.2732L13600.6241,-3477.3621L13601.0605,-3477.6134L13601.1795,-3477.6665L13601.2894,-3477.6665L13601.5396,-3477.5932L13601.8097,-3477.5799L13601.86,-3477.5265L13601.9302,-3477.0733L13602.2705,-3476.8398L13602.2903,-3476.7864L13602.3102,-3476.7467L13602.33,-3476.44L13602.3804,-3476.3733L13602.4506,-3476.3332L13602.4902,-3476.3199L13602.6306,-3476.3332L13602.8595,-3476.44L13603.1799,-3476.5667L13603.6102,-3476.6399L13603.6804,-3476.6068L13603.862,-3476.5144L13603.9703,-3476.4599L13604.1107,-3476.4599L13604.2404,-3476.4065L13604.5395,-3476.4267L13604.7394,-3476.3535L13604.8294,-3476.3535"/>
<path content="AP030,1,28,1,0,14,1,8,JPN" xlink:title="AP030" d="M13588.3606,-3476.4599L13588.6795,-3476.4267L13588.8992,-3476.4065L13589.18,-3476.3332L13589.3295,-3476.3L13589.74,-3476.4065L13589.9506,-3476.4797L13590.2206,-3476.6933L13590.2893,-3476.7334"/>
<path content="AP030,1,28,1,0,14,1,8,JPN" xlink:title="AP030" d="M13590.2893,-3476.7334L13590.6799,-3476.7467L13590.7394,-3476.7334L13590.9302,-3476.6598L13591.1102,-3476.6399L13591.4307,-3476.5667L13591.6107,-3476.5331L13591.9907,-3476.5331L13592.1097,-3476.5133L13592.2897,-3476.4599L13592.5201,-3476.3733L13592.8299,-3476.2466L13593.0603,-3476.2264L13593.6493,-3476.2264L13593.7393,-3476.2066L13593.7897,-3476.1734L13593.9301,-3476.0666L13594.0598,-3475.9731"/>
<path content="AP030,1,28,1,0,14,1,8,JPN" xlink:title="AP030" d="M13604.8294,-3476.3535L13605.04,-3476.4267L13605.2704,-3476.4797L13605.4688,-3476.6726"/>
<path content="AP030,1,28,1,0,14,1,8,JPN" xlink:title="AP030" d="M13604.8294,-3476.3535L13604.9896,-3476.2264L13605.2002,-3476.12L13605.4688,-3476.0586"/>
<path content="AP030,1,28,1,0,14,1,8,JPN" xlink:title="AP030" d="M13594.0598,-3475.9731L13594.22,-3475.9399L13595.0394,-3476.1333L13595.1492,-3476.2264L13595.1996,-3476.3332L13595.2698,-3476.44L13595.3995,-3476.5533L13595.61,-3476.6197L13595.7901,-3476.6399L13596.2906,-3476.6598L13596.4493,-3476.6399L13596.6293,-3476.6399L13596.7697,-3476.6933L13597.11,-3476.82L13597.3999,-3476.86L13597.7707,-3476.9665L13597.9294,-3476.9466L13598.0392,-3476.9085L13598.1796,-3476.86L13598.2407,-3476.86L13598.3093,-3476.8932L13598.4299,-3477.0199L13598.8297,-3477.1797L13599.1302,-3477.2732"/>
<path content="AP030,1,28,1,0,15,1,8,JPN" xlink:title="AP030" d="M13593.7637,-3475.7767L13594.0598,-3475.9731"/>
<path content="AP030,1,28,1,0,15,1,8,JPN" xlink:title="AP030" d="M13573.7778,-3475.3292L13573.8831,-3476.2306L13574.3317,-3476.8551L13575.0153,-3477.2213L13575.3525,-3477.9083L13575.119,-3478.5931"/>
<path content="AP030,1,28,1,0,15,1,8,JPN" xlink:title="AP030" d="M13573.7778,-3475.3292L13574.0906,-3475.0961L13574.3271,-3475.2186L13574.5895,-3475.3643L13575.0412,-3475.0923L13576.0025,-3474.9321L13576.7242,-3475.1202L13576.9257,-3475.3754L13577.002,-3475.872L13576.7593,-3476.2875L13576.8387,-3476.7395L13577.2705,-3477.3598"/>
<path content="AP030,1,28,1,0,14,1,8,JPN" xlink:title="AP030" d="M13580.4306,-3480.2467L13580.3299,-3480.08L13580.3101,-3479.9L13580.3101,-3479.8466L13580.3299,-3479.76L13580.3802,-3479.6131L13580.4001,-3479.5399L13580.5801,-3478.9665L13580.6793,-3478.4397L13580.6793,-3478.0266L13580.6107,-3477.4666L13580.5801,-3477.2533L13580.5801,-3477.1999L13580.7007,-3476.9665L13580.7693,-3476.82L13580.9494,-3476.4599L13581.1096,-3476.1932L13581.2393,-3475.8331L13581.3995,-3475.3468L13581.4499,-3475.2335L13581.5399,-3475.1465L13581.6803,-3475.0401L13581.81,-3474.9466L13581.9,-3474.8734L13581.9901,-3474.7665L13582.0404,-3474.6067"/>
<path content="AP030,1,28,1,0,14,1,8,JPN" xlink:title="AP030" d="M13582.0404,-3474.6067L13582.3288,-3474.6067L13582.3593,-3474.6067L13582.6096,-3474.6597L13583.11,-3474.9134L13583.5602,-3475.2533L13583.6807,-3475.4333L13583.8806,-3475.5932L13584.1293,-3475.8331L13584.4299,-3476.0799L13584.5596,-3476.1532L13584.9304,-3476.3L13585.1807,-3476.3866L13585.4706,-3476.3866L13585.9894,-3476.3535L13586.3098,-3476.3332L13586.4502,-3476.3733L13586.6302,-3476.4999L13586.8103,-3476.6068"/>
<path content="AP030,1,28,1,0,15,1,8,JPN" xlink:title="AP030" d="M13572.1466,-3474.07L13573.2178,-3474.7219L13573.6862,-3475.0561L13573.7778,-3475.3292"/>
<path content="AP030,1,28,1,0,15,1,8,JPN" xlink:title="AP030" d="M13570.3125,-3478.4555L13570.8725,-3478.2745L13571.4951,-3477.4494L13572.3114,-3476.5881L13572.5281,-3476.1719L13572.4289,-3475.6069L13571.9315,-3475.3162L13571.7865,-3475.0183L13572.1252,-3474.4053L13572.1466,-3474.07"/>
<path content="AP030,1,28,1,0,15,1,8,JPN" xlink:title="AP030" d="M13578.5843,-3477.9354L13578.5614,-3476.9928L13578.7674,-3475.8808L13579.1946,-3474.7105L13579.5639,-3474.1734L13579.6127,-3474.1009L13580.3299,-3473.5798"/>
<path content="AP030,1,28,1,0,14,1,8,JPN" xlink:title="AP030" d="M13579.0405,-3473.4135L13579.3243,-3473.4749L13579.3793,-3473.4867L13579.7699,-3473.56L13580.1804,-3473.5798L13580.3299,-3473.5798"/>
<path content="AP030,1,28,1,0,16,1,8,JPN" xlink:title="AP030" d="M13577.2705,-3477.3598L13577.5406,-3476.7132L13577.6093,-3476.4999L13577.6093,-3476.3L13577.6794,-3475.9197L13577.6993,-3475.6866L13577.8595,-3475.3468L13578.0594,-3474.9268L13578.2898,-3474.6201L13578.3997,-3474.4999L13578.6499,-3474.1932L13578.8101,-3473.9532L13578.9307,-3473.6866L13579.0405,-3473.4135"/>
<path content="AP030,1,28,1,0,15,1,8,JPN" xlink:title="AP030" d="M13593.7637,-3475.7767L13594.3771,-3474.7341L13595.224,-3473.9773L13595.2698,-3473.3265"/>
<path content="AP030,1,28,1,0,15,1,8,JPN" xlink:title="AP030" d="M13572.1466,-3474.07L13571.8307,-3473.2864"/>
<path content="AP030,1,28,1,0,14,1,8,JPN" xlink:title="AP030" d="M13580.3299,-3473.5798L13580.3604,-3472.9465"/>
<path content="AP030,1,28,1,0,14,1,8,JPN" xlink:title="AP030" d="M13582.0404,-3474.6067L13582.0602,-3474.5335L13582.1793,-3474.3L13582.2693,-3474.0665L13582.2861,-3473.8865L13582.2906,-3473.8464L13582.2403,-3473.56L13582.2403,-3473.3997L13582.1793,-3472.9866L13582.1503,-3472.9465"/>
<path content="AP030,1,28,1,0,14,1,8,JPN" xlink:title="AP030" d="M13580.3604,-3472.9465L13582.1503,-3472.9465"/>
<path content="AP030,1,28,1,0,14,1,8,JPN" xlink:title="AP030" d="M13570.3125,-3473.0012L13570.3293,-3472.9866L13570.43,-3472.9267L13570.4895,-3472.9465L13570.6299,-3473.0534L13570.8298,-3473.0934L13571.1807,-3473.1464L13571.4005,-3473.1464L13571.5195,-3473.1266L13571.6293,-3473.1667L13571.8307,-3473.2864"/>
<path content="AP030,1,28,1,0,14,1,8,JPN" xlink:title="AP030" d="M13595.2698,-3473.3265L13595.2393,-3473.1068L13595.2698,-3473.0534L13595.4697,-3472.9267L13595.52,-3472.8397"/>
<path content="AP030,1,28,1,0,14,1,8,JPN" xlink:title="AP030" d="M13571.8307,-3473.2864L13571.9498,-3473.2864L13572.02,-3473.2735L13572.0596,-3473.2201L13572.1802,-3473.1266L13572.2198,-3473.0934L13572.3099,-3472.9866L13572.8302,-3472.9668L13573.7,-3472.9267L13573.7701,-3472.9134L13573.9304,-3472.8397L13574.0402,-3472.8001L13574.3805,-3472.8397L13574.6796,-3472.8733L13574.7696,-3472.8733L13574.9496,-3472.7867"/>
<path content="AP030,1,28,1,0,14,1,8,JPN" xlink:title="AP030" d="M13574.9496,-3472.7867L13575.0595,-3472.7665L13575.1297,-3472.8199L13575.2899,-3472.9465L13575.47,-3473.0934L13575.56,-3473.1068L13575.6805,-3473.1068L13575.7904,-3473.0732L13576.0193,-3473.0732L13576.2695,-3473.0934L13576.6098,-3473.0534L13576.9426,-3473.009"/>
<path content="AP030,1,28,1,0,14,1,8,JPN" xlink:title="AP030" d="M13581.9795,-3472.6509L13582.0602,-3472.7467L13582.1106,-3472.8397L13582.1503,-3472.9465"/>
<path content="AP030,1,28,1,0,14,1,8,JPN" xlink:title="AP030" d="M13570.3125,-3472.6198L13570.3598,-3472.5533"/>
<path content="AP030,1,28,1,0,15,1,8,JPN" xlink:title="AP030" d="M13571.8307,-3473.2864L13572.0856,-3472.4754"/>
<path content="AP030,1,28,1,0,15,1,8,JPN" xlink:title="AP030" d="M13574.9496,-3472.7867L13575.1511,-3472.3354"/>
<path content="AP030,1,28,1,0,15,1,8,JPN" xlink:title="AP030" d="M13580.3604,-3472.9465L13580.368,-3472.3087"/>
<path content="AP030,1,28,1,0,16,1,8,JPN" xlink:title="AP030" d="M13579.0405,-3473.4135L13579.2282,-3473.1903L13579.5395,-3472.8199L13579.95,-3472.4998L13580.368,-3472.3087"/>
<path content="AP030,1,28,1,0,14,1,8,JPN" xlink:title="AP030" d="M13581.2897,-3471.8864L13581.4301,-3472.0135L13581.6498,-3472.2599L13581.9795,-3472.6509"/>
<path content="AP030,1,28,1,0,16,1,8,JPN" xlink:title="AP030" d="M13580.368,-3472.3087L13581.2897,-3471.8864"/>
<path content="AP030,1,28,1,0,15,1,8,JPN" xlink:title="AP030" d="M13575.1511,-3472.3354L13575.3845,-3471.8159"/>
<path content="AP030,1,28,1,0,15,1,8,JPN" xlink:title="AP030" d="M13574.8856,-3471.5656L13575.3845,-3471.8159"/>
<path content="AP030,1,28,1,0,15,1,8,JPN" xlink:title="AP030" d="M13575.1511,-3472.3354L13574.8856,-3471.5656"/>
<path content="AP030,1,28,1,0,15,1,8,JPN" xlink:title="AP030" d="M13572.0856,-3472.4754L13573.1186,-3472.0272L13573.3292,-3472.126L13573.6893,-3472.007L13573.7595,-3471.7636L13574.0723,-3471.5305L13574.8856,-3471.5656"/>
<path content="AP030,1,28,1,0,15,1,8,JPN" xlink:title="AP030" d="M13595.52,-3472.8397L13596.7255,-3473.1468L13597.3343,-3472.9805L13597.9446,-3472.5368L13598.0804,-3471.9269L13598.1476,-3471.3722"/>
<path content="AP030,1,28,1,0,14,1,8,JPN" xlink:title="AP030" d="M13570.3598,-3472.5533L13570.4697,-3472.4998L13570.5795,-3472.4266L13570.6802,-3472.3L13570.6497,-3472.1931L13570.6802,-3472.1001L13570.7199,-3471.9933L13570.7397,-3471.92L13570.7001,-3471.7731L13570.7199,-3471.6667L13570.7397,-3471.5935L13570.7397,-3471.4867L13570.6802,-3471.4134L13570.3796,-3471.3467"/>
<path content="AP030,1,28,1,0,14,1,8,JPN" xlink:title="AP030" d="M13570.3598,-3472.5533L13570.3995,-3472.4998L13570.4895,-3472.3198L13570.4697,-3472.0665L13570.43,-3471.8864L13570.3995,-3471.7068L13570.3293,-3471.6331L13570.3598,-3471.5267L13570.3796,-3471.3467"/>
<path content="AP030,1,28,1,0,15,1,8,JPN" xlink:title="AP030" d="M13580.368,-3472.3087L13580.3711,-3471.9807L13579.895,-3471.3551L13579.7638,-3471.1521"/>
<path content="AP030,1,28,1,0,15,1,8,JPN" xlink:title="AP030" d="M13575.3845,-3471.8159L13576.413,-3471.8781L13576.9379,-3472.1699"/>
<path content="AP030,1,28,1,0,15,1,8,JPN" xlink:title="AP030" d="M13586.8103,-3476.6068L13586.998,-3476.3432L13587.0834,-3475.8533L13586.9659,-3475.1087L13586.9537,-3475.0477L13586.7554,-3474.1131L13586.2732,-3473.151L13585.6201,-3472.72L13584.7519,-3472.2794L13583.7524,-3472.1924L13583.4381,-3471.5736L13582.605,-3470.9942"/>
<path content="AP030,1,28,1,0,15,1,8,JPN" xlink:title="AP030" d="M13581.9795,-3472.6509L13582.3959,-3471.7026L13582.605,-3470.9942"/>
<path content="AP030,1,28,1,0,15,1,8,JPN" xlink:title="AP030" d="M13599.1302,-3477.2732L13599.3286,-3476.1604L13599.588,-3475.8408L13600.3738,-3476.0712L13600.7034,-3475.9197L13600.7431,-3475.2613L13600.6714,-3474.4663L13600.2762,-3474.3843L13600.0183,-3474.0105L13599.968,-3472.8535L13600.0641,-3471.9334L13600.9079,-3471.209L13600.5188,-3470.9286"/>
<path content="AP030,1,28,1,0,14,1,8,JPN" xlink:title="AP030" d="M13581.2897,-3471.8864L13581.2195,-3471.7934L13581.1798,-3471.6866L13581.1096,-3471.4333L13581.0394,-3471.2734L13580.8105,-3471.0197L13580.6793,-3470.8599"/>
<path content="AP030,1,28,1,0,15,1,8,JPN" xlink:title="AP030" d="M13579.7638,-3471.1521L13580.6793,-3470.8599"/>
<path content="AP030,1,28,1,0,15,1,8,JPN" xlink:title="AP030" d="M13580.6793,-3470.8599L13580.8136,-3470.7874L13581.0791,-3470.6436L13581.8649,-3470.6768L13582.605,-3470.9942"/>
<path content="AP030,1,28,1,0,14,1,8,JPN" xlink:title="AP030" d="M13580.6793,-3470.8599L13580.5801,-3470.7333L13580.5801,-3470.6398"/>
<path content="AP030,1,28,1,0,15,1,8,JPN" xlink:title="AP030" d="M13598.1476,-3471.3722L13598.1476,-3470.5959L13598.7579,-3470.3739L13599.5026,-3470.4849L13600.0443,-3470.8176L13600.5188,-3470.9286"/>
<path content="AP030,1,28,1,0,15,1,8,JPN" xlink:title="AP030" d="M13587.1094,-3470.2801L13587.5214,-3470.3705L13587.6587,-3470.5975L13588.4201,-3470.7108L13588.7329,-3470.7672L13588.8702,-3471.0224L13589.183,-3471.1639L13589.563,-3471.1926L13589.8407,-3471.3909L13590.0482,-3471.7876L13590.2557,-3472.2977L13590.9821,-3472.8642L13591.2949,-3473.3746L13591.745,-3473.7144L13592.2989,-3473.8846L13592.6788,-3474.3946L13592.6788,-3474.8482L13592.749,-3475.103L13593.7637,-3475.7767"/>
<path content="AP030,1,28,1,0,15,1,8,JPN" xlink:title="AP030" d="M13600.5188,-3470.9286L13600.8575,-3470.7069L13600.9262,-3470.0413L13601.535,-3469.9306L13602.4841,-3469.9306L13602.9587,-3469.986L13603.2974,-3470.3739L13604.4495,-3470.9843L13605.4688,-3471.4477"/>
<path content="AP030,1,28,1,0,14,1,8,JPN" xlink:title="AP030" d="M13587.1094,-3470.2801L13586.9293,-3470.2267L13586.8103,-3470.2267L13586.7706,-3470.2465L13586.7401,-3470.2999L13586.7004,-3470.3533L13586.6302,-3470.3533L13586.5799,-3470.3533L13586.4899,-3470.3533L13586.2396,-3470.48L13586.0596,-3470.5666L13585.8307,-3470.48L13585.7193,-3470.4399L13585.5194,-3470.4266L13585.3806,-3470.4266L13585.08,-3470.3732L13584.7702,-3470.2465L13584.6802,-3470.2465L13584.5795,-3470.2267L13584.3994,-3470.1199L13584.2194,-3470.1L13583.9905,-3469.9932L13583.9294,-3469.9734L13583.8593,-3469.8334L13583.7692,-3469.7598L13583.7204,-3469.6533L13583.6807,-3469.5267L13583.6105,-3469.5065"/>
<path content="AP030,1,28,1,0,15,1,8,JPN" xlink:title="AP030" d="M13582.605,-3470.9942L13583.2962,-3470.0871L13583.6105,-3469.5065"/>
<path content="AP030,1,28,1,0,15,1,8,JPN" xlink:title="AP030" d="M13579.7638,-3471.1521L13579.5227,-3470.7787L13579.6051,-3469.4817"/>
<path content="AP030,1,28,1,0,14,1,8,JPN" xlink:title="AP030" d="M13580.5801,-3470.6398L13580.6107,-3470.3732L13580.7693,-3470.1L13580.9296,-3469.8868L13580.9906,-3469.6133L13581.0593,-3469.4332"/>
<path content="AP030,1,28,1,0,15,1,8,JPN" xlink:title="AP030" d="M13582.605,-3470.9942L13582.7316,-3470.2656L13582.5745,-3469.3169L13581.2302,-3469.4202L13581.0593,-3469.4332"/>
<path content="AP030,1,28,1,0,15,1,8,JPN" xlink:title="AP030" d="M13579.6051,-3469.4817L13578.2455,-3469.3153"/>
<path content="AP030,1,28,1,0,15,1,8,JPN" xlink:title="AP030" d="M13575.3845,-3471.8159L13576.6778,-3470.8315L13576.7958,-3470.7456"/>
<path content="AP030,1,28,1,0,15,1,8,JPN" xlink:title="AP030" d="M13580.5801,-3470.6398L13580.1468,-3470.0306L13579.9377,-3469.2654"/>
<path content="AP030,1,28,1,0,15,1,8,JPN" xlink:title="AP030" d="M13579.6051,-3469.4817L13579.9377,-3469.2654"/>
<path content="AP030,1,28,1,0,14,1,8,JPN" xlink:title="AP030" d="M13581.0593,-3469.4332L13581.1493,-3469.2532"/>
<path content="AP030,1,28,1,0,15,1,8,JPN" xlink:title="AP030" d="M13579.9377,-3469.2654L13580.5038,-3469.4305L13581.1493,-3469.2532"/>
<path content="AP030,1,28,1,0,14,1,8,JPN" xlink:title="AP030" d="M13583.6105,-3469.5065L13583.49,-3469.4534L13583.5205,-3469.2532"/>
<path content="AP030,1,28,1,0,15,1,8,JPN" xlink:title="AP030" d="M13583.5205,-3469.2532L13583.8104,-3469.2532L13583.8303,-3469.1467L13584.0195,-3469.1467"/>
<path content="AP030,1,28,1,0,14,1,8,JPN" xlink:title="AP030" d="M13587.1094,-3470.2801L13587.2696,-3470.2801L13587.3596,-3470.2465L13587.3993,-3470.1935L13587.4496,-3470.1L13587.5198,-3469.8868L13587.6099,-3469.8132L13587.7197,-3469.7933L13587.8296,-3469.7933L13587.8799,-3469.8132L13587.8296,-3469.8868L13587.7197,-3469.92L13587.6801,-3469.9734L13587.6999,-3470.0466L13587.7899,-3470.0665L13588.06,-3470.0134L13588.2706,-3470.0134L13588.3102,-3469.9932L13588.3606,-3469.9398L13588.3804,-3469.8132L13588.4293,-3469.7598L13588.4506,-3469.7399L13588.5406,-3469.7067L13588.6093,-3469.7067L13588.7405,-3469.7399L13588.7894,-3469.7399L13588.9297,-3469.6865L13588.9694,-3469.6533L13588.9893,-3469.6533L13589.0594,-3469.6533L13589.3997,-3469.6865L13589.5401,-3469.6667L13589.6301,-3469.6335L13589.7202,-3469.5599L13589.83,-3469.4668L13589.9704,-3469.4534L13590.1306,-3469.4332L13590.1794,-3469.3798L13590.2206,-3469.3268L13590.2405,-3469.1265L13590.4007,-3469.0933L13590.5197,-3469.0735L13590.6097,-3469.0933L13590.77,-3469.2734L13590.86,-3469.3268L13590.9302,-3469.3268L13591.2003,-3469.3268L13591.2704,-3469.3268L13591.4505,-3469.4L13591.6107,-3469.4332L13591.6306,-3469.4332L13591.7694,-3469.5599L13591.8594,-3469.6865L13591.8793,-3469.8132L13591.8106,-3469.8868L13591.7007,-3469.9932L13591.7007,-3470.0466L13591.7404,-3470.1L13591.8594,-3470.1199L13592.1997,-3470.1199L13592.2897,-3470.1534L13592.3798,-3470.2599L13592.4698,-3470.3533L13592.6102,-3470.3865L13592.6102,-3470.4266L13592.5797,-3470.4597L13592.5797,-3470.5532L13592.6804,-3470.5532L13592.7902,-3470.5666L13592.8802,-3470.66L13593.1107,-3470.8401L13593.5394,-3471.1067L13593.5593,-3471.1666L13593.6798,-3471.3264L13593.7897,-3471.4001L13594.0201,-3471.7598L13594.0201,-3471.8334L13594.1101,-3472.0135L13594.1498,-3472.1001L13594.1299,-3472.2599L13594.1101,-3472.4068L13594.1299,-3472.44L13594.2001,-3472.5666L13594.22,-3472.6398L13594.22,-3472.8931L13594.2902,-3473.04L13594.3802,-3473.1667L13594.5801,-3473.2864L13594.6503,-3473.2864L13594.9005,-3473.2864L13594.9707,-3473.3265L13595.2698,-3473.3265"/>
<path content="AP030,1,28,1,0,15,1,8,JPN" xlink:title="AP030" d="M13598.1476,-3471.3722L13597.7417,-3471.2612L13597.403,-3471.0949L13597.2672,-3470.9843L13597.3343,-3470.5402L13597.6059,-3470.2076L13597.4701,-3469.5423L13597.4701,-3468.9877"/>
<path content="AP030,1,28,1,0,14,1,8,JPN" xlink:title="AP030" d="M13570.3796,-3471.3467L13570.3995,-3471.2734L13570.52,-3471.0732L13570.61,-3470.9133L13570.61,-3470.8401L13570.6497,-3470.5868L13570.6802,-3470.5334L13570.7001,-3470.2999L13570.8099,-3469.9932L13570.8603,-3469.7598L13570.8603,-3469.5267L13570.9305,-3469.4L13570.9,-3469.2356L13570.8603,-3469.0201L13570.8527,-3468.9568"/>
<path content="AP030,1,28,1,0,15,1,8,JPN" xlink:title="AP030" d="M13570.3125,-3469.2004L13570.8221,-3468.9617L13570.8527,-3468.9568"/>
<path content="AP030,1,28,1,0,14,1,8,JPN" xlink:title="AP030" d="M13581.1493,-3469.2532L13581.1798,-3469.1666L13581.1798,-3469.0933L13581.1798,-3468.9133L13581.1096,-3468.8599L13581.1096,-3468.8198L13580.9906,-3468.7866L13580.7205,-3468.7668L13580.5603,-3468.7668L13580.3299,-3468.7332L13580.1804,-3468.6798L13580.1346,-3468.6199L13580.1102,-3468.5867"/>
<path content="AP030,1,28,1,0,15,1,8,JPN" xlink:title="AP030" d="M13579.9377,-3469.2654L13580.101,-3468.6241L13580.1102,-3468.5867"/>
<path content="AP030,1,28,1,0,15,1,8,JPN" xlink:title="AP030" d="M13595.1294,-3468.5867L13595.9793,-3468.5997L13596.5897,-3468.766L13597.4701,-3468.9877"/>
<path content="AP030,1,28,1,0,14,1,8,JPN" xlink:title="AP030" d="M13595.52,-3472.8397L13595.52,-3472.7135L13595.52,-3472.6067L13595.52,-3472.4998L13595.52,-3472.3732L13595.52,-3472.3198L13595.4498,-3472.1931L13595.3796,-3472.1733L13595.3598,-3472.1535L13595.3995,-3471.9734L13595.3796,-3471.8666L13595.3094,-3471.7934L13595.2698,-3471.6866L13595.1797,-3471.6534L13595.1096,-3471.6133L13595.1096,-3471.5267L13595.0607,-3471.4001L13595.0607,-3471.3799L13595.1492,-3471.2734L13595.1797,-3471.0934L13595.1492,-3470.9465L13595.1096,-3470.8199L13595.1096,-3470.7867L13595.1797,-3470.7333L13595.1797,-3470.66L13595.0607,-3470.48L13595.0394,-3470.4067L13595.0607,-3470.3865L13595.1797,-3470.4597L13595.2393,-3470.48L13595.3293,-3470.48L13595.3796,-3470.4597L13595.3796,-3470.4067L13595.3598,-3470.3197L13595.2896,-3470.2465L13595.2698,-3470.1L13595.1996,-3470.0466L13595.1797,-3469.9734L13595.1996,-3469.8666L13595.2393,-3469.6865L13595.2393,-3469.5934L13595.1996,-3469.5065L13595.2393,-3469.4866L13595.3293,-3469.5065L13595.3598,-3469.4534L13595.3598,-3469.3798L13595.3094,-3469.2734L13595.2393,-3469.1666L13595.2393,-3469.0201L13595.2393,-3468.8934L13595.1797,-3468.8198L13595.1096,-3468.7668L13595.1294,-3468.5867"/>
<path content="AP030,1,28,1,0,15,1,8,JPN" xlink:title="AP030" d="M13572.0856,-3472.4754L13572.3663,-3471.8826L13572.3114,-3471.4764L13572.7829,-3470.8916L13573.1232,-3470.2339L13573.1842,-3469.6983L13573.3932,-3469.3386L13573.8556,-3468.539"/>
<path content="AP030,1,28,1,0,15,1,8,JPN" xlink:title="AP030" d="M13570.8527,-3468.9568L13573.2849,-3468.5593L13573.8556,-3468.539"/>
<path content="AP030,1,28,1,0,15,1,8,JPN" xlink:title="AP030" d="M13574.8856,-3471.5656L13575.0076,-3470.9206L13575.0992,-3469.8933L13575.1541,-3469.6648L13575.3586,-3468.8061L13575.4715,-3468.4704"/>
<path content="AP030,1,28,1,0,15,1,8,JPN" xlink:title="AP030" d="M13573.8556,-3468.539L13575.4715,-3468.4704"/>
<path content="AP030,1,28,1,0,15,1,8,JPN" xlink:title="AP030" d="M13575.4715,-3468.4704L13576.5305,-3468.7222L13576.7899,-3468.4067"/>
<path content="AP030,1,28,1,0,14,1,8,JPN" xlink:title="AP030" d="M13580.1102,-3468.5867L13580.0598,-3468.4799L13580.0598,-3468.4067"/>
<path content="AP030,1,28,1,0,14,1,8,JPN" xlink:title="AP030" d="M13580.0598,-3468.4067L13580.5603,-3468.4067"/>
<path content="AP030,1,28,1,0,14,1,8,JPN" xlink:title="AP030" d="M13583.5205,-3469.2532L13583.5205,-3469.1265L13583.5205,-3468.8599L13583.5205,-3468.5867L13583.5205,-3468.4067"/>
<path content="AP030,1,28,1,0,14,1,8,JPN" xlink:title="AP030" d="M13583.0597,-3468.4067L13583.11,-3468.4067L13583.5205,-3468.4067"/>
<path content="AP030,1,28,1,0,14,1,8,JPN" xlink:title="AP030" d="M13582.1793,-3468.4032L13582.6096,-3468.4067L13583.0597,-3468.4067"/>
<path content="AP030,1,28,1,0,14,1,8,JPN" xlink:title="AP030" d="M13580.5603,-3468.4067L13580.9006,-3468.4067L13581.1798,-3468.4067L13581.7001,-3468.4067L13581.9702,-3468.4067L13582.016,-3468.4067L13582.1793,-3468.4032"/>
<path content="AP030,1,28,1,0,15,1,8,JPN" xlink:title="AP030" d="M13578.2455,-3469.3153L13578.3783,-3468.367L13578.3997,-3468.2068"/>
<path content="AP030,1,28,1,0,14,1,8,JPN" xlink:title="AP030" d="M13576.7899,-3468.4067L13577.2003,-3468.4067L13577.9694,-3468.3533L13578.2196,-3468.3533L13578.3661,-3468.2339L13578.3997,-3468.2068"/>
<path content="AP030,1,28,1,0,15,1,8,JPN" xlink:title="AP030" d="M13578.3997,-3468.2068L13578.4195,-3468.1"/>
<path content="AP030,1,28,1,0,14,1,8,JPN" xlink:title="AP030" d="M13578.3997,-3468.2068L13578.6499,-3468.1"/>
<path content="AP030,1,28,1,0,14,1,8,JPN" xlink:title="AP030" d="M13578.4195,-3468.1L13578.5202,-3468.1L13578.6499,-3468.1"/>
<path content="AP030,1,28,1,0,15,1,8,JPN" xlink:title="AP030" d="M13579.6051,-3469.4817L13579.6448,-3468.7355L13579.6799,-3468.1"/>
<path content="AP030,1,28,1,0,14,1,8,JPN" xlink:title="AP030" d="M13578.6499,-3468.1L13578.8803,-3468.1L13579.6799,-3468.1"/>
<path content="AP030,1,28,1,0,15,1,8,JPN" xlink:title="AP030" d="M13580.0797,-3468.1L13580.5603,-3468.4067"/>
<path content="AP030,1,28,1,0,14,1,8,JPN" xlink:title="AP030" d="M13580.0598,-3468.4067L13580.0598,-3468.2465L13580.0797,-3468.1"/>
<path content="AP030,1,28,1,0,14,1,8,JPN" xlink:title="AP030" d="M13579.6799,-3468.1L13579.95,-3468.1L13580.0797,-3468.1"/>
<path content="AP030,1,28,1,0,16,1,8,JPN" xlink:title="AP030" d="M13603.4698,-3467.7734L13603.5599,-3467.8867L13603.7399,-3467.9932L13603.9001,-3468.0466L13604.0405,-3468.1L13604.3106,-3468.1934L13604.4907,-3468.2999L13604.5807,-3468.3735L13604.7394,-3468.7866L13604.8599,-3468.9865L13604.9698,-3469.0533L13605.0797,-3469.0933L13605.4306,-3469.1467L13605.4688,-3469.1618"/>
<path content="AP030,1,28,1,0,15,1,8,JPN" xlink:title="AP030" d="M13597.4701,-3468.9877L13598.8251,-3468.9323L13599.7055,-3468.766L13600.5875,-3468.766L13601.3992,-3468.5997L13602.8229,-3468.1561L13603.4698,-3467.7734"/>
<path content="AP030,1,28,1,0,14,1,8,JPN" xlink:title="AP030" d="M13583.5205,-3468.4067L13583.49,-3468.1332L13583.5602,-3467.8333L13583.5403,-3467.6533"/>
<path content="AP030,1,28,1,0,15,1,8,JPN" xlink:title="AP030" d="M13582.1793,-3468.4032L13581.9763,-3467.5877"/>
<path content="AP030,1,28,1,0,15,1,8,JPN" xlink:title="AP030" d="M13580.5603,-3468.4067L13581.1996,-3467.8459L13581.694,-3467.6815L13581.9763,-3467.5877"/>
<path content="AP030,1,28,1,0,14,1,8,JPN" xlink:title="AP030" d="M13576.3397,-3467.5831L13576.4893,-3467.5934L13576.8097,-3467.72L13577.0798,-3467.7933L13577.2003,-3467.8467L13577.2705,-3467.8867L13577.3102,-3468.0134L13577.4506,-3468.1L13577.8107,-3468.1L13577.9694,-3468.1L13578.36,-3468.1L13578.4195,-3468.1"/>
<path content="AP030,1,28,1,0,16,1,8,JPN" xlink:title="AP030" d="M13576.7899,-3468.4067L13576.6296,-3468.2598L13576.4893,-3467.9733L13576.3397,-3467.5831"/>
<path content="AP030,1,28,1,0,14,1,8,JPN" xlink:title="AP030" d="M13570.8527,-3468.9568L13570.8298,-3468.7668L13570.8298,-3468.5867L13570.8298,-3468.4601L13570.8099,-3468.28L13570.8603,-3468.1L13570.8298,-3467.9001L13570.7901,-3467.8333L13570.7565,-3467.7872L13570.7001,-3467.7067L13570.6802,-3467.6334L13570.6802,-3467.4866L13570.7703,-3467.2531"/>
<path content="AP030,1,28,1,0,14,1,8,JPN" xlink:title="AP030" d="M13575.8804,-3467.2531L13575.9293,-3467.3065L13576.1093,-3467.4866L13576.1795,-3467.54L13576.2894,-3467.58L13576.3397,-3467.5831"/>
<path content="AP030,1,28,1,0,15,1,8,JPN" xlink:title="AP030" d="M13575.4715,-3468.4704L13575.8804,-3467.2531"/>
<path content="AP030,1,28,1,0,14,1,8,JPN" xlink:title="AP030" d="M13575.47,-3467.2531L13575.5402,-3467.2531L13575.8804,-3467.2531"/>
<path content="AP030,1,28,1,0,16,1,8,JPN" xlink:title="AP030" d="M13570.3125,-3467.3564L13570.3598,-3467.3599L13570.5399,-3467.3267L13570.7703,-3467.2531"/>
<path content="AP030,1,28,1,0,14,1,8,JPN" xlink:title="AP030" d="M13575.4303,-3467.2199L13575.47,-3467.2531"/>
<path content="AP030,1,28,1,0,15,1,8,JPN" xlink:title="AP030" d="M13573.8556,-3468.539L13574.3469,-3467.6411L13575.2228,-3467.522L13575.4303,-3467.2199"/>
<path content="AP030,1,28,1,0,16,1,8,JPN" xlink:title="AP030" d="M13575.5402,-3466.9865L13576.1093,-3467.2733L13576.3107,-3467.5064L13576.3397,-3467.5831"/>
<path content="AP030,1,28,1,0,15,1,8,JPN" xlink:title="AP030" d="M13575.47,-3467.2531L13575.5402,-3466.9865"/>
<path content="AP030,1,28,1,0,14,1,8,JPN" xlink:title="AP030" d="M13574.6994,-3466.9643L13574.7696,-3466.9865L13575.1099,-3467.0399L13575.1801,-3467.0399L13575.2701,-3467.0734L13575.4303,-3467.2199"/>
<path content="AP030,1,28,1,0,16,1,8,JPN" xlink:title="AP030" d="M13574.6994,-3466.9643L13574.8093,-3466.9132L13574.9893,-3466.8598L13575.1099,-3466.8598L13575.2396,-3466.8732L13575.5402,-3466.9865"/>
<path content="AP030,1,28,1,0,16,1,8,JPN" xlink:title="AP030" d="M13570.7703,-3467.2531L13570.9259,-3467.1902L13570.9503,-3467.1799L13571.3303,-3467.0734L13571.7194,-3466.9865L13571.9894,-3466.9132L13572.2198,-3466.84L13572.4503,-3466.7866L13572.9004,-3466.8198L13573.0194,-3466.84L13573.5794,-3466.9865L13573.8602,-3467.0532L13574.0402,-3467.0933L13574.3103,-3467.0734L13574.6506,-3466.9865L13574.6994,-3466.9643"/>
<path content="AP030,1,28,1,0,15,1,8,JPN" xlink:title="AP030" d="M13583.0597,-3468.4067L13582.2769,-3467.1944L13581.9122,-3466.6302"/>
<path content="AP030,1,28,1,0,15,1,8,JPN" xlink:title="AP030" d="M13581.9763,-3467.5877L13581.9321,-3467.3756L13581.871,-3467.0898L13581.9122,-3466.6302"/>
<path content="AP030,1,28,1,0,14,1,8,JPN" xlink:title="AP030" d="M13570.7703,-3467.2531L13570.7703,-3467.1467L13570.7703,-3466.9865L13570.7397,-3466.7999L13570.7703,-3466.6931L13570.8603,-3466.5134L13570.8603,-3466.46"/>
<path content="AP030,1,28,1,0,14,1,8,JPN" xlink:title="AP030" d="M13570.3125,-3466.5658L13570.3293,-3466.5665L13570.5597,-3466.4997L13570.6802,-3466.4799L13570.8603,-3466.46"/>
<path content="AP030,1,28,1,0,14,1,8,JPN" xlink:title="AP030" d="M13570.8603,-3466.46L13571.1105,-3466.46L13571.1258,-3466.4669L13571.3593,-3466.5665L13571.4905,-3466.6397L13571.6095,-3466.6199L13571.6995,-3466.5134L13572.1298,-3466.5531L13572.3999,-3466.5333L13572.6501,-3466.5134L13572.8806,-3466.6199L13573.1094,-3466.6931L13573.2193,-3466.6931L13573.3597,-3466.6199L13573.5397,-3466.6199L13573.6298,-3466.7866L13573.7701,-3466.8198L13573.88,-3466.9132L13574.0601,-3466.9132L13574.2706,-3466.8598L13574.5804,-3466.9266L13574.6994,-3466.9643"/>
<path content="AP030,1,28,1,0,16,1,8,JPN" xlink:title="AP030" d="M13584.0195,-3469.1467L13584.1797,-3469.2867L13584.2407,-3469.3066L13584.3094,-3469.22L13584.3994,-3469.22L13584.4498,-3469.3268L13584.5596,-3469.4332L13584.61,-3469.5267L13584.7,-3469.5801L13584.7702,-3469.5801L13584.79,-3469.5065L13584.8297,-3469.5065L13584.8999,-3469.5599L13584.9899,-3469.5599L13584.9503,-3469.3798L13584.9899,-3469.3066L13585.0403,-3469.2333L13585.0601,-3469.1799L13585.2402,-3469.1265L13585.4004,-3469.22L13585.5194,-3469.1998L13585.5804,-3469.0735L13585.7697,-3469.0201L13585.8307,-3468.8934L13586.2,-3468.8L13586.3998,-3468.7866L13586.4304,-3468.8732L13586.47,-3468.8934L13586.6806,-3468.8732L13586.8301,-3468.9133L13586.9507,-3468.8934L13586.9705,-3468.8L13587.0193,-3468.7866L13587.1506,-3468.7668L13587.2696,-3468.7134L13587.3093,-3468.6398L13587.2894,-3468.5135L13587.1307,-3468.3735L13587.0804,-3468.0134L13587.1094,-3467.9398L13587.6099,-3467.5598L13587.5595,-3467.5064L13587.5793,-3467.4667L13587.7396,-3467.3798L13587.7197,-3467.3267L13587.6297,-3467.2333L13587.5793,-3467.1066L13587.5198,-3467.0734L13587.2192,-3467.0532L13587.1506,-3466.9865L13586.9293,-3466.8598L13586.9293,-3466.7332L13586.8301,-3466.6599L13586.7905,-3466.6065L13586.7905,-3466.5333L13586.7706,-3466.46"/>
<path content="AP030,1,28,1,0,16,1,8,JPN" xlink:title="AP030" d="M13586.7203,-3466.4558L13586.7706,-3466.46"/>
<path content="AP030,1,28,1,0,15,1,8,JPN" xlink:title="AP030" d="M13586.7706,-3466.46L13588.121,-3466.8251L13589.7476,-3466.7694L13590.8981,-3466.4368L13591.9144,-3466.7694L13593.2693,-3467.7677L13593.8797,-3468.2671L13594.4214,-3468.4887L13595.1294,-3468.5867"/>
<path content="AP030,1,28,1,0,15,1,8,JPN" xlink:title="AP030" d="M13586.1099,-3466.4085L13586.7203,-3466.4558"/>
<path content="AP030,1,28,1,0,16,1,8,JPN" xlink:title="AP030" d="M13586.1099,-3466.4085L13585.9894,-3466.5134L13586.0199,-3466.5665L13586.1099,-3466.5665L13586.2198,-3466.4799L13586.29,-3466.4997L13586.2396,-3466.6199L13586.2701,-3466.6798L13586.4502,-3466.6798L13586.5204,-3466.6397L13586.4899,-3466.5333L13586.5402,-3466.5134L13586.6501,-3466.5333L13586.7004,-3466.5134L13586.7203,-3466.4558"/>
<path content="AP030,1,28,1,0,15,1,8,JPN" xlink:title="AP030" d="M13585.8307,-3466.3864L13586.1099,-3466.4085"/>
<path content="AP030,1,28,1,0,15,1,8,JPN" xlink:title="AP030" d="M13583.5403,-3467.6533L13584.8694,-3466.6588L13585.8307,-3466.3864"/>
<path content="AP030,1,28,1,0,16,1,8,JPN" xlink:title="AP030" d="M13585.8307,-3466.3864L13585.9894,-3466.3864L13586.0794,-3466.3334L13586.1496,-3466.3734L13586.1099,-3466.4085"/>
<path content="AP030,1,28,1,0,14,1,8,JPN" xlink:title="AP030" d="M13580.0797,-3468.1L13580.0797,-3468.0134L13580.0797,-3467.7933L13580.0797,-3467.2867L13580.0797,-3467.0933L13579.9896,-3466.9865L13579.9301,-3466.9132L13579.8294,-3466.7332L13579.8187,-3466.312L13579.8096,-3465.9534"/>
<path content="AP030,1,28,1,0,14,1,8,JPN" xlink:title="AP030" d="M13579.8096,-3465.9534L13579.8096,-3465.9"/>
<path content="AP030,1,28,1,0,15,1,8,JPN" xlink:title="AP030" d="M13581.9122,-3466.6302L13581.9473,-3466.1766L13581.9885,-3465.8997"/>
<path content="AP030,1,28,1,0,15,1,8,JPN" xlink:title="AP030" d="M13579.8096,-3465.9534L13581.9885,-3465.8997"/>
<path content="AP030,1,28,1,0,14,1,8,JPN" xlink:title="AP030" d="M13583.5403,-3467.6533L13583.5205,-3467.3065L13583.4503,-3466.9865L13583.3298,-3466.8598L13583.3298,-3465.8665"/>
<path content="AP030,1,28,1,0,15,1,8,JPN" xlink:title="AP030" d="M13581.9885,-3465.8997L13582.7972,-3465.8798L13583.3298,-3465.8665"/>
<path content="AP030,1,28,1,0,15,1,8,JPN" xlink:title="AP030" d="M13578.6331,-3465.8535L13579.2953,-3465.8798L13579.8096,-3465.9"/>
<path content="AP030,1,28,1,0,15,1,8,JPN" xlink:title="AP030" d="M13578.4195,-3468.1L13578.7033,-3466.5478L13578.6331,-3465.8535"/>
<path content="AP030,1,28,1,0,16,1,8,JPN" xlink:title="AP030" d="M13603.4698,-3467.7734L13603.2394,-3466.9865L13603.1998,-3466.3734L13603.1494,-3466.0465L13603.1097,-3465.72L13602.9846,-3465.5769"/>
<path content="AP030,1,28,1,0,14,1,8,JPN" xlink:title="AP030" d="M13605.4688,-3468.2203L13605.4306,-3468.1934L13605.2704,-3468.1332L13605.1498,-3468.0798L13604.8599,-3467.9733L13604.5807,-3467.9932L13604.3793,-3467.9398L13604.3793,-3467.7601L13604.4495,-3467.58L13604.4006,-3467.0532L13604.3106,-3467.0399L13604.2694,-3467.0399L13604.2404,-3467.0933L13604.2206,-3467.1265L13604.0604,-3467.1265L13603.9001,-3466.9865L13603.9307,-3466.7866L13603.9307,-3466.6199L13603.8101,-3466.5134L13603.8803,-3466.3864L13603.7903,-3466.2067L13603.6499,-3466.0797L13603.4302,-3465.9397L13603.36,-3465.8333L13603.2898,-3465.5933L13603.2196,-3465.5266L13603.0594,-3465.5266L13602.9846,-3465.5769"/>
<path content="AP030,1,28,1,0,16,1,8,JPN" xlink:title="AP030" d="M13601.6998,-3464.9864L13602.1103,-3465.2L13602.5192,-3465.2L13602.7893,-3465.4133L13602.9694,-3465.5598L13602.9846,-3465.5769"/>
<path content="AP030,1,28,1,0,14,1,8,JPN" xlink:title="AP030" d="M13602.9846,-3465.5769L13602.7893,-3465.7066L13602.5192,-3465.5598L13602.33,-3465.5399L13602.2003,-3465.4331L13601.8295,-3465.2332L13601.7395,-3465.1798L13601.6495,-3465.1264L13601.6296,-3465.0398L13601.6998,-3464.9864"/>
<path content="AP030,1,28,1,0,15,1,8,JPN" xlink:title="AP030" d="M13578.6331,-3465.8535L13578.5278,-3464.8151"/>
<path content="AP030,1,28,1,0,15,1,8,JPN" xlink:title="AP030" d="M13577.3758,-3464.79L13578.0823,-3464.8052L13578.5278,-3464.8151"/>
<path content="AP030,1,28,1,0,15,1,8,JPN" xlink:title="AP030" d="M13575.5402,-3466.9865L13576.0605,-3466.7286L13577.3209,-3465.2359L13577.3758,-3464.79"/>
<path content="AP030,1,28,1,0,15,1,8,JPN" xlink:title="AP030" d="M13577.1454,-3463.8306L13578.0411,-3464.4684L13578.5278,-3464.8151"/>
<path content="AP030,1,28,1,0,15,1,8,JPN" xlink:title="AP030" d="M13577.1454,-3463.8306L13577.3758,-3464.79"/>
<path content="AP030,1,28,1,0,15,1,8,JPN" xlink:title="AP030" d="M13576.6708,-3463.2759L13577.1454,-3463.8306"/>
<path content="AP030,1,28,1,0,16,1,8,JPN" xlink:title="AP030" d="M13598.5596,-3462.7865L13598.6099,-3462.8597L13598.7701,-3462.9868L13598.8998,-3463.0531L13599.4293,-3463.2332L13599.6796,-3463.3266L13600.2396,-3463.6333L13600.3799,-3463.7199L13600.7401,-3464.1731L13600.9705,-3464.46L13601.0803,-3464.5332L13601.3794,-3464.7331L13601.6998,-3464.9864"/>
<path content="AP030,1,28,1,0,14,1,8,JPN" xlink:title="AP030" d="M13598.5596,-3462.7865L13598.7701,-3462.7865L13598.97,-3462.9265L13599.2004,-3462.9997L13599.4904,-3463.0531L13599.6796,-3463.1268L13599.9298,-3463.2534L13600.2396,-3463.3801L13600.3296,-3463.4132L13600.5203,-3463.4865L13600.6104,-3463.6532L13600.7904,-3463.7066L13600.8102,-3463.7733L13600.9705,-3463.8866L13601.0803,-3463.9732L13601.1093,-3464.2597L13601.1505,-3464.3333L13601.3992,-3464.4264L13601.5396,-3464.6065L13601.68,-3464.7331L13601.7395,-3464.7999L13601.77,-3464.8598L13601.6998,-3464.9864"/>
<path content="AP030,1,28,1,0,15,1,8,JPN" xlink:title="AP030" d="M13581.9885,-3465.8997L13582.0511,-3465.4964L13582.016,-3464.3913L13581.3583,-3463.3713L13580.4306,-3462.5866"/>
<path content="AP030,1,28,1,0,14,1,8,JPN" xlink:title="AP030" d="M13579.8096,-3465.9L13579.7897,-3465.5399L13579.8798,-3465.3599L13580.0201,-3465.0398L13580.1498,-3464.6797L13580.1804,-3464.5866L13580.2399,-3464.1933L13580.3604,-3463.3801L13580.4306,-3462.5866"/>
<path content="AP030,1,28,1,0,16,1,8,JPN" xlink:title="AP030" d="M13598.5596,-3462.7865L13598.5397,-3462.7335L13598.5199,-3462.6598L13598.2697,-3462.2265L13598.1842,-3462.122"/>
<path content="AP030,1,28,1,0,14,1,8,JPN" xlink:title="AP030" d="M13598.5596,-3462.7865L13598.3795,-3462.6934L13598.2697,-3462.6598L13598.2193,-3462.6064L13598.1995,-3462.5L13598.1094,-3462.3867L13598.0804,-3462.2997L13598.1293,-3462.2066L13598.1842,-3462.122"/>
<path content="AP030,1,28,1,0,15,1,8,JPN" xlink:title="AP030" d="M13575.3296,-3461.9934L13576.1292,-3462.7216L13576.6708,-3463.2759"/>
<path content="AP030,1,28,1,0,15,1,8,JPN" xlink:title="AP030" d="M13597.4701,-3468.9877L13597.3343,-3468.3777L13597.2672,-3467.3798L13596.9955,-3466.6588L13596.6568,-3465.8268L13596.6568,-3465.5495L13596.7255,-3464.6626L13596.9955,-3464.0526L13596.8613,-3463.4979L13596.5897,-3462.9433L13596.7255,-3462.4443L13595.8603,-3461.9934"/>
<path content="AP030,1,28,1,0,14,1,8,JPN" xlink:title="AP030" d="M13595.1294,-3468.5867L13595.1492,-3468.5532L13595.1996,-3468.5135L13595.2698,-3468.3533L13595.2393,-3468.2266L13595.1492,-3468.1534L13595.0607,-3468.0668L13595.0195,-3467.9932L13595.0195,-3467.9733L13595.1096,-3467.8867L13595.1492,-3467.7933L13595.1492,-3467.6334L13595.2194,-3467.4866L13595.0195,-3467.3466L13594.7693,-3467.2531L13594.7693,-3467.1799L13594.7693,-3467.0734L13594.7006,-3466.9865L13594.7006,-3466.7465L13594.5801,-3466.5333L13594.5404,-3466.0797L13594.5801,-3465.9931L13594.7693,-3465.7734L13594.7693,-3465.5399L13594.8593,-3465.3599L13594.9005,-3465.2733L13594.9005,-3465.1665L13594.6793,-3465.02L13594.6793,-3464.9666L13594.6793,-3464.6599L13594.5602,-3464.6065L13594.2703,-3464.46L13594.1101,-3464.3333L13594.0598,-3464.2597L13594.0598,-3464.1933L13594.1101,-3464.0667L13594.1803,-3463.9732L13594.31,-3463.8664L13594.4901,-3463.8332L13594.8593,-3463.4666L13594.9295,-3463.4533L13594.9295,-3463.4335L13595.1492,-3463.2332L13595.3293,-3463.1065L13595.5597,-3462.7998L13595.7199,-3462.7666L13595.7703,-3462.64L13595.8099,-3462.5134L13595.99,-3462.3734L13596.0205,-3462.3333L13596.0403,-3462.2066L13595.8801,-3462.0998L13595.8603,-3461.9934"/>
<path content="AP030,1,28,1,0,14,1,8,JPN" xlink:title="AP030" d="M13580.4306,-3462.5866L13580.2902,-3462.3199L13580.1102,-3461.9732"/>
<path content="AP030,1,28,1,0,14,1,8,JPN" xlink:title="AP030" d="M13575.3296,-3461.9934L13575.7202,-3461.9732L13575.8102,-3461.9732L13576.1185,-3461.9732L13576.77,-3461.9732L13577.9297,-3461.9732L13578.0624,-3461.9732L13578.2394,-3461.9732L13578.54,-3461.9732L13580.1102,-3461.9732"/>
<path content="AP030,1,28,1,0,14,1,8,JPN" xlink:title="AP030" d="M13583.3298,-3465.8665L13583.3298,-3464.2597L13583.3298,-3463.6532L13583.3298,-3463.5399L13583.3298,-3462.4798L13583.3099,-3462.2997L13583.2001,-3462.08L13583.2001,-3461.9198L13583.2001,-3461.7199"/>
<path content="AP030,1,28,1,0,14,1,8,JPN" xlink:title="AP030" d="M13595.8603,-3461.9934L13595.6802,-3461.8668L13595.6497,-3461.8134L13595.6497,-3461.7397L13595.7703,-3461.6665L13595.7901,-3461.3998"/>
<path content="AP030,1,28,1,0,16,1,8,JPN" xlink:title="AP030" d="M13596.5027,-3461.3983L13596.8597,-3461.6531L13597.1802,-3461.7931L13598.1506,-3462.08L13598.1842,-3462.122"/>
<path content="AP030,1,28,1,0,14,1,8,JPN" xlink:title="AP030" d="M13595.7901,-3461.3998L13595.8099,-3461.3998L13596.2692,-3461.4132L13596.5027,-3461.3983"/>
<path content="AP030,1,28,1,0,14,1,8,JPN" xlink:title="AP030" d="M13596.5027,-3461.3983L13596.7896,-3461.38L13597.02,-3461.5265L13597.3099,-3461.6531L13597.58,-3461.6531L13597.7005,-3461.7199L13597.9294,-3461.7599L13598.0194,-3461.8134L13598.1506,-3461.8668L13598.2407,-3461.94L13598.2193,-3462.0667L13598.1842,-3462.122"/>
<path content="AP030,1,28,1,0,14,1,8,JPN" xlink:title="AP030" d="M13574.3301,-3461.3266L13574.7192,-3461.6531L13575.0595,-3461.8668L13575.2899,-3461.9934L13575.3296,-3461.9934"/>
<path content="AP030,1,28,1,0,15,1,8,JPN" xlink:title="AP030" d="M13574.3301,-3461.3266L13574.3423,-3462.1479L13574.5361,-3462.4928L13575.946,-3462.9349L13576.6708,-3463.2759"/>
<path content="AP030,1,28,1,0,16,1,8,JPN" xlink:title="AP030" d="M13579.7897,-3461.3068L13580.2002,-3461.3998L13581.1295,-3461.6867L13581.9504,-3461.7065L13582.6782,-3461.7142L13583.2001,-3461.7199"/>
<path content="AP030,1,28,1,0,14,1,8,JPN" xlink:title="AP030" d="M13580.1102,-3461.9732L13579.8096,-3461.4864L13579.7897,-3461.3068"/>
<path content="AP030,1,28,1,0,14,1,8,JPN" xlink:title="AP030" d="M13593.8995,-3461.2198L13593.8797,-3461.3598L13593.9301,-3461.4132L13594.1299,-3461.4666L13594.5404,-3461.3068L13594.8593,-3461.3266L13595.1492,-3461.2534L13595.4498,-3461.2534L13595.6802,-3461.3464L13595.7901,-3461.3998"/>
<path content="AP030,1,28,1,0,16,1,8,JPN" xlink:title="AP030" d="M13593.5455,-3461.1229L13593.8293,-3461.2L13593.8995,-3461.2198"/>
<path content="AP030,1,28,1,0,16,1,8,JPN" xlink:title="AP030" d="M13595.8603,-3461.0199L13595.9,-3461.0397L13596.4294,-3461.3464L13596.5027,-3461.3983"/>
<path content="AP030,1,28,1,0,14,1,8,JPN" xlink:title="AP030" d="M13595.7901,-3461.3998L13595.8099,-3461.2732L13595.8603,-3461.0199"/>
<path content="AP030,1,28,1,0,14,1,8,JPN" xlink:title="AP030" d="M13593.5455,-3461.1229L13593.6096,-3461.0397L13593.6798,-3461.0001L13593.7698,-3461.0001L13593.8797,-3461.0535L13593.8995,-3461.1065L13593.8995,-3461.2198"/>
<path content="AP030,1,28,1,0,16,1,8,JPN" xlink:title="AP030" d="M13593.8995,-3461.2198L13593.9697,-3461.2331L13594.0796,-3461.2534L13594.3298,-3461.2198L13594.9707,-3461.0001"/>
<path content="AP030,1,28,1,0,14,1,8,JPN" xlink:title="AP030" d="M13573.6099,-3460.9867L13573.6801,-3460.9867L13573.8602,-3461.0001L13574.0204,-3461.0733L13574.0402,-3461.0931L13574.3301,-3461.3266"/>
<path content="AP030,1,28,1,0,16,1,8,JPN" xlink:title="AP030" d="M13594.9707,-3461.0001L13595.3094,-3460.9264L13595.5795,-3460.9467L13595.8603,-3461.0199"/>
<path content="AP030,1,28,1,0,16,1,8,JPN" xlink:title="AP030" d="M13590.8997,-3460.8398L13591.1102,-3460.8601L13591.3605,-3460.8734L13592.4896,-3460.8932L13592.7704,-3460.9135L13593.5455,-3461.1229"/>
<path content="AP030,1,28,1,0,14,1,8,JPN" xlink:title="AP030" d="M13593.5455,-3461.1229L13593.4692,-3461.2198L13593.2907,-3461.3266L13593.1503,-3461.3464L13592.9901,-3461.2L13592.7399,-3461.2198L13592.5201,-3461.2L13592.2897,-3461.3068L13591.8793,-3461.2865L13591.7404,-3461.1797L13591.6107,-3461.1797L13591.4307,-3461.3068L13591.04,-3461.2865L13590.8997,-3460.9665L13590.8997,-3460.8398"/>
<path content="AP030,1,28,1,0,14,1,8,JPN" xlink:title="AP030" d="M13570.8603,-3466.46L13570.7901,-3466.3532L13570.8603,-3466.28L13570.8603,-3466.2067L13570.7901,-3466.1331L13570.5399,-3465.9733L13570.4895,-3465.8665L13570.52,-3465.72L13570.5795,-3465.6132L13570.6299,-3465.5399L13570.4697,-3465.3065L13570.4697,-3465.2332L13570.52,-3465.1264L13570.52,-3465.0398L13570.5399,-3464.9132L13570.4895,-3464.8598L13570.4697,-3464.7865L13570.52,-3464.6065L13570.43,-3464.5332L13570.3598,-3464.3734L13570.3598,-3464.3127L13570.3598,-3464.2067L13570.3125,-3464.1654M13570.3125,-3462.6565L13570.43,-3462.5534L13570.5734,-3462.3627L13570.5795,-3462.3531L13570.6299,-3462.2265L13570.6802,-3461.8332L13570.7199,-3461.6867L13570.7703,-3461.6135L13570.7199,-3461.3464L13570.8801,-3461.2865L13571.0205,-3461.2865L13571.1807,-3461.2865L13571.2692,-3461.2534L13571.3806,-3461.0001L13571.5805,-3460.7334"/>
<path content="AP030,1,28,1,0,14,1,8,JPN" xlink:title="AP030" d="M13571.5805,-3460.7334L13572.6303,-3460.7132L13573.3795,-3460.9665L13573.6099,-3460.9867"/>
<path content="AP030,1,28,1,0,16,1,8,JPN" xlink:title="AP030" d="M13583.2001,-3461.7199L13583.2703,-3461.7199L13583.7204,-3461.7199L13584.4894,-3461.5799L13585.08,-3461.5601L13585.2905,-3461.4864L13585.4004,-3461.4334L13585.5194,-3461.38L13585.9894,-3461.3598L13586.3297,-3461.3068L13586.9293,-3461.3598L13587.1307,-3461.3464L13587.4298,-3461.2331L13587.5397,-3461.2198L13587.6297,-3461.2534L13587.6801,-3461.3266L13587.6495,-3461.4132L13587.3993,-3461.5932L13587.2696,-3461.7397L13587.2406,-3461.8465L13587.2696,-3461.9534L13587.3596,-3461.9934L13587.6801,-3462.0464L13587.8601,-3462.0998L13587.9303,-3462.1532L13587.9898,-3462.1933L13588.0798,-3462.3867L13588.1104,-3462.5134L13588.1104,-3462.7865L13588.1805,-3462.9467L13588.2706,-3463.0398L13588.4003,-3463.0932L13588.6505,-3463.0531L13588.8596,-3462.9467L13588.9496,-3462.7998L13589.0594,-3462.6598L13589.1098,-3462.5134L13589.0594,-3462.3867L13589.0198,-3462.3199L13588.7207,-3462.1735L13588.5803,-3462.0132L13588.5193,-3461.8668L13588.5193,-3461.6665L13588.5803,-3461.5067L13588.7695,-3461.3266L13589.2395,-3461.0199L13589.8605,-3460.7998L13590.1093,-3460.7132L13590.2695,-3460.7132L13590.77,-3460.82L13590.8997,-3460.8398"/>
<path content="AP030,1,28,1,0,14,1,8,JPN" xlink:title="AP030" d="M13571.5805,-3460.7334L13571.1807,-3460.26"/>
<path content="AP030,1,28,1,0,15,1,8,JPN" xlink:title="AP030" d="M13570.3125,-3460.8981L13570.3186,-3460.8948L13570.4666,-3460.8143L13571.1807,-3460.26"/>
<path content="AP030,1,28,1,0,14,1,8,JPN" xlink:title="AP030" d="M13583.6304,-3459.7733L13584.0195,-3459.8465L13584.52,-3459.8866L13584.6802,-3460.0132L13584.7702,-3460.0666L13584.8999,-3460.08L13584.9899,-3460.08L13585.1807,-3460.0468L13585.5606,-3459.9934L13585.6293,-3459.9934L13585.8597,-3460.0998L13586.0199,-3460.2066L13586.1298,-3460.2467L13586.1801,-3460.2264L13586.2396,-3460.1334"/>
<path content="AP030,1,28,1,0,14,1,8,JPN" xlink:title="AP030" d="M13583.2001,-3461.7199L13583.2001,-3461.5067L13583.2397,-3461.3266L13583.5205,-3460.8601L13583.5602,-3460.7132L13583.6304,-3460.4599L13583.6304,-3460.4401L13583.6304,-3460.0132L13583.6304,-3459.7733"/>
<path content="AP030,1,28,1,0,14,1,8,JPN" xlink:title="AP030" d="M13583.6304,-3459.7733L13583.6304,-3459.6867"/>
<path content="AP030,1,28,1,0,15,1,8,JPN" xlink:title="AP030" d="M13594.9707,-3461.0001L13594.4611,-3459.5905"/>
<path content="AP030,1,28,1,0,15,1,8,JPN" xlink:title="AP030" d="M13596.4294,-3459.56L13596.9696,-3459.6943L13598.082,-3459.7733L13599.1821,-3460.0494L13599.9634,-3460.3455L13600.4059,-3460.9577L13601.4404,-3461.0004L13602.3941,-3461.0722L13602.5803,-3461.311L13602.2751,-3461.7275L13602.2415,-3462.2871L13602.9633,-3462.9108L13603.4485,-3463.4586L13603.9566,-3463.6444L13604.6341,-3463.6719L13604.8553,-3463.9778L13605.2628,-3464.5226L13605.4688,-3464.7537"/>
<path content="AP030,1,28,1,0,14,1,8,JPN" xlink:title="AP030" d="M13595.8603,-3461.0199L13595.9305,-3460.6068L13595.99,-3460.4267L13596.0205,-3460.3733L13596.2006,-3460.2264L13596.2692,-3460.12L13596.2692,-3459.8667L13596.4294,-3459.5932L13596.4294,-3459.56"/>
<path content="AP030,1,28,1,0,14,1,8,JPN" xlink:title="AP030" d="M13579.8096,-3459.5066L13581.7001,-3459.5398L13582.0801,-3459.56L13582.6096,-3459.5932L13582.6797,-3459.5932L13583.0994,-3459.663L13583.2397,-3459.6867L13583.4305,-3459.6867L13583.6304,-3459.6867"/>
<path content="AP030,1,28,1,0,14,1,8,JPN" xlink:title="AP030" d="M13579.7959,-3460.7167L13579.8065,-3460.194L13579.8096,-3459.9731L13579.8096,-3459.5932L13579.8096,-3459.5066"/>
<path content="AP030,1,28,1,0,15,1,8,JPN" xlink:title="AP030" d="M13594.4611,-3459.5905L13595.5917,-3459.3731L13596.4294,-3459.56"/>
<path content="AP030,1,28,1,0,14,1,8,JPN" xlink:title="AP030" d="M13571.1807,-3460.26L13571.1304,-3460.12L13571.0403,-3459.94L13570.7901,-3459.8133L13570.7779,-3459.6905L13570.7703,-3459.6134L13570.7474,-3459.5669L13570.726,-3459.5238L13570.6802,-3459.4334L13570.5795,-3459.1267"/>
<path content="AP030,1,28,1,0,14,1,8,JPN" xlink:title="AP030" d="M13570.5795,-3459.1267L13570.5597,-3459.0534"/>
<path content="AP030,1,28,1,0,16,1,8,JPN" xlink:title="AP030" d="M13573.8998,-3458.9867L13573.97,-3459.0199L13574.1104,-3459.0733L13574.6094,-3459.4334L13575.1495,-3459.8465L13576.2405,-3460.5133L13576.7197,-3460.7468L13577.2202,-3460.9135L13577.6993,-3461.0535L13578.1616,-3461.1362L13578.6301,-3461.2198L13579.7394,-3461.2865L13579.7897,-3461.3068"/>
<path content="AP030,1,28,1,0,15,1,8,JPN" xlink:title="AP030" d="M13573.6099,-3460.9867L13573.6664,-3459.9808L13573.674,-3459.8324L13573.8998,-3458.9867"/>
<path content="AP030,1,28,1,0,14,1,8,JPN" xlink:title="AP030" d="M13584.5398,-3458.9664L13584.7397,-3458.9867L13585.0601,-3459.2731L13585.2005,-3459.3468L13585.3806,-3459.3468L13585.6094,-3459.4131L13585.6995,-3459.4868L13585.7895,-3459.6134L13585.8795,-3459.8999L13585.9299,-3459.9533L13586.1099,-3460.08L13586.2396,-3460.1334"/>
<path content="AP030,1,28,1,0,14,1,8,JPN" xlink:title="AP030" d="M13579.8096,-3459.5066L13579.8096,-3458.4801"/>
<path content="AP030,1,28,1,0,15,1,8,JPN" xlink:title="AP030" d="M13573.8998,-3458.9867L13574.1425,-3458.44"/>
<path content="AP030,1,28,1,0,16,1,8,JPN" xlink:title="AP030" d="M13572.6105,-3458.3866L13572.9523,-3458.5629L13573.1796,-3458.68L13573.8998,-3458.9867"/>
<path content="AP030,1,28,1,0,15,1,8,JPN" xlink:title="AP030" d="M13570.5597,-3459.0534L13570.8481,-3458.9653L13571.9894,-3458.6159L13572.6105,-3458.3866"/>
<path content="AP030,1,28,1,0,14,1,8,JPN" xlink:title="AP030" d="M13586.2396,-3460.1334L13586.4502,-3460.12L13586.7004,-3459.8999L13586.8805,-3459.7733L13587.2696,-3459.6333L13587.3596,-3459.3597L13587.3993,-3459.1267L13587.4298,-3459.0401L13587.3993,-3459.0199L13587.2696,-3459.0199L13587.1994,-3458.9664L13587.2192,-3458.8734L13587.2696,-3458.86L13587.4893,-3458.86L13587.5397,-3458.8734L13587.6801,-3459.0199L13587.7701,-3459.0401L13587.8098,-3459.0935L13587.8998,-3459.0935L13588.1104,-3459.0401L13588.3301,-3459.0401L13588.4506,-3458.8398L13588.5193,-3458.7997L13588.7894,-3458.7334L13588.8107,-3458.6933L13588.7894,-3458.5533L13588.8992,-3458.4599L13588.9297,-3458.3733L13589.0198,-3458.3534L13589.0396,-3458.3733L13589.0594,-3458.4801L13589.3097,-3458.6201L13589.4302,-3458.6399L13589.5798,-3458.6201L13589.6805,-3458.5533L13589.74,-3458.4267L13589.83,-3458.3733L13589.9002,-3458.3534L13590.0406,-3458.4267L13590.1306,-3458.6067L13590.1093,-3458.68L13590.0406,-3458.7467L13590.0803,-3458.7868L13590.2695,-3458.7868L13590.2695,-3458.82L13590.2893,-3459L13590.4495,-3459.1999L13590.5396,-3459.3468L13590.7196,-3459.6535L13590.77,-3459.8465L13590.7898,-3460.0266L13590.77,-3460.26L13590.77,-3460.5L13590.8096,-3460.5534L13590.8997,-3460.68L13590.8997,-3460.8398"/>
<path content="AP030,1,28,1,0,14,1,8,JPN" xlink:title="AP030" d="M13596.4294,-3459.56L13596.4005,-3459.3067L13596.3303,-3459.1267L13596.3303,-3458.9867L13596.4706,-3458.7467L13596.6797,-3458.5865L13596.8994,-3458.5335L13596.9299,-3458.3534"/>
<path content="AP030,1,28,1,0,15,1,8,JPN" xlink:title="AP030" d="M13574.1425,-3458.44L13574.6094,-3458.7742L13574.9344,-3458.7658L13575.7263,-3458.2619L13576.6724,-3458.3027L13577.9022,-3458.5796L13578.4302,-3458.5632L13579.1245,-3458.5423L13579.8096,-3458.4801"/>
<path content="AP030,1,28,1,0,14,1,8,JPN" xlink:title="AP030" d="M13579.8096,-3458.4801L13579.8096,-3458.2066"/>
<path content="AP030,1,28,1,0,14,1,8,JPN" xlink:title="AP030" d="M13570.5597,-3459.0534L13570.52,-3458.8734L13570.52,-3458.6067L13570.3125,-3458.2916"/>
<path content="AP030,1,28,1,0,14,1,8,JPN" xlink:title="AP030" d="M13583.6304,-3459.6867L13583.6304,-3459.2533L13583.6807,-3458.9134L13583.6807,-3458.4599L13583.9294,-3457.7732"/>
<path content="AP030,1,28,1,0,15,1,8,JPN" xlink:title="AP030" d="M13572.6105,-3458.3866L13573.5123,-3457.6954L13573.7305,-3457.8465L13573.8235,-3457.9105L13574.1425,-3458.44"/>
<path content="AP030,1,28,1,0,15,1,8,JPN" xlink:title="AP030" d="M13579.8096,-3458.2066L13580.159,-3458.0261L13581.4346,-3457.5645L13582.7057,-3457.6187L13583.5358,-3457.7236L13583.9294,-3457.7732"/>
<path content="AP030,1,28,1,0,16,1,8,JPN" xlink:title="AP030" d="M13571.5607,-3457.3799L13571.8796,-3457.7934L13572.1298,-3458.0467L13572.6105,-3458.3866"/>
<path content="AP030,1,28,1,0,15,1,8,JPN" xlink:title="AP030" d="M13570.3125,-3458.0192L13570.4239,-3457.9624L13571.5607,-3457.3799"/>
<path content="AP030,1,28,1,0,14,1,8,JPN" xlink:title="AP030" d="M13570.3125,-3459.2919L13570.43,-3459.2731L13570.5795,-3459.1267"/>
<path content="AP030,1,28,1,0,16,1,8,JPN" xlink:title="AP030" d="M13570.3125,-3456.4499L13570.4498,-3456.48L13570.8603,-3456.7333L13571.1304,-3456.9466L13571.5607,-3457.3799"/>
<path content="AP030,1,28,1,0,14,1,8,JPN" xlink:title="AP030" d="M13602.1805,-3456.3534L13602.4002,-3456.3866L13602.5604,-3456.4999L13602.5192,-3456.6933L13602.5192,-3456.7135L13602.5192,-3456.8398L13602.5604,-3456.8932L13602.8305,-3457.18L13603.1799,-3457.4867L13603.4302,-3457.6534L13603.6102,-3457.74L13603.7903,-3457.7732L13603.9902,-3457.7934L13604.0802,-3457.8667L13604.2007,-3457.9201L13604.5395,-3457.9533L13604.6295,-3458.0467L13604.6021,-3458.1558L13604.5807,-3458.2466L13604.6494,-3458.3534L13604.7394,-3458.4064L13604.9698,-3458.4801L13605.1102,-3458.5865L13605.1102,-3458.6597L13605.1804,-3458.7132L13605.2399,-3458.7666L13605.4688,-3458.7866"/>
<path content="AP030,1,28,1,0,15,1,8,JPN" xlink:title="AP030" d="M13596.9299,-3458.3534L13598.3505,-3458.1741L13599.028,-3457.7862L13599.9771,-3456.9542L13600.9933,-3456.8436L13601.5533,-3456.612L13602.1805,-3456.3534"/>
<path content="AP030,1,28,1,0,14,1,8,JPN" xlink:title="AP030" d="M13579.8096,-3458.2066L13579.7897,-3457.2533L13579.7699,-3456.6067L13579.7699,-3456.5533L13579.7699,-3456.3198"/>
<path content="AP030,1,28,1,0,15,1,8,JPN" xlink:title="AP030" d="M13574.1425,-3458.44L13574.321,-3457.3456L13574.408,-3456.815L13574.4217,-3456.2939"/>
<path content="AP030,1,28,1,0,15,1,8,JPN" xlink:title="AP030" d="M13571.5607,-3457.3799L13573.3215,-3456.7204L13574.4217,-3456.2939"/>
<path content="AP030,1,28,1,0,15,1,8,JPN" xlink:title="AP030" d="M13574.4217,-3456.2939L13575.1831,-3456.2073"/>
<path content="AP030,1,28,1,0,14,1,8,JPN" xlink:title="AP030" d="M13583.9294,-3457.7732L13584.0607,-3457.5066L13584.0805,-3457.4665L13584.3307,-3457.1999L13584.3796,-3456.9267L13584.3796,-3456.8932L13584.4696,-3456.4598L13584.5596,-3456.1932"/>
<path content="AP030,1,28,1,0,15,1,8,JPN" xlink:title="AP030" d="M13579.7699,-3456.3198L13582.0541,-3456.3354L13582.5806,-3456.1337L13583.8318,-3456.1714L13584.5596,-3456.1932"/>
<path content="AP030,1,28,1,0,15,1,8,JPN" xlink:title="AP030" d="M13575.1831,-3456.2073L13576.5076,-3456.0566L13577.8305,-3455.5798"/>
<path content="AP030,1,28,1,0,14,1,8,JPN" xlink:title="AP030" d="M13577.8305,-3455.5798L13577.7695,-3455.4867L13577.7405,-3455.0198"/>
<path content="AP030,1,28,1,0,14,1,8,JPN" xlink:title="AP030" d="M13579.7699,-3456.3198L13579.7394,-3455.4001L13579.7394,-3454.7867"/>
<path content="AP030,1,28,1,0,15,1,8,JPN" xlink:title="AP030" d="M13577.8305,-3455.5798L13579.155,-3455.0293L13579.7394,-3454.7867"/>
<path content="AP030,1,28,1,0,14,1,8,JPN" xlink:title="AP030" d="M13579.7394,-3454.7867L13579.7394,-3454.7665"/>
<path content="AP030,1,28,1,0,15,1,8,JPN" xlink:title="AP030" d="M13575.3418,-3454.0302L13576.384,-3454.6806L13577.1027,-3454.8908L13577.7405,-3455.0198"/>
<path content="AP030,1,28,1,0,15,1,8,JPN" xlink:title="AP030" d="M13575.1831,-3456.2073L13575.3418,-3454.0302"/>
<path content="AP030,1,28,1,0,14,1,8,JPN" xlink:title="AP030" d="M13596.3303,-3453.4866L13596.4706,-3453.5934L13596.6995,-3453.8666L13596.8597,-3454.0466L13596.8796,-3454.0798L13597.3099,-3454.2797L13597.5204,-3454.3533L13597.7707,-3454.6398L13597.9294,-3454.7134L13597.9904,-3454.8401L13598.1506,-3454.9465L13598.2193,-3454.9999L13598.4497,-3455.3066L13598.6496,-3455.3799L13598.9502,-3455.5798L13599.0799,-3455.6332L13599.3607,-3455.6866L13599.6796,-3455.7198L13599.7406,-3455.74L13599.8093,-3455.8132L13600.0198,-3456.0135L13600.2197,-3456.0265L13600.4303,-3456.1733L13600.5203,-3456.1932L13600.6332,-3456.1317L13600.7904,-3456.0467L13600.9293,-3456.0467L13601.0803,-3456.1333L13601.1505,-3456.1333L13601.4496,-3456.0467L13601.6495,-3456.0665L13601.77,-3456.1333L13601.9302,-3456.3L13602.1805,-3456.3534"/>
<path content="AP030,1,28,1,0,14,1,8,JPN" xlink:title="AP030" d="M13596.9299,-3458.3534L13596.8796,-3458.2268L13596.8094,-3458.12L13596.8094,-3458.0132L13596.6995,-3457.8865L13596.3104,-3457.3997L13595.99,-3457.1266L13595.8801,-3456.9134L13595.8801,-3456.5533L13595.8099,-3456.4266L13595.8603,-3456.3L13595.8603,-3456.2466L13595.9,-3456.1199L13595.8801,-3456.0665L13595.7901,-3455.5599L13595.4895,-3455.5065L13595.4697,-3455.4333L13595.4895,-3455.3799L13595.7703,-3455.3066L13595.7901,-3455.1998L13595.9503,-3454.9667L13596.1105,-3454.8199L13596.1304,-3454.7665L13596.2692,-3454.5334L13596.2906,-3454.2797L13596.2692,-3454.1534L13596.1807,-3453.92L13596.1807,-3453.8666L13596.2006,-3453.7933L13596.3303,-3453.4866"/>
<path content="AP030,1,28,1,0,14,1,8,JPN" xlink:title="AP030" d="M13595.8801,-3453.3066L13596.1304,-3453.36L13596.2906,-3453.4332L13596.3303,-3453.4866"/>
<path content="AP030,1,28,1,0,14,1,8,JPN" xlink:title="AP030" d="M13595.8801,-3453.3066L13595.9061,-3453.1437L13595.9305,-3452.9999"/>
<path content="AP030,1,28,1,0,14,1,8,JPN" xlink:title="AP030" d="M13595.7703,-3452.9266L13595.9305,-3452.9999"/>
<path content="AP030,1,28,1,0,14,1,8,JPN" xlink:title="AP030" d="M13590.3107,-3452.9133L13590.4495,-3452.9266L13590.7898,-3453.0399L13591.0797,-3453.1467L13591.4505,-3453.1799L13591.8594,-3453.1998L13592.0395,-3453.1998L13592.3798,-3453.2333L13593.0801,-3453.22L13593.6493,-3453.36L13593.8293,-3453.36L13594.1803,-3453.4332L13594.2902,-3453.4534L13594.5206,-3453.4664L13594.7906,-3453.36L13594.8593,-3453.36L13595.0806,-3453.3798L13595.43,-3453.4664L13595.5399,-3453.4664L13595.5795,-3453.4332L13595.8801,-3453.3066"/>
<path content="AP030,1,28,1,0,15,1,8,JPN" xlink:title="AP030" d="M13594.4611,-3459.5905L13593.8309,-3459.465L13592.9077,-3458.8985L13591.745,-3458.3221L13591.6443,-3458.0212L13592.0563,-3457.8072L13591.539,-3457.1255L13590.9271,-3456.7039L13590.9195,-3456.1756L13591.5451,-3455.7068L13591.5894,-3454.9828L13590.8981,-3454.5578L13590.3107,-3452.9133"/>
<path content="AP030,1,28,1,0,15,1,8,JPN" xlink:title="AP030" d="M13574.4217,-3456.2939L13574.5773,-3455.4096L13574.4431,-3453.6777L13574.3805,-3452.4265"/>
<path content="AP030,1,28,1,0,14,1,8,JPN" xlink:title="AP030" d="M13570.3125,-3454.2232L13570.4697,-3454.1733L13570.5795,-3454.1534L13570.7382,-3454.1698L13570.7703,-3454.1733L13570.99,-3454.2065L13571.2006,-3454.2065L13571.4905,-3454.0798L13571.8796,-3453.7933L13571.8994,-3453.7197L13571.9299,-3453.5599L13572.02,-3453.4664L13572.5204,-3453.1799L13572.6303,-3453.1067L13572.8806,-3452.9266L13573.4695,-3452.6066L13573.7701,-3452.4265L13574.3805,-3452.4265"/>
<path content="AP030,1,28,1,0,15,1,8,JPN" xlink:title="AP030" d="M13575.3418,-3454.0302L13575.0397,-3452.4265"/>
<path content="AP030,1,28,1,0,14,1,8,JPN" xlink:title="AP030" d="M13574.3805,-3452.4265L13575.0397,-3452.4265"/>
<path content="AP030,1,28,1,0,14,1,8,JPN" xlink:title="AP030" d="M13584.5596,-3456.1932L13584.61,-3456.1199L13584.6497,-3455.8132L13584.6802,-3455.5599L13584.6802,-3455.4867L13584.6802,-3455.0732L13584.5596,-3454.7665L13584.3597,-3454.4998L13584.1232,-3454.3003L13583.9493,-3454.1534L13583.8593,-3454.0466L13583.7692,-3453.9734L13583.7402,-3453.7197L13583.9493,-3453.2867L13584.1095,-3453.0533L13584.2407,-3452.9133L13584.2697,-3452.7866L13584.2697,-3452.7332L13584.3796,-3452.4597L13584.3994,-3452.28L13584.3796,-3451.8131L13584.3796,-3451.7399"/>
<path content="AP030,1,28,1,0,15,1,8,JPN" xlink:title="AP030" d="M13579.7394,-3454.7665L13580.5054,-3454.3495L13581.0852,-3453.5435L13581.7215,-3453.3539L13582.3013,-3453.0216L13583.2855,-3452.2633L13583.9233,-3451.7414L13584.3796,-3451.7399"/>
<path content="AP030,1,28,1,0,14,1,8,JPN" xlink:title="AP030" d="M13590.3107,-3452.9133L13590.2695,-3452.9133L13589.9506,-3452.7466L13589.7003,-3452.7466L13589.4699,-3452.7466L13589.36,-3452.7134L13589.2197,-3452.6066L13588.5193,-3452.4799L13588.1302,-3452.3865L13587.8601,-3452.3335L13587.5595,-3452.2064L13587.1094,-3452.0267L13586.7203,-3451.7067L13586.6104,-3451.58L13586.557,-3451.4431L13586.5204,-3451.3466L13586.47,-3451.2333"/>
<path content="AP030,1,28,1,0,14,1,8,JPN" xlink:title="AP030" d="M13570.3125,-3453.3878L13570.3293,-3453.1998L13570.3293,-3453.0197L13570.3598,-3452.9133L13570.61,-3452.7466L13570.9,-3452.6199L13570.9503,-3452.5665L13570.9503,-3452.1534L13571.1502,-3451.9932L13571.1807,-3451.5064L13571.1807,-3451.2531L13571.2692,-3451.1467L13571.4294,-3451.0735"/>
<path content="AP030,1,28,1,0,14,1,8,JPN" xlink:title="AP030" d="M13575.0397,-3452.4265L13574.9695,-3452.2064L13574.9695,-3452.1L13574.9695,-3451.9485L13574.9695,-3451.4L13574.9863,-3451.2768L13575.0198,-3451.0201"/>
<path content="AP030,1,28,1,0,14,1,8,JPN" xlink:title="AP030" d="M13571.4294,-3451.0735L13571.6797,-3450.9998L13572.3099,-3450.9998L13572.3801,-3450.9998L13572.4503,-3451.0201L13572.7203,-3451.0735L13573.7396,-3451.0532L13574.1806,-3451.0201L13574.5407,-3451.0201L13574.7345,-3451.0201L13575.0198,-3451.0201"/>
<path content="AP030,1,28,1,0,14,1,8,JPN" xlink:title="AP030" d="M13585.5194,-3451.0399L13585.7407,-3450.9666L13586.2701,-3451.1467L13586.47,-3451.2333"/>
<path content="AP030,1,28,1,0,14,1,8,JPN" xlink:title="AP030" d="M13570.3125,-3451.0399L13570.61,-3451.0399L13571.2067,-3451.0212L13571.4294,-3451.0735"/>
<path content="AP030,1,28,1,0,14,1,8,JPN" xlink:title="AP030" d="M13579.1504,-3450.8934L13579.6097,-3450.9132L13580.0598,-3450.9132"/>
<path content="AP030,1,28,1,0,14,1,8,JPN" xlink:title="AP030" d="M13579.1504,-3450.8934L13579.1306,-3450.9998L13579.3594,-3450.9998L13579.3594,-3451.0933L13579.3762,-3451.3577L13579.3793,-3451.4332L13579.5593,-3451.6533L13579.6799,-3451.7597L13579.7699,-3451.9199L13579.7897,-3452.0798L13579.7699,-3453.0399L13579.7699,-3453.7197L13579.7699,-3453.9734L13579.7699,-3454.0134L13579.7394,-3454.7665"/>
<path content="AP030,1,28,1,0,14,1,8,JPN" xlink:title="AP030" d="M13575.0198,-3451.0201L13575.0198,-3450.8598"/>
<path content="AP030,1,28,1,0,14,1,8,JPN" xlink:title="AP030" d="M13584.3597,-3450.84L13584.5398,-3450.8598L13584.6497,-3450.8598L13584.8801,-3450.8732L13584.9899,-3450.9865L13585.2203,-3450.9998L13585.5194,-3451.0399"/>
<path content="AP030,1,28,1,0,14,1,8,JPN" xlink:title="AP030" d="M13584.3796,-3451.7399L13584.3689,-3451.4465L13584.3613,-3451.2615L13584.3597,-3451.2199L13584.3597,-3451.0399L13584.3597,-3450.84"/>
<path content="AP030,1,28,1,0,14,1,8,JPN" xlink:title="AP030" d="M13575.0198,-3450.8598L13575.3296,-3450.8598L13576.0605,-3450.7465"/>
<path content="AP030,1,28,1,0,15,1,8,JPN" xlink:title="AP030" d="M13585.5194,-3451.0399L13585.2432,-3450.7431"/>
<path content="AP030,1,28,1,0,14,1,8,JPN" xlink:title="AP030" d="M13580.0598,-3450.9132L13581.3797,-3450.8732L13581.5399,-3450.8732L13581.7139,-3450.7755L13581.8604,-3450.6931L13582.1304,-3450.6798L13582.8796,-3450.7332L13583.8104,-3450.7999L13584.3597,-3450.84"/>
<path content="AP030,1,28,1,0,14,1,8,JPN" xlink:title="AP030" d="M13576.68,-3450.6599L13576.9104,-3450.8709L13577.1103,-3451.0532L13577.7695,-3451.6335L13577.7695,-3451.8612L13577.7695,-3452.6199L13577.7695,-3453.4134L13577.7695,-3453.7067L13577.7405,-3455.0198"/>
<path content="AP030,1,28,1,0,14,1,8,JPN" xlink:title="AP030" d="M13576.0605,-3450.7465L13576.5793,-3450.6798L13576.68,-3450.6599"/>
<path content="AP030,1,28,1,0,14,1,8,JPN" xlink:title="AP030" d="M13579.1504,-3450.8934L13579.1229,-3450.7557L13579.1107,-3450.6931L13579.0802,-3450.4799"/>
<path content="AP030,1,28,1,0,14,1,8,JPN" xlink:title="AP030" d="M13578.9307,-3450.2464L13579.0405,-3450.3532L13579.0512,-3450.3868L13579.0802,-3450.4799"/>
<path content="AP030,1,28,1,0,14,1,8,JPN" xlink:title="AP030" d="M13576.68,-3450.6599L13577.6993,-3450.4997L13577.8305,-3450.4799L13578.2898,-3450.4066L13578.6499,-3450.3201L13578.9307,-3450.2464"/>
<path content="AP030,1,28,1,0,14,1,8,JPN" xlink:title="AP030" d="M13579.0802,-3450.4799L13579.2694,-3450.4265L13579.3793,-3450.2998L13579.6097,-3450.0801"/>
<path content="AP030,1,28,1,0,14,1,8,JPN" xlink:title="AP030" d="M13578.9307,-3450.2464L13579.1611,-3450.19L13579.6097,-3450.0801"/>
<path content="AP030,1,28,1,0,14,1,8,JPN" xlink:title="AP030" d="M13580.0598,-3450.9132L13580.0659,-3450.6973L13580.0797,-3450.2464L13580.0797,-3450.0668L13579.95,-3450.0465L13579.6494,-3450.0668L13579.6097,-3450.0801"/>
<path content="AP030,1,28,1,0,14,1,8,JPN" xlink:title="AP030" d="M13595.9305,-3452.9999L13596.2692,-3452.8934L13596.6095,-3452.8732L13596.8796,-3452.6932L13597.29,-3452.6932L13597.3602,-3452.66L13597.3801,-3452.4799L13597.6105,-3452.2598L13597.7707,-3452.0798L13597.9706,-3451.9398L13598.2193,-3451.9199L13598.3597,-3451.8467L13598.4299,-3451.7735L13598.5596,-3451.72L13598.6298,-3451.6335L13598.7,-3451.6132L13598.8602,-3451.6335L13599.0204,-3451.5064L13599.0601,-3451.4332L13599.1104,-3451.3268L13599.4507,-3450.9464L13599.4705,-3450.8732L13599.4705,-3450.7999L13599.4705,-3450.6397L13599.4003,-3450.4997L13599.2905,-3450.3532L13599.2706,-3450.28L13599.2905,-3450.1934L13599.4293,-3450.1202L13599.4293,-3449.8867"/>
<path content="AP030,1,28,1,0,14,1,8,JPN" xlink:title="AP030" d="M13576.0605,-3449.7398L13576.5793,-3449.8466L13576.6296,-3449.8466L13577.24,-3449.9199L13577.7405,-3449.9733"/>
<path content="AP030,1,28,1,0,15,1,8,JPN" xlink:title="AP030" d="M13576.0605,-3450.7465L13576.0605,-3449.7398"/>
<path content="AP030,1,28,1,0,14,1,8,JPN" xlink:title="AP030" d="M13576.0193,-3449.72L13576.0605,-3449.7398"/>
<path content="AP030,1,28,1,0,14,1,8,JPN" xlink:title="AP030" d="M13575.0198,-3450.8598L13574.7299,-3450.8598L13574.5605,-3450.8598L13574.1806,-3450.8598L13574.1562,-3450.5848L13574.1501,-3450.5135L13573.4695,-3449.9401L13573.4695,-3449.6532"/>
<path content="AP030,1,28,1,0,14,1,8,JPN" xlink:title="AP030" d="M13573.4695,-3449.6532L13574.202,-3449.6532L13574.2401,-3449.6532L13574.8306,-3449.5602L13575.2197,-3449.5399L13575.3601,-3449.58L13575.7523,-3449.6632L13576.0193,-3449.72"/>
<path content="AP030,1,28,1,0,14,1,8,JPN" xlink:title="AP030" d="M13570.3125,-3449.547L13570.4692,-3449.5497L13571.2692,-3449.6132L13572.1802,-3449.6334L13572.6654,-3449.6407L13573.4695,-3449.6532"/>
<path content="AP030,1,28,1,0,15,1,8,JPN" xlink:title="AP030" d="M13602.1805,-3456.3534L13602.2812,-3455.6232L13602.89,-3455.2906L13603.4332,-3454.9026L13603.7033,-3454.348L13603.9749,-3453.6827L13604.4495,-3453.2391L13604.9225,-3452.7954L13604.9911,-3452.1854L13604.9911,-3451.1318L13605.127,-3450.4108L13605.4657,-3450.1335L13605.4688,-3450.0052"/>
<path content="AP030,1,28,1,0,14,1,8,JPN" xlink:title="AP030" d="M13603.6499,-3448.3734L13603.9505,-3448.4264L13604.5197,-3448.5134L13604.9896,-3448.6065L13605.1498,-3448.6065L13605.22,-3448.6198L13605.2399,-3448.7331L13605.3299,-3448.8201L13605.3604,-3448.9132L13605.4001,-3449.0932L13605.4306,-3449.1066L13605.4688,-3449.1066"/>
<path content="AP030,1,28,1,0,14,1,8,JPN" xlink:title="AP030" d="M13599.4293,-3449.8867L13599.4705,-3449.8135L13599.6094,-3449.6334L13599.6796,-3449.5399L13599.8306,-3449.3999L13599.9695,-3449.3999L13600.0397,-3449.3599L13600.3998,-3449.1264L13600.6302,-3449.0002L13600.8804,-3448.9132L13601.3596,-3448.9265L13601.68,-3448.7999L13601.8799,-3448.7999L13601.9897,-3448.84L13602.2903,-3448.84L13602.3102,-3448.84L13602.6306,-3448.8201L13603.0197,-3448.7465L13603.27,-3448.6065L13603.3096,-3448.5134L13603.36,-3448.46L13603.45,-3448.3868L13603.6499,-3448.3734"/>
<path content="AP030,1,28,1,0,14,1,8,JPN" xlink:title="AP030" d="M13595.7703,-3452.9266L13595.5399,-3452.9465L13595.2393,-3452.9865L13595.1294,-3452.9465L13594.9707,-3452.84L13594.8593,-3452.66L13594.6106,-3452.6798L13594.5404,-3452.66L13594.5206,-3452.5867L13594.4901,-3452.4998L13594.4504,-3452.4399L13594.3298,-3452.4399L13594.1803,-3452.4399L13594.1498,-3452.4265L13593.9301,-3452.2465L13593.9301,-3452.0134L13593.8095,-3451.6533L13593.6798,-3451.4534L13593.4906,-3451.2733L13593.3304,-3451.1066L13593.3304,-3450.8934L13593.2693,-3450.7866L13593.2693,-3450.6931L13593.3304,-3450.4066L13593.3304,-3450.3201L13593.2693,-3450.2602L13593.2693,-3450.1534L13593.3594,-3450.0999L13593.3105,-3450.0267L13593.1305,-3449.8867L13593.1503,-3449.7734L13593.1793,-3449.4865L13593.0405,-3449.3065L13592.9901,-3449.2332L13592.9306,-3448.9132L13593.1793,-3448.6935L13593.2693,-3448.5332L13593.2907,-3448.5001L13593.3304,-3448.32L13593.2907,-3447.9733L13593.4494,-3447.6532"/>
<path content="AP030,1,28,1,0,14,1,8,JPN" xlink:title="AP030" d="M13593.1305,-3447.5933L13593.4494,-3447.6532"/>
<path content="AP030,1,28,1,0,14,1,8,JPN" xlink:title="AP030" d="M13586.47,-3451.2333L13586.9003,-3450.9865L13587.2192,-3450.7999L13587.2696,-3450.7465L13587.2696,-3450.6199L13587.3596,-3450.5135L13587.3993,-3450.4799L13587.6999,-3450.28L13587.8601,-3450.2464L13588.1104,-3450.2602L13588.5193,-3450.2602L13588.7695,-3450.2068L13589.0396,-3450.28L13589.3997,-3450.2602L13590.1505,-3450.5531L13590.4694,-3450.6397L13590.7196,-3450.6798L13591.1301,-3450.8198L13591.1804,-3450.7465L13591.1301,-3450.6931L13591.0599,-3450.6065L13591.0797,-3450.5665L13591.33,-3450.4265L13591.4001,-3450.3201L13591.5207,-3450.2068L13591.5604,-3450.1732L13591.8304,-3450.1534L13592.0395,-3450.0668L13592.1097,-3450.0465L13592.2699,-3450.0134L13592.5598,-3449.9931L13592.8604,-3449.8333L13592.8299,-3449.3999L13592.7704,-3449.1066L13592.7704,-3449.0398L13592.7399,-3448.9132L13592.7002,-3448.5134L13592.6804,-3448.1335L13592.72,-3448.0133L13592.8604,-3447.8333L13593.1305,-3447.5933"/>
<path content="AP030,1,28,1,0,15,1,8,JPN" xlink:title="AP030" d="M13596.8597,-3447.4667L13597.2137,-3447.802L13597.2672,-3448.035L13597.8317,-3448.3555L13598.027,-3448.8804L13598.6984,-3449.194L13599.4293,-3449.8867"/>
<path content="AP030,1,28,1,0,15,1,8,JPN" xlink:title="AP030" d="M13595.7703,-3452.9266L13595.2316,-3451.5923L13594.8868,-3450.2579L13595.0333,-3449.8127L13595.7031,-3449.0814L13596.8597,-3447.4667"/>
<path content="AP030,1,28,1,0,14,1,8,JPN" xlink:title="AP030" d="M13593.4494,-3447.6532L13593.6996,-3447.6868L13593.8293,-3447.7402L13594.1803,-3447.7402L13594.4504,-3447.7932L13594.9005,-3447.7932L13595.2194,-3447.6665L13595.3598,-3447.6131L13595.6497,-3447.6665L13596.0403,-3447.7066L13596.2006,-3447.6665L13596.4905,-3447.58L13596.8597,-3447.4667"/>
<path content="AP030,1,28,1,0,14,1,8,JPN" xlink:title="AP030" d="M13596.8597,-3447.4667L13596.9498,-3447.4335L13597.1802,-3447.3465L13597.29,-3447.3267L13597.4899,-3447.3465L13598.0194,-3447.02L13598.1995,-3446.9131"/>
<path content="AP030,1,28,1,0,14,1,8,JPN" xlink:title="AP030" d="M13573.4695,-3449.6532L13573.4497,-3449.2332L13573.4497,-3449.1665L13573.3307,-3448.8201L13573.2895,-3448.7465L13573.2407,-3448.5867L13573.2193,-3448.4798L13573.2407,-3447.6868L13573.2407,-3447.3999L13573.2407,-3447.1802L13573.2697,-3446.8201L13573.2193,-3446.3333"/>
<path content="AP030,1,28,1,0,15,1,8,JPN" xlink:title="AP030" d="M13572.2534,-3446.2944L13573.2193,-3446.3333"/>
<path content="AP030,1,28,1,0,15,1,8,JPN" xlink:title="AP030" d="M13572.0917,-3448.8678L13572.1725,-3448.0194L13572.2534,-3446.2944"/>
<path content="AP030,1,28,1,0,15,1,8,JPN" xlink:title="AP030" d="M13571.8185,-3446.2769L13572.2534,-3446.2944"/>
<path content="AP030,1,28,1,0,15,1,8,JPN" xlink:title="AP030" d="M13570.3125,-3448.6314L13570.5994,-3448.2327L13571.2357,-3447.9008L13571.6415,-3447.142L13571.8185,-3446.2769"/>
<path content="AP030,1,28,1,0,15,1,8,JPN" xlink:title="AP030" d="M13603.6499,-3448.3734L13604.8553,-3447.4716L13605.4657,-3446.4737L13605.4688,-3446.4712"/>
<path content="AP030,1,28,1,0,15,1,8,JPN" xlink:title="AP030" d="M13576.1654,-3449.3703L13576.1582,-3449.2644L13576.1948,-3449.1066L13576.3384,-3448.965L13576.3542,-3448.4657L13576.347,-3447.4797L13576.8356,-3447.4804L13576.6891,-3446.8014L13576.6342,-3445.9473"/>
<path content="AP030,1,28,1,0,15,1,8,JPN" xlink:title="AP030" d="M13573.2193,-3446.3333L13573.4299,-3446.3131L13574.3164,-3446.2284L13575.5234,-3445.9667L13576.6342,-3445.9473"/>
<path content="AP030,1,28,1,0,15,1,8,JPN" xlink:title="AP030" d="M13598.1995,-3446.9131L13599.0677,-3446.8678L13600.0275,-3446.5111L13601.7685,-3446.2433L13602.2369,-3446.3894L13602.8458,-3446.7678L13603.0701,-3446.7346L13602.9861,-3446.4203L13602.7802,-3445.8603L13603.0807,-3445.7027L13603.7643,-3445.6741L13605.4688,-3446.1424"/>
<path content="AP030,1,28,1,0,15,1,8,JPN" xlink:title="AP030" d="M13576.6342,-3445.9473L13576.8585,-3445.3964L13576.9522,-3445.3125"/>
<path content="AP030,1,28,1,0,14,1,8,JPN" xlink:title="AP030" d="M13579.6097,-3450.0801L13579.6097,-3449.6132L13579.6097,-3448.3334L13579.6494,-3448.0133L13579.7195,-3447.8134L13579.6799,-3447.5399L13579.7699,-3447.3801L13579.8096,-3447.1466L13579.9698,-3446.7335L13580.0201,-3446.5668L13579.95,-3446.3531L13579.8798,-3446.2265L13579.7394,-3445.9732L13579.5807,-3445.7932L13579.5197,-3445.4533L13579.5197,-3445.4132L13579.5197,-3445.3125"/>
<path content="AP030,1,28,1,0,14,1,8,JPN" xlink:title="AP030" d="M13573.2193,-3446.3333L13573.1293,-3445.8332L13573.1995,-3445.7199L13573.3307,-3445.5399L13573.2895,-3445.3602L13573.2775,-3445.3125"/>
<path content="AP030,1,28,1,0,15,1,8,JPN" xlink:title="AP030" d="M13571.8185,-3446.2769L13571.8735,-3446.0037L13571.74,-3445.3125"/>
<path content="AP030,1,28,1,0,14,1,8,JPN" xlink:title="AP030" d="M13598.1995,-3446.9131L13598.1506,-3446.2265L13598.1995,-3446.1533L13598.4299,-3445.8466L13598.3597,-3445.4865L13598.2624,-3445.3125"/>
<path content="AP030,1,28,1,0,14,1,8,JPN" xlink:title="AP030" d="M13593.1305,-3447.5933L13593.2693,-3447.3801L13593.2693,-3447.1664L13593.3807,-3446.9666L13593.4692,-3446.5134L13593.4692,-3446.3734L13593.4692,-3446.32L13593.3594,-3446.1334L13593.3807,-3445.9534L13593.4692,-3445.8134L13593.4906,-3445.6532L13593.5593,-3445.5399L13593.587,-3445.3125"/>
<path content="AP030,1,28,1,0,15,1,8,JPN" xlink:title="AP030" d="M13585.2432,-3450.7431L13585.4156,-3449.7292L13585.7697,-3449.2508L13586.4624,-3448.9883L13586.6806,-3447.6524L13587.1318,-3445.3125"/>
<path content="AP030,1,28,1,0,15,1,8,JPN" xlink:title="AP030" d="M13585.2432,-3450.7431L13583.6151,-3448.9967L13582.5989,-3448.2758L13581.9901,-3447.9431L13581.9901,-3447.2778L13581.9901,-3445.9469L13582.1082,-3445.3125"/>
<path content="AP030,1,28,1,0,15,1,8,JPN" xlink:title="AP030" d="M13576.9426,-3473.009L13576.9379,-3472.1699"/>
<path content="AP030,1,28,1,0,14,1,8,JPN" xlink:title="AP030" d="M13572.9184,-3480.4688L13572.9507,-3480.46L13573.0392,-3480.3867L13573.1995,-3480.0999L13573.4299,-3480.0465L13573.4894,-3480.0266"/>
<path content="AP030,1,28,1,0,14,1,8,JPN" xlink:title="AP030" d="M13576.9426,-3473.009L13577.1103,-3472.9866L13577.3804,-3473.2334L13577.4002,-3473.2735L13577.6093,-3473.3067L13577.7695,-3473.3265L13577.9007,-3473.2864L13578.0807,-3473.2533L13578.1799,-3473.2735L13578.4302,-3473.3799L13578.6102,-3473.3997L13579.0207,-3473.4135L13579.0405,-3473.4135"/>
<path content="AP030,1,28,1,0,15,1,8,JPN" xlink:title="AP030" d="M13576.7958,-3470.7456L13577.6871,-3470.097L13578.0457,-3469.5839L13578.2455,-3469.3153"/>
<path content="AP030,1,28,1,0,15,1,8,JPN" xlink:title="AP030" d="M13576.9379,-3472.1699L13577.3727,-3472.1661L13577.7252,-3471.7327L13578.4286,-3471.7854L13579.1931,-3471.3886L13579.4662,-3471.2471L13579.7638,-3471.1521"/>
<path content="AP030,1,28,1,0,15,1,8,JPN" xlink:title="AP030" d="M13576.9379,-3472.1699L13576.8249,-3471.1593L13576.7958,-3470.7456"/>
<path content="AP030,1,28,1,1,14,1,8,JPN" xlink:title="AP030" d="M13577.8305,-3455.5798L13578.0915,-3457.359L13579.0142,-3458.5456L13579.2272,-3460.3873L13579.7959,-3460.7167"/>
<path content="AP030,1,28,1,1,16,1,8,JPN" xlink:title="AP030" d="M13574.1324,-3445.3125L13574.1416,-3445.4268L13574.9645,-3445.937L13575.2772,-3446.7434L13576.2009,-3447.5087L13576.3285,-3447.8626L13576.3264,-3448.5147L13576.283,-3448.8371L13576.159,-3449.1043L13576.1233,-3449.3154L13576.0605,-3449.7398"/>
<path content="AP030,1,28,1,0,14,1,8,JPN" xlink:title="AP030" d="M13579.7897,-3461.3068L13579.7897,-3461.2865L13579.7897,-3461.0199L13579.7955,-3460.734L13579.7959,-3460.7167"/>
</g>
</svg>
