<?xml version="1.0" encoding="UTF-8"?>
<svg  xmlns="http://www.w3.org/2000/svg" xmlns:xlink="http://www.w3.org/1999/xlink" xmlns:go="http://purl.org/svgmap/profile" property="f_code,acc,exs,rst,med,rtt,RSU,loc,soc" viewBox="12375.0 -3375.0 562.5 562.5" go:dataArea="12375.0 -3375.0 562.5 562.5" >
<metadata>
 <rdf:RDF xmlns:rdf="http://www.w3.org/1999/02/22-rdf-syntax-ns#" xmlns:crs="http://opengis.org/xmldtds/transformations.dtd" xmlns:svg="http://www.w3.org/svg" >
  <rdf:Description>
   <crs:CoordinateReferenceSystem rdf:resource="http://purl.org/crs/84" svg:transform="matrix(100.0,0.0,0.0,-100.0,0.0,0.0)" />
  </rdf:Description>
 </rdf:RDF>
</metadata>
<globalCoordinateSystem srsName="http://purl.org/crs/84" transform="matrix(100.0,0.0,0.0,-100.0,0.0,0.0)" />
<defs>
 <g id="p0" >
  <circle cx="0.0" cy="0.0" r="3" stroke="green" stroke-width="2.0" vector-effect="non-scaling-stroke" />
 </g>
</defs>
<g fill="none" fill-rule="evenodd" stroke="#00ff00" stroke-width="2" opacity="0.5" vector-effect="non-scaling-stroke" stroke-linejoin="bevel" >
<path content="AP030,1,28,1,0,15,1,8,JPN" xlink:title="AP030" d="M12911.2808,-3325.2857L12911.8179,-3325.3002L12912.5122,-3325.4807L12912.5778,-3325.909L12912.7609,-3326.2978L12913.0692,-3326.6674L12913.2584,-3327.2522L12913.0447,-3328.4779L12912.7869,-3328.717L12912.4939,-3328.2356L12912.4176,-3327.8126L12912.1414,-3327.8614L12911.8439,-3328.0594L12911.2564,-3328.0777L12910.6796,-3328.022L12910.3607,-3327.7264L12909.9869,-3327.5013L12909.314,-3327.1717L12908.9966,-3326.5366L12909.1995,-3326.3676L12909.3292,-3326.078L12909.2865,-3325.7343L12910.0037,-3325.4261L12910.3577,-3325.4604L12911.2808,-3325.2857"/>
<path content="AP030,1,28,1,0,15,1,8,JPN" xlink:title="AP030" d="M12905.4672,-3319.2081L12905.1559,-3319.5175L12904.6326,-3319.7308L12904.2572,-3319.8452L12904.4174,-3320.3136L12904.628,-3320.4098L12905.278,-3320.5864L12906.1172,-3320.3663L12906.517,-3320.0653L12907.222,-3320.1717L12907.7972,-3320.2274L12907.933,-3319.9009L12907.3532,-3319.5423L12906.7673,-3319.558L12906.0715,-3319.3684L12905.4672,-3319.2081"/>
<path content="AP030,1,28,1,0,15,1,8,JPN" xlink:title="AP030" d="M12936.2747,-3319.0838L12936.4258,-3318.3853L12936.9308,-3318.0889L12937.2421,-3318.2014L12937.5,-3317.7509L12937.5,-3317.7509"/>
<path content="AP030,1,28,1,0,15,1,8,JPN" xlink:title="AP030" d="M12911.0321,-3314.8296L12910.8704,-3314.5428L12911.0092,-3314.1155L12910.9772,-3313.4686L12910.3668,-3312.6301L12909.6756,-3312.0884L12910.2966,-3311.5242L12910.5606,-3310.9203L12910.6552,-3310.5228L12911.3113,-3309.8408L12911.0413,-3308.2897L12910.7697,-3307.6195L12910.2295,-3305.9151L12909.7656,-3305.7533L12909.343,-3305.7533L12908.8257,-3305.6316L12908.5907,-3305.5508L12908.5907,-3305.3474L12908.6853,-3305.1853L12908.873,-3304.7791L12909.0134,-3304.4949L12908.9188,-3304.089L12908.873,-3303.5614L12908.9661,-3303.1555L12909.0607,-3302.7901L12908.9661,-3302.4246L12908.7784,-3301.8158L12908.7311,-3301.2878"/>
<path content="AP030,1,28,1,0,15,1,8,JPN" xlink:title="AP030" d="M12908.7311,-3301.2878L12909.0607,-3300.1919L12909.108,-3299.6639L12908.9661,-3299.4614L12907.8995,-3298.5332"/>
<path content="AP030,1,28,1,0,14,1,8,JPN" xlink:title="AP030" d="M12907.8995,-3298.5332L12907.6996,-3298.5664L12907.3105,-3298.5332L12906.81,-3298.32L12906.6498,-3298.2597L12906.5796,-3298.2468"/>
<path content="AP030,1,28,1,0,15,1,8,JPN" xlink:title="AP030" d="M12908.7311,-3301.2878L12907.9651,-3301.9257L12907.6141,-3301.553L12907.1701,-3301.2726L12906.6605,-3300.8842L12906.5887,-3300.2335L12906.5796,-3298.2468"/>
<path content="AP030,1,28,1,0,15,1,8,JPN" xlink:title="AP030" d="M12911.5601,-3298.5317L12912.7838,-3298.1216L12914.0091,-3299.4938L12914.3875,-3299.6658L12917.2546,-3299.8741L12917.9581,-3300.6195L12918.1335,-3301.1108L12918.9377,-3301.1204"/>
<path content="AP030,1,28,1,0,14,1,8,JPN" xlink:title="AP030" d="M12909.8251,-3297.8107L12909.8297,-3297.813L12910.2402,-3297.8664L12910.6796,-3297.8867L12911.1298,-3297.8333L12911.2701,-3297.813L12911.2396,-3298.0267L12911.2701,-3298.0465L12911.3602,-3298.0465L12911.3998,-3297.9931L12911.4899,-3297.9401L12911.5799,-3297.9733L12911.6501,-3298.0667L12911.7004,-3298.0999L12911.7004,-3298.2067L12911.6104,-3298.2998L12911.5204,-3298.3532L12911.5601,-3298.5317"/>
<path content="AP030,1,28,1,0,14,1,8,JPN" xlink:title="AP030" d="M12907.8995,-3298.5332L12907.93,-3298.46L12907.9895,-3298.4264L12908.1299,-3298.5001L12908.2397,-3298.4264L12908.3298,-3298.4066L12908.4,-3298.3532L12908.4702,-3298.2998L12908.5205,-3298.2998L12908.58,-3298.2998L12908.6304,-3298.2998L12908.6105,-3298.2067L12908.6502,-3298.1533L12908.7204,-3298.0999L12908.8104,-3298.0667L12908.8303,-3298.0133L12908.8593,-3297.9401L12909.2194,-3297.9198L12909.2697,-3297.9198L12909.4696,-3297.8867L12909.5596,-3297.8664L12909.6298,-3297.8333L12909.7397,-3297.7734L12909.8251,-3297.8107"/>
<path content="AP030,1,28,1,0,15,1,8,JPN" xlink:title="AP030" d="M12902.4765,-3295.9034L12903.0075,-3295.5486L12903.3493,-3295.1073L12903.6804,-3294.7468"/>
<path content="AP030,1,28,1,0,14,1,8,JPN" xlink:title="AP030" d="M12906.5796,-3298.2468L12906.6101,-3298.0667L12906.4301,-3297.9931L12906.2393,-3298.0465L12906.1295,-3298.0667L12906.0593,-3297.9931L12905.9494,-3297.8867L12905.8594,-3297.8333L12905.7907,-3297.76L12905.8594,-3297.6334L12905.9494,-3297.5067L12906.0196,-3297.4133L12906.0394,-3297.3598L12906.0394,-3297.3267L12905.9906,-3297.253L12905.9296,-3297.253L12905.8304,-3297.2733L12905.6793,-3297.4133L12905.6107,-3297.4667L12905.4703,-3297.5266L12905.4306,-3297.5266L12905.4001,-3297.5266L12905.3604,-3297.4533L12905.3299,-3297.3598L12905.2902,-3297.3267L12905.22,-3297.2733L12905.1804,-3297.2332L12905.2002,-3297.1798L12905.22,-3297.1066L12905.22,-3296.9868L12905.2002,-3296.8399L12905.2399,-3296.6599L12905.3101,-3296.5332L12905.3299,-3296.5L12905.1498,-3296.2997L12905.0797,-3296.1731L12905.1102,-3296.0667L12904.9896,-3295.8668L12905.0201,-3295.7932L12905.0201,-3295.6532L12904.9301,-3295.5601L12904.8599,-3295.4865L12904.7195,-3295.433L12904.4495,-3295.3999L12904.3594,-3295.2866L12904.1794,-3295.2332L12904.1107,-3295.1797L12904.0207,-3295.0932L12903.9703,-3294.9665L12903.9902,-3294.8601L12903.9307,-3294.7666L12903.8803,-3294.733L12903.7903,-3294.7666L12903.7201,-3294.7998L12903.7003,-3294.7865L12903.6804,-3294.7468"/>
<path content="AP030,1,28,1,0,14,1,8,JPN" xlink:title="AP030" d="M12903.6804,-3294.7468L12903.7003,-3294.6198L12903.6804,-3294.5L12903.6102,-3294.4599L12903.5599,-3294.4401L12903.6102,-3294.3199L12903.5797,-3294.1933L12903.5599,-3294.1334L12903.7399,-3294.0666L12903.8101,-3294.0468L12903.8803,-3293.9934L12903.8803,-3293.8866L12903.83,-3293.7931L12903.9001,-3293.5398L12903.9307,-3293.38L12904.0207,-3293.2865L12904.0802,-3293.0931L12904.1107,-3292.9867L12904.1107,-3292.8932"/>
<path content="AP030,1,28,1,0,14,1,8,JPN" xlink:title="AP030" d="M12904.1107,-3292.8932L12904.1504,-3292.7666L12904.1794,-3292.68L12904.2694,-3292.5133L12904.3594,-3292.4065"/>
<path content="AP030,1,28,1,0,14,1,8,JPN" xlink:title="AP030" d="M12904.1107,-3292.8932L12904.0604,-3292.8932L12903.9307,-3292.9268L12903.8803,-3292.9268L12903.8803,-3292.8734L12903.9001,-3292.82L12903.9307,-3292.7666L12903.8605,-3292.6933L12903.7704,-3292.6201L12903.7399,-3292.5865L12903.8101,-3292.5533L12903.9001,-3292.5133L12903.9307,-3292.4801L12903.9307,-3292.3866L12903.9902,-3292.3531L12904.1107,-3292.3866L12904.1504,-3292.3866L12904.2007,-3292.3531L12904.2892,-3292.3866L12904.3594,-3292.4065"/>
<path content="AP030,1,28,1,0,14,1,8,JPN" xlink:title="AP030" d="M12904.3594,-3292.4065L12904.4296,-3292.3733L12904.6097,-3292.2798L12904.9896,-3292.2264L12905.1102,-3292.1333L12905.1498,-3292.0265L12905.1804,-3291.8999L12905.1102,-3291.7931L12904.9301,-3291.6866L12904.9301,-3291.6531L12904.95,-3291.6134L12905.0598,-3291.6531L12905.1498,-3291.6332L12905.13,-3291.4867L12905.13,-3291.3998L12905.1804,-3291.2533L12905.2002,-3291.0931L12905.2902,-3290.9866L12905.3604,-3290.9466L12905.4306,-3290.9664L12905.5206,-3290.9267L12905.6107,-3290.913L12905.7007,-3290.9267L12905.8594,-3290.8932L12905.9494,-3290.9664L12906.0593,-3291.0198L12906.2195,-3291L12906.3599,-3290.9664L12906.3599,-3290.86L12906.2698,-3290.6399L12906.2698,-3290.5865L12906.3095,-3290.5533L12906.5598,-3290.5666L12906.6498,-3290.5331L12906.72,-3290.4598L12906.7902,-3290.353L12906.7703,-3290.2798L12906.5201,-3290.0997L12906.4896,-3290.0265L12906.4896,-3289.9399L12906.4896,-3289.8666L12906.4896,-3289.74L12906.3095,-3289.653L12906.2897,-3289.5599L12906.3293,-3289.5065L12906.3095,-3289.3066L12906.3797,-3289.1266L12906.3995,-3289.0533L12906.3095,-3288.9866L12906.2195,-3289.0533L12906.1295,-3289.2731L12906.0806,-3289.3467L12906.0196,-3289.3066L12905.9494,-3289.1666L12905.9494,-3289.0198L12905.9692,-3288.9866L12906.0394,-3288.8931L12906.0196,-3288.7333L12905.9906,-3288.6932L12905.8594,-3288.6398L12905.7907,-3288.5532L12905.7693,-3288.48L12905.7907,-3288.4068L12905.8594,-3288.3331L12905.9906,-3288.2465L12906.0196,-3288.1931L12905.9692,-3288.1001L12905.9494,-3287.8998L12905.9692,-3287.8132"/>
<path content="AP030,1,28,1,0,15,1,8,JPN" xlink:title="AP030" d="M12896.1456,-3290.2039L12896.6476,-3289.4737L12896.9131,-3288.4155L12897.728,-3287.7499L12898.3047,-3287.6366L12898.7274,-3287.7796L12899.5346,-3287.4516L12900.2304,-3287.6549L12900.5066,-3287.1059L12900.9064,-3287.1109L12901.0651,-3287.1262L12901.6739,-3287.0838L12901.857,-3287.508L12902.4612,-3288.0753L12901.77,-3288.1435L12901.6617,-3288.6414L12904.0878,-3288.8092L12905.1239,-3287.9192L12905.9692,-3287.8132"/>
<path content="AP030,1,28,1,0,15,1,8,JPN" xlink:title="AP030" d="M12909.8251,-3297.8107L12909.8801,-3296.1472L12909.7961,-3294.9867L12909.9533,-3294.426L12909.4254,-3294.1715L12909.2316,-3293.8141L12908.5098,-3293.507L12908.551,-3293.206L12909.3063,-3292.9741L12909.3246,-3292.8402L12908.9508,-3292.6346L12908.3557,-3292.5774L12908.3466,-3291.7629L12908.7082,-3291.4593L12908.6365,-3290.8085L12907.9468,-3290.2672L12907.7301,-3289.5008L12908.1131,-3288.4537L12907.4203,-3287.6411L12907.5211,-3286.6005L12906.2195,-3286.5864"/>
<path content="AP030,1,28,1,0,14,1,8,JPN" xlink:title="AP030" d="M12905.9692,-3287.8132L12906.0593,-3287.7399L12906.1996,-3287.6865L12906.2698,-3287.7068L12906.3797,-3287.7934L12906.4499,-3287.8132L12906.4499,-3287.7197L12906.4697,-3287.6667L12906.4896,-3287.6133L12906.5399,-3287.5401L12906.4499,-3287.4531L12906.3797,-3287.3264L12906.3797,-3287.273L12906.3995,-3287.1666L12906.3995,-3287.0934L12906.3797,-3287.0731L12906.3095,-3287.0934L12906.2393,-3287.0731L12906.1996,-3287.0197L12906.1798,-3286.9999L12906.1798,-3286.9133L12906.2698,-3286.8L12906.2393,-3286.6798L12906.2195,-3286.5868L12906.2195,-3286.5864"/>
<path content="AP030,1,28,1,0,14,1,8,JPN" xlink:title="AP030" d="M12906.2195,-3286.5864L12906.2698,-3286.4399L12906.3995,-3286.2465L12906.3599,-3285.9398L12906.2698,-3285.8665L12906.1798,-3285.7597L12906.1295,-3285.6533L12906.0593,-3285.5064L12906.0593,-3285.4332L12906.0806,-3285.3268L12906.0806,-3285.2333L12906.0394,-3285.1799L12905.9494,-3285.1467L12905.8304,-3285.1265L12905.6107,-3285.1997L12905.4306,-3285.1997L12905.4504,-3285.1665L12905.5206,-3285.0731L12905.4901,-3284.9865L12905.3604,-3284.9133L12905.3604,-3284.8732L12905.3604,-3284.7866L12905.4703,-3284.6066L12905.6107,-3284.4799L12905.8594,-3284.3201L12905.8304,-3284.2598L12905.8105,-3284.2068L12905.7907,-3284.1732L12905.8594,-3284.1L12905.9692,-3283.9733L12905.9006,-3283.8665L12905.9006,-3283.8131L12905.9692,-3283.7933L12906.1096,-3283.773L12906.2195,-3283.7601L12906.3293,-3283.7067L12906.4499,-3283.6666L12906.6101,-3283.6666"/>
<path content="AP030,1,28,1,0,15,1,8,JPN" xlink:title="AP030" d="M12888.3774,-3285.6823L12888.7299,-3286.3266L12889.1251,-3286.3655L12889.4089,-3286.0546L12890.6448,-3285.5324L12891.5726,-3285.7925L12892.3599,-3285.1002L12892.2363,-3284.4688L12893.1641,-3283.2722"/>
<path content="AP030,1,28,1,0,15,1,8,JPN" xlink:title="AP030" d="M12888.5239,-3282.0042L12888.2751,-3281.472L12888.3682,-3280.8033L12887.8693,-3280.3478L12887.8052,-3279.3594L12887.59,-3279.1691L12886.8958,-3278.9654L12886.2503,-3278.1227L12885.6705,-3277.964L12885.1654,-3277.8465L12884.642,-3277.8625L12884.3887,-3278.244L12884.198,-3278.4626L12883.754,-3278.59L12883.5709,-3278.1845"/>
<path content="AP030,1,28,1,0,14,1,8,JPN" xlink:title="AP030" d="M12876.3596,-3274.6399L12875.9003,-3274.8199L12875.1999,-3275.1266L12875.1801,-3275.1266L12875.0397,-3275.0401L12874.6506,-3274.6933L12874.5407,-3274.6597L12874.4705,-3274.6067L12874.4507,-3274.5865L12874.4003,-3274.4999L12874.3103,-3274.4999L12874.2401,-3274.4598L12874.1501,-3274.3332L12874.1104,-3274.2798L12874.0799,-3274.2268L12873.97,-3274.2065L12873.88,-3274.1734L12873.8098,-3274.1199L12873.79,-3273.9201L12873.7701,-3273.6866L12873.6801,-3273.5065L12873.6099,-3273.4135L12873.4695,-3273.3997L12873.0804,-3273.4333L12873.0392,-3273.4333L12872.8302,-3273.4665L12872.7005,-3273.5397L12872.6807,-3273.6332L12872.6303,-3273.7598L12872.4701,-3273.8132L12872.2198,-3273.7598L12872.0398,-3273.7064L12872.02,-3273.7064L12871.9498,-3273.6866L12871.8796,-3273.6866L12871.8094,-3273.7064L12871.7896,-3273.7732L12871.7194,-3273.7732L12871.6095,-3273.8132L12871.4905,-3273.9201L12871.4493,-3273.9933L12871.2906,-3273.9933L12871.2402,-3273.9532L12871.2204,-3273.8667L12871.1502,-3273.8464L12871.1105,-3273.8335L12871.08,-3273.7598L12871.0602,-3273.7064L12871.0403,-3273.6866L12870.9702,-3273.7198L12870.9,-3273.7934L12870.8603,-3273.8132L12870.7703,-3273.7934L12870.7397,-3273.74L12870.7199,-3273.6534L12870.6802,-3273.6332L12870.61,-3273.6332L12870.5597,-3273.7198L12870.4697,-3273.74L12870.3796,-3273.7198L12870.3293,-3273.6866L12870.2194,-3273.5268L12870.1294,-3273.5268L12870.1294,-3273.56L12870.1096,-3273.74L12870.0607,-3273.7732L12869.9707,-3273.7934L12869.8807,-3273.7732L12869.8105,-3273.7598L12869.5602,-3273.7598L12869.1498,-3273.7732L12869.1101,-3273.7934L12868.7897,-3274.0665"/>
<path content="AP030,1,28,1,0,14,1,8,JPN" xlink:title="AP030" d="M12876.3596,-3274.6399L12876.3992,-3274.5533L12876.5396,-3274.2798L12876.5594,-3274.2268L12876.4893,-3274.1333L12876.4893,-3274.0799L12876.5396,-3274.0467L12876.7395,-3273.9532L12876.77,-3273.7934L12876.8097,-3273.7198L12876.8295,-3273.4531L12876.9501,-3273.3265L12877.1301,-3273.2334L12877.33,-3273.2334L12877.5406,-3273.2533L12877.6093,-3273.2201L12877.6749,-3273.1525"/>
<path content="AP030,1,28,1,0,14,1,8,JPN" xlink:title="AP030" d="M12868.7897,-3274.0665L12868.4692,-3273.9735L12868.2205,-3273.8998L12868.1305,-3273.8667L12868.0206,-3273.8132L12867.9504,-3273.7934L12867.7902,-3273.74L12867.6498,-3273.7064L12867.4896,-3273.6134L12867.1799,-3273.3799L12866.7404,-3273L12866.3803,-3272.7665L12866.2903,-3272.7135L12866.2704,-3272.6398L12866.2003,-3272.4068L12866.1301,-3272.2599L12865.95,-3272.0135L12865.8997,-3271.8998L12865.86,-3271.7731"/>
<path content="AP030,1,28,1,0,15,1,8,JPN" xlink:title="AP030" d="M12868.7897,-3274.0665L12869.3451,-3274.7936L12869.3497,-3275.0423L12867.7811,-3276.7239L12867.6941,-3277.063L12867.3035,-3277.3384L12866.8442,-3277.3922L12865.9882,-3276.9257L12865.4373,-3276.8044L12864.8575,-3276.3321L12864.9048,-3275.7076L12865.0375,-3275.3235L12865.3046,-3274.9527L12865.4938,-3274.4419L12865.5167,-3273.9971L12865.625,-3273.5111L12865.8997,-3272.9424L12865.8752,-3272.5594L12865.6769,-3272.1584L12865.86,-3271.7731"/>
<path content="AP030,1,28,1,0,14,1,8,JPN" xlink:title="AP030" d="M12877.6749,-3273.1525L12877.6794,-3273.1464L12877.7405,-3273L12877.7405,-3272.8001L12877.6794,-3272.5666L12877.7405,-3272.2466L12877.7405,-3272.0264L12877.6093,-3271.8666L12877.5803,-3271.6866L12877.5192,-3271.2734L12877.4704,-3270.9667L12877.6093,-3270.8599L12877.8107,-3270.7867L12877.8305,-3270.7664L12878.1296,-3270.7333L12878.7201,-3270.7333L12879.0207,-3270.7333L12879.2007,-3270.6799L12879.3106,-3270.5868L12879.3594,-3270.5666L12879.4907,-3270.5132L12879.6494,-3270.4597L12879.7699,-3270.4266L12879.95,-3270.3335L12880.1102,-3270.2065L12880.2704,-3269.8868L12880.4001,-3269.7933L12880.4306,-3269.7735L12880.7404,-3269.6133L12880.9296,-3269.6133L12881.0196,-3269.5801L12881.2195,-3269.4668L12881.3293,-3269.4L12881.8802,-3269.3466L12882.5806,-3269.22L12882.6996,-3269.1799L12883.3099,-3269.0399"/>
<path content="AP030,1,28,1,0,14,1,8,JPN" xlink:title="AP030" d="M12884.3552,-3268.9857L12884.3597,-3268.9865L12884.4696,-3269.0933L12884.5398,-3269.1467L12884.7,-3269.3268L12884.8099,-3269.4534"/>
<path content="AP030,1,28,1,0,15,1,8,JPN" xlink:title="AP030" d="M12877.6749,-3273.1525L12877.7298,-3273.9288L12877.9007,-3274.1486L12877.5635,-3274.5556L12878.1662,-3275.1232L12878.8315,-3275.528L12879.3106,-3275.5413L12879.657,-3275.0675L12880.2551,-3275.0927L12880.5084,-3275.8446L12881.395,-3276.0582L12881.9855,-3275.9071L12882.6767,-3275.264L12882.6874,-3275.0195L12882.1701,-3274.5708L12882.2769,-3273.8022L12882.5653,-3273.4581L12882.869,-3273.2849L12882.5272,-3272.5739L12883.6395,-3271.769L12883.2916,-3271.0911L12883.8165,-3270.1946L12884.3536,-3268.9861L12884.3552,-3268.9857"/>
<path content="AP030,1,28,1,0,14,1,8,JPN" xlink:title="AP030" d="M12883.3099,-3269.0399L12883.3603,-3269.0399L12883.6304,-3268.9999L12883.7402,-3268.9865L12883.8593,-3268.9667L12884.0393,-3268.9465L12884.1507,-3268.9465L12884.3552,-3268.9857"/>
<path content="AP030,1,28,1,0,15,1,8,JPN" xlink:title="AP030" d="M12876.3596,-3274.6399L12875.856,-3273.6385L12875.3601,-3273.0324L12874.823,-3272.5327L12874.7406,-3272.3545L12874.6567,-3271.9975L12874.6567,-3271.7834L12874.4919,-3271.4626L12874.202,-3270.8561L12873.9548,-3270.1069L12873.7885,-3269.5004L12873.7061,-3269.1792L12873.7473,-3268.5371L12873.8297,-3267.8951L12873.912,-3267.6453L12873.912,-3267.2527"/>
<path content="AP030,1,28,1,0,15,1,8,JPN" xlink:title="AP030" d="M12868.7897,-3266.8247L12869.3268,-3267.2173L12869.7815,-3267.3244L12870.8557,-3267.3958L12871.64,-3267.4313L12872.3419,-3267.3244L12872.7554,-3267.2527L12873.2101,-3267.2886L12873.4161,-3267.3244L12873.912,-3267.2527"/>
<path content="AP030,1,28,1,0,15,1,8,JPN" xlink:title="AP030" d="M12873.912,-3267.2527L12874.614,-3266.8961L12875.1511,-3266.7534L12875.6058,-3266.8247L12876.3916,-3267.1459L12877.1759,-3267.5385L12878.1265,-3267.9665L12878.6636,-3268.2159L12879.1183,-3268.2159L12879.6143,-3268.145L12880.3162,-3267.9665L12880.6885,-3267.9306L12881.2668,-3268.0378L12882.1335,-3268.5371L12883.3099,-3269.0399"/>
<path content="AP030,1,28,1,0,15,1,8,JPN" xlink:title="AP030" d="M12883.606,-3266.8171L12884.433,-3268.1007L12884.3796,-3268.5787L12883.5709,-3268.7355L12883.2352,-3268.5947L12882.6843,-3268.079L12882.6645,-3267.5022L12882.4646,-3266.9319L12882.2983,-3266.5752L12882.0099,-3266.1827L12881.4728,-3265.8974L12881.4667,-3265.8966"/>
<path content="AP030,1,28,1,0,15,1,8,JPN" xlink:title="AP030" d="M12884.3552,-3268.9857L12885.6125,-3268.2037L12887.6251,-3266.6737L12887.8845,-3265.6494L12887.6297,-3264.8792L12887.0438,-3264.4829L12885.1608,-3264.1968L12883.5205,-3264.7804L12882.222,-3265.1943L12881.4667,-3265.8966"/>
<path content="AP030,1,28,1,0,14,1,8,JPN" xlink:title="AP030" d="M12876.2405,-3261.2865L12876.4496,-3261.38L12876.6098,-3261.5067"/>
<path content="AP030,1,28,1,0,15,1,8,JPN" xlink:title="AP030" d="M12881.4667,-3265.8966L12880.687,-3265.7902L12879.4891,-3265.6475L12878.5385,-3265.5403L12878.0014,-3265.3263L12877.4643,-3264.9696L12876.6235,-3264.3684L12876.1108,-3263.1359L12875.8713,-3261.8759L12876.2405,-3261.2865"/>
<path content="AP030,1,28,1,0,15,1,8,JPN" xlink:title="AP030" d="M12873.912,-3267.2527L12873.8708,-3266.468L12873.7885,-3266.0042L12873.9532,-3265.612L12874.2844,-3265.2908L12874.6552,-3265.0055L12875.1099,-3264.3276L12875.3983,-3263.6497L12875.7294,-3263.0791L12875.5203,-3261.8633L12876.2405,-3261.2865"/>
<path content="AP030,1,28,1,0,14,1,8,JPN" xlink:title="AP030" d="M12865.86,-3271.7731L12865.8096,-3271.7197L12865.7196,-3271.7068L12865.6998,-3271.6667L12865.6799,-3271.6133L12865.7394,-3271.5065L12865.7898,-3271.4001L12865.7898,-3271.3264L12865.8295,-3271.22L12865.86,-3271.1998L12865.8997,-3271.1266L12865.9698,-3271.0533L12866.0202,-3270.9866L12866.04,-3270.9465L12866.1499,-3270.7867L12866.1804,-3270.7333L12866.3803,-3270.5868L12866.4307,-3270.5334L12866.4307,-3270.48L12866.4505,-3270.2065L12866.4505,-3270.1L12866.4001,-3270.0134L12866.2903,-3269.8997L12866.2903,-3269.8467L12866.3101,-3269.7399L12866.4001,-3269.6667L12866.4505,-3269.6335L12866.4505,-3269.5599L12866.3101,-3269.1998L12866.2399,-3268.9465L12866.2399,-3268.7134L12866.33,-3268.6066L12866.3605,-3268.5532L12866.2903,-3268.4799L12866.1499,-3268.3201L12865.8997,-3268.1L12865.7394,-3267.9733L12865.7196,-3267.9199L12865.7196,-3267.8333L12865.77,-3267.7601L12865.8997,-3267.6865L12865.9302,-3267.6533L12865.95,-3267.6132L12866.0202,-3267.5064L12866.04,-3267.4133L12866.04,-3267.3065L12866.0797,-3267.2531L12866.1499,-3267.2531L12866.3605,-3267.2867L12866.4505,-3267.2733L12866.5604,-3267.2001L12866.6504,-3267.1066L12866.7206,-3267.0734L12866.7892,-3267.1066L12866.8304,-3267.2199L12866.9296,-3267.2733L12866.9907,-3267.3065L12867.4301,-3267.3466L12867.7704,-3267.3599L12867.8604,-3267.3267L12867.9306,-3267.2333L12867.8802,-3267.1665L12867.7399,-3267.1066L12867.63,-3267.0734L12867.5598,-3267.0399L12867.54,-3266.9865L12867.5598,-3266.7667L12867.4698,-3266.7667L12867.2394,-3266.7332L12867.1295,-3266.6931L12867.0395,-3266.6397L12866.9006,-3266.5531L12866.7892,-3266.5134L12866.5604,-3266.5134L12866.4505,-3266.46L12866.3803,-3266.3734L12866.4001,-3266.2266L12866.4505,-3266.1533L12866.6306,-3265.9931L12866.7007,-3265.8867L12866.8106,-3265.6666L12866.8793,-3265.58L12867.0395,-3265.4331L12867.1097,-3265.3599L12867.1997,-3265.2332L12867.2195,-3265.1466L12867.1997,-3265.0734L12867.1097,-3265.0398L12867.0197,-3265.0398L12866.9495,-3265.0398L12866.8793,-3265.0734L12866.8106,-3265.1066L12866.7694,-3265.0932L12866.7007,-3264.9998L12866.6504,-3264.9998L12866.6107,-3265.0398L12866.5802,-3265.0932L12866.5207,-3265.2332L12866.4307,-3265.2534L12866.3605,-3265.2199L12866.3605,-3265.1066L12866.3803,-3265.0398L12866.4703,-3264.9265L12866.7206,-3264.6797L12866.7694,-3264.5866L12866.8106,-3264.5332L12866.7892,-3264.4398L12866.7007,-3264.3532L12866.6504,-3264.2597L12866.6504,-3264.1335L12866.7206,-3264.0266L12866.7404,-3263.94L12866.7206,-3263.7199L12866.7007,-3263.6532L12866.7007,-3263.5265L12866.7007,-3263.3064L12866.7404,-3263.2332L12866.7694,-3263.2L12866.8594,-3263.0398L12866.8793,-3262.9665L12866.9006,-3262.9265L12866.9006,-3262.8933L12866.8793,-3262.7865L12866.7404,-3262.5332L12866.7007,-3262.5L12866.5405,-3262.4798L12866.2201,-3262.5134L12865.9698,-3262.5134L12865.6799,-3262.4599L12865.6097,-3262.4268L12865.5594,-3262.3199L12865.5197,-3262.1532L12865.4495,-3262.0667L12865.3595,-3262.0266L12865.1794,-3261.94L12865.1794,-3261.8999L12865.1993,-3261.8332L12865.3107,-3261.6665L12865.3595,-3261.5398L12865.4907,-3261.3598L12865.6296,-3261.2198L12865.6296,-3261.1465L12865.5197,-3261.0397L12865.3595,-3260.9665L12865.2206,-3260.8932L12865.1093,-3260.7864L12865.1093,-3260.7132L12865.1993,-3260.5534"/>
<path content="AP030,1,28,1,0,14,1,8,JPN" xlink:title="AP030" d="M12865.1993,-3260.5534L12865.2695,-3260.5667L12865.4694,-3260.5133L12865.6097,-3260.5L12865.6799,-3260.5133L12865.6799,-3260.5667L12865.6097,-3260.6197L12865.4907,-3260.6598L12865.4694,-3260.68L12865.4694,-3260.7468L12865.5594,-3260.7998L12865.6296,-3260.7998L12865.7196,-3260.6934L12865.8096,-3260.68L12865.8997,-3260.7132L12866.04,-3260.8398L12866.2003,-3260.9467L12866.3101,-3261.0199L12866.3803,-3261.0733L12866.4001,-3261.1797L12866.4001,-3261.3266L12866.4505,-3261.38L12866.5405,-3261.4132L12866.6504,-3261.4132L12866.7206,-3261.4334L12866.8106,-3261.4864L12866.8793,-3261.5067L12867.0395,-3261.4864L12867.0807,-3261.4532L12867.0807,-3261.38L12867.1295,-3261.3464L12867.2897,-3261.3464L12867.4698,-3261.3266L12867.54,-3261.3068L12867.54,-3261.2732L12867.45,-3261.2L12867.3996,-3261.1065L12867.3996,-3261.0535L12867.4698,-3261.0001L12867.54,-3261.0001L12867.63,-3261.0733L12867.6804,-3261.1065L12867.7399,-3261.0931L12867.7704,-3261.0733L12867.8101,-3261.0199L12867.9001,-3260.9665L12867.9901,-3260.9467L12868.0405,-3260.9467L12868.1305,-3260.9135L12868.1793,-3260.8734L12868.2404,-3260.8601L12868.3105,-3260.82L12868.3594,-3260.7468L12868.3807,-3260.6197L12868.4494,-3260.5667L12868.5394,-3260.5331L12868.6096,-3260.5331L12868.6493,-3260.4797L12868.7195,-3260.4065L12868.7897,-3260.3867L12868.8797,-3260.3867L12869.0201,-3260.4401L12869.1803,-3260.4401L12869.2902,-3260.4797L12869.3298,-3260.5331L12869.31,-3260.64L12869.2398,-3260.7334L12869.2703,-3260.7864L12869.3298,-3260.82L12869.4,-3260.8601L12869.4504,-3260.8932L12869.4901,-3260.9135L12869.5404,-3260.8932L12869.5602,-3260.7998L12869.6106,-3260.7334L12869.6503,-3260.6934L12869.7403,-3260.68L12869.8105,-3260.68L12869.8593,-3260.6934L12869.8593,-3260.7468L12869.8303,-3260.7864L12869.8593,-3260.82L12869.9295,-3260.8398L12869.9905,-3260.7998L12870.0607,-3260.7666L12870.1294,-3260.7666L12870.2194,-3260.7998L12870.2698,-3260.8601L12870.2698,-3260.9264L12870.2698,-3261.0199L12870.3094,-3261.0733L12870.43,-3261.0397L12870.52,-3261.0733L12870.5597,-3261.1065L12870.5795,-3261.1797L12870.6299,-3261.2331L12870.6802,-3261.2331L12870.7199,-3261.2198L12870.7199,-3261.1267L12870.7901,-3261.0397L12870.8801,-3261.0001L12871.0403,-3260.9867L12871.1304,-3261.0001L12871.2906,-3261.0931L12871.4005,-3261.1065L12871.5195,-3261.1065L12871.5607,-3261.0733L12871.6293,-3260.9665L12871.6797,-3260.9467L12871.7896,-3260.9135L12871.9696,-3260.7132L12872.1298,-3260.6197L12872.29,-3260.6068L12872.3999,-3260.6197L12872.5403,-3260.6934L12872.6105,-3260.7666L12872.6501,-3260.82L12872.7005,-3260.9467L12872.7203,-3260.9665L12872.7402,-3260.9867L12872.8104,-3260.9467L12872.9904,-3260.8601L12873.0804,-3260.8601L12873.2697,-3260.9135L12873.3994,-3260.9467L12873.4497,-3260.9467L12873.4695,-3260.9135L12873.4299,-3260.8734L12873.3994,-3260.82L12873.4299,-3260.7666L12873.4894,-3260.7666L12873.6099,-3260.7468L12873.7,-3260.6934L12873.8602,-3260.5133L12873.9502,-3260.4065L12874.0402,-3260.3867L12874.1302,-3260.3867L12874.2203,-3260.4267L12874.2401,-3260.4599L12874.4003,-3260.6068L12874.5605,-3260.6934L12874.7406,-3260.7334L12875.1495,-3260.7666L12875.2701,-3260.7864L12875.47,-3260.82L12875.5798,-3260.8734L12875.7401,-3261.0001L12875.9903,-3261.1465L12876.2405,-3261.2865"/>
<path content="AP030,1,28,1,0,15,1,8,JPN" xlink:title="AP030" d="M12861.5341,-3263.3633L12860.8856,-3262.7159L12861.0214,-3261.9228L12861.2701,-3261.6375L12862.0132,-3261.4594L12862.7563,-3261.2808L12863.0463,-3261.031L12863.4171,-3260.5316L12863.6658,-3260.1036L12863.9954,-3259.9609L12864.4501,-3259.8537L12864.946,-3259.9609L12865.1993,-3260.5534"/>
<path content="AP030,1,28,1,0,15,1,8,JPN" xlink:title="AP030" d="M12937.5,-2834.9083L12937.3383,-2834.8862L12936.7813,-2834.9861L12936.4594,-2834.9611L12936.0504,-2834.836L12935.611,-2834.9112L12935.173,-2835.3863L12934.9091,-2835.6861L12934.6176,-2835.8864L12934.2651,-2835.8864L12933.7982,-2835.5862L12933.3282,-2834.811L12933.1238,-2834.411L12932.8308,-2834.2609L12932.2464,-2834.211L12931.778,-2834.0609L12931.3599,-2833.383L12930.7449,-2832.9329L12930.2765,-2832.7578L12928.5202,-2832.4327L12928.0609,-2832.3605L12927.475,-2831.5603L12927.153,-2831.2853L12926.5091,-2831.2853L12925.0748,-2831.2103L12924.0509,-2830.8352L12923.259,-2830.01L12923.2895,-2829.6349L12924.1669,-2829.2097L12924.8398,-2828.8347L12925.4242,-2828.2347L12925.9216,-2827.9594L12926.0605,-2828.45L12926.207,-2828.8L12926.4252,-2829.129L12926.947,-2829.1597L12927.4139,-2829.1098L12928.1464,-2828.9099L12928.7903,-2828.8097L12929.5212,-2828.5097L12930.2658,-2827.4855"/>
<path content="AP030,1,28,1,0,15,1,8,JPN" xlink:title="AP030" d="M12925.5554,-2824.9025L12925.6958,-2825.2932L12925.9079,-2825.7437L12926.1536,-2825.8036L12927.4185,-2825.8636L12928.0167,-2825.8938L12928.157,-2826.0738L12928.2272,-2826.5844L12928.6148,-2826.9449L12929.0359,-2827.035L12929.422,-2827.005L12929.7745,-2827.0651L12930.2658,-2827.4855"/>
<path content="AP030,1,28,1,0,15,1,8,JPN" xlink:title="AP030" d="M12918.7027,-2826.0139L12919.1238,-2825.8938L12919.4397,-2825.7736L12920.1782,-2824.9327L12920.7047,-2824.6923L12921.1624,-2824.8125L12921.5134,-2825.2029L12922.0764,-2825.9838L12922.3572,-2826.104L12922.7798,-2826.0139L12923.6572,-2825.3231L12924.5361,-2824.8726L12925.2029,-2824.7225L12925.5554,-2824.9025"/>
<path content="AP030,1,28,1,0,15,1,8,JPN" xlink:title="AP030" d="M12925.5554,-2824.9025L12925.4349,-2824.3732L12924.9863,-2824.0387L12924.9985,-2823.5058"/>
<path content="AP030,1,28,1,0,14,1,8,JPN" xlink:title="AP030" d="M12937.5,-2824.747L12937.4496,-2824.6799L12937.3795,-2824.6065L12937.2406,-2824.5333L12937.1994,-2824.4801L12937.1796,-2824.4066L12937.1506,-2824.28L12937.1307,-2824.1734L12937.0407,-2824.0267L12936.9507,-2823.8667L12936.9293,-2823.7932L12936.9293,-2823.76L12936.9705,-2823.7066L12937.0407,-2823.6532L12937.0804,-2823.5933L12937.0804,-2823.5399L12937.1506,-2823.4865L12937.1796,-2823.4667L12937.1796,-2823.4333L12937.0804,-2823.3601L12937.0193,-2823.2866L12936.9705,-2823.2733L12936.8805,-2823.3267L12936.8103,-2823.3465L12936.7401,-2823.3267L12936.6501,-2823.2201L12936.5204,-2822.9666L12936.4899,-2822.8733L12936.47,-2822.7865L12936.4899,-2822.7333L12936.6104,-2822.6801L12936.6501,-2822.62L12936.6302,-2822.5866L12936.6104,-2822.5533"/>
<path content="AP030,1,28,1,0,15,1,8,JPN" xlink:title="AP030" d="M12924.9985,-2823.5058L12925.6241,-2823.431L12927.0309,-2823.5811L12927.8748,-2823.431L12928.2608,-2823.1607L12928.2959,-2822.8304L12928.5065,-2822.5901L12929.245,-2822.5901L12930.0873,-2822.3497"/>
<path content="AP030,1,28,1,0,15,1,8,JPN" xlink:title="AP030" d="M12935.1837,-2822.2897L12936.1328,-2822.4998L12936.6104,-2822.5533"/>
<path content="AP030,1,28,1,0,15,1,8,JPN" xlink:title="AP030" d="M12930.2658,-2827.4855L12931.4606,-2826.8248L12932.7606,-2826.1942L12933.0414,-2825.5333L12933.429,-2825.0229L12933.9554,-2824.6923L12934.3765,-2824.0017L12935.1837,-2822.2897"/>
<path content="AP030,1,28,1,0,15,1,8,JPN" xlink:title="AP030" d="M12917.7872,-2823.8514L12918.0328,-2823.431L12918.3136,-2823.0406L12918.7698,-2822.7402L12919.4382,-2822.8304L12919.9661,-2822.9504L12920.282,-2822.9504L12920.4926,-2822.7402L12920.8435,-2822.62L12921.196,-2822.7701L12921.6873,-2822.9805L12922.0398,-2822.9504L12922.496,-2822.4699L12923.0576,-2822.1094L12924.324,-2821.8693L12924.8154,-2821.8693L12924.9908,-2822.1094L12924.9557,-2822.4699L12924.8871,-2822.9504L12924.9985,-2823.5058"/>
<path content="AP030,1,28,1,0,15,1,8,JPN" xlink:title="AP030" d="M12930.0873,-2822.3497L12930.896,-2822.0493L12931.5292,-2821.5689L12932.2662,-2821.5689L12933.6029,-2821.8693L12935.1837,-2822.2897"/>
<path content="AP030,1,28,1,0,14,1,8,JPN" xlink:title="AP030" d="M12936.6104,-2822.5533L12936.6104,-2822.48L12936.6501,-2822.4066L12936.6501,-2822.3534L12936.6104,-2822.2799L12936.5402,-2822.2601L12936.47,-2822.2799L12936.4304,-2822.2601L12936.38,-2822.2067L12936.3098,-2821.94L12936.3098,-2821.8666L12936.3297,-2821.8134L12936.4304,-2821.6665L12936.5204,-2821.5599L12936.5799,-2821.5067L12936.5799,-2821.4666L12936.5601,-2821.4001L12936.5601,-2821.2866L12936.5402,-2821.2532L12936.4899,-2821.22L12936.47,-2821.1466L12936.4899,-2820.9267L12936.4899,-2820.8L12936.5204,-2820.7333L12936.5601,-2820.64L12936.5799,-2820.5532L12936.6501,-2820.4599L12936.6501,-2820.4065L12936.6104,-2820.3733L12936.5601,-2820.3733L12936.3998,-2820.3865L12936.29,-2820.3733L12936.2701,-2820.3333L12936.2198,-2820.26L12936.2396,-2820.1733L12936.29,-2820.08L12936.3098,-2820.0266L12936.29,-2819.94L12936.3098,-2819.7933L12936.3602,-2819.6865L12936.3602,-2819.6333L12936.3297,-2819.5801L12936.3297,-2819.38L12936.3098,-2819.3266L12936.2701,-2819.2865L12936.2701,-2819.22L12936.3297,-2819.1265L12936.3602,-2819.0399L12936.38,-2818.9667L12936.5402,-2818.84L12936.5402,-2818.7466L12936.5204,-2818.4401L12936.5204,-2818.3201L12936.5601,-2818.26L12936.6302,-2818.2467L12936.7203,-2818.3332L12936.8103,-2818.4067L12936.9293,-2818.4265L12937.0193,-2818.4067L12937.1094,-2818.3533L12937.1796,-2818.26L12937.1796,-2818.1534L12937.1506,-2818.12L12937.0804,-2818.1L12937.0193,-2818.1334L12936.9507,-2818.2467L12936.8805,-2818.2467L12936.8607,-2818.2266L12936.8103,-2818.1732L12936.7905,-2818.0265L12936.7905,-2817.9733L12936.7706,-2817.9533L12936.7203,-2817.9533L12936.6302,-2818.0265L12936.5601,-2818.0134L12936.5204,-2817.9533L12936.4502,-2817.8665L12936.4502,-2817.8133L12936.4502,-2817.6533L12936.4304,-2817.6132L12936.38,-2817.5934L12936.3098,-2817.58L12936.2701,-2817.56L12936.2,-2817.4665L12936.2,-2817.4L12936.2198,-2817.3265L12936.29,-2817.2333L12936.29,-2817.1801L12936.2701,-2817.1467L12936.2198,-2817.1066L12936.1298,-2817.1066L12936.0397,-2817.1066L12935.9894,-2817.0933L12935.9695,-2817.0401L12935.9299,-2816.9666L12935.8479,-2816.9486L12935.7407,-2816.9468L12935.6995,-2817.1267L12935.6796,-2817.1267L12935.6293,-2817.1267L12935.5804,-2817.1066L12935.5194,-2817.1267L12935.4507,-2817.1665L12935.4004,-2817.2199L12935.3302,-2817.2199L12935.2402,-2817.2199L12935.1317,-2817.257L12934.9701,-2817.3466L12934.8974,-2817.4255L12934.7,-2817.2867L12934.52,-2817.2199L12934.4696,-2817.1665L12934.4162,-2817.0727L12934.3399,-2817.0336L12934.2789,-2817.0029L12934.2087,-2816.9928L12934.1202,-2816.9672L12934.0256,-2816.9552L12933.6502,-2816.9268L12933.5403,-2816.8934L12933.4503,-2816.82L12933.3801,-2816.6933L12933.3603,-2816.68L12933.2199,-2816.5533L12933.1299,-2816.5001L12933.0597,-2816.46L12933.02,-2816.4066L12932.9697,-2816.32L12932.9697,-2816.3L12932.9498,-2816.26L12932.8995,-2816.26L12932.8094,-2816.2466L12932.7698,-2816.2268L12932.7393,-2816.1934L12932.7194,-2816.1533L12932.6294,-2816.0999L12932.6096,-2816.0999"/>
<path content="AP030,1,28,1,0,14,1,4,JPN" xlink:title="AP030" d="M12932.6096,-2816.0999L12932.4493,-2816.0801L12932.2403,-2816.0133L12931.9901,-2815.9L12931.7398,-2815.6866L12931.5796,-2815.5067L12931.5201,-2815.4333"/>
<path content="AP030,1,28,1,0,14,1,8,JPN" xlink:title="AP030" d="M12931.5201,-2815.4333L12931.4499,-2815.3467L12931.3797,-2815.2533L12931.3095,-2815.1667L12931.2897,-2815.0932L12931.2897,-2815.02L12931.2698,-2814.8733L12931.2393,-2814.62"/>
<path content="AP030,1,28,1,0,15,1,8,JPN" xlink:title="AP030" d="M12930.0873,-2822.3497L12929.7363,-2821.6591L12929.2435,-2821.2385L12928.8223,-2820.6379L12928.8208,-2820.0672L12928.9963,-2819.6167L12929.5593,-2818.7456L12929.9454,-2817.9647L12930.2612,-2817.0637L12930.4703,-2815.8024L12931.2393,-2814.62"/>
<path content="AP030,1,28,1,0,15,1,8,JPN" xlink:title="AP030" d="M12931.2393,-2814.62L12933.1757,-2813.8502L12934.7229,-2813.6999L12935.5316,-2813.8203"/>
<path content="AP030,1,28,1,0,15,1,8,JPN" xlink:title="AP030" d="M12918.7683,-2818.5354L12920.4178,-2816.4698L12922.3862,-2815.4119L12924.1089,-2814.481L12923.9365,-2814.0694L12923.9349,-2812.748L12924.0266,-2812.5"/>
</g>
</svg>
