<?xml version="1.0" encoding="UTF-8"?>
<svg  xmlns="http://www.w3.org/2000/svg" xmlns:xlink="http://www.w3.org/1999/xlink" xmlns:go="http://purl.org/svgmap/profile" property="f_code,acc,exs,rst,med,rtt,RSU,loc,soc" viewBox="13957.03125 -3621.09375 35.15625 35.15625" go:dataArea="13957.03125 -3621.09375 35.15625 35.15625" >
<metadata>
 <rdf:RDF xmlns:rdf="http://www.w3.org/1999/02/22-rdf-syntax-ns#" xmlns:crs="http://opengis.org/xmldtds/transformations.dtd" xmlns:svg="http://www.w3.org/svg" >
  <rdf:Description>
   <crs:CoordinateReferenceSystem rdf:resource="http://purl.org/crs/84" svg:transform="matrix(100.0,0.0,0.0,-100.0,0.0,0.0)" />
  </rdf:Description>
 </rdf:RDF>
</metadata>
<globalCoordinateSystem srsName="http://purl.org/crs/84" transform="matrix(100.0,0.0,0.0,-100.0,0.0,0.0)" />
<defs>
 <g id="p0" >
  <circle cx="0.0" cy="0.0" r="3" stroke="green" stroke-width="2.0" vector-effect="non-scaling-stroke" />
 </g>
</defs>
<g fill="none" fill-rule="evenodd" stroke="#00ff00" stroke-width="2" opacity="0.5" vector-effect="non-scaling-stroke" stroke-linejoin="bevel" >
<path content="AP030,1,28,1,0,15,1,8,JPN" xlink:title="AP030" d="M13977.24,-3620.6932L13978.1862,-3621.0938"/>
<path content="AP030,1,28,1,0,15,1,8,JPN" xlink:title="AP030" d="M13966.3448,-3621.0938L13966.4413,-3620.8725L13966.6107,-3620.4266"/>
<path content="AP030,1,28,1,0,14,1,8,JPN" xlink:title="AP030" d="M13964.9714,-3621.0938L13964.9902,-3620.8599L13965.0803,-3620.7664L13965.2893,-3620.6932L13965.5197,-3620.62L13965.7898,-3620.4067L13965.9698,-3620.3865L13966.2003,-3620.4067L13966.3605,-3620.4144L13966.6107,-3620.4266"/>
<path content="AP030,1,28,1,0,14,1,8,JPN" xlink:title="AP030" d="M13979.58,-3621.0938L13979.5197,-3620.6066L13979.4296,-3620.1935"/>
<path content="AP030,1,28,1,0,14,1,8,JPN" xlink:title="AP030" d="M13977.24,-3620.6932L13977.7893,-3620.3732L13977.9495,-3620.3533L13978.2394,-3620.3335L13978.3295,-3620.3335L13979.4296,-3620.1935"/>
<path content="AP030,1,28,1,0,14,1,8,JPN" xlink:title="AP030" d="M13979.4296,-3620.1935L13979.4495,-3620.1935L13979.8599,-3620.1332L13980.04,-3620.1L13980.4901,-3620.1534L13981.5399,-3620.0665"/>
<path content="AP030,1,28,1,0,15,1,8,JPN" xlink:title="AP030" d="M13982.6466,-3621.0938L13982.8598,-3619.9532"/>
<path content="AP030,1,28,1,0,14,1,8,JPN" xlink:title="AP030" d="M13981.5399,-3620.0665L13982.8598,-3619.9532"/>
<path content="AP030,1,28,1,0,15,1,8,JPN" xlink:title="AP030" d="M13984.7198,-3619.8666L13985.3653,-3621.0926L13985.3667,-3621.0938"/>
<path content="AP030,1,28,1,0,14,1,8,JPN" xlink:title="AP030" d="M13982.8598,-3619.9532L13982.93,-3619.9532L13983.1497,-3620.1L13983.2901,-3620.1733L13983.4305,-3620.1935L13983.6502,-3620.1332L13983.9493,-3620.1199L13983.9706,-3620.1199L13984.3796,-3620.0466L13984.7198,-3619.8666"/>
<path content="AP030,1,28,1,0,14,1,8,JPN" xlink:title="AP030" d="M13971.8597,-3619.8467L13972.02,-3619.8666L13972.3602,-3619.9932L13972.3801,-3619.9932L13972.6303,-3620.0268L13972.8806,-3620.0466L13973.4497,-3620.1733L13973.9304,-3620.3865L13974.3805,-3620.5334L13974.5193,-3620.5532L13974.7696,-3620.5868L13974.9512,-3620.6051L13975.4898,-3620.66L13975.56,-3620.66L13975.9506,-3620.66L13976.5396,-3620.6402L13976.8799,-3620.6932L13977.24,-3620.6932"/>
<path content="AP030,1,28,1,0,14,1,8,JPN" xlink:title="AP030" d="M13971.1678,-3621.0938L13971.3303,-3620.8599L13971.4279,-3620.7653L13971.8307,-3620.3732L13971.8597,-3620.2065L13971.8597,-3619.8467"/>
<path content="AP030,1,28,1,0,14,1,8,JPN" xlink:title="AP030" d="M13971.8597,-3619.8467L13971.8597,-3619.36L13971.8597,-3619.22L13971.8597,-3619.1467"/>
<path content="AP030,1,28,1,0,14,1,8,JPN" xlink:title="AP030" d="M13966.6107,-3620.4266L13967.0197,-3620.2267L13967.45,-3620.1L13967.63,-3620.1199L13967.7902,-3620.0802L13968.3105,-3619.8467L13968.5196,-3619.6533L13968.6096,-3619.5599L13968.9301,-3619.2333L13969.5602,-3619.36L13969.6304,-3619.36L13969.7403,-3619.3066L13969.7693,-3619.22L13969.7906,-3618.9999L13969.7906,-3618.9667"/>
<path content="AP030,1,28,1,0,15,1,8,JPN" xlink:title="AP030" d="M13988.143,-3621.0938L13988.5208,-3620.509L13988.6505,-3618.9667"/>
<path content="AP030,1,28,1,0,14,1,8,JPN" xlink:title="AP030" d="M13984.7198,-3619.8666L13985.2707,-3619.8467L13985.8093,-3619.8334L13985.9497,-3619.7933L13985.9894,-3619.7933L13986.4304,-3619.7067L13986.7203,-3619.5267L13986.7905,-3619.4866L13987.4893,-3619.2734L13988.2401,-3619.1265L13988.6505,-3618.9667"/>
<path content="AP030,1,28,1,0,15,1,8,JPN" xlink:title="AP030" d="M13971.8597,-3619.1467L13971.7545,-3618.8435"/>
<path content="AP030,1,28,1,0,15,1,8,JPN" xlink:title="AP030" d="M13970.4361,-3619.4378L13971.0464,-3619.1628L13971.7545,-3618.8435"/>
<path content="AP030,1,28,1,0,14,1,8,JPN" xlink:title="AP030" d="M13971.8597,-3619.1467L13971.8307,-3618.8019"/>
<path content="AP030,1,28,1,0,15,1,8,JPN" xlink:title="AP030" d="M13971.7545,-3618.8435L13971.8307,-3618.8019"/>
<path content="AP030,1,28,1,0,15,1,8,JPN" xlink:title="AP030" d="M13969.2947,-3618.528L13969.7906,-3618.9667"/>
<path content="AP030,1,28,1,0,15,1,8,JPN" xlink:title="AP030" d="M13960.7494,-3621.0938L13961.2793,-3620.9732L13962.5412,-3620.1122L13963.0081,-3619.5114L13964.0076,-3619.4218L13965.1306,-3619.3672L13966.0477,-3619.1753L13967.8818,-3618.7916L13968.7912,-3618.6218L13969.2947,-3618.528"/>
<path content="AP030,1,28,1,0,14,1,8,JPN" xlink:title="AP030" d="M13988.6505,-3618.9667L13988.8306,-3618.8934L13989.1098,-3618.7866L13989.2197,-3618.7466L13989.74,-3618.7668L13990.1505,-3618.6199L13990.3595,-3618.5532L13990.6296,-3618.5135L13991.2704,-3618.2999L13991.4001,-3618.2999L13992.1875,-3618.4688"/>
<path content="AP030,1,28,1,0,15,1,8,JPN" xlink:title="AP030" d="M13971.8307,-3618.8019L13972.551,-3618.4086L13973.1705,-3617.7567"/>
<path content="AP030,1,28,1,0,14,1,8,JPN" xlink:title="AP030" d="M13971.8307,-3618.8019L13971.8094,-3618.5665L13971.8994,-3617.7399"/>
<path content="AP030,1,28,1,0,14,1,8,JPN" xlink:title="AP030" d="M13969.7906,-3618.9667L13970.2393,-3618.2068L13970.3995,-3618.0668L13970.5795,-3618.0668L13970.6802,-3618.0668L13971.0205,-3618.0134L13971.1807,-3617.9531L13971.4096,-3617.8795L13971.7407,-3617.7734L13971.8994,-3617.7399"/>
<path content="AP030,1,28,1,0,15,1,8,JPN" xlink:title="AP030" d="M13981.5399,-3620.0665L13980.9616,-3617.6117"/>
<path content="AP030,1,28,1,0,16,1,8,JPN" xlink:title="AP030" d="M13957.0312,-3621.0728L13957.0404,-3621.0533L13957.1793,-3620.8199L13957.6294,-3620.2267L13957.9498,-3619.7601L13958.3099,-3619.1467L13958.4702,-3618.8L13958.6105,-3618.2465L13958.7357,-3617.601"/>
<path content="AP030,1,28,1,0,15,1,8,JPN" xlink:title="AP030" d="M13957.0312,-3617.6117L13958.4747,-3617.6117L13958.7357,-3617.601"/>
<path content="AP030,1,28,1,0,15,1,8,JPN" xlink:title="AP030" d="M13973.1705,-3617.7567L13972.9706,-3617.2733"/>
<path content="AP030,1,28,1,0,14,1,8,JPN" xlink:title="AP030" d="M13971.8994,-3617.7399L13972.3999,-3617.54L13972.4701,-3617.5064L13972.9706,-3617.2733"/>
<path content="AP030,1,28,1,0,14,1,8,JPN" xlink:title="AP030" d="M13979.4296,-3620.1935L13979.3304,-3619.9734L13978.7201,-3618.9266L13978.6499,-3618.8L13978.0807,-3617.7734L13977.9297,-3617.3599L13977.8793,-3617.1467"/>
<path content="AP030,1,28,1,0,16,1,8,JPN" xlink:title="AP030" d="M13958.7357,-3617.601L13958.7402,-3617.58L13958.8303,-3616.8934"/>
<path content="AP030,1,28,1,0,15,1,8,JPN" xlink:title="AP030" d="M13957.0312,-3617.547L13957.4417,-3617.1227L13958.8303,-3616.8934"/>
<path content="AP030,1,28,1,0,15,1,8,JPN" xlink:title="AP030" d="M13973.1705,-3617.7567L13973.8663,-3617.8581L13974.2798,-3617.9188L13975.5966,-3617.6224L13976.1429,-3617.6281L13976.6434,-3617.1013L13977.0844,-3616.84L13977.8793,-3617.1467"/>
<path content="AP030,1,28,1,0,15,1,8,JPN" xlink:title="AP030" d="M13980.9616,-3617.6117L13982.991,-3616.6332L13984.3567,-3616.6908L13985.6155,-3616.6584L13986.9827,-3617.0269"/>
<path content="AP030,1,28,1,0,15,1,8,JPN" xlink:title="AP030" d="M13988.6505,-3618.9667L13988.6978,-3618.6626L13988.5315,-3618.2842L13988.4628,-3617.9268L13988.4918,-3617.6296L13988.7894,-3616.4749"/>
<path content="AP030,1,28,1,0,15,1,8,JPN" xlink:title="AP030" d="M13986.9827,-3617.0269L13987.7975,-3616.9449L13988.7894,-3616.4749"/>
<path content="AP030,1,28,1,0,15,1,8,JPN" xlink:title="AP030" d="M13964.1403,-3616.3799L13965.9103,-3618.2636L13967.2394,-3618.0466L13968.7164,-3618.1137L13968.8324,-3618.119L13969.2947,-3618.528"/>
<path content="AP030,1,28,1,0,15,1,8,JPN" xlink:title="AP030" d="M13958.7357,-3617.601L13960.2448,-3617.5392L13961.4838,-3617.3943L13964.1403,-3616.3799"/>
<path content="AP030,1,28,1,0,16,1,8,JPN" xlink:title="AP030" d="M13958.8303,-3616.8934L13959.0607,-3616.2998"/>
<path content="AP030,1,28,1,0,15,1,8,JPN" xlink:title="AP030" d="M13978.0197,-3616.1201L13978.7842,-3616.5028L13979.8691,-3617.0898L13980.9616,-3617.6117"/>
<path content="AP030,1,28,1,0,14,1,8,JPN" xlink:title="AP030" d="M13977.8793,-3617.1467L13977.9297,-3616.7999L13977.9297,-3616.7866L13978.0396,-3616.5531L13978.0197,-3616.1201"/>
<path content="AP030,1,28,1,0,15,1,8,JPN" xlink:title="AP030" d="M13962.3947,-3615.4366L13962.5473,-3616.0175L13962.7243,-3616.5249L13964.1403,-3616.3799"/>
<path content="AP030,1,28,1,0,15,1,8,JPN" xlink:title="AP030" d="M13959.0607,-3616.2998L13961.0779,-3615.8855L13962.3947,-3615.4366"/>
<path content="AP030,1,28,1,0,15,1,8,JPN" xlink:title="AP030" d="M13988.7894,-3616.4749L13989.4485,-3616.1625L13990.6006,-3615.8184L13991.7435,-3616.1392L13992.1875,-3615.9973"/>
<path content="AP030,1,28,1,0,15,1,8,JPN" xlink:title="AP030" d="M13961.2946,-3613.8008L13962.2803,-3615.0028L13962.3947,-3615.4366"/>
<path content="AP030,1,28,1,0,16,1,8,JPN" xlink:title="AP030" d="M13959.0607,-3616.2998L13959.3796,-3615.6868L13959.6298,-3615.3267L13960.0204,-3614.8201L13960.2402,-3614.6198L13960.8307,-3614.0999L13961.2198,-3613.8466L13961.2946,-3613.8008"/>
<path content="AP030,1,28,1,0,14,1,8,JPN" xlink:title="AP030" d="M13976.68,-3613.5265L13977.1103,-3614.0469L13977.3804,-3614.5L13977.7206,-3615.0532L13977.8793,-3615.6132L13977.9007,-3615.6532L13978.0197,-3616.1201"/>
<path content="AP030,1,28,1,0,14,1,8,JPN" xlink:title="AP030" d="M13972.9706,-3617.2733L13973.5077,-3617.0357L13974.0402,-3616.7999L13974.3103,-3616.6401L13974.4904,-3616.5134L13974.5605,-3616.32L13974.6094,-3616.1201L13974.7192,-3615.9733L13974.7894,-3615.8867L13974.8093,-3615.7734L13974.8306,-3615.72L13975.2899,-3615.2L13975.5203,-3614.8602L13975.65,-3614.6935L13975.6805,-3614.6599L13975.7904,-3614.5535L13975.9903,-3614.2799L13976.2695,-3613.94L13976.4694,-3613.6868L13976.68,-3613.5265"/>
<path content="AP030,1,28,1,0,15,1,8,JPN" xlink:title="AP030" d="M13986.0992,-3613.5174L13986.7538,-3614.4257L13986.8744,-3615.2931L13986.9827,-3617.0269"/>
<path content="AP030,1,28,1,0,15,1,8,JPN" xlink:title="AP030" d="M13962.3947,-3615.4366L13963.0829,-3615.2012L13966.0904,-3614.1914L13967.7628,-3613.5025L13969.2749,-3614.061L13966.9724,-3615.1478L13964.1403,-3616.3799"/>
<path content="AP030,1,28,1,0,15,1,8,JPN" xlink:title="AP030" d="M13957.0312,-3614.2246L13957.0572,-3614.2059L13957.8979,-3613.4552"/>
<path content="AP030,1,28,1,0,14,1,8,JPN" xlink:title="AP030" d="M13957.0312,-3613.5369L13957.4295,-3613.4666L13957.7988,-3613.4575L13957.8979,-3613.4552"/>
<path content="AP030,1,28,1,0,14,1,8,JPN" xlink:title="AP030" d="M13971.8994,-3617.7399L13971.9498,-3617.4L13972.0596,-3616.6065L13972.0795,-3616.1533L13972.02,-3616.0267L13971.8796,-3615.7734L13971.4005,-3614.8933L13971.3303,-3614.7865L13970.9,-3614.5332L13970.3293,-3614.2067L13970.4895,-3613.7066L13970.61,-3613.4335L13970.7001,-3613.2332"/>
<path content="AP030,1,28,1,0,15,1,8,JPN" xlink:title="AP030" d="M13960.6362,-3612.9979L13961.2946,-3613.8008"/>
<path content="AP030,1,28,1,0,14,1,8,JPN" xlink:title="AP030" d="M13957.0312,-3614.2782L13957.5394,-3614.1933L13958.9493,-3613.9534L13959.3307,-3613.8332L13960.1105,-3613.3469L13960.6362,-3612.9979"/>
<path content="AP030,1,28,1,0,15,1,8,JPN" xlink:title="AP030" d="M13960.4904,-3612.8201L13960.6362,-3612.9979"/>
<path content="AP030,1,28,1,0,14,1,8,JPN" xlink:title="AP030" d="M13957.8979,-3613.4552L13957.9697,-3613.4533L13958.3099,-3613.3999L13958.3603,-3613.3801L13958.5602,-3613.2732L13958.7402,-3613.1668L13959.3994,-3613.2L13959.5795,-3613.1466L13959.9503,-3613.0199L13960.4904,-3612.8201"/>
<path content="AP030,1,28,1,0,16,1,8,JPN" xlink:title="AP030" d="M13961.2946,-3613.8008L13961.8607,-3613.4533L13962.3306,-3613.0733L13962.5397,-3612.8399L13962.8387,-3612.5385"/>
<path content="AP030,1,28,1,0,14,1,8,JPN" xlink:title="AP030" d="M13960.4904,-3612.8201L13960.5804,-3612.7869L13961.1298,-3612.64L13961.8805,-3612.5534L13962.1796,-3612.3531L13962.8387,-3612.5385"/>
<path content="AP030,1,28,1,0,14,1,8,JPN" xlink:title="AP030" d="M13967.4301,-3611.7931L13967.4896,-3611.8332L13967.9306,-3612.0132L13967.9504,-3612.0266L13968.6493,-3612.4599L13968.9301,-3612.4947L13969.0796,-3612.5134L13969.3802,-3612.6068L13969.6411,-3612.7354L13970.2194,-3613.0199L13970.7001,-3613.2332"/>
<path content="AP030,1,28,1,0,14,1,8,JPN" xlink:title="AP030" d="M13962.8387,-3612.5385L13963.2004,-3612.64L13963.3102,-3612.64L13963.8794,-3612.6202L13964.0396,-3612.6801L13964.1098,-3612.6598L13964.3295,-3612.4802L13964.5599,-3612.3531L13964.9002,-3612.1933L13965.1505,-3612.1201L13965.6494,-3612.0266L13965.8798,-3611.9934L13966.2399,-3611.8332L13966.33,-3611.7733"/>
<path content="AP030,1,28,1,0,14,1,8,JPN" xlink:title="AP030" d="M13966.33,-3611.7733L13966.9006,-3611.6531L13967.0593,-3611.6531L13967.4301,-3611.7931"/>
<path content="AP030,1,28,1,0,15,1,8,JPN" xlink:title="AP030" d="M13990.9653,-3611.1626L13992.1875,-3611.1983"/>
<path content="AP030,1,28,1,0,15,1,8,JPN" xlink:title="AP030" d="M13988.7894,-3616.4749L13989.0167,-3615.5827L13989.9033,-3614.061L13990.6998,-3612.6118L13990.9653,-3611.1626"/>
<path content="AP030,1,28,1,0,15,1,8,JPN" xlink:title="AP030" d="M13979.5441,-3611.0176L13980.5679,-3611.4422L13981.7169,-3611.9587L13982.5974,-3612.6171L13984.1919,-3613.0657L13986.0992,-3613.5174"/>
<path content="AP030,1,28,1,0,15,1,8,JPN" xlink:title="AP030" d="M13980.9616,-3617.6117L13980.9616,-3615.5827L13981.0501,-3613.7711L13980.3406,-3612.3943L13979.5441,-3611.0176"/>
<path content="AP030,1,28,1,0,16,1,8,JPN" xlink:title="AP030" d="M13974.8093,-3610.64L13974.8093,-3610.7666L13974.8795,-3611.0199L13974.9695,-3611.4532L13975.1495,-3611.9534L13975.2197,-3612.0998L13975.4501,-3612.4401L13975.9705,-3612.9665L13976.6495,-3613.5067L13976.68,-3613.5265"/>
<path content="AP030,1,28,1,0,15,1,8,JPN" xlink:title="AP030" d="M13979.2435,-3610.2787L13979.5441,-3611.0176"/>
<path content="AP030,1,28,1,0,14,1,8,JPN" xlink:title="AP030" d="M13976.68,-3613.5265L13976.8295,-3613.3801L13977.1805,-3613.1268L13977.4002,-3613.0531L13977.5406,-3612.8933L13977.5192,-3612.6801L13977.3804,-3612.3001L13977.3605,-3612.2601L13977.3605,-3612.0998L13977.4902,-3611.9202L13977.5604,-3611.7931L13977.6093,-3611.6333L13977.6505,-3611.4666L13977.7206,-3611.38L13978.0197,-3611.2L13978.2196,-3611.0931L13978.4897,-3610.9268L13978.6804,-3610.8398L13978.83,-3610.6068L13979.0604,-3610.3867L13979.2435,-3610.2787"/>
<path content="AP030,1,28,1,0,15,1,8,JPN" xlink:title="AP030" d="M13967.4301,-3611.7931L13967.2623,-3611.1732L13967.5705,-3610.1326"/>
<path content="AP030,1,28,1,0,15,1,8,JPN" xlink:title="AP030" d="M13989.856,-3610.104L13990.9653,-3611.1626"/>
<path content="AP030,1,28,1,0,15,1,8,JPN" xlink:title="AP030" d="M13986.0992,-3613.5174L13987.4451,-3612.772L13988.7955,-3611.6657L13989.7385,-3610.9524L13989.856,-3610.104"/>
<path content="AP030,1,28,1,0,15,1,8,JPN" xlink:title="AP030" d="M13957.7896,-3609.8133L13958.3862,-3610.8002L13959.5566,-3612.262L13959.4879,-3612.3108L13958.0322,-3613.3366L13957.8979,-3613.4552"/>
<path content="AP030,1,28,1,0,14,1,8,JPN" xlink:title="AP030" d="M13957.0313,-3610.299L13957.0801,-3610.2467L13957.2906,-3610.12L13957.7896,-3609.8133"/>
<path content="AP030,1,28,1,0,15,1,8,JPN" xlink:title="AP030" d="M13989.3707,-3609.6409L13989.856,-3610.104"/>
<path content="AP030,1,28,1,0,15,1,8,JPN" xlink:title="AP030" d="M13966.7068,-3609.4959L13967.5705,-3610.1326"/>
<path content="AP030,1,28,1,0,15,1,8,JPN" xlink:title="AP030" d="M13966.33,-3611.7733L13966.7068,-3610.2203L13966.7068,-3609.4959"/>
<path content="AP030,1,28,1,0,15,1,8,JPN" xlink:title="AP030" d="M13982.8796,-3608.9668L13984.6786,-3609.7134L13986.5387,-3609.4959L13989.3707,-3609.6409"/>
<path content="AP030,1,28,1,0,14,1,8,JPN" xlink:title="AP030" d="M13979.2435,-3610.2787L13979.4907,-3610.1334L13979.5807,-3610.08L13979.95,-3609.8999L13980.1498,-3609.8331L13980.3802,-3609.8331L13980.6793,-3609.94L13981.1798,-3609.8866L13981.4697,-3609.8667L13981.9305,-3609.8331L13982.2006,-3609.7401L13982.3105,-3609.6867L13982.4707,-3609.3266L13982.5394,-3609.2201L13982.8796,-3608.9668"/>
<path content="AP030,1,28,1,0,14,1,8,JPN" xlink:title="AP030" d="M13970.7001,-3613.2332L13970.7703,-3613.0531L13970.99,-3612.7335L13971.2906,-3612.3867L13971.3104,-3612.3531L13971.3547,-3612.3062L13971.5195,-3612.1334L13971.7407,-3611.94L13971.8994,-3611.6669L13971.9696,-3611.5932L13972.1802,-3611.4532L13972.29,-3611.3468L13972.3099,-3611.1801L13972.2702,-3610.2467L13972.2397,-3610.1334L13972.2,-3609.7733L13972.1497,-3609.6333L13972.0596,-3609.38L13972.0795,-3608.82L13972.2397,-3608.6399L13972.3602,-3608.3866L13972.3602,-3608.3534L13972.4503,-3607.9201"/>
<path content="AP030,1,28,1,0,15,1,8,JPN" xlink:title="AP030" d="M13967.5705,-3610.1326L13967.8284,-3610.0937L13968.8187,-3609.9442L13969.6609,-3609.5951L13970.3232,-3609.3208L13971.1609,-3608.8245L13971.6309,-3608.4942L13972.4503,-3607.9201"/>
<path content="AP030,1,28,1,0,15,1,8,JPN" xlink:title="AP030" d="M13967.5705,-3610.1326L13967.8009,-3608.7543L13967.4149,-3608.3237L13966.9724,-3607.8293"/>
<path content="AP030,1,28,1,0,15,1,8,JPN" xlink:title="AP030" d="M13966.7068,-3609.4959L13966.8243,-3608.7669L13966.9724,-3607.8293"/>
<path content="AP030,1,28,1,0,15,1,8,JPN" xlink:title="AP030" d="M13964.2273,-3607.785L13965.2908,-3608.2642L13966.3116,-3609.1511L13966.7068,-3609.4959"/>
<path content="AP030,1,28,1,0,16,1,8,JPN" xlink:title="AP030" d="M13962.8387,-3612.5385L13962.9501,-3612.4268L13963.2004,-3612.1334L13963.4506,-3611.7733L13963.6505,-3611.3468L13963.7894,-3610.9135L13963.7955,-3610.8513L13963.8306,-3610.4599L13963.8306,-3610.0266L13963.8107,-3609.5268L13963.8306,-3609.0534L13963.8992,-3608.7132L13964.0198,-3608.2466L13964.1098,-3608.0132L13964.2273,-3607.785"/>
<path content="AP030,1,28,1,0,14,1,8,JPN" xlink:title="AP030" d="M13974.8093,-3610.64L13975.0397,-3610.2066L13975.2197,-3609.9533L13975.6104,-3609.5402L13976.4694,-3608.7666L13976.7899,-3608.44L13976.86,-3608.3L13977.0401,-3607.9201L13977.1103,-3607.7732L13977.24,-3607.5066"/>
<path content="AP030,1,28,1,0,14,1,8,JPN" xlink:title="AP030" d="M13982.8796,-3608.9668L13983.0399,-3608.7868L13983.2703,-3608.6601L13983.3801,-3608.6067L13983.58,-3608.6067L13983.8303,-3608.6201L13983.9905,-3608.5667L13984.0393,-3608.44L13984.1797,-3607.9933L13984.2697,-3607.8667L13984.4498,-3607.74L13984.61,-3607.7202L13984.9304,-3607.7068L13985.4706,-3607.4669L13985.8093,-3607.3269"/>
<path content="AP030,1,28,1,0,15,1,8,JPN" xlink:title="AP030" d="M13957.0312,-3609.0471L13957.7896,-3609.8133"/>
<path content="AP030,1,28,1,0,14,1,8,JPN" xlink:title="AP030" d="M13971.8796,-3607.0202L13972.1802,-3607.2868L13972.2702,-3607.4135L13972.4503,-3607.6332L13972.4503,-3607.9201"/>
<path content="AP030,1,28,1,0,14,1,8,JPN" xlink:title="AP030" d="M13957.7896,-3609.8133L13957.8598,-3609.7599L13958.1299,-3609.5798L13958.2397,-3609.4532L13958.3099,-3609.2201L13958.3801,-3608.9268L13958.49,-3608.7666L13958.9005,-3608.3733L13959.2194,-3608.1734L13959.2697,-3608.1532L13959.3307,-3608.0799L13959.4498,-3607.6866L13959.5596,-3607.5802L13960.08,-3607.2201L13960.2707,-3607.0732L13960.4507,-3606.8001"/>
<path content="AP030,1,28,1,0,15,1,8,JPN" xlink:title="AP030" d="M13976.3855,-3606.794L13977.24,-3607.5066"/>
<path content="AP030,1,28,1,0,15,1,8,JPN" xlink:title="AP030" d="M13972.4503,-3607.9201L13973.8983,-3607.5874L13975.9216,-3607.3429L13976.3855,-3606.794"/>
<path content="AP030,1,28,1,0,15,1,8,JPN" xlink:title="AP030" d="M13960.7193,-3606.3866L13962.3688,-3607.2495L13963.5208,-3607.4669L13964.2273,-3607.785"/>
<path content="AP030,1,28,1,0,14,1,8,JPN" xlink:title="AP030" d="M13960.4507,-3606.8001L13960.5804,-3606.62L13960.7193,-3606.3866"/>
<path content="AP030,1,28,1,0,15,1,8,JPN" xlink:title="AP030" d="M13990.6315,-3606.0887L13991.7877,-3606.5868L13992.1875,-3606.6765"/>
<path content="AP030,1,28,1,0,15,1,8,JPN" xlink:title="AP030" d="M13959.8892,-3605.8216L13960.7193,-3606.3866"/>
<path content="AP030,1,28,1,0,15,1,8,JPN" xlink:title="AP030" d="M13960.4507,-3606.8001L13959.8892,-3605.8216"/>
<path content="AP030,1,28,1,0,15,1,8,JPN" xlink:title="AP030" d="M13966.9724,-3607.8293L13965.9988,-3606.0902L13965.7349,-3605.1708"/>
<path content="AP030,1,28,1,0,16,1,8,JPN" xlink:title="AP030" d="M13964.2273,-3607.785L13964.3799,-3607.4867L13964.6301,-3607.1068L13965.0803,-3606.5132L13965.2405,-3606.2801L13965.3595,-3606.0799L13965.5197,-3605.8132L13965.7349,-3605.1708"/>
<path content="AP030,1,28,1,0,15,1,8,JPN" xlink:title="AP030" d="M13989.3707,-3609.6409L13989.1937,-3607.6118L13988.7512,-3605.4379L13988.3804,-3605.1468"/>
<path content="AP030,1,28,1,0,14,1,8,JPN" xlink:title="AP030" d="M13985.8093,-3607.3269L13985.8795,-3607.2868L13986.0199,-3607.1999L13986.1496,-3607.0934L13986.3098,-3606.9134L13986.4304,-3606.8199L13986.7401,-3606.7665L13986.8805,-3606.6933L13987.5198,-3605.6534L13987.6999,-3605.4001L13988.1104,-3605.2334L13988.3804,-3605.1468"/>
<path content="AP030,1,28,1,0,14,1,8,JPN" xlink:title="AP030" d="M13960.7193,-3606.3866L13960.8307,-3606.2801L13961.2198,-3606.0135L13961.7706,-3605.7201L13961.9003,-3605.5599L13962.3993,-3604.9999"/>
<path content="AP030,1,28,1,0,15,1,8,JPN" xlink:title="AP030" d="M13988.7207,-3604.6398L13989.7354,-3605.2605L13990.0162,-3605.8235L13990.6315,-3606.0887"/>
<path content="AP030,1,28,1,0,14,1,8,JPN" xlink:title="AP030" d="M13988.3804,-3605.1468L13988.6307,-3604.7668L13988.7207,-3604.6398"/>
<path content="AP030,1,28,1,0,15,1,8,JPN" xlink:title="AP030" d="M13984.8099,-3604.5132L13985.1807,-3604.9133L13985.3104,-3605.0732L13985.5392,-3605.6332L13985.6094,-3605.8666L13985.6995,-3606.1199L13985.7193,-3606.3198L13985.8994,-3606.62L13985.7895,-3607.1468L13985.7895,-3607.2201L13985.8093,-3607.3269"/>
<path content="AP030,1,28,1,0,14,1,8,JPN" xlink:title="AP030" d="M13990.6315,-3606.0887L13991.04,-3605.776L13991.4,-3605.328L13991.67,-3605.03L13992,-3604.812L13992.1875,-3604.7628"/>
<path content="AP030,1,28,1,0,15,1,8,JPN" xlink:title="AP030" d="M13958.0322,-3603.7712L13959.0057,-3605.2204L13959.8892,-3605.8216"/>
<path content="AP030,1,28,1,0,15,1,8,JPN" xlink:title="AP030" d="M13957.0313,-3604.7422L13958.0322,-3603.7712"/>
<path content="AP030,1,28,1,0,16,1,8,JPN" xlink:title="AP030" d="M13983.9294,-3603.5069L13984.8099,-3604.5132"/>
<path content="AP030,1,28,1,0,15,1,8,JPN" xlink:title="AP030" d="M13981.5704,-3605.1823L13983.136,-3604.3106L13983.9294,-3603.5069"/>
<path content="AP030,1,28,1,0,15,1,8,JPN" xlink:title="AP030" d="M13972.9294,-3603.2333L13973.259,-3603.7712L13974.498,-3605.2204L13976.3855,-3606.794"/>
<path content="AP030,1,28,1,0,14,1,8,JPN" xlink:title="AP030" d="M13971.8796,-3607.0202L13971.8094,-3606.9668L13971.4905,-3605.8666L13971.4905,-3605.6866L13971.8796,-3604.6932L13972.3099,-3603.6133L13972.9294,-3603.2333"/>
<path content="AP030,1,28,1,0,14,1,8,JPN" xlink:title="AP030" d="M13988.7207,-3604.6398L13988.8107,-3604.5666L13988.8107,-3604.4601L13989.4897,-3603.6133L13989.7903,-3603.3466L13989.9307,-3603.2734L13990.1794,-3603.2333L13990.5197,-3603.2333L13990.5594,-3603.2333"/>
<path content="AP030,1,28,1,0,15,1,8,JPN" xlink:title="AP030" d="M13959.8892,-3605.8216L13960.2844,-3604.8855L13960.8078,-3603.849L13960.2234,-3603.1723"/>
<path content="AP030,1,28,1,0,16,1,8,JPN" xlink:title="AP030" d="M13983.7906,-3603.0731L13983.7906,-3603.0933L13983.8303,-3603.3798L13983.9294,-3603.5069"/>
<path content="AP030,1,28,1,0,15,1,8,JPN" xlink:title="AP030" d="M13965.7349,-3605.1708L13965.6448,-3604.8584L13965.7196,-3603.0186"/>
<path content="AP030,1,28,1,0,15,1,8,JPN" xlink:title="AP030" d="M13962.3993,-3604.9999L13963.7695,-3604.8882L13965.0253,-3603.7857L13965.7196,-3603.0186"/>
<path content="AP030,1,28,1,0,15,1,8,JPN" xlink:title="AP030" d="M13958.0322,-3603.7712L13958.5739,-3603.1528L13959.1278,-3602.8988L13960.2234,-3603.1723"/>
<path content="AP030,1,28,1,0,14,1,8,JPN" xlink:title="AP030" d="M13990.5594,-3603.2333L13991.2399,-3603.4866L13991.4001,-3603.5069L13991.7404,-3603.5267L13991.9006,-3603.54L13992.1875,-3603.5935"/>
<path content="AP030,1,28,1,0,16,1,8,JPN" xlink:title="AP030" d="M13965.7349,-3605.1708L13965.8096,-3604.9465L13965.9897,-3604.3732L13966.1804,-3604.0668L13966.3712,-3603.7609L13966.4505,-3603.6331L13966.8793,-3603.2001L13966.9556,-3603.0884L13967.2195,-3602.6932L13967.3798,-3602.4399"/>
<path content="AP030,1,28,1,0,15,1,8,JPN" xlink:title="AP030" d="M13965.7196,-3603.0186L13965.9119,-3602.8069L13966.1942,-3602.4956L13966.8152,-3602.4666L13967.3798,-3602.4399"/>
<path content="AP030,1,28,1,0,14,1,8,JPN" xlink:title="AP030" d="M13962.3993,-3604.9999L13962.6999,-3604.2801L13962.9303,-3603.6533L13962.97,-3603.2001L13962.97,-3603.1467L13963.06,-3602.9133L13963.5803,-3601.9001"/>
<path content="AP030,1,28,1,0,15,1,8,JPN" xlink:title="AP030" d="M13960.2234,-3603.1723L13960.8307,-3602.5089L13962.4832,-3602.3418L13963.5803,-3601.9001"/>
<path content="AP030,1,28,1,0,14,1,8,JPN" xlink:title="AP030" d="M13963.5803,-3601.9001L13963.7207,-3601.7399L13963.7894,-3601.58L13963.8107,-3601.4332L13963.7894,-3601.2733L13963.9297,-3601.0735"/>
<path content="AP030,1,28,1,0,15,1,8,JPN" xlink:title="AP030" d="M13957.0312,-3602.4742L13957.6767,-3603.1914L13958.0322,-3603.7712"/>
<path content="AP030,1,28,1,0,15,1,8,JPN" xlink:title="AP030" d="M13971.8796,-3607.0202L13971.4432,-3606.8817L13971.228,-3606.8134L13970.8649,-3605.3318L13970.5032,-3603.9688L13970.3751,-3603.7788L13969.7784,-3602.9018L13969.3451,-3602.3685L13969.7784,-3601.598L13969.9234,-3600.7092"/>
<path content="AP030,1,28,1,0,15,1,8,JPN" xlink:title="AP030" d="M13967.3798,-3602.4399L13968.3548,-3602.0355L13969.9234,-3600.7092"/>
<path content="AP030,1,28,1,0,15,1,8,JPN" xlink:title="AP030" d="M13983.7906,-3603.0731L13983.8104,-3602.5002L13983.7692,-3602.2469L13983.7204,-3602.0802L13983.58,-3601.5934L13983.3099,-3601.5266L13983.1497,-3601.4668L13983.2703,-3601.2531L13983.3603,-3601.1066L13983.3603,-3600.8598L13983.4,-3600.7332L13983.5354,-3600.2553"/>
<path content="AP030,1,28,1,0,15,1,8,JPN" xlink:title="AP030" d="M13979.2435,-3610.2787L13979.1901,-3610.1479L13978.7476,-3608.6987L13979.3671,-3607.4669L13979.8981,-3606.0902L13980.6961,-3605.2204L13981.4926,-3603.8437L13982.2006,-3602.2495L13983.5354,-3600.2553"/>
<path content="AP030,1,28,1,0,15,1,8,JPN" xlink:title="AP030" d="M13983.5354,-3600.2553L13983.9294,-3599.6666"/>
<path content="AP030,1,28,1,0,15,1,8,JPN" xlink:title="AP030" d="M13965.7196,-3603.0186L13965.7333,-3602.6844L13965.6937,-3602.354L13965.6097,-3601.6533L13965.5853,-3599.836L13965.1993,-3599.3465"/>
<path content="AP030,1,28,1,0,14,1,8,JPN" xlink:title="AP030" d="M13963.9297,-3601.0735L13964.3997,-3600.7332L13964.4501,-3600.6908L13964.7003,-3600.4799L13964.7705,-3600.3201L13964.8605,-3599.8665L13965.1993,-3599.3465"/>
<path content="AP030,1,28,1,0,14,1,8,JPN" xlink:title="AP030" d="M13972.9294,-3603.2333L13973.0804,-3603.1467L13973.7,-3602.7466L13974.2004,-3602.4265L13974.5407,-3602.0668L13974.6094,-3601.9932L13975.2197,-3601.54L13975.2396,-3601.5266L13975.4501,-3601.3466L13975.4898,-3601.2333L13975.4898,-3601.0532L13975.2197,-3600.3201L13975.1801,-3599.5598L13975.2396,-3599.2199"/>
<path content="AP030,1,28,1,0,14,1,8,JPN" xlink:title="AP030" d="M13975.2396,-3599.2199L13975.4303,-3599.2733L13976.0193,-3599.3599L13976.3596,-3599.3797L13976.8097,-3599.3065L13976.86,-3599.3065L13977.3804,-3599.2199"/>
<path content="AP030,1,28,1,0,15,1,8,JPN" xlink:title="AP030" d="M13965.0604,-3599.1798L13965.1993,-3599.3465"/>
<path content="AP030,1,28,1,0,14,1,8,JPN" xlink:title="AP030" d="M13963.9297,-3601.0735L13964.2395,-3600.5867L13964.2899,-3600.4925L13964.3799,-3600.3201L13964.5599,-3599.9733L13964.6805,-3599.8466L13964.83,-3599.4534L13964.9307,-3599.3599L13965.0604,-3599.1798"/>
<path content="AP030,1,28,1,0,14,1,8,JPN" xlink:title="AP030" d="M13977.24,-3607.5066L13977.3102,-3607.3601L13977.3605,-3607L13977.3804,-3606.9134L13977.1301,-3605.9532L13977.0798,-3605.6332L13977.0798,-3605.4333L13977.1301,-3605.2868L13977.1301,-3605.2532L13977.2003,-3605.1067L13977.7695,-3604.3533L13977.7893,-3604.3201L13977.8793,-3604.1534L13978.1494,-3603.5267L13978.27,-3603.2734L13978.4698,-3602.8934L13978.54,-3602.7866L13978.6102,-3602.3201L13978.6804,-3600.9666L13978.7201,-3600.8732L13978.8605,-3600.6802L13978.9505,-3600.5669L13979.1794,-3600.3201L13979.3304,-3599.7932L13979.3594,-3599.6132L13979.3106,-3599.02"/>
<path content="AP030,1,28,1,0,14,1,8,JPN" xlink:title="AP030" d="M13977.3804,-3599.2199L13978.54,-3599.02L13978.5797,-3599.02L13979.3106,-3599.02"/>
<path content="AP030,1,28,1,0,14,1,8,JPN" xlink:title="AP030" d="M13979.3106,-3599.02L13979.7394,-3599.02L13980.0598,-3599.02"/>
<path content="AP030,1,28,1,0,14,1,8,JPN" xlink:title="AP030" d="M13980.0598,-3599.02L13980.6503,-3598.8598L13980.9006,-3598.84L13981.1096,-3598.8598L13981.2393,-3598.9132L13981.3995,-3598.9666L13982.1503,-3599.3599L13982.3593,-3599.4534L13982.6096,-3599.5266L13982.6996,-3599.5598L13982.9895,-3599.633L13983.4702,-3599.6666L13983.9294,-3599.6666"/>
<path content="AP030,1,28,1,0,14,1,8,JPN" xlink:title="AP030" d="M13974.4339,-3598.7831L13974.6506,-3598.8598L13974.8596,-3599.0398L13975.1999,-3599.2001L13975.2396,-3599.2199"/>
<path content="AP030,1,28,1,0,15,1,8,JPN" xlink:title="AP030" d="M13969.9234,-3600.7092L13971.4142,-3599.9466L13974.4339,-3598.7831"/>
<path content="AP030,1,28,1,0,15,1,8,JPN" xlink:title="AP030" d="M13990.5594,-3603.2333L13990.8768,-3601.1627L13990.3458,-3599.2062L13990.0345,-3598.6275"/>
<path content="AP030,1,28,1,0,15,1,8,JPN" xlink:title="AP030" d="M13976.1505,-3598.1533L13976.9745,-3598.8136L13977.3804,-3599.2199"/>
<path content="AP030,1,28,1,0,14,1,8,JPN" xlink:title="AP030" d="M13975.2396,-3599.2199L13975.2396,-3599.1467L13975.7004,-3598.7865L13975.8804,-3598.6599L13975.9003,-3598.6401L13976.1505,-3598.1533"/>
<path content="AP030,1,28,1,0,15,1,8,JPN" xlink:title="AP030" d="M13965.5396,-3598.1331L13965.6799,-3598.1934L13965.8096,-3598.2468"/>
<path content="AP030,1,28,1,0,14,1,8,JPN" xlink:title="AP030" d="M13965.0604,-3599.1798L13965.1993,-3599.02L13965.2405,-3598.9265L13965.2695,-3598.5664L13965.3793,-3598.3868L13965.4388,-3598.2933L13965.5396,-3598.1331"/>
<path content="AP030,1,28,1,0,15,1,8,JPN" xlink:title="AP030" d="M13990.0345,-3598.6275L13992.0776,-3598.0423L13992.1875,-3598.0849"/>
<path content="AP030,1,28,1,0,15,1,8,JPN" xlink:title="AP030" d="M13990.0345,-3598.6275L13989.3906,-3597.4342"/>
<path content="AP030,1,28,1,0,16,1,8,JPN" xlink:title="AP030" d="M13967.3798,-3602.4399L13967.45,-3602.1332L13967.5201,-3601.6666L13967.54,-3601.4L13967.4698,-3601.1467L13967.3798,-3600.8934L13966.9693,-3600.3201L13966.7892,-3600.0797L13966.6306,-3599.7601L13966.4902,-3599.2867L13966.4307,-3598.7999L13966.4307,-3598.373L13966.4505,-3597.9931L13966.5207,-3597.72L13966.6641,-3597.4026"/>
<path content="AP030,1,28,1,0,14,1,8,JPN" xlink:title="AP030" d="M13965.8096,-3598.2468L13966.2903,-3597.5266L13966.3605,-3597.4667L13966.6641,-3597.4026"/>
<path content="AP030,1,28,1,0,14,1,8,JPN" xlink:title="AP030" d="M13957.0312,-3600.1005L13957.1304,-3599.9733L13957.3303,-3599.7066L13957.4295,-3599.5934L13957.6096,-3599.4133L13957.9697,-3599.0932L13958.5205,-3598.4798L13958.8104,-3598.2067L13958.8303,-3598.1934L13958.9005,-3598.1197L13959.0195,-3598.0133L13959.3307,-3597.7066L13959.3597,-3597.6868L13959.4696,-3597.5933L13959.7702,-3597.3999L13960.1807,-3597.1066"/>
<path content="AP030,1,28,1,0,15,1,8,JPN" xlink:title="AP030" d="M13988.7573,-3596.9219L13989.3906,-3597.4342"/>
<path content="AP030,1,28,1,0,15,1,8,JPN" xlink:title="AP030" d="M13983.9294,-3603.5069L13984.8907,-3602.2255L13985.1913,-3601.3878L13986.3068,-3599.7639L13987.0224,-3597.9492L13988.0646,-3597.3984L13988.7573,-3596.9219"/>
<path content="AP030,1,28,1,0,15,1,8,JPN" xlink:title="AP030" d="M13989.3906,-3597.4342L13989.0167,-3596.7426"/>
<path content="AP030,1,28,1,0,15,1,8,JPN" xlink:title="AP030" d="M13988.7573,-3596.9219L13989.0167,-3596.7426"/>
<path content="AP030,1,28,1,0,14,1,8,JPN" xlink:title="AP030" d="M13966.6641,-3597.4026L13966.7694,-3597.3801L13966.8304,-3597.3267L13966.9907,-3597.0531L13967.1799,-3596.7865L13967.3599,-3596.5332"/>
<path content="AP030,1,28,1,0,14,1,8,JPN" xlink:title="AP030" d="M13967.2226,-3596.4813L13967.3294,-3596.5332L13967.3599,-3596.5332"/>
<path content="AP030,1,28,1,0,16,1,8,JPN" xlink:title="AP030" d="M13966.6641,-3597.4026L13966.7404,-3597.2332L13967.0807,-3596.6801L13967.2226,-3596.4813"/>
<path content="AP030,1,28,1,0,14,1,8,JPN" xlink:title="AP030" d="M13965.5396,-3598.1331L13965.95,-3597.4331L13966.1301,-3597.3064L13966.2704,-3597.0932L13966.6794,-3596.8933L13966.7694,-3596.7999L13967.0593,-3596.4397L13967.1097,-3596.4268L13967.2226,-3596.4813"/>
<path content="AP030,1,28,1,0,15,1,8,JPN" xlink:title="AP030" d="M13963.3804,-3596.32L13964.3173,-3598.2643L13965.0604,-3599.1798"/>
<path content="AP030,1,28,1,0,14,1,8,JPN" xlink:title="AP030" d="M13962.97,-3596.2067L13963.3804,-3596.32"/>
<path content="AP030,1,28,1,0,14,1,8,JPN" xlink:title="AP030" d="M13962.5397,-3595.94L13962.97,-3596.2067"/>
<path content="AP030,1,28,1,0,15,1,8,JPN" xlink:title="AP030" d="M13960.2234,-3603.1723L13959.9243,-3601.9402L13960.0983,-3601.2302L13960.2707,-3600.5295L13960.0098,-3599.7074L13961.084,-3598.5283L13962.2086,-3597.0894L13962.2559,-3596.9261L13962.326,-3596.6843L13962.5397,-3595.94"/>
<path content="AP030,1,28,1,0,14,1,8,JPN" xlink:title="AP030" d="M13962.3093,-3595.8466L13962.5397,-3595.94"/>
<path content="AP030,1,28,1,0,15,1,8,JPN" xlink:title="AP030" d="M13987.4634,-3595.8248L13988.5391,-3596.7461L13988.7573,-3596.9219"/>
<path content="AP030,1,28,1,0,14,1,8,JPN" xlink:title="AP030" d="M13983.9294,-3599.6666L13983.9706,-3599.6666L13984.3094,-3599.633L13984.6298,-3599.5399L13984.6802,-3599.5068L13984.9899,-3599.2531L13985.1105,-3599.1798L13986.1801,-3598.1331L13986.7706,-3596.9868L13986.8607,-3596.7999L13987.1506,-3596.2067L13987.3093,-3596.0133L13987.4634,-3595.8248"/>
<path content="AP030,1,28,1,0,14,1,8,JPN" xlink:title="AP030" d="M13979.3106,-3599.02L13979.3106,-3598.8598L13979.2816,-3598.0667L13979.2694,-3597.76L13979.2892,-3597.6532L13979.3304,-3597.1466L13979.5197,-3595.5265"/>
<path content="AP030,1,28,1,0,15,1,8,JPN" xlink:title="AP030" d="M13977.3804,-3599.2199L13977.7527,-3598.0751L13977.9587,-3597.4461L13978.5248,-3596.2978L13979.5197,-3595.5265"/>
<path content="AP030,1,28,1,0,14,1,8,JPN" xlink:title="AP030" d="M13960.8093,-3595.38L13961.3998,-3595.5799L13961.4304,-3595.5799L13961.6806,-3595.6665L13962.0056,-3595.7596L13962.1338,-3595.7962L13962.3093,-3595.8466"/>
<path content="AP030,1,28,1,0,14,1,8,JPN" xlink:title="AP030" d="M13960.1807,-3597.1066L13960.2005,-3597.0932L13960.4004,-3596.8399L13960.5804,-3596.5668L13960.6293,-3596.4268L13960.7697,-3596.0464L13960.7895,-3595.9534L13960.8093,-3595.38"/>
<path content="AP030,1,28,1,0,15,1,8,JPN" xlink:title="AP030" d="M13957.0312,-3595.3542L13958.5724,-3596.0335L13959.4162,-3596.5965L13960.1807,-3597.1066"/>
<path content="AP030,1,28,1,0,15,1,8,JPN" xlink:title="AP030" d="M13989.0167,-3596.7426L13987.9898,-3595.1797"/>
<path content="AP030,1,28,1,0,14,1,8,JPN" xlink:title="AP030" d="M13987.4634,-3595.8248L13987.9898,-3595.1797"/>
<path content="AP030,1,28,1,0,15,1,8,JPN" xlink:title="AP030" d="M13969.9234,-3600.7092L13969.8517,-3599.5239L13969.4168,-3598.6942L13969.4901,-3597.9828L13970.0684,-3596.3234L13970.0684,-3595.8492L13969.9677,-3595.4174L13969.9005,-3595.1267"/>
<path content="AP030,1,28,1,0,14,1,8,JPN" xlink:title="AP030" d="M13967.3599,-3596.5332L13967.5797,-3596.3867L13967.8299,-3596.2265L13968.3594,-3596.0133L13968.4494,-3595.9534L13968.4692,-3595.94L13969.2001,-3595.3465L13969.2398,-3595.3266L13969.4885,-3595.2003L13969.5602,-3595.1797L13969.7205,-3595.1466L13969.9005,-3595.1267"/>
<path content="AP030,1,28,1,0,15,1,8,JPN" xlink:title="AP030" d="M13986.2518,-3594.7105L13986.554,-3594.9978L13987.085,-3595.5006L13987.4634,-3595.8248"/>
<path content="AP030,1,28,1,0,15,1,8,JPN" xlink:title="AP030" d="M13983.9294,-3599.6666L13984.256,-3599.3027L13984.6375,-3599.0368L13984.9731,-3598.9208L13985.3439,-3598.5741L13985.6796,-3598.1922L13985.9909,-3597.8336L13986.1298,-3597.4865L13986.0382,-3596.8735L13985.7941,-3596.3238L13985.7605,-3596.249L13985.7605,-3596.0293L13985.8414,-3595.4391L13985.9451,-3594.8956L13986.2518,-3594.7105"/>
<path content="AP030,1,28,1,0,14,1,8,JPN" xlink:title="AP030" d="M13987.9898,-3595.1797L13988.4705,-3594.5866"/>
<path content="AP030,1,28,1,0,15,1,8,JPN" xlink:title="AP030" d="M13986.911,-3594.5736L13987.9898,-3595.1797"/>
<path content="AP030,1,28,1,0,15,1,8,JPN" xlink:title="AP030" d="M13986.2518,-3594.7105L13986.911,-3594.5736"/>
<path content="AP030,1,28,1,0,15,1,8,JPN" xlink:title="AP030" d="M13989.0167,-3596.7426L13990.1382,-3596.9505L13990.8386,-3596.2563L13991.6443,-3596.1235L13991.9998,-3595.2858L13992.1875,-3594.8457"/>
<path content="AP030,1,28,1,0,15,1,8,JPN" xlink:title="AP030" d="M13988.4705,-3594.5866L13989.9719,-3594.5576L13990.4984,-3595.0363L13992.1875,-3594.502"/>
<path content="AP030,1,28,1,0,14,1,8,JPN" xlink:title="AP030" d="M13970.7901,-3594.3531L13970.8801,-3594.3867L13971.0205,-3594.4401L13971.3104,-3594.5667L13971.4905,-3594.68L13971.7407,-3594.8933L13971.7697,-3594.9265L13971.8796,-3595.0531L13971.9696,-3595.1466L13972.4503,-3595.3598L13972.7005,-3595.5265L13973.1796,-3596.2467L13973.2697,-3596.3867L13973.5199,-3596.7999L13973.6801,-3597.0531L13973.7,-3597.1466L13973.6496,-3597.253L13973.6099,-3597.4133L13973.6038,-3597.4468L13973.5794,-3597.5597L13973.6298,-3597.7398L13974.0402,-3598.5531L13974.1501,-3598.6797L13974.1806,-3598.6931L13974.4339,-3598.7831"/>
<path content="AP030,1,28,1,0,15,1,8,JPN" xlink:title="AP030" d="M13986.5067,-3594.347L13986.911,-3594.5736"/>
<path content="AP030,1,28,1,0,14,1,8,JPN" xlink:title="AP030" d="M13968.8004,-3594.3272L13968.8797,-3594.3531L13968.9301,-3594.3733L13969.2902,-3594.5L13969.4305,-3594.6598L13969.5801,-3594.82L13969.9005,-3595.1267"/>
<path content="AP030,1,28,1,0,14,1,8,JPN" xlink:title="AP030" d="M13967.3599,-3596.5332L13967.4301,-3596.4066L13967.6804,-3596.08L13967.8299,-3595.9L13967.9901,-3595.7397L13968.1503,-3595.5799L13968.2007,-3595.5399L13968.4006,-3595.3068L13968.5394,-3595.0733L13968.6493,-3594.7132L13968.692,-3594.5694L13968.7393,-3594.4065L13968.8004,-3594.3272"/>
<path content="AP030,1,28,1,0,14,1,8,JPN" xlink:title="AP030" d="M13968.6676,-3594.2844L13968.8004,-3594.3272"/>
<path content="AP030,1,28,1,0,16,1,8,JPN" xlink:title="AP030" d="M13967.2226,-3596.4813L13967.5598,-3596.0133L13967.8101,-3595.76L13968.2404,-3595.3266L13968.4006,-3595.0932L13968.4906,-3594.82L13968.5745,-3594.4805L13968.5806,-3594.4599L13968.6295,-3594.3333L13968.6676,-3594.2844"/>
<path content="AP030,1,28,1,0,14,1,8,JPN" xlink:title="AP030" d="M13969.0201,-3594.0468L13969.1803,-3594.0666L13969.7205,-3594.173L13969.9493,-3594.1933L13970.3995,-3594.2467L13970.7901,-3594.3531"/>
<path content="AP030,1,28,1,0,14,1,8,JPN" xlink:title="AP030" d="M13968.8004,-3594.3272L13968.8599,-3594.2467L13969.0201,-3594.0468"/>
<path content="AP030,1,28,1,0,14,1,8,JPN" xlink:title="AP030" d="M13968.8843,-3594.0239L13969.0201,-3594.0468"/>
<path content="AP030,1,28,1,0,16,1,8,JPN" xlink:title="AP030" d="M13968.6676,-3594.2844L13968.7698,-3594.1532L13968.8843,-3594.0239"/>
<path content="AP030,1,28,1,0,14,1,8,JPN" xlink:title="AP030" d="M13963.3804,-3596.32L13963.6505,-3596.3867L13964.1098,-3596.3734L13964.3021,-3596.344L13964.7202,-3596.2799L13965.1093,-3596.133L13965.4495,-3595.993L13965.6296,-3595.9L13966.8793,-3595.1267L13967.0197,-3595.0199L13967.0593,-3594.9867L13967.5598,-3594.4599L13967.7902,-3594.3001L13967.8833,-3594.2276L13968.0206,-3594.12L13968.0405,-3594.0998L13968.1793,-3594.0266L13968.2205,-3594.0132"/>
<path content="AP030,1,28,1,0,14,1,8,JPN" xlink:title="AP030" d="M13968.6996,-3593.9934L13968.8843,-3594.0239"/>
<path content="AP030,1,28,1,0,14,1,8,JPN" xlink:title="AP030" d="M13968.6676,-3594.2844L13968.4906,-3594.2265L13968.6096,-3594.0998L13968.6996,-3593.9934"/>
<path content="AP030,1,28,1,0,14,1,8,JPN" xlink:title="AP030" d="M13968.2205,-3594.0132L13968.3594,-3593.9934L13968.5196,-3593.9732L13968.6096,-3593.9732L13968.6996,-3593.9934"/>
<path content="AP030,1,28,1,0,15,1,8,JPN" xlink:title="AP030" d="M13983.7784,-3593.821L13985.408,-3594.2905L13986.2518,-3594.7105"/>
<path content="AP030,1,28,1,0,15,1,8,JPN" xlink:title="AP030" d="M13980.0598,-3599.02L13980.1682,-3598.0339L13980.2063,-3597.6864L13981.2195,-3596.6198L13982.0892,-3595.8492L13982.8125,-3595.1382L13983.3191,-3594.6049L13983.7784,-3593.821"/>
<path content="AP030,1,28,1,0,15,1,8,JPN" xlink:title="AP030" d="M13962.3093,-3595.8466L13962.0514,-3595.047L13962.6694,-3593.7466"/>
<path content="AP030,1,28,1,0,16,1,8,JPN" xlink:title="AP030" d="M13968.8843,-3594.0239L13969.2001,-3593.6665L13969.2398,-3593.6131"/>
<path content="AP030,1,28,1,0,15,1,8,JPN" xlink:title="AP030" d="M13969.1315,-3593.5318L13969.2398,-3593.6131"/>
<path content="AP030,1,28,1,0,14,1,8,JPN" xlink:title="AP030" d="M13968.6996,-3593.9934L13968.9301,-3593.7599L13969.1315,-3593.5318"/>
<path content="AP030,1,28,1,0,15,1,8,JPN" xlink:title="AP030" d="M13985.1303,-3593.3601L13986.5067,-3594.347"/>
<path content="AP030,1,28,1,0,15,1,8,JPN" xlink:title="AP030" d="M13982.4158,-3593.3208L13983.7784,-3593.821"/>
<path content="AP030,1,28,1,0,15,1,8,JPN" xlink:title="AP030" d="M13979.5197,-3595.5265L13980.4687,-3594.9772L13981.2546,-3594.4263L13981.7184,-3594.0216L13982.4158,-3593.3208"/>
<path content="AP030,1,28,1,0,15,1,8,JPN" xlink:title="AP030" d="M13984.1888,-3593.1229L13985.1303,-3593.3601"/>
<path content="AP030,1,28,1,0,15,1,8,JPN" xlink:title="AP030" d="M13983.7784,-3593.821L13984.1888,-3593.1229"/>
<path content="AP030,1,28,1,0,14,1,8,JPN" xlink:title="AP030" d="M13959.2407,-3592.8398L13959.79,-3593.56L13959.9503,-3593.7401L13960.4507,-3594.3001L13960.5392,-3594.4065L13960.6812,-3594.595L13960.7697,-3594.7132L13960.8093,-3594.7998L13960.8093,-3595.38"/>
<path content="AP030,1,28,1,0,15,1,8,JPN" xlink:title="AP030" d="M13986.5067,-3594.347L13987.085,-3592.9451L13988.3133,-3592.7944"/>
<path content="AP030,1,28,1,0,14,1,8,JPN" xlink:title="AP030" d="M13959.0393,-3592.7132L13959.2407,-3592.8398"/>
<path content="AP030,1,28,1,0,15,1,8,JPN" xlink:title="AP030" d="M13957.0312,-3594.0786L13957.2418,-3593.8236L13959.0393,-3592.7132"/>
<path content="AP030,1,28,1,0,14,1,8,JPN" xlink:title="AP030" d="M13988.4705,-3594.5866L13988.8794,-3594.0666L13989.4501,-3593.3998L13989.5599,-3593.3067L13989.7003,-3593.2331L13989.8605,-3593.1465L13991.1011,-3592.6586"/>
<path content="AP030,1,28,1,0,15,1,8,JPN" xlink:title="AP030" d="M13967.8772,-3592.5907L13969.1315,-3593.5318"/>
<path content="AP030,1,28,1,0,15,1,8,JPN" xlink:title="AP030" d="M13968.2205,-3594.0132L13967.8772,-3592.5907"/>
<path content="AP030,1,28,1,0,14,1,8,JPN" xlink:title="AP030" d="M13978.2898,-3592.4599L13978.7003,-3592.8398L13978.7201,-3592.9665L13978.9902,-3593.5932L13979.1794,-3593.9732L13979.2007,-3594.0998L13979.2892,-3594.4599L13979.3793,-3594.873L13979.4693,-3595.2534L13979.5197,-3595.5265"/>
<path content="AP030,1,28,1,0,14,1,8,JPN" xlink:title="AP030" d="M13976.1505,-3598.1533L13976.2695,-3597.9931L13976.4969,-3597.5739L13976.6296,-3597.3267L13976.7197,-3597.1466L13977.0401,-3596.5L13977.1103,-3596.3531L13977.2003,-3596.2265L13977.4506,-3595.8466L13977.6093,-3595.6131L13977.6093,-3595.5799L13977.6306,-3595.5265L13977.5406,-3595.1797L13977.5192,-3594.9131L13977.5803,-3594.5866L13977.6794,-3594.0266L13977.7695,-3593.6131L13977.7695,-3593.5799L13977.8305,-3593.3998L13977.8595,-3593.3468L13978.0396,-3593.0531L13978.2394,-3592.7666L13978.2898,-3592.5865L13978.2898,-3592.4599"/>
<path content="AP030,1,28,1,0,15,1,8,JPN" xlink:title="AP030" d="M13967.4271,-3592.3275L13967.8772,-3592.5907"/>
<path content="AP030,1,28,1,0,15,1,8,JPN" xlink:title="AP030" d="M13982.3776,-3592.1749L13984.1888,-3593.1229"/>
<path content="AP030,1,28,1,0,15,1,8,JPN" xlink:title="AP030" d="M13982.4158,-3593.3208L13982.3776,-3592.1749"/>
<path content="AP030,1,28,1,0,15,1,8,JPN" xlink:title="AP030" d="M13987.6999,-3592.1734L13988.3133,-3592.7944"/>
<path content="AP030,1,28,1,0,14,1,8,JPN" xlink:title="AP030" d="M13957.0313,-3592.363L13958.1299,-3592.4267L13958.49,-3592.4999L13959.0393,-3592.7132"/>
<path content="AP030,1,28,1,0,15,1,8,JPN" xlink:title="AP030" d="M13965.1398,-3591.2182L13966.6412,-3591.8682L13967.4271,-3592.3275"/>
<path content="AP030,1,28,1,0,15,1,8,JPN" xlink:title="AP030" d="M13962.97,-3596.2067L13963.6154,-3595.1698L13964.0045,-3594.836L13964.7308,-3594.2142L13964.798,-3592.8814L13964.7995,-3592.8375L13965.2237,-3592.1722L13965.1398,-3591.2182"/>
<path content="AP030,1,28,1,0,15,1,8,JPN" xlink:title="AP030" d="M13963.3301,-3591.1129L13965.1398,-3591.2182"/>
<path content="AP030,1,28,1,0,15,1,8,JPN" xlink:title="AP030" d="M13962.6694,-3593.7466L13963.1973,-3593.1633L13963.3362,-3593.0103L13963.3347,-3592.3729L13963.3301,-3591.1129"/>
<path content="AP030,1,28,1,0,15,1,8,JPN" xlink:title="AP030" d="M13962.6694,-3593.7466L13962.7579,-3592.5182L13962.709,-3592.2642L13962.6404,-3591.9006L13962.4817,-3591.0633L13963.3301,-3591.1129"/>
<path content="AP030,1,28,1,0,15,1,8,JPN" xlink:title="AP030" d="M13991.1011,-3592.6586L13990.8249,-3591.6515L13990.7211,-3591.4658L13990.4877,-3591.0488"/>
<path content="AP030,1,28,1,0,15,1,8,JPN" xlink:title="AP030" d="M13988.3133,-3592.7944L13988.533,-3592.7673L13988.9679,-3592.234L13990.4877,-3591.0488"/>
<path content="AP030,1,28,1,0,14,1,8,JPN" xlink:title="AP030" d="M13991.1011,-3592.6586L13992.1494,-3592.2466L13992.1875,-3592.2267"/>
<path content="AP030,1,28,1,0,14,1,8,JPN" xlink:title="AP030" d="M13959.2407,-3592.8398L13959.2514,-3592.7006L13959.3597,-3591.3067L13959.3796,-3591.1266L13959.4696,-3590.913L13959.5596,-3590.6933"/>
<path content="AP030,1,28,1,0,15,1,8,JPN" xlink:title="AP030" d="M13957.0312,-3591.2869L13957.814,-3591.0011L13958.786,-3590.7124L13959.5596,-3590.6933"/>
<path content="AP030,1,28,1,0,14,1,8,JPN" xlink:title="AP030" d="M13978.2898,-3592.4599L13978.1494,-3592.3332L13977.9236,-3592.1181L13977.24,-3591.4665L13977.1103,-3591.3467L13976.9897,-3591.2197L13976.7395,-3590.5132L13976.6495,-3590.2599"/>
<path content="AP030,1,28,1,0,15,1,8,JPN" xlink:title="AP030" d="M13970.7901,-3594.3531L13972.2015,-3593.2407L13973.526,-3592.1574L13975.8209,-3591.0011L13976.6495,-3590.2599"/>
<path content="AP030,1,28,1,0,15,1,8,JPN" xlink:title="AP030" d="M13990.4877,-3591.0488L13990.8447,-3590.8596L13991.7191,-3590.3969L13992.1875,-3590.3133"/>
<path content="AP030,1,28,1,0,14,1,8,JPN" xlink:title="AP030" d="M13976.6495,-3590.2599L13975.79,-3590.115L13975.33,-3590.128L13974.78,-3590.19L13974.2,-3590.24L13973.85,-3590.153L13973.6485,-3590.0402"/>
<path content="AP030,1,28,1,0,15,1,8,JPN" xlink:title="AP030" d="M13970.7901,-3594.3531L13971.6232,-3592.5961L13973.2773,-3590.3324L13973.6485,-3590.0402"/>
<path content="AP030,1,28,1,0,14,1,8,JPN" xlink:title="AP030" d="M13959.5596,-3590.6933L13960.0601,-3589.9399"/>
<path content="AP030,1,28,1,0,15,1,8,JPN" xlink:title="AP030" d="M13979.0482,-3589.8041L13980.0613,-3590.2191L13980.7846,-3590.7524L13981.5094,-3591.6412L13982.3776,-3592.1749"/>
<path content="AP030,1,28,1,0,14,1,8,JPN" xlink:title="AP030" d="M13976.6495,-3590.2599L13976.6495,-3590.2267L13976.6296,-3590.1333L13976.6495,-3590.0665L13976.77,-3589.7198"/>
<path content="AP030,1,28,1,0,15,1,8,JPN" xlink:title="AP030" d="M13967.4271,-3592.3275L13966.6962,-3589.5763"/>
<path content="AP030,1,28,1,0,15,1,8,JPN" xlink:title="AP030" d="M13965.1398,-3591.2182L13965.5212,-3590.7608L13966.0309,-3590.3942L13966.6962,-3589.5763"/>
<path content="AP030,1,28,1,0,14,1,8,JPN" xlink:title="AP030" d="M13973.6485,-3590.0402L13973.25,-3589.817L13972.54,-3589.481L13972.2154,-3589.3402"/>
<path content="AP030,1,28,1,0,14,1,8,JPN" xlink:title="AP030" d="M13969.0201,-3594.0468L13969.1101,-3593.9533L13969.22,-3593.8999L13969.3298,-3593.8866L13969.4305,-3593.8667L13969.4702,-3593.8332L13969.5404,-3593.6665L13969.6106,-3593.5066L13969.7205,-3593.3598L13969.8303,-3593.2533L13970.1294,-3592.9867L13970.3995,-3592.6933L13970.4498,-3592.6399L13970.4895,-3592.5667L13970.5399,-3592.4801L13970.61,-3592.2798L13970.6802,-3592.0265L13970.6802,-3591.9731L13970.7001,-3591.9399L13970.7703,-3591.7198L13970.8298,-3591.56L13971.0403,-3591.1465L13971.1502,-3590.8932L13971.6995,-3590.0131L13971.9894,-3589.653L13972.1298,-3589.4665L13972.2154,-3589.3402"/>
<path content="AP030,1,28,1,0,14,1,8,JPN" xlink:title="AP030" d="M13974.5804,-3589.3066L13974.7406,-3589.3997L13974.8306,-3589.4131L13975.0793,-3589.4131L13975.1297,-3589.4131L13975.6805,-3589.3799L13975.8606,-3589.5397L13975.9293,-3589.5599L13976.0193,-3589.5397L13976.1093,-3589.5397L13976.2695,-3589.5397L13976.5198,-3589.6332L13976.77,-3589.7198"/>
<path content="AP030,1,28,1,0,15,1,8,JPN" xlink:title="AP030" d="M13973.6485,-3590.0402L13974.5804,-3589.3066"/>
<path content="AP030,1,28,1,0,14,1,8,JPN" xlink:title="AP030" d="M13960.0601,-3589.9399L13960.5392,-3589.5397L13960.6995,-3589.4333L13961.0596,-3589.1464L13961.1099,-3589.093"/>
<path content="AP030,1,28,1,0,15,1,8,JPN" xlink:title="AP030" d="M13977.1103,-3589.04L13978.2578,-3589.4924L13979.0482,-3589.8041"/>
<path content="AP030,1,28,1,0,14,1,8,JPN" xlink:title="AP030" d="M13976.77,-3589.7198L13977.1103,-3589.04"/>
<path content="AP030,1,28,1,0,15,1,8,JPN" xlink:title="AP030" d="M13967.8772,-3592.5907L13970.3476,-3590.2065L13970.6131,-3589.9178L13971.2204,-3588.7867"/>
<path content="AP030,1,28,1,0,14,1,8,JPN" xlink:title="AP030" d="M13982.89,-3590.115L13982.7,-3589.698L13982.59,-3589.205L13982.5715,-3588.7547"/>
<path content="AP030,1,28,1,0,14,1,8,JPN" xlink:title="AP030" d="M13969.1315,-3593.5318L13969.3604,-3593.2732L13969.5404,-3593.1065L13969.8807,-3592.7998L13970.0607,-3592.6067L13970.0806,-3592.5667L13970.1996,-3592.3866L13970.3094,-3592.0132L13970.43,-3591.6531L13970.4498,-3591.5798L13970.5795,-3591.2865L13970.7001,-3591.053L13970.9305,-3590.62L13971.4706,-3589.793L13971.5805,-3589.653L13971.6293,-3589.5931L13971.8796,-3589.2864L13972.02,-3589.0732L13972.0398,-3589.04L13972.1298,-3588.8397L13972.1802,-3588.7466"/>
<path content="AP030,1,28,1,0,14,1,8,JPN" xlink:title="AP030" d="M13971.2204,-3588.7867L13971.7407,-3588.7665L13972.1802,-3588.7466"/>
<path content="AP030,1,28,1,0,14,1,8,JPN" xlink:title="AP030" d="M13970.7397,-3588.7333L13970.9503,-3588.7867L13971.2204,-3588.7867"/>
<path content="AP030,1,28,1,0,15,1,8,JPN" xlink:title="AP030" d="M13979.4388,-3588.6894L13980.3223,-3588.7619L13981.8222,-3589.1232L13982.5715,-3588.7547"/>
<path content="AP030,1,28,1,0,15,1,8,JPN" xlink:title="AP030" d="M13979.0482,-3589.8041L13979.4388,-3588.6894"/>
<path content="AP030,1,28,1,0,16,1,8,JPN" xlink:title="AP030" d="M13987.6999,-3592.1734L13987.9501,-3592.0132L13988.0798,-3591.9201L13988.3606,-3591.5932L13988.5193,-3591.3467L13988.7695,-3591.0732L13988.9297,-3590.8733L13989.0198,-3590.6933L13989.0594,-3590.5132L13989.1098,-3590.3332L13989.36,-3589.4531L13989.7903,-3588.6066"/>
<path content="AP030,1,28,1,0,14,1,8,JPN" xlink:title="AP030" d="M13972.2154,-3589.3402L13972.3602,-3589.1266L13972.4304,-3589.0198L13972.5403,-3588.7665L13972.58,-3588.6799L13972.7005,-3588.4998"/>
<path content="AP030,1,28,1,0,14,1,8,JPN" xlink:title="AP030" d="M13972.5693,-3588.4212L13972.7005,-3588.4998"/>
<path content="AP030,1,28,1,0,16,1,8,JPN" xlink:title="AP030" d="M13969.2398,-3593.6131L13969.7006,-3593.1801L13970.0607,-3592.86L13970.2698,-3592.6201L13970.3796,-3592.4267L13970.4498,-3592.1532L13970.4895,-3591.9933L13970.6299,-3591.6531L13970.8603,-3591.1667L13971.1105,-3590.6399L13971.4905,-3590.0467L13971.6293,-3589.8331L13971.9299,-3589.4867L13972.11,-3589.2532L13972.2702,-3588.9668L13972.3099,-3588.8733L13972.4503,-3588.62L13972.4899,-3588.5532L13972.5693,-3588.4212"/>
<path content="AP030,1,28,1,0,14,1,8,JPN" xlink:title="AP030" d="M13972.7005,-3588.4998L13972.7905,-3588.5532L13973.0194,-3588.4399L13973.3597,-3588.3533L13973.4695,-3588.3865L13973.5596,-3588.4068L13974.0204,-3588.4998L13974.3805,-3588.9999L13974.5804,-3589.3066"/>
<path content="AP030,1,28,1,0,14,1,8,JPN" xlink:title="AP030" d="M13972.3999,-3588.3198L13972.5693,-3588.4212"/>
<path content="AP030,1,28,1,0,14,1,8,JPN" xlink:title="AP030" d="M13972.1802,-3588.7466L13972.3099,-3588.48L13972.3999,-3588.3198"/>
<path content="AP030,1,28,1,0,16,1,8,JPN" xlink:title="AP030" d="M13970.0195,-3588.2797L13970.5597,-3588.6398L13970.7397,-3588.7333"/>
<path content="AP030,1,28,1,0,16,1,8,JPN" xlink:title="AP030" d="M13989.7903,-3588.6066L13989.9307,-3588.4399L13990.1306,-3588.3198L13990.2206,-3588.2599L13990.3107,-3588.2465"/>
<path content="AP030,1,28,1,0,14,1,8,JPN" xlink:title="AP030" d="M13971.8094,-3588.1931L13971.9696,-3588.2065L13972.1802,-3588.2065L13972.2702,-3588.2465L13972.3999,-3588.3198"/>
<path content="AP030,1,28,1,0,15,1,8,JPN" xlink:title="AP030" d="M13971.2204,-3588.7867L13971.8094,-3588.1931"/>
<path content="AP030,1,28,1,0,16,1,8,JPN" xlink:title="AP030" d="M13990.6372,-3588.1557L13990.6998,-3588.1931L13990.77,-3588.2267L13991.2704,-3588.6398L13991.4001,-3588.7466L13991.568,-3588.9069L13991.6306,-3588.9668L13991.8106,-3589.1464L13991.8793,-3589.233L13991.9693,-3589.3265L13992.0807,-3589.4333L13992.1875,-3589.5349"/>
<path content="AP030,1,28,1,0,15,1,8,JPN" xlink:title="AP030" d="M13990.4877,-3591.0488L13990.6479,-3589.8457L13990.7364,-3588.6173L13990.6372,-3588.1557"/>
<path content="AP030,1,28,1,0,16,1,8,JPN" xlink:title="AP030" d="M13990.4587,-3588.0493L13990.6372,-3588.1557"/>
<path content="AP030,1,28,1,0,15,1,8,JPN" xlink:title="AP030" d="M13990.3107,-3588.2465L13990.4587,-3588.0493"/>
<path content="AP030,1,28,1,0,15,1,8,JPN" xlink:title="AP030" d="M13966.6962,-3589.5763L13965.7928,-3588.2889L13965.4694,-3587.9345"/>
<path content="AP030,1,28,1,0,15,1,8,JPN" xlink:title="AP030" d="M13963.3301,-3591.1129L13964.2456,-3589.3196L13965.4694,-3587.9345"/>
<path content="AP030,1,28,1,0,15,1,8,JPN" xlink:title="AP030" d="M13990.6372,-3588.1557L13990.5746,-3587.8645"/>
<path content="AP030,1,28,1,0,15,1,8,JPN" xlink:title="AP030" d="M13990.4587,-3588.0493L13990.5396,-3587.9398L13990.5746,-3587.8645"/>
<path content="AP030,1,28,1,0,16,1,8,JPN" xlink:title="AP030" d="M13990.0192,-3587.833L13990.3305,-3587.973L13990.4587,-3588.0493"/>
<path content="AP030,1,28,1,0,16,1,8,JPN" xlink:title="AP030" d="M13989.7903,-3588.6066L13990.0192,-3587.833"/>
<path content="AP030,1,28,1,0,15,1,8,JPN" xlink:title="AP030" d="M13982.3776,-3592.1749L13982.3059,-3591.2857L13983.0307,-3590.7524L13983.754,-3590.5151L13984.0439,-3590.2191L13984.6954,-3589.4485L13984.8358,-3587.5507L13984.8404,-3587.4928"/>
<path content="AP030,1,28,1,0,15,1,8,JPN" xlink:title="AP030" d="M13982.5715,-3588.7547L13982.7042,-3588.6894L13983.9401,-3588.1115L13984.6848,-3587.5992L13984.8404,-3587.4928"/>
<path content="AP030,1,28,1,0,15,1,8,JPN" xlink:title="AP030" d="M13957.0312,-3589.2184L13958.786,-3589.6286L13960.0601,-3589.9399"/>
<path content="AP030,1,28,1,0,16,1,8,JPN" xlink:title="AP030" d="M13988.7695,-3587.1067L13989.27,-3587.4332L13990.0192,-3587.833"/>
<path content="AP030,1,28,1,0,15,1,8,JPN" xlink:title="AP030" d="M13985.1303,-3593.3601L13986.1801,-3592.5701L13986.3632,-3591.7778L13986.6013,-3591.1728L13986.9003,-3590.3347L13986.9659,-3589.7751L13987.7747,-3589.4089L13987.9547,-3588.85L13988.5391,-3588.1084L13988.7695,-3587.1067"/>
<path content="AP030,1,28,1,0,14,1,8,JPN" xlink:title="AP030" d="M13960.8093,-3595.38L13960.9894,-3594.9467L13961.1496,-3594.64L13961.3098,-3594.3333L13961.4502,-3594.12L13961.4502,-3594.0998L13961.5402,-3593.9732L13961.6302,-3593.8133L13961.6806,-3593.7065L13961.6501,-3593.4334L13961.6501,-3593.3067L13961.6119,-3592.9008L13961.5799,-3592.5667L13961.5799,-3592.5133L13961.4899,-3591.8465L13961.4899,-3591.4665L13961.4899,-3591.3998L13961.4899,-3591.18L13961.5204,-3591.053L13961.6806,-3590.7131L13961.8301,-3590.3866L13961.9003,-3590.2466L13961.9293,-3590.2065L13962.0804,-3590.1199L13962.2696,-3590.0131L13962.4496,-3589.8998L13962.5198,-3589.8464L13962.7701,-3589.2532L13962.8159,-3589.1525L13962.9135,-3588.9404L13962.9501,-3588.8599L13963.0798,-3588.5532L13963.15,-3588.4399L13963.3804,-3588.0264L13963.3804,-3588.0131L13963.7695,-3587.4664L13963.8596,-3587.3798L13963.9893,-3587.2868L13964.1098,-3587.22L13964.1495,-3587.1799L13964.3799,-3587.0533"/>
<path content="AP030,1,28,1,0,14,1,8,JPN" xlink:title="AP030" d="M13966.4658,-3586.9396L13966.5604,-3587.0197L13967.2394,-3587.3264L13967.6498,-3587.4001L13967.8604,-3587.4531L13968.0603,-3587.5401L13968.8797,-3587.8998L13969.22,-3587.9932L13969.7906,-3588.1199L13970.0195,-3588.2797"/>
<path content="AP030,1,28,1,0,15,1,8,JPN" xlink:title="AP030" d="M13965.4694,-3587.9345L13965.9668,-3587.5378L13966.4658,-3586.9396"/>
<path content="AP030,1,28,1,0,14,1,8,JPN" xlink:title="AP030" d="M13962.0651,-3586.9125L13962.5595,-3587.0399L13962.5793,-3587.0399L13962.8967,-3587.0216L13962.9303,-3587.0197L13963.0539,-3587.0159L13963.5605,-3586.9999L13963.6795,-3586.9999L13963.9694,-3587.0197L13964.1998,-3587.0399L13964.3799,-3587.0533"/>
<path content="AP030,1,28,1,0,16,1,8,JPN" xlink:title="AP030" d="M13961.1099,-3589.093L13961.2,-3589.1266L13961.3098,-3589.0198L13961.6104,-3588.4598L13961.6806,-3588.2797L13961.9293,-3587.6331L13962.0193,-3587.22L13962.0605,-3586.9465L13962.0651,-3586.9125"/>
<path content="AP030,1,28,1,0,14,1,8,JPN" xlink:title="AP030" d="M13961.9904,-3586.8931L13962.0651,-3586.9125"/>
<path content="AP030,1,28,1,0,14,1,8,JPN" xlink:title="AP030" d="M13961.1099,-3589.093L13961.2396,-3588.9465L13961.3098,-3588.8L13961.5402,-3588.3533L13961.6104,-3588.1733L13961.7004,-3587.9398L13961.8301,-3587.5931L13961.8805,-3587.4531L13961.9003,-3587.36L13961.9705,-3587.1265L13961.9904,-3586.8931"/>
<path content="AP030,1,28,1,0,14,1,8,JPN" xlink:title="AP030" d="M13966.6107,-3586.7664L13966.7007,-3586.8L13967.0593,-3586.9865L13967.3096,-3587.0934L13967.54,-3587.1666L13967.7399,-3587.1998L13967.7902,-3587.1998L13968.0801,-3587.2334L13968.4494,-3587.2334L13969.7693,-3587.1799L13969.8303,-3587.1998L13969.9295,-3587.2532L13970.2194,-3587.4332L13970.7001,-3587.7934L13970.7901,-3587.8468L13971.8094,-3588.1931"/>
<path content="AP030,1,28,1,0,15,1,8,JPN" xlink:title="AP030" d="M13966.4658,-3586.9396L13966.6107,-3586.7664"/>
<path content="AP030,1,28,1,0,14,1,8,JPN" xlink:title="AP030" d="M13966.2704,-3586.7466L13966.6107,-3586.7664"/>
<path content="AP030,1,28,1,0,14,1,8,JPN" xlink:title="AP030" d="M13966.2704,-3586.7466L13966.4505,-3586.9267L13966.4658,-3586.9396"/>
<path content="AP030,1,28,1,0,14,1,8,JPN" xlink:title="AP030" d="M13965.5594,-3586.6932L13965.77,-3586.713L13966.2704,-3586.7466"/>
<path content="AP030,1,28,1,0,14,1,8,JPN" xlink:title="AP030" d="M13964.3799,-3587.0533L13964.5203,-3586.9133L13964.5798,-3586.8L13964.6103,-3586.7466L13964.6103,-3586.6398"/>
<path content="AP030,1,28,1,0,15,1,8,JPN" xlink:title="AP030" d="M13965.4694,-3587.9345L13965.1611,-3587.5942L13965.2206,-3586.6199"/>
<path content="AP030,1,28,1,0,16,1,8,JPN" xlink:title="AP030" d="M13964.6103,-3586.6398L13964.9307,-3586.6199L13965.0406,-3586.6199L13965.2206,-3586.6199"/>
<path content="AP030,1,28,1,0,16,1,8,JPN" xlink:title="AP030" d="M13965.2206,-3586.6199L13965.2405,-3586.6199L13965.4297,-3586.66L13965.5594,-3586.6932"/>
<path content="AP030,1,28,1,0,14,1,8,JPN" xlink:title="AP030" d="M13965.2695,-3586.1L13965.5106,-3586.1713L13965.6296,-3586.2064L13965.8997,-3586.3865L13966.0599,-3586.5131L13966.2704,-3586.7466"/>
<path content="AP030,1,28,1,0,15,1,8,JPN" xlink:title="AP030" d="M13965.2206,-3586.6199L13965.2695,-3586.1"/>
<path content="AP030,1,28,1,0,16,1,8,JPN" xlink:title="AP030" d="M13988.0748,-3585.9375L13988.2202,-3586.2801L13988.4293,-3586.6798L13988.6093,-3586.9267L13988.7695,-3587.1067"/>
<path content="AP030,1,28,1,0,15,1,8,JPN" xlink:title="AP030" d="M13984.8404,-3587.4928L13984.9899,-3587.4504L13985.9711,-3587.1723L13987.294,-3586.4498L13987.9992,-3585.9375"/>
<path content="AP030,1,28,1,0,14,1,8,JPN" xlink:title="AP030" d="M13965.2695,-3586.1L13965.3219,-3585.9375"/>
<path content="AP030,1,28,1,0,15,1,8,JPN" xlink:title="AP030" d="M13965.2695,-3586.1L13965.1756,-3585.9375"/>
<path content="AP030,1,28,1,0,14,1,8,JPN" xlink:title="AP030" d="M13964.6103,-3586.6398L13964.6103,-3586.6066L13964.6301,-3586.3197L13964.65,-3586.1L13964.6698,-3585.9375"/>
<path content="AP030,1,28,1,0,16,1,8,JPN" xlink:title="AP030" d="M13962.0651,-3586.9125L13962.1506,-3586.2999L13962.2597,-3585.9375"/>
<path content="AP030,1,28,1,0,14,1,8,JPN" xlink:title="AP030" d="M13961.9904,-3586.8931L13962.0407,-3586.5532L13962.0605,-3586.2999L13962.1796,-3585.9398L13962.1803,-3585.9375"/>
<path content="AP030,1,28,1,0,15,1,8,JPN" xlink:title="AP030" d="M13966.6107,-3586.7664L13967.2592,-3586.0165L13967.3363,-3585.9375"/>
<path content="AP030,1,28,1,0,14,1,8,JPN" xlink:title="AP030" d="M13972.3999,-3588.3198L13972.4503,-3588.2465L13972.7905,-3587.8998L13973.1995,-3587.4866L13973.2407,-3587.413L13973.2452,-3587.3138L13973.2697,-3586.8732L13973.2407,-3586.1L13973.229,-3585.9375"/>
<path content="AP030,1,28,1,0,16,1,8,JPN" xlink:title="AP030" d="M13972.5693,-3588.4212L13972.6303,-3588.3198L13972.9004,-3588.0264L13973.2895,-3587.6331L13973.3994,-3587.4866L13973.4283,-3587.3516L13973.4497,-3586.6932L13973.4065,-3585.9375"/>
<path content="AP030,1,28,1,0,14,1,8,JPN" xlink:title="AP030" d="M13972.7005,-3588.4998L13973.0392,-3588.1332L13973.5397,-3587.6133L13973.5794,-3587.5401L13973.6298,-3587.4332L13973.6298,-3587.3932L13973.6099,-3586.1L13973.5993,-3585.9375"/>
<path content="AP030,1,28,1,0,15,1,8,JPN" xlink:title="AP030" d="M13984.8404,-3587.4928L13984.8511,-3587.4279L13984.9854,-3586.6035L13985.0176,-3585.9375"/>
<path content="AP030,1,28,1,0,14,1,8,JPN" xlink:title="AP030" d="M13982.5715,-3588.7547L13982.57,-3588.719L13982.7216,-3585.9375"/>
<path content="AP030,1,28,1,0,15,1,8,JPN" xlink:title="AP030" d="M13979.4388,-3588.6894L13979.425,-3587.9101L13979.4708,-3587.6171L13979.6234,-3586.6253L13979.6793,-3585.9375"/>
<path content="AP030,1,28,1,0,14,1,8,JPN" xlink:title="AP030" d="M13977.1103,-3589.04L13977.2202,-3588.7867L13977.5803,-3588.0264L13977.7206,-3587.7197L13977.7435,-3587.6133L13977.8305,-3587.22L13977.9495,-3586.713L13977.9694,-3586.6398L13978.0396,-3586.3533L13978.1494,-3585.9734L13978.1623,-3585.9375"/>
<path content="AP030,1,28,1,0,14,1,8,JPN" xlink:title="AP030" d="M13959.6232,-3585.9375L13959.6802,-3585.9734L13960.0403,-3586.1732L13960.5804,-3586.4799L13960.6995,-3586.5334L13961.3602,-3586.713L13961.9904,-3586.8931"/>
<path content="AP030,1,28,1,0,15,1,8,JPN" xlink:title="AP030" d="M13990.5746,-3587.8645L13990.4724,-3587.3894L13990.2954,-3586.4498L13990.2383,-3585.9375"/>
<path content="AP030,1,28,1,1,16,1,8,JPN" xlink:title="AP030" d="M13957.0312,-3602.3272L13957.8284,-3602.8286L13958.8197,-3603.947L13960.3701,-3604.4045L13962.2509,-3604.6586L13963.7251,-3605.1924L13965.8096,-3604.9465"/>
<path content="AP030,1,28,1,1,16,1,8,JPN" xlink:title="AP030" d="M13965.8096,-3604.9465L13966.3275,-3604.8828L13967.1821,-3604.4257L13968.0963,-3604.5052L13970.0439,-3606.2143L13970.819,-3606.4727L13972.548,-3606.1746L13973.8596,-3606.4131L13975.1117,-3607.208L13975.7874,-3608.4203L13976.2246,-3609.1755L13976.0457,-3609.891L13975.7079,-3610.4275L13975.9066,-3611.2225L13977.1388,-3611.8982L13978.6889,-3612.6534L13979.464,-3612.872L13980.8154,-3612.4944L13981.0142,-3612.8323"/>
</g>
</svg>
