<?xml version="1.0" encoding="UTF-8"?>
<svg  xmlns="http://www.w3.org/2000/svg" xmlns:xlink="http://www.w3.org/1999/xlink" xmlns:go="http://purl.org/svgmap/profile" property="f_code,acc,exs,rst,med,rtt,RSU,loc,soc" viewBox="13640.625 -3445.3125 70.3125 70.3125" go:dataArea="13640.625 -3445.3125 70.3125 70.3125" >
<metadata>
 <rdf:RDF xmlns:rdf="http://www.w3.org/1999/02/22-rdf-syntax-ns#" xmlns:crs="http://opengis.org/xmldtds/transformations.dtd" xmlns:svg="http://www.w3.org/svg" >
  <rdf:Description>
   <crs:CoordinateReferenceSystem rdf:resource="http://purl.org/crs/84" svg:transform="matrix(100.0,0.0,0.0,-100.0,0.0,0.0)" />
  </rdf:Description>
 </rdf:RDF>
</metadata>
<globalCoordinateSystem srsName="http://purl.org/crs/84" transform="matrix(100.0,0.0,0.0,-100.0,0.0,0.0)" />
<defs>
 <g id="p0" >
  <circle cx="0.0" cy="0.0" r="3" stroke="green" stroke-width="2.0" vector-effect="non-scaling-stroke" />
 </g>
</defs>
<g fill="none" fill-rule="evenodd" stroke="#00ff00" stroke-width="2" opacity="0.5" vector-effect="non-scaling-stroke" stroke-linejoin="bevel" >
<path content="AP030,1,28,1,0,14,1,8,JPN" xlink:title="AP030" d="M13640.625,-3444.9053L13640.8798,-3444.8933L13640.9897,-3444.8933L13641.2903,-3444.8601L13641.4505,-3444.8933L13641.6794,-3444.8933L13642.0197,-3444.8399L13642.1295,-3444.8601L13642.2699,-3445.0733L13642.3599,-3445.1668L13642.4301,-3445.2202L13642.5201,-3445.2L13642.63,-3445.1668L13642.7902,-3445.1267L13643.1793,-3445.1668L13643.3105,-3445.2L13643.5196,-3445.1466L13643.6493,-3445.1668L13644.0054,-3445.3125"/>
<path content="AP030,1,28,1,0,15,1,8,JPN" xlink:title="AP030" d="M13686.5786,-3445.3125L13686.7294,-3445.2671L13686.8351,-3445.3125M13687.31,-3445.3125L13687.3383,-3445.3003L13687.4084,-3445.1805L13687.4283,-3445.1069L13687.4084,-3444.9802L13687.6083,-3444.8738L13687.8189,-3444.9802L13687.8891,-3444.9402L13687.9791,-3444.7605L13688.179,-3444.8338L13688.1989,-3444.8002L13688.089,-3444.6938L13688.1592,-3444.6339L13688.2889,-3444.6339L13688.2614,-3444.5808"/>
<path content="AP030,1,28,1,0,14,1,8,JPN" xlink:title="AP030" d="M13683.8778,-3445.3125L13683.8593,-3445.2202L13683.8303,-3445.1065L13683.8806,-3444.9867L13683.9706,-3444.8933L13684.0393,-3444.8601L13684.2407,-3444.7666L13684.2697,-3444.7334L13684.3307,-3444.68L13684.3597,-3444.3733L13684.3094,-3444.2799L13684.1995,-3444.1532L13684.1095,-3443.9732L13684.0805,-3443.8133L13684.0805,-3443.6535L13684.0714,-3443.618"/>
<path content="AP030,1,28,1,0,14,1,8,JPN" xlink:title="AP030" d="M13648.5199,-3442.0666L13648.7396,-3442.1932L13648.97,-3442.1932L13649.2203,-3442.1932L13649.2905,-3442.3L13649.3103,-3442.4267L13649.3103,-3442.5865L13649.2706,-3442.7334L13649.3301,-3442.9867L13649.4293,-3443.2533L13649.5193,-3443.3998L13649.6506,-3443.5066L13649.9298,-3443.6535L13650.1297,-3443.7065L13650.2899,-3443.7401L13650.5203,-3443.6535L13650.8301,-3443.6535L13651.0803,-3443.7065L13651.1505,-3443.7599L13651.2207,-3443.8332L13651.2894,-3444.1532L13651.2695,-3444.3001L13651.2405,-3444.3733L13651.1505,-3444.5534L13651.0803,-3444.68L13651.0605,-3444.8933L13650.9293,-3445.0932L13650.7802,-3445.3125"/>
<path content="AP030,1,28,1,0,15,1,8,JPN" xlink:title="AP030" d="M13648.085,-3441.3784L13649.5483,-3441.6943L13649.8428,-3441.9876L13649.8032,-3442.7052L13650.0687,-3442.9718L13651.0483,-3442.6228L13651.8158,-3442.7536L13652.4796,-3443.0859L13654.5334,-3443.5207L13656.0959,-3443.8602L13656.5445,-3443.5684L13657.1976,-3442.9501L13657.9147,-3442.8734L13658.606,-3443.2835L13659.6481,-3444.0914L13660.6354,-3444.1784L13661.2427,-3443.8408L13661.5707,-3443.4929L13662.3428,-3443.5207L13663.3423,-3443.9674L13664.1098,-3444.714L13664.7949,-3445.2518L13664.7918,-3445.3125"/>
<path content="AP030,1,28,1,0,15,1,8,JPN" xlink:title="AP030" d="M13648.5199,-3442.0666L13648.085,-3441.3784"/>
<path content="AP030,1,28,1,0,16,1,8,JPN" xlink:title="AP030" d="M13649.1284,-3445.3125L13649.12,-3445.303L13648.43,-3444.507L13647.76,-3443.779L13647.01,-3443.045L13646.27,-3442.439L13645.88,-3442.093L13645.4,-3441.569L13644.98,-3440.889L13644.9294,-3440.7867"/>
<path content="AP030,1,28,1,0,14,1,8,JPN" xlink:title="AP030" d="M13648.5199,-3442.0666L13648.2407,-3442.0132L13648.0606,-3442.0132L13647.8302,-3442.0467L13647.4503,-3441.8865L13647.02,-3441.6866L13646.8597,-3441.56L13646.5805,-3441.4001L13646.4005,-3441.1667L13646.3303,-3441.04L13646.1304,-3440.8932L13645.5399,-3440.8733L13645.3598,-3440.8932L13645.1996,-3440.86L13644.9493,-3440.7867L13644.9294,-3440.7867"/>
<path content="AP030,1,28,1,0,15,1,8,JPN" xlink:title="AP030" d="M13665.9629,-3445.3125L13666.124,-3444.2608L13666.0812,-3443.0752L13666.2323,-3442.1562L13666.5054,-3441.5882L13666.275,-3440.6559"/>
<path content="AP030,1,28,1,0,15,1,8,JPN" xlink:title="AP030" d="M13666.275,-3440.6559L13667.0074,-3440.6528"/>
<path content="AP030,1,28,1,0,16,1,8,JPN" xlink:title="AP030" d="M13688.6307,-3440.4247L13688.6505,-3440.4266L13688.9297,-3440.5334L13689.1296,-3440.8199L13689.2899,-3440.8199L13689.5599,-3440.7333L13689.6805,-3440.8401L13689.8605,-3440.8932L13690.1794,-3440.9664L13690.3595,-3441.1667L13690.5197,-3441.2533L13690.86,-3441.4001L13690.95,-3441.5264L13691.1804,-3441.5798L13691.33,-3441.7065L13691.4001,-3441.8331L13691.3605,-3442.1001L13691.4307,-3442.3L13691.4001,-3442.4999L13691.4703,-3442.6601L13691.4703,-3442.7868L13691.3101,-3442.8001L13691.2903,-3442.9665L13691.4001,-3443.0401L13691.3101,-3443.0931L13691.2201,-3443.2201L13691.2003,-3443.5265L13691.1499,-3443.6535L13691.04,-3443.8667L13691.0202,-3444.1334L13691.0599,-3444.1933L13691.4001,-3444.3733L13691.4505,-3444.4401L13691.4505,-3444.4801L13691.4307,-3444.5L13691.4001,-3444.5667L13691.1499,-3444.5667L13691.04,-3444.6602L13691.04,-3444.8933L13691.0202,-3444.9135L13690.8295,-3444.9467L13690.5807,-3444.9867L13690.4694,-3444.9467L13690.4694,-3444.8601L13690.5197,-3444.6602L13690.4907,-3444.5332L13690.3107,-3444.3733L13689.9704,-3444.1734L13689.8804,-3444.1334L13689.7003,-3444.1933L13689.65,-3444.1933L13689.5599,-3444.1734L13689.3799,-3443.9934L13689.3097,-3443.9732L13689.2197,-3444.0132L13689.0396,-3443.94L13688.9496,-3443.94L13688.8107,-3444.0132L13688.5193,-3443.94L13688.4003,-3443.9533L13688.0203,-3444.0468L13688.0203,-3444.12L13688.0203,-3444.2799L13688.0798,-3444.4401L13688.2614,-3444.5808"/>
<path content="AP030,1,28,1,0,16,1,8,JPN" xlink:title="AP030" d="M13688.6307,-3440.4247L13688.4293,-3440.4064L13688.2904,-3440.3732L13688.2004,-3440.3534"/>
<path content="AP030,1,28,1,0,15,1,8,JPN" xlink:title="AP030" d="M13684.0714,-3443.618L13684.2133,-3443.2819L13684.2239,-3443.256L13684.227,-3443.2468L13684.3216,-3442.6098L13685.2646,-3441.6431L13685.8215,-3441.6363L13687.1826,-3441.6058L13687.9288,-3440.8882L13688.2004,-3440.3534"/>
<path content="AP030,1,28,1,0,15,1,8,JPN" xlink:title="AP030" d="M13648.085,-3441.3784L13648.4543,-3440.7722L13648.436,-3440.4305L13647.8149,-3440.1596L13647.5067,-3439.6214L13646.9467,-3438.9191"/>
<path content="AP030,1,28,1,0,14,1,8,JPN" xlink:title="AP030" d="M13644.9294,-3440.7867L13644.7403,-3440.7867L13644.5602,-3440.7867L13644.4,-3440.6601L13644.2703,-3440.5533L13644.1101,-3440.4266L13643.9499,-3440.2802L13643.7698,-3440.1733L13643.5806,-3440.1199L13643.4296,-3440.0467L13643.3105,-3440.1001L13642.8101,-3440.2267L13642.3096,-3440.2466L13642.1097,-3440.1733L13641.9495,-3440.1001L13641.7892,-3439.9933L13641.7007,-3439.8865L13641.6306,-3439.74L13641.6107,-3439.6332L13641.5604,-3439.5802L13641.2201,-3439.4531L13640.9698,-3439.3265L13640.6998,-3439.1998L13640.6799,-3438.9465L13640.7394,-3438.8599L13640.7898,-3438.8401"/>
<path content="AP030,1,28,1,0,16,1,8,JPN" xlink:title="AP030" d="M13644.9294,-3440.7867L13644.62,-3440.161L13644.34,-3439.74L13643.94,-3439.454L13643.38,-3439.25L13642.75,-3439.053L13641.5872,-3438.6105"/>
<path content="AP030,1,28,1,0,14,1,8,JPN" xlink:title="AP030" d="M13640.7898,-3438.8401L13641.2704,-3438.7867L13641.5872,-3438.6105"/>
<path content="AP030,1,28,1,0,15,1,8,JPN" xlink:title="AP030" d="M13672.6704,-3445.3125L13672.673,-3445.3091L13673.0118,-3445.0317L13673.8937,-3444.5881L13674.5712,-3444.2554L13675.1129,-3443.7565L13675.3159,-3443.3128L13675.5859,-3443.1465L13676.1963,-3442.6472L13676.3321,-3442.2592L13676.0605,-3441.8709L13676.0605,-3441.5382L13676.2634,-3441.2609L13676.738,-3440.873L13676.8738,-3440.7063L13677.8229,-3440.152L13678.2288,-3439.6526L13678.5675,-3439.2094L13678.9749,-3438.7657L13679.5807,-3438.6066"/>
<path content="AP030,1,28,1,0,14,1,8,JPN" xlink:title="AP030" d="M13684.0714,-3443.618L13684.0393,-3443.4868L13683.9706,-3443.38L13683.6502,-3443.0931L13683.4702,-3443.0733L13683.1802,-3443.0401L13683.0795,-3442.9867L13682.93,-3442.86L13682.6492,-3442.82L13682.5195,-3442.7334L13682.2403,-3442.5865L13681.9305,-3442.2798L13681.5796,-3441.8331L13681.5399,-3441.7065L13681.5399,-3441.4532L13681.5201,-3441.3467L13681.4301,-3441.2201L13681.3095,-3441.1667L13681.1096,-3441.0934L13681.0806,-3441.04L13681.0196,-3440.8932L13680.9296,-3440.7333L13680.7907,-3440.5533L13680.7693,-3440.3732L13680.8105,-3440.1733L13680.8807,-3440.0467L13680.9906,-3439.92L13681.2897,-3439.7934L13681.3293,-3439.6332L13681.3293,-3439.5599L13681.3095,-3439.5065L13681.2897,-3439.4333L13681.2698,-3439.3265L13681.1798,-3439.1998L13681.1096,-3439.0732L13681.0394,-3438.9668L13680.8807,-3438.8401L13680.8304,-3438.7333L13680.8105,-3438.5864L13680.8105,-3438.3533L13680.8304,-3438.2999L13680.9692,-3438.1931L13680.9692,-3438.1001L13680.9692,-3438.0695"/>
<path content="AP030,1,28,1,0,16,1,8,JPN" xlink:title="AP030" d="M13641.5872,-3438.6105L13641.57,-3438.604L13640.98,-3438.223L13640.68,-3437.828L13640.625,-3437.7533"/>
<path content="AP030,1,28,1,0,14,1,8,JPN" xlink:title="AP030" d="M13680.4901,-3437.6534L13680.6305,-3437.7068L13680.7693,-3437.7602L13680.8594,-3437.8132L13680.9006,-3437.8666L13680.9692,-3437.9734L13680.9692,-3438.0466L13680.9692,-3438.0695"/>
<path content="AP030,1,28,1,0,15,1,8,JPN" xlink:title="AP030" d="M13679.5807,-3438.6066L13680.0583,-3438.2664L13680.4901,-3437.6534"/>
<path content="AP030,1,28,1,0,16,1,8,JPN" xlink:title="AP030" d="M13688.2004,-3440.3534L13688.1302,-3440.3L13688.06,-3440.1531L13687.9303,-3440.1199L13687.7701,-3440.1531L13687.6099,-3440.1531L13687.4496,-3440.0467L13687.3306,-3439.9933L13687.1796,-3439.9933L13686.9904,-3439.8666L13686.8805,-3439.8666L13686.7203,-3439.8666L13686.5601,-3439.8132L13686.4304,-3439.8666L13686.3602,-3439.8132L13686.1801,-3439.6866L13686.1496,-3439.6332L13686.1298,-3439.4531L13686.0794,-3439.2532L13686.1496,-3439.1464L13686.2198,-3439.0934L13686.1801,-3438.9668L13686.2198,-3438.8199L13686.2198,-3438.7135L13686.2198,-3438.6066L13686.1801,-3438.5532L13686.1298,-3438.48L13686.0794,-3438.4602L13686.0596,-3438.4068L13686.1099,-3438.3732L13686.0794,-3438.2465L13685.9299,-3438.1733L13685.7697,-3437.9932L13685.5606,-3437.7934L13685.3302,-3437.5267L13685.3104,-3437.5065L13685.1303,-3437.3066L13685.1288,-3437.3039"/>
<path content="AP030,1,28,1,0,15,1,8,JPN" xlink:title="AP030" d="M13685.1288,-3437.3039L13685.1013,-3437.318L13685.054,-3437.7949L13684.4101,-3438.9252L13683.3649,-3439.4531L13682.6981,-3439.1998L13681.6681,-3438.8062L13681.4484,-3438.2607L13681.1798,-3438.1535L13681.1508,-3438.142L13680.9692,-3438.0695"/>
<path content="AP030,1,28,1,0,15,1,8,JPN" xlink:title="AP030" d="M13688.6307,-3440.4247L13688.8626,-3440.1001L13689.7415,-3439.2078L13689.6591,-3439.0003L13689.0274,-3439.2609L13688.3987,-3439.1621L13687.645,-3438.6997L13686.8484,-3438.8943L13687.0071,-3438.2706L13686.8149,-3437.7777L13686.3876,-3437.0461L13685.8383,-3436.9251L13685.1288,-3437.3039"/>
<path content="AP030,1,28,1,0,14,1,8,JPN" xlink:title="AP030" d="M13641.5872,-3438.6105L13641.6306,-3438.5864L13642.0197,-3438.3202L13642.1097,-3438.1535L13642.1097,-3437.8864L13642.0197,-3437.5801L13642.0197,-3437.4332L13641.9693,-3437.1666L13641.9495,-3437.0731L13641.9495,-3436.7867"/>
<path content="AP030,1,28,1,0,14,1,8,JPN" xlink:title="AP030" d="M13680.4901,-3437.6534L13680.3802,-3437.5801L13680.2704,-3437.4535L13680.2399,-3437.3466L13680.2399,-3437.1265L13680.2399,-3436.9865L13680.2902,-3436.8401L13680.3604,-3436.7332"/>
<path content="AP030,1,28,1,0,15,1,8,JPN" xlink:title="AP030" d="M13641.9495,-3436.7867L13643.6676,-3436.6585L13644.8105,-3436.9492L13645.7047,-3437.6953L13646.4005,-3437.9688L13646.9467,-3438.9191"/>
<path content="AP030,1,28,1,0,15,1,8,JPN" xlink:title="AP030" d="M13679.4693,-3436.2598L13679.9911,-3436.6585L13680.3604,-3436.7332"/>
<path content="AP030,1,28,1,0,14,1,8,JPN" xlink:title="AP030" d="M13679.5807,-3438.6066L13679.4907,-3438.4266L13679.4006,-3438.1733L13679.3304,-3437.92L13679.2694,-3437.6865L13679.2007,-3437.3798L13679.1794,-3437.3066L13679.1794,-3437.1468L13679.2404,-3436.9667L13679.2694,-3436.8198L13679.4296,-3436.3731L13679.4693,-3436.2598"/>
<path content="AP030,1,28,1,0,14,1,8,JPN" xlink:title="AP030" d="M13680.3604,-3436.7332L13680.5405,-3436.6066L13680.6305,-3436.5002L13680.7907,-3436.4265L13680.9494,-3436.4067L13680.9906,-3436.3201L13681.0806,-3436.1198L13681.1295,-3436.1L13681.2698,-3435.9734L13681.2698,-3435.8665"/>
<path content="AP030,1,28,1,0,15,1,8,JPN" xlink:title="AP030" d="M13640.625,-3438.7344L13640.7898,-3438.8401"/>
<path content="AP030,1,28,1,0,16,1,8,JPN" xlink:title="AP030" d="M13685.1288,-3437.3039L13684.8999,-3436.9465L13684.8297,-3436.8198L13684.8801,-3436.6798L13684.9304,-3436.6402L13684.9304,-3436.5868L13684.8999,-3436.3533L13684.8602,-3436.1534L13684.7397,-3435.8467L13684.61,-3435.7067L13684.5398,-3435.6133L13684.52,-3435.5267L13684.4894,-3435.3466L13684.4894,-3435.2531L13684.4696,-3435.0933"/>
<path content="AP030,1,28,1,0,15,1,8,JPN" xlink:title="AP030" d="M13681.2698,-3435.8665L13681.6422,-3435.6758L13681.8893,-3435.5492L13682.6523,-3435.0887L13683.4213,-3435.1662L13684.4696,-3435.0933"/>
<path content="AP030,1,28,1,0,15,1,8,JPN" xlink:title="AP030" d="M13671.9063,-3445.3125L13671.8063,-3444.9524L13671.3562,-3444.1856L13671.6339,-3443.531L13672.4609,-3443.0405L13672.9965,-3442.1059L13673.5397,-3441.7206L13674.1745,-3441.5695L13673.9471,-3441.2437L13673.97,-3440.089L13673.7534,-3439.5618L13672.9462,-3438.9847L13672.2015,-3437.8899L13672.2351,-3437.2269L13671.5958,-3436.771L13670.0394,-3434.9865"/>
<path content="AP030,1,28,1,0,15,1,8,JPN" xlink:title="AP030" d="M13666.275,-3440.6559L13665.8005,-3439.7438L13665.7623,-3439.1357L13666.42,-3438.5239L13666.3696,-3438.1466L13665.8936,-3437.9272L13665.8859,-3437.4073L13665.2756,-3436.4037L13664.2502,-3435.3561L13664.4302,-3434.5867"/>
<path content="AP030,1,28,1,0,14,1,8,JPN" xlink:title="AP030" d="M13681.2698,-3435.8665L13681.2195,-3435.7399L13681.2393,-3435.6533L13681.3095,-3435.4866L13681.2897,-3435.3802L13681.1996,-3435.22L13681.1798,-3435.0735L13681.2195,-3434.8598L13681.2195,-3434.5531"/>
<path content="AP030,1,28,1,0,14,1,8,JPN" xlink:title="AP030" d="M13679.4693,-3436.2598L13679.5395,-3436.1534L13679.5593,-3436.1L13679.7897,-3435.9531L13680.1498,-3435.7933L13680.2399,-3435.6865L13680.7907,-3434.7866L13680.8807,-3434.6931L13681.2195,-3434.5531"/>
<path content="AP030,1,28,1,0,14,1,8,JPN" xlink:title="AP030" d="M13664.4302,-3434.5867L13664.5599,-3434.5665L13664.7003,-3434.5531L13664.9704,-3434.5665L13665.1794,-3434.6401L13665.4495,-3434.5001L13665.5594,-3434.4067L13665.6494,-3434.2999L13665.7196,-3434.2602L13665.8096,-3434.2464L13665.9454,-3434.5455L13666.0599,-3434.5531L13666.1499,-3434.5867L13666.5207,-3434.6066L13666.6306,-3434.5867L13666.9006,-3434.4601L13667.3798,-3434.4265L13667.4698,-3434.4067L13667.8299,-3434.3201L13667.9001,-3434.2999L13667.9504,-3434.2999L13667.9703,-3434.3334L13668.0206,-3434.3735L13668.0603,-3434.4265L13668.1107,-3434.4601L13668.2205,-3434.5135L13668.2907,-3434.5867L13668.4006,-3434.6401L13668.5394,-3434.66L13668.6996,-3434.6401L13668.9301,-3434.7134L13668.9896,-3434.7466L13669.1299,-3434.7866L13669.4901,-3434.9133L13669.8593,-3434.9865L13670.0394,-3434.9865"/>
<path content="AP030,1,28,1,0,15,1,8,JPN" xlink:title="AP030" d="M13672.7203,-3434.1534L13674.028,-3434.7729L13674.8413,-3434.9392L13675.1801,-3434.6619L13675.7217,-3434.8286L13676.3992,-3434.9392L13677.0767,-3435.1055L13677.8229,-3435.6602L13678.6362,-3435.9375L13679.1092,-3436.0481L13679.4693,-3436.2598"/>
<path content="AP030,1,28,1,0,14,1,8,JPN" xlink:title="AP030" d="M13670.0394,-3434.9865L13670.6299,-3434.9998L13670.7703,-3434.9667L13670.8801,-3434.9133L13670.9503,-3434.9133L13671.0602,-3434.8732L13671.2204,-3434.7668L13671.4005,-3434.7332L13671.5195,-3434.66L13671.5607,-3434.5665L13671.6293,-3434.5001L13672.11,-3434.4799L13672.2198,-3434.4265L13672.4701,-3434.4398L13672.6303,-3434.4265L13672.7707,-3434.3533L13672.7203,-3434.1534"/>
<path content="AP030,1,28,1,0,15,1,8,JPN" xlink:title="AP030" d="M13687.2284,-3433.7074L13687.8464,-3434.343L13688.1271,-3434.9159L13689.8087,-3435.8688"/>
<path content="AP030,1,28,1,0,15,1,8,JPN" xlink:title="AP030" d="M13684.4696,-3435.0933L13685.2036,-3434.0744L13685.7132,-3433.7589L13686.5723,-3433.8646L13687.2284,-3433.7074"/>
<path content="AP030,1,28,1,0,16,1,8,JPN" xlink:title="AP030" d="M13684.4696,-3435.0933L13684.3994,-3434.9266L13684.1095,-3434.6931L13683.9493,-3434.5135L13683.9493,-3434.4601L13683.9493,-3433.9733L13683.9294,-3433.8135L13683.9493,-3433.7067L13684.0195,-3433.54L13684.0393,-3433.4534L13684.0393,-3433.2867"/>
<path content="AP030,1,28,1,0,15,1,8,JPN" xlink:title="AP030" d="M13684.0393,-3433.2867L13685.0616,-3433.1989L13686.0779,-3433.2588L13687.2284,-3433.7074"/>
<path content="AP030,1,28,1,0,14,1,8,JPN" xlink:title="AP030" d="M13681.2195,-3434.5531L13681.4896,-3434.3201L13681.5399,-3434.0267L13681.6101,-3433.6132L13681.6299,-3433.4332L13681.7703,-3433.2199L13681.9,-3433.0734"/>
<path content="AP030,1,28,1,0,16,1,8,JPN" xlink:title="AP030" d="M13683.9905,-3432.8934L13684.0393,-3433.2867"/>
<path content="AP030,1,28,1,0,15,1,8,JPN" xlink:title="AP030" d="M13683.58,-3433.0734L13683.9905,-3432.8934"/>
<path content="AP030,1,28,1,0,16,1,8,JPN" xlink:title="AP030" d="M13683.9905,-3432.8934L13683.9706,-3432.7667"/>
<path content="AP030,1,28,1,0,14,1,8,JPN" xlink:title="AP030" d="M13683.58,-3433.0734L13683.9706,-3432.7667"/>
<path content="AP030,1,28,1,0,14,1,8,JPN" xlink:title="AP030" d="M13682.3105,-3432.7465L13682.6797,-3432.7667L13682.9193,-3432.79L13683.02,-3432.7999L13683.1802,-3432.8732L13683.58,-3433.0734"/>
<path content="AP030,1,28,1,0,14,1,8,JPN" xlink:title="AP030" d="M13681.9,-3433.0734L13682.0206,-3433.0002L13682.3105,-3432.7465"/>
<path content="AP030,1,28,1,0,14,1,8,JPN" xlink:title="AP030" d="M13681.9901,-3430.6801L13682.1503,-3430.7465L13682.2006,-3430.7865L13682.2006,-3430.8495L13682.2006,-3430.9868L13682.4905,-3431.0001L13682.4905,-3431.0532L13682.5394,-3431.2332L13682.6096,-3431.3465L13682.6996,-3431.4133L13682.7194,-3431.5266L13682.7698,-3431.6334L13682.8598,-3431.7734L13682.8598,-3431.8466L13682.8796,-3432.1335L13682.7698,-3432.4066L13682.3105,-3432.7465"/>
<path content="AP030,1,28,1,0,14,1,8,JPN" xlink:title="AP030" d="M13641.9495,-3436.7867L13641.9907,-3436.6402L13642.0197,-3436.2267L13641.9006,-3436.1L13641.7892,-3435.9402L13641.6794,-3435.7933L13641.6306,-3435.7601L13641.5207,-3435.6133L13641.4505,-3435.5267L13641.3803,-3435.4332L13641.33,-3435.2531L13641.33,-3434.9133L13641.2704,-3434.84L13641.1102,-3434.7466L13640.8798,-3434.6401L13640.77,-3434.5531L13640.7196,-3434.4799L13640.6494,-3434.3334L13640.7196,-3434.28L13640.8997,-3434.2068L13640.8798,-3434.0801L13640.8752,-3434.0664L13640.8096,-3433.9001L13640.7898,-3433.8135L13640.7898,-3433.72L13640.7898,-3433.4667L13640.8096,-3433.4332L13640.86,-3432.84L13640.7898,-3432.7866L13640.625,-3432.6523M13640.625,-3432.2212L13640.6494,-3432.2067L13640.86,-3432.2266L13641.04,-3432.2266L13641.0797,-3432.1934L13641.1499,-3432.0267L13641.2003,-3431.8134L13641.2048,-3431.76L13641.2201,-3431.5601L13641.1804,-3431.5067L13640.8096,-3431.2866L13640.6296,-3431.1665L13640.625,-3431.1626M13640.625,-3430.9359L13640.6799,-3430.8933L13640.77,-3430.8201L13640.86,-3430.7667L13640.95,-3430.6599L13640.9698,-3430.5332L13640.9698,-3430.5"/>
<path content="AP030,1,28,1,0,14,1,8,JPN" xlink:title="AP030" d="M13640.9225,-3430.2666L13640.9698,-3430.3333L13640.9698,-3430.5"/>
<path content="AP030,1,28,1,0,15,1,8,JPN" xlink:title="AP030" d="M13674.6307,-3429.7733L13675.4517,-3430.3368L13675.1358,-3431.4907L13675.4745,-3431.9344L13676.0178,-3431.7123L13677.1683,-3431.6017L13677.4246,-3431.6593L13678.1021,-3431.6593L13678.508,-3431.6593L13678.7796,-3431.8813L13679.0497,-3432.214L13679.3213,-3432.4356L13679.6082,-3432.7663L13680.014,-3432.988L13680.4886,-3432.988L13681.9,-3433.0734"/>
<path content="AP030,1,28,1,0,15,1,8,JPN" xlink:title="AP030" d="M13665.382,-3445.3125L13665.1535,-3444.4218L13665.0177,-3443.6455L13664.1373,-3442.8692L13662.3749,-3441.5382L13661.4273,-3440.9283L13660.8856,-3440.4293L13660.1395,-3439.542L13659.8007,-3438.821L13659.3948,-3438.4884L13659.3262,-3438.1557L13659.259,-3437.6011L13658.7173,-3437.3238L13658.3099,-3436.9354L13658.4457,-3436.1591L13658.4457,-3435.4385L13658.7173,-3434.4402L13659.0561,-3434.1076L13659.1904,-3433.8303L13659.1904,-3433.4419L13658.7845,-3433.3866L13658.2428,-3433.2203L13658.3786,-3432.7766L13658.5129,-3432.333L13658.5129,-3432.0004L13658.107,-3431.5567L13657.9712,-3431.2241L13657.9712,-3430.8357L13657.7011,-3430.4474L13657.7011,-3430.1147L13657.9712,-3429.9484L13658.5129,-3429.9484L13658.4702,-3429.4865"/>
<path content="AP030,1,28,1,0,14,1,8,JPN" xlink:title="AP030" d="M13674.6307,-3429.7733L13674.7696,-3429.6867L13674.9893,-3429.5933L13675.2197,-3429.5265L13675.3601,-3429.5601L13675.6104,-3429.5799L13675.7904,-3429.5265L13676.0605,-3429.4865L13676.1505,-3429.5399"/>
<path content="AP030,1,28,1,0,14,1,8,JPN" xlink:title="AP030" d="M13640.625,-3430.0256L13640.6998,-3430.08L13640.8798,-3430.2067L13640.9225,-3430.2666"/>
<path content="AP030,1,28,1,0,14,1,8,JPN" xlink:title="AP030" d="M13658.4702,-3429.4865L13658.6807,-3429.5399L13658.7692,-3429.5601L13658.9493,-3429.6333L13659.1797,-3429.7066L13659.2697,-3429.7066L13659.61,-3429.5399L13659.8297,-3429.5265L13660.08,-3429.5399L13660.2005,-3429.5265L13660.2905,-3429.5265L13660.4294,-3429.6665L13660.6094,-3429.8664L13660.7193,-3429.9L13660.8994,-3429.8866L13661.4304,-3429.6131L13661.7203,-3429.4533L13661.7706,-3429.4334L13662.1307,-3429.3999L13662.2894,-3429.38L13662.6297,-3429.3999L13663.15,-3429.5067L13663.4293,-3429.5601L13663.6795,-3429.6532L13663.8306,-3429.76L13663.9297,-3429.8466L13663.8306,-3430.0133L13663.6993,-3430.2067L13663.6795,-3430.3333L13663.5406,-3430.5332L13663.5605,-3430.7865L13663.6093,-3430.9467L13663.6093,-3431.1066L13663.6093,-3431.1798L13663.7207,-3431.2733L13663.8306,-3431.2866L13664.0594,-3431.2866L13664.1296,-3431.2866L13664.1998,-3431.3267L13664.2197,-3431.4133L13664.4302,-3431.5933L13664.5798,-3431.72L13664.83,-3431.7402L13664.9002,-3431.7734L13664.9002,-3431.8867L13664.9506,-3431.9935L13665.0192,-3432.0667L13664.9704,-3432.1732L13664.7705,-3432.1533L13664.6805,-3432.1732L13664.6103,-3432.2601L13664.4897,-3432.4402L13664.27,-3432.5535L13664.0793,-3432.6065L13663.8992,-3432.6199L13663.6307,-3432.6599L13663.5605,-3432.7332L13663.3804,-3432.7999L13663.1104,-3432.84L13663.1104,-3432.8602L13662.8601,-3433.0532L13662.8601,-3433.0734L13662.8601,-3433.3599L13662.9303,-3433.4667L13663.2401,-3433.7067L13663.4293,-3433.7933L13663.6307,-3433.8665L13663.8306,-3433.9401L13664.0198,-3434.0801L13664.0793,-3434.1732L13664.0793,-3434.3334L13664.1495,-3434.4601L13664.2197,-3434.5531L13664.2395,-3434.5665L13664.4302,-3434.5867"/>
<path content="AP030,1,28,1,0,14,1,8,JPN" xlink:title="AP030" d="M13672.7203,-3434.1534L13672.6807,-3434.1L13672.6105,-3434.0801L13672.5204,-3434.0466L13672.6105,-3434.0134L13672.7707,-3433.5068L13672.9294,-3433.54L13673.0194,-3433.4667L13673.0606,-3433.4L13673.0804,-3433.3065L13673.0194,-3433.2333L13672.9294,-3433.1665L13672.8104,-3433.2199L13672.6501,-3433.2199L13672.58,-3433.1066L13672.4503,-3433.1066L13672.3099,-3433.0532L13672.1802,-3433.0734L13672.0596,-3432.9666L13671.9498,-3432.9266L13672.02,-3432.8602L13672.02,-3432.7866L13671.9498,-3432.7332L13671.9299,-3432.6401L13671.8597,-3432.6401L13671.7896,-3432.6065L13671.7896,-3432.5665L13671.8597,-3432.4799L13671.8307,-3432.4265L13671.7697,-3432.3734L13671.7896,-3432.1934L13671.7407,-3432.0999L13671.5805,-3431.9401L13671.3806,-3431.9199L13671.3104,-3431.8665L13671.3593,-3431.7932L13671.2402,-3431.72L13671.2204,-3431.6532L13671.2692,-3431.5601L13671.1807,-3431.5067L13671.2402,-3431.2534L13671.1502,-3431.2L13671.0403,-3431.2L13670.9503,-3431.2L13670.8801,-3431.2332L13670.7703,-3431.1665L13670.7001,-3431.1665L13670.5399,-3431.0532L13670.43,-3431.0734L13670.2393,-3430.8399L13670.1492,-3430.7999L13670.1096,-3430.8201L13670.0806,-3431.02L13670.0195,-3431.0734L13669.9005,-3431.0932L13669.9295,-3430.9868L13669.8593,-3430.9467L13669.7693,-3430.9265L13669.6503,-3430.9265L13669.6304,-3430.9132L13669.7006,-3430.8201L13669.7006,-3430.7667L13669.6503,-3430.6934L13669.5206,-3430.6801L13669.4305,-3430.7133L13669.3802,-3430.7865L13669.3298,-3430.8601L13669.2902,-3430.9132L13669.2001,-3430.8933L13669.1803,-3430.8601L13669.1299,-3430.64L13669.1101,-3430.5866L13669.0201,-3430.5134L13668.9896,-3430.08L13669.1803,-3429.7401L13669.2001,-3429.7199L13669.2398,-3429.7066L13669.5602,-3429.5265L13669.8105,-3429.4334L13669.9493,-3429.38L13670.1096,-3429.3598L13670.2194,-3429.38L13670.3094,-3429.4533L13670.4895,-3429.5799L13670.6802,-3429.6867L13670.7199,-3429.8134L13670.8298,-3429.8866L13670.9702,-3429.94L13671.08,-3429.9534L13671.1807,-3429.9934L13671.2204,-3430.0465L13671.2692,-3430.1201L13671.3806,-3430.1731L13671.4493,-3430.2265L13671.5805,-3430.2467L13671.6293,-3430.2601L13671.6293,-3430.3333L13671.6797,-3430.4066L13671.7407,-3430.4798L13671.7896,-3430.5L13671.8307,-3430.5332L13672.0398,-3430.5668L13672.1802,-3430.6065L13672.3602,-3430.64L13672.4701,-3430.7133L13672.5204,-3430.7865L13672.7203,-3430.7465L13672.9004,-3430.6801L13672.9706,-3430.64L13673.3307,-3430.5134L13673.5199,-3430.4268L13673.8602,-3430.2601L13674.1302,-3430.1201L13674.3805,-3429.9934L13674.6307,-3429.7733"/>
<path content="AP030,1,28,1,0,15,1,8,JPN" xlink:title="AP030" d="M13687.2284,-3433.7074L13687.3611,-3432.8926L13688.446,-3431.5464L13688.623,-3431.0658L13688.1607,-3430.4356L13688.4537,-3429.4724L13689.0213,-3429.2355L13689.3188,-3428.8357L13689.0579,-3428.4939L13688.3102,-3428.4401"/>
<path content="AP030,1,28,1,0,14,1,8,JPN" xlink:title="AP030" d="M13683.9706,-3432.7667L13684.1797,-3432.6065L13684.1797,-3432.4402L13684.2697,-3432.3734L13684.61,-3432.3532L13684.8801,-3432.28L13684.9304,-3432.0999L13684.9899,-3432.0667L13685.0601,-3432.0267L13685.2005,-3432.0133L13685.2402,-3432.0133L13685.3104,-3432.0133L13685.6094,-3431.7402L13685.8597,-3431.4865L13685.8795,-3431.4533L13686.0794,-3431.3465L13686.1298,-3431.3267L13686.3602,-3431.3267L13686.5204,-3431.2L13686.6302,-3431.1268L13686.8301,-3430.9868L13687.0605,-3430.8399L13687.1994,-3430.7465L13687.2696,-3430.6599L13687.3093,-3430.5534L13687.4893,-3430.3867L13687.5198,-3430.3532L13687.6297,-3430.3001L13687.6297,-3430.2067L13687.5397,-3429.9732L13687.5397,-3429.7199L13687.6297,-3429.6333L13688.0203,-3429.4865L13688.1805,-3429.1664L13688.3606,-3428.7998L13688.3606,-3428.7666L13688.3606,-3428.68L13688.3606,-3428.64L13688.3102,-3428.4401"/>
<path content="AP030,1,28,1,0,15,1,8,JPN" xlink:title="AP030" d="M13646.9467,-3438.9191L13647.081,-3437.8082L13648.0042,-3437.3466L13647.9385,-3436.4765L13648.0896,-3435.7384L13648.7549,-3435.1742L13648.8159,-3434.7424L13648.587,-3434.1454L13649.0204,-3433.7273L13648.9151,-3432.8869L13649.5026,-3432.3818L13650.2426,-3431.8199L13650.8514,-3430.9128L13650.7507,-3430.0102L13650.7629,-3429.081L13651.1093,-3428.3733"/>
<path content="AP030,1,28,1,0,14,1,8,JPN" xlink:title="AP030" d="M13651.1093,-3428.3733L13651.2894,-3428.4801L13651.4297,-3428.6064L13651.6296,-3428.64L13651.8799,-3428.6934L13651.9302,-3428.7334L13651.9302,-3429.1065L13652.0401,-3429.1801L13652.2202,-3429.2534L13652.3605,-3429.2732L13652.6093,-3429.1664L13652.8595,-3429.2534L13653.0396,-3429.2534L13653.27,-3429.1466L13653.54,-3428.9665L13653.54,-3428.9131L13653.5202,-3428.82L13653.6102,-3428.7865L13653.6804,-3428.68L13653.7399,-3428.6201L13653.7201,-3428.6064L13653.7003,-3428.5667L13653.6804,-3428.5133L13653.8605,-3428.5133L13654.0207,-3428.4065L13654.2206,-3428.3531L13654.2892,-3428.3333L13654.3793,-3428.3199L13654.5807,-3428.3001L13654.6997,-3428.3001L13654.9301,-3428.3199L13655.1102,-3428.3333L13655.3299,-3428.1734L13655.5603,-3428.1933L13655.6503,-3428.3733L13655.7693,-3428.4801L13655.8304,-3428.6064L13655.8807,-3428.68L13656.0394,-3428.64L13656.1295,-3428.6201L13656.2393,-3428.5866L13656.3293,-3428.6598L13656.4499,-3428.6598L13656.4697,-3428.7666L13656.6498,-3428.8734L13656.9305,-3428.8734L13657.0206,-3428.9131L13657.0801,-3428.9467L13657.1793,-3429.0733L13657.3303,-3429.2198L13657.5195,-3429.2332L13657.6096,-3429.2732L13657.8094,-3429.38L13658.02,-3429.4666L13658.0399,-3429.4865L13658.2901,-3429.4533L13658.4702,-3429.4865"/>
<path content="AP030,1,28,1,0,14,1,8,JPN" xlink:title="AP030" d="M13649.1806,-3427.3266L13649.2401,-3427.7199L13649.2905,-3427.7931L13649.3805,-3427.8667L13649.6506,-3427.94L13649.7406,-3427.94L13650.1099,-3427.9732L13650.3601,-3427.9202L13650.47,-3427.8999L13650.6104,-3427.94L13650.9705,-3427.94L13651.0605,-3427.9533L13651.1093,-3427.9934L13651.1093,-3428.0666L13651.0193,-3428.2265L13651.0193,-3428.3531L13651.1093,-3428.3733"/>
<path content="AP030,1,28,1,0,15,1,8,JPN" xlink:title="AP030" d="M13640.9698,-3430.5L13643.4723,-3430.2258L13644.3542,-3430.0037L13644.9631,-3429.5048L13645.5734,-3428.8948L13646.048,-3428.7285L13646.7255,-3429.0611L13647.2,-3429.2831L13647.7417,-3429.1168L13648.2162,-3428.5622L13648.6893,-3428.1185L13649.1806,-3427.3266"/>
<path content="AP030,1,28,1,0,14,1,8,JPN" xlink:title="AP030" d="M13685.8795,-3426.3L13686.2198,-3426.4267L13686.29,-3426.44L13686.5402,-3426.4599L13686.6501,-3426.4999L13686.7203,-3426.5331L13686.7706,-3426.5865L13686.7905,-3426.8002L13686.7706,-3427L13686.7905,-3427.1999L13686.7905,-3427.2331L13686.9293,-3427.3602L13687.1094,-3427.4864L13687.4496,-3427.5265L13687.5397,-3427.56L13687.7899,-3427.7401L13688.0203,-3427.9202L13688.1302,-3428.0266L13688.2401,-3428.2467L13688.3102,-3428.4401"/>
<path content="AP030,1,28,1,0,14,1,8,JPN" xlink:title="AP030" d="M13677.8595,-3427.38L13678.1097,-3427.2865L13678.2394,-3427.2732L13678.54,-3427.3067L13678.6804,-3427.2732L13679.1107,-3427.0931L13679.4693,-3427.0199L13680.4639,-3426.8701L13680.9226,-3426.7749L13681.9356,-3426.3544L13682.4493,-3426.2798L13682.7194,-3426.2066L13683.3099,-3426.0132L13683.6304,-3425.9399L13683.7692,-3425.9399L13683.9905,-3425.9933L13684.4696,-3426.1333L13684.5795,-3426.1734L13684.8801,-3426.4267L13685.4706,-3426.4267L13685.7697,-3426.4267L13685.8795,-3426.3"/>
<path content="AP030,1,28,1,0,15,1,8,JPN" xlink:title="AP030" d="M13640.9225,-3430.2666L13641.3467,-3429.9759L13641.7252,-3429.7455L13642.1219,-3429.607L13642.5735,-3429.57L13642.9886,-3429.5609L13643.2373,-3429.5517L13643.3289,-3429.4964L13643.3289,-3429.3213L13643.2098,-3429.0169L13642.8955,-3428.7586L13642.601,-3428.5374L13642.4988,-3428.4081L13642.5644,-3428.1868L13642.8314,-3427.8915L13643.1351,-3427.7901L13643.4494,-3427.6981L13643.6707,-3427.6703L13643.837,-3427.6611L13644.0582,-3427.8454L13644.1956,-3427.9469L13644.3893,-3427.9469L13644.5099,-3427.9102L13644.7495,-3427.5318L13644.9615,-3427.2369L13645.2484,-3427.0615L13645.7184,-3426.8955L13645.8649,-3426.7574L13645.9305,-3426.5728L13645.9671,-3426.1761L13645.99,-3425.8999"/>
<path content="AP030,1,28,1,0,14,1,8,JPN" xlink:title="AP030" d="M13645.99,-3425.8999L13646.2402,-3425.8133L13646.3593,-3425.7935L13646.5393,-3425.7599L13646.5805,-3425.7599L13647.2397,-3425.7065L13647.5204,-3425.8133L13648.0804,-3425.8865L13648.2407,-3426.0799L13648.3307,-3426.1932L13648.7396,-3426.26L13648.88,-3426.2798L13648.9304,-3426.4801L13648.8998,-3426.7132L13648.8998,-3426.7666L13649.1806,-3427.3266"/>
<path content="AP030,1,28,1,0,14,1,8,JPN" xlink:title="AP030" d="M13677.0599,-3427.7733L13677.0203,-3427.7065L13676.9302,-3427.6867L13676.9302,-3427.5932L13676.9699,-3427.5265L13676.9699,-3427.4666L13676.8997,-3427.4132L13676.77,-3427.3998L13676.6296,-3427.3266L13676.4893,-3427.3266L13676.5198,-3427.1999L13676.86,-3426.8398L13677.0401,-3426.5865L13677.1805,-3426.3866L13677.3605,-3426.3535L13677.4506,-3426.2798L13677.7695,-3426.1932L13678.0396,-3426.1734L13678.36,-3426.12L13678.4698,-3426.0468L13678.6102,-3425.9399L13678.7399,-3425.9201L13679.0207,-3425.8865L13679.0802,-3425.8865L13679.2404,-3425.7935L13679.3594,-3425.7198L13679.7394,-3425.7065L13679.8096,-3425.6664L13679.8599,-3425.5932L13679.9698,-3425.5932L13680.1102,-3425.6332L13680.1804,-3425.5932L13680.2902,-3425.5402L13680.3604,-3425.5402L13680.5801,-3425.5932L13680.8304,-3425.6134L13680.9296,-3425.6134L13681.0394,-3425.6664L13681.2195,-3425.7599L13681.4499,-3425.8133L13681.9,-3425.7732L13682.0404,-3425.7198L13682.1503,-3425.6664L13682.4295,-3425.5264L13682.6492,-3425.5066L13682.9498,-3425.4868L13683.0795,-3425.4868L13683.5205,-3425.4665L13683.7692,-3425.4002L13683.8303,-3425.3799L13684.0195,-3425.4333L13684.1095,-3425.4333L13684.3994,-3425.3468L13684.52,-3425.2865L13684.5795,-3425.3067L13684.6497,-3425.3799L13684.61,-3425.4665L13684.7,-3425.5932L13684.7,-3425.6134L13684.8297,-3425.8667L13684.9899,-3426.0468L13685.2402,-3426.2264L13685.5606,-3426.3L13685.8795,-3426.3"/>
<path content="AP030,1,28,1,0,14,1,8,JPN" xlink:title="AP030" d="M13640.625,-3426.162L13640.7394,-3426.1932L13640.77,-3426.1002L13640.86,-3426.0799L13640.9302,-3426.0265L13640.9698,-3425.9731L13641.0202,-3425.9533L13641.0599,-3425.9533L13641.0797,-3426.0265L13641.1301,-3426.0666L13641.2201,-3426.1002L13641.2704,-3426.0666L13641.1804,-3425.9533L13641.2704,-3425.9201L13641.3605,-3425.8865L13641.6306,-3425.8133L13641.8106,-3425.7599L13641.9907,-3425.7065L13642.1097,-3425.6866L13642.1494,-3425.7198L13642.1494,-3425.7732L13642.1295,-3425.8865L13642.1997,-3425.9731L13642.4698,-3425.9731L13642.54,-3426.0132L13642.5797,-3426.12L13642.6498,-3426.0666L13642.7002,-3425.9533L13642.6804,-3425.8999L13642.63,-3425.7732L13642.6804,-3425.7401L13642.8101,-3425.7599L13642.8604,-3425.7198L13642.9001,-3425.6535L13642.9001,-3425.6134L13642.9901,-3425.6332L13643.1107,-3425.7401L13643.2007,-3425.7732L13643.2007,-3425.6866L13643.0206,-3425.3067L13643.0801,-3425.1266L13643.2693,-3425.0198L13643.3594,-3424.9866"/>
<path content="AP030,1,28,1,0,14,1,8,JPN" xlink:title="AP030" d="M13642.7191,-3424.9057L13643.3594,-3424.9866"/>
<path content="AP030,1,28,1,0,14,1,8,JPN" xlink:title="AP030" d="M13643.3594,-3424.9866L13643.6996,-3424.9134L13643.9301,-3424.86L13644.0399,-3424.9268L13644.22,-3424.9134L13644.3604,-3424.9466L13644.7403,-3425.0198L13644.9707,-3425.0732L13645.1492,-3425.1667L13645.1996,-3425.1999L13645.52,-3425.5798L13645.7397,-3425.8667L13645.8099,-3425.8999L13645.99,-3425.8999"/>
<path content="AP030,1,28,1,0,14,1,4,JPN" xlink:title="AP030" d="M13640.98,-3424.467L13641.6306,-3424.6721L13642.1687,-3424.7939L13642.7191,-3424.9057"/>
<path content="AP030,1,28,1,0,14,1,8,JPN" xlink:title="AP030" d="M13640.625,-3424.2037L13640.98,-3424.467"/>
</g>
</svg>
