<?xml version="1.0" encoding="UTF-8"?>
<svg  xmlns="http://www.w3.org/2000/svg" xmlns:xlink="http://www.w3.org/1999/xlink" xmlns:go="http://purl.org/svgmap/profile" property="f_code,acc,exs,rst,med,rtt,RSU,loc,soc" viewBox="13500.0 -3375.0 1125.0 1125.0" go:dataArea="13500.0 -3375.0 1125.0 1125.0" >
<metadata>
 <rdf:RDF xmlns:rdf="http://www.w3.org/1999/02/22-rdf-syntax-ns#" xmlns:crs="http://opengis.org/xmldtds/transformations.dtd" xmlns:svg="http://www.w3.org/svg" >
  <rdf:Description>
   <crs:CoordinateReferenceSystem rdf:resource="http://purl.org/crs/84" svg:transform="matrix(100.0,0.0,0.0,-100.0,0.0,0.0)" />
  </rdf:Description>
 </rdf:RDF>
</metadata>
<globalCoordinateSystem srsName="http://purl.org/crs/84" transform="matrix(100.0,0.0,0.0,-100.0,0.0,0.0)" />
<defs>
 <g id="p0" >
  <circle cx="0.0" cy="0.0" r="3" stroke="green" stroke-width="2.0" vector-effect="non-scaling-stroke" />
 </g>
</defs>
<g fill="none" fill-rule="evenodd" stroke="#00ff00" stroke-width="2" opacity="0.5" vector-effect="non-scaling-stroke" stroke-linejoin="bevel" >
<path content="AP030,1,28,1,0,15,1,8,JPN" xlink:title="AP030" d="M13535.1571,-3375L13535.08,-3374.8398"/>
<path content="AP030,1,28,1,0,14,1,8,JPN" xlink:title="AP030" d="M13602.2049,-3375L13602.1805,-3374.7665L13602.15,-3374.7334"/>
<path content="AP030,1,28,1,0,16,1,8,JPN" xlink:title="AP030" d="M13536.8925,-3375L13537.6099,-3374.5335"/>
<path content="AP030,1,28,1,0,15,1,8,JPN" xlink:title="AP030" d="M13540.3075,-3375L13539.6652,-3374.4576"/>
<path content="AP030,1,28,1,0,14,1,8,JPN" xlink:title="AP030" d="M13532.5699,-3375L13532.6294,-3374.9134L13532.7393,-3374.7665L13532.8293,-3374.6597L13532.8598,-3374.4801L13532.8598,-3374.4598L13532.8796,-3374.4267L13532.9895,-3374.4598L13533.1802,-3374.5132L13533.4305,-3374.5132L13533.6105,-3374.5865L13533.7204,-3374.5865L13533.8303,-3374.5335L13534.2194,-3374.5865L13534.4696,-3374.6067L13535.08,-3374.8398"/>
<path content="AP030,1,28,1,0,14,1,8,JPN" xlink:title="AP030" d="M13558.9122,-3375L13558.7906,-3374.86L13558.6807,-3374.6597L13558.49,-3374.4999L13558.4305,-3374.4598L13558.49,-3374.3"/>
<path content="AP030,1,28,1,0,14,1,8,JPN" xlink:title="AP030" d="M13537.6801,-3374.0799L13537.6099,-3374.5335"/>
<path content="AP030,1,28,1,0,14,1,8,JPN" xlink:title="AP030" d="M13600.0793,-3374.0997L13600.3098,-3374.0799L13600.5402,-3374.1333L13600.9903,-3374.4064L13601.2405,-3374.4801L13601.5198,-3374.5132L13601.86,-3374.5865L13601.9424,-3374.6281L13602.15,-3374.7334"/>
<path content="AP030,1,28,1,0,15,1,8,JPN" xlink:title="AP030" d="M13539.0793,-3373.9735L13539.6652,-3374.4576"/>
<path content="AP030,1,28,1,0,14,1,8,JPN" xlink:title="AP030" d="M13537.6099,-3374.5335L13538.2401,-3374.4267L13538.4506,-3374.3332L13538.6307,-3374.2065L13538.7894,-3374.0665L13538.9694,-3374.0467L13539.0793,-3373.9735"/>
<path content="AP030,1,28,1,0,15,1,8,JPN" xlink:title="AP030" d="M13558.49,-3374.3L13559.4376,-3374.6758L13560.997,-3374.8535L13561.3688,-3375M13562.0323,-3375L13562.2025,-3374.9336L13562.8845,-3374.9905L13563.9069,-3374.8711L13564.0892,-3375M13566.0686,-3375L13566.3086,-3374.6479L13566.6672,-3374.6632L13566.8869,-3374.8093L13567.2638,-3374.5251L13567.7628,-3374.3828L13568.5135,-3373.896L13568.6234,-3374.2287L13568.6661,-3374.5857L13569.249,-3374.6929L13570.2713,-3374.5457L13570.5124,-3374.884L13570.4729,-3375"/>
<path content="AP030,1,28,1,0,15,1,8,JPN" xlink:title="AP030" d="M13539.6652,-3374.4576L13540.387,-3373.7591"/>
<path content="AP030,1,28,1,0,14,1,8,JPN" xlink:title="AP030" d="M13535.08,-3374.8398L13535.2203,-3374.8199L13535.3607,-3374.7334L13535.4706,-3374.6399L13535.4904,-3374.5335L13535.5392,-3374.3732L13535.5606,-3374.3198L13535.5606,-3374.2065L13535.5804,-3374.1199L13535.6293,-3374.0131L13535.7193,-3373.8667L13535.7697,-3373.7598L13535.7407,-3373.5931L13535.7697,-3373.5397L13535.8093,-3373.4867L13535.8597,-3373.4665L13535.9894,-3373.4665L13536.0199,-3373.4665L13536.2411,-3373.5565L13536.38,-3373.6134L13536.4899,-3373.6866L13536.7905,-3373.7598L13536.9003,-3373.7934L13537.1506,-3373.9399L13537.2894,-3373.9933L13537.4695,-3374.0467L13537.6801,-3374.0799"/>
<path content="AP030,1,28,1,0,15,1,8,JPN" xlink:title="AP030" d="M13543.7804,-3375L13543.7531,-3374.9458L13543.2617,-3374.39L13542.4896,-3373.8678L13541.806,-3373.2796"/>
<path content="AP030,1,28,1,0,15,1,8,JPN" xlink:title="AP030" d="M13540.387,-3373.7591L13541.2201,-3373.3227L13541.806,-3373.2796"/>
<path content="AP030,1,28,1,0,14,1,8,JPN" xlink:title="AP030" d="M13537.6801,-3374.0799L13537.7197,-3374.0799L13537.9303,-3374.0997L13538.06,-3373.8998L13538.2706,-3373.74L13538.3606,-3373.6134L13538.4003,-3373.5798L13538.4506,-3373.5397L13538.6307,-3373.3799L13538.7207,-3373.1667L13538.7817,-3373.0434L13538.8107,-3372.9866L13538.8992,-3372.9134"/>
<path content="AP030,1,28,1,0,14,1,8,JPN" xlink:title="AP030" d="M13550.2737,-3375L13550.3098,-3374.9466L13550.3296,-3374.8199L13550.2899,-3374.5667L13550.2701,-3374.4598L13550.1801,-3374.3332L13550.1801,-3374.3198L13550.0793,-3374.2798L13549.9298,-3374.2466L13549.7406,-3374.0997L13549.6307,-3373.9735L13549.6506,-3373.8464L13549.7406,-3373.7598L13549.8093,-3373.6668L13549.7696,-3373.56L13549.5804,-3373.2735L13549.5605,-3373.2533L13549.4293,-3373.2533L13549.1302,-3373.2735L13549.0204,-3373.2533L13548.8998,-3373.2334L13548.7198,-3373.1266L13548.6496,-3373.0934L13548.5397,-3373.0534L13548.3307,-3372.9134"/>
<path content="AP030,1,28,1,0,14,1,8,JPN" xlink:title="AP030" d="M13602.15,-3374.7334L13602.0401,-3374.44L13602.0401,-3374.1531L13602.0401,-3374.0265L13601.9302,-3373.9201L13601.86,-3373.7198L13601.77,-3373.7198L13601.6296,-3373.7064L13601.3794,-3373.5397L13601.2207,-3373.5065L13600.9506,-3373.5065L13600.7706,-3373.5065L13600.3799,-3373.3265L13600.3296,-3373.3265L13599.7894,-3373.4531L13599.6796,-3373.4531L13599.6094,-3373.4531L13599.5605,-3373.4531L13599.4186,-3373.4627L13599.3607,-3373.4665L13599.1501,-3373.4867L13598.9304,-3373.5268L13598.7701,-3373.5798L13598.5794,-3372.9465L13598.5397,-3372.7467"/>
<path content="AP030,1,28,1,0,15,1,8,JPN" xlink:title="AP030" d="M13597.0545,-3375L13597.02,-3374.8871L13597.02,-3374.2428L13597.4792,-3373.8129L13598.5397,-3372.7467"/>
<path content="AP030,1,28,1,0,14,1,8,JPN" xlink:title="AP030" d="M13598.5397,-3372.7467L13598.5397,-3372.4998L13598.5397,-3372.2599L13598.5397,-3372.1333L13598.5397,-3371.8998L13598.5596,-3371.8334"/>
<path content="AP030,1,28,1,0,14,1,8,JPN" xlink:title="AP030" d="M13593.6461,-3375L13593.6493,-3374.9866L13593.6493,-3374.9466L13593.6798,-3374.4064L13593.6798,-3374.3332L13593.6996,-3374.1932L13593.7393,-3374.0131L13593.7698,-3373.8335L13593.7897,-3373.7198L13593.8599,-3373.56L13593.9896,-3373.4135L13594.22,-3373.18L13594.3298,-3373.0732L13594.6503,-3372.9267L13594.8303,-3372.7867L13594.9905,-3372.6799L13595.2896,-3372.5334L13595.7199,-3372.3866L13595.9305,-3372.3198L13596.1807,-3372.2797L13596.2692,-3372.1535L13596.2906,-3372.1333L13596.4294,-3372.2466L13596.6293,-3372.1931L13596.8307,-3372.1001L13597.11,-3372.0467L13597.4503,-3372.0135L13597.8806,-3371.8666L13597.9706,-3371.8468L13598.1293,-3371.8334L13598.5596,-3371.8334"/>
<path content="AP030,1,28,1,0,14,1,8,JPN" xlink:title="AP030" d="M13545.61,-3371.4664L13545.99,-3371.5065L13546.2906,-3371.5065L13546.5195,-3371.5065L13546.6293,-3371.5065L13546.8597,-3371.5599L13547.1802,-3371.7934L13547.2702,-3371.8334L13547.6501,-3371.7934L13547.8302,-3371.7731L13547.9507,-3371.8334L13547.9706,-3371.9398L13547.9904,-3372.0665L13547.9507,-3372.2797L13547.9507,-3372.4266L13548.0392,-3372.5666L13548.1293,-3372.6933L13548.3307,-3372.9134"/>
<path content="AP030,1,28,1,0,14,1,8,JPN" xlink:title="AP030" d="M13539.0793,-3373.9735L13539.5401,-3373.7064L13539.8102,-3373.5397L13539.9704,-3373.4135L13540.0192,-3373.3265L13540.0406,-3373.0198L13540.2206,-3372.5864L13540.5197,-3372.2267L13540.6494,-3371.9734L13540.7394,-3371.7731L13540.7394,-3371.7247L13540.7394,-3371.6133L13540.6998,-3371.4664L13540.6296,-3371.3467L13540.4297,-3371.1998"/>
<path content="AP030,1,28,1,0,14,1,8,JPN" xlink:title="AP030" d="M13544.5404,-3371.0197L13544.9005,-3371.1998L13545.1996,-3371.3264L13545.61,-3371.4664"/>
<path content="AP030,1,28,1,0,15,1,8,JPN" xlink:title="AP030" d="M13541.806,-3373.2796L13542.894,-3373.2128L13543.5425,-3372.6387L13544.4504,-3371.9139L13544.5404,-3371.0197"/>
<path content="AP030,1,28,1,0,14,1,8,JPN" xlink:title="AP030" d="M13544.6304,-3370.66L13544.7906,-3370.8L13545.0195,-3370.9133L13545.0607,-3370.9465L13545.1294,-3371.1468L13545.3598,-3371.2734L13545.5399,-3371.4134L13545.61,-3371.4664"/>
<path content="AP030,1,28,1,0,15,1,8,JPN" xlink:title="AP030" d="M13544.5404,-3371.0197L13544.6304,-3370.66"/>
<path content="AP030,1,28,1,0,15,1,8,JPN" xlink:title="AP030" d="M13540.387,-3373.7591L13541.0431,-3372.4701L13541.3712,-3371.772L13541.3055,-3371.1811L13541.3055,-3371.019L13541.3055,-3370.805L13541.3605,-3370.3732"/>
<path content="AP030,1,28,1,0,14,1,8,JPN" xlink:title="AP030" d="M13540.4297,-3371.1998L13540.4694,-3371.1266L13540.5807,-3370.9866L13540.77,-3370.6799L13540.8798,-3370.6066L13540.95,-3370.5666L13541.1499,-3370.5132L13541.3605,-3370.3732"/>
<path content="AP030,1,28,1,0,14,1,8,JPN" xlink:title="AP030" d="M13598.6801,-3369.6667L13598.7701,-3369.7933L13598.8602,-3369.8997L13598.8602,-3370.1L13598.8297,-3370.2465L13598.7,-3370.4399L13598.6801,-3370.8935L13598.7,-3370.9465L13598.8098,-3371.0732L13598.8297,-3371.1998L13598.7701,-3371.2532L13598.6801,-3371.36L13598.6801,-3371.5065L13598.6099,-3371.6133L13598.5596,-3371.8334"/>
<path content="AP030,1,28,1,0,14,1,8,JPN" xlink:title="AP030" d="M13544.6304,-3370.66L13544.3298,-3370.4597L13544.0201,-3370.2599L13543.8797,-3370.2267L13543.7195,-3370.2267L13543.5806,-3370.1332L13543.3594,-3369.9932L13543.2404,-3369.8132L13543.1793,-3369.6133L13543.0405,-3369.36L13542.9001,-3369.1799"/>
<path content="AP030,1,28,1,0,15,1,8,JPN" xlink:title="AP030" d="M13584.1629,-3375L13584.0912,-3374.6185L13583.3694,-3373.7591L13582.3853,-3372.7924L13582.1884,-3372.3091L13582.1228,-3371.933L13582.1884,-3371.6644L13582.3853,-3371.2345L13581.868,-3370.9953L13581.6269,-3370.6573L13581.9641,-3370.48L13581.4758,-3369.3665L13581.323,-3368.9567"/>
<path content="AP030,1,28,1,0,15,1,8,JPN" xlink:title="AP030" d="M13577.7336,-3375L13577.7634,-3374.5106L13577.0996,-3373.0618L13577.4292,-3372.4743L13577.5269,-3371.413L13578.0319,-3370.6421L13578.9856,-3369.9993L13580.8105,-3369.4084L13581.323,-3368.9567"/>
<path content="AP030,1,28,1,0,15,1,8,JPN" xlink:title="AP030" d="M13548.3307,-3372.9134L13549.5407,-3372.3671L13550.1236,-3372.0783L13550.4807,-3372.0104L13550.7797,-3372.2443L13551.1459,-3372.4075L13551.6632,-3372.3782L13552.1133,-3372.2195L13552.3514,-3372.02L13552.4109,-3371.6972L13552.092,-3371.368L13552.0782,-3371.1994L13552.3605,-3371.2959L13552.8366,-3371.3066L13553.595,-3371.0567L13553.7308,-3370.8946L13553.7704,-3370.4659L13553.5538,-3370.3197L13553.6346,-3370.2183L13553.9749,-3370.2126L13554.2206,-3369.9081L13554.2465,-3369.4893L13554.0512,-3369.2078L13554.0543,-3368.956L13554.303,-3368.943"/>
<path content="AP030,1,28,1,0,14,1,8,JPN" xlink:title="AP030" d="M13541.3605,-3370.3732L13541.6107,-3370.0798L13541.6428,-3370.0478L13541.7694,-3369.92L13541.7694,-3369.4L13541.5604,-3369.0735L13541.4703,-3368.9667L13541.4001,-3368.8198"/>
<path content="AP030,1,28,1,0,14,1,8,JPN" xlink:title="AP030" d="M13541.4001,-3368.8198L13541.5405,-3368.7866L13541.7206,-3368.8L13542.0395,-3368.9266L13542.5201,-3369.0399L13542.7399,-3369.0735L13542.9001,-3369.1799"/>
<path content="AP030,1,28,1,0,14,1,8,JPN" xlink:title="AP030" d="M13558.49,-3374.3L13558.5205,-3374.2065L13558.49,-3374.1199L13558.4503,-3374.0799L13558.3099,-3374.0997L13558.2703,-3374.1199L13558.1802,-3374.1199L13558.0597,-3374.0467L13558.02,-3374.0131L13558.0399,-3373.8335L13557.9895,-3373.7934L13557.93,-3373.7732L13557.6996,-3373.7732L13557.6797,-3373.7064L13557.6492,-3373.6668L13557.5195,-3373.5931L13557.5195,-3373.5268L13557.6492,-3373.4135L13557.6797,-3373.3799L13557.6797,-3373.2533L13557.6096,-3373.1068L13557.4493,-3372.9267L13557.4493,-3372.8733L13557.5394,-3372.8733L13557.6797,-3372.9866L13557.8094,-3373.0198L13557.8995,-3372.9866L13557.93,-3372.9267L13557.9697,-3372.7665L13557.8995,-3372.5533L13557.7698,-3372.3534L13557.8094,-3372.2599L13557.8094,-3372.1931L13557.7698,-3372.0665L13557.5607,-3372.0135L13557.4493,-3371.9532L13557.4493,-3371.8998L13557.5607,-3371.8334L13557.6294,-3371.7598L13557.5394,-3371.4867L13557.4493,-3371.3264L13557.3807,-3371.2868L13557.2693,-3371.3066L13557.0404,-3371.4134L13556.9901,-3371.4134L13556.9305,-3371.2734L13556.9504,-3371.1666L13557.0602,-3370.9999L13557.1793,-3370.9133L13557.2693,-3370.8599L13557.3105,-3370.8L13557.2006,-3370.6398L13557.1106,-3370.48L13557.1106,-3370.3533L13557.1106,-3370.2801L13556.9702,-3370.2801L13556.8802,-3370.3197L13556.81,-3370.2599L13556.8604,-3370.2065L13556.7902,-3370.0134L13556.7703,-3369.7933L13556.7398,-3369.7399L13556.4896,-3369.7201L13556.4697,-3369.6865L13556.5399,-3369.6335L13556.5796,-3369.5599L13556.5796,-3369.4668L13556.7902,-3369.3066L13556.72,-3369.2333L13556.7398,-3369.0201L13556.7902,-3368.8732L13557.0602,-3368.7668"/>
<path content="AP030,1,28,1,0,15,1,8,JPN" xlink:title="AP030" d="M13540.4297,-3371.1998L13539.9933,-3370.8588L13539.5996,-3369.4084L13539.0747,-3368.4956"/>
<path content="AP030,1,28,1,0,15,1,8,JPN" xlink:title="AP030" d="M13554.303,-3368.943L13554.4556,-3369.1586L13554.8721,-3369.1769L13555.1483,-3368.7481L13555.6015,-3368.6058L13556.2531,-3368.4025L13556.5552,-3368.4624L13557.0602,-3368.7668"/>
<path content="AP030,1,28,1,0,14,1,8,JPN" xlink:title="AP030" d="M13541.4001,-3368.8198L13541.2903,-3368.6398L13541.2704,-3368.5867L13541.04,-3368.3865L13540.9302,-3368.28L13540.5807,-3367.9398"/>
<path content="AP030,1,28,1,0,15,1,8,JPN" xlink:title="AP030" d="M13539.0747,-3368.4956L13539.7842,-3368.2335L13540.5807,-3367.9398"/>
<path content="AP030,1,28,1,0,15,1,8,JPN" xlink:title="AP030" d="M13581.323,-3368.9567L13581.6635,-3368.6565L13581.8604,-3368.0656L13581.8604,-3367.6361"/>
<path content="AP030,1,28,1,0,15,1,8,JPN" xlink:title="AP030" d="M13539.0747,-3368.4956L13538.2874,-3367.8509L13537.2375,-3367.4747L13535.7941,-3367.4747"/>
<path content="AP030,1,28,1,0,15,1,8,JPN" xlink:title="AP030" d="M13534.2834,-3366.6691L13535.7941,-3367.4747"/>
<path content="AP030,1,28,1,0,15,1,8,JPN" xlink:title="AP030" d="M13535.7941,-3367.4747L13534.8755,-3367.4213L13534.2834,-3367.1528L13534.1522,-3366.9376L13534.2834,-3366.6691"/>
<path content="AP030,1,28,1,0,15,1,8,JPN" xlink:title="AP030" d="M13542.9001,-3369.1799L13543.5669,-3368.8107L13544.6594,-3368.6745L13545.6406,-3368.9507L13546.3715,-3368.7981L13546.8323,-3368.5402L13547.3419,-3368.8183L13547.9691,-3368.568L13549.0173,-3368.6844L13549.9695,-3368.5413L13550.8957,-3367.9562L13551.3214,-3367.3714L13551.1383,-3366.7599L13551.2924,-3366.5115"/>
<path content="AP030,1,28,1,0,15,1,8,JPN" xlink:title="AP030" d="M13581.8604,-3367.6361L13582.4417,-3367.7025L13582.8629,-3366.4383L13583.5312,-3366.4249L13584.6191,-3367.2562L13585.7147,-3367.5499"/>
<path content="AP030,1,28,1,0,15,1,8,JPN" xlink:title="AP030" d="M13585.7147,-3367.5499L13586.3617,-3367.4736L13586.6257,-3366.7816L13587.2284,-3366.6206L13587.6221,-3366.2239"/>
<path content="AP030,1,28,1,0,15,1,8,JPN" xlink:title="AP030" d="M13551.2924,-3366.5115L13551.9409,-3366.7957L13552.3102,-3366.6729L13552.417,-3366.3063L13552.9099,-3365.9569L13553.624,-3366.0812L13554.0146,-3366.4932L13554.5319,-3367.0963L13554.5593,-3367.9562L13554.3396,-3368.3643L13554.303,-3368.943"/>
<path content="AP030,1,28,1,0,15,1,8,JPN" xlink:title="AP030" d="M13587.6221,-3366.2239L13588.0203,-3366.1987L13588.2095,-3365.9172L13588.4705,-3365.4865"/>
<path content="AP030,1,28,1,0,14,1,8,JPN" xlink:title="AP030" d="M13540.5807,-3367.9398L13540.8798,-3367.7601L13540.86,-3367.6533L13540.7196,-3367.5266L13540.6998,-3367.4332L13540.7196,-3367.2531L13540.6998,-3367.0734L13540.7196,-3366.9865L13540.7898,-3366.7999L13540.77,-3366.6199L13540.6097,-3366.3864L13540.4297,-3366.2464L13540.3107,-3366.2067L13540.0803,-3366.2266L13539.9704,-3366.2067L13539.9002,-3366.1331L13539.8605,-3366.0465L13539.9704,-3365.9L13540.0803,-3365.7398L13540.1794,-3365.58L13540.2206,-3365.4667"/>
<path content="AP030,1,28,1,0,15,1,8,JPN" xlink:title="AP030" d="M13534.2834,-3366.6691L13535.5972,-3366.2395L13538.2874,-3365.7562L13538.8428,-3365.6727L13540.2206,-3365.4667"/>
<path content="AP030,1,28,1,0,15,1,8,JPN" xlink:title="AP030" d="M13589.0396,-3366.9666L13588.9893,-3366.9998L13588.8992,-3367.1066L13588.9297,-3367.1467L13589.18,-3367.0734L13589.3097,-3366.9464L13589.3997,-3366.9865L13589.27,-3367.1066L13589.27,-3367.1665L13589.36,-3367.1665L13589.4501,-3367.1066L13589.9307,-3367.0933L13590.0192,-3367.02L13590.1993,-3366.8198L13590.3595,-3366.6798L13590.6494,-3366.5134L13590.7394,-3366.4066L13590.7898,-3366.2998L13590.8997,-3366.2266L13591.1102,-3366.1934L13591.1804,-3366.0465L13591.3803,-3365.8466L13591.4902,-3365.7066L13591.5405,-3365.4533"/>
<path content="AP030,1,28,1,0,16,1,8,JPN" xlink:title="AP030" d="M13589.0396,-3366.9666L13589.18,-3366.8198L13589.18,-3366.7465L13589.2197,-3366.6931L13589.2395,-3366.6931L13589.4699,-3366.7465L13589.6103,-3366.6931L13589.6301,-3366.6397L13589.5203,-3366.6397L13589.36,-3366.6397L13589.36,-3366.6065L13589.4699,-3366.5665L13589.5401,-3366.5531L13589.4501,-3366.4066L13589.5203,-3366.3532L13589.6805,-3366.4066L13589.7705,-3366.28L13589.7003,-3366.1934L13589.7705,-3366.0667L13589.7202,-3365.9733L13589.5401,-3365.9397L13589.4897,-3365.8466L13589.6103,-3365.8134L13589.6103,-3365.72L13589.5599,-3365.72L13589.3799,-3365.7734L13589.3295,-3365.8333L13589.3295,-3365.9199L13589.4699,-3366.0465L13589.5599,-3366.0465L13589.5203,-3366.1331L13589.3097,-3366.0797L13589.18,-3366.0667L13589.1296,-3365.9199L13589.0198,-3365.8665L13589.0198,-3365.7398L13588.8596,-3365.7398L13588.7695,-3365.72L13588.7405,-3365.6532L13588.8992,-3365.5067L13588.8596,-3365.3999L13588.7695,-3365.3599L13588.6093,-3365.3797L13588.5193,-3365.5067L13588.4705,-3365.4865"/>
<path content="AP030,1,28,1,0,14,1,8,JPN" xlink:title="AP030" d="M13557.0602,-3368.7668L13557.2205,-3368.8L13557.3105,-3368.7866L13557.4005,-3368.6932L13557.5195,-3368.6932L13557.5607,-3368.6199L13557.4905,-3368.5532L13557.5394,-3368.4799L13557.6096,-3368.3865L13557.6294,-3368.3533L13557.6797,-3368.2999L13557.7393,-3368.2068L13557.7698,-3368.1732L13557.6294,-3368.0798L13557.7194,-3367.9531L13557.7194,-3367.7933L13557.7194,-3367.7399L13557.8094,-3367.6865L13557.8598,-3367.58L13557.7896,-3367.3798L13557.7698,-3367.3065L13557.8094,-3367.2733L13557.93,-3367.2333L13557.9697,-3367.2001L13557.9895,-3367.0933L13558.02,-3367.0399L13558.0597,-3366.9998L13558.0597,-3366.9132L13557.93,-3366.7999L13558.02,-3366.7133L13558.1802,-3366.6599L13558.1802,-3366.5333L13558.2199,-3366.4265L13558.3603,-3366.3334L13558.58,-3366.3734L13558.6807,-3366.3532L13558.7402,-3366.2998L13558.8104,-3366.2067L13558.8593,-3366.1934L13559.1507,-3366.1934L13559.2697,-3366.1732L13559.3094,-3366.1198L13559.3094,-3366.0667L13559.2697,-3366.0267L13559.1293,-3365.9534L13559.1293,-3365.8867L13559.3094,-3365.9L13559.4299,-3365.9L13559.52,-3365.8665L13559.5398,-3365.76L13559.5398,-3365.7066L13559.4299,-3365.6532L13559.3597,-3365.6334L13559.3597,-3365.58L13559.4498,-3365.5598L13559.5795,-3365.5399L13559.7702,-3365.5933L13559.8801,-3365.5598L13559.9899,-3365.5266L13560.0601,-3365.4331L13560.0601,-3365.3065L13560.0204,-3365.1798L13560.0403,-3365.1066L13560.1303,-3365.1264L13560.3607,-3365.2L13560.6796,-3365.3267L13560.8307,-3365.3599L13560.8597,-3365.3797L13560.8597,-3365.4533L13560.8307,-3365.4865L13560.6995,-3365.4667L13560.5194,-3365.4667L13560.3607,-3365.5067L13560.2402,-3365.5598L13560.2203,-3365.76L13560.2905,-3365.8665L13560.3806,-3365.9199L13560.4507,-3365.9733L13560.6995,-3366.0133L13560.8597,-3366.0465L13560.9299,-3366.0797L13560.8994,-3366.1934L13560.8795,-3366.28L13560.8795,-3366.3734L13561.0397,-3366.3864L13561.1801,-3366.3864L13561.2701,-3366.3864L13561.3998,-3366.4799L13561.5204,-3366.5134L13561.5204,-3366.5665L13561.4502,-3366.6397L13561.4899,-3366.7332L13561.5799,-3366.8198L13561.6501,-3366.9266L13561.7401,-3366.8598L13561.8301,-3366.84L13561.9293,-3366.8598L13562.0193,-3366.8732L13562.1094,-3366.9464L13562.0407,-3367.0532L13562.0193,-3367.1265L13562.0193,-3367.2867L13561.9003,-3367.3599L13561.8301,-3367.5598L13561.6104,-3367.6132L13561.6104,-3367.6533L13561.6104,-3367.9199L13561.5204,-3368.0134L13561.3297,-3368.0134L13561.29,-3368.0466L13561.3297,-3368.1L13561.4304,-3368.1198L13561.4502,-3368.2266L13561.4502,-3368.2999L13561.29,-3368.3533L13561.2701,-3368.3735L13561.2701,-3368.4067L13561.4304,-3368.4601L13561.4502,-3368.5867L13561.4899,-3368.6932L13561.6104,-3368.6932L13561.8103,-3368.5135L13562.0407,-3368.3865L13562.1094,-3368.3735L13562.3093,-3368.3865L13562.5198,-3368.4601L13562.6099,-3368.4799L13562.6297,-3368.4399L13562.5793,-3368.3201L13562.6495,-3368.1934L13562.7701,-3368.1332L13562.8296,-3368.1198L13562.97,-3367.9932L13563.1104,-3367.9932L13563.1805,-3368.0134L13563.3301,-3368.1732L13563.5193,-3368.28L13563.5605,-3368.3865L13563.5406,-3368.4799L13563.4293,-3368.5532L13563.4003,-3368.8L13563.4705,-3368.9465L13563.4705,-3369.0399L13563.4003,-3369.1265L13563.3606,-3369.1799L13563.2904,-3369.3466L13563.3606,-3369.7399L13563.4003,-3369.7933L13563.6093,-3369.7933L13563.8306,-3369.7399L13563.9893,-3369.7399L13564.18,-3369.7598L13564.2395,-3369.7598"/>
<path content="AP030,1,28,1,0,14,1,8,JPN" xlink:title="AP030" d="M13592.7704,-3364.9666L13593.63,-3366.011L13594.06,-3366.642L13594.46,-3367.367L13594.91,-3368.149L13595.21,-3368.639L13595.48,-3368.932L13595.85,-3369.125L13596.58,-3369.349L13597.18,-3369.563L13597.65,-3369.735L13598.6801,-3369.6667"/>
<path content="AP030,1,28,1,0,15,1,8,JPN" xlink:title="AP030" d="M13591.5405,-3365.4533L13591.6306,-3365.3599L13591.8594,-3365.2866L13592.2699,-3365.2733L13592.45,-3365.3267L13592.6102,-3365.3599L13592.7002,-3365.3599L13592.7902,-3365.3267L13592.7704,-3364.9666"/>
<path content="AP030,1,28,1,0,15,1,8,JPN" xlink:title="AP030" d="M13549.5789,-3364.6713L13550.0061,-3364.9223L13550.3708,-3364.8689L13550.5936,-3364.856L13551.2924,-3366.5115"/>
<path content="AP030,1,28,1,0,14,1,8,JPN" xlink:title="AP030" d="M13593.3105,-3364.4398L13593.3807,-3364.5L13593.4296,-3364.6065L13593.4906,-3364.6797L13593.6493,-3364.7667L13593.8095,-3364.7667L13594.1299,-3364.7667L13594.2001,-3364.7865L13594.2703,-3364.8197L13594.4,-3364.8731L13594.5206,-3364.9864L13594.7693,-3365.0734L13595.1096,-3365.1066L13595.2698,-3365.1264L13595.3598,-3365.1466L13595.52,-3365.2733L13595.7703,-3365.5067L13595.9305,-3365.5598L13596.08,-3365.6132L13596.1807,-3365.5933L13596.3303,-3365.6666L13596.4294,-3365.76L13596.5607,-3365.7932L13596.6446,-3365.8081L13596.7896,-3365.8333L13596.8796,-3366.0133L13597.02,-3366.0267L13597.11,-3366.0999L13597.1802,-3366.1934L13597.2,-3366.2598L13597.2,-3366.6065L13597.1802,-3366.7332L13597.1298,-3366.7999L13597.1497,-3366.8732L13597.1298,-3366.9464L13597.0398,-3367.0532L13597.02,-3367.1467L13597.0398,-3367.4667L13597.11,-3367.5934L13597.29,-3367.9199L13597.5601,-3368.1732L13597.9294,-3368.3533L13597.9294,-3368.5867L13597.9446,-3368.6199L13598.0194,-3368.8L13598.2895,-3369.0533L13598.4497,-3369.22L13598.5199,-3369.2333L13598.6496,-3369.36L13598.6496,-3369.5065L13598.6801,-3369.6667"/>
<path content="AP030,1,28,1,0,15,1,8,JPN" xlink:title="AP030" d="M13592.7704,-3364.9666L13592.7902,-3364.7465L13592.9504,-3364.64L13593.1107,-3364.5535L13593.2205,-3364.46L13593.3105,-3364.4398"/>
<path content="AP030,1,28,1,0,15,1,8,JPN" xlink:title="AP030" d="M13587.6221,-3366.2239L13587.3062,-3365.3011L13587.7655,-3364.6584L13588.8412,-3364.4344L13589.4058,-3364.9128L13590.0009,-3364.896L13590.7547,-3365.1131L13591.5405,-3365.4533"/>
<path content="AP030,1,28,1,0,14,1,8,JPN" xlink:title="AP030" d="M13566.6306,-3368.0134L13567.1097,-3367.5934L13567.2699,-3367.4534L13567.3294,-3367.2733L13567.3096,-3367.0933L13567.3996,-3366.9998L13567.4301,-3366.8598L13567.5797,-3366.6931L13567.7399,-3366.6199L13567.8299,-3366.4398L13568.0405,-3366.4066L13568.2907,-3366.2067L13568.4006,-3366.0465L13568.4906,-3365.8867L13568.5394,-3365.72L13568.5196,-3365.5933L13568.3304,-3365.3999L13568.2404,-3365.2733L13568.2007,-3365.1466L13568.1793,-3365.0398L13568.2693,-3364.8197L13568.3594,-3364.5332L13568.4494,-3364.3734L13568.4906,-3364.2799L13568.6996,-3364.0667L13568.7897,-3364.0133L13568.7897,-3363.9198L13568.7897,-3363.76L13568.8797,-3363.6532L13568.9499,-3363.5597L13569.0399,-3363.4335L13569.2001,-3363.4335L13569.2703,-3363.4335L13569.2703,-3363.0932L13569.2398,-3362.8597L13569.2703,-3362.4065L13569.22,-3362.3734L13569.0598,-3362.3531L13569.0399,-3362.2997L13569.0598,-3362.2265L13568.9301,-3362.0132L13568.8995,-3361.9198L13568.8797,-3361.8134L13568.8095,-3361.7397L13568.5593,-3361.7397L13568.4906,-3361.7931L13568.4296,-3361.8668L13568.3594,-3361.8668L13568.2693,-3361.7599L13568.2693,-3361.5067L13568.2693,-3361.0001L13568.3594,-3360.8398L13568.3594,-3360.68L13568.3807,-3360.5534L13568.5196,-3360.4797L13568.5806,-3360.4065L13568.5806,-3360.3001L13568.6493,-3360.2066L13568.7698,-3360.1532"/>
<path content="AP030,1,28,1,0,15,1,8,JPN" xlink:title="AP030" d="M13562.6984,-3358.2901L13563.0264,-3358.5049L13563.4201,-3358.5587L13563.8794,-3358.5049L13564.3387,-3358.4515L13564.5355,-3358.4515L13564.7324,-3358.7196L13565.2588,-3359.2033L13565.5212,-3359.5257L13565.5212,-3359.9552L13565.4556,-3360.2776L13565.5212,-3360.3313L13565.7837,-3360.3848L13565.9805,-3360.3848L13566.243,-3360.3313L13566.571,-3360.4385L13567.1616,-3360.3848L13567.8177,-3360.2238L13568.7698,-3360.1532"/>
<path content="AP030,1,28,1,0,15,1,8,JPN" xlink:title="AP030" d="M13549.5789,-3364.6713L13549.8993,-3364.4302L13549.8734,-3363.9648L13549.8093,-3363.6604L13550.2396,-3363.4476L13550.737,-3363.4697L13551.6083,-3363.2996L13551.8478,-3363.0318L13552.1988,-3361.8637L13552.6993,-3361.4216L13553.6041,-3361.137L13554.6417,-3360.5328L13555.1224,-3359.9277L13555.7953,-3359.3769L13556.8329,-3359.6317L13557.431,-3359.8206L13558.3801,-3359.7462L13559.4788,-3359.9102L13559.9411,-3359.6058L13560.3897,-3359.0916L13561.1588,-3358.7536L13562.6984,-3358.2901"/>
<path content="AP030,1,28,1,0,14,1,8,JPN" xlink:title="AP030" d="M13591.1804,-3357.1667L13591.4902,-3357.3799L13591.6306,-3357.5397L13591.6306,-3357.6866L13591.7007,-3357.7732L13591.7694,-3357.8667L13591.8594,-3357.9933L13591.9006,-3358.1532L13591.9006,-3358.1932L13591.8304,-3358.3332L13591.8106,-3358.4801L13591.8304,-3358.5533L13591.8793,-3358.68L13591.9006,-3358.8398L13591.9296,-3358.9134L13591.9495,-3358.9466L13591.9495,-3358.9867L13592.1799,-3358.9664L13592.5598,-3358.9466L13592.5934,-3358.9294L13592.7002,-3358.8734L13592.8802,-3358.9134L13593.0206,-3358.9664L13593.1107,-3359.0534L13593.2007,-3359.0935L13593.2693,-3359.0935L13593.2404,-3359.2533L13593.1107,-3359.3597L13592.9504,-3359.4131L13592.9001,-3359.4666L13592.8604,-3359.5932L13592.7475,-3359.6291L13592.63,-3359.6664L13592.5797,-3359.7065L13592.4896,-3359.9197L13592.2195,-3360.4267L13592.1799,-3360.5L13592.1799,-3360.7468L13592.2699,-3360.9867L13592.2699,-3361.1267L13592.3798,-3361.2534L13592.3996,-3361.3068L13592.4301,-3361.3598L13592.5797,-3361.4864L13592.6102,-3361.5601L13592.6102,-3361.6665L13592.6498,-3361.7065L13592.6804,-3361.8332L13592.7399,-3361.9732L13592.7902,-3362.0132L13592.7704,-3362.1201L13592.7902,-3362.1933L13592.8802,-3362.2265L13593.2693,-3362.2601L13593.4296,-3362.2799L13593.6798,-3362.2799L13593.7393,-3362.2799L13593.7698,-3362.4065L13593.7698,-3362.5332L13593.7195,-3362.6598L13593.5593,-3362.9665L13593.4906,-3363.0398L13593.4006,-3363.1466L13593.2205,-3363.3266L13593.0801,-3363.5597L13593.0206,-3363.94L13593.2007,-3364.0667L13593.2205,-3364.0667L13593.2693,-3364.1335L13593.3105,-3364.2799L13593.3105,-3364.4398"/>
<path content="AP030,1,28,1,0,15,1,8,JPN" xlink:title="AP030" d="M13585.7147,-3367.5499L13585.7407,-3367.0963L13584.9976,-3366.3002L13585.1227,-3365.8714L13584.9442,-3365.5334L13584.8984,-3365.0558L13584.9915,-3364.7495L13584.6924,-3364.365L13584.4879,-3363.2404L13584.523,-3362.6629L13585.3241,-3362.0762L13585.7162,-3361.7203L13585.5972,-3361.2194L13585.5942,-3360.4336L13585.9909,-3360.4088L13586.6425,-3360.2707L13586.7172,-3359.8396L13587.3215,-3359.6375L13587.2208,-3359.2609L13587.5305,-3359.026L13588.4613,-3359.1679L13590.2634,-3358.3534L13591.0385,-3358.1787L13591.2415,-3357.6908L13591.1804,-3357.1667"/>
<path content="AP030,1,28,1,0,15,1,8,JPN" xlink:title="AP030" d="M13545.1797,-3356.7867L13545.7397,-3357.4673L13545.813,-3358.0738L13545.4285,-3358.4278L13545.2515,-3358.4751L13544.7525,-3358.6063L13544.6487,-3358.9268L13545.2682,-3359.6275L13546.2234,-3359.8793L13547.316,-3360.5782L13547.821,-3360.4847L13548.0118,-3360.5396L13547.8348,-3361.1351L13547.3343,-3361.6001L13547.4854,-3362.2566L13547.3328,-3362.4821L13546.6644,-3362.5217L13546.3486,-3363.1107L13546.6537,-3363.5422L13547.5464,-3363.9072L13547.9767,-3363.6944L13548.4283,-3363.9931L13548.7732,-3364.6816L13549.5789,-3364.6713"/>
<path content="AP030,1,28,1,0,14,1,8,JPN" xlink:title="AP030" d="M13540.2206,-3365.4667L13540.2405,-3365.3797L13540.3107,-3365.1798L13540.3107,-3365.0532L13540.2206,-3364.8598L13540.1306,-3364.6065L13540.1093,-3364.5535L13540.1306,-3364.4398L13540.2206,-3364.1933L13540.3107,-3363.9732L13540.3305,-3363.9198L13540.4007,-3363.7066L13540.4007,-3363.6333L13540.3595,-3363.5597L13540.1794,-3363.541L13540.0406,-3363.5265L13539.9307,-3363.3801L13539.9002,-3363.3266L13539.9307,-3363.1466L13539.9506,-3363.0398L13539.9002,-3362.9665L13539.7705,-3362.9131L13539.74,-3362.8597L13539.7705,-3362.8201L13539.7705,-3362.5534L13539.74,-3362.4065L13539.7003,-3362.3531L13539.65,-3362.2997L13539.5203,-3362.3531L13539.4501,-3362.2997L13539.4501,-3362.2265L13539.3097,-3362.0998L13539.27,-3362.0132L13539.2395,-3361.94L13539.2899,-3361.8668L13539.3295,-3361.8668L13539.5401,-3361.8668L13539.5798,-3361.8668L13539.74,-3361.7397L13539.7705,-3361.6665L13539.7705,-3361.4864L13539.7003,-3361.38L13539.6103,-3361.3464L13539.5401,-3361.3266L13539.4501,-3361.2534L13539.3295,-3361.2198L13539.27,-3361.1797L13539.2395,-3361.0931L13539.27,-3361.0397L13539.3799,-3360.9467L13539.3997,-3360.8601L13539.2899,-3360.6598L13539.0594,-3360.64L13538.9694,-3360.5865L13538.9694,-3360.4401L13539.0198,-3360.3333L13539.1495,-3360.3001L13539.1998,-3360.2798L13539.3799,-3360.1933L13539.4501,-3360.1532L13539.5599,-3360.1334L13539.6103,-3360.12L13539.6805,-3360.0468L13539.7202,-3360.0132L13539.7705,-3360.0266L13539.9002,-3360.08L13539.9902,-3360.0666L13540.0192,-3360.0132L13540.0406,-3359.94L13540.1306,-3359.8999L13540.1993,-3359.8866L13540.4694,-3359.8866L13540.5197,-3359.8331L13540.5396,-3359.7401L13540.6494,-3359.4532L13540.6296,-3359.2731L13540.8096,-3359.1465L13540.8295,-3359.0935L13540.7394,-3359L13540.7196,-3358.8932L13540.77,-3358.8734L13540.95,-3358.8398L13541.1102,-3358.7868L13541.3101,-3358.68L13541.3605,-3358.6399L13541.4307,-3358.6399L13541.6107,-3358.7666L13541.6794,-3358.7666L13541.7206,-3358.6597L13541.6794,-3358.5865L13541.6504,-3358.5335L13541.6794,-3358.2466L13541.6794,-3358.1333L13541.7694,-3358.0467L13541.8304,-3358.0265L13541.9907,-3358.0997L13542.0807,-3358.0666L13542.3996,-3357.9399L13542.54,-3357.8667L13542.6102,-3357.8133L13542.6804,-3357.74L13542.7002,-3357.5798L13542.72,-3357.5066L13542.7704,-3357.4135L13542.7902,-3357.3067L13542.8299,-3357.18L13542.8802,-3357.1266L13543.0405,-3357.0534L13543.2007,-3356.9134L13543.3105,-3356.8733L13543.6295,-3356.8199L13543.8293,-3356.7867L13543.9499,-3356.7867L13544.1498,-3356.7665L13544.31,-3356.8001L13544.3802,-3356.8398L13544.4702,-3356.8733L13544.7006,-3356.9866L13544.9005,-3357.0934L13545.0195,-3357L13545.1797,-3356.7867"/>
<path content="AP030,1,28,1,0,15,1,8,JPN" xlink:title="AP030" d="M13559.8114,-3356.0879L13560.0082,-3356.0879L13560.2051,-3356.464L13560.4019,-3356.625L13560.4019,-3356.8398L13560.6644,-3357.0549L13561.1237,-3357.1087L13561.6486,-3357.1087L13561.8454,-3357.1087L13562.0422,-3357.2159L13562.0422,-3357.592L13562.0422,-3357.8068L13562.4359,-3357.9678L13562.6984,-3358.2901"/>
<path content="AP030,1,28,1,0,14,1,8,JPN" xlink:title="AP030" d="M13568.7698,-3360.1532L13568.8293,-3360.0132L13568.9301,-3359.9731L13569.1101,-3359.9731L13569.2398,-3359.8999L13569.3604,-3359.8465L13569.4901,-3359.7935L13569.7006,-3359.6535L13569.7693,-3359.5798L13569.7693,-3359.5264L13569.7205,-3359.4532L13569.7693,-3359.3266L13569.7906,-3359.2335L13569.8593,-3359.1801L13569.8807,-3359.0534L13569.8303,-3359L13569.7693,-3358.9466L13569.6304,-3358.9466L13569.5602,-3358.8734L13569.5404,-3358.7868L13569.4901,-3358.7334L13569.3604,-3358.7132L13569.2703,-3358.68L13569.2398,-3358.6201L13569.1101,-3358.6201L13569.0201,-3358.5133L13568.9697,-3358.44L13568.9697,-3358.3534L13568.9697,-3358.2066L13568.9301,-3358.12L13568.8797,-3357.9533L13568.8293,-3357.8999L13568.8293,-3357.7599L13568.7897,-3357.6534L13568.5806,-3357.4665L13568.4906,-3357.3997L13568.4006,-3357.3799L13568.1793,-3357.4135L13568.0206,-3357.4665L13567.9703,-3357.4867L13567.9001,-3357.4665L13567.8604,-3357.4333L13567.72,-3357.2865L13567.7704,-3356.9134L13567.8604,-3356.8199L13568.0801,-3356.8398L13568.2007,-3356.8398L13568.3105,-3356.7467L13568.5196,-3356.7467L13568.6798,-3356.62L13568.6798,-3356.44L13568.6493,-3356.2798L13568.6996,-3356.2466L13568.7393,-3356.1733L13568.8599,-3356.0467L13568.8797,-3355.9532L13568.8995,-3355.7598L13568.9301,-3355.7068"/>
<path content="AP030,1,28,1,0,15,1,8,JPN" xlink:title="AP030" d="M13549.4705,-3354.3865L13549.6994,-3354.5353L13550.6897,-3355.175L13551.149,-3355.175L13551.5427,-3354.9599L13552.0676,-3354.9065L13552.5269,-3354.5841L13552.9861,-3354.6375L13553.4454,-3354.9599L13553.9703,-3355.0674L13554.5609,-3355.0674L13554.8904,-3354.8527L13555.1529,-3354.8527L13555.4153,-3354.9599L13555.7434,-3355.0674L13556.4651,-3355.175L13556.8588,-3355.336L13557.1869,-3355.6583L13557.6462,-3355.7121L13557.9742,-3355.9269L13558.1711,-3356.2492L13558.4335,-3356.3026L13558.696,-3356.2492L13558.8928,-3356.0879L13559.1553,-3356.0879L13559.3521,-3356.1954L13559.4833,-3356.2492L13559.7458,-3356.2492L13559.8114,-3356.0879"/>
<path content="AP030,1,28,1,0,14,1,8,JPN" xlink:title="AP030" d="M13545.1797,-3356.7867L13545.3094,-3356.6933L13545.52,-3356.6067L13545.61,-3356.5533L13545.7703,-3356.4068L13545.8099,-3356.1199L13545.8298,-3355.9399L13545.8603,-3355.6133L13545.8603,-3355.4001L13545.9,-3355.2868L13545.9702,-3355.1666L13546.1105,-3355.0732L13546.2402,-3355.0198L13546.4005,-3354.9999L13546.5805,-3354.9866L13546.9299,-3355.0198L13546.9894,-3355.04L13547.3099,-3355.0934L13547.5204,-3355.1666L13547.6807,-3355.18L13547.8104,-3355.1266L13548.0194,-3355.0533L13548.1506,-3355.0533L13548.4497,-3355.0533L13548.5794,-3355.1266L13548.7396,-3355.1067L13548.8098,-3355.0198L13548.8998,-3354.9866L13549.0204,-3354.9465L13549.1104,-3354.9267L13549.2706,-3354.7665L13549.4003,-3354.5132L13549.4705,-3354.3865"/>
<path content="AP030,1,28,1,0,15,1,8,JPN" xlink:title="AP030" d="M13581.8604,-3367.6361L13581.6635,-3367.1528L13580.6137,-3366.9376L13579.3671,-3366.5081L13578.9078,-3366.0786L13578.4485,-3365.4877L13578.3173,-3364.9506L13578.2516,-3364.6282L13578.3173,-3364.5206L13578.5797,-3364.5744L13578.7766,-3364.5206L13578.7766,-3364.2521L13578.3829,-3364.0911L13577.858,-3363.9297L13577.7267,-3363.6612L13577.6611,-3363.2317L13577.7267,-3362.8555L13577.5955,-3362.5336L13577.5299,-3362.1574L13577.6611,-3361.9427L13578.0548,-3361.8889L13578.4485,-3361.6741L13578.5141,-3361.4056L13578.3829,-3361.1904L13577.5299,-3361.298L13577.0706,-3361.0294L13576.8082,-3360.7071L13576.9394,-3360.3848L13576.8082,-3360.1166L13576.0208,-3360.009L13575.8896,-3359.7404L13576.2177,-3359.1496L13576.3489,-3358.7734L13575.9552,-3358.3977L13576.2833,-3358.1291L13576.6113,-3357.9144L13576.7426,-3357.6992L13576.4145,-3357.6454L13576.0208,-3357.6454L13575.824,-3357.753L13575.6927,-3357.6992L13575.824,-3357.2697L13576.152,-3356.7326L13576.6769,-3356.6788L13577.005,-3356.625L13577.0706,-3356.2492L13576.9394,-3355.8193L13576.9394,-3355.3898L13577.1362,-3355.1212L13577.3987,-3355.2822L13577.7267,-3355.2822L13577.9892,-3354.8527L13577.9236,-3354.208L13577.858,-3353.6171"/>
<path content="AP030,1,28,1,0,14,1,8,JPN" xlink:title="AP030" d="M13568.9301,-3355.7068L13569.0201,-3355.6667L13569.2001,-3355.6667L13569.3802,-3355.6667L13569.5404,-3355.6332L13569.6304,-3355.5267L13569.6304,-3355.4665L13569.6304,-3355.3265L13569.6503,-3355.2734L13569.7006,-3355.1266L13569.8105,-3354.9999L13569.8593,-3354.9667L13569.9493,-3355.0198L13569.9905,-3355.1468L13570.1096,-3355.2532L13570.2698,-3355.2532L13570.4697,-3355.1266L13570.5795,-3355.0934L13570.7001,-3355.0934L13570.8801,-3355.0732L13570.9305,-3355.0533L13571.1304,-3354.9999L13571.4294,-3354.8401L13571.6095,-3354.6799L13571.6995,-3354.6066L13571.8307,-3354.5532L13571.9498,-3354.4598L13572.0795,-3354.2999L13572.1802,-3354.2999L13572.2397,-3354.3865L13572.4304,-3354.4598L13572.5601,-3354.5666L13572.6807,-3354.7466L13572.8302,-3354.8199L13573.0194,-3354.8401L13573.1094,-3354.8199L13573.2697,-3354.7134L13573.3994,-3354.5666L13573.3597,-3354.3865L13573.3093,-3354.3331L13573.1506,-3354.1733L13573.1293,-3354.1199L13573.1506,-3354.0466L13573.4497,-3353.8998L13573.6496,-3353.7399L13573.8998,-3353.4664L13574.1806,-3353.3066"/>
<path content="AP030,1,28,1,0,15,1,8,JPN" xlink:title="AP030" d="M13574.1806,-3353.3066L13574.9695,-3353.2948L13575.5615,-3353.2413L13575.9552,-3353.2413L13576.2833,-3353.4023L13576.6113,-3353.6171L13577.0706,-3353.6709L13577.4643,-3353.7247L13577.858,-3353.6171"/>
<path content="AP030,1,28,1,0,15,1,8,JPN" xlink:title="AP030" d="M13577.858,-3353.6171L13578.2516,-3353.3485L13578.4485,-3353.0266L13578.5797,-3352.919L13578.8422,-3352.919L13579.1702,-3353.08L13579.7607,-3353.1338L13580.22,-3353.1876L13580.6793,-3353.2948L13581.0074,-3353.1876L13581.4011,-3352.7042L13581.9946,-3352.1118L13582.4493,-3351.4534"/>
<path content="AP030,1,28,1,0,14,1,8,JPN" xlink:title="AP030" d="M13582.4493,-3351.4534L13582.7713,-3351.4839L13582.8796,-3351.4133L13582.9895,-3351.4L13583.3099,-3351.3466L13583.6105,-3351.2867L13583.6807,-3351.2867L13583.8303,-3351.3268L13583.9493,-3351.3466L13584.0805,-3351.3466L13584.1095,-3351.4L13584.0393,-3351.4668L13583.9905,-3351.6533L13583.9905,-3351.7597L13584.1095,-3351.8333L13584.2407,-3351.8467L13584.3597,-3351.8997L13584.7,-3352.1198L13584.7397,-3352.1198L13584.8801,-3352.0466L13585.0403,-3351.9398L13585.1303,-3351.9733L13585.1303,-3352.1332L13585.1807,-3352.1935L13585.3394,-3352.2293L13585.3928,-3352.2999L13585.4294,-3352.4067L13585.5606,-3352.5333L13585.6995,-3352.6932L13585.7697,-3352.7466L13585.8795,-3352.7866L13585.9695,-3352.84L13586.0794,-3352.8934L13586.1099,-3352.9133L13586.2701,-3353.0197L13586.3297,-3353.0399L13586.3739,-3353.0441L13586.47,-3353.0533L13586.6104,-3353.0933L13586.7706,-3353.1067L13586.8805,-3353.1467L13586.9293,-3353.1799L13586.9507,-3353.36L13586.9507,-3353.4332L13586.9293,-3353.7197L13586.8805,-3353.8864L13586.8805,-3353.8998L13586.8301,-3354.1733L13586.8805,-3354.2797L13587.1094,-3354.5132L13587.1506,-3354.5334L13587.3596,-3354.5666L13587.4496,-3354.5864L13587.5595,-3354.66L13587.5793,-3354.7134L13587.6099,-3354.8L13587.6099,-3354.8599L13587.8998,-3355.0533L13587.9379,-3355.1785L13587.9898,-3355.3467L13588.0203,-3355.36L13588.1805,-3355.3799L13588.3301,-3355.4665L13588.5239,-3355.4371L13588.6795,-3355.4134L13588.7695,-3355.4665L13588.9297,-3355.6534L13589.0793,-3355.8132L13589.27,-3355.92L13589.4501,-3356.0135L13589.6103,-3356.0799L13589.6805,-3356.1733L13589.7705,-3356.2267L13590.0192,-3356.3L13590.1932,-3356.2832L13590.3091,-3356.2801L13590.4343,-3356.2717L13590.4297,-3356.3534L13590.3931,-3356.414L13590.3107,-3356.5533L13590.3107,-3356.5666L13590.3595,-3356.6601L13590.6494,-3356.7467L13591.04,-3357.0534L13591.1804,-3357.1667"/>
<path content="AP030,1,28,1,0,15,1,8,JPN" xlink:title="AP030" d="M13559.8114,-3356.0879L13559.6741,-3355.0003L13559.7778,-3354.4281L13560.4538,-3353.8109L13560.8734,-3352.9995L13560.9344,-3352.5661L13560.5133,-3351.7883"/>
<path content="AP030,1,28,1,0,14,1,8,JPN" xlink:title="AP030" d="M13549.4705,-3354.3865L13549.4904,-3354.2999L13549.5193,-3354.1931L13549.6094,-3354.0798L13549.6796,-3354.0665L13549.7894,-3354.1L13549.8596,-3354.1199L13549.9496,-3354.0798L13550.0198,-3354.0264L13550.0595,-3353.8998L13550.1495,-3353.8666L13550.5203,-3353.6533L13550.8606,-3353.6133L13550.9293,-3353.5934L13551.0406,-3353.5267L13551.1795,-3353.4134L13551.3306,-3353.3066L13551.4893,-3353.1799L13551.5198,-3353.1467L13551.5198,-3353.0933L13551.5198,-3352.9865L13551.4893,-3352.8934L13551.4893,-3352.8599L13551.5198,-3352.84L13551.6098,-3352.84L13551.68,-3352.8599L13551.7197,-3352.8732L13551.9897,-3352.8732L13552.0599,-3352.8599L13552.2202,-3352.7866L13552.4002,-3352.6066L13552.4704,-3352.5333L13552.5192,-3352.4799L13552.6993,-3352.3533L13552.9007,-3352.2598L13553.0807,-3352.2064L13553.4302,-3352.2064L13553.7704,-3352.0664L13553.8803,-3352.0466L13553.9505,-3352.0134L13554.0604,-3352.1L13554.1306,-3352.1534L13554.1794,-3352.1332L13554.3793,-3352.1198L13554.4495,-3352.1L13554.5197,-3352.0267L13554.5593,-3351.9398L13554.6097,-3351.8665L13554.6799,-3351.8333L13554.8096,-3351.8333L13554.9301,-3351.8867L13555.0598,-3351.8665L13555.5801,-3351.6865L13555.7907,-3351.6533L13555.9296,-3351.5598L13555.9906,-3351.5064L13556.1295,-3351.5934L13556.3995,-3351.5934L13556.4301,-3351.6865L13556.4499,-3351.7597L13556.6299,-3351.8467L13556.8604,-3351.8997L13557.0084,-3351.8051L13557.1106,-3351.7399L13557.4295,-3351.6533L13557.4905,-3351.5266L13557.5195,-3351.4L13557.6385,-3351.263L13557.7896,-3351.1665L13557.8598,-3351.1665L13557.93,-3351.0399L13557.9697,-3350.9666L13558.3603,-3350.9865L13558.49,-3350.9464L13558.6807,-3350.8198L13558.7906,-3350.7668L13558.9294,-3350.7999L13559.0195,-3350.84L13559.0805,-3350.84L13559.2896,-3350.7332L13559.6298,-3350.7332L13559.7,-3350.7133L13559.79,-3350.6065L13560.0601,-3350.6065L13560.1105,-3350.7668L13560.3302,-3350.9464"/>
<path content="AP030,1,28,1,0,15,1,8,JPN" xlink:title="AP030" d="M13568.9301,-3355.7068L13568.3868,-3355.3364L13567.6498,-3354.7562L13567.3325,-3354.4613L13567.2119,-3353.6823L13566.9968,-3353.3638L13566.6199,-3353.2207L13566.1957,-3353.0056L13565.86,-3352.457L13565.3519,-3351.9989L13565.4037,-3351.6918L13565.6433,-3351.0693L13565.5594,-3350.28"/>
<path content="AP030,1,28,1,0,14,1,8,JPN" xlink:title="AP030" d="M13560.3302,-3350.9464L13560.5392,-3350.9865L13560.6293,-3350.9865L13560.8597,-3350.8198L13560.9497,-3350.8198L13561.0931,-3350.9037L13561.2,-3350.9666L13561.29,-3350.9132L13561.4899,-3350.8198L13561.5799,-3350.7668L13561.8805,-3350.7668L13561.9293,-3350.7332L13561.9522,-3350.6741L13561.9507,-3350.5333L13561.9507,-3350.4799L13562.0193,-3350.4265L13562.1506,-3350.3735L13562.3093,-3350.3735L13562.3596,-3350.4265L13562.3795,-3350.6065L13562.6099,-3350.7668L13562.6099,-3350.9865L13562.6099,-3351.0201L13562.6801,-3351.0399L13562.7701,-3350.9865L13562.8296,-3350.9132L13563.0798,-3350.9132L13563.15,-3350.8598L13563.4293,-3350.7866L13563.6307,-3350.6798L13563.6993,-3350.6599L13563.7405,-3350.5867L13563.8306,-3350.6065L13563.8794,-3350.6065L13563.9694,-3350.6065L13564.0198,-3350.4799L13564.1098,-3350.3735L13564.18,-3350.2998L13564.2395,-3350.2464L13564.3997,-3350.2266L13564.5935,-3350.2575L13564.8605,-3350.2998L13564.9506,-3350.2998L13565.2405,-3350.1934L13565.5594,-3350.28"/>
<path content="AP030,1,28,1,0,14,1,8,JPN" xlink:title="AP030" d="M13574.1806,-3353.3066L13574.3607,-3353.1799L13574.3607,-3353.1067L13574.4293,-3353.0399L13574.3805,-3352.66L13574.3103,-3352.5131L13574.2004,-3352.2999L13574.2004,-3352.1732L13574.2905,-3352.1332L13574.3301,-3352.1935L13574.4293,-3352.3335L13574.4705,-3352.3335L13574.4705,-3352.0798L13574.5193,-3351.8997L13574.5407,-3351.7933L13574.6307,-3351.7933L13574.7406,-3351.9531L13574.8093,-3351.9398L13574.8306,-3351.8131L13574.8306,-3351.5934L13574.8306,-3351.54L13574.8306,-3351.4866L13574.9298,-3351.3268L13574.9298,-3350.9666L13574.9298,-3350.8598L13574.9695,-3350.7332L13575.0595,-3350.6397L13574.9695,-3350.5531L13574.9496,-3350.4265L13574.9496,-3350.2998L13575.0595,-3350.2266L13575.1099,-3350.0999L13575.1099,-3349.9931L13575.0198,-3349.8333L13575.0595,-3349.7601L13575.1801,-3349.6532L13575.4303,-3349.4534L13575.6302,-3349.4534L13576.0193,-3349.3465L13576.1093,-3349.3065L13576.1444,-3349.1482L13576.1505,-3349.1264L13576.1505,-3348.9666L13576.2894,-3348.84L13576.3596,-3348.6599L13576.3794,-3348.5001L13576.2894,-3348.32"/>
<path content="AP030,1,28,1,0,14,1,8,JPN" xlink:title="AP030" d="M13565.5594,-3350.28L13565.6097,-3350.2998L13565.7394,-3350.2998L13565.8997,-3350.2266L13565.9698,-3350.1934L13566.0599,-3350.0999L13566.1301,-3350.0134L13566.1499,-3349.9001L13566.1804,-3349.7601L13566.2704,-3349.6864L13566.3605,-3349.6132L13566.4902,-3349.5602L13566.5604,-3349.4865L13566.6306,-3349.3999L13566.6473,-3349.3572L13566.6794,-3349.2733L13566.7694,-3349.2199L13566.8793,-3349.2001L13566.9907,-3349.1665L13567.1799,-3349.0932L13567.3294,-3349.0734L13567.5201,-3349.02L13567.5598,-3348.9864L13567.8802,-3349.02L13567.9901,-3348.9864L13568.1503,-3349.02L13568.3304,-3348.9666L13568.6096,-3348.9468L13568.6996,-3348.9468L13568.7897,-3348.9132L13568.8797,-3348.8934L13569.0201,-3348.84L13569.22,-3348.8602L13569.31,-3348.8934L13569.4305,-3348.8602L13569.5206,-3348.9132L13569.5206,-3348.9864L13569.7693,-3349.1264L13569.8105,-3349.3267L13569.9295,-3349.3999L13570.0607,-3349.3999L13570.1797,-3349.2733L13570.2393,-3349.2001L13570.2896,-3349.0398L13570.2896,-3348.9666L13570.5795,-3348.8201L13570.9702,-3348.84L13571.0602,-3348.7667L13571.0602,-3348.6599L13571.0205,-3348.5867L13571.0602,-3348.5535L13571.1807,-3348.5535L13571.3593,-3348.5867L13571.5195,-3348.5535L13571.8094,-3348.6198L13571.8597,-3348.6401L13572.0596,-3348.6401L13572.3297,-3348.7667L13572.5204,-3348.7667L13572.7005,-3348.7331L13573.1995,-3348.5332L13573.2895,-3348.5001L13573.3994,-3348.5332L13573.4894,-3348.5664L13573.5199,-3348.5867L13573.6801,-3348.5867L13573.9502,-3348.3868L13574.2706,-3348.2601L13574.4003,-3348.1533L13574.4705,-3348.1533L13574.5407,-3348.28L13574.7192,-3348.28L13574.8306,-3348.2468L13574.9298,-3348.2468L13575.1297,-3348.1934L13575.2396,-3348.2265L13575.2899,-3348.28L13575.4303,-3348.32L13575.56,-3348.4066L13575.7004,-3348.4066L13575.9903,-3348.46L13576.1093,-3348.4066L13576.1993,-3348.3334L13576.2894,-3348.32"/>
<path content="AP030,1,28,1,0,14,1,8,JPN" xlink:title="AP030" d="M13582.4493,-3351.4534L13582.3303,-3351.4668L13582.1106,-3351.3065L13582.0602,-3351.2733L13581.9305,-3351.1665L13581.81,-3351.0933L13581.72,-3350.9132L13581.7001,-3350.7332L13581.6101,-3350.6397L13581.4697,-3350.5531L13581.3293,-3350.4997L13581.1096,-3350.3201L13581.0394,-3350.2998L13580.9906,-3350.2998L13580.7693,-3350.3735L13580.6305,-3350.3735L13580.4306,-3350.2464L13580.191,-3350.0801L13580.101,-3350.0572L13580.04,-3350.0465L13579.95,-3350.0465L13579.7897,-3349.9931L13579.5807,-3349.6864L13579.5395,-3349.5068L13579.4495,-3349.3267L13579.4006,-3349.2199L13579.3793,-3348.9468L13579.3793,-3348.8934L13579.3304,-3348.8201L13579.2694,-3348.6801L13579.0207,-3348.5332L13578.7399,-3348.1934L13578.45,-3347.7932L13578.1097,-3347.3064L13578.0594,-3347.2L13578.0594,-3347.1802L13578.0396,-3347.1268L13578.0197,-3346.4802L13577.9755,-3346.4546"/>
<path content="AP030,1,28,1,0,14,1,8,JPN" xlink:title="AP030" d="M13577.7176,-3346.4058L13577.9495,-3346.4401L13577.9755,-3346.4546"/>
<path content="AP030,1,28,1,0,14,1,8,JPN" xlink:title="AP030" d="M13576.2894,-3348.32L13576.4297,-3348.28L13576.6296,-3348.2265L13576.86,-3348.1731L13576.8997,-3348.1533L13576.9501,-3348.0999L13576.9699,-3348.0133L13577.0798,-3347.9401L13577.2705,-3347.9198L13577.4506,-3347.8664L13577.5192,-3347.7932L13577.5406,-3347.6532L13577.5604,-3347.4865L13577.5406,-3347.4865L13577.4506,-3347.3801L13577.3605,-3347.3064L13577.3804,-3347.2332L13577.4307,-3347.1664L13577.4704,-3347.0734L13577.5192,-3346.9131L13577.5192,-3346.7999L13577.5406,-3346.7133L13577.5803,-3346.6202L13577.7176,-3346.4058"/>
<path content="AP030,1,28,1,0,15,1,8,JPN" xlink:title="AP030" d="M13578.7251,-3345.4405L13578.89,-3345.554L13579.2,-3345.786L13579.47,-3345.969L13579.68,-3346.121L13579.91,-3346.268L13580.06,-3346.35L13580.26,-3346.466L13580.53,-3346.568L13580.77,-3346.663L13581.03,-3346.751L13581.32,-3346.804L13581.69,-3346.821L13582.17,-3346.861L13583.53,-3346.833L13583.98,-3346.675L13584.36,-3346.576L13584.79,-3346.579L13585.09,-3346.593L13585.7,-3346.852"/>
<path content="AP030,1,28,1,0,15,1,8,JPN" xlink:title="AP030" d="M13578.7251,-3345.4405L13578.4729,-3345.7035L13578.1464,-3345.8897L13578.009,-3346.3409L13577.9755,-3346.4546"/>
<path content="AP030,1,28,1,0,15,1,8,JPN" xlink:title="AP030" d="M13577.7176,-3346.4058L13577.7191,-3345.929L13577.5345,-3345.7211L13575.6119,-3344.9757L13575.3662,-3344.8151L13575.4501,-3344.7323L13575.6668,-3344.4778L13575.7202,-3344.1658L13575.7416,-3343.8168L13575.9018,-3343.6951L13576.2085,-3343.708L13576.5472,-3344.3008L13576.7715,-3344.6674L13577.1423,-3344.7475L13578.0045,-3344.5839L13578.5553,-3344.6144L13579.0466,-3344.8063L13579.097,-3344.9657L13578.8284,-3345.3327L13578.7251,-3345.4405"/>
<path content="AP030,1,28,1,0,15,1,8,JPN" xlink:title="AP030" d="M13979.0009,-3310.1151L13979.3304,-3310.3851L13980.2765,-3311.002"/>
<path content="AP030,1,28,1,0,15,1,8,JPN" xlink:title="AP030" d="M13979.0009,-3310.1151L13978.3875,-3310.4237L13977.681,-3310.6934L13975.6561,-3311.5417L13975.1373,-3311.8504L13975.1373,-3312.2356L13974.7604,-3312.6598L13974.5728,-3313.0455L13974.5255,-3313.1611L13974.6674,-3313.7009L13974.6201,-3314.2792L13974.8077,-3314.7804L13975.3265,-3315.2046L13976.1749,-3315.2431L13977.211,-3315.1657L13977.681,-3314.9345L13978.2944,-3314.4333L13979.3304,-3313.7009L13979.7546,-3313.3537L13980.0842,-3312.9684L13980.6961,-3312.5057L13980.7907,-3312.043L13980.2765,-3311.002"/>
<path content="AP030,1,28,1,0,15,1,8,JPN" xlink:title="AP030" d="M13979.0009,-3310.1151L13978.7186,-3309.4597L13978.8116,-3308.4572L13979.0482,-3307.6477L13979.425,-3307.3391L13980.1788,-3307.0309L13980.8853,-3306.4526L13981.4499,-3306.1054L13982.3914,-3306.144L13982.9102,-3306.6067L13983.2397,-3307.2235L13983.522,-3307.5321L13983.8989,-3307.8789L13984.6054,-3307.8789L13985.0296,-3308.1875L13985.1242,-3308.5342L13984.9823,-3309.19L13984.7473,-3309.9609L13984.2758,-3310.6548L13983.7585,-3310.9634L13983.1451,-3311.002L13982.486,-3311.2331L13981.9214,-3311.2717L13981.2149,-3311.079L13980.2765,-3311.002"/>
<path content="AP030,1,28,1,0,15,1,8,JPN" xlink:title="AP030" d="M14219.4717,-2709.775L14219.7342,-2710.0266L14219.8303,-2710.1633L14220.1385,-2710.1606L14220.4193,-2710.0101"/>
<path content="AP030,1,28,1,0,15,1,8,JPN" xlink:title="AP030" d="M14220.4193,-2710.0101L14220.43,-2709.8831L14220.4391,-2709.6609L14220.5078,-2709.4486L14220.5292,-2709.2052L14220.4453,-2709.0366L14220.4788,-2708.9094L14220.6772,-2708.7067L14220.8771,-2708.4934L14220.9229,-2708.3874L14220.752,-2707.9021L14220.5566,-2707.3854L14220.401,-2707.1857L14220.1401,-2707.1033"/>
<path content="AP030,1,28,1,0,15,1,8,JPN" xlink:title="AP030" d="M14219.0414,-2707.0282L14219.0765,-2707.0278L14219.1467,-2707.0061L14219.3588,-2706.9408L14219.5831,-2706.9601L14220.1401,-2707.1033"/>
<path content="AP030,1,28,1,0,15,1,8,JPN" xlink:title="AP030" d="M14220.1401,-2707.1033L14220.488,-2706.5853"/>
<path content="AP030,1,28,1,0,15,1,8,JPN" xlink:title="AP030" d="M14220.4193,-2710.0101L14220.5963,-2709.8923L14220.8679,-2709.8476L14220.9488,-2709.794L14221.0434,-2709.6874L14221.1487,-2709.5913L14221.2296,-2709.5165L14221.4066,-2709.4515L14221.5012,-2709.3872L14221.5591,-2709.3126L14221.5698,-2709.1751L14221.5912,-2708.9846L14221.6843,-2708.8461L14221.8597,-2708.7389L14221.9177,-2708.6536L14221.9284,-2708.4949L14221.8674,-2708.3473L14221.8414,-2708.1678L14221.9116,-2708.0614L14222.0764,-2708.0177L14222.1222,-2707.9008L14222.0856,-2707.7953L14222.0261,-2707.6796L14221.9528,-2707.5005L14221.9284,-2707.3631L14221.9376,-2707.1938L14221.9589,-2707.0244L14221.875,-2706.8241L14221.7911,-2706.6662L14221.8719,-2706.5596L14221.8948,-2706.443L14221.8109,-2706.3803L14221.5683,-2706.3976L14220.488,-2706.5853"/>
<path content="AP030,1,28,1,0,15,1,8,JPN" xlink:title="AP030" d="M14220.488,-2706.5853L14220.3445,-2706.3189L14220.1889,-2706.1298L14220.1752,-2705.9183L14220.1736,-2705.7808L14220.1965,-2705.6431L14220.1706,-2705.5164L14220.0287,-2705.4224L14219.838,-2705.3394L14219.7083,-2705.2876L14219.5663,-2705.257L14219.4,-2705.2691"/>
<path content="AP030,1,28,1,0,15,1,8,JPN" xlink:title="AP030" d="M14214.1495,-2669.7678L14214.27,-2669.4044L14214.2349,-2669.0981L14214.2639,-2668.8192L14214.4455,-2668.3439L14214.7827,-2668.0067L14215.4282,-2667.3605L14215.4572,-2667.2209L14215.3931,-2666.9985L14215.3,-2666.9712L14215.329,-2666.748L14215.358,-2666.5249L14215.3229,-2666.2186L14215.1657,-2665.9969L14215.1031,-2665.9138L14215.1016,-2665.8024L14215.1321,-2665.7185L14215.2557,-2665.7175L14215.4434,-2665.7717L14215.5655,-2665.687L14215.596,-2665.5195L14215.593,-2665.2966L14215.5914,-2665.1573L14215.6525,-2665.0454L14215.8066,-2664.8769L14215.8661,-2664.7369L14215.8646,-2664.5977L14215.8325,-2664.3749L14215.8295,-2664.18L14215.921,-2664.012L14216.1682,-2663.8706L14216.5695,-2663.728L14217.0029,-2663.5571L14217.4026,-2663.3308L14217.7383,-2662.8263L14218.045,-2662.4893L14218.1366,-2662.2936L14218.1351,-2662.0985"/>
<path content="AP030,1,28,1,0,15,1,8,JPN" xlink:title="AP030" d="M14129.6921,-2476.7174L14129.9683,-2476.7839L14130.1453,-2476.9426L14130.4001,-2477.3062L14130.8075,-2477.7828L14131.0608,-2477.9865L14131.636,-2477.9598L14131.9855,-2477.8204L14132.309,-2477.704L14132.7362,-2477.8608L14132.8888,-2478.0197L14133.0429,-2478.2927L14132.9742,-2478.7952L14132.9575,-2479.3205L14132.7621,-2479.7329L14132.3914,-2480.055L14131.8192,-2480.1037L14131.34,-2480.0621L14130.7648,-2480.0434L14130.336,-2479.7953L14129.9042,-2479.3642L14129.5898,-2478.339L14129.4312,-2477.8151L14129.3228,-2477.2223L14129.2923,-2476.8343L14129.6921,-2476.7174"/>
<path content="AP030,1,28,1,1,16,1,8,JPN" xlink:title="AP030" d="M13537.6099,-3374.5335L13538.9291,-3374.9988L13540.1605,-3374.4907L13540.7078,-3374.1193L13540.8251,-3373.5296L13541.0596,-3372.9661L13541.47,-3371.4025L13541.2355,-3370.2298L13541.4505,-3369.7411L13541.431,-3369.0766L13540.5319,-3368.1775L13540.2778,-3367.2589L13540.1605,-3366.6334L13540.2973,-3365.5975L13540.9423,-3364.8548L13540.9228,-3363.8189L13542.0955,-3361.9621L13542.9359,-3360.4962L13543.835,-3359.1085L13544.7525,-3358.6063L13545.5941,-3357.8185L13545.7701,-3357.7184L13547.8027,-3357.2908L13550.5391,-3356.0789L13551.2427,-3355.3362L13552.7086,-3354.3199L13553.8813,-3353.499L13554.8391,-3353.0299L13557.3409,-3352.209L13557.9663,-3352.0331L13559.354,-3352.0917L13560.5133,-3351.7883"/>
<path content="AP030,1,28,1,1,14,1,8,JPN" xlink:title="AP030" d="M13592.7704,-3364.9666L13591.9501,-3363.1044L13591.5228,-3362.0837L13591.4042,-3361.2529L13591.3567,-3359.9949L13591.3864,-3358.8853"/>
<path content="AP030,1,28,1,0,15,1,8,JPN" xlink:title="AP030" d="M13560.5133,-3351.7883L13560.3775,-3351.1665L13560.3302,-3350.9464"/>
</g>
</svg>
