<?xml version="1.0" encoding="UTF-8"?>
<svg  xmlns="http://www.w3.org/2000/svg" xmlns:xlink="http://www.w3.org/1999/xlink" xmlns:go="http://purl.org/svgmap/profile" property="f_code,acc,exs,rst,med,rtt,RSU,loc,soc" viewBox="12937.5 -3515.625 140.625 140.625" go:dataArea="12937.5 -3515.625 140.625 140.625" >
<metadata>
 <rdf:RDF xmlns:rdf="http://www.w3.org/1999/02/22-rdf-syntax-ns#" xmlns:crs="http://opengis.org/xmldtds/transformations.dtd" xmlns:svg="http://www.w3.org/svg" >
  <rdf:Description>
   <crs:CoordinateReferenceSystem rdf:resource="http://purl.org/crs/84" svg:transform="matrix(100.0,0.0,0.0,-100.0,0.0,0.0)" />
  </rdf:Description>
 </rdf:RDF>
</metadata>
<globalCoordinateSystem srsName="http://purl.org/crs/84" transform="matrix(100.0,0.0,0.0,-100.0,0.0,0.0)" />
<defs>
 <g id="p0" >
  <circle cx="0.0" cy="0.0" r="3" stroke="green" stroke-width="2.0" vector-effect="non-scaling-stroke" />
 </g>
</defs>
<g fill="none" fill-rule="evenodd" stroke="#00ff00" stroke-width="2" opacity="0.5" vector-effect="non-scaling-stroke" stroke-linejoin="bevel" >
<path content="AP030,1,28,1,0,14,1,8,JPN" xlink:title="AP030" d="M12945.4895,-3465.5933L12945.5399,-3465.3465L12945.8099,-3465.3465L12946.08,-3465.3465L12946.2402,-3465.3599L12946.3104,-3465.4133L12946.3593,-3465.4533L12946.5393,-3465.5399L12946.6797,-3465.5399L12946.7407,-3465.5933L12946.7896,-3465.6334L12946.8597,-3465.7398L12946.9498,-3465.8867L12946.9894,-3465.9397L12947.0596,-3465.9534"/>
<path content="AP030,1,28,1,0,14,1,8,JPN" xlink:title="AP030" d="M12939.6469,-3463.8325L12939.65,-3463.8332L12939.9506,-3464.1533L12940.0406,-3464.2799L12940.0406,-3464.2998L12939.9902,-3464.6797L12940.1993,-3464.8933L12940.3793,-3464.9666L12940.5396,-3464.9864L12940.6097,-3465.0734L12940.77,-3465.3465L12940.8798,-3465.4865L12941.1804,-3465.6864L12941.3101,-3465.72L12941.4505,-3465.7398L12941.4902,-3465.8134L12941.5207,-3465.9733L12941.5604,-3466.1732L12941.7694,-3466.5333L12941.9296,-3466.6798L12942.2394,-3466.8598L12942.3599,-3466.9865L12942.5201,-3467.1467L12942.6102,-3467.2199L12942.7704,-3467.2531L12943.0405,-3467.2733L12943.1107,-3467.2531L12943.1793,-3467.1799L12943.2007,-3467.0933L12943.2404,-3466.9865L12943.4296,-3466.9266L12943.4494,-3466.9266L12943.5806,-3466.84L12943.7698,-3466.7133L12943.8095,-3466.6065L12943.8995,-3466.32L12943.9499,-3466.2464L12944.2398,-3466.1533L12944.8105,-3466.0133L12945.1294,-3465.8867L12945.3094,-3465.8333L12945.4498,-3465.7398L12945.4895,-3465.5933"/>
<path content="AP030,1,28,1,0,15,1,8,JPN" xlink:title="AP030" d="M12945.4895,-3465.5933L12944.9203,-3465.0612L12945.1492,-3463.9969L12944.4031,-3463.0692L12943.367,-3462.5088L12943.0527,-3461.9186L12943.1641,-3461.4029"/>
<path content="AP030,1,28,1,0,15,1,8,JPN" xlink:title="AP030" d="M12939.6469,-3463.8325L12940.8813,-3463.3121L12941.2827,-3462.579L12941.3559,-3462.0598L12943.1641,-3461.4029"/>
<path content="AP030,1,28,1,0,14,1,8,JPN" xlink:title="AP030" d="M12939.6469,-3463.8325L12939.3997,-3463.7733L12939.2899,-3463.7932L12939.18,-3463.8466L12939.1296,-3463.8466L12938.9496,-3463.6868L12938.9297,-3463.5799L12939.0396,-3463.5067L12939.0198,-3463.4666L12938.9496,-3463.4132L12938.8107,-3463.4132L12938.7695,-3463.3598L12938.7894,-3463.2732L12938.7695,-3463.2332L12938.6993,-3463.2L12938.3102,-3463.0733L12938.06,-3463.0932L12937.8799,-3462.9997L12937.6495,-3462.8399L12937.5793,-3462.7335L12937.5595,-3462.6934L12937.5793,-3462.5332L12937.5595,-3462.4397L12937.5,-3462.398"/>
<path content="AP030,1,28,1,0,15,1,8,JPN" xlink:title="AP030" d="M12937.5,-3453.2366L12938.0646,-3453.2417L12938.4506,-3453.0487L12939.592,-3453.1258L12939.7568,-3453.3722L12941.0538,-3452.6409L12941.7389,-3451.7193"/>
<path content="AP030,1,28,1,0,15,1,8,JPN" xlink:title="AP030" d="M12943.1641,-3461.4029L12943.1168,-3461.1267L12943.2083,-3459.9586L12943.0847,-3459.42L12942.9245,-3458.5815L12942.7292,-3458.2668L12943.541,-3457.5874L12944.4199,-3456.7173L12945.1141,-3456.0265L12945.1309,-3455.3368L12944.8883,-3455.0831L12945.2911,-3454.7596L12945.0333,-3454.0436L12944.6274,-3453.2478L12943.8629,-3452.7462L12943.1976,-3451.5305"/>
<path content="AP030,1,28,1,0,15,1,8,JPN" xlink:title="AP030" d="M12941.7389,-3451.7193L12942.1341,-3452.0206L12943.1976,-3451.5305"/>
<path content="AP030,1,28,1,0,15,1,8,JPN" xlink:title="AP030" d="M12943.1976,-3451.5305L12941.8793,-3450.153"/>
<path content="AP030,1,28,1,0,15,1,8,JPN" xlink:title="AP030" d="M12940.3732,-3448.9876L12939.6454,-3448.2262"/>
<path content="AP030,1,28,1,0,15,1,8,JPN" xlink:title="AP030" d="M12941.7389,-3451.7193L12940.9912,-3451.384L12939.9536,-3451.1196L12939.6729,-3450.8621L12939.3784,-3450.4059L12938.9908,-3448.9204L12939.6454,-3448.2262"/>
<path content="AP030,1,28,1,0,15,1,8,JPN" xlink:title="AP030" d="M12939.6454,-3448.2262L12938.6566,-3447.9008L12938.2309,-3447.8268L12937.9272,-3446.8758L12937.5,-3446.4581"/>
<path content="AP030,1,28,1,0,14,1,8,JPN" xlink:title="AP030" d="M13072.894,-3392.6709L13073.1293,-3392.6598L13073.4283,-3392.5529"/>
<path content="AP030,1,28,1,0,14,1,8,JPN" xlink:title="AP030" d="M13068.808,-3391.9727L13068.8095,-3391.9731L13068.8599,-3392.0132L13068.8095,-3392.2066L13068.9301,-3392.4999L13068.7897,-3392.6933L13068.8095,-3392.8734L13068.7897,-3392.9867L13068.8095,-3393.1267L13068.8095,-3393.3067L13068.9697,-3393.4132L13069.1498,-3393.4334L13070.0195,-3393.3998L13070.2698,-3393.5265L13070.7397,-3393.2533L13071.0403,-3393.1465L13071.2692,-3393L13071.4493,-3392.9867L13071.6797,-3392.8932L13072.02,-3392.9867L13072.2397,-3392.9466L13072.4304,-3393.0401L13072.5204,-3392.8932L13072.7005,-3392.68L13072.894,-3392.6709"/>
<path content="AP030,1,28,1,0,14,1,8,JPN" xlink:title="AP030" d="M13071.87,-3391.694L13072.14,-3392.086L13072.42,-3392.36L13072.894,-3392.6709"/>
<path content="AP030,1,28,1,0,14,1,8,JPN" xlink:title="AP030" d="M13073.4283,-3392.5529L13073.6801,-3392.5533L13074.2004,-3392.6067L13074.4293,-3392.4065L13074.7406,-3392.2066L13074.9496,-3392.1532L13075.1801,-3391.9201L13075.3296,-3391.8465L13075.5798,-3391.7732L13075.7706,-3391.7931L13075.9293,-3391.7931L13076.1993,-3391.7732L13076.4297,-3391.7931L13076.68,-3391.8865L13076.8295,-3391.8331L13076.9699,-3391.8331L13077.15,-3391.8667L13077.3804,-3391.8865L13077.7695,-3391.8465L13078.1097,-3391.9201L13078.125,-3391.918"/>
<path content="AP030,1,28,1,0,15,1,8,JPN" xlink:title="AP030" d="M13068.808,-3391.9727L13069.6152,-3391.3239L13070.3247,-3390.3885"/>
<path content="AP030,1,28,1,0,15,1,8,JPN" xlink:title="AP030" d="M13070.3247,-3390.3885L13071.0663,-3389.9536L13072.7402,-3389.7884L13073.5184,-3389.3463L13073.5199,-3389.3463"/>
<path content="AP030,1,28,1,0,15,1,8,JPN" xlink:title="AP030" d="M13073.5199,-3389.3463L13074.0524,-3389.307"/>
<path content="AP030,1,28,1,0,14,1,8,JPN" xlink:title="AP030" d="M13073.5199,-3389.3463L13073.5397,-3389.3265L13074.0524,-3389.307"/>
<path content="AP030,1,28,1,0,15,1,8,JPN" xlink:title="AP030" d="M13074.0585,-3389.3066L13074.0936,-3390.3618L13073.9517,-3391.1541L13073.4283,-3392.5529"/>
<path content="AP030,1,28,1,0,14,1,8,JPN" xlink:title="AP030" d="M13074.0524,-3389.307L13074.0585,-3389.3066"/>
<path content="AP030,1,28,1,0,14,1,8,JPN" xlink:title="AP030" d="M13068.808,-3391.9727L13068.6096,-3391.8865L13068.2907,-3391.8465L13068.0206,-3391.6664L13067.8604,-3391.6332L13067.7704,-3391.5398L13067.54,-3391.5264L13067.4301,-3391.4131L13067.2897,-3391.3998L13067.0807,-3391.3067L13066.8793,-3391.18L13066.7694,-3390.8932L13066.4703,-3390.7131L13066.3803,-3390.6597L13066.3605,-3390.4598L13066.3605,-3390.3732L13066.6794,-3389.9731L13066.6107,-3389.8998L13066.7206,-3389.793L13066.3025,-3389.4501L13066.6107,-3389.2864"/>
<path content="AP030,1,28,1,0,15,1,8,JPN" xlink:title="AP030" d="M13068.2499,-3388.7702L13068.7637,-3388.8786L13069.3405,-3389.4249L13070.3247,-3390.3885"/>
<path content="AP030,1,28,1,0,14,1,8,JPN" xlink:title="AP030" d="M13074.0585,-3389.3066L13074.0601,-3389.3066L13074.2905,-3389.3066L13075.3799,-3388.7333L13075.5402,-3388.7131L13075.7706,-3388.8199L13076.0193,-3388.8931L13076.3107,-3388.9999L13076.7395,-3389.1998L13077.1805,-3389.1998L13077.2903,-3389.1998L13077.8793,-3389.5267L13078.125,-3389.5073"/>
<path content="AP030,1,28,1,0,15,1,8,JPN" xlink:title="AP030" d="M13067.4408,-3388.5994L13068.2499,-3388.7702"/>
<path content="AP030,1,28,1,0,15,1,8,JPN" xlink:title="AP030" d="M13066.6107,-3389.2864L13067.2226,-3388.8824L13067.4408,-3388.5994"/>
<path content="AP030,1,28,1,0,14,1,8,JPN" xlink:title="AP030" d="M13073.5199,-3389.3463L13073.2895,-3389.04L13072.9904,-3388.6932L13072.6501,-3388.1001L13072.6486,-3388.0989"/>
<path content="AP030,1,28,1,0,15,1,8,JPN" xlink:title="AP030" d="M13066.3315,-3387.8342L13067.4927,-3388.2683L13067.4393,-3388.599L13067.4408,-3388.5994"/>
<path content="AP030,1,28,1,0,14,1,8,JPN" xlink:title="AP030" d="M13066.6107,-3389.2864L13066.4307,-3389.093L13066.6794,-3389.0198L13066.6794,-3388.7867L13066.7404,-3388.7131L13066.8304,-3388.533L13066.7694,-3388.3331L13066.5604,-3388.0264L13066.3315,-3387.8342"/>
<path content="AP030,1,28,1,0,15,1,8,JPN" xlink:title="AP030" d="M13070.3247,-3390.3885L13070.5353,-3389.4112L13071.3181,-3388.6349L13072.3984,-3387.793L13072.4274,-3387.8132L13072.6486,-3388.0997L13072.6486,-3388.0989"/>
<path content="AP030,1,28,1,0,14,1,8,JPN" xlink:title="AP030" d="M13057.6096,-3387.5931L13057.8583,-3387.5931"/>
<path content="AP030,1,28,1,0,14,1,8,JPN" xlink:title="AP030" d="M13057.6065,-3387.5916L13057.6096,-3387.5931"/>
<path content="AP030,1,28,1,0,15,1,8,JPN" xlink:title="AP030" d="M13057.6065,-3387.5916L13057.608,-3387.5931L13057.6096,-3387.5931"/>
<path content="AP030,1,28,1,0,14,1,8,JPN" xlink:title="AP030" d="M13074.0585,-3389.3066L13073.5123,-3388.2629L13073.1476,-3387.5641"/>
<path content="AP030,1,28,1,0,15,1,8,JPN" xlink:title="AP030" d="M13072.6486,-3388.0989L13072.8958,-3387.8334L13073.1476,-3387.5641"/>
<path content="AP030,1,28,1,0,14,1,8,JPN" xlink:title="AP030" d="M13057.6065,-3387.5916L13057.4005,-3387.4866"/>
<path content="AP030,1,28,1,0,14,1,8,JPN" xlink:title="AP030" d="M13075.9903,-3386.4597L13076.2695,-3386.4799L13076.4694,-3386.5131L13076.8295,-3386.5665L13076.9302,-3386.5868L13077.5803,-3386.713L13077.6794,-3386.7466L13077.8595,-3386.7664L13077.9007,-3386.7664L13077.9495,-3386.7664L13078.125,-3386.7263"/>
<path content="AP030,1,28,1,0,14,1,8,JPN" xlink:title="AP030" d="M13057.8583,-3387.5931L13057.8598,-3387.5931L13058.8104,-3387.5401L13059.8999,-3387.4001L13060.0204,-3387.36L13060.5194,-3386.9133L13060.6506,-3386.8599L13061.0794,-3386.7664L13061.1801,-3386.7466L13061.3602,-3386.713L13062.0605,-3386.713L13062.2192,-3386.5532L13062.5595,-3386.4399L13062.8998,-3386.4399L13063.2202,-3386.5532L13063.9496,-3386.7466L13064.7202,-3387.0533L13064.9506,-3387.1666L13065.0803,-3387.4001L13065.4007,-3387.413L13065.7196,-3387.5931L13066.1804,-3387.6133L13066.2704,-3387.7598L13066.33,-3387.833L13066.3315,-3387.8342"/>
<path content="AP030,1,28,1,0,15,1,8,JPN" xlink:title="AP030" d="M13073.1476,-3387.5641L13073.5245,-3386.9026L13073.8586,-3386.3197"/>
<path content="AP030,1,28,1,0,14,1,8,JPN" xlink:title="AP030" d="M13073.8586,-3386.3197L13073.8602,-3386.3197L13074.1104,-3386.3331L13074.3805,-3386.3533L13074.8795,-3386.3731L13075.0137,-3386.3533L13075.1495,-3386.3331L13075.3098,-3386.3731L13075.4501,-3386.4067L13075.56,-3386.4067L13075.9903,-3386.4597"/>
<path content="AP030,1,28,1,0,14,1,8,JPN" xlink:title="AP030" d="M13052.7405,-3385.9398L13052.8976,-3385.9531"/>
<path content="AP030,1,28,1,0,15,1,8,JPN" xlink:title="AP030" d="M13052.7405,-3385.9398L13052.7359,-3387.0903L13052.9526,-3387.5683L13053.2181,-3388.0123L13053.212,-3388.4327L13053.6972,-3388.5895L13055.101,-3388.7482L13055.9647,-3388.8222L13056.366,-3388.1676L13056.9305,-3387.6801L13057.4005,-3387.4866"/>
<path content="AP030,1,28,1,0,14,1,8,JPN" xlink:title="AP030" d="M13073.1476,-3387.5641L13072.8027,-3386.9987L13071.4706,-3386.4021L13071.1014,-3386.237L13070.5933,-3386.0092L13070.1721,-3385.8204"/>
<path content="AP030,1,28,1,0,14,1,8,JPN" xlink:title="AP030" d="M13072.6486,-3388.0989L13072.4304,-3387.8132L13072.3999,-3387.7934L13072.0398,-3387.5065L13071.4294,-3387.0731L13071.3104,-3386.9865L13070.7703,-3386.8401L13070.5795,-3386.713L13070.2393,-3386.5334L13070.1797,-3386.4067L13070.1996,-3386.2801L13070.2698,-3385.9734L13070.2698,-3385.92L13070.2393,-3385.8868L13070.2194,-3385.8467L13070.1721,-3385.8204"/>
<path content="AP030,1,28,1,0,14,1,8,JPN" xlink:title="AP030" d="M13070.1721,-3385.8204L13070.0607,-3385.7597"/>
<path content="AP030,1,28,1,0,14,1,8,JPN" xlink:title="AP030" d="M13052.8976,-3385.9531L13052.9007,-3385.9531L13053.0197,-3385.9734L13053.4302,-3386.013L13054.6997,-3385.6133L13055.9296,-3385.7933L13056.1493,-3385.9398L13056.4301,-3385.9398L13056.4896,-3385.9932L13056.5796,-3386.153L13056.6498,-3386.1931L13056.8298,-3386.153L13056.9,-3386.153L13057.0206,-3386.2267L13056.9901,-3386.2801L13056.8604,-3386.3197L13056.81,-3386.3533L13056.81,-3386.4265L13057.0206,-3386.4399L13057.0801,-3386.4799L13057.1106,-3386.4799L13057.1106,-3386.8L13057.1793,-3386.8931L13057.2693,-3387.0934L13057.2723,-3387.0991L13057.4005,-3387.4866"/>
<path content="AP030,1,28,1,0,14,1,8,JPN" xlink:title="AP030" d="M13070.0607,-3385.7597L13070.2194,-3385.7731L13070.3354,-3385.7479L13070.9503,-3385.6133L13071.0403,-3385.6037L13071.4493,-3385.5598L13071.5805,-3385.593L13071.8597,-3385.7067L13072.1802,-3385.8665L13072.4304,-3386.153L13072.8104,-3386.4399L13072.9294,-3386.5131L13073.0804,-3386.5131L13073.5397,-3386.3331L13073.6298,-3386.3197L13073.8586,-3386.3197"/>
<path content="AP030,1,28,1,0,14,1,8,JPN" xlink:title="AP030" d="M13068.5471,-3385.0746L13069.1498,-3385.22L13069.4,-3385.2867L13069.5206,-3385.4L13069.7205,-3385.5801L13069.8303,-3385.6667L13070.0607,-3385.7597"/>
<path content="AP030,1,28,1,0,15,1,8,JPN" xlink:title="AP030" d="M13068.2499,-3388.7702L13068.3762,-3387.5439L13068.4326,-3385.9409L13068.5471,-3385.0746"/>
<path content="AP030,1,28,1,0,14,1,8,JPN" xlink:title="AP030" d="M13066.7206,-3385.1067L13066.3803,-3385.1665L13065.7394,-3385.1067L13064.4699,-3384.9133L13064.0198,-3384.9266L13063.8107,-3384.9464L13063.6795,-3384.9667"/>
<path content="AP030,1,28,1,0,14,1,8,JPN" xlink:title="AP030" d="M13067.8802,-3384.9133L13068.5471,-3385.0746"/>
<path content="AP030,1,28,1,0,15,1,8,JPN" xlink:title="AP030" d="M13067.4408,-3388.5994L13067.4408,-3388.599L13067.4957,-3388.2683L13067.6041,-3387.3707L13067.659,-3386.2373L13067.659,-3385.387L13067.8802,-3384.9133"/>
<path content="AP030,1,28,1,0,14,1,8,JPN" xlink:title="AP030" d="M13066.7206,-3385.1067L13067.7399,-3384.893L13067.8802,-3384.9133"/>
<path content="AP030,1,28,1,0,14,1,8,JPN" xlink:title="AP030" d="M13063.6795,-3384.9667L13063.3301,-3385.1665L13062.5793,-3385.3268L13062.2406,-3385.2734L13061.9507,-3385.1799L13061.6104,-3384.9998L13061.5601,-3384.9667L13061.3281,-3384.7466"/>
<path content="AP030,1,28,1,0,15,1,8,JPN" xlink:title="AP030" d="M13057.8583,-3387.5931L13058.6365,-3386.8687L13060.0342,-3385.9547L13061.3281,-3384.7466"/>
<path content="AP030,1,28,1,0,14,1,8,JPN" xlink:title="AP030" d="M13049.3301,-3384.5867L13049.6094,-3384.5867L13049.7192,-3384.6397L13049.9496,-3384.6798L13050.5203,-3384.8598L13050.8102,-3384.9133L13050.8301,-3384.9133L13051.86,-3385.6667L13052.1805,-3385.8334L13052.7405,-3385.9398"/>
<path content="AP030,1,28,1,0,14,1,8,JPN" xlink:title="AP030" d="M13075.9903,-3386.4597L13075.9903,-3386.1198L13075.9903,-3385.6133L13075.9903,-3385.3268L13075.9903,-3384.9865L13076.1093,-3384.7866L13076.1093,-3384.7332L13075.8804,-3384.5333"/>
<path content="AP030,1,28,1,0,15,1,8,JPN" xlink:title="AP030" d="M13052.8976,-3385.9531L13055.0842,-3384.2812"/>
<path content="AP030,1,28,1,0,15,1,8,JPN" xlink:title="AP030" d="M13075.2164,-3384.2357L13075.8804,-3384.5333"/>
<path content="AP030,1,28,1,0,15,1,8,JPN" xlink:title="AP030" d="M13073.8586,-3386.3197L13074.2996,-3385.643L13075.2164,-3384.2357"/>
<path content="AP030,1,28,1,0,14,1,8,JPN" xlink:title="AP030" d="M13049.3301,-3384.5867L13049.0204,-3384.5867L13048.6496,-3384.5867L13048.4497,-3384.4799L13048.3795,-3384.333L13048.3597,-3384.0668L13048.3795,-3383.9931L13048.4482,-3383.8665"/>
<path content="AP030,1,28,1,0,15,1,8,JPN" xlink:title="AP030" d="M13076.4297,-3383.72L13077.2873,-3384.0225L13078.125,-3384.3654"/>
<path content="AP030,1,28,1,0,16,1,8,JPN" xlink:title="AP030" d="M13078.125,-3385.2894L13078.0197,-3385.2734L13077.4902,-3385.1265L13077.1301,-3385.0399L13076.77,-3385.0201L13076.6495,-3384.9133L13076.5793,-3384.7668L13076.4893,-3384.333L13076.4694,-3384.2068L13076.4297,-3383.72"/>
<path content="AP030,1,28,1,0,15,1,8,JPN" xlink:title="AP030" d="M13075.4303,-3383.2199L13076.4297,-3383.72"/>
<path content="AP030,1,28,1,0,14,1,8,JPN" xlink:title="AP030" d="M13075.8804,-3384.5333L13075.9293,-3384.3731L13075.8606,-3384.1534L13075.8301,-3383.8867L13075.8102,-3383.7399L13075.6805,-3383.5068L13075.4303,-3383.2199"/>
<path content="AP030,1,28,1,0,14,1,8,JPN" xlink:title="AP030" d="M12969.31,-3385.0533L12969.3802,-3384.84L12969.3298,-3384.8198L12969.22,-3384.8598L12969.1299,-3384.8198L12969.0796,-3384.7332L12969.0796,-3384.6798L12969.22,-3384.5531L12969.31,-3384.4997L12969.4,-3384.3533L12969.4305,-3384.193L12969.4305,-3384.0466L12969.6106,-3383.9199L12969.7906,-3383.7601L12969.9295,-3383.6132L12969.8593,-3383.4332L12969.7906,-3383.1467L12969.6106,-3382.8197"/>
<path content="AP030,1,28,1,0,15,1,8,JPN" xlink:title="AP030" d="M13070.2805,-3382.608L13070.8801,-3382.8915L13073.2758,-3384.0225L13073.7488,-3383.9836L13073.9792,-3383.9649L13074.6124,-3383.9649L13075.2164,-3384.2357"/>
<path content="AP030,1,28,1,0,15,1,8,JPN" xlink:title="AP030" d="M13068.5471,-3385.0746L13068.6035,-3384.9396L13069.1818,-3383.5541L13070.2805,-3382.608"/>
<path content="AP030,1,28,1,0,15,1,8,JPN" xlink:title="AP030" d="M13067.8802,-3384.9133L13067.9306,-3384.7672L13068.2587,-3383.828L13068.6966,-3383.2607L13069.2978,-3382.7885L13070.2805,-3382.608"/>
<path content="AP030,1,28,1,0,16,1,8,JPN" xlink:title="AP030" d="M13076.4297,-3383.72L13076.4694,-3383.2001L13076.4694,-3383.02L13076.1505,-3382.4799L13075.9506,-3382.28L13075.6805,-3382.0667L13075.2197,-3381.8665L13075.1236,-3381.8283"/>
<path content="AP030,1,28,1,0,14,1,8,JPN" xlink:title="AP030" d="M13075.4303,-3383.2199L13075.2396,-3383.0399L13075.1099,-3382.9266L13075.0595,-3382.6401L13075.0595,-3382.3734L13075.0793,-3382.28L13075.1297,-3382.1198L13075.1297,-3381.8466L13075.1236,-3381.8283"/>
<path content="AP030,1,28,1,0,15,1,8,JPN" xlink:title="AP030" d="M13070.2805,-3382.608L13070.2271,-3381.8344L13070.1965,-3381.414"/>
<path content="AP030,1,28,1,0,14,1,8,JPN" xlink:title="AP030" d="M13061.3281,-3384.7466L13061.2,-3384.4799L13061.0199,-3383.9001L13060.8597,-3383.5934L13060.6796,-3383.3267L13060.5804,-3383.1665L13060.4706,-3382.9468L13060.4507,-3382.7465L13060.5194,-3382.5535L13060.5545,-3382.4867L13060.5804,-3382.4398L13060.5804,-3382.28L13060.5194,-3382.1533L13060.3104,-3382.0641L13060.2707,-3382.0465L13060.2005,-3381.9935L13060.1105,-3381.8134L13059.9304,-3381.5598L13059.8602,-3381.3065L13059.8572,-3381.2531"/>
<path content="AP030,1,28,1,0,15,1,8,JPN" xlink:title="AP030" d="M13068.6356,-3381.2492L13069.8334,-3381.3755L13070.1965,-3381.414"/>
<path content="AP030,1,28,1,0,15,1,8,JPN" xlink:title="AP030" d="M13058.02,-3380.9727L13059.8572,-3381.2531"/>
<path content="AP030,1,28,1,0,15,1,8,JPN" xlink:title="AP030" d="M13055.0842,-3384.2812L13056.9687,-3382.18L13057.6218,-3381.8737L13058.02,-3380.9727"/>
<path content="AP030,1,28,1,0,15,1,8,JPN" xlink:title="AP030" d="M13054.097,-3380.8586L13057.0831,-3381.2546L13058.02,-3380.9727"/>
<path content="AP030,1,28,1,0,15,1,8,JPN" xlink:title="AP030" d="M13055.0842,-3384.2812L13054.1428,-3383.1142L13053.9917,-3382.2868L13054.097,-3380.8586"/>
<path content="AP030,1,28,1,0,15,1,8,JPN" xlink:title="AP030" d="M13049.3301,-3384.5867L13050.3265,-3383.9779L13051.1475,-3383.033L13051.5289,-3382.6077L13051.7487,-3382.1823L13051.9669,-3381.7101L13052.2949,-3381.4735L13052.6779,-3381.4262L13053.1693,-3381.2843L13053.4973,-3381.0951L13054.097,-3380.8586"/>
<path content="AP030,1,28,1,0,15,1,8,JPN" xlink:title="AP030" d="M13066.713,-3380.5847L13068.6356,-3381.2492"/>
<path content="AP030,1,28,1,0,15,1,8,JPN" xlink:title="AP030" d="M13066.7206,-3385.1067L13066.7877,-3384.4997L13066.864,-3383.8112L13066.7633,-3382.9845L13066.5619,-3381.2485L13066.713,-3380.5847"/>
<path content="AP030,1,28,1,0,14,1,8,JPN" xlink:title="AP030" d="M13059.8572,-3381.2531L13059.7214,-3380.7755L13059.6497,-3380.5332"/>
<path content="AP030,1,28,1,0,15,1,8,JPN" xlink:title="AP030" d="M12969.31,-3385.0533L12969.7311,-3384.811L12970.1828,-3384.3975L12970.8405,-3383.9836L12971.6064,-3383.2516L12971.994,-3382.9166L12972.3389,-3382.8049L12972.9858,-3382.7675L12973.6313,-3382.6927L12974.1913,-3382.4322L12974.8383,-3382.3948L12975.2686,-3382.3204L12975.6577,-3382.0969L12975.7858,-3381.7619L12975.7858,-3381.5758L12975.6577,-3381.427L12975.0977,-3381.2412L12974.321,-3381.1668L12973.8907,-3380.8693L12973.8907,-3380.6458L12974.0631,-3380.3482"/>
<path content="AP030,1,28,1,0,14,1,8,JPN" xlink:title="AP030" d="M12969.6106,-3382.8197L12969.6304,-3382.7133L12969.7205,-3382.4398L12969.8303,-3382.2067L12969.8303,-3382.1198L12969.7906,-3382.0267L12969.8105,-3381.9733L12969.9295,-3381.9L12969.9707,-3381.7932L12969.9707,-3381.6532L12969.8593,-3381.58L12969.8593,-3381.4865L12969.9295,-3381.3801L12970.0195,-3381.2866L12970.0806,-3381.2L12970.0806,-3381.0932L12970.0806,-3381.0398L12969.9905,-3380.8201L12969.9707,-3380.7331L12970.0195,-3380.5134L12969.9905,-3380.3734L12969.9295,-3380.1731"/>
<path content="AP030,1,28,1,0,15,1,8,JPN" xlink:title="AP030" d="M12968.8461,-3380.0926L12969.9265,-3380.1731L12969.9295,-3380.1731"/>
<path content="AP030,1,28,1,0,15,1,8,JPN" xlink:title="AP030" d="M12969.6106,-3382.8197L12968.8004,-3381.694L12968.9392,-3380.4867L12968.8461,-3380.0926"/>
<path content="AP030,1,28,1,0,14,1,8,JPN" xlink:title="AP030" d="M13058.9478,-3379.8855L13058.9493,-3379.8866L13059.4894,-3380.1933L13059.6497,-3380.5332"/>
<path content="AP030,1,28,1,0,15,1,8,JPN" xlink:title="AP030" d="M13058.02,-3380.9727L13058.3527,-3380.6801L13058.8318,-3380.2574L13058.9478,-3379.8866L13058.9478,-3379.8855"/>
<path content="AP030,1,28,1,0,16,1,4,JPN" xlink:title="AP030" d="M13077.4911,-3379.7494L13078.125,-3379.9075"/>
<path content="AP030,1,28,1,0,14,1,8,JPN" xlink:title="AP030" d="M13075.1236,-3381.8283L13075.0397,-3381.6132L13074.8993,-3381.4865L13074.8993,-3381.3465L13074.8795,-3381.0932L13074.8993,-3380.9479L13075.0198,-3380.8399L13075.2197,-3380.6801L13075.1999,-3380.5134L13075.2197,-3380.3734L13075.1999,-3380.1933L13075.1099,-3380.0133L13074.9695,-3379.94L13074.8306,-3379.7733"/>
<path content="AP030,1,28,1,0,15,1,8,JPN" xlink:title="AP030" d="M13074.2004,-3379.7199L13074.8306,-3379.7733"/>
<path content="AP030,1,28,1,0,16,1,8,JPN" xlink:title="AP030" d="M13075.1236,-3381.8283L13074.8993,-3381.7398L13074.7192,-3381.6132L13074.5193,-3381.4865L13074.2401,-3381.2199L13074.1104,-3380.9868L13074.0601,-3380.5866L13074.0799,-3380.1533L13074.118,-3380.0182L13074.2004,-3379.7199"/>
<path content="AP030,1,28,1,0,15,1,8,JPN" xlink:title="AP030" d="M13063.6795,-3384.9667L13063.5986,-3384.4128L13063.5193,-3383.8547L13063.2813,-3383.4423L13063.2965,-3383.0212L13062.8952,-3381.2675L13062.4252,-3380.3829L13062.7213,-3379.6791"/>
<path content="AP030,1,28,1,0,15,1,8,JPN" xlink:title="AP030" d="M13059.6497,-3380.5332L13060.4004,-3380.0915L13061.2091,-3380.0915L13062.0163,-3380.0087L13062.7213,-3379.6791"/>
<path content="AP030,1,28,1,0,15,1,8,JPN" xlink:title="AP030" d="M13074.8306,-3379.7733L13076.1371,-3379.9662L13077.4911,-3379.7494"/>
<path content="AP030,1,28,1,0,15,1,8,JPN" xlink:title="AP030" d="M13070.2805,-3382.608L13070.5978,-3382.0015L13071.1029,-3381.0337L13071.2067,-3380.8353L13071.5897,-3379.9747L13071.611,-3379.9259L13071.8231,-3379.8016L13072.3175,-3379.5128L13073.3276,-3379.5128L13073.79,-3379.6223L13074.2004,-3379.7199"/>
<path content="AP030,1,28,1,0,14,1,8,JPN" xlink:title="AP030" d="M13074.8306,-3379.7733L13074.7696,-3379.7398L13074.6307,-3379.5933L13074.3805,-3379.2534L13074.3103,-3379.1664"/>
<path content="AP030,1,28,1,0,16,1,8,JPN" xlink:title="AP030" d="M13074.2004,-3379.7199L13074.2706,-3379.2866L13074.3103,-3379.1664"/>
<path content="AP030,1,28,1,0,15,1,8,JPN" xlink:title="AP030" d="M12969.9295,-3380.1731L12970.5078,-3380.1769L12971.1548,-3380.0274L12972.0367,-3379.0619L12972.2153,-3378.9738L12972.3984,-3379.1653L12973.082,-3378.7399L12973.79,-3379.7131L12974.0631,-3380.3482"/>
<path content="AP030,1,28,1,0,14,1,8,JPN" xlink:title="AP030" d="M13048.4482,-3383.8665L13048.7198,-3383.4866L13049.0601,-3383.0933L13049.0799,-3382.9468L13049.0601,-3382.6199L13048.7,-3382.2468L13048.5397,-3382.0801L13048.4299,-3381.72L13048.3597,-3381.5598L13048.1796,-3381.3065L13048.1094,-3380.7865L13047.9004,-3380.5668L13047.7402,-3380.4066L13047.4304,-3380.1201L13047.3099,-3379.94L13047.2702,-3379.5933L13047.0596,-3379.38L13046.9894,-3379.2332L13046.8796,-3378.9997L13046.8094,-3378.8597L13046.6507,-3378.5667"/>
<path content="AP030,1,28,1,0,15,1,8,JPN" xlink:title="AP030" d="M13048.4482,-3383.8665L13047.8714,-3382.6527L13047.2794,-3381.8745L13047.1252,-3380.9044L13046.7087,-3380.5622L13046.1853,-3379.9812L13046.17,-3379.3674L13046.6507,-3378.5667"/>
<path content="AP030,1,28,1,0,16,1,4,JPN" xlink:title="AP030" d="M13075.5798,-3378.5534L13076.3596,-3379.0932L13077.4911,-3379.7494"/>
<path content="AP030,1,28,1,0,14,1,8,JPN" xlink:title="AP030" d="M13055.4672,-3378.4996L13055.4703,-3378.5L13056.0593,-3378.6064L13056.2897,-3378.6598L13056.4301,-3378.7132L13056.7902,-3378.9867L13057.4905,-3379.5265L13057.8094,-3379.6333L13058.02,-3379.6867L13058.58,-3379.7066L13058.7906,-3379.7932L13058.9478,-3379.8855"/>
<path content="AP030,1,28,1,0,15,1,8,JPN" xlink:title="AP030" d="M13054.097,-3380.8586L13054.4724,-3380.1842L13054.744,-3379.6967L13055.4672,-3378.4996"/>
<path content="AP030,1,28,1,0,15,1,8,JPN" xlink:title="AP030" d="M13070.1965,-3381.414L13070.1965,-3380.6698L13070.3995,-3380.0087L13071.106,-3379.0165L13071.7468,-3378.3623L13071.8597,-3378.2467"/>
<path content="AP030,1,28,1,0,15,1,8,JPN" xlink:title="AP030" d="M13052.3209,-3378.1914L13052.2003,-3378.9356L13054.097,-3380.8586"/>
<path content="AP030,1,28,1,0,14,1,8,JPN" xlink:title="AP030" d="M13053.2394,-3378.12L13053.6804,-3378.1734L13054.4296,-3378.2799L13055.04,-3378.4397L13055.4672,-3378.4996"/>
<path content="AP030,1,28,1,0,15,1,8,JPN" xlink:title="AP030" d="M13052.3209,-3378.1914L13052.4033,-3378.2143L13053.2394,-3378.12"/>
<path content="AP030,1,28,1,0,14,1,8,JPN" xlink:title="AP030" d="M13074.3103,-3379.1664L13074.0402,-3378.7998L13073.8297,-3378.7132L13073.2895,-3378.4065L13073.1796,-3378.2997L13073.0087,-3378.0544"/>
<path content="AP030,1,28,1,0,16,1,8,JPN" xlink:title="AP030" d="M13071.8597,-3378.2467L13072.2397,-3378.2066L13072.3312,-3378.1887L13073.0087,-3378.0544"/>
<path content="AP030,1,28,1,0,16,1,8,JPN" xlink:title="AP030" d="M13074.2706,-3377.9934L13074.6307,-3378.0464L13075.0198,-3378.1933L13075.5798,-3378.5534"/>
<path content="AP030,1,28,1,0,16,1,8,JPN" xlink:title="AP030" d="M13074.3103,-3379.1664L13074.3607,-3378.9997L13074.3805,-3378.82L13074.4293,-3378.6064L13074.3805,-3378.26L13074.2706,-3377.9934"/>
<path content="AP030,1,28,1,0,16,1,8,JPN" xlink:title="AP030" d="M13073.0087,-3378.0544L13073.5199,-3377.9533L13073.79,-3377.94L13074.1806,-3377.9732L13074.2706,-3377.9934"/>
<path content="AP030,1,28,1,0,15,1,8,JPN" xlink:title="AP030" d="M13068.6356,-3381.2492L13069.1269,-3380.2189L13069.3878,-3379.5898L13069.5374,-3377.8133"/>
<path content="AP030,1,28,1,0,16,1,8,JPN" xlink:title="AP030" d="M13069.5374,-3377.8133L13069.8441,-3377.7794L13070.0195,-3377.7599L13070.5322,-3377.8992L13070.9503,-3378.0132L13071.8597,-3378.2467"/>
<path content="AP030,1,28,1,0,15,1,8,JPN" xlink:title="AP030" d="M13071.8597,-3378.2467L13071.5103,-3377.8591L13071.4096,-3377.3632"/>
<path content="AP030,1,28,1,0,15,1,8,JPN" xlink:title="AP030" d="M13066.713,-3380.5847L13066.864,-3379.9259L13067.3691,-3378.1075L13067.1616,-3377.1687"/>
<path content="AP030,1,28,1,0,15,1,8,JPN" xlink:title="AP030" d="M13062.7213,-3379.6791L13062.7228,-3379.678L13063.7329,-3379.5952L13064.5416,-3379.5952L13065.451,-3379.3472L13066.1575,-3378.6034L13066.4597,-3378.1898L13066.5619,-3377.7767L13067.1616,-3377.1687"/>
<path content="AP030,1,28,1,0,15,1,8,JPN" xlink:title="AP030" d="M13067.3798,-3376.9466L13068.4097,-3376.9932L13069.2886,-3377.0325L13070.6863,-3377.1145L13070.7016,-3377.1152L13071.4096,-3377.3632"/>
<path content="AP030,1,28,1,0,16,1,8,JPN" xlink:title="AP030" d="M13067.3798,-3376.9466L13067.8604,-3377.1065L13068.5196,-3377.38L13069.1803,-3377.7065L13069.5374,-3377.8133"/>
<path content="AP030,1,28,1,0,15,1,8,JPN" xlink:title="AP030" d="M13067.1616,-3377.1687L13067.3798,-3376.9466"/>
<path content="AP030,1,28,1,0,15,1,8,JPN" xlink:title="AP030" d="M13071.4096,-3377.3632L13071.5088,-3376.7845"/>
<path content="AP030,1,28,1,0,16,1,8,JPN" xlink:title="AP030" d="M13067.3798,-3376.9466L13067.0593,-3376.7132"/>
<path content="AP030,1,28,1,0,15,1,8,JPN" xlink:title="AP030" d="M13067.1616,-3377.1687L13067.0593,-3376.7132"/>
<path content="AP030,1,28,1,0,15,1,8,JPN" xlink:title="AP030" d="M13047.7203,-3376.3L13049.3408,-3377.2713L13051.2543,-3377.8843L13052.3209,-3378.1914"/>
<path content="AP030,1,28,1,0,14,1,8,JPN" xlink:title="AP030" d="M13046.6507,-3378.5667L13046.8307,-3378.5L13046.8597,-3378.4065L13046.8796,-3378.2265L13046.9894,-3378.12L13047.0398,-3378.0132L13047.1802,-3377.4666L13047.1802,-3377.0397L13047.1497,-3376.8398L13047.02,-3376.5331L13047.02,-3376.4599L13047.02,-3376.2798L13047.2794,-3376.2547L13047.3602,-3376.2466L13047.5204,-3376.2798L13047.7203,-3376.3"/>
<path content="AP030,1,28,1,0,14,1,8,JPN" xlink:title="AP030" d="M12969.9295,-3380.1731L12969.9707,-3380.0999L12970.0195,-3379.94L12970.0394,-3379.8332L12970.0195,-3379.6532L12970.0607,-3379.5265L12970.1797,-3379.4334L12970.3293,-3379.4334L12970.3995,-3379.3598L12970.43,-3379.2866L12970.3995,-3379.2198L12970.3094,-3379.1664L12970.3293,-3379.0932L12970.3598,-3378.9665L12970.3796,-3378.7666L12970.3995,-3378.6934L12970.3094,-3378.6198L12970.1797,-3378.5332L12970.0607,-3378.2066L12970.0394,-3378.12L12970.0806,-3377.9934L12970.1294,-3377.7599L12970.1492,-3377.56L12970.1096,-3377.4666L12970.0195,-3377.3266L12970.0195,-3377.2198L12969.9905,-3376.8398L12969.9493,-3376.5865L12969.9295,-3376.5533L12969.8257,-3376.1929"/>
<path content="AP030,1,28,1,0,15,1,8,JPN" xlink:title="AP030" d="M12968.8461,-3380.0926L12968.1763,-3380.4142L12967.6315,-3380.0732L12967.5903,-3379.6223L12966.9922,-3379.8851L12966.8045,-3379.7279L12967.3279,-3378.9391L12967.3553,-3378.418L12968.4204,-3377.9583L12968.6951,-3377.7744L12969.1223,-3376.767L12969.8257,-3376.1929"/>
<path content="AP030,1,28,1,0,14,1,8,JPN" xlink:title="AP030" d="M13053.2394,-3378.12L13052.9297,-3377.9732L13052.6794,-3377.8667L13052.4506,-3377.6665L13052.0599,-3377.3266L13051.5793,-3376.82L13051.2695,-3376.6598L13050.8606,-3376.5533L13050.2197,-3376.1734L13049.9969,-3375.9953"/>
<path content="AP030,1,28,1,0,15,1,8,JPN" xlink:title="AP030" d="M13047.7203,-3376.3L13048.4238,-3376.1471L13048.4665,-3376.1379L13049.2859,-3375.9956L13049.9969,-3375.9953"/>
<path content="AP030,1,28,1,0,16,1,8,JPN" xlink:title="AP030" d="M13067.0593,-3376.7132L13066.9296,-3376.5133L13066.7892,-3376.2798L13066.5604,-3375.9399L13066.2201,-3375.7401"/>
<path content="AP030,1,28,1,0,15,1,8,JPN" xlink:title="AP030" d="M13075.6973,-3375.5642L13078.0243,-3376.45L13078.125,-3376.494"/>
<path content="AP030,1,28,1,0,14,1,8,JPN" xlink:title="AP030" d="M13074.2706,-3377.9934L13074.5178,-3377.5066L13074.9344,-3376.7193L13075.351,-3376.3626L13075.6622,-3375.9022L13075.6973,-3375.5642"/>
<path content="AP030,1,28,1,0,15,1,8,JPN" xlink:title="AP030" d="M13073.9899,-3375.2865L13075.5096,-3375.4929L13075.6973,-3375.5642"/>
<path content="AP030,1,28,1,0,14,1,8,JPN" xlink:title="AP030" d="M13073.0087,-3378.0544L13072.9904,-3378.0266L13072.9706,-3377.9732L13072.9706,-3377.9198L13072.9706,-3377.7065L13072.9904,-3377.6333L13073.2895,-3377.1465L13073.3994,-3376.8932L13073.5596,-3376.3733L13073.79,-3376.0265L13073.79,-3376.0132L13073.9304,-3375.7732L13074.0204,-3375.6134L13074.0204,-3375.4333L13073.9899,-3375.2865"/>
<path content="AP030,1,28,1,0,15,1,8,JPN" xlink:title="AP030" d="M13058.9478,-3379.8855L13059.2377,-3379.2965L13059.0347,-3378.8872L13058.4793,-3378.1158L13058.6182,-3376.6796L13059.5078,-3375.2827"/>
<path content="AP030,1,28,1,0,16,1,8,JPN" xlink:title="AP030" d="M13064.2181,-3375.2193L13064.2197,-3375.2197L13064.4897,-3375.3799L13064.8102,-3375.56L13064.9307,-3375.5798L13065.2893,-3375.5798L13065.6296,-3375.5798L13065.86,-3375.5932L13066.2201,-3375.7401"/>
<path content="AP030,1,28,1,0,15,1,8,JPN" xlink:title="AP030" d="M13062.7213,-3379.6791L13062.7213,-3379.678L13063.1485,-3378.9055L13063.8351,-3378.3001L13064.1159,-3378.0827L13064.1159,-3377.4792L13063.5788,-3376.5587L13063.8947,-3376.0426L13064.2181,-3375.2197L13064.2181,-3375.2193"/>
<path content="AP030,1,28,1,0,14,1,8,JPN" xlink:title="AP030" d="M12969.8257,-3376.1929L12969.8593,-3376.0998L12969.9295,-3376.0265L12969.8807,-3375.56L12969.7693,-3375.3998L12969.6304,-3375.2197L12969.6106,-3375.1667L12969.6793,-3375.1266"/>
<path content="AP030,1,28,1,0,15,1,8,JPN" xlink:title="AP030" d="M13056.4682,-3375.0393L13058.3618,-3375.2831L13059.0729,-3375.2827L13059.5078,-3375.2827"/>
<path content="AP030,1,28,1,0,15,1,8,JPN" xlink:title="AP030" d="M13055.4672,-3378.4996L13055.7449,-3377.7313L13056.6376,-3376.9325L13056.6513,-3376.8131L13056.6956,-3376.4549L13056.6971,-3376.1536L13056.4682,-3375.0397L13056.4682,-3375.0393"/>
<path content="AP030,1,28,1,0,14,1,8,JPN" xlink:title="AP030" d="M13073.5596,-3375L13073.5596,-3375L13073.8602,-3375.1064L13073.9899,-3375.2865"/>
<path content="AP030,1,28,1,0,15,1,8,JPN" xlink:title="AP030" d="M13071.8597,-3378.2467L13072.6807,-3376.0006L13072.995,-3375.5482L13073.3746,-3375"/>
<path content="AP030,1,28,1,0,15,1,8,JPN" xlink:title="AP030" d="M13049.9969,-3375.9953L13050.8163,-3375.9006L13051.2543,-3375.7114L13051.5274,-3375.3807L13052.1286,-3375.3803L13052.7298,-3375.3799L13053.1677,-3375.4272L13053.714,-3375.4269L13053.9871,-3375.1434L13054.1631,-3375"/>
<path content="AP030,1,28,1,0,15,1,8,JPN" xlink:title="AP030" d="M13071.5088,-3376.7845L13071.7117,-3376.4538L13072.8609,-3375"/>
<path content="AP030,1,28,1,0,15,1,8,JPN" xlink:title="AP030" d="M12974.0631,-3380.3482L12974.3225,-3380.1247L12974.968,-3380.0873L12975.7004,-3380.1247L12976.0025,-3380.0873L12976.2177,-3379.9381L12976.1749,-3379.6406L12975.827,-3379.3053L12975.4425,-3378.487L12975.3571,-3377.2591L12975.3998,-3376.6636L12975.6592,-3375.9193L12975.8743,-3375.4353L12975.9209,-3375"/>
<path content="AP030,1,28,1,0,15,1,8,JPN" xlink:title="AP030" d="M12976.3171,-3375L12976.7059,-3375.185L12977.0065,-3375.185L12977.5619,-3375"/>
<path content="AP030,1,28,1,0,15,1,8,JPN" xlink:title="AP030" d="M13056.2865,-3375L13056.4682,-3375.0393"/>
<path content="AP030,1,28,1,0,16,1,8,JPN" xlink:title="AP030" d="M13056.3379,-3375L13056.4682,-3375.0393"/>
<path content="AP030,1,28,1,0,14,1,8,JPN" xlink:title="AP030" d="M12969.6793,-3375.1266L12969.8303,-3375.1465L12970.0195,-3375.1999L12970.2698,-3375.1465L12970.3598,-3375.0534L12970.3796,-3375.0198L12970.5795,-3375.0198L12970.6486,-3375M12971.222,-3375L12971.3104,-3375.0401L12971.4493,-3375.0732L12971.9299,-3375.1999L12972.11,-3375.2197L12972.3099,-3375.1667L12972.4899,-3375.2865L12972.7005,-3375.2865L12972.9294,-3375.2197L12973.4497,-3375.3597L12973.5596,-3375.3597L12973.8098,-3375.3067L12973.9899,-3375.2731L12974.0799,-3375.1667L12974.2332,-3375"/>
<path content="AP030,1,28,1,0,15,1,8,JPN" xlink:title="AP030" d="M12969.6793,-3375.1266L12969.5288,-3375"/>
<path content="AP030,1,28,1,0,15,1,8,JPN" xlink:title="AP030" d="M12966.2186,-3375.0309L12966.0904,-3375.3681L12966.3239,-3375.8087L12966.6138,-3376.1497L12966.8976,-3376.2112L12967.6132,-3375.8587L12968.3701,-3375.1961L12968.5679,-3375"/>
<path content="AP030,1,28,1,0,15,1,8,JPN" xlink:title="AP030" d="M13059.5078,-3375.2827L13059.5093,-3375.2827L13059.7893,-3375"/>
<path content="AP030,1,28,1,0,16,1,8,JPN" xlink:title="AP030" d="M13056.4682,-3375.0393L13056.6803,-3375.0401L13056.9634,-3375"/>
<path content="AP030,1,28,1,0,16,1,8,JPN" xlink:title="AP030" d="M13063.657,-3375L13063.7207,-3375.0401L13064.2181,-3375.2193"/>
<path content="AP030,1,28,1,0,15,1,8,JPN" xlink:title="AP030" d="M13064.2181,-3375.2193L13064.3241,-3375"/>
<path content="AP030,1,28,1,0,15,1,8,JPN" xlink:title="AP030" d="M13071.5088,-3376.7845L13070.8633,-3376.6151L13070.4529,-3376.5068L13070.2423,-3375.8553L13070.0043,-3375"/>
<path content="AP030,1,28,1,0,14,1,8,JPN" xlink:title="AP030" d="M13075.6973,-3375.5642L13075.7217,-3375.3223L13075.6238,-3375"/>
<path content="AP030,1,28,1,0,15,1,8,JPN" xlink:title="AP030" d="M13066.2201,-3375.7401L13066.1194,-3375.0107L13066.1179,-3375"/>
<path content="AP030,1,28,1,0,14,1,8,JPN" xlink:title="AP030" d="M13049.9969,-3375.9953L13049.8795,-3375.8667L13049.6506,-3375.6134L13049.5407,-3375.3799L13049.4293,-3375.1999L13049.2418,-3375"/>
<path content="AP030,1,28,1,0,14,1,8,JPN" xlink:title="AP030" d="M13047.7203,-3376.3L13047.3801,-3375.5066L13047.3602,-3375.3799L13047.3099,-3375.1465L13047.1795,-3375"/>
<path content="AP030,1,28,1,0,15,1,8,JPN" xlink:title="AP030" d="M13056.4682,-3375.0393L13056.4792,-3375"/>
<path content="AP030,1,28,1,0,15,1,8,JPN" xlink:title="AP030" d="M13078.125,-3379.2563L13077.4911,-3379.7494"/>
</g>
</svg>
