<?xml version="1.0" encoding="UTF-8"?>
<svg  xmlns="http://www.w3.org/2000/svg" xmlns:xlink="http://www.w3.org/1999/xlink" xmlns:go="http://purl.org/svgmap/profile" property="f_code,acc,exs,rst,med,rtt,RSU,loc,soc" viewBox="13781.25 -4500.0 281.25 281.25" go:dataArea="13781.25 -4500.0 281.25 281.25" >
<metadata>
 <rdf:RDF xmlns:rdf="http://www.w3.org/1999/02/22-rdf-syntax-ns#" xmlns:crs="http://opengis.org/xmldtds/transformations.dtd" xmlns:svg="http://www.w3.org/svg" >
  <rdf:Description>
   <crs:CoordinateReferenceSystem rdf:resource="http://purl.org/crs/84" svg:transform="matrix(100.0,0.0,0.0,-100.0,0.0,0.0)" />
  </rdf:Description>
 </rdf:RDF>
</metadata>
<globalCoordinateSystem srsName="http://purl.org/crs/84" transform="matrix(100.0,0.0,0.0,-100.0,0.0,0.0)" />
<defs>
 <g id="p0" >
  <circle cx="0.0" cy="0.0" r="3" stroke="green" stroke-width="2.0" vector-effect="non-scaling-stroke" />
 </g>
</defs>
<g fill="none" fill-rule="evenodd" stroke="#00ff00" stroke-width="2" opacity="0.5" vector-effect="non-scaling-stroke" stroke-linejoin="bevel" >
<path content="AP030,1,28,1,0,15,1,8,JPN" xlink:title="AP030" d="M14045.9503,-4334.2602L14046.344,-4334.6272L14046.3409,-4335.041L14046.3913,-4335.3905L14046.7606,-4335.638L14046.9604,-4336.4441L14047.5311,-4336.7798L14047.8134,-4336.9362L14048.5397,-4336.9396L14049.1776,-4337.0461L14049.6948,-4336.7378L14050.0351,-4336.3384L14050.9079,-4335.8635L14051.4069,-4335.5293L14051.9928,-4335.26L14052.243,-4335.0929L14052.4765,-4334.7576L14052.5848,-4334.4604L14052.7283,-4334.2411L14053.8651,-4333.7933L14054.451,-4333.6403L14054.6143,-4333.2268L14054.5456,-4332.9163L14054.744,-4332.4902L14054.834,-4332.2704L14054.5807,-4331.4331"/>
<path content="AP030,1,28,1,0,14,1,8,JPN" xlink:title="AP030" d="M14045.9503,-4334.2602L14045.99,-4334.0134L14046.0602,-4333.9199L14046.2006,-4333.8333L14046.3806,-4333.7399L14046.4905,-4333.6533L14046.8994,-4333.2199L14047.0398,-4333.1264L14047.1497,-4333.0933L14047.3801,-4333.0933L14047.7402,-4333.1066L14047.9904,-4333.0933L14048.3093,-4333.0399L14048.4299,-4333.0399L14048.5794,-4333.073L14048.6801,-4333.073L14048.79,-4333.02L14048.8602,-4332.9865L14048.97,-4332.9865L14049.2004,-4332.9464L14049.5804,-4332.8934L14049.8306,-4332.84L14050.1099,-4332.7133L14050.3098,-4332.5867L14050.47,-4332.5001L14050.56,-4332.4799L14050.6805,-4332.4799L14050.9003,-4332.5665L14051.1093,-4332.5867L14051.2695,-4332.5665L14051.3992,-4332.513L14051.6098,-4332.3864L14051.77,-4332.28L14051.9501,-4332.2266L14052.3102,-4332.0999L14052.6093,-4331.953L14052.9907,-4331.813L14053.27,-4331.7398L14053.6804,-4331.72L14054.0604,-4331.6864L14054.2007,-4331.6532L14054.4296,-4331.5399L14054.5807,-4331.4331"/>
<path content="AP030,1,28,1,0,14,1,8,JPN" xlink:title="AP030" d="M14054.5807,-4331.4331L14054.7394,-4331.3267L14055.3604,-4330.9464L14055.8594,-4330.6599L14056.1295,-4330.5134L14056.1996,-4330.5L14056.3095,-4330.4798L14056.4896,-4330.4264L14056.5796,-4330.3734L14056.6803,-4330.2799L14056.9504,-4329.9198L14056.9901,-4329.7932L14057.0206,-4329.7199L14057.0602,-4329.6532L14057.1503,-4329.5799L14057.2906,-4329.5265L14057.3303,-4329.4533L14057.4905,-4329.2732L14057.6294,-4329.1264L14057.8293,-4328.9997L14058.0597,-4328.9467L14058.2001,-4328.9265L14058.2703,-4328.9467L14058.3603,-4329.0199L14058.4503,-4329.0398L14058.5602,-4329.0199L14058.6502,-4329.0398L14058.6807,-4329.1065L14058.6807,-4329.2732L14058.7204,-4329.3064L14058.8303,-4329.3064L14058.9493,-4329.2332L14059.0195,-4329.1798L14059.0805,-4329.1664L14059.1507,-4329.2L14059.2697,-4329.3598L14059.4696,-4329.6333L14059.7702,-4329.8466L14059.8297,-4329.8866L14059.8999,-4329.8466L14059.9503,-4329.8134L14060.0601,-4329.7199L14060.2005,-4329.6333L14060.3104,-4329.5799L14060.3806,-4329.5799L14060.5194,-4329.5799L14060.6995,-4329.5933L14060.9299,-4329.5799L14061.3098,-4329.5399L14061.5601,-4329.5399L14061.7203,-4329.5933L14061.8607,-4329.6333L14062.0193,-4329.6333L14062.1796,-4329.6333L14062.3093,-4329.5799L14062.4695,-4329.5265L14062.5,-4329.5265"/>
<path content="AP030,1,28,1,0,14,1,8,JPN" xlink:title="AP030" d="M14034.2896,-4326.4599L14034.3597,-4326.6399L14034.52,-4327.0733L14034.5795,-4327.2331L14034.6298,-4327.4132L14034.6802,-4327.6333L14034.6802,-4327.6665L14034.7,-4327.8332L14034.8099,-4328.0266L14034.8999,-4328.2997L14034.9701,-4328.5L14035.0204,-4328.6934L14035.0601,-4328.8597L14035.1105,-4328.9467L14035.2005,-4329.0932L14035.2402,-4329.2L14035.2402,-4329.4533L14035.2402,-4329.6333L14035.2905,-4329.6864L14035.4004,-4329.7733L14035.5804,-4329.9L14035.6506,-4330.0266L14035.6796,-4330.2464L14035.6995,-4330.4798L14035.7193,-4330.6599L14035.7697,-4330.8399L14035.8795,-4331.1466L14035.9299,-4331.2531L14035.9894,-4331.3267L14036.1298,-4331.3801L14036.2198,-4331.4533L14036.29,-4331.5266L14036.29,-4331.5933L14036.2198,-4331.6864L14036.1099,-4331.8466L14036.0794,-4331.953L14036.0794,-4332.0465L14036.1099,-4332.0999L14036.2396,-4332.1533L14036.3098,-4332.1934L14036.3998,-4332.2464L14036.5204,-4332.373L14036.5799,-4332.5531L14036.7203,-4332.84L14036.7706,-4332.9266L14036.8103,-4332.9666L14036.9507,-4332.9998L14037.4496,-4333.073L14037.5793,-4333.0933L14037.6801,-4333.073L14037.7701,-4333.0399L14037.8296,-4333.02L14037.9501,-4332.9464L14038.0798,-4332.84L14038.1302,-4332.7999L14038.2004,-4332.7999L14038.2706,-4332.84L14038.3301,-4332.9266L14038.4293,-4332.9666L14038.6505,-4332.9998L14038.8596,-4333.073L14038.9694,-4333.1264L14039.1098,-4333.1665L14039.3097,-4333.1665L14039.36,-4333.1467L14039.4699,-4333.1066L14039.5203,-4333.0933L14039.6301,-4333.02L14039.74,-4332.9666L14039.8102,-4332.9464L14039.9307,-4332.9464L14040.0604,-4332.9666L14040.1794,-4332.9998L14040.2206,-4333.02L14040.3305,-4333.073L14040.4495,-4333.1264L14040.5197,-4333.1665L14040.5594,-4333.1799L14040.6296,-4333.2001L14040.6998,-4333.2199L14040.8997,-4333.2333L14041.1102,-4333.2531L14041.1499,-4333.2531L14041.2399,-4333.2333L14041.3803,-4333.2001L14041.5207,-4333.1264L14041.7206,-4332.9998L14041.9006,-4332.9666L14042.0197,-4332.9464L14042.1494,-4332.9266L14042.3996,-4332.8598L14042.6102,-4332.8197L14042.7704,-4332.8197L14042.9001,-4332.84L14043.0206,-4332.8934L14043.2007,-4332.9666L14043.3594,-4333.02L14043.8293,-4333.1665L14044.2703,-4333.3065L14044.5801,-4333.4L14044.7403,-4333.4663L14045.0195,-4333.6533L14045.1797,-4333.7399L14045.2698,-4333.7734L14045.3796,-4333.7933L14045.4498,-4333.8135L14045.52,-4333.8467L14045.61,-4333.9733L14045.7001,-4334.1331L14045.7397,-4334.1732L14045.9503,-4334.2602"/>
<path content="AP030,1,28,1,0,14,1,4,JPN" xlink:title="AP030" d="M14033.6807,-4324.86L14034.2896,-4326.4599"/>
<path content="AP030,1,28,1,0,15,1,8,JPN" xlink:title="AP030" d="M14043.4494,-4314.1331L14045.4391,-4315.6494L14046.9177,-4316.4734L14048.2422,-4317.8268L14049.5667,-4318.5329L14049.9557,-4318.6508L14050.4227,-4318.5333L14051.1246,-4318.3571L14051.9028,-4318.5925L14052.5269,-4319.1219L14053.3051,-4320.2991L14053.5385,-4320.5345L14054.4739,-4321.1227L14055.0186,-4321.2406L14055.3299,-4320.7703L14055.1743,-4320.5936L14055.3299,-4320.2995L14055.6412,-4320.417L14056.3431,-4320.7703L14056.81,-4321.3001L14057.1991,-4321.3589L14057.4326,-4321.1823L14057.1991,-4320.5353L14057.1213,-4320.2412L14057.4326,-4320.2412L14057.8232,-4320.5353L14058.1345,-4320.6532L14058.5236,-4320.6532L14058.9127,-4320.8298L14059.5367,-4320.8298L14060.0815,-4320.6535L14060.704,-4320.536L14061.0153,-4320.6539L14061.4838,-4321.2421L14061.3281,-4321.9482L14061.3281,-4322.7718L14062.1063,-4323.6546L14062.5,-4324.2131"/>
<path content="AP030,1,28,1,0,14,1,8,JPN" xlink:title="AP030" d="M14033.6807,-4324.86L14033.4702,-4324.44L14033.2901,-4324.0463L14033.2397,-4323.9399L14033.2397,-4323.793L14033.2001,-4323.6664L14033.0795,-4323.5798L14032.9895,-4323.4333L14032.8796,-4323.3067L14032.8598,-4323.1998L14032.8094,-4323.0732L14032.8094,-4323.0198L14032.7896,-4322.8199L14032.8293,-4322.5864L14032.8293,-4322.44L14032.7896,-4322.3198L14032.7896,-4322.1733L14032.8293,-4322.0665L14032.9697,-4321.8998L14033.2901,-4321.7064L14033.4,-4321.6133L14033.49,-4321.5065L14033.6105,-4321.3799L14033.7006,-4321.3264L14033.9493,-4321.2334L14034.0195,-4321.1998L14034.1095,-4321.1464L14034.1797,-4320.9866L14034.2697,-4320.7333L14034.3994,-4320.5864L14034.5795,-4320.4597L14034.6802,-4320.3533L14034.8297,-4319.9734L14034.9503,-4319.5065L14035.0204,-4319.3066L14035.1105,-4319.1998L14035.2707,-4319.1067L14035.3806,-4318.9865L14035.5804,-4318.7332L14035.7697,-4318.5532L14035.8994,-4318.4399L14036.0199,-4318.3201L14036.0794,-4318.2598L14036.3297,-4318.1198L14036.4304,-4318.0798L14036.5204,-4318.0466L14036.7706,-4317.9199L14036.8805,-4317.8665L14036.9705,-4317.8333L14037.1094,-4317.7399L14037.1796,-4317.7067L14037.2406,-4317.6666L14037.3795,-4317.6132L14037.5595,-4317.5266L14037.6099,-4317.5064L14037.8601,-4317.3466L14037.9898,-4317.1799L14038.2004,-4316.9998L14038.4003,-4316.7866L14038.6307,-4316.6199L14038.7405,-4316.5665L14038.8794,-4316.4799L14039.2395,-4316.2998L14039.5798,-4316.2266L14039.9307,-4316.1198L14040.1306,-4316.0267L14040.4495,-4315.8131L14040.5594,-4315.7398L14040.7196,-4315.6864L14040.7898,-4315.6532L14040.8798,-4315.58L14041.0599,-4315.4331L14041.2704,-4315.3065L14041.5207,-4315.2L14041.6306,-4315.1264L14041.7892,-4314.9666L14041.9495,-4314.8399L14042.2394,-4314.7133L14042.3798,-4314.6198L14042.5598,-4314.4398L14042.6498,-4314.4264L14042.8101,-4314.4066L14042.9703,-4314.4066L14043.2404,-4314.4264L14043.4494,-4314.1331"/>
<path content="AP030,1,28,1,0,14,1,8,JPN" xlink:title="AP030" d="M14043.4494,-4314.1331L14043.2404,-4314.0133L14043.1503,-4313.8866L14043.1107,-4313.76L14043.1305,-4313.6868L14043.4494,-4313.3598L14043.5593,-4313.2866L14043.6798,-4313.2732L14043.8599,-4313.2732L14043.9499,-4313.2332L14044.0201,-4313.1798L14043.9896,-4313.0531L14044.0399,-4312.9997L14044.1101,-4312.9467L14044.1498,-4312.9265L14044.2902,-4312.8731L14044.3604,-4312.8399L14044.3802,-4312.7865L14044.3604,-4312.693L14044.4,-4312.64L14044.5404,-4312.6198L14044.5602,-4312.5866L14044.5602,-4312.5332L14044.5206,-4312.4599L14044.5206,-4312.3867L14044.5801,-4312.3333L14044.5801,-4312.2799L14044.5602,-4312.133L14044.6106,-4312.0266L14044.6503,-4311.94L14044.6793,-4311.8332L14044.7403,-4311.7397L14044.7693,-4311.7065L14044.8807,-4311.6333L14044.9905,-4311.5265L14045.1294,-4311.433L14045.1797,-4311.38L14045.2393,-4311.3068L14045.2393,-4311.2534L14045.1797,-4311.1465L14045.1797,-4311.0931L14045.1797,-4311.0397L14045.1797,-4311.0001L14045.2698,-4310.9264L14045.3094,-4310.873L14045.4346,-4310.8009L14045.5551,-4310.7502L14045.7001,-4310.6934L14045.8801,-4310.6934L14045.99,-4310.6197L14046.0602,-4310.5331L14046.1807,-4309.9731L14046.2402,-4309.7733L14046.4005,-4309.5066L14046.4493,-4309.4334L14046.4706,-4309.2331L14046.4706,-4309.1667L14046.5393,-4309.0401L14046.5805,-4308.8734L14046.6095,-4308.6933L14046.6095,-4308.6597L14046.6507,-4308.6067L14046.6995,-4308.5533L14046.8094,-4308.4801L14047.11,-4308.353L14047.1802,-4308.3332L14047.29,-4308.3L14047.58,-4308.3L14047.6807,-4308.2798L14047.7402,-4308.2466L14047.9004,-4308.1333L14048.1094,-4308.0132L14048.5199,-4307.8331L14048.7,-4307.7599L14048.8297,-4307.6332L14048.88,-4307.5798L14049.2905,-4307.18L14049.4705,-4306.9866L14049.6307,-4306.8932L14049.7192,-4306.7867L14049.8795,-4306.6067L14049.9298,-4306.5331L14049.9893,-4306.3332L14050.0793,-4306.0467L14050.1495,-4305.7598L14050.3601,-4305.3265L14050.4898,-4305.0934L14050.56,-4304.9267L14050.6104,-4304.7867L14050.7202,-4304.6066L14050.8606,-4304.4998L14050.9903,-4304.3865L14051.1307,-4304.2801L14051.2695,-4304.2267"/>
<path content="AP030,1,28,1,0,14,1,4,JPN" xlink:title="AP030" d="M14052.7405,-4303.6331L14051.5198,-4304.1199L14051.2695,-4304.2267"/>
<path content="AP030,1,28,1,0,14,1,8,JPN" xlink:title="AP030" d="M14052.2003,-4298.373L14052.7405,-4298.7133L14052.8107,-4298.7465L14052.8793,-4298.8197L14052.9007,-4298.9265L14052.9007,-4299.1798L14052.9495,-4299.2531L14053.0807,-4299.3797L14053.4897,-4299.7066L14053.9505,-4300.0999L14053.9703,-4300.1534L14054.0207,-4300.2068L14054.0604,-4300.2998L14054.1107,-4300.333L14054.2007,-4300.3731L14054.3304,-4300.4398L14054.3793,-4300.4997L14054.4296,-4300.7465L14054.4495,-4300.7999L14054.5395,-4301.2199L14054.5807,-4301.4866L14054.5807,-4301.58L14054.6097,-4301.6533L14054.7394,-4301.8467L14054.8996,-4302.1332L14055.04,-4302.4399L14055.0201,-4302.6199L14054.4495,-4302.9667L14054.3304,-4302.9865L14054.2007,-4303.0197L14053.7201,-4303.2867L14053.54,-4303.3798L14053.3295,-4303.4332L14052.7405,-4303.6331"/>
<path content="AP030,1,28,1,0,14,1,8,JPN" xlink:title="AP030" d="M14051.1307,-4298.0999L14051.3107,-4298.0999L14051.4694,-4298.1197L14051.6098,-4298.1331L14051.8799,-4298.2265L14052.2003,-4298.373"/>
<path content="AP030,1,28,1,0,14,1,8,JPN" xlink:title="AP030" d="M14052.2003,-4298.373L14052.3102,-4298.28L14052.4307,-4298.2998L14052.6794,-4298.32L14053.3997,-4298.3532L14053.6499,-4298.3334L14053.8803,-4298.2597L14054.1107,-4298.1934L14054.2404,-4298.1731L14054.3793,-4298.1934L14054.6295,-4298.2468L14055.2399,-4298.3868L14055.4703,-4298.4264L14055.6793,-4298.46L14055.8304,-4298.5001L14055.9296,-4298.513L14056.0394,-4298.513L14056.3095,-4298.46L14056.4896,-4298.4264L14056.9504,-4298.32L14057.2693,-4298.2468L14057.4905,-4298.2067L14058.1299,-4298.0801L14058.2901,-4298.0465L14058.4503,-4298.0267L14058.6304,-4298.0667L14059.0607,-4298.1197L14059.2407,-4298.0999L14059.7198,-4298.0465L14060.1303,-4298.0267L14060.4004,-4298.0267L14061.29,-4298.0133L14061.5601,-4298.0133L14061.9003,-4297.9931L14062.1796,-4297.953L14062.2696,-4297.953L14062.2894,-4297.953L14062.3795,-4297.9401L14062.5,-4297.9162"/>
<path content="AP030,1,28,1,0,15,1,8,JPN" xlink:title="AP030" d="M14051.1307,-4298.0999L14052.7359,-4297.2034L14054.8981,-4296.0258L14055.3787,-4295.4819L14056.5186,-4294.0773L14057.1198,-4293.0351L14056.9992,-4292.7181L14056.398,-4292.6273L14055.7968,-4292.8085L14055.4962,-4292.8082L14055.1956,-4292.5362L14055.3757,-4291.9926L14055.6763,-4291.5848L14055.6763,-4291.3128"/>
<path content="AP030,1,28,1,0,14,1,8,JPN" xlink:title="AP030" d="M14036.8805,-4287.7598L14036.9507,-4287.7934L14037.1796,-4287.8864L14037.2894,-4287.9932L14037.4695,-4288.3732L14037.8098,-4289.1666L14037.9303,-4289.4665L14037.97,-4289.74L14037.9898,-4289.7732L14038.0203,-4289.8331L14038.0402,-4289.9933L14038.0798,-4290.0799L14038.2004,-4290.2267L14038.2401,-4290.2798L14038.4705,-4290.5666L14038.7695,-4290.9866L14039.0594,-4291.3597L14039.2899,-4291.6531L14039.3997,-4291.7931L14039.5401,-4291.9399L14039.6301,-4292.0467L14039.6805,-4292.0799L14039.7202,-4292.0998L14039.83,-4292.1532L14039.9307,-4292.1734L14039.9902,-4292.2066L14040.0803,-4292.2466L14040.1306,-4292.26L14040.1993,-4292.2798L14040.2695,-4292.3199L14040.3107,-4292.3332L14040.4297,-4292.4267L14040.5594,-4292.5865L14040.6296,-4292.7467L14040.7394,-4292.8398L14040.8997,-4292.9466L14041.2003,-4293.1267L14041.33,-4293.2732L14041.4902,-4293.5799L14041.7206,-4293.8999L14041.8304,-4294.0666L14041.9495,-4294.1532L14042.0807,-4294.2265L14042.4896,-4294.4267L14042.9703,-4294.6198L14043.1503,-4294.7132L14043.2007,-4294.733L14043.3594,-4294.7666L14043.6096,-4294.8601L14043.6493,-4294.873L14043.8995,-4294.9467L14044.3298,-4295.0733L14044.6304,-4295.1797L14044.7906,-4295.2534L14044.9005,-4295.3266L14044.9707,-4295.4533L14045.0394,-4295.5067L14045.1797,-4295.5799L14045.2896,-4295.6532L14045.3293,-4295.6665L14045.4697,-4295.7199L14045.6802,-4295.7932L14045.7703,-4295.8332L14045.9702,-4295.9198L14046.1502,-4296.0133L14046.6507,-4296.2601L14046.8994,-4296.4397L14047.0596,-4296.5332L14047.3099,-4296.6599L14047.4503,-4296.7464L14047.6303,-4296.8933L14047.7005,-4296.9467L14047.7402,-4296.9666L14048.0194,-4297.0531L14048.1995,-4297.1066L14048.4497,-4297.2198L14048.7396,-4297.3064L14048.8297,-4297.3598L14048.8998,-4297.4133L14049.1806,-4297.6334L14049.3301,-4297.7398L14049.5193,-4297.7932L14049.8795,-4297.9198L14050.2701,-4298.0465L14050.3998,-4298.0801L14050.5798,-4298.0801L14050.7706,-4298.0801L14050.8804,-4298.0801L14051.1307,-4298.0999"/>
<path content="AP030,1,28,1,0,15,1,8,JPN" xlink:title="AP030" d="M14055.6763,-4291.3128L14055.7358,-4291.177L14056.2164,-4291.0866L14058.3206,-4290.9058L14059.4025,-4290.9512L14060.3027,-4290.8154L14060.8444,-4290.4984L14061.0229,-4288.686L14061.5631,-4288.0062L14061.5631,-4287.6888"/>
<path content="AP030,1,28,1,0,14,1,8,JPN" xlink:title="AP030" d="M14036.38,-4287.5267L14036.4502,-4287.5599L14036.5204,-4287.6133L14036.5601,-4287.6331L14036.7004,-4287.6865L14036.8805,-4287.7598"/>
<path content="AP030,1,28,1,0,15,1,8,JPN" xlink:title="AP030" d="M14061.5631,-4287.6888L14061.2793,-4286.9347L14062.0926,-4286.6932L14062.5,-4287.0555"/>
<path content="AP030,1,28,1,0,15,1,8,JPN" xlink:title="AP030" d="M14036.8805,-4287.7598L14039.2136,-4286.5974L14040.3854,-4285.6831L14040.6097,-4285.487L14041.0645,-4284.7664L14041.5588,-4284.3414L14042.2302,-4284.2793L14042.4988,-4284.182L14042.9947,-4283.6582L14043.1305,-4283.4618L14044.0689,-4283.3679L14044.3832,-4283.205L14045.0134,-4282.6492"/>
<path content="AP030,1,28,1,0,15,1,8,JPN" xlink:title="AP030" d="M14052.565,-4282.2227L14054.2557,-4282.9529L14055.2704,-4284.7977L14055.4886,-4285.4889L14055.5222,-4287.0338L14055.4321,-4287.1651L14054.7989,-4288.0829L14054.7958,-4288.5105L14054.48,-4288.8706L14054.6585,-4288.9042L14055.1514,-4288.7421L14055.5557,-4288.4804L14055.3741,-4288.8744L14054.9698,-4289.2014L14054.9683,-4289.3658L14055.6763,-4291.3128"/>
<path content="AP030,1,28,1,0,15,1,8,JPN" xlink:title="AP030" d="M14045.0134,-4282.6492L14045.6421,-4282.3891L14046.5805,-4282.1636L14047.5647,-4282.1022L14048.4512,-4282.7309L14049.205,-4283.3916L14050.0534,-4283.4614L14050.8133,-4283.366L14052.4689,-4283.0112L14052.6947,-4282.6836L14052.565,-4282.2227"/>
<path content="AP030,1,28,1,0,15,1,8,JPN" xlink:title="AP030" d="M14045.0134,-4282.6492L14044.7983,-4281.6948"/>
<path content="AP030,1,28,1,0,15,1,8,JPN" xlink:title="AP030" d="M14036.38,-4287.5267L14037.6083,-4286.293L14039.6896,-4283.6742L14041.8839,-4283.028L14043.1366,-4282.8373L14044.0765,-4282.5462L14044.7983,-4281.6948"/>
<path content="AP030,1,28,1,0,15,1,8,JPN" xlink:title="AP030" d="M14052.565,-4282.2227L14052.8793,-4281.8295L14053.3798,-4280.9666"/>
<path content="AP030,1,28,1,0,15,1,8,JPN" xlink:title="AP030" d="M14061.5631,-4287.6888L14061.3235,-4287.6434L14060.7224,-4287.7792L14060.1212,-4287.915L14059.8801,-4287.915L14059.52,-4287.5977L14059.52,-4286.8275L14059.6985,-4285.6491L14060.4187,-4284.1537L14061.441,-4283.6105L14062.5,-4283.9881"/>
<path content="AP030,1,28,1,0,14,1,8,JPN" xlink:title="AP030" d="M14048.88,-4279.76L14049.6094,-4280.0667L14049.7894,-4280.1201L14049.9695,-4280.1334L14050.2396,-4280.1334L14050.65,-4280.1533L14051.3794,-4280.1731L14051.5793,-4280.1731L14051.6998,-4280.1933L14052.1103,-4280.2467L14052.2903,-4280.2998L14052.3605,-4280.3333L14052.4002,-4280.3867L14052.4902,-4280.4398L14052.5604,-4280.4798L14052.6093,-4280.5L14052.6993,-4280.5332L14052.7893,-4280.64L14052.9007,-4280.7335L14053.0594,-4280.8201L14053.1494,-4280.8598L14053.2196,-4280.8933L14053.3798,-4280.9666"/>
<path content="AP030,1,28,1,0,14,1,8,JPN" xlink:title="AP030" d="M14053.3798,-4280.9666L14053.5202,-4281.0398L14053.6102,-4281.0398L14053.9749,-4280.9971L14054.2007,-4280.9998L14054.3106,-4281.0398L14054.3793,-4281.0734L14054.4693,-4281.1665L14054.5593,-4281.2199L14054.6997,-4281.2733L14055.13,-4281.3065L14055.3299,-4281.2866L14055.6793,-4281.2199L14055.9692,-4281.1665L14056.1996,-4281.1466L14056.6299,-4281.1466L14056.81,-4281.1268L14056.9901,-4281.0734L14057.1304,-4281.02L14057.2006,-4280.9666L14057.2403,-4280.8598L14057.2693,-4280.7667L14057.5394,-4280.6065L14058.2397,-4280.1731L14058.4702,-4280.0667L14058.6807,-4279.94L14058.8104,-4279.8866L14058.9706,-4279.8466L14059.1507,-4279.8332L14059.4299,-4279.76L14059.8999,-4279.6333L14059.9899,-4279.6131L14060.2402,-4279.5799L14060.4507,-4279.5601"/>
<path content="AP030,1,28,1,0,15,1,8,JPN" xlink:title="AP030" d="M14044.7983,-4281.6948L14045.607,-4281.1729L14046.0114,-4280.8788L14047.0367,-4281.015L14047.1268,-4280.9826L14046.7743,-4280.5206L14046.7789,-4279.9622L14047.3175,-4279.5372L14048.0331,-4279.4746L14048.88,-4279.76"/>
<path content="AP030,1,28,1,0,14,1,8,JPN" xlink:title="AP030" d="M14060.4507,-4279.5601L14060.7193,-4279.5265L14060.8994,-4279.4865L14061.0596,-4279.4334L14061.2396,-4279.38L14061.38,-4279.3266L14061.6104,-4279.1798L14061.8607,-4279.0733L14062.0407,-4279.0199L14062.1994,-4278.9867L14062.3993,-4278.9665L14062.4893,-4278.9467L14062.5,-4278.9422"/>
<path content="AP030,1,28,1,0,14,1,8,JPN" xlink:title="AP030" d="M14047.7203,-4275.9399L14048.6099,-4276.8932L14048.6496,-4276.9466L14048.7396,-4277.0931L14048.7701,-4277.1667L14048.7701,-4277.2758L14048.7701,-4277.2865L14048.79,-4277.4334L14048.8602,-4277.56L14049.0402,-4277.7199L14049.3103,-4277.9198L14049.3301,-4278.0132L14049.3607,-4278.1334L14049.4003,-4278.3531L14049.4293,-4278.5534L14049.4003,-4278.64L14049.2203,-4278.7998L14048.9899,-4278.9665L14048.88,-4279.1065L14048.8098,-4279.2332L14048.7701,-4279.3598L14048.79,-4279.5067L14048.8098,-4279.6867L14048.88,-4279.76"/>
<path content="AP030,1,28,1,0,15,1,8,JPN" xlink:title="AP030" d="M14044.7983,-4281.6948L14044.8135,-4279.9854L14044.3802,-4278.5698L14044.2932,-4278.2738L14044.7433,-4277.98L14045.639,-4277.557L14045.9076,-4277.4269L14045.9564,-4277.0325L14046.315,-4276.7056L14047.0047,-4276.4915L14047.2549,-4276.4141L14047.7203,-4275.9399"/>
<path content="AP030,1,28,1,0,14,1,8,JPN" xlink:title="AP030" d="M14029.4495,-4275.7401L14029.5593,-4276.0998L14029.6997,-4276.5667L14029.7897,-4276.7864L14029.8096,-4276.82L14029.8798,-4276.8734L14030.04,-4277L14030.3802,-4277.1999L14030.5405,-4277.2865L14030.5801,-4277.3598L14030.6305,-4277.4864L14030.6305,-4277.5799L14030.7007,-4277.6665L14030.7907,-4277.7733L14030.8105,-4277.8667L14030.8807,-4278.1532L14030.9296,-4278.2799L14031.0196,-4278.3867L14031.0394,-4278.5L14031.0196,-4278.9131L14031.0394,-4279.1466L14031.0806,-4279.3064L14031.2195,-4279.5799L14031.2195,-4279.6532L14031.1996,-4279.7199L14030.9906,-4279.8866L14030.9494,-4279.9534L14030.9296,-4280.1731L14030.9006,-4280.3333L14030.8304,-4280.4798L14030.6503,-4280.8598L14030.6107,-4281.1066L14030.5801,-4281.3599L14030.6503,-4281.7398L14030.6793,-4281.9733L14030.6793,-4282.5001L14030.7205,-4282.6401L14030.8105,-4282.7667L14031.1493,-4283.1665L14031.5598,-4283.4534L14031.8802,-4283.6533L14031.9901,-4283.72L14032.1793,-4283.8131L14032.3303,-4283.8665L14032.4707,-4283.9531L14032.6996,-4284.28L14032.7393,-4284.333L14032.7896,-4284.3731L14032.8598,-4284.4067L14033.0399,-4284.4601L14033.2001,-4284.5333L14033.6105,-4284.7866L14033.9706,-4285.0933L14034.1995,-4285.2734L14034.5398,-4285.4866L14034.7198,-4285.5801L14034.8602,-4285.6533L14034.9899,-4285.7731L14035.4706,-4286.4265L14035.6094,-4286.66L14035.6796,-4286.7867L14035.8093,-4286.8931L14035.9299,-4287.0399L14036.1099,-4287.2868L14036.2396,-4287.413L14036.38,-4287.5267"/>
<path content="AP030,1,28,1,0,14,1,8,JPN" xlink:title="AP030" d="M14039.3799,-4267.1265L14039.6301,-4267.3599L14039.8102,-4267.58L14039.9506,-4267.8333L14040.0192,-4268.0466L14040.1306,-4268.2465L14040.4297,-4268.9465L14040.6799,-4269.4534L14040.7898,-4269.5801L14040.95,-4269.6865L14041.1804,-4269.7933L14041.4505,-4269.8997L14041.5604,-4269.9532L14041.7206,-4270.0798L14041.8106,-4270.1534L14042.0593,-4270.2599L14042.1997,-4270.3335L14042.2699,-4270.4067L14042.4896,-4270.8733L14042.6498,-4271.2532L14042.7399,-4271.4535L14042.9901,-4271.9734L14043.0603,-4272.1535L14043.0603,-4272.3L14043.0603,-4272.5132L14043.0603,-4272.6799L14043.1107,-4272.8397L14043.1503,-4272.9668L14043.2205,-4273.0534L14043.3105,-4273.1464L14043.4906,-4273.4135L14043.6996,-4273.6534L14043.7393,-4273.6866L14043.9301,-4273.7934L14044.1299,-4273.9201L14044.31,-4273.9735L14044.5206,-4273.9933L14044.7403,-4274.0131L14045.1096,-4274.0265L14045.52,-4274.0799L14045.6299,-4274.0997L14045.99,-4274.1531L14046.1105,-4274.2065L14046.1502,-4274.2599L14046.9696,-4275.1266L14047.7203,-4275.9399"/>
<path content="AP030,1,28,1,0,14,1,8,JPN" xlink:title="AP030" d="M14036.9507,-4265.1466L14036.9904,-4265.3599L14037.0193,-4265.5266L14036.9904,-4265.6666L14036.9003,-4265.8466L14036.7706,-4266.0465L14036.7004,-4266.2266L14036.6806,-4266.3532L14036.6806,-4266.5531L14036.7203,-4266.6798L14036.8607,-4266.8598L14037.0193,-4266.9865L14037.0804,-4267.0734L14037.1506,-4267.1799L14037.2696,-4267.2531L14037.3795,-4267.3267L14037.4893,-4267.3599L14037.6495,-4267.3798L14037.6999,-4267.3798L14039.0198,-4267.0933L14039.2197,-4267.0532L14039.2395,-4267.0532L14039.3097,-4267.0734L14039.3799,-4267.1265"/>
<path content="AP030,1,28,1,0,15,1,8,JPN" xlink:title="AP030" d="M14039.3799,-4267.1265L14039.8651,-4266.6344L14041.7175,-4265.3572L14043.1747,-4264.9357L14043.9178,-4264.7488L14044.1803,-4264.4798"/>
<path content="AP030,1,28,1,0,16,1,8,JPN" xlink:title="AP030" d="M14044.1803,-4264.4798L14044.5404,-4264.5535L14047.2702,-4264.7465L14047.9706,-4264.8197L14048.6801,-4264.7865L14050.5798,-4264.5332L14052.0599,-4264.3532L14053.1296,-4264.1335"/>
<path content="AP030,1,28,1,0,14,1,8,JPN" xlink:title="AP030" d="M13985.2905,-4263.8466L13985.6094,-4264.2265L13985.6293,-4264.2799L13985.6995,-4264.3734L13985.7193,-4264.46L13985.7407,-4264.5L13985.7895,-4264.6065L13985.8093,-4264.6935L13985.8597,-4264.8399L13985.8795,-4264.9467L13985.9497,-4265.1066L13985.9894,-4265.1665L13986.1099,-4265.2199L13986.2396,-4265.2733L13986.3297,-4265.3465L13986.47,-4265.5399L13986.4899,-4265.5933L13986.5799,-4265.7734L13986.7905,-4266.0667L13986.8805,-4266.1533L13986.9003,-4266.2266L13986.9507,-4266.3532L13986.9705,-4266.4066L13987.0407,-4266.4398L13987.1094,-4266.46L13987.2192,-4266.4997L13987.4496,-4266.5333L13987.5397,-4266.5531L13987.6099,-4266.5867L13987.6495,-4266.6397L13987.7701,-4266.7667L13987.8601,-4266.84L13987.9501,-4266.8732L13988.2202,-4266.9865L13988.3804,-4267.0399L13988.5193,-4267.0933L13988.5803,-4267.1066L13988.7695,-4267.2333L13988.8794,-4267.3599L13988.9694,-4267.4133L13989.1296,-4267.4866L13989.3295,-4267.58L13989.6103,-4267.7734L13989.8102,-4267.9199L13990.0803,-4268.0134L13990.4495,-4268.0668L13990.8295,-4268.0668L13991.04,-4268.0798L13991.7404,-4268.3201L13992.0395,-4268.4265L13992.1295,-4268.4799L13992.1799,-4268.5532L13992.2699,-4268.66L13992.3996,-4268.7466L13992.54,-4268.7866L13992.6804,-4268.8198L13992.9504,-4268.8L13993.4906,-4268.7866L13993.9896,-4268.8L13994.4504,-4268.84L13994.7006,-4268.84L13994.9295,-4268.8198L13995.0394,-4268.8198L13995.5795,-4268.7866L13995.7397,-4268.8L13995.9305,-4268.84L13996.0602,-4268.8934L13996.1807,-4268.9266L13996.2906,-4268.9266L13996.7194,-4268.9667L13996.9299,-4268.9865L13997.0596,-4269.0201L13997.1497,-4269.0399L13997.3602,-4269.0201L13997.58,-4268.9667L13997.9004,-4268.8599L13998.1094,-4268.7668L13998.2407,-4268.7466L13998.3994,-4268.7668L13998.6099,-4268.8599L13998.8098,-4269.0201L13998.9304,-4269.0735L13999.0204,-4269.0735L13999.2004,-4269.0735L13999.6796,-4268.9465L13999.8306,-4268.8599L13999.9893,-4268.7332L14000.1297,-4268.66L14000.2899,-4268.6199L14000.6104,-4268.6066L14000.9003,-4268.5867L14001.0193,-4268.5867L14001.4297,-4268.5867L14001.5594,-4268.6199L14001.5793,-4268.6798L14001.6098,-4268.7866L14001.6495,-4268.84L14001.7395,-4268.8599L14001.9302,-4268.8599L14002.0203,-4268.8599L14002.2003,-4268.8599L14002.33,-4268.8599L14002.4704,-4268.84L14002.6093,-4268.7866L14002.7893,-4268.7466L14003.1494,-4268.7466L14003.4302,-4268.8L14003.6301,-4268.84L14003.7704,-4268.8934L14003.9001,-4268.9999L14003.9703,-4269.0201L14004.1107,-4269.0399L14004.2404,-4269.0735L14004.4006,-4269.1799L14004.6494,-4269.3798L14004.7699,-4269.4534L14004.9301,-4269.5267L14005.2704,-4269.6533L14005.6305,-4269.8334L14005.7007,-4269.8868L14005.7693,-4269.92L14005.8594,-4269.9734L14005.9906,-4270.0134L14006.1295,-4270.0665L14006.2195,-4270.1199L14006.3293,-4270.2801L14006.5598,-4270.5666L14006.7001,-4270.66L14006.7703,-4270.7466L14006.7703,-4270.8733L14006.6803,-4271.36L14006.72,-4271.4867L14006.8298,-4271.6133L14006.9702,-4271.7197L14006.9901,-4271.74L14007.5394,-4272.2466L14007.5806,-4272.3L14007.8995,-4272.5864L14008.0597,-4272.8733L14008.1299,-4272.9267L14008.2001,-4272.9668L14008.2901,-4272.9866L14008.6105,-4273L14008.7204,-4273.0534L14008.8104,-4273.1667L14008.8593,-4273.1998L14008.9493,-4273.2334L14009.0607,-4273.3467L14009.1797,-4273.4135L14009.3796,-4273.4867L14009.5398,-4273.5268L14009.7397,-4273.5065L14009.9503,-4273.4531L14010.0601,-4273.4665L14010.3104,-4273.5798L14010.4294,-4273.5931L14010.6293,-4273.5931L14010.7895,-4273.6668L14011.0596,-4273.8132L14011.1496,-4273.8667L14011.2198,-4273.8998L14011.4502,-4274.0131L14011.6806,-4274.1932L14011.7203,-4274.2599L14011.7203,-4274.4598L14011.7905,-4274.5335L14011.9293,-4274.5865L14012.4496,-4274.6201L14012.7701,-4274.6399L14012.8601,-4274.6201L14013.0203,-4274.5865L14013.15,-4274.6067L14013.2706,-4274.6399L14013.3606,-4274.7334L14013.4705,-4274.9134L14013.5193,-4274.9466L14013.6307,-4274.9664L14013.7894,-4274.9268L14013.8992,-4274.9268L14014.1098,-4275.0198L14014.3097,-4275.1266L14014.36,-4275.1667L14014.3799,-4275.1999L14014.4501,-4275.3468L14014.5599,-4275.4665L14014.74,-4275.6664L14014.8804,-4275.7935L14014.9704,-4275.8999L14015.1794,-4276.3733L14015.1794,-4276.5533L14015.1794,-4276.7334L14015.1505,-4276.7864L14015.0803,-4276.86L14014.9307,-4276.9867L14014.8605,-4277.0535L14014.8804,-4277.1797L14014.9506,-4277.3067L14015.0803,-4277.4334L14015.2405,-4277.5799L14015.3793,-4277.7931L14015.5197,-4278.0266L14015.6998,-4278.3199L14015.95,-4278.68L14016.2399,-4279.0733L14016.4703,-4279.3465L14016.7892,-4279.6532L14016.9907,-4279.94L14017.3996,-4280.3532L14017.6804,-4280.64L14018.0801,-4281.0532L14018.2007,-4281.2332L14018.3105,-4281.5399L14018.4006,-4281.72L14018.5593,-4281.9199L14018.6798,-4282.0801L14018.7698,-4282.2266L14018.8293,-4282.2998L14018.8995,-4282.3334L14018.9697,-4282.3532L14019.0796,-4282.3334L14019.1498,-4282.2598L14019.2398,-4282.0801L14019.3604,-4281.7932L14019.4901,-4281.5933L14019.8593,-4281.2866L14020.2393,-4280.9998L14020.52,-4280.8399L14020.7397,-4280.7667L14020.99,-4280.7335L14021.1502,-4280.6599L14021.2204,-4280.64L14021.4005,-4280.5534L14021.5607,-4280.4798L14021.7896,-4280.4398L14021.9696,-4280.3867L14022.0795,-4280.32L14022.2198,-4280.2067L14022.3099,-4280.08L14022.4304,-4279.94L14022.7005,-4279.7199L14022.8104,-4279.6131L14022.9904,-4279.4666L14023.1995,-4279.2732L14023.2895,-4279.1267L14023.3093,-4278.9467L14023.3597,-4278.7132L14023.3994,-4278.5L14023.4894,-4278.2467L14023.6298,-4277.9732L14023.8098,-4277.6867L14023.9304,-4277.5265L14023.9502,-4277.4864L14024.0402,-4277.3266L14024.1104,-4277.2865L14024.2401,-4277.1999L14024.3607,-4277.0931L14024.4507,-4276.9466L14024.5804,-4276.82L14024.7406,-4276.7132L14024.9298,-4276.6598L14025.1099,-4276.6399L14025.1999,-4276.6068L14025.3296,-4276.5331L14025.56,-4276.3332L14026.0803,-4276.12L14026.5594,-4275.8865L14026.8295,-4275.7065L14027.0599,-4275.6134L14027.24,-4275.6134L14027.8107,-4275.6664L14027.8793,-4275.6664L14028.3295,-4275.7065L14028.9001,-4275.7065L14028.9703,-4275.7065L14029.2404,-4275.7065L14029.4495,-4275.7401"/>
<path content="AP030,1,28,1,0,16,1,8,JPN" xlink:title="AP030" d="M14043.6188,-4263.7722L14043.7698,-4264.08L14043.9499,-4264.3734L14044.1803,-4264.4798"/>
<path content="AP030,1,28,1,0,15,1,8,JPN" xlink:title="AP030" d="M14036.9507,-4265.1466L14038.4674,-4264.3394L14040.3748,-4263.9683L14041.893,-4263.8809L14043.6188,-4263.7722"/>
<path content="AP030,1,28,1,0,15,1,8,JPN" xlink:title="AP030" d="M14044.1803,-4264.4798L14044.4412,-4264.0366L14044.7021,-4263.7043"/>
<path content="AP030,1,28,1,0,15,1,8,JPN" xlink:title="AP030" d="M14043.6188,-4263.7722L14044.7021,-4263.7043"/>
<path content="AP030,1,28,1,0,15,1,8,JPN" xlink:title="AP030" d="M14060.4507,-4279.5601L14060.7773,-4279.1241L14060.8368,-4278.5347L14060.7162,-4277.8549L14060.1151,-4277.1751L14058.7921,-4276.6762L14058.1909,-4276.1776L14057.9498,-4275.407L14057.8293,-4274.4102L14056.3248,-4272.2347L14056.0852,-4271.2376L14056.4453,-4270.6486L14057.106,-4270.4224L14057.3456,-4270.0596L14058.2458,-4268.7458L14058.7265,-4267.8848L14059.2667,-4266.5707L14060.1669,-4265.6193L14060.0464,-4265.3023L14059.6268,-4265.1661L14059.3857,-4264.9845L14059.2651,-4264.6221L14058.8455,-4264.6221L14058.4839,-4264.5767L14058.4244,-4264.2593L14058.6105,-4263.6532"/>
<path content="AP030,1,28,1,0,16,1,8,JPN" xlink:title="AP030" d="M14057.0602,-4263.5265L14057.6797,-4263.6131L14058.6105,-4263.6532"/>
<path content="AP030,1,28,1,0,16,1,4,JPN" xlink:title="AP030" d="M14057.0602,-4263.5265L14056.6803,-4263.4666L14055.9296,-4263.3999L14055.4703,-4263.4533L14054.5395,-4263.7066L14053.2394,-4264.1197L14053.1296,-4264.1335"/>
<path content="AP030,1,28,1,0,15,1,8,JPN" xlink:title="AP030" d="M14029.4495,-4275.7401L14030.2414,-4274.7086L14030.5008,-4273.7255L14030.7617,-4272.7818L14030.6564,-4271.8773L14030.4474,-4271.13L14030.4993,-4270.3434L14030.9677,-4269.7536L14031.2286,-4269.2425L14031.2531,-4268.3865L14031.2805,-4267.4728L14030.9204,-4266.9823L14030.7297,-4266.1354L14030.4794,-4265.4789L14030.4581,-4264.8869L14030.4657,-4264.8602L14030.6656,-4264.1697L14031.4697,-4263.6021L14032.0404,-4263.2"/>
<path content="AP030,1,28,1,0,14,1,8,JPN" xlink:title="AP030" d="M14032.0404,-4263.2L14032.2006,-4263.0932L14032.3105,-4263.0733L14032.5195,-4263.0531L14032.6492,-4263.0398L14032.8293,-4262.9665L14033.0597,-4262.8399L14033.1802,-4262.7998L14033.3099,-4262.8201L14033.4503,-4262.8933L14033.6807,-4263.1065L14033.7906,-4263.1798L14034.1507,-4263.2534L14034.4894,-4263.3266L14034.8099,-4263.3266L14035.2402,-4263.3064L14035.8597,-4263.2534L14036.2396,-4263.2534L14036.3297,-4263.3064L14036.38,-4263.3598L14036.3998,-4263.4335L14036.38,-4263.5067L14036.3297,-4263.7199L14036.3602,-4263.9935L14036.38,-4264.2265L14036.4304,-4264.32L14036.5799,-4264.5535L14036.6302,-4264.6198L14036.8103,-4264.9265L14036.9507,-4265.1466"/>
<path content="AP030,1,28,1,0,14,1,4,JPN" xlink:title="AP030" d="M13985.2905,-4263.8466L13985.0601,-4263.6333L13984.9701,-4263.5265L13984.8801,-4263.3801L13984.7397,-4263.1664L13984.61,-4262.9665L13984.4696,-4262.7335L13984.4498,-4262.6934"/>
<path content="AP030,1,28,1,0,14,1,8,JPN" xlink:title="AP030" d="M13983.9905,-4262.3199L13984.0195,-4262.3531L13984.0393,-4262.3867L13984.2407,-4262.5134L13984.3994,-4262.6198L13984.4498,-4262.6934"/>
<path content="AP030,1,28,1,0,14,1,4,JPN" xlink:title="AP030" d="M13983.9905,-4262.3199L13983.9706,-4262.2265L13983.9493,-4261.8866L13983.8593,-4261.2534L13983.8104,-4260.9135"/>
<path content="AP030,1,28,1,0,15,1,8,JPN" xlink:title="AP030" d="M14044.7021,-4263.7043L14045.961,-4263.6387L14046.5454,-4263.2362L14047.2626,-4262.4771L14048.0423,-4261.7657L14048.79,-4261.1973L14048.7198,-4260.3001"/>
<path content="AP030,1,28,1,0,16,1,8,JPN" xlink:title="AP030" d="M14058.6105,-4263.6532L14060.0204,-4263.4335L14060.8307,-4263.2866L14061.5601,-4262.9868L14062.5,-4262.0979"/>
<path content="AP030,1,28,1,0,15,1,8,JPN" xlink:title="AP030" d="M14058.6105,-4263.6532L14059.1446,-4263.1721L14059.8648,-4263.0363L14060.9467,-4262.8551L14061.6074,-4262.2208L14062.5,-4261.1878"/>
<path content="AP030,1,28,1,0,14,1,8,JPN" xlink:title="AP030" d="M14048.7198,-4260.3001L14048.97,-4260.2798L14049.8306,-4260.0998L14050.0397,-4260.0266L14050.3799,-4259.8465L14050.9506,-4259.5798L14051.3794,-4259.3597L14051.4893,-4259.3468L14051.8097,-4259.3468L14053.5202,-4259.4666L14053.6301,-4259.5066L14053.6804,-4259.5798L14053.7399,-4259.6664L14053.7903,-4259.7065L14053.8605,-4259.7198L14053.9505,-4259.7065L14054.0207,-4259.6664L14054.1504,-4259.56L14054.2404,-4259.5398L14054.3793,-4259.5398L14054.4907,-4259.5798L14054.6295,-4259.6333L14054.6997,-4259.6664L14055.0797,-4259.8133L14055.3101,-4259.8999L14055.5603,-4260.0132L14055.6503,-4260.0468L14055.7907,-4260.0998L14055.8304,-4260.1734L14055.9006,-4260.3199L14055.9494,-4260.4797L14055.9692,-4260.5133L14056.0196,-4260.5534L14056.0593,-4260.5865L14056.1295,-4260.6068L14056.2897,-4260.5865L14056.9,-4260.4797L14057.0206,-4260.4267L14057.2006,-4260.3001L14057.6294,-4259.9934L14057.7896,-4259.8999L14057.8995,-4259.8866L14058.02,-4259.8866L14058.1299,-4259.9197L14058.2199,-4260.0132L14058.3099,-4260.2264L14058.3801,-4260.26L14058.4702,-4260.3001L14058.6304,-4260.3001L14058.7402,-4260.26L14058.8303,-4260.2264L14058.9706,-4260.0998L14059.0393,-4259.8999L14059.0805,-4259.7733L14059.1507,-4259.7065L14059.2194,-4259.6664L14059.2896,-4259.6664L14059.3796,-4259.6535L14059.4498,-4259.6134L14059.4498,-4259.5798L14059.4498,-4259.5264L14059.3796,-4259.4131L14059.3796,-4259.3597L14059.3994,-4259.3067L14059.4498,-4259.2731L14059.5398,-4259.2731L14059.6802,-4259.3266L14059.8801,-4259.4131L14059.9503,-4259.4666L14060.2203,-4259.6535L14060.2905,-4259.6867L14060.7895,-4260.0468L14060.8994,-4260.1532L14060.9497,-4260.2798L14061.0397,-4260.3535L14061.1801,-4260.3867L14061.3297,-4260.4065L14061.4899,-4260.4065L14061.6302,-4260.3867L14061.8607,-4260.3001L14062.4695,-4260.0666L14062.5,-4260.0654"/>
<path content="AP030,1,28,1,0,16,1,8,JPN" xlink:title="AP030" d="M14037.1307,-4252.9865L14038.4293,-4253.6133L14038.5605,-4253.7197L14038.6505,-4253.8998L14038.7695,-4254.7867L14038.8992,-4255.0533L14039.3799,-4255.74L14039.7705,-4256.4266L14040.1993,-4256.8398L14040.86,-4257.4532L14041.3605,-4257.9533L14042.7002,-4258.8398L14042.9901,-4259.1667L14043.0801,-4259.4532L14043.1305,-4260.3333L14043.0801,-4260.9867L14043.1305,-4261.2732L14043.2907,-4261.4864L14043.5394,-4261.8999L14043.5394,-4262.08L14043.4692,-4262.3531L14043.4296,-4263.1466L14043.4692,-4263.4666L14043.6188,-4263.7722"/>
<path content="AP030,1,28,1,0,14,1,8,JPN" xlink:title="AP030" d="M14032.0404,-4263.2L14031.9305,-4263.2732L14031.8802,-4263.2732L14031.81,-4263.2534L14031.7398,-4263.2198L14031.6498,-4263.1065L14031.5399,-4262.9467L14031.5201,-4262.8597L14031.5598,-4262.7132L14031.7001,-4262.3531L14031.72,-4262.2601L14031.7902,-4262.08L14031.7902,-4261.9534L14031.7703,-4261.7733L14031.6299,-4261.4532L14031.3797,-4260.9467L14031.1996,-4260.5865L14031.1295,-4260.5L14031.0196,-4260.4599L14030.9006,-4260.4515L14030.7404,-4260.4401L14030.6793,-4260.3867L14030.6107,-4260.3199L14030.5405,-4260.1933L14030.5206,-4260.0132L14030.5206,-4259.7065L14030.5603,-4259.5398L14030.7205,-4259.2197L14031.0593,-4258.82L14031.2393,-4258.6399L14031.3095,-4258.5667L14031.5796,-4258.1932L14031.9305,-4257.8335L14032.1793,-4257.5268L14032.4707,-4257.1667L14032.5394,-4257.0934L14032.8995,-4256.6799L14033.2199,-4256.3534L14033.4503,-4256.1199L14033.6502,-4255.8334L14033.7906,-4255.6866L14033.9005,-4255.6332L14033.9966,-4255.6011L14034.0607,-4255.5798L14034.2896,-4255.5401L14034.4498,-4255.4867L14034.5596,-4255.4134L14034.7702,-4255.22L14035.0403,-4254.8931L14035.1303,-4254.7665L14035.2005,-4254.6799L14035.3104,-4254.4399L14035.4507,-4254.1733L14035.5804,-4254.0134L14035.7697,-4253.8998L14036.1298,-4253.7067L14036.4502,-4253.5599L14036.6501,-4253.4866L14036.8103,-4253.4L14036.9293,-4253.2867L14037.0605,-4253.0731L14037.1307,-4252.9865"/>
<path content="AP030,1,28,1,0,14,1,8,JPN" xlink:title="AP030" d="M14038.2202,-4251.8467L14038.5803,-4252.2266L14039.0594,-4252.6398L14039.4501,-4252.8599L14039.9002,-4253.3264L14040.8798,-4254.2065L14041.5802,-4254.8199L14042.2699,-4255.3799L14042.4896,-4255.5798L14043.2693,-4256.2267L14044.4305,-4257.1667L14045.4895,-4257.9735L14045.5597,-4258.0265L14045.5399,-4258.12L14045.4483,-4258.2165L14045.2698,-4258.4064L14045.0806,-4258.68L14045.0607,-4258.8398L14045.1294,-4259.1465L14045.1294,-4259.1801L14045.1996,-4259.2865L14045.3094,-4259.38L14045.7199,-4259.5264L14045.99,-4259.6333L14046.08,-4259.6867L14046.2006,-4259.8465L14046.2402,-4259.8866L14046.3104,-4259.8866L14046.3806,-4259.8667L14046.4905,-4259.7935L14046.5607,-4259.7935L14046.6995,-4259.7935L14046.7896,-4259.8465L14046.8307,-4259.9533L14046.8796,-4260.0468L14046.9299,-4260.08L14046.9894,-4260.0998L14047.2198,-4260.12L14047.3999,-4260.1532L14047.4899,-4260.1933L14047.58,-4260.2066L14047.9294,-4260.3001L14048.1796,-4260.3199L14048.6099,-4260.3199L14048.7198,-4260.3001"/>
<path content="AP030,1,28,1,0,14,1,8,JPN" xlink:title="AP030" d="M14037.1307,-4252.9865L14037.2192,-4252.84L14037.4298,-4252.5867L14037.6099,-4252.3533L14037.6495,-4252.3197L14037.8296,-4252.1732L14038.0112,-4252.021L14038.2202,-4251.8467"/>
<path content="AP030,1,28,1,0,14,1,8,JPN" xlink:title="AP030" d="M13983.8104,-4260.9135L13983.8104,-4260.8734L13983.7692,-4260.6197L13983.7006,-4260.3333L13983.6304,-4260.1334L13983.5205,-4259.9934L13983.3801,-4259.8465L13983.1802,-4259.7401L13982.8995,-4259.6333L13982.6797,-4259.5264L13982.6294,-4259.4666L13982.6294,-4259.3998L13982.6294,-4259.2533L13982.6797,-4259.1801L13982.7194,-4259.0733L13982.7194,-4259L13982.7194,-4258.9664L13982.7393,-4258.9134L13982.7393,-4258.86L13982.7698,-4258.7997L13982.7896,-4258.5865L13982.8293,-4258.4064L13982.8796,-4258.3332L13982.9498,-4258.2066L13982.9895,-4258.1333L13983.2001,-4257.8999L13983.3099,-4257.74L13983.4,-4257.6134L13983.5403,-4257.4333L13983.58,-4257.3265L13983.58,-4257.2533L13983.5602,-4257.1266L13983.5205,-4257.04L13983.5403,-4256.9866L13983.5403,-4256.8932L13983.5602,-4256.8398L13983.6105,-4256.7665L13983.7006,-4256.5132L13983.7006,-4256.4266L13983.7006,-4256.3534L13983.6304,-4256.2599L13983.6304,-4256.1733L13983.6304,-4256.0799L13983.7006,-4255.9532L13983.7006,-4255.8468L13983.7006,-4255.7732L13983.6807,-4255.6866L13983.7006,-4255.5931L13983.7906,-4255.4665L13983.8104,-4255.4134L13983.8303,-4255.36L13983.8806,-4255.2734L13983.9005,-4255.2334L13983.9294,-4255.1666L13983.9294,-4255.1067L13983.9493,-4254.9866L13983.9706,-4254.7333L13984.0195,-4254.4998L13984.0607,-4254.2999L13984.0805,-4254.1733L13984.1095,-4254.0798L13984.2407,-4253.8334L13984.3597,-4253.6667L13984.4299,-4253.54L13984.4696,-4253.4L13984.5596,-4253.2734L13984.7198,-4253.0731L13984.8099,-4252.9133L13984.8297,-4252.84L13984.8602,-4252.7466L13984.8297,-4252.6066L13984.7702,-4252.4597L13984.7198,-4252.3335L13984.7,-4252.2598L13984.6802,-4252.1534L13984.6497,-4252.0267L13984.5795,-4251.7597L13984.5398,-4251.6132L13984.4894,-4251.5064L13984.4696,-4251.4L13984.4894,-4251.2531"/>
<path content="AP030,1,28,1,0,14,1,4,JPN" xlink:title="AP030" d="M13984.4894,-4251.2531L13984.5596,-4251.0399L13984.6298,-4250.7999L13984.6497,-4250.5333L13984.7,-4250.3334"/>
<path content="AP030,1,28,1,0,16,1,8,JPN" xlink:title="AP030" d="M14037.1307,-4252.9865L14036.3912,-4252.6597L14036.0145,-4252.4428L14035.58,-4252.127L14034.75,-4251.369L14034.44,-4251.103L14034.15,-4250.83L14033.88,-4250.487L14033.75,-4250.287L14033.68,-4250.145L14033.6,-4249.967L14033.54,-4249.748L14033.44,-4249.386L14033.34,-4248.939L14033.31,-4248.75L14033.28,-4248.527L14033.21,-4248.346L14033.15,-4248.177L14033.07,-4248.003L14032.85,-4247.634L14030.541,-4244.2864"/>
<path content="AP030,1,28,1,0,14,1,8,JPN" xlink:title="AP030" d="M14032.5806,-4244.1532L14032.7698,-4244.4401L14033.2703,-4245.2L14033.3603,-4245.4334L14033.49,-4245.7199L14033.6304,-4245.9534L14033.7402,-4246.0999L14033.8303,-4246.1933L14033.9493,-4246.32L14034.1095,-4246.5668L14034.2697,-4246.8201L14034.6802,-4247.4667L14034.8099,-4247.6532L14035.1105,-4247.9733L14035.6293,-4248.6065L14036.0596,-4249.1264L14036.3602,-4249.4331L14036.7004,-4249.9401L14036.8607,-4250.1534L14036.9003,-4250.2266L14037.3306,-4250.84L14037.5793,-4251.1467L14038.2202,-4251.8467"/>
<path content="AP030,1,28,1,0,14,1,8,JPN" xlink:title="AP030" d="M14030.541,-4244.2864L14031.0394,-4244.1334L14031.1996,-4244.12L14031.5399,-4244.1933L14032.0206,-4244.2799L14032.1106,-4244.2799L14032.2876,-4244.2348L14032.4005,-4244.2066L14032.5806,-4244.1532"/>
<path content="AP030,1,28,1,0,14,1,8,JPN" xlink:title="AP030" d="M13984.7,-4250.3334L13984.7,-4250.2998L13984.6497,-4250.1934L13984.5596,-4250.1202L13984.4894,-4250.0668L13984.4498,-4250.0267L13984.4498,-4249.9401L13984.4894,-4249.8135L13984.5795,-4249.6666L13984.7397,-4249.5399L13984.8801,-4249.4534L13984.9899,-4249.3801L13985.0204,-4249.3267L13984.9899,-4249.2733L13984.8999,-4249.2001L13984.874,-4249.1192L13984.8526,-4248.9861L13984.8297,-4248.6401L13984.8602,-4248.3734L13984.8297,-4248.2601L13984.79,-4248.1731L13984.7702,-4248.0999L13984.79,-4248.0465L13984.8999,-4247.8867L13984.9304,-4247.7402L13984.967,-4247.5689L13984.9915,-4247.4998L13985.0204,-4247.4667L13985.1501,-4247.3465L13985.2203,-4247.2198L13985.2402,-4247.02L13985.2707,-4246.9265L13985.3302,-4246.7999L13985.4294,-4246.64L13985.4507,-4246.4802L13985.4294,-4246.32L13985.3607,-4246.1201L13985.2707,-4245.9934L13985.1807,-4245.8668L13985.1501,-4245.8466L13985.0204,-4245.7401L13985.0204,-4245.6867L13985.0403,-4245.6135L13985.1105,-4245.5601L13985.2707,-4245.4533L13985.3302,-4245.3266L13985.5392,-4244.8601L13985.5606,-4244.68L13985.5606,-4244.5133L13985.5392,-4244.3733L13985.4706,-4244.1334L13985.4004,-4243.94L13985.3806,-4243.7599L13985.3607,-4243.6134L13985.3302,-4243.5265L13985.2905,-4243.4532L13985.2402,-4243.3998L13985.2402,-4243.3266L13985.3104,-4243.0733L13985.3806,-4242.9665L13985.4706,-4242.8932L13985.5804,-4242.8398L13985.6506,-4242.8001L13985.6995,-4242.7334L13985.8246,-4242.4267"/>
<path content="AP030,1,28,1,0,14,1,8,JPN" xlink:title="AP030" d="M14000.8301,-4242.9867L14001.5793,-4243.0733L14001.68,-4243.0733L14001.7899,-4243.0401L14001.86,-4243L14001.8997,-4242.9665L14001.9699,-4242.9466L14002.0798,-4242.9268L14002.2202,-4242.9268L14002.4307,-4242.8932L14002.5803,-4242.86L14002.6993,-4242.86L14002.9297,-4242.8932L14003.0807,-4242.8734L14003.2898,-4242.8398L14003.5797,-4242.7467L14003.7201,-4242.7467L14003.9001,-4242.7467L14004.0405,-4242.7334L14004.4907,-4242.6399L14004.6494,-4242.6399L14004.8996,-4242.6399L14005.0598,-4242.6201L14005.2704,-4242.5865L14005.8304,-4242.5133L14005.9494,-4242.4801L14006.0593,-4242.4065L14006.1996,-4242.2264L14006.3095,-4242.1001L14006.3599,-4242.0666L14006.4301,-4242.0265L14006.5796,-4242.0265L14006.7902,-4242.0467L14007.2403,-4242.12L14007.3593,-4242.1333L14007.4905,-4242.1333L14007.5806,-4242.12L14007.6492,-4242.0467L14007.6996,-4241.9933L14007.7698,-4241.8465L14007.8293,-4241.8133L14007.93,-4241.7732L14008.0795,-4241.7732L14008.2199,-4241.7732L14008.3603,-4241.7599L14008.5602,-4241.6664L14008.7006,-4241.6332L14008.8593,-4241.6332L14008.9706,-4241.6664L14009.0805,-4241.7065L14009.2896,-4241.8667L14009.5795,-4242.0799L14009.7,-4242.1532L14009.8099,-4242.1932L14009.9304,-4242.2066L14010.2203,-4242.2066L14010.4706,-4242.1932L14011.6974,-4242.4098L14012.2799,-4242.5773L14012.8212,-4242.7905L14013.2803,-4242.9885L14013.6024,-4243.1256L14013.993,-4243.2221L14014.5412,-4243.3287L14015.0072,-4243.4454L14016.1804,-4243.8133L14016.2704,-4243.8667L14016.6306,-4243.9934L14016.7007,-4244.0666L14016.7892,-4244.1933L14016.8106,-4244.3333L14016.8304,-4244.4599L14016.8793,-4244.5133L14016.9693,-4244.5667L14017.1799,-4244.6201L14017.3294,-4244.68L14017.4698,-4244.7865L14017.5201,-4244.8734L14017.5201,-4245.0001L14017.4698,-4245.1065L14017.3294,-4245.2866L14017.2897,-4245.4132L14017.3096,-4245.5067L14017.3599,-4245.5799L14017.4896,-4245.6867L14017.5797,-4245.76L14017.6498,-4245.9L14017.7399,-4246.0464L14017.7704,-4246.08L14017.8604,-4246.1201L14018.1107,-4246.1735L14018.2693,-4246.2265L14018.3594,-4246.2799L14018.4006,-4246.3333L14018.4296,-4246.4066L14018.4692,-4246.4401L14018.5394,-4246.4802L14018.6295,-4246.5134L14018.7393,-4246.6064L14018.9301,-4246.7335L14019.1498,-4246.8933L14019.2001,-4246.9131L14019.3298,-4246.9666L14019.5801,-4247.02L14019.7205,-4247.0531L14019.8105,-4247.1066L14020.0394,-4247.2866L14020.0806,-4247.3267L14020.4895,-4247.4335L14020.61,-4247.4335L14020.7397,-4247.3999L14020.8603,-4247.3465L14021.3303,-4247.1268L14021.4005,-4247.1066L14021.4905,-4247.1066L14021.6507,-4247.1466L14021.7407,-4247.1664L14021.8597,-4247.1466L14021.9498,-4247.1066L14022.1802,-4247.0734L14022.29,-4247.0402L14022.4304,-4246.9666L14022.4899,-4246.9467L14022.6501,-4246.9467L14022.7905,-4246.9868L14022.9706,-4247.0402L14023.0392,-4247.0734L14023.6099,-4247.2198L14023.79,-4247.2332L14023.88,-4247.2L14024.0204,-4247.1466L14024.1302,-4247.0932L14024.3103,-4247.0734L14024.8306,-4247.0734L14025.0198,-4247.0734L14025.1297,-4247.1066L14025.2396,-4247.1664L14025.3098,-4247.1664L14025.3998,-4247.1664L14025.5203,-4247.1066L14025.7706,-4246.9265L14025.9506,-4246.8201L14026.0605,-4246.7133L14026.2207,-4246.5L14026.3596,-4246.3333L14026.4496,-4246.2799L14026.4893,-4246.2601L14026.6296,-4246.2467L14026.9897,-4246.1533L14027.24,-4246.0999L14027.3605,-4246.08L14027.7695,-4246.0999L14027.8595,-4246.08L14027.9297,-4246.0464L14028.0807,-4245.94L14028.3096,-4245.7733L14028.3798,-4245.7401L14028.5599,-4245.7401L14028.6499,-4245.7199L14029.0405,-4245.4865L14029.0802,-4245.4533L14029.1794,-4245.2732L14029.7897,-4244.7334L14030.0598,-4244.4599L14030.1498,-4244.4065L14030.541,-4244.2864"/>
<path content="AP030,1,28,1,0,14,1,8,JPN" xlink:title="AP030" d="M13988.15,-4241.3067L13988.2904,-4241.5066L13988.3804,-4241.5798L13988.5193,-4241.6134L13988.7695,-4241.6866L13988.8992,-4241.7599L13989.18,-4241.9399L13989.2899,-4242.0265L13989.4302,-4242.1932L13989.6103,-4242.3L13989.9002,-4242.4065L13990.77,-4242.68L13991.1499,-4242.7868L13991.4001,-4242.86L13991.4703,-4242.8932L13991.4703,-4242.9466L13991.4703,-4243L13991.5405,-4243.0534L13991.6504,-4243.0733L13991.7694,-4243.0733L13992.3096,-4242.9665L13992.4301,-4242.9665L13992.5797,-4243.0199L13992.9001,-4243.1267L13993.4692,-4243.3266L13993.5806,-4243.3468L13993.6798,-4243.3468L13993.8599,-4243.3067L13993.9896,-4243.2732L13994.1803,-4243.2335L13994.3298,-4243.1999L13994.4901,-4243.1801L13994.8303,-4243.2201L13995.0806,-4243.2335L13996.1304,-4243.3266L13996.7697,-4243.38L13997.2397,-4243.4132L13997.9294,-4243.4868L13998.6099,-4243.56L13998.6298,-4243.56L13999.2203,-4243.6134L13999.2706,-4243.6134L13999.3607,-4243.6134L13999.4003,-4243.6134L13999.4904,-4243.5932L13999.5407,-4243.56L13999.5605,-4243.56L13999.6796,-4243.5265L13999.8596,-4243.4868L13999.9893,-4243.4532L14000.0595,-4243.4132L14000.0793,-4243.38L14000.1099,-4243.3468L14000.1099,-4243.0733L14000.1801,-4242.9867L14000.2396,-4242.9466L14000.4303,-4242.9268L14000.8301,-4242.9867"/>
<path content="AP030,1,28,1,0,14,1,8,JPN" xlink:title="AP030" d="M13985.8246,-4242.4267L13985.9894,-4242.0799L13986.0794,-4241.9731L13986.2396,-4241.8465L13986.29,-4241.8331L13986.47,-4241.7934L13986.7401,-4241.7732L13986.9705,-4241.7732L13987.1307,-4241.74L13987.2192,-4241.7065L13987.4496,-4241.5932L13987.6801,-4241.4867L13987.9303,-4241.3601L13988.06,-4241.3067L13988.15,-4241.3067"/>
<path content="AP030,1,28,1,0,15,1,8,JPN" xlink:title="AP030" d="M13999.91,-4241.1396L14001.2665,-4241.8564L14000.8301,-4242.9867"/>
<path content="AP030,1,28,1,0,15,1,8,JPN" xlink:title="AP030" d="M13988.4903,-4240.62L13990.274,-4241.3158L13991.0416,-4241.6313L13991.2796,-4241.6336L13993.3701,-4241.1247L13993.9667,-4240.9981L13995.6329,-4240.9252L13996.402,-4241.1964L13999.91,-4241.1396"/>
<path content="AP030,1,28,1,0,14,1,8,JPN" xlink:title="AP030" d="M13988.15,-4241.3067L13988.3804,-4240.8932L13988.4506,-4240.7467L13988.4903,-4240.62"/>
<path content="AP030,1,28,1,0,14,1,8,JPN" xlink:title="AP030" d="M13988.4903,-4240.62L13988.5803,-4240.4064L13988.6093,-4240.3198L13988.5803,-4240.1333L13988.5406,-4239.8464L13988.4903,-4239.6667L13988.5193,-4239.6332L13988.5406,-4239.5599L13988.6307,-4239.4665L13988.7405,-4239.36L13988.7894,-4239.2334L13988.8107,-4239.18L13988.9297,-4238.9866L13988.9496,-4238.9267L13989.0594,-4238.7135L13989.1495,-4238.62L13989.27,-4238.5532L13989.2899,-4238.48L13989.3295,-4238.3865L13989.4699,-4238.2599L13989.7003,-4238.1001L13989.74,-4238.0798L13989.8102,-4238.0466L13989.8605,-4237.9932L13989.83,-4237.9002L13989.7003,-4237.0934L13989.7003,-4236.9999L13989.74,-4236.9465L13989.8605,-4236.8732L13990.5396,-4236.5868L13990.7394,-4236.4601L13990.7898,-4236.4067L13990.8295,-4236.2999L13990.8295,-4236.1332L13990.8295,-4236.0664L13990.8798,-4236.0268L13990.8997,-4235.9734L13990.8997,-4235.9001L13990.86,-4235.8467L13990.8096,-4235.7933L13990.77,-4235.7067L13990.7394,-4235.5598L13990.6998,-4235.4134L13990.6799,-4235.3065L13990.6494,-4235.2734L13990.6799,-4235.2333L13990.77,-4235.22L13990.86,-4235.1799L13990.95,-4235.1067L13991.1102,-4234.8934L13991.2201,-4234.6931L13991.33,-4234.5867L13991.5802,-4234.4265L13991.7206,-4234.2999L13991.7404,-4234.2068"/>
<path content="AP030,1,28,1,0,15,1,8,JPN" xlink:title="AP030" d="M13977.5787,-4232.4467L13977.3529,-4232.8487L13977.9419,-4234.5425L13978.1067,-4235.0693L13978.8422,-4235.3691L13979.6127,-4235.701L13980.0369,-4235.9585L13980.6091,-4236.6322L13981.7078,-4237.4931L13981.7825,-4238.2351L13981.958,-4238.7051L13982.4722,-4238.5067L13983.0673,-4238.4686L13983.4778,-4238.7371L13983.6487,-4239.1354L13983.6945,-4239.8849L13983.6853,-4240.4137L13983.9767,-4240.6811L13984.5078,-4240.9065L13984.9213,-4241.0431L13985.4507,-4241.4009L13985.8246,-4242.4267"/>
<path content="AP030,1,28,1,0,15,1,8,JPN" xlink:title="AP030" d="M13999.91,-4241.1396L14000.647,-4239.6477L14001.3214,-4238.3759L14001.326,-4238.0672L14001.033,-4237.8445L14000.6775,-4237.7533L14000.09,-4237.3077L14000.0397,-4236.7344L14000.4135,-4235.68L14000.0412,-4232.9006L14000.1129,-4232.1522L14000.4227,-4231.3179L14000.6668,-4230.8353L14000.798,-4230.043L14001.0437,-4229.5166L14001.3428,-4229.3869L14001.6495,-4228.7285L14002.1286,-4228.4683L14003.4485,-4227.5543"/>
<path content="AP030,1,28,1,0,14,1,8,JPN" xlink:title="AP030" d="M14032.5806,-4244.1532L14032.4005,-4243.8465L14032.0801,-4243.4132L14031.8298,-4242.9665L14031.5598,-4242.5133L14030.9494,-4241.4131L14030.5603,-4240.6067L14030.5405,-4240.5533L14030.2399,-4239.8998L14029.9698,-4239.22L14029.6494,-4238.66L14029.5395,-4238.4602L14029.3594,-4238.0466L14029.2404,-4237.7399L14029.1504,-4237.4866L14029.1306,-4237.4001L14028.9505,-4236.6798L14028.83,-4236.3033L14028.7003,-4235.9001L14028.4302,-4235.0533L14028.1799,-4234.3201L14027.9495,-4233.6132L14027.6794,-4232.9666L14027.6306,-4232.7866L14027.5192,-4232.3532L14027.4704,-4232.0465L14027.4506,-4231.9L14027.4002,-4231.7402L14027.2705,-4231.2332L14027.24,-4230.9666L14027.1805,-4230.1731L14027.1103,-4229.3465L14027.1301,-4228.9665L14027.15,-4228.7132L14027.2186,-4228.2063L14027.24,-4228.0464L14027.2705,-4227.6867L14027.3102,-4227.2732"/>
<path content="AP030,1,28,1,0,16,1,8,JPN" xlink:title="AP030" d="M14030.541,-4244.2864L14030.18,-4243.763L14029.98,-4243.559L14029.88,-4243.359L14029.86,-4243.078L14029.84,-4242.866L14029.83,-4242.628L14029.8,-4242.393L14029.3,-4241.638L14028.98,-4241.083L14028.73,-4240.671L14028.47,-4240.221L14028.23,-4239.751L14028.13,-4239.377L14027.87,-4238.441L14027.74,-4238.041L14027.58,-4237.598L14027.44,-4237.217L14027.3,-4236.893L14027.17,-4236.651L14027,-4236.316L14026.86,-4236.004L14026.76,-4235.723L14026.65,-4235.403L14026.51,-4234.937L14026.33,-4234.29L14026.25,-4233.986L14026.21,-4233.593L14026.16,-4233.339L14026.03,-4233.043L14025.84,-4232.777L14025.55,-4232.519L14025.21,-4232.222L14024.97,-4231.988L14024.72,-4231.707L14024.59,-4231.483L14024.51,-4231.179L14024.48,-4230.852L14024.46,-4230.524L14024.47,-4230.116L14024.51,-4229.704L14024.62,-4229.465L14024.85,-4229.007L14025.02,-4228.657L14025.31,-4228.202L14025.54,-4227.767L14025.55,-4227.486L14025.54,-4227.17L14025.51,-4227.005L14025.5061,-4226.9929"/>
<path content="AP030,1,28,1,0,15,1,8,JPN" xlink:title="AP030" d="M13991.7404,-4234.2068L13992.8421,-4233.717L13993.3929,-4232.7087L13994.3558,-4232.0126L13995.5536,-4231.3625L13996.2143,-4230.8838L13996.4005,-4230.4008L13996.7072,-4229.8309L13997.5479,-4229.1775L13998.6328,-4228.1734L13999.353,-4227.6512L14000.3113,-4227.0866L14000.6104,-4226.9569L14001.0239,-4227.0489L14001.5549,-4227.1854L14002.803,-4227.108L14003.4485,-4227.5543"/>
<path content="AP030,1,28,1,0,15,1,8,JPN" xlink:title="AP030" d="M14025.5061,-4226.9929L14026.1292,-4226.923L14026.5274,-4227.0409L14027.3102,-4227.2732"/>
<path content="AP030,1,28,1,0,15,1,8,JPN" xlink:title="AP030" d="M14003.4485,-4227.5543L14004.1077,-4227.1633L14006.1234,-4227.2678L14009.4376,-4227.7794L14011.9186,-4228.6358L14013.6826,-4229.7951L14015.2298,-4229.454L14016.4307,-4228.4492L14016.8549,-4227.8355L14018.576,-4227.7596L14021.2006,-4226.3332"/>
<path content="AP030,1,28,1,0,15,1,8,JPN" xlink:title="AP030" d="M14021.9696,-4226.26L14022.995,-4226.572L14023.8541,-4226.8913L14024.7803,-4227.0744L14025.5061,-4226.9929"/>
<path content="AP030,1,28,1,0,14,1,8,JPN" xlink:title="AP030" d="M14027.3102,-4227.2732L14027.33,-4226.7132L14027.3804,-4226.5133L14027.4704,-4226.3L14027.5406,-4226.2264"/>
<path content="AP030,1,28,1,0,14,1,8,JPN" xlink:title="AP030" d="M14021.2006,-4226.3332L14021.3593,-4226.2466L14021.4905,-4226.2066L14021.6293,-4226.2066L14021.7697,-4226.2066L14021.9696,-4226.26"/>
<path content="AP030,1,28,1,0,16,1,8,JPN" xlink:title="AP030" d="M14025.5061,-4226.9929L14025.35,-4226.512L14025.14,-4226.077L14024.7696,-4225.5402"/>
<path content="AP030,1,28,1,0,14,1,8,JPN" xlink:title="AP030" d="M14021.9696,-4226.26L14022.0795,-4226.26L14022.2198,-4226.26L14022.3999,-4226.2264L14022.5601,-4226.1734L14022.7203,-4226.12L14022.9706,-4225.9731L14023.3093,-4225.8133L14023.6801,-4225.6866L14023.8602,-4225.6664L14024.3607,-4225.6535L14024.5193,-4225.6332L14024.6994,-4225.5402L14024.7696,-4225.5402L14024.8795,-4225.5264L14025.0662,-4225.5264"/>
<path content="AP030,1,28,1,0,14,1,8,JPN" xlink:title="AP030" d="M14025.0662,-4225.5264L14025.0793,-4225.5264L14025.3098,-4225.4868L14025.47,-4225.4131L14025.5203,-4225.4002L14025.65,-4225.3799L14025.8102,-4225.4131L14025.9903,-4225.4333L14026.3107,-4225.4868L14026.5594,-4225.4868L14026.68,-4225.4868L14026.68,-4225.6535L14026.6953,-4225.6794L14026.7197,-4225.7198L14026.86,-4225.7935L14026.8997,-4225.8331L14027.4002,-4226.1734L14027.5406,-4226.2264"/>
<path content="AP030,1,28,1,0,14,1,8,JPN" xlink:title="AP030" d="M13986.4899,-4222.0665L13986.5601,-4222.1199L13986.9293,-4222.3866L13987.2894,-4222.6601L13987.6999,-4223L13987.8098,-4223.1068L13988.06,-4223.2533L13988.2202,-4223.3265L13988.2904,-4223.3467L13988.4003,-4223.3467L13988.4903,-4223.3467L13988.6307,-4223.3601L13988.7405,-4223.4001L13988.8306,-4223.4531L13988.8596,-4223.5065L13988.8596,-4223.5802L13988.8596,-4223.6534L13988.7894,-4223.74L13988.7695,-4223.7934L13988.7695,-4223.8464L13988.8306,-4223.8998L13988.8794,-4223.9532L13988.9297,-4224.0265L13988.9297,-4224.1333L13988.8794,-4224.2466L13988.7695,-4224.3332L13988.7405,-4224.3866L13988.8107,-4224.4598L13988.8992,-4224.4801L13988.9893,-4224.4999L13989.0793,-4224.4999L13989.1998,-4224.4801L13989.3295,-4224.4801L13989.5401,-4224.4999L13989.65,-4224.4999L13989.7003,-4224.5335L13989.7705,-4224.6201L13989.83,-4224.7131L13989.8605,-4224.8199L13989.7705,-4224.9268L13989.7705,-4224.9664L13989.7903,-4225.0198L13989.9704,-4225.2201L13990.0406,-4225.3067L13990.1306,-4225.4532L13990.3305,-4225.8667L13990.4297,-4226.1333L13990.4495,-4226.26L13990.4907,-4226.4999L13990.6097,-4226.9135L13990.6296,-4227.0199L13990.7196,-4227.0733L13990.8295,-4227.1465L13990.8798,-4227.2533L13990.8798,-4227.4334L13990.86,-4227.5265L13990.7196,-4227.6134L13990.6998,-4227.6665L13990.6998,-4227.7065L13990.7196,-4227.7199L13990.86,-4227.8332L13990.95,-4227.9533L13990.9897,-4228.0666L13990.9698,-4228.1532L13990.86,-4228.26L13990.77,-4228.4065L13990.77,-4228.4599L13990.8295,-4228.5332L13990.8997,-4228.64L13990.8798,-4228.7132L13990.77,-4228.82L13990.7196,-4228.8933L13990.6998,-4228.9867L13990.6494,-4229.2534L13990.6296,-4229.3465L13990.6097,-4229.4334L13990.5396,-4229.5601L13990.4007,-4229.7199L13990.3595,-4229.8134L13990.3305,-4229.9732L13990.3793,-4230.1201L13990.4694,-4230.2467L13990.4694,-4230.3532L13990.4495,-4230.4268L13990.4007,-4230.5134L13990.4007,-4230.6065L13990.4495,-4230.7667L13990.4007,-4230.8201L13990.3595,-4230.9265L13990.3595,-4230.9868L13990.4007,-4231.0398L13990.4694,-4231.0532L13990.6296,-4231.1268L13990.6998,-4231.2L13990.7394,-4231.2733L13990.7394,-4231.3465L13990.6998,-4231.4133L13990.6296,-4231.4865L13990.6296,-4231.5399L13990.6799,-4231.58L13990.7196,-4231.6532L13990.7196,-4231.72L13990.6998,-4231.8333L13990.5807,-4231.9401L13990.5594,-4232.0133L13990.5807,-4232.0465L13990.6799,-4232.0999L13990.7394,-4232.1533L13990.8798,-4232.3868L13990.8997,-4232.4799L13990.8798,-4232.5665L13990.7898,-4232.6599L13990.77,-4232.7332L13990.7394,-4232.7999L13990.7394,-4232.8602L13990.86,-4232.9468L13990.9698,-4233.0399L13991.1102,-4233.1799L13991.2003,-4233.3065L13991.3803,-4233.4133L13991.4902,-4233.5068L13991.5802,-4233.5934L13991.5802,-4233.6864L13991.4902,-4233.7734L13991.4703,-4233.8333L13991.5207,-4233.8665L13991.6107,-4233.9199L13991.7007,-4233.9535L13991.7206,-4234.0134L13991.7404,-4234.2068"/>
<path content="AP030,1,28,1,0,15,1,8,JPN" xlink:title="AP030" d="M13978.5309,-4227.9636L13978.6087,-4227.5482L13978.5416,-4227.0088L13977.9465,-4226.5373L13977.7237,-4226.207L13977.8503,-4225.7679L13978.4073,-4225.0546L13979.126,-4224.1951L13979.7882,-4223.6732L13980.7465,-4223.1987L13982.1732,-4222.9931L13983.9005,-4222.2237L13984.6863,-4222.1676L13986.4899,-4222.0665"/>
<path content="AP030,1,28,1,0,14,1,8,JPN" xlink:title="AP030" d="M14027.5406,-4226.2264L14027.6794,-4226.0468L14027.7405,-4225.9731L14028.0594,-4225.6535L14028.3798,-4225.3601L14028.45,-4225.2865L14028.7399,-4224.9664L14028.8803,-4224.8001L14029.0802,-4224.5667L14029.2892,-4224.3534L14029.3015,-4224.3366L14029.3793,-4224.2268L14029.4495,-4224.1734L14029.8798,-4224.0265L14030.1804,-4223.9399L14030.2704,-4223.8998L14030.4901,-4223.8335L14030.6503,-4223.74L14030.8594,-4223.6866L14031.4499,-4223.5802L14031.7001,-4223.56L14031.7276,-4223.5626L14031.9,-4223.5802L14032.0633,-4223.5176L14032.2495,-4223.4383L14032.6294,-4223.2735L14032.7194,-4223.2201L14033.5403,-4222.8733L14033.8806,-4222.7867L14033.9294,-4222.7619L14034.288,-4222.71L14034.5795,-4222.6067L14034.8999,-4222.5132L14035.1807,-4222.4998L14036.322,-4222.4384L14036.6806,-4222.3866L14036.9293,-4222.3202L14037.0193,-4222.2801L14037.3795,-4222.2065L14037.6099,-4222.1535L14037.8296,-4222.0467L14038.15,-4221.8864L14038.7405,-4221.5599L14039.1098,-4221.3467L14039.27,-4221.2334L14039.4501,-4221.1266L14039.4928,-4221.0983L14039.7202,-4220.9465L14039.8605,-4220.8935L14040.0192,-4220.8599"/>
<path content="AP030,1,28,1,0,16,1,8,JPN" xlink:title="AP030" d="M14024.7696,-4225.5402L14024.5615,-4224.8205L14025.065,-4224.1107L14025.9296,-4223.7371L14027.7991,-4223.8085L14029.0967,-4223.7609L14030.1422,-4223.3844L14030.9597,-4222.5092L14032.1088,-4222.507L14032.9655,-4222.5511L14034.6255,-4221.9898L14036.1332,-4222.0978L14037.5764,-4221.121L14038.81,-4220.6837L14039.6817,-4220.487"/>
<path content="AP030,1,28,1,0,14,1,8,JPN" xlink:title="AP030" d="M14040.4907,-4220.5868L14040.7394,-4220.2801L14040.9698,-4220.0802L14041.1804,-4219.9402L14041.3605,-4219.8868L14041.6107,-4219.8868L14041.6794,-4219.8868L14041.8335,-4219.8326L14041.9067,-4219.7723L14042.0212,-4219.7239L14042.0593,-4219.6667L14042.0197,-4219.4668L14041.9907,-4219.3066L14041.9907,-4219.1666L14042.0197,-4219.0533L14042.0395,-4219.0201L14042.1097,-4218.9133L14042.2897,-4218.8202L14042.45,-4218.7866L14042.5685,-4218.75M14043.2193,-4218.75L14043.3105,-4218.7668L14043.3807,-4218.8L14043.4906,-4218.8L14043.5593,-4218.7668L14043.5712,-4218.75"/>
<path content="AP030,1,28,1,0,15,1,8,JPN" xlink:title="AP030" d="M13951.7812,-4218.75L13951.8478,-4218.8251L13952.5894,-4219.8235L13952.9068,-4220.023L13953.595,-4220.5021L13953.6484,-4221.0613L13953.9139,-4221.7003L13954.9728,-4222.8981L13955.5557,-4224.2958L13955.8105,-4224.5609L13955.8014,-4224.6876L13955.6915,-4224.7471L13955.5908,-4224.6792L13955.3879,-4224.366L13955.2017,-4224.0444L13954.9805,-4223.7823L13954.6432,-4223.5622L13954.3121,-4223.4859L13954.0085,-4223.3337L13953.5934,-4223.2407L13953.2715,-4223.2323L13953.1189,-4223.1308L13952.3666,-4222.7753L13951.7059,-4222.5468L13951.4603,-4222.53L13951.2497,-4222.5128L13951.0635,-4222.4453L13950.9872,-4222.2759L13950.8774,-4221.9376L13950.6989,-4221.7091L13950.4028,-4221.4214L13950.209,-4221.2181L13950.1663,-4221.0491L13950.2258,-4220.863L13950.2762,-4220.702L13950.2335,-4220.5242L13950.1328,-4220.3804L13950.0229,-4220.2198L13950.0397,-4220.0588L13950.0229,-4219.8811L13949.8276,-4219.6442L13949.3027,-4219.3821L13948.7701,-4219.2551L13948.558,-4219.2043L13948.3124,-4219.0434L13947.9996,-4218.9503L13947.6242,-4218.8633"/>
<path content="AP030,1,28,1,0,15,1,8,JPN" xlink:title="AP030" d="M13947.6242,-4218.8633L13947.7213,-4218.75"/>
<path content="AP030,1,28,1,0,14,1,8,JPN" xlink:title="AP030" d="M14010.4176,-4218.75L14010.5194,-4218.9667L14010.5606,-4219.0399L14010.6506,-4219.0735L14010.7895,-4219.0533L14010.8597,-4219.0399L14010.9695,-4219.0735L14011.0199,-4219.0933L14011.0794,-4219.0735L14011.1099,-4219.0201L14011.1298,-4218.9667L14011.2,-4218.9465L14011.2701,-4218.9999L14011.38,-4219.0533L14011.47,-4219.0735L14011.6806,-4219.0933L14011.8103,-4219.1799L14011.8301,-4219.22L14012.1094,-4219.6533L14012.1307,-4219.7201L14012.1094,-4219.92L14012.1307,-4219.9734L14012.2192,-4220.0134L14012.3596,-4219.9932L14012.4695,-4219.9932L14012.5793,-4220.0268L14012.6999,-4220.1534L14012.7701,-4220.1935L14012.8601,-4220.2065L14012.9898,-4220.1935L14013.2706,-4220.1199L14013.3606,-4220.1199L14013.5406,-4220.1733L14013.6795,-4220.2065L14013.7695,-4220.2065L14013.9496,-4220.1935L14014.0594,-4220.1935L14014.1296,-4220.1935L14014.2197,-4220.2465L14014.3295,-4220.3335L14014.3997,-4220.3533L14014.4897,-4220.3732L14014.6301,-4220.3865L14014.7202,-4220.4067L14014.7903,-4220.48L14014.83,-4220.5666L14014.8804,-4220.7333L14014.9002,-4220.7867L14014.9704,-4220.8L14015.0604,-4220.8199L14015.1505,-4220.8401L14015.2405,-4220.9133L14015.3305,-4220.9866L14015.4495,-4221.04L14015.5396,-4221.04L14015.6799,-4221.04L14015.77,-4221.0533L14015.8997,-4221.22L14016.0202,-4221.2532L14016.1499,-4221.2734L14016.2201,-4221.3066L14016.3101,-4221.4001L14016.4703,-4221.5801L14016.5802,-4221.6534L14016.7007,-4221.7068L14016.9006,-4221.7602L14017.0395,-4221.7934L14017.1295,-4221.8468L14017.2897,-4222.0135L14017.3599,-4222.0665L14017.4698,-4222.1001L14017.63,-4222.1733L14017.72,-4222.2267L14017.9001,-4222.48L14018.3304,-4222.8733L14018.4494,-4222.9134L14018.6295,-4222.9267L14018.9499,-4222.9267L14019.0399,-4222.9668L14019.1498,-4223.1464L14019.1498,-4223.3067L14019.1101,-4223.4135L14019.0598,-4223.4665L14019.0598,-4223.5065L14019.1299,-4223.56L14019.3298,-4223.6534L14019.4,-4223.7064L14019.4504,-4223.8667L14019.5206,-4223.9735L14019.5801,-4224.0665L14019.6106,-4224.1932L14019.6304,-4224.2466L14019.6503,-4224.3L14019.7906,-4224.4064L14019.9295,-4224.4801L14020.0195,-4224.5667L14020.0394,-4224.6399L14020.0806,-4224.7467L14020.2194,-4224.9134L14020.3293,-4225.0401L14020.43,-4225.1465L14020.4498,-4225.2731L14020.3995,-4225.4868L14020.4498,-4225.6134L14020.5399,-4225.7198L14020.7703,-4225.9533L14021.0403,-4226.2264L14021.2006,-4226.3332"/>
<path content="AP030,1,28,1,0,14,1,8,JPN" xlink:title="AP030" d="M13986.4899,-4222.0665L13986.6302,-4221.8468L13986.7203,-4221.7934L13986.9904,-4221.6534L13987.2894,-4221.4664L13987.6801,-4221.2002L13987.9898,-4220.9667L13988.06,-4220.8935L13988.1699,-4220.7325L13988.1805,-4220.5132L13988.1805,-4220.4399L13988.15,-4220.3201L13988.1699,-4220.0695L13988.1744,-4219.9051L13988.2477,-4219.6629L13988.2812,-4219.4717L13988.2904,-4219.3535L13988.3057,-4219.2905L13988.3347,-4219.2516L13988.475,-4219.1696L13988.5529,-4219.1017L13988.5956,-4219.0678L13988.6642,-4219.0147L13988.765,-4218.8599L13988.8221,-4218.75"/>
<path content="AP030,1,28,1,0,15,1,8,JPN" xlink:title="AP030" d="M13942.0413,-4218.75L13942.3767,-4219.0662L13942.6086,-4219.3275L13942.8696,-4219.4435L13943.2175,-4219.4145L13943.6234,-4219.2406L13943.7075,-4220.1987L13943.9967,-4220.488L13944.2539,-4221.0665L13945.5716,-4220.4558L13947.0823,-4219.9094L13947.171,-4218.7813L13947.6242,-4218.8633"/>
<path content="AP030,1,28,1,1,16,1,8,JPN" xlink:title="AP030" d="M14039.6817,-4220.487L14040.4841,-4220.1591L14041.1356,-4219.6317L14041.601,-4218.9905L14041.8366,-4218.75"/>
<path content="AP030,1,28,1,0,14,1,8,JPN" xlink:title="AP030" d="M14040.0192,-4220.8599L14040.2206,-4220.8L14040.3595,-4220.7333L14040.4907,-4220.5868"/>
<path content="AP030,1,28,1,0,16,1,8,JPN" xlink:title="AP030" d="M14039.6817,-4220.487L14040.0192,-4220.8599"/>
</g>
</svg>
