<?xml version="1.0" encoding="UTF-8"?>
<svg  xmlns="http://www.w3.org/2000/svg" xmlns:xlink="http://www.w3.org/1999/xlink" xmlns:go="http://purl.org/svgmap/profile" property="f_code,acc,exs,rst,med,rtt,RSU,loc,soc" viewBox="14027.34375 -3656.25 35.15625 35.15625" go:dataArea="14027.34375 -3656.25 35.15625 35.15625" >
<metadata>
 <rdf:RDF xmlns:rdf="http://www.w3.org/1999/02/22-rdf-syntax-ns#" xmlns:crs="http://opengis.org/xmldtds/transformations.dtd" xmlns:svg="http://www.w3.org/svg" >
  <rdf:Description>
   <crs:CoordinateReferenceSystem rdf:resource="http://purl.org/crs/84" svg:transform="matrix(100.0,0.0,0.0,-100.0,0.0,0.0)" />
  </rdf:Description>
 </rdf:RDF>
</metadata>
<globalCoordinateSystem srsName="http://purl.org/crs/84" transform="matrix(100.0,0.0,0.0,-100.0,0.0,0.0)" />
<defs>
 <g id="p0" >
  <circle cx="0.0" cy="0.0" r="3" stroke="green" stroke-width="2.0" vector-effect="non-scaling-stroke" />
 </g>
</defs>
<g fill="none" fill-rule="evenodd" stroke="#00ff00" stroke-width="2" opacity="0.5" vector-effect="non-scaling-stroke" stroke-linejoin="bevel" >
<path content="AP030,1,28,1,0,14,1,8,JPN" xlink:title="AP030" d="M14029.1178,-3656.25L14029.1306,-3656.2466L14029.1392,-3656.25"/>
<path content="AP030,1,28,1,0,15,1,8,JPN" xlink:title="AP030" d="M14050.9724,-3656.25L14051.1795,-3656.0265"/>
<path content="AP030,1,28,1,0,14,1,8,JPN" xlink:title="AP030" d="M14040.5739,-3656.25L14040.5807,-3656.2267L14040.7196,-3656.0135L14040.8096,-3655.8998L14040.77,-3655.7198"/>
<path content="AP030,1,28,1,0,14,1,8,JPN" xlink:title="AP030" d="M14039.9484,-3656.25L14040.3107,-3656.0467L14040.5396,-3655.92L14040.77,-3655.7198"/>
<path content="AP030,1,28,1,0,14,1,8,JPN" xlink:title="AP030" d="M14053.5217,-3656.25L14053.5202,-3656.2466L14053.4897,-3656.1535L14053.3798,-3655.6534L14053.36,-3655.4333"/>
<path content="AP030,1,28,1,0,16,1,4,JPN" xlink:title="AP030" d="M14060.7771,-3656.25L14060.6796,-3655.18"/>
<path content="AP030,1,28,1,0,15,1,8,JPN" xlink:title="AP030" d="M14042.9703,-3655.1266L14045.3774,-3656.25"/>
<path content="AP030,1,28,1,0,14,1,8,JPN" xlink:title="AP030" d="M14040.77,-3655.7198L14040.9897,-3655.4531L14041.04,-3655.4134L14041.2704,-3655.3467L14041.4307,-3654.9667L14042.2699,-3655.0732L14042.8299,-3655.2532L14042.9703,-3655.1266"/>
<path content="AP030,1,28,1,0,16,1,8,JPN" xlink:title="AP030" d="M14060.6796,-3655.18L14060.6293,-3654.9267"/>
<path content="AP030,1,28,1,0,15,1,8,JPN" xlink:title="AP030" d="M14033.2347,-3656.25L14033.1802,-3654.8931"/>
<path content="AP030,1,28,1,0,14,1,8,JPN" xlink:title="AP030" d="M14030.7783,-3656.25L14030.9906,-3656.0135L14031.2393,-3655.8998L14031.8802,-3655.6866L14032.1304,-3655.5267L14032.2205,-3655.4134L14032.2906,-3655.2532L14032.6996,-3655.1067L14032.8094,-3655.0198L14032.8094,-3654.9465L14033.0399,-3654.9133L14033.1802,-3654.8931"/>
<path content="AP030,1,28,1,0,14,1,8,JPN" xlink:title="AP030" d="M14040.77,-3655.7198L14040.77,-3655.5065L14040.7898,-3655.22L14040.7898,-3655.138L14040.7898,-3654.8931L14040.8096,-3654.7333"/>
<path content="AP030,1,28,1,0,14,1,8,JPN" xlink:title="AP030" d="M14033.1802,-3654.8931L14033.1497,-3654.6398"/>
<path content="AP030,1,28,1,0,15,1,8,JPN" xlink:title="AP030" d="M14051.1795,-3656.0265L14051.8295,-3654.6398"/>
<path content="AP030,1,28,1,0,14,1,8,JPN" xlink:title="AP030" d="M14048.6298,-3654.5532L14048.8297,-3654.7665L14048.8998,-3654.8401L14049.0799,-3654.9133L14049.3103,-3654.9999L14049.4904,-3655.0732L14050.1999,-3655.3467L14050.3799,-3655.4867L14050.7706,-3655.92L14050.8804,-3655.9933L14051.1795,-3656.0265"/>
<path content="AP030,1,28,1,0,14,1,8,JPN" xlink:title="AP030" d="M14048.6298,-3654.5532L14048.6801,-3654.5666L14048.7396,-3654.5666L14048.88,-3654.4998L14048.9304,-3654.48L14049.2401,-3654.5132L14049.5407,-3654.5132L14049.7406,-3654.5666L14049.8993,-3654.5666L14050.0198,-3654.5132L14050.3799,-3654.5132L14050.5402,-3654.5864L14050.7401,-3654.5864L14050.9003,-3654.5132L14051.1307,-3654.5532L14051.2207,-3654.62L14051.3794,-3654.66L14051.7395,-3654.6799L14051.8295,-3654.6398"/>
<path content="AP030,1,28,1,0,15,1,8,JPN" xlink:title="AP030" d="M14036.514,-3656.25L14036.1755,-3655.5553L14035.6323,-3654.2572"/>
<path content="AP030,1,28,1,0,15,1,8,JPN" xlink:title="AP030" d="M14033.1497,-3654.6398L14035.6323,-3654.2572"/>
<path content="AP030,1,28,1,0,15,1,8,JPN" xlink:title="AP030" d="M14035.6323,-3654.2572L14036.4456,-3654.2572"/>
<path content="AP030,1,28,1,0,15,1,8,JPN" xlink:title="AP030" d="M14036.4456,-3654.2572L14038.3606,-3654.2572L14039.4684,-3654.3968L14040.8096,-3654.7333"/>
<path content="AP030,1,28,1,0,14,1,8,JPN" xlink:title="AP030" d="M14048.3307,-3654.1931L14048.4894,-3654.3732L14048.6298,-3654.5532"/>
<path content="AP030,1,28,1,0,15,1,8,JPN" xlink:title="AP030" d="M14048.7924,-3656.25L14048.674,-3656.0661L14048.0331,-3654.9431L14048.3307,-3654.1931"/>
<path content="AP030,1,28,1,0,15,1,8,JPN" xlink:title="AP030" d="M14045.7839,-3656.25L14045.8038,-3656.1279L14045.8984,-3655.7922L14046.5469,-3655.6831L14046.6415,-3655.3852L14047.3297,-3654.1733"/>
<path content="AP030,1,28,1,0,14,1,8,JPN" xlink:title="AP030" d="M14048.0392,-3654.1534L14048.1094,-3654.1733L14048.3307,-3654.1931"/>
<path content="AP030,1,28,1,0,14,1,8,JPN" xlink:title="AP030" d="M14047.3297,-3654.1733L14048.0392,-3654.1534"/>
<path content="AP030,1,28,1,0,14,1,8,JPN" xlink:title="AP030" d="M14042.9703,-3655.1266L14043.1107,-3654.9133L14043.2007,-3654.8599L14043.7195,-3654.7466L14043.8095,-3654.6932L14044.0399,-3654.4598L14044.3802,-3654.2267L14044.4702,-3654.1L14044.5404,-3653.8666L14044.6304,-3653.7731L14045.2194,-3653.6133L14045.7199,-3653.4866L14045.8298,-3653.4534L14046.0205,-3653.4664L14046.2204,-3653.6331L14046.4294,-3653.6667L14046.6293,-3653.7933L14047.02,-3654.0264L14047.0596,-3654.0665L14047.2397,-3654.1332L14047.3297,-3654.1733"/>
<path content="AP030,1,28,1,0,14,1,8,JPN" xlink:title="AP030" d="M14051.8295,-3654.6398L14051.9501,-3654.4998L14052.1103,-3654.4399L14052.2705,-3654.4399L14052.24,-3654.3732L14052.2903,-3654.2465L14052.2903,-3654.2065L14052.3605,-3653.8998L14052.4002,-3653.7598L14052.4704,-3653.6667L14052.5192,-3653.5797L14052.5803,-3653.4866L14052.6093,-3653.4332L14052.7206,-3653.36L14052.7206,-3653.2532"/>
<path content="AP030,1,28,1,0,16,1,4,JPN" xlink:title="AP030" d="M14060.6293,-3654.9267L14060.5804,-3654.7867L14060.3806,-3654.4998L14059.8602,-3654.1931L14059.4894,-3653.8864L14059.2697,-3653.6865L14059.1995,-3653.2333"/>
<path content="AP030,1,28,1,0,14,1,8,JPN" xlink:title="AP030" d="M14053.36,-3655.4333L14053.1494,-3655.3265L14052.9495,-3654.9465L14052.9495,-3653.8998L14052.9495,-3653.7731L14052.8595,-3653.3466L14052.8595,-3653.1799"/>
<path content="AP030,1,28,1,0,14,1,8,JPN" xlink:title="AP030" d="M14052.7206,-3653.2532L14052.8595,-3653.1799"/>
<path content="AP030,1,28,1,0,14,1,8,JPN" xlink:title="AP030" d="M14052.8595,-3653.1799L14052.8595,-3653.0197"/>
<path content="AP030,1,28,1,0,14,1,8,JPN" xlink:title="AP030" d="M14053.36,-3655.4333L14053.3798,-3655.0934L14053.4897,-3654.1199L14053.4897,-3654.0264L14053.54,-3653.8998L14053.54,-3653.5267L14053.54,-3652.9999"/>
<path content="AP030,1,28,1,0,14,1,8,JPN" xlink:title="AP030" d="M14052.8595,-3653.0197L14053.0838,-3653.0376L14053.1097,-3653.0399L14053.54,-3652.9999"/>
<path content="AP030,1,28,1,0,15,1,8,JPN" xlink:title="AP030" d="M14049.263,-3651.5602L14050.502,-3652.285L14052.7206,-3653.2532"/>
<path content="AP030,1,28,1,0,15,1,8,JPN" xlink:title="AP030" d="M14048.0392,-3654.1534L14047.995,-3653.6736L14048.5107,-3652.705L14049.263,-3651.5602"/>
<path content="AP030,1,28,1,0,14,1,8,JPN" xlink:title="AP030" d="M14033.1497,-3654.6398L14033.1497,-3654.5334L14033.1497,-3654.5132L14033.2397,-3654.3865L14033.3298,-3654.3533L14033.5205,-3654.2999L14033.6105,-3654.2465L14033.7006,-3654.0798L14033.8104,-3654.0134L14034.3796,-3653.7399L14034.7,-3653.54L14034.8999,-3653.36L14035.0601,-3653.1467L14035.1303,-3652.9133L14035.2203,-3652.6798L14035.2905,-3652.5131L14035.3302,-3652.4399L14035.9497,-3652.1534L14036.1099,-3652.0134L14036.2,-3651.9398L14036.2198,-3651.9398L14036.5204,-3651.6666L14036.6806,-3651.4133"/>
<path content="AP030,1,28,1,0,16,1,8,JPN" xlink:title="AP030" d="M14057.8674,-3651.0921L14058.1482,-3651.3889L14058.4305,-3651.6865L14058.6807,-3651.9398L14059.1293,-3652.28L14059.1995,-3652.4067L14059.1995,-3652.4265L14059.2407,-3652.6066L14059.1995,-3653.2333"/>
<path content="AP030,1,28,1,0,14,1,8,JPN" xlink:title="AP030" d="M14053.54,-3652.9999L14053.6301,-3652.9865L14054.1504,-3652.8198L14054.2206,-3652.7466L14054.2892,-3652.6398L14054.4006,-3652.6066L14054.6295,-3652.6199L14054.8798,-3652.66L14055.1804,-3652.6798L14055.3101,-3652.6798L14055.5603,-3652.5665L14055.8807,-3652.4399L14055.9494,-3652.3533L14055.9616,-3652.2713L14055.9906,-3652.0664L14056.0593,-3651.9932L14056.4301,-3651.7933L14056.5598,-3651.7597L14056.6803,-3651.72L14056.7902,-3651.7067L14057.0801,-3651.6865L14057.2693,-3651.6533L14057.4493,-3651.54L14057.6996,-3651.3599L14057.8674,-3651.0921"/>
<path content="AP030,1,28,1,0,14,1,8,JPN" xlink:title="AP030" d="M14058.4,-3650.8198L14058.9111,-3651.0715L14059.2407,-3651.2333L14059.52,-3651.3268L14059.79,-3651.3268L14060.08,-3651.3065L14060.3806,-3651.3065L14060.7193,-3651.2867L14060.8994,-3651.2867L14061.0596,-3651.3065L14061.1496,-3651.4L14061.47,-3651.7933L14061.4899,-3651.8665L14061.5601,-3652.0134L14061.6302,-3652.4265L14061.6501,-3652.7332L14061.8607,-3653.2333L14061.9003,-3653.3798L14062.1796,-3654.0264L14062.1796,-3654.0466L14062.2696,-3654.5864L14062.2696,-3654.6932L14062.3093,-3655.0934L14062.3306,-3655.2334L14062.3306,-3655.3799L14062.4496,-3655.4665L14062.4893,-3655.5065L14062.5,-3655.5151"/>
<path content="AP030,1,28,1,0,14,1,8,JPN" xlink:title="AP030" d="M14057.8674,-3651.0921L14057.8995,-3651.0399L14057.9498,-3651.0201L14058.11,-3650.9464L14058.2397,-3650.9266L14058.4,-3650.8198"/>
<path content="AP030,1,28,1,0,14,1,8,JPN" xlink:title="AP030" d="M14051.8799,-3650.6199L14052.0203,-3650.7999L14052.1805,-3651.0399L14052.2903,-3651.2199L14052.5803,-3651.6132L14052.8595,-3651.9199L14052.9007,-3651.9733L14052.9297,-3652.1L14052.9297,-3652.2465L14052.9297,-3652.4799L14052.9007,-3652.6066L14052.8793,-3652.7332L14052.8595,-3652.8732L14052.8595,-3653.0197"/>
<path content="AP030,1,28,1,0,15,1,8,JPN" xlink:title="AP030" d="M14049.263,-3651.5602L14050.9262,-3651.0727L14051.6953,-3650.7076L14051.8799,-3650.6199"/>
<path content="AP030,1,28,1,0,15,1,8,JPN" xlink:title="AP030" d="M14044.1498,-3650.0999L14044.6213,-3650.1381L14046.0754,-3650.256L14048.024,-3650.6908L14049.263,-3651.5602"/>
<path content="AP030,1,28,1,0,14,1,8,JPN" xlink:title="AP030" d="M14040.8096,-3654.7333L14040.86,-3654.48L14040.8997,-3654.3533L14041.0797,-3654.1332L14041.2003,-3653.9734L14041.2201,-3653.9398L14041.4001,-3653.8467L14041.4902,-3653.7933L14041.8259,-3653.6533L14041.9693,-3653.5934L14042.1097,-3653.4866L14042.45,-3652.9865L14042.72,-3652.7466L14042.8299,-3652.66L14042.9306,-3652.66L14042.9504,-3652.6798L14043.0405,-3652.5867L14043.1503,-3652.4399L14043.3807,-3652.2999L14043.5394,-3652.1534L14043.6798,-3651.9398L14043.8599,-3651.7067L14043.8797,-3651.5934L14043.8995,-3651.3599L14043.9301,-3651.2333L14044.22,-3650.9865L14044.2398,-3650.9666L14044.1391,-3650.4684L14044.1299,-3650.4265L14044.1101,-3650.2464L14044.1498,-3650.0999"/>
<path content="AP030,1,28,1,0,14,1,8,JPN" xlink:title="AP030" d="M14051.68,-3649.7601L14052.1805,-3649.8867L14052.4002,-3649.9931L14052.5406,-3650.1732L14052.6306,-3650.5333L14052.7206,-3650.8198L14053.3997,-3651.7933L14053.45,-3651.9398L14053.511,-3652.5322L14053.54,-3652.8198L14053.54,-3652.9999"/>
<path content="AP030,1,28,1,0,14,1,8,JPN" xlink:title="AP030" d="M14051.8799,-3650.6199L14051.86,-3650.5665L14051.86,-3650.0801L14051.86,-3649.9931L14051.8097,-3649.8867L14051.68,-3649.7601"/>
<path content="AP030,1,28,1,0,15,1,8,JPN" xlink:title="AP030" d="M14029.4196,-3656.25L14029.4998,-3655.8121L14029.0314,-3655.6831L14028.7262,-3654.8824L14028.1128,-3653.6171L14029.0115,-3652.2346L14029.1733,-3651.6468L14028.6041,-3651.265L14027.9816,-3650.9666L14027.4124,-3650.4585L14027.3438,-3650.4022"/>
<path content="AP030,1,28,1,0,15,1,8,JPN" xlink:title="AP030" d="M14036.4456,-3654.2572L14037.027,-3653.331L14037.7106,-3652.5776L14039.4394,-3651.3248L14040.1794,-3650.0668L14040.152,-3649.0223"/>
<path content="AP030,1,28,1,0,15,1,8,JPN" xlink:title="AP030" d="M14040.152,-3649.0223L14040.5504,-3649.0223"/>
<path content="AP030,1,28,1,0,15,1,8,JPN" xlink:title="AP030" d="M14040.5504,-3649.0223L14041.0034,-3649.0223L14042.0273,-3649.2317L14042.7948,-3649.7204L14044.1498,-3650.0999"/>
<path content="AP030,1,28,1,0,14,1,8,JPN" xlink:title="AP030" d="M14051.0605,-3648.7999L14051.2695,-3649.4133L14051.4297,-3649.6132L14051.68,-3649.7601"/>
<path content="AP030,1,28,1,0,14,1,8,JPN" xlink:title="AP030" d="M14044.1498,-3650.0999L14044.5404,-3649.6666L14044.6106,-3649.58L14044.9905,-3649.0932L14045.0195,-3649.0532L14045.0607,-3649.02L14045.0195,-3648.7133"/>
<path content="AP030,1,28,1,0,14,1,8,JPN" xlink:title="AP030" d="M14060.7895,-3648.5867L14060.8597,-3648.6065L14060.9299,-3648.6198L14060.9497,-3648.6198L14060.9894,-3648.6401L14061.0397,-3648.6599L14061.0794,-3648.6935L14061.1298,-3648.7465L14061.2,-3648.8201L14061.38,-3648.9265L14061.4304,-3648.9468L14061.5204,-3649.02L14061.7706,-3649.2199L14062.1307,-3649.5266L14062.1307,-3649.5602L14062.1796,-3649.7066L14062.2406,-3649.8466L14062.3795,-3649.9733L14062.5,-3650.0994"/>
<path content="AP030,1,28,1,0,14,1,8,JPN" xlink:title="AP030" d="M14058.4,-3650.8198L14059.3597,-3650.3201L14059.5398,-3649.9401L14059.7702,-3649.6334L14059.8297,-3649.5266L14059.8801,-3649.4331L14060.0601,-3649.2332L14060.3302,-3648.9933L14060.7895,-3648.5867"/>
<path content="AP030,1,28,1,0,16,1,8,JPN" xlink:title="AP030" d="M14055.3604,-3648.5332L14055.8105,-3648.6935L14056.0394,-3648.9132L14056.2195,-3649.0398L14056.5399,-3649.4667L14056.9702,-3650.28L14057.2006,-3650.4601L14057.2906,-3650.5531L14057.5394,-3650.7465L14057.8674,-3651.0921"/>
<path content="AP030,1,28,1,0,15,1,8,JPN" xlink:title="AP030" d="M14051.0605,-3648.7999L14053.6194,-3649.2538L14054.0375,-3649.0314L14054.0527,-3649.0509L14054.4617,-3648.8419L14055.3604,-3648.5332"/>
<path content="AP030,1,28,1,0,15,1,8,JPN" xlink:title="AP030" d="M14029.6204,-3648.243L14030.9143,-3649.2599L14032.782,-3650.0275L14033.8745,-3650.1598L14034.4437,-3650.7515L14034.494,-3650.9201L14035.1196,-3650.7553L14036.0062,-3650.8022L14036.6806,-3651.4133"/>
<path content="AP030,1,28,1,0,15,1,8,JPN" xlink:title="AP030" d="M14027.3438,-3649.0856L14028.5736,-3648.9094L14029.6204,-3648.243"/>
<path content="AP030,1,28,1,0,15,1,8,JPN" xlink:title="AP030" d="M14037.6999,-3648.1335L14039.1281,-3648.2544L14040.152,-3649.0223"/>
<path content="AP030,1,28,1,0,14,1,8,JPN" xlink:title="AP030" d="M14036.6806,-3651.4133L14036.7706,-3651.2867L14036.8301,-3651.1997L14037.0193,-3651.0532L14037.0804,-3650.9464L14037.1094,-3650.9132L14037.1506,-3650.7866L14037.1994,-3650.6397L14037.2894,-3650.5333L14037.2192,-3650.4066L14037.1796,-3650.1732L14037.1506,-3649.9733L14037.1506,-3649.8466L14037.2696,-3649.6132L14037.3093,-3649.5266L14037.5397,-3649.1264L14037.6999,-3648.8731L14037.7197,-3648.7999L14037.6801,-3648.7865L14037.5793,-3648.7865L14037.5198,-3648.7667L14037.4695,-3648.7331L14037.4298,-3648.6935L14037.4298,-3648.6401L14037.4893,-3648.6198L14037.5198,-3648.6065L14037.5397,-3648.5867L14037.5595,-3648.3532L14037.5595,-3648.2067L14037.6999,-3648.1335"/>
<path content="AP030,1,28,1,0,14,1,8,JPN" xlink:title="AP030" d="M14037.6999,-3648.1335L14037.7197,-3648.1201"/>
<path content="AP030,1,28,1,0,14,1,8,JPN" xlink:title="AP030" d="M14055.9006,-3648.0465L14056.1295,-3648.28L14056.2897,-3648.46L14056.5201,-3648.7667L14056.5598,-3648.8602L14056.6299,-3649.02L14056.6299,-3649.0398L14056.9504,-3649.6334L14057.0404,-3649.7398L14057.2693,-3650.0134L14057.6797,-3650.3864L14057.6996,-3650.4066L14057.8796,-3650.5333L14057.9498,-3650.5665L14058.3298,-3650.7866L14058.4,-3650.8198"/>
<path content="AP030,1,28,1,0,15,1,8,JPN" xlink:title="AP030" d="M14055.3604,-3648.5332L14055.9006,-3648.0465"/>
<path content="AP030,1,28,1,0,14,1,8,JPN" xlink:title="AP030" d="M14037.7197,-3648.1201L14037.8296,-3647.9198"/>
<path content="AP030,1,28,1,0,15,1,8,JPN" xlink:title="AP030" d="M14029.6204,-3648.243L14030.8563,-3647.2771"/>
<path content="AP030,1,28,1,0,16,1,8,JPN" xlink:title="AP030" d="M14050.4837,-3647.007L14050.7004,-3647.0402L14051.1505,-3647.0932L14052.4002,-3647.2534L14052.8107,-3647.3465L14052.9694,-3647.4865L14053.45,-3647.8134L14054.1794,-3648.1731L14054.7195,-3648.4264L14054.9698,-3648.4798L14055.3604,-3648.5332"/>
<path content="AP030,1,28,1,0,14,1,8,JPN" xlink:title="AP030" d="M14051.0605,-3648.7999L14050.8606,-3648.1731L14050.5402,-3647.1268L14050.4837,-3647.007"/>
<path content="AP030,1,28,1,0,15,1,8,JPN" xlink:title="AP030" d="M14028.4683,-3646.6492L14029.8325,-3647.0676L14030.8563,-3647.2771"/>
<path content="AP030,1,28,1,0,15,1,8,JPN" xlink:title="AP030" d="M14028.4683,-3646.6492L14028.7445,-3647.3125L14029.6204,-3648.243"/>
<path content="AP030,1,28,1,0,14,1,8,JPN" xlink:title="AP030" d="M14060.7895,-3648.5867L14060.7193,-3648.5867L14060.6506,-3648.5664L14060.5804,-3648.5332L14060.5606,-3648.4402L14060.5606,-3648.1533L14060.5804,-3647.6868L14060.5606,-3647.6334L14060.4507,-3647.3801L14060.2402,-3646.9467L14060.2005,-3646.8735L14060.1807,-3646.8399L14060.1303,-3646.6801L14059.9899,-3646.5134L14059.8297,-3646.2799L14059.7702,-3646.1533L14059.7702,-3646.0999L14059.7702,-3645.9534"/>
<path content="AP030,1,28,1,0,15,1,8,JPN" xlink:title="AP030" d="M14055.9006,-3648.0465L14057.1533,-3646.9532L14057.2403,-3646.8781L14059.7702,-3645.9534"/>
<path content="AP030,1,28,1,0,16,1,8,JPN" xlink:title="AP030" d="M14048.4497,-3645.7733L14049.0204,-3646.3001L14049.0433,-3646.315L14049.1501,-3646.3867L14049.4431,-3646.619L14049.5193,-3646.6801L14050.2197,-3646.9666L14050.4837,-3647.007"/>
<path content="AP030,1,28,1,0,15,1,8,JPN" xlink:title="AP030" d="M14045.0195,-3648.7133L14045.5811,-3648.3612L14046.3715,-3647.5807L14046.8857,-3646.8735L14048.4497,-3645.7733"/>
<path content="AP030,1,28,1,0,15,1,8,JPN" xlink:title="AP030" d="M14040.5504,-3649.0223L14041.9113,-3647.4747L14042.5171,-3646.767L14042.8482,-3645.7024"/>
<path content="AP030,1,28,1,0,15,1,8,JPN" xlink:title="AP030" d="M14027.3438,-3646.1618L14028.4683,-3646.6492"/>
<path content="AP030,1,28,1,0,15,1,8,JPN" xlink:title="AP030" d="M14033.8409,-3645.1134L14035.2051,-3646.0209L14036.058,-3646.9978L14037.7197,-3648.1201"/>
<path content="AP030,1,28,1,0,15,1,8,JPN" xlink:title="AP030" d="M14030.8563,-3647.2771L14031.5384,-3646.9978L14032.5607,-3646.0907L14033.8409,-3645.1134"/>
<path content="AP030,1,28,1,0,16,1,8,JPN" xlink:title="AP030" d="M14045.9915,-3644.4805L14046.3593,-3644.6934L14047.0795,-3645.0535L14047.5204,-3645.2332L14048.4497,-3645.7733"/>
<path content="AP030,1,28,1,0,14,1,8,JPN" xlink:title="AP030" d="M14045.0195,-3648.7133L14044.9905,-3648.3868L14044.9493,-3647.9534L14045.0394,-3647.6131L14045.0806,-3647.4133L14045.1797,-3647.02L14045.1996,-3646.8735L14045.1996,-3646.7667L14045.1996,-3646.7464L14045.1492,-3646.5668L14045.0806,-3646.46L14044.9295,-3646.1533L14044.9005,-3646.0999L14045.1996,-3645.6532L14045.3995,-3645.3266L14045.5795,-3645.0401L14045.8298,-3644.68L14045.9915,-3644.4805"/>
<path content="AP030,1,28,1,0,14,1,8,JPN" xlink:title="AP030" d="M14050.4837,-3647.007L14050.4303,-3646.8933L14050.4303,-3646.7999L14050.3998,-3646.6202L14050.2899,-3645.94L14050.2899,-3645.7932L14050.2396,-3645.7199L14050.1999,-3645.5399L14050.1999,-3644.4599"/>
<path content="AP030,1,28,1,0,15,1,8,JPN" xlink:title="AP030" d="M14048.4497,-3645.7733L14049.2401,-3645.3701L14049.3454,-3645.3163L14050.1999,-3644.4599"/>
<path content="AP030,1,28,1,0,15,1,8,JPN" xlink:title="AP030" d="M14037.8296,-3647.9198L14037.7319,-3646.3276L14037.4557,-3644.685L14037.3779,-3644.0926"/>
<path content="AP030,1,28,1,0,15,1,8,JPN" xlink:title="AP030" d="M14033.8409,-3645.1134L14035.1334,-3644.8067L14036.1298,-3644.5107L14037.3779,-3644.0926"/>
<path content="AP030,1,28,1,0,14,1,8,JPN" xlink:title="AP030" d="M14050.1999,-3644.4599L14050.1999,-3644.3733L14050.1801,-3643.9934"/>
<path content="AP030,1,28,1,0,14,1,8,JPN" xlink:title="AP030" d="M14055.9006,-3648.0465L14055.6107,-3647.8134L14055.5206,-3647.7402L14055.4504,-3647.7066L14055.0797,-3647.4335L14054.95,-3647.3465L14054.8599,-3647.2534L14054.5395,-3647.0531L14054.3594,-3646.9131L14054.3106,-3646.8601L14054.2892,-3646.7865L14054.2694,-3646.7133L14054.1306,-3646.4401L14054.1306,-3646.4268L14054.0802,-3646.3867L14053.9902,-3646.2601L14053.7704,-3645.9732L14053.7201,-3645.9L14053.3798,-3645.7401L14053.2394,-3645.6532L14053.1296,-3645.5265L14053.0807,-3645.4666L14052.9907,-3645.3602L14052.9007,-3645.1466L14052.8305,-3644.7865L14052.6306,-3644.1933L14052.5406,-3643.9533L14052.4704,-3643.7733"/>
<path content="AP030,1,28,1,0,15,1,8,JPN" xlink:title="AP030" d="M14050.1801,-3643.9934L14050.8331,-3643.8663L14052.4704,-3643.7733"/>
<path content="AP030,1,28,1,0,14,1,8,JPN" xlink:title="AP030" d="M14059.7702,-3645.9534L14059.6497,-3645.2732L14059.5596,-3644.7468L14059.52,-3644.3535L14059.4894,-3644.26L14059.4498,-3644.12L14059.3094,-3643.5265L14059.2896,-3643.4132L14059.2697,-3643.3067L14059.1293,-3642.8001L14058.8806,-3642.1333"/>
<path content="AP030,1,28,1,0,16,1,8,JPN" xlink:title="AP030" d="M14042.4942,-3641.708L14042.9703,-3641.8865L14043.1793,-3642.0265L14043.4692,-3642.2466L14043.6493,-3642.3733L14044.1101,-3642.5533L14044.4504,-3642.8001L14044.6106,-3642.9867L14044.7693,-3643.1999L14045.0195,-3643.56L14045.3293,-3643.8667L14045.7703,-3644.3535L14045.9915,-3644.4805"/>
<path content="AP030,1,28,1,0,14,1,8,JPN" xlink:title="AP030" d="M14037.8296,-3647.9198L14037.8799,-3647.8134L14038.7695,-3647.3598L14039.3997,-3647.0531L14039.5599,-3646.9131L14040.1093,-3646.2467L14040.2695,-3646.0667L14040.5197,-3645.9L14040.6296,-3645.8134L14040.6494,-3645.7932L14040.6998,-3645.76L14040.6998,-3645.5067L14041.0599,-3644.5534L14041.0797,-3644.5L14041.1301,-3644.3733L14041.33,-3644.0266L14041.4307,-3643.94L14041.5802,-3643.8133L14041.6794,-3643.7065L14041.8106,-3643.5398L14041.9907,-3643.2732L14042.0593,-3642.9466L14042.1295,-3642.6399L14042.2699,-3642.3199L14042.4942,-3641.708"/>
<path content="AP030,1,28,1,0,15,1,8,JPN" xlink:title="AP030" d="M14037.3779,-3644.0926L14038.9496,-3644.3245L14039.9948,-3643.2243L14042.4942,-3641.708"/>
<path content="AP030,1,28,1,0,14,1,8,JPN" xlink:title="AP030" d="M14048.7,-3641.2731L14049.3805,-3641.9201L14049.4003,-3641.9533L14049.6506,-3642.5667L14049.9893,-3643.4132L14050.1297,-3643.8133L14050.1801,-3643.9934"/>
<path content="AP030,1,28,1,0,14,1,8,JPN" xlink:title="AP030" d="M14058.8806,-3642.1333L14058.8303,-3641.9933L14058.7204,-3641.7065L14058.6807,-3641.5932L14058.2703,-3640.7131L14058.1299,-3640.4266L14058.0597,-3640.1932L14058.0597,-3640.1199"/>
<path content="AP030,1,28,1,0,15,1,8,JPN" xlink:title="AP030" d="M14052.4704,-3643.7733L14053.9795,-3643.132L14054.1199,-3643.0428L14055.1392,-3642.3901L14057.3654,-3640.7925L14058.0597,-3640.1199"/>
<path content="AP030,1,28,1,0,14,1,8,JPN" xlink:title="AP030" d="M14052.4704,-3643.7733L14052.4704,-3643.5398L14052.4704,-3643.4532L14052.4506,-3643.2865L14052.3605,-3643L14052.3605,-3642.9466L14052.2903,-3642.86L14051.8799,-3642.26L14051.8097,-3642.1532L14051.6296,-3641.8667L14051.5594,-3641.7934L14051.4694,-3641.5932L14051.2207,-3641.2201L14051.0803,-3641L14051.0605,-3640.9466L14050.9903,-3640.8199L14050.9506,-3640.7131L14050.9293,-3640.62L14050.8301,-3640.3332L14050.65,-3639.9399L14050.6302,-3639.8865"/>
<path content="AP030,1,28,1,0,15,1,8,JPN" xlink:title="AP030" d="M14048.7,-3641.2731L14049.2966,-3640.3324L14050.6302,-3639.8865"/>
<path content="AP030,1,28,1,0,14,1,8,JPN" xlink:title="AP030" d="M14044.5206,-3639.74L14044.6106,-3639.8666L14044.6503,-3639.92L14044.6793,-3639.9532L14044.8593,-3640.1733L14044.9707,-3640.2802L14045.1096,-3640.3198L14045.5795,-3640.3732L14045.9702,-3640.48L14046.1807,-3640.5132L14046.2692,-3640.6399L14046.2204,-3640.8401L14046.1502,-3641.2533L14046.08,-3641.4532L14046.3806,-3641.9201L14046.4294,-3642.1532L14046.4294,-3642.1932L14046.3593,-3642.9867L14046.2692,-3643.3266L14046.2204,-3643.56L14046.2006,-3643.6333L14046.1502,-3643.8332L14046.1304,-3644.1734L14046.1105,-3644.3333L14045.9915,-3644.4805"/>
<path content="AP030,1,28,1,0,14,1,8,JPN" xlink:title="AP030" d="M14042.4942,-3641.708L14042.5598,-3641.5264L14042.6102,-3641.4131L14042.6804,-3641.1064L14042.72,-3640.9866L14042.7902,-3640.9267L14042.9001,-3640.8199L14043.0206,-3640.6799L14043.0405,-3640.62L14043.0405,-3640.6067L14043.0603,-3640.5865L14043.2205,-3640.3866L14043.5394,-3640.2599L14043.7897,-3640.1333L14044.1803,-3639.92L14044.5206,-3639.74"/>
<path content="AP030,1,28,1,0,15,1,8,JPN" xlink:title="AP030" d="M14058.0597,-3640.1199L14058.9294,-3640.1531L14058.9706,-3639.9734L14059.0393,-3639.8335L14059.1293,-3639.74"/>
<path content="AP030,1,28,1,0,15,1,8,JPN" xlink:title="AP030" d="M14027.3438,-3639.5431L14028.5538,-3640.0879L14030.0034,-3640.8558L14031.0272,-3641.2743L14032.0496,-3642.3912L14032.3914,-3643.0195L14032.5607,-3643.7176L14032.8171,-3644.2757L14033.7555,-3644.2757L14034.0118,-3644.6247L14033.8409,-3645.1134"/>
<path content="AP030,1,28,1,0,16,1,8,JPN" xlink:title="AP030" d="M14038.7238,-3638.6364L14038.8107,-3638.9866L14038.9297,-3639.2532L14038.9496,-3639.3467L14039.0396,-3639.5401L14039.5401,-3640.2267L14039.7202,-3640.4266L14040.0406,-3640.6799L14040.8295,-3640.9267L14041.5207,-3641.1266L14041.8594,-3641.2865L14042.1494,-3641.4867L14042.4942,-3641.708"/>
<path content="AP030,1,28,1,0,14,1,8,JPN" xlink:title="AP030" d="M14038.7238,-3638.6364L14039.0198,-3638.6066L14039.3997,-3638.5666L14039.4501,-3638.5532L14040.1794,-3638.2267"/>
<path content="AP030,1,28,1,0,15,1,8,JPN" xlink:title="AP030" d="M14062.3154,-3638.1565L14062.2665,-3638.2153L14061.4105,-3638.8279L14060.8047,-3640.3099L14060.7178,-3641.3235L14060.5194,-3642.7116L14060.2463,-3642.7326L14058.8806,-3642.1333"/>
<path content="AP030,1,28,1,0,15,1,8,JPN" xlink:title="AP030" d="M14058.0597,-3640.1199L14052.8214,-3639.2448L14052.9022,-3638.6639L14052.9358,-3638.4296L14052.8442,-3638.1496"/>
<path content="AP030,1,28,1,0,15,1,8,JPN" xlink:title="AP030" d="M14050.6302,-3639.8865L14051.8158,-3638.6898L14052.2583,-3638.4571L14052.8442,-3638.1496"/>
<path content="AP030,1,28,1,0,14,1,8,JPN" xlink:title="AP030" d="M14035.8795,-3638.1199L14037.1994,-3638.5334L14037.7701,-3638.7333L14038.2904,-3638.6799L14038.7238,-3638.6364"/>
<path content="AP030,1,28,1,0,15,1,8,JPN" xlink:title="AP030" d="M14037.3779,-3644.0926L14037.2986,-3643.4784L14035.817,-3642.2985L14036.235,-3641.7648L14036.0764,-3640.9939L14036.3724,-3640.292L14036.2549,-3639.4543L14036.4227,-3639.0533L14035.8795,-3638.1199"/>
<path content="AP030,1,28,1,0,14,1,8,JPN" xlink:title="AP030" d="M14040.1794,-3638.2267L14040.3793,-3638.2267L14040.8997,-3638.4266L14040.95,-3638.4399L14041.2201,-3638.5334L14041.4001,-3638.5864L14041.4902,-3638.6066L14041.9006,-3638.7135L14041.9693,-3638.7333L14042.2897,-3638.8401L14042.54,-3638.8733L14042.7902,-3638.8931L14043.1503,-3638.9133L14043.2693,-3638.9133L14043.8095,-3638.8401L14043.9301,-3638.7665L14043.9697,-3638.7466L14044.31,-3638.5334L14044.6106,-3638.3865L14044.7906,-3638.2999L14045.0195,-3638.2267L14045.0806,-3638.2065L14045.5795,-3638.1199L14045.8298,-3638.0466"/>
<path content="AP030,1,28,1,0,14,1,8,JPN" xlink:title="AP030" d="M14035.3607,-3637.9398L14035.8795,-3638.1199"/>
<path content="AP030,1,28,1,0,14,1,8,JPN" xlink:title="AP030" d="M14048.7,-3641.2731L14048.5596,-3641.1266L14048.4299,-3641L14048.1293,-3640.6933L14048.0392,-3640.6601L14048.0194,-3640.5666L14047.9904,-3640.3198L14047.9294,-3639.9532L14047.8302,-3639.4665L14047.7905,-3639.3066L14047.7203,-3638.9999L14047.7203,-3638.7665L14047.3999,-3638.6066L14047.3099,-3638.4998L14047.3099,-3638.4602L14047.29,-3638.4266L14047.2198,-3638.2065L14047.1802,-3638.1199L14046.9299,-3638.1001L14046.8994,-3638.0665L14046.8307,-3637.8666"/>
<path content="AP030,1,28,1,0,14,1,8,JPN" xlink:title="AP030" d="M14044.5206,-3639.74L14044.7693,-3639.5401L14045.1096,-3639.3066L14045.1797,-3639.2334L14045.2698,-3639.1666L14045.5795,-3638.9133L14045.6497,-3638.7135L14045.7901,-3638.6066L14046.08,-3638.4399L14046.3593,-3638.2999L14046.4905,-3638.2465L14046.7407,-3638.1199L14046.6507,-3637.9398L14046.8307,-3637.8666"/>
<path content="AP030,1,28,1,0,16,1,8,JPN" xlink:title="AP030" d="M14057.8247,-3637.8368L14058.1802,-3638.4068L14059.1293,-3639.74"/>
<path content="AP030,1,28,1,0,14,1,8,JPN" xlink:title="AP030" d="M14058.0597,-3640.1199L14058.1299,-3639.5401L14058.0399,-3639.1068L14057.8598,-3638.5864L14057.8293,-3638.5132L14057.8094,-3638.4602L14057.8094,-3638.3331L14057.8247,-3637.8368"/>
<path content="AP030,1,28,1,0,14,1,8,JPN" xlink:title="AP030" d="M14045.8298,-3638.0466L14045.99,-3638.0135L14046.1304,-3637.9734L14046.4493,-3637.8864L14046.5393,-3637.8468L14046.7194,-3637.7399L14046.9299,-3637.5935"/>
<path content="AP030,1,28,1,0,14,1,8,JPN" xlink:title="AP030" d="M14050.6302,-3639.8865L14050.56,-3639.7598L14050.3098,-3639.0732L14050.2899,-3638.9267L14050.2396,-3638.7665L14050.1297,-3638.0466L14050.0595,-3637.5935"/>
<path content="AP030,1,28,1,0,14,1,8,JPN" xlink:title="AP030" d="M14033.8593,-3637.4866L14034.1507,-3637.6534L14034.5795,-3637.7399L14035.2402,-3637.92L14035.3607,-3637.9398"/>
<path content="AP030,1,28,1,0,14,1,8,JPN" xlink:title="AP030" d="M14027.3438,-3639.1842L14028.3798,-3639.0732L14028.6301,-3639.04L14028.83,-3638.9866L14029.0207,-3638.8733L14029.1504,-3638.7466L14029.4693,-3638.5132L14029.8798,-3638.2999L14030.7404,-3638.2999L14030.9692,-3638.1931L14031.4301,-3638.0264L14032.1304,-3638.1535L14032.4707,-3638.1535L14032.6096,-3638.1332L14032.8796,-3637.8666L14033.2397,-3637.6667L14033.8593,-3637.4866"/>
<path content="AP030,1,28,1,0,14,1,8,JPN" xlink:title="AP030" d="M14046.8307,-3637.8666L14047.4304,-3637.6331L14047.3602,-3637.4664"/>
<path content="AP030,1,28,1,0,14,1,8,JPN" xlink:title="AP030" d="M14046.9299,-3637.5935L14047.2397,-3637.5065L14047.3602,-3637.4664"/>
<path content="AP030,1,28,1,0,15,1,8,JPN" xlink:title="AP030" d="M14046.9299,-3637.5935L14047.3602,-3637.4664"/>
<path content="AP030,1,28,1,0,15,1,8,JPN" xlink:title="AP030" d="M14057.8247,-3637.8368L14059.3857,-3637.2772L14060.1868,-3638.324L14061.0123,-3638.298L14061.2534,-3638.2847L14062.0926,-3638.2385L14062.3154,-3638.1565"/>
<path content="AP030,1,28,1,0,15,1,8,JPN" xlink:title="AP030" d="M14052.8442,-3638.1496L14052.7206,-3637.7674L14052.1805,-3637.1262L14051.8814,-3636.8164"/>
<path content="AP030,1,28,1,0,15,1,8,JPN" xlink:title="AP030" d="M14050.0595,-3637.5935L14050.6393,-3637.3463L14051.8814,-3636.8164"/>
<path content="AP030,1,28,1,0,15,1,8,JPN" xlink:title="AP030" d="M14041.0797,-3636.5868L14041.7145,-3636.9694L14044.7128,-3637.7544L14045.8298,-3638.0466"/>
<path content="AP030,1,28,1,0,14,1,8,JPN" xlink:title="AP030" d="M14040.1794,-3638.2267L14040.2695,-3638.1001L14040.2939,-3637.9795L14040.3107,-3637.9002L14040.3595,-3637.6331L14040.3793,-3637.4664L14040.4007,-3637.4332L14040.4297,-3637.4134L14040.5594,-3637.1067L14040.7898,-3636.8599L14040.8997,-3636.7466L14041.0797,-3636.5868"/>
<path content="AP030,1,28,1,0,14,1,8,JPN" xlink:title="AP030" d="M14047.3602,-3637.4664L14047.5403,-3637.2532L14047.6807,-3637.2334L14048.0392,-3637.2334L14048.2269,-3637.1563L14048.3795,-3637.0934L14048.436,-3636.9438L14048.4894,-3636.8L14048.4894,-3636.5334"/>
<path content="AP030,1,28,1,0,14,1,8,JPN" xlink:title="AP030" d="M14041.0797,-3636.5868L14041.4307,-3636.2598"/>
<path content="AP030,1,28,1,0,14,1,8,JPN" xlink:title="AP030" d="M14050.0595,-3637.5935L14050.1297,-3637.1468L14050.1358,-3637.1193L14050.177,-3636.9198L14050.2396,-3636.6199L14050.3296,-3636.2999L14050.3296,-3636.2465"/>
<path content="AP030,1,28,1,0,14,1,8,JPN" xlink:title="AP030" d="M14048.4894,-3636.5334L14048.6099,-3636.5334L14048.7198,-3636.5532L14048.79,-3636.5532L14048.9502,-3636.5665L14049.3103,-3636.6066L14049.4003,-3636.6199L14049.6994,-3636.7134L14049.8093,-3636.6402L14049.8596,-3636.6402L14049.9298,-3636.6199L14050.1297,-3636.4399L14050.3296,-3636.2465"/>
<path content="AP030,1,28,1,0,14,1,8,JPN" xlink:title="AP030" d="M14041.4307,-3636.2598L14041.4703,-3636.2064"/>
<path content="AP030,1,28,1,0,16,1,8,JPN" xlink:title="AP030" d="M14056.4056,-3636.153L14056.7734,-3636.4273L14056.7902,-3636.4399L14057.5607,-3637.4134L14057.8247,-3637.8368"/>
<path content="AP030,1,28,1,0,15,1,8,JPN" xlink:title="AP030" d="M14052.8442,-3638.1496L14055.3162,-3636.8519L14056.4056,-3636.153"/>
<path content="AP030,1,28,1,0,15,1,8,JPN" xlink:title="AP030" d="M14040.1779,-3636.0023L14041.4307,-3636.2598"/>
<path content="AP030,1,28,1,0,15,1,8,JPN" xlink:title="AP030" d="M14040.1779,-3636.0023L14041.0797,-3636.5868"/>
<path content="AP030,1,28,1,0,16,1,8,JPN" xlink:title="AP030" d="M14055.5405,-3635.5064L14056.4056,-3636.153"/>
<path content="AP030,1,28,1,0,15,1,8,JPN" xlink:title="AP030" d="M14051.8814,-3636.8164L14053.4393,-3636.2934L14054.5837,-3636.1217L14055.5405,-3635.5064"/>
<path content="AP030,1,28,1,0,15,1,8,JPN" xlink:title="AP030" d="M14041.4703,-3636.2064L14042.3203,-3636.2011L14043.1137,-3635.7418L14044.0704,-3635.3935L14044.342,-3635.3729L14044.9677,-3635.6182L14045.2072,-3636.4571L14045.4742,-3637.2078L14046.1563,-3637.1887L14046.405,-3637.3188L14046.9299,-3637.5935"/>
<path content="AP030,1,28,1,0,14,1,8,JPN" xlink:title="AP030" d="M14057.8247,-3637.8368L14057.8598,-3637.5267L14057.9498,-3636.2999L14058.0521,-3635.2482L14058.0597,-3635.1665L14058.0597,-3634.8598"/>
<path content="AP030,1,28,1,0,15,1,8,JPN" xlink:title="AP030" d="M14056.4056,-3636.153L14056.6833,-3635.9753L14058.0597,-3634.8598"/>
<path content="AP030,1,28,1,0,16,1,8,JPN" xlink:title="AP030" d="M14036.6501,-3634.8L14036.8607,-3635.2531L14037.1796,-3635.6335L14037.6801,-3636.1732L14038.1302,-3636.7466L14038.3606,-3637.1067L14038.5406,-3637.5065L14038.6185,-3637.7609L14038.6505,-3637.8666L14038.6505,-3638.1931L14038.6795,-3638.2999L14038.7207,-3638.62L14038.7238,-3638.6364"/>
<path content="AP030,1,28,1,0,15,1,8,JPN" xlink:title="AP030" d="M14035.3607,-3637.9398L14035.6506,-3637.3745L14035.6735,-3637.1399L14035.8307,-3635.5335L14036.6501,-3634.8"/>
<path content="AP030,1,28,1,0,15,1,8,JPN" xlink:title="AP030" d="M14029.0405,-3634.6401L14031.81,-3636.0806L14033.8593,-3637.4866"/>
<path content="AP030,1,28,1,0,14,1,8,JPN" xlink:title="AP030" d="M14027.3438,-3635.7156L14027.6306,-3635.4534L14027.7405,-3635.3268L14028.1097,-3635.0399L14028.5202,-3634.7668L14028.7201,-3634.7466L14028.83,-3634.6802L14029.0405,-3634.6401"/>
<path content="AP030,1,28,1,0,15,1,8,JPN" xlink:title="AP030" d="M14037.7853,-3634.6397L14040.0772,-3635.9814L14040.1779,-3636.0023"/>
<path content="AP030,1,28,1,0,14,1,8,JPN" xlink:title="AP030" d="M14041.4703,-3636.2064L14041.8594,-3635.7201L14041.9693,-3635.6335L14042.2699,-3635.4668L14042.8299,-3635.2531L14043.3594,-3635.0933L14043.8797,-3634.9865L14043.9896,-3634.9667L14044.5206,-3634.8732L14045.0394,-3634.8L14045.7901,-3634.6199L14045.8801,-3634.6199L14046.2906,-3634.6802L14046.4493,-3634.6931L14046.8994,-3634.7134L14047.11,-3634.66L14047.2397,-3634.6066L14047.4503,-3634.5531"/>
<path content="AP030,1,28,1,0,15,1,8,JPN" xlink:title="AP030" d="M14047.58,-3634.4799L14048.0789,-3634.9709L14048.4894,-3636.5334"/>
<path content="AP030,1,28,1,0,14,1,8,JPN" xlink:title="AP030" d="M14047.4503,-3634.5531L14047.4899,-3634.5333L14047.58,-3634.4799"/>
<path content="AP030,1,28,1,0,15,1,8,JPN" xlink:title="AP030" d="M14029.0405,-3634.6401L14029.8248,-3634.6642L14030.1376,-3634.6737L14032.4432,-3634.7446L14033.931,-3634.9205L14034.3872,-3634.9564L14035.7574,-3634.4616L14036.6501,-3634.8"/>
<path content="AP030,1,28,1,0,15,1,8,JPN" xlink:title="AP030" d="M14038.3484,-3634.37L14038.0539,-3634.5703L14038.7863,-3635.0594L14039.5447,-3635.5919L14040.1779,-3636.0023"/>
<path content="AP030,1,28,1,0,15,1,8,JPN" xlink:title="AP030" d="M14037.7853,-3634.6397L14038.3484,-3634.37"/>
<path content="AP030,1,28,1,0,14,1,8,JPN" xlink:title="AP030" d="M14057.5195,-3634.1934L14057.5607,-3634.2464L14057.6996,-3634.3735L14057.8293,-3634.5531L14057.8796,-3634.5867L14057.93,-3634.6802L14058.0399,-3634.8L14058.0597,-3634.8598"/>
<path content="AP030,1,28,1,0,15,1,8,JPN" xlink:title="AP030" d="M14055.5405,-3635.5064L14056.308,-3634.9377L14056.7184,-3634.7187L14057.5195,-3634.1934"/>
<path content="AP030,1,28,1,0,15,1,8,JPN" xlink:title="AP030" d="M14036.6501,-3634.8L14036.4502,-3634.1331"/>
<path content="AP030,1,28,1,0,16,1,8,JPN" xlink:title="AP030" d="M14036.4502,-3634.1331L14036.5402,-3634.4601L14036.6501,-3634.8"/>
<path content="AP030,1,28,1,0,15,1,8,JPN" xlink:title="AP030" d="M14059.4513,-3634.0862L14059.8129,-3634.2384L14060.585,-3634.6893L14060.9406,-3635.4729L14061.8317,-3636.1496L14062.175,-3636.6482L14062.3306,-3637.1468L14062.4954,-3637.9421L14062.3154,-3638.1565"/>
<path content="AP030,1,28,1,0,15,1,8,JPN" xlink:title="AP030" d="M14058.0597,-3634.8598L14058.7372,-3634.1747L14059.4513,-3634.0862"/>
<path content="AP030,1,28,1,0,14,1,8,JPN" xlink:title="AP030" d="M14048.2193,-3634.0668L14048.2895,-3634.1L14049.2706,-3634.8934L14050.0397,-3635.6865L14050.1801,-3635.8665L14050.1999,-3635.9001L14050.3296,-3636.1198L14050.3296,-3636.2465"/>
<path content="AP030,1,28,1,0,14,1,8,JPN" xlink:title="AP030" d="M14047.58,-3634.4799L14047.9507,-3634.3201L14048.0392,-3634.2266L14048.2193,-3634.0668"/>
<path content="AP030,1,28,1,0,15,1,8,JPN" xlink:title="AP030" d="M14038.3484,-3634.37L14038.8229,-3634.1427L14039.0152,-3633.9558"/>
<path content="AP030,1,28,1,0,15,1,8,JPN" xlink:title="AP030" d="M14039.0152,-3633.9558L14038.7939,-3634.0672L14038.3484,-3634.37"/>
<path content="AP030,1,28,1,0,16,1,8,JPN" xlink:title="AP030" d="M14055.5405,-3635.5064L14054.95,-3635.0201L14054.6692,-3634.684L14054.6494,-3634.66L14054.2892,-3633.8665"/>
<path content="AP030,1,28,1,0,14,1,8,JPN" xlink:title="AP030" d="M14050.3296,-3636.2465L14050.6302,-3635.9531L14050.7904,-3635.8131L14051.1307,-3635.4668L14051.1993,-3635.4134L14051.6495,-3635.2001L14051.86,-3635.0933L14052.1103,-3634.8934L14052.5604,-3634.5867L14052.7893,-3634.5001L14053.1998,-3634.3201L14053.4897,-3634.1934L14054.2892,-3633.8665"/>
<path content="AP030,1,28,1,0,14,1,8,JPN" xlink:title="AP030" d="M14029.0405,-3634.6401L14029.0405,-3634.5001L14028.9978,-3634.3937L14028.8803,-3634.1L14028.8605,-3634.0668L14028.7399,-3633.8135L14028.8101,-3633.7067L14029.1107,-3633.5068"/>
<path content="AP030,1,28,1,0,14,1,8,JPN" xlink:title="AP030" d="M14055.4504,-3633.2867L14055.4703,-3633.3065L14055.5801,-3633.3267L14055.7907,-3633.4332L14056.0196,-3633.6864L14056.2393,-3633.8898L14056.3293,-3633.9733L14056.3797,-3633.9535L14056.6803,-3633.9535L14056.9901,-3633.9733L14057.0801,-3633.9931L14057.3593,-3634.0801L14057.5195,-3634.1934"/>
<path content="AP030,1,28,1,0,14,1,8,JPN" xlink:title="AP030" d="M14054.2892,-3633.8665L14054.4907,-3633.7734L14055.3299,-3633.3801L14055.4504,-3633.2867"/>
<path content="AP030,1,28,1,0,14,1,8,JPN" xlink:title="AP030" d="M14029.1107,-3633.5068L14029.0207,-3633.2001L14029.0025,-3633.1086"/>
<path content="AP030,1,28,1,0,16,1,8,JPN" xlink:title="AP030" d="M14027.3438,-3633.6774L14027.7012,-3633.5974L14028.3827,-3633.4425L14028.8165,-3633.2256L14029.0025,-3633.1086"/>
<path content="AP030,1,28,1,0,15,1,8,JPN" xlink:title="AP030" d="M14048.2193,-3634.0668L14048.8297,-3633.3466L14048.7198,-3633.2199L14048.79,-3633.0532"/>
<path content="AP030,1,28,1,0,14,1,8,JPN" xlink:title="AP030" d="M14046.6293,-3633.0399L14047.7905,-3633.7601L14048.2193,-3634.0668"/>
<path content="AP030,1,28,1,0,15,1,8,JPN" xlink:title="AP030" d="M14046.6293,-3633.0399L14047.1039,-3634.1068L14047.4503,-3634.5531"/>
<path content="AP030,1,28,1,0,16,1,8,JPN" xlink:title="AP030" d="M14048.79,-3633.0532L14049.2004,-3633.1467L14049.6094,-3633.1665L14050.3296,-3633.1467L14051.2207,-3633.0933L14051.68,-3633.0532L14052.2003,-3632.9666L14052.4307,-3632.9468L14052.8107,-3632.9468L14053.36,-3632.9865L14053.5202,-3633.0399L14053.6804,-3633.0734L14053.83,-3633.1665L14054.2892,-3633.8665"/>
<path content="AP030,1,28,1,0,14,1,8,JPN" xlink:title="AP030" d="M14055.4504,-3633.2867L14055.7007,-3632.9132"/>
<path content="AP030,1,28,1,0,14,1,8,JPN" xlink:title="AP030" d="M14029.0025,-3633.1086L14028.9703,-3632.9468L14028.9505,-3632.8934L14028.9505,-3632.8602"/>
<path content="AP030,1,28,1,0,15,1,8,JPN" xlink:title="AP030" d="M14039.9887,-3632.0671L14039.7552,-3632.9258L14039.5325,-3633.6964L14039.0152,-3633.9558"/>
<path content="AP030,1,28,1,0,15,1,8,JPN" xlink:title="AP030" d="M14039.0152,-3633.9558L14039.4073,-3633.5762L14039.7034,-3632.7408L14039.9887,-3632.0671"/>
<path content="AP030,1,28,1,0,16,1,8,JPN" xlink:title="AP030" d="M14034.3994,-3631.7402L14034.4299,-3631.8466L14034.5596,-3632.0667L14034.8801,-3632.46L14035.3302,-3633.0002L14035.5606,-3633.1665L14035.8994,-3633.4667L14036.2,-3633.7399L14036.3297,-3633.9401L14036.4502,-3634.1331"/>
<path content="AP030,1,28,1,0,16,1,8,JPN" xlink:title="AP030" d="M14032.5485,-3631.5926L14034.3994,-3631.7402"/>
<path content="AP030,1,28,1,0,15,1,8,JPN" xlink:title="AP030" d="M14036.4502,-3634.1331L14035.1837,-3633.7215L14032.5485,-3631.5926"/>
<path content="AP030,1,28,1,0,14,1,8,JPN" xlink:title="AP030" d="M14028.36,-3631.58L14028.5599,-3631.9401L14028.6102,-3631.9733L14028.7003,-3632.0667L14028.8101,-3632.2601L14028.8803,-3632.4066L14028.9703,-3632.5867L14028.9505,-3632.8602"/>
<path content="AP030,1,28,1,0,16,1,8,JPN" xlink:title="AP030" d="M14032.0068,-3631.5495L14032.5485,-3631.5926"/>
<path content="AP030,1,28,1,0,15,1,8,JPN" xlink:title="AP030" d="M14029.1107,-3633.5068L14029.599,-3633.1768L14032.0068,-3631.5495"/>
<path content="AP030,1,28,1,0,16,1,8,JPN" xlink:title="AP030" d="M14029.0025,-3633.1086L14030.1952,-3632.3582L14030.9852,-3631.8625L14031.357,-3631.7076L14032.0068,-3631.5495"/>
<path content="AP030,1,28,1,0,16,1,8,JPN" xlink:title="AP030" d="M14044.9768,-3631.4152L14047.2687,-3632.2571L14048.79,-3633.0532"/>
<path content="AP030,1,28,1,0,14,1,8,JPN" xlink:title="AP030" d="M14044.9768,-3631.4152L14045.5399,-3631.9733L14045.5597,-3631.9935L14045.6802,-3632.1335L14045.9702,-3632.4402L14046.2006,-3632.6935L14046.3593,-3632.7999L14046.5607,-3632.9865L14046.6293,-3633.0399"/>
<path content="AP030,1,28,1,0,14,1,8,JPN" xlink:title="AP030" d="M14055.7007,-3632.9132L14055.7007,-3632.7667L14055.7205,-3632.28L14055.7205,-3632.2468L14055.7404,-3632.1732L14055.5206,-3631.5601L14055.418,-3631.3158"/>
<path content="AP030,1,28,1,0,15,1,8,JPN" xlink:title="AP030" d="M14039.9887,-3632.0671L14040.0772,-3632.0099L14041.037,-3631.8855L14041.5512,-3631.7448L14041.9067,-3631.5456L14042.4057,-3631.3042"/>
<path content="AP030,1,28,1,0,16,1,8,JPN" xlink:title="AP030" d="M14042.4057,-3631.3042L14043.2541,-3631.2954L14044.9768,-3631.4152"/>
<path content="AP030,1,28,1,0,15,1,8,JPN" xlink:title="AP030" d="M14057.5546,-3631.2611L14057.8812,-3631.3065L14058.5892,-3631.3087L14058.9111,-3631.5197L14059.1492,-3631.7692L14059.2789,-3631.9592L14059.3506,-3632.2083L14059.3979,-3632.695L14059.3964,-3633.1192L14059.3399,-3633.6479L14059.4513,-3634.0862"/>
<path content="AP030,1,28,1,0,15,1,8,JPN" xlink:title="AP030" d="M14055.7007,-3632.9132L14056.4026,-3632.5356L14056.6284,-3632.2861L14057.5546,-3631.2611"/>
<path content="AP030,1,28,1,0,15,1,8,JPN" xlink:title="AP030" d="M14035.5331,-3631.2225L14036.5417,-3632.6389L14037.7853,-3634.6397"/>
<path content="AP030,1,28,1,0,16,1,8,JPN" xlink:title="AP030" d="M14034.3994,-3631.7402L14035.5331,-3631.2225"/>
<path content="AP030,1,28,1,0,14,1,8,JPN" xlink:title="AP030" d="M14043.6096,-3630.5866L14043.6798,-3630.6198L14043.7897,-3630.6934L14043.8599,-3630.7335L14043.9896,-3630.7667L14044.1101,-3630.7865L14044.3604,-3630.8399L14044.4305,-3630.9265L14044.6503,-3631.0932L14044.7403,-3631.1798L14044.9768,-3631.4152"/>
<path content="AP030,1,28,1,0,14,1,8,JPN" xlink:title="AP030" d="M14028.36,-3631.58L14028.6804,-3631.2L14028.9261,-3631.0635L14029.0405,-3631.0001L14029.4006,-3630.8399L14029.6799,-3630.7335L14029.9301,-3630.5668"/>
<path content="AP030,1,28,1,0,16,1,8,JPN" xlink:title="AP030" d="M14035.5331,-3631.2225L14035.7224,-3631.1363L14038.6703,-3630.4249L14041.3025,-3630.772L14042.4057,-3631.3042"/>
<path content="AP030,1,28,1,0,14,1,8,JPN" xlink:title="AP030" d="M14043.4692,-3630.3867L14043.5593,-3630.5332L14043.6096,-3630.5866"/>
<path content="AP030,1,28,1,0,15,1,8,JPN" xlink:title="AP030" d="M14043.6096,-3630.5866L14044.0521,-3630.3238L14045.2225,-3630.4173L14046.5546,-3630.6217L14048.0499,-3630.9811L14050.3372,-3631.123L14051.2314,-3631.7879L14052.5375,-3632.1678L14053.0258,-3632.3685L14054.7104,-3633.1242L14055.7007,-3632.9132"/>
<path content="AP030,1,28,1,0,15,1,8,JPN" xlink:title="AP030" d="M14043.1503,-3630.3001L14043.4692,-3630.3867"/>
<path content="AP030,1,28,1,0,15,1,8,JPN" xlink:title="AP030" d="M14042.4057,-3631.3042L14043.0679,-3630.7598L14043.1503,-3630.3001"/>
<path content="AP030,1,28,1,0,15,1,8,JPN" xlink:title="AP030" d="M14043.0603,-3630.2601L14043.4692,-3630.3867"/>
<path content="AP030,1,28,1,0,14,1,8,JPN" xlink:title="AP030" d="M14043.0603,-3630.2601L14043.1503,-3630.3001"/>
<path content="AP030,1,28,1,0,15,1,8,JPN" xlink:title="AP030" d="M14055.9006,-3629.7932L14056.2775,-3630.7053L14056.6849,-3630.9273L14057.5546,-3631.2611"/>
<path content="AP030,1,28,1,0,14,1,8,JPN" xlink:title="AP030" d="M14055.418,-3631.3158L14055.4001,-3631.2733L14055.3802,-3631.1665L14055.3604,-3630.9868L14055.5206,-3630.5866L14055.8029,-3630.0354L14055.9006,-3629.8466L14055.9006,-3629.7932"/>
<path content="AP030,1,28,1,0,14,1,8,JPN" xlink:title="AP030" d="M14027.3438,-3629.9842L14027.3804,-3630.0266L14027.4704,-3630.1201L14027.6993,-3630.4066L14027.9007,-3630.6934L14028.1799,-3631.0932L14028.36,-3631.58"/>
<path content="AP030,1,28,1,0,15,1,8,JPN" xlink:title="AP030" d="M14035.0464,-3629.7142L14035.2417,-3630.8147L14035.5331,-3631.2225"/>
<path content="AP030,1,28,1,0,15,1,8,JPN" xlink:title="AP030" d="M14035.0464,-3629.7142L14035.7162,-3629.7573L14038.0783,-3629.6257"/>
<path content="AP030,1,28,1,0,15,1,8,JPN" xlink:title="AP030" d="M14033.49,-3629.6131L14035.0464,-3629.7142"/>
<path content="AP030,1,28,1,0,16,1,8,JPN" xlink:title="AP030" d="M14033.49,-3629.6131L14033.7402,-3630.1334L14033.9493,-3630.7335L14034.3994,-3631.7402"/>
<path content="AP030,1,28,1,0,15,1,8,JPN" xlink:title="AP030" d="M14028.9505,-3632.8602L14029.4022,-3632.5516L14030.1487,-3632.0484L14031.9641,-3630.8044L14033.49,-3629.6131"/>
<path content="AP030,1,28,1,0,15,1,8,JPN" xlink:title="AP030" d="M14029.9301,-3630.5668L14030.5923,-3630.1682L14031.8008,-3629.776L14033.49,-3629.6131"/>
<path content="AP030,1,28,1,0,14,1,8,JPN" xlink:title="AP030" d="M14029.5395,-3629.5067L14029.8294,-3629.7401L14029.9698,-3629.9L14029.9896,-3630.1533L14029.9896,-3630.2601L14029.9301,-3630.5668"/>
<path content="AP030,1,28,1,0,15,1,8,JPN" xlink:title="AP030" d="M14027.3438,-3629.7597L14028.0182,-3629.7588L14028.6804,-3629.7577L14029.5395,-3629.5067"/>
<path content="AP030,1,28,1,0,15,1,8,JPN" xlink:title="AP030" d="M14038.0783,-3629.6257L14039.4684,-3629.5479L14040.6631,-3629.3385"/>
<path content="AP030,1,28,1,0,14,1,8,JPN" xlink:title="AP030" d="M14041.7892,-3629.0001L14041.9495,-3629.3999L14042.1295,-3629.6131L14042.45,-3629.8866L14042.5201,-3629.9534L14043.0603,-3630.2601"/>
<path content="AP030,1,28,1,0,15,1,8,JPN" xlink:title="AP030" d="M14040.6631,-3629.3385L14041.7892,-3629.0001"/>
<path content="AP030,1,28,1,0,14,1,8,JPN" xlink:title="AP030" d="M14029.2694,-3628.9867L14029.4006,-3629.3266L14029.5395,-3629.5067"/>
<path content="AP030,1,28,1,0,15,1,8,JPN" xlink:title="AP030" d="M14034.7946,-3628.9452L14035.7498,-3629.0886L14038.0783,-3629.6257"/>
<path content="AP030,1,28,1,0,15,1,8,JPN" xlink:title="AP030" d="M14034.7946,-3628.9452L14035.0464,-3629.7142"/>
<path content="AP030,1,28,1,0,15,1,8,JPN" xlink:title="AP030" d="M14033.49,-3629.6131L14034.7946,-3628.9452"/>
<path content="AP030,1,28,1,0,14,1,8,JPN" xlink:title="AP030" d="M14029.1794,-3628.7666L14029.2694,-3628.9867"/>
<path content="AP030,1,28,1,0,15,1,8,JPN" xlink:title="AP030" d="M14027.4002,-3628.7334L14027.7847,-3628.7403L14029.1794,-3628.7666"/>
<path content="AP030,1,28,1,0,14,1,8,JPN" xlink:title="AP030" d="M14027.3438,-3628.8222L14027.4002,-3628.7334"/>
<path content="AP030,1,28,1,0,14,1,8,JPN" xlink:title="AP030" d="M14055.9006,-3629.7932L14055.9006,-3629.6665L14055.9006,-3629.5933L14055.9006,-3629.4533L14055.7404,-3629.1466L14055.7205,-3628.9131L14055.6793,-3628.4065"/>
<path content="AP030,1,28,1,0,14,1,8,JPN" xlink:title="AP030" d="M14041.4307,-3628.3733L14041.6306,-3628.6201L14041.7892,-3629.0001"/>
<path content="AP030,1,28,1,0,15,1,8,JPN" xlink:title="AP030" d="M14040.6631,-3629.3385L14041.4307,-3628.3733"/>
<path content="AP030,1,28,1,0,16,1,8,JPN" xlink:title="AP030" d="M14032.1106,-3628.3333L14032.4493,-3628.5534L14033.0399,-3628.9467L14033.2703,-3629.2332L14033.49,-3629.6131"/>
<path content="AP030,1,28,1,0,15,1,8,JPN" xlink:title="AP030" d="M14029.2694,-3628.9867L14030.3864,-3628.8372L14031.2103,-3628.4874L14032.1106,-3628.3333"/>
<path content="AP030,1,28,1,0,15,1,8,JPN" xlink:title="AP030" d="M14043.4692,-3630.3867L14043.4021,-3629.8359L14043.7592,-3629.3526L14044.6625,-3628.7395L14045.3186,-3628.2574L14045.8115,-3627.951"/>
<path content="AP030,1,28,1,0,15,1,8,JPN" xlink:title="AP030" d="M14045.8115,-3627.951L14046.7361,-3627.9335L14047.4991,-3627.9808L14048.0148,-3628.0712L14048.4497,-3628.2936L14048.7762,-3628.339L14049.4019,-3628.4077L14049.7543,-3628.6518L14050.2701,-3628.8742L14050.9521,-3628.7449L14051.442,-3628.7029L14051.8219,-3628.8364L14051.9562,-3629.0577L14052.1194,-3629.2786L14052.2507,-3630.0285L14052.3285,-3630.6683L14052.4353,-3631.0654L14052.8427,-3631.2214L14053.8559,-3631.4556L14055.418,-3631.3158"/>
<path content="AP030,1,28,1,0,15,1,8,JPN" xlink:title="AP030" d="M14034.2087,-3627.2957L14034.4452,-3627.8847L14034.7946,-3628.9452"/>
<path content="AP030,1,28,1,0,15,1,8,JPN" xlink:title="AP030" d="M14032.1106,-3628.3333L14033.1894,-3627.4345L14034.2087,-3627.2957"/>
<path content="AP030,1,28,1,0,15,1,8,JPN" xlink:title="AP030" d="M14052.6993,-3626.3153L14053.0289,-3626.4767L14053.3249,-3627.0851L14053.3691,-3627.1748L14053.7109,-3627.5936L14053.7582,-3627.6009L14054.6478,-3627.7332L14055.6793,-3628.4065"/>
<path content="AP030,1,28,1,0,14,1,8,JPN" xlink:title="AP030" d="M14038.7207,-3626.1932L14039.18,-3626.6201L14039.2395,-3626.6933L14039.5798,-3627.0733L14039.74,-3627.1801L14040.1306,-3627.4864L14040.5197,-3627.7065L14041.04,-3627.94L14041.1102,-3627.9934L14041.1804,-3628.0998L14041.2903,-3628.2265L14041.4307,-3628.3733"/>
<path content="AP030,1,28,1,0,15,1,8,JPN" xlink:title="AP030" d="M14034.2087,-3627.2957L14036.203,-3627.0523L14037.4649,-3626.7487L14038.7207,-3626.1932"/>
<path content="AP030,1,28,1,0,14,1,8,JPN" xlink:title="AP030" d="M14027.4002,-3628.7334L14027.4902,-3628.5667L14027.4902,-3628.4599L14027.4902,-3628.0464L14027.3438,-3627.7578M14027.3438,-3626.2304L14027.4902,-3626.12L14027.9007,-3625.9201"/>
<path content="AP030,1,28,1,0,15,1,8,JPN" xlink:title="AP030" d="M14041.4307,-3628.3733L14043.0511,-3627.5936L14043.3914,-3627.0351L14044.6716,-3626.1276L14045.7932,-3625.8217"/>
<path content="AP030,1,28,1,0,15,1,8,JPN" xlink:title="AP030" d="M14046.2067,-3625.7092L14047.229,-3625.779L14048.2529,-3626.2672L14050.8957,-3626.3371L14052.6016,-3626.2672L14052.6993,-3626.3153"/>
<path content="AP030,1,28,1,0,15,1,8,JPN" xlink:title="AP030" d="M14045.8115,-3627.951L14046.2067,-3625.7092"/>
<path content="AP030,1,28,1,0,15,1,8,JPN" xlink:title="AP030" d="M14045.7932,-3625.8217L14046.2067,-3625.7092"/>
<path content="AP030,1,28,1,0,14,1,8,JPN" xlink:title="AP030" d="M14027.6327,-3624.9174L14027.67,-3625.032L14027.9007,-3625.9201"/>
<path content="AP030,1,28,1,0,15,1,8,JPN" xlink:title="AP030" d="M14027.3438,-3624.9943L14027.6327,-3624.9174"/>
<path content="AP030,1,28,1,0,14,1,8,JPN" xlink:title="AP030" d="M14027.9007,-3625.9201L14028.0396,-3625.8133L14028.1799,-3625.6535L14028.1998,-3625.5264L14028.2196,-3625.3067L14028.3798,-3624.9866L14028.3997,-3624.7868L14028.3997,-3624.7131"/>
<path content="AP030,1,28,1,0,15,1,8,JPN" xlink:title="AP030" d="M14027.6327,-3624.9174L14028.3997,-3624.7131"/>
<path content="AP030,1,28,1,0,15,1,8,JPN" xlink:title="AP030" d="M14045.7932,-3625.8217L14045.1492,-3625.1781L14044.986,-3624.4961L14045.4514,-3624.0894"/>
<path content="AP030,1,28,1,0,15,1,8,JPN" xlink:title="AP030" d="M14041.4307,-3628.3733L14041.5161,-3626.4767L14041.4307,-3625.2205L14041.6753,-3624.0845"/>
<path content="AP030,1,28,1,0,15,1,8,JPN" xlink:title="AP030" d="M14041.6753,-3624.0845L14042.8864,-3624.2138L14043.602,-3623.9788L14044.1498,-3623.8789L14045.4514,-3624.0894"/>
<path content="AP030,1,28,1,0,14,1,8,JPN" xlink:title="AP030" d="M14055.6793,-3628.4065L14055.6793,-3627.8667L14055.6503,-3627.1667L14055.6503,-3626.68L14055.6503,-3626.5331L14055.5603,-3626.3733L14055.3101,-3625.9201L14055.2399,-3625.8133L14055.04,-3625.4131L14054.9698,-3625.1667L14054.8996,-3624.6933L14054.8996,-3624.4801L14054.9301,-3624.2268L14054.8996,-3623.5065L14054.9698,-3623.2201"/>
<path content="AP030,1,28,1,0,15,1,8,JPN" xlink:title="AP030" d="M14052.4384,-3623.1655L14054.9698,-3623.2201"/>
<path content="AP030,1,28,1,0,15,1,8,JPN" xlink:title="AP030" d="M14052.6993,-3626.3153L14051.9211,-3625.1049L14051.9669,-3624.6284L14052.0752,-3624.419L14052.179,-3624.2203L14052.4384,-3623.1655"/>
<path content="AP030,1,28,1,0,15,1,8,JPN" xlink:title="AP030" d="M14045.4514,-3624.0894L14047.049,-3624.2668L14047.8455,-3624.577L14048.7701,-3624.5811L14051.7105,-3623.6767L14051.7197,-3623.6736L14052.4384,-3623.1655"/>
<path content="AP030,1,28,1,0,16,1,8,JPN" xlink:title="AP030" d="M14028.392,-3622.3076L14028.5797,-3622.4266L14028.6804,-3622.4659L14029.1794,-3622.6601L14029.3304,-3622.86L14029.4907,-3623.18L14029.6799,-3623.5931L14029.7699,-3624.1333L14029.7897,-3624.6933L14029.8294,-3625.7065L14029.9896,-3626.2066L14030.13,-3626.4801L14030.4703,-3626.9665L14030.7907,-3627.3464L14031.1996,-3627.7401L14031.6299,-3628.0464L14032.1106,-3628.3333"/>
<path content="AP030,1,28,1,0,14,1,8,JPN" xlink:title="AP030" d="M14028.3997,-3624.7131L14028.36,-3624.4801L14028.3096,-3624.0799L14028.3295,-3623.9532L14028.54,-3623.4531L14028.6102,-3623.1667L14028.5797,-3622.9134L14028.392,-3622.3076"/>
<path content="AP030,1,28,1,0,15,1,8,JPN" xlink:title="AP030" d="M14041.6753,-3624.0845L14041.9418,-3622.8474L14041.9418,-3622.0795"/>
<path content="AP030,1,28,1,0,14,1,8,JPN" xlink:title="AP030" d="M14027.6327,-3624.9174L14027.45,-3624.355L14027.3438,-3624.095"/>
<path content="AP030,1,28,1,0,16,1,8,JPN" xlink:title="AP030" d="M14027.6306,-3621.4867L14027.8595,-3621.8468L14028.1494,-3622.1535L14028.392,-3622.3076"/>
<path content="AP030,1,28,1,0,15,1,8,JPN" xlink:title="AP030" d="M14027.3438,-3621.5679L14027.6306,-3621.4867"/>
<path content="AP030,1,28,1,0,15,1,8,JPN" xlink:title="AP030" d="M14041.9418,-3622.0795L14042.3189,-3621.0938"/>
<path content="AP030,1,28,1,0,15,1,8,JPN" xlink:title="AP030" d="M14029.5664,-3621.0938L14031.5308,-3623.1701L14032.1701,-3625.0797L14032.9834,-3625.9708L14033.9096,-3626.5522L14034.2087,-3627.2957"/>
<path content="AP030,1,28,1,0,14,1,8,JPN" xlink:title="AP030" d="M14028.392,-3622.3076L14028.2394,-3621.8132L14028.1097,-3621.4134L14028.0396,-3621.2002L14028.0026,-3621.0938"/>
<path content="AP030,1,28,1,0,16,1,8,JPN" xlink:title="AP030" d="M14027.3915,-3621.0938L14027.4002,-3621.1067L14027.6306,-3621.4867"/>
<path content="AP030,1,28,1,0,14,1,8,JPN" xlink:title="AP030" d="M14031.1867,-3621.0938L14031.3797,-3621.3467L14031.4896,-3621.4535L14031.6498,-3621.6331L14031.6803,-3621.6667L14031.7398,-3621.74L14031.9,-3622.0135L14031.9504,-3622.1931L14032.0602,-3622.4068L14032.2403,-3622.7135L14032.5607,-3622.9465L14033.1299,-3623.3601L14033.2901,-3623.5065L14033.4,-3623.6134L14033.49,-3623.6134L14033.5602,-3623.6134L14034.0607,-3623.6866L14034.61,-3623.74L14035.4294,-3623.8464L14035.4904,-3623.8464L14035.6293,-3623.8667L14035.6796,-3623.8667L14035.7895,-3623.8998L14036.1099,-3623.9933L14036.3998,-3624.1001L14036.6104,-3624.2466L14036.7203,-3624.3534L14036.9293,-3624.5533L14037.0605,-3624.6601L14037.1796,-3624.7868L14037.4298,-3625L14037.7701,-3625.3468L14038.4903,-3625.9933L14038.7207,-3626.1932"/>
<path content="AP030,1,28,1,0,14,1,8,JPN" xlink:title="AP030" d="M14054.9698,-3623.2201L14055.0201,-3622.9465L14054.9896,-3622.5334L14054.9698,-3621.8666L14054.9698,-3621.8132L14054.9896,-3621.74L14054.9698,-3621.5801L14054.8996,-3621.3799L14054.8996,-3621.3264L14054.9267,-3621.0938"/>
<path content="AP030,1,28,1,0,15,1,8,JPN" xlink:title="AP030" d="M14040.827,-3621.0938L14041.9418,-3622.0795"/>
<path content="AP030,1,28,1,0,15,1,8,JPN" xlink:title="AP030" d="M14045.4514,-3624.0894L14045.3293,-3623.5439L14046.8521,-3622.1542L14048.241,-3621.0937"/>
<path content="AP030,1,28,1,0,15,1,8,JPN" xlink:title="AP030" d="M14052.4384,-3623.1655L14051.9363,-3622.5502L14051.9455,-3621.1197L14051.9467,-3621.0938"/>
</g>
</svg>
