<?xml version="1.0" encoding="UTF-8"?>
<svg  xmlns="http://www.w3.org/2000/svg" xmlns:xlink="http://www.w3.org/1999/xlink" xmlns:go="http://purl.org/svgmap/profile" property="f_code,acc,exs,rst,med,rtt,RSU,loc,soc" viewBox="13148.4375 -3234.375 70.3125 70.3125" go:dataArea="13148.4375 -3234.375 70.3125 70.3125" >
<metadata>
 <rdf:RDF xmlns:rdf="http://www.w3.org/1999/02/22-rdf-syntax-ns#" xmlns:crs="http://opengis.org/xmldtds/transformations.dtd" xmlns:svg="http://www.w3.org/svg" >
  <rdf:Description>
   <crs:CoordinateReferenceSystem rdf:resource="http://purl.org/crs/84" svg:transform="matrix(100.0,0.0,0.0,-100.0,0.0,0.0)" />
  </rdf:Description>
 </rdf:RDF>
</metadata>
<globalCoordinateSystem srsName="http://purl.org/crs/84" transform="matrix(100.0,0.0,0.0,-100.0,0.0,0.0)" />
<defs>
 <g id="p0" >
  <circle cx="0.0" cy="0.0" r="3" stroke="green" stroke-width="2.0" vector-effect="non-scaling-stroke" />
 </g>
</defs>
<g fill="none" fill-rule="evenodd" stroke="#00ff00" stroke-width="2" opacity="0.5" vector-effect="non-scaling-stroke" stroke-linejoin="bevel" >
<path content="AP030,1,28,1,0,14,1,8,JPN" xlink:title="AP030" d="M13162.2899,-3234.375L13162.2894,-3234.3735L13162.1094,-3234.2266L13161.8607,-3234.1534L13161.6104,-3234.1934L13161.4502,-3234.2068L13161.29,-3234.2068L13161.2,-3234.1534L13161.1343,-3233.9912L13161.0199,-3233.7067L13160.9894,-3233.6666L13160.8994,-3233.4866L13160.7895,-3233.3599"/>
<path content="AP030,1,28,1,0,15,1,8,JPN" xlink:title="AP030" d="M13160.2694,-3234.375L13160.614,-3233.7029L13160.7895,-3233.3599"/>
<path content="AP030,1,28,1,0,14,1,8,JPN" xlink:title="AP030" d="M13160.7895,-3233.3599L13160.7193,-3233.3065L13160.6293,-3233.2733L13160.5103,-3233.2073L13160.4004,-3233.1467L13160.3104,-3233.0933L13160.1105,-3232.7465L13159.52,-3232.1335L13158.9493,-3231.5266L13158.7692,-3231.2733L13158.5403,-3231.0734L13158.49,-3231.0398L13158.0795,-3230.2601L13157.6797,-3229.3999L13157.6096,-3229.3465L13157.5607,-3229.2198L13157.1793,-3228.82L13157.0602,-3228.64L13156.9504,-3228.4267L13156.8604,-3228.1933L13156.8298,-3228.12L13156.7703,-3227.8332L13156.3293,-3226.9135L13156.2897,-3226.82L13156.1798,-3226.5533L13156.0394,-3226.4999L13155.7693,-3226.3535L13155.7205,-3226.1333L13155.6503,-3225.9533L13155.5603,-3225.7732L13155.3284,-3225.3799"/>
<path content="AP030,1,28,1,0,15,1,8,JPN" xlink:title="AP030" d="M13153.4843,-3224.7688L13153.4746,-3224.7656L13152.3148,-3224.3813L13151.6541,-3224.0009L13150.6561,-3222.7692L13150.354,-3221.9532L13149.7604,-3221.3139L13150.3204,-3219.6712L13150.2502,-3219.2368L13149.3347,-3218.7046L13148.4375,-3218.155"/>
<path content="AP030,1,28,1,0,15,1,8,JPN" xlink:title="AP030" d="M13149.9405,-3215.5132L13150.4272,-3215.6822L13151.738,-3214.2948L13151.1597,-3212.9429"/>
<path content="AP030,1,28,1,0,15,1,8,JPN" xlink:title="AP030" d="M13148.4375,-3215.0808L13148.5246,-3215.0527L13148.7538,-3215.0917L13149.4414,-3214.8058L13149.9379,-3214.2468L13150.5035,-3213.4014L13151.1597,-3212.9429"/>
<path content="AP030,1,28,1,0,14,1,8,JPN" xlink:title="AP030" d="M13155.3284,-3225.3799L13155.22,-3225.1999L13155.13,-3224.9664L13155.0797,-3224.7131L13155.0797,-3224.44L13154.9698,-3224.2802L13154.8599,-3224.0799L13154.7699,-3223.9399L13154.7195,-3223.7732L13154.8096,-3223.2334L13154.7195,-3223.04L13154.5395,-3222.7333L13154.4495,-3222.5666L13154.4296,-3222.5334L13154.1794,-3222.1535L13153.9902,-3221.8864L13153.8605,-3221.6534L13153.6499,-3221.4664L13153.5202,-3221.0732L13153.4302,-3220.9133L13153.36,-3220.7867L13153.1998,-3220.5132L13152.9694,-3220.1733L13152.9495,-3220.1332L13152.6794,-3219.8132L13152.5192,-3219.6335L13152.4307,-3219.5065L13152.3804,-3219.2734L13152.3605,-3219.0735L13152.2903,-3218.6932L13152.2903,-3218.6798L13152.2705,-3218.5867L13152.24,-3218.4601L13152.24,-3218.3201L13152.1805,-3218.0466L13152.0798,-3217.6533L13151.9699,-3217.3801L13151.9302,-3217.3267L13151.86,-3217.1265L13151.6998,-3216.7667L13151.3794,-3216.0133L13151.3107,-3215.8333L13151.2894,-3215.7066L13151.4496,-3215.5266L13151.5793,-3215.4133L13151.9699,-3215.2534L13152.2705,-3215.1466L13152.3605,-3215.0398L13152.4002,-3214.9467L13152.5192,-3214.5535L13152.6993,-3213.9732L13152.6993,-3213.7066L13152.4506,-3213.2866L13152.1805,-3212.9269L13152.0798,-3212.7468L13152.0203,-3212.64L13152.0203,-3212.6068"/>
<path content="AP030,1,28,1,0,15,1,8,JPN" xlink:title="AP030" d="M13151.1597,-3212.9429L13152.0203,-3212.6068"/>
<path content="AP030,1,28,1,0,15,1,8,JPN" xlink:title="AP030" d="M13151.1597,-3212.9429L13150.7492,-3212.3909"/>
<path content="AP030,1,28,1,0,14,1,8,JPN" xlink:title="AP030" d="M13152.0203,-3212.6068L13151.9897,-3212.1735L13152.0203,-3212.08"/>
<path content="AP030,1,28,1,0,15,1,8,JPN" xlink:title="AP030" d="M13150.7492,-3212.3909L13151.3123,-3212.3093L13152.0203,-3212.08"/>
<path content="AP030,1,28,1,0,15,1,8,JPN" xlink:title="AP030" d="M13148.4375,-3211.6679L13148.5016,-3211.7153L13149.0906,-3211.7661L13149.3835,-3211.8168L13149.678,-3211.9183L13149.913,-3212.1216L13149.8856,-3212.516L13150.7492,-3212.3909"/>
<path content="AP030,1,28,1,0,15,1,8,JPN" xlink:title="AP030" d="M13150.7492,-3212.3909L13150.0549,-3211.4586L13148.4375,-3210.1942"/>
<path content="AP030,1,28,1,0,14,1,8,JPN" xlink:title="AP030" d="M13152.0203,-3212.08L13152.0401,-3212.0468L13152.15,-3211.94L13152.5192,-3211.7401L13152.6993,-3211.6333L13152.7206,-3211.5269L13152.7206,-3211.4532L13152.7206,-3211.38L13152.15,-3210.3867L13151.68,-3209.6134L13151.6495,-3209.5798L13151.5198,-3209.38L13151.4496,-3209.1801L13151.2405,-3208.8932L13151.0803,-3208.68L13151.0193,-3208.5533L13150.8301,-3208.1532L13150.7401,-3207.9399L13150.6104,-3207.7934L13150.4303,-3207.6866L13150.3296,-3207.6668L13150.1801,-3207.5802L13149.8306,-3207.5268L13149.7894,-3207.5066L13149.4904,-3207.3467L13148.7396,-3206.7135L13148.7396,-3206.7131"/>
<path content="AP030,1,28,1,0,15,1,8,JPN" xlink:title="AP030" d="M13148.4375,-3206.6624L13148.7396,-3206.7131"/>
<path content="AP030,1,28,1,0,14,1,8,JPN" xlink:title="AP030" d="M13148.7396,-3206.7131L13148.7198,-3206.6799L13148.7,-3206.2599L13148.4375,-3206.0587"/>
<path content="AP030,1,28,1,1,16,1,8,JPN" xlink:title="AP030" d="M13159.9176,-3234.375L13159.7431,-3234.1649L13159.3189,-3233.7408L13159.0248,-3233.4945L13158.7579,-3233.2277L13158.4022,-3232.7009L13158.1764,-3232.1741L13157.848,-3231.7841L13157.0545,-3231.2984L13156.1924,-3230.8606L13155.6588,-3230.2175L13154.8789,-3229.807L13154.4274,-3229.2186L13154.1948,-3228.6577L13153.6201,-3228.1103L13153.3465,-3227.5083L13153.3601,-3226.6463L13153.2644,-3226.14L13152.9497,-3225.6475L13152.5392,-3225.1823"/>
<path content="AP030,1,28,1,1,16,1,8,JPN" xlink:title="AP030" d="M13152.5392,-3225.1823L13153.4843,-3224.7688"/>
<path content="AP030,1,28,1,1,16,1,8,JPN" xlink:title="AP030" d="M13152.5392,-3225.1823L13151.4309,-3224.375L13150.5962,-3223.4309L13149.9532,-3222.4457L13149.5974,-3221.7479L13149.0364,-3221.3511L13148.5575,-3220.8859L13148.4617,-3220.1744L13148.7901,-3219.6271L13149.2417,-3218.943L13149.8984,-3217.8484L13150.1994,-3217.0684L13150.2268,-3216.5759L13149.9805,-3216.1927L13149.1185,-3215.577"/>
<path content="AP030,1,28,1,1,16,1,8,JPN" xlink:title="AP030" d="M13149.1185,-3215.577L13149.9405,-3215.5132"/>
<path content="AP030,1,28,1,1,16,1,8,JPN" xlink:title="AP030" d="M13149.1185,-3215.577L13148.7538,-3215.0917L13148.4375,-3214.2174"/>
<path content="AP030,1,28,1,0,15,1,8,JPN" xlink:title="AP030" d="M13155.3284,-3225.3799L13153.4843,-3224.7688"/>
<path content="AP030,1,28,1,0,15,1,8,JPN" xlink:title="AP030" d="M13148.4375,-3216.3757L13148.5622,-3216.3469L13149.9405,-3215.5132"/>
</g>
</svg>
