<?xml version="1.0" encoding="UTF-8"?>
<svg  xmlns="http://www.w3.org/2000/svg" xmlns:xlink="http://www.w3.org/1999/xlink" xmlns:go="http://purl.org/svgmap/profile" property="f_code,acc,exs,rst,med,rtt,RSU,loc,soc" viewBox="13921.875 -3796.875 70.3125 70.3125" go:dataArea="13921.875 -3796.875 70.3125 70.3125" >
<metadata>
 <rdf:RDF xmlns:rdf="http://www.w3.org/1999/02/22-rdf-syntax-ns#" xmlns:crs="http://opengis.org/xmldtds/transformations.dtd" xmlns:svg="http://www.w3.org/svg" >
  <rdf:Description>
   <crs:CoordinateReferenceSystem rdf:resource="http://purl.org/crs/84" svg:transform="matrix(100.0,0.0,0.0,-100.0,0.0,0.0)" />
  </rdf:Description>
 </rdf:RDF>
</metadata>
<globalCoordinateSystem srsName="http://purl.org/crs/84" transform="matrix(100.0,0.0,0.0,-100.0,0.0,0.0)" />
<defs>
 <g id="p0" >
  <circle cx="0.0" cy="0.0" r="3" stroke="green" stroke-width="2.0" vector-effect="non-scaling-stroke" />
 </g>
</defs>
<g fill="none" fill-rule="evenodd" stroke="#00ff00" stroke-width="2" opacity="0.5" vector-effect="non-scaling-stroke" stroke-linejoin="bevel" >
<path content="AP030,1,28,1,0,15,1,8,JPN" xlink:title="AP030" d="M13927.4506,-3796.5134L13927.79,-3796.875"/>
<path content="AP030,1,28,1,0,14,1,8,JPN" xlink:title="AP030" d="M13932.2403,-3796.3531L13932.7896,-3796.2997"/>
<path content="AP030,1,28,1,0,14,1,8,JPN" xlink:title="AP030" d="M13922.7696,-3796.875L13922.9507,-3796.64L13923.1094,-3796.3867L13923.3994,-3796.4798L13923.8998,-3796.6801L13924.2706,-3796.7999L13924.4833,-3796.875"/>
<path content="AP030,1,28,1,0,14,1,8,JPN" xlink:title="AP030" d="M13935.7407,-3796.2799L13935.9497,-3796.4268L13936.0397,-3796.5L13936.1298,-3796.5668L13936.2701,-3796.7464L13936.3344,-3796.875"/>
<path content="AP030,1,28,1,0,15,1,8,JPN" xlink:title="AP030" d="M13933.4796,-3796.875L13933.58,-3796.2067"/>
<path content="AP030,1,28,1,0,14,1,8,JPN" xlink:title="AP030" d="M13932.7896,-3796.2997L13933.1802,-3796.2601L13933.58,-3796.2067"/>
<path content="AP030,1,28,1,0,16,1,8,JPN" xlink:title="AP030" d="M13928.801,-3796.0495L13930.0152,-3796.875"/>
<path content="AP030,1,28,1,0,14,1,8,JPN" xlink:title="AP030" d="M13927.4506,-3796.5134L13927.6993,-3796.3333L13927.8107,-3796.2799L13928.3096,-3796.1731L13928.54,-3796.133L13928.801,-3796.0495"/>
<path content="AP030,1,28,1,0,14,1,8,JPN" xlink:title="AP030" d="M13928.801,-3796.0495L13928.8101,-3796.0464"/>
<path content="AP030,1,28,1,0,14,1,8,JPN" xlink:title="AP030" d="M13923.2193,-3795.8668L13923.3795,-3795.9L13923.5397,-3796.0464L13923.8297,-3796.2067L13924.1501,-3796.2997L13924.2905,-3796.3333L13924.5193,-3796.3867L13924.8306,-3796.553L13924.9893,-3796.6801L13925.3262,-3796.875M13926.8581,-3796.875L13926.9699,-3796.8399L13927.33,-3796.6064L13927.4002,-3796.5134L13927.4506,-3796.5134"/>
<path content="AP030,1,28,1,0,14,1,8,JPN" xlink:title="AP030" d="M13933.58,-3796.2067L13934.1995,-3795.8134L13934.3094,-3795.7397"/>
<path content="AP030,1,28,1,0,14,1,8,JPN" xlink:title="AP030" d="M13934.3094,-3795.7397L13934.4498,-3795.6665L13934.6222,-3795.6665L13934.7702,-3795.6665L13935.0403,-3795.7066L13935.3607,-3795.993L13935.6796,-3796.2265L13935.7407,-3796.2799"/>
<path content="AP030,1,28,1,0,14,1,8,JPN" xlink:title="AP030" d="M13938.4293,-3795.6333L13938.8992,-3795.7066L13939.3295,-3795.7932L13939.4897,-3795.8866L13939.7705,-3796.0667L13939.7903,-3796.1533L13939.83,-3796.2067L13939.9506,-3796.2997L13940.1093,-3796.4268L13940.1505,-3796.5866L13940.2695,-3796.693L13940.4954,-3796.875"/>
<path content="AP030,1,28,1,0,15,1,8,JPN" xlink:title="AP030" d="M13938.4293,-3795.6333L13937.1124,-3796.4985L13936.6996,-3796.875"/>
<path content="AP030,1,28,1,0,14,1,8,JPN" xlink:title="AP030" d="M13928.8101,-3796.0464L13929.1306,-3795.9534L13929.3594,-3795.8332L13929.6097,-3795.6131L13929.7195,-3795.6665L13929.8996,-3795.76L13929.95,-3795.7733L13930.6107,-3796.08L13931.3797,-3796.4066L13931.4301,-3796.4268L13931.9504,-3796.3867L13932.2403,-3796.3531"/>
<path content="AP030,1,28,1,0,14,1,8,JPN" xlink:title="AP030" d="M13935.7407,-3796.2799L13935.9894,-3796.0999L13936.1298,-3796.0464L13936.1801,-3796.0464L13936.3998,-3796.0266L13936.7203,-3795.8134L13937.1506,-3795.5067L13937.2894,-3795.4533L13937.4695,-3795.4533L13938.06,-3795.5601L13938.2401,-3795.5933L13938.2706,-3795.5933L13938.3301,-3795.6131L13938.4293,-3795.6333"/>
<path content="AP030,1,28,1,0,14,1,8,JPN" xlink:title="AP030" d="M13933.7402,-3795.1797L13933.8593,-3795.2534L13933.9706,-3795.4132L13934.0195,-3795.4666L13934.1293,-3795.5933L13934.3094,-3795.7397"/>
<path content="AP030,1,28,1,0,14,1,8,JPN" xlink:title="AP030" d="M13921.875,-3795.5916L13921.8796,-3795.5933L13922.2,-3795.7066L13922.4304,-3795.7397L13922.8806,-3795.8134L13923.2193,-3795.8668"/>
<path content="AP030,1,28,1,0,16,1,8,JPN" xlink:title="AP030" d="M13928.0762,-3795.0573L13928.8101,-3796.0464"/>
<path content="AP030,1,28,1,0,15,1,8,JPN" xlink:title="AP030" d="M13930.336,-3795.0176L13931.0608,-3795.6909L13932.2403,-3796.3531"/>
<path content="AP030,1,28,1,0,15,1,8,JPN" xlink:title="AP030" d="M13928.0762,-3795.0573L13928.9322,-3795.0573L13930.336,-3795.0176"/>
<path content="AP030,1,28,1,0,15,1,8,JPN" xlink:title="AP030" d="M13930.336,-3795.0176L13930.9952,-3794.9543"/>
<path content="AP030,1,28,1,0,15,1,8,JPN" xlink:title="AP030" d="M13932.7896,-3796.2997L13932.7393,-3794.7865"/>
<path content="AP030,1,28,1,0,15,1,8,JPN" xlink:title="AP030" d="M13930.9952,-3794.9543L13932.7393,-3794.7865"/>
<path content="AP030,1,28,1,0,14,1,8,JPN" xlink:title="AP030" d="M13933.7402,-3795.1797L13933.4305,-3795.0531L13933.1802,-3794.9665L13933.1497,-3794.9467L13933.1299,-3794.7132L13932.7393,-3794.7865"/>
<path content="AP030,1,28,1,0,15,1,8,JPN" xlink:title="AP030" d="M13923.999,-3794.5824L13926.3077,-3795.0104L13926.5625,-3795.0573L13926.6174,-3795.0573L13928.0762,-3795.0573"/>
<path content="AP030,1,28,1,0,15,1,8,JPN" xlink:title="AP030" d="M13923.2193,-3795.8668L13923.999,-3794.5824"/>
<path content="AP030,1,28,1,0,14,1,8,JPN" xlink:title="AP030" d="M13932.7393,-3794.7865L13932.6492,-3794.5332L13932.6096,-3794.4267"/>
<path content="AP030,1,28,1,0,15,1,8,JPN" xlink:title="AP030" d="M13921.875,-3794.0293L13923.999,-3794.5824"/>
<path content="AP030,1,28,1,0,16,1,8,JPN" xlink:title="AP030" d="M13925.2274,-3793.9262L13927.4384,-3794.1982L13927.8748,-3794.7876L13928.0762,-3795.0573"/>
<path content="AP030,1,28,1,0,14,1,8,JPN" xlink:title="AP030" d="M13932.6096,-3794.4267L13932.9697,-3794.3733L13932.9498,-3794.2467L13933.02,-3793.8667"/>
<path content="AP030,1,28,1,0,15,1,8,JPN" xlink:title="AP030" d="M13953.9843,-3796.875L13954.0497,-3795.393L13953.6774,-3794.8574L13954.2694,-3793.9541L13954.1428,-3793.1179"/>
<path content="AP030,1,28,1,0,15,1,8,JPN" xlink:title="AP030" d="M13938.858,-3792.9642L13939.2319,-3793.758L13940.5304,-3793.5104L13940.3763,-3794.0392L13938.4293,-3795.6333"/>
<path content="AP030,1,28,1,0,15,1,8,JPN" xlink:title="AP030" d="M13933.7402,-3795.1797L13934.1721,-3795.063L13934.6069,-3794.9459L13935.466,-3795.1099L13936.6211,-3794.8223L13937.7884,-3794.0418L13938.2736,-3793.745L13938.858,-3792.9642"/>
<path content="AP030,1,28,1,0,16,1,8,JPN" xlink:title="AP030" d="M13922.1298,-3792.754L13923.4238,-3793.7969L13924.3347,-3793.8625L13925.2274,-3793.9262"/>
<path content="AP030,1,28,1,0,15,1,8,JPN" xlink:title="AP030" d="M13921.875,-3793.3034L13922.1298,-3792.754"/>
<path content="AP030,1,28,1,0,14,1,8,JPN" xlink:title="AP030" d="M13931.1996,-3792.26L13931.4499,-3792.4999L13931.81,-3792.8734L13932.0602,-3793.1465L13932.1304,-3793.2865L13932.2403,-3793.5398L13932.3486,-3793.8068L13932.3593,-3793.8332L13932.4493,-3794.0266L13932.4905,-3794.1532L13932.6096,-3794.4267"/>
<path content="AP030,1,28,1,0,14,1,8,JPN" xlink:title="AP030" d="M13931.0196,-3792.0666L13931.1996,-3792.26"/>
<path content="AP030,1,28,1,0,15,1,8,JPN" xlink:title="AP030" d="M13930.9952,-3794.9543L13930.5191,-3794.2066L13929.7638,-3793.018L13931.0196,-3792.0666"/>
<path content="AP030,1,28,1,0,15,1,8,JPN" xlink:title="AP030" d="M13922.5349,-3791.8804L13924.2249,-3793.2137L13925.2274,-3793.9262"/>
<path content="AP030,1,28,1,0,15,1,8,JPN" xlink:title="AP030" d="M13922.1298,-3792.754L13922.5349,-3791.8804"/>
<path content="AP030,1,28,1,0,15,1,8,JPN" xlink:title="AP030" d="M13981.0115,-3796.875L13982.5333,-3796.1361L13983.5739,-3795.38L13984.0347,-3794.2455L13984.729,-3792.5911L13986.1145,-3791.7877"/>
<path content="AP030,1,28,1,0,15,1,8,JPN" xlink:title="AP030" d="M13991.4044,-3796.875L13991.331,-3796.7682L13991.1911,-3795.7722L13991.2903,-3794.8887L13991.568,-3793.531L13992.1204,-3791.7877"/>
<path content="AP030,1,28,1,0,15,1,8,JPN" xlink:title="AP030" d="M13986.1145,-3791.7877L13987.9044,-3791.6458L13990.3305,-3791.8823L13992.1204,-3791.7877"/>
<path content="AP030,1,28,1,0,15,1,8,JPN" xlink:title="AP030" d="M13992.1204,-3791.7877L13992.1875,-3791.7657"/>
<path content="AP030,1,28,1,0,16,1,8,JPN" xlink:title="AP030" d="M13921.875,-3792.5486L13922.1298,-3792.754"/>
<path content="AP030,1,28,1,0,15,1,8,JPN" xlink:title="AP030" d="M13936.673,-3791.1774L13937.1719,-3791.6054L13938.1332,-3791.4288L13938.858,-3792.9642"/>
<path content="AP030,1,28,1,0,15,1,8,JPN" xlink:title="AP030" d="M13933.02,-3793.8667L13933.0826,-3793.8511L13934.9304,-3793.3945L13935.5118,-3793.0779L13935.6079,-3792.7608L13935.7056,-3792.3649L13936.4792,-3791.89L13936.673,-3791.1774"/>
<path content="AP030,1,28,1,0,15,1,8,JPN" xlink:title="AP030" d="M13921.875,-3791.3741L13922.1558,-3791.5813L13922.5349,-3791.8804"/>
<path content="AP030,1,28,1,0,14,1,8,JPN" xlink:title="AP030" d="M13933.6807,-3790.4598L13933.7402,-3790.5331L13933.7906,-3790.5865L13933.9294,-3791.053L13934.0195,-3791.1999L13934.1507,-3791.3265L13934.1095,-3791.4131L13934.0607,-3791.6134L13933.9706,-3791.7065L13933.9294,-3791.7599L13933.8104,-3791.9533L13933.6502,-3792.1734L13933.3801,-3792.4801L13933.0597,-3792.8398L13933.0399,-3793.0401L13933.1299,-3793.1667L13933.1299,-3793.5932L13933.0429,-3793.8084L13933.02,-3793.8667"/>
<path content="AP030,1,28,1,0,15,1,8,JPN" xlink:title="AP030" d="M13931.1996,-3792.26L13931.4255,-3792.0959L13933.6807,-3790.4598"/>
<path content="AP030,1,28,1,0,15,1,8,JPN" xlink:title="AP030" d="M13936.673,-3791.1774L13936.3815,-3790.6227L13936.5753,-3790.2271"/>
<path content="AP030,1,28,1,0,15,1,8,JPN" xlink:title="AP030" d="M13933.6807,-3790.4598L13934.3658,-3790.7692L13936.5753,-3790.2271"/>
<path content="AP030,1,28,1,0,14,1,8,JPN" xlink:title="AP030" d="M13926.8997,-3789.0732L13927.0203,-3789.2532L13927.2003,-3789.5397L13927.3102,-3789.74L13927.33,-3789.793L13927.5406,-3789.9399L13927.8305,-3790.0799L13928.0396,-3790.1932L13928.7704,-3790.5865L13929.6997,-3791.0931L13930.22,-3791.3998L13930.4703,-3791.5932L13930.7205,-3791.7732L13931.0196,-3792.0666"/>
<path content="AP030,1,28,1,0,14,1,8,JPN" xlink:title="AP030" d="M13925.9506,-3787.7731L13926.0803,-3787.7934L13926.2695,-3787.8998L13926.3306,-3788.0466L13926.3992,-3788.2599L13926.4236,-3788.3038L13926.6098,-3788.66L13926.8997,-3789.0732"/>
<path content="AP030,1,28,1,0,15,1,8,JPN" xlink:title="AP030" d="M13922.5349,-3791.8804L13923.85,-3790.335L13924.86,-3789.315L13925.9506,-3787.7731"/>
<path content="AP030,1,28,1,0,15,1,8,JPN" xlink:title="AP030" d="M13938.858,-3792.9642L13940.332,-3791.6107L13940.9882,-3790.0639L13939.6713,-3787.772"/>
<path content="AP030,1,28,1,0,15,1,8,JPN" xlink:title="AP030" d="M13936.5753,-3790.2271L13937.8326,-3789.1975L13938.6078,-3789.2769L13939.2853,-3788.9599L13939.6713,-3788.2473L13939.6713,-3787.772"/>
<path content="AP030,1,28,1,0,14,1,8,JPN" xlink:title="AP030" d="M13931.9,-3787.7399L13931.9305,-3787.7598L13932.1304,-3787.9532L13932.2205,-3788.0665L13932.2403,-3788.1931L13932.2693,-3788.2999L13932.3303,-3788.3533L13932.4005,-3788.3865L13932.4493,-3788.48L13932.4905,-3788.5864L13932.5607,-3788.66L13932.7194,-3788.7665L13932.7194,-3789.1464L13932.7393,-3789.5397L13932.7896,-3789.5599L13932.9895,-3789.6866L13933.1802,-3789.793L13933.2703,-3789.9399L13933.4,-3790.1531L13933.6105,-3790.3866L13933.6807,-3790.4598"/>
<path content="AP030,1,28,1,0,15,1,8,JPN" xlink:title="AP030" d="M13926.8997,-3789.0732L13927.2949,-3788.9679L13931.9,-3787.7399"/>
<path content="AP030,1,28,1,0,14,1,8,JPN" xlink:title="AP030" d="M13925.6668,-3787.3768L13925.7706,-3787.5065L13925.9506,-3787.7731"/>
<path content="AP030,1,28,1,0,14,1,8,JPN" xlink:title="AP030" d="M13922.7402,-3784.333L13922.9004,-3784.4398L13923.4497,-3784.4398L13923.79,-3784.9464L13923.9304,-3785.1665L13924.5605,-3785.9932L13924.7406,-3786.2064L13925.6104,-3787.3066L13925.6668,-3787.3768"/>
<path content="AP030,1,28,1,0,15,1,8,JPN" xlink:title="AP030" d="M13921.875,-3787.9649L13922.4503,-3787.376L13922.789,-3786.4262L13922.7432,-3784.4433L13922.7402,-3784.333"/>
<path content="AP030,1,28,1,0,14,1,8,JPN" xlink:title="AP030" d="M13922.7402,-3784.333L13922.7402,-3784.2068"/>
<path content="AP030,1,28,1,0,14,1,8,JPN" xlink:title="AP030" d="M13922.1298,-3784.2266L13922.2198,-3784.2266L13922.4594,-3784.2175L13922.7402,-3784.2068"/>
<path content="AP030,1,28,1,0,14,1,8,JPN" xlink:title="AP030" d="M13922.7402,-3784.2068L13922.7402,-3784.0797L13922.7402,-3783.9531"/>
<path content="AP030,1,28,1,0,14,1,8,JPN" xlink:title="AP030" d="M13921.875,-3784.1758L13922.0596,-3784.2068L13922.1298,-3784.2266"/>
<path content="AP030,1,28,1,0,14,1,8,JPN" xlink:title="AP030" d="M13921.875,-3783.9418L13921.9696,-3783.9733L13922.11,-3783.9931L13922.1298,-3784.2266"/>
<path content="AP030,1,28,1,0,15,1,8,JPN" xlink:title="AP030" d="M13925.6668,-3787.3768L13926.4384,-3786.2739L13927.12,-3785.051L13927.33,-3784.431L13927.29,-3783.873L13927,-3783.314L13926.61,-3782.84L13926.5211,-3782.6973"/>
<path content="AP030,1,28,1,0,15,1,8,JPN" xlink:title="AP030" d="M13922.7402,-3783.9531L13924.5361,-3783.2668L13926.5211,-3782.6973"/>
<path content="AP030,1,28,1,0,15,1,8,JPN" xlink:title="AP030" d="M13979.808,-3782.6015L13980.4947,-3782.5405L13981.7734,-3783.0296L13982.4493,-3783.6487L13982.0908,-3784.5974L13982.3227,-3786.232L13982.9895,-3787.463L13983.9966,-3788.9015L13984.581,-3789.9956L13984.5627,-3791.1518L13986.1145,-3791.7877"/>
<path content="AP030,1,28,1,0,14,1,8,JPN" xlink:title="AP030" d="M13931.9,-3787.7399L13931.7902,-3787.6133L13931.72,-3787.5065L13931.6803,-3787.3798L13931.6498,-3787.1799L13931.4896,-3786.9667L13931.3095,-3786.7332L13931.1295,-3786.5131L13931.0593,-3786.3197L13931.0593,-3786.1332L13931.1096,-3786.013L13930.9692,-3785.7201L13930.7907,-3785.3065L13930.7404,-3785.1997L13930.6793,-3785.0399L13930.6305,-3784.8598L13930.5603,-3784.7466L13930.3604,-3784.4601L13930.2399,-3784.28L13930.1804,-3784.1732L13930.13,-3783.8665L13930.0797,-3783.5934L13930.0797,-3783.3599L13929.9896,-3783.2535L13929.95,-3783.1467L13929.8996,-3782.9998L13929.8798,-3782.8598L13929.7897,-3782.7332L13929.7195,-3782.5535L13929.7195,-3782.4398L13929.6997,-3782.2266L13929.6494,-3781.9534L13929.6295,-3781.8333"/>
<path content="AP030,1,28,1,0,15,1,8,JPN" xlink:title="AP030" d="M13926.5211,-3782.6973L13926.799,-3782.6176L13927.6581,-3782.7061L13928.8223,-3782.0023L13929.6295,-3781.8333"/>
<path content="AP030,1,28,1,0,14,1,8,JPN" xlink:title="AP030" d="M13922.7402,-3783.9531L13922.7707,-3783.7601L13922.7402,-3783.2001L13922.7203,-3782.8598L13922.7005,-3782.2598L13922.6807,-3782.0667L13922.7402,-3781.72L13922.7402,-3781.6532L13922.7707,-3781.4533L13922.9004,-3780.5668L13922.8806,-3780.3867L13922.8806,-3780.2265L13922.8607,-3780.1201L13922.8104,-3779.9534L13922.7905,-3779.8332L13922.7707,-3779.7199L13922.7005,-3779.5601L13922.6807,-3779.4666L13922.7005,-3779.2866L13922.7005,-3779.2732L13922.7402,-3779.2L13922.9294,-3778.9867L13922.9904,-3778.8399L13922.9904,-3778.7865L13922.9706,-3778.7334L13922.7905,-3778.4267L13922.58,-3777.9934L13922.4899,-3777.7931L13922.4701,-3777.7199L13922.4701,-3777.56L13922.5204,-3777.5066L13922.5601,-3777.4532L13922.6807,-3777.3598L13922.818,-3777.2644"/>
<path content="AP030,1,28,1,0,15,1,8,JPN" xlink:title="AP030" d="M13921.875,-3777.4043L13922.1466,-3777.3693L13922.818,-3777.2644"/>
<path content="AP030,1,28,1,0,15,1,8,JPN" xlink:title="AP030" d="M13922.818,-3777.2644L13922.8317,-3777.2625L13923.9563,-3777.6672L13924.1684,-3778.1109L13924.2874,-3778.4275L13925.0504,-3779.0302L13925.5478,-3779.4655L13925.9427,-3780.3255L13926.14,-3781.285L13926.22,-3782.05L13926.39,-3782.487L13926.5211,-3782.6973"/>
<path content="AP030,1,28,1,0,14,1,8,JPN" xlink:title="AP030" d="M13922.818,-3777.2644L13923.3307,-3776.9135L13923.6099,-3776.7467"/>
<path content="AP030,1,28,1,0,14,1,8,JPN" xlink:title="AP030" d="M13923.7396,-3776.6598L13923.9502,-3776.7864L13924.0204,-3776.82L13924.2706,-3777.0199L13924.3301,-3777.0931L13924.4904,-3777.2533L13924.7406,-3777.5066L13925.4303,-3778.1334L13925.5402,-3778.2066L13925.8301,-3778.3867L13926.1093,-3778.5332L13926.1505,-3778.5534L13926.4297,-3778.5332L13926.6098,-3778.4397L13926.77,-3778.2799L13927.15,-3778.2799L13927.2705,-3778.4267L13927.4704,-3778.7334L13927.5803,-3778.9131L13927.5803,-3779.0199L13927.6306,-3779.0733L13927.7405,-3779.1466L13927.9007,-3779.2198L13927.9694,-3779.2732L13928.0594,-3779.4334L13928.2394,-3779.5799L13928.45,-3779.6333L13928.7201,-3779.7066L13928.9001,-3779.7733L13928.9001,-3779.7932L13928.9307,-3779.8664L13928.9505,-3780.0133L13929.0207,-3780.1731L13929.0405,-3780.2265L13929.0604,-3780.3867L13929.1306,-3780.64L13929.1306,-3780.6934L13929.1794,-3780.7865L13929.2404,-3780.9265L13929.2404,-3780.9666L13929.2694,-3781.0398L13929.3106,-3781.2199L13929.3304,-3781.2866L13929.4296,-3781.6334L13929.5197,-3781.72L13929.6295,-3781.8333"/>
<path content="AP030,1,28,1,0,14,1,8,JPN" xlink:title="AP030" d="M13923.6099,-3776.7467L13923.7396,-3776.6598"/>
<path content="AP030,1,28,1,0,15,1,8,JPN" xlink:title="AP030" d="M13923.1796,-3775.9399L13923.6099,-3776.7467"/>
<path content="AP030,1,28,1,0,16,1,8,JPN" xlink:title="AP030" d="M13921.875,-3776.1097L13922.2198,-3776.0998L13922.7905,-3776.0468L13923.0606,-3775.9731L13923.1796,-3775.9399"/>
<path content="AP030,1,28,1,0,14,1,8,JPN" xlink:title="AP030" d="M13923.7396,-3776.6598L13924.0402,-3776.44L13924.1501,-3776.3866L13924.2004,-3776.3535L13924.2203,-3776.3332L13924.2905,-3776.26L13924.5407,-3775.9533L13924.6994,-3775.7935L13924.8795,-3775.56L13925.1099,-3775.2533L13925.1373,-3775.2075"/>
<path content="AP030,1,28,1,0,16,1,8,JPN" xlink:title="AP030" d="M13923.1796,-3775.9399L13923.5596,-3775.8133L13924.6994,-3775.3998L13924.8795,-3775.3067L13924.9298,-3775.2865L13925.1373,-3775.2075"/>
<path content="AP030,1,28,1,0,14,1,8,JPN" xlink:title="AP030" d="M13989.5599,-3775.0534L13989.7202,-3775.1667L13990.1093,-3775.5264L13990.2695,-3775.6535L13990.3793,-3775.7401L13990.7196,-3775.9533L13991.1804,-3776.2798L13991.3803,-3776.4065L13991.4505,-3776.5533L13991.5405,-3776.7132L13991.8106,-3777.1667L13991.8793,-3777.2533L13991.9907,-3777.38L13992.0197,-3777.3998L13992.1875,-3777.5987"/>
<path content="AP030,1,28,1,0,14,1,8,JPN" xlink:title="AP030" d="M13925.1373,-3775.2075L13925.3098,-3774.9134L13925.4501,-3774.8398L13925.9293,-3774.7665L13926.0193,-3774.7334L13926.0803,-3774.6933L13926.3992,-3774.5335L13926.8799,-3774.3198L13926.9913,-3774.2809"/>
<path content="AP030,1,28,1,0,14,1,8,JPN" xlink:title="AP030" d="M13926.9913,-3774.2809L13927.0599,-3774.3732L13927.15,-3774.3866L13927.2202,-3774.3L13927.24,-3774.1932"/>
<path content="AP030,1,28,1,0,14,1,8,JPN" xlink:title="AP030" d="M13926.9913,-3774.2809L13927.24,-3774.1932"/>
<path content="AP030,1,28,1,0,16,1,8,JPN" xlink:title="AP030" d="M13925.1373,-3775.2075L13926.3794,-3774.7334L13926.68,-3774.6399L13926.7395,-3774.6201L13927.0203,-3774.5533L13927.7206,-3774.3732L13928.45,-3774.1531L13928.6499,-3774.0665L13929.6295,-3774.1531L13930.2399,-3774.1932L13930.5801,-3774.0997L13930.899,-3773.97"/>
<path content="AP030,1,28,1,0,15,1,8,JPN" xlink:title="AP030" d="M13921.875,-3775.0418L13922.2092,-3775.1415L13922.8851,-3775.4189L13923.1796,-3775.9399"/>
<path content="AP030,1,28,1,0,14,1,8,JPN" xlink:title="AP030" d="M13927.24,-3774.1932L13927.2903,-3774.1734L13927.7206,-3774.0467L13927.8595,-3774.0265L13927.9694,-3773.9532L13928.1799,-3773.9201L13928.3798,-3773.8865L13928.7903,-3773.8998L13929.0802,-3773.9735L13929.4006,-3773.9735L13929.6295,-3773.9201L13929.95,-3773.8335L13930.0598,-3773.7732L13930.1498,-3773.74L13930.3802,-3773.74L13930.6107,-3773.8132L13930.7205,-3773.8998L13930.899,-3773.97"/>
<path content="AP030,1,28,1,0,15,1,8,JPN" xlink:title="AP030" d="M13989.5599,-3775.0534L13989.1632,-3774.6071L13988.8931,-3774.054L13988.533,-3773.1316"/>
<path content="AP030,1,28,1,0,16,1,8,JPN" xlink:title="AP030" d="M13930.899,-3773.97L13931.3797,-3773.7732L13931.4941,-3773.7289L13931.7902,-3773.6134L13931.9901,-3773.4135L13932.2693,-3773.04L13932.3105,-3772.9668L13932.6797,-3772.7467L13932.8293,-3772.6398"/>
<path content="AP030,1,28,1,0,15,1,8,JPN" xlink:title="AP030" d="M13939.6713,-3787.772L13939.4775,-3787.376L13940.0589,-3786.9804L13941.1224,-3785.8715L13941.0263,-3785.3172L13941.4124,-3784.8423L13941.7038,-3784.5257L13941.9937,-3782.6248L13941.8961,-3781.6746L13941.6061,-3780.8037L13941.4124,-3780.1701L13941.6061,-3779.6158L13941.9937,-3779.0615L13941.8961,-3778.3489L13941.7999,-3777.3987L13942.0898,-3776.8444L13942.2836,-3776.2108L13942.6712,-3775.8148L13942.2836,-3775.6565L13941.51,-3775.6565L13941.51,-3775.1812L13940.8325,-3773.835L13939.6713,-3772.7264L13938.2401,-3771.5065"/>
<path content="AP030,1,28,1,0,14,1,8,JPN" xlink:title="AP030" d="M13930.899,-3773.97L13930.9692,-3773.9933L13931.0593,-3774.0131L13931.1295,-3774.0131L13931.3293,-3773.9735L13931.4499,-3773.9532L13931.6803,-3773.9735L13931.9504,-3773.9735L13932.2006,-3773.8132L13932.4905,-3773.4867L13932.8293,-3773.4867L13932.8796,-3773.4665L13932.9697,-3773.4135L13933.4,-3773.2201L13933.4305,-3773.1998L13933.6502,-3773.1667L13933.9905,-3773.1266L13934.2697,-3773.04L13934.6298,-3772.86L13935.0204,-3772.3866L13935.2005,-3772.2599L13935.5392,-3772.0798L13935.6995,-3771.9933L13935.8093,-3771.92L13935.9894,-3771.8468L13936.2,-3771.6667L13936.3602,-3771.6133L13937.0804,-3771.5935L13937.2406,-3771.6133L13937.3596,-3771.6534L13937.5595,-3771.7598L13937.6297,-3771.7934L13937.7197,-3771.8468L13937.8799,-3771.8132L13938.0798,-3771.6667L13938.2401,-3771.5065"/>
<path content="AP030,1,28,1,0,16,1,4,JPN" xlink:title="AP030" d="M13932.8293,-3772.6398L13934.0607,-3771.8334L13934.79,-3771.3467"/>
<path content="AP030,1,28,1,0,16,1,8,JPN" xlink:title="AP030" d="M13934.79,-3771.3467L13934.8999,-3771.2734L13935.1501,-3771.0197L13935.4004,-3770.7867L13935.5194,-3770.7134L13935.5606,-3770.6932"/>
<path content="AP030,1,28,1,0,16,1,4,JPN" xlink:title="AP030" d="M13935.5606,-3770.6932L13935.6506,-3770.6799L13935.7697,-3770.6799L13936.6302,-3770.66L13936.7203,-3770.6398"/>
<path content="AP030,1,28,1,0,15,1,8,JPN" xlink:title="AP030" d="M13988.533,-3773.1316L13988.3255,-3772.44L13988.176,-3771.7014L13987.915,-3770.6894L13987.6495,-3770.1733"/>
<path content="AP030,1,28,1,0,14,1,8,JPN" xlink:title="AP030" d="M13926.9913,-3774.2809L13926.9501,-3774.2268L13926.77,-3773.9532L13926.7197,-3773.8335L13926.5594,-3773.8667L13926.4496,-3773.8998L13926.1795,-3773.8998L13925.8606,-3773.8667L13925.6302,-3773.7732L13925.5402,-3773.74L13923.88,-3773.6866L13923.8098,-3773.6866L13923.2895,-3773.6332L13923.1796,-3773.5798L13923.1293,-3773.3601L13923.1491,-3773.0618L13923.1506,-3773.04L13923.1506,-3772.4598L13923.1293,-3772.2599L13922.7203,-3772.0798L13922.6105,-3772.0264L13922.3297,-3771.92L13921.875,-3771.6789"/>
<path content="AP030,1,28,1,0,16,1,8,JPN" xlink:title="AP030" d="M13936.7203,-3770.6398L13936.8607,-3770.62L13937.0605,-3770.48L13937.1307,-3770.3335L13937.1994,-3770.1935L13937.2406,-3769.7399L13937.2406,-3769.6667L13937.3093,-3769.4534L13937.5595,-3769.2333"/>
<path content="AP030,1,28,1,0,16,1,8,JPN" xlink:title="AP030" d="M13937.5595,-3769.2333L13937.97,-3769.1067L13938.9496,-3768.9266"/>
<path content="AP030,1,28,1,0,16,1,4,JPN" xlink:title="AP030" d="M13938.9496,-3768.9266L13939.3997,-3768.8198L13941.6107,-3768.2999L13942.0807,-3768.1534"/>
<path content="AP030,1,28,1,0,15,1,8,JPN" xlink:title="AP030" d="M13977.9922,-3772.1943L13978.4378,-3771.41L13978.6697,-3770.3835L13979.2862,-3769.6693L13979.0909,-3768.3983L13979.3594,-3767.6865"/>
<path content="AP030,1,28,1,0,14,1,8,JPN" xlink:title="AP030" d="M13938.2401,-3771.5065L13938.3102,-3771.3799L13938.4293,-3771.1998L13938.4506,-3771.0934L13938.4003,-3771.0197L13938.3408,-3770.9747L13938.3301,-3770.9667L13938.2202,-3770.8401L13938.15,-3770.5132L13938.15,-3770.4597L13938.1302,-3770.2267L13938.2706,-3770.0268L13938.2706,-3769.6865L13938.3102,-3769.6335L13938.5803,-3769.5599L13938.6307,-3769.6865L13938.7207,-3769.8467L13938.8306,-3769.9932L13939.0198,-3770.1199L13939.0793,-3770.1534L13939.3799,-3770.2599L13939.6103,-3770.3335L13939.8102,-3770.3865L13940.0192,-3770.3732L13940.2695,-3770.2999L13940.6494,-3770.0798L13940.77,-3770.0268L13940.9698,-3769.9734L13941.3803,-3769.8132L13941.5802,-3769.7735L13941.6794,-3769.7201L13941.7404,-3769.6667L13941.9495,-3769.5267L13942.0395,-3769.4866L13942.3294,-3769.2532L13942.5598,-3769.22L13942.8802,-3769.22L13943.1503,-3769.0201L13943.4006,-3768.9865L13943.7897,-3768.9667L13943.8797,-3768.9667L13944.4,-3768.9465L13944.6503,-3768.84L13944.6304,-3768.66L13944.6106,-3768.4601L13944.6304,-3768.3334L13944.7693,-3768.1332L13945.0806,-3767.9199L13945.3094,-3767.8333L13945.7703,-3767.5934"/>
<path content="AP030,1,28,1,0,14,1,8,JPN" xlink:title="AP030" d="M13989.0594,-3767.1066L13989.5401,-3767.6533L13989.6805,-3767.7933L13989.83,-3767.9398L13990.3595,-3768.4265L13990.5807,-3768.7466L13990.7196,-3768.9667L13991.04,-3769.2867L13991.2201,-3769.54L13991.4001,-3769.9932L13991.4703,-3770.1733L13991.4902,-3770.2465L13991.5405,-3770.3197L13991.5604,-3770.48L13991.7007,-3770.6799L13991.7404,-3770.8199L13991.7206,-3770.9133L13991.9006,-3771.0533L13992.0593,-3771.1998L13992.1799,-3771.36L13992.1875,-3771.369"/>
<path content="AP030,1,28,1,0,14,1,8,JPN" xlink:title="AP030" d="M13987.6495,-3770.1733L13987.97,-3769.9734L13988.6505,-3769.6335L13988.6993,-3769.6133L13988.7405,-3769.5801L13989.0396,-3769.3066L13989.0594,-3768.9999L13988.9694,-3768.5333L13988.9496,-3768.2598L13988.8992,-3767.9398L13988.8992,-3767.9199L13988.8794,-3767.6132L13988.8992,-3767.4332L13989.0594,-3767.1066"/>
<path content="AP030,1,28,1,0,15,1,8,JPN" xlink:title="AP030" d="M13988.533,-3773.1316L13987.9471,-3772.3202L13987.3611,-3771.656L13986.4594,-3770.586L13986.1893,-3769.9959L13986.1435,-3769.3317L13986.0535,-3768.0408L13986.5799,-3766.4799"/>
<path content="AP030,1,28,1,0,14,1,8,JPN" xlink:title="AP030" d="M13979.3594,-3767.6865L13979.3594,-3767.8467L13979.5807,-3767.8467L13979.7195,-3767.7601L13979.8599,-3767.6666L13979.9301,-3767.6132L13980.1102,-3767.5934L13980.4306,-3767.4534L13980.5603,-3767.5598L13980.6107,-3767.5266L13980.6305,-3767.4332L13980.6503,-3767.2531L13980.6793,-3767.1799L13980.6793,-3767.0399L13980.7907,-3766.8732L13980.8304,-3766.84L13980.9692,-3766.8198L13980.9906,-3766.8198L13981.0196,-3766.7866L13981.1295,-3766.7667L13981.2195,-3766.7999L13981.4896,-3766.9998L13981.6101,-3767.0532L13981.72,-3767.0532L13982.0602,-3766.8598L13982.1793,-3766.84L13982.2906,-3766.84L13982.4295,-3766.8934L13982.5607,-3766.8934L13982.5394,-3766.8198L13982.5607,-3766.7866L13982.6096,-3766.7667L13982.6996,-3766.7465L13982.8796,-3766.7465L13983.0597,-3766.8732L13983.1497,-3766.8934L13983.2199,-3766.8934L13983.4305,-3766.9132L13983.5403,-3766.9464L13983.7006,-3766.8934L13984.0393,-3766.8732L13984.1995,-3766.8198L13984.52,-3766.6931L13984.7,-3766.6397L13985.2402,-3766.6065L13986.2396,-3766.5333L13986.5799,-3766.4799"/>
<path content="AP030,1,28,1,0,15,1,8,JPN" xlink:title="AP030" d="M13921.875,-3767.6286L13923.88,-3766.5638L13926.2787,-3765.9924L13928.7079,-3766.2178L13929.5593,-3766.5337L13930.9448,-3768.6024L13931.0699,-3769.4008L13931.8314,-3769.5255L13932.8445,-3769.0468L13934.0897,-3768.8366L13934.9518,-3768.7347L13935.9665,-3768.2178L13937.0178,-3768.1187L13937.8265,-3768.2816L13937.5595,-3769.2333"/>
<path content="AP030,1,28,1,0,14,1,8,JPN" xlink:title="AP030" d="M13988.7894,-3765.5598L13989.3799,-3765.6132L13990.0604,-3765.6864L13990.3793,-3765.7398L13990.5197,-3765.7734L13990.8798,-3765.7932L13991.3605,-3765.7932L13991.7206,-3765.8665L13992.0395,-3765.8867L13992.1875,-3765.865"/>
<path content="AP030,1,28,1,0,14,1,8,JPN" xlink:title="AP030" d="M13989.0594,-3767.1066L13989.1296,-3766.7866L13989.0594,-3766.5134L13988.8306,-3766.0667L13988.7405,-3765.8867L13988.7894,-3765.5598"/>
<path content="AP030,1,28,1,0,14,1,8,JPN" xlink:title="AP030" d="M13988.0203,-3765.4667L13988.7894,-3765.5598"/>
<path content="AP030,1,28,1,0,14,1,8,JPN" xlink:title="AP030" d="M13989.0594,-3767.1066L13988.6505,-3766.6798L13988.4003,-3766.46L13988.3804,-3766.4398L13988.15,-3766.0797L13988.0203,-3765.8333L13988.0203,-3765.4667"/>
<path content="AP030,1,28,1,0,14,1,8,JPN" xlink:title="AP030" d="M13987.3306,-3765.4533L13987.7899,-3765.4667L13988.0203,-3765.4667"/>
<path content="AP030,1,28,1,0,15,1,8,JPN" xlink:title="AP030" d="M13987.6495,-3770.1733L13987.5732,-3769.7456L13987.5732,-3769.4859L13987.5732,-3769.1437L13987.4512,-3768.7469L13987.2452,-3767.9264L13987.3001,-3767.5026L13987.4374,-3766.8732L13987.4237,-3766.0252L13987.3306,-3765.4533"/>
<path content="AP030,1,28,1,0,14,1,8,JPN" xlink:title="AP030" d="M13986.5799,-3766.4799L13986.6806,-3766.2266L13986.8301,-3766.2067L13987.0605,-3765.9931L13987.2406,-3765.7734L13987.2894,-3765.72L13987.3306,-3765.4533"/>
<path content="AP030,1,28,1,0,14,1,8,JPN" xlink:title="AP030" d="M13945.7703,-3767.5934L13945.9305,-3767.7734L13945.9503,-3767.7933L13945.99,-3767.8467L13946.1304,-3768.0668L13946.2906,-3768.2266L13946.5393,-3768.3865L13946.7697,-3768.3735L13947.02,-3768.3865L13947.2,-3768.4265L13947.3099,-3768.5135L13947.3801,-3768.5135L13947.4899,-3768.4998L13947.6501,-3768.4998L13947.8806,-3768.66L13948.1094,-3768.8L13948.1995,-3768.9465L13948.2193,-3769.0201L13948.2895,-3769.1067L13948.2895,-3769.3268L13948.2895,-3769.4332L13948.2895,-3769.6667L13948.4299,-3769.7067L13948.4131,-3769.8166L13948.3994,-3769.8997L13948.6099,-3769.9532L13948.7,-3770.0268L13948.5199,-3770.1733L13948.3093,-3770.2465L13947.9904,-3770.2065L13947.7707,-3770.0665L13947.7203,-3770.0466L13947.5403,-3770.0466L13947.4304,-3770.1199L13947.2198,-3770.1199L13946.9498,-3770.1332L13946.8094,-3770.2267L13946.6797,-3770.3335L13946.6507,-3770.4266L13946.5393,-3770.5666L13946.5607,-3770.62L13946.6797,-3770.66L13946.6797,-3770.8L13946.9299,-3770.9133L13947.11,-3771.0197L13947.2397,-3771.18L13947.3801,-3771.3467L13947.6105,-3771.7934L13947.8104,-3772.0665L13947.8806,-3772.1199L13948.0392,-3772.1931L13948.2895,-3772.3198L13948.4695,-3772.4068L13948.6801,-3772.44L13948.8297,-3772.44L13949.3103,-3772.44L13949.5407,-3772.44L13949.6506,-3772.4266L13949.7192,-3772.4068L13949.8596,-3772.3198L13949.9893,-3772.3L13950.3296,-3772.2599L13950.4501,-3772.2065L13950.65,-3772.1199L13950.9003,-3772.0798L13951.1993,-3772.1199L13951.4694,-3772.0665L13951.5793,-3771.9532L13951.7395,-3771.8998L13952.0203,-3771.8132L13952.1103,-3771.7934L13952.24,-3771.8334L13952.6306,-3771.6667L13952.6306,-3771.6133L13952.5406,-3771.5267L13952.4307,-3771.36L13952.4002,-3771.2532L13952.4307,-3771.1468L13952.5406,-3771.0197L13952.7206,-3770.9267L13952.8305,-3770.8599L13953.0197,-3770.7466L13953.2394,-3770.7466L13953.6804,-3770.6932L13953.9307,-3770.66L13954.0207,-3770.6398L13954.0604,-3770.6398L13954.3304,-3770.6398L13954.8996,-3770.7134L13955.2902,-3770.8199L13955.5405,-3770.9465L13955.6107,-3770.9667L13955.7404,-3770.9999L13956.0394,-3771.0533L13956.1096,-3771.0533L13956.1279,-3771.0308L13956.1798,-3770.9667L13956.3095,-3770.9667L13956.4301,-3770.9866L13956.6498,-3770.9267L13956.8604,-3770.8199L13957.0206,-3770.6398L13957.0404,-3770.5334L13957.0404,-3770.0798L13956.9504,-3769.9532L13956.9702,-3769.6335L13957.0206,-3769.5801L13957.2006,-3769.5801L13957.2906,-3769.6133L13957.3807,-3769.5934L13957.6294,-3769.4668L13957.7698,-3769.4668L13957.93,-3769.3798L13958.0399,-3769.3066L13958.0597,-3769.2532L13957.7896,-3768.9865L13957.6294,-3768.7866L13957.6096,-3768.66L13957.7194,-3768.5333L13957.8094,-3768.4601L13957.8598,-3768.3334L13957.8094,-3768.2465L13957.7896,-3768.2068L13957.5394,-3768.0134L13957.5195,-3767.8665L13957.3807,-3767.7399L13957.3303,-3767.7067L13957.4005,-3767.54L13957.6294,-3767.4534L13957.6996,-3767.4L13957.7393,-3767.2333L13957.8293,-3767.1467L13958.2199,-3767.0399L13958.5403,-3766.9998L13958.7906,-3766.9666L13958.9294,-3766.9132L13959.0393,-3766.7999L13959.0607,-3766.6065L13959.1507,-3766.4997L13959.1995,-3766.46L13959.3597,-3766.4066L13959.4696,-3766.4066L13959.6802,-3766.4265L13959.8862,-3766.5466L13959.9899,-3766.6065L13960.2402,-3766.6599L13960.4904,-3766.7133L13960.6995,-3766.6931L13960.8795,-3766.6599L13961.0397,-3766.7332L13961.1099,-3766.7465L13961.2,-3766.7465L13961.3998,-3766.5867L13961.5402,-3766.6199L13961.6302,-3766.7133L13961.5799,-3766.9266L13961.5799,-3767.0532L13961.6806,-3767.2001L13962.0193,-3767.2333L13962.3306,-3767.3267L13962.5793,-3767.3267L13962.8998,-3767.2867L13963.2004,-3767.2733L13963.4293,-3767.2531L13963.4903,-3767.2867L13963.4705,-3767.5064L13963.6993,-3767.5064L13963.7405,-3767.5598L13963.8306,-3767.4667L13964.0793,-3767.4332L13964.27,-3767.4332L13964.3097,-3767.4L13964.65,-3767.4133L13964.7903,-3767.4L13964.9002,-3767.4L13965.1306,-3767.58L13965.4007,-3767.7601L13965.5594,-3767.8665L13965.6998,-3767.9733L13965.8295,-3768.0798L13966.1102,-3768.2465L13966.3605,-3768.3334L13966.5802,-3768.3865L13966.6794,-3768.4601L13966.8304,-3768.4799L13966.9907,-3768.5333L13967.1097,-3768.66L13967.3996,-3768.6398L13967.4698,-3768.5867L13967.4896,-3768.5665L13967.54,-3768.5665L13967.7002,-3768.5532L13967.72,-3768.4399L13967.7704,-3768.4067L13967.8802,-3768.3865L13967.9306,-3768.3334L13967.9504,-3768.2598L13968.1305,-3768.2598L13968.4692,-3768.2598L13968.4906,-3768.1732L13968.4906,-3768.1332L13968.6295,-3768.1L13968.7195,-3767.9932L13968.8095,-3767.9733L13968.8293,-3768.0134L13968.8599,-3768.0466L13968.8797,-3768.1L13968.9301,-3768.1332L13969.0201,-3768.1732L13969.0598,-3768.2598L13969.1803,-3768.28L13969.22,-3768.28L13969.2902,-3768.28L13969.3802,-3768.3735L13969.4305,-3768.3865L13969.5801,-3768.3201L13969.6304,-3768.3201L13969.7906,-3768.3201L13969.8593,-3768.3334L13970.0607,-3768.4799L13970.1797,-3768.5665L13970.1492,-3768.6932L13970.3094,-3768.7466L13970.43,-3768.84L13970.4697,-3768.8934L13970.52,-3769.1067L13970.7397,-3769.2867L13970.9305,-3769.4134L13970.9702,-3769.4534L13971.0205,-3769.4668L13971.1105,-3769.4668L13971.1502,-3769.3798L13971.2006,-3769.3466L13971.2906,-3769.3798L13971.3104,-3769.4L13971.4493,-3769.3798L13971.5393,-3769.36L13971.6293,-3769.3066L13971.5805,-3769.2532L13971.5607,-3769.1799L13971.5805,-3769.0933L13971.7407,-3769.0533L13971.7896,-3768.8934L13971.8597,-3768.8L13971.8994,-3768.7466L13972.0596,-3768.7134L13972.11,-3768.6398L13972.1802,-3768.4265L13972.1497,-3768.3735L13972.11,-3768.3201L13972.2198,-3767.9733L13972.3099,-3767.9398L13972.3297,-3767.8333L13972.5204,-3767.7933L13972.58,-3767.7601L13972.6105,-3767.5934L13972.6501,-3767.54L13972.7005,-3767.5266L13972.8104,-3767.4667L13972.8607,-3767.4L13972.8806,-3767.3267L13972.9904,-3767.2531L13973.1293,-3767.1467L13973.1995,-3767.0734L13973.3597,-3767.0399L13973.4497,-3766.9998L13973.5397,-3766.9464L13973.7198,-3766.9132L13973.8098,-3766.8934L13973.9304,-3766.8732L13974.0601,-3766.8934L13974.1302,-3766.9666L13974.2905,-3766.9666L13974.3805,-3766.84L13974.5193,-3766.7465L13974.6307,-3766.7133L13974.6994,-3766.6798L13974.7192,-3766.6599L13974.7406,-3766.6199L13974.7696,-3766.6065L13974.8795,-3766.6065L13974.9496,-3766.5867L13975.0397,-3766.5333L13975.1099,-3766.4265L13975.1297,-3766.3734L13975.3998,-3766.32L13975.4303,-3766.28L13975.6104,-3766.0797L13975.8301,-3765.7932L13975.9903,-3765.7066L13976.1307,-3765.6334L13976.3992,-3765.4133L13976.6296,-3765.2866L13976.9897,-3765.1466L13977.3804,-3765.0398L13977.4704,-3765.02L13977.5604,-3765.1264L13977.5604,-3765.2332L13977.5604,-3765.3267L13977.5406,-3765.5067L13977.5406,-3765.5598L13977.5406,-3765.6532L13977.5406,-3765.6666L13977.5192,-3765.7398L13977.4902,-3765.8333L13977.4902,-3765.8867L13977.4902,-3765.9397L13977.5406,-3766.0133L13977.5803,-3766.0465L13977.6093,-3766.0797L13977.6306,-3766.1198L13977.6505,-3766.1934L13977.7206,-3766.2998L13977.9297,-3766.4398L13977.9694,-3766.6199L13978.1799,-3766.7667L13978.2196,-3766.8598L13978.2196,-3766.9266L13978.0807,-3767.1665L13978.0807,-3767.2867L13978.1296,-3767.3599L13978.2898,-3767.4332L13978.6804,-3767.6132L13978.9902,-3767.5934L13979.2007,-3767.6132L13979.3594,-3767.6865"/>
<path content="AP030,1,28,1,0,16,1,8,JPN" xlink:title="AP030" d="M13942.0807,-3768.1534L13942.54,-3768.0134L13942.72,-3767.9398L13942.9504,-3767.9199L13943.7897,-3767.9932L13943.9697,-3767.9733L13944.4305,-3767.72L13944.7906,-3767.5064L13945.4697,-3767.1265L13945.7397,-3766.9666L13946.1807,-3766.7133L13946.4294,-3766.3334L13946.5607,-3766.1732L13946.7697,-3765.6666L13946.9299,-3765.4865L13947.4899,-3764.9666L13947.5067,-3764.9544"/>
<path content="AP030,1,28,1,0,15,1,8,JPN" xlink:title="AP030" d="M13987.4549,-3764.9163L13987.3306,-3765.4533"/>
<path content="AP030,1,28,1,0,14,1,8,JPN" xlink:title="AP030" d="M13988.7894,-3765.5598L13988.8306,-3765.2733L13988.8992,-3764.9467L13988.9297,-3764.8399L13988.9694,-3764.5664L13989.0594,-3763.9935L13989.0396,-3763.5265"/>
<path content="AP030,1,28,1,0,14,1,8,JPN" xlink:title="AP030" d="M13988.0203,-3765.4667L13988.2202,-3765.0932L13988.2401,-3765.0398L13988.3804,-3764.7667L13988.4705,-3764.6065L13988.8794,-3763.9198L13989.0396,-3763.5265"/>
<path content="AP030,1,28,1,0,15,1,8,JPN" xlink:title="AP030" d="M13983.9798,-3762.9128L13985.1974,-3762.9868L13986.3693,-3763.5769L13986.9904,-3764.3444L13987.4549,-3764.9163"/>
<path content="AP030,1,28,1,0,15,1,8,JPN" xlink:title="AP030" d="M13976.86,-3763.4663L13976.9913,-3764.0614L13977.1118,-3764.5992L13977.4429,-3764.043L13977.9404,-3763.208L13978.392,-3763.0974L13979.068,-3763.3556L13979.744,-3763.5033L13980.8258,-3763.5769L13981.636,-3763.1714L13982.8079,-3762.9128L13983.9798,-3762.9128"/>
<path content="AP030,1,28,1,0,15,1,8,JPN" xlink:title="AP030" d="M13976.86,-3763.4663L13976.593,-3762.8155L13976.7014,-3762.2623"/>
<path content="AP030,1,28,1,0,15,1,8,JPN" xlink:title="AP030" d="M13983.1238,-3761.6474L13983.9798,-3762.9128"/>
<path content="AP030,1,28,1,0,16,1,8,JPN" xlink:title="AP030" d="M13947.5067,-3764.9544L13947.9507,-3764.64L13948.7198,-3763.8664L13949.0204,-3763.4335L13949.1302,-3763.2L13949.5804,-3762.5134L13949.8993,-3762.1735L13950.1297,-3762.0132L13950.47,-3761.7199L13950.7004,-3761.4532L13950.9705,-3761.1065"/>
<path content="AP030,1,28,1,0,15,1,8,JPN" xlink:title="AP030" d="M13980.3757,-3760.8994L13980.8426,-3761.3503L13982.7408,-3761.3689L13983.1238,-3761.6474"/>
<path content="AP030,1,28,1,0,15,1,8,JPN" xlink:title="AP030" d="M13976.7014,-3762.2623L13978.0655,-3762.4878L13979.0619,-3762.1552L13980.0262,-3761.2045L13980.3757,-3760.8994"/>
<path content="AP030,1,28,1,0,15,1,8,JPN" xlink:title="AP030" d="M13983.1238,-3761.6474L13985.5255,-3760.8582"/>
<path content="AP030,1,28,1,0,15,1,8,JPN" xlink:title="AP030" d="M13985.9879,-3760.5995L13986.3235,-3761.0683L13987.4054,-3762.2856L13987.8296,-3762.8845L13987.9013,-3762.9868L13987.4549,-3764.9163"/>
<path content="AP030,1,28,1,0,15,1,8,JPN" xlink:title="AP030" d="M13985.5255,-3760.8582L13985.9879,-3760.5995"/>
<path content="AP030,1,28,1,0,16,1,4,JPN" xlink:title="AP030" d="M13950.9705,-3761.1065L13951.0605,-3761.0001L13951.3992,-3760.7132L13951.8295,-3760.4401L13951.86,-3760.4267"/>
<path content="AP030,1,28,1,0,15,1,8,JPN" xlink:title="AP030" d="M13984.7321,-3760.0632L13985.5255,-3760.8582"/>
<path content="AP030,1,28,1,0,16,1,8,JPN" xlink:title="AP030" d="M13951.86,-3760.4267L13952.2903,-3760.26L13952.8793,-3760.0998L13952.9907,-3760.0666L13953.5797,-3759.94L13953.9902,-3759.8999L13954.2892,-3759.8866"/>
<path content="AP030,1,28,1,0,14,1,8,JPN" xlink:title="AP030" d="M13989.0396,-3763.5265L13989.1998,-3763.1268L13989.3799,-3762.7132L13989.3997,-3762.5134L13989.3097,-3761.38L13989.2395,-3760.64L13989.2395,-3760.3867L13989.2395,-3760.3535L13989.1998,-3760.0666L13989.18,-3759.7065"/>
<path content="AP030,1,28,1,0,15,1,8,JPN" xlink:title="AP030" d="M13985.9879,-3760.5995L13987.291,-3759.8698L13988.7207,-3759.7462L13989.18,-3759.7065"/>
<path content="AP030,1,28,1,0,16,1,4,JPN" xlink:title="AP030" d="M13954.2892,-3759.8866L13954.6494,-3759.8465L13955.3802,-3759.8133L13956.3995,-3759.7401L13956.8298,-3759.5932L13957.1304,-3759.4868"/>
<path content="AP030,1,28,1,0,16,1,8,JPN" xlink:title="AP030" d="M13957.1304,-3759.4868L13957.6996,-3759.2865"/>
<path content="AP030,1,28,1,0,14,1,8,JPN" xlink:title="AP030" d="M13989.18,-3759.7065L13989.2899,-3759.6134L13989.3997,-3759.5066L13989.3997,-3759.4666L13989.4302,-3759.2865L13989.4302,-3758.9268"/>
<path content="AP030,1,28,1,0,15,1,8,JPN" xlink:title="AP030" d="M13989.18,-3759.7065L13990.1443,-3758.9058"/>
<path content="AP030,1,28,1,0,15,1,8,JPN" xlink:title="AP030" d="M13989.4302,-3758.9268L13990.1443,-3758.9058"/>
<path content="AP030,1,28,1,0,15,1,8,JPN" xlink:title="AP030" d="M13992.1875,-3762.7999L13992.0227,-3762.2841L13991.4474,-3761.4521L13991.4108,-3760.1837L13990.8997,-3758.823"/>
<path content="AP030,1,28,1,0,15,1,8,JPN" xlink:title="AP030" d="M13990.1443,-3758.9058L13990.8997,-3758.823"/>
<path content="AP030,1,28,1,0,15,1,8,JPN" xlink:title="AP030" d="M13964.4696,-3758.3782L13966.9434,-3759.0027L13967.395,-3759.5558L13967.395,-3759.8881L13967.3035,-3760.257L13967.485,-3760.3306L13967.9352,-3760.3306L13968.2053,-3760.1463L13968.3853,-3759.7775L13968.7012,-3759.6298L13969.5129,-3759.7034L13969.9631,-3759.8511L13969.9188,-3760.257L13970.0531,-3760.4412L13970.5048,-3760.4782L13970.7291,-3760.5152L13971.405,-3760.9947L13972.0367,-3761.1053L13973.0286,-3761.1053L13973.1628,-3760.8101L13973.2986,-3760.5152L13973.4787,-3760.3306L13973.6145,-3760.4046L13973.6588,-3760.6995L13973.7488,-3760.9577L13973.5245,-3761.4002L13973.2086,-3761.8061L13972.7615,-3762.772L13972.7127,-3762.8761L13972.8027,-3763.245L13973.1628,-3763.3186L13973.3597,-3763.3347L13973.6145,-3763.3556L13973.9304,-3763.5403L13974.2004,-3763.8351L13974.4247,-3763.8721L13974.7864,-3763.7981L13975.1923,-3763.3556L13975.7324,-3763.1714L13976.2726,-3763.245L13976.86,-3763.4663"/>
<path content="AP030,1,28,1,0,14,1,8,JPN" xlink:title="AP030" d="M13945.7703,-3767.5934L13946.0403,-3767.4534L13947.0596,-3766.6397L13947.1298,-3766.5665L13947.2702,-3766.4799L13947.5204,-3766.2598L13947.6807,-3766.1331L13947.7707,-3766.0667L13947.8806,-3765.8466L13947.9904,-3765.6334L13948.1506,-3765.5266L13948.3307,-3765.4533L13948.6099,-3765.4533L13948.7198,-3765.4865L13948.9502,-3765.5399L13949.2203,-3765.5598L13949.4705,-3765.6666L13949.6307,-3765.76L13949.7894,-3765.8333L13950.0595,-3765.8466L13950.3601,-3765.8665L13950.47,-3765.9534L13950.5798,-3766.0133L13950.7401,-3766.0667L13950.8102,-3766.0999L13951.0193,-3766.2266L13951.1307,-3766.3334L13951.4297,-3766.32L13951.4893,-3766.32L13951.5793,-3766.3864L13951.6998,-3766.4398L13951.9501,-3766.4398L13951.9897,-3766.46L13952.2003,-3766.5134L13952.3804,-3766.5134L13952.5803,-3766.4265L13952.9694,-3766.3864L13953.3295,-3766.4265L13953.7003,-3766.4066L13953.8101,-3766.32L13953.8803,-3766.28L13953.9505,-3766.2464L13954.0604,-3766.2464L13954.1306,-3766.1934L13954.1504,-3766.1533L13954.3594,-3765.9397L13954.4693,-3765.9L13954.9301,-3765.9L13955.5206,-3765.8665L13955.7907,-3765.8134L13956.0806,-3765.7398L13956.2195,-3765.7066L13956.3995,-3765.72L13956.4697,-3765.7734L13956.5201,-3765.8134L13956.6299,-3765.9199L13956.8604,-3765.9534L13957.0404,-3765.9397L13957.2006,-3765.9397L13957.3593,-3765.9534L13957.6096,-3765.9733L13957.7896,-3766.0667L13957.9697,-3766.1533L13958.1299,-3766.1331L13958.3298,-3765.9733L13958.4305,-3765.8665L13958.4503,-3765.72L13958.49,-3765.5266L13958.6105,-3765.4667L13958.6502,-3765.4133L13958.7906,-3765.1466L13958.9005,-3765.0932L13959.0805,-3765.0932L13959.3094,-3765.0932L13959.3307,-3765.0532L13959.4299,-3764.9666L13959.4498,-3764.9265L13959.6298,-3764.7465L13959.6802,-3764.6935L13959.7702,-3764.5332L13959.8801,-3764.32L13959.8999,-3764.2067L13960.0601,-3763.9534L13960.0601,-3763.7066L13960.1105,-3763.5399L13960.1807,-3763.4335L13960.3607,-3763.1798L13960.4904,-3763.1065L13960.5804,-3763.0932L13960.6796,-3763.0932L13961.2,-3762.9997L13961.7706,-3762.8735L13961.9507,-3762.7132L13961.9904,-3762.6801L13962.3306,-3762.3734L13962.5397,-3762.2997L13962.7197,-3762.2265L13962.97,-3761.8999L13963.06,-3761.7397L13963.176,-3761.5215L13963.2401,-3761.3998L13963.2401,-3761.2198L13963.15,-3761.1065L13963.0402,-3761.0001L13962.8799,-3760.82L13962.8098,-3760.7468L13962.7899,-3760.68L13962.7701,-3760.3867L13962.7396,-3760.26L13962.6495,-3760.1933L13962.6999,-3759.9197L13962.7899,-3759.7935L13962.9501,-3759.6535L13963.0402,-3759.6333L13963.2202,-3759.5798L13963.3301,-3759.5264L13963.3575,-3759.4948L13963.4293,-3759.4131L13963.4293,-3759.0935L13963.4506,-3759L13963.4705,-3758.9268L13963.5193,-3758.7997L13963.7207,-3758.6933L13964.2197,-3758.4999L13964.4696,-3758.3782"/>
<path content="AP030,1,28,1,0,16,1,4,JPN" xlink:title="AP030" d="M13957.6996,-3759.2865L13960.5194,-3758.26L13960.8597,-3758.12"/>
<path content="AP030,1,28,1,0,16,1,4,JPN" xlink:title="AP030" d="M13968.8599,-3758.0799L13969.3802,-3758.0997L13970.61,-3758.1532L13971.1304,-3758.0997L13971.6293,-3757.9933"/>
<path content="AP030,1,28,1,0,16,1,8,JPN" xlink:title="AP030" d="M13971.6293,-3757.9933L13971.8994,-3757.9399"/>
<path content="AP030,1,28,1,0,15,1,8,JPN" xlink:title="AP030" d="M13990.8997,-3758.823L13991.8976,-3757.8934"/>
<path content="AP030,1,28,1,0,15,1,8,JPN" xlink:title="AP030" d="M13990.1443,-3758.9058L13990.8661,-3758.8215L13991.8976,-3757.8934"/>
<path content="AP030,1,28,1,0,16,1,8,JPN" xlink:title="AP030" d="M13966.1407,-3757.6717L13966.2704,-3757.6866L13966.6794,-3757.8999L13967.0807,-3758.0265L13967.45,-3758.0666L13967.7704,-3758.0467L13968.8599,-3758.0799"/>
<path content="AP030,1,28,1,0,14,1,8,JPN" xlink:title="AP030" d="M13964.4696,-3758.3782L13964.6301,-3758.3L13964.6805,-3758.2798L13965.1306,-3758.0666L13965.5197,-3757.8865L13965.7394,-3757.8335L13965.9302,-3757.8667L13966.0797,-3757.7198L13966.1407,-3757.6717"/>
<path content="AP030,1,28,1,0,14,1,8,JPN" xlink:title="AP030" d="M13966.1407,-3757.6717L13966.2399,-3757.5932"/>
<path content="AP030,1,28,1,0,16,1,8,JPN" xlink:title="AP030" d="M13960.8597,-3758.12L13961.1496,-3757.9933L13961.5799,-3757.7732L13961.8301,-3757.6668L13962.0804,-3757.56L13962.2696,-3757.4867L13962.6297,-3757.4532L13963.0203,-3757.4867L13963.5803,-3757.6866L13964.0594,-3757.8133L13964.3295,-3757.8667L13964.5798,-3757.8465L13964.83,-3757.8465L13965.3793,-3757.6332L13965.8096,-3757.6332L13966.1407,-3757.6717"/>
<path content="AP030,1,28,1,0,16,1,4,JPN" xlink:title="AP030" d="M13971.8994,-3757.9399L13972.02,-3757.8999L13972.0398,-3757.8999L13973.1094,-3757.4665L13973.1995,-3757.4333"/>
<path content="AP030,1,28,1,0,15,1,8,JPN" xlink:title="AP030" d="M13976.7014,-3762.2623L13976.9226,-3761.1382L13977.7634,-3759.8434L13977.6154,-3758.3672L13978.7201,-3757.1999"/>
<path content="AP030,1,28,1,0,15,1,8,JPN" xlink:title="AP030" d="M13980.3757,-3760.8994L13981.2042,-3760.3931L13981.1798,-3759.1923L13981.25,-3757.478L13981.0806,-3756.8398"/>
<path content="AP030,1,28,1,0,14,1,8,JPN" xlink:title="AP030" d="M13978.7201,-3757.1999L13978.83,-3757.2533L13979.0405,-3757.3067L13979.4006,-3757.3265L13979.7394,-3757.2865L13979.8996,-3757.2201L13980.2399,-3757.1667L13980.3299,-3757.1465L13980.6305,-3757.0934L13981.0196,-3756.8932L13981.0806,-3756.8398"/>
<path content="AP030,1,28,1,0,15,1,8,JPN" xlink:title="AP030" d="M13982.8598,-3756.3L13983.2596,-3756.7154L13983.2596,-3756.9366L13983.7097,-3757.3055L13983.9355,-3757.9697L13983.9355,-3758.7444L13984.1156,-3759.1499L13984.6115,-3759.2976L13985.1074,-3759.2976L13985.5576,-3759.9987L13985.9879,-3760.5995"/>
<path content="AP030,1,28,1,0,14,1,8,JPN" xlink:title="AP030" d="M13981.0806,-3756.8398L13981.3995,-3756.6601L13981.5598,-3756.5865L13981.6803,-3756.5334L13982.0801,-3756.4266L13982.6996,-3756.3732L13982.8598,-3756.3"/>
<path content="AP030,1,28,1,0,14,1,8,JPN" xlink:title="AP030" d="M13982.8598,-3756.3L13983.4702,-3755.9532L13983.49,-3755.9399L13983.5403,-3755.92"/>
<path content="AP030,1,28,1,0,14,1,8,JPN" xlink:title="AP030" d="M13983.5403,-3755.92L13983.7402,-3755.8865L13983.7906,-3755.8865L13984.0607,-3755.8468"/>
<path content="AP030,1,28,1,0,16,1,8,JPN" xlink:title="AP030" d="M13973.1995,-3757.4333L13973.8297,-3757.2334L13974.6094,-3756.9668L13974.9298,-3756.8932L13975.4303,-3756.8398L13975.7401,-3756.8398L13976.0605,-3756.6799L13976.7395,-3756.2065L13977.2705,-3755.7934"/>
<path content="AP030,1,28,1,0,14,1,8,JPN" xlink:title="AP030" d="M13977.4902,-3755.6438L13977.4902,-3755.8666L13977.4902,-3755.9734L13977.5604,-3756.0665L13977.7206,-3756.1733L13978.0396,-3756.48L13978.27,-3756.7867L13978.5797,-3757.1068L13978.7201,-3757.1999"/>
<path content="AP030,1,28,1,0,16,1,4,JPN" xlink:title="AP030" d="M13977.2705,-3755.7934L13977.4902,-3755.6438"/>
<path content="AP030,1,28,1,0,14,1,8,JPN" xlink:title="AP030" d="M13975.9293,-3755.6332L13976.1307,-3755.6667L13976.2405,-3755.6866"/>
<path content="AP030,1,28,1,0,14,1,8,JPN" xlink:title="AP030" d="M13984.0607,-3755.8468L13984.3597,-3755.8334L13984.9503,-3755.7598L13985.1807,-3755.74L13985.2707,-3755.74L13985.3607,-3755.7198L13986.0794,-3755.6534L13986.3098,-3755.6332L13986.3998,-3755.5599"/>
<path content="AP030,1,28,1,0,14,1,8,JPN" xlink:title="AP030" d="M13966.2399,-3757.5932L13966.2704,-3757.5798L13966.4703,-3757.4532L13966.5604,-3757.3265L13966.7007,-3757.1667L13966.9495,-3756.9866L13967.1097,-3756.9267L13967.2394,-3756.86L13967.4896,-3756.8733L13967.63,-3756.8733L13968.0801,-3757.0534L13968.3105,-3757.1999L13968.3807,-3757.2533L13968.4296,-3757.3265L13968.4906,-3757.3997L13968.6798,-3757.4665L13968.9499,-3757.56L13969.4,-3757.6134L13969.4901,-3757.6134L13969.7906,-3757.6134L13969.9905,-3757.5798L13970.0806,-3757.5798L13970.1294,-3757.5932L13970.2698,-3757.6332L13970.3995,-3757.6332L13970.7397,-3757.4867L13971.0205,-3757.3601L13971.1304,-3757.2201L13971.2402,-3757.0534L13971.2692,-3757.0198L13971.3104,-3756.9267L13971.4493,-3756.8932L13971.5607,-3756.8932L13971.6293,-3756.8733L13971.7407,-3756.8001L13971.8994,-3756.7467L13972.3099,-3756.7135L13972.7707,-3756.7467L13972.8104,-3756.7467L13972.9294,-3756.7467L13972.9706,-3756.6933L13972.9904,-3756.5132L13973.1293,-3756.3332L13973.2407,-3756.2466L13973.5199,-3756.1733L13973.7701,-3756.0799L13973.8098,-3756.0467L13973.8602,-3755.9399L13974.0204,-3755.7934L13974.1302,-3755.7598L13974.3103,-3755.8334L13974.4293,-3755.8468L13974.5605,-3755.7934L13974.6506,-3755.7198L13974.8795,-3755.7068L13974.9695,-3755.6667L13975.1297,-3755.5931L13975.3601,-3755.5401L13975.4303,-3755.5267L13975.4501,-3755.5267L13975.5798,-3755.5065L13975.9293,-3755.6332"/>
<path content="AP030,1,28,1,0,14,1,8,JPN" xlink:title="AP030" d="M13976.2405,-3755.6866L13976.77,-3755.7198L13977.0401,-3755.74L13977.1301,-3755.6534L13977.2202,-3755.5267L13977.2903,-3755.4867L13977.4002,-3755.4867L13977.4902,-3755.5599L13977.4902,-3755.6438"/>
<path content="AP030,1,28,1,0,15,1,8,JPN" xlink:title="AP030" d="M13991.8976,-3757.8934L13992.1875,-3757.8274"/>
<path content="AP030,1,28,1,0,14,1,8,JPN" xlink:title="AP030" d="M13989.4302,-3758.9268L13989.36,-3758.5335L13989.3295,-3758.2798L13989.3265,-3758.2581L13989.2899,-3758.0666L13989.5401,-3757.6866L13989.9506,-3757.0732L13990.3305,-3756.4999L13990.5807,-3756.1333L13990.7196,-3755.7934L13990.9302,-3755.3799"/>
<path content="AP030,1,28,1,0,14,1,8,JPN" xlink:title="AP030" d="M13975.65,-3755.2868L13975.7004,-3755.3066L13976.0193,-3755.4333L13976.1795,-3755.5267L13976.2405,-3755.6866"/>
<path content="AP030,1,28,1,0,14,1,8,JPN" xlink:title="AP030" d="M13975.65,-3755.2868L13975.9293,-3755.6332"/>
<path content="AP030,1,28,1,0,15,1,8,JPN" xlink:title="AP030" d="M13986.3998,-3755.5599L13989.1006,-3755.278L13990.9302,-3755.3799"/>
<path content="AP030,1,28,1,0,15,1,8,JPN" xlink:title="AP030" d="M13991.8976,-3757.8934L13992.1875,-3757.1446"/>
<path content="AP030,1,28,1,0,15,1,8,JPN" xlink:title="AP030" d="M13990.9302,-3755.3799L13991.2445,-3755.3604L13992.1875,-3755.3022"/>
<path content="AP030,1,28,1,0,15,1,8,JPN" xlink:title="AP030" d="M13937.2467,-3754.8832L13937.4161,-3756.216L13937.6053,-3756.6246L13938.3347,-3757.0179L13938.9252,-3757.1838L13940.0909,-3758.3496L13941.1789,-3759.1084L13941.7725,-3759.1839L13942.3477,-3760.1387L13943.1015,-3760.6899L13944.5633,-3761.2957L13945.7413,-3761.8523L13946.4386,-3762.3508L13946.8369,-3762.9349L13947.2107,-3764.0095L13947.5067,-3764.9544"/>
<path content="AP030,1,28,1,0,16,1,4,JPN" xlink:title="AP030" d="M13977.4902,-3755.6438L13977.6474,-3755.537L13978.9703,-3754.6398L13979.5197,-3754.3198L13980.04,-3754.0665L13980.2704,-3754.0264"/>
<path content="AP030,1,28,1,0,14,1,8,JPN" xlink:title="AP030" d="M13986.3998,-3755.5599L13986.38,-3755.36L13986.4899,-3755.2734L13986.8301,-3755.1666L13987.0193,-3755.0934L13987.1506,-3754.8733L13987.6495,-3754.2267L13987.7899,-3754.0466L13987.8296,-3753.8998L13987.9303,-3753.6667L13988.1805,-3753.4134L13988.2812,-3753.3043"/>
<path content="AP030,1,28,1,0,15,1,8,JPN" xlink:title="AP030" d="M13983.5403,-3755.92L13983.7097,-3754.7604L13983.8898,-3754.0222L13984.1797,-3752.9266"/>
<path content="AP030,1,28,1,0,16,1,8,JPN" xlink:title="AP030" d="M13980.2704,-3754.0264L13980.8304,-3753.8864L13981.1295,-3753.6865L13981.3293,-3753.5599L13982.0206,-3753.1265L13982.5394,-3752.9865L13982.8796,-3752.9266L13984.1797,-3752.9266"/>
<path content="AP030,1,28,1,0,15,1,8,JPN" xlink:title="AP030" d="M13984.0607,-3755.8468L13984.6558,-3754.7577L13985.2905,-3753.9536L13985.3088,-3752.9266"/>
<path content="AP030,1,28,1,0,16,1,8,JPN" xlink:title="AP030" d="M13984.1797,-3752.9266L13985.3088,-3752.9266"/>
<path content="AP030,1,28,1,0,16,1,8,JPN" xlink:title="AP030" d="M13985.3088,-3752.9266L13986.2,-3752.9266L13987.1994,-3753.0731L13988.1302,-3753.2734L13988.2812,-3753.3043"/>
<path content="AP030,1,28,1,0,14,1,8,JPN" xlink:title="AP030" d="M13975.65,-3755.2868L13975.4303,-3755.1998L13975.1099,-3755.0934L13974.6796,-3754.9667L13974.1806,-3754.7665L13973.88,-3754.7134L13973.7,-3754.66L13973.1796,-3754.6398L13973.1293,-3754.6398L13972.7905,-3754.5132L13972.6807,-3754.4598L13972.6303,-3754.4067L13972.6105,-3754.3865L13972.58,-3754.3331L13972.5204,-3754.1733L13972.4503,-3754.1L13972.3999,-3754.0264L13972.3602,-3753.8864L13972.2702,-3753.4866L13972.2,-3753.22L13972.3602,-3753.0197L13972.4701,-3752.8934L13972.2702,-3752.7134"/>
<path content="AP030,1,28,1,0,14,1,8,JPN" xlink:title="AP030" d="M13990.9302,-3755.3799L13991.3803,-3754.3331L13991.4505,-3753.9734L13991.5207,-3753.7933L13991.6107,-3753.5797L13991.8304,-3752.7664L13991.8594,-3752.6398"/>
<path content="AP030,1,28,1,0,16,1,8,JPN" xlink:title="AP030" d="M13988.2812,-3753.3043L13988.6505,-3753.3798L13989.1296,-3753.4534L13989.4699,-3753.4534L13989.4699,-3753.4664L13989.9002,-3753.4332L13990.3305,-3753.3066L13990.6494,-3753.1799L13990.9302,-3753.0731L13991.4001,-3752.8L13991.8594,-3752.6398"/>
<path content="AP030,1,28,1,0,16,1,8,JPN" xlink:title="AP030" d="M13991.8594,-3752.6398L13991.9693,-3752.5867L13992.1494,-3752.5665L13992.1875,-3752.5595"/>
<path content="AP030,1,28,1,0,14,1,8,JPN" xlink:title="AP030" d="M13992.0593,-3751.7399L13992.1875,-3751.7439"/>
<path content="AP030,1,28,1,0,14,1,8,JPN" xlink:title="AP030" d="M13991.8594,-3752.6398L13991.9495,-3752.2064L13992.0593,-3751.7399"/>
<path content="AP030,1,28,1,0,14,1,8,JPN" xlink:title="AP030" d="M13990.3305,-3751.54L13990.6494,-3751.58L13990.9302,-3751.6335L13991.2704,-3751.6865L13991.8106,-3751.7399L13992.0593,-3751.7399"/>
<path content="AP030,1,28,1,0,14,1,8,JPN" xlink:title="AP030" d="M13988.2812,-3753.3043L13988.6093,-3752.9465L13988.8794,-3752.6798L13989.4501,-3752.2266L13989.7903,-3751.9733L13990.1093,-3751.7399L13990.3305,-3751.54"/>
<path content="AP030,1,28,1,0,14,1,8,JPN" xlink:title="AP030" d="M13970.2194,-3750.84L13970.4697,-3750.9666L13970.6497,-3751.0933L13970.7199,-3751.1665L13970.7901,-3751.2733L13970.8801,-3751.58L13970.9702,-3751.6533L13971.1807,-3751.7933L13971.4493,-3752.0664L13971.6995,-3752.28L13971.9894,-3752.4597L13972.2702,-3752.7134"/>
<path content="AP030,1,28,1,0,15,1,8,JPN" xlink:title="AP030" d="M13985.3088,-3752.9266L13986.6898,-3751.1314L13986.9247,-3750.5035"/>
<path content="AP030,1,28,1,0,15,1,8,JPN" xlink:title="AP030" d="M13983.4396,-3750.1858L13984.8389,-3750.2136L13986.9247,-3750.5035"/>
<path content="AP030,1,28,1,0,15,1,8,JPN" xlink:title="AP030" d="M13984.1797,-3752.9266L13983.9798,-3752.1042L13983.7097,-3751.0712L13983.4396,-3750.1858"/>
<path content="AP030,1,28,1,0,14,1,8,JPN" xlink:title="AP030" d="M13990.3305,-3751.54L13990.5396,-3751.2733L13990.6998,-3751.0201L13990.7898,-3750.8934L13990.9302,-3750.6931L13991.0797,-3750.5135L13991.1301,-3750.4601L13991.1804,-3750.4398L13991.3605,-3750.3201L13991.5405,-3750.1934L13991.6107,-3750.1331L13991.7892,-3750.0134L13991.8457,-3749.9962L13992.1875,-3749.8905"/>
<path content="AP030,1,28,1,0,15,1,8,JPN" xlink:title="AP030" d="M13986.9247,-3750.5035L13988.9099,-3750.0275L13990.332,-3749.3656L13991.5497,-3749.3023L13991.8015,-3749.2889L13992.1875,-3749.4826"/>
<path content="AP030,1,28,1,0,15,1,8,JPN" xlink:title="AP030" d="M13972.2702,-3752.7134L13972.5906,-3752.4929L13973.497,-3751.8696L13974.1333,-3750.4124L13974.2065,-3749.3488L13975.2197,-3748.6942"/>
<path content="AP030,1,28,1,0,15,1,8,JPN" xlink:title="AP030" d="M13977.6016,-3748.0579L13977.5894,-3748.7751L13977.8061,-3749.0795L13978.4119,-3749.7402L13978.7094,-3749.9069L13979.277,-3749.9126L13979.985,-3749.9851L13980.8182,-3750.8038L13981.0837,-3751.8867L13981.6467,-3752.0275L13982.1793,-3750.5474L13982.8644,-3750.1041L13982.8812,-3750.1068L13983.4396,-3750.1858"/>
<path content="AP030,1,28,1,0,15,1,8,JPN" xlink:title="AP030" d="M13975.2197,-3748.6942L13975.853,-3747.459L13977.6016,-3748.0579"/>
<path content="AP030,1,28,1,0,14,1,8,JPN" xlink:title="AP030" d="M13987.8601,-3747.1466L13988.4293,-3747.2534L13988.5605,-3747.2534L13988.9893,-3747.3267L13989.3097,-3747.3801L13989.5798,-3747.4335L13989.8605,-3747.4865L13990.3107,-3747.6131L13990.4297,-3747.6532L13990.6998,-3747.72L13991.0599,-3747.8134L13991.3651,-3747.8474L13991.5405,-3747.8664L13992.1799,-3747.8664L13992.1875,-3747.8655"/>
<path content="AP030,1,28,1,0,15,1,8,JPN" xlink:title="AP030" d="M13986.9247,-3750.5035L13987.2192,-3749.7864L13987.8601,-3747.1466"/>
<path content="AP030,1,28,1,0,14,1,8,JPN" xlink:title="AP030" d="M13963.6795,-3747.0402L13964.0198,-3747.2534L13964.6103,-3747.58L13964.83,-3747.6532L13964.9506,-3747.6868L13965.2405,-3747.8466L13965.3595,-3747.9L13965.4907,-3747.9198L13965.6799,-3747.9534L13965.8295,-3748.1335L13965.9897,-3748.2265L13966.1102,-3748.2468L13966.3605,-3748.28L13966.4307,-3748.3002L13966.4001,-3748.3734L13966.3605,-3748.4066L13966.0599,-3748.4066L13965.9698,-3748.4066L13965.9698,-3748.4402L13966.2003,-3748.5332L13966.1804,-3748.7865L13966.1102,-3748.9864L13966.0797,-3749.0734L13966.2201,-3749.3999L13966.0599,-3749.4865L13966.04,-3749.5399L13966.1301,-3749.5934L13966.1499,-3749.6132L13966.2704,-3749.5934L13966.3101,-3749.6666L13966.4001,-3749.7066L13966.4505,-3749.72L13966.4307,-3749.8333L13966.6504,-3749.8333L13966.5802,-3749.9001L13966.5604,-3749.9401L13966.4505,-3749.9401L13966.33,-3750.0668L13966.2003,-3750.0668L13966.1499,-3750.1202L13966.2201,-3750.28L13966.1102,-3750.3532L13966.0797,-3750.5333L13966.04,-3750.5531L13965.9698,-3750.4799L13965.8798,-3750.4997L13965.8798,-3750.6199L13965.8798,-3750.7465L13965.6494,-3750.9464L13965.5807,-3751.0399L13965.6296,-3751.1665L13965.86,-3751.1997L13965.9302,-3751.2199L13965.95,-3751.2867L13966.04,-3751.3466L13965.9698,-3751.6335L13965.9698,-3751.6533L13965.9698,-3751.8665L13966.0797,-3752.0134L13966.1804,-3752.1L13966.2704,-3752.3335L13966.33,-3752.4799L13966.4703,-3752.5532L13966.4703,-3752.66L13966.5604,-3752.7866L13966.5802,-3752.9133L13966.5604,-3753.0533L13966.6504,-3753.1998L13966.6794,-3753.2867L13966.6107,-3753.4866L13966.6306,-3753.6331L13966.6794,-3753.6865L13966.8106,-3753.8467L13966.8106,-3754.1733L13966.8594,-3754.5532L13966.8594,-3754.6066L13966.7694,-3754.8401L13966.7206,-3754.9999L13966.7206,-3755.0533L13966.7404,-3755.5599L13966.6306,-3755.7732L13966.6107,-3756.0135L13966.5802,-3756.2466L13966.4505,-3756.48L13966.4001,-3756.5533L13966.2003,-3756.5865L13966.1499,-3756.6399L13966.1499,-3756.8199L13966.2003,-3757.1068L13966.2399,-3757.5932"/>
<path content="AP030,1,28,1,0,15,1,8,JPN" xlink:title="AP030" d="M13983.4396,-3750.1858L13983.5297,-3749.3744L13984.0714,-3748.1197L13984.1599,-3747.0509L13984.1797,-3746.8201"/>
<path content="AP030,1,28,1,0,14,1,8,JPN" xlink:title="AP030" d="M13984.1797,-3746.8201L13984.5795,-3746.8201L13984.6985,-3746.92L13985.0601,-3746.9666L13985.1807,-3746.9666L13986.7706,-3747.02L13987.7197,-3747.1066L13987.8601,-3747.1466"/>
<path content="AP030,1,28,1,0,14,1,8,JPN" xlink:title="AP030" d="M13964.65,-3746.7335L13965.0406,-3746.9265L13965.4495,-3747.2534L13965.7394,-3747.4865L13965.7898,-3747.5266L13966.1804,-3747.5067L13966.8594,-3747.5067L13967.0197,-3747.6131L13967.0807,-3747.6532L13967.2394,-3747.6868L13967.4896,-3747.8466L13967.6498,-3747.9733L13967.8802,-3748.2067L13967.9504,-3748.32L13967.9703,-3748.6198L13968.0206,-3748.6801L13968.2404,-3748.7331L13968.3105,-3748.7331L13968.5196,-3748.7465L13968.7195,-3748.8201L13968.7698,-3749.0002L13968.721,-3749.2535L13968.6798,-3749.4667L13968.6798,-3749.9199L13968.6295,-3750.3334L13968.6493,-3750.3864L13968.7393,-3750.5135L13968.9499,-3750.5867L13969.5206,-3750.6199L13969.7205,-3750.6199L13969.8807,-3750.6199L13970.2194,-3750.84"/>
<path content="AP030,1,28,1,0,14,1,8,JPN" xlink:title="AP030" d="M13963.6795,-3747.0402L13963.9893,-3746.9265L13964.2197,-3746.8399L13964.27,-3746.8201L13964.4272,-3746.7735L13964.4501,-3746.7667L13964.65,-3746.7335"/>
<path content="AP030,1,28,1,0,15,1,8,JPN" xlink:title="AP030" d="M13970.2194,-3750.84L13970.3232,-3749.7814L13970.3659,-3749.3515L13969.8776,-3748.6366L13969.0002,-3747.8729L13969.1788,-3747.2095L13969.5358,-3745.8828"/>
<path content="AP030,1,28,1,0,14,1,8,JPN" xlink:title="AP030" d="M13983.783,-3745.7588L13983.7906,-3745.7733L13983.8104,-3745.8134L13983.9005,-3746.0667L13983.9905,-3746.32L13984.1293,-3746.64L13984.1507,-3746.7464L13984.1797,-3746.8201"/>
<path content="AP030,1,28,1,0,15,1,8,JPN" xlink:title="AP030" d="M13977.6016,-3748.0579L13977.8656,-3746.859L13978.4271,-3746.5984L13978.9276,-3746.6038L13979.9377,-3746.0815L13981.102,-3746.022L13981.7657,-3745.9782L13982.9498,-3745.9396L13983.783,-3745.7588"/>
<path content="AP030,1,28,1,0,15,1,8,JPN" xlink:title="AP030" d="M13969.5358,-3745.8828L13970.7642,-3745.5856L13971.7667,-3745.5967L13972.9782,-3746.3196L13974.1745,-3748.0179L13975.2197,-3748.6942"/>
<path content="AP030,1,28,1,0,14,1,8,JPN" xlink:title="AP030" d="M13983.5602,-3745.3266L13983.6304,-3745.4533L13983.6807,-3745.5399L13983.783,-3745.7588"/>
<path content="AP030,1,28,1,0,14,1,8,JPN" xlink:title="AP030" d="M13952.7405,-3745.2866L13952.9495,-3745.38L13953.1799,-3745.4865L13953.3798,-3745.6333L13953.4698,-3745.7733L13953.4698,-3746.08L13953.3798,-3746.1201L13953.2776,-3746.1285L13953.2196,-3746.1334L13953.1097,-3746.3001L13953.1097,-3746.6202L13953.1296,-3746.7335L13953.1799,-3746.8601L13953.1494,-3747.0531L13953.1799,-3747.2534L13953.2394,-3747.4133L13953.2394,-3747.5399L13953.2898,-3747.6131L13953.3096,-3747.6665L13953.45,-3747.8333L13953.5797,-3747.9534L13953.7201,-3748.0133L13954.0207,-3748.0267L13954.2206,-3748.0801L13954.4495,-3748.28L13954.8096,-3748.3002L13955.0797,-3748.28L13955.2216,-3748.201L13955.6793,-3748.0465L13955.9006,-3747.9935L13956.0394,-3748.0133L13956.1798,-3748.2265L13956.2698,-3748.3334L13956.4499,-3748.3868L13956.7001,-3748.4798L13956.8298,-3748.5001L13956.9,-3748.5001L13956.9901,-3748.4402L13957.1304,-3748.3734L13957.2006,-3748.1533L13957.2693,-3747.9733L13957.3105,-3747.8867L13957.3807,-3747.8466L13957.6797,-3747.8867L13958.2703,-3747.8867L13958.4305,-3747.76L13958.7204,-3747.76L13958.7906,-3747.7402L13959.0607,-3747.3999L13959.1507,-3747.2534L13959.3719,-3747.2267L13959.4299,-3747.2198L13959.5398,-3747.2L13959.6497,-3747.0932L13959.7702,-3746.9265L13959.7702,-3746.7999L13959.671,-3746.7289L13959.6497,-3746.7133L13959.4894,-3746.6064L13959.4696,-3746.5134L13959.5596,-3746.3734L13959.6298,-3746.3333L13959.7397,-3746.3001L13959.8648,-3746.2788L13960.4904,-3746.1735L13960.5026,-3746.0205L13960.5194,-3745.7932L13960.5606,-3745.7066L13960.6796,-3745.6867L13960.7407,-3745.7401L13960.8093,-3745.94L13960.9589,-3746.006L13961.38,-3746.1933L13961.4304,-3746.2799L13961.47,-3746.32L13962.1307,-3746.3001L13962.2406,-3746.1533L13962.3795,-3746.0999L13962.6099,-3746.1533L13962.8296,-3746.3333L13962.8998,-3746.46L13963.15,-3746.64L13963.3301,-3746.7865L13963.6795,-3747.0402"/>
<path content="AP030,1,28,1,0,15,1,8,JPN" xlink:title="AP030" d="M13969.5358,-3745.8828L13969.7189,-3744.9532L13969.223,-3744.6815L13968.1808,-3743.8271"/>
<path content="AP030,1,28,1,0,15,1,8,JPN" xlink:title="AP030" d="M13987.8601,-3747.1466L13988.0386,-3746.1277L13988.3743,-3744.2162L13988.1836,-3743.6249"/>
<path content="AP030,1,28,1,0,15,1,8,JPN" xlink:title="AP030" d="M13983.5602,-3745.3266L13985.4034,-3744.5637L13986.2289,-3744.4794L13987.3627,-3743.8046L13988.1836,-3743.6249"/>
<path content="AP030,1,28,1,0,15,1,8,JPN" xlink:title="AP030" d="M13964.65,-3746.7335L13965.2008,-3745.6123L13965.3809,-3744.8601L13965.9454,-3744.4229L13966.2857,-3744.0277L13966.7358,-3743.7668L13966.7999,-3743.2796L13968.1808,-3743.8271"/>
<path content="AP030,1,28,1,0,14,1,8,JPN" xlink:title="AP030" d="M13992.1875,-3745.15L13992.1494,-3744.6602L13992.1494,-3744.6201L13992.1097,-3744.08L13992.0593,-3743.8332L13991.9495,-3743.7065L13991.9296,-3743.5066L13991.8106,-3743.2335L13991.6794,-3743.0534L13991.6107,-3742.7467L13991.6794,-3742.4599L13991.9006,-3742.0132L13991.9693,-3741.7732L13992.0197,-3741.5932L13992.0593,-3741.2334L13992.1097,-3741.04L13992.1097,-3740.9866L13992.1875,-3740.9348"/>
<path content="AP030,1,28,1,0,15,1,8,JPN" xlink:title="AP030" d="M13988.1836,-3743.6249L13988.9084,-3743.4669L13989.6301,-3742.2859L13990.7639,-3740.8516L13991.3818,-3740.1768L13991.9998,-3740.0082L13992.1875,-3740.0082"/>
<path content="AP030,1,28,1,0,15,1,8,JPN" xlink:title="AP030" d="M13921.875,-3740.4793L13923.1277,-3740.2596L13924.7894,-3739.5401"/>
<path content="AP030,1,28,1,0,14,1,8,JPN" xlink:title="AP030" d="M13983.5602,-3745.3266L13983.3298,-3745.0401L13983.1497,-3744.8734L13983.0399,-3744.7865L13982.9697,-3744.7132L13982.8293,-3744.6068L13982.6492,-3744.3733L13982.4707,-3744.2467L13982.1106,-3743.94L13981.7001,-3743.6333L13981.4896,-3743.4666L13981.2393,-3743.3266L13980.9006,-3743.2201L13980.7404,-3743.1465L13980.6107,-3743.0534L13980.4504,-3742.9665L13980.2902,-3742.8932L13980.1498,-3742.7467L13980.0797,-3742.5865L13980.0598,-3742.5533L13979.9896,-3742.4801L13979.8294,-3742.3733L13979.7897,-3742.3199L13979.7195,-3742.1932L13979.6494,-3742.0799L13979.5593,-3741.7732L13979.5197,-3741.6664L13979.6295,-3741.5264L13979.6494,-3741.4532L13979.6295,-3741.2731L13979.7195,-3741.1465L13979.6997,-3740.9267L13979.6997,-3740.7867L13979.6799,-3740.3L13979.6097,-3740.1531L13979.5807,-3740.0467L13979.5807,-3739.8998L13979.6097,-3739.7202L13979.4907,-3739.5802L13979.4907,-3739.5267L13979.5197,-3739.1666L13979.4495,-3739.0533L13979.4296,-3738.9668L13979.5593,-3738.8199L13979.5197,-3738.6799L13979.3594,-3738.4266L13979.2694,-3738.3732L13979.2007,-3738.3202L13979.1794,-3738.1733L13979.0604,-3738.0798L13979.0604,-3737.8864L13979.0207,-3737.7399L13978.9307,-3737.6534L13978.7704,-3737.6534L13978.6499,-3737.7399L13978.5797,-3737.7068L13978.6301,-3737.5599L13978.6102,-3737.4332L13978.3798,-3737.0533"/>
<path content="AP030,1,28,1,0,14,1,8,JPN" xlink:title="AP030" d="M13931.6299,-3736.9267L13931.5201,-3737.0533L13931.4896,-3737.1666L13931.6101,-3737.2532L13931.7398,-3737.2532L13931.8649,-3737.2532L13932.0801,-3737.2532L13932.4905,-3737.5267L13932.7194,-3737.6534L13932.8796,-3737.6667L13933.3099,-3737.6865L13933.3603,-3737.7731L13933.3801,-3737.8666L13933.49,-3737.9932L13933.6807,-3737.9932L13933.8303,-3737.9002L13933.9493,-3737.8334L13933.9905,-3737.8132L13934.1507,-3737.8334L13934.2896,-3737.9002L13934.4696,-3738.1332L13934.5596,-3738.1931L13934.7397,-3738.2801L13934.8602,-3738.3331L13934.8602,-3738.5864L13934.9503,-3738.6932L13935.0403,-3738.7867L13935.1501,-3738.8401L13935.2707,-3738.8931L13935.3302,-3738.9267L13935.4706,-3739.1998L13935.6293,-3739.2735L13935.7407,-3739.4135L13935.8307,-3739.5599L13935.9497,-3739.6866L13936.0199,-3739.7598L13936.2,-3739.8464L13936.3297,-3739.8865L13937.1307,-3739.8998L13937.3093,-3739.8666L13937.4298,-3739.8132L13937.4496,-3739.6866L13937.3795,-3739.5599L13937.3596,-3739.4665L13937.3596,-3739.3467L13937.2894,-3739.2735L13937.2894,-3739.1666L13937.3795,-3739.0533L13937.4496,-3738.9866L13937.5793,-3738.9668L13937.8601,-3738.9866L13938.1104,-3738.8733L13938.2904,-3738.9133L13938.3301,-3739.1464L13938.3804,-3739.2532L13938.4506,-3739.36L13938.5605,-3739.4531L13938.6993,-3739.5065L13938.7405,-3739.5065L13938.7405,-3739.5267L13938.9893,-3739.5599L13939.5798,-3739.5599L13939.9307,-3739.5802L13940.0681,-3739.6233L13940.2695,-3739.6866L13940.5197,-3739.6866L13940.6998,-3739.6534L13941.04,-3739.5401L13941.3101,-3739.4531L13941.4001,-3739.4333L13941.9296,-3739.4531L13942.2394,-3739.4665L13942.3798,-3739.4531L13942.6804,-3739.3467L13942.7399,-3739.3265L13943.0801,-3739.5931L13943.2693,-3739.6133L13943.4692,-3739.6133L13943.6295,-3739.5065L13943.6493,-3739.5065L13943.7195,-3739.4001L13943.8293,-3739.3799L13943.9697,-3739.4135L13944.2703,-3739.4531L13944.4504,-3739.4665L13944.5602,-3739.4665L13944.7403,-3739.4333L13944.8105,-3739.4135L13944.8807,-3739.4001L13945.1492,-3739.4001L13945.2194,-3739.4135L13945.3796,-3739.5401L13945.6497,-3739.6133L13945.8298,-3739.6667L13946.1105,-3739.6667L13946.2906,-3739.6667L13946.5195,-3739.74L13946.6797,-3739.7934L13946.8307,-3739.8132L13947.0795,-3739.9532L13947.2397,-3740.0799L13947.3099,-3740.2267L13947.3602,-3740.3866L13947.2702,-3740.6799L13947.2198,-3740.86L13947.2397,-3741L13947.3297,-3741.1064L13947.4503,-3741.1999L13947.6501,-3741.2334L13947.7905,-3741.2865L13948.2895,-3741.7198L13948.4695,-3741.8865L13948.4497,-3742.1333L13948.3994,-3742.3534L13948.3597,-3742.5133L13948.3597,-3742.7467L13948.4695,-3742.9134L13948.5397,-3743.0931L13948.5794,-3743.3266L13948.7,-3743.4532L13948.88,-3743.5799L13948.9502,-3743.6535L13949.0204,-3743.7401L13949.2004,-3743.8465L13949.3301,-3743.9533L13949.3805,-3744.0132L13949.3607,-3744.0468L13949.3607,-3744.1002L13949.3607,-3744.1734L13949.3607,-3744.2066L13949.3607,-3744.26L13949.6246,-3744.2986L13949.7696,-3744.3199L13950.0198,-3744.3867L13950.0793,-3744.4267L13950.5798,-3744.4065L13950.9506,-3744.4401L13951.2695,-3744.68L13951.3596,-3744.8002L13951.3794,-3745.0535L13951.5198,-3745.1466L13951.6098,-3745.2732L13951.68,-3745.38L13951.7395,-3745.4132L13951.9302,-3745.4132L13952.0401,-3745.3602L13952.2003,-3745.2332L13952.2705,-3745.1801L13952.3804,-3745.2L13952.5192,-3745.2732L13952.7206,-3745.2866L13952.7405,-3745.2866"/>
<path content="AP030,1,28,1,0,14,1,4,JPN" xlink:title="AP030" d="M13978.3798,-3737.0533L13977.7206,-3735.9402"/>
<path content="AP030,1,28,1,0,14,1,8,JPN" xlink:title="AP030" d="M13924.7894,-3739.5401L13925.0793,-3739.7934L13925.9903,-3739.6133L13926.2207,-3739.4333L13926.5594,-3739.4001L13926.86,-3739.2864L13926.9897,-3739.0202L13927.0401,-3738.8199L13927.3102,-3738.6799L13927.4002,-3738.5532L13927.4704,-3738.3533L13927.4307,-3738.0798L13927.4704,-3737.7399L13927.5604,-3737.5801L13927.6794,-3737.36L13927.8305,-3737.2334L13927.9495,-3737.1265L13928.0197,-3736.9865L13928.1494,-3736.7867L13928.1998,-3736.6798L13928.1998,-3736.6402L13928.27,-3736.4265L13928.36,-3736.3533L13928.5202,-3736.1935L13928.6301,-3736.1L13928.6804,-3736.0134L13928.7201,-3735.92L13928.83,-3735.8665L13928.9307,-3735.8868L13929.0405,-3735.9531L13929.1504,-3735.9531L13929.3304,-3735.9531L13929.5593,-3736.0268L13930.0201,-3736.1534L13930.22,-3736.2465L13930.2902,-3736.3865L13930.3299,-3736.4601L13930.4306,-3736.5334L13930.4703,-3736.5665L13930.5206,-3736.7466L13930.6793,-3736.8L13931.0394,-3736.8599L13931.4896,-3736.8935L13931.6299,-3736.9267"/>
<path content="AP030,1,28,1,0,14,1,8,JPN" xlink:title="AP030" d="M13931.7398,-3734.84L13931.7902,-3734.8934L13932.0602,-3735.1799L13932.1793,-3735.3065L13932.2403,-3735.4L13932.2403,-3735.5064L13932.2006,-3735.9001L13932.1793,-3736.1332L13932.1304,-3736.5532L13932.1106,-3736.7466L13932.0206,-3736.8599L13931.8802,-3736.9465L13931.7932,-3736.9465L13931.72,-3736.9465L13931.6299,-3736.9267"/>
<path content="AP030,1,28,1,0,14,1,8,JPN" xlink:title="AP030" d="M13992.1875,-3737.8355L13992.1295,-3737.5935L13992.0593,-3737.3264L13991.9693,-3737.0934L13991.9006,-3736.8935L13991.9006,-3736.7134L13991.8304,-3736.6402L13991.7404,-3736.5868L13991.5405,-3736.5131L13991.4703,-3736.4799L13991.4001,-3736.4265L13991.2399,-3736.3533L13991.2201,-3736.3201L13991.1499,-3736.2267L13991.0797,-3736.1332L13991.04,-3736.0134L13991.0599,-3735.8868L13991.1499,-3735.7399L13991.2399,-3735.6133L13991.2399,-3735.54L13991.2399,-3735.5267L13991.2201,-3735.4534L13991.0599,-3735.4332L13990.9897,-3735.3802L13990.8997,-3735.2734L13990.8096,-3734.8934L13990.8096,-3734.5665L13990.8096,-3734.2999L13990.8096,-3734.2464L13990.7898,-3733.8665L13990.8096,-3733.7734L13990.8096,-3733.6533"/>
<path content="AP030,1,28,1,0,15,1,8,JPN" xlink:title="AP030" d="M13968.1808,-3743.8271L13968.3685,-3742.6315L13969.0491,-3741.8854L13969.7174,-3741.8037L13970.1797,-3740.8333L13969.8044,-3740.0307L13968.6478,-3739.3524L13967.9916,-3738.7684L13967.4576,-3737.476L13967.4774,-3736.4117L13967.8879,-3735.1746L13967.0151,-3734.2331L13967.6804,-3732.84"/>
<path content="AP030,1,28,1,0,14,1,4,JPN" xlink:title="AP030" d="M13990.8096,-3733.6533L13990.9302,-3733.073L13990.95,-3732.7133"/>
<path content="AP030,1,28,1,0,14,1,8,JPN" xlink:title="AP030" d="M13952.7405,-3745.2866L13952.6993,-3745.1267L13952.6505,-3745.0401L13952.6505,-3744.9665L13952.7405,-3744.9135L13952.7695,-3744.8399L13952.7206,-3744.6934L13952.7206,-3744.64L13952.7893,-3744.3001L13952.8107,-3744.0132L13952.9007,-3743.8465L13953.1494,-3743.6665L13953.2898,-3743.5799L13953.3798,-3743.4666L13953.45,-3743.38L13953.5797,-3743.3067L13953.83,-3743.3067L13953.9307,-3743.2201L13954.0405,-3742.9867L13954.0802,-3742.8932L13954.0405,-3742.7132L13954.0207,-3742.6067L13954.0604,-3742.5533L13954.2007,-3742.4801L13954.3594,-3742.44L13954.5395,-3742.3733L13954.6097,-3742.2798L13954.6997,-3742.1333L13954.8798,-3742.0467L13954.9896,-3741.9731L13954.9896,-3741.4867L13954.8996,-3741.3799L13954.8996,-3741.3067L13954.9896,-3741.18L13955.0797,-3741.0198L13955.13,-3740.9134L13955.2399,-3740.7867L13955.2399,-3740.6601L13955.2902,-3740.44L13955.3604,-3740.2267L13955.4306,-3740.0665L13955.4306,-3739.9734L13955.2399,-3739.92L13955.0598,-3739.8666L13954.9698,-3739.8335L13954.8996,-3739.7202L13954.8996,-3739.6667L13954.8599,-3739.5802L13954.8599,-3739.4135L13954.8798,-3739.1666L13954.8996,-3739.0732L13954.8599,-3738.9133L13954.8096,-3738.7466L13954.8294,-3738.5864L13954.7394,-3738.4998L13954.6295,-3738.3865L13954.6097,-3738.3533L13954.6097,-3738.2465L13954.6494,-3738.1733L13954.7897,-3737.9734L13954.8294,-3737.9002L13955.0598,-3737.6865L13955.2399,-3737.5065L13955.2902,-3737.4134L13955.3299,-3737.3798L13955.4703,-3737.3066L13955.6793,-3737.1799L13955.9006,-3737.1265L13956.0196,-3737.1067L13956.6803,-3737.1468L13956.81,-3737.0399L13956.9702,-3736.8L13957.0206,-3736.5532L13957.0602,-3736.4265L13957.1106,-3736.3731L13957.2403,-3736.2999L13957.4295,-3736.2064L13957.6797,-3736.0268L13957.6797,-3735.8467L13957.6797,-3735.7399L13957.8796,-3735.6533L13958.2901,-3735.5267L13958.4702,-3735.5064L13958.8303,-3735.6865L13958.9294,-3735.6865L13959.1095,-3735.5598L13959.1995,-3735.4134L13959.2896,-3735.2333L13959.3796,-3735.1467L13959.5795,-3735.0399L13959.7397,-3734.8934L13959.8099,-3734.7332L13959.8099,-3734.7134L13959.8602,-3734.5531L13959.8999,-3734.5333L13960.2005,-3734.5531L13960.4294,-3734.4067L13960.6293,-3734.2464L13960.6293,-3734.0668L13960.6995,-3733.8665L13960.8307,-3733.6533L13961.2396,-3733.4L13961.3297,-3733.3599L13961.3998,-3733.3263L13961.6501,-3733.2733L13961.8607,-3733.1264L13961.9705,-3733.0933L13962.1307,-3733.0399L13962.6801,-3732.84L13962.9303,-3732.6065L13963.15,-3732.4799"/>
<path content="AP030,1,28,1,0,14,1,8,JPN" xlink:title="AP030" d="M13967.6804,-3732.84L13967.8604,-3732.9998L13968.0206,-3733.02L13968.2907,-3732.9666L13968.3594,-3732.9132L13968.4296,-3732.8197L13968.9896,-3732.5001L13969.4702,-3732.3334L13969.5602,-3732.2998L13969.7403,-3732.1732L13969.8593,-3732.1331L13969.9005,-3732.1331L13970.0607,-3732.1934L13970.1492,-3732.2063L13970.2896,-3732.2063L13970.6497,-3732.2063L13971.0602,-3732.3334L13971.1807,-3732.4265L13971.2006,-3732.6931L13971.1807,-3732.7663L13971.2906,-3732.9998L13971.3104,-3733.1066L13971.2692,-3733.2867L13971.2692,-3733.3065L13971.3593,-3733.3466L13971.4905,-3733.4332L13971.4706,-3733.4866L13971.4706,-3733.5266L13971.5195,-3733.58L13971.5607,-3733.6132L13971.6797,-3733.633L13971.9498,-3733.6132L13972.0398,-3733.58L13972.0795,-3733.5934L13972.2702,-3733.6533L13972.5403,-3733.7067L13972.7707,-3733.6864L13972.7707,-3733.8135L13972.7707,-3733.8467L13972.9004,-3733.7734L13972.9294,-3733.8333L13972.9294,-3733.9401L13972.9706,-3733.9401L13973.0194,-3733.8333L13973.1094,-3733.7734L13973.1506,-3733.8333L13973.1796,-3733.9401L13973.1995,-3733.9401L13973.3307,-3733.8867L13973.3307,-3733.9199L13973.3597,-3734.1331L13973.3994,-3734.1331L13973.4299,-3733.9733L13973.5199,-3733.9401L13973.5397,-3734.0801L13973.5794,-3734.0801L13973.6298,-3733.9001L13973.9304,-3733.7734L13973.9502,-3733.8665L13974.0402,-3733.7601L13974.4293,-3733.7067L13974.3805,-3733.7601L13974.2905,-3733.8135L13974.3103,-3733.8665L13974.8093,-3734.0267L13975.0198,-3733.9401L13975.2396,-3733.9199L13975.5203,-3734.0267L13975.7904,-3733.9931L13976.0605,-3733.9535L13976.5793,-3734.3201L13976.6296,-3734.3864L13976.6998,-3734.4265L13976.8097,-3734.5135L13976.9501,-3734.66L13976.9897,-3734.7332L13977.2202,-3735.1799L13977.5406,-3735.6335L13977.6306,-3735.8131L13977.7206,-3735.9402"/>
<path content="AP030,1,28,1,0,14,1,8,JPN" xlink:title="AP030" d="M13965.8997,-3731.4667L13965.86,-3731.7066L13965.77,-3731.953L13965.77,-3732.0663L13965.86,-3732.0801L13965.9698,-3731.9199L13966.0599,-3731.8867L13966.1301,-3731.9L13966.1301,-3732.0133L13966.1804,-3732.0663L13966.33,-3732.1732L13966.6306,-3732.32L13966.8304,-3732.373L13966.8594,-3732.4398L13966.8304,-3732.513L13966.8304,-3732.5867L13966.8793,-3732.5867L13966.9296,-3732.5333L13966.9907,-3732.46L13967.0395,-3732.4265L13967.0807,-3732.4265L13967.2195,-3732.4265L13967.3599,-3732.4398L13967.54,-3732.5665L13967.6804,-3732.84"/>
<path content="AP030,1,28,1,0,14,1,8,JPN" xlink:title="AP030" d="M13963.15,-3732.4799L13963.2004,-3732.4398L13963.3301,-3732.373L13963.6093,-3732.28L13963.8596,-3732.1198L13964.0396,-3732.0465L13964.5599,-3732.0133L13964.7202,-3731.9931L13964.8102,-3731.953L13964.8804,-3731.9401L13964.9704,-3731.8867L13965.0803,-3731.8665L13965.1794,-3731.8466L13965.2405,-3731.8333L13965.3107,-3731.813L13965.3595,-3731.7932L13965.4694,-3731.72L13965.6998,-3731.6132L13965.8997,-3731.4667"/>
<path content="AP030,1,28,1,0,14,1,8,JPN" xlink:title="AP030" d="M13990.95,-3732.7133L13990.95,-3732.6199L13990.95,-3732.5333L13990.9302,-3732.3532L13990.8096,-3732.1533L13990.7898,-3731.953L13990.7898,-3731.813L13990.6799,-3731.72L13990.5396,-3731.6334L13990.4694,-3731.6666L13990.3107,-3731.76L13990.2206,-3731.7066L13990.0192,-3731.5933L13989.8605,-3731.4331L13989.7903,-3731.3267L13989.7903,-3731.1798L13989.7903,-3731.1497L13989.7903,-3731.0734"/>
<path content="AP030,1,28,1,0,14,1,8,JPN" xlink:title="AP030" d="M13921.875,-3730.4301L13922.1298,-3730.4798L13922.2397,-3730.5332L13922.29,-3730.5866L13922.3297,-3730.7667L13922.4503,-3730.7865L13922.58,-3730.7331L13922.7905,-3730.5134L13922.8607,-3730.46L13922.9507,-3730.4264L13923.0392,-3730.3734L13923.0804,-3730.2998L13923.2895,-3730.2601L13923.3795,-3730.1933L13923.4695,-3730.2067L13923.4894,-3730.2998L13923.4695,-3730.4066L13923.4299,-3730.4398L13923.4299,-3730.5531L13923.4894,-3730.6198L13923.5199,-3730.7865L13923.5596,-3730.8399L13923.7198,-3730.8399L13923.79,-3730.8201L13923.8098,-3730.7999L13923.88,-3730.8201L13924.0799,-3730.9864L13924.3301,-3730.9864L13924.4293,-3730.9864L13924.5605,-3731.1066L13924.6994,-3731.0734L13924.8306,-3731.02L13924.9695,-3730.9864L13924.9893,-3730.9864L13925.0595,-3730.9864L13925.1297,-3730.9666L13925.2396,-3730.8731L13925.2899,-3730.8598L13925.3799,-3730.8598L13925.6302,-3731.1066L13925.8102,-3731.3267L13925.7401,-3731.3999L13925.65,-3731.4865L13925.5402,-3731.5598L13925.4501,-3731.6132L13925.3296,-3731.6864L13925.2899,-3731.72L13925.3326,-3731.9229L13925.3998,-3732.0267L13925.5402,-3732.0663L13925.7401,-3731.9733L13925.7904,-3731.9733L13925.9506,-3731.9931L13926.0193,-3731.9733L13926.0803,-3731.9199L13926.0803,-3731.8867L13926.0605,-3731.813L13926.0605,-3731.76L13926.0803,-3731.7188L13926.1307,-3731.6864L13926.2207,-3731.6334L13926.2695,-3731.5933L13926.2894,-3731.5598L13926.3306,-3731.4667L13926.3596,-3731.4533L13926.3992,-3731.4133L13926.5198,-3731.4133L13926.77,-3731.4667L13926.8997,-3731.5399L13926.9897,-3731.6666L13926.9897,-3731.8466L13927.0401,-3731.9401L13927.2003,-3731.9L13927.24,-3731.7932L13927.2705,-3731.72L13927.33,-3731.6334L13927.4002,-3731.58L13927.4704,-3731.4865L13927.5604,-3731.4133L13927.7695,-3731.4331L13927.8595,-3731.4133L13927.9297,-3731.4133L13928.0594,-3731.5399L13928.1799,-3731.5063L13928.2394,-3731.4331L13928.3798,-3731.3599L13928.45,-3731.3801L13928.4698,-3731.4865L13928.4897,-3731.6132L13928.5202,-3731.7734L13928.54,-3731.8333L13928.5202,-3732.0267L13928.4698,-3732.0999L13928.4698,-3732.1331L13928.5599,-3732.1533L13928.6804,-3732.1533L13928.7201,-3732.0801L13928.7399,-3732.0465L13928.7201,-3731.953L13928.7003,-3731.9L13928.6804,-3731.8333L13928.7003,-3731.76L13928.7399,-3731.72L13928.7704,-3731.6864L13928.8101,-3731.6666L13928.9505,-3732.0133L13928.9902,-3732.0999L13929.1794,-3732.2998L13929.2404,-3732.4066L13929.3304,-3732.5867L13929.3304,-3732.6797L13929.4693,-3732.9266L13929.6097,-3732.9998L13929.6799,-3733.1665L13929.6799,-3733.3065L13929.6295,-3733.4332L13929.6494,-3733.4866L13929.7394,-3733.58L13929.7394,-3733.5934L13929.7699,-3733.6533L13929.7897,-3733.6864L13929.8996,-3733.7601L13929.9698,-3733.7933L13930.0598,-3733.8665L13930.1498,-3733.8867L13930.2704,-3733.9733L13930.3299,-3734.0466L13930.4306,-3734.1202L13930.6793,-3734.1534L13930.9692,-3734.1732L13931.1295,-3734.2464L13931.3599,-3734.4067L13931.5598,-3734.6401L13931.7398,-3734.84"/>
<path content="AP030,1,28,1,0,14,1,8,JPN" xlink:title="AP030" d="M13931.7398,-3734.84L13931.8604,-3734.7866L13931.9305,-3734.7134L13931.9504,-3734.5665L13932.1106,-3734.4398L13932.1304,-3734.3533L13932.1503,-3734.2464L13932.1503,-3734.1732L13932.1793,-3733.9931L13932.3303,-3733.6533L13932.5806,-3733.2199L13932.6294,-3733.1665L13932.6797,-3733.0933L13932.7698,-3733.0399L13932.8598,-3732.9865L13933.0597,-3732.84L13933.3099,-3732.6599L13933.4702,-3732.5665L13933.58,-3732.4398L13933.7204,-3732.2464L13933.8593,-3732.0999L13933.9493,-3731.953L13934.1293,-3731.7932L13934.3094,-3731.6334L13934.4894,-3731.4667L13934.6497,-3731.2L13934.7,-3731.1665L13934.7702,-3731.1264L13934.8602,-3731.0734L13934.9304,-3731.0532L13935.0204,-3731.0398L13935.1303,-3730.9998L13935.2203,-3730.9864L13935.3104,-3730.9265L13935.7697,-3730.7999L13935.8994,-3730.7865L13936.0397,-3730.7465L13936.1298,-3730.7133L13936.2198,-3730.6599L13936.29,-3730.6198L13936.3998,-3730.6198L13936.5204,-3730.6198L13936.6104,-3730.5866L13936.6501,-3730.5332L13936.7004,-3730.4798L13936.7706,-3730.4264L13936.8607,-3730.3734L13936.9507,-3730.32L13937.0605,-3730.2464L13937.1994,-3730.2265L13937.2696,-3730.2464L13937.3093,-3730.2601L13937.3795,-3730.2998L13937.4695,-3730.3333L13937.6099,-3730.3333L13937.7197,-3730.3333L13937.7701,-3730.3333L13937.8799,-3730.3333L13937.9501,-3730.3333L13938.0203,-3730.32L13938.1104,-3730.2799L13938.1805,-3730.2799L13938.2401,-3730.2799L13938.2904,-3730.2998L13938.3606,-3730.3333L13938.4293,-3730.3734L13938.5406,-3730.3864L13938.7695,-3730.46L13938.8596,-3730.5L13939.0396,-3730.5531L13939.2395,-3730.6599L13939.4501,-3730.7999L13939.5798,-3730.8201L13939.7903,-3730.9666L13939.9704,-3731.02L13940.1093,-3731.02L13940.3595,-3731.02L13940.4297,-3731.02L13940.5594,-3731.02L13940.6998,-3731.0734L13940.8096,-3731.0734L13940.9698,-3731.02L13941.4001,-3730.9864L13941.4505,-3730.9864L13941.5405,-3730.9265L13941.6504,-3730.8933L13941.7694,-3730.8598L13941.8793,-3730.8598L13941.9907,-3730.8731L13942.2699,-3730.9132L13942.3798,-3730.9265L13942.63,-3730.9464L13942.8802,-3731.0398L13943.1107,-3731.0532L13943.2205,-3731.0532L13943.3304,-3731.0734L13943.7698,-3731.1665L13944.2703,-3731.2L13944.2902,-3731.2L13944.3802,-3731.2L13944.4504,-3731.1466L13944.7006,-3730.9998L13944.7906,-3730.9666L13944.8303,-3730.9666L13944.9295,-3731.02L13944.9707,-3731.0932L13945.0607,-3731.0932L13945.1492,-3731.0734L13945.2393,-3731.02L13945.3293,-3730.9464L13945.4498,-3730.8933L13945.5795,-3730.8598L13945.6802,-3730.8201L13945.7901,-3730.7667L13945.8801,-3730.6931L13945.9503,-3730.6198L13945.99,-3730.5664L13946.08,-3730.4798L13946.1105,-3730.46L13946.2204,-3730.3864L13946.3104,-3730.2601L13946.6095,-3729.9198L13946.6995,-3729.8332L13946.7194,-3729.8134"/>
<path content="AP030,1,28,1,0,14,1,8,JPN" xlink:title="AP030" d="M13946.7194,-3729.8134L13946.8796,-3729.5799L13947.02,-3729.4666L13948.0606,-3729.0733"/>
<path content="AP030,1,28,1,0,14,1,8,JPN" xlink:title="AP030" d="M13989.7903,-3731.0734L13989.7705,-3730.9998L13989.7903,-3730.9666L13989.8605,-3730.9464L13989.9506,-3730.9265L13989.9902,-3730.9464L13990.0803,-3730.9464L13990.1794,-3730.8731L13990.3793,-3730.8201L13990.5396,-3730.8598L13990.8096,-3730.8598L13990.9897,-3730.7999L13991.4505,-3730.7999L13991.4703,-3730.7999L13991.7892,-3730.7133L13992.0593,-3730.7133L13992.1875,-3730.766"/>
<path content="AP030,1,28,1,0,15,1,8,JPN" xlink:title="AP030" d="M13988.1836,-3743.6249L13987.674,-3742.049L13986.9919,-3738.5765L13988.3148,-3736.8336L13987.8799,-3735.7494L13987.2726,-3734.9335L13986.4471,-3733.53L13985.7834,-3732.7133L13985.405,-3731.6746L13984.8373,-3731.4037L13984.8511,-3730.4722L13984.4757,-3729.1687L13984.7458,-3727.9755L13984.3048,-3726.9642"/>
<path content="AP030,1,28,1,0,14,1,8,JPN" xlink:title="AP030" d="M13946.7194,-3729.8134L13946.8994,-3729.7932L13946.9894,-3729.7398L13947.0795,-3729.6864L13947.2198,-3729.6532L13947.4701,-3729.5799L13947.8104,-3729.4331L13947.9904,-3729.3465L13948.1796,-3729.2198L13948.3307,-3729.1065L13948.4894,-3729.0733L13948.6298,-3729.0531L13948.8297,-3729.0531L13948.9304,-3729.0733L13949.0601,-3729.0932L13949.4003,-3729.1264L13949.5193,-3729.1065L13949.5605,-3729.0932L13949.8306,-3729.0199L13950.1099,-3728.8933L13950.2396,-3728.7666L13950.3098,-3728.7132L13950.4898,-3728.68L13950.6302,-3728.68L13950.9003,-3728.6598L13950.9903,-3728.6198L13951.1307,-3728.5332L13951.2695,-3728.4397L13951.5198,-3728.3733L13951.77,-3728.1933L13951.9501,-3728.0132L13952.0599,-3727.9198L13952.15,-3727.8664L13952.2705,-3727.7733L13952.5604,-3727.6863L13952.7405,-3727.6333L13953.0807,-3727.56L13953.1799,-3727.5265L13953.36,-3727.3598L13953.5797,-3727L13953.7201,-3726.8398L13953.9307,-3726.6064"/>
<path content="AP030,1,28,1,0,14,1,8,JPN" xlink:title="AP030" d="M13965.8997,-3731.4667L13966.0202,-3731.2733L13966.2201,-3731.1066L13966.4902,-3730.9132L13966.6504,-3730.7865L13966.8304,-3730.64L13966.8594,-3730.5664L13966.8793,-3730.46L13966.9907,-3730.3864L13967.1494,-3730.3734L13967.3294,-3730.2998L13967.54,-3730.2067L13967.7399,-3729.9198L13967.7704,-3729.8466L13967.72,-3729.7066L13967.6804,-3729.6532L13967.6804,-3729.6131L13967.7902,-3729.4132L13967.7902,-3729.2866L13967.9901,-3729.0398L13968.0405,-3728.9864L13968.2007,-3728.7132L13968.4006,-3728.5L13968.6798,-3728.3531L13968.7393,-3728.2799L13968.7195,-3728.2467L13968.7195,-3728.2066L13968.6798,-3728.1933L13968.6493,-3728.1731L13968.6798,-3728.12L13968.7393,-3728.0464L13968.7698,-3728.0132L13968.7195,-3727.9732L13968.6798,-3727.9732L13968.6096,-3728.0266L13968.5394,-3728.08L13968.4906,-3728.1532L13968.4692,-3728.133L13968.4006,-3728.0464L13968.3807,-3727.993L13968.3594,-3727.8664L13968.3807,-3727.7065L13968.4692,-3727.6131L13968.6096,-3727.38L13968.6798,-3727.3266L13968.7698,-3727.2533L13968.8293,-3727.2331L13968.8797,-3727.1465L13968.9896,-3726.9264L13969.1498,-3726.873L13969.2001,-3726.86L13969.2902,-3726.7666L13969.4504,-3726.5663L13969.463,-3726.5625M13969.827,-3726.5625L13969.8593,-3726.6197L13969.9005,-3726.6399L13969.9905,-3726.6064L13970.0394,-3726.5663L13970.0515,-3726.5625"/>
<path content="AP030,1,28,1,0,14,1,8,JPN" xlink:title="AP030" d="M13953.9307,-3726.6064L13954.1504,-3726.68L13954.3793,-3726.6598L13954.8096,-3726.7864L13955.0797,-3726.7998L13955.2902,-3726.8932L13955.4703,-3727.0397L13955.7205,-3727.1797L13955.8304,-3727.2198L13955.9296,-3727.2198L13955.9494,-3727.2198L13956.1996,-3727.3598L13956.2897,-3727.38L13956.4499,-3727.3266L13956.7001,-3727.1999L13956.7703,-3727.1797L13956.8604,-3727.1797L13956.9305,-3727.1797L13957.0206,-3727.1465L13957.1106,-3727.0531L13957.2403,-3727.0199L13957.3593,-3726.9131L13957.4005,-3726.82L13957.4493,-3726.7864L13957.4905,-3726.7864L13957.6294,-3726.7864L13957.7194,-3726.82L13957.7896,-3726.8398L13957.8796,-3726.7998L13957.9498,-3726.7464L13958.0762,-3726.5625M13961.03,-3726.5625L13961.0596,-3726.5865L13961.0397,-3726.7464L13961.2,-3726.82L13961.3098,-3726.9665L13961.3998,-3727L13961.4502,-3727L13961.5204,-3727L13961.6104,-3727.0531L13961.7203,-3727.2331L13961.9705,-3727.3998L13962.0407,-3727.5265L13962.0407,-3727.5398L13962.0193,-3728.0266L13961.9003,-3728.3333L13961.9003,-3728.4599L13961.8805,-3728.6198L13961.8607,-3728.7331L13961.9507,-3728.7998L13962.0804,-3728.8933L13962.4893,-3728.8731L13962.6297,-3728.8731L13962.6999,-3729.0531L13962.8799,-3729.2534L13962.9898,-3729.3999L13962.8998,-3729.5933L13962.8098,-3729.6665L13962.9898,-3729.7398L13963.1805,-3729.8332L13963.2401,-3729.9198L13963.2904,-3729.94L13963.4705,-3729.9732L13963.7207,-3730.1201L13963.8107,-3730.2067L13963.8596,-3730.4264L13963.9297,-3730.5664L13963.9496,-3730.64L13963.9496,-3730.7133L13963.9694,-3730.7667L13964.0793,-3730.7999L13964.1098,-3730.8399L13964.1098,-3730.9132L13964.1098,-3730.9464L13964.18,-3730.9998L13964.2197,-3731.1066L13964.1998,-3731.2L13964.0594,-3731.2866L13963.9694,-3731.3267L13963.8992,-3731.3465L13963.8596,-3731.3465L13963.7695,-3731.3065L13963.7207,-3731.3065L13963.6307,-3731.3065L13963.5406,-3731.3065L13963.4506,-3731.3065L13963.3606,-3731.3065L13963.3301,-3731.3465L13963.3102,-3731.3801L13963.2401,-3731.4533L13963.2202,-3731.5399L13963.2202,-3731.6666L13963.2004,-3731.72L13963.15,-3731.76L13963.1302,-3731.8466L13963.1302,-3731.9733L13963.1805,-3732.0801L13963.15,-3732.2266L13963.1302,-3732.3532L13963.15,-3732.4799"/>
<path content="AP030,1,28,1,0,14,1,8,JPN" xlink:title="AP030" d="M13989.7903,-3731.0734L13989.6835,-3731.0734L13989.6103,-3731.0734L13989.4501,-3731.02L13989.3799,-3730.9132L13989.3799,-3730.8598L13989.3295,-3730.7667L13989.3295,-3730.6801L13989.3295,-3730.3333L13989.5599,-3730.0999L13989.5798,-3730.0465L13989.7705,-3729.76L13989.9307,-3729.6131L13989.9506,-3729.5933L13990.0406,-3729.4666L13990.2206,-3729.2L13990.4297,-3728.9864L13990.4694,-3728.6934L13990.4297,-3728.5866L13990.2206,-3728.5L13990.1505,-3728.3733L13990.1093,-3728.2066L13990.0604,-3728.0998L13990.0192,-3728.0464L13989.7903,-3727.8332L13989.5798,-3727.5265L13989.4699,-3727.3266L13989.3799,-3727.1263L13989.3295,-3726.9863L13989.2899,-3726.9131L13989.0396,-3726.8398L13988.7894,-3726.7864L13988.6307,-3726.6933L13988.5325,-3726.5625"/>
<path content="AP030,1,28,1,0,15,1,8,JPN" xlink:title="AP030" d="M13984.3048,-3726.9642L13984.6655,-3726.5625"/>
<path content="AP030,1,28,1,0,15,1,8,JPN" xlink:title="AP030" d="M13981.2881,-3726.5625L13981.6864,-3726.8482L13983.5159,-3726.9993L13984.3048,-3726.9642"/>
<path content="AP030,1,28,1,0,14,1,8,JPN" xlink:title="AP030" d="M13953.9307,-3726.6064L13953.9552,-3726.5625"/>
</g>
</svg>
