<?xml version="1.0" encoding="UTF-8"?>
<svg  xmlns="http://www.w3.org/2000/svg" xmlns:xlink="http://www.w3.org/1999/xlink" xmlns:go="http://purl.org/svgmap/profile" property="f_code,acc,exs,rst,med,rtt,RSU,loc,soc" viewBox="14343.75 -4500.0 140.625 140.625" go:dataArea="14343.75 -4500.0 140.625 140.625" >
<metadata>
 <rdf:RDF xmlns:rdf="http://www.w3.org/1999/02/22-rdf-syntax-ns#" xmlns:crs="http://opengis.org/xmldtds/transformations.dtd" xmlns:svg="http://www.w3.org/svg" >
  <rdf:Description>
   <crs:CoordinateReferenceSystem rdf:resource="http://purl.org/crs/84" svg:transform="matrix(100.0,0.0,0.0,-100.0,0.0,0.0)" />
  </rdf:Description>
 </rdf:RDF>
</metadata>
<globalCoordinateSystem srsName="http://purl.org/crs/84" transform="matrix(100.0,0.0,0.0,-100.0,0.0,0.0)" />
<defs>
 <g id="p0" >
  <circle cx="0.0" cy="0.0" r="3" stroke="green" stroke-width="2.0" vector-effect="non-scaling-stroke" />
 </g>
</defs>
<g fill="none" fill-rule="evenodd" stroke="#00ff00" stroke-width="2" opacity="0.5" vector-effect="non-scaling-stroke" stroke-linejoin="bevel" >
<path content="AP030,1,28,1,0,14,1,8,JPN" xlink:title="AP030" d="M14343.75,-4429.2542L14343.8293,-4429.2198L14343.9697,-4429.1065L14344.0796,-4429.0199L14344.2398,-4428.8734L14344.4305,-4428.68L14344.8303,-4428.3199L14344.9905,-4428.1532L14345.2393,-4427.9202L14345.8099,-4427.3998L14346.0602,-4427.1267L14346.3593,-4426.8398L14346.5393,-4426.7334L14346.6995,-4426.6933L14346.7896,-4426.6933L14346.9498,-4426.6933L14347.0596,-4426.6933L14347.1298,-4426.68L14347.5204,-4426.2798L14347.5403,-4426.2466L14348.1506,-4425.6535L14348.3597,-4425.5264L14348.3994,-4425.4868L14348.97,-4425.1667L14349.4003,-4424.8932L14349.4904,-4424.8402L14349.5407,-4424.8199L14349.7406,-4424.6933L14349.9496,-4424.5865L14350.1297,-4424.5667L14350.5798,-4424.6067L14350.9003,-4424.6201L14351.0803,-4424.5865L14351.3596,-4424.4598L14351.5793,-4424.3332L14352.0203,-4424.1001L14352.0401,-4424.0799L14352.2202,-4423.9735L14352.4307,-4423.8667L14352.5803,-4423.7732L14352.7206,-4423.6866L14353.1799,-4423.4333L14353.2394,-4423.4001L14353.5599,-4423.2334L14353.7201,-4423.1667L14354.2404,-4423.0732L14354.5807,-4423.0202L14355.2902,-4422.8931L14355.8594,-4422.7867L14356.3599,-4422.62L14356.3995,-4422.6067L14357.0404,-4422.3866L14357.5394,-4422.2267L14358.3298,-4421.9734L14358.58,-4421.9002L14358.9493,-4421.7602L14359.0195,-4421.74L14359.2697,-4421.6534L14359.3994,-4421.6331L14359.7397,-4421.6133L14359.9304,-4421.6331L14360.0403,-4421.6133L14360.1105,-4421.5599L14360.1807,-4421.4664L14360.2203,-4421.4001L14360.2905,-4421.3467L14360.6094,-4421.2334L14360.8307,-4421.1666"/>
<path content="AP030,1,28,1,0,14,1,8,JPN" xlink:title="AP030" d="M14359.9899,-4419.7933L14360.1105,-4419.9402L14360.2707,-4420.2065L14360.5194,-4420.66L14360.5606,-4420.7466L14360.8307,-4421.1666"/>
<path content="AP030,1,28,1,0,15,1,8,JPN" xlink:title="AP030" d="M14360.8307,-4421.1666L14361.3739,-4422.287L14367.0135,-4420.3316L14365.2893,-4418.0801"/>
<path content="AP030,1,28,1,0,14,1,8,JPN" xlink:title="AP030" d="M14359.9899,-4419.7933L14360.7895,-4419.5267L14361.9293,-4419.1666L14362.5595,-4418.9465L14362.6999,-4418.9133L14363.2202,-4418.7466L14363.8596,-4418.5333L14364.1098,-4418.4601L14364.5203,-4418.3334L14365.2893,-4418.0801"/>
<path content="AP030,1,28,1,0,14,1,8,JPN" xlink:title="AP030" d="M14365.2893,-4418.0801L14365.5396,-4418.0134L14365.7196,-4417.9531L14365.77,-4417.9401L14365.8295,-4417.8867L14365.9302,-4417.7933L14365.9698,-4417.6666L14365.9897,-4417.4866L14366.0202,-4417.4332L14366.1102,-4417.4L14366.1804,-4417.3599L14366.2201,-4417.3267L14366.2704,-4417.2531L14366.3803,-4417.2001L14366.4703,-4417.1066L14366.5604,-4416.9468L14366.6107,-4416.8732L14366.7206,-4416.7667L14366.8594,-4416.6599L14367.0197,-4416.5668L14367.2699,-4416.4066L14367.5598,-4416.1934L14367.7399,-4416.0999L14367.9504,-4416.0267L14368.2007,-4415.9199L14368.5196,-4415.8333L14368.6798,-4415.7398L14368.8599,-4415.58"/>
<path content="AP030,1,28,1,0,14,1,8,JPN" xlink:title="AP030" d="M14368.8599,-4415.58L14368.8797,-4415.5602L14369.0201,-4415.3069L14369.1498,-4415.1466L14369.2001,-4415.0932L14369.2398,-4415.02L14369.2703,-4414.9868L14369.2902,-4414.8731L14369.3802,-4414.7865L14369.5801,-4414.5866L14369.8105,-4414.4268L14369.9295,-4414.3532L14370.0394,-4414.3333L14370.2194,-4414.3333L14370.3598,-4414.3002L14370.5399,-4414.1731L14370.7397,-4414.08L14370.9702,-4413.9732L14371.1105,-4413.8668L14371.2006,-4413.7733L14371.3104,-4413.5799L14371.4294,-4413.4666L14371.5805,-4413.3801L14371.6797,-4413.2866L14371.7697,-4413.0932L14371.8796,-4412.8735L14371.9498,-4412.7666L14371.9498,-4412.6801L14371.8796,-4412.3199L14371.8597,-4412.1933L14371.8994,-4412.08L14372.0398,-4411.8668L14372.1298,-4411.7931L14372.1298,-4411.7599L14372.0596,-4411.5601L14372.02,-4411.3998L14372.02,-4411.2732L14372.0398,-4411.2331L14372.0795,-4411.1465L14372.4503,-4410.6201L14372.6501,-4410.3199L14372.7402,-4410.2066L14372.8302,-4410.12L14372.8607,-4410.0468L14372.8607,-4409.9201L14372.8806,-4409.8469L14373.0804,-4409.5798L14373.1506,-4409.5268L14373.1796,-4409.4868L14373.2895,-4409.4666L14373.3994,-4409.4666L14373.5397,-4409.4868L14373.7198,-4409.6134L14373.8098,-4409.6535L14373.8998,-4409.6535L14374.0402,-4409.5932L14374.1806,-4409.5932L14374.3103,-4409.5798L14374.3607,-4409.5402L14374.4904,-4409.3468L14374.6094,-4409.2533L14374.7192,-4409.1801L14374.8795,-4409.1801L14375.0595,-4409.2533L14375.2197,-4409.2869L14375.3998,-4409.2869L14375.65,-4409.2201L14375.7401,-4409.1999L14375.9003,-4409.1801L14376.0193,-4409.1667L14376.1993,-4409.1667L14376.3306,-4409.1469L14376.4694,-4409.1267"/>
<path content="AP030,1,28,1,0,14,1,8,JPN" xlink:title="AP030" d="M14394.4504,-4408.1734L14394.5206,-4408.2066L14394.5801,-4408.2802L14394.6106,-4408.2802L14394.7403,-4408.4068L14394.9493,-4408.5533L14395.2393,-4408.6933L14395.43,-4408.8402L14395.4498,-4408.86L14395.7199,-4409.1667L14395.8801,-4409.4868L14395.99,-4409.5932L14396.1502,-4409.6668L14396.3104,-4409.8133L14396.6095,-4410.1734L14396.7407,-4410.3001L14396.8796,-4410.3535L14397.0596,-4410.3733L14397.9004,-4410.3535L14398.2407,-4410.3535L14398.4894,-4410.3535L14398.88,-4410.3333L14399.1501,-4410.3333L14399.2706,-4410.3733L14399.4003,-4410.5L14399.5193,-4410.5667L14399.6796,-4410.6201L14399.7894,-4410.6602L14399.8596,-4410.6934L14400,-4410.73L14400.7004,-4410.9135L14400.8301,-4410.9467L14401.0605,-4411.0199L14401.7395,-4411.2L14401.8097,-4411.2202L14402.6306,-4411.4132L14403.45,-4411.6135L14403.6102,-4411.6669L14403.6301,-4411.6867L14403.6804,-4411.7199L14403.9902,-4412.1735L14404.1107,-4412.2601L14404.2007,-4412.2799L14404.5395,-4412.2467L14405.1102,-4412.2467L14405.2704,-4412.2269L14405.3299,-4412.2066L14405.5405,-4412.1334L14405.7007,-4412.0998L14406.2195,-4411.9202L14406.72,-4411.7599L14406.7902,-4411.7401L14406.9504,-4411.7065"/>
<path content="AP030,1,28,1,0,14,1,8,JPN" xlink:title="AP030" d="M14376.4694,-4409.1267L14376.68,-4409.0935L14377.0401,-4409.0935L14377.2705,-4409.1267L14377.5208,-4409.1801L14377.7695,-4409.2869L14377.9907,-4409.4334L14378.1494,-4409.5402L14378.3798,-4409.6134L14378.45,-4409.6333L14378.6499,-4409.6535L14378.9001,-4409.6333L14379.1107,-4409.5932L14379.2694,-4409.56L14379.7195,-4409.56L14379.8798,-4409.5402L14380.0598,-4409.4666L14380.2002,-4409.4334L14380.6107,-4409.4131L14380.8594,-4409.4334L14380.9906,-4409.4666L14381.2195,-4409.5932L14381.3599,-4409.7069L14381.4697,-4409.7599L14381.5796,-4409.7935L14381.7398,-4409.8331L14381.9702,-4409.8866L14382.2906,-4409.9934L14382.5806,-4410.12L14382.8094,-4410.2798L14382.9498,-4410.3333L14383.0795,-4410.3733L14383.2901,-4410.4267L14383.6105,-4410.5667L14383.7906,-4410.6602L14384.0393,-4410.6934L14384.2697,-4410.68L14384.52,-4410.6068L14384.7702,-4410.5331L14384.9503,-4410.5L14385.1105,-4410.4267L14385.2402,-4410.3333L14385.3806,-4410.2066L14385.5194,-4410.0468L14385.5804,-4410.0132L14385.6506,-4409.9934L14386.1298,-4410.0132L14386.6104,-4409.9731L14386.6501,-4409.9731L14386.9705,-4409.9201L14387.2894,-4409.8667L14387.5198,-4409.8331L14387.6297,-4409.8133L14387.7197,-4409.8133L14388.06,-4409.8866L14388.2401,-4409.9201L14388.4293,-4409.9201L14388.6093,-4409.8866L14388.6993,-4409.8469L14388.9297,-4409.6134L14389.0396,-4409.5402L14389.2197,-4409.4334L14389.5203,-4409.3067L14389.6301,-4409.2533L14389.6805,-4409.2201L14389.8605,-4409.0935L14390.0406,-4409L14390.1093,-4408.9668L14390.1794,-4408.9466L14390.3107,-4408.8932L14390.3793,-4408.8402L14390.4907,-4408.68L14390.5807,-4408.6067L14391.2399,-4408.3534L14391.5405,-4408.2066L14391.6504,-4408.1734L14391.8594,-4408.1532L14392.0593,-4408.1932L14392.2394,-4408.1932L14392.4698,-4408.1532L14392.6102,-4408.0799L14392.7902,-4407.9933L14392.9001,-4407.9533L14393.2007,-4407.9533L14393.4296,-4407.9735L14393.4906,-4407.9735L14393.9301,-4408.0666L14394.2001,-4408.1532L14394.4504,-4408.1734"/>
<path content="AP030,1,28,1,0,14,1,8,JPN" xlink:title="AP030" d="M14353.1097,-4407.1667L14353.2394,-4407.3799L14353.3295,-4407.5932L14353.36,-4407.6332L14353.36,-4407.7732L14353.3295,-4407.9201L14353.2394,-4408.2066L14353.2196,-4408.4801L14353.27,-4408.7334L14353.3997,-4409.0401L14353.36,-4409.1267L14353.1799,-4409.5932L14353.1494,-4409.7401L14353.1998,-4409.9731L14353.2394,-4410.1002L14353.3295,-4410.2798L14353.4897,-4410.5L14353.7399,-4410.68L14353.8605,-4410.7666L14354.2694,-4411.0401L14354.9301,-4411.4666L14355.04,-4411.6531L14355.3299,-4412.1201L14355.5206,-4412.4065L14356.0806,-4413.3469L14356.3095,-4413.7199L14356.6299,-4414.2265L14356.8802,-4414.64L14356.9,-4414.7331L14356.9,-4414.7667L14356.9702,-4414.8933L14357.1793,-4415.2L14357.4005,-4415.58L14357.6492,-4415.9733L14358.49,-4417.3801L14359.1293,-4418.3735L14359.2697,-4418.5867L14359.5398,-4419.0201L14359.9899,-4419.7933"/>
<path content="AP030,1,28,1,0,15,1,8,JPN" xlink:title="AP030" d="M14343.75,-4407.6268L14344.0308,-4407.4856L14346.4142,-4406.9946L14346.991,-4406.831L14347.7859,-4406.4495"/>
<path content="AP030,1,28,1,0,15,1,8,JPN" xlink:title="AP030" d="M14347.7859,-4406.4495L14348.3643,-4406.395L14348.7244,-4406.5582L14348.8693,-4407.1575L14349.3759,-4407.539L14350.676,-4407.811L14351.6144,-4407.8651L14352.0477,-4407.8106L14353.1097,-4407.1667"/>
<path content="AP030,1,28,1,0,14,1,8,JPN" xlink:title="AP030" d="M14352.2903,-4405.74L14352.4002,-4405.9532L14352.5803,-4406.2599L14352.7206,-4406.4999L14352.8107,-4406.6601L14353.1097,-4407.1667"/>
<path content="AP030,1,28,1,0,15,1,8,JPN" xlink:title="AP030" d="M14352.2903,-4405.74L14353.6041,-4405.0991L14355.8823,-4405.9868L14357.2968,-4406.8935L14357.6462,-4406.625L14358.7189,-4406.34L14359.6008,-4406.6849L14361.3266,-4406.4369L14361.9339,-4407.1011L14365.5151,-4409.5734L14365.1657,-4411.4586L14365.596,-4412.9608L14366.6718,-4414.3433L14367.6331,-4414.7903L14368.8599,-4415.58"/>
<path content="AP030,1,28,1,0,15,1,8,JPN" xlink:title="AP030" d="M14347.7859,-4406.4495L14348.6176,-4405.1567L14349.2569,-4404.882L14349.9893,-4405.1266L14350.8286,-4405.3501L14351.828,-4405.6168L14352.2903,-4405.74"/>
<path content="AP030,1,28,1,0,14,1,8,JPN" xlink:title="AP030" d="M14350.9903,-4402.5333L14351.2207,-4402.8732L14351.4496,-4403.2333L14351.5686,-4403.4332L14352.0203,-4404.1931L14352.1805,-4404.4399L14352.3102,-4404.7466L14352.3102,-4404.8401L14352.2705,-4404.9133L14352.15,-4405.1067L14352.1103,-4405.2532L14352.0599,-4405.3467L14352.0798,-4405.4134L14352.0798,-4405.4531L14352.2903,-4405.74"/>
<path content="AP030,1,28,1,0,15,1,8,JPN" xlink:title="AP030" d="M14377.623,-4401.7719L14380.0888,-4401.9073L14380.9906,-4402.0885L14381.7719,-4402.6329L14383.6365,-4403.1769L14386.2228,-4403.5843L14387.1841,-4404.0379L14388.0859,-4404.4003L14390.4922,-4404.8988L14392.8375,-4406.2592L14393.9804,-4407.1205L14394.4611,-4407.7553L14394.4504,-4408.1734"/>
<path content="AP030,1,28,1,0,15,1,8,JPN" xlink:title="AP030" d="M14377.623,-4401.7719L14376.3062,-4403.516L14375.2258,-4404.2389L14374.5148,-4404.9534L14374.3958,-4405.5996L14374.6582,-4406.451L14375.5966,-4407.4474L14376.1642,-4408.4522L14376.4694,-4409.1267"/>
<path content="AP030,1,28,1,0,14,1,8,JPN" xlink:title="AP030" d="M14423.2407,-4401.2531L14423.2697,-4401.2733L14423.3994,-4401.3065L14423.79,-4401.3599L14423.97,-4401.4133L14424.0799,-4401.4534L14424.3103,-4401.58L14424.6506,-4401.8333L14424.9298,-4401.9932L14425.1297,-4402.0466L14425.4303,-4402.0668L14425.47,-4402.1732L14425.6302,-4402.3201L14425.7706,-4402.4399L14425.9117,-4402.5061"/>
<path content="AP030,1,28,1,0,15,1,8,JPN" xlink:title="AP030" d="M14415.1794,-4401.2001L14416.5316,-4401.4715L14419.0604,-4402.6427L14420.0719,-4403.9337L14420.551,-4406.8218L14420.0119,-4407.6828L14420.0453,-4408.3391L14420.1651,-4409.2042L14420.4978,-4409.8031L14421.0168,-4410.1354L14422.7478,-4410.1257L14423.7869,-4410.0964L14424.5789,-4409.5913L14424.8459,-4409.0473L14424.8672,-4408.0814L14424.4949,-4406.6982L14424.8962,-4405.8823L14425.3204,-4405.4951L14425.5264,-4405.1674L14425.2686,-4404.5315L14425.1358,-4403.463L14425.9117,-4402.5061"/>
<path content="AP030,1,28,1,0,14,1,8,JPN" xlink:title="AP030" d="M14406.9504,-4411.7065L14407.3303,-4411.6867L14407.6294,-4411.7065L14407.7393,-4411.7199L14408.0399,-4411.7599L14408.2703,-4411.8999L14408.7204,-4412.2467L14408.9706,-4412.3531L14409.0195,-4412.3734L14409.2407,-4412.4268L14409.3307,-4412.4401L14409.5398,-4412.4599L14409.7,-4412.4268L14410.4706,-4411.94L14411.0199,-4411.6135L14411.7004,-4411.1668L14411.9003,-4411.0535L14412.0407,-4410.9669L14412.1796,-4410.9467L14412.3596,-4410.9467L14412.6495,-4410.9669L14412.8296,-4410.9467L14412.97,-4410.8398L14413.06,-4410.7132L14413.0798,-4410.5865L14413.0798,-4410.5L14413.06,-4410.2798L14412.9303,-4410.0266L14412.7396,-4409.8331L14412.6801,-4409.7401L14412.6495,-4409.6134L14412.6495,-4409.5268L14412.3306,-4409.4334L14411.9507,-4409.3468L14411.6501,-4409.2533L14411.5402,-4409.1999L14411.4502,-4409.1267L14411.3098,-4408.9668L14411.2,-4408.8734L14410.9894,-4408.7666L14410.9695,-4408.7467L14410.9497,-4408.7132L14411.0397,-4408.2466L14411.0397,-4408.0132L14411.0397,-4407.9735L14411.0397,-4407.8468L14411.0199,-4407.5932L14410.8597,-4407.3269L14410.7193,-4407.1667L14410.6995,-4407.04L14410.6293,-4406.8001L14410.5392,-4406.62L14410.4004,-4406.4602L14410.3806,-4406.3732L14410.4004,-4406.1932L14410.3806,-4406.1001L14410.3607,-4406.0268L14410.3104,-4405.9532L14410.2905,-4405.8868L14410.2905,-4405.7934L14410.3302,-4405.5599L14410.3302,-4405.3799L14410.3104,-4405.1998L14410.1501,-4404.9133L14409.9503,-4404.5868L14409.8602,-4404.3732L14409.79,-4404.1931L14409.7,-4403.8132L14409.5398,-4403.3268L14409.4498,-4403.0533L14409.4498,-4402.84L14409.5596,-4402.5333L14409.7702,-4402.1198L14409.8801,-4401.9531L14410.2203,-4401.7933L14410.5194,-4401.6666L14410.7895,-4401.4668L14411.2,-4401.2199L14411.4304,-4401.1467L14411.4899,-4401.1269L14411.9507,-4401.0532L14412.4893,-4401.0201L14412.5595,-4401.0201L14413.1302,-4400.9869L14413.6993,-4400.9998L14414.5798,-4401.1066L14414.7705,-4401.1467L14415.1794,-4401.2001"/>
<path content="AP030,1,28,1,0,14,1,8,JPN" xlink:title="AP030" d="M14343.75,-4400.918L14344.1101,-4400.8598L14344.6793,-4400.7999L14344.8807,-4400.8202L14344.9905,-4400.8732L14345.0806,-4400.9468L14345.1996,-4401.1467L14345.2896,-4401.2733L14345.61,-4401.58L14345.7001,-4401.6533L14345.8603,-4401.7067L14346.3303,-4401.7933L14347.1298,-4401.9199L14347.3801,-4401.9733L14347.7005,-4402.0267L14347.8104,-4402.0668L14348.1995,-4402.2598L14348.3093,-4402.28L14348.5397,-4402.2598L14348.6496,-4402.2598L14348.8602,-4402.2598L14349.1104,-4402.3201L14349.8093,-4402.5131L14350.0595,-4402.5665L14350.2396,-4402.5665L14350.4898,-4402.5131L14350.5402,-4402.5131L14350.8606,-4402.5131L14350.9903,-4402.5333"/>
<path content="AP030,1,28,1,0,14,1,8,JPN" xlink:title="AP030" d="M14350.9903,-4402.5333L14351.1307,-4402.5131L14351.1993,-4402.4601L14351.3107,-4402.2266L14351.4893,-4401.8665L14351.68,-4401.6666L14351.8799,-4401.5598L14351.9897,-4401.4866L14352.0599,-4401.4133L14352.0798,-4401.4L14352.15,-4401.3065L14352.2903,-4401.2199L14352.4307,-4401.0735L14352.5406,-4400.8934L14352.6993,-4400.7668L14352.9907,-4400.5867L14353.1799,-4400.4601L14353.2196,-4400.3868"/>
<path content="AP030,1,28,1,0,14,1,8,JPN" xlink:title="AP030" d="M14415.1794,-4401.2001L14415.5396,-4401.2199L14415.8295,-4401.1799L14416.1499,-4401.1467L14416.2704,-4401.1269L14416.5405,-4401.0933L14416.6504,-4401.0399L14416.7206,-4400.9666L14416.8304,-4400.7668L14416.9296,-4400.5867L14417.0807,-4400.3201L14417.1494,-4400.2266"/>
<path content="AP030,1,28,1,0,14,1,8,JPN" xlink:title="AP030" d="M14417.1494,-4400.2266L14417.2699,-4400.1198L14417.3294,-4400.0797L14417.3798,-4400.0465L14417.5201,-4399.9931L14417.6498,-4399.9931L14417.8299,-4400.0134L14418.0405,-4400.0999L14418.2205,-4400.2068L14418.4006,-4400.3201L14418.6493,-4400.4601L14418.8095,-4400.6599L14418.9896,-4400.84L14419.1101,-4400.8598L14419.3298,-4400.8598L14419.6106,-4400.84L14419.9005,-4400.8732L14420.3094,-4400.9468L14420.5399,-4400.9869L14420.7703,-4400.9666L14420.9503,-4400.9468L14421.1807,-4400.8732L14421.2906,-4400.8732L14421.4294,-4400.8934L14421.5805,-4401.0735L14421.6507,-4401.2001L14421.6797,-4401.2333L14421.7896,-4401.3268L14421.8994,-4401.3599L14422.11,-4401.3466L14422.3099,-4401.2867L14422.5204,-4401.2333L14422.7905,-4401.2199L14423.2407,-4401.2531"/>
<path content="AP030,1,28,1,0,15,1,8,JPN" xlink:title="AP030" d="M14370.3293,-4398.513L14370.7672,-4398.9613L14373.053,-4399.5506L14375.0366,-4400.2304L14375.6989,-4400.956L14376.8417,-4401.5453L14377.2629,-4401.7719L14377.623,-4401.7719"/>
<path content="AP030,1,28,1,0,14,1,8,JPN" xlink:title="AP030" d="M14427.4704,-4402.0466L14427.9297,-4402.0802L14428.27,-4401.9733L14428.4302,-4401.8867L14428.4698,-4401.8333L14428.45,-4401.7735L14428.3096,-4401.6869L14428.1937,-4401.6266L14428.1769,-4401.4828L14428.1799,-4401.4L14428.1296,-4401.3065L14428.1494,-4401.1799L14428.1219,-4401.0265L14428.2654,-4400.8747L14428.3096,-4400.8202L14428.4088,-4400.6985L14428.6255,-4400.4986L14428.6682,-4400.4559L14428.7857,-4400.3384L14428.8406,-4400.2827L14428.8666,-4400.2617L14428.9459,-4400.1945L14429.2496,-4399.9306L14429.4418,-4399.7227L14429.6738,-4399.5384L14429.7699,-4399.4507L14429.8416,-4399.3305L14429.8294,-4399.1798L14429.7897,-4399.0932L14429.6997,-4398.9666L14429.6799,-4398.8197L14429.6494,-4398.7667L14429.7394,-4398.5531L14429.8996,-4398.32L14430.2002,-4398.1331L14430.2704,-4398.0999L14430.3802,-4398.0267L14431.0593,-4397.6532L14431.6101,-4397.3598L14431.72,-4397.3064L14431.7703,-4397.1664L14431.7703,-4397.0505L14431.7703,-4396.9997L14431.81,-4396.9131L14431.8802,-4396.8597L14432.0206,-4396.7865L14432.4493,-4396.64"/>
<path content="AP030,1,28,1,0,14,1,8,JPN" xlink:title="AP030" d="M14353.2196,-4400.3868L14353.3798,-4400.3201L14353.421,-4400.2758L14353.7201,-4399.9733L14353.7399,-4399.9001L14353.7399,-4399.8665L14353.7903,-4399.7398L14353.83,-4399.6864L14353.8803,-4399.5934L14353.9001,-4399.4865L14353.9307,-4399.3797L14353.9505,-4399.3267L14353.9703,-4399.2733L14353.9703,-4399.2001L14353.9505,-4399.073L14353.9307,-4398.9998L14353.9307,-4398.9132L14353.9703,-4398.8598L14354.0405,-4398.8197L14354.0802,-4398.7999L14354.2404,-4398.7465L14354.3304,-4398.7133L14354.3793,-4398.6599L14354.4296,-4398.5867L14354.5197,-4398.4066L14354.6097,-4398.2067L14354.7195,-4398.0267L14354.7897,-4397.9401L14354.8996,-4397.8466L14354.95,-4397.8333L14355.0201,-4397.813L14355.1102,-4397.8333L14355.2002,-4397.8466L14355.5603,-4397.953L14355.7205,-4398.0267L14355.7693,-4398.0801L14355.7907,-4398.1331L14355.7907,-4398.1934L14355.7907,-4398.2468L14355.8105,-4398.28L14355.8304,-4398.2998L14355.9296,-4398.3532L14356.0593,-4398.46L14356.1493,-4398.5001L14356.2897,-4398.5001L14356.4896,-4398.46L14356.6299,-4398.4398L14356.7902,-4398.4398L14357.2205,-4398.5332L14357.5394,-4398.6065L14357.6996,-4398.6065L14357.7896,-4398.5867L14357.93,-4398.5332L14357.9895,-4398.5001L14358.0399,-4398.46L14358.11,-4398.46L14358.2001,-4398.5001L14358.2901,-4398.5531L14358.4,-4398.6198L14358.4305,-4398.6401L14358.49,-4398.6599L14358.5205,-4398.6599L14358.5602,-4398.6198L14358.58,-4398.5664L14358.58,-4398.513L14358.58,-4398.4798L14358.6304,-4398.4398L14358.6807,-4398.4264L14358.7906,-4398.3868L14358.8806,-4398.373L14358.9493,-4398.3532L14359.1797,-4398.373L14359.3094,-4398.4264L14359.4299,-4398.5001L14359.4498,-4398.5531L14359.4299,-4398.5867L14359.3597,-4398.6401L14359.3307,-4398.6797L14359.3307,-4398.7133L14359.3597,-4398.7331L14359.3994,-4398.7465L14359.4696,-4398.7465L14359.5398,-4398.7331L14359.61,-4398.6931L14359.7198,-4398.6065L14359.8602,-4398.513L14359.8801,-4398.5001L14359.9701,-4398.4398L14360.0403,-4398.3868L14360.0601,-4398.3334L14360.0601,-4398.28L14360.0204,-4398.1934L14359.9503,-4398.0667L14359.8999,-4397.9733L14359.8999,-4397.9198L14359.8999,-4397.8466L14359.8999,-4397.7734L14359.9503,-4397.6868L14359.9899,-4397.6334L14360.1105,-4397.58L14360.2402,-4397.5266L14360.4507,-4397.4667L14360.6094,-4397.3999L14360.7407,-4397.3267L14360.9299,-4397.2733L14361.1298,-4397.253L14361.6501,-4397.253L14361.9293,-4397.2332L14362.1506,-4397.2198L14362.3306,-4397.2L14362.3993,-4397.1798L14362.5793,-4397.1268L14362.7899,-4397.0531L14362.97,-4396.9997L14363.15,-4396.9868L14363.4293,-4396.9467L14363.6307,-4396.8731L14363.6505,-4396.8731L14364.0198,-4396.7331L14364.8102,-4396.3867L14365.0208,-4396.32"/>
<path content="AP030,1,28,1,0,14,1,8,JPN" xlink:title="AP030" d="M14365.0208,-4396.32L14365.4694,-4396.1933L14365.5396,-4396.1731L14366.3605,-4395.94L14366.4902,-4396.0266L14366.7007,-4396.1731L14367.0395,-4396.4397L14367.2394,-4396.6064L14367.2897,-4396.64L14367.3996,-4396.7331L14367.5201,-4396.8201L14367.6102,-4396.9265L14367.72,-4397.0932L14367.8101,-4397.253L14367.9306,-4397.3598L14367.9504,-4397.3801L14368.0206,-4397.4533L14368.0801,-4397.5067L14368.1503,-4397.5399L14368.4494,-4397.6532L14368.8293,-4397.8466L14369.22,-4398.0133L14370.3293,-4398.513"/>
<path content="AP030,1,28,1,0,14,1,8,JPN" xlink:title="AP030" d="M14370.3293,-4398.513L14370.3995,-4398.4398L14370.7001,-4398.0667L14370.9503,-4397.7734L14371.0602,-4397.6334L14371.4493,-4397.2L14371.5805,-4397.0398L14371.7194,-4396.8597L14371.7697,-4396.7865L14371.7697,-4396.7133L14371.7407,-4396.5866L14371.6797,-4396.3531L14371.6095,-4396.2067L14371.5805,-4396.1201L14371.5805,-4396.0999L14371.6293,-4396.0133L14371.8307,-4395.7733L14371.8796,-4395.7199L14372.6105,-4395.6532L14372.7005,-4395.6867L14372.7905,-4395.8134L14372.9294,-4396.0667L14372.9904,-4396.1731L14373.0606,-4396.2265L14373.1293,-4396.2601L14373.1796,-4396.2799L14373.1995,-4396.2997L14373.2697,-4396.3333L14373.3093,-4396.3867L14373.3093,-4396.4798L14373.3307,-4396.5134L14373.3597,-4396.553L14373.3994,-4396.5668L14373.4695,-4396.5866L14373.5794,-4396.6064L14373.6496,-4396.64L14373.7,-4396.6801L14373.7701,-4396.7331L14373.8297,-4396.7865L14373.88,-4396.7865L14373.9502,-4396.7667L14373.97,-4396.7667L14373.9899,-4396.7865L14374.0204,-4396.8201L14374.0601,-4396.9131L14374.1104,-4396.9868L14374.1501,-4397.02L14374.2004,-4397.02L14374.2401,-4396.9997L14374.2706,-4396.9666L14374.2905,-4396.8933L14374.2706,-4396.8201L14374.2203,-4396.7464L14374.2004,-4396.6801L14374.2004,-4396.64L14374.2203,-4396.6064L14374.2401,-4396.5866L14374.2706,-4396.553L14374.2706,-4396.46L14374.2706,-4396.4397L14374.2905,-4396.3867L14374.3607,-4396.3531L14374.4904,-4396.32L14374.5804,-4396.2997L14374.7406,-4396.2997L14374.8306,-4396.2997"/>
<path content="AP030,1,28,1,0,14,1,4,JPN" xlink:title="AP030" d="M14374.8306,-4396.2997L14374.9298,-4396.2799L14375.0397,-4396.2467L14375.1495,-4396.1933L14375.2701,-4396.0999L14375.3998,-4395.9732L14375.5402,-4395.8332L14375.6302,-4395.7199L14375.7706,-4395.5601L14375.9003,-4395.433L14376.0406,-4395.3266L14376.1307,-4395.2866"/>
<path content="AP030,1,28,1,0,15,1,8,JPN" xlink:title="AP030" d="M14412.1201,-4394.8181L14413.06,-4395.7573L14414.5035,-4396.3612L14415.1611,-4397.5765L14415.9027,-4398.9498L14417.1494,-4400.2266"/>
<path content="AP030,1,28,1,0,15,1,8,JPN" xlink:title="AP030" d="M14429.6677,-4392.4789L14431.4697,-4394.6678L14432.4493,-4396.64"/>
<path content="AP030,1,28,1,0,14,1,8,JPN" xlink:title="AP030" d="M14418.7698,-4391.8331L14418.9697,-4391.9933L14419.0399,-4392.1532L14419.0598,-4392.1932L14419.31,-4392.86L14419.3298,-4392.9131L14419.4901,-4393.2732L14419.5801,-4393.5265L14419.6503,-4393.6665L14419.7693,-4393.9533L14419.8303,-4394.0998L14419.9493,-4394.3001L14420.1492,-4394.4798L14420.4498,-4394.64L14421.2708,-4395.0397L14421.3303,-4395.0733L14421.4905,-4395.1668L14421.6095,-4395.2198L14421.7407,-4395.3598L14421.8094,-4395.5399L14421.8307,-4395.7066L14421.8307,-4395.7199L14421.8094,-4395.9068L14421.7697,-4396.2601L14421.7194,-4396.4798L14421.6797,-4396.6599L14421.6797,-4396.8597L14421.7407,-4397.0932L14421.8307,-4397.3999L14421.8597,-4397.5266L14421.8094,-4397.58L14421.7407,-4397.6665L14421.7194,-4397.7932L14421.7407,-4398.0465L14421.8094,-4398.1533L14421.8994,-4398.2468L14422.0596,-4398.3868L14422.11,-4398.46L14422.11,-4398.5531L14422.0795,-4398.6797L14422.02,-4398.8598L14421.9696,-4399.0532L14422.02,-4399.1264L14422.0795,-4399.2001L14422.2702,-4399.3065L14422.3801,-4399.3797L14422.3999,-4399.4331L14422.3999,-4399.5068L14422.4304,-4399.7066L14422.3999,-4399.9733L14422.4503,-4400.0797L14422.6105,-4400.2266L14422.8104,-4400.3201L14423.0392,-4400.4066L14423.1094,-4400.4601L14423.1506,-4400.5001L14423.2407,-4400.6599L14423.2407,-4401.0399L14423.2193,-4401.2333L14423.2407,-4401.2531"/>
<path content="AP030,1,28,1,0,15,1,8,JPN" xlink:title="AP030" d="M14425.6042,-4391.6531L14425.2472,-4393.272L14425.9369,-4393.6813L14425.0595,-4393.9209L14424.1257,-4394.4836L14424.5361,-4395.2225L14423.1522,-4395.6909L14424.3576,-4397.3724L14425.0504,-4397.8352L14425.5386,-4398.6256L14426.004,-4400.3281L14427.2202,-4401.7544L14427.4704,-4402.0466"/>
<path content="AP030,1,28,1,0,15,1,8,JPN" xlink:title="AP030" d="M14428.8834,-4391.4734L14429.6677,-4392.4789"/>
<path content="AP030,1,28,1,0,15,1,8,JPN" xlink:title="AP030" d="M14425.6042,-4391.6531L14425.9232,-4392.0731L14428.8834,-4391.4734"/>
<path content="AP030,1,28,1,0,14,1,8,JPN" xlink:title="AP030" d="M14417.6102,-4391.5264L14418.1793,-4391.3998L14418.3105,-4391.3597L14418.3594,-4391.3799L14418.4296,-4391.4532L14418.4692,-4391.5264L14418.5394,-4391.6531L14418.7698,-4391.8331"/>
<path content="AP030,1,28,1,0,14,1,8,JPN" xlink:title="AP030" d="M14353.6102,-4391.3067L14353.6301,-4391.4131L14353.6804,-4391.5066L14353.7201,-4391.56L14353.83,-4391.6134L14353.8605,-4391.6531L14353.8101,-4391.7732L14353.7903,-4391.8133L14353.7201,-4391.9201L14353.6804,-4391.9933L14353.5599,-4392.1333L14353.3798,-4392.3531L14353.2196,-4392.5133L14353.1097,-4392.6201L14353.0197,-4392.6933L14352.8595,-4392.8398L14352.7206,-4392.9268L14352.6093,-4393.0401L14352.5604,-4393.0931L14352.5208,-4393.1465L14352.4902,-4393.1999L14352.4902,-4393.2533L14352.4902,-4393.3266L14352.4902,-4393.3468L14352.4704,-4393.4132L14352.4002,-4393.5265L14352.2202,-4393.6333L14352.1103,-4393.6665L14352.0203,-4393.7199L14351.9699,-4393.7599L14351.9302,-4393.8133L14351.8799,-4393.8999L14351.8799,-4393.9934L14351.8799,-4394.0468L14351.8799,-4394.08L14351.8997,-4394.2265L14351.9897,-4394.5332L14352.1805,-4394.9131L14352.3102,-4395.2L14352.33,-4395.2534L14352.3605,-4395.2866L14352.3804,-4395.3068L14352.4902,-4395.3598L14352.6306,-4395.4533L14352.6794,-4395.5067L14352.7695,-4395.6532L14352.8107,-4395.7199L14352.9694,-4395.9732L14353.0807,-4396.1731L14353.1799,-4396.32L14353.3295,-4396.553L14353.3798,-4396.6064L14353.3997,-4396.7133L14353.3997,-4396.8201L14353.3798,-4396.8731L14353.3096,-4396.9666L14353.2196,-4397.0734L14353.1296,-4397.1664L14353.0807,-4397.2332L14353.0594,-4397.3465L14353.0594,-4397.4667L14353.1296,-4397.6665L14353.2394,-4397.9733L14353.3997,-4398.3532L14353.5202,-4398.6797L14353.54,-4398.7865L14353.54,-4398.8934L14353.54,-4398.9265L14353.4698,-4399.1066L14353.4302,-4399.3065L14353.3997,-4399.4331L14353.3997,-4399.633L14353.36,-4399.9199L14353.3295,-4400.1198L14353.3096,-4400.2068L14353.2898,-4400.3201L14353.2196,-4400.3868"/>
<path content="AP030,1,28,1,0,14,1,8,JPN" xlink:title="AP030" d="M14447.8302,-4391.2533L14448.6298,-4391.2865L14449.3103,-4391.3265L14450.7401,-4391.3799L14451.3306,-4391.4131L14452.1301,-4391.4532"/>
<path content="AP030,1,28,1,0,14,1,8,JPN" xlink:title="AP030" d="M14432.4493,-4396.64L14432.7393,-4396.5866L14433.1299,-4396.5134L14433.3298,-4396.4397L14434.3796,-4396.0999L14435.2203,-4395.8332L14435.4706,-4395.7397L14435.5194,-4395.7199L14435.6796,-4395.6333L14435.8994,-4395.4533L14436.0397,-4395.4132L14436.38,-4395.38L14436.8805,-4395.3068L14437.0804,-4395.2534L14437.8998,-4395.0001L14438.8992,-4394.6934L14439.74,-4394.4798L14441.04,-4394.173L14441.4703,-4394.0468L14441.9296,-4393.94L14442.4301,-4393.8667L14442.9306,-4393.7931L14443.8599,-4393.5398L14444.4702,-4393.3468L14444.7403,-4393.2732L14444.8593,-4393.2533L14445.0195,-4393.2533L14445.1996,-4393.2533L14445.43,-4393.1999L14445.5597,-4393.1465L14445.6497,-4393.0931L14445.6802,-4392.9867L14445.6802,-4392.9131L14445.7397,-4391.9399L14445.7901,-4391.4131L14445.8099,-4391.2865L14445.8298,-4391.2533L14445.8603,-4391.1999L14445.99,-4391.1999L14446.1105,-4391.1999L14446.4493,-4391.1999L14447.8302,-4391.2533"/>
<path content="AP030,1,28,1,0,14,1,8,JPN" xlink:title="AP030" d="M14468.2205,-4390.1733L14469.0796,-4390.2065L14469.7693,-4390.2599L14470.2194,-4390.2798L14471.2006,-4390.3198L14472.3297,-4390.3732L14472.7005,-4390.3866L14473.5199,-4390.4266L14473.7701,-4390.44L14474.4904,-4390.4598L14475.1801,-4390.4999L14475.5203,-4390.5132L14475.8301,-4390.5331L14476.4496,-4390.5533L14476.9897,-4390.5666L14477.2202,-4390.5865L14477.24,-4390.6067L14477.33,-4390.6799L14477.9694,-4391.18L14478.5202,-4391.5932L14478.54,-4391.6664L14478.5202,-4392.0799L14478.4897,-4392.3866L14478.4698,-4392.6399L14478.5202,-4392.6933L14478.6102,-4392.7467L14479.0207,-4392.86L14479.3106,-4392.9665L14479.4296,-4392.9867L14479.6494,-4392.9867L14479.7394,-4393L14479.8294,-4393.0931L14479.9301,-4393.2198L14479.9896,-4393.3266L14480.22,-4393.6131L14480.4306,-4393.8133L14480.5206,-4393.8866L14480.6305,-4393.9198L14480.9692,-4393.94L14481.0593,-4393.9533L14481.1295,-4394.0132L14481.1798,-4394.08L14481.2393,-4394.12L14481.3599,-4394.1334L14481.5598,-4394.1334L14481.7398,-4394.173L14481.9,-4394.2467L14482.5607,-4394.5866L14482.9895,-4394.7998L14483.1497,-4394.8601L14483.3298,-4394.8933L14483.4702,-4394.9265L14483.6304,-4395.0199L14483.6502,-4395.0397L14483.8104,-4395.1668L14483.8806,-4395.3068L14483.9294,-4395.5933L14483.9905,-4395.9534L14483.9905,-4396.1533L14484.0607,-4396.2601L14484.2697,-4396.4268L14484.375,-4396.5281"/>
<path content="AP030,1,28,1,0,15,1,8,JPN" xlink:title="AP030" d="M14467.1494,-4390.1531L14468.2205,-4390.1733"/>
<path content="AP030,1,28,1,0,14,1,8,JPN" xlink:title="AP030" d="M14467.1494,-4390.1531L14467.9901,-4390.1733L14468.2205,-4390.1733"/>
<path content="AP030,1,28,1,0,15,1,8,JPN" xlink:title="AP030" d="M14343.75,-4393.0191L14343.8126,-4392.9512L14343.8553,-4392.6735L14343.8431,-4392.3576L14343.7805,-4392.1612L14344.3298,-4392.2287L14344.6594,-4392.2611L14344.4275,-4391.9498L14344.1971,-4391.6779L14344.2947,-4391.3597L14344.7815,-4391.2304L14345.3033,-4390.6261L14345.9473,-4390.3355L14347.8607,-4390.3339L14348.2986,-4390.3244L14348.8358,-4390.115L14349.939,-4390.3282L14353.6102,-4391.3067"/>
<path content="AP030,1,28,1,0,14,1,8,JPN" xlink:title="AP030" d="M14466.1301,-4390.0997L14466.5604,-4390.1199L14466.9037,-4390.1394L14467.1494,-4390.1531"/>
<path content="AP030,1,28,1,0,15,1,8,JPN" xlink:title="AP030" d="M14466.1301,-4390.0997L14465.7654,-4391.1961L14465.7135,-4391.3502L14466.4612,-4391.4333L14466.7068,-4390.9771L14466.9525,-4390.5186L14467.1494,-4390.1531"/>
<path content="AP030,1,28,1,0,15,1,8,JPN" xlink:title="AP030" d="M14418.7698,-4391.8331L14419.5526,-4390.8592L14420.4437,-4390.8878L14421.2448,-4390.5972L14422.3267,-4390.0303L14422.9095,-4389.8529L14424.2889,-4390.6719L14425.6042,-4391.6531"/>
<path content="AP030,1,28,1,0,15,1,8,JPN" xlink:title="AP030" d="M14390.1306,-4389.8331L14391.0889,-4391.2003L14391.4505,-4392.8783L14391.6306,-4393.8309L14392.5339,-4395.237L14393.6768,-4396.8243L14394.8792,-4398.7289L14395.3613,-4399.5453L14395.9015,-4399.9989L14396.8048,-4400.5882L14397.406,-4401.0418L14397.7066,-4401.722L14397.8867,-4402.2209L14398.5489,-4402.5383L14399.8123,-4402.8557L14400,-4402.9659L14400.3525,-4403.1731L14401.2558,-4404.1706L14402.5177,-4405.2135L14403.421,-4406.2565L14403.421,-4407.1182L14403.5416,-4407.5718L14403.6621,-4408.1161L14404.8645,-4408.9779L14405.5862,-4409.93L14406.9504,-4411.7065"/>
<path content="AP030,1,28,1,0,14,1,8,JPN" xlink:title="AP030" d="M14376.1307,-4395.2866L14376.2695,-4395.2198L14376.5594,-4395.1466L14376.9501,-4395.0397L14377.0798,-4395.0001L14377.24,-4394.9467L14377.4902,-4394.8601L14377.7405,-4394.7468L14377.9694,-4394.68L14378.1296,-4394.64L14378.2394,-4394.6198L14378.3295,-4394.5866L14378.3997,-4394.5332L14378.45,-4394.4798L14378.5202,-4394.3733L14378.6102,-4394.2467L14378.7003,-4394.1532L14378.7399,-4394.12L14378.8605,-4394.0468L14378.9307,-4394.0132L14378.9902,-4394.0132L14379.1306,-4394.0468L14379.2404,-4394.0666L14379.5197,-4394.0666L14379.7195,-4394.0468L14379.8096,-4394.0266L14379.9301,-4393.9533L14380.0201,-4393.8866L14380.1102,-4393.8332L14380.2902,-4393.7599L14380.4306,-4393.6665L14380.4901,-4393.5932L14380.5603,-4393.4868L14380.6305,-4393.3266L14380.7007,-4393.1801L14380.8105,-4393.0531L14380.9692,-4392.9131L14381.1493,-4392.7132L14381.2393,-4392.5865L14381.3095,-4392.4267L14381.4301,-4392.2264L14381.6498,-4391.9933L14381.7398,-4391.9201L14382.0404,-4391.7065L14382.1106,-4391.6664L14382.2906,-4391.6531L14382.5607,-4391.6134L14382.8598,-4391.56L14383.0795,-4391.4867L14383.4305,-4391.2731L14383.6304,-4391.1266L14383.7402,-4391.0732L14383.9005,-4391.04L14384.0607,-4391.0198L14384.3094,-4391.0198L14384.5795,-4391.04L14384.8099,-4391.04L14384.9304,-4391.04L14384.9701,-4391.04L14385.1105,-4391L14385.2707,-4390.9267L14385.3104,-4390.913L14385.4904,-4390.8199L14385.7895,-4390.7333L14385.8093,-4390.7333L14386.1801,-4390.6597L14386.29,-4390.6597L14386.47,-4390.6399L14386.8607,-4390.6799L14387.1994,-4390.7131L14387.5198,-4390.7467L14387.6297,-4390.7467L14387.6495,-4390.7467L14387.7899,-4390.7467L14388.2904,-4390.6799L14388.5605,-4390.6399L14388.7207,-4390.6067L14388.8306,-4390.5666L14389.0793,-4390.4266L14389.3295,-4390.2798L14389.8804,-4389.9532L14390.0208,-4389.8865L14390.1306,-4389.8331"/>
<path content="AP030,1,28,1,0,14,1,8,JPN" xlink:title="AP030" d="M14452.1301,-4391.4532L14452.2705,-4391.4532L14452.6993,-4391.4867L14452.8793,-4391.4867L14453.0594,-4391.4665L14453.2196,-4391.3799L14453.45,-4391.1999L14453.5797,-4391.1064L14453.7201,-4391.0931L14454.1107,-4391.1064L14454.2892,-4391.1064L14454.4495,-4391.0931L14454.9301,-4390.913L14455.2902,-4390.7665L14455.5206,-4390.6799L14456.0394,-4390.4999L14456.3995,-4390.3732L14456.6101,-4390.3L14456.7398,-4390.2466L14457.0206,-4390.0265L14457.2906,-4389.8998L14457.5195,-4389.793L14459.2896,-4389.8464L14460.1105,-4389.8865L14460.5392,-4389.8865L14461.2701,-4389.92L14461.47,-4389.92L14462.6999,-4389.9731L14462.8799,-4389.9731L14463.9694,-4390.0131L14464.4699,-4390.0265L14464.6805,-4390.0467L14466.1301,-4390.0997"/>
<path content="AP030,1,28,1,0,15,1,8,JPN" xlink:title="AP030" d="M14389.3097,-4388.9732L14389.6088,-4389.3341L14390.1306,-4389.8331"/>
<path content="AP030,1,28,1,0,14,1,8,JPN" xlink:title="AP030" d="M14466.2704,-4388.0665L14466.2903,-4388.0798L14466.2704,-4388.4598L14466.2201,-4388.7333L14466.1301,-4390.0997"/>
<path content="AP030,1,28,1,0,15,1,8,JPN" xlink:title="AP030" d="M14401.9302,-4387.5599L14402.832,-4388.7409L14403.241,-4389.481L14403.508,-4390.3854L14404.3594,-4391.0599L14404.9271,-4392.0097L14406.5979,-4392.7692L14407.3166,-4393.7687L14408.6731,-4394.1612L14409.2789,-4394.413L14409.7046,-4394.0258L14410.0723,-4393.9625L14411.116,-4394.0411L14412.1201,-4394.8181"/>
<path content="AP030,1,28,1,0,14,1,8,JPN" xlink:title="AP030" d="M14401.0406,-4387.7197L14401.1505,-4387.6534L14401.4496,-4387.5931L14401.7899,-4387.5797L14401.9302,-4387.5599"/>
<path content="AP030,1,28,1,0,14,1,8,JPN" xlink:title="AP030" d="M14461.5402,-4386.9267L14462.1307,-4386.9465L14462.9501,-4386.9465L14463.5406,-4387.2868L14463.6307,-4387.3798L14463.8596,-4387.6534L14464.0793,-4387.9398L14464.1296,-4387.973L14464.8102,-4388.0131L14465.6296,-4388.0466L14466.1499,-4388.0665L14466.2704,-4388.0665"/>
<path content="AP030,1,28,1,0,15,1,8,JPN" xlink:title="AP030" d="M14452.1301,-4391.4532L14452.5803,-4386.5532"/>
<path content="AP030,1,28,1,0,14,1,8,JPN" xlink:title="AP030" d="M14452.6794,-4386.5532L14453.9703,-4386.5868L14454.0604,-4386.5868L14455.2704,-4386.6398L14455.3802,-4386.6398L14456.1295,-4386.6932L14456.9305,-4386.7332L14457.4005,-4386.7466L14457.7896,-4386.7664L14458.0399,-4386.7664L14459.3094,-4386.8198L14459.5398,-4386.8401L14459.9701,-4386.8599L14460.2005,-4386.8732L14460.8795,-4386.8931L14461.5402,-4386.9267"/>
<path content="AP030,1,28,1,0,14,1,8,JPN" xlink:title="AP030" d="M14452.5803,-4386.5532L14452.6794,-4386.5532"/>
<path content="AP030,1,28,1,0,14,1,8,JPN" xlink:title="AP030" d="M14394.9295,-4386.4265L14394.9493,-4386.5334L14394.9905,-4386.7332L14395.0607,-4386.8401L14395.1096,-4386.9267L14395.1294,-4387.0197L14395.1797,-4387.1799L14395.1996,-4387.36L14395.1996,-4387.5065L14395.1996,-4387.5599L14395.1996,-4387.7197L14395.1797,-4387.9532L14395.1294,-4388.1531L14395.1294,-4388.2065L14395.1797,-4388.2797L14395.3293,-4388.4266L14395.4895,-4388.5532L14395.61,-4388.6066L14395.7703,-4388.66L14395.99,-4388.7131L14396.3303,-4388.7466L14396.7407,-4388.7333L14396.8796,-4388.7333L14397.11,-4388.7333L14397.5204,-4388.7131L14397.7402,-4388.6932L14397.8607,-4388.6932L14398.0392,-4388.6932L14398.3307,-4388.7466L14398.5794,-4388.8L14398.7,-4388.8199L14398.8297,-4388.8599L14399.0799,-4388.8931L14399.3103,-4388.8931L14399.4507,-4388.8733L14399.6796,-4388.7867L14399.8093,-4388.7131L14400,-4388.6482L14400.1801,-4388.5864L14400.3296,-4388.4998L14400.4501,-4388.4399L14400.5203,-4388.3865L14400.5402,-4388.3198L14400.5402,-4388.2267L14400.56,-4388.1733L14400.6104,-4388.1001L14400.8301,-4387.8468L14401.0406,-4387.7197"/>
<path content="AP030,1,28,1,0,14,1,8,JPN" xlink:title="AP030" d="M14390.1306,-4389.8331L14390.3305,-4389.7064L14390.4495,-4389.6667L14390.6494,-4389.5931L14390.7196,-4389.5798L14390.7898,-4389.5397L14390.86,-4389.5065L14390.8798,-4389.4531L14390.8997,-4389.2731L14390.8798,-4388.7665L14390.8997,-4388.6932L14391.0599,-4388.6066L14391.33,-4388.4266L14391.4703,-4388.3331L14391.5207,-4388.2797L14392.0197,-4387.7197L14392.1097,-4387.6133L14392.1997,-4387.5267L14392.2394,-4387.4866L14392.2897,-4387.4332L14392.3294,-4387.4001L14392.3798,-4387.36L14392.45,-4387.3466L14392.5797,-4387.3264L14392.9306,-4387.3264L14393.1107,-4387.3066L14393.2907,-4387.2532L14393.5806,-4387.1067L14393.7393,-4387.0399L14394.1803,-4386.8L14394.2703,-4386.7664L14394.6304,-4386.6066L14394.9295,-4386.4265"/>
<path content="AP030,1,28,1,0,14,1,8,JPN" xlink:title="AP030" d="M14446.7697,-4386.2465L14446.8307,-4386.2801L14447.0795,-4386.4799L14447.3999,-4386.66L14447.9004,-4386.9267L14448.1796,-4387.1265L14448.2193,-4387.2334L14448.3093,-4387.5931L14448.4299,-4388.0466L14448.4695,-4388.3198L14448.4695,-4388.3331L14448.4497,-4388.533L14448.3597,-4388.9999L14448.2895,-4389.1998L14448.1995,-4389.36L14448.1293,-4389.4867L14448.0194,-4389.7064L14447.9507,-4390.2798L14447.9507,-4390.353L14447.8302,-4391.2533"/>
<path content="AP030,1,28,1,0,14,1,8,JPN" xlink:title="AP030" d="M14446.7697,-4386.2465L14446.9299,-4386.2465L14446.9696,-4386.2465L14447.5601,-4386.2598L14447.7905,-4386.2801L14448.6298,-4386.3331L14448.9304,-4386.3533L14449.6307,-4386.3865L14449.8093,-4386.4067L14450.9705,-4386.4597L14451.1505,-4386.4799L14452.5803,-4386.5532"/>
<path content="AP030,1,28,1,0,14,1,8,JPN" xlink:title="AP030" d="M14445.7397,-4386.1931L14446.08,-4386.2064L14446.7697,-4386.2465"/>
<path content="AP030,1,28,1,0,15,1,8,JPN" xlink:title="AP030" d="M14429.6677,-4392.4789L14430.13,-4391.684L14431.955,-4391.1488L14432.9681,-4392.0307L14433.4686,-4391.6943L14434.7931,-4391.4948L14435.6476,-4390.8798L14436.0367,-4391.19L14439.3036,-4389.9673L14440.1505,-4389.1914L14443.4219,-4388.0749L14443.9026,-4387.4168L14445.7397,-4386.1931"/>
<path content="AP030,1,28,1,0,14,1,8,JPN" xlink:title="AP030" d="M14401.9302,-4387.5599L14402.24,-4387.5599L14402.4506,-4387.5065L14402.6306,-4387.4001L14402.9297,-4387.22L14403.3096,-4387.1067L14403.3997,-4387.1067L14403.6301,-4387.1067L14403.7903,-4387.1468L14404.0604,-4387.2868L14404.4693,-4387.5065L14404.6494,-4387.5401L14404.8798,-4387.5401L14405.1102,-4387.5065L14405.3604,-4387.5401L14405.7007,-4387.6133L14405.8105,-4387.7068L14405.9692,-4387.7731L14406.0593,-4387.7731L14406.1798,-4387.7731L14406.3293,-4387.6865L14406.4301,-4387.5065L14406.4896,-4387.3798L14406.5598,-4387.22L14406.6101,-4387.1468L14406.8802,-4387.0399L14407.1106,-4386.8732L14407.3105,-4386.6798L14407.4707,-4386.5131L14407.6492,-4386.4067L14407.7896,-4386.3197L14408.1802,-4385.8997L14408.4,-4385.6667"/>
<path content="AP030,1,28,1,0,15,1,8,JPN" xlink:title="AP030" d="M14410.3439,-4385.3264L14411.8454,-4388.1229L14412.3657,-4392.3985L14411.8057,-4393.0573L14412.3032,-4394.0624L14412.1201,-4394.8181"/>
<path content="AP030,1,28,1,0,14,1,8,JPN" xlink:title="AP030" d="M14408.4,-4385.6667L14408.5114,-4385.5907L14409.3318,-4385.3252L14409.8038,-4385.2554L14410.3439,-4385.3264"/>
<path content="AP030,1,28,1,0,14,1,8,JPN" xlink:title="AP030" d="M14417.6102,-4391.5264L14417.3096,-4391.5932L14417.0395,-4391.4665L14416.9495,-4391.4333L14416.8594,-4391.4333L14416.716,-4391.4906L14416.3605,-4391.6332L14416.1102,-4391.6664L14415.9897,-4391.6531L14415.86,-4391.5932L14415.77,-4391.4867L14415.5396,-4391.1266L14415.2206,-4390.6399L14415.0208,-4390.3L14414.9902,-4390.2065L14414.9704,-4390.0665L14414.9307,-4389.9532L14414.7903,-4389.7198L14414.4501,-4389.1666L14414.2395,-4388.8199L14414.0396,-4388.4998L14413.9694,-4388.3732L14413.8992,-4388.2465L14413.6795,-4387.8468L14413.6307,-4387.7399L14413.6307,-4387.5267L14413.5406,-4387.3264L14413.3804,-4387.1468L14413.2401,-4387.0197L14413.1104,-4386.9133L14413.0203,-4386.7664L14412.8296,-4386.4597L14412.4496,-4385.8665L14412.2696,-4385.5801L14411.8607,-4384.8732"/>
<path content="AP030,1,28,1,0,14,1,8,JPN" xlink:title="AP030" d="M14410.3439,-4385.3264L14411.4362,-4384.9952L14411.8607,-4384.8732"/>
<path content="AP030,1,28,1,0,14,1,8,JPN" xlink:title="AP030" d="M14411.8607,-4384.8732L14412.3217,-4384.7668L14412.7864,-4384.7414L14413.1372,-4384.7668L14413.6896,-4384.9191L14414.0403,-4385.1539L14414.25,-4385.413L14414.5,-4385.656L14414.73,-4386.016L14414.86,-4386.448L14415.09,-4386.984L14415.34,-4387.258L14415.97,-4387.677"/>
<path content="AP030,1,28,1,0,14,1,8,JPN" xlink:title="AP030" d="M14429.2892,-4384.4799L14429.6799,-4384.5665L14429.8798,-4384.6199L14430.22,-4384.7134L14430.4001,-4384.7466L14430.4901,-4384.7866L14430.5603,-4384.84L14430.7007,-4384.9266L14430.8304,-4385.1265L14430.8807,-4385.1665L14430.9296,-4385.2333L14431.0394,-4385.2734L14431.1493,-4385.2734L14431.2195,-4385.2531L14431.3293,-4385.0933L14431.4499,-4384.9865L14431.5399,-4384.893L14431.6498,-4384.8598L14431.7703,-4384.84L14431.8298,-4384.8L14431.9305,-4384.7466L14431.9901,-4384.6931L14432.0801,-4384.6798L14432.1793,-4384.66L14432.2693,-4384.6798L14432.3593,-4384.7668L14432.4295,-4384.8L14432.5195,-4384.8198L14432.6096,-4384.8198L14432.7698,-4384.7668L14432.9498,-4384.7466L14433.0399,-4384.7332L14433.11,-4384.7668L14433.1802,-4384.8198L14433.2001,-4384.8598L14433.2001,-4384.9266L14433.1802,-4385.0201L14433.1497,-4385.22L14433.1497,-4385.3466L14433.2397,-4385.5064L14433.3298,-4385.6133L14433.4305,-4385.7067L14433.5602,-4385.7597L14433.7204,-4385.7731L14433.8104,-4385.7933L14433.8806,-4385.7933L14434.0805,-4385.7597L14434.2407,-4385.7201L14434.4498,-4385.6331L14434.6497,-4385.5267L14434.8099,-4385.453L14434.8999,-4385.3466L14434.9899,-4385.1997L14435.1105,-4385.0933L14435.2905,-4385.0201L14435.4507,-4384.9998L14435.5804,-4384.9865L14435.8307,-4385.0201L14436.1099,-4385.0399L14436.47,-4385.0533L14436.7004,-4385.0533L14436.8805,-4385.0731L14436.9904,-4385.0933L14437.0407,-4385.1067L14437.0804,-4385.1665L14437.1307,-4385.2531L14437.1994,-4385.36L14437.2894,-4385.453L14437.4496,-4385.5801L14437.8296,-4385.8868L14437.9303,-4385.9734L14437.97,-4386.0268L14437.97,-4386.1L14438.0203,-4386.2267L14438.06,-4386.3533L14438.1302,-4386.4399L14438.1805,-4386.5334L14438.2401,-4386.6199L14438.2904,-4386.6932L14438.3301,-4386.7332L14438.4003,-4386.7466L14438.5193,-4386.7466L14438.6307,-4386.7466L14438.6993,-4386.7332L14438.7894,-4386.6932L14438.8107,-4386.6066L14438.8306,-4386.5131L14438.8596,-4386.4399L14438.8306,-4386.3865L14438.7894,-4386.3331L14438.7894,-4386.2801L14438.8306,-4386.2064L14438.9297,-4386.1732L14439.0198,-4386.1732L14439.1098,-4386.153L14439.2197,-4386.1198L14439.3097,-4386.0798L14439.4501,-4386.0664L14439.4897,-4386.0664L14439.6103,-4386.0466L14439.74,-4386.0664L14439.9704,-4386.1L14440.1306,-4386.1L14440.2405,-4386.1L14440.3595,-4386.1198L14440.4495,-4386.1931L14440.5594,-4386.4265L14440.6998,-4386.6199L14440.77,-4386.6932L14440.8798,-4386.713L14440.9897,-4386.713L14441.3101,-4386.6398L14441.3605,-4386.6199L14441.6794,-4386.5532L14441.8106,-4386.5334L14441.9006,-4386.5334L14441.9693,-4386.5532L14442.1097,-4386.6199L14442.2699,-4386.6798L14442.3096,-4386.6932L14442.3996,-4386.6798L14442.5201,-4386.6066L14442.72,-4386.4998L14442.8802,-4386.4265L14442.9504,-4386.3865L14443.0405,-4386.3865L14443.1107,-4386.3865L14443.2404,-4386.4265L14443.4296,-4386.4597L14443.6096,-4386.4998L14443.7393,-4386.4998L14443.9499,-4386.4399L14444.0598,-4386.4067L14444.2902,-4386.2465L14444.4,-4386.1732L14444.4901,-4386.1332L14444.6304,-4386.1198L14444.6793,-4386.1198L14445.0607,-4386.153L14445.2896,-4386.1732L14445.6497,-4386.1931L14445.7397,-4386.1931"/>
<path content="AP030,1,28,1,0,15,1,8,JPN" xlink:title="AP030" d="M14429.2892,-4384.4799L14427.8656,-4387.3322L14427.8656,-4388.6929L14428.8834,-4390.4675L14428.8834,-4391.4734"/>
<path content="AP030,1,28,1,0,15,1,8,JPN" xlink:title="AP030" d="M14410.0204,-4384.333L14410.3718,-4384.5775L14410.1922,-4385.0485L14410.3439,-4385.3264"/>
<path content="AP030,1,28,1,0,14,1,8,JPN" xlink:title="AP030" d="M14408.4,-4385.6667L14408.4778,-4385.5919L14408.6807,-4385.4L14408.7906,-4385.2867L14408.9706,-4385.1997L14409.1301,-4385.1665L14409.3796,-4385.1067L14409.5545,-4385.0239L14409.8297,-4384.5665L14409.8999,-4384.4799L14410.0204,-4384.333"/>
<path content="AP030,1,28,1,0,14,1,8,JPN" xlink:title="AP030" d="M14392.6804,-4383.8665L14393.0603,-4384.28L14393.2007,-4384.4067L14393.4296,-4384.66L14393.8599,-4385.0933L14393.8995,-4385.1467L14394.2398,-4385.5064L14394.3604,-4385.6331L14394.6304,-4385.8997L14394.6503,-4385.9398L14394.7906,-4386.0466L14394.8303,-4386.1198L14394.8807,-4386.2465L14394.9005,-4386.3533L14394.9295,-4386.4265"/>
<path content="AP030,1,28,1,0,15,1,8,JPN" xlink:title="AP030" d="M14459.4727,-4383.6803L14459.9152,-4385.2283L14461.3617,-4385.9848L14461.3785,-4386.0771L14461.5402,-4386.9267"/>
<path content="AP030,1,28,1,0,14,1,8,JPN" xlink:title="AP030" d="M14410.0204,-4384.333L14410.4294,-4383.8333L14410.4904,-4383.7067L14410.5194,-4383.4332"/>
<path content="AP030,1,28,1,0,14,1,8,JPN" xlink:title="AP030" d="M14411.8607,-4384.8732L14411.8805,-4384.7332L14412.0193,-4384.4398L14412.1307,-4384.2464L14412.2696,-4383.9531L14412.3047,-4383.884L14412.4893,-4383.5068L14412.5397,-4383.3466L14412.5198,-4383.1799L14412.4893,-4383.0532L14412.4695,-4383.0399"/>
<path content="AP030,1,28,1,0,14,1,8,JPN" xlink:title="AP030" d="M14410.5194,-4383.4332L14410.9497,-4383.3065L14411.5402,-4383.1264L14411.7706,-4383.0532L14412.1796,-4382.9468L14412.3093,-4382.9468L14412.4298,-4383.02L14412.4695,-4383.0399"/>
<path content="AP030,1,28,1,0,15,1,8,JPN" xlink:title="AP030" d="M14394.8227,-4382.6771L14392.9016,-4383.7433L14392.6804,-4383.8665"/>
<path content="AP030,1,28,1,0,15,1,8,JPN" xlink:title="AP030" d="M14466.2704,-4388.0665L14466.2079,-4387.5793L14466.0507,-4386.3419L14465.6097,-4385.8074L14465.8966,-4384.7847L14466.2537,-4383.9291L14466.9968,-4383.6941L14467.5125,-4382.5798"/>
<path content="AP030,1,28,1,0,14,1,8,JPN" xlink:title="AP030" d="M14410.4294,-4382.4066L14410.5392,-4382.6065L14410.5194,-4382.9132L14410.5194,-4383.0532L14410.5194,-4383.1665L14410.5194,-4383.4332"/>
<path content="AP030,1,28,1,0,14,1,8,JPN" xlink:title="AP030" d="M14422.0596,-4382.3334L14422.2397,-4382.5535L14422.3099,-4382.6065L14422.3801,-4382.6401L14422.5403,-4382.7133L14422.7905,-4382.7999L14422.9004,-4382.8197L14423.0606,-4382.8598L14423.1506,-4382.9132L14423.2193,-4383.1066L14423.3307,-4383.3267L14423.3795,-4383.4133L14423.4497,-4383.4667L14423.5199,-4383.4667L14423.7396,-4383.4667L14423.88,-4383.4534L14423.9304,-4383.4534L14424.0204,-4383.4667L14424.2004,-4383.5068L14424.3301,-4383.58L14424.5407,-4383.6864L14424.7696,-4383.8467L14424.8993,-4383.9531L14425.0198,-4384.0267L14425.1495,-4384.1331L14425.3998,-4384.2464L14425.4898,-4384.2598L14425.8102,-4384.333L14426.2405,-4384.3731L14426.2695,-4384.3731L14426.6495,-4384.333L14426.8997,-4384.3201L14427.1301,-4384.2598L14427.6306,-4384.1732L14427.6794,-4384.1534L14428.0197,-4384.0466L14428.1097,-4384.0267L14428.1799,-4384.0267L14428.2394,-4384.0668L14428.3798,-4384.1331L14428.45,-4384.1732L14428.6102,-4384.28L14428.8605,-4384.3731L14429.0207,-4384.4067L14429.2892,-4384.4799"/>
<path content="AP030,1,28,1,0,15,1,8,JPN" xlink:title="AP030" d="M14417.6102,-4391.5264L14418.9911,-4390.0703L14419.3954,-4387.9143L14420.3201,-4387.1914L14420.1996,-4386.3369L14421.1121,-4384.0057L14421.5393,-4383.672L14422.0596,-4382.3334"/>
<path content="AP030,1,28,1,0,15,1,8,JPN" xlink:title="AP030" d="M14407.785,-4382.2014L14408.3191,-4383.0177L14410.0204,-4384.333"/>
<path content="AP030,1,28,1,0,14,1,8,JPN" xlink:title="AP030" d="M14468.2205,-4390.1733L14468.3594,-4390.1199L14469.7906,-4389.1998L14470.3293,-4388.8599L14472.4503,-4388.9465L14473.4299,-4388.9866L14473.6099,-4388.9866L14473.9502,-4388.4399L14474.1104,-4388.2065L14474.2706,-4388.0264L14474.4507,-4387.8132L14474.6994,-4387.5599L14474.7696,-4387.4866L14474.9695,-4387.273L14475.1297,-4386.9865L14475.1801,-4386.9133L14475.56,-4386.5131L14476.7395,-4385.6331L14476.9897,-4385.4866L14477.0798,-4385.2333L14477.2903,-4385.0933L14477.9907,-4384.66L14478.4302,-4384.4601L14478.8803,-4384.2068L14478.9703,-4384.1534L14479.0207,-4384.0797L14478.9902,-4383.9531L14479.0405,-4383.8467L14479.2007,-4383.58L14479.1794,-4383.4667L14478.9703,-4383.1264L14478.9307,-4383.0399L14478.9307,-4382.9865L14478.9505,-4382.9266L14479.1504,-4382.5665L14479.2206,-4382.3734L14479.2206,-4382.2998L14479.1794,-4382.1335L14479.1107,-4381.9733L14479.0802,-4381.9401"/>
<path content="AP030,1,28,1,0,14,1,8,JPN" xlink:title="AP030" d="M14412.4695,-4383.0399L14412.6099,-4382.9998L14412.6999,-4382.9666L14412.7899,-4382.9266L14412.8799,-4382.9132L14413.0203,-4382.9132L14413.2706,-4382.9132L14413.5803,-4382.8732L14413.9496,-4382.8598L14414.27,-4382.8197L14414.4699,-4382.7999L14414.6103,-4382.7667L14414.74,-4382.7133L14414.83,-4382.6599L14414.8605,-4382.6599L14414.9506,-4382.6065L14415.0208,-4382.5535L14415.0406,-4382.46L14415.1093,-4382.3868L14415.1993,-4382.2998L14415.4007,-4382.2266L14415.4694,-4382.1934L14415.6799,-4382.1198L14415.9698,-4382.0465L14416.2903,-4381.9534L14416.6107,-4381.8867L14416.9693,-4381.8333L14417.2195,-4381.7734L14417.3294,-4381.7734L14417.45,-4381.8134L14417.7399,-4381.9534L14417.9901,-4382.0667L14418.2907,-4382.1934L14418.4692,-4382.2468L14418.6295,-4382.2998L14418.6996,-4382.32L14418.7698,-4382.3334L14418.9301,-4382.3734L14419.0796,-4382.4066L14419.22,-4382.4066L14419.3802,-4382.4066L14419.5206,-4382.4066L14419.7006,-4382.3334L14420.1492,-4382.1335L14420.5597,-4381.9733L14420.61,-4381.9733L14420.6802,-4381.9534L14420.8298,-4381.9534L14421.0403,-4381.9534L14421.3303,-4381.9401L14421.4905,-4381.9401L14421.7407,-4382.0267L14421.8597,-4382.0999L14422.0596,-4382.3334"/>
<path content="AP030,1,28,1,0,15,1,8,JPN" xlink:title="AP030" d="M14394.8227,-4382.6771L14397.5769,-4381.4796L14397.551,-4380.9441L14397.8882,-4380.2917L14398.5535,-4380.2746L14399.4598,-4380.6259L14400,-4380.8357L14400.3662,-4380.9776L14403.7445,-4383.3549L14406.1386,-4382.3792L14407.785,-4382.2014"/>
<path content="AP030,1,28,1,0,14,1,8,JPN" xlink:title="AP030" d="M14389.1998,-4380.1533L14389.2197,-4380.2067L14389.36,-4380.3333L14389.5203,-4380.4798L14389.7003,-4380.6801L14389.8605,-4380.8598L14390.0208,-4381.0734L14390.0604,-4381.1066L14390.1093,-4381.1466L14390.3107,-4381.3801L14390.5807,-4381.6666L14390.6799,-4381.76L14391.0797,-4382.1934L14391.1804,-4382.28L14391.5207,-4382.6401L14391.6504,-4382.7866L14391.9296,-4383.0532L14392.2394,-4383.4L14392.3096,-4383.4667L14392.6804,-4383.8665"/>
<path content="AP030,1,28,1,0,15,1,8,JPN" xlink:title="AP030" d="M14389.3097,-4388.9732L14389.3692,-4388.7024L14389.9078,-4388.4319L14390.1474,-4387.981L14389.6683,-4387.3489L14388.5925,-4386.311L14387.4557,-4385.4534L14387.3962,-4384.7767L14387.6358,-4384.0096L14387.3962,-4383.5133L14387.8754,-4382.6565L14389.1693,-4380.2113L14389.1998,-4380.1533"/>
<path content="AP030,1,28,1,0,15,1,8,JPN" xlink:title="AP030" d="M14389.1998,-4380.1533L14389.4928,-4380.1422L14390.2542,-4380.1132L14390.7761,-4380.2071L14391.2186,-4380.1422"/>
<path content="AP030,1,28,1,0,15,1,8,JPN" xlink:title="AP030" d="M14467.5125,-4382.5798L14469.9005,-4382.5451L14470.7367,-4382.8556L14473.0316,-4383.2031L14473.1216,-4383.7067L14473.3566,-4383.741L14473.8342,-4382.9655L14474.6292,-4382.6439L14475.2747,-4381.7783L14476.3016,-4381.4068L14476.2726,-4380.9437L14477.2751,-4380.1926L14478.0258,-4380.0835L14478.1082,-4381.3896L14479.0802,-4381.9401"/>
<path content="AP030,1,28,1,0,15,1,8,JPN" xlink:title="AP030" d="M14391.2186,-4380.1422L14391.5848,-4380.0793L14392.6834,-4381.3381L14393.5043,-4381.4777L14394.8227,-4382.6771"/>
<path content="AP030,1,28,1,0,14,1,8,JPN" xlink:title="AP030" d="M14387.8601,-4380.0266L14388.2202,-4380.0465L14388.5406,-4380.0667L14388.7695,-4380.08L14389.0594,-4380.0999L14389.1998,-4380.1533"/>
<path content="AP030,1,28,1,0,15,1,8,JPN" xlink:title="AP030" d="M14375.9903,-4379.9534L14375.4944,-4381.1222L14375.7233,-4382.8861L14375.5249,-4383.427L14375.1755,-4383.8646L14376.1566,-4384.2697L14377.0203,-4385.3214L14383.2169,-4386.2953L14385.2661,-4387.3169L14389.3097,-4388.9732"/>
<path content="AP030,1,28,1,0,14,1,8,JPN" xlink:title="AP030" d="M14375.9903,-4379.9534L14376.4496,-4380.08L14376.6296,-4380.1334L14376.7197,-4380.1533L14376.8997,-4380.1933L14377.2202,-4380.2067L14377.8595,-4380.2467L14377.9694,-4380.2601L14378.0807,-4380.2265L14378.1097,-4380.2265L14378.2013,-4380.2032L14378.2394,-4380.1933L14378.3295,-4380.1334L14378.4302,-4380.1201L14378.4897,-4380.1201L14378.5599,-4380.1201L14378.6499,-4380.1334L14378.7903,-4380.1731L14378.9902,-4380.2467L14379.1504,-4380.2799L14379.4495,-4380.32L14379.9301,-4380.3734L14380.6305,-4380.4268L14380.7404,-4380.4268L14381.2393,-4380.46L14381.3599,-4380.46L14381.3995,-4380.46L14381.5598,-4380.4268L14381.7703,-4380.3867L14382.5394,-4380.1731L14382.9895,-4380.0465L14383.2397,-4379.9732L14383.7204,-4379.8332L14383.7708,-4379.8134L14383.9706,-4379.7932L14384.1293,-4379.7932L14384.3796,-4379.8134L14384.5596,-4379.8332L14385.1501,-4379.8664L14385.7895,-4379.9L14386.4304,-4379.94L14386.6302,-4379.94L14387.1307,-4379.9732L14387.4496,-4379.9934L14387.8601,-4380.0266"/>
<path content="AP030,1,28,1,0,14,1,8,JPN" xlink:title="AP030" d="M14373.4894,-4379.76L14373.9304,-4379.76L14374.4293,-4379.7398L14374.7164,-4379.758L14374.9695,-4379.7932L14375.3799,-4379.8664L14375.7202,-4379.9198L14375.9903,-4379.9534"/>
<path content="AP030,1,28,1,0,15,1,8,JPN" xlink:title="AP030" d="M14459.4727,-4383.6803L14459.7626,-4379.7871L14462.9227,-4379.9828L14463.3667,-4379.6307L14464.6362,-4379.4212L14465.8585,-4379.3823L14466.6779,-4379.4403L14467.8696,-4379.8664L14468.7408,-4380.7671L14468.8202,-4381.1024L14468.2663,-4381.5845L14467.5125,-4382.5798"/>
<path content="AP030,1,28,1,0,15,1,8,JPN" xlink:title="AP030" d="M14453.4149,-4378.8879L14455.2139,-4380.7316L14459.4727,-4383.6803"/>
<path content="AP030,1,28,1,0,15,1,8,JPN" xlink:title="AP030" d="M14452.6794,-4386.5532L14452.5803,-4385.4996L14452.7084,-4382.7091L14453.0563,-4380.7144L14453.2791,-4380.5386L14452.6672,-4380.0507L14453.3493,-4378.9909L14453.4149,-4378.8879"/>
<path content="AP030,1,28,1,0,14,1,8,JPN" xlink:title="AP030" d="M14363.5193,-4378.4397L14363.6307,-4378.4798L14363.8992,-4378.6198L14364.18,-4378.7666L14364.4699,-4378.9265L14364.5203,-4378.9562L14364.6301,-4379.0199L14364.7003,-4379.0531L14364.7903,-4379.0733L14365.0208,-4379.0733L14365.5807,-4379.0531L14365.86,-4379.0531L14366.2003,-4379.0733L14366.8106,-4379.1267L14367.72,-4379.1798L14368.6996,-4379.2732L14369.0201,-4379.2866L14369.0796,-4379.2866L14369.4901,-4379.3064L14370.2393,-4379.3465L14370.8603,-4379.3999L14371.1807,-4379.4132L14371.4005,-4379.4334L14371.6507,-4379.4666L14372.0795,-4379.5399L14372.5403,-4379.6333L14372.9904,-4379.7066L14373.2407,-4379.7398L14373.4894,-4379.76"/>
<path content="AP030,1,28,1,0,15,1,8,JPN" xlink:title="AP030" d="M14365.0208,-4396.32L14364.9704,-4395.2328L14364.5508,-4394.4206L14363.8336,-4393.4731L14363.5345,-4392.9314L14363.5345,-4392.345L14363.7146,-4390.6757L14363.4155,-4389.1415L14363.1165,-4388.2843L14362.8769,-4387.4722L14362.9364,-4386.9759L14363.475,-4386.1641L14364.6103,-4385.0819L14364.8499,-4384.4501L14364.8499,-4384.0443L14364.4318,-4383.0967L14363.295,-4381.2466L14362.9959,-4379.7123L14363.3774,-4378.7868L14363.5193,-4378.4397"/>
<path content="AP030,1,28,1,0,14,1,8,JPN" xlink:title="AP030" d="M14353.6102,-4391.3067L14353.5599,-4391.1667L14353.2394,-4390.5132L14352.9495,-4389.9532L14352.7893,-4389.6866L14352.7206,-4389.5267L14352.6794,-4389.3799L14352.6093,-4389.22L14352.4902,-4388.9668L14352.33,-4388.7333L14352.2202,-4388.5666L14352.1103,-4388.3533L14352.0203,-4388.2065L14351.9302,-4388.1199L14351.77,-4387.973L14351.68,-4387.8666L14351.6296,-4387.6865L14351.6098,-4387.5931L14351.5198,-4387.4664L14351.3992,-4387.36L14351.3596,-4387.1998L14351.3596,-4387.0197L14351.3306,-4386.8401L14351.2695,-4386.6798L14351.2207,-4386.5131L14351.1505,-4386.3331L14351.1307,-4386.1931L14351.0193,-4386.0466L14350.9903,-4385.9932L14350.9506,-4385.8997L14350.8606,-4385.7067L14350.7904,-4385.5064L14350.7904,-4385.3798L14350.8102,-4385.2734L14350.8606,-4385.1467L14350.9293,-4384.9998L14350.9705,-4384.84L14350.9705,-4384.7332L14350.9293,-4384.6199L14350.9293,-4384.5131L14350.9506,-4384.4067L14350.9903,-4384.28L14351.0605,-4384.1732L14351.1307,-4384.0267L14351.1307,-4383.9733L14351.0803,-4383.8665L14351.0803,-4383.8467L14351.0803,-4383.7933L14351.0803,-4383.72L14351.1093,-4383.6864L14351.1307,-4383.5934L14351.1307,-4383.4866L14351.1307,-4383.3797L14351.1795,-4383.2867L14351.2695,-4383.2001L14351.3794,-4383.0399L14351.4297,-4382.9266L14351.3992,-4382.6935L14351.3992,-4382.5333L14351.3794,-4382.3734L14351.3992,-4382.28L14351.5396,-4382.0999L14351.5793,-4382.0667L14351.6098,-4381.9935L14351.5793,-4381.9401L14351.5594,-4381.9L14351.4694,-4381.8134L14351.3596,-4381.76L14351.3306,-4381.72L14351.3306,-4381.6868L14351.3596,-4381.6666L14351.4297,-4381.6334L14351.5198,-4381.6132L14351.6098,-4381.6334L14351.7197,-4381.6666L14351.9699,-4381.72L14352.1103,-4381.7398L14352.24,-4381.72L14352.8595,-4381.6132L14353.1494,-4381.6132L14353.4302,-4381.6132L14353.7003,-4381.6334L14353.9703,-4381.6132L14354.2206,-4381.5598L14354.3106,-4381.5067L14354.3594,-4381.4667L14354.3793,-4381.4133L14354.4296,-4381.3801L14354.5395,-4381.3599L14354.6799,-4381.3599L14354.9896,-4381.3599L14355.22,-4381.3465L14355.4001,-4381.3065L14355.8304,-4381.2332L14355.9906,-4381.2199L14356.1096,-4381.1798L14356.2698,-4381.0734L14356.4301,-4380.9666L14356.4499,-4380.9467L14356.6803,-4380.7667L14356.81,-4380.6198L14356.8604,-4380.5668L14356.8802,-4380.5L14356.8802,-4380.4398L14356.9,-4380.3867L14356.9305,-4380.32L14357.0206,-4380.1933L14357.0404,-4380.1201L14357.0404,-4380.0465L14357.0404,-4380.0133L14357.0404,-4379.9934L14357.0206,-4379.8134L14357.0404,-4379.6665L14357.1106,-4379.5601L14357.2403,-4379.3999L14357.3105,-4379.3465L14357.5394,-4379.2332L14357.7698,-4379.1267L14357.8796,-4379.0733L14358.2001,-4378.9265L14358.4305,-4378.8399L14358.6807,-4378.7865L14358.9706,-4378.6598L14359.2194,-4378.5534L14359.3307,-4378.4397L14359.3994,-4378.3733L14359.5398,-4378.2265"/>
<path content="AP030,1,28,1,0,14,1,8,JPN" xlink:title="AP030" d="M14359.5398,-4378.2265L14359.7702,-4378.3199L14359.8801,-4378.3531L14359.9701,-4378.3733L14360.0204,-4378.3733L14360.1303,-4378.3531L14360.4507,-4378.2997L14360.8307,-4378.2467L14360.8597,-4378.2265L14361.1298,-4378.1734L14361.3602,-4378.12L14361.47,-4378.0998L14361.5601,-4378.08"/>
<path content="AP030,1,28,1,0,14,1,8,JPN" xlink:title="AP030" d="M14361.5601,-4378.08L14361.7905,-4378.08L14362.0804,-4378.0998L14362.2192,-4378.12L14362.4893,-4378.1532L14362.9303,-4378.2265L14363.2706,-4378.3199L14363.4506,-4378.3867L14363.5193,-4378.4397"/>
<path content="AP030,1,28,1,0,15,1,8,JPN" xlink:title="AP030" d="M14387.3962,-4377.6936L14387.4329,-4377.8767L14387.8601,-4380.0266"/>
<path content="AP030,1,28,1,0,15,1,8,JPN" xlink:title="AP030" d="M14405.3421,-4376.9314L14406.6315,-4380.4356L14407.785,-4382.2014"/>
<path content="AP030,1,28,1,0,15,1,8,JPN" xlink:title="AP030" d="M14391.2186,-4380.1422L14392.4759,-4378.6087L14392.0746,-4377.9755L14391.7953,-4376.8028L14391.983,-4376.1009L14395.6757,-4375.9525L14397.3557,-4375.5333L14397.6593,-4375.6863L14398.7839,-4375.9789L14400,-4375.8453L14401.3596,-4375.6966L14402.6123,-4375.61L14404.0512,-4376.2688L14405.3421,-4376.9314"/>
<path content="AP030,1,28,1,0,14,1,8,JPN" xlink:title="AP030" d="M14405.6107,-4374.9134L14405.7404,-4375.0401L14405.8807,-4375.0935L14405.9296,-4375.1064L14406.1096,-4375.1999L14406.3797,-4375.3468L14406.5399,-4375.4532L14406.6299,-4375.5398L14406.72,-4375.6535L14406.7703,-4375.8667L14406.7902,-4375.9731L14406.7703,-4376.2066L14406.8604,-4376.4065L14407.1106,-4376.9665L14407.4295,-4377.5932L14407.5394,-4377.8332L14407.7194,-4378.2066L14407.8995,-4378.5L14408.02,-4378.68L14408.1802,-4378.7998L14408.2703,-4378.8734L14408.4702,-4379.0733L14408.6105,-4379.2L14408.9905,-4379.5799L14409.1797,-4379.7398L14409.4498,-4380.0133L14409.52,-4380.1201L14409.5398,-4380.2467L14409.5795,-4380.4066L14409.61,-4380.5332L14409.7,-4380.64L14409.8099,-4380.7335L14409.9503,-4380.8201L14410.0403,-4380.8933L14410.0601,-4380.9998L14410.0403,-4381.3801L14410.0403,-4381.5067L14410.0403,-4381.6334L14410.0601,-4381.7932L14410.0601,-4381.8665L14410.08,-4381.9L14410.2707,-4382.1732L14410.4004,-4382.3868L14410.4294,-4382.4066"/>
<path content="AP030,1,28,1,0,15,1,8,JPN" xlink:title="AP030" d="M14405.3421,-4376.9314L14404.9896,-4375.8148L14404.9713,-4375.4398L14405.6107,-4374.9134"/>
<path content="AP030,1,28,1,0,14,1,8,JPN" xlink:title="AP030" d="M14343.75,-4373.659L14344.2001,-4373.7732L14345.1492,-4374.0467L14346.2402,-4374.3332L14346.4706,-4374.3866L14347.0596,-4374.5533L14348.3795,-4374.9134L14348.6801,-4374.9866L14349.0204,-4375.0732L14349.6994,-4375.2731L14349.9298,-4375.3468L14350.3098,-4375.4532L14350.9003,-4375.6134L14351.1795,-4375.6866L14351.4496,-4375.7599L14351.6098,-4375.7935L14351.7899,-4375.8331L14351.9699,-4375.8331L14352.15,-4375.8465L14352.2903,-4375.8865L14352.4902,-4375.9533L14352.9907,-4376.12L14353.5599,-4376.2798L14354.2007,-4376.4267L14354.3106,-4376.44L14354.7195,-4376.5331L14354.8294,-4376.5667L14354.9698,-4376.6399L14355.2704,-4376.7998L14355.4504,-4376.8932L14355.8594,-4377.1267L14356.0806,-4377.2331L14356.2393,-4377.2865L14356.4697,-4377.3067L14356.6803,-4377.3067L14356.8604,-4377.3266L14357.0206,-4377.3266L14357.1106,-4377.3464L14357.3303,-4377.4334L14357.9895,-4377.6665L14358.0399,-4377.6867L14359.1293,-4378.08L14359.5398,-4378.2265"/>
<path content="AP030,1,28,1,0,15,1,8,JPN" xlink:title="AP030" d="M14378.9714,-4373.1686L14379.8004,-4373.4943L14382.6126,-4374.2622L14383.6288,-4374.8043L14384.2865,-4375.9777L14384.6069,-4376.3294L14384.9442,-4376.6998L14386.0764,-4377.1584L14387.3962,-4377.6936"/>
<path content="AP030,1,28,1,0,14,1,8,JPN" xlink:title="AP030" d="M14479.0802,-4381.9401L14479.0604,-4381.8867L14479.0604,-4381.7932L14479.1306,-4381.7066L14479.3106,-4381.5067L14479.5807,-4381.2332L14479.7195,-4380.9132L14479.7195,-4380.6198L14479.6997,-4380.3333L14479.7195,-4380.2067L14479.7699,-4380.0133L14479.7699,-4379.9L14479.7394,-4379.8134L14479.6799,-4379.6665L14479.6097,-4379.5601L14479.6097,-4379.4533L14479.6494,-4379.2332L14479.7699,-4379.0199L14479.8599,-4378.8399L14479.9698,-4378.6598L14479.9896,-4378.5866L14479.9698,-4378.5332L14479.8996,-4378.4397L14479.8798,-4378.3333L14479.8798,-4378.1734L14479.8798,-4378.12L14479.8096,-4378.0464L14479.4907,-4377.7931L14479.4296,-4377.7199L14479.4296,-4377.6665L14479.4296,-4377.6333L14479.4693,-4377.6134L14479.5593,-4377.5932L14479.6494,-4377.5932L14479.6799,-4377.56L14479.6799,-4377.5265L14479.6799,-4377.4864L14479.6097,-4377.4334L14479.6097,-4377.3998L14479.6799,-4377.38L14479.8096,-4377.3464L14479.9301,-4377.3266L14479.9698,-4377.2732L14480.0201,-4377.2198L14479.9896,-4377.1267L14479.9698,-4377.0535L14479.8599,-4376.9466L14479.7394,-4376.8734L14479.6097,-4376.7998L14479.5807,-4376.7467L14479.5593,-4376.6933L14479.5197,-4376.6598L14479.4296,-4376.6399L14479.3304,-4376.6068L14479.3304,-4376.5533L14479.4495,-4376.4599L14479.8798,-4376.2466L14480.2002,-4376.1532L14480.3802,-4376.0998L14480.4504,-4376.0666L14480.5206,-4376.0468L14480.6793,-4375.8999L14481.2195,-4375.7198L14481.6803,-4375.5932L14481.8604,-4375.56L14481.9702,-4375.56L14482.0404,-4375.5932L14482.2403,-4375.8331L14482.3807,-4375.8999L14482.6492,-4375.9399L14483.0795,-4375.9399L14483.2001,-4375.8865L14483.58,-4375.6866L14484.0607,-4375.4665L14484.1507,-4375.4333L14484.375,-4375.3487"/>
<path content="AP030,1,28,1,0,15,1,8,JPN" xlink:title="AP030" d="M14373.3932,-4372.5494L14373.3444,-4372.9633L14372.8653,-4377.0565L14374.1455,-4377.562L14373.5703,-4379.4933L14373.4894,-4379.76"/>
<path content="AP030,1,28,1,0,15,1,8,JPN" xlink:title="AP030" d="M14373.3932,-4372.5494L14375.1968,-4371.8227L14375.795,-4371.8681L14376.8112,-4372.3198L14378.9714,-4373.1686"/>
<path content="AP030,1,28,1,0,14,1,8,JPN" xlink:title="AP030" d="M14402.4048,-4370.8244L14402.7405,-4371.0934L14402.6993,-4371.2532L14402.6306,-4371.4664L14402.6093,-4371.5065L14402.5208,-4371.6133L14402.2202,-4371.8334L14402.0798,-4371.9734L14402.1103,-4372.1001L14402.24,-4372.3L14402.33,-4372.3866L14402.5803,-4372.5132L14402.9007,-4372.7333L14403.0396,-4372.8397L14403.1799,-4373L14403.3096,-4373.1667L14403.4302,-4373.2533L14403.7399,-4373.4135L14404.3594,-4373.74L14404.7699,-4373.9933L14404.9301,-4374.0799L14405.0598,-4374.1734L14405.13,-4374.2268L14405.22,-4374.3L14405.3604,-4374.4801L14405.4306,-4374.6399L14405.5206,-4374.7868L14405.5405,-4374.8199L14405.6107,-4374.9134"/>
<path content="AP030,1,28,1,0,14,1,8,JPN" xlink:title="AP030" d="M14448.0392,-4370.6932L14448.0804,-4370.8401L14448.1995,-4371.0197L14448.2407,-4371.0732L14448.3093,-4371.1468L14448.4299,-4371.2734L14448.4894,-4371.36L14448.5397,-4371.4867L14448.5794,-4371.7598L14448.6298,-4371.9532L14448.79,-4372.2065L14448.8602,-4372.3866L14448.9304,-4372.7867L14448.9502,-4373.0934L14448.88,-4373.3067L14448.7701,-4373.5397L14448.7198,-4373.7198L14448.7198,-4374.0665L14448.8297,-4374.3534L14448.8602,-4374.4999L14448.9304,-4374.6201L14449.0204,-4374.8398L14449.0204,-4375.0198L14449.0601,-4375.1999L14449.1104,-4375.3067L14449.4293,-4375.7599L14449.5193,-4375.8667L14449.6307,-4375.9197L14449.8093,-4375.9731L14449.8795,-4376.0265L14449.8993,-4376.0468L14449.9496,-4376.0799L14450.0397,-4376.12L14450.0793,-4376.1932L14450.1099,-4376.2798L14450.1297,-4376.3733L14450.1297,-4376.4999L14450.1297,-4376.5865L14450.0793,-4376.7132L14450.0793,-4376.86L14450.1801,-4377.2198L14450.3098,-4377.6531L14450.3296,-4377.7397L14450.3799,-4377.8465L14450.5203,-4378.0132L14450.5798,-4378.1532L14450.6104,-4378.2799L14450.56,-4378.4599L14450.4501,-4378.7334L14450.4303,-4378.7865L14450.3799,-4378.9665L14450.3799,-4379.0733L14450.2396,-4379.3598L14450.0397,-4379.7932L14449.8993,-4379.94L14449.7696,-4380.0266L14449.6307,-4380.08L14449.5605,-4380.1334L14449.5605,-4380.2799L14449.5605,-4380.3532L14449.5605,-4380.7133L14449.5407,-4380.9132L14449.4904,-4381.0532L14449.4507,-4381.0734L14449.3607,-4381.1466L14449.1501,-4381.2L14448.88,-4381.2534L14448.7198,-4381.2866L14448.3307,-4381.5067L14448.2697,-4381.5933L14448.2697,-4381.8134L14448.1995,-4382.0999L14448.1796,-4382.32L14448.1506,-4382.4398L14448.1094,-4382.6065L14448.0392,-4382.6935L14447.9706,-4382.7999L14447.9507,-4382.9132L14447.9706,-4383.0399L14448.0194,-4383.2199L14448.0392,-4383.3065L14447.9904,-4383.4667L14447.9004,-4383.58L14447.8302,-4383.6864L14447.6105,-4384.0466L14447.5403,-4384.2068L14447.3602,-4384.3533L14447.0398,-4384.5665L14446.8796,-4384.8L14446.6995,-4385.1067L14446.6293,-4385.2333L14446.5195,-4385.4134L14446.4493,-4385.5267L14446.4005,-4385.6133L14446.4005,-4385.7067L14446.3806,-4385.8467L14446.3806,-4385.8868L14446.3806,-4385.92L14446.4905,-4386.0268L14446.7697,-4386.2465"/>
<path content="AP030,1,28,1,0,15,1,8,JPN" xlink:title="AP030" d="M14360.4294,-4369.9932L14362.3978,-4370.9145L14363.7741,-4371.8624L14364.4913,-4372.1786L14367.0624,-4372.4957L14368.7973,-4372.9477L14369.5145,-4373.0385L14370.2332,-4372.9485L14371.4035,-4372.8004L14373.3932,-4372.5494"/>
<path content="AP030,1,28,1,0,14,1,8,JPN" xlink:title="AP030" d="M14360.4294,-4369.9932L14360.2905,-4370.0798L14360.2203,-4370.1935L14360.2005,-4370.2801L14360.2005,-4370.3533L14360.1303,-4370.5868L14360.08,-4370.6799L14360.08,-4370.6932L14360.08,-4370.7333L14360.08,-4370.7466L14360.1501,-4370.8L14360.2905,-4370.8599L14360.7407,-4371.0197L14360.9695,-4371.1067L14361.0199,-4371.1266L14361.0596,-4371.1666L14361.0794,-4371.2734L14361.0794,-4371.3066L14361.0794,-4371.36L14361.1099,-4371.4134L14361.1298,-4371.4333L14361.1496,-4371.4664L14361.1801,-4371.5267L14361.2,-4371.5797L14361.2,-4371.6331L14361.1801,-4371.74L14361.2,-4371.7934L14361.2701,-4371.8468L14361.3098,-4371.92L14361.3098,-4371.9532L14361.3297,-4372.0135L14361.3297,-4372.0264L14361.3297,-4372.1333L14361.2701,-4372.4068L14361.2396,-4372.6799L14361.2396,-4372.7467L14361.2396,-4372.8199L14361.2701,-4372.9267L14361.3297,-4373.0534L14361.3998,-4373.1266L14361.47,-4373.18L14361.5402,-4373.2334L14361.6501,-4373.3067L14361.7905,-4373.3601L14361.9507,-4373.3997L14362.2192,-4373.4867L14362.4298,-4373.5798L14362.5397,-4373.6332L14362.6495,-4373.6866L14362.7701,-4373.7598L14362.8098,-4373.8132L14362.8098,-4373.8865L14362.7899,-4373.9532L14362.6999,-4374.0665L14362.6801,-4374.0997L14362.3596,-4374.4064L14361.8607,-4374.8932L14361.6302,-4375.1465L14361.5601,-4375.2197L14361.5204,-4375.3067L14361.4899,-4375.3998L14361.47,-4375.5798L14361.4502,-4375.7198L14361.38,-4375.8865L14361.29,-4376.0265L14361.2198,-4376.1932L14361.2198,-4376.26L14361.2396,-4376.3199L14361.3098,-4376.44L14361.3998,-4376.5533L14361.5204,-4376.7132L14361.6104,-4376.82L14361.6501,-4376.9135L14361.7004,-4376.9867L14361.7203,-4377.0931L14361.7401,-4377.4132L14361.7905,-4377.5932L14361.7905,-4377.6665L14361.7401,-4377.7733L14361.6302,-4377.9198L14361.5799,-4377.9934L14361.5601,-4378.08"/>
<path content="AP030,1,28,1,0,15,1,8,JPN" xlink:title="AP030" d="M14387.3962,-4377.6936L14387.8143,-4376.5205L14388.1134,-4375.4379L14388.2339,-4374.8516L14388.2339,-4374.0395L14387.9944,-4373.1369L14388.1134,-4372.4152L14388.1744,-4371.558L14388.1744,-4370.9717L14388.2339,-4370.4304L14389.0701,-4370.2953L14390.506,-4370.6116L14392.0013,-4370.7928L14392.8986,-4370.6577L14394.812,-4370.1626L14395.9488,-4369.8925L14397.1436,-4370.2087L14398.938,-4371.1121L14399.7757,-4371.3829L14400,-4371.4111L14400.1343,-4371.4283L14402.3666,-4370.845L14402.4048,-4370.8244"/>
<path content="AP030,1,28,1,0,15,1,8,JPN" xlink:title="AP030" d="M14445.3796,-4367.9932L14447.3145,-4368.3945L14448.0988,-4368.8087L14448.2544,-4369.5778L14448.0392,-4370.6932"/>
<path content="AP030,1,28,1,0,14,1,8,JPN" xlink:title="AP030" d="M14445.3796,-4367.9932L14445.3293,-4368.2068L14445.3094,-4368.3865L14445.3598,-4368.4799L14445.3995,-4368.5135L14445.5399,-4368.5532L14445.6497,-4368.5867L14445.7397,-4368.66L14445.8298,-4368.66L14445.9503,-4368.6066L14446.0205,-4368.6398L14446.1304,-4368.7466L14446.2204,-4368.7866L14446.2906,-4368.7466L14446.3104,-4368.6932L14446.2906,-4368.5665L14446.3303,-4368.5532L14446.4294,-4368.5867L14446.5195,-4368.66L14446.6293,-4368.6798L14446.7407,-4368.6932L14446.7896,-4368.7466L14446.8094,-4368.9133L14446.8597,-4369.2333L14446.9299,-4369.2734L14447.0795,-4369.2734L14447.1802,-4369.3066L14447.2,-4369.4332L14447.2397,-4369.5065L14447.3297,-4369.6533L14447.5204,-4369.8467L14447.6105,-4369.9734L14447.6501,-4370.1733L14447.7005,-4370.2065L14447.8104,-4370.2599L14447.8806,-4370.3732L14447.9904,-4370.4597L14448.0392,-4370.6932"/>
<path content="AP030,1,28,1,0,14,1,8,JPN" xlink:title="AP030" d="M14357.5806,-4367.3798L14357.7194,-4367.4133L14357.8094,-4367.4534L14357.8995,-4367.4866L14357.9895,-4367.54L14358.0399,-4367.5598L14358.11,-4367.5934L14358.1497,-4367.6132L14358.2703,-4367.6666L14358.3298,-4367.72L14358.4503,-4367.8131L14358.49,-4367.8467L14358.6105,-4367.9398L14358.6502,-4367.9733L14358.7906,-4368.0668L14358.9706,-4368.1332L14359.1095,-4368.1732L14359.3796,-4368.2598L14359.61,-4368.3334L14359.6298,-4368.3334L14359.79,-4368.4265L14359.8801,-4368.4601L14359.9899,-4368.4998L14360.1303,-4368.5135L14360.2707,-4368.5532L14360.4004,-4368.5665L14360.4904,-4368.5867L14360.8093,-4368.66L14360.8994,-4368.6932L14360.9894,-4368.7668L14361.0596,-4368.8732L14361.1298,-4368.9999L14361.1496,-4369.0533L14361.2,-4369.1998L14361.2198,-4369.36L14361.2198,-4369.4134L14361.2198,-4369.5599L14361.2198,-4369.5801L14361.1801,-4369.6533L14361.1298,-4369.6865L14361.0199,-4369.7598L14360.7407,-4369.8467L14360.6796,-4369.8868L14360.4294,-4369.9932"/>
<path content="AP030,1,28,1,0,14,1,8,JPN" xlink:title="AP030" d="M14445.3796,-4367.9932L14445.4697,-4367.58L14445.5399,-4367.3466L14445.52,-4367.2199L14445.4697,-4367.0532"/>
<path content="AP030,1,28,1,0,15,1,8,JPN" xlink:title="AP030" d="M14429.2892,-4384.4799L14429.0436,-4382.1842L14429.4357,-4380.8235L14430.5344,-4379.1077L14431.2408,-4377.2732L14431.7886,-4376.5038L14432.9651,-4375.2609L14433.7494,-4374.6101L14434.9258,-4373.7816L14435.3973,-4372.6574L14435.3973,-4371.3554L14435.7895,-4370.882L14438.6124,-4368.3968L14439.7095,-4368.1599L14441.1209,-4368.3369L14442.7673,-4368.4547L14445.4697,-4367.0532"/>
<path content="AP030,1,28,1,0,14,1,8,JPN" xlink:title="AP030" d="M14399.3805,-4365.2866L14399.4003,-4365.3797L14399.4293,-4365.3999L14399.4904,-4365.4133L14399.5407,-4365.4331L14399.6796,-4365.4667L14399.8093,-4365.5266L14400,-4365.6158L14400.1495,-4365.6864L14400.7401,-4366.0667L14401.0605,-4366.2598L14401.1993,-4366.3532L14401.2695,-4366.4265L14401.3992,-4366.6798L14401.5793,-4366.8732L14401.68,-4366.9464L14401.8295,-4367.1066L14401.9699,-4367.3267L14402.4506,-4368.1332L14402.9297,-4368.9999L14403.0807,-4369.2333L14403.0807,-4369.2867L14403.0594,-4369.3466L14402.9694,-4369.5065L14402.5406,-4370.1935L14402.4002,-4370.4597L14402.3102,-4370.62L14402.2705,-4370.7134L14402.2903,-4370.7333L14402.4048,-4370.8244"/>
<path content="AP030,1,28,1,0,14,1,8,JPN" xlink:title="AP030" d="M14444.8593,-4364.5664L14444.9005,-4364.9467L14444.9295,-4365.1066L14445.0195,-4365.5598L14445.0195,-4365.6132L14445.0607,-4365.9397L14445.1096,-4366.2998L14445.1797,-4366.5531L14445.3094,-4366.6931L14445.43,-4366.8198L14445.4498,-4366.9666L14445.4697,-4367.0532"/>
<path content="AP030,1,28,1,0,15,1,8,JPN" xlink:title="AP030" d="M14351.3229,-4364.4669L14356.311,-4367.1444L14357.5806,-4367.3798"/>
<path content="AP030,1,28,1,0,15,1,8,JPN" xlink:title="AP030" d="M14344.1406,-4362.1559L14346.5988,-4362.693L14349.057,-4363.2298L14351.3229,-4364.4669"/>
<path content="AP030,1,28,1,0,15,1,8,JPN" xlink:title="AP030" d="M14343.75,-4362.2358L14344.1406,-4362.1559"/>
<path content="AP030,1,28,1,0,14,1,8,JPN" xlink:title="AP030" d="M14444.8593,-4364.5664L14444.8593,-4364.3734L14444.9295,-4364.0667L14444.9707,-4363.7932L14445.1797,-4362.8735L14445.2194,-4362.7132L14445.3094,-4362.2799L14445.3598,-4362.08L14445.3658,-4362.0339"/>
<path content="AP030,1,28,1,0,15,1,8,JPN" xlink:title="AP030" d="M14453.4149,-4378.8879L14452.2003,-4376.6781L14451.5884,-4375.5669L14451.4648,-4375.4284L14450.9659,-4374.8684L14450.7874,-4373.8182L14450.9109,-4371.957L14451.6296,-4371.3017L14452.4338,-4371.1079L14453.1891,-4370.1134L14453.4561,-4368.7119L14454.0604,-4368.1023L14454.5151,-4367.9192L14455.0964,-4366.93L14455.4276,-4366.6245L14455.5267,-4366.3258L14455.2017,-4365.7448L14455.2048,-4364.8159L14455.7343,-4363.9549L14456.604,-4362.9147L14457.7332,-4362.3726L14457.8705,-4361.7352L14459.3658,-4361.1576"/>
<path content="AP030,1,28,1,0,15,1,8,JPN" xlink:title="AP030" d="M14343.75,-4361.7478L14344.1406,-4362.1559"/>
<path content="AP030,1,28,1,0,15,1,8,JPN" xlink:title="AP030" d="M14456.6132,-4360.128L14456.8497,-4360.2051L14459.3658,-4361.1576"/>
<path content="AP030,1,28,1,0,14,1,8,JPN" xlink:title="AP030" d="M14410.4294,-4382.4066L14411.0397,-4382.2067L14411.6104,-4382.0267L14412.2192,-4381.8333L14412.2696,-4381.8134L14412.7197,-4381.6666L14413.5605,-4381.4133L14414.18,-4381.2199L14414.7202,-4381.0532L14415.4907,-4380.8201L14416.5405,-4380.5L14416.9907,-4380.3734L14417.1295,-4380.2998L14417.4301,-4379.8664L14417.7704,-4379.2732L14417.7902,-4378.9665L14417.7704,-4378.4065L14417.5598,-4378.0998L14417.5201,-4378.0266L14417.2897,-4377.6665L14417.1997,-4377.5066L14417.1799,-4377.3598L14417.1997,-4377.1999L14417.1997,-4377.0931L14417.4698,-4376.3L14417.6498,-4375.7065L14417.63,-4375.5798L14417.4896,-4375.3067L14417.5201,-4375.0935L14417.72,-4374.4598L14417.72,-4374.2599L14417.72,-4374.2466L14417.7399,-4374.1932L14417.9001,-4374.0265L14417.9306,-4373.9933L14417.9504,-4373.9532L14417.9504,-4373.8998L14417.9504,-4373.7732L14417.9504,-4373.74L14417.9504,-4373.5268L14418.1503,-4373.0732L14418.4006,-4372.5334L14418.5593,-4372.2466L14418.5806,-4372.2065L14418.7897,-4371.9933L14418.9301,-4371.8468L14418.9697,-4371.5797L14419.0399,-4370.9999L14419.1299,-4370.4998L14419.2001,-4370.2801L14419.2703,-4370.2267L14419.3802,-4370.1534L14419.7906,-4369.92L14420.0195,-4369.7735L14420.2896,-4369.4866L14420.3995,-4369.1799L14420.4895,-4368.9999L14420.7199,-4368.7332L14420.8603,-4368.4998L14420.9305,-4368.3735L14421.0602,-4368.1198L14421.1807,-4367.9932L14421.5607,-4367.7933L14421.8994,-4367.5934L14422.2198,-4367.4332L14422.6105,-4367.1799L14423.0392,-4367.0734L14423.2193,-4367.02L14423.3795,-4366.9666L14423.4695,-4366.9266L14423.7396,-4366.8598L14423.88,-4366.7667L14423.9899,-4366.5867L14424.0799,-4366.3734L14424.3301,-4366.1732L14424.7406,-4366.0267L14425.1099,-4365.9199L14425.2701,-4365.8333L14425.3296,-4365.7066L14425.3601,-4365.58L14425.3098,-4365.4667L14425.1999,-4365.3599L14425.0397,-4365.2866L14424.8596,-4365.2332L14424.8093,-4365.1665L14424.8093,-4365.02L14424.8596,-4364.9265L14424.9893,-4364.8933L14425.3296,-4364.9467L14425.5203,-4365.0532L14425.7904,-4365.2332L14425.9293,-4365.2866L14426.0605,-4365.2866L14426.1505,-4365.2866L14426.1993,-4365.2332L14426.2207,-4365.1665L14426.1307,-4365.1066L14425.8102,-4364.9998L14425.7401,-4364.9467L14425.6302,-4364.7999L14425.4303,-4364.6198L14425.3998,-4364.5535L14425.3799,-4364.4398L14425.3296,-4364.4066L14425.1999,-4364.2799L14425.1801,-4364.2265L14425.2197,-4364.1933L14425.2701,-4364.1533L14425.2899,-4364.0999L14425.2197,-4363.9198L14425.1099,-4363.6868L14425.1297,-4363.5597L14425.1999,-4363.5265L14425.3601,-4363.4666L14425.4501,-4363.3999L14425.4303,-4363.3598L14425.3799,-4363.3064L14425.1297,-4363.2732L14425.0397,-4363.2198L14424.9893,-4363.1466L14425.0198,-4363.0733L14425.0595,-4363.0199L14425.0793,-4362.9665L14425.0595,-4362.8933L14424.9695,-4362.8201L14424.8993,-4362.7865L14424.8993,-4362.7335L14424.9298,-4362.6801L14424.9893,-4362.64L14425.0595,-4362.64L14425.1999,-4362.64L14425.3601,-4362.7132L14425.5402,-4362.7998L14425.7004,-4362.7998L14425.7401,-4362.7998L14425.9293,-4362.7464L14425.9903,-4362.7335L14426.0193,-4362.6801L14426.0193,-4362.6198L14425.9293,-4362.5534L14425.7904,-4362.5L14425.7202,-4362.4599L14425.7004,-4362.4268L14425.7401,-4362.4065L14425.9003,-4362.3867L14426.0406,-4362.3199L14426.1505,-4362.2467L14425.9003,-4361.7931L14425.8102,-4361.5799L14425.7706,-4361.4532L14425.7904,-4360.5331L14425.8804,-4360.2798L14426.1505,-4359.8667L14426.4297,-4359.5798L14426.6129,-4359.375"/>
<path content="AP030,1,28,1,0,15,1,8,JPN" xlink:title="AP030" d="M14368.2905,-4359.375L14368.6508,-4360.5869L14368.689,-4361.4441L14368.0161,-4362.9078L14368.0115,-4364.463L14368.7317,-4365.733L14370.0897,-4366.3445L14370.903,-4366.3788L14371.3821,-4367.1719L14372.5723,-4370.6287L14373.2635,-4371.2021L14373.3932,-4372.5494"/>
<path content="AP030,1,28,1,0,14,1,8,JPN" xlink:title="AP030" d="M14357.5806,-4367.3798L14357.5195,-4367.3466L14357.4707,-4367.2733L14357.4707,-4367.2333L14357.4707,-4367.2001L14357.4707,-4367.0933L14357.4905,-4366.9464L14357.4905,-4366.8598L14357.4493,-4366.7667L14357.3303,-4366.6599L14357.2006,-4366.5134L14357.0206,-4366.32L14356.9305,-4366.2067L14356.8604,-4366.0667L14356.8604,-4365.9199L14356.8802,-4365.7932L14356.9702,-4365.6334L14357.0602,-4365.5266L14357.1106,-4365.4533L14357.1793,-4365.3797L14357.2906,-4365.2733L14357.3303,-4365.1665L14357.3593,-4365.0734L14357.3807,-4365.02L14357.4005,-4364.9467L14357.4493,-4364.8598L14357.4905,-4364.6797L14357.4905,-4364.6065L14357.4905,-4364.5535L14357.5195,-4364.4264L14357.5394,-4364.3532L14357.5607,-4364.2597L14357.6294,-4364.1197L14357.6996,-4363.9935L14357.8796,-4363.8466L14358.1802,-4363.5399L14358.4305,-4363.3064L14358.49,-4363.2534L14358.58,-4363.2198L14358.7204,-4363.2L14358.7708,-4363.2L14359.0805,-4363.2332L14359.1995,-4363.2332L14359.4299,-4363.2332L14359.52,-4363.2198L14359.61,-4363.1664L14359.7,-4363.0733L14359.79,-4362.9467L14359.8801,-4362.8399L14359.9503,-4362.7132L14360.0204,-4362.6198L14360.08,-4362.5668L14360.1501,-4362.5134L14360.2203,-4362.4599L14360.4004,-4362.3531L14360.5804,-4362.2467L14360.7407,-4362.1201L14360.8597,-4362.0464L14360.9894,-4361.9534L14361.0794,-4361.9198L14361.3602,-4361.8999L14361.5601,-4361.8866L14361.7401,-4361.8866L14361.9003,-4361.8866L14361.9705,-4361.8668L14362.1094,-4361.7931L14362.1307,-4361.7733L14362.1994,-4361.7199L14362.2894,-4361.6333L14362.4496,-4361.4666L14362.5595,-4361.3598L14362.6801,-4361.2534L14362.8799,-4361.1267L14363.0203,-4361.0733L14363.3301,-4360.9867L14363.6993,-4360.9135L14364.0793,-4360.8601L14364.1998,-4360.8398L14364.2197,-4360.8398L14364.3799,-4360.82L14364.5401,-4360.7998L14364.65,-4360.7666L14364.7202,-4360.7334L14364.83,-4360.64L14365.0208,-4360.4599L14365.2206,-4360.3001L14365.4007,-4360.2066L14365.6097,-4360.1334L14365.8295,-4360.0998L14366.0797,-4360.0266L14366.1301,-4360.0132L14366.3605,-4359.94L14366.5207,-4359.9197L14366.7206,-4359.8866L14366.9006,-4359.8465L14367.1295,-4359.7935L14367.1997,-4359.7599L14367.2699,-4359.7198L14367.3599,-4359.6664L14367.45,-4359.56L14367.4896,-4359.38L14367.4912,-4359.375"/>
<path content="AP030,1,28,1,0,15,1,8,JPN" xlink:title="AP030" d="M14389.1579,-4359.375L14390.0757,-4359.6481L14390.8966,-4360.0365L14391.7496,-4360.2875L14392.2546,-4360.3786L14392.6971,-4360.4469L14393.1076,-4360.5839L14393.6127,-4360.6747L14394.339,-4360.7426L14394.812,-4360.8566L14395.1294,-4361.2228L14395.2255,-4361.6123L14395.5093,-4361.9328L14395.8893,-4362.0468L14396.2997,-4362.3215L14396.7117,-4362.7335L14397.0276,-4362.9623L14397.1878,-4363.4663L14397.4731,-4363.8096L14397.9156,-4364.1529L14398.2315,-4364.1983L14398.6115,-4364.4039L14398.7396,-4364.9311L14399.3805,-4365.2866"/>
<path content="AP030,1,28,1,0,15,1,8,JPN" xlink:title="AP030" d="M14378.9714,-4373.1686L14377.8564,-4369.8044L14378.3905,-4368.5581L14380.6473,-4366.2506L14381.8146,-4365.9538L14381.8588,-4365.3091L14381.7581,-4364.7221L14380.9357,-4364.5275L14380.2429,-4363.9011L14380.6503,-4363.1405L14381.9275,-4362.0365L14383.8287,-4361.668L14384.7626,-4361.1084L14386.4212,-4360.3161L14386.2075,-4359.375"/>
<path content="AP030,1,28,1,0,15,1,8,JPN" xlink:title="AP030" d="M14402.4048,-4370.8244L14405.8228,-4368.9289L14405.8044,-4368.5539L14406.0638,-4367.8501L14406.9763,-4366.914L14407.5302,-4364.7541L14409.4284,-4362.8799L14411.5417,-4362.3398L14413.4949,-4361.5891L14415.0543,-4360.3664L14415.9092,-4359.375"/>
<path content="AP030,1,28,1,0,15,1,8,JPN" xlink:title="AP030" d="M14435.4154,-4359.375L14435.4115,-4359.4456L14435.8815,-4360.2147L14436.5864,-4361.3385L14436.6658,-4362.2262L14437.1357,-4363.2317L14438.0757,-4363.823L14439.5649,-4364.0595L14442.9531,-4363.6933L14445.3658,-4362.0339"/>
<path content="AP030,1,28,1,0,15,1,8,JPN" xlink:title="AP030" d="M14482.0589,-4359.375L14482.4249,-4359.5036L14483.0535,-4359.375"/>
<path content="AP030,1,28,1,0,15,1,8,JPN" xlink:title="AP030" d="M14459.3658,-4361.1576L14460.3699,-4360.77L14462.5941,-4359.375"/>
<path content="AP030,1,28,1,0,15,1,8,JPN" xlink:title="AP030" d="M14349.7544,-4359.375L14350.7935,-4362.6358L14351.3229,-4364.4669"/>
<path content="AP030,1,28,1,0,14,1,8,JPN" xlink:title="AP030" d="M14445.0901,-4359.375L14445.1096,-4359.5264L14445.1294,-4359.7065L14445.2698,-4359.9533L14445.6299,-4360.5133L14445.6299,-4360.5865L14445.61,-4360.8601L14445.5399,-4361.1267L14445.3995,-4361.7733"/>
<path content="AP030,1,28,1,0,15,1,8,JPN" xlink:title="AP030" d="M14445.3995,-4361.7733L14445.752,-4361.5902L14447.0032,-4360.9398L14448.8846,-4359.9335L14449.3561,-4359.4601L14449.3561,-4359.375"/>
<path content="AP030,1,28,1,0,14,1,8,JPN" xlink:title="AP030" d="M14399.3805,-4365.2866L14399.4293,-4365.1665L14399.4904,-4365.0398L14399.5605,-4364.9265L14399.6094,-4364.8731L14399.6796,-4364.8399L14399.7696,-4364.5134L14399.8795,-4364.1731L14399.8993,-4364.0266L14399.8795,-4363.94L14399.7894,-4363.6532L14399.7192,-4363.3266L14399.6796,-4363.1466L14399.5804,-4362.8399L14399.4705,-4362.6064L14399.3301,-4362.3531L14399.3103,-4362.3333L14399.1501,-4362.1933L14399.0402,-4362.0998L14398.88,-4361.9732L14398.7396,-4361.8465L14398.6298,-4361.7397L14398.5794,-4361.6531L14398.4695,-4361.4132L14398.3795,-4361.2L14398.3597,-4361.0535L14398.3597,-4360.9135L14398.3307,-4360.82L14398.3093,-4360.7666L14398.1506,-4360.5L14397.8607,-4360.0468L14397.6501,-4359.7198L14397.4899,-4359.4334L14397.4428,-4359.375"/>
<path content="AP030,1,28,1,0,14,1,8,JPN" xlink:title="AP030" d="M14425.9117,-4402.5061L14426.0406,-4402.5665L14426.4694,-4402.6932L14426.5396,-4402.6932L14426.7197,-4402.5002L14426.8295,-4402.3201L14426.86,-4402.1935L14426.8997,-4402.0134L14427.4704,-4402.0466"/>
<path content="AP030,1,28,1,0,14,1,8,JPN" xlink:title="AP030" d="M14445.3658,-4362.0339L14445.3995,-4361.7733"/>
</g>
</svg>
