<?xml version="1.0" encoding="UTF-8"?>
<svg  xmlns="http://www.w3.org/2000/svg" xmlns:xlink="http://www.w3.org/1999/xlink" xmlns:go="http://purl.org/svgmap/profile" property="f_code,acc,exs,rst,med,rtt,RSU,loc,soc" viewBox="14132.8125 -4007.8125 70.3125 70.3125" go:dataArea="14132.8125 -4007.8125 70.3125 70.3125" >
<metadata>
 <rdf:RDF xmlns:rdf="http://www.w3.org/1999/02/22-rdf-syntax-ns#" xmlns:crs="http://opengis.org/xmldtds/transformations.dtd" xmlns:svg="http://www.w3.org/svg" >
  <rdf:Description>
   <crs:CoordinateReferenceSystem rdf:resource="http://purl.org/crs/84" svg:transform="matrix(100.0,0.0,0.0,-100.0,0.0,0.0)" />
  </rdf:Description>
 </rdf:RDF>
</metadata>
<globalCoordinateSystem srsName="http://purl.org/crs/84" transform="matrix(100.0,0.0,0.0,-100.0,0.0,0.0)" />
<defs>
 <g id="p0" >
  <circle cx="0.0" cy="0.0" r="3" stroke="green" stroke-width="2.0" vector-effect="non-scaling-stroke" />
 </g>
</defs>
<g fill="none" fill-rule="evenodd" stroke="#00ff00" stroke-width="2" opacity="0.5" vector-effect="non-scaling-stroke" stroke-linejoin="bevel" >
<path content="AP030,1,28,1,0,15,1,8,JPN" xlink:title="AP030" d="M14162.3436,-4007.8125L14162.9166,-4007.085L14163.5422,-4006.6677L14164.6881,-4006.4587L14166.1469,-4006.5414L14167.2409,-4006.7909L14167.659,-4007.2495L14167.8643,-4007.8125"/>
<path content="AP030,1,28,1,0,15,1,8,JPN" xlink:title="AP030" d="M14140.0907,-4007.8125L14140.1474,-4007.6374L14140.1459,-4006.5121L14140.3015,-4005.6362L14140.4907,-4004.6932"/>
<path content="AP030,1,28,1,0,14,1,8,JPN" xlink:title="AP030" d="M14145.8298,-4004.6066L14146.0205,-4004.66L14146.1502,-4004.7134L14146.1807,-4004.7668L14146.2006,-4004.8L14146.2906,-4004.8733L14146.3593,-4004.9133L14146.5195,-4004.9465L14146.9299,-4005.0732L14147.2198,-4005.1998L14147.9004,-4005.5401L14148.2895,-4005.6866L14148.3597,-4005.7068L14148.4299,-4005.7201L14148.5199,-4005.7201L14148.5794,-4005.7598L14148.97,-4005.9933L14149.0799,-4006.0268L14149.1501,-4006.0268L14149.7192,-4006.1001L14149.8596,-4006.1333L14150.1999,-4006.3732L14150.2396,-4006.44L14150.2701,-4006.5533L14150.3098,-4006.5666L14150.47,-4006.5666L14150.5203,-4006.6067L14150.7706,-4006.8199L14150.7706,-4006.86L14150.7202,-4006.9134L14150.7004,-4006.9466L14150.6805,-4006.9866L14150.7004,-4007.0202L14150.9003,-4007.1999L14150.9293,-4007.2334L14150.9705,-4007.5401L14150.9705,-4007.6668L14150.9705,-4007.8125"/>
<path content="AP030,1,28,1,0,14,1,8,JPN" xlink:title="AP030" d="M14145.6783,-4007.8125L14145.7001,-4007.7732L14145.8099,-4007.6534L14145.8298,-4007.5268L14145.8603,-4007.4333L14145.9305,-4007.3467L14145.9702,-4007.2735L14145.9503,-4007.18L14145.9305,-4007.0732L14145.9503,-4006.9466L14145.99,-4006.8199L14146.0205,-4006.7333L14146.0205,-4006.6399L14145.9503,-4006.2801L14145.8801,-4006.1535L14145.7901,-4005.9933L14145.7703,-4005.8998L14145.7703,-4005.8132L14145.7901,-4005.6667L14145.8099,-4005.5401L14145.8603,-4005.4001L14145.9503,-4005.2334L14145.9503,-4005.1468L14145.9,-4004.9133L14145.8298,-4004.7333L14145.8298,-4004.6066"/>
<path content="AP030,1,28,1,0,14,1,8,JPN" xlink:title="AP030" d="M14140.4907,-4004.6932L14140.4007,-4004.66L14140.3107,-4004.6066L14140.1093,-4004.3865L14139.9902,-4004.2267L14139.9506,-4004.1534L14139.9704,-4004.1L14140.0604,-4004.0466L14140.1993,-4003.9734"/>
<path content="AP030,1,28,1,0,14,1,8,JPN" xlink:title="AP030" d="M14145.52,-4003.7933L14145.5597,-4004.0134L14145.5597,-4004.2465L14145.5597,-4004.3732L14145.5795,-4004.4601L14145.7001,-4004.5532L14145.8298,-4004.6066"/>
<path content="AP030,1,28,1,0,14,1,8,JPN" xlink:title="AP030" d="M14140.4907,-4004.6932L14140.5594,-4004.6932L14140.6296,-4004.6932L14140.8096,-4004.66L14140.9698,-4004.6066L14141.0202,-4004.6066L14141.04,-4004.6398L14141.0599,-4004.8L14141.1102,-4004.8599L14141.2003,-4004.8931L14141.2704,-4004.8931L14141.4703,-4004.8733L14141.5604,-4004.8599L14141.6306,-4004.8199L14141.7694,-4004.7134L14141.8594,-4004.62L14141.9907,-4004.4998L14142.1295,-4004.3865L14142.1997,-4004.3533L14142.3294,-4004.3533L14142.3996,-4004.3533L14142.45,-4004.3732L14142.7902,-4004.5334L14142.9504,-4004.5666L14143.1107,-4004.6066L14143.1793,-4004.6066L14143.2404,-4004.5868L14143.3304,-4004.5532L14143.3807,-4004.4998L14143.5394,-4004.3201L14143.5806,-4004.2801L14143.6798,-4004.2465L14143.8095,-4004.2068L14144.0598,-4004.2267L14144.1803,-4004.2465L14144.2703,-4004.2267L14144.31,-4004.1931L14144.5801,-4003.92L14144.6304,-4003.8666L14144.7006,-4003.8666L14144.7403,-4003.8666L14145.4498,-4003.8132L14145.4895,-4003.7933L14145.52,-4003.7933"/>
<path content="AP030,1,28,1,0,15,1,8,JPN" xlink:title="AP030" d="M14132.8125,-4003.925L14134.2758,-4003.429L14137.1109,-4003.0441L14140.1993,-4003.9734"/>
<path content="AP030,1,28,1,0,14,1,8,JPN" xlink:title="AP030" d="M14182.6092,-4007.8125L14182.6294,-4007.7599L14182.7698,-4007.6534L14183.0399,-4007.5268L14183.11,-4007.4867L14183.284,-4007.3738L14183.4702,-4007.2533L14183.7692,-4007.0534L14183.9279,-4006.9656L14184.0195,-4006.86L14184.1293,-4006.7135L14184.2407,-4006.5533L14184.3597,-4006.4999L14184.3994,-4006.44L14184.5398,-4006.2267L14184.5596,-4006.1733L14184.7397,-4006.0467L14184.8602,-4005.9532L14184.8999,-4005.8868L14184.9503,-4005.7934L14185.08,-4005.6667L14185.1501,-4005.5599L14185.2005,-4005.5401L14185.4706,-4005.5065L14185.5194,-4005.4668L14185.6918,-4005.3352L14186.0794,-4005.04L14186.1496,-4004.9999L14186.2198,-4004.9866L14186.6806,-4004.9667L14186.7401,-4004.9465L14186.7905,-4004.9267L14187.0804,-4004.5666L14187.1307,-4004.48L14187.1307,-4004.4399L14187.0804,-4004.1199L14187.1094,-4003.8868L14187.1094,-4003.8467L14187.1506,-4003.7731L14187.2894,-4003.6331L14187.3795,-4003.5267L14187.5595,-4003.2867L14187.6801,-4003.1265L14187.7396,-4003.0533L14187.7701,-4002.9999L14187.7899,-4002.84L14187.8296,-4002.7466L14187.9303,-4002.6402L14187.9303,-4002.6066L14187.9501,-4002.4601L14187.9898,-4002.3533L14188.0798,-4002.2598L14188.1805,-4002.1935L14188.2202,-4002.1732L14188.2401,-4002.1534L14188.2904,-4002.1L14188.3102,-4002.0267L14188.5605,-4001.54L14188.5803,-4001.4534L14188.5803,-4001.3599L14188.5193,-4001.3065L14188.2706,-4001.2333L14188.1302,-4001.2001L14188.0798,-4001.1665L14188.1104,-4001.0532L14188.15,-4001.0399L14188.3102,-4001.0399L14188.4705,-4000.9666"/>
<path content="AP030,1,28,1,0,14,1,8,JPN" xlink:title="AP030" d="M14188.4903,-4000.7668L14188.5406,-4000.8598L14188.5406,-4000.9132L14188.4705,-4000.9666"/>
<path content="AP030,1,28,1,0,15,1,8,JPN" xlink:title="AP030" d="M14172.2946,-4007.8125L14172.2946,-4007.5272L14172.4686,-4006.8993L14172.467,-4005.9227L14172.8165,-4004.9461L14173.1644,-4004.3182L14172.8149,-4003.2024L14173.0774,-4002.2259L14173.7732,-4000.9701L14174.2004,-4000L14174.2966,-3999.7841"/>
<path content="AP030,1,28,1,0,15,1,8,JPN" xlink:title="AP030" d="M14174.2966,-3999.7841L14174.8581,-4000L14175.9125,-4000.4055L14176.8143,-4000.3418L14177.6215,-4000L14178.7598,-3999.519L14182.0709,-3999.7852L14183.1985,-3999.7772L14183.4167,-3999.1394L14184.169,-3999.1337L14185.7498,-3999.2378L14187.1155,-4000L14188.4903,-4000.7668"/>
<path content="AP030,1,28,1,0,14,1,8,JPN" xlink:title="AP030" d="M14132.8125,-3998.0417L14132.9498,-3998.1331L14133.11,-3998.2597L14133.2001,-3998.2998L14133.2901,-3998.32L14133.4305,-3998.32L14133.5403,-3998.373L14133.6105,-3998.4398L14133.6807,-3998.4798L14133.8593,-3998.5001L14134.0805,-3998.513L14134.1095,-3998.513L14134.2697,-3998.513L14134.3796,-3998.4798L14134.4498,-3998.4264L14134.5596,-3998.373L14134.6497,-3998.3334L14134.7702,-3998.32L14135.0204,-3998.32L14135.1105,-3998.28L14135.3302,-3998.1934L14135.6094,-3998.0667L14135.7697,-3998.0465L14136.0397,-3998.0465L14136.8103,-3998.0267L14136.9003,-3998.0667L14137.1796,-3998.0999L14137.3306,-3998.1197L14137.6297,-3998.1331L14137.9303,-3998.1331L14138.0203,-3998.1731L14138.1302,-3998.2265L14138.1805,-3998.2998L14138.2202,-3998.4066L14138.3606,-3998.513L14138.4705,-3998.5867L14138.6093,-3998.7331L14138.7207,-3998.84L14138.8794,-3998.9265L14139.0396,-3998.9998L14139.2395,-3999.0398L14139.3295,-3999.02L14139.4699,-3998.9666L14139.6301,-3998.8598L14139.8102,-3998.7465L14140.0192,-3998.6599L14140.1505,-3998.6198L14140.2405,-3998.5664L14140.4297,-3998.4398L14140.5807,-3998.373L14140.6998,-3998.32L14140.77,-3998.28L14141.0202,-3998.2067L14141.1499,-3998.1731L14141.2704,-3998.1934L14141.2903,-3998.2597L14141.2903,-3998.4264L14141.2704,-3998.6401L14141.2704,-3998.9265L14141.2399,-3999.02L14141.0599,-3999.1066L14140.7898,-3999.2332L14140.6998,-3999.2867L14140.6799,-3999.3999L14140.6998,-3999.5266L14140.8096,-3999.633L14140.9897,-3999.773L14141.1804,-3999.8867L14141.2201,-3999.9733L14141.2155,-4000L14141.2003,-4000.0999L14141.1499,-4000.3201L14141.0599,-4000.4066L14141.0599,-4000.6931L14140.95,-4000.8202L14140.8096,-4000.8732L14140.6799,-4000.9869L14140.6296,-4000.9666L14140.4007,-4000.8934L14140.3107,-4000.8732L14140.1093,-4000.8732L14140.0406,-4000.8732L14140.0192,-4000.9132L14139.9902,-4001.1665L14140.0406,-4001.3599L14140.2405,-4001.7067L14140.2695,-4001.8131L14140.2206,-4001.9402L14140.0803,-4002.1332L14140.0803,-4002.2469L14140.1093,-4002.28L14140.2405,-4002.3869L14140.2695,-4002.4799L14140.3107,-4002.84L14140.2695,-4002.8732L14140.1505,-4003.0201L14140.1093,-4003.1467L14140.1306,-4003.1799L14140.1794,-4003.2001L14140.3107,-4003.22L14140.3793,-4003.2333L14140.4495,-4003.2532L14140.4907,-4003.2867L14140.5594,-4003.4332L14140.5807,-4003.54L14140.5594,-4003.5801L14140.4007,-4003.7933L14140.3793,-4003.8467L14140.1993,-4003.9734"/>
<path content="AP030,1,28,1,0,15,1,8,JPN" xlink:title="AP030" d="M14188.4705,-4000.9666L14188.7894,-4000.9624L14191.1804,-4000.8934L14193.6615,-4000.449L14193.8492,-4000L14194.0247,-3999.5785L14194.4595,-3998.4184L14195.1935,-3997.1401L14195.5597,-3996.3852L14195.6528,-3995.8702L14195.7703,-3995.3423L14195.3903,-3995.0565L14194.7159,-3995.1199L14194.1895,-3995.1241L14193.8873,-3995.0108L14193.956,-3994.5477"/>
<path content="AP030,1,28,1,0,15,1,8,JPN" xlink:title="AP030" d="M14154.8996,-3993.9533L14156.2363,-3994.7342L14156.7688,-3995.4834L14156.929,-3996.5813L14157.3059,-3996.7529L14157.8308,-3996.6927L14158.0536,-3996.2288L14158.3511,-3995.9381L14160.0769,-3995.6402L14160.7498,-3995.174L14160.9116,-3996.5611L14161.441,-3996.9631L14162.0438,-3997.1336L14163.9954,-3996.8338L14165.9531,-3997.1699L14167.6132,-3997.7962L14168.6707,-3998.1949L14169.2719,-3998.2494L14169.577,-3998.7103L14170.4117,-3999.4568L14171.0861,-3999.1638L14171.2311,-3998.6423L14173.0377,-3998.8625L14174.2966,-3999.7841"/>
<path content="AP030,1,28,1,0,14,1,8,JPN" xlink:title="AP030" d="M14145.52,-4003.7933L14145.8099,-4003.6331L14145.9305,-4003.54L14145.9702,-4003.4534L14145.9305,-4003.3466L14145.9,-4003.3268L14145.8298,-4003.2867L14145.8099,-4003.2532L14145.8099,-4003.22L14145.8298,-4003.1666L14145.8603,-4003.1467L14145.9,-4003.0533L14145.9,-4002.9999L14145.9,-4002.9133L14145.9,-4002.8732L14145.9305,-4002.8L14145.99,-4002.7466L14146.0205,-4002.28L14145.99,-4002.2266L14145.8603,-4002.1L14145.8603,-4002.0466L14145.8603,-4002.0134L14145.9503,-4001.9199L14145.99,-4001.8467L14145.99,-4001.7735L14146.0205,-4001.7399L14146.0602,-4001.6869L14146.3104,-4001.5598L14146.3806,-4001.54L14146.5393,-4001.54L14146.7194,-4001.4133L14147.3297,-4001.1066L14147.5403,-4000.9869L14147.6501,-4000.8732L14147.9294,-4000.7133L14148.1094,-4000.6199L14148.1796,-4000.5333L14148.4497,-4000.3201L14148.6496,-4000.1331L14148.8998,-4000.0134L14148.912,-4000L14148.97,-3999.9397L14149.0204,-3999.8466L14148.97,-3999.7398L14148.9304,-3999.6532L14149.0204,-3999.5399L14149.2706,-3999.2332L14149.3301,-3999.2001L14149.4507,-3999.1467L14149.5804,-3999.0398L14149.9298,-3998.5531L14150.0198,-3998.4066L14150.1495,-3998.1197L14150.3998,-3997.72L14150.4898,-3997.5933L14150.5402,-3997.5067L14150.5798,-3997.3598L14150.6302,-3997.2733L14150.7202,-3997.1466L14150.8102,-3997.0398L14150.9293,-3996.9131L14150.9705,-3996.7331L14151.0193,-3996.2997L14151.0406,-3996.1933L14151.0605,-3995.9198L14151.1093,-3995.8668L14151.1795,-3995.8134L14151.2405,-3995.7932L14151.3596,-3995.7066L14151.68,-3995.3999L14151.9501,-3995.1065L14152.0798,-3994.9867L14152.33,-3994.7468L14152.4704,-3994.6598L14152.5803,-3994.5534L14152.6505,-3994.4401L14152.7206,-3994.26L14152.8107,-3994.1532L14152.9694,-3994.0132L14153.1097,-3993.94L14153.1998,-3993.8999L14153.3096,-3993.8667L14153.5202,-3993.8465L14153.7201,-3993.8866L14154.2694,-3993.9533L14154.4693,-3993.9732L14154.8294,-3993.9732L14154.8996,-3993.9533"/>
<path content="AP030,1,28,1,0,15,1,8,JPN" xlink:title="AP030" d="M14188.9893,-3993.1667L14190.3427,-3994.0559L14192.6727,-3994.1532L14192.7765,-3994.1849L14193.956,-3994.5477"/>
<path content="AP030,1,28,1,0,14,1,8,JPN" xlink:title="AP030" d="M14188.4903,-4000.7668L14188.3606,-4000.6065L14188.2904,-4000.4601L14188.2706,-4000.3201L14188.2401,-4000.1534L14188.2706,-4000.0134L14188.2736,-4000L14188.3102,-3999.8665L14188.3301,-3999.6666L14188.2004,-3999.5068L14187.8296,-3999.2001L14187.7396,-3999.1665L14187.6297,-3999.073L14187.5198,-3999.073L14187.3993,-3999.0398L14187.2192,-3998.9666L14187.1094,-3998.8934L14187.0407,-3998.8598L14186.8607,-3998.8934L14186.6806,-3998.8934L14186.6104,-3998.8731L14186.5601,-3998.84L14186.4899,-3998.7667L14186.4899,-3998.6401L14186.4899,-3998.4798L14186.4899,-3998.3868L14186.4502,-3998.32L14186.3998,-3998.2998L14186.3098,-3998.2998L14186.0596,-3998.2597L14185.9695,-3998.1934L14185.8795,-3998.0267L14185.8597,-3997.9L14185.8307,-3997.7398L14185.8795,-3997.6532L14185.9894,-3997.5933L14186.2198,-3997.5597L14186.3297,-3997.5399L14186.3602,-3997.5067L14186.38,-3997.4667L14186.2701,-3997.3267L14186.2198,-3997.2733L14186.2,-3997.2332L14186.2,-3997.1466L14186.2,-3997.1066L14186.2,-3997.0531L14186.1496,-3996.9467L14186.1099,-3996.8731L14185.9894,-3996.7999L14185.8994,-3996.7865L14185.7697,-3996.7865L14185.6995,-3996.7331L14185.6796,-3996.4798L14185.6293,-3996.4268L14185.5194,-3996.3531L14185.4004,-3996.3333L14185.2402,-3996.32L14185.1105,-3996.2799L14184.9701,-3996.1933L14184.79,-3996.0999L14184.7,-3996.0266L14184.6497,-3995.94L14184.6802,-3995.7733L14184.6802,-3995.7066L14184.6802,-3995.6333L14184.5795,-3995.5799L14184.3796,-3995.3598L14184.2697,-3995.1065L14184.2407,-3994.9265L14184.2407,-3994.7865L14184.2896,-3994.6598L14184.3094,-3994.5133L14184.2697,-3994.4401L14184.1797,-3994.3867L14184.1293,-3994.2799L14184.1293,-3994.26L14184.1293,-3994.1334L14184.1507,-3994.08L14184.2407,-3993.9533L14184.4696,-3993.7931L14184.5596,-3993.6867L14184.61,-3993.5932L14184.61,-3993.5066L14184.6802,-3993.4868L14184.8099,-3993.5265L14184.9304,-3993.4868L14185.08,-3993.4532L14185.2005,-3993.38L14185.2707,-3993.3468L14185.3302,-3993.4132L14185.4004,-3993.4666L14185.4706,-3993.4666L14185.5606,-3993.4666L14185.6796,-3993.4334L14185.7407,-3993.38L14185.8093,-3993.3468L14185.8994,-3993.2533L14185.9695,-3993.2198L14186.0199,-3993.1999L14186.0794,-3993.1801L14186.2,-3993.1667L14186.2701,-3993.0733L14186.3297,-3992.9466L14186.3602,-3992.7334L14186.3998,-3992.68L14186.6501,-3992.5533L14187.0407,-3992.4065L14187.1307,-3992.4065L14187.1994,-3992.44L14187.2894,-3992.5331L14187.3596,-3992.5667L14187.4496,-3992.5865L14187.6495,-3992.5865L14187.6999,-3992.5865L14187.7701,-3992.6067L14187.8296,-3992.6598L14187.8799,-3992.7132L14187.8998,-3992.7868L14187.9501,-3992.7998L14188.1805,-3992.82L14188.2401,-3992.8398L14188.3804,-3992.8932L14188.5406,-3992.9466L14188.6993,-3993.0199L14188.7894,-3993.0733L14188.8992,-3993.1267L14188.9893,-3993.1667"/>
<path content="AP030,1,28,1,0,15,1,8,JPN" xlink:title="AP030" d="M14193.956,-3994.5477L14194.0247,-3994.0266L14193.631,-3993.1015L14193.5577,-3992.9314L14193.1015,-3992.4725L14192.1951,-3992.1326L14192.189,-3991.6122L14192.186,-3991.3807L14191.0202,-3990.2065"/>
<path content="AP030,1,28,1,0,14,1,8,JPN" xlink:title="AP030" d="M14188.9893,-3993.1667L14189.1495,-3993.1667L14189.3097,-3993.1465L14189.4302,-3993.1065L14189.5401,-3993.0531L14189.6805,-3993L14189.7202,-3992.9466L14190.3305,-3992.0666L14190.3595,-3992.0132L14190.3305,-3991.8133L14190.3793,-3991.7198L14190.4694,-3991.6531L14190.5594,-3991.56L14190.5807,-3991.5066L14190.5594,-3991.4665L14190.3793,-3991.3265L14190.3305,-3991.2865L14190.3107,-3991.2331L14190.2893,-3991.1667L14190.3107,-3991.0931L14190.4007,-3990.9267L14190.4907,-3990.7467L14190.5594,-3990.6399L14190.6494,-3990.4999L14190.7394,-3990.4598L14190.8997,-3990.3732L14191.0202,-3990.2065"/>
<path content="AP030,1,28,1,0,14,1,8,JPN" xlink:title="AP030" d="M14191.0202,-3990.2065L14191.0599,-3990.1531L14191.1301,-3990.0131L14191.2003,-3989.793L14191.2399,-3989.5397L14191.33,-3989.3997L14191.4001,-3989.2864L14191.4749,-3989.1918"/>
<path content="AP030,1,28,1,0,14,1,8,JPN" xlink:title="AP030" d="M14154.8996,-3993.9533L14154.95,-3993.94L14155.0598,-3993.8667L14155.1804,-3993.8133L14155.3604,-3993.7599L14155.6503,-3993.7401L14156.1096,-3993.7401L14156.1493,-3993.7199L14156.1798,-3993.6867L14156.1798,-3993.6665L14156.1493,-3993.6531L14156.0806,-3993.6333L14155.9494,-3993.6333L14155.8594,-3993.5932L14155.8105,-3993.56L14155.8105,-3993.5066L14155.9296,-3993.4334L14156.3293,-3993.1667L14156.4896,-3993.0733L14156.5598,-3993.0531L14156.6498,-3993.0733L14156.7703,-3993.0931L14156.8298,-3993.1267L14156.8604,-3993.1065L14156.9,-3993.0931L14156.9504,-3993.0733L14156.9901,-3993.0733L14157.0602,-3993.0931L14157.1793,-3993.1465L14157.2403,-3993.1667L14157.2906,-3993.1465L14157.3303,-3993.1065L14157.3303,-3993.0401L14157.2906,-3992.7998L14157.2906,-3992.6598L14157.2906,-3992.6067L14157.3303,-3992.5133L14157.5195,-3992.3332L14157.93,-3991.9533L14158.02,-3991.8999L14158.1802,-3991.7198L14158.3298,-3991.4867L14158.4503,-3991.3265L14158.4702,-3991.2533L14158.5403,-3991.1266L14158.6304,-3990.9866L14158.7204,-3990.86L14158.8806,-3990.7131L14159.1995,-3990.3732L14159.2896,-3990.2466L14159.3597,-3990.1199L14159.4498,-3989.8464L14159.6497,-3989.8331L14159.79,-3989.7598L14160.0601,-3989.6133L14160.3104,-3989.4531L14160.4004,-3989.3799L14160.4904,-3989.2532L14160.5606,-3989.1068L14160.5804,-3989.0732L14160.6094,-3989.0732L14160.6293,-3989.0533L14160.6995,-3989.0533L14160.7697,-3989.0732L14160.8795,-3989.093L14160.9299,-3989.093L14160.9695,-3989.0732L14161.0397,-3989.04L14161.0596,-3988.9866L14161.0596,-3988.9267L14161.0397,-3988.8733L14161.0397,-3988.8199L14161.0397,-3988.7867L14161.1496,-3988.6932L14161.2701,-3988.66L14161.3602,-3988.6398L14161.4304,-3988.6398L14161.5402,-3988.66L14161.5799,-3988.6932L14161.7401,-3988.8199L14161.8103,-3988.9133L14161.8805,-3988.9465L14161.9293,-3988.9866L14161.9705,-3988.9866L14161.9904,-3988.9999L14162.1994,-3988.9866L14162.2894,-3989.04L14162.4496,-3989.0732L14162.5198,-3989.04L14162.6099,-3988.9465L14162.7396,-3988.8733L14162.8799,-3988.7867L14163.0798,-3988.6932L14163.3102,-3988.5864L14163.3804,-3988.5532L14163.4506,-3988.4598L14163.5406,-3988.4266L14163.7405,-3988.3732"/>
<path content="AP030,1,28,1,0,15,1,8,JPN" xlink:title="AP030" d="M14174.2966,-3999.7841L14175.1678,-3997.9004L14175.6897,-3996.2959L14176.3,-3995.1099L14176.3,-3993.924L14176.0376,-3993.1568L14175.8621,-3990.7856L14175.7751,-3989.1811L14175.8621,-3988.1351L14176.384,-3987.5069L14177.6047,-3986.8092L14179.4342,-3985.9711L14180.7205,-3985.0201"/>
<path content="AP030,1,28,1,0,15,1,8,JPN" xlink:title="AP030" d="M14132.8125,-3987.8259L14134.7855,-3987.8201L14135.6873,-3987.8174L14136.9629,-3987.8712L14137.3383,-3987.7544L14137.8601,-3987.2322L14138.5376,-3987.4035L14139.5157,-3987.9208L14139.5142,-3987.6892L14139.36,-3986.9957L14139.4333,-3986.5326L14140.1077,-3986.4727L14141.0095,-3986.7588L14143.1122,-3986.7512L14143.6386,-3986.8649L14144.2398,-3987.1517L14144.8364,-3986.4552L14145.0577,-3985.8181L14145.2698,-3984.893"/>
<path content="AP030,1,28,1,0,14,1,8,JPN" xlink:title="AP030" d="M14191.4749,-3989.1918L14191.4703,-3989.1068L14191.4902,-3988.9999L14191.5405,-3988.8397L14191.6306,-3988.6799L14191.6794,-3988.5864L14191.6794,-3988.3732L14191.7007,-3988.2797L14191.7404,-3988.2267L14192.0593,-3988.0665L14192.1295,-3987.973L14192.2897,-3987.7934L14192.4301,-3987.7399L14192.9306,-3987.6667L14193.0603,-3987.6534L14193.1503,-3987.5931L14193.2205,-3987.4531L14193.2693,-3987.273L14193.3807,-3987.0399L14193.4006,-3986.9999L14193.5196,-3986.8599L14193.6493,-3986.7466L14193.7897,-3986.7332L14193.8797,-3986.7332L14193.9697,-3986.713L14194.0201,-3986.6932L14194.0201,-3986.6798L14194.1101,-3986.6066L14194.22,-3986.3731L14194.2398,-3986.2465L14194.2398,-3986.2064L14194.1498,-3986.1L14194.1299,-3986.0798L14194.1101,-3986.0466L14194.1101,-3985.9734L14194.1299,-3985.9398L14194.2001,-3985.8467L14194.31,-3985.7597L14194.4702,-3985.6331L14194.5206,-3985.6133L14194.6503,-3985.5801L14194.7906,-3985.5064L14195.1996,-3985.0731L14195.2698,-3984.9998L14195.3094,-3984.9266L14195.3598,-3984.8198L14195.43,-3984.6931L14195.4895,-3984.6397L14195.5597,-3984.6397L14195.61,-3984.66L14195.6299,-3984.6931L14195.6802,-3984.7332L14195.7397,-3984.7332L14195.7993,-3984.7443L14195.8099,-3984.7466L14195.8298,-3984.7866L14195.8298,-3984.893L14195.8298,-3984.9266L14195.8603,-3984.9464L14195.9305,-3984.9464L14196.0205,-3984.9266L14196.1105,-3984.893L14196.1807,-3984.8598L14196.3593,-3984.7466L14196.4493,-3984.6798"/>
<path content="AP030,1,28,1,0,15,1,8,JPN" xlink:title="AP030" d="M14185.8795,-3984.1198L14187.3123,-3986.2133L14188.53,-3987.5343L14189.1357,-3987.9345L14189.2487,-3988.7058L14189.9307,-3988.4617L14190.6006,-3988.5193L14190.9134,-3988.6177L14191.4749,-3989.1918"/>
<path content="AP030,1,28,1,0,14,1,8,JPN" xlink:title="AP030" d="M14145.2698,-3984.893L14145.5399,-3984.8198L14145.6299,-3984.7668L14145.8603,-3984.5531L14145.9305,-3984.4601L14146.1304,-3984.3731L14146.2402,-3984.3201L14146.3593,-3984.2464L14146.4706,-3984.1732L14146.5805,-3984.1L14146.8597,-3984.0668L14147.3999,-3984.1331L14147.9507,-3984.0797L14148.2407,-3984.0797L14148.5199,-3984.1L14148.7,-3984.1L14149.0402,-3984.0797L14149.1501,-3984.1L14149.3301,-3984.1732L14149.4705,-3984.193L14149.5804,-3984.2266L14149.6796,-3984.2999L14149.7696,-3984.3864L14149.8093,-3984.4997L14149.8306,-3984.6199L14149.7696,-3984.8L14149.6796,-3985.0399L14149.6094,-3985.1799L14149.6307,-3985.2734L14149.7192,-3985.3065L14149.8093,-3985.3065L14149.8306,-3985.2867L14149.8093,-3985.2333L14149.7894,-3985.1799L14149.7894,-3985.1265L14149.8596,-3985.0933L14149.9496,-3985.0731L14150.2197,-3985.0731L14150.2899,-3985.0399L14150.3296,-3984.9865L14150.5203,-3984.9133L14150.6302,-3984.8732L14150.7904,-3984.9133L14150.9293,-3984.9266L14151.0605,-3984.9464L14151.4496,-3984.9998L14151.6998,-3984.9865L14151.8097,-3984.9865L14151.8799,-3984.9667L14151.9501,-3984.9266L14151.9699,-3984.9133L14151.9302,-3984.8598L14151.8295,-3984.7866L14151.8097,-3984.7668L14151.8295,-3984.7134L14151.8997,-3984.7134L14151.9897,-3984.7466L14152.0599,-3984.8198L14152.1103,-3984.8598L14152.0798,-3984.9266L14152.0401,-3985.0201L14151.9699,-3985.1067L14151.86,-3985.1665L14151.7899,-3985.1799L14151.6998,-3985.22L14151.68,-3985.2531L14151.7395,-3985.3065L14151.7899,-3985.3065L14151.8295,-3985.36L14151.86,-3985.4332L14151.8997,-3985.5064L14151.9501,-3985.5064L14151.9897,-3985.4668L14152.0203,-3985.4134L14152.0401,-3985.3466L14152.0798,-3985.2734L14152.2003,-3985.2531L14152.2705,-3985.2333L14152.3102,-3985.22L14152.3605,-3985.1665L14152.4506,-3984.9667L14152.5406,-3984.9133L14152.6794,-3984.893L14152.7405,-3984.9133L14152.9007,-3984.9865L14153.1296,-3985.0533L14153.2898,-3985.0933L14153.4897,-3985.1067L14153.6499,-3985.1467L14153.7003,-3985.22L14153.7704,-3985.3065L14153.8605,-3985.3798L14153.9505,-3985.4L14154.0604,-3985.4L14154.1504,-3985.3798L14154.3106,-3985.3466L14154.4296,-3985.3466L14154.5593,-3985.3798L14154.6295,-3985.4332L14154.6997,-3985.5598L14154.7897,-3985.6533L14154.8798,-3985.7067L14154.95,-3985.7201L14155.04,-3985.7201L14155.1498,-3985.6865L14155.3101,-3985.5801L14155.4703,-3985.5064L14155.5603,-3985.5267L14155.7007,-3985.6133L14155.8807,-3985.8467L14155.9494,-3986.013L14155.9906,-3986.2267L14156.0196,-3986.4067L14156.0806,-3986.4998L14156.1996,-3986.5532L14156.3797,-3986.6066L14156.5598,-3986.713L14156.6498,-3986.7466L14156.9305,-3986.7466L14157.2006,-3986.8198L14157.2693,-3986.8L14157.3807,-3986.7332L14157.4493,-3986.713L14157.5394,-3986.7332L14157.8094,-3986.7867L14158.0795,-3986.8401L14158.1802,-3986.8401L14158.2397,-3986.8931L14158.4503,-3987.0533L14158.7006,-3987.1799L14158.7906,-3987.1998L14159.7,-3987.1998L14159.79,-3987.1799L14159.8297,-3987.1265L14159.8801,-3987.0731L14159.8999,-3987.0197L14159.9701,-3987.0399L14160.1105,-3987.0934L14160.4294,-3987.1998L14160.5804,-3987.2532L14160.6293,-3987.1799L14160.6796,-3987.1067L14160.7407,-3987.0731L14160.8597,-3987.0731L14161.0199,-3987.0533L14161.1298,-3987.0399L14161.2701,-3987.0399L14161.3297,-3987.0399L14161.4502,-3987.0934L14161.5799,-3987.0934L14161.7706,-3987.1265L14161.9507,-3987.2334L14162.1506,-3987.3798L14162.2406,-3987.4001L14162.3596,-3987.3798L14162.5198,-3987.36L14162.6495,-3987.36L14162.7197,-3987.413L14162.8601,-3987.5267L14162.9501,-3987.5401L14163.06,-3987.5931L14163.3301,-3987.7399L14163.4506,-3987.8468L14163.5803,-3988.0264L14163.6795,-3988.1931L14163.7405,-3988.3732"/>
<path content="AP030,1,28,1,0,14,1,8,JPN" xlink:title="AP030" d="M14180.7205,-3985.0201L14180.9494,-3984.9998L14181.2195,-3984.9464L14181.4301,-3984.893L14181.7001,-3984.8598L14182.0602,-3984.8732L14182.3593,-3984.9464L14182.5607,-3984.9667L14182.6797,-3984.9266L14182.8293,-3984.8598L14182.93,-3984.7866L14183.11,-3984.7134L14183.1802,-3984.66L14183.2199,-3984.6397L14183.4305,-3984.5531L14183.5403,-3984.4601L14183.7006,-3984.4067L14184.0393,-3984.4398L14184.3597,-3984.4997L14184.6298,-3984.5333L14184.8999,-3984.5333L14185.0403,-3984.5131L14185.1501,-3984.4265L14185.2203,-3984.28L14185.3806,-3984.1198L14185.4706,-3984.0267"/>
<path content="AP030,1,28,1,0,14,1,8,JPN" xlink:title="AP030" d="M14185.4706,-3984.0267L14185.5804,-3983.9931L14185.7193,-3984.0267L14185.8795,-3984.1198"/>
<path content="AP030,1,28,1,0,14,1,8,JPN" xlink:title="AP030" d="M14185.8795,-3984.1198L14186.1298,-3984.2598L14186.3998,-3984.4067L14186.5402,-3984.4398L14186.7401,-3984.4398L14186.9507,-3984.3864L14187.0605,-3984.3201L14187.1796,-3984.2598L14187.2696,-3984.2464L14187.3795,-3984.28L14187.4893,-3984.333L14187.6297,-3984.4601L14187.7197,-3984.5665L14187.7701,-3984.66L14187.8296,-3984.6798L14187.9303,-3984.66L14188.1302,-3984.66L14188.2706,-3984.66L14188.3804,-3984.6066L14188.4903,-3984.5333L14188.7695,-3984.3864L14188.9297,-3984.2999L14189.1296,-3984.1732L14189.2899,-3984.1331L14189.4897,-3984.193L14189.5798,-3984.2999L14189.7003,-3984.5131L14189.8804,-3984.6798L14190.0406,-3984.7668L14190.1993,-3984.7866L14190.4007,-3984.7866L14190.5197,-3984.7332L14190.6998,-3984.6199L14190.8096,-3984.5131L14190.9302,-3984.4265L14191.1102,-3984.333L14191.1804,-3984.2266L14191.4307,-3983.9733L14191.5405,-3983.8665L14191.6504,-3983.8333L14191.9006,-3983.8131L14192.1097,-3983.8131L14192.2897,-3983.7601L14192.4301,-3983.72L14192.6102,-3983.773L14192.7902,-3983.8333L14192.9306,-3983.8867L14192.9901,-3983.8867L14193.0603,-3983.8867L14193.1305,-3983.8467L14193.2007,-3983.7933L14193.2693,-3983.72L14193.3304,-3983.7067L14193.4692,-3983.72L14193.5394,-3983.7601L14193.6798,-3983.8333L14193.8995,-3983.9531L14194.0796,-3984.0668L14194.1803,-3984.1534L14194.2703,-3984.2598L14194.3802,-3984.3533L14194.4702,-3984.4265L14194.5602,-3984.4398L14194.6503,-3984.4398L14194.8807,-3984.3864L14195.0195,-3984.333L14195.1096,-3984.333L14195.1797,-3984.3201L14195.2393,-3984.2999L14195.3094,-3984.2464L14195.4697,-3984.2068L14195.61,-3984.2068L14195.7199,-3984.2068L14195.8298,-3984.2266L14195.9198,-3984.2415L14195.9503,-3984.2464L14195.99,-3984.2598L14196.1105,-3984.333L14196.2204,-3984.4601L14196.2906,-3984.5333L14196.3593,-3984.6066L14196.4493,-3984.6798"/>
<path content="AP030,1,28,1,0,14,1,8,JPN" xlink:title="AP030" d="M14163.7405,-3988.3732L14163.8107,-3988.3533L14163.9496,-3988.3331L14164.0198,-3988.3198L14164.0396,-3988.2599L14164.0594,-3988.2065L14164.1098,-3988.1733L14164.1495,-3988.1332L14164.3295,-3988.1199L14164.3997,-3988.0798L14164.4699,-3988.0131L14164.5401,-3987.8998L14164.6103,-3987.8468L14164.6805,-3987.833L14164.9002,-3987.7934L14164.9902,-3987.7598L14165.0604,-3987.7068L14165.1794,-3987.5797L14165.1993,-3987.5267L14165.3107,-3987.4664L14165.4495,-3987.4531L14165.6494,-3987.4531L14165.7196,-3987.4531L14165.8096,-3987.3798L14165.95,-3987.2334L14166.0797,-3987.1265L14166.2399,-3987.0197L14166.4703,-3986.9267L14166.6504,-3986.8732L14166.9006,-3986.7332L14167.1097,-3986.5665L14167.3096,-3986.4265L14167.4301,-3986.2999L14167.54,-3986.153L14167.5598,-3986.1198L14167.6102,-3986.0664L14167.7002,-3986.0268L14167.8299,-3986.0268L14167.9504,-3985.9932L14168.0206,-3985.9398L14168.0603,-3985.7933L14168.0801,-3985.6667L14168.1305,-3985.5267L14168.2007,-3985.453L14168.3807,-3985.2734L14168.4494,-3985.22L14168.6493,-3985.0399L14168.8293,-3984.893L14168.9697,-3984.7668L14169.0201,-3984.7332L14169.0598,-3984.7332L14169.1498,-3984.7134L14169.2703,-3984.6931L14169.3604,-3984.66L14169.5404,-3984.6199L14169.6304,-3984.6199L14169.7693,-3984.6931L14169.8593,-3984.7668L14169.9005,-3984.8198L14170.0195,-3984.8598L14170.0806,-3984.893L14170.1492,-3984.893L14170.2194,-3984.8732L14170.2896,-3984.84L14170.3094,-3984.8L14170.3094,-3984.5665L14170.3293,-3984.4398L14170.3598,-3984.28L14170.3598,-3984.1L14170.3598,-3983.8467L14170.3995,-3983.7399L14170.4697,-3983.6864L14170.5795,-3983.6132L14170.7397,-3983.58L14170.8099,-3983.5598L14170.8603,-3983.5266L14170.9305,-3983.4667L14171.0205,-3983.4332L14171.2006,-3983.4133L14171.2402,-3983.4133L14171.3806,-3983.3797L14171.6095,-3983.3267L14171.7697,-3983.2867L14171.8307,-3983.2867L14171.9299,-3983.2733L14172.2,-3983.2199L14172.29,-3983.2001L14172.3297,-3983.1467L14172.3602,-3983.0532L14172.4304,-3982.9266L14172.5204,-3982.8598L14172.58,-3982.7999L14172.6105,-3982.7866"/>
<path content="AP030,1,28,1,0,14,1,8,JPN" xlink:title="AP030" d="M14172.6105,-3982.7866L14172.6501,-3982.84L14172.7203,-3982.9132L14172.8104,-3982.9468L14172.8806,-3982.9468L14172.9706,-3982.8934L14173.0392,-3982.8598L14173.1003,-3982.7976L14173.1094,-3982.7866L14173.1796,-3982.7667L14173.2895,-3982.7465L14173.3307,-3982.8197L14173.3307,-3982.9998L14173.3307,-3983.0437L14173.3307,-3983.1264L14173.3093,-3983.2333L14173.3597,-3983.3267L14173.4695,-3983.4L14173.6099,-3983.4332L14173.7396,-3983.4332L14173.9304,-3983.4332L14174.0204,-3983.4L14174.1104,-3983.3065L14174.1333,-3983.2771L14174.1806,-3983.2199L14174.2401,-3983.1467L14174.3103,-3983.1066L14174.3805,-3983.1264L14174.4507,-3983.1665L14174.5193,-3983.3065L14174.6307,-3983.5068L14174.8306,-3983.8467L14174.9847,-3984.0572L14175.0397,-3984.1331L14175.1099,-3984.2266L14175.1801,-3984.28L14175.2396,-3984.3201L14175.3296,-3984.333L14175.4501,-3984.333L14175.5203,-3984.2999L14175.6302,-3984.2068L14175.7706,-3984.1L14175.9003,-3983.9199L14175.9705,-3983.8131L14176.0803,-3983.7601L14176.1505,-3983.7399L14176.2695,-3983.8131L14176.6495,-3984.0797L14176.8097,-3984.1534L14177.0203,-3984.2464L14177.15,-3984.28L14177.24,-3984.2598L14177.2705,-3984.2598L14177.5803,-3984.193L14177.7405,-3984.1732L14177.7893,-3984.193L14177.8107,-3984.2464L14177.8107,-3984.3533L14177.9007,-3984.5131L14178.0197,-3984.6397L14178.1296,-3984.7134L14178.27,-3984.7866L14178.3798,-3984.8L14178.4897,-3984.8198L14178.6102,-3984.8198L14178.7704,-3984.8L14178.9001,-3984.7866L14179.3793,-3984.7668L14179.5395,-3984.7332L14179.6799,-3984.6931L14179.8096,-3984.66L14179.9698,-3984.6931L14180.1804,-3984.7668L14180.3101,-3984.8598L14180.4001,-3984.9133L14180.4703,-3984.9464L14180.6107,-3985.0201L14180.7205,-3985.0201"/>
<path content="AP030,1,28,1,0,14,1,8,JPN" xlink:title="AP030" d="M14168.4906,-3979.8332L14168.5593,-3979.8866L14168.5394,-3979.9934L14168.5196,-3980.1201L14168.5394,-3980.1731L14168.5806,-3980.2467L14168.6493,-3980.2799L14168.6996,-3980.3867L14168.6996,-3980.5L14168.7393,-3980.5866L14168.8599,-3980.6065L14168.9499,-3980.64L14169.0399,-3980.64L14169.1101,-3980.6801L14169.4504,-3980.7999L14169.4901,-3980.8399L14169.4901,-3980.8735L14169.4763,-3980.9986L14169.4702,-3981.0532L14169.4702,-3981.1066L14169.5404,-3981.1798L14169.6106,-3981.2199L14169.6793,-3981.2199L14169.7403,-3981.2332L14169.7403,-3981.2534L14169.7693,-3981.2733L14169.8105,-3981.3065L14169.8303,-3981.3599L14169.8807,-3981.3801L14169.9005,-3981.3801L14169.9493,-3981.3801L14170.1096,-3981.2866L14170.1797,-3981.2534L14170.2393,-3981.2534L14170.2896,-3981.2534L14170.3293,-3981.2866L14170.3293,-3981.3267L14170.3293,-3981.3801L14170.3598,-3981.3999L14170.4498,-3981.3999L14170.5597,-3981.4133L14170.6802,-3981.4335L14170.7199,-3981.4667L14170.7397,-3981.5067L14170.7397,-3981.7398L14170.7397,-3981.7734L14170.7901,-3981.8134L14170.8603,-3981.8333L14170.9503,-3981.8665L14171.08,-3981.8867L14171.2006,-3981.8867L14171.2402,-3981.8665L14171.2906,-3981.8466L14171.3303,-3981.8134L14171.4005,-3981.8134L14171.4706,-3981.8134L14171.4905,-3981.8333L14171.5393,-3981.8867L14171.5805,-3981.9L14171.6293,-3981.9L14171.6507,-3981.8665L14171.6995,-3981.8134L14171.7407,-3981.8134L14171.7896,-3981.8134L14171.8094,-3981.8665L14171.8597,-3981.9L14171.9498,-3982.0133L14171.9894,-3982.0667L14172.0795,-3982.0801L14172.1298,-3982.0801L14172.2,-3982.0465L14172.2397,-3982.0133L14172.3099,-3981.9199L14172.3602,-3981.8867L14172.4304,-3981.8867L14172.4701,-3981.9L14172.5204,-3981.9199L14172.5403,-3982.0133L14172.6105,-3982.1198L14172.6501,-3982.1732L14172.7203,-3982.1934L14172.7707,-3982.2067L14172.7905,-3982.2598L14172.7905,-3982.3532L14172.7905,-3982.46L14172.8104,-3982.6065L14172.7707,-3982.6935L14172.6105,-3982.7866"/>
<path content="AP030,1,28,1,0,14,1,8,JPN" xlink:title="AP030" d="M14132.8125,-3978.2808L14133.0399,-3978.3867L14133.3298,-3978.4798L14133.5205,-3978.5332L14133.6304,-3978.5332L14133.7402,-3978.5L14133.8303,-3978.4798L14133.9493,-3978.4798L14134.2407,-3978.5L14134.3094,-3978.5332L14134.3597,-3978.6064L14134.4498,-3978.6934L14134.52,-3978.7464L14134.61,-3978.7998L14134.6298,-3978.8933L14134.6298,-3978.9997L14134.5795,-3979.0733L14134.5596,-3979.1664L14134.52,-3979.2866L14134.52,-3979.3598L14134.5398,-3979.4334L14134.61,-3979.5399L14134.6802,-3979.5799L14134.9503,-3979.6532L14135.1105,-3979.6867L14135.5194,-3979.7398L14135.5804,-3979.76L14135.6293,-3979.7733L14135.7697,-3979.94L14136.0596,-3980.1731L14136.0794,-3980.2601L14136.1099,-3980.3734L14136.1801,-3980.5L14136.29,-3980.6801L14136.3098,-3980.8201L14136.3098,-3980.8598L14136.29,-3980.9666L14136.2,-3981.0932L14135.8597,-3981.4133L14135.8597,-3981.4865L14135.9299,-3981.5598L14136.1099,-3981.7066L14136.1801,-3981.7932L14136.2,-3981.8867L14136.2,-3982.1198L14136.1801,-3982.1533L14136.0596,-3982.28L14135.9299,-3982.3532L14135.8994,-3982.4265L14135.9299,-3982.5134L14135.9497,-3982.5867L14135.9894,-3982.6199L14136.1099,-3982.6797L14136.2,-3982.7133L14136.2396,-3982.7133L14136.3098,-3982.6935L14136.38,-3982.6401L14136.6302,-3982.4066L14136.7004,-3982.3734L14136.7401,-3982.3734L14136.7905,-3982.4066L14136.9293,-3982.5134L14136.9705,-3982.5535L14137.0407,-3982.5535L14137.3093,-3982.4799L14137.4893,-3982.4398L14137.6495,-3982.46L14137.7197,-3982.5001L14137.8098,-3982.5001L14138.1104,-3982.5001L14138.1805,-3982.5134L14138.2706,-3982.5535L14138.6093,-3982.7667L14138.6993,-3982.7999L14138.7695,-3982.7999L14138.8596,-3982.7999L14139.1495,-3982.7999L14139.4501,-3982.84L14139.8102,-3982.8934L14140.0192,-3982.9666L14140.1794,-3983.0532L14140.2695,-3983.1264L14140.3107,-3983.2199L14140.3793,-3983.2867L14140.6296,-3983.4667L14140.8295,-3983.6132L14140.86,-3983.6334L14140.9302,-3983.6666L14141.0202,-3983.7067L14141.1301,-3983.72L14141.2903,-3983.7601L14141.4001,-3983.8131L14141.4505,-3983.9199L14141.4703,-3983.9531L14141.4902,-3983.9931L14141.5207,-3984.0267L14141.5604,-3984.0797L14141.6107,-3984.1198L14141.7892,-3984.2068L14141.9006,-3984.2598L14141.9495,-3984.2598L14142.0395,-3984.2266L14142.1097,-3984.193L14142.3096,-3984.1732L14142.4896,-3984.193L14142.5797,-3984.2464L14142.7704,-3984.4067L14142.8101,-3984.4398L14142.9504,-3984.5867L14143.1107,-3984.7134L14143.1793,-3984.7466L14143.2693,-3984.7668L14143.4006,-3984.7668L14143.5196,-3984.7466L14143.8293,-3984.6199L14143.9499,-3984.5665L14144.1299,-3984.4997L14144.2902,-3984.4398L14144.3604,-3984.4601L14144.4901,-3984.4997L14144.5602,-3984.5531L14144.7006,-3984.6798L14144.8105,-3984.8198L14144.8593,-3984.84L14144.9295,-3984.8732L14145.0607,-3984.9133L14145.2698,-3984.893"/>
<path content="AP030,1,28,1,0,14,1,8,JPN" xlink:title="AP030" d="M14196.4493,-3984.6798L14196.8307,-3984.333L14196.9299,-3984.193L14197.02,-3984.1L14197.0596,-3984.0466L14197.3602,-3983.9397L14197.5403,-3983.9001L14197.8104,-3983.7601L14197.8104,-3983.4667L14197.7905,-3983.3599L14197.7707,-3983.2867L14197.6807,-3983.2535L14197.58,-3983.2199L14197.4701,-3983.1467L14197.4304,-3983.0734L14197.3999,-3983.0399L14197.3801,-3982.9865L14197.2702,-3982.7999L14197.2198,-3982.7332L14197.1497,-3982.6599L14197.0596,-3982.6401L14196.6995,-3982.6401L14196.5607,-3982.5867L14196.3806,-3982.4265L14196.2875,-3982.3334L14196.2006,-3982.2468L14196.1502,-3982.1198L14196.08,-3981.8867L14196.0602,-3981.6868L14196.0205,-3981.2733L14195.9702,-3981.1798L14195.9,-3981.1268L14195.8099,-3981.0398L14195.7397,-3980.8201L14195.8298,-3980.6801L14195.8603,-3980.6801L14195.9305,-3980.6599L14196.0205,-3980.6801L14196.0403,-3980.7465L14196.0602,-3980.8399L14196.08,-3980.9132L14196.1304,-3980.9132L14196.2006,-3980.9265L14196.2921,-3980.9265L14196.3104,-3980.9265L14196.4294,-3980.9132L14196.6095,-3980.8598L14196.8094,-3980.7865L14196.8796,-3980.7667L14196.9498,-3980.7465L14197.02,-3980.7667L14197.3297,-3980.9265L14197.3999,-3980.9467L14197.4701,-3980.9265L14197.4701,-3980.9132L14197.4899,-3980.8735L14197.4899,-3980.8399L14197.4701,-3980.7999L14197.3297,-3980.6801L14197.1802,-3980.3867L14197.1497,-3980.3532L14197.0398,-3980.3333L14196.7697,-3980.3532L14196.7194,-3980.3333L14196.6797,-3980.2998L14196.4905,-3980.08L14196.4294,-3980.0465L14196.2967,-3980.0079L14195.99,-3979.9198L14195.9305,-3979.8664L14195.9,-3979.8332L14195.8298,-3979.3999L14195.8603,-3979.3465L14196.0403,-3978.9665L14196.0602,-3978.8734L14196.0602,-3978.7865L14196.1105,-3978.5332L14196.0602,-3978.4397L14195.9305,-3978.1933L14195.9,-3978.0132L14195.9305,-3977.8999L14196.0205,-3977.8133L14196.1502,-3977.6333L14196.1807,-3977.5398L14196.2402,-3977.3598L14196.2906,-3977.1065L14196.3104,-3977.0199L14196.2402,-3976.8734L14196.2692,-3976.7334L14196.4706,-3976.6197L14196.6293,-3976.5133L14196.6293,-3976.4065L14196.5805,-3976.2264L14196.5607,-3976.1333L14196.5195,-3975.8667L14196.4905,-3975.4131L14196.4905,-3975.3597L14196.8307,-3974.8199L14196.8597,-3974.7997L14196.8994,-3974.7868L14196.9696,-3974.7925L14197.0596,-3974.7997L14197.1298,-3974.7997L14197.1497,-3974.7665L14197.1802,-3974.7131L14197.1802,-3974.5667L14197.2,-3974.5533L14197.2198,-3974.5132L14197.3297,-3974.4801L14197.3999,-3974.4801L14197.4503,-3974.4598L14197.4503,-3974.4064L14197.3999,-3974.3332L14197.3602,-3974.2798L14197.2702,-3974.1531L14197.2397,-3974.0665L14197.1497,-3973.7598L14197.0795,-3973.6534L14197.0398,-3973.6332L14196.9498,-3973.6134L14196.8597,-3973.5931L14196.7896,-3973.5397L14196.6995,-3973.3601L14196.6797,-3973.3067L14196.6507,-3973.2334"/>
<path content="AP030,1,28,1,0,15,1,8,JPN" xlink:title="AP030" d="M14184.1965,-3976.8669L14185.6125,-3976.1623L14186.2122,-3976.1581L14187.7182,-3976.783L14187.9333,-3976.0296L14188.5269,-3975.5043L14189.2731,-3975.3254L14191.362,-3974.6151L14192.9413,-3975.0072L14193.8965,-3973.6115L14196.2692,-3973.2857L14196.6507,-3973.2334"/>
<path content="AP030,1,28,1,0,14,1,8,JPN" xlink:title="AP030" d="M14196.6507,-3973.2334L14196.5607,-3973.0198L14196.5195,-3972.86L14196.5607,-3972.8001L14196.6095,-3972.7665L14196.7896,-3972.7135L14196.8307,-3972.6799L14196.8597,-3972.6601L14196.8307,-3972.6067L14196.7896,-3972.4598L14196.7407,-3972.3534L14196.7407,-3972.1535L14196.7194,-3971.9532L14196.7194,-3971.8468L14196.7194,-3971.7731L14196.7407,-3971.74L14196.7697,-3971.7068L14196.8307,-3971.5797L14196.8307,-3971.4664L14196.8307,-3971.3799L14196.8094,-3971.2734L14196.5393,-3970.9866L14196.4493,-3970.9267L14196.2402,-3970.8401L14196.2006,-3970.7664L14196.1502,-3970.6398L14196.1105,-3970.62L14195.8603,-3970.5334L14195.6802,-3970.4067L14195.52,-3970.2599L14195.3094,-3970.0134L14195.1996,-3969.8666L14195.1096,-3969.6667L14195.0607,-3969.4668L14195.0607,-3969.3268L14195.1294,-3968.9667L14195.1492,-3968.8599L14195.1797,-3968.6932L14195.2393,-3968.4998L14195.2896,-3968.3865L14195.3293,-3968.2999L14195.4498,-3968.1332L14195.6299,-3967.9733L14195.7001,-3967.8665L14195.7001,-3967.7601L14195.7001,-3967.6533L14195.8099,-3967.5598L14195.9702,-3967.4534L14196.0403,-3967.3798L14196.0403,-3967.3065L14196.0205,-3967.2199L14195.8801,-3966.9998L14195.8099,-3966.9464L14195.52,-3966.7667L14195.43,-3966.6798L14195.2393,-3966.5531L14195.1096,-3966.4398L14195.0806,-3966.2598L14195.0195,-3966.0999L14195.0394,-3965.9199L14195.1797,-3965.7398L14195.3796,-3965.58L14195.5399,-3965.4865L14195.6497,-3965.4331L14195.6497,-3965.3465L14195.7199,-3965.2L14195.8099,-3965.0734L14196.0205,-3964.9467L14196.0602,-3964.9265L14196.2906,-3964.8399L14196.3104,-3964.8197L14196.4005,-3964.7667L14196.4493,-3964.7133L14196.4706,-3964.64L14196.4706,-3964.5535L14196.4294,-3964.3734L14196.3806,-3964.2597L14196.3593,-3964.1933L14196.3303,-3964.1731L14196.2006,-3964.1933L14196.1304,-3964.2067"/>
<path content="AP030,1,28,1,0,14,1,8,JPN" xlink:title="AP030" d="M14195.7474,-3963.9839L14195.8603,-3964.0266L14196.0403,-3964.1197L14196.1304,-3964.2067"/>
<path content="AP030,1,28,1,0,14,1,8,JPN" xlink:title="AP030" d="M14196.1304,-3964.2067L14196.0403,-3964.2467L14195.9305,-3964.2597L14195.8298,-3964.2597L14195.7901,-3964.2467L14195.7397,-3964.1731L14195.7397,-3964.0999L14195.7397,-3963.9935L14195.7474,-3963.9839"/>
<path content="AP030,1,28,1,0,14,1,8,JPN" xlink:title="AP030" d="M14195.3598,-3963.7733L14195.3827,-3963.7852L14195.3995,-3963.7932L14195.4895,-3963.8466L14195.6299,-3963.94L14195.7474,-3963.9839"/>
<path content="AP030,1,28,1,0,15,1,8,JPN" xlink:title="AP030" d="M14185.4706,-3984.0267L14186.4395,-3982.4028L14186.4304,-3981.6509L14186.3464,-3980.9574L14185.2966,-3981.023L14184.9228,-3981.0257L14183.3786,-3980.1849L14183.0292,-3979.9427L14182.7652,-3979.6104L14182.6904,-3979.3217L14182.4982,-3978.9448L14181.9916,-3978.7704L14181.34,-3978.6304L14181.0928,-3978.4763L14181.0333,-3978.2318L14181.0165,-3978.1097L14180.9723,-3978.0098L14180.6244,-3977.8564L14180.3925,-3977.7355L14180.275,-3977.6138L14180.2017,-3977.4475L14180.2444,-3977.3804L14180.4016,-3977.3682L14181.2943,-3977.1839L14181.8665,-3976.2474L14182.5394,-3976.1848L14182.9117,-3975.9506L14183.2794,-3975.3696L14183.2703,-3974.6178L14183.1894,-3974.1558L14183.4076,-3973.576L14183.699,-3972.8798L14185.7178,-3972.6337L14186.4609,-3972.1653L14187.1246,-3971.2929L14187.7945,-3970.9988L14188.9175,-3970.99L14189.5142,-3970.7542L14190.2557,-3970.2278L14191.9006,-3970.0417L14192.421,-3969.7483L14193.0817,-3968.8175L14192.9276,-3968.4139L14193.1884,-3967.7495L14193.2295,-3967.1319L14193.5043,-3966.8015L14193.8745,-3966.4389L14194.2588,-3964.7852L14194.1696,-3964.6205L14193.6344,-3964.4901L14192.7835,-3964.0852L14192.2897,-3963.2198"/>
<path content="AP030,1,28,1,0,15,1,8,JPN" xlink:title="AP030" d="M14145.5399,-3963.3465L14145.4605,-3967.1928L14145.3201,-3968.755L14145.0302,-3970.2023L14145.1111,-3971.1273L14144.4427,-3971.8819L14143.7729,-3972.5784L14143.9285,-3973.5031L14145.2042,-3973.8453L14145.5811,-3974.3645L14145.9595,-3974.8837L14146.8597,-3975.0534L14147.908,-3974.9912L14148.6542,-3974.4099L14149.7787,-3974.4629L14150.4547,-3974.6914L14150.9094,-3975.4414L14152.4216,-3977.2274L14153.1082,-3978.7281L14154.3076,-3978.7804L14155.5069,-3978.7746L14156.7825,-3978.9997L14159.2606,-3979.4502L14159.6405,-3980.0266L14160.022,-3980.7186L14160.7712,-3980.5992L14160.9894,-3979.9038L14162.1155,-3980.0137L14162.793,-3980.357L14163.9954,-3980.6396L14165.1184,-3980.46L14167.4423,-3980.2731L14167.659,-3980.1819L14168.4906,-3979.8332"/>
<path content="AP030,1,28,1,0,14,1,8,JPN" xlink:title="AP030" d="M14132.8125,-3966.8869L14132.8995,-3966.8934L14132.9895,-3966.8934L14133.0399,-3966.9266L14133.0399,-3966.9865L14132.9895,-3967.0399L14132.9498,-3967.0933L14132.8598,-3967.1066L14132.8125,-3967.156M14132.8125,-3967.2107L14132.8293,-3967.2333L14132.8796,-3967.2531L14132.9498,-3967.2531L14133.02,-3967.2333L14133.1299,-3967.1799L14133.2001,-3967.1665L14133.2901,-3967.1665L14133.3298,-3967.1799L14133.3801,-3967.1665L14133.4,-3967.1467L14133.4305,-3967.1066L14133.4,-3967.0532L14133.3603,-3966.9998L14133.3099,-3966.9666L14133.2703,-3966.8934L14133.2703,-3966.7332L14133.2397,-3966.6397L14133.2001,-3966.5665L14133.1299,-3966.5134L14133.0399,-3966.4997L14132.93,-3966.4799L14132.8125,-3966.4408M14132.8125,-3966.2918L14132.8598,-3966.28L14133.0795,-3966.2998L14133.2001,-3966.2598L14133.2901,-3966.2067L14133.4305,-3966.1533L14133.5403,-3966.1331L14133.6304,-3966.1198L14133.7402,-3966.0465L14133.8303,-3965.9397L14134.0393,-3965.7734L14134.2194,-3965.6666L14134.3307,-3965.6532L14134.4498,-3965.6666L14134.5398,-3965.6864L14134.61,-3965.6864L14134.6497,-3965.6864L14134.8099,-3965.6334L14134.8206,-3965.6261L14134.9503,-3965.5399L14135.08,-3965.4533L14135.3302,-3965.2866L14135.8307,-3964.9666L14136.0199,-3964.8598L14136.2,-3964.7999L14136.6806,-3964.6797L14137.0605,-3964.5664L14137.2192,-3964.5332L14137.5595,-3964.4264L14137.7701,-3964.3734L14137.9501,-3964.3532L14138.6093,-3964.4066L14139.27,-3964.4398L14139.7202,-3964.4398L14140.0803,-3964.4066L14140.2893,-3964.3734L14140.4907,-3964.32L14140.7196,-3964.2597L14140.8096,-3964.2467L14141.4307,-3964.2265L14142.0593,-3964.2067L14142.1997,-3964.2067L14142.3294,-3964.1731L14142.5797,-3964.0667L14142.7704,-3963.9732L14142.9306,-3963.94L14143.1107,-3963.9L14143.3807,-3963.8866L14143.5394,-3963.8664L14143.6996,-3963.8332L14143.8293,-3963.7733L14143.9499,-3963.7199L14144.0399,-3963.6532L14144.22,-3963.5597L14144.31,-3963.5265L14144.3802,-3963.5067L14144.5206,-3963.5265L14144.8105,-3963.5399L14145.0394,-3963.5265L14145.1996,-3963.5067L14145.3598,-3963.4533L14145.5399,-3963.3465"/>
<path content="AP030,1,28,1,0,14,1,8,JPN" xlink:title="AP030" d="M14168.4906,-3979.8332L14168.4296,-3979.7932L14168.3594,-3979.76L14168.3105,-3979.7398L14168.2693,-3979.7199L14168.2907,-3979.6532L14168.3304,-3979.5265L14168.3304,-3979.4533L14168.3594,-3979.3064L14168.3304,-3979.2332L14168.3807,-3979.1065L14168.4006,-3979.0932L14168.4006,-3978.8597L14168.4296,-3978.7998L14168.4906,-3978.7865L14168.5196,-3978.7464L14168.5196,-3978.7334L14168.4692,-3978.7132L14168.4494,-3978.6934L14168.4494,-3978.6598L14168.4494,-3978.6198L14168.4692,-3978.5332L14168.5196,-3978.4065L14168.5593,-3978.3199L14168.5806,-3978.2799L14168.5593,-3978.2467L14168.5394,-3978.1933L14168.5196,-3978.12L14168.5196,-3978.0464L14168.5593,-3977.9533L14168.5593,-3977.8999L14168.4296,-3977.5932L14168.4296,-3977.56L14168.4296,-3977.5398L14168.4692,-3977.5265L14168.4906,-3977.4864L14168.4494,-3977.4532L14168.3304,-3977.4334L14168.2007,-3977.3598L14168.1503,-3977.2865L14168.1305,-3977.1797L14168.1107,-3977.0535L14168.1107,-3976.9867L14168.0405,-3976.8734L14167.9901,-3976.82L14167.9901,-3976.6068L14167.9703,-3976.5667L14167.9504,-3976.5331L14167.8894,-3976.5041L14167.7902,-3976.4599L14167.7399,-3976.4065L14167.6804,-3976.3535L14167.6804,-3976.3L14167.72,-3976.1333L14167.7704,-3976.0468L14167.8101,-3975.9399L14167.8101,-3975.6535L14167.8299,-3975.5398L14167.8604,-3975.5398L14167.9001,-3975.5398L14167.9306,-3975.5798L14167.9504,-3975.6134L14167.9504,-3975.6535L14167.9901,-3975.6535L14168.0206,-3975.6535L14168.0405,-3975.6134L14168.0405,-3975.5932L14168.0405,-3975.56L14168.0603,-3975.4532L14168.1503,-3975.3067L14168.2205,-3975.2533L14168.2404,-3975.1667L14168.2907,-3974.7131L14168.2907,-3974.6799L14168.3304,-3974.5132L14168.3304,-3974.4267L14168.4296,-3974.2268L14168.4692,-3974.1333L14168.4906,-3974.0799L14168.5593,-3974.0265L14168.6096,-3973.9532L14168.6295,-3973.8335L14168.6295,-3973.7732L14168.6798,-3973.7198L14168.6798,-3973.7064L14168.6996,-3973.7064L14168.7393,-3973.7064L14168.8293,-3973.7198L14168.8461,-3973.7263L14168.9697,-3973.7732L14169.0201,-3973.7934L14169.0598,-3973.8335L14169.0598,-3973.8667L14169.0598,-3973.8865L14169.0598,-3973.8998L14169.0399,-3973.9735L14169.0598,-3973.9933L14169.0796,-3974.0131L14169.1299,-3974.0131L14169.1803,-3973.9735L14169.2001,-3973.8998L14169.22,-3973.8865L14169.2703,-3973.8667L14169.3298,-3973.8667L14169.4305,-3973.8667L14169.4901,-3973.8667L14169.5206,-3973.8464L14169.5206,-3973.8335L14169.5206,-3973.8132L14169.4702,-3973.7934L14169.4305,-3973.7732L14169.3298,-3973.7598L14169.2001,-3973.74L14169.1299,-3973.7198L14169.0796,-3973.6866L14169.0399,-3973.6332L14169.0201,-3973.5397L14169.0201,-3973.4665L14169.0399,-3973.4333L14169.0598,-3973.3799L14169.1101,-3973.2864L14169.1299,-3973.2533L14169.1299,-3973.18L14169.1299,-3973.0732L14169.1498,-3973L14169.2902,-3972.8397L14169.4504,-3972.5666L14169.5404,-3972.4068L14169.5602,-3972.3L14169.5602,-3972.1733L14169.5206,-3971.9933L14169.4504,-3971.8468L14169.3604,-3971.74L14169.31,-3971.6866L14169.2902,-3971.6667L14169.2902,-3971.6331L14169.31,-3971.5935L14169.3298,-3971.5797L14169.3802,-3971.5599L14169.4,-3971.5401L14169.4305,-3971.5267L14169.4305,-3971.4867L14169.4504,-3971.4664L14169.4702,-3971.4535L14169.4901,-3971.4535L14169.5404,-3971.4333L14169.5801,-3971.3799L14169.5801,-3971.36L14169.5801,-3971.3264L14169.5602,-3971.2868L14169.4901,-3971.2532L14169.4504,-3971.2532L14169.4305,-3971.2334L14169.4305,-3971.22L14169.4504,-3971.1998L14169.4702,-3971.18L14169.5206,-3971.1666L14169.6503,-3971.0934L14169.8807,-3970.9267L14170.0195,-3970.8401L14170.0806,-3970.8L14170.1294,-3970.7867L14170.3598,-3970.7333L14170.4498,-3970.6932L14170.52,-3970.6066L14170.5795,-3970.4597L14170.6802,-3970.3197L14170.7397,-3970.1733L14170.7901,-3970.0466L14170.8298,-3969.8467L14170.8801,-3969.6667L14170.9305,-3969.54L14170.99,-3969.4534L14171.0602,-3969.36L14171.0602,-3969.1666L14171.1105,-3969.0933L14171.1807,-3969.0201L14171.2906,-3968.9465L14171.4005,-3968.8934L14171.4493,-3968.84L14171.4706,-3968.8L14171.5195,-3968.7668L14171.5393,-3968.6932L14171.6095,-3968.6066L14171.6293,-3968.4067L14171.6507,-3968.2465L14171.6797,-3968.1732L14171.9894,-3967.6865L14172.0596,-3967.6334L14172.1298,-3967.5934L14172.2,-3967.58L14172.2702,-3967.5266L14172.7402,-3967.1066L14172.8607,-3966.9464L14172.9507,-3966.8934L14173.0392,-3966.8598L14173.1995,-3966.84L14173.2895,-3966.7999L14173.4894,-3966.6199L14173.5794,-3966.5134L14173.5794,-3966.46L14173.6496,-3966.3734L14173.88,-3966.2067L14173.8998,-3966.1533L14173.9304,-3966.1198L14173.9502,-3966.0267L14174.1302,-3965.8466L14174.2203,-3965.7932L14174.2706,-3965.76L14174.2905,-3965.6864L14174.3607,-3965.6334L14174.4705,-3965.5598L14174.6307,-3965.4865L14174.9695,-3965.2332L14175.0397,-3965.2199L14175.1999,-3965.1264L14175.5203,-3964.9666L14175.6302,-3964.8731L14175.7004,-3964.8399L14176.0193,-3964.8399L14176.0406,-3964.7865L14176.1093,-3964.6935L14176.1993,-3964.6198L14176.3992,-3964.5134L14176.86,-3964.2597L14177.0599,-3964.1731L14177.2705,-3964.0667L14177.4704,-3963.94L14177.5192,-3963.9L14177.6794,-3963.7932L14177.9007,-3963.6532L14178.0807,-3963.5067L14178.1799,-3963.4666L14178.3295,-3963.4132L14178.45,-3963.3999L14178.6499,-3963.3266L14178.7903,-3963.2198L14178.9307,-3963.0932L14179.0405,-3962.8933L14179.0604,-3962.7998L14179.0802,-3962.7335L14179.1107,-3962.6934L14179.2694,-3962.5668"/>
<path content="AP030,1,28,1,0,14,1,8,JPN" xlink:title="AP030" d="M14179.2694,-3962.5668L14179.4693,-3962.4798L14179.6097,-3962.4599L14179.8096,-3962.4599L14179.9698,-3962.4065L14180.2399,-3962.2997L14180.4001,-3962.1933L14180.5206,-3962.0667"/>
<path content="AP030,1,28,1,0,14,1,8,JPN" xlink:title="AP030" d="M14180.5206,-3962.0667L14180.8105,-3962.0667L14180.9494,-3962.0667L14181.0196,-3962.1334L14180.9906,-3962.2799L14180.9296,-3962.4798L14180.8807,-3962.6064L14180.9006,-3962.7666L14180.9906,-3962.8735L14181.0806,-3962.8933L14181.1996,-3962.8933L14181.3599,-3962.8735L14181.5598,-3962.8201L14181.72,-3962.7998L14181.8604,-3962.7998L14182.0206,-3962.7998L14182.1304,-3962.7998L14182.3593,-3962.7865L14182.4295,-3962.7666L14182.4707,-3962.7335L14182.4905,-3962.6801L14182.4905,-3962.6064L14182.4799,-3962.5427L14182.4707,-3962.4798L14182.4707,-3962.4397L14182.4905,-3962.3734L14182.6492,-3962.2997L14182.8995,-3962.2467L14183.0597,-3962.2467L14183.3801,-3962.2799L14183.6807,-3962.3531L14183.8593,-3962.4798L14183.9493,-3962.5534L14183.9905,-3962.64L14184.0195,-3962.8933L14184.0607,-3963.1466L14184.1095,-3963.3598L14184.1995,-3963.5067L14184.3597,-3963.5933L14184.52,-3963.6131L14184.6298,-3963.6131L14184.6802,-3963.6131L14184.7198,-3963.5933L14184.8099,-3963.5597L14185.1105,-3963.4132L14185.3607,-3963.2732L14185.4904,-3963.1798L14185.6796,-3962.9665L14185.8093,-3962.8735L14185.8795,-3962.8597L14186.0397,-3962.8597L14186.1298,-3962.8735L14186.2198,-3962.9467L14186.4304,-3963.0932L14186.7004,-3963.1466L14186.9293,-3963.1268L14187.1994,-3963.0932L14187.4695,-3963.0733L14187.7396,-3963.0932L14187.8601,-3963.1268L14188.1805,-3963.2332L14188.2904,-3963.2534L14188.7405,-3963.2534L14188.8794,-3963.2534L14189.1296,-3963.2L14189.2899,-3963.2L14190.0192,-3963.2332L14190.3107,-3963.2198L14190.4694,-3963.1798L14190.6494,-3963.1065L14190.6998,-3963.0932L14190.8798,-3963.0733L14191.1301,-3963.1065L14191.3101,-3963.1664L14191.5802,-3963.2198"/>
<path content="AP030,1,28,1,0,14,1,8,JPN" xlink:title="AP030" d="M14180.2002,-3961.7733L14180.3101,-3961.9198L14180.3391,-3961.9492L14180.4001,-3962.0132L14180.5206,-3962.0667"/>
<path content="AP030,1,28,1,0,14,1,8,JPN" xlink:title="AP030" d="M14179.2694,-3962.5668L14179.2892,-3962.4397L14179.2831,-3962.36L14179.2694,-3962.2265L14179.2694,-3962.1201L14179.2923,-3962.0667L14179.3106,-3962.0266L14179.4296,-3961.9732L14179.6494,-3961.94L14179.8599,-3961.8668L14180.0598,-3961.8332L14180.1804,-3961.7733L14180.2002,-3961.7733"/>
<path content="AP030,1,28,1,0,14,1,8,JPN" xlink:title="AP030" d="M14166.9296,-3959.1801L14167.3599,-3959.3998L14167.4896,-3959.4666L14167.5598,-3959.5398L14167.6498,-3959.7198L14167.72,-3959.8465L14167.7704,-3959.8866L14167.8802,-3959.9731L14167.9703,-3960.0266L14168.1503,-3960.0666L14168.5196,-3960.0666L14168.5806,-3960.08L14168.6798,-3960.1532L14168.8095,-3960.2467L14168.9301,-3960.3001L14169.22,-3960.3001L14169.2703,-3960.3199L14169.31,-3960.3535L14169.5404,-3960.5534L14169.6106,-3960.5667L14169.7006,-3960.5865L14169.7906,-3960.5667L14169.9493,-3960.4797L14170.0394,-3960.4267L14170.2896,-3960.2798L14170.3995,-3960.2467L14170.52,-3960.2066L14170.9503,-3960.2264L14171.0602,-3960.2264L14171.1502,-3960.2066L14171.2204,-3960.1734L14171.4005,-3960.0266L14171.6293,-3959.8331L14171.7697,-3959.7733L14171.8994,-3959.7599L14172.0398,-3959.7599L14172.2,-3959.7935L14172.4701,-3959.8866L14172.6303,-3959.9197L14172.8302,-3960.0132L14173.1094,-3960.1734L14173.1293,-3960.1933L14173.2193,-3960.2066L14173.2895,-3960.2066L14173.3994,-3960.1933L14173.5794,-3960.12L14173.7701,-3960.0266L14174.0601,-3959.94L14174.2401,-3959.8866L14174.4507,-3959.8465L14174.6307,-3959.7935L14174.6796,-3959.7935L14174.7406,-3959.7935L14174.9298,-3959.8133L14175.3601,-3959.8331L14175.3998,-3959.8331L14175.4501,-3959.8331L14175.4898,-3959.8331L14175.5203,-3959.8331L14175.65,-3959.8331L14175.8804,-3959.8331L14175.9903,-3959.8331L14176.0803,-3959.8331L14176.1307,-3959.8465L14176.2405,-3959.9533L14176.2741,-3960.0098L14176.3107,-3960.0666L14176.4297,-3960.12L14176.5594,-3960.1734L14177.0798,-3960.2264L14177.2202,-3960.26L14177.2903,-3960.3001L14177.33,-3960.3733L14177.33,-3960.4797L14177.3102,-3960.7468L14177.3605,-3960.8932L14177.4307,-3961.0001L14177.5192,-3961.0535L14177.5803,-3961.0931L14177.6993,-3961.0733L14177.8595,-3960.9665L14177.9297,-3960.8734L14178.0396,-3960.7864L14178.2196,-3960.6934L14178.36,-3960.64L14178.54,-3960.6197L14178.7003,-3960.6598L14178.8101,-3960.7468L14178.9001,-3960.9264L14178.9505,-3961.1465L14178.9505,-3961.2732L14178.9703,-3961.4334L14179.0207,-3961.6135L14179.0604,-3961.6867L14179.1306,-3961.7397L14179.1794,-3961.7599L14179.2694,-3961.7599L14179.3793,-3961.7199L14179.5395,-3961.6531L14179.6494,-3961.5799L14179.7699,-3961.5601L14179.8996,-3961.5398L14180.0201,-3961.5799L14180.0797,-3961.6333L14180.2002,-3961.7733"/>
<path content="AP030,1,28,1,0,14,1,8,JPN" xlink:title="AP030" d="M14145.5399,-3963.3465L14145.7199,-3963.2732L14145.8099,-3963.2332L14145.9,-3963.2198L14145.99,-3963.2L14146.0602,-3963.2L14146.1304,-3963.1466L14146.2204,-3962.9868L14146.2906,-3962.8597L14146.4005,-3962.7998L14146.6095,-3962.7998L14146.6995,-3962.7865L14146.8094,-3962.7464L14146.8796,-3962.6934L14147.2,-3962.4798L14147.2702,-3962.4599L14147.3297,-3962.4397L14147.4503,-3962.4268L14147.5601,-3962.3734L14147.6807,-3962.3199L14147.7402,-3962.1933L14147.7707,-3961.9534L14147.7707,-3961.7599L14147.7051,-3961.6611L14147.6807,-3961.5799L14147.6501,-3961.5398L14147.6807,-3961.5067L14147.7402,-3961.4864L14147.8104,-3961.5265L14147.8439,-3961.5635L14147.8607,-3961.5799L14148.0194,-3961.6333L14148.1506,-3961.6135L14148.2697,-3961.5932L14148.3795,-3961.5601L14148.6496,-3961.5932L14148.79,-3961.7599L14148.8297,-3961.7931L14148.97,-3961.8134L14149.0204,-3961.8332L14149.0799,-3961.8465L14149.1501,-3961.8999L14149.2401,-3961.9732L14149.4003,-3961.9934L14149.4507,-3961.9934L14149.5605,-3961.9732L14149.6796,-3961.94L14149.7696,-3961.8999L14149.8596,-3961.8332L14149.9893,-3961.7733L14150.0793,-3961.7397L14150.1801,-3961.7397L14150.2701,-3961.7397L14150.3296,-3961.7733L14150.3799,-3961.8332L14150.3998,-3961.9198L14150.4501,-3962.0132L14150.5203,-3962.0667L14150.56,-3962.0998L14150.65,-3962.1334L14150.7065,-3962.1334L14150.7706,-3962.1334L14151.0605,-3962.1735L14151.2207,-3962.1735L14151.3107,-3962.2066L14151.3794,-3962.2601L14151.3992,-3962.3199L14151.3855,-3962.4241L14151.3596,-3962.6064L14151.3992,-3962.7132L14151.4694,-3962.7666L14151.5793,-3962.7998L14151.7395,-3962.8399L14151.8295,-3962.8399L14151.8997,-3962.8735L14152.2003,-3963.044L14152.3102,-3963.1065L14152.4506,-3963.1466L14152.6093,-3963.1268L14152.7405,-3963.1268L14152.8793,-3963.1664L14152.9587,-3963.1927L14153.0396,-3963.2198L14153.3798,-3963.3801L14153.5202,-3963.4335L14153.5797,-3963.4865L14153.6301,-3963.5597L14153.6301,-3963.94L14153.6804,-3964.0266L14153.7704,-3964.1197L14153.9001,-3964.1731L14154.1107,-3964.1731L14154.2404,-3964.1731L14154.2892,-3964.2265L14154.3106,-3964.2799L14154.2892,-3964.3333L14154.2694,-3964.4398L14154.2694,-3964.5134L14154.3106,-3964.6198L14154.3793,-3964.7133L14154.4693,-3964.7667L14154.5197,-3964.7667L14154.6097,-3964.7331L14154.6997,-3964.6797L14154.7699,-3964.5866L14154.8096,-3964.5535L14154.8996,-3964.5134L14155.04,-3964.5L14155.2902,-3964.46L14155.4001,-3964.46L14155.5206,-3964.4798L14155.6305,-3964.5134L14155.7205,-3964.5535L14155.8807,-3964.6198L14155.9906,-3964.6797L14156.0593,-3964.6935L14156.3797,-3964.7133L14156.8802,-3964.7465L14157.1304,-3964.7999L14157.5195,-3964.9132L14157.7393,-3964.9864L14158.11,-3964.9998L14158.2901,-3964.9666L14158.4305,-3964.9467L14158.7006,-3964.8598L14158.8593,-3964.8399L14159.0805,-3964.8197L14159.2194,-3964.7667L14159.3307,-3964.6935L14159.4498,-3964.5866L14159.7,-3964.3734L14159.7702,-3964.3333L14159.8602,-3964.2799L14159.8999,-3964.2467L14159.9701,-3964.1933L14160.1303,-3964.0465L14160.1501,-3963.9534L14160.1501,-3963.7199L14160.3104,-3963.4865L14160.4004,-3963.3801L14160.5194,-3963.2332L14160.6506,-3963.0932L14160.7697,-3962.9131L14160.8765,-3962.7666L14160.9299,-3962.6934L14160.9497,-3962.6598L14161.0596,-3962.4798L14161.2701,-3962.2799L14161.3297,-3962.2601L14161.4502,-3962.2467L14161.6104,-3962.1933L14161.7905,-3962.1532L14161.8607,-3962.1334L14161.9293,-3962.0998L14162.0193,-3962.0464L14162.2696,-3961.7931L14162.3993,-3961.5932L14162.4695,-3961.5398L14162.5793,-3961.5265L14162.6999,-3961.5067L14162.8296,-3961.4864L14162.8998,-3961.3998L14163.0203,-3961.3068L14163.1302,-3961.2L14163.4903,-3960.9467L14163.6795,-3960.8932L14163.7894,-3960.8932L14163.8794,-3960.8932L14164.0594,-3960.9264L14164.2899,-3961.0001L14164.5203,-3961.1065L14164.6606,-3961.1721L14164.7202,-3961.2L14164.8102,-3961.2198L14164.9002,-3961.2198L14164.9704,-3961.2L14165.0192,-3961.1797L14165.0803,-3961.1065L14165.1306,-3961.0397L14165.1794,-3960.9665L14165.3305,-3960.8601L14165.4694,-3960.7132L14165.4694,-3960.5534L14165.4297,-3960.3867L14165.3107,-3960.2798L14165.1794,-3960.2066L14165.0192,-3960.1334L14164.9506,-3960.12L14164.9307,-3960.08L14164.9307,-3959.9197L14164.9307,-3959.8465L14165.0406,-3959.7599L14165.1093,-3959.7198L14165.7196,-3959.7599L14165.8096,-3959.7401L14165.8997,-3959.7065L14166.2704,-3959.4868L14166.4505,-3959.3597L14166.6306,-3959.2197L14166.7206,-3959.1667L14166.8594,-3959.1667L14166.9296,-3959.1801"/>
<path content="AP030,1,28,1,0,14,1,8,JPN" xlink:title="AP030" d="M14194.5179,-3959.2036L14194.4504,-3959.3266L14194.4504,-3959.3998L14194.4305,-3959.6535L14194.4504,-3959.8465L14194.5404,-3960.0132L14194.6503,-3960.12L14194.7906,-3960.2264L14195.0195,-3960.3333L14195.52,-3960.5667L14195.61,-3960.6197L14195.7001,-3960.7334L14195.7703,-3960.8398L14195.8298,-3960.8932L14195.9503,-3960.9467L14196.1304,-3961.0733L14196.2006,-3961.1267L14196.2402,-3961.2534L14196.2204,-3961.38L14196.1807,-3961.5265L14196.1304,-3961.6333L14196.1502,-3961.8465L14196.2006,-3961.9934L14196.2692,-3962.2066L14196.2906,-3962.4065L14196.3303,-3962.5332L14196.4005,-3962.6198L14196.4706,-3962.6934L14196.4905,-3962.7865L14196.4905,-3962.8735L14196.4905,-3962.9868L14196.4905,-3963.0733L14196.3593,-3963.5265L14196.2906,-3963.6333L14196.2204,-3963.6868L14195.99,-3963.7932L14195.8801,-3963.8466L14195.8099,-3963.9L14195.7474,-3963.9839"/>
<path content="AP030,1,28,1,0,14,1,8,JPN" xlink:title="AP030" d="M14193.4006,-3956.9668L14193.4494,-3957.0934L14193.5394,-3957.3601L14193.5593,-3957.3997L14193.9499,-3958.0799L14193.9896,-3958.1734L14194.0598,-3958.2268L14194.2001,-3958.2798L14194.2703,-3958.3L14194.31,-3958.3332L14194.5206,-3958.6067L14194.6106,-3958.8398"/>
<path content="AP030,1,28,1,0,15,1,8,JPN" xlink:title="AP030" d="M14134.6649,-3954.9702L14135.0098,-3955.8899L14135.0159,-3957.2056L14133.1604,-3959.9735L14132.8125,-3960.3003"/>
<path content="AP030,1,28,1,0,15,1,8,JPN" xlink:title="AP030" d="M14132.8125,-3954.7739L14133.3038,-3954.6455L14134.6649,-3954.9702"/>
<path content="AP030,1,28,1,0,14,1,8,JPN" xlink:title="AP030" d="M14166.9296,-3959.1801L14166.9296,-3958.9867L14166.9296,-3958.9417L14166.9296,-3958.8398L14166.8793,-3958.7467L14166.7404,-3958.6399L14166.6107,-3958.6067L14166.3803,-3958.5335L14166.2903,-3958.4999L14166.2704,-3958.4064L14166.3101,-3958.3199L14166.4307,-3958.1734L14166.6504,-3957.9735L14166.6794,-3957.9201L14166.6794,-3957.8465L14166.6794,-3957.8133L14166.6794,-3957.7599L14166.6504,-3957.6668L14166.6306,-3957.5268L14166.6504,-3957.1266L14166.6107,-3956.9668L14166.4307,-3956.8398L14166.3605,-3956.7665L14166.3101,-3956.6933L14166.3101,-3956.4598L14166.3101,-3956.4266L14166.2903,-3956.2466L14166.2903,-3956.1932L14166.2704,-3956.0799L14166.2003,-3955.9933L14166.0599,-3955.8666L14166.0599,-3955.7598L14166.0599,-3955.6667L14166.0797,-3955.6133L14166.1102,-3955.5401L14166.1301,-3955.4867L14166.1499,-3955.36L14166.1499,-3955.3265L14166.1499,-3955.2868L14166.04,-3955.1468L14165.9897,-3955.04L14165.9698,-3954.9267L14165.9302,-3954.8401L14165.8295,-3954.7466L14165.8096,-3954.7134L14165.7394,-3954.62L14165.7196,-3954.5132L14165.77,-3954.4266L14165.8997,-3954.3331L14165.9897,-3954.2065L14166.04,-3954.1199L14166.0202,-3954.0264L14165.8997,-3953.7731L14165.77,-3953.7197L14165.6799,-3953.5934"/>
<path content="AP030,1,28,1,0,14,1,8,JPN" xlink:title="AP030" d="M14193.4006,-3956.9668L14193.4006,-3956.8733L14193.4494,-3956.8199L14193.5394,-3956.7333L14193.6798,-3956.6601L14193.9301,-3956.5132L14194.0796,-3956.3866L14194.1299,-3956.3332L14194.2001,-3956.2065L14193.9697,-3954.6932L14193.9499,-3954.5864L14193.8995,-3954.5334L14193.0206,-3954.0134L14192.9306,-3953.9398L14192.9306,-3953.8132L14192.9703,-3953.6331L14192.9901,-3953.4866L14192.9901,-3953.4534"/>
<path content="AP030,1,28,1,0,15,1,8,JPN" xlink:title="AP030" d="M14193.4006,-3956.9668L14193.1427,-3956.794L14191.9128,-3955.97L14191.5833,-3955.1811L14192.0212,-3954.4853L14192.5797,-3953.891L14192.9901,-3953.4534"/>
<path content="AP030,1,28,1,0,15,1,8,JPN" xlink:title="AP030" d="M14134.6649,-3954.9702L14135.9619,-3954.2702L14138.5025,-3954.2622L14140.889,-3953.6179L14142.5293,-3953.149L14143.3517,-3953.204L14145.9686,-3953.6564L14148.1384,-3954.2263L14150.531,-3954.4476L14151.796,-3953.8055L14152.3178,-3953.6297L14152.8458,-3954.2057L14153.4424,-3954.203L14153.8895,-3954.0276L14154.2633,-3954.0257L14155.5374,-3954.5403L14156.5826,-3954.3617L14156.7291,-3954.1874L14157.254,-3954.3583L14158.2275,-3954.5269L14159.0454,-3954.1759L14159.1904,-3953.6545L14159.4131,-3953.4222L14160.7605,-3953.878L14160.9833,-3953.7033L14161.5036,-3953.3535L14162.7731,-3953.3466L14163.5986,-3953.8048L14164.122,-3953.8021L14165.6799,-3953.5934"/>
<path content="AP030,1,28,1,0,14,1,8,JPN" xlink:title="AP030" d="M14192.9901,-3953.4534L14192.9703,-3953.3798L14192.8604,-3953.1265L14192.8604,-3953.0197L14193.0206,-3952.9465L14193.0603,-3952.9266L14193.2404,-3952.8599L14193.4494,-3952.7332L14193.8095,-3952.3335L14194.0796,-3952.1198L14194.1803,-3952.0798L14194.2398,-3952.0267L14194.3298,-3951.9531L14194.4,-3951.8997L14194.4901,-3951.8665L14194.6304,-3951.8131L14194.8303,-3951.6533L14195.0806,-3951.4133L14195.1797,-3951.3065L14195.2393,-3951.1467L14195.3293,-3950.9464L14195.3598,-3950.9132L14195.3995,-3950.8934L14195.4895,-3950.8732L14195.7001,-3950.8598L14196.0602,-3950.7465L14196.2906,-3950.6397L14196.3593,-3950.5665L14196.3593,-3950.4398L14196.3593,-3950.3864L14196.3593,-3950.2068L14196.4005,-3950.1534L14196.4294,-3949.8867L14196.4493,-3949.7066L14196.4706,-3949.6132L14196.4905,-3949.5399L14196.4706,-3949.3999L14196.4005,-3949.2332L14196.3593,-3949.1264L14196.3593,-3949.0734L14196.4005,-3949.02L14196.9894,-3948.5535"/>
<path content="AP030,1,28,1,0,15,1,8,JPN" xlink:title="AP030" d="M14194.6106,-3958.8398L14195.6802,-3958.4293L14196.1731,-3958.7578L14196.608,-3959.4334L14196.965,-3959.494L14198.1644,-3959.145L14198.5733,-3959.0145L14199.6735,-3959.3441L14199.7833,-3959.4067L14199.8581,-3958.8764L14200.1312,-3958.7894L14200.5508,-3959.4212L14200.9888,-3959.4173L14201.532,-3959.116L14202.5589,-3958.2172L14202.5513,-3957.6664L14202.4582,-3956.9046L14202.5528,-3955.9296L14203.125,-3955.4936M14203.125,-3953.7376L14202.9816,-3953.4683L14202.9175,-3952.8332L14202.7985,-3952.1774L14202.6489,-3951.3103L14202.4277,-3951.1429L14202.0142,-3950.956L14201.0284,-3950.816L14200.6699,-3950.6496L14200.6393,-3950.4169L14200.6577,-3949.8447L14200.7538,-3948.8693L14200.8026,-3948.4241L14200.7172,-3948.2765L14199.4354,-3948.457L14196.9894,-3948.5535"/>
<path content="AP030,1,28,1,0,14,1,8,JPN" xlink:title="AP030" d="M14165.6799,-3953.5934L14165.7394,-3953.3264L14166.8793,-3951.4866L14167.6804,-3950.1934L14167.7002,-3950.0134L14167.8299,-3949.8665L14167.9703,-3949.7398L14168.0405,-3949.6334L14168.0801,-3949.4667L14168.1107,-3949.3065L14168.2007,-3949.2199L14168.3594,-3949.0734L14168.3807,-3948.9864L14168.2693,-3948.3868L14168.2693,-3948.3002L14168.4494,-3948.0801L14168.5394,-3948.0267L14168.7698,-3947.9401"/>
<path content="AP030,1,28,1,0,14,1,8,JPN" xlink:title="AP030" d="M14195.7397,-3947.6131L14195.8603,-3947.6334L14196.0205,-3947.6532L14196.1502,-3947.6742L14196.5195,-3947.76L14196.6293,-3947.7932L14196.6995,-3947.8867L14196.7194,-3948.0133L14196.7194,-3948.0465L14196.7896,-3948.1201L14196.9299,-3948.2265L14197.02,-3948.3334L14197.02,-3948.4798L14196.9894,-3948.5535"/>
<path content="AP030,1,28,1,0,16,1,8,JPN" xlink:title="AP030" d="M14195.7397,-3947.6131L14194.93,-3947.861L14194.46,-3947.861L14193.9,-3947.857L14193.49,-3947.62L14193.11,-3947.198"/>
<path content="AP030,1,28,1,0,15,1,8,JPN" xlink:title="AP030" d="M14132.8125,-3949.4292L14132.9514,-3949.5361L14133.0383,-3951.9073L14133.1955,-3953.7579L14134.6649,-3954.9702"/>
<path content="AP030,1,28,1,0,16,1,4,JPN" xlink:title="AP030" d="M14193.11,-3947.198L14193.1,-3946.911L14193.1,-3946.23L14193.15,-3945.998"/>
<path content="AP030,1,28,1,0,14,1,8,JPN" xlink:title="AP030" d="M14197.11,-3942.3859L14197.11,-3942.5533L14197.1298,-3942.7334L14197.2,-3942.9466L14197.3297,-3943.5265L14197.29,-3943.6665L14197.1497,-3943.8332L14197.11,-3943.8866L14197.0596,-3944.0266L14197.02,-3944.3001L14196.9498,-3944.3733L14196.8307,-3944.4267L14196.6995,-3944.4599L14196.6095,-3944.5667L14196.6019,-3944.5866L14196.5607,-3944.68L14196.5195,-3944.7468L14196.2402,-3944.9135L14196.2006,-3944.9665L14196.2006,-3945.0199L14196.2006,-3945.2534L14196.1304,-3945.3266L14195.7397,-3945.5601L14195.7199,-3945.5933L14195.7001,-3945.6867L14195.7001,-3945.8866L14195.6497,-3945.9732L14195.52,-3946.1201L14195.3094,-3946.4066L14195.2896,-3946.4802L14195.2896,-3946.5134L14195.2698,-3946.64L14195.2698,-3946.8399L14195.2896,-3946.9868L14195.5399,-3947.4335L14195.6299,-3947.5399L14195.7397,-3947.6131"/>
<path content="AP030,1,28,1,0,16,1,8,JPN" xlink:title="AP030" d="M14193.15,-3945.998L14193.72,-3945.382L14194.12,-3944.955L14194.54,-3944.381L14194.76,-3943.95L14195.13,-3943.431L14195.47,-3943.111L14195.98,-3942.773L14197.11,-3942.3859"/>
<path content="AP030,1,28,1,0,14,1,8,JPN" xlink:title="AP030" d="M14132.8125,-3940.9037L14132.8796,-3940.8733L14133.3298,-3940.6933L14133.49,-3940.6067L14133.6304,-3940.4999L14133.8303,-3940.2267L14134.0805,-3939.8335L14134.0393,-3939.5931L14133.9905,-3939.2864L14133.9905,-3939.1666L14134.0393,-3938.9866"/>
<path content="AP030,1,28,1,0,14,1,8,JPN" xlink:title="AP030" d="M14134.0393,-3938.9866L14134.0195,-3938.7665L14133.9905,-3938.5532L14133.9905,-3938.4399L14134.0805,-3938.3331L14134.1797,-3938.2599L14134.2697,-3938.1733"/>
<path content="AP030,1,28,1,0,15,1,8,JPN" xlink:title="AP030" d="M14168.7698,-3947.9401L14169.5435,-3948.1743L14169.3085,-3948.6889L14170.1553,-3949.1501L14170.7611,-3949.5663L14171.1288,-3950.0771L14171.5424,-3949.4213L14171.7834,-3949.3267L14172.4472,-3949.556L14172.4442,-3949.1825L14172.6212,-3948.9483L14174.8413,-3948.2346L14175.9293,-3948.6938L14176.2909,-3948.645L14177.4231,-3947.5647L14178.7933,-3946.4359L14179.3945,-3946.3387L14180.4123,-3945.8183L14180.5252,-3945.1649L14181.0577,-3944.4145L14181.9504,-3943.5688L14182.55,-3943.4246L14183.8654,-3942.8089L14184.6451,-3942.5701L14184.6893,-3941.3101L14185.0433,-3940.7478L14185.8765,-3940.0421L14186.7737,-3939.6156L14187.9684,-3939.0469L14189.0961,-3937.9654L14189.8396,-3937.5"/>
<path content="AP030,1,28,1,0,14,1,8,JPN" xlink:title="AP030" d="M14194.2194,-3937.5L14194.0399,-3937.8468L14193.9499,-3937.9532L14193.8995,-3937.9932L14193.8293,-3938.0798L14193.7897,-3938.1733L14193.7897,-3938.2801L14193.8095,-3938.66L14193.8797,-3938.7665L14193.9499,-3938.8733L14194.0598,-3938.9465L14194.1101,-3938.9999L14194.8593,-3939.7598L14195.1096,-3940.0665L14195.4498,-3940.4064L14195.4697,-3940.4999L14195.5399,-3940.62L14196.5195,-3941.5066L14196.6293,-3941.6332L14196.8597,-3941.8999L14197.0398,-3942.0666L14197.11,-3942.3199L14197.11,-3942.3859"/>
<path content="AP030,1,28,1,0,14,1,8,JPN" xlink:title="AP030" d="M14134.2697,-3938.1733L14134.3597,-3938.1332L14134.4696,-3938.1332L14134.5139,-3938.1458L14134.5901,-3938.1676L14134.6802,-3938.1931L14134.7382,-3938.2145L14134.8602,-3938.2599L14134.9701,-3938.2599L14135.0601,-3938.2465L14135.0601,-3938.1733L14134.9304,-3938.0665L14134.8602,-3937.9932L14134.8297,-3937.9002L14134.8297,-3937.7731L14134.8999,-3937.6331L14134.9304,-3937.5267L14134.9388,-3937.5"/>
<path content="AP030,1,28,1,0,15,1,8,JPN" xlink:title="AP030" d="M14133.781,-3937.5L14134.2697,-3938.1733"/>
<path content="AP030,1,28,1,0,14,1,8,JPN" xlink:title="AP030" d="M14160.4922,-3937.5L14160.6796,-3937.8132L14160.6796,-3937.9532L14160.6796,-3938.0665L14160.9299,-3938.4399L14160.9894,-3938.5532L14160.9894,-3938.62L14160.9894,-3938.7867L14160.9894,-3938.9133L14160.9894,-3938.9999L14161.0596,-3939.0934L14161.1298,-3939.18L14161.2701,-3939.3265L14161.2396,-3939.36L14161.1496,-3939.4333L14161.0596,-3939.5065L14161.0199,-3939.5931L14161.0199,-3939.7064L14161.0397,-3939.7934L14161.1099,-3939.92L14161.1099,-3939.9734L14161.0794,-3940.0265L14161.0596,-3940.0799L14161.0596,-3940.2065L14161.0596,-3940.5334L14161.0794,-3940.6067L14161.1801,-3940.6799L14161.29,-3940.7665L14161.3297,-3940.86L14161.3602,-3941.0534L14161.38,-3941.1064L14161.47,-3941.1999L14161.5402,-3941.2334L14161.5402,-3941.3799L14161.5799,-3941.4867L14161.6302,-3941.56L14161.7706,-3941.6332L14161.8805,-3941.6866L14162.0193,-3941.7732L14162.1094,-3941.8465L14162.2192,-3941.8999L14162.3306,-3941.9399L14162.4496,-3941.9731L14162.5198,-3942.0132L14162.5793,-3942.1532L14162.6297,-3942.26L14162.6999,-3942.3534L14162.7701,-3942.3866L14162.8601,-3942.4267L14163.0203,-3942.44L14163.2401,-3942.4267L14163.3102,-3942.44L14163.3804,-3942.5133L14163.4705,-3942.5667L14163.6307,-3942.5865L14163.8306,-3942.6067L14163.9893,-3942.6067L14164.1098,-3942.6399L14164.2197,-3942.68L14164.4302,-3942.6933L14164.7003,-3942.7132L14164.7903,-3942.7334L14164.9307,-3942.7467L14165.0406,-3942.82L14165.1505,-3942.8734L14165.4694,-3942.9867L14165.6799,-3943.0401L14165.77,-3943.1065L14165.95,-3943.2865L14166.04,-3943.3468L14166.1499,-3943.38L14166.2399,-3943.4132L14166.2903,-3943.4334L14166.3101,-3943.4666L14166.33,-3943.5265L14166.3101,-3943.6134L14166.33,-3943.6867L14166.3803,-3943.7065L14166.4307,-3943.7065L14166.4703,-3943.7199L14166.4902,-3943.7599L14166.4505,-3943.8667L14166.4505,-3943.8999L14166.4307,-3943.9533L14166.4001,-3944.0132L14166.4001,-3944.0468L14166.4307,-3944.0666L14166.4703,-3944.0666L14166.4902,-3944.0468L14166.5405,-3943.94L14166.5405,-3943.8999L14166.5604,-3943.8866L14166.6306,-3943.8667L14166.7007,-3943.8999L14166.7206,-3943.94L14166.7404,-3943.9934L14166.7404,-3944.1002L14166.7404,-3944.2066L14166.7007,-3944.2799L14166.6306,-3944.3733L14166.6107,-3944.4401L14166.6306,-3944.4599L14166.6504,-3944.4801L14166.7007,-3944.4801L14166.7892,-3944.4401L14166.8304,-3944.4267L14166.8793,-3944.3867L14166.9006,-3944.3867L14166.9495,-3944.3867L14166.9907,-3944.4065L14167.0807,-3944.4401L14167.2699,-3944.5332L14167.4301,-3944.5667L14167.5598,-3944.6068L14167.63,-3944.6201L14167.6804,-3944.6068L14167.7002,-3944.5534L14167.72,-3944.5133L14167.7704,-3944.5L14167.7902,-3944.5332L14167.8299,-3944.5667L14167.9306,-3944.5667L14167.9504,-3944.5667L14168.0206,-3944.5667L14168.0603,-3944.5866L14168.0405,-3944.6068L14168.0206,-3944.6602L14167.9504,-3944.7132L14167.8802,-3944.7865L14167.8802,-3944.8399L14167.9306,-3944.8601L14168.0801,-3944.8399L14168.1107,-3944.8601L14168.1107,-3944.8933L14168.0603,-3944.9265L14168.0206,-3944.9665L14167.9001,-3945.0535L14167.7704,-3945.1466L14167.7002,-3945.2332L14167.7002,-3945.2534L14167.7002,-3945.2732L14167.72,-3945.2866L14167.7704,-3945.3068L14167.8101,-3945.3266L14167.8299,-3945.3465L14167.8604,-3945.3602L14167.8604,-3945.38L14167.8604,-3945.3999L14167.8299,-3945.4132L14167.8101,-3945.4132L14167.7704,-3945.4132L14167.6804,-3945.4132L14167.6498,-3945.4533L14167.6804,-3945.5799L14167.7399,-3945.7199L14167.8802,-3945.9202L14167.9306,-3946.0133L14167.9901,-3946.0266L14168.0801,-3946.0133L14168.2007,-3945.9934L14168.2907,-3945.9934L14168.3807,-3946.0133L14168.6096,-3946.0999L14168.6996,-3946.1201L14168.8797,-3946.1334L14168.9301,-3946.1533L14168.9896,-3946.2067L14169.0399,-3946.2601L14169.1101,-3946.3001L14169.1299,-3946.3531L14169.1299,-3946.3867L14169.1101,-3946.4066L14169.0399,-3946.4268L14168.9499,-3946.46L14168.8599,-3946.4802L14168.7897,-3946.5332L14168.6996,-3946.5866L14168.6798,-3946.64L14168.6798,-3946.6801L14168.7195,-3946.7335L14168.7897,-3946.7865L14168.8095,-3946.8399L14168.8599,-3946.8735L14168.9697,-3946.8735L14169.0201,-3946.8735L14169.0399,-3946.9131L14169.0399,-3947.02L14169.0201,-3947.1066L14169.0399,-3947.1664L14169.1101,-3947.1466L14169.2001,-3947.1066L14169.3298,-3947.0932L14169.2902,-3947.1802L14169.22,-3947.2332L14169.1101,-3947.3465L14169.0796,-3947.3999L14169.0598,-3947.6665L14169.0598,-3947.7066L14169.0201,-3947.7932L14168.9697,-3947.8466L14168.7698,-3947.9401"/>
<path content="AP030,1,28,1,0,15,1,8,JPN" xlink:title="AP030" d="M14134.0393,-3938.9866L14135.0662,-3939.4081L14136.7111,-3940.4438L14138.5849,-3942.173L14140.1596,-3943.6718L14141.7252,-3943.6085L14142.9153,-3943.0256L14143.8049,-3942.2127L14144.2505,-3941.9216L14145.2194,-3941.7442L14145.816,-3941.7999L14147.7615,-3942.7753L14148.9517,-3942.3656L14149.8428,-3941.6676L14150.9598,-3941.547L14152.3758,-3941.4253L14153.6438,-3941.4192L14154.0878,-3940.9546L14154.2313,-3940.3175L14155.0461,-3939.6198L14155.5634,-3939.0968L14156.0806,-3938.4003L14156.2988,-3937.7048L14156.4223,-3937.5"/>
<path content="AP030,1,28,1,0,14,1,8,JPN" xlink:title="AP030" d="M14192.2897,-3963.2198L14192.45,-3963.2732L14192.7902,-3963.4533L14193.0801,-3963.6333L14193.2404,-3963.7199L14193.4296,-3963.7733L14193.7195,-3963.7932L14194.1299,-3963.76L14194.4702,-3963.7199L14194.5801,-3963.7066L14194.7403,-3963.6868L14195.1096,-3963.7199L14195.3598,-3963.7733"/>
<path content="AP030,1,28,1,1,14,1,8,JPN" xlink:title="AP030" d="M14191.5802,-3963.2198L14191.6132,-3963.0263L14191.8181,-3962.7303L14192.3114,-3962.3053L14192.448,-3962.3205L14192.6909,-3962.4116L14192.8123,-3962.3812L14193.0552,-3961.9562L14193.4043,-3961.6375L14193.5181,-3961.3567L14193.4043,-3961.0683L14193.1614,-3960.8102L14193.0931,-3960.5219L14193.3588,-3960.1727L14193.7913,-3959.7553L14193.9431,-3959.6187L14194.148,-3959.5808L14194.2087,-3959.3455L14194.4137,-3959.1861L14194.5179,-3959.2036"/>
<path content="AP030,1,28,1,0,14,1,8,JPN" xlink:title="AP030" d="M14191.5802,-3963.2198L14191.6504,-3963.2L14191.8106,-3963.1664L14192.1097,-3963.1664L14192.2897,-3963.2198"/>
<path content="AP030,1,28,1,0,14,1,8,JPN" xlink:title="AP030" d="M14194.6106,-3958.8398L14194.6304,-3958.9268L14194.6304,-3958.9867L14194.5179,-3959.2036"/>
</g>
</svg>
