<?xml version="1.0" encoding="UTF-8"?>
<svg  xmlns="http://www.w3.org/2000/svg" xmlns:xlink="http://www.w3.org/1999/xlink" xmlns:go="http://purl.org/svgmap/profile" property="f_code,acc,exs,rst,med,rtt,RSU,loc,soc" viewBox="14132.8125 -3937.5 70.3125 70.3125" go:dataArea="14132.8125 -3937.5 70.3125 70.3125" >
<metadata>
 <rdf:RDF xmlns:rdf="http://www.w3.org/1999/02/22-rdf-syntax-ns#" xmlns:crs="http://opengis.org/xmldtds/transformations.dtd" xmlns:svg="http://www.w3.org/svg" >
  <rdf:Description>
   <crs:CoordinateReferenceSystem rdf:resource="http://purl.org/crs/84" svg:transform="matrix(100.0,0.0,0.0,-100.0,0.0,0.0)" />
  </rdf:Description>
 </rdf:RDF>
</metadata>
<globalCoordinateSystem srsName="http://purl.org/crs/84" transform="matrix(100.0,0.0,0.0,-100.0,0.0,0.0)" />
<defs>
 <g id="p0" >
  <circle cx="0.0" cy="0.0" r="3" stroke="green" stroke-width="2.0" vector-effect="non-scaling-stroke" />
 </g>
</defs>
<g fill="none" fill-rule="evenodd" stroke="#00ff00" stroke-width="2" opacity="0.5" vector-effect="non-scaling-stroke" stroke-linejoin="bevel" >
<path content="AP030,1,28,1,0,15,1,8,JPN" xlink:title="AP030" d="M14189.8396,-3937.5L14191.1499,-3936.6798"/>
<path content="AP030,1,28,1,0,14,1,8,JPN" xlink:title="AP030" d="M14191.1499,-3936.6798L14191.3605,-3936.5665L14191.6794,-3936.4067L14191.7404,-3936.3731L14191.8304,-3936.3731L14191.9495,-3936.3865L14192.1097,-3936.4265L14192.2195,-3936.4799L14192.7704,-3936.7134L14192.9001,-3936.7332L14192.9703,-3936.7332L14193.222,-3936.6386L14193.3594,-3936.5868L14193.5196,-3936.5665L14193.5593,-3936.5868L14193.8995,-3936.7134L14194.3298,-3936.8599L14194.4305,-3936.9133L14194.4504,-3936.9465L14194.4504,-3937.0399L14194.3298,-3937.2868L14194.2194,-3937.5"/>
<path content="AP030,1,28,1,0,14,1,8,JPN" xlink:title="AP030" d="M14134.9388,-3937.5L14134.9701,-3937.4001L14135.1105,-3937.2868L14135.2203,-3937.0934L14135.2707,-3936.9999L14135.3607,-3936.9465L14135.4706,-3936.9133L14135.5392,-3936.8198L14135.5804,-3936.7466L14135.6506,-3936.7134L14135.7895,-3936.7134L14135.9894,-3936.6798L14136.1496,-3936.6066L14136.2701,-3936.5868L14136.3297,-3936.6402L14136.4899,-3936.7867L14136.6104,-3936.8732L14136.7706,-3936.9133L14136.9705,-3936.9999L14137.1796,-3937.1265L14137.3596,-3937.2532L14137.4695,-3937.3264L14137.6297,-3937.36L14137.7899,-3937.3798L14137.8799,-3937.3798L14138.06,-3937.2868L14138.3301,-3937.1468L14138.4705,-3937.0533L14138.8107,-3936.9667L14138.8794,-3936.9267L14138.9297,-3936.8599L14138.9893,-3936.8401L14139.1495,-3936.8732L14139.3997,-3936.9267L14139.5599,-3936.9465L14139.6805,-3936.9667L14139.7705,-3936.8935L14140.0406,-3936.7134L14140.1794,-3936.6402L14140.2206,-3936.6402L14140.5396,-3936.4601L14140.8798,-3936.3731L14141.4307,-3936.2064L14141.7206,-3936.0134"/>
<path content="AP030,1,28,1,0,15,1,8,JPN" xlink:title="AP030" d="M14132.8125,-3936.3966L14133.49,-3937.0991L14133.781,-3937.5"/>
<path content="AP030,1,28,1,0,14,1,8,JPN" xlink:title="AP030" d="M14157.4707,-3935.7601L14157.5806,-3935.8467L14157.6797,-3935.8868L14157.7698,-3935.92L14157.9895,-3935.9531L14158.1497,-3935.9531L14158.2397,-3935.9531L14158.3801,-3935.92L14158.49,-3935.9001L14158.58,-3935.92L14158.6807,-3935.9734L14158.7006,-3936.0134L14158.7402,-3936.0466L14158.8303,-3936.1732L14158.9905,-3936.3335L14159.1797,-3936.4601L14159.2896,-3936.5334L14159.4696,-3936.5868L14159.7,-3936.5868L14159.9899,-3936.5868L14160.4004,-3937.3466L14160.4922,-3937.5"/>
<path content="AP030,1,28,1,0,15,1,8,JPN" xlink:title="AP030" d="M14156.4223,-3937.5L14157.4707,-3935.7601"/>
<path content="AP030,1,28,1,0,14,1,4,JPN" xlink:title="AP030" d="M14141.7206,-3936.0134L14142.0395,-3935.5598L14142.2897,-3935.3268L14142.4698,-3935.22"/>
<path content="AP030,1,28,1,0,14,1,8,JPN" xlink:title="AP030" d="M14153.9902,-3933.8665L14154.0604,-3933.9733L14154.2694,-3934.2602L14154.3793,-3934.3735L14154.5395,-3934.5001L14154.5807,-3934.5665L14154.6494,-3934.66L14154.7699,-3934.8L14154.8798,-3934.8732L14155.1102,-3934.9667L14155.5206,-3935.1265L14156.0806,-3935.3065L14156.4697,-3935.4134L14156.6803,-3935.5064L14156.7703,-3935.5598L14156.81,-3935.6533L14156.8802,-3935.6667L14157.4005,-3935.7201L14157.4707,-3935.7601"/>
<path content="AP030,1,28,1,0,14,1,8,JPN" xlink:title="AP030" d="M14188.4705,-3933.0933L14188.7405,-3933.2867L14188.8794,-3933.4866L14189.0396,-3933.5266L14189.1098,-3933.6533L14189.18,-3933.7399L14189.27,-3933.7933L14189.3799,-3933.9001L14189.36,-3933.9401L14189.3295,-3934.0466L14189.36,-3934.2266L14189.3295,-3934.3533L14189.3097,-3934.5867L14189.3097,-3934.7332L14189.27,-3935.0533L14189.2395,-3935.4866L14189.2197,-3935.6133L14189.3097,-3935.6865L14189.5401,-3935.8467L14190.1093,-3936.3335L14190.2893,-3936.5002L14190.4907,-3936.6798L14190.5594,-3936.7332L14190.6494,-3936.7664L14190.7196,-3936.8L14190.8798,-3936.7867L14191.0202,-3936.7332L14191.1499,-3936.6798"/>
<path content="AP030,1,28,1,0,14,1,8,JPN" xlink:title="AP030" d="M14148.2407,-3932.84L14148.3994,-3932.8934L14148.7396,-3932.9865L14149.0799,-3933.02L14149.6994,-3933.0532L14149.7894,-3933.1066L14149.9176,-3933.2001L14149.9893,-3933.2531L14150.1495,-3933.3263L14150.3799,-3933.3466L14150.7202,-3933.3797L14150.9003,-3933.3797L14151.5793,-3933.3599L14151.77,-3933.4L14151.86,-3933.4663L14151.86,-3933.6533L14151.86,-3933.72L14151.9501,-3933.7734L14152.0203,-3933.7933L14152.1301,-3933.8135L14152.33,-3933.8333L14152.5406,-3933.8665L14152.8305,-3933.9001L14153.0197,-3933.9535L14153.27,-3933.9733L14153.4698,-3933.9931L14153.5599,-3933.9931L14153.7704,-3933.9401L14153.9001,-3933.9001L14153.9902,-3933.8665"/>
<path content="AP030,1,28,1,0,14,1,8,JPN" xlink:title="AP030" d="M14142.4698,-3935.22L14142.9306,-3935.1265L14143.1305,-3935.0533L14143.2404,-3934.8598L14143.3304,-3934.7134L14143.4692,-3934.5135L14143.6295,-3934.3735L14143.9499,-3934.1732L14144.2703,-3933.9001L14144.6503,-3933.6533L14144.7205,-3933.54L14144.9905,-3933.4866L14145.2194,-3933.2733L14145.3995,-3933.1799L14145.5399,-3933.1066L14146.2906,-3933.0933L14146.5195,-3933.1467L14146.8597,-3933.2733L14147.3602,-3933.3263L14147.5403,-3933.2867L14147.6501,-3933.2531L14148.0194,-3933.0933L14148.0896,-3933.0135L14148.2407,-3932.84"/>
<path content="AP030,1,28,1,0,14,1,8,JPN" xlink:title="AP030" d="M14148.1094,-3932.7999L14148.2407,-3932.84"/>
<path content="AP030,1,28,1,0,15,1,8,JPN" xlink:title="AP030" d="M14153.2578,-3932.7606L14153.5355,-3933.1806L14153.9902,-3933.8665"/>
<path content="AP030,1,28,1,0,14,1,8,JPN" xlink:title="AP030" d="M14153.9902,-3933.8665L14154.2892,-3933.8135L14154.5395,-3933.7601L14154.7195,-3933.72L14154.8996,-3933.6533L14155.7007,-3933.3466L14156.0394,-3933.2199L14156.1996,-3933.1066L14156.3599,-3932.84L14156.4896,-3932.5672"/>
<path content="AP030,1,28,1,0,15,1,8,JPN" xlink:title="AP030" d="M14153.2578,-3932.7606L14154.95,-3932.7965L14155.6763,-3932.8117L14156.4896,-3932.5672"/>
<path content="AP030,1,28,1,0,15,1,8,JPN" xlink:title="AP030" d="M14156.4896,-3932.5672L14157.309,-3932.4356L14159.1629,-3931.9744L14160.1196,-3931.9988L14161.0443,-3932.4749L14162.5977,-3934.1427L14163.8763,-3934.0263L14164.1754,-3933.8383L14164.7797,-3934.1614L14165.5029,-3934.5306L14165.8646,-3934.6218L14166.2231,-3934.433L14166.4032,-3934.3853L14167.3706,-3935.0796L14168.6966,-3935.3985L14170.5002,-3935.574L14171.4081,-3936.1752L14172.6181,-3937.0537L14173.1598,-3937.1437L14173.7595,-3936.9999L14174.3561,-3936.5295L14175.3174,-3936.4769L14177.2339,-3935.9978L14178.9703,-3935.3798L14179.6906,-3935.2818L14180.4779,-3935.9291L14180.719,-3935.9276L14180.9586,-3935.8791L14181.5033,-3936.2019L14181.9855,-3936.3384L14182.5241,-3936.1946L14182.8812,-3935.8658L14183.1161,-3935.4443L14183.0505,-3934.9781L14183.7097,-3934.787L14184.3704,-3934.782L14184.9091,-3934.6382L14185.6842,-3934.1194L14186.525,-3934.0668L14186.821,-3933.7379L14187.3566,-3933.3141L14188.4705,-3933.0933"/>
<path content="AP030,1,28,1,0,16,1,8,JPN" xlink:title="AP030" d="M14148.1094,-3932.7999L14148.6832,-3932.0641L14149.7055,-3931.7734L14151.1581,-3932.0229L14153.2578,-3932.7606"/>
<path content="AP030,1,28,1,0,14,1,8,JPN" xlink:title="AP030" d="M14132.8125,-3935.7748L14132.8995,-3935.7201L14133.0597,-3935.6533L14133.11,-3935.5934L14133.11,-3935.4866L14133.0734,-3935.4332L14133.0597,-3935.4134L14133.0399,-3935.3466L14133.0399,-3935.2867L14133.11,-3935.2333L14133.3801,-3935.2001L14133.7204,-3935.2333L14133.8303,-3935.3065L14134.0393,-3935.4134L14134.1507,-3935.4668L14134.3094,-3935.5064L14134.4498,-3935.5064L14134.61,-3935.4134L14134.79,-3935.3065L14134.8999,-3935.2333L14134.9503,-3935.1665L14134.9701,-3935.0933L14134.9701,-3934.8598L14134.9899,-3934.7668L14135.0586,-3934.7305L14135.1303,-3934.6931L14135.3607,-3934.66L14135.4294,-3934.6401L14135.6506,-3934.6066L14135.9497,-3934.5531L14136.0596,-3934.4799L14136.1801,-3934.3533L14136.2198,-3934.28L14136.47,-3933.6533L14136.47,-3933.5934L14136.3297,-3933.5266L14136.2,-3933.5064L14136.2198,-3933.4332L14136.3297,-3933.3599L14136.4899,-3933.2531L14136.5799,-3932.9865L14136.7706,-3932.6797L14136.7706,-3932.4066L14136.9705,-3931.953L14137.1307,-3931.813L14137.3306,-3931.72L14137.3306,-3931.6132L14137.3016,-3931.5536L14137.2696,-3931.4865L14137.1994,-3931.3465L14137.2894,-3931.1466"/>
<path content="AP030,1,28,1,0,14,1,8,JPN" xlink:title="AP030" d="M14140.2695,-3930.0465L14140.5807,-3930.1331L14140.9698,-3930.2799L14141.4505,-3930.5L14141.6794,-3930.6065L14141.8304,-3930.64L14141.9495,-3930.6065L14142.1295,-3930.5664L14142.3599,-3930.5664L14142.4698,-3930.6599L14142.6102,-3930.7133L14142.7002,-3930.7465L14142.8101,-3930.7865L14142.9001,-3930.9132L14143.0801,-3930.9864L14143.4296,-3930.9998L14143.6096,-3931.0398L14143.7195,-3931.1798L14143.9896,-3931.4667L14144.2703,-3931.72L14144.4,-3931.7932L14144.7693,-3931.9L14145.43,-3932.0663L14145.9,-3932.1533L14146.1304,-3932.1934L14146.6995,-3932.2998L14147.1497,-3932.3532L14147.3602,-3932.4066L14147.6807,-3932.5665L14148.1094,-3932.7999"/>
<path content="AP030,1,28,1,0,14,1,8,JPN" xlink:title="AP030" d="M14137.2894,-3931.1466L14137.3596,-3931.1466L14137.4893,-3931.2199L14137.5793,-3931.2199L14137.6495,-3931.2199L14137.7899,-3931.1264L14137.97,-3930.9265L14137.9303,-3930.7667L14137.8799,-3930.64L14137.8601,-3930.4798L14137.9501,-3930.3333L14138.2401,-3930.2067L14138.5803,-3930.1731L14138.7695,-3930.2067L14138.8992,-3930.2998L14139.0396,-3930.3864L14139.1998,-3930.3864L14139.3295,-3930.3532L14139.4897,-3930.1533L14139.6805,-3930.0266L14139.9307,-3930.0133L14140.1993,-3930.0266L14140.2695,-3930.0465"/>
<path content="AP030,1,28,1,0,14,1,8,JPN" xlink:title="AP030" d="M14170.5566,-3929.3129L14170.43,-3929.2332L14170.3094,-3929.2198L14170.1996,-3929.2732L14170.1797,-3929.3266L14170.1996,-3929.38L14170.3094,-3929.38L14170.5566,-3929.3129"/>
<path content="AP030,1,28,1,0,14,1,8,JPN" xlink:title="AP030" d="M14188.4705,-3933.0933L14188.6093,-3932.8197L14188.6307,-3932.7465L14188.6307,-3932.6797L14188.5406,-3932.5665L14188.4705,-3932.4799L14188.4705,-3932.4066L14188.4506,-3932.2598L14188.3606,-3932.0999L14188.3301,-3931.7734L14188.3804,-3931.6334L14188.4003,-3931.5598L14188.3804,-3931.3267L14188.3804,-3931.2733L14188.4293,-3931.2531L14188.6047,-3931.282L14188.6307,-3931.2866L14188.7894,-3931.2866L14188.9297,-3931.1798L14189.0594,-3930.9666L14189.0198,-3930.6801L14188.9893,-3930.5866L14188.8596,-3930.5L14188.7207,-3930.3734L14188.6093,-3930.2998L14188.5406,-3930.2464L14188.4903,-3930.2067L14188.4506,-3930.1533L14188.4293,-3929.9931L14188.4293,-3929.9L14188.4506,-3929.6864L14188.3102,-3929.3999L14188.3804,-3929.1466"/>
<path content="AP030,1,28,1,0,14,1,8,JPN" xlink:title="AP030" d="M14169.8105,-3929.1264L14169.9295,-3929.2534L14169.9493,-3929.38L14169.8807,-3929.5067L14169.9005,-3929.6532L14169.8593,-3929.7199L14169.8593,-3929.7932L14169.8593,-3929.8332L14169.9295,-3929.8332L14169.9905,-3929.7932L14170.1096,-3929.6131L14170.1492,-3929.5799L14170.2698,-3929.5399L14170.4895,-3929.5067L14170.6299,-3929.4666L14170.6299,-3929.3598L14170.5566,-3929.3129"/>
<path content="AP030,1,28,1,0,14,1,8,JPN" xlink:title="AP030" d="M14156.4896,-3932.5672L14156.6498,-3932.2266L14157.0801,-3931.2866L14157.4295,-3930.8399L14157.8796,-3930.0266L14157.9697,-3929.7932L14157.9895,-3929.5067L14157.9895,-3929.3598L14158.0795,-3929.1798L14158.244,-3929.0327"/>
<path content="AP030,1,28,1,0,14,1,8,JPN" xlink:title="AP030" d="M14132.8125,-3929.1466L14132.8598,-3929.1466L14132.9498,-3929.1466L14133.0597,-3929.1264L14133.2001,-3929.1798L14133.1802,-3929.2732L14133.1497,-3929.3064L14132.9895,-3929.4666L14132.8796,-3929.6131L14132.93,-3930.0133L14133.02,-3930.0999L14133.1299,-3930.0999L14133.1802,-3930.0999L14133.3603,-3929.9L14133.4702,-3929.8466L14133.9005,-3929.8332L14133.9905,-3929.8466L14134.0805,-3929.9534L14134.2194,-3930.0266L14134.4498,-3930.1201L14134.4894,-3930.1533L14134.52,-3930.1933L14134.5596,-3930.3734L14134.5795,-3930.4264L14134.6298,-3930.4798L14134.7,-3930.5134L14134.7702,-3930.5332L14134.8801,-3930.5L14135.0601,-3930.4798L14135.3607,-3930.4398L14135.5606,-3930.3864L14136.38,-3929.9198L14136.5204,-3929.9L14136.5601,-3929.9198L14136.5601,-3929.9732L14136.5402,-3930.0465L14136.6104,-3930.1731L14136.7203,-3930.2799L14136.8301,-3930.3734L14136.9003,-3930.4398L14137.0193,-3930.6065L14136.9904,-3930.7133L14136.9293,-3930.8731L14136.9507,-3930.9998L14137.0193,-3931.1264L14137.0605,-3931.1665L14137.1094,-3931.1665L14137.2406,-3931.1466L14137.2894,-3931.1466"/>
<path content="AP030,1,28,1,0,14,1,8,JPN" xlink:title="AP030" d="M14158.244,-3929.0327L14158.4,-3928.8933L14158.8806,-3928.5332L14158.9905,-3928.4397"/>
<path content="AP030,1,28,1,0,14,1,4,JPN" xlink:title="AP030" d="M14188.3804,-3929.1466L14188.6307,-3928.3531L14188.7405,-3928.0464"/>
<path content="AP030,1,28,1,0,14,1,4,JPN" xlink:title="AP030" d="M14169.8105,-3929.1264L14167.9901,-3927.56"/>
<path content="AP030,1,28,1,0,14,1,8,JPN" xlink:title="AP030" d="M14188.7405,-3928.0464L14188.7695,-3927.94L14188.7695,-3927.7931L14188.7207,-3927.6131L14188.6993,-3927.4532L14188.6993,-3927.3464L14188.6993,-3927.2533L14188.6093,-3927.0733L14188.5605,-3926.7998L14188.4903,-3926.6064"/>
<path content="AP030,1,28,1,0,14,1,8,JPN" xlink:title="AP030" d="M14158.9905,-3928.4397L14158.9081,-3928.252L14158.8104,-3928.0266L14158.7402,-3927.6863L14158.8104,-3927.3464L14158.8303,-3927.0733L14158.7906,-3926.9264L14158.7906,-3926.8932L14158.7692,-3926.7464L14158.8303,-3926.6197L14158.9005,-3926.5331L14159.2697,-3926.4065L14159.2896,-3926.3531L14159.2896,-3926.3199L14159.2896,-3926.2264"/>
<path content="AP030,1,28,1,0,14,1,8,JPN" xlink:title="AP030" d="M14159.2896,-3926.2264L14159.2475,-3926.1306"/>
<path content="AP030,1,28,1,0,16,1,8,JPN" xlink:title="AP030" d="M14159.2475,-3926.1306L14158.89,-3926.252L14158.32,-3926.622L14157.93,-3926.981L14157.74,-3927.381L14157.68,-3927.804L14157.74,-3928.244L14157.89,-3928.592L14158.244,-3929.0327"/>
<path content="AP030,1,28,1,0,14,1,8,JPN" xlink:title="AP030" d="M14159.2896,-3926.2264L14159.3038,-3926.1115"/>
<path content="AP030,1,28,1,0,16,1,8,JPN" xlink:title="AP030" d="M14159.3038,-3926.1115L14159.2475,-3926.1306"/>
<path content="AP030,1,28,1,0,14,1,8,JPN" xlink:title="AP030" d="M14170.5566,-3929.3129L14170.7199,-3929.2L14170.9503,-3928.9467L14170.9702,-3928.7331L14171.08,-3928.6198L14171.1807,-3928.5664L14171.2692,-3928.5133L14171.373,-3928.4542L14171.4905,-3928.3867L14171.5195,-3928.2997L14171.5805,-3928.1731L14171.7407,-3927.9732L14171.9299,-3927.8866L14172.0398,-3927.8133L14172.0795,-3927.7199L14172.3602,-3927.5066L14172.5967,-3927.3178L14172.7203,-3927.2198L14172.7707,-3926.8398L14172.8104,-3926.6064L14173.2193,-3926.2798L14173.2895,-3926.2264L14173.3994,-3925.9197"/>
<path content="AP030,1,28,1,0,14,1,8,JPN" xlink:title="AP030" d="M14159.3038,-3926.1115L14159.3094,-3926.0666L14159.52,-3925.8663"/>
<path content="AP030,1,28,1,0,14,1,4,JPN" xlink:title="AP030" d="M14159.52,-3925.8663L14159.5795,-3925.7599"/>
<path content="AP030,1,28,1,0,14,1,8,JPN" xlink:title="AP030" d="M14159.2475,-3926.1306L14159.2194,-3926.0666L14159.3307,-3925.7931L14159.3597,-3925.7198L14159.4299,-3925.6664L14159.4696,-3925.6664L14159.4894,-3925.6664L14159.5795,-3925.7599"/>
<path content="AP030,1,28,1,0,14,1,8,JPN" xlink:title="AP030" d="M14159.5795,-3925.7599L14159.6497,-3925.7401L14159.6497,-3925.6443"/>
<path content="AP030,1,28,1,0,14,1,4,JPN" xlink:title="AP030" d="M14159.5795,-3925.7599L14159.6497,-3925.6443"/>
<path content="AP030,1,28,1,0,14,1,8,JPN" xlink:title="AP030" d="M14158.9905,-3928.4397L14159.3094,-3928.2467L14159.7397,-3928.0666L14159.8602,-3928.0666L14160.0403,-3928.0666L14160.2707,-3928.0464L14160.5392,-3927.7599L14160.8795,-3927.5066L14161.0596,-3927.38L14161.1801,-3927.1263L14161.3098,-3926.7132L14161.4899,-3926.5663L14161.6302,-3926.5331L14161.8805,-3926.4599L14162.1506,-3926.4065L14162.5198,-3926.3L14162.6999,-3926.1333L14162.8098,-3926.0799L14162.8998,-3926.0464L14163.4705,-3925.8865L14163.7894,-3925.8133L14164.0594,-3925.7732L14164.2395,-3925.7065L14164.5401,-3925.6332L14164.83,-3925.6332L14164.9002,-3925.6531L14165.0192,-3925.7599L14165.1306,-3925.7931L14165.1794,-3925.8133L14165.3107,-3925.8331L14165.3305,-3925.8663L14165.3793,-3925.9399L14165.3793,-3926.0265L14165.4694,-3926.0799L14165.6494,-3926.173L14165.8295,-3926.2798L14165.95,-3926.2798L14166.0599,-3926.3199L14166.1102,-3926.3866L14166.1804,-3926.4599L14166.2903,-3926.5133L14166.4001,-3926.5663L14166.5802,-3926.6064L14166.7694,-3926.68L14166.8793,-3926.7666L14167.0197,-3926.8932L14167.0807,-3926.9131L14167.2394,-3926.9264L14167.3096,-3926.9863L14167.4301,-3927.1065L14167.5201,-3927.1263L14167.5797,-3927.1465L14167.6102,-3927.1999L14167.5598,-3927.2732L14167.5598,-3927.3598L14167.6102,-3927.4132L14167.7399,-3927.4532L14167.9901,-3927.56"/>
<path content="AP030,1,28,1,0,14,1,8,JPN" xlink:title="AP030" d="M14173.3994,-3925.9197L14173.4695,-3925.7931L14173.6298,-3925.7198L14173.8098,-3925.613L14174.0601,-3925.4665L14174.1501,-3925.4333L14174.2905,-3925.4333L14174.3607,-3925.4665L14174.5193,-3925.5798L14174.6094,-3925.613L14174.6994,-3925.6664L14174.9298,-3925.6664L14175.3098,-3925.6664L14175.4681,-3925.5566"/>
<path content="AP030,1,28,1,0,14,1,8,JPN" xlink:title="AP030" d="M14179.4907,-3925.4333L14179.9301,-3925.4665L14180.2399,-3925.5066L14180.5801,-3925.5932L14181.1096,-3925.6664L14181.4301,-3925.6866L14181.6803,-3925.6664L14182.0404,-3925.6664L14182.3105,-3925.7401L14182.6096,-3925.8465L14182.7393,-3925.8999L14183.0399,-3926.0132L14183.2001,-3926.0666L14183.4305,-3926.2066L14183.6304,-3926.3733L14183.7204,-3926.44L14183.9706,-3926.5133L14184.0805,-3926.5533L14184.4299,-3926.6197L14185.3806,-3926.7864L14185.7895,-3926.9131L14185.8307,-3926.9264L14186.0794,-3927.0397L14186.38,-3927.1664L14186.8607,-3927.3266L14187.1094,-3927.2533L14187.3993,-3927.1664L14187.4893,-3927.1465L14188.1805,-3926.7132L14188.3789,-3926.6445L14188.4903,-3926.6064"/>
<path content="AP030,1,28,1,0,16,1,8,JPN" xlink:title="AP030" d="M14179.4907,-3925.4333L14179.13,-3925.545L14178.55,-3925.875L14178.05,-3926.112L14177.57,-3926.228L14176.82,-3926.223L14176.16,-3926.037L14175.61,-3925.707L14175.4681,-3925.5566"/>
<path content="AP030,1,28,1,0,16,1,8,JPN" xlink:title="AP030" d="M14162.8725,-3925.0737L14162.05,-3925.406L14161.08,-3925.684L14160.04,-3925.887L14159.42,-3926.072L14159.3038,-3926.1115"/>
<path content="AP030,1,28,1,0,14,1,8,JPN" xlink:title="AP030" d="M14175.4681,-3925.5566L14175.5402,-3925.5066L14175.7721,-3925.1743L14175.8804,-3925.0198L14176.0193,-3924.9664L14176.4893,-3924.9264L14176.6098,-3924.9466L14176.8097,-3925.053L14177.0401,-3925.0931L14177.4002,-3925.1801L14177.6993,-3925.2331L14177.8305,-3925.3063L14178.0594,-3925.3998L14178.2394,-3925.4131L14178.4302,-3925.3464L14178.5599,-3925.3265L14178.8605,-3925.3464L14179.2007,-3925.4131L14179.4907,-3925.4333"/>
<path content="AP030,1,28,1,0,14,1,8,JPN" xlink:title="AP030" d="M14188.4903,-3926.6064L14188.6795,-3926.5331L14189.0198,-3926.4065L14189.1495,-3926.3733L14189.3295,-3926.3199L14189.4302,-3926.3L14189.5401,-3926.2466L14189.5401,-3926.0998L14189.5599,-3926.0265L14189.6301,-3925.9731L14189.5798,-3925.7599L14189.5599,-3925.5798L14189.5203,-3925.5398L14189.2395,-3925.5398L14189.1998,-3925.5398L14189.0793,-3925.4532L14188.9893,-3925.3464L14188.9297,-3925.3265L14188.8794,-3925.2731L14188.8596,-3925.1266L14188.8306,-3925.0401L14188.7894,-3924.9664L14188.8107,-3924.6933L14188.8306,-3924.6063"/>
<path content="AP030,1,28,1,0,14,1,4,JPN" xlink:title="AP030" d="M14159.6497,-3925.6443L14159.79,-3925.4131L14159.8297,-3925.3265L14160.1105,-3924.7997L14160.1807,-3924.1531L14160.1807,-3924.1199"/>
<path content="AP030,1,28,1,0,16,1,8,JPN" xlink:title="AP030" d="M14175.4681,-3925.5566L14175.26,-3925.336L14174.85,-3924.942L14174.24,-3924.323L14173.6,-3923.935"/>
<path content="AP030,1,28,1,0,16,1,4,JPN" xlink:title="AP030" d="M14173.6,-3923.935L14172.82,-3923.738L14171.7,-3923.512L14171.4946,-3923.4834"/>
<path content="AP030,1,28,1,0,15,1,8,JPN" xlink:title="AP030" d="M14171.4946,-3923.4834L14171.55,-3923.5344L14171.3379,-3924.1295L14171.2845,-3924.2996L14172.8195,-3924.8844L14172.4945,-3925.2258L14172.4991,-3925.5653L14173.1705,-3925.8293L14173.3994,-3925.9197"/>
<path content="AP030,1,28,1,0,16,1,4,JPN" xlink:title="AP030" d="M14171.4946,-3923.4834L14171.0738,-3923.4248"/>
<path content="AP030,1,28,1,0,15,1,8,JPN" xlink:title="AP030" d="M14167.0664,-3923.2902L14167.514,-3923.6858L14167.7872,-3923.8113L14169.6426,-3923.7156L14170.7336,-3923.6668L14171.0738,-3923.4248"/>
<path content="AP030,1,28,1,0,16,1,4,JPN" xlink:title="AP030" d="M14167.0664,-3923.2902L14166.86,-3923.303L14166.02,-3923.378L14165.26,-3923.581L14164.4,-3923.952L14163.54,-3924.797L14163.04,-3925.006L14162.8725,-3925.0737"/>
<path content="AP030,1,28,1,0,15,1,8,JPN" xlink:title="AP030" d="M14171.0738,-3923.4248L14171.2753,-3923.2815L14171.4946,-3923.4834"/>
<path content="AP030,1,28,1,0,16,1,4,JPN" xlink:title="AP030" d="M14171.0738,-3923.4248L14170.91,-3923.402L14170.05,-3923.344L14169.37,-3923.245L14167.7,-3923.251L14167.0664,-3923.2902"/>
<path content="AP030,1,28,1,0,14,1,8,JPN" xlink:title="AP030" d="M14188.8306,-3924.6063L14188.8596,-3924.5533L14188.8992,-3924.4598L14188.8992,-3924.353L14188.5803,-3923.74L14188.5406,-3923.4863L14188.4903,-3923.3799L14188.3804,-3923.1464"/>
<path content="AP030,1,28,1,0,14,1,8,JPN" xlink:title="AP030" d="M14160.1807,-3924.1199L14160.1303,-3923.9399L14159.9899,-3923.74L14160.0204,-3923.5931L14160.0204,-3923.5264L14159.9701,-3923.4665L14159.8297,-3923.4665L14159.8099,-3923.4131L14159.8099,-3923.2201L14159.7702,-3923.093L14159.8099,-3922.9664L14159.79,-3922.6601L14159.79,-3922.5132L14159.6497,-3922.3L14159.5795,-3922.2065"/>
<path content="AP030,1,28,1,0,14,1,8,JPN" xlink:title="AP030" d="M14159.6497,-3925.6443L14159.6497,-3925.5932L14159.6497,-3925.5264L14159.6298,-3925.3597L14159.6802,-3925.2197L14159.8099,-3925.0931L14159.8602,-3924.9866L14159.8999,-3924.7665L14159.9304,-3924.5533L14159.8801,-3924.3732L14159.8602,-3924.2798L14159.7198,-3924.2264L14159.6802,-3924.1531L14159.6298,-3924.0463L14159.5795,-3923.9933L14159.5795,-3923.9399L14159.7,-3923.8464L14159.6802,-3923.793L14159.5398,-3923.7598L14159.3796,-3923.7732L14159.3597,-3923.74L14159.4299,-3923.653L14159.4498,-3923.56L14159.52,-3923.4863L14159.5795,-3923.4531L14159.61,-3923.4131L14159.5398,-3923.3601L14159.4894,-3923.3265L14159.4894,-3923.2533L14159.5596,-3923.1998L14159.5795,-3923.093L14159.6298,-3923.0534L14159.5795,-3923.0198L14159.52,-3923L14159.5398,-3922.9134L14159.5596,-3922.86L14159.61,-3922.8001L14159.5795,-3922.4998L14159.52,-3922.4266L14159.4299,-3922.4064L14159.3994,-3922.3732L14159.5795,-3922.2065"/>
<path content="AP030,1,28,1,0,14,1,4,JPN" xlink:title="AP030" d="M14188.3804,-3923.1464L14187.8296,-3922.5132L14187.5595,-3922.1531"/>
<path content="AP030,1,28,1,0,14,1,8,JPN" xlink:title="AP030" d="M14187.5595,-3922.1531L14187.4893,-3922.0467L14187.4893,-3921.9398L14187.4695,-3921.8864L14187.4298,-3921.8132L14187.3993,-3921.7731L14187.3993,-3921.7064L14187.6099,-3921.4867L14187.6297,-3921.4333"/>
<path content="AP030,1,28,1,0,15,1,8,JPN" xlink:title="AP030" d="M14187.6297,-3921.4333L14188.652,-3921.0831L14189.3616,-3921.1624L14189.7461,-3921.3715L14189.7446,-3921.2017L14190.2847,-3920.858L14190.7272,-3921.2791L14190.9454,-3921.2772L14191.4398,-3921.5282L14191.3895,-3921.8254L14191.3376,-3922.0806L14192.0486,-3922.2446L14191.8884,-3922.5006L14191.3452,-3922.6746L14191.9495,-3922.9668L14192.1692,-3923.1346L14191.2994,-3923.354L14190.7059,-3923.8251L14190.8203,-3924.2485L14190.4938,-3924.3786L14188.8306,-3924.6063"/>
<path content="AP030,1,28,1,0,14,1,8,JPN" xlink:title="AP030" d="M14159.5795,-3922.2065L14159.5398,-3921.8132L14159.4894,-3921.3467L14159.4498,-3920.9999L14159.3307,-3920.8931L14159.2194,-3920.7867L14159.1095,-3920.5532L14159.2194,-3920.3197L14159.1995,-3920.1733L14159.0805,-3919.9734"/>
<path content="AP030,1,28,1,0,14,1,8,JPN" xlink:title="AP030" d="M14185.8795,-3919.1998L14185.9497,-3919.2734L14186.0199,-3919.3264L14186.1496,-3919.4L14186.2,-3919.5065L14186.2,-3919.9398L14186.2,-3919.9734L14186.2198,-3920.153L14186.2701,-3920.2801L14186.3297,-3920.3331L14186.38,-3920.3732L14186.47,-3920.4597L14186.4899,-3920.5532L14186.4899,-3920.6932L14186.5204,-3920.7664L14186.5051,-3920.9156L14186.4899,-3921.0533L14186.5204,-3921.1266L14186.5601,-3921.1464L14186.6302,-3921.1464L14186.647,-3921.1464L14186.7203,-3921.1464L14186.8607,-3921.0197L14187.0804,-3920.9465L14187.2696,-3920.9465L14187.3093,-3920.9663L14187.4893,-3921.18L14187.5793,-3921.2864L14187.6495,-3921.3799L14187.6297,-3921.4333"/>
<path content="AP030,1,28,1,0,14,1,8,JPN" xlink:title="AP030" d="M14184.8297,-3919.1799L14185.4904,-3919.1799L14185.7635,-3919.194L14185.8795,-3919.1998"/>
<path content="AP030,1,28,1,0,15,1,8,JPN" xlink:title="AP030" d="M14159.0805,-3919.9734L14160.2188,-3919.1853L14160.9238,-3918.7149L14161.8484,-3918.4978L14162.1216,-3918.6237L14163.768,-3919.7182L14165.184,-3919.8849L14165.8768,-3921.0712L14166.0233,-3921.8273L14166.7984,-3923.0534L14167.0664,-3923.2902"/>
<path content="AP030,1,28,1,0,14,1,8,JPN" xlink:title="AP030" d="M14185.3607,-3918.4799L14185.3302,-3918.5532L14185.2905,-3918.5863L14185.2203,-3918.6066L14185.1303,-3918.6199L14185.0403,-3918.6798L14184.9899,-3918.7332L14184.9899,-3918.8L14185.0403,-3918.8599L14185.1105,-3918.9465L14184.9701,-3918.9999L14184.7397,-3918.9865L14184.6802,-3919.0201L14184.6298,-3919.0533L14184.6298,-3919.1067L14184.6802,-3919.1666L14184.8297,-3919.1799"/>
<path content="AP030,1,28,1,0,14,1,4,JPN" xlink:title="AP030" d="M14138.2004,-3918.0134L14138.5193,-3918.0264L14139.0396,-3918.0664L14139.4501,-3918.0798"/>
<path content="AP030,1,28,1,0,14,1,8,JPN" xlink:title="AP030" d="M14137.6999,-3917.7399L14137.8601,-3917.9398L14138.0402,-3918.0134L14138.2004,-3918.0134"/>
<path content="AP030,1,28,1,0,15,1,8,JPN" xlink:title="AP030" d="M14132.8125,-3923.1588L14133.2642,-3922.9774L14133.7936,-3922.4323L14133.8684,-3922.1901L14133.7936,-3921.9479L14133.7936,-3921.645L14134.3231,-3921.3421L14135.0037,-3920.797L14135.3821,-3920.3728L14135.4568,-3920.0096L14135.3821,-3919.4038L14135.6842,-3918.98L14136.2137,-3918.6771L14136.5921,-3918.3136L14137.0453,-3917.9501L14137.3489,-3917.8288L14137.6999,-3917.7399"/>
<path content="AP030,1,28,1,0,14,1,8,JPN" xlink:title="AP030" d="M14132.8125,-3917.3798L14132.8995,-3917.3798L14133.1299,-3917.2733L14133.3603,-3917.2199L14133.58,-3917.2199L14133.7006,-3917.2867L14133.7402,-3917.3065L14133.8593,-3917.2867L14133.9905,-3917.3065L14134.1507,-3917.3599L14134.2407,-3917.3798L14134.3796,-3917.3264L14134.4696,-3917.2733L14134.7,-3917.2733L14134.9503,-3917.2867L14135.1303,-3917.2001L14135.4004,-3917.02L14135.5392,-3916.9464L14135.6995,-3916.9266L14135.7697,-3916.8934L14135.9695,-3916.7465"/>
<path content="AP030,1,28,1,0,14,1,8,JPN" xlink:title="AP030" d="M14135.9695,-3916.7465L14136.1298,-3916.6931L14136.2396,-3916.7133L14136.4899,-3916.84L14136.5799,-3916.8934L14136.7004,-3916.9998L14136.7905,-3917.0933L14136.8301,-3917.2199L14136.8607,-3917.4332L14136.9507,-3917.6132L14137.3795,-3917.58L14137.4496,-3917.5266L14137.5793,-3917.3599L14137.7197,-3917.2001L14137.7701,-3917.1799L14137.8296,-3917.1799L14137.8601,-3917.2733L14137.6999,-3917.5934L14137.6999,-3917.7399"/>
<path content="AP030,1,28,1,0,14,1,4,JPN" xlink:title="AP030" d="M14185.3607,-3918.4799L14185.376,-3918.0214L14185.4294,-3916.3864"/>
<path content="AP030,1,28,1,0,14,1,8,JPN" xlink:title="AP030" d="M14139.4501,-3918.0798L14139.7202,-3918.0798L14140.1993,-3918.0664L14140.5807,-3917.9398L14140.7898,-3917.8864L14141.2399,-3917.54L14141.4001,-3917.4L14141.4001,-3917.1665L14141.4307,-3917.0933L14141.5405,-3916.9865L14141.7206,-3916.8934L14141.9495,-3916.84L14142.0395,-3916.84L14142.1997,-3916.8198L14142.4301,-3916.8598L14142.4896,-3916.8598L14142.6804,-3916.8732L14142.7902,-3916.8598L14142.9504,-3916.84L14143.0206,-3916.8198L14143.0603,-3916.7332L14143.0801,-3916.6199L14143.1503,-3916.6065L14143.3304,-3916.5333L14143.4494,-3916.4997L14143.5593,-3916.4997L14143.6493,-3916.5867L14143.7393,-3916.6798L14143.8095,-3916.6798L14143.8995,-3916.6065L14144.0598,-3916.46L14144.1498,-3916.3731L14144.2703,-3916.3532L14144.3604,-3916.3334L14144.3802,-3916.2998L14144.3802,-3916.1533"/>
<path content="AP030,1,28,1,0,14,1,8,JPN" xlink:title="AP030" d="M14140.2695,-3930.0465L14140.2405,-3929.9732L14140.2405,-3929.8134L14140.2695,-3929.6864L14140.3107,-3929.5399L14140.4297,-3929.3999L14140.4694,-3929.2332L14140.4694,-3928.9265L14140.6494,-3928.7865L14140.6799,-3928.6064L14140.7394,-3928.4798L14140.8295,-3928.3867L14141.0202,-3928.2799L14141.04,-3928.0998L14141.0797,-3928.0666L14141.2399,-3927.993L14141.2903,-3927.94L14141.6306,-3927.5398L14141.7206,-3927.4666L14141.8793,-3927.3064L14141.9907,-3927.0199L14142.1295,-3926.7464L14142.1997,-3926.7132L14142.5201,-3926.6064L14142.6102,-3926.5331L14142.72,-3926.3866L14142.7902,-3926.3332L14142.9306,-3926.26L14143.0206,-3926.2066L14143.2907,-3925.9399L14143.4692,-3925.7198L14143.6996,-3925.3464L14143.8797,-3925.0401L14144.0201,-3924.7131L14144.1498,-3924.1333L14144.2001,-3923.8667L14144.22,-3923.74L14144.2902,-3923.3265L14144.5801,-3923.18L14144.6304,-3922.9866L14144.7006,-3922.6933L14144.8105,-3922.3866L14144.9493,-3921.973L14144.9707,-3921.9532L14145.0394,-3921.92L14145.3796,-3921.7598L14145.4697,-3921.5401L14145.7001,-3921.22L14145.8298,-3920.8199L14146.0205,-3920.62L14146.0205,-3920.5334L14145.99,-3920.3331L14146.0602,-3920.2465L14146.1304,-3920.2065L14146.2204,-3920.1332L14146.2402,-3919.92L14146.2906,-3919.8463L14146.3593,-3919.7933L14146.3593,-3919.6865L14146.4706,-3919.453L14146.5805,-3919.4134L14146.6797,-3919.3466L14146.7896,-3919.1463L14146.7896,-3918.9865L14146.7697,-3918.6798L14146.9299,-3918.3201L14146.9498,-3918.1198L14147.0795,-3918.0134L14147.1497,-3917.9199L14147.1802,-3917.72L14147.3999,-3917.3599L14147.6303,-3917.1665L14147.9004,-3916.9464L14148.1796,-3916.7999L14148.3994,-3916.6199L14148.6496,-3916.4398L14148.6801,-3916.2998L14148.79,-3916.1533L14148.8297,-3916.1198L14149.1501,-3916.1198L14149.2401,-3916.0267L14149.3805,-3915.9931L14149.8993,-3915.9733L14149.9695,-3915.9733L14150.1297,-3916.0267L14150.2899,-3916.0667"/>
<path content="AP030,1,28,1,0,15,1,8,JPN" xlink:title="AP030" d="M14185.4294,-3916.3864L14187.4405,-3915.7455L14188.1531,-3916.1221L14189.035,-3916.8793L14190.1886,-3917.5491L14190.0803,-3917.5922L14188.9359,-3917.6014L14188.7238,-3918.0695L14188.3987,-3918.2842L14187.9089,-3918.4151L14188.0234,-3918.8389L14187.8052,-3918.8404L14185.8795,-3919.1998"/>
<path content="AP030,1,28,1,0,15,1,8,JPN" xlink:title="AP030" d="M14135.9695,-3916.7465L14136.5784,-3916.0328L14137.1964,-3915.5281"/>
<path content="AP030,1,28,1,0,15,1,8,JPN" xlink:title="AP030" d="M14137.1964,-3915.5281L14137.7182,-3915.361L14138.2568,-3915.3931L14138.7527,-3915.7928L14139.3326,-3916.3208L14139.7675,-3916.4806L14141.156,-3916.4646L14142.2318,-3916.2727L14143.1427,-3916.161L14144.3802,-3916.1533"/>
<path content="AP030,1,28,1,0,14,1,8,JPN" xlink:title="AP030" d="M14159.0805,-3919.9734L14158.9005,-3919.8334L14158.8104,-3919.8334L14158.6502,-3919.8463L14158.5403,-3919.8132L14158.4702,-3919.6667L14158.3801,-3919.5801L14158.2199,-3919.5599L14158.1497,-3919.5267L14157.9498,-3919.4134L14157.7194,-3919.3798L14157.5607,-3919.4L14157.2403,-3919.453L14156.9504,-3919.4664L14156.81,-3919.4332L14156.5796,-3919.3066L14156.4499,-3919.22L14156.1996,-3919.0533L14155.9692,-3918.8931L14155.6793,-3918.6798L14155.5405,-3918.5532L14155.3101,-3918.4399L14155.1498,-3918.3533L14155.0201,-3918.2064L14154.8096,-3918.0466L14154.6097,-3917.8467L14154.4907,-3917.6865L14154.4693,-3917.4664L14154.4693,-3917.4332L14154.4693,-3916.9464L14154.3594,-3916.7133L14154.3304,-3916.5665L14154.4006,-3916.2266L14154.3304,-3915.9397L14154.1504,-3915.76L14154.0604,-3915.6532L14153.9703,-3915.3465L14153.9703,-3915.2531L14154.1794,-3915.1264"/>
<path content="AP030,1,28,1,0,14,1,8,JPN" xlink:title="AP030" d="M14150.2899,-3916.0667L14150.47,-3916.1732L14150.65,-3916.1934L14151.0193,-3916.1198L14151.2405,-3915.9931L14151.5594,-3915.8665L14151.6098,-3915.8466L14152.3102,-3915.8333L14152.7405,-3915.633L14152.8107,-3915.5598L14152.7695,-3915.4133L14152.7206,-3915.2733L14152.7695,-3915.2199L14152.8107,-3915.2L14152.8793,-3915.2L14152.9297,-3915.2L14153.0807,-3915.3065L14153.1998,-3915.3599L14153.2394,-3915.3465L14153.3295,-3915.3267L14153.3997,-3915.2866L14153.6804,-3915.1264L14153.7201,-3915.0932L14153.8101,-3915.0532L14153.9902,-3915.0532L14154.1794,-3915.1264"/>
<path content="AP030,1,28,1,0,14,1,8,JPN" xlink:title="AP030" d="M14144.3802,-3916.1533L14144.4305,-3916.0999L14144.5602,-3916.0267L14144.5801,-3915.9733L14144.5801,-3915.9L14144.6106,-3915.8466L14144.6793,-3915.7932L14144.6503,-3915.6864L14144.6106,-3915.5933L14144.6503,-3915.4331L14144.7693,-3915.3599L14144.9005,-3915.3267L14145.0195,-3915.2866L14145.0806,-3915.2199L14145.1492,-3915.1264L14145.1996,-3915.1066L14145.3598,-3915.1264L14145.5399,-3915.1798L14145.7001,-3915.1798L14145.7397,-3915.073L14145.7199,-3914.8399L14145.7703,-3914.7331L14145.8603,-3914.7331L14146.0205,-3914.7133L14146.08,-3914.6599L14146.1807,-3914.6065L14146.4905,-3914.64L14146.5805,-3914.6599L14146.7896,-3914.7999L14147.0398,-3914.9265L14147.1298,-3914.9265L14147.2702,-3914.9132L14147.3602,-3914.8731L14147.6105,-3914.8197L14147.7203,-3914.7865L14147.8302,-3914.7133L14147.9294,-3914.5866L14148.1293,-3914.4798L14148.1995,-3914.4398L14148.3093,-3914.373L14148.4695,-3914.3333L14148.7701,-3914.2597L14148.9502,-3914.2597L14149.0402,-3914.2998L14149.1501,-3914.4398L14149.1806,-3914.5332L14149.2706,-3914.6065L14149.3805,-3914.64L14149.4904,-3914.6198L14149.5605,-3914.6065L14149.6796,-3914.6065L14149.7894,-3914.7667L14149.7406,-3914.9265L14149.7192,-3914.9666L14149.5407,-3914.9864L14149.4705,-3915.0532L14149.4507,-3915.2L14149.5407,-3915.2733L14149.6307,-3915.2733L14149.7696,-3915.3065L14149.9298,-3915.4331L14149.9496,-3915.6132L14149.9298,-3915.6666L14150.0595,-3915.7066L14150.1801,-3915.7932L14150.2899,-3916.0667"/>
<path content="AP030,1,28,1,0,14,1,8,JPN" xlink:title="AP030" d="M14154.1794,-3915.1264L14154.2206,-3915.1264L14154.3594,-3915.1066L14154.5807,-3914.9864L14154.6997,-3914.8731L14154.8096,-3914.5531L14154.8996,-3914.4798L14155.0598,-3914.46L14155.5603,-3914.4798L14155.7404,-3914.5531L14155.9296,-3914.6797L14156.1493,-3914.6931L14156.5399,-3914.6931L14156.7001,-3914.6198L14157.1304,-3914.3333L14157.4905,-3914.0999L14157.5195,-3913.8466L14157.6096,-3913.7398L14157.7393,-3913.6665"/>
<path content="AP030,1,28,1,0,16,1,8,JPN" xlink:title="AP030" d="M14173.6298,-3912.4798L14174.0204,-3912.553L14174.6094,-3912.6064L14175.3098,-3912.64L14175.8301,-3912.6198L14176.0193,-3912.5668L14176.1826,-3912.4752"/>
<path content="AP030,1,28,1,0,15,1,8,JPN" xlink:title="AP030" d="M14167.1097,-3912.4397L14168.1778,-3913.2858L14168.7881,-3914.4279L14169.7739,-3914.9734L14169.9982,-3915.6509L14172.7951,-3917.289L14173.1247,-3917.4992L14172.4716,-3917.6727L14172.9111,-3918.0096L14173.6206,-3918.005L14174.0021,-3918.045L14174.3835,-3918.0428L14174.3927,-3918.8911L14175.1022,-3918.8866L14175.5325,-3918.3746L14177.9892,-3918.6981L14180.8868,-3919.3996L14183.342,-3919.5095L14184.8297,-3919.1799"/>
<path content="AP030,1,28,1,0,14,1,8,JPN" xlink:title="AP030" d="M14157.7393,-3913.6665L14158.11,-3913.6532L14158.3298,-3913.6868L14158.4305,-3913.7733L14158.49,-3914.0133L14158.58,-3914.0999L14158.8303,-3914.2067L14159.0607,-3914.2998L14159.1797,-3914.4066L14159.2697,-3914.4398L14159.5398,-3914.46L14159.7198,-3914.513L14159.9304,-3914.5664L14160.1105,-3914.5664L14160.5194,-3914.5L14160.6995,-3914.513L14160.9894,-3914.6065L14161.1099,-3914.5866L14161.3297,-3914.5332L14161.6501,-3914.5531L14161.7401,-3914.6198L14161.8103,-3914.6599L14162.0605,-3914.7465L14162.0804,-3914.7999L14162.1094,-3915.0398L14162.1506,-3915.1066L14162.2894,-3915.1665L14162.4695,-3915.2332L14162.6297,-3915.3267L14162.8296,-3915.4331L14162.8799,-3915.4865L14162.9501,-3915.4865L14163.0402,-3915.4533L14163.7405,-3914.9864L14163.8306,-3914.9467L14163.9893,-3914.9265L14164.1998,-3914.8399L14164.36,-3914.7999L14164.6301,-3914.8197L14164.8605,-3914.6797L14165.1993,-3914.64L14165.4007,-3914.5531L14165.4495,-3914.2799L14165.4907,-3914.1933L14165.6296,-3914.08L14165.7196,-3913.9L14165.8218,-3913.866L14165.8798,-3913.8466L14165.9698,-3913.813L14166.1499,-3913.6532L14166.4703,-3913.5597L14166.6306,-3913.4666L14166.6794,-3913.2198L14166.7007,-3913.1268L14166.7206,-3913.0932L14166.9693,-3912.9265L14167.1295,-3912.7464L14167.1097,-3912.4397"/>
<path content="AP030,1,28,1,0,16,1,8,JPN" xlink:title="AP030" d="M14176.1826,-3912.4752L14176.2695,-3912.4268L14176.5198,-3912.3531"/>
<path content="AP030,1,28,1,0,14,1,8,JPN" xlink:title="AP030" d="M14173.79,-3912.2997L14173.9899,-3912.4065L14174.2004,-3912.4268L14174.3805,-3912.4397L14174.6994,-3912.4268L14174.8596,-3912.4798L14174.9893,-3912.5134L14175.2701,-3912.5134L14175.3998,-3912.5332L14175.56,-3912.5332L14175.9506,-3912.5332L14176.0605,-3912.5L14176.1826,-3912.4752"/>
<path content="AP030,1,28,1,0,14,1,8,JPN" xlink:title="AP030" d="M14173.6298,-3912.4798L14173.79,-3912.2997"/>
<path content="AP030,1,28,1,0,14,1,8,JPN" xlink:title="AP030" d="M14176.1826,-3912.4752L14176.3596,-3912.4397L14176.3794,-3912.4599L14176.3596,-3912.5134L14176.2207,-3912.5668L14176.1993,-3912.6064L14176.2405,-3912.64L14176.2695,-3912.64L14176.3306,-3912.64L14176.4694,-3912.64L14176.5793,-3912.6598L14176.6495,-3912.693L14176.6998,-3912.6801L14176.7197,-3912.5668L14176.8097,-3912.5134L14176.8997,-3912.4599L14176.9699,-3912.4397L14177.0798,-3912.4268L14177.6306,-3912.3333L14177.7206,-3912.3333L14177.9007,-3912.3333L14178.0197,-3912.3531L14178.1097,-3912.3333L14178.1998,-3912.2997L14178.2898,-3912.3199L14178.3798,-3912.4065L14178.4698,-3912.4065L14178.6102,-3912.3531L14178.9505,-3912.3199L14179.0604,-3912.3333L14179.1794,-3912.4065L14179.2892,-3912.4065L14179.4006,-3912.4268L14179.5807,-3912.4397L14179.7195,-3912.3867L14179.8599,-3912.2997"/>
<path content="AP030,1,28,1,0,16,1,8,JPN" xlink:title="AP030" d="M14178.8803,-3912.0998L14179.2007,-3912.133L14179.8599,-3912.2997"/>
<path content="AP030,1,28,1,0,16,1,4,JPN" xlink:title="AP030" d="M14178.8803,-3912.0998L14178.6301,-3912.1201L14177.2903,-3912.1933L14176.6098,-3912.3199L14176.5198,-3912.3531"/>
<path content="AP030,1,28,1,0,14,1,8,JPN" xlink:title="AP030" d="M14180.6503,-3911.5932L14180.6793,-3911.6531L14180.7205,-3911.8465L14180.7007,-3911.8866L14180.6793,-3911.9534L14180.7007,-3911.993L14180.7693,-3912.0464L14180.8594,-3912.1201L14180.9006,-3912.2799L14180.9296,-3912.3867L14180.9906,-3912.4397L14181.0806,-3912.5L14181.1493,-3912.6064L14181.2195,-3912.6598L14181.3095,-3912.6598L14181.3507,-3912.5843L14181.3599,-3912.5668L14181.4697,-3912.5332L14181.5201,-3912.5668L14181.5796,-3912.6801L14181.6803,-3912.7132L14181.7398,-3912.6801L14181.81,-3912.6198L14181.9305,-3912.6064L14181.9901,-3912.6598L14182.0404,-3912.6598L14182.1106,-3912.64L14182.2693,-3912.6064L14182.3303,-3912.6064L14182.3807,-3912.693L14182.3303,-3912.7464L14182.2205,-3912.7464L14182.1793,-3912.7666L14182.1503,-3912.7998L14182.1793,-3912.8731L14182.2205,-3912.9265L14182.4295,-3913.3999L14182.4005,-3913.4666L14182.3593,-3913.5399L14182.2693,-3913.5597L14182.1365,-3913.6086L14181.9901,-3913.7199L14181.9,-3913.813L14181.9504,-3913.8466L14181.9702,-3913.8866L14182.0404,-3913.8866L14182.1106,-3913.8466L14182.2006,-3913.813L14182.2906,-3913.813L14182.3105,-3913.813L14182.4295,-3913.8466L14182.5806,-3913.9L14182.7194,-3913.94L14182.6996,-3914.0133L14182.6492,-3914.0266L14182.5394,-3914.0266L14182.4661,-3914.0476L14182.4005,-3914.0667L14182.3105,-3914.1197L14182.2906,-3914.1933L14182.2906,-3914.2597L14182.3807,-3914.373L14182.4707,-3914.4264L14182.4905,-3914.46L14182.5607,-3914.5332L14182.6294,-3914.6198L14182.7194,-3914.6599L14182.8293,-3914.7133L14182.8995,-3914.8399L14182.9697,-3914.9265L14183.0795,-3914.9998L14183.2901,-3915.2332L14183.3801,-3915.3065L14183.6105,-3915.3797L14183.6502,-3915.4133L14183.7204,-3915.4865L14183.8104,-3915.5399L14183.9005,-3915.5598L14184.0195,-3915.633L14184.1293,-3915.773L14184.2194,-3915.8333L14184.3597,-3915.8665L14184.7504,-3916.0019L14184.8801,-3916.0465L14185.2707,-3916.1732L14185.3607,-3916.2266L14185.4004,-3916.28L14185.4294,-3916.3864"/>
<path content="AP030,1,28,1,0,14,1,8,JPN" xlink:title="AP030" d="M14179.8599,-3912.2997L14179.9698,-3912.1532L14180.04,-3912.0667L14180.1102,-3911.8999L14180.2399,-3911.7599L14180.3604,-3911.7599L14180.4001,-3911.7397L14180.4504,-3911.5601L14180.5801,-3911.5398L14180.6503,-3911.5932"/>
<path content="AP030,1,28,1,0,16,1,8,JPN" xlink:title="AP030" d="M14170.2637,-3910.2904L14170.709,-3910.8853L14171.0205,-3911.2534L14171.1807,-3911.4132L14171.3593,-3911.6131L14171.8094,-3911.993L14172.11,-3912.1532L14172.3801,-3912.2467L14172.7402,-3912.3199L14173.1506,-3912.3867L14173.6298,-3912.4798"/>
<path content="AP030,1,28,1,0,14,1,8,JPN" xlink:title="AP030" d="M14170.8801,-3910.08L14170.9503,-3910.26L14170.99,-3910.3333L14171.0403,-3910.3867L14171.1105,-3910.5L14171.1105,-3910.5667L14171.2204,-3910.68L14171.3593,-3910.7864L14171.4005,-3910.8932L14171.5393,-3911.1465L14171.6797,-3911.2865L14171.8307,-3911.4864L14171.8994,-3911.6131L14172.0398,-3911.8134L14172.1298,-3911.8999L14172.2702,-3911.94L14172.5601,-3911.993L14172.9004,-3912.0998L14173.1094,-3912.133L14173.5596,-3912.133L14173.6298,-3912.1933L14173.79,-3912.2997"/>
<path content="AP030,1,28,1,0,14,1,8,JPN" xlink:title="AP030" d="M14170.2637,-3910.2904L14170.8801,-3910.08"/>
<path content="AP030,1,28,1,0,16,1,8,JPN" xlink:title="AP030" d="M14170.2637,-3910.2904L14169.7478,-3909.531"/>
<path content="AP030,1,28,1,0,14,1,8,JPN" xlink:title="AP030" d="M14167.1097,-3912.4397L14167.0883,-3912.2822L14167.0807,-3912.2265L14167.1494,-3912.133L14167.2394,-3912.0998L14167.5201,-3912.0667L14167.5797,-3911.993L14167.7704,-3911.7397L14167.8299,-3911.7065L14167.8299,-3911.3266L14167.9901,-3910.7998L14168.1503,-3910.6598L14168.2907,-3910.6197L14168.6096,-3910.5865L14168.7698,-3910.5331L14168.8095,-3910.5L14169.0201,-3910.3733L14169.1299,-3910.0998L14169.2398,-3909.9934L14169.4702,-3909.8133L14169.5602,-3909.7198L14169.7478,-3909.531"/>
<path content="AP030,1,28,1,0,14,1,8,JPN" xlink:title="AP030" d="M14170.8801,-3910.08L14170.7703,-3909.9533L14170.6802,-3909.8331L14170.5795,-3909.5264L14170.5383,-3909.3967L14170.4697,-3909.1801"/>
<path content="AP030,1,28,1,0,14,1,8,JPN" xlink:title="AP030" d="M14169.7478,-3909.531L14169.9905,-3909.2865L14170.1294,-3909.2197L14170.4697,-3909.1801"/>
<path content="AP030,1,28,1,0,16,1,8,JPN" xlink:title="AP030" d="M14169.7478,-3909.531L14169.51,-3909.181L14169.3,-3908.834L14169.16,-3908.524L14169.14,-3907.985L14169.19,-3907.421"/>
<path content="AP030,1,28,1,0,16,1,4,JPN" xlink:title="AP030" d="M14169.19,-3907.421L14169.42,-3907.003L14170.06,-3905.706"/>
<path content="AP030,1,28,1,0,14,1,8,JPN" xlink:title="AP030" d="M14157.7393,-3913.6665L14157.7393,-3913.5933L14157.7393,-3913.4132L14157.8094,-3913.1798L14158.0597,-3912.9997L14158.1497,-3912.8933L14158.3099,-3912.5L14158.4503,-3912.0132L14158.4305,-3911.7931L14158.2703,-3911.5799L14158.1299,-3911.4666L14158.1299,-3911.3998L14158.1497,-3911.2534L14158.2397,-3911.0931L14158.49,-3910.8932L14158.6105,-3910.68L14158.7906,-3910.4065L14158.9706,-3910.3199L14159.1293,-3910.1334L14159.1507,-3909.8999L14159.1095,-3909.7733L14159.0607,-3909.6867L14159.0805,-3909.3067L14159.0607,-3909.1267L14158.9706,-3909.053L14158.7692,-3908.9466L14158.58,-3908.7868L14158.4503,-3908.7334L14158.2703,-3908.68L14158.0399,-3908.4999L14157.8995,-3908.3199L14157.8796,-3907.9533L14157.9697,-3907.6134L14158.1299,-3907.2533L14158.2199,-3907.0534L14158.2703,-3907.0198L14158.4305,-3906.9668L14158.7006,-3906.86L14158.8806,-3906.5666L14159.0195,-3906.2065L14159.0393,-3906.1733L14159.1095,-3906.0265L14159.1293,-3905.8331L14159.1995,-3905.7068L14159.4498,-3905.3265L14159.6298,-3905.18L14159.61,-3904.9866L14159.7702,-3904.6932L14160.0601,-3904.3732L14160.1501,-3904.2065L14160.1105,-3903.9932L14160.1303,-3903.8467L14160.3104,-3903.6133"/>
<path content="AP030,1,28,1,0,14,1,8,JPN" xlink:title="AP030" d="M14159.61,-3903.1467L14159.7397,-3903.3066L14159.8297,-3903.3466L14159.9304,-3903.36L14160.1807,-3903.5267L14160.3104,-3903.6133"/>
<path content="AP030,1,28,1,0,14,1,8,JPN" xlink:title="AP030" d="M14160.3104,-3903.6133L14160.4706,-3903.5267L14160.6506,-3903.5267L14160.8994,-3903.5267L14161.2198,-3903.4866L14161.4304,-3903.4L14161.5402,-3903.3264L14161.6806,-3903.3066L14161.8103,-3903.22L14161.9507,-3903.1998L14161.9904,-3903.1799L14162.1796,-3903.1666L14162.2696,-3903.1067L14162.3795,-3902.9266"/>
<path content="AP030,1,28,1,0,14,1,8,JPN" xlink:title="AP030" d="M14170.4498,-3902.9266L14170.7703,-3902.8732L14170.8603,-3902.9266L14170.9,-3903.0197L14170.9702,-3903.0731L14171.0403,-3903.1666L14171.1807,-3903.2333L14171.2692,-3903.2532L14171.3104,-3903.2532L14171.4905,-3903.3264L14171.5607,-3903.4L14171.6293,-3903.6667L14171.6995,-3903.7598L14171.7194,-3903.7933L14171.9498,-3904.2797L14171.9498,-3904.4266L14171.8597,-3904.9267L14171.7896,-3905.3467L14171.8597,-3905.4531L14171.8796,-3905.5599L14171.8597,-3905.6332L14171.7194,-3905.8865L14171.5805,-3906.0265L14171.6095,-3906.3332L14171.6095,-3906.3534L14171.5805,-3906.62L14171.5805,-3906.7131L14171.5195,-3906.8932L14171.4294,-3906.9668L14171.3303,-3907.0732L14171.1807,-3907.3601L14171.1502,-3907.4532L14171.0205,-3907.7732L14170.8603,-3908.0467L14170.7199,-3908.1734L14170.6299,-3908.353L14170.61,-3908.44L14170.5597,-3908.5667L14170.4895,-3908.7868L14170.4498,-3908.913L14170.4498,-3908.9466L14170.4498,-3909.1267L14170.4697,-3909.1801"/>
<path content="AP030,1,28,1,0,16,1,8,JPN" xlink:title="AP030" d="M14170.06,-3905.706L14170.59,-3904.699L14170.69,-3904.157L14170.68,-3903.918L14170.49,-3903.465L14170.2468,-3903.1692L14169.9605,-3902.956L14169.7631,-3902.87"/>
<path content="AP030,1,28,1,0,14,1,8,JPN" xlink:title="AP030" d="M14169.7631,-3902.87L14169.7906,-3902.8599L14170.1797,-3902.8599L14170.3796,-3902.9133L14170.4498,-3902.9266"/>
<path content="AP030,1,28,1,0,16,1,8,JPN" xlink:title="AP030" d="M14169.7631,-3902.87L14169.6806,-3902.8341L14169.5533,-3902.8082"/>
<path content="AP030,1,28,1,0,14,1,8,JPN" xlink:title="AP030" d="M14169.5533,-3902.8082L14169.5602,-3902.8599L14169.6304,-3902.9133L14169.7006,-3902.8931L14169.7631,-3902.87"/>
<path content="AP030,1,28,1,0,16,1,8,JPN" xlink:title="AP030" d="M14169.5533,-3902.8082L14169.14,-3902.724L14168.7175,-3902.6666L14168.3832,-3902.6626"/>
<path content="AP030,1,28,1,0,16,1,8,JPN" xlink:title="AP030" d="M14168.3832,-3902.6626L14168.2945,-3902.6615L14167.7399,-3902.66"/>
<path content="AP030,1,28,1,0,14,1,8,JPN" xlink:title="AP030" d="M14167.7399,-3902.66L14167.8299,-3902.713L14167.9001,-3902.7332L14167.9703,-3902.6798L14168.0206,-3902.6798L14168.1107,-3902.7466L14168.1503,-3902.7866L14168.2205,-3902.8198L14168.2693,-3902.8L14168.3832,-3902.6626"/>
<path content="AP030,1,28,1,0,15,1,8,JPN" xlink:title="AP030" d="M14170.8801,-3910.08L14171.6217,-3908.9729L14172.0749,-3908.4278L14172.3267,-3908.1173L14172.908,-3907.3982L14173.8907,-3906.4896L14174.2691,-3905.46L14174.1928,-3904.7333L14173.9655,-3903.7647L14173.9655,-3903.3409L14174.2676,-3902.7958L14175.0244,-3902.6138L14175.5539,-3902.7348L14176.5381,-3903.3398L14177.2079,-3903.5904L14177.6733,-3903.521L14178.0518,-3903.339L14178.5049,-3903.5206L14178.7323,-3903.944L14179.4128,-3904.3072L14180.1697,-3904.549L14181.4133,-3905.7415L14181.987,-3906.546L14181.987,-3907.0911L14181.6086,-3907.8178L14180.9982,-3908.5674L14180.777,-3909.3925L14180.7159,-3909.8064L14180.6259,-3910.4218L14180.6503,-3911.5932"/>
<path content="AP030,1,28,1,0,15,1,8,JPN" xlink:title="AP030" d="M14162.3795,-3902.9266L14162.9944,-3902.7405L14163.4476,-3902.4376"/>
<path content="AP030,1,28,1,0,14,1,8,JPN" xlink:title="AP030" d="M14168.3832,-3902.6626L14168.4296,-3902.6066L14168.6295,-3902.5532L14168.7897,-3902.5665L14168.8797,-3902.5867L14168.9697,-3902.6066L14169.0201,-3902.6398L14169.0796,-3902.6199L14169.0598,-3902.5333L14169.0598,-3902.4998L14169.1101,-3902.4799L14169.1803,-3902.4799L14169.3802,-3902.4597L14169.6106,-3902.3865L14169.6503,-3902.4265L14169.6503,-3902.4799L14169.6503,-3902.5131L14169.5404,-3902.5665L14169.5206,-3902.66L14169.5404,-3902.713L14169.5533,-3902.8082"/>
<path content="AP030,1,28,1,0,14,1,8,JPN" xlink:title="AP030" d="M14154.3594,-3902.2465L14154.5593,-3902.2266L14154.7394,-3902.2064L14155.04,-3902.1931L14155.3299,-3902.1732L14155.4306,-3902.1732L14155.4901,-3902.2465L14155.6107,-3902.4399L14155.6793,-3902.4799L14155.8594,-3902.4597L14155.9692,-3902.4597L14156.2195,-3902.4998L14156.3599,-3902.4998L14156.4301,-3902.4399L14156.6299,-3902.4399L14156.7902,-3902.4597L14156.9,-3902.4998L14157.0602,-3902.4799L14157.1793,-3902.3865L14157.2693,-3902.3331L14157.3593,-3902.2999L14157.4707,-3902.2999L14157.5607,-3902.3533L14157.7896,-3902.5131L14157.9498,-3902.5867L14158.1802,-3902.6066L14158.4,-3902.6199L14158.5205,-3902.6932L14158.8806,-3902.84L14159.0805,-3902.9133L14159.3597,-3903.0197L14159.4894,-3903.0533L14159.61,-3903.1467"/>
<path content="AP030,1,28,1,0,14,1,8,JPN" xlink:title="AP030" d="M14166.5604,-3901.5064L14166.7694,-3901.54L14166.9495,-3901.6533L14167.0197,-3901.7399L14167.1295,-3901.8997L14167.1997,-3901.9398L14167.2897,-3901.9932L14167.3798,-3902.0466L14167.45,-3902.1L14167.45,-3902.1931L14167.4301,-3902.2465L14167.3996,-3902.3331L14167.45,-3902.3731L14167.5797,-3902.3731L14167.6804,-3902.4067L14167.6804,-3902.4399L14167.6804,-3902.5333L14167.7399,-3902.66"/>
<path content="AP030,1,28,1,0,15,1,8,JPN" xlink:title="AP030" d="M14137.1964,-3915.5281L14137.1964,-3914.7411L14137.1964,-3914.4382L14137.2711,-3913.7722L14138.179,-3912.682L14138.4811,-3912.0762L14138.4811,-3911.2286L14138.4811,-3910.2596L14138.7833,-3909.0488L14138.707,-3907.8983L14138.5559,-3907.4139L14138.1775,-3906.7482L14137.7991,-3906.0219L14137.1933,-3905.1743L14136.9659,-3904.4479L14136.9659,-3903.6606L14137.4954,-3902.3285L14137.7899,-3901.3268"/>
<path content="AP030,1,28,1,0,14,1,8,JPN" xlink:title="AP030" d="M14137.7899,-3901.3268L14138.8794,-3901.2531"/>
<path content="AP030,1,28,1,0,14,1,8,JPN" xlink:title="AP030" d="M14138.8794,-3901.2531L14139.2899,-3901.2531L14139.3997,-3901.2531L14139.6103,-3901.3798L14139.6103,-3901.4L14139.7705,-3901.4866L14140.0192,-3901.5598L14140.1993,-3901.6132L14140.5396,-3901.72L14140.6494,-3901.6865L14141.1301,-3901.4866L14141.2003,-3901.453L14141.3605,-3901.4332L14141.4902,-3901.4332L14141.6306,-3901.4668L14141.9495,-3901.5266L14142.1097,-3901.5266L14142.4698,-3901.4668L14142.5201,-3901.4866L14142.5797,-3901.6132L14142.63,-3901.6331L14142.7002,-3901.6132L14142.72,-3901.593L14142.7399,-3901.453L14142.8802,-3901.4L14142.9703,-3901.4L14143.1107,-3901.4866L14143.1793,-3901.4668L14143.2404,-3901.453L14143.3105,-3901.4332L14143.4006,-3901.4866L14143.5394,-3901.5598L14143.8293,-3901.5064L14144.0399,-3901.4668L14144.0598,-3901.3599L14144.2001,-3901.3466L14144.2902,-3901.3599L14144.3802,-3901.4332L14144.5602,-3901.453L14144.7403,-3901.4668L14144.9707,-3901.4866L14145.1294,-3901.5598L14145.2698,-3901.58L14145.4697,-3901.5064L14145.6802,-3901.4668L14146.1105,-3901.4133L14146.2204,-3901.4L14146.4706,-3901.3798L14146.6507,-3901.3599L14146.8307,-3901.3466L14146.9299,-3901.2733L14147.02,-3901.1997L14147.0795,-3901.1799L14147.1497,-3901.2333L14147.1802,-3901.3466L14147.1298,-3901.4866L14147.1298,-3901.593L14147.1802,-3901.6533L14147.2198,-3901.6533L14147.2702,-3901.6533L14147.3999,-3901.58L14147.4701,-3901.4866L14147.4899,-3901.4133L14147.5403,-3901.2333L14147.5433,-3901.2157"/>
<path content="AP030,1,28,1,0,14,1,8,JPN" xlink:title="AP030" d="M14165.2695,-3901.0532L14165.4007,-3901.1265L14165.4694,-3901.1799L14165.6097,-3901.2531L14165.7898,-3901.3268L14165.9302,-3901.4L14166.1499,-3901.5064L14166.2399,-3901.5266L14166.5604,-3901.5064"/>
<path content="AP030,1,28,1,0,14,1,8,JPN" xlink:title="AP030" d="M14147.5433,-3901.2157L14147.5601,-3901.1467L14147.5204,-3901.0731L14147.4701,-3901.0399L14147.4304,-3901.0399L14147.3602,-3901.0399L14147.3099,-3901.0532L14147.29,-3901.0933L14147.29,-3901.1265L14147.3297,-3901.1997L14147.4503,-3901.2333L14147.5433,-3901.2157"/>
<path content="AP030,1,28,1,0,14,1,8,JPN" xlink:title="AP030" d="M14161.7401,-3901.0201L14161.9507,-3901.0532L14162.0605,-3901.1265L14162.2192,-3901.4L14162.2528,-3901.424L14162.3093,-3901.4668L14162.4496,-3901.4668L14162.6495,-3901.4332L14162.7396,-3901.6331L14162.5595,-3901.6865L14162.3795,-3901.7933L14162.2192,-3901.9531L14162.1796,-3902.0664L14162.2406,-3902.1732L14162.2696,-3902.1931L14162.5198,-3902.4265L14162.5793,-3902.5532L14162.5595,-3902.6932L14162.5198,-3902.7866L14162.3795,-3902.9266"/>
<path content="AP030,1,28,1,0,15,1,8,JPN" xlink:title="AP030" d="M14159.61,-3903.1467L14159.7809,-3903.0895L14160.3333,-3902.9053L14161.2976,-3902.309L14161.7554,-3901.7506L14161.7401,-3901.0201"/>
<path content="AP030,1,28,1,0,14,1,8,JPN" xlink:title="AP030" d="M14147.5433,-3901.2157L14147.6303,-3901.1997L14147.7402,-3901.1665L14147.8806,-3901.0399L14147.9706,-3900.9464L14148.0804,-3900.9464L14148.2697,-3900.9464L14148.3307,-3900.9464L14148.4299,-3901.0731L14148.5199,-3901.1997L14148.4299,-3901.3065L14148.3994,-3901.3599L14148.4497,-3901.4133L14148.5794,-3901.4332L14148.6801,-3901.3599L14148.7396,-3901.2333L14148.7,-3901.0731L14148.5397,-3900.9132L14148.5397,-3900.84L14148.5794,-3900.8198L14148.6801,-3900.84L14148.8297,-3900.8732L14148.9304,-3900.8732L14149.0402,-3900.8598L14149.1302,-3900.8732L14149.2905,-3900.9998L14149.3607,-3901.1066L14149.4904,-3901.1665L14149.5407,-3901.2867L14149.6307,-3901.3268L14149.7192,-3901.3065L14149.7406,-3901.3798L14149.7696,-3901.5064L14149.7192,-3901.5598L14149.7192,-3901.72L14149.8596,-3902.153L14150.0198,-3902.3731L14150.1099,-3902.4799L14150.1999,-3902.5665L14150.3296,-3902.6798L14150.3998,-3902.6932L14150.5203,-3902.6932L14150.56,-3902.6798L14150.7202,-3902.6932L14150.9293,-3902.7664L14151.0193,-3902.7866L14151.1993,-3902.7866L14151.3306,-3902.7466L14151.4496,-3902.7866L14151.5198,-3902.8599L14151.6296,-3902.8931L14151.8295,-3903.0933L14151.9699,-3903.1799L14152.1103,-3903.1998L14152.33,-3903.1799L14152.4506,-3903.1666L14152.5406,-3903.1467L14152.6993,-3903.0933L14152.8793,-3903.0933L14152.9694,-3903.0731L14153.0594,-3903.0197L14153.1296,-3902.8599L14153.1998,-3902.713L14153.27,-3902.6066L14153.3798,-3902.5131L14153.4698,-3902.4597L14153.5797,-3902.4067L14153.7399,-3902.4067L14153.8605,-3902.4399L14154.0207,-3902.3533L14154.1504,-3902.28L14154.3594,-3902.2465"/>
<path content="AP030,1,28,1,0,14,1,8,JPN" xlink:title="AP030" d="M14161.9507,-3900.3864L14161.9904,-3900.4265L14162.2192,-3900.5531L14162.4695,-3900.6931L14162.7396,-3900.84L14163.1302,-3900.9464L14163.2401,-3900.9865L14163.3606,-3900.9998L14164.1098,-3900.9464L14164.3097,-3900.9132L14164.5599,-3900.8598L14164.8102,-3900.7999L14164.9918,-3900.8919L14165.0604,-3900.9266L14165.1306,-3900.9666L14165.2695,-3901.0532"/>
<path content="AP030,1,28,1,0,14,1,8,JPN" xlink:title="AP030" d="M14161.7401,-3901.0201L14161.7004,-3900.9464L14161.7004,-3900.7668L14161.7203,-3900.6199L14161.9507,-3900.3864"/>
<path content="AP030,1,28,1,0,15,1,8,JPN" xlink:title="AP030" d="M14170.4086,-3899.77L14170.787,-3900.0729L14170.9381,-3900.436L14171.0892,-3900.8598L14171.2402,-3901.1017L14171.228,-3901.5408L14171.1823,-3901.886L14171.1685,-3901.9878L14171.1655,-3902.01L14170.9381,-3902.4342L14170.8649,-3902.523L14170.636,-3902.7973L14170.4498,-3902.9266"/>
<path content="AP030,1,28,1,0,15,1,8,JPN" xlink:title="AP030" d="M14166.5604,-3901.5064L14166.8518,-3901.1642L14167.0044,-3900.922L14167.1555,-3900.8011L14167.836,-3900.8007L14168.5165,-3900.5581L14169.1223,-3900.1945L14169.6518,-3899.8917L14169.9539,-3899.7097L14170.4086,-3899.77"/>
<path content="AP030,1,28,1,0,14,1,8,JPN" xlink:title="AP030" d="M14132.8125,-3899.6834L14132.8293,-3899.6864L14133.0399,-3899.72L14133.4305,-3899.8466L14133.8806,-3900.0668L14134.0805,-3900.0797L14134.4894,-3900.0797L14134.8999,-3900.0134L14135.1501,-3899.9397L14135.2905,-3899.9001L14135.7193,-3899.9397L14135.8093,-3900.0465L14135.9299,-3900.2598L14135.8994,-3900.4799L14135.8093,-3900.6798L14135.8093,-3900.7465L14135.9695,-3900.7999L14136.2,-3900.9132L14136.4304,-3900.9865L14136.4502,-3901.0731L14136.47,-3901.1467L14136.5402,-3901.1997L14136.7203,-3901.2333L14136.8103,-3901.3065L14136.9705,-3901.5064L14137.1094,-3901.5266L14137.2894,-3901.5064L14137.5397,-3901.3798L14137.7899,-3901.3268"/>
<path content="AP030,1,28,1,0,14,1,8,JPN" xlink:title="AP030" d="M14132.8125,-3902.1865L14132.8293,-3902.1732L14132.9498,-3902.1198L14133.11,-3902.1L14133.11,-3902.0466L14133.0597,-3901.72L14132.8995,-3901.4133L14132.8995,-3901.3466L14132.9697,-3901.1799L14132.93,-3901.1265L14132.8125,-3901.0402"/>
<path content="AP030,1,28,1,0,14,1,8,JPN" xlink:title="AP030" d="M14132.8125,-3899.5723L14132.9498,-3899.4331L14133.2001,-3899.2733L14133.2397,-3899.2001"/>
<path content="AP030,1,28,1,0,15,1,8,JPN" xlink:title="AP030" d="M14132.8125,-3899.1684L14133.2397,-3899.2001"/>
<path content="AP030,1,28,1,0,15,1,8,JPN" xlink:title="AP030" d="M14165.2695,-3901.0532L14166.0049,-3900.7999L14166.1484,-3900.7504L14166.2018,-3900.7423L14166.3513,-3900.7198L14167.7948,-3900.2991L14169.3497,-3898.9986L14168.3731,-3898.4303L14168.3334,-3897.7261L14168.4967,-3897.2813L14168.7271,-3896.9929L14169.0933,-3896.756L14169.455,-3896.1014L14169.783,-3895.4472L14170.047,-3895.1061L14170.5795,-3894.9986L14171.0846,-3895.3087L14171.4249,-3895.9591L14170.2927,-3896.3573L14169.5969,-3896.7838L14169.7357,-3897.5349L14169.8761,-3898.2128L14170.2103,-3898.2105L14170.3156,-3898.6534L14170.3339,-3898.8827L14170.4086,-3899.77"/>
<path content="AP030,1,28,1,0,15,1,8,JPN" xlink:title="AP030" d="M14138.8794,-3901.2531L14139.1586,-3900.5112L14139.1586,-3899.8451L14139.0839,-3899.3607L14139.0823,-3898.6343L14139.8392,-3897.4228L14140.4449,-3896.7564L14140.8218,-3896.0297L14140.9744,-3895.2427L14141.1255,-3894.5766L14141.0797,-3893.8999"/>
<path content="AP030,1,28,1,0,14,1,8,JPN" xlink:title="AP030" d="M14141.0797,-3893.8999L14141.2903,-3893.8667L14141.4307,-3893.7931L14141.6306,-3893.7065L14141.9296,-3893.5799L14142.0807,-3893.5398L14142.2394,-3893.5398L14142.4301,-3893.5799L14142.6804,-3893.6333"/>
<path content="AP030,1,28,1,0,14,1,8,JPN" xlink:title="AP030" d="M14161.9507,-3900.3864L14161.9705,-3900.3532L14162.0804,-3900.2266L14162.2192,-3900.0267L14162.2192,-3899.8665L14162.1796,-3899.7601L14162.0407,-3899.6532L14161.8805,-3899.5598L14161.8301,-3899.4865L14161.7706,-3899.3999L14161.6501,-3899.3267L14161.4502,-3899.2001L14161.4304,-3899.1264L14161.4304,-3899.0532L14161.5204,-3898.9468L14161.5601,-3898.84L14161.5799,-3898.7331L14161.6302,-3898.6797L14161.8103,-3898.6198L14161.9507,-3898.5664L14162.0193,-3898.4398L14162.0605,-3898.2597L14162.1094,-3898.0801L14162.2192,-3897.9401L14162.4893,-3897.7066L14162.5793,-3897.6334L14162.7701,-3897.5597L14162.97,-3897.3999L14163.0798,-3897.3064L14163.1104,-3897.2L14163.15,-3896.9467L14163.2004,-3896.8399L14163.2904,-3896.7667L14163.3606,-3896.7133L14163.3606,-3896.6599L14163.2401,-3896.5866L14163.1805,-3896.5332L14163.1302,-3896.1933L14163.1104,-3895.9732L14163.06,-3895.8866L14163.0798,-3895.7199L14163.0798,-3895.5799L14163.0203,-3895.433L14162.9898,-3895.2732L14162.9501,-3895.1466L14162.97,-3895.0531L14163.1805,-3894.8933L14163.2904,-3894.8601L14163.4003,-3894.8399L14163.5605,-3894.6598L14163.7695,-3894.26L14163.8596,-3894.1334L14163.9694,-3894.0666L14164.0396,-3893.9934L14164.0198,-3893.94L14163.9496,-3893.8465L14163.9496,-3893.7733L14163.9893,-3893.6531L14163.9694,-3893.56L14163.8107,-3893.4334L14163.7207,-3893.3266L14163.6093,-3893.3067L14163.4003,-3893.3266L14163.3301,-3893.3266"/>
<path content="AP030,1,28,1,0,14,1,8,JPN" xlink:title="AP030" d="M14158.3298,-3892.0998L14158.5403,-3892.12"/>
<path content="AP030,1,28,1,0,15,1,8,JPN" xlink:title="AP030" d="M14154.3594,-3902.2465L14154.3488,-3900.7221L14154.5563,-3900.3265L14154.6783,-3900.0942L14155.1392,-3899.1268L14155.4153,-3898.6481L14155.6992,-3898.1583L14155.7007,-3898.1583L14156.2317,-3897.8951L14156.1264,-3897.2431L14156.1249,-3897.2317L14155.954,-3896.487L14157.2403,-3894.4191L14157.7835,-3894.0269L14158.0048,-3893.8675L14158.2687,-3893.3964L14158.3298,-3892.0998"/>
<path content="AP030,1,28,1,0,14,1,8,JPN" xlink:title="AP030" d="M14158.5403,-3892.12L14158.7204,-3892.1333L14158.9005,-3892.0799L14159.0195,-3892.0666L14159.1095,-3892.0998L14159.1507,-3892.1532L14159.3597,-3892.3733L14159.5795,-3892.5331L14159.7702,-3892.6201L14159.9304,-3892.6598L14160.1303,-3892.6201L14160.3806,-3892.6067L14160.5392,-3892.6399L14160.6995,-3892.7132L14161.47,-3893.1065L14161.5601,-3893.1465L14161.6501,-3893.1801L14161.6501,-3893.2533L14161.6501,-3893.3468L14161.6806,-3893.3598L14161.7401,-3893.3598L14162.1094,-3892.9466L14162.3596,-3892.7998L14162.6495,-3892.86L14162.8601,-3892.9665L14162.9898,-3893.0401L14163.1302,-3893.1065L14163.2706,-3893.2865L14163.3301,-3893.3266"/>
<path content="AP030,1,28,1,0,14,1,8,JPN" xlink:title="AP030" d="M14157.1106,-3891.9933L14157.3303,-3892.0132L14157.7393,-3892.0265L14157.8598,-3892.0467L14158.1131,-3892.0753L14158.3298,-3892.0998"/>
<path content="AP030,1,28,1,0,14,1,4,JPN" xlink:title="AP030" d="M14157.1106,-3891.9933L14156.5796,-3891.9731L14156.0196,-3891.8999L14155.4306,-3891.7599"/>
<path content="AP030,1,28,1,0,14,1,8,JPN" xlink:title="AP030" d="M14158.1802,-3891.6134L14158.2397,-3891.8667L14158.3801,-3891.9731L14158.5403,-3892.12"/>
<path content="AP030,1,28,1,0,14,1,8,JPN" xlink:title="AP030" d="M14133.3603,-3891.4867L14133.4702,-3891.5398L14133.6807,-3891.6332L14133.8303,-3891.7198L14133.9706,-3891.8667L14134.1507,-3892.0132L14134.3094,-3892.0666L14134.4696,-3892.12L14134.5795,-3892.1932L14134.6802,-3892.26L14134.79,-3892.3866L14134.9304,-3892.5133L14135.0403,-3892.5331L14135.2005,-3892.5331L14135.6094,-3892.5133L14135.6995,-3892.5533L14135.8597,-3892.5667L14136.0199,-3892.6201L14136.0596,-3892.6933L14136.0794,-3892.8398L14136.1801,-3892.8932L14136.3098,-3892.9268L14136.5204,-3892.9466L14137.1994,-3893L14137.4695,-3892.9131L14137.5595,-3892.9131L14137.6297,-3893.0199L14137.6373,-3893.0882L14137.6495,-3893.1999L14137.7197,-3893.2533L14137.8601,-3893.2732L14138.06,-3893.2732L14138.2004,-3893.2865L14138.2904,-3893.3067L14138.4506,-3893.3598L14138.6993,-3893.5066L14138.7894,-3893.6131L14138.8107,-3893.6333L14138.9694,-3893.7065L14139.0594,-3893.7599L14139.2899,-3893.8465L14139.4897,-3893.8667L14139.65,-3893.8465L14140.1993,-3893.7931L14140.4297,-3893.8332L14140.77,-3893.8999L14141.0797,-3893.8999"/>
<path content="AP030,1,28,1,0,14,1,8,JPN" xlink:title="AP030" d="M14133.2397,-3899.2001L14133.2901,-3898.7133L14133.2901,-3898.46L14133.1802,-3898.2998L14133.1497,-3898.2067L14133.1802,-3897.9L14133.1497,-3897.7066L14133.0597,-3897.4865L14133.02,-3897.3465L14133.1299,-3897.0932L14133.5205,-3896.5134L14133.6807,-3896.1533L14133.6807,-3895.8866L14133.5403,-3895.4132L14133.6105,-3895.2732L14133.7692,-3895.0932L14133.7906,-3894.9265L14133.8806,-3894.733L14133.9706,-3894.5L14133.9905,-3894.3531L14134.0195,-3894.0666L14134.1095,-3893.9533L14134.2194,-3893.8667L14134.2194,-3893.7599L14134.1812,-3893.6596L14134.1293,-3893.5265L14134.1095,-3893.3998L14134.0195,-3893.1999L14134.0195,-3893.0199L14133.9005,-3892.7998L14133.9493,-3892.5667L14134.0805,-3892.4065L14134.0805,-3892.2466L14134.0805,-3892.2066L14133.4305,-3891.8667L14133.0399,-3891.6664L14133.11,-3891.5932L14133.2199,-3891.5066L14133.3603,-3891.4867"/>
<path content="AP030,1,28,1,0,14,1,8,JPN" xlink:title="AP030" d="M14154.8767,-3891.3395L14154.9301,-3891.4532L14155.0598,-3891.5932L14155.13,-3891.6332L14155.2902,-3891.7065L14155.4306,-3891.7599"/>
<path content="AP030,1,28,1,0,14,1,8,JPN" xlink:title="AP030" d="M14154.6799,-3891.3265L14154.8767,-3891.3395"/>
<path content="AP030,1,28,1,0,14,1,8,JPN" xlink:title="AP030" d="M14142.6804,-3893.6333L14142.9306,-3893.6867L14143.1793,-3893.7401L14143.4296,-3893.7931L14143.5806,-3893.8133L14143.7042,-3893.7721L14143.7393,-3893.7599L14143.9301,-3893.7199L14144.22,-3893.7599L14144.3298,-3893.7199L14144.5602,-3893.6665L14144.6793,-3893.6867L14144.9707,-3893.7401L14145.0607,-3893.7599L14145.3094,-3893.7733L14145.8832,-3893.8541L14145.9702,-3893.8667L14146.1304,-3893.8465L14146.1502,-3893.8465L14146.2906,-3893.7199L14146.4493,-3893.6333L14146.7407,-3893.4868L14146.7896,-3893.2198L14146.7407,-3892.86L14146.6095,-3892.5533L14146.5607,-3892.3733L14146.6293,-3892.0666L14146.7407,-3891.8331L14146.8597,-3891.74L14146.9498,-3891.74L14147.4304,-3891.7198L14148.1506,-3891.7198L14148.2407,-3891.7599L14148.3994,-3891.8465L14148.5794,-3891.8865L14148.6801,-3891.8667L14148.8098,-3891.8465L14149.1302,-3891.7931L14149.4003,-3891.7599L14149.8093,-3891.7599L14150.3296,-3891.74L14150.6104,-3891.7198L14150.7706,-3891.6664L14150.9705,-3891.5066L14151.1307,-3891.4131L14151.1993,-3891.3799L14151.2695,-3891.4131L14151.2894,-3891.4131L14151.3306,-3891.3998L14151.3306,-3891.3067L14151.4496,-3891.2197L14151.5396,-3891.1999L14152.0203,-3891.18L14152.0798,-3891.2197L14152.1103,-3891.2865L14152.15,-3891.3067L14152.24,-3891.2865L14152.5192,-3891.2197L14152.8107,-3891.18L14153.0197,-3891.1667L14153.0594,-3891.18L14153.1494,-3891.3067L14153.1998,-3891.3067L14153.2394,-3891.3067L14153.36,-3891.3467L14153.6102,-3891.4131L14153.7903,-3891.3998L14154.0802,-3891.3067L14154.2694,-3891.3067L14154.6799,-3891.3265"/>
<path content="AP030,1,28,1,0,14,1,8,JPN" xlink:title="AP030" d="M14156.6498,-3890.6799L14156.9305,-3890.7131L14157.1503,-3890.8199L14157.2205,-3890.7997L14157.2693,-3890.7333L14157.4493,-3890.7665L14157.6797,-3890.8199L14157.8094,-3890.86L14157.9895,-3890.8398L14158.0795,-3891.0198L14158.0597,-3891.1064L14158.0399,-3891.1999L14158.11,-3891.3597L14158.1497,-3891.4867L14158.1802,-3891.6134"/>
<path content="AP030,1,28,1,0,14,1,8,JPN" xlink:title="AP030" d="M14154.8767,-3891.3395L14154.9896,-3891.3467L14155.2704,-3891.3597L14155.3299,-3891.3067L14155.5603,-3891.2533L14155.574,-3891.1491L14155.5801,-3891.1064L14155.6503,-3890.9664L14156.0806,-3890.7665L14156.3293,-3890.6933L14156.6498,-3890.6799"/>
<path content="AP030,1,28,1,0,15,1,8,JPN" xlink:title="AP030" d="M14163.3301,-3893.3266L14163.6429,-3892.794L14164.3753,-3892.5293L14164.1052,-3892.2436L14164.267,-3891.6687L14164.7324,-3891.4574L14164.5615,-3891.0667L14164.6301,-3890.4484"/>
<path content="AP030,1,28,1,0,15,1,8,JPN" xlink:title="AP030" d="M14158.1802,-3891.6134L14159.3567,-3891.5901L14160.6613,-3891.8705L14161.5295,-3891.8659L14161.6562,-3891.0301L14161.9537,-3890.7677L14162.2208,-3890.6879L14164.6301,-3890.4484"/>
<path content="AP030,1,28,1,0,14,1,8,JPN" xlink:title="AP030" d="M14132.8125,-3891.022L14132.93,-3891.2533L14133.0399,-3891.3467L14133.1802,-3891.3998L14133.2901,-3891.4532L14133.3603,-3891.4867"/>
<path content="AP030,1,28,1,0,15,1,8,JPN" xlink:title="AP030" d="M14154.6799,-3891.3265L14154.6722,-3891.1892L14154.5914,-3889.7263L14155.1971,-3888.4544"/>
<path content="AP030,1,28,1,0,14,1,8,JPN" xlink:title="AP030" d="M14157.9498,-3886.5868L14158.11,-3886.7664L14158.2199,-3887.0533L14158.2397,-3887.1067L14158.2703,-3887.413L14157.9498,-3887.6865L14157.5806,-3888.1199L14157.5195,-3888.2465L14157.0801,-3889.0198L14156.8604,-3889.3799L14156.7001,-3889.6332L14156.6803,-3889.6667L14156.5842,-3889.854L14156.4301,-3890.1531L14156.4499,-3890.2065L14156.4896,-3890.2466L14156.4697,-3890.5331L14156.5598,-3890.62L14156.6498,-3890.6799"/>
<path content="AP030,1,28,1,0,14,1,8,JPN" xlink:title="AP030" d="M14154.8767,-3891.3395L14154.8141,-3891.201L14154.7699,-3891.1064L14154.7699,-3890.8398L14154.7897,-3890.7131L14154.8996,-3890.4064L14155.1102,-3890.0665L14155.13,-3890.0265L14155.2704,-3889.7732L14155.4504,-3889.4665L14155.5603,-3889.3265L14155.7205,-3889.18L14155.8594,-3889.1068L14155.9906,-3889.0533L14156.4499,-3888.8733L14156.5796,-3888.7333L14156.7001,-3888.533L14156.7703,-3888.1199L14156.81,-3887.833L14156.9305,-3887.7068L14157.0801,-3887.5931L14157.4905,-3887.5065L14157.5806,-3887.4531L14157.8293,-3886.9133L14157.8293,-3886.8931L14157.9498,-3886.5868"/>
<path content="AP030,1,28,1,0,15,1,8,JPN" xlink:title="AP030" d="M14164.6301,-3890.4484L14166.7084,-3886.5078"/>
<path content="AP030,1,28,1,0,14,1,8,JPN" xlink:title="AP030" d="M14134.9899,-3885.8665L14135.1807,-3886.1198L14134.9304,-3886.2465L14135.0204,-3886.3197L14135.0403,-3886.4265L14134.9701,-3886.5665L14134.9899,-3886.713L14135.08,-3886.8401L14135.2402,-3886.9267L14135.2707,-3886.9465L14135.4294,-3886.9999L14135.4294,-3887.0934L14135.3806,-3887.1998L14135.4004,-3887.3066L14135.6094,-3887.4001L14135.7697,-3887.4866L14135.8597,-3887.6133L14135.8093,-3887.6865L14135.6094,-3887.7731L14135.5804,-3887.8468L14135.5194,-3888.0264L14135.3302,-3888.3533L14135.1807,-3888.4598L14134.9503,-3888.5864L14134.9304,-3888.6398L14134.8999,-3888.8397L14134.9304,-3889.0533L14134.9304,-3889.1464L14134.8602,-3889.1998L14134.7397,-3889.22L14134.5795,-3889.2532L14134.52,-3889.3265L14134.52,-3889.4131L14134.4299,-3889.5397L14134.3994,-3889.6133L14134.4299,-3889.7198L14134.4498,-3889.8666L14134.4498,-3889.9731L14134.1995,-3890.1932L14134.0607,-3890.3198L14134.0607,-3890.48L14134.0393,-3890.6933L14133.8104,-3890.9267L14133.7906,-3891.04L14133.7692,-3891.18L14133.6502,-3891.2197L14133.5403,-3891.2865L14133.4702,-3891.3799L14133.3603,-3891.4867"/>
<path content="AP030,1,28,1,0,14,1,8,JPN" xlink:title="AP030" d="M14157.9498,-3886.5868L14157.9895,-3886.0664L14157.9697,-3885.6865L14157.9895,-3885.0731"/>
<path content="AP030,1,28,1,0,15,1,8,JPN" xlink:title="AP030" d="M14155.1971,-3888.4544L14156.1035,-3887.2433L14156.7093,-3886.3346L14157.2388,-3885.7288L14157.9895,-3885.0731"/>
<path content="AP030,1,28,1,0,15,1,8,JPN" xlink:title="AP030" d="M14132.8125,-3886.2705L14133.0368,-3886.2629L14133.3618,-3886.0073L14133.8913,-3885.91L14134.9899,-3885.8665"/>
<path content="AP030,1,28,1,0,15,1,8,JPN" xlink:title="AP030" d="M14150.4898,-3879.38L14150.6393,-3879.9862L14150.6592,-3882.5993L14150.8713,-3883.9367L14151.9775,-3884.6645L14151.6571,-3885.4626L14151.9058,-3885.9715L14153.5019,-3886.8881L14154.0405,-3888.0329L14155.1971,-3888.4544"/>
<path content="AP030,1,28,1,0,15,1,8,JPN" xlink:title="AP030" d="M14142.6804,-3893.6333L14142.5613,-3893.4864L14142.0013,-3892.7986L14142.2424,-3892.1604L14142.1997,-3891.8419L14141.7068,-3891.4612L14141.9495,-3890.8867L14142.6773,-3889.8964L14142.6712,-3888.8767L14142.7048,-3887.6656L14142.6559,-3886.2637L14142.5217,-3884.4799L14143.4128,-3883.4888L14144.0598,-3882.8171L14144.6289,-3882.4642L14145.4025,-3882.3978L14146.6248,-3882.5203L14147.438,-3882.1983L14149.4598,-3880.1823L14149.9878,-3879.8615L14150.4898,-3879.38"/>
<path content="AP030,1,28,1,0,14,1,8,JPN" xlink:title="AP030" d="M14151.9897,-3879.2866L14151.5793,-3879.3999L14151.3306,-3879.4132L14151.1505,-3879.3598L14150.9003,-3879.3266L14150.7202,-3879.3465L14150.4898,-3879.38"/>
<path content="AP030,1,28,1,0,14,1,8,JPN" xlink:title="AP030" d="M14151.9897,-3879.2866L14152.2903,-3879.2732L14152.6505,-3879.38L14152.7206,-3879.4666L14152.8107,-3879.5799L14152.9495,-3879.6333L14153.1296,-3879.6867L14153.3096,-3879.76L14153.6102,-3879.9732L14153.83,-3880.1334L14154.1504,-3880.32L14154.4907,-3880.4398L14154.6295,-3880.5134L14154.8294,-3880.6599L14155.1498,-3880.8201L14155.3101,-3880.9998L14155.4504,-3881.1665L14155.8594,-3881.4865L14156.0806,-3881.58L14156.1798,-3881.58L14156.4301,-3881.5933L14156.9,-3881.5933L14157.1304,-3881.6132L14157.2006,-3881.6868L14157.2205,-3881.8134L14157.2205,-3882.2266L14157.3105,-3882.3734L14157.5394,-3882.6401L14157.6797,-3882.7999L14157.6996,-3882.9666L14157.8094,-3883.58L14157.8094,-3883.6864L14157.8293,-3883.8131L14157.9895,-3884.28L14157.9895,-3884.2999L14158.0399,-3884.4265L14157.9895,-3885.0731"/>
<path content="AP030,1,28,1,0,14,1,8,JPN" xlink:title="AP030" d="M14150.4898,-3879.38L14150.5203,-3879.1664L14150.5402,-3878.9867"/>
<path content="AP030,1,28,1,0,14,1,8,JPN" xlink:title="AP030" d="M14151.1093,-3878.1933L14151.1307,-3878.6064L14151.1993,-3878.7464L14151.3596,-3878.9467L14151.3992,-3878.9749L14151.5793,-3879.1065L14151.8295,-3879.2198L14151.9897,-3879.2866"/>
<path content="AP030,1,28,1,0,14,1,8,JPN" xlink:title="AP030" d="M14150.5402,-3878.9867L14150.6348,-3878.8246L14150.65,-3878.7998L14150.8804,-3878.68L14150.8606,-3878.5332L14150.9003,-3878.3867L14151.1093,-3878.1933"/>
<path content="AP030,1,28,1,0,14,1,8,JPN" xlink:title="AP030" d="M14134.9899,-3885.8665L14134.9304,-3885.7067L14134.9899,-3885.22L14134.9503,-3885.1067L14134.7702,-3884.8598L14134.7702,-3884.7466L14134.79,-3884.7332L14134.9503,-3884.66L14135.0204,-3884.6066L14134.9503,-3884.5131L14134.4696,-3884.5131L14134.2896,-3884.5131L14134.2407,-3884.4601L14134.2407,-3884.2598L14134.1507,-3884.1732L14134.0393,-3884.0668L14134.0805,-3884.0267L14134.1995,-3883.8665L14134.1995,-3883.72L14134.1095,-3883.5068L14133.8593,-3883.2535L14133.5602,-3882.9132L14133.4,-3882.84L14133.0795,-3882.5867L14132.9697,-3882.46L14132.8796,-3882.2468L14132.8125,-3882.1897M14132.8125,-3878.196L14132.8995,-3878.08L14132.9498,-3877.9934L14132.9895,-3877.94L14133.0597,-3877.8667L14132.9697,-3877.5932L14132.9697,-3877.56L14133.0795,-3877.38L14133.0597,-3877.2331"/>
<path content="AP030,1,28,1,0,14,1,8,JPN" xlink:title="AP030" d="M14133.0597,-3877.2331L14133.11,-3877.2331L14133.3801,-3877.2331L14133.4702,-3877.2732L14133.6304,-3877.4532L14133.6304,-3877.5265L14133.6807,-3877.6333L14133.7692,-3877.6531L14133.8303,-3877.6665L14133.9005,-3877.6665L14134.1095,-3877.5932L14134.3994,-3877.5398L14134.7198,-3877.6134L14134.8099,-3877.7065L14134.8999,-3877.7733L14134.9701,-3877.7733L14135.2402,-3877.7599L14135.4004,-3877.7599L14135.5804,-3877.8465L14135.8307,-3877.9934L14136.0397,-3878.0666L14136.2,-3878.0998L14136.5402,-3878.1933L14136.8805,-3878.26L14137.2406,-3878.26L14137.5595,-3878.1532L14137.7396,-3878.08L14137.8601,-3878.0998L14138.0798,-3878.1532L14138.2401,-3878.1734L14138.4705,-3878.08L14138.8306,-3878.1334L14138.9297,-3878.1933L14139.0198,-3878.2997L14139.18,-3878.4267L14139.3097,-3878.4599L14139.7903,-3878.4798L14140.1505,-3878.4798L14140.3595,-3878.5534L14140.5197,-3878.6064L14140.7196,-3878.6934L14140.8096,-3878.7132L14140.86,-3878.7132L14141.1499,-3878.6198L14141.2903,-3878.64L14141.4902,-3878.6198L14141.5802,-3878.5534L14142.0593,-3878.3733L14142.1494,-3878.3531L14142.54,-3878.2799L14142.6804,-3878.1933L14142.7704,-3878.0132L14142.9504,-3877.8465L14143.2404,-3877.7199L14143.6493,-3877.5265L14143.9301,-3877.4132L14144.0796,-3877.3464L14144.3298,-3877.38L14144.4702,-3877.4334L14144.5602,-3877.5799L14144.7006,-3877.7065L14144.8105,-3877.7599L14145.0394,-3877.7599L14145.1797,-3877.7931L14145.43,-3877.8866L14145.61,-3877.8866L14145.7199,-3877.94L14145.9305,-3878.0464L14146.2402,-3878.2265L14146.4493,-3878.26L14146.6095,-3878.2997L14146.8094,-3878.26L14147.1497,-3878.2799L14147.4304,-3878.3199L14147.6807,-3878.3333L14148.1506,-3878.5534L14148.4497,-3878.5866L14148.8098,-3878.5534L14148.9304,-3878.5534L14149.3607,-3878.4397L14149.5193,-3878.4599L14149.9298,-3878.6064L14150.4898,-3878.9467L14150.5402,-3878.9867"/>
<path content="AP030,1,28,1,0,14,1,8,JPN" xlink:title="AP030" d="M14132.8125,-3876.6366L14133.0597,-3877.2331"/>
<path content="AP030,1,28,1,0,14,1,8,JPN" xlink:title="AP030" d="M14132.8125,-3870.83L14133.8104,-3870.5868L14134.1797,-3870.5334L14134.6298,-3870.5334L14134.9701,-3870.5666L14135.4294,-3870.6799L14136.2,-3870.8401L14136.29,-3870.8401L14136.4899,-3870.7867L14136.6806,-3870.7466L14136.7401,-3870.7333L14137.3093,-3870.6932L14137.4298,-3870.6932L14137.7197,-3870.6799L14138.06,-3870.5532L14138.1302,-3870.4399L14138.2706,-3870.3732L14138.4506,-3870.3335L14138.5605,-3870.3865L14138.6795,-3870.3865L14138.8794,-3870.4067L14139.1296,-3870.4266L14139.5401,-3870.3533L14139.74,-3870.2801L14139.9506,-3870.2065L14140.5594,-3869.9734L14140.6799,-3869.9532L14141.1499,-3869.9532L14141.33,-3869.9532L14141.4307,-3869.7735L14141.5405,-3869.54L14141.6504,-3869.4866L14141.8594,-3869.4866L14141.9693,-3869.4534L14142.1997,-3869.3268L14142.3798,-3869.3268L14142.5598,-3869.4L14142.6498,-3869.3798L14143.0405,-3869.0533L14143.0603,-3869.0399"/>
<path content="AP030,1,28,1,0,14,1,8,JPN" xlink:title="AP030" d="M14144.9493,-3867.6666L14145.1492,-3867.7399L14145.3796,-3867.8131L14145.3995,-3867.8131L14145.43,-3867.9001L14145.3796,-3868.1732L14145.43,-3868.3735L14145.7001,-3868.7134L14145.7306,-3868.7332L14145.9702,-3868.8934L14146.2204,-3868.8732L14146.4493,-3868.9266L14146.6995,-3868.9999L14146.8796,-3869.0201L14147.0596,-3869.1067L14147.1497,-3869.1467L14147.29,-3869.1799L14147.3999,-3869.2333L14147.3999,-3869.5267L14147.5403,-3869.6533L14147.6501,-3869.7067L14147.7203,-3869.7067L14147.9507,-3869.5801L14148.2895,-3869.4L14148.6099,-3869.2734L14148.8739,-3869.2009L14148.9502,-3869.1799L14149.0402,-3869.1666L14149.1104,-3869.22L14149.1302,-3869.2734L14149.1318,-3869.3222L14149.1806,-3869.5267L14149.3607,-3869.7067L14149.5193,-3869.8132L14149.7696,-3869.8132L14149.855,-3869.7868L14149.8993,-3869.7735L14149.9695,-3869.7598L14150.0793,-3869.7735L14150.2701,-3869.92L14150.3296,-3869.9398L14150.47,-3869.92L14150.5798,-3869.8997L14150.7706,-3869.9734L14150.8804,-3870.1332L14150.9506,-3870.3732L14150.9705,-3870.5132L14151.0605,-3870.7134L14151.0803,-3870.8935L14151.0406,-3871.0533L14151.0605,-3871.1266L14151.1795,-3871.18L14151.5594,-3871.2334L14151.77,-3871.3467L14151.7899,-3871.36L14152.1301,-3871.6133L14152.33,-3871.6866L14152.6306,-3871.8132L14152.7695,-3871.8468L14152.9007,-3871.8864L14152.9694,-3871.8864L14153.2898,-3872.1931L14153.3997,-3872.3L14153.5599,-3872.3331L14153.9505,-3872.3534L14154.0802,-3872.44L14154.1306,-3872.5533L14154.0405,-3872.6933L14153.8803,-3872.9134L14153.8605,-3872.9866L14153.9505,-3873.1464L14153.8803,-3873.2533L14153.8101,-3873.2864L14153.7704,-3873.3265L14153.6499,-3873.3467L14153.4897,-3873.2864L14153.4302,-3873.2864L14153.27,-3873.4135L14153.1998,-3873.6534L14153.1998,-3873.6668L14153.2196,-3873.9201L14153.1998,-3874.0997L14153.0273,-3874.226L14152.8793,-3874.2268L14152.7695,-3874.2466L14152.7206,-3874.2599L14152.7695,-3874.4064L14152.7206,-3874.5865L14152.8107,-3874.7868L14152.8275,-3874.9111L14152.8793,-3874.9866L14152.8305,-3875.1801L14152.6993,-3875.3597L14152.4307,-3875.5932L14152.1805,-3875.7935L14152.0401,-3875.8999L14151.6739,-3876.0078L14151.6098,-3876.0265L14151.3107,-3876.0468L14151.1505,-3876.0799L14151.0193,-3876.2264L14150.9003,-3876.4599L14150.8102,-3876.5133L14150.7706,-3876.5667L14150.6302,-3876.6933L14150.6927,-3876.8246L14150.7004,-3876.8398L14150.7904,-3876.9264L14150.9003,-3877.2198L14150.8102,-3877.4334L14150.8301,-3877.6867L14150.8804,-3877.7931L14151.1093,-3877.8465L14151.2405,-3877.8465L14151.2695,-3878.0132L14151.1093,-3878.1933"/>
<path content="AP030,1,28,1,0,14,1,8,JPN" xlink:title="AP030" d="M14143.0603,-3869.0399L14143.3594,-3868.7466L14143.4296,-3868.7134L14143.5806,-3868.7134L14143.7195,-3868.7466L14144.1299,-3868.6066L14144.2703,-3868.3735L14144.4,-3868.1732L14144.4092,-3868.1629L14144.5602,-3867.9932L14144.6503,-3867.8467L14144.7906,-3867.8665L14144.9295,-3867.7067L14144.9493,-3867.6666"/>
<path content="AP030,1,28,1,0,15,1,8,JPN" xlink:title="AP030" d="M14134.2159,-3867.1875L14134.9686,-3867.5381L14136.2701,-3867.215L14136.2732,-3867.9173L14136.3571,-3868.5555L14136.6028,-3868.6825L14137.4985,-3868.6794L14138.0676,-3868.3586L14138.3957,-3868.8042L14138.8,-3868.1644L14139.5309,-3867.8429L14139.7781,-3868.3529L14140.2664,-3868.4151L14140.9988,-3868.3487L14141.6489,-3867.8993L14143.0603,-3869.0399"/>
<path content="AP030,1,28,1,0,14,1,8,JPN" xlink:title="AP030" d="M14144.2783,-3867.1875L14144.2902,-3867.2001L14144.3802,-3867.4332L14144.4,-3867.5266L14144.4901,-3867.5598L14144.7693,-3867.5934L14144.9493,-3867.6666"/>
</g>
</svg>
