<?xml version="1.0" encoding="UTF-8"?>
<svg  xmlns="http://www.w3.org/2000/svg" xmlns:xlink="http://www.w3.org/1999/xlink" xmlns:go="http://purl.org/svgmap/profile" property="f_code,acc,exs,rst,med,rtt,RSU,loc,soc" viewBox="13500.0 -3480.46875 35.15625 35.15625" go:dataArea="13500.0 -3480.46875 35.15625 35.15625" >
<metadata>
 <rdf:RDF xmlns:rdf="http://www.w3.org/1999/02/22-rdf-syntax-ns#" xmlns:crs="http://opengis.org/xmldtds/transformations.dtd" xmlns:svg="http://www.w3.org/svg" >
  <rdf:Description>
   <crs:CoordinateReferenceSystem rdf:resource="http://purl.org/crs/84" svg:transform="matrix(100.0,0.0,0.0,-100.0,0.0,0.0)" />
  </rdf:Description>
 </rdf:RDF>
</metadata>
<globalCoordinateSystem srsName="http://purl.org/crs/84" transform="matrix(100.0,0.0,0.0,-100.0,0.0,0.0)" />
<defs>
 <g id="p0" >
  <circle cx="0.0" cy="0.0" r="3" stroke="green" stroke-width="2.0" vector-effect="non-scaling-stroke" />
 </g>
</defs>
<g fill="none" fill-rule="evenodd" stroke="#00ff00" stroke-width="2" opacity="0.5" vector-effect="non-scaling-stroke" stroke-linejoin="bevel" >
<path content="AP030,1,28,1,0,15,1,8,JPN" xlink:title="AP030" d="M13527.8705,-3480.4687L13527.9007,-3480.3867"/>
<path content="AP030,1,28,1,0,16,1,8,JPN" xlink:title="AP030" d="M13520.0756,-3480.4687L13520.0607,-3480.3333"/>
<path content="AP030,1,28,1,0,16,1,8,JPN" xlink:title="AP030" d="M13527.9007,-3480.3867L13527.9694,-3480.2799L13528.2898,-3480.0999L13528.4302,-3480.0667L13528.6301,-3480.08L13528.7704,-3480.0999"/>
<path content="AP030,1,28,1,0,15,1,8,JPN" xlink:title="AP030" d="M13528.9444,-3479.9801L13530.0552,-3480.0808L13530.9799,-3480.4092L13531.0794,-3480.4688"/>
<path content="AP030,1,28,1,0,16,1,4,JPN" xlink:title="AP030" d="M13528.9444,-3479.9801L13528.7704,-3480.0999"/>
<path content="AP030,1,28,1,0,15,1,4,JPN" xlink:title="AP030" d="M13524.697,-3480.4688L13524.5331,-3480.3267L13523.7828,-3479.8666"/>
<path content="AP030,1,28,1,0,16,1,8,JPN" xlink:title="AP030" d="M13502.7145,-3480.4687L13502.9907,-3480.3532L13503.1998,-3480.32L13503.7903,-3480.2799L13504.0207,-3480.2467L13504.6295,-3480.0133L13505.22,-3479.8664L13505.4306,-3479.8134L13505.8304,-3479.7932L13506.0593,-3479.8466L13506.1996,-3479.9L13506.792,-3480.4688"/>
<path content="AP030,1,28,1,0,15,1,8,JPN" xlink:title="AP030" d="M13508.2703,-3479.5601L13508.9828,-3479.874L13509.5783,-3480.4687"/>
<path content="AP030,1,28,1,0,16,1,8,JPN" xlink:title="AP030" d="M13507.9248,-3480.4688L13508.0399,-3480.2601L13508.1299,-3480.0266L13508.2001,-3479.8332L13508.2703,-3479.5601"/>
<path content="AP030,1,28,1,0,15,1,8,JPN" xlink:title="AP030" d="M13526.358,-3479.528L13527.4872,-3479.6829L13528.9444,-3479.9801"/>
<path content="AP030,1,28,1,0,16,1,8,JPN" xlink:title="AP030" d="M13525.2899,-3480.0266L13525.47,-3479.9534L13525.5203,-3479.8466L13525.8102,-3479.5933L13526.0406,-3479.5933L13526.1505,-3479.6333L13526.1993,-3479.6532L13526.3107,-3479.6333L13526.3596,-3479.5933L13526.358,-3479.528"/>
<path content="AP030,1,28,1,0,15,1,8,JPN" xlink:title="AP030" d="M13523.2237,-3479.3024L13523.7305,-3479.4243L13524.1928,-3479.4243L13525.0259,-3479.5254L13525.5814,-3479.4243L13526.2558,-3479.5025L13526.358,-3479.528"/>
<path content="AP030,1,28,1,0,15,1,8,JPN" xlink:title="AP030" d="M13523.7828,-3479.8666L13523.3404,-3479.5651L13523.2346,-3479.4302L13523.2237,-3479.3024"/>
<path content="AP030,1,28,1,0,15,1,8,JPN" xlink:title="AP030" d="M13522.4899,-3479.1466L13523.2056,-3479.298L13523.2237,-3479.3024"/>
<path content="AP030,1,28,1,0,16,1,8,JPN" xlink:title="AP030" d="M13520.0607,-3480.3333L13520.52,-3480.2998L13520.9702,-3480.3532L13521.2692,-3480.3734L13521.5637,-3480.3577L13521.6507,-3480.3532L13522.1497,-3480.32L13522.2702,-3480.2601L13522.3999,-3480.2067L13522.6303,-3480.0266L13522.6807,-3479.8866L13522.6944,-3479.5959L13522.7005,-3479.4865L13522.7005,-3479.3999L13522.4899,-3479.1466"/>
<path content="AP030,1,28,1,0,15,1,8,JPN" xlink:title="AP030" d="M13506.3919,-3478.6125L13507.4417,-3478.899L13508.2703,-3479.5601"/>
<path content="AP030,1,28,1,0,15,1,8,JPN" xlink:title="AP030" d="M13500,-3479.7493L13500,-3479.7493L13501.207,-3479.4727L13502.9587,-3479.3579L13505.3406,-3478.9566L13506.3919,-3478.6125"/>
<path content="AP030,1,28,1,0,16,1,8,JPN" xlink:title="AP030" d="M13526.358,-3479.528L13526.3596,-3479.4865L13526.1505,-3479.4533L13526.1795,-3479.2534L13526.0803,-3479.2534L13525.9506,-3479.3598L13525.8606,-3479.3465L13525.8606,-3479.2198L13525.9705,-3478.9665L13526.0406,-3478.9467L13526.1505,-3478.9665L13526.2207,-3478.9867L13526.3794,-3479.0733L13526.4694,-3479.0733L13526.5198,-3479.0199L13526.4297,-3478.9467L13526.3596,-3478.8933L13526.3596,-3478.7998L13526.3596,-3478.7666L13526.3992,-3478.7334L13526.5793,-3478.6598L13526.7197,-3478.5866"/>
<path content="AP030,1,28,1,0,16,1,4,JPN" xlink:title="AP030" d="M13529.9896,-3478.5L13529.9301,-3478.7132L13529.6494,-3479.0733L13529.2892,-3479.5601L13529.1794,-3479.7199L13528.9444,-3479.9801"/>
<path content="AP030,1,28,1,0,15,1,8,JPN" xlink:title="AP030" d="M13506.3919,-3478.6125L13506.8817,-3478.1536"/>
<path content="AP030,1,28,1,0,16,1,8,JPN" xlink:title="AP030" d="M13529.9896,-3478.5L13530.0201,-3478.3867L13530.4306,-3478.3867L13530.5801,-3478.3199L13530.7404,-3478.08"/>
<path content="AP030,1,28,1,0,16,1,4,JPN" xlink:title="AP030" d="M13526.7197,-3478.5866L13527.3605,-3478.1734L13527.6093,-3478.0464"/>
<path content="AP030,1,28,1,0,16,1,8,JPN" xlink:title="AP030" d="M13528.8589,-3478.1765L13528.9001,-3478.1532L13528.9307,-3478.08L13528.8605,-3478.0132"/>
<path content="AP030,1,28,1,0,16,1,8,JPN" xlink:title="AP030" d="M13528.8589,-3478.1765L13528.7399,-3478.0666L13528.7704,-3478.0266L13528.8605,-3478.0132"/>
<path content="AP030,1,28,1,0,16,1,8,JPN" xlink:title="AP030" d="M13522.4899,-3479.1466L13522.2397,-3478.9867L13522.0596,-3478.7998L13521.9696,-3478.3333L13521.7407,-3477.9934"/>
<path content="AP030,1,28,1,0,16,1,8,JPN" xlink:title="AP030" d="M13527.6093,-3478.0464L13527.9007,-3477.9934L13528.4302,-3478.08L13528.6804,-3478.2265L13528.7704,-3478.2265L13528.8589,-3478.1765"/>
<path content="AP030,1,28,1,0,16,1,8,JPN" xlink:title="AP030" d="M13528.8589,-3478.1765L13528.9703,-3478.2799L13529.0405,-3478.2997L13529.1306,-3478.2997L13529.1794,-3478.2799L13529.2007,-3478.1933L13529.1306,-3478.12L13529.1306,-3477.9533"/>
<path content="AP030,1,28,1,0,15,1,8,JPN" xlink:title="AP030" d="M13528.8605,-3478.0132L13529.1306,-3477.9533"/>
<path content="AP030,1,28,1,0,15,1,8,JPN" xlink:title="AP030" d="M13529.1306,-3477.9533L13529.7455,-3478.0354L13530.1468,-3478.0354L13530.2399,-3477.8336L13530.394,-3477.581L13531.1646,-3477.4799L13531.4423,-3477.3788"/>
<path content="AP030,1,28,1,0,15,1,8,JPN" xlink:title="AP030" d="M13531.4423,-3477.3788L13531.6895,-3477.3281L13532.0908,-3477.3788L13532.399,-3477.5555L13532.5531,-3477.8587L13532.6767,-3478.1868L13534.1278,-3478.1364L13534.4971,-3478.4649L13534.8053,-3478.894L13535.1456,-3479.1466L13535.1562,-3479.2625M13535.1562,-3479.557L13535.1456,-3479.6013"/>
<path content="AP030,1,28,1,0,16,1,4,JPN" xlink:title="AP030" d="M13521.7407,-3477.9934L13521.5195,-3477.6333L13521.3104,-3477.38L13521.2006,-3477.2533L13520.961,-3477.1732"/>
<path content="AP030,1,28,1,0,16,1,8,JPN" xlink:title="AP030" d="M13520.0607,-3480.3333L13520.1797,-3480.0667L13520.2896,-3479.8466L13520.3094,-3479.7932L13520.3995,-3479.6532L13520.4498,-3479.5601L13520.61,-3479.1065L13520.7001,-3478.9131L13520.7901,-3478.7865L13520.9015,-3478.6022L13521.2204,-3478.26L13521.2204,-3478.0464L13521.1807,-3477.9533L13521.0205,-3477.7931L13520.8603,-3477.6665L13520.8603,-3477.5265L13520.9305,-3477.38L13520.961,-3477.1732"/>
<path content="AP030,1,28,1,0,16,1,4,JPN" xlink:title="AP030" d="M13520.961,-3477.1732L13520.8801,-3477.1465L13520.5597,-3477.0397L13520.4697,-3476.9867"/>
<path content="AP030,1,28,1,0,15,1,8,JPN" xlink:title="AP030" d="M13523.2237,-3479.3024L13523.21,-3479.142L13523.21,-3478.827L13523.07,-3478.403L13522.84,-3477.962L13522.62,-3477.62L13522.43,-3477.394L13522.13,-3476.97"/>
<path content="AP030,1,28,1,0,16,1,8,JPN" xlink:title="AP030" d="M13520.961,-3477.1732L13520.9702,-3477.1065L13521.0403,-3477.0535L13521.2692,-3476.9665"/>
<path content="AP030,1,28,1,0,15,1,4,JPN" xlink:title="AP030" d="M13522.13,-3476.97L13522.0796,-3476.9264"/>
<path content="AP030,1,28,1,0,16,1,8,JPN" xlink:title="AP030" d="M13521.2692,-3476.9665L13521.4294,-3476.9135L13521.4706,-3476.8734"/>
<path content="AP030,1,28,1,0,16,1,8,JPN" xlink:title="AP030" d="M13508.2703,-3479.5601L13508.2901,-3478.6064L13508.2901,-3478.4397L13508.2901,-3478.3531L13508.2901,-3478.26L13508.2901,-3478.0666L13508.2901,-3477.8866L13508.2703,-3477.2732L13508.2703,-3476.82"/>
<path content="AP030,1,28,1,0,16,1,8,JPN" xlink:title="AP030" d="M13521.5805,-3476.7002L13521.6797,-3476.7334L13521.7407,-3476.86L13521.8796,-3476.8932L13522.02,-3476.9264L13522.0796,-3476.9264"/>
<path content="AP030,1,28,1,0,16,1,4,JPN" xlink:title="AP030" d="M13521.5805,-3476.7002L13521.5607,-3476.7864L13521.4706,-3476.8734"/>
<path content="AP030,1,28,1,0,16,1,4,JPN" xlink:title="AP030" d="M13508.2703,-3476.82L13508.2703,-3476.6933"/>
<path content="AP030,1,28,1,0,15,1,8,JPN" xlink:title="AP030" d="M13506.8817,-3478.1536L13507.2311,-3477.5803L13507.7927,-3476.8349L13508.2703,-3476.6933"/>
<path content="AP030,1,28,1,0,16,1,8,JPN" xlink:title="AP030" d="M13521.2692,-3476.9665L13521.2692,-3476.8398L13521.3806,-3476.7334L13521.5607,-3476.6933L13521.5805,-3476.7002"/>
<path content="AP030,1,28,1,0,15,1,4,JPN" xlink:title="AP030" d="M13522.0796,-3476.9264L13521.6206,-3476.5296"/>
<path content="AP030,1,28,1,0,16,1,4,JPN" xlink:title="AP030" d="M13521.6206,-3476.5296L13521.5805,-3476.7002"/>
<path content="AP030,1,28,1,0,16,1,8,JPN" xlink:title="AP030" d="M13529.1306,-3477.9533L13528.9307,-3477.7931L13528.83,-3477.7065L13528.8803,-3477.6333L13528.8803,-3477.56L13528.5599,-3477.3266L13528.3295,-3477.0733L13528.27,-3477.0397L13528.2196,-3476.9867L13528.3295,-3476.82L13528.36,-3476.7467L13528.4302,-3476.7334L13528.4897,-3476.7467L13528.5599,-3476.7334L13528.5797,-3476.5667L13528.54,-3476.4065L13528.5599,-3476.3535L13528.7201,-3476.2466"/>
<path content="AP030,1,28,1,0,14,1,8,JPN" xlink:title="AP030" d="M13510.5708,-3480.4688L13510.6094,-3480.4268L13510.7697,-3480.2601L13510.8093,-3480.1533L13510.8597,-3480.0667L13510.8994,-3480.0465L13511.0199,-3480.0266L13511.1801,-3479.9534L13511.3602,-3479.8866L13511.47,-3479.8134L13511.6302,-3479.7199L13511.7401,-3479.7066L13511.8607,-3479.6867L13512.0193,-3479.6131L13512.0605,-3479.6333L13512.1994,-3479.6665L13512.2696,-3479.6665L13512.3093,-3479.5799L13512.3596,-3479.5601L13512.3993,-3479.5799L13512.4496,-3479.6867L13512.5198,-3479.7398L13512.6099,-3479.7199L13512.6495,-3479.7066L13512.6801,-3479.6532L13512.7197,-3479.6333L13512.8296,-3479.5933L13512.8601,-3479.5399L13512.7899,-3479.4132L13512.7899,-3479.3465L13512.8601,-3479.2534L13512.9303,-3479.2L13513.1104,-3479.1065L13513.2004,-3479.0531L13513.3606,-3479.0398L13513.4293,-3478.9997L13513.4293,-3478.9467L13513.4293,-3478.9131L13513.2401,-3478.7464L13513.2202,-3478.6934L13513.2706,-3478.5534L13513.2706,-3478.4798L13513.2004,-3478.3867L13513.2202,-3478.3199L13513.2706,-3478.1734L13513.2904,-3478.08L13513.3102,-3478.0132L13513.3804,-3477.94L13513.3606,-3477.8866L13513.3102,-3477.8332L13513.3102,-3477.7733L13513.3804,-3477.7733L13513.6093,-3477.7065L13513.6505,-3477.6531L13513.6307,-3477.5799L13513.6307,-3477.5398L13513.6993,-3477.5066L13513.7695,-3477.4666L13513.7695,-3477.3998L13513.8107,-3477.3464L13513.8794,-3477.2198L13513.8794,-3477.0733L13513.7695,-3476.9665L13513.7695,-3476.9135L13513.8107,-3476.8932L13513.9297,-3476.9264L13513.9893,-3476.9135L13513.9496,-3476.8734L13513.8992,-3476.82L13513.8794,-3476.7334L13513.8596,-3476.6197L13514.0793,-3476.5667L13514.2395,-3476.4267L13514.3097,-3476.3535L13514.3997,-3476.3199L13514.7202,-3476.3733L13514.8102,-3476.3535L13514.9307,-3476.2798L13515.0803,-3476.2066L13515.3305,-3476.1333"/>
<path content="AP030,1,28,1,0,14,1,8,JPN" xlink:title="AP030" d="M13515.3305,-3476.1333L13515.4297,-3476.0799"/>
<path content="AP030,1,28,1,0,15,1,4,JPN" xlink:title="AP030" d="M13521.6206,-3476.5296L13521.09,-3476.071"/>
<path content="AP030,1,28,1,0,16,1,8,JPN" xlink:title="AP030" d="M13515.4297,-3476.0799L13515.6296,-3476.1532L13515.8096,-3476.12L13515.9302,-3476.0132"/>
<path content="AP030,1,28,1,0,16,1,8,JPN" xlink:title="AP030" d="M13516.0446,-3475.6882L13516.2201,-3475.7198L13516.5192,-3475.7908L13517.6804,-3476.0666L13517.9901,-3476.0799L13518.6996,-3476.0468L13519.2902,-3476.1532L13519.6503,-3476.3199L13519.9493,-3476.5533L13520.3094,-3476.86L13520.3293,-3476.8932L13520.4697,-3476.9867"/>
<path content="AP030,1,28,1,0,16,1,4,JPN" xlink:title="AP030" d="M13515.9302,-3476.0132L13515.9836,-3475.9151L13516.0202,-3475.8465L13516.0446,-3475.6882"/>
<path content="AP030,1,28,1,0,16,1,8,JPN" xlink:title="AP030" d="M13522.0796,-3476.9264L13522.1802,-3476.9264L13522.2,-3476.8734L13522.1497,-3476.7998L13522.1497,-3476.7467L13522.2397,-3476.7132L13522.2702,-3476.68L13522.2198,-3476.6197L13522.2198,-3476.5533L13522.2702,-3476.4999L13522.2702,-3476.3733L13522.3099,-3476.2798L13522.3602,-3476.26L13522.4503,-3476.3L13522.5204,-3476.2798L13522.6807,-3476.1532L13522.6807,-3476.0265L13522.7402,-3476.0132L13522.9294,-3476.0265L13523.0194,-3476.0132L13523.0606,-3475.9731L13522.9706,-3475.8865L13522.9706,-3475.7732L13522.9706,-3475.5932"/>
<path content="AP030,1,28,1,0,16,1,8,JPN" xlink:title="AP030" d="M13515.4907,-3475.5917L13515.5197,-3475.5932L13515.5518,-3475.5993L13515.6296,-3475.6134L13516.0446,-3475.6882"/>
<path content="AP030,1,28,1,0,14,1,8,JPN" xlink:title="AP030" d="M13515.4297,-3476.0799L13515.5396,-3475.8999L13515.5197,-3475.7599L13515.4907,-3475.6664L13515.4907,-3475.6134L13515.4907,-3475.5917"/>
<path content="AP030,1,28,1,0,15,1,8,JPN" xlink:title="AP030" d="M13508.2703,-3476.6933L13508.844,-3476.6628L13509.2636,-3476.4908L13509.6832,-3476.2039L13510.0342,-3476.2039L13510.5942,-3476.2611L13511.2961,-3476.3187L13511.7157,-3476.2039L13512.1368,-3475.9171L13512.5565,-3475.5733L13513.0463,-3475.5157L13513.8168,-3475.6306L13515.3305,-3476.1333"/>
<path content="AP030,1,28,1,0,14,1,8,JPN" xlink:title="AP030" d="M13515.4907,-3475.5917L13515.4907,-3475.5398L13515.4907,-3475.5264L13515.5186,-3475.4967"/>
<path content="AP030,1,28,1,0,16,1,4,JPN" xlink:title="AP030" d="M13516.0446,-3475.6882L13516.0599,-3475.5932L13516.0474,-3475.4461"/>
<path content="AP030,1,28,1,0,15,1,8,JPN" xlink:title="AP030" d="M13516.0474,-3475.4461L13515.5186,-3475.4967"/>
<path content="AP030,1,28,1,0,15,1,8,JPN" xlink:title="AP030" d="M13521.09,-3476.071L13520.65,-3475.85L13520.27,-3475.685L13519.45,-3475.459L13518.83,-3475.377L13517.85,-3475.299L13517.16,-3475.327L13516.55,-3475.398L13516.0474,-3475.4461"/>
<path content="AP030,1,28,1,0,15,1,8,JPN" xlink:title="AP030" d="M13502.948,-3475.1797L13503.3524,-3475.3384L13503.6957,-3475.6683L13504.0741,-3476.0338L13504.9927,-3476.7628L13505.7037,-3477.1984L13506.8817,-3478.1536"/>
<path content="AP030,1,28,1,0,15,1,8,JPN" xlink:title="AP030" d="M13500,-3477.1862L13500,-3477.1862L13500.3662,-3477.1214L13501.2772,-3476.8921L13501.9073,-3476.376L13502.6779,-3475.4013L13502.948,-3475.1797"/>
<path content="AP030,1,28,1,0,16,1,4,JPN" xlink:title="AP030" d="M13508.2703,-3476.6933L13508.2703,-3476.3866L13508.3099,-3476.2466L13508.49,-3476.0468L13508.8303,-3475.6134L13508.9905,-3475.2533L13509.0805,-3474.9466L13509.1095,-3474.7334"/>
<path content="AP030,1,28,1,0,16,1,8,JPN" xlink:title="AP030" d="M13522.2961,-3474.6826L13522.4701,-3474.7665L13522.5204,-3474.7997L13522.5204,-3474.86L13522.4701,-3474.86L13522.2,-3474.86L13522.1298,-3474.9664L13522.1298,-3475.2865"/>
<path content="AP030,1,28,1,0,16,1,4,JPN" xlink:title="AP030" d="M13522.2961,-3474.6826L13522.1802,-3474.7665L13522.0398,-3474.8932L13521.9696,-3475.1667L13521.8994,-3475.5798L13521.6995,-3476.1932L13521.6206,-3476.5296"/>
<path content="AP030,1,28,1,0,15,1,8,JPN" xlink:title="AP030" d="M13522.9706,-3474.4801L13523.2986,-3474.9546L13524.0692,-3475.4597L13524.8398,-3475.8385L13525.1175,-3476.1162L13525.3647,-3476.2173L13525.8591,-3476.2173L13526.3214,-3476.4191L13526.5686,-3476.6212L13526.9699,-3476.672L13527.1851,-3476.6972L13527.2476,-3476.7979L13527.092,-3476.9749L13526.9073,-3477.1767L13527.0004,-3477.3281L13527.2156,-3477.3788L13527.4323,-3477.1767L13527.771,-3476.9241L13527.9572,-3476.9241L13528.0487,-3477.1515L13528.0487,-3477.4548L13528.2654,-3477.581L13528.5431,-3477.6062L13528.6667,-3477.7069L13528.7277,-3477.808L13528.8605,-3478.0132"/>
<path content="AP030,1,28,1,0,16,1,4,JPN" xlink:title="AP030" d="M13522.6501,-3474.4267L13522.2961,-3474.6826"/>
<path content="AP030,1,28,1,0,16,1,8,JPN" xlink:title="AP030" d="M13521.8597,-3474.3866L13521.8994,-3474.44L13521.9894,-3474.4801L13522.02,-3474.5335L13521.8796,-3474.5533L13521.8796,-3474.5865L13521.9299,-3474.6597L13522.02,-3474.7131L13522.0795,-3474.7131L13522.1298,-3474.6597L13522.1298,-3474.5667L13522.29,-3474.44L13522.3297,-3474.4598L13522.2961,-3474.6826"/>
<path content="AP030,1,28,1,0,16,1,8,JPN" xlink:title="AP030" d="M13522.7402,-3474.3732L13522.9004,-3474.4801L13522.9706,-3474.4801"/>
<path content="AP030,1,28,1,0,16,1,8,JPN" xlink:title="AP030" d="M13522.6501,-3474.4267L13522.7402,-3474.3732"/>
<path content="AP030,1,28,1,0,16,1,8,JPN" xlink:title="AP030" d="M13522.6105,-3474.2798L13522.7402,-3474.3732"/>
<path content="AP030,1,28,1,0,16,1,8,JPN" xlink:title="AP030" d="M13521.8597,-3474.3866L13521.8994,-3474.3534L13522.11,-3474.3534L13522.2397,-3474.2599L13522.3801,-3474.2798L13522.4503,-3474.3332L13522.6105,-3474.2798"/>
<path content="AP030,1,28,1,0,16,1,8,JPN" xlink:title="AP030" d="M13509.1095,-3474.7334L13509.1095,-3474.5667L13509.0805,-3474.44L13508.9401,-3474.2161L13508.9005,-3474.1531"/>
<path content="AP030,1,28,1,0,15,1,8,JPN" xlink:title="AP030" d="M13507.1625,-3474.1398L13508.0032,-3474.369L13508.4229,-3474.4263L13508.9005,-3474.1531"/>
<path content="AP030,1,28,1,0,15,1,8,JPN" xlink:title="AP030" d="M13502.948,-3475.1797L13503.6591,-3474.5983L13504.7791,-3474.3114L13506.041,-3474.3114L13506.6711,-3474.197L13507.1625,-3474.1398"/>
<path content="AP030,1,28,1,0,16,1,8,JPN" xlink:title="AP030" d="M13522.6105,-3474.2798L13522.4503,-3474.2268L13522.3801,-3474.1932L13522.3801,-3474.1333L13522.4503,-3474.1199L13522.5601,-3474.1531L13522.7402,-3474.1734L13522.8607,-3474.1531"/>
<path content="AP030,1,28,1,0,16,1,8,JPN" xlink:title="AP030" d="M13522.9706,-3474.4801L13522.9706,-3474.3L13523.0606,-3474.1333L13523.0804,-3474.0131L13522.9919,-3473.9838"/>
<path content="AP030,1,28,1,0,16,1,8,JPN" xlink:title="AP030" d="M13522.8607,-3474.1531L13522.9507,-3474.0467L13522.9919,-3473.9838"/>
<path content="AP030,1,28,1,0,16,1,8,JPN" xlink:title="AP030" d="M13522.8607,-3474.1531L13522.7402,-3474.0799L13522.6807,-3473.9933L13522.7402,-3473.9399L13522.8607,-3473.9399L13522.9919,-3473.9838"/>
<path content="AP030,1,28,1,0,15,1,8,JPN" xlink:title="AP030" d="M13501.0027,-3473.8667L13501.3565,-3474.1085L13502.1866,-3474.8802L13502.948,-3475.1797"/>
<path content="AP030,1,28,1,0,15,1,8,JPN" xlink:title="AP030" d="M13501.0027,-3473.8667L13500,-3474.7221"/>
<path content="AP030,1,28,1,0,14,1,8,JPN" xlink:title="AP030" d="M13535.1563,-3475.0566L13535.1501,-3475.0534L13534.5398,-3474.6933L13534.4498,-3474.6597L13533.9294,-3474.4598L13533.9294,-3474.3389L13533.9294,-3473.9464L13533.9294,-3473.8335"/>
<path content="AP030,1,28,1,0,14,1,8,JPN" xlink:title="AP030" d="M13533.2199,-3473.8132L13533.7006,-3473.8335L13533.9294,-3473.8335"/>
<path content="AP030,1,28,1,0,15,1,8,JPN" xlink:title="AP030" d="M13531.4423,-3477.3788L13531.6025,-3476.5884L13531.6864,-3476.3962L13531.8024,-3476.1337L13532.4829,-3476.0498L13532.7835,-3475.7622L13532.9575,-3475.2777L13533.0963,-3474.8947L13533.168,-3474.2725L13533.2047,-3473.9513L13533.2199,-3473.8132"/>
<path content="AP030,1,28,1,0,16,1,8,JPN" xlink:title="AP030" d="M13522.9919,-3473.9838L13523.0194,-3473.9399L13523.1094,-3473.7732L13523.1995,-3473.6668L13523.2758,-3473.6629L13523.4695,-3473.6534"/>
<path content="AP030,1,28,1,0,15,1,8,JPN" xlink:title="AP030" d="M13500.647,-3473.6237L13501.0027,-3473.8667"/>
<path content="AP030,1,28,1,0,15,1,8,JPN" xlink:title="AP030" d="M13500,-3474.1497L13500,-3474.1497L13500.0854,-3474.1398L13500.647,-3473.6237"/>
<path content="AP030,1,28,1,0,14,1,8,JPN" xlink:title="AP030" d="M13533.9294,-3473.8335L13534.1507,-3473.8132L13534.4299,-3473.7732L13534.79,-3473.7198L13535.1562,-3473.6658"/>
<path content="AP030,1,28,1,0,15,1,8,JPN" xlink:title="AP030" d="M13507.1625,-3474.1398L13507.5821,-3473.5088"/>
<path content="AP030,1,28,1,0,15,1,8,JPN" xlink:title="AP030" d="M13501.5566,-3473.3941L13501.0027,-3473.8667"/>
<path content="AP030,1,28,1,0,15,1,8,JPN" xlink:title="AP030" d="M13500.647,-3473.6237L13501.207,-3473.5088L13501.5564,-3473.394L13501.5566,-3473.3941"/>
<path content="AP030,1,28,1,0,14,1,8,JPN" xlink:title="AP030" d="M13531.3599,-3473.3265L13531.6498,-3473.3997L13532.2006,-3473.5397L13532.4295,-3473.5931L13532.6096,-3473.6534L13532.9697,-3473.7598L13533.1802,-3473.7934L13533.2199,-3473.8132"/>
<path content="AP030,1,28,1,0,15,1,8,JPN" xlink:title="AP030" d="M13528.7201,-3476.2466L13528.9917,-3475.5497L13529.0054,-3475.5154L13529.1061,-3475.2647L13529.5639,-3474.7524L13530.484,-3474.4476L13531.0883,-3474.2439L13531.1951,-3474.0334L13531.2836,-3473.8586L13531.3324,-3473.5222L13531.3599,-3473.3265"/>
<path content="AP030,1,28,1,0,15,1,8,JPN" xlink:title="AP030" d="M13517.0197,-3473.2735L13517.5125,-3473.3253L13518.161,-3473.394L13518.4418,-3473.394L13518.7912,-3473.8529L13518.8614,-3474.0822L13519.4229,-3474.2542L13519.7723,-3474.6555L13520.1935,-3474.6555L13520.5429,-3474.5983L13520.8939,-3474.5411L13521.1731,-3474.7131L13521.8597,-3474.3866"/>
<path content="AP030,1,28,1,0,16,1,4,JPN" xlink:title="AP030" d="M13516.0474,-3475.4461L13516.04,-3475.3597L13516.04,-3475.1266L13516.04,-3474.9134L13516.04,-3474.7997L13516.1301,-3474.6399L13516.3101,-3474.3866L13516.3803,-3474.2599L13516.6504,-3473.8132L13517.0197,-3473.2735"/>
<path content="AP030,1,28,1,0,15,1,8,JPN" xlink:title="AP030" d="M13515.8798,-3473.0732L13516.4795,-3473.1075L13517.0197,-3473.2735"/>
<path content="AP030,1,28,1,0,14,1,8,JPN" xlink:title="AP030" d="M13515.5186,-3475.4967L13515.5594,-3475.4532L13515.6296,-3475.4131L13515.6296,-3475.3468L13515.5197,-3475.1465L13515.4907,-3474.9664L13515.4907,-3474.8932L13515.7394,-3474.6399L13515.8997,-3474.5335L13515.9302,-3474.44L13515.86,-3474.2599L13515.86,-3474.0665L13515.86,-3473.8865L13515.8295,-3473.7064L13515.8295,-3473.6668L13515.8295,-3473.56L13515.86,-3473.3467L13515.8798,-3473.0732"/>
<path content="AP030,1,28,1,0,16,1,8,JPN" xlink:title="AP030" d="M13508.9005,-3474.1531L13508.8104,-3474.0131L13508.5403,-3473.5931L13508.4702,-3473.4135L13508.4503,-3473.1998L13508.4503,-3473.0198"/>
<path content="AP030,1,28,1,0,15,1,8,JPN" xlink:title="AP030" d="M13507.5821,-3473.5088L13508.4503,-3473.0198"/>
<path content="AP030,1,28,1,0,16,1,8,JPN" xlink:title="AP030" d="M13512.6099,-3472.8733L13512.6404,-3472.9073L13512.7396,-3473.0198L13512.8601,-3473.1068L13512.8998,-3473.2533L13512.8799,-3473.3799L13512.8098,-3473.4333L13512.6495,-3473.6668L13512.6495,-3473.9532L13512.7396,-3474.1734L13512.8296,-3474.3198L13513.0203,-3474.44L13514.1296,-3475.2865L13514.3097,-3475.3799L13514.5203,-3475.4868L13514.83,-3475.5398L13515.2893,-3475.5798L13515.4907,-3475.5917"/>
<path content="AP030,1,28,1,0,15,1,8,JPN" xlink:title="AP030" d="M13508.9005,-3474.1531L13508.9645,-3474.1364L13510.2448,-3473.7953L13511.1893,-3473.3906L13511.7157,-3473.1647L13512.1735,-3473.0152L13512.4252,-3472.9332L13512.6099,-3472.8733"/>
<path content="AP030,1,28,1,0,15,1,8,JPN" xlink:title="AP030" d="M13502.2014,-3472.844L13501.5566,-3473.3941"/>
<path content="AP030,1,28,1,0,16,1,8,JPN" xlink:title="AP030" d="M13512.4893,-3472.7867L13512.6099,-3472.8733"/>
<path content="AP030,1,28,1,0,15,1,8,JPN" xlink:title="AP030" d="M13523.4695,-3473.6534L13524.0463,-3472.7058"/>
<path content="AP030,1,28,1,0,15,1,8,JPN" xlink:title="AP030" d="M13513.9572,-3472.1897L13514.3784,-3472.6486L13514.5203,-3472.739L13515.0085,-3473.0499L13515.4282,-3473.1647L13515.8798,-3473.0732"/>
<path content="AP030,1,28,1,0,15,1,8,JPN" xlink:title="AP030" d="M13512.6099,-3472.8733L13512.9471,-3472.7173L13513.2004,-3472.5998L13513.4674,-3472.4766L13513.9572,-3472.1897"/>
<path content="AP030,1,28,1,0,16,1,4,JPN" xlink:title="AP030" d="M13511.4899,-3472.1199L13512.1094,-3472.5334L13512.4893,-3472.7867"/>
<path content="AP030,1,28,1,0,16,1,8,JPN" xlink:title="AP030" d="M13511.0199,-3471.6133L13511.3098,-3471.9398L13511.4899,-3472.1199"/>
<path content="AP030,1,28,1,0,14,1,8,JPN" xlink:title="AP030" d="M13515.8798,-3473.0732L13515.8997,-3472.9866L13515.9302,-3472.8931L13515.9302,-3472.7665L13515.9302,-3472.6398L13515.8997,-3472.6067L13515.86,-3472.4998L13515.8096,-3472.4266L13515.8295,-3472.2797L13515.86,-3472.2466L13515.9302,-3472.0264L13516.0202,-3471.5935"/>
<path content="AP030,1,28,1,0,15,1,8,JPN" xlink:title="AP030" d="M13513.9572,-3472.1897L13514.3784,-3471.7884L13514.5599,-3471.7884L13515.0787,-3471.7884L13515.4984,-3471.7884L13516.0202,-3471.5935"/>
<path content="AP030,1,28,1,0,15,1,8,JPN" xlink:title="AP030" d="M13511.0199,-3471.6133L13512.0667,-3471.5591L13512.9761,-3471.7884L13513.5376,-3471.9604L13513.9572,-3472.1897"/>
<path content="AP030,1,28,1,0,15,1,8,JPN" xlink:title="AP030" d="M13504.6402,-3471.4443L13505.7602,-3472.0753L13506.7413,-3472.8779L13507.5821,-3473.5088"/>
<path content="AP030,1,28,1,0,15,1,8,JPN" xlink:title="AP030" d="M13501.5566,-3473.3941L13502.1881,-3473.6237L13502.7481,-3473.6237L13503.0289,-3473.4516L13503.5889,-3472.7634L13504.6402,-3471.4443"/>
<path content="AP030,1,28,1,0,14,1,8,JPN" xlink:title="AP030" d="M13524.6094,-3471.4333L13525.3296,-3471.6331L13525.6104,-3471.7068L13525.7202,-3471.7068L13525.9506,-3471.74L13526.2405,-3471.7934L13526.3596,-3471.8334L13526.4297,-3471.8864L13526.5503,-3471.9357L13526.7395,-3472.0135L13527.0401,-3472.1001L13527.15,-3472.1333L13527.4307,-3472.2267L13528.1296,-3472.4266L13528.3295,-3472.4998L13528.7903,-3472.6398L13529.2404,-3472.8001L13529.3106,-3472.8199L13529.8096,-3472.9668L13530.0201,-3473.04L13530.2704,-3473.1068L13530.7404,-3473.1998L13531.1798,-3473.2864L13531.3599,-3473.3265"/>
<path content="AP030,1,28,1,0,15,1,8,JPN" xlink:title="AP030" d="M13524.0463,-3472.7058L13524.2447,-3472.2565L13524.4339,-3471.8311L13524.6094,-3471.4333"/>
<path content="AP030,1,28,1,0,15,1,8,JPN" xlink:title="AP030" d="M13500,-3472.8607L13500,-3472.8607L13500.647,-3473.6237"/>
<path content="AP030,1,28,1,0,16,1,4,JPN" xlink:title="AP030" d="M13517.0197,-3473.2735L13517.2195,-3472.9465L13517.3294,-3472.8001L13517.4301,-3472.6799L13518.0801,-3472.1931L13518.3105,-3472.0135L13518.6096,-3471.74L13518.9301,-3471.4001L13519.1101,-3471.1266L13519.2398,-3470.8401L13519.3298,-3470.7134L13519.4412,-3470.6161L13519.5602,-3470.5132"/>
<path content="AP030,1,28,1,0,16,1,8,JPN" xlink:title="AP030" d="M13526.5396,-3470.48L13526.7563,-3470.5181L13527.5604,-3470.66"/>
<path content="AP030,1,28,1,0,15,1,8,JPN" xlink:title="AP030" d="M13519.6182,-3470.4071L13522.464,-3472.0428L13524.0463,-3472.7058"/>
<path content="AP030,1,28,1,0,16,1,8,JPN" xlink:title="AP030" d="M13519.5602,-3470.5132L13519.6182,-3470.4071"/>
<path content="AP030,1,28,1,0,14,1,8,JPN" xlink:title="AP030" d="M13522.4701,-3470.3533L13522.8104,-3470.4266L13523.0194,-3470.5334L13523.2697,-3470.6066L13523.3994,-3470.66L13523.4299,-3470.66L13524.0204,-3470.9667L13524.1302,-3470.9866L13524.3103,-3471.0732L13524.6796,-3471.0934L13524.6994,-3471.0934L13525.1801,-3471.1266L13525.47,-3471.1468L13525.6302,-3471.1468L13525.9705,-3471.1468L13526.2405,-3471.1266L13526.4694,-3471.0934L13526.6098,-3471.0934L13526.8158,-3471.1208L13526.86,-3471.1266L13527.2003,-3471.1998L13527.4307,-3471.2532L13527.5406,-3471.2734L13527.7893,-3471.3799L13527.8595,-3471.4001L13528.36,-3471.6534L13528.6301,-3471.8132L13528.8605,-3471.9398L13529.0802,-3472.0467L13529.2892,-3472.1333L13529.5197,-3472.2466L13529.5593,-3472.2599L13529.9698,-3472.44L13530.3299,-3472.5666L13530.5801,-3472.6398L13530.8594,-3472.7333L13531.1493,-3472.8397L13531.3293,-3472.9267L13531.5201,-3473.0198L13531.6803,-3473.0732L13531.9305,-3473.1464L13532.2906,-3473.2533L13532.6294,-3473.3265L13532.6797,-3473.3467L13533.1299,-3473.3799L13533.1802,-3473.3799L13533.3099,-3473.3799L13533.5403,-3473.3799L13533.9706,-3473.3601L13534.2697,-3473.3467L13534.3597,-3473.3467L13534.4696,-3473.3265L13534.6298,-3473.2533L13534.9304,-3473.0934L13535.08,-3472.9866L13535.1562,-3472.9307"/>
<path content="AP030,1,28,1,0,14,1,8,JPN" xlink:title="AP030" d="M13524.6094,-3471.4333L13524.3301,-3471.3467L13524.0204,-3471.2532L13523.3994,-3471.04L13523.2193,-3470.9866L13522.7203,-3470.8401L13522.6807,-3470.8199L13522.58,-3470.66L13522.5739,-3470.6432L13522.4701,-3470.3533"/>
<path content="AP030,1,28,1,0,15,1,8,JPN" xlink:title="AP030" d="M13519.4901,-3470.3335L13519.6182,-3470.4071"/>
<path content="AP030,1,28,1,0,16,1,8,JPN" xlink:title="AP030" d="M13519.3802,-3470.4067L13519.4901,-3470.3335"/>
<path content="AP030,1,28,1,0,16,1,8,JPN" xlink:title="AP030" d="M13523.5397,-3470.2999L13523.7701,-3470.4266L13523.9502,-3470.5532L13524.1302,-3470.66L13524.4507,-3470.7867L13524.6796,-3470.8401L13524.8993,-3470.8935"/>
<path content="AP030,1,28,1,0,15,1,8,JPN" xlink:title="AP030" d="M13523.5397,-3470.2999L13524.6017,-3470.2892L13525.47,-3470.4147L13525.9293,-3470.4773L13526.5396,-3470.48"/>
<path content="AP030,1,28,1,0,16,1,8,JPN" xlink:title="AP030" d="M13522.464,-3470.2267L13522.4701,-3470.3533"/>
<path content="AP030,1,28,1,0,16,1,8,JPN" xlink:title="AP030" d="M13522.464,-3470.2267L13522.5403,-3470.2267L13522.7203,-3470.2465L13522.8104,-3470.2465L13522.9294,-3470.3533L13523.0804,-3470.48L13523.1506,-3470.5334L13523.3093,-3470.5532L13523.4497,-3470.6066L13524.0204,-3470.8599L13524.3301,-3471.0197L13524.6994,-3471.04L13525.1297,-3471.04L13525.8102,-3471.0934L13526.5594,-3471.04L13526.8127,-3471.0762L13526.9302,-3471.0934L13527.24,-3471.1468L13527.5192,-3471.22L13527.8595,-3471.3467L13528.1097,-3471.4535L13528.6804,-3471.74L13529.2404,-3472.0467L13529.7699,-3472.2797L13530.1498,-3472.44L13530.5801,-3472.5666L13530.9296,-3472.6799L13531.3995,-3472.8733L13531.9305,-3473.0934L13532.2693,-3473.1998L13532.6492,-3473.2735L13532.8598,-3473.2864L13533.1802,-3473.3265L13533.2703,-3473.3467L13533.7402,-3473.3265L13534.2896,-3473.2735L13534.4894,-3473.2533L13534.6802,-3473.18L13534.8602,-3473.0534L13535.1562,-3472.8675"/>
<path content="AP030,1,28,1,0,16,1,8,JPN" xlink:title="AP030" d="M13508.8806,-3470.1534L13509.61,-3470.6066L13510.0403,-3470.9465L13510.4004,-3471.1666L13510.6506,-3471.3264L13511.0199,-3471.6133"/>
<path content="AP030,1,28,1,0,15,1,8,JPN" xlink:title="AP030" d="M13504.6402,-3471.4443L13505.2704,-3471.043L13506.1111,-3470.6417L13506.3919,-3470.4697L13506.5796,-3470.0268"/>
<path content="AP030,1,28,1,0,16,1,4,JPN" xlink:title="AP030" d="M13519.3802,-3470.4067L13519.2505,-3470.4983L13519.2001,-3470.5334L13518.9499,-3470.5334L13518.7698,-3470.48L13518.4296,-3470.3732L13518.2205,-3470.3533L13517.5598,-3470.2801L13517.1997,-3470.1733L13516.9006,-3469.9932L13516.6794,-3469.9398"/>
<path content="AP030,1,28,1,0,16,1,8,JPN" xlink:title="AP030" d="M13516.4505,-3469.8868L13516.5604,-3469.92L13516.6794,-3469.9398"/>
<path content="AP030,1,28,1,0,14,1,8,JPN" xlink:title="AP030" d="M13516.0202,-3471.5935L13515.9897,-3471.5065L13515.8997,-3471.4001L13515.8997,-3471.1666L13515.86,-3470.9465L13515.8798,-3470.8733L13515.95,-3470.8401L13516.0202,-3470.8199L13516.0202,-3470.7466L13515.9698,-3470.6799L13515.9698,-3470.5868L13516.2399,-3470.3533L13516.2399,-3470.2999L13516.2399,-3470.2465L13516.2704,-3470.1733L13516.3605,-3470.1L13516.4307,-3470.0268L13516.4505,-3469.8868"/>
<path content="AP030,1,28,1,0,16,1,8,JPN" xlink:title="AP030" d="M13522.4304,-3469.5801L13522.6105,-3469.6533L13522.7402,-3469.7067L13522.8302,-3469.7399L13523.2407,-3469.7067L13523.3307,-3469.7933L13523.5397,-3470.2999"/>
<path content="AP030,1,28,1,0,16,1,8,JPN" xlink:title="AP030" d="M13522.4304,-3469.5801L13522.464,-3470.2267"/>
<path content="AP030,1,28,1,0,16,1,8,JPN" xlink:title="AP030" d="M13522.02,-3469.5599L13522.4304,-3469.5801"/>
<path content="AP030,1,28,1,0,16,1,8,JPN" xlink:title="AP030" d="M13522.02,-3469.5599L13522.2,-3469.5599L13522.4304,-3469.5801"/>
<path content="AP030,1,28,1,0,16,1,8,JPN" xlink:title="AP030" d="M13508.4503,-3473.0198L13508.5403,-3472.7333L13508.6304,-3472.5132L13508.7006,-3472.3866L13508.9493,-3472.1199L13509.1995,-3471.7934L13509.2697,-3471.5935L13509.2896,-3471.4001L13509.2407,-3471.2532L13509.1293,-3471.0934L13508.9294,-3470.9866L13508.58,-3470.8199L13508.3801,-3470.6799L13508.1802,-3470.5334L13507.8598,-3470.1935L13507.7393,-3469.9532L13507.5607,-3469.5267L13507.5546,-3469.5171"/>
<path content="AP030,1,28,1,0,16,1,8,JPN" xlink:title="AP030" d="M13506.5796,-3470.0268L13507.0404,-3470.0466L13507.2403,-3469.9932L13507.4295,-3469.7399L13507.5394,-3469.5267L13507.5546,-3469.5171"/>
<path content="AP030,1,28,1,0,16,1,8,JPN" xlink:title="AP030" d="M13507.5546,-3469.5171L13507.6797,-3469.4332L13507.7393,-3469.4134L13507.8293,-3469.3798L13508.0597,-3469.4332L13508.5205,-3469.6335L13508.6502,-3469.7399L13508.7692,-3470.0466L13508.8806,-3470.1534"/>
<path content="AP030,1,28,1,0,16,1,8,JPN" xlink:title="AP030" d="M13527.5604,-3470.66L13527.33,-3469.6133L13527.3605,-3469.5599L13527.5406,-3469.5065L13527.6306,-3469.4332L13527.6505,-3469.3798"/>
<path content="AP030,1,28,1,0,14,1,8,JPN" xlink:title="AP030" d="M13516.4505,-3469.8868L13516.4474,-3469.87L13516.4001,-3469.6335L13516.4307,-3469.5267L13516.5207,-3469.4668L13516.5405,-3469.3066L13516.5604,-3469.2734"/>
<path content="AP030,1,28,1,0,16,1,8,JPN" xlink:title="AP030" d="M13513.2202,-3469.2532L13513.2904,-3469.3268L13513.4003,-3469.4332L13513.4293,-3469.5065L13513.5605,-3469.5801L13513.8992,-3469.6865L13514.1296,-3469.7067L13514.3799,-3469.7201L13514.5981,-3469.6827L13514.7705,-3469.6533L13514.9994,-3469.6209L13515.2893,-3469.5801L13515.4907,-3469.5934L13515.5807,-3469.6133L13515.77,-3469.6667L13515.86,-3469.7067L13516.2399,-3469.8421L13516.4505,-3469.8868"/>
<path content="AP030,1,28,1,0,15,1,8,JPN" xlink:title="AP030" d="M13508.8806,-3470.1534L13509.5444,-3469.4374L13510.3851,-3468.9789L13510.9894,-3468.9667"/>
<path content="AP030,1,28,1,0,16,1,8,JPN" xlink:title="AP030" d="M13510.9894,-3468.9667L13511.2396,-3468.9667L13511.3297,-3469.0201L13511.4304,-3469.1265L13511.5204,-3469.1666L13511.6302,-3469.1666L13511.7905,-3469.0735L13511.8805,-3469.0735L13511.9507,-3469.0933L13512.1094,-3469.1998L13512.2894,-3469.2532L13512.4298,-3469.2734L13512.6099,-3469.3066L13512.7396,-3469.3268L13512.8998,-3469.3268L13513.06,-3469.3268L13513.2202,-3469.2532"/>
<path content="AP030,1,28,1,0,14,1,8,JPN" xlink:title="AP030" d="M13522.4701,-3470.3533L13522.11,-3470.2465L13521.9498,-3470.2465L13521.8796,-3470.2465L13521.5607,-3470.1733L13521.08,-3469.9932L13520.8282,-3469.9024L13520.5795,-3469.8132L13519.6503,-3469.2783L13519.6304,-3469.2532L13519.8532,-3468.9426"/>
<path content="AP030,1,28,1,0,16,1,8,JPN" xlink:title="AP030" d="M13507.5546,-3469.5171L13507.4005,-3469.2734L13507.3593,-3469.1998L13507.1442,-3468.9091"/>
<path content="AP030,1,28,1,0,15,1,8,JPN" xlink:title="AP030" d="M13506.5796,-3470.0268L13507.1442,-3468.9091"/>
<path content="AP030,1,28,1,0,15,1,8,JPN" xlink:title="AP030" d="M13516.7694,-3468.84L13517.1539,-3469.1956L13519.4901,-3470.3335"/>
<path content="AP030,1,28,1,0,14,1,8,JPN" xlink:title="AP030" d="M13516.5604,-3469.2734L13516.6504,-3469.1265L13516.7206,-3468.9465L13516.7694,-3468.84"/>
<path content="AP030,1,28,1,0,16,1,8,JPN" xlink:title="AP030" d="M13519.9295,-3468.7332L13520.0806,-3468.9465L13520.2393,-3469.1666L13520.3094,-3469.3268L13520.4498,-3469.4866L13520.6802,-3469.6335L13521.4005,-3469.9398L13521.8796,-3470.1199L13522.1497,-3470.1733L13522.4304,-3470.2267L13522.464,-3470.2267"/>
<path content="AP030,1,28,1,0,14,1,8,JPN" xlink:title="AP030" d="M13519.8532,-3468.9426L13519.9295,-3468.7332"/>
<path content="AP030,1,28,1,0,16,1,8,JPN" xlink:title="AP030" d="M13527.5604,-3470.66L13527.6093,-3470.7134L13527.6794,-3470.7333L13527.9495,-3470.7867L13528.3295,-3470.8199L13528.6804,-3470.8401L13529.9301,-3471.0934L13530.3604,-3471.1998L13531.72,-3471.4535L13532.5195,-3471.6133L13532.7393,-3471.6534L13533.0399,-3471.6534L13533.3603,-3471.6331L13533.8593,-3471.5065L13534.1095,-3471.4333L13534.3796,-3471.2734L13534.6497,-3471.1468L13534.8801,-3470.9133L13535.1562,-3470.6947"/>
<path content="AP030,1,28,1,0,14,1,8,JPN" xlink:title="AP030" d="M13519.9295,-3468.7332L13519.9295,-3468.5867L13519.9295,-3468.5333L13519.8105,-3468.4601"/>
<path content="AP030,1,28,1,0,16,1,8,JPN" xlink:title="AP030" d="M13519.9295,-3468.7332L13519.8105,-3468.4601"/>
<path content="AP030,1,28,1,0,16,1,8,JPN" xlink:title="AP030" d="M13502.15,-3468.4399L13502.2705,-3468.5135L13502.4902,-3468.5867L13502.7206,-3468.6398L13502.9907,-3468.6398L13503.27,-3468.7134L13503.4897,-3468.7668L13503.6499,-3468.8198L13503.9902,-3469.0399L13504.3793,-3469.2532L13504.8096,-3469.5065L13505.2002,-3469.6533L13505.4306,-3469.7598L13505.7693,-3469.8868L13506.2698,-3469.9932L13506.5796,-3470.0268"/>
<path content="AP030,1,28,1,0,14,1,8,JPN" xlink:title="AP030" d="M13518.1168,-3468.1927L13518.3304,-3468.28L13518.5806,-3468.3334L13518.8995,-3468.3334L13519.2398,-3468.3334L13519.4901,-3468.3735L13519.6503,-3468.4067L13519.8105,-3468.4601"/>
<path content="AP030,1,28,1,0,16,1,8,JPN" xlink:title="AP030" d="M13518.1168,-3468.1927L13518.2205,-3468.3735L13518.2907,-3468.4265L13518.3807,-3468.4601L13519.0399,-3468.4601L13519.5602,-3468.4601L13519.8105,-3468.4601"/>
<path content="AP030,1,28,1,0,14,1,8,JPN" xlink:title="AP030" d="M13518.0206,-3468.1534L13518.1168,-3468.1927"/>
<path content="AP030,1,28,1,0,14,1,8,JPN" xlink:title="AP030" d="M13518.0206,-3468.1534L13518.1503,-3468.4067L13518.2404,-3468.4601L13518.4494,-3468.5333L13518.8797,-3468.6398L13519.1803,-3468.6398L13519.4901,-3468.66L13519.6304,-3468.7134L13519.7205,-3468.7332L13519.8303,-3468.8599L13519.8532,-3468.9426"/>
<path content="AP030,1,28,1,0,15,1,8,JPN" xlink:title="AP030" d="M13515.1306,-3468.1L13516.124,-3468.816L13516.5604,-3469.2734"/>
<path content="AP030,1,28,1,0,15,1,8,JPN" xlink:title="AP030" d="M13513.2202,-3469.2532L13513.2904,-3469.2532L13513.3438,-3469.2444L13513.4903,-3469.22L13513.7207,-3469.2532L13513.8107,-3469.2532L13513.9297,-3469.1998L13514.0182,-3469.0746L13514.0793,-3468.9865L13514.1998,-3468.8934L13514.2395,-3468.8934L13514.4302,-3468.9133L13514.5203,-3468.9465L13514.6301,-3468.9266L13514.7903,-3468.7668L13514.9002,-3468.5532L13515.1505,-3468.4265L13515.1993,-3468.3201L13515.1306,-3468.1"/>
<path content="AP030,1,28,1,0,15,1,8,JPN" xlink:title="AP030" d="M13500.1801,-3467.9733L13500.9262,-3469.0933L13501.6968,-3469.7243L13503.1677,-3470.5269L13504.0787,-3470.9858L13504.6402,-3471.4443"/>
<path content="AP030,1,28,1,0,16,1,8,JPN" xlink:title="AP030" d="M13500,-3468.0309L13500,-3468.0309L13500.1801,-3467.9733"/>
<path content="AP030,1,28,1,0,16,1,8,JPN" xlink:title="AP030" d="M13520.2927,-3467.894L13520.1935,-3468.19L13520.1141,-3468.4231L13520.1096,-3468.5532L13520.1096,-3468.5535L13520.2393,-3468.6798L13520.5597,-3468.9133L13521.08,-3469.1467L13521.5195,-3469.3268L13522.02,-3469.5599"/>
<path content="AP030,1,28,1,0,14,1,8,JPN" xlink:title="AP030" d="M13517.3599,-3467.8867L13517.6468,-3468.1011L13517.7002,-3468.1198L13517.7704,-3468.3334"/>
<path content="AP030,1,28,1,0,14,1,8,JPN" xlink:title="AP030" d="M13516.7694,-3468.84L13516.8304,-3468.7332L13516.9296,-3468.5867L13516.9907,-3468.3735L13517.0395,-3468.2068L13517.1097,-3468.1534L13517.3599,-3467.8867"/>
<path content="AP030,1,28,1,0,16,1,8,JPN" xlink:title="AP030" d="M13502.15,-3468.4399L13501.9699,-3468.3201L13501.6098,-3467.8867L13501.4496,-3467.6132"/>
<path content="AP030,1,28,1,0,16,1,8,JPN" xlink:title="AP030" d="M13500.1801,-3467.9733L13500.9506,-3467.7399L13501.3794,-3467.6334L13501.4496,-3467.6132"/>
<path content="AP030,1,28,1,0,16,1,8,JPN" xlink:title="AP030" d="M13518.1168,-3468.1927L13517.9901,-3467.9733L13517.8604,-3467.72L13517.8299,-3467.6865L13517.8101,-3467.5598L13517.7399,-3467.3267L13517.6498,-3467.2333L13517.5201,-3467.1665L13517.4301,-3467.1066L13517.2394,-3466.9865"/>
<path content="AP030,1,28,1,0,15,1,8,JPN" xlink:title="AP030" d="M13513.5971,-3466.6195L13514.0945,-3467.2565L13514.9078,-3467.9192L13515.1306,-3468.1"/>
<path content="AP030,1,28,1,0,15,1,8,JPN" xlink:title="AP030" d="M13500.3891,-3466.5642L13500.8926,-3467.1078L13501.4496,-3467.6132"/>
<path content="AP030,1,28,1,0,14,1,8,JPN" xlink:title="AP030" d="M13517.3599,-3467.8867L13516.9006,-3467.58L13516.8808,-3467.5602L13516.6153,-3467.3527L13516.4001,-3467.2333L13516.2399,-3467.1265L13516.1316,-3467.0494L13515.6799,-3466.7866L13515.6494,-3466.7953L13515.1093,-3466.7133L13515.1367,-3466.687L13515.2893,-3466.5333"/>
<path content="AP030,1,28,1,0,15,1,8,JPN" xlink:title="AP030" d="M13500,-3466.5432L13500,-3466.5432L13500.3891,-3466.5642"/>
<path content="AP030,1,28,1,0,15,1,8,JPN" xlink:title="AP030" d="M13500.1801,-3467.9733L13500,-3467.7387L13500,-3467.7387"/>
<path content="AP030,1,28,1,0,15,1,8,JPN" xlink:title="AP030" d="M13513.1729,-3466.2735L13513.5971,-3466.6195"/>
<path content="AP030,1,28,1,0,15,1,8,JPN" xlink:title="AP030" d="M13510.9894,-3468.9667L13511.1267,-3468.7405L13511.4349,-3468.2331L13511.5051,-3467.5449L13511.5753,-3467.0288L13512.5565,-3466.5131L13513.1729,-3466.2735"/>
<path content="AP030,1,28,1,0,15,1,8,JPN" xlink:title="AP030" d="M13507.1442,-3468.9091L13507.8735,-3468.0393L13507.8766,-3468.0168L13507.9163,-3467.4519L13507.3044,-3466.8327L13506.8298,-3466.2067"/>
<path content="AP030,1,28,1,0,16,1,8,JPN" xlink:title="AP030" d="M13507.1442,-3468.9091L13506.9305,-3468.6199L13506.4896,-3468.0466L13506.4499,-3467.9398L13506.3995,-3467.8333L13506.3995,-3467.7238L13506.3995,-3467.5934L13506.4896,-3467.4332L13506.7001,-3467.1467L13506.7902,-3466.9865L13506.8604,-3466.6931L13506.8802,-3466.5333L13506.8802,-3466.3532L13506.8298,-3466.2067"/>
<path content="AP030,1,28,1,0,15,1,8,JPN" xlink:title="AP030" d="M13514.3005,-3466.1549L13514.5172,-3466.2373L13515.2893,-3466.5333"/>
<path content="AP030,1,28,1,0,15,1,8,JPN" xlink:title="AP030" d="M13513.5971,-3466.6195L13514.3005,-3466.1549"/>
<path content="AP030,1,28,1,0,16,1,8,JPN" xlink:title="AP030" d="M13501.4496,-3467.6132L13501.6098,-3467.54L13501.8799,-3467.4L13502.1103,-3467.1799L13502.2903,-3466.9865L13502.3239,-3466.9048L13502.5192,-3466.4265L13502.7695,-3466.1198"/>
<path content="AP030,1,28,1,0,15,1,8,JPN" xlink:title="AP030" d="M13500.3891,-3466.5642L13500.4822,-3466.5466L13502.7695,-3466.1198"/>
<path content="AP030,1,28,1,0,14,1,8,JPN" xlink:title="AP030" d="M13515.7394,-3466.0667L13515.9302,-3466.1533L13516.098,-3466.2731L13516.2399,-3466.3734L13516.8594,-3466.7866L13517.1997,-3466.9865L13517.4301,-3467.1665L13517.4698,-3467.1799L13517.6102,-3467.2733L13517.6498,-3467.3466L13517.6804,-3467.4866L13517.7002,-3467.58L13517.7704,-3467.72L13517.8101,-3467.8131L13517.9306,-3468.0466L13518.0206,-3468.1534"/>
<path content="AP030,1,28,1,0,14,1,8,JPN" xlink:title="AP030" d="M13515.2893,-3466.5333L13515.5258,-3466.2941L13515.5396,-3466.28L13515.7394,-3466.0667"/>
<path content="AP030,1,28,1,0,15,1,8,JPN" xlink:title="AP030" d="M13513.887,-3465.9969L13514.2441,-3466.1331L13514.3005,-3466.1549"/>
<path content="AP030,1,28,1,0,15,1,8,JPN" xlink:title="AP030" d="M13513.1729,-3466.2735L13513.5223,-3466.1385L13513.887,-3465.9969"/>
<path content="AP030,1,28,1,0,16,1,8,JPN" xlink:title="AP030" d="M13506.8298,-3466.2067L13506.6803,-3465.9931"/>
<path content="AP030,1,28,1,0,16,1,8,JPN" xlink:title="AP030" d="M13502.15,-3468.4399L13502.3804,-3468.2068L13502.6794,-3467.9932L13503.0594,-3467.7933L13503.4897,-3467.6533L13503.7003,-3467.54L13503.9307,-3467.4L13504.1794,-3467.2867L13504.2175,-3467.2756L13504.3594,-3467.2333L13504.6494,-3467.2333L13505.0201,-3467.1799L13505.4703,-3467.1066L13505.7205,-3467.0734L13505.9296,-3467.0532L13505.9906,-3467.0734L13506.2393,-3467.1066L13506.4499,-3467.1265L13506.5201,-3467.1066L13506.6101,-3467.0933L13506.7398,-3466.9865L13506.7703,-3466.84L13506.7902,-3466.6931L13506.81,-3466.4997L13506.7902,-3466.28L13506.6803,-3465.9931"/>
<path content="AP030,1,28,1,0,16,1,8,JPN" xlink:title="AP030" d="M13506.2195,-3465.5598L13506.2897,-3465.5933L13506.5399,-3465.8134L13506.6803,-3465.9931"/>
<path content="AP030,1,28,1,0,14,1,8,JPN" xlink:title="AP030" d="M13514.5798,-3465.5266L13514.8605,-3465.7066L13515.2893,-3465.8466L13515.5396,-3465.9733L13515.7394,-3466.0667"/>
<path content="AP030,1,28,1,0,15,1,8,JPN" xlink:title="AP030" d="M13513.887,-3465.9969L13514.3234,-3465.7009L13514.5798,-3465.5266"/>
<path content="AP030,1,28,1,0,16,1,8,JPN" xlink:title="AP030" d="M13514.6301,-3465.5018L13514.9307,-3465.6864L13515.3107,-3465.8134L13515.9698,-3466.1533L13516.1301,-3466.2586L13516.9296,-3466.7866L13517.2394,-3466.9865"/>
<path content="AP030,1,28,1,0,15,1,8,JPN" xlink:title="AP030" d="M13514.5798,-3465.5266L13514.6301,-3465.5018"/>
<path content="AP030,1,28,1,0,15,1,8,JPN" xlink:title="AP030" d="M13511.7203,-3465.4865L13513.1729,-3466.2735"/>
<path content="AP030,1,28,1,0,15,1,8,JPN" xlink:title="AP030" d="M13514.6301,-3465.5018L13515.1779,-3465.234L13516.5649,-3465.395L13517.5186,-3465.6292L13517.6407,-3465.918L13517.2394,-3466.9865"/>
<path content="AP030,1,28,1,0,16,1,8,JPN" xlink:title="AP030" d="M13510.8597,-3465.2332L13511.1496,-3465.4533L13511.29,-3465.5067L13511.3998,-3465.5598L13511.5204,-3465.58L13511.7203,-3465.4865"/>
<path content="AP030,1,28,1,0,15,1,8,JPN" xlink:title="AP030" d="M13506.8298,-3466.2067L13507.2739,-3466.0534L13508.1757,-3466.2151L13509.1629,-3466.3811L13509.8938,-3466.1339L13510.4126,-3466.0645L13510.8597,-3465.2332"/>
<path content="AP030,1,28,1,0,15,1,8,JPN" xlink:title="AP030" d="M13512.3795,-3465.1665L13513.887,-3465.9969"/>
<path content="AP030,1,28,1,0,16,1,8,JPN" xlink:title="AP030" d="M13511.7203,-3465.4865L13512.0407,-3465.2534L13512.1796,-3465.2L13512.3184,-3465.1768L13512.3795,-3465.1665"/>
<path content="AP030,1,28,1,0,16,1,4,JPN" xlink:title="AP030" d="M13504.9484,-3464.8479L13505.3101,-3465.0532L13506.2195,-3465.5598"/>
<path content="AP030,1,28,1,0,16,1,8,JPN" xlink:title="AP030" d="M13502.7695,-3466.1198L13503.0396,-3465.9199L13503.36,-3465.6864L13503.4698,-3465.58L13503.5797,-3465.3999L13503.7704,-3465.2332L13504.4907,-3464.9467L13504.9484,-3464.8479"/>
<path content="AP030,1,28,1,0,16,1,8,JPN" xlink:title="AP030" d="M13507.8796,-3464.8399L13507.9697,-3464.8731L13508.3801,-3464.9132L13508.9706,-3465.1665L13509.1507,-3465.2L13509.6802,-3465.1264L13510.2707,-3465.0398L13510.5804,-3465.0532L13510.8597,-3465.2332"/>
<path content="AP030,1,28,1,0,16,1,8,JPN" xlink:title="AP030" d="M13506.6803,-3465.9931L13506.6498,-3465.6334L13506.72,-3465.4133L13506.81,-3465.2733L13507.0404,-3465.1264L13507.4295,-3464.9666L13507.8796,-3464.8399"/>
<path content="AP030,1,28,1,0,16,1,8,JPN" xlink:title="AP030" d="M13513.2706,-3464.64L13513.4293,-3464.6797L13514.3799,-3465.3465L13514.6301,-3465.5018"/>
<path content="AP030,1,28,1,0,14,1,8,JPN" xlink:title="AP030" d="M13513.2706,-3464.64L13514.5798,-3465.5266"/>
<path content="AP030,1,28,1,0,16,1,8,JPN" xlink:title="AP030" d="M13512.3795,-3465.1665L13512.6297,-3465.0932L13513.0203,-3464.9666L13513.06,-3464.9132L13513.0661,-3464.8968L13513.1302,-3464.7331L13513.2706,-3464.64"/>
<path content="AP030,1,28,1,0,16,1,8,JPN" xlink:title="AP030" d="M13504.9484,-3464.8479L13505.0797,-3464.8197L13505.1804,-3464.7865L13505.4001,-3464.6935L13505.6107,-3464.6198L13505.8807,-3464.64L13506.2195,-3464.7331L13506.7703,-3464.6935L13507.3807,-3464.7133L13507.6294,-3464.7331L13507.8796,-3464.8399"/>
<path content="AP030,1,28,1,0,14,1,8,JPN" xlink:title="AP030" d="M13500,-3464.6946L13500,-3464.6946L13500.0198,-3464.6935L13500.1495,-3464.6797L13500.6302,-3464.64L13500.9293,-3464.5866L13500.9705,-3464.5664L13501.2695,-3464.46"/>
<path content="AP030,1,28,1,0,14,1,8,JPN" xlink:title="AP030" d="M13500,-3464.4108L13500,-3464.4108L13500.0793,-3464.4066L13500.3098,-3464.3867L13500.9705,-3464.46L13501.2695,-3464.46"/>
<path content="AP030,1,28,1,0,16,1,4,JPN" xlink:title="AP030" d="M13503.9505,-3463.6665L13503.9703,-3464.0999L13504.0207,-3464.2067L13504.1306,-3464.3532L13504.7699,-3464.7465L13504.9484,-3464.8479"/>
<path content="AP030,1,28,1,0,16,1,8,JPN" xlink:title="AP030" d="M13503.9505,-3463.6665L13503.9337,-3463.3968L13503.9307,-3463.3266L13503.9063,-3463.1367L13503.9001,-3463.0932L13503.8528,-3462.9997"/>
<path content="AP030,1,28,1,0,14,1,8,JPN" xlink:title="AP030" d="M13501.2695,-3464.46L13501.9302,-3464.3532L13502.3605,-3464.1335L13502.5803,-3463.9935L13502.8305,-3463.8466L13503.0197,-3463.6665L13503.3096,-3463.3598L13503.6896,-3463.0859L13503.8528,-3462.9997"/>
<path content="AP030,1,28,1,0,14,1,8,JPN" xlink:title="AP030" d="M13503.8528,-3462.9997L13504.1504,-3462.8735L13504.4296,-3462.8597L13505.1102,-3462.8597L13505.5405,-3462.8597L13505.8807,-3462.7998L13506.7001,-3462.9265L13506.9901,-3463.0199L13507.4295,-3463.1664L13507.9697,-3463.2866L13508.11,-3463.3064L13508.5205,-3463.3801L13508.6182,-3463.4609L13508.7402,-3463.5597L13509.2407,-3463.5933L13509.3307,-3463.6131L13509.8297,-3463.7398L13510.1105,-3463.8466L13510.5606,-3464.1731L13510.6506,-3464.2265L13510.8307,-3464.3333L13511.1099,-3464.4264L13511.4304,-3464.4264L13511.5204,-3464.4264L13512.1109,-3464.4363L13512.3306,-3464.4398L13512.9303,-3464.46L13513.1104,-3464.5332L13513.2706,-3464.64"/>
<path content="AP030,1,28,1,0,16,1,25,JPN" xlink:title="AP030" d="M13500.6805,-3459.8667L13500.7401,-3460.0468L13503.8101,-3462.9131L13503.8528,-3462.9997"/>
<path content="AP030,1,28,1,0,15,1,8,JPN" xlink:title="AP030" d="M13500.6805,-3459.8667L13501.1505,-3459.5181L13501.5198,-3459.0401"/>
<path content="AP030,1,28,1,0,16,1,8,JPN" xlink:title="AP030" d="M13500,-3456.0932L13500,-3456.0932L13500.1099,-3456.1733L13500.8102,-3456.5132L13501.2695,-3456.8398L13501.68,-3457.2533L13501.86,-3457.6134L13501.8799,-3457.8667L13501.7899,-3458.1333L13501.7395,-3458.1932L13501.5594,-3458.4267L13501.0406,-3458.9466L13500.7706,-3459.3067L13500.6805,-3459.5398L13500.6805,-3459.8667"/>
<path content="AP030,1,28,1,0,15,1,8,JPN" xlink:title="AP030" d="M13500,-3460.0094L13500,-3460.0094L13500.6805,-3459.8667"/>
<path content="AP030,1,28,1,0,14,1,8,JPN" xlink:title="AP030" d="M13501.5198,-3459.0401L13501.77,-3458.9134L13502.0203,-3458.8932L13502.1805,-3458.6067L13502.1805,-3458.5667L13502.2003,-3458.0799L13502.3102,-3457.7732L13502.3102,-3457.5268L13502.24,-3457.3067L13501.9501,-3456.8932L13501.5396,-3456.3L13500.8102,-3455.7068L13500.2899,-3455.5599L13500.1495,-3455.5065L13500,-3455.3665L13500,-3455.3665"/>
</g>
</svg>
