<?xml version="1.0" encoding="UTF-8"?>
<svg  xmlns="http://www.w3.org/2000/svg" xmlns:xlink="http://www.w3.org/1999/xlink" xmlns:go="http://purl.org/svgmap/profile" property="f_code,acc,exs,rst,med,rtt,RSU,loc,soc" viewBox="13781.25 -3585.9375 70.3125 70.3125" go:dataArea="13781.25 -3585.9375 70.3125 70.3125" >
<metadata>
 <rdf:RDF xmlns:rdf="http://www.w3.org/1999/02/22-rdf-syntax-ns#" xmlns:crs="http://opengis.org/xmldtds/transformations.dtd" xmlns:svg="http://www.w3.org/svg" >
  <rdf:Description>
   <crs:CoordinateReferenceSystem rdf:resource="http://purl.org/crs/84" svg:transform="matrix(100.0,0.0,0.0,-100.0,0.0,0.0)" />
  </rdf:Description>
 </rdf:RDF>
</metadata>
<globalCoordinateSystem srsName="http://purl.org/crs/84" transform="matrix(100.0,0.0,0.0,-100.0,0.0,0.0)" />
<defs>
 <g id="p0" >
  <circle cx="0.0" cy="0.0" r="3" stroke="green" stroke-width="2.0" vector-effect="non-scaling-stroke" />
 </g>
</defs>
<g fill="none" fill-rule="evenodd" stroke="#00ff00" stroke-width="2" opacity="0.5" vector-effect="non-scaling-stroke" stroke-linejoin="bevel" >
<path content="AP030,1,28,1,0,14,1,8,JPN" xlink:title="AP030" d="M13828.3694,-3585.9375L13828.5202,-3585.6865L13828.7201,-3585.5267"/>
<path content="AP030,1,28,1,0,15,1,8,JPN" xlink:title="AP030" d="M13836.7096,-3585.482L13836.8179,-3585.7216L13837.1935,-3585.9375"/>
<path content="AP030,1,28,1,0,15,1,8,JPN" xlink:title="AP030" d="M13836.2654,-3585.9375L13836.7096,-3585.482"/>
<path content="AP030,1,28,1,0,16,1,8,JPN" xlink:title="AP030" d="M13793.8252,-3585.9375L13793.7195,-3585.7067L13793.6935,-3585.3561"/>
<path content="AP030,1,28,1,0,14,1,8,JPN" xlink:title="AP030" d="M13790.6211,-3585.9375L13790.77,-3585.8997L13791.6794,-3585.7399L13792.6102,-3585.5801L13793.5196,-3585.4L13793.6935,-3585.3561"/>
<path content="AP030,1,28,1,0,15,1,8,JPN" xlink:title="AP030" d="M13834.2407,-3585.2333L13835.1303,-3585.6369L13836.7096,-3585.482"/>
<path content="AP030,1,28,1,0,16,1,8,JPN" xlink:title="AP030" d="M13833.1468,-3585.9375L13833.1802,-3585.8868L13833.3603,-3585.6331L13833.5602,-3585.5064L13834.2407,-3585.2333"/>
<path content="AP030,1,28,1,0,15,1,8,JPN" xlink:title="AP030" d="M13794.2399,-3585.9375L13794.2703,-3585.22"/>
<path content="AP030,1,28,1,0,14,1,8,JPN" xlink:title="AP030" d="M13793.6935,-3585.3561L13793.9697,-3585.2867L13794.2703,-3585.22"/>
<path content="AP030,1,28,1,0,14,1,8,JPN" xlink:title="AP030" d="M13794.2703,-3585.22L13794.3802,-3585.1997L13794.6106,-3585.0933L13794.8074,-3584.9617L13794.8593,-3584.9266L13794.9493,-3584.893"/>
<path content="AP030,1,28,1,0,14,1,8,JPN" xlink:title="AP030" d="M13796.1502,-3584.1396L13796.1502,-3584.1534L13796.1807,-3584.1732L13796.4493,-3584.333L13796.5607,-3584.4398L13796.6507,-3584.5665L13796.7896,-3584.7332L13796.9299,-3584.893L13797.0596,-3585.0533L13797.1802,-3585.22L13797.1497,-3585.3466L13797.11,-3585.453L13797.1008,-3585.4683L13797.02,-3585.6133L13796.9894,-3585.7067L13797.02,-3585.7731L13797.0795,-3585.8868L13797.106,-3585.9375"/>
<path content="AP030,1,28,1,0,14,1,8,JPN" xlink:title="AP030" d="M13794.9493,-3584.893L13795.1797,-3584.7668L13795.4498,-3584.66L13795.6802,-3584.4997L13795.8099,-3584.333L13795.8603,-3584.2999L13795.9,-3584.2598L13796.0205,-3584.1949L13796.0602,-3584.1732L13796.1502,-3584.1396"/>
<path content="AP030,1,28,1,0,16,1,8,JPN" xlink:title="AP030" d="M13793.6935,-3585.3561L13793.6798,-3585.1799L13793.6295,-3584.8598L13793.5196,-3584.4601L13793.2907,-3584.1"/>
<path content="AP030,1,28,1,0,15,1,8,JPN" xlink:title="AP030" d="M13793.2907,-3584.1L13794.0659,-3584.0153L13794.9493,-3584.893"/>
<path content="AP030,1,28,1,0,15,1,8,JPN" xlink:title="AP030" d="M13798.137,-3585.9375L13798.0728,-3585.7906L13797.6746,-3585.1376L13796.7896,-3583.9931"/>
<path content="AP030,1,28,1,0,14,1,8,JPN" xlink:title="AP030" d="M13796.1502,-3584.1396L13796.3104,-3584.0797L13796.7697,-3583.9931L13796.7896,-3583.9931"/>
<path content="AP030,1,28,1,0,15,1,8,JPN" xlink:title="AP030" d="M13839.3702,-3585.9375L13839.2563,-3584.9911L13839.7781,-3584.5879L13839.7964,-3584.0462L13840.1184,-3583.7662"/>
<path content="AP030,1,28,1,0,14,1,8,JPN" xlink:title="AP030" d="M13805.7693,-3583.6864L13805.8304,-3583.72L13805.8807,-3583.7933L13806.1096,-3583.773L13806.3095,-3583.7601L13806.4301,-3583.7933L13806.8604,-3584.1732L13806.8802,-3584.1732L13807.0404,-3584.2068L13807.2403,-3584.28L13807.2693,-3584.333L13807.2403,-3584.3864L13807.2205,-3584.4799L13807.2403,-3584.5531L13807.2693,-3584.6397L13807.3303,-3584.7668L13807.5195,-3584.893L13807.5195,-3584.9266L13807.5607,-3585.0201L13807.6797,-3585.1665L13807.6996,-3585.22L13807.7194,-3585.36L13807.8094,-3585.453L13807.93,-3585.5064L13808.2001,-3585.6331L13808.2397,-3585.6533L13808.3603,-3585.6667L13808.4702,-3585.6667L13808.58,-3585.7933L13808.6888,-3585.9375"/>
<path content="AP030,1,28,1,0,14,1,8,JPN" xlink:title="AP030" d="M13796.7896,-3583.9931L13797.0795,-3583.9001L13797.7005,-3583.8467L13798.1796,-3583.8333L13799.0204,-3583.7933L13799.1806,-3583.773L13799.6796,-3583.7601L13800.0198,-3583.7601L13800.6805,-3583.773L13800.8804,-3583.7399L13800.9903,-3583.773L13801.0193,-3583.7933L13801.1505,-3583.8665L13801.3794,-3584.0134L13801.8295,-3584.0267L13802.8107,-3584.0134L13802.9907,-3583.9733L13803.1097,-3583.9733L13803.2898,-3583.9931L13803.3798,-3584.0466L13803.4698,-3584.0466L13803.6102,-3584.0267L13803.8101,-3583.9733L13804.4495,-3583.9397L13804.6097,-3583.9199L13804.7195,-3583.9531L13804.8798,-3583.9931L13805.04,-3583.9733L13805.2002,-3583.9199L13805.3802,-3583.8333L13805.5603,-3583.72L13805.6305,-3583.6864L13805.7693,-3583.6864"/>
<path content="AP030,1,28,1,0,16,1,8,JPN" xlink:title="AP030" d="M13834.2407,-3585.2333L13834.61,-3585.0533L13835.1807,-3585.0399L13835.4706,-3584.9998L13836.0596,-3584.6931L13836.5601,-3584.4799L13837.1796,-3584.4799L13837.4496,-3584.4601L13837.8601,-3584.333L13838.3804,-3583.9531L13838.7405,-3583.6334"/>
<path content="AP030,1,28,1,0,14,1,8,JPN" xlink:title="AP030" d="M13842.8957,-3585.9375L13843.0405,-3585.5801L13843.1793,-3585.0533L13843.2404,-3584.5665L13843.2693,-3584.5531L13843.3304,-3584.193L13843.3304,-3583.9531L13843.3304,-3583.6533L13843.3304,-3583.4667"/>
<path content="AP030,1,28,1,0,15,1,8,JPN" xlink:title="AP030" d="M13840.1184,-3583.7662L13841.4536,-3583.6674L13843.3304,-3583.4667"/>
<path content="AP030,1,28,1,0,15,1,8,JPN" xlink:title="AP030" d="M13839.6606,-3583.4057L13840.1184,-3583.7662"/>
<path content="AP030,1,28,1,0,15,1,8,JPN" xlink:title="AP030" d="M13796.7896,-3583.9931L13796.8201,-3582.9449L13796.7621,-3582.4318L13796.991,-3582.1053"/>
<path content="AP030,1,28,1,0,15,1,8,JPN" xlink:title="AP030" d="M13836.9217,-3582.0328L13838.7405,-3583.6334"/>
<path content="AP030,1,28,1,0,15,1,8,JPN" xlink:title="AP030" d="M13828.7201,-3585.5267L13830.1926,-3585.7281L13831.2546,-3585.7281L13831.9641,-3585.0037L13832.6721,-3583.989L13833.6456,-3583.7715L13834.6191,-3583.7715L13835.8582,-3583.699L13836.4792,-3583.1196L13836.6119,-3582.7923L13836.9217,-3582.0328"/>
<path content="AP030,1,28,1,0,15,1,8,JPN" xlink:title="AP030" d="M13783.9783,-3581.9695L13784.7076,-3581.9885L13785.1883,-3582.1499L13785.1791,-3582.3975L13785.2295,-3582.6469L13785.6033,-3582.4581L13785.7819,-3582.5623L13786.322,-3582.7251L13786.8637,-3582.888L13787.6984,-3583.3557L13788.6612,-3583.6285L13789.7415,-3584.053L13791.0187,-3584.0862L13793.2907,-3584.1"/>
<path content="AP030,1,28,1,0,15,1,8,JPN" xlink:title="AP030" d="M13808.0399,-3581.6666L13808.4015,-3582.1613L13809.0958,-3582.1785L13809.5367,-3582.8308L13809.7977,-3583.2897L13809.726,-3583.9676L13809.8892,-3584.5757L13810.0098,-3585.1067L13810.3577,-3585.7193L13810.6738,-3585.9375"/>
<path content="AP030,1,28,1,0,14,1,8,JPN" xlink:title="AP030" d="M13805.7693,-3583.6864L13805.9906,-3583.5598L13805.9692,-3583.5068L13805.8304,-3583.3797L13805.7007,-3583.2867L13805.6107,-3583.2733L13805.5405,-3583.2867L13805.4001,-3583.3065L13805.2902,-3583.3267L13805.1498,-3583.3267L13805.1804,-3583.1264L13805.4504,-3583.1264L13805.6107,-3583.02L13805.6793,-3582.9666L13805.7205,-3582.9266L13806.0806,-3582.6065L13806.1996,-3582.5535L13806.2698,-3582.4799L13806.6101,-3582.2998L13806.6803,-3582.2067L13806.8298,-3582.0267L13807.0801,-3581.9199L13807.4493,-3581.7932L13808.0399,-3581.6666"/>
<path content="AP030,1,28,1,0,14,1,8,JPN" xlink:title="AP030" d="M13828.7201,-3585.5267L13829.2694,-3585.2531L13829.4495,-3585.0399L13829.6295,-3584.7134L13829.6799,-3584.5531L13830.04,-3584.28L13830.1498,-3584.193L13830.3802,-3583.7399L13830.6107,-3583.2333L13830.6793,-3583.0532L13830.7693,-3582.9666L13830.8105,-3582.9132L13831.2698,-3582.5665L13831.4896,-3582.3734L13831.5796,-3582.2067L13831.6299,-3582.0667L13831.6498,-3582.0465L13831.72,-3582.0133L13832.1106,-3581.6868L13832.4905,-3581.2866"/>
<path content="AP030,1,28,1,0,14,1,8,JPN" xlink:title="AP030" d="M13796.1502,-3584.1396L13796.1502,-3583.9733L13796.1304,-3583.8665L13796.1105,-3583.8131L13795.9702,-3583.6864L13795.8603,-3583.5934L13795.61,-3583.5266L13795.43,-3583.5068L13795.3598,-3583.4534L13795.2896,-3583.4L13795.2194,-3583.2333L13795.0607,-3583.02L13794.9707,-3582.84L13794.9493,-3582.6935L13794.8593,-3582.46L13794.7006,-3582.2598L13794.5602,-3582.0667L13794.4702,-3581.9L13794.4,-3581.6132L13794.4,-3581.3267L13794.4305,-3580.8598"/>
<path content="AP030,1,28,1,0,15,1,8,JPN" xlink:title="AP030" d="M13794.4305,-3580.8598L13795.6497,-3580.7835L13796.6141,-3581.0558L13796.991,-3582.1053"/>
<path content="AP030,1,28,1,0,14,1,8,JPN" xlink:title="AP030" d="M13842.3096,-3579.6532L13842.6102,-3580.1533L13842.7002,-3580.5332L13842.7902,-3580.8735L13842.7902,-3580.9868L13842.8802,-3581.1466L13842.9001,-3581.2332L13842.9504,-3581.5067L13842.9703,-3581.7066L13843.0405,-3581.9401L13843.0405,-3582.2067L13843.1107,-3582.32L13843.0405,-3582.5867L13843.2007,-3583.0933L13843.3304,-3583.4667"/>
<path content="AP030,1,28,1,0,15,1,8,JPN" xlink:title="AP030" d="M13840.1184,-3583.7662L13840.2496,-3583.3546L13840.3122,-3582.6225L13840.4755,-3581.255L13840.6189,-3580.4291L13842.3096,-3579.6532"/>
<path content="AP030,1,28,1,0,14,1,8,JPN" xlink:title="AP030" d="M13842.3096,-3579.6532L13842.1097,-3579.3999L13841.8793,-3579.1267L13841.7892,-3578.8597L13841.7694,-3578.6064L13841.7694,-3578.5133L13841.7648,-3578.5019"/>
<path content="AP030,1,28,1,0,16,1,8,JPN" xlink:title="AP030" d="M13838.7405,-3583.6334L13839.1098,-3583.4L13839.1296,-3583.3065L13839.1495,-3583.2867L13839.2395,-3583.1066L13839.2197,-3582.7999L13839.2197,-3582.7133L13839.3997,-3582.32L13839.4302,-3582.2266L13839.4699,-3582.0667L13839.3295,-3581.7066L13839.3295,-3581.4533L13839.4302,-3581.1798L13839.6301,-3580.7667L13839.6103,-3580.4066L13839.5599,-3579.9732L13839.6103,-3579.76L13839.7705,-3579.5067L13839.9307,-3579.3999L13840.4907,-3579.2332L13840.7394,-3579.1664L13840.9302,-3578.9997L13841.0599,-3578.6934L13841.6107,-3578.5667L13841.7648,-3578.5019"/>
<path content="AP030,1,28,1,0,14,1,8,JPN" xlink:title="AP030" d="M13832.4905,-3581.2866L13832.8995,-3581.1268L13833.1497,-3580.9868L13833.2199,-3580.9467L13833.3603,-3580.8399L13833.8806,-3580.7133L13834.4696,-3580.64L13834.79,-3580.64L13835.1807,-3580.5134L13835.3302,-3580.3734L13835.5194,-3580.1334L13835.5804,-3579.9732L13836.0397,-3579.6665L13836.2,-3579.6131L13836.7401,-3579.5799L13837.3993,-3579.1466L13837.8998,-3578.7334L13838.0798,-3578.5332L13838.1302,-3578.5"/>
<path content="AP030,1,28,1,0,15,1,8,JPN" xlink:title="AP030" d="M13832.4905,-3581.2866L13832.518,-3580.3791L13832.0206,-3580.0491L13831.6818,-3579.6589L13832.2479,-3579.1294L13833.0734,-3579.0203L13834.1461,-3578.5339L13835.4675,-3578.8181L13836.261,-3578.4531L13837.3596,-3578.3813L13838.1302,-3578.5"/>
<path content="AP030,1,28,1,0,15,1,8,JPN" xlink:title="AP030" d="M13836.9217,-3582.0328L13837.7182,-3580.8731L13838.6917,-3579.7138L13839.0259,-3579.3713L13839.3997,-3578.989L13838.9893,-3578.0464"/>
<path content="AP030,1,28,1,0,14,1,8,JPN" xlink:title="AP030" d="M13838.1302,-3578.5L13838.9893,-3578.0464"/>
<path content="AP030,1,28,1,0,14,1,8,JPN" xlink:title="AP030" d="M13808.0399,-3581.6666L13808.1497,-3581.4865L13808.2901,-3581.2199L13808.3099,-3581.2L13808.2901,-3581.0532L13808.3298,-3580.8598L13808.3603,-3580.6934L13808.3298,-3580.64L13808.3298,-3580.4398L13808.49,-3580.2067L13808.5602,-3580.0133L13808.5602,-3579.5799L13808.6304,-3579.4666L13808.6105,-3579.3999L13808.49,-3579.3266L13808.4305,-3579.2534L13808.4,-3579.2L13808.5602,-3578.9867L13808.7006,-3578.7865L13808.7402,-3578.6198L13808.7402,-3578.5667L13808.6105,-3578.3733L13808.6502,-3578.2467L13808.58,-3578.0464L13808.4702,-3577.8667L13808.4503,-3577.7931L13808.1802,-3577.7065L13808.0597,-3577.6333L13808.0399,-3577.4864L13807.9895,-3577.4132L13807.9498,-3577.3464"/>
<path content="AP030,1,28,1,0,14,1,8,JPN" xlink:title="AP030" d="M13838.9893,-3578.0464L13839.1998,-3577.8667L13839.1998,-3577.6867L13839.1998,-3577.5066L13839.3097,-3577.2331L13839.3997,-3576.9665L13839.4302,-3576.8734L13839.65,-3576.5865L13840.1993,-3576.0998"/>
<path content="AP030,1,28,1,0,15,1,8,JPN" xlink:title="AP030" d="M13849.9465,-3585.9375L13849.5987,-3585.046L13849.7162,-3585.0487L13848.4573,-3584.3109L13847.5952,-3583.9607L13846.9254,-3582.9979L13846.373,-3582.085L13845.9518,-3581.3721L13845.5185,-3580.2151L13844.6915,-3579.1771L13844.0155,-3578.27L13844.2047,-3577.2537L13845.3094,-3575.7149L13845.7443,-3574.3847"/>
<path content="AP030,1,28,1,0,16,1,8,JPN" xlink:title="AP030" d="M13793.2907,-3584.1L13792.9703,-3583.7399L13792.8299,-3583.4667L13792.8101,-3583.0734L13792.9306,-3582.6599L13792.72,-3582.0999L13792.5797,-3581.8466L13792.7002,-3581.2534L13792.8604,-3580.8399L13792.9504,-3580.5668L13792.9703,-3579.9198L13793.1305,-3579.5399L13793.4494,-3579.1267L13793.5593,-3578.8933L13793.6096,-3578.5332L13793.4296,-3578.2467L13793.3594,-3578.08L13793.3594,-3577.7599L13793.2404,-3577.5265L13793.0603,-3577.38L13792.3996,-3577.0733L13792.1799,-3576.8398L13792.0593,-3576.5331L13792.0395,-3576.2466L13791.7206,-3575.8133L13791.5207,-3575.4868L13791.2903,-3575.2197L13791.2201,-3575.0401L13791.2201,-3574.5533L13791.1499,-3574.2268"/>
<path content="AP030,1,28,1,0,15,1,8,JPN" xlink:title="AP030" d="M13783.3832,-3577.0458L13783.5648,-3577.0504L13784.1812,-3576.8684L13784.5001,-3576.4801L13785.2402,-3576.202L13785.5042,-3575.7133L13785.8795,-3575.4257L13786.5524,-3575.3441L13787.6587,-3575.0259L13789.6912,-3574.3843L13791.1499,-3574.2268"/>
<path content="AP030,1,28,1,0,14,1,8,JPN" xlink:title="AP030" d="M13794.4305,-3580.8598L13794.4305,-3580.7865L13794.4901,-3580.2467L13794.5602,-3579.9934L13794.6106,-3579.8866L13794.6106,-3579.5601L13794.6793,-3579.2866L13794.6793,-3579.1798L13794.8303,-3578.68L13794.9707,-3578.1933L13795.0195,-3578.0132L13794.9493,-3577.8999L13794.8303,-3577.8133L13794.7006,-3577.6665L13794.6106,-3577.4532L13794.5801,-3577.38L13794.4702,-3577.1267L13794.4504,-3576.9867L13794.4702,-3576.6933L13794.4702,-3576.6068L13794.5404,-3576.2466L13794.5404,-3576.1932L13794.5602,-3575.9933L13794.4901,-3575.8133L13794.4504,-3575.7599L13794.2902,-3575.5264L13794.2398,-3575.4532L13794.1101,-3575.3468L13794.0598,-3575.1999L13794.0796,-3575.0935L13794.1101,-3574.9866L13794.1803,-3574.86L13794.31,-3574.7131L13794.3298,-3574.6067L13794.2902,-3574.4801L13794.22,-3574.44L13794.0521,-3574.3763L13793.9896,-3574.3534L13793.6996,-3574.2466L13793.5196,-3574.1734L13793.4906,-3574.0467L13793.4494,-3573.8865L13793.4296,-3573.8132L13793.3807,-3573.6866L13793.3807,-3573.5065"/>
<path content="AP030,1,28,1,0,15,1,8,JPN" xlink:title="AP030" d="M13796.991,-3582.1053L13797.3328,-3581.8718L13797.6181,-3581.8718L13797.9599,-3581.9653L13798.2452,-3582.0583L13798.587,-3581.9187L13798.8708,-3581.6387L13798.9288,-3581.3122L13799.1562,-3581.2187L13799.3851,-3580.9856L13799.2706,-3580.2391L13799.3271,-3579.306L13799.2706,-3578.513L13799.1562,-3577.813L13798.9288,-3577.2533L13798.8708,-3576.6468L13798.7,-3575.9003L13798.587,-3575.4807L13798.4161,-3575.2472L13797.9599,-3575.0607L13797.9599,-3574.8272L13798.0728,-3574.4541L13798.1873,-3574.1276L13798.0728,-3573.801L13797.789,-3573.4276L13797.789,-3573.101L13797.9599,-3572.961"/>
<path content="AP030,1,28,1,0,15,1,8,JPN" xlink:title="AP030" d="M13793.3807,-3573.5065L13793.7332,-3573.4856L13794.7754,-3573.4238L13795.8084,-3573.4501L13796.9589,-3573.5783L13797.9599,-3572.961"/>
<path content="AP030,1,28,1,0,14,1,8,JPN" xlink:title="AP030" d="M13841.7648,-3578.5019L13841.6794,-3578.3333L13841.6504,-3578.26L13841.6794,-3578.08L13841.8793,-3577.6867L13841.9693,-3577.4666L13841.9907,-3577.1465L13842.0807,-3577L13842.4896,-3576.5667L13842.72,-3576.3199L13843.1107,-3575.7935L13843.2007,-3575.6535L13843.2693,-3575.5264L13843.2907,-3575.3799L13843.4006,-3575.1667L13843.4906,-3575.0935L13844.0399,-3574.4801L13844.4901,-3573.6534L13844.5801,-3573.4665L13844.8807,-3572.8931L13844.9295,-3572.7467L13844.9493,-3572.48L13845.1096,-3572.1333"/>
<path content="AP030,1,28,1,0,15,1,8,JPN" xlink:title="AP030" d="M13846.4706,-3572.0264L13847.7478,-3572.8325L13848.7732,-3573.8426L13849.7086,-3575.1694L13850.4517,-3576.4282L13850.9354,-3577.2038L13851.5625,-3576.9646"/>
<path content="AP030,1,28,1,0,16,1,8,JPN" xlink:title="AP030" d="M13841.7648,-3578.5019L13842.0395,-3578.3867L13842.1997,-3578.12L13842.2195,-3577.8332L13842.2394,-3577.5265L13842.3294,-3577.3266L13842.3996,-3577.1999L13842.4698,-3577.1065L13842.63,-3577L13842.9703,-3576.7998L13843.2007,-3576.5331L13843.3807,-3576.1734L13843.6996,-3575.7935L13843.9896,-3575.4868L13844.1803,-3575.1999L13844.4305,-3574.7131L13844.6106,-3574.3866L13844.9493,-3574.0665L13845.3293,-3573.4665L13845.8099,-3572.9267L13846.1807,-3572.62L13846.4706,-3572.0665L13846.4706,-3572.0264"/>
<path content="AP030,1,28,1,0,15,1,8,JPN" xlink:title="AP030" d="M13845.1096,-3572.1333L13845.7825,-3571.9303L13846.4706,-3572.0264"/>
<path content="AP030,1,28,1,0,14,1,8,JPN" xlink:title="AP030" d="M13807.9498,-3577.3464L13807.6096,-3577.0199L13807.4707,-3576.8734L13807.4295,-3576.8398L13807.3303,-3576.7666L13807.3593,-3576.6933L13807.3807,-3576.6197L13807.3303,-3576.2066L13807.4005,-3575.9933L13807.5607,-3575.56L13807.5806,-3575.3998L13807.5806,-3575.3597L13807.7698,-3575.1667L13807.8293,-3575.0198L13807.8796,-3574.7665L13807.8796,-3574.7334L13807.9697,-3574.44L13808.02,-3574.2065L13807.9895,-3573.8667L13807.9895,-3573.8335L13807.8293,-3573.7934L13807.6096,-3573.5931L13807.5607,-3573.2735L13807.5394,-3573.1266L13807.3807,-3572.8733L13807.2693,-3572.7135L13807.2403,-3572.6398L13807.2006,-3572.6067L13807.1793,-3572.5864L13807.1304,-3572.44L13807.0801,-3572.3534L13806.9305,-3572.2466L13806.8802,-3572.0264L13806.8298,-3571.8864"/>
<path content="AP030,1,28,1,0,14,1,8,JPN" xlink:title="AP030" d="M13844.4183,-3571.809L13844.5374,-3571.8502L13844.6793,-3571.8998L13844.9707,-3571.9532L13845.1096,-3572.1333"/>
<path content="AP030,1,28,1,0,15,1,8,JPN" xlink:title="AP030" d="M13841.8625,-3575.7645L13841.9724,-3574.6956L13842.2226,-3574.3473L13842.5232,-3573.9273L13842.9901,-3573.4016L13843.6432,-3572.9412L13843.8339,-3572.543L13844.0384,-3572.1241L13844.4183,-3571.809"/>
<path content="AP030,1,28,1,0,15,1,8,JPN" xlink:title="AP030" d="M13797.9599,-3572.961L13799.7665,-3571.6656"/>
<path content="AP030,1,28,1,0,15,1,8,JPN" xlink:title="AP030" d="M13799.7665,-3571.6656L13800.9827,-3571.6465L13802.1225,-3572.0711L13804.129,-3572.0711L13806.8298,-3571.8864"/>
<path content="AP030,1,28,1,0,14,1,8,JPN" xlink:title="AP030" d="M13843.7698,-3571.5599L13843.9697,-3571.6534L13844.4183,-3571.809"/>
<path content="AP030,1,28,1,0,14,1,8,JPN" xlink:title="AP030" d="M13840.1993,-3576.0998L13840.4907,-3576.1333L13840.6296,-3575.9731L13840.6494,-3575.7599L13840.6799,-3575.4868L13840.9897,-3574.9268L13841.3101,-3574.3866L13841.3605,-3574.2599L13841.5207,-3573.8464L13841.7206,-3573.5931L13842.0197,-3573.2533L13842.0593,-3573.18L13842.2394,-3572.8931L13842.54,-3572.5864L13842.9001,-3572.3331L13843.2907,-3572.1001L13843.7393,-3571.5935L13843.7698,-3571.5599"/>
<path content="AP030,1,28,1,0,14,1,8,JPN" xlink:title="AP030" d="M13843.7698,-3571.5599L13843.8293,-3571.4664L13844.1299,-3571.1067L13844.31,-3570.9999L13844.4504,-3570.8935L13844.5602,-3570.8L13844.7906,-3570.5868L13844.8105,-3570.5666L13845.1797,-3570.2999L13845.2393,-3570.2599L13845.2698,-3570.2465L13845.3598,-3570.2065"/>
<path content="AP030,1,28,1,0,15,1,8,JPN" xlink:title="AP030" d="M13807.9498,-3577.3464L13809.1446,-3577.0462L13810.8521,-3577.2007L13811.348,-3577.5898L13812.0224,-3577.121L13812.3962,-3577.4441L13813.028,-3577.7035L13813.3057,-3577.1519L13813.7878,-3576.8143L13813.6444,-3577.2644L13813.5925,-3577.5078L13814.151,-3577.4509L13815.5777,-3577.066L13816.658,-3576.8124L13817.2638,-3576.6174L13817.45,-3576.2032L13818.042,-3576.4263L13818.3456,-3576.2939L13818.3701,-3575.5966L13818.9575,-3575.9243L13819.519,-3575.7977L13819.4916,-3575.3784L13819.2459,-3575.0587L13819.6732,-3575.0687L13820.285,-3574.699L13820.34,-3574.3862L13820.6863,-3574.2546L13820.5185,-3574.1459L13820.9885,-3574.1917L13821.1975,-3574.3362L13821.6339,-3574.102L13821.2219,-3573.6389L13821.2387,-3573.1506L13821.9269,-3573.0618L13822.4075,-3572.7589L13822.5952,-3572.3095L13823.0789,-3571.9021L13823.642,-3571.7056L13824.1135,-3571.7163L13824.4186,-3571.5488L13824.7925,-3571.8716L13825.2655,-3571.7777L13825.7797,-3571.7892L13825.9262,-3571.2692L13826.6357,-3570.5177L13827.2598,-3569.7987L13827.4368,-3569.6285L13827.4017,-3569.3832"/>
<path content="AP030,1,28,1,0,16,1,8,JPN" xlink:title="AP030" d="M13846.4706,-3572.0264L13846.4905,-3571.9933L13847.1802,-3571.1468L13847.7402,-3570.4998L13848.2407,-3570.0268L13849.0799,-3569.4534L13849.6994,-3568.9667L13850.1099,-3568.5867"/>
<path content="AP030,1,28,1,0,14,1,8,JPN" xlink:title="AP030" d="M13845.3598,-3570.2065L13845.61,-3570.1L13846.0602,-3569.7598L13846.4005,-3569.5599L13846.7896,-3569.22L13846.9498,-3569.1067L13847.0398,-3569.0933L13847.2702,-3569.0933L13847.5403,-3569.0735L13847.8607,-3568.84L13848.5199,-3568.5135"/>
<path content="AP030,1,28,1,0,15,1,8,JPN" xlink:title="AP030" d="M13850.1099,-3568.5867L13851.442,-3568.4162L13851.5625,-3568.4086"/>
<path content="AP030,1,28,1,0,16,1,8,JPN" xlink:title="AP030" d="M13850.1099,-3568.5867L13849.2203,-3568.0798"/>
<path content="AP030,1,28,1,0,14,1,8,JPN" xlink:title="AP030" d="M13848.5199,-3568.5135L13848.5794,-3568.4998L13848.8998,-3568.3533L13849.0204,-3568.2999L13849.2203,-3568.0798"/>
<path content="AP030,1,28,1,0,16,1,8,JPN" xlink:title="AP030" d="M13849.2203,-3568.0798L13848.1018,-3567.0456L13847.7676,-3566.5386"/>
<path content="AP030,1,28,1,0,14,1,8,JPN" xlink:title="AP030" d="M13849.2203,-3568.0798L13849.3301,-3567.9932L13849.6094,-3567.9531L13849.7894,-3567.8131L13849.8795,-3567.58L13849.9893,-3567.2531L13850.1999,-3566.9266L13850.3296,-3566.7866L13850.8606,-3566.6798L13851.2695,-3566.5665L13851.5198,-3566.4997"/>
<path content="AP030,1,28,1,0,16,1,8,JPN" xlink:title="AP030" d="M13847.7676,-3566.5386L13847.7112,-3566.3322"/>
<path content="AP030,1,28,1,0,15,1,8,JPN" xlink:title="AP030" d="M13847.3371,-3566.295L13847.7112,-3566.3322"/>
<path content="AP030,1,28,1,0,14,1,8,JPN" xlink:title="AP030" d="M13848.5199,-3568.5135L13848.39,-3567.702L13848.28,-3567.402L13848.1,-3567.221L13847.86,-3567.076L13847.6061,-3566.8944L13847.4512,-3566.693L13847.3583,-3566.4607L13847.3371,-3566.295"/>
<path content="AP030,1,28,1,0,14,1,8,JPN" xlink:title="AP030" d="M13851.5198,-3566.4997L13851.5625,-3566.465"/>
<path content="AP030,1,28,1,0,15,1,8,JPN" xlink:title="AP030" d="M13846.4493,-3566.2067L13847.3371,-3566.295"/>
<path content="AP030,1,28,1,0,14,1,8,JPN" xlink:title="AP030" d="M13845.3598,-3570.2065L13845.2698,-3569.8868L13845.4895,-3569.6667L13845.6497,-3569.4332L13845.8801,-3569.2532L13846.08,-3569.0399L13846.1304,-3568.8198L13846.1304,-3568.6199L13846.2204,-3568.4998L13846.2402,-3568.2598L13846.4493,-3567.9733L13846.4493,-3567.8333L13846.4706,-3567.4133L13846.4493,-3566.6199L13846.4493,-3566.2067"/>
<path content="AP030,1,28,1,0,16,1,8,JPN" xlink:title="AP030" d="M13850.1099,-3568.5867L13850.5203,-3568.1732L13850.8301,-3567.9199L13851.4297,-3567.6666L13851.5625,-3567.5915"/>
<path content="AP030,1,28,1,0,14,1,8,JPN" xlink:title="AP030" d="M13851.5198,-3566.4997L13851.5625,-3566.5062"/>
<path content="AP030,1,28,1,0,15,1,8,JPN" xlink:title="AP030" d="M13847.7676,-3566.5386L13848.8388,-3566.4982L13849.7528,-3566.0519L13850.7416,-3566.0969L13851.5198,-3566.4997"/>
<path content="AP030,1,28,1,0,15,1,8,JPN" xlink:title="AP030" d="M13843.9041,-3565.9161L13844.7998,-3565.9885L13846.4493,-3566.2067"/>
<path content="AP030,1,28,1,0,15,1,8,JPN" xlink:title="AP030" d="M13840.1993,-3576.0998L13840.2969,-3575.3792L13840.4053,-3574.6742L13841.3742,-3573.3521L13841.9128,-3572.0741L13843.0435,-3570.2229L13843.6356,-3568.3281L13843.9041,-3566.5653L13843.9041,-3565.9161"/>
<path content="AP030,1,28,1,0,16,1,8,JPN" xlink:title="AP030" d="M13847.7112,-3566.3322L13847.7094,-3566.2181L13847.6898,-3565.8127L13847.5311,-3564.1689"/>
<path content="AP030,1,28,1,0,15,1,8,JPN" xlink:title="AP030" d="M13847.5311,-3564.1689L13849.0402,-3563.8821L13849.678,-3563.6261L13850.3113,-3563.4361"/>
<path content="AP030,1,28,1,0,15,1,8,JPN" xlink:title="AP030" d="M13850.3113,-3563.4361L13850.8499,-3563.4361L13851.5625,-3563.7279"/>
<path content="AP030,1,28,1,0,15,1,8,JPN" xlink:title="AP030" d="M13827.4017,-3569.3832L13828.1219,-3569.3172L13828.6987,-3568.9968L13829.2694,-3567.9321L13829.9881,-3567.1021L13830.3467,-3566.7252L13830.4947,-3566.0614L13831.0715,-3565.741L13831.5491,-3565.5464L13832.0206,-3565.5571L13831.5262,-3565.3152L13830.9692,-3565.0463L13830.9769,-3564.8155L13831.3568,-3564.7469L13831.871,-3564.3738L13832.222,-3564.2532L13832.6111,-3563.8771L13832.8064,-3563.6505L13833.3801,-3563.4068L13833.9508,-3563.2912L13834.4208,-3563.3015L13834.9792,-3563.5448L13835.6323,-3563.7131L13835.4248,-3563.3747L13835.1501,-3563.0867L13835.0937,-3562.9314L13835.2844,-3562.859L13835.9299,-3563.2835L13836.0245,-3563.2599L13836.0321,-3563.0291L13835.9192,-3562.6419L13835.8612,-3562.4866L13836.2671,-3562.598L13836.6562,-3563.1966L13836.998,-3563.3068L13837.616,-3563.6024L13837.9196,-3563.9423L13838.6429,-3563.9324L13839.5203,-3563.9774L13840.3152,-3564.6614L13841.2476,-3565.015L13843.5135,-3565.8844L13843.9041,-3565.9161"/>
<path content="AP030,1,28,1,0,15,1,8,JPN" xlink:title="AP030" d="M13847.9556,-3561.9817L13848.4818,-3562.114L13849.3423,-3562.3344L13849.8276,-3562.9955L13850.3113,-3563.4361"/>
<path content="AP030,1,28,1,0,16,1,8,JPN" xlink:title="AP030" d="M13847.5311,-3564.1689L13847.64,-3563.393L13847.73,-3562.924L13847.87,-3562.346L13847.9556,-3561.9817"/>
<path content="AP030,1,28,1,0,15,1,8,JPN" xlink:title="AP030" d="M13847.6303,-3561.8999L13847.9556,-3561.9817"/>
<path content="AP030,1,28,1,0,14,1,8,JPN" xlink:title="AP030" d="M13847.3371,-3566.295L13847.2653,-3565.7326L13847.2343,-3565.1595L13847.1879,-3564.23L13847.1724,-3563.7963L13847.2498,-3563.3161L13847.3118,-3562.8978L13847.4304,-3562.5134L13847.6303,-3561.8999"/>
<path content="AP030,1,28,1,0,15,1,8,JPN" xlink:title="AP030" d="M13797.9599,-3572.961L13798.0728,-3572.868L13798.0164,-3572.448L13797.5037,-3571.4684L13797.1619,-3571.0018L13796.7621,-3570.1618L13796.3638,-3569.7422L13795.9641,-3569.6957L13795.9641,-3569.2291L13795.8511,-3568.7626L13795.5658,-3568.2026L13795.224,-3567.5961L13795.4514,-3567.503L13795.6223,-3567.363L13795.5658,-3567.1295L13795.2805,-3566.5695L13795.224,-3566.1964L13795.166,-3565.8699L13794.9951,-3565.1703L13794.8242,-3564.5168L13794.4138,-3563.179L13794.3115,-3562.2776L13793.6844,-3562.0911L13793.2281,-3561.9511L13793.1152,-3561.718L13793.2281,-3561.578L13793.3426,-3561.438"/>
<path content="AP030,1,28,1,0,15,1,8,JPN" xlink:title="AP030" d="M13799.7665,-3571.6656L13800.5936,-3570.6947L13800.6287,-3569.7536L13801.2604,-3569.1246L13801.2878,-3568.3815L13801.2421,-3567.984L13801.2695,-3567.2409L13800.9293,-3566.5878L13800.5981,-3565.6872L13800.4272,-3565.3854L13800.7416,-3565.0959L13800.2884,-3564.2418L13799.8215,-3563.7344L13799.411,-3563.3274L13799.4247,-3562.9807L13798.5916,-3562.5137L13798.1888,-3561.9087L13798.2101,-3561.3636"/>
<path content="AP030,1,28,1,0,15,1,8,JPN" xlink:title="AP030" d="M13846.6995,-3561.1465L13847.6303,-3561.8999"/>
<path content="AP030,1,28,1,0,14,1,8,JPN" xlink:title="AP030" d="M13846.4493,-3566.2067L13846.4706,-3565.76L13846.4706,-3565.7398L13846.4294,-3565.6132L13846.3104,-3565.2534L13846.2906,-3564.6599L13846.3303,-3564.4264L13846.4294,-3563.94L13846.5805,-3563.3999L13846.5393,-3562.9467L13846.4294,-3562.4599L13846.4005,-3562.2799L13846.4493,-3561.8332L13846.6293,-3561.4666L13846.6293,-3561.3068L13846.6095,-3561.2331L13846.6995,-3561.1465"/>
<path content="AP030,1,28,1,0,16,1,8,JPN" xlink:title="AP030" d="M13791.1499,-3574.2268L13791.1301,-3574.1734L13791.1102,-3573.9399L13791.0797,-3573.1998L13791.0202,-3572.7333L13790.77,-3572.1733L13790.6799,-3571.8666L13790.77,-3571.1666L13791.04,-3570.0665L13791.1499,-3569.7933L13791.1102,-3569.3798L13790.9698,-3568.9465L13790.9302,-3568.6066L13790.9302,-3568.1934L13790.7898,-3567.7734L13790.5594,-3567.2867L13790.4007,-3566.9464L13790.3595,-3566.5333L13790.3107,-3566.1533L13790.1306,-3565.7398L13789.7705,-3565.2L13789.7003,-3564.9467L13789.65,-3564.7133L13789.5203,-3564.4798L13789.4501,-3564.2799L13789.4699,-3564.0465L13789.5401,-3563.5597L13789.4897,-3563.2L13789.36,-3562.8597L13789.2395,-3562.6064L13789.0198,-3562.4268L13788.6993,-3561.94L13788.6307,-3561.6867L13788.5803,-3561.0931"/>
<path content="AP030,1,28,1,0,14,1,8,JPN" xlink:title="AP030" d="M13846.6293,-3561.0535L13846.6995,-3561.1465"/>
<path content="AP030,1,28,1,0,15,1,8,JPN" xlink:title="AP030" d="M13843.9041,-3565.9161L13843.9041,-3565.1989L13844.1193,-3564.3616L13844.7662,-3562.6869L13845.5734,-3561.6734L13846.6293,-3561.0535"/>
<path content="AP030,1,28,1,0,14,1,8,JPN" xlink:title="AP030" d="M13847.6303,-3561.8999L13847.8302,-3561.4132L13847.9407,-3561.0878L13847.9849,-3560.7863L13847.9693,-3560.542"/>
<path content="AP030,1,28,1,0,15,1,8,JPN" xlink:title="AP030" d="M13846.6995,-3561.1465L13847.9693,-3560.542"/>
<path content="AP030,1,28,1,0,15,1,8,JPN" xlink:title="AP030" d="M13793.3426,-3561.438L13794.2139,-3561.0645L13795.6314,-3560.5057L13796.1746,-3560.569L13797.0688,-3561.0374L13798.2101,-3561.3636"/>
<path content="AP030,1,28,1,0,16,1,8,JPN" xlink:title="AP030" d="M13847.9556,-3561.9817L13848.02,-3561.708L13848.17,-3561.058L13848.21,-3560.661L13848.1843,-3560.4382"/>
<path content="AP030,1,28,1,0,15,1,8,JPN" xlink:title="AP030" d="M13847.9693,-3560.542L13848.1843,-3560.4382"/>
<path content="AP030,1,28,1,0,14,1,8,JPN" xlink:title="AP030" d="M13793.3807,-3573.5065L13793.3807,-3573.4531L13793.3807,-3573.1998L13793.3594,-3573.1998L13793.2404,-3572.9668L13793.1793,-3572.7867L13793.1793,-3572.3534L13793.1793,-3572.1535L13793.1107,-3571.92L13793.0405,-3571.4867L13793.0603,-3571.2532L13793.1305,-3571.1666L13793.3105,-3570.9866L13793.5043,-3570.9007L13793.5196,-3570.8935L13793.6493,-3570.8199L13793.7897,-3570.6398L13793.7897,-3570.4266L13793.6798,-3570.2267L13793.5593,-3570.1534L13793.3807,-3570.1L13793.2907,-3570.0466L13793.3105,-3569.9734L13793.4006,-3569.8467L13793.5196,-3569.7399L13793.5196,-3569.6865L13793.5196,-3569.54L13793.5196,-3569.4866L13793.4906,-3569.4332L13793.3594,-3569.3798L13793.2602,-3569.3989L13793.0801,-3569.4332L13792.9703,-3569.4332L13792.8802,-3569.3466L13792.8604,-3569.2532L13792.8299,-3569.1666L13792.7399,-3568.9999L13792.54,-3568.6798L13792.4896,-3568.4601L13792.5598,-3568.2266L13792.63,-3568.0134L13792.6498,-3567.9199L13792.6498,-3567.6533L13792.6498,-3567.5934L13792.63,-3567.4866L13792.5201,-3567.4133L13792.2699,-3567.3798L13792.1097,-3567.3599L13791.9907,-3567.3065L13791.9693,-3567.1265L13791.9907,-3566.9998L13792.1097,-3566.9266L13792.2012,-3566.9266L13792.3798,-3566.9266L13792.72,-3566.8934L13793.0801,-3566.84L13793.4006,-3566.8598L13793.5593,-3566.8198L13793.8995,-3566.5665L13794.0796,-3566.4265L13794.1299,-3566.3334L13794.1101,-3566.1331L13794.0598,-3566.0133L13794.0201,-3565.72L13794.1101,-3565.4133L13794.1803,-3565.1665L13794.22,-3564.9265L13794.3298,-3564.7999L13794.3604,-3564.6935L13794.2902,-3564.4798L13794.2902,-3564.3867L13794.2398,-3564.32L13794.2001,-3564.2597L13793.9896,-3564.1335L13793.8797,-3564.0999L13793.6096,-3564.1335L13793.5394,-3564.1335L13793.4006,-3564.0999L13793.1793,-3563.9935L13793.0603,-3563.8866L13793.0405,-3563.7066L13793.0801,-3563.5265L13793.0206,-3563.3598L13792.8101,-3563.0932L13792.7399,-3563.0398L13792.4896,-3562.9265L13792.3798,-3562.8597L13792.3294,-3562.7998L13792.2897,-3562.7464L13792.2394,-3562.5866L13792.2394,-3562.5L13792.1799,-3562.2265L13792.0807,-3561.7199L13792.0395,-3561.38L13792.0395,-3561.3464L13792.0593,-3561.0733L13792.1295,-3560.9665L13792.1799,-3560.8398L13792.0807,-3560.64L13792.0593,-3560.6197L13791.9296,-3560.5331L13791.8793,-3560.4599L13791.8793,-3560.3733L13791.9495,-3560.2264L13791.9693,-3560.2066L13792.0593,-3560.0998L13792.1295,-3559.9934L13792.1097,-3559.8331"/>
<path content="AP030,1,28,1,0,15,1,8,JPN" xlink:title="AP030" d="M13788.5803,-3561.0931L13789.0442,-3560.3882L13790.1718,-3559.8888L13791.5756,-3559.8488L13792.1097,-3559.8331"/>
<path content="AP030,1,28,1,0,15,1,8,JPN" xlink:title="AP030" d="M13848.1843,-3560.4382L13848.912,-3560.0868L13850.47,-3559.5161"/>
<path content="AP030,1,28,1,0,15,1,8,JPN" xlink:title="AP030" d="M13850.9583,-3559.3376L13851.5625,-3560.2726"/>
<path content="AP030,1,28,1,0,15,1,8,JPN" xlink:title="AP030" d="M13850.47,-3559.5161L13850.9583,-3559.3376"/>
<path content="AP030,1,28,1,0,15,1,8,JPN" xlink:title="AP030" d="M13850.9583,-3559.3376L13851.5625,-3559.2846"/>
<path content="AP030,1,28,1,0,15,1,8,JPN" xlink:title="AP030" d="M13798.2101,-3561.3636L13798.3368,-3561.2183L13798.9975,-3561.3834L13799.5575,-3561.0504L13799.9466,-3560.3661L13800.5615,-3560.183L13800.9308,-3560.0433L13800.7523,-3559.0588"/>
<path content="AP030,1,28,1,0,15,1,8,JPN" xlink:title="AP030" d="M13800.7523,-3559.0588L13801.0941,-3558.8253"/>
<path content="AP030,1,28,1,0,14,1,8,JPN" xlink:title="AP030" d="M13803.54,-3558.0666L13803.6301,-3558.12L13803.7399,-3558.1734L13803.83,-3558.2466L13803.8803,-3558.3L13803.9001,-3558.3534L13803.9902,-3558.5533L13804.1306,-3558.6201L13804.3793,-3558.7467L13804.4296,-3558.82L13804.4693,-3558.8734L13804.5395,-3558.9268L13804.5807,-3558.9867L13804.7394,-3558.9867L13804.8096,-3558.9867L13804.8096,-3559.0199L13804.8096,-3559.3468L13804.8294,-3559.7198L13804.8294,-3559.7935L13804.8599,-3559.8866L13804.8798,-3559.9197L13804.8996,-3559.9731L13804.8996,-3560.0266L13804.8096,-3560.12L13804.8096,-3560.1734L13804.8096,-3560.3001L13804.8294,-3560.5L13804.8599,-3560.5133L13804.9301,-3560.5133L13804.9896,-3560.5331L13805.04,-3560.5865L13805.04,-3560.6197L13805.0201,-3560.7334L13805.0598,-3560.82L13805.1498,-3561.0535L13805.3604,-3561.3266L13805.3802,-3561.38L13805.4306,-3561.4334L13805.4703,-3561.4532L13805.5405,-3561.4666L13805.5603,-3561.4864L13805.5801,-3561.5265L13805.6107,-3561.5932L13805.6305,-3561.6665L13805.7693,-3561.8134L13805.7907,-3561.9534L13805.7693,-3561.9934L13805.7205,-3562.0667L13805.8304,-3562.2601L13805.8594,-3562.4268L13805.7907,-3562.5534L13805.7693,-3562.6198L13805.7205,-3562.7335L13805.7007,-3562.8201L13805.7007,-3562.9131L13805.7007,-3563.0398L13805.6503,-3563.1798L13805.6793,-3563.3266L13805.7007,-3563.3598L13805.8105,-3563.4666L13805.9006,-3563.6131L13805.9006,-3563.6532L13805.9006,-3563.7066L13805.9006,-3563.7398L13805.8304,-3563.8466L13805.8105,-3563.9L13805.7907,-3563.9732L13805.8105,-3564.0667L13805.8594,-3564.2597L13805.8594,-3564.5134L13805.8594,-3564.8933L13805.8594,-3564.9132L13805.9006,-3564.9864L13805.9296,-3565.1066L13805.9906,-3565.1466L13806.0593,-3565.1665L13806.0806,-3565.2332L13806.2195,-3565.4667L13806.2195,-3565.5399L13806.2195,-3565.6132L13806.1798,-3565.6666L13806.1493,-3565.7398L13806.1798,-3565.76L13806.2195,-3565.7932L13806.2698,-3565.8665L13806.3095,-3565.9397L13806.2393,-3566.0133L13806.1798,-3566.0797L13806.1798,-3566.1198L13806.2393,-3566.1732L13806.2698,-3566.2266L13806.2897,-3566.32L13806.2897,-3566.3734L13806.2393,-3566.5333L13806.3293,-3566.6065L13806.3995,-3566.6199L13806.4896,-3566.6599L13806.5598,-3566.7133L13806.5598,-3566.8198L13806.5201,-3567.0532L13806.4896,-3567.2733L13806.5399,-3567.3599L13806.5399,-3567.6865L13806.5201,-3567.7399L13806.4896,-3567.7601L13806.3995,-3567.8131L13806.3599,-3567.8467L13806.3095,-3568.0798L13806.3293,-3568.4998L13806.3599,-3568.6066L13806.3599,-3568.6398L13806.3797,-3568.7134L13806.4301,-3568.7668L13806.3995,-3568.8934L13806.3293,-3569.1467L13806.3599,-3569.2333L13806.4301,-3569.3798L13806.5796,-3569.4668L13806.6803,-3569.5801L13806.72,-3569.7598L13806.7001,-3569.8132L13806.6299,-3569.8334L13806.5598,-3569.8467L13806.5399,-3569.92L13806.6101,-3569.9398L13806.6498,-3569.9734L13806.6803,-3570.0268L13806.6498,-3570.1L13806.6101,-3570.1733L13806.5399,-3570.2599L13806.4499,-3570.3865L13806.4499,-3570.4399L13806.4896,-3570.4998L13806.5201,-3570.5666L13806.4301,-3570.66L13806.4301,-3570.8599L13806.4301,-3570.9667L13806.4499,-3571.0732L13806.4499,-3571.0934L13806.3995,-3571.1666L13806.3797,-3571.2334L13806.3995,-3571.2734L13806.4499,-3571.2532L13806.4896,-3571.18L13806.5399,-3571.1266L13806.5399,-3571.0732L13806.5598,-3571.0533L13806.6101,-3571.0934L13806.6101,-3571.1468L13806.6101,-3571.36L13806.6101,-3571.5065L13806.8298,-3571.8864"/>
<path content="AP030,1,28,1,0,15,1,8,JPN" xlink:title="AP030" d="M13801.0941,-3558.8253L13803.54,-3558.0666"/>
<path content="AP030,1,28,1,0,15,1,8,JPN" xlink:title="AP030" d="M13827.4017,-3569.3832L13828.1921,-3568.808L13828.8757,-3567.5671L13829.4601,-3566.7076L13829.9255,-3565.6013L13830.2353,-3565.2943L13829.5837,-3564.3024L13830.7053,-3564.0133L13830.928,-3563.739L13831.2622,-3562.6995L13830.9555,-3561.6459L13830.7785,-3559.3037L13830.4138,-3558.7021L13830.5038,-3557.9365"/>
<path content="AP030,1,28,1,0,15,1,8,JPN" xlink:title="AP030" d="M13793.3426,-3561.438L13793.3426,-3561.0645L13793.399,-3560.598L13793.399,-3559.8984L13793.2281,-3559.2453L13792.8864,-3558.5922L13792.659,-3557.8922"/>
<path content="AP030,1,28,1,0,15,1,8,JPN" xlink:title="AP030" d="M13792.659,-3557.8922L13793.1152,-3557.8457L13793.3426,-3557.8922L13793.457,-3557.8457L13793.5699,-3557.7057L13793.9133,-3557.7057L13794.0262,-3557.8922L13794.5969,-3557.9388L13794.8822,-3558.1257L13795.224,-3558.4053L13795.6802,-3558.4988L13796.022,-3558.5922L13796.3058,-3559.0118L13796.5912,-3559.2453L13796.8201,-3559.2453L13796.933,-3558.9188L13797.1039,-3558.8253L13797.3892,-3558.8718L13797.789,-3559.0118L13798.1873,-3559.0118L13798.587,-3558.8253L13798.9853,-3558.6388L13799.2706,-3558.7318L13799.556,-3558.6853L13799.7833,-3558.4988L13800.0687,-3558.5922L13800.354,-3558.9188L13800.5249,-3559.0588L13800.7523,-3559.0588"/>
<path content="AP030,1,28,1,0,14,1,8,JPN" xlink:title="AP030" d="M13803.5797,-3557.4665L13803.54,-3557.5268L13803.4302,-3557.6668L13803.4302,-3557.74L13803.45,-3557.8667L13803.4698,-3557.9399L13803.4897,-3557.9735L13803.54,-3558.0666"/>
<path content="AP030,1,28,1,0,15,1,8,JPN" xlink:title="AP030" d="M13801.0941,-3558.8253L13801.6647,-3558.0788L13802.1774,-3557.6591L13802.5192,-3557.4722L13802.7481,-3557.4722L13803.5797,-3557.4665"/>
<path content="AP030,1,28,1,0,15,1,8,JPN" xlink:title="AP030" d="M13848.5397,-3557.18L13849.5087,-3558.5049L13850.47,-3559.5161"/>
<path content="AP030,1,28,1,0,14,1,8,JPN" xlink:title="AP030" d="M13847.8607,-3557L13848.0804,-3557.1465L13848.4299,-3557.3467L13848.5397,-3557.18"/>
<path content="AP030,1,28,1,0,16,1,8,JPN" xlink:title="AP030" d="M13848.1843,-3560.4382L13848.16,-3560.227L13848.03,-3559.83L13847.85,-3559.228L13847.76,-3558.783L13847.74,-3558.169L13847.74,-3557.579L13847.8607,-3557"/>
<path content="AP030,1,28,1,0,15,1,8,JPN" xlink:title="AP030" d="M13844.8929,-3556.8115L13845.0424,-3557.423L13844.928,-3557.8358L13844.9097,-3558.3885L13845.1019,-3558.7521L13844.5633,-3558.63L13844.2444,-3559.1209L13843.8232,-3559.5547L13843.6325,-3560.2142L13844.3329,-3560.561L13845.6604,-3560.368L13846.6293,-3561.0535"/>
<path content="AP030,1,28,1,0,14,1,8,JPN" xlink:title="AP030" d="M13847.3801,-3556.5666L13847.5204,-3556.7135L13847.6105,-3556.7867L13847.7402,-3556.86L13847.8607,-3557"/>
<path content="AP030,1,28,1,0,14,1,8,JPN" xlink:title="AP030" d="M13847.9693,-3560.542L13847.9329,-3560.2951L13847.8029,-3559.9677L13847.6501,-3559.6134L13847.4899,-3559.0401L13847.3999,-3558.6597L13847.4304,-3558.0799L13847.6105,-3557.2735L13847.5601,-3556.9466L13847.3801,-3556.5666"/>
<path content="AP030,1,28,1,0,14,1,8,JPN" xlink:title="AP030" d="M13849.0601,-3556.5334L13849.1302,-3556.5533L13849.4003,-3556.6933L13849.9298,-3556.9668L13850.3296,-3556.8733L13850.47,-3556.8932L13851.1505,-3557.1999L13851.5396,-3557.1999L13851.5625,-3557.2034"/>
<path content="AP030,1,28,1,0,14,1,8,JPN" xlink:title="AP030" d="M13848.5397,-3557.18L13848.7701,-3556.8199L13848.9899,-3556.5666L13849.0601,-3556.5334"/>
<path content="AP030,1,28,1,0,14,1,8,JPN" xlink:title="AP030" d="M13846.6507,-3556.1733L13846.8094,-3556.2065L13846.8994,-3556.2466L13846.9498,-3556.3332L13847.0398,-3556.5132L13847.0596,-3556.5132L13847.2397,-3556.5334L13847.3801,-3556.5666"/>
<path content="AP030,1,28,1,0,14,1,8,JPN" xlink:title="AP030" d="M13846.6293,-3561.0535L13846.6507,-3560.7998L13846.5805,-3560.4797L13846.5805,-3560.4065L13846.6095,-3560.3199L13846.4706,-3560.0266L13846.5607,-3559.7401L13846.6293,-3559.5798L13846.6293,-3559.0733L13846.6293,-3558.9134L13846.5805,-3558.6933L13846.5805,-3558.12L13846.5195,-3557.7732L13846.4706,-3557.6134L13846.4294,-3557.4867L13846.4493,-3557.3265L13846.4493,-3557.2865L13846.4706,-3557.1999L13846.4905,-3556.9134L13846.4706,-3556.4598L13846.6507,-3556.1733"/>
<path content="AP030,1,28,1,0,15,1,8,JPN" xlink:title="AP030" d="M13830.5038,-3557.9365L13831.012,-3557.8926L13831.0287,-3557.3952L13831.0089,-3556.9798L13831.8756,-3556.3629L13832.1686,-3556.7291L13832.55,-3557.4841L13833.2825,-3557.8323L13833.5007,-3557.3948L13833.1497,-3556.723L13832.9895,-3556.443L13833.3023,-3556.2012L13833.7128,-3556.0719L13833.9493,-3556.1047L13833.6029,-3556.3183L13833.6319,-3556.485L13834.0347,-3556.6044L13834.1461,-3556.3026L13834.4223,-3556.1428L13834.7153,-3556.4537L13835.0433,-3556.7924L13835.7834,-3556.9469L13836.4395,-3556.5468L13836.6425,-3556.5235L13836.8393,-3556.749L13836.8698,-3556.8325L13837.3428,-3556.8428L13837.7533,-3556.7135L13838.0768,-3557.1632L13838.5513,-3557.1735L13839.0976,-3557.0194L13839.4577,-3557.3868L13840.1962,-3557.5687L13840.1871,-3557.8728L13840.1749,-3558.2317L13840.3763,-3558.2916L13840.9668,-3557.8617L13841.1972,-3558.0601L13842.189,-3557.7221L13842.3004,-3557.4203L13843.2205,-3557.2464L13843.7698,-3557.0091L13844.2764,-3557.0198L13844.8929,-3556.8115"/>
<path content="AP030,1,28,1,0,14,1,8,JPN" xlink:title="AP030" d="M13846.1105,-3555.1666L13846.2204,-3555.36L13846.3104,-3555.4665L13846.3303,-3555.5065L13846.5607,-3555.8666L13846.6095,-3555.9933L13846.6507,-3556.1001L13846.6507,-3556.1733"/>
<path content="AP030,1,28,1,0,15,1,8,JPN" xlink:title="AP030" d="M13844.8929,-3556.8115L13844.8715,-3556.424L13845.8069,-3555.7247L13846.1105,-3555.1666"/>
<path content="AP030,1,28,1,0,14,1,8,JPN" xlink:title="AP030" d="M13846.1105,-3555.1666L13846.0602,-3555.1067L13845.9702,-3554.8733L13845.9305,-3554.7333L13845.8801,-3554.4067L13845.7397,-3554.2065"/>
<path content="AP030,1,28,1,0,15,1,8,JPN" xlink:title="AP030" d="M13847.5113,-3553.7846L13848.2651,-3554.5338L13848.8586,-3555.0186L13849.0189,-3555.4153L13849.0372,-3555.912L13849.0601,-3556.5334"/>
<path content="AP030,1,28,1,0,15,1,8,JPN" xlink:title="AP030" d="M13845.7397,-3554.2065L13846.3806,-3553.7407L13846.9193,-3553.6526L13847.1283,-3553.6991L13847.5113,-3553.7846"/>
<path content="AP030,1,28,1,0,15,1,8,JPN" xlink:title="AP030" d="M13850.8926,-3556.5285L13851.1703,-3556.2473L13851.2924,-3556.1245L13851.5625,-3555.8847"/>
<path content="AP030,1,28,1,0,15,1,8,JPN" xlink:title="AP030" d="M13788.3447,-3552.0526L13788.8397,-3552.9003L13789.3524,-3554.2068L13790.1505,-3555.1395L13790.7776,-3555.8861L13791.4047,-3556.3995L13792.2028,-3557.0061L13792.659,-3557.8922"/>
<path content="AP030,1,28,1,0,16,1,8,JPN" xlink:title="AP030" d="M13781.25,-3552.2565L13781.81,-3552.4399L13782.3105,-3552.6932L13782.6797,-3553.0197L13783.11,-3553.3066L13783.3298,-3553.4534L13783.49,-3553.6331L13783.7906,-3554.0134L13784.3597,-3554.4399L13784.5596,-3554.7466L13784.8999,-3555.18L13785.2905,-3555.4867L13785.8597,-3555.7934L13786.1298,-3556.0799L13786.29,-3556.3L13786.47,-3556.4266L13786.8301,-3556.5334L13786.9705,-3556.7135L13787.2192,-3556.9668L13787.5198,-3557.3067L13787.5595,-3557.5932L13787.7197,-3557.9533L13787.8296,-3558.0666L13787.97,-3558.2466L13788.1104,-3558.4599L13788.1805,-3558.7132L13788.2401,-3558.8932L13788.3301,-3559.2731L13788.4705,-3559.9533L13788.4003,-3560.5133L13788.4903,-3560.82L13788.5803,-3561.0931"/>
<path content="AP030,1,28,1,0,15,1,8,JPN" xlink:title="AP030" d="M13781.25,-3551.9391L13781.6574,-3551.8742L13781.7993,-3551.8009L13782.3303,-3551.5266"/>
<path content="AP030,1,28,1,0,14,1,8,JPN" xlink:title="AP030" d="M13845.7397,-3554.2065L13845.4697,-3553.92L13845.2393,-3553.7399L13845.0394,-3553.54L13844.9295,-3553.0197L13844.8593,-3552.6066L13844.8807,-3552.3731L13845.0806,-3552.1L13845.1294,-3552.0267L13845.1797,-3551.7597L13845.3094,-3551.5266"/>
<path content="AP030,1,28,1,0,15,1,8,JPN" xlink:title="AP030" d="M13787.6587,-3551.289L13788.0798,-3551.5991L13788.3447,-3552.0526"/>
<path content="AP030,1,28,1,0,14,1,8,JPN" xlink:title="AP030" d="M13845.3094,-3551.5266L13845.3796,-3551.4133L13845.5597,-3551.2531L13845.5795,-3551.1997L13845.5795,-3550.9865"/>
<path content="AP030,1,28,1,0,15,1,8,JPN" xlink:title="AP030" d="M13839.9445,-3550.7046L13841.2537,-3551.009L13841.8686,-3550.8564L13843.7332,-3550.7027L13844.1956,-3551.0719L13845.3094,-3551.5266"/>
<path content="AP030,1,28,1,0,15,1,8,JPN" xlink:title="AP030" d="M13847.5113,-3553.7846L13847.9431,-3553.2558L13847.9431,-3552.9034L13847.934,-3552.8721L13847.8348,-3552.5066L13847.728,-3552.1542L13847.5113,-3551.4931L13846.8124,-3550.6557"/>
<path content="AP030,1,28,1,0,15,1,8,JPN" xlink:title="AP030" d="M13845.5795,-3550.9865L13846.8124,-3550.6557"/>
<path content="AP030,1,28,1,0,14,1,8,JPN" xlink:title="AP030" d="M13781.25,-3551.3466L13781.3797,-3551.3466L13781.5796,-3551.3065L13781.8298,-3551.2531L13781.9,-3551.2333L13782.0801,-3551.2333L13782.1793,-3551.3268L13782.2906,-3551.4534L13782.3303,-3551.5266"/>
<path content="AP030,1,28,1,0,14,1,8,JPN" xlink:title="AP030" d="M13792.1097,-3559.8331L13792.0395,-3559.5798L13791.9693,-3559.4666L13791.9296,-3559.3998L13791.7206,-3559.2533L13791.5207,-3559.0733L13791.4001,-3558.9134L13791.3803,-3558.68L13791.3803,-3558.5667L13791.3605,-3558.44L13791.2201,-3558.2798L13791.2003,-3558.1932L13791.2201,-3558.0265L13791.1804,-3557.8667L13790.9302,-3557.7198L13790.5197,-3557.5268L13790.1306,-3557.3601L13789.9902,-3557.2334L13789.83,-3557.0732L13789.5203,-3556.9466L13789.3616,-3556.8626L13789.18,-3556.7665L13789.0594,-3556.6601L13788.8992,-3556.4598L13788.7207,-3556.0665L13788.6795,-3555.74L13788.6093,-3555.4665L13788.5193,-3555.18L13788.4293,-3555.04L13788.4003,-3555.0198L13788.2004,-3554.9133L13787.97,-3554.8401L13787.8601,-3554.7665L13787.5793,-3554.48L13787.3306,-3554.1733L13786.9293,-3553.8864L13786.7401,-3553.7197L13786.7401,-3553.6865L13786.7264,-3553.6022L13786.7203,-3553.5599L13786.6806,-3553.4134L13786.5402,-3553.22L13786.2,-3552.9865L13786.0199,-3552.8934L13785.9497,-3552.8732L13785.6094,-3552.7866L13785.3806,-3552.3865L13785.1501,-3551.9531L13784.9899,-3551.6132L13784.9503,-3551.3798L13784.8801,-3551.1467L13784.8099,-3551.0399L13784.7198,-3550.9666L13784.5795,-3550.9132L13784.52,-3550.7866L13784.4299,-3550.5867L13784.3796,-3550.5333L13784.3094,-3550.4066"/>
<path content="AP030,1,28,1,0,14,1,8,JPN" xlink:title="AP030" d="M13782.3303,-3551.5266L13782.4707,-3551.6865L13782.8598,-3551.5064L13783.0399,-3551.4133L13783.0597,-3551.4L13783.5602,-3551.1665L13783.7692,-3551.0399L13783.8593,-3550.9666L13783.9005,-3550.6931L13784.0393,-3550.5665L13784.3094,-3550.4066"/>
<path content="AP030,1,28,1,0,14,1,8,JPN" xlink:title="AP030" d="M13784.3094,-3550.4066L13784.3994,-3550.3334"/>
<path content="AP030,1,28,1,0,15,1,8,JPN" xlink:title="AP030" d="M13784.3994,-3550.3334L13785.3058,-3550.2411L13785.7056,-3550.148L13786.0474,-3550.008L13786.6745,-3549.9146L13786.9583,-3550.6145L13787.1872,-3550.9411L13787.6587,-3551.289"/>
<path content="AP030,1,28,1,0,14,1,8,JPN" xlink:title="AP030" d="M13781.25,-3550.0741L13781.4697,-3549.9931L13781.7703,-3549.9535L13782.2403,-3549.9001L13782.6294,-3549.8333"/>
<path content="AP030,1,28,1,0,14,1,8,JPN" xlink:title="AP030" d="M13784.3994,-3550.3334L13784.4299,-3550.2602L13784.3018,-3550.1316L13784.2697,-3550.0999L13784.1293,-3549.9733L13784.0805,-3549.9001L13783.9706,-3549.7398L13783.8303,-3549.5068"/>
<path content="AP030,1,28,1,0,15,1,8,JPN" xlink:title="AP030" d="M13782.6294,-3549.8333L13783.2535,-3549.728L13783.8303,-3549.5068"/>
<path content="AP030,1,28,1,0,15,1,8,JPN" xlink:title="AP030" d="M13846.2357,-3549.4602L13847.4045,-3550.4795L13847.5906,-3550.6878L13847.9965,-3551.1406L13848.0103,-3551.1738L13848.1583,-3551.5369L13848.1583,-3551.9337L13848.2117,-3552.5066L13848.2239,-3552.6081L13848.2651,-3552.9472L13848.2117,-3553.3882L13847.5113,-3553.7846"/>
<path content="AP030,1,28,1,0,15,1,8,JPN" xlink:title="AP030" d="M13846.8124,-3550.6557L13846.2357,-3549.4602"/>
<path content="AP030,1,28,1,0,15,1,8,JPN" xlink:title="AP030" d="M13846.2357,-3549.4602L13846.0037,-3548.9811L13845.9503,-3548.1438"/>
<path content="AP030,1,28,1,0,15,1,8,JPN" xlink:title="AP030" d="M13845.9503,-3548.1438L13846.8903,-3547.9763L13847.2092,-3548.0293L13848.2025,-3548.1941L13848.6725,-3548.0137"/>
<path content="AP030,1,28,1,0,14,1,8,JPN" xlink:title="AP030" d="M13783.8303,-3549.5068L13784.0057,-3549.4003L13784.0393,-3549.3801L13784.1797,-3549.3267L13784.4299,-3549.2332L13784.4894,-3549.2001L13784.52,-3549.0932L13784.4894,-3548.7667L13784.4894,-3548.6401L13784.6802,-3548.46L13784.8099,-3548.3532L13785.1105,-3548.0999L13785.0204,-3548.0267L13784.9503,-3547.9534L13784.9503,-3547.7932L13785.0204,-3547.7066L13784.9701,-3547.6532L13784.8099,-3547.5933L13784.8297,-3547.5266L13784.9304,-3547.4865L13785.0403,-3547.4667"/>
<path content="AP030,1,28,1,0,15,1,8,JPN" xlink:title="AP030" d="M13848.6725,-3548.0137L13849.4446,-3548.1247L13850.2655,-3547.9515L13851.2344,-3547.9397L13851.5625,-3547.9864"/>
<path content="AP030,1,28,1,0,15,1,8,JPN" xlink:title="AP030" d="M13848.6725,-3548.0137L13848.3734,-3547.2183"/>
<path content="AP030,1,28,1,0,15,1,8,JPN" xlink:title="AP030" d="M13845.9503,-3548.1438L13846.4355,-3547.5266L13847.0276,-3547.3503L13847.6822,-3547.3206L13847.9965,-3547.3064L13848.3734,-3547.2183"/>
<path content="AP030,1,28,1,0,15,1,8,JPN" xlink:title="AP030" d="M13787.6587,-3551.289L13788.6459,-3550.4135L13788.7085,-3549.8936L13788.4933,-3548.8449L13788.6444,-3548.2227L13788.5757,-3547.8039L13788.1805,-3547.0634L13787.1307,-3546.46"/>
<path content="AP030,1,28,1,0,14,1,8,JPN" xlink:title="AP030" d="M13785.0403,-3547.4667L13785.2203,-3547.4865L13785.4004,-3547.5601L13785.4507,-3547.5067L13785.3806,-3547.3999L13785.3806,-3547.3465L13785.7193,-3547.1664L13786.0199,-3547.0734L13786.1801,-3546.9868L13786.3297,-3546.8601L13786.3998,-3546.7464L13786.38,-3546.6934L13786.2,-3546.7335L13786.1298,-3546.7335L13786.1099,-3546.6934L13786.3602,-3546.5134L13786.4502,-3546.4268L13786.6104,-3546.4066L13786.7905,-3546.3531L13786.9293,-3546.3734L13787.0605,-3546.4268L13787.1307,-3546.46"/>
<path content="AP030,1,28,1,0,15,1,8,JPN" xlink:title="AP030" d="M13848.3734,-3547.2183L13849.0799,-3546.3531"/>
<path content="AP030,1,28,1,0,14,1,8,JPN" xlink:title="AP030" d="M13849.0799,-3546.3531L13849.1806,-3546.3333L13849.2706,-3546.4268L13849.4003,-3546.5332L13849.4705,-3546.5668L13849.5605,-3546.6064L13849.7192,-3546.5866L13849.9695,-3546.5534L13850.0397,-3546.64L13850.0595,-3546.6599L13850.1099,-3546.6934L13850.2197,-3546.7133L13850.2701,-3546.7133L13850.3296,-3546.6934L13850.3998,-3546.6599L13850.5402,-3546.7133L13850.65,-3546.7464L13850.7401,-3546.7464L13850.8301,-3546.7133L13850.8804,-3546.5134L13850.9705,-3546.4066L13851.0803,-3546.3734L13851.1505,-3546.4066L13851.1993,-3546.5L13851.1993,-3546.6202L13851.1993,-3546.6801L13851.2207,-3546.7133L13851.5625,-3546.7776"/>
<path content="AP030,1,28,1,0,14,1,8,JPN" xlink:title="AP030" d="M13848.9502,-3546.2601L13849.0402,-3546.3333L13849.0799,-3546.3531"/>
<path content="AP030,1,28,1,0,15,1,8,JPN" xlink:title="AP030" d="M13848.3734,-3547.2183L13848.9502,-3546.2601"/>
<path content="AP030,1,28,1,0,14,1,8,JPN" xlink:title="AP030" d="M13787.1307,-3546.46L13787.2894,-3546.4401L13787.5198,-3546.3531L13787.5397,-3546.3333L13788.06,-3546.1334"/>
<path content="AP030,1,28,1,0,14,1,8,JPN" xlink:title="AP030" d="M13794.0201,-3545.2534L13794.1101,-3545.2534L13794.6793,-3545.2202L13794.8105,-3545.1801"/>
<path content="AP030,1,28,1,0,15,1,8,JPN" xlink:title="AP030" d="M13788.3447,-3552.0526L13790.1703,-3549.4789L13791.954,-3547.2996L13792.7277,-3545.9629L13793.2266,-3545.1412L13793.5226,-3545.1488L13794.0201,-3545.2534"/>
<path content="AP030,1,28,1,0,14,1,4,JPN" xlink:title="AP030" d="M13794.8105,-3545.1801L13796.5393,-3544.9265L13798.4894,-3544.68L13798.8297,-3544.5667L13798.9502,-3544.5L13799.0799,-3544.3535"/>
<path content="AP030,1,28,1,0,14,1,8,JPN" xlink:title="AP030" d="M13799.2004,-3544.1734L13799.2004,-3544.1933L13799.2706,-3544.26L13799.2905,-3544.3733L13799.4003,-3544.3867L13799.4705,-3544.4801L13799.6094,-3544.7132L13799.6307,-3544.8399L13799.6307,-3545.1267L13799.6796,-3545.3068L13799.8093,-3545.4334L13799.8306,-3545.6333L13799.9496,-3545.8332L13799.9496,-3546.0999L13800.0397,-3546.2601L13800.0595,-3546.3531L13800.1099,-3546.4401L13800.1495,-3546.5668L13800.1495,-3546.6934L13800.2701,-3546.8601L13800.3098,-3546.9265L13800.3601,-3547.0734L13800.3998,-3547.2L13800.47,-3547.3064L13800.5203,-3547.3465L13800.6302,-3547.4533L13800.7004,-3547.5933L13800.9506,-3547.9401L13801.1093,-3548.0465L13801.1795,-3548.0667L13801.2405,-3548.0667L13801.3596,-3548.0667L13801.3794,-3548.0999L13801.3992,-3548.2468L13801.4297,-3548.2601L13801.5198,-3548.3002L13801.6098,-3548.3532L13801.6296,-3548.3734L13801.5396,-3548.4402L13801.4496,-3548.4264L13801.3794,-3548.4264L13801.3794,-3548.5001L13801.3992,-3548.5134L13801.4496,-3548.5664L13801.4893,-3548.6065L13801.4694,-3548.6198L13801.3992,-3548.6065L13801.2894,-3548.6065L13801.1993,-3548.6935L13801.1505,-3548.84L13801.1795,-3548.84L13801.2405,-3548.84L13801.3107,-3548.7999L13801.3794,-3548.7465L13801.3992,-3548.7667L13801.4297,-3548.7999L13801.3107,-3548.8731L13801.3107,-3548.9265L13801.3306,-3548.9864L13801.3306,-3549.1264L13801.3306,-3549.2535L13801.2894,-3549.3599L13801.2894,-3549.4667L13801.3596,-3549.58L13801.3596,-3549.5934L13801.3596,-3549.6532L13801.3596,-3549.7066L13801.4496,-3549.8466L13801.4496,-3549.9199L13801.4694,-3549.9733L13801.4694,-3550.0267L13801.4694,-3550.0668L13801.4893,-3550.0801L13801.5594,-3550.1202L13801.6495,-3550.1331L13801.6495,-3550.2068L13801.6495,-3550.2602L13801.6495,-3550.3532L13801.6296,-3550.3864L13801.5594,-3550.5333L13801.5396,-3550.6599L13801.6296,-3550.7866L13801.6495,-3550.84L13801.6495,-3550.9266L13801.6998,-3550.9464L13801.6998,-3551.0201L13801.6998,-3551.0735L13801.6998,-3551.1066L13801.6495,-3551.1997L13801.68,-3551.2333L13801.7899,-3551.3466L13801.8997,-3551.4534L13802.0203,-3551.5934L13802.0599,-3551.72L13802.0599,-3551.9531L13802.1103,-3552.0664L13802.15,-3552.1732L13802.1301,-3552.3533L13802.15,-3552.3731L13802.2705,-3552.4067L13802.5406,-3552.4998L13802.5192,-3552.5665L13802.5406,-3552.6199L13802.5803,-3552.6932L13802.5604,-3552.6932L13802.4704,-3552.7664L13802.4506,-3552.8198L13802.4704,-3552.9266L13802.5192,-3553.0399L13802.5803,-3553.1067L13802.5803,-3553.1265L13802.6794,-3553.1265L13802.7206,-3553.1067L13802.7893,-3553.1067L13802.8595,-3553.1067L13802.9007,-3553.1265L13802.9297,-3553.1998L13802.8793,-3553.36L13802.8793,-3553.4534L13802.9495,-3553.5599L13802.9495,-3553.5934L13802.9297,-3553.6133L13802.8107,-3553.6133L13802.7206,-3553.6533L13802.6794,-3553.7731L13802.7206,-3553.8132L13802.7893,-3553.8666L13802.9297,-3553.9734L13803.0197,-3554.0798L13803.0396,-3554.2465L13803.0396,-3554.4998L13803.0594,-3554.5532L13803.1799,-3554.66L13803.36,-3554.9267L13803.4897,-3555.0732L13803.8101,-3555.2334L13803.8605,-3555.2868L13803.9703,-3555.4665L13803.9902,-3555.4867L13804.2694,-3555.5798L13804.2892,-3555.6332L13804.2007,-3555.7198L13804.1306,-3555.7732L13804.0405,-3555.8666L13803.9902,-3555.9933L13803.8803,-3556.2065L13803.7003,-3556.62L13803.6804,-3556.8398L13803.5202,-3557.0198L13803.5202,-3557.0934L13803.54,-3557.1266L13803.6102,-3557.3067L13803.6102,-3557.3265L13803.5797,-3557.3467L13803.5599,-3557.3799L13803.5797,-3557.4665"/>
<path content="AP030,1,28,1,0,14,1,8,JPN" xlink:title="AP030" d="M13799.0799,-3544.3535L13799.2004,-3544.1734"/>
<path content="AP030,1,28,1,0,14,1,8,JPN" xlink:title="AP030" d="M13845.5795,-3550.9865L13845.5597,-3550.9266L13845.3796,-3550.9132L13845.2393,-3550.84L13844.7693,-3550.5665L13844.5602,-3550.4601L13844.5206,-3550.2266L13844.4901,-3549.9001L13844.4504,-3549.7066L13844.4901,-3549.5602L13844.5801,-3549.4534L13844.7906,-3549.3465L13845.0394,-3549.2332L13845.1492,-3549.1665L13845.2194,-3548.84L13845.1996,-3548.6401L13845.1797,-3548.5535L13844.8303,-3548.3532L13844.6793,-3548.2265L13844.5602,-3548.1335L13844.4504,-3547.7932L13844.4,-3547.6868L13844.3604,-3547.5266L13844.31,-3547.2534L13844.31,-3546.9467L13844.2001,-3546.8601L13844.0796,-3546.7667L13844.0399,-3546.6934L13844.0201,-3546.6599L13843.9896,-3546.5866L13843.9301,-3546.3734L13843.9499,-3546.1201L13844.3604,-3545.5601L13844.5602,-3545.3465L13844.5404,-3545.2332L13844.4702,-3545.1466L13844.0399,-3544.64L13843.7897,-3544.3001L13843.6996,-3544.12L13843.6581,-3544.0431"/>
<path content="AP030,1,28,1,0,15,1,8,JPN" xlink:title="AP030" d="M13785.0403,-3547.4667L13784.8495,-3546.9288L13784.3369,-3546.2292L13783.8242,-3545.7626L13783.0261,-3545.6226L13782.7972,-3545.3892L13782.7972,-3545.0161L13782.8552,-3543.8965"/>
<path content="AP030,1,28,1,0,14,1,8,JPN" xlink:title="AP030" d="M13788.06,-3546.1334L13788.3301,-3546.0464L13788.6093,-3545.9202L13788.8306,-3545.9L13789.0198,-3545.8332L13789.1296,-3545.7066L13789.1495,-3545.4334L13789.3097,-3545.3602L13789.4897,-3545.2732L13789.6301,-3545.1267L13789.8605,-3545.0001L13790.0192,-3544.9467L13790.2405,-3544.8734L13790.4694,-3544.8601L13790.86,-3544.8601L13791.0202,-3544.8601L13791.1301,-3544.8601L13791.2201,-3544.8399L13791.3101,-3544.3733L13791.4307,-3544.3733L13791.4902,-3544.4065L13791.5604,-3544.3733L13791.5802,-3544.2799L13791.7694,-3544.1532L13791.9296,-3544.1002L13791.9907,-3544.0132L13792.0197,-3543.9732L13791.9907,-3543.94L13791.8594,-3543.8866L13791.7694,-3543.8133"/>
<path content="AP030,1,28,1,0,15,1,8,JPN" xlink:title="AP030" d="M13843.6581,-3544.0431L13844.3207,-3543.795L13845.1782,-3544.3794L13845.433,-3544.6114L13846.1075,-3544.701"/>
<path content="AP030,1,28,1,0,14,1,8,JPN" xlink:title="AP030" d="M13783.8303,-3549.5068L13783.7906,-3549.3801L13783.7402,-3549.2867L13783.7402,-3549.0932L13783.7402,-3548.9468L13783.7402,-3548.84L13783.7204,-3548.6801L13783.6807,-3548.5664L13783.6502,-3548.4264L13783.6807,-3548.0465L13783.6304,-3547.8333L13783.6105,-3547.8134L13783.4702,-3547.76L13783.2901,-3547.7402L13783.0597,-3547.7402L13782.93,-3547.6868L13782.6294,-3547.4335L13782.3807,-3547.2L13782.3593,-3547.0932L13782.3303,-3546.9467L13782.2403,-3546.8601L13782.0602,-3546.7667L13781.9702,-3546.6801L13781.9504,-3546.5332L13781.8604,-3546.3867L13781.7398,-3546.32L13781.5598,-3546.2799L13781.3293,-3546.2067L13781.25,-3546.1783"/>
<path content="AP030,1,28,1,0,14,1,8,JPN" xlink:title="AP030" d="M13843.6581,-3544.0431L13843.6096,-3543.9533L13843.6096,-3543.7401L13843.6295,-3543.7199L13843.7195,-3543.5265L13844.0598,-3543.2865L13844.2703,-3543.1801L13844.3298,-3542.82L13844.4,-3542.4065L13844.4504,-3542.0799"/>
<path content="AP030,1,28,1,0,14,1,8,JPN" xlink:title="AP030" d="M13845.7624,-3541.9679L13845.8099,-3541.9731L13845.9305,-3541.9933L13846.1304,-3542.12L13846.1304,-3542.2264L13846.2402,-3542.4267L13846.3303,-3542.5533L13846.5607,-3542.6201L13846.6797,-3542.6067L13846.9894,-3542.7666L13847.0596,-3542.7868L13847.2198,-3542.82L13847.2702,-3542.86L13847.3099,-3543.1065L13847.4243,-3543.2976L13847.4304,-3543.3067L13847.4899,-3543.4334L13847.4304,-3543.6535L13847.4701,-3543.7733L13847.5204,-3543.7935L13847.7905,-3543.9533L13848.1506,-3544.26L13848.4299,-3544.4801L13848.5199,-3544.5866L13848.5397,-3544.68L13848.5199,-3544.7865L13848.3307,-3545.2L13848.3093,-3545.2732L13848.3093,-3545.2866L13848.2407,-3545.4533L13848.3994,-3545.7932L13848.4894,-3545.8668L13848.6099,-3546.0999L13848.8098,-3546.2067L13848.9502,-3546.2601"/>
<path content="AP030,1,28,1,0,14,1,8,JPN" xlink:title="AP030" d="M13844.4504,-3542.0799L13844.8807,-3541.9201L13845.3293,-3541.9201L13845.7624,-3541.9679"/>
<path content="AP030,1,28,1,0,15,1,8,JPN" xlink:title="AP030" d="M13788.06,-3546.1334L13788.2996,-3545.0497L13788.1668,-3544.1074L13787.1796,-3543.2472L13787.4893,-3542.9424L13786.8851,-3542.0921L13786.9003,-3541.6752"/>
<path content="AP030,1,28,1,0,15,1,8,JPN" xlink:title="AP030" d="M13782.8552,-3543.8965L13783.8089,-3543.6115L13784.2331,-3543.6226L13784.9884,-3542.8078L13785.6445,-3542.3031L13786.9003,-3541.6752"/>
<path content="AP030,1,28,1,0,15,1,8,JPN" xlink:title="AP030" d="M13830.5038,-3557.9365L13830.1743,-3557.3509L13830.3879,-3556.7532L13830.7205,-3556.1264L13830.6488,-3554.7607L13830.423,-3554.5654L13830.8029,-3553.6541L13830.7053,-3553.0811L13831.6544,-3552.5314L13832.2037,-3551.1799L13833.1589,-3550.4398L13833.2581,-3549.8077L13832.785,-3548.8457L13833.7906,-3547.7894L13834.1141,-3546.2109L13833.8638,-3545.5391L13834.2697,-3544.9772L13833.3069,-3543.6237L13833.017,-3543.0466L13833.3771,-3542.6739L13834.5581,-3542.1288L13834.8648,-3542.2306L13835.4355,-3541.3551"/>
<path content="AP030,1,28,1,0,15,1,8,JPN" xlink:title="AP030" d="M13835.4355,-3541.3551L13835.8734,-3540.9843L13836.6959,-3540.7482L13838.0707,-3541.3494L13838.7466,-3542.03L13839.9109,-3541.9281L13841.0553,-3542.4919L13841.3712,-3543.5455L13841.8411,-3543.3971L13842.7963,-3542.5926L13843.8873,-3542.4255L13844.4504,-3542.0799"/>
<path content="AP030,1,28,1,0,15,1,8,JPN" xlink:title="AP030" d="M13782.8552,-3543.8965L13782.9697,-3542.1703L13783.3115,-3541.7969L13783.8242,-3541.7038L13783.9951,-3541.6103L13783.9951,-3541.3303L13784.1095,-3541.0973L13784.3933,-3540.9573L13784.4513,-3540.8638L13784.4513,-3540.6307L13784.2804,-3540.4442L13783.9386,-3540.3042L13783.4244,-3540.3042L13783.3115,-3540.0242"/>
<path content="AP030,1,28,1,0,15,1,8,JPN" xlink:title="AP030" d="M13781.25,-3540.0704L13782.4524,-3540.3072L13783.3115,-3540.0242"/>
<path content="AP030,1,28,1,0,15,1,8,JPN" xlink:title="AP030" d="M13832.0847,-3539.6004L13832.6782,-3540.3748L13832.663,-3540.8501L13832.5363,-3541.1644L13832.962,-3541.1739L13833.5846,-3541.0923L13834.1522,-3541.4856L13834.8511,-3541.4375L13835.4355,-3541.3551"/>
<path content="AP030,1,28,1,0,14,1,8,JPN" xlink:title="AP030" d="M13844.4504,-3542.0799L13844.4702,-3541.9201L13844.4305,-3541.7732L13844.2703,-3541.5401L13844.2001,-3540.7867L13844.1803,-3540.3866L13844.22,-3540.3198L13844.22,-3540.1531L13844.2902,-3540.0467L13844.2398,-3539.9532L13844.1498,-3539.7732L13844.1498,-3539.6866L13844.2001,-3539.4531L13844.22,-3539.1998L13844.3298,-3539.04L13844.4504,-3538.9465L13844.5404,-3538.8401L13844.6106,-3538.7333L13844.5801,-3538.7135L13844.7205,-3538.3732L13844.7403,-3538.3331L13844.8303,-3538.2465"/>
<path content="AP030,1,28,1,0,15,1,8,JPN" xlink:title="AP030" d="M13786.9003,-3541.6752L13786.1145,-3541.1331L13786.8256,-3540.3172L13786.5143,-3539.579L13785.8002,-3539.3864L13784.9533,-3539.3295L13784.9731,-3538.8432L13784.4467,-3538.1687L13783.6101,-3537.8883"/>
<path content="AP030,1,28,1,0,15,1,8,JPN" xlink:title="AP030" d="M13783.3115,-3540.0242L13783.4824,-3539.4176L13783.6101,-3537.8883"/>
<path content="AP030,1,28,1,0,14,1,8,JPN" xlink:title="AP030" d="M13842.1097,-3536.4265L13842.54,-3536.5532L13842.8802,-3536.6066L13843.4692,-3536.6402L13843.8095,-3536.66L13843.9499,-3536.6798L13844.2398,-3536.7466L13844.4,-3536.8401L13844.4504,-3536.8935L13844.6793,-3537.1265L13844.8303,-3537.4332L13844.9493,-3537.7068L13844.9707,-3537.9398L13844.9295,-3538.1001L13844.8303,-3538.2465"/>
<path content="AP030,1,28,1,0,14,1,8,JPN" xlink:title="AP030" d="M13842.1097,-3536.4265L13842.1295,-3536.5002L13842.1997,-3536.5532L13842.3096,-3536.6066L13842.4301,-3536.6932L13842.6102,-3536.8599L13842.6804,-3536.8401L13842.7399,-3536.8198L13842.8604,-3536.8198L13842.9504,-3536.8401L13843.2007,-3537.0533L13843.4906,-3537.0533L13844.3604,-3536.9999L13844.3802,-3537.1468L13844.4305,-3537.3798L13844.5801,-3537.6331L13844.7403,-3537.8334L13844.7693,-3537.92L13844.7693,-3538.0264L13844.7693,-3538.1733L13844.8303,-3538.2465"/>
<path content="AP030,1,28,1,0,14,1,8,JPN" xlink:title="AP030" d="M13792.63,-3531.4865L13792.72,-3531.5399L13793.0206,-3531.7932L13793.1107,-3531.8867L13793.2007,-3531.9L13793.3304,-3531.9199L13793.4296,-3531.953L13793.4494,-3532.0133L13793.5806,-3532.28L13793.6295,-3532.3864L13793.6493,-3532.4398L13793.7897,-3532.5867L13793.8599,-3532.5867L13793.9301,-3532.5867L13794.0399,-3532.5333L13794.22,-3532.5333L13794.4901,-3532.6401L13794.5404,-3532.6199L13794.5602,-3532.5867L13794.6304,-3532.4799L13794.7006,-3532.4799L13794.7906,-3532.513L13794.9295,-3532.5665L13795.0195,-3532.5867L13795.1096,-3532.5333L13795.1797,-3532.5665L13795.1797,-3532.6599L13795.1492,-3532.7465L13795.2194,-3532.9132L13795.3995,-3533.073L13795.52,-3533.1799L13795.61,-3533.2733L13795.5597,-3533.5064L13795.4895,-3533.54L13795.3094,-3533.6132L13795.2896,-3533.6533L13795.2393,-3533.6666L13795.1797,-3533.72L13795.0394,-3533.7601L13794.9905,-3533.8333L13794.9905,-3533.9001L13795.0195,-3533.9535L13795.0806,-3533.9733L13795.2194,-3533.9535L13795.2896,-3533.9733L13795.3094,-3534.1L13795.2698,-3534.2068L13795.1492,-3534.4265L13795.1797,-3534.5665L13795.2698,-3534.6931L13795.52,-3534.84L13795.5399,-3534.9667L13795.5597,-3535.1265L13795.6497,-3535.2734L13795.6299,-3535.36L13795.52,-3535.4332L13795.4697,-3535.5064L13795.4697,-3535.5801L13795.5399,-3535.6335L13795.6497,-3535.6533L13795.9305,-3535.6533L13795.99,-3535.7201L13796.0205,-3535.8467L13795.9702,-3535.9402L13795.9503,-3536.0466L13796.0205,-3536.1732L13796.1105,-3536.3335L13796.1304,-3536.4601L13796.1304,-3536.5532L13796.2006,-3536.6798L13796.3303,-3536.8401L13796.5195,-3536.9865L13796.5195,-3537.2002L13796.5607,-3537.3798L13796.7194,-3537.7602L13796.8597,-3538.1199L13796.8796,-3538.2267L13796.8796,-3538.2801L13796.8994,-3538.4068L13797.0795,-3538.5334L13797.0795,-3538.5864L13797.0596,-3538.6398L13797.0596,-3538.6932L13797.1298,-3539.1266L13797.11,-3539.2735L13797.02,-3539.3467L13796.9894,-3539.4531L13797.02,-3539.5065L13797.1802,-3539.6332L13797.2397,-3539.6866L13797.2702,-3539.7598L13797.2198,-3539.8335L13797.1802,-3539.9532L13797.2397,-3540.0467L13797.2198,-3540.1333L13797.2,-3540.1932L13797.2,-3540.2267L13797.2397,-3540.3534L13797.3099,-3540.48L13797.3297,-3540.6067L13797.4503,-3540.9134L13797.5403,-3541.1999L13797.6105,-3541.2533L13797.7005,-3541.2731L13797.7707,-3541.2865L13797.7905,-3541.3467L13797.7707,-3541.4001L13797.7203,-3541.4532L13797.7402,-3541.5264L13797.8104,-3541.5798L13797.9294,-3541.6534L13797.9507,-3541.7065L13797.9904,-3541.7599L13798.0804,-3541.8331L13798.1094,-3541.9201L13798.1293,-3542.0132L13798.1995,-3542.1734L13798.3597,-3542.3199L13798.4299,-3542.4599L13798.4299,-3542.5865L13798.4695,-3542.6067L13798.6298,-3542.7334L13798.7701,-3542.8398L13798.8098,-3542.9466L13798.8098,-3543.0931L13798.8998,-3543.2533L13798.9304,-3543.3468L13798.8998,-3543.4532L13798.9502,-3543.5066L13799.0204,-3543.56L13799.0402,-3543.5799L13799.0402,-3543.6867L13799.0799,-3543.7401L13799.2203,-3543.8866L13799.2706,-3544.0132L13799.2004,-3544.1334L13799.2004,-3544.1734"/>
<path content="AP030,1,28,1,0,14,1,8,JPN" xlink:title="AP030" d="M13842.1097,-3536.4265L13842.0807,-3536.3335L13842.0807,-3536.1935L13842.1799,-3536.1L13842.1799,-3536.0268L13842.1097,-3535.92L13842.1097,-3535.4866L13842.1097,-3535.4134L13842.1097,-3535.2867L13842.0807,-3534.9667L13842.1097,-3534.8732L13842.2195,-3534.6802L13842.2699,-3534.5665L13842.2897,-3534.5665L13842.2897,-3534.5135L13842.3096,-3534.1534L13842.3798,-3533.9199L13842.3996,-3533.7067L13842.3798,-3533.6533L13842.3996,-3533.58L13842.5797,-3533.4L13842.8299,-3532.9464L13842.8299,-3532.7866L13842.8101,-3532.6199L13842.8604,-3532.5531L13843.1793,-3532.3864L13843.4692,-3532.373L13843.4906,-3532.2998L13843.5196,-3532.2464L13843.6493,-3532.1198L13843.6996,-3532.1331L13843.7897,-3532.1732L13843.9301,-3532.0801L13843.9301,-3532.0663L13843.9499,-3531.8867L13843.9697,-3531.5933L13843.9499,-3531.5399L13843.8797,-3531.4865L13843.8797,-3531.4133L13843.9499,-3531.3465L13844.1803,-3531.2531L13844.1803,-3531.2332L13844.1803,-3531.1264L13844.2703,-3531.0932L13844.4305,-3531.0932L13844.6503,-3530.9265L13844.6793,-3530.1933"/>
<path content="AP030,1,28,1,0,14,1,8,JPN" xlink:title="AP030" d="M13781.25,-3531.7996L13781.3095,-3531.8867L13781.3095,-3532.0267L13781.25,-3532.168"/>
<path content="AP030,1,28,1,0,15,1,8,JPN" xlink:title="AP030" d="M13817.9596,-3532.3307L13818.6249,-3531.4266L13818.399,-3530.9013L13818.9423,-3530.714L13819.3848,-3530.6046L13819.8135,-3530.8945L13820.2713,-3530.3852L13820.52,-3530.2307L13820.9976,-3530.5218L13821.4462,-3530.2525L13821.4249,-3529.327"/>
<path content="AP030,1,28,1,0,15,1,8,JPN" xlink:title="AP030" d="M13820.1584,-3529.7932L13820.1584,-3529.3789L13820.4742,-3529.3789L13820.8542,-3529.586L13821.0449,-3529.7932L13821.4249,-3529.6898L13821.4249,-3529.327"/>
<path content="AP030,1,28,1,0,15,1,8,JPN" xlink:title="AP030" d="M13845.7624,-3541.9679L13845.5185,-3540.4068L13845.0363,-3539.5912L13845.3308,-3538.0367L13845.3369,-3537.6785L13845.3369,-3537.6087L13845.3491,-3536.8233L13845.2225,-3535.6949L13844.8624,-3534.33L13845.3476,-3531.7253L13845.8527,-3529.9168L13845.99,-3529.4262L13846.1212,-3528.9608"/>
<path content="AP030,1,28,1,0,15,1,8,JPN" xlink:title="AP030" d="M13844.6793,-3530.1933L13845.5536,-3529.0154L13846.1212,-3528.9608"/>
<path content="AP030,1,28,1,0,15,1,8,JPN" xlink:title="AP030" d="M13846.1212,-3528.9608L13846.225,-3528.7292L13846.3425,-3528.4649L13846.3593,-3528.4294"/>
<path content="AP030,1,28,1,0,14,1,8,JPN" xlink:title="AP030" d="M13792.63,-3531.4865L13792.5201,-3531.4533L13792.4301,-3531.4331L13792.3096,-3531.4133L13792.2394,-3531.3267L13792.1799,-3531.3267L13792.0197,-3531.2866L13791.9495,-3531.2531L13791.8594,-3531.1798L13791.6794,-3531.1264L13791.4703,-3531.0398L13791.3101,-3530.9265L13791.2201,-3530.8933L13791.1301,-3530.8598L13791.04,-3530.8731L13790.9302,-3530.9464L13790.77,-3530.9998L13790.5594,-3530.9998L13790.4495,-3530.9132L13790.3595,-3530.8201L13790.2405,-3530.7667L13790.0406,-3530.6599L13789.8605,-3530.5664L13789.7202,-3530.5134L13789.6301,-3530.4798L13789.5203,-3530.4798L13789.4501,-3530.4066L13789.3997,-3530.3734L13789.3295,-3530.3333L13789.2197,-3530.32L13789.0396,-3530.2799L13788.8992,-3530.2067L13788.7405,-3530.0465L13788.5406,-3530.0465L13788.3301,-3530.0465L13788.2004,-3530.0266L13787.9898,-3529.8866L13787.8998,-3529.8866L13787.7396,-3529.9198L13787.6999,-3529.9L13787.6099,-3529.8466L13787.5198,-3529.7733L13787.4695,-3529.7199L13787.4893,-3529.5799L13787.4496,-3529.5265L13787.2894,-3529.3465L13787.1506,-3529.2198L13787.1094,-3529.1798L13787.0804,-3529.1798L13786.9904,-3529.2L13786.9293,-3529.2332L13786.8607,-3529.2332L13786.6806,-3529.1798L13786.6302,-3529.1664L13786.5799,-3529.1065L13786.5799,-3528.9864L13786.5402,-3528.9467L13786.4304,-3528.8933L13786.38,-3528.8399L13786.3602,-3528.7331L13786.3098,-3528.7132L13786.2,-3528.7331L13785.9299,-3528.7464L13785.8093,-3528.6934L13785.7895,-3528.64L13785.8093,-3528.5866L13785.8597,-3528.4798L13785.7697,-3528.4264L13785.6293,-3528.4264L13785.5789,-3528.4386L13785.4904,-3528.4599L13785.4294,-3528.3867L13785.4294,-3528.1933L13785.4004,-3528.08L13785.4004,-3527.993"/>
<path content="AP030,1,28,1,0,15,1,8,JPN" xlink:title="AP030" d="M13783.6101,-3537.8883L13783.6487,-3537.4256L13783.4244,-3536.945L13783.4244,-3536.7119L13783.4824,-3536.2919L13783.7097,-3536.0119L13784.0515,-3535.9653L13784.2804,-3535.7788L13784.3369,-3535.3588L13784.6222,-3535.0788L13785.0204,-3534.8457L13785.0784,-3534.6123L13785.1349,-3534.1927L13784.964,-3533.6792L13784.4513,-3533.5396L13784.1873,-3533.3733L13783.7097,-3533.0727L13783.4244,-3532.6061L13783.4824,-3532.14L13783.7097,-3531.72L13783.9386,-3531.3L13784.7366,-3530.8334L13784.9075,-3530.6004L13784.9075,-3530.4398L13784.9075,-3530.3669L13784.6863,-3530.022L13784.7351,-3529.578L13785.0204,-3529.1538L13785.0784,-3528.8273L13784.8495,-3528.4542L13785.0204,-3528.1277L13785.4004,-3527.993"/>
<path content="AP030,1,28,1,0,15,1,8,JPN" xlink:title="AP030" d="M13844.9493,-3527.6531L13846.3593,-3528.4294"/>
<path content="AP030,1,28,1,0,14,1,8,JPN" xlink:title="AP030" d="M13844.6793,-3530.1933L13844.6503,-3529.5265L13844.6503,-3529.4331L13844.6793,-3529.1664L13844.8303,-3528.7998L13844.8807,-3528.6064L13844.8807,-3528.4264L13844.8807,-3528.133L13844.8807,-3527.993L13844.9493,-3527.6531"/>
<path content="AP030,1,28,1,0,15,1,8,JPN" xlink:title="AP030" d="M13846.3593,-3528.4294L13847.0322,-3526.9276L13847.6303,-3525.6664"/>
<path content="AP030,1,28,1,0,14,1,8,JPN" xlink:title="AP030" d="M13844.9493,-3527.6531L13845.1797,-3527.2732L13845.43,-3527.0397L13845.6802,-3526.9264L13846.0205,-3526.6933L13846.2204,-3526.4263L13846.3806,-3526.3531L13846.6507,-3526.3L13846.8597,-3526.1932L13847.02,-3525.9731L13847.1298,-3525.8865L13847.3297,-3525.8465L13847.4701,-3525.8133L13847.6303,-3525.6664"/>
<path content="AP030,1,28,1,0,14,1,8,JPN" xlink:title="AP030" d="M13782.4005,-3525.2865L13782.4707,-3525.3265L13782.5806,-3525.3998L13782.6492,-3525.4131L13782.7393,-3525.3265L13782.93,-3525.3265L13782.7698,-3525.5398L13782.7896,-3525.6866L13782.8598,-3525.7401L13782.8796,-3525.9399L13782.8598,-3526.0666L13782.7194,-3526.26L13782.6797,-3526.3199L13782.6797,-3526.3733L13782.7393,-3526.3866L13782.8796,-3526.4065L13783.02,-3526.4263L13783.0399,-3526.4999L13783.1299,-3526.5865L13783.3099,-3526.7464L13783.4503,-3526.82L13783.58,-3526.873L13783.7204,-3526.9466L13783.9294,-3527.0397L13784.2407,-3527.2331L13784.3307,-3527.2865L13784.4696,-3527.2732L13784.5795,-3527.2331L13784.7198,-3527.2331L13784.8602,-3527.2331L13784.8999,-3527.2198L13784.8999,-3527.1664L13784.8999,-3527.0931L13784.9701,-3527.0931L13785.0403,-3527.1797L13785.08,-3527.2198L13785.1807,-3527.2331L13785.3607,-3527.3998L13785.5392,-3527.56L13785.5392,-3527.6665L13785.4507,-3527.8465L13785.4004,-3527.993"/>
<path content="AP030,1,28,1,0,14,1,8,JPN" xlink:title="AP030" d="M13782.4005,-3525.2865L13782.3593,-3525.3265L13782.3593,-3525.3998L13782.2693,-3525.4532L13782.2006,-3525.4864L13782.1503,-3525.5398L13782.1304,-3525.6332L13782.0602,-3525.6531L13781.9305,-3525.6664L13781.8802,-3525.7065L13781.7703,-3525.7198L13781.6803,-3525.7065L13781.5598,-3525.7065L13781.4697,-3525.6531L13781.3599,-3525.6531L13781.2897,-3525.7065L13781.2698,-3525.7931L13781.25,-3525.8092"/>
<path content="AP030,1,28,1,0,14,1,8,JPN" xlink:title="AP030" d="M13847.6303,-3525.6664L13847.7402,-3525.4532L13847.8302,-3525.2197L13848.0194,-3524.8199L13848.4299,-3524.3L13848.6298,-3524.1199"/>
<path content="AP030,1,28,1,0,14,1,8,JPN" xlink:title="AP030" d="M13790.1993,-3523.653L13790.3107,-3523.6664"/>
<path content="AP030,1,28,1,0,14,1,8,JPN" xlink:title="AP030" d="M13792.63,-3531.4865L13792.7002,-3531.4331L13792.8101,-3531.3065L13792.8299,-3531.2332L13792.8101,-3531.0532L13792.8101,-3530.9464L13792.7902,-3530.9464L13792.7902,-3530.7865L13792.72,-3530.6599L13792.72,-3530.5332L13792.72,-3530.32L13792.7704,-3530.2265L13792.7902,-3530.1331L13792.7399,-3529.9931L13792.6804,-3529.8866L13792.5598,-3529.7398L13792.4698,-3529.6532L13792.3798,-3529.6131L13792.2699,-3529.5799L13792.1997,-3529.5399L13792.1997,-3529.4533L13792.1494,-3529.38L13791.9495,-3529.2534L13791.9296,-3529.2L13791.9296,-3529.0733L13791.8106,-3528.7666L13791.8304,-3528.5L13791.8106,-3528.2997L13791.7694,-3528.2467L13791.7404,-3528.1933L13791.7694,-3528.133L13791.8304,-3528.08L13791.8106,-3528.0464L13791.7404,-3528.0464L13791.7007,-3528.0266L13791.6504,-3527.8999L13791.6794,-3527.8465L13791.7694,-3527.7931L13791.7404,-3527.7199L13791.6794,-3527.6863L13791.6107,-3527.56L13791.5604,-3527.4532L13791.5604,-3527.3464L13791.5802,-3527.2331L13791.5604,-3527.1797L13791.5405,-3527.1465L13791.5405,-3527.0733L13791.5802,-3527.0397L13791.5207,-3526.9665L13791.4505,-3526.86L13791.4307,-3526.7864L13791.4307,-3526.6064L13791.4307,-3526.4065L13791.4505,-3526.3531L13791.5207,-3526.3733L13791.5405,-3526.4999L13791.6107,-3526.5133L13791.6504,-3526.4797L13791.6306,-3526.3733L13791.6306,-3526.2466L13791.6306,-3526.173L13791.4703,-3526.1333L13791.3803,-3526.0799L13791.3101,-3526.0265L13791.3605,-3525.9731L13791.4001,-3525.9731L13791.4703,-3525.9731L13791.4703,-3525.9399L13791.4001,-3525.8865L13791.2903,-3525.8663L13791.1804,-3525.7599L13791.1804,-3525.56L13791.2003,-3525.4131L13791.2003,-3525.3063L13791.1804,-3525.1801L13791.1499,-3525.0732L13791.1102,-3525L13791.0202,-3524.9664L13790.9302,-3524.9264L13790.7898,-3524.8734L13790.6799,-3524.7334L13790.6494,-3524.6799L13790.5807,-3524.5331L13790.5396,-3524.44L13790.5396,-3524.3866L13790.5197,-3524.2798L13790.4297,-3524.1932L13790.1993,-3523.653"/>
<path content="AP030,1,28,1,0,14,1,8,JPN" xlink:title="AP030" d="M13791.3605,-3523.4531L13791.4505,-3523.5264L13791.5405,-3523.5798L13791.7404,-3523.8331L13791.7694,-3523.8998L13791.8106,-3523.9532"/>
<path content="AP030,1,28,1,0,14,1,4,JPN" xlink:title="AP030" d="M13790.3107,-3523.6664L13790.4297,-3523.6866L13790.5594,-3523.6332L13790.7898,-3523.4665L13790.95,-3523.3997L13791.1804,-3523.3997L13791.3605,-3523.4531"/>
<path content="AP030,1,28,1,0,15,1,8,JPN" xlink:title="AP030" d="M13847.6303,-3525.6664L13848.9548,-3524.7829L13849.5667,-3524.5159L13849.8932,-3524.3732L13849.8947,-3524.3721L13850.0687,-3524.3641L13850.9064,-3524.3267L13851.0849,-3523.6736L13851.1322,-3523.5039L13851.3,-3523.3665L13851.5625,-3523.1522"/>
<path content="AP030,1,28,1,0,14,1,8,JPN" xlink:title="AP030" d="M13790.1993,-3523.653L13790.1306,-3523.4665L13789.9307,-3523.18L13789.9506,-3522.7863"/>
<path content="AP030,1,28,1,0,14,1,8,JPN" xlink:title="AP030" d="M13790.1993,-3523.653L13790.1505,-3523.6332L13790.0604,-3523.6134L13789.9307,-3523.5798L13789.83,-3523.5065L13789.7903,-3523.4333L13789.7202,-3523.3067L13789.6805,-3523.18L13789.6805,-3522.9866L13789.7202,-3522.9263L13789.8605,-3522.8001L13789.9506,-3522.7863"/>
<path content="AP030,1,28,1,0,14,1,8,JPN" xlink:title="AP030" d="M13848.6298,-3524.1199L13848.7701,-3524.0131L13848.9899,-3523.8331L13849.2203,-3523.7064L13849.6307,-3523.7064L13849.8596,-3523.7598L13850.1099,-3523.7732L13850.2396,-3523.8132L13850.4898,-3523.5931L13850.6805,-3523.3799L13850.7706,-3523.04L13850.7706,-3523.0198L13850.8102,-3522.7467L13850.9003,-3522.5864L13851.1795,-3522.533L13851.3596,-3522.5666L13851.5625,-3522.5967"/>
<path content="AP030,1,28,1,0,15,1,8,JPN" xlink:title="AP030" d="M13821.4249,-3529.327L13821.6141,-3529.0161L13821.6141,-3527.98L13821.5515,-3527.1511L13822.1207,-3526.6331L13822.1832,-3526.1669L13822.374,-3525.9598L13822.8806,-3525.6489L13823.1339,-3525.1827L13824.0829,-3524.3019L13824.0829,-3523.8358L13824.9695,-3523.2658L13824.9695,-3522.9549L13823.4161,-3521.6743"/>
<path content="AP030,1,28,1,0,15,1,8,JPN" xlink:title="AP030" d="M13823.4161,-3521.6743L13822.7509,-3522.0043L13822.2229,-3521.7922"/>
<path content="AP030,1,28,1,0,15,1,8,JPN" xlink:title="AP030" d="M13823.4161,-3521.6743L13825.412,-3520.779"/>
<path content="AP030,1,28,1,0,15,1,8,JPN" xlink:title="AP030" d="M13822.2229,-3521.7922L13822.5861,-3521.1208L13822.7539,-3520.525L13823.1964,-3520.3751L13823.7167,-3520.8267L13823.909,-3519.4717L13824.5209,-3520.1252L13825.412,-3520.779"/>
<path content="AP030,1,28,1,0,15,1,8,JPN" xlink:title="AP030" d="M13843.5699,-3519.1799L13843.8385,-3520.2892L13844.2856,-3521.0163L13844.8151,-3521.3032L13845.285,-3521.3131L13845.9305,-3521.0785L13846.1304,-3521.1376L13846.3974,-3521.2261L13846.5225,-3521.5046L13846.994,-3521.5145L13847.5174,-3521.9395L13847.9141,-3522.1958L13847.7005,-3522.5777L13847.3862,-3522.9298L13847.5769,-3523.32L13848.1674,-3523.774L13848.6298,-3524.1199"/>
<path content="AP030,1,28,1,0,15,1,8,JPN" xlink:title="AP030" d="M13810.2859,-3518.2739L13810.8765,-3517.8169L13811.7432,-3518.1149L13812.1002,-3517.569L13812.6144,-3517.3317L13812.6572,-3518.0256L13813.3026,-3517.9302L13813.6307,-3517.2173"/>
<path content="AP030,1,28,1,0,15,1,8,JPN" xlink:title="AP030" d="M13825.412,-3520.779L13825.3143,-3519.7037L13824.8932,-3519.2139L13824.9817,-3518.0164L13825.4959,-3517.1883"/>
<path content="AP030,1,28,1,0,15,1,8,JPN" xlink:title="AP030" d="M13813.6307,-3517.2173L13814.2288,-3517.4809L13815.0101,-3517.3332L13815.7593,-3517.1566L13816.1774,-3516.7786L13816.7542,-3516.7088L13817.4835,-3517.0586L13818.2755,-3517.5758L13818.5242,-3517.7059L13818.7729,-3517.8368L13818.75,-3518.5291L13818.2968,-3518.9342L13818.3517,-3519.268L13818.9041,-3518.9205L13819.3344,-3519.1799L13819.4122,-3519.4401L13819.4855,-3519.6823L13819.8029,-3520.2995L13820.0867,-3520.8603L13820.3445,-3521.2265L13820.6741,-3521.4836L13821.4722,-3521.8067L13822.2229,-3521.7922"/>
<path content="AP030,1,28,1,0,15,1,8,JPN" xlink:title="AP030" d="M13814.1296,-3516.481L13813.6307,-3517.2173"/>
<path content="AP030,1,28,1,0,15,1,8,JPN" xlink:title="AP030" d="M13813.6307,-3517.2173L13813.4277,-3516.2704L13813.4323,-3516.132L13814.1296,-3516.481"/>
<path content="AP030,1,28,1,0,14,1,8,JPN" xlink:title="AP030" d="M13789.9506,-3522.7863L13789.9506,-3522.7467L13789.9506,-3522.6933L13789.9307,-3522.6398L13789.83,-3522.62L13789.6805,-3522.62L13789.6103,-3522.5864L13789.65,-3522.533L13789.7003,-3522.48L13789.65,-3522.4266L13789.5798,-3522.4266L13789.5203,-3522.3732L13789.4302,-3522.2065L13789.36,-3522.0131L13789.3997,-3521.8464L13789.3997,-3521.74L13789.2899,-3521.6534L13789.2395,-3521.5797L13789.2197,-3521.4531L13789.2197,-3521.3264L13789.2395,-3521.1464L13789.1495,-3521.0934L13789.0793,-3520.9999L13789.0198,-3520.9267L13788.9893,-3520.8401L13788.9694,-3520.7664L13788.9496,-3520.6398L13788.8992,-3520.5666L13788.8306,-3520.5132L13788.7405,-3520.4597L13788.5406,-3520.4063L13788.4506,-3520.3533L13788.3606,-3520.2599L13788.2904,-3520.0798L13788.2401,-3519.9734L13788.2401,-3519.8864L13788.2202,-3519.7731L13788.1302,-3519.6865L13787.8296,-3519.4134L13787.7396,-3519.3264L13787.7197,-3519.1463L13787.6801,-3519.0533L13787.6099,-3518.9999L13787.4298,-3518.8931L13787.3596,-3518.8599L13787.3306,-3518.7866L13787.3093,-3518.6398L13787.2894,-3518.5665L13787.2696,-3518.4601L13787.2696,-3518.2598L13787.2406,-3518.1931L13787.1506,-3518.1534L13787.1094,-3518.1332L13787.0804,-3518.1198L13787.0605,-3517.9398L13787.0605,-3517.8665L13787.0605,-3517.8333L13787.0804,-3517.7399L13787.1094,-3517.6331L13787.1094,-3517.58L13787.0407,-3517.5266L13786.9507,-3517.4332L13786.9339,-3517.3351L13786.9293,-3517.3065L13786.9705,-3517.1799L13786.9705,-3516.9464L13786.9705,-3516.7999L13786.8607,-3516.6065L13786.8607,-3516.46L13786.8103,-3516.1533L13786.8301,-3516.1533L13786.8103,-3515.9397L13786.7905,-3515.76L13786.7401,-3515.7066L13786.6501,-3515.6532L13786.6348,-3515.625"/>
<path content="AP030,1,28,1,0,15,1,8,JPN" xlink:title="AP030" d="M13834.1461,-3529.7417L13834.1461,-3529.3789L13833.9569,-3529.1199L13833.7662,-3528.7571L13833.8928,-3528.3428L13833.8928,-3527.8767L13833.7036,-3527.462L13833.7036,-3527.0477L13833.8928,-3526.7368L13833.7662,-3526.5816L13833.2611,-3526.685L13833.0078,-3526.5816L13833.0078,-3526.3741L13833.1345,-3526.0117L13833.0704,-3525.7008L13833.197,-3525.4417L13833.8303,-3525.0271L13834.3369,-3524.5609L13834.4635,-3524.1467L13834.3369,-3523.3177L13834.4635,-3522.7478L13834.7168,-3522.2813L13834.906,-3521.349L13835.3485,-3520.261L13835.8551,-3519.7948L13836.235,-3519.3287L13836.235,-3518.9659L13836.1084,-3518.4998L13836.3617,-3518.2407L13836.2991,-3517.878L13835.8551,-3517.4118L13835.6659,-3516.9453L13835.9192,-3516.4791L13836.235,-3515.9092L13836.2557,-3515.625"/>
<path content="AP030,1,28,1,0,15,1,8,JPN" xlink:title="AP030" d="M13832.0572,-3515.625L13832.0572,-3516.1682L13831.8039,-3516.272L13831.4255,-3516.272L13831.2347,-3516.5829L13830.9814,-3516.6862L13830.6656,-3516.9971L13830.4123,-3517.2562L13829.9698,-3517.2043L13829.6524,-3517.308L13829.0192,-3517.2562L13828.45,-3517.2562L13827.8809,-3517.4118L13827.0569,-3518.1889L13826.8051,-3518.7069L13826.5518,-3519.0178L13826.4877,-3519.4839L13826.1078,-3520.002L13825.9186,-3520.3648L13825.412,-3520.779"/>
<path content="AP030,1,28,1,0,15,1,8,JPN" xlink:title="AP030" d="M13825.4959,-3517.1883L13826.1017,-3516.8541L13826.535,-3516.3071L13826.5549,-3515.72L13826.2924,-3515.6521L13825.9415,-3516.0465L13825.7126,-3516.103L13825.3784,-3515.9718L13825.3098,-3515.7845L13825.4638,-3515.625"/>
<path content="AP030,1,28,1,0,15,1,8,JPN" xlink:title="AP030" d="M13814.1296,-3516.481L13813.8168,-3515.7806L13813.8065,-3515.625"/>
<path content="AP030,1,28,1,0,15,1,8,JPN" xlink:title="AP030" d="M13842.1906,-3516.6817L13842.6854,-3515.625"/>
<path content="AP030,1,28,1,0,15,1,8,JPN" xlink:title="AP030" d="M13782.4005,-3525.2865L13782.4356,-3524.3183L13782.2601,-3523.8419L13782.1442,-3523.5558L13782.1442,-3523.0793L13781.7368,-3522.8409L13781.4453,-3522.5552L13781.4453,-3522.4121L13781.4453,-3522.126L13781.6208,-3521.7926L13781.9702,-3521.5065L13781.9702,-3521.2685L13781.9107,-3520.9824L13781.5033,-3520.6486L13781.25,-3520.5242"/>
<path content="AP030,1,28,1,0,15,1,8,JPN" xlink:title="AP030" d="M13825.4959,-3517.1883L13825.1587,-3517.1005L13824.5178,-3517.326L13824.231,-3517.1597L13824.1165,-3516.2373L13824.0875,-3515.6364L13824.0627,-3515.625"/>
</g>
</svg>
