<?xml version="1.0" encoding="UTF-8"?>
<svg  xmlns="http://www.w3.org/2000/svg" xmlns:xlink="http://www.w3.org/1999/xlink" xmlns:go="http://purl.org/svgmap/profile" property="f_code,acc,exs,rst,med,rtt,RSU,loc,soc" viewBox="14062.5 -4500.0 140.625 140.625" go:dataArea="14062.5 -4500.0 140.625 140.625" >
<metadata>
 <rdf:RDF xmlns:rdf="http://www.w3.org/1999/02/22-rdf-syntax-ns#" xmlns:crs="http://opengis.org/xmldtds/transformations.dtd" xmlns:svg="http://www.w3.org/svg" >
  <rdf:Description>
   <crs:CoordinateReferenceSystem rdf:resource="http://purl.org/crs/84" svg:transform="matrix(100.0,0.0,0.0,-100.0,0.0,0.0)" />
  </rdf:Description>
 </rdf:RDF>
</metadata>
<globalCoordinateSystem srsName="http://purl.org/crs/84" transform="matrix(100.0,0.0,0.0,-100.0,0.0,0.0)" />
<defs>
 <g id="p0" >
  <circle cx="0.0" cy="0.0" r="3" stroke="green" stroke-width="2.0" vector-effect="non-scaling-stroke" />
 </g>
</defs>
<g fill="none" fill-rule="evenodd" stroke="#00ff00" stroke-width="2" opacity="0.5" vector-effect="non-scaling-stroke" stroke-linejoin="bevel" >
<path content="AP030,1,28,1,0,15,1,8,JPN" xlink:title="AP030" d="M14181.5796,-4499.6666L14184.0485,-4499.6696L14184.4559,-4500"/>
<path content="AP030,1,28,1,0,14,1,8,JPN" xlink:title="AP030" d="M14181.5445,-4500L14181.5796,-4499.6666"/>
<path content="AP030,1,28,1,0,14,1,8,JPN" xlink:title="AP030" d="M14181.5796,-4499.6666L14181.6498,-4499.1665L14181.6803,-4499.073"/>
<path content="AP030,1,28,1,0,14,1,8,JPN" xlink:title="AP030" d="M14181.6803,-4499.073L14181.7398,-4498.8731L14181.9,-4498.7331L14182.2006,-4498.6198L14182.6294,-4498.5001L14182.7698,-4498.4264L14182.8094,-4498.3868L14182.9895,-4498.1533L14183.0795,-4497.9931L14183.1497,-4497.76L14183.2703,-4496.8731L14183.4503,-4495.3598L14183.4702,-4495.1267L14183.6304,-4493.7931L14183.6304,-4493.7065L14183.7204,-4493.5066L14183.8806,-4493.3067L14184.0805,-4493.1801L14184.4299,-4493.1465L14184.4696,-4493.1465L14184.6497,-4493.1465L14185.2905,-4493.1667L14186.5601,-4493.2198L14186.7706,-4493.2198L14186.9507,-4493.2198L14187.0804,-4493.1667L14188.1104,-4492.5533L14188.3102,-4492.44L14188.7207,-4492.1932L14189.0793,-4491.8865L14190.2695,-4490.8733L14190.6097,-4490.6799L14191.9006,-4489.8666"/>
<path content="AP030,1,28,1,0,15,1,8,JPN" xlink:title="AP030" d="M14186.3464,-4500L14186.4044,-4499.8974L14187.233,-4499.6948L14187.6419,-4499.3481L14187.9166,-4499.1493L14187.9135,-4498.9532L14187.767,-4498.4142L14187.4832,-4497.9744L14188.1042,-4497.8714L14188.6551,-4497.7196L14188.7192,-4497.3755L14188.588,-4497.02L14188.5742,-4496.9837L14188.5391,-4496.7373L14188.4979,-4496.4443L14188.8336,-4495.8035L14189.7079,-4494.2253L14190.387,-4493.4834L14190.8585,-4492.6937L14191.3177,-4492.4709L14191.4764,-4492.3943L14192.0959,-4492.2421L14192.5735,-4491.8945L14193.3273,-4491.4955L14193.3731,-4491.2865L14193.3929,-4491.2003L14193.0405,-4489.8464"/>
<path content="AP030,1,28,1,0,14,1,8,JPN" xlink:title="AP030" d="M14191.9006,-4489.8666L14191.9907,-4489.8132L14192.2394,-4489.7064L14192.54,-4489.7064L14192.7902,-4489.74L14193.0405,-4489.8464"/>
<path content="AP030,1,28,1,0,14,1,8,JPN" xlink:title="AP030" d="M14174.4904,-4489.2731L14174.7894,-4489.2864L14175.0198,-4489.3066L14175.2701,-4489.3997L14175.4898,-4489.4531L14175.7202,-4489.4867L14176.3107,-4489.5798L14176.4297,-4489.5931L14176.3107,-4489.92L14175.7904,-4491.4867L14175.7904,-4491.6134L14175.8301,-4491.7065L14176.2207,-4492.0799L14176.2405,-4492.1734L14175.9293,-4493.1065L14175.8606,-4493.3468L14175.8606,-4493.4666L14175.9293,-4493.5932L14176.0406,-4493.7599L14176.0605,-4493.7931L14176.1505,-4493.8866L14176.1795,-4493.9934L14176.1505,-4496.133L14176.1795,-4496.3333L14176.2405,-4496.4397L14176.4496,-4496.693L14176.4893,-4496.7865L14176.4893,-4496.8933L14176.5198,-4496.9868L14176.77,-4497.3064L14176.9302,-4497.3598L14178.6499,-4497.4667L14178.7903,-4497.5266L14179.4006,-4497.953L14180.3101,-4498.513L14181.2698,-4499.0398L14181.4499,-4499.0932L14181.6803,-4499.073"/>
<path content="AP030,1,28,1,0,15,1,8,JPN" xlink:title="AP030" d="M14168.2526,-4500L14172.4686,-4492.3836L14173.7106,-4492.2279L14174.2462,-4490.8497L14173.6877,-4490.4114L14174.4904,-4489.2731"/>
<path content="AP030,1,28,1,0,15,1,8,JPN" xlink:title="AP030" d="M14200.0595,-4489.1998L14201.8127,-4490.588L14201.6113,-4490.9336L14202.2079,-4491.568L14202.5269,-4491.9075L14203.125,-4491.8718"/>
<path content="AP030,1,28,1,0,14,1,8,JPN" xlink:title="AP030" d="M14193.0405,-4489.8464L14193.3594,-4490.0131L14193.4692,-4490.0665L14193.6096,-4490.1199L14193.7698,-4490.1531L14193.9301,-4490.1333L14194.31,-4490.0265L14194.5602,-4489.9532L14195.2698,-4489.7598L14195.3293,-4489.74L14195.5597,-4489.7064L14198.88,-4489.7064L14199.0601,-4489.7064L14199.2004,-4489.6667L14199.6796,-4489.4333L14200.0595,-4489.1998"/>
<path content="AP030,1,28,1,0,14,1,8,JPN" xlink:title="AP030" d="M14174.4904,-4489.2731L14174.6094,-4488.8599L14174.7406,-4488.3331"/>
<path content="AP030,1,28,1,0,15,1,8,JPN" xlink:title="AP030" d="M14174.7406,-4488.3331L14178.7781,-4488.8062L14180.4306,-4488.4018L14181.1203,-4488.3476L14182.2174,-4487.7506L14182.9697,-4487.2051L14183.7921,-4486.8553L14183.9996,-4486.8538L14184.6252,-4487.1437L14184.9762,-4487.534L14185.3241,-4487.6789L14185.8047,-4487.5278L14186.4334,-4488.0142L14188.9328,-4488.7806L14189.1357,-4488.5334L14191.2079,-4488.517L14191.2155,-4489.0572L14191.9006,-4489.8666"/>
<path content="AP030,1,28,1,0,14,1,8,JPN" xlink:title="AP030" d="M14174.7406,-4488.3331L14174.9695,-4487.92L14175.3098,-4487.1799L14175.7401,-4486.1732L14175.9293,-4485.6331L14176.0193,-4485.3065L14176.0605,-4485.1799L14176.1505,-4485.1067L14176.3107,-4485.0731L14176.5594,-4485.0201L14176.9302,-4484.9133L14177.3605,-4484.6931L14177.6306,-4484.5131L14177.8595,-4484.2999L14178.0807,-4483.7399L14178.3997,-4482.7866L14178.5797,-4482.2598L14179.1504,-4480.6801L14179.2206,-4480.2998L14179.2404,-4480.08L14179.3106,-4479.3266L14179.4907,-4477.6333L14179.5593,-4477.1999L14179.5593,-4476.12L14179.5807,-4475.9731"/>
<path content="AP030,1,28,1,0,14,1,8,JPN" xlink:title="AP030" d="M14200.0595,-4489.1998L14201.3596,-4488.5532L14202.4307,-4487.9932L14202.5803,-4487.8998L14202.8793,-4487.7598L14203.0197,-4487.5931L14203.125,-4487.5022"/>
<path content="AP030,1,28,1,0,15,1,8,JPN" xlink:title="AP030" d="M14179.5807,-4475.9731L14184.6115,-4476.1185L14187.999,-4474.6613L14188.855,-4474.9149L14190.6845,-4475.1175L14192.572,-4475.1892L14193.2434,-4475.2705L14193.5516,-4475.5283L14194.0994,-4475.5238L14195.0134,-4475.5161L14195.4437,-4475.816L14196.0602,-4476.2882L14197.1603,-4476.5392L14197.583,-4476.3187L14198.2452,-4475.8358L14198.4909,-4476.0071L14198.7991,-4476.2646L14199.35,-4476.3901L14199.469,-4476.2589L14199.8917,-4476.0384L14199.8871,-4475.7347L14199.5728,-4475.1736L14199.9954,-4474.9966L14201.2085,-4474.7688L14202.42,-4474.411L14203.125,-4474.4381"/>
<path content="AP030,1,28,1,0,14,1,8,JPN" xlink:title="AP030" d="M14179.5807,-4475.9731L14179.5807,-4475.9399L14179.6295,-4475.6332L14179.7195,-4475.1266L14180.0201,-4473.18L14180.0797,-4472.7665"/>
<path content="AP030,1,28,1,0,15,1,8,JPN" xlink:title="AP030" d="M14203.125,-4472.7652L14203.0579,-4472.5834L14203.125,-4472.2691M14203.125,-4467.9703L14202.8473,-4467.6403L14202.8427,-4467.3367L14203.125,-4467.0377"/>
<path content="AP030,1,28,1,0,15,1,8,JPN" xlink:title="AP030" d="M14180.0797,-4472.7665L14186.7767,-4470.2461L14187.1979,-4469.9829L14188.4674,-4469.4527L14192.0074,-4466.4314L14192.9688,-4465.7295L14193.2663,-4465.337L14193.9133,-4463.987L14193.8995,-4463.1626L14194.3802,-4462.8551L14194.4992,-4462.6808L14194.4885,-4462.03L14194.7769,-4461.0302L14194.87,-4459.2941L14194.9814,-4458.7292L14195.5124,-4457.7705L14196.1075,-4457.0717L14196.46,-4456.3313L14196.5744,-4455.9399L14196.7468,-4455.331L14196.7987,-4454.81L14196.6461,-4452.9026L14196.6843,-4451.601L14196.5561,-4451.125L14196.9696,-4450.4707"/>
<path content="AP030,1,28,1,0,14,1,8,JPN" xlink:title="AP030" d="M14173.5135,-4441.3687L14174.0601,-4441.9201L14174.4705,-4442.3866L14174.8596,-4442.7666L14175.0198,-4443L14175.0793,-4443.2335L14175.2197,-4443.6134L14175.2899,-4443.7935L14175.3098,-4443.8999L14175.5402,-4444.3733L14175.7706,-4444.8734L14176.0406,-4445.5067L14176.2695,-4446.0266L14176.3306,-4446.2265L14176.3992,-4446.6934L14176.4297,-4447.1066L14176.3107,-4447.5933L14176.3107,-4447.8333L14176.4496,-4448.1934L14176.4694,-4448.2265L14176.5396,-4448.5134L14176.5396,-4449.02L14176.5793,-4450.6397L14176.5793,-4450.8934L14176.68,-4451.2531L14176.6998,-4451.5934L14176.6495,-4452.4399L14176.6495,-4452.8L14176.6998,-4452.9465L14176.7899,-4453.1998L14176.7899,-4453.5267L14176.7899,-4453.5599L14176.7899,-4453.7197L14176.7899,-4453.8334L14176.7395,-4454.0264L14176.7197,-4454.2267L14176.7395,-4454.2999L14176.8097,-4454.6799L14176.9302,-4454.8L14177.7695,-4455.3265L14178.3798,-4455.7598L14178.45,-4455.8132L14178.6301,-4455.9399L14178.6804,-4456.0665L14178.6804,-4456.6399L14178.7003,-4457.2533L14178.7003,-4457.4135L14178.7201,-4457.9735L14178.7704,-4458.2466L14178.9307,-4458.4267L14179.1107,-4458.5865L14179.1794,-4458.7666L14179.2404,-4459.2533L14179.3304,-4459.7733L14179.3793,-4459.9934L14179.5593,-4460.3333L14179.8294,-4460.7334L14179.8798,-4460.7998L14179.9698,-4460.9867L14180.0797,-4461.1668L14180.1498,-4461.3068L14180.2399,-4461.4864L14180.3802,-4461.94L14180.4306,-4462.2066L14180.4504,-4462.3734L14180.4306,-4462.9265L14180.3802,-4463.2332L14180.3101,-4463.3465L14180.0797,-4463.4865L14179.7699,-4463.6665L14179.6494,-4463.7733L14179.6097,-4463.8332L14179.5807,-4463.94L14179.5807,-4464.0266L14179.5593,-4464.1197L14179.4907,-4464.32L14179.4495,-4464.6065L14179.4495,-4465.2332L14179.4495,-4465.2866L14179.4495,-4466.0667L14179.4006,-4466.46L14179.4296,-4466.9865L14179.4907,-4467.5266L14179.5197,-4467.7734L14179.4907,-4468.2068L14179.4495,-4468.6398L14179.4693,-4468.7866L14179.2694,-4470.3732L14179.2404,-4470.4597L14179.1306,-4471.0732L14179.2007,-4471.1998L14179.2206,-4471.2734L14179.4495,-4471.7197L14179.5197,-4471.8666L14179.5197,-4472.1199L14179.6799,-4472.1333L14179.7394,-4472.1931L14179.8096,-4472.2599L14179.95,-4472.44L14180.0598,-4472.6398L14180.0797,-4472.7665"/>
<path content="AP030,1,28,1,0,14,1,8,JPN" xlink:title="AP030" d="M14169.8807,-4436.3335L14170.0394,-4436.4601L14170.1294,-4436.5334L14170.3094,-4436.6798L14170.43,-4436.7664L14170.6299,-4436.9267L14170.7703,-4437.0399L14170.8298,-4437.0934L14171.0403,-4437.2734L14171.1807,-4437.4134L14171.08,-4437.5267L14171.0403,-4437.6133L14170.99,-4437.7201L14170.9702,-4437.9002L14170.9702,-4438.1001L14171.1105,-4438.5334L14171.4005,-4439.0533L14171.6095,-4439.4135L14171.8094,-4439.6667L14171.9299,-4439.8132L14172.2,-4440.1199L14172.3297,-4440.2466L14172.6501,-4440.5334L14172.9507,-4440.8001L14173.1796,-4441.0198L14173.2407,-4441.0934L14173.5135,-4441.3687"/>
<path content="AP030,1,28,1,0,15,1,8,JPN" xlink:title="AP030" d="M14169.8807,-4436.3335L14173.3643,-4434.1923L14173.0011,-4433.5571L14175.2884,-4431.7566L14177.1484,-4431.2977L14179.892,-4430.6412L14182.2037,-4430.7522L14183.0109,-4431.3202L14185.7407,-4431.8974L14186.731,-4431.6715L14187.4634,-4431.7677L14187.587,-4431.9416L14187.1918,-4432.6725L14185.7071,-4433.4686L14187.0499,-4434.1602L14186.4319,-4434.4837L14186.0825,-4434.869L14184.2712,-4436.9171L14183.1589,-4437.2456L14182.7347,-4437.3943L14182.1045,-4437.326L14181.5582,-4437.3737L14180.5099,-4437.978L14179.7989,-4437.8666L14177.8778,-4438.4621L14175.3998,-4440.0223L14173.5135,-4441.3687"/>
<path content="AP030,1,28,1,0,14,1,8,JPN" xlink:title="AP030" d="M14169.8807,-4436.3335L14169.7906,-4436.2801L14169.4504,-4436.0466L14169.3604,-4435.9402L14169.3298,-4435.9001L14169.31,-4435.7735L14169.2902,-4435.4866L14169.2398,-4435.22L14169.2001,-4435.0399L14169.1498,-4434.8732L14168.9896,-4434.6802L14168.9499,-4434.6199L14168.5196,-4434.2266L14168.2907,-4433.9733L14168.2205,-4433.8867L14168.1793,-4433.8333L14168.0603,-4433.5266L14168.0405,-4433.4L14167.9901,-4433.2535L14167.9504,-4433.0399L14167.9001,-4432.9468L14167.8604,-4432.8934L14167.7902,-4432.8732L14167.7002,-4432.8201L14167.6498,-4432.7667L14167.63,-4432.7332L14167.6102,-4432.6065L14167.5201,-4432.46L14167.2394,-4432.2468L14167.1799,-4432.1934L14166.4505,-4431.6868L14166.0202,-4431.3599L14165.7196,-4431.1268L14165.5594,-4430.9265L14165.4694,-4430.7133L14165.4495,-4430.64L14165.3595,-4430.2799L14165.3305,-4429.9198L14165.3595,-4429.8134L14165.4007,-4429.4334L14165.5197,-4428.82L14165.5197,-4428.7666L14165.6097,-4428.5534L14165.7898,-4428.4065L14165.8798,-4428.2799L14165.95,-4428.0666L14165.95,-4428.0266L14165.9698,-4427.7733L14165.95,-4427.5799"/>
<path content="AP030,1,28,1,0,14,1,8,JPN" xlink:title="AP030" d="M14197.7905,-4418.2465L14198.1094,-4418.28L14198.7198,-4418.2465L14198.8998,-4418.2465L14199.0402,-4418.28L14199.2401,-4418.4265L14199.4705,-4418.6401L14199.6796,-4418.7866L14199.7406,-4418.8202L14199.8993,-4418.9133L14200.1297,-4419.0399L14200.2396,-4419.0933L14200.4501,-4419.1666L14200.5203,-4419.22L14200.65,-4419.3802L14200.7401,-4419.4668L14200.8301,-4419.5599L14200.9003,-4419.6335L14200.9705,-4419.7067L14200.9705,-4419.7601L14200.9506,-4419.8666L14200.9506,-4419.9001L14200.9903,-4419.9532L14201.0605,-4419.9932L14201.1795,-4420.0665L14201.2405,-4420.1733L14201.3306,-4420.2599L14201.4496,-4420.3533L14201.5793,-4420.5132L14201.68,-4420.6402L14201.77,-4420.7134L14201.8097,-4420.7466L14201.8997,-4420.7664L14202.0401,-4420.7664L14202.24,-4420.7867L14202.4002,-4420.8401L14202.5192,-4420.8401L14202.6794,-4420.8L14202.8305,-4420.7664L14202.9495,-4420.7466L14203.0197,-4420.7134L14203.0807,-4420.62L14203.125,-4420.5723"/>
<path content="AP030,1,28,1,0,14,1,8,JPN" xlink:title="AP030" d="M14165.95,-4427.5799L14166.1499,-4427.5799L14166.6107,-4427.5398L14167.54,-4427.38L14168.1107,-4427.2865L14168.2007,-4427.2732L14168.8293,-4427.1801L14169.7006,-4427.0401L14170.7397,-4426.8734L14170.9305,-4426.82L14171.0205,-4426.7467L14171.08,-4426.68L14171.2006,-4426.6068L14171.2906,-4426.5533L14171.3104,-4426.5331L14171.4493,-4426.4999L14171.5607,-4426.4599L14171.6293,-4426.44L14171.7697,-4426.44L14171.9498,-4426.4267L14172.6303,-4426.4065L14173.6801,-4426.2466L14173.7198,-4426.2466L14173.97,-4426.2264L14174.1302,-4426.2066L14174.1806,-4426.2066L14174.3607,-4426.1333L14174.8596,-4425.8133L14175.1495,-4425.6866L14175.47,-4425.6134L14175.8606,-4425.4868L14176.2405,-4425.4665L14176.4496,-4425.4333L14176.8997,-4425.2201L14177.24,-4425.0935L14177.4704,-4425L14177.5406,-4424.9134L14177.5192,-4424.7665L14177.4307,-4424.4598L14177.4307,-4424.3L14177.5803,-4424.1932L14177.9007,-4424.0799L14178.0594,-4423.9532L14178.1998,-4423.7064L14178.3096,-4423.5065L14178.4698,-4423.4135L14178.7003,-4423.3467L14178.83,-4423.2334L14179.2007,-4423.0202L14179.5807,-4422.8733L14179.7699,-4422.8199L14179.9301,-4422.8733L14180.1102,-4423.0202L14180.2399,-4423.1068L14180.3802,-4423.1266L14180.7205,-4423.1266L14180.8594,-4423.0534L14181.1096,-4422.8401L14181.2393,-4422.7467L14181.4896,-4422.7467L14181.6498,-4422.7333L14181.8802,-4422.6067L14181.9305,-4422.5132L14181.9305,-4422.3202L14181.9305,-4422.2267L14182.0206,-4422.1535L14182.1106,-4422.1333L14182.2205,-4422.1535L14182.2906,-4422.2801L14182.4295,-4422.3866L14182.5607,-4422.4068L14182.6996,-4422.3866L14182.93,-4422.3L14183.02,-4422.2801L14183.0795,-4422.3534L14183.02,-4422.4998L14183.0597,-4422.6067L14183.2397,-4422.6933L14183.5205,-4422.7333L14183.8303,-4422.6799L14184.1507,-4422.5864L14184.2896,-4422.4602L14184.3307,-4422.3L14184.4894,-4422.1001L14184.79,-4421.8864L14184.8999,-4421.8468L14185.1105,-4421.8666L14185.2905,-4421.9398L14185.3104,-4422.0798L14185.3104,-4422.1931L14185.4507,-4422.3L14185.7193,-4422.2801L14186.3998,-4422.1535L14186.6501,-4422.0264L14186.7401,-4421.9933L14186.9705,-4422.0467L14187.2192,-4422.1199L14187.4496,-4422.1333L14187.5793,-4422.2267L14187.5793,-4422.3534L14187.5595,-4422.5533L14187.6099,-4422.6398L14187.7396,-4422.6799L14187.8601,-4422.62L14188.0203,-4422.44L14188.1805,-4422.3331L14188.5193,-4422.2267L14188.8794,-4422.0264L14188.9694,-4421.92L14188.9694,-4421.8132L14188.8992,-4421.6866L14188.8992,-4421.5935L14189.0594,-4421.5065L14189.4699,-4421.4333L14189.5798,-4421.3467L14189.6103,-4421.22L14189.5401,-4421.0533L14189.4897,-4420.9267L14189.4897,-4420.7664L14189.6103,-4420.62L14189.7202,-4420.5868L14189.9002,-4420.6402L14190.1993,-4420.8L14190.4495,-4420.9267L14190.5396,-4420.9267L14190.6296,-4420.8935L14190.6799,-4420.8L14190.7898,-4420.7333L14190.9302,-4420.7466L14191.04,-4420.8599L14191.0599,-4420.9866L14191.1804,-4421.0533L14191.4307,-4421.04L14191.5405,-4420.9465L14191.5405,-4420.7867L14191.5207,-4420.6066L14191.5207,-4420.5334L14191.6306,-4420.5132L14191.7206,-4420.5532L14191.7694,-4420.5868L14191.9495,-4420.6402L14192.1799,-4420.62L14192.3294,-4420.6066L14192.4698,-4420.66L14192.6102,-4420.7466L14192.7002,-4420.7466L14192.8101,-4420.6402L14192.8604,-4420.5532L14192.9504,-4420.5002L14193.2404,-4420.48L14193.3594,-4420.3865L14193.3807,-4420.2465L14193.3304,-4420.1332L14193.2205,-4420.0466L14193.0801,-4419.9532L14192.9703,-4419.8334L14192.9703,-4419.7933L14192.9306,-4419.7399L14192.8299,-4419.7067L14192.7399,-4419.6865L14192.5797,-4419.6667L14192.4698,-4419.5934L14192.45,-4419.4332L14192.5201,-4419.3802L14192.9901,-4419.1067L14193.5196,-4418.9133L14193.6798,-4418.7466L14193.7897,-4418.6199L14193.8797,-4418.5665L14194.0598,-4418.5333L14194.4,-4418.5135L14194.7906,-4418.5333L14195.3094,-4418.5333L14195.4895,-4418.5867L14195.6497,-4418.6932L14195.8801,-4418.7134L14196.08,-4418.7134L14196.4706,-4418.7134L14196.7697,-4418.7134L14196.8994,-4418.66L14197.02,-4418.5532L14197.0795,-4418.3533L14197.2,-4418.2598L14197.29,-4418.2266L14197.4899,-4418.2266L14197.7905,-4418.2465"/>
<path content="AP030,1,28,1,0,15,1,8,JPN" xlink:title="AP030" d="M14194.751,-4407.6775L14195.6314,-4409.3784L14197.1909,-4409.7385L14197.7905,-4410.2135L14198.1659,-4410.5835L14198.4787,-4411.5406L14198.1903,-4412.0228L14197.2397,-4412.7777L14196.7331,-4413.4216L14196.6736,-4414.3822L14197.5754,-4415.1211L14198.4055,-4416.0736L14198.7137,-4416.8175L14198.5764,-4417.4049L14197.7905,-4418.2465"/>
<path content="AP030,1,28,1,0,15,1,8,JPN" xlink:title="AP030" d="M14194.751,-4407.6775L14195.7397,-4406.9782"/>
<path content="AP030,1,28,1,0,14,1,8,JPN" xlink:title="AP030" d="M14165.95,-4427.5799L14165.77,-4427.3266L14165.5807,-4426.9867L14165.5594,-4426.86L14165.6494,-4426.4999L14165.77,-4426.0666L14165.77,-4426.0265L14165.77,-4425.7935L14165.7196,-4425.5066L14165.7394,-4425.2335L14165.8295,-4424.9466L14165.95,-4424.4267L14165.95,-4424.2065L14165.8997,-4423.8464L14165.8798,-4423.7598L14165.77,-4423.3601L14165.6998,-4423L14165.6296,-4422.6799L14165.6097,-4422.3202L14165.6097,-4422.0467L14165.6296,-4421.8468L14165.6494,-4421.6331L14165.6296,-4421.4134L14165.6723,-4421.0548L14165.6876,-4420.8912L14165.6998,-4420.7466L14165.7394,-4420.4601L14165.77,-4420.3335L14165.7196,-4419.9532L14165.77,-4419.6133L14165.7898,-4419.5065L14165.8096,-4418.9999L14165.8096,-4418.8732L14165.8096,-4418.8202L14165.8096,-4418.7466L14165.8295,-4417.7399L14165.86,-4416.9998L14165.8997,-4416.7999L14166.0202,-4416.5001L14166.0599,-4416.2266L14165.9698,-4415.7734L14165.9302,-4415.6132L14165.8997,-4415.5602L14165.7898,-4415.4331L14165.6097,-4415.2534L14165.5396,-4414.9868L14165.5594,-4414.8399L14165.5807,-4414.6069L14165.5807,-4414.4066L14165.5396,-4414.2601L14165.5396,-4414.0999L14165.6097,-4413.7733L14165.6296,-4413.5601L14165.7196,-4413.0402L14165.77,-4412.6068L14165.77,-4412.3001L14165.8798,-4411.7065L14165.9698,-4411.0199L14165.9897,-4410.68L14166.0797,-4410.4267L14166.1499,-4410.2798L14166.1499,-4410.0666L14166.1499,-4409.7198L14166.1804,-4409.3601L14166.2704,-4408.4068L14166.3605,-4407.5802L14166.3605,-4407.4001L14166.3803,-4407.1468L14166.4505,-4405.0533L14166.3803,-4404.1931L14166.4307,-4404.0466L14166.5604,-4403.8666L14166.6504,-4403.7201L14166.7007,-4403.6667L14166.7206,-4403.5599L14166.7404,-4403.5069L14166.7404,-4403.2333L14166.7404,-4402.9999L14166.7404,-4402.84L14166.7404,-4402.7866L14166.7404,-4402.6932"/>
<path content="AP030,1,28,1,0,15,1,8,JPN" xlink:title="AP030" d="M14166.7404,-4402.6932L14168.3868,-4401.469L14169.4214,-4401.4629L14171.4066,-4400.6508L14172.2214,-4400.8591L14174.0646,-4400.5806L14174.0723,-4401.2203L14175.6317,-4401.7967L14176.886,-4401.6815L14177.182,-4401.6796L14177.3361,-4402.1584L14177.4933,-4402.9041L14178.8986,-4402.9476L14179.5624,-4402.8896L14181.4255,-4403.9433L14182.6874,-4404.414L14184.9121,-4404.8241L14186.2457,-4405.0274L14187.1445,-4405.8739L14189.1373,-4405.645L14189.7476,-4406.8668L14191.0838,-4406.8562L14191.0919,-4406.8561"/>
<path content="AP030,1,28,1,0,14,1,8,JPN" xlink:title="AP030" d="M14166.3803,-4393.5398L14166.5207,-4393.6333L14166.8304,-4393.8667L14166.8304,-4393.9533L14166.8304,-4394.0399L14166.8304,-4394.0998L14166.8106,-4394.1334L14166.7404,-4394.2066L14166.6107,-4394.3001L14166.4307,-4394.3733L14166.2399,-4394.4798L14166.1301,-4394.5667L14165.9302,-4394.6598L14165.5594,-4394.7865L14165.4495,-4394.873L14165.2405,-4395.0397L14165.1093,-4395.1065L14164.8605,-4395.2L14164.7903,-4395.2732L14164.6103,-4395.433L14164.5599,-4395.5933L14164.5599,-4395.8466L14164.4897,-4396.0464L14164.3997,-4396.2799L14164.3997,-4396.3867L14164.4897,-4396.5L14164.6301,-4396.693L14164.7202,-4396.9265L14164.7705,-4397.1466L14164.7705,-4397.3801L14164.6805,-4397.76L14164.6957,-4397.9321L14164.7629,-4398.1667L14164.8376,-4398.3982L14164.9078,-4398.5928L14164.9643,-4398.7675L14165.1093,-4399.0532L14165.1794,-4399.2733L14165.2405,-4399.5399L14165.2695,-4399.72L14165.3305,-4399.8131L14165.5197,-4399.9001L14165.6799,-4400.0267L14165.8997,-4400.3201L14166.04,-4400.6802L14166.2003,-4401.0532L14166.33,-4401.4332L14166.33,-4401.5598L14166.3803,-4401.9932L14166.3803,-4402.0267L14166.4307,-4402.1732L14166.5405,-4402.2598L14166.6794,-4402.3201L14166.7206,-4402.3869L14166.7404,-4402.4399L14166.7404,-4402.5665L14166.7404,-4402.6199L14166.7404,-4402.6932"/>
<path content="AP030,1,28,1,0,14,1,8,JPN" xlink:title="AP030" d="M14158.5403,-4387.3466L14158.7006,-4387.7197L14158.8303,-4387.9398L14158.9706,-4388.1332L14159.0805,-4388.2065L14159.3994,-4388.2999L14159.6497,-4388.4068L14159.8602,-4388.4399L14159.9503,-4388.5532L14159.9899,-4388.6932L14160.0403,-4388.7665L14160.1105,-4388.8199L14160.1807,-4388.9133L14160.2005,-4388.9999L14160.2402,-4389.093L14160.3607,-4389.233L14160.4004,-4389.3467L14160.4507,-4389.4665L14160.4706,-4389.5397L14160.5804,-4389.6667L14160.6094,-4389.74L14160.6094,-4389.8666L14160.6796,-4389.9532L14160.7895,-4390.0997L14160.8994,-4390.2466L14161.0199,-4390.4064L14161.1801,-4390.5666L14161.2701,-4390.6597L14161.3602,-4390.8398L14161.5402,-4391.04L14161.7401,-4391.2731L14161.9904,-4391.6134L14162.1307,-4391.74L14162.2894,-4391.8133L14162.5595,-4391.8667L14162.7396,-4391.9201L14162.8098,-4391.9731L14162.8799,-4392.0799L14163.0798,-4392.4599L14163.15,-4392.5331L14163.3621,-4392.6548L14163.4293,-4392.6933L14163.5803,-4392.7998L14163.6505,-4392.8932L14163.6795,-4393.0199L14163.7405,-4393.4868L14163.7894,-4393.8667L14163.8306,-4393.9198L14163.8596,-4393.9533L14163.9893,-4394.0666L14164.1495,-4394.1933L14164.27,-4394.12L14164.4699,-4393.9934L14164.65,-4393.8866L14164.9307,-4393.7199L14164.9902,-4393.6665L14165.1794,-4393.6531L14165.5396,-4393.6131L14165.7394,-4393.5932L14166.04,-4393.5799L14166.2399,-4393.56L14166.3803,-4393.5398"/>
<path content="AP030,1,28,1,0,14,1,8,JPN" xlink:title="AP030" d="M14166.3803,-4393.5398L14166.4703,-4393.5265L14166.6306,-4393.4868L14166.7892,-4393.4132L14166.9495,-4393.3067L14167.1295,-4393.1465L14167.1997,-4393.0931L14167.3294,-4392.9466L14167.3996,-4392.7467L14167.45,-4392.6598L14167.54,-4392.12L14167.63,-4392.0132L14167.7399,-4391.9399L14167.9001,-4391.8999L14168.1793,-4391.8865L14168.4494,-4391.8865L14168.5394,-4391.8865L14168.6798,-4391.8999L14168.7698,-4391.9399L14168.9697,-4392.0666L14169.0399,-4392.0799L14169.22,-4392.0666L14169.5206,-4392.0265L14169.6106,-4391.9933L14169.7205,-4391.8667L14169.7403,-4391.7198L14169.6304,-4391.6134L14169.4702,-4391.5264L14169.1498,-4391.3799L14169.0201,-4391.2331L14168.9896,-4391.0931L14169.0201,-4390.9664L14169.1101,-4390.8199L14169.2703,-4390.6933L14169.3802,-4390.6399L14169.6503,-4390.6067L14169.7693,-4390.5533L14169.8807,-4390.4999L14170.0195,-4390.353L14170.1492,-4390.2798L14170.3217,-4390.2412L14170.5795,-4390.1932L14170.7001,-4390.1199L14170.8298,-4389.8865L14171.08,-4389.5397L14171.5393,-4389.1998L14171.8796,-4388.9999L14172.2397,-4388.8733L14172.58,-4388.7867L14172.7402,-4388.7867L14173.0392,-4388.8199L14173.2407,-4388.8199L14173.3795,-4388.8L14173.4695,-4388.7466L14173.6496,-4388.5666L14173.7701,-4388.4068L14173.7701,-4388.3198L14173.7,-4388.1733L14173.6298,-4387.973L14173.6298,-4387.8666L14173.8129,-4387.6537L14173.8297,-4387.6331L14173.9304,-4387.5267L14174.2401,-4387.22L14174.3103,-4387.0934L14174.3301,-4386.9865L14174.3301,-4386.7664L14174.3805,-4386.6398L14174.6094,-4386.4998L14174.9496,-4386.4265L14175.1099,-4386.3731L14175.1999,-4386.2999L14175.2899,-4386.1198L14175.3601,-4386.0466L14175.4898,-4385.9734L14175.6104,-4385.8997L14175.7004,-4385.8131L14175.7904,-4385.593"/>
<path content="AP030,1,28,1,0,14,1,8,JPN" xlink:title="AP030" d="M14151.9302,-4385.5267L14152.1805,-4385.5801L14152.3605,-4385.6331L14152.5803,-4385.6533L14152.5803,-4385.4668L14152.6794,-4385.3268L14152.9694,-4385.0731L14153.0594,-4385.0201"/>
<path content="AP030,1,28,1,0,14,1,8,JPN" xlink:title="AP030" d="M14151.9302,-4385.5267L14152.0203,-4385.3268L14152.15,-4385.0399L14153.0594,-4385.0201"/>
<path content="AP030,1,28,1,0,14,1,8,JPN" xlink:title="AP030" d="M14153.0594,-4385.0201L14153.27,-4384.9865L14153.4302,-4384.9667L14153.5797,-4384.9865L14154.1306,-4385.1067L14154.6799,-4385.2867L14154.8294,-4385.3798L14154.95,-4385.5598L14154.9698,-4385.6533L14154.9301,-4385.6865L14154.8798,-4385.7597L14154.8523,-4385.8032L14154.8096,-4385.8665L14154.8294,-4385.9734L14154.8798,-4386.0466L14154.9301,-4386.1L14155.0598,-4386.1198L14155.1971,-4386.0657L14155.3162,-4385.9959L14155.6107,-4385.8467L14155.7907,-4385.7933L14155.9906,-4385.7933L14156.1996,-4385.8467L14156.3797,-4385.9734L14156.4301,-4386.0466L14156.4896,-4386.1732L14156.5598,-4386.4399L14156.6299,-4386.5868L14156.7398,-4386.6798L14156.9,-4386.7664L14157.2906,-4386.8198L14157.6492,-4386.8401L14157.8293,-4386.8732L14158.4305,-4387.22L14158.5403,-4387.3466"/>
<path content="AP030,1,28,1,0,14,1,8,JPN" xlink:title="AP030" d="M14175.7904,-4385.593L14175.9003,-4385.4134L14175.9293,-4385.3268L14175.9506,-4384.9865L14175.9903,-4384.893L14176.0193,-4384.8598L14176.1307,-4384.7466L14176.4297,-4384.6397L14176.6098,-4384.5867L14176.86,-4384.6199L14177.0401,-4384.7134L14177.5803,-4385.0731L14178.1097,-4385.3268L14178.1799,-4385.3466L14178.2394,-4385.36L14178.5599,-4385.36L14178.7201,-4385.3268L14178.9307,-4385.2734L14179.0604,-4385.2333L14179.2694,-4385.1799L14179.4907,-4385.0731L14179.6799,-4385.0533L14179.9698,-4385.0731L14180.2399,-4385.1067L14180.3604,-4385.0933L14180.6107,-4385.0201L14180.8807,-4384.9133L14181.1493,-4384.8732L14181.5598,-4384.893L14181.6101,-4384.8732"/>
<path content="AP030,1,28,1,0,14,1,8,JPN" xlink:title="AP030" d="M14181.6101,-4384.8732L14181.7703,-4384.84L14181.9504,-4384.8L14182.0801,-4384.7866L14182.2205,-4384.7332L14182.3593,-4384.6397L14182.4707,-4384.4398L14182.5806,-4384.333L14182.7896,-4384.2464L14182.8796,-4384.193L14182.8796,-4384.1198L14182.8796,-4384.1146"/>
<path content="AP030,1,28,1,0,16,1,8,JPN" xlink:title="AP030" d="M14175.7904,-4385.593L14175.4632,-4385.0428L14175.3349,-4384.702L14175.37,-4384.341L14175.54,-4384.046L14176.06,-4383.76L14176.83,-4383.685L14177.75,-4383.904L14178.39,-4384.103L14179.19,-4384.16L14180.1,-4384.141L14181.41,-4384.122L14182.38,-4384.113L14182.8,-4384.122L14182.8796,-4384.1146"/>
<path content="AP030,1,28,1,0,16,1,8,JPN" xlink:title="AP030" d="M14182.8796,-4384.1146L14183.21,-4384.084L14183.49,-4384.008L14183.68,-4383.808L14184.1,-4383.113L14184.3356,-4382.7416"/>
<path content="AP030,1,28,1,0,14,1,8,JPN" xlink:title="AP030" d="M14183.49,-4382.5665L14184.3356,-4382.7416"/>
<path content="AP030,1,28,1,0,14,1,8,JPN" xlink:title="AP030" d="M14182.8796,-4384.1146L14182.8796,-4383.8867L14182.8995,-4383.7933L14182.9697,-4383.7067L14183.02,-4383.6132L14183.0399,-4383.4667L14183.0597,-4383.3797L14183.2703,-4383.0933L14183.2901,-4383.0399L14183.2703,-4382.9998L14183.2703,-4382.8934L14183.3099,-4382.7866L14183.4305,-4382.6797L14183.49,-4382.5665"/>
<path content="AP030,1,28,1,0,14,1,8,JPN" xlink:title="AP030" d="M14146.2692,-4382.1198L14146.3806,-4382.1335L14146.4905,-4382.1934L14146.6095,-4382.2468L14146.7407,-4382.32L14146.8597,-4382.4265L14146.9498,-4382.5333L14147.1298,-4382.6935L14147.2702,-4382.7866L14147.4304,-4382.8732L14147.6807,-4383.02L14147.8104,-4383.0933L14147.9904,-4383.3267L14148.1094,-4383.4L14148.2193,-4383.4133L14148.4497,-4383.4866L14148.7701,-4383.5598L14148.9899,-4383.5934L14149.2905,-4383.5934L14149.3607,-4383.5934L14149.4293,-4383.6132L14149.6506,-4383.72L14149.8093,-4383.8867L14149.9298,-4384.0267L14150.0793,-4384.28L14150.1999,-4384.4398L14150.47,-4384.66L14150.56,-4384.7668L14150.5798,-4384.9266L14150.6104,-4385.0201L14150.8102,-4385.22L14150.9506,-4385.36L14151.1093,-4385.4332L14151.1505,-4385.4668L14151.3596,-4385.54L14151.5594,-4385.593L14151.86,-4385.6667L14151.9302,-4385.5267"/>
<path content="AP030,1,28,1,0,14,1,4,JPN" xlink:title="AP030" d="M14146.2692,-4382.1198L14146.2006,-4382.1198L14144.6106,-4382.2598L14144.1299,-4382.2998L14144.0598,-4382.2998"/>
<path content="AP030,1,28,1,0,14,1,8,JPN" xlink:title="AP030" d="M14202.5604,-4380.9998L14202.6505,-4381.1268L14202.7405,-4381.2199L14203.125,-4381.5208"/>
<path content="AP030,1,28,1,0,14,1,8,JPN" xlink:title="AP030" d="M14194.0582,-4380.8964L14194.2703,-4380.9132L14194.5801,-4380.9265L14194.7403,-4380.9868L14194.8807,-4381.1466L14194.9905,-4381.2534L14195.0806,-4381.2866L14195.99,-4381.3801L14197.3801,-4381.5399L14197.4899,-4381.5598L14198.1293,-4381.5933L14199.1501,-4381.6666L14199.6796,-4381.6868L14200.1999,-4381.76L14201.2894,-4381.0398L14201.3992,-4381.02L14201.6296,-4380.9868L14202.5604,-4380.9998"/>
<path content="AP030,1,28,1,0,14,1,8,JPN" xlink:title="AP030" d="M14139.4302,-4380.6934L14139.65,-4380.7667L14139.7903,-4380.8598L14139.9902,-4381.0734L14140.1505,-4381.1798L14140.3305,-4381.2332L14140.7196,-4381.3065L14141.1499,-4381.3801L14141.4703,-4381.4667L14141.7694,-4381.6132L14141.8106,-4381.6334L14142.3599,-4381.8466L14142.63,-4381.9401L14143.0801,-4382.0999L14143.4006,-4382.2266L14143.7393,-4382.2998L14143.8995,-4382.32L14144.0598,-4382.2998"/>
<path content="AP030,1,28,1,0,14,1,8,JPN" xlink:title="AP030" d="M14190.9363,-4380.6568L14191.9495,-4380.7865L14192.6498,-4380.8735L14193.1305,-4380.9265L14193.3304,-4380.9467L14193.3594,-4380.8399L14194.0582,-4380.8964"/>
<path content="AP030,1,28,1,0,15,1,8,JPN" xlink:title="AP030" d="M14181.6101,-4384.8732L14181.9473,-4385.1452L14182.8384,-4385.3897L14183.3984,-4385.6773L14183.7448,-4386.0512L14184.3338,-4386.2957L14184.8663,-4386.2816L14185.1822,-4386.454L14185.4416,-4386.5116L14185.6934,-4386.4807L14186.261,-4386.4109L14186.7645,-4386.3819L14187.1384,-4386.2526L14187.2879,-4385.8463L14187.3398,-4385.7063L14187.6419,-4385.4473L14188.0005,-4385.2604L14188.4476,-4384.6851L14188.6475,-4384.4261L14189.3814,-4383.9661L14189.7842,-4383.5777L14189.9277,-4383.276L14189.9857,-4382.7724L14190.4465,-4382.2979L14190.6326,-4382.0824L14190.8051,-4381.2336L14190.9363,-4380.6568"/>
<path content="AP030,1,28,1,0,14,1,4,JPN" xlink:title="AP030" d="M14139.4302,-4380.6934L14139.1495,-4380.6065L14138.9496,-4380.5134L14138.6093,-4380.2998L14138.2904,-4380.0667"/>
<path content="AP030,1,28,1,0,14,1,8,JPN" xlink:title="AP030" d="M14190.7837,-4379.8483L14190.77,-4379.94L14190.7394,-4380.0133L14190.6494,-4380.6198L14190.9363,-4380.6568"/>
<path content="AP030,1,28,1,0,16,1,8,JPN" xlink:title="AP030" d="M14184.3356,-4382.7416L14184.57,-4382.372L14185.26,-4381.496L14185.8,-4380.801L14186.15,-4380.402L14186.72,-4380.002L14187.15,-4379.812L14187.59,-4379.783L14188.64,-4379.764L14189.29,-4379.793L14190.02,-4379.831L14190.7837,-4379.8483"/>
<path content="AP030,1,28,1,0,15,1,8,JPN" xlink:title="AP030" d="M14194.0582,-4380.8964L14194.9661,-4379.9713L14194.9933,-4379.184"/>
<path content="AP030,1,28,1,0,16,1,8,JPN" xlink:title="AP030" d="M14190.7837,-4379.8483L14190.86,-4379.85L14191.8,-4379.897L14192.82,-4379.926L14193.58,-4379.974L14194.01,-4379.86L14194.58,-4379.488L14194.9933,-4379.184"/>
<path content="AP030,1,28,1,0,15,1,8,JPN" xlink:title="AP030" d="M14202.5604,-4380.9998L14203.125,-4380.9649"/>
<path content="AP030,1,28,1,0,14,1,8,JPN" xlink:title="AP030" d="M14188.3606,-4376.86L14188.4903,-4376.8932L14188.7207,-4376.9665L14189.1296,-4377.1667L14190.1306,-4377.6867L14190.6373,-4378.858L14190.7837,-4379.8483"/>
<path content="AP030,1,28,1,0,14,1,8,JPN" xlink:title="AP030" d="M14183.49,-4382.5665L14183.58,-4382.1533L14183.7402,-4381.0734L14183.8104,-4380.64L14183.8806,-4380.1533L14183.9294,-4379.7932L14184.0393,-4379.5399L14184.5795,-4378.9265L14184.9503,-4378.6064L14185.3104,-4378.2467L14185.7895,-4377.8999L14186.2,-4377.6867L14186.8805,-4377.3067L14187.0193,-4377.2331L14187.2406,-4377.1267L14187.5397,-4377.0535L14188.0798,-4376.9867L14188.2202,-4376.9665L14188.3606,-4376.86"/>
<path content="AP030,1,28,1,0,14,1,8,JPN" xlink:title="AP030" d="M14195.0806,-4376.6598L14195.7703,-4376.6933"/>
<path content="AP030,1,28,1,0,15,1,8,JPN" xlink:title="AP030" d="M14194.9933,-4379.184L14195.0806,-4376.6598"/>
<path content="AP030,1,28,1,0,14,1,8,JPN" xlink:title="AP030" d="M14188.3606,-4376.86L14188.6093,-4376.6933L14188.9297,-4376.5533L14189.2395,-4376.4267L14189.5203,-4376.3332L14189.6301,-4376.3332L14189.7003,-4376.3332L14190.1093,-4376.3535L14191.3101,-4376.4267L14191.5604,-4376.44L14192.1295,-4376.4797L14192.9306,-4376.5331L14193.6798,-4376.5667L14194.4,-4376.6197L14195.0806,-4376.6598"/>
<path content="AP030,1,28,1,0,16,1,8,JPN" xlink:title="AP030" d="M14194.9933,-4379.184L14195.2,-4379.032L14195.97,-4378.499L14196.61,-4378.014L14197.15,-4377.614L14197.81,-4377.043L14198.1242,-4376.6915L14198.3307,-4376.3535L14198.3795,-4376.2466L14198.4161,-4375.9579"/>
<path content="AP030,1,28,1,0,14,1,8,JPN" xlink:title="AP030" d="M14195.7703,-4376.6933L14196.4905,-4376.7467L14196.8811,-4376.7704L14197.1497,-4376.7864L14197.2702,-4376.7666L14197.3999,-4376.7132L14197.7203,-4376.5133L14197.9294,-4376.3332L14198.1995,-4376.0998L14198.3307,-4376.0132L14198.4161,-4375.9579"/>
<path content="AP030,1,28,1,0,15,1,8,JPN" xlink:title="AP030" d="M14202.5604,-4380.9998L14202.4872,-4380.4287L14202.4765,-4379.7321L14202.2308,-4379.4731L14201.445,-4379.2191L14200.7782,-4378.833L14201.3596,-4377.6958L14201.6495,-4377.084L14202.0584,-4376.4271L14203.0106,-4375.8526L14203.125,-4375.7799"/>
<path content="AP030,1,28,1,0,14,1,8,JPN" xlink:title="AP030" d="M14198.4161,-4375.9579L14198.6099,-4375.8331L14199.0799,-4375.5932L14199.4003,-4375.4665L14199.4904,-4375.4333L14199.6796,-4375.3998L14200.4898,-4375.0534L14200.9293,-4374.9134L14201.2695,-4374.8398L14201.4496,-4374.7997L14202.0599,-4374.8199L14202.4307,-4374.8199L14202.5604,-4374.8199L14202.7405,-4374.7997L14203.125,-4374.6994"/>
<path content="AP030,1,28,1,0,14,1,8,JPN" xlink:title="AP030" d="M14188.3606,-4376.86L14188.1104,-4376.7864L14187.9898,-4376.7132L14187.9501,-4376.6399L14187.9303,-4376.44L14187.8296,-4375.6332L14187.6801,-4374.2798L14187.6495,-4373.8132L14187.6801,-4373.56L14187.7197,-4373.4333L14187.7396,-4373.3799L14187.9303,-4373.1464L14188.0203,-4372.9465L14188.0402,-4372.86L14188.1104,-4372.5864"/>
<path content="AP030,1,28,1,0,14,1,8,JPN" xlink:title="AP030" d="M14133.2397,-4371.6133L14133.3099,-4372.2466L14133.3099,-4372.3534L14133.3603,-4372.5132L14133.4,-4372.6601L14133.49,-4372.7867L14133.58,-4372.9134L14133.7402,-4373.1068L14133.9294,-4373.4333L14133.9905,-4373.6134L14134.0195,-4373.6866L14134.0805,-4373.7598L14134.1293,-4373.8464L14134.1507,-4373.9399L14134.1797,-4374.0131L14134.2697,-4374.0665L14134.52,-4374.1932L14134.61,-4374.3L14134.7702,-4374.5335L14134.9304,-4374.8734L14135.2203,-4375.3468L14135.3302,-4375.4532L14135.4706,-4375.5398L14135.5804,-4375.6134L14135.7193,-4375.7065L14135.7697,-4375.7198L14135.9299,-4375.8331L14136.2396,-4376.0666L14136.4502,-4376.2466L14136.4899,-4376.3866L14136.5204,-4376.7132L14136.5601,-4376.8398L14136.6104,-4376.8932L14136.7203,-4376.9867L14136.7706,-4377.0199L14136.8805,-4377.1465L14136.9507,-4377.3067L14136.9904,-4377.4532L14137.0407,-4377.5066L14137.1506,-4377.6333L14137.2192,-4377.7065L14137.2406,-4377.8465L14137.2894,-4377.9732L14137.2894,-4378.08L14137.3306,-4378.2066L14137.3306,-4378.2997L14137.2894,-4378.4267L14137.2192,-4378.5534L14137.2192,-4378.64L14137.2406,-4378.7132L14137.3093,-4378.8734L14137.3596,-4378.9467L14137.4496,-4379.1065L14137.5595,-4379.3266L14137.6999,-4379.5067L14137.7197,-4379.5399L14138.2004,-4380.0133L14138.2904,-4380.0667"/>
<path content="AP030,1,28,1,0,15,1,8,JPN" xlink:title="AP030" d="M14158.5403,-4387.3466L14158.7402,-4387.2017L14162.5488,-4384.4433L14163.736,-4384.1274L14165.6235,-4384.3388L14166.4612,-4384.0752L14167.0898,-4383.1787L14167.4408,-4381.1226L14168.2098,-4379.5937L14169.8166,-4377.4319L14169.8181,-4376.7464L14169.4687,-4375.2701L14169.5389,-4374.7952L14169.7479,-4374.5316L14170.517,-4374.5846L14172.1237,-4375.0069L14173.8708,-4375.4818L14174.8489,-4375.4292L14176.5259,-4374.9023L14179.1809,-4373.4795L14179.95,-4373.0576L14180.719,-4372.1615L14181.7673,-4371.6343L14182.605,-4371.4764L14183.4442,-4371.6347L14184.4925,-4372.3206L14185.26,-4372.6898L14188.1104,-4372.5864"/>
<path content="AP030,1,28,1,0,16,1,8,JPN" xlink:title="AP030" d="M14198.4161,-4375.9579L14198.4451,-4375.7317L14198.4497,-4375.6866L14198.8147,-4375.1247L14199.1589,-4374.5394L14199.7786,-4373.696L14200.7597,-4372.2845L14201.6708,-4370.9073"/>
<path content="AP030,1,28,1,0,15,1,8,JPN" xlink:title="AP030" d="M14201.6708,-4370.9073L14202.3438,-4371.1658L14203.125,-4371.4658"/>
<path content="AP030,1,28,1,0,15,1,8,JPN" xlink:title="AP030" d="M14188.1104,-4372.5864L14191.0599,-4372.3221L14191.7587,-4372.1111L14192.3874,-4371.7422L14193.9957,-4370.266L14194.8334,-4369.9497L14195.9518,-4369.7392"/>
<path content="AP030,1,28,1,0,14,1,4,JPN" xlink:title="AP030" d="M14133.2397,-4371.6133L14133.2901,-4371.4867L14133.3298,-4371.3799L14133.3298,-4371.2734L14133.3298,-4371.04L14133.3801,-4370.9133L14133.5205,-4370.66L14133.7006,-4370.3865L14133.8593,-4370.1199L14133.9005,-4369.9734L14133.9294,-4369.8868L14133.9905,-4369.7735L14134.1507,-4369.5934L14134.2194,-4369.4668"/>
<path content="AP030,1,28,1,0,15,1,8,JPN" xlink:title="AP030" d="M14195.7703,-4376.6933L14196.3745,-4374.0818L14196.7316,-4373.9048L14196.9833,-4370.8549L14196.9131,-4370.2896L14196.8231,-4369.3161"/>
<path content="AP030,1,28,1,0,15,1,8,JPN" xlink:title="AP030" d="M14195.9518,-4369.7392L14196.8231,-4369.3161"/>
<path content="AP030,1,28,1,0,15,1,8,JPN" xlink:title="AP030" d="M14196.962,-4369.2486L14201.6708,-4370.9073"/>
<path content="AP030,1,28,1,0,15,1,8,JPN" xlink:title="AP030" d="M14196.8231,-4369.3161L14196.962,-4369.2486"/>
<path content="AP030,1,28,1,0,15,1,8,JPN" xlink:title="AP030" d="M14189.0793,-4367.72L14190.5243,-4368.3826L14191.0049,-4368.4658L14192.8619,-4368.277L14195.9518,-4369.7392"/>
<path content="AP030,1,28,1,0,14,1,8,JPN" xlink:title="AP030" d="M14202.4612,-4367.5446L14202.6993,-4367.6533L14203.125,-4367.8124"/>
<path content="AP030,1,28,1,0,16,1,8,JPN" xlink:title="AP030" d="M14201.6708,-4370.9073L14203.125,-4368.6067"/>
<path content="AP030,1,28,1,0,16,1,8,JPN" xlink:title="AP030" d="M14202.9694,-4366.7332L14203.1097,-4366.7667L14203.125,-4366.769"/>
<path content="AP030,1,28,1,0,14,1,8,JPN" xlink:title="AP030" d="M14199.6796,-4366.2998L14200.8102,-4366.8198L14201.68,-4367.2001L14202.0203,-4367.3466L14202.2903,-4367.4667L14202.4612,-4367.5446"/>
<path content="AP030,1,28,1,0,15,1,8,JPN" xlink:title="AP030" d="M14196.962,-4369.2486L14198.1186,-4368.7378L14199.6796,-4366.2998"/>
<path content="AP030,1,28,1,0,14,1,8,JPN" xlink:title="AP030" d="M14192.6441,-4359.375L14192.8802,-4359.8465L14193.1305,-4360.3733L14193.4296,-4360.9867L14193.4494,-4361.0535L14193.6493,-4361.4666L14193.8995,-4361.9934L14194.0796,-4362.3531L14194.1498,-4362.5L14194.2398,-4362.6801L14194.4,-4363.0398L14194.6106,-4363.4865L14194.8593,-4364.0133L14194.9295,-4364.1731L14194.9905,-4364.2067L14195.7703,-4364.5535L14196.7407,-4364.9998L14197.7203,-4365.4331L14198.2895,-4365.6864L14199.4705,-4366.2067L14199.6796,-4366.2998"/>
<path content="AP030,1,28,1,0,14,1,8,JPN" xlink:title="AP030" d="M14134.2194,-4369.4668L14134.1995,-4369.2867L14134.1507,-4369.1265L14134.1293,-4368.9667L14134.1293,-4368.6199L14134.1507,-4368.5665L14134.1797,-4368.4265L14134.3094,-4368.1332L14134.4498,-4367.8867L14134.79,-4367.4133L14134.9304,-4367.1467L14135.0403,-4366.9998L14135.1501,-4366.9132L14135.2005,-4366.8198L14135.2203,-4366.6199L14135.2707,-4366.1732L14135.3104,-4365.7734L14135.3607,-4365.5598L14135.4004,-4365.4865L14135.5392,-4365.4133L14135.5606,-4365.3797L14135.6995,-4365.2534L14135.7895,-4365.1264L14135.8307,-4364.9265L14135.8307,-4364.8933L14135.8093,-4364.7999L14135.7193,-4364.6065L14135.6995,-4364.5664L14135.6506,-4364.5L14135.6506,-4364.2998L14135.6796,-4364.1731L14135.7697,-4364.0667L14135.9894,-4363.8664L14136.1801,-4363.7199L14136.2396,-4363.6131L14136.3602,-4363.2198L14136.47,-4363.0199L14136.5601,-4362.9131L14136.7401,-4362.8201L14137.1506,-4362.6598L14137.3596,-4362.5866L14137.6999,-4362.4599L14137.8296,-4362.3734L14137.8601,-4362.3531L14137.97,-4362.1933L14138.0402,-4362.0667L14138.0402,-4361.8999L14137.97,-4361.7733L14137.8799,-4361.6867L14137.7197,-4361.5265L14137.6801,-4361.4132L14137.6801,-4361.2865L14137.7197,-4361.1465L14137.7899,-4361.0931L14138.15,-4360.8398L14138.3102,-4360.7132L14138.3804,-4360.6197L14138.4003,-4360.5L14138.4293,-4360.4267L14138.4705,-4360.3001L14138.5803,-4360.1734L14138.5803,-4360.08L14138.5406,-4359.8331L14138.5803,-4359.5398L14138.6717,-4359.375"/>
<path content="AP030,1,28,1,0,14,1,8,JPN" xlink:title="AP030" d="M14188.1104,-4372.5864L14188.1805,-4372.4266L14188.2706,-4372.2267L14188.4903,-4371.8468L14188.5406,-4371.74L14188.6505,-4371.3799L14188.6993,-4370.5132L14188.6993,-4370.3865L14188.6993,-4369.5267L14188.6993,-4369.4668L14188.8596,-4368.8L14188.9297,-4368.4799L14189.0594,-4367.8867L14189.0793,-4367.72"/>
<path content="AP030,1,28,1,0,16,1,8,JPN" xlink:title="AP030" d="M14202.9694,-4366.7332L14202.3804,-4366.6065L14201.8295,-4366.4265L14201.2207,-4366.1732L14200.7706,-4365.9534L14199.6796,-4365.2733L14199.4507,-4365.0932L14199.3103,-4364.9467L14199.2004,-4364.7865L14199.1104,-4364.5332L14199.0402,-4364.4066L14198.8998,-4364.1731L14198.6801,-4363.8466L14198.4695,-4363.5067L14198.1796,-4363.1268L14198.0392,-4362.9665L14197.8104,-4362.7132L14197.6501,-4362.5L14197.4701,-4362.1532L14197.11,-4361.4132L14196.9498,-4361.0535L14196.8994,-4360.8601L14196.8796,-4360.6068L14196.8994,-4360.2066L14196.8796,-4359.9533L14196.8597,-4359.7935L14196.7697,-4359.5932L14196.6572,-4359.375"/>
<path content="AP030,1,28,1,0,14,1,8,JPN" xlink:title="AP030" d="M14172.973,-4359.375L14172.9904,-4359.4868L14173.0194,-4359.5264L14173.0804,-4359.5932L14173.1796,-4359.6535L14173.3597,-4359.6664L14174.1806,-4359.6333L14174.4904,-4359.5798L14174.6994,-4359.5264L14174.8596,-4359.4334L14174.9407,-4359.375"/>
<path content="AP030,1,28,1,0,14,1,8,JPN" xlink:title="AP030" d="M14146.2319,-4359.375L14146.2402,-4359.38L14146.3806,-4359.4131L14146.5393,-4359.4334L14146.9498,-4359.38L14146.973,-4359.375M14148.2532,-4359.375L14148.3093,-4359.38L14148.7396,-4359.4666L14149.0402,-4359.5066L14149.3103,-4359.5066L14149.6796,-4359.4532L14149.8795,-4359.3998L14150.1297,-4359.4334L14150.4501,-4359.5066L14150.8804,-4359.4666L14151.0406,-4359.4532L14151.5396,-4359.3998L14151.6998,-4359.4334L14152.2705,-4359.7065L14152.4307,-4359.7401L14153.27,-4359.8465L14153.7201,-4359.8866L14153.8605,-4359.8667L14154.0207,-4359.7733L14154.2007,-4359.7065L14154.4006,-4359.6134L14154.5593,-4359.5264L14155.1102,-4359.38L14155.1176,-4359.375"/>
<path content="AP030,1,28,1,0,15,1,8,JPN" xlink:title="AP030" d="M14192.1286,-4406.8479L14192.3355,-4406.8462L14193.985,-4408.2191L14194.751,-4407.6775"/>
<path content="AP030,1,28,1,0,15,1,8,JPN" xlink:title="AP030" d="M14191.0919,-4406.8561L14192.1286,-4406.8479"/>
<path content="AP030,1,28,1,0,14,1,8,JPN" xlink:title="AP030" d="M14189.0793,-4367.72L14189.18,-4367.2531L14189.2395,-4366.6599L14189.2899,-4366.5333L14189.4302,-4366.4398L14189.5599,-4366.3334L14189.6103,-4366.2464L14189.6301,-4366.1934L14189.4501,-4365.72L14189.3295,-4365.4331L14189.0198,-4364.6935L14188.7695,-4364.08L14188.6795,-4363.8664L14188.2004,-4362.7666L14188.1302,-4362.5866L14187.8799,-4362.0132L14187.8799,-4361.8866L14187.9898,-4361.5799L14188.0203,-4361.4334L14188.0203,-4361.3266L14187.7197,-4360.68L14187.4893,-4360.2066L14187.2406,-4359.6535L14187.1081,-4359.375"/>
</g>
</svg>
