<?xml version="1.0" encoding="UTF-8"?>
<svg  xmlns="http://www.w3.org/2000/svg" xmlns:xlink="http://www.w3.org/1999/xlink" xmlns:go="http://purl.org/svgmap/profile" property="f_code,acc,exs,rst,med,rtt,RSU,loc,soc" viewBox="13218.75 -3304.6875 70.3125 70.3125" go:dataArea="13218.75 -3304.6875 70.3125 70.3125" >
<metadata>
 <rdf:RDF xmlns:rdf="http://www.w3.org/1999/02/22-rdf-syntax-ns#" xmlns:crs="http://opengis.org/xmldtds/transformations.dtd" xmlns:svg="http://www.w3.org/svg" >
  <rdf:Description>
   <crs:CoordinateReferenceSystem rdf:resource="http://purl.org/crs/84" svg:transform="matrix(100.0,0.0,0.0,-100.0,0.0,0.0)" />
  </rdf:Description>
 </rdf:RDF>
</metadata>
<globalCoordinateSystem srsName="http://purl.org/crs/84" transform="matrix(100.0,0.0,0.0,-100.0,0.0,0.0)" />
<defs>
 <g id="p0" >
  <circle cx="0.0" cy="0.0" r="3" stroke="green" stroke-width="2.0" vector-effect="non-scaling-stroke" />
 </g>
</defs>
<g fill="none" fill-rule="evenodd" stroke="#00ff00" stroke-width="2" opacity="0.5" vector-effect="non-scaling-stroke" stroke-linejoin="bevel" >
<path content="AP030,1,28,1,0,15,1,8,JPN" xlink:title="AP030" d="M13254.3534,-3304.6875L13254.3442,-3304.4079L13255.0064,-3304.1237L13255.4108,-3303.9864L13255.3268,-3303.3894"/>
<path content="AP030,1,28,1,0,15,1,8,JPN" xlink:title="AP030" d="M13255.3268,-3303.3894L13254.3076,-3303.3089L13254.3076,-3303.3096L13254.184,-3303.4679L13254.2252,-3303.6072"/>
<path content="AP030,1,28,1,0,14,1,8,JPN" xlink:title="AP030" d="M13283.6358,-3304.6875L13283.6807,-3304.6398L13283.7906,-3304.5532L13284.0393,-3304.4067L13284.1095,-3304.2797L13284.1507,-3304.2267L13284.1995,-3304.1733L13284.2697,-3304.1332L13284.3307,-3304.1L13284.3796,-3304.0264L13284.4299,-3303.9734L13284.4696,-3303.9532L13284.4894,-3303.9398L13284.4894,-3303.8467L13284.4894,-3303.7731L13284.6802,-3303.5797L13284.7198,-3303.4531L13284.7702,-3303.36L13284.9503,-3303.22L13285.0601,-3303.1265L13285.2707,-3303.0399L13285.4324,-3302.956"/>
<path content="AP030,1,28,1,0,14,1,8,JPN" xlink:title="AP030" d="M13285.4324,-3302.956L13285.4904,-3302.9266L13285.5804,-3302.8931L13285.6796,-3302.8732L13285.7697,-3302.9865L13285.8994,-3303.0933L13286.1496,-3303.2333L13286.3297,-3303.273L13286.6806,-3303.3066L13287.0193,-3303.36L13287.1094,-3303.3798L13287.2406,-3303.4L13287.4496,-3303.3798L13287.6999,-3303.2867L13287.8098,-3303.2532L13288.0203,-3303.22L13288.15,-3303.1799L13288.2904,-3303.1799L13288.3606,-3303.1799L13288.5193,-3303.22L13288.5803,-3303.22L13288.6795,-3303.1998L13288.8596,-3303.1666L13289.0625,-3303.1074"/>
<path content="AP030,1,28,1,0,15,1,8,JPN" xlink:title="AP030" d="M13260.1987,-3297.0142L13260.4065,-3297.197L13261.0809,-3297.7154L13261.29,-3297.9885L13261.4777,-3298.291L13261.6379,-3299.7143L13261.261,-3300.5947L13259.4437,-3301.7071L13257.9834,-3302.1435L13257.1838,-3302.3361L13256.7139,-3302.1393L13255.9082,-3302.6211L13255.3268,-3303.3894"/>
<path content="AP030,1,28,1,0,15,1,8,JPN" xlink:title="AP030" d="M13285.4324,-3302.956L13285.3058,-3302.3197L13285.1578,-3302.1736L13284.6146,-3302.0836L13284.2316,-3301.8536L13284.0912,-3301.6125L13283.7799,-3300.61L13283.0734,-3300.4864L13282.7713,-3300.0546L13282.7286,-3299.4747L13283.0017,-3299.1631L13283.1223,-3298.3883L13282.9178,-3297.4274L13282.489,-3296.4066"/>
<path content="AP030,1,28,1,0,15,1,8,JPN" xlink:title="AP030" d="M13260.1987,-3297.0142L13260.9604,-3297.0177L13261.2625,-3296.8811L13261.586,-3296.6743L13262.1155,-3296.74L13262.2681,-3297.2031L13262.6114,-3297.1851L13262.6495,-3296.7758L13263.2614,-3297.023L13264.4302,-3296.2997"/>
<path content="AP030,1,28,1,0,14,1,8,JPN" xlink:title="AP030" d="M13282.489,-3296.4066L13282.4905,-3296.4066L13282.6797,-3296.2601L13282.6996,-3296.2601L13282.8598,-3296.2601L13282.8995,-3296.2601L13282.9697,-3296.2601L13283.1497,-3296.32L13283.2199,-3296.3333L13283.3603,-3296.3734L13283.4305,-3296.4397L13283.5403,-3296.5L13283.6502,-3296.5134L13283.7006,-3296.5332L13283.7402,-3296.5134L13283.7906,-3296.5L13283.8806,-3296.46L13283.9493,-3296.4268L13284.0195,-3296.4268L13284.0607,-3296.4268L13284.1995,-3296.46L13284.3094,-3296.5668L13284.3597,-3296.6064L13284.3994,-3296.6198L13284.4894,-3296.6198L13284.5596,-3296.6198L13284.7,-3296.6599L13284.8297,-3296.7667L13284.9701,-3296.8731L13285.0601,-3297.02L13285.1501,-3297.1066L13285.2203,-3297.1664L13285.2905,-3297.1798L13285.4706,-3297.1798L13285.4904,-3297.2L13285.5606,-3297.2733L13285.6796,-3297.3465L13285.7697,-3297.3801L13285.9299,-3297.4133L13285.9833,-3297.4186L13286.1298,-3297.4331L13286.2396,-3297.4533L13286.3098,-3297.5597L13286.4502,-3297.6665L13286.6302,-3297.7734L13286.7203,-3297.8466L13286.8103,-3297.8867L13286.9904,-3297.8867L13287.1994,-3297.9733L13287.3306,-3298.0667L13287.4496,-3298.0801L13287.6495,-3298.0667L13287.8098,-3297.9733L13288.0203,-3297.9L13288.2202,-3297.8867L13288.3606,-3297.7734L13288.5193,-3297.7066L13288.7405,-3297.76L13288.8306,-3297.7734L13289.0198,-3297.7398L13289.0625,-3297.7257"/>
<path content="AP030,1,28,1,0,14,1,8,JPN" xlink:title="AP030" d="M13282.489,-3296.4066L13282.4295,-3296.4268L13281.8604,-3296.4268L13281.6299,-3296.4268L13281.5201,-3296.46L13281.4499,-3296.5134L13281.4301,-3296.5332L13281.3293,-3296.5668L13281.2698,-3296.6064L13281.1493,-3296.6599L13280.9296,-3296.6599L13280.6793,-3296.553L13280.4504,-3296.3531L13280.4001,-3296.32L13280.0598,-3296.2997L13279.9896,-3296.2799L13279.9698,-3296.2799L13279.8096,-3296.133"/>
<path content="AP030,1,28,1,0,14,1,8,JPN" xlink:title="AP030" d="M13248.5617,-3304.6875L13248.5794,-3304.6398L13248.5794,-3304.2999L13248.6801,-3304.1199L13248.7198,-3304.0264L13248.7198,-3303.9398L13248.6801,-3303.7731L13248.6099,-3303.6533L13248.5199,-3303.54L13248.4894,-3303.5065L13248.4299,-3303.273L13248.3597,-3303.1067L13248.2407,-3302.9999L13248.2193,-3302.8732L13248.2407,-3302.7664L13248.3093,-3302.6199L13248.3994,-3302.4998L13248.4497,-3302.3731L13248.5596,-3302.3533L13249.4293,-3302.2064L13249.4904,-3302.1931L13249.5804,-3302.1198L13249.6506,-3301.9398L13249.6796,-3301.8997L13249.6994,-3301.8467L13249.7406,-3301.6331L13249.7406,-3301.54L13249.6094,-3301.453L13249.6094,-3301.3798L13249.6094,-3301.2333L13249.6994,-3301.1665L13249.8596,-3301.1467L13249.9298,-3301.1265L13249.9893,-3301.1066L13250.1801,-3300.9865L13250.2701,-3300.9464L13250.3296,-3300.8732L13250.3799,-3300.7465L13250.6302,-3300.5665L13250.8102,-3300.5333L13250.9705,-3300.4997L13251.1505,-3300.4066L13251.1993,-3300.3731L13251.2894,-3300.193L13251.2894,-3300.0134L13251.2894,-3299.9531L13251.2695,-3299.9397L13251.2695,-3299.9199L13251.1993,-3299.8665L13251.1993,-3299.5399L13251.2207,-3299.4331L13251.2695,-3299.3465L13251.3306,-3299.2199L13251.6495,-3298.9666L13251.68,-3298.9468L13251.7197,-3298.9132L13251.7395,-3298.8934L13251.8097,-3298.84L13251.86,-3298.7865L13251.9897,-3298.6797L13252.1103,-3298.5867L13252.2705,-3298.4398L13252.3804,-3298.32L13252.4506,-3298.2265L13252.4902,-3298.1331L13252.5192,-3298.0801L13252.5406,-3298.0465L13252.6093,-3298.0267L13252.6306,-3298.0267L13252.6993,-3298.0667L13252.7405,-3298.0667L13252.7695,-3298.0667L13252.8595,-3298.0267L13252.9297,-3297.9733L13252.9694,-3297.9198L13253.0396,-3297.7932L13253.3096,-3297.6868L13253.5599,-3297.58L13253.7704,-3297.5067L13253.7903,-3297.4133L13253.83,-3297.2866L13253.9505,-3297.2332L13254.0405,-3297.2332L13254.1504,-3297.2332L13254.2404,-3297.2198L13254.3106,-3297.1798L13254.3793,-3297.1466L13254.4693,-3297.1066L13254.4907,-3297.0398L13254.4693,-3296.8933L13254.4495,-3296.8399L13254.4907,-3296.7331L13254.5593,-3296.693L13254.7897,-3296.6198L13254.8294,-3296.6064L13255.1102,-3296.553L13255.13,-3296.5332L13255.4306,-3296.46L13255.5206,-3296.4397L13255.5603,-3296.4268L13255.7007,-3296.3867L13255.7693,-3296.2467L13255.8105,-3296.133L13255.8594,-3296.0464L13255.9692,-3295.9732L13256.0196,-3295.94L13256.0196,-3295.9198"/>
<path content="AP030,1,28,1,0,15,1,8,JPN" xlink:title="AP030" d="M13257.489,-3295.7199L13258.6517,-3296.1758L13259.5993,-3296.487L13260.1987,-3297.0142"/>
<path content="AP030,1,28,1,0,14,1,8,JPN" xlink:title="AP030" d="M13256.0196,-3295.9198L13256.1996,-3295.9198L13256.2698,-3295.9198L13256.3293,-3295.9198L13256.3599,-3295.9198L13256.4697,-3295.9L13256.6803,-3295.8866L13257.0206,-3295.8466L13257.2205,-3295.7733L13257.4005,-3295.7397L13257.489,-3295.7199"/>
<path content="AP030,1,28,1,0,14,1,8,JPN" xlink:title="AP030" d="M13279.1794,-3295.6665L13279.1809,-3295.6676L13279.2007,-3295.6867L13279.2175,-3295.6947L13279.4296,-3295.7932L13279.5395,-3295.8466L13279.6494,-3295.9534L13279.8096,-3296.133"/>
<path content="AP030,1,28,1,0,14,1,8,JPN" xlink:title="AP030" d="M13279.8096,-3296.133L13281.897,-3295.7947L13281.9153,-3295.7916L13284.1309,-3295.4063L13284.9228,-3295.829L13286.4883,-3296.344L13288.707,-3296.6541L13289.0625,-3296.7407"/>
<path content="AP030,1,28,1,0,14,1,8,JPN" xlink:title="AP030" d="M13257.489,-3295.7199L13257.4905,-3295.7199L13257.6096,-3295.6665L13257.6797,-3295.6333L13258.3298,-3295.38L13258.3826,-3295.3875"/>
<path content="AP030,1,28,1,0,14,1,8,JPN" xlink:title="AP030" d="M13258.3826,-3295.3875L13258.4702,-3295.3999L13258.58,-3295.4132L13258.6304,-3295.3999L13258.6807,-3295.3266L13258.7006,-3295.3266L13258.7906,-3295.2866L13259.1293,-3295.2198L13259.2773,-3295.2049"/>
<path content="AP030,1,28,1,0,16,1,8,JPN" xlink:title="AP030" d="M13255.5191,-3295.1065L13255.5206,-3295.1065L13255.6305,-3295.1466L13255.6793,-3295.2332L13255.7404,-3295.433L13255.7907,-3295.4865L13255.9494,-3295.6532L13256.0196,-3295.7397L13256.0196,-3295.7733L13256.0196,-3295.9198"/>
<path content="AP030,1,28,1,0,16,1,8,JPN" xlink:title="AP030" d="M13250.6348,-3294.9425L13250.65,-3294.9467L13250.7706,-3295.0001L13250.8606,-3295.0932L13250.9293,-3295.1668L13250.9003,-3295.2332L13250.9003,-3295.2385L13250.9003,-3295.3465L13251.0406,-3295.4132L13251.0788,-3295.4132L13251.0803,-3295.4132L13251.5396,-3295.4132L13251.68,-3295.4132L13252.2003,-3295.3068L13252.6505,-3295.2198L13252.7405,-3295.2L13253.1097,-3295.2198L13253.3295,-3295.1267L13253.5202,-3295.1267L13253.5217,-3295.1263L13254.0802,-3294.9867L13254.2694,-3294.9867L13254.6799,-3295.0199L13254.8599,-3295.1267L13254.8691,-3295.134L13254.9301,-3295.1797L13255.04,-3295.2332L13255.1102,-3295.2534L13255.13,-3295.2534L13255.22,-3295.2198L13255.2902,-3295.1668L13255.4001,-3295.1065L13255.5191,-3295.1065"/>
<path content="AP030,1,28,1,0,14,1,8,JPN" xlink:title="AP030" d="M13259.2773,-3295.2049L13259.3307,-3295.2L13260.0601,-3295.2L13260.5606,-3295.2L13260.7697,-3295.2L13260.9299,-3295.1668L13261.0596,-3295.1668L13261.2,-3295.1668L13261.6104,-3294.9467L13261.7706,-3294.9131L13261.8607,-3294.9131L13262.0407,-3294.9131L13262.2406,-3294.9265L13262.4695,-3295.0199L13262.5397,-3295.1466L13262.5198,-3295.3068L13262.6297,-3295.3598L13262.6801,-3295.3598L13262.8601,-3295.3465L13262.97,-3295.2866L13263.15,-3295.2732L13263.3301,-3295.3465L13263.4293,-3295.3999L13263.6093,-3295.3999L13264.1098,-3295.6333L13264.1998,-3295.7199L13264.2197,-3295.7397L13264.27,-3295.8466L13264.3097,-3296.0133L13264.3295,-3296.0999L13264.3799,-3296.1933L13264.4302,-3296.2601L13264.4302,-3296.2997"/>
<path content="AP030,1,28,1,0,15,1,8,JPN" xlink:title="AP030" d="M13258.3826,-3295.3875L13258.3725,-3295.1561L13258.284,-3295.0073L13258.1741,-3294.9284L13257.7332,-3294.7556L13256.0471,-3294.8044L13255.5191,-3295.1065"/>
<path content="AP030,1,28,1,0,15,1,8,JPN" xlink:title="AP030" d="M13250.6348,-3294.9425L13250.3021,-3294.5473L13249.7025,-3293.9793"/>
<path content="AP030,1,28,1,0,14,1,8,JPN" xlink:title="AP030" d="M13264.4302,-3296.2997L13264.4501,-3296.3333L13264.5401,-3296.3734L13264.65,-3296.3867L13264.74,-3296.4066L13264.8804,-3296.4268L13265.0192,-3296.4397L13265.0803,-3296.4397L13265.1993,-3296.4798L13265.5396,-3296.6801L13265.8295,-3296.8201L13265.8798,-3296.9467L13265.8798,-3297.1466L13265.9302,-3297.253L13266.0202,-3297.3465L13266.0797,-3297.3465L13266.1102,-3297.3267L13266.1499,-3297.2733L13266.2201,-3297.2198L13266.3605,-3297.1798L13266.4703,-3297.0531L13266.7694,-3297.0398L13266.7892,-3297.0398L13266.9296,-3297.2L13267.0197,-3297.2332L13267.2394,-3297.2733L13267.3798,-3297.2866L13267.5201,-3297.253L13267.6102,-3297.2198L13267.6804,-3297.2332L13267.7399,-3297.2198L13267.8299,-3297.1798L13267.9001,-3297.1466L13268.2907,-3296.9666L13268.4692,-3296.8933L13268.5196,-3296.8933L13268.7897,-3297.0932L13268.8797,-3297.1066L13268.9301,-3297.1066L13269.0399,-3297.0398L13269.2398,-3296.9131L13269.5206,-3296.7999L13269.5602,-3296.6801L13269.7403,-3296.6198L13270.0195,-3296.5332L13270.0806,-3296.46L13270.0806,-3296.3867L13269.9905,-3296.2265L13269.9905,-3296.1731L13270.4697,-3295.9534L13270.5795,-3295.9732L13270.7001,-3296.1933L13270.7901,-3296.2601L13270.8603,-3296.2997L13271.2006,-3296.2067L13271.3104,-3296.1533L13271.3303,-3295.993L13271.3104,-3295.8866L13271.2204,-3295.7733L13271.2006,-3295.7066L13271.2692,-3295.4666L13271.3303,-3295.3465L13271.4905,-3295.1797L13271.6507,-3295.1466L13271.7697,-3295.0932L13271.8094,-3295.0733L13271.8796,-3294.9265L13271.9696,-3294.6198L13271.9299,-3294.4798L13271.9299,-3294.1933L13272.1802,-3293.7401L13272.2397,-3293.6665L13272.29,-3293.5799"/>
<path content="AP030,1,28,1,0,14,1,8,JPN" xlink:title="AP030" d="M13272.8104,-3293.4868L13272.9294,-3293.5265L13272.9904,-3293.5398L13273.0606,-3293.56L13273.1506,-3293.5932L13273.1796,-3293.5932L13273.4299,-3293.6531L13273.5794,-3293.8133L13273.7396,-3293.8999L13273.88,-3293.9533L13274.1104,-3294.0132L13274.1501,-3294.0266L13274.2401,-3294.0468L13274.3301,-3294.0666L13274.4293,-3294.1334L13274.4904,-3294.2066L13274.6094,-3294.4065L13274.6994,-3294.4599L13274.8993,-3294.5L13274.9298,-3294.5L13275.0793,-3294.5L13275.1297,-3294.4798L13275.2396,-3294.4599L13275.3601,-3294.3531L13275.3998,-3294.3199L13275.4501,-3294.2799L13275.5203,-3294.2467L13275.56,-3294.2265L13275.5798,-3294.2265L13275.7004,-3294.2265L13275.8301,-3294.2467L13275.8606,-3294.2467L13276.0193,-3294.3001L13276.1093,-3294.3733L13276.1505,-3294.4065L13276.2695,-3294.5L13276.4694,-3294.6934L13276.68,-3294.8601L13276.77,-3294.9131L13276.8295,-3294.9867L13276.8799,-3295.0733L13277.0599,-3295.2332L13277.15,-3295.2866L13277.4506,-3295.3598L13277.5192,-3295.38L13277.6093,-3295.3999L13277.8595,-3295.3999L13277.9907,-3295.3999L13278.0594,-3295.38L13278.1097,-3295.38L13278.27,-3295.3465L13278.3798,-3295.3266L13278.4897,-3295.3465L13278.6301,-3295.4666L13278.7704,-3295.4865L13279.1794,-3295.6665"/>
<path content="AP030,1,28,1,0,15,1,8,JPN" xlink:title="AP030" d="M13270.0029,-3304.6875L13270.192,-3304.4441L13270.5566,-3304.311L13271.167,-3304.2778L13271.4508,-3304.1782L13271.5317,-3303.9124L13271.6125,-3303.7128L13271.8567,-3303.4801L13272.6288,-3303.3806L13272.8714,-3303.1811L13272.9523,-3302.7157L13272.9523,-3302.317L13273.6435,-3301.8185L13274.0906,-3301.5526L13274.4965,-3301.3866L13274.8199,-3301.1208L13275.0244,-3300.7217L13275.5112,-3300.4227L13275.8362,-3300.2899L13276.0391,-3300.2563L13276.1612,-3299.9908L13276.2009,-3299.3923L13276.2421,-3298.8937L13276.5671,-3298.3624L13276.8097,-3298.0297L13276.8509,-3297.7306L13276.77,-3297.5647L13276.445,-3297.2988L13276.445,-3296.9666L13276.2421,-3296.5343L13275.592,-3296.0026L13275.145,-3295.8694L13274.6994,-3295.9362L13274.5361,-3295.8694L13274.4965,-3295.6039L13274.1302,-3295.2049L13273.4802,-3294.9722L13273.1567,-3294.64L13272.8729,-3293.9243L13272.8104,-3293.4868"/>
<path content="AP030,1,28,1,0,14,1,8,JPN" xlink:title="AP030" d="M13272.29,-3293.5799L13272.3297,-3293.5398L13272.4304,-3293.4532L13272.5204,-3293.4334L13272.5601,-3293.4132L13272.6807,-3293.4334L13272.7203,-3293.4532L13272.8104,-3293.4868"/>
<path content="AP030,1,28,1,0,14,1,8,JPN" xlink:title="AP030" d="M13271.7682,-3293.1934L13271.8307,-3293.2331L13272.02,-3293.38L13272.29,-3293.5799"/>
<path content="AP030,1,28,1,0,15,1,8,JPN" xlink:title="AP030" d="M13259.2773,-3295.2049L13259.4437,-3294.8109L13259.7214,-3294.215L13259.2911,-3293.882L13259.2163,-3293.6054L13259.2987,-3293.2819L13259.5459,-3292.9844L13260.1807,-3292.3702L13260.5682,-3292.2249L13264.4745,-3292.9863L13266.9525,-3292.6174L13268.2922,-3292.9131L13270.6741,-3293.0313L13271.7682,-3293.1934"/>
<path content="AP030,1,28,1,0,15,1,8,JPN" xlink:title="AP030" d="M13279.1794,-3295.6665L13279.3289,-3295.4849L13279.8737,-3294.8208L13280.6488,-3294.059L13281.0364,-3293.4875L13281.3477,-3292.9157L13281.5796,-3292.535L13281.813,-3292.408L13282.045,-3292.7254L13282.3563,-3292.9794L13282.8217,-3292.9157L13283.1314,-3292.5983L13283.4427,-3292.281L13284.3719,-3291.8365"/>
<path content="AP030,1,28,1,0,15,1,8,JPN" xlink:title="AP030" d="M13249.7025,-3293.9793L13249.0234,-3293.3563L13248.5657,-3293.2747L13248.2483,-3292.9977L13248.5458,-3291.6782"/>
<path content="AP030,1,28,1,0,15,1,8,JPN" xlink:title="AP030" d="M13249.7025,-3293.9793L13248.5535,-3293.9728L13248.2437,-3292.9977L13247.4472,-3293.8046L13246.6156,-3293.7462L13247.0108,-3293.5127L13247.3938,-3293.0565L13248.5458,-3291.6782"/>
<path content="AP030,1,28,1,0,15,1,8,JPN" xlink:title="AP030" d="M13249.7025,-3293.9793L13251.2634,-3293.8663L13251.709,-3293.4681L13251.6602,-3293.3369L13251.3168,-3293.2133L13251.0956,-3293.0412L13250.7751,-3292.8478L13250.0305,-3292.4099L13249.8352,-3292.3252L13249.6902,-3292.244L13249.4995,-3292.1165L13249.4766,-3292.0006L13249.4751,-3291.843L13249.4751,-3291.8423L13250.1816,-3290.8783"/>
<path content="AP030,1,28,1,0,15,1,8,JPN" xlink:title="AP030" d="M13250.1816,-3290.8783L13250.4639,-3291.4169L13251.4587,-3291.732L13252.3758,-3291.8362L13252.2141,-3291.4955L13251.5472,-3291.3265L13251.3077,-3290.6124L13250.8484,-3290.638L13250.4272,-3290.7951L13250.1816,-3290.8783"/>
<path content="AP030,1,28,1,0,15,1,8,JPN" xlink:title="AP030" d="M13248.5458,-3291.6782L13247.7844,-3291.3567L13248.3749,-3290.6403L13248.7076,-3290.5342L13248.9929,-3290.554L13249.3637,-3290.7509L13249.6094,-3290.839L13250.1816,-3290.8783"/>
<path content="AP030,1,28,1,0,15,1,8,JPN" xlink:title="AP030" d="M13282.9468,-3289.7259L13284.3719,-3291.8365"/>
<path content="AP030,1,28,1,0,15,1,8,JPN" xlink:title="AP030" d="M13284.3719,-3291.8365L13284.761,-3291.4555L13284.9167,-3291.2014L13284.8724,-3290.4427L13285.3043,-3289.5504L13286.235,-3289.1693"/>
<path content="AP030,1,28,1,0,15,1,8,JPN" xlink:title="AP030" d="M13282.9468,-3289.7259L13284.0637,-3289.2639L13284.848,-3289.233L13286.235,-3289.1693"/>
<path content="AP030,1,28,1,0,15,1,8,JPN" xlink:title="AP030" d="M13286.235,-3289.1693L13285.0876,-3288.2187L13284.8236,-3287.9131L13285.0632,-3287.4344"/>
<path content="AP030,1,28,1,0,14,1,8,JPN" xlink:title="AP030" d="M13271.7682,-3293.1934L13271.4706,-3293L13271.4493,-3292.8734L13271.4493,-3292.7666L13271.4294,-3292.5667L13271.2692,-3292.44L13271.1807,-3292.3531L13271.1304,-3292.3L13271.1304,-3292.1932L13271.2006,-3291.9533L13271.2906,-3291.7732L13271.3806,-3291.56L13271.4005,-3291.4867L13271.4294,-3291.4532L13271.4905,-3291.4131L13271.6095,-3291.3467L13271.6797,-3291.2731L13271.7896,-3291.0931L13271.8597,-3291.0198L13271.8597,-3290.913L13271.8597,-3290.8199L13271.8597,-3290.7997L13271.8597,-3290.7665L13271.9299,-3290.6067L13272.0398,-3290.3332L13272.1802,-3290.0131L13272.2,-3289.9399L13272.2,-3289.8464L13272.11,-3289.7064L13272.0596,-3289.5798L13272.0398,-3289.4665L13272.11,-3289.3997L13272.2198,-3289.36L13272.3297,-3289.36L13272.3999,-3289.3467L13272.4701,-3289.3066L13272.5204,-3289.233L13272.5204,-3289.1998L13272.5204,-3289.1068L13272.3297,-3288.8931L13272.29,-3288.8199L13272.2702,-3288.6932L13272.2198,-3288.533L13272.2,-3288.4266L13272.1497,-3288.3331L13272.1497,-3288.3198L13272.1802,-3288.2797L13272.2,-3288.2065L13272.2397,-3288.1332L13272.29,-3288.0131L13272.2748,-3287.9971L13272.1802,-3287.8998L13272.1802,-3287.7399L13272.2702,-3287.6331L13272.4304,-3287.5595L13272.4481,-3287.5292L13272.4503,-3287.413"/>
<path content="AP030,1,28,1,0,15,1,8,JPN" xlink:title="AP030" d="M13273.3246,-3287.1532L13273.9136,-3287.6453L13273.9532,-3288.266L13274.1089,-3288.6883L13275.1999,-3289.5432L13275.5905,-3290.0635L13275.7812,-3290.1173L13277.6382,-3289.5813L13278.5049,-3289.1857L13278.5461,-3288.7352L13279.7104,-3289.3478L13280.1743,-3289.09L13282.4219,-3289.0736L13282.9468,-3289.7259"/>
<path content="AP030,1,28,1,0,15,1,8,JPN" xlink:title="AP030" d="M13272.4503,-3287.413L13273.3246,-3287.1532"/>
<path content="AP030,1,28,1,0,15,1,8,JPN" xlink:title="AP030" d="M13285.0632,-3287.4344L13285.1456,-3287.0689"/>
<path content="AP030,1,28,1,0,15,1,8,JPN" xlink:title="AP030" d="M13286.235,-3289.1693L13286.9324,-3288.8519L13287.3993,-3288.4075L13288.1744,-3288.0901L13288.7177,-3287.9631L13289.0625,-3287.9064"/>
<path content="AP030,1,28,1,0,14,1,8,JPN" xlink:title="AP030" d="M13272.4503,-3287.413L13272.2,-3287.2532L13272.0596,-3287.1666L13271.9696,-3287.1067L13271.9696,-3287.0533L13271.9696,-3287.0197L13271.9894,-3286.9667L13271.9894,-3286.8599L13271.9498,-3286.8L13271.9498,-3286.6199L13271.8597,-3286.4067L13271.8307,-3286.3331L13271.9299,-3285.9398L13271.9299,-3285.8334L13271.9299,-3285.7933L13271.8597,-3285.7597L13271.8597,-3285.7067L13271.8597,-3285.6133L13271.8094,-3285.5598L13271.6507,-3285.4134L13271.6293,-3285.3268L13271.6095,-3285.1997L13271.3303,-3284.8732L13271.3104,-3284.84L13271.2692,-3284.7866L13271.2006,-3284.7466L13271.0602,-3284.6798L13270.8603,-3284.5867L13270.8603,-3284.5665L13270.8099,-3284.5131L13270.7001,-3284.4067L13270.6497,-3284.28L13270.6299,-3284.2266"/>
<path content="AP030,1,28,1,0,14,1,8,JPN" xlink:title="AP030" d="M13270.6299,-3284.2266L13270.6497,-3284.1732L13270.6802,-3284.0797L13270.7199,-3283.9531L13270.7901,-3283.8131L13270.9,-3283.7067L13270.9305,-3283.54L13270.9503,-3283.5068L13271.0205,-3283.3065L13271.0205,-3283.0734L13270.9702,-3282.9468L13270.8603,-3282.7667L13270.8298,-3282.7133L13270.7397,-3282.5665L13270.7001,-3282.5134L13270.7001,-3282.4799L13270.7001,-3282.4398L13270.7001,-3282.4265L13270.7703,-3282.2998L13270.7901,-3282.2468L13270.8099,-3282.1934"/>
<path content="AP030,1,28,1,0,15,1,8,JPN" xlink:title="AP030" d="M13285.0632,-3287.4344L13284.4391,-3287.3112L13284.3613,-3287.0998L13286.113,-3286.1027L13286.9003,-3286.0306L13287.5687,-3285.6621L13288.5056,-3285.0231L13288.7711,-3285.3287L13289.032,-3284.6043L13288.8947,-3283.9775L13289.0625,-3283.8468M13289.0625,-3281.3339L13289.003,-3281.1832L13289.0594,-3280.5687L13289.0625,-3280.5661"/>
<path content="AP030,1,28,1,0,15,1,8,JPN" xlink:title="AP030" d="M13268.4952,-3280.0224L13269.281,-3280.5695L13270.401,-3281.1157L13270.8099,-3282.1934"/>
<path content="AP030,1,28,1,0,15,1,8,JPN" xlink:title="AP030" d="M13270.6299,-3284.2266L13270.2469,-3284.2621L13269.8593,-3284.5192L13269.3146,-3284.671L13268.5471,-3284.5257L13268.0527,-3284.4452L13267.63,-3284.1816L13267.1555,-3283.8905L13266.5802,-3283.7814L13266.4474,-3283.7017L13266.6748,-3283.3637L13266.5588,-3283.1203L13265.9134,-3282.5588L13265.7059,-3282.0972L13265.6265,-3281.7619L13265.7761,-3281.348L13265.155,-3281.424L13264.8621,-3281.2866L13264.8148,-3281.1893L13265.271,-3280.7957L13265.9058,-3280.2731L13266.2003,-3280.1041L13266.0568,-3280.4482L13265.9897,-3280.8674L13266.6214,-3280.368L13267.0593,-3280.468L13267.5842,-3280.2204L13267.5827,-3280.5267L13268.4952,-3280.0224"/>
<path content="AP030,1,28,1,0,15,1,8,JPN" xlink:title="AP030" d="M13273.3246,-3287.1532L13274.0677,-3286.5025L13274.5071,-3285.8982L13274.7574,-3285.9303L13275.1434,-3285.849L13275.5356,-3285.7227L13275.6409,-3285.5618L13275.7858,-3285.358L13275.8545,-3285.21L13276.0818,-3284.8896L13276.6296,-3284.2548L13277.1286,-3284.0279L13277.4704,-3283.5148L13278.0962,-3283.0578L13279.0356,-3282.6294L13280.0501,-3282.3121L13280.9519,-3282.1217L13281.4404,-3281.9313L13281.835,-3281.7251L13282.1919,-3281.3285L13282.3047,-3280.2338L13282.3422,-3279.7578L13282.6241,-3279.3295L13283.0562,-3279.0122L13283.5635,-3278.6949L13283.9905,-3278.2467"/>
<path content="AP030,1,28,1,0,14,1,8,JPN" xlink:title="AP030" d="M13283.9905,-3278.2467L13284.0393,-3278.2467L13284.1095,-3278.2265L13284.2697,-3278.2265L13284.4498,-3278.2066L13284.6802,-3278.26L13284.7198,-3278.3199L13284.7702,-3278.3531L13284.8602,-3278.4599L13285.0403,-3278.6598L13285.1105,-3278.7132L13285.1807,-3278.7334L13285.2707,-3278.7464L13285.2905,-3278.7464L13285.3302,-3278.7464L13285.4706,-3278.7132L13285.5606,-3278.7132L13285.6796,-3278.7666L13285.8093,-3278.9665L13285.8307,-3278.9997L13285.9695,-3279.1065L13286.0199,-3279.1267L13286.1496,-3279.1664L13286.3297,-3279.1664L13286.4304,-3279.1466L13286.47,-3279.1267L13286.5799,-3279.0199L13286.6501,-3278.9467L13286.6806,-3278.9467L13286.7706,-3278.9665L13286.9507,-3278.9867L13287.0193,-3278.9867L13287.1506,-3278.9867L13287.2192,-3279.0199L13287.2894,-3279.0531L13287.3795,-3279.1065L13287.3993,-3279.1065L13287.5198,-3279.1267L13287.97,-3279.1466L13288.0203,-3279.1267L13288.0402,-3279.1267L13288.0798,-3279.1267L13288.1302,-3279.1267L13288.2706,-3279.2866L13288.3804,-3279.3999L13288.5605,-3279.4334L13288.6795,-3279.4533L13288.7894,-3279.4666L13288.8596,-3279.5265L13289.0625,-3279.7081"/>
<path content="AP030,1,28,1,0,15,1,8,JPN" xlink:title="AP030" d="M13262.2574,-3276.9653L13262.7823,-3276.7178L13263.4445,-3276.585L13263.7192,-3276.6716L13264.1479,-3276.7155L13264.2395,-3276.9337L13263.8062,-3277.9881L13264.0488,-3278.075L13264.4623,-3277.8202L13264.7247,-3278.0029L13265.8615,-3278.3619L13266.2628,-3278.2475L13266.5237,-3278.7361L13266.9296,-3279.1637L13267.9916,-3279.4468L13268.4952,-3280.0224"/>
<path content="AP030,1,28,1,0,14,1,8,JPN" xlink:title="AP030" d="M13270.8099,-3282.1934L13270.9305,-3282.1533L13271.1105,-3282.1732L13271.2906,-3282.2998L13271.3303,-3282.3334L13271.5195,-3282.3868L13271.7697,-3282.3868L13271.8796,-3282.3734L13271.8994,-3282.3532L13271.9894,-3282.32L13272.0596,-3282.28L13272.2198,-3282.0999L13272.29,-3282.0267L13272.3099,-3282.0133L13272.3602,-3281.9733L13272.5204,-3281.7066L13272.8607,-3281.2199L13273.0194,-3280.9666L13273.0804,-3280.8399L13273.1796,-3280.6801L13273.2895,-3280.3867L13273.3093,-3280.3532L13273.4299,-3280.0133L13273.5199,-3279.9L13273.5794,-3279.8134L13273.6298,-3279.7398L13273.7,-3279.6867L13273.8297,-3279.6131L13273.8602,-3279.5933L13273.9304,-3279.5601L13274.0204,-3279.3999L13274.0204,-3279.38L13274.1104,-3279.3266L13274.2706,-3279.3266L13274.3103,-3279.3266L13274.4507,-3279.3064L13274.5193,-3279.2866L13274.7406,-3279.2L13274.9298,-3279.1267L13275.1999,-3278.9997L13275.2701,-3278.9665L13275.3998,-3278.8933L13275.6805,-3278.6598L13275.8606,-3278.4267L13275.9705,-3278.3333L13276.1795,-3278.1933L13276.3107,-3278.0998L13276.4297,-3277.9934L13276.4893,-3277.8866L13276.5793,-3277.7599L13276.68,-3277.6134L13276.7197,-3277.5066L13276.77,-3277.38L13276.77,-3277.2533L13276.6998,-3277.1065L13276.68,-3277L13276.68,-3276.7132L13276.6998,-3276.5667L13276.8097,-3276.4599L13276.86,-3276.3733L13276.8997,-3276.2466L13277.0203,-3276.2066L13277.1301,-3276.1932L13277.24,-3276.1532L13277.4704,-3275.8865L13277.6794,-3275.7401L13277.8595,-3275.5798L13277.9007,-3275.5264L13277.9297,-3275.4868L13277.9694,-3275.4665L13278.0197,-3275.4868L13278.0807,-3275.5398L13278.1998,-3275.6866L13278.1998,-3275.7065L13278.27,-3275.7599L13278.2898,-3275.7732L13278.3997,-3275.7732L13278.4302,-3275.7732L13278.54,-3275.7401L13278.6301,-3275.7065L13278.7201,-3275.6332L13278.7903,-3275.5398L13278.8605,-3275.4665L13278.9307,-3275.3597L13279.0802,-3275.1999L13279.3106,-3275.0534L13279.5807,-3274.9664L13279.6799,-3274.9466L13279.7699,-3274.9268L13279.8798,-3274.9268L13279.9698,-3274.9466L13280.1804,-3275.1064L13280.2704,-3275.1999L13280.5206,-3275.4131L13280.7007,-3275.5798L13280.8594,-3275.7599L13281.0593,-3276.0666L13281.0806,-3276.0799L13281.1493,-3276.1532L13281.1798,-3276.1734L13281.2195,-3276.2264L13281.2897,-3276.2798L13281.3599,-3276.3199L13281.4896,-3276.3199L13281.6101,-3276.26L13281.6498,-3276.2264L13281.7902,-3276.1734L13282.0206,-3276.1734L13282.1106,-3276.2264L13282.3303,-3276.3535L13282.5394,-3276.5533L13282.6797,-3276.6399L13282.7393,-3276.7132L13282.9895,-3276.9466L13283.2397,-3277.3464L13283.2397,-3277.4132L13283.2901,-3277.5265L13283.3801,-3277.6531L13283.4305,-3277.6867L13283.5602,-3277.7733L13283.58,-3277.8133L13283.6502,-3277.9198L13283.7402,-3278.0998L13283.7692,-3278.1334L13283.7906,-3278.1933L13283.8593,-3278.2066L13283.8806,-3278.2265L13283.9294,-3278.2467L13283.9905,-3278.2467"/>
</g>
</svg>
